<?xml version="1.0" encoding="utf-8"?>
<!-- Generator: Adobe Illustrator 25.3.1, SVG Export Plug-In . SVG Version: 6.00 Build 0)  -->
<svg version="1.1" id="Layer_1" xmlns="http://www.w3.org/2000/svg" xmlns:xlink="http://www.w3.org/1999/xlink" x="0px" y="0px"
	 viewBox="0 0 210 84" style="enable-background:new 0 0 210 84;" xml:space="preserve">
<style type="text/css">
	.st0{fill:#ffffff;}
</style>
<g id="Group_7485" transform="translate(-54.038 -336)">
	<g id="Group_6683" transform="translate(54.038 336)">
		<path id="Path_7783" class="st0" d="M37.2,28.1L37.2,28.1c-0.6-0.2-1.1,0.1-1.3,0.6c0,0.1-0.1,0.3-0.1,0.4c0,0.8,0.6,1.5,1.4,1.7
			l0,0l12.5,3.4v-2.7L37.2,28.1z"/>
		<path id="Path_7784" class="st0" d="M37.2,33.6L37.2,33.6c-0.6-0.2-1.1,0.1-1.3,0.6c0,0.1-0.1,0.3-0.1,0.4c0,0.8,0.6,1.5,1.4,1.7
			l0,0l12.5,3.4v-2.7L37.2,33.6z"/>
		<path id="Path_7785" class="st0" d="M44.8,41L44.8,41c-0.6-0.2-1.1,0.1-1.3,0.6c0,0.1-0.1,0.3-0.1,0.4c0,0.8,0.6,1.5,1.3,1.7l0,0
			l5,1.3v-2.7L44.8,41z"/>
		<path id="Path_7786" class="st0" d="M44.8,46.5L44.8,46.5c-0.6-0.2-1.1,0.1-1.3,0.6c0,0.1-0.1,0.3-0.1,0.4c0,0.8,0.6,1.5,1.3,1.7
			l0,0l5,1.3v-2.7L44.8,46.5z"/>
		<path id="Path_7787" class="st0" d="M44.8,51.9L44.8,51.9c-0.6-0.2-1.1,0.1-1.3,0.6c0,0.1-0.1,0.3-0.1,0.4c0,0.8,0.6,1.5,1.3,1.7
			l0,0l5,1.3v-2.7L44.8,51.9z"/>
		<g id="Group_6682" transform="translate(13.918 6.426)">
			<path id="Path_7788" class="st0" d="M44.7,41.7c0.8-0.2,1.3-0.9,1.3-1.7c0-0.6-0.4-1-0.9-1c-0.1,0-0.3,0-0.4,0.1l-8.9,2.4v2.7
				L44.7,41.7z"/>
			<path id="Path_7789" class="st0" d="M44.7,30.8c0.8-0.2,1.3-0.9,1.3-1.7c0-0.6-0.4-1-0.9-1.1c-0.1,0-0.3,0-0.4,0.1l-8.9,2.4v2.7
				L44.7,30.8z"/>
		</g>
		<path id="Path_7790" class="st0" d="M62.5,40.3c1.7-1.6,2.6-3.8,2.7-6.2c0-3.7-3-6-6.8-5l-8.7,2.3v2.7l8.8-2.4
			c1.6-0.6,3.3,0.3,3.9,1.8c0.1,0.4,0.2,0.8,0.2,1.2c-0.1,2.4-1.7,4.4-4,5.1l-8.8,2.4v2.7l8.9-2.4c1.6-0.5,3.3,0.3,3.8,1.9
			c0.1,0.4,0.2,0.7,0.1,1.1c-0.1,2.4-1.8,4.5-4.1,5.2l-8.7,2.3v2.7l8.7-2.3c3.9-1.1,6.6-4.6,6.8-8.6C65.3,43,64.3,41.2,62.5,40.3z"
			/>
	</g>
	<g id="Group_6687" transform="translate(88.725 341.394)">
		<path id="Path_7791" class="st0" d="M49.3,28.1H36.1c-0.2,0-0.3,0.1-0.3,0.3l0,0v1.8c0,0.2,0.1,0.3,0.3,0.3l0,0h5.3v14.3
			c0,0.2,0.1,0.3,0.3,0.3l0,0h2c0.2,0,0.3-0.1,0.3-0.3l0,0V30.5h5.3c0.2,0,0.3-0.1,0.3-0.3l0,0v-1.8C49.7,28.2,49.5,28.1,49.3,28.1z
			"/>
		<path id="Path_7792" class="st0" d="M74.5,32l-1.8,0c-0.2,0-0.3,0.1-0.3,0.3v0.7c-1.2-0.8-2.7-1.3-4.1-1.3c-3.9,0-6.5,2.7-6.5,6.8
			c0,4.2,2.6,6.9,6.6,6.9c1.4,0,2.9-0.4,4-1.3v0.7c0,0.2,0.1,0.3,0.3,0.3h1.8c0.2,0,0.3-0.1,0.3-0.3V32.3C74.8,32.1,74.7,32,74.5,32
			z M72.4,35.9V41c-0.9,1.2-2.3,2-3.9,1.9c-2.6,0-4.2-1.7-4.2-4.5c0-2.7,1.6-4.4,4.1-4.4C70,34.1,71.4,34.7,72.4,35.9L72.4,35.9z"/>
		<path id="Rectangle_3224" class="st0" d="M78.3,28.1L78.3,28.1c0.7,0,1.3,0.6,1.3,1.3v14.5c0,0.7-0.6,1.3-1.3,1.3l0,0
			c-0.7,0-1.3-0.6-1.3-1.3V29.4C77,28.7,77.6,28.1,78.3,28.1z"/>
		<path id="Path_7793" class="st0" d="M103.7,31.7c-4.2,0-7.2,2.8-7.2,6.8c0,4,2.9,6.9,7.2,6.9c4.3,0,7.1-2.8,7.1-6.9
			C110.9,34.5,107.9,31.7,103.7,31.7z M108.3,38.5c0.1,2.5-1.9,4.6-4.4,4.7c-2.5,0.1-4.6-1.9-4.7-4.4c-0.1-2.5,1.9-4.6,4.4-4.7
			c0,0,0.1,0,0.1,0c2.4-0.1,4.4,1.7,4.5,4.1C108.3,38.2,108.3,38.4,108.3,38.5L108.3,38.5z"/>
		<path id="Path_7794" class="st0" d="M103.7,31.7c-4.2,0-7.2,2.8-7.2,6.8c0,4,2.9,6.9,7.2,6.9c4.3,0,7.1-2.8,7.1-6.9
			C110.9,34.5,107.9,31.7,103.7,31.7z M108.3,38.5c0.1,2.5-1.9,4.6-4.4,4.7c-2.5,0.1-4.6-1.9-4.7-4.4c-0.1-2.5,1.9-4.6,4.4-4.7
			c0,0,0.1,0,0.1,0c2.4-0.1,4.4,1.7,4.5,4.1C108.3,38.2,108.3,38.4,108.3,38.5L108.3,38.5z"/>
		<path id="Path_7795" class="st0" d="M118.7,31.7c-4.2,0-7.2,2.8-7.2,6.8c0,4,2.9,6.9,7.2,6.9c4.3,0,7.1-2.8,7.1-6.9
			C125.8,34.5,122.9,31.7,118.7,31.7z M123.2,38.5c0.1,2.5-1.9,4.6-4.4,4.7c-2.5,0.1-4.6-1.9-4.7-4.4c-0.1-2.5,1.9-4.6,4.4-4.7
			c0,0,0.1,0,0.1,0c2.4-0.1,4.4,1.7,4.5,4.1C123.2,38.2,123.2,38.4,123.2,38.5L123.2,38.5z"/>
		<path id="Path_7796" class="st0" d="M139.5,44.6l-4.8-7.6l4.5-4.6c0.1-0.1,0.1-0.3,0-0.5c-0.1-0.1-0.1-0.1-0.2-0.1h-2.5
			c-0.1,0-0.2,0-0.2,0.1l-6.7,6.9V28.4c0-0.2-0.1-0.3-0.3-0.3h-1.8c-0.2,0-0.3,0.1-0.3,0.3v16.4c0,0.2,0.1,0.3,0.3,0.3h1.8
			c0.2,0,0.3-0.1,0.3-0.3v-2.5l3.4-3.4l3.8,6c0.1,0.1,0.2,0.1,0.3,0.1h2.3c0.2,0,0.3-0.1,0.3-0.3C139.5,44.7,139.5,44.7,139.5,44.6
			L139.5,44.6z"/>
		<path id="Path_7797" class="st0" d="M93.1,36.5l-0.2,0l0,0l0.2-0.1c1.2-0.8,1.9-2.2,1.8-3.7c0-1.7-0.7-4.6-5.6-4.6h-7.2
			c-0.2,0-0.3,0.1-0.3,0.3v8.2l0,8.2c0,0.2,0.1,0.3,0.3,0.3H90c4.9,0,5.6-2.9,5.6-4.6C95.6,38.9,95.1,37.2,93.1,36.5z M84.4,30.5h5
			c1.3,0,2.9,0.5,2.9,2.2s-1,2.6-3.2,2.6h-4.6L84.4,30.5z M90.1,42.7h-5.7l0-4.9h5.3c2.3,0,3.2,0.9,3.2,2.7S91.4,42.7,90.1,42.7
			L90.1,42.7z"/>
		<g id="Group_6686" transform="translate(17.947 8.398)">
			<g id="Group_6685">
				<path id="Path_7798" class="st0" d="M35.9,28.1"/>
				<path id="Path_7799" class="st0" d="M35.8,28.1"/>
			</g>
		</g>
		<path id="Path_7800" class="st0" d="M58.6,41.2c-0.1-0.1-0.3-0.1-0.4,0c-1,1.2-2.5,1.8-4,1.8c-1.6,0.1-3.2-0.8-4-2.2h0
			c3-0.8,7.6-2,10.4-2.8c0-1.1-0.5-6.3-6.7-6.3c-4.2,0-6.7,3-6.7,6.8c0,4.2,2.7,6.8,6.9,6.9h0c2.3,0.2,4.5-0.8,6-2.6
			c0.1-0.1,0.1-0.3-0.1-0.4L58.6,41.2z M53.8,34c1.7-0.2,3.4,0.8,3.9,2.5l-8.1,2.2c-0.3-2.3,1.4-4.4,3.7-4.6
			C53.5,34,53.6,34,53.8,34L53.8,34z"/>
	</g>
</g>
</svg>
