<svg width="94" height="100" viewBox="0 0 94 100" fill="none" xmlns="http://www.w3.org/2000/svg">
<g clip-path="url(#clip0_362_1748)">
<path d="M21.8723 13C16.6631 13 12.8086 17.7003 12.9811 22.7978C13.1467 27.6951 12.9316 34.0377 11.3827 39.2102C9.82917 44.3978 7.20175 47.6839 2.91016 48.1059V52.8692C7.20175 53.2911 9.82917 56.5773 11.3827 61.7649C12.9316 66.9374 13.1467 73.28 12.9811 78.1773C12.8086 83.274 16.6631 87.9751 21.873 87.9751H75.2491C80.4583 87.9751 84.312 83.2748 84.1395 78.1773C83.9739 73.28 84.189 66.9374 85.7379 61.7649C87.2922 56.5773 89.9127 53.2911 94.2043 52.8692V48.1059C89.9127 47.6839 87.2922 44.3978 85.7379 39.2102C84.189 34.0385 83.9739 27.6951 84.1395 22.7978C84.312 17.7011 80.4583 13 75.2491 13H21.8715H21.8723ZM64.8045 59.1519C64.8045 66.1709 59.726 70.4277 51.2984 70.4277H36.952C36.0974 70.4277 35.4047 69.7135 35.4047 68.8325V32.1426C35.4047 31.2616 36.0974 30.5474 36.952 30.5474H51.2163C58.2437 30.5474 62.8556 34.4716 62.8556 40.4967C62.8556 44.7256 59.7531 48.5119 55.8004 49.1747V49.3956C61.1813 50.0042 64.8045 53.8455 64.8045 59.1519ZM49.734 35.6042H41.5539V47.5157H48.4435C53.7695 47.5157 56.7064 45.3047 56.7064 41.3525C56.7064 37.6493 54.1811 35.6042 49.734 35.6042ZM41.5539 52.2423V65.3693H50.0349C55.5799 65.3693 58.5176 63.0754 58.5176 58.7643C58.5176 54.4524 55.4979 52.2415 49.6783 52.2415H41.5539V52.2423Z" fill="black"/>
</g>
<defs>
<clipPath id="clip0_362_1748">
<rect width="94" height="100" fill="white"/>
</clipPath>
</defs>
</svg>
