<svg width="84" height="100" viewBox="0 0 84 100" fill="none" xmlns="http://www.w3.org/2000/svg">
<path d="M80.7007 63.133L71.7019 57.9346C71.3055 57.7058 70.9762 57.377 70.7467 56.981C70.5173 56.5849 70.3958 56.1357 70.3945 55.678V45.2848C70.3934 44.2216 70.1126 43.1775 69.5804 42.2571C69.0482 41.3367 68.2833 40.5726 67.3624 40.0413L58.3635 34.8464C57.9675 34.6158 57.6388 34.2854 57.41 33.8883C57.1813 33.4912 57.0605 33.0411 57.0596 32.5828V22.1896C57.059 21.1254 56.7789 20.08 56.2474 19.158C55.7159 18.2359 54.9516 17.4696 54.031 16.9357L42.0001 9.99878L29.9692 16.9357C29.0505 17.4709 28.2884 18.2378 27.7588 19.1597C27.2291 20.0817 26.9506 21.1264 26.951 22.1896V32.5828C26.9496 33.0405 26.8285 33.4899 26.5998 33.8864C26.371 34.2828 26.0426 34.6126 25.6471 34.843L16.6378 40.0448C15.7189 40.5777 14.956 41.3425 14.4251 42.2626C13.8943 43.1827 13.6142 44.226 13.6127 45.2883V55.6849C13.6118 56.1418 13.4909 56.5904 13.262 56.9859C13.0332 57.3813 12.7045 57.7097 12.3088 57.9381L3.303 63.1365C2.38389 63.6703 1.62066 64.4357 1.0893 65.3563C0.557935 66.2768 0.276984 67.3205 0.274414 68.3835L0.274414 82.2538L12.3053 89.1872C13.2255 89.7189 14.2695 89.9988 15.3322 89.9988C16.3949 89.9988 17.4389 89.7189 18.359 89.1872L27.3613 83.9923C27.7581 83.7645 28.2077 83.6446 28.6653 83.6446C29.1228 83.6446 29.5724 83.7645 29.9692 83.9923L38.9715 89.1872C39.8931 89.7185 40.9381 89.9981 42.0019 89.9981C43.0656 89.9981 44.1106 89.7185 45.0322 89.1872L54.031 83.9923C54.4278 83.7645 54.8774 83.6446 55.335 83.6446C55.7925 83.6446 56.2421 83.7645 56.6389 83.9923L65.6447 89.1872C66.5648 89.7189 67.6088 89.9988 68.6715 89.9988C69.7342 89.9988 70.7782 89.7189 71.6984 89.1872L83.7258 82.2538V68.38C83.7242 67.3168 83.4441 66.2726 82.9133 65.3514C82.3825 64.4302 81.6197 63.6641 80.7007 63.1295V63.133ZM53.6242 22.1896V32.5828C53.627 33.6456 53.9085 34.6891 54.4405 35.6092C54.9726 36.5292 55.7365 37.2937 56.6563 37.8263L65.6551 43.0247C66.0517 43.2541 66.3812 43.5835 66.6106 43.9801C66.8401 44.3768 66.9614 44.8266 66.9625 45.2848V55.6815C66.9646 56.7431 67.245 57.7857 67.7758 58.7052C68.3066 59.6247 69.0692 60.3888 69.9876 60.9215L78.9899 66.1198C79.3862 66.3494 79.7151 66.679 79.944 67.0756C80.1728 67.4723 80.2935 67.9221 80.2939 68.38V78.2898L43.7248 57.1836V14.978L52.3064 19.933C52.7063 20.1598 53.0391 20.4883 53.2712 20.8852C53.5032 21.2821 53.6262 21.7333 53.6277 22.1931L53.6242 22.1896ZM5.02767 66.1198L14.03 60.9215C14.9491 60.3885 15.7124 59.6238 16.2438 58.7038C16.7752 57.7837 17.0561 56.7405 17.0586 55.678V45.2848C17.0586 44.8272 17.1788 44.3777 17.407 43.9811C17.6352 43.5845 17.9635 43.2547 18.359 43.0247L27.3613 37.8263C28.2804 37.2933 29.0437 36.5286 29.5751 35.6086C30.1065 34.6885 30.3875 33.6453 30.3899 32.5828V22.1896C30.3913 21.7324 30.5124 21.2835 30.7412 20.8875C30.9699 20.4916 31.2984 20.1625 31.6939 19.933L40.2859 14.978V57.1836L3.72722 78.2898V68.38C3.72727 67.9224 3.8474 67.4728 4.07561 67.0762C4.30381 66.6796 4.6321 66.3498 5.02767 66.1198ZM69.9702 86.2316C69.5735 86.4595 69.1239 86.5794 68.6663 86.5794C68.2087 86.5794 67.7592 86.4595 67.3624 86.2316L58.3635 81.0368C57.443 80.5045 56.3983 80.2242 55.335 80.2242C54.2716 80.2242 53.2269 80.5045 52.3064 81.0368L43.3075 86.2316C42.9107 86.4595 42.4612 86.5794 42.0036 86.5794C41.546 86.5794 41.0965 86.4595 40.6997 86.2316L31.6973 81.0368C30.776 80.5048 29.7309 80.2248 28.667 80.2248C27.6031 80.2248 26.558 80.5048 25.6367 81.0368L16.6378 86.2316C16.2411 86.4595 15.7915 86.5794 15.3339 86.5794C14.8763 86.5794 14.4268 86.4595 14.03 86.2316L5.4484 81.2767L42.0001 60.1496L78.5518 81.2558L69.9702 86.2316Z" fill="black"/>
</svg>
