<svg width="258" height="72" viewBox="0 0 258 72" fill="none" xmlns="http://www.w3.org/2000/svg">
<path fill-rule="evenodd" clip-rule="evenodd" d="M11.1287 0.61084C4.98272 0.61084 0 5.59334 0 11.7396V71.3896H59.65C65.796 71.3896 70.7787 66.4071 70.7787 60.2608V0.61084H11.1287ZM65.4369 5.95263H11.1287C7.9327 5.95263 5.34179 8.54354 5.34179 11.7396V66.0478H59.65C62.846 66.0478 65.4369 63.4569 65.4369 60.2608V5.95263Z" fill="#FFE136"/>
<path d="M13.2275 33.3407L22.9787 33.3408C22.9787 36.6323 21.9516 39.789 20.1228 42.1164C18.294 44.4438 15.8138 45.7514 13.2275 45.7514V58.162C18.4 58.162 23.3605 55.5469 27.0176 50.892C30.6752 46.2371 32.7299 39.9238 32.7299 33.3407V13.8383H18.768C15.7082 13.8383 13.2275 16.3189 13.2275 19.3788V33.3407Z" fill="#FFE136"/>
<path d="M57.5512 38.6596L47.8 38.6596C47.8 35.3681 48.8272 32.2114 50.6559 29.8839C52.4847 27.5565 54.965 26.249 57.5512 26.249V13.8383C52.3787 13.8383 47.4182 16.4535 43.7611 21.1083C40.1035 25.7632 38.0488 32.0766 38.0488 38.6596L38.0488 58.162H52.0108C55.0706 58.1621 57.5512 55.6815 57.5512 52.6215V38.6596Z" fill="#FFE136"/>
<path d="M102.416 9.78688H89.653V61.5366H102.416V42.0434H121.91V61.5366H134.673V9.78688H121.91V29.28H102.416V9.78688Z" fill="#000000"/>
<path fill-rule="evenodd" clip-rule="evenodd" d="M201.01 62.2121C210.585 62.2121 216.823 54.8322 216.823 42.5323C216.823 31.3901 210.585 22.9249 200.938 22.9249C195.86 22.9249 192.669 25.0231 190.348 28.2066H190.13V9.78688H178.307V61.5366H189.622V56.3516H189.767C192.088 60.1862 196.078 62.2121 201.01 62.2121ZM197.674 52.8787C192.814 52.8787 189.767 48.6822 189.767 42.5323C189.767 36.4548 192.306 31.8966 197.528 31.8966C202.316 31.8966 204.854 36.093 204.854 42.46C204.854 48.8993 202.316 52.8787 197.674 52.8787Z" fill="#000000"/>
<path fill-rule="evenodd" clip-rule="evenodd" d="M151.544 61.995C157.129 61.995 160.393 60.0415 162.569 56.9304H162.714C163.004 58.8115 163.551 60.7407 164.131 61.5366H175.27V61.0301C174.226 60.0282 174.102 58.2327 174.102 55.2663V36.5995C174.102 31.9689 172.579 28.3513 169.387 26.0361C166.703 24.0102 162.932 22.9973 157.346 22.9973C146.104 22.9973 140.576 28.8578 140.286 35.7312H151.166C151.529 32.6201 153.647 30.956 157.419 30.956C160.973 30.956 162.496 32.5478 162.496 34.9354C162.496 37.4677 160.03 38.1912 153.067 39.0594C145.378 40.0724 138.85 42.5323 138.85 50.7081C138.85 58.0157 144.145 61.995 151.544 61.995ZM155.315 54.4704C152.414 54.4704 150.238 53.3128 150.238 50.3463C150.238 47.5246 152.124 46.367 156.694 45.3541C159.087 44.7752 161.263 44.1964 162.786 43.4006V47.814C162.786 51.7934 159.74 54.4704 155.315 54.4704Z" fill="#000000"/>
<path d="M246.467 56.4963C243.783 60.1139 240.519 62.1397 235.369 62.1397C226.81 62.1397 221.037 56.5686 221.037 48.3205V24.0102H234.064V45.8605C234.064 49.9122 235.877 52.1551 239.649 52.1551C243.711 52.1551 246.177 49.1164 246.177 44.7029V24.0102H258V61.5366H246.685V56.4963H246.467Z" fill="#000000"/>
</svg>
