<svg width="172" height="100" viewBox="0 0 172 100" fill="none" xmlns="http://www.w3.org/2000/svg">
<g clip-path="url(#clip0_362_1735)">
<path d="M-0.186523 34.6395H5.82615V47.998H18.5072V34.6395H24.5277V67.4304H18.5072V53.7914H5.82615V67.4304H-0.186523V34.6395Z" fill="black"/>
<path d="M43.5763 56.7499C43.5763 59.4949 41.3399 61.7286 38.5956 61.7286C35.8503 61.7286 33.6152 59.4949 33.6152 56.7499V42.6323H27.9131V56.7499C27.9131 62.6397 32.7055 67.4304 38.5956 67.4304C44.4843 67.4304 49.2764 62.6397 49.2764 56.7499V42.6323H43.5763V56.7499Z" fill="black"/>
<path d="M65.1948 42.7977C62.3663 42.7977 60.392 43.6185 58.4853 45.4901V34.6395H52.7646V54.7486C52.7646 62.2755 58.2068 67.4304 64.3208 67.4304C71.1179 67.4304 77.0733 62.1836 77.0733 55.1144C77.0733 48.1347 71.5817 42.7977 65.1948 42.7977ZM65.337 62.1381C61.4607 62.1381 58.4964 58.9007 58.4964 55.1144C58.4964 51.3273 61.4607 48.0889 65.337 48.0889C68.6215 48.0889 71.5874 51.3273 71.5874 55.1144C71.5874 58.9007 68.6215 62.1381 65.337 62.1381Z" fill="black"/>
<path d="M86.6808 44.239C86.6808 41.3633 88.5969 40.4516 90.6945 40.4516C92.3833 40.4516 94.618 41.7287 96.0763 43.2801L99.8159 38.9012C97.947 36.3927 94.1616 34.6588 91.0596 34.6588C84.8553 34.6588 80.3849 38.2626 80.3849 44.239C80.3849 55.3233 94.0245 51.8097 94.0245 58.015C94.0245 59.9288 92.1549 61.6182 90.0121 61.6182C86.6353 61.6182 85.54 59.9759 83.9897 58.242L79.8379 62.5293C82.4852 65.7683 85.7684 67.4113 89.6918 67.4113C95.5758 67.4113 100.32 63.762 100.32 58.0592C100.32 45.7435 86.6808 49.5757 86.6808 44.239Z" fill="black"/>
<path d="M115.38 42.4764C109.267 42.4764 103.824 47.6282 103.824 55.1569V75.3178H109.544V64.4157C111.451 66.286 113.424 67.1081 116.254 67.1081C122.64 67.1081 128.133 61.7718 128.133 54.7921C128.133 47.7219 122.176 42.4764 115.38 42.4764ZM116.396 61.8176C112.52 61.8176 109.556 58.5758 109.556 54.7921C109.556 51.0051 112.52 47.7667 116.396 47.7667C119.68 47.7667 122.646 51.0051 122.646 54.7921C122.646 58.5758 119.68 61.8176 116.396 61.8176Z" fill="black"/>
<path d="M170.241 62.1381C166.866 62.1381 165.909 60.6791 165.909 58.443V48.5449H171.153V43.5279H165.909V36.913L160.117 39.5124V59.6747C160.117 64.8299 163.674 67.4304 168.553 67.4304C169.282 67.4304 170.287 67.3832 170.835 67.2482L172.249 62.0485C171.611 62.0926 170.881 62.1381 170.241 62.1381Z" fill="black"/>
<path d="M155.155 48.8366C154.058 46.9499 152.516 45.4372 150.587 44.2985C149.146 43.4595 147.652 42.927 145.968 42.6983V36.7032C147.652 35.9881 148.697 34.4055 148.697 32.5591C148.697 30.0425 146.679 28.0031 144.164 28.0031C141.647 28.0031 139.594 30.0425 139.594 32.5591C139.594 34.4055 140.579 35.9881 142.263 36.7032V42.701C140.916 42.8957 139.518 43.3157 138.243 43.961C135.637 41.9819 127.092 35.4893 122.093 31.6972C122.212 31.2698 122.303 30.8293 122.303 30.3645C122.303 27.5771 120.046 25.3177 117.258 25.3177C114.469 25.3177 112.213 27.5771 112.213 30.3645C112.213 33.1515 114.472 35.4115 117.26 35.4115C118.211 35.4115 119.091 35.1333 119.85 34.6759L120.905 35.4762L135.4 45.9199C134.633 46.6235 133.92 47.4237 133.349 48.3217C132.192 50.1522 131.485 52.1663 131.485 54.3633V54.8217C131.485 56.3639 131.778 57.82 132.277 59.1877C132.717 60.382 133.359 61.4679 134.155 62.4497L129.345 67.2721C128.918 67.1148 128.47 67.0286 128.002 67.0286C126.96 67.0286 125.984 67.4355 125.247 68.1707C124.51 68.908 124.106 69.8871 124.106 70.9292C124.106 71.9709 124.512 72.95 125.249 73.6866C125.986 74.4235 126.965 74.8297 128.007 74.8297C129.049 74.8297 130.028 74.4235 130.766 73.6866C131.501 72.95 131.907 71.9706 131.907 70.9292C131.907 70.526 131.845 70.1326 131.728 69.7588L136.7 64.7858C137.382 65.2567 138.118 65.6531 138.91 65.9949C140.471 66.6699 142.194 67.0811 144.08 67.0811H144.425C146.51 67.0811 148.477 66.5914 150.325 65.5898C152.273 64.5312 153.798 63.0836 154.95 61.2355C156.108 59.3824 156.745 57.335 156.745 55.0824V54.9699C156.745 52.754 156.232 50.7096 155.155 48.8366ZM149.08 59.2686C147.73 60.7684 146.179 61.6922 144.425 61.6922H144.136C143.134 61.6922 142.155 61.4154 141.195 60.9118C140.114 60.3575 139.292 59.5666 138.62 58.5653C137.925 57.5825 137.547 56.5094 137.547 55.3717V55.0261C137.547 53.9076 137.762 52.847 138.303 51.8453C138.881 50.7504 139.662 49.8989 140.701 49.2219C141.721 48.5497 142.81 48.2199 144.023 48.2199H144.136C145.236 48.2199 146.278 48.4369 147.26 48.9397C148.262 49.4759 149.08 50.2085 149.714 51.1721C150.33 52.136 150.696 53.1757 150.814 54.3084C150.833 54.5438 150.842 54.785 150.842 55.0154C150.842 56.5526 150.255 57.9762 149.08 59.2686Z" fill="black"/>
</g>
<defs>
<clipPath id="clip0_362_1735">
<rect width="172" height="100" fill="white"/>
</clipPath>
</defs>
</svg>
