<svg width="113" height="100" viewBox="0 0 113 100" fill="none" xmlns="http://www.w3.org/2000/svg">
<g clip-path="url(#clip0_362_1726)">
<path d="M97.6445 56.8632C93.6903 56.8839 90.2537 57.8362 87.3761 59.244C86.3203 57.153 85.2645 55.2898 85.0781 53.9234C84.8711 52.3293 84.6227 51.3563 84.8711 49.4517C85.1195 47.5471 86.2375 44.8351 86.2168 44.628C86.1961 44.421 85.9683 43.448 83.6911 43.4273C81.4138 43.4066 79.4471 43.8621 79.2194 44.4624C78.9916 45.0628 78.5569 46.4292 78.267 47.8369C77.8737 49.9072 73.7125 57.2979 71.3317 61.1693C70.5657 59.658 69.9033 58.3331 69.7583 57.2772C69.5513 55.6831 69.3029 54.7101 69.5513 52.8055C69.7998 50.9009 70.9177 48.1889 70.897 47.9818C70.8763 47.7748 70.6485 46.8018 68.3713 46.7811C66.094 46.7604 64.1273 47.2159 63.8996 47.8162C63.6718 48.4166 63.4234 49.8244 62.9472 51.1907C62.4711 52.5571 56.9435 64.8957 55.4944 68.0839C54.7491 69.7194 54.1073 71.0236 53.6519 71.9138C53.6519 71.9138 53.6311 71.9759 53.569 72.0795C53.1757 72.8454 52.948 73.2595 52.948 73.2595C52.948 73.2595 52.948 73.2595 52.948 73.2802C52.6374 73.8392 52.3062 74.3567 52.1406 74.3567C52.0164 74.3567 51.7886 72.8661 52.182 70.8373C53.0101 66.5519 54.9768 59.8857 54.9561 59.658C54.9561 59.5338 55.3288 58.3745 53.6726 57.7741C52.0578 57.1737 51.4781 58.1674 51.3332 58.1674C51.1883 58.1674 51.0848 58.5194 51.0848 58.5194C51.0848 58.5194 52.8859 51.0251 47.6482 51.0251C44.3772 51.0251 39.864 54.6066 37.6282 57.8362C36.2204 58.6022 33.2186 60.2377 30.0097 61.9974C28.7882 62.6806 27.5254 63.3637 26.3454 64.0055C26.2625 63.9227 26.1797 63.8192 26.0969 63.7364C19.762 56.9667 8.04441 52.1844 8.54127 43.0961C8.72759 39.7837 9.86623 31.0887 31.0448 20.5304C48.4762 11.9389 62.3469 14.3197 64.7484 19.5988C68.185 27.1345 57.3162 41.1293 39.3051 43.1582C32.4319 43.9242 28.8296 41.2743 27.9187 40.2805C26.9664 39.2454 26.8215 39.1833 26.4696 39.3903C25.8899 39.7009 26.2625 40.6325 26.4696 41.1707C27.0078 42.5785 29.223 45.0628 32.9701 46.2842C36.2825 47.3608 44.3358 47.9611 54.0866 44.1933C64.9968 39.97 73.5262 28.2317 71.0212 18.3981C68.5162 8.41951 51.9543 5.12782 36.2825 10.6968C26.9664 14.0092 16.8636 19.2262 9.5971 26.0166C0.964186 34.0905 -0.402174 41.1086 0.156792 44.0484C2.16493 54.4824 16.5531 61.2728 22.3084 66.3035C22.0186 66.4691 21.7494 66.614 21.5217 66.7382C18.6441 68.1667 7.67177 73.9013 4.93905 79.9671C1.83369 86.8403 5.43591 91.7675 7.81669 92.4299C15.2075 94.4795 22.8052 90.7944 26.8836 84.7079C30.962 78.6214 30.4651 70.7131 28.5812 67.0902C28.5605 67.0488 28.5398 67.0074 28.4984 66.966C29.2437 66.5312 30.0097 66.0758 30.755 65.641C32.2248 64.7715 33.674 63.9641 34.9162 63.3016C34.2123 65.227 33.6947 67.5249 33.4463 70.8373C33.1358 74.7294 34.7298 79.7808 36.8208 81.7682C37.7524 82.6377 38.8496 82.6584 39.5535 82.6584C41.9964 82.6584 43.0936 80.6296 44.3151 78.2281C45.8056 75.2883 47.1513 71.8724 47.1513 71.8724C47.1513 71.8724 45.4744 81.1057 50.0289 81.1057C51.6851 81.1057 53.362 78.9527 54.1073 77.8554V77.8761C54.1073 77.8761 54.1487 77.814 54.2315 77.6691C54.3971 77.4 54.5007 77.2344 54.5007 77.2344V77.193C55.1631 76.0336 56.6537 73.4044 58.8689 69.0362C61.7258 63.4051 64.4792 56.3663 64.4792 56.3663C64.4792 56.3663 64.7276 58.0846 65.5764 60.9416C66.0733 62.6185 67.1084 64.461 67.9365 66.2414C67.274 67.173 66.86 67.6905 66.86 67.6905C66.86 67.6905 66.86 67.6905 66.8807 67.7112C66.3424 68.4151 65.7628 69.1811 65.121 69.9264C62.8644 72.6177 60.1731 75.7024 59.8005 76.5926C59.3657 77.6484 59.4692 78.4144 60.2973 79.0355C60.8977 79.4909 61.9742 79.553 63.0715 79.4909C65.1003 79.346 66.5288 78.8492 67.2326 78.5386C68.3299 78.1453 69.6134 77.5449 70.8142 76.6547C73.0293 75.0192 74.375 72.6798 74.2508 69.5952C74.1887 67.8976 73.6297 66.2 72.9465 64.6059C73.1535 64.3161 73.3399 64.0262 73.5469 63.7364C77.0456 58.6229 79.7576 53.0125 79.7576 53.0125C79.7576 53.0125 80.006 54.7308 80.8548 57.5878C81.2689 59.0369 82.1177 60.6103 82.863 62.1423C79.5713 64.8129 77.5424 67.9183 76.8179 69.9471C75.5136 73.715 76.528 75.4125 78.4534 75.8059C79.3229 75.9922 80.565 75.5782 81.4759 75.1848C82.6352 74.8122 84.0016 74.1704 85.3059 73.2181C87.521 71.5826 89.6534 69.3053 89.5292 66.2207C89.467 64.8129 89.0944 63.4258 88.5768 62.0802C91.3717 60.9209 94.9739 60.2791 99.5698 60.8173C109.424 61.9767 111.37 68.1253 110.998 70.7131C110.625 73.3009 108.555 74.7087 107.871 75.1434C107.188 75.5782 106.961 75.7231 107.023 76.0336C107.106 76.4891 107.437 76.4684 108.016 76.3856C108.824 76.2406 113.192 74.2946 113.378 69.5331C113.689 63.4465 107.892 56.8011 97.6445 56.8632ZM21.6252 82.4928C18.3542 86.0536 13.7997 87.3992 11.833 86.2606C9.72131 85.0392 10.5494 79.7808 14.5657 76.0129C17.0086 73.715 20.1553 71.5826 22.2463 70.2783C22.7224 69.9885 23.4263 69.5745 24.2751 69.0569C24.42 68.9741 24.5028 68.9327 24.5028 68.9327C24.6685 68.8292 24.8341 68.7257 24.9997 68.6222C26.4696 74.0048 25.0618 78.7456 21.6252 82.4928ZM45.433 66.3035C44.2944 69.0776 41.9136 76.1785 40.4644 75.7852C39.2223 75.4539 38.4563 70.0713 40.216 64.7508C41.1062 62.0802 42.9901 58.892 44.0873 57.6499C45.8677 55.6624 47.8345 55 48.3106 55.8074C48.911 56.8632 46.1369 64.5645 45.433 66.3035ZM65.0796 75.7024C64.6034 75.9508 64.148 76.1164 63.941 75.9922C63.796 75.9094 64.148 75.5782 64.148 75.5782C64.148 75.5782 66.6116 72.9283 67.5846 71.7275C68.1436 71.0236 68.806 70.1955 69.5099 69.2639V69.5331C69.5099 72.7005 66.446 74.8329 65.0796 75.7024ZM80.2338 72.2451C79.8818 71.9966 79.9439 71.1685 81.124 68.5807C81.5794 67.5663 82.656 65.8687 84.4985 64.2332C84.7055 64.8957 84.8504 65.5375 84.8297 66.1379C84.809 70.1334 81.9521 71.624 80.2338 72.2451Z" fill="black"/>
</g>
<defs>
<clipPath id="clip0_362_1726">
<rect width="113" height="100" fill="white"/>
</clipPath>
</defs>
</svg>
