<svg width="320" height="111" viewBox="0 0 320 111" fill="none" xmlns="http://www.w3.org/2000/svg">
<g clip-path="url(#clip0_179_2187)">
<path d="M317.273 86.5352C316.818 86.6516 316.182 86.7859 315.355 86.9202C314.527 87.0544 313.573 87.126 312.482 87.126C311.027 87.126 309.682 86.9023 308.455 86.4547C307.227 86.0071 306.227 85.1477 305.473 83.8766C304.709 82.6055 304.336 80.7256 304.336 78.246V40.6672H318.7V29.3523H304.336V13.7944H290.055V29.3523H261.355V20.3022C261.355 17.3393 262.046 15.6922 263.427 14.1256C264.809 12.5591 267.127 11.7714 270.373 11.7714C271.773 11.7714 272.973 11.8877 273.991 12.1294C275.009 12.3711 275.836 12.5949 276.473 12.8008L279.709 1.49491C278.736 1.13684 277.246 0.742975 275.246 0.304346C273.236 -0.125331 270.846 -0.349121 268.046 -0.349121C264.246 -0.349121 260.755 0.37596 257.564 1.82612C254.373 3.27628 251.818 5.46048 249.891 8.3787C247.964 11.2969 247 14.7612 247 19.1206V29.3523H232.627V40.6672H247V98.1723H261.355V40.6493H290.046V80.9673C290.082 85.1835 290.9 88.6836 292.827 91.4676C294.755 94.2515 297.291 96.3014 300.437 97.6352C303.582 98.969 307.018 99.6046 310.755 99.5419C312.973 99.4793 314.827 99.2734 316.337 98.9601C317.846 98.6468 319.2 98.2977 320.118 98.0201L317.264 86.5352H317.273ZM171.718 59.4656L160.373 56.9502C156.609 56.055 153.882 54.9271 152.191 53.5664C150.509 52.2058 149.664 50.4155 149.664 48.2044C149.664 45.6353 150.927 43.5227 153.446 41.8756C155.964 40.2285 159.091 39.405 162.827 39.405C165.591 39.405 167.9 39.8436 169.755 40.7298C171.609 41.616 173.082 42.7439 174.173 44.1404C174.991 45.1788 175.636 46.253 176.109 47.363C176.273 47.7389 176.409 48.1239 176.536 48.5177H189.973C189.864 47.8732 189.736 47.2018 189.564 46.4947C189.227 45.0982 188.782 43.7823 188.246 42.5291C186.655 38.7873 184.236 35.7885 180.9 33.3268C176.464 30.0506 170.391 28.4124 162.673 28.4124C157.327 28.4124 152.6 29.2718 148.482 30.9905C144.364 32.7092 141.146 35.1082 138.818 38.1876C136.5 41.2669 135.336 44.8565 135.336 48.9564C135.336 53.8887 136.9 57.9706 140.027 61.1843C143.155 64.3979 148.018 66.7253 154.609 68.1576L166.455 70.7177C169.764 71.4339 172.227 72.5081 173.836 73.9224C175.446 75.3457 176.246 77.1181 176.246 79.2397C176.246 81.8088 174.946 83.984 172.355 85.7654C169.755 87.5468 166.291 88.433 161.946 88.433C157.936 88.433 154.682 87.5915 152.173 85.8997C149.664 84.2078 148 81.7014 147.182 78.3803H133.136C133.136 79.0069 133.173 79.6425 133.282 80.2691C133.827 83.3485 134.864 86.0787 136.4 88.4598C137.927 90.841 139.955 92.873 142.464 94.5559C147.491 97.9217 154.009 99.6046 162.027 99.6046C167.736 99.6046 172.755 98.6826 177.082 96.8475C181.409 95.0035 184.8 92.4701 187.264 89.2476C189.727 86.016 190.955 82.3101 190.955 78.1207C190.955 73.251 189.364 69.2765 186.191 66.2151C183.018 63.1536 178.182 60.8978 171.682 59.4656H171.718ZM205.373 98.1455H219.736V29.3255H205.373V98.1365V98.1455Z" fill="black"/>
<path d="M212.527 22.2628C217.287 22.2628 221.145 18.4634 221.145 13.7767C221.145 9.0899 217.287 5.29053 212.527 5.29053C207.767 5.29053 203.909 9.0899 203.909 13.7767C203.909 18.4634 207.767 22.2628 212.527 22.2628Z" fill="#2E69FF"/>
<path d="M60.9636 60.9335C58.1636 63.6906 53.6091 63.6906 50.8091 60.9335C48.0091 58.1764 48.0091 53.6916 50.8091 50.9345C53.6091 48.1774 58.1636 48.1774 60.9636 50.9345C63.7636 53.6916 63.7636 58.1764 60.9636 60.9335ZM33.1363 33.5326C30.3363 36.2897 30.3363 40.7744 33.1363 43.5315C35.9363 46.2886 40.4909 46.2886 43.2909 43.5315C46.0909 40.7744 46.0909 36.2897 43.2909 33.5326C40.4909 30.7755 35.9363 30.7755 33.1363 33.5326ZM15.4636 26.1296C18.2636 28.8867 22.8182 28.8867 25.6182 26.1296C28.4182 23.3725 28.4182 18.8878 25.6182 16.1307C22.8182 13.3736 18.2636 13.3736 15.4636 16.1307C12.6636 18.8878 12.6636 23.3725 15.4636 26.1296ZM96.3 85.7294C93.5 82.9724 88.9454 82.9724 86.1454 85.7294C83.3454 88.4865 83.3454 92.9713 86.1454 95.7284C88.9454 98.4855 93.5 98.4855 96.3 95.7284C99.1 92.9713 99.1 88.4865 96.3 85.7294ZM78.6273 78.3265C81.4273 75.5694 81.4273 71.0846 78.6273 68.3275C75.8273 65.5704 71.2727 65.5704 68.4727 68.3275C65.6727 71.0846 65.6727 75.5694 68.4727 78.3265C71.2727 81.0836 75.8273 81.0836 78.6273 78.3265ZM68.4727 33.5236C65.6727 36.2807 65.6727 40.7655 68.4727 43.5226C71.2727 46.2797 75.8273 46.2797 78.6273 43.5226C81.4273 40.7655 81.4273 36.2807 78.6273 33.5236C75.8273 30.7665 71.2727 30.7665 68.4727 33.5236ZM60.9545 16.1217C58.1545 13.3646 53.6 13.3646 50.8 16.1217C48 18.8788 48 23.3636 50.8 26.1207C53.6 28.8778 58.1545 28.8778 60.9545 26.1207C63.7545 23.3636 63.7545 18.8788 60.9545 16.1217ZM33.1273 8.71873C35.9273 11.4758 40.4818 11.4758 43.2818 8.71873C45.4818 6.55243 45.9454 3.3388 44.7 0.715981C39.9545 1.638 35.4182 3.14187 31.1727 5.14703C31.4454 6.45397 32.0909 7.69824 33.1273 8.71873ZM103.809 68.3186C101.009 71.0757 101.009 75.5604 103.809 78.3175C104.836 79.329 106.109 79.9736 107.436 80.2421C109.473 76.0617 111 71.5949 111.936 66.9221C109.273 65.6957 106.009 66.1523 103.809 68.3186ZM86.1364 50.9166C83.3363 53.6737 83.3363 58.1585 86.1364 60.9156C88.9363 63.6727 93.4909 63.6727 96.2909 60.9156C99.0909 58.1585 99.0909 53.6737 96.2909 50.9166C93.4909 48.1595 88.9363 48.1595 86.1364 50.9166ZM86.1364 16.1128C83.3363 18.8699 83.3363 23.3546 86.1364 26.1117C88.9363 28.8688 93.4909 28.8688 96.2909 26.1117C99.0909 23.3546 99.0909 18.8699 96.2909 16.1128C93.4909 13.3557 88.9363 13.3557 86.1364 16.1128ZM68.4636 8.70977C71.2636 11.4669 75.8182 11.4669 78.6182 8.70977C79.6454 7.69824 80.3 6.44502 80.5727 5.13808C76.3273 3.13292 71.7909 1.62905 67.0454 0.707031C65.8 3.32985 66.2636 6.54348 68.4636 8.70977ZM103.809 43.5136C106.009 45.6799 109.273 46.1365 111.936 44.9101C111 40.2374 109.473 35.7705 107.436 31.5901C106.109 31.8586 104.845 32.4942 103.809 33.5147C101.009 36.2718 101.009 40.7565 103.809 43.5136ZM25.6091 95.7105C28.4091 92.9534 28.4091 88.4686 25.6091 85.7115C22.8091 82.9544 18.2545 82.9544 15.4545 85.7115C12.6545 88.4686 12.6545 92.9534 15.4545 95.7105C18.2545 98.4676 22.8091 98.4676 25.6091 95.7105ZM7.93635 68.3096C5.73635 66.1433 2.47272 65.6868 -0.190918 66.9132C0.745446 71.5859 2.27272 76.0527 4.30908 80.2332C5.63636 79.9646 6.90908 79.329 7.93635 78.3086C10.7364 75.5515 10.7364 71.0667 7.93635 68.3096ZM43.2818 103.113C40.4818 100.356 35.9273 100.356 33.1273 103.113C32.1 104.125 31.4454 105.378 31.1727 106.685C35.4182 108.69 39.9545 110.194 44.7 111.116C45.9454 108.493 45.4818 105.28 43.2818 103.113ZM43.2818 78.3086C46.0818 75.5515 46.0818 71.0667 43.2818 68.3096C40.4818 65.5525 35.9273 65.5525 33.1273 68.3096C30.3273 71.0667 30.3273 75.5515 33.1273 78.3086C35.9273 81.0657 40.4818 81.0657 43.2818 78.3086ZM15.4545 50.9077C12.6545 53.6648 12.6545 58.1495 15.4545 60.9066C18.2545 63.6637 22.8091 63.6637 25.6091 60.9066C28.4091 58.1495 28.4091 53.6648 25.6091 50.9077C22.8091 48.1506 18.2545 48.1506 15.4545 50.9077ZM7.93635 43.5047C10.7364 40.7476 10.7364 36.2628 7.93635 33.5057C6.90908 32.4942 5.63636 31.8497 4.30908 31.5811C2.27272 35.7615 0.745446 40.2284 -0.190918 44.9011C2.47272 46.1275 5.73635 45.671 7.93635 43.5047ZM78.6182 103.105C75.8182 100.347 71.2636 100.347 68.4636 103.105C66.2636 105.271 65.8 108.484 67.0454 111.107C71.7909 110.185 76.3273 108.681 80.5727 106.676C80.3 105.369 79.6545 104.125 78.6182 103.105ZM50.7909 85.7026C47.9909 88.4597 47.9909 92.9445 50.7909 95.7015C53.5909 98.4586 58.1454 98.4586 60.9454 95.7015C63.7454 92.9445 63.7454 88.4597 60.9454 85.7026C58.1454 82.9455 53.5909 82.9455 50.7909 85.7026Z" fill="#2E69FF"/>
</g>
<defs>
<clipPath id="clip0_179_2187">
<rect width="320" height="111" fill="black"/>
</clipPath>
</defs>
</svg>
