<svg width="175" height="32" viewBox="0 0 175 32" fill="none" xmlns="http://www.w3.org/2000/svg">
<g clip-path="url(#clip0_1825_6860)">
<path d="M51.7367 13.5H48.0367C47.9367 13.5 47.7367 13.6 47.6367 13.8L44.3367 25.4L41.0367 13.8C41.0367 13.7 40.7367 13.5 40.6367 13.5H37.0367C36.7367 13.5 36.6367 13.8 36.6367 14L42.0367 29.5C42.0367 29.6 42.3367 29.8 42.4367 29.8H46.3367C46.4367 29.8 46.6367 29.7 46.7367 29.5L52.0367 14C52.3367 13.7 52.0367 13.5 51.7367 13.5Z" fill="black"/>
<path d="M64.0363 16.7V13.8999C64.0363 13.5999 63.9363 13.5 63.6363 13.5H60.1363C59.8363 13.5 59.7363 13.5999 59.7363 13.8999V29.3999C59.7363 29.6999 59.8363 29.7999 60.1363 29.7999H63.6363C63.9363 29.7999 64.0363 29.6999 64.0363 29.3999V21.5C64.0363 19.1 66.1363 17.1 68.5363 17.5C68.8363 17.5 68.9363 17.4 68.9363 17.1V13.2C68.6363 13.2 68.5363 13.2 68.4363 13.2C66.6363 13.2 64.8363 14.4 64.0363 16.7Z" fill="black"/>
<path d="M89.0363 8.6001L85.5363 9.40009C85.4363 9.40009 85.2363 9.70009 85.2363 9.80009V29.3001C85.2363 29.6001 85.3363 29.7001 85.6363 29.7001H89.1363C89.4363 29.7001 89.5363 29.6001 89.5363 29.3001V9.0001C89.5363 8.7001 89.3363 8.6001 89.0363 8.6001Z" fill="black"/>
<path d="M105.436 13.2C103.136 13.2 101.736 13.9999 100.536 15.7999V13.7999C100.536 13.4999 100.436 13.3999 100.136 13.3999H96.6363C96.3363 13.3999 96.2363 13.4999 96.2363 13.7999V29.2999C96.2363 29.5999 96.3363 29.7 96.6363 29.7H100.136C100.436 29.7 100.536 29.5999 100.536 29.2999V20C100.536 18.1 101.836 16.8999 103.936 16.8999C105.736 16.8999 106.736 17.8999 106.736 19.7999V29.5C106.736 29.8 106.836 29.8999 107.136 29.8999H110.636C110.936 29.8999 111.036 29.8 111.036 29.5V18.7999C110.836 15.1999 108.936 13.2 105.436 13.2Z" fill="black"/>
<path d="M126.336 18.2001C126.336 14.9001 124.036 13.3 119.636 13.3C115.236 13.3 113.136 15.1001 112.736 18.6001C112.736 18.9001 112.836 19.0001 113.136 19.0001H116.536C116.836 19.0001 116.836 18.9001 116.936 18.7001C117.236 17.2001 117.936 16.8 119.836 16.8C121.436 16.8 122.236 17.3 122.236 18.4C122.236 18.9 121.936 19.4001 121.436 19.7001C121.036 20.0001 120.136 20.1 118.836 20.3L117.036 20.6001C113.736 21.1001 112.236 22.9 112.236 25.8C112.236 28.7 114.236 30.7001 117.136 30.7001C118.736 30.7001 120.136 30.1 121.536 28.9C121.836 28.6 122.036 28.9001 122.136 29.2001C122.136 29.5 122.236 29.7001 122.536 30.0001C122.536 30.1001 122.636 30.1001 122.836 30.1001H127.236V29.6001C126.436 28.8001 126.236 28.5001 126.236 27.6001L126.336 18.2001ZM122.236 23.2001C122.236 25.6 120.936 27.0001 118.936 27.0001C117.536 27.0001 116.636 26.2001 116.636 25.0001C116.636 23.8001 117.236 23.1 119.036 22.7001L120.536 22.4C121.336 22.3 121.536 22.1001 121.836 22.1001C122.136 22.0001 122.336 22.2001 122.336 22.5001L122.236 23.2001Z" fill="black"/>
<path d="M140.537 13.5H137.037C136.737 13.5 136.637 13.6 136.637 13.9V29.4C136.637 29.7 136.737 29.8 137.037 29.8H140.537C140.837 29.8 140.937 29.7 140.937 29.4V13.9C140.937 13.7 140.837 13.5 140.537 13.5Z" fill="black"/>
<path d="M150.636 13.2C145.736 13.2 142.736 16.4999 142.736 21.7999C142.736 27.0999 145.736 30.3999 150.836 30.3999C155.836 30.3999 158.936 27.1 158.936 22C158.736 16.4 155.836 13.2 150.636 13.2ZM150.736 27C148.436 27 146.936 25 146.936 21.7C146.936 18.4 148.436 16.3999 150.736 16.3999C153.036 16.3999 154.536 18.4 154.536 21.7C154.536 25 153.036 27 150.736 27Z" fill="black"/>
<path d="M169.537 13.2C167.237 13.2 165.837 13.9999 164.637 15.7999V13.7999C164.637 13.4999 164.537 13.3999 164.237 13.3999H160.737C160.437 13.3999 160.337 13.4999 160.337 13.7999V29.2999C160.337 29.5999 160.437 29.7 160.737 29.7H164.237C164.537 29.7 164.637 29.5999 164.637 29.2999V20C164.637 18.1 165.937 16.8999 168.037 16.8999C169.837 16.8999 170.637 17.8999 170.637 19.7999V29.5C170.637 29.8 170.737 29.8999 171.037 29.8999H174.537C174.837 29.8999 174.937 29.8 174.937 29.5V18.7999C175.137 15.1999 173.037 13.2 169.537 13.2Z" fill="black"/>
<path d="M76.7369 13.2C72.5369 13.2 70.2369 15 69.8369 18.5C69.8369 18.8 69.9369 18.8999 70.2369 18.8999H73.6369C73.9369 18.8999 73.9369 18.8 74.0369 18.6C74.3369 17.1 75.0369 16.7 76.9369 16.7C78.5369 16.7 79.3369 17.1999 79.3369 18.2999C79.3369 18.7999 79.0369 19.3 78.5369 19.6C78.1369 19.9 77.2369 20 75.9369 20.2L74.1369 20.5C70.8369 21 69.3369 22.8 69.3369 25.7C69.3369 28.6 71.3369 30.6 74.2369 30.6C75.8369 30.6 77.2369 30 78.6369 28.7999C78.9369 28.4999 79.1369 28.8 79.2369 29.1C79.2369 29.4 79.3369 29.5999 79.6369 29.8999C79.6369 29.9999 79.7369 30 79.9369 30H82.9369C83.2369 30 83.3369 29.9 83.3369 29.6V18.2999C83.4369 14.8999 81.1369 13.2 76.7369 13.2ZM79.2369 23.2C79.2369 25.6 77.9369 27 75.9369 27C74.5369 27 73.6369 26.2 73.6369 25C73.6369 23.8 74.2369 23.1 76.0369 22.7L77.5369 22.3999C78.3369 22.2999 78.5369 22.1 78.8369 22.1C79.1369 22 79.3369 22.2 79.3369 22.5L79.2369 23.2Z" fill="black"/>
<path d="M134.237 16.3001C134.537 16.3001 134.537 16.2001 134.637 15.9001L135.537 13.9001C135.537 13.6001 135.537 13.5001 135.137 13.5001H132.737V9.0001C132.737 8.7001 132.437 8.6001 132.237 8.6001L128.737 9.40009C128.637 9.40009 128.437 9.70009 128.437 9.80009V16.0001C128.437 16.3001 128.537 16.4001 128.837 16.4001H131.737L128.737 18.2001C128.637 18.3001 128.437 18.5001 128.437 18.7001V26.3001C128.437 28.8001 129.837 30.1001 132.637 30.1001C133.537 30.1001 134.137 30.1001 134.737 29.8001C134.837 29.8001 135.037 29.5001 135.037 29.4001V27.1001C135.037 26.8001 134.737 26.7001 134.637 26.7001C134.337 26.7001 134.237 26.7001 134.137 26.7001C133.037 26.7001 132.737 26.3001 132.737 24.9001V16.2001L134.237 16.3001Z" fill="black"/>
<path d="M57.3365 13.5H53.8365C53.5365 13.5 53.4365 13.6 53.4365 13.9V29.4C53.4365 29.7 53.5365 29.8 53.8365 29.8H57.3365C57.6365 29.8 57.7365 29.7 57.7365 29.4V13.9C57.7365 13.7 57.5365 13.5 57.3365 13.5Z" fill="black"/>
<path d="M57.4371 8H53.9371C53.6371 8 53.5371 8.09999 53.5371 8.39999V11.4C53.5371 11.7 53.6371 11.8 53.9371 11.8H57.4371C57.7371 11.8 57.8371 11.7 57.8371 11.4V8.39999C57.8371 8.09999 57.7371 8 57.4371 8Z" fill="black"/>
<path d="M140.737 8H137.237C136.937 8 136.837 8.09999 136.837 8.39999V11.4C136.837 11.7 136.937 11.8 137.237 11.8H140.737C141.037 11.8 141.137 11.7 141.137 11.4V8.39999C140.937 8.09999 140.837 8 140.737 8Z" fill="black"/>
<path d="M33.7359 6H29.5359L17.1359 27.4L11.3359 17.2L8.83594 21.5L15.0359 32.2C15.1359 32.3 15.3359 32.5 15.4359 32.5H19.2359C19.3359 32.5 19.5359 32.4 19.6359 32.2L34.3359 6.6C34.2359 6.4 34.0359 6 33.7359 6Z" fill="black"/>
<path d="M17.0361 23.5L27.2361 6H22.4361C22.3361 6 22.1361 6.1 22.0361 6.3L17.0361 14.9L12.0361 6.3C12.0361 6.2 11.7361 6 11.6361 6H0.436069C0.0360693 6 -0.0639322 6.4 0.0360678 6.6L7.43607 19.4L11.1361 13.1L17.0361 23.5Z" fill="black"/>
</g>
<defs>
<clipPath id="clip0_1825_6860">
<rect width="175" height="32" fill="black"/>
</clipPath>
</defs>
</svg>
