<svg width="100" height="100" viewBox="0 0 100 100" fill="none" xmlns="http://www.w3.org/2000/svg">
<path fill-rule="evenodd" clip-rule="evenodd" d="M46.5846 89.3609C44.6963 89.1922 42.7885 89.25 40.8885 89.2351C40.7033 89.2343 40.5158 89.4382 40.3299 89.5468C40.4932 89.6523 40.6533 89.8421 40.8213 89.85C41.7119 89.8937 42.0549 90.4203 42.0627 91.2195C42.0791 92.9617 42.101 94.7062 42.0541 96.4468C42.0244 97.5257 41.4338 97.9937 40.3455 97.8078C39.8018 97.714 39.2096 97.5101 38.7916 97.1695C37.8494 96.4023 37.0018 95.5179 36.0447 94.6132L36.6143 94.4007C38.1002 93.8359 38.7572 92.957 38.6486 91.6773C38.5502 90.5101 37.5854 89.4976 36.1228 89.3734C34.2658 89.2164 32.3908 89.2586 30.5236 89.2351C30.3822 89.2328 30.2393 89.3968 30.0963 89.4836C30.2393 89.6062 30.3775 89.8312 30.5244 89.8375C31.5838 89.8781 31.84 90.5351 31.8361 91.4351C31.8275 93.0502 31.8268 94.6653 31.8338 96.2804C31.8385 97.1586 31.5408 97.7523 30.5627 97.8343C30.3994 97.8484 30.2518 98.0422 30.0963 98.1531C30.2877 98.2523 30.4775 98.4343 30.6713 98.4375C32.1283 98.4609 33.5869 98.4617 35.0439 98.4359C35.2299 98.4336 35.4127 98.2367 35.5963 98.1296L35.108 97.8164C34.7322 97.5773 34.1182 97.4054 34.0291 97.0859C33.8182 96.3312 33.8572 95.5078 33.7955 94.7132L34.1447 94.5984C34.3689 94.8484 34.6049 95.0882 34.815 95.3492C35.5119 96.2117 36.1853 97.0921 36.8994 97.9398C37.0854 98.1601 37.3893 98.4281 37.6369 98.4265C40.7393 98.4046 43.8494 98.4468 46.9408 98.2367C48.7096 98.1164 50.0846 97.0945 50.6588 95.289C51.6002 92.3273 49.8057 89.6468 46.5846 89.3609ZM33.5939 93.6914V90.1632C34.3752 90.057 35.59 89.9101 36.0846 90.7507C36.4104 91.3039 36.3939 92.2453 36.158 92.8523C35.7361 93.9351 34.3752 93.7164 33.5939 93.6914ZM48.1729 96.007C47.6588 97.1586 45.8189 97.9 44.6807 97.4461C44.3916 97.3312 44.0799 96.8429 44.0713 96.5187C44.0166 94.4132 44.0432 92.3039 44.0432 90.1281C45.5674 90.0804 47.0955 89.9375 48.0143 91.3804C48.9447 92.8429 48.8611 94.4656 48.1729 96.007ZM78.7283 97.3664C77.958 97.6031 76.8885 97.675 76.2299 97.3132C74.9385 96.6039 75.7729 95.2226 75.5314 94.1429C77.183 93.9953 77.1783 93.9961 77.751 95.3796C77.7979 95.4937 77.9549 95.5601 78.0611 95.65C78.1557 95.4828 78.3283 95.3179 78.3322 95.1492C78.3564 94.0711 78.3518 92.9921 78.3322 91.914C78.3291 91.7695 78.1838 91.6281 78.0275 91.3484C77.758 91.95 77.7596 92.5711 77.408 92.8218C76.9885 93.121 75.7814 93.1015 75.7814 93.2421V90.0664C76.5627 90.1211 77.4471 90.2109 78.2947 90.214C79.4025 90.2179 79.2908 91.3757 79.8275 91.9359L80.0643 91.8297L79.9049 89.3187C77.601 89.0242 72.2877 89.1718 71.7361 89.5781C71.908 89.6796 72.0463 89.8335 72.1908 89.8359C73.2502 89.8507 73.5275 90.5054 73.5322 91.4086C73.5369 92.9304 73.5744 94.4531 73.5424 95.975C73.5041 97.7867 72.4682 98.3796 70.951 97.3406C69.8775 96.6062 68.9924 95.5953 68.2236 94.8914C69.0338 94.0828 69.9549 93.5117 70.3533 92.6898C71.0814 91.1836 69.8682 89.5476 67.9057 89.364C66.1119 89.1968 64.2971 89.2562 62.4908 89.239C62.315 89.2375 62.1385 89.4031 61.9619 89.4914C62.1111 89.6117 62.258 89.8312 62.4119 89.8359C63.4807 89.8734 63.7189 90.5679 63.7314 91.4437C63.7502 92.7125 63.7603 93.9804 63.7611 95.2484C63.7635 97.2812 63.7588 97.2812 62.0057 97.989L61.8838 98.2257C62.126 98.3062 62.3424 98.4375 62.5604 98.4406C63.9877 98.4593 65.4143 98.4601 66.8416 98.4398C67.0541 98.4359 67.2643 98.2859 67.476 98.2031C67.2697 98.0664 67.0744 97.8375 66.8564 97.8125C66.115 97.7289 65.7924 97.2843 65.7486 96.614C65.7057 95.9734 65.7393 95.3273 65.7393 94.425C66.1189 94.7796 66.3549 94.9554 66.5361 95.1765C67.2596 96.0593 67.9955 96.9343 68.6658 97.8578C69.0064 98.3265 69.3838 98.4664 69.9416 98.4617C73.1768 98.4382 76.4229 98.4515 79.6596 98.4468C79.8994 98.4468 80.4689 98.4078 80.4689 98.3796V95.9609C79.6877 96.4515 79.3846 97.1664 78.7283 97.3664ZM65.6252 93.6843V90.1804C67.1877 89.9757 68.3783 90.5109 68.4252 91.8375C68.4736 93.2132 67.9689 93.7664 65.6252 93.6843ZM20.5979 86.8757C19.9182 86.3328 15.7916 86.375 15.2643 86.9601C15.5697 87.0414 15.8229 87.1437 16.0846 87.1742C16.8791 87.2632 17.1533 87.7562 16.9424 88.4382C16.3346 90.4078 15.6635 92.3578 14.9393 94.5546C14.7752 94.1336 14.7025 93.9687 14.6463 93.7976C13.94 91.6664 13.2471 89.532 12.5197 87.4078C12.4088 87.0836 12.1439 86.8125 11.9502 86.5171C11.7541 86.8031 11.4846 87.0632 11.3744 87.3796C10.5736 89.6742 9.80566 91.9789 9.02754 94.2812L8.81894 94.3046C8.24473 92.5632 7.66191 90.8265 7.09707 89.0812C6.64941 87.7015 6.75254 87.5367 8.17363 87.1078C8.32129 87.0617 8.43848 86.9195 8.57051 86.8211C8.44863 86.7179 8.32676 86.5257 8.20332 86.525C6.42759 86.5056 4.65171 86.5053 2.87598 86.5242C2.75176 86.5257 2.62832 86.7156 2.50488 86.8171C2.60332 86.9117 2.69863 87.0859 2.80176 87.0906C4.38145 87.1671 4.76816 88.3625 5.15488 89.5648C6.05645 92.3648 6.95644 95.1664 7.86894 97.964C7.97519 98.2898 8.15254 98.5937 8.29629 98.907L8.57285 98.8898L11.401 90.4617L14.1963 98.9156L14.526 98.8922C14.6439 98.589 14.7752 98.2898 14.8791 97.9812C15.8775 95.0093 16.8791 92.0398 17.8619 89.0632C18.2291 87.95 18.826 87.1437 20.115 87.0937C20.2658 87.0882 20.4127 86.9632 20.5979 86.8757ZM58.5432 86.7234C56.258 86.4578 53.9291 86.5648 51.6189 86.5304C51.5002 86.5281 51.3775 86.7257 51.1596 86.914C51.4564 87.0117 51.6205 87.107 51.7885 87.114C52.8994 87.1593 53.3947 87.814 53.4072 88.8375C53.4361 91.2445 53.4393 93.6515 53.4049 96.0586C53.39 97.0515 52.9619 97.7617 51.8189 97.8046C51.6432 97.8117 51.4768 98.0445 51.3064 98.1734C51.5111 98.2648 51.7135 98.4336 51.9197 98.4359C53.6307 98.4562 55.3439 98.457 57.0557 98.4343C57.2518 98.432 57.4455 98.2492 57.6416 98.1507C57.4627 98.0304 57.2939 97.8211 57.1064 97.8054C56.2775 97.7343 55.6916 97.3867 55.6033 96.5164C55.4978 95.4875 55.4611 94.45 55.3893 93.3148C56.208 93.3148 56.9064 93.3679 57.5947 93.3046C59.226 93.1562 60.6674 92.6211 61.2518 90.9109C61.9041 89.0039 60.7064 86.9742 58.5432 86.7234ZM58.8697 91.2414C58.365 92.1703 57.8127 92.3703 55.4689 92.1531V87.5531C56.2502 87.5976 57.9502 87.2375 58.7783 88.4547C59.376 89.3359 59.376 90.3101 58.8697 91.2414ZM27.9111 90.1968C25.79 88.3992 22.3729 88.4789 20.3072 90.3304C18.3916 92.0476 18.1479 94.7445 19.7518 96.7304C20.8814 98.1296 22.4057 98.7171 24.2783 98.7984C24.608 98.7578 25.058 98.7492 25.483 98.6414C27.5283 98.1226 29.033 96.9804 29.5604 94.8476C30.0275 92.957 29.3471 91.4148 27.9111 90.1968ZM26.5377 96.7773C25.1939 98.4914 22.4486 98.1296 21.4213 96.2023C20.7322 94.9109 20.6744 93.5398 21.1213 92.1554C21.6252 90.5992 22.6596 89.8343 24.1986 89.8375C25.7432 89.8406 26.7939 90.6023 27.2955 92.1414C27.4697 92.6773 27.5377 93.2476 27.6533 93.8015L27.8283 93.9164C27.4096 94.8796 27.1643 95.9789 26.5377 96.7773ZM95.3908 93.1922C94.5447 92.7648 93.6674 92.3804 92.8791 91.8617C92.5775 91.6632 92.2697 91.082 92.3549 90.7882C92.4596 90.4281 92.9283 90.0375 93.3182 89.9211C94.4541 89.5804 95.4494 90.282 95.9103 91.575C96.0018 91.832 96.3666 92.0406 96.5314 92.2711C96.5986 92.2211 96.8736 92.1695 96.8736 92.1187V88.7C96.0924 89.0507 96.1025 89.2531 96.0369 89.3109C94.9689 89.1757 94.0369 88.957 93.1822 88.9828C92.0299 89.0164 91.0643 89.8179 90.8049 90.764C90.5143 91.8226 90.8853 92.8664 91.8674 93.5906C92.1447 93.7945 92.451 93.9515 92.7588 94.1101C93.4619 94.4703 94.183 94.7898 94.8697 95.1804C95.4947 95.5359 96.0729 96.0062 95.8213 96.8398C95.5439 97.7507 94.7611 97.8492 93.9611 97.7671C92.5588 97.6226 91.7721 96.764 91.3635 95.4703C91.3018 95.275 91.0908 95.125 90.951 94.9547C90.8611 95.0648 90.6955 95.1734 90.6932 95.2851C90.6752 96.439 90.6814 97.5929 90.6814 98.7468L90.9783 98.8375L91.6479 97.9578C92.0861 98.1664 92.5236 98.4296 92.9979 98.5914C94.7158 99.1711 96.633 98.3945 97.265 96.8937C97.8893 95.4148 97.2322 94.1242 95.3908 93.1922ZM86.9385 93.1796C86.1744 92.7961 85.4049 92.4257 84.6525 92.0211C84.1158 91.7343 83.6088 91.2601 83.9604 90.6703C84.2002 90.2687 84.8213 89.9343 85.3096 89.875C86.3478 89.7484 87.0557 90.4117 87.5041 91.6086C87.5939 91.8476 87.8236 92.0343 87.9885 92.2445L88.2354 92.0789C88.2354 91.1289 88.2369 90.1796 88.2314 89.2304C88.2307 89.1453 88.1744 89.0601 88.0854 88.8125L87.2432 89.5046C87.0861 89.4234 86.8971 89.3148 86.6963 89.2281C85.0564 88.5218 83.0947 89.0859 82.4549 90.4437C81.8127 91.8086 82.5689 93.2546 84.3635 94.1304C85.1612 94.5118 85.9453 94.9212 86.7143 95.3578C87.2838 95.6867 87.6893 96.2828 87.3502 96.8617C87.0986 97.2929 86.4729 97.6781 85.9658 97.7507C84.7533 97.9273 83.6971 97.2031 83.1744 96.0445C83.0596 95.7882 83.0283 95.4898 82.8971 95.2445C82.826 95.1125 82.6213 95.0531 82.4775 94.9617C82.4025 95.0836 82.2658 95.2054 82.2643 95.3297C82.2469 96.3442 82.2464 97.3589 82.2627 98.3734C82.265 98.5 82.3713 98.6984 82.4705 98.7296C82.5752 98.7625 82.7729 98.6671 82.8533 98.5671C82.9861 98.4 83.0588 98.1836 83.1885 97.9257C83.6799 98.1656 84.0885 98.4156 84.5314 98.5718C86.2268 99.1734 88.2064 98.4148 88.8416 96.9492C89.4916 95.4437 88.8275 94.1265 86.9385 93.1796ZM50.1346 76.3265C70.8299 76.2961 87.5822 59.4617 87.5814 38.6961C87.5814 18.2687 70.9064 1.4445 50.9846 1.08903C30.0627 0.716372 12.5807 17.6937 12.5752 38.2812C12.5682 59.4601 29.2455 76.3578 50.1346 76.3265ZM50.0736 2.91168C69.9424 2.90543 85.7729 19.0476 85.7666 39.3078C85.7603 58.4343 69.5103 74.4359 50.0893 74.4398C30.3025 74.4437 14.39 58.4007 14.3908 38.4492C14.3916 19.0117 30.551 2.91793 50.0736 2.91168ZM35.0783 21.7898C35.4033 22.8718 34.4939 23.2492 33.5268 23.3234C32.5104 23.4031 31.4924 23.4789 30.3119 23.5687L41.9799 58.3297C42.2604 57.8711 42.376 57.7422 42.4268 57.5914C44.5846 51.1422 46.7549 44.6968 48.858 38.2289C49.0502 37.639 48.9549 36.8578 48.7439 36.2515C47.6314 33.0398 46.2986 29.8976 45.3228 26.6468C44.6549 24.4211 43.7697 22.9812 41.14 23.239C40.6916 23.2828 40.1455 22.3187 39.6432 21.8203C40.2502 21.4586 40.8525 20.7922 41.465 20.7828C46.822 20.7007 52.18 20.7023 57.5369 20.7875C58.1502 20.7976 58.7533 21.482 59.3611 21.8531C58.8291 22.339 58.3705 23.0672 57.7494 23.2547C56.7525 23.5554 55.6471 23.4984 54.4541 23.6047L66.1361 58.3578C67.9064 52.4796 69.5525 47.0812 71.1533 41.6703C72.5822 36.839 71.7307 32.3281 69.1479 28.0734C68.3713 26.7937 67.4166 25.5523 66.9775 24.157C66.4768 22.5695 66.0619 20.7625 66.3275 19.1711C66.7768 16.4726 68.8471 15.1328 71.6494 14.8765C56.3166 0.648404 32.2252 5.74137 23.3479 21.2015C26.765 21.0429 30.0275 20.8359 33.2924 20.7922C33.9103 20.7843 34.933 21.3054 35.0783 21.7898ZM41.1869 68.8664C41.115 69.075 41.1111 69.3062 41.0557 69.6531C47.6635 71.4843 54.1424 71.3523 60.7744 69.1179L50.6424 41.3679C47.4002 50.7929 44.29 59.8289 41.1869 68.8664ZM36.0814 67.6117L20.8174 25.7398C13.9314 39.1906 19.1697 59.7132 36.0814 67.6117ZM82.2268 40.7062C82.7104 34.3461 80.5174 25.5398 78.6221 24.3289C78.4111 26.6679 78.558 29.2718 77.8869 31.6429C76.3072 37.2304 74.3752 42.7218 72.5143 48.2281C70.4916 54.2125 68.3893 60.1703 66.3205 66.1398C76.0369 60.3796 81.3768 51.8789 82.2268 40.7062Z" fill="black"/>
</svg>
