<svg width="215" height="49" viewBox="0 0 215 49" fill="none" xmlns="http://www.w3.org/2000/svg">
<path d="M115.526 21.9807C118.067 21.9807 120.127 19.921 120.127 17.3801C120.127 14.8393 118.067 12.7795 115.526 12.7795C112.985 12.7795 110.926 14.8393 110.926 17.3801C110.926 19.921 112.985 21.9807 115.526 21.9807Z" fill="white"/>
<path d="M127.21 12.1952C122.5 7.52154 114.869 7.52154 110.159 12.1952C105.448 16.8688 105.448 24.4269 110.159 29.1005C114.869 33.7741 122.5 33.7741 127.21 29.1005C131.92 24.4269 131.92 16.8688 127.21 12.1952ZM118.191 20.1184C116.621 21.6519 114.102 21.6519 112.568 20.1184C110.998 18.5849 110.998 16.102 112.568 14.532C114.138 12.9984 116.658 12.9984 118.191 14.532C119.725 16.102 119.725 18.5849 118.191 20.1184Z" fill="white"/>
<path d="M0 0.584203H29.7943V4.96572H5.00224V17.0879H27.1654V21.3964H5.00224V36.2206H30.6341V40.6386H0V0.584203ZM38.7034 44.5089C40.4925 44.5089 41.9165 44.1438 42.9754 43.4136C44.0343 42.6833 45.0566 41.2958 46.006 39.2511L46.2615 38.6304L32.4232 10.5156H37.462L46.4441 29.3927L48.4888 34.1028L50.5335 29.2101L58.7124 10.5522H63.6416L49.8033 41.4054C49.073 43.0849 48.2332 44.4724 47.3204 45.5678C46.4076 46.6632 45.4218 47.43 44.3629 47.9046C43.304 48.3428 42.3912 48.6349 41.5879 48.7809C40.7846 48.927 39.8353 49 38.7034 49V44.5089ZM89.0179 23.6237C88.7258 20.8487 87.6304 18.5849 85.7317 16.7958C83.8331 15.0067 81.6058 14.0939 79.0134 14.0939C76.494 14.0939 74.2668 15.0067 72.3316 16.8323C70.3964 18.658 69.2645 20.9218 68.8994 23.6237H89.0179ZM68.4247 14.4955C71.3823 11.4285 74.9605 9.89493 79.2325 9.89493C83.2124 9.89493 86.6446 11.4285 89.5291 14.459C92.4136 17.5261 93.8376 21.1408 93.8376 25.3398L93.728 27.3115H69.0089C69.3741 30.196 70.6155 32.5328 72.6967 34.2854C74.7779 36.038 77.2243 36.9508 80.0723 36.9508C83.7235 36.9508 86.8636 35.7824 89.4195 33.4821L91.6468 36.8778C88.1781 39.7623 84.3443 41.1863 80.0358 41.1863C75.5812 41.1863 71.7839 39.7258 68.6803 36.8048C65.5767 33.8838 64.0067 30.1229 64.0067 25.5589C64.0067 21.2869 65.4672 17.5991 68.4247 14.4955ZM145.393 10.5156H150.323V28.4434C150.323 34.1393 153.134 36.9873 158.757 36.9873C161.459 36.9873 163.686 36.1475 165.439 34.468C167.192 32.7884 168.068 30.4881 168.068 27.6036V10.5156H172.997V40.6021H168.031V36.184C165.694 39.6893 162.372 41.2228 157.662 41.2228C153.645 41.2228 150.396 40.0909 148.314 37.8636C146.233 35.6364 145.393 32.7153 145.393 29.1371V10.5156ZM203.01 23.6237C202.718 20.8487 201.623 18.5849 199.724 16.7958C197.826 15.0067 195.598 14.0939 193.006 14.0939C190.487 14.0939 188.259 15.0067 186.324 16.8323C184.425 18.658 183.257 20.9218 182.892 23.6237H203.01ZM182.417 14.4955C185.375 11.4285 188.99 9.89493 193.225 9.89493C197.205 9.89493 200.637 11.4285 203.522 14.459C206.37 17.5261 207.83 21.1408 207.83 25.3398L207.684 27.3115H183.001C183.367 30.196 184.608 32.5328 186.689 34.2854C188.77 36.038 191.217 36.9508 194.065 36.9508C197.716 36.9508 200.856 35.7824 203.412 33.4821L205.639 36.8778C202.171 39.7623 198.337 41.1863 194.028 41.1863C189.574 41.1863 185.776 39.7258 182.673 36.8048C179.569 33.8838 177.999 30.1229 177.999 25.5589C177.999 21.2869 179.46 17.5991 182.417 14.4955ZM107.165 32.0581C100.811 25.7414 100.811 15.4814 107.165 9.20119C110.232 6.13413 114.358 4.45455 118.703 4.45455C123.048 4.45455 127.174 6.13413 130.241 9.20119C133.344 12.2683 135.024 16.3212 135.024 20.6297C135.024 24.9381 133.308 28.9911 130.241 32.0581C127.174 35.1252 123.048 36.8048 118.703 36.8048C114.321 36.8048 110.232 35.1252 107.165 32.0581ZM141.45 39.9449L134.951 33.5186C137.908 29.8674 139.515 25.4128 139.515 20.6662C139.515 15.1528 137.361 9.96796 133.417 6.09762C129.474 2.15425 124.253 0 118.703 0C113.153 0 107.895 2.15425 103.988 6.0611C95.8823 14.0939 95.8823 27.2019 103.988 35.2347C107.931 39.1416 113.153 41.2593 118.703 41.2593C123.449 41.2593 127.94 39.6893 131.592 36.8048L138.091 43.2675L141.45 39.9449ZM207.538 12.7064C206.735 11.9031 206.333 10.9173 206.333 9.74888C206.333 8.58048 206.735 7.59463 207.538 6.79136C208.341 5.98808 209.327 5.58644 210.459 5.58644C211.627 5.58644 212.613 5.98808 213.417 6.79136C214.22 7.59463 214.621 8.58048 214.621 9.74888C214.621 10.9173 214.22 11.9031 213.417 12.7064C212.613 13.5097 211.627 13.9113 210.459 13.9113C209.327 13.9113 208.341 13.5097 207.538 12.7064ZM212.832 12.1222C213.49 11.465 213.782 10.6982 213.782 9.74888C213.782 8.79955 213.453 8.03279 212.832 7.37556C212.175 6.71833 211.408 6.42623 210.459 6.42623C209.546 6.42623 208.743 6.75484 208.086 7.37556C207.428 8.03279 207.136 8.79955 207.136 9.74888C207.136 10.6617 207.465 11.465 208.086 12.1222C208.743 12.7794 209.51 13.108 210.459 13.108C211.408 13.108 212.175 12.7794 212.832 12.1222ZM209.656 11.6475H208.889V7.66766H210.861C211.262 7.66766 211.591 7.7772 211.846 8.03279C212.102 8.25186 212.248 8.54396 212.248 8.90909C212.248 9.2377 212.175 9.49329 211.993 9.67586C211.847 9.89493 211.591 10.0045 211.299 10.0775L212.394 11.6475H211.445L210.422 10.187H209.656V11.6475ZM209.656 8.39791V9.52981H210.642C210.897 9.52981 211.08 9.49329 211.189 9.38375C211.299 9.27422 211.372 9.12817 211.372 8.9456C211.372 8.76304 211.299 8.61699 211.189 8.54396C211.08 8.47094 210.897 8.39791 210.642 8.39791H209.656Z" fill="white"/>
</svg>
