<svg width="347" height="80" viewBox="0 0 347 80" fill="none" xmlns="http://www.w3.org/2000/svg">
<path d="M186.783 35.5384C190.891 35.5384 194.221 32.2081 194.221 28.1001C194.221 23.9921 190.891 20.6619 186.783 20.6619C182.675 20.6619 179.344 23.9921 179.344 28.1001C179.344 32.2081 182.675 35.5384 186.783 35.5384Z" fill="white"/>
<path d="M205.673 19.717C198.058 12.1607 185.72 12.1607 178.105 19.717C170.489 27.2734 170.489 39.4933 178.105 47.0496C185.72 54.6059 198.058 54.6059 205.673 47.0496C213.289 39.4933 213.289 27.2734 205.673 19.717ZM191.092 32.5273C188.554 35.0068 184.48 35.0068 182.001 32.5273C179.462 30.0479 179.462 26.0336 182.001 23.4952C184.539 21.0158 188.613 21.0158 191.092 23.4952C193.571 26.0336 193.571 30.0479 191.092 32.5273Z" fill="#2F94AC"/>
<path d="M0 0.944539H48.1715V8.02858H8.08762V27.6278H43.9211V34.5937H8.08762V58.5614H49.5293V65.7045H0V0.944539ZM62.5757 71.9621C65.4684 71.9621 67.7707 71.3717 69.4826 70.191C71.1946 69.0104 72.8476 66.7671 74.3824 63.4612L74.7957 62.4576L52.4219 17.0017H60.5686L75.0908 47.5221L78.3967 55.1375L81.7026 47.2269L94.9262 17.0607H102.896L80.5219 66.9442C79.3413 69.6597 77.9835 71.903 76.5077 73.674C75.0318 75.445 73.4379 76.6848 71.7259 77.4522C70.014 78.1606 68.5381 78.6329 67.2394 78.869C65.9406 79.1051 64.4058 79.2232 62.5757 79.2232V71.9621ZM143.924 38.1948C143.452 33.7082 141.681 30.0481 138.611 27.1555C135.541 24.2628 131.94 22.787 127.749 22.787C123.676 22.787 120.075 24.2628 116.946 27.2145C113.817 30.1662 111.987 33.8263 111.397 38.1948H143.924ZM110.629 23.4364C115.411 18.4775 121.196 15.9981 128.103 15.9981C134.538 15.9981 140.087 18.4775 144.751 23.3773C149.414 28.3362 151.717 34.1805 151.717 40.9694L151.539 44.1572H111.574C112.164 48.8209 114.171 52.599 117.536 55.4326C120.901 58.2662 124.856 59.7421 129.461 59.7421C135.364 59.7421 140.441 57.853 144.573 54.1339L148.175 59.624C142.566 64.2877 136.368 66.59 129.402 66.59C122.2 66.59 116.06 64.2286 111.042 59.5059C106.024 54.7833 103.486 48.7028 103.486 41.3236C103.486 34.4166 105.847 28.4542 110.629 23.4364ZM235.072 17.0017H243.042V45.9872C243.042 55.1965 247.587 59.8011 256.678 59.8011C261.047 59.8011 264.648 58.4433 267.482 55.7278C270.315 53.0122 271.732 49.2931 271.732 44.6295V17.0017H279.702V65.6454H271.673V58.5024C267.895 64.1696 262.523 66.649 254.907 66.649C248.414 66.649 243.16 64.819 239.795 61.2179C236.43 57.6169 235.072 52.8942 235.072 47.1089V17.0017ZM328.227 38.1948C327.755 33.7082 325.984 30.0481 322.914 27.1555C319.845 24.2628 316.243 22.787 312.052 22.787C307.979 22.787 304.378 24.2628 301.249 27.2145C298.179 30.1662 296.29 33.8263 295.7 38.1948H328.227ZM294.932 23.4364C299.714 18.4775 305.558 15.9981 312.406 15.9981C318.841 15.9981 324.39 18.4775 329.054 23.3773C333.658 28.3362 336.02 34.1805 336.02 40.9694L335.784 44.1572H295.877C296.467 48.8209 298.474 52.599 301.839 55.4326C305.204 58.2662 309.159 59.7421 313.764 59.7421C319.667 59.7421 324.744 57.853 328.877 54.1339L332.478 59.624C326.87 64.2877 320.671 66.59 313.705 66.59C306.503 66.59 300.363 64.2286 295.346 59.5059C290.328 54.7833 287.789 48.7028 287.789 41.3236C287.789 34.4166 290.151 28.4542 294.932 23.4364ZM173.264 51.8316C162.992 41.6187 162.992 25.0303 173.264 14.8765C178.223 9.91766 184.894 7.20211 191.919 7.20211C198.944 7.20211 205.614 9.91766 210.573 14.8765C215.591 19.8353 218.307 26.3881 218.307 33.354C218.307 40.32 215.532 46.8727 210.573 51.8316C205.614 56.7904 198.944 59.5059 191.919 59.5059C184.834 59.5059 178.223 56.7904 173.264 51.8316ZM228.697 64.5828L218.189 54.1929C222.97 48.2895 225.568 41.0874 225.568 33.4131C225.568 24.499 222.085 16.1162 215.709 9.85863C209.333 3.48299 200.892 0 191.919 0C182.945 0 174.445 3.48299 168.128 9.79959C155.022 22.787 155.022 43.9801 168.128 56.9675C174.504 63.2841 182.945 66.7081 191.919 66.7081C199.593 66.7081 206.854 64.1696 212.757 59.5059L223.265 69.9549L228.697 64.5828ZM335.547 20.5437C334.249 19.245 333.599 17.6511 333.599 15.762C333.599 13.8729 334.249 12.279 335.547 10.9803C336.846 9.68152 338.44 9.03215 340.27 9.03215C342.159 9.03215 343.753 9.68152 345.052 10.9803C346.351 12.279 347 13.8729 347 15.762C347 17.6511 346.351 19.245 345.052 20.5437C343.753 21.8425 342.159 22.4918 340.27 22.4918C338.44 22.4918 336.846 21.8425 335.547 20.5437ZM344.107 19.5992C345.17 18.5366 345.642 17.2969 345.642 15.762C345.642 14.2271 345.111 12.9874 344.107 11.9248C343.045 10.8622 341.805 10.3899 340.27 10.3899C338.794 10.3899 337.496 10.9212 336.433 11.9248C335.37 12.9874 334.898 14.2271 334.898 15.762C334.898 17.2378 335.429 18.5366 336.433 19.5992C337.496 20.6618 338.735 21.1931 340.27 21.1931C341.805 21.1931 343.045 20.6618 344.107 19.5992ZM338.971 18.8317H337.732V12.3971H340.92C341.569 12.3971 342.1 12.5742 342.513 12.9874C342.927 13.3416 343.163 13.8139 343.163 14.4042C343.163 14.9355 343.045 15.3488 342.75 15.6439C342.513 15.9981 342.1 16.1752 341.628 16.2933L343.399 18.8317H341.864L340.211 16.4704H338.971V18.8317ZM338.971 13.5777V15.4078H340.565C340.979 15.4078 341.274 15.3488 341.451 15.1717C341.628 14.9946 341.746 14.7584 341.746 14.4633C341.746 14.1681 341.628 13.9319 341.451 13.8139C341.274 13.6958 340.979 13.5777 340.565 13.5777H338.971Z" fill="black"/>
</svg>
