<?xml version="1.0" encoding="UTF-8"?>
<svg id="Layer_1" data-name="Layer 1" xmlns="http://www.w3.org/2000/svg" version="1.1" viewBox="0 0 447 239">
  <defs>
    <style>
      .cls-1 {
        fill: #fff;
        stroke-width: 0px;
      }
    </style>
  </defs>
  <g>
    <path class="cls-1" d="M12.2,13.3v39.1h57.2V13.3H12.2ZM66.3,49.3H15.2V16.3h51.2v33.1Z"/>
    <path class="cls-1" d="M34.9,23.9v17.9l13.4-8.9-13.4-8.9ZM37.9,29.5l5,3.3-5,3.3v-6.7Z"/>
    <rect class="cls-1" x="66.4" y="58.3" width="2.8" height="3"/>
    <rect class="cls-1" x="12.2" y="55.3" width="3" height="9"/>
    <rect class="cls-1" x="18.2" y="55.3" width="3" height="9"/>
    <path class="cls-1" d="M39.2,55.3h-9v3h-5.8v3h5.8v3h9v-3h24v-3h-24v-3ZM36.2,61.3h-3v-3h3v3h0Z"/>
  </g>
  <g>
    <path class="cls-1" d="M235.8,168.2h-38.6v63h48.6v-53s-10-10-10-10ZM242.5,178.7h-7.3v-7.3l7.3,7.3ZM199.8,228.6v-57.7h32.8v10.5h10.5v47.2h-43.3Z"/>
    <rect class="cls-1" x="224.7" y="194.4" width="10.5" height="2.6"/>
    <rect class="cls-1" x="224.7" y="189.2" width="13.1" height="2.6"/>
    <rect class="cls-1" x="211.6" y="204.9" width="24.9" height="2.6"/>
    <rect class="cls-1" x="211.6" y="210.2" width="24.9" height="2.6"/>
    <rect class="cls-1" x="211.6" y="215.4" width="24.9" height="2.6"/>
    <rect class="cls-1" x="206.3" y="204.9" width="2.6" height="2.6"/>
    <rect class="cls-1" x="206.3" y="210.2" width="2.6" height="2.6"/>
    <rect class="cls-1" x="206.3" y="215.4" width="2.6" height="2.6"/>
    <path class="cls-1" d="M222.1,194.4c0-3.6-2.9-6.6-6.6-6.6h-6.6c-3.6,0-6.6,2.9-6.6,6.6v3.9h19.7v-3.9ZM219.5,195.8h-14.4v-1.3c0-2.2,1.8-3.9,3.9-3.9h6.6c2.2,0,3.9,1.8,3.9,3.9v1.3Z"/>
    <path class="cls-1" d="M212.3,186.6c3.3,0,5.9-2.6,5.9-5.9,0-3.3-2.6-5.9-5.9-5.9s-5.9,2.6-5.9,5.9c0,3.3,2.6,5.9,5.9,5.9ZM212.3,177.4c1.8,0,3.3,1.5,3.3,3.3,0,1.8-1.5,3.3-3.3,3.3-1.8,0-3.3-1.5-3.3-3.3,0-1.8,1.5-3.3,3.3-3.3Z"/>
  </g>
  <g id="Group_543" data-name="Group 543">
    <path id="Path_452" data-name="Path 452" class="cls-1" d="M422.4,15.2h-5.3v-6.7c0-.7-.6-1.2-1.2-1.2,0,0-.2,0-.3,0l-34.1,7.9s0,0,0,0c0,0-.2,0-.2.1,0,0-.1,0-.2.1,0,0-.1.1-.2.2,0,0,0,.1-.1.2,0,0,0,.1,0,.2,0,0,0,.2,0,.2,0,0,0,0,0,.1v52.6c0,.7.5,1.2,1.2,1.2h40.6c.7,0,1.2-.5,1.2-1.2h0V16.4c0-.7-.5-1.2-1.2-1.2h0ZM414.7,10v5.2h-22.3l22.3-5.2ZM421.2,67.9h-38.2V17.7h38.2v50.2Z"/>
    <g id="Rectangle_171" data-name="Rectangle 171">
      <path class="cls-1" d="M416.7,61.6h-29v-19h29v19ZM389.6,59.6h25.1v-15.1h-25.1v15.1Z"/>
    </g>
    <rect id="Rectangle_172" data-name="Rectangle 172" class="cls-1" x="388.6" y="37.6" width="27.1" height="2"/>
    <rect id="Rectangle_173" data-name="Rectangle 173" class="cls-1" x="388.6" y="31.7" width="27.1" height="2"/>
    <rect id="Rectangle_174" data-name="Rectangle 174" class="cls-1" x="388.6" y="25.9" width="27.1" height="2"/>
  </g>
  <g>
    <path class="cls-1" d="M379.7,233.8c-.6,0-1.1-.5-1.1-1.1v-15.7c0-.6.5-1.1,1.1-1.1s1.1.5,1.1,1.1v15.7c0,.6-.5,1.1-1.1,1.1Z"/>
    <g>
      <path class="cls-1" d="M379.7,198.5c-.3,0-.6-.1-.8-.3l-8.5-8.5c-2.1-2.1-3.2-4.8-3.2-7.7v-5.8c0-.9.5-1.7,1.3-2,.8-.3,1.7-.2,2.4.5l9.5,9.5c.2.2.3.5.3.8v12.5c0,.4-.3.8-.7,1-.1,0-.3,0-.4,0ZM369.4,176.2v5.8c0,2.3.9,4.5,2.5,6.1l6.7,6.7v-9.4l-9.2-9.2Z"/>
      <path class="cls-1" d="M379.7,211c-.3,0-.6-.1-.8-.3l-8.5-8.5c-2.1-2.1-3.2-4.8-3.2-7.7v-5.8c0-.9.5-1.7,1.3-2,.8-.3,1.7-.2,2.4.5.4.4.4,1.1,0,1.5-.4.4-1.1.4-1.5,0v5.8c0,2.3.9,4.5,2.5,6.1l6.7,6.7v-9.9c0-.6.5-1.1,1.1-1.1s1.1.5,1.1,1.1v12.5c0,.4-.3.8-.7,1-.1,0-.3,0-.4,0Z"/>
      <path class="cls-1" d="M379.7,223.5c-.3,0-.6-.1-.8-.3l-8.5-8.5c-2.1-2.1-3.2-4.8-3.2-7.7v-5.8c0-.9.5-1.7,1.3-2,.8-.3,1.7-.2,2.4.5.4.4.4,1.1,0,1.5s-1.1.4-1.5,0v5.8c0,2.3.9,4.5,2.5,6.1l6.7,6.7v-9.9c0-.6.5-1.1,1.1-1.1s1.1.5,1.1,1.1v12.5c0,.4-.3.8-.7,1-.1,0-.3,0-.4,0Z"/>
      <path class="cls-1" d="M379.7,198.5c-.3,0-.6-.1-.8-.3-.4-.4-.4-1.1,0-1.5l8.5-8.5c1.6-1.6,2.5-3.8,2.5-6.1v-5.8l-9.5,9.5c-.4.4-1.1.4-1.5,0-.4-.4-.4-1.1,0-1.5l9.5-9.5c.6-.6,1.6-.8,2.4-.5.8.3,1.3,1.1,1.3,2v5.8c0,2.9-1.1,5.6-3.2,7.7l-8.5,8.5c-.2.2-.5.3-.8.3Z"/>
      <path class="cls-1" d="M379.7,211c-.3,0-.6-.1-.8-.3-.4-.4-.4-1.1,0-1.5l8.5-8.5c1.6-1.6,2.5-3.8,2.5-6.1v-5.8c-.4.4-1.1.4-1.5,0-.4-.4-.4-1.1,0-1.5.6-.6,1.6-.8,2.4-.5.8.3,1.3,1.1,1.3,2v5.8c0,2.9-1.1,5.6-3.2,7.7l-8.5,8.5c-.2.2-.5.3-.8.3Z"/>
      <path class="cls-1" d="M379.7,223.5c-.3,0-.6-.1-.8-.3-.4-.4-.4-1.1,0-1.5l3-3c.4-.4,1.1-.4,1.5,0,.4.4.4,1.1,0,1.5l-3,3c-.2.2-.5.3-.8.3Z"/>
      <path class="cls-1" d="M391.1,202.3c-.6,0-1.1-.5-1.1-1.1s0,0,0,0c-.4.4-1.1.4-1.5,0-.4-.4-.4-1.1,0-1.5.6-.6,1.6-.8,2.4-.5.8.3,1.3,1.1,1.3,2s-.5,1.1-1.1,1.1Z"/>
      <path class="cls-1" d="M385.7,180.1c-.4,0-.7-.2-.9-.5l-5-8.3-5,8.3c-.3.5-1,.7-1.5.4-.5-.3-.7-1-.4-1.5l6-9.8c.2-.3.5-.5.9-.5s.7.2.9.5l6,9.8c.3.5.2,1.2-.4,1.5-.2.1-.4.2-.6.2Z"/>
      <path class="cls-1" d="M379.7,170.3c-.6,0-1.1-.5-1.1-1.1v-3.8c0-.6.5-1.1,1.1-1.1s1.1.5,1.1,1.1v3.8c0,.6-.5,1.1-1.1,1.1Z"/>
      <path class="cls-1" d="M391.1,177.3c-.6,0-1.1-.5-1.1-1.1v-10.8c0-.6.5-1.1,1.1-1.1s1.1.5,1.1,1.1v10.8c0,.6-.5,1.1-1.1,1.1Z"/>
      <path class="cls-1" d="M368.3,177.3c-.6,0-1.1-.5-1.1-1.1v-10.8c0-.6.5-1.1,1.1-1.1s1.1.5,1.1,1.1v10.8c0,.6-.5,1.1-1.1,1.1Z"/>
      <path class="cls-1" d="M373.8,173c-.6,0-1.1-.5-1.1-1.1v-6.5c0-.6.5-1.1,1.1-1.1s1.1.5,1.1,1.1v6.5c0,.6-.5,1.1-1.1,1.1Z"/>
      <path class="cls-1" d="M385.7,173c-.6,0-1.1-.5-1.1-1.1v-6.5c0-.6.5-1.1,1.1-1.1s1.1.5,1.1,1.1v6.5c0,.6-.5,1.1-1.1,1.1Z"/>
    </g>
    <g>
      <path class="cls-1" d="M420.7,202.3c0,0-.2,0-.3,0-.6-.1-.9-.7-.8-1.3l2.3-9.4-9.4,2.3c-.6.1-1.2-.2-1.3-.8-.1-.6.2-1.2.8-1.3l11.1-2.7c.4,0,.8,0,1,.3.3.3.4.7.3,1l-2.7,11.1c-.1.5-.6.8-1.1.8Z"/>
      <path class="cls-1" d="M386.2,228.4c-.1,0-.3,0-.4,0-.4-.2-.7-.6-.7-1v-12.2c0-2.9,1.1-5.6,3.2-7.7l4-4c.6-.6,1.6-.8,2.4-.5.8.3,1.3,1.1,1.3,2v13.7c0,.3-.1.6-.3.8l-8.7,8.7c-.2.2-.5.3-.8.3ZM393.8,205l-4,4c-1.6,1.6-2.5,3.8-2.5,6.1v9.6l6.5-6.5v-13.2Z"/>
      <path class="cls-1" d="M394.9,219.7c-.3,0-.6-.1-.8-.3-.4-.4-.4-1.1,0-1.5l8.4-8.4v-13.2l-4,4c-1.6,1.6-2.5,3.8-2.5,6.1s-.5,1.1-1.1,1.1-1.1-.5-1.1-1.1c0-2.9,1.1-5.6,3.2-7.7l4-4c.6-.6,1.6-.8,2.4-.5.8.3,1.3,1.1,1.3,2v13.7c0,.3-.1.6-.3.8l-8.7,8.7c-.2.2-.5.3-.8.3Z"/>
      <path class="cls-1" d="M403.6,211c-.3,0-.6-.1-.8-.3-.4-.4-.4-1.1,0-1.5l8.4-8.4v-13.2l-4,4c-1.6,1.6-2.5,3.8-2.5,6.1s-.5,1.1-1.1,1.1-1.1-.5-1.1-1.1c0-2.9,1.1-5.6,3.2-7.7l4-4c.6-.6,1.6-.8,2.4-.5.8.3,1.3,1.1,1.3,2v13.7c0,.3-.1.6-.3.8l-8.7,8.7c-.2.2-.5.3-.8.3Z"/>
      <path class="cls-1" d="M398.5,228.4h-12.2c-.6,0-1.1-.5-1.1-1.1s.5-1.1,1.1-1.1h12.2c2.3,0,4.5-.9,6.1-2.5l4-4h-13.7c-.6,0-1.1-.5-1.1-1.1s.5-1.1,1.1-1.1h13.7c.9,0,1.7.5,2,1.3.3.8.2,1.7-.5,2.4l-4,4c-2.1,2.1-4.8,3.2-7.7,3.2Z"/>
      <path class="cls-1" d="M407.2,219.7c-.6,0-1.1-.5-1.1-1.1s.5-1.1,1.1-1.1c2.3,0,4.5-.9,6.1-2.5l4-4h-13.7c-.6,0-1.1-.5-1.1-1.1s.5-1.1,1.1-1.1h13.7c.9,0,1.7.5,2,1.3.3.8.2,1.7-.5,2.4l-4,4c-2.1,2.1-4.8,3.2-7.7,3.2Z"/>
      <path class="cls-1" d="M415.9,211c-.6,0-1.1-.5-1.1-1.1s.5-1.1,1.1-1.1c2.3,0,4.5-.9,6.1-2.5l4-4h-13.7c-.6,0-1.1-.5-1.1-1.1s.5-1.1,1.1-1.1h13.7c.9,0,1.7.5,2,1.3.3.8.2,1.7-.5,2.4l-4,4c-2.1,2.1-4.8,3.2-7.7,3.2Z"/>
      <path class="cls-1" d="M383.3,231.4c-.3,0-.6-.1-.8-.3-.4-.4-.4-1.1,0-1.5l6.8-6.8c.4-.4,1.1-.4,1.5,0,.4.4.4,1.1,0,1.5l-6.8,6.8c-.2.2-.5.3-.8.3Z"/>
      <path class="cls-1" d="M423.4,191.2c-.3,0-.6-.1-.8-.3-.4-.4-.4-1.1,0-1.5l4.3-4.3c.4-.4,1.1-.4,1.5,0,.4.4.4,1.1,0,1.5l-4.3,4.3c-.2.2-.5.3-.8.3Z"/>
      <path class="cls-1" d="M426.7,204.2c-.3,0-.6-.1-.8-.3-.4-.4-.4-1.1,0-1.5l9.2-9.2c.4-.4,1.1-.4,1.5,0,.4.4.4,1.1,0,1.5l-9.2,9.2c-.2.2-.5.3-.8.3Z"/>
      <path class="cls-1" d="M410.4,187.9c-.3,0-.6-.1-.8-.3-.4-.4-.4-1.1,0-1.5l9.2-9.2c.4-.4,1.1-.4,1.5,0,.4.4.4,1.1,0,1.5l-9.2,9.2c-.2.2-.5.3-.8.3Z"/>
      <path class="cls-1" d="M417.2,189c-.3,0-.6-.1-.8-.3-.4-.4-.4-1.1,0-1.5l6.4-6.4c.4-.4,1.1-.4,1.5,0,.4.4.4,1.1,0,1.5l-6.4,6.4c-.2.2-.5.3-.8.3Z"/>
      <path class="cls-1" d="M425.6,197.5c-.3,0-.6-.1-.8-.3-.4-.4-.4-1.1,0-1.5l6.4-6.4c.4-.4,1.1-.4,1.5,0,.4.4.4,1.1,0,1.5l-6.4,6.4c-.2.2-.5.3-.8.3Z"/>
    </g>
  </g>
  <g>
    <path class="cls-1" d="M221.4,48c-4.7,0-8.6-3.8-8.6-8.6s3.8-8.6,8.6-8.6,8.6,3.8,8.6,8.6-3.8,8.6-8.6,8.6ZM221.4,33.1c-3.5,0-6.3,2.8-6.3,6.3s2.8,6.3,6.3,6.3,6.3-2.8,6.3-6.3-2.8-6.3-6.3-6.3Z"/>
    <path class="cls-1" d="M221.4,70.8c-12.1,0-23.2-7.1-28.1-18.2-.3-.6,0-1.3.6-1.5.6-.3,1.3,0,1.5.6,4.6,10.2,14.9,16.8,26.1,16.8s1.1.5,1.1,1.1-.5,1.1-1.1,1.1Z"/>
    <path class="cls-1" d="M239,65.1c-.4,0-.7-.2-.9-.5-.4-.5-.3-1.2.2-1.6,4-2.9,7.2-6.8,9.2-11.3.3-.6.9-.8,1.5-.6.6.3.8.9.6,1.5-2.2,4.9-5.6,9.1-9.9,12.2-.2.1-.4.2-.7.2Z"/>
    <g>
      <path class="cls-1" d="M229.4,70.3c-3.8,0-6.9-3.1-6.9-6.9v-8c0-1.6-1.3-2.9-2.9-2.9s-2.9,1.3-2.9,2.9c0,3.5-2.8,6.3-6.3,6.3s-6.3-2.8-6.3-6.3v-13.7c0-.9-.8-1.7-1.7-1.7s-1.7.8-1.7,1.7v1.4c0,3.3-2.7,6-6,6s-6-2.7-6-6v-3.2c0-18,14.4-32.8,32.2-33.1,8.8-.1,17.1,3.2,23.3,9.4,6.3,6.2,9.7,14.4,9.7,23.2v4.3c0,3.3-2.7,6-6,6s-6-2.7-6-6v-4.9c0-1.6-1.3-2.9-2.9-2.9s-2.9,1.3-2.9,2.9v24.6c0,3.8-3.1,6.9-6.9,6.9ZM219.7,50.2c2.8,0,5.1,2.3,5.1,5.1v8c0,2.5,2.1,4.6,4.6,4.6s4.6-2.1,4.6-4.6v-24.6c0-2.8,2.3-5.1,5.1-5.1s5.1,2.3,5.1,5.1v4.9c0,2,1.7,3.7,3.7,3.7s3.7-1.7,3.7-3.7v-4.3c0-8.2-3.2-15.8-9-21.6-5.7-5.6-13.3-8.7-21.3-8.7s-.3,0-.4,0c-16.5.2-29.9,14-29.9,30.8v3.2c0,2,1.7,3.7,3.7,3.7s3.7-1.7,3.7-3.7v-1.4c0-2.2,1.8-4,4-4s4,1.8,4,4v13.7c0,2.2,1.8,4,4,4s4-1.8,4-4,2.3-5.1,5.1-5.1Z"/>
      <path class="cls-1" d="M209.1,29.4c-.3,0-.6-.1-.8-.3l-4.6-4.6c-.4-.4-.4-1.2,0-1.6.4-.4,1.2-.4,1.6,0l4.6,4.6c.4.4.4,1.2,0,1.6-.2.2-.5.3-.8.3Z"/>
      <path class="cls-1" d="M234.3,22.5c-.3,0-.6-.1-.8-.3l-4.6-4.6c-.4-.4-.4-1.2,0-1.6.4-.4,1.2-.4,1.6,0l4.6,4.6c.4.4.4,1.2,0,1.6-.2.2-.5.3-.8.3Z"/>
      <path class="cls-1" d="M219.2,23.4c-.6,0-1.1-.5-1.1-1.1v-5.7c0-.6.5-1.1,1.1-1.1s1.1.5,1.1,1.1v5.7c0,.6-.5,1.1-1.1,1.1Z"/>
      <path class="cls-1" d="M236,31.1c-.3,0-.6-.1-.8-.3-.4-.4-.4-1.2,0-1.6l4.6-4.6c.4-.4,1.2-.4,1.6,0,.4.4.4,1.2,0,1.6l-4.6,4.6c-.2.2-.5.3-.8.3Z"/>
      <path class="cls-1" d="M195.7,39.4c-.6,0-1.1-.5-1.1-1.1v-5.7c0-.6.5-1.1,1.1-1.1s1.1.5,1.1,1.1v5.7c0,.6-.5,1.1-1.1,1.1Z"/>
      <path class="cls-1" d="M230,60c-.6,0-1.1-.5-1.1-1.1v-5.7c0-.6.5-1.1,1.1-1.1s1.1.5,1.1,1.1v5.7c0,.6-.5,1.1-1.1,1.1Z"/>
    </g>
  </g>
  <g>
    <g>
      <path class="cls-1" d="M27,213.5c-.6,0-1.1-.5-1.1-1.1v-9.9c0-.5-.2-1-.6-1.4l-2-2.2c-1.8-1.9-2.7-4.4-2.7-7.1s.6-3.9,1.6-5.6l3.3-5.2c3.9-6.2,10.6-9.9,17.9-9.9s14,3.7,17.9,9.9l3.3,5.2c1,1.7,1.6,3.6,1.6,5.6s-1,5.1-2.7,7.1l-2,2.2c-.2.2-.3.4-.4.6-.2.5-.8.8-1.4.6-.5-.2-.8-.8-.6-1.4.2-.4.4-.9.8-1.2l2-2.2c1.4-1.5,2.2-3.5,2.2-5.6s-.4-3.1-1.3-4.4l-3.3-5.2c-3.5-5.6-9.5-8.9-16.1-8.9s-12.6,3.3-16.1,8.9l-3.3,5.2c-.8,1.3-1.3,2.9-1.3,4.4s.8,4.1,2.2,5.6l2,2.2c.7.8,1.1,1.8,1.1,2.9v9.9c0,.6-.5,1.1-1.1,1.1Z"/>
      <path class="cls-1" d="M24.9,231.5h-9c-2,0-3.7-1.7-3.7-3.7v-25.3c0-.5-.2-1-.6-1.4l-2-2.2c-1.8-1.9-2.7-4.4-2.7-7.1s.6-3.9,1.6-5.6l3.3-5.2c3.9-6.2,10.6-9.9,17.9-9.9h13.8c.6,0,1.1.5,1.1,1.1s-.5,1.1-1.1,1.1h-13.8c-6.6,0-12.6,3.3-16.1,8.9l-3.3,5.2c-.8,1.3-1.3,2.9-1.3,4.4s.8,4.1,2.2,5.6l2,2.2c.7.8,1.1,1.8,1.1,2.9v25.3c0,.9.7,1.6,1.6,1.6h9c.6,0,1.1.5,1.1,1.1s-.5,1.1-1.1,1.1Z"/>
      <path class="cls-1" d="M23.3,203.9h-10.1c-.6,0-1.1-.5-1.1-1.1s.5-1.1,1.1-1.1h10.1c.6,0,1.1.5,1.1,1.1s-.5,1.1-1.1,1.1Z"/>
      <path class="cls-1" d="M49,189.6c-2.2,0-4-1.8-4-4s1.8-4,4-4,4,1.8,4,4-1.8,4-4,4ZM49,183.8c-1,0-1.9.8-1.9,1.9s.8,1.9,1.9,1.9,1.9-.8,1.9-1.9-.8-1.9-1.9-1.9Z"/>
      <path class="cls-1" d="M53.2,198.6c-1,0-1.9-.8-1.9-1.9s.8-1.9,1.9-1.9,1.9.8,1.9,1.9-.8,1.9-1.9,1.9ZM53.2,196.5c-.1,0-.3.1-.3.3s.1.3.3.3.3-.1.3-.3-.1-.3-.3-.3Z"/>
      <path class="cls-1" d="M36.3,187.5c-1,0-1.9-.8-1.9-1.9s.8-1.9,1.9-1.9,1.9.8,1.9,1.9-.8,1.9-1.9,1.9ZM36.3,185.4c-.1,0-.3.1-.3.3s.1.3.3.3.3-.1.3-.3-.1-.3-.3-.3Z"/>
      <path class="cls-1" d="M36.3,199.7c-2.2,0-4-1.8-4-4s1.8-4,4-4,4,1.8,4,4-1.8,4-4,4ZM36.3,193.9c-1,0-1.9.8-1.9,1.9s.8,1.9,1.9,1.9,1.9-.8,1.9-1.9-.8-1.9-1.9-1.9Z"/>
    </g>
    <g>
      <path class="cls-1" d="M68.3,231.5h-36.3c-3.4,0-6.1-2.7-6.1-6.1,0-12.4,10.1-22.5,22.5-22.5h4c12.3,0,22.3,10,22.3,22.3s-2.9,6.4-6.4,6.4ZM48.4,205c-11.2,0-20.4,9.2-20.4,20.4s1.8,4,4,4h36.3c2.3,0,4.2-1.9,4.2-4.2,0-11.1-9-20.1-20.1-20.1h-4Z"/>
      <path class="cls-1" d="M42.3,211.9c-.3,0-.5-.1-.7-.3-.4-.4-.4-1.1,0-1.5l6.9-6.9c.4-.4,1.1-.4,1.5,0,.4.4.4,1.1,0,1.5l-6.9,6.9c-.2.2-.5.3-.7.3Z"/>
      <path class="cls-1" d="M51.4,211.9c-.3,0-.5-.1-.7-.3-.4-.4-.4-1.1,0-1.5l6.2-6.2c.4-.4,1.1-.4,1.5,0,.4.4.4,1.1,0,1.5l-6.2,6.2c-.2.2-.5.3-.7.3Z"/>
    </g>
  </g>
</svg>