<svg xmlns="http://www.w3.org/2000/svg" id="Layer_1" data-name="Layer 1" version="1.1" viewBox="5.8 25.8 432 86.8">
  <defs>
    <style>
      .cls-1 {
        fill: #fff;
        stroke-width: 0px;
      }
    </style>
  </defs>
  <path class="cls-1" d="M403.7,101.4h0c0-2.3,1.8-4.2,4.2-4.2s4.2,1.9,4.2,4.2h0c0,2.3-1.8,4.2-4.2,4.2s-4.2-1.9-4.2-4.2ZM411.6,101.4h0c0-2.1-1.6-3.7-3.7-3.7s-3.7,1.7-3.7,3.7h0c0,2.1,1.6,3.7,3.7,3.7s3.7-1.7,3.7-3.7ZM406.3,99.2h1.9c.9,0,1.6.5,1.6,1.3s-.5,1.1-1,1.3l1.2,1.6h-.8l-1.1-1.5h-1v1.5h-.7v-4.2ZM408.1,101.3c.6,0,.9-.3.9-.8s-.4-.7-.9-.7h-1.1v1.5h1.1Z"/>
  <g>
    <polygon class="cls-1" points="146.1 70.7 154.2 70.7 150.2 62.9 146.1 70.7"/>
    <polygon class="cls-1" points="94.1 70.7 102.2 70.7 98.2 62.9 94.1 70.7"/>
    <g>
      <path class="cls-1" d="M376,63.7c-5.6,0-6.4.2-6.8.9-.2.4-.3,2.1-.3,4.4s.1,3.4.6,3.8c.5.4,1.9.6,6.6.6s6-.2,6.5-.6c.4-.3.6-1.5.6-3.8s-.1-4.3-.5-4.7c-.4-.5-1.5-.7-6.7-.7Z"/>
      <path class="cls-1" d="M271,63.7c-5.6,0-6.4.2-6.8.9-.2.4-.3,2.1-.3,4.4s.1,3.4.6,3.8c.5.4,1.9.6,6.6.6s6-.2,6.5-.6c.4-.3.6-1.5.6-3.8s-.1-4.3-.5-4.7c-.4-.5-1.5-.7-6.7-.7Z"/>
    </g>
    <g>
      <g>
        <path class="cls-1" d="M206.9,64h-7.9v9.2h7.9c5.6,0,5.5,0,5.5-4.5s-.2-3.6-.6-4.1c-.5-.5-1.5-.6-5-.6Z"/>
        <path class="cls-1" d="M221.8,25.8C102.5,25.8,5.8,45.3,5.8,69.2s96.7,43.4,216,43.4,216-19.4,216-43.4-96.7-43.4-216-43.4ZM58.9,77.9h-6v-6.7h-12v6.7h-6v-18.6h6v6.7h12v-6.7h6v18.6ZM82.8,77.9h-21.1v-18.6h21v4.4h-15.4v2.7h14.6v4.1h-14.6v3h15.5v4.5ZM106,77.9l-1.6-3.2h-12.4l-1.6,3.2h-6.5l10.1-18.6h8.4l10.1,18.6h-6.5ZM130.4,64.1h-8.3v13.9h-6v-13.9h-8.3v-4.8h22.6v4.8ZM158,77.9l-1.6-3.2h-12.4l-1.6,3.2h-6.5l10.1-18.6h8.4l10.1,18.6h-6.5ZM190.6,77.9h-9.3l-9.8-13.9v13.9c.1,0-5.6,0-5.6,0v-18.6h9.3l9.8,13.9v-13.9c-.1,0,5.6,0,5.6,0v18.6ZM216.3,76.4c-1.4,1.3-3.1,1.6-9.4,1.6h-13.4v-18.6h13.4c4.8,0,5.4,0,7,.4,1.8.4,3.1,1.4,3.6,3.2.4,1.3.5,2.5.5,5.5,0,4.9-.4,6.8-1.8,8ZM253.5,76.9c-1.4,1.1-2.5,1.4-10.3,1.4s-8.9-.3-10.4-1.4c-1.5-1.1-1.8-3-1.8-8.4s.4-7.1,1.8-8.2,2.5-1.4,10.3-1.4,8.9.3,10.3,1.4c1.2.9,1.7,2.3,1.8,5.7h-5.7c0-.8-.2-1.3-.4-1.5-.4-.5-.8-.7-6-.7s-5.8.2-6.2.9c-.2.4-.3,2.1-.3,4.4s.1,3.4.6,3.8c.5.4,1.3.6,6,.6s5.3-.2,5.8-.6c.3-.3.5-.9.5-2.2h5.7c-.1,3.7-.6,5.2-1.8,6.2ZM281.9,76.9c-1.4,1.1-3.2,1.4-10.9,1.4s-9.6-.3-11-1.4c-1.5-1.1-1.8-3-1.8-8.4s.4-7.1,1.8-8.2,3.2-1.4,11-1.4,9.5.3,11,1.4c1.4,1.1,1.8,3,1.8,8.3s-.4,7.2-1.8,8.3ZM311.4,77.9h-9.3l-9.8-13.9v13.9c.1,0-5.6,0-5.6,0v-18.6h9.3l9.8,13.9v-13.9c-.1,0,5.6,0,5.6,0v18.6ZM335.9,64.1h-8.3v13.9h-6v-13.9h-8.3v-4.8h22.6v4.8ZM360.8,73.9v.6c0,.5,0,1.1,0,1.7v1.7h-5.6v-1c0-2.1-.1-2.8-.6-3.2-.4-.4-.8-.5-3.2-.5h-8v4.7h-5.7v-18.6h13.7q6.4,0,7.6.7c1.4.9,1.8,2.1,1.8,5.3s-.3,3.8-1.3,4.6c-.3.2-.6.4-1.1.6.9.2,2.2,1.7,2.2,3.4ZM386.9,76.9c-1.4,1.1-3.2,1.4-10.9,1.4s-9.6-.3-11-1.4c-1.5-1.1-1.8-3-1.8-8.4s.4-7.1,1.8-8.2,3.2-1.4,11-1.4,9.5.3,11,1.4c1.4,1.1,1.8,3,1.8,8.3s-.4,7.2-1.8,8.3ZM411.7,77.9h-20.5v-18.6h6v13.9h14.5v4.8Z"/>
      </g>
      <path class="cls-1" d="M354.5,64.2c-.4-.2-.5-.2-3-.2h-8v4.6h8q2.9,0,3.2-.3c.4-.3.6-.8.6-2s-.2-1.8-.8-2Z"/>
    </g>
  </g>
</svg>