<svg width="532" height="71" viewBox="0 0 532 71" fill="none" xmlns="http://www.w3.org/2000/svg">
<path fill-rule="evenodd" clip-rule="evenodd" d="M210.626 22.3746L189.64 2.66626H184.355V35.6842H191.39V14.9341L213.421 35.7046H217.663V2.68673H210.633L210.626 22.3746Z" fill="black"/>
<path fill-rule="evenodd" clip-rule="evenodd" d="M144.539 16.4209H133.232V2.67627H123.356V35.6942H133.232V21.5144H144.539V35.6942H154.43V2.67627H144.539V16.4209Z" fill="black"/>
<path fill-rule="evenodd" clip-rule="evenodd" d="M106.67 2.24031C101.538 2.03505 96.4926 3.62519 92.3853 6.74251C90.5572 8.12637 89.085 9.93419 88.093 12.0136C87.1009 14.0929 86.618 16.3829 86.685 18.6904V20.0316C86.5532 22.3597 86.9977 24.6842 87.9784 26.7949C88.9591 28.9057 90.4451 30.736 92.3017 32.1202C96.5656 35.0251 101.64 36.4696 106.777 36.2411C108.854 36.2604 110.929 36.1029 112.981 35.7701C114.249 35.5969 115.492 35.2703 116.683 34.7975V29.6912C115.765 29.9847 114.532 30.2961 112.986 30.6255C111.141 30.9788 109.265 31.1443 107.387 31.1194C105.987 31.1996 104.585 30.9913 103.267 30.5074C101.949 30.0234 100.742 29.2738 99.7189 28.304C98.7017 27.1118 97.9301 25.7264 97.4491 24.2291C96.9682 22.7317 96.7877 21.1524 96.9182 19.5837V19.1076C96.8284 17.5357 97.048 15.9615 97.5644 14.476C98.0808 12.9906 98.8837 11.6234 99.9266 10.4538C101.034 9.38443 102.347 8.55761 103.785 8.02513C105.223 7.49266 106.755 7.266 108.283 7.35936C109.961 7.33336 111.638 7.45669 113.295 7.72793C114.45 7.90335 115.585 8.19487 116.683 8.59817V3.49447C115.443 3.03295 114.152 2.72442 112.839 2.5756C110.792 2.32418 108.732 2.21216 106.67 2.24031Z" fill="black"/>
<path fill-rule="evenodd" clip-rule="evenodd" d="M236.281 2.67627L221.459 35.6942H229.588L232.88 27.8083H247.443L250.675 35.6942H260.804L245.524 2.67627H236.281ZM234.812 23.0527L239.877 10.8104L245.367 23.0527H234.812Z" fill="black"/>
<path d="M174.595 2.67627H164.714V35.7044H174.595V2.67627Z" fill="black"/>
<path fill-rule="evenodd" clip-rule="evenodd" d="M386.758 21.627H399.842V16.508H386.758V7.6136H403.674V2.67627H376.887V35.6942H404.811V30.7568H386.758V21.627Z" fill="black"/>
<path fill-rule="evenodd" clip-rule="evenodd" d="M428.941 2.24115C423.808 2.03824 418.763 3.62812 414.654 6.74335C412.826 8.12684 411.355 9.93486 410.364 12.0145C409.374 14.0942 408.893 16.3843 408.964 18.6912V20.0324C408.832 22.3596 409.276 24.6833 410.256 26.7937C411.235 28.9042 412.718 30.735 414.573 32.1211C418.841 35.0274 423.919 36.4719 429.06 36.2419C431.139 36.2605 433.216 36.1029 435.27 35.771C436.533 35.5963 437.77 35.2698 438.957 34.7983V29.6921C438.043 29.9864 436.819 30.2987 435.27 30.6263C433.422 30.9793 431.543 31.1448 429.663 31.1203C428.262 31.2016 426.859 30.9939 425.54 30.5099C424.221 30.0258 423.013 29.2756 421.99 28.3048C420.982 27.1074 420.219 25.7206 419.743 24.2242C419.267 22.7277 419.088 21.151 419.217 19.5845V19.1084C419.038 15.9396 420.108 12.8281 422.193 10.4547C423.305 9.38789 424.621 8.5629 426.061 8.03066C427.501 7.49843 429.034 7.27024 430.564 7.3602C432.239 7.33529 433.913 7.45862 435.566 7.72877C436.722 7.90269 437.858 8.19425 438.957 8.59901V3.49532C437.716 3.03155 436.424 2.72296 435.11 2.57644C433.063 2.32473 431.003 2.21272 428.941 2.24115Z" fill="black"/>
<path fill-rule="evenodd" clip-rule="evenodd" d="M461.667 2.24087C456.72 1.88813 451.834 3.51111 448.058 6.76099C446.516 8.27633 445.305 10.102 444.504 12.1199C443.703 14.1378 443.33 16.3032 443.409 18.4759V20.3444C443.273 22.5681 443.655 24.793 444.522 26.8413C445.389 28.8896 446.718 30.7046 448.403 32.1413C452.239 34.809 456.787 36.2372 461.444 36.2372C466.101 36.2372 470.649 34.809 474.486 32.1413C476.168 30.6791 477.492 28.8422 478.353 26.7751C479.213 24.7081 479.588 22.4673 479.447 20.2292V18.4759C479.515 16.326 479.149 14.1845 478.373 12.1817C477.597 10.1788 476.426 8.35632 474.931 6.82497C473.141 5.19569 471.043 3.9496 468.763 3.16177C466.483 2.37395 464.07 2.06069 461.667 2.24087ZM469.479 19.7915C469.723 22.924 469.065 26.0608 467.585 28.8241C466.867 29.7688 465.926 30.5157 464.847 30.9961C463.769 31.4764 462.588 31.6749 461.414 31.573C457.962 31.573 455.744 30.731 454.802 29.034C453.619 26.0731 453.129 22.8757 453.371 19.6917V18.9239C453.126 15.7061 453.673 12.477 454.964 9.52528C455.717 8.55472 456.709 7.80125 457.841 7.34035C458.973 6.87946 460.205 6.72733 461.414 6.8992C464.913 6.8992 467.152 7.8667 468.089 9.84266C469.177 12.735 469.651 15.8266 469.479 18.9162V19.7915Z" fill="black"/>
<path fill-rule="evenodd" clip-rule="evenodd" d="M276.211 7.6136H285.993V35.7044H295.889V7.6136H305.401V2.67627H276.211V7.6136Z" fill="black"/>
<path fill-rule="evenodd" clip-rule="evenodd" d="M508.763 26.6975L492.252 2.67383H484.909V35.6917H491.781V16.7512L504.347 35.6917H509.477L523 16.7512V35.6917H532V2.67383H525.606L508.763 26.6975Z" fill="black"/>
<path fill-rule="evenodd" clip-rule="evenodd" d="M319.891 21.627H332.97V16.508H319.891V7.6136H336.799V2.67627H310V35.6942H337.949V30.7568H319.891V21.627Z" fill="black"/>
<path fill-rule="evenodd" clip-rule="evenodd" d="M353.926 2.67627H344.05V35.6942H370.3V30.7568H353.926V2.67627Z" fill="black"/>
<path d="M91.527 70.3918H86.637L94.5582 47.9473H99.904L107.726 70.3918H102.69L101.264 65.7641H93.0666L91.527 70.3918ZM94.3125 61.8864H99.9749L97.2171 53.01H97.1564L94.3125 61.8864Z" fill="#F68428"/>
<path d="M132.016 70.3918H127.683V51.6355H127.625L123.48 70.3918H118.922L114.87 51.6355H114.807V70.3918H110.476V47.9473H117.25L121.274 65.6413H121.332L125.29 47.9473H132.004L132.016 70.3918Z" fill="#F68428"/>
<path d="M152.807 51.9222H141.019V56.6369H151.842V60.6067H141.019V66.4245H153.331V70.3918H136.481V47.9473H152.817L152.807 51.9222Z" fill="#F68428"/>
<path d="M157.104 47.9471H168.325C169.208 47.8404 170.103 47.9252 170.95 48.1958C171.798 48.4664 172.578 48.9166 173.24 49.5164C173.902 50.1162 174.429 50.8517 174.788 51.6739C175.146 52.4962 175.326 53.3861 175.317 54.2845C175.386 55.4303 175.09 56.5684 174.472 57.5319C173.855 58.4954 172.948 59.2338 171.886 59.639C173.706 60.4555 174.702 61.1389 174.702 65.3314C174.702 68.6127 174.702 69.4266 175.692 69.8029V70.3916H170.551C170.164 68.9166 169.999 67.391 170.062 65.8663C170.062 62.7949 169.875 61.6073 166.444 61.6073H161.645V70.3916H157.102L157.104 47.9471ZM167.092 57.8268C169.5 57.8268 170.68 56.9771 170.68 54.7554C170.68 53.5678 170.156 51.8171 167.431 51.8171H161.647V57.8217L167.092 57.8268Z" fill="#F68428"/>
<path d="M183.704 70.3918H179.065V47.9473H183.704V70.3918Z" fill="#F68428"/>
<path d="M202.203 55.2923C202.034 54.13 201.429 53.0781 200.512 52.3555C199.596 51.6328 198.439 51.2949 197.283 51.4121C195.054 51.4121 191.777 52.9119 191.777 59.2621C191.777 63.2908 193.35 66.9177 197.283 66.9177C198.478 66.9721 199.65 66.5675 200.562 65.7852C201.475 65.0028 202.061 63.9006 202.203 62.6996H206.842C206.578 65.0624 205.433 67.2346 203.64 68.7742C201.847 70.3139 199.541 71.1052 197.191 70.9873C191.278 70.9873 187.042 66.9561 187.042 59.2135C187.042 51.3634 191.529 47.368 197.252 47.368C199.561 47.1537 201.86 47.8656 203.654 49.3502C205.448 50.8347 206.592 52.9727 206.84 55.3026L202.203 55.2923Z" fill="#F68428"/>
<path d="M213.525 70.3918H208.638L216.556 47.9473H221.907L229.735 70.3918H224.693L223.267 65.7641H215.07L213.525 70.3918ZM216.311 61.8864H221.968L219.213 53.01H219.152L216.311 61.8864Z" fill="#F68428"/>
<path d="M236.007 63.4862C236.045 64.7404 236.663 67.1156 240.715 67.1156C242.911 67.1156 245.354 66.5807 245.354 64.208C245.354 62.4573 243.683 61.9838 241.333 61.4207L238.952 60.8627C235.362 60.0181 231.9 59.2067 231.9 54.2642C231.9 51.7687 233.227 47.3535 240.436 47.3535C247.241 47.3535 249.069 51.8506 249.102 54.597H244.643C244.521 53.6039 244.136 51.2261 240.1 51.2261C238.327 51.2261 236.23 51.8813 236.23 53.911C236.23 55.6618 237.656 56.038 238.588 56.2581L243.999 57.5993C247.038 58.3518 249.824 59.6111 249.824 63.6398C249.824 70.3867 243.017 70.9856 241.07 70.9856C232.966 70.9856 231.573 66.2659 231.573 63.4837L236.007 63.4862Z" fill="#F68428"/>
<path d="M21.3048 27.241C23.0294 11.9658 29.4083 0.621965 37.0256 0.621965C41.5408 0.621965 45.6204 4.60971 48.5554 11.0392L45.5621 11.8301C45.2027 11.4162 44.7646 11.0794 44.2739 10.8397C43.7832 10.6001 43.2499 10.4625 42.7057 10.4352C40.1429 10.4352 38.0386 13.5911 36.5723 18.339C35.8073 20.9391 35.2684 23.6017 34.9618 26.2966C35.8177 26.1225 36.6812 25.9229 37.5574 25.7079C51.0447 22.3037 60.8246 14.9092 59.4141 9.17334C58.7911 6.64453 56.0891 4.87078 52.1133 3.95959L51.1004 0C62.1161 0.511905 70.3183 4.32816 71.8656 10.6604C74.2587 20.3508 60.1712 32.2552 40.3936 37.2334C38.3981 37.7274 36.4204 38.1472 34.473 38.4748C34.8934 50.0797 37.7651 59.0662 41.2318 59.0662C43.9946 59.0662 46.375 53.3943 47.4462 45.2448L52.7439 43.8575C51.0092 59.1123 44.6404 70.4279 37.0282 70.4279C28.6942 70.4279 21.8341 56.8343 20.9478 39.3681C9.98272 38.8562 1.81845 35.0297 0.263588 28.7179C-1.76229 20.4839 8.08094 10.663 23.2041 4.83495L23.9638 7.81936C15.1006 11.6177 9.48892 17.0567 10.5829 21.4949C11.373 24.6892 15.4804 26.6882 21.3048 27.241Z" fill="black"/>
</svg>
