<svg xmlns="http://www.w3.org/2000/svg" xmlns:xlink="http://www.w3.org/1999/xlink" version="1.1" id="Group_53" x="0px" y="0px" style="enable-background:new 0 0 210 84;" xml:space="preserve" viewBox="35.89 27.3 138.16 29.3">
<style type="text/css">
	.st0{fill:#000;}
</style>
<g id="Group_42" transform="translate(8.332 9.828)">
	<g id="Group_41" transform="translate(0 0)">
		<g id="Group_40">
			<path id="Path_274" class="st0" d="M43.1,31l-3.6-3.6l1.8,1.8c1.2,1.2,1.2,3.1,0.1,4.3l-0.1,0.1l-3.8,3.8c-2,2-2.1,5.2-0.1,7.3     c0,0,0,0,0,0l0.1,0.1l0,0l3.2-3.2l2.3-2.3C45.3,37,45.3,33.3,43.1,31C43.1,31,43.1,31,43.1,31z"/>
		</g>
	</g>
</g>
<g id="Group_45" transform="translate(12.338 6.183)">
	<g id="Group_44" transform="translate(0 0)">
		<g id="Group_43">
			<path id="Path_275" class="st0" d="M41.4,29.2l-1.9-1.9c-0.7,0.5-1.4,1-2.1,1.6c-0.6,0.6-1.2,1.3-1.6,2.1l3.6,3.6     c2.3,2.2,2.3,5.9,0,8.1c0,0,0,0,0,0l0,0l-2.3,2.3l4.2-4.2C44.6,37.7,44.6,32.5,41.4,29.2C41.4,29.2,41.4,29.2,41.4,29.2z"/>
		</g>
	</g>
</g>
<g id="Group_48" transform="translate(3.065 0)">
	<g id="Group_47" transform="translate(0 0)">
		<g id="Group_46">
			<path id="Path_276" class="st0" d="M37.6,41.1l3.6,3.6l-1.8-1.8c-1.2-1.2-1.2-3.1-0.1-4.3l0.1-0.1l3.8-3.8c2-2,2.1-5.2,0.1-7.3     c0,0,0,0,0,0l-0.1-0.1l0,0l-3.2,3.3L37.6,33C35.3,35.2,35.3,38.8,37.6,41.1C37.5,41.1,37.5,41.1,37.6,41.1z"/>
		</g>
	</g>
</g>
<g id="Group_51" transform="translate(0 3.234)">
	<g id="Group_50" transform="translate(0)">
		<g id="Group_49">
			<path id="Path_277" class="st0" d="M38.3,43.3l1.8,1.8c0.7-0.5,1.3-1.1,1.9-1.7c0.6-0.7,1.2-1.3,1.7-2l-3.6-3.6     c-2.2-2.2-2.3-5.8-0.1-8c0,0,0,0,0.1-0.1l0,0l2.4-2.4l-4.3,4.3C35.1,34.9,35.1,40.1,38.3,43.3z"/>
		</g>
	</g>
</g>
<g id="Group_52" transform="translate(30.213 3.797)">
	<path id="Path_278" class="st0" d="M35.9,27.5c0.2-0.1,0.4-0.1,0.7-0.1c0.2,0,0.5-0.1,0.7-0.1c0.2,0,0.4,0,0.7,0.1   c0.2,0,0.5,0.1,0.7,0.1v15c0,0.4,0,0.8,0.1,1.1c0.1,0.2,0.2,0.5,0.3,0.7c0.1,0.2,0.3,0.3,0.5,0.3c0.4,0.1,0.8,0.1,1.1,0.1   c0.4,0,0.8,0,1.2-0.1c0.4,0,0.8,0,1.2-0.1c0.2,0.6,0.2,1.3,0.2,1.9c-0.3,0.1-1.5,0.1-1.8,0.2c-0.6,0.1-1.2,0.1-1.9,0.1   c-0.5,0-0.9-0.1-1.4-0.2c-0.4-0.1-0.8-0.3-1.1-0.6c-0.4-0.3-0.7-0.7-0.8-1.1c-0.2-0.5-0.3-1.1-0.3-1.7V27.5z"/>
	<path id="Path_279" class="st0" d="M46.3,40.5c-0.1,1.2,0.3,2.3,1.1,3.2c0.9,0.7,2,1.1,3.2,1c1.2,0,2.4-0.2,3.5-0.7   c0.1,0.3,0.3,0.6,0.3,0.9c0.1,0.4,0.1,0.7,0.2,1.1c-0.6,0.3-1.2,0.5-1.9,0.6c-0.7,0.1-1.5,0.2-2.3,0.2c-1.1,0-2.1-0.2-3.1-0.5   c-0.8-0.3-1.5-0.8-2.1-1.5c-0.6-0.6-1-1.4-1.2-2.2c-0.3-0.9-0.5-1.8-0.5-2.7c0-0.9,0.1-1.9,0.4-2.8c0.2-0.8,0.6-1.6,1.2-2.2   c0.5-0.7,1.2-1.2,1.9-1.5c0.9-0.4,1.8-0.6,2.8-0.6c0.8,0,1.7,0.1,2.5,0.5c0.7,0.3,1.3,0.7,1.7,1.3c0.5,0.6,0.8,1.2,1.1,1.9   c0.3,0.8,0.4,1.6,0.3,2.5c0,0.3,0,0.5-0.1,0.8c0,0.3-0.1,0.5-0.1,0.7L46.3,40.5L46.3,40.5z M52.9,38.5c0-0.9-0.3-1.8-0.8-2.6   c-0.3-0.3-0.6-0.6-0.9-0.8c-0.4-0.2-0.9-0.3-1.4-0.3c-0.9-0.1-1.8,0.3-2.5,0.9c-0.6,0.8-1,1.7-1.1,2.7L52.9,38.5z"/>
	<path id="Path_280" class="st0" d="M64.8,37.7c0.1-0.8-0.2-1.6-0.8-2.1c-0.7-0.5-1.5-0.7-2.3-0.6c-1.1,0-2.2,0.2-3.2,0.5   c-0.4-0.6-0.5-1.3-0.5-2.1c0.7-0.2,1.3-0.3,1.9-0.5c0.7-0.1,1.3-0.1,2.1-0.2c1.4-0.1,2.8,0.4,4,1.2c1,1,1.5,2.4,1.3,3.8v8.4   c-0.6,0.1-1.3,0.3-2.2,0.5c-0.9,0.1-1.8,0.2-2.7,0.2c-0.8,0-1.6-0.1-2.3-0.2c-0.6-0.1-1.2-0.4-1.7-0.7c-0.5-0.3-0.8-0.8-1.1-1.3   c-0.3-0.6-0.5-1.3-0.4-2c0-0.7,0.1-1.3,0.5-1.9c0.3-0.5,0.7-1,1.2-1.4c0.5-0.4,1.1-0.7,1.8-0.8c0.7-0.2,1.4-0.3,2.1-0.3   c0.4,0,0.9,0,1.3,0.1c0.3,0.1,0.6,0.1,0.9,0.1L64.8,37.7L64.8,37.7z M64.8,40.3c-0.3-0.1-0.7-0.1-1-0.1c-0.3-0.1-0.7-0.1-1-0.1   c-0.9-0.1-1.7,0.1-2.5,0.6c-0.8,0.8-1,2-0.5,3c0.2,0.3,0.4,0.5,0.7,0.7c0.3,0.1,0.6,0.3,0.9,0.3c0.3,0.1,0.7,0.1,1,0.1   c0.4,0,0.8,0,1.2-0.1c0.4,0,0.8-0.1,1.1-0.2L64.8,40.3L64.8,40.3z"/>
	<path id="Path_281" class="st0" d="M78.5,27.5c0.2-0.1,0.4-0.1,0.7-0.1c0.3,0,0.4-0.1,0.6-0.1c0.2,0,0.4,0,0.7,0.1   c0.2,0,0.5,0.1,0.7,0.1v18.6c-0.7,0.2-1.5,0.3-2.2,0.5c-0.9,0.1-1.8,0.2-2.7,0.2c-0.9,0-1.8-0.1-2.7-0.3c-0.8-0.2-1.6-0.6-2.2-1.2   c-0.6-0.6-1.1-1.3-1.5-2.1c-0.4-1-0.6-2-0.6-3.1c0-1,0.1-2,0.5-3c0.3-0.8,0.7-1.6,1.3-2.3c0.6-0.6,1.3-1.1,2.1-1.5   c0.9-0.3,1.8-0.5,2.7-0.5c0.5,0,0.9,0.1,1.3,0.1c0.5,0.1,0.9,0.2,1.2,0.3L78.5,27.5L78.5,27.5z M78.5,35.5   c-0.4-0.1-0.7-0.3-1.1-0.3c-0.4-0.1-0.9-0.1-1.3-0.1c-0.6,0-1.2,0.1-1.8,0.4c-1.1,0.5-1.8,1.5-2.1,2.6c-0.2,0.6-0.3,1.3-0.3,2   c-0.1,1.3,0.3,2.6,1.2,3.5c0.9,0.7,2,1.1,3.1,1.1c0.5,0,0.9-0.1,1.3-0.1c0.3,0,0.7-0.1,1-0.2V35.5z"/>
	<path id="Path_282" class="st0" d="M83.7,44.1c0.5,0.2,1.1,0.3,1.6,0.5c0.6,0.1,1.1,0.2,1.7,0.2c0.4,0,0.8-0.1,1.1-0.1   c0.3-0.1,0.7-0.2,0.9-0.4c0.3-0.2,0.5-0.4,0.7-0.7c0.2-0.2,0.3-0.5,0.3-0.8c0-0.3-0.1-0.6-0.2-0.9c-0.2-0.2-0.3-0.4-0.5-0.6   c-0.2-0.2-0.5-0.3-0.7-0.4c-0.3-0.1-0.6-0.2-0.9-0.3l-0.9-0.3c-0.9-0.3-1.7-0.8-2.5-1.4c-0.5-0.5-0.8-1.3-0.7-2.1   c-0.1-1.1,0.4-2.2,1.3-2.9c1.1-0.8,2.4-1.2,3.7-1.1c0.7,0,1.3,0.1,2,0.2c0.6,0.1,1.2,0.3,1.7,0.5c0,0.4-0.1,0.7-0.2,1.1   c-0.1,0.3-0.2,0.6-0.3,0.9c-0.4-0.1-0.8-0.3-1.3-0.4C89.8,35,89.2,35,88.6,35c-0.6,0-1.2,0.1-1.7,0.3c-0.5,0.2-0.8,0.7-0.7,1.2   c0,0.3,0.1,0.5,0.2,0.7c0.1,0.2,0.3,0.4,0.5,0.5c0.2,0.1,0.5,0.3,0.7,0.4c0.3,0.1,0.6,0.2,0.9,0.3l1.1,0.4c0.4,0.1,0.8,0.3,1.2,0.5   c0.3,0.2,0.6,0.4,0.9,0.7c0.3,0.3,0.5,0.7,0.7,1.1c0.2,0.5,0.3,1,0.3,1.5c0,0.6-0.1,1.2-0.4,1.7c-0.2,0.5-0.6,1-1.1,1.3   c-0.5,0.4-1.1,0.7-1.7,0.9c-0.7,0.2-1.4,0.3-2.2,0.3c-0.7,0-1.5-0.1-2.2-0.2c-0.6-0.1-1.2-0.3-1.7-0.5c0-0.4,0.1-0.7,0.2-1.1   C83.5,44.7,83.6,44.4,83.7,44.1z"/>
	<path id="Path_283" class="st0" d="M94.7,33.2c0.2-0.1,0.4-0.1,0.5-0.1c0.2,0,0.3-0.1,0.6-0.1c0.2,0,0.4,0,0.6,0.1   c0.2,0,0.4,0.1,0.6,0.1c0,0.1,0.1,0.2,0.1,0.3c0.1,0.2,0.1,0.4,0.1,0.6c0.1,0.2,0.1,0.4,0.1,0.6c0,0.1,0.1,0.2,0.1,0.3l0.6-0.8   c0.2-0.3,0.5-0.5,0.9-0.7c0.3-0.2,0.7-0.4,1.1-0.5c0.5-0.1,1-0.2,1.5-0.2c0.7,0,1.5,0.1,2.2,0.4c0.7,0.3,1.3,0.7,1.7,1.2   c0.5,0.6,0.9,1.3,1.1,2.1c0.3,1,0.4,2,0.4,3c0.1,2-0.5,3.9-1.9,5.4c-1.4,1.4-3.3,2.1-5.2,1.9c-0.4,0-0.8-0.1-1.2-0.1   c-0.3-0.1-0.7-0.1-1.1-0.2v6.1c-0.2,0.1-0.4,0.1-0.7,0.1c-0.2,0-0.5,0.1-0.7,0.1c-0.2,0-0.4,0-0.7-0.1c-0.2,0-0.5-0.1-0.7-0.1   L94.7,33.2z M97.3,44.3c0.3,0.1,0.7,0.2,1,0.3c0.4,0.1,0.9,0.1,1.3,0.1c0.6,0,1.2-0.1,1.7-0.3c0.5-0.2,1-0.5,1.3-0.9   c0.4-0.5,0.7-1,0.9-1.6c0.2-0.7,0.3-1.5,0.3-2.3c0.1-1.2-0.2-2.3-0.8-3.3c-0.5-0.9-1.5-1.3-2.5-1.2c-0.4,0-0.9,0.1-1.3,0.2   c-0.4,0.2-0.7,0.4-1.1,0.7c-0.3,0.3-0.6,0.7-0.7,1.2c-0.2,0.5-0.3,1.1-0.3,1.7L97.3,44.3L97.3,44.3z"/>
	<path id="Path_284" class="st0" d="M116.1,37.7c0.1-0.8-0.2-1.6-0.8-2.1c-0.7-0.5-1.5-0.7-2.3-0.6c-1.1,0-2.2,0.2-3.2,0.5   c-0.4-0.6-0.5-1.3-0.5-2.1c0.7-0.2,1.3-0.3,1.9-0.5c0.7-0.1,1.3-0.1,2.1-0.2c1.4-0.1,2.8,0.4,4,1.2c1,1,1.5,2.4,1.3,3.8v8.4   c-0.6,0.1-1.3,0.3-2.2,0.5c-0.9,0.1-1.8,0.2-2.7,0.2c-0.8,0-1.6-0.1-2.3-0.2c-0.6-0.1-1.2-0.4-1.7-0.7c-0.5-0.3-0.8-0.8-1.1-1.3   c-0.3-0.6-0.4-1.3-0.4-1.9c0-0.7,0.1-1.3,0.5-1.9c0.3-0.5,0.7-1,1.2-1.4c0.5-0.4,1.1-0.7,1.8-0.8c0.7-0.2,1.4-0.3,2.1-0.3   c0.4,0,0.9,0,1.3,0.1c0.3,0.1,0.6,0.1,0.9,0.1L116.1,37.7L116.1,37.7z M116.1,40.3c-0.7,0-1.3-0.1-2-0.1c-0.9-0.1-1.7,0.1-2.5,0.6   c-0.8,0.8-1,2-0.5,3c0.2,0.3,0.4,0.5,0.7,0.7c0.3,0.1,0.6,0.3,0.9,0.3c0.3,0.1,0.7,0.1,1,0.1c0.4,0,0.8,0,1.2-0.1   c0.4,0,0.8-0.1,1.1-0.2L116.1,40.3L116.1,40.3z"/>
	<path id="Path_285" class="st0" d="M130.4,44.2c0.1,0.3,0.3,0.6,0.3,0.9c0.1,0.4,0.2,0.7,0.2,1.1c-1.1,0.4-2.3,0.6-3.5,0.6   c-1.8,0.1-3.7-0.5-5-1.9c-1.2-1.4-1.8-3.2-1.7-5.1c0-0.9,0.1-1.8,0.5-2.7c0.2-0.8,0.7-1.5,1.2-2.2c0.6-0.6,1.3-1.1,2.1-1.5   c0.9-0.4,1.9-0.6,2.9-0.6c0.6,0,1.3,0.1,1.9,0.1c0.6,0.1,1.1,0.2,1.6,0.5c0,0.4-0.1,0.7-0.1,1.1c-0.1,0.4-0.2,0.7-0.3,1.1   c-0.9-0.3-1.9-0.5-2.9-0.5c-1.2-0.1-2.3,0.4-3,1.3c-0.7,1-1.1,2.3-1,3.5c-0.1,1.3,0.3,2.6,1.1,3.6c0.8,0.8,1.9,1.2,3,1.2   c0.5,0,0.9-0.1,1.5-0.1C129.6,44.5,130,44.4,130.4,44.2z"/>
	<path id="Path_286" class="st0" d="M134.6,40.5c-0.1,1.2,0.3,2.3,1.1,3.2c0.9,0.7,2,1.1,3.2,1c1.2,0,2.4-0.2,3.5-0.7   c0.1,0.3,0.3,0.6,0.3,0.9c0.1,0.4,0.1,0.7,0.2,1.1c-0.6,0.3-1.2,0.5-1.9,0.6c-0.7,0.1-1.5,0.2-2.3,0.2c-1.1,0-2.1-0.2-3.1-0.5   c-0.8-0.3-1.5-0.8-2.1-1.5c-0.6-0.6-1-1.4-1.2-2.2c-0.5-1.8-0.5-3.7,0-5.6c0.2-0.8,0.6-1.6,1.2-2.2c0.5-0.7,1.2-1.2,1.9-1.5   c0.9-0.4,1.8-0.6,2.8-0.6c0.8,0,1.7,0.1,2.5,0.5c0.7,0.3,1.3,0.7,1.7,1.3c0.5,0.6,0.8,1.2,1.1,1.9c0.3,0.8,0.4,1.6,0.3,2.5   c0,0.3,0,0.5-0.1,0.8c0,0.3-0.1,0.5-0.1,0.7L134.6,40.5L134.6,40.5z M141.1,38.5c0-0.9-0.3-1.8-0.8-2.6c-0.3-0.3-0.6-0.6-0.9-0.8   c-0.4-0.2-0.9-0.3-1.4-0.3c-0.9-0.1-1.8,0.3-2.5,0.9c-0.6,0.8-1,1.7-1.1,2.7L141.1,38.5z"/>
</g>
</svg>