<?xml version="1.0" encoding="utf-8"?>
<!-- Generator: Adobe Illustrator 25.3.1, SVG Export Plug-In . SVG Version: 6.00 Build 0)  -->
<svg version="1.1" id="Layer_1" xmlns="http://www.w3.org/2000/svg" xmlns:xlink="http://www.w3.org/1999/xlink" x="0px" y="0px"
	 viewBox="0 0 210 84" style="enable-background:new 0 0 210 84;" xml:space="preserve">
<style type="text/css">
	.st0{fill:#fff;}
</style>
<g id="_247-white-2" transform="translate(-17.2 -20.3)">
	<g id="Group_3394" transform="translate(17.7 20.8)">
		<g id="Group_3365" transform="translate(56.46 0.532)">
			<g id="Group_3362">
				<path id="a5jKHnd0Mj_5_" class="st0" d="M58,34.4V30h16.9v4.1l-9.7,18h-6l9.9-17.8L58,34.4z"/>
			</g>
			<g id="Group_3364">
				<g id="Group_3363">
					<path id="a5jKHnd0Mj_2_" class="st0" d="M58,34.4V30h16.9v4.1l-9.7,18h-6l9.9-17.8L58,34.4z"/>
				</g>
			</g>
		</g>
		<g id="Group_3369" transform="translate(8.347)">
			<g id="Group_3366">
				<path id="bDxHuop1j_5_" class="st0" d="M67.3,40c0.5-0.4,1-0.8,1.4-1.3c0.5-0.5,0.7-1.1,0.7-1.8c0-0.7-0.3-1.3-0.9-1.8
					c-0.6-0.4-1.3-0.7-2.1-0.6c-0.8,0-1.6,0.3-2.2,0.8c-0.5,0.5-0.9,1.2-1,2c-0.5-0.1-4.6-0.3-5.1-0.3c0.1-1,0.3-2,0.7-3
					c0.5-0.8,1.1-1.6,1.9-2.2c0.8-0.6,1.7-1,2.7-1.3c1.1-0.3,2.2-0.4,3.3-0.4c1,0,2,0.1,3,0.4c0.9,0.3,1.7,0.7,2.5,1.2
					c0.7,0.6,1.3,1.3,1.6,2.1c0.4,0.9,0.6,1.9,0.6,2.9c0,0.6-0.1,1.3-0.3,1.9c-0.1,0.6-0.4,1.1-0.7,1.5c-0.3,0.5-0.6,0.9-1,1.3
					c-0.4,0.4-0.8,0.8-1.3,1.1c-0.5,0.4-2.9,2.3-7.2,5.8h10.6v4.1H58v-5C63.6,43.1,66.7,40.5,67.3,40z"/>
			</g>
			<g id="Group_3368">
				<g id="Group_3367">
					<path id="bDxHuop1j_2_" class="st0" d="M67.3,40c0.5-0.4,1-0.8,1.4-1.3c0.5-0.5,0.7-1.1,0.7-1.8c0-0.7-0.3-1.3-0.9-1.8
						c-0.6-0.4-1.3-0.7-2.1-0.6c-0.8,0-1.6,0.3-2.2,0.8c-0.5,0.5-0.9,1.2-1,2c-0.5-0.1-4.6-0.3-5.1-0.3c0.1-1,0.3-2,0.7-3
						c0.5-0.8,1.1-1.6,1.9-2.2c0.8-0.6,1.7-1,2.7-1.3c1.1-0.3,2.2-0.4,3.3-0.4c1,0,2,0.1,3,0.4c0.9,0.3,1.7,0.7,2.5,1.2
						c0.7,0.6,1.3,1.3,1.6,2.1c0.4,0.9,0.6,1.9,0.6,2.9c0,0.6-0.1,1.3-0.3,1.9c-0.1,0.6-0.4,1.1-0.7,1.5c-0.3,0.5-0.6,0.9-1,1.3
						c-0.4,0.4-0.8,0.8-1.3,1.1c-0.5,0.4-2.9,2.3-7.2,5.8h10.6v4.1H58v-5C63.6,43.1,66.7,40.5,67.3,40z"/>
				</g>
			</g>
		</g>
		<g id="Group_3373" transform="translate(69.006 19.91)">
			<g id="Group_3370">
				<path id="a2o2l2fjS_5_" class="st0" d="M58,31.5c0-0.2,0-0.4,0.1-0.6l0.3-0.5c0.1-0.1,0.3-0.3,0.5-0.3c0.4-0.1,0.9-0.1,1.3,0
					c0.2,0.1,0.4,0.2,0.5,0.3c0.1,0.1,0.2,0.3,0.3,0.5c0.1,0.4,0.1,0.8,0,1.2l-0.3,0.5c-0.1,0.1-0.3,0.3-0.5,0.3
					c-0.4,0.1-0.9,0.1-1.3,0c-0.2-0.1-0.3-0.2-0.5-0.3c-0.1-0.1-0.2-0.3-0.3-0.5C58,31.9,58,31.7,58,31.5"/>
			</g>
			<g id="Group_3372">
				<g id="Group_3371">
					<path id="a2o2l2fjS_2_" class="st0" d="M58,31.5c0-0.2,0-0.4,0.1-0.6l0.3-0.5c0.1-0.1,0.3-0.3,0.5-0.3c0.4-0.1,0.9-0.1,1.3,0
						c0.2,0.1,0.4,0.2,0.5,0.3c0.1,0.1,0.2,0.3,0.3,0.5c0.1,0.4,0.1,0.8,0,1.2l-0.3,0.5c-0.1,0.1-0.3,0.3-0.5,0.3
						c-0.4,0.1-0.9,0.1-1.3,0c-0.2-0.1-0.3-0.2-0.5-0.3c-0.1-0.1-0.2-0.3-0.3-0.5C58,31.9,58,31.7,58,31.5"/>
				</g>
			</g>
		</g>
		<g id="Group_3377" transform="translate(74.801 11.101)">
			<g id="Group_3374">
				<path id="d5VLQnhJ6d_5_" class="st0" d="M64.3,36.8c-0.4,0-0.8,0.1-1.2,0.2c-0.4,0.1-0.7,0.3-1,0.5c-0.3,0.2-0.5,0.6-0.4,1
					c0,0.4,0.2,0.7,0.5,1c0.4,0.2,0.8,0.3,1.2,0.3c0.4,0,0.7,0,1.1-0.1c0.3-0.1,0.6-0.3,0.9-0.4c0.3-0.2,0.5-0.4,0.6-0.7
					c0.1-0.3,0.2-0.6,0.3-1v-0.7l-1-0.1C64.9,36.7,64.6,36.7,64.3,36.8z M66.2,40.2c-0.4,0.6-1,1-1.7,1.3c-0.7,0.3-1.4,0.4-2.2,0.4
					c-0.6,0-1.1-0.1-1.6-0.3c-0.5-0.1-1-0.3-1.4-0.7c-0.4-0.3-0.7-0.7-1-1.1c-0.2-0.5-0.3-1-0.3-1.5c0-1.1,0.5-2.2,1.5-2.8
					c0.5-0.3,1-0.5,1.5-0.7c0.6-0.2,1.2-0.3,1.8-0.4c0.6-0.1,1.2-0.1,1.9-0.1h1.6c0-0.6-0.3-1.1-0.7-1.5c-0.5-0.4-1.1-0.5-1.6-0.5
					c-0.6,0-1.1,0.1-1.6,0.4c-0.5,0.2-1,0.6-1.4,1c-0.2-0.2-1.9-1.8-2.1-1.9c0.7-0.6,1.5-1.1,2.4-1.3c0.9-0.3,1.9-0.4,2.9-0.4
					c0.9,0,1.8,0.1,2.7,0.4c0.6,0.2,1.2,0.6,1.7,1.1c0.5,0.5,0.8,1.1,0.9,1.8c0.2,0.8,0.3,1.7,0.3,2.5v5.7h-3.5L66.2,40.2L66.2,40.2
					z"/>
			</g>
			<g id="Group_3376">
				<g id="Group_3375">
					<path id="d5VLQnhJ6d_2_" class="st0" d="M64.3,36.8c-0.4,0-0.8,0.1-1.2,0.2c-0.4,0.1-0.7,0.3-1,0.5c-0.3,0.2-0.5,0.6-0.4,1
						c0,0.4,0.2,0.7,0.5,1c0.4,0.2,0.8,0.3,1.2,0.3c0.4,0,0.7,0,1.1-0.1c0.3-0.1,0.6-0.3,0.9-0.4c0.3-0.2,0.5-0.4,0.6-0.7
						c0.1-0.3,0.2-0.6,0.3-1v-0.7l-1-0.1C64.9,36.7,64.6,36.7,64.3,36.8z M66.2,40.2c-0.4,0.6-1,1-1.7,1.3c-0.7,0.3-1.4,0.4-2.2,0.4
						c-0.6,0-1.1-0.1-1.6-0.3c-0.5-0.1-1-0.3-1.4-0.7c-0.4-0.3-0.7-0.7-1-1.1c-0.2-0.5-0.3-1-0.3-1.5c0-1.1,0.5-2.2,1.5-2.8
						c0.5-0.3,1-0.5,1.5-0.7c0.6-0.2,1.2-0.3,1.8-0.4c0.6-0.1,1.2-0.1,1.9-0.1h1.6c0-0.6-0.3-1.1-0.7-1.5c-0.5-0.4-1.1-0.5-1.6-0.5
						c-0.6,0-1.1,0.1-1.6,0.4c-0.5,0.2-1,0.6-1.4,1c-0.2-0.2-1.9-1.8-2.1-1.9c0.7-0.6,1.5-1.1,2.4-1.3c0.9-0.3,1.9-0.4,2.9-0.4
						c0.9,0,1.8,0.1,2.7,0.4c0.6,0.2,1.2,0.6,1.7,1.1c0.5,0.5,0.8,1.1,0.9,1.8c0.2,0.8,0.3,1.7,0.3,2.5v5.7h-3.5L66.2,40.2
						L66.2,40.2z"/>
				</g>
			</g>
		</g>
		<g id="Group_3381" transform="translate(88.624 5.888)">
			<g id="Group_3378">
				<path id="a2ZV44TncY_5_" class="st0" d="M62.1,35.6v11.3h-3.8V35.6H62.1z M58,32c0-0.5,0.2-1.1,0.6-1.4c0.9-0.8,2.2-0.8,3.1,0
					c0.8,0.7,0.9,1.9,0.2,2.7c0,0-0.1,0.1-0.1,0.1l-0.1,0.1c-0.9,0.8-2.2,0.8-3.1,0C58.2,33.1,57.9,32.6,58,32"/>
			</g>
			<g id="Group_3380">
				<g id="Group_3379">
					<path id="a2ZV44TncY_2_" class="st0" d="M62.1,35.6v11.3h-3.8V35.6H62.1z M58,32c0-0.5,0.2-1.1,0.6-1.4c0.9-0.8,2.2-0.8,3.1,0
						c0.8,0.7,0.9,1.9,0.2,2.7c0,0-0.1,0.1-0.1,0.1l-0.1,0.1c-0.9,0.8-2.2,0.8-3.1,0C58.2,33.1,57.9,32.6,58,32"/>
				</g>
			</g>
		</g>
		<g id="Group_3385" transform="translate(27.486 0.532)">
			<g id="Group_3382">
				<path id="c1tL2thu2K_5_" class="st0" d="M68.3,35.4l-4.6,8.5h4.9l-0.1-8.5H68.3z M58,47.7v-4L65.5,30h8v13.8h3.1v3.9h-3.1v4.4
					h-4.9v-4.4H58z"/>
			</g>
			<g id="Group_3384">
				<g id="Group_3383">
					<path id="c1tL2thu2K_2_" class="st0" d="M68.3,35.4l-4.6,8.5h4.9l-0.1-8.5H68.3z M58,47.7v-4L65.5,30h8v13.8h3.1v3.9h-3.1v4.4
						h-4.9v-4.4H58z"/>
				</g>
			</g>
		</g>
		<g id="Group_3389" transform="translate(47.794 0.532)">
			<g id="Group_3386">
				<path id="h15m1OHq9F_5_" class="st0" d="M63.5,30v22.1H58v-1.5h3.1V31.5H58V30H63.5z"/>
			</g>
			<g id="Group_3388">
				<g id="Group_3387">
					<path id="h15m1OHq9F_2_" class="st0" d="M63.5,30v22.1H58v-1.5h3.1V31.5H58V30H63.5z"/>
				</g>
			</g>
		</g>
		<g id="Group_3393" transform="translate(0 0.532)">
			<g id="Group_3390">
				<path id="dgOCHVDOq_5_" class="st0" d="M60.4,31.5v19.1h3.1v1.5H58V30h5.5v1.5H60.4z"/>
			</g>
			<g id="Group_3392">
				<g id="Group_3391">
					<path id="dgOCHVDOq_2_" class="st0" d="M60.4,31.5v19.1h3.1v1.5H58V30h5.5v1.5H60.4z"/>
				</g>
			</g>
		</g>
	</g>
</g>
</svg>
