<?xml version="1.0" encoding="utf-8"?>
<!-- Generator: Adobe Illustrator 28.0.0, SVG Export Plug-In . SVG Version: 6.00 Build 0)  -->
<svg version="1.1" id="Layer_1" xmlns="http://www.w3.org/2000/svg" xmlns:xlink="http://www.w3.org/1999/xlink" x="0px" y="0px"
	 viewBox="0 0 255 180" style="enable-background:new 0 0 255 180;" xml:space="preserve">
<path d="M62.2,72.8C52.7,72.8,45,80.5,45,90s7.7,17.2,17.2,17.2S79.4,99.5,79.4,90l0,0C79.3,80.5,71.7,72.8,62.2,72.8z M67.9,82.6
	c0.7,0,1.4,0.6,1.4,1.4s-0.6,1.4-1.4,1.4c-0.8,0-1.4-0.6-1.4-1.4l0,0C66.5,83.2,67.2,82.6,67.9,82.6z M62.2,82.6
	c0.7,0,1.4,0.6,1.4,1.4s-0.6,1.4-1.4,1.4s-1.4-0.6-1.4-1.4l0,0C60.8,83.2,61.4,82.6,62.2,82.6L62.2,82.6z M56.4,82.6
	c0.7,0,1.4,0.6,1.4,1.4s-0.6,1.4-1.4,1.4c-0.8,0-1.4-0.6-1.4-1.4l0,0C55,83.2,55.7,82.6,56.4,82.6L56.4,82.6z M69.3,97H55v-2h14.4
	C69.3,95,69.3,97,69.3,97z M68.4,91.4c-0.2,0.1-0.6,0-0.9,0c-0.2-0.1-0.5-0.4-0.7-0.5c-0.5-0.2-1.1-0.4-1.5-0.4
	c-0.5,0-0.9,0-1.4,0.2c-0.2,0.1-0.6,0.4-0.7,0.5c-0.2,0.2-0.6,0.2-0.8,0.2c-0.4,0-0.6-0.1-0.8-0.4s-0.5-0.4-0.8-0.5
	c-0.5-0.1-0.9-0.2-1.4-0.2c-0.6,0-1.2,0.2-1.7,0.5c-0.2,0.2-0.5,0.4-0.8,0.5c-0.7,0.2-1.5-0.2-1.7-1.1c-0.1-0.8,0.2-1.5,1.1-1.7
	c0.4-0.1,0.8,0,1.2,0.2c0.2,0.2,0.5,0.4,0.7,0.5c0.2,0.1,0.6,0.2,0.9,0.2c0.5,0,0.9,0,1.4-0.1c0.4-0.1,0.6-0.2,0.9-0.4
	c0.2-0.2,0.5-0.4,0.7-0.5c0.4-0.1,0.6,0,0.9,0c0.2,0.2,0.6,0.4,0.8,0.5c0.5,0.2,1.1,0.4,1.5,0.4c0.6,0,1.1-0.1,1.7-0.4
	c0.2-0.1,0.5-0.4,0.7-0.5c0.2-0.1,0.6-0.2,0.9-0.1c0.2,0,0.5,0.2,0.7,0.4c0.6,0.5,0.6,1.4,0,2C68.9,91.2,68.6,91.3,68.4,91.4
	L68.4,91.4z"/>
<path d="M95.9,79L90.2,92h-2.8l-2,4.5h2.8l-1.9,4.3h6.3l1.7-4.3h9.3l1.7,4.3h6.4L102,79H95.9L95.9,79z M96.2,91.9l2.8-7l2.8,7
	C101.7,91.9,96,91.9,96.2,91.9z"/>
<polygon points="136,79 129.2,79 120.7,88 120.7,79 114.7,79 114.7,100.7 120.7,100.7 120.7,95.3 123.1,92.8 129.3,100.7 
	136.5,100.7 127,88.6 "/>
<path d="M147,79l-9.6,21.8h6.3l1.7-4.3h9.3l1.7,4.3h6.4L153,79H147L147,79z M147.2,91.9l2.8-7l2.8,7H147.2L147.2,91.9z"/>
<path d="M179,88.6c-1.3-0.5-2.7-0.8-4.2-1.1c-1.1-0.2-2.3-0.5-3.2-0.9c-0.7-0.2-0.9-0.7-0.9-1.3c0-0.6,0.4-1.1,0.8-1.4
	c0.6-0.4,1.4-0.5,2.7-0.5c2,0,4,0.6,6.1,1.7l1.9-4.5c-1.2-0.7-2.4-1.2-3.7-1.4c-1.4-0.4-2.8-0.5-4.3-0.5c-2.1,0-3.8,0.4-5.3,0.9
	c-1.3,0.5-2.4,1.4-3.3,2.6c-0.7,1.1-1.1,2.4-1.1,3.6c0,1.5,0.4,2.7,1.2,3.7c0.8,0.9,1.8,1.5,2.8,1.9c1.3,0.5,2.7,0.8,4.2,1.1
	c1.1,0.2,2.3,0.5,3.3,0.9c0.7,0.4,1.1,0.7,1.1,1.4c0,1.2-1.2,1.8-3.6,1.8c-1.3,0-2.5-0.2-3.8-0.6c-1.2-0.4-2.4-0.9-3.4-1.5l-2,4.5
	c1.3,0.8,2.6,1.4,4,1.8c1.7,0.5,3.4,0.7,5.1,0.7c2,0,3.8-0.4,5.3-0.9c1.5-0.6,2.5-1.4,3.3-2.6c0.7-1.1,1.1-2.3,1.1-3.6
	c0-1.5-0.4-2.7-1.2-3.6C181.2,89.6,180.1,88.9,179,88.6L179,88.6z"/>
<path d="M210,96.5l-2-4.5h-2.8l-5.8-12.9h-6.1l-9.6,21.8h6.3l1.7-4.3h9.3l1.7,4.3h6.4l-1.9-4.3L210,96.5L210,96.5z M193.4,91.9
	l2.8-7l2.8,7H193.4L193.4,91.9z"/>
<path d="M204.8,80.5h-0.8v-0.4h2.1v0.4h-0.8v2.1h-0.5V80.5L204.8,80.5z"/>
<path d="M208.7,82.6V81l-0.8,1.4h-0.2l-0.8-1.3v1.7h-0.4v-2.5h0.4l0.9,1.7l0.9-1.7h0.4v2.5L208.7,82.6L208.7,82.6z"/>
</svg>
