<?xml version="1.0" encoding="utf-8"?>
<!-- Generator: Adobe Illustrator 25.3.1, SVG Export Plug-In . SVG Version: 6.00 Build 0)  -->
<svg version="1.1" id="align-logo" xmlns="http://www.w3.org/2000/svg" xmlns:xlink="http://www.w3.org/1999/xlink" x="0px" y="0px"
	 viewBox="0 0 210 84" style="enable-background:new 0 0 210 84;" xml:space="preserve">
<style type="text/css">
	.st0{fill:#fff;}
</style>
<path id="Path_1195" class="st0" d="M99.3,21.6c-1.7,0-3,1.4-3,3s1.4,3,3,3c1.7,0,3-1.4,3-3c0-0.8-0.3-1.6-0.9-2.1
	C100.9,21.9,100.1,21.6,99.3,21.6"/>
<path id="Path_1196" class="st0" d="M132.1,31.4h4.7l0.1,1.9c1.3-1.6,3.3-2.5,5.3-2.5c5.1,0,7.9,3.2,7.9,8.7v12.8h-4.8V39.6
	c0-2.8-1.7-4.5-4.2-4.5c-2.4,0-4.1,1.6-4.1,4.5v12.6h-4.8V31.4z M91.4,52.2h-4.8V21.9h4.8L91.4,52.2z M101.8,52.2h-4.8V31.4h4.8
	V52.2z M76.4,31.4h4.8v20.9h-4.8l-0.1-2.2c-1.7,1.7-4,2.7-6.5,2.8c-5.7,0-9.9-4.6-9.9-11c0-6.8,4.6-11.1,9.9-11.1
	c2.5-0.1,4.8,0.9,6.5,2.8L76.4,31.4z M64.8,41.8c0,4,2.5,6.7,5.9,6.7c3.1,0,5.9-2.3,5.9-6.7c0-4.3-2.7-6.7-5.9-6.7
	C67.1,35.1,64.8,38,64.8,41.8 M122.1,41.8c0-4.4-2.7-6.7-5.9-6.7c-3.7,0-5.9,3-5.9,6.7c0,3.8,2.3,6.7,5.9,6.7
	C119.5,48.5,122.1,46.1,122.1,41.8 M126.7,50.2c0,9-5.2,11.9-11.4,11.9c-2.6,0-5.1-0.5-7.5-1.7l1.2-4.1c1.9,1.1,4,1.6,6.2,1.6
	c3.6,0,6.6-2.3,6.6-6.5V50c-1.7,1.8-4.1,2.8-6.5,2.8c-5.6,0-9.9-4.5-9.9-11c0-6.2,4-11,9.9-11c2.5-0.1,4.8,0.9,6.5,2.8l0.1-2.2h4.8
	L126.7,50.2z"/>
</svg>
