<?xml version="1.0" encoding="utf-8"?>
<!-- Generator: Adobe Illustrator 25.3.1, SVG Export Plug-In . SVG Version: 6.00 Build 0)  -->
<svg version="1.1" id="XMLID_1318_" xmlns="http://www.w3.org/2000/svg" xmlns:xlink="http://www.w3.org/1999/xlink" x="0px"
	 y="0px" viewBox="0 0 210 84" style="enable-background:new 0 0 210 84;" xml:space="preserve">
<style type="text/css">
	.st0{fill:#000;}
</style>
<path id="XMLID_1331_" class="st0" d="M67.6,51.4c0-0.6-0.5-1.1-1.1-1.1c0,0-0.1,0-0.1,0c-0.5,0-1,0.2-1.4,0.5V50
	c0.5-0.3,1-0.4,1.6-0.4c1-0.1,1.8,0.6,1.9,1.5c0,0.1,0,0.2,0,0.2V55h-0.9v-0.4c-0.4,0.3-0.9,0.5-1.4,0.5c-1,0.1-1.8-0.6-1.9-1.6
	c0,0,0-0.1,0-0.1c0-1,0.9-1.6,2-1.6c0.5,0,0.9,0.1,1.3,0.4V51.4L67.6,51.4z M67.6,53.1c-0.2-0.4-0.7-0.7-1.2-0.6
	c-0.6,0-1.2,0.3-1.2,0.9c0,0.6,0.6,1,1.2,1c0.5,0,1-0.2,1.2-0.6V53.1z M78.7,47.7V55h-1v-3.3h-4.1V55h-1v-7.2h1v3.1h4.1v-3.1
	L78.7,47.7z M80.8,52.5c-0.1,0.9,0.6,1.7,1.5,1.8c0.1,0,0.2,0,0.3,0c0.5,0,1-0.2,1.4-0.5v0.8c-0.5,0.3-1,0.5-1.6,0.5
	c-1.3,0.1-2.5-1-2.5-2.3c0-0.1,0-0.2,0-0.3c-0.2-1.3,0.8-2.6,2.1-2.7c0.1,0,0.1,0,0.2,0c1.4,0,2.2,1,2.2,2.6v0.3L80.8,52.5
	L80.8,52.5z M80.8,51.7h2.7c0-0.8-0.4-1.4-1.3-1.4C81.5,50.4,80.9,51,80.8,51.7L80.8,51.7z M89.9,53.7l1.1-4h0.9l-1.5,5.2h-0.9
	l-1-3.9l-1.1,3.9h-0.9l-1.5-5.2h0.9l1.1,4l1-4h0.8L89.9,53.7z M93.7,55h-0.9v-7.6h0.9V55z M95.8,52.5c-0.1,0.9,0.6,1.7,1.5,1.8
	c0.1,0,0.2,0,0.3,0c0.5,0,1-0.2,1.4-0.5v0.8c-0.5,0.3-1,0.5-1.6,0.5c-1.3,0.1-2.5-1-2.5-2.3c0-0.1,0-0.2,0-0.3
	c-0.2-1.3,0.8-2.6,2.1-2.7c0.1,0,0.1,0,0.2,0c1.4,0,2.2,1,2.2,2.6v0.3L95.8,52.5L95.8,52.5z M95.8,51.7h2.7c0-0.8-0.4-1.4-1.3-1.4
	C96.4,50.4,95.9,51,95.8,51.7L95.8,51.7z M102,55h-0.9v-4.4H100v-0.7h1.1v-1.4h0.9v1.4h1.2v0.7H102L102,55z M105.9,55H105v-4.4h-1
	v-0.7h1.1v-1.4h0.9v1.4h1.2v0.7H106L105.9,55L105.9,55z M111.9,52.1V55h-1v-7.2h2.7c1.4,0,2.4,0.7,2.4,2.2s-1,2.2-2.4,2.2
	L111.9,52.1z M113.6,48.5h-1.7v2.7h1.7c0.7,0.1,1.4-0.4,1.5-1.2c0-0.1,0-0.1,0-0.2C115.1,49,114.6,48.5,113.6,48.5L113.6,48.5z
	 M119.9,51.4c0-0.6-0.5-1.1-1.1-1.1c0,0-0.1,0-0.1,0c-0.5,0-1,0.2-1.4,0.5V50c0.5-0.3,1-0.4,1.6-0.4c1-0.1,1.8,0.6,1.9,1.5
	c0,0.1,0,0.2,0,0.2V55h-0.9v-0.4c-0.4,0.3-0.9,0.5-1.4,0.5c-1,0.1-1.8-0.6-1.9-1.6c0,0,0-0.1,0-0.1c0-1,0.9-1.6,2-1.6
	c0.5,0,0.9,0.1,1.3,0.4L119.9,51.4z M119.9,53.1c-0.2-0.4-0.7-0.7-1.2-0.6c-0.6,0-1.2,0.3-1.2,0.9c0,0.6,0.6,1,1.2,1
	c0.5,0,1-0.2,1.2-0.6V53.1z M124.4,49.6c0.5,0,1,0.1,1.4,0.4v0.9c-0.4-0.4-0.9-0.6-1.4-0.6c-1.1,0.1-1.8,1.1-1.7,2.2
	c0.1,0.9,0.8,1.6,1.7,1.7c0.5,0,1-0.2,1.4-0.6v0.9c-0.4,0.3-0.9,0.4-1.4,0.4c-1.5-0.1-2.6-1.4-2.5-2.8
	C122,50.7,123.1,49.6,124.4,49.6L124.4,49.6z M131.4,55h-1.1l-2.4-2.6V55H127v-7.6h0.9v4.6l2.3-2.2h1.1l-2.6,2.4L131.4,55z
	 M135,51.4c0-0.6-0.5-1.1-1.1-1.1c0,0-0.1,0-0.1,0c-0.5,0-1,0.2-1.4,0.5V50c0.5-0.3,1-0.4,1.6-0.4c1-0.1,1.8,0.6,1.9,1.5
	c0,0.1,0,0.2,0,0.2V55H135v-0.4c-0.4,0.3-0.9,0.5-1.4,0.5c-1,0.1-1.8-0.6-1.9-1.6c0,0,0-0.1,0-0.1c0-1,0.9-1.6,2-1.6
	c0.5,0,0.9,0.1,1.3,0.4L135,51.4L135,51.4z M135,53.1c-0.2-0.4-0.7-0.7-1.2-0.6c-0.6,0-1.2,0.3-1.2,0.9c0,0.6,0.6,1,1.2,1
	c0.5,0,1-0.2,1.2-0.6V53.1z M140,50.6c-0.2-0.1-0.4-0.2-0.6-0.2c-0.6,0-1.1,0.4-1.2,1v3.5h-0.9v-5.2h0.9v0.6
	c0.2-0.5,0.7-0.8,1.3-0.8c0.2,0,0.4,0,0.5,0.1L140,50.6L140,50.6z M144.5,54.3c-0.3,0.5-0.9,0.7-1.4,0.7c-1.5,0-2.3-1.2-2.3-2.7
	c0-1.4,0.8-2.7,2.3-2.7c0.6,0,1.1,0.3,1.4,0.7v-3h0.9v7.6h-0.9L144.5,54.3z M144.5,51.2c-0.2-0.5-0.8-0.9-1.4-0.9
	c-1,0-1.6,0.8-1.6,1.9s0.6,1.9,1.6,1.9c0.6,0,1.1-0.4,1.4-0.9L144.5,51.2z M65.8,59.5v0.8h-3.7v2.3h3.3v0.8h-3.3v2.5h3.7v0.8h-4.6
	v-7.2L65.8,59.5L65.8,59.5z M67,61.5h0.9v0.6c0.4-0.5,0.9-0.8,1.5-0.8c1-0.1,1.8,0.7,1.9,1.6c0,0.1,0,0.2,0,0.3v3.4h-0.9v-3.3
	c0.1-0.6-0.4-1.1-0.9-1.2c-0.1,0-0.1,0-0.2,0c-0.6,0-1.1,0.4-1.3,1v3.5h-0.9L67,61.5L67,61.5z M74.1,66.7h-0.9v-4.5h-1.1v-0.7h1.1
	v-1.4h0.9v1.4h1.2v0.7h-1.2L74.1,66.7L74.1,66.7z M76.7,64.2c-0.1,0.9,0.6,1.7,1.5,1.8c0.1,0,0.2,0,0.3,0c0.5,0,1-0.2,1.4-0.5v0.8
	c-0.5,0.3-1,0.5-1.6,0.5c-1.3,0.1-2.5-1-2.5-2.3c0-0.1,0-0.2,0-0.3c-0.2-1.3,0.8-2.6,2.1-2.7c0.1,0,0.1,0,0.2,0c1.4,0,2.2,1,2.2,2.6
	v0.3L76.7,64.2L76.7,64.2z M76.7,63.5h2.7c0.1-0.7-0.4-1.4-1.2-1.4c0,0-0.1,0-0.1,0C77.4,62.1,76.8,62.7,76.7,63.5L76.7,63.5z
	 M84.2,62.4c-0.2-0.1-0.4-0.1-0.6-0.2c-0.6,0-1.1,0.4-1.2,1v3.5h-0.9v-5.2h0.9v0.6c0.2-0.5,0.7-0.8,1.3-0.8c0.2,0,0.4,0,0.5,0.1
	L84.2,62.4L84.2,62.4z M86.1,68.6h-0.9v-7.2h0.9V62c0.3-0.5,0.9-0.7,1.4-0.7c1.5,0,2.3,1.3,2.3,2.7c0,1.4-0.8,2.7-2.3,2.7
	c-0.6,0-1.1-0.3-1.4-0.7L86.1,68.6L86.1,68.6z M86.1,65.1c0.2,0.5,0.8,0.9,1.4,0.9c1,0,1.6-0.8,1.6-1.9s-0.6-1.9-1.6-1.9
	c-0.6,0-1.1,0.4-1.4,0.9V65.1z M93.7,62.4c-0.2-0.1-0.4-0.1-0.6-0.2c-0.6,0-1.1,0.4-1.2,1v3.5h-0.9v-5.2H92v0.6
	c0.2-0.5,0.7-0.8,1.3-0.8c0.2,0,0.4,0,0.5,0.1L93.7,62.4L93.7,62.4z M95.2,60.4c-0.3,0-0.6-0.3-0.6-0.6c0-0.3,0.3-0.6,0.6-0.6
	c0.3,0,0.6,0.3,0.6,0.6l0,0C95.8,60.2,95.5,60.4,95.2,60.4C95.2,60.4,95.2,60.4,95.2,60.4z M95.6,66.7h-0.9v-5.2h0.9V66.7z
	 M96.9,65.3c0.4,0.5,1.1,0.7,1.7,0.7c0.6,0,1-0.2,1-0.7c0-0.4-0.3-0.6-0.7-0.7l-0.7-0.2c-0.8-0.2-1.3-0.6-1.3-1.4
	c0-0.9,0.8-1.4,1.9-1.4c0.5,0,1.1,0.2,1.5,0.5v0.9c-0.4-0.4-1-0.7-1.5-0.6c-0.6,0-1,0.2-1,0.6s0.3,0.6,0.8,0.7l0.8,0.2
	c0.7,0.1,1.2,0.7,1.2,1.4c0,1-0.9,1.5-1.9,1.5c-0.6,0-1.2-0.2-1.7-0.5L96.9,65.3L96.9,65.3z M102.3,64.2c-0.1,0.9,0.6,1.7,1.5,1.8
	c0.1,0,0.2,0,0.3,0c0.5,0,1-0.2,1.4-0.5v0.8c-0.5,0.3-1,0.5-1.6,0.5c-1.3,0.1-2.5-1-2.5-2.3c0-0.1,0-0.2,0-0.3
	c-0.2-1.3,0.8-2.6,2.1-2.7c0.1,0,0.1,0,0.2,0c1.4,0,2.2,1,2.2,2.6v0.3L102.3,64.2L102.3,64.2z M102.3,63.5h2.7
	c0.1-0.7-0.4-1.4-1.2-1.4c0,0-0.1,0-0.1,0C103,62.1,102.4,62.7,102.3,63.5L102.3,63.5z M111.9,61.3c0.5,0,1,0.1,1.4,0.4v0.9
	c-0.4-0.4-0.9-0.6-1.4-0.6c-1.1,0.1-1.8,1.1-1.7,2.2c0.1,0.9,0.8,1.6,1.7,1.7c0.5,0,1-0.2,1.4-0.6v0.9c-0.4,0.3-0.9,0.4-1.4,0.4
	c-1.4,0-2.5-1.1-2.5-2.4c0-0.1,0-0.2,0-0.3c-0.1-1.3,0.9-2.5,2.3-2.6C111.8,61.3,111.8,61.3,111.9,61.3L111.9,61.3z M116.5,66.8
	c-1.5,0.2-2.9-0.9-3.1-2.4s0.9-2.9,2.4-3.1c1.5-0.2,2.9,0.9,3.1,2.4c0,0.1,0,0.2,0,0.3C118.8,65.7,117.9,66.8,116.5,66.8z
	 M116.5,62.1c-1,0-1.5,0.8-1.5,1.9s0.6,1.9,1.5,1.9c1,0,1.5-0.8,1.5-1.9C118,62.9,117.4,62.1,116.5,62.1z M125.4,61.3
	c1,0,1.6,0.7,1.6,1.9v3.5h-0.9v-3.3c0-0.7-0.3-1.2-1-1.2c-0.6,0-1,0.4-1.1,1v3.6h-0.9v-3.3c0-0.7-0.3-1.2-1-1.2c-0.6,0-1,0.4-1.1,1
	v3.6h-1v-5.2h0.9v0.6c0.3-0.5,0.9-0.7,1.4-0.7c0.6,0,1.1,0.3,1.4,0.8C124.1,61.7,124.7,61.3,125.4,61.3L125.4,61.3z M129.3,68.6
	h-0.9v-7.2h0.9V62c0.3-0.5,0.9-0.7,1.4-0.7c1.5,0,2.3,1.3,2.3,2.7c0,1.4-0.8,2.7-2.3,2.7c-0.6,0-1.1-0.3-1.4-0.7V68.6z M129.3,65.1
	c0.2,0.5,0.8,0.9,1.4,0.9c1,0,1.6-0.8,1.6-1.9s-0.6-1.9-1.6-1.9c-0.6,0-1.1,0.4-1.4,0.9V65.1z M137.3,63.2c0-0.6-0.5-1.1-1.1-1.1
	c0,0-0.1,0-0.1,0c-0.5,0-1,0.2-1.4,0.5v-0.8c0.5-0.3,1-0.4,1.6-0.4c0.9-0.1,1.8,0.5,1.9,1.4c0,0.1,0,0.2,0,0.3v3.5h-0.9v-0.4
	c-0.4,0.3-0.9,0.5-1.4,0.5c-1,0.1-1.8-0.6-1.9-1.6c0,0,0-0.1,0-0.1c0-1,0.9-1.6,2-1.6c0.5,0,0.9,0.1,1.3,0.4L137.3,63.2z
	 M137.3,64.9c-0.2-0.4-0.7-0.7-1.2-0.6c-0.6,0-1.2,0.2-1.2,0.9c0,0.6,0.6,1,1.2,1c0.5,0,1-0.2,1.2-0.6V64.9z M139.6,61.5h0.9v0.6
	c0.4-0.5,0.9-0.8,1.5-0.8c1-0.1,1.8,0.7,1.9,1.6c0,0.1,0,0.2,0,0.3v3.4H143v-3.3c0.1-0.6-0.4-1.1-0.9-1.2c-0.1,0-0.1,0-0.2,0
	c-0.6,0-1.1,0.4-1.3,1v3.5h-0.9L139.6,61.5L139.6,61.5z M145.8,68.6l0.8-1.9l-2-5.2h1l1.5,4.1l1.5-4.1h0.9l-2.8,7.2
	C146.7,68.6,145.8,68.6,145.8,68.6L145.8,68.6z"/>
<path id="XMLID_1319_" class="st0" d="M111.8,31L111.8,31c0,5.5-4.4,9.9-9.8,10c-5.4,0-9.8-4.5-9.7-9.9c0,0,0,0,0-0.1l0,0v-8.5
	c2.8,0.7,4.7,3.3,4.7,6.1V31c-0.2,2.8,1.9,5.2,4.7,5.5c2.8,0.2,5.2-1.9,5.5-4.7c0-0.3,0-0.5,0-0.8v-4.9l0,0v0.1
	c0.2-4.1,3.7-5.5,4.6-5.9h0.1v5.8L111.8,31z M86.6,21.1c1.2,0,2.5,0.2,3.6,0.6V27c-1-0.9-2.3-1.4-3.6-1.4c-3,0-5.5,2.4-5.6,5.4v9.9
	h-4.7v-18c1.1,0.1,2.2,0.4,3.1,1C81.5,22.1,84,21.1,86.6,21.1 M64.3,36.5c-3.1,0-5.6-2.4-5.6-5.5c0-3.1,2.6-5.5,5.6-5.5
	c3.1,0,5.6,2.4,5.6,5.5C69.8,34.1,67.3,36.6,64.3,36.5 M64.3,21.1C58.7,21,54.1,25.4,54,31c0.1,5.6,4.7,10,10.2,9.9
	c2.2,0,4.4-0.7,6.2-2c1,1.7,4,2,4,2V31C74.4,25.4,69.8,21,64.3,21.1 M145.7,36.5c-3,0.1-5.5-2.3-5.6-5.3c-0.1-3,2.3-5.5,5.3-5.6
	c0.1,0,0.2,0,0.3,0c3.1,0,5.6,2.4,5.6,5.5C151.3,34.1,148.8,36.5,145.7,36.5 M145.7,21.1c-5.6-0.1-10.1,4.3-10.2,9.9
	c0.1,5.6,4.7,10,10.2,9.9c2.2,0,4.4-0.7,6.2-2c1,1.7,4,2,4,2V31C155.8,25.4,151.3,21,145.7,21.1 M124.1,36.5c-3,0.1-5.5-2.3-5.6-5.3
	c-0.1-3,2.3-5.5,5.3-5.6c0.1,0,0.2,0,0.3,0c3-0.1,5.5,2.3,5.6,5.3s-2.3,5.5-5.3,5.6C124.3,36.5,124.2,36.5,124.1,36.5 M124.1,21.1
	c-2,0-3.9,0.6-5.6,1.6v-1.5c-0.2-4.1-3.6-5.5-4.5-5.9h-0.1V41c0,0,3.1-0.3,4.2-2c1.8,1.3,3.9,1.9,6,1.9c5.6,0.1,10.1-4.3,10.2-9.9
	C134.2,25.5,129.7,21,124.1,21.1C124.1,21.1,124.1,21.1,124.1,21.1"/>
</svg>
