<?xml version="1.0" encoding="utf-8"?>
<!-- Generator: Adobe Illustrator 25.3.1, SVG Export Plug-In . SVG Version: 6.00 Build 0)  -->
<svg version="1.1" id="Component_2_1" xmlns="http://www.w3.org/2000/svg" xmlns:xlink="http://www.w3.org/1999/xlink" x="0px"
	 y="0px" viewBox="0 0 210 84" style="enable-background:new 0 0 210 84;" xml:space="preserve">
<style type="text/css">
	.st0{fill:#000;}
</style>
<path id="Path_49" class="st0" d="M175.4,50.8h-5.7c-2.5,0-4.5-2-4.5-4.4c0,0,0,0,0,0l0,0v-0.7c0-1.9,0.5-2.9,2.1-3.7
	c-1.3-0.6-2-2-1.8-3.4v-0.9c0-2.4,2-4.4,4.4-4.4h5.2c2.4-0.1,4.4,1.8,4.5,4.1c0,0,0,0.1,0,0.1v1c0.2,1.4-0.6,2.8-1.8,3.4
	c1.4,0.6,2.3,2.1,2.1,3.7v0.7c0.1,2.4-1.7,4.4-4.1,4.5C175.6,50.8,175.5,50.8,175.4,50.8L175.4,50.8z M176.9,45.6
	c0-1.2-1-2.3-2.3-2.3h-4.2c-1.2,0-2.2,0.9-2.3,2.2c0,0,0,0,0,0v0.3c0,1.2,1,2.3,2.3,2.3h4.2c1.2,0,2.3-1,2.3-2.3l0,0V45.6z
	 M176.5,38.2c0-1.2-1-2.2-2.2-2.2h-3.6c-1.2,0-2.2,0.9-2.2,2.1c0,0,0,0.1,0,0.1l0,0v0.1c0,1.2,0.9,2.2,2.2,2.3c0,0,0,0,0,0h3.6
	c1.2,0,2.3-1,2.3-2.3l0,0L176.5,38.2L176.5,38.2z"/>
<path id="Path_50" class="st0" d="M162.7,50.5h-7.7c-2.5,0-4.5-2.1-4.5-4.6c0,0,0-0.1,0-0.1v-8.1c0.1-2.5,2.1-4.6,4.7-4.5h7.1
	c0.6-0.1,1.2,0.4,1.2,1v0.5c0,0.6-0.5,1.1-1.1,1.2h-6.2c-1.3-0.2-2.5,0.8-2.7,2.1c0,0.2,0,0.4,0,0.6v6.6c0,1.9,1.2,2.6,2.7,2.6h6.5
	c0.6-0.1,1.2,0.4,1.2,1v0.5c0,0.6-0.5,1.2-1.1,1.2C162.8,50.5,162.8,50.5,162.7,50.5C162.7,50.5,162.7,50.5,162.7,50.5
	C162.7,50.5,162.7,50.5,162.7,50.5z"/>
<path id="Path_51" class="st0" d="M146.8,33.2h-0.6c-0.7,0-1.2,0.6-1.2,1.2v14.8c0,0.7,0.5,1.2,1.2,1.2h0.7c0.7,0,1.2-0.6,1.2-1.2
	V34.5C148.1,33.8,147.5,33.3,146.8,33.2C146.8,33.2,146.8,33.2,146.8,33.2z"/>
<path id="Path_52" class="st0" d="M76.9,36h-4.6v13.3c0,0.7-0.5,1.2-1.2,1.2c0,0,0,0,0,0h-0.6c-0.7,0-1.2-0.5-1.2-1.2V36h-4.5
	c-0.6,0.1-1.2-0.4-1.2-1c0,0,0-0.1,0-0.1v-0.5c0-0.6,0.5-1.2,1.1-1.2c0,0,0,0,0,0h12.2c0.6,0,1.2,0.4,1.2,1.1c0,0,0,0,0,0v0.5
	C78.1,35.5,77.6,36,76.9,36C76.9,36,76.9,36,76.9,36z"/>
<path id="Path_53" class="st0" d="M142.2,36h-4.6v13.3c0,0.7-0.6,1.2-1.2,1.2h-0.6c-0.7,0-1.2-0.5-1.2-1.2V36H130
	c-0.6,0.1-1.2-0.4-1.2-1c0,0,0-0.1,0-0.1v-0.5c0-0.6,0.5-1.2,1.1-1.2c0,0,0,0,0,0h12.2c0.6-0.1,1.2,0.4,1.2,1c0,0,0,0.1,0,0.1v0.5
	C143.3,35.5,142.8,36,142.2,36C142.2,36,142.2,36,142.2,36L142.2,36z"/>
<path id="Path_54" class="st0" d="M51.8,50.5h5.4c2.5,0,4.6-2,4.7-4.5V34.5c0-0.7-0.5-1.2-1.2-1.2H60c-0.7,0-1.2,0.6-1.2,1.2v10.7
	c0,1.5-1.2,2.6-3.1,2.6h-2.8c-1.3,0.2-2.5-0.8-2.7-2.1c0-0.2,0-0.4,0-0.6V34.5c0-0.7-0.5-1.2-1.2-1.2h-0.6c-0.7,0-1.2,0.5-1.2,1.2
	V46C47.2,48.5,49.3,50.5,51.8,50.5z"/>
<path id="Path_55" class="st0" d="M93.6,50.5H93c-0.7,0-1.2-0.5-1.2-1.2v-6.2h-8.6v6.1c0,0.7-0.6,1.2-1.2,1.2h-0.6
	c-0.6,0-1.2-0.5-1.2-1.1V34.6c-0.1-0.6,0.4-1.2,1-1.3c0,0,0,0,0.1,0h0.7c0.7-0.1,1.2,0.4,1.3,1.1c0,0,0,0.1,0,0.1v6h8.7v-6
	c0-0.7,0.5-1.2,1.2-1.2h0.7c0.7,0,1.2,0.6,1.2,1.3c0,0,0,0,0,0.1v14.9C94.8,50.1,94.2,50.5,93.6,50.5z"/>
<path id="Path_56" class="st0" d="M40.3,33.2h-5.4c-2.5,0-4.6,2-4.7,4.5v11.5c0,0.7,0.5,1.2,1.2,1.2h0.7c0.7,0,1.2-0.6,1.2-1.2v-4
	H42v4c0,0.7,0.6,1.2,1.2,1.2h0.5c0.7,0,1.2-0.5,1.2-1.2V37.8C44.9,35.3,42.8,33.3,40.3,33.2z M33.2,42.6v-3.9
	c-0.2-1.3,0.8-2.5,2.1-2.6c0.2,0,0.4,0,0.6,0h2.8c2,0,3.1,1.2,3.1,2.6v3.9L33.2,42.6z"/>
<path id="Path_57" class="st0" d="M109.7,47.8h-6.9c-1.5,0-2.7-0.6-2.7-2.6v-2.1h8.3c0.6,0.1,1.2-0.4,1.2-1v-0.5
	c0-0.6-0.5-1.1-1.1-1.2h-8.5v-1.8c-0.2-1.3,0.8-2.5,2.1-2.6c0.2,0,0.4,0,0.6,0h6.5c0.6,0.1,1.2-0.4,1.2-1v-0.6
	c0-0.6-0.5-1.1-1.1-1.2h-7.7c-2.5,0-4.6,2-4.7,4.5v8.1c0,2.5,1.9,4.6,4.5,4.7h8.2c0.6,0.1,1.2-0.4,1.2-1V49
	C110.9,48.4,110.4,47.8,109.7,47.8L109.7,47.8z"/>
<path id="Path_58" class="st0" d="M123,33.2h-5.4c-2.5,0-4.6,2-4.7,4.5v11.5c0,0.7,0.5,1.2,1.2,1.2h0.7c0.7,0,1.2-0.6,1.2-1.2V38.6
	c0-1.5,1.2-2.6,3.1-2.6h2.8c1.3-0.2,2.5,0.8,2.7,2.1c0,0.2,0,0.4,0,0.6v10.7c0,0.7,0.6,1.2,1.2,1.2h0.6c0.7,0,1.2-0.5,1.2-1.2V37.8
	C127.6,35.3,125.5,33.3,123,33.2z"/>
</svg>
