<?xml version="1.0" encoding="utf-8"?>
<!-- Generator: Adobe Illustrator 25.3.1, SVG Export Plug-In . SVG Version: 6.00 Build 0)  -->
<svg version="1.1" id="Layer_1" xmlns="http://www.w3.org/2000/svg" xmlns:xlink="http://www.w3.org/1999/xlink" x="0px" y="0px"
	 viewBox="0 0 210 84" style="enable-background:new 0 0 210 84;" xml:space="preserve">
<style type="text/css">
	.st0{fill:#000;}
</style>
<path id="Path_245" class="st0" d="M92.8,39c-3.3-0.1-6,2.4-6.1,5.7c0,0.2,0,0.4,0,0.5c0,3.7,2.8,6.2,6.6,6.2c1.1,0,2.1-0.2,3.1-0.6
	l1.7-2.8l-0.2-0.1c-1.3,0.7-2.8,1.1-4.3,1.1c-2,0-3.8-1-4-2.8h9v-0.8C98.6,41.3,96.1,39,92.8,39 M89.6,44c0.1-1.6,1.4-2.9,3.1-2.8
	c0,0,0,0,0,0c1.5-0.2,2.8,0.9,3,2.4c0,0.1,0,0.3,0,0.4L89.6,44z M154,39.1c-3.3-0.1-6,2.4-6.1,5.7c0,0.2,0,0.4,0,0.5
	c0,3.7,2.8,6.2,6.6,6.2c1.1,0,2.1-0.2,3.1-0.6l1.7-2.8l-0.2-0.1c-1.3,0.7-2.8,1.1-4.3,1.1c-2,0-3.8-1-4-2.8h9
	C160.1,41.6,157.7,39,154,39.1 M150.8,44.1c0.1-1.6,1.4-2.9,3.1-2.8c0,0,0,0,0,0c1.5-0.2,2.8,0.9,3,2.4c0,0.1,0,0.3,0,0.4H150.8z
	 M112.8,39c-3.3-0.1-6,2.4-6.1,5.7c0,0.2,0,0.4,0,0.5c0,3.7,2.8,6.2,6.6,6.2c1.1,0,2.1-0.2,3.1-0.6l1.7-2.8l-0.2-0.1
	c-1.3,0.7-2.8,1.1-4.3,1.1c-2,0-3.8-1-4-2.8h9C119,41.6,116.5,39,112.8,39 M109.6,44.1c0.1-1.6,1.4-2.9,3.1-2.8c0,0,0,0,0,0
	c1.5-0.2,2.8,0.9,3,2.4c0,0.1,0,0.3,0,0.4H109.6z M52,41.9L52,41.9c1.8-0.4,3-2,3-3.9c0-3.2-2.7-4.4-5.3-4.4h-8.9v0.2l0.9,0.8
	c1.1,0.9,1.2,1.1,1.2,1.8V51h6.3c3.3,0,6.6-1.2,6.6-4.9C55.7,43.9,54.1,42.1,52,41.9 M46,36.4h2.6c1.8,0,2.3,0.2,2.8,0.8
	c0.4,0.4,0.6,0.9,0.6,1.5c0,0.6-0.2,1.1-0.6,1.4c-0.7,0.6-1.6,0.9-2.5,0.8H46V36.4z M48.9,48.4H46v-5h2.9c2.5,0,3.7,0.6,3.7,2.4
	C52.6,48.2,50.4,48.4,48.9,48.4 M61.6,35.3c0.1,1-0.7,1.9-1.8,2c-1,0.1-1.9-0.7-2-1.8c0-1,0.7-1.9,1.8-2h0.1c1-0.1,1.8,0.6,1.9,1.6
	C61.6,35.2,61.6,35.2,61.6,35.3L61.6,35.3 M56.6,39.3h4.5v11.8h-2.9v-9.3l0,0c0-1-0.1-1.1-1.1-1.9l-0.4-0.4L56.6,39.3z M80.1,33.2
	l0.9,0.6c0.8,0.6,0.9,0.8,0.9,1.6v5.4h-0.1c-1-1.2-2.5-1.9-4-1.8c-3.4,0-5.7,2.7-5.7,6.2c0,3.5,2.2,6.2,5.8,6.2
	c1.6,0.1,3.2-0.7,4.1-2.1h0.1l0.3,1.8H85V33h-4.8L80.1,33.2z M78.6,48.7c-2,0-3.6-1.6-3.6-3.5s1.6-3.6,3.5-3.6
	c1.9,0,3.5,1.5,3.6,3.5v0.1c0,1.9-1.4,3.4-3.3,3.5C78.7,48.7,78.7,48.8,78.6,48.7 M141.2,33.2l0.4,0.2c1.4,0.9,1.6,1.1,1.6,2.7v4.6
	h-0.1c-1-1.2-2.5-1.9-4-1.8c-3.4,0-5.7,2.7-5.7,6.2c0,3.5,2.2,6.2,5.8,6.2c1.6,0.1,3.2-0.7,4.1-2.1h0.1l0.3,1.8h2.5V32.9h-4.9
	L141.2,33.2z M139.8,48.7c-2,0.1-3.6-1.5-3.6-3.4c-0.1-2,1.5-3.6,3.4-3.6c2-0.1,3.6,1.5,3.6,3.4v0.1c0,1.9-1.4,3.4-3.3,3.5
	C139.9,48.8,139.9,48.8,139.8,48.7 M169.2,39.2V42c-0.5-0.1-1-0.2-1.4-0.2c-1.6-0.1-3.1,1.1-3.2,2.8v6.6h-2.9v-8.7
	c0-1.5-0.1-1.7-1.3-2.4l-0.8-0.5v-0.1h4.9v1.9h0.1c0.6-1.4,2-2.2,3.5-2.2C168.5,39.1,168.9,39.1,169.2,39.2 M103.8,39.3h2.8v2.5
	h-2.8v9.3h-2.9v-8.3c0-1-0.2-1.2-1.4-2.1L98,39.4v-0.2h2.9v-2.1c0-3.2,2.1-5.3,6.6-4.3l0.7,2.5l-0.1,0.1c-2.4-0.9-4.2-0.3-4.2,1.7
	L103.8,39.3z M131.7,43.7v7.4h-2.9v-6.6c0-1.3-0.3-2.9-2.4-2.9c-1.9,0-2.7,1.4-2.7,3v6.4h-2.9v-8.8c0-1.5-0.1-1.7-1.3-2.4l-0.7-0.5
	v-0.1h4.8v1.8h0.1c0.8-1.3,2.2-2,3.8-2.1C130.2,39,131.7,40.9,131.7,43.7 M71.3,48.7l0.1,0.1l-1.4,2.3c-2.4,0.6-5.1-0.1-5.1-3.9
	v-4.8c0-0.8-0.1-0.8-1.8-2.1l-1.1-0.9v-0.1h2.9l0.9-3.4h1.9v3.4h3.1v2.5h-3.1v5.3C67.8,49.3,69.3,49.3,71.3,48.7"/>
</svg>
