<?xml version="1.0" encoding="utf-8"?>
<!-- Generator: Adobe Illustrator 28.0.0, SVG Export Plug-In . SVG Version: 6.00 Build 0)  -->
<svg version="1.1" id="Layer_1" xmlns="http://www.w3.org/2000/svg" xmlns:xlink="http://www.w3.org/1999/xlink" x="0px" y="0px"
	 viewBox="0 0 255 180" style="enable-background:new 0 0 255 180;" xml:space="preserve">
<path d="M60.6,97.1c-2.5,0-4-1.2-4-4v-17h3.7v16.4c0,0.9,0.2,1.5,1.5,1.5h0.6v3C61.4,97.1,61.3,97.1,60.6,97.1"/>
<path d="M72.7,85.6c-0.5-0.5-1.3-1-2.3-1c-1,0-1.8,0.5-2.3,1c-0.9,1-1,2.4-1,3.8s0.2,2.8,1,3.8c0.5,0.5,1.3,1,2.3,1
	c1,0,1.8-0.4,2.3-1c0.9-1,1-2.3,1-3.8C73.8,88,73.6,86.6,72.7,85.6 M75.7,95c-1,1.3-3,2.3-5.2,2.3c-2.2,0-4.2-1-5.2-2.3
	c-1.1-1.4-1.7-3-1.7-5.5s0.6-4.1,1.7-5.5c1-1.3,3-2.3,5.2-2.3s4.2,1,5.2,2.3c1.1,1.4,1.7,3,1.7,5.5S76.9,93.5,75.7,95"/>
<path d="M88.6,85.6c-0.5-0.5-1.3-1-2.3-1s-1.8,0.5-2.3,1c-0.9,1-1,2.4-1,3.8s0.2,2.8,1,3.8c0.5,0.5,1.3,1,2.3,1s1.8-0.4,2.3-1
	c0.9-1,1-2.3,1-3.8C89.6,88,89.4,86.6,88.6,85.6 M91.6,95c-1,1.3-3,2.3-5.2,2.3c-2.2,0-4.2-1-5.2-2.3c-1.1-1.4-1.7-3-1.7-5.5
	s0.6-4.1,1.7-5.5c1-1.3,3-2.3,5.2-2.3c2.2,0,4.2,1,5.2,2.3c1.1,1.4,1.7,3,1.7,5.5S92.7,93.5,91.6,95"/>
<path d="M113.3,96.9v-9.3c0-1.9-0.5-2.9-2.3-2.9c-2.1,0-2.9,2.1-2.9,4v8.2h-3.6v-9.3c0-1.9-0.5-2.9-2.3-2.9c-2.1,0-3,2.1-3,4v8.2
	h-3.6V81.9h3l0.3,2c0.8-1.4,2.3-2.3,4.3-2.3c2.1,0,3.5,1,4.3,2.5c0.9-1.5,2.5-2.5,4.5-2.5c3.2,0,4.9,2.1,4.9,5.2V97L113.3,96.9
	L113.3,96.9L113.3,96.9z"/>
<path d="M129.6,85.3c-0.5-0.5-1.3-0.9-2.3-0.9c-1,0-2,0.5-2.5,1.1c-0.5,0.7-0.7,1.3-0.8,2.3h6.5C130.5,86.8,130.2,85.9,129.6,85.3
	 M134.1,90.5h-10c-0.1,1.1,0.4,2.3,1,2.9c0.5,0.5,1.3,1,2.2,1c1,0,1.7-0.2,2.2-0.7c0.3-0.3,0.6-0.7,0.7-1.3h3.5
	c-0.1,0.9-0.7,2.1-1.3,2.8c-1.3,1.5-3.1,2.1-5,2.1c-2.1,0-3.5-0.7-4.7-1.9c-1.5-1.5-2.3-3.5-2.3-6s0.7-4.5,2.1-6
	c1.1-1.1,2.7-1.9,4.8-1.9c2.1,0,4.3,0.9,5.5,2.8c1,1.7,1.3,3.3,1.3,5.2C134.2,89.6,134.1,90.3,134.1,90.5"/>
<path d="M146,96.9v-9.2c0-1.7-0.6-2.8-2.5-2.8c-1.3,0-2.1,0.8-2.6,2c-0.5,1.2-0.5,2.7-0.5,4V97h-3.6V81.9h3l0.3,2
	c0.9-1.6,2.7-2.3,4.4-2.3c3.2,0,5,2.3,5,5.3v10L146,96.9L146,96.9L146,96.9L146,96.9z"/>
<path d="M161.5,85.3c-0.5-0.5-1.3-0.9-2.3-0.9c-1,0-2,0.5-2.5,1.1c-0.5,0.7-0.7,1.3-0.8,2.3h6.5C162.4,86.8,162.1,85.9,161.5,85.3
	 M166,90.5h-10c0,1.1,0.4,2.3,1,2.9c0.5,0.5,1.3,1,2.2,1c1,0,1.7-0.2,2.2-0.7c0.3-0.3,0.6-0.7,0.7-1.3h3.5c-0.1,0.9-0.7,2.1-1.3,2.8
	c-1.3,1.5-3.1,2.1-5,2.1c-2.1,0-3.5-0.7-4.7-1.9c-1.5-1.5-2.3-3.5-2.3-6s0.7-4.5,2.1-6c1.1-1.1,2.7-1.9,4.8-1.9
	c2.1,0,4.3,0.9,5.5,2.8c1,1.7,1.3,3.3,1.3,5.2C166.1,89.6,166,90.3,166,90.5"/>
<path d="M176.3,85.1c-2.5,0-3.9,1.8-3.9,4.3v7.5h-3.7v-15h3l0.3,2.3c0.7-1.7,2.5-2.5,4.3-2.5c0.4,0,0.7,0.1,1.1,0.1v3.5
	C177.1,85.2,176.6,85.1,176.3,85.1"/>
<path d="M184.8,84.3c-1.7,0-2.7,1.2-2.7,2.8c0,1.6,1,2.8,2.7,2.8c1.7,0,2.7-1.1,2.7-2.8C187.5,85.4,186.5,84.3,184.8,84.3
	 M185.5,97.1h-2.8c-0.8,0.3-1.3,0.9-1.3,1.9c0,2,2.3,2.1,3.8,2.1s4-0.1,4-2.1C189.1,97.1,186.8,97.1,185.5,97.1 M185.3,103.9
	c-1.8,0-3.7-0.1-5.3-1.3c-1.1-0.8-1.8-1.9-1.8-3.3c0-1.3,0.7-2.5,1.8-3c-1-0.5-1.5-1.6-1.5-2.6c0-1.3,0.6-2.3,1.8-3
	c-1-1-1.5-2.1-1.5-3.7c0-3.6,2.8-5.5,6.1-5.5c1.3,0,2.4,0.3,3.4,1c0.6-1.3,1.8-1.9,3-1.9c0.2,0,0.7,0,1,0.1v2.8h-0.3
	c-0.9,0-1.6,0.3-1.8,1c0.5,0.8,0.8,1.7,0.8,2.7c0,3.4-2.9,5.5-6.1,5.5c-0.9,0-1.7-0.1-2.4-0.4c-0.3,0.2-0.7,0.6-0.7,1
	c0,0.9,0.9,1.1,1.7,1.1h2.5c1.5,0,3.5,0,4.9,1c1.3,0.9,1.8,2.1,1.8,3.6C192.5,102.8,188.6,103.9,185.3,103.9"/>
<path d="M202.3,99.4c-0.7,2-2,3.7-4.6,3.7c-1.2,0-2-0.2-2.8-0.4v-3c1,0.2,1.2,0.3,2,0.3c0.7,0,1.3-0.2,1.7-1.1l0.9-2.1l-5.9-15h4
	l4,10.9l3.7-10.9h3.7L202.3,99.4z"/>
<path d="M46.8,93.9c-1.8,0-3.1-1-3.3-3l0,0v-3h2.9c1.9,0,3.5,1,3.5,3C50,92.8,48.6,93.9,46.8,93.9 M46.8,79.4L46.8,79.4
	c1.6,0,2.7,1.2,2.7,2.7c0,1.9-1.1,2.7-3.1,2.7h-2.9v-5.3L46.8,79.4L46.8,79.4z M50.4,86.2c1.8-0.7,2.9-2.5,2.9-4.3
	c0-3.5-2.8-5.7-6.5-5.7H40v14.8l0,0c0.1,3.7,3,6.2,6.8,6.2c3.8,0,6.8-2.1,6.8-6.1C53.7,88.9,52.5,86.8,50.4,86.2"/>
<path d="M213.1,83.1c0,0-0.2-0.1-0.3-0.1h-0.1v0.7h0.3c0.1,0,0.3,0,0.3-0.1c0-0.1,0.1-0.1,0.1-0.3S213.2,83.1,213.1,83.1 M212,84.9
	v-2.3h1.1c0.2,0,0.3,0.1,0.5,0.1c0.2,0.1,0.3,0.3,0.3,0.5c0,0.2-0.1,0.3-0.1,0.4c-0.1,0.1-0.3,0.1-0.4,0.1c0.1,0,0.3,0.1,0.3,0.1
	c0.1,0.1,0.2,0.3,0.2,0.5v0.3h-0.6c0,0,0-0.2-0.1-0.3c0-0.1,0-0.3-0.1-0.3c0-0.1-0.1-0.1-0.2-0.2c-0.1,0-0.1-0.1-0.2-0.1h-0.3v0.8
	H212L212,84.9L212,84.9L212,84.9z M211.7,82.5c-0.3,0.3-0.5,0.7-0.5,1.2c0,0.5,0.2,1,0.5,1.3c0.3,0.3,0.7,0.5,1.2,0.5
	s0.9-0.2,1.2-0.5c0.3-0.3,0.5-0.7,0.5-1.3c0-0.5-0.2-0.9-0.5-1.2c-0.3-0.3-0.7-0.5-1.2-0.5C212.4,82,212,82.2,211.7,82.5
	 M214.3,85.2c-0.4,0.4-1,0.6-1.5,0.6c-0.6,0-1-0.2-1.5-0.6s-0.6-1-0.6-1.5c0-0.6,0.2-1.1,0.7-1.5c0.4-0.4,0.9-0.6,1.5-0.6
	s1,0.2,1.5,0.6c0.4,0.4,0.6,1,0.6,1.5C215,84.3,214.8,84.9,214.3,85.2"/>
</svg>
