<?xml version="1.0" encoding="utf-8"?>
<!-- Generator: Adobe Illustrator 25.3.1, SVG Export Plug-In . SVG Version: 6.00 Build 0)  -->
<svg version="1.1" id="Group_39" xmlns="http://www.w3.org/2000/svg" xmlns:xlink="http://www.w3.org/1999/xlink" x="0px" y="0px"
	 viewBox="0 0 210 84" style="enable-background:new 0 0 210 84;" xml:space="preserve">
<style type="text/css">
	.st0{fill:#000;}
	.st1{fill-rule:evenodd;clip-rule:evenodd;fill:#000;}
</style>
<g id="Group_35" transform="translate(5.313 22.606)">
	<g id="Group_34" transform="translate(0 0)">
		<path id="Path_257" class="st0" d="M44.5,24.9c0.3,0,0.7-0.1,1-0.2l0.1-0.1v-0.8h-0.1c-0.2,0.1-0.4,0.1-0.5,0.1
			c-0.3,0-0.5-0.2-0.5-0.4v-2.2h1.1c0.1,0,0.1-0.1,0.1-0.1v-0.9c-0.1,0-0.1-0.1-0.2-0.1h-1v-1.5c0,0,0-0.1-0.1-0.1c0,0,0,0,0,0h-1.1
			c0,0-0.1,0-0.1,0.1c0,0,0,0,0,0l0,0v1.4h-0.5v0.1l0,0v0.9h0.5v2.3C43.1,24.5,43.6,24.9,44.5,24.9z"/>
		<path id="Path_258" class="st0" d="M49.5,24.8h1.1c0,0,0.1,0,0.1-0.1c0,0,0,0,0,0l0,0v-3c0.1-0.8-0.4-1.6-1.3-1.7
			c-0.1,0-0.3,0-0.4,0c-0.5,0-1.1,0.2-1.3,0.7L47.6,21v-2.4c0,0,0-0.1-0.1-0.1c0,0,0,0,0,0h-1c0,0-0.1,0-0.1,0.1v6.2
			c0,0,0,0.1,0.1,0.1c0,0,0,0,0,0h1.1c0,0,0.1,0,0.1-0.1c0,0,0,0,0,0l0,0v-2.6c-0.1-0.5,0.3-1,0.8-1c0.5-0.1,1,0.3,1,0.8
			c0,0.1,0,0.2,0,0.2v2.5C49.5,24.8,49.5,24.8,49.5,24.8z"/>
		<path id="Path_259" class="st0" d="M56,22.6c0.1-1.2-0.7-2.4-2-2.5c-0.1,0-0.2,0-0.3,0c-1.3,0-2.3,1-2.3,2.3v0.1l0,0
			c0,1.3,1,2.3,2.2,2.4h0.2c0.7,0,1.4-0.3,1.8-0.8V24l-0.6-0.5h-0.1c-0.3,0.3-0.7,0.5-1.1,0.4c-0.6,0-1.1-0.4-1.3-1v-0.1h3.4
			C56,22.8,56,22.7,56,22.6z M52.6,22.2L52.6,22.2c0.1-0.6,0.5-1.1,1.1-1.1c0.6,0,1.1,0.5,1.1,1.1v0.1H52.6z"/>
	</g>
</g>
<path id="Path_260" class="st0" d="M161.2,54.3c-0.3,0.4-0.6,0.8-1,1.1c-0.3,0.3-0.7,0.5-1.1,0.6c-0.2,0.1-0.4,0.1-0.4,0
	c-0.1-0.1-0.1-0.1,0.1-0.3c0.6-0.8,0.9-1.7,0.8-2.7c0-1.5-1.1-2.4-1.7-3.2c-0.3-0.4-0.5-0.5-0.5-1.1c0.1-0.3,0.3-0.5,0.5-0.7
	c0.3-0.2,0.5-0.4,0.7-0.7c0.3-0.5,0.2-1.1-0.2-1.4c-0.7-0.3-1.4-0.1-1.8,0.6c0,0,0,0,0,0.1c-0.1,0.1-0.1,0.2-0.1,0.3
	c-0.1,0.3-0.3,0.6-0.5,0.8c-1.3,2.2-2.9,4.2-4.7,6c-0.5,0.4-0.8,1-0.9,1.6c-0.7,0.7-1.7,1.2-2.7,1.3c-1.2,0-1.9-0.6-1.9-1.7l0.1-0.3
	c2.6-0.7,6.8-3.4,6.8-6c0-1-0.9-1.3-1.9-1.3c-3.3,0-7.1,3.3-8,6.3c-0.2,0.3-0.4,0.5-0.5,0.8c-0.7,1-1.7,1.8-2.8,2.4l4.3-9
	c0.1-0.2,0.1-0.3-0.1-0.3h-2.1c-0.1,0-0.2,0.1-0.3,0.2L141,48c0,0-0.1-0.7-1.3-0.7c-3.1,0-5.5,2.4-7,4.9c-0.4,0.8-0.7,1.7-1,2.7
	c-0.5,0.8-1.3,1.8-1.9,1.6c-0.3,0-0.6-0.4-0.5-0.7c0,0,0,0,0,0c0-1.3,2.5-4.5,2.7-5.9c0.3-1-0.2-2-1.2-2.3c-0.2-0.1-0.5-0.1-0.7-0.1
	c-1.2,0.1-2.4,0.5-3.3,1.2l0.4-0.9c0.1-0.2-0.1-0.2-0.2-0.2h-1.9c-0.3,0-0.4,0.1-0.5,0.2l-2.7,5.1c-0.5,0.8-1,1.5-1.7,2.2
	c-0.8,1-2,1.6-3.3,1.7c-1.2,0-1.9-0.6-1.9-1.7l0.1-0.3c2.6-0.7,6.8-3.4,6.8-6c0-1-0.9-1.3-1.9-1.3c-3.3,0-7.1,3.3-8,6.3
	c-0.3,0.5-0.7,1-1.2,1.4c-1.4,1.4-1.4,1.9-2.2,1.6c-0.5-0.2-0.5-0.7-0.5-1.4c-0.1-2,0.5-4,2-6.9c2.4-4.3,3.6-5.3,4.2-5.2
	c0.5,0,0.5,1.3-1.4,4c-1,1.5-2.2,2.9-3.6,4c-0.3,0.2-0.4,0.6-0.3,1c0.1,0.3,0.4,0.2,0.7,0c1.6-1.1,2-1.6,3.9-4c1.4-2,2.5-4,2.6-5.4
	c0.1-0.6-0.1-1.1-0.6-1.4c-1.7-0.5-4.1,0.5-7.7,6.6c-0.9,1.7-1.7,3.5-2.4,5.3c-0.4,0.7-0.9,1.3-1.4,1.9c-1.4,1.4-2.5,1.9-3.2,1.6
	c-0.5-0.2-0.5-0.7-0.5-1.4c0-2.2,0.5-4,2-6.9c2.4-4.3,3.6-5.3,4.2-5.2s0.5,1.3-1.4,4c-0.9,1.6-2.2,2.9-3.6,4c-0.3,0.2-0.5,0.6-0.4,1
	c0.1,0.3,0.4,0.4,0.8,0c1.5-1.1,2.9-2.5,3.9-4c1.5-2,2.5-4,2.6-5.4c0.1-0.6-0.1-1.1-0.6-1.4c-1.7-0.5-4,0.5-7.7,6.6
	c-1.1,1.9-2,4-2.7,6.1c-1,1.9-1.7,2.7-2.4,2.4c-0.4-0.2-0.4-1.2,0.2-2.4l3.1-6.1c0.1-0.2,0.1-0.3-0.1-0.3h-2.1
	c-0.1,0-0.2,0.1-0.3,0.2L95.8,48c0,0-0.2-0.7-1.4-0.7c-2.5-0.1-5.5,2.3-7,5.1c-0.5,0.9-0.9,1.8-1.2,2.7c-0.8,0.8-1.6,1.6-2.1,1.3
	c-0.4-0.2-0.4-1,0-1.6c1.1-1.5,2-3.2,2.7-4.9c0.3-1-0.1-2-1.1-2.4c-0.2-0.1-0.5-0.1-0.8-0.1c-1.3,0.1-2.6,0.5-3.7,1.1
	c0,0,2.3-4.4,2.5-4.7c0.2-0.3,0.4-0.5,0.6-0.7c0.8-0.6,0.8-1.6,0-1.9c-1.7-0.5-2.4,0.9-2.8,1.6c-0.4,0.7-8,14.8-8,14.8
	c-0.1,0.1-0.1,0.3,0.2,0.3h2.4c0.2,0,0.4-0.1,0.4-0.2l2.5-4.8c0.4-0.8,0.9-1.5,1.4-2.2c0.6-0.9,1.7-1.5,2.8-1.4
	c1.1,0.1,0.5,1.3-0.6,3.3c-0.6,1-1,1.6-1.5,2.5c-1.1,2,0.2,2.8,1.1,3c0.3,0.1,0.6,0.1,0.9,0.1c1.2,0,2.3-0.5,3.1-1.2
	c0.1,0.3,0.3,0.6,0.6,0.8c0.3,0.2,0.7,0.3,1.1,0.3c1.5-0.1,2.9-0.9,4-2c0,1.2,1,2.1,2.2,2.1c0.1,0,0.2,0,0.2,0
	c1.3-0.1,2.5-0.9,3.1-2.1c0,0.9,0.6,1.7,1.4,2c0.5,0.2,1,0.3,1.6,0.3c1.8-0.1,3.6-0.8,4.9-2.1c0.1,0.8,0.6,1.5,1.4,1.8
	c0.5,0.2,1,0.3,1.6,0.3c1.6,0,2.4-0.7,3.9-2c0.5,1.4,2.2,2,4,2c1.5,0,2.9-0.5,4-1.5l-0.6,0.8c-0.1,0.1-0.1,0.2,0.2,0.2h2.4
	c0.2,0.1,0.4-0.1,0.4-0.2c0,0,0,0,0,0l2.5-4.8c0.4-0.8,0.9-1.6,1.6-2.3c0.4-0.7,1.2-1.2,2-1.2c1.1,0.2,0.8,0.9-0.2,2.6l-1.4,2.4
	c-0.2,0.5-0.4,1.1-0.4,1.7c-0.1,1,0.7,1.9,1.7,2c0.3,0.1,0.7,0.1,1,0.1c1.1,0.1,2.1-0.4,2.7-1.3c0,0.4,0.2,0.8,0.6,1
	c0.3,0.2,0.6,0.3,1,0.2c1.3-0.1,2.5-0.6,3.5-1.5l-0.7,1.3c-1.2,0.5-5.5,2.2-6.8,4c-0.4,0.6-0.5,1.4-0.4,2.2c0.6,0.9,1.6,1.5,2.7,1.6
	c2.9,0,4-1.6,5.4-4.2l1.2-2.5c3-1.1,3.2-1.3,4.6-2.5c0.5,1.4,2.2,2,4,2c1.4,0,2.8-0.3,4-1c0.3,0.3,0.6,0.6,1,0.7
	c0.6,0.2,1.2,0.4,1.8,0.4c0.9,0,1.8-0.2,2.6-0.5c0.4,0.2,0.9,0.3,1.4,0.3c1.2,0,2.4-0.4,3.4-1.1c0.6-0.4,1.1-0.9,1.5-1.5
	C162.8,55,161.5,53.9,161.2,54.3z M150.8,48.5c0.4,0,0.5,0.2,0.5,0.4c0,1.7-3.4,3.7-5.1,4.4C146.6,52.2,149.2,48.5,150.8,48.5z
	 M119.9,48.5c0.4,0,0.5,0.2,0.5,0.4c0,1.7-3.4,3.7-5.1,4.4C115.8,52.2,118.3,48.5,119.9,48.5L119.9,48.5z M94.6,49.5l-2.4,4.6
	c-0.5,0.9-1.5,1.4-2.5,1.2c-0.4-0.1-1.4-1.1,0.3-3.9c1.3-2.1,2.9-3.1,4-3.1c0.3,0,0.6,0.3,0.7,0.6c0,0,0,0,0,0.1
	C94.8,49.2,94.8,49.4,94.6,49.5L94.6,49.5z M134.6,60.6c-0.8,1.4-1.6,2.8-2.2,2.9c-0.5,0.2-1.2-0.1-1.4-0.6c-0.1-0.3-0.1-0.7,0.1-1
	c0.7-1,1.7-1.6,4.1-2.7L134.6,60.6z M137.6,54.2c-0.5,0.9-1.5,1.4-2.5,1.2c-0.4-0.1-0.6-0.5-0.6-1c0.1-0.9,0.4-1.8,0.8-2.7
	c1.3-2.2,2.7-3.3,4-3.3c0.5,0,0.8,0.5,0.5,1.1L137.6,54.2z M156.6,54.2c-0.5,1.7-1.6,3-3.3,3c-0.5,0-0.9-0.2-1.3-0.5
	c0.9,0.1,1.8-0.3,2.2-1.1c0.4-0.6,0.2-1.3-0.3-1.7c0,0,0,0,0,0h-0.1c1-0.9,1.9-1.8,2.6-3c0.3,0.6,0.4,1.3,0.4,2
	C156.8,53.3,156.8,53.8,156.6,54.2L156.6,54.2z"/>
<g id="Group_36" transform="translate(120.907 37.575)">
	<path id="Path_261" class="st0" d="M42.6,18.5h1.6v0.3h-0.6v1.6h-0.4v-1.7h-0.6L42.6,18.5L42.6,18.5z"/>
	<path id="Path_262" class="st0" d="M44.5,18.5h0.5l0.5,1.6l0,0l0.5-1.6h0.5v1.9h-0.3v-1.5l0,0l-0.6,1.5h-0.3l-0.5-1.5l0,0v1.5h-0.3
		C44.5,20.4,44.5,18.5,44.5,18.5z"/>
</g>
<g id="Group_37" transform="translate(0 5.787)">
	<path id="Path_263" class="st0" d="M53.8,29.6c-0.1-0.1-0.2-0.1-0.3,0c-1,1-2.3,1.5-3.7,1.5l0,0c-1.2,0-2.3-0.5-3.1-1.3
		c-0.8-0.9-1.3-2-1.3-3.2v-0.3c-0.1-2.4,1.7-4.5,4.2-4.6c0.1,0,0.2,0,0.2,0c1.3,0,2.6,0.5,3.6,1.4c0.1,0.1,0.2,0.1,0.3,0l1.6-1.7
		c0.1-0.1,0.1-0.2,0-0.3c-1.4-1.3-3.4-2-5.3-1.9c-3.9-0.2-7.2,2.8-7.4,6.7c0,0.2,0,0.3,0,0.5v0.1c-0.1,3.9,3,7.1,6.9,7.2
		c0,0,0.1,0,0.1,0h0.4c2.1,0.1,4.1-0.7,5.5-2.2c0.1-0.1,0.1-0.2,0-0.3L53.8,29.6z"/>
	<path id="Path_264" class="st0" d="M63.4,22.6c-1.3,0-2.4,0.6-3.1,1.7l-0.4,0.5v-6c0-0.1-0.1-0.2-0.2-0.2h-2.4
		c-0.1,0-0.2,0.1-0.2,0.2v14.5c0,0.1,0.1,0.2,0.2,0.2h2.4c0.1,0,0.2-0.1,0.2-0.2v-5.7c0-1.6,0.8-2.4,2.2-2.4c1.3,0,2.1,0.8,2.1,2.4
		v5.7c0,0.1,0.1,0.2,0.2,0.2h2.4c0.1,0,0.2-0.1,0.2-0.2v-6.7C66.9,24,65.6,22.6,63.4,22.6z"/>
	<path id="Path_265" class="st0" d="M92.7,22.6c-1.4-0.1-2.7,0.6-3.5,1.7l-0.2,0.2l-0.1-0.2c-0.6-1.1-1.7-1.7-2.9-1.7
		c-1.3,0-2.4,0.6-3.1,1.7l-0.4,0.5v-1.7c0-0.1-0.1-0.2-0.2-0.2h-2.4c-0.1,0-0.2,0.1-0.2,0.2l0,0v10.1c0,0.1,0.1,0.2,0.2,0.2h2.4
		c0.1,0,0.2-0.1,0.2-0.2v-5.7c0-1.6,0.7-2.4,2.1-2.4c1.3,0,2,0.8,2,2.4v5.7c0,0.1,0.1,0.2,0.2,0.2h2.4c0.1,0,0.2-0.1,0.2-0.2v-5.7
		c0-1.6,0.7-2.4,2.1-2.4c1.3,0,2,0.8,2,2.4v5.7c0,0.1,0.1,0.2,0.2,0.2h2.4c0.1,0,0.2-0.1,0.2-0.2v-6.8C96.3,24,95,22.6,92.7,22.6z"
		/>
	<path id="Rectangle_38" class="st0" d="M111.1,22.8h2.2c0.2,0,0.3,0.1,0.3,0.3c0,0,0,0,0,0v10.1c0,0.2-0.1,0.3-0.3,0.3c0,0,0,0,0,0
		h-2.2c-0.2,0-0.3-0.1-0.3-0.3c0,0,0,0,0,0V23.1C110.8,22.9,111,22.8,111.1,22.8z"/>
	<path id="Path_266" class="st0" d="M134.5,22.6c-1.3,0-2.4,0.6-3.1,1.7l-0.4,0.5v-1.7c0-0.1-0.1-0.2-0.2-0.2h-2.4
		c-0.1,0-0.2,0.1-0.2,0.2v10.1c0,0.1,0.1,0.2,0.2,0.2h2.4c0.1,0,0.2-0.1,0.2-0.2v-5.7c0-1.6,0.8-2.4,2.2-2.4c1.3,0,2.1,0.8,2.1,2.4
		v5.7c0,0.1,0.1,0.2,0.2,0.2h2.4c0.1,0,0.2-0.1,0.2-0.2v-6.7C138.1,24,136.7,22.6,134.5,22.6z"/>
	<path id="Path_267" class="st0" d="M73.3,22.6c-1.3,0-2.7,0.2-3.9,0.7c-0.1,0-0.1,0.1-0.1,0.2l0.5,1.7c0.1,0.1,0.2,0.2,0.2,0.1
		c0.9-0.3,1.8-0.5,2.8-0.5c1.7,0,2.6,0.8,2.6,2.2v0.5l-0.2-0.1c-0.9-0.3-1.8-0.5-2.7-0.5c-1.6,0-4.3,0.5-4.3,3.3v0.1
		c0,2.2,1.8,3.1,3.7,3.1c1.2,0,2.4-0.4,3.2-1.3l0.4-0.4v1.3c0,0.1,0.1,0.2,0.2,0.2h2.2c0.1,0,0.2-0.1,0.2-0.2v-6
		c0.1-1.2-0.3-2.4-1.1-3.4C75.9,23,74.6,22.5,73.3,22.6z M75.4,29.7c0,1.3-1.1,2.1-2.7,2.1c-1.1,0-1.9-0.5-1.9-1.6v-0.1
		c0-1.1,0.9-1.7,2.4-1.7c0.7,0,1.4,0.1,2.1,0.4l0.1,0.1V29.7z"/>
	<path id="Path_268" class="st0" d="M104.5,22.6c-1.3-0.1-2.6,0.6-3.3,1.7l-0.4,0.5V23c0-0.1-0.1-0.2-0.2-0.2h-2.4
		c-0.1,0-0.2,0.1-0.2,0.2v14.4c0,0.1,0.1,0.2,0.2,0.2h2.4c0.1,0,0.2-0.1,0.2-0.2v-5.8l0.4,0.4c0.8,1,2,1.6,3.3,1.6
		c2.4,0,4.9-1.7,4.9-5.5v-0.1C109.3,24.5,106.8,22.6,104.5,22.6z M106.5,28.1c0.1,1.7-1.2,3.1-2.8,3.2c0,0-0.1,0-0.1,0
		c-1.7-0.1-3-1.5-3-3.2c0,0,0,0,0,0V28c-0.1-1.7,1.2-3.1,2.8-3.2c0,0,0.1,0,0.1,0C105.3,24.9,106.6,26.3,106.5,28.1
		C106.5,28,106.5,28,106.5,28.1z"/>
	<path id="Path_269" class="st0" d="M121,22.6c-3.1-0.1-5.7,2.3-5.8,5.4c0,0,0,0.1,0,0.1v0.1c0,3.1,2.6,5.5,5.6,5.5
		c0.1,0,0.2,0,0.2,0c3.1,0.1,5.7-2.3,5.8-5.4c0,0,0-0.1,0-0.1v-0.1c0-3.1-2.6-5.5-5.6-5.5C121.2,22.6,121.1,22.6,121,22.6z
		 M124.1,28.1c0.1,1.7-1.2,3.1-2.8,3.2H121c-1.7,0-3.1-1.4-3.1-3.1v-0.1c-0.1-1.7,1.2-3.1,2.8-3.2h0.2c1.7,0,3.1,1.4,3.1,3.1V28.1z"
		/>
	<path id="Path_270" class="st0" d="M112.2,18.5c-0.8,0-1.4,0.6-1.4,1.4c0,0,0,0,0,0c0,0.8,0.6,1.4,1.3,1.4c0,0,0.1,0,0.1,0
		c0.8,0,1.4-0.7,1.4-1.5C113.6,19.1,113,18.5,112.2,18.5L112.2,18.5z"/>
</g>
<path id="Path_271" class="st0" d="M72.4,42.8c-4.6,0.6-8.5,3.7-10,8.1c-1.7,5.2,1.9,7.2,4.6,7.4c2.3,0.2,4.6-0.7,6-2.5
	c0.7-0.7,1.1-1.6,1.4-2.6c0.1-0.6-0.3-1.2-0.9-1.3h-0.1c-0.5-0.1-1,0.1-1.3,0.5c-0.5,0.7,0.1,0.7-0.4,1.7c-1.2,1.4-2.4,2-3.6,1.9
	c-0.6,0-1.1-0.2-1.7-0.4c-1.9-0.7-2.7-3.3-0.1-7.2c1.9-2.8,5.1-4,7-3.8c1,0.2,1.7,0.7,1.3,1.9c-0.2,0.5-0.5,1-0.8,1.6
	c-0.1,0.1-0.1,0.2-0.1,0.2c0.1,0.1,0.3,0.2,0.5,0.2c0.9,0,1.7-0.6,2.1-1.4c0.2-0.3,0.4-0.7,0.4-1C77.3,43.9,75.4,42.4,72.4,42.8z"/>
<g id="Group_38" transform="translate(95.572 0)">
	<path id="Path_272" class="st1" d="M61,22.4c-0.4,1.2-0.9,2.5-1.6,3.6c-0.8,1.4-1.7,2.7-2.8,3.8c3.1,2.1,6.3,6.9,6.6,11.2
		c0,0.1-0.1,0.1-0.1,0c-0.2-0.4-0.2-0.5-0.6-1.3c-1.4-2.7-3.1-4.5-5.4-4.6c-2.8,0.1-5.3-1.7-6.1-4.3c-0.5-1.5-1.5-2.9-2.8-3.7
		C48,26.9,45.2,27,42.7,27c-0.1,0-0.1-0.1,0-0.1c0.5-0.1,1.1-0.2,1.9-0.4c1-0.2,2.1-0.5,3.1-0.8c0.4-0.9,1.3-1.5,2.3-1.5l0,0
		c1.4,0,2.2,1.3,2.7,2.2c0.1,0.2,0.2,0.4,0.3,0.5c3.7-5.6,6.6-7.1,9.6-8.2c0.2-0.1,0.4-0.1,0.5-0.2h0.1C62.3,19.7,61.6,21,61,22.4z"
		/>
	<path id="Path_273" class="st1" d="M63.2,27c-1.3,1.6-3,2.8-4.9,3.4c-0.2-0.2-0.5-0.4-0.7-0.5c1.1-1.1,2.1-2.3,2.8-3.7
		c0.5-0.9,1-1.9,1.3-2.9c0.9-0.5,1.9-0.9,2.8-1.2c0.8-0.3,1.6-0.5,2.4-0.7v0.1C65.6,23.2,64.5,25.5,63.2,27z"/>
</g>
</svg>
