<?xml version="1.0" encoding="utf-8"?>
<!-- Generator: Adobe Illustrator 25.3.1, SVG Export Plug-In . SVG Version: 6.00 Build 0)  -->
<svg version="1.1" id="Layer_1" xmlns="http://www.w3.org/2000/svg" xmlns:xlink="http://www.w3.org/1999/xlink" x="0px" y="0px"
	 viewBox="0 0 210 84" style="enable-background:new 0 0 210 84;" xml:space="preserve">
<style type="text/css">
	.st0{fill:#fff;}
</style>
<g id="Cisco_Logo" transform="translate(0 -0.074)">
	<path id="path10" class="st0" d="M104.3,50.5c-1.3-0.3-2.7-0.5-4-0.5c-3.8,0-6.1,2.1-6.1,5.1c0,2.7,1.9,4.1,4.2,4.8
		c0.3,0.1,0.6,0.2,0.9,0.3c1,0.3,1.8,0.8,1.8,1.6c0,0.9-0.9,1.5-3,1.5c-1.3,0-2.6-0.2-3.9-0.6v3.8c1.5,0.3,3,0.4,4.5,0.4
		c3.2,0,6.8-1.4,6.8-5.5c0-2-1.2-3.8-3.9-4.7l-1.1-0.4c-0.7-0.2-1.9-0.6-1.9-1.6c0-0.8,0.9-1.3,2.6-1.3c1.1,0,2.2,0.2,3.2,0.5
		L104.3,50.5z M139.2,58.4c0,2.4-1.9,4.3-4.3,4.2c-2.4,0-4.3-1.9-4.2-4.3c0-2.3,1.9-4.2,4.3-4.2c2.3,0,4.2,1.9,4.3,4.2
		C139.2,58.3,139.2,58.4,139.2,58.4 M135,49.9c-4.7,0.1-8.4,4-8.3,8.6c0.1,4.7,4,8.4,8.6,8.3c4.6-0.1,8.3-3.9,8.3-8.5
		c0-4.6-3.7-8.4-8.3-8.5C135.2,49.9,135.1,49.9,135,49.9 M88.7,66.6h-4.1V50.2h4.1"/>
	<path id="path12" class="st0" d="M78.9,50.5c-1.2-0.4-2.5-0.6-3.8-0.6c-4.6-0.2-8.5,3.4-8.7,8c0,0.2,0,0.3,0,0.5
		c0,5.3,4.1,8.5,8.7,8.5c1.3,0,2.5-0.2,3.8-0.6v-4.4c-1.1,0.6-2.3,0.9-3.5,0.9C73,62.9,71,61,70.9,58.6c-0.1-2.4,1.8-4.4,4.2-4.5
		c0.1,0,0.2,0,0.3,0c1.2,0,2.4,0.3,3.5,0.9"/>
	<path id="use14" class="st0" d="M122,50.5c-1.2-0.4-2.5-0.6-3.8-0.6c-4.6-0.2-8.5,3.4-8.7,8c0,0.2,0,0.3,0,0.5
		c0,5.3,4.1,8.5,8.7,8.5c1.3,0,2.5-0.2,3.8-0.6v-4.4c-1.1,0.6-2.3,0.9-3.5,0.9c-2.4,0.1-4.4-1.8-4.5-4.2c-0.1-2.4,1.8-4.4,4.2-4.5
		c0.1,0,0.2,0,0.3,0c1.2,0,2.4,0.3,3.5,0.9"/>
	<g id="g22" transform="translate(0 0.074)">
		<path id="path16" class="st0" d="M84.5,19.2c0-1.1-0.9-2-2-2c-1.1,0-2.1,0.9-2.1,2V41c0,1.1,0.9,2,2.1,2c1.1,0,2-0.9,2-2l0,0V19.2
			z M73.3,26.9c0-1.1-0.9-2.1-2-2.1c-1.1,0-2.1,0.9-2.1,2.1v9.9c0,1.1,0.9,2.1,2.1,2.1c1.1,0,2-0.9,2-2.1V26.9z M62,32.6
			c0-1.1-0.9-2-2.1-2c-1.1,0-2,0.9-2,2v4.3c0,1.1,0.9,2,2.1,2c1.1,0,2-0.9,2-2"/>
		<path id="use18" class="st0" d="M80.4,19.2c0-1.1,0.9-2.1,2.1-2.1s2.1,0.9,2.1,2.1V41c0,1.1-0.9,2-2.1,2s-2.1-0.9-2.1-2V19.2z
			 M91.7,26.9c0-1.1,0.9-2,2.1-2s2.1,0.9,2.1,2v9.9c0,1.1-0.9,2-2.1,2s-2.1-0.9-2.1-2V26.9z M103,32.6c0-1.1,0.9-2,2.1-2
			c1.1,0,2,0.9,2,2v4.3c0,1.1-0.9,2-2.1,2c-1.1,0-2-0.9-2-2"/>
	</g>
	<g id="use20" transform="translate(94.158 25.891) rotate(180)">
		<path id="path16-2" class="st0" d="M-31.3,6.6c0,1.1-0.9,2.1-2,2.1c-1.1,0-2.1-0.9-2.1-2.1v-21.7c0-1.1,0.9-2.1,2.1-2.1
			c1.1,0,2,0.9,2,2.1V6.6z M-42.6-1.1c0,1.1-0.9,2-2,2s-2-0.9-2-2v-9.9c0-1.1,0.9-2.1,2-2.1s2,0.9,2,2.1V-1.1z M-53.8-6.8
			c0,1.1-0.9,2-2.1,2c-1.1,0-2-0.9-2-2v-4.3c0-1.1,0.9-2,2.1-2c1.1,0,2,0.9,2,2"/>
		<path id="use18-2" class="st0" d="M-35.4,6.6c0,1.1,0.9,2,2,2s2.1-0.9,2.1-2v-21.7c0-1.1-0.9-2.1-2.1-2.1s-2,0.9-2,2.1l0,0V6.6z
			 M-24.1-1.1c0,1.1,0.9,2.1,2,2.1C-21,0.9-20,0-20-1.1v-9.9c0-1.1-0.9-2-2.1-2c-1.1,0-2,0.9-2,2V-1.1z M-12.9-6.8
			c0,1.1,0.9,2,2.1,2c1.1,0,2-0.9,2-2v-4.3c0-1.1-0.9-2-2.1-2c-1.1,0-2,0.9-2,2"/>
	</g>
</g>
</svg>
