<?xml version="1.0" encoding="utf-8"?>
<!-- Generator: Adobe Illustrator 25.3.1, SVG Export Plug-In . SVG Version: 6.00 Build 0)  -->
<svg version="1.1" id="Layer_1" xmlns="http://www.w3.org/2000/svg" xmlns:xlink="http://www.w3.org/1999/xlink" x="0px" y="0px"
	 viewBox="0 0 210 84" style="enable-background:new 0 0 210 84;" xml:space="preserve">
<style type="text/css">
	.st0{fill-rule:evenodd;clip-rule:evenodd;fill:#fff;}
</style>
<g id="Page-1" transform="translate(-1.3 -4)">
	<g id="Group" transform="translate(1.3 4)">
		<g id="Group_3348" transform="translate(0 0)">
			<g id="Logo-Type" transform="translate(40.148 7.695)">
				<path id="Fill-1" class="st0" d="M43.6,42c-4.9,0-7.3-3.5-7.3-7.4c0-3.9,2.5-7.4,7.3-7.4c1.5-0.1,3,0.3,4.3,1.1l-1.4,2.3
					c-0.9-0.6-1.9-0.9-2.9-0.8c-2.6,0-4,2.1-4,4.7c0,2.7,1.3,4.9,4,4.9c1.2,0,2.3-0.4,3.2-1.1l1.3,2.2C46.8,41.5,45.2,42,43.6,42"/>
				<path id="Fill-3" class="st0" d="M53.9,42c-3.6,0-5.2-2.8-5.2-5.5c0-2.7,1.6-5.5,5.2-5.5c3.6,0,5.3,2.7,5.3,5.5
					C59.2,39.1,57.6,42,53.9,42 M53.9,33.2c-1.5,0-2,1.3-2,3.2c0,1.9,0.6,3.3,2.2,3.3c1.6,0,2.1-1.3,2.1-3.2S55.4,33.2,53.9,33.2"/>
				<path id="Fill-5" class="st0" d="M63.8,31.3V38c0,1,0.3,1.5,1.4,1.5c0.8-0.1,1.6-0.6,2-1.3v-7h2.9v7.4c0,1,0.1,2.1,0.3,3.1h-2.9
					c-0.1-0.5-0.2-0.9-0.2-1.4c-0.8,1-2,1.7-3.3,1.6c-2.3,0-3.1-1.5-3.1-3.4v-7.4H63.8z"/>
				<path id="Fill-7" class="st0" d="M77.3,42c-3.3,0-5.4-2.2-5.4-5.5c-0.2-2.8,1.9-5.3,4.7-5.5c0.2,0,0.5,0,0.7,0
					c1.1,0,2.2,0.2,3.2,0.8l-0.9,2c-0.6-0.4-1.4-0.6-2.2-0.6c-1.6,0-2.5,1.3-2.5,3.2c0,1.9,0.8,3.3,2.6,3.3c0.8,0,1.5-0.2,2.2-0.6
					l0.9,2C79.6,41.8,78.4,42.1,77.3,42"/>
				<path id="Fill-9" class="st0" d="M88.4,41.8V35c0-1-0.3-1.5-1.3-1.5c-0.8,0.1-1.6,0.6-2.1,1.3v7h-2.9V26.3H85v6.3
					c0.8-1,2-1.5,3.2-1.5c2.3,0,3.1,1.5,3.1,3.4v7.3L88.4,41.8L88.4,41.8z"/>
				<path id="Fill-11" class="st0" d="M96.6,26.3v5.8c0.7-0.7,1.6-1.1,2.5-1.1c2.6,0,4.4,1.8,4.4,5.4c0.2,2.9-1.9,5.4-4.8,5.6
					c-0.2,0-0.5,0-0.7,0c-1.5,0.1-3-0.2-4.3-0.8V26.3H96.6z M96.6,39.5c0.4,0.1,0.9,0.2,1.4,0.2c1.5,0,2.4-1.1,2.4-3.3
					c0-1.9-0.6-3.1-2.1-3.1c-0.6,0-1.3,0.3-1.7,0.8L96.6,39.5L96.6,39.5z"/>
				<path id="Fill-13" class="st0" d="M110.8,41.8c-0.1-0.4-0.2-0.7-0.2-1.1c-0.7,0.9-1.8,1.4-2.9,1.4c-1.6,0.1-3-1-3.1-2.6
					c0-0.1,0-0.2,0-0.3c0-2.7,2.8-3.7,5.5-3.7h0.3v-0.6c0-0.9-0.3-1.4-1.6-1.4c-1,0-1.9,0.4-2.6,1l-1.2-1.8c1.2-1,2.7-1.6,4.2-1.5
					c2.9,0,4.2,1.1,4.2,3.9v3.7c0,1.1,0.1,2.1,0.3,3.2L110.8,41.8z M110.5,37.2h-0.3c-1.6,0-2.7,0.5-2.7,1.7c0,0.7,0.6,1.1,1.2,1.1
					c0.7,0,1.4-0.3,1.8-0.9L110.5,37.2z"/>
				<path id="Fill-15" class="st0" d="M118.6,42c-1.3,0-2.6-0.3-3.7-1l1-2.1c0.8,0.5,1.6,0.8,2.6,0.9c1.1,0,1.7-0.3,1.7-0.9
					c0-0.7-1.2-0.9-2.6-1.6c-1.4-0.7-2.3-1.5-2.3-3.1c0-2,1.5-3.2,3.9-3.2c1.2,0,2.3,0.3,3.3,0.8l-1,2c-0.7-0.4-1.4-0.7-2.2-0.7
					c-1,0-1.4,0.3-1.4,0.9c0,0.7,1,0.9,2.1,1.3c1.6,0.7,2.8,1.4,2.8,3.2C122.8,40.9,121.2,42,118.6,42"/>
				<path id="Fill-17" class="st0" d="M129.6,39.8c0.9,0,1.9-0.2,2.7-0.7l0.9,1.9c-1.2,0.7-2.5,1.1-3.9,1c-3.5,0-5.5-2.2-5.5-5.6
					c-0.2-2.8,1.9-5.3,4.8-5.4c0.1,0,0.3,0,0.4,0c3.3,0,4.8,2.3,4.5,6.2H127c-0.1,1.3,0.9,2.5,2.3,2.6
					C129.3,39.9,129.5,39.9,129.6,39.8L129.6,39.8z M130.7,35.2c0-1.2-0.5-2.1-1.7-2.1c-1.1,0-1.8,0.7-2,2.1H130.7z"/>
			</g>
			<path id="Logo-Icon" class="st0" d="M62.5,44.8c0,1-0.6,1.8-1.6,2c-3,0.4-6,0.6-8.9,0.5c-3,0-6-0.1-8.9-0.5c-1-0.1-1.7-1-1.6-2
				v-6.1c0-0.9,0.7-1.8,1.6-2c0.9-0.1,1.9-0.2,2.8-0.2c0.4,0,0.7,0.3,0.7,0.7c0,0,0,0,0,0.1v4.3c1.9,0,3.6-0.1,5.5-0.1
				c1.9,0,3.6,0.1,5.5,0.1v-4.3c0-0.4,0.2-0.7,0.6-0.7c0,0,0,0,0.1,0c0.9,0,1.9,0.1,2.8,0.2c0.9,0.2,1.6,1,1.6,2L62.5,44.8
				L62.5,44.8z M51.9,26.3c-8.7-0.1-15.8,6.9-15.8,15.6C36,50.6,43,57.7,51.7,57.7c8.7,0.1,15.8-6.9,15.8-15.6c0,0,0-0.1,0-0.1
				C67.6,33.3,60.6,26.3,51.9,26.3z"/>
		</g>
	</g>
</g>
</svg>
