<?xml version="1.0" encoding="utf-8"?>
<!-- Generator: Adobe Illustrator 28.0.0, SVG Export Plug-In . SVG Version: 6.00 Build 0)  -->
<svg version="1.1" id="Layer_1" xmlns="http://www.w3.org/2000/svg" xmlns:xlink="http://www.w3.org/1999/xlink" x="0px" y="0px"
	 viewBox="0 0 255 180" style="enable-background:new 0 0 255 180;" xml:space="preserve">
<g>
	<path d="M114.9,100.8c-1.7,1-3.7,1.5-6.1,1.5c-6.8,0-10.8-4.8-10.8-12.8c0-5.7,2.2-9.5,5.1-11.5c1.6-1.1,4.1-1.8,6.1-1.8
		c1.6,0,3.5,0.4,4.8,1.1c0.9,0.5,1.4,0.8,2.4,1.7l-3.2,4.3c-1.3-1.2-2.7-1.9-3.9-1.9c-2.9,0-4.2,2.5-4.2,8.3c0,3.3,0.4,5.2,1.2,6.3
		c0.7,0.9,1.8,1.4,2.9,1.4c1.5,0,2.9-0.6,4.5-2l0.4-0.3l3,3.9C116.2,99.9,115.7,100.2,114.9,100.8L114.9,100.8L114.9,100.8z"/>
	<path d="M136.5,98.9c-1.9,2.1-4.4,3.5-8.2,3.5c-6.7,0-11.1-5-11.1-12.9s4.5-13,11.1-13c3.5,0,6.3,1.2,8.4,3.7c2,2.3,2.9,5,2.9,9.1
		C139.6,93.5,138.6,96.4,136.5,98.9C136.5,98.9,136.5,98.9,136.5,98.9z M131.2,82.5c-0.6-0.8-1.6-1.3-2.8-1.3c-1.5,0-2.8,1-3.3,2.5
		c-0.4,1.3-0.7,3.1-0.7,5.5c0,2.9,0.3,5,0.8,6.3c0.6,1.4,2,2,3.3,2c2.8,0,4-2.5,4-8.4C132.5,85.9,132.1,83.7,131.2,82.5L131.2,82.5
		L131.2,82.5z"/>
	<path d="M157.9,102.5c-0.8-0.6-1.5-1.4-1.9-2.4c-1.6,1.5-3.9,2.4-6.6,2.4c-3.5,0-6.5-1.6-7.3-4c-0.4-1.1-0.5-2.4-0.5-4.9V77.5
		l6.4-1.2v16c0,2.2,0.2,3.4,0.5,4.1c0.3,0.7,1.3,1.2,2.3,1.2c1.6,0,3.5-1.2,4-2.4V77.7l6.2-1.3v18.9c0,1.6,0.5,3.3,1.5,4.5
		L157.9,102.5L157.9,102.5L157.9,102.5z"/>
	<path d="M183.3,99.5c-1.7,1.8-3.9,2.8-6.6,2.8c-1.9,0-3.8-0.5-5.2-1.3c0.1,0.6,0.1,1.3,0.1,2v7.8l-6.3,1.6V83.7
		c0-3.3-0.1-4.2-0.4-6.3l5.8-1c0.2,0.9,0.4,1.5,0.4,2.3c1.1-1.4,3.6-2.3,6.1-2.3c1.7,0,3.5,0.6,4.9,1.5c2.7,1.8,4.6,5,4.6,10.7
		C186.8,94,185.9,96.7,183.3,99.5L183.3,99.5z M179.1,83.8c-0.5-1.4-1.5-2.1-3.1-2.1c-1.6,0-3.2,0.7-4.3,1.9v12.1
		c0.9,0.7,2.3,1.4,3.6,1.4c3.2,0,4.5-2.2,4.5-7.9C179.7,86.9,179.5,85,179.1,83.8L179.1,83.8L179.1,83.8z"/>
	<path d="M206.5,103c-1.5-0.6-2.9-1.7-3.5-3c-0.5,0.5-1,1-1.5,1.3c-1.2,0.9-3,1.4-5,1.4c-5.5,0-8.5-2.8-8.5-7.8
		c0-5.8,4-8.5,11.9-8.5c0.5,0,0.9,0,1.4,0.1v-1c0-2.8-0.5-3.7-2.9-3.7c-2.1,0-4.5,1-7.2,2.8l-2.8-4.6c1.3-0.8,2.3-1.3,4-2
		c2.4-1,4.5-1.4,6.8-1.4c4.2,0,7,1.5,8,4.3c0.3,1,0.5,1.8,0.4,4.5l-0.1,8.3c-0.1,2.7,0.1,3.9,2.3,5.5L206.5,103L206.5,103L206.5,103
		z M201,90.9c-4.5,0-6.1,0.8-6.1,3.8c0,1.9,1.2,3.3,2.9,3.3c1.2,0,2.4-0.6,3.4-1.7l0.1-5.3H201z"/>
</g>
<path d="M94,92.3c-1.3-1.8-5.9-4.2-5.9-4.2c2-0.2,4.2-0.9,4.2-0.9c2-0.7,2.1-1.7,2.1-1.7c0.1-1.1-1.8-1.9-1.8-1.9
	c-2.1-1.1-6.4-1.7-6.4-1.7c1.8-1,2.9-1.9,2.9-1.9c1.8-1.6,1.3-2.4,1.3-2.4c-0.3-0.9-2.3-1.2-2.3-1.2c-1.8-0.2-4.8,0.3-4.8,0.3
	c1.2-1.5,1.6-2.8,1.6-2.8c0.3-1.1-0.1-1.6-0.1-1.6c-0.5-0.9-2.3-0.5-2.3-0.5c-2.6,0.6-4.4,1.8-4.4,1.8c0.3-1.2,0.3-2.9,0.3-2.9
	c-0.1-0.6-0.2-1.5-0.8-1.9c-0.7-0.5-1.8-0.1-2.4,0.3c-0.7,0.4-1.3,1-1.8,1.6c-0.1,0.1-0.6,0.6-0.6,0.7c-0.2-0.6-0.4-1.2-0.6-1.9
	c-0.4-0.9-1.3-2-2.3-2.1l0,0c-1,0.1-2,1.2-2.3,2.1c-0.2,0.6-0.5,1.2-0.6,1.9c0-0.1-0.5-0.6-0.6-0.7c-0.5-0.6-1.1-1.2-1.8-1.6
	c-0.7-0.4-1.7-0.9-2.4-0.3c-0.6,0.4-0.7,1.3-0.8,1.9c0,0-0.1,1.7,0.3,2.9c0,0-1.8-1.2-4.4-1.8c0,0-1.8-0.4-2.3,0.5
	c0,0-0.4,0.5-0.1,1.6c0,0,0.4,1.4,1.6,2.8c0,0-3-0.5-4.8-0.3c0,0-2,0.2-2.3,1.2c0,0-0.5,0.8,1.3,2.4c0,0,1.1,0.9,2.9,1.9
	c0,0-4.2,0.6-6.4,1.7c0,0-1.9,0.9-1.8,1.9c0,0,0.1,1,2.1,1.7c0,0,2.2,0.7,4.2,0.9c0,0-4.5,2.4-5.9,4.2c0,0-1.1,1.1-0.8,2
	c0,0,0.2,1.2,3.5,1c0,0,2.5-0.2,5.6-1.1h0c0,0-3,3.4-3.9,5.3c0,0-2,3.1-0.8,4.3c0,0,0.5,0.7,2.7,0.1c0,0,3-1,6.3-3.6
	c0,0-1.4,3.7-1.5,6.7c0,0-0.3,2.9,1.2,3.5c0,0,1.2,0.6,3.6-1.8c0,0,2.8-3.1,4.4-6.2c0.2,1.7,0.5,3.5,0.9,5.2
	c0.3,1.1,0.6,2.1,1.1,3.1c0.4,0.7,0.9,1.8,1.9,1.8l0,0c0.9,0,1.5-1.1,1.9-1.8c0.5-1,0.8-2,1.1-3.1c0.4-1.7,0.7-3.4,0.9-5.2
	c1.6,3.1,4.4,6.2,4.4,6.2c2.4,2.4,3.6,1.8,3.6,1.8c1.5-0.6,1.2-3.5,1.2-3.5c-0.1-2.9-1.5-6.7-1.5-6.7c3.2,2.6,6.3,3.6,6.3,3.6
	c2.1,0.7,2.7-0.1,2.7-0.1c1.2-1.2-0.8-4.3-0.8-4.3c-0.9-1.8-3.9-5.3-3.9-5.3s0,0,0,0c3.1,0.9,5.6,1.1,5.6,1.1c3.2,0.2,3.5-1,3.5-1
	C95,93.3,94,92.3,94,92.3L94,92.3L94,92.3z M88.7,91.9c0,0-0.5,1.8-7.5-0.2c0,0-4-1.2-5.7-2.2c0,0,3.6,6.1,4,11.1
	c0,0,0.2,2.4-0.9,2.8c0,0-1.3,0.6-3.8-2.6c0,0-3.1-3.7-4.9-9.2c-1.8,5.5-4.9,9.2-4.9,9.2c-2.5,3.2-3.8,2.6-3.8,2.6
	c-1.1-0.4-0.9-2.8-0.9-2.8c0.3-4.9,4-11.1,4-11.1c-1.7,1-5.7,2.2-5.7,2.2c-7,2.1-7.5,0.2-7.5,0.2c-0.6-1.5,3.5-3.9,3.5-3.9
	c3.1-2,7.8-3.5,7.8-3.5C57,82.9,54.9,81,54.9,81c-1.7-1.4-1.1-2.1-1.1-2.1c0.9-1.4,5.7-0.5,5.7-0.5C63,79.1,65,80,65,80
	c-1.5-2.8-1.8-5.1-1.8-5.1c-0.5-3,0.8-3.3,0.8-3.3c1-0.3,2.4,1,2.4,1c2.7,2.8,3.6,5.6,3.6,5.6l0,0c0,0,0.9-2.8,3.6-5.6
	c0,0,1.4-1.4,2.4-1c0,0,1.3,0.3,0.8,3.3c0,0-0.3,2.4-1.8,5.1c0,0,1.9-0.9,5.5-1.6c0,0,4.8-0.9,5.7,0.5c0,0,0.6,0.7-1.1,2.1
	c0,0-2,1.9-7.5,3.5c0,0,4.7,1.5,7.8,3.5C85.2,88,89.3,90.4,88.7,91.9L88.7,91.9L88.7,91.9z"/>
</svg>
