<?xml version="1.0" encoding="utf-8"?>
<!-- Generator: Adobe Illustrator 28.0.0, SVG Export Plug-In . SVG Version: 6.00 Build 0)  -->
<svg version="1.1" id="Layer_1" xmlns="http://www.w3.org/2000/svg" xmlns:xlink="http://www.w3.org/1999/xlink" x="0px" y="0px"
	 viewBox="0 0 255 180" style="enable-background:new 0 0 255 180;" xml:space="preserve">
<g id="Cribl..BLK_KNOCKOUT.LOCKUP">
	<path id="Cribl.Logotype" d="M110.9,77.2c1.8,0,3.3,0.2,4.6,0.7c1.3,0.5,2.4,1.1,3.5,2l-2.3,2.8c-0.8-0.7-1.7-1.2-2.6-1.5
		c-0.9-0.3-1.9-0.5-2.9-0.5c-1.3,0-2.6,0.3-3.7,1s-2,1.8-2.7,3.3c-0.7,1.5-1,3.5-1,6.1s0.3,4.5,1,6c0.6,1.5,1.5,2.6,2.7,3.3
		c1.1,0.7,2.4,1,3.8,1s2.6-0.2,3.6-0.7s1.8-1,2.5-1.6l2.2,2.8c-0.9,0.9-2,1.6-3.4,2.2c-1.4,0.6-3,0.9-5,0.9c-2.3,0-4.3-0.5-6.1-1.6
		c-1.8-1.1-3.2-2.6-4.3-4.7c-1-2.1-1.6-4.6-1.6-7.6c0-3,0.5-5.5,1.6-7.6c1.1-2.1,2.5-3.6,4.3-4.7C106.8,77.7,108.7,77.2,110.9,77.2
		L110.9,77.2z M139.3,84.1c-0.5-0.1-1-0.2-1.6-0.2c-1.8,0-3.2,0.5-4.4,1.3c-1.1,0.9-2.1,2.2-2.8,3.9l-0.8-4.7h-6.3v3.1h3v14.3h-3
		v3.1h11.5v-3.1h-4.1v-7.6c0.6-2,1.5-3.6,2.5-4.7c1-1.1,2.3-1.6,3.7-1.7v4.2h3.1l0.7-7.5C140.3,84.4,139.8,84.2,139.3,84.1z
		 M155.4,84.5v17.3h6.6v3.2h-17.1v-3.2h6.1V87.7h-5.9v-3.2H155.4z M152.4,74.5c0.9,0,1.5,0.3,2.1,0.8c0.5,0.5,0.8,1.2,0.8,1.9
		s-0.3,1.4-0.8,2c-0.5,0.5-1.2,0.8-2.1,0.8s-1.5-0.3-2-0.8c-0.5-0.5-0.8-1.2-0.8-2s0.3-1.4,0.8-1.9
		C150.9,74.8,151.6,74.5,152.4,74.5z M170.8,87c0.7-0.9,1.5-1.7,2.5-2.2c0.9-0.5,2-0.8,3.1-0.8c1.8,0,3.3,0.4,4.4,1.3
		c1.1,0.9,1.9,2.1,2.5,3.7c0.5,1.6,0.8,3.5,0.8,5.7c0,2.2-0.3,3.9-0.9,5.6c-0.6,1.6-1.5,2.9-2.7,3.8c-1.2,0.9-2.7,1.4-4.5,1.4
		c-2.3,0-4.1-0.8-5.4-2.5l-0.2,2h-3.8V76.3l4.3-0.5L170.8,87L170.8,87L170.8,87z M174.8,102.2c1.5,0,2.6-0.6,3.4-1.8
		s1.2-3.1,1.2-5.7c0-1.7-0.2-3.2-0.5-4.3c-0.3-1.1-0.8-1.9-1.4-2.4c-0.6-0.5-1.4-0.8-2.3-0.8c-1,0-1.8,0.3-2.6,0.9
		c-0.7,0.6-1.4,1.3-1.9,2.1v9.6c0.5,0.7,1.1,1.3,1.7,1.7S174,102.2,174.8,102.2L174.8,102.2z M195,75.8v23.1c0,0.9,0.3,1.6,0.9,2
		c0.6,0.4,1.3,0.6,2.2,0.6c0.6,0,1.2-0.1,1.7-0.2s1-0.3,1.6-0.5l1.1,3c-0.6,0.3-1.4,0.6-2.2,0.8c-0.9,0.2-1.9,0.3-3,0.3
		c-2.1,0-3.7-0.6-4.8-1.7s-1.7-2.7-1.7-4.8V79h-5.2v-3.2L195,75.8L195,75.8z M200.9,77.5l-0.4-0.8h-0.3v0.8h-0.4v-2.1h0.7
		c0.4,0,0.8,0.2,0.8,0.6c0,0.3-0.2,0.5-0.4,0.6l0.5,0.9L200.9,77.5L200.9,77.5z M200.2,76.4h0.3c0.3,0,0.4-0.1,0.4-0.4
		c0-0.2-0.2-0.3-0.4-0.3h-0.3V76.4z M200.5,78.4c-1.1,0-2-0.9-2-2c0-1.1,0.9-2,2-2c1.1,0,2,0.9,2,2
		C202.5,77.6,201.6,78.4,200.5,78.4z M200.5,74.8c-0.9,0-1.7,0.7-1.7,1.7c0,0.9,0.7,1.7,1.7,1.7s1.7-0.7,1.7-1.7
		C202.2,75.6,201.4,74.8,200.5,74.8z"/>
	<g>
		<g id="Cribl.LOCKUP">
			<path id="Cribl.Mark.BLK" d="M68,78c0.2,0.1,0.2,0.3,0,0.4L53,84c-0.2,0.1-0.4,0-0.4-0.1c0-0.1,0-0.1,0-0.2V69.6
				c0-0.3,0.2-0.4,0.4-0.2L68,78L68,78z M71.5,80.1C71.3,80,71,79.9,70.6,80L53,86.6c-0.3,0.1-0.5,0.4-0.5,0.7v1.1
				c0,0.3,0.2,0.5,0.5,0.5h33.1c0.3,0,0.3-0.1,0.1-0.2C86.2,88.5,71.5,80.1,71.5,80.1z"/>
		</g>
		<g>
			<path d="M52.9,110.6c-0.2,0.1-0.4,0-0.4-0.2V96.3c0-0.1,0-0.1,0-0.2c0.1-0.2,0.3-0.2,0.4-0.1l15,5.5c0.3,0.1,0.3,0.3,0,0.4
				L52.9,110.6L52.9,110.6z"/>
			<path d="M86.2,91.4c0.2-0.1,0.2-0.2-0.1-0.2H53c-0.3,0-0.5,0.2-0.5,0.5v1.1c0,0.3,0.2,0.6,0.5,0.7l17.7,6.5
				c0.3,0.1,0.6,0.1,0.9-0.1C71.6,99.9,86.2,91.4,86.2,91.4z"/>
		</g>
	</g>
</g>
</svg>
