<?xml version="1.0" encoding="utf-8"?>
<!-- Generator: Adobe Illustrator 28.0.0, SVG Export Plug-In . SVG Version: 6.00 Build 0)  -->
<svg version="1.1" id="Layer_1" xmlns="http://www.w3.org/2000/svg" xmlns:xlink="http://www.w3.org/1999/xlink" x="0px" y="0px"
	 viewBox="0 0 255 180" style="enable-background:new 0 0 255 180;" xml:space="preserve">
<style type="text/css">
	.st0{fill-rule:evenodd;clip-rule:evenodd;}
</style>
<g>
	<polygon class="st0" points="108.2,85.5 100.9,78.7 99.1,78.7 99.1,90.1 101.6,90.1 101.6,82.9 109.2,90.1 110.7,90.1 110.7,78.7 
		108.2,78.7 	"/>
	<polygon class="st0" points="85.3,83.4 81.3,83.4 81.3,78.7 77.9,78.7 77.9,90.1 81.3,90.1 81.3,85.2 85.3,85.2 85.3,90.1 
		88.7,90.1 88.7,78.7 85.3,78.7 	"/>
	<path class="st0" d="M72.1,78.6c-2,0-3.6,0.5-5,1.5c-1.3,1-2,2.4-2,4.1v0.5c0,1.8,0.7,3.2,2,4.2c1.3,0.9,3,1.4,5,1.4
		c0.8,0,1.5-0.1,2.2-0.2c0.6-0.1,1.1-0.2,1.3-0.3V88c-0.3,0.1-0.7,0.2-1.3,0.3c-0.5,0.1-1.2,0.2-1.9,0.2c-1.1,0-2-0.3-2.7-1
		c-0.7-0.6-1-1.7-1-3v-0.2c0-1.3,0.3-2.3,1.1-3s1.7-1.1,2.9-1.1c0.7,0,1.3,0,1.7,0.1c0.5,0.1,0.9,0.2,1.2,0.3V79
		c-0.3-0.1-0.8-0.2-1.3-0.3C73.7,78.6,73,78.5,72.1,78.6L72.1,78.6L72.1,78.6z"/>
	<path class="st0" d="M117.2,78.7L112,90.1h2.8l1.1-2.7h5.1l1.1,2.7h3.5l-5.3-11.4H117.2L117.2,78.7z M116.7,85.7l1.8-4.2l1.9,4.2
		H116.7L116.7,85.7z"/>
	<rect x="92.3" y="78.7" width="3.4" height="11.4"/>
	<polygon class="st0" points="169.5,85.2 174,85.2 174,83.5 169.5,83.5 169.5,80.4 175.4,80.4 175.4,78.7 166.1,78.7 166.1,90.1 
		175.8,90.1 175.8,88.4 169.5,88.4 	"/>
	<path class="st0" d="M184.2,78.6c-2,0-3.6,0.5-5,1.5c-1.3,1-2,2.4-2,4.1v0.5c0,1.8,0.7,3.2,2,4.2c1.3,0.9,3,1.4,5,1.4
		c0.8,0,1.5-0.1,2.2-0.2c0.6-0.1,1.1-0.2,1.3-0.3V88c-0.3,0.1-0.7,0.2-1.3,0.3c-0.5,0.1-1.2,0.2-2,0.2c-1.1,0-2-0.3-2.7-1
		c-0.6-0.6-1-1.7-1-3v-0.2c0-1.3,0.3-2.3,1-3c0.7-0.7,1.7-1.1,2.9-1.1c0.7,0,1.2,0,1.7,0.1c0.5,0.1,0.9,0.2,1.2,0.3V79
		c-0.3-0.1-0.8-0.2-1.3-0.3C185.8,78.6,185,78.5,184.2,78.6L184.2,78.6L184.2,78.6z"/>
	<path class="st0" d="M195.5,78.6c-2.1,0-3.6,0.5-4.7,1.6c-1.1,1-1.6,2.4-1.6,4v0.6c0,1.8,0.6,3.1,1.7,4.1c1.1,0.9,2.7,1.4,4.5,1.4
		s3.4-0.5,4.6-1.4c1.1-0.9,1.7-2.3,1.7-4.1v-0.6c0-1.6-0.5-3-1.6-4C199.1,79.1,197.6,78.6,195.5,78.6L195.5,78.6L195.5,78.6z
		 M198.3,84.6c0,1.5-0.2,2.5-0.7,3.1c-0.4,0.6-1.2,0.9-2.1,0.9c-1.2,0-2-0.3-2.3-0.9c-0.3-0.6-0.5-1.7-0.5-3.2v-0.3
		c0-1.6,0.2-2.6,0.6-3.2c0.4-0.6,1.1-0.9,2.2-0.9c1.2,0,2,0.3,2.3,1c0.3,0.7,0.5,1.7,0.5,3.1L198.3,84.6L198.3,84.6z"/>
	<polygon class="st0" points="131.1,80.4 134.4,80.4 134.4,90.1 137.9,90.1 137.9,80.4 141.2,80.4 141.2,78.7 131.1,78.7 	"/>
	<polygon class="st0" points="211.9,87 206.2,78.7 203.6,78.7 203.6,90.1 206,90.1 206,83.6 210.4,90.1 212.2,90.1 216.9,83.6 
		216.9,90.1 220,90.1 220,78.7 217.8,78.7 	"/>
	<polygon class="st0" points="146.2,85.2 150.8,85.2 150.8,83.5 146.2,83.5 146.2,80.4 152.1,80.4 152.1,78.7 142.8,78.7 
		142.8,90.1 152.5,90.1 152.5,88.4 146.2,88.4 	"/>
	<polygon class="st0" points="158.1,78.7 154.6,78.7 154.6,90.1 163.8,90.1 163.8,88.4 158.1,88.4 	"/>
</g>
<g>
	<path d="M66.8,102h-1.7l2.8-7.7h1.9l2.7,7.7h-1.8l-0.5-1.6h-2.8L66.8,102L66.8,102z M67.8,99.1h2l-1-3h0L67.8,99.1
		C67.8,99.1,67.8,99.1,67.8,99.1z"/>
	<path d="M80.9,102h-1.5v-6.5h0l-1.4,6.5h-1.6L75,95.5h0v6.5h-1.5v-7.7h2.4l1.4,6.1h0l1.4-6.1h2.3L80.9,102L80.9,102z"/>
	<path d="M88.1,95.7H84v1.6h3.8v1.4H84v2h4.3v1.4h-5.9v-7.7h5.7L88.1,95.7L88.1,95.7L88.1,95.7z"/>
	<path d="M89.6,94.3h3.9c2,0,2.4,1.5,2.4,2.2c0,0.9-0.4,1.6-1.2,1.8c0.6,0.3,1,0.5,1,2c0,1.1,0,1.4,0.3,1.5v0.2h-1.8
		c-0.1-0.4-0.2-0.8-0.2-1.6c0-1.1-0.1-1.5-1.3-1.5h-1.7v3h-1.6L89.6,94.3C89.6,94.3,89.6,94.3,89.6,94.3z M93.1,97.7
		c0.8,0,1.3-0.3,1.3-1.1c0-0.4-0.2-1-1.1-1h-2v2.1H93.1L93.1,97.7z"/>
	<path d="M98.9,102h-1.6v-7.7h1.6V102z"/>
	<path d="M105.3,96.8c-0.1-0.5-0.4-1.3-1.7-1.3c-0.8,0-1.9,0.5-1.9,2.7c0,1.4,0.5,2.6,1.9,2.6c0.9,0,1.5-0.5,1.7-1.5h1.6
		c-0.3,1.7-1.4,2.8-3.4,2.8c-2.1,0-3.5-1.4-3.5-4.1s1.6-4.1,3.6-4.1c2.3,0,3.2,1.6,3.3,2.7L105.3,96.8
		C105.3,96.8,105.3,96.8,105.3,96.8z"/>
	<path d="M109.3,102h-1.7l2.8-7.7h1.9l2.7,7.7h-1.8l-0.5-1.6h-2.8L109.3,102L109.3,102z M110.2,99.1h2l-1-3h0L110.2,99.1L110.2,99.1
		L110.2,99.1z"/>
	<path d="M117.1,99.6c0,0.4,0.2,1.3,1.6,1.3c0.8,0,1.6-0.2,1.6-1c0-0.6-0.6-0.8-1.4-1l-0.8-0.2c-1.3-0.3-2.4-0.6-2.4-2.3
		c0-0.9,0.5-2.4,3-2.4c2.4,0,3,1.5,3,2.5h-1.6c0-0.3-0.2-1.2-1.6-1.2c-0.6,0-1.3,0.2-1.3,0.9c0,0.6,0.5,0.7,0.8,0.8l1.9,0.5
		c1.1,0.3,2,0.7,2,2.1c0,2.3-2.4,2.5-3,2.5c-2.8,0-3.3-1.6-3.3-2.6H117.1L117.1,99.6z"/>
</g>
<path d="M42.4,87.2c0.6-5.3,2.8-9.2,5.5-9.2c1.6,0,3,1.4,4,3.6l-1,0.3c-0.3-0.3-0.6-0.5-1-0.5c-0.9,0-1.6,1.1-2.1,2.7
	c-0.2,0.8-0.4,1.7-0.6,2.7c0.3-0.1,0.6-0.1,0.9-0.2c4.7-1.2,8.1-3.7,7.6-5.7c-0.2-0.9-1.2-1.5-2.5-1.8l-0.4-1.4
	c3.8,0.2,6.7,1.5,7.2,3.7c0.8,3.3-4.1,7.4-10.9,9.1c-0.7,0.2-1.4,0.3-2.1,0.4c0.1,4,1.1,7.1,2.4,7.1c1,0,1.8-2,2.2-4.8l1.8-0.5
	c-0.6,5.2-2.8,9.1-5.5,9.1c-2.9,0-5.3-4.7-5.6-10.7c-3.8-0.2-6.7-1.5-7.2-3.7c-0.7-2.8,2.7-6.2,8-8.2l0.3,1c-3.1,1.3-5,3.2-4.7,4.7
	C39,86.3,40.4,87,42.4,87.2L42.4,87.2L42.4,87.2z"/>
</svg>
