<?xml version="1.0" encoding="utf-8"?>
<!-- Generator: Adobe Illustrator 25.3.1, SVG Export Plug-In . SVG Version: 6.00 Build 0)  -->
<svg version="1.1" id="Layer_1" xmlns="http://www.w3.org/2000/svg" xmlns:xlink="http://www.w3.org/1999/xlink" x="0px" y="0px"
	 viewBox="0 0 210 84" style="enable-background:new 0 0 210 84;" xml:space="preserve">
<style type="text/css">
	.st0{fill:#fff;}
</style>
<g id="Citrix-White-Logo" transform="translate(-14.9 -9.5)">
	<path id="Path_1041" class="st0" d="M65.5,55.8c0-8.3,5.6-14.2,13.5-14.2c5.4,0,9.8,2.7,11.5,6.9c0.2,0.4,0.3,0.8,0.3,1.2
		c0,0.9-0.7,1.6-1.6,1.6h-0.1c-0.8,0-1.4-0.5-1.7-1.2c-1.4-3.4-4.5-5.3-8.4-5.3c-5.9,0-10.1,4.6-10.1,11.1s4.1,11,10.1,11
		c3.8,0.2,7.3-2.2,8.5-5.9c0.2-0.7,0.9-1.2,1.6-1.2c0.9,0,1.7,0.7,1.7,1.6c0,0,0,0,0,0.1v0.1c0,0.4-0.1,0.7-0.2,1.1
		c-1.7,4.5-6,7.4-11.6,7.4C71,69.9,65.5,64.1,65.5,55.8z"/>
	<path id="Path_1042" class="st0" d="M110.8,67.6c0.1,0.9-0.5,1.7-1.4,1.9c0,0,0,0-0.1,0h-0.3c-1.1,0-1.7-0.7-1.7-1.9V34.9
		c-0.1-1,0.6-1.8,1.5-1.9c0.1,0,0.2,0,0.2,0c1.1,0,1.7,0.7,1.7,2v7.5h5.9c0.8-0.1,1.6,0.5,1.7,1.3c0,0,0,0,0,0
		c0.1,0.8-0.5,1.5-1.3,1.7h-6.2V67.6z"/>
	<path id="Path_1043" class="st0" d="M137.2,44.2c0,0.9-0.6,1.6-1.5,1.6c0,0,0,0,0,0h-0.1c-0.4,0-0.9-0.1-1.2-0.4
		c-0.8-0.4-1.8-0.6-2.8-0.6c-3.6,0-6,3.2-6,7.2v15.6c0,1.2-0.6,1.9-1.7,1.9c-0.9,0.1-1.7-0.6-1.8-1.6c0-0.1,0-0.2,0-0.3V44
		c0-1.2,0.7-2,1.7-2s1.7,0.7,1.7,2v0.7c1.5-2,3.9-3.1,6.4-3c1.5-0.1,3.1,0.3,4.4,1C136.9,42.9,137.2,43.5,137.2,44.2z"/>
	<path id="Path_1044" class="st0" d="M140.7,44c0-1.2,0.7-2,1.7-2s1.7,0.7,1.7,2v23.7c0.1,0.9-0.5,1.7-1.4,1.9c0,0,0,0-0.1,0h-0.3
		c-1.1,0-1.7-0.7-1.7-1.9L140.7,44z"/>
	<path id="Path_1045" class="st0" d="M96.9,44c0-1.2,0.7-2,1.7-2s1.7,0.7,1.7,2v23.7c0.1,0.9-0.5,1.7-1.4,1.9c0,0,0,0-0.1,0h-0.3
		c-1.1,0-1.7-0.7-1.7-1.9L96.9,44z"/>
	<circle id="Ellipse_2" class="st0" cx="98.6" cy="35.6" r="2.7"/>
	<path id="Path_1046" class="st0" d="M162,57.9l-9.3,10.9c-0.3,0.4-0.8,0.7-1.4,0.7c-0.9,0-1.6-0.6-1.6-1.5c0,0,0,0,0,0l0,0
		c0-0.4,0.2-0.9,0.4-1.2l9.7-11l-9.3-10.8c-0.4-0.3-0.6-0.8-0.6-1.2c0-0.9,0.7-1.6,1.6-1.6h0.1c0.5,0,1,0.3,1.3,0.7l9.1,10.7
		l9.1-10.7c0.6-0.7,1.6-0.9,2.3-0.3c0.4,0.3,0.6,0.7,0.6,1.1v0.1c0,0.5-0.2,1-0.5,1.3l-9.4,10.8l9.7,11c0.3,0.3,0.5,0.8,0.4,1.2
		c0,0.9-0.7,1.6-1.5,1.6h-0.1c-0.5,0-1-0.2-1.4-0.7L162,57.9z"/>
	<circle id="Ellipse_3" class="st0" cx="162" cy="35.6" r="2.7"/>
</g>
</svg>
