<?xml version="1.0" encoding="utf-8"?>
<!-- Generator: Adobe Illustrator 25.3.1, SVG Export Plug-In . SVG Version: 6.00 Build 0)  -->
<svg version="1.1" id="CyberMDX_Logo_Grey" xmlns="http://www.w3.org/2000/svg" xmlns:xlink="http://www.w3.org/1999/xlink" x="0px"
	 y="0px" viewBox="0 0 210 84" style="enable-background:new 0 0 210 84;" xml:space="preserve">
<style type="text/css">
	.st0{clip-path:url(#SVGID_2_);}
	.st1{fill:#000;}
</style>
<g id="Group_3431" transform="translate(0 0)">
	<g>
		<defs>
			<rect id="SVGID_1_" x="35.6" y="27.2" width="138.7" height="29.6"/>
		</defs>
		<clipPath id="SVGID_2_">
			<use xlink:href="#SVGID_1_"  style="overflow:visible;"/>
		</clipPath>
		<g id="Group_5453" class="st0">
			<path id="Path_8103" class="st1" d="M150.8,34.5h-9.1v0.7c0,0.3,0.1,0.6,0.4,0.7l1.5,0.9v12.8h7.1c5,0,8.5-2.9,8.5-7.5
				S155.8,34.5,150.8,34.5 M150.6,46.1h-2.6v-8.3h2.7c2.6,0,4.3,1.5,4.3,4.2S153.2,46.1,150.6,46.1"/>
			<path id="Path_8104" class="st1" d="M168.8,41.8l5.6-7.4h-4.9l-3,4.4l-3-4.4h-5.3v0.7c0,0.3,0.1,0.6,0.4,0.7l1.8,1.1l3.5,4.9
				l-5.5,7.7h4.9l3.2-4.7l3,4.7h4.9L168.8,41.8z"/>
			<path id="Path_8105" class="st1" d="M140.6,34.5h-3.5l-5.2,8.7l-5.4-8.7h-5.3v0.7c0,0.3,0.1,0.6,0.4,0.7l1.5,0.8v12.9h4v-8.1
				l4,6.3h1.7l4-6.3l0.1,8h3.9L140.6,34.5z"/>
			<path id="Path_8106" class="st1" d="M75.9,47.8c-3.2,0.1-5.8-2.4-5.9-5.6c-0.1-3.2,2.4-5.8,5.6-5.9h0.3c1.5-0.1,2.9,0.5,4,1.5
				l1.5-0.9l0,0l-0.1-0.1c-1.4-1.5-3.4-2.2-5.4-2.2c-4.1-0.2-7.5,2.9-7.7,7c0,0.2,0,0.3,0,0.5c0,4.1,3.3,7.5,7.4,7.5c0,0,0,0,0,0
				h0.3c2,0.1,4-0.7,5.4-2.2l0.1-0.1l-1.6-0.9C78.7,47.4,77.3,47.9,75.9,47.8"/>
			<path id="Path_8107" class="st1" d="M98.1,38.6c-1.5-0.1-2.9,0.6-3.8,1.7v-5.8h-0.5c-0.6,0-1.2,0.5-1.2,1.2v13.7H93
				c0.6,0,1.2-0.5,1.2-1.2v-0.4c0.9,1.2,2.3,1.8,3.8,1.8c2.9,0.1,5.3-2.2,5.4-5.2v-0.4c0.1-2.9-2.2-5.4-5.1-5.5
				C98.3,38.6,98.2,38.6,98.1,38.6 M101.7,44.1c0.1,2-1.5,3.8-3.5,3.9s-3.8-1.5-3.9-3.5l0,0v-0.4c-0.1-2,1.5-3.8,3.5-3.9
				s3.8,1.5,3.9,3.5V44.1"/>
			<path id="Path_8108" class="st1" d="M121.1,38.6c-1.5-0.1-2.9,0.5-3.8,1.7v-1.6h-0.5c-0.7,0-1.2,0.5-1.2,1.2c0,0,0,0,0,0l0,0v9.6
				h0.5c0.7,0,1.2-0.5,1.2-1.2c0,0,0,0,0,0l0,0V44c0-2.3,1.2-3.7,3.4-3.7h0.5v-1.7L121.1,38.6z"/>
			<path id="Path_8109" class="st1" d="M90,38.7l-3.8,8.7l-3.8-8.5l-0.1-0.1l-1.5,0.9l4.4,9.8l-0.4,0.9c-0.7,1.4-1.3,1.7-2,1.7
				c-0.7,0-1.3-0.3-1.8-0.7L80.9,51L80,52.4l0.1,0.1c0.7,0.7,1.7,1,2.7,1c1.7,0,2.8-0.9,3.6-2.8l5.3-12.1L90,38.7z"/>
			<path id="Path_8110" class="st1" d="M112.8,47c-0.8,0.7-1.8,1.1-2.8,1.1c-2,0.1-3.7-1.3-4-3.2h8.7v-0.7c0.1-2.9-2.1-5.4-5.1-5.6
				c-2.9-0.1-5.4,2.1-5.6,5.1c0,0,0,0.1,0,0.1v0.4c-0.1,3,2.2,5.5,5.2,5.6c0.2,0,0.3,0,0.5,0c1.6,0,3.1-0.6,4.2-1.8l0.1-0.1
				L112.8,47z M109.6,40.2c1.8-0.1,3.3,1.3,3.5,3.1H106C106.2,41.5,107.7,40.2,109.6,40.2"/>
			<path id="Path_8111" class="st1" d="M47.9,31.6l-8.7,5l1.8,1.1l9.7-5.6l-0.9-0.5C49.3,31.2,48.5,31.2,47.9,31.6"/>
			<path id="Path_8112" class="st1" d="M46.7,40.9l1.9,1.1l9.7-5.6l-0.9-0.5c-0.6-0.4-1.3-0.4-1.9,0L46.7,40.9z"/>
			<path id="Path_8113" class="st1" d="M51.6,33.8l-8.7,5.1l1.9,1.1l9.7-5.6l-0.9-0.5C53,33.4,52.2,33.4,51.6,33.8"/>
			<path id="Path_8114" class="st1" d="M35.9,49.7l11.8,6.8c0.7,0.4,1.5,0.4,2.2,0c0,0,11-6.3,11.2-6.5c0.6-0.4,0.9-1.1,0.9-1.8
				V35.7c0-0.8-0.4-1.6-1.2-1.9L50,27.5c-0.7-0.4-1.5-0.4-2.2,0l-11.9,6.8c-0.1,0.1-0.1,0.1-0.1,0.3l1.7,0.9l11.5-6.6l11.3,6.5v13.1
				l-11.3,6.5l-11.4-6.6l1.9-1.1l-1.9-1.1L36,47.2c-0.2,0-0.3,0.2-0.3,0.4v1.7C35.6,49.5,35.7,49.7,35.9,49.7"/>
			<path id="Path_8115" class="st1" d="M39.2,40.9L41,42l1.9-1.1l-1.8-1.1L39.2,40.9z"/>
			<path id="Path_8116" class="st1" d="M35.8,38.6c-0.1,0.1-0.1,0.1-0.1,0.2l1.7,1l1.9-1.1l-1.9-1.1L35.8,38.6z"/>
			<path id="Path_8117" class="st1" d="M44.8,44.2l1.9-1.1L44.9,42L43,43.1L44.8,44.2z"/>
			<path id="Path_8118" class="st1" d="M35.8,42.9c-0.1,0.1-0.1,0.2-0.1,0.3l1.7,0.9l1.9-1.1l-1.9-1L35.8,42.9z"/>
			<path id="Path_8119" class="st1" d="M43,45.2l-1.8-1.1l-1.9,1.1l1.8,1.1L43,45.2z"/>
			<path id="Path_8120" class="st1" d="M35.6,36.5c0,0.1,0.1,0.3,0.1,0.4l19.6,11.3c0.6,0.4,1.3,0.4,1.9,0l0.9-0.5l-22.5-13V36.5"/>
			<path id="Path_8121" class="st1" d="M54.5,49.7L35.6,38.9v1.9c0,0.2,0.1,0.3,0.2,0.4l15.7,9.1c0.6,0.4,1.3,0.4,1.9,0L54.5,49.7z"
				/>
			<path id="Path_8122" class="st1" d="M35.6,45c0,0.1,0,0.2,0.1,0.3l12.1,7c0.6,0.4,1.3,0.4,1.9,0l0.9-0.5l-15-8.7V45"/>
		</g>
	</g>
</g>
</svg>
