<?xml version="1.0" encoding="utf-8"?>
<!-- Generator: Adobe Illustrator 25.3.1, SVG Export Plug-In . SVG Version: 6.00 Build 0)  -->
<svg version="1.1" id="Layer_1" xmlns="http://www.w3.org/2000/svg" xmlns:xlink="http://www.w3.org/1999/xlink" x="0px" y="0px"
	 viewBox="0 0 210 84" style="enable-background:new 0 0 210 84;" xml:space="preserve">
<style type="text/css">
	.st0{fill:#000;}
</style>
<g id="Datastax_Logo_Grey" transform="translate(-0.5 -6.794)">
	<path id="Path_1064" class="st0" d="M155.1,54.6l4.1-4.1c0.2-0.2,0.2-0.5,0.2-0.7c-0.1-0.2-0.4-0.4-0.6-0.4c-0.2,0-0.4,0.1-0.5,0.2
		l-4.1,4.1l-4.2-4.2c-0.1-0.1-0.3-0.2-0.5-0.2c-0.3,0-0.5,0.2-0.6,0.4c-0.1,0.2,0,0.5,0.2,0.7l4.1,4.2l-4.1,4.1
		c-0.2,0.2-0.3,0.5-0.2,0.7c0.1,0.2,0.4,0.4,0.6,0.4c0.2,0,0.4-0.1,0.5-0.2l4.1-4.1l4.1,3.8c0.1,0.1,0.3,0.2,0.5,0.2
		c0.3,0,0.5-0.2,0.6-0.4c0.1-0.3,0-0.6-0.2-0.8L155.1,54.6z"/>
	<path id="Path_1065" class="st0" d="M149.5,60.2c-0.4,0-0.8-0.2-0.9-0.6c-0.2-0.4-0.1-0.8,0.2-1.1l3.9-3.9l-3.9-3.9
		c-0.3-0.3-0.4-0.7-0.2-1.1c0.2-0.4,0.5-0.6,0.9-0.6c0.3,0,0.5,0.1,0.7,0.3l3.9,3.9l3.9-3.9c0.2-0.2,0.4-0.3,0.7-0.3
		c0.4,0,0.8,0.2,0.9,0.6c0.1,0.4,0.1,0.8-0.2,1.1l-3.9,3.9l3.9,3.5c0.3,0.3,0.4,0.7,0.2,1.1c-0.2,0.4-0.5,0.6-0.9,0.6
		c-0.3,0-0.5-0.1-0.7-0.3l-3.9-3.6l-3.9,3.9C150.2,60.1,149.9,60.2,149.5,60.2 M149.5,49.7c-0.2,0-0.3,0.1-0.3,0.2
		c-0.1,0.1,0,0.3,0.1,0.4l4.3,4.4l-4.3,4.3c-0.1,0.1-0.1,0.3-0.1,0.4c0.1,0.2,0.3,0.3,0.5,0.2c0.1,0,0.1-0.1,0.2-0.1l4.3-4.3l4.3,4
		c0.1,0.2,0.4,0.2,0.5,0.1c0,0,0.1-0.1,0.1-0.1c0.1-0.1,0-0.3-0.1-0.4l-4.4-4l4.3-4.3c0.1-0.1,0.1-0.3,0.1-0.4
		c-0.1-0.2-0.3-0.3-0.5-0.2c-0.1,0-0.1,0.1-0.2,0.1l-4.3,4.3l-4.3-4.3C149.7,49.7,149.6,49.7,149.5,49.7"/>
	<path id="Path_1066" class="st0" d="M166.6,52c0,1.5,1.3,2.6,2.7,2.6c0,0,0,0,0,0c1.4,0,2.6-1.2,2.6-2.6c0,0,0-0.1,0-0.1
		c0-1.5-1.2-2.7-2.7-2.6C167.7,49.2,166.5,50.4,166.6,52C166.6,51.9,166.6,51.9,166.6,52"/>
	<path id="Path_1067" class="st0" d="M155.6,39.1c0,1.5,1.3,2.6,2.7,2.6c0,0,0,0,0,0c1.4,0,2.6-1.2,2.6-2.6c0,0,0-0.1,0-0.1
		c0-1.5-1.3-2.6-2.7-2.6c0,0,0,0,0,0C156.8,36.5,155.6,37.6,155.6,39.1"/>
	<path id="Path_1068" class="st0" d="M149.1,37.3c0,1.1,0.9,2,2,2c0,0,0.1,0,0.1,0c1.2,0,2.1-1,2.1-2.1c0-1.1-0.9-2-2-2
		c0,0-0.1,0-0.1,0C150,35.2,149.1,36.1,149.1,37.3"/>
	<path id="Path_1069" class="st0" d="M166.6,58.7c0,1,0.8,1.8,1.8,1.8c0,0,0.1,0,0.1,0c1,0,1.8-0.8,1.8-1.8c0,0,0-0.1,0-0.1
		c0-1-0.9-1.8-1.9-1.8c0,0,0,0,0,0c-1,0-1.8,0.8-1.8,1.8C166.6,58.6,166.6,58.6,166.6,58.7"/>
	<path id="Path_1070" class="st0" d="M162.4,61.3c0,0.6,0.6,1.1,1.2,1.1c0.6,0,1.1-0.5,1.1-1.1c0-0.6-0.6-1.1-1.2-1.1
		c-0.6,0-1.1,0.4-1.1,1C162.4,61.2,162.4,61.3,162.4,61.3"/>
	<path id="Path_1071" class="st0" d="M145.6,40.4c0,0.7,0.6,1.2,1.3,1.2c0.7,0,1.2-0.6,1.2-1.3c0-0.7-0.6-1.2-1.3-1.2c0,0,0,0,0,0
		c-0.6,0-1.2,0.5-1.2,1.1C145.6,40.2,145.6,40.3,145.6,40.4"/>
	<path id="Path_1072" class="st0" d="M145.4,45.2c0,0.5,0.4,0.9,0.9,0.9c0.5,0,0.9-0.4,0.9-0.9c0,0,0,0,0,0c0-0.5-0.5-1-1-0.9
		c0,0,0,0,0,0C145.8,44.2,145.4,44.7,145.4,45.2C145.4,45.2,145.4,45.2,145.4,45.2"/>
	<path id="Path_1073" class="st0" d="M161.7,44.6c0,1.8,1.6,3.3,3.4,3.2c1.8,0,3.3-1.6,3.2-3.4s-1.6-3.3-3.4-3.2c0,0,0,0,0,0
		C163.1,41.3,161.6,42.8,161.7,44.6"/>
	<path id="Path_1074" class="st0" d="M47.5,49.3h-7.3c-0.5,0-0.9,0.4-0.9,0.9V59c0,0.5,0.4,0.9,0.9,0.9h7.3c1.3-0.1,2.4-1.1,2.4-2.4
		v-5.7C49.9,50.4,48.8,49.4,47.5,49.3 M47.5,58.5h-6.7v-7.8h6.8c0.6,0,1.1,0.5,1.1,1.1v5.7C48.6,58,48.1,58.4,47.5,58.5"/>
	<path id="Path_1075" class="st0" d="M47.5,60.2h-7.3c-0.6,0-1.2-0.5-1.2-1.2v-8.8c0-0.6,0.5-1.2,1.2-1.2h7.3
		c1.5,0.1,2.7,1.3,2.8,2.8v5.7C50.2,59,49,60.2,47.5,60.2 M40.3,49.7c-0.3,0-0.5,0.2-0.6,0.5c0,0,0,0,0,0V59c0,0.3,0.2,0.5,0.5,0.6
		c0,0,0,0,0,0h7.3c1.2-0.1,2.1-1,2.1-2.1v-5.7c-0.1-1.1-1-2.1-2.1-2.1C47.5,49.7,40.3,49.7,40.3,49.7z M40.4,58.8v-8.4h7.1
		c0.8,0.1,1.4,0.7,1.4,1.4v5.7c-0.1,0.7-0.7,1.3-1.4,1.3L40.4,58.8L40.4,58.8z M41.1,51v7.2h6.4c0.4,0,0.7-0.3,0.8-0.7v-5.7
		c0-0.4-0.4-0.8-0.8-0.8L41.1,51z"/>
	<path id="Path_1076" class="st0" d="M63.9,49.3h-5.4c-1.4,0-2.5,1.1-2.6,2.4v7.5c0,0.4,0.3,0.7,0.7,0.7c0.4,0,0.7-0.3,0.7-0.7
		c0,0,0,0,0-0.1v-3.6h7.9v3.6c0,0.4,0.3,0.7,0.7,0.7c0.4,0,0.7-0.3,0.7-0.7c0,0,0,0,0-0.1v-7.5C66.5,50.4,65.3,49.3,63.9,49.3
		 M65.1,51.8v2.5h-7.9v-2.5c0-0.6,0.6-1.1,1.2-1.1c0,0,0,0,0,0h5.4C64.5,50.8,65.1,51.2,65.1,51.8"/>
	<path id="Path_1077" class="st0" d="M65.8,60.2c-0.6,0-1-0.5-1-1v-3.3h-7.2v3.3c0,0.6-0.5,1-1,1c-0.6,0-1-0.5-1-1c0,0,0,0,0,0v-7.5
		c0.1-1.6,1.4-2.8,2.9-2.8h5.5c1.6-0.1,2.9,1.2,2.9,2.7c0,0,0,0,0,0v7.5C66.8,59.8,66.4,60.2,65.8,60.2
		C65.8,60.2,65.8,60.2,65.8,60.2 M56.9,55.3h8.5v3.9c0,0.2,0.2,0.4,0.4,0.4c0.2,0,0.4-0.2,0.4-0.4v-7.5c0-1.2-1.1-2.2-2.3-2.1
		c0,0,0,0,0,0h-5.4c-1.2,0-2.2,0.9-2.3,2.1c0,0,0,0,0,0v7.5c0,0.2,0.2,0.4,0.4,0.4s0.4-0.2,0.4-0.4L56.9,55.3L56.9,55.3z M65.4,54.6
		h-8.5v-2.8c0-0.8,0.7-1.5,1.6-1.4c0,0,0,0,0,0h5.4c0.8,0,1.5,0.6,1.6,1.4c0,0,0,0,0,0L65.4,54.6z M57.5,54h7.3v-2.2
		c-0.1-0.5-0.5-0.8-0.9-0.8h-5.4c-0.5,0-0.9,0.3-0.9,0.8L57.5,54L57.5,54z"/>
	<path id="Path_1078" class="st0" d="M79.9,49.3h-7.8c-0.4,0-0.7,0.3-0.7,0.7c0,0.4,0.3,0.7,0.7,0.7c0,0,0,0,0.1,0h3.2v8.6
		c0,0.4,0.3,0.7,0.7,0.7c0.4,0,0.7-0.3,0.7-0.7c0,0,0,0,0-0.1v-8.6H80c0.4,0,0.7-0.3,0.7-0.7c0,0,0,0,0,0
		C80.6,49.7,80.3,49.4,79.9,49.3"/>
	<path id="Path_1079" class="st0" d="M76,60.2c-0.6,0-1-0.5-1-1v-8.3H72c-0.6,0-1-0.5-1-1c0-0.6,0.5-1,1-1c0,0,0,0,0,0h7.8
		c0.6,0,1,0.5,1,1c0,0.6-0.5,1-1,1c0,0,0,0,0,0h-2.9v8.2c0.1,0.5-0.2,1-0.7,1.1C76.2,60.2,76.1,60.2,76,60.2 M72.1,49.7
		c-0.2,0-0.4,0.2-0.4,0.4c0,0.2,0.2,0.4,0.4,0.4l0,0h3.5v8.9c0,0.2,0.2,0.4,0.4,0.4s0.4-0.2,0.4-0.4c0,0,0,0,0,0v-9H80
		c0.2,0,0.4-0.2,0.4-0.4c0-0.2-0.2-0.4-0.4-0.4L72.1,49.7L72.1,49.7z"/>
	<path id="Path_1080" class="st0" d="M93.9,49.3h-5.4c-1.4,0-2.5,1.1-2.6,2.4v7.5c0,0.4,0.3,0.7,0.7,0.7c0.4,0,0.7-0.3,0.7-0.7
		c0,0,0,0,0-0.1v-3.6h7.9v3.6c0,0.4,0.3,0.7,0.7,0.7c0.4,0,0.7-0.3,0.7-0.7c0,0,0,0,0-0.1v-7.5C96.4,50.4,95.3,49.3,93.9,49.3
		 M95.1,51.8v2.5h-7.9v-2.5c0-0.6,0.6-1.1,1.2-1.1c0,0,0,0,0,0h5.4C94.4,50.8,95.1,51.2,95.1,51.8"/>
	<path id="Path_1081" class="st0" d="M95.8,60.2c-0.6,0-1-0.5-1-1v-3.3h-7.2v3.3c0,0.6-0.5,1-1,1c-0.6,0-1-0.5-1-1c0,0,0,0,0,0v-7.5
		c0.1-1.6,1.4-2.8,2.9-2.8h5.5c1.6-0.1,2.9,1.2,2.9,2.7c0,0,0,0,0,0v7.5C96.8,59.8,96.4,60.2,95.8,60.2
		C95.8,60.2,95.8,60.2,95.8,60.2 M86.9,55.3h8.6v3.9c0,0.2,0.2,0.4,0.4,0.4c0.2,0,0.4-0.2,0.4-0.4l0,0v-7.5c0-1.2-1.1-2.2-2.3-2.1
		c0,0,0,0,0,0h-5.4c-1.2,0-2.2,0.9-2.3,2.1c0,0,0,0,0,0v7.5c0,0.2,0.2,0.4,0.4,0.4c0.2,0,0.4-0.2,0.4-0.4
		C86.9,58,86.8,56.7,86.9,55.3L86.9,55.3z M95.4,54.6h-8.6v-2.8c0-0.8,0.7-1.5,1.6-1.4c0,0,0,0,0,0h5.4c0.8,0,1.5,0.6,1.6,1.4
		c0,0,0,0,0,0L95.4,54.6L95.4,54.6z M87.5,54h7.2v-2.2c-0.1-0.5-0.5-0.8-0.9-0.8h-5.4c-0.5,0-0.9,0.3-0.9,0.8L87.5,54z"/>
	<path id="Path_1082" class="st0" d="M110.7,54h-5.9c-0.7,0-1.1-0.9-1.1-1.7c0-0.8,0.3-1.6,1-1.6h6.5c0.4,0,0.7-0.3,0.7-0.7
		c0-0.4-0.3-0.7-0.7-0.7c0,0,0,0-0.1,0h-6.5c-1.6,0-2.4,1.5-2.4,3c0,1.4,0.8,3,2.4,3h5.8c0.7,0,1.1,0.9,1.1,1.7s-0.3,1.6-1,1.6h-7.5
		c-0.4,0-0.7,0.3-0.7,0.7c0,0.4,0.3,0.7,0.7,0.7h7.5c1.7,0,2.4-1.6,2.4-3C113.1,55.4,112.3,54,110.7,54"/>
	<path id="Path_1083" class="st0" d="M110.7,60.2h-7.5c-0.6,0-1-0.5-1-1c0-0.6,0.5-1,1-1h7.5c0.6,0,0.7-0.7,0.7-1.3
		s-0.2-1.3-0.8-1.3h-5.8c-1.9,0-2.8-1.7-2.8-3.3c0-1.7,0.9-3.3,2.8-3.3h6.5c0.6,0,1,0.5,1,1c0,0.6-0.5,1-1,1h-6.5
		c-0.6,0-0.7,0.8-0.7,1.3c0,0.6,0.2,1.3,0.7,1.3h5.9c1.8,0,2.7,1.7,2.7,3.2C113.4,58.5,112.6,60.2,110.7,60.2 M103.2,58.8
		c-0.2,0-0.4,0.2-0.4,0.4c0,0.2,0.2,0.4,0.4,0.4h7.5c1.4,0,2.1-1.3,2.1-2.7s-0.7-2.6-2.1-2.6h-5.9c-0.9,0-1.4-1-1.4-2
		c0-0.9,0.4-1.9,1.3-1.9h6.5c0.2,0,0.4-0.2,0.4-0.4c0-0.2-0.2-0.4-0.4-0.4l0,0h-6.5c-1.3,0-2.1,1.3-2.1,2.7c0,1.3,0.6,2.7,2.1,2.7
		h5.8c0.9,0,1.4,1,1.4,2c0,0.9-0.4,1.9-1.3,1.9L103.2,58.8L103.2,58.8z"/>
	<path id="Path_1084" class="st0" d="M126.5,49.3h-8.4c-0.4,0-0.7,0.3-0.7,0.7c0,0.4,0.3,0.7,0.7,0.7h3.9v8.5c0,0.4,0.3,0.7,0.7,0.7
		c0.4,0,0.7-0.3,0.7-0.7c0,0,0,0,0-0.1v-8.5h3.2c0.4,0,0.7-0.3,0.7-0.7c0,0,0,0,0,0C127.1,49.7,126.9,49.3,126.5,49.3"/>
	<path id="Path_1085" class="st0" d="M122.6,60.2c-0.6,0-1-0.5-1-1V51H118c-0.6,0-1-0.5-1-1c0-0.6,0.5-1,1-1h8.4c0.6,0,1,0.5,1,1
		c0,0.6-0.5,1-1,1h-2.9v8.2c0.1,0.5-0.2,0.9-0.7,1C122.8,60.2,122.7,60.2,122.6,60.2 M118,49.7c-0.2,0-0.4,0.2-0.4,0.4
		c0,0.2,0.2,0.4,0.4,0.4h4.2v8.8c0,0.2,0.2,0.4,0.4,0.4s0.4-0.2,0.4-0.4v-8.9h3.5c0.2,0,0.4-0.2,0.4-0.4s-0.2-0.4-0.4-0.4l0,0
		L118,49.7L118,49.7z"/>
	<path id="Path_1086" class="st0" d="M140.5,49.3H135c-1.4,0-2.5,1.1-2.6,2.4v7.5c0,0.4,0.3,0.7,0.7,0.7c0.4,0,0.7-0.3,0.7-0.7v-3.6
		h7.9v3.6c0,0.4,0.3,0.7,0.7,0.7c0.4,0,0.7-0.3,0.7-0.7c0,0,0,0,0-0.1v-7.5C143,50.4,141.9,49.3,140.5,49.3 M141.7,51.8v2.5h-7.9
		v-2.5c0-0.6,0.6-1.1,1.2-1.1c0,0,0,0,0,0h5.4C141,50.8,141.7,51.2,141.7,51.8"/>
	<path id="Path_1087" class="st0" d="M142.4,60.2c-0.6,0-1-0.5-1-1v-3.3h-7.3v3.3c0,0.6-0.5,1-1,1c-0.6,0-1-0.5-1-1v-7.5
		c0.1-1.6,1.4-2.8,2.9-2.8h5.4c1.6-0.1,2.9,1.2,2.9,2.7c0,0,0,0,0,0v7.5c0.1,0.5-0.3,0.9-0.8,1C142.5,60.2,142.4,60.2,142.4,60.2
		 M133.4,55.3h8.5v3.9c0,0.2,0.2,0.4,0.4,0.4c0.2,0,0.4-0.2,0.4-0.4v-7.5c0-1.2-1.1-2.2-2.3-2.1c0,0,0,0,0,0H135
		c-1.2,0-2.2,0.9-2.3,2.1c0,0,0,0,0,0v7.5c0,0.2,0.2,0.4,0.4,0.4c0.2,0,0.4-0.2,0.4-0.4L133.4,55.3L133.4,55.3z M142,54.6h-8.5v-2.8
		c0-0.8,0.7-1.5,1.6-1.4c0,0,0,0,0,0h5.4c0.8,0,1.5,0.6,1.6,1.4c0,0,0,0,0,0L142,54.6z M134.1,54h7.2v-2.2c-0.1-0.5-0.5-0.8-0.9-0.8
		H135c-0.5,0-0.9,0.3-0.9,0.8L134.1,54L134.1,54z"/>
</g>
</svg>
