<?xml version="1.0" encoding="utf-8"?>
<!-- Generator: Adobe Illustrator 25.3.1, SVG Export Plug-In . SVG Version: 6.00 Build 0)  -->
<svg version="1.1" id="DialogLogo" xmlns="http://www.w3.org/2000/svg" xmlns:xlink="http://www.w3.org/1999/xlink" x="0px" y="0px"
	 viewBox="0 0 210 84" style="enable-background:new 0 0 210 84;" xml:space="preserve">
<style type="text/css">
	.st0{fill:#000;}
</style>
<path id="Path_2" class="st0" d="M67.4,57.8c0.1-0.1,0.2-0.1,0.2-0.2l0.1,0.1l-0.1-0.1C67.6,57.7,67.5,57.8,67.4,57.8z"/>
<path id="Path_3" class="st0" d="M71.5,25c-2.1,0-3.8,1.7-3.8,3.8c0,0,0,0,0,0v3.5c0,0.3-0.2,0.5-0.5,0.5h-0.2
	c-1.6-0.7-3.4-1.1-5.2-1.1c-7.5,0.1-13.5,6.2-13.4,13.7c0.1,7.4,6,13.3,13.3,13.4c1.4,0,2.7-0.1,4-0.5c0.5-0.2,1-0.3,1.5-0.6
	c0.1,0,0.2-0.1,0.2-0.1c0.1,0,0.2,0,0.2,0.1c1,0.6,2.1,0.9,3.3,1h0.1c2.2,0,3.9-1.7,4-3.8V28.8C75.3,26.7,73.6,25,71.5,25
	C71.5,25,71.5,25,71.5,25z M67.7,57.6c-0.1,0.1-0.2,0.1-0.2,0.2C67.5,57.8,67.6,57.7,67.7,57.6L67.7,57.6L67.7,57.6z M68.9,52.6
	c-3.5,1.7-6,0-5.2-1.4c0.5-1,2-3.2,1.7-4.9c-0.4-2.1-2.4-3.8-4.5-4.8c-2.1-1.1-3.9-2.2-3.5-4.7c0.4-2.3,3-3.1,5.2-3.1
	c0.9,0,1.8,0.1,2.7,0.2c0.6,0.2,0.7,0.2,0.2,0.6c-0.4,0.3-1.3,1.1-0.4,2c1.4,1.6,4.5,1.5,6.7,4c1,1.3,1.6,2.8,1.6,4.4
	C73.4,44.9,73.9,50.3,68.9,52.6L68.9,52.6z"/>
<path id="Path_4" class="st0" d="M95.5,25.8v21c0,1.5,0,3,0.2,4.5h-2.8l-0.2-3h-0.1c-1.1,2.2-3.4,3.5-5.8,3.4
	c-4.1,0-7.4-3.6-7.4-8.8c0-5.8,3.5-9.3,7.7-9.3c2.7,0,4.4,1.2,5.2,2.6h0.1V25.8H95.5z M92.3,41c0-0.5,0-0.9-0.2-1.4
	c-0.5-2.1-2.4-3.6-4.5-3.6c-3.2,0-5.2,2.9-5.2,6.7c0,3.6,1.8,6.5,5.1,6.5c2.2,0,4.1-1.6,4.6-3.8c0.1-0.5,0.2-0.9,0.2-1.4L92.3,41z"
	/>
<path id="Path_5" class="st0" d="M100.6,30.7c-1,0-1.9-0.8-1.9-1.9c0-0.1,0-0.1,0-0.2c0-1.1,0.9-2,2-2.1c1.1,0,2,0.9,2.1,2
	c0,0,0,0.1,0,0.1C102.6,29.8,101.7,30.7,100.6,30.7z M99,51.3V33.9h3.1v17.4H99z"/>
<path id="Path_6" class="st0" d="M118.3,47.2c0,1.4,0.1,2.8,0.2,4.2h-2.8l-0.3-2.2h-0.1c-1.2,1.7-3.2,2.7-5.2,2.6
	c-2.7,0.2-5-1.9-5.2-4.6c0-0.1,0-0.3,0-0.4c0-4.2,3.7-6.5,10.3-6.5V40c0-1.5-0.4-4.1-3.9-4c-1.6,0-3.2,0.5-4.5,1.3l-0.7-2.1
	c1.7-1,3.7-1.5,5.6-1.5c5.3,0,6.5,3.6,6.5,7.1L118.3,47.2L118.3,47.2z M115.2,42.5c-3.4-0.1-7.3,0.6-7.3,3.9c-0.2,1.5,0.9,2.9,2.4,3
	c0.2,0,0.3,0,0.5,0c1.9,0,3.6-1.2,4.2-2.9c0.1-0.3,0.1-0.6,0.2-1L115.2,42.5z"/>
<path id="Path_7" class="st0" d="M121.5,25.8h3.1v25.5h-3.1V25.8z"/>
<path id="Path_8" class="st0" d="M135.3,51.7c-4.6,0-8.2-3.4-8.2-9c0-5.8,3.8-9.2,8.6-9.2c4.9,0,8.3,3.6,8.3,8.9
	C143.9,49,139.4,51.7,135.3,51.7z M135.4,49.4c3,0,5.2-2.9,5.2-6.8c0-2.9-1.5-6.6-5.2-6.6c-3.6,0-5.2,3.4-5.2,6.8
	C130.2,46.5,132.3,49.4,135.4,49.4L135.4,49.4z"/>
<path id="Path_9" class="st0" d="M161.5,48.8c0,4-0.8,6.5-2.4,8c-1.8,1.5-4,2.2-6.3,2.1c-2,0.1-4-0.4-5.7-1.5l0.8-2.5
	c1.5,0.9,3.2,1.4,5,1.4c3.2,0,5.6-1.7,5.6-6.1v-1.9h-0.1c-1.1,1.9-3.3,3.1-5.5,2.9c-4.3,0-7.3-3.7-7.3-8.5c0-5.9,3.8-9.2,7.7-9.2
	c2.2-0.1,4.3,1,5.3,3h0.1l0.1-2.6h2.7c-0.1,1.2-0.2,2.6-0.2,4.7v10.1H161.5z M158.4,40.8c0-0.5,0-0.9-0.2-1.4
	c-0.5-2-2.3-3.4-4.4-3.4c-3,0-5.1,2.5-5.1,6.6c0,3.4,1.8,6.3,5.1,6.3c2,0,3.8-1.3,4.4-3.3c0.2-0.6,0.2-1.1,0.2-1.7L158.4,40.8
	L158.4,40.8z"/>
<path id="Path_10" class="st0" d="M81.6,58c0.3,0.2,0.7,0.3,1.1,0.3c0.6,0,1-0.3,1-0.8s-0.2-0.7-0.9-1c-0.8-0.3-1.3-0.7-1.3-1.4
	c0-0.7,0.6-1.3,1.6-1.3c0.4,0,0.7,0,1,0.2l-0.2,0.5c-0.3-0.2-0.6-0.2-0.9-0.2c-0.6,0-0.9,0.4-0.9,0.7c0,0.5,0.3,0.7,1,1
	c0.8,0.3,1.2,0.7,1.2,1.5c0,0.8-0.7,1.5-1.6,1.5c0,0-0.1,0-0.1,0c-0.4,0-0.8-0.1-1.2-0.3L81.6,58z"/>
<path id="Path_11" class="st0" d="M88.5,56.5h-1.9v1.8h2.2v0.6H86v-5h2.7v0.6h-2V56h1.9L88.5,56.5L88.5,56.5z"/>
<path id="Path_12" class="st0" d="M94.4,56.6c0-0.7-0.1-1.6-0.1-2.1c-0.2,0.6-0.4,1.2-0.6,1.9l-0.9,2.4h-0.5l-0.8-2.4
	c-0.2-0.7-0.4-1.3-0.6-2c0,0.7-0.1,1.5-0.1,2.2l-0.2,2.1h-0.6l0.3-5h0.8l0.8,2.4c0.2,0.5,0.4,1.1,0.5,1.6c0.2-0.5,0.3-1.1,0.5-1.6
	l0.9-2.4h0.8l0.3,5h-0.6L94.4,56.6z"/>
<path id="Path_13" class="st0" d="M97.5,53.9v5h-0.6v-5H97.5z"/>
<path id="Path_14" class="st0" d="M102.8,58.7c-0.4,0.2-0.9,0.2-1.3,0.2c-1.3,0.1-2.4-0.9-2.4-2.2c0-0.1,0-0.2,0-0.3
	c-0.1-1.4,1-2.5,2.3-2.6c0.1,0,0.2,0,0.3,0c0.4,0,0.8,0.1,1.1,0.2l-0.2,0.5c-0.3-0.1-0.6-0.2-1-0.2c-1,0-1.9,0.7-1.9,1.8
	c0,0.1,0,0.2,0,0.3c-0.1,1,0.6,1.8,1.6,2c0.1,0,0.2,0,0.3,0c0.4,0,0.7-0.1,1-0.2L102.8,58.7z"/>
<path id="Path_15" class="st0" d="M106,58.9c-1.2,0-2.2-1-2.2-2.3c0-0.1,0-0.2,0-0.3c-0.1-1.3,0.8-2.5,2.1-2.6c0.1,0,0.1,0,0.2,0
	c1.4,0,2.2,1.1,2.2,2.5C108.2,58,107.3,58.9,106,58.9z M106,58.4c1,0,1.5-0.9,1.5-2c0-1-0.5-2-1.5-2s-1.6,1-1.6,2
	C104.4,57.5,105,58.4,106,58.4L106,58.4z"/>
<path id="Path_16" class="st0" d="M109.6,58.9v-5h0.7l1.5,2.5c0.3,0.5,0.6,1.1,0.9,1.6c-0.1-0.7-0.1-1.4-0.1-2v-2h0.6v5h-0.6
	l-1.5-2.5c-0.3-0.6-0.6-1.1-0.9-1.6c0,0.7,0.1,1.2,0.1,2v2.1L109.6,58.9L109.6,58.9z"/>
<path id="Path_17" class="st0" d="M114.9,54c0.5-0.1,0.9-0.1,1.4-0.1c0.7,0,1.4,0.2,2,0.6c0.5,0.5,0.7,1.1,0.7,1.8
	c0,0.7-0.2,1.4-0.7,2c-0.6,0.5-1.4,0.8-2.2,0.7c-0.4,0-0.8,0-1.1-0.1L114.9,54L114.9,54z M115.6,58.4h0.6c1,0.1,2-0.6,2.1-1.6
	c0-0.2,0-0.3,0-0.5c0-1.2-0.6-1.9-2-1.9c-0.2,0-0.5,0-0.7,0.1L115.6,58.4L115.6,58.4z"/>
<path id="Path_18" class="st0" d="M121,53.9v2.9c0,1.1,0.5,1.6,1.1,1.6c0.7,0,1.2-0.5,1.2-1.6v-2.9h0.6v2.9c0,1.6-0.8,2.1-1.9,2.1
	c-1,0-1.8-0.6-1.8-2.1v-2.9L121,53.9L121,53.9z"/>
<path id="Path_19" class="st0" d="M128.9,58.7c-0.4,0.2-0.9,0.2-1.3,0.2c-1.3,0.1-2.4-0.9-2.4-2.2c0-0.1,0-0.2,0-0.3
	c-0.1-1.4,1-2.5,2.3-2.6c0.1,0,0.2,0,0.3,0c0.4,0,0.8,0.1,1.1,0.2l-0.2,0.5c-0.3-0.1-0.6-0.2-1-0.2c-1,0-1.9,0.7-1.9,1.8
	c0,0.1,0,0.2,0,0.3c-0.1,1,0.6,1.8,1.6,2c0.1,0,0.2,0,0.3,0c0.4,0,0.7-0.1,1-0.2L128.9,58.7z"/>
<path id="Path_20" class="st0" d="M131.5,54.4h-1.5v-0.6h3.6v0.6H132v4.4h-0.6L131.5,54.4L131.5,54.4z"/>
<path id="Path_21" class="st0" d="M136.4,58.9c-1.2,0-2.2-1-2.2-2.3c0-0.1,0-0.2,0-0.3c-0.1-1.3,0.8-2.5,2.1-2.6c0.1,0,0.1,0,0.2,0
	c1.4,0,2.2,1.1,2.2,2.5C138.6,58,137.7,58.9,136.4,58.9z M136.5,58.4c1,0,1.5-0.9,1.5-2c0-1-0.5-2-1.5-2s-1.6,1-1.6,2
	C134.8,57.5,135.4,58.4,136.5,58.4L136.5,58.4z"/>
<path id="Path_22" class="st0" d="M139.8,54c0.4-0.1,0.8-0.1,1.2-0.1c0.5,0,1,0.1,1.5,0.4c0.3,0.3,0.4,0.6,0.4,1
	c0,0.6-0.3,1.1-0.9,1.2c0.4,0.2,0.6,0.5,0.7,1c0.1,0.5,0.2,0.9,0.4,1.4h-0.6c-0.1-0.4-0.2-0.8-0.3-1.2c-0.2-0.7-0.4-1-1-1h-0.6v2.1
	H140V54H139.8z M140.5,56.2h0.6c0.6,0.1,1.1-0.4,1.1-0.9c0,0,0,0,0-0.1c0-0.7-0.5-0.9-1.1-0.9c-0.2,0-0.4,0-0.6,0.1V56.2z"/>
</svg>
