<?xml version="1.0" encoding="utf-8"?>
<!-- Generator: Adobe Illustrator 28.0.0, SVG Export Plug-In . SVG Version: 6.00 Build 0)  -->
<svg version="1.1" id="Layer_1" xmlns="http://www.w3.org/2000/svg" xmlns:xlink="http://www.w3.org/1999/xlink" x="0px" y="0px"
	 viewBox="0 0 255 180" style="enable-background:new 0 0 255 180;" xml:space="preserve">
<g id="Group_23994">
	<g id="Group_23993">
		<g id="Group_23992">
			<path id="Path_25709" d="M101.2,79.4c3.2,0.1,5.7,1,7.3,2.7s2.5,4.4,2.5,7.9c0,3.5-0.8,6.2-2.5,7.9c-1.6,1.7-4.1,2.6-7.3,2.7
				h-7.4V79.4C93.8,79.4,101.2,79.4,101.2,79.4z M100.2,98.9c1.3,0,2.7-0.1,4-0.5c1-0.3,2-0.8,2.7-1.6c0.7-0.8,1.3-1.7,1.6-2.8
				c0.4-1.3,0.5-2.7,0.5-4.1c0-1.4-0.1-2.8-0.5-4.1c-0.3-1-0.8-2-1.6-2.8c-0.8-0.7-1.7-1.3-2.7-1.6c-1.3-0.4-2.6-0.5-4-0.5h-4.3
				v17.9L100.2,98.9L100.2,98.9L100.2,98.9z"/>
			<path id="Path_25710" d="M113.7,79.4l4.8,18.7h0.1l5.2-18.7h2.5l5.2,18.7h0.1l4.9-18.7h2l-5.9,21.3h-2.1l-5.4-19.1H125l-5.4,19.1
				h-2.2l-5.9-21.3H113.7L113.7,79.4z"/>
			<path id="Path_25711" d="M139.6,85.8c0.4-1.3,1-2.5,1.9-3.5c0.9-1,1.9-1.9,3.1-2.4c2.8-1.2,6-1.2,8.8,0c1.2,0.6,2.3,1.4,3.1,2.4
				c0.8,1,1.5,2.2,1.9,3.5c0.8,2.7,0.8,5.7,0,8.4c-0.4,1.3-1,2.5-1.9,3.5c-0.9,1-1.9,1.9-3.1,2.4c-2.8,1.2-6,1.2-8.8,0
				c-1.2-0.6-2.3-1.4-3.1-2.4c-0.9-1-1.5-2.2-1.9-3.5C138.8,91.5,138.8,88.6,139.6,85.8L139.6,85.8z M141.5,93.4
				c0.3,1.1,0.8,2.1,1.4,3c0.7,0.9,1.5,1.6,2.5,2.1c1.1,0.6,2.4,0.8,3.6,0.8c1.3,0,2.5-0.2,3.6-0.8c1-0.5,1.8-1.2,2.5-2.1
				c0.7-0.9,1.1-1.9,1.4-3c0.6-2.2,0.6-4.6,0-6.8c-0.3-1.1-0.8-2.1-1.4-3c-0.7-0.9-1.5-1.6-2.5-2.1c-1.1-0.6-2.4-0.8-3.6-0.8
				c-1.3,0-2.5,0.2-3.6,0.8c-1,0.5-1.8,1.2-2.5,2.1c-0.7,0.9-1.1,1.9-1.4,3C140.9,88.8,140.9,91.2,141.5,93.4z"/>
			<path id="Path_25712" d="M163.7,79.4v19.6h11.9v1.7h-14V79.4H163.7z"/>
			<path id="Path_25713" d="M179.7,79.4v19.6h11.9v1.7h-14V79.4H179.7z"/>
			<path id="Path_25714" d="M201.6,79.4l8.4,21.3h-2.2l-2.6-6.6h-9.7l-2.6,6.6h-2.1l8.6-21.3H201.6L201.6,79.4z M204.5,92.3
				l-4.1-10.9l-4.3,10.9H204.5z"/>
		</g>
	</g>
	<path id="Path_25715" d="M81.1,78.5l-16.2-9.3c-0.8-0.4-1.7-0.4-2.5,0l-16.2,9.3C45.5,79,45,79.8,45,80.7v18.7
		c0,0.9,0.5,1.7,1.2,2.1l16.2,9.3c0.8,0.4,1.7,0.4,2.5,0l16.2-9.3c0.8-0.4,1.2-1.3,1.2-2.1V80.7C82.3,79.8,81.8,79,81.1,78.5
		L81.1,78.5z M53.1,85.3v10.8l-5.6,3.2V80.7l16.2-9.3v6.4l-9.4,5.4C53.5,83.6,53.1,84.4,53.1,85.3z M62.4,87.9
		c-0.8,0.4-1.2,1.3-1.2,2.1v10.7l-5.6,3.3V85.3L71.7,76v6.5C71.7,82.5,62.4,87.9,62.4,87.9z M79.8,99.3l-16.2,9.3V90l16.2-9.3V99.3z
		"/>
</g>
</svg>
