<?xml version="1.0" encoding="utf-8"?>
<!-- Generator: Adobe Illustrator 28.0.0, SVG Export Plug-In . SVG Version: 6.00 Build 0)  -->
<svg version="1.1" id="Layer_1" xmlns="http://www.w3.org/2000/svg" xmlns:xlink="http://www.w3.org/1999/xlink" x="0px" y="0px"
	 viewBox="0 0 255 180" style="enable-background:new 0 0 255 180;" xml:space="preserve">
<path d="M145.4,88.3c0.3,0.4,0.6,0.8,0.9,1.1c1.7,1.8,3.6,3,5.9,3.8c2.3,0.8,5.1,1.5,8.4,2.2c2.6,0.5,4.5,1,5.7,1.4
	c1.2,0.4,1.7,1.1,1.7,2c0,0.7-0.4,1.3-1.3,1.7c-0.9,0.4-2.3,0.6-4.4,0.6c-2.4,0-4.9-0.4-7.4-1.1s-4.9-1.6-7-2.8l-1.4,3h-19.6
	l11.6-12.7c-3.8-0.4-7.7-0.6-11.6-0.6c-1.7,0-3.4,0-5,0.1l-7.7,8.4c0.4-1.6,0.6-3.4,0.6-5.2c0-0.9-0.1-1.8-0.1-2.7
	c-4.7,0.5-9.2,1.3-13.4,2.3v0.4c0,3.1-0.9,5.5-2.6,7.3c-1.7,1.7-4,2.6-6.9,2.6h-5.6v-5c-5.3,2.4-9.8,5.3-13.4,8.5v7.4h19.6
	c4.4,0,8.4-0.8,11.8-2.5c1.4-0.7,2.6-1.5,3.8-2.4v5.1h40.1v-1.5c1.2,0.4,2.4,0.7,3.7,1c3.4,0.8,7,1.2,10.6,1.2
	c4.4,0,8.1-0.6,11.2-1.9c3.1-1.2,5.4-2.9,6.9-5c0.3-0.4,0.6-0.9,0.9-1.3C173.1,96.3,160.4,90.8,145.4,88.3L145.4,88.3L145.4,88.3z"
	/>
<path d="M85.9,92.3V80.3h5.6c2.9,0,5.2,0.9,6.9,2.6c0.9,0.9,1.6,2.1,2,3.4c4.2-1.2,8.6-2.2,13.2-2.8c-0.3-1.1-0.7-2.2-1.2-3.1h15.1
	l-2.1,2.3h1.2c5.1,0,10.1,0.4,14.8,1.2l2.2-2.4c0,0.2,0,0.5,0,0.8c0,0.7,0.1,1.4,0.1,2c15.9,3,29.2,10,37.4,18.6
	c0.8-1.6,1.2-3.4,1.2-5.2c0-3-0.9-5.4-2.5-7.1c-1.7-1.7-3.7-3-6-3.7c-2.3-0.8-5.1-1.5-8.4-2c-2.6-0.5-4.4-0.9-5.6-1.3
	c-1.1-0.4-1.7-1.1-1.7-1.9c0-1.7,1.9-2.6,5.7-2.6s7.9,1,12.2,3.1l4.4-10.1c-2.2-1.2-4.8-2.1-7.7-2.7c-2.9-0.6-5.9-0.9-8.8-0.9
	c-4.4,0-8.1,0.6-11.2,1.9c-2.6,1.1-4.7,2.4-6.2,4.1v-4.7h-38.5v5.3c-1.3-1.2-2.8-2.2-4.4-2.9c-3.4-1.7-7.3-2.5-11.7-2.5H72.5v32.9
	C76.1,98.5,80.6,95.1,85.9,92.3L85.9,92.3z"/>
</svg>
