<?xml version="1.0" encoding="utf-8"?>
<!-- Generator: Adobe Illustrator 25.3.1, SVG Export Plug-In . SVG Version: 6.00 Build 0)  -->
<svg version="1.1" id="Layer_1" xmlns="http://www.w3.org/2000/svg" xmlns:xlink="http://www.w3.org/1999/xlink" x="0px" y="0px"
	 viewBox="0 0 210 84" style="enable-background:new 0 0 210 84;" xml:space="preserve">
<style type="text/css">
	.st0{fill-rule:evenodd;clip-rule:evenodd;fill:#fff;}
</style>
<g id="EA_Logo" transform="translate(-20.4 -30.8)">
	<g id="Group_3349" transform="translate(20.4 30.8)">
		<path id="Path_870" class="st0" d="M126.2,25.4h0.5v-2.5h0.9v-0.4h-2.4v0.4h0.9V25.4L126.2,25.4z M128.5,23.1L128.5,23.1l0.8,2.3
			h0.4l0.8-2.3h0v2.3h0.5v-2.9h-0.7l-0.8,2.3h0l-0.8-2.3H128v2.9h0.5L128.5,23.1z M113.7,22.4H81.6l-4.9,7.8h32L113.7,22.4z
			 M120.2,22.5l-19.6,31.2H78.9l5-7.8h13l5-7.8H71.8l-5,7.8h7.1L64,61.6h41.3l15.3-24.1l5.6,8.5h-5l-4.8,7.8h14.9l5.2,7.8h9.5
			L120.2,22.5z"/>
	</g>
</g>
</svg>
