<?xml version="1.0" encoding="utf-8"?>
<!-- Generator: Adobe Illustrator 25.3.1, SVG Export Plug-In . SVG Version: 6.00 Build 0)  -->
<svg version="1.1" id="Egnyte" xmlns="http://www.w3.org/2000/svg" xmlns:xlink="http://www.w3.org/1999/xlink" x="0px" y="0px"
	 viewBox="0 0 210 84" style="enable-background:new 0 0 210 84;" xml:space="preserve">
<style type="text/css">
	.st0{fill-rule:evenodd;clip-rule:evenodd;fill:#fff;}
</style>
<path id="Path_1197" class="st0" d="M55.9,50.1h-10V47h8.9c0.2,0,0.4-0.2,0.4-0.4c0,0,0,0,0,0v-3.5c0-0.2-0.2-0.4-0.4-0.4
	c0,0,0,0,0,0h-8.9v-3h9.9c0.2,0,0.4-0.2,0.4-0.4c0,0,0,0,0,0v-3.8c0-0.2-0.2-0.4-0.4-0.4c0,0,0,0,0,0H40.9c-0.2,0-0.4,0.2-0.4,0.4
	v18.8c0,0.2,0.2,0.4,0.4,0.4c0,0,0,0,0,0h15c0.2,0,0.4-0.2,0.4-0.4c0,0,0,0,0,0v-3.8C56.3,50.3,56.1,50.1,55.9,50.1
	C55.9,50.1,55.9,50.1,55.9,50.1z M77.2,43.3h-8.1c-0.2,0-0.4,0.2-0.4,0.4c0,0,0,0,0,0v3.1c0,0.2,0.2,0.4,0.4,0.4c0,0,0,0,0,0h3.4
	v2.3c0,0,0,0,0,0.1c-0.9,0.6-2,0.8-3.1,0.8c-2.9,0.1-5.2-2.2-5.3-5c0-0.1,0-0.3,0-0.4v-0.1c-0.1-2.8,2-5.2,4.9-5.4c0,0,0.1,0,0.1,0
	c1.6,0,3.2,0.6,4.4,1.6c0.2,0.1,0.4,0.1,0.6-0.1l2.7-3.2c0.1-0.2,0.1-0.4-0.1-0.6c0,0,0,0,0,0c-2.1-1.8-4.8-2.7-7.6-2.6
	c-5.6-0.2-10.3,4.2-10.5,9.8c0,0.1,0,0.3,0,0.4V45c0,5.9,4.5,10.1,10.6,10.1c3,0,6-1,8.3-2.9c0.1-0.1,0.2-0.2,0.1-0.3v-8.2
	C77.6,43.4,77.4,43.3,77.2,43.3C77.2,43.3,77.2,43.3,77.2,43.3L77.2,43.3z M98.5,35.1H94c-0.2,0-0.4,0.2-0.4,0.4c0,0,0,0,0,0v10
	l-7.9-10.2c-0.1-0.1-0.2-0.2-0.3-0.2H81c-0.2,0-0.4,0.2-0.4,0.4c0,0,0,0,0,0v18.8c0,0.2,0.2,0.4,0.4,0.4c0,0,0,0,0,0h4.5
	c0.2,0,0.4-0.2,0.4-0.4c0,0,0,0,0,0V44l8.2,10.6c0.1,0.1,0.2,0.2,0.3,0.2h4.1c0.2,0,0.4-0.2,0.4-0.4c0,0,0,0,0,0V35.5
	C99,35.3,98.8,35.1,98.5,35.1L98.5,35.1z M150.1,35.1h-16.3c-0.2,0-0.4,0.2-0.4,0.4c0,0,0,0,0,0v3.9c0,0.2,0.2,0.4,0.4,0.4
	c0,0,0,0,0,0h5.4v14.4c0,0.2,0.2,0.4,0.4,0.4c0,0,0,0,0,0h4.6c0.2,0,0.4-0.2,0.4-0.4c0,0,0,0,0,0V39.9c0,0,0-0.1,0.1-0.1h5.4
	c0.2,0,0.4-0.2,0.4-0.4c0,0,0,0,0,0v-3.9C150.5,35.3,150.3,35.1,150.1,35.1L150.1,35.1z M169.1,50.1h-10V47h8.9
	c0.2,0,0.4-0.2,0.4-0.4c0,0,0,0,0,0v-3.5c0-0.2-0.2-0.4-0.4-0.4c0,0,0,0,0,0H159v-3h9.9c0.2,0,0.4-0.2,0.4-0.4c0,0,0,0,0,0v-3.8
	c0-0.2-0.2-0.4-0.4-0.4c0,0,0,0,0,0h-14.8c-0.2,0-0.4,0.2-0.4,0.4c0,0,0,0,0,0v18.8c0,0.2,0.2,0.4,0.4,0.4c0,0,0,0,0,0h15
	c0.2,0,0.4-0.2,0.4-0.4c0,0,0,0,0,0v-3.8C169.5,50.3,169.3,50.1,169.1,50.1L169.1,50.1z"/>
<path id="Path_1198" class="st0" d="M117.3,35.4h-2.2c-0.2,0-0.3-0.1-0.3-0.3v-8.7c0-0.2,0.1-0.3,0.3-0.3h2.2c0.2,0,0.3,0.1,0.3,0.3
	v8.7C117.6,35.2,117.4,35.4,117.3,35.4z"/>
<path id="Path_1199" class="st0" d="M122,47.5l1.1-2c0.1-0.1,0.2-0.2,0.4-0.1l7.5,4.3c0.1,0.1,0.2,0.2,0.1,0.4l-1.1,1.9
	c-0.1,0.1-0.2,0.2-0.4,0.1l-7.4-4.3C122,47.8,121.9,47.6,122,47.5z"/>
<path id="Path_1200" class="st0" d="M109.2,45.5l1.1,2c0.1,0.1,0,0.3-0.1,0.4l-7.5,4.3c-0.1,0.1-0.3,0-0.4-0.1c0,0,0,0,0,0l-1.1-2
	c-0.1-0.1,0-0.3,0.1-0.4c0,0,0,0,0,0l7.5-4.3C109,45.4,109.1,45.4,109.2,45.5C109.2,45.5,109.2,45.5,109.2,45.5z"/>
<path id="Path_1201" class="st0" d="M130.3,37.3l-2.3-4c-0.1-0.2-0.4-0.3-0.7-0.2l-11.1,6.5l-11.1-6.5c-0.2-0.1-0.5-0.1-0.7,0.2
	l-2.3,4c-0.1,0.2-0.1,0.5,0.2,0.7l11.1,6.5v12.9c0,0.3,0.2,0.5,0.5,0.5h4.6c0.3,0,0.5-0.2,0.5-0.5V44.4l11.1-6.5
	C130.3,37.8,130.4,37.5,130.3,37.3z"/>
</svg>
