<?xml version="1.0" encoding="utf-8"?>
<!-- Generator: Adobe Illustrator 25.3.1, SVG Export Plug-In . SVG Version: 6.00 Build 0)  -->
<svg version="1.1" id="Layer_2_1_" xmlns="http://www.w3.org/2000/svg" xmlns:xlink="http://www.w3.org/1999/xlink" x="0px" y="0px"
	 viewBox="0 0 210 84" style="enable-background:new 0 0 210 84;" xml:space="preserve">
<style type="text/css">
	.st0{fill:#fff;}
</style>
<g id="Layer_1" transform="translate(0 0)">
	<path id="Path_23" class="st0" d="M127.2,49.2h1.9l2.5-4l-1.1-1.8h-2.4l-2.3,3.6L127.2,49.2z"/>
	<path id="Path_24" class="st0" d="M123,43.3h-2.4l-1.1,1.8l2.5,4h4.7L123,43.3z"/>
	<path id="Path_25" class="st0" d="M134.5,41.5l4.5,7.7l0,0h-4.6l0,0l0,0l-2.3-3.9L134.5,41.5z"/>
	<path id="Path_26" class="st0" d="M131.9,44.8l-6.1-10.3l2.3-3.9l6.1,10.4L131.9,44.8z"/>
	<path id="Path_27" class="st0" d="M139,49.5h-11.5l2.5,3.9h6.8L139,49.5z"/>
	<path id="Path_28" class="st0" d="M127.8,30.5h-4.5l-4.8,8.1h4.5L127.8,30.5z"/>
	<path id="Path_29" class="st0" d="M118.2,39L112,49.4l2.3,3.9l8.4-14.3H118.2z"/>
	<path id="Path_30" class="st0" d="M127,49.5L127,49.5l2.5,3.9h-14.8l2.3-3.9H127"/>
	<path id="Path_31" class="st0" d="M130.3,43l-2.3-3.9h-5l-2.3,3.9H130.3z"/>
	<path id="Path_32" class="st0" d="M130.5,31.3c0-0.5,0.4-1,0.9-1c0.5,0,1,0.4,1,0.9c0,0,0,0.1,0,0.1c0,0.5-0.4,1-0.9,1
		C130.9,32.3,130.5,31.9,130.5,31.3C130.5,31.4,130.5,31.3,130.5,31.3z M132.1,31.3c0-0.4-0.3-0.8-0.7-0.8c-0.4,0-0.8,0.3-0.8,0.7
		c0,0,0,0.1,0,0.1c0,0.4,0.3,0.8,0.7,0.8C131.8,32.1,132.1,31.8,132.1,31.3C132.1,31.4,132.1,31.3,132.1,31.3z M131,30.8h0.4
		c0.2,0,0.4,0.1,0.4,0.3c0,0.1-0.1,0.2-0.2,0.3l0.2,0.4h-0.2l-0.2-0.3h-0.2v0.3H131L131,30.8z M131.4,31.3c0.1,0,0.2-0.1,0.2-0.2
		s-0.1-0.2-0.2-0.2h-0.1v0.3L131.4,31.3z"/>
	<path id="Path_33" class="st0" d="M71,30.9c0-0.2,0.1-0.3,0.2-0.3c0,0,0.1,0,0.1,0H83c0.2,0,0.3,0.1,0.3,0.3c0,0,0,0.1,0,0.1v3
		c0,0.2-0.1,0.3-0.2,0.3c0,0-0.1,0-0.1,0h-7.3c-0.1,0-0.2,0.1-0.2,0.2c0,0,0,0,0,0v5.3c0,0.1,0.1,0.2,0.2,0.2c0,0,0,0,0,0h6.8
		c0.2,0,0.3,0.1,0.3,0.3c0,0,0,0.1,0,0.1v2.8c0,0.2-0.1,0.3-0.3,0.3c0,0-0.1,0-0.1,0h-6.8c-0.1,0-0.2,0.1-0.2,0.2c0,0,0,0,0,0v5.9
		c0,0.1,0.1,0.2,0.2,0.2c0,0,0,0,0,0h7.8c0.2,0,0.3,0.1,0.3,0.3c0,0,0,0.1,0,0.1v3.1c0,0.2-0.1,0.3-0.3,0.3c0,0-0.1,0-0.1,0H71.3
		c-0.2,0-0.3-0.1-0.3-0.3c0,0,0-0.1,0-0.1V30.9z"/>
	<path id="Path_34" class="st0" d="M88.3,53.4c-0.2,0-0.3-0.1-0.3-0.3c0,0,0-0.1,0-0.1V30.9c0-0.2,0.1-0.3,0.2-0.3c0,0,0.1,0,0.1,0
		h3.8c0.2,0,0.3,0.1,0.3,0.3c0,0,0,0.1,0,0.1v22.2c0,0.2-0.1,0.3-0.3,0.3c0,0-0.1,0-0.1,0H88.3z"/>
	<path id="Path_35" class="st0" d="M108.9,34.5c-0.3-0.1-0.7-0.1-1.1-0.2c-0.4-0.1-0.8-0.1-1.3-0.2c-0.4,0-0.9-0.1-1.4-0.1
		c-0.5,0-0.9,0-1.2,0c-0.7-0.1-1.5,0.1-2.1,0.5c-0.5,0.5-0.7,1.2-0.6,1.8c0,0.3,0,0.6,0.1,0.9c0.1,0.3,0.3,0.6,0.5,0.9
		c0.4,0.4,0.8,0.8,1.2,1.1c0.5,0.4,1.2,0.9,2.1,1.6c0.7,0.5,1.3,1,1.9,1.4c0.5,0.4,1,0.9,1.4,1.5c0.4,0.5,0.6,1.1,0.8,1.7
		c0.2,0.7,0.3,1.4,0.3,2.2c0,2.2-0.6,3.7-1.7,4.7c-1.4,1-3.1,1.5-4.9,1.4c-1.2,0-2.5-0.1-3.7-0.2c-0.9-0.1-1.8-0.2-2.6-0.4
		c-0.2,0-0.3-0.1-0.3-0.3l0.2-3c0-0.1,0.1-0.2,0.2-0.2c0,0,0,0,0.1,0c0.9,0.2,1.7,0.3,2.6,0.4c0.9,0.1,1.7,0.1,2.6,0.1
		c0.8,0.1,1.5-0.1,2.2-0.5c0.5-0.5,0.7-1.2,0.7-1.9c0-0.3,0-0.6-0.1-0.9c-0.1-0.4-0.3-0.7-0.6-1c-0.4-0.5-0.9-1-1.4-1.4
		c-0.6-0.5-1.5-1.3-2.7-2.1c-0.6-0.5-1.2-1-1.8-1.5c-0.4-0.4-0.8-0.9-1.1-1.4c-0.3-0.5-0.4-1-0.5-1.5c-0.1-0.5-0.1-1.1-0.1-1.6
		c0-1,0.1-1.9,0.5-2.8c0.3-0.7,0.8-1.3,1.4-1.8c0.7-0.5,1.5-0.8,2.3-0.9c1.1-0.2,2.1-0.3,3.2-0.3c0.5,0,1,0,1.5,0
		c0.5,0,1,0.1,1.5,0.2c0.5,0.1,0.9,0.1,1.3,0.2c0.3,0.1,0.6,0.1,0.9,0.3c0.1,0.1,0.2,0.2,0.2,0.3l-0.2,2.9
		C109.1,34.4,109,34.4,108.9,34.5C108.9,34.5,108.9,34.5,108.9,34.5L108.9,34.5z"/>
	<path id="Path_36" class="st0" d="M110.3,30.7v-0.2h1.1v0.2H111v1h-0.3v-1H110.3z"/>
	<path id="Path_37" class="st0" d="M111.9,30.5l0.3,0.9l0,0l0.3-0.9h0.4v1.3h-0.3v-0.9l0,0l-0.3,0.9h-0.2l-0.3-0.9l0,0v0.9h-0.3
		v-1.3L111.9,30.5z"/>
</g>
</svg>
