<?xml version="1.0" encoding="utf-8"?>
<!-- Generator: Adobe Illustrator 25.3.1, SVG Export Plug-In . SVG Version: 6.00 Build 0)  -->
<svg version="1.1" id="Layer_1_1_" xmlns="http://www.w3.org/2000/svg" xmlns:xlink="http://www.w3.org/1999/xlink" x="0px" y="0px"
	 viewBox="0 0 210 84" style="enable-background:new 0 0 210 84;" xml:space="preserve">
<style type="text/css">
	.st0{fill:#fff;}
</style>
<path id="Path_38" class="st0" d="M114.9,35.9c-2.4-2.3-6.1-2.3-8.5,0c-2.3,2.3-2.3,6-0.1,8.4c0,0,0,0,0.1,0.1
	c2.4,2.3,6.1,2.3,8.5,0C117.2,42,117.2,38.3,114.9,35.9C114.9,35.9,114.9,35.9,114.9,35.9 M110.4,39.8c-0.8,0.8-2,0.8-2.8,0
	c-0.8-0.7-0.8-2,0-2.7c0,0,0,0,0,0c0.8-0.8,2-0.8,2.8,0C111.2,37.8,111.2,39,110.4,39.8"/>
<path id="Path_39" class="st0" d="M51.6,30.1h14.8v2.2H54.1v6h11v2.1h-11v7.4h12.8V50H51.6V30.1z M70.9,52c0.7,0,1.5-0.2,2.1-0.5
	c0.7-0.5,1.2-1.3,1.5-2.1l0.1-0.3l-6.9-14h2.5l4.5,9.4l1,2.3l1-2.4l4.1-9.3h2.5l-6.9,15.4c-0.3,0.7-0.7,1.4-1.2,2.1
	c-0.4,0.5-0.9,0.9-1.5,1.2c-0.4,0.2-0.9,0.3-1.4,0.4c-0.5,0.1-1,0.1-1.4,0.1L70.9,52L70.9,52z M95.9,41.6c-0.1-1.3-0.7-2.5-1.6-3.4
	c-1.9-1.8-4.8-1.8-6.7,0c-1,0.9-1.6,2.1-1.7,3.4L95.9,41.6z M85.6,37c1.4-1.5,3.3-2.3,5.4-2.3c2,0,3.8,0.8,5.1,2.3
	c1.4,1.4,2.2,3.4,2.1,5.4l-0.1,1H85.9c0.1,1.4,0.8,2.6,1.8,3.5c1,0.9,2.3,1.3,3.7,1.3c1.7,0,3.4-0.6,4.6-1.7l1.1,1.7
	c-1.6,1.4-3.7,2.2-5.8,2.1c-2.1,0-4.1-0.7-5.7-2.2c-1.5-1.4-2.4-3.5-2.3-5.6C83.4,40.5,84.2,38.5,85.6,37 M123.9,35h2.5V44
	c0,2.8,1.4,4.3,4.2,4.3c1.2,0,2.4-0.4,3.3-1.3c0.9-0.9,1.4-2.1,1.3-3.4V35h2.5v15h-2.5v-2.2c-1.1,1.7-3.1,2.7-5.2,2.5
	c-1.7,0.1-3.4-0.5-4.7-1.7c-1-1.2-1.6-2.8-1.5-4.3L123.9,35L123.9,35z M152.6,41.6c-0.1-1.3-0.7-2.5-1.6-3.4c-1.9-1.8-4.8-1.8-6.7,0
	c-0.9,0.9-1.5,2.1-1.7,3.4L152.6,41.6z M142.4,37c1.4-1.5,3.3-2.3,5.4-2.3c2,0,3.8,0.8,5.1,2.3c1.4,1.5,2.2,3.4,2.1,5.4l-0.1,1
	h-12.3c0.1,1.4,0.8,2.6,1.8,3.5c1,0.9,2.3,1.3,3.7,1.3c1.7,0,3.4-0.6,4.7-1.7l1.1,1.7c-1.6,1.4-3.7,2.2-5.8,2.1
	c-2.1,0-4.1-0.7-5.7-2.2c-1.5-1.4-2.4-3.5-2.3-5.6C140.1,40.5,140.9,38.5,142.4,37 M104.9,45.8c-3.2-3.2-3.2-8.3-0.1-11.5
	c3.2-3.2,8.3-3.2,11.5-0.1s3.2,8.3,0.1,11.5c-1.5,1.5-3.6,2.4-5.8,2.4C108.5,48.1,106.4,47.3,104.9,45.8 M122,49.7l-3.2-3.2
	c3.3-4.1,3-10-0.8-13.6c-4-4-10.5-4-14.5,0c-4,4-4,10.5,0,14.5c3.7,3.7,9.6,4.1,13.7,0.8l3.2,3.2L122,49.7L122,49.7z M154.9,36.1
	c-0.4-0.4-0.6-0.9-0.6-1.5c0-1.1,0.9-2.1,2.1-2.1s2.1,0.9,2.1,2.1c0,1.1-0.9,2.1-2.1,2.1C155.8,36.7,155.3,36.5,154.9,36.1z
	 M157.5,35.8c0.3-0.3,0.5-0.7,0.5-1.2c0-0.4-0.2-0.9-0.5-1.2c-0.3-0.3-0.7-0.5-1.2-0.5c-0.4,0-0.9,0.2-1.2,0.5
	c-0.3,0.3-0.5,0.7-0.5,1.2c0,0.4,0.2,0.9,0.5,1.2C155.8,36.5,156.9,36.5,157.5,35.8C157.5,35.8,157.5,35.8,157.5,35.8z M155.9,35.6
	h-0.4v-2h1c0.2,0,0.4,0.1,0.5,0.2c0.1,0.1,0.2,0.3,0.2,0.4c0,0.1,0,0.3-0.1,0.4c-0.1,0.1-0.2,0.2-0.3,0.2l0.5,0.8h-0.5l-0.5-0.7
	h-0.4L155.9,35.6L155.9,35.6z M155.9,34v0.6h0.5c0.1,0,0.2,0,0.3-0.1c0.1-0.1,0.1-0.1,0.1-0.2c0-0.1,0-0.2-0.1-0.2
	c-0.1-0.1-0.2-0.1-0.3-0.1L155.9,34L155.9,34z"/>
</svg>
