<?xml version="1.0" encoding="utf-8"?>
<!-- Generator: Adobe Illustrator 25.3.1, SVG Export Plug-In . SVG Version: 6.00 Build 0)  -->
<svg version="1.1" id="Layer_1" xmlns="http://www.w3.org/2000/svg" xmlns:xlink="http://www.w3.org/1999/xlink" x="0px" y="0px"
	 viewBox="0 0 210 84" style="enable-background:new 0 0 210 84;" xml:space="preserve">
<style type="text/css">
	.st0{fill:#000;}
</style>
<g id="Facebook_Logo" transform="translate(-8.64 -12.218)">
	<path id="Path_871" class="st0" d="M65.9,42.7v3.6h-2c0,0-1.8-0.3-1.8,1.5v2.8h3.8l-0.4,3.9h-3.3v10.9h-4.3V54.3h-2.9v-3.8h3.1
		v-3.3c-0.2-1.2,0.3-2.4,1.2-3.3c1-0.9,2.3-1.4,3.7-1.3L65.9,42.7z"/>
	<path id="Path_872" class="st0" d="M76.3,50.6v1.9c-1-1.4-2.6-2.3-4.4-2.4c-3.4,0-6.1,3-6.1,7.8c0,4.8,2.7,7.8,6.1,7.8
		c1.8-0.1,3.4-0.9,4.4-2.4l0,1.9h4.2V50.6H76.3z M76.1,59.4c0,1.6-1.2,2.8-2.7,2.9c-1.6,0-2.8-1.2-2.9-2.7c0,0,0-0.1,0-0.1v-2.8
		c0-1.6,1.2-2.8,2.7-2.9c1.6,0,2.8,1.2,2.9,2.7c0,0,0,0.1,0,0.1V59.4z"/>
	<path id="Path_873" class="st0" d="M114.6,65.3v-1.9c1,1.4,2.6,2.3,4.4,2.4c3.4,0,6.1-3,6.1-7.8c0-4.8-2.7-7.8-6.1-7.8
		c-1.8,0.1-3.4,0.9-4.4,2.4l0-9.7l-4.3,0.5v21.9L114.6,65.3z M114.9,56.5c0-1.6,1.2-2.8,2.7-2.9s2.8,1.2,2.9,2.7c0,0,0,0.1,0,0.1
		v2.8c0,1.6-1.2,2.8-2.7,2.9c-1.6,0-2.8-1.2-2.9-2.7c0,0,0-0.1,0-0.1V56.5z"/>
	<path id="Path_874" class="st0" d="M90,62.2c0,0-3.3,0.2-3.3-4.1v-0.2c0-4.3,3.3-4.1,3.3-4.1c2.3,0,3.1,0.8,3.1,0.8l1.1-3.2
		c-1.8-1.3-7.3-1.6-9.8,0.7c-2.1,2-2.1,5.1-2.1,6c0,0.8,0,4,2.1,6c2.5,2.3,7.9,2,9.8,0.7L93,61.4C93,61.4,92.2,62.2,90,62.2z"/>
	<path id="Path_875" class="st0" d="M108.5,59.5c0,0,1.8-9.2-6.6-9.2s-7.2,8.3-7.2,8.3c0.2,5.1,2.5,6.5,6.5,7c2.4,0.3,4.8-0.1,7-1.1
		l-0.9-3c-1.9,0.6-3.8,0.8-5.8,0.8c-1.4-0.1-2.5-1.4-2.4-2.8c0,0,0,0,0,0H108.5z M99.1,56.5c0,0-0.2-3.3,2.7-3.3s2.7,3.3,2.7,3.3
		H99.1z"/>
	<path id="Path_876" class="st0" d="M133.7,50.4c-5.5,0-7.3,3.3-7.3,7.7c0,4.7,2.4,7.7,7.3,7.7c4,0,7.3-2.7,7.3-7.7
		C141,53.8,138.9,50.4,133.7,50.4z M136.6,59.3c0,1.6-1.3,2.9-2.9,2.9s-2.9-1.3-2.9-2.9v-2.8c0-1.6,1.3-2.9,2.9-2.9s2.9,1.3,2.9,2.9
		l0,0V59.3z"/>
	<path id="Path_877" class="st0" d="M149.8,50.4c-5.5,0-7.3,3.3-7.3,7.7c0,4.7,2.4,7.7,7.3,7.7c4,0,7.3-2.7,7.3-7.7
		C157.1,53.8,155,50.4,149.8,50.4z M152.7,59.3c0,1.6-1.3,2.9-2.9,2.9s-2.9-1.3-2.9-2.9v-2.8c0-1.6,1.3-2.9,2.9-2.9s2.9,1.3,2.9,2.9
		l0,0V59.3z"/>
	<path id="Path_878" class="st0" d="M172.4,65.3l-4.8-7.4l4.6-7.4h-4.7l-4.5,6.6V42.8l-4.4,0.5v22h4.4v-7.5l4.8,7.5L172.4,65.3z"/>
</g>
</svg>
