<?xml version="1.0" encoding="utf-8"?>
<!-- Generator: Adobe Illustrator 25.3.1, SVG Export Plug-In . SVG Version: 6.00 Build 0)  -->
<svg version="1.1" id="Layer_1" xmlns="http://www.w3.org/2000/svg" xmlns:xlink="http://www.w3.org/1999/xlink" x="0px" y="0px"
	 viewBox="0 0 210 84" style="enable-background:new 0 0 210 84;" xml:space="preserve">
<style type="text/css">
	.st0{fill:#fff;}
</style>
<path id="financialforce-logo-vector" class="st0" d="M64.5,37.7v8.7h-1.4v-8.7H64.5z M73.6,37.7H75v8.7h-1.2l-4.6-6.2v6.2h-1.4
	v-8.7h1.3l4.4,6L73.6,37.7L73.6,37.7z M86.2,46.4h-1.5l-0.8-2.1h-3.9L79,46.4h-1.5l3.7-8.7h1.3L86.2,46.4z M81.9,39.4l-1.3,3.5h2.8
	L81.9,39.4z M94.5,37.7h1.4v8.7h-1.2l-4.5-6.2v6.2h-1.4v-8.6h1.3l4.4,6L94.5,37.7z M103.2,46.5c-2.3-0.1-4.2-1.9-4.2-4.3V42
	c0-2.5,2-4.5,4.5-4.5c0,0,0,0,0,0c1.2,0,2.3,0.5,3,1.4l-0.9,1.1c-0.6-0.7-1.4-1.1-2.3-1.1c-1.6,0.1-2.8,1.4-2.7,3V42
	c-0.1,1.6,1,2.9,2.6,3c0,0,0,0,0,0h0.1c0.9,0,1.8-0.4,2.4-1.1l0.9,1C105.7,45.9,104.5,46.5,103.2,46.5L103.2,46.5z M110.7,37.7v8.7
	h-1.4v-8.7L110.7,37.7z M121.9,46.4h-1.5l-0.8-2.1h-3.9l-0.9,2.1h-1.5l3.7-8.7h1.3L121.9,46.4z M117.6,39.4l-1.4,3.5h2.8L117.6,39.4
	z M124.5,37.7h1.4v7.2h4.3v1.4h-5.8L124.5,37.7L124.5,37.7z M145.8,46.5c-2.4,0-4.3-1.9-4.3-4.3V42c0-2.4,1.9-4.5,4.3-4.6
	c2.4,0.1,4.4,2.1,4.3,4.5c0,0,0,0,0,0c0.1,2.4-1.8,4.4-4.1,4.5c0,0,0,0,0,0H145.8z M145.8,38.9c-1.6,0-2.8,1.3-2.7,2.9c0,0,0,0,0,0
	V42c-0.1,1.6,1.1,2.9,2.7,3c1.6,0,2.8-1.2,2.9-2.7c0,0,0-0.1,0-0.1v-0.3c0.1-1.6-1.1-2.9-2.7-3C145.8,38.9,145.8,38.9,145.8,38.9
	L145.8,38.9z M158.3,46.4l-2-3h-1.9v3h-1.4v-8.7h3.7c1.9,0,3.1,1.1,3.1,2.8c0.1,1.2-0.8,2.3-2,2.6l2.2,3.3L158.3,46.4z M156.5,39.1
	h-2.1V42h2.1c0.8,0.1,1.5-0.4,1.6-1.2c0-0.1,0-0.2,0-0.3C158.3,39.6,157.6,39.1,156.5,39.1L156.5,39.1z M166.4,46.5
	c-2.3-0.1-4.2-1.9-4.2-4.3V42c0-2.5,2-4.5,4.5-4.5c0,0,0,0,0,0c1.2,0,2.2,0.5,3,1.4l-0.9,1.1c-0.6-0.7-1.4-1.1-2.3-1.1
	c-1.6,0.1-2.8,1.4-2.7,3V42c-0.1,1.6,1,2.9,2.6,3c0,0,0,0,0,0h0.1c0.9,0,1.8-0.4,2.4-1.1l0.9,1C169,46,167.7,46.5,166.4,46.5
	L166.4,46.5z M178.6,39.1H174v2.3h4.2v1.3H174V45h4.7v1.4h-6.2v-8.7h6.1C178.6,37.7,178.6,39.1,178.6,39.1z M54,37.7v3h1.4v-1.5h4.7
	v-1.4H54z M54,41.4v5h1.4v-3.5h4.2v-1.5L54,41.4z M132.9,37.7v3h1.4v-1.5h4.7v-1.4H132.9z M132.9,41.4v5h1.4v-3.5h4.2v-1.5
	L132.9,41.4z M48.3,39.6c-0.2-0.8-0.5-1.6-0.9-2.3c-0.3-0.5-0.6-1-1.1-1.4c-0.1,0-0.1,0-0.1-0.1c-0.7-0.3-1.5-0.4-2.3-0.3
	c-0.4,0-0.8,0.1-1.1,0.1c-0.5,0.1-1,0.4-1.4,0.7c-1.2,1.3-1.9,2.9-2,4.6v0.4h-2.2c-0.1,0-0.1,0.1-0.2,0.1l-0.2,1.4h2.6
	c-0.1,0.5-0.1,1.1-0.3,1.6c-0.2,0.5-0.4,0.9-0.6,1.4c-0.2,0.3-0.4,0.6-0.6,0.7c-0.5,0.4-1.2,0.6-1.9,0.7c-0.6,0-1.3-0.3-1.6-0.8
	C33.4,45.1,33,43.5,33,42l0,0c-0.1-4.1,3.1-7.4,7.2-7.5l0,0c0.8,0,1.6,0.1,2.3,0.4c0.6-0.2,1.2-0.3,1.8-0.2c0.4,0,0.8,0.1,1.1,0.1
	c-1.5-1.1-3.3-1.7-5.1-1.8c-4.9,0-8.9,3.9-8.9,8.8c0,0,0,0,0,0.1v0.1c0,0.9,0.1,1.7,0.4,2.5c0.2,0.8,0.5,1.6,0.9,2.3
	c0.3,0.5,0.6,1,1.1,1.4c0.1,0,0.1,0,0.1,0.1c0.7,0.2,1.5,0.3,2.3,0.3c0.4,0,0.8-0.1,1.1-0.1c0.5-0.1,1-0.4,1.4-0.7
	c1.2-1.3,1.9-2.9,2-4.6l0.1-0.3h2.2c0.1,0,0.1-0.1,0.2-0.1l0.2-1.4h-2.6c0.1-0.5,0.1-1.1,0.3-1.6c0.2-0.5,0.4-0.9,0.6-1.4
	c0.2-0.3,0.4-0.6,0.6-0.7c0.5-0.4,1.2-0.6,1.9-0.7c0.6,0,1.3,0.3,1.6,0.8c0.9,1.3,1.4,2.8,1.3,4.4l0,0c0,4.1-3.3,7.4-7.3,7.5
	c-0.7,0-1.5-0.1-2.2-0.4c-0.6,0.2-1.2,0.3-1.8,0.2c-0.4,0-0.8-0.1-1.1-0.1c1.4,1.2,3.2,1.8,5.1,1.8h0.2c4.8-0.1,8.6-4.1,8.6-8.9
	C48.6,41.3,48.5,40.4,48.3,39.6z"/>
</svg>
