<?xml version="1.0" encoding="utf-8"?>
<!-- Generator: Adobe Illustrator 28.0.0, SVG Export Plug-In . SVG Version: 6.00 Build 0)  -->
<svg version="1.1" id="Layer_1" xmlns="http://www.w3.org/2000/svg" xmlns:xlink="http://www.w3.org/1999/xlink" x="0px" y="0px"
	 viewBox="0 0 255 180" style="enable-background:new 0 0 255 180;" xml:space="preserve">
<g id="layer1">
	<g id="g3449">
		<polygon id="polygon3385" points="135.1,103.3 142.6,103.3 144.9,83.4 153,83.4 153.7,77 130.2,77 129.4,83.4 137.5,83.4 		"/>
		<polygon id="polygon3387" points="152.6,103.3 174.4,103.3 175.1,97.1 160.7,97.1 161.2,92.9 174.1,92.9 174.8,87.2 161.9,87.2 
			162.3,83.2 176.6,83.2 177.3,77 155.7,77 		"/>
		<path id="path3389" d="M194.9,86.4L194.9,86.4c-0.2,2-1.8,3.2-4.4,3.2h-4.9l0.7-6.3h4.9C193.7,83.3,195.1,84.3,194.9,86.4
			 M200.8,79.8c-1.6-1.8-4.3-2.9-8.4-2.9h-12.7l-3.1,26.3h7.4l0.9-8h3.3l4.5,8h8.6l-5.3-9.2c3.5-1.4,6-4.1,6.5-8.1v-0.1
			C202.7,83.3,202.2,81.3,200.8,79.8"/>
		<path id="path3391" d="M87.8,98.9c0.8-0.9,1.5-1.8,2-2.8c0.5-0.9,0.9-2,1.2-3.1c0.3-1.1,0.2-2.3,0-3.4c-0.3-1.1-1.1-2.1-2.2-2.7
			c-1.3-0.8-3-0.9-4.6-0.6c-1.9,0.3-3.8,1-5.4,2.1c-0.5,0.3-1,0.7-1.5,1c-0.1,0.1-0.2,0.3-0.3,0.5c-0.1,0.4-0.1,0.9-0.2,1.3
			c0,0,0,0,0,0c0,0.2,0,0.7,0.3,0.4c0,0,0,0,0,0c0.7-0.7,1.4-1.2,2.2-1.7c1.3-0.8,2.7-1.4,4.2-1.6c1.2-0.2,2.5-0.1,3.5,0.5
			c0.8,0.4,1.4,1.2,1.7,2.1c0.2,0.9,0.2,1.8,0,2.6c-0.2,0.8-0.5,1.6-0.9,2.4c-0.4,0.8-1,1.5-1.6,2.2c-0.6,0.6-1.2,1.2-1.8,1.7
			c-0.6,0.5-1.2,0.9-1.9,1.2c-0.5,0.2-0.9,0.5-1.4,0.6l0,0c0,0-0.5,0.2-0.3,0.5c0.3,0.2,0.7,0.5,1,0.7c0.3,0.1,0.7,0.1,1-0.1
			c0.9-0.5,1.7-1,2.5-1.6C86.3,100.4,87.1,99.7,87.8,98.9"/>
		<path id="path3393" d="M96.8,77.2c-3.2-1.8-7.1-1.5-10.6,0.2l0,0c0,0-0.1,0-0.1,0c-0.3,0.2,0.1,0.2,0.1,0.2l0,0
			c2.9-0.6,5.8-0.8,8.9,0.6c3.9,1.8,5.5,5.9,6.2,9.1l0,0c0,0,0.4,0.8,0.6,0C102.2,83.1,100.3,79.2,96.8,77.2"/>
		<path id="path3395" d="M94.2,79.8c-2.9-1.5-7.4-1-10.8-0.2c-0.3,0.1-0.5,0.2-0.7,0.4c-0.3,0.3-0.6,0.6-0.9,0.9
			c-0.1,0.1-0.4,0.5,0.1,0.3c0,0,0,0,0,0c3.7-1,8.3-1.4,10.8,0c3.8,2,4.9,5.7,4.7,9.6c-0.2,3.8-1.8,7.7-4,11l0,0
			c0,0-0.2,0.4,0.1,0.2c0.6-0.4,1.2-0.8,1.7-1.2c0.3-0.3,0.5-0.6,0.8-1c2-3.1,3.4-6.8,3.5-10.3C99.5,85.5,98.1,81.9,94.2,79.8"/>
		<path id="path3397" d="M95.1,91.7c0.3-1.5,0.2-3.1-0.2-4.6c-0.5-1.5-1.6-2.8-3-3.6c-1.8-1.1-4.1-1.3-6.2-1.1
			c-2.2,0.2-4.4,0.9-6.5,1.8c0,0,0,0,0,0.1c-0.2,0.3-0.3,0.5-0.5,0.8c0,0,0,0,0,0.1c-0.1,0.1-0.1,0.2-0.2,0.4
			c-0.1,0.2-0.1,0.4,0.3,0.2c0,0,0,0,0,0c1.8-0.9,3.8-1.5,5.8-1.7c1.9-0.2,3.9,0,5.5,0.9c1.2,0.7,2.2,1.9,2.6,3.3
			c0.4,1.4,0.4,2.8,0.2,4.2c-0.2,1.4-0.7,2.7-1.3,4c-0.7,1.4-1.5,2.8-2.5,4c-0.9,1.1-1.8,2.1-2.8,3.1l0,0c0,0,0,0,0,0
			c-0.1,0.1-0.2,0.1-0.2,0.2c-0.1,0.1-0.1,0.2,0,0.2c0.4,0,0.9,0,1.3,0l0,0c0.3,0,0.6-0.2,0.8-0.3c1-1,2-2,2.9-3.1
			c1.1-1.3,2-2.8,2.8-4.4C94.4,94.8,94.9,93.3,95.1,91.7"/>
		<path id="path3399" d="M79.9,98c-0.3-0.1-0.5-0.2-0.7-0.4c-0.2-0.2-0.4-0.5-0.5-0.8c-0.1-0.4-0.1-0.8,0-1.3
			c0.1-0.3,0.2-0.6,0.3-0.8c0.1-0.3,0.3-0.6,0.5-0.8c0.4-0.6,1-1.1,1.6-1.4c0.6-0.4,1.3-0.6,2-0.8c0.6-0.1,1.1,0,1.7,0.2
			c0.4,0.2,0.7,0.6,0.8,1c0.1,0.4,0.1,0.8,0,1.2c-0.1,0.4-0.2,0.8-0.4,1.1c-0.2,0.4-0.5,0.7-0.7,1c-0.3,0.3-0.5,0.6-0.9,0.8
			c-0.3,0.2-0.6,0.4-0.9,0.6c-0.3,0.2-0.6,0.3-0.9,0.4c-0.3,0.1-0.6,0.2-0.9,0.2C80.5,98.2,80.2,98.1,79.9,98 M82.9,98.9
			c0.5-0.2,0.9-0.5,1.3-0.9c0.5-0.4,0.9-0.7,1.3-1.2c0.4-0.5,0.8-1,1.1-1.5c0.3-0.5,0.5-1.1,0.6-1.7c0.1-0.6,0.1-1.2,0-1.8
			c-0.2-0.6-0.6-1.1-1.2-1.4c-0.8-0.4-1.6-0.5-2.5-0.3c-1,0.2-2,0.6-2.9,1.1c-0.9,0.6-1.7,1.3-2.4,2.2c-0.3,0.4-0.6,0.8-0.8,1.2
			c-0.2,0.3-0.3,0.7-0.4,1.1c0,0.1,0,0.1,0,0.2c-0.2,0.6-0.2,1.3,0,1.9c0.1,0.5,0.4,0.9,0.7,1.2c0.2,0.2,0.5,0.4,0.8,0.5
			c0.1,0,0.2,0.1,0.2,0.1c0.4,0.1,0.9,0.2,1.4,0.1c0.5,0,0.9-0.1,1.4-0.2C82,99.3,82.4,99.2,82.9,98.9"/>
		<path id="path3401" d="M82.3,96.1c0.1-0.1,0.3-0.2,0.4-0.2c0.1-0.1,0.3-0.2,0.4-0.4c0.1-0.1,0.2-0.3,0.3-0.5
			c0.1-0.2,0.2-0.3,0.2-0.5c0-0.2,0-0.4,0-0.6c-0.1-0.2-0.2-0.3-0.3-0.4c-0.2-0.1-0.4-0.1-0.5-0.1c-0.1,0-0.1,0-0.2,0
			c-0.3,0.1-0.6,0.2-0.9,0.3c-0.3,0.2-0.5,0.4-0.7,0.6c-0.1,0.1-0.2,0.2-0.2,0.4c-0.1,0.1-0.1,0.2-0.1,0.4c0,0.2,0,0.4,0,0.6
			c0,0.1,0.1,0.3,0.2,0.4c0.1,0.1,0.2,0.1,0.3,0.2c0.1,0,0.3,0.1,0.4,0c0.1,0,0.3,0,0.4-0.1C82.1,96.2,82.2,96.2,82.3,96.1"/>
		<polygon id="polygon3403" points="62.3,83.4 76.3,83.4 77.1,77 55.6,77 52.5,103.3 59.9,103.3 61,93.9 73.7,93.9 74.4,87.8 
			61.7,87.8 		"/>
		<path id="path3405" d="M120.8,86.4L120.8,86.4c-0.2,2-1.8,3.2-4.4,3.2h-4.9l0.7-6.3h4.9C119.6,83.3,121,84.3,120.8,86.4
			 M126.6,79.8c-1.6-1.8-4.3-2.9-8.4-2.9h-12.7l-3.1,26.3h7.4l0.9-8h3.3l4.5,8h8.6l-5.3-9.2c3.5-1.4,6-4.1,6.5-8.1v-0.1
			C128.6,83.3,128,81.3,126.6,79.8"/>
	</g>
</g>
</svg>
