<?xml version="1.0" encoding="utf-8"?>
<!-- Generator: Adobe Illustrator 25.3.1, SVG Export Plug-In . SVG Version: 6.00 Build 0)  -->
<svg version="1.1" id="Layer_1" xmlns="http://www.w3.org/2000/svg" xmlns:xlink="http://www.w3.org/1999/xlink" x="0px" y="0px"
	 viewBox="0 0 210 84" style="enable-background:new 0 0 210 84;" xml:space="preserve">
<style type="text/css">
	.st0{fill:#fff;}
</style>
<g id="Globality_Logo_white" transform="translate(-0.42 0.41)">
	<rect id="Rectangle_6" x="69.6" y="29.9" class="st0" width="3.7" height="20.4"/>
	<path id="Path_40" class="st0" d="M82.6,36.1c4,0.1,7.2,3.4,7.1,7.4c-0.1,4-3.4,7.2-7.4,7.1c-3.9-0.1-7.1-3.3-7.1-7.3
		c0-4,3.2-7.3,7.3-7.3C82.5,36.1,82.5,36.1,82.6,36.1 M82.6,47.2c2.1,0.1,3.9-1.6,3.9-3.7c0.1-2.1-1.6-3.9-3.7-3.9
		c-2.1-0.1-3.9,1.6-3.9,3.7c0,0,0,0.1,0,0.1c-0.1,2,1.5,3.7,3.5,3.8C82.5,47.2,82.5,47.2,82.6,47.2"/>
	<path id="Path_41" class="st0" d="M91.9,50.4V29.9h3.7v7.5c1.1-0.9,2.5-1.3,3.9-1.3c3.9,0.1,6.9,3.3,6.9,7.2c0,0,0,0.1,0,0.1
		c0,1.8-0.6,3.5-1.8,4.9c-1.3,1.5-3.3,2.4-5.3,2.4c-1.4,0-2.8-0.5-3.9-1.4v1.1H91.9L91.9,50.4z M95.6,45.5c0.8,1.1,2,1.7,3.4,1.7
		c2,0,3.7-1.6,3.7-3.6c0-0.1,0-0.1,0-0.2c0.1-2-1.5-3.7-3.5-3.8c0,0-0.1,0-0.1,0c-1.4,0-2.6,0.6-3.5,1.7V45.5L95.6,45.5z"/>
	<path id="Path_42" class="st0" d="M122.5,50.4h-3.6v-1.1c-1.1,0.9-2.5,1.4-3.9,1.4c-2,0-3.9-0.9-5.3-2.4c-1.2-1.4-1.8-3.1-1.8-4.9
		c-0.2-3.9,2.9-7.1,6.7-7.3c0,0,0.1,0,0.1,0c1.5,0,2.9,0.5,4.1,1.4v-1.1h3.6L122.5,50.4L122.5,50.4z M118.8,41.3
		c-0.8-1.1-2.1-1.7-3.5-1.7c-2.1,0.1-3.7,1.9-3.6,4c0.1,2,1.7,3.5,3.7,3.6c1.3,0,2.6-0.6,3.4-1.7L118.8,41.3L118.8,41.3z"/>
	<rect id="Rectangle_7" x="125.1" y="29.9" class="st0" width="3.7" height="20.4"/>
	<path id="Path_43" class="st0" d="M133.3,29.1c1.3,0,2.4,1.1,2.3,2.4c0,1.3-1.1,2.4-2.4,2.3c-1.3,0-2.3-1.1-2.3-2.4
		C130.8,30.1,131.9,29.1,133.3,29.1C133.3,29.1,133.3,29.1,133.3,29.1 M135.1,50.4h-3.7v-14h3.7L135.1,50.4z"/>
	<path id="Path_44" class="st0" d="M145.9,50.4c-0.8,0.2-1.5,0.3-2.3,0.3c-1.8,0.1-3.6-0.6-4.8-2c-0.8-1.2-1.2-2.7-1-4.2v-12h3.7
		v3.9h4.6v3.2h-4.6v5.3c-0.1,0.6,0.1,1.2,0.5,1.8c0.5,0.5,1.2,0.8,1.9,0.7c0.5,0,1-0.1,1.5-0.1L145.9,50.4z"/>
	<path id="Path_45" class="st0" d="M151.5,54.1l2.4-5.1l-6.2-12.6h4.1l4.1,8.4l3.8-8.4h3.9l-8.2,17.7H151.5z"/>
	<path id="XMLID_9_" class="st0" d="M63.2,39.6h-3.9l2.9,6.4c-1.2,0.8-2.6,1.3-4.1,1.2c-3.7,0.1-6.8-2.9-6.9-6.7c0-0.1,0-0.2,0-0.2
		c-0.1-3.7,2.8-6.8,6.5-6.9c0.1,0,0.1,0,0.2,0c1.8,0,3.6,0.8,4.9,2.1l2.5-2.6c-2-1.9-4.6-2.9-7.4-2.9c-5.6-0.2-10.4,4.1-10.6,9.8
		c0,0.2,0,0.4,0,0.6c0,5.8,4.4,10.4,10.7,10.4c2-0.1,3.9-0.7,5.5-1.7l0.6,1.4H68L63.2,39.6z"/>
</g>
</svg>
