<?xml version="1.0" encoding="utf-8"?>
<!-- Generator: Adobe Illustrator 25.3.1, SVG Export Plug-In . SVG Version: 6.00 Build 0)  -->
<svg version="1.1" id="Layer_1" xmlns="http://www.w3.org/2000/svg" xmlns:xlink="http://www.w3.org/1999/xlink" x="0px" y="0px"
	 viewBox="0 0 210 84" style="enable-background:new 0 0 210 84;" xml:space="preserve">
<style type="text/css">
	.st0{fill:#fff;}
</style>
<g id="Google_Logo" transform="translate(-0.36 -0.47)">
	<path id="Path_879" class="st0" d="M97.4,43.4c0,5.1-4.1,9.2-9.1,9.2c-5.1,0-9.2-4.1-9.2-9.1c0-5.1,4.1-9.2,9.1-9.2c0,0,0,0,0,0
		c5-0.1,9.1,3.9,9.2,8.9C97.4,43.3,97.4,43.3,97.4,43.4z M93.4,43.4c0.2-2.8-1.9-5.3-4.8-5.5c-2.8-0.2-5.3,1.9-5.5,4.8
		c0,0.2,0,0.5,0,0.7c-0.2,2.8,1.9,5.3,4.8,5.5c2.8,0.2,5.3-1.9,5.5-4.8C93.4,43.9,93.4,43.7,93.4,43.4z"/>
	<path id="Path_880" class="st0" d="M117.1,43.4c0,5.1-4.1,9.2-9.1,9.2c-5.1,0-9.2-4.1-9.2-9.1c0-5.1,4.1-9.2,9.1-9.2c0,0,0,0,0,0
		c5-0.1,9.1,3.9,9.2,8.9C117.1,43.3,117.1,43.3,117.1,43.4z M113.1,43.4c0.2-2.8-1.9-5.3-4.8-5.5c-2.8-0.2-5.3,1.9-5.5,4.8
		c0,0.2,0,0.5,0,0.7c-0.2,2.8,1.9,5.3,4.8,5.5c2.8,0.2,5.3-1.9,5.5-4.8C113.1,43.9,113.1,43.7,113.1,43.4z"/>
	<path id="Path_881" class="st0" d="M136,34.9v16.4c0,6.7-4,9.5-8.7,9.5c-3.5,0-6.7-2.1-8.1-5.4l3.5-1.5c0.7,1.9,2.5,3.2,4.6,3.2
		c3,0,4.9-1.9,4.9-5.3v-1.3h-0.1c-1.2,1.4-3,2.1-4.8,2.1c-5-0.2-8.9-4.5-8.7-9.5c0.2-4.7,4-8.5,8.7-8.7c1.8,0,3.6,0.7,4.8,2h0.1
		v-1.5L136,34.9L136,34.9z M132.5,43.5c0-3.2-2.1-5.6-4.9-5.6c-2.9,0.1-5.2,2.5-5.1,5.5c0,0,0,0.1,0,0.1c-0.1,2.9,2.1,5.3,5,5.5
		c0,0,0.1,0,0.1,0C130.4,49,132.5,46.6,132.5,43.5L132.5,43.5z"/>
	<path id="Path_882" class="st0" d="M142.3,25.3V52h-3.9V25.3H142.3z"/>
	<path id="Path_883" class="st0" d="M157.5,46.4l3.1,2.1c-1.7,2.5-4.5,4.1-7.6,4c-4.9,0.1-9-3.9-9.1-8.8c0-0.1,0-0.2,0-0.3
		c0-5.4,3.9-9.1,8.6-9.1c4.7,0,7,3.8,7.8,5.8l0.4,1l-12.2,5c0.8,1.7,2.5,2.8,4.4,2.8C154.9,49,156.6,48,157.5,46.4L157.5,46.4z
		 M148,43.1l8.2-3.4c-0.6-1.3-2-2-3.4-1.9C150,38,147.8,40.3,148,43.1C148,43.1,148,43.1,148,43.1L148,43.1z"/>
	<path id="Path_884" class="st0" d="M64.3,41.1v-3.9h13c0.1,0.8,0.2,1.6,0.2,2.3c0.1,3.3-1.1,6.6-3.4,9.1c-2.6,2.7-6.2,4.1-9.9,4
		c-7.9,0-14.3-6.3-14.4-14.2c0.1-7.9,6.5-14.2,14.4-14.2c3.6-0.1,7.1,1.3,9.7,3.9l-2.7,2.7c-1.9-1.8-4.4-2.8-7-2.8
		c-5.6,0-10.2,4.5-10.2,10.2c0,0,0,0.1,0,0.1c-0.1,5.6,4.4,10.2,10,10.3c0,0,0.1,0,0.1,0c2.7,0.1,5.3-0.9,7.2-2.8
		c1.2-1.3,2-3,2.1-4.8L64.3,41.1z"/>
</g>
</svg>
