<?xml version="1.0" encoding="utf-8"?>
<!-- Generator: Adobe Illustrator 25.3.1, SVG Export Plug-In . SVG Version: 6.00 Build 0)  -->
<svg version="1.1" id="Layer_1" xmlns="http://www.w3.org/2000/svg" xmlns:xlink="http://www.w3.org/1999/xlink" x="0px" y="0px"
	 viewBox="0 0 210 84" style="enable-background:new 0 0 210 84;" xml:space="preserve">
<style type="text/css">
	.st0{fill:#fff;}
</style>
<g id="Page-1-Copy" transform="translate(-0.6 -1.3)">
	<g id="H2O_Logo_2017" transform="translate(0.6 1.3)">
		<path id="Fill-2" class="st0" d="M153.5,22.6c-1.2,0-2.2,1-2.2,2.2c0,1.2,1,2.2,2.2,2.2c1.2,0,2.2-1,2.2-2.2c0,0,0,0,0,0
			C155.7,23.6,154.8,22.6,153.5,22.6z M152.1,49.6h3.1V31.5h-3.1V49.6z M136.8,34c3.9,0,6.1,2.8,6.1,6.5s-2,6.9-6.1,6.9
			c-3.9,0-5.9-3.3-5.9-6.9C130.9,37,133.2,34,136.8,34z M145.8,31.5h-3.1v2.6c-1.5-1.9-3.8-3.1-6.3-3.1c-5.5,0-8.7,4.5-8.7,9.6
			s3.5,9.6,8.7,9.6c2.5,0.1,4.8-1.1,6.3-3.1v2.4h3.1V31.5z M122.4,45.8c-1.2,0-2.1,0.9-2.2,2c0,1.2,1,2.2,2.2,2.2
			c1.2,0,2.2-1,2.2-2.2c0,0,0,0,0,0C124.5,46.6,123.6,45.8,122.4,45.8L122.4,45.8z"/>
		<path id="Fill-4" class="st0" d="M60.3,35.8v-9.2h-6.1v23.6h6.1v-9.6h8.7v9.6h6.1V26.6h-6.1v9.2H60.3z"/>
		<g id="Group-9" transform="translate(24.06 3.255)">
			<path id="Fill-5" class="st0" d="M62.4,54.5l2.6-2.4c1.6-1.6,2.6-3.1,2.6-5.5c-0.1-3.4-2.9-6.2-6.3-6.1c-0.1,0-0.1,0-0.2,0
				c-4.1,0-6.5,2.6-6.5,6.5h4.9v-0.8c0-1.2,0.6-2,1.8-2c1.1,0.1,1.9,1.1,1.8,2.2c0,1.6-1,3.1-1.8,4.3l-7.1,7.5h13.6v-3.7H62.4"/>
			<path id="Fill-7" class="st0" d="M81.5,28.5c3.6,0,6.5,2.8,6.7,6.3c0.1,3.8-2.8,7-6.6,7.1c0,0-0.1,0-0.1,0
				c-3.8-0.1-6.8-3.2-6.7-7c0,0,0-0.1,0-0.1C75,31.2,77.9,28.5,81.5,28.5 M81.5,22.6c-6.7,0-13,5.1-13,12.2c0,7.7,5.5,13,13,13
				c7,0.2,12.8-5.2,13-12.2c0-0.3,0-0.6,0-0.8C94.5,27.7,88.2,22.6,81.5,22.6"/>
		</g>
	</g>
</g>
</svg>
