<?xml version="1.0" encoding="UTF-8"?><svg id="Panasas_Logo" xmlns="http://www.w3.org/2000/svg" width="210" height="84" viewBox="0 0 210 84"><path d="m51.09,25.81c-2.81,0-5.09,2.28-5.09,5.09v27.28h27.28c2.81,0,5.09-2.28,5.09-5.09v-27.28h-27.28Zm24.84,2.44h-24.84c-1.46,0-2.65,1.19-2.65,2.65v24.84h24.84c1.46,0,2.64-1.18,2.64-2.65v-24.84h0Z" fill="#fff" fill-rule="evenodd" stroke-width="0"/><path d="m52.05,40.78h4.46c.02,1.45-.44,2.86-1.31,4.01-.74,1.01-1.9,1.63-3.15,1.66v5.68c2.37,0,4.63-1.2,6.31-3.33,1.73-2.31,2.65-5.14,2.61-8.03v-8.92h-6.38c-1.4,0-2.53,1.13-2.53,2.53v6.39Zm20.27,2.43h-4.46c-.02-1.45.44-2.86,1.31-4.01.74-1.01,1.9-1.63,3.15-1.66v-5.68c-2.37,0-4.63,1.2-6.31,3.33-1.73,2.31-2.65,5.14-2.61,8.03v8.92h6.38c1.4,0,2.53-1.13,2.53-2.53v-6.39Z" fill="#fff" stroke-width="0"/><path d="m92.84,30.01h-5.84v23.67h5.84v-8.92h8.92v8.92h5.84v-23.67h-5.84v8.92h-8.92v-8.92Z" fill="#fff" stroke-width="0"/><path d="m137.94,53.99c4.38,0,7.23-3.38,7.23-9,0-5.1-2.85-8.97-7.26-8.97-1.92-.09-3.76.83-4.84,2.42h-.1v-8.43h-5.41v23.67h5.17v-2.37h.07c1.06,1.75,2.89,2.68,5.14,2.68h0Zm-1.53-4.27c-2.22,0-3.62-1.92-3.62-4.73s1.16-4.86,3.55-4.86c2.19,0,3.35,1.92,3.35,4.83s-1.16,4.77-3.28,4.77h0Zm-21.1,4.17c2.55,0,4.05-.89,5.04-2.32h.07c.08.74.3,1.45.65,2.11h5.09v-.23c-.48-.46-.53-1.28-.53-2.64v-8.54c0-2.12-.7-3.77-2.16-4.83-1.23-.93-2.95-1.39-5.51-1.39-5.14,0-7.67,2.68-7.8,5.82h4.98c.17-1.42,1.13-2.18,2.86-2.18,1.63,0,2.32.73,2.32,1.82,0,1.16-1.13,1.49-4.31,1.89-3.51.46-6.5,1.59-6.5,5.33,0,3.34,2.42,5.16,5.8,5.16h0Zm1.72-3.44c-1.33,0-2.32-.53-2.32-1.89s.86-1.82,2.95-2.28c.96-.19,1.89-.49,2.79-.89v2.02c0,1.82-1.39,3.04-3.42,3.04h0Z" fill="#fff" fill-rule="evenodd" stroke-width="0"/><path d="m158.73,51.37c-1.13,1.69-3.05,2.67-5.08,2.58-3.92,0-6.55-2.55-6.55-6.32v-11.12h5.96v9.99c0,1.85.83,2.88,2.55,2.88,1.86,0,2.99-1.39,2.99-3.41v-9.46h5.41v17.16h-5.18v-2.31h-.1,0Z" fill="#fff" stroke-width="0"/></svg>