<?xml version="1.0" encoding="utf-8"?>
<!-- Generator: Adobe Illustrator 28.0.0, SVG Export Plug-In . SVG Version: 6.00 Build 0)  -->
<svg version="1.1" id="Layer_1" xmlns="http://www.w3.org/2000/svg" xmlns:xlink="http://www.w3.org/1999/xlink" x="0px" y="0px"
	 viewBox="0 0 255 180" style="enable-background:new 0 0 255 180;" xml:space="preserve">
<polygon points="45.1,72.2 52.4,72.2 52.4,82.5 62.2,82.5 62.2,72.2 69.6,72.2 69.6,100.6 62.2,100.6 62.2,88.9 52.4,88.9 
	52.4,100.6 45.1,100.6 "/>
<path d="M78.5,91.9c0.1,2.8,1.8,4.7,4.6,4.7c1.7,0,3.2-0.7,3.8-2.3h6.3c-1.2,4.7-5.7,6.9-10.3,6.9c-6.8,0-11.3-4-11.3-10.9
	c0-6.3,5.1-10.9,11.2-10.9c7.4,0,11,5.6,10.8,12.6L78.5,91.9L78.5,91.9z M86.9,88.1c-0.1-2.3-1.8-4.3-4-4.3c-2.4,0-3.9,1.7-4.4,4.3
	H86.9z"/>
<rect x="95.7" y="72.2" width="6.8" height="28.4"/>
<path d="M172.4,91.9c0.1,2.8,1.8,4.7,4.6,4.7c1.7,0,3.2-0.7,3.8-2.3h6.3c-1.2,4.7-5.7,6.9-10.2,6.9c-6.8,0-11.3-4-11.3-10.9
	c0-6.3,5.1-10.9,11.2-10.9c7.4,0,11.2,5.6,10.8,12.6L172.4,91.9L172.4,91.9z M180.9,88.1c-0.1-2.3-1.8-4.3-4-4.3
	c-2.4,0-4,1.7-4.4,4.3H180.9z"/>
<path d="M189.4,79.9h6.5v2.8h0.1c1.2-2.1,4-3.4,6.5-3.4c6.9,0,7.5,5,7.5,7.9v13.3h-6.8v-10c0-2.8,0.4-5.7-3.4-5.7
	c-2.5,0-3.7,2.1-3.7,4.4v11.3h-6.8L189.4,79.9L189.4,79.9z"/>
<path d="M132.9,77.2c0.1-0.5,0.7-0.6,1.1-0.5c0.4,0.1,0.7,0.7,0.5,1.1c-0.1,0.5-0.7,0.7-1.1,0.5S132.7,77.7,132.9,77.2"/>
<path d="M136.5,79c0.2-0.4,0.8-0.5,1.2-0.1c0.4,0.4,0.5,0.8,0.1,1.2c-0.2,0.4-0.8,0.5-1.2,0.1C136.3,79.9,136.1,79.3,136.5,79"/>
<path d="M139.5,81.8c0.4-0.2,0.9-0.1,1.2,0.2c0.2,0.4,0.1,0.9-0.2,1.2c-0.4,0.2-0.9,0.1-1.2-0.2C139,82.5,139,82.1,139.5,81.8"/>
<path d="M141.4,85.3c0.5-0.1,0.9,0.1,1.1,0.6s-0.1,0.9-0.6,1.1c-0.5,0.1-0.9-0.1-1.1-0.6S140.9,85.4,141.4,85.3"/>
<path d="M142.2,89.2c0.5,0,0.8,0.4,0.8,0.8s-0.4,0.8-0.8,0.8s-0.8-0.4-0.8-0.8C141.4,89.5,141.7,89.2,142.2,89.2"/>
<path d="M141.8,93.2c0.5,0.1,0.7,0.6,0.6,1.1s-0.6,0.7-1.1,0.6c-0.5-0.1-0.7-0.6-0.6-1.1C141,93.3,141.4,93,141.8,93.2"/>
<path d="M140.3,96.9c0.4,0.2,0.5,0.8,0.2,1.2c-0.2,0.4-0.8,0.5-1.2,0.2c-0.4-0.2-0.5-0.8-0.2-1.2C139.5,96.8,139.9,96.6,140.3,96.9"
	/>
<path d="M137.8,100c0.2,0.4,0.2,0.9-0.1,1.2c-0.4,0.2-0.8,0.2-1.2-0.1c-0.2-0.4-0.2-0.8,0.1-1.2C137,99.6,137.6,99.6,137.8,100"/>
<path d="M134.5,102.2c0.2,0.5,0,0.9-0.5,1.1c-0.5,0.1-0.9,0-1.1-0.5c-0.1-0.5,0-0.9,0.5-1.1C133.8,101.5,134.3,101.7,134.5,102.2"/>
<path d="M130.6,103.3c0,0.5-0.4,0.8-0.8,0.9c-0.5,0.1-0.8-0.4-0.9-0.8c-0.1-0.5,0.4-0.8,0.8-0.9
	C130.2,102.6,130.6,102.8,130.6,103.3"/>
<path d="M126.7,103.3c-0.1,0.5-0.6,0.7-0.9,0.6c-0.4-0.1-0.7-0.6-0.6-0.9c0.1-0.5,0.6-0.7,0.9-0.6
	C126.4,102.5,126.7,102.8,126.7,103.3"/>
<path d="M122.7,102c-0.2,0.4-0.7,0.5-1.2,0.4c-0.5-0.1-0.6-0.7-0.4-1.1c0.2-0.4,0.7-0.6,1.2-0.4S123,101.6,122.7,102"/>
<path d="M119.5,99.7c-0.4,0.4-0.8,0.2-1.2,0c-0.4-0.2-0.2-0.8,0-1.2c0.4-0.4,0.8-0.2,1.2,0C119.9,98.8,119.9,99.4,119.5,99.7"/>
<path d="M117.1,96.5c-0.5,0.2-0.9,0-1.1-0.4c-0.1-0.4,0-0.9,0.4-1.1c0.5-0.2,0.9,0,1.1,0.4C117.6,95.8,117.5,96.3,117.1,96.5"/>
<path d="M115.6,92.7c-0.5,0.1-0.8-0.2-0.9-0.7c-0.1-0.5,0.2-0.8,0.7-0.9c0.5-0.1,0.8,0.2,0.9,0.7C116.5,92.3,116.1,92.7,115.6,92.7"
	/>
<path d="M115.4,88.8c-0.5-0.1-0.8-0.5-0.7-0.9c0.1-0.5,0.5-0.8,0.9-0.7c0.5,0.1,0.8,0.5,0.7,0.9C116.3,88.6,115.9,88.8,115.4,88.8"
	/>
<path d="M116.3,84.9c-0.5-0.2-0.6-0.7-0.4-1.1s0.7-0.6,1.1-0.4c0.5,0.2,0.6,0.7,0.4,1.1C117.3,84.9,116.8,85.1,116.3,84.9"/>
<path d="M118.5,81.5c-0.4-0.4-0.4-0.8,0-1.2c0.4-0.4,0.8-0.4,1.2,0c0.4,0.4,0.4,0.8,0,1.2C119.3,81.7,118.8,81.8,118.5,81.5"/>
<path d="M121.4,78.7c-0.2-0.4-0.1-0.9,0.4-1.2c0.4-0.2,0.9-0.1,1.2,0.4c0.2,0.4,0.1,0.9-0.4,1.2S121.7,79.2,121.4,78.7"/>
<path d="M125,77.1c-0.1-0.5,0.2-0.9,0.6-0.9c0.5-0.1,0.9,0.2,0.9,0.6c0.1,0.5-0.2,0.9-0.6,0.9C125.6,77.8,125.1,77.5,125,77.1"/>
<path d="M129,76.6c0-0.5,0.5-0.8,0.9-0.8c0.5,0,0.8,0.5,0.8,0.9s-0.5,0.8-0.9,0.8C129.4,77.4,129,77.1,129,76.6"/>
<path d="M128.1,72.3c0-0.6,0.5-0.9,0.9-0.9c0.5,0,0.9,0.5,0.9,0.9c0,0.5-0.5,0.9-0.9,0.9C128.6,73.3,128.1,72.9,128.1,72.3"/>
<path d="M135.8,73.7c0.2-0.5,0.8-0.7,1.3-0.5c0.5,0.2,0.7,0.8,0.5,1.3c-0.2,0.5-0.8,0.7-1.3,0.5C135.8,74.8,135.6,74.2,135.8,73.7"
	/>
<path d="M142.2,78.4c0.5-0.4,1.1-0.2,1.4,0.1c0.4,0.5,0.2,1.1-0.1,1.4c-0.5,0.4-1.1,0.2-1.4-0.1C141.7,79.3,141.7,78.7,142.2,78.4"
	/>
<path d="M143.1,100.3c0.5,0.4,0.5,0.9,0.1,1.4c-0.4,0.5-0.9,0.5-1.4,0.1c-0.5-0.4-0.5-0.9-0.1-1.4
	C142.2,100.1,142.8,100,143.1,100.3"/>
<path d="M137.3,105.5c0.2,0.5,0,1.1-0.5,1.3c-0.5,0.2-1.1,0-1.3-0.5c-0.2-0.5,0-1.1,0.5-1.3S137.1,105.1,137.3,105.5"/>
<path d="M129.7,107.7c0,0.6-0.5,0.9-0.9,0.9c-0.5,0-0.9-0.5-0.9-0.9c0-0.5,0.5-0.9,0.9-0.9C129.3,106.7,129.7,107.1,129.7,107.7"/>
<path d="M122,106.3c-0.2,0.5-0.8,0.7-1.3,0.5s-0.7-0.8-0.5-1.3s0.8-0.7,1.3-0.5C122,105.2,122.3,105.8,122,106.3"/>
<path d="M115.6,101.7c-0.5,0.4-1.1,0.2-1.4-0.1c-0.4-0.4-0.2-1.1,0.1-1.4c0.5-0.4,1.1-0.2,1.4,0.1
	C116.1,100.8,116.1,101.4,115.6,101.7"/>
<path d="M106.9,100.6h6.8V79.9h-6.8V100.6z M110.6,86.6c0.1-0.5,0.6-0.8,1.2-0.7c0.5,0.1,0.8,0.6,0.7,1.2c-0.1,0.5-0.6,0.8-1.2,0.7
	C110.9,87.6,110.5,87,110.6,86.6 M111.5,92.3c0.5-0.1,1.1,0.2,1.2,0.7c0.1,0.5-0.2,1.1-0.7,1.2c-0.5,0.1-1.1-0.2-1.2-0.7
	C110.5,92.8,110.9,92.4,111.5,92.3"/>
<rect x="106.9" y="72.2" width="6.8" height="5.2"/>
<path d="M158.2,79.9v2.6h-0.1c-1.2-2.1-3.1-3.2-5.6-3.2c-5.8,0-9.1,4.6-9.1,10.1c0,5.8,2.8,10.3,9.1,10.3c2.1,0,4.3-1.1,5.5-3.1h0.1
	v1.9c0,2.6-0.4,4.9-3.6,4.9c-1.1,0-1.9-0.1-2.5-0.5c-0.6-0.4-0.9-0.8-1.2-1.8h-6.8c0.8,5.6,5.3,6.6,10.2,6.6
	c9.6,0,10.3-6.4,10.3-9.7V79.9H158.2L158.2,79.9z M146.9,93.7c-0.1,0.5-0.7,0.8-1.2,0.7c-0.5-0.1-0.8-0.7-0.7-1.2s0.6-0.8,1.2-0.7
	S147.1,93.1,146.9,93.7 M146.4,88c-0.6,0.1-1.1-0.2-1.2-0.7c-0.1-0.5,0.2-1.1,0.7-1.2c0.5-0.1,1.1,0.2,1.2,0.7
	C147.2,87.3,146.8,87.7,146.4,88 M154.2,94.5c-2.8,0-3.9-2.5-3.9-4.9c0-2.6,0.9-5.2,3.9-5.2c3,0,4,2.6,4,5.2
	C158.3,92.3,157,94.5,154.2,94.5"/>
<path d="M114.4,79.7c-0.5-0.4-0.5-0.9-0.1-1.4c0.4-0.5,0.9-0.5,1.4-0.1c0.5,0.4,0.5,0.9,0.1,1.4S114.9,80,114.4,79.7"/>
<path d="M120.3,74.5c-0.2-0.5,0-1.1,0.5-1.3s1.1,0,1.3,0.5c0.2,0.5,0,1.1-0.5,1.3S120.5,75.1,120.3,74.5"/>
<path d="M128.8,78.6c-6.2,0-11.3,5-11.3,11.3c0,6.3,5,11.3,11.3,11.3c6.3,0,11.3-5,11.3-11.3C140.1,83.6,135,78.6,128.8,78.6
	 M128.8,95.2c-3,0-5.3-2.4-5.3-5.3s2.4-5.3,5.3-5.3c3,0,5.3,2.4,5.3,5.3S131.6,95.2,128.8,95.2"/>
</svg>
