<?xml version="1.0" encoding="utf-8"?>
<!-- Generator: Adobe Illustrator 25.3.1, SVG Export Plug-In . SVG Version: 6.00 Build 0)  -->
<svg version="1.1" id="g7" xmlns="http://www.w3.org/2000/svg" xmlns:xlink="http://www.w3.org/1999/xlink" x="0px" y="0px"
	 viewBox="0 0 210 84" style="enable-background:new 0 0 210 84;" xml:space="preserve">
<style type="text/css">
	.st0{fill-rule:evenodd;clip-rule:evenodd;fill:#000;}
</style>
<path id="polygon9" class="st0" d="M156.6,47.9h4.8V30.8h-4.8V47.9z"/>
<path id="polygon11" class="st0" d="M168.5,30.8v17.2h-4.8V30.8H168.5z"/>
<path id="polygon13" class="st0" d="M51.8,37.4h-3.9v-6.7h-6.4v17.2h6.4v-8.5h3.9v8.5h6.4V30.8h-6.4V37.4z"/>
<path id="path15" class="st0" d="M81.8,37.1L81.4,36h-5.3v11.9h5.3v-7.2l0,0c0-1.6,1-2.4,1.8-2.4c0.7,0,1.6,0.1,1.6,1.7l0,0v7.9h5.3
	v-7.7l0,0C90.1,35.9,85.2,34.2,81.8,37.1L81.8,37.1z"/>
<path id="path17" class="st0" d="M135.7,42.9l-2.4-6.9h-3.6l-2.4,7.2l-2.6-7.2h-7l-2.5,6.1l-3.5-6.1h-6l7.1,12.1l-0.9,2.3l0,0
	c-0.3,0.7-1.1,0.7-1.2,0.1c0-1.2-1-2.2-2.2-2.2c-1.2,0-2.2,1-2.2,2.2c0,1.3,1.3,2.9,3.8,2.8c1.8-0.1,3.4-1.4,3.9-3.1l0,0l5.8-14.1
	l4.2,11.9h3.8l2.3-6.8l2.4,6.8h3.6l4.1-11.9H138L135.7,42.9L135.7,42.9z"/>
<path id="path19" class="st0" d="M67.2,35.4c-4,0-7.3,3-7.3,6.7s3.3,6.7,7.3,6.7s7.3-3,7.3-6.7C74.5,38.4,71.2,35.4,67.2,35.4
	L67.2,35.4z M69,45.2c0,1-0.8,1.8-1.8,1.8s-1.8-0.8-1.8-1.8l0,0v-6.2l0,0c0-1,0.8-1.8,1.8-1.8s1.8,0.8,1.8,1.8l0,0V45.2L69,45.2z"/>
<path id="path21" class="st0" d="M106.2,43c0-0.3,0.1-0.6,0.1-1c0-3.7-3.3-6.7-7.3-6.7s-7.3,3-7.3,6.7s3.3,6.7,7.3,6.7
	c2.6,0,5-1.3,6.4-3.5l0,0l-1.6-0.6l0,0c-1.1,1.6-2.9,2.5-4.8,2.5c-1-0.1-1.8-0.9-1.8-1.9l0,0V43L106.2,43z M97.1,38.9
	c0-1,0.8-1.8,1.8-1.8c1,0,1.8,0.8,1.8,1.8l0,0v2.4h-3.6L97.1,38.9L97.1,38.9z"/>
<path id="path23" class="st0" d="M154.8,43c0-0.3,0.1-0.6,0.1-1c0-3.7-3.3-6.7-7.3-6.7s-7.3,3-7.3,6.7s3.3,6.7,7.3,6.7
	c2.6,0,5-1.3,6.4-3.5l0,0l-1.6-0.6l0,0c-1.1,1.6-2.9,2.5-4.8,2.5c-1-0.1-1.8-0.9-1.8-1.9l0,0V43L154.8,43z M145.7,38.9
	c0-1,0.8-1.8,1.8-1.8c1,0,1.8,0.8,1.8,1.8l0,0v2.4h-3.6C145.7,41.3,145.7,38.9,145.7,38.9z"/>
</svg>
