<?xml version="1.0" encoding="utf-8"?>
<!-- Generator: Adobe Illustrator 25.3.1, SVG Export Plug-In . SVG Version: 6.00 Build 0)  -->
<svg version="1.1" id="Layer_1" xmlns="http://www.w3.org/2000/svg" xmlns:xlink="http://www.w3.org/1999/xlink" x="0px" y="0px"
	 viewBox="0 0 210 84" style="enable-background:new 0 0 210 84;" xml:space="preserve">
<style type="text/css">
	.st0{fill:#fff;}
	.st1{opacity:0.15;fill:#2B3337;enable-background:new    ;}
	.st2{opacity:0.1;fill:#2B3337;enable-background:new    ;}
	.st3{opacity:0.2;fill:#2B3337;enable-background:new    ;}
</style>
<g id="Hortonworks_Logo" transform="translate(8.242 32.149)">
	<path id="Path_885" class="st0" d="M129.8,8.3c1.3,2.6-0.3,8.4-0.5,9h3.3c2.7-4.2,3.1-6.2,3.1-6.2C134,9.5,132,8.6,129.8,8.3
		L129.8,8.3z"/>
	<path id="Path_886" class="st0" d="M112.5,5.5c-0.3,4-1.2,8-2.5,11.8h3.2c1.5-1.7,2.6-3.6,3.3-5.7C116.1,8.1,112.5,5.5,112.5,5.5z"
		/>
	<path id="Path_887" class="st0" d="M148.7,2.8c0.2-8.1-4.5-11.9-4.5-11.9c-3.7-1.7-5.3-1.8-5.3-1.8c-3.7-2.2-5.7-2.4-6.7-2.4
		c-0.3,0-0.5,0-0.8,0.1c0,0-0.3,0.4-0.4,0.5c-0.7,1-2.3,3.3-2.8,8.4c0.7,2.3,4.7,5.4,4.7,5.4c-3.5-1-5.7-4.9-5.7-4.9
		c-0.1-2.1,0-4.2,0.4-6.2c0,0,0,0,0,0c-4,0.5-7.9,1.7-11.5,3.5c-3.1,2-5.2,6.7-5.2,6.7c-0.8,1.6-1.2,3.3-1.4,5.1
		c-0.2,1.5-1,4.7-1,4.7c0.1,0,0.3,0,0.4-0.1c0.7-2,1.7-3.9,3-5.7c7.2,3,6.1,12.4,6.1,13.1h3.3c1-2.6,1.5-5.4,1.5-8.2
		c13.4-6,17.2,7.6,17.4,8.2h3.3c-0.7-3.7-1.8-7.3-3.2-10.8c-1.7-3.8,0.2-4.9,0.5-4.9c1.3-0.1,2.6,0.2,3.6,0.9c1,0.6,1.3,1.7,1.6,3.1
		c0.6,2.9,1,6.6,3.8,6.6c1.5,0,2.8-1.1,3.1-2.6l-0.5-0.1c-0.5,0.5-1.1,0.9-1.9,0.9C149,10.3,148.6,8.2,148.7,2.8L148.7,2.8z
		 M144.5-2.7c-0.4,0-0.8-0.4-0.8-0.8c0-0.4,0.4-0.8,0.8-0.8c0.4,0,0.8,0.4,0.8,0.8C145.3-3.1,145-2.7,144.5-2.7z"/>
	<g id="Group_3351" transform="translate(71.434 -17.272)">
		<path id="Path_888" class="st1" d="M41,22.7l-0.1,1.5c1.7,2,2.8,4.5,3.1,7.1c0.4-0.8,0.8-1.6,1.1-2.5C44.7,25.3,41,22.7,41,22.7z
			 M62.9,18.9c2.1,1.1,3.4,2.2,6,5.6c-1.9-3.7-0.7-5.3,0.1-5.6C67,19.4,64.9,19.4,62.9,18.9L62.9,18.9z"/>
		<path id="Path_889" class="st2" d="M59.7,21.9c-6.1-3.5-13.3-3.3-18.2,0.2c5.8,3.5,4.9,11.8,4.8,12.5h3.3c1-2.6,1.5-5.4,1.5-8.2
			c13.4-6,17.2,7.6,17.3,8.2C67.7,29.2,64.5,24.5,59.7,21.9z"/>
	</g>
	<path id="Path_890" class="st3" d="M129.1-4.5c0.6-4.6,1.7-6.7,2.6-7.5c0.5-0.3,1-0.5,1.6-0.5c2,0.1,3.9,0.7,5.6,1.7
		c-3.6-2.2-5.7-2.4-6.7-2.4c-0.3,0-0.5,0-0.8,0.1c0,0-0.3,0.4-0.4,0.5c-0.7,1-2.3,3.3-2.8,8.4c0.7,2.3,4.7,5.4,4.7,5.4
		S129.1-2.7,129.1-4.5L129.1-4.5z"/>
	<path id="Path_891" class="st2" d="M119.2,2.4c2.4,1.3,3.8,4,3.5,6.7c0,0,0.8-0.4,1.5-0.6C123.8,5.6,121.9,3.3,119.2,2.4L119.2,2.4
		z"/>
	<path id="Path_892" class="st0" d="M90.2,10.1c1.1,2.1-0.3,6.7-0.4,7.2h2.6c2.2-3.3,2.5-4.9,2.5-4.9C93.6,11.1,91.9,10.3,90.2,10.1
		L90.2,10.1z"/>
	<path id="Path_893" class="st0" d="M76.3,7.8c-0.3,3.2-0.9,6.4-2,9.5h2.6c1.2-1.3,2.1-2.9,2.7-4.5C79.2,9.9,76.3,7.8,76.3,7.8
		L76.3,7.8z"/>
	<path id="Path_894" class="st0" d="M105.3,5.7c0.1-6.5-3.6-9.5-3.6-9.5C100.4-4.5,99-5,97.5-5.2c-2.9-1.7-4.5-1.9-5.4-1.9
		c-0.2,0-0.4,0-0.6,0.1c-0.1,0.1-0.2,0.3-0.3,0.4C90.6-5.9,89.3-4,88.9,0c0.6,1.8,3.8,4.3,3.8,4.3c-2.8-0.8-4.5-4-4.5-4
		c-0.1-1.7,0-3.3,0.3-5c0,0,0,0,0,0c-3.2,0.4-6.3,1.3-9.2,2.8C76.7-0.2,75,3.6,75,3.6c-0.6,1.3-1,2.7-1.2,4.1
		c-0.2,1.2-0.8,3.7-0.8,3.7c0.1,0,0.2,0,0.3-0.1c0.6-1.6,1.4-3.1,2.4-4.5c5.7,2.4,4.9,9.9,4.8,10.5h2.6c0.8-2.1,1.2-4.3,1.2-6.6
		c10.7-4.8,13.7,6.1,13.9,6.6h2.6c-0.5-3-1.4-5.8-2.6-8.6c-1.4-3,0.2-3.9,0.4-3.9c1-0.1,2.1,0.1,2.9,0.7c0.8,0.6,1.2,1.5,1.3,2.5
		c0.4,2.3,0.8,5.3,3,5.3c1.2,0,2.2-0.9,2.5-2.1l-0.4-0.1c-0.4,0.4-0.9,0.7-1.5,0.7C105.5,11.7,105.2,10,105.3,5.7L105.3,5.7z
		 M102,1.3c-0.3,0-0.6-0.3-0.6-0.6c0-0.3,0.3-0.6,0.6-0.6c0.3,0,0.6,0.3,0.6,0.6C102.6,1,102.3,1.3,102,1.3C102,1.3,102,1.3,102,1.3
		z"/>
	<g id="Group_3352" transform="translate(35.308 -14.136)">
		<path id="Path_895" class="st1" d="M41,22c0,0.3-0.1,0.9-0.1,1.2c1.4,1.6,2.3,3.6,2.5,5.7c0.3-0.6,0.6-1.3,0.9-2
			C43.9,24,41,22,41,22L41,22z M58.5,18.9c1.7,0.9,2.7,1.8,4.8,4.5c-1.5-2.9-0.6-4.2,0.1-4.5C61.8,19.3,60.1,19.3,58.5,18.9
			L58.5,18.9z"/>
		<path id="Path_896" class="st2" d="M56,21.3c-4.9-2.8-10.6-2.6-14.5,0.1c4.6,2.8,3.9,9.5,3.9,10h2.6c0.8-2.1,1.2-4.3,1.2-6.6
			C59.9,20,62.9,30.9,63,31.4C62.4,27.1,59.7,23.4,56,21.3z"/>
	</g>
	<path id="Path_897" class="st3" d="M89.6-0.2c0.5-3.7,1.4-5.4,2.1-6c0.4-0.3,0.8-0.4,1.3-0.4c1.6,0.1,3.1,0.6,4.5,1.3
		c-2.9-1.7-4.5-1.9-5.4-1.9c-0.2,0-0.4,0-0.6,0.1c-0.1,0.1-0.2,0.3-0.3,0.4C90.6-5.9,89.3-4,88.9,0c0.6,1.8,3.8,4.3,3.8,4.3
		S89.6,1.3,89.6-0.2L89.6-0.2z"/>
	<path id="Path_898" class="st2" d="M81.7,5.3c1.9,1,3,3.2,2.8,5.4c0,0,0.6-0.3,1.2-0.5C85.4,8,83.8,6.1,81.7,5.3L81.7,5.3z"/>
	<path id="Path_899" class="st0" d="M58.5,11.5c0.8,1.7-0.2,5.4-0.3,5.7h2.1c0.9-1.2,1.6-2.5,2-4C61.2,12.3,59.9,11.7,58.5,11.5
		L58.5,11.5L58.5,11.5z"/>
	<path id="Path_900" class="st0" d="M47.4,9.7c-0.2,2.6-0.8,5.1-1.6,7.6h2.1c0.9-1.1,1.7-2.3,2.1-3.6C49.7,11.4,47.4,9.7,47.4,9.7
		L47.4,9.7z"/>
	<path id="Path_901" class="st0" d="M70.6,8c0.1-5.2-2.9-7.6-2.9-7.6c-1-0.6-2.2-1-3.4-1.1c-1.3-0.9-2.8-1.4-4.3-1.5
		c-0.2,0-0.3,0-0.5,0.1c-0.1,0.1-0.2,0.2-0.3,0.3c-1.1,1.6-1.7,3.4-1.8,5.4c0.4,1.5,3,3.5,3,3.5c-2.2-0.6-3.6-3.2-3.6-3.2
		c-0.1-1.3,0-2.7,0.2-4c0,0,0,0,0,0c-2.6,0.3-5,1.1-7.3,2.3c-2,1.2-3.3,4.3-3.3,4.3c-0.5,1-0.8,2.1-0.9,3.3c-0.1,1-0.6,3-0.6,3
		c0.1,0,0.2,0,0.2-0.1c0.4-1.3,1.1-2.5,1.9-3.6c4.6,1.9,3.9,7.9,3.9,8.4h2.1c0.6-1.7,1-3.5,1-5.3c8.6-3.9,11,4.9,11.1,5.3h2.1
		c-0.4-2.4-1.1-4.7-2.1-6.9c-1.1-2.4,0.1-3.1,0.3-3.2c0.8-0.1,1.6,0.1,2.3,0.6c0.6,0.5,1,1.2,1,2c0.4,1.9,0.6,4.2,2.4,4.2
		c1,0,1.8-0.7,2-1.6l-0.3-0.1c-0.3,0.4-0.7,0.6-1.2,0.6C70.7,12.8,70.5,11.5,70.6,8L70.6,8z M67.9,4.5c-0.3,0-0.5-0.2-0.5-0.5
		s0.2-0.5,0.5-0.5c0.3,0,0.5,0.2,0.5,0.5l0,0C68.4,4.3,68.2,4.5,67.9,4.5z"/>
	<g id="Group_3353" transform="translate(6.404 -11.63)">
		<path id="Path_902" class="st1" d="M41,21.3c0,0.3-0.1,0.7-0.1,1c1.1,1.3,1.8,2.9,2,4.5c0.3-0.5,0.5-1,0.7-1.6
			C43.3,23,41,21.3,41,21.3z M55,18.9c1.6,0.9,2.9,2.1,3.9,3.6c-1.2-2.3-0.4-3.4,0.1-3.6C57.6,19.2,56.2,19.2,55,18.9z"/>
		<path id="Path_903" class="st2" d="M52.9,20.8c-3.6-2.2-8.1-2.2-11.6,0.1c3.7,2.2,3.1,7.6,3.1,8h2.1c0.6-1.7,1-3.5,1-5.3
			c8.6-3.8,11,4.9,11.1,5.3C58.1,25.5,56,22.5,52.9,20.8z"/>
	</g>
	<path id="Path_904" class="st3" d="M58.1,3.3c0.4-2.9,1.1-4.3,1.6-4.8c0.3-0.2,0.6-0.3,1-0.3c1.3,0.1,2.5,0.5,3.6,1.1
		C62-2.1,60.7-2.2,60-2.2c-0.2,0-0.3,0-0.5,0.1c-0.1,0.1-0.2,0.2-0.3,0.3c-1.1,1.6-1.7,3.4-1.8,5.4c0.4,1.5,3,3.5,3,3.5
		S58,4.5,58.1,3.3z"/>
	<path id="Path_905" class="st2" d="M51.7,7.7c1.6,0.8,2.4,2.5,2.2,4.3c0,0,0.5-0.2,1-0.4C54.6,9.8,53.4,8.3,51.7,7.7L51.7,7.7z"/>
	<path id="Path_906" class="st0" d="M39.1,32.8v-5h-3.3v5h-3.1V20.2h3.1V25h3.3v-4.9h3.1v12.7L39.1,32.8L39.1,32.8z M52.7,31.5
		c-0.9,1-2.2,1.5-3.5,1.4c-1.3,0.1-2.6-0.5-3.5-1.4c-1.3-1.3-1.3-3.1-1.3-5s-0.1-3.7,1.3-5c0.9-1,2.2-1.5,3.5-1.4
		c1.3-0.1,2.6,0.5,3.5,1.4c1.3,1.3,1.3,3.1,1.3,5S54,30.2,52.7,31.5z M50.4,23.4c-0.6-0.7-1.7-0.7-2.4-0.1c0,0,0,0,0,0
		c0,0-0.1,0.1-0.1,0.1c-0.3,0.4-0.5,0.8-0.5,3.1s0.2,2.7,0.5,3.1c0.6,0.7,1.6,0.8,2.3,0.2c0,0,0,0,0,0c0.1,0,0.1-0.1,0.2-0.2
		c0.3-0.4,0.5-0.8,0.5-3.1S50.7,23.8,50.4,23.4z M62.5,32.8l-2.2-4.7h-1v4.7h-3.1V20.2h5c2.2-0.2,4.2,1.5,4.3,3.8c0,0.1,0,0.2,0,0.3
		c0,1.4-0.8,2.7-2.1,3.3l2.7,5.3L62.5,32.8L62.5,32.8z M61,23h-1.8v2.6H61c0.7,0,1.3-0.5,1.3-1.2c0,0,0,0,0,0c0-0.7-0.5-1.3-1.2-1.3
		c0,0,0,0,0,0C61.1,23,61,23,61,23L61,23z M73.2,23v9.9h-3.1V23H67v-2.8h9.3V23L73.2,23z M85.7,31.5c-2,1.9-5.1,1.9-7.1,0
		c-1.3-1.3-1.3-3.1-1.3-5s-0.1-3.7,1.3-5c2-1.9,5.1-1.9,7.1,0c1.3,1.3,1.3,3.1,1.3,5S87,30.2,85.7,31.5z M83.4,23.4
		c-0.6-0.7-1.7-0.7-2.4-0.1c0,0,0,0,0,0c0,0-0.1,0.1-0.1,0.1c-0.3,0.4-0.5,0.8-0.5,3.1s0.2,2.7,0.5,3.1c0.6,0.7,1.6,0.8,2.3,0.2
		c0,0,0,0,0,0c0.1,0,0.1-0.1,0.2-0.2c0.3-0.4,0.5-0.8,0.5-3.1S83.7,23.8,83.4,23.4L83.4,23.4z M96.3,32.8l-4.1-6.4v6.4h-3.1V20.2
		h2.7l4.1,6.4v-6.4H99v12.7L96.3,32.8L96.3,32.8z M112.9,32.8h-2.5l-2-6.2l-2.1,6.2h-2.5l-3.5-12.7h3.2l1.7,6.7l2-6.7h2.2l2,6.7
		l1.7-6.7h3.2L112.9,32.8z M125.4,31.5c-2,1.9-5.1,1.9-7.1,0c-1.3-1.3-1.3-3.1-1.3-5s-0.1-3.7,1.3-5c2-1.9,5.1-1.9,7.1,0
		c1.3,1.3,1.3,3.1,1.3,5S126.7,30.2,125.4,31.5z M123.1,23.4c-0.6-0.7-1.7-0.7-2.4-0.1c0,0,0,0,0,0c0,0-0.1,0.1-0.1,0.1
		c-0.3,0.4-0.5,0.8-0.5,3.1s0.2,2.7,0.5,3.1c0.6,0.7,1.6,0.8,2.3,0.2c0,0,0,0,0,0c0.1,0,0.1-0.1,0.2-0.2c0.3-0.4,0.5-0.8,0.5-3.1
		S123.4,23.8,123.1,23.4z M135.2,32.8l-2.2-4.7h-1.1v4.7h-3.1V20.2h5c2.2-0.2,4.2,1.5,4.3,3.8c0,0.1,0,0.2,0,0.3
		c0,1.4-0.8,2.7-2.1,3.3l2.7,5.3L135.2,32.8L135.2,32.8z M133.7,23h-1.8v2.6h1.8c0.7,0,1.3-0.5,1.3-1.2c0,0,0,0,0,0
		c0-0.7-0.5-1.3-1.2-1.3c0,0,0,0,0,0C133.8,23,133.8,23,133.7,23L133.7,23z M147.5,32.8l-2.9-5.2l-1.1,1.2v4h-3.1V20.2h3.1v4.5
		l3.7-4.5h3.8l-4.3,5.1l4.5,7.5L147.5,32.8z M156,32.9c-1.8,0.2-3.5-0.5-4.8-1.7l2-2c0.8,0.6,1.8,1,2.8,0.9c1.2,0,1.8-0.4,1.8-1.1
		c0-0.3-0.1-0.5-0.2-0.7c-0.2-0.2-0.5-0.3-0.8-0.3l-1.5-0.2c-0.9-0.1-1.8-0.5-2.5-1.1c-0.6-0.7-0.9-1.6-0.9-2.5c0-2.3,1.7-4,4.6-4
		c1.6-0.1,3.1,0.4,4.3,1.5l-2,2c-0.7-0.6-1.5-0.8-2.4-0.7c-1.1,0-1.5,0.6-1.5,1.2c0,0.2,0.1,0.4,0.2,0.6c0.2,0.2,0.5,0.4,0.9,0.4
		l1.5,0.2c0.9,0.1,1.8,0.4,2.5,1.1c0.7,0.8,1,1.8,0.9,2.8C160.9,31.5,158.7,32.9,156,32.9L156,32.9z"/>
</g>
</svg>
