<?xml version="1.0" encoding="utf-8"?>
<!-- Generator: Adobe Illustrator 25.3.1, SVG Export Plug-In . SVG Version: 6.00 Build 0)  -->
<svg version="1.1" id="Layer_1" xmlns="http://www.w3.org/2000/svg" xmlns:xlink="http://www.w3.org/1999/xlink" x="0px" y="0px"
	 viewBox="0 0 210 84" style="enable-background:new 0 0 210 84;" xml:space="preserve">
<style type="text/css">
	.st0{fill:#000;}
</style>
<g id="IMBA_Logo" transform="translate(-2.1 -2.1)">
	<path id="Path_907" class="st0" d="M122.7,25.6c-5.6,0-10.6,5.2-15.7,5.2s-10-5.2-15.7-5.2c-7.6,0-13.8,6.2-13.8,13.8
		s6.2,13.8,13.8,13.8c5.6,0,10.6-5.2,15.7-5.2c5.1,0,10,5.2,15.7,5.2c7.6,0,13.8-6.2,13.8-13.8S130.3,25.6,122.7,25.6
		C122.7,25.6,122.7,25.6,122.7,25.6z M91.3,50.6c-6.2,0-11.3-5.1-11.3-11.3s5.1-11.3,11.3-11.3c6.2,0,11.3,5.1,11.3,11.3
		C102.6,45.6,97.6,50.6,91.3,50.6z M122.7,50.6c-6.3,0.1-11.4-4.9-11.5-11.2c-0.1-6.3,4.9-11.4,11.2-11.5
		c6.3-0.1,11.4,4.9,11.5,11.2c0,0,0,0.1,0,0.1c0.1,6.2-4.8,11.3-11,11.4C122.8,50.6,122.8,50.6,122.7,50.6z"/>
	<path id="Path_908" class="st0" d="M61,25.6c-7.6,0.1-13.7,6.3-13.6,13.9C47.5,47,53.7,53.1,61.3,53c7.5-0.1,13.6-6.2,13.6-13.8
		C74.8,31.7,68.6,25.6,61,25.6z M61,50.6c-6.3,0-11.4-5-11.4-11.3c0-6.3,5-11.4,11.3-11.4c6.3,0,11.4,5,11.4,11.3
		C72.3,45.5,67.3,50.6,61,50.6C61,50.6,61,50.6,61,50.6z"/>
	<path id="Path_909" class="st0" d="M153.1,25.6c-7.6,0-13.8,6.2-13.8,13.8s6.2,13.8,13.8,13.8c7.6,0,13.8-6.2,13.8-13.8
		c0,0,0,0,0,0C166.9,31.8,160.7,25.6,153.1,25.6z M153.1,50.6c-6.2,0-11.3-5.1-11.3-11.3c0-6.2,5.1-11.3,11.3-11.3
		c6.2,0,11.3,5.1,11.3,11.3c0,0,0,0,0,0C164.4,45.6,159.3,50.6,153.1,50.6z"/>
	<path id="Path_910" class="st0" d="M61,28.7c-5.9,0-10.6,4.8-10.6,10.6S55.2,49.9,61,49.9c5.9,0,10.6-4.8,10.6-10.6c0,0,0,0,0,0
		c0-5.8-4.6-10.6-10.4-10.6C61.1,28.7,61.1,28.7,61,28.7z M63.5,33.7l-2,11.5l0,0c0,0.2-0.2,0.4-0.5,0.4h-1.8
		c-0.2,0-0.4-0.1-0.4-0.3c0,0,0,0,0-0.1v-0.1l2-11.5c0.1-0.2,0.2-0.4,0.5-0.4h1.8C63.4,33.2,63.5,33.4,63.5,33.7L63.5,33.7z"/>
	<path id="Path_911" class="st0" d="M91.3,28.7c-5.9,0-10.6,4.8-10.6,10.6c0,5.9,4.8,10.6,10.6,10.6c5.9,0,10.6-4.8,10.6-10.6
		c0,0,0,0,0,0C101.9,33.4,97.2,28.7,91.3,28.7z M97.3,33.7l-2,11.5l0,0c0,0.2-0.2,0.4-0.5,0.4H93c-0.2,0-0.4-0.1-0.4-0.3
		c0,0,0,0,0-0.1v-0.1c0,0,0.9-4,1.2-5.8c-1,1.7-2.5,4.4-2.5,4.4c-0.1,0.1-0.2,0.2-0.4,0.2h-1l-0.3-0.2l0,0l-0.9-4.6
		c-0.3,2.1-1,6-1,6c0,0.2-0.2,0.4-0.5,0.4h-1.7c-0.2,0-0.4-0.1-0.4-0.3c0,0,0,0,0-0.1V45l2-11.5c0.1-0.2,0.2-0.4,0.5-0.4h1.6
		l0.3,0.2c0,0,1.2,5.7,1.4,6.7c0.5-0.9,3.7-6.7,3.7-6.7l0,0l0.3-0.2H97C97.2,33.2,97.3,33.5,97.3,33.7L97.3,33.7z"/>
	<path id="Path_912" class="st0" d="M127.1,40.1"/>
	<path id="Path_913" class="st0" d="M153.2,33.5"/>
	<path id="Path_914" class="st0" d="M153.4,38.4"/>
	<g id="Group_3354" transform="translate(66.828 5.16)">
		<path id="Path_915" class="st0" d="M57.8,30.5h-2.1c0,0-0.4,2.1-0.5,2.4h2c0.7,0,1.2-0.5,1.3-1.1v-0.4
			C58.7,30.9,58.3,30.5,57.8,30.5z"/>
		<path id="Path_916" class="st0" d="M56.9,35.4h-2.1c0,0-0.4,2.2-0.5,2.6h2c0.7,0,1.2-0.5,1.3-1.1l0.1-0.4v-0.2
			C57.9,35.7,57.5,35.4,56.9,35.4z"/>
		<path id="Path_917" class="st0" d="M55.9,23.5c-5.9,0-10.6,4.8-10.6,10.6c0,5.9,4.8,10.6,10.6,10.6c5.9,0,10.6-4.8,10.6-10.6
			c0,0,0,0,0,0C66.4,28.3,61.7,23.5,55.9,23.5z M61.2,31.8V32c-0.1,0.5-0.3,1-0.7,1.3l-0.3,0.3c-0.1,0.2-0.3,0.4-0.5,0.6
			c0,0.1,0.1,0.2,0.1,0.3l0.3,0.6c0.2,0.3,0.2,0.7,0.2,1.1v0.5l-0.1,0.3C60,39,58.1,40.6,56,40.5h-4.2c-0.2,0-0.4-0.1-0.4-0.3
			c0,0,0,0,0-0.1V40l2-11.5c0.1-0.2,0.2-0.4,0.5-0.4h4.2c1.6-0.2,3,1,3.2,2.6c0,0.2,0,0.4,0,0.6L61.2,31.8z"/>
	</g>
	<g id="Group_3355" transform="translate(97.232 5.16)">
		<path id="Path_918" class="st0" d="M56.3,33.2c0,0.1,0,0.1-0.1,0.2c0,0-1,2.2-1.1,2.4h1.3C56.5,35.7,56.3,33.3,56.3,33.2
			L56.3,33.2z"/>
		<path id="Path_919" class="st0" d="M55.9,23.5c-5.9,0-10.6,4.8-10.6,10.6S50,44.7,55.9,44.7S66.5,40,66.5,34.1l0,0
			C66.4,28.3,61.7,23.5,55.9,23.5z M59.7,39.9c0,0.2-0.1,0.4-0.5,0.4h-1.9c-0.2,0-0.4-0.1-0.4-0.3c0,0-0.2-1.6-0.2-1.9H54l-1,2
			c-0.1,0.2-0.2,0.3-0.4,0.3h-1.9c-0.2,0-0.4-0.2-0.4-0.4l0.1-0.2L56,28.4c0.1-0.2,0.2-0.3,0.4-0.3h1.3c0.2,0,0.4,0.1,0.4,0.3
			C58.1,28.5,59.7,39.8,59.7,39.9L59.7,39.9z"/>
	</g>
	<g id="Group_3356" transform="translate(4.012 34.894)">
		<path id="Path_920" class="st0" d="M45.7,27.5h-0.4c-0.1,0-0.1,0-0.1-0.1c0,0,0,0,0,0l0.5-3.8c0-0.1,0-0.1,0.1-0.1c0,0,0,0,0,0
			h0.5c0.1,0,0.1,0,0.1,0.1c0,0,0,0,0,0L45.7,27.5L45.7,27.5z"/>
		<path id="Path_921" class="st0" d="M49.1,27.5h-0.5l-1.1-2.8l-0.4,2.8c0,0.1,0,0.1-0.1,0.1c0,0,0,0,0,0h-0.3c-0.1,0-0.1,0-0.1-0.1
			c0,0,0,0,0,0l0.5-3.8c0-0.1,0-0.1,0.1-0.1c0,0,0,0,0,0h0.5l1.1,2.8l0.4-2.8c0-0.1,0-0.1,0.1-0.1c0,0,0,0,0,0h0.5
			c0.1,0,0.1,0,0.1,0.1c0,0,0,0,0,0L49.1,27.5L49.1,27.5z"/>
		<path id="Path_922" class="st0" d="M52.4,24.2h-0.7c-0.1,0-0.1,0-0.1,0.1c0,0,0,0,0,0l-0.5,3.3c0,0.1,0,0.1-0.1,0.1c0,0,0,0,0,0
			h-0.4c-0.1,0-0.1,0-0.1-0.1c0,0,0,0,0,0l0.5-3.3c0-0.1,0-0.1-0.1-0.1c0,0,0,0,0,0h-0.7c-0.1,0-0.1,0-0.1-0.1c0,0,0,0,0,0l0.1-0.4
			c0-0.1,0-0.1,0.1-0.1c0,0,0,0,0,0h2.1c0.1,0,0.1,0,0.1,0.1c0,0,0,0,0,0L52.4,24.2L52.4,24.2z"/>
		<path id="Path_923" class="st0" d="M54.8,27.5h-2.1c-0.1,0-0.1,0-0.1-0.1c0,0,0,0,0,0l0.5-3.8c0-0.1,0-0.1,0.1-0.1c0,0,0,0,0,0
			h2.1c0.1,0,0.1,0,0.1,0.1c0,0,0,0,0,0l-0.1,0.5c0,0.1,0,0.1-0.1,0.1c0,0,0,0,0,0h-1.5c-0.1,0-0.1,0-0.1,0.1c0,0,0,0,0,0l-0.1,1.1
			c0,0.1,0,0.1,0.1,0.1c0,0,0,0,0,0h1.3c0.1,0,0.1,0,0.1,0.1c0,0,0,0,0,0l-0.1,0.4c0,0.1,0,0.1-0.1,0.1c0,0,0,0,0,0h-1.2
			c-0.1,0-0.1,0-0.1,0.1c0,0,0,0,0,0L53.3,27c0,0.1,0,0.1,0.1,0.1c0,0,0,0,0,0h1.5c0.1,0,0.1,0,0.1,0.1c0,0,0,0,0,0L54.8,27.5z"/>
		<path id="Path_924" class="st0" d="M58.1,27.5h-0.6l-0.4-1.6h-0.6c-0.1,0-0.1,0-0.1,0.1c0,0,0,0,0,0l-0.2,1.6c0,0.1,0,0.1-0.1,0.1
			c0,0,0,0,0,0h-0.5c-0.1,0-0.1,0-0.1-0.1c0,0,0,0,0,0l0.5-3.8c0-0.1,0-0.1,0.1-0.1c0,0,0,0,0,0h1.2c0.5,0,0.9,0.3,1,0.9
			c0,0.1,0,0.2,0,0.3v0.1c-0.1,0.3-0.2,0.5-0.5,0.7c-0.1,0.1-0.3,0.1-0.3,0.2l0,0L58.1,27.5L58.1,27.5z M57.9,24.6
			c0-0.3-0.2-0.5-0.5-0.6h-0.7c-0.1,0-0.1,0-0.1,0.1c0,0,0,0,0,0l-0.1,1.1c0,0.1,0,0.1,0.1,0.1c0,0,0,0,0,0h0.7
			C57.6,25.3,57.9,25,57.9,24.6L57.9,24.6z"/>
		<path id="Path_925" class="st0" d="M61.3,27.5h-0.5l-1.1-2.8l-0.3,2.8c0,0.1,0,0.1-0.1,0.1c0,0,0,0,0,0h-0.5c-0.1,0-0.1,0-0.1-0.1
			c0,0,0,0,0,0l0.5-3.8c0-0.1,0-0.1,0.1-0.1c0,0,0,0,0,0h0.5l1,2.8l0.4-2.8c0-0.1,0-0.1,0.1-0.1c0,0,0,0,0,0h0.5
			c0.1,0,0.1,0,0.1,0.1c0,0,0,0,0,0L61.3,27.5L61.3,27.5z"/>
		<path id="Path_926" class="st0" d="M64.7,27.5L64.7,27.5l-0.6,0.1H64l-0.1-0.9h-1.2l-0.4,0.9h-0.6c-0.1,0-0.1,0-0.1-0.1
			c0,0,0,0,0,0l0,0l1.6-3.8h0.6L64.7,27.5z M63.7,24.9v-0.3l0,0l-0.1,0.3l-0.5,1.1l0,0c0,0.1,0,0.1,0.1,0.1c0,0,0,0,0,0h0.7
			c0.1,0,0.1,0,0.1-0.1c0,0,0,0,0,0l0,0L63.7,24.9z"/>
		<path id="Path_927" class="st0" d="M67.1,24.2h-0.7c-0.1,0-0.1,0-0.1,0.1c0,0,0,0,0,0l-0.5,3.3c0,0.1,0,0.1-0.1,0.1c0,0,0,0,0,0
			h-0.5c-0.1,0-0.1,0-0.1-0.1c0,0,0,0,0,0l0.5-3.3c0-0.1,0-0.1-0.1-0.1c0,0,0,0,0,0h-0.6c-0.1,0-0.1,0-0.1-0.1c0,0,0,0,0,0l0.1-0.4
			c0-0.1,0-0.1,0.1-0.1c0,0,0,0,0,0h2.1c0.1,0,0.1,0,0.1,0.1c0,0,0,0,0,0L67.1,24.2L67.1,24.2z"/>
		<path id="Path_928" class="st0" d="M67.8,27.5h-0.5c-0.1,0-0.1,0-0.1-0.1c0,0,0,0,0,0l0.5-3.8c0-0.1,0-0.1,0.1-0.1c0,0,0,0,0,0
			h0.5c0.1,0,0.1,0,0.1,0.1c0,0,0,0,0,0L67.8,27.5L67.8,27.5z"/>
		<path id="Path_929" class="st0" d="M69.9,27.6h-0.2c-0.5,0.1-0.9-0.2-1-0.7c0-0.1,0-0.2,0-0.3l0.3-1.9c0.1-0.6,0.6-1.1,1.2-1.1
			h0.2c0.5-0.1,0.9,0.2,1,0.7c0,0.1,0,0.2,0,0.3l-0.3,1.9C71.1,27.2,70.5,27.7,69.9,27.6z M70.9,24.6c0-0.3-0.2-0.5-0.5-0.6h-0.2
			c-0.3,0-0.6,0.3-0.7,0.6l-0.3,1.9c0,0.3,0.2,0.5,0.5,0.6h0.2c0.3,0,0.6-0.3,0.7-0.6L70.9,24.6z"/>
		<path id="Path_930" class="st0" d="M74.2,27.5h-0.5l-1.1-2.8l-0.3,2.8c0,0.1,0,0.1-0.1,0.1c0,0,0,0,0,0h-0.5c-0.1,0-0.1,0-0.1-0.1
			c0,0,0,0,0,0l0.5-3.8c0-0.1,0-0.1,0.1-0.1c0,0,0,0,0,0h0.5l1,2.8l0.4-2.8c0-0.1,0-0.1,0.1-0.1c0,0,0,0,0,0h0.5
			c0.1,0,0.1,0,0.1,0.1c0,0,0,0,0,0L74.2,27.5L74.2,27.5z"/>
		<path id="Path_931" class="st0" d="M77.6,27.5L77.6,27.5L77,27.6h-0.1l-0.1-0.9h-1.1l-0.4,0.9h-0.5c-0.1,0-0.1,0-0.1-0.1
			c0,0,0,0,0,0l0,0l1.6-3.8h0.6L77.6,27.5L77.6,27.5z M76.6,24.9v-0.3l0,0V24.9L76,26.1l0,0c0,0.1,0,0.1,0.1,0.1c0,0,0,0,0,0h0.7
			c0.1,0,0.1,0,0.1-0.1c0,0,0,0,0,0l0,0L76.6,24.9z"/>
		<path id="Path_932" class="st0" d="M80.2,27.5h-2.1c-0.1,0-0.1,0-0.1-0.1c0,0,0,0,0,0l0.5-3.8c0-0.1,0-0.1,0.1-0.1c0,0,0,0,0,0
			h0.5c0.1,0,0.1,0,0.1,0.1c0,0,0,0,0,0l-0.5,3.3c0,0.1,0,0.1,0.1,0.1c0,0,0,0,0,0h1.5c0.1,0,0.1,0,0.1,0.1c0,0,0,0,0,0L80.2,27.5
			L80.2,27.5z"/>
		<path id="Path_933" class="st0" d="M85.1,27.5h-0.5c-0.1,0-0.1,0-0.1-0.1c0,0,0,0,0,0l0.5-2.8l-1.1,2.3h-0.4l-0.6-2.2l-0.3,2.8
			c0,0.1,0,0.1-0.1,0.1c0,0,0,0,0,0h-0.5c-0.1,0-0.1,0-0.1-0.1c0,0,0,0,0,0l0.5-3.8c0-0.1,0-0.1,0.1-0.1c0,0,0,0,0,0H83l0.7,2.5l0,0
			l1.3-2.5h0.6c0.1,0,0.1,0,0.1,0.1c0,0,0,0,0,0L85.1,27.5L85.1,27.5z"/>
		<path id="Path_934" class="st0" d="M87.1,27.6h-0.2c-0.5,0.1-0.9-0.2-1-0.7c0-0.1,0-0.2,0-0.3l0.3-1.9c0.1-0.6,0.6-1.1,1.2-1.1
			h0.2c0.5-0.1,0.9,0.2,1,0.7c0,0.1,0,0.2,0,0.3l-0.3,1.9C88.3,27.2,87.8,27.6,87.1,27.6C87.2,27.6,87.1,27.6,87.1,27.6z M88.1,24.6
			c0-0.3-0.2-0.5-0.5-0.6h-0.2c-0.3,0-0.6,0.3-0.7,0.6l-0.3,1.9c0,0.3,0.2,0.5,0.5,0.6h0.3c0.3,0,0.6-0.3,0.7-0.6L88.1,24.6z"/>
		<path id="Path_935" class="st0" d="M90.3,27.6h-0.2c-0.5,0.1-0.9-0.2-1-0.7c0-0.1,0-0.2,0-0.3l0.4-2.9c0-0.1,0-0.1,0.1-0.1
			c0,0,0,0,0,0h0.5c0.1,0,0.1,0,0.1,0.1c0,0,0,0,0,0l-0.4,2.9c0,0.3,0.2,0.5,0.5,0.6h0.2c0.3,0,0.6-0.3,0.7-0.6l0.4-2.9
			c0-0.1,0-0.1,0.1-0.1c0,0,0,0,0,0h0.5c0.1,0,0.1,0,0.1,0.1c0,0,0,0,0,0l-0.4,2.9C91.5,27.2,90.9,27.6,90.3,27.6z"/>
		<path id="Path_936" class="st0" d="M94.7,27.5h-0.5L93,24.7l-0.3,2.8c0,0.1,0,0.1-0.1,0.1c0,0,0,0,0,0h-0.5c-0.1,0-0.1,0-0.1-0.1
			c0,0,0,0,0,0l0.5-3.8c0-0.1,0-0.1,0.1-0.1c0,0,0,0,0,0h0.5l1.1,2.8l0.4-2.8c0-0.1,0-0.1,0.1-0.1c0,0,0,0,0,0h0.5
			c0.1,0,0.1,0,0.1,0.1c0,0,0,0,0,0L94.7,27.5L94.7,27.5z"/>
		<path id="Path_937" class="st0" d="M98,24.2h-0.7c-0.1,0-0.1,0-0.1,0.1c0,0,0,0,0,0l-0.5,3.3c0,0.1,0,0.1-0.1,0.1c0,0,0,0,0,0
			h-0.5c-0.1,0-0.1,0-0.1-0.1c0,0,0,0,0,0l0.5-3.3c0-0.1,0-0.1-0.1-0.1c0,0,0,0,0,0h-0.6c-0.1,0-0.1,0-0.1-0.1c0,0,0,0,0,0l0.1-0.4
			c0-0.1,0-0.1,0.1-0.1c0,0,0,0,0,0H98c0.1,0,0.1,0,0.1,0.1c0,0,0,0,0,0L98,24.2L98,24.2z"/>
		<path id="Path_938" class="st0" d="M100.3,27.5L100.3,27.5l-0.6,0.1h-0.1l-0.1-0.9h-1.2l-0.4,0.9h-0.6c-0.1,0-0.1,0-0.1-0.1
			c0,0,0,0,0,0l0,0l1.6-3.8h0.6L100.3,27.5z M99.4,24.9v-0.3l0,0V24.9l-0.7,1.1l0,0c0,0.1,0,0.1,0.1,0.1c0,0,0,0,0,0h0.7
			c0.1,0,0.1,0,0.1-0.1c0,0,0,0,0,0l0,0L99.4,24.9z"/>
		<path id="Path_939" class="st0" d="M101.3,27.5h-0.5c-0.1,0-0.1,0-0.1-0.1c0,0,0,0,0,0l0.5-3.8c0-0.1,0-0.1,0.1-0.1c0,0,0,0,0,0
			h0.5c0.1,0,0.1,0,0.1,0.1c0,0,0,0,0,0L101.3,27.5L101.3,27.5z"/>
		<path id="Path_940" class="st0" d="M104.5,27.5H104l-1.1-2.8l-0.4,2.8c0,0.1,0,0.1-0.1,0.1c0,0,0,0,0,0h-0.5c-0.1,0-0.1,0-0.1-0.1
			c0,0,0,0,0,0l0.5-3.8c0-0.1,0-0.1,0.1-0.1c0,0,0,0,0,0h0.5l1.1,2.8l0.4-2.8c0-0.1,0-0.1,0.1-0.1c0,0,0,0,0,0h0.5
			c0.1,0,0.1,0,0.1,0.1c0,0,0,0,0,0L104.5,27.5L104.5,27.5z"/>
		<path id="Path_941" class="st0" d="M108.1,27.5h-1.2c-0.1,0-0.1,0-0.1-0.1c0,0,0,0,0,0l0.5-3.8c0-0.1,0-0.1,0.1-0.1c0,0,0,0,0,0
			h1.2c0.5,0,0.9,0.3,1,0.9c0,0.1,0,0.2,0,0.3v0.1c0,0.2-0.1,0.3-0.3,0.5c-0.1,0.2-0.3,0.2-0.3,0.3c0.1,0.1,0.1,0.2,0.2,0.3
			c0.1,0.2,0.2,0.4,0.1,0.5v0.1c0.1,0.6-0.4,1.1-1,1.1C108.2,27.5,108.1,27.5,108.1,27.5z M109,24.6c0-0.3-0.2-0.5-0.5-0.6h-0.7
			c-0.1,0-0.1,0-0.1,0.1c0,0,0,0,0,0l-0.1,1.1c0,0.1,0,0.1,0.1,0.1c0,0,0,0,0,0h0.7C108.6,25.3,108.9,25,109,24.6L109,24.6z
			 M108.7,26.4c0-0.3-0.2-0.5-0.5-0.6h-0.7c-0.1,0-0.1,0-0.1,0.1c0,0,0,0,0,0l-0.1,1.1c0,0.1,0,0.1,0.1,0.1c0,0,0,0,0,0h0.7
			c0.3,0,0.6-0.3,0.7-0.6L108.7,26.4z"/>
		<path id="Path_942" class="st0" d="M110.4,27.5h-0.5c-0.1,0-0.1,0-0.1-0.1c0,0,0,0,0,0l0.5-3.8c0-0.1,0-0.1,0.1-0.1c0,0,0,0,0,0
			h0.5c0.1,0,0.1,0,0.1,0.1c0,0,0,0,0,0L110.4,27.5L110.4,27.5z"/>
		<path id="Path_943" class="st0" d="M113.7,26.9c-0.1,0.1-0.2,0.3-0.3,0.4c-0.2,0.2-0.5,0.3-0.8,0.3h-0.2c-0.5,0.1-0.9-0.2-1-0.7
			c0-0.1,0-0.2,0-0.3l0.3-1.9c0.1-0.6,0.6-1.1,1.2-1.1h0.2c0.6,0,1,0.4,1,0.7v0.1l-0.4,0.2l0,0c-0.4-0.3-0.5-0.5-0.8-0.5h-0.2
			c-0.3,0-0.6,0.3-0.7,0.6l-0.3,1.9c0,0.3,0.2,0.5,0.5,0.6h0.2c0.2,0,0.3-0.1,0.4-0.1c0.2-0.2,0.2-0.3,0.3-0.3l0,0L113.7,26.9
			L113.7,26.9z"/>
		<path id="Path_944" class="st0" d="M115.7,25.8l-0.2,1.7c0,0.1,0,0.1-0.1,0.1c0,0,0,0,0,0h-0.5c-0.1,0-0.1,0-0.1-0.1c0,0,0,0,0,0
			l0.2-1.7l-0.8-2l0,0c0-0.1,0-0.1,0.1-0.1c0,0,0,0,0,0h0.7l0.5,1.4h0.2l0.9-1.4h0.6c0.1,0,0.1,0,0.1,0.1c0,0,0,0,0,0l0,0
			L115.7,25.8z"/>
		<path id="Path_945" class="st0" d="M119.2,26.9c-0.1,0.1-0.2,0.3-0.3,0.4c-0.2,0.2-0.5,0.3-0.8,0.3H118c-0.5,0.1-0.9-0.2-1-0.7
			c0-0.1,0-0.2,0-0.3l0.3-1.9c0.1-0.6,0.6-1.1,1.2-1.1h0.2c0.6,0,1,0.4,1,0.7v0.1l-0.4,0.2l0,0c-0.1-0.2-0.2-0.4-0.5-0.4h-0.2
			c-0.3,0-0.6,0.3-0.7,0.6l-0.3,1.9c0,0.3,0.2,0.5,0.5,0.6h0.2c0.2,0,0.3-0.1,0.4-0.1c0.2-0.2,0.2-0.3,0.3-0.3l0,0L119.2,26.9
			L119.2,26.9z"/>
		<path id="Path_946" class="st0" d="M121.9,27.5h-2.1c-0.1,0-0.1,0-0.1-0.1c0,0,0,0,0,0l0.5-3.8c0-0.1,0-0.1,0.1-0.1c0,0,0,0,0,0
			h0.5c0.1,0,0.1,0,0.1,0.1c0,0,0,0,0,0l-0.5,3.3c0,0.1,0,0.1,0.1,0.1c0,0,0,0,0,0h1.5c0.1,0,0.1,0,0.1,0.1c0,0,0,0,0,0L121.9,27.5
			L121.9,27.5z"/>
		<path id="Path_947" class="st0" d="M123.1,27.5h-0.5c-0.1,0-0.1,0-0.1-0.1c0,0,0,0,0,0l0.5-3.8c0-0.1,0-0.1,0.1-0.1c0,0,0,0,0,0
			h0.5c0.1,0,0.1,0,0.1,0.1c0,0,0,0,0,0L123.1,27.5L123.1,27.5z"/>
		<path id="Path_948" class="st0" d="M126.3,27.5h-0.5l-1.1-2.8l-0.4,2.8c0,0.1,0,0.1-0.1,0.1c0,0,0,0,0,0h-0.5
			c-0.1,0-0.1,0-0.1-0.1c0,0,0,0,0,0l0.5-3.8c0-0.1,0-0.1,0.1-0.1c0,0,0,0,0,0h0.5l1,2.8l0.4-2.8c0-0.1,0-0.1,0.1-0.1c0,0,0,0,0,0
			h0.5c0.1,0,0.1,0,0.1,0.1c0,0,0,0,0,0L126.3,27.5L126.3,27.5z"/>
		<path id="Path_949" class="st0" d="M130,24.2L130,24.2l-0.5,0.3l0,0c-0.2-0.2-0.3-0.4-0.6-0.4h-0.3c-0.3,0-0.6,0.3-0.7,0.6
			l-0.3,1.9c0,0.3,0.2,0.5,0.5,0.6h0.2c0.3,0,0.6-0.3,0.7-0.6l0.1-0.4c0-0.1,0-0.1-0.1-0.1c0,0,0,0,0,0h-0.7c-0.1,0-0.1,0-0.1-0.1
			c0,0,0,0,0,0l0.1-0.4c0-0.1,0-0.1,0.1-0.1c0,0,0,0,0,0h1.1c0.1,0,0.1,0,0.1,0.1c0,0,0,0,0,0l-0.1,0.9c-0.1,0.6-0.6,1.1-1.2,1.1
			h-0.2c-0.5,0.1-0.9-0.2-1-0.7c0-0.1,0-0.2,0-0.3l0.3-1.9c0.1-0.6,0.6-1.1,1.2-1h0.3C129.7,23.6,130,24,130,24.2z"/>
		<path id="Path_950" class="st0" d="M133.9,27.5L133.9,27.5l-0.6,0.1h-0.1l-0.1-0.9h-1l-0.4,0.9h-0.5c-0.1,0-0.1,0-0.1-0.1
			c0,0,0,0,0,0l0,0l1.6-3.8h0.6L133.9,27.5L133.9,27.5z M132.9,24.9v-0.3l0,0l-0.1,0.3l-0.5,1.1l0,0c0,0.1,0,0.1,0.1,0.1
			c0,0,0,0,0,0h0.7c0.1,0,0.1,0,0.1-0.1c0,0,0,0,0,0l0,0L132.9,24.9z"/>
		<path id="Path_951" class="st0" d="M135.2,24.6c0,0.4,0.3,0.5,0.7,0.7c0.5,0.2,0.9,0.7,0.8,1.2c-0.1,0.6-0.6,1.1-1.2,1.1h-0.3
			c-0.2,0-0.5-0.1-0.7-0.2c-0.1-0.1-0.2-0.3-0.3-0.5l0,0l0.4-0.2h0.1c0.1,0.2,0.2,0.4,0.5,0.4h0.3c0.3,0,0.6-0.3,0.7-0.6
			c0.1-0.4-0.2-0.5-0.7-0.8c-0.7-0.3-1-0.6-0.9-1.1c0.1-0.6,0.6-1.1,1.2-1.1h0.2c0.6,0,1,0.4,1,0.7v0.1l-0.4,0.2l0,0
			c-0.3-0.3-0.4-0.5-0.6-0.5h-0.1C135.5,24.1,135.2,24.3,135.2,24.6z"/>
		<path id="Path_952" class="st0" d="M138,24.6c0,0.4,0.3,0.5,0.7,0.7c0.5,0.2,0.9,0.7,0.8,1.2c-0.1,0.6-0.6,1.1-1.2,1.1h-0.3
			c-0.2,0-0.5-0.1-0.7-0.2c-0.1-0.1-0.2-0.3-0.3-0.5l0,0l0.4-0.2h0.1c0.1,0.2,0.2,0.4,0.5,0.4h0.3c0.3,0,0.6-0.3,0.7-0.6
			c0.1-0.4-0.2-0.5-0.7-0.8c-0.7-0.3-1-0.6-0.9-1.1c0.1-0.6,0.6-1.1,1.2-1.1h0.1c0.6,0,1,0.4,1,0.7v0.1l-0.4,0.2l0,0
			c-0.1-0.2-0.2-0.4-0.5-0.4h-0.1c-0.2-0.1-0.5,0-0.6,0.3C138,24.5,138,24.6,138,24.6z"/>
		<path id="Path_953" class="st0" d="M141.2,27.6H141c-0.5,0.1-0.9-0.2-1-0.7c0-0.1,0-0.2,0-0.3l0.3-1.9c0.1-0.6,0.6-1.1,1.2-1.1
			h0.2c0.5-0.1,0.9,0.2,1,0.7c0,0.1,0,0.2,0,0.3l-0.3,1.9C142.4,27.2,141.9,27.7,141.2,27.6z M142.2,24.6c0-0.3-0.2-0.5-0.5-0.6
			h-0.2c-0.3,0-0.6,0.3-0.7,0.6l-0.3,1.9c0,0.3,0.2,0.5,0.5,0.6h0.2c0.3,0,0.6-0.3,0.7-0.6L142.2,24.6z"/>
		<path id="Path_954" class="st0" d="M145.5,26.9c-0.1,0.1-0.2,0.3-0.3,0.4c-0.2,0.2-0.5,0.3-0.9,0.3h-0.2c-0.5,0.1-0.9-0.2-1-0.7
			c0-0.1,0-0.2,0-0.3l0.3-1.9c0.1-0.6,0.6-1.1,1.2-1.1h0.2c0.6,0,1,0.4,1,0.7v0.1l-0.4,0.2l0,0c-0.1-0.2-0.2-0.4-0.5-0.4h-0.2
			c-0.3,0-0.6,0.3-0.7,0.6l-0.3,1.9c0,0.3,0.2,0.5,0.5,0.6h0.2c0.2,0,0.3-0.1,0.4-0.1c0.2-0.2,0.2-0.3,0.3-0.3l0,0L145.5,26.9
			L145.5,26.9z"/>
		<path id="Path_955" class="st0" d="M146.5,27.5H146c-0.1,0-0.1,0-0.1-0.1c0,0,0,0,0,0l0.5-3.8c0-0.1,0-0.1,0.1-0.1c0,0,0,0,0,0
			h0.5c0.1,0,0.1,0,0.1,0.1c0,0,0,0,0,0L146.5,27.5L146.5,27.5z"/>
		<path id="Path_956" class="st0" d="M149.8,27.5L149.8,27.5l-0.6,0.1h-0.1l-0.1-0.9h-1.2l-0.4,0.9h-0.6c-0.1,0-0.1,0-0.1-0.1
			c0,0,0,0,0,0l0,0l1.6-3.8h0.6L149.8,27.5L149.8,27.5z M148.9,24.9v-0.3l0,0V24.9l-0.6,1.1l0,0c0,0.1,0,0.1,0.1,0.1c0,0,0,0,0,0
			h0.7c0.1,0,0.1,0,0.1-0.1c0,0,0,0,0,0l0,0L148.9,24.9z"/>
		<path id="Path_957" class="st0" d="M152.3,24.2h-0.7c-0.1,0-0.1,0-0.1,0.1c0,0,0,0,0,0l-0.5,3.3c0,0.1,0,0.1-0.1,0.1c0,0,0,0,0,0
			h-0.5c-0.1,0-0.1,0-0.1-0.1c0,0,0,0,0,0l0.5-3.3c0-0.1,0-0.1-0.1-0.1c0,0,0,0,0,0h-0.6c-0.1,0-0.1,0-0.1-0.1c0,0,0,0,0,0l0.1-0.4
			c0-0.1,0-0.1,0.1-0.1c0,0,0,0,0,0h2.1c0.1,0,0.1,0,0.1,0.1c0,0,0,0,0,0L152.3,24.2L152.3,24.2z"/>
		<path id="Path_958" class="st0" d="M153,27.5h-0.5c-0.1,0-0.1,0-0.1-0.1c0,0,0,0,0,0l0.5-3.8c0-0.1,0-0.1,0.1-0.1c0,0,0,0,0,0h0.5
			c0.1,0,0.1,0,0.1,0.1c0,0,0,0,0,0L153,27.5L153,27.5z"/>
		<path id="Path_959" class="st0" d="M155.1,27.6h-0.2c-0.5,0.1-0.9-0.2-1-0.7c0-0.1,0-0.2,0-0.3l0.3-1.9c0.1-0.6,0.6-1.1,1.2-1.1
			h0.2c0.5-0.1,0.9,0.2,1,0.7c0,0.1,0,0.2,0,0.3l-0.3,1.9C156.3,27.2,155.7,27.7,155.1,27.6z M156.1,24.6c0-0.3-0.2-0.5-0.5-0.6
			h-0.2c-0.3,0-0.6,0.3-0.7,0.6l-0.3,1.9c0,0.3,0.2,0.5,0.5,0.6h0.2c0.3,0,0.6-0.3,0.7-0.6L156.1,24.6z"/>
		<path id="Path_960" class="st0" d="M159.4,27.5h-0.6l-1.1-2.8l-0.4,2.8c0,0.1,0,0.1-0.1,0.1c0,0,0,0,0,0H157c-0.1,0-0.1,0-0.1-0.1
			c0,0,0,0,0,0l0.5-3.8c0-0.1,0-0.1,0.1-0.1c0,0,0,0,0,0h0.5l1.1,2.8l0.4-2.8c0-0.1,0-0.1,0.1-0.1c0,0,0,0,0,0h0.5
			c0.1,0,0.1,0,0.1,0.1c0,0,0,0,0,0L159.4,27.5L159.4,27.5z"/>
	</g>
</g>
</svg>
