<?xml version="1.0" encoding="utf-8"?>
<!-- Generator: Adobe Illustrator 25.3.1, SVG Export Plug-In . SVG Version: 6.00 Build 0)  -->
<svg version="1.1" id="Imperva_Logo" xmlns="http://www.w3.org/2000/svg" xmlns:xlink="http://www.w3.org/1999/xlink" x="0px"
	 y="0px" viewBox="0 0 210 84" style="enable-background:new 0 0 210 84;" xml:space="preserve">
<style type="text/css">
	.st0{fill:#000;}
</style>
<path id="Path_53" class="st0" d="M59.1,28.5H55v4.1h4.1V28.5z M155,51.4h-4.1v4.1h4.1V51.4z"/>
<path id="Path_54" class="st0" d="M59.1,49.4H55V34.6h4.1V49.4z M78,34.2c3,0,4.9,2.1,4.9,5.5v9.7h-4.1v-8.8c0-1.6-0.7-2.6-2.1-2.6
	c-1.1,0-2.1,0.8-2.3,1.9v9.6h-4.1v-8.8c0-1.6-0.7-2.6-2.1-2.6c-1.1,0-2.1,0.8-2.3,1.9v9.6h-4.1V34.6h4.1v1.2
	c0.9-1.1,2.3-1.6,3.7-1.6c1.5,0,3,0.7,4,1.9C74.7,34.9,76.3,34.2,78,34.2z M89.6,55.5h-4.1V34.6h4.1v1.2c1-1,2.3-1.6,3.7-1.6
	c4.3,0,6.7,3.6,6.7,7.8s-2.5,7.7-6.7,7.7c-1.4,0-2.7-0.6-3.7-1.6V55.5z M89.6,44.5c0.5,1,1.6,1.7,2.8,1.7c2.2,0,3.5-1.8,3.5-4.2
	c0-2.4-1.3-4.2-3.5-4.2c-1.2,0-2.2,0.7-2.8,1.7V44.5z M105.5,42.9c0.3,2.4,2.1,3.4,4.2,3.4c1.5,0,3-0.4,4.2-1.3v3.4
	c-1.4,0.9-3.1,1.4-4.9,1.3c-4.5,0-7.6-2.9-7.6-7.6c0-4.7,2.9-7.9,6.9-7.9c4.3,0,6.5,3,6.5,7.4V43L105.5,42.9L105.5,42.9z
	 M105.6,40.3h5.6c0.1-1.4-1-2.6-2.4-2.7c-0.1,0-0.1,0-0.2,0C107.3,37.5,106.1,38.4,105.6,40.3L105.6,40.3z M126.1,38.6
	c-0.6-0.3-1.3-0.5-2.1-0.5c-1.3-0.1-2.5,0.8-2.8,2.1v9.2h-4.1V34.6h4.1V36c0.7-1.1,2-1.8,3.3-1.8c0.5,0,1.1,0.1,1.6,0.3L126.1,38.6z
	 M132.5,49.4L127,34.6h4.3l3.4,9.9l3.3-9.9h4.1l-5.6,14.9L132.5,49.4z M150.9,40.2c0-1.4-1.2-2.3-3.3-2.3c-1.4,0-2.8,0.4-4,1.2v-3.5
	c1.5-0.8,3.2-1.2,4.9-1.2c4.1,0,6.5,2.1,6.5,5.7v9.4h-4.1v-0.8c-1,0.7-2.3,1.1-3.6,1.1c-3,0-5.5-1.7-5.5-4.8c0-2.8,2.5-4.7,5.7-4.7
	c1.2,0,2.3,0.3,3.3,0.9L150.9,40.2z M150.9,44.3c-0.6-0.9-1.6-1.4-2.6-1.3c-1.3,0-2.6,0.6-2.6,1.8c0,1.3,1.3,1.8,2.6,1.8
	c1,0.1,2.1-0.4,2.6-1.3V44.3z"/>
</svg>
