<?xml version="1.0" encoding="utf-8"?>
<!-- Generator: Adobe Illustrator 25.3.1, SVG Export Plug-In . SVG Version: 6.00 Build 0)  -->
<svg version="1.1" id="Layer_1" xmlns="http://www.w3.org/2000/svg" xmlns:xlink="http://www.w3.org/1999/xlink" x="0px" y="0px"
	 viewBox="0 0 210 84" style="enable-background:new 0 0 210 84;" xml:space="preserve">
<style type="text/css">
	.st0{fill:#000;}
</style>
<path id="Infosys_Logo" class="st0" d="M149.6,30.3c1.6,0,2.9-1.3,2.9-2.9c0-1.6-1.3-2.9-2.9-2.9c-1.6,0-2.9,1.3-2.9,2.9
	C146.8,29,148,30.2,149.6,30.3z M147.2,27.4c0-1.4,1.1-2.5,2.5-2.5c1.4,0,2.5,1.1,2.5,2.5c0,1.4-1.1,2.5-2.5,2.5
	C148.4,29.9,147.2,28.8,147.2,27.4C147.2,27.4,147.2,27.4,147.2,27.4z M148.6,28.9h0.6v-1.3h0.6l0.5,1.2h0.6l-0.6-1.3
	c0.2-0.1,0.5-0.2,0.5-0.8c0-0.8-0.6-1-1.2-1h-1L148.6,28.9L148.6,28.9L148.6,28.9z M149.1,26.3h0.6c0.4,0,0.5,0.1,0.5,0.4
	s-0.2,0.4-0.5,0.4h-0.6V26.3L149.1,26.3z M57.5,28.6L57.5,28.6v-3.4h3.4v3.4l0,0v24.8h-3.4V28.6z M92.1,43.2
	c0.1,5.2,3.3,9.3,7.1,9.2c3.9-0.1,6.9-4.3,6.9-9.4c-0.1-5.2-3.3-9.3-7.1-9.2C95,33.9,92,38,92.1,43.2z M120.2,37
	c0.1,0.2-0.1-0.3-0.1-0.3L120.2,37z M122.6,58.3c0.1-0.3,0.4-0.6,0.6-1.2L122.6,58.3z M122.8,35.2c0,0.1,0.1,0.2,0.1,0.4l1.1,2.8
	L122.8,35.2z M108.5,49.4c2.1,1.9,4,2.9,6.4,2.9s4.7-1.2,4.7-3.5c0-2-1.7-3.1-4.8-4.4c-2.6-1.1-4.5-1.9-5.6-3.5
	c0.1,0.7,0.2,1.5,0.2,2.2c0,6.3-4.6,11.4-10.3,11.4c-5.7,0-10.3-5.1-10.3-11.4c0-3.6,1.5-7,4.2-9.3h-6.9v19.8h-3V33.7h-2.7v-2h2.8
	c0.4-4.2,2.9-6.5,6.5-6.5c1.5-0.1,2.9,0.1,4.3,0.6v3.2h-0.1c-1.2-1.3-3-1.9-4.7-1.8c-2,0-3.4,1.6-2.9,4.5h11.5
	c0.5-0.1,1-0.1,1.5-0.1c4.1,0.1,7.8,2.7,9.3,6.6v-0.7c0-4,4-5.8,8-5.8h0.4c1.6,0.1,3.2,0.3,4.7,0.8l1.1,2.8l1.3,3.2l3.4,8.5l0.4,1.3
	l0.4-1.3l4.4-10.8c0.8-3,4-4.2,7.5-4.2c1.6,0,3.1,0.2,4.6,0.8v3.3c-1.9-1.4-3.3-2.2-5.4-2.2c-1.9,0-4.2,0.8-4.2,3.7
	c-0.1,2.1,1.2,2.5,5,4.3c3,1.3,5.9,2.8,5.9,6.1c0,5.7-5.6,6.6-8.3,6.6c-2.4,0-4.7-0.6-5.9-1.6V49l0.2,0.1c2.2,2,4.2,3.1,6.6,3.1
	c2.5,0,4.7-1.2,4.7-3.5c0-2-1.7-3.1-4.8-4.4c-3-1.3-4.9-2.1-5.7-4.2c-1.2,2.9-6.8,16.5-8.1,19.5h-3l0.7-1.3l0.6-1.2v-0.1
	c0.8-1.5,1.8-3.8,2.8-6.1l-5.8-14c-0.1-0.2-0.2-0.5-0.4-0.7c-0.3-1.1-1.1-2-2.1-2.4c-0.7-0.2-1.4-0.3-2.2-0.4
	c-1.9,0-4.3,0.8-4.3,3.7c-0.1,2.1,1.3,2.5,5.1,4.3c3,1.3,5.9,2.8,5.9,6.1c0,5.7-5.6,6.6-8.3,6.6c-1.9,0-3.8-0.4-5.4-1.3L108.5,49.4z
	 M67.2,31.9l0.1,2.5v0.1l0,0c0.1-0.1,0.1-0.2,0.1-0.3c1.3-1.3,2.8-2.7,6.6-2.7c2.9,0,5.5,2.1,6,5v17h-3V37.9c0-2.4-2.1-4.1-4.7-4.1
	c-2.1,0-4.9,1.9-5,3.9v15.8h-3.1V31.9H67.2z"/>
</svg>
