<?xml version="1.0" encoding="utf-8"?>
<!-- Generator: Adobe Illustrator 25.3.1, SVG Export Plug-In . SVG Version: 6.00 Build 0)  -->
<svg version="1.1" id="Layer_1" xmlns="http://www.w3.org/2000/svg" xmlns:xlink="http://www.w3.org/1999/xlink" x="0px" y="0px"
	 viewBox="0 0 210 84" style="enable-background:new 0 0 210 84;" xml:space="preserve">
<style type="text/css">
	.st0{fill:#ffffff;}
</style>
<g id="intel-logo-2020" transform="translate(-77.767 -152.583)">
	<rect id="rect4" x="144.27" y="180.06" class="st0" width="5.57" height="5.57"/>
	<g id="g10" transform="translate(77.926 152.583)">
		<path id="path6" class="st0" d="M71.78,56.52V36.44h-5.28v20.07H71.78z M106.84,56.72v-4.92c-0.64,0.01-1.27-0.03-1.9-0.12
			c-0.47-0.05-0.91-0.24-1.25-0.56c-0.3-0.33-0.49-0.75-0.56-1.19c-0.09-0.64-0.13-1.29-0.12-1.94v-7.02h3.83v-4.52h-3.83v-7.83
			h-5.29v19.41c-0.03,1.39,0.11,2.78,0.42,4.15c0.23,0.99,0.71,1.91,1.41,2.66c0.72,0.7,1.61,1.2,2.58,1.45
			c1.32,0.32,2.67,0.47,4.03,0.44H106.84z M137.14,56.52V27.06h-5.29v29.45H137.14z M92.62,38.41c-1.61-1.64-3.85-2.51-6.15-2.38
			c-1.2-0.01-2.39,0.25-3.47,0.77c-1.02,0.5-1.92,1.24-2.61,2.14l-0.3,0.38v-2.88h-5.22v20.07h5.25V46.2
			c-0.08-1.51,0.42-3,1.39-4.17c0.87-0.92,2.08-1.44,3.35-1.43c1.31-0.09,2.58,0.42,3.47,1.39c0.82,1.11,1.23,2.47,1.15,3.85l0,0
			v0.04l0,0v10.61h5.33V45.11C94.98,42.68,94.19,40.27,92.62,38.41z M129.11,46.44c0.01-1.39-0.25-2.77-0.75-4.07
			c-0.5-1.22-1.22-2.35-2.12-3.31c-0.93-0.96-2.04-1.71-3.27-2.22c-1.33-0.54-2.76-0.81-4.2-0.79c-1.4-0.01-2.79,0.27-4.08,0.81
			c-1.23,0.53-2.36,1.28-3.31,2.22c-0.95,0.95-1.7,2.07-2.22,3.31c-0.55,1.29-0.83,2.68-0.81,4.09c-0.01,1.4,0.25,2.79,0.77,4.08
			c0.5,1.23,1.23,2.36,2.16,3.31c0.95,0.96,2.09,1.72,3.35,2.22c1.36,0.56,2.83,0.85,4.3,0.83c3.42,0.09,6.69-1.36,8.92-3.95
			l-3.81-2.9c-1.31,1.42-3.15,2.23-5.08,2.24c-1.3,0.06-2.58-0.3-3.65-1.03c-0.93-0.69-1.6-1.68-1.9-2.8l-0.06-0.18h15.76V46.44z
			 M113.39,44.6c0-1.47,1.69-4.03,5.31-4.05c3.63,0,5.34,2.56,5.34,4.03L113.39,44.6z"/>
		<path id="path8" class="st0" d="M143.18,53.9c-0.2-0.46-0.57-0.83-1.03-1.03c-0.24-0.1-0.49-0.16-0.75-0.16
			c-0.26,0-0.52,0.06-0.75,0.16c-0.46,0.2-0.83,0.57-1.03,1.03c-0.1,0.24-0.16,0.49-0.16,0.75c0,0.26,0.06,0.52,0.16,0.75
			c0.2,0.46,0.57,0.83,1.03,1.03c0.24,0.1,0.49,0.16,0.75,0.16c0.26,0,0.52-0.06,0.75-0.16c0.46-0.2,0.83-0.57,1.03-1.03
			C143.39,54.92,143.39,54.38,143.18,53.9L143.18,53.9z M142.86,55.28c-0.15,0.39-0.46,0.7-0.85,0.85c-0.2,0.08-0.42,0.12-0.64,0.12
			c-0.22,0-0.43-0.04-0.64-0.12c-0.39-0.15-0.7-0.46-0.85-0.85c-0.08-0.2-0.12-0.42-0.12-0.63c0-0.22,0.04-0.43,0.12-0.63
			c0.15-0.39,0.46-0.7,0.85-0.85c0.2-0.08,0.42-0.12,0.64-0.12c0.22,0,0.43,0.04,0.64,0.12c0.39,0.15,0.7,0.46,0.85,0.85
			c0.08,0.2,0.12,0.42,0.12,0.63C142.99,54.87,142.95,55.09,142.86,55.28L142.86,55.28z M141.75,54.81
			c0.14-0.01,0.28-0.08,0.38-0.18c0.11-0.12,0.17-0.27,0.16-0.44c0.02-0.19-0.06-0.37-0.2-0.5c-0.17-0.13-0.38-0.2-0.59-0.18h-0.87
			v2.24h0.42v-0.91h0.3l0.55,0.91h0.44L141.75,54.81z M141.53,54.49h-0.5v-0.63h0.5c0.06,0,0.12,0.02,0.18,0.04
			c0.05,0.02,0.09,0.05,0.12,0.1c0.05,0.11,0.05,0.24,0,0.36c-0.03,0.04-0.07,0.07-0.12,0.1C141.65,54.48,141.59,54.49,141.53,54.49
			L141.53,54.49z"/>
	</g>
</g>
</svg>
