<?xml version="1.0" encoding="utf-8"?>
<!-- Generator: Adobe Illustrator 25.3.1, SVG Export Plug-In . SVG Version: 6.00 Build 0)  -->
<svg version="1.1" id="Layer_1" xmlns="http://www.w3.org/2000/svg" xmlns:xlink="http://www.w3.org/1999/xlink" x="0px" y="0px"
	 viewBox="0 0 210 84" style="enable-background:new 0 0 210 84;" xml:space="preserve">
<style type="text/css">
	.st0{fill:none;}
	.st1{fill:#000;}
</style>
<g id="Iteris_Logo" transform="translate(-3.895 -1.299)">
	<line id="Line_1" class="st0" x1="100.6" y1="34.4" x2="100.6" y2="34.4"/>
	<path id="Path_55" class="st1" d="M68.3,29.4c1.6,0,2.9,1.2,2.9,2.8c0,0,0,0,0,0v0.1c0,1.6-1.3,2.9-2.9,2.9c0,0,0,0,0,0h0
		c-1.6,0-2.9-1.3-2.9-2.9c0-1.6,1.2-2.8,2.8-2.9H68.3z"/>
	<rect id="Rectangle_12" x="65.9" y="37.8" class="st1" width="4.8" height="18.9"/>
	<path id="Path_56" class="st1" d="M108.6,48.3H94c0.4,2.9,2.9,4.9,5.8,4.8c2,0.1,3.8-0.8,5.1-2.3l3,2.7c-0.6,0.7-2.7,3.7-8.6,3.7
		c-5.8,0-10.2-4-10.2-10c-0.2-5.3,4-9.7,9.3-9.9c0.2,0,0.4,0,0.6,0c6.4,0,9.7,4.7,9.7,10.3C108.7,47.9,108.6,48.1,108.6,48.3z
		 M99.1,41.3c-3.8,0-4.8,2.7-5.1,3.6h10.1C103.6,42.6,101.5,41.1,99.1,41.3z"/>
	<path id="Path_57" class="st1" d="M115.6,37.8v3.8c0.7-2.6,3.1-4.3,5.7-4.3c0.5,0,0.9,0,1.4,0l-0.3,4.6c-0.2,0-0.4,0-0.6,0
		c-3.4,0-5.8,0.9-5.8,4.1v10.6h-4.8V37.8H115.6z"/>
	<path id="Path_58" class="st1" d="M127.8,29.4c1.6,0,2.9,1.2,2.9,2.8c0,0,0,0,0,0v0.1c0,1.6-1.3,2.9-2.9,2.9
		c-1.6,0-2.9-1.3-2.9-2.9C124.8,30.8,126.1,29.4,127.8,29.4C127.7,29.4,127.7,29.4,127.8,29.4L127.8,29.4z"/>
	<rect id="Rectangle_13" x="125.3" y="37.8" class="st1" width="4.8" height="18.9"/>
	<path id="Path_59" class="st1" d="M148.1,39.1l-1.9,3.4c-1.5-1-3.2-1.5-5-1.6c-1.6,0-3.1,0.6-3.1,1.5c0,1.3,1.8,1.6,5,2.5
		c3.3,0.9,5.7,2.7,5.7,5.9c0,3.1-2.8,6.2-8.5,6.2c-2.9,0-5.7-0.9-8.1-2.4l2.1-3.8c1.7,1.2,3.8,1.9,5.9,2c2.4,0,3.7-0.7,3.7-1.8
		c0-1.4-2.6-1.9-5.2-2.8c-2.8-0.9-5.7-2-5.7-5.4c0-3.4,3.5-5.7,8-5.7C143.6,37.2,146,37.9,148.1,39.1z"/>
	<path id="Path_60" class="st1" d="M150.6,34.7h0.3c0.1,0,0.2,0,0.3,0.1c0.9,0.3,1.4,1.3,1.1,2.2c-0.2,0.7-0.9,1.2-1.6,1.2
		c-0.8,0-1.6-0.6-1.7-1.4c0-0.1,0-0.2,0-0.2v-0.2c0,0,0,0,0-0.1c0.1-0.8,0.6-1.4,1.4-1.5L150.6,34.7z M152.2,36.6
		c0-0.5-0.2-1-0.5-1.3c-0.3-0.3-0.8-0.4-1.2-0.3c-0.8,0.2-1.3,1-1.2,1.8c0,0.2,0.1,0.3,0.2,0.5c0.4,0.7,1.4,0.9,2,0.4
		C151.9,37.5,152.2,37,152.2,36.6L152.2,36.6z"/>
	<path id="Path_61" class="st1" d="M150.1,35.5h0.9c0.1,0,0.2,0,0.3,0c0.1,0,0.3,0.2,0.3,0.3c0.1,0.2,0,0.4-0.2,0.6c0,0,0,0,0,0h0
		c0.1,0.1,0.2,0.2,0.2,0.3c0,0.1,0,0.2,0,0.3c0,0,0,0.1,0.1,0.2c0,0,0,0,0,0.1h-0.3c0,0,0,0,0,0c0-0.1,0-0.2,0-0.3v-0.3
		c0-0.1-0.1-0.2-0.2-0.2h-0.7v0.8h-0.2L150.1,35.5z M150.3,35.7v0.7h0.6c0.2,0,0.3-0.1,0.3-0.2c0,0,0,0,0,0V36
		c0-0.1-0.1-0.3-0.2-0.3c-0.1,0-0.2,0-0.2,0L150.3,35.7z"/>
	<path id="Path_62" class="st1" d="M85.6,36.9c1.6,0,2.9,1.3,2.9,2.9c0,1.6-1.3,2.9-2.9,2.9s-2.9-1.3-2.9-2.9
		C82.6,38.3,83.9,37,85.6,36.9L85.6,36.9z"/>
	<path id="Path_63" class="st1" d="M81.2,32v5.7l0,0v4.1l0,0v8.6c-0.1,1.1,0.7,2.1,1.8,2.3c0.2,0,0.3,0,0.5,0
		c1.1,0.1,2.2-0.4,2.9-1.3l2.4,3.4c-0.3,0.3-2.1,2.2-6.2,2.2c-4.8,0-6.2-3.2-6.2-5.9v-9.3h-3.3v-4.1h3.3v-2.9L81.2,32z"/>
</g>
</svg>
