<?xml version="1.0" encoding="utf-8"?>
<!-- Generator: Adobe Illustrator 25.3.1, SVG Export Plug-In . SVG Version: 6.00 Build 0)  -->
<svg version="1.1" id="Layer_1" xmlns="http://www.w3.org/2000/svg" xmlns:xlink="http://www.w3.org/1999/xlink" x="0px" y="0px"
	 viewBox="0 0 210 84" style="enable-background:new 0 0 210 84;" xml:space="preserve">
<style type="text/css">
	.st0{fill:#fff;}
</style>
<g id="iTero_Digital_Black7" transform="translate(-11.1 -11.5)">
	<path id="Path_148" class="st0" d="M157.9,53.2c-0.1,0.2-0.2,0.4-0.4,0.6c-0.2,0.2-0.4,0.3-0.6,0.4c-0.4,0.2-0.9,0.2-1.4,0
		c-0.2-0.1-0.4-0.2-0.6-0.4c-0.2-0.2-0.3-0.4-0.4-0.6c-0.2-0.4-0.2-0.9,0-1.4c0.1-0.2,0.2-0.4,0.4-0.6c0.2-0.2,0.4-0.3,0.6-0.4
		c0.4-0.2,0.9-0.2,1.4,0c0.2,0.1,0.4,0.2,0.6,0.4c0.2,0.2,0.3,0.4,0.4,0.6C158.1,52.3,158.1,52.7,157.9,53.2 M158.2,51.7
		c-0.1-0.3-0.3-0.5-0.5-0.7c-0.2-0.2-0.4-0.4-0.7-0.5c-0.5-0.2-1.1-0.2-1.7,0c-0.3,0.1-0.5,0.3-0.7,0.5c-0.2,0.2-0.4,0.4-0.5,0.7
		c-0.2,0.5-0.2,1.1,0,1.7c0.1,0.3,0.3,0.5,0.5,0.7c0.2,0.2,0.4,0.4,0.7,0.5c0.5,0.2,1.1,0.2,1.7,0c0.3-0.1,0.5-0.3,0.7-0.5
		c0.2-0.2,0.4-0.4,0.5-0.7C158.5,52.8,158.5,52.2,158.2,51.7"/>
	<path id="Path_149" class="st0" d="M156.4,52.3c-0.1,0-0.1,0-0.2,0h-0.3v-0.6h0.5c0.1,0,0.1,0,0.2,0c0,0,0.1,0,0.1,0.1
		c0.1,0.1,0.1,0.2,0,0.3c0,0-0.1,0.1-0.1,0.1C156.5,52.3,156.5,52.3,156.4,52.3 M156.6,52.7c0.1,0,0.3-0.1,0.4-0.2
		c0.1-0.1,0.2-0.3,0.2-0.4c0-0.2-0.1-0.4-0.2-0.5c-0.2-0.1-0.4-0.2-0.6-0.2h-0.9v2.2h0.4v-0.9h0.3l0.5,0.9h0.4L156.6,52.7z"/>
	<path id="Path_150" class="st0" d="M152.8,60.7c0-2.7-1.1-5.3-3-7.2c-4.3-4.1-11-4.1-15.2,0c-3.9,4-4,10.4-0.1,14.5
		c4.3,4,11.1,4,15.4,0C151.8,66,152.8,63.4,152.8,60.7 M148,60.7c-0.1,3.2-2.7,5.8-5.9,5.8c-3.2-0.1-5.8-2.7-5.8-5.9
		c0-1.5,0.7-3,1.7-4.1c1.1-1.1,2.6-1.7,4.1-1.7c1.5,0,3,0.6,4.1,1.7C147.4,57.6,148.1,59.1,148,60.7 M123.9,55.8h5.8v-4.9H119v19.8
		h4.9L123.9,55.8z M99.5,62.6H115v-0.7c0.1-3-0.9-6-2.9-8.3c-1.9-2.1-4.6-3.3-7.5-3.2c-2.8-0.1-5.5,1.1-7.4,3.1
		c-1.8,2-2.8,4.5-2.8,7.2c0,2.6,1,5.2,2.7,7.1c2.1,2.1,5,3.3,7.9,3.2c3.2,0,6.3-1.4,8.4-3.8l-3.2-3.2c-1.3,1.6-3.2,2.6-5.3,2.7
		c-1.5,0-2.9-0.5-4-1.4C100.4,64.6,99.8,63.6,99.5,62.6 M99.5,58.6c0.6-2.4,2.8-4,5.2-3.8c2.4-0.1,4.6,1.5,5.2,3.8H99.5z M90.5,45.9
		h6.8V41H78.8v4.9h6.8v24.7h4.9L90.5,45.9L90.5,45.9z"/>
	<path id="Path_151" class="st0" d="M123.9,55.8h5.8v-4.9H119v19.8h4.9V55.8z"/>
	<rect id="Rectangle_39" x="73.8" y="50.8" class="st0" width="4.9" height="19.8"/>
	<rect id="Rectangle_40" x="73.8" y="36" class="st0" width="4.9" height="4.9"/>
</g>
</svg>
