<?xml version="1.0" encoding="utf-8"?>
<!-- Generator: Adobe Illustrator 25.3.1, SVG Export Plug-In . SVG Version: 6.00 Build 0)  -->
<svg version="1.1" id="Layer_1" xmlns="http://www.w3.org/2000/svg" xmlns:xlink="http://www.w3.org/1999/xlink" x="0px" y="0px"
	 viewBox="0 0 210 84" style="enable-background:new 0 0 210 84;" xml:space="preserve">
<style type="text/css">
	.st0{fill:#000;}
</style>
<g id="JamesIrvineFoundation_Logo" transform="translate(-35.9 -37.7)">
	<g id="Group_3426" transform="translate(76.363 37.7)">
		<path id="Path_1165" class="st0" d="M31.3,27.5v10.9H30V27.5h-3.4v-1.1h8.1v1.1L31.3,27.5z"/>
		<path id="Path_1166" class="st0" d="M41.3,38.3v-5.2c0-1.3-0.5-2-1.4-2c-0.4,0-0.9,0.1-1.3,0.3c-0.4,0.2-0.8,0.5-1.2,0.8v6.1h-1.3
			V25.8h1.3V31c0.5-0.4,1-0.7,1.5-0.9c0.4-0.1,0.8-0.2,1.2-0.2c0.6,0,1.3,0.2,1.7,0.7c0.5,0.6,0.7,1.3,0.6,2v5.7L41.3,38.3
			L41.3,38.3z"/>
		<path id="Path_1167" class="st0" d="M51.5,37.4c-0.5,0.4-1.1,0.7-1.6,0.9c-0.5,0.1-1,0.2-1.5,0.2c-1.1,0-2.1-0.4-2.8-1.1
			c-0.8-0.9-1.1-2-1-3.2c-0.1-1.1,0.3-2.2,1-3.1c0.6-0.8,1.6-1.2,2.6-1.2c2.1,0,3.2,1.4,3.2,4.3h-5.4c0,0.8,0.2,1.6,0.7,2.2
			c0.5,0.6,1.2,0.9,1.9,0.8c0.9-0.1,1.7-0.4,2.5-0.9L51.5,37.4z M49.9,33.2c0-0.6-0.2-1.1-0.6-1.6C49,31.2,48.5,31,48,31
			c-0.5,0-1,0.2-1.4,0.6c-0.4,0.4-0.7,1-0.7,1.6H49.9z"/>
	</g>
	<g id="Group_3427" transform="translate(76.613 57.412)">
		<path id="Path_1168" class="st0" d="M27.9,27.1v4.3h3.9v1.2h-3.9v5.5h-1.3V26h5.9v1.2H27.9z"/>
		<path id="Path_1169" class="st0" d="M41,34.1c0.1,1.1-0.3,2.2-1.1,3c-1.6,1.5-4.1,1.5-5.7,0c-0.8-0.8-1.2-1.9-1.1-3
			c0-1.1,0.3-2.2,1.1-3c0.7-0.8,1.8-1.2,2.9-1.2c1.1,0,2.1,0.4,2.9,1.2C40.7,31.9,41.1,33,41,34.1z M39.7,34.1
			c0-0.8-0.2-1.6-0.7-2.3C38.5,31.3,37.8,31,37,31c-0.7,0-1.4,0.3-1.9,0.8c-0.5,0.6-0.8,1.4-0.7,2.3c-0.1,0.8,0.2,1.6,0.7,2.2
			c1,1.1,2.7,1.1,3.8,0.1c0,0,0.1-0.1,0.1-0.1C39.4,35.7,39.7,34.9,39.7,34.1z"/>
		<path id="Path_1170" class="st0" d="M43.9,30v5.1c0,1.3,0.5,2,1.4,2c0.5,0,0.9-0.1,1.3-0.3c0.4-0.2,0.9-0.5,1.2-0.8v-6h1.3v8.1
			h-1.3v-1c-0.5,0.4-1,0.7-1.6,1c-0.4,0.1-0.8,0.2-1.3,0.2c-0.7,0-1.3-0.2-1.7-0.7c-0.5-0.6-0.7-1.3-0.6-2V30L43.9,30L43.9,30z"/>
		<path id="Path_1171" class="st0" d="M56.9,38.1v-5c0-1.3-0.5-2-1.4-2c-0.5,0-0.9,0.1-1.3,0.3c-0.4,0.2-0.9,0.5-1.2,0.8v5.9h-1.3
			v-8h1.3v1c0.5-0.4,1-0.7,1.6-0.9c0.4-0.1,0.8-0.2,1.3-0.2c0.7,0,1.3,0.2,1.7,0.7c0.5,0.6,0.7,1.3,0.6,2v5.5L56.9,38.1z"/>
		<path id="Path_1172" class="st0" d="M65.9,37.1c-0.6,0.7-1.5,1.2-2.4,1.2c-1,0-1.9-0.4-2.5-1.1c-0.7-0.9-1-2-0.9-3
			c0-1.1,0.3-2.2,1-3c0.6-0.8,1.6-1.2,2.6-1.2c0.8,0,1.6,0.2,2.2,0.7v-4.8h1.2v12.3h-1.2L65.9,37.1z M65.9,32
			c-0.3-0.3-0.6-0.6-1-0.8c-0.4-0.1-0.7-0.2-1.1-0.2c-0.7,0-1.3,0.3-1.7,0.9c-0.5,0.7-0.7,1.5-0.7,2.3c0,0.8,0.2,1.5,0.6,2.2
			c0.4,0.5,1,0.8,1.6,0.8c0.4,0,0.8-0.1,1.2-0.3c0.4-0.2,0.8-0.5,1.1-0.9L65.9,32z"/>
		<path id="Path_1173" class="st0" d="M81.8,37.1v1.1c-0.4,0-0.9,0-1.5,0c-0.6,0.1-1.2-0.2-1.6-0.6c-0.3-0.6-0.4-1.2-0.4-1.9V31
			h-1.3v-1.1h1.3v-2.8h1.3v2.8h2.1V31h-2.1c-0.1,1.9,0,3.7,0.1,5.6c0.1,0.3,0.3,0.5,0.6,0.5C80.9,37.2,81.3,37.2,81.8,37.1z"/>
		<path id="Path_1174" class="st0" d="M85.3,27.3c0,0.2-0.1,0.5-0.3,0.6c-0.3,0.3-0.8,0.3-1.1,0c0,0,0,0,0,0
			c-0.2-0.2-0.2-0.4-0.3-0.6c0-0.5,0.4-0.8,0.9-0.8C84.9,26.5,85.2,26.9,85.3,27.3L85.3,27.3z M83.8,38.1v-8h1.3v8L83.8,38.1z"/>
		<path id="Path_1175" class="st0" d="M94.9,34.1c0.1,1.1-0.3,2.2-1.1,3c-0.7,0.8-1.8,1.2-2.9,1.1c-1.1,0-2.1-0.4-2.9-1.2
			c-0.8-0.8-1.2-1.9-1.1-3c0-1.1,0.3-2.2,1.1-3c0.7-0.8,1.8-1.2,2.9-1.2c1.1,0,2.1,0.4,2.9,1.2C94.6,31.9,94.9,33,94.9,34.1z
			 M93.5,34.1c0-0.8-0.2-1.6-0.7-2.3c-0.5-0.6-1.2-0.9-1.9-0.8c-0.7,0-1.4,0.3-1.9,0.8c-0.5,0.6-0.8,1.4-0.7,2.3
			c-0.1,0.8,0.2,1.6,0.7,2.2c1,1.1,2.7,1.1,3.8,0.1c0,0,0.1-0.1,0.1-0.1C93.3,35.7,93.6,34.9,93.5,34.1z"/>
		<path id="Path_1176" class="st0" d="M101.9,38.1v-5c0-1.3-0.5-2-1.4-2c-0.4,0-0.9,0.1-1.3,0.3c-0.4,0.2-0.8,0.5-1.2,0.8v5.9h-1.3
			v-8H98v1c0.5-0.4,1-0.7,1.6-0.9c0.4-0.1,0.8-0.2,1.2-0.2c0.6,0,1.3,0.2,1.7,0.7c0.5,0.6,0.7,1.3,0.6,2v5.5L101.9,38.1z"/>
	</g>
	<g id="Group_3428" transform="translate(104.747 38.453)">
		<path id="Path_1177" class="st0" d="M26.6,36.4c0.8,0,1.6-0.2,2.2-0.7c0.4-0.3,0.7-0.9,0.6-1.4v-8.4h1.4v8.3c0.1,1-0.2,2-0.9,2.7
			c-1,0.6-2.1,1-3.3,1L26.6,36.4z"/>
		<path id="Path_1178" class="st0" d="M42.6,29.5h1.3v0.9c0.4-0.4,0.9-0.7,1.5-0.9c0.4-0.2,0.9-0.3,1.4-0.3c0.9-0.1,1.8,0.5,2.1,1.4
			c0.5-0.4,1-0.7,1.5-1c0.5-0.2,1-0.4,1.5-0.4c0.6,0,1.3,0.2,1.7,0.7c0.4,0.5,0.7,1.2,0.6,1.8v5.6H53v-5c0-1.3-0.5-2-1.4-2
			c-0.9,0.1-1.8,0.5-2.5,1.1v5.8h-1.3v-4.9c0-1.3-0.5-2-1.4-2c-0.9,0.1-1.8,0.4-2.5,1.1v5.8h-1.3L42.6,29.5L42.6,29.5z"/>
		<path id="Path_1179" class="st0" d="M63.6,36.6c-0.5,0.4-1.1,0.6-1.7,0.9c-0.5,0.1-1,0.2-1.5,0.2c-1.1,0.1-2.2-0.3-2.9-1.1
			c-0.8-0.8-1.2-1.9-1.1-3c0-1.1,0.3-2.2,1-3c0.7-0.8,1.7-1.2,2.7-1.1c2.2,0,3.3,1.4,3.3,4.2h-5.6c0,0.8,0.2,1.6,0.8,2.2
			c0.5,0.5,1.3,0.8,2,0.8c0.9-0.1,1.8-0.4,2.5-0.9L63.6,36.6z M61.9,32.5c0-0.6-0.2-1.1-0.6-1.5c-0.3-0.4-0.8-0.6-1.4-0.6
			c-0.5,0-1.1,0.2-1.4,0.6c-0.4,0.4-0.7,1-0.7,1.5H61.9z"/>
		<path id="Path_1180" class="st0" d="M65,35.8c0.8,0.4,1.8,0.7,2.7,0.7c1.1,0,1.6-0.4,1.6-1.1c0-0.3-0.2-0.5-0.4-0.7
			c-0.4-0.3-0.9-0.6-1.4-0.8c-0.6-0.2-1.1-0.5-1.6-0.8c-0.3-0.2-0.5-0.5-0.7-0.8c-0.5-0.8-0.3-1.9,0.5-2.4c0.7-0.4,1.4-0.6,2.2-0.6
			c0.8,0,1.7,0.2,2.4,0.6l0,1.2c-0.7-0.4-1.6-0.6-2.4-0.6c-1,0-1.4,0.3-1.4,0.9c0,0.4,0.2,0.7,0.5,0.9c0.4,0.3,0.9,0.5,1.3,0.7
			c0.8,0.3,1.5,0.7,2.1,1.3c0.3,0.3,0.5,0.7,0.5,1.2c0,0.7-0.3,1.3-0.9,1.6c-0.7,0.4-1.5,0.6-2.3,0.6c-1.1,0-2.1-0.2-3.1-0.8
			L65,35.8z"/>
		<path id="Path_1181" class="st0" d="M75.5,37.6V25.8h1.4v11.8H75.5z"/>
		<path id="Path_1182" class="st0" d="M84,30.8c-0.6,0-1.1,0.1-1.6,0.4c-0.6,0.3-1.1,0.8-1.3,1.5c0,0.6,0,1.1,0,1.8v3.2h-1.3v-8.4
			h1.3v1.3c0-0.1,0.5-0.5,0.6-0.6c0.7-0.4,1.5-0.6,2.3-0.5"/>
		<path id="Path_1183" class="st0" d="M89.4,37.6h-0.8l-3.2-8.1h1.4l2.3,5.9l2.3-5.9h1.3L89.4,37.6z"/>
		<path id="Path_1184" class="st0" d="M96.3,26.8c0,0.2-0.1,0.4-0.3,0.6c-0.2,0.2-0.4,0.2-0.6,0.3c-0.2,0-0.5-0.1-0.6-0.3
			c-0.2-0.1-0.3-0.4-0.3-0.6c0-0.2,0.1-0.4,0.3-0.6c0.2-0.2,0.4-0.2,0.6-0.3c0.2,0,0.5,0.1,0.6,0.3C96.2,26.4,96.3,26.6,96.3,26.8z
			 M94.8,37.6v-8.1h1.3v8.1L94.8,37.6z"/>
		<path id="Path_1185" class="st0" d="M104.2,37.6v-5.3c0-1.3-0.5-2-1.4-2c-0.5,0-0.9,0.1-1.4,0.3c-0.5,0.2-0.9,0.5-1.3,0.8v6.2
			h-1.3v-8.3h1.3v0.9c0.5-0.4,1.1-0.7,1.6-0.9c0.4-0.1,0.8-0.2,1.3-0.2c0.7,0,1.3,0.2,1.8,0.7c0.5,0.5,0.7,1.3,0.6,2v5.8L104.2,37.6
			L104.2,37.6z"/>
		<path id="Path_1186" class="st0" d="M114.5,36.7c-0.5,0.4-1.1,0.6-1.7,0.9c-0.5,0.1-1,0.2-1.5,0.2c-1.1,0-2.2-0.4-2.9-1.1
			c-0.8-0.9-1.2-2-1.1-3.1c0-1.1,0.3-2.2,1-3.1c0.7-0.8,1.7-1.2,2.7-1.2c2.2,0,3.3,1.4,3.3,4.3h-5.6c0,0.8,0.2,1.6,0.8,2.2
			c0.5,0.6,1.2,0.9,2,0.8c0.9-0.1,1.8-0.4,2.5-0.9L114.5,36.7z M112.9,32.6c0-0.6-0.2-1.1-0.6-1.6c-0.3-0.4-0.8-0.6-1.4-0.6
			c-0.5,0-1.1,0.2-1.4,0.6c-0.4,0.4-0.7,1-0.7,1.6H112.9z"/>
	</g>
	<path id="Path_1187" class="st0" d="M140.4,76.2c-0.6,0-1.2-0.2-1.7-0.6c-0.8-0.9-0.9-2.2-0.3-3.2c0.8-1,2-1.6,3.3-1.5h1.4v-0.3
		c0-0.5-0.2-1-0.6-1.3c-0.5-0.3-1.2-0.5-1.8-0.4c-0.3,0-0.5,0-0.8,0.1c-0.5,0.1-0.9,0.3-1.3,0.5v-1.3c1.4-0.8,3.7-1.3,5.1,0.1
		c0.5,0.5,0.8,1.2,0.7,1.9V76h-1v-0.9C142.6,76.5,140.4,76.2,140.4,76.2z M143,72c-0.5,0-1.1,0-1.6,0c-0.6,0-1.1,0.2-1.5,0.5
		c-0.3,0.2-0.4,0.5-0.5,0.8c-0.1,0.2-0.1,0.4-0.1,0.7c0.1,0.5,0.5,1,1,1.1c0.8,0.2,1.6,0.1,2.3-0.3c0.2-0.1,0.4-0.3,0.5-0.5
		c0-0.1,0-0.2,0-0.3C143,73.3,143,72.7,143,72z"/>
	<path id="Path_1188" class="st0" d="M148.2,95.9c-0.6,0-1.2-0.2-1.7-0.6c-0.8-0.9-0.9-2.2-0.3-3.2c0.8-1,2-1.6,3.3-1.5h1.4v-0.3
		c0-0.5-0.2-1-0.6-1.3c-0.5-0.3-1.2-0.5-1.8-0.4c-0.3,0-0.5,0-0.8,0.1c-0.5,0.1-0.9,0.3-1.3,0.5v-1.3c1.4-0.8,3.7-1.3,5.1,0.1
		c0.5,0.5,0.8,1.2,0.7,1.9v5.7h-1v-0.9C150.3,96.1,148.2,95.9,148.2,95.9z M150.7,91.6c-0.5,0-1.1,0-1.6,0c-0.6,0-1.1,0.2-1.5,0.5
		c-0.3,0.2-0.4,0.5-0.5,0.8c-0.1,0.2-0.1,0.4-0.1,0.7c0.1,0.5,0.5,1,1,1.1c0.8,0.2,1.6,0.1,2.3-0.3c0.2-0.1,0.4-0.3,0.5-0.5
		c0-0.1,0-0.2,0-0.3C150.7,92.9,150.7,92.3,150.7,91.6L150.7,91.6z"/>
	<path id="Path_1189" class="st0" d="M62.5,64v31.6h4.1c0.9-1.8,1.8-3.5,2.9-5.2c0.9-1.1,0.3-1.6,0.8-2.4c0.5-0.7,0.9-0.9,0.5-1.3
		c-0.4-0.4-1.1-1.4-0.5-1.1c0.7,0.3,3.9,2.2,4,3.1s-1.1-0.6-1.5-0.3C72.3,88.7,72,89.7,71,90c-0.9,0.3-2.7,3.7-2.7,3.7s-1,1.8-0.8,2
		h26.6V64H62.5z M70.4,84.4c0,0-1.2-1.1-2.1-6.4c-0.9-5.3-2.5-7.5-2.5-8.2c0-0.6,0.3-1.6,1.2-1.5s1,0.9,2.4,0.3
		c1.5-0.6,2.6-0.9,3.9-0.3c1.3,0.6,2.1,0.7,1.6,1.1c-0.5,0.4-3,2.5-4,7.6C70,82.1,71,84.4,70.4,84.4z M73.7,86.7
		c-0.8-0.5-1.6-1.1-2.3-1.8c-0.8-3.5-0.4-7.2,1.1-10.4c2.4-5.1,3.1-5.2,5.8-4.7c2.7,0.5,1.9,2.4,3.6,2.7c1.7,0.3,2.5,1.1,2.7,2
		c0.1,0.9,0.6,1.4,2.1,2.1c1.4,0.7,2.7,2.2,2.6,3.1c-0.1,1-0.5-1.5-3.5-1.1c-3,0.4-3.4,3.1-5.7,4.6c-1,0.7-2,1.5-2.9,2.3
		C76.4,86.2,74.8,87.5,73.7,86.7L73.7,86.7z M91.3,84.2c-1.2-0.2-2.4-0.1-3.6,0.3c-1.8,0.7-3.5,1.5-5.1,2.5
		c-1.7,1.2-3.9,1.7-5.9,1.3c-2.7-0.5-1.8-0.6-1.1-0.8c1.8-0.6,3.3-1.6,4.6-3c2.2-2.4,3.8-4.7,5.3-4.8c1.8-0.1,3.5,0.6,4.6,2
		C90.9,83,91.9,84.2,91.3,84.2L91.3,84.2z"/>
</g>
</svg>
