<?xml version="1.0" encoding="utf-8"?>
<!-- Generator: Adobe Illustrator 25.3.1, SVG Export Plug-In . SVG Version: 6.00 Build 0)  -->
<svg version="1.1" id="Layer_1" xmlns="http://www.w3.org/2000/svg" xmlns:xlink="http://www.w3.org/1999/xlink" x="0px" y="0px"
	 viewBox="0 0 210 84" style="enable-background:new 0 0 210 84;" xml:space="preserve">
<style type="text/css">
	.st0{fill:#000;}
</style>
<path id="Fill_1" class="st0" d="M40.2,54.3c-0.4,0-0.9-0.1-1.3-0.1l0.2-3.4c0.3,0.1,0.6,0.1,1,0.1c0.4,0,0.8-0.1,1-0.4
	c0.2-0.3,0.3-0.7,0.3-1.1V35.8h4v13.1C45.3,52.5,43.6,54.3,40.2,54.3z M92.6,54h-4V35.8h4v3.5h0.3c0.3-1.1,0.9-2.1,1.7-2.8
	c0.8-0.7,1.8-1.1,2.8-1c0.7,0,1.4,0.1,2.1,0.5c0.6,0.3,1.2,0.8,1.5,1.4c0.9,1.7,1.4,3.6,1.3,5.5c0,1.1-0.1,2.1-0.3,3.2
	c-0.2,0.8-0.5,1.6-1,2.3c-0.4,0.6-0.9,1.1-1.5,1.4c-0.6,0.3-1.3,0.5-2,0.4c-1.1,0-2.1-0.4-2.9-1.1c-0.8-0.8-1.4-1.8-1.7-3h-0.3
	L92.6,54L92.6,54z M95.5,39c-0.8,0-1.6,0.3-2.1,0.9c-0.5,0.7-0.8,1.5-0.8,2.4v1.1c0,0.8,0.2,1.7,0.8,2.3c0.5,0.6,1.3,0.9,2.1,0.9
	c1.9,0,2.8-1.2,2.8-3.8c0.1-1-0.1-2-0.6-2.8C97.1,39.3,96.3,38.9,95.5,39L95.5,39z M162.2,50c-0.7,0-1.4-0.1-2-0.5
	c-0.6-0.3-1.1-0.8-1.5-1.4c-0.4-0.7-0.8-1.5-1-2.2c-0.2-1-0.3-2-0.3-3.1c0-1.1,0.1-2.2,0.3-3.2c0.2-0.8,0.5-1.6,1-2.3
	c0.4-0.6,0.9-1.1,1.5-1.4c0.6-0.3,1.3-0.5,2.1-0.5c1,0,2,0.3,2.8,1c0.8,0.8,1.4,1.7,1.7,2.8h0.3v-8.4h4v18.8H167V46h-0.3
	C166,48.6,164.4,50,162.2,50L162.2,50z M164.2,39c-1.9,0-2.8,1.2-2.8,3.9c-0.1,1,0.2,2,0.7,2.8c0.5,0.6,1.4,1,2.2,0.9
	c0.8,0,1.5-0.3,2.1-0.8c0.5-0.6,0.8-1.5,0.8-2.3v-1.1c0.1-0.9-0.2-1.7-0.8-2.4C165.8,39.3,165,38.9,164.2,39L164.2,39z M146.4,50
	c-0.6,0-1.2-0.1-1.7-0.3c-0.5-0.2-0.9-0.6-1.3-1c-0.3-0.5-0.6-1-0.8-1.5c-0.2-0.7-0.3-1.4-0.3-2.1v-9.3h4v8.3
	c-0.1,0.6,0.1,1.2,0.5,1.7c0.4,0.5,1,0.7,1.6,0.6c0.8,0,1.5-0.3,2.1-0.8c0.5-0.6,0.8-1.3,0.8-2.1v-7.7h4.1v13.8h-3.9v-3.7h-0.3
	c-0.3,1.2-0.9,2.2-1.8,3.1C148.4,49.7,147.4,50,146.4,50z M133.1,50c-1,0-2.1-0.2-3-0.5c-0.8-0.3-1.6-0.8-2.2-1.5
	c-0.6-0.7-1.1-1.4-1.4-2.3c-0.3-1-0.5-2-0.5-3.1c0-1.1,0.2-2.1,0.5-3.1c0.6-1.7,2-3.1,3.7-3.7c1-0.3,2-0.5,3-0.5
	c1.9-0.1,3.8,0.6,5.2,1.9c0.7,0.6,1.1,1.4,1.4,2.3c0.3,1,0.5,2,0.5,3.1c0,1.1-0.2,2.1-0.5,3.1c-0.3,0.9-0.8,1.6-1.4,2.3
	c-0.6,0.6-1.4,1.1-2.2,1.5C135.1,49.8,134.1,50,133.1,50z M133,38.7c-0.5,0-1,0.1-1.4,0.3c-0.4,0.2-0.7,0.4-1,0.8
	c-0.6,0.9-0.8,1.9-0.8,2.9c0,2.7,1,4,3.2,4c0.5,0,1-0.1,1.4-0.3c0.4-0.2,0.7-0.4,1-0.8c0.6-0.9,0.8-1.9,0.8-3c0.1-1-0.2-2-0.8-2.9
	c-0.3-0.3-0.6-0.6-1-0.8C134,38.8,133.5,38.7,133,38.7L133,38.7z M110.9,50c-1,0-2-0.1-3-0.4c-0.8-0.3-1.6-0.7-2.2-1.3
	c-0.6-0.6-1.1-1.4-1.4-2.2c-0.3-1-0.5-2-0.5-3.1c0-1.1,0.2-2.1,0.5-3.2c0.3-0.9,0.8-1.7,1.4-2.4c0.6-0.6,1.4-1.1,2.2-1.5
	c1-0.3,2-0.5,3-0.5c0.9,0,1.8,0.1,2.7,0.4c0.7,0.2,1.4,0.6,1.9,1c1.1,1,1.7,2.4,1.9,3.9l-3.7,0.7c-0.1-0.7-0.4-1.3-0.8-1.8
	c-0.5-0.5-1.2-0.8-1.9-0.7c-0.8-0.1-1.6,0.3-2.2,0.9c-0.6,0.8-0.9,1.9-0.8,2.9c-0.1,1,0.2,2,0.8,2.9c0.6,0.7,1.4,1.1,2.3,1
	c0.4,0,0.8-0.1,1.2-0.2c0.3-0.1,0.6-0.3,0.8-0.6c0.4-0.5,0.7-1.2,0.8-1.9l3.7,0.9c-0.1,1.5-0.8,2.8-1.9,3.8
	C114.1,49.6,112.5,50.1,110.9,50z M52.1,50c-0.6,0-1.2-0.1-1.7-0.3c-0.5-0.2-0.9-0.6-1.3-1c-0.3-0.5-0.6-1-0.8-1.5
	c-0.2-0.7-0.3-1.4-0.3-2.1v-9.3h4v8.3c-0.1,0.6,0.1,1.2,0.5,1.7c0.4,0.5,1,0.7,1.6,0.6c0.8,0,1.5-0.3,2.1-0.8
	c0.5-0.6,0.8-1.3,0.8-2.1v-7.7h4v13.8h-3.9v-3.7h-0.3c-0.3,1.2-0.9,2.2-1.8,3.1C54.2,49.7,53.2,50,52.1,50L52.1,50z M85.8,49.6h-4.1
	v-8.3c0-1.5-0.8-2.4-2.1-2.4c-0.8,0-1.5,0.3-2.1,0.8c-0.5,0.6-0.8,1.3-0.8,2.1v7.7h-4v-8.3c0.1-0.6-0.1-1.2-0.5-1.7
	c-0.4-0.5-1-0.7-1.6-0.6c-0.8,0-1.5,0.3-2.1,0.8c-0.5,0.6-0.8,1.3-0.8,2.1v7.7h-4V35.8h3.9v3.7h0.3c0.3-1.2,0.9-2.2,1.8-3.1
	c0.8-0.7,1.8-1.1,2.9-1c1.1-0.1,2.1,0.3,2.8,1.1c0.7,0.9,1.1,1.9,1.1,3H77c0.3-1.2,0.9-2.2,1.7-3.1c0.8-0.7,1.8-1.1,2.9-1
	c1.2-0.1,2.3,0.4,3.1,1.3c0.4,0.4,0.6,1,0.8,1.5c0.2,0.7,0.3,1.4,0.3,2.1L85.8,49.6L85.8,49.6z M123.6,49.6h-4V30.8h4L123.6,49.6z
	 M43.3,34c-1.2,0-2.1-0.9-2.2-2.1c0-1.2,1-2.2,2.2-2.2c1.2,0,2.2,1,2.2,2.2C45.4,33.1,44.4,34,43.3,34z"/>
</svg>
