<?xml version="1.0" encoding="utf-8"?>
<!-- Generator: Adobe Illustrator 25.3.1, SVG Export Plug-In . SVG Version: 6.00 Build 0)  -->
<svg version="1.1" id="Juniper_logo" xmlns="http://www.w3.org/2000/svg" xmlns:xlink="http://www.w3.org/1999/xlink" x="0px"
	 y="0px" viewBox="0 0 210 84" style="enable-background:new 0 0 210 84;" xml:space="preserve">
<style type="text/css">
	.st0{fill:#000;}
</style>
<g id="Group_2" transform="translate(59.658 26.586)">
	<path id="Path_64" class="st0" d="M44.2,25.5h0.7l3.8,5.3v-5.3h0.7v6.4h-0.6l-4-5.5v5.5h-0.7L44.2,25.5z"/>
	<path id="Path_65" class="st0" d="M51.1,25.5h4.2v0.6h-3.6v2.1h3.5v0.6h-3.5v2.4h3.6v0.6h-4.3V25.5z"/>
	<path id="Path_66" class="st0" d="M58.8,26.1h-2.4v-0.6h5.5v0.6h-2.4v5.8h-0.7L58.8,26.1L58.8,26.1z"/>
	<path id="Path_67" class="st0" d="M62.7,25.5h0.7l1.7,5.3l1.7-5.3h0.6l1.7,5.3l1.7-5.3h0.7L69.5,32h-0.6l-1.7-5.4L65.4,32h-0.6
		L62.7,25.5z"/>
	<path id="Path_68" class="st0" d="M72.1,28.7c0-2.3,1.2-3.3,3.2-3.3s3.3,1,3.3,3.3c0,2.3-1.2,3.3-3.3,3.3
		C73.3,32,72.1,31,72.1,28.7z M77.9,28.7c0-1.7-0.8-2.7-2.6-2.7s-2.5,0.9-2.5,2.7s0.8,2.7,2.5,2.7C77.1,31.4,77.9,30.5,77.9,28.7z"
		/>
	<path id="Path_69" class="st0" d="M82.6,29.3h-1.9v2.6H80v-6.4h2.8c1.5,0,2.2,0.6,2.2,1.9c0.1,0.9-0.6,1.8-1.5,1.9c0,0-0.1,0-0.1,0
		l1.6,2.6h-0.7L82.6,29.3z M82.8,28.7c0.9,0,1.5-0.3,1.5-1.3c0-1-0.5-1.3-1.5-1.3h-2.1v2.6L82.8,28.7L82.8,28.7z"/>
	<path id="Path_70" class="st0" d="M88.4,28.5l-1.3,1.4v2h-0.7v-6.4h0.7v3.6l3.3-3.6h0.8L88.9,28l2.6,3.9h-0.8L88.4,28.5z"/>
	<path id="Path_71" class="st0" d="M92,31.3l0.4-0.5c0.7,0.4,1.5,0.7,2.3,0.6c1.3,0,1.9-0.4,1.9-1.3c0-0.9-0.8-1.1-1.9-1.3
		c-1.4-0.2-2.3-0.5-2.3-1.8c0-1.2,0.8-1.7,2.3-1.7c0.8,0,1.6,0.2,2.2,0.6l-0.4,0.6C96,26.2,95.3,26,94.7,26c-1.2,0-1.6,0.3-1.6,1.1
		c0,0.8,0.7,1,1.8,1.2c1.4,0.3,2.4,0.5,2.4,1.8c0,1.3-0.8,1.9-2.6,1.9C93.7,32,92.8,31.8,92,31.3z"/>
</g>
<g id="Group_8" transform="translate(0)">
	<g id="Group_5">
		<g id="Group_3" transform="translate(110.037 0.085)">
			<path id="Path_72" class="st0" d="M53.6,25.4c-9,0-9.4,4-9.4,9.8v14h2.1v-14c0-4.3-0.2-7.8,7.3-7.8c0.7,0,1.4,0,2.2,0.1v-2
				C55.1,25.4,54.4,25.4,53.6,25.4z"/>
		</g>
		<path id="Path_73" class="st0" d="M58.1,40.2V25.9h2.2v14.3c0,4.1,0,7.6,7.5,7.6c7.5,0,7.3-3.5,7.3-7.8v-14h2.1v14
			c0,5.7-0.4,9.8-9.4,9.8C58.7,49.8,58.1,45.7,58.1,40.2z"/>
		<path id="Path_74" class="st0" d="M99.9,35.1v14.2h-2.2V35c0-4.1,0.1-7.6-7.5-7.6c-7.5,0-7.3,3.5-7.3,7.8v14h-2.1V35.2
			c0-5.7,0.4-9.8,9.4-9.8C99.3,25.5,99.9,29.5,99.9,35.1z"/>
		<path id="Path_75" class="st0" d="M103.8,26h2.1v23.3h-2.1V26z"/>
		<path id="Path_76" class="st0" d="M109.8,26h10.9c5.4,0,7.9,2.7,7.9,7.5c0,4.8-2.4,7.7-7.9,7.7h-8.8v8.1h-2.1V26z M120.8,39.1
			c3.8,0,5.6-1.8,5.6-5.6c0-3.7-2-5.5-5.7-5.5h-8.8v11H120.8z"/>
		<path id="Path_77" class="st0" d="M131,37.5c0-6.9,2-12.2,10.8-12.2c9.1,0,9.4,6.1,9.3,12.5h-18c0.1,5.7,1.5,9.9,8.8,9.9
			c2.8,0.2,5.5-0.7,7.6-2.5l1.2,1.6c-2.5,1.9-5.7,2.9-8.8,2.8C132.8,49.8,131,44.4,131,37.5z M133.2,36h15.9
			c-0.2-4.7-0.5-8.6-7.3-8.6C135.2,27.4,133.4,30.9,133.2,36z"/>
		<g id="Group_4" transform="translate(0 0.559)">
			<path id="Path_78" class="st0" d="M45,53.8c9,0,9.4-4,9.4-9.8V25.4h-2.1V44c0,4.3,0.2,7.8-7.3,7.8c-0.3,0-0.6,0-0.8,0v2H45z"/>
		</g>
	</g>
	<g id="Group_7" transform="translate(115.371 21.066)">
		<path id="Path_79" class="st0" d="M45.7,28.3c-0.8,0-1.5-0.7-1.5-1.5s0.7-1.5,1.5-1.5c0.8,0,1.5,0.7,1.5,1.5
			C47.1,27.7,46.5,28.3,45.7,28.3z M45.7,25.6c-0.7,0-1.3,0.6-1.3,1.3c0,0.7,0.6,1.3,1.3,1.3c0.7,0,1.3-0.6,1.3-1.3v0
			C47,26.2,46.4,25.6,45.7,25.6C45.7,25.6,45.7,25.6,45.7,25.6z"/>
		<g id="Group_6" transform="translate(0.881 0.61)">
			<path id="Path_80" class="st0" d="M44.9,26.4h-0.5v0.6h-0.2v-1.7h0.7c0.4,0,0.6,0.2,0.6,0.5c0,0.3-0.1,0.5-0.4,0.5c0,0,0,0,0,0
				l0.4,0.7h-0.2L44.9,26.4z M44.9,26.2c0.2,0,0.4-0.1,0.4-0.3c0-0.2-0.1-0.3-0.4-0.3h-0.5v0.6L44.9,26.2L44.9,26.2z"/>
		</g>
	</g>
</g>
</svg>
