<?xml version="1.0" encoding="utf-8"?>
<!-- Generator: Adobe Illustrator 25.3.1, SVG Export Plug-In . SVG Version: 6.00 Build 0)  -->
<svg version="1.1" id="Layer_1" xmlns="http://www.w3.org/2000/svg" xmlns:xlink="http://www.w3.org/1999/xlink" x="0px" y="0px"
	 viewBox="0 0 210 84" style="enable-background:new 0 0 210 84;" xml:space="preserve">
<style type="text/css">
	.st0{clip-path:url(#SVGID_2_);}
	.st1{fill:#000;}
</style>
<g id="layer1" transform="translate(-8.912 -296.847)">
	<g id="g3109" transform="translate(8.912 296.847)">
		<g>
			<defs>
				<rect id="SVGID_1_" x="40.6" y="31.3" width="128.8" height="21.3"/>
			</defs>
			<clipPath id="SVGID_2_">
				<use xlink:href="#SVGID_1_"  style="overflow:visible;"/>
			</clipPath>
			<g id="g3111" transform="translate(0 0)" class="st0">
				<g id="g3117" transform="translate(46.693 4.25)">
					<path id="path3119" class="st1" d="M52,38.1L52,38.1c0.1-2.7-2-5-4.7-5c0,0,0,0-0.1,0c-2.6,0-4.7,2.2-4.7,4.8
						c0,0.1,0,0.1,0,0.2V38c-0.1,2.6,2,4.9,4.6,5c0,0,0.1,0,0.1,0c2.6,0,4.7-2.1,4.7-4.7C52,38.2,52,38.1,52,38.1 M40.6,38.1
						L40.6,38.1c0-3.7,2.9-6.7,6.5-6.7c0,0,0.1,0,0.1,0c3.6,0,6.6,2.9,6.6,6.5c0,0,0,0.1,0,0.1V38c0,3.7-2.9,6.6-6.6,6.7
						c0,0-0.1,0-0.1,0c-3.6,0-6.6-2.9-6.6-6.5C40.6,38.2,40.6,38.1,40.6,38.1"/>
				</g>
				<g id="g3121" transform="translate(61.292 4.251)">
					<path id="path3123" class="st1" d="M51.7,37.4L51.7,37.4c-0.1-2.5-2.1-4.5-4.6-4.4c0,0,0,0-0.1,0c-2.3-0.1-4.3,1.7-4.4,4
						c0,0.1,0,0.2,0,0.3v0c0,2.4,1.9,4.3,4.3,4.3c0,0,0.1,0,0.1,0C49.5,41.8,51.6,39.9,51.7,37.4C51.7,37.4,51.7,37.4,51.7,37.4
						 M41.2,46.6l0.9-1.5c1.4,1.1,3.1,1.6,4.9,1.6c2.8,0,4.6-1.6,4.6-4.5v-1.5c-1.1,1.7-3,2.7-5,2.7c-3.3,0.1-6-2.5-6-5.8
						c0-0.1,0-0.1,0-0.2v0c-0.1-3.3,2.6-6,5.8-6c0.1,0,0.1,0,0.2,0c2,0,3.9,0.9,5,2.6v-2.3h1.9v10.5c0.1,1.7-0.5,3.3-1.6,4.5
						c-1.3,1.2-3.1,1.8-4.9,1.7C44.9,48.4,42.9,47.8,41.2,46.6"/>
				</g>
				<path id="path3125" class="st1" d="M117.4,35.9h1.9v12.8h-1.9V35.9z M117.3,31.4h2.2v2.1h-2.2V31.4z"/>
				<g id="g3127" transform="translate(36.06 0.002)">
					<path id="path3129" class="st1" d="M50.8,46.8h-8.3V31.4h-1.9v17.3h11.8C51.8,48.1,51.3,47.5,50.8,46.8"/>
				</g>
				<g id="g3131" transform="translate(81.398 0.001)">
					<path id="path3133" class="st1" d="M44.7,47.1c-1,0.2-2-0.6-2.1-1.6c0-0.2,0-0.4,0-0.5v-7.5h3.8c0.4-0.6,0.9-1.2,1.4-1.7h-5.2
						v-4.5h-1.9v13.9c0,2.6,1.6,3.6,3.6,3.6c1,0,2-0.3,2.8-0.9c-0.3-0.4-0.6-0.7-0.8-1.2C45.7,47,45.2,47.1,44.7,47.1"/>
				</g>
				<g id="g3135" transform="translate(87.546 4.251)">
					<path id="path3137" class="st1" d="M50.8,37.3C50.6,35,49.2,33,46.7,33c-2.2,0-3.9,1.9-4.1,4.3L50.8,37.3z M40.6,38L40.6,38
						c0-3.7,2.6-6.7,6.1-6.7c3.8,0,6,3,6,6.7c0,0.2,0,0.4,0,0.6H42.5c0.1,2.4,2.1,4.3,4.5,4.3c1.5,0,3-0.6,4-1.8l1.2,1.1
						C51,43.9,49,44.8,47,44.7c-3.5,0-6.4-2.8-6.4-6.3C40.6,38.3,40.6,38.2,40.6,38"/>
				</g>
				<g id="g3139" transform="translate(100.944 4.25)">
					<path id="path3141" class="st1" d="M40.6,38.1L40.6,38.1c0-3.7,2.9-6.7,6.5-6.7c0,0,0,0,0,0c2,0,3.8,0.8,5.1,2.3L51,35
						c-0.9-1.2-2.4-1.9-3.9-1.9c-2.6,0.1-4.6,2.2-4.6,4.8c0,0,0,0.1,0,0.1V38c-0.1,2.6,1.9,4.9,4.6,5c0,0,0.1,0,0.1,0
						c1.5,0,2.9-0.7,3.9-1.9l1.2,1.1c-1.3,1.6-3.2,2.5-5.2,2.5C43.5,44.7,40.6,41.7,40.6,38.1C40.6,38.1,40.6,38.1,40.6,38.1"/>
				</g>
				<g id="g3143" transform="translate(114.27 0.001)">
					<path id="path3145" class="st1" d="M40.6,31.4h1.9v6.7c0.9-1.6,2.6-2.5,4.4-2.5c3.1,0,4.9,2.1,4.9,5.1v7.9h-1.9v-7.5
						c0-2.4-1.3-3.9-3.5-3.9c-2.1,0-3.8,1.6-3.8,3.7c0,0.1,0,0.2,0,0.3v7.3h-1.9V31.4z"/>
				</g>
				<g id="g3147" transform="translate(126.251 4.521)">
					<path id="path3149" class="st1" d="M41.9,32.6c0.2,0,0.3-0.1,0.3-0.2c0-0.1-0.1-0.2-0.3-0.2h-0.3v0.4L41.9,32.6z M41.4,32H42
						c0.3,0,0.5,0.1,0.5,0.4c0,0.2-0.1,0.4-0.3,0.4l0.3,0.5h-0.3l-0.3-0.4h-0.3v0.4h-0.2V32z M43,32.6L43,32.6
						c0-0.6-0.5-1.1-1.1-1.1c0,0,0,0,0,0c-0.6,0-1.1,0.5-1.1,1.1c0,0,0,0,0,0v0c0,0.6,0.5,1.1,1.1,1.1c0,0,0,0,0,0
						C42.5,33.8,43,33.3,43,32.6C43,32.6,43,32.6,43,32.6 M40.6,32.6L40.6,32.6c0-0.7,0.6-1.3,1.3-1.3c0.7,0,1.3,0.6,1.3,1.3
						c0,0,0,0,0,0v0c0,0.7-0.6,1.3-1.3,1.3C41.2,33.9,40.6,33.3,40.6,32.6C40.6,32.6,40.6,32.6,40.6,32.6"/>
				</g>
				<g id="g3151" transform="translate(21.453 10.04)">
					<path id="path3153" class="st1" d="M41.9,32.9c1.1,0.5,2.4,0.5,3.5,0.1c1.1-0.4,1.5-1,0.8-1.3c-1.6-0.4-3.2-0.4-4.9-0.2
						C40.1,31.7,40.6,32.4,41.9,32.9"/>
				</g>
				<g id="g3155" transform="translate(19.53 16.626)">
					<path id="path3157" class="st1" d="M41.3,33c1.2,1.5,3,2.8,3.9,2.9c0.7-0.1,0.3-1.3-0.6-2.4c-0.9-1-2-1.7-3.2-2.1
						C40.4,31.1,40.3,31.7,41.3,33"/>
				</g>
				<g id="g3159" transform="translate(17.839 0.307)">
					<path id="path3161" class="st1" d="M43,35.5c2.1-1.1,3.6-2.6,3.4-3.3c-0.2-0.7-1.1-1-2-0.7c-1.4,0.8-2.6,2-3.4,3.3
						C40,36.3,40.9,36.6,43,35.5"/>
				</g>
				<g id="g3163" transform="translate(0 0.001)">
					<path id="path3165" class="st1" d="M52.6,32.9c0.2-0.2,0.2-0.5,0.2-0.8c-0.1-0.4-0.7-0.6-1.1-0.7c-0.7-0.1-1.4,0-2,0.1
						c-1.2,0.3-2.4,0.7-3.5,1.4c-0.7,0.4-1.3,1-1.9,1.5c-2.1,2.1-4.2,5.6-3.6,9.7c0.4,2.1,1.3,4,2.8,5.6c1.4,1.7,3.7,3.2,5.7,2.8
						c0.9-0.2,1.6-0.8,2-1.6c1.3-2.4-0.8-5.5-1.5-6.8c-0.9-1.6-1.1-3.6-0.5-5.4C50.1,36.7,51.2,34.7,52.6,32.9"/>
				</g>
				<g id="g3167" transform="translate(9.789 7.126)">
					<path id="path3169" class="st1" d="M46.7,36.5c-1.1,0-1.8-0.4-1.8-1.1c0.3-1.1,1.1-1.9,2.2-2.1c0.8,0.1,1.5,0.7,1.6,1.5
						C48.6,35.9,47.7,36.6,46.7,36.5 M47.2,38.3c-0.3,0.4-0.8,0.7-1.3,0.7c-0.5,0-1-0.3-1.2-0.8c0-0.1-0.1-0.2-0.1-0.4
						c0-0.1,0-0.1,0.5,0.1c0.3,0.1,0.7,0.2,1,0.2c0.1,0,0.3,0,0.4,0C46.8,38,47.6,37.9,47.2,38.3 M43.7,35.3
						c-0.2,0.6-0.3,0.4-0.3,0.2c-0.1-0.3-0.2-0.5-0.2-0.8c0-0.9,0.7-1.7,2-1.7c0.3,0,0.4,0.1,0.1,0.2c-0.1,0.1-0.2,0.1-0.3,0.2
						C44.4,33.9,43.9,34.6,43.7,35.3 M51.2,34.2c-0.1-1.7-2.5-2.9-5.5-2.8c-2.4,0.1-5.1,1.5-5.1,3.3c0,1.4,0.9,2.6,2.1,3
						c0.1,0.1,0.2,0,0.3,0.3c0.3,1,1.2,1.8,2.3,1.7C47.5,39.8,51.4,36.7,51.2,34.2"/>
				</g>
			</g>
		</g>
	</g>
</g>
</svg>
