<?xml version="1.0" encoding="utf-8"?>
<!-- Generator: Adobe Illustrator 25.3.1, SVG Export Plug-In . SVG Version: 6.00 Build 0)  -->
<svg version="1.1" id="Layer_1" xmlns="http://www.w3.org/2000/svg" xmlns:xlink="http://www.w3.org/1999/xlink" x="0px" y="0px"
	 viewBox="0 0 210 84" style="enable-background:new 0 0 210 84;" xml:space="preserve">
<style type="text/css">
	.st0{fill:#fff;}
</style>
<g id="XMLID_2_" transform="translate(-7.09 -6.96)">
	<g id="XMLID_62_" transform="translate(7.09 7.034)">
		<path id="XMLID_64_" class="st0" d="M40.5,23.6L40.5,23.6c3.8,1.7,7.5,3.5,11.3,5.2c0,1.7,0,3.4,0,5.1c-2.2-1-4.4-2-6.6-3.1
			c0,3.5,0,7,0,10.6c2.2,1,4.4,2,6.6,3.1c0,1.7-0.1,3.4,0,5.1c-3.8-1.7-7.5-3.5-11.3-5.2C40.5,37.5,40.5,30.6,40.5,23.6z"/>
		<path id="XMLID_63_" class="st0" d="M63,23.6L63,23.6c0.1,6.9,0.1,13.9,0.1,20.8c-3.8,1.7-7.5,3.5-11.2,5.2
			c-0.1-1.7-0.1-3.4,0-5.1c2.2-1,4.4-2.1,6.7-3.1c0-3.5,0-7.1,0-10.6c-2.2,1-4.4,2.1-6.7,3.1c0-1.7,0-3.4,0-5.1
			C55.5,27.1,59.3,25.4,63,23.6z"/>
	</g>
	<path id="XMLID_61_" class="st0" d="M78.9,30.6c3,2.2,6,4.5,9,6.8c3-2.3,6-4.5,9-6.8c0,7,0,13.9,0,20.9c-1.5,0-3.1,0-4.6,0
		c0-4,0-7.9,0-11.9c-1.5,1.1-2.9,2.2-4.4,3.3c-1.5-1.1-2.9-2.2-4.4-3.3c0,4,0,7.9,0,11.9c-1.5,0-3.1,0-4.6,0
		C78.9,44.5,78.9,37.6,78.9,30.6z"/>
	<g id="XMLID_57_" transform="translate(73.097 7.081)">
		<path id="XMLID_58_" class="st0" d="M47.3,23.7c1.4,0,2.9,0,4.3,0c2.9,6.9,5.7,13.8,8.6,20.8c-1.6,0-3.2,0-4.8,0
			c-0.5-1.2-0.9-2.4-1.4-3.5c-2.4,0-4.8,0-7.2,0c-0.5,1.2-0.9,2.3-1.4,3.5c-1.6,0-3.2,0-4.8,0c2.6-6,5.3-12,7.9-18
			C48.1,25.5,47.7,24.6,47.3,23.7z M50.4,31.9c-0.6,1.6-1.3,3.2-1.9,4.8c1.3,0,2.6,0,3.9,0C51.7,35.1,51,33.5,50.4,31.9z"/>
	</g>
	<path id="XMLID_56_" class="st0" d="M139,31.1c1.8-0.5,3.7-0.4,5.4,0.3c-0.6,1.3-1.2,2.6-1.7,3.8c-0.8-0.3-1.8-0.7-2.6-0.1
		c-0.9,0.8-0.5,2.1-0.6,3.2h2.7c0,1.3,0,2.6,0,3.9c-0.9,0-1.8,0-2.7,0c0,3.1,0,6.2,0,9.3c-1.4,0-2.8,0-4.2,0c0-3.1,0-6.2,0-9.3
		c-0.6,0-1.2,0-1.9,0v-3.9c0.6,0,1.2,0,1.9,0c-0.1-1.4,0-2.7,0.4-4.1C136.3,32.7,137.5,31.6,139,31.1z"/>
	<path id="XMLID_24_" class="st0" d="M103.4,36.5c2.2-0.9,4.7-0.9,6.9,0.1c1.4,0.8,2.7,1.9,3.5,3.3c-1.2,0.7-2.3,1.4-3.5,2.1
		c-0.6-1.3-2-2.2-3.4-2.3c-2.2,0-4,1.8-4,4c0,2.2,1.8,4,4,4c1.5-0.1,2.8-0.9,3.4-2.3c1.2,0.7,2.3,1.4,3.5,2.1
		c-0.8,1.4-2,2.5-3.4,3.2c-3,1.4-6.5,1-9.1-1.2c-2-1.8-3-4.4-2.5-7.1C99.2,39.8,101,37.5,103.4,36.5z"/>
	<g id="XMLID_20_" transform="translate(102.996 12.24)">
		<path id="XMLID_21_" class="st0" d="M42.1,26.7c2.7-3.4,7.6-4,11.1-1.5c2.5,1.7,3.4,4.9,3.2,7.8c-3.8,0-7.7,0-11.5,0
			c0.7,1.9,2.6,2.9,4.5,2.6c0.9-0.2,1.7-0.6,2.3-1.3c1.1,0.6,2.3,1.2,3.4,1.9c-1.2,1.4-2.7,2.3-4.4,2.8c-3.2,0.9-6.6-0.2-8.7-2.9
			C40,33.3,40,29.5,42.1,26.7z M45,29.5c2.2,0,4.4,0,6.7,0c-0.6-1.3-1.8-2.2-3.2-2.2C46.9,27.2,45.6,28.1,45,29.5z"/>
	</g>
	<g id="XMLID_16_" transform="translate(120.175 12.241)">
		<path id="XMLID_17_" class="st0" d="M41.7,27.3c2.2-3.3,6.4-4.5,10-2.9c2,0.9,3.5,2.6,4.2,4.7c0.4,1.3,0.5,2.6,0.4,3.9
			c-3.8,0-7.7,0-11.5,0c0.6,1.8,2.4,2.8,4.3,2.6c1-0.2,1.9-0.6,2.6-1.3c1.1,0.6,2.3,1.2,3.4,1.9c-1.4,1.7-3.4,2.8-5.5,3.1
			c-2.7,0.4-5.4-0.6-7.3-2.7C40.2,33.9,39.9,30.2,41.7,27.3z M45,29.5c2.2,0,4.4,0,6.7,0c-0.6-1.4-2-2.3-3.5-2.2
			C46.7,27.3,45.5,28.2,45,29.5z"/>
	</g>
	<g id="XMLID_12_" transform="translate(38.362 32.899)">
		<path id="XMLID_13_" class="st0" d="M40.5,23.7c0.5,0,1,0,1.5,0c0,1,0,2,0,3c0.9-1,2.5-1.1,3.5-0.1c0.1,0.1,0.2,0.2,0.3,0.3
			c0.9,1.4,0.8,3.2-0.2,4.5c-1,1-2.6,1-3.6,0c0,0-0.1-0.1-0.1-0.1c0,0.2,0,0.5,0,0.7h-1.4C40.5,29.2,40.5,26.4,40.5,23.7z
			 M42.8,27.3c-1.3,0.8-1.1,3.5,0.7,3.5c1.3,0,1.7-1.7,1.3-2.7c-0.2-0.7-1-1.2-1.8-0.9C43,27.2,42.9,27.3,42.8,27.3z"/>
	</g>
	<path id="XMLID_11_" class="st0" d="M94.9,56.5h1.5v8.3c-0.5,0-1,0-1.5,0V56.5z"/>
	<path id="XMLID_10_" class="st0" d="M115.2,56.5c0.5,0,1,0,1.5,0c0,2.2,0,4.3,0,6.5c0,0.4,0.5,0.5,0.8,0.6c0,0.4,0,0.8,0,1.3
		c-0.6-0.1-1.3,0-1.8-0.4c-0.4-0.5-0.6-1.1-0.5-1.7C115.2,60.8,115.2,58.7,115.2,56.5z"/>
	<path id="XMLID_9_" class="st0" d="M105.2,57.3h1.5c0,0.6,0,1.1,0,1.7c0.4,0,0.9,0,1.3,0c0,0.4,0,0.8,0,1.2c-0.4,0-0.9,0-1.3,0
		c-0.1,1,0,1.9,0.1,2.9c0.2,0.5,0.9,0.5,1.3,0.6c0,0.4,0,0.9,0,1.3c-1,0-2.3-0.1-2.8-1.2c-0.2-1.2-0.3-2.3-0.2-3.5
		c-0.2,0-0.6,0-0.8,0c0-0.4,0-0.8,0-1.2c0.3,0,0.5,0,0.8,0C105.2,58.4,105.2,57.8,105.2,57.3z"/>
	<path id="XMLID_8_" class="st0" d="M84.8,58.9c0.6,0,1.1,0,1.7,0c0.5,1.4,1,2.8,1.5,4.2c0.4-1.4,0.9-2.8,1.4-4.2c0.6,0,1.1,0,1.6,0
		c-0.9,2.3-1.8,4.6-2.7,6.9c-0.3,0.7-0.9,1.3-1.7,1.5h-0.8c-0.3-0.1-0.6-0.2-0.9-0.3c0.1-0.4,0.3-0.7,0.4-1.1c0.4,0,0.9,0.3,1.3,0
		c0.3-0.3,0.5-0.7,0.7-1.1C86.5,62.8,85.6,60.9,84.8,58.9z"/>
	<path id="XMLID_7_" class="st0" d="M98,58.9c0.5,0,1,0,1.5,0c0,0.3,0,0.7-0.1,1c0.7-1,2-1.4,3.2-0.9c0.7,0.4,1.1,1.1,1,1.9
		c0,1.3,0,2.7,0,4c-0.5,0-1,0-1.5,0c0-1.4,0.1-2.8-0.1-4.1c-0.4-1.1-2.1-0.5-2.4,0.4c-0.2,1.2-0.3,2.5-0.2,3.8H98
		C98,62.9,98,60.9,98,58.9z"/>
	<g id="XMLID_3_" transform="translate(67.974 35.086)">
		<path id="XMLID_4_" class="st0" d="M41.7,24.3c1.2-1,3-0.8,4,0.5c0.4,0.7,0.6,1.5,0.5,2.4c-1.4,0-2.8,0-4.2,0
			c0.2,0.5,0.4,1.1,1,1.4c0.9,0.3,1.9,0.2,2.6-0.4c0.2,0.4,0.4,0.7,0.6,1.1c-1.3,0.9-3,1-4.3,0.2c-1.4-1.1-1.7-3.1-0.6-4.6
			C41.3,24.6,41.5,24.4,41.7,24.3z M42.1,26c0.9,0,1.8,0,2.7,0c-0.2-0.5-0.4-1.2-1.1-1.2C42.9,24.8,42.2,25.3,42.1,26L42.1,26z"/>
	</g>
</g>
</svg>
