<?xml version="1.0" encoding="utf-8"?>
<!-- Generator: Adobe Illustrator 25.3.1, SVG Export Plug-In . SVG Version: 6.00 Build 0)  -->
<svg version="1.1" id="model-n-vector-logo" xmlns="http://www.w3.org/2000/svg" xmlns:xlink="http://www.w3.org/1999/xlink"
	 x="0px" y="0px" viewBox="0 0 210 84" style="enable-background:new 0 0 210 84;" xml:space="preserve">
<style type="text/css">
	.st0{fill:#fff;}
</style>
<g id="Group_28" transform="translate(0 0)">
	<path id="Path_246" class="st0" d="M70.6,30.5L64,51h-0.1l-6.7-20.5h-3.5v22.7h2V32.5h0.1l6.9,20.8H65l6.7-20.8h0.1v20.8h2V30.5
		L70.6,30.5L70.6,30.5z"/>
</g>
<g id="Group_29" transform="translate(24.595 0)">
	<path id="Path_247" class="st0" d="M59.2,52c-2.6,0-3.1-1.7-3.2-2.1c-0.3-1.5-0.4-3.1-0.4-4.7c0-4.7,0.5-6.7,3.6-6.7
		s3.6,2.1,3.6,6.7c0,1.6-0.1,3.1-0.4,4.7C62,51.3,60.6,52.2,59.2,52 M59.2,53.5c4.1,0,5.5-2.4,5.5-6.5v-3.8c0-2-0.1-6.2-5.5-6.2
		s-5.5,4.2-5.5,6.2V47C53.7,51.1,55.1,53.5,59.2,53.5"/>
	<path id="Path_248" class="st0" d="M73.6,52c-2.1,0-3.5-0.8-3.5-6.7c0-3.7,0-6.8,3.4-6.8c3.5,0,3.5,4.4,3.5,5.3v2.8
		C77.1,50.5,75.4,52,73.6,52 M77.3,53.2h1.8c-0.1-1-0.2-2.1-0.2-3.1V30.5H77v8.4L77,38.8C76,37.7,74.6,37,73.2,37
		c-4.9,0-4.9,5.2-4.9,8.3c0,3.7,0.3,8.3,4.9,8.3c1.7,0,3.2-0.9,4-2.3l0.1-0.1L77.3,53.2z"/>
	<path id="Path_249" class="st0" d="M85.1,44.1c0-3.5,0.5-5.6,3.6-5.6s3.6,2.1,3.6,5.6H85.1z M94.2,45.7c0-4.7,0-8.7-5.5-8.7
		c-3.6,0-5.5,2.1-5.5,6.7v3.9c0,4.8,2.7,5.9,5.5,5.9c3.2,0,5.3-1.3,5.5-5.1h-2c0.2,1.8-1,3.4-2.8,3.6c-0.2,0-0.5,0-0.7,0
		c-3,0-3.6-2.9-3.6-5.1v-1.2L94.2,45.7z"/>
	<rect id="Rectangle_35" x="99" y="30.5" class="st0" width="1.9" height="22.8"/>
	<path id="Path_250" class="st0" d="M114.7,53.2V30.5h6.4l6.1,15.7h0.1V30.5h4.5v22.7h-6.3l-6.2-16.6h-0.1v16.6L114.7,53.2
		L114.7,53.2z"/>
</g>
</svg>
