<?xml version="1.0" encoding="utf-8"?>
<!-- Generator: Adobe Illustrator 28.0.0, SVG Export Plug-In . SVG Version: 6.00 Build 0)  -->
<svg version="1.1" id="Layer_1" xmlns="http://www.w3.org/2000/svg" xmlns:xlink="http://www.w3.org/1999/xlink" x="0px" y="0px"
	 viewBox="0 0 255 180" style="enable-background:new 0 0 255 180;" xml:space="preserve">
<path d="M86.2,105.1c-2.4-0.2-2.3-1.5-2.5-4c-0.4-7.2-0.5-16.6-0.6-22c0-3.6,0.4-4.4,3.6-4.7l1.1-0.1c0.2-0.2,0.2-1.1,0-1.3
	C86.2,73,84.5,73,83.2,73c-0.9,0-2,0-3.8-0.1c-0.1,2.3-1.5,5.1-3.8,9.6l-4.7,9.6c-1.3,2.6-2.5,5.2-3.9,7.6h-0.1
	c-1.2-2.3-2.4-4.5-3.4-6.9l-5.7-11.6c-1.5-3.2-2.8-6.3-2.6-8.3c-1.7,0.1-3,0.1-4.2,0.1c-1.3,0-2.5,0-3.9-0.1
	c-0.4,0.2-0.5,0.9-0.2,1.3l0.8,0.1c3.1,0.5,3.4,1.2,3.3,4.4c-0.1,2.7-0.4,7-0.6,11.3c-0.2,5-0.6,7.7-0.8,11
	c-0.4,3.6-0.9,3.9-3.1,4.2l-1.1,0.1c-0.4,0.2-0.2,1.1,0.1,1.3c1.7-0.1,3.6-0.1,5.1-0.1c1.9,0,3.9,0,5.6,0.1c0.4-0.1,0.4-0.9,0-1.3
	l-1.9-0.1c-2-0.1-2.3-0.9-2.3-4.6c0-4.3,0.2-8.8,0.4-11.9c0.1-3,0.4-5.8,0.5-9h0.1c1.1,2.3,2.1,5,3.2,7.2l4.5,9.7
	c1.2,2.5,3.6,7.4,4.4,10.1c0.1,0.1,0.4,0.2,0.5,0.2c0.2,0,0.4,0,0.5-0.2c0.9-2.3,3.2-7,5.5-11.5l4.5-8.8c0.9-2,3-6.1,3.3-6.5h0.1
	l0.1,21c0,3.2,0,4-2.5,4.3l-1.4,0.1c-0.4,0.4-0.2,1.1,0.1,1.3c2-0.1,4.3-0.1,6.1-0.1c1.8,0,3.9,0,5.9,0.1c0.4-0.2,0.4-0.9,0.1-1.3
	L86.2,105.1L86.2,105.1z"/>
<path d="M100.9,83.8c-7.4,0-12.5,5.1-12.5,11.9c0,6.3,4.6,11.4,12.5,11.4c7.1,0,12.2-5,12.2-11.8C113.1,89.2,109,83.8,100.9,83.8z
	 M102,105.5c-5.8,0.5-8.7-4.9-9.1-10.1c-0.6-7.1,3.2-9.9,6.8-10.2c5.6-0.5,8.5,4.7,9,10.1C109.2,102.2,105.8,105.2,102,105.5z"/>
<path d="M197.3,77.9c0-2.6-1.8-4.9-3.9-4.9c-1.9,0-2.4,1.3-2.4,2.1c0,0.9,0.7,1.3,1.3,1.4c0.9,0.1,2.5,0.9,2.5,2.8
	c0,2-1.9,3.4-3.8,4.3c-0.2,0.4,0,0.8,0.4,1.1C194.6,83.8,197.3,81.3,197.3,77.9L197.3,77.9z"/>
<path d="M206,94.3l-3.1-1.7c-2-1.1-3.3-2.1-3.3-3.9s1.1-3.4,4-3.4c3,0,4.3,2.6,4.7,4.4c0.2,0.4,1.2,0.2,1.3-0.1c0-2.1-0.4-4-0.7-5
	c-1.7-0.2-3-0.7-4.6-0.7c-5.1,0-8,2.6-8,6.3c0,2.8,2.1,4.7,4.5,6.1l2.3,1.2c2.8,1.4,3.6,3.1,3.6,4.7c0,2.3-1.7,3.7-4.3,3.7
	c-3.3,0-5.6-3.6-6.1-5.5c-0.4-0.5-1.1-0.4-1.3,0.1c0,2.6,0.6,4.5,1.1,5.2c0.7,0.5,2.7,1.5,5.8,1.5c5,0,8.2-2.5,8.2-6.4
	C210,97.2,207.7,95.1,206,94.3L206,94.3z"/>
<path d="M159.9,85.5c-2.4-0.8-4.9-1.1-7.6-1.1c-4,0-6.9,0.1-9.7,0.2c-0.5,0.1-0.5,1.1,0,1.3l1.5,0.2c1.2,0.1,1.2,0.9,1.2,4.3v10.7
	c0,3.4-0.2,3.7-2.4,4l-0.9,0.1c-0.4,0.2-0.2,1.1,0.1,1.3c2-0.1,3.6-0.1,5.1-0.1c0.7,0,1.7,0,2.7,0.1c1.1,0.1,2.3,0.1,3.3,0.1
	c2.5,0,5.3-0.4,7.6-1.5c4-2,6.1-5.7,6.1-9.7C166.9,90.7,164.5,87,159.9,85.5L159.9,85.5z M153.4,105.2c-3.8,0-4.4-1.7-4.4-4.9v-12
	c0-1.1,0-1.8,0.2-2c0.5-0.4,1.3-0.6,3.1-0.6c5.7,0,10,3.2,10,9.4C162.4,101.4,159.4,105.2,153.4,105.2L153.4,105.2z"/>
<path d="M188.5,84.3c-1.4,0.1-2.5,0.1-3.6,0.1s-2.3,0-3.8-0.1c-0.5,0.2-0.6,0.9-0.1,1.3l1.1,0.1c1.2,0.1,1.1,0.6,0.4,2l-2,3.7
	c-0.8,1.5-1.7,2.8-2.4,4.2c-0.7-1.3-1.5-2.6-2.3-4.2l-1.9-3.6c-0.8-1.5-0.7-1.9,0.5-2.1l0.7-0.1c0.5-0.2,0.4-1.1-0.1-1.3
	c-1.7,0.1-2.7,0.1-4.3,0.1c-1.8,0-3,0-4.6-0.1c-0.4,0.1-0.5,0.9-0.1,1.3l1.3,0.2c1.3,0.2,1.8,0.7,2.8,2.7l3.7,6.8
	c1.3,2.3,1.4,2.7,1.4,4.3v1.9c0,3-0.2,3.3-2.4,3.6l-1.3,0.1c-0.4,0.2-0.4,1.1,0.1,1.3c2.3-0.1,3.8-0.1,5.5-0.1c1.7,0,3.2,0,5.5,0.1
	c0.4-0.1,0.5-0.9,0.1-1.3l-1.3-0.1c-2.1-0.2-2.4-0.6-2.4-3.6v-2.7c0-1.4,0.1-2,1.9-4.9l3.1-5c1.5-2.5,1.8-2.8,3.4-3.1l1.2-0.2
	C189,85.4,188.9,84.4,188.5,84.3L188.5,84.3z"/>
<path d="M128,83.8c-7.4,0-12.5,5.1-12.5,11.9c0,6.3,4.6,11.4,12.5,11.4c7.1,0,12.2-5,12.2-11.8C140.2,89.2,136,83.8,128,83.8z
	 M129,105.5c-5.8,0.5-8.7-4.9-9.1-10.1c-0.6-7.1,3.2-9.9,6.8-10.2c5.6-0.5,8.5,4.7,9,10.1C136.3,102.2,132.8,105.2,129,105.5z"/>
</svg>
