<?xml version="1.0" encoding="utf-8"?>
<!-- Generator: Adobe Illustrator 25.3.1, SVG Export Plug-In . SVG Version: 6.00 Build 0)  -->
<svg version="1.1" id="Layer_1" xmlns="http://www.w3.org/2000/svg" xmlns:xlink="http://www.w3.org/1999/xlink" x="0px" y="0px"
	 viewBox="0 0 210 84" style="enable-background:new 0 0 210 84;" xml:space="preserve">
<style type="text/css">
	.st0{fill:#000;}
</style>
<g id="Nvidia_logo" transform="translate(-35.188 -31.512)">
	<path id="path17" class="st0" d="M179,100.7c0,0.7-0.5,1.4-1.3,1.4c0,0,0,0-0.1,0v0c-0.8,0-1.4-0.6-1.5-1.4s0.6-1.4,1.4-1.5
		C178.3,99.2,179,99.8,179,100.7C179,100.6,179,100.6,179,100.7L179,100.7z M179.6,100.7c0-1.1-0.8-1.9-1.8-2c-1.1,0-1.9,0.8-2,1.8
		c0,1.1,0.8,1.9,1.8,2c0,0,0.1,0,0.1,0c1,0.1,1.8-0.7,1.9-1.7C179.6,100.7,179.6,100.7,179.6,100.7 M177.3,100.8h0.2l0.5,0.8h0.5
		l-0.5-0.9c0.3,0,0.5-0.2,0.5-0.4c0,0,0,0,0-0.1c0-0.5-0.3-0.6-0.8-0.6h-0.8v2h0.4L177.3,100.8 M177.3,100.5V100h0.3
		c0.2,0,0.4,0,0.4,0.2c0,0.2-0.1,0.3-0.3,0.3H177.3"/>
	<path id="path19" class="st0" d="M166.7,90.6l2.4,6.5h-4.8L166.7,90.6z M164.2,88l-5.5,13.9h3.9l0.9-2.4h6.5l0.8,2.4h4.2L169.4,88
		L164.2,88z M153.2,101.9h3.9V88h-3.9L153.2,101.9z M126,88l-3.3,11l-3.1-11h-4.2l4.5,13.9h5.6L130,88L126,88z M141.8,91.1h1.7
		c2.4,0,4,1.1,4,3.9s-1.6,3.9-4,3.9h-1.7L141.8,91.1z M138,88v13.9h6.4c3.4,0,4.5-0.6,5.7-1.8c0.8-0.9,1.4-2.8,1.4-5
		c0.1-1.7-0.4-3.3-1.3-4.8c-1.5-1.9-3.5-2.3-6.7-2.3H138z M100.8,88v13.9h4V91.4h3.1c0.8-0.1,1.6,0.2,2.2,0.8
		c0.6,0.7,0.9,1.7,0.9,3.7v6.1h3.8v-7.7c0-5.5-3.5-6.2-6.9-6.2L100.8,88z M131.6,88v13.9h3.9V88H131.6z"/>
	<path id="path21" class="st0" d="M111.4,60.4c3.6-4.8,9.1-7.7,15.1-8.2v-2.7c-11.2,0.9-20.8,10.3-20.8,10.3s5.5,15.8,20.8,17.3
		v-2.9C115.2,72.8,111.4,60.4,111.4,60.4z M126.5,68.5v2.6c-8.5-1.5-10.9-10.4-10.9-10.4c2.9-2.9,6.8-4.8,10.9-5.3v2.9h0
		c-3.6-0.4-6.3,2.9-6.3,2.9S121.7,66.9,126.5,68.5 M126.5,44.5v5c0.3,0,0.7,0,1-0.1c12.7-0.4,20.9,10.4,20.9,10.4
		s-9.5,11.5-19.4,11.5c-0.9,0-1.7-0.1-2.6-0.2v3.1c0.7,0.1,1.4,0.1,2.1,0.1c9.2,0,15.8-4.7,22.3-10.3c1.1,0.9,5.4,2.9,6.3,3.8
		c-6.1,5.1-20.4,9.3-28.5,9.3c-0.8,0-1.5,0-2.3-0.1v4.3h35V44.5L126.5,44.5z M126.5,55.5v-3.3c0.3,0,0.7,0,1-0.1
		c9.1-0.3,15.1,7.8,15.1,7.8s-6.5,9-13.4,9c-0.9,0-1.8-0.1-2.7-0.4V58.4c3.5,0.4,4.3,2,6.4,5.6l4.7-4c-2.3-2.8-5.7-4.4-9.3-4.5
		C127.7,55.4,127.1,55.5,126.5,55.5"/>
</g>
</svg>
