<?xml version="1.0" encoding="utf-8"?>
<!-- Generator: Adobe Illustrator 25.3.1, SVG Export Plug-In . SVG Version: 6.00 Build 0)  -->
<svg version="1.1" id="Panasas_Logo" xmlns="http://www.w3.org/2000/svg" xmlns:xlink="http://www.w3.org/1999/xlink" x="0px"
	 y="0px" viewBox="0 0 210 84" style="enable-background:new 0 0 210 84;" xml:space="preserve">
<style type="text/css">
	.st0{fill:#000;}
</style>
<g id="Group_9" transform="translate(0 0)">
	<path id="Path_81" class="st0" d="M57.9,35.6H47v12.8h3.2v-4.5h7.7c2.4,0,3.1-0.7,3.1-2.8v-2.8C61,36.3,60.3,35.6,57.9,35.6z
		 M58.1,41.2c0,0.2-0.1,0.2-0.1,0.2h-7.7v-3.3h7.6c0.3,0,0.3,0,0.3,0.2L58.1,41.2z"/>
	<path id="Path_82" class="st0" d="M70.6,35.6h-3.2l-7.3,12.8h3.5l1.4-2.5h7.9l1.4,2.5h3.6L70.6,35.6L70.6,35.6z M71.6,43.5h-5.3
		l2.6-4.8L71.6,43.5z"/>
	<path id="Path_83" class="st0" d="M91.4,40.7c0,0.7,0,2.6,0.1,3.6c-0.4-0.4-1-0.9-1.4-1.3l-8.4-7.3h-2.5v12.7h3.2v-5.1
		c0-0.8,0-2.7-0.1-3.6c0.4,0.4,1.2,1.1,1.6,1.5l8.3,7.2l0,0h2.4V35.6h-3.2V40.7z"/>
	<path id="Path_84" class="st0" d="M106.2,35.6h-3.2l-7.3,12.8h3.5l1.4-2.5h7.8l1.4,2.5h3.6L106.2,35.6L106.2,35.6z M107.3,43.5
		h-5.3l2.6-4.8L107.3,43.5z"/>
	<path id="Path_85" class="st0" d="M124.7,40.5h-7.3c-0.3,0-0.3,0-0.3-0.2v-2c0-0.2,0-0.2,0.3-0.2h9.9v-2.4h-10.1
		c-2.4,0-3.2,0.7-3.2,2.8v1.8c0,2.1,0.8,2.8,3.2,2.8h7.3c0.3,0,0.3,0,0.3,0.2v2.3c0,0.2,0,0.2-0.3,0.2h-10.6l1.3,2.6h9.5
		c2.5,0,3.3-0.7,3.3-2.8v-2.4C128,41.2,127.2,40.5,124.7,40.5z"/>
	<path id="Path_86" class="st0" d="M138.7,35.6h-3.2l-7.3,12.8h3.5l1.4-2.5h7.9l1.4,2.5h3.6L138.7,35.6L138.7,35.6z M139.8,43.5
		h-5.3l2.6-4.8L139.8,43.5z"/>
	<path id="Path_87" class="st0" d="M157.2,40.5h-7.3c-0.3,0-0.3,0-0.3-0.2v-2c0-0.2,0-0.2,0.3-0.2h9.9v-2.4h-10.1
		c-2.4,0-3.2,0.7-3.2,2.8v1.8c0,2.1,0.8,2.8,3.2,2.8h7.3c0.3,0,0.3,0,0.3,0.2v2.3c0,0.2,0,0.2-0.3,0.2h-10.6l1.3,2.6h9.5
		c2.5,0,3.3-0.7,3.3-2.8v-2.4C160.5,41.2,159.7,40.5,157.2,40.5z"/>
</g>
<path id="Path_88" class="st0" d="M162.6,36c0.2,0.2,0.3,0.5,0.3,0.8c0,0.3-0.1,0.6-0.3,0.8c-0.2,0.2-0.5,0.3-0.8,0.3
	c-0.3,0-0.6-0.1-0.8-0.3c-0.2-0.2-0.3-0.5-0.3-0.8c0-0.3,0.1-0.6,0.3-0.8c0.2-0.2,0.5-0.3,0.8-0.3C162.2,35.6,162.4,35.7,162.6,36
	L162.6,36z M162.5,36.1c-0.2-0.2-0.4-0.3-0.7-0.3c-0.2,0-0.5,0.1-0.7,0.3c-0.2,0.2-0.3,0.4-0.3,0.7c0,0.2,0.1,0.5,0.3,0.7
	c0.2,0.2,0.4,0.3,0.7,0.3c0.2,0,0.5-0.1,0.7-0.3c0.2-0.2,0.3-0.4,0.3-0.7C162.8,36.5,162.7,36.2,162.5,36.1L162.5,36.1z M162.4,36.4
	c0,0.2-0.1,0.3-0.3,0.3l0.3,0.6h-0.3l-0.2-0.5h-0.2v0.5h-0.2v-1.2h0.5C162.2,36.1,162.4,36.2,162.4,36.4z M161.7,36.2v0.4h0.2
	c0.2,0,0.3-0.1,0.3-0.2c0-0.1-0.1-0.2-0.3-0.2L161.7,36.2z"/>
</svg>
