<?xml version="1.0" encoding="utf-8"?>
<!-- Generator: Adobe Illustrator 28.0.0, SVG Export Plug-In . SVG Version: 6.00 Build 0)  -->
<svg version="1.1" id="Layer_1" xmlns="http://www.w3.org/2000/svg" xmlns:xlink="http://www.w3.org/1999/xlink" x="0px" y="0px"
	 viewBox="0 0 255 180" style="enable-background:new 0 0 255 180;" xml:space="preserve">
<g>
	<path d="M87,72.5c5.4,0,7.7,0.7,9.8,2.4c2.5,1.8,3.9,5.2,3.9,8.6S99.2,90.3,97,92c-2.4,1.8-4.7,2.5-9.5,2.5h-4.9v12.8H77V72.5H87
		L87,72.5z M82.6,89.7h4.8c2.3,0,3.9-0.3,5.4-1.1c1.4-0.8,2.5-2.6,2.5-5c0-2.4-1-4.2-2.5-5c-1.6-1-3.2-1.1-5.6-1.1h-4.6L82.6,89.7
		L82.6,89.7z"/>
	<path d="M102.9,95c0-6.3,4.6-12.5,12.6-12.5s12.6,6.1,12.6,12.5s-4.6,12.5-12.6,12.5S102.9,101.4,102.9,95L102.9,95z M107.5,95
		c0,4.7,3.6,8.2,8,8.2c4.5,0,8-3.5,8-8.2c0-4.7-3.6-8.2-8-8.2C111,86.8,107.5,90.3,107.5,95L107.5,95L107.5,95z"/>
	<path d="M177.9,106.8h-4.5v-4.1c-1.7,3.2-5.1,4.8-8.8,4.8c-7.6,0-12.2-6-12.2-12.5c0-7.2,5.2-12.5,12.2-12.5c4.7,0,7.7,2.5,8.8,4.9
		v-4.2h4.6L177.9,106.8L177.9,106.8z M156.5,95.1c0.1,3.5,2.5,8.2,8.2,8.2c3.6,0,6.1-2,7.3-4.7c0.5-1.1,0.8-2.3,0.8-3.5
		c0.1-1.2-0.2-2.5-0.7-3.5c-1.1-2.8-3.8-4.9-7.5-4.9C159.7,86.7,156.5,90.5,156.5,95.1L156.5,95.1L156.5,95.1z"/>
</g>
<polygon points="148.1,82.6 136.5,92.4 132.6,89 140.2,82.6 "/>
<polygon points="152.6,107.5 144.9,107.5 132,96.2 132,89.5 132,89.5 135.9,92.9 "/>
</svg>
