<?xml version="1.0" encoding="utf-8"?>
<!-- Generator: Adobe Illustrator 28.0.0, SVG Export Plug-In . SVG Version: 6.00 Build 0)  -->
<svg version="1.1" id="Layer_1" xmlns="http://www.w3.org/2000/svg" xmlns:xlink="http://www.w3.org/1999/xlink" x="0px" y="0px"
	 viewBox="0 0 255 180" style="enable-background:new 0 0 255 180;" xml:space="preserve">
<style type="text/css">
	.st0{fill-rule:evenodd;clip-rule:evenodd;}
</style>
<polygon class="st0" points="203.1,85.1 205,88.1 209.2,81.4 205.2,81.4 "/>
<path class="st0" d="M92.3,81.4h2v2.6c0.6-1,1.4-1.7,2.5-2.1s2.3-0.8,3.4-0.8c2.4,0,4.3,0.8,5.8,2.4s2.3,3.6,2.3,5.8
	c0,2.3-0.8,4.3-2.3,5.8s-3.4,2.4-5.8,2.4c-1.2,0-2.4-0.2-3.4-0.7c-1.1-0.5-1.9-1.2-2.5-2.1v7.6h-2V81.4L92.3,81.4z M94.2,89.3
	c0,1.8,0.6,3.3,1.8,4.6s2.6,1.9,4.2,1.9s3.1-0.6,4.3-1.8c1.2-1.2,1.8-2.7,1.8-4.4c0-1.7-0.6-3.3-1.8-4.6c-1.1-1.2-2.7-1.9-4.3-1.9
	c-1.5,0-2.9,0.6-4,1.9S94.2,87.6,94.2,89.3L94.2,89.3z"/>
<path class="st0" d="M112.9,89.3c0,1.8,0.6,3.2,1.7,4.4c1.1,1.2,2.5,1.8,4.3,1.8s3.1-0.6,4.2-1.8s1.7-2.7,1.7-4.5
	c0-1.8-0.6-3.3-1.7-4.5s-2.6-1.8-4.3-1.8c-1.5,0-2.9,0.6-4,1.8C113.5,86.1,112.9,87.6,112.9,89.3L112.9,89.3L112.9,89.3z
	 M110.8,89.4c0-2.3,0.8-4.2,2.3-5.8c1.4-1.7,3.3-2.4,5.5-2.4c2.1,0,4.2,0.8,5.7,2.4s2.4,3.4,2.4,5.6s-0.8,4.3-2.3,5.8
	c-1.5,1.5-3.4,2.4-5.6,2.4c-2.1,0-4-0.8-5.6-2.4C111.6,93.6,110.8,91.4,110.8,89.4L110.8,89.4L110.8,89.4z"/>
<path class="st0" d="M131.2,97.2h-2V81.6h1.9v1.8c0.4-0.6,1-1.1,1.5-1.5c0.4-0.1,0.6-0.4,1-0.4c0.4-0.1,0.7-0.1,1.1-0.1v2.1
	c-1.3,0.1-2.1,0.5-2.7,1.1s-0.8,1.7-0.8,3.2L131.2,97.2L131.2,97.2z"/>
<polygon class="st0" points="139.9,97.2 139.9,83.6 136.9,83.6 136.9,81.4 139.9,81.4 139.9,76.4 141.9,76.4 141.9,81.4 144.9,81.4 
	144.9,83.6 141.9,83.6 141.9,97.2 "/>
<path class="st0" d="M157.1,88l-2.7,9.1h-2l-5.5-15.7h3.7l2.7,9l2.7-9h2.3l2.7,9l2.7-9h3.7L162,97.1h-2L157.1,88L157.1,88z
	 M168.1,89.4c0-1.1,0.1-2.1,0.6-3.1c0.4-1,1-1.9,1.7-2.6c0.7-0.8,1.7-1.4,2.6-1.9c1-0.5,2-0.7,3.1-0.7s2.1,0.2,3.2,0.6
	c1,0.4,1.9,1.1,2.6,1.8c0.7,0.8,1.3,1.7,1.8,2.7c0.5,1,0.6,2,0.6,3.1c0,1.1-0.2,2.1-0.6,3.2c-0.4,1-1,1.9-1.5,2.6
	c-0.4,0.4-0.8,0.8-1.2,1.1c-0.5,0.4-1,0.6-1.4,0.8c-1,0.5-2,0.7-3.1,0.7s-2.1-0.2-3.2-0.6c-1-0.4-1.9-1.1-2.6-1.9
	c-0.7-0.8-1.3-1.7-1.7-2.7c-0.2-0.5-0.4-1.1-0.5-1.5C168.1,90.3,168.1,89.9,168.1,89.4L168.1,89.4z M171.7,89.3
	c0,1.3,0.5,2.5,1.3,3.4c0.8,0.8,2,1.4,3.2,1.4c1.2,0,2.4-0.5,3.2-1.4c1-1,1.3-2.1,1.3-3.4s-0.4-2.5-1.3-3.4c-0.8-1-1.9-1.3-3.2-1.3
	c-1.3,0-2.4,0.5-3.2,1.4C172.1,86.8,171.7,88,171.7,89.3L171.7,89.3z M189.9,82.5c0.2-0.2,0.6-0.5,1-0.7c0.7-0.4,1.4-0.6,2.3-0.6
	h0.5v3.6h-0.5c-0.5,0-1,0.1-1.3,0.2c-0.4,0.1-0.7,0.4-1,0.7c-0.6,0.7-0.7,1.9-0.7,2.7v8.7h-3.4V81.4h3.3L189.9,82.5L189.9,82.5z
	 M202.1,91.9l-3.4,5.3h-3.9l5.3-8.1l-4.6-7.6h3.9l10,15.7h-3.9L202.1,91.9z"/>
<path d="M129.2,107.9h1.1v2.9l0,0c0.2-0.4,0.6-1.1,1.7-1.1c1.4,0,2.4,1.1,2.4,3s-1.1,3-2.4,3c-1.1,0-1.5-0.7-1.7-1.1h-0.1v1h-1.1
	L129.2,107.9L129.2,107.9z M131.9,114.9c1.1,0,1.5-0.8,1.5-2s-0.5-2-1.5-2c-1.1,0-1.5,0.8-1.5,2S130.8,114.9,131.9,114.9z"/>
<path d="M135.3,117.8l0.2-1c0.6,0.1,1.1,0.1,1.3-0.7l0.1-0.4l-2.1-5.9h1.2l1.5,4.5l0,0l1.5-4.5h1.2l-2.4,6.7c-0.4,1-1,1.4-1.9,1.4
	C135.9,117.9,135.6,117.9,135.3,117.8z"/>
<path d="M144.6,107.9h2.7c1.8,0,2.7,1.1,2.7,2.5c0,1.4-0.8,2.5-2.7,2.5h-1.5v2.7h-1.2V107.9L144.6,107.9L144.6,107.9z M147.3,112
	c1.1,0,1.5-0.7,1.5-1.5c0-0.8-0.5-1.5-1.7-1.5h-1.5v3.1H147.3L147.3,112z"/>
<path d="M155,109.9h1.1v5.8H155v-1.1l0,0c-0.2,0.6-0.8,1.1-1.8,1.1c-1.1,0-1.9-0.7-1.9-2.3v-3.7h1.1v3.6c0,0.7,0.5,1.3,1.2,1.3
	c0.6,0,1.4-0.5,1.4-1.4L155,109.9L155,109.9z"/>
<path d="M157.6,109.9h1.1v1l0,0c0.2-0.6,0.8-1.1,1.5-1.1c0.1,0,0.4,0,0.5,0v1.1c-0.2,0-0.5,0-0.6,0c-0.8,0-1.4,0.6-1.4,1.3v3.6h-1.1
	V109.9L157.6,109.9z"/>
<path d="M161.1,112.8c0-1.8,1.1-3.1,2.7-3.1c1.3,0,2.6,0.8,2.6,3v0.5h-4.2c0,1.1,0.7,1.8,1.7,1.8c0.6,0,1.1-0.2,1.3-0.8l1.1,0.2
	c-0.2,1-1.1,1.5-2.4,1.5C162.3,115.8,161.2,114.7,161.1,112.8L161.1,112.8z M165.3,112.3c0-0.8-0.6-1.5-1.4-1.5
	c-1,0-1.5,0.7-1.5,1.5H165.3L165.3,112.3z"/>
<path d="M173.5,108.9c-1,0-1.5,0.5-1.5,1.1c0,0.7,0.8,1.1,1.4,1.2l0.7,0.2c1,0.2,2.3,0.7,2.3,2.1s-1.1,2.3-2.9,2.3s-2.9-0.8-2.9-2.3
	h1.2c0,0.8,0.8,1.2,1.7,1.2c1,0,1.7-0.5,1.7-1.2s-0.6-1-1.5-1.2l-1-0.2c-1.2-0.4-2-1-2-2c0-1.3,1.2-2.3,2.7-2.3s2.7,1,2.7,2.1H175
	C175,109.2,174.4,108.9,173.5,108.9L173.5,108.9z"/>
<path d="M180.4,110.8h-1.2v3.2c0,0.7,0.4,0.7,0.7,0.7c0.1,0,0.2,0,0.5,0l0.2,1c-0.2,0.1-0.5,0.1-0.7,0.1c-0.8,0-1.7-0.5-1.7-1.5
	v-3.4h-0.8v-1h0.8v-1.3h1.1v1.4h1.2L180.4,110.8L180.4,110.8z"/>
<path d="M181.1,112.8c0-1.8,1.1-3,2.7-3c1.7,0,2.7,1.2,2.7,3c0,1.8-1.1,3-2.7,3C182.2,115.8,181.1,114.6,181.1,112.8z M185.4,112.8
	c0-1.1-0.5-2-1.5-2c-1.1,0-1.5,1-1.5,2s0.5,2,1.5,2C184.9,114.8,185.4,114,185.4,112.8L185.4,112.8z"/>
<path d="M187.6,109.9h1.1v1l0,0c0.2-0.6,0.8-1.1,1.5-1.1c0.1,0,0.4,0,0.5,0v1.1c-0.2,0-0.5,0-0.6,0c-0.8,0-1.4,0.6-1.4,1.3v3.6h-1.1
	V109.9L187.6,109.9z"/>
<path d="M191.4,114.1c0-1.3,1.1-1.5,2.3-1.8c1.1-0.1,1.5-0.1,1.5-0.5l0,0c0-0.7-0.4-1.1-1.1-1.1c-0.7,0-1.2,0.5-1.3,0.8l-1.1-0.2
	c0.4-1.1,1.3-1.5,2.4-1.5c1,0,2.3,0.4,2.3,2v3.8h-1.1v-0.7l0,0c-0.2,0.5-0.7,1-1.7,1C192.4,115.9,191.5,115.2,191.4,114.1
	L191.4,114.1z M195.2,113.6v-0.7c-0.1,0.1-1.1,0.2-1.4,0.4c-0.7,0.1-1.2,0.4-1.2,1c0,0.6,0.5,0.8,1.1,0.8
	C194.6,114.9,195.2,114.3,195.2,113.6z"/>
<path d="M197.7,116.7l1-0.5c0.2,0.4,0.6,0.8,1.5,0.8c0.8,0,1.5-0.5,1.5-1.3v-1.1l0,0c-0.2,0.4-0.6,1-1.7,1c-1.4,0-2.4-1-2.4-2.9
	s1.1-3,2.4-3c1.1,0,1.5,0.7,1.7,1.1h0.1v-1h1.1v5.9c0,1.5-1.1,2.1-2.6,2.1C198.8,118,198.1,117.4,197.7,116.7L197.7,116.7z
	 M201.6,112.8c0-1.2-0.5-2-1.5-2c-1.1,0-1.5,0.8-1.5,2s0.5,1.9,1.5,1.9C201.2,114.7,201.6,114,201.6,112.8L201.6,112.8z"/>
<path d="M204,112.8c0-1.8,1.1-3.1,2.7-3.1c1.3,0,2.6,0.8,2.6,3v0.5h-4.2c0,1.1,0.7,1.8,1.7,1.8c0.7,0,1.1-0.2,1.3-0.8l1.1,0.2
	c-0.2,1-1.1,1.5-2.4,1.5C205.1,115.8,204,114.7,204,112.8L204,112.8z M208.2,112.3c0-0.8-0.6-1.5-1.4-1.5c-1,0-1.5,0.7-1.5,1.5
	H208.2L208.2,112.3z"/>
<path d="M208.5,109.1c0-0.5,0.4-0.8,0.7-0.8c0.4,0,0.7,0.4,0.7,0.8c0,0.5-0.4,0.7-0.7,0.7l0,0C208.9,109.8,208.5,109.5,208.5,109.1z
	 M209.8,109.1c0-0.4-0.2-0.6-0.6-0.6c-0.4,0-0.6,0.2-0.6,0.6s0.2,0.6,0.6,0.6l0,0C209.6,109.7,209.8,109.4,209.8,109.1L209.8,109.1z
	 M209,108.6h0.4c0.1,0,0.2,0.1,0.2,0.2l0,0c0,0.1,0,0.1-0.1,0.2l0.1,0.2h-0.2l-0.1-0.2h-0.1v0.2H209L209,108.6L209,108.6z
	 M209.4,109C209.4,109,209.5,109,209.4,109L209.4,109c0.1-0.1,0.1-0.2,0-0.2h-0.1v0.2H209.4L209.4,109z"/>
<path d="M207.8,79.7c0-0.4,0.4-0.8,0.7-0.8s0.7,0.4,0.7,0.8c0,0.5-0.4,0.8-0.7,0.8l0,0C208,80.5,207.8,80.1,207.8,79.7z M209.1,79.7
	c0-0.4-0.2-0.6-0.6-0.6s-0.6,0.2-0.6,0.6s0.2,0.6,0.6,0.6l0,0C208.9,80.2,209.1,80,209.1,79.7z M208.2,79.3h0.4
	c0.1,0,0.2,0.1,0.2,0.2l0,0c0,0.1,0,0.1-0.1,0.2l0.1,0.2h-0.2l-0.1-0.2h-0.1V80h-0.1L208.2,79.3L208.2,79.3z M208.5,79.7
	C208.5,79.7,208.6,79.5,208.5,79.7L208.5,79.7c0.1-0.1,0.1-0.2,0-0.2h-0.1v0.2H208.5L208.5,79.7z"/>
<g>
	<polygon class="st0" points="77.5,72.4 45,93.9 45,112 77.5,90.6 	"/>
	<polygon class="st0" points="45.1,112.3 61.3,120.2 61.3,101.6 	"/>
	<polygon class="st0" points="63.2,81.3 77.4,71.9 59.2,59.9 59.1,59.9 45.1,69.2 45.2,69.2 	"/>
</g>
</svg>
