<?xml version="1.0" encoding="utf-8"?>
<!-- Generator: Adobe Illustrator 25.3.1, SVG Export Plug-In . SVG Version: 6.00 Build 0)  -->
<svg version="1.1" id="Layer_1" xmlns="http://www.w3.org/2000/svg" xmlns:xlink="http://www.w3.org/1999/xlink" x="0px" y="0px"
	 viewBox="0 0 210 84" style="enable-background:new 0 0 210 84;" xml:space="preserve">
<style type="text/css">
	.st0{fill:#fff;}
</style>
<g id="Group_8" transform="translate(-21.2 -80.194)">
	<path id="Path_39" class="st0" d="M194.3,113.4c-0.6,0-1-0.5-1-1.1c0-0.6,0.5-1,1.1-1c0.6,0,1,0.5,1,1.1
		C195.3,112.9,194.9,113.4,194.3,113.4L194.3,113.4 M194.3,111.5c-0.5,0-0.9,0.4-0.9,0.9s0.4,0.9,0.9,0.9c0.5,0,0.9-0.4,0.9-0.9l0,0
		C195.2,111.8,194.8,111.5,194.3,111.5L194.3,111.5 M194.6,112.9l-0.3-0.5h-0.2v0.5h-0.1v-1.2h0.5c0.2,0,0.4,0.1,0.4,0.3l0,0
		c0,0.2-0.1,0.3-0.3,0.3c0,0,0,0,0,0l0.3,0.5L194.6,112.9z M194.4,111.9h-0.3v0.4h0.3c0.1,0,0.2-0.1,0.2-0.2
		C194.6,112,194.5,111.9,194.4,111.9C194.4,111.9,194.4,111.9,194.4,111.9"/>
	<path id="Path_40" class="st0" d="M62.3,117.6v-4.5h3.5c1.2-0.1,2.3,0.8,2.5,2.1c0.1,1.2-0.8,2.3-2.1,2.5c-0.1,0-0.3,0-0.4,0H62.3z
		 M67.9,126h3.5l-2.6-6.3l0.1-0.1c1.6-0.8,2.5-2.4,2.4-4.2c0.1-2.6-2-4.8-4.6-4.9c-0.2,0-0.3,0-0.5,0h-7V126h3.1v-5.6h3.5L67.9,126z
		"/>
	<rect id="Rectangle_25" x="73.9" y="114.5" class="st0" width="3" height="11.4"/>
	<rect id="Rectangle_26" x="73.9" y="110.4" class="st0" width="3" height="2.7"/>
	<path id="Path_41" class="st0" d="M94.3,125.9v-7.2c0.1-0.9-0.4-1.7-1.3-1.8c-0.1,0-0.3,0-0.4,0c-1,0.1-1.8,0.5-2.4,1.3v7.7h-3.1
		v-7.2c0.1-0.9-0.4-1.7-1.3-1.8c-0.1,0-0.3,0-0.4,0c-1,0.1-1.8,0.5-2.4,1.3v7.7h-2.9v-11.4h3v1.5c1-1.1,2.3-1.7,3.8-1.7
		c1.4-0.1,2.7,0.7,3.2,2.1c0.9-1.3,2.4-2.1,3.9-2.1c2.1,0,3.4,1.1,3.4,3.5v8.2H94.3z"/>
	<rect id="Rectangle_27" x="100.4" y="110.4" class="st0" width="3" height="2.7"/>
	<rect id="Rectangle_28" x="100.4" y="114.5" class="st0" width="3" height="11.4"/>
	<path id="Path_42" class="st0" d="M114.2,126V119c0-1.6-0.8-2.1-2.1-2.1c-1,0-2,0.5-2.6,1.3v7.7h-3v-11.4h3v1.5
		c1-1.1,2.5-1.8,4-1.8c2.5,0,3.7,1.4,3.7,3.7v8L114.2,126z"/>
	<rect id="Rectangle_29" x="120" y="110.4" class="st0" width="3" height="2.7"/>
	<rect id="Rectangle_30" x="120" y="114.5" class="st0" width="3" height="11.4"/>
	<path id="Path_43" class="st0" d="M142.1,121.4c0-3.5-3.2-4.2-5.8-4.8c-1.7-0.4-3.2-0.8-3.2-1.9s0.9-1.7,2.3-1.7
		c1.7,0,3.3,0.6,4.5,1.7l1.7-2.2c-1.6-1.4-3.8-2.1-5.9-2.1c-3.4,0-5.8,1.9-5.8,4.6c0,3.4,3.1,4.1,5.7,4.7c1.8,0.4,3.3,0.8,3.3,2
		c0,0.9-0.9,1.9-2.9,1.9c-1.9,0-3.6-0.7-4.9-2.1l-1.7,2.3c1.7,1.7,4.1,2.5,6.5,2.4C139.9,126.2,142.1,124.4,142.1,121.4"/>
	<path id="Path_44" class="st0" d="M144.9,123.1v-6h-1.9v-2.7h1.9v-3.1h3.1v3.1h2.3v2.7H148v5.2c0,0.7,0.4,1.3,1.1,1.3
		c0.4,0,0.7-0.1,1.1-0.3l0.7,2.3c-0.7,0.5-1.6,0.8-2.5,0.7C146.1,126.2,144.9,125.2,144.9,123.1"/>
	<path id="Path_45" class="st0" d="M152.8,125.9v-11.4h3v1.6c0.9-1.1,2.2-1.8,3.7-1.9v2.9c-1.4-0.3-2.8,0.2-3.7,1.3v7.6L152.8,125.9
		z"/>
	<path id="Path_46" class="st0" d="M160.2,120.2c-0.1-3.2,2.4-5.9,5.7-6h0.3c3.4,0,5.7,2.5,5.7,6.3v0.7h-8.5
		c0.2,1.6,1.6,2.8,3.3,2.7c1.1,0,2.2-0.4,3.1-1.1l1.3,1.9c-1.3,1.1-3,1.7-4.7,1.6c-3.2,0.1-5.9-2.4-6.1-5.6
		C160.2,120.5,160.2,120.4,160.2,120.2 M166.1,116.6c-1.5-0.1-2.7,1.1-2.8,2.5h5.7C168.9,117.7,167.6,116.6,166.1,116.6L166.1,116.6
		"/>
	<path id="Path_47" class="st0" d="M172.9,120.2c-0.1-3.2,2.4-5.9,5.7-6h0.3c3.4,0,5.7,2.5,5.7,6.3v0.7H176c0.2,1.6,1.6,2.8,3.3,2.7
		c1.1,0,2.2-0.4,3.1-1.1l1.3,1.9c-1.3,1.1-3,1.7-4.7,1.6c-3.2,0.1-5.9-2.4-6.1-5.7C172.9,120.5,172.9,120.4,172.9,120.2
		 M178.8,116.6c-1.5-0.1-2.7,1.1-2.8,2.5h5.7C181.6,117.7,180.3,116.6,178.8,116.6L178.8,116.6"/>
	<path id="Path_48" class="st0" d="M187.4,123.1v-6h-1.9v-2.7h1.9v-3.1h3.1v3.1h2.3v2.7h-2.3v5.2c0,0.7,0.4,1.3,1.1,1.3
		c0.4,0,0.7-0.1,1.1-0.3l0.7,2.3c-0.7,0.5-1.6,0.8-2.5,0.7C188.5,126.2,187.4,125.2,187.4,123.1"/>
	<rect id="Rectangle_31" x="57" y="130.9" class="st0" width="138" height="3.1"/>
</g>
</svg>
