<?xml version="1.0" encoding="utf-8"?>
<!-- Generator: Adobe Illustrator 25.3.1, SVG Export Plug-In . SVG Version: 6.00 Build 0)  -->
<svg version="1.1" id="Layer_1" xmlns="http://www.w3.org/2000/svg" xmlns:xlink="http://www.w3.org/1999/xlink" x="0px" y="0px"
	 viewBox="0 0 210 84" style="enable-background:new 0 0 210 84;" xml:space="preserve">
<style type="text/css">
	.st0{fill:#fff;}
</style>
<g id="Riverbed_Logo_White" transform="translate(-3.4 -3.8)">
	<path id="Path_1031" class="st0" d="M92.3,40.8c-4.8,0-7.1,2.6-7.1,7v3.1c0,4,1.9,6.8,7,6.8c1.5,0.1,3-0.3,4.3-1
		c0.9-0.5,1.7-1.2,2.3-2.1L97,52.7c-0.2-0.1-0.5-0.1-0.6,0.1c0,0,0,0,0,0c-0.8,1.4-1.8,2.2-4.2,2.2c-3,0-4.1-1.4-4.1-3.9v-0.6h10.1
		c0.9,0,1.3-0.5,1.3-1.1v-1.9C99.4,43.7,97.3,40.8,92.3,40.8z M96.4,48.2h-8.3v-0.8c0-2.5,1.3-4.1,4.2-4.1s4.1,1.5,4.1,4.1V48.2z"/>
	<path id="Path_1032" class="st0" d="M139.6,40.8c-4.8,0-7.1,2.6-7.1,7v3.1c0,4,1.9,6.8,7,6.8c1.5,0.1,3-0.3,4.3-1
		c0.9-0.5,1.7-1.2,2.3-2.1l-1.8-1.8c-0.2-0.1-0.5-0.1-0.6,0.1c0,0,0,0,0,0c-0.8,1.4-1.8,2.2-4.2,2.2c-3,0-4.1-1.4-4.1-3.9v-0.6h10.1
		c0.9,0,1.3-0.5,1.3-1.1v-1.9C146.8,43.7,144.6,40.8,139.6,40.8z M143.7,48.2h-8.3v-0.8c0-2.5,1.3-4.1,4.2-4.1c3,0,4.1,1.5,4.1,4.1
		L143.7,48.2z"/>
	<path id="Path_1033" class="st0" d="M82.5,41.2h-1.1c-0.9,0-1.2,0.2-1.4,0.8c0,0-4.4,10.6-4.5,11.4h-0.1C75.2,52.6,70.7,42,70.7,42
		c-0.2-0.6-0.5-0.8-1.4-0.8h-1.1c-0.8,0-0.9,0.2-0.6,1l6.2,14.2c0.1,0.5,0.6,0.8,1.2,0.7h0.8c0.5,0.1,1-0.2,1.1-0.7l6.3-14.3
		C83.5,41.4,83.3,41.2,82.5,41.2z"/>
	<path id="Path_1034" class="st0" d="M111.4,40.8h-1.1c-2.1,0-4.2,0.4-6.2,1c-0.9,0.2-1.4,1-1.3,1.9v12.6c0,0.6,0.2,0.8,0.8,0.8h1.4
		c0.6,0,0.8-0.2,0.8-0.8V44.8c0-0.3,0.2-0.6,0.5-0.7c1.3-0.4,2.6-0.6,4-0.6h1.2c0.6,0,0.8-0.2,0.8-0.8v-1.2
		C112.2,41,112,40.8,111.4,40.8z"/>
	<path id="Path_1035" class="st0" d="M63.5,41.2h-1.4c-0.6,0-0.8,0.2-0.8,0.8v14.4c0,0.6,0.2,0.8,0.8,0.8h1.4c0.6,0,0.8-0.2,0.8-0.8
		V42C64.4,41.4,64.1,41.2,63.5,41.2z"/>
	<path id="Path_1036" class="st0" d="M122.7,40.8c-1.5,0-3,0.3-4.5,0.8v-2l0,0V37c0-0.5-0.2-0.9-0.5-1.3l-1.6-1.6l0,0l0,0
		c-0.1-0.1-0.2-0.1-0.4-0.1c-0.3,0-0.5,0.2-0.5,0.5c0,0,0,0,0,0v0.1c0,1.2,0,5.6,0,20.2c0,1.1,0.2,1.4,1.3,1.9
		c1.8,0.7,3.7,1.1,5.6,1c5.1,0,7.2-1.8,7.2-6.3v-4.5C129.2,42.6,127.5,40.8,122.7,40.8z M126.2,51.3c0,2.9-1.1,3.6-4.3,3.6
		c-1.1,0-2.1-0.2-3.1-0.6c-0.5-0.2-0.5-0.3-0.5-0.6v-9.2c1.3-0.5,2.6-0.8,4-0.9c2.9,0,3.9,0.7,3.9,3.3L126.2,51.3L126.2,51.3z"/>
	<path id="Path_1037" class="st0" d="M163.9,36.9c0-0.5-0.2-0.9-0.5-1.3l-1.6-1.6l0,0c-0.1-0.1-0.2-0.2-0.4-0.2
		c-0.3,0-0.5,0.2-0.6,0.5l0,0v7l0,0v0.1c-1.4-0.5-2.9-0.7-4.4-0.7c-4.6,0-6.6,1.8-6.6,6.2v4.6c0,4.3,1.9,6.1,6.9,6.1
		c2,0,4-0.3,5.8-1c1.1-0.5,1.3-0.7,1.3-1.9V41.9l0,0L163.9,36.9L163.9,36.9z M160.9,53.7c0,0.4,0,0.5-0.5,0.6
		c-1.1,0.4-2.2,0.6-3.4,0.6c-3,0-4.2-0.7-4.2-3.4v-4.4c0-2.8,1-3.5,4.1-3.5c1.3,0,2.6,0.3,3.9,0.7L160.9,53.7L160.9,53.7z"/>
	<path id="Path_1038" class="st0" d="M56.8,40.8h-1.1c-2.1,0-4.2,0.4-6.2,1c-0.9,0.2-1.4,1-1.3,1.9v12.6c0,0.6,0.2,0.8,0.8,0.8h1.4
		c0.6,0,0.8-0.2,0.8-0.8V44.8c0-0.3,0.2-0.6,0.5-0.7c1.3-0.4,2.6-0.6,4-0.6h1.2c0.6,0,0.8-0.2,0.8-0.8v-1.2
		C57.6,41,57.4,40.8,56.8,40.8z"/>
	<path id="Path_1039" class="st0" d="M62.9,36h-0.2c-1.1,0-1.4,0.3-1.4,1.4v0.2c0,1.1,0.4,1.4,1.4,1.4h0.2c1.1,0,1.4-0.3,1.4-1.4
		v-0.2C64.4,36.3,64,36,62.9,36z"/>
	<g id="Group_3395" transform="translate(121.119 3.832)">
		<path id="Path_1040" class="st0" d="M46.1,30.1c0.8,0,1.4,0.6,1.4,1.4c0,0,0,0,0,0c0,0.8-0.6,1.4-1.4,1.4c0,0,0,0,0,0
			c-0.8,0-1.4-0.6-1.4-1.4c0,0,0,0,0,0C44.7,30.8,45.3,30.1,46.1,30.1C46.1,30.1,46.1,30.1,46.1,30.1z M46.1,32.8
			c0.6,0,1.2-0.5,1.2-1.2c0,0,0,0,0,0c0-0.6-0.5-1.2-1.1-1.2c0,0,0,0,0,0c-0.6,0-1.1,0.5-1.1,1.2c0,0,0,0,0,0
			C45,32.2,45.5,32.7,46.1,32.8C46.1,32.8,46.1,32.8,46.1,32.8z M45.7,30.8h0.6c0.2,0,0.4,0.2,0.5,0.4c0,0,0,0,0,0
			c0,0.2-0.1,0.4-0.3,0.4l0,0c0,0,0,0,0.1,0.1l0.3,0.6h-0.2l-0.3-0.6h-0.3v0.6h-0.3L45.7,30.8z M46.2,31.5c0.2,0,0.3-0.1,0.3-0.3
			c0-0.1-0.1-0.2-0.2-0.3c0,0,0,0,0,0h-0.3v0.6L46.2,31.5z"/>
	</g>
</g>
</svg>
