<?xml version="1.0" encoding="utf-8"?>
<!-- Generator: Adobe Illustrator 25.3.1, SVG Export Plug-In . SVG Version: 6.00 Build 0)  -->
<svg version="1.1" id="RMS_Logo" xmlns="http://www.w3.org/2000/svg" xmlns:xlink="http://www.w3.org/1999/xlink" x="0px" y="0px"
	 viewBox="0 0 210 84" style="enable-background:new 0 0 210 84;" xml:space="preserve">
<style type="text/css">
	.st0{fill:#fff;}
</style>
<g id="Group_4110" transform="translate(0 0)">
	<path id="Path_667" class="st0" d="M82.3,52L82.3,52c0-1.4-1-2.2-2.6-2.2h-3.2v4.3h3.2C81.4,54.1,82.3,53.2,82.3,52z"/>
	<path id="Path_668" class="st0" d="M76.6,13.6v33.3h3.4c1.6-0.1,3.2,0.4,4.3,1.5c0.9,0.9,1.3,2.1,1.3,3.4v0.1
		c0.1,2.1-1.2,4-3.2,4.6l3.7,5.4h-3.8L79.1,57h-2.5v13.4h56.9V13.6H76.6z M101.7,66.5H86.8v-2.8h15L101.7,66.5L101.7,66.5z
		 M101.8,61.8h-3.3V52l-4.2,6.4h-0.1l-4.2-6.3v9.7h-3.2v-15h3.5l3.9,6.3l3.9-6.3h3.5L101.8,61.8z M114.1,57.4c0,3-2.3,4.6-5.5,4.6
		c-2.3,0-4.6-0.9-6.4-2.4l1.9-2.4c1.2,1.1,2.8,1.7,4.5,1.8c1.4,0,2.2-0.5,2.2-1.4v0.1c0-0.8-0.5-1.2-3-1.9c-3-0.7-4.9-1.6-4.9-4.6
		V51c0-2.7,2.2-4.5,5.3-4.5c2-0.1,4,0.6,5.6,1.9l-1.8,2.5c-1.1-0.9-2.5-1.4-3.9-1.5c-1.2,0-1.9,0.5-1.9,1.3v0.1c0,1,0.6,1.3,3.2,2
		C112.5,53.7,114.1,54.7,114.1,57.4z"/>
</g>
</svg>
