<?xml version="1.0" encoding="utf-8"?>
<!-- Generator: Adobe Illustrator 25.3.1, SVG Export Plug-In . SVG Version: 6.00 Build 0)  -->
<svg version="1.1" id="Layer_1" xmlns="http://www.w3.org/2000/svg" xmlns:xlink="http://www.w3.org/1999/xlink" x="0px" y="0px"
	 viewBox="0 0 210 84" style="enable-background:new 0 0 210 84;" xml:space="preserve">
<style type="text/css">
	.st0{fill:#000;}
</style>
<g id="Rosco_Logo" transform="translate(-9.6 -8.49)">
	<path id="Path_89" class="st0" d="M84.9,40.8h6.3v0l0,0v0h6.3c0,0,0,0,0,0c0,0,0,0,0,0h0c-1.8-1.2-3.9-1.8-6.1-1.9H91
		C88.9,39,86.7,39.6,84.9,40.8L84.9,40.8"/>
	<path id="Path_90" class="st0" d="M81.7,43.9h5.3c0.2,0,0.4-0.1,0.6-0.1c1.1-0.3,2.3-0.4,3.4-0.4c1.2,0,2.3,0.1,3.4,0.4
		c0.2,0.1,0.4,0.1,0.6,0.1h5.5c0,0,0-0.1-0.1-0.1l0,0c-0.1-0.1-0.1-0.2-0.2-0.3c0-0.1-0.1-0.1-0.1-0.2c-0.1-0.1-0.1-0.2-0.2-0.3
		c0-0.1-0.1-0.1-0.2-0.2c-0.1-0.1-0.2-0.2-0.2-0.3c-0.1-0.1-0.1-0.1-0.2-0.2l-0.3-0.3L99,42H83.3l-0.1,0.1c-0.1,0.1-0.2,0.2-0.3,0.3
		l-0.2,0.2c-0.1,0.1-0.2,0.2-0.2,0.3c-0.1,0.1-0.1,0.1-0.1,0.2c-0.1,0.1-0.1,0.2-0.2,0.3c0,0.1-0.1,0.1-0.1,0.2
		C81.9,43.6,81.9,43.7,81.7,43.9L81.7,43.9C81.8,43.8,81.7,43.8,81.7,43.9L81.7,43.9"/>
	<path id="Path_91" class="st0" d="M97.4,60.3H85c0,0,0,0,0,0c0,0,0,0,0,0h0c1.8,1.2,4,1.8,6.2,1.8l0,0v0l0,0v0l0,0
		C93.4,62.1,95.5,61.5,97.4,60.3L97.4,60.3C97.4,60.3,97.4,60.3,97.4,60.3"/>
	<path id="Path_92" class="st0" d="M100.6,57.2h-5.5c-0.1,0-0.2,0-0.2,0c-0.2,0-0.3,0.1-0.4,0.2c-2.1,0.5-4.4,0.5-6.5,0
		c-0.1-0.1-0.3-0.1-0.5-0.2c-0.1,0-0.2,0-0.2,0h-5.4l0,0l0,0v0l0,0c0,0,0,0.1,0.1,0.1c0.1,0.1,0.1,0.2,0.2,0.3
		c0,0.1,0.1,0.1,0.1,0.2c0.1,0.1,0.2,0.2,0.2,0.3c0,0.1,0.1,0.1,0.1,0.2c0.1,0.1,0.2,0.2,0.3,0.3l0.1,0.1c0.1,0.1,0.3,0.3,0.4,0.4
		h15.5c0.1-0.1,0.3-0.3,0.4-0.4l0.1-0.1c0.1-0.1,0.2-0.2,0.3-0.3c0-0.1,0.1-0.1,0.1-0.2c0.1-0.1,0.2-0.2,0.2-0.3
		c0-0.1,0.1-0.1,0.1-0.2c0.1-0.1,0.1-0.2,0.2-0.3C100.6,57.3,100.6,57.3,100.6,57.2L100.6,57.2"/>
	<path id="Path_93" class="st0" d="M163.1,50.4c0,3.4-2.9,6.2-6.3,6.1c-3.4,0-6.2-2.9-6.1-6.3c0-3.4,2.9-6.2,6.3-6.1c0,0,0,0,0,0
		C160.4,44.2,163.1,47,163.1,50.4 M168.5,50.2c-0.1-6.3-5.2-11.3-11.4-11.4c-6.4-0.1-11.8,5-11.9,11.4s5,11.8,11.4,11.9
		c6.4,0.1,11.8-5,11.9-11.4C168.5,50.6,168.5,50.4,168.5,50.2"/>
	<path id="Path_94" class="st0" d="M140.9,54.5c-1.2,1.3-2.8,2.1-4.6,2.1c-3.5,0.1-6.3-2.7-6.4-6.2c-0.1-3.5,2.7-6.3,6.2-6.4
		c1.8,0,3.5,0.7,4.7,2l3.8-3.8c-2.1-2.2-5.1-3.5-8.1-3.5c-6.5,0-11.8,5.2-11.8,11.7s5.2,11.8,11.7,11.8l0,0c3.2,0,6.3-1.4,8.5-3.8
		L140.9,54.5z"/>
	<path id="Path_95" class="st0" d="M65.8,43.1v19h-5.1V38.7h11.6c3.6,0.3,6.3,3.3,6.3,6.9v0.5c0,3.2-2.1,5.5-5.3,6.7
		c2.1,3.8,5.5,9.3,5.5,9.3h-5.6l-6.5-11.3c-0.1-0.2-0.1-0.3-0.1-0.5c0-0.6,0.5-1.1,1-1.1h3.1c1.7,0,3-1.4,3-3.1c0-0.1,0-0.2,0-0.3
		c-0.2-1.6-1.5-2.8-3.1-2.8H65.8z"/>
	<path id="Path_96" class="st0" d="M109.9,56.8c1,0.3,2,0.6,3,0.8c0.1,0,0.1,0,0.2,0c0.7,0.1,1.5,0.1,2.2-0.1
		c0.9-0.1,1.6-0.6,2.1-1.3c0.5-0.7,0.3-1.8-0.4-2.3c-0.2-0.1-0.3-0.2-0.5-0.2c-1.1-0.4-2.3-0.6-3.5-0.7c-1.6-0.2-3.2-0.6-4.6-1.2
		c-1.4-0.5-2.5-1.5-3.3-2.8c-0.5-1.2-0.7-2.5-0.6-3.8c0.3-2.5,2-4.7,4.4-5.6c3-1.3,6.2-0.9,9.3,0c1.1,0.3,2.2,0.7,3.3,1.2
		c0.3,0.1,0.5,0.2,0.5,0.2l-2.9,4.2l-0.7-0.3l-0.2-0.1c-0.1,0-0.2-0.1-0.4-0.1c-0.8-0.3-1.5-0.5-2.1-0.7c-1.2-0.4-2.4-0.5-3.7-0.2
		c-0.8,0.1-1.5,0.6-2,1.3c-0.5,0.8-0.2,1.8,0.6,2.3c0.1,0,0.1,0.1,0.2,0.1c1.1,0.5,2.3,0.8,3.5,0.9c1.2,0.2,2.5,0.4,3.7,0.7
		c2.2,0.6,4.3,1.8,4.9,4.2c0.6,2.1,0.1,4.4-1.3,6.1c-1.8,1.8-4.3,2.8-6.9,2.7c-0.5,0-1.1,0-1.6,0c-2.4-0.3-4.8-0.9-7-1.9l-1.6-0.8
		l2.8-3.8l1.6,0.6"/>
	<path id="Path_97" class="st0" d="M80.2,46.9L80.2,46.9l0.4,0h2.5c0.1,0,0.3,0,0.5,0H84c0.1,0,0.2,0,0.2,0c0.1,0,0.3,0,0.4-0.1
		c1.6-0.3,3.1-0.5,4.7-0.4c0.6,0,1.2,0,1.8,0c0.9,0,1.9,0,2.7,0c0.1,0,0.2,0,0.3,0h0.2c0.2,0,0.3,0,0.5,0c1,0,2,0.1,2.9,0.4
		c0,0,0.1,0,0.1,0c0.2,0.1,0.4,0.1,0.5,0.1c0.2,0,0.9,0,1,0h2.9c-0.2-0.6-0.5-1.3-0.8-1.9h-4.7c-0.1,0-0.3,0-0.4,0.1
		c0,0-0.1,0-0.1,0c-0.2,0.1-0.4,0.1-0.7,0.2c-1.5,0.2-3,0.3-4.4,0.3c-1.4,0-2.7-0.1-4.1-0.2c-0.3,0-0.7-0.1-1-0.2
		c-0.1,0-0.2-0.1-0.3-0.1c-0.1,0-0.1,0-0.2,0H81"/>
	<path id="Path_98" class="st0" d="M79.6,50h3c0.1,0,0.2,0,0.3,0h0.5c0.1,0,0.1,0,0.2-0.1l0,0c0.7-0.2,1.4-0.3,2.1-0.4
		c0.8-0.1,1.8-0.1,2.9-0.1h0.1c0.8,0,1.5,0,2.4,0c2.4,0,4.6,0.1,6,0.2c0.5,0,1,0.1,1.5,0.3c0,0,0,0,0,0c0.1,0,0.1,0.1,0.2,0.1h3.9
		c0-0.6-0.1-1.2-0.2-1.8h-4.2c0,0-0.1,0-0.1,0c0,0,0,0-0.1,0c-0.4,0.1-0.9,0.2-1.3,0.2c-1.3,0.1-3.4,0.2-5.8,0.2
		c-1.9,0-3.7-0.1-5-0.2c-0.7,0-1.4-0.1-2.1-0.4l0,0c0,0,0,0-0.1,0h-4c0,0.1-0.1,0.2-0.1,0.3C79.7,48.8,79.7,49.6,79.6,50"/>
	<path id="Path_99" class="st0" d="M101.9,51.2h-2.6c-0.3,0-0.6,0-0.9,0.1h0c-0.2,0.1-0.4,0.1-0.6,0.1c0,0-0.1,0-0.1,0h0
		c-2.2,0.2-4.4,0.3-6.6,0.3c-2.5,0-4.7-0.1-6-0.2c-0.5,0-0.9-0.1-1.4-0.2c0,0,0,0,0,0c-0.1,0-0.2-0.1-0.3-0.1h-3.7
		c0,0.3,0,0.6,0.1,0.9l0,0.3c0,0.2,0.1,0.5,0.1,0.7h3.4c0.1,0,0.3,0,0.4,0h0c0.1,0,0.2,0,0.3-0.1c1.6-0.3,3.2-0.5,4.8-0.5
		c0.7,0,1.5,0,2.3,0c1.3,0,2.5,0,3.5,0.1c1.2,0,2.4,0.1,3.5,0.4l0.2,0.1c0.1,0,0.2,0,0.2,0h0.2c0.1,0,0.3,0,0.4,0h3.4
		c0.1-0.6,0.2-1.2,0.2-1.9L101.9,51.2z"/>
	<path id="Path_100" class="st0" d="M85.6,56c0.1,0,0.2,0,0.3,0c0.1,0,0.1,0,0.2-0.1c0.7-0.2,1.5-0.4,2.2-0.4
		c0.8-0.1,1.8-0.1,2.8-0.1c1.3,0,2.5,0.1,3.4,0.1c0.5,0,1.1,0.1,1.6,0.3c0,0,0.1,0,0.1,0c0.1,0,0.2,0.1,0.4,0.1h0.4
		c0.1,0,0.2,0,0.2,0h4.2c0.3-0.6,0.6-1.2,0.8-1.9h-4.3c-0.1,0-0.2,0-0.2,0.1l0,0c-0.4,0.2-0.9,0.2-1.4,0.3c-1.2,0.1-3.1,0.2-5.2,0.2
		c-1.7,0-3.3-0.1-4.5-0.1c-0.6,0-1.3-0.1-1.9-0.3l0,0c0,0-0.1,0-0.1,0l0,0c-0.1-0.1-0.3-0.1-0.4-0.1h-4c0.1,0.4,0.3,0.8,0.5,1.2
		c0,0,0,0,0,0.1v0c0,0,0,0,0,0.1c0.1,0.2,0.2,0.3,0.2,0.5h4.2"/>
</g>
</svg>
