<?xml version="1.0" encoding="utf-8"?>
<!-- Generator: Adobe Illustrator 25.3.1, SVG Export Plug-In . SVG Version: 6.00 Build 0)  -->
<svg version="1.1" id="Layer_1" xmlns="http://www.w3.org/2000/svg" xmlns:xlink="http://www.w3.org/1999/xlink" x="0px" y="0px"
	 viewBox="0 0 210 84" style="enable-background:new 0 0 210 84;" xml:space="preserve">
<style type="text/css">
	.st0{fill-rule:evenodd;clip-rule:evenodd;fill:#000;}
	.st1{fill-rule:evenodd;clip-rule:evenodd;fill:#D9DFDF;}
</style>
<g id="RSA_Security_Logo" transform="translate(-1.18 405.918)">
	<path id="Path_962" class="st0" d="M67.4-389.2v35.1h49.5l4.1-8.8l4.2,8.9h12.4v-35.2H67.4z"/>
	<path id="Path_963" class="st0" d="M71.1-345.3c-0.5-0.2-0.9-0.3-1.5-0.3c-0.6,0-1.4,0.2-1.4,1c0,1.5,3.3,1.1,3.3,3.7
		c0,1.7-1.3,2.3-2.8,2.3c-0.5,0-1.1-0.1-1.6-0.3l0.1-1c0.5,0.2,1,0.3,1.6,0.4c0.8,0.1,1.4-0.5,1.5-1.2c0,0,0,0,0,0
		c0-1.7-3.3-1.3-3.3-3.7c0-1.4,1.1-2.1,2.5-2.1c0.6,0,1.1,0.1,1.7,0.3L71.1-345.3z M76.3-346.4h4.3v1h-3.2v2.3h2.9v1h-2.9v2.5h3.2v1
		h-4.3L76.3-346.4z M90.3-345.2c-0.5-0.3-1-0.4-1.6-0.4c-1.7,0-3,1.4-3,3.1c0,1.6,1.3,2.9,2.9,3c0.6,0,1.2-0.1,1.7-0.4l0.1,1.1
		c-0.6,0.2-1.2,0.3-1.8,0.3c-2.1,0.2-3.9-1.4-4.1-3.5c0-0.2,0-0.3,0-0.5c-0.1-2.1,1.6-3.9,3.7-4c0.1,0,0.2,0,0.4,0
		c0.6,0,1.2,0.1,1.7,0.3L90.3-345.2L90.3-345.2z M101.4-341.9c0,2.2-1.1,3.3-3,3.3s-3-1.2-3-3.3v-4.5h1.1v4.4c0,1.5,0.5,2.5,1.9,2.5
		s1.9-1,1.9-2.5v-4.4h1.1L101.4-341.9L101.4-341.9z M108.1-345.5h1.1c1,0,1.6,0.4,1.6,1.1c0,0.7-0.6,1.2-1.7,1.2h-0.9L108.1-345.5
		L108.1-345.5z M106.9-338.7h1.1v-3.4h0.7c0.6,0,1,0,1.3,0.8l1.2,2.7h1.3l-1.5-3.1c-0.2-0.5-0.4-0.6-0.8-0.8v0
		c0.9-0.1,1.6-0.9,1.6-1.8c0-1.8-1.5-2.1-3-2.1h-1.9L106.9-338.7L106.9-338.7z M117.4-346.4h1.1v7.7h-1.1L117.4-346.4z M124.8-345.5
		h-2.4v-1h5.9v1h-2.4v6.8h-1.1L124.8-345.5L124.8-345.5z M134.1-342l-3-4.5h1.3l2.3,3.5l2.2-3.5h1.3l-3,4.5v3.2h-1.1L134.1-342
		L134.1-342z"/>
	<path id="Path_964" class="st1" d="M131.2-363l-8.5-19.4l0,0l0,0h-3.4L111-363h3.7l6.3-15.2l6.6,15.2L131.2-363z M86.7-371.3
		c2.4-0.8,3.9-3,3.9-5.5c0-3.4-2.7-5.8-6.5-5.8H76v19.5h3v-16.7h5c1.7,0,3.5,0.9,3.5,3c0,1.9-1.4,3-3.7,3.1h0l-1.8,0l6,10.6l3.5,0
		C91.5-363,88.6-368.1,86.7-371.3L86.7-371.3z M94.7-377.5c0,3.9,3.9,5,6.9,5.8c3.1,0.9,4.2,1.9,4.2,3.4c0,2.5-2.6,2.9-4.1,2.9
		c-2,0-4-0.6-5.7-1.7l-1.5,2.5c2.2,1.4,4.7,2,7.2,2c4.5,0,7.5-2.3,7.5-6c0-4-3.7-5.2-6.7-6c-3.1-0.9-4.4-1.6-4.4-3.1
		c0-2.3,2.8-2.5,3.8-2.5c1.7,0,3.3,0.4,4.8,1.1l1.3-2.5c-1.9-0.9-4-1.4-6.1-1.4C97.4-382.9,94.7-380.9,94.7-377.5L94.7-377.5z"/>
	<path id="Path_965" class="st0" d="M139.4-349.9h2.5v0.4h-1v2.7h-0.4v-2.7h-1V-349.9z M144.8-346.8v-1.8c0-0.1,0-0.5,0-0.8h0
		l-0.9,2.6h-0.4l-0.9-2.6h0c0,0.3,0,0.7,0,0.8v1.8h-0.4v-3.1h0.6l0.9,2.6h0l0.9-2.6h0.6v3.1L144.8-346.8L144.8-346.8z"/>
</g>
</svg>
