<?xml version="1.0" encoding="utf-8"?>
<!-- Generator: Adobe Illustrator 28.0.0, SVG Export Plug-In . SVG Version: 6.00 Build 0)  -->
<svg version="1.1" id="Layer_1" xmlns="http://www.w3.org/2000/svg" xmlns:xlink="http://www.w3.org/1999/xlink" x="0px" y="0px"
	 viewBox="0 0 255 180" style="enable-background:new 0 0 255 180;" xml:space="preserve">
<path d="M89.4,90.3c-1.9-0.5-2.9-1.5-2.9-2.8c0-1.6,1.5-2.8,3.5-2.8s3.4,1.1,3.5,2.9h5.2c-0.1-4.5-3.5-7.6-8.6-7.6s-8.7,3.1-8.7,7.6
	c0,3.5,2.3,5.9,6.5,7.3l3.1,0.9c2.3,0.6,3.3,1.5,3.3,3.1c0,1.8-1.5,2.9-4,2.9c-2.6,0-3.9-1.5-4-3.1h-5.2c0.1,4.5,3.9,7.7,9.2,7.7
	c4.3,0,9.1-2.3,9.2-7.4c0.1-3.7-2.3-6.3-7.1-7.7L89.4,90.3L89.4,90.3z"/>
<path d="M109.5,88.2c-4.9,0.1-8.8,4.3-8.7,9.2c0.1,4.8,3.9,8.6,8.7,8.7c1.4,0,3.9-0.8,4.9-2.3l0.4-0.5v2.4h4.8V88.5h-4.8v2.3
	l-0.4-0.5C113,88.4,109.9,88.2,109.5,88.2z M110.1,101.6c-2.3,0-4.5-1.6-4.5-4.3s2.4-4.3,4.5-4.3c2.1,0,4.4,1.5,4.4,4.3
	S112.3,101.6,110.1,101.6z"/>
<path d="M127.4,88.6h-4.8v17.2h4.8V88.6z"/>
<path d="M135.2,80.3h-4.9v25.6h4.9V80.3z"/>
<path d="M148.4,80.3h-10.4v25.6h5.2v-8.9h5.3c6.2,0,8.3-4.4,8.3-8.3C156.8,82.8,152.6,80.3,148.4,80.3L148.4,80.3z M148.1,92.4h-5
	v-7.7h5.2c2.3,0,3.3,2.3,3.3,3.8C151.7,90.5,150.3,92.4,148.1,92.4L148.1,92.4L148.1,92.4z"/>
<path d="M165.4,88.2c-5.2,0-8.9,3.8-8.9,8.9c0,5.2,3.8,8.9,8.9,8.9s8.9-3.8,8.9-8.9C174.3,92,170.6,88.2,165.4,88.2z M165.4,101.3
	c-2.3,0-4.2-1.9-4.2-4.2s1.9-4.2,4.2-4.2s4.2,1.9,4.2,4.2c0.1,2.3-1.6,4.2-3.9,4.2l0,0H165.4L165.4,101.3z"/>
<path d="M181,88.6h-4.8v17.2h4.8V88.6z"/>
<path d="M189.1,91.1l-0.4,0.6v-3h-4.9V106h4.9v-9.1c0-2.4,1.1-3.8,3.4-3.8c2,0,3.3,1.4,3.3,3.7v9.2h4.9V95.7c0-4.7-2.1-7.3-6.2-7.3
	C192,88.2,190.1,89.4,189.1,91.1L189.1,91.1L189.1,91.1z"/>
<path d="M125,86.2c1.6,0,3-1.4,3-3s-1.4-3-3-3c-1.6,0-3,1.4-3,3l0,0c0,0.4,0.1,0.8,0.3,1.1C122.7,85.5,123.7,86.2,125,86.2L125,86.2
	z"/>
<path d="M178.6,86.2c1.6,0,3-1.4,3-3s-1.4-3-3-3c-1.6,0-3,1.4-3,3l0,0c0,0.4,0.1,0.8,0.3,1.1C176.2,85.5,177.4,86.2,178.6,86.2
	L178.6,86.2z"/>
<path d="M212.7,88.6h-3.4v-6.7h-4.9v6.7h-3.3v4h3.3v13.1h4.9V92.6h3.4V88.6z"/>
<polygon points="64,92.8 60.6,72.2 40,97.9 64.9,97.9 "/>
<polygon points="64,85 66.2,97.9 76.4,97.9 62.2,74 "/>
<polygon points="42.4,99.2 66.6,107.8 65.2,99.2 "/>
<polygon points="67.8,107.4 76,99.2 66.4,99.2 "/>
<path d="M214.1,102.6c0.3,0.1,0.5,0.4,0.6,0.6c0.1,0.3,0.3,0.6,0.3,1s-0.1,0.6-0.3,1c-0.1,0.3-0.4,0.5-0.6,0.6
	c-0.3,0.1-0.6,0.3-1,0.3s-0.6-0.1-1-0.3c-0.3-0.1-0.5-0.4-0.6-0.6c-0.1-0.3-0.3-0.6-0.3-1s0.1-0.6,0.3-1c0.1-0.3,0.4-0.5,0.6-0.6
	c0.3-0.1,0.6-0.3,1-0.3S213.7,102.3,214.1,102.6z M214.2,105.4c0.5-0.6,0.5-1.6,0-2.3c-0.6-0.6-1.6-0.6-2.3,0
	c-0.5,0.6-0.5,1.6,0,2.3C212.6,106,213.6,106,214.2,105.4z M213.9,104.2c-0.1,0.1-0.3,0.1-0.4,0.3l0.5,0.9h-0.5l-0.5-0.8h-0.3v0.8
	h-0.4v-2.1h0.9c0.1,0,0.4,0,0.5,0.1s0.1,0.3,0.1,0.5C213.9,104,213.9,104.1,213.9,104.2L213.9,104.2L213.9,104.2z M212.7,104.1h0.5
	c0.1,0,0.1,0,0.3-0.1c0.1,0,0.1-0.1,0.1-0.3c0-0.1,0-0.1-0.1-0.3c-0.1,0-0.1-0.1-0.3-0.1h-0.5V104.1L212.7,104.1z"/>
</svg>
