<?xml version="1.0" encoding="utf-8"?>
<!-- Generator: Adobe Illustrator 25.3.1, SVG Export Plug-In . SVG Version: 6.00 Build 0)  -->
<svg version="1.1" id="Layer_1" xmlns="http://www.w3.org/2000/svg" xmlns:xlink="http://www.w3.org/1999/xlink" x="0px" y="0px"
	 viewBox="0 0 210 84" style="enable-background:new 0 0 210 84;" xml:space="preserve">
<style type="text/css">
	.st0{fill:#fff;}
</style>
<g id="Samsung_Logo_Grey" transform="translate(-2.013 -2.013)">
	<path id="S" class="st0" d="M54.8,47.7c0.1,0.4,0.1,0.9,0,1.3c-0.2,0.8-0.9,1.3-1.7,1.2c-0.8,0.1-1.6-0.5-1.7-1.3
		c0-0.1,0-0.2,0-0.3v-1.7h-4.6v1.3c0,3.8,3,5,6.3,5c3.1,0,5.7-1.1,6.1-3.9c0.1-0.9,0.1-1.9,0-2.8c-0.7-3.6-7.3-4.7-7.8-6.7
		c-0.1-0.3-0.1-0.6,0-0.9c0.1-0.8,0.8-1.3,1.6-1.2c0.8-0.1,1.5,0.5,1.6,1.3c0,0.1,0,0.2,0,0.3v1.1h4.3v-1.2c0-3.8-3.4-4.4-5.9-4.4
		c-3.1,0-5.6,1-6,3.8c-0.1,0.8-0.1,1.5,0,2.3C47.8,44.4,53.9,45.4,54.8,47.7"/>
	<path id="Path_1107" class="st0" d="M65.2,35.3L62,52.6h4.6L69,36.9h0.1l2.3,15.6H76l-3.2-17.2H65.2z M91.2,35.3l-2.1,13.2H89
		l-2.1-13.2h-7.1l-0.4,17.2h4.3l0.1-15.5H84l2.9,15.5h4.4l2.9-15.5h0.1l0.1,15.5h4.3l-0.4-17.2H91.2z"/>
	<g id="Group_3397" transform="translate(58 2.021)">
		<path id="Path_1108" class="st0" d="M52.7,45.6c0.1,0.4,0.1,0.9,0,1.3c-0.2,0.8-0.9,1.3-1.7,1.2c-0.8,0.1-1.6-0.5-1.7-1.3
			c0-0.1,0-0.2,0-0.3v-1.7h-4.6v1.3c0,3.8,3,5,6.3,5c3.1,0,5.7-1.1,6.1-3.9c0.1-0.9,0.1-1.9,0-2.8c-0.7-3.6-7.3-4.7-7.8-6.7
			c-0.1-0.3-0.1-0.6,0-0.9c0.1-0.8,0.8-1.3,1.6-1.2c0.8-0.1,1.5,0.5,1.6,1.3c0,0.1,0,0.2,0,0.2v1.1h4.3v-1.2c0-3.8-3.4-4.3-5.8-4.3
			c-3.1,0-5.6,1-6,3.8c-0.1,0.8-0.1,1.5,0,2.3C45.7,42.3,51.8,43.3,52.7,45.6"/>
	</g>
	<path id="Path_1109" class="st0" d="M125.2,50c0.8,0.1,1.5-0.5,1.7-1.3c0-0.2,0-0.4,0-0.6V35.3h4.4v12.3c0,0.4,0,0.8,0,1.1
		c-0.3,3.2-2.8,4.2-6,4.2c-3.2,0-5.7-1.1-6-4.2c0-0.2,0-0.8,0-1.1V35.3h4.4V48c0,0.2,0,0.4,0,0.6C123.7,49.5,124.4,50,125.2,50
		 M146.3,35.3l0.2,13.5h-0.1l-4-13.5h-6.4v17h4.2l-0.2-14h0.1l4.2,14h6.1v-17H146.3z M161.1,49.8c0.8,0.1,1.6-0.4,1.8-1.3
		c0-0.2,0-0.4,0-0.6v-2.5h-1.8v-2.5h6.1v4.6c0,0.3,0,0.6,0,1.1c-0.3,3.2-3,4.2-6.1,4.2c-3,0-5.8-1.1-6.1-4.2c0-0.6,0-0.8,0-1.1v-7.2
		c0-0.4,0-0.8,0.1-1.1c0.4-3.2,3-4.2,6.1-4.2c3,0,5.7,1,6.1,4.2c0,0.6,0,1.1,0,1.1v0.6H163v-1c0-0.2,0-0.4,0-0.6
		c-0.2-0.8-0.9-1.3-1.7-1.3c-0.8-0.1-1.5,0.5-1.7,1.3c0,0.3-0.1,0.5-0.1,0.8v7.9c0,0.2,0,0.4,0,0.6C159.4,49,159.9,49.8,161.1,49.8"
		/>
</g>
</svg>
