<?xml version="1.0" encoding="utf-8"?>
<!-- Generator: Adobe Illustrator 25.3.1, SVG Export Plug-In . SVG Version: 6.00 Build 0)  -->
<svg version="1.1" id="Sand_Hill_Logo" xmlns="http://www.w3.org/2000/svg" xmlns:xlink="http://www.w3.org/1999/xlink" x="0px"
	 y="0px" viewBox="0 0 210 84" style="enable-background:new 0 0 210 84;" xml:space="preserve">
<style type="text/css">
	.st0{fill:#fff;}
</style>
<path id="Path_101" class="st0" d="M23.8,31.3v21.4h21.8V31.3H23.8z M29.9,49.1c-1,0-2-0.3-2.9-0.7v-6.7c0.9,0.7,1.9,1.3,3,1.8
	c2,1.1,3.3,1.7,3.3,3.2C33.2,48,32,49.1,29.9,49.1z M33.3,41.6c-0.9-0.7-1.9-1.3-2.9-1.8c-2.2-1.1-3.4-1.6-3.4-3
	c0-1.3,1.1-2.1,3.2-2.1c1.1,0,2.2,0.2,3.2,0.6L33.3,41.6z M42.5,49.8h-5.8v-5.9h5.8L42.5,49.8z M42.5,40.4h-5.8v-5.9h5.8L42.5,40.4z
	"/>
<path id="Path_102" class="st0" d="M60.9,47.7c-2.2,0.1-4.3-0.7-5.9-2.2l2.2-1.6c1.1,0.9,2.4,1.5,3.9,1.4c1.8,0,2.6-0.4,2.6-1.3
	c0-0.8-0.5-1.1-3.4-1.7c-2.8-0.5-4.7-1.2-4.7-3.6c0-2.2,2.4-3.6,5.4-3.6c2-0.1,4,0.6,5.5,1.9l-2.2,1.7c-1-0.8-2.2-1.3-3.4-1.2
	c-1.6,0-2.2,0.6-2.2,1.1c0,0.8,0.6,1,3,1.5c2.4,0.5,5,1.1,5,3.8C66.9,46.1,65.1,47.7,60.9,47.7z M81.2,47.5L80,44.8h-5.5l-1.2,2.7
	h-3.2l5.8-12.2h2.9l5.7,12.2H81.2z M78,40.2c-0.3-0.7-0.6-1.4-0.8-1.9c-0.2,0.5-0.5,1.2-0.8,1.9l-1,2.2H79L78,40.2z M98.4,47.5
	l-5.5-6.7c-0.4-0.5-0.9-1.1-1.1-1.4c0,0.5,0,2,0,2.7v5.4h-3V35.3h2.9l5.4,6.5c0.4,0.5,0.9,1.1,1.1,1.4c0-0.5,0-2,0-2.7v-5.2h3v12.2
	L98.4,47.5z M111.2,47.5h-4.5V35.3h4.7c4.3,0,7.5,1.6,7.5,6.1C118.9,45.7,115.1,47.5,111.2,47.5L111.2,47.5z M111.3,37.6h-1.6v7.5
	h1.5c3.2,0,4.6-1.5,4.6-3.7C115.8,38.9,114.5,37.6,111.3,37.6L111.3,37.6z M138.8,47.5v-5.1h-6.4v5.1h-3V35.3h3V40h6.4v-4.7h3v12.2
	L138.8,47.5z M148.4,47.5V35.3h3v12.2L148.4,47.5z M158,47.5V35.3h3v9.8h7.8v2.4L158,47.5z M175.3,47.5V35.3h3v9.8h7.8v2.4
	L175.3,47.5z"/>
</svg>
