<?xml version="1.0" encoding="utf-8"?>
<!-- Generator: Adobe Illustrator 25.3.1, SVG Export Plug-In . SVG Version: 6.00 Build 0)  -->
<svg version="1.1" id="SanDisk_Logo" xmlns="http://www.w3.org/2000/svg" xmlns:xlink="http://www.w3.org/1999/xlink" x="0px"
	 y="0px" viewBox="0 0 210 84" style="enable-background:new 0 0 210 84;" xml:space="preserve">
<style type="text/css">
	.st0{fill:#000;}
</style>
<path id="Path_994" class="st0" d="M101.4,31.5h-3.4c-0.3,0.2-0.4,0.5-0.4,0.9c0,0.7,0.4,0.9,0.4,0.9h3c4.3,0,7.1,2.9,7.1,8.6
	c0,6.1-2.7,8.8-7.5,8.8h-1.9c-0.3,0-0.5-0.4-0.5-0.5c0-1.1,0-8.3,0-8.9c0-3-2-4.6-5.3-4.6c-1.9-0.1-3.8,0.9-4.7,2.7v-1.9
	c0-0.2-0.1-0.4-0.3-0.4c0,0-0.1,0-0.1,0h-5.6c-0.2,0.2-0.4,0.6-0.4,0.9c0,0.3,0.1,0.6,0.4,0.9h1.2c0.4,0,0.7,0.4,0.7,0.8v10.6
	c0,0.3-0.3,0.5-0.5,0.5h-1.2l-0.5,1.5c3.6,0,7.9,0,7.9,0c0.2-0.2,0.3-0.5,0.3-0.8c0-0.3-0.1-0.5-0.3-0.7h-0.9
	c-0.3,0-0.5-0.2-0.5-0.5v-8.3c0.8-2.1,2.3-3.4,3.5-3.4c1.1,0,2,0.9,1.9,2c0,0.1,0,0.2,0,0.2c0,0.7,0,8.1,0,9.3
	c0,0.3-0.2,0.5-0.5,0.6h-1.1c-0.2,0.2-0.3,0.5-0.3,0.7c0,0.3,0.1,0.6,0.3,0.8h9.3c9.3,0,11.7-5.6,11.7-10.3
	C113.3,34.4,108.1,31.5,101.4,31.5z"/>
<path id="Path_995" class="st0" d="M80.6,50.7c-1-0.1-1.1-0.7-1.1-1.4v-8.1c0-1.3-0.5-2.5-1.4-3.4c-1.4-1-3-1.4-4.7-1.3
	c-1.8,0-3.6,0.2-5.3,0.8c-0.2,0.1-0.2,0.2-0.2,0.5c0,0.8,0,1.3,0,2.2c0,0.2,0.1,0.3,0.3,0.3c0,0,0,0,0,0h0.9c0.2,0,0.4-0.1,0.5-0.3
	c0.4-0.6,1-1.1,1.6-1.4c0.6-0.3,1.2-0.5,1.9-0.5c1.7,0,2.4,1.2,2.4,2.7V43c-6.4-0.4-9,1.5-9,4.5c-0.2,2.5,1.6,4.7,4.1,4.9
	c0.2,0,0.4,0,0.6,0c1.8,0.1,3.5-0.7,4.6-2c0.2,1.1,0.8,1.8,1.7,1.8h3.3l0.5-1.5L80.6,50.7z M75.3,48.4c-0.7,0.9-1.7,1.5-2.8,1.6
	c-1.1,0.1-2.2-0.6-2.3-1.8c0-0.2,0-0.4,0-0.6c0-1.9,0.9-2.9,5.1-2.9L75.3,48.4L75.3,48.4z"/>
<path id="Path_996" class="st0" d="M123.6,50.7l-1.8,0c-0.2,0-0.4-0.1-0.4-0.3c0,0,0,0,0-0.1c0,0,0-12.3,0-12.7s-0.1-0.6-0.5-0.6
	h-5.4c-0.5,0.5-0.5,1.2,0,1.7c0,0,0,0,0,0c0,0,1.4,0,1.5,0s0.2,0.1,0.2,0.2s0,11.2,0,11.2c0,0.2-0.2,0.4-0.4,0.4H115
	c-0.2,0.2-0.3,0.5-0.3,0.7c0,0.3,0.1,0.6,0.3,0.8h8.6c0.2-0.2,0.3-0.5,0.3-0.8C123.9,51.1,123.8,50.8,123.6,50.7z"/>
<path id="Path_997" class="st0" d="M57.1,39c-3-1-3.6-1.9-3.6-3.1c0-1.3,1.2-2.6,3.8-2.6c1,0,1.9,0.3,2.7,0.8c0.7,0.5,1.3,1.2,1.8,2
	c0.1,0.1,0.2,0.2,0.3,0.2h0.9c0.1,0,0.2-0.1,0.2-0.3c0-0.7,0-2.5,0-3.5c0-0.2-0.1-0.4-0.3-0.4c-1.9-0.6-3.8-0.9-5.8-0.8
	c-4.2,0-7,2.4-7,6.1c0,3.6,2.7,5.1,6.3,6.2c2.3,0.7,4.9,1.6,4.9,3.9c0,1.3-1.2,2.9-3.7,2.9c-1.4,0.1-2.8-0.4-3.8-1.4
	c-0.8-0.8-1.5-1.7-2-2.8c-0.1-0.2-0.2-0.3-0.3-0.3h-1.1c-0.2,0-0.3,0.1-0.3,0.3v4.1c0,0.2,0.1,0.4,0.3,0.5c2.2,1.2,4.6,1.7,7.1,1.7
	c4,0,7.2-2.7,7.2-7C64.8,40.7,60.5,40.2,57.1,39z"/>
<path id="Path_998" class="st0" d="M132.2,42.6c-3.1-0.7-3.7-1.3-3.7-2.4c0-0.9,0.8-1.9,2.4-1.9c1.5,0,2.9,0.8,3.8,2.1
	c0.1,0.1,0.2,0.2,0.4,0.2h0.8c0.1,0,0.2-0.1,0.2-0.2v-2.7c0-0.2-0.1-0.4-0.3-0.4c-1.6-0.4-3.3-0.6-4.9-0.6c-2.6,0-5.5,1.5-5.5,4.7
	c0,2.8,2.2,4.3,4.1,4.8c3.3,0.9,4.2,1.3,4.2,2.7c0,1.2-0.9,1.9-2.6,1.9s-3.2-1.2-4.1-3.4c-0.1-0.2-0.2-0.3-0.4-0.3c-0.5,0-0.9,0-1,0
	c-0.1,0-0.3,0.1-0.3,0.2c0,0,0,0,0,0v3.2c0,0.2,0.3,0.5,0.3,0.5c0.6,0.4,1.3,0.7,2,0.9c1.1,0.4,2.3,0.6,3.5,0.5
	c3.8,0,5.7-2.4,5.7-5.2C136.8,44.9,135.4,43.4,132.2,42.6z"/>
<path id="Path_999" class="st0" d="M117.5,34.9h3.9c0.2,0,0.4-0.1,0.4-0.3l0.9-2.8c0.1-0.2-0.1-0.4-0.3-0.4h-4
	c-0.2,0-0.3,0.1-0.4,0.3l-0.7,2.5C117.1,34.7,117.2,34.9,117.5,34.9z"/>
<path id="Path_1000" class="st0" d="M155.9,50.7c-0.8,0.1-1.5-0.3-2-0.9c-0.2-0.3-5-7.6-5.1-7.8c0.7-1.2,1.7-2.2,2.9-2.9
	c0.9-0.4,2-0.6,3-0.7c0,0,0.2-0.2,0.2-0.7c0-0.3-0.1-0.5-0.2-0.7h-4.8c-0.2,0-0.5,0.2-0.6,0.4c-0.1,0.2-3.9,5.6-4.9,7V32
	c0-0.3-0.2-0.5-0.5-0.5c0,0,0,0-0.1,0h-6c-0.2,0.2-0.3,0.5-0.3,0.7c0,0.3,0.1,0.6,0.3,0.8h2c0.2,0,0.3,0.1,0.3,0.4v16.9
	c0,0.2-0.1,0.4-0.3,0.4h-1.9c-0.2,0.2-0.3,0.5-0.3,0.7c0,0.3,0.1,0.6,0.3,0.8l8.1,0c0.1-0.2,0.2-0.5,0.2-0.8c0-0.3-0.1-0.5-0.2-0.7
	h-1.3c-0.2,0-0.3-0.2-0.3-0.3c0,0,0,0,0,0v-3.9c0.4-0.4,1.1-1.1,1.1-1.2c0.1-0.2,0.4-0.2,0.5-0.1c0,0,0.1,0.1,0.1,0.1
	c0.2,0.3,3.2,5,3.3,5.1c0.1,0.2,0.1,0.3-0.1,0.3l-1,0c-0.1,0.2-0.2,0.5-0.2,0.7c0,0.3,0.1,0.5,0.2,0.7l8,0c0.2-0.2,0.3-0.5,0.3-0.7
	c0-0.3-0.1-0.6-0.3-0.8C156.4,50.7,156.1,50.7,155.9,50.7z"/>
<g id="Group_3359" transform="translate(106.188 4.861)">
	<path id="Path_1001" class="st0" d="M52.7,34v-0.2c0-0.2-0.1-0.3-0.2-0.4c-0.1-0.1-0.2-0.1-0.3-0.1c0.1,0,0.2-0.1,0.3-0.1
		c0.1-0.1,0.1-0.2,0.1-0.3c0-0.2-0.1-0.4-0.3-0.5c-0.1-0.1-0.2-0.1-0.4-0.1h-0.9v1.9h0.5v-0.7h0.1l0.1,0c0.1,0,0.1,0,0.2,0
		c0.1,0,0.1,0.1,0.1,0.1c0,0.1,0,0.2,0,0.2c0,0.1,0,0.2,0,0.3h0.5L52.7,34L52.7,34z M52.1,33c-0.1,0.1-0.2,0.1-0.3,0.1h-0.2v-0.6
		h0.1c0.1,0,0.2,0,0.3,0c0.1,0,0.2,0.1,0.2,0.2C52.2,32.8,52.2,32.9,52.1,33L52.1,33z"/>
	<path id="Path_1002" class="st0" d="M53.2,31.9c-0.3-0.3-0.8-0.5-1.2-0.5c-0.4,0-0.9,0.2-1.2,0.5c-0.4,0.3-0.6,0.8-0.5,1.3
		c0,0.5,0.2,0.9,0.5,1.2c0.7,0.7,1.8,0.7,2.5,0c0.3-0.3,0.5-0.8,0.5-1.3C53.7,32.6,53.5,32.2,53.2,31.9z M52.9,34.1
		c-0.6,0.6-1.5,0.6-2,0c-0.3-0.3-0.4-0.6-0.4-1c0-0.4,0.1-0.7,0.4-1c0.3-0.3,0.6-0.4,1-0.4c0.8,0,1.4,0.7,1.4,1.4
		C53.4,33.5,53.2,33.9,52.9,34.1L52.9,34.1z"/>
</g>
</svg>
