<?xml version="1.0" encoding="utf-8"?>
<!-- Generator: Adobe Illustrator 25.3.1, SVG Export Plug-In . SVG Version: 6.00 Build 0)  -->
<svg version="1.1" id="Layer_1" xmlns="http://www.w3.org/2000/svg" xmlns:xlink="http://www.w3.org/1999/xlink" x="0px" y="0px"
	 viewBox="0 0 210 84" style="enable-background:new 0 0 210 84;" xml:space="preserve">
<style type="text/css">
	.st0{fill:#000;}
</style>
<g id="semtech-logo" transform="translate(0.04)">
	<path id="Path_103" class="st0" d="M101.7,27.5c-0.4,1.8,1.5,2,2.5,2.2c1.9,0.2,5,0.2,7.1,1c1.6,0.4,2.8,1.7,3.1,3.3v-12h-6.5
		c-0.6,0.6-3.1,2-4,2.8C102.1,26.4,101.8,27.1,101.7,27.5"/>
	<path id="Path_104" class="st0" d="M108.2,39.2c2.7-2.8,1.9-5.7-2.3-6c-1.5-0.1-3.6-0.4-4.6-0.5c-0.3,0-2.1,0-2.8-1.1v16.1h0
		C100.7,46.4,107.2,40.2,108.2,39.2"/>
	<path id="Path_105" class="st0" d="M106.8,21.9h-8.3v7.9c0.7-1.5,1.6-2.8,2.8-3.9C102.9,24.3,104.8,22.9,106.8,21.9"/>
	<path id="Path_106" class="st0" d="M114.4,35.9c-0.4,1.9-1.2,3.8-2.3,5.4c-1.7,2.4-3.6,4.5-5.8,6.5h8.1L114.4,35.9z"/>
	<path id="Path_107" class="st0" d="M43.9,58.3c0,1.4,1,1.7,3.3,1.7c2.9,0,3.3-0.7,3.3-1.1c0-0.7-1.2-1-3.1-1.2L45,57.3
		c-2.8-0.3-5.6-1-5.6-3.1c0-2.7,3.8-3.6,7.6-3.6c6.1,0,7.8,1.2,8,3.4h-4.7c-0.1-1.1-1.5-1.2-3-1.2c-2.1,0-3.1,0.5-3.1,1.1
		c0,0.7,1.5,0.9,3.3,1.2l2.2,0.3c3.1,0.4,5.5,1,5.5,3.2c0,3-4.7,3.6-8.5,3.6c-6.7,0-7.9-1.9-7.9-3.8L43.9,58.3z"/>
	<path id="Path_108" class="st0" d="M56.8,51h14.3v2.2h-9.5v2h9v2.2h-9v2.1h9.7v2.2H56.8V51z"/>
	<path id="Path_109" class="st0" d="M73.2,51h6.9l4.5,8l4.8-8h6.6v10.8h-4.2V53h0l-5.1,8.8h-4.6L77.1,53h0v8.8h-3.8V51z"/>
	<path id="Path_110" class="st0" d="M104,53.2h-6.4V51h17.7v2.2h-6.4v8.6H104V53.2z"/>
	<path id="Path_111" class="st0" d="M117,51h14.3v2.2h-9.5v2h9v2.2h-9v2.1h9.7v2.2H117V51z"/>
	<path id="Path_112" class="st0" d="M146.5,54.5c-0.3-1.2-1.8-1.6-3.7-1.6c-3.2,0-4.8,1.4-4.8,3.4s1.3,3.5,4.7,3.5
		c1.9,0,3.6-0.4,3.8-1.7h5.2c-0.2,3.2-4.4,3.9-9.5,3.9s-9.3-1.7-9.3-5.7s4-5.7,10.1-5.7c4.4,0,8.6,1,8.6,3.8L146.5,54.5z"/>
	<path id="Path_113" class="st0" d="M153,51h4.9v4.3h8.2V51h4.9v10.8h-4.9v-4.3h-8.2v4.3H153V51z"/>
</g>
</svg>
