<?xml version="1.0" encoding="utf-8"?>
<!-- Generator: Adobe Illustrator 25.3.1, SVG Export Plug-In . SVG Version: 6.00 Build 0)  -->
<svg version="1.1" id="Shutterfly_logo" xmlns="http://www.w3.org/2000/svg" xmlns:xlink="http://www.w3.org/1999/xlink" x="0px"
	 y="0px" viewBox="0 0 210 84" style="enable-background:new 0 0 210 84;" xml:space="preserve">
<style type="text/css">
	.st0{clip-path:url(#SVGID_2_);}
	.st1{fill:#fff;}
	.st2{clip-path:url(#SVGID_4_);}
	.st3{clip-path:url(#SVGID_6_);}
	.st4{clip-path:url(#SVGID_8_);}
	.st5{clip-path:url(#SVGID_10_);}
	.st6{clip-path:url(#SVGID_12_);}
	.st7{clip-path:url(#SVGID_14_);}
	.st8{clip-path:url(#SVGID_16_);}
	.st9{clip-path:url(#SVGID_18_);}
	.st10{clip-path:url(#SVGID_20_);}
</style>
<g id="Group_14">
	<g>
		<defs>
			<rect id="SVGID_1_" x="42.9" y="27.7" width="124.1" height="28.6"/>
		</defs>
		<clipPath id="SVGID_2_">
			<use xlink:href="#SVGID_1_"  style="overflow:visible;"/>
		</clipPath>
		<g id="Group_10" class="st0">
			<path id="Path_114" class="st1" d="M142.3,34.1v2.5h-3.7v12.6h-2.5V36.6h-1.8v-2.5h1.8c0-2.7,1-4.8,2.7-5.6
				c1.1-0.5,2.3-0.8,3.6-0.8v2.5c-0.7-0.1-1.4,0.1-2,0.4c-1.1,0.7-1.8,2-1.7,3.3v0.1H142.3z"/>
		</g>
	</g>
	<g>
		<defs>
			<rect id="SVGID_3_" x="42.9" y="27.7" width="124.1" height="28.6"/>
		</defs>
		<clipPath id="SVGID_4_">
			<use xlink:href="#SVGID_3_"  style="overflow:visible;"/>
		</clipPath>
		<g id="Group_11" class="st2">
			<path id="Path_115" class="st1" d="M96.6,36.6v-2.5h-3.7V28h-2.5v6.1h-1.8v2.5h1.8v6.5c-0.1,2.2,0.9,4.3,2.7,5.6
				c1.1,0.5,2.3,0.8,3.6,0.6v-2.5c-0.7,0.1-1.4-0.1-2-0.4c-1.1-0.7-1.8-2-1.7-3.3v-6.5H96.6z"/>
		</g>
	</g>
	<g>
		<defs>
			<rect id="SVGID_5_" x="42.9" y="27.7" width="124.1" height="28.6"/>
		</defs>
		<clipPath id="SVGID_6_">
			<use xlink:href="#SVGID_5_"  style="overflow:visible;"/>
		</clipPath>
		<g id="Group_12" class="st3">
			<path id="Path_116" class="st1" d="M106.7,36.6v-2.5H103V28h-2.5v6.1h-1.8v2.5h1.8v6.5c-0.1,2.2,0.9,4.3,2.7,5.6
				c1.1,0.5,2.3,0.8,3.6,0.6v-2.5c-0.7,0.1-1.4-0.1-2-0.4c-1.1-0.7-1.8-2-1.7-3.3v-6.5H106.7z"/>
		</g>
	</g>
	<g>
		<defs>
			<rect id="SVGID_7_" x="42.9" y="27.7" width="124.1" height="28.6"/>
		</defs>
		<clipPath id="SVGID_8_">
			<use xlink:href="#SVGID_7_"  style="overflow:visible;"/>
		</clipPath>
		<g id="Group_13" class="st4">
			<path id="Path_117" class="st1" d="M83.5,42.8c0,2.4-1.1,3.9-3.2,3.9c-1.9,0-3.2-1.5-3.2-3.9v-8.8h-2.5V43c0,3.9,2.2,6.3,5.7,6.3
				c3.6,0,5.7-2.4,5.7-6.3v-8.9h-2.5V42.8z"/>
		</g>
	</g>
</g>
<rect id="Rectangle_24" x="145.6" y="28" class="st1" width="2.5" height="21.1"/>
<g id="Group_21">
	<g>
		<defs>
			<rect id="SVGID_9_" x="42.9" y="27.7" width="124.1" height="28.6"/>
		</defs>
		<clipPath id="SVGID_10_">
			<use xlink:href="#SVGID_9_"  style="overflow:visible;"/>
		</clipPath>
		<g id="Group_15" class="st5">
			<path id="Path_118" class="st1" d="M50.4,49.3c-3.7,0-6.9-2-7.5-3.8l1.9-1.7c1.3,1.8,3.4,2.9,5.6,2.9c2.9,0,4.7-1.1,4.7-3.4
				c0-2.4-2.2-3.2-5.2-3.9c-3.2-0.8-6.4-1.8-6.4-6c-0.1-3.2,2.9-5.7,6.9-5.7c3.4,0,6,1.6,6.7,2.9l-2,1.7c-1.2-1.3-2.9-2.1-4.7-2
				c-2.7,0-4.4,1.3-4.4,3.3c0,2.4,1.9,2.9,4.8,3.7c3.4,0.9,6.7,2.2,6.7,6.2C57.7,47,54.7,49.3,50.4,49.3"/>
		</g>
	</g>
	<g>
		<defs>
			<rect id="SVGID_11_" x="42.9" y="27.7" width="124.1" height="28.6"/>
		</defs>
		<clipPath id="SVGID_12_">
			<use xlink:href="#SVGID_11_"  style="overflow:visible;"/>
		</clipPath>
		<g id="Group_16" class="st6">
			<path id="Path_119" class="st1" d="M131.1,33.9c-1.6-0.1-3.1,0.6-4.1,1.8v-1.7h-2.5v15.1h2.5v-8.9c0-2.1,1.8-3.8,3.9-3.8
				c0,0,0.1,0,0.1,0c0.3,0,0.5,0,0.8,0.1v-2.5C131.7,34,131.4,33.9,131.1,33.9"/>
		</g>
	</g>
	<g>
		<defs>
			<rect id="SVGID_13_" x="42.9" y="27.7" width="124.1" height="28.6"/>
		</defs>
		<clipPath id="SVGID_14_">
			<use xlink:href="#SVGID_13_"  style="overflow:visible;"/>
		</clipPath>
		<g id="Group_17" class="st7">
			<path id="Path_120" class="st1" d="M115.3,49.3c-4.2,0-7.1-3.3-7.1-7.7s2.8-7.7,6.9-7.7c4.1,0.1,6.6,3.2,6.6,7.9v0.9h-10.9
				c0.4,2.7,2,4.4,4.7,4.4c1.6,0.1,3.2-0.6,4.2-1.9l0.1-0.1l1.5,1.4l-0.1,0.1C119.8,48.4,117.6,49.4,115.3,49.3 M119.1,40.5
				c-0.3-2.3-1.3-4.4-4.2-4.4c-2.3,0-3.9,1.8-4.3,4.4H119.1z"/>
		</g>
	</g>
	<g>
		<defs>
			<rect id="SVGID_15_" x="42.9" y="27.7" width="124.1" height="28.6"/>
		</defs>
		<clipPath id="SVGID_16_">
			<use xlink:href="#SVGID_15_"  style="overflow:visible;"/>
		</clipPath>
		<g id="Group_18" class="st8">
			<path id="Path_121" class="st1" d="M66.4,33.9c-1.3,0-2.6,0.5-3.6,1.4V28h-2.5v21.2h2.5v-8.9c0-2.4,1.5-3.9,3.6-3.9s3,1.8,3,4.2
				V49H72v-8.5C72,35.8,69.5,33.9,66.4,33.9"/>
		</g>
	</g>
	<g>
		<defs>
			<rect id="SVGID_17_" x="42.9" y="27.7" width="124.1" height="28.6"/>
		</defs>
		<clipPath id="SVGID_18_">
			<use xlink:href="#SVGID_17_"  style="overflow:visible;"/>
		</clipPath>
		<g id="Group_19" class="st9">
			<path id="Path_122" class="st1" d="M160.3,34.1V43c0,2.4-1.5,3.9-3.4,3.9c-1.9,0-2.9-1.8-2.9-4.2v-8.6h-2.4v8.5
				c0,4.8,2.4,6.7,5.5,6.7c1.3,0,2.5-0.5,3.4-1.4v2.2c0.1,1.3-0.5,2.5-1.7,3.2c-0.6,0.3-1.3,0.5-2,0.4v2.5c1.2,0.1,2.5-0.1,3.6-0.6
				c1.8-1.3,2.8-3.4,2.7-5.6V34.1H160.3z"/>
		</g>
	</g>
	<g>
		<defs>
			<rect id="SVGID_19_" x="42.9" y="27.7" width="124.1" height="28.6"/>
		</defs>
		<clipPath id="SVGID_20_">
			<use xlink:href="#SVGID_19_"  style="overflow:visible;"/>
		</clipPath>
		<g id="Group_20" class="st10">
			<path id="Path_123" class="st1" d="M166.3,47.3L166.3,47.3c0-0.1,0-0.3-0.1-0.3c-0.1-0.2-0.3-0.2-0.5-0.3H165v1.4h0.3v-0.5h0.3
				l0.4,0.5h0.2l-0.4-0.5C166.2,47.7,166.3,47.5,166.3,47.3 M165.7,47.5h-0.4v-0.4h0.4c0.1,0,0.2,0.1,0.3,0.3l0,0
				C165.9,47.4,165.9,47.5,165.7,47.5 M165.7,46.1c-0.8,0-1.4,0.6-1.4,1.4c0,0.8,0.6,1.4,1.4,1.4s1.4-0.6,1.4-1.4
				C167.1,46.8,166.5,46.1,165.7,46.1 M165.7,48.7c-0.6,0-1.1-0.5-1.1-1.1c0-0.6,0.5-1.1,1.1-1.1c0.6,0,1.1,0.5,1.1,1.1c0,0,0,0,0,0
				C166.8,48.2,166.3,48.7,165.7,48.7C165.7,48.7,165.7,48.7,165.7,48.7"/>
		</g>
	</g>
</g>
</svg>
