<?xml version="1.0" encoding="utf-8"?>
<!-- Generator: Adobe Illustrator 25.3.1, SVG Export Plug-In . SVG Version: 6.00 Build 0)  -->
<svg version="1.1" id="Footer" xmlns="http://www.w3.org/2000/svg" xmlns:xlink="http://www.w3.org/1999/xlink" x="0px" y="0px"
	 viewBox="0 0 210 84" style="enable-background:new 0 0 210 84;" xml:space="preserve">
<style type="text/css">
	.st0{fill-rule:evenodd;clip-rule:evenodd;fill:#000;}
</style>
<g id="_02_Footer_Desktop">
	<g id="Group-2">
		<g id="SJSU-Primary-mark_Reversed">
			<g id="Group-4" transform="translate(14.053 1.682)">
				<path id="Fill-1" class="st0" d="M80.9,28h-7.2v0.5l1.5,0.7l0,0l0.1,0c0.3,0.2,0.5,0.5,0.5,0.8v0.1l0,10.9
					c0,4.1-1.6,6.3-4.7,6.4l0,0c-0.2,0-0.3,0-0.5,0c-3.2,0-4.9-2.3-4.9-6.5v-8.7c0-1.2,0-1.9,0-2.3c0-0.3,0.2-0.6,0.5-0.8l0.1,0l0,0
					l1.5-0.7V28h-7.2v0.5l1.5,0.7l0,0l0.1,0c0.3,0.2,0.5,0.6,0.5,0.9l0,0v10.8c0,2.3-0.1,4.4,1.6,6.2c0.7,0.8,1.7,1.4,2.7,1.7
					c0,0,0.2,0.1,0.5,0.1c0.1,0,0.2,0.1,0.4,0.1c2.4,0.6,4.9,0.5,7.2-0.3l0,0c0,0,0.1,0,0.1,0h0c0.9-0.3,1.8-0.9,2.4-1.6
					c1.6-1.8,1.6-3.9,1.6-6.2l0-10.9v0c0-0.4,0.2-0.7,0.5-0.9l0.1,0l0,0l1.5-0.7V28"/>
				<path id="Fill-3" class="st0" d="M42,28h-7.3v0.5l1.5,0.7l0,0l0,0l0.1,0c0.3,0.2,0.5,0.5,0.5,0.9v15.1c-0.1,4.6-1.1,6.9-5.6,8.5
					v0.6c0,0,4.8,0,7-2.7l0,0c1.1-1.3,1.8-3.4,2-6.4V30.2c0,0,0,0,0,0c0-0.4,0.2-0.7,0.5-0.9l0.1,0l0,0l1.5-0.7V28"/>
			</g>
			<path id="Fill-5" class="st0" d="M46.1,44.6c-0.3-6.2-10.8-5.5-10.8-9.8c0-2.2,2.3-3,4.1-3c0.9,0,1.7,0.2,2.5,0.5
				c0.9,0.4,1.7,1,2.3,1.7c0.1,0.1,0.2,0.2,0.2,0.2h0l0,0h0.2h0.3l-1.1-4.2h-0.4c-0.2,0.3-0.8,0.2-0.8,0.2c-1-0.3-2-0.4-3-0.4
				c-4-0.2-7.9,1.5-7.9,5.5c0,6.7,10.8,5.4,10.8,10.3c0,2.2-2.7,3.7-4.5,3.7c-1.3,0-2.6-0.3-3.8-0.7c-1-0.5-2-1.1-2.7-1.9L31,46.5
				l1.2,4.6h0.3c0.1-0.3,0.4-0.4,0.7-0.3l0,0c1.4,0.4,2.9,0.6,4.4,0.6C43.1,51.4,46.2,48,46.1,44.6"/>
			<path id="Fill-6" class="st0" d="M72.9,44.6c-0.3-6.2-10.8-5.5-10.8-9.8c0-2.2,2.3-3,4.1-3c0.9,0,1.7,0.2,2.5,0.5
				c0.9,0.4,1.7,1,2.3,1.7l0.2,0.2h0l0,0h0.2h0.3l-1.1-4.2h-0.4c-0.2,0.3-0.8,0.2-0.8,0.2c-1-0.3-2-0.4-3-0.4
				c-4-0.2-7.9,1.5-7.9,5.5c0,6.7,10.8,5.4,10.8,10.3c0,2.2-2.7,3.7-4.5,3.7c-1.3,0-2.6-0.3-3.8-0.7c-1-0.5-2-1.1-2.7-1.9l-0.5,0.1
				l1.2,4.6h0.3c0.1-0.3,0.4-0.4,0.7-0.3l0,0c1.4,0.4,2.9,0.6,4.4,0.6C69.9,51.4,73,48,72.9,44.6"/>
			<path id="Fill-7" class="st0" d="M132.6,36.7c-1.6-0.1-2.8-1.4-2.7-3c0-1.5,1.1-2.7,2.6-2.8s2.7,1.1,2.8,2.6c0,0,0,0.1,0,0.1
				C135.4,35.3,134.2,36.6,132.6,36.7z M132.6,30.2c-2.1-0.1-3.8,1.5-3.9,3.6c0,0,0,0,0,0c0,2,1.7,3.7,3.8,3.7c0,0,0.1,0,0.1,0h0
				c2,0.1,3.8-1.5,3.9-3.5c0,0,0-0.1,0-0.1C136.5,31.7,134.7,30.1,132.6,30.2C132.6,30.2,132.6,30.2,132.6,30.2z"/>
			<path id="Fill-8" class="st0" d="M118.7,43h-2.2v0.2l0.5,0.3l0,0l0,0c0.1,0.1,0.2,0.2,0.1,0.3l0,0v5c0,0.1,0,0.5,0,0.8
				c0,0.1,0,0.2-0.1,0.3l0,0l0,0l-0.5,0.3v0.2h2.2v-0.2l-0.5-0.3l0,0l0,0c-0.1-0.1-0.2-0.2-0.1-0.3l0,0c0-0.3,0-0.7,0-0.8v-5
				c0-0.1,0-0.2,0.1-0.3l0,0l0,0l0.5-0.3L118.7,43"/>
			<path id="Fill-9" class="st0" d="M146.6,43h-2.2v0.2l0.5,0.3l0,0l0,0c0.1,0.1,0.2,0.2,0.1,0.3v5c0,0.1,0,0.5,0,0.8
				c0,0.1,0,0.2-0.1,0.3l0,0l0,0l-0.5,0.3v0.2h2.2v-0.2l-0.5-0.3l0,0c-0.1-0.1-0.2-0.2-0.1-0.3c0-0.3,0-0.7,0-0.8v-5
				c0-0.1,0-0.2,0.1-0.3l0,0l0.5-0.3L146.6,43"/>
			<path id="Fill-10" class="st0" d="M108.1,43h-0.2l0,0h-2l0,0h-0.2v0.2l0.5,0.2l0,0l0,0c0.1,0.1,0.1,0.2,0.1,0.3v0v3.7
				c0,1.3-0.5,2.1-1.5,2.1v0h-0.2c-1,0-1.6-0.8-1.6-2.1v-3c0-0.4,0-0.6,0-0.8c0-0.1,0.1-0.2,0.1-0.3l0,0l0,0l0.5-0.2V43h-0.1l0,0h-2
				l0,0h-0.2v0.2l0.5,0.2l0,0l0,0c0.1,0.1,0.2,0.2,0.2,0.3l0,0v3.7c-0.1,0.7,0.1,1.5,0.5,2.1c0.2,0.3,0.5,0.5,0.9,0.6l0,0
				c0,0,0.1,0,0.2,0l0.1,0c0.8,0.2,1.6,0.2,2.4-0.1h0c0,0,0,0,0,0l0,0c0.3-0.1,0.6-0.3,0.8-0.5c0.4-0.6,0.6-1.3,0.5-2.1v-3.7l0,0
				c0-0.1,0.1-0.2,0.2-0.3l0,0l0,0l0.5-0.2L108.1,43"/>
			<path id="Fill-11" class="st0" d="M147,35.8l-0.4,0.5l0,0l0,0c-0.1,0.2-0.4,0.3-0.6,0.3h-2.2v-2.6h1c0.1,0,0.2,0.1,0.3,0.2l0,0
				l0,0l0.2,0.5h0.2v-1.9h-0.2l-0.2,0.3c-0.1,0.1-0.2,0.2-0.3,0.2h-1V31h1.9c0.1,0,0.3,0.1,0.3,0.2l0.4,0.5h0.2l-0.4-1.4l0-0.1h-0.1
				c-0.1,0.1-0.3,0.1-0.4,0.1h-3.6v0.2l0.5,0.2l0,0l0,0c0.1,0.1,0.2,0.2,0.1,0.3l0,0c0,0.3,0,0.7,0,0.8v4.1c0,0.1,0,0.5,0,0.8
				c0,0.1,0,0.2-0.1,0.3l0,0l0,0l-0.5,0.3v0.2h4.5l0.6-1.7H147"/>
			<path id="Fill-12" class="st0" d="M178.8,35.8l-0.4,0.5l0,0l0,0c-0.1,0.2-0.4,0.3-0.6,0.3h-2.2v-2.6h1c0.1,0,0.2,0.1,0.3,0.2l0,0
				l0,0l0.2,0.5h0.2v-1.9h-0.2l-0.2,0.3c-0.1,0.1-0.2,0.2-0.3,0.2h-1V31h1.9c0.1,0,0.3,0.1,0.3,0.2l0.4,0.5h0.2l-0.4-1.4l0-0.1H178
				c-0.1,0.1-0.3,0.1-0.4,0.1H174v0.2l0.5,0.2l0,0l0,0c0.1,0.1,0.2,0.2,0.1,0.3l0,0c0,0.3,0,0.7,0,0.8v4.1c0,0.1,0,0.5,0,0.8
				c0,0.1,0,0.2-0.1,0.3l0,0l-0.5,0.3v0.2h4.5l0.6-1.7H178.8"/>
			<path id="Fill-13" class="st0" d="M131.9,48.6l-0.4,0.6l0,0v0c-0.1,0.2-0.4,0.3-0.6,0.3h-2.2v-2.6h1c0.1,0,0.2,0.1,0.3,0.2l0,0
				l0,0l0.2,0.5h0.2v-1.9h-0.2l-0.2,0.3c-0.1,0.1-0.2,0.2-0.3,0.2h-1v-2.3h1.9c0.1,0,0.3,0.1,0.3,0.2l0.4,0.5h0.2l-0.4-1.4l0-0.1
				h-0.1c-0.1,0.1-0.3,0.1-0.4,0.1h-3.5l0,0h-0.1v0.2l0.5,0.2l0,0l0,0c0.1,0.1,0.2,0.2,0.1,0.3l0,0c0,0.3,0,0.7,0,0.8v4.1
				c0,0.1,0,0.5,0,0.8c0,0.1,0,0.2-0.1,0.3l0,0l0,0l-0.5,0.3v0.2h4.5l0.6-1.7L131.9,48.6"/>
			<path id="Fill-14" class="st0" d="M152.9,43L152.9,43c-0.2,0.1-0.4,0.1-0.6,0.1h-3.6c-0.2,0-0.4,0-0.5-0.1h-0.1v0l-0.4,1.5h0.2
				l0.3-0.5c0.1-0.1,0.2-0.2,0.3-0.2l0,0h1.4v5.7l0,0c0,0.1,0,0.2-0.1,0.3l0,0l0,0l-0.5,0.2v0.2h2.4v-0.2l-0.5-0.2l0,0l0,0
				c-0.1-0.1-0.2-0.2-0.1-0.3v-5.7h1.4l0,0c0.1,0,0.3,0.1,0.3,0.2l0.3,0.5h0.2L152.9,43"/>
			<path id="Fill-15" class="st0" d="M161.8,30.2L161.8,30.2c-0.2,0.1-0.4,0.1-0.6,0.1h-3.6c-0.2,0-0.4,0-0.5-0.1h-0.1v0l-0.4,1.5
				h0.2l0.3-0.5c0.1-0.1,0.2-0.2,0.3-0.2h1.4v5.7c0,0.1,0,0.2-0.2,0.3l0,0l0,0l-0.5,0.2v0.2h2.3v-0.2l-0.5-0.2l0,0l0,0
				c-0.1-0.1-0.2-0.2-0.2-0.3l0,0v-5.7h1.4c0.1,0,0.3,0.1,0.3,0.2l0.3,0.5h0.2L161.8,30.2"/>
			<path id="Fill-16" class="st0" d="M173,30.2L173,30.2c-0.2,0.1-0.4,0.1-0.6,0.1h-3.6c-0.2,0-0.4,0-0.5-0.1h-0.1v0l-0.4,1.5h0.2
				l0.3-0.5c0.1-0.1,0.2-0.2,0.3-0.2h1.4v5.7c0,0.1,0,0.2-0.1,0.3l0,0l0,0l-0.5,0.2v0.2h2.4v-0.2l-0.5-0.2l0,0l0,0
				c-0.1-0.1-0.2-0.2-0.1-0.3l0,0v-5.7h1.4c0.1,0,0.3,0.1,0.3,0.2l0.3,0.5h0.2L173,30.2"/>
			<path id="Fill-17" class="st0" d="M126,43L126,43h-1.6l0,0h-0.2v0.2l0.5,0.2l0,0l0,0c0,0,0,0,0,0c0.1,0.1,0.1,0.2,0.1,0.3
				c0,0,0,0,0,0c0,0,0,0,0,0c0,0,0,0,0,0c0,0.1-0.1,0.3-0.2,0.4l-1.6,4.1l-1.7-4.2c0-0.1-0.1-0.2-0.1-0.4c0-0.1,0-0.2,0.1-0.2h0
				c0,0,0,0,0,0c0,0,0,0,0,0l0,0l0,0l0.5-0.2V43h-0.5l0,0h-1.8l0,0h-0.2v0.2l0.5,0.3c0.1,0.1,0.2,0.2,0.3,0.3l2.6,6.5h0.4l2.7-6.5
				l0,0c0.1-0.1,0.2-0.3,0.3-0.3l0.5-0.3V43H126"/>
			<path id="Fill-18" class="st0" d="M159.7,43h-2.1v0.2l0.5,0.3l0,0l0,0c0,0,0,0,0,0l0,0c0.1,0.1,0.1,0.2,0.1,0.3
				c-0.1,0.2-1.5,2.4-1.5,2.4l-1.4-2.4c0-0.1,0-0.2,0.1-0.3l0,0c0,0,0,0,0,0c0,0,0,0,0,0l0,0l0,0l0.5-0.3V43h-2.7v0.2l0.5,0.3
				c0.1,0.1,0.2,0.2,0.3,0.3l0,0c0.1,0.1,0.1,0.2,0.2,0.4l1.7,2.9v1.6c0,0.4,0,0.7,0,0.8c0,0.1-0.1,0.2-0.1,0.3l0,0l0,0l-0.5,0.2
				v0.2h2.4v-0.2l-0.5-0.2l0,0l0,0c-0.1-0.1-0.2-0.2-0.2-0.3l0,0v-2.4l1.7-2.8l0.3-0.6c0.1-0.1,0.2-0.3,0.3-0.3l0.5-0.3V43H159.7"/>
			<path id="Fill-19" class="st0" d="M128.7,30.2h-2.6v0.2l0.5,0.2l0,0l0,0c0.1,0.1,0.2,0.2,0.2,0.3v5.1c0,1.5-0.4,2.3-2,2.9v0.2
				c0.9,0,1.8-0.3,2.5-0.9c0.5-0.6,0.7-1.4,0.7-2.2V31l0,0c0-0.1,0.1-0.3,0.2-0.3l0,0l0,0l0.5-0.2L128.7,30.2"/>
			<path id="Fill-20" class="st0" d="M106.4,35.2c-0.1-2.1-3.6-1.8-3.6-3.3c0-0.7,0.8-1,1.4-1c0.3,0,0.6,0.1,0.8,0.2
				c0.3,0.1,0.6,0.3,0.8,0.6c0,0,0.1,0.1,0.1,0.1h0.2l-0.4-1.4h-0.1c-0.1,0.1-0.3,0.1-0.3,0.1c-0.3-0.1-0.7-0.1-1-0.1
				c-1.3-0.1-2.6,0.5-2.6,1.8c0,2.2,3.6,1.8,3.6,3.4c0,0.7-0.9,1.2-1.5,1.2c-0.4,0-0.9-0.1-1.3-0.2c-0.3-0.2-0.7-0.4-0.9-0.6l-0.2,0
				l0.4,1.5h0.1c0-0.1,0.1-0.1,0.2-0.1l0,0c0.5,0.1,1,0.2,1.5,0.2C105.4,37.5,106.4,36.3,106.4,35.2"/>
			<path id="Fill-21" class="st0" d="M142.1,35.2c-0.1-2.1-3.6-1.8-3.6-3.3c0-0.7,0.8-1,1.4-1c0.3,0,0.6,0.1,0.8,0.2
				c0.3,0.1,0.6,0.3,0.8,0.6c0,0,0.1,0.1,0.1,0.1h0.2l-0.4-1.4h-0.1c-0.1,0.1-0.3,0.1-0.3,0.1c-0.3-0.1-0.7-0.1-1-0.1
				c-1.3-0.1-2.6,0.5-2.6,1.8c0,2.2,3.6,1.8,3.6,3.4c0,0.7-0.9,1.2-1.5,1.2c-0.4,0-0.9-0.1-1.3-0.2c-0.3-0.2-0.7-0.4-0.9-0.6l-0.2,0
				l0.4,1.5h0.1c0-0.1,0.1-0.1,0.2-0.1l0,0c0.5,0.1,1,0.2,1.5,0.2C141.2,37.5,142.2,36.3,142.1,35.2"/>
			<path id="Fill-22" class="st0" d="M156.7,35.2c-0.1-2.1-3.6-1.8-3.6-3.3c0-0.7,0.8-1,1.4-1c0.3,0,0.6,0.1,0.8,0.2
				c0.3,0.1,0.6,0.3,0.8,0.6l0.1,0.1h0.2l-0.4-1.4h-0.1c-0.1,0.1-0.3,0.1-0.3,0.1c-0.3-0.1-0.7-0.1-1-0.1c-1.3-0.1-2.6,0.5-2.6,1.8
				c0,2.2,3.6,1.8,3.6,3.4c0,0.7-0.9,1.2-1.5,1.2c-0.4,0-0.9-0.1-1.3-0.2c-0.3-0.2-0.7-0.4-0.9-0.6l-0.2,0l0.4,1.5h0.1
				c0-0.1,0.1-0.1,0.2-0.1l0,0c0.5,0.1,1,0.2,1.5,0.2C155.7,37.5,156.7,36.3,156.7,35.2"/>
			<path id="Fill-23" class="st0" d="M143.8,48c-0.1-2.1-3.6-1.8-3.6-3.3c0-0.7,0.8-1,1.4-1c0.3,0,0.6,0.1,0.8,0.2
				c0.3,0.1,0.6,0.3,0.8,0.6c0,0,0.1,0.1,0.1,0.1h0.2l-0.4-1.4h-0.1c-0.1,0.1-0.3,0.1-0.3,0.1c-0.3-0.1-0.7-0.1-1-0.1
				c-1.3-0.1-2.6,0.5-2.6,1.8c0,2.2,3.6,1.8,3.6,3.4c0,0.7-0.9,1.2-1.5,1.2c-0.4,0-0.9-0.1-1.3-0.3c-0.3-0.2-0.7-0.4-0.9-0.6l-0.2,0
				l0.4,1.5h0.1c0-0.1,0.1-0.1,0.2-0.1c0.5,0.1,1,0.2,1.5,0.2C142.8,50.3,143.9,49.2,143.8,48"/>
			<path id="Fill-24" class="st0" d="M109.1,34.1l1.1-2.9l1.1,2.9H109.1z M113.7,37c-0.1-0.1-0.3-0.2-0.3-0.3
				c-0.1-0.3-0.2-0.5-0.3-0.8l-2-5.1c-0.2-0.6-0.7-0.6-0.7-0.6h-1.5v0.2l0.4,0.2c0.1,0,0.2,0.1,0.2,0.2c0,0,0,0.1,0,0.1
				c-0.3,0.7-1.9,5-1.9,5c-0.1,0.3-0.2,0.5-0.3,0.8l0,0l0,0c0,0,0,0,0,0c-0.1,0.1-0.2,0.2-0.3,0.3l-0.5,0.3v0.2h2.4v-0.2l-0.5-0.2
				l0,0l0,0c0,0,0,0,0,0c-0.1-0.1-0.1-0.1-0.1-0.2l0,0c0,0,0,0,0-0.1c0,0,0-0.1,0-0.1c0-0.1,0.6-1.7,0.6-1.7h2.7l0.6,1.7l0,0.1
				c0,0.1,0,0.2-0.1,0.3l0,0c0,0,0,0,0,0c0,0,0,0,0,0l0,0l0,0l-0.5,0.2v0.2h2.7v-0.2L113.7,37z"/>
			<path id="Fill-25" class="st0" d="M163.8,34.1l1.1-2.9l1.1,2.9H163.8z M168.4,37c-0.1-0.1-0.2-0.2-0.3-0.3
				c-0.1-0.3-0.2-0.5-0.3-0.8l-2-5.1c-0.2-0.6-0.7-0.6-0.7-0.6h-1.5v0.2l0.4,0.2c0.1,0,0.2,0.1,0.2,0.2c0,0,0,0.1,0,0.1
				c-0.3,0.7-1.9,5-1.9,5c-0.1,0.3-0.2,0.5-0.3,0.8l0,0c0,0,0,0,0,0c0,0,0,0,0,0c-0.1,0.1-0.2,0.2-0.3,0.3l-0.5,0.3v0.2h2.4v-0.2
				L163,37l0,0l0,0c0,0,0,0,0,0c-0.1-0.1-0.1-0.1-0.1-0.2l0,0c0,0,0,0,0-0.1c0,0,0-0.1,0-0.1c0-0.1,0.6-1.7,0.6-1.7h2.7l0.6,1.7
				l0,0.1c0,0.1,0,0.2-0.1,0.3l0,0c0,0,0,0,0,0c0,0,0,0,0,0l0,0l0,0l-0.5,0.2v0.2h2.7v-0.2L168.4,37z"/>
			<path id="Fill-26" class="st0" d="M134.3,43.7h0.9l0,0c0.6,0,1.2,0.5,1.2,1.1c0,0.1,0,0.1,0,0.2c0,1.2-0.6,1.5-1.3,1.5h-0.8V43.7
				z M138.3,49.9c-0.1-0.1-0.3-0.2-0.4-0.3c-0.1-0.1-0.2-0.2-0.2-0.2c-0.2-0.2-1.2-2-1.2-2c-0.1-0.2-0.3-0.4-0.5-0.4
				c1.1-0.2,1.7-1.3,1.5-2.4c-0.2-1-1.2-1.6-2.2-1.5h-1.9l0,0h-0.8v0.2l0.5,0.2l0,0c0.1,0.1,0.2,0.2,0.1,0.3l0,0c0,0.3,0,0.7,0,0.8
				v4.1c0,0.1,0,0.5,0,0.8c0,0.1,0,0.2-0.1,0.3l0,0l0,0l-0.5,0.2v0.2h2.3v-0.2l-0.5-0.2l0,0l0,0c-0.1-0.1-0.2-0.2-0.1-0.3l0,0
				c0-0.3,0-0.6,0-0.8v-1.6h0.3h0c0,0,0,0,0,0h0.2c0.3,0,0.5,0.2,0.6,0.4l0.1,0.2l0,0l1,1.7c0.4,0.7,1.2,1,2,0.9l0.1,0
				c0.1,0,0.1,0,0.2,0v-0.2L138.3,49.9z"/>
			<path id="Fill-27" class="st0" d="M121.5,30.2h-0.1v0h-2.1v0h-0.1v0.2l0.5,0.2l0,0l0,0c0.1,0.1,0.2,0.2,0.2,0.3v4.6l-3.7-5
				c-0.2-0.2-0.4-0.3-0.6-0.3h-1.2v0h-0.1v0.2l0.5,0.2l0,0l0,0c0.1,0.1,0.2,0.2,0.2,0.3v5.6c0,0.1-0.1,0.2-0.2,0.3l0,0l0,0l-0.5,0.2
				v0.2h0.8l0,0h0.6l0,0h0.8v-0.2l-0.5-0.2l0,0c-0.1-0.1-0.2-0.2-0.2-0.3v-4.8l3.4,4.6c0.4,0.5,0.9,0.9,1.5,1.1c0.2,0,0.4,0,0.6,0
				v-0.1c0,0-0.1,0-0.1,0c-0.3-0.2-0.5-0.5-0.5-0.9v-5.4c0-0.1,0.1-0.2,0.2-0.3l0,0l0,0l0.5-0.2L121.5,30.2"/>
			<path id="Fill-28" class="st0" d="M115.9,43.1h-0.1v0h-2.1v0h-0.1v0.2l0.5,0.2l0,0l0,0c0.1,0.1,0.2,0.2,0.2,0.3v4.6l-3.7-5
				c-0.2-0.2-0.4-0.3-0.6-0.3h-1.2v0h-0.1v0.2l0.5,0.2l0,0l0,0c0.1,0.1,0.2,0.2,0.2,0.3v5.6c0,0.1-0.1,0.2-0.2,0.3l0,0l0,0l-0.5,0.2
				v0.2h0.8l0,0h0.6l0,0h0.8v-0.2l-0.5-0.2l0,0l0,0c-0.1-0.1-0.2-0.2-0.2-0.3v-4.8l3.4,4.6c0.4,0.5,0.9,0.9,1.5,1.1
				c0.2,0,0.4,0,0.6,0v-0.1c0,0-0.1,0-0.1,0c-0.3-0.2-0.5-0.5-0.5-0.9v-5.4c0-0.1,0.1-0.2,0.2-0.3l0,0l0,0l0.5-0.2L115.9,43.1"/>
			<path id="Fill-29" class="st0" d="M145.8,28h-0.6l-1.9,1.5l0.1,0.2l2.7-1L145.8,28"/>
		</g>
	</g>
</g>
</svg>
