<?xml version="1.0" encoding="utf-8"?>
<!-- Generator: Adobe Illustrator 25.3.1, SVG Export Plug-In . SVG Version: 6.00 Build 0)  -->
<svg version="1.1" id="Layer_1" xmlns="http://www.w3.org/2000/svg" xmlns:xlink="http://www.w3.org/1999/xlink" x="0px" y="0px"
	 viewBox="0 0 210 84" style="enable-background:new 0 0 210 84;" xml:space="preserve">
<style type="text/css">
	.st0{fill:#fff;}
</style>
<g id="Group" transform="translate(0 -2.8)">
	<g id="sri-full" transform="translate(0 2.8)">
		<g id="sri">
			<path id="Shape" class="st0" d="M43.3,39.7c-0.2-1.4-1.5-1.6-2.7-1.6c-1.2,0-1.9,0.5-1.9,1.2c0,0.6,0.5,0.9,1.2,1.1l3.6,0.6
				c1.9,0.4,3.4,1.1,3.4,3.1c0,2.1-1.3,3.7-5.5,3.7c-2.5,0-5.9-0.4-5.9-3.8h3.2c0.1,1.5,1.5,1.8,2.7,1.8c1.4,0,2.3-0.4,2.3-1.4
				c0-0.9-0.7-1.1-1.8-1.3l-2.6-0.4c-1.8-0.3-3.6-0.9-3.6-3.1c0-2.5,1.9-3.5,5.2-3.5c2.2,0,5.4,0.4,5.6,3.6H43.3z"/>
			<path id="Path_1049" class="st0" d="M47.8,36.4h7.6c2.9,0,3.4,1.9,3.4,3c0.1,1.2-0.6,2.3-1.7,2.7v0.1c1.2,0.2,1.4,1.9,1.4,3
				c0,0.8,0.1,1.7,0.5,2.4H56c-0.2-0.7-0.3-1.4-0.2-2.1c0-1.5-0.7-2-1.5-2h-3.6v4.1h-2.8V36.4z M50.7,41.3h3.8
				c0.7,0,1.3-0.5,1.4-1.3c0,0,0-0.1,0-0.1c0-1.1-0.8-1.4-1.5-1.4h-3.6L50.7,41.3L50.7,41.3z"/>
			<path id="Path_1050" class="st0" d="M60.2,36.4h2.8v11.1h-2.8V36.4z"/>
		</g>
		<g id="international" transform="translate(33.573 0.137)">
			<path id="Path_1051" class="st0" d="M35.5,36.2h2.8v11.1h-2.8V36.2z"/>
			<path id="Path_1052" class="st0" d="M46.3,42.7c0-1.2-0.5-1.7-1.7-1.7s-2.2,0.7-2.2,2.4v4h-2.6v-8.4h2.5v1.2h0.1
				c0.8-1,2-1.5,3.2-1.4c1.4,0,3.4,0.5,3.4,3v5.6h-2.6C46.3,47.4,46.3,42.7,46.3,42.7z"/>
			<path id="Path_1053" class="st0" d="M51.1,36.4h2.5V39h2.1v1.8h-2.1v3.9c0,0.7,0.2,0.9,0.9,0.9c0.4,0,0.9-0.1,1.2-0.1v1.8
				c-0.5,0.1-1.5,0.2-2,0.2c-2.5,0-2.7-0.9-2.7-2.5v-4.3h-1.7V39h1.7V36.4z"/>
			<path id="Path_1054" class="st0" d="M66.3,45c-0.7,2-2.5,2.8-4.9,2.8c-3.1,0-5.2-1.4-5.2-4.5c0-3.1,2.1-4.5,5.2-4.5
				c3.4,0,5,1.8,5,5V44h-7.6V44c0.1,1.2,1.2,2.1,2.5,2c0.9,0.1,1.7-0.3,2.1-1.1L66.3,45z M63.8,42.3L63.8,42.3
				c-0.2-1.2-1.2-2-2.4-1.9c-1.2-0.1-2.2,0.7-2.5,1.8v0.1L63.8,42.3z"/>
			<path id="Path_1055" class="st0" d="M67.4,39h2.5v1.7h0.1c0.9-1.3,1.7-1.8,3.1-1.8c0.3,0,0.6,0,0.9,0.1v2.5
				c-0.5-0.1-0.9-0.2-1.4-0.2c-1.3-0.2-2.4,0.7-2.6,2c0,0.2,0,0.4,0,0.6v3.6h-2.6V39L67.4,39z"/>
			<path id="Path_1056" class="st0" d="M81.4,42.7c0-1.2-0.5-1.7-1.7-1.7s-2.2,0.7-2.2,2.4v4h-2.6v-8.4h2.5v1.2h0.1
				c0.8-1,2-1.5,3.2-1.4c1.4,0,3.4,0.5,3.4,3v5.6h-2.6C81.4,47.4,81.4,42.7,81.4,42.7z"/>
			<path id="Path_1057" class="st0" d="M85.5,41.6c0.3-2.5,2.5-2.8,4.6-2.8c3.7,0,4.5,1.3,4.5,2.8v4.1c0,0.6,0.1,1.1,0.3,1.7h-2.6
				c-0.1-0.3-0.1-0.6-0.2-0.9c-1,0.9-2.3,1.3-3.7,1.2c-2,0-3.5-0.8-3.5-2.7c0-2,1.7-2.5,3.3-2.5l2.7-0.2c0.8-0.1,1.1-0.2,1.1-0.9
				s-0.5-1-2-1c-1.1,0-1.7,0.1-2,1.2L85.5,41.6L85.5,41.6z M92.1,43.4c-0.5,0.2-1,0.3-1.5,0.4L89,43.8c-0.9,0.1-1.4,0.4-1.4,1.1
				s0.7,1.2,1.7,1.2c1.3,0,2.8-0.7,2.8-2.1L92.1,43.4L92.1,43.4z"/>
			<path id="Path_1058" class="st0" d="M96.8,36.4h2.6V39h2.1v1.8h-2.1v3.9c0,0.7,0.2,0.9,0.9,0.9c0.4,0,0.9-0.1,1.2-0.1v1.8
				c-0.5,0.1-1.5,0.2-2,0.2c-2.5,0-2.7-0.9-2.7-2.5v-4.3h-1.7V39h1.7L96.8,36.4z"/>
			<path id="Path_1059" class="st0" d="M102.5,36.1h2.6v2h-2.6V36.1z M102.5,39h2.6v8.4h-2.6V39z"/>
			<path id="Path_1060" class="st0" d="M111.2,38.7c3.1,0,5.2,1.4,5.2,4.5s-2.1,4.5-5.2,4.5s-5.2-1.4-5.2-4.5
				C106,40.1,108.1,38.7,111.2,38.7z M111.2,45.8c1.2,0.1,2.4-0.8,2.5-2c0-0.2,0-0.4,0-0.5c0.2-1.2-0.7-2.4-2-2.5
				c-0.2,0-0.4,0-0.5,0c-1.2-0.1-2.4,0.8-2.5,2c0,0.2,0,0.4,0,0.5c-0.2,1.2,0.7,2.4,2,2.5C110.8,45.8,111,45.8,111.2,45.8
				L111.2,45.8z"/>
			<path id="Path_1061" class="st0" d="M123.7,42.7c0-1.2-0.5-1.7-1.7-1.7s-2.2,0.7-2.2,2.4v4h-2.6v-8.4h2.5v1.2h0.1
				c0.8-1,2-1.5,3.2-1.4c1.4,0,3.4,0.5,3.4,3v5.6h-2.6L123.7,42.7L123.7,42.7z"/>
			<path id="Path_1062" class="st0" d="M127.7,41.6c0.3-2.5,2.5-2.8,4.6-2.8c3.7,0,4.5,1.3,4.5,2.8v4.1c0,0.6,0.1,1.1,0.3,1.7h-2.6
				c-0.1-0.3-0.1-0.6-0.2-0.9c-1,0.9-2.3,1.3-3.7,1.2c-2,0-3.5-0.8-3.5-2.7c0-2,1.7-2.5,3.3-2.5l2.7-0.2c0.8-0.1,1.1-0.2,1.1-0.9
				s-0.5-1-2-1c-1.1,0-1.7,0.1-2,1.2L127.7,41.6L127.7,41.6z M134.3,43.4c-0.5,0.2-1,0.3-1.5,0.4l-1.5,0.1c-0.9,0.1-1.4,0.4-1.4,1.1
				s0.7,1.2,1.7,1.2c1.3,0,2.8-0.7,2.8-2.1L134.3,43.4L134.3,43.4z"/>
			<path id="Path_1063" class="st0" d="M138.3,36.1h2.6v11.3h-2.6V36.1z"/>
		</g>
	</g>
</g>
</svg>
