<?xml version="1.0" encoding="utf-8"?>
<!-- Generator: Adobe Illustrator 25.3.1, SVG Export Plug-In . SVG Version: 6.00 Build 0)  -->
<svg version="1.1" id="Layer_1" xmlns="http://www.w3.org/2000/svg" xmlns:xlink="http://www.w3.org/1999/xlink" x="0px" y="0px"
	 viewBox="0 0 210 84" style="enable-background:new 0 0 210 84;" xml:space="preserve">
<style type="text/css">
	.st0{fill:#fff;}
</style>
<g id="Stanford_Logo_White" transform="translate(-2.3 -2.8)">
	<path id="Path_1047" class="st0" d="M81.8,43.4c-3.9,0-4.2-2.9-4.2-3.8c-0.1-1.8,1.1-3.3,2.8-3.9c2.6-0.9,3.1-1,4.8-1.6v-0.5
		c0-0.5,0-1.1-0.2-1.6c-0.4-1.1-1.5-1.7-2.6-1.6c-1.2,0-2.3,0.7-2.9,1.8l-0.7-0.4c0.4-1.6,2.1-3.2,4.9-3.2c2,0,3.3,0.5,4.1,1.8
		c0.5,1.1,0.8,2.4,0.7,3.7c0,1.2-0.1,2.6-0.1,3.7c0,0.7-0.1,1.4-0.1,1.8c0,1,0.2,1.8,1,1.8c0.4,0,0.4-0.1,0.7-0.3l0.5,0.5
		c-0.6,1.1-1.8,1.7-3,1.8c-1,0.1-1.9-0.5-2.1-1.5C84.5,42.8,83.2,43.4,81.8,43.4z M85.2,35.9c-1.1,0.3-2.1,0.7-3.1,1.2
		c-0.8,0.4-1.3,1.3-1.2,2.2c-0.1,1.1,0.7,2,1.7,2.1c0.1,0,0.3,0,0.4,0c0.8,0,1.6-0.2,2.3-0.7L85.2,35.9z M53.3,42.6
		c0-1.4,0-2.6-0.1-4.1H54c-0.1,0.7,0.2,1.5,0.7,2c0.9,0.8,2.1,1.2,3.3,1.1c2.7,0,4-1,4-3.2c0-1.9-1.2-2.7-2.8-3.7l-0.2-0.2l-1.7-1.2
		c-2.4-1.6-3.5-2.8-3.5-5.3c0-1.2,0.5-5.3,6.4-5.3c1.6,0,3.1,0.1,4.6,0.4V25c0,0.9,0,1.2,0.1,2.3h-0.7c0-0.7-0.2-1.5-0.7-2
		c-0.9-0.6-2.1-0.9-3.2-0.9c-3.2,0-3.5,1.7-3.5,2.8c0,1.7,0.9,2.3,2.8,3.5l2.1,1.4c1.8,1.2,3.5,2.4,3.5,5.4c0,5.1-4.8,5.7-6.8,5.7
		C56.6,43.3,54.9,43.1,53.3,42.6z M91.8,29.5c1,0.1,1.9,0,2.9-0.2c0.7-0.1,1.3-0.3,1.9-0.6l0.3,0.2v1.2c1.2-0.9,2.7-1.4,4.2-1.3
		c2.6,0,4.2,1.2,4.7,3.4c0.1,0.8,0.2,1.7,0.2,2.6v4.2c0,2.3,0.1,3,0.6,3.4c0.4,0.3,0.9,0.4,1.4,0.4v0.7c-0.9-0.1-2.6-0.1-3.5-0.1
		c-1.3,0-2.8,0.1-3.5,0.1v-0.7c0.5,0,1-0.2,1.4-0.5c0.4-0.4,0.5-1.2,0.5-3c0-0.5,0.1-1.7,0.1-2.4c0-1.1,0-2.2-0.1-3.2
		c0-1.5-1.1-2.7-2.6-2.7c-0.1,0-0.3,0-0.4,0c-0.9,0-1.9,0.2-2.7,0.6v7.5c0,2.3,0.1,3,0.6,3.4c0.4,0.3,0.9,0.4,1.3,0.4v0.7
		c-1.2-0.1-2.6-0.1-3.5-0.1c-1.9,0-2.5,0.1-3.6,0.1v-0.7c0.6,0,1.1-0.2,1.5-0.6c0.4-0.5,0.5-1.7,0.5-4.1v-4.3c0-1.8-0.1-2.5-0.3-2.9
		c-0.2-0.3-0.7-0.6-1.7-0.6L91.8,29.5L91.8,29.5z M109.4,42.6c0.6,0,1.1-0.2,1.5-0.6c0.4-0.5,0.5-1.7,0.5-4.1v-7.1h-1.8V30
		c0.7-0.2,1.3-0.6,1.8-1c0-1.3,0.1-2.5,0.2-3.8c0.6-2.9,2.5-4.4,5.7-4.4c1.3,0,2.6,0.4,3.6,1.2l0.1,0.3l-1.4,2h-0.4
		c-0.3-1.1-1.4-1.9-2.5-1.8c-0.5,0-1,0.2-1.4,0.5c-0.6,0.6-0.7,1.5-0.7,3.4V29h3.2v1.8h-3.2v7.9c0,1.9,0.1,2.8,0.3,3.2
		c0.4,0.6,1.7,0.7,2.3,0.6v0.7c-1-0.1-2.7-0.1-3.9-0.1c-1.8,0-2.9,0.1-3.9,0.1L109.4,42.6L109.4,42.6z M125.8,43.5
		c-4.3,0-6.9-2.7-6.9-7.2c0-3.5,1.9-7.6,7.2-7.6c4.3,0,6.9,2.7,6.9,7.2C133,39.4,131.1,43.5,125.8,43.5z M126,30.3
		c-0.7,0-1.5,0.2-2,0.7c-1.2,1-1.7,2.7-1.7,5.2c0,1,0.2,5.7,3.7,5.7c0.7,0.1,1.4-0.2,2-0.6c1.2-1,1.7-2.7,1.7-5.2
		C129.7,35,129.5,30.3,126,30.3L126,30.3z M134.4,29.5c1,0,2.1,0,3.1-0.2c0.6-0.1,1.2-0.2,1.7-0.5l0.2,0.1v1.2
		c0.9-0.8,2.1-1.3,3.3-1.3c0.9,0,1.8,0.3,2.5,0.9V30l-1.2,2.2h-0.7c-0.5-0.9-1.4-1.4-2.4-1.3c-0.6,0-1.1,0.1-1.6,0.4v7.3
		c0,1.9,0.1,2.8,0.3,3.1c0.4,0.6,1.6,0.7,2.3,0.6v0.8c-1-0.1-2.7-0.1-3.9-0.1c-1.3,0-2.6,0-3.9,0.1v-0.7c0.6,0,1.1-0.2,1.5-0.6
		c0.4-0.5,0.5-1.7,0.5-4.1v-4c0-1.8,0-2.5-0.3-2.9c-0.2-0.3-0.7-0.5-1.7-0.6L134.4,29.5L134.4,29.5z M154.5,21.7
		c1.1-0.1,2.3-0.2,3.4-0.4c0.5-0.1,1-0.2,1.5-0.4l0.2,0.1c-0.1,1.2-0.1,3.8-0.1,5.7v11.6c-0.1,1,0,2.1,0.2,3.1
		c0.4,0.4,1,0.6,1.7,0.5v0.7c-1,0-2,0.1-3.1,0.3c-0.5,0.1-1.1,0.2-1.6,0.4l-0.4-0.1V42c-1.1,0.9-2.5,1.4-4,1.3
		c-3.9,0-6.4-2.7-6.4-6.9c0-1.3,0.2-2.6,0.7-3.9c1.2-2.6,3.9-4.2,6.8-4c0.9,0,1.9,0.1,2.8,0.3v-3c0-1.8,0-2.7-0.3-3.1
		c-0.2-0.3-0.5-0.4-1.6-0.5L154.5,21.7L154.5,21.7z M154,41.4c0.8,0.1,1.6-0.1,2.3-0.5v-9.5c-0.8-0.7-1.8-1-2.8-1
		c-2.8,0-4.1,1.9-4.1,5.8C149.4,37.8,149.9,41.4,154,41.4z M76.2,41.8c-1,1.1-2.4,1.7-3.9,1.7c-2.2,0-3.4-0.8-4-2.6
		C68.1,40,68.1,39,68.1,38c0-2.3,0-4.1,0.1-6.2v-1h-1.9v-0.6c0.6-0.2,1.2-0.6,1.8-1c1.1-0.9,2-2.1,2.6-3.4h0.6v3.2h5v1.8h-4.8v7.5
		c0,2.3,0.4,3.5,2.5,3.5c0.7,0,1.4-0.2,2-0.5L76.2,41.8z"/>
	<path id="Path_1048" class="st0" d="M144,55.2c-0.3,0-0.5,0.1-0.7,0.2c-0.1,0.1-0.2,0.3-0.2,0.4c0,0.3,0.1,0.6,0.2,0.9l1.3,3.5
		c0.2,0.5,0.4,1,0.4,1.3l1.7-4.8c0.1-0.3,0.2-0.6,0.2-0.9c0-0.1-0.1-0.3-0.2-0.4c-0.2-0.2-0.5-0.2-0.7-0.2v-0.5c0.3,0,0.5,0,0.8,0.1
		c0.2,0,0.6,0.1,0.9,0.1c0.6,0,1.2,0,1.8-0.1v0.4c-0.2,0-0.8-0.1-1.3,1.3l-3.5,9.3c-0.5,1.3-1.2,3-3.6,3c-0.8,0.1-1.6-0.2-2.2-0.7
		v-0.3l0.9-1h0.2c0.3,0.5,0.8,0.9,1.4,0.8c1.1,0,1.6-1,2.3-2.9l0.2-0.6l-2.9-7.6c0-0.1-0.1-0.2-0.1-0.3c-0.1-0.2-0.2-0.5-0.2-0.5
		c-0.2-0.3-0.5-0.5-0.9-0.5v-0.5c0.6,0.1,1.5,0.1,2,0.1c0.4,0,0.9,0,1.3-0.1c0.3,0,0.6,0,0.9-0.1L144,55.2L144,55.2z M111.6,55
		c0.7,0,1.3,0,2-0.2c0.4-0.1,0.7-0.2,1.1-0.3l0.2,0.1v0.8c0.5-0.6,1.3-0.9,2.1-0.9c0.6,0,1.2,0.2,1.6,0.5v0.3l-0.7,1.4h-0.4
		c-0.3-0.5-0.9-0.9-1.5-0.8c-0.3,0-0.7,0.1-1,0.3v4.6c-0.1,0.7,0,1.4,0.2,2c0.2,0.4,1,0.4,1.4,0.4v0.4c-0.6-0.1-1.7-0.1-2.4-0.1
		c-0.8,0-1.6,0-2.4,0.1v-0.5c0.4,0,0.7-0.1,1-0.4c0.3-0.3,0.3-1,0.3-2.6v-2.6c0-1.1,0-1.6-0.2-1.8c-0.1-0.2-0.5-0.3-1-0.3L111.6,55z
		 M70.9,63.9c-2.6,0-4-0.8-4.6-2.5c-0.3-0.9-0.4-1.9-0.3-2.8v-4.9c0-1.5-0.1-1.7-0.4-2c-0.3-0.2-0.5-0.3-0.9-0.3v-0.5
		c0.6,0.1,1.6,0.1,2.3,0.1c0.8,0,1.6,0,2.3-0.1v0.5c-0.4,0-0.7,0.1-1,0.4C68,52.1,68,52.7,68,54.2v4.3c0,2.6,0.2,4.2,3.1,4.2
		c2.9,0,3.1-1.7,3.1-4.3v-4.8c0-1.5-0.1-1.7-0.4-2c-0.3-0.2-0.6-0.3-0.9-0.3v-0.5c0.6,0,1.3,0.1,2,0.1c0.7,0,1.4,0,2.1-0.1v0.5
		c-0.4,0-0.7,0.1-1,0.4c-0.3,0.3-0.3,0.9-0.3,2.4v3.7c0.1,1.2-0.1,2.4-0.4,3.5C75,63.1,73.4,63.9,70.9,63.9z M88.3,63.4
		c0.4,0,0.7-0.1,1-0.4c0.3-0.4,0.3-1.1,0.3-2.7v-2.6c0-1.1,0-1.7-0.2-1.9c-0.1-0.2-0.4-0.3-1-0.4V55c0.7,0,1.4,0,2.1-0.2
		c0.3,0,0.7-0.2,1-0.3l0.2,0.2c-0.1,0.6-0.1,1.9-0.1,3.6v2.6c-0.1,0.7,0,1.3,0.2,2c0.3,0.3,0.7,0.5,1.1,0.4v0.4
		c-0.6-0.1-1.5-0.1-2.3-0.1c-0.8,0-1.6,0-2.4,0.1C88.3,63.8,88.3,63.4,88.3,63.4z M90.6,52.9C90,53,89.5,52.6,89.5,52
		c0-0.1,0-0.1,0-0.2c0-0.6,0.5-1.2,1.1-1.2c0,0,0.1,0,0.1,0c0.6-0.1,1.1,0.4,1.2,1c0,0,0,0.1,0,0.1C91.9,52.4,91.3,52.9,90.6,52.9
		L90.6,52.9z M127,63.4c0.4,0,0.7-0.1,1-0.4c0.3-0.3,0.3-1,0.3-2.6v-2.6c0-1.1,0-1.7-0.2-1.9c-0.1-0.2-0.4-0.3-1-0.4V55
		c0.7,0,1.4,0,2.1-0.2c0.3-0.1,0.7-0.2,1-0.3l0.2,0.2c-0.1,0.6-0.1,1.9-0.1,3.6V61c-0.1,0.7,0,1.3,0.2,2c0.3,0.3,0.7,0.5,1.1,0.4
		v0.4c-0.6-0.1-1.5-0.1-2.3-0.1c-0.8,0-1.6,0-2.4,0.1L127,63.4L127,63.4z M129.2,52.9c-0.6,0.1-1.1-0.3-1.2-0.9c0-0.1,0-0.1,0-0.2
		c0-0.6,0.5-1.2,1.1-1.2c0,0,0.1,0,0.1,0c0.6-0.1,1.1,0.3,1.2,0.9c0,0.1,0,0.1,0,0.2c0,0.6-0.5,1.2-1.1,1.2
		C129.3,52.9,129.3,52.9,129.2,52.9L129.2,52.9z M119.6,63.4c0-0.8,0-1.6-0.1-2.4h0.6c0,0.4,0.1,0.8,0.4,1.2c0.4,0.5,1,0.7,1.6,0.6
		h0.1c1,0,1.5-0.4,1.5-1.3c0-0.7-0.4-1-1.2-1.4l-1.3-0.8c-0.9-0.4-1.5-1.3-1.5-2.3c-0.1-0.9,0.4-1.8,1.3-2.3
		c0.6-0.2,1.2-0.3,1.8-0.3c0.8,0,1.6,0.1,2.4,0.2c0,0.4-0.1,0.7-0.1,1.1c0,0.4,0,0.8,0.1,1.2h-0.6c0-0.4-0.1-0.7-0.4-1
		c-0.4-0.4-0.9-0.5-1.4-0.5c-0.9,0-1.4,0.4-1.4,1.2c0,0.6,0.5,0.9,0.9,1.2h0.1l1.2,0.7c1,0.4,1.8,1.4,1.8,2.5c0,2.4-2.2,2.8-3.5,2.8
		C121.2,63.8,120.4,63.7,119.6,63.4z M138.8,62.9c-0.6,0.7-1.5,1.1-2.4,1c-1.4,0-2.2-0.5-2.5-1.7c-0.1-0.6-0.1-1.2-0.1-1.8
		c0-1.5,0-2.6,0.1-4v-0.6h-1.2v-0.4c0.4-0.2,0.8-0.4,1.2-0.6c0.7-0.6,1.3-1.4,1.7-2.2h0.4v2h3.1v1.1h-3.1v4.8c0,1.4,0.2,2.3,1.6,2.3
		c0.5,0,0.9-0.1,1.3-0.4L138.8,62.9z M97.4,54.7c-0.3,0-0.6,0-0.9,0.1c-0.5,0-1,0.1-1.3,0.1c-0.7,0-1.3,0-2-0.1v0.5
		c0.4,0,0.8,0.2,0.9,0.5c0.1,0.2,0.2,0.4,0.2,0.5c0.1,0.1,0.1,0.2,0.1,0.3l2.9,7.3l0.9-0.1l3.2-7.2c0-0.1,0.1-0.1,0.1-0.2
		c0.1-0.2,0.2-0.4,0.3-0.5c0.2-0.3,0.5-0.5,0.9-0.5v-0.5c-0.4,0-1.2,0.1-1.8,0.1c-0.3,0-0.6,0-0.9-0.1c-0.2,0-0.6-0.1-0.9-0.1v0.4
		c0.3,0,0.5,0.1,0.7,0.2c0.1,0.1,0.2,0.2,0.2,0.4c0,0.3-0.1,0.6-0.2,0.9L98.3,61c-0.1-0.4-0.2-0.7-0.4-1.1l-1.2-3.2
		c-0.1-0.3-0.2-0.6-0.2-0.9c0-0.1,0-0.2,0.1-0.3c0.2-0.2,0.5-0.3,0.8-0.3L97.4,54.7z M77.5,55c0.6,0,1.2,0,1.8-0.1
		c0.4-0.1,0.8-0.2,1.2-0.4l0.2,0.1v0.7c0.8-0.5,1.7-0.8,2.6-0.9c1.4-0.2,2.7,0.7,3,2.1c0.1,0.5,0.1,1.1,0.1,1.7v2.6
		c0,1.5,0.1,1.9,0.3,2.2c0.3,0.2,0.6,0.3,0.9,0.2v0.4c-0.6-0.1-1.7-0.1-2.3-0.1c-0.8,0-1.5,0-2.3,0.1v-0.4c0.3,0,0.7-0.2,0.9-0.4
		c0.2-0.2,0.3-0.8,0.4-1.9v-1.6c0-0.7,0-1.4-0.1-2.1c0-0.9-0.7-1.8-1.7-1.8c-0.1,0-0.2,0-0.3,0c-0.6,0-1.2,0.1-1.7,0.4v4.8
		c0,1.5,0.1,1.9,0.4,2.2c0.3,0.2,0.6,0.3,0.9,0.2v0.4c-0.7-0.1-1.7-0.1-2.3-0.1c-0.8,0-1.5,0-2.3,0.1v-0.4c0.4,0,0.7-0.1,1-0.4
		c0.3-0.3,0.3-1.1,0.3-2.6v-2.6c0-1.1,0-1.6-0.2-1.8c-0.1-0.2-0.4-0.3-1-0.3L77.5,55z M107.2,63.8c-2.8,0-4.2-1.6-4.2-4.5
		c0-0.5,0.1-5,4.3-5c1.1-0.1,2.2,0.4,2.8,1.3c0.4,0.7,0.7,1.6,0.6,2.4v0.5H105c0,0.4,0,0.8,0.1,1.2c0.1,1.5,1.4,2.7,2.9,2.6
		c0,0,0.1,0,0.1,0c0.8,0,1.5-0.1,2.1-0.5l0.2,0.4C109.7,63.4,108.5,63.9,107.2,63.8L107.2,63.8z M105,57.8h3.5
		c0-1.1-0.2-2.3-1.8-2.3C105.3,55.5,105,56.9,105,57.8L105,57.8z"/>
</g>
</svg>
