<?xml version="1.0" encoding="utf-8"?>
<!-- Generator: Adobe Illustrator 28.0.0, SVG Export Plug-In . SVG Version: 6.00 Build 0)  -->
<svg version="1.1" id="Layer_1" xmlns="http://www.w3.org/2000/svg" xmlns:xlink="http://www.w3.org/1999/xlink" x="0px" y="0px"
	 viewBox="0 0 255 180" style="enable-background:new 0 0 255 180;" xml:space="preserve" fill="#fff">
<path d="M40,103.7l1.6-2.6c1.5,1.5,3.7,2.3,5.8,2.4c2.3,0,3.4-0.9,3.4-2.3c0-3.4-10.3-1-10.3-7.6c0-2.8,2.4-5.2,6.7-5.2
	c2.4-0.1,4.8,0.8,6.7,2.4l-1.5,2.6c-1-1.1-2.9-2-5-2c-1.9,0-3.1,0.9-3.1,2.1c0,3,10.3,0.8,10.3,7.6c0,3-2.5,5.3-7.2,5.3
	C44.4,106.5,41.8,105.5,40,103.7L40,103.7z"/>
<path d="M69.8,106v-2.3c-1.5,1.8-3.8,2.6-6,2.6c-3.7,0-5.5-2-5.5-5.4V88.9H62v10.7c0,2.6,1.4,3.5,3.5,3.5c1.8,0,3.3-0.9,4.4-2.3v-12
	h3.7V106L69.8,106L69.8,106z"/>
<path d="M78.4,106V88.9h3.7v2.5c1.3-1.6,3.4-2.9,5.5-2.9v3.7C87.2,92,86.8,92,86.5,92c-1.6,0-3.7,1-4.4,2.3v11.6L78.4,106L78.4,106z
	"/>
<path d="M109.1,103.7l1.6-2.6c1.5,1.5,3.7,2.3,5.8,2.4c2.3,0,3.4-0.9,3.4-2.3c0-3.4-10.3-1-10.3-7.6c0-2.8,2.4-5.2,6.7-5.2
	c2.4-0.1,4.8,0.8,6.7,2.4l-1.5,2.6c-1-1.1-2.9-2-5-2c-2,0-3.1,0.9-3.1,2.1c0,3,10.3,0.8,10.3,7.6c0,3-2.5,5.3-7.2,5.3
	C113.5,106.5,110.9,105.5,109.1,103.7L109.1,103.7z"/>
<path d="M126.4,97.4c0-5.2,3.7-8.9,8.8-8.9c3.4,0,5.3,1.4,6.5,3l-2.4,2.3c-0.9-1.3-2.4-2-3.9-2c-3,0-5.2,2.3-5.2,5.7
	s2.1,5.7,5.2,5.7c1.5,0,3-0.8,3.9-2l2.4,2.3c-1.3,1.6-3.1,3-6.5,3C130,106.5,126.4,102.6,126.4,97.4L126.4,97.4z"/>
<path d="M145.1,106V88.9h3.8v2.5c1.3-1.6,3.4-2.9,5.5-2.9v3.7c-0.4-0.1-0.8-0.1-1.1-0.1c-1.6,0-3.7,1-4.4,2.3v11.6L145.1,106
	L145.1,106z"/>
<path d="M157.5,106V88.9h3.7V106H157.5z"/>
<path d="M169.8,103.6v8.8h-3.7V88.9h3.7v2.4c1.3-1.8,3.3-2.8,5.5-2.8c4.4,0,7.6,3.3,7.6,8.9s-3.1,9.1-7.6,9.1
	C173.1,106.5,171.2,105.5,169.8,103.6L169.8,103.6z M179,97.4c0-3.3-1.9-5.7-4.9-5.7c-1.8,0-3.4,0.9-4.4,2.3v6.8
	c1,1.4,2.6,2.3,4.4,2.4C177.1,103.2,179,100.8,179,97.4L179,97.4L179,97.4z"/>
<path d="M196.6,103.7l1.8-2.6c1.5,1.5,3.7,2.3,5.8,2.4c2.3,0,3.4-0.9,3.4-2.3c0-3.4-10.3-1-10.3-7.6c0-2.8,2.4-5.2,6.7-5.2
	c2.4-0.1,4.8,0.8,6.7,2.4l-1.5,2.6c-1-1.1-2.9-2-5-2c-2,0-3.1,0.9-3.1,2.1c0,3,10.3,0.8,10.3,7.6c0,3-2.5,5.3-7.1,5.3
	C200.9,106.5,198.4,105.5,196.6,103.7L196.6,103.7z"/>
<path d="M161.5,84.7c0,1.1-1,2.1-2.1,2.1s-2.1-1-2.1-2.1s1-2.1,2.1-2.1S161.5,83.5,161.5,84.7L161.5,84.7z"/>
<path d="M187.4,102.1v-9.8h-2.8V89h2.8v-4.3h3.7V89h3.5v3.3h-3.5v8.9c0,1.1,0.5,2,1.6,2c0.5,0,1.1-0.1,1.5-0.3v3.1
	c-0.8,0.4-1.6,0.5-2.5,0.5C188.9,106.5,187.4,104.9,187.4,102.1"/>
<path d="M70.2,70.5c-11.5,0-21.4,5.8-26.4,14.2l-0.6-0.3c7.3-14.9,25.2-21.2,40-14c6.2,2.9,11.1,7.9,14.1,14.1l-0.6,0.3
	C91.6,76.3,81.7,70.5,70.2,70.5z"/>
<path d="M104,101.6c-1.4,1.1-3,1.9-4.8,1.9c-3.3,0-5.2-2.1-5.4-4.7H107v-0.9c0-5.4-3.3-9.3-8.4-9.3c-5.2,0-8.7,4-8.7,8.9
	c0,5.4,3.8,8.9,8.9,8.9c2.6,0,5-0.9,6.7-2.3C104.8,103.2,104.3,102.5,104,101.6z M98.4,91.5c3.4,0,4.8,2.5,4.8,4.5h-9.6
	C93.8,94,95.3,91.5,98.4,91.5L98.4,91.5L98.4,91.5z"/>
<path d="M213.4,88.7c0.9,0,1.6,0.8,1.6,1.6s-0.8,1.6-1.6,1.6c-0.9,0-1.6-0.8-1.6-1.6S212.5,88.7,213.4,88.7z M213.4,91.5
	c0.6,0,1.3-0.5,1.3-1.1s-0.5-1.3-1.1-1.3s-1.3,0.5-1.3,1.1l0,0C212.2,91,212.7,91.5,213.4,91.5L213.4,91.5z M212.7,89.5h0.5
	c0.4,0,0.8,0.1,0.8,0.5c0,0.3-0.1,0.5-0.4,0.5l0.4,0.6h-0.3l-0.4-0.6h-0.1v0.6h-0.4L212.7,89.5L212.7,89.5z M213.2,90.1h0.3
	c0.1,0,0.3,0,0.3-0.3c0-0.3-0.1-0.1-0.3-0.1h-0.3V90.1z"/>
</svg>
