<?xml version="1.0" encoding="utf-8"?>
<!-- Generator: Adobe Illustrator 25.3.1, SVG Export Plug-In . SVG Version: 6.00 Build 0)  -->
<svg version="1.1" id="Layer_1" xmlns="http://www.w3.org/2000/svg" xmlns:xlink="http://www.w3.org/1999/xlink" x="0px" y="0px"
	 viewBox="0 0 210 84" style="enable-background:new 0 0 210 84;" xml:space="preserve">
<style type="text/css">
	.st0{fill:#000;}
</style>
<g id="Group_3418" transform="translate(-705.944 -3569.514)">
	<g id="Group_3416" transform="translate(705.944 3569.514)">
		<path id="Path_124" class="st0" d="M57.8,32.8L42.6,48l19.9,5.3c0.3,0.1,0.5-0.1,0.6-0.4c0-0.1,0-0.2,0-0.3L57.8,32.8z"/>
		<path id="Path_125" class="st0" d="M60.4,28.3l-25-6.7c-0.3-0.1-0.5,0.1-0.6,0.3c0,0.1,0,0.2,0,0.3L41.7,48l18.9-18.9
			c0.2-0.2,0.2-0.5,0-0.7C60.6,28.3,60.5,28.3,60.4,28.3z"/>
		<path id="Path_126" class="st0" d="M41.7,48.9l2,7.6l-6.7-1.8c-0.3-0.1-0.5-0.4-0.4-0.7c0-0.1,0.1-0.2,0.1-0.2L41.7,48.9z"/>
		<path id="Path_127" class="st0" d="M42.6,48.9l14,3.8L47,62.3c-0.2,0.2-0.5,0.2-0.7,0c-0.1-0.1-0.1-0.1-0.1-0.2L42.6,48.9z"/>
	</g>
	<g id="Group_3417" transform="translate(738.431 3581.117)">
		<g id="Group_23" transform="translate(0 4.028)">
			<path id="Path_128" class="st0" d="M39,21.6c-2.3,0-3.9,1.2-3.9,3c0,1.8,1.3,2.6,3.3,3l1.5,0.2c1.4,0.2,1.7,0.5,1.7,1.4
				c0,0.8-0.7,1.3-2.1,1.3c-2.2,0-2.7-1.1-2.8-1.3h-1.9c0.1,0.9,1.2,3,4.7,3c2.6,0,4-1.3,4-3.1c0-1.8-0.9-2.6-3.3-3l-1.5-0.2
				c-1.2-0.2-1.8-0.5-1.8-1.3c0-0.7,0.7-1.3,2.1-1.3c1.7,0,2.4,0.8,2.5,1.1h1.8C43.1,23.4,42.3,21.6,39,21.6"/>
			<path id="Path_129" class="st0" d="M128.5,21.6c-2.3,0-3.9,1.2-3.9,3c0,1.8,1.3,2.6,3.3,3l1.5,0.2c1.4,0.2,1.7,0.5,1.7,1.4
				c0,0.8-0.7,1.3-2.1,1.3c-2.2,0-2.7-1.1-2.8-1.3h-1.9c0.1,0.9,1.2,3,4.7,3c2.6,0,4-1.3,4-3.1c0-1.8-0.9-2.6-3.3-3l-1.5-0.2
				c-1.2-0.2-1.8-0.5-1.8-1.3c0-0.7,0.7-1.3,2.1-1.3c1.7,0,2.4,0.8,2.5,1.1h1.8C132.5,23.4,131.7,21.6,128.5,21.6"/>
			<path id="Path_130" class="st0" d="M138.3,21.6c-2.3,0-3.9,1.2-3.9,3c0,1.8,1.3,2.6,3.3,3l1.5,0.2c1.4,0.2,1.7,0.5,1.7,1.4
				c0,0.8-0.7,1.3-2.1,1.3c-2.2,0-2.7-1.1-2.8-1.3H134c0.1,0.9,1.2,3,4.7,3c2.6,0,4-1.3,4-3.1c0-1.8-0.9-2.6-3.3-3l-1.5-0.2
				c-1.2-0.2-1.8-0.5-1.8-1.3c0-0.7,0.7-1.3,2.1-1.3c1.7,0,2.4,0.8,2.5,1.1h1.8C142.3,23.4,141.5,21.6,138.3,21.6"/>
		</g>
		<path id="Path_131" class="st0" d="M53.8,25.8h-1.9l-3,7.4l-3-7.4h-2l4,9.8l-1.8,4.5h1.8L53.8,25.8z"/>
		<g id="Group_24" transform="translate(20.326)">
			<path id="Path_132" class="st0" d="M39.6,25.6c-1.3,0-2.5,0.7-3,1.9v-1.7h-1.8v10h1.8v-5.6c0-1.9,1-2.9,2.5-2.9
				c1.5,0,2.4,1,2.4,2.9v5.6h1.9v-5.9C43.5,27.2,41.9,25.6,39.6,25.6"/>
			<path id="Path_133" class="st0" d="M49.5,25.6c-2.6,0-4.6,2.2-4.6,5.3c0,3,2,5.2,4.6,5.2c2,0.1,3.8-1.3,4.2-3.2h-1.8
				c-0.4,1-1.4,1.6-2.4,1.5c-1.6,0-2.7-1.6-2.7-3.6c0-2,1.1-3.6,2.7-3.6c1,0,2,0.6,2.4,1.5h1.8C53.3,26.8,51.5,25.5,49.5,25.6"/>
			<path id="Path_134" class="st0" d="M57.1,21.6h-1.8v14.3h1.8v-5.5c0-1.9,1-3,2.5-3c1.5,0,2.4,1,2.4,3v5.5H64V30
				c0-2.7-1.5-4.4-3.8-4.4c-1.3,0-2.5,0.8-3,2L57.1,21.6L57.1,21.6z"/>
			<path id="Path_135" class="st0" d="M77.4,25.6c-2.8,0-4.7,2.3-4.7,5.2s1.9,5.2,4.7,5.2s4.7-2.3,4.7-5.2S80.2,25.6,77.4,25.6
				 M77.4,34.4c-1.8,0-2.8-1.6-2.8-3.5s1-3.5,2.8-3.5s2.8,1.6,2.8,3.5S79.2,34.4,77.4,34.4"/>
			<path id="Path_136" class="st0" d="M88.3,25.6c-1.3,0-2.5,0.7-3,1.9v-1.7h-1.8v10h1.8v-5.6c0-1.9,1-2.9,2.5-2.9
				c1.5,0,2.4,1,2.4,2.9v5.6h1.9v-5.9C92.1,27.2,90.6,25.6,88.3,25.6"/>
			<path id="Path_137" class="st0" d="M98.3,25.6c-2.8,0-4.7,2.3-4.7,5.2s1.9,5.2,4.7,5.2s4.7-2.3,4.7-5.2S101.1,25.6,98.3,25.6
				 M98.3,34.4c-1.8,0-2.8-1.6-2.8-3.5s1-3.5,2.8-3.5s2.8,1.6,2.8,3.5S100.1,34.4,98.3,34.4"/>
			<path id="Path_138" class="st0" d="M72.3,25.8H71c-2.2,0-3.1,1.1-3.4,1.9v-1.8h-1.8v10h1.8v-5.6c0-1.7,0.9-2.6,3.2-2.6h1.5
				L72.3,25.8L72.3,25.8z"/>
		</g>
	</g>
</g>
</svg>
