<?xml version="1.0" encoding="utf-8"?>
<!-- Generator: Adobe Illustrator 25.3.1, SVG Export Plug-In . SVG Version: 6.00 Build 0)  -->
<svg version="1.1" id="Layer_1" xmlns="http://www.w3.org/2000/svg" xmlns:xlink="http://www.w3.org/1999/xlink" x="0px" y="0px"
	 viewBox="0 0 210 84" style="enable-background:new 0 0 210 84;" xml:space="preserve">
<style type="text/css">
	.st0{fill:#000;}
</style>
<g id="Group_7" transform="translate(-0.123 -13.023)">
	<path id="Path_25" class="st0" d="M77.9,61.5c-0.9,0-1.5-0.8-1.5-1.8v-7.2h3.3v-3.7h-3.3v-4.4h-4.3v4.4h-2.7v3.7h2.7v8.4
		c0,2.9,1.6,4.5,4.5,4.5c1.3,0.1,2.5-0.3,3.5-1.1L79.3,61C79,61.4,78.5,61.6,77.9,61.5"/>
	<path id="Path_26" class="st0" d="M89.1,48.4c-4.5-0.1-8.3,3.6-8.4,8.1v0.3c0,5.2,3.7,8.5,8.6,8.5c2.4,0.1,4.8-0.7,6.7-2.3L94,60.3
		c-1.2,1-2.7,1.5-4.3,1.6c-2.2,0.2-4.3-1.4-4.7-3.6h12v-1C97.2,52,93.9,48.4,89.1,48.4 M85.1,55.3c0.3-2.2,2.3-3.7,4.5-3.4
		c1.8,0.2,3.2,1.6,3.4,3.4H85.1z"/>
	<path id="Path_27" class="st0" d="M108.6,48.4c-2.1,0-4.2,0.9-5.7,2.5v-2.1h-4.3v16.1h4.3V54c0.9-1.2,2.2-1.8,3.7-1.9
		c1.8,0,3,0.8,3,3v9.8h4.3V53.6C113.9,50.4,112.2,48.4,108.6,48.4"/>
	<path id="Path_28" class="st0" d="M123.2,48.4c-2.6-0.1-5.1,0.8-7.1,2.5l1.7,3c1.3-1.2,2.9-1.9,4.7-1.9c2.1,0,3.5,1.1,3.5,2.7v2.1
		c-1.3-1.4-3.2-2.1-5.1-2c-2.6,0-5.6,1.4-5.6,5.2c0,2.9,2.4,5.3,5.3,5.3c0.1,0,0.2,0,0.2,0c1.9,0.1,3.8-0.7,5.1-2.1v1.7h4.3V54.5
		C130.3,49.9,126.9,48.4,123.2,48.4 M126,61.1c-0.9,0.9-2.1,1.5-3.4,1.4c-1.7,0-3.1-0.9-3.1-2.4s1.4-2.5,3.1-2.5
		c1.3-0.1,2.5,0.5,3.4,1.5V61.1z"/>
	<path id="Path_29" class="st0" d="M141.3,48.4c-2,0-3.8,0.9-5,2.5v-8.2h-4.3v22.3h4.3v-2.1c1.2,1.5,3,2.5,5,2.5
		c4.1,0,7.1-3.1,7.1-8.5C148.4,51.6,145.4,48.4,141.3,48.4 M140,61.5c-1.4,0-2.8-0.7-3.7-1.8V54c0.9-1.1,2.2-1.8,3.7-1.9
		c2.5,0,4.1,1.9,4.1,4.7C144.1,59.7,142.5,61.5,140,61.5"/>
	<rect id="Rectangle_24" x="149.9" y="42.7" class="st0" width="4.3" height="22.3"/>
	<path id="Path_30" class="st0" d="M164.1,48.4c-4.5-0.1-8.3,3.6-8.4,8.1v0.3c0,5.2,3.7,8.5,8.6,8.5c2.4,0.1,4.8-0.7,6.7-2.3
		l-1.9-2.8c-1.2,1-2.7,1.5-4.3,1.6c-2.2,0.2-4.3-1.4-4.7-3.6h12v-1C172.1,52,168.9,48.4,164.1,48.4 M160.2,55.3
		c0.3-2.2,2.3-3.7,4.5-3.4c1.8,0.2,3.2,1.6,3.4,3.4H160.2z"/>
	<path id="Path_31" class="st0" d="M173.3,48c0.1-0.1,0.1-0.2,0.1-0.3c0-0.3-0.2-0.5-0.7-0.5h-0.4v1.5h0.3v-0.6h0.1l0.3,0.6h0.4
		l-0.4-0.7C173.1,48.1,173.2,48,173.3,48 M172.7,47.9h-0.1v-0.5h0.1c0.1,0,0.2,0,0.3,0.1c0.1,0.1,0.1,0.1,0.1,0.2
		C173,47.8,172.9,47.9,172.7,47.9"/>
	<path id="Path_32" class="st0" d="M174,47.3c-0.2-0.4-0.7-0.7-1.2-0.7c-0.3,0-0.5,0.1-0.7,0.2c-0.2,0.1-0.4,0.3-0.5,0.5
		c-0.1,0.2-0.2,0.5-0.2,0.7c0,0.3,0.1,0.5,0.2,0.7c0.2,0.4,0.7,0.7,1.2,0.7c0.3,0,0.5-0.1,0.7-0.2c0.2-0.1,0.4-0.3,0.5-0.5
		c0.1-0.2,0.2-0.5,0.2-0.7C174.1,47.8,174.1,47.5,174,47.3 M173.7,48.6c-0.1,0.2-0.2,0.3-0.4,0.4c-0.2,0.1-0.4,0.1-0.6,0.1
		c-0.2,0-0.4,0-0.5-0.1c-0.1-0.1-0.3-0.3-0.4-0.4c-0.2-0.4-0.2-0.8,0-1.2c0.1-0.2,0.2-0.3,0.4-0.4c0.2-0.1,0.3-0.2,0.5-0.1
		c0.2,0,0.4,0.1,0.6,0.1c0.2,0.1,0.3,0.2,0.4,0.4C173.9,47.8,173.9,48.2,173.7,48.6"/>
	<path id="Path_33" class="st0" d="M63,44.4c0.1,0.3,0.4,1.5,0.7,2.6l2.3,8.8c0.3,1.1,0.6,2.3,0.7,2.6c0.1,0.5,0,1-0.3,1.3l-1.9,1.9
		L58,68.1l-1.9,1.9c-0.4,0.3-0.9,0.5-1.3,0.3c-0.3-0.1-1.5-0.4-2.6-0.7l-8.8-2.3c-1.1-0.3-2.3-0.6-2.6-0.7c-0.2-0.1-0.5-0.2-0.6-0.4
		c-0.2-0.2-0.3-0.4-0.4-0.6c-0.1-0.3-0.4-1.5-0.7-2.6l-2.3-8.9c-0.3-1.1-0.6-2.3-0.7-2.6l0.3-0.1l0.3-0.1c0.1,0.3,0.4,1.5,0.7,2.6
		l2.4,8.8c0.3,1.1,0.6,2.3,0.7,2.6c0.1,0.1,0.1,0.2,0.3,0.3c0.1,0.1,0.2,0.1,0.3,0.2l2.6,0.7l8.8,2.3c1.1,0.3,2.3,0.6,2.6,0.7
		c0.2,0.1,0.5,0,0.7-0.2l1.9-1.9l6.5-6.5l1.9-1.9c0.1-0.2,0.2-0.4,0.2-0.7c-0.1-0.3-0.4-1.5-0.7-2.6L63.2,47
		c-0.3-1.1-0.6-2.3-0.7-2.6c-0.1-0.1-0.1-0.2-0.2-0.3C62.3,44,62.2,44,62,43.9l-2.6-0.7l-8.8-2.3c-1.1-0.3-2.3-0.6-2.6-0.7
		c-0.2-0.1-0.5,0-0.7,0.2l-2.1,2l-6.4,6.4L37,50.8c-0.1,0.2-0.2,0.4-0.2,0.7l-0.3,0.1l-0.3,0.1c-0.1-0.5,0-1,0.3-1.3l1.9-1.9
		l6.5-6.5l1.9-1.9c0.4-0.3,0.9-0.5,1.3-0.3c0.3,0.1,1.5,0.4,2.6,0.7l8.8,2.3c1.1,0.3,2.3,0.6,2.6,0.7c0.2,0.1,0.5,0.2,0.6,0.4
		C62.8,44,62.9,44.2,63,44.4"/>
	<path id="Path_34" class="st0" d="M52,42.1c0.3,0.1,1.1,0.7,1.9,1.1l6.5,3.7c0.8,0.5,1.7,1,1.9,1.1c0.3,0.2,0.6,0.6,0.6,1V61
		c0,0.4-0.2,0.8-0.6,1c-0.3,0.1-1.1,0.7-1.9,1.1l-6.5,3.7c-0.8,0.5-1.7,1-1.9,1.1c-0.4,0.2-0.8,0.2-1.1,0c-0.3-0.1-1.1-0.7-1.9-1.1
		l-6.5-3.7L40.6,62l0.1-0.3l0.1-0.3l1.9,1.1l6.5,3.7l1.9,1.1c0.1,0.1,0.2,0.1,0.3,0.1c0.1,0,0.2,0,0.3-0.1l1.9-1.1l6.5-3.7l1.9-1.1
		c0.1-0.1,0.2-0.3,0.3-0.5V49.1c0-0.2-0.1-0.4-0.3-0.5c-0.3-0.1-1.1-0.7-1.9-1.1l-6.5-3.7c-0.8-0.5-1.7-1-1.9-1.1
		c-0.2-0.1-0.4-0.1-0.5,0l-1.9,1.1l-6.5,3.7c-0.8,0.5-1.7,1-1.9,1.1c-0.1,0.1-0.2,0.3-0.3,0.5V61c0,0.2,0.1,0.4,0.3,0.5l-0.1,0.3
		L40.6,62c-0.4-0.2-0.6-0.6-0.7-1V49.1c0-0.4,0.2-0.8,0.6-1c0.3-0.1,1.1-0.7,1.9-1.1l6.5-3.7c0.8-0.5,1.7-1,1.9-1.1
		c0.2-0.1,0.4-0.1,0.6-0.1C51.7,42,51.8,42,52,42.1"/>
	<path id="Path_35" class="st0" d="M43.7,46.4l1.9-0.5l6.5-1.7c0.8-0.2,1.7-0.5,1.9-0.5c0.4-0.1,0.7,0,1,0.3l1.4,1.4l4.7,4.7
		l1.4,1.4c0.2,0.3,0.3,0.6,0.3,1c-0.1,0.3-0.3,1.1-0.5,1.9l-1.7,6.5c-0.2,0.8-0.5,1.7-0.5,1.9c-0.1,0.4-0.4,0.6-0.7,0.7
		c-0.3,0.1-1.1,0.3-1.9,0.5l-6.5,1.7c-0.8,0.2-1.7,0.5-1.9,0.5L48.9,66l-0.1-0.3l1.9-0.5l6.5-1.7c0.8-0.2,1.7-0.5,1.9-0.5
		c0.1,0,0.1-0.1,0.2-0.1s0.1-0.1,0.1-0.2c0.1-0.3,0.3-1.1,0.5-1.9l1.7-6.5c0.2-0.8,0.5-1.7,0.5-1.9c0-0.2,0-0.3-0.1-0.5l-1.4-1.4
		l-4.8-4.7l-1.4-1.4c-0.1-0.1-0.3-0.2-0.5-0.1c-0.3,0.1-1.1,0.3-1.9,0.5l-6.5,1.7c-0.8,0.2-1.7,0.5-1.9,0.5c-0.1,0-0.1,0.1-0.2,0.1
		c-0.1,0.1-0.1,0.1-0.1,0.2c-0.1,0.3-0.3,1.1-0.5,1.9l-1.7,6.5c-0.2,0.8-0.5,1.7-0.5,1.9c0,0.2,0,0.3,0.1,0.5l1.4,1.4l4.7,4.7
		l1.4,1.4c0.1,0.1,0.3,0.2,0.5,0.1l0.1,0.3l0.1,0.3c-0.4,0.1-0.7,0-1-0.3l-1.4-1.4l-4.7-4.7l-1.4-1.4c-0.2-0.3-0.3-0.6-0.3-1
		c0.1-0.3,0.3-1.1,0.5-1.9l1.7-6.5c0.2-0.8,0.5-1.7,0.5-1.9c0-0.2,0.1-0.3,0.3-0.5C43.4,46.6,43.5,46.5,43.7,46.4"/>
	<path id="Path_36" class="st0" d="M42,64.5c-5.2-5.2-5.2-13.7,0-19s13.7-5.2,19,0c5.2,5.2,5.2,13.7,0,18.9l0,0
		C55.7,69.7,47.2,69.7,42,64.5L42,64.5 M60.5,64.1c4.9-5,4.9-13.1-0.1-18s-13.1-4.9-18,0.1c-4.9,5-4.9,13,0.1,18
		C47.4,69.1,55.5,69,60.5,64.1"/>
	<path id="Path_37" class="st0" d="M51.9,45.4l1.4,0.8l4.8,2.8l1.4,0.8c0.3,0.2,0.4,0.4,0.4,0.7v8.8c0,0.3-0.2,0.6-0.4,0.7
		c-0.2,0.1-0.8,0.5-1.4,0.8l-4.8,2.8c-0.6,0.3-1.3,0.7-1.4,0.8c-0.3,0.1-0.6,0.1-0.9,0l-1.4-0.8l-4.8-2.8l-1.4-0.8l0.1-0.2l0.1-0.2
		l1.4,0.8l4.8,2.8c0.6,0.3,1.3,0.7,1.4,0.8c0.1,0.1,0.3,0.1,0.4,0c0.2-0.1,0.8-0.5,1.4-0.8l4.8-2.8l1.4-0.8c0.1-0.1,0.2-0.2,0.2-0.4
		v-8.8c0-0.2-0.1-0.3-0.2-0.4c-0.2-0.1-0.8-0.5-1.4-0.8l-4.8-2.8c-0.6-0.3-1.3-0.7-1.4-0.8c-0.1-0.1-0.3-0.1-0.4,0
		c-0.2,0.1-0.8,0.5-1.4,0.8l-4.8,2.8l-1.4,0.8c-0.1,0.1-0.2,0.2-0.2,0.4v8.8c0,0.2,0.1,0.3,0.2,0.4l-0.1,0.2l-0.1,0.2
		C43.2,60,43,59.7,43,59.4v-8.8c0-0.3,0.2-0.6,0.4-0.7c0.2-0.1,0.8-0.5,1.4-0.8l4.8-2.8l1.4-0.8c0.1-0.1,0.3-0.1,0.4-0.1
		C51.6,45.3,51.7,45.3,51.9,45.4"/>
	<path id="Path_38" class="st0" d="M44.4,61.9c-3.9-3.9-3.9-10.2,0-14s10.2-3.9,14,0c3.9,3.9,3.9,10.2,0,14l0,0
		C54.6,65.8,48.3,65.8,44.4,61.9 M58.1,61.6c3.7-3.7,3.6-9.7-0.1-13.4s-9.7-3.6-13.4,0.1c-3.6,3.7-3.6,9.6,0,13.3
		C48.4,65.3,54.3,65.3,58.1,61.6C58.1,61.7,58.1,61.6,58.1,61.6L58.1,61.6"/>
</g>
</svg>
