<?xml version="1.0" encoding="utf-8"?>
<!-- Generator: Adobe Illustrator 25.3.1, SVG Export Plug-In . SVG Version: 6.00 Build 0)  -->
<svg version="1.1" id="Thales_Logo" xmlns="http://www.w3.org/2000/svg" xmlns:xlink="http://www.w3.org/1999/xlink" x="0px"
	 y="0px" viewBox="0 0 210 84" style="enable-background:new 0 0 210 84;" xml:space="preserve">
<style type="text/css">
	.st0{fill:#fff;}
</style>
<path id="Path_139" class="st0" d="M39.5,34.6c6-0.4,12-0.4,18-0.1v2.8h-7.1v11.9H47V37.2h-7.3L39.5,34.6"/>
<path id="Path_140" class="st0" d="M98.4,44.9c0,1.2-1,2.3-2.3,2.3c-1.2,0-2.3-1-2.3-2.3c0-1.2,1-2.3,2.3-2.3
	C97.4,42.6,98.4,43.6,98.4,44.9C98.4,44.8,98.4,44.8,98.4,44.9"/>
<path id="Path_141" class="st0" d="M77.1,34.4v6h-9.6v-6l-3.6,0.2v14.7l3.6,0.2V43h9.6v6.4l3.6-0.2V34.6L77.1,34.4 M86.2,49.1
	l8.3-14.6h3.5l8.5,14.6l-3.9,0.3l-6.2-11.4H96l-6.3,11.3L86.2,49.1 M111.8,49.1V34.7h3.3v11.8h11.5v2.6
	C121.7,50,116.7,50,111.8,49.1 M132.2,49.3V34.6c0,0,10.4-1.1,15.7,0.1v2.7l-12,0.1v2.9h6.9v2.8h-6.9v3.4h12.2v2.7
	C148.1,49.4,139.1,50.6,132.2,49.3 M170.3,34.5v2.9h-13.1v2.9h10.7c1.4,0,2.5,1.1,2.6,2.5v3.8c0,2.5-2.6,3.2-5,3.2
	c-3.9,0.1-7.8-0.1-11.6-0.5v-2.7h13.4v-3.3h-10c-1.6,0-3.3-0.9-3.3-2V37c0-1.5,2-2.5,3.6-2.5L170.3,34.5"/>
</svg>
