<?xml version="1.0" encoding="utf-8"?>
<!-- Generator: Adobe Illustrator 25.3.1, SVG Export Plug-In . SVG Version: 6.00 Build 0)  -->
<svg version="1.1" id="Layer_1" xmlns="http://www.w3.org/2000/svg" xmlns:xlink="http://www.w3.org/1999/xlink" x="0px" y="0px"
	 viewBox="0 0 210 84" style="enable-background:new 0 0 210 84;" xml:space="preserve">
<style type="text/css">
	.st0{fill:#000;}
</style>
<g id="VArmour_Logo" transform="translate(-3.7 -7)">
	<path id="Path_142" class="st0" d="M56.7,66.5H41.6v-13h4.5v8.5h10.6V66.5z M46,44.4h-4.5V31.5h15.2v4.4H46V44.4z M175.8,44.4h-4.5
		v-8.5h-10.6v-4.4h15.2V44.4z M175.9,66.5h-15.2v-4.5h10.7v-8.5h4.5L175.9,66.5z"/>
	<path id="Path_143" class="st0" d="M60.5,43.4h2.7l4.3,10.7l4.3-10.7h2.8L69,57h-2.8L60.5,43.4z M87.9,43.4h2.6v2.1
		c1.1-1.4,2.7-2.3,4.5-2.4v2.6c-0.3-0.1-0.6-0.1-0.9-0.1c-1.4,0.1-2.8,0.8-3.7,2V57h-2.6L87.9,43.4L87.9,43.4z M113.9,47.9
		c0-1.6-0.7-2.6-2.4-2.6c-1.4,0.1-2.7,0.8-3.4,1.9V57h-2.6v-9.1c0-1.6-0.7-2.6-2.4-2.6c-1.4,0.1-2.6,0.8-3.4,2V57H97V43.4h2.6v1.9
		c1.1-1.4,2.7-2.2,4.5-2.3c1.7-0.2,3.3,0.9,3.8,2.5c1.1-1.6,2.8-2.5,4.7-2.5c2.6,0,3.9,1.4,3.9,4.1V57h-2.6L113.9,47.9z M118.5,50.2
		c-0.1-3.9,3-7.1,6.8-7.1c3.9-0.1,7.1,3,7.1,6.8c0,0.1,0,0.2,0,0.3c0,4-2.7,7.2-7,7.2c-3.8,0.1-6.9-2.9-7-6.6
		C118.5,50.5,118.5,50.3,118.5,50.2z M129.8,50.2c0-2.6-1.5-4.9-4.3-4.9c-2.8,0-4.3,2.3-4.3,4.9c0,2.6,1.5,4.9,4.3,4.9
		C128.3,55.1,129.8,52.8,129.8,50.2z M144,55.1c-1.3,1.4-3.1,2.2-4.9,2.2c-3,0-4.4-1.5-4.4-4.4v-9.6h2.6v8.8c0,2.3,1.1,2.9,2.9,2.9
		c1.5,0,2.9-0.7,3.9-1.9v-9.8h2.6V57H144L144,55.1L144,55.1z M149.5,43.4h2.6v2.1c1.1-1.4,2.7-2.3,4.5-2.4v2.6
		c-0.3-0.1-0.6-0.1-0.9-0.1c-1.4,0.1-2.8,0.8-3.7,2V57h-2.6L149.5,43.4L149.5,43.4z M83.7,57h2.7l-5.3-13.6H78L72.7,57v0h2.7l1-2.6
		h6.4L83.7,57z M77,52.2l2.5-6.7l2.5,6.7H77z"/>
</g>
</svg>
