<?xml version="1.0" encoding="utf-8"?>
<!-- Generator: Adobe Illustrator 25.3.1, SVG Export Plug-In . SVG Version: 6.00 Build 0)  -->
<svg version="1.1" id="Layer_1" xmlns="http://www.w3.org/2000/svg" xmlns:xlink="http://www.w3.org/1999/xlink" x="0px" y="0px"
	 viewBox="0 0 210 84" style="enable-background:new 0 0 210 84;" xml:space="preserve">
<style type="text/css">
	.st0{fill:#000;}
</style>
<g id="Group_6" transform="translate(-12.065 -17.742)">
	<g id="Group_4" transform="translate(12.065 17.742)">
		<path id="Path_17" class="st0" d="M124.8,52.4l2.1-2l-3.8-9.2c-0.5-1.1-0.9-2.2-1.1-3.3c-0.2,1.1-0.6,2.3-1.1,3.3l-4.7,11.1h-3.5
			l9.3-21.7l9.3,21.7H124.8z"/>
		<path id="Path_18" class="st0" d="M66.7,31.6h11.6v2.9h-8.2v5.2h8.2v3h-8.2v6.8h8.2v3H66.7V31.6z"/>
		<path id="Path_19" class="st0" d="M87.9,30.8l13.2,12.7c0.8,0.8,1.6,1.6,2.3,2.5V31.6h3.1v21.7L93,40.2c-0.7-0.7-1.4-1.5-2-2.3
			v14.5h-3.1L87.9,30.8L87.9,30.8z"/>
		<path id="Path_20" class="st0" d="M137.8,31.6h11.6v2.9h-8.2v5.2h8.2v3h-8.2v9.8h-3.4V31.6z"/>
		<path id="Path_21" class="st0" d="M157.4,31.6h3.4v20.9h-3.4V31.6z"/>
		<path id="Path_22" class="st0" d="M53.2,31.6l2.1,2l-3.8,9.2c-0.5,1.1-0.8,2.2-1.1,3.3c-0.2-1.1-0.6-2.3-1.1-3.3l-4.7-11.1H41
			l9.3,21.7l9.3-21.7H53.2z"/>
	</g>
	<g id="Group_5" transform="translate(135.802 18.56)">
		<path id="Path_23" class="st0" d="M43.1,30.8c-1.2,0-2.1,1-2.1,2.2c0,1.1,0.9,2,2,2c0,0,0.1,0,0.1,0c1.1,0,2-0.9,2-2
			c0,0,0-0.1,0-0.1C45.2,31.7,44.3,30.8,43.1,30.8C43.2,30.8,43.1,30.8,43.1,30.8z M43.1,34.6c-0.9,0.1-1.7-0.7-1.8-1.6
			c0,0,0-0.1,0-0.1c0-1,0.7-1.8,1.7-1.8c0,0,0,0,0,0c1,0,1.8,0.7,1.8,1.7c0,0,0,0,0,0l0,0c0,0.9-0.7,1.7-1.6,1.8
			C43.2,34.6,43.2,34.6,43.1,34.6z"/>
		<path id="Path_24" class="st0" d="M44.1,32.3c0-0.5-0.3-0.7-0.9-0.7h-0.9V34h0.4v-1h0.4l0.6,1h0.4L43.5,33
			C43.8,33,44.1,32.7,44.1,32.3L44.1,32.3z M42.7,32.7v-0.7h0.5c0.2,0,0.5,0.1,0.5,0.4c0,0.4-0.2,0.4-0.6,0.4H42.7z"/>
	</g>
</g>
</svg>
