<?xml version="1.0" encoding="utf-8"?>
<!-- Generator: Adobe Illustrator 28.0.0, SVG Export Plug-In . SVG Version: 6.00 Build 0)  -->
<svg version="1.1" id="Layer_1" xmlns="http://www.w3.org/2000/svg" xmlns:xlink="http://www.w3.org/1999/xlink" x="0px" y="0px"
	 viewBox="0 0 255 180" style="enable-background:new 0 0 255 180;" xml:space="preserve">
<style type="text/css">
	.st0{opacity:0.5;}
	.st1{fill-rule:evenodd;clip-rule:evenodd;}
</style>
<g class="st0">
	<polygon id="SVGID" class="st1" points="45.5,73.4 40,86.1 52,106.6 64.9,106.6 	"/>
</g>
<polygon id="SVGID-2" class="st1" points="71.3,73.4 52,106.6 64.9,106.6 76.8,86.1 "/>
<g class="st0">
	<polygon id="SVGID-3" class="st1" points="61.2,73.4 66.3,82.1 71.3,73.4 	"/>
</g>
<path class="st1" d="M142.5,81.2h14.2v1.9h-6.2v15.6h-2V83.1h-6.2L142.5,81.2L142.5,81.2L142.5,81.2z M137.4,98.8h2V81.3h-2V98.8z
	 M209.1,83.2v-1.9h-13v17.5h13v-1.9h-11V91h9.8v-1.9h-9.8v-6L209.1,83.2L209.1,83.2z M172.6,83.7c1.6,1.6,2.5,3.8,2.5,6.4
	s-0.8,4.7-2.5,6.4c-1.6,1.8-3.8,2.6-6.4,2.6s-4.8-0.9-6.4-2.6c-1.6-1.6-2.5-3.8-2.5-6.4s0.8-4.7,2.5-6.4c1.6-1.8,3.8-2.6,6.4-2.6
	S170.9,81.9,172.6,83.7z M173.1,90c0-2-0.6-3.7-1.9-5c-1.3-1.4-3-2-5-2c-2,0-3.8,0.6-5,2c-1.3,1.3-1.9,3-1.9,5s0.6,3.7,1.9,5
	c1.3,1.4,3,2,5,2c2,0,3.8-0.6,5-2C172.4,93.7,173.1,92,173.1,90z M191.2,96l-10.8-14.7h-2.3v17.5h2V84L191,98.8h2.3V81.3h-2V96z
	 M129.6,91.5l5.2,7.3h-2.3l-5-7.1h-4.7v7.1h-2V81.3h6.8c1.9,0,3.3,0.5,4.4,1.4c1.1,0.9,1.6,2.3,1.6,3.8c0,1.3-0.4,2.3-1,3.1
	c-0.6,0.9-1.6,1.5-2.9,1.8C129.8,91.5,129.6,91.5,129.6,91.5z M127.6,89.9c2.6,0,4-1.1,4-3.4s-1.4-3.4-4-3.4h-4.9v6.8L127.6,89.9
	L127.6,89.9z M105.1,98.8h13v-1.9h-11V91h9.8v-1.9h-9.8v-6h11v-1.9h-13V98.8L105.1,98.8z M93.9,96.5l-6.5-15.4h-2.1l7.6,17.5H95
	l7.6-17.5h-2.1L93.9,96.5L93.9,96.5z M215,98.2c0,1.1-1,2.1-2.1,2.1s-2.1-0.9-2.1-2.1c0-1.3,1-2.1,2.1-2.1S215,97.1,215,98.2z
	 M211.2,98.2c0,0.9,0.8,1.6,1.6,1.6c0.9,0,1.6-0.8,1.6-1.6c0-0.9-0.8-1.6-1.6-1.6C212,96.5,211.2,97.3,211.2,98.2L211.2,98.2z
	 M212.5,99.3H212v-2.1c0.1,0,0.5-0.1,0.8-0.1c0.4,0,0.6,0.1,0.8,0.1c0.1,0.1,0.3,0.3,0.3,0.5c0,0.3-0.1,0.4-0.5,0.5l0,0
	c0.3,0.1,0.3,0.3,0.4,0.5c0.1,0.3,0.1,0.4,0.1,0.5h-0.5c-0.1-0.1-0.1-0.3-0.1-0.5s-0.1-0.3-0.5-0.3h-0.1V99.3L212.5,99.3z
	 M212.5,98.1h0.3c0.3,0,0.5-0.1,0.5-0.3c0-0.3-0.1-0.3-0.5-0.3c-0.1,0-0.3,0-0.3,0V98.1L212.5,98.1L212.5,98.1z"/>
</svg>
