<?xml version="1.0" encoding="utf-8"?>
<!-- Generator: Adobe Illustrator 25.3.1, SVG Export Plug-In . SVG Version: 6.00 Build 0)  -->
<svg version="1.1" id="Layer_1" xmlns="http://www.w3.org/2000/svg" xmlns:xlink="http://www.w3.org/1999/xlink" x="0px" y="0px"
	 viewBox="0 0 210 84" style="enable-background:new 0 0 210 84;" xml:space="preserve">
<style type="text/css">
	.st0{fill:#fff;}
</style>
<g id="layer1" transform="translate(-73.332 -159.176)">
	<g id="g11359" transform="translate(0.132 -14.224)">
		<path id="path10811" class="st0" d="M161.8,210.4c0-0.8,0.7-1.5,1.5-1.5h6.6c1.4,0,2.5,1.1,2.6,2.5c0,1.1-0.7,2.1-1.7,2.4
			l-5.1,1.9c-1.8,0.6-2.8,2.6-2.2,4.5c0,0,0,0,0,0c0.3,0.9,1,1.7,1.9,2.1l9.6,4.4v-3.3l-8.4-3.7c-0.1-0.1-0.3-0.2-0.3-0.4
			c-0.1-0.3,0.1-0.7,0.4-0.8l5.3-1.8c2.9-1.1,4.3-4.3,3.2-7.1c0,0,0,0,0-0.1c-0.8-2.1-2.9-3.6-5.2-3.6h-6.6c-2.5,0-4.6,2.1-4.6,4.6
			v15.8h3.1v-15.9H161.8z"/>
		<path id="path10813" class="st0" d="M178.6,226.1h3.1v-20.3h-3.1V226.1z"/>
		<path id="path10825" class="st0" d="M136.4,205.8l-5.5,17c-0.1,0.2-0.3,0.4-0.5,0.4c-0.2,0-0.4-0.2-0.5-0.4l-5.5-17h-3.2l5.8,17.9
			c0.6,1.9,2.6,2.9,4.5,2.3c1.1-0.3,2-1.2,2.3-2.3l5.8-17.9H136.4z"/>
		<path id="path10829" class="st0" d="M199.9,226.1l5.5-17c0.1-0.2,0.3-0.4,0.5-0.4c0.2,0,0.4,0.2,0.5,0.4l5.5,17h3.2l-5.8-17.9
			c-0.6-1.9-2.6-2.9-4.5-2.3c-1.1,0.3-2,1.2-2.3,2.3l-5.8,17.9H199.9z"/>
		<path id="path10833" class="st0" d="M145.9,208.8h9.7v-3h-9.7c-2.8,0-5.1,2.3-5.1,5.1v10.2c0,2.8,2.3,5.1,5.1,5.1h9.7v-3.1h-9.7
			c-1.1,0-2-0.9-2-2v-3.6h9.7v-3h-9.7v-3.6C143.8,209.7,144.7,208.8,145.9,208.8C145.8,208.8,145.8,208.8,145.9,208.8"/>
		<path id="path10837" class="st0" d="M199.1,205.8h-14.9v3.1h5.9v17.3h3.1v-17.4h5.9V205.8z"/>
		<path id="path10849" class="st0" d="M226.4,226.1c3.3,0,5.9-2.6,5.9-5.9c0-3.2-2.6-5.9-5.8-5.9c0,0-0.1,0-0.1,0h-5.1
			c-1.5,0-2.8-1.3-2.8-2.8s1.3-2.8,2.8-2.8h9.9v-2.9h-9.9c-3.3,0-5.9,2.6-5.9,5.9c0,3.3,2.6,5.9,5.9,5.9h5.1c1.5,0,2.8,1.3,2.8,2.8
			s-1.3,2.8-2.8,2.8h-9.9v3.1h9.9V226.1z"/>
		<path id="path10853" class="st0" d="M234.4,205.4l0.1-0.3l0.3-0.9h0.3v1.5h-0.3v-1l-0.1,0.2l-0.3,0.8h-0.2l-0.3-0.8l-0.1-0.2v1
			h-0.3v-1.5h0.3l0.3,0.9L234.4,205.4z M233.1,205.8h-0.3v-1.2h-0.4v-0.2h1.2v0.2h-0.5V205.8z"/>
	</g>
</g>
</svg>
