<?xml version="1.0" encoding="utf-8"?>
<!-- Generator: Adobe Illustrator 28.0.0, SVG Export Plug-In . SVG Version: 6.00 Build 0)  -->
<svg version="1.1" id="Layer_1" xmlns="http://www.w3.org/2000/svg" xmlns:xlink="http://www.w3.org/1999/xlink" x="0px" y="0px"
	 viewBox="0 0 255 180" style="enable-background:new 0 0 255 180;" xml:space="preserve">
<g>
	<path d="M91.7,84.3h-3.7c-0.1,0-0.3,0.1-0.4,0.3l-3.3,11.6L81,84.6c0-0.1-0.3-0.3-0.4-0.3H77c-0.3,0-0.4,0.3-0.4,0.5l5.4,15.5
		c0,0.1,0.3,0.3,0.4,0.3h3.9c0.1,0,0.3-0.1,0.4-0.3L92,84.8C92.3,84.5,92,84.3,91.7,84.3L91.7,84.3z"/>
	<path d="M104,87.5v-2.8c0-0.3-0.1-0.4-0.4-0.4h-3.5c-0.3,0-0.4,0.1-0.4,0.4v15.5c0,0.3,0.1,0.4,0.4,0.4h3.5c0.3,0,0.4-0.1,0.4-0.4
		v-7.9c0-2.4,2.1-4.4,4.5-4l0,0c0.3,0,0.4-0.1,0.4-0.4V84c-0.3,0-0.4,0-0.5,0C106.6,84,104.8,85.2,104,87.5L104,87.5z"/>
	<path d="M129,79.4l-3.5,0.8c-0.1,0-0.3,0.3-0.3,0.4v19.5c0,0.3,0.1,0.4,0.4,0.4h3.5c0.3,0,0.4-0.1,0.4-0.4V79.8
		C129.5,79.5,129.3,79.4,129,79.4z"/>
	<path d="M145.4,84c-2.3,0-3.7,0.8-4.9,2.6v-2c0-0.3-0.1-0.4-0.4-0.4h-3.5c-0.3,0-0.4,0.1-0.4,0.4v15.5c0,0.3,0.1,0.4,0.4,0.4h3.5
		c0.3,0,0.4-0.1,0.4-0.4v-9.3c0-1.9,1.3-3.1,3.4-3.1c1.8,0,2.8,1,2.8,2.9v9.7c0,0.3,0.1,0.4,0.4,0.4h3.5c0.3,0,0.4-0.1,0.4-0.4V89.6
		C150.8,86,148.9,84,145.4,84L145.4,84z"/>
	<path d="M166.3,89c0-3.3-2.3-4.9-6.7-4.9s-6.5,1.8-6.9,5.3c0,0.3,0.1,0.4,0.4,0.4h3.4c0.3,0,0.3-0.1,0.4-0.3c0.3-1.5,1-1.9,2.9-1.9
		c1.6,0,2.4,0.5,2.4,1.6c0,0.5-0.3,1-0.8,1.3c-0.4,0.3-1.3,0.4-2.6,0.6l-1.8,0.3c-3.3,0.5-4.8,2.3-4.8,5.2s2,4.9,4.9,4.9
		c1.6,0,3-0.6,4.4-1.8c0.3-0.3,0.5,0,0.6,0.3c0,0.3,0.1,0.5,0.4,0.8c0,0.1,0.1,0.1,0.3,0.1h4.4v-0.5c-0.8-0.8-1-1.1-1-2L166.3,89
		L166.3,89L166.3,89z M162.2,94c0,2.4-1.3,3.8-3.3,3.8c-1.4,0-2.3-0.8-2.3-2s0.6-1.9,2.4-2.3l1.5-0.3c0.8-0.1,1-0.3,1.3-0.3
		c0.3-0.1,0.5,0.1,0.5,0.4L162.2,94L162.2,94L162.2,94z"/>
	<path d="M180.5,84.3H177c-0.3,0-0.4,0.1-0.4,0.4v15.5c0,0.3,0.1,0.4,0.4,0.4h3.5c0.3,0,0.4-0.1,0.4-0.4V84.7
		C180.9,84.5,180.8,84.3,180.5,84.3z"/>
	<path d="M190.6,84c-4.9,0-7.9,3.3-7.9,8.6s3,8.6,8.1,8.6c5,0,8.1-3.3,8.1-8.4C198.7,87.2,195.8,84,190.6,84L190.6,84z M190.7,97.8
		c-2.3,0-3.8-2-3.8-5.3c0-3.3,1.5-5.3,3.8-5.3c2.3,0,3.8,2,3.8,5.3C194.5,95.8,193,97.8,190.7,97.8z"/>
	<path d="M209.5,84c-2.3,0-3.7,0.8-4.9,2.6v-2c0-0.3-0.1-0.4-0.4-0.4h-3.5c-0.3,0-0.4,0.1-0.4,0.4v15.5c0,0.3,0.1,0.4,0.4,0.4h3.5
		c0.3,0,0.4-0.1,0.4-0.4v-9.3c0-1.9,1.3-3.1,3.4-3.1c1.8,0,2.6,1,2.6,2.9v9.7c0,0.3,0.1,0.4,0.4,0.4h3.5c0.3,0,0.4-0.1,0.4-0.4V89.6
		C215.1,86,213,84,209.5,84L209.5,84z"/>
	<path d="M116.7,84c-4.2,0-6.5,1.8-6.9,5.3c0,0.3,0.1,0.4,0.4,0.4h3.4c0.3,0,0.3-0.1,0.4-0.3c0.3-1.5,1-1.9,2.9-1.9
		c1.6,0,2.4,0.5,2.4,1.6c0,0.5-0.3,1-0.8,1.3c-0.4,0.3-1.3,0.4-2.6,0.6l-1.8,0.3c-3.3,0.5-4.8,2.3-4.8,5.2s2,4.9,4.9,4.9
		c1.6,0,3-0.6,4.4-1.8c0.3-0.3,0.5,0,0.6,0.3c0,0.3,0.1,0.5,0.4,0.8c0,0.1,0.1,0.1,0.3,0.1h3c0.3,0,0.4-0.1,0.4-0.4V89.1
		C123.4,85.7,121.1,84,116.7,84L116.7,84z M119.2,94c0,2.4-1.3,3.8-3.3,3.8c-1.4,0-2.3-0.8-2.3-2s0.6-1.9,2.4-2.3l1.5-0.3
		c0.8-0.1,1-0.3,1.3-0.3c0.3-0.1,0.5,0.1,0.5,0.4L119.2,94L119.2,94L119.2,94z"/>
	<path d="M174.2,87.1c0.3,0,0.3-0.1,0.4-0.4l0.9-2c0-0.3,0-0.4-0.4-0.4h-2.4v-4.5c0-0.3-0.3-0.4-0.5-0.4l-3.5,0.8
		c-0.1,0-0.3,0.3-0.3,0.4v6.2c0,0.3,0.1,0.4,0.4,0.4h2.9l-3,1.8c-0.1,0.1-0.3,0.3-0.3,0.5v7.6c0,2.5,1.4,3.8,4.2,3.8
		c0.9,0,1.5,0,2.1-0.3c0.1,0,0.3-0.3,0.3-0.4v-2.3c0-0.3-0.3-0.4-0.4-0.4c-0.3,0-0.4,0-0.5,0c-1.1,0-1.4-0.4-1.4-1.8V87L174.2,87.1
		L174.2,87.1z"/>
	<path d="M97.3,84.3h-3.5c-0.3,0-0.4,0.1-0.4,0.4v15.5c0,0.3,0.1,0.4,0.4,0.4h3.5c0.3,0,0.4-0.1,0.4-0.4V84.7
		C97.7,84.5,97.5,84.3,97.3,84.3z"/>
	<path d="M97.4,78.8h-3.5c-0.3,0-0.4,0.1-0.4,0.4v3c0,0.3,0.1,0.4,0.4,0.4h3.5c0.3,0,0.4-0.1,0.4-0.4v-3
		C97.8,78.9,97.7,78.8,97.4,78.8z"/>
	<path d="M180.7,78.8h-3.5c-0.3,0-0.4,0.1-0.4,0.4v3c0,0.3,0.1,0.4,0.4,0.4h3.5c0.3,0,0.4-0.1,0.4-0.4v-3
		C180.9,78.9,180.8,78.8,180.7,78.8z"/>
</g>
<g>
	<path d="M73.7,76.8h-4.2L57.1,98.2L51.3,88l-2.5,4.3L55,103c0.1,0.1,0.3,0.3,0.4,0.3h3.8c0.1,0,0.3-0.1,0.4-0.3l14.7-25.6
		C74.2,77.2,74,76.8,73.7,76.8L73.7,76.8z"/>
	<path d="M57,94.3l10.2-17.5h-4.8c-0.1,0-0.3,0.1-0.4,0.3l-5,8.6l-5-8.6c0-0.1-0.3-0.3-0.4-0.3H40.4c-0.4,0-0.5,0.4-0.4,0.6
		l7.4,12.8l3.7-6.3L57,94.3L57,94.3z"/>
</g>
</svg>
