<?xml version="1.0" encoding="utf-8"?>
<!-- Generator: Adobe Illustrator 25.3.1, SVG Export Plug-In . SVG Version: 6.00 Build 0)  -->
<svg version="1.1" id="Page-1" xmlns="http://www.w3.org/2000/svg" xmlns:xlink="http://www.w3.org/1999/xlink" x="0px" y="0px"
	 viewBox="0 0 210 84" style="enable-background:new 0 0 210 84;" xml:space="preserve">
<style type="text/css">
	.st0{fill:#000;}
</style>
<g id="virtana-logo" transform="translate(0 0)">
	<path id="Path" class="st0" d="M107.2,35.7c-1-0.2-2-0.4-3-0.4c-3.6,0-5.6,2.1-5.6,5.5v11.6c0,1.3,0,1.3,1.4,1.3s1.4,0,1.4-1.3
		V41.1c0-2.2,1-3,3-3c0.6,0,1.2,0.1,1.8,0.2c0.3,0.1,0.7,0.2,1,0.2c0.4,0,0.5-0.2,0.8-1.1c0.1-0.3,0.2-0.6,0.3-0.9
		C108.3,36.1,107.7,35.9,107.2,35.7z"/>
	<path id="Path-2" class="st0" d="M94.3,35.7c-1.4,0-1.4,0-1.4,1.4v15.3c0,1.3,0,1.3,1.4,1.3s1.4,0,1.4-1.3V37
		C95.7,35.7,95.7,35.7,94.3,35.7z"/>
	<path id="Path-3" class="st0" d="M94.3,30c-1.6,0-1.6,0-1.6,1.7s0,1.7,1.6,1.7c1.6,0,1.7,0,1.7-1.7S95.9,30,94.3,30z"/>
	<path id="Shape" class="st0" d="M161.8,35.3c-1.8,0-3.6,0.4-5.3,1.1c-0.5,0.2-0.7,0.4-0.7,0.6c0,0.4,0.2,0.7,0.4,1.1
		c0.4,0.8,0.5,0.9,0.8,0.9c0.3-0.1,0.6-0.2,0.8-0.3c1.2-0.5,2.6-0.8,4-0.8c3,0,4.3,1.2,4.3,4v1.4c-1.6-0.4-3.2-0.7-4.8-0.8
		c-4.6,0-6.8,2.5-6.8,5.6c0,3.4,2.3,5.8,6.8,5.8c2.5,0.1,4.9-0.6,7-1.9c0.4-0.2,0.7-0.7,0.6-1.1v-9.1
		C168.7,37.2,166.3,35.3,161.8,35.3z M166,50.2c-1.3,0.9-2.9,1.4-4.6,1.4c-3,0-4.4-1.1-4.4-3.3c0-1.8,1.4-3.3,4.4-3.3
		c1.5,0,3.1,0.3,4.6,0.8V50.2z"/>
	<path id="Path-4" class="st0" d="M145,35.4c-2.5-0.1-5,0.6-7.1,1.9c-0.4,0.3-0.6,0.7-0.6,1.2v14c0,1.3,0,1.3,1.4,1.3
		c1.4,0,1.4,0,1.4-1.3V39.3c1.4-0.8,3.1-1.2,4.7-1.2c2.5,0,4.6,1.4,4.6,4.5v9.8c0,1.3,0,1.3,1.4,1.3c1.4,0,1.4,0,1.4-1.3v-10
		C152.3,37.9,149.9,35.4,145,35.4z"/>
	<path id="Shape-2" class="st0" d="M128,35.3c-1.8,0-3.6,0.4-5.2,1.1c-0.5,0.2-0.7,0.4-0.7,0.6c0,0.4,0.2,0.7,0.4,1.1
		c0.3,0.8,0.5,0.9,0.8,0.9c0.3-0.1,0.6-0.2,0.8-0.3c1.2-0.5,2.6-0.8,4-0.8c3,0,4.3,1.2,4.3,4v1.4c-1.6-0.4-3.2-0.7-4.8-0.8
		c-4.6,0-6.8,2.5-6.8,5.6c0,3.4,2.3,5.8,6.8,5.8c2.5,0.1,4.9-0.6,7-1.9c0.4-0.2,0.7-0.7,0.5-1.1v-9.1C135,37.2,132.5,35.3,128,35.3z
		 M132.3,50.2c-1.3,0.9-2.9,1.4-4.6,1.4c-2.9,0-4.4-1.1-4.4-3.3c0-1.8,1.4-3.3,4.4-3.3c1.5,0,3.1,0.3,4.6,0.8V50.2z"/>
	<path id="Path-5" class="st0" d="M118.7,50.6c-0.2,0-0.5,0.1-0.7,0.2c-0.8,0.4-1.7,0.5-2.7,0.5c-1.9,0-2.7-1.1-2.7-3v-10h5.2
		c1.4,0,1.4,0,1.4-1.3s0-1.4-1.4-1.4h-5.2v-2.9c0-1.4,0-1.4-1.4-1.4s-1.4,0-1.4,1.4v15.5c0,3.3,1.6,5.7,5.2,5.7c1.4,0,2.7-0.2,4-0.8
		c0.5-0.2,0.8-0.4,0.8-0.7c0-0.2,0-0.2-0.3-1S119,50.6,118.7,50.6z"/>
	<path id="Path-6" class="st0" d="M89.2,35.9c-0.3-0.1-0.7-0.2-1.1-0.3c-0.3,0-0.5,0.2-0.6,0.8l-5.8,14.4l-0.1,0.1l-0.1-0.2
		l-5.9-14.3c-0.2-0.5-0.3-0.8-0.6-0.8c-0.4,0.1-0.7,0.2-1.1,0.3c-0.9,0.3-1.1,0.5-1.1,0.7c0.1,0.3,0.2,0.7,0.3,1l6.2,15.1
		c0.4,1.1,0.4,1.1,2.3,1.1s1.9,0,2.3-1.1l6.2-15c0.1-0.3,0.2-0.6,0.3-1C90.3,36.3,90.2,36.2,89.2,35.9z"/>
	<path id="Shape-3" class="st0" d="M65.3,33.4l-8,19.6c-0.3,0.5-0.8,0.7-1.4,0.8h-5.3c-0.5,0-0.9-0.5-0.9-1c0,0,0,0,0-0.1
		c0-0.5,0.4-0.9,0.9-0.9h2.8c0.6,0,1-0.5,1.1-1.1c0-0.6-0.4-1.1-1-1.1c0,0,0,0-0.1,0h-4.4c-0.6,0.1-1.1-0.4-1.2-1
		c-0.1-0.6,0.4-1.1,1-1.2c0,0,0,0,0,0h6.3c0.5,0,1-0.4,1-1c0-0.5-0.4-1-1-1h-4.6c-0.6,0-1.1-0.4-1.1-1c-0.1-0.6,0.4-1.1,0.9-1.1
		c0,0,0,0,0.1,0h0.9c0.6,0,1-0.5,1-1.1c0-0.5-0.5-1-1-1h-5.7c-0.6,0-1-0.4-1.1-1c0,0,0,0,0,0c0-0.5,0.4-1,0.9-1c0,0,0,0,0.1,0h9.1
		c0.6,0,1-0.5,1-1.1c0,0,0,0,0,0c0-0.5-0.4-1-1-1h-2.5c-0.6,0-1.1-0.4-1.1-1s0.4-1.1,1-1.1c0,0,0,0,0,0h4.3c0.6,0,1-0.4,1-1
		c0-0.5-0.4-1-1-1h-1.8c-0.6,0-1-0.5-1-1.1c0-0.5,0.5-1,1-1h9.7C65.4,31.2,65.9,32.1,65.3,33.4z M48.6,44.5c0-0.6-0.4-1.1-1-1.1
		c0,0,0,0-0.1,0h-0.2c-0.6,0-1,0.5-1,1.1c0,0,0,0,0,0c0,0.5,0.5,1,1,1h0.2C48.1,45.6,48.6,45.1,48.6,44.5
		C48.6,44.5,48.6,44.5,48.6,44.5z M50.2,36.3c0-0.6-0.4-1.1-1-1.1c0,0,0,0-0.1,0H44c-0.6,0.1-1,0.6-1,1.1c0,0.5,0.5,1,1,1h5.2
		C49.7,37.3,50.2,36.9,50.2,36.3C50.2,36.3,50.2,36.3,50.2,36.3L50.2,36.3z M49.4,33.2h1.5c0.6,0,1-0.4,1.1-1c0,0,0,0,0,0
		c0-0.5-0.4-1-0.9-1.1c0,0-0.1,0-0.1,0h-1.7c-0.6,0-1.1,0.4-1.1,1c0,0.6,0.4,1.1,1,1.1c0,0,0,0,0,0H49.4z M47.5,32.2
		c0-0.5-0.4-1-1-1h-4.3c-0.6,0-1.1,0.4-1.1,1c0,0.6,0.4,1.1,1,1.1c0,0,0,0,0,0h4.3C47.1,33.2,47.5,32.8,47.5,32.2
		C47.5,32.2,47.5,32.2,47.5,32.2L47.5,32.2z"/>
	<path id="Path-7" class="st0" d="M107.2,35.7c-1-0.2-2-0.4-3-0.4c-3.6,0-5.6,2.1-5.6,5.5v11.6c0,1.3,0,1.3,1.4,1.3s1.4,0,1.4-1.3
		V41.1c0-2.2,1-3,3-3c0.6,0,1.2,0.1,1.8,0.2c0.3,0.1,0.7,0.2,1,0.2c0.4,0,0.5-0.2,0.8-1.1c0.1-0.3,0.2-0.6,0.3-0.9
		C108.3,36.1,107.7,35.9,107.2,35.7z"/>
	<path id="Path-8" class="st0" d="M94.3,35.7c-1.4,0-1.4,0-1.4,1.4v15.3c0,1.3,0,1.3,1.4,1.3s1.4,0,1.4-1.3V37
		C95.7,35.7,95.7,35.7,94.3,35.7z"/>
	<path id="Path-9" class="st0" d="M94.3,30c-1.6,0-1.6,0-1.6,1.7s0,1.7,1.6,1.7c1.6,0,1.7,0,1.7-1.7S95.9,30,94.3,30z"/>
	<path id="Shape-4" class="st0" d="M161.8,35.3c-1.8,0-3.6,0.4-5.3,1.1c-0.5,0.2-0.7,0.4-0.7,0.6c0,0.4,0.2,0.7,0.4,1.1
		c0.4,0.8,0.5,0.9,0.8,0.9c0.3-0.1,0.6-0.2,0.8-0.3c1.2-0.5,2.6-0.8,4-0.8c3,0,4.3,1.2,4.3,4v1.4c-1.6-0.4-3.2-0.7-4.8-0.8
		c-4.6,0-6.8,2.5-6.8,5.6c0,3.4,2.3,5.8,6.8,5.8c2.5,0.1,4.9-0.6,7-1.9c0.4-0.2,0.7-0.7,0.6-1.1v-9.1
		C168.7,37.2,166.3,35.3,161.8,35.3z M166,50.2c-1.3,0.9-2.9,1.4-4.6,1.4c-3,0-4.4-1.1-4.4-3.3c0-1.8,1.4-3.3,4.4-3.3
		c1.5,0,3.1,0.3,4.6,0.8V50.2z"/>
	<path id="Path-10" class="st0" d="M145,35.4c-2.5-0.1-5,0.6-7.1,1.9c-0.4,0.3-0.6,0.7-0.6,1.2v14c0,1.3,0,1.3,1.4,1.3
		c1.4,0,1.4,0,1.4-1.3V39.3c1.4-0.8,3.1-1.2,4.7-1.2c2.5,0,4.6,1.4,4.6,4.5v9.8c0,1.3,0,1.3,1.4,1.3c1.4,0,1.4,0,1.4-1.3v-10
		C152.3,37.9,149.9,35.4,145,35.4z"/>
	<path id="Shape-5" class="st0" d="M128,35.3c-1.8,0-3.6,0.4-5.2,1.1c-0.5,0.2-0.7,0.4-0.7,0.6c0,0.4,0.2,0.7,0.4,1.1
		c0.3,0.8,0.5,0.9,0.8,0.9c0.3-0.1,0.6-0.2,0.8-0.3c1.2-0.5,2.6-0.8,4-0.8c3,0,4.3,1.2,4.3,4v1.4c-1.6-0.4-3.2-0.7-4.8-0.8
		c-4.6,0-6.8,2.5-6.8,5.6c0,3.4,2.3,5.8,6.8,5.8c2.5,0.1,4.9-0.6,7-1.9c0.4-0.2,0.7-0.7,0.5-1.1v-9.1C135,37.2,132.5,35.3,128,35.3z
		 M132.3,50.2c-1.3,0.9-2.9,1.4-4.6,1.4c-2.9,0-4.4-1.1-4.4-3.3c0-1.8,1.4-3.3,4.4-3.3c1.5,0,3.1,0.3,4.6,0.8V50.2z"/>
	<path id="Path-11" class="st0" d="M118.7,50.6c-0.2,0-0.5,0.1-0.7,0.2c-0.8,0.4-1.7,0.5-2.7,0.5c-1.9,0-2.7-1.1-2.7-3v-10h5.2
		c1.4,0,1.4,0,1.4-1.3s0-1.4-1.4-1.4h-5.2v-2.9c0-1.4,0-1.4-1.4-1.4s-1.4,0-1.4,1.4v15.5c0,3.3,1.6,5.7,5.2,5.7c1.4,0,2.7-0.2,4-0.8
		c0.5-0.2,0.8-0.4,0.8-0.7c0-0.2,0-0.2-0.3-1S119,50.6,118.7,50.6z"/>
	<path id="Path-12" class="st0" d="M89.2,35.9c-0.3-0.1-0.7-0.2-1.1-0.3c-0.3,0-0.5,0.2-0.6,0.8l-5.8,14.4l-0.1,0.1l-0.1-0.2
		l-5.9-14.3c-0.2-0.5-0.3-0.8-0.6-0.8c-0.4,0.1-0.7,0.2-1.1,0.3c-0.9,0.3-1.1,0.5-1.1,0.7c0.1,0.3,0.2,0.7,0.3,1l6.2,15.1
		c0.4,1.1,0.4,1.1,2.3,1.1s1.9,0,2.3-1.1l6.2-15c0.1-0.3,0.2-0.6,0.3-1C90.3,36.3,90.2,36.2,89.2,35.9z"/>
	<path id="Shape-6" class="st0" d="M65.3,33.4l-8,19.6c-0.3,0.5-0.8,0.7-1.4,0.8h-5.3c-0.5,0-0.9-0.5-0.9-1c0,0,0,0,0-0.1
		c0-0.5,0.4-0.9,0.9-0.9h2.8c0.6,0,1-0.5,1.1-1.1c0-0.6-0.4-1.1-1-1.1c0,0,0,0-0.1,0h-4.4c-0.6,0.1-1.1-0.4-1.2-1
		c-0.1-0.6,0.4-1.1,1-1.2c0,0,0,0,0,0h6.3c0.5,0,1-0.4,1-1c0-0.5-0.4-1-1-1h-4.6c-0.6,0-1.1-0.4-1.1-1c-0.1-0.6,0.4-1.1,0.9-1.1
		c0,0,0,0,0.1,0h0.9c0.6,0,1-0.5,1-1.1c0-0.5-0.5-1-1-1h-5.7c-0.6,0-1-0.4-1.1-1c0,0,0,0,0,0c0-0.5,0.4-1,0.9-1c0,0,0,0,0.1,0h9.1
		c0.6,0,1-0.5,1-1.1c0,0,0,0,0,0c0-0.5-0.4-1-1-1h-2.5c-0.6,0-1.1-0.4-1.1-1s0.4-1.1,1-1.1c0,0,0,0,0,0h4.3c0.6,0,1-0.4,1-1
		c0-0.5-0.4-1-1-1h-1.8c-0.6,0-1-0.5-1-1.1c0-0.5,0.5-1,1-1h9.7C65.4,31.2,65.9,32.1,65.3,33.4z M48.6,44.5c0-0.6-0.4-1.1-1-1.1
		c0,0,0,0-0.1,0h-0.2c-0.6,0-1,0.5-1,1.1c0,0,0,0,0,0c0,0.5,0.5,1,1,1h0.2C48.1,45.6,48.6,45.1,48.6,44.5
		C48.6,44.5,48.6,44.5,48.6,44.5z M50.2,36.3c0-0.6-0.4-1.1-1-1.1c0,0,0,0-0.1,0H44c-0.6,0.1-1,0.6-1,1.1c0,0.5,0.5,1,1,1h5.2
		C49.7,37.3,50.2,36.9,50.2,36.3C50.2,36.3,50.2,36.3,50.2,36.3L50.2,36.3z M49.4,33.2h1.5c0.6,0,1-0.4,1.1-1c0,0,0,0,0,0
		c0-0.5-0.4-1-0.9-1.1c0,0-0.1,0-0.1,0h-1.7c-0.6,0-1.1,0.4-1.1,1c0,0.6,0.4,1.1,1,1.1c0,0,0,0,0,0H49.4z M47.5,32.2
		c0-0.5-0.4-1-1-1h-4.3c-0.6,0-1.1,0.4-1.1,1c0,0.6,0.4,1.1,1,1.1c0,0,0,0,0,0h4.3C47.1,33.2,47.5,32.8,47.5,32.2
		C47.5,32.2,47.5,32.2,47.5,32.2L47.5,32.2z"/>
</g>
</svg>
