<?xml version="1.0" encoding="utf-8"?>
<!-- Generator: Adobe Illustrator 25.3.1, SVG Export Plug-In . SVG Version: 6.00 Build 0)  -->
<svg version="1.1" id="Layer_1" xmlns="http://www.w3.org/2000/svg" xmlns:xlink="http://www.w3.org/1999/xlink" x="0px" y="0px"
	 viewBox="0 0 210 84" style="enable-background:new 0 0 210 84;" xml:space="preserve">
<style type="text/css">
	.st0{fill-rule:evenodd;clip-rule:evenodd;fill:#fff;}
</style>
<g id="Group_3" transform="translate(-53.246 -53.808)">
	<path id="Path_9" class="st0" d="M101.2,98.9c1-2.4,1.9-4.6,2.9-6.9c0.4-0.9,0.8-1.9,1.2-2.8c1.5-3.3,5.4-4.7,8.7-3.2
		c0.7,0.3,1.4,0.8,2,1.4c0.6,0.6,0.8,0.4,1.3,0c2.2-1.9,5.2-2.5,8-1.6c1,0.3,1.8,0.8,2.5,1.6c0.5,0.6,0.7,0.5,1.2,0.1
		c2.6-2,5.5-2.7,8.5-1.4c2.4,0.9,4,3.3,3.9,5.9c0.1,3.6,0,7.3,0,10.9c0.1,1.6-1.1,3-2.7,3.1c-0.2,0-0.4,0-0.6,0
		c-1.5-0.1-2.7-1.4-2.5-3c0,0,0-0.1,0-0.1v-9.7c0-1.4-1.1-2.6-2.5-2.7c-1.5-0.3-2.9,0.6-3.3,2c-0.1,0.4-0.2,0.9-0.1,1.4v8.9
		c0.2,1.4-0.7,2.8-2.1,3.1c-1.5,0.5-3-0.3-3.5-1.8c0,0,0,0,0,0c-0.1-0.1-0.1-0.3-0.1-0.5c-0.1-0.4-0.1-0.8-0.1-1.2v-9
		c0.1-1.1-0.5-2.2-1.5-2.7c-1.1-0.6-2.4-0.4-3.4,0.3c-0.8,0.6-1.2,1.6-1.1,2.6v9.3c0.1,1.5-1,2.9-2.5,3h-0.5c-1.6,0-2.7-1.3-2.7-3.2
		V91.5c0.1-0.4-0.2-0.8-0.6-0.8c-0.4-0.1-0.8,0.1-1,0.5c0,0,0,0,0,0l0,0l-1.8,3.9c-1.2,2.7-2.4,5.3-3.6,7.9
		c-0.3,0.6-0.6,1.1-0.9,1.6c-1.1,1.6-3.3,2.1-5,1c-0.3-0.3-0.7-0.6-0.9-0.9c-0.7-1-1.2-2.1-1.7-3.2c-1.8-3.9-3.6-7.8-5.4-11.8
		c-0.8-1.3-0.4-3,0.9-3.7c0.1-0.1,0.2-0.1,0.3-0.2c1.4-0.7,3-0.1,3.7,1.3c0.1,0.1,0.1,0.2,0.1,0.4c1.5,3.6,3.1,7.2,4.5,10.8
		C100.9,98.4,101,98.6,101.2,98.9z"/>
	<path id="Path_10" class="st0" d="M156.8,90.8l-2.2,6.3c-0.8,2.5-1.8,4.9-2.6,7.3c-0.3,0.9-0.8,1.3-1.6,1.4c-0.8,0-1.5-0.5-1.8-1.3
		c-2-5.5-4-11.1-6-16.6c-0.3-0.7-0.1-1.5,0.6-1.9c0,0,0,0,0,0c0,0,0.1,0,0.1-0.1c0.8-0.3,1.6,0.1,1.9,0.8c0,0,0,0,0,0
		c0,0.1,0.1,0.1,0.1,0.3c1.5,4.3,3.1,8.7,4.5,13.1c0.1,0.3,0.2,0.6,0.4,1c0.7-2.1,1.4-4.1,2.1-6c0.9-2.7,1.8-5.3,2.7-7.9
		c0.4-1,0.7-1.4,1.6-1.3c0.8,0,1.2,0.3,1.6,1.4c1.5,4.3,3,8.6,4.4,12.9c0.1,0.3,0.2,0.7,0.4,1c0.8-2.2,1.5-4.3,2.2-6.4
		c0.9-2.6,1.8-5.1,2.7-7.7c0.2-0.6,0.5-1,1.1-1.2c0.7-0.2,1.5,0.2,1.7,1c0.1,0.3,0.1,0.6-0.1,0.9c-0.5,1.4-1,2.9-1.6,4.3
		c-1.5,4.1-2.9,8.1-4.4,12.2c-0.1,0.1-0.1,0.2-0.1,0.3c-0.2,0.7-0.9,1.2-1.7,1.2c-0.8,0-1.4-0.5-1.6-1.3c-0.7-2-1.4-4-2.1-6
		l-2.5-7.2C157.1,91.2,157,91,156.8,90.8C156.9,90.9,156.8,90.8,156.8,90.8z"/>
	<path id="Path_11" class="st0" d="M185.4,102.8c-1.2,1.5-2.9,2.6-4.8,3c-2.9,0.6-5.6,0.3-7.8-1.9c-2.2-2.3-2.2-5.9,0-8.2
		c0.3-0.3,0.7-0.6,1.1-0.8c1.4-0.8,2.9-1.2,4.5-1.3c2.1-0.1,4.2,0.1,6.3,0.6c0.6,0.2,0.6,0,0.6-0.5c0.2-2.6-1.8-4.9-4.4-5.1
		c-0.1,0-0.2,0-0.4,0c-1.9-0.2-3.7,0.1-5.5,0.8c-0.6,0.3-1.3,0.1-1.6-0.5c0,0,0-0.1,0-0.1c0,0,0-0.1-0.1-0.1c0,0,0,0,0,0
		c-0.3-0.6,0-1.3,0.6-1.6h0.1c3.3-1.5,7-1.6,10.4-0.3c2.2,0.9,3.6,3,3.7,5.4c0.2,2.6,0.2,5.1,0.1,7.7v4.5c0.1,0.8-0.5,1.5-1.2,1.6
		c0,0,0,0,0,0l0,0c-0.7,0.1-1.4-0.4-1.6-1.1v-0.3C185.4,103.9,185.4,103.4,185.4,102.8z M179.9,95.8c-1.5-0.1-3,0.3-4.3,1.1
		c-1.6,1.1-2,3.3-0.9,4.9c0,0,0,0,0,0c0.2,0.3,0.5,0.6,0.8,0.8c1.4,1,3.2,1.4,4.9,1c2.3-0.5,4.2-1.6,4.9-4c0.1-0.8,0.2-1.6,0.1-2.4
		c0.1-0.4-0.2-0.7-0.5-0.8c0,0,0,0,0,0h-0.1C183.2,96,181.6,95.8,179.9,95.8z"/>
	<path id="Path_12" class="st0" d="M212.5,97h-6.4c-0.5,0-0.6,0.1-0.6,0.6c0.5,2.5,1.8,4.5,4.4,5.4c2.6,0.9,5.5,0.3,7.5-1.6
		c0.3-0.3,0.7-0.6,1.2-0.6c0.5,0,0.9,0.3,1.1,0.8c0.2,0.5,0.1,1-0.3,1.4c-3.7,3.8-9.7,4-13.7,0.5c-1.6-1.5-2.6-3.5-2.9-5.6
		c-0.7-3.3,0.3-6.7,2.5-9.2c2.2-2.5,5.6-3.5,8.8-2.5c3.4,0.9,5.3,3.3,6.2,6.6c0.2,0.9,0.3,1.8,0.3,2.7c0,1.2-0.5,1.6-1.7,1.6
		C216.7,97,214.6,97,212.5,97z M211.5,94.8h4.4c2,0,2,0,1.4-1.9c-1-3.4-4.1-5.3-7.3-4.3c-2.5,0.9-4.2,3.2-4.5,5.8
		c-0.1,0.5,0.3,0.4,0.6,0.4C207.8,94.8,209.7,94.8,211.5,94.8L211.5,94.8z"/>
	<path id="Path_13" class="st0" d="M194.7,90.4c0.8-1.7,2.2-3.1,4-3.8c0.8-0.4,1.8-0.7,2.7-0.6c0.7,0,1.4,0.5,1.4,1.2
		c0.1,0.8-0.3,1.5-1.1,1.7l0,0c-0.3,0.1-0.7,0.1-1,0.2c-3.2,0.7-5.6,3.5-5.8,6.8c-0.3,2.8-0.1,5.6-0.1,8.4c0.1,0.8-0.5,1.5-1.3,1.6
		c-0.2,0-0.3,0-0.5-0.1c-0.7-0.1-1.2-0.8-1.1-1.5c0,0,0,0,0,0V87.5c0-1,0.6-1.8,1.4-1.8c0.9,0,1.5,0.6,1.5,1.8v2.6
		C194.6,90.2,194.7,90.2,194.7,90.4z"/>
	<path id="Path_14" class="st0" d="M225.6,88.3c0,1.3-1.1,2.4-2.4,2.4c-1.3,0-2.4-1.1-2.4-2.4c0-1.3,1-2.4,2.3-2.5h0.1
		c1.3,0,2.4,1,2.4,2.3c0,0,0,0,0,0L225.6,88.3z M223.2,86.3c-1.1,0-1.9,0.8-1.9,1.9c0,1.1,0.9,2,1.9,2c1-0.1,1.9-0.9,1.9-1.9
		C225.1,87.2,224.2,86.3,223.2,86.3z"/>
	<path id="Path_15" class="st0" d="M223,87.1c1.2,0,1.4,0.4,1,1.4c-0.1,0.3,0,0.3,0.1,0.5s0.2,0.3,0,0.5c-0.2,0.1-0.3,0-0.5-0.1
		c-0.1-0.1-0.2-0.2-0.3-0.3c-0.3-0.3-0.5-0.5-0.5,0.1c0,0.2-0.1,0.4-0.3,0.4s-0.2-0.3-0.3-0.5v-1C222.2,87.3,222.3,86.9,223,87.1z
		 M223.6,87.8c-0.1-0.3-0.3-0.3-0.5-0.3s-0.3,0.1-0.3,0.3s0.1,0.3,0.4,0.3C223.4,88.2,223.6,88.1,223.6,87.8L223.6,87.8z"/>
	<path id="Path_16" class="st0" d="M223.6,87.8c0,0.2-0.2,0.4-0.5,0.3c-0.3,0-0.4-0.1-0.4-0.3s0.1-0.3,0.3-0.3
		C223.4,87.5,223.6,87.6,223.6,87.8z"/>
</g>
</svg>
