<?xml version="1.0" encoding="utf-8"?>
<!-- Generator: Adobe Illustrator 25.3.1, SVG Export Plug-In . SVG Version: 6.00 Build 0)  -->
<svg version="1.1" id="Layer_1" xmlns="http://www.w3.org/2000/svg" xmlns:xlink="http://www.w3.org/1999/xlink" x="0px" y="0px"
	 viewBox="0 0 210 84" style="enable-background:new 0 0 210 84;" xml:space="preserve">
<style type="text/css">
	.st0{fill:#fff;}
</style>
<g id="Vocera_Logo_White" transform="translate(-0.7 -1)">
	<g id="Group_3398" transform="translate(0.7 5.04)">
		<path id="Path_1110" class="st0" d="M68,39.6c0.1,4.6-3.5,8.3-8.1,8.5c-4.6-0.1-8.1-3.9-8.1-8.5c-0.1-4.6,3.5-8.3,8.1-8.5
			C64.4,31.3,68,35,68,39.6z M66.8,39.6c0-4-3.1-7.5-6.9-7.5S53,35.4,53,39.6c-0.1,3.9,3,7.2,6.9,7.3c0,0,0,0,0,0
			C63.8,46.8,66.9,43.5,66.8,39.6C66.8,39.6,66.8,39.6,66.8,39.6L66.8,39.6z"/>
		<path id="Path_1111" class="st0" d="M77.8,48.1c-4.6-0.1-8.1-3.9-8.1-8.5c-0.1-4.6,3.5-8.3,8.1-8.5c3.4-0.1,6.5,2.1,7.5,5.4h-1.3
			c-1-2.6-3.4-4.3-6.2-4.2c-3.9,0.1-7,3.4-6.9,7.3c0,0,0,0,0,0c-0.1,3.9,3,7.2,6.9,7.3c0,0,0,0,0,0c2.7,0,5.2-1.7,6.2-4.2h1.2
			C84.2,45.9,81.2,48.1,77.8,48.1z"/>
		<path id="Path_1112" class="st0" d="M88,39.6c-0.2,3.9,2.9,7.2,6.7,7.3c0.1,0,0.2,0,0.4,0c3.8,0,5.6-2.1,6.3-4.2h1.2
			c-0.9,3.3-4,5.6-7.5,5.4c-4.6,0-8.3-3.7-8.3-8.2c0-0.1,0-0.2,0-0.2c-0.1-4.6,3.5-8.3,8.1-8.5c4.8,0,8.1,4.4,8.1,8.5L88,39.6z
			 M101.6,38.4c-0.5-3.4-3.3-6-6.7-6.2c-3.5,0.1-6.3,2.7-6.7,6.2H101.6z"/>
		<path id="Path_1113" class="st0" d="M125.9,35.9c0-3.1-2.3-4.8-6.3-4.8c-3.7,0-6.2,1.7-6.7,4.6h1.2c0.8-2.3,2.7-3.5,5.6-3.5
			c2.3,0,5.2,0.8,5.2,3.7c0,1.9-2.3,2.3-6,2.7c-3.5,0.4-6.9,1.2-6.9,4.8c0,3.1,3.5,4.6,6.3,4.6c4,0,7.7-1.2,7.7-5.6
			C125.9,39.4,125.9,35.9,125.9,35.9z M113.2,43.4c0-2.3,1.5-3.3,5.8-3.7c2.3-0.2,4.6-0.4,5.8-1.5v3.8c0,4-2.9,5-6.5,5
			C116.6,46.9,113.2,46.1,113.2,43.4L113.2,43.4z"/>
		<path id="Path_1114" class="st0" d="M112.8,32.3H112c-3-0.2-5.6,2.1-5.8,5.1c0,0.2,0,0.4,0,0.7v9.8h-1.2v-10
			c0-4.2,3.1-6.7,6.9-6.7h1C113,31.1,112.8,32.3,112.8,32.3z"/>
		<path id="Path_1115" class="st0" d="M45.3,48.1c0.5,0.1,1-0.3,1.2-0.8l6-15.8h-1.2l-5.8,15.2l-0.2,0.2l0,0c-0.1,0-0.2-0.1-0.2-0.2
			c0,0,0,0,0,0l-5.8-15.2H38l6,15.8C44.2,47.7,44.7,48,45.3,48.1L45.3,48.1z"/>
	</g>
	<path id="Path_1116" class="st0" d="M172,32.1h-11.2c-2.4,0.1-4.5,1.6-5.4,3.8l-5,11.5l0,0l-5-11.5c-1-2.2-3-3.6-5.4-3.8h-11.2
		c-0.3,0-0.6,0.3-0.6,0.6v0.6c0,0.3,0.2,0.5,0.4,0.6c0,0,0.1,0,0.1,0c1.6,0.3,3.1,1.4,3.8,2.9l5.8,13.5c1.1,2.2,3.3,3.6,5.8,3.7
		h12.3c2.4-0.1,4.7-1.5,5.8-3.7l5.8-13.5c0.7-1.5,2.2-2.6,3.8-2.9c0.4,0,0.4-0.2,0.6-0.6l0.2-0.6C172.5,32.5,172.5,32.1,172,32.1z
		 M144.5,52.9c-2-0.1-3.8-1.3-4.6-3.1l-5.8-13.5c-0.7-1.6-2.1-2.9-3.8-3.3h10c1.9,0.1,3.6,1.3,4.4,3.1l5.4,12.3l-0.4,1
		c-0.8,1.8-2.5,3-4.4,3.1L144.5,52.9L144.5,52.9z M147.7,52.9c0.7-0.3,1.3-0.8,1.7-1.3c0.4-0.4,0.8-1,1-1.5l0,0
		c0.2,0.6,0.5,1.1,1,1.5c0.5,0.6,1.1,1,1.7,1.3H147.7z M167,36.6L161.2,50c-0.9,1.7-2.7,2.8-4.6,2.9H156c-1.9-0.1-3.7-1.3-4.4-3.1
		l-0.4-1l5.4-12.3c0.8-1.8,2.5-2.9,4.4-3.1h10C169.2,33.7,167.7,34.9,167,36.6z"/>
</g>
</svg>
