<?xml version="1.0" encoding="utf-8"?>
<!-- Generator: Adobe Illustrator 25.3.1, SVG Export Plug-In . SVG Version: 6.00 Build 0)  -->
<svg version="1.1" id="WeWork" xmlns="http://www.w3.org/2000/svg" xmlns:xlink="http://www.w3.org/1999/xlink" x="0px" y="0px"
	 viewBox="0 0 210 84" style="enable-background:new 0 0 210 84;" xml:space="preserve">
<style type="text/css">
	.st0{fill:#fff;}
</style>
<g id="Group_33" transform="translate(0 0)">
	<path id="Path_252" class="st0" d="M50.8,41.5c0.7,0,1.4,0.1,2.1,0.1c0.9,0.3,1.5,1.1,1.6,2c0,0.4-0.1,0.8-0.1,1.1
		c-0.7,1.6-1.5,3.1-2.3,4.6c-0.8-1.2-2.5-4.6-3.1-6c-0.2-0.4-0.3-0.8-0.4-1.3C48.5,41.7,49.4,41.5,50.8,41.5z M40.8,41.5
		c0.8,0.1,1.5,0.7,1.8,1.4c2.2,4,4.3,8.4,6.5,12.7c0.3,0.2,0.6,0.3,1,0.3c0.4,0.1,0.7,0,1-0.3c1-1.9,3.6-7,4.8-9
		c1.3,2.4,3.6,6.9,4.6,9c0.3,0.2,0.6,0.3,1,0.3c0.4,0.1,0.7,0,1-0.3c1.9-4.1,3.8-8.1,6-12.2c0.7-1.4,1-1.8,2.5-2.1l0.6-0.1
		c0.4-0.4,0.3-1.2-0.1-1.3c-1,0.1-2.1,0.1-3.4,0.1c-1.1,0-2.1-0.1-3.6-0.1c-0.4,0.2-0.4,1.1-0.2,1.3l0.8,0.1
		c0.8,0.1,1.1,0.4,1.1,0.6c-0.1,0.5-0.2,1-0.4,1.5c-0.7,1.8-1.4,3.6-2.4,5.8c-0.9-1.8-2.2-4.3-3-6.1c-0.2-0.4-0.3-0.8-0.4-1.2
		c0-0.2,0.6-0.4,1.6-0.6l0.6-0.1c0.3-0.1,0.4-1.3-0.1-1.3c-2.5,0.1-5.1,0.1-7.8,0.1h-8.9c-1.9,0-3.3-0.1-5.1-0.1
		c-0.4,0.2-0.4,1-0.1,1.3L40.8,41.5L40.8,41.5z"/>
	<path id="Path_253" class="st0" d="M77.7,41.3c1.5,0,2.3,0.8,2.3,2.1c0,0.4-0.1,0.8-0.3,0.9c-0.6,0.3-1.2,0.4-1.8,0.3h-1.6
		c-1.4,0-2,0-2-0.6C74.2,42.8,75.8,41.3,77.7,41.3L77.7,41.3z M77.7,55.9c3.2,0.1,6.2-1.6,7.7-4.4c0-0.5-0.5-0.9-1-0.9
		c0,0,0,0-0.1,0h-0.1c-0.9,1.4-2.5,2.1-4.1,2c-4.1,0-6.3-2.8-6.3-5.6c0-0.6,0.1-0.7,1.1-0.7h8.5c1.4,0,1.6-0.6,1.6-1.3
		c0-2.9-2.5-5.5-7.1-5.5c-5.5,0-9.5,3.8-9.5,8.6C68.5,52.3,71.7,55.9,77.7,55.9L77.7,55.9z M96.3,41.5c0.7,0,1.4,0.1,2.1,0.1
		c0.9,0.3,1.5,1.1,1.6,2c0,0.4-0.1,0.8-0.1,1.1c-0.7,1.6-1.5,3.1-2.3,4.6c-0.8-1.2-2.5-4.6-3.1-6c-0.2-0.4-0.3-0.8-0.4-1.3
		C94.1,41.7,94.9,41.5,96.3,41.5L96.3,41.5z M86.3,41.5c0.8,0.1,1.5,0.7,1.8,1.4c2.1,4,4.3,8.4,6.5,12.7c0.6,0.4,1.4,0.4,2,0
		c1-1.9,3.7-7,4.8-9c1.3,2.4,3.6,6.9,4.6,9c0.6,0.4,1.4,0.4,2,0c1.9-4.1,3.8-8.1,6-12.2c0.7-1.4,1-1.8,2.4-2.1l0.6-0.1
		c0.4-0.4,0.3-1.2-0.1-1.3c-1,0.1-2.1,0.1-3.4,0.1c-1.2,0-2.4-0.1-3.6-0.1c-0.4,0.2-0.4,1.1-0.2,1.3l0.8,0.1
		c0.8,0.1,1.1,0.4,1.1,0.6c-0.1,0.5-0.2,1-0.4,1.5c-0.7,1.8-1.4,3.6-2.5,5.8c-0.9-1.8-2.2-4.3-3-6.1c-0.2-0.4-0.3-0.8-0.4-1.2
		c0-0.2,0.6-0.4,1.6-0.6l0.7-0.1c0.3-0.1,0.4-1.3-0.1-1.3c-2.8,0.1-5,0.1-7.8,0.1h-8.9c-1.7,0-3.4-0.1-5.1-0.1
		c-0.4,0.2-0.4,1-0.1,1.3L86.3,41.5L86.3,41.5z"/>
	<path id="Path_254" class="st0" d="M124.1,41.3c2.5,0,3.8,3.2,3.8,6.9c0.1,3.4-0.8,6-3.3,6c-2.6,0-4-2.9-4-7
		C120.6,43,122.2,41.3,124.1,41.3L124.1,41.3z M124.1,55.9c5.4,0,10.1-2.6,10.1-8.2c0-5.4-4.7-8.1-9.9-8.1s-10.2,3-10.1,8.5
		C114.3,53.3,118.9,55.9,124.1,55.9z"/>
	<path id="Path_255" class="st0" d="M141.9,42.7c0.6,0.1,1.2,0.3,1.7,0.8c0.5,0.4,1.1,0.7,1.7,0.7c1.4,0,2.8-0.8,2.8-2.5
		c0-1.3-1-2.3-2.3-2.3c0,0-0.1,0-0.1,0h-0.1c-1.9,0-3.1,1.3-4.3,1.9c-0.4-0.1-0.4-0.2-0.4-0.4c0-0.5,0.1-1.1,0.2-1.6
		c-0.2-0.2-0.5-0.4-0.8-0.4c-2.1,1-4.2,1.8-6.5,2.3c-0.3,0.3-0.3,0.8,0,1.1c0,0,0,0,0,0l0.6,0.4c0.8,0.4,0.8,0.9,0.8,2.4v5.8
		c0,2.7-0.2,3-1.6,3.1l-0.8,0.1c-0.4,0.3-0.4,0.9,0,1.3c0,0,0,0,0,0l0,0c1.8-0.1,3.4-0.1,5.2-0.1c2.1,0,3.8,0.1,6,0.1
		c0.4-0.4,0.4-0.9,0.1-1.3l0,0l-1.4-0.1c-1.4-0.1-1.6-0.4-1.6-3.1V45C141,43.6,141.2,42.7,141.9,42.7"/>
	<path id="Path_256" class="st0" d="M159.2,54l-0.6,0.1c-0.3,0.4-0.3,0.9,0.1,1.3c0.1,0,0.1,0.1,0.1,0.1c1.3-0.1,2.8-0.1,5.4-0.1
		c2.6,0,4.2,0.1,5.6,0.1c0.4-0.3,0.5-0.8,0.3-1.2c0,0,0,0,0,0c0-0.1-0.1-0.1-0.1-0.1l-0.6-0.1c-0.9-0.1-1.8-0.4-2.6-0.9
		c-1.1-0.9-5-6.1-5.8-7.3c-0.2-0.2-0.3-0.4-0.3-0.6c0-0.2,0.1-0.4,0.3-0.5c0.9-0.8,1.9-1.5,2.9-2.2c0.9-0.7,1.9-1.1,2.9-1.3l1.4-0.3
		c0.3-0.4,0.3-1-0.1-1.3l-0.1-0.1c-2.8,0.3-5.6,0.5-8.3,0.6h-1.1c-0.4,0.3-0.5,0.8-0.2,1.1c0,0.1,0.1,0.1,0.2,0.2l1.1,0.2
		c0.4,0,0.8,0.2,0.8,0.4c0,0.3-0.2,0.6-1.1,1.5l-1.9,1.9c-0.7,0.7-1.6,1.1-2.6,1.1c-0.5,0-0.6-0.1-0.6-0.6V33.9c0-2.4,0.1-4,0.1-5.6
		c-0.2-0.2-0.5-0.3-0.8-0.3c-2.2,0.9-4.5,1.6-6.8,2.1c-0.3,0.3-0.3,0.8,0,1.1c0,0,0,0,0,0l0.8,0.4c0.9,0.4,0.9,0.9,0.9,2.4v16.8
		c0,2.7-0.2,3-1.8,3.1l-0.8,0.1c-0.3,0.4-0.3,0.9,0,1.3c0,0,0,0,0,0l0,0c1.8-0.1,3.6-0.1,5.4-0.1c2,0,3.9,0.1,5.3,0.1
		c0.4-0.4,0.4-0.9,0.1-1.3l0,0l-0.7-0.1c-1.6-0.2-1.8-0.4-1.8-3.1v-2.2c0-0.8,0.3-0.9,0.5-0.9c0.4,0,0.9,0.2,1.1,0.6l3.1,4.1
		c0.3,0.4,0.6,0.8,0.8,1.3C159.9,53.9,159.7,54,159.2,54"/>
</g>
</svg>
