<?xml version="1.0" encoding="utf-8"?>
<!-- Generator: Adobe Illustrator 25.3.1, SVG Export Plug-In . SVG Version: 6.00 Build 0)  -->
<svg version="1.1" id="Layer_1" xmlns="http://www.w3.org/2000/svg" xmlns:xlink="http://www.w3.org/1999/xlink" x="0px" y="0px"
	 viewBox="0 0 210 84" style="enable-background:new 0 0 210 84;" xml:space="preserve">
<style type="text/css">
	.st0{fill:#000;}
</style>
<g id="zymergen-inc-logo-vector" transform="translate(28.7 -25.1)">
	<path id="Path_146" class="st0" d="M26.6,60.2H4.7v-4.4h21.9V60.2z M24.9,60.5L4.7,69l1.7,4l20.2-8.4L24.9,60.5z M26.6,73.3H4.7
		v4.4h21.9V73.3z"/>
	<path id="Path_147" class="st0" d="M39.7,60.2h10.9v2.4L43.3,71v0h7.4v2.4H39.7v-2.4l7.4-8.3v0h-7.4V60.2z M57.9,70L57.9,70
		l-3.3-9.8h-3.2l4.8,13.3c-0.4,1.7-1.2,1.9-2.4,1.9H53v2.4h1.7c2.5,0,3.2-0.5,4.2-3.1l5.5-14.5h-3.1L57.9,70z M80.2,59.9
		c-1.7-0.1-3.4,0.8-4.2,2.4c-0.7-1.5-2.2-2.5-3.9-2.4c-1.5,0-2.8,0.7-3.6,1.9h0v-1.6h-2.8v13.1h2.9v-7.1c0-2.5,1-4,2.8-4
		c1.5,0,2.4,1.1,2.4,2.9v8.1h2.9v-7.1c0-2.5,1-4,2.8-4c1.5,0,2.4,0.9,2.4,3.3v7.8h3v-8.2C84.7,61.7,83,59.9,80.2,59.9 M143.1,59.9
		c-1.6,0-3,0.7-3.9,2h0v-1.7h-2.8v13.1h2.9V66c0-2.5,1.3-3.8,3-3.8s2.7,0.9,2.7,3.3v7.8h2.9v-8C147.9,61.7,146.1,59.9,143.1,59.9
		 M107.9,60.2c-0.4-0.1-0.7-0.1-1.1-0.1c-1.5-0.1-3,0.8-3.8,2.1h0v-1.9h-2.7v13.1h2.9v-6.4c0-2.7,1.3-4.2,3.6-4.2c0.3,0,0.7,0,1,0.1
		L107.9,60.2 M114.1,59.9c1.6,0,3,0.8,3.8,2.2h0v-1.8h2.8v12.3c0,3.9-2.3,5.8-6,5.8c-2.7,0-4.4-0.9-5.2-2.4l2.6-1.1
		c0.3,0.9,1.2,1.4,2.6,1.4c2,0,3.1-1,3.1-3.8v-1.3h0c-0.8,1.3-2.2,2.1-3.8,2.1c-3.4,0-5.5-2.6-5.5-6.7
		C108.5,62.5,110.7,59.9,114.1,59.9 M114.7,62.3c-1.9,0-3.1,1.6-3.1,4.2c0,2.6,1.2,4.3,3.1,4.3c2,0,3.2-1.7,3.2-4.3
		C117.9,64,116.7,62.3,114.7,62.3 M98.6,69.9c-0.7,2-2.9,3.8-6.1,3.8c-4,0-6.6-2.9-6.6-7.1c0-3.9,2.5-6.8,6.5-6.8
		c2.8-0.1,5.4,1.7,6.1,4.5c0.3,1,0.4,2,0.4,3.1h-10c0,3,1.7,4.2,3.6,4.2c1.2,0.1,2.4-0.5,3-1.6H98.6L98.6,69.9z M92.5,62
		c-1.9,0-3.3,1.2-3.5,3.5h7C95.8,63.1,94.4,62,92.5,62 M134.7,69.9c-0.7,2-2.9,3.8-6.1,3.8c-4,0-6.6-2.9-6.6-7.1
		c0-3.9,2.5-6.8,6.5-6.8c2.8-0.1,5.4,1.7,6.1,4.5c0.3,1,0.4,2,0.4,3.1h-10c0,3,1.7,4.2,3.6,4.2c1.2,0.1,2.4-0.5,3-1.6H134.7
		L134.7,69.9z M128.5,62c-1.9,0-3.3,1.2-3.5,3.5h7C131.8,63.1,130.4,62,128.5,62"/>
</g>
</svg>
