<?xml version="1.0" encoding="UTF-8"?>
<svg xmlns="http://www.w3.org/2000/svg" version="1.1" viewBox="0 0 71.8 34">
  <!-- Generator: Adobe Illustrator 28.7.1, SVG Export Plug-In . SVG Version: 1.2.0 Build 142)  -->
  <g>
    <g id="Layer_1">
      <g>
        <path d="M11.4,8.2l-3.5-1.2c-.5-.1-1.1,0-1.4.5L.2,16.3c-.3.5-.3,1,0,1.5l6.3,8.7c.3.4.9.6,1.4.5l3.4-1.1-6.3-8.8,6.4-8.8Z"/>
        <path d="M18.9,22.4v-10.8c0-.5-.4-1-.9-1.2l-5-1.6-6,8.3,5.9,8.2,5-1.7c.5-.2.8-.7.9-1.2Z"/>
        <path d="M33.1,15.9c0-1.7,1.2-2.9,4.2-2.9s4.1,1.2,4.1,2.9v5c0,1.7-1.2,2.9-4.1,2.9s-4.2-1.2-4.2-2.9v-5ZM39.4,16.1c0-.9-.6-1.4-2.2-1.4s-2.2.5-2.2,1.4v4.7c0,.9.6,1.4,2.2,1.4s2.2-.5,2.2-1.4v-4.7Z"/>
        <path d="M49.3,22.6c-.9.8-2.1,1.2-3.3,1.2-1.9,0-2.9-1.1-2.9-2.7v-7.5c0-.3.1-.4.4-.4h1.2c.3,0,.4.1.4.4v7c0,.9.4,1.4,1.5,1.4s2.3-.7,2.7-1.1v-7.4c0-.3.1-.4.4-.4h1.2c.3,0,.4.1.4.4v9.6c0,.3-.1.4-.4.4h-1.1c-.3,0-.4-.1-.4-.4v-.6c0,0,0,0,0,0Z"/>
        <path d="M54.4,13.2c.3,0,.4.1.4.4v.7c1-.8,2.2-1.3,3.5-1.2,1.9,0,2.9,1.1,2.9,2.7v7.4c0,.3-.1.4-.4.4h-1.2c-.3,0-.4-.1-.4-.4v-7c0-.9-.4-1.4-1.5-1.4s-2.4.7-2.8,1.1v7.3c0,.3-.1.4-.4.4h-1.2c-.3,0-.4-.1-.4-.4v-9.6c0-.3.1-.4.4-.4h1.1Z"/>
        <path d="M67.7,13.2c.3,0,.4.1.4.4v.9c0,.3-.1.4-.4.4h-2.1v5.8c0,.9.5,1.4,2.1,1.4h.4c.3,0,.4.1.4.4v.9c0,.3-.1.4-.4.4h-.7c-2.9,0-3.8-1-3.8-2.9v-6h-1.1c-.3,0-.4-.1-.4-.4v-.7c0-.3.1-.4.4-.4h1c0-.1.1-.1.1-.1v-1.9c0-.3.1-.4.4-.4h1.2c.3,0,.4.1.4.4v1.9h2.1Z"/>
        <path d="M71.8,12.3c0,.4-.2.9-1.4.9s-1.4-.5-1.4-.9v-1.1c0-.4.2-.9,1.4-.9s1.4.5,1.4.9v1.1ZM71.4,11.2c0-.3-.2-.5-1-.5s-1.1.3-1.1.5v1.2c0,.3.2.5,1.1.5s1-.3,1-.5v-1.2h0ZM70.8,12l.2.6c0,0,0,0,0,0h-.2c0,0,0,0,0,0l-.2-.5h-.3v.5c0,0,0,0,0,0h-.2c0,0,0,0,0,0v-1.5c0,0,0,0,0,0h.6c.5,0,.6.3.6.5h0c0,.3,0,.5-.3.5M70.1,11.3v.5h.3c.2,0,.3,0,.3-.2h0c0-.2-.1-.3-.3-.3h-.3Z"/>
        <path d="M32.4,23.2c.2.2,0,.4-.2.4h-1.7c-.3,0-.5-.2-.6-.4l-3.8-5.4h-.5v5.4c0,.3-.1.4-.4.4h-1.3c-.3,0-.4-.1-.4-.4v-12.4c0-.3.1-.4.4-.4h1.3c.3,0,.4.1.4.4v5.4h.5l3.9-5.4c.2-.2.4-.4.7-.4h1.4c.3,0,.4.2.2.4l-4.4,6.1,4.5,6.3h0Z"/>
      </g>
    </g>
  </g>
</svg>