<?xml version="1.0" encoding="UTF-8"?>
<svg xmlns="http://www.w3.org/2000/svg" version="1.1" viewBox="0 0 64.4 34">
  <defs>
    <style>
      .cls-1 {
        fill: #fff;
      }
    </style>
  </defs>
  <!-- Generator: Adobe Illustrator 28.7.1, SVG Export Plug-In . SVG Version: 1.2.0 Build 142)  -->
  <g>
    <g id="Layer_1">
      <g>
        <path class="cls-1" d="M31.7,22.8c-.9-.2-1.8-.3-2.7-.3-2.6,0-4.2,1.4-4.2,3.5s1.3,2.8,2.9,3.3c.2,0,.4.1.6.2.7.2,1.2.5,1.2,1.1s-.6,1-2.1,1-1.8-.1-2.7-.4v2.6c1,.2,2.1.3,3.1.3,2.2,0,4.6-1,4.6-3.8s-.8-2.6-2.7-3.2l-.8-.3c-.5-.1-1.3-.4-1.3-1.1s.6-.9,1.8-.9,1.5.1,2.2.3v-2.3ZM55.6,28.2c0,1.6-1.3,2.9-2.9,2.9-1.6,0-2.9-1.3-2.9-2.9,0-1.6,1.3-2.9,2.9-2.9s2.9,1.3,2.9,2.9c0,0,0,0,0,0ZM52.7,22.4c-3.2,0-5.7,2.7-5.7,5.9,0,3.2,2.7,5.7,5.9,5.7,3.1,0,5.7-2.7,5.7-5.8s-2.5-5.7-5.7-5.8c0,0-.1,0-.2,0ZM21.1,33.8h-2.8v-11.2h2.8"/>
        <path class="cls-1" d="M14.4,22.8c-.8-.3-1.7-.4-2.6-.4-3.1-.1-5.8,2.3-5.9,5.5v.3c0,3.6,2.8,5.8,5.9,5.8s1.7-.1,2.6-.4v-3c-.8.4-1.6.6-2.4.6-1.6,0-3-1.2-3.1-2.9,0-1.6,1.2-3,2.9-3.1h.2c.8,0,1.6.2,2.4.6"/>
        <path class="cls-1" d="M43.8,22.8c-.8-.3-1.7-.4-2.6-.4-3.1-.1-5.8,2.3-5.9,5.5v.3c0,3.6,2.8,5.8,5.9,5.8s1.7-.1,2.6-.4v-3c-.8.4-1.6.6-2.4.6-1.6,0-3-1.2-3.1-2.9,0-1.6,1.2-3,2.9-3.1h.2c.8,0,1.6.2,2.4.6"/>
        <path class="cls-1" d="M18.2,1.4c0-.8-.6-1.4-1.4-1.4s-1.4.6-1.4,1.4v14.9c0,.8.6,1.4,1.4,1.4s1.4-.6,1.4-1.4V1.4ZM10.5,6.7c0-.8-.6-1.4-1.4-1.4s-1.4.6-1.4,1.4v6.8c0,.8.6,1.4,1.4,1.4s1.4-.6,1.4-1.4v-6.8ZM2.8,10.6c0-.8-.6-1.4-1.4-1.4s-1.4.6-1.4,1.4v2.9c0,.8.6,1.4,1.4,1.4s1.4-.6,1.4-1.4"/>
        <path class="cls-1" d="M15.4,1.4C15.4.7,16,0,16.8,0s1.4.6,1.4,1.4v14.9c0,.8-.6,1.4-1.4,1.4s-1.4-.6-1.4-1.4V1.4ZM23.1,6.7c0-.8.6-1.4,1.4-1.4s1.4.6,1.4,1.4v6.8c0,.8-.6,1.4-1.4,1.4s-1.4-.6-1.4-1.4v-6.8ZM30.8,10.6c0-.8.6-1.4,1.4-1.4s1.4.6,1.4,1.4v2.9c0,.8-.6,1.4-1.4,1.4s-1.4-.6-1.4-1.4"/>
        <path class="cls-1" d="M46.2,1.4c0-.8.6-1.4,1.4-1.4s1.4.6,1.4,1.4v14.8c0,.8-.6,1.4-1.4,1.4s-1.4-.6-1.4-1.4V1.4ZM53.9,6.7c0-.8.6-1.4,1.4-1.4s1.4.6,1.4,1.4v6.8c0,.8-.6,1.4-1.4,1.4s-1.4-.6-1.4-1.4v-6.8ZM61.6,10.6c0-.8.6-1.4,1.4-1.4s1.4.6,1.4,1.4v2.9c0,.8-.6,1.4-1.4,1.4s-1.4-.6-1.4-1.4"/>
        <path class="cls-1" d="M49,1.4c0-.8-.6-1.4-1.4-1.4s-1.4.6-1.4,1.4v14.8c0,.8.6,1.4,1.4,1.4s1.4-.6,1.4-1.4V1.4ZM41.3,6.7c0-.8-.6-1.4-1.4-1.4-.8,0-1.4.7-1.4,1.4v6.8c0,.8.6,1.4,1.4,1.4s1.4-.6,1.4-1.4v-6.8ZM33.6,10.6c0-.8-.6-1.4-1.4-1.4s-1.4.6-1.4,1.4v2.9c0,.8.6,1.4,1.4,1.4s1.4-.6,1.4-1.4"/>
      </g>
    </g>
  </g>
</svg>