<?xml version="1.0" encoding="UTF-8"?>
<svg id="Layer_1" data-name="Layer 1" xmlns="http://www.w3.org/2000/svg" version="1.1" viewBox="0 0 320 180">
  <defs>
    <style>
      .cls-1 {
        fill: #000;
        stroke-width: 0px;
      }
    </style>
  </defs>
  <g id="Cisco_Logo" data-name="Cisco Logo">
    <path id="path10" class="cls-1" d="M154,116.9c-3.8-.9-7.9-1.5-11.7-1.5-11.1,0-17.9,6.2-17.9,15s5.6,12,12.3,14.1c.9.3,1.8.6,2.6.9,2.9.9,5.3,2.3,5.3,4.7s-2.6,4.4-8.8,4.4-7.6-.6-11.4-1.8v11.1c4.4.9,8.8,1.2,13.2,1.2,9.4,0,19.9-4.1,19.9-16.1s-3.5-11.1-11.4-13.8l-3.2-1.2c-2.1-.6-5.6-1.8-5.6-4.7s2.6-3.8,7.6-3.8,6.5.6,9.4,1.5l-.3-10ZM256.3,140.1c0,7-5.6,12.6-12.6,12.3-7,0-12.6-5.6-12.3-12.6,0-6.7,5.6-12.3,12.6-12.3s12.3,5.6,12.6,12.3c-.3,0-.3.3-.3.3M244,115.1c-13.8.3-24.6,11.7-24.3,25.2.3,13.8,11.7,24.6,25.2,24.3,13.5-.3,24.3-11.4,24.3-24.9s-10.8-24.6-24.3-24.9c-.3.3-.6.3-.9.3M108.2,164.1h-12v-48.1h12"/>
    <path id="path12" class="cls-1" d="M79.5,116.9c-3.5-1.2-7.3-1.8-11.1-1.8-13.5-.6-24.9,10-25.5,23.5v1.5c0,15.5,12,24.9,25.5,24.9s7.3-.6,11.1-1.8v-12.9c-3.2,1.8-6.7,2.6-10.3,2.6-7,.3-12.9-5.3-13.2-12.3s5.3-12.9,12.3-13.2h.9c3.5,0,7,.9,10.3,2.6"/>
    <path id="use14" class="cls-1" d="M205.9,116.9c-3.5-1.2-7.3-1.8-11.1-1.8-13.5-.6-24.9,10-25.5,23.5v1.5c0,15.5,12,24.9,25.5,24.9s7.3-.6,11.1-1.8v-12.9c-3.2,1.8-6.7,2.6-10.3,2.6-7,.3-12.9-5.3-13.2-12.3-.3-7,5.3-12.9,12.3-13.2h.9c3.5,0,7,.9,10.3,2.6"/>
    <g id="g22">
      <path id="path16" class="cls-1" d="M95.9,25.3c0-3.2-2.6-5.9-5.9-5.9s-6.2,2.6-6.2,5.9v63.9c0,3.2,2.6,5.9,6.2,5.9s5.9-2.6,5.9-5.9h0V25.3ZM63.1,47.9c0-3.2-2.6-6.2-5.9-6.2s-6.2,2.6-6.2,6.2v29c0,3.2,2.6,6.2,6.2,6.2s5.9-2.6,5.9-6.2v-29ZM29.9,64.6c0-3.2-2.6-5.9-6.2-5.9s-5.9,2.6-5.9,5.9v12.6c0,3.2,2.6,5.9,6.2,5.9s5.9-2.6,5.9-5.9"/>
      <path id="use18" class="cls-1" d="M83.9,25.3c0-3.2,2.6-6.2,6.2-6.2s6.2,2.6,6.2,6.2v63.9c0,3.2-2.6,5.9-6.2,5.9s-6.2-2.6-6.2-5.9V25.3ZM117,47.9c0-3.2,2.6-5.9,6.2-5.9s6.2,2.6,6.2,5.9v29c0,3.2-2.6,5.9-6.2,5.9s-6.2-2.6-6.2-5.9v-29ZM150.1,64.6c0-3.2,2.6-5.9,6.2-5.9s5.9,2.6,5.9,5.9v12.6c0,3.2-2.6,5.9-6.2,5.9s-5.9-2.6-5.9-5.9"/>
    </g>
    <g id="use20">
      <path id="path16-2" class="cls-1" d="M216,25.4c0-3.2,2.6-6.2,5.9-6.2s6.2,2.6,6.2,6.2v63.6c0,3.2-2.6,6.2-6.2,6.2s-5.9-2.6-5.9-6.2V25.4ZM249.1,48c0-3.2,2.6-5.9,5.9-5.9s5.9,2.6,5.9,5.9v29c0,3.2-2.6,6.2-5.9,6.2s-5.9-2.6-5.9-6.2v-29ZM282,64.7c0-3.2,2.6-5.9,6.2-5.9s5.9,2.6,5.9,5.9v12.6c0,3.2-2.6,5.9-6.2,5.9s-5.9-2.6-5.9-5.9"/>
      <path id="use18-2" class="cls-1" d="M228,25.4c0-3.2-2.6-5.9-5.9-5.9s-6.2,2.6-6.2,5.9v63.6c0,3.2,2.6,6.2,6.2,6.2s5.9-2.6,5.9-6.2h0V25.4ZM194.9,48c0-3.2-2.6-6.2-5.9-6.2-3.2.3-6.2,2.9-6.2,6.2v29c0,3.2,2.6,5.9,6.2,5.9s5.9-2.6,5.9-5.9v-29ZM162,64.7c0-3.2-2.6-5.9-6.2-5.9s-5.9,2.6-5.9,5.9v12.6c0,3.2,2.6,5.9,6.2,5.9s5.9-2.6,5.9-5.9"/>
    </g>
  </g>
</svg>