<svg width="279" height="27" viewBox="0 0 279 27" fill="none" xmlns="http://www.w3.org/2000/svg">
<g clip-path="url(#clip0_4022_8571)">
<path fill-rule="evenodd" clip-rule="evenodd" d="M102.331 8.95303L102.888 8.93776L102.893 9.08771L102.336 9.10298L102.331 8.95303Z" fill="black"/>
<path fill-rule="evenodd" clip-rule="evenodd" d="M113.508 8.87675L114.383 8.85276C114.461 9.14074 114.263 9.17618 114.157 9.29913C113.847 9.24761 113.479 9.2577 113.508 8.87675Z" fill="black"/>
<path fill-rule="evenodd" clip-rule="evenodd" d="M141.234 8.62692C141.636 8.77596 141.494 8.66982 141.95 8.60729L141.959 8.90718C141.649 8.87565 141.544 9.01859 141.489 9.22015C141.307 9.1151 141.184 8.95844 141.234 8.63692L141.234 8.62692Z" fill="black"/>
<path fill-rule="evenodd" clip-rule="evenodd" d="M192.338 7.45617C192.235 8.05922 191.27 7.37539 191.15 7.70881C190.772 7.36903 189.581 7.83186 189.222 7.46155C190.508 7.53633 191.453 7.15029 192.337 7.44618L192.338 7.45617Z" fill="black"/>
<path fill-rule="evenodd" clip-rule="evenodd" d="M192.809 7.21318C193.05 7.3066 193.359 7.32814 193.611 7.41129C193.672 7.84976 192.898 7.56087 192.582 7.65956C192.505 7.37158 192.703 7.33614 192.809 7.21318Z" fill="black"/>
<path fill-rule="evenodd" clip-rule="evenodd" d="M201.127 7.43535C200.178 8.03158 197.753 7.44781 196.904 7.70118C196.46 7.49326 195.086 7.4909 194.665 7.76252C194.551 7.5656 194.058 7.74917 194.021 7.48009C194.507 7.05661 195.209 7.62757 195.29 7.29524C196.857 7.46236 199.268 7.16619 201.127 7.43535Z" fill="black"/>
<path fill-rule="evenodd" clip-rule="evenodd" d="M185.723 8.00765C185.757 8.16677 184.809 8.07272 184.452 8.11252C184.666 7.93658 185.202 7.88188 185.723 8.00765Z" fill="black"/>
<path fill-rule="evenodd" clip-rule="evenodd" d="M193.066 7.87639L193.074 8.17628L192.517 8.19155C192.479 7.89248 192.737 7.8554 193.066 7.87639Z" fill="black"/>
<path fill-rule="evenodd" clip-rule="evenodd" d="M198.983 8.01432C199.032 8.3531 198.855 8.43798 199.001 8.68407C199.925 8.60873 200.774 8.74549 201.164 8.77484C201.11 9.01639 200.374 8.66643 200.453 9.01439C199.785 8.95269 199.163 8.77967 198.454 9.0692C198.387 8.82093 198.749 8.94106 198.764 8.76058C198.623 8.69443 198.627 8.49423 198.36 8.55157C198.411 8.23006 198.666 8.10301 198.983 8.01432Z" fill="black"/>
<path fill-rule="evenodd" clip-rule="evenodd" d="M199.301 8.0056L199.619 7.99688C199.612 8.08712 199.643 8.12628 199.703 8.14464C199.648 8.31621 199.246 8.19717 199.301 8.0056Z" fill="black"/>
<path fill-rule="evenodd" clip-rule="evenodd" d="M202.255 7.92461C202.747 8.0612 202.888 8.14735 203.532 8.03966C203.415 8.46304 202.246 8.33501 202.255 7.92461Z" fill="black"/>
<path fill-rule="evenodd" clip-rule="evenodd" d="M217.185 7.51534C217.442 7.41829 217.252 7.75361 217.508 7.65656C217.512 7.8165 217.17 7.69582 217.032 7.73962C217.08 7.65829 217.209 7.65474 217.185 7.51534Z" fill="black"/>
<path fill-rule="evenodd" clip-rule="evenodd" d="M203.701 8.02503L204.099 8.01412C204.155 8.22268 203.612 8.41761 203.701 8.02503Z" fill="black"/>
<path fill-rule="evenodd" clip-rule="evenodd" d="M220.064 7.5765L220.07 7.79642C219.93 7.78024 219.674 7.8773 219.747 7.6552C219.887 7.65138 219.914 7.5606 220.064 7.5765Z" fill="black"/>
<path fill-rule="evenodd" clip-rule="evenodd" d="M221.427 7.53914C221.636 7.53341 221.883 7.49661 221.986 7.59385C221.879 7.7168 222.028 8.06285 221.759 8.04022C221.538 7.97625 221.502 7.73716 221.426 7.52914L221.427 7.53914Z" fill="black"/>
<path fill-rule="evenodd" clip-rule="evenodd" d="M178.548 8.79457L178.56 9.2344C178.301 9.25149 178.208 9.12399 178.154 8.94542C178.404 8.99858 178.246 8.68279 178.547 8.78457L178.548 8.79457Z" fill="black"/>
<path fill-rule="evenodd" clip-rule="evenodd" d="M178.866 8.78583C179.174 8.76738 179.337 8.88297 179.431 9.07045L178.874 9.08572L178.866 8.78583Z" fill="black"/>
<path fill-rule="evenodd" clip-rule="evenodd" d="M181.741 8.70704C181.804 8.82536 181.992 8.81018 181.988 9.00038L181.431 9.01565C181.303 8.70904 181.879 9.02337 181.741 8.70704Z" fill="black"/>
<path fill-rule="evenodd" clip-rule="evenodd" d="M207.851 7.99129C207.856 8.16123 207.997 8.20739 207.943 8.42894C207.607 8.52818 207.592 8.31853 207.382 8.29427C207.436 8.1027 207.542 7.95976 207.851 7.98129L207.851 7.99129Z" fill="black"/>
<path fill-rule="evenodd" clip-rule="evenodd" d="M237.326 7.62352C239.31 7.36906 240.461 7.95775 241.872 7.49891L241.878 7.71883C242.006 8.02544 241.47 7.74001 241.486 7.94966C241.524 8.60886 242.587 7.81943 242.771 8.35459C242.671 8.69746 241.796 8.36132 241.665 8.68502C241.358 8.37332 240.712 8.40103 240.056 8.42903C240.095 8.04781 240.777 8.23919 241.164 8.17857C241.217 7.94702 241.077 7.91085 241.072 7.74092C240.458 7.84779 239.426 7.59598 239.077 7.94567C238.24 7.56845 237.852 8.28936 237.306 7.62407L237.326 7.62352Z" fill="black"/>
<path fill-rule="evenodd" clip-rule="evenodd" d="M204.117 8.68387C204.304 8.96885 203.639 9.0271 203.722 8.76475C203.911 8.78955 203.887 8.62016 204.117 8.68387Z" fill="black"/>
<path fill-rule="evenodd" clip-rule="evenodd" d="M234.939 8.05907C234.916 8.2998 234.495 8.2013 234.39 8.37423C233.79 8.28063 232.648 7.99184 232.148 8.28564C231.956 8.19085 231.784 8.08553 231.428 8.15532C232.22 7.63343 233.769 8.2112 234.939 8.05907Z" fill="black"/>
<path fill-rule="evenodd" clip-rule="evenodd" d="M242.037 7.71446C242.257 7.75845 242.671 7.60705 242.755 7.76481L242.761 7.98472C242.403 7.99454 242.172 7.91084 242.037 7.70447L242.037 7.71446Z" fill="black"/>
<path fill-rule="evenodd" clip-rule="evenodd" d="M243.161 7.68366C243.856 7.99472 244.616 7.39367 244.93 7.93528C244.988 7.88367 245.17 7.61858 245.168 7.92874C245.305 7.82496 245.836 7.57033 245.73 8.06341C245.968 8.05687 245.962 7.82696 246.119 7.75262C247.56 8.01324 249.475 7.80068 250.771 8.21534C250.642 8.619 250.041 8.47542 249.742 8.46361C248.626 8.42418 247.506 8.2248 246.537 8.1113C246.347 8.08649 246.313 8.26752 246.303 8.26779C245.715 8.26388 245.135 8.16974 244.458 8.16829C244.407 8.45981 244.222 8.63493 244.242 8.98453C243.936 8.71281 243.744 8.96817 243.366 9.00852C243.49 8.78506 243.674 8.59995 244.072 8.61903C244.037 8.42992 243.808 8.4162 243.899 8.10359C243.749 8.07769 243.424 8.21664 243.497 7.96455C243.236 7.88167 243.444 8.20609 243.183 8.12322C243.107 7.90521 243.107 7.89521 243.171 7.68338L243.161 7.68366Z" fill="black"/>
<path fill-rule="evenodd" clip-rule="evenodd" d="M207.4 8.96403C207.42 8.61334 207.906 8.91014 207.882 9.10088C207.556 9.20984 207.629 8.94776 207.4 8.96403Z" fill="black"/>
<path fill-rule="evenodd" clip-rule="evenodd" d="M239.093 8.16531C239.001 8.44793 238.043 8.35415 237.822 8.27019C238.203 8.01964 238.615 8.1784 239.093 8.16531Z" fill="black"/>
<path fill-rule="evenodd" clip-rule="evenodd" d="M221.618 8.72434C221.592 8.85511 221.103 9.15863 221.063 8.80958C221.252 8.78441 221.358 8.68145 221.618 8.72434Z" fill="black"/>
<path fill-rule="evenodd" clip-rule="evenodd" d="M252.05 8.41035C251.704 8.49986 251.115 8.77612 251.012 8.28876C251.225 8.08284 252.029 7.99078 252.05 8.41035Z" fill="black"/>
<path fill-rule="evenodd" clip-rule="evenodd" d="M254.119 8.35362C254.186 8.60189 253.957 8.59817 253.891 8.73003C253.455 8.46186 252.943 8.65597 252.442 8.54964C252.826 8.02893 253.317 8.48567 254.119 8.35362Z" fill="black"/>
<path fill-rule="evenodd" clip-rule="evenodd" d="M265.932 7.87976C266.179 7.81297 266.039 8.13694 266.334 8.0188C266.35 8.22845 266.141 8.23417 265.942 8.24962C265.94 8.17965 265.841 8.19237 265.781 8.18401C265.675 7.94683 266.038 8.11694 265.932 7.87976Z" fill="black"/>
<path fill-rule="evenodd" clip-rule="evenodd" d="M238.552 8.78034C238.619 9.01861 239.131 8.8245 239.119 9.13493C239.077 9.41619 238.189 9.3205 238.007 9.23544C237.876 8.80888 238.643 9.16801 238.552 8.78034Z" fill="black"/>
<path fill-rule="evenodd" clip-rule="evenodd" d="M246.464 8.70353L247.021 8.68826C246.996 8.87901 246.992 9.0992 246.876 9.21243C246.558 9.22116 246.433 9.0345 246.464 8.70353Z" fill="black"/>
<path fill-rule="evenodd" clip-rule="evenodd" d="M271.771 8.08985C271.856 7.91746 272.267 8.04623 272.485 8.00025C272.432 8.2218 271.898 8.36648 271.771 8.08985Z" fill="black"/>
<path fill-rule="evenodd" clip-rule="evenodd" d="M239.284 8.98034C239.709 8.86866 239.659 9.22016 240.084 9.10848C240.057 9.5594 239.199 9.48288 239.284 8.98034Z" fill="black"/>
<path fill-rule="evenodd" clip-rule="evenodd" d="M270.896 8.11385L271.294 8.10294C271.419 8.32958 270.783 8.34703 270.896 8.11385Z" fill="black"/>
<path fill-rule="evenodd" clip-rule="evenodd" d="M240.403 9.09975C240.631 9.08348 240.636 9.27341 240.651 9.46307C240.424 9.52932 240.44 9.36883 240.252 9.404C240.146 9.16682 240.509 9.33693 240.403 9.09975Z" fill="black"/>
<path fill-rule="evenodd" clip-rule="evenodd" d="M245.697 9.76495C245.21 9.8083 244.852 9.44798 244.503 9.79767C243.408 9.79767 242.036 9.13502 241.222 9.58749C241.264 9.28624 240.753 9.54032 240.814 9.22853C240.927 8.99535 241.162 9.199 241.451 9.21108C241.6 9.21699 241.865 9.05968 241.845 9.05023C242.064 9.07422 242.259 9.28896 242.489 9.33267C243.629 9.51151 245.188 9.0086 245.697 9.76495Z" fill="black"/>
<path fill-rule="evenodd" clip-rule="evenodd" d="M252.86 8.89832C253.03 8.93367 253.414 8.7631 253.341 9.03518C253.171 8.99983 252.788 9.1704 252.86 8.89832Z" fill="black"/>
<path fill-rule="evenodd" clip-rule="evenodd" d="M246.245 9.44977C246.466 9.49376 246.88 9.34236 246.964 9.50012C247.064 9.89751 246.096 9.80401 246.245 9.44977Z" fill="black"/>
<path fill-rule="evenodd" clip-rule="evenodd" d="M247.519 9.41488C247.877 9.42506 248.168 9.48712 248.323 9.69296L247.606 9.71259C247.613 9.58236 247.503 9.55537 247.519 9.41488Z" fill="black"/>
<path fill-rule="evenodd" clip-rule="evenodd" d="M277.163 9.42259L277.64 9.4095C277.641 9.78963 277.234 9.8308 276.939 9.94893C276.881 9.66041 277.241 9.73056 277.163 9.42259Z" fill="black"/>
<path fill-rule="evenodd" clip-rule="evenodd" d="M167.889 13.2283C167.897 13.5182 167.497 13.4591 167.179 13.4678C167.335 13.7236 167.333 13.6537 167.191 13.9077C167.255 14.076 167.639 13.9254 167.829 13.9602C167.823 14.0904 167.933 14.1174 167.917 14.2579C167.171 14.2783 166.573 14.6149 165.918 14.3127C165.903 13.7729 167 14.203 167.097 13.7602C167.102 13.58 166.913 13.5852 166.85 13.4668C166.653 13.5523 166.671 13.8319 166.383 13.8498C166.396 13.5993 166.582 13.4942 166.605 13.2535C167.3 13.1644 167.19 13.1674 167.879 13.2186L167.889 13.2283Z" fill="black"/>
<path fill-rule="evenodd" clip-rule="evenodd" d="M193.912 12.595C194.142 12.6487 194.392 12.6819 194.477 12.8796C194.447 13.2306 193.951 12.944 193.841 12.8971C193.762 12.9492 193.766 13.0692 193.606 13.0535C193.658 13.1322 193.787 13.1286 193.771 13.2691L192.17 13.313C192.195 13.1322 192.016 13.1571 192.08 12.9453C192.745 12.8771 193.441 12.838 193.912 12.595Z" fill="black"/>
<path fill-rule="evenodd" clip-rule="evenodd" d="M154.56 13.9638L155.037 13.9507C155.013 14.1315 155.191 14.1066 155.127 14.3184C155.565 14.3064 156.104 14.3616 156.317 14.1357C156.633 14.057 156.523 14.3902 156.878 14.2704C156.87 14.7208 155.615 14.6852 155.36 14.4621C154.977 14.6526 153.777 14.8256 153.595 14.3604L154.471 14.3364C154.64 14.3417 154.503 14.0754 154.54 13.9643L154.56 13.9638Z" fill="black"/>
<path fill-rule="evenodd" clip-rule="evenodd" d="M197.431 12.7886L198.147 12.769C198.085 13.0308 197.498 13.0469 197.431 12.7886Z" fill="black"/>
<path fill-rule="evenodd" clip-rule="evenodd" d="M106.58 15.4291C106.71 15.4255 106.888 15.3806 106.901 15.4903C106.997 15.7478 106.419 15.7036 106.58 15.4291Z" fill="black"/>
<path fill-rule="evenodd" clip-rule="evenodd" d="M198.879 12.969C198.905 12.7983 199.276 12.9281 199.435 12.8838C199.323 13.1669 199.657 13.0177 199.604 13.2493L199.047 13.2645C199.023 13.1351 199.116 12.8925 198.879 12.969Z" fill="black"/>
<path fill-rule="evenodd" clip-rule="evenodd" d="M201.838 13.038C201.2 13.0254 200.972 13.3918 200.497 13.5149C200.241 13.6119 200.431 13.2766 200.175 13.3737C200.168 13.1437 200.458 13.1858 200.401 12.9273C200.819 12.8958 201.668 12.6425 201.838 13.038Z" fill="black"/>
<path fill-rule="evenodd" clip-rule="evenodd" d="M276.41 10.9938L275.773 11.0113C275.745 10.7119 276.431 10.6931 276.41 10.9938Z" fill="black"/>
<path fill-rule="evenodd" clip-rule="evenodd" d="M277.599 10.8112C277.898 10.833 277.576 11.432 277.705 11.7686C277.425 11.7163 277.338 11.4686 277.213 11.2619C277.257 11.0306 277.494 10.9741 277.599 10.8112Z" fill="black"/>
<path fill-rule="evenodd" clip-rule="evenodd" d="M169.341 13.9287L169.66 13.92L169.668 14.2199C169.391 14.2875 169.289 14.1903 169.341 13.9287Z" fill="black"/>
<path fill-rule="evenodd" clip-rule="evenodd" d="M197.043 13.1694L197.441 13.1585C197.547 13.3957 197.184 13.2256 197.29 13.4627C197.227 13.3444 197.039 13.3596 197.043 13.1694Z" fill="black"/>
<path fill-rule="evenodd" clip-rule="evenodd" d="M198.008 13.1429C198.178 13.1783 198.533 13.0385 198.567 13.1976C198.696 13.5442 198.234 13.3868 198.016 13.4328L198.008 13.1329L198.008 13.1429Z" fill="black"/>
<path fill-rule="evenodd" clip-rule="evenodd" d="M208.781 12.8477L209.656 12.8237C209.563 13.0663 209.916 12.8766 209.823 13.1192C210.121 13.091 210.552 13.1793 210.615 12.9474C210.816 13.012 210.91 13.1594 211.256 13.0799L211.266 13.4498C210.916 13.3894 210.821 13.542 210.633 13.6172C210.64 13.487 210.53 13.46 210.546 13.3195C210.374 13.6043 209.581 13.3459 209.44 13.6499C209.141 13.6381 208.91 13.5644 208.795 13.3675C209.024 13.3512 209.344 13.4124 209.348 13.2022C209.313 13.0331 208.949 13.1832 208.789 13.1475L208.781 12.8477Z" fill="black"/>
<path fill-rule="evenodd" clip-rule="evenodd" d="M222.301 13.2974C221.081 13.811 219.953 13.7018 218.635 13.5479C218.733 13.1251 219.239 13.0612 219.735 12.9976L219.745 13.3674C220.292 13.3724 220.456 12.4476 220.93 13.0348C221.507 12.999 222.064 12.9937 222.291 13.2976L222.301 13.2974Z" fill="black"/>
<path fill-rule="evenodd" clip-rule="evenodd" d="M215.509 13.1834C215.741 12.917 215.805 13.4454 215.995 13.4702C216.28 13.3423 216.714 13.1804 216.795 13.5983C216.276 13.5425 215.863 13.7539 215.521 13.6332C215.404 13.3363 215.684 13.3987 215.669 13.189L215.509 13.1934L215.509 13.1834Z" fill="black"/>
<path fill-rule="evenodd" clip-rule="evenodd" d="M213.908 13.2273C214.118 13.2716 214.27 13.3774 214.238 13.6584L213.92 13.6671L213.908 13.2273Z" fill="black"/>
<path fill-rule="evenodd" clip-rule="evenodd" d="M11.2737 18.9319L11.8307 18.9166L11.8389 19.2165C11.5306 19.225 11.3684 19.1194 11.2737 18.9319Z" fill="black"/>
<path fill-rule="evenodd" clip-rule="evenodd" d="M87.9324 17.1207C87.1017 17.3235 86.5525 17.2585 85.9391 17.3954C86.001 17.1136 85.5487 17.316 85.6106 17.0342C86.5119 17.2296 87.5053 16.4321 87.9324 17.1207Z" fill="black"/>
<path fill-rule="evenodd" clip-rule="evenodd" d="M213.196 13.3969L213.514 13.3882L213.522 13.688C213.342 13.663 213.23 13.566 213.196 13.3969Z" fill="black"/>
<path fill-rule="evenodd" clip-rule="evenodd" d="M230.434 12.9244C230.46 13.1737 230.613 13.2996 230.921 13.2811C231.169 13.2243 231.015 13.0785 230.991 12.9091C231.595 12.8025 231.743 13.1286 231.96 13.4027C230.89 13.5821 230.213 13.6007 229.397 13.2529C229.62 13.0367 230.017 12.9758 230.424 12.9246L230.434 12.9244Z" fill="black"/>
<path fill-rule="evenodd" clip-rule="evenodd" d="M233.074 13.002C233.322 12.9952 233.27 13.2668 233.557 13.2089C233.453 13.7819 232.901 13.2469 232.69 13.5328C232.443 13.5995 232.583 13.2756 232.288 13.3937C232.253 12.8445 233.157 13.4999 233.074 13.002Z" fill="black"/>
<path fill-rule="evenodd" clip-rule="evenodd" d="M111.489 16.555C111.888 16.5741 111.498 16.8749 111.501 16.9948C111.321 16.9697 111.209 16.8728 111.174 16.7037C111.313 16.6798 111.574 16.7627 111.489 16.545L111.489 16.555Z" fill="black"/>
<path fill-rule="evenodd" clip-rule="evenodd" d="M112.046 16.5397C112.538 17.0564 113.652 16.6757 114.208 16.6305C114.244 16.8196 114.463 16.8336 114.615 16.9195C114.452 17.154 114.453 17.214 114.629 17.4393C114.368 17.3564 114.576 17.6808 114.315 17.5979C114.049 16.6049 112.823 17.2987 112.058 16.9895L112.046 16.5497L112.046 16.5397Z" fill="black"/>
<path fill-rule="evenodd" clip-rule="evenodd" d="M189.413 14.419C189.743 14.4799 189.976 14.6336 189.986 14.9935C189.53 15.066 189.365 14.8404 189.413 14.419Z" fill="black"/>
<path fill-rule="evenodd" clip-rule="evenodd" d="M108.38 16.7902C108.638 16.7732 108.731 16.9007 108.786 17.0792L108.07 17.0989C107.942 16.7922 108.518 17.1066 108.38 16.7902Z" fill="black"/>
<path fill-rule="evenodd" clip-rule="evenodd" d="M110.051 16.7444L110.449 16.7335L110.457 17.0334L110.059 17.0443L110.051 16.7444Z" fill="black"/>
<path fill-rule="evenodd" clip-rule="evenodd" d="M77.2396 17.7839L78.2741 17.7555C77.9839 18.0636 77.5363 18.0759 77.2396 17.7839Z" fill="black"/>
<path fill-rule="evenodd" clip-rule="evenodd" d="M154.209 15.6741C154.6 15.7934 154.953 15.9638 155.49 15.939C155.413 16.0212 155.335 16.0934 155.257 16.1655C154.637 16.0625 154.179 16.055 153.656 16.2094C153.777 15.916 153.307 16.189 153.332 15.9982C153.291 15.5992 154.24 16.0734 154.199 15.6743L154.209 15.6741Z" fill="black"/>
<path fill-rule="evenodd" clip-rule="evenodd" d="M164.035 15.7048C162.732 16.1307 160.697 15.6162 159.734 16.0428C159.556 16.0877 159.62 15.9059 159.491 15.8994C159.317 16.0843 158.572 16.1547 158.299 16.0021C158.805 15.2179 162.314 15.4119 163.328 15.7142C163.644 15.6155 163.769 15.472 164.044 15.6946L164.035 15.7048Z" fill="black"/>
<path fill-rule="evenodd" clip-rule="evenodd" d="M157.887 15.8733C157.74 15.9374 157.674 16.0693 157.496 16.1041C157.22 15.8616 156.557 16.0098 156.049 15.9937C156.355 15.5252 157.117 16.0845 157.887 15.8733Z" fill="black"/>
<path fill-rule="evenodd" clip-rule="evenodd" d="M192.777 14.7669C192.947 14.8022 193.331 14.6317 193.259 14.9037C193.088 14.8684 192.705 15.039 192.777 14.7669Z" fill="black"/>
<path fill-rule="evenodd" clip-rule="evenodd" d="M130.514 16.9938L127.559 17.0748C127.853 16.5366 130.04 16.4166 130.514 16.9938Z" fill="black"/>
<path fill-rule="evenodd" clip-rule="evenodd" d="M136.175 16.5385L136.732 16.5232L136.736 16.6732L136.179 16.6885L136.175 16.5385Z" fill="black"/>
<path fill-rule="evenodd" clip-rule="evenodd" d="M136.891 16.5189L137.21 16.5102C137.203 16.6404 137.314 16.6674 137.297 16.8079L136.9 16.8188L136.891 16.5189Z" fill="black"/>
<path fill-rule="evenodd" clip-rule="evenodd" d="M141.133 16.5527C142.018 16.5284 142.961 16.4326 143.459 16.7891C142.921 16.7838 141.516 17.1024 141.133 16.5527Z" fill="black"/>
<path fill-rule="evenodd" clip-rule="evenodd" d="M180.334 15.4781L180.652 15.4694C180.646 15.5996 180.756 15.6266 180.74 15.7671C180.481 15.7842 180.388 15.6567 180.334 15.4781Z" fill="black"/>
<path fill-rule="evenodd" clip-rule="evenodd" d="M186.167 15.4683C186.037 15.812 185.356 15.6706 184.899 15.7231C184.98 15.0207 185.563 15.6149 186.167 15.4683Z" fill="black"/>
<path fill-rule="evenodd" clip-rule="evenodd" d="M188.16 15.5637C187.77 15.4944 187.41 15.8143 187.126 15.5921C187.328 15.3664 188.077 15.0658 188.16 15.5637Z" fill="black"/>
<path fill-rule="evenodd" clip-rule="evenodd" d="M143.689 16.8527C143.913 16.2764 144.68 17.0357 144.957 16.5979C145.213 16.5009 145.023 16.8362 145.279 16.7391C145.387 16.6662 145.946 16.3807 145.995 16.7195C146.235 16.763 146.679 16.6007 146.793 16.7677C145.638 16.7493 144.418 16.9128 143.679 16.853L143.689 16.8527Z" fill="black"/>
<path fill-rule="evenodd" clip-rule="evenodd" d="M189.28 15.3829L189.837 15.3677C189.811 15.4984 189.901 15.506 190 15.5133C189.924 15.6354 189.634 15.5733 189.608 15.7441C189.418 15.6993 189.267 15.6234 189.28 15.3829Z" fill="black"/>
<path fill-rule="evenodd" clip-rule="evenodd" d="M158.777 16.3691C159.594 16.4168 160.157 16.2513 160.858 16.3821C160.724 16.966 159.397 16.4922 159.03 16.8724C158.994 16.6533 158.648 16.7428 158.777 16.3591L158.777 16.3691Z" fill="black"/>
<path fill-rule="evenodd" clip-rule="evenodd" d="M191.435 15.544C191.907 15.361 192.737 15.4783 193.352 15.4214C193.078 15.599 192.019 15.7881 191.435 15.544Z" fill="black"/>
<path fill-rule="evenodd" clip-rule="evenodd" d="M199.828 15.614C199.338 15.9075 197.777 15.9503 197.661 15.3733C198.476 15.3309 199.425 15.0948 199.828 15.614Z" fill="black"/>
<path fill-rule="evenodd" clip-rule="evenodd" d="M103.299 18.11C103.619 18.1712 103.824 18.3557 104.027 18.5302C104.448 18.2385 105.733 18.2933 106.186 18.471C106.565 18.1405 106.862 18.4525 107.38 18.4383C107.728 18.4287 108.107 18.1082 108.406 18.11C108.535 18.1065 108.611 18.3345 108.812 18.399C109.635 18.6366 110.778 17.8449 111.211 18.4033C112.607 18.1149 113.805 18.6023 115.041 18.2983C115.969 18.773 117.566 18.5392 118.723 18.6375C118.962 18.631 118.955 18.4011 119.113 18.3267C119.692 18.3909 120.039 18.6915 120.724 18.6527C120.248 19.0859 119.759 18.6591 119.3 18.9918C118.198 18.7419 117.022 19.0543 115.785 18.9381C112.532 18.6472 108.886 19.2873 106.112 18.6831C103.81 18.9663 102.306 18.9175 100.279 18.6929C100.965 17.9239 102.614 18.879 103.299 18.09L103.299 18.11Z" fill="black"/>
<path fill-rule="evenodd" clip-rule="evenodd" d="M277.748 13.328L277.987 13.3215C277.958 13.7324 277.725 13.9589 277.289 14.0109C277.201 13.7231 277.562 13.8133 277.434 13.4867C277.572 13.4629 277.834 13.5458 277.748 13.328Z" fill="black"/>
<path fill-rule="evenodd" clip-rule="evenodd" d="M204.781 15.4782L205.896 15.4477C205.972 15.6857 205.834 15.7295 205.747 15.8219C205.462 15.5996 205.142 15.5684 204.79 15.7781L204.781 15.4782Z" fill="black"/>
<path fill-rule="evenodd" clip-rule="evenodd" d="M208.058 15.5385C207.952 16.0216 206.868 15.7011 206.461 15.7323L206.457 15.5824C206.629 15.3375 207.863 15.3037 208.058 15.5385Z" fill="black"/>
<path fill-rule="evenodd" clip-rule="evenodd" d="M238.555 14.7025C239.39 14.9997 240.554 14.9778 241.369 15.2956C239.918 15.3954 238.322 15.2591 236.566 15.1272C236.909 14.5476 238.192 15.2427 238.555 14.7025Z" fill="black"/>
<path fill-rule="evenodd" clip-rule="evenodd" d="M213.573 15.5273C214.946 15.5197 216.616 15.4239 218.12 15.4727C218.155 15.6618 218.385 15.6755 218.294 15.9881C216.874 15.777 215.812 15.8761 214.462 16.0231C214.237 15.7892 213.527 16.0288 213.573 15.5273Z" fill="black"/>
<path fill-rule="evenodd" clip-rule="evenodd" d="M223.633 15.4016C223.553 15.744 223.126 15.7757 222.688 15.7977L222.676 15.3578C222.932 15.2508 223.362 15.309 223.633 15.4016Z" fill="black"/>
<path fill-rule="evenodd" clip-rule="evenodd" d="M234.968 14.9408C235.054 15.1586 234.402 15.3365 234.413 15.0261C234.602 15.0009 234.708 14.898 234.968 14.9408Z" fill="black"/>
<path fill-rule="evenodd" clip-rule="evenodd" d="M159.364 17.0933C160.127 17.3025 160.66 16.7977 161.053 17.3471C160.682 17.5774 159.983 17.5165 159.377 17.5432L159.365 17.1033L159.364 17.0933Z" fill="black"/>
<path fill-rule="evenodd" clip-rule="evenodd" d="M193.532 16.1567C193.702 16.1921 194.086 16.0215 194.013 16.2936C193.843 16.2583 193.46 16.4288 193.532 16.1567Z" fill="black"/>
<path fill-rule="evenodd" clip-rule="evenodd" d="M198.812 16.3121C198.514 16.3403 198.084 16.252 198.02 16.4839C197.84 16.4588 197.728 16.3618 197.694 16.1927C197.946 15.9557 198.732 15.9442 198.812 16.3121Z" fill="black"/>
<path fill-rule="evenodd" clip-rule="evenodd" d="M270.74 14.0403L271.058 14.0316L271.066 14.3315C270.789 14.3991 270.687 14.3019 270.74 14.0403Z" fill="black"/>
<path fill-rule="evenodd" clip-rule="evenodd" d="M161.358 17.1887L161.756 17.1778C161.862 17.415 161.499 17.2449 161.605 17.4821C161.542 17.3638 161.353 17.3789 161.358 17.1887Z" fill="black"/>
<path fill-rule="evenodd" clip-rule="evenodd" d="M231.312 15.5613C230.965 15.9709 229.499 15.8611 228.997 15.6948C227.609 15.9229 226.838 15.7539 225.406 15.7932C225.33 15.5852 225.51 15.6003 225.475 15.4212C226.664 15.1985 227.852 15.6862 228.668 15.3336C229.284 15.6669 230.696 15.228 231.312 15.5613Z" fill="black"/>
<path fill-rule="evenodd" clip-rule="evenodd" d="M68.5177 20.2538C68.0717 20.3261 67.888 20.161 67.6363 20.0579C67.737 19.735 68.646 19.8502 68.5177 20.2538Z" fill="black"/>
<path fill-rule="evenodd" clip-rule="evenodd" d="M124.001 18.3628C124.845 18.6298 127.267 18.3733 128.563 18.4578C128.892 18.4788 129.463 18.2631 129.606 18.7294C127.918 19.2758 125.98 18.2786 124.895 19.0086C124.574 18.9173 124.185 18.898 123.854 18.817C123.589 18.5842 124.018 18.5924 124.002 18.3728L124.001 18.3628Z" fill="black"/>
<path fill-rule="evenodd" clip-rule="evenodd" d="M250.102 16.1566C249.9 16.7524 249.481 16.3637 249.08 16.6248C247.472 16.4388 245.175 16.1516 243.639 16.4038C242.032 15.8977 239.35 16.4514 237.792 15.8939C237.49 15.7921 237.648 16.0979 237.398 16.0547C236.441 15.6508 234.718 15.9881 233.636 15.7177C234.751 15.0068 235.377 15.6999 236.902 15.408C237.362 15.8456 238.753 15.3673 239.155 15.8665C239.352 15.7911 239.437 15.6387 239.787 15.6991C240.354 16.0537 241.794 15.5541 242.352 15.9289C242.672 15.9902 242.544 15.6636 242.905 15.7637C243.211 15.6953 243.159 15.9768 243.388 15.9705C245.68 15.7076 248.037 15.9632 250.102 16.1566Z" fill="black"/>
<path fill-rule="evenodd" clip-rule="evenodd" d="M257.58 14.7712C257.527 15.0228 257.125 14.8737 256.709 14.9452C256.752 14.7139 257.356 14.5973 257.58 14.7712Z" fill="black"/>
<path fill-rule="evenodd" clip-rule="evenodd" d="M264.68 14.5066C264.598 14.7689 264.465 14.9927 264.546 15.4006L264.148 15.4115C264.198 15.08 264.084 14.923 263.97 14.7461C264.421 14.8538 264.25 14.4083 264.68 14.5066Z" fill="black"/>
<path fill-rule="evenodd" clip-rule="evenodd" d="M208.162 16.4259C207.385 16.3972 206.404 16.5742 205.763 16.4217C206.204 16.1795 207.814 16.0753 208.162 16.4259Z" fill="black"/>
<path fill-rule="evenodd" clip-rule="evenodd" d="M134.708 18.5795C134.499 19.2955 133.309 18.3778 132.797 18.932C132.492 18.7203 131.79 18.8996 131.515 18.667C132.174 18.0187 133.907 18.4114 134.708 18.5795Z" fill="black"/>
<path fill-rule="evenodd" clip-rule="evenodd" d="M270.754 14.5602C271.039 14.8024 271.733 14.6934 272.027 14.5253C272.231 14.6997 272.571 14.7504 272.755 14.9455C271.562 15.3583 270.469 15.0781 268.93 15.2004C269.194 14.6829 270.245 14.8642 270.754 14.5602Z" fill="black"/>
<path fill-rule="evenodd" clip-rule="evenodd" d="M142.461 18.517C142.243 18.9331 141.59 18.711 141.033 18.7062C140.166 18.69 139.049 18.9607 138.631 18.622C139.234 18.4454 140.289 18.0764 140.945 18.4085C141.247 18.1802 142.35 18.0999 142.461 18.517Z" fill="black"/>
<path fill-rule="evenodd" clip-rule="evenodd" d="M244.409 15.4324C247.496 15.4778 248.972 15.2273 251.599 15.5354C251.154 16.0178 250.42 15.7478 249.762 15.7358C248.02 15.7035 246.19 15.7837 244.566 15.7282C244.659 15.4855 244.306 15.6753 244.399 15.4327L244.409 15.4324Z" fill="black"/>
<path fill-rule="evenodd" clip-rule="evenodd" d="M136.079 18.842L135.124 18.8682C135.181 18.3865 135.903 18.5968 136.079 18.842Z" fill="black"/>
<path fill-rule="evenodd" clip-rule="evenodd" d="M142.775 18.3584C143.252 18.3253 143.739 18.2819 143.818 18.6299C144.209 18.7492 144.325 18.2659 144.612 18.5381C144.321 18.8462 143.213 18.7065 142.773 18.6585L142.765 18.3587L142.775 18.3584Z" fill="black"/>
<path fill-rule="evenodd" clip-rule="evenodd" d="M257.433 15.2154C258.293 15.742 260.079 14.7827 260.555 15.43C259.679 15.434 258.534 16.1556 258 15.57C257.78 15.8961 256.354 16.1553 256.16 15.6204C256.533 15.4401 257.447 15.7352 257.423 15.2157L257.433 15.2154Z" fill="black"/>
<path fill-rule="evenodd" clip-rule="evenodd" d="M155.243 18.5368L153.562 18.5829C153.954 18.362 155.056 17.8817 155.243 18.5368Z" fill="black"/>
<path fill-rule="evenodd" clip-rule="evenodd" d="M164.193 18.5916C162.262 18.5945 160.553 18.6913 158.917 18.5861C158.429 18.5595 157.629 18.8115 157.23 18.4123C158.057 18.0595 159.566 18.2782 160.097 18.0336C160.431 18.2545 161.328 18.6501 161.702 18.1396C162.406 18.4104 163.712 18.0846 164.193 18.5916Z" fill="black"/>
<path fill-rule="evenodd" clip-rule="evenodd" d="M182.776 17.4119C183.044 17.3846 183.263 17.3886 183.337 17.5466C183.242 17.7093 182.722 17.6435 182.776 17.4119Z" fill="black"/>
<path fill-rule="evenodd" clip-rule="evenodd" d="M147.743 18.7424C147.573 18.707 147.218 18.8468 147.184 18.6877C147.098 18.44 147.768 18.5616 147.743 18.7424Z" fill="black"/>
<path fill-rule="evenodd" clip-rule="evenodd" d="M230.527 16.3231C230.714 16.6181 230.521 16.8534 230.061 16.776C230.023 16.4569 230.178 16.3026 230.527 16.3231Z" fill="black"/>
<path fill-rule="evenodd" clip-rule="evenodd" d="M241.328 16.6973C241.003 16.8562 239.598 16.7747 239.085 16.6087C238.835 16.5355 238.89 16.7341 238.771 16.7673C238.207 16.5027 236.728 16.6733 235.733 16.7006C235.077 16.7186 234.233 16.8017 233.883 16.3811C234.023 16.4073 234.031 16.3171 234.038 16.2268C236.559 16.3078 239.021 16.4204 241.318 16.6975L241.328 16.6973Z" fill="black"/>
<path fill-rule="evenodd" clip-rule="evenodd" d="M264.863 15.3819L265.102 15.3753C265.062 15.7166 265.148 15.9443 265.359 16.0385C265.596 15.942 266.162 15.5463 266.314 16.0124C266.243 16.3344 265.54 16.1036 265.204 16.1928C265.087 16.2561 265.04 16.3874 265.055 16.5671C264.647 16.5782 264.219 16.55 264.025 16.7454C262.803 16.4887 260.744 16.5352 259.479 16.87C259.021 16.5124 257.953 16.7417 257.155 16.7136C256.966 16.6888 257.205 17.0524 256.923 16.94C255.979 16.2857 254.592 17.254 253.636 16.5099C254.44 15.7176 255.97 16.3159 257.302 16.2594C258.15 16.6663 259.634 15.6053 260.416 16.174C261.035 16.2371 261.388 16.0673 261.854 15.9846C261.987 16.111 262.304 16.0523 262.34 16.2714C262.873 16.1367 263.99 15.836 264.414 16.0644C264.669 15.9274 264.996 15.8484 264.873 15.3816L264.863 15.3819Z" fill="black"/>
<path fill-rule="evenodd" clip-rule="evenodd" d="M272.049 15.3349C272.229 15.36 272.341 15.457 272.376 15.6261L272.057 15.6348L272.049 15.3349Z" fill="black"/>
<path fill-rule="evenodd" clip-rule="evenodd" d="M132.737 19.3038C133.054 19.2251 132.943 19.5582 133.298 19.4385C133.172 19.542 133.137 19.733 132.827 19.6715C132.862 19.5104 132.714 19.5345 132.584 19.5281C132.632 19.4467 132.761 19.4432 132.737 19.3038Z" fill="black"/>
<path fill-rule="evenodd" clip-rule="evenodd" d="M270.701 15.522C270.639 15.8038 270.516 16.0372 270.321 16.2026C270.082 16.2092 270.076 15.9792 269.915 15.9136C269.629 16.0015 269.404 16.1377 268.964 16.0898C268.944 15.37 270.332 15.8922 270.711 15.5217L270.701 15.522Z" fill="black"/>
<path fill-rule="evenodd" clip-rule="evenodd" d="M267.991 15.8163C267.971 16.187 267.715 16.2841 268.166 16.4017C268.001 16.5363 267.266 16.5865 267.287 16.2758L267.685 16.2649C267.797 16.0017 267.415 16.2323 267.44 16.0515C267.429 15.6417 267.673 15.835 267.991 15.8163Z" fill="black"/>
<path fill-rule="evenodd" clip-rule="evenodd" d="M218.406 17.1755C218.745 17.5464 220.005 17.0317 220.334 17.4228L218.335 17.4776C218.321 17.3479 218.43 17.3149 218.406 17.1755Z" fill="black"/>
<path fill-rule="evenodd" clip-rule="evenodd" d="M228.09 17.5003C227.837 17.6873 227.144 17.4862 226.982 17.7507C226.976 17.5108 226.62 17.6006 226.729 17.2375C227.384 17.1495 227.691 17.0811 228.09 17.5003Z" fill="black"/>
<path fill-rule="evenodd" clip-rule="evenodd" d="M232.248 17.7564C231.479 17.6575 229.885 17.9713 229.125 17.4719C229.33 16.9761 230.305 17.3195 230.469 17.1349C230.721 17.2481 230.983 17.341 231.196 17.4852C231.546 17.5656 232.353 17.2134 232.238 17.7567L232.248 17.7564Z" fill="black"/>
<path fill-rule="evenodd" clip-rule="evenodd" d="M243.888 16.7771L244.286 16.7662C244.412 16.9929 243.775 17.0103 243.888 16.7771Z" fill="black"/>
<path fill-rule="evenodd" clip-rule="evenodd" d="M244.608 16.9074C245.727 16.6967 246.779 17.2881 247.642 16.8243C248.43 17.2329 249.593 16.8008 250.292 17.2718C248.066 17.3829 246.684 17.0806 244.608 16.9074Z" fill="black"/>
<path fill-rule="evenodd" clip-rule="evenodd" d="M278.07 16.3604L278.078 16.6602L277.68 16.6711C277.725 16.4998 277.811 16.3574 278.07 16.3604Z" fill="black"/>
<path fill-rule="evenodd" clip-rule="evenodd" d="M254.931 17.2847C255.26 17.2757 255.432 17.401 255.809 17.3307C255.667 17.5947 255.32 17.6742 254.862 17.6568C254.827 17.4876 254.864 17.3766 254.931 17.2847Z" fill="black"/>
<path fill-rule="evenodd" clip-rule="evenodd" d="M257.241 17.3014C257.393 17.3773 257.612 17.3913 257.647 17.5904L257.25 17.6013L257.241 17.3014Z" fill="black"/>
<path fill-rule="evenodd" clip-rule="evenodd" d="M278.247 17.0158L278.265 17.6855C277.898 17.7156 277.841 17.4371 277.386 17.5596C277.549 17.325 277.547 17.265 277.372 17.0398C277.749 16.9994 277.941 16.744 278.247 17.0158Z" fill="black"/>
<path fill-rule="evenodd" clip-rule="evenodd" d="M264.202 17.4007L264.759 17.3855L264.763 17.5354L264.206 17.5507L264.202 17.4007Z" fill="black"/>
<path fill-rule="evenodd" clip-rule="evenodd" d="M274.693 18.4437C274.999 18.3752 275.044 18.5541 275.176 18.6505C275.215 18.9796 274.734 18.8427 274.711 19.1034C274.478 18.9598 274.728 18.6428 274.692 18.4337L274.693 18.4437Z" fill="black"/>
<path fill-rule="evenodd" clip-rule="evenodd" d="M202.667 8.42352C202.967 8.48531 203.083 8.72222 203.471 8.70159C203.477 8.91151 203.444 9.1825 203.567 9.28919C204.506 9.04337 205.639 9.35243 206.519 9.13823C206.686 9.04363 206.556 8.68704 206.743 8.61189C207.271 8.59744 207.352 9.03536 207.56 9.3298C208.009 9.03736 209.175 9.8057 209.877 9.26627C209.934 9.5348 210.857 9.43947 210.912 9.23791C211.314 9.39694 212.572 9.51253 212.829 9.11531C212.339 9.00872 211.731 8.98536 211.226 9.08924C211.147 8.76127 211.548 8.84033 211.53 8.56071C211.952 8.6892 212.23 8.66157 213.056 8.66893C213.075 8.97854 212.918 9.08287 213.075 9.33868C213.721 9.30097 215.16 9.16147 215.953 9.40983C216.138 9.2547 216.446 9.21626 216.824 9.23589C216.917 8.99325 216.564 9.183 216.657 8.94036C216.343 9.08904 215.264 8.95854 214.656 8.92519C215.293 8.5676 216.624 8.82123 217.526 8.69645C217.415 8.98961 216.834 8.85549 216.906 9.30368C218.228 9.21744 219.257 9.37928 220.336 9.13964C221.309 9.78321 222.85 8.98069 224.329 9.18025C224.421 8.93761 224.068 9.12736 224.161 8.88472C223.77 9.14553 223.306 8.90817 222.884 8.76968C222.958 8.56757 223.392 8.40563 223.519 8.68225C224.704 8.72978 225.793 8.50986 226.952 8.65816C227.13 8.59327 226.97 8.2375 227.016 8.0662C227.253 8.00967 227.704 8.13735 227.809 7.97441L227.805 7.82447C227.347 7.81702 226.715 7.99441 226.277 7.64627C226.152 7.77976 225.832 7.73851 225.808 7.95924C225.725 7.83147 225.584 7.77531 225.327 7.82239C225.218 7.84538 225.262 8.01423 225.255 8.12446C224.379 8.11846 223.536 8.2316 222.858 8.19017C222.73 7.88356 223.276 8.16872 223.25 7.95934C223.069 7.90427 223.034 7.71516 222.766 7.75251C222.658 7.77551 222.702 7.94435 222.695 8.05458C222.689 7.84466 222.256 8.0266 222.289 7.7656C224.021 7.38801 225.943 7.43535 227.873 7.39245C229.524 7.34719 231.639 7.4993 232.908 7.32446C233.529 7.82763 235.653 6.85908 235.799 7.83544C235.541 7.88251 235.401 7.82635 235.317 7.69858C234.735 8.22475 233.609 7.45531 233.083 7.90987C231.755 7.74621 230.258 7.61717 229.411 7.94051C229.737 8.21168 230.858 7.69078 230.941 8.19868C230.128 8.321 228.816 8.02684 228.391 8.48867C231.267 8.81 233.985 8.48538 236.4 9.07942C236.19 9.4053 235.201 9.26236 235.036 9.0468C234.511 9.13123 233.569 9.29708 233.271 8.94512C233.064 9.00083 232.917 9.11488 232.965 9.39368C233.15 9.59869 233.552 9.37759 233.679 9.30407C233.952 9.46665 234.452 9.88313 234.718 9.42566C235.428 9.92638 237.308 9.13458 238.08 9.70364C240.065 9.48916 241.954 10.1476 243.519 9.85465C244.45 10.3994 245.583 9.628 246.563 10.1413C247.356 9.65944 249.417 10.3932 250.313 10.0386C252.677 10.2038 255.935 9.95448 258.856 9.73437C258.749 9.48719 258.255 9.61078 258.052 9.45629C256.448 9.78036 254.477 9.78436 253.02 9.66423C253.323 9.08572 254.962 9.68104 255.407 9.22866C255.825 9.55735 256.891 9.23801 257.57 9.31944C258.27 9.09016 259.364 9.40031 260.281 9.09506C260.701 8.04318 262.446 8.1554 263.681 7.82143C264.278 8.17521 264.853 7.71928 265.6 7.76881C265.672 8.217 264.888 7.90839 264.817 8.23046C264.44 7.91067 264.052 8.29143 263.625 8.33315C263.635 8.71301 263.607 9.11395 263.811 9.28843C263.995 9.11331 264.373 9.10295 264.761 9.11231C264.874 8.87912 265.12 8.75235 265.304 8.57723C265.549 8.8006 265.954 8.66947 266.096 8.40548C266.177 8.45328 266.18 8.57323 266.339 8.54888C266.405 8.77715 266.063 8.64648 266.19 8.9231C265.952 8.97962 265.501 8.84195 265.396 9.01489C265.769 9.55486 266.96 9.07204 266.732 8.38803C267.049 8.66946 267.488 8.3673 267.599 8.06414C267.386 7.91993 266.97 7.97136 266.873 7.71392C267.09 7.63794 267.623 7.84341 267.585 7.54434C267.841 7.44728 267.651 7.78261 267.908 7.68556C268.458 7.43038 269.029 7.55478 269.35 7.64602C270.654 7.28015 273.675 7.47743 275.571 7.25542C276.295 7.17554 277.129 7.07266 277.656 7.41835C276.862 7.88027 275.521 7.63691 274.785 7.64709C274.707 7.69926 274.71 7.81921 274.55 7.80358C274.577 8.05294 275.05 7.86992 274.883 8.31466C274.524 7.94435 274.234 8.59256 274.579 8.84319C274.888 8.85473 274.768 8.47787 275.046 8.46024C275.059 8.54993 275.197 8.51613 275.287 8.52367C275.415 8.85028 275.054 8.76013 275.142 9.04784C275.847 9.34863 276.549 8.06893 277.139 8.92306C276.92 9.2792 275.997 9.02439 275.707 9.33246C275.772 9.52075 275.885 9.6577 276.193 9.61926C276.118 9.79137 275.829 9.77929 275.887 10.0678C276.192 10.3295 276.44 9.93259 276.76 9.97385L276.774 10.4937C276.135 10.4111 275.985 10.7654 275.336 10.6831C275.642 10.9449 275.207 11.0568 274.952 11.2138C274.724 11.2201 274.707 10.9905 274.546 10.9249C274.245 11.1932 274.296 10.8817 273.83 10.9445C273.814 11.065 273.913 11.0723 273.916 11.1622C274.053 11.4286 274.031 10.989 274.232 11.0835C274.152 11.4159 274.449 11.3777 274.485 11.5968C274.621 11.453 275.143 11.6388 275.116 11.3594C275.181 11.5477 275.517 11.4785 275.524 11.7184C275.783 11.3811 276.188 11.6101 276.632 11.4679C276.734 11.9453 276.541 12.1607 276.501 12.5119L275.705 12.5337C275.642 12.7455 275.82 12.7206 275.795 12.9014C276.254 12.9488 276.662 12.5575 276.985 12.7187C277.086 13.1461 276.555 13.0206 276.442 13.2538C276.352 13.5964 276.979 13.2391 277.005 13.4584C277.063 13.777 276.663 13.6879 276.538 13.8414C276.014 13.6257 274.739 13.6006 274.544 14.1161C274.578 13.8851 274.398 13.86 274.45 13.5985C274.072 13.5789 273.754 13.6176 273.579 13.7724C273.526 14.004 273.86 13.8548 273.749 14.1379C273.529 14.1239 273.164 14.254 273.265 13.9311C273.097 13.9757 272.97 14.0492 273.036 14.3075C272.756 14.2452 272.699 13.9766 272.39 13.9551C272.19 13.9406 272.725 14.216 272.4 14.325C271.991 13.946 270.858 13.627 270.152 14.0164C269.882 13.9838 269.68 13.8693 269.507 13.734C269.338 13.7586 269.496 14.0644 269.358 14.1082C268.98 14.1186 268.718 14.0257 268.632 13.758C269.127 13.6644 269.285 13.2699 269.974 13.3511C270.092 13.2878 270.138 13.1565 270.123 12.9768C269.77 12.8164 269.088 12.9752 268.609 12.9483L268.595 12.4285C268.358 12.485 268.233 12.6385 268.291 12.957C267.864 12.9987 267.485 12.9791 267.485 12.609C266.899 12.6451 266.098 12.4969 266.226 13.1637C265.741 13.257 265.702 12.918 265.188 13.0421L265.198 13.412C265.713 13.6879 266.587 13.624 267.054 13.9513C264.666 13.9867 263.103 14.3597 260.356 14.355C260.146 14.3407 260.437 14.7629 260.125 14.6614C259.889 14.7379 259.982 14.5053 259.958 14.3659C259.147 14.1881 258.113 14.9567 257.4 14.366C256.777 14.5231 255.909 14.4569 255.164 14.4973C255.287 14.2639 255.553 14.1665 255.706 13.9622C255.916 13.9865 255.932 14.1962 256.268 14.0969C256.695 13.7251 257.878 14.0128 258.092 13.4567C257.07 13.2346 256.229 13.7679 255.45 13.309C255.171 13.3167 255.249 13.6146 254.98 13.622C254.772 13.6477 254.767 13.4778 254.733 13.3287C253.134 13.4325 251.955 13.2848 250.586 13.4424L250.6 13.9622C250.847 13.5552 251.228 14.005 251.871 13.8573L251.881 14.2272C252.478 14.2208 252.843 14.4509 253.566 14.331C253.009 14.6864 251.757 14.4306 250.935 14.5532L250.926 14.2533C250.486 14.1854 250.383 14.4083 250.218 14.5729C249.639 14.5087 248.871 14.0696 248.294 14.4755C247.3 14.1327 246.561 14.413 245.491 14.2523C244.941 14.1673 244.278 13.9354 243.8 13.9285C243.691 13.9315 243.615 14.0936 243.486 14.0872C242.877 14.0338 242.108 13.5647 241.482 13.992C239.841 14.037 237.904 13.81 236.272 13.4646C236.021 13.4114 236.179 13.7172 235.878 13.6254C235.463 13.3867 234.81 13.5247 234.611 13.8803C234.314 13.9384 234.269 13.7596 233.972 13.8277C234.061 13.4352 233.655 13.5263 233.638 13.2467C233.83 13.3415 234.002 13.4468 234.358 13.377C234.216 12.1804 232.477 13.0184 231.618 12.5618C231.317 12.46 231.475 12.7658 231.224 12.7226C230.329 12.367 229.345 12.7741 228.425 12.6493C228.135 12.6072 227.971 12.4017 227.78 12.3669C226.911 12.2306 225.533 12.8186 224.194 12.6152C223.963 12.5415 223.78 12.4165 223.549 12.3328C221.715 12.6231 218.649 12.6272 216.924 12.5144C215.588 12.431 214.152 12.6904 213.093 12.5494C212.473 12.4663 210.828 12.7315 209.504 12.7178C209.066 12.7198 208.659 12.4008 208.229 12.6827C207.119 12.4931 206.002 12.7938 204.954 12.7024C205.152 13.0171 206.019 12.6733 206.08 13.1117C206.68 12.8452 206.93 13.2485 207.519 12.9223C207.747 12.906 207.685 13.1678 208 13.0591C207.876 13.2426 207.619 13.3097 207.617 13.5898C206.914 13.389 205.956 13.6554 204.981 13.6621C204.923 13.3736 205.212 13.3856 205.287 13.2135C205.115 13.1282 204.876 13.1147 204.724 13.0089L204.71 12.4891C204.147 12.6746 203.81 12.3437 203.281 12.6783C202.575 12.3275 200.984 12.3911 200.562 12.6028C199.018 12.1949 196.687 12.879 195.514 12.2209C195.397 12.3042 195.321 12.4363 195.204 12.5295C193.879 12.1057 191.332 12.8758 190.239 12.2255C189.743 12.6592 189.017 12.339 188.333 12.7979C188.237 12.5705 188.458 12.6144 188.484 12.4937C188.432 12.4151 188.303 12.4186 188.319 12.2781C186.673 12.5333 183.912 12.7291 182.486 12.288C182.43 12.4095 182.24 12.4047 182.255 12.5944C181.586 12.1526 180.505 13.0125 180.009 12.3559C179.155 13.1396 178.178 12.386 177.31 13.0201C177.317 13.29 177.712 13.1791 177.797 13.3768C178.085 13.3389 178.169 13.1266 178.589 13.2051C178.887 14.2573 177.391 13.428 176.767 13.9253C176.543 13.7214 176.007 13.806 175.569 13.808C175.484 13.6103 175.405 13.2424 175.631 13.1361C176.008 13.0958 175.997 13.4362 176.2 13.5607L176.518 13.552C176.804 13.4641 176.622 12.9689 177.143 13.0947C176.737 12.8057 176.102 12.8831 175.46 13.0708L175.448 12.6309C176.416 12.3543 177.795 12.5666 178.39 12.1101C178.338 12.0315 178.209 12.0351 178.225 11.8946C177.998 11.9608 177.75 12.0076 177.676 12.2097C177.371 11.988 176.366 12.0155 176.074 12.2536C175.966 11.9465 176.195 11.9202 176.219 11.7295C177.189 11.8929 177.644 11.7704 178.453 11.5182C178.562 11.4952 178.518 11.3263 178.525 11.2161C179.499 11.8897 181.02 11.0877 182.438 11.2589C182.463 11.0981 182.383 11.0603 182.35 10.9612C181.158 11.0639 179.45 10.8406 178.359 11.0005C178.337 10.561 177.385 10.6771 177.162 10.8833C175.647 10.4547 174.604 11.6237 172.948 11.519C172.728 11.475 173.018 11.8672 172.798 11.8233C172.481 11.902 172.591 11.5688 172.236 11.6886C172.058 11.7235 172.216 12.0493 172.171 12.2106C171.792 12.1909 171.679 12.4041 171.626 12.6657C171.722 12.8831 172.34 12.5761 172.426 12.7938C172.431 13.3239 171.15 12.7287 171.328 13.4141C171.356 13.7235 171.753 13.6626 171.897 13.8387C172.024 14.1153 171.682 13.9846 171.748 14.2129C171.134 13.9696 170.166 14.6064 169.741 13.9678C170.024 13.78 170.593 13.8444 170.438 13.2784C170.717 13.2708 170.646 13.5729 170.924 13.5652C171.002 13.5131 170.999 13.3931 171.159 13.4088C170.742 12.7399 169.518 13.4637 168.437 13.2633C168.615 12.8682 169.783 13.3364 169.869 12.8539C169.033 12.4767 168.378 12.9148 167.156 12.9983C167.311 12.4838 168.374 12.7648 168.407 12.1537C168.799 12.303 169.279 12.3699 169.768 12.4165C169.832 12.2047 169.967 12.0609 170.154 11.9658C170.021 11.8493 169.878 11.7232 169.746 11.6068C169.558 11.662 169.768 12.0664 169.601 12.131C168.84 11.9618 168.341 11.9254 167.601 12.1858C167.692 11.8732 167.463 11.8594 167.428 11.6703C165.235 12.3007 162.366 12.1992 159.932 12.396C160.028 12.6035 160.191 12.749 160.344 12.9049C160.712 12.8748 161.234 12.6904 161.383 13.0265C161.738 12.5466 163.144 12.9782 163.611 12.5953C164.556 12.9395 165.364 12.2671 166.49 12.6664C164.673 12.8563 162.711 13.9004 160.834 13.3416C160.687 13.7958 159.932 13.4664 159.486 13.5287C159.274 14.1747 160.378 14.1444 160.61 13.868C161.807 14.3354 163.004 13.3222 163.499 14.309C162.456 14.7677 160.322 14.266 159.279 14.7248C158.999 14.6524 158.824 14.4571 158.863 14.0659C159.073 14.1102 159.245 14.1955 159.426 14.2706C159.368 13.972 159.175 13.8073 158.855 13.766C158.747 13.4589 159.19 13.6268 159.245 13.4552C159.203 13.0362 158.726 13.0493 158.355 12.9594C158.699 12.78 159.317 12.843 159.457 12.4891C158.737 12.3687 157.823 12.4338 157.215 12.4005C157.256 12.0992 157.91 12.3414 157.921 12.011C157.468 11.8133 156.817 12.0412 156.819 12.4813C156.437 12.3618 155.803 12.4592 155.631 12.734C155.731 13.1114 156.569 12.7883 156.678 13.1455C155.164 13.1269 154.684 13.0201 153.564 13.2308C153.412 13.1249 153.163 13.1118 153.001 13.0262C153.122 12.6927 153.885 12.9419 154.271 12.8413C154.118 12.3553 153.046 12.4847 152.665 12.7353C152.399 12.4924 151.995 12.6336 151.71 12.7614C151.675 12.5723 151.446 12.5586 151.537 12.246C151.397 12.2298 151.141 12.3269 151.214 12.1048C151.136 12.1569 151.139 12.2769 150.98 12.2613C150.93 12.6128 151.258 12.6038 151.237 12.9245C151.785 12.9495 152.527 12.7791 152.842 13.0305C152.766 13.1527 152.476 13.0906 152.45 13.2613C152.25 13.1968 152.156 13.0493 151.81 13.1288C151.556 13.3159 151.394 13.5804 151.273 13.8838C151.48 14.1583 151.567 13.7157 151.828 13.7986C152.06 13.9023 152.292 14.006 152.32 14.3053C151.837 14.1185 150.811 14.4667 150.474 14.1358C150.289 14.291 149.981 14.3294 149.602 14.3098C149.686 14.0974 150.025 14.0981 150.068 13.8569C150.521 14.0345 150.602 13.7522 151.18 13.7563C151.264 13.544 151.259 13.364 151.164 13.1666C150.935 13.1628 151.011 13.4208 150.69 13.3296C150.859 12.9548 150.743 13.088 150.672 12.6598L149.15 12.7016C149.099 13.0131 149.203 13.1603 149.403 13.2148C148.955 13.5672 148.26 13.9864 147.575 13.7051C147.513 13.9969 147.859 13.8874 147.748 14.2205C148.018 14.2632 147.87 13.9471 148.058 13.9119C148.463 14.1309 149.332 13.877 149.27 14.549C149.013 14.596 148.872 14.5399 148.789 14.4121C148.788 14.7323 148.025 14.8732 147.838 14.5882C147.293 14.6932 146.424 14.9271 145.68 14.6474C145.378 14.5456 145.536 14.8514 145.286 14.8082C144.16 14.7691 141.598 14.6392 140.251 14.8762C140.249 14.8063 140.15 14.819 140.09 14.8106C140.219 14.4469 140.357 14.4031 140.225 13.9166C137.993 13.8377 135.757 13.6289 133.675 13.9461C134.173 14.6827 135.685 13.911 136.799 14.2306L136.811 14.6704C135.26 14.7529 134.071 14.9356 132.824 14.8497C132.713 15.1629 133.271 14.8175 133.151 15.1409L132.434 15.1605C132.39 15.0017 132.581 15.0465 132.588 14.9362C131.483 14.5764 130.295 14.819 129.321 15.2459C129.194 14.9692 129.679 15.226 129.552 14.9394C129.487 14.7711 129.103 14.9217 128.913 14.8869C128.693 14.8629 128.984 15.2851 128.764 15.2611C128.487 15.3287 128.385 15.2315 128.438 14.97C127.498 14.8457 126.6 15.1104 125.951 14.668C125.948 14.9282 125.354 14.6744 125.483 15.0509C125.014 14.6336 124.258 15.3646 123.951 14.7228C123.589 14.5927 123.819 14.9965 123.641 15.0314C122.866 14.7225 122.007 15.3363 121.24 14.9472C120.831 15.2985 119.863 15.205 119.245 15.1519C119.136 14.8148 119.782 15.1372 119.796 14.9167C119.366 14.8485 118.117 14.6927 118.041 15.1849C117.92 15.1082 117.836 14.9805 117.715 14.8938C116.105 15.358 113.455 14.9205 112.049 15.1991C111.021 15.1072 109.441 14.8504 108.534 15.1454C107.847 14.7841 106.229 15.3286 105.649 14.8544C104.465 15.2569 101.652 15.024 100.138 15.0054C99.9293 15.0111 99.7248 15.1768 99.5057 15.1728C96.1296 15.1153 92.1227 15.2852 88.9661 15.6118C89.6127 15.5941 90.3287 16.2947 90.9715 15.7769C91.4354 15.9943 92.7583 15.958 93.2095 15.7155C93.4665 15.6485 93.5096 15.7673 93.6115 15.8546C93.6754 15.6427 94.0354 15.7029 94.3236 15.685C95.6254 16.3296 98.1103 15.8313 100.003 15.8994C100.421 16.2581 100.767 15.7785 101.356 15.8624C101.546 15.8872 101.307 15.5236 101.589 15.6359C101.722 15.7523 101.864 15.8784 101.997 15.9949C102.354 15.5849 102.859 16.2013 103.186 15.8122C105.706 16.2233 109.05 15.8215 112.141 16.0069C112.258 15.9237 112.334 15.7915 112.451 15.6983C113.334 16.3043 115.408 15.7373 116.533 16.1066C116.835 16.2084 116.677 15.9026 116.927 15.9457C118.619 15.9194 121.045 16.173 122.521 15.9424C124.169 16.1374 126.875 16.0732 128.509 15.7783C128.805 15.6602 128.664 15.9741 128.911 15.9173C129.873 15.4108 131.106 16.4574 132.184 15.8276C132.476 15.9397 132.897 16.0582 133.139 15.8015C133.027 16.0646 133.409 15.8341 133.384 16.0148C134.793 15.8662 136.458 15.9606 138.337 15.879C138.961 16.132 139.943 15.6349 140.583 16.1176C140.637 15.906 141.079 16.024 141.132 15.8024C141.703 15.9268 142.299 15.8905 142.897 15.9041C143.066 15.8995 143.131 15.7376 143.291 15.7433C143.38 15.7408 143.593 15.885 143.693 15.8823C144.389 15.8632 145.897 15.6818 147.049 15.9404C148.408 15.773 150.799 15.8476 152.327 16.0158C151.361 16.3524 149.516 16.2429 148.575 16.0486C145.611 16.1398 142.306 16.5005 139.155 16.3068C133.841 15.9823 128.602 16.6161 123.497 16.2958C122.868 16.6132 121.94 16.1485 121.501 16.5006C118.368 16.2263 114.269 16.6488 111.276 16.4108C111.096 16.3957 111.161 16.574 111.041 16.5672C110.143 16.4718 108.568 16.405 107.689 16.6591C105.986 16.2756 103.653 16.4997 101.534 16.5278C101.147 16.2182 100.589 16.5437 100.183 16.6348C100.135 17.0763 100.804 16.7778 100.901 16.6851C100.972 17.1034 102.071 16.503 102.025 17.0245C100.978 16.9531 99.5533 17.2723 99.069 17.0355C99.0605 16.7256 99.6838 16.9486 99.9403 16.8615C99.8842 16.633 99.6441 16.5896 99.5303 16.4326C98.2787 16.5269 96.2664 16.4721 94.6563 16.5662C95.079 17.0948 95.7008 16.5376 96.266 16.8222C95.8321 17.3343 94.5416 16.7394 94.5276 17.6802C94.2254 17.5484 94.2332 17.108 93.7953 17.11C93.5899 17.2457 93.5374 17.5072 93.4136 17.7107C93.0837 17.6597 93.0087 17.8318 92.6993 17.8003C92.6411 17.4918 92.9497 17.4933 93.0851 17.3496C93.0484 17.1005 92.5854 16.9131 92.9872 16.682C91.6621 16.2782 89.2709 16.9239 87.9458 16.5201C86.3266 17.0046 83.4076 16.5544 82.0415 16.832C81.5735 16.4647 81.1197 16.9773 80.6132 17.0212C81.9827 17.5939 84.1881 16.7031 85.4159 17.1897C84.5289 17.5141 83.4468 17.6238 82.3862 17.4228C82.2289 17.4971 82.0717 17.5714 81.9148 17.6558C83.2037 17.8305 84.589 17.8926 85.7462 17.6208C85.8064 17.9993 86.7191 17.5241 86.7889 17.8923C86.9412 17.638 87.8582 17.6829 88.1398 17.7852C88.2458 18.0224 87.8828 17.8523 87.9889 18.0895C86.7673 18.193 85.3911 17.7405 84.3184 18.1901C83.4976 18.0225 82.3031 18.3854 81.6683 17.7425C81.4486 17.7186 81.7389 18.1408 81.5193 18.1168C81.2905 18.123 81.1388 18.0372 81.1908 17.7556C80.8137 17.796 80.5045 17.7744 80.4664 17.4754C79.291 17.4476 78.185 17.4079 77.1939 17.5651C77.0148 17.57 77.1725 17.8758 77.1264 18.0071C76.8661 17.9542 76.8296 18.0753 76.7326 18.168C76.0933 18.0854 76.214 18.1321 75.539 18.2007C76.7519 18.5076 78.0286 18.6026 79.2154 18.32C79.4541 18.3134 79.4604 18.5433 79.6215 18.609C80.0037 18.3884 80.3825 18.408 80.811 18.4263C83.1029 18.5135 86.0729 18.2821 88.4861 18.436C89.2937 18.4839 90.2804 18.5269 90.812 18.6723C91.0093 18.6069 91.5021 18.7935 91.4445 18.505C91.8414 18.8242 92.3695 18.4796 92.7135 18.3201C93.0741 18.4003 93.9361 18.6167 94.2255 18.2787C94.5965 18.3785 95.1612 18.6432 95.4232 18.3959C95.7207 18.7179 96.9488 18.8543 97.1838 18.3476C97.8999 18.6881 98.434 18.5635 99.6688 18.5796C99.7353 18.8279 99.343 18.6786 99.4402 18.956C98.2742 18.908 96.7495 19.2099 95.8453 18.9045C95.5242 18.8133 95.6927 19.1488 95.3719 19.0675C92.7234 18.68 90.2008 19.6194 87.2295 19.4408C87.0149 19.2366 86.3982 19.2535 86.1951 19.4692C84.7017 19.4601 81.8182 19.219 80.6804 19.4703C80.4306 19.4371 80.3555 19.2391 80.1928 19.1135C80.1378 19.2851 79.8582 19.2527 79.7214 19.3465C74.8247 19.3807 70.2052 19.7174 65.2625 19.5228C63.7265 19.7749 61.331 19.5405 59.3458 19.3848C56.58 19.8008 53.4695 19.2658 50.3994 19.48C50.3066 19.7226 50.6597 19.5329 50.5668 19.7755C51.052 19.6822 50.7934 19.6893 51.283 19.7559C50.7844 20.4498 49.4022 19.7774 48.5675 19.8303C48.449 19.5035 49.0449 19.8173 49.0389 19.5973C47.721 19.4534 45.8491 19.4347 44.6543 19.7876C43.283 19.515 41.4254 19.656 40.0925 19.6925C39.5411 19.5476 38.4593 19.6673 37.9401 19.9716C37.0159 19.6668 35.609 19.5453 34.9003 19.8348C34.5475 19.6744 33.46 19.5842 33.1397 19.8831C31.009 20.2316 29.3304 19.2773 27.7087 20.032C26.1349 19.9951 24.1251 19.67 22.2694 19.881C21.3931 19.5048 19.6147 19.9937 18.9031 19.453C18.634 19.4404 18.4154 19.4564 18.3502 19.6183C17.2547 19.2381 15.8643 19.3563 14.5023 19.0535C14.2718 18.9998 14.0177 18.8067 13.7779 18.7732C12.8387 18.6489 11.9222 18.9842 11.0563 18.6277C10.806 18.5746 10.964 18.8904 10.6626 18.7886C10.5987 19.0004 10.7772 18.9755 10.7523 19.1563C10.5586 18.9915 10.2293 18.9605 10.181 18.6517C9.52149 18.5598 8.35789 18.9618 8.17345 18.4067C8.09525 18.4588 8.09854 18.5788 7.93884 18.5631C6.46377 18.1334 5.9248 17.718 4.31567 17.482C4.32206 17.3518 4.21182 17.3248 4.22788 17.1843C3.2048 16.9022 1.69643 17.0736 0.935073 16.5343C0.867719 16.256 1.31059 16.434 1.48799 16.3691C1.57896 16.0565 1.34991 16.0527 1.31459 15.8536C1.01336 16.122 0.506069 16.1359 0.200538 15.8842C0.0332492 15.2285 0.427015 15.0677 0.402819 14.5481C0.651218 14.5313 0.613705 14.2522 0.953817 14.3129C1.07244 13.9195 0.78398 13.9275 0.698925 13.7297C0.847197 12.9654 1.55652 12.6958 1.76639 11.9998C2.19603 12.0581 2.21792 11.7674 2.55612 11.7581C2.67164 11.6149 2.86894 11.5494 2.86236 11.3095C4.41452 10.5567 6.11944 9.92976 7.60005 9.10888C7.95512 8.9891 7.85475 9.32198 8.16118 9.24355C8.27005 9.22056 8.22588 9.06171 8.23254 8.94148C9.72802 8.30026 12.1479 8.33397 13.6392 7.90294C15.7682 8.58486 18.3795 8.70335 21.1018 8.87882C22.7673 8.99323 24.5158 8.86527 26.141 8.96077C27.0384 9.01621 27.9441 9.01139 28.7094 9.33054C32.9206 8.98501 38.505 9.71227 43.1683 9.15428C44.1844 9.54658 46.2283 8.94035 47.2448 9.34265C48.941 9.12608 50.1836 9.06201 52.0392 9.21122C53.2467 8.95804 54.54 8.93259 55.785 8.95849C56.6316 8.97529 57.5069 8.9513 58.3455 9.03836C60.0124 9.20274 61.7791 9.01426 63.4642 9.11813C64.1025 9.16065 64.7053 9.36421 65.3126 9.36757C65.4419 9.36403 65.4873 9.20272 65.6268 9.2089C69.1363 9.41281 73.1147 9.65389 76.7418 9.42442C78.0874 9.48757 80.742 9.73492 82.2606 9.57325C83.8445 9.98 86.2294 9.46446 88.571 9.55033C88.6274 9.42874 88.8167 9.43355 88.8015 9.2439L90.1543 9.20681C91.3588 9.93408 93.2602 9.21171 94.6388 9.75414C94.9403 9.85592 94.7826 9.55012 95.0326 9.59329C95.1991 9.85882 96.3524 9.8072 96.3017 9.40844C96.6487 9.71905 97.0378 9.38827 97.2506 9.16235C97.4713 9.22633 97.4787 9.49622 97.8932 9.36482C98.0049 9.08165 97.6705 9.23087 97.7239 8.99932C98.1793 8.90681 98.3632 9.08183 98.5279 9.27739C98.6367 9.2544 98.5926 9.09555 98.5992 8.97532C99.9197 8.84909 100.93 9.02148 102.115 9.02902C102.2 9.24675 101.939 9.16388 101.8 9.18769C102.171 9.27756 102.455 9.45986 103 9.37489C103.195 9.22948 102.892 9.05773 103.065 8.8529C104.265 9.0301 105.612 8.7731 106.905 9.11779C106.124 9.31926 105.223 9.13388 103.951 9.19877C103.85 9.50165 104.126 9.42405 104.122 9.63424C106.08 9.52055 108.2 9.87259 109.714 9.55098C110.031 9.47228 109.92 9.80543 110.275 9.68565C110.465 9.71046 110.226 9.34687 110.508 9.45919C110.501 9.19929 110.175 9.27826 110.178 9.02808C111.145 9.10159 112.51 8.77408 113.216 9.09486C112.753 9.64775 111.545 8.78053 111.384 9.44519C111.085 9.45337 111.175 9.09078 110.818 9.16057C110.564 9.31761 110.888 9.5388 110.912 9.6782C112.28 9.45064 113.676 9.92255 114.662 9.5754C115.114 9.70308 116.092 9.8263 116.347 9.67927C117.885 9.8472 120.853 9.55575 122.184 9.81938C122.567 9.59882 123.306 9.6986 123.525 9.34246C123.308 9.05829 122.227 9.19797 122.003 9.38418C121.686 9.05276 120.728 9.3591 120.159 9.28468C119.732 9.68653 118.745 9.25342 117.919 9.27605C117.382 9.29077 116.841 9.53568 116.572 9.53305C116.493 9.53523 115.657 9.188 115.368 9.19591C115.189 9.20082 114.83 9.51079 114.577 9.36766C114.572 9.19773 114.432 9.15156 114.485 8.93001C117.942 9.03532 122.493 9.10064 125.594 8.92561C125.835 9.00903 126.448 9.21232 126.629 8.89725C130.123 9.26165 135.748 8.58724 139.327 8.76925C139.556 8.78298 140.118 8.5875 140.131 9.04733C138.859 9.13221 138.125 8.85223 137.181 9.27825C134.831 8.8925 131.116 9.20439 128.867 9.20604C128.789 9.27819 128.712 9.36034 128.634 9.4325C129.662 9.88451 131.224 9.48156 132.549 9.54526C133.706 9.6036 135.257 9.56106 136.146 9.66675C136.407 9.74962 136.199 9.4252 136.46 9.50808C136.699 9.50153 136.705 9.73145 136.866 9.79706C137.873 9.48935 138.464 9.98335 139.333 9.3593C139.494 9.42492 139.52 9.6243 139.662 9.72044C140.192 9.44581 140.903 9.96653 141.255 9.37665C141.432 9.65191 142.613 9.89963 142.697 9.33712C143.073 9.24679 143.013 9.58857 143.417 9.46743C143.432 8.91682 142.885 8.93182 142.289 8.97816C142.423 8.42428 143.518 9.13456 143.962 8.6322C144.786 8.90973 146.946 8.57039 147.8 8.82711C147.2 9.09365 146.455 9.15408 145.804 9.03186C145.727 9.10401 145.649 9.18616 145.572 9.25832C145.479 9.50096 145.832 9.31121 145.739 9.55385C146.111 9.33356 146.986 9.27958 147.176 9.66453C147.343 9.58992 147.337 9.37 147.565 9.35373C147.832 9.29639 147.702 9.62009 147.892 9.64489C148.566 9.18624 149.573 9.23868 150.358 9.20714C149.863 8.55048 148.85 9.36854 148.43 8.95988C148.821 8.66908 150.049 8.44534 150.585 8.75077C151.884 8.20497 154.062 8.87552 155.216 8.47376C156.223 8.90632 157.322 8.32599 158.417 8.68612C158.811 8.52527 160.177 8.25773 160.341 8.78344C158.683 8.94893 156.588 8.76628 154.675 9.08881C156.266 9.38532 157.301 9.38696 158.909 9.19284L158.929 9.93256C159.332 10.0916 160.106 10.3705 160.535 10.0386C160.417 9.74172 159.912 9.8356 159.494 9.84705C159.38 9.68011 159.266 9.51317 159.317 9.18166C160.06 9.06125 160.328 9.40403 161.081 9.28335L161.073 8.98346C161.143 8.6414 160.554 8.93766 160.585 8.62668C161.786 8.46374 163.882 8.31624 165.539 8.4909C166.186 8.13303 167.511 8.53688 168.405 8.11221C169.296 8.28787 169.701 8.17673 170.405 8.05741C172.043 8.2526 174.676 7.72025 176.633 7.9567C176.703 8.30493 176.191 8.1489 176.087 8.34183C175.668 7.96315 174.987 8.53203 174.73 8.22896C174.601 8.2625 174.666 8.46079 174.416 8.38763C174.467 8.46624 174.597 8.4627 174.581 8.60319C174.214 8.67325 173.853 8.91326 173.546 8.63154C173.459 8.36383 173.862 8.52286 174.02 8.46851C173.484 8.16308 171.791 8.5096 170.508 8.56476C170.329 8.56967 170.487 8.87546 170.441 9.00678L169.725 9.02641C169.777 9.10502 169.906 9.10147 169.89 9.24197C170.245 9.14218 171.094 8.87882 171.402 9.20052C171.711 9.21206 171.591 8.8352 171.869 8.81757C171.729 9.16153 172.19 8.90881 172.118 9.18089C172.524 9.10973 172.665 8.79576 172.979 8.63709C172.524 9.09974 173.544 8.91171 173.634 9.28939C174.036 9.06829 175.099 8.97914 175.319 9.39325C174.741 9.37908 174.717 9.22968 174.287 9.49158C174.819 9.66706 175.46 9.45941 175.892 9.59763C176.212 9.63888 175.991 9.20478 176.28 9.21686C176.618 9.19759 176.344 9.38516 176.286 9.43678C176.872 9.77083 178.183 9.27474 178.532 9.67532C178.709 9.58044 178.952 9.39369 179.089 9.66005C179.197 9.58707 179.756 9.30163 179.805 9.64042C180.301 9.55681 181.217 9.22157 181.725 9.58779C182.066 9.30835 182.895 9.40567 183.322 9.39395C183.43 9.32098 183.415 9.14132 183.553 9.08752C183.527 8.85815 182.9 9.22547 182.99 8.88287C185.237 8.43112 188.4 8.68456 190.971 8.44401C191.15 8.4391 190.993 8.13331 191.039 8.00199C191.333 7.84387 191.518 8.03888 191.914 7.978C191.841 8.23008 191.452 8.20073 191.288 8.36531C192.211 8.63011 193.865 8.35467 194.735 8.86102C193.515 8.99452 193.075 8.92654 191.781 8.942C191.652 9.32567 191.998 9.23616 192.034 9.45526C193.109 9.08567 194.287 9.57357 195.621 9.20689C195.597 9.43762 195.913 9.32893 195.947 9.49805C198.138 9.16789 200.505 9.43315 203.131 9.37116C203.207 8.88889 202.78 8.90061 202.633 8.64453C202.538 8.7972 202.524 9.02766 202.409 9.17087C201.923 9.23422 201.689 9.07055 201.446 8.89716C201.909 8.7444 202.433 8.96013 202.629 8.49458L202.667 8.42352ZM99.2142 9.25858C99.2012 9.14889 99.0233 9.19379 98.894 9.19733C98.7323 9.47186 99.3109 9.51603 99.2142 9.25858ZM100.907 9.65233C100.928 9.30165 100.725 9.17715 100.338 9.22777C100.318 9.57846 100.52 9.70295 100.907 9.65233ZM124.321 9.68078C124.877 9.63553 125.637 9.77474 125.745 9.34163C125.391 8.77112 124.817 9.27703 124.215 9.08346C124.182 9.33446 124.256 9.49249 124.311 9.67106L124.321 9.68078ZM126.161 9.63034C126.66 9.69668 126.72 9.31491 127.036 9.60635C126.93 9.36916 127.293 9.53928 127.187 9.3021C127.088 9.30482 126.998 9.28729 127.024 9.15652C126.803 9.44268 125.842 8.87881 126.161 9.62035L126.161 9.63034ZM144.211 9.35565L144.768 9.34038L144.758 8.97052C144.462 9.08866 144.603 8.77469 144.356 8.83148C144.331 9.02223 144.103 9.0485 144.211 9.35565ZM101.097 10.3874C101.286 11.1125 102.255 10.1656 102.617 10.6459C102.511 10.4087 102.874 10.5788 102.768 10.3416C102.124 10.4493 101.589 10.1939 101.087 10.3877L101.097 10.3874ZM143.976 9.51214C144.106 9.53858 144.094 9.10875 143.966 9.14228C143.856 9.14528 143.649 9.56112 143.976 9.51214ZM150.913 9.10191C151.277 9.322 151.757 9.02875 152.023 8.92142C151.687 9.01066 150.974 8.78012 150.913 9.10191ZM161.286 8.74755C161.187 9.15039 161.447 9.19329 161.543 9.41075C162.651 9.18029 163.78 8.95928 164.797 8.6513C163.533 8.66593 162.568 8.68238 161.286 8.74755ZM165.517 8.78161C166.051 8.65693 166.198 8.92301 166.635 8.90101C166.529 8.66383 166.892 8.83395 166.786 8.59676C166.466 8.52552 165.719 8.52598 165.517 8.78161ZM169.5 8.45235C168.882 8.43927 167.775 8.35958 167.507 8.72708C167.965 8.76452 168.618 8.59658 168.941 8.75779C169.007 9.00606 168.819 9.03123 168.631 9.0664C168.576 8.53769 167.802 9.33921 167.511 8.87702C167.359 9.15128 166.82 9.08603 166.403 9.12748L166.411 9.42736C166.946 9.32267 167.351 9.21153 167.525 9.39683C167.914 9.06604 169.048 9.3851 169.355 8.97652C169.078 9.04413 168.976 8.9469 169.028 8.68536C169.568 8.75061 169.844 8.31286 170.222 8.65264C170.302 8.29032 169.729 8.45608 169.5 8.45235ZM103.88 10.6212C103.752 10.3146 104.329 10.629 104.19 10.3126L103.793 10.3235C103.806 10.4332 103.77 10.5942 103.88 10.6212ZM104.911 10.4429L104.915 10.5929C106.495 10.4895 108.01 10.9182 109.709 10.4615C108.249 10.2014 106.039 10.2119 104.911 10.4429ZM112.26 10.5416C113.125 10.5179 113.466 10.6086 114.42 10.5524C114.433 10.3119 114.282 10.2361 114.092 10.1913C113.472 10.8185 112.341 9.51898 112.26 10.5416ZM110.738 10.5833L112.011 10.5484C111.833 10.2132 111.267 10.2587 110.73 10.2834L110.738 10.5833ZM118.25 10.4474C118.702 10.5951 119.338 10.5577 119.441 10.3447C119.081 10.2746 118.428 10.0424 118.25 10.4474ZM119.935 10.5513C120.7 10.4903 121.396 10.4912 121.783 10.8007C122.009 10.6845 122.235 10.5683 122.246 10.2678C121.338 10.5528 120.181 9.73423 119.935 10.5513ZM125.362 10.2525C125.358 10.4627 125.634 10.3851 125.533 10.6879C125.821 10.68 125.957 10.5263 125.919 10.2372C125.591 10.2662 125.608 10.1457 125.362 10.2525ZM133.437 10.3312C133.588 10.4071 133.808 10.4211 133.843 10.6202C134.063 10.3041 135.028 10.6477 135.025 10.1477C134.427 10.124 133.801 9.81106 133.427 10.3415L133.437 10.3312ZM136.705 10.0916C136.912 10.7462 138.659 10.5482 139.27 10.3214C140.29 10.5135 141.777 10.6328 142.702 10.2273C143.99 10.3821 145.55 10.2793 146.78 10.4857C147.091 10.1971 147.607 10.503 147.978 10.6029C148.145 10.5283 148.139 10.3084 148.367 10.2921C149.036 10.7339 150.226 9.81101 150.769 10.3763C151.126 10.3465 151.382 10.2495 151.311 9.84126C150.395 9.82636 149.275 10.0071 148.592 9.76575C148.475 9.849 148.399 9.98113 148.282 10.0744C148.124 9.77857 147.337 10.0903 147.159 9.80502C145.157 10.09 141.823 9.77123 139.097 10.1761C138.354 9.94636 137.409 9.98226 136.695 10.0919L136.705 10.0916ZM160.821 9.5806L161.139 9.57187C161.105 9.41275 160.993 9.31579 160.812 9.28071L160.821 9.5806ZM131.99 10.2208L131.593 10.2317C131.48 10.4649 132.116 10.4475 131.99 10.2208ZM135.43 10.4266L135.422 10.1268L135.104 10.1355C135.138 10.3046 135.25 10.3916 135.43 10.4266ZM164.983 9.9867C165.646 9.84848 166.921 10.2437 166.972 9.56204C166.483 9.86556 166.163 9.45417 165.782 9.7447C165.665 9.44781 165.945 9.51015 165.93 9.3005C165.568 9.17037 165.798 9.57422 165.619 9.60912C165.232 9.63974 164.854 9.6501 164.66 9.48535C164.707 9.71417 164.947 9.7676 164.993 9.99643L164.983 9.9867ZM183.975 9.246C185.927 9.25254 188.14 9.0318 189.969 9.30178C190.358 8.97099 191.2 9.52814 191.644 9.03578C191.198 9.09803 191.081 8.83113 190.761 8.75989C189.79 8.92656 188.624 8.87849 187.488 8.84959C187.337 9.15384 186.735 8.98027 186.688 8.72146C186.128 8.98691 184.715 8.98564 184.132 8.79154C184.148 9.00119 183.867 8.93885 183.985 9.23573L183.975 9.246ZM151.719 10.2002C151.958 10.1937 152.207 10.1869 152.191 9.96721C151.815 10.0575 151.875 9.71576 151.471 9.8369C151.466 10.0471 151.714 10.0003 151.719 10.2002ZM161.535 9.86113L161.527 9.56124L161.288 9.56778C161.274 9.75826 161.268 9.93846 161.535 9.86113ZM228.279 8.03157C228.545 7.95424 229.179 8.19696 229.069 7.78984C228.954 7.6229 228.511 7.77512 228.271 7.74168L228.279 8.04157L228.279 8.03157ZM161.694 9.85676L161.704 10.2266C162.196 10.3632 162.502 9.91465 162.659 10.2004C162.55 9.83332 163.328 10.2522 163.208 9.88529C163.233 9.70454 162.841 9.93537 162.963 9.67192C162.619 9.82141 162.45 9.82605 161.694 9.85676ZM227.099 8.5841C227.465 8.47404 228.319 8.78074 228.287 8.33146C228.044 8.16807 227.461 8.3241 227.091 8.2942L227.1 8.59409L227.099 8.5841ZM225.439 9.3699L224.723 9.38953C224.791 9.69778 225.489 9.39852 225.606 9.66542C225.643 9.55437 225.506 9.28802 225.675 9.29338C226.095 9.3519 226.897 9.17987 227.438 9.31509C227.36 8.63698 226.098 9.10172 225.429 9.00004L225.439 9.3699ZM227.756 9.30637C228.035 9.29873 228.222 9.23357 228.144 8.9256L227.746 8.93651L227.756 9.30637ZM231.67 9.34916C231.883 9.13324 232.422 9.18849 232.859 9.16649C232.715 9.00037 232.251 9.15314 231.982 9.12051L231.978 8.97057C231.405 9.13633 230.789 9.19322 230.213 8.86889C230.219 9.07881 229.776 8.92087 229.823 9.17968C229.827 9.29963 230.024 9.2342 229.989 9.39523C230.398 9.0839 231.157 9.17313 231.67 9.34916ZM269.601 8.45944C270.629 8.91145 271.801 8.45916 272.649 8.89609C272.816 8.82148 272.81 8.60156 273.039 8.58529C273.152 8.70225 273.352 8.73678 273.29 9.01858C273.788 9.02494 274.091 8.84655 274.151 8.47478C273.881 8.43217 273.407 8.5952 273.273 8.42881L273.267 8.20889L274.143 8.18489C273.078 7.4738 270.423 7.5566 269.601 8.45944ZM262.499 8.65412L262.897 8.64322C262.863 8.50409 262.858 8.32415 262.65 8.34987C262.756 8.58706 262.393 8.41694 262.499 8.65412ZM260.824 8.92012C261.29 8.84733 262.072 9.04598 262.089 8.58533C261.595 8.34879 261.108 8.73228 260.824 8.92012ZM267.606 8.66419C268.236 8.75697 268.932 8.73789 269.199 8.32041C268.563 8.33786 267.855 8.29724 267.606 8.66419ZM184.571 11.0103C184.478 11.253 184.831 11.0632 184.739 11.3059C184.258 11.219 184.349 11.6366 184.359 11.9865C184.75 12.0858 184.692 11.7973 184.992 11.8191C184.891 11.4217 185.26 11.4316 185.128 11.0051C184.898 10.9314 184.798 10.9341 184.571 11.0203L184.571 11.0103ZM187.685 10.925C187.493 11.5605 186.86 10.9676 186.246 11.1145C186.244 11.3747 186.016 11.4409 185.942 11.643C185.612 11.572 185.235 11.6224 185.155 11.9647C186.277 11.8639 187.226 12.3681 188.109 11.8837C188.184 12.0917 188.541 12.0119 188.829 12.014C188.953 11.4504 189.719 11.7796 189.866 12.0557C190.212 11.9761 190.119 11.5085 190.241 11.2351C189.931 11.1535 189.921 10.7937 189.435 10.887C189.332 11.0999 189.665 11.2609 189.448 11.3268C189.328 11.3201 189.15 11.365 189.127 11.2656C189.124 11.1456 189.325 11.2002 189.28 11.0413C188.864 10.7226 188.342 10.937 187.675 10.9353L187.685 10.925ZM92.9942 13.6707C93.3501 13.5809 94.0933 13.8206 94.1837 13.488L92.9901 13.5207L92.9942 13.6707ZM105.046 13.1903C104.74 13.6588 103.64 12.7486 103.705 13.6672C105.264 13.5244 106.745 14.1641 107.932 13.5513C107.264 13.1495 105.84 13.4686 105.046 13.1903ZM150.079 12.1059L150.088 12.4058C150.423 12.3065 150.439 12.5162 150.649 12.5404C150.699 12.2089 150.576 12.0523 150.394 11.9572C150.48 12.1749 150.218 12.0921 150.08 12.1159L150.079 12.1059ZM153.917 12.3008L153.909 12.0009L153.67 12.0074C153.656 12.1979 153.651 12.3781 153.917 12.3008ZM195.442 11.3826C194.928 11.1566 193.344 11.13 193.295 11.8816C195.261 11.7077 197.254 12.1332 198.961 11.5763C199.054 11.3336 198.701 11.5234 198.793 11.2807C198.34 11.4532 198.141 11.4387 197.757 11.2391C197.599 11.2735 197.766 11.579 197.445 11.4678C197.283 11.012 196.57 11.5217 196.243 11.2006C196.33 11.1082 196.468 11.0644 196.392 10.8264C195.742 10.7141 195.877 11.2906 195.451 11.3723L195.442 11.3826ZM109.047 13.5308C109.725 13.9523 111.559 13.652 112.483 13.5866C111.305 13.1087 110.611 13.5679 109.047 13.5308ZM138.354 12.8774C138.712 12.8476 138.999 12.7698 139.142 12.5557C138.784 12.5756 138.284 12.4792 138.354 12.8774ZM191.934 11.6288C191.764 11.5935 191.41 11.7332 191.376 11.5741C191.402 11.4533 191.623 11.5073 191.526 11.2699L190.572 11.296C190.519 11.5476 190.902 11.377 190.82 11.6593L190.423 11.6703C190.802 12.4301 191.693 11.5454 192.191 11.9219C192.147 11.3829 192.979 11.6102 192.965 11.0904L192.09 11.1144C191.994 11.247 192.091 11.5445 191.945 11.6385L191.934 11.6288ZM260.512 9.52889C260.898 9.42829 261.671 9.6772 261.781 9.34405C261.554 9.03017 260.757 9.39212 260.512 9.52889ZM108.967 13.5329L108.092 13.5569C108.101 13.9068 108.884 13.7553 108.967 13.5329ZM115.041 13.5865C115.834 13.8449 116.54 13.8155 117.442 13.6708C116.886 13.3659 115.637 13.2 115.041 13.5865ZM181.221 11.5523C180.491 11.7724 179.412 11.6219 178.516 11.9966C178.406 12.3398 179.032 11.9425 178.922 12.2856C179.83 11.9906 181.197 12.1132 182.187 11.896C182.098 11.5583 181.466 11.7457 181.221 11.5523ZM183.47 11.8608C183.829 11.891 184.025 11.7756 184.017 11.4757L183.46 11.491L183.47 11.8608ZM259.39 9.62968C259.649 9.62259 259.958 9.64412 259.941 9.39449C259.601 9.34378 259.506 9.49645 259.39 9.62968ZM117.915 13.5077C117.899 13.6482 118.009 13.6652 118.003 13.8054C118.53 13.791 118.935 13.6599 119.187 13.4029C118.77 13.4543 118.19 13.3502 117.915 13.5077ZM120.48 13.7375C120.784 13.5692 121.251 13.5463 121.749 13.5527C121.588 13.127 120.671 13.4522 120.142 13.3767C120.128 13.6171 120.28 13.693 120.47 13.7378L120.48 13.7375ZM123.187 13.3632C123.128 13.3849 123.099 13.4257 123.112 13.5153C123.755 13.7378 125.357 13.6939 125.987 13.4366C126.429 13.2344 126.861 13.7527 126.941 13.4104C125.808 13.1013 124.42 13.2994 123.187 13.3632ZM127.415 13.2473C127.453 13.5664 128.083 13.299 128.374 13.3711C128.268 13.1439 127.611 13.1519 127.415 13.2473ZM221.395 11.1113C220.53 10.4048 219.153 11.0328 218.111 10.7612C217.494 10.7881 216.781 10.9177 216.111 10.816C215.597 11.3003 214.897 10.8293 214.359 11.1642C214.324 10.9751 214.104 10.9611 213.953 10.8752C213.751 11.511 213.149 10.9573 212.759 10.9079C212.458 11.1963 212.199 11.9136 211.586 11.6804C211.783 11.6149 211.746 11.3358 211.729 11.0862C211.097 11.2836 210.9 10.9789 210.46 11.2711C210.23 10.8672 209.596 11.0046 209.346 11.3016C208.552 11.0332 207.599 11.4995 206.546 11.2283C206.326 11.1843 206.616 11.5765 206.396 11.5325C206.2 11.2978 205.717 11.1209 205.437 11.4088C205.009 11.0503 203.705 11.0561 203.115 11.3223C202.993 11.2456 202.939 11.0871 202.711 11.1133C201.908 11.5855 201.049 11.1189 199.918 11.2599C199.89 11.6908 199.137 11.4814 198.977 11.8059C199.11 11.9523 199.36 11.9855 199.542 12.0905C199.815 11.863 199.839 12.0124 200.179 12.0731C201.803 11.7585 203.363 11.6757 204.884 11.574C204.967 11.7217 205.206 11.7152 205.212 11.9351C205.87 11.9771 206.79 11.7518 207.215 12.0302C207.37 11.4858 207.924 12.1008 208.158 11.5642C208.154 11.7744 208.431 11.6968 208.33 11.9997C209.342 11.8919 210.312 12.4255 211.045 11.9253C211.466 12.3939 213.344 11.9123 214.244 12.0577C214.754 12.1437 215.954 11.9608 216.635 11.772C216.749 11.939 216.892 12.0751 217.123 12.1288C218.071 11.8627 219.006 12.1872 220.399 12.189C220.494 11.6562 221.1 11.9798 221.503 11.7886C221.519 11.6481 221.409 11.6312 221.416 11.4909C220.953 11.6937 220.701 11.5805 220.22 11.4537C220.297 11.3715 220.375 11.2994 220.453 11.2272C220.733 11.2796 221.304 11.414 221.644 11.1245C221.856 11.2288 221.874 11.5084 222.212 11.4791L222.201 11.1093C221.951 11.0661 221.566 10.8066 221.406 11.1311L221.395 11.1113ZM130.695 13.4475C131.122 13.7759 131.887 13.3448 132.132 13.5582C132.126 13.3483 132.568 13.5062 132.521 13.2474C131.84 13.4462 130.924 12.731 130.685 13.4478L130.695 13.4475ZM135.892 13.4551C137.392 13.364 138.702 13.5882 140.199 13.3371C138.664 13.2691 136.781 12.5004 135.892 13.4551ZM103.948 14.1807C104.334 14.0801 105.107 14.329 105.217 13.9959C104.832 14.0965 104.058 13.8476 103.948 14.1807ZM105.951 14.2759C105.897 14.1073 105.804 13.9698 105.545 13.9869C105.6 14.1554 105.693 14.2929 105.951 14.2759ZM211.816 11.3739L212.135 11.3652C212.1 11.2061 211.988 11.1091 211.808 11.074L211.816 11.3739ZM223.943 10.7414C223.516 11.1432 222.952 10.5385 222.515 10.9306C222.437 11.3329 222.804 11.3028 222.696 11.7359C223.01 11.5573 223.528 11.5531 224.045 11.5489C224.02 11.7197 223.923 11.8323 223.98 12.0709C224.769 12.1593 224.837 12.1074 225.661 12.0248C226.356 11.2255 227.638 12.2407 228.69 11.7917C228.753 11.91 228.942 11.8948 228.937 12.085L230.618 12.039C230.392 11.7751 230.38 11.6754 230.437 11.2336C230.024 11.0649 229.239 10.7563 228.752 11.1298C228.659 11.3724 229.012 11.1827 228.919 11.4253C228.612 11.4737 228.499 11.3368 228.434 11.1385C227.534 10.9831 226.833 11.5725 226.196 11.1998C226.234 11.5189 225.57 11.6071 225.326 11.4438L225.32 11.2238L226.036 11.2042C225.956 10.4461 224.392 11.1492 223.943 10.7414ZM233.133 10.7896C233.488 10.6698 233.824 10.9707 234.008 10.7656C233.794 10.5914 233.328 10.6642 233.124 10.4897L233.133 10.7896ZM142.443 13.4956C142.365 13.2177 142.828 13.395 142.751 13.1171L142.035 13.1367C142.109 13.3147 142.252 13.4309 142.443 13.4956ZM143.318 13.4717C143.445 13.3881 143.847 13.167 144.032 13.382C144.165 13.8786 142.952 13.9019 142.765 13.6369C142.24 13.7213 141.337 13.8361 140.766 13.6917C140.851 13.9094 140.59 13.8265 140.452 13.8503C140.738 14.1226 140.46 14.1402 140.47 14.5201C140.726 14.413 140.869 14.199 141.095 14.0628C141.943 14.1496 142.848 14.1348 144.61 14.1165L144.62 14.4864C144.85 14.5401 144.826 14.3807 145.016 14.4055C144.741 13.8028 145.486 14.1025 145.557 13.8004C145.136 13.7019 144.609 13.7064 144.275 13.5354C144.35 13.3533 144.598 13.3365 144.745 13.2225C144.119 12.9195 143.693 13.3413 142.98 13.1208C142.967 13.3612 143.118 13.4371 143.308 13.4819L143.318 13.4717ZM275.612 9.84526C275.665 9.61372 275.668 9.70368 275.602 9.4754L275.124 9.48849C275.132 9.75839 275.294 9.87398 275.612 9.84526ZM116.487 14.0571C116.474 13.9474 116.296 13.9923 116.167 13.9958C116.005 14.2704 116.584 14.3145 116.487 14.0571ZM273.626 10.0497C274.164 9.69487 274.809 10.3274 275.051 9.71059C274.495 9.77584 274.172 9.60463 273.616 9.67988L273.626 10.0497ZM125.27 13.8163L123.997 13.8512C124.009 14.2811 125.282 14.2462 125.27 13.8163ZM125.435 14.0319C125.616 14.0969 126.626 14.2593 126.545 13.8514C126.364 13.7863 125.355 13.6239 125.435 14.0319ZM127.118 14.0558C127.475 13.986 127.647 14.0913 127.839 14.1861C127.771 13.9078 128.214 14.0858 128.392 14.0209L128.383 13.721C127.897 13.7743 127.146 13.5948 127.118 14.0558ZM129.516 13.9901L130.232 13.9704L130.242 14.3403C131.454 14.257 132.078 14.52 133.117 14.2615C133.039 13.9735 133.39 14.0639 133.261 13.7373C132.145 14.038 131.011 13.699 129.507 13.6902L129.516 13.9901ZM240.966 10.7849C240.401 10.8505 240.001 10.7714 239.61 10.6721C239.584 10.8428 239.263 10.7516 239.3 10.9807C239.21 11.3433 239.692 11.15 239.709 11.4096C239.171 11.7545 238.458 11.1538 238.11 11.5235C237.26 11.0166 236.375 11.7811 235.309 11.3802L235.297 10.9404C234.455 10.7334 234.016 11.0455 232.979 11.0039C233.049 11.3821 232.772 11.4497 232.679 11.6824C232.274 11.8035 232.325 11.472 231.959 11.5521C231.843 11.6953 231.646 11.7607 231.653 12.0006C232.553 12.156 233.889 11.8893 234.692 12.1374C234.881 12.1122 234.763 11.8153 234.921 11.761C235.134 11.8852 235.249 12.1021 235.568 12.1134C236.822 11.7489 238.681 12.7583 240.207 12.1363C240.368 12.2019 240.384 12.4215 240.613 12.4252C240.921 12.0467 242.127 12.4538 242.445 12.0749C242.556 12.472 243.43 12.7682 243.808 12.4077C243.842 12.5668 243.955 12.6638 244.135 12.6989C245.061 12.3733 246.582 12.6518 247.57 12.7547C247.577 12.6145 247.613 12.5035 247.721 12.4505C248.486 12.3695 249.163 12.0108 249.8 12.3935C249.99 12.0582 251.006 12.4405 251.063 11.9887C251.028 11.7996 250.809 11.7856 250.657 11.6997C249.204 12.0697 247.644 11.8024 246.097 11.6747C245.419 11.6233 244.457 11.7597 243.857 11.6661C243.228 11.5633 242.084 11.9648 241.379 11.664L241.369 11.2941C242.647 11.4292 241.184 11.0991 240.957 10.7852L240.966 10.7849ZM230.604 11.5092C230.818 11.6934 231.019 11.7579 230.777 12.0246C230.965 11.9894 230.95 12.1599 231.177 12.0837C231.223 11.9324 231.064 11.5966 231.242 11.5617C231.543 11.6135 231.618 11.4614 231.877 11.4743C231.865 11.0344 230.592 11.0693 230.604 11.5092ZM124.582 14.4854C124.499 14.7378 125.165 14.6895 124.978 14.4046C124.747 14.3508 124.772 14.5102 124.582 14.4854ZM128.015 14.4613C128.05 14.6305 128.414 14.4804 128.574 14.516C128.599 14.3353 127.968 14.1825 128.015 14.4613ZM274.613 10.813C274.922 10.8445 275.028 10.7016 275.082 10.5L274.605 10.5131L274.613 10.813ZM145.749 14.2753C145.755 14.1151 145.47 14.253 145.349 14.2163C145.178 14.5111 145.846 14.5328 145.749 14.2753ZM147.352 14.3014C147.124 14.3177 147.186 14.0559 146.871 14.1646C146.71 14.4791 147.316 14.4325 147.352 14.3014ZM255.302 11.5624C254.756 11.9575 253.832 11.6727 253.064 11.6238C252.386 11.5823 251.417 11.4688 251.234 12.0441C251.577 12.2147 251.979 12.3338 252.36 12.4534C252.484 11.8898 253.399 12.2048 253.633 12.4185C255.757 12.5303 256.88 11.7493 259.054 11.8997C258.927 11.6231 259.412 11.8799 259.285 11.5933C258.545 10.7433 256.553 12.1784 255.292 11.5527L255.302 11.5624ZM266.319 11.1104C266.265 11.3219 265.824 11.204 265.77 11.4255C265.64 11.3991 265.694 11.1975 265.448 11.2843C265.309 11.6483 265.722 11.4769 265.699 11.7176C267.123 11.7586 268.066 11.6527 269.528 11.6126C269.554 11.4419 269.66 11.3489 269.838 11.304C270.404 11.5886 271.412 11.691 271.917 11.247C270.446 10.5871 268.231 11.148 266.319 11.1004L266.319 11.1104ZM259.866 11.7274C260.207 12.1783 260.845 11.8607 261.392 11.8357C262.714 11.7694 264.417 12.1529 264.971 11.2974C264.91 11.279 264.879 11.2399 264.887 11.1496C263.47 11.3885 261.501 11.1124 259.866 11.7274ZM78.7886 16.9111C79.224 16.8192 79.2135 17.1596 79.668 17.0371L79.6579 16.6672C79.2594 16.6581 78.8812 16.6585 78.7886 16.9111ZM94.125 16.7909L94.1167 16.491L93.7984 16.4997C93.7456 16.7512 93.8478 16.8485 94.125 16.7909ZM234.888 13.0824C235.504 13.0655 236.401 13.0809 237.207 13.0888C237.176 13.7799 238.984 13.6303 239.049 13.1084C237.643 13.0168 236.363 12.8018 234.885 12.6323C234.822 12.8541 234.822 12.8641 234.897 13.0721L234.888 13.0824ZM273.935 12.2321C274.139 12.0364 274.606 12.0236 274.811 12.2081L274.796 11.6883C274.248 11.6433 274.005 11.8601 273.935 12.2321ZM274.978 12.5036C275.311 12.2944 276.071 12.4536 275.914 11.8077C275.694 11.7637 275.28 11.9151 275.196 11.7574C275.195 11.7074 275.184 11.6677 275.115 11.6896C274.96 11.8639 274.938 12.1546 274.978 12.5036ZM74.8044 17.5506C74.8387 17.7097 74.9508 17.8066 75.131 17.8417C75.3692 17.455 75.6996 17.8862 76.0859 17.8155L76.0776 17.5157C75.5623 17.5998 75.1391 17.4113 74.8044 17.5506ZM244.716 13.1931C243.794 13.3384 242.392 12.6766 242 13.2676L242.875 13.2436L242.884 13.5434C243.913 13.3452 244.255 13.826 245.052 13.8541C244.947 13.2768 245.923 13.6502 246.317 13.5194C246.301 13.6598 246.411 13.6768 246.405 13.8171C246.903 13.8334 247.576 13.6849 247.851 13.9275C248.2 13.5778 248.344 13.7539 248.882 13.7492C248.847 13.5701 249.027 13.5851 248.951 13.3771C247.413 13.5393 246.359 13.2281 245.034 13.1844C245.018 13.3149 245.124 13.5521 244.883 13.4886C244.646 13.5652 244.739 13.3325 244.716 13.1931ZM258.626 13.332C258.56 13.824 259.075 13.7499 259.281 13.9843C260.808 13.4023 262.563 13.8943 264.224 13.4787C264.219 13.3087 264.357 13.2549 264.292 13.0367C263.684 13.0133 263.27 13.1547 262.947 13.3736C262.712 13.15 262.186 13.2144 261.825 13.1043C261.656 13.1289 261.753 13.3863 261.594 13.4107C261.47 13.234 261.123 13.2736 260.949 13.1283C260.875 13.3304 260.618 13.3675 260.401 13.4434C260.325 13.2454 260.551 12.749 260.223 12.778C260.24 13.4078 258.998 13.4919 258.636 13.3417L258.626 13.332ZM274.266 12.6832L274.664 12.6723L274.656 12.3724L274.258 12.3833L274.266 12.6832ZM270.288 13.1624C270.594 13.074 271.277 13.3053 271.318 12.9841C271.171 12.718 270.656 12.8222 270.277 12.7925L270.288 13.1624ZM249.692 13.877L250.169 13.8639C250.189 13.5133 249.987 13.3888 249.6 13.4394C249.547 13.6709 249.687 13.7071 249.692 13.877ZM258.554 13.6341L258.546 13.3342L258.228 13.3429C258.262 13.502 258.374 13.599 258.554 13.6341Z" fill="black"/>
<path fill-rule="evenodd" clip-rule="evenodd" d="M179.576 8.17614L179.568 7.87625C179.263 8.02465 178.333 8.21022 178.219 8.06328C177.934 8.20114 178.364 8.25939 178.309 8.43096C178.145 8.26538 177.5 8.32309 177.982 8.13979C177.8 8.01475 177.394 8.1059 177.26 7.93951C177.284 7.71877 177.604 7.76003 177.729 7.62653C179.127 7.78829 181.929 7.2413 183.562 7.6167C184.133 7.36097 185.774 7.30599 186.357 7.54008C187.049 7.35106 187.813 7.26009 188.361 7.63522C187.774 7.65131 187.085 7.58015 187.018 8.04216C186.875 7.90603 186.625 7.86287 186.531 7.68539C186.135 8.1364 185.148 7.35316 184.695 7.88577C184.159 7.60034 183.081 7.84998 182.293 7.80154C182.309 8.01119 182.402 8.14868 182.699 8.09052C181.428 8.55554 179.704 8.11262 178.476 8.35635C178.547 8.03429 179.25 8.26511 179.586 8.17587L179.576 8.17614ZM179.735 8.17178L180.451 8.15214C180.472 7.80146 179.653 7.71386 179.735 8.17178ZM180.69 8.1456C181.029 8.17632 181.195 8.06172 181.239 7.83044L180.682 7.84571L180.69 8.1456ZM181.565 8.12161L181.963 8.1107L181.955 7.81081C181.696 7.80791 181.61 7.94031 181.565 8.12161Z" fill="black"/>
<path fill-rule="evenodd" clip-rule="evenodd" d="M198.197 8.40598C198.172 8.59673 197.944 8.623 198.052 8.93015C197.864 8.96532 197.879 8.79484 197.652 8.87109C197.639 8.74141 197.747 8.70842 197.724 8.56902C198.045 8.66025 197.968 8.40226 198.197 8.40598Z" fill="black"/>
<path fill-rule="evenodd" clip-rule="evenodd" d="M251.507 8.93543C251.12 9.32619 250.256 9.03976 249.753 9.20361L249.765 9.64344L249.208 9.65871C249.309 9.35582 249.032 9.43343 249.036 9.22324L249.593 9.20797C249.443 9.15208 249.369 9.02404 249.19 8.99896C248.888 9.26731 248.138 9.13782 247.592 9.1928C247.243 9.17236 247.517 9.70506 247.045 9.57793C247.037 9.26805 247.477 9.33602 247.508 9.04504C247.619 8.73188 247.061 9.0773 247.182 8.75388C248.558 8.82621 250.128 8.72315 252.14 8.76804L252.148 9.06792C252.274 8.93443 252.593 8.97568 252.617 8.75495C253.011 9.31437 251.682 9.14072 251.507 8.93543Z" fill="black"/>
<path fill-rule="evenodd" clip-rule="evenodd" d="M252.866 9.12824C253.317 9.24592 252.524 9.36769 252.723 9.72238C252.134 9.6585 251.119 10.0265 251.189 9.32426C251.72 9.44976 252.366 9.39205 252.866 9.12824Z" fill="black"/>
<path fill-rule="evenodd" clip-rule="evenodd" d="M189.79 13.6683L189.784 13.4484C189.6 13.2434 189.198 13.4645 189.07 13.538C188.982 13.2203 188.234 13.5509 188.107 13.2643C188.203 13.1516 188.453 13.1848 188.336 12.8879C189.484 12.6563 190.048 12.891 191.608 12.7982C191.498 13.1313 191.853 13.0216 191.782 13.3136L190.26 13.3554C190.087 13.6102 189.864 13.8264 189.396 13.8192C189.31 13.5715 189.642 13.6924 189.79 13.6583L189.79 13.6683Z" fill="black"/>
<path fill-rule="evenodd" clip-rule="evenodd" d="M196.87 12.6539C196.976 12.8911 196.613 12.721 196.719 12.9582C196.551 13.0028 196.19 12.8827 196.164 13.0434C196.054 13.3866 196.68 12.9893 196.57 13.3324C195.84 13.5525 195.088 13.0229 194.73 13.3828C194.62 13.3659 194.655 13.1948 194.642 13.0851L195.438 13.0633C195.246 12.9486 195.102 12.7824 194.716 12.863L194.708 12.5632C195.617 12.6983 196.209 12.8621 196.87 12.6539Z" fill="black"/>
<path fill-rule="evenodd" clip-rule="evenodd" d="M225.739 13.4232C225.327 13.6646 224.501 13.2871 223.738 13.408C223.632 13.1708 223.995 13.341 223.889 13.1038C224.658 13.1927 226.491 12.5423 227.249 13.3118C226.955 13.4899 226.315 13.3674 225.898 13.4188C225.881 13.5393 225.981 13.5466 225.984 13.6366C225.987 13.7665 225.732 13.5434 225.739 13.4232Z" fill="black"/>
<path fill-rule="evenodd" clip-rule="evenodd" d="M133.937 16.5999C133.584 16.7896 132.83 16.8703 132.344 16.9437C132.437 16.701 132.084 16.8908 132.177 16.6481C132.74 16.5126 133.497 16.5119 133.937 16.5999Z" fill="black"/>
<path fill-rule="evenodd" clip-rule="evenodd" d="M206.04 14.9235C207.312 14.8386 207.799 14.8053 208.986 14.5426C209.444 14.8802 210.793 14.3431 210.998 14.9277C211.259 15.0106 211.051 14.6861 211.312 14.769C212.479 15.2172 214.581 14.5593 215.55 15.023C215.384 15.1376 215.04 15.3071 214.913 15.0404C214.153 15.2913 213.254 15.1559 212.436 15.1083C210.332 14.9759 208.175 15.0851 206.04 14.9135L206.04 14.9235Z" fill="black"/>
<path fill-rule="evenodd" clip-rule="evenodd" d="M276.342 14.3269C276.264 14.4091 276.187 14.4813 276.109 14.5534C275.754 14.6532 275.921 14.2284 275.546 14.3488C275.389 14.4331 275.538 14.7791 275.319 14.7951C275.324 14.9551 275.658 14.8159 275.799 14.852C275.905 15.0892 275.542 14.9191 275.648 15.1563C275.741 15.2938 276.106 15.1637 276.131 15.3631C276.346 15.1972 276.478 14.9434 276.754 14.8259C276.713 15.1671 276.799 15.3948 277.011 15.4891C277.259 15.4722 276.998 15.0092 277.317 15.0405C277.568 15.1236 277.509 15.5154 277.654 15.7015C276.879 15.7728 276.839 16.4741 276.074 16.5551C276.004 16.1769 276.414 16.2257 276.538 16.0222C276.542 15.812 276.265 15.8896 276.366 15.5867C275.709 15.5548 275.821 16.372 275.921 16.7794C275.712 16.7851 275.746 16.5541 275.517 16.5704C275.259 16.5775 275.358 16.9149 274.966 16.8056C275.114 17.1216 275.379 17.3145 275.933 17.2192C276.014 17.6272 275.595 17.5986 275.391 17.7543C275.836 18.0222 274.958 18.3264 274.76 17.9917C274.464 18.0898 274.362 18.3627 274.138 18.5289C274.045 18.7716 274.398 18.5818 274.305 18.8244C273.725 19.0804 272.976 19.7412 272.624 18.8705C272.88 18.7535 273.085 18.6078 273.004 18.1899C272.608 18.2708 272.385 18.5169 272.469 19.0148C272.136 19.234 271.752 19.3946 271.369 19.5652C271.361 19.2853 270.976 19.3959 271.036 19.0541C271.552 18.9999 271.987 18.878 272.299 18.6493C272.293 18.4194 272.006 18.4773 272.049 18.216L270.855 18.2488C270.485 18.8992 270.176 18.1773 269.502 18.2858C269.526 18.0651 269.713 17.98 269.89 17.9051C270.058 17.8705 270.042 18.011 270.055 18.1206C270.46 17.6394 270.816 18.2798 271.406 18.0136C271.543 17.9398 271.579 17.7788 271.553 17.5694C271.919 17.4893 271.927 17.7592 272.118 17.854C272.318 17.8585 272.303 17.6789 272.431 17.6254C272.504 17.4033 272.248 17.5003 272.108 17.4841C272.002 17.247 272.365 17.4171 272.259 17.1799C272.684 17.4183 273.49 17.0361 274.095 16.9795C274.085 16.6096 273.857 16.2958 274.232 16.1654C274.15 16.0877 274.069 16.0199 273.987 15.9521C273.679 15.9705 273.779 16.3479 273.359 16.2694C273.352 16.0095 273.402 15.668 273.104 15.6862C273.209 15.5132 273.66 15.6409 273.898 15.5944C274.016 15.5311 274.062 15.3998 274.047 15.2202C273.871 14.9849 273.64 15.2813 273.492 15.3054C273.504 15.035 273.061 15.2172 272.929 15.1008C273.207 14.3429 274.761 15.4807 274.588 14.245C275.16 14.7795 275.677 13.6649 276.352 14.3467L276.342 14.3269ZM274.058 18.5311C274.044 18.3714 273.719 18.5104 273.579 18.4742C273.505 18.6863 274.106 18.8299 274.058 18.5311Z" fill="black"/>
<path fill-rule="evenodd" clip-rule="evenodd" d="M216.553 7.67274C215.783 7.91393 213.953 7.61395 213.123 7.83678C212.945 7.90167 213.104 8.25744 213.059 8.42874C212.769 8.35668 212.536 8.233 212.1 8.30497C212.121 7.95429 212.559 7.98228 212.968 7.98109C212.05 7.54608 210.538 7.94766 209.132 7.86615C208.464 7.82444 207.812 7.63224 207.208 7.76883C207.03 7.80373 207.188 8.13951 207.143 8.29082C206.675 8.30363 206.197 8.29673 206.253 7.79501C204.494 7.53311 202.79 7.81992 201.289 7.56093C201.882 7.02449 203.097 7.78148 203.603 7.34746C204.476 7.59363 205.99 7.26202 207.755 7.3837C208.034 7.40605 208.348 7.58753 208.557 7.5818C208.706 7.57771 208.821 7.4245 208.951 7.42095C211.239 7.39823 214.209 7.5069 216.552 7.65275L216.553 7.67274Z" fill="black"/>
<path fill-rule="evenodd" clip-rule="evenodd" d="M258.834 8.22439L258.84 8.44431C258.538 8.67268 257.726 9.18512 257.247 8.78809C256.452 9.20003 255.459 8.92714 254.617 9.08026C254.761 8.88624 255.021 8.579 254.601 8.49049C255.101 7.84654 256.616 8.30518 257.316 8.41605C257.659 8.20658 258.267 8.23993 258.834 8.22439Z" fill="black"/>
<path fill-rule="evenodd" clip-rule="evenodd" d="M184.094 12.8641C184.017 13.3264 184.354 13.2671 184.113 13.5338C183.46 13.3416 182.449 13.4894 181.942 13.1532C181.851 12.7355 182.535 12.9969 182.812 12.9093C182.719 13.1519 183.072 12.9621 182.979 13.2048C183.188 13.219 183.184 13.0491 183.209 12.8983C183.619 12.9471 183.813 12.7518 184.085 12.8744L184.094 12.8641Z" fill="black"/>
</g>
<defs>
<clipPath id="clip0_4022_8571">
<rect width="277.901" height="18.8" fill="white" transform="translate(0 8.20679) rotate(-1.57018)"/>
</clipPath>
</defs>
</svg>
