<svg width="42" height="107" viewBox="0 0 42 107" fill="none" xmlns="http://www.w3.org/2000/svg">
<g clip-path="url(#clip0_1447_807)">
<path d="M13.8627 100.953C13.8811 101.126 13.9334 101.175 14.1148 101.171C14.4156 101.16 14.8733 101.507 14.9625 101.807C15.0027 101.942 15.0663 102.028 15.1123 102.005C15.1583 101.982 15.1648 101.912 15.131 101.849C15.0972 101.785 15.09 101.696 15.1198 101.647C15.1893 101.528 15.0621 101.334 14.8227 101.188C14.7107 101.12 14.5979 101.104 14.572 101.147C14.5462 101.19 14.4527 101.154 14.3673 101.059C14.2819 100.965 14.1925 100.923 14.1707 100.961C14.1456 100.999 14.065 100.964 13.9845 100.882C13.8516 100.752 13.8411 100.756 13.8619 100.959L13.8627 100.953ZM9.78282 98.351C9.81269 98.3023 9.87313 98.3402 9.92546 98.4357C9.97456 98.5308 10.1035 98.6195 10.2059 98.6398C10.309 98.6543 10.4831 98.7493 10.5951 98.8415C11.0108 99.1822 11.0201 99.6302 10.6083 99.4253C10.4729 99.3592 10.3352 99.2399 10.307 99.1595C10.2756 99.0787 10.216 99.035 10.1733 99.0584C10.0708 99.1087 9.71742 98.4652 9.78523 98.3572L9.78282 98.351ZM13.2727 100.706C13.1476 100.917 13.104 100.923 12.9598 100.756C12.8664 100.648 12.7721 100.594 12.7455 100.643C12.7196 100.686 12.6801 100.687 12.6536 100.642C12.6302 100.597 12.7722 100.5 12.9666 100.427C13.3803 100.268 13.4794 100.358 13.2719 100.711L13.2727 100.706ZM13.5403 100.861C13.4879 100.765 13.5646 100.664 13.692 100.647C13.7517 100.644 13.7984 100.662 13.7944 100.691C13.787 100.79 13.5765 100.931 13.5403 100.861ZM11.1628 99.7385C11.1628 99.7385 11.1095 99.7663 11.0684 99.7546C11.0273 99.7429 11.0217 99.6892 11.0516 99.6405C11.0814 99.5918 11.1218 99.5857 11.1459 99.6244C11.1669 99.6626 11.1757 99.7168 11.1628 99.7385ZM12.2123 99.9214C12.2753 99.8715 12.3809 99.8687 12.4534 99.9142C12.7483 100.109 12.732 100.365 12.4354 100.206C12.1074 100.036 12.0962 100.023 12.2123 99.9214ZM11.2969 99.4164C11.326 99.3264 11.3816 99.3519 11.4621 99.5043C11.5305 99.6256 11.6199 99.7146 11.6594 99.6908C11.7022 99.6674 11.7522 99.6862 11.7731 99.7244C11.794 99.7626 11.7875 99.8323 11.7609 99.8814C11.735 99.9248 11.7478 100.044 11.7961 100.145C11.8412 100.245 11.7743 100.183 11.6439 100.012C11.5134 99.8407 11.3732 99.6682 11.3322 99.633C11.2878 99.5974 11.275 99.5015 11.2985 99.4284L11.2969 99.4164ZM7.43764 96.2045C7.59305 96.4321 7.76948 96.6039 7.82754 96.5886C7.97512 96.5447 8.44453 97.2985 8.38874 97.4846C8.36367 97.5693 8.38375 97.6603 8.44419 97.6982C8.53685 97.7641 8.54492 97.7535 8.53624 97.5348C8.52845 97.2163 8.66313 97.1706 8.81206 97.4443C8.87967 97.5714 9.02874 97.6805 9.14564 97.6911C9.2714 97.7088 9.37775 97.7943 9.41071 97.9106C9.44125 98.0207 9.49595 98.1695 9.53539 98.2397C9.59496 98.3539 9.58365 98.3876 9.46103 98.4644C9.34971 98.531 9.31103 98.5021 9.29183 98.3348C9.27183 98.1497 9.24039 98.1394 9.11611 98.2748C9.03057 98.3686 8.9588 98.3878 8.95401 98.3284C8.95003 98.2632 8.81229 98.1203 8.6471 98.0089C7.74462 97.3881 7.05584 96.721 6.79827 96.2145C6.71859 96.0563 6.6807 96.0451 6.63947 96.1745C6.57399 96.3828 6.48783 96.2472 6.50501 95.9616C6.53362 95.5012 7.04467 95.6319 7.43764 96.2045ZM18.6116 103.755L18.6923 103.649C18.8584 103.567 18.9509 103.891 18.9668 104.129C18.9731 104.247 18.9344 104.265 18.8152 104.201C18.596 104.076 18.4341 103.848 18.6107 103.761L18.6116 103.755ZM15.4705 101.726C15.4536 101.659 15.4834 101.704 15.5301 101.84C15.5944 102.014 15.6428 102.044 15.6953 101.952C15.738 101.881 15.8122 101.868 15.8646 101.917C16.0209 102.068 16.0386 102.106 15.9676 102.143C15.9321 102.161 15.9296 102.273 15.9617 102.395C16.0164 102.591 15.9922 102.599 15.7464 102.453C15.4209 102.266 15.3307 102.136 15.43 101.967C15.4687 101.902 15.4882 101.787 15.4713 101.72L15.4705 101.726ZM17.5648 103.038C17.3941 102.826 17.3909 102.802 17.5231 102.82C17.6037 102.832 17.6924 102.879 17.7189 102.924C17.7455 102.969 17.922 103.094 18.1081 103.197C18.5352 103.433 18.5827 103.516 18.4317 103.771C18.3106 103.977 18.1833 103.948 18.0448 103.693C18.0005 103.611 17.9288 103.606 17.8771 103.693C17.8053 103.806 17.3356 103.382 17.3776 103.247C17.4439 103.033 17.6679 103.17 17.5648 103.038ZM20.0889 105.339C20.0461 105.362 19.9825 105.324 19.9471 105.248C19.8899 105.14 19.8956 105.123 19.9899 105.154C20.1325 105.192 20.1873 105.294 20.0921 105.339L20.0889 105.339ZM16.488 102.675C16.488 102.675 16.3665 102.393 16.5535 102.396C16.7406 102.399 17.191 102.774 17.191 102.774L17.0867 103.117C17.1504 103.062 17.2036 103.057 17.2004 103.104C17.1971 103.151 17.1446 103.196 17.0809 103.205C17.031 103.21 16.6425 103.002 16.4846 102.862C16.3557 102.75 16.4436 102.71 16.4848 102.674L16.488 102.675ZM20.5733 105.519C20.5305 105.542 20.4781 105.517 20.4492 105.466C20.421 105.409 20.4468 105.389 20.5105 105.404C20.6499 105.441 20.666 105.467 20.5701 105.518L20.5733 105.519ZM16.2761 102.545C16.3203 102.628 16.3477 102.714 16.3315 102.735C16.3186 102.757 16.2477 102.747 16.1735 102.713C16.0647 102.668 16.0543 102.625 16.114 102.528C16.1568 102.458 16.2253 102.461 16.272 102.55L16.2761 102.545ZM18.5565 5.57808C18.2463 6.19281 17.8709 6.80424 17.6013 7.13077C17.4577 7.31041 17.4019 7.42602 17.4333 7.50686C17.4768 7.61879 17.0988 8.34155 17.0053 8.32839C16.9827 8.32522 16.9942 8.12696 17.0315 7.88531C17.0777 7.58026 17.1076 7.50804 17.122 7.63939C17.142 7.77742 17.1759 7.79394 17.2566 7.68773C17.326 7.59169 17.3438 7.48839 17.3004 7.37646C17.2135 7.15261 17.5866 6.4174 17.7567 6.47073C17.851 6.50164 17.868 6.47463 17.8641 6.29186C17.8634 6.13305 17.9119 6.0223 18.0571 5.87814C18.1645 5.7698 18.3534 5.50246 18.4729 5.28414C18.5924 5.06582 18.7272 4.87905 18.7683 4.8672C18.8812 4.83606 18.819 5.04481 18.5549 5.56609L18.5565 5.57808ZM20.9466 1.32926C20.9175 1.39571 20.7683 1.45112 20.6143 1.44709C20.2894 1.44252 20.1788 1.62094 20.0798 2.32418C20.0206 2.74497 19.9932 2.79989 19.6954 3.11657C19.4751 3.35009 19.3612 3.52807 19.3305 3.67658C19.2957 3.85391 19.2795 3.87515 19.2465 3.78233C19.22 3.71393 19.1877 3.80343 19.1625 4.00564C19.1398 4.19055 19.0614 4.42053 18.9847 4.52143C18.908 4.62233 18.8619 4.7393 18.8813 4.78904C18.8981 4.83257 19.0159 4.74332 19.1378 4.57825C19.4163 4.21183 19.4298 4.39596 19.1626 4.86977C18.9655 5.21827 18.9396 5.40273 19.1033 5.31408C19.1501 5.28539 19.0815 5.4227 18.9491 5.61569C18.5237 6.23184 18.4978 6.27523 18.3815 6.58804C18.2303 6.98415 18.2069 7.01025 18.187 6.80169C18.1678 6.61089 18.0613 6.71346 17.9844 7.00245C17.9496 7.13275 17.9553 7.16294 18.0029 7.10497C18.1635 6.89832 18.1157 7.19139 17.9429 7.48451C17.5852 8.08668 17.3163 8.61904 17.1627 9.03243C17.0779 9.2615 16.943 9.54232 16.8639 9.66052C16.6774 9.93407 16.5981 10.3344 16.7068 10.4496C16.764 10.5106 16.7607 10.5572 16.6962 10.5951C16.6454 10.6291 16.5898 10.6036 16.5793 10.5375C16.5344 10.3196 16.4019 10.6301 16.442 10.8591C16.4725 11.0398 16.4595 11.085 16.3894 11.0457C16.3193 11.0065 16.2991 11.033 16.3128 11.1231C16.3224 11.195 16.2351 11.3943 16.1189 11.5661C15.8363 11.9848 15.7038 12.3894 15.7058 12.8424C15.7055 13.2185 15.653 13.3346 15.2858 13.7708C15.0291 14.0757 14.912 14.3707 14.9739 14.5382C15.0198 14.6563 15.0109 14.6727 14.9319 14.6263C14.7949 14.5482 14.6195 15.0468 14.6426 15.4438C14.6529 15.604 14.6423 15.773 14.6108 15.8097C14.5826 15.8469 14.5616 15.8087 14.5625 15.7324C14.5618 15.6441 14.5279 15.6511 14.4706 15.7547C14.4213 15.8477 14.4042 16.0158 14.4348 16.1259C14.5208 16.4495 14.4496 16.6512 14.1624 16.9164C13.8977 17.1613 13.867 17.2628 14.0444 17.2878C14.1153 17.2978 14.1169 17.3568 14.0458 17.5114C13.9933 17.6274 13.965 17.7586 13.9818 17.8022C13.9987 17.8457 13.9519 17.8979 13.8769 17.9167C13.7681 17.9426 13.7027 18.0568 13.5693 18.4671C13.4205 18.9165 13.4157 18.9746 13.5318 18.8969C13.6585 18.8148 13.6601 18.8268 13.5551 19.0589C13.4872 19.2139 13.4251 19.2816 13.388 19.2411C13.2777 19.1139 13.2032 19.4796 13.3111 19.6241C13.3804 19.7162 13.3828 19.7459 13.3239 19.72C13.2562 19.687 12.4699 21.863 12.5181 22.0344C12.5334 22.0894 12.185 23.1632 12.0096 23.6852C11.7493 24.4598 11.7253 25.1912 11.8674 24.9996C11.9239 24.9252 11.9335 24.9501 11.9189 25.1244C11.9009 25.3217 11.8888 25.3377 11.78 25.293C11.6712 25.2483 11.6591 25.2642 11.6428 25.4735C11.6314 25.6012 11.595 25.7431 11.5587 25.7909C11.5224 25.8387 11.4618 26.0124 11.4213 26.183C11.3606 26.4273 11.3686 26.4872 11.4525 26.4755C11.5267 26.4624 11.5121 26.4956 11.4065 26.5689C11.3032 26.6484 11.2386 26.7804 11.1997 27.0101C11.1681 27.1879 11.0653 27.5908 10.9691 27.9006C10.8729 28.2103 10.7742 28.5844 10.7475 28.7276C10.7208 28.8708 10.6681 29.1515 10.6301 29.3518C10.5837 29.5883 10.5968 29.6352 10.6695 29.4926C10.8043 29.2353 10.8429 29.4053 10.741 29.8024C10.6738 30.0693 10.6633 30.0737 10.5789 29.8561C10.5234 29.713 10.4758 29.677 10.454 29.7621C10.4338 29.8356 10.453 29.9324 10.4989 29.98C10.6133 30.1019 10.5767 30.5024 10.4582 30.4328C10.3978 30.3949 10.325 30.6786 10.1978 31.3955C10.0601 32.1873 10.0429 32.4494 10.1194 32.5836C10.1983 32.7241 10.1934 32.7587 10.0983 32.757C10.0023 32.7612 9.95137 32.9597 9.82166 33.788C9.73572 34.352 9.63367 34.8902 9.59893 34.9735C9.52298 35.1626 9.57958 35.9289 9.67705 36.0308C9.7141 36.0713 9.72282 36.243 9.69526 36.4155C9.65069 36.6855 9.63858 36.7014 9.6226 36.5346C9.5698 36.0451 9.38771 36.8483 9.38385 37.6002C9.38279 37.8881 9.2235 38.4359 9.17961 38.8412C9.05123 40.0106 9.02078 40.7411 9.1153 40.5134C9.17509 40.369 9.2017 40.3668 9.229 40.5C9.25309 40.6092 9.22075 40.7222 9.13924 40.8107C9.0424 40.9146 8.99618 41.2197 8.93983 42.0641C8.86629 43.2177 8.87582 43.3836 9.00651 43.2962C9.05329 43.2675 9.05958 43.4565 9.02304 43.7629C8.98486 44.1044 8.94604 44.24 8.91225 44.153C8.88248 44.0841 8.8697 43.9412 8.88511 43.8317C8.90052 43.7222 8.89574 43.6627 8.87556 43.6893C8.81906 43.7636 8.74701 45.0467 8.79539 45.0535C8.81796 45.0567 8.85917 44.9508 8.88831 44.8138C8.93122 44.6024 8.93848 44.5975 8.93834 44.7621C8.93986 44.8681 8.9268 45.0544 8.91218 45.1817C8.83583 45.8411 8.75968 47.2235 8.79346 47.3106C8.81518 47.3665 8.80377 47.5178 8.76899 47.6481C8.71318 47.8577 8.69947 47.8617 8.66576 47.6806C8.6457 47.5661 8.6426 47.4246 8.66038 47.3683C8.67898 47.3062 8.67502 47.2175 8.65572 47.1678C8.60745 47.0434 8.5386 47.4158 8.51479 47.9121C8.50413 48.1281 8.52977 48.3198 8.57248 48.3435C8.62405 48.3742 8.64908 48.3366 8.6508 48.2075C8.6525 48.102 8.67027 48.0692 8.69199 48.1252C8.7459 48.2562 8.66334 48.6325 8.57463 48.6553C8.5335 48.6672 8.50119 48.7332 8.49872 48.7975C8.49947 48.8623 8.53896 48.8855 8.5914 48.8399C8.66644 48.7741 8.68086 48.8819 8.67079 49.3508C8.65666 49.8484 8.63885 49.9282 8.55588 49.8401C8.46727 49.7454 8.45839 49.7618 8.463 50.0328C8.46608 50.1978 8.51107 50.3923 8.56341 50.4643C8.62945 50.5559 8.62862 50.5852 8.56415 50.5526C8.49645 50.5195 8.45751 50.7962 8.42864 51.5622C8.37181 52.9709 8.371 52.9767 8.45656 52.8594C8.49692 52.8063 8.52286 52.6454 8.5133 52.5029C8.50375 52.3605 8.52245 52.1809 8.55637 52.1034C8.59434 52.0206 8.60712 52.1634 8.59157 52.4375C8.57441 52.6997 8.57559 53.2054 8.59141 53.5603C8.60643 53.921 8.59893 54.208 8.56991 54.2039C8.54411 54.2003 8.48677 54.3039 8.44473 54.439C8.3744 54.6584 8.37842 54.6766 8.49617 54.6344C8.59295 54.601 8.6171 54.6397 8.60569 54.7909C8.59672 54.9013 8.54422 55.0174 8.49098 55.0452C8.43693 55.0787 8.41349 55.1518 8.43681 55.2198C8.46095 55.2819 8.4873 55.5854 8.4959 55.8982C8.53956 57.6444 8.60658 58.4768 8.70411 58.5081C8.82744 58.5431 8.8144 58.7059 8.68533 58.7818C8.57805 58.8431 8.61821 59.0251 8.73352 59.0002C8.77465 58.9883 8.82266 59.4183 8.84313 59.9973C8.86281 60.5585 8.89853 61.2161 8.92251 61.4663C9.01839 62.4909 9.03946 63.2992 8.97005 63.3952C8.91758 63.4643 8.93121 63.5544 9.02783 63.7091C9.14619 63.8962 9.14455 63.9312 9.03564 64.0041C8.94125 64.0672 8.93479 64.0898 9.00814 64.106C9.08231 64.1165 9.11922 64.3215 9.1478 64.8428C9.16843 65.2337 9.20038 65.5909 9.21727 65.6344C9.23416 65.678 9.22028 65.8935 9.18783 66.1241C9.15376 66.3662 9.16407 66.5734 9.21321 66.6214C9.25912 66.6691 9.27196 66.7414 9.24371 66.7786C9.16703 66.8795 9.31257 67.3408 9.41633 67.6317C9.4662 67.7681 9.47819 67.8932 9.44432 67.9002C9.41045 67.9072 9.41601 68.0079 9.45945 68.1198C9.50289 68.2317 9.54529 68.6316 9.55705 69.0153C9.56641 69.3928 9.61442 69.8229 9.66429 69.9592C9.7978 70.3424 9.82743 70.5759 9.75162 70.6005C9.71049 70.6123 9.71928 70.7135 9.76513 70.8316C9.81099 70.9498 9.84944 71.2374 9.84843 71.4782C9.84823 71.7133 9.88504 72.0359 9.93007 72.1834C9.97106 72.3361 10.0071 72.6645 10.0044 72.9169C10.0018 73.1693 10.1354 73.435 10.1547 73.4847C10.1764 73.5407 10.2623 74.0054 10.3433 74.5282C10.4251 75.0453 10.5439 75.6969 10.6073 75.9703C10.6676 76.2433 10.7583 76.6499 10.8025 76.8737C11.0835 78.2182 11.4553 80.0399 11.904 81.4316C12.0318 81.8317 12.1355 82.1931 12.1347 82.2459C12.1354 82.3342 14.2424 87.7625 14.8088 89.1355C14.9713 89.5228 15.1444 89.8822 15.1943 89.9245C15.2443 89.9668 15.3014 90.1453 15.3206 90.3126C15.3638 90.7302 15.4434 90.9119 15.5089 90.7506C15.5493 90.6505 15.6491 90.8291 15.9114 91.4656C16.2147 92.2079 16.564 92.9036 17.0044 93.6534C17.0728 93.7747 17.2893 94.2461 17.4824 94.6965C17.6748 95.1527 17.8647 95.5791 17.9049 95.6436C17.9444 95.7138 17.9572 95.8096 17.933 95.865C17.9087 95.9204 18.9634 97.7265 18.7124 97.9675C18.6285 98.0497 18.3934 97.711 18.1524 97.6006C17.5246 97.3183 16.6276 96.8923 16.5245 96.7132C16.3546 96.4247 16.3232 96.4144 16.2344 96.6018C16.1697 96.7338 16.1149 96.7731 16.0762 96.6971C16.0424 96.6336 15.9707 96.6059 15.9134 96.6389C15.8594 96.6725 15.6804 96.612 15.5169 96.5126C15.3533 96.4132 15.1985 96.3679 15.1727 96.4113C15.1468 96.4546 15.0517 96.406 14.9615 96.2992C14.8713 96.1925 14.6812 96.0482 14.5393 95.9812C14.3975 95.9142 14.2597 95.8184 14.2339 95.7677C14.2082 95.7171 14.0792 95.6754 13.9526 95.6635C13.8253 95.6573 13.6641 95.5876 13.5891 95.5124C13.3394 95.2539 11.4732 94.0037 11.5418 93.9839C11.6442 93.9572 11.6579 93.9297 11.608 93.8404C11.5476 93.732 11.1061 93.3407 10.8563 93.1762C10.2842 92.8018 10.17 92.4683 9.76724 92.0354C9.56988 91.8254 9.36766 91.6499 9.32252 91.6436C9.27415 91.6368 9.16378 91.5331 9.076 91.409C8.97293 91.2534 8.89234 91.2186 8.8447 91.3001C8.74216 91.4679 8.58987 91.3583 8.55866 91.0893C8.52582 90.8319 8.37919 90.7055 8.30971 90.8721C8.28063 90.9385 8.18391 90.9014 8.08565 90.7818C7.99061 90.6626 7.86412 90.5566 7.8077 90.5369C7.75128 90.5172 7.58775 90.3472 7.4436 90.1565C7.10697 89.6976 7.04897 89.6424 6.57034 89.3047C6.34956 89.1443 6.12962 88.9546 6.09179 88.8729C6.04993 88.7964 5.95968 88.7367 5.89598 88.7454C5.82905 88.7536 5.7283 88.7218 5.66868 88.6781C5.59696 88.6269 5.53969 88.66 5.5033 88.7783C5.46692 88.8966 5.27066 88.3517 4.76093 88.5621C4.56171 88.6458 4.31371 89.2164 4.35762 89.7222C4.39594 90.1744 4.30871 90.3502 4.16703 90.0951C4.12275 90.0125 4.05422 90.0087 4.01224 90.0733C3.96945 90.1437 3.95406 90.2297 3.9774 90.2742C3.99833 90.3124 3.99424 90.3882 3.9684 90.4316C3.94256 90.475 3.89419 90.4682 3.86521 90.4171C3.78713 90.2709 3.24437 91.3937 3.25299 91.683C3.26082 91.9545 3.16958 92.1121 2.97444 92.1435C2.83574 92.171 2.82282 92.1927 2.85004 92.4199C2.87085 92.5991 2.82961 92.7521 2.70527 92.9579C2.48565 93.3268 3.0079 93.5649 3.16429 93.5986C3.3368 93.6347 3.34486 93.624 3.33862 93.388C3.3347 93.2523 3.34928 93.172 3.37102 93.2045C3.39195 93.2427 4.54249 94.1805 4.92034 94.51C5.08711 94.6569 5.26514 94.8407 5.31667 94.9185C5.36579 94.99 5.53171 95.1898 5.68152 95.3637C5.83215 95.5318 5.95536 95.7079 5.95291 95.7487C5.94473 95.8769 6.34858 95.9748 6.38819 95.857C6.42295 95.7502 6.27484 95.4707 5.92292 94.9803C5.76347 94.758 5.67026 94.3921 5.7847 94.4435C5.81533 94.4596 5.94263 94.5598 6.06186 94.6706C6.18109 94.7815 6.55895 95.1109 6.89975 95.3999C7.24055 95.6889 7.59501 96.0209 7.69167 96.1286C7.78833 96.2362 7.91401 96.348 7.97366 96.3681C8.02927 96.3936 8.42408 96.696 8.84545 97.0434C10.0854 98.0702 11.0249 98.7315 12.0742 99.3142C12.3361 99.4627 12.6649 99.6501 12.8019 99.7281C12.9381 99.8119 13.5473 100.133 14.1542 100.447C14.761 100.762 15.4388 101.134 15.6563 101.27C15.8763 101.413 16.3203 101.669 16.6443 101.844C16.9715 102.02 17.2447 102.182 17.2584 102.201C17.2712 102.226 17.5767 102.393 17.9393 102.573C18.3012 102.759 18.6147 102.939 18.6364 102.971C18.7201 103.124 20.9791 104.294 21.0299 104.213C21.0509 104.181 21.1976 104.26 21.3612 104.383C21.5247 104.506 21.756 104.615 21.881 104.615C22.1422 104.628 22.9877 104.977 23.0553 105.104C23.0891 105.167 23.0681 105.2 22.9762 105.222C22.9076 105.242 22.8158 105.193 22.7747 105.111C22.7328 105.035 22.6514 105.006 22.595 105.057C22.5393 105.102 22.3249 105.06 22.1185 104.96C21.9122 104.861 21.6849 104.793 21.6099 104.812C21.5382 104.831 21.3576 104.782 21.2101 104.709C21.0634 104.629 20.8466 104.534 20.7265 104.5C20.6072 104.459 20.2075 104.262 19.8416 104.058C19.2219 103.718 18.9285 103.676 19.1645 103.962C19.2176 104.029 19.249 104.157 19.2287 104.254C19.2036 104.385 19.2415 104.42 19.4035 104.413C19.5164 104.406 19.6615 104.497 19.7219 104.605C19.7895 104.732 19.8419 104.757 19.8605 104.672C19.8742 104.597 19.8509 104.506 19.8058 104.476C19.7607 104.446 19.7358 104.366 19.7471 104.309C19.756 104.246 19.8326 104.262 19.9075 104.337C19.9969 104.426 20.0372 104.538 20.0161 104.641C19.9934 104.755 20.0127 104.805 20.0909 104.81C20.149 104.818 20.269 104.9 20.3544 104.994C20.4736 105.128 20.5373 105.12 20.6197 104.978C20.7069 104.826 20.7464 104.826 20.8188 104.989C20.8687 105.102 21.0105 105.263 21.1362 105.351C21.2619 105.439 21.3377 105.462 21.3731 105.467C21.3635 105.465 21.3522 105.475 21.3417 105.48C21.2884 105.508 21.2852 105.531 21.3319 105.549C21.3763 105.561 21.6777 105.733 21.922 105.75C22.1203 105.766 22.2849 105.624 22.3581 105.758C22.4233 105.879 22.5337 105.959 22.6015 105.945C22.67 105.925 22.7619 105.974 22.8037 106.05C22.8456 106.126 22.9633 106.178 23.06 106.168C23.16 106.159 23.2849 106.229 23.3397 106.331C23.4105 106.459 23.5008 106.471 23.6573 106.364C23.7767 106.287 23.991 106.446 24.1515 106.451C24.3893 106.467 24.8387 106.054 25.0153 106.038C25.2008 106.029 25.3492 105.956 25.375 105.865C25.4001 105.78 25.4154 105.765 25.4097 105.829C25.3903 105.991 25.9048 105.793 25.9808 105.604C26.0212 105.503 25.883 104.92 26.2877 104.918C26.5675 104.916 26.632 104.878 26.712 104.66C26.7613 104.52 26.7921 104.372 26.7776 104.334C26.7631 104.297 26.7931 104.201 26.8455 104.132C26.898 104.063 26.974 103.827 27.0169 103.615C27.0873 103.255 27.0293 103.223 26.8187 102.477C26.6957 102.042 26.51 101.469 26.4094 101.202C26.3056 100.935 26.1915 100.46 26.1507 100.143C26.1099 99.8256 26.0369 99.3627 25.9895 99.115C25.9389 98.8669 25.9006 98.3912 25.9017 98.0563C25.9017 97.1686 25.7826 95.9586 25.6731 95.755C25.6079 95.6342 25.4587 93.7732 25.4928 93.5076C25.505 93.4212 25.4897 93.3426 25.4615 93.3327C25.4333 93.3229 25.3939 93.1822 25.3771 93.0211C25.3523 92.8001 25.3709 92.738 25.4434 92.76C25.5877 92.8097 25.4823 91.5957 25.3085 91.195C25.1967 90.9382 25.1903 90.8668 25.2718 90.7783C25.3259 90.7213 25.3647 90.6092 25.3591 90.532C25.2418 89.0988 25.2046 88.2882 25.2452 87.9294C25.2728 87.6864 25.2811 87.4407 25.2634 87.3794C25.2457 87.3182 25.237 87.1229 25.2428 86.9415C25.262 86.1506 25.2507 85.2497 25.209 84.9381C25.1922 84.8005 25.3825 83.8221 25.3909 83.5059C25.3992 83.1896 25.4545 82.586 25.5121 82.1533C25.5689 81.7262 25.6015 81.3311 25.5838 81.2698C25.5662 81.2086 25.6334 80.8477 25.7297 80.4674C25.8364 80.0591 25.8989 79.6153 25.883 79.3779C25.8678 79.1583 25.8995 78.91 25.9487 78.817C26.0594 78.615 26.223 77.7093 26.489 75.8656C26.6488 74.7301 27.397 70.9321 27.7239 69.5673C28.0565 68.1856 28.278 67.4526 28.4799 67.0695C28.4799 67.0695 29.097 65.7926 28.9589 65.1383C28.8207 64.484 28.2178 65.3103 28.1953 65.2365C28.1727 65.1628 28.0688 65.1306 27.9647 65.1688C27.5558 65.317 27.3923 65.1236 27.2696 65.3179C27.1768 65.4636 27.0267 65.6188 26.9363 65.6531C26.6887 65.7535 26.2755 66.2126 25.9378 67.0469C25.7617 67.4806 25.7049 67.8371 25.6267 67.879C25.4589 67.9729 24.36 70.828 24.451 70.9055C24.4865 70.934 24.3387 71.2365 24.2642 71.6022C24.1937 71.9627 24.1305 72.3653 24.1312 72.5006C24.1284 72.941 24.0941 73.3947 24.07 73.3091C24.0564 73.266 24.0224 73.32 23.9925 73.4392C23.9634 73.5527 23.9656 73.747 23.9986 73.8633C24.0316 73.9797 24.0435 74.1283 24.0217 74.1899C23.9999 74.2515 23.9741 74.2008 23.9613 74.0815C23.9309 73.7833 23.8422 73.9001 23.7579 74.3585C23.719 74.5647 23.6649 74.7628 23.6414 74.7889C23.5833 74.8513 23.368 75.9378 23.3969 76.036C23.4073 76.0786 23.3522 76.447 23.268 76.8584C23.0615 77.9051 22.9351 78.6868 22.8489 79.4859C22.8091 79.8624 22.7225 80.3146 22.6586 80.4878C22.5891 80.6779 22.5623 80.8917 22.5961 81.0022C22.6274 81.1066 22.6192 81.3523 22.5763 81.5402C22.4832 81.968 22.2734 84.1135 22.2745 84.6192C22.2736 84.719 22.2524 85.01 22.2296 85.2654C22.2044 85.5381 22.2195 85.7813 22.267 85.8644C22.3178 85.9479 22.3225 86.0544 22.2805 86.1426C22.2167 86.2688 22.255 86.7209 22.3891 87.4041C22.4164 87.5372 22.4065 87.724 22.3702 87.8188C22.3338 87.9136 22.3296 88.154 22.3576 88.3519C22.3889 88.5503 22.3887 88.7384 22.3581 88.7694C22.2685 88.8685 22.382 89.1137 22.4973 89.0653C22.6336 89.008 22.7243 89.5322 22.6923 90.1802C22.6808 90.4255 22.6999 90.7103 22.7369 90.8213C22.7739 90.9324 22.8236 91.2333 22.8492 91.4955C22.8604 91.6264 22.8067 91.2368 22.7149 91.071C22.6199 90.9048 22.4828 90.9678 22.4981 90.9759C22.5126 90.9897 22.4478 91.3332 22.5096 91.6417C22.5634 91.9138 22.743 92.1566 22.7389 92.2089C22.7259 92.3717 22.7154 92.3761 22.6752 92.2411C22.664 92.2043 22.4995 92.2046 22.5691 92.8552C22.6586 93.7143 23.0218 95.2467 22.9903 95.2129C22.9702 95.1924 22.8395 95.2564 22.5916 94.8217C22.1697 94.0805 21.6619 92.9685 21.5677 92.8201C21.4196 92.5876 21.345 92.1597 21.3047 92.1423C21.1564 92.0744 20.8745 91.6468 20.6178 91.111C20.4729 90.8084 20.2652 90.4383 20.1605 90.2942C20.0365 90.1239 19.3043 88.3632 18.1064 85.3318C17.388 83.5201 16.827 82.2949 16.3276 80.8902C15.4371 78.4076 14.955 76.5527 14.93 76.4728C14.881 76.2837 14.5684 75.0464 14.3211 73.9299C14.056 72.7287 13.8822 71.4169 13.7585 70.8704C13.6765 70.5179 13.6148 70.1624 13.6197 70.0808C13.6246 69.9992 13.5942 69.748 13.5532 69.5248C13.4368 68.9029 13.2696 67.4744 13.2899 67.3068C13.3012 67.2261 13.2804 67.0703 13.2385 66.9704C13.1637 66.7776 13.0887 65.9323 12.9464 63.5551C12.9257 63.1877 12.8937 62.854 12.8793 62.8167C12.8648 62.7794 12.8345 62.3166 12.8164 61.7909C12.7983 61.2652 12.7609 60.7838 12.7343 60.7154C12.7078 60.647 12.6775 60.2077 12.669 59.7304C12.6606 59.253 12.6216 58.6185 12.5864 58.3079C12.4576 57.167 12.4458 54.8434 12.4525 53.6745C12.4537 53.1985 12.4339 52.7549 12.4106 52.6869C12.384 52.6185 12.3882 52.4251 12.4158 52.2526C12.4466 52.0806 12.3379 50.9367 12.33 50.7357C12.3221 50.5347 12.5494 45.9051 12.5406 45.7569C12.5319 45.6087 12.5532 45.2238 12.593 44.8943C12.632 44.5706 12.6615 43.9634 12.6602 43.5517C12.659 43.1401 12.678 42.5608 12.7065 42.265C12.7488 41.7772 12.8931 39.9105 13.0573 38.3229C13.176 37.1757 13.2855 36.421 13.4526 35.2571C13.7365 33.2396 14.3034 30.3096 14.3528 30.0756C14.6224 28.7438 14.7357 28.2425 14.8569 27.8716C14.9321 27.6411 15.0268 27.2489 15.0697 26.9904C15.1127 26.7319 15.2639 26.1712 15.4062 25.7445C15.5485 25.3177 15.7045 24.746 15.7523 24.4764C15.8001 24.2068 16.1226 23.3646 16.3248 22.5818C16.527 21.7991 16.8316 21.0131 16.856 20.8166C16.8836 20.6206 16.9321 20.4159 16.9725 20.3628C17.0419 20.2667 17.5479 18.7978 17.6118 18.507C17.6482 18.3416 18.1009 16.971 18.2294 16.6422C18.2754 16.5253 18.4403 16.0782 18.5987 15.6537C19.149 14.1499 19.3381 13.6709 19.7169 12.8249C20.0716 12.0342 20.4497 11.0293 20.6632 10.3069C20.808 9.8158 21.3185 8.59441 21.4558 8.41385C21.5244 8.32357 21.627 8.08524 21.686 7.87604C21.7442 7.67262 21.968 7.1104 22.1837 6.62933C22.443 6.04858 22.557 5.70603 22.5256 5.6252C22.4991 5.5568 22.5082 5.3053 22.5446 5.06942C22.6322 4.51742 22.5738 3.99778 22.4094 3.9041C22.3215 3.85059 22.2998 3.79463 22.3322 3.68162C22.3645 3.5686 22.305 3.40738 22.1126 3.04524C21.9218 2.69508 21.8607 2.52188 21.8882 2.41994C21.9092 2.3406 21.956 2.26489 21.9899 2.2579C22.0827 2.2298 22.178 1.97282 21.8646 1.72297C21.8646 1.72297 21.4317 1.6209 21.4108 1.51215C21.3659 1.27069 21.0395 1.06605 20.966 1.23793L20.9466 1.32926ZM23.4237 76.7804C23.4076 76.7311 23.4246 76.6571 23.4553 76.6261C23.4867 76.5894 23.527 76.6069 23.5399 76.6557C23.556 76.705 23.539 76.779 23.5083 76.81C23.4768 76.8467 23.4365 76.8293 23.4237 76.7804ZM23.26 77.6862C23.2948 77.5559 23.3271 77.5134 23.3416 77.5742C23.3568 77.6293 23.3495 77.7282 23.3261 77.8013C23.2541 78.0087 23.1978 77.9184 23.26 77.6862ZM22.8238 80.5758C22.8369 80.413 22.853 80.4153 22.9012 80.5866C22.9342 80.703 22.9341 80.8205 22.9026 80.8572C22.8292 80.9351 22.8002 80.837 22.823 80.5815L22.8238 80.5758ZM22.5735 82.9389C22.585 82.6466 22.6206 82.5341 22.6632 82.6753C22.6769 82.7183 22.6598 82.8629 22.6258 82.9874C22.57 83.1971 22.5676 83.1909 22.5775 82.9336L22.5735 82.9389ZM22.5252 83.7962C22.5003 83.7163 22.5036 83.5522 22.536 83.4392C22.6063 83.1728 22.6514 83.3202 22.6051 83.6723C22.5727 83.9029 22.5638 83.9192 22.5252 83.7962ZM22.3482 85.1704C22.3435 85.0639 22.3654 84.9553 22.3928 84.9239C22.467 84.8403 22.4742 84.906 22.4103 85.1498C22.3659 85.3257 22.3554 85.3301 22.3482 85.1704ZM22.3873 85.7343C22.3873 85.7343 22.4083 85.6315 22.4495 85.5491C22.4907 85.4667 22.5335 85.4434 22.5495 85.4927C22.5624 85.5415 22.5341 85.6257 22.4873 85.6779C22.4405 85.7301 22.3945 85.753 22.3905 85.7348L22.3873 85.7343ZM22.6004 86.3698C22.5722 86.36 22.5473 86.28 22.5425 86.1971C22.5393 86.1026 22.5611 86.1115 22.5957 86.2163C22.6246 86.3144 22.6286 86.3797 22.6004 86.3698ZM22.9401 87.0407C22.907 86.9949 22.8757 86.8906 22.8741 86.8081C22.8726 86.7256 22.9 86.7647 22.9378 86.8934C22.9755 87.0222 22.9763 87.087 22.9401 87.0407ZM22.4636 86.9443C22.4574 86.7553 22.4654 86.7447 22.5597 86.8696C22.7038 87.0604 22.7472 87.2193 22.6778 87.2919C22.589 87.3852 22.4691 87.1861 22.4636 86.9443ZM23.1249 88.6951L23.0275 88.4521C22.9712 88.3148 22.952 88.1476 22.9763 88.0687C23.0029 87.996 23.0014 87.89 22.9732 87.8331C22.9451 87.7762 22.9532 87.6716 22.9896 87.6003C23.0396 87.5015 23.0598 87.522 23.0629 87.687C23.0652 87.8108 23.0819 88.0894 23.0978 88.3033L23.1281 88.6955L23.1249 88.6951ZM23.0181 90.085C23.0005 89.8826 22.9547 89.694 22.9169 89.6592C22.7791 89.5399 22.4648 88.4082 22.4949 88.1479C22.5192 87.9279 22.5603 88.0101 22.7838 88.7587C22.9269 89.2374 23.0628 89.6269 23.0846 89.6358C23.1378 89.6551 23.1418 89.6968 23.1648 90.1644C23.1877 90.6555 23.0628 90.585 23.0181 90.085ZM23.2654 92.2771C23.2324 92.1608 23.2293 92.0428 23.264 92.0065C23.3374 91.9287 23.3672 92.0211 23.3427 92.288C23.3297 92.4508 23.3136 92.4485 23.2654 92.2771ZM23.374 93.4681C23.3425 93.5048 23.2853 93.4204 23.2476 93.2916C23.2106 93.1571 23.2123 93.0515 23.255 93.0516C23.2986 93.046 23.3533 93.1243 23.3815 93.2281C23.4104 93.3263 23.4079 93.4376 23.3732 93.4739L23.374 93.4681ZM23.7534 105.19C24.042 105.313 24.0637 105.346 23.9612 105.466C23.732 105.74 23.5554 105.756 23.521 105.51C23.5025 105.384 23.4421 105.299 23.3808 105.314C23.272 105.34 23.2672 105.21 23.3705 105.107C23.4012 105.076 23.5729 105.118 23.7494 105.195L23.7534 105.19ZM19.4036 102.497C19.4486 102.574 19.4599 102.634 19.4301 102.636C19.4002 102.638 19.3624 102.579 19.3471 102.501C19.3295 102.416 19.3528 102.414 19.4003 102.497L19.4036 102.497ZM6.12888 95.503C6.15222 95.5475 6.14894 95.6176 6.12229 95.6667C6.09564 95.7159 6.06337 95.7348 6.05613 95.7162C6.04567 95.6971 6.04896 95.627 6.06272 95.5525C6.07649 95.478 6.10876 95.4591 6.12888 95.503ZM10.6199 93.3839C10.5901 93.3856 10.5522 93.3274 10.5402 93.2493C10.5225 93.1645 10.5459 93.1619 10.5934 93.245C10.6393 93.3161 10.6497 93.3823 10.6199 93.3839ZM11.1387 93.9037L11.0146 93.8275C10.9445 93.7882 10.8615 93.7001 10.8269 93.6423C10.7713 93.5463 10.7762 93.5353 10.8737 93.5666C10.9334 93.5868 11.0172 93.6691 11.0614 93.7517L11.1387 93.9037ZM5.54357 94.5213L5.6021 94.8999L5.39771 94.4361C5.23033 94.0598 5.182 94.006 5.14077 94.1354C5.09145 94.2989 5.01087 94.2406 5.02151 94.0481C5.03052 93.8906 5.33692 93.8632 5.415 94.0094C5.45445 94.0796 5.51069 94.3109 5.54357 94.5213ZM14.7586 96.9232C14.7216 96.8592 14.7257 96.7834 14.7676 96.7657C14.8104 96.7424 14.8499 96.742 14.8579 96.7549C14.8652 96.7736 14.8619 96.8437 14.8489 96.9124C14.8352 96.9869 14.7957 96.9872 14.7586 96.9232ZM17.7211 93.7954C17.8281 93.9927 17.9771 94.2429 18.0536 94.3536C18.2686 94.6719 18.7272 95.8063 18.6321 95.7812C18.5837 95.7744 18.3567 95.3779 18.12 94.9096C17.8834 94.4413 17.6306 93.9473 17.5574 93.8135C17.4809 93.6793 17.4447 93.539 17.4762 93.5023C17.5045 93.4651 17.618 93.5928 17.7251 93.7901L17.7211 93.7954ZM16.9192 92.3658C17.0063 92.4016 17.1383 92.6318 17.2614 92.9489C17.3909 93.2904 17.4247 93.448 17.3618 93.4039C17.3078 93.3669 17.154 93.1042 17.0196 92.8208C16.8015 92.361 16.7919 92.3126 16.9192 92.3658ZM15.8249 89.8839C16.039 90.302 16.4733 91.4683 16.4579 91.5778C16.4377 91.7219 15.6394 89.8931 15.6452 89.7117C15.6485 89.5946 15.7089 89.656 15.8249 89.8839ZM15.0208 88.2365C15.045 88.2047 15.1545 88.3612 15.2632 88.5939C15.3686 88.8263 15.4829 89.0657 15.5167 89.1293C15.5473 89.1924 15.5738 89.3313 15.5713 89.4426C15.5671 89.589 15.5276 89.5423 15.4077 89.2727C15.3184 89.0661 15.1864 88.7654 15.1116 88.5961C15.0368 88.4269 14.9966 88.2684 15.0216 88.2308L15.0208 88.2365ZM13.8687 85.2998C13.9839 85.4159 14.4762 86.7549 14.4568 86.8933C14.4503 86.9394 14.2909 86.576 14.1043 86.0795C13.9096 85.5701 13.8091 85.2326 13.8687 85.2998ZM13.061 83.211C13.1786 83.3569 13.7682 84.9858 13.752 85.1246C13.7471 85.1592 13.5645 84.7044 13.3408 84.1204C13.1027 83.499 12.9886 83.1185 13.061 83.211ZM12.6542 81.9428C12.7122 81.9745 12.7653 82.0642 12.7733 82.1476C12.7813 82.2311 12.8416 82.4335 12.9044 82.5952C12.9671 82.7569 12.9863 82.9007 12.9492 82.9072C12.8912 82.9225 12.7737 82.6356 12.5872 82.0215C12.5518 81.899 12.5566 81.8879 12.6477 81.9419L12.6542 81.9428ZM12.3164 80.9077L12.4363 81.2008C12.5023 81.363 12.5569 81.5823 12.5552 81.6878C12.5518 81.852 12.5414 81.8564 12.4931 81.7085C12.4609 81.6099 12.4063 81.3906 12.3742 81.2215L12.3164 80.9077ZM12.2046 80.6039C12.2505 80.722 12.2544 80.7873 12.2174 80.7468C12.1803 80.7063 12.1409 80.6126 12.1353 80.5354C12.1265 80.4577 12.1587 80.4858 12.2046 80.6039ZM12.1366 79.9653C12.1632 80.0337 12.1703 80.1464 12.1501 80.22C12.1307 80.2878 12.0912 80.2881 12.0646 80.2197C12.0381 80.1513 12.0309 80.0386 12.0512 79.9651C12.0706 79.8973 12.1068 79.8965 12.1366 79.9653ZM11.6064 78.6151C11.6339 78.6072 11.6942 78.7156 11.7368 78.8568C11.7827 78.9985 11.8768 79.2645 11.9452 79.4564C12.024 79.6673 12.0392 79.7929 11.9876 79.7857C11.8973 79.7729 11.5242 78.6388 11.6064 78.6151ZM11.267 76.7509C11.3353 77.0133 11.3834 77.3022 11.368 77.3882C11.3526 77.4978 11.3027 77.4084 11.2143 77.0786C11.1452 76.822 11.097 76.533 11.1133 76.4412C11.1303 76.3202 11.1746 76.4028 11.267 76.7509ZM10.2616 72.0478C10.2864 72.1747 10.2799 72.3149 10.2557 72.3468C10.183 72.4423 10.1243 72.2283 10.1448 71.9197C10.1627 71.6283 10.1974 71.6625 10.2624 72.042L10.2616 72.0478ZM10.1527 71.1154C10.1727 71.3005 10.0919 71.4772 10.0469 71.3533C10.0324 71.316 10.0277 71.1625 10.0359 71.0108C10.0522 70.731 10.1199 70.7875 10.1527 71.1154ZM9.94456 69.3696C9.98318 69.4691 10.0225 69.6334 10.0321 69.7288C10.0649 70.0332 9.95284 70.0586 9.89666 69.7568C9.82442 69.3821 9.85607 69.1338 9.94456 69.3696ZM9.47518 65.7413C9.49826 66.0914 9.4876 66.3074 9.4514 66.2141C9.38784 66.0582 9.30646 65.0474 9.35167 64.9832C9.40009 64.9195 9.43378 65.1241 9.47599 65.7355L9.47518 65.7413ZM9.378 64.3521C9.39155 64.5362 9.37452 64.6572 9.34069 64.6172C9.30686 64.5772 9.2957 64.4228 9.31598 64.2787C9.35086 64.0308 9.3565 64.0375 9.378 64.3521ZM9.26909 62.5321C9.29564 62.6005 9.31242 62.7851 9.30181 62.9305C9.28955 63.1345 9.27097 63.1731 9.23558 63.074C9.20903 63.0056 9.19225 62.821 9.20286 62.6756C9.21513 62.4716 9.23048 62.4326 9.26909 62.5321ZM9.02386 58.9C9.06087 58.9875 9.06808 59.0531 9.03905 59.0491C9.01003 59.045 8.98026 58.9761 8.97227 58.8927C8.96186 58.8031 8.98443 58.8062 9.02386 58.9ZM8.75635 57.7631C8.77565 57.8128 8.77235 57.9064 8.75294 57.9742C8.73353 58.042 8.70449 58.0614 8.68518 58.0117C8.66829 57.9682 8.66918 57.8684 8.68859 57.8005C8.70799 57.7327 8.73704 57.7133 8.75635 57.7631ZM8.90409 55.6382C8.90636 55.809 8.88046 55.9229 8.84179 55.894C8.8023 55.8708 8.78713 55.6982 8.80341 55.5124C8.83922 55.1177 8.89802 55.1906 8.90409 55.6382ZM8.8551 54.4674C8.86629 54.5748 8.85331 54.667 8.82752 54.6634C8.80172 54.6598 8.79131 54.5701 8.80672 54.4606C8.82863 54.305 8.8383 54.3063 8.8551 54.4674ZM8.81896 51.4526C8.83837 51.3848 8.87064 51.3658 8.88753 51.4093C8.90684 51.4591 8.90676 51.5531 8.88735 51.6209C8.86794 51.6887 8.83568 51.7077 8.81959 51.6584C8.8027 51.6149 8.80359 51.5151 8.823 51.4473L8.81896 51.4526ZM8.64171 51.3101C8.62942 51.5376 8.6165 51.5593 8.56984 51.4469C8.53765 51.3718 8.53375 51.2126 8.55643 51.0982C8.61148 50.8238 8.66458 50.9606 8.64412 51.3163L8.64171 51.3101ZM9.09996 41.4871C9.09996 41.4871 9.14186 41.5165 9.17163 41.5853C9.19818 41.6537 9.19891 41.742 9.16663 41.7845C9.13838 41.8217 9.10536 41.7759 9.09495 41.6862C9.08536 41.5908 9.08785 41.503 9.09996 41.4871ZM9.83817 35.2364C9.84369 35.3841 9.83144 35.5646 9.81122 35.6382C9.73197 35.921 9.70148 35.7403 9.76469 35.3612C9.82791 34.9822 9.83194 34.9769 9.83898 35.2306L9.83817 35.2364ZM10.482 30.8947C10.511 30.9693 10.5013 31.0385 10.4601 31.0503C10.419 31.0621 10.3698 31.0376 10.3538 30.9883C10.3369 30.9448 10.3466 30.8756 10.3757 30.8327C10.4079 30.7902 10.4531 30.82 10.482 30.8947ZM11.0654 28.5019C10.9716 28.7944 10.8828 28.9113 10.8426 28.7998C10.8225 28.7558 10.8605 28.6495 10.921 28.5698C10.9815 28.4901 11.0155 28.3891 10.9994 28.3398C10.9833 28.2905 10.9898 28.2209 11.0213 28.1842C11.1141 28.062 11.1446 28.2662 11.0686 28.5024L11.0654 28.5019ZM11.7854 25.6288C11.8023 25.6723 11.7796 25.7632 11.7312 25.8269C11.6828 25.8906 11.6449 25.8794 11.6474 25.8151C11.6474 25.7446 11.6701 25.6537 11.7016 25.617C11.7298 25.5798 11.7685 25.5853 11.7886 25.6292L11.7854 25.6288ZM17.5832 8.54492C17.6025 8.59466 17.5952 8.67005 17.5637 8.70677C17.5322 8.74349 17.5032 8.76291 17.4927 8.74381C17.4855 8.72515 17.4928 8.64977 17.5154 8.58241C17.5349 8.5146 17.5671 8.49562 17.5864 8.54537L17.5832 8.54492ZM19.6862 4.37326C19.6862 4.4438 19.6288 4.57093 19.5635 4.66167C19.4666 4.78911 19.4513 4.78107 19.4925 4.62816C19.5572 4.37862 19.6864 4.20869 19.6862 4.37326ZM19.6536 3.92778C19.6341 4.06613 19.6018 4.10862 19.5244 4.09772C19.389 4.07867 19.4141 3.89998 19.565 3.80951C19.6545 3.75745 19.6771 3.78413 19.6568 3.92824L19.6536 3.92778ZM16.5575 9.64092C16.5035 9.67447 16.5092 9.63411 16.5713 9.54293C16.6286 9.46282 16.6682 9.43899 16.6609 9.49087C16.6535 9.54275 16.6083 9.60692 16.5583 9.63515L16.5575 9.64092ZM17.0019 8.51602C17.0227 8.6953 16.8272 9.14981 16.7402 9.13756C16.6144 9.11986 16.6639 8.76825 16.8213 8.56114C16.9464 8.39651 16.9907 8.38512 17.006 8.51071L17.0019 8.51602ZM23.9596 73.2994C23.9031 73.3972 23.845 73.4361 23.8321 73.3873C23.8184 73.3442 23.8193 73.2914 23.8346 73.2759C23.8419 73.2711 23.9496 72.6925 24.0087 72.4598C24.0685 72.2213 24.0741 72.3221 24.0959 72.284C24.0959 72.284 24.0235 72.9851 24.0396 73.0344C24.0525 73.0832 24.0193 73.202 23.9628 73.2998L23.9596 73.2994ZM22.4122 90.6052C22.2949 90.0361 22.3324 89.5829 22.4219 89.5778C22.4985 89.571 22.5546 89.9668 22.5557 90.5196C22.5546 90.878 22.5061 91.0593 22.4122 90.6052ZM22.341 82.3713C22.3183 82.4386 22.2877 82.4461 22.2724 82.391C22.2571 82.3359 22.2709 82.2615 22.3016 82.2305C22.333 82.1938 22.3637 82.1863 22.3701 82.2108C22.3765 82.2352 22.3636 82.3039 22.341 82.3713ZM8.66557 46.9575C8.63651 47.0005 8.60505 47.0137 8.59459 46.9946C8.58735 46.9759 8.59467 46.9005 8.6173 46.8332C8.63671 46.7653 8.66897 46.7464 8.68828 46.7961C8.70759 46.8459 8.69704 46.9208 8.66557 46.9575ZM16.4119 10.2553C16.3246 10.5017 16.306 10.5167 16.2755 10.3831C16.2546 10.2978 16.283 10.1196 16.3371 9.992C16.4769 9.65309 16.5428 9.88574 16.4119 10.2553ZM2.66336 92.9285C2.62461 92.9936 2.57218 93.0156 2.55125 92.9774C2.53032 92.9392 2.55622 92.8253 2.61597 92.7279C2.67168 92.6358 2.7241 92.6138 2.72727 92.6848C2.73043 92.7557 2.70212 92.8634 2.66336 92.9285ZM8.51354 54.1137C8.48448 54.1566 8.44579 54.1512 8.42648 54.1014C8.40959 54.0579 8.41289 53.9643 8.42907 53.896C8.44848 53.8282 8.48799 53.8279 8.51614 53.9083C8.54429 53.9887 8.54179 54.0765 8.51354 54.1137ZM8.4836 53.2982C8.44724 53.393 8.41901 53.4067 8.41907 53.3362C8.41913 53.2656 8.44178 53.1748 8.47326 53.138C8.55397 53.0318 8.55874 53.1148 8.48682 53.2987L8.4836 53.2982ZM16.1428 10.9287C16.0791 11.0079 16.0283 11.0184 16.0283 10.9479C16.0284 10.8773 16.0664 10.771 16.1108 10.7126C16.1551 10.6542 16.2059 10.6437 16.222 10.693C16.2422 10.7369 16.2042 10.8433 16.1428 10.9287ZM15.4538 13.4183C15.3206 13.5935 15.2595 13.3733 15.3839 13.1439C15.4323 13.0566 15.4855 13.0524 15.5177 13.1275C15.5491 13.2083 15.5232 13.3222 15.4546 13.4125L15.4538 13.4183ZM8.73373 46.4498C8.65618 46.627 8.62486 46.4756 8.65181 46.0738L8.67549 45.7186L8.73086 46.0262C8.75974 46.1948 8.762 46.3891 8.73292 46.4556L8.73373 46.4498Z" fill="black"/>
</g>
<defs>
<clipPath id="clip0_1447_807">
<rect width="103.853" height="26.823" fill="white" transform="matrix(0.13935 -0.990243 -0.990243 -0.13935 26.5615 106.92)"/>
</clipPath>
</defs>
</svg>
