<svg width="426" height="24" viewBox="0 0 426 24" fill="none" xmlns="http://www.w3.org/2000/svg">
<path fill-rule="evenodd" clip-rule="evenodd" d="M417.529 31.1598C416.153 30.5225 413.538 31.7352 412.314 30.6713C414.147 30.2144 416.862 30.7481 418.138 29.6655C416.859 29.3443 415.046 29.6684 413.567 29.5892C414.167 28.8102 415.463 28.8133 416.086 28.0604L416.078 27.6102C414 27.0916 411.388 27.2447 408.82 27.2911C410.39 26.1238 412.001 27.2336 414.405 26.8988C414.743 26.7073 414.643 26.2323 414.523 25.8637C411.579 26.4996 409.978 25.9458 407.273 25.9947C407.049 24.9127 405.312 25.6328 404.331 25.4651L404.318 24.7237C403.997 24.597 403.232 25.0347 403.29 24.4509C404.699 24.4254 405.367 24.9166 406.33 24.1046L406.34 24.6871L407.749 24.6617C408.132 24.4429 408.004 23.6771 408.759 23.9018C408.974 24.4807 408.423 24.2257 408.383 24.4913C408.833 25.4897 410.014 24.1705 411.181 24.5997C411.514 24.1434 411.708 23.5572 412.435 23.544C412.408 23.2797 412.558 22.8002 412.175 22.966C412.806 22.6633 413.993 22.9597 413.673 21.6146C414.534 21.4666 415.234 21.1626 415.422 20.2586C415.28 19.9698 414.694 20.2453 414.641 19.8224C413.604 20.318 411.922 20.2954 410.828 20.1827C410.487 20.1624 410.22 20.485 410.061 20.4879C404.741 20.4781 398.195 20.5698 392.138 21.262C389.371 20.3849 385.468 21.9917 382.979 21.4275C382.616 21.434 382.624 21.8842 382.354 22.0215C381.588 21.1877 380.433 22.6654 379.689 21.7783C378.362 22.5439 375.55 21.6941 374.362 22.6161C374.02 22.5693 373.99 22.1726 373.849 21.8838C373.167 21.8961 372.392 21.8041 372.081 22.2071C372.221 22.3899 372.45 22.4653 372.345 22.9439C369.326 21.939 365.3 23.0712 362.526 21.797C364.528 21.8932 365.435 21.7444 367.241 22.2945C367.667 21.9954 367.071 21.7149 367.088 21.3967C364.741 21.0948 362.388 21.72 360.353 21.0681C358.981 21.8875 357.58 19.8468 356.143 20.8528C354.935 20.6627 353.103 19.9012 351.934 20.6375C352.184 21.9043 354.503 20.644 355.132 21.4803C355.626 21.1535 356.353 21.1139 357.149 21.1525C357.415 22.0217 356.683 21.7966 356.531 22.1966C353.792 21.5575 351.29 22.7416 348.524 21.891C348.356 21.4173 348.931 21.7777 348.763 21.304C349.06 21.4045 349.527 22.0848 349.905 21.5747C349.511 21.1845 348.641 20.8294 348.24 21.3134C348.299 20.7826 347.846 20.8967 347.838 20.4201C345.968 21.3545 343.42 19.9967 341.752 20.8214C340.536 20.1812 339.135 20.6568 337.543 20.6061C337.182 20.7715 337.239 21.4062 336.786 21.5203C336.777 21.0172 336.257 21.1591 336.27 20.6291C334.403 20.4774 332.956 20.9273 331.308 20.2685C331.477 19.6032 333.222 19.2539 333.33 20.2319C334.903 19.2235 337.679 20.5772 339.052 19.8372C340.472 20.3943 341.993 20.3138 343.506 19.7567C344.903 20.2877 347.078 19.8776 348.852 19.9515C348.961 19.6847 349.325 19.7046 349.225 19.2031C350.048 19.4531 350.082 18.8168 350.487 18.5976C350.635 19.2041 350.364 19.3415 350.117 19.5049C350.374 19.8446 350.897 19.8616 351.153 20.2278C351.4 20.0644 351.671 19.9271 351.918 19.7637C352.131 18.9652 351.097 19.6461 351.265 18.8749C351.379 18.8729 351.353 18.6879 351.396 18.5812C352.403 18.9338 353.743 18.8566 354.839 19.1017C354.948 20.1063 356.832 19.9663 357.392 19.5059C357.397 19.7706 357.557 19.8207 357.539 20.0859C358.243 20.0732 359.087 20.1904 359.443 19.7602C359.392 19.4433 359.206 19.2347 358.932 19.1867C361.923 18.6294 364.416 20.7033 367.584 19.9309C367.755 19.3186 367.303 19.4592 367.318 19.0352C368.073 18.015 368.91 19.0859 369.977 18.9871C370.079 19.5945 369.926 19.9151 369.609 20.0268C369.568 20.2659 369.728 20.2895 369.754 20.4745C370.057 20.8928 370.686 20.4576 370.887 20.2951C372.249 21.4094 373.362 20.0914 374.83 20.8066C375.102 20.8016 374.864 20.1703 374.95 19.9038C375.645 20.6594 376.179 20.014 376.869 20.4519C377.208 20.3398 377.106 19.7324 377.492 19.699C377.946 19.6378 377.666 20.4905 377.897 20.7247L378.67 20.7107C378.943 20.7058 378.704 20.0744 378.79 19.808C380.148 19.4656 380.127 20.8168 381.107 20.958C383.281 20.495 386.828 20.5103 388.732 20.2375C389.032 20.4705 389.421 20.5959 390.01 20.5058C390.186 20.1848 390.571 20.0719 390.63 19.594L392.153 19.5665C392.747 21.0126 394.177 19.6094 394.948 19.516C395.311 19.483 395.818 19.8182 396.226 19.7843C396.862 19.7463 397.419 19.1006 397.885 19.7543C398.297 19.8793 398.058 19.2744 398.377 19.2952C400.08 19.1585 401.775 18.6246 402.953 19.6628C405.29 19.3822 407.928 19.467 409.939 18.7949C411.175 19.2494 412.348 18.7514 413.608 17.987C413.68 18.1976 413.462 18.7578 413.757 18.7259C414.456 18.3955 415.085 17.9868 415.645 17.4999C415.817 16.9406 415.299 17.2148 415.382 16.763C414.688 17.3583 414.378 16.5958 413.359 16.7996C413.023 17.0705 412.918 17.5757 412.489 17.7159C411.684 17.2271 411.125 16.4426 410.431 15.8195C411.989 15.2351 414.163 17.2883 415.272 15.732C414.905 15.5797 414.494 15.4547 414.128 15.3024C414.117 14.6934 414.71 14.8151 415 14.545C413.829 13.8775 411.523 14.6078 410.664 13.5903C410.694 12.7422 411.699 13.0154 412.426 12.9758C412.465 12.6307 412.193 12.6621 412.276 12.2368C411.792 11.8483 410.29 11.7695 409.984 12.4372C409.613 12.0466 408.997 11.9253 408.203 12.0191C408.262 10.2698 410.121 11.2428 410.988 11.386C411.235 11.2491 411.25 10.8251 411.219 10.3489L412.242 10.3304L412.231 9.74785C409.679 9.39665 406.616 9.74335 404.351 10.1816C404.078 10.1865 404.317 10.8179 404.23 11.0843C405.463 11.3799 406.149 11.6059 407.029 11.1927C406.857 11.752 407.597 11.2089 407.425 11.7682C405.8 12.4068 403.247 12.0027 401.343 12.3284C401.087 12.0152 400.832 11.7284 400.688 11.3072C401.524 11.0008 403.06 11.7147 403.612 10.8041C402.368 9.92604 399.493 10.5872 397.248 10.9191C397.145 11.5037 397.687 11.282 397.517 11.9473C396.979 12.3808 395.744 11.9793 395.763 13.0119C395.485 12.7256 394.94 12.7884 394.73 12.4479C393.398 12.9752 391.82 12.4475 390.162 12.5304C389.026 12.6039 388.477 13.6733 387.138 13.777C387.064 13.4605 387.384 13.5606 387.38 13.3223C386.827 12.9085 386.273 13.7396 385.868 13.9324C385.872 14.1971 386.032 14.2472 386.014 14.5124C387.768 13.4477 391.57 14.9683 392.617 13.8104C393.497 14.6686 395.398 12.9391 396.059 14.3309C393.859 14.5826 391.885 14.7772 389.068 14.9075C389.029 15.2526 388.525 15.0498 388.578 15.4991C385.829 15.5753 383.214 15.5166 380.932 15.0545C380.64 15.2717 380.255 15.3581 380.056 15.6531C378.792 14.9078 376.416 15.5069 375.197 14.7079C375.324 14.2023 376.056 14.4275 375.812 13.5048C375.398 13.2474 374.828 13.1783 374.526 12.7864C375.18 12.5362 376.114 12.6253 376.166 11.7238C376.805 11.8711 377.221 12.2609 377.705 12.5965C378.053 11.7427 378.586 12.3157 378.967 11.991C379.295 12.5413 380.945 13.2532 381.381 12.2388C382.44 12.9613 383.771 11.1361 385.063 12.1722C385.472 12.1649 385.463 11.6618 385.686 11.4193C386.694 11.8514 386.826 11.6106 387.613 12.4175C388.023 12.4366 388.155 12.1694 388.239 11.8235C389.514 11.9064 390.078 11.6843 390.654 12.0712C390.876 11.7759 390.982 11.3766 391.135 11.0295C392.257 12.7309 394.255 11.3705 395.608 11.9817C395.805 11.5544 396.513 11.727 396.617 11.2219C396.768 10.7424 396.206 11.1233 396.357 10.6438C395.787 10.5482 395.518 10.765 395.226 10.9556C394.244 10.7085 392.233 10.1621 391.402 10.7334C388.561 10.7847 383.639 10.1055 379.966 10.6486C379.618 10.2841 379.027 10.2947 378.693 10.6716C376.449 9.78508 372.492 10.9426 370.544 10.0772C370.368 10.4247 369.844 10.3547 369.784 10.8325C368.479 10.3264 367.019 10.0349 365.203 10.1737C365.145 10.7309 365.599 10.6963 365.853 10.9036C365.839 11.4071 365.199 11.2332 365.233 11.8153C365.536 12.2337 366.752 11.6025 366.9 12.2355C367.051 11.809 367.76 12.0346 367.773 11.4781C368.555 11.9937 368.993 11.0852 369.551 11.7373C370.003 11.6232 369.69 10.6224 370.421 10.821C370.614 11.4268 370.157 11.3026 370.187 11.7258C370.238 12.0428 370.824 11.7673 371.076 11.8687C371.248 11.3094 370.73 11.5836 370.813 11.1318C371.041 11.1807 371.061 11.0214 371.058 10.836C371.703 11.3541 372.372 11.8718 373.619 11.6903C373.876 12.0565 373.516 12.2749 373.774 12.7205C374.187 12.8985 373.856 12.2423 374.269 12.4202C374.185 14.064 371.177 12.4231 370.861 13.8062C370.417 13.1255 369.983 14.2723 369.583 13.5379C369.657 13.8544 369.337 13.7542 369.341 13.9925C370.37 14.3183 371.644 14.3482 372.539 14.8353C372.351 15.7393 371.473 14.9605 370.772 15.1586C370.499 15.1635 370.713 15.6894 370.649 15.9025C370.265 16.0419 369.348 15.6081 369.382 16.2167C369.034 15.8522 368.579 15.8604 368.245 16.2373C367.862 16.4031 368.012 15.9236 367.985 15.6593C367.185 15.4353 367.174 16.0977 366.467 15.978L366.454 15.2366L367.59 15.2161C367.421 14.6629 366.985 14.4324 366.549 14.2019C366.874 13.3484 367.643 14.3411 368.208 14.1719C368.13 13.6171 367.539 13.6543 367.55 12.9919C364.994 13.7267 362.49 12.2887 360.047 12.9685C359.88 13.7397 360.445 13.597 360.321 14.2879C359.799 14.2974 359.588 13.9833 359.177 13.8583C359.168 13.3552 359.368 13.1132 359.8 13.1054C358.601 12.1735 357.536 12.3517 356.365 13.0085C356.242 12.4545 355.362 12.8148 355.326 12.1267C353.521 12.8745 351.14 11.9375 349.605 12.5215C349.107 12.6629 349.277 12.0241 348.713 12.2462C348.433 13.0989 349.287 12.5537 349.229 13.1375C348.796 13.0393 348.617 13.228 348.74 13.729C349.584 13.8727 350.506 13.3528 351.152 13.8444C351.584 13.8366 351.459 13.2296 351.914 13.2479C352.327 13.4523 352.384 14.087 353.197 13.8074C353.421 13.618 353.437 13.2204 353.684 13.057C354.026 13.1038 354.055 13.5006 354.197 13.7894C354.684 13.0654 355.521 14.0833 355.98 14.3399C355.507 14.5868 355.794 15.3762 356.249 15.368C355.529 15.8048 354.408 15.4013 353.59 15.4161C353.157 15.3709 353.467 16.1599 352.825 15.8801C352.866 15.6145 352.729 15.5905 352.57 15.5934C352.677 15.2471 353.086 15.2133 353.332 14.9969C353.192 14.7611 352.739 14.9017 352.688 14.5583C352.276 14.4068 352.374 14.8023 352.193 14.8586C350.903 13.9018 348.444 14.9793 346.461 14.6708C346.011 14.9173 346.383 14.1689 346.066 14.2276C345.54 14.0252 345.663 14.5527 345.299 14.5328C345.398 13.7099 344.362 14.2584 344.639 13.2204C345.362 12.9954 345.151 13.9263 345.919 13.6475C346.214 13.5892 345.951 12.9053 346.037 12.6124C343.254 12.1065 341.742 12.69 339.166 12.2863L339.149 11.386C340.191 11.1818 340.722 11.596 341.564 11.6337C341.906 11.7335 341.46 10.9469 341.803 11.0467C342.632 11.6409 344.664 10.8361 345.115 11.8874C345.338 11.645 345.607 11.4547 345.482 10.8478C346.237 11.099 346.116 10.6774 346.75 10.5335C347.118 10.7653 348.358 11.4845 348.406 10.3447C346.307 9.9588 342.937 9.64886 340.767 10.3238C338.759 9.90976 336.072 9.69342 333.759 10.0001C333.434 9.63513 332.183 9.57828 331.711 9.87817C332.088 10.6395 333.823 9.76055 334.378 10.2803C334.529 11.0722 332.933 10.8096 332.858 10.4666C332.587 10.5245 332.409 10.7396 332.369 11.0582C333.42 11.3571 334.36 11.7904 335.322 12.1968C334.928 13.025 333.636 11.9624 333.032 12.5295C333.156 13.0835 332.845 13.4864 333.053 13.7211C334.179 14.3364 335.628 12.774 335.999 14.4095C334.832 14.0068 333.423 15.3036 333.198 14.1687C332.763 14.0177 333.002 14.6226 332.961 14.9146C331.442 15.101 329.124 13.898 329.304 16.3051C328.961 16.2318 328.307 16.5085 328.164 16.1667C328.294 15.7671 328.679 15.6807 329.04 15.5682C328.982 14.8806 328.569 14.6232 328.244 14.2582C327.717 14.0558 327.84 14.5834 327.476 14.5635C327.106 14.1993 326.469 14.1579 326.566 13.2555C327.176 13.0326 327.095 13.6168 327.594 13.5283C328.064 13.149 327.311 12.9772 327.439 12.4981C327.101 12.6632 326.467 12.807 326.3 12.3598C326.105 11.6746 326.885 12.0578 326.923 11.6069C326.949 10.5734 326.442 10.1588 326.749 9.54401C326.064 9.37098 326.236 10.1095 325.737 10.145C325.523 9.64562 325.109 9.38822 324.829 8.96949C325.89 8.55302 327.88 9.20574 328.5 8.32045C326.899 7.76666 325.568 7.10203 323.922 7.82044C323.574 7.48238 321.911 7.27405 321.626 7.86191C321.419 7.70674 321.3 7.444 321.116 7.28842C320.088 8.28701 318.355 6.75557 317.439 7.64619C317.497 8.33382 318.2 8.24165 318.481 8.66038C319.448 8.08668 322.511 9.01137 323.935 8.56185C324.059 9.11585 324.962 8.7552 324.84 9.5785C323.714 10.1816 321.684 9.82092 320.141 9.95475C320.058 10.4065 320.576 10.1323 320.404 10.6916C321.063 10.6797 321.766 10.5611 321.935 11.1143C322.127 11.667 321.367 11.151 321.559 11.7038C321.59 12.1535 322.111 12.0381 322.209 12.4337C321.792 13.2623 321.691 12.6814 320.689 12.6201C319.847 12.5558 318.92 12.8374 318.394 12.6615C318.074 12.5614 317.703 12.1972 316.98 12.3957C316.878 13.0597 317.511 12.8629 317.498 13.4194C318.371 12.6355 319.381 14.4448 320.685 13.6531C320.897 14.0466 321.22 14.3321 321.098 15.129C320.802 15.0813 320.617 14.8993 320.209 14.9861C320.201 14.5624 319.772 14.7026 319.943 14.0903C319.51 14.0452 319.75 14.7295 319.573 14.9976C319.272 14.7117 318.771 14.6677 318.158 14.7318C317.991 15.503 318.556 15.3603 318.432 16.0512C317.915 16.3784 317.498 15.9356 316.773 16.0812C316.867 16.2384 317.072 16.2347 317.031 16.5268L316.395 16.5383C316.773 16.0812 316.288 15.6397 315.74 15.5171C315.467 15.5221 315.706 16.1534 315.62 16.4199C316.167 16.5159 316.537 16.8271 316.661 17.4341C317.164 17.5574 316.97 16.9252 317.542 17.1268C317.686 17.548 317.69 17.7333 317.561 18.1594C316.836 18.2785 316.024 17.3926 315.538 18.196C314.261 17.9542 314.052 16.4482 313.576 15.2649C313.896 15.3915 314.061 15.7064 314.604 15.5377C314.618 15.0606 314.388 14.9059 314.09 14.8053C314.601 14.1074 313.845 13.7767 314.308 13.0267C312.93 12.2305 311.492 11.9121 309.73 12.5267C310.081 13.1031 310.834 13.2219 311.163 13.8252C310.707 13.7804 310.345 13.84 310.029 14.0046C309.883 14.6959 310.47 14.4999 310.301 15.1916C309.547 14.9933 309.261 14.2304 308.862 13.5754C308.296 13.6916 308.019 13.4846 307.721 13.3046C306.995 13.3972 307.807 14.3096 307.103 14.3488C306.646 12.9532 308.387 12.4185 308.743 13.2862C309.153 13.3053 309.284 13.038 309.369 12.6921C309.363 12.3744 308.823 12.649 308.594 12.5472C308.182 11.1508 307.291 12.1734 306.416 11.5536L306.4 10.6533C306.899 10.5913 306.887 11.2272 307.172 10.6393C307.604 10.6315 307.502 11.2426 307.956 11.2079C308.338 10.9626 308.58 10.5609 309.078 10.446C307.53 9.04363 304.246 9.71217 301.941 9.25055C301.742 9.57198 301.914 10.284 301.182 10.0059C301.341 11.2744 303.036 10.6876 303.618 11.4452C303.81 11.998 303.05 11.4819 303.242 12.0347C302.712 11.647 302.007 11.6332 301.328 11.7779C301.331 11.9633 301.31 12.0431 301.197 12.0717C301.472 13.497 303.439 12.8787 304.783 13.0399C304.977 13.6985 304.428 13.4966 304.552 14.077C303.87 14.0629 303.32 13.8609 302.526 13.9547C302.255 14.0126 302.494 14.6969 302.409 14.9898C302.088 14.8632 301.323 15.3008 301.381 14.7171C301.09 14.9872 301.031 15.4915 300.369 15.3181C300.307 15.6635 300.547 16.4008 300.254 16.5121C299.031 15.5012 299.378 13.3494 298.264 12.0981C298.672 12.0113 298.902 12.1396 299.042 12.3754C299.895 10.4794 295.898 11.982 295.087 11.1225C294.486 11.8485 293.925 11.0111 293.064 11.1591C292.939 10.5256 293.417 10.57 293.432 10.1194C293.424 9.69578 293.039 9.78219 293.032 9.38501C291.948 9.77542 289.227 8.89753 288.73 10.3633C289.717 10.8487 291.882 9.88257 292.178 11.2016C291.952 11.2322 291.539 11.0542 291.684 11.5019C290.765 10.9887 288.447 11.0571 287.871 11.8621C287.437 11.7375 287.291 11.2369 286.968 10.9778C285.726 11.4506 285.146 10.7724 283.042 11.3401C283.023 12.8238 285.341 11.484 285.611 12.6181C284.92 13.3722 284.114 12.7776 283.599 13.2372C283.14 12.9806 282.925 12.4282 282.066 12.6821C281.874 13.4008 282.44 13.2316 282.471 13.7078C281.812 13.7197 281.33 13.49 281.316 12.6957C280.748 12.706 280.387 12.8979 280.19 13.2987C279.764 12.3529 278.136 12.8591 277.51 12.1552C277.961 11.9882 279.039 12.5249 278.91 11.6797C279.126 12.285 280.397 12.1561 280.683 11.6476C281.124 12.1429 282.187 11.8588 282.984 11.8974C283.155 11.2851 282.702 11.4257 282.717 11.0017C280.494 11.2537 278.026 10.5302 276.632 11.403C276.508 12.0674 277.562 11.3067 277.282 12.1329C275.728 12.9556 274.573 10.672 272.422 11.1877C272.116 11.8289 272.366 13.0693 272.601 13.5418C271.916 13.3688 270.942 13.5453 271.168 12.2433L272.055 12.2273L272.044 11.6448C271.95 11.4611 270.788 11.2967 270.911 11.8242C270.565 11.5655 270.465 11.0376 270.119 10.8055C269.92 11.1004 269.281 10.9266 269.36 11.5608C268.22 11.3431 267.845 11.9855 266.82 11.8981L266.81 11.3155C266.328 11.1123 266.567 11.7172 266.179 11.6183C266.35 11.059 265.832 11.3332 265.915 10.8814C265.955 10.5629 266.133 10.3477 266.405 10.2899C266.791 10.2829 266.799 10.733 266.807 11.1832L267.944 11.1626C268.181 10.4432 267.505 10.7732 267.541 10.2693C268.038 10.075 267.8 10.7414 268.319 10.5466C268.5 10.4904 268.426 10.1739 268.445 9.96165C267.621 9.65868 266.841 9.27546 266.017 8.9725C265.513 8.74323 265.983 9.60881 265.641 9.56201C265.233 9.59588 265.091 9.33356 264.994 8.99098L263.335 9.02095C262.521 10.4925 260.686 9.62504 259.517 9.08992C259.036 8.88672 259.275 9.49162 258.886 9.39268C257.623 8.70034 255.035 10.1509 253.54 9.1979C253.293 9.36129 253.023 9.49861 252.776 9.662C252.794 10.6947 253.921 10.1181 254.188 9.79542C254.107 10.3796 254.94 9.88778 254.837 10.5253C255.054 11.1836 253.995 10.4611 254.212 11.1193C255.001 12.0321 256.888 10.7532 257.162 12.0991C255.953 11.856 255.218 12.6904 254.503 12.1471C254.187 12.2852 254.01 12.5533 253.741 12.7436C253.835 12.9008 254.039 12.8971 253.999 13.1892C254.677 12.9651 255.605 12.7629 256.294 13.1477C254.58 13.8674 252.999 14.4786 250.853 13.9877C250.75 14.5723 251.069 14.6195 251.256 14.881C251.95 14.2857 252.193 15.1289 253.168 15.0053C253.316 15.6384 253.046 15.8286 252.939 16.2014C251.821 15.9303 251.213 15.0407 249.628 15.3607L249.606 14.1691C248.093 13.4548 246.017 14.3399 244.26 13.9743C244.316 14.5561 243.514 14.1997 243.501 14.7297C242.397 14.008 241.702 14.5503 240.445 14.2022L240.432 13.4608C239.89 13.656 239.859 13.2327 239.54 13.1855C239.325 12.6067 240.085 13.1227 240.032 12.7264C238.926 11.8988 235.744 11.9562 234.545 12.2428C231.463 11.5303 228.651 11.9519 226.395 11.6484C226.233 12.7373 226.983 12.7502 227.823 12.6556C228.011 12.9965 228.109 13.4185 228.341 13.6792C229.013 13.1108 229.184 13.7699 230.114 13.6472C230.282 14.1209 229.707 13.7605 229.875 14.2342C228.824 13.9619 228.234 13.999 227.579 14.2757C227.19 14.0973 227.223 13.4081 226.921 13.0957C226.509 12.9177 226.839 13.5739 226.427 13.396C225.979 12.53 225.976 11.0997 224.372 11.6584L224.38 12.1086C224.524 12.5033 224.911 12.5757 225.277 12.6751C225.269 13.4699 224.756 12.7904 224.399 13.1412C224.408 13.6443 224.928 13.5025 224.915 14.0325C224.136 13.7022 224.071 13.8623 223.511 14.3492C223.484 14.0848 223.634 13.6053 223.251 13.7712C222.586 13.4653 223.151 14.5146 222.625 14.3652C222.247 13.6039 221.425 13.3804 220.581 13.2102C221.298 12.6675 219.983 12.8502 220.062 12.1866C220.356 12.1018 220.649 11.9641 221.082 12.0092C221.179 11.0804 220.297 11.3347 220.55 10.2442C219.406 9.84106 217.472 9.77005 216.093 10.1658C214.018 9.85893 211.53 9.29468 209.863 10.1194C210.622 10.609 211.737 10.6948 212.808 10.8079C213.08 10.75 212.912 10.2498 213.184 10.2183C215.161 10.2091 216.449 11.007 218.538 10.8633C218.038 12.1437 215.973 11.095 215.106 10.9253C214.951 11.1664 214.612 11.252 214.736 11.8325L213.85 11.8485C214.166 12.9818 215.457 11.4752 215.636 12.5579C215.578 13.1152 214.661 12.7344 214.51 13.161C213.747 12.4596 212.228 12.6989 211.198 12.3202C210.546 12.6764 211.491 13.4009 211.222 13.6442C211.072 14.1501 210.649 13.3896 209.95 13.6671C210.193 12.047 208.769 12.4701 207.9 12.2209C207.778 11.7463 208.004 11.6628 208.137 11.475C207.9 10.923 207.195 10.9093 207.224 10.0082C205.539 9.87968 204.568 10.2416 202.909 10.2451C203.048 11.6464 205.389 10.3592 205.862 11.3836C206.353 10.898 207.17 10.8038 207.524 11.5125C207.716 12.0653 207.188 11.81 207.287 12.2584C207.661 12.8079 208.19 13.1692 208.965 13.2611C208.883 13.7924 207.659 13.9734 207.445 13.4475C207.243 13.6101 207.135 13.8769 206.956 14.0391C206.368 14.2351 206.515 13.5438 205.928 13.7663L205.904 12.4424L207.04 12.4218C206.571 11.6092 205.012 12.1671 204.231 11.7309C203.889 11.6841 204.36 12.5497 203.856 12.3204C204.344 12.9208 204.779 13.1249 205.523 12.7406C205.834 13.6355 204.823 13.0181 205.041 13.7823C204.758 13.1782 203.672 13.5157 203.638 14.099C202.819 14.0873 202.356 13.6189 201.604 13.553C201.496 13.8199 201.131 13.8 201.231 14.3014C202.01 14.6052 202.742 14.8833 203.53 14.4188C203.588 15.1064 202.602 14.6475 202.52 15.1787C201.036 14.8082 199.662 15.4952 197.672 14.816L197.655 13.9157C197.224 13.9235 197.348 14.5305 196.893 14.5122C196.887 14.168 196.658 14.0927 196.741 13.6144C196.896 13.3997 197.283 13.4457 197.624 13.4395C197.406 12.7018 196.676 12.5826 196.458 11.8184C195.731 13.1029 194.113 11.6224 193.037 12.4629C193.177 12.6458 193.405 12.7211 193.3 13.1998C192.69 13.4227 192.771 12.8385 192.272 12.927C192.138 13.0619 192.028 13.2228 191.894 13.3841C192.335 13.8794 193.866 13.0307 193.927 13.9301C192.652 13.7942 191.682 14.2356 190.996 13.9831C190.859 15.2569 192.481 14.4065 192.678 15.277C190.722 15.2064 189.929 15.3267 188.102 14.9094C188.273 14.2971 187.821 14.4377 187.836 14.0137C188.215 13.583 188.5 13.0216 189.482 13.2423C188.421 12.4139 186.381 12.7686 184.631 12.7472C184.359 12.8051 184.598 13.4894 184.513 13.7824C185.542 14.1346 187.18 12.9131 187.182 14.3168C186.019 14.0995 184.68 14.2296 183.251 14.3879C182.939 16.0092 180.065 15.5049 178.81 15.2097C178.769 14.204 177.793 14.3011 177.641 13.4562L176.505 13.4767C176.5 13.212 176.34 13.1619 176.358 12.8967C175.946 12.7187 176.276 13.3749 175.863 13.197C174.643 12.3185 173.05 13.5127 172.056 13.8485C171.537 14.0697 171.641 13.5381 171.278 13.5712C171.144 13.6795 171.148 13.9179 170.897 13.8694C170.996 14.3444 171.978 14.5386 172.172 14.0053C172.382 14.2664 172.88 14.1514 172.956 14.5739C171.804 15.0185 170.258 15.0199 168.898 15.2299C169.313 15.5402 169.845 16.0604 169.311 16.7057C168.232 16.0895 166.418 16.3872 164.849 16.336C164.861 15.7531 164.229 15.9764 164.196 15.4473C163.57 16.0148 162.827 16.4255 161.667 16.3935L161.651 15.4933L163.174 15.4657C163.256 15.014 162.939 15.0462 163.021 14.5679C162.609 14.39 162.397 14.023 161.74 14.1408C161.541 14.4358 161.574 15.0179 161.12 15.0526C161.708 16.1279 159.99 16.6622 158.738 16.5789C158.817 17.1602 159.295 17.231 159.885 17.1409C160.052 17.6146 159.478 17.2542 159.645 17.7279C158.751 17.2938 157.145 17.7466 156.45 17.044C156.323 16.3047 156.823 16.2956 157.068 15.9998C156.944 15.4458 156.465 15.3221 156.652 14.3652C156.344 13.7085 154.747 13.3666 155.001 14.8453C154.794 14.6901 154.675 14.4273 154.491 14.2718C154.1 15.2853 152.34 14.7609 151.206 14.9138L151.216 15.4964C151.359 15.8381 152.013 15.5349 152.355 15.6347C152.435 16.2425 151.377 15.5994 151.735 16.5465C151.258 16.5551 151.404 15.8373 150.839 15.98L150.82 14.9473C150.006 15.2004 148.96 15.1663 148.285 15.5758C147.473 14.6899 145.193 15.5787 144.582 14.4508C143.822 15.1797 144.404 15.9373 143.986 16.6865C143.251 16.276 143.803 15.3919 143.812 14.6236C142.331 14.412 140.036 14.4799 138.718 14.5567C138.685 15.2195 139.429 14.8882 139.507 15.443C139.233 15.3685 138.625 15.6973 138.729 15.1657C138.737 15.5894 138.026 15.2579 138.104 15.7597C137.756 15.3952 137.302 15.4034 136.967 15.7803C137.291 16.0923 137.304 16.8072 137.494 17.254C136.808 17.028 136.032 16.8831 135.435 16.5496C136.233 15.4227 134.728 15.1585 134.62 14.2069C134.941 14.3336 135.106 14.6485 135.648 14.4797C135.488 13.1583 134.771 12.509 133.454 12.5858C133.259 13.0926 133.063 13.5994 132.705 13.9237C131.211 13.0236 129.689 14.3225 128.398 14.5842C128.515 14.794 128.833 14.7618 128.906 15.0253C129.387 15.2285 129.149 14.6236 129.537 14.7226C129.543 15.0668 129.772 15.1421 129.69 15.6204C131.235 15.566 131.534 17.0174 132.767 17.3394C134.654 17.3583 136.253 17.7797 138.118 17.8255C139.398 18.1997 141.214 19.2793 142.447 18.33C142.64 17.6908 141.743 18.3692 141.936 17.7565L142.186 17.752L142.181 17.4607C142.564 17.2949 142.414 17.7744 142.442 18.0387C143.486 17.9934 144.264 18.2707 145.376 18.1446C144.798 17.6253 144.688 16.5678 144.444 15.6452L146.74 15.6037L146.758 16.6364C147.399 16.8897 147.757 16.5389 148.531 16.6044C148.628 16.9469 148.325 17.7735 148.8 17.6325C148.878 18.2138 148.098 17.8306 148.316 18.5418C151.632 19.6209 156.338 18.3969 159.405 19.5334C160.347 18.8277 161.972 19.4341 162.842 19.7627C164.352 19.0202 165.709 19.9228 167.291 19.3909C167.412 18.5147 166.399 19.0627 166.386 18.3743L167.159 18.3603C167.007 17.489 166.076 17.5853 165.492 17.9402C165.212 18.8193 166.401 17.9502 166.278 18.6676C165.491 19.1851 165.246 18.2095 164.363 18.4108C164.257 17.5387 164.804 17.6347 164.34 17.0869C164.611 17.029 164.789 16.8139 164.829 16.4953C166.037 16.6854 166.712 17.5473 168.277 17.3336C168.404 18.0465 167.672 17.8213 167.799 18.5342C167.768 19.3823 168.873 18.8591 169.087 19.4115C169.936 18.575 171.689 19.9472 173.014 19.0492C173.529 19.861 174.819 18.3279 175.428 19.2969C177.254 18.4428 179.462 19.8597 181.65 18.8931C182.618 19.6173 184.694 18.7587 185.337 19.1179C185.608 19.06 185.786 18.8449 185.826 18.5263C188.082 18.8299 190.502 18.124 192.7 18.9849C192.755 18.2687 194.18 19.1171 194.212 18.3748C194.931 19.13 195.664 18.1897 196.621 18.3313C196.94 18.352 196.089 17.8112 196.608 17.5899C197.037 17.4232 196.82 18.0364 196.871 18.3268C198.07 17.9873 199.018 18.8972 199.666 18.2763C200.091 19.1162 202.184 17.9659 202.609 18.8059C202.938 18.1642 204.451 18.852 204.757 18.1843C205.683 19.0947 206.756 18.0688 207.699 18.7139C207.785 18.4475 208.081 18.4686 208.191 18.2547C207.606 17.3118 205.618 18.0363 204.988 17.1207C206.188 16.8341 208.821 16.6011 209.08 18.3711C212.037 18.4501 212.968 18.4333 215.312 18.5499C215.508 18.0431 216.028 17.9012 216.316 17.4987C217.079 18.2001 218.821 17.7184 219.761 18.1781C219.839 17.4351 219.071 17.7138 219.237 16.8632C220.144 16.7144 220.361 17.4256 221.157 17.4113C221.302 17.8854 220.959 17.7857 220.917 17.9983C221.291 18.5213 222.658 18.7085 222.948 18.4119C224.408 18.7034 226.222 18.4058 228.044 18.6112C228.887 18.7019 229.646 19.1915 230.466 19.3091C232.244 19.5419 234.224 19.665 235.279 18.9308C236.214 19.0728 237.682 18.5695 238.216 19.1691C238.629 19.3471 238.298 18.6908 238.711 18.8688C239.926 19.4296 241.986 18.9421 243.045 19.6911C243.419 19.0221 245.092 19.76 245.444 19.065C245.743 19.2715 246.131 19.344 246.34 19.6315C246.612 19.5736 246.79 19.3585 246.83 19.04C247.555 18.9209 248.606 19.1933 249.122 18.8396C248.474 18.1627 247.513 17.8622 247.554 16.3517C247.713 16.3488 247.673 16.6144 247.699 16.7993C248.137 17.1358 249.086 16.8272 249.724 16.9217C249.674 16.6577 249.81 16.6288 249.969 16.6259C249.754 16.0735 249.761 16.4442 249.956 15.8845C250.624 16.4022 251.544 15.7498 251.633 16.8872C251.287 16.6021 250.696 16.6127 250.35 16.3276C250.121 17.4707 251.728 17.1238 252.52 16.8712C252.804 17.5282 252.454 18.3027 252.691 18.8016C253.04 19.2456 254.301 18.5607 254.472 19.2198C257.091 18.2454 259.743 19.0451 261.824 18.5042C262.298 18.2838 262.082 18.8969 262.466 18.784C263.809 17.5943 267.294 19.253 268.288 17.6458C268.9 18.8266 270.475 17.9241 271.488 18.621C271.873 18.5346 272.002 18.1084 272.248 17.8656C275.384 19.0803 279.636 17.891 283.442 18.405C285.105 18.5604 287.692 18.3282 289.68 18.875C290.041 18.7096 289.983 18.0485 290.297 17.8309C290.732 17.9555 290.899 18.4292 291.089 18.8496L291.475 18.8426C291.748 18.8377 291.534 18.3118 291.598 18.0987C291.566 17.5961 290.644 18.116 290.701 17.5322C291.751 17.7781 292.064 17.4811 292.729 17.787C292.322 17.9003 292.285 18.3777 292.498 18.8241C292.504 19.1419 293.044 18.8672 293.273 18.969L293.29 19.8693L293.926 19.8578C293.917 19.3547 293.397 19.4966 293.41 18.9666C294.197 18.5021 296.145 19.341 296.328 18.1722C296.592 18.9356 297.961 19.2287 298.101 18.1402C299.698 18.4822 301.14 18.9859 302.693 19.3816C302.985 19.1909 303.253 18.9477 303.824 19.0698C303.996 19.7819 303.402 19.6601 303.459 20.2683C303.688 20.3966 303.806 20.6329 304.103 20.707C304.672 20.6967 304.543 19.8514 305.226 19.945L305.21 19.0448C306.252 18.8405 306.693 19.3623 307.135 19.9105C307.334 19.5891 306.832 19.4922 307.255 19.0078C309.527 20.1587 312.507 19.0454 315.402 19.4434C315.682 18.5907 314.828 19.1359 314.886 18.5521C316.995 18.2756 317.882 20.8289 319.856 19.3629C320.687 20.0365 322.607 19.3662 323.438 20.0398C323.73 19.8491 323.812 19.3974 324.197 19.2845C324.573 19.9928 325.439 20.1096 325.638 21.0331C325.273 20.9602 324.575 21.3172 324.744 20.5989C323.277 21.2082 321.664 19.9924 320.426 20.677C317.81 19.3734 314.717 21.7866 312.407 19.7888C311.048 20.0253 309.952 19.7802 308.478 20.0187C308.445 20.708 308.768 20.967 309.381 20.903C308.739 21.8416 306.448 20.903 305.321 21.4266C302.614 20.0717 299.422 22.0629 297.164 20.3821C297.059 19.6423 297.896 20.6602 298.045 20.0748C297.464 19.3966 296.017 19.8201 295.37 19.2225C295.373 19.4079 295.352 19.4877 295.238 19.5163C294.788 19.7628 295.538 19.7228 295.385 20.0963C293.838 20.0183 292.182 20.2337 290.812 19.8876C290.652 19.8375 290.575 19.3621 290.415 19.312C289.774 19.0588 288.939 19.3917 288.393 19.3486C287.208 19.2375 286.438 19.3839 285.347 19.4036C284.802 19.4135 284.128 18.6045 283.688 19.4336C282.353 19.7491 281.421 18.4945 280.643 19.4886C280.651 19.9122 281.08 19.7721 280.909 20.3843C280.202 20.2647 279.802 20.7487 279.25 20.4143C279.285 19.831 279.784 19.7425 280.376 19.8113C280.456 19.2006 279.958 19.3156 279.726 19.0814C276.592 19.2704 272.359 19.0025 269.048 19.4332C269.243 20.1713 270.117 19.4669 270.457 19.4077L270.473 20.308L271.996 20.2805C272.218 20.0116 272.324 19.5859 272.616 19.3687C274.647 19.8353 277.169 19.7368 279.111 20.2844C275.302 20.8035 270.501 20.5989 266.41 20.6728C266.581 20.0605 266.129 20.2011 266.144 19.777C262.656 19.2308 257.982 19.7126 253.298 19.7177C253.148 20.1972 253.709 19.8162 253.559 20.2957C253.219 20.3813 252.556 20.1285 252.426 20.4751C252.256 21.1404 252.842 20.8649 253.206 20.9113C253.484 21.1977 252.276 21.0341 251.937 21.0932C252.364 20.8471 252.041 20.588 251.787 20.3542C251.469 20.36 251.475 20.7042 251.295 20.8134C251.344 21.0244 251.616 20.9401 251.798 20.9632C251.382 21.8713 250.385 20.7769 249.255 21.1681C249.296 20.929 249.662 21.0283 249.495 20.5811C249.401 20.4238 249.196 20.4275 249.237 20.1354C248.043 20.7397 247.071 19.8302 246.06 20.4842C245.113 19.6537 243.063 20.6973 242.373 20.2594C242.239 20.3678 242.243 20.6061 241.992 20.5577C241.842 21.0372 242.403 20.6562 242.253 21.1357C241.727 20.9598 241.067 20.9452 240.72 20.5807C239.251 21.1104 237.183 21.1213 236.396 20.3674C235.021 20.975 233.047 19.9512 231.187 20.1702C231.194 20.5938 231.624 20.4536 231.453 21.0659C227.985 20.3869 223.607 20.9163 220.119 20.3701C219.779 20.4292 219.764 20.8533 219.238 20.6774C215.583 19.6839 210.383 21.2877 207.265 19.8607L205.606 19.8907C204.342 19.1189 200.896 19.6314 199.232 19.4231C199.815 20.1807 201.82 19.2174 201.913 20.5666C200.953 20.2926 197.535 21.096 196.181 20.3788C195.93 20.3303 195.795 20.4122 195.8 20.677C195.504 20.6559 195.719 20.0163 195.786 19.9356C195.755 19.4859 195.146 19.7088 194.758 19.6628C194.836 20.1647 195.336 20.1822 195.413 20.684C195.114 20.504 194.837 20.2706 194.272 20.4133C194.198 20.0968 194.518 20.1969 194.514 19.9586C193.492 18.7587 191.157 20.4166 189.662 19.4635C188.832 20.0613 187.004 19.5645 186.105 20.1105C186.03 20.986 187.339 20.4591 187.517 20.244C188.616 20.6744 191.139 20.6818 192.221 20.159C192.028 20.7981 192.925 20.1198 192.732 20.7325C190.282 21.0681 187.702 20.4525 185.626 21.3111C180.966 21.3158 171.692 21.4039 166.314 21.9514C166.339 23.3282 167.393 22.5411 167.984 22.5039C170.46 22.3797 174.012 22.6864 176.259 22.5133L176.275 23.4136L178.298 23.3771C178.352 22.608 177.917 22.4039 177.259 22.4953C177.16 22.0468 178.032 22.4813 178.668 22.4698C179.304 22.4583 180.981 22.1632 179.691 22.4513C179.375 22.5895 179.222 22.9101 178.673 22.7611L178.684 23.3436C180.978 23.2492 184.55 24.6679 186.678 22.9078L186.692 23.6492C187.24 23.8247 187.256 23.4007 187.573 23.342C187.578 23.6067 187.673 23.8434 187.833 23.92C187.968 23.8116 187.963 23.5733 188.214 23.6217C188.407 22.9825 187.555 23.6336 187.57 23.1831C188.418 22.3202 189.749 24.2562 190.615 23.1281C191.089 22.9076 190.65 23.7896 191.123 23.5692C191.558 23.7202 191.32 23.1153 191.36 22.8233L193.133 22.7912C193.206 23.1077 192.956 23.0858 192.751 23.0895C193.372 23.4756 193.566 22.8893 194.269 22.7707C194.437 23.2444 193.862 22.884 194.029 23.3577C194.172 23.6995 194.826 23.3963 195.169 23.4961C194.612 22.8705 195.147 22.2781 195.386 21.7175C195.845 21.9211 196.058 22.4205 196.428 22.7317C198.472 22.6153 200.062 22.5336 202.4 22.3324C202.406 22.7031 202.702 22.6978 202.796 22.908C203.592 22.8936 203.783 22.175 204.695 22.291C205.129 22.4156 205.074 23.1582 205.842 22.853C205.806 23.3834 205.005 23.08 204.969 23.6104C204.438 23.1962 202.55 23.1243 202.037 23.6634C201.673 23.6435 199.257 23.3163 199.002 24.3009C198.655 23.9364 198.534 23.5412 198.111 24.0257C198.259 23.4138 197.894 23.3674 197.464 23.4546C197.452 24.0376 198.084 23.8142 198.116 24.3434C197.051 24.5216 195.164 24.5027 194.18 24.1232C193.724 24.0784 193.687 24.5559 193.301 24.5893C188.643 24.7 183.043 24.2979 178.057 25.1561C177.781 24.9492 177.23 24.6413 177.035 25.1745C176.628 25.3408 176.712 24.942 176.529 24.8923C176.284 25.1616 175.471 25.4412 175.257 24.9153C172.592 25.8905 167.357 25.5348 164.472 25.6929C163.972 25.7019 163.443 25.3671 162.944 25.4291C161.47 25.6147 159.908 25.9607 158.245 25.8054C154.761 25.471 151.132 25.9339 147.809 25.7025C147.397 25.5775 147.334 25.8436 147.178 26.0053C144.44 25.472 140.206 25.1777 137.642 25.4359C136.84 25.1061 135.041 24.9002 134.463 25.6523C132.555 24.4683 130.408 26.4407 128.609 25.0164C127.145 25.7845 124.054 24.5689 122.768 25.1219C121.809 24.8479 119.953 24.0338 119.337 25.1839C118 24.1486 115.496 25.2533 113.727 24.2522C113.364 24.2588 113.44 24.7077 113.099 24.7139C111.858 23.9682 109.866 24.428 108.392 24.64C108.564 24.0807 107.823 24.6238 107.995 24.0644C104.964 23.6689 101.376 23.8662 98.7148 23.7818C97.7997 24.7254 95.2377 23.8446 94.1602 24.6058C92.5337 23.92 89.3097 25.4085 87.428 24.436C86.2089 24.9083 84.4874 25.2573 83.1205 25.0966L83.11 24.514C81.0874 24.5506 79.4647 24.0766 77.2641 24.3283C77.1136 24.8078 77.6751 24.4268 77.5246 24.9063C76.9806 24.9956 76.7041 24.7887 76.6277 24.3398C75.624 24.146 74.1975 24.4631 73.4379 23.9471C71.2435 24.543 68.8099 24.481 66.338 24.817C65.0455 24.9993 63.4774 25.0276 62.1337 24.893C56.4633 24.3597 50.4361 24.2037 44.7014 23.8836C44.1981 23.7072 44.4601 24.3647 43.934 24.1888C43.4051 23.854 42.0159 23.7202 41.525 24.2323C36.8721 23.3893 31.4994 24.228 26.6434 23.4681C25.321 23.2536 23.7756 23.2816 22.8149 22.9546C21.5563 22.5006 19.9296 23.0597 18.744 22.8692C18.1058 22.7748 17.6871 22.2526 17.0687 21.9989C16.2444 21.6695 14.9518 21.8517 14.6358 20.7185C14.0923 20.8343 13.7708 20.6547 13.605 20.2868L12.0823 20.3143C10.7606 18.8814 10.6403 15.9965 7.56103 16.6878C7.56964 17.1644 7.77896 17.4255 7.72131 18.0093C7.12612 17.7816 6.6417 17.3931 6.55821 16.547C6.04579 15.8676 4.89058 16.1004 4.25473 16.1383C3.84948 16.3576 3.8856 17.0985 3.64231 17.4738C2.8158 15.767 1.54337 14.5451 0.38314 13.2417C0.445822 11.6778 1.15775 10.8174 1.33646 9.38383C2.84309 9.72743 2.79453 8.29799 4.25475 8.58946C4.45642 8.42689 4.56526 8.16006 4.7442 7.9979C6.52546 8.44249 8.66962 7.58265 10.7265 8.18118C10.7882 6.56434 9.22391 6.8045 8.29883 7.19204C8.09884 6.18913 8.87345 6.28109 8.65026 5.25212C10.6406 4.68641 10.7746 2.03527 13.0429 1.7559C13.3137 1.64506 13.5376 1.4556 13.5295 1.00547C14.6005 1.14504 14.9289 0.45044 16.0696 0.668219C17.6688 -0.155291 20.4897 -0.0473302 21.6707 1.14975C27.381 2.63582 34.4498 2.56109 40.8943 3.15982C41.4426 3.30884 41.5959 2.98822 41.9117 2.85008C42.3128 3.66394 44.2941 2.59514 44.7175 3.38211C48.1174 2.81743 53.6822 3.80288 57.4162 2.86134C58.0399 3.4063 60.2192 3.23449 60.8479 2.79934C61.3792 3.26651 62.0751 2.77717 62.3706 2.77183C70.6491 2.9666 82.2646 2.88919 90.9736 2.99673C91.9919 2.73995 94.5079 2.32367 96.0642 2.90476C97.9826 2.12846 100.429 2.87889 101.905 2.79925C102.535 2.41705 104.897 2.29491 106.218 2.42997C111.569 2.9425 117.887 2.82836 122.764 3.45542C124.366 2.81726 127.729 4.0014 129.132 3.63172C131.328 4.36019 134.613 3.77108 136.787 4.52644C137.823 3.97798 139.056 4.27355 140.218 4.46444C144.892 5.20111 150.476 4.72941 155.236 5.22613C155.718 5.42933 155.479 4.82443 155.868 4.92337C157.894 5.12513 160.861 5.73372 162.736 5.09064C167.63 5.42602 173.437 4.73839 178.372 4.80816C178.667 4.80283 178.549 4.56657 178.753 4.50992C181.624 3.63694 187.582 4.9861 190.818 4.13303C191.157 4.04744 191.738 3.48071 192.227 4.10758C199.225 3.90169 209.457 2.73681 215.998 3.67812C216.34 3.72492 216.951 3.58144 217.516 3.35935C220.277 3.94515 223.818 3.61632 227.046 3.63745C226.874 4.19679 227.615 3.65367 227.443 4.213C228.952 3.41761 230.585 4.50057 231.756 3.84373C245.234 4.95108 259.027 3.35104 273.436 3.09074C281.344 2.94786 287.776 2.83167 294.542 3.61C294.861 3.65721 295.007 2.93941 295.315 3.59604C295.726 3.74752 295.628 3.35198 295.809 3.29574C296.453 3.7079 296.401 3.31155 297.218 3.27029C297.937 4.05192 300.308 3.13501 301.792 3.47903C302.02 3.52788 302.23 3.86841 302.436 3.91767C304.51 4.22453 306.687 3.89385 308.805 4.09397C315.477 4.71508 322.448 4.24481 329.027 4.76164C329.508 4.96485 329.27 4.35994 329.658 4.45888C331.371 4.9047 336.066 4.29014 339.077 4.87143C339.81 3.93113 341.249 5.52087 342.004 4.5272C342.302 4.70722 342.695 5.04446 342.89 4.51119C352.473 5.18565 363.28 4.38121 372.395 5.62035C372.899 5.79667 372.637 5.13922 373.163 5.31513C383.776 6.39477 395.107 4.38894 406.843 4.70666C412.738 3.83203 419.725 4.26203 423.902 6.46447C422.791 6.5905 422.461 5.96076 421.607 6.50594C421.635 6.77031 421.484 7.2498 421.868 7.08395C421.349 7.3317 420.415 7.21614 419.462 7.28635C419.326 7.31529 419.376 7.57925 419.217 7.58213C419.178 7.92717 419.227 8.13818 419.367 8.32106C419.649 8.84571 420.62 8.51031 421.281 8.57784C420.824 9.69857 418.975 9.28169 418.123 9.95925L418.136 10.7007C418.395 11.1728 419.204 10.6284 419.667 11.1233C419.754 12.1282 418.657 11.8302 417.908 11.8967C417.924 12.797 418.296 13.2406 419.068 13.2001C418.735 13.6035 418.702 14.3457 417.951 14.2533C418.07 14.569 418.456 14.562 418.464 14.9857C419.126 15.1591 419.278 14.7326 419.731 14.6714C419.398 15.0748 419.311 16.5861 420.016 16.5998C419.632 16.7392 419.806 17.5307 419.793 18.0872L421.566 18.0551C421.318 19.4634 422.228 19.4735 423.249 19.3491C423.256 19.7728 422.87 19.7797 422.762 20.0995C423.176 20.3834 423.48 20.8282 423.917 21.1117C423.586 21.6474 423.611 23.0508 423.712 23.6317C424.352 23.8055 424.482 23.4323 424.588 23.0331C425.19 23.605 424.351 24.971 423.601 24.9845L423.611 25.5671C424.051 26.0094 424.77 25.5196 425.131 25.3807C425.09 25.6463 425.227 25.6703 425.386 25.6674C425.375 26.3298 424.97 26.549 424.774 27.0029C424.545 26.901 424.013 26.4074 423.748 26.8625C423.626 27.6593 424.595 27.165 424.784 27.5854C423.612 29.4077 422.116 30.8915 420.549 32.2442C420.331 31.5065 419.69 31.2532 419.116 30.9457C418.623 31.3519 417.597 31.1851 417.36 31.878C417.261 31.4295 417.788 31.6849 417.596 31.1321L417.529 31.1598ZM166.151 15.412C165.597 14.9717 164.643 15.0154 163.845 14.8709C163.87 16.2743 165.306 15.2153 166.151 15.412ZM280.292 6.38372C280.106 6.1487 279.061 6.16758 278.883 6.40918C279.069 6.61772 280.191 7.04774 280.292 6.38372ZM290.217 7.10498C290.606 7.20392 290.367 6.59902 290.848 6.80222C293.794 7.54362 297.512 6.94671 301.402 7.06185C301.409 7.48551 302.108 7.12856 302.048 7.63289C304.175 7.03824 306.825 7.7585 308.917 7.80016C309.372 7.79195 309.844 7.49206 310.321 7.48344C310.98 7.47153 311.694 7.98838 312.354 8.02943C313.902 8.16038 315.424 8.10639 316.917 7.65564C315.333 6.83665 312.548 7.46968 310.81 6.8654C307.701 7.18643 302.562 5.87544 298.853 6.92249C298.592 6.31799 297.419 6.84244 297.07 6.37198C295.024 6.40893 291.685 6.52224 290.065 6.20717C287.076 5.62547 283.774 6.58569 280.542 6.3792C283.263 7.23062 287.296 6.46909 290.217 7.10498ZM189.209 10.7045C189.327 10.9407 189.556 11.069 189.987 10.9818L189.973 10.2404C188.562 10.1599 187.522 10.4701 186.158 10.4682C185.981 10.7363 185.944 11.2137 185.79 11.5079C185.516 11.4333 185.309 11.2782 185.391 10.7734L184.504 10.7894C184.464 11.0815 184.47 11.4258 184.128 11.379C183.828 11.093 183.327 11.0491 182.714 11.1131L182.728 11.8545C184.448 11.4791 186.17 12.4016 187.295 11.772C187.532 12.2975 188.081 12.4465 188.584 12.6493C188.608 11.4305 187.63 11.3952 187.038 11.3529C187.167 10.9268 187.712 10.9434 188.05 10.7519C188.792 11.5596 188.884 11.6109 189.186 10.7313L189.209 10.7045ZM195.196 11.179C195.545 11.623 196.126 11.0827 196.605 11.1536C196.506 10.7051 196.732 10.6215 196.725 10.2508C195.966 9.73479 195.738 10.9573 195.219 11.1786L195.196 11.179ZM200.77 10.1777C200.647 10.8686 202.47 11.1535 202.432 10.3066C201.882 10.0252 201.383 10.0872 200.77 10.1777ZM207.781 10.6338C208.323 10.4651 208.488 10.78 208.809 10.9066C209.006 10.4792 209.69 10.6258 209.679 9.99031C209.174 9.76104 208.336 9.90862 207.653 9.86798C207.547 10.2937 207.842 10.2354 207.803 10.6069L207.781 10.6338ZM377.332 8.31233C374.797 7.69594 370.856 8.48231 368.296 7.73393C367.484 8.06645 366.1 8.22389 364.864 7.79593C363.429 8.88135 360.311 7.4279 358.779 8.19722C355.592 7.93696 352.105 7.49669 349.115 8.08045C347.939 7.14816 346.347 8.36885 344.9 7.57388C342.959 8.35059 338.955 6.93964 337.156 8.00515C337.034 7.55707 335.875 7.57801 335.747 8.03061C336.069 8.23669 336.035 8.89947 336.402 9.05178C337.44 8.63571 340.138 9.46106 341.487 8.66854C342.641 9.62772 344.641 8.34669 346.202 9.16608C348.571 8.14327 352.903 8.83314 355.861 8.99159C357.631 8.80069 361.245 8.76189 363.366 9.14737C364.673 8.51455 366.166 9.38813 367.179 8.78713C367.231 9.18348 367.573 9.2038 367.825 9.35816C369.176 8.6186 370.63 9.81075 371.888 8.9934C373.494 9.7855 375.658 8.79285 377.106 9.64078C377.209 9.08268 377.939 9.22841 378.507 9.16519C378.361 8.63808 377.766 8.41045 377.354 8.28545L377.332 8.31233ZM225.697 10.7604C226.428 10.9326 227.781 10.3519 228.111 11.0082C228.356 10.7124 228.902 10.729 229.24 10.5375C229.298 10.0067 228.846 10.1208 228.837 9.6442C228.458 10.0748 227.186 10.0978 226.814 9.68074C226.689 10.2922 225.473 9.70496 225.697 10.7339L225.697 10.7604ZM244.615 9.677C244.493 10.4738 245.083 10.4367 244.894 11.3142C245.362 10.7495 245.688 11.2204 246.303 11.2887C246.388 10.9428 246.055 10.1278 246.535 10.2515C246.833 10.4051 246.597 11.1775 246.695 11.573C248.207 12.2079 249.327 11.2871 249.716 10.194C249.881 10.5089 249.912 10.9586 250.121 11.2197C250.599 11.2111 250.612 10.7076 251.252 10.9079C251.245 10.4843 250.858 10.4913 250.739 10.1756C251.011 10.1177 251.189 9.90257 251.228 9.584C250.684 9.67329 249.861 9.39681 249.711 9.90278C247.995 9.29808 246.522 9.56308 244.615 9.70348L244.615 9.677ZM271.829 9.76808C272.012 9.84423 272.484 9.57082 272.468 9.91545C272.055 9.73749 272.385 10.3937 271.973 10.2158C271.768 10.1665 271.851 9.74119 271.468 9.93352C271.381 10.1735 271.063 10.1527 271.092 10.523C271.486 10.9397 272.759 10.9167 273.115 10.4865C273.107 10.0628 272.722 10.1492 272.715 9.75206L273.351 9.74057C273.179 10.2999 273.697 10.0257 273.615 10.4775C274.133 10.2562 274.459 9.37623 273.971 8.8288C273.068 9.16297 273.084 8.79185 271.949 8.86534C271.955 9.20956 271.729 9.2931 271.829 9.76808ZM283.541 10.0068C283.904 10.0002 283.782 9.49916 284.308 9.70154C285.194 10.9304 287.241 9.72802 288.25 10.213C288.153 8.62556 286.098 9.37785 284.8 9.24238C283.548 10.4039 282.077 8.25857 280.868 9.3134C278.641 8.10873 276.803 9.54577 274.494 8.84583C275.006 10.7172 277.463 9.58682 278.978 10.407C279.647 9.6798 281.058 11.0316 281.374 9.62212C282.332 9.79022 283.008 9.48664 283.541 10.0332L283.541 10.0068ZM174.606 11.5245C174.882 11.7314 174.981 12.1799 175.392 12.252C175.586 11.6922 176.57 12.0188 177.159 11.9287C177.198 11.5836 177.354 11.3689 177.277 10.8935C176.237 11.2037 175.384 10.5569 174.628 11.5241L174.606 11.5245ZM223.035 10.6496C223.713 10.399 225.318 11.1911 225.184 10.028C224.281 10.3887 224.205 9.96626 223.025 10.067L223.035 10.6496ZM229.512 10.5326C230.284 10.4921 231.303 11.5067 231.532 10.3372C231.326 10.2349 231.342 9.86382 231.024 9.89605C230.608 10.7776 229.626 9.28561 229.512 10.5061L229.512 10.5326ZM234.094 11.1914C234.756 11.3384 234.815 10.8341 235.106 10.5904C235.77 12.1147 238.436 11.1925 240.213 11.3987C240.208 11.134 240.295 10.894 240.452 10.8117C240.643 11.285 241.478 10.9786 241.735 11.3712C241.732 11.1859 241.775 11.0262 241.98 11.0755C242.131 10.596 241.569 10.9769 241.72 10.4974C240.293 10.8146 240.09 9.62631 238.775 9.809C238.504 11.1912 237.321 9.88823 236.479 9.85047C235.865 9.83507 235.828 10.3125 235.346 10.0299C235.344 9.95043 235.342 9.84452 235.206 9.87346C235.292 10.8255 233.8 10.0313 234.094 11.2179L234.094 11.1914ZM242.621 11.3287C243.118 11.1608 244.196 11.6446 244.275 11.0075C243.788 10.4601 243.032 10.1824 242.234 10.0114C242.111 10.7817 242.522 10.8802 242.644 11.3283L242.621 11.3287ZM300.468 10.734C300.527 10.2561 300.364 10.0472 300.313 9.70377C298.964 9.27785 297.63 9.69926 296.626 9.47901C296.772 11.2775 299.053 10.4682 300.468 10.734ZM406.586 8.07519C405.804 7.55958 404.284 7.74596 403.796 8.41696C402.1 7.65298 399.389 8.60252 397.95 8.23121C394.513 9.24685 389.621 7.79895 387.537 9.45233C387.885 9.81687 388.339 9.80866 388.673 9.4318C388.955 9.90349 390.591 9.87393 390.832 9.3928C392.437 10.1319 394.878 9.31971 396.418 9.00053C401.581 9.17212 407.961 8.71252 413.073 8.54071C411.415 7.32577 408.64 7.29643 406.586 8.07519ZM208.827 11.9393L208.817 11.3567L208.317 11.3658C208.368 11.6827 208.554 11.8912 208.827 11.9393ZM221.153 12.1669L221.926 12.1529L221.907 11.1202C221.293 11.0784 221.095 11.4528 221.153 12.1669ZM253.053 11.1403L253.042 10.5578L252.542 10.5668C252.46 11.0715 252.623 11.2805 253.053 11.1403ZM222.562 12.1414C223.264 11.9963 223.299 12.6578 224.09 12.4052C224.274 11.2629 222.517 10.9238 222.562 12.1414ZM316.732 9.98986C314.894 10.182 312.665 8.89789 312.551 11.3898C313.5 11.0812 313.561 11.9013 314.087 12.1036C314.659 12.3052 314.466 11.673 314.968 11.7964C315.031 11.4774 314.791 10.8195 315.086 10.7612C315.696 10.5383 315.371 11.4448 315.869 11.3298C316.91 11.0461 318.066 10.8928 318.643 10.0878C318.249 9.67109 317.199 9.42519 316.731 9.96338L316.732 9.98986ZM380.537 9.57879C382.833 9.53732 385.157 9.81318 386.77 9.75755C386.766 9.5722 386.809 9.41251 387.014 9.46177C385.644 7.8708 382.525 8.85421 380.519 8.54612L380.537 9.57879ZM114.272 14.0978C114.808 14.8298 115.854 14.8903 116.324 15.7029C115.962 15.7889 115.251 15.4574 115.446 16.1691C116.933 16.6984 119.669 17.1523 121.183 16.6481C121.08 15.9613 120.02 16.4573 120.273 15.3402C120.522 15.2827 121.049 15.5381 120.904 15.0375C120.763 13.5302 119.23 14.2466 118.582 13.5961C117.506 14.4632 115.971 13.8022 114.272 14.1243L114.272 14.0978ZM123.049 14.2306C122.559 13.5243 121.785 14.7037 121.135 13.9738L121.154 15.0065C121.428 15.081 121.991 14.8059 122.043 15.1493C122.048 15.4671 121.59 15.237 121.409 15.3197C121.49 16.0334 121.482 16.8282 122.075 16.9499C122.431 16.5196 122.958 16.7485 123.217 17.2206C123.629 17.3986 123.299 16.7424 123.712 16.9203C124.911 17.8787 127.296 16.4847 128.435 17.868C128.639 17.8643 128.519 17.4956 128.816 17.5697C128.664 16.7249 127.668 16.9548 127.271 16.4057C127.534 15.8447 127.975 16.34 128.541 16.2239C128.521 15.1117 126.942 14.5311 127.473 13.7269C126.61 13.7689 125.458 14.1606 124.922 13.4816C124.5 13.9925 124.054 13.2324 123.15 13.5136C123.085 13.7267 123.323 14.2786 123.027 14.2575L123.049 14.2306ZM99.6638 14.6531C100.022 15.6266 99.0588 15.1408 99.0461 15.6972C99.6239 16.2165 100.857 16.5121 101.597 15.9425C105.082 16.3563 109.461 15.8799 112.783 16.0318C112.934 15.5523 112.372 15.9332 112.523 15.4537C110.752 15.5917 109.648 14.8965 108.055 14.7928L108.042 14.0514C107.127 13.7766 107.026 14.4671 106.391 14.5315C106.328 14.8505 106.568 15.5084 106.273 15.5667C105.947 15.1487 105.087 15.3762 104.606 15.1465L104.595 14.564C103.199 14.0065 101.384 14.2247 99.6411 14.6535L99.6638 14.6531ZM109.181 14.1898C109.803 14.6288 112.394 15.8534 112.476 14.1302C111.906 14.0346 111.637 14.2513 111.345 14.442C111.018 13.9447 109.588 14.0765 109.181 14.1898ZM142.088 13.5953C142.257 14.0955 142.625 14.3537 143.127 14.477C143.282 14.2359 143.622 14.1503 143.497 13.5698C142.863 13.6872 142.56 13.2954 142.088 13.5953ZM348.88 10.1507C348.848 10.8929 349.149 11.2318 349.54 11.4631C350.824 10.8307 353.195 12.4566 354.097 10.7981C355.041 11.4167 357.03 10.7981 357.551 11.9276C357.893 12.0274 357.447 11.2408 357.79 11.3406C358.133 11.4403 358.053 12.051 358.44 12.0705C358.849 12.0896 358.726 11.5356 358.926 11.3201C360.024 11.6711 360.556 12.1647 361.982 11.8476C361.879 11.1873 362.056 10.8662 362.347 10.6491C362.219 11.1017 362.625 10.9089 362.852 10.9313C361.818 10.3143 360.873 9.58971 359.26 9.67182C359.264 9.88365 359.316 10.227 359.135 10.2568C356.989 9.76583 354.55 10.684 352.13 10.092C352.139 10.6216 352.661 10.5592 352.916 10.8194L351.779 10.84L351.766 10.0986C350.516 10.1212 349.993 10.1306 349.465 9.84877C349.611 10.3494 349.083 10.0941 348.834 10.1515L348.88 10.1507ZM167.005 13.5954C166.498 13.2602 165.435 13.5708 164.706 13.478C164.9 14.1102 166.933 14.6827 167.005 13.5954ZM190.262 13.6255C190.691 13.4588 191.7 13.9704 191.526 13.1524C191.338 12.8115 190.639 13.1154 190.251 13.0165L190.261 13.599L190.262 13.6255ZM241.734 12.5367C241.591 12.1949 240.937 12.4981 240.595 12.3984C240.65 12.9801 241.694 12.8817 241.734 12.5367ZM243.517 13.0872C245.973 13.1488 247.086 13.0757 249.254 13.5663C249.385 13.2725 249.493 12.9527 249.624 12.659C250.294 13.2296 251.764 12.8058 252.811 12.8928C252.357 11.6296 250.507 12.4577 249.622 12.5001C249.039 11.6896 248.264 12.869 247.707 12.2434C246.608 13.0578 245.132 11.8926 243.503 12.3193C243.42 12.7711 243.417 12.6122 243.516 13.0607L243.517 13.0872ZM414.605 10.2877C414.433 9.57563 413.594 9.69674 412.822 9.73717C412.883 10.5837 413.878 10.2743 414.605 10.2877ZM415.242 10.2762C415.81 10.2659 416.471 10.3864 416.367 9.67312L415.231 9.69365L415.242 10.2762ZM242.896 13.9725L243.783 13.9565C243.684 13.508 243.429 13.2742 242.886 13.39L242.896 13.9725ZM249.631 14.3011C249.995 14.2945 249.89 14.7997 250.409 14.5784C250.539 14.1788 250.681 13.2491 250.135 13.259C250.076 13.7368 249.714 13.8493 249.654 14.3007L249.631 14.3011ZM316.219 13.0981C316.328 12.8313 316.692 12.8512 316.592 12.3497L315.456 12.3703C315.466 12.9263 315.854 12.9988 316.242 13.0977L316.219 13.0981ZM314.702 13.4169C315.066 13.4103 314.961 13.9155 315.48 13.6942C315.538 13.1369 315.284 12.9031 314.964 12.803C315.131 13.2767 314.556 12.9163 314.724 13.39L314.702 13.4169ZM413.978 12.0737C414.035 12.7083 415.049 12.1867 415.506 12.3374C415.404 11.7036 414.384 11.8809 413.978 12.0737ZM376.246 13.6559C376.996 14.9137 379.46 14.1011 380.588 14.9018C381.712 14.1664 382.74 14.4656 384.646 14.2458C384.685 12.6294 382.744 13.4061 381.582 13.2681C381.319 13.8556 380.221 13.4781 379.564 13.5959C379.456 13.9157 379.093 13.9488 378.683 13.9032C378.675 13.4531 378.667 13.0029 378.281 13.0099C377.741 13.364 376.947 13.4313 376.268 13.629L376.246 13.6559ZM317.282 15.3039C317.495 15.7503 317.779 15.1095 317.913 15.0011L317.277 15.0126L317.282 15.3039ZM248.539 18.0291C249.172 17.8057 249.226 18.308 249.681 18.2998C249.712 17.5046 249.187 17.3817 248.528 17.42L248.539 18.0026L248.539 18.0291ZM184.634 20.5079L185.771 20.4874C185.757 19.7195 184.643 19.7396 184.634 20.5079ZM216.019 19.9409C216.008 19.3319 215.13 19.7981 214.741 19.6727C214.752 20.2817 215.631 19.8155 216.019 19.9409ZM161.126 21.6743C161.02 22.1 161.021 22.1265 161.142 22.5745C161.477 22.2242 163.132 21.9559 163.438 22.5331C163.772 22.1562 164.226 22.148 164.574 22.5125C164.914 22.4534 164.929 22.0294 165.455 22.2053C165.397 21.5176 164.627 21.6905 164.302 21.3255C163.446 21.7118 162.624 21.5148 161.126 21.6743ZM158.978 22.2958L160.25 22.2728C160.417 21.4222 158.78 21.4518 158.978 22.2958ZM267.387 20.6286C268.096 20.8807 268.189 19.7401 267.621 19.7238C267.628 20.1475 267.194 20.0229 267.387 20.6286ZM301.962 20.4543L303.098 20.4338C302.885 19.9873 302.584 19.6484 301.948 19.7129L301.962 20.4543ZM368.447 19.8359C368.563 19.9662 369.27 20.1389 369.333 19.8199C368.988 19.5877 368.531 19.49 368.186 19.2579C368.036 19.7374 368.597 19.3564 368.447 19.8359ZM413.288 24.2173C413.369 24.931 414.318 24.596 414.577 25.0946C414.657 24.4574 415.293 24.4459 415.442 23.887C414.594 23.505 414.129 24.1756 413.288 24.2173ZM416.3 28.6127C416.706 28.42 416.4 29.0877 416.806 28.895C417.322 28.5413 419.178 28.0575 417.796 27.1024C417.189 27.4842 416.42 27.6835 416.3 28.6127Z" fill="white"/>
</svg>
