<svg width="235" height="28" viewBox="0 0 235 28" fill="none" xmlns="http://www.w3.org/2000/svg">
<path d="M64.9917 21.4651C61.6405 23.1427 54.4654 20.6311 52.5111 22.5214C51.9207 20.9739 49.2183 22.3645 47.7628 22.3785C46.579 22.3962 46.7391 23.3875 45.8435 23.2719C43.3782 23.2151 47.8776 21.8151 44.5841 22.2428C43.7392 22.2868 44.1383 23.0366 43.8287 23.2184C43.1696 23.2044 42.6352 23.381 42.0795 23.2188C35.2729 24.0256 27.4987 25.2489 20.3167 25.6888C20.4584 25.5452 20.5567 25.4401 20.7702 25.2175C17.2285 26.7332 12.3748 26.8845 8.32937 27.9374C7.0989 28.2125 10.6471 26.4491 7.60877 26.6957C3.80507 27.164 8.07493 25.2832 5.4646 25.3331C5.21906 24.4703 5.86633 25.0966 6.11866 25.0029C5.87225 24.1473 5.16263 24.2296 4.44275 24.3326C4.80059 23.3016 6.93153 24.195 7.48616 23.144C22.9475 18.5238 42.0303 16.6798 58.4775 17.0238C59.1278 15.5678 61.4823 16.9267 62.3406 15.6785C63.1061 16.3556 63.9382 16.6755 64.975 16.2016C65.7433 15.8267 65.8298 16.5899 66.1572 17.0972C66.3603 15.0317 67.3285 17.6334 68.7885 16.8745C67.476 16.2847 67.0009 15.2626 65.8138 15.2434C67.1906 16.9736 61.1408 14.0281 61.498 15.8324C55.91 15.0473 50.0313 16.0247 44.6098 15.0844C43.7543 15.2806 44.4714 16.5511 43.0132 16.0094C45.5197 15.2747 41.4308 15.7231 41.2951 14.8517C39.8863 16.8591 39.5523 15.9565 37.8606 15.4816C33.6292 14.4074 38.7469 16.5095 33.9623 15.9603C36.2266 15.0429 31.2062 15.4152 33.6036 15.7123C32.4139 15.7147 26.5299 14.4846 30.4174 15.8314C28.8656 16.835 27.1282 15.58 25.9375 15.6553C25.7752 15.8403 25.3165 16.0333 25.1788 15.9508C23.1004 15.4585 20.9185 16.7878 18.8246 16.0377C17.6866 17.4129 16.3391 16.2123 14.9037 16.3822C12.4122 16.9287 6.54037 16.8839 2.78038 17.5694C-0.250502 17.8826 0.866048 13.6622 0.110278 12.197C1.28412 8.53165 2.09334 7.49678 6.33919 8.58003C10.0269 5.27699 5.85784 4.13725 13.9696 4.4309C20.6304 4.31532 27.465 3.53382 33.595 4.1433C34.1587 3.85336 34.8996 2.86871 35.7233 3.45058C37.1737 3.09245 39.0251 3.40395 40.5805 2.9489C41.2381 4.51915 40.7914 2.10478 42.5732 3.31401C42.8591 2.74935 43.0817 2.64471 43.7788 3.11628C44.6658 3.8812 44.4818 2.31704 45.1296 3.06765C45.6414 3.72144 46.1697 2.95223 46.7266 2.9757C47.249 3.15578 47.3603 2.94269 47.1959 2.30898C48.5153 3.1627 49.5628 3.17971 50.8378 2.47153C50.4866 3.25484 52.1971 3.0597 52.1306 2.77396C54.0141 1.27704 51.8107 3.61952 53.3327 2.92658C53.6199 2.54476 54.0822 1.93565 54.3455 2.8444C54.6144 1.97075 56.0508 1.72786 55.2336 2.89329C56.4285 2.84774 56.6197 1.71625 57.7152 2.55752C58.7331 3.14094 59.0436 1.34425 60.2333 1.98499C61.1245 1.81503 62.1911 2.95973 62.6037 1.8623C62.7703 1.96283 62.9728 2.02385 63.0287 2.14022C63.238 2.5309 63.4282 2.43697 63.7531 2.25702C64.4175 1.90618 68.7184 3.113 66.3273 1.73511C70.3251 2.87608 73.6372 0.558009 77.9733 1.98831C80.2289 2.10752 81.537 1.12566 83.7012 1.0365C84.7771 2.87654 86.3641 1.0661 87.616 1.06397C87.8846 1.9295 96.6301 0.195171 99.7289 1.24937C99.8599 0.0375189 102.161 1.38988 102.959 1.02598C106.456 0.454912 109.708 1.40335 112.957 0.955745C114.371 0.644327 115.547 1.97763 117.022 1.41063C118.008 1.42022 118.745 0.661619 119.89 0.96806C121.594 1.08632 123.386 1.31026 124.935 1.03712C126.813 1.51263 131.141 0.245423 129.937 2.35797C130.548 2.06639 131.649 1.89263 130.536 1.39265C136.384 1.17889 141.233 2.15967 146.729 2.16629C147.741 1.70402 148.007 2.71545 148.818 3.01808C150.317 1.74504 152.763 2.92496 154.648 2.69978C159.342 3.09911 162.783 3.38349 167.229 3.90629C171.263 3.84589 175.475 4.04818 179.075 5.26527C182.814 4.75986 187.251 5.61047 191.077 6.17534C191.345 6.59505 191.607 6.36355 191.921 6.27002C193.229 6.18702 194.548 5.82755 195.915 6.48239C196.455 6.767 197.213 6.9974 197.846 7.03013C199.355 6.18944 200.942 7.7844 202.298 7.37102C203.723 6.77593 205.731 8.1075 207.377 8.18955C207.967 8.45811 209.29 7.4781 209.194 8.53335C210.49 6.74626 215.887 10.5921 219.932 9.2834C221.834 9.95173 225.548 11.57 227.248 10.1166C227.282 11.5677 228.919 9.98977 230.155 10.7018C236.179 10.7723 235.38 13.0727 233.555 17.1709C225.633 17.5579 216.338 15.0897 208.368 14.7182C206.597 15.7976 204.908 12.2829 203.219 16.025C208.745 16.2911 211.559 14.6288 209.773 21.231C209.883 22.187 209.356 22.8175 208.371 22.8593C189.62 21.9591 169.489 20.0663 151.956 20.4681C151.423 20.5717 149.7 19.3915 149.573 20.5016C149.217 20.1662 148.907 19.7122 148.388 20.3436C147.285 20.5246 145.628 19.3743 144.725 20.4124C143.9 19.6549 140.809 21.2325 139.531 19.9088C138.76 19.7936 138.01 19.6299 137.675 20.5979C137.701 19.3587 135.901 18.8123 134.839 19.5608C138.126 19.4393 135.612 20.2388 133.687 20.0208C133.942 20.227 134.012 20.2867 134.211 20.4422C132.2 20.8714 130.232 19.7273 128.568 20.3739C127.925 20.7419 127.41 20.2412 128.533 20.1432C127.31 20.0391 126.607 20.0053 125.763 19.2675C125.276 19.8882 125.621 20.3758 126.476 20.2525C125.49 20.9445 125.038 19.4137 124.029 20.1687C122.057 19.9595 119.928 19.629 118.063 20.3244C118.915 19.967 117.334 19.6078 117.064 19.334C117.078 20.3734 116.459 20.3497 115.614 20.2622C116.012 18.0011 111.847 19.0103 114.422 19.7088C113.229 20.4416 110.401 19.2739 111.121 20.4571C108.329 19.4985 106.119 20.5467 103.632 20.4069C102.017 18.1435 100.66 21.1364 98.0173 19.9108C98.8312 18.3869 97.7037 20.3187 96.1474 20.1378C95.1099 19.9101 94.4992 20.9105 93.3044 20.5688C92.2496 20.7409 91.459 19.8853 90.2063 20.2162C89.3563 20.2377 86.5078 21.4864 88.3021 20.5341C87.1326 20.6266 86.821 19.6024 85.6191 19.7055C86.4897 20.6073 85.1154 21.4935 84.9531 20.3923C83.8724 21.6794 83.3915 19.9332 82.6384 20.6971C82.1942 21.2207 81.3533 20.3956 80.6976 20.6745C79.2652 21.3344 76.4363 20.6197 75.8916 21.1385C74.1507 21.1984 73.9228 20.1259 72.4034 21.1187C71.033 21.8446 70.3596 20.4698 68.8135 20.9113C68.1163 21.1486 67.733 21.8111 66.6779 21.7932C66.505 21.4873 66.731 21.3538 66.8634 20.9021C66.3317 20.9913 65.5335 20.4564 65.5098 21.0381C64.4437 20.3392 63.3352 21.5352 65.0147 21.4679L64.9917 21.4651ZM142.044 13.336C156.769 14.1002 174.417 15.7659 191.36 15.6729C193.285 15.891 191.751 13.9152 190.991 15.2483C190.957 15.3392 190.664 15.3841 190.494 15.3782C188.501 14.37 186.701 14.8539 184.626 14.9101C183.365 14.6699 181.769 13.9143 180.545 14.5263C179.423 14.6757 178.3 13.6118 177.127 13.9232C177.115 14.7256 175.377 14.3767 174.851 14.1668C174.12 12.7558 172.401 14.6892 171.384 13.8428C168.944 13.5113 168.059 13.7551 165.419 13.2825C162.443 14.1723 159.617 13.1073 156.574 13.7186C154.095 12.6151 150.949 13.9448 148.419 13.0763C147.523 11.806 146.274 12.744 145.115 12.8815C145.138 11.5324 144.482 13.4846 143.607 12.9476C141.496 12.2687 138.939 10.8488 137.376 12.8521C138.013 13.3676 138.305 12.5625 138.742 12.5423C139.644 13.7036 140.992 12.9677 142.042 13.3504L142.044 13.336ZM134.623 12.7898C134.541 10.6387 127.925 12.8935 132.217 12.3746C133.164 13.2857 133.189 12.1779 134.623 12.7898Z" fill="black"/>
</svg>
