<svg width="133" height="52" viewBox="0 0 133 52" fill="none" xmlns="http://www.w3.org/2000/svg">
<path d="M129.74 0.780029C128.176 0.780029 126.872 2.08003 126.872 3.64003C126.872 5.20003 128.176 6.50003 129.74 6.50003C131.305 6.50003 132.609 5.20003 132.609 3.64003C132.609 2.08003 131.436 0.780029 129.74 0.780029ZM127.915 35.88H131.957V12.35H127.915V35.88ZM107.965 15.6C113.05 15.6 115.919 19.24 115.919 24.05C115.919 28.86 113.311 33.02 107.965 33.02C102.88 33.02 100.272 28.73 100.272 24.05C100.272 19.5 103.271 15.6 107.965 15.6ZM119.7 12.35H115.658V15.73C113.702 13.26 110.703 11.7 107.443 11.7C100.272 11.7 96.0993 17.55 96.0993 24.18C96.0993 30.81 100.663 36.66 107.443 36.66C110.703 36.79 113.702 35.23 115.658 32.63V35.75H119.7V12.35ZM89.1885 30.94C87.6238 30.94 86.4503 32.11 86.3199 33.54C86.3199 35.1 87.6238 36.4 89.1885 36.4C90.7532 36.4 92.0571 35.1 92.0571 33.54C91.9268 31.98 90.7532 30.94 89.1885 30.94Z" fill="white"/>
<path d="M8.21497 17.94V5.97998H0.261047V36.66H8.21497V24.18H19.5591V36.66H27.513V5.97998H19.5591V17.94H8.21497Z" fill="white"/>
<path d="M42.3255 46.4815L45.7157 43.3615C47.802 41.2815 49.1059 39.3315 49.1059 36.2115C48.9755 31.7915 45.3246 28.1515 40.8912 28.2815C40.7608 28.2815 40.7608 28.2815 40.6304 28.2815C35.2844 28.2815 32.155 31.6615 32.155 36.7315H38.5442V35.6915C38.5442 34.1315 39.3265 33.0915 40.8912 33.0915C42.3255 33.2215 43.3687 34.5215 43.2383 35.9515C43.2383 38.0315 41.9344 39.9815 40.8912 41.5415L31.6334 51.2915H49.3667V46.4815H42.3255Z" fill="white"/>
<path d="M67.2305 12.6815C71.9246 12.6815 75.7059 16.3215 75.9667 20.8715C76.0971 25.8115 72.3158 29.9715 67.3609 30.1015H67.2305C62.2756 29.9715 58.3638 25.9415 58.4942 21.0015V20.8715C58.755 16.1915 62.5363 12.6815 67.2305 12.6815ZM67.2305 5.01147C58.4942 5.01147 50.2795 11.6415 50.2795 20.8715C50.2795 30.8815 57.451 37.7715 67.2305 37.7715C76.3579 38.0315 83.9207 31.0115 84.1814 21.9115C84.1814 21.5215 84.1814 21.1315 84.1814 20.8715C84.1814 11.6415 75.9667 5.01147 67.2305 5.01147Z" fill="white"/>
</svg>
