<?xml version="1.0" encoding="UTF-8"?>
<svg id="Layer_1" data-name="Layer 1" xmlns="http://www.w3.org/2000/svg" version="1.1" xmlns:xlink="http://www.w3.org/1999/xlink" viewBox="0 0 371 129">
  <defs>
    <style>
      .cls-1 {
        fill: none;
      }

      .cls-1, .cls-2 {
        stroke-width: 0px;
      }

      .cls-3 {
        clip-path: url(#clippath);
      }

      .cls-2 {
        fill: #000;
      }
    </style>
    <clipPath id="clippath">
      <rect class="cls-1" width="371" height="129"/>
    </clipPath>
  </defs>
  <g class="cls-3">
    <g>
      <path class="cls-2" d="M36.6,0c19.8,0,28.5,2.6,36,8.6,9.1,6.9,14.2,19.2,14.2,31.5s-5.4,25.3-13.4,31.5c-8.6,6.7-17.2,9.5-34.9,9.5h-18.1v47.1H0V0h36.6ZM20.5,63.3h17.7c8.2,0,14.4-.9,19.8-4.3,5.2-3,9.3-9.7,9.3-18.4s-3.9-15.3-9.3-18.4c-5.8-3.5-11.9-4.1-20.5-4.1h-17v45.2Z"/>
      <path class="cls-2" d="M95.1,82.8c0-23.3,17-46,46.3-46s46.3,22.7,46.3,46.2-17,46-46.3,46-46.3-22.7-46.3-46.2ZM111.7,83c0,17.3,13.2,30.3,29.7,30.3s29.7-13,29.7-30.5-13.1-30.5-29.7-30.5c-16.6.2-29.7,13.2-29.7,30.7Z"/>
      <path class="cls-2" d="M371,126.4h-16.6v-15.1c-6,11.7-18.5,17.7-32.3,17.7-28,0-44.6-21.8-44.6-46s19.4-46,44.6-46,28.2,9.5,32.3,17.9v-15.3h16.6v86.9ZM291.9,83.2c.2,13,9.3,30.3,30.4,30.3s22.6-7.3,26.9-17.3c1.9-4.1,2.8-8.4,3-13,.2-4.5-.6-8.9-2.6-13-4.1-10.2-13.8-17.9-27.8-17.9s-30,14.3-30,30.9Z"/>
      <path class="cls-2" d="M261.1,36.9l-42.5,36.3-14.4-12.5,28-23.8h28.9Z"/>
      <path class="cls-2" d="M277.9,129h-28.5l-47.4-41.5v-24.8l14.2,12.5,61.7,53.8Z"/>
    </g>
  </g>
</svg>