<svg width="90" height="90" viewBox="0 0 90 90" fill="none" xmlns="http://www.w3.org/2000/svg">
<path d="M77.9667 40.1667C82.2667 41.6334 84.9668 43.7668 84.9668 46.2001" stroke="black" stroke-width="2.5" stroke-linecap="round" stroke-linejoin="round"/>
<path d="M45 46.1666C45 43.7999 47.6 41.6999 51.7 40.2666" stroke="black" stroke-width="2.5" stroke-linecap="round" stroke-linejoin="round"/>
<path d="M45 61.4001C45 65.7668 36.0333 69.3334 25 69.3334C13.9667 69.3334 5 65.8001 5 61.4001C5 57.0001 13.9667 53.4668 25 53.4668C25.5333 53.4668 26.0667 53.4668 26.5667 53.4668C36.8667 53.8001 45 57.2001 45 61.3668V61.4001Z" stroke="black" stroke-width="2.5" stroke-linecap="round" stroke-linejoin="round"/>
<path d="M45 61.4001V77.2001V76.6335C45 81.0001 36.0333 84.5668 25 84.5668C13.9667 84.5668 5 81.0335 5 76.6335V61.4335" stroke="black" stroke-width="2.5" stroke-linecap="round" stroke-linejoin="round"/>
<path d="M81.5 41.7C83.7 42.9666 84.9667 44.4999 84.9667 46.1666C84.9667 50.5333 76 54.1 64.9667 54.1C53.9333 54.1 44.9667 50.5666 44.9667 46.1666C44.9667 44.5666 46.1333 43.1 48.1666 41.8666" stroke="black" stroke-width="2.5" stroke-linecap="round" stroke-linejoin="round"/>
<path d="M85 61.4001C85 65.7668 76.0333 69.3334 65 69.3334C53.9667 69.3334 45 65.8001 45 61.4001" stroke="black" stroke-width="2.5" stroke-linecap="round" stroke-linejoin="round"/>
<path d="M85 46.1666V76.6C85 80.9666 76.0333 84.5333 65 84.5333C53.9667 84.5333 45 81 45 76.6V46.1666" stroke="black" stroke-width="2.5" stroke-linecap="round" stroke-linejoin="round"/>
<path d="M58.7 28.667C58.7 30.9004 60.5333 32.7337 62.8333 32.7337H66.6999C68.9666 32.7337 70.8333 30.9004 70.8333 28.667C70.8333 26.4337 68.9999 24.6004 66.6999 24.6004H62.8333C60.5666 24.6004 58.7 22.767 58.7 20.5337C58.7 18.3004 60.5333 16.467 62.8333 16.467H66.6999C68.9666 16.467 70.8333 18.3004 70.8333 20.5337" stroke="black" stroke-width="2.5" stroke-linecap="round" stroke-linejoin="round"/>
<path d="M64.7667 16.4668V13.4668" stroke="black" stroke-width="2.5" stroke-linecap="round" stroke-linejoin="round"/>
<path d="M64.7667 35.7002V32.7002" stroke="black" stroke-width="2.5" stroke-linecap="round" stroke-linejoin="round"/>
<path d="M64.7667 44.2C75.6835 44.2 84.5333 35.4248 84.5333 24.6C84.5333 13.7752 75.6835 5 64.7667 5C53.8499 5 45 13.7752 45 24.6C45 35.4248 53.8499 44.2 64.7667 44.2Z" stroke="#FA198C" stroke-width="2.5" stroke-linecap="round" stroke-linejoin="round"/>
<path d="M16.6332 46.1666V23.7" stroke="black" stroke-width="2.5" stroke-linecap="round" stroke-linejoin="round"/>
<path d="M11.9999 28.4333L16.6333 23.7L21.2999 28.4333" stroke="black" stroke-width="2.5" stroke-linecap="round" stroke-linejoin="round"/>
<path d="M33.2999 46.1666V23.7" stroke="black" stroke-width="2.5" stroke-linecap="round" stroke-linejoin="round"/>
<path d="M28.6332 28.4333L33.2999 23.7L37.9998 28.4333" stroke="black" stroke-width="2.5" stroke-linecap="round" stroke-linejoin="round"/>
</svg>
