<svg width="90" height="90" viewBox="0 0 90 90" fill="none" xmlns="http://www.w3.org/2000/svg">
<path d="M84.1589 24.8577H5.70551V34.7496H84.1589V24.8577Z" stroke="black" stroke-width="2.5" stroke-linejoin="round"/>
<path d="M82.4534 15H7.41104V24.892H82.4534V15Z" stroke="black" stroke-width="2.5" stroke-linejoin="round"/>
<path d="M85.8644 34.7498H4V74.9998H85.8644V34.7498Z" stroke="black" stroke-width="2.5" stroke-linejoin="round"/>
<path d="M68.9797 54.8748H65.5687" stroke="black" stroke-width="2.5" stroke-linejoin="round"/>
<path d="M24.2956 54.8748H20.8846" stroke="black" stroke-width="2.5" stroke-linejoin="round"/>
<path d="M72.9367 34.7498C72.9367 41.9129 78.7354 47.6775 85.8645 47.6775V34.7498H72.9367Z" stroke="black" stroke-width="2.5" stroke-linejoin="round"/>
<path d="M85.8645 62.072C78.7013 62.072 72.9367 67.8708 72.9367 74.9998H85.8645V62.072Z" stroke="black" stroke-width="2.5" stroke-linejoin="round"/>
<path d="M16.9619 74.9998C16.9619 67.8366 11.1632 62.072 4.03415 62.072V74.9998H16.9619Z" stroke="black" stroke-width="2.5" stroke-linejoin="round"/>
<path d="M4 47.7114C11.1631 47.7114 16.9278 41.9127 16.9278 34.7837H4V47.7114Z" stroke="black" stroke-width="2.5" stroke-linejoin="round"/>
<circle cx="45.1109" cy="55.0289" r="13.8961" stroke="#FA198C" stroke-width="2.5"/>
<path d="M41.8653 58.0077C41.8653 59.4342 43.019 60.588 44.4455 60.588H46.858C48.2845 60.588 49.4383 59.4342 49.4383 58.0077C49.4383 56.5812 48.2845 55.4274 46.858 55.4274H44.4455C43.019 55.4274 41.8653 54.2736 41.8653 52.8471C41.8653 51.4206 43.019 50.2668 44.4455 50.2668H46.858C48.2845 50.2668 49.4383 51.4206 49.4383 52.8471" stroke="black" stroke-width="2.5" stroke-linejoin="round"/>
<path d="M45.6413 50.3088V47.4558" stroke="black" stroke-width="2.5" stroke-linejoin="round"/>
<path d="M45.6413 63.3992V60.5881" stroke="black" stroke-width="2.5" stroke-linejoin="round"/>
</svg>
