<svg width="84" height="84" viewBox="0 0 84 84" fill="none" xmlns="http://www.w3.org/2000/svg">
<path d="M2 74.2333L81.8668 65.3999" stroke="black" stroke-width="2.5" stroke-linecap="round" stroke-linejoin="round"/>
<path d="M2 43.2333L81.8668 34.3999V73.1667L2 82V43.2333Z" stroke="black" stroke-width="2.5" stroke-linecap="round" stroke-linejoin="round"/>
<path d="M64.9668 14.2332C73.0668 17.6665 80.0668 23.7665 81.8668 34.3999" stroke="black" stroke-width="2.5" stroke-linecap="round" stroke-linejoin="round"/>
<path d="M2 43.2334L33.5667 10.2666C33.5667 10.2666 41.0334 9.43329 50.1001 10.5" stroke="black" stroke-width="2.5" stroke-linecap="round" stroke-linejoin="round"/>
<path d="M48.9668 15.7666C48.9668 11.3333 52.5668 7.7666 56.9668 7.7666C61.3668 7.7666 64.9668 11.3666 64.9668 15.7666C64.9668 20.1666 61.3668 23.7666 56.9668 23.7666C52.5668 23.7666 48.9668 20.1666 48.9668 15.7666Z" stroke="#FA198C" stroke-width="2.5" stroke-linecap="round" stroke-linejoin="round"/>
<path d="M57.0001 13.2C57.0001 13.2 56.1001 5.33334 63.9001 2" stroke="black" stroke-width="2.5" stroke-linecap="round" stroke-linejoin="round"/>
<path d="M2.09999 52.7C3.43333 51.8 5.06667 51.6666 6.53334 52.2666L9.76668 53.6666C11.2333 54.3 12.9 54.1333 14.2 53.2333L17.1334 51.2666C18.4667 50.3666 20.1 50.2333 21.5667 50.8333L24.8 52.2333C26.2667 52.8666 27.9334 52.7 29.2334 51.8L32.1667 49.8333C33.5001 48.9333 35.1334 48.8 36.6001 49.4L39.8334 50.7666C41.3001 51.4 42.9668 51.2333 44.2668 50.3333L47.1668 48.3666C48.5001 47.4666 50.1334 47.3333 51.6001 47.9333L54.8334 49.3333C56.3001 49.9666 57.9668 49.8 59.2668 48.9L62.2001 46.9333C63.5335 46.0333 65.1668 45.9 66.6335 46.5L69.8668 47.9C71.3335 48.5333 73.0002 48.3666 74.3002 47.4666L77.2002 45.4999C78.5335 44.5999 80.1668 44.4666 81.6335 45.0666" stroke="black" stroke-width="2.5" stroke-linecap="round" stroke-linejoin="round"/>
<path d="M2.09999 62.3001C3.43333 61.4001 5.06667 61.2667 6.53334 61.8667L9.76668 63.2667C11.2333 63.9001 12.9 63.7334 14.2 62.8334L17.1334 60.8667C18.4667 59.9667 20.1 59.8334 21.5667 60.4334L24.8 61.8334C26.2667 62.4667 27.9334 62.3001 29.2334 61.4001L32.1667 59.4334C33.5001 58.5334 35.1334 58.4001 36.6001 59.0001L39.8334 60.4001C41.3001 61.0334 42.9668 60.8667 44.2668 59.9667L47.1668 58.0001C48.5001 57.1001 50.1334 56.9667 51.6001 57.5667L54.8334 58.9667C56.3001 59.6001 57.9668 59.4334 59.2668 58.5334L62.2001 56.5667C63.5335 55.6667 65.1668 55.5334 66.6335 56.1334L69.8668 57.5001C71.3335 58.1334 73.0002 57.9667 74.3002 57.0667L77.2002 55.1C78.5335 54.2 80.1668 54.0667 81.6335 54.6667" stroke="black" stroke-width="2.5" stroke-linecap="round" stroke-linejoin="round"/>
</svg>
