<svg width="86" height="118" viewBox="0 0 86 118" fill="none" xmlns="http://www.w3.org/2000/svg">
<g id="Layer_1" clip-path="url(#clip0_8795_1763)">
<path id="Vector" d="M11.0101 112.519C11.0365 112.598 11.0891 112.69 11.076 112.768C10.9179 114.293 8.27076 117.448 6.82206 117.842C6.40062 117.961 5.93967 118.223 5.74212 117.553C5.6631 117.317 5.49189 117.106 5.268 117.264C4.25391 117.961 3.30568 116.856 2.31793 117.198C2.23891 117.225 2.13355 117.198 2.05453 117.172C0.987758 116.856 -0.368751 114.043 0.105369 112.992C0.908738 111.217 1.79113 109.469 2.58133 107.681C5.0046 102.253 7.33569 96.7976 9.79848 91.3952C15.0796 79.7884 21.2169 68.6285 27.894 57.771C28.2101 57.2584 28.4999 56.7457 28.9608 55.9702C27.1697 56.5091 25.6946 56.9692 24.2196 57.403C22.9553 57.771 21.8754 57.7447 20.5979 56.9297C19.7023 56.3645 18.4643 55.9702 17.3185 55.6679C16.3703 55.4181 15.9884 54.8134 16.1201 53.9065C16.1991 53.3675 16.2254 53.1046 15.5274 53.1835C15.1192 53.2229 15.0401 52.7497 14.9743 52.3817C14.8821 51.777 15.0796 51.2512 15.343 50.7254C20.0579 41.2613 23.7718 31.337 28.4077 21.8334C30.449 17.6402 32.3191 13.3682 34.5185 9.2539C35.3614 7.68968 34.7556 6.61182 34.1103 5.46823C33.4781 4.35093 33.4913 3.58854 34.558 2.89187C36.6784 1.52482 38.9041 0.617832 41.4986 0.446951C50.6913 -0.17085 59.8971 -0.0656926 69.0897 0.236636C71.974 0.328649 74.8714 0.328649 77.7424 0.709845C78.638 0.828147 79.8101 0.578398 79.9681 2.01117C79.9681 2.07689 80.0998 2.18205 80.1525 2.18205C81.7988 2.03746 82.4573 3.47023 83.5109 4.27206C84.5513 5.06074 85.0913 6.23062 85.4732 7.43993C85.6181 7.87371 85.1308 8.42579 85.8551 8.79384C86.2239 8.97786 85.7893 9.34591 85.5786 9.5168C84.8542 10.1083 84.1035 10.6472 83.3528 11.2125C76.8205 16.076 70.8414 21.5968 64.5856 26.7889C62.3994 28.6029 60.3054 30.4957 58.0665 32.7172C60.0683 32.9669 61.6487 33.7162 63.1896 34.5706C64.9675 35.5565 66.4689 36.8578 67.6279 38.5272C68.3259 39.5393 68.9317 40.6172 67.7332 41.8396C68.3917 41.9316 68.2864 41.2744 68.7605 41.3007C68.6551 42.4837 67.9176 43.2987 67.1274 44.0216C63.6901 47.1764 60.7795 50.8175 57.6977 54.3008C52.1136 60.6234 46.6481 67.0512 41.2879 73.5709C39.3124 75.9764 37.3764 78.4082 35.4141 80.8137C35.1244 81.1686 34.9795 81.7207 34.3605 81.7075L34.3868 81.7338C34.3473 80.6691 35.638 80.3142 35.6907 79.302C37.495 77.7641 38.7198 75.7661 40.0631 73.8601C38.5881 75.6609 36.8365 77.2383 35.717 79.3283C34.4263 80.393 33.3991 81.6549 32.7538 83.206C31.8714 84.2576 30.989 85.3092 30.1066 86.3607C28.1311 88.8319 26.0502 91.2374 24.4567 94.0109L24.4962 93.9584C23.2319 95.1677 22.2309 96.5479 21.5198 98.1384C21.3486 98.3487 21.1773 98.5459 21.0193 98.7562C19.0438 101.214 17.4766 103.975 15.3957 106.367C14.3948 107.3 13.7363 108.496 12.9329 109.574C12.5115 110.153 11.8267 110.613 11.8925 111.467C11.5896 111.796 11.2735 112.124 10.9706 112.466L11.0101 112.519ZM53.3516 58.2705C54.392 57.9025 54.7871 56.8772 55.472 56.1542C56.5387 55.0369 57.4738 53.8013 58.4616 52.6183C57.6845 52.7629 57.3685 53.3281 57.0129 53.8144C55.8671 55.3655 54.2472 56.5354 53.3779 58.3099C52.061 59.2958 51.1127 60.584 50.2435 61.951C51.3498 60.7943 52.6536 59.7821 53.3516 58.2836V58.2705ZM76.8864 15.353C75.543 15.8657 74.6211 16.983 73.5939 17.89C72.2637 19.0599 70.6965 19.98 69.6824 21.5048C68.26 22.1751 67.2064 23.2662 66.1923 24.436C65.8894 24.3703 65.6919 24.5806 65.4943 24.7515C62.8735 27.065 60.2527 29.3784 57.6582 31.7182C57.4475 31.9022 57.0129 32.0994 57.2104 32.612C59.6732 30.4169 62.1228 28.2611 64.5329 26.066C65.0992 25.5533 65.9158 25.251 66.166 24.3966C67.5357 23.6605 68.6946 22.6746 69.6561 21.4653C71.6447 20.3349 73.1856 18.6261 74.9504 17.2064C75.6352 16.6544 76.544 16.2732 76.86 15.3268C77.6634 15.2873 78.0322 14.5907 78.5721 14.1832C80.1394 12.987 81.6671 11.7251 83.208 10.4764C80.89 11.8434 78.7038 13.3682 76.8732 15.353H76.8864ZM69.0502 9.60881C68.4708 9.56938 68.26 9.55623 68.0493 9.55623C62.9657 9.45107 57.8689 9.50365 52.7985 9.74026C51.1522 9.81912 49.4401 9.64824 47.8861 9.91114C46.2003 10.2003 44.6067 10.2135 42.9605 10.1215C42.6049 10.1083 42.4732 10.3449 42.2493 10.5815C41.3801 11.5279 41.4064 12.803 40.9718 13.894C37.3369 23.0164 33.5176 32.06 29.6325 41.0772C28.8686 42.8386 28.1706 44.6263 27.3014 46.7426C30.1593 45.6779 32.6352 44.7446 35.1244 43.8376C35.8355 43.5747 36.5599 43.325 37.2974 43.2067C38.2588 43.0358 38.5485 43.7982 39.0885 44.4028C39.4046 44.7577 40.6953 44.0348 41.1694 45.1127C41.2879 45.3887 41.4328 45.599 41.7884 45.7305C43.0132 46.1774 43.3951 47.321 43.9219 48.3594C44.475 49.4636 44.5541 50.5151 43.777 51.5799C43.3819 52.1188 43.1449 52.7497 42.7893 53.315C40.4187 57.0743 38.0218 60.8206 35.6512 64.58C34.94 65.7104 34.2551 66.8671 33.5571 68.0239C33.6493 68.0896 33.7547 68.1553 33.8469 68.221C41.604 58.6123 50.204 49.7133 58.0006 40.0257C55.2218 39.1844 52.4956 40.0782 49.9933 38.606C49.0714 38.0671 47.9914 36.9761 46.5559 37.3573C46.4242 37.3967 45.792 36.9366 45.8316 36.516C45.8974 35.8325 45.4496 35.2015 45.1599 34.8992C44.1853 33.8871 44.7253 33.0984 45.2521 32.2571C45.6208 31.6525 46.0028 31.0478 46.4769 30.5089C48.5446 28.156 50.744 25.9345 53.0355 23.7657C56.71 20.2823 60.6346 17.1144 64.4144 13.7494C65.8894 12.4349 67.3645 11.1336 69.0766 9.60881H69.0502ZM26.1819 81.4446C26.6561 81.3132 26.8404 80.8662 27.0907 80.5508C30.1198 76.7914 33.1093 72.9926 36.1648 69.2463C42.1044 61.9773 48.4787 55.0763 54.5633 47.9388C55.7881 46.506 57.3816 45.3098 58.2377 43.2461C55.5115 45.8093 26.6034 79.1706 26.1819 81.4446ZM47.8992 32.152C48.6894 32.2308 48.8211 31.7971 49.0977 31.5342C51.0995 29.523 53.0224 27.4199 55.1427 25.5533C60.8848 20.4795 66.7191 15.4976 72.5271 10.4764C72.83 10.2135 73.1066 10.0031 72.8432 9.33277C64.4407 16.891 55.2744 23.3976 47.8992 32.1388V32.152ZM67.4698 42.7466C67.3908 42.6809 67.2986 42.602 67.2196 42.5363C65.8763 43.9691 64.5461 45.415 63.2028 46.8478C64.9149 45.7567 66.245 44.2977 67.4698 42.7466ZM47.1881 65.7104C47.0827 65.6315 46.9905 65.5527 46.8851 65.4607C45.9237 66.6305 44.9623 67.8004 44.0009 68.9572C44.0799 69.0229 44.1721 69.0886 44.2512 69.1675C45.2257 68.0107 46.2003 66.854 47.1881 65.7104ZM31.6738 69.128C31.0812 70.1139 30.4885 71.0866 29.8959 72.0724C30.9363 71.3495 31.3709 70.2585 31.6738 69.128Z" fill="black"/>
</g>
<defs>
<clipPath id="clip0_8795_1763">
<rect width="86" height="118" fill="white"/>
</clipPath>
</defs>
</svg>
