<svg width="90" height="90" viewBox="0 0 90 90" fill="none" xmlns="http://www.w3.org/2000/svg">
<path d="M55.6407 34.3928L56.308 35.1268C61.6794 40.9986 61.4792 50.04 55.8409 55.6449C54.2061 57.2797 53.0051 59.2482 52.3045 61.4168C51.5705 63.6854 50.5362 66.7881 49.6354 69.6573C48.0674 74.4949 44.9313 78.6653 40.7609 81.5012C36.1568 84.6373 30.4518 85.7716 25.0136 84.6373C15.1716 82.5688 7.46478 74.8953 5.42964 65.0533C4.2953 59.5818 5.42964 53.9101 8.56575 49.306C11.435 45.1023 15.6053 41.9995 20.4429 40.4315L28.45 37.8959C30.652 37.1953 32.6204 35.9942 34.2551 34.3594L34.422 34.1926C40.2271 28.3875 49.6688 28.3875 55.5073 34.1926L55.7075 34.3928H55.6407Z" stroke="black" stroke-width="2.5" stroke-linecap="round" stroke-linejoin="round"/>
<path d="M53.1051 32.191L64.7154 20.5807L69.4529 25.3183L57.8093 36.9285" stroke="black" stroke-width="2.5" stroke-linecap="round" stroke-linejoin="round"/>
<path d="M33.0874 45.9362C36.1234 42.9002 41.0277 42.9002 44.0638 45.9362C47.0998 48.9722 47.0998 53.8766 44.0638 56.9126C41.0277 59.9486 36.1234 59.9486 33.0874 56.9126C30.0514 53.8766 30.0514 48.9722 33.0874 45.9362Z" stroke="#FA198C" stroke-width="2.5" stroke-linecap="round" stroke-linejoin="round"/>
<path d="M69.453 25.318L75.5251 25.0177L83.8324 12.2064L80.8298 9.20374L77.8271 6.20105L64.9824 14.4751L64.7155 20.5804" stroke="black" stroke-width="2.5" stroke-linecap="round" stroke-linejoin="round"/>
<path d="M30.8605 70.1446L19.8671 59.1511L14.3468 64.6714L25.3402 75.6649L30.8605 70.1446Z" stroke="black" stroke-width="2.5" stroke-linecap="round" stroke-linejoin="round"/>
<path d="M77.0264 22.649L81.2635 26.8861" stroke="black" stroke-width="2.5" stroke-linecap="round" stroke-linejoin="round"/>
<path d="M81.23 16.9772L85 20.7471" stroke="black" stroke-width="2.5" stroke-linecap="round" stroke-linejoin="round"/>
<path d="M67.3845 13.007L63.1474 8.7699" stroke="black" stroke-width="2.5" stroke-linecap="round" stroke-linejoin="round"/>
<path d="M73.0562 8.80336L69.2529 5" stroke="black" stroke-width="2.5" stroke-linecap="round" stroke-linejoin="round"/>
</svg>
