<svg width="90" height="90" viewBox="0 0 90 90" fill="none" xmlns="http://www.w3.org/2000/svg">
<path d="M78.3882 45.6208H61.381L56.3122 55.4917L51.7102 35.6832L42.9398 57.4925L35.5366 29.4473L31.0348 45.6208H13.5273" stroke="black" stroke-width="2.5" stroke-linecap="round" stroke-linejoin="round"/>
<path d="M9.79235 41.919C6.49095 37.7506 4.82355 32.2482 5.75728 26.3457C7.09118 17.6087 14.3276 10.6724 23.098 9.67195C32.2685 8.60483 42.1061 14.8408 45.5076 22.5107C48.9423 14.8408 58.7465 8.60483 67.9171 9.67195C76.6875 10.7057 83.9238 17.642 85.2577 26.3457C86.1581 32.2482 84.4908 37.7506 81.2227 41.919L45.5076 81.1357L9.79235 41.919Z" stroke="black" stroke-width="2.5" stroke-linecap="round" stroke-linejoin="round"/>
<circle cx="77.9051" cy="46.5146" r="4.7943" fill="white" stroke="#FA198C" stroke-width="2.5"/>
</svg>
