<svg width="56" height="73" viewBox="0 0 56 73" fill="none" xmlns="http://www.w3.org/2000/svg">
<g id="Layer_1" clip-path="url(#clip0_8795_2141)">
<path id="Vector" d="M23.51 12.1901C23.29 12.1501 22.92 12.1601 22.89 12.0701C22.66 11.2801 21.98 10.5401 22.61 9.64006C22.82 9.33006 22.95 8.98006 22.7 8.62006C21.92 7.48006 21.99 6.10006 21.68 4.84006C21.37 3.57006 21.7 2.22006 22.34 1.01006C22.81 0.120064 23.15 0.110064 24.25 0.0300643C25.99 -0.0899357 27.71 0.440064 29.46 0.0700643C30.15 -0.0699357 30.9 0.0500643 31.6 0.0500643C32.05 1.95006 32 2.00006 33.34 3.58006C34.35 4.76006 34.89 6.09006 34.84 7.59006C34.75 10.0901 34.93 12.5801 35.23 15.0301C35.42 16.5601 35.48 18.2201 36.55 19.5601C36.86 19.9401 37.06 20.4701 37.15 20.9601C37.55 23.0301 38.85 24.6501 39.85 26.4101C40.41 27.4001 41.38 27.9101 42.31 28.5101C43.22 29.1001 44.11 29.3701 45.19 29.3501C46.94 29.3201 48.68 29.4101 50.43 29.4501C50.79 29.4501 51.16 29.4601 51.52 29.5201C52.65 29.7101 53.67 29.9901 53.73 31.4701C53.75 31.8901 54.23 32.2501 54.27 32.7901C54.3 33.2501 54.85 33.4001 55.18 33.6801C56.16 34.5401 56.05 35.6801 55.72 36.7301C55.25 38.2401 54.36 39.4301 52.84 40.1601C51.37 40.8601 49.92 41.4401 48.27 41.5801C46.85 41.6901 45.71 42.5801 44.55 43.3101C42.53 44.6001 41.07 46.4501 40.06 48.5901C39.47 49.8401 38.84 51.0801 38.27 52.3401C37.36 54.3801 37.13 56.5301 36.67 58.6601C36.07 61.4701 36.33 64.3401 35.71 67.1201C35.62 67.5401 35.49 67.9601 35.45 68.3901C35.26 70.4001 34.24 71.7701 32.36 72.5001C31.92 72.3601 31.9 71.9401 31.85 71.6101C31.7 70.4901 31.27 69.4801 30.64 68.5801C30.02 67.7001 29.73 66.5901 28.75 65.9601C28.52 65.8101 28.43 65.4801 28.24 65.2601C27.68 64.6101 27.06 64.1301 26.18 64.7501C25.85 64.9801 25.48 64.9201 25.12 64.9201C24.71 64.9201 24.41 64.7301 24.3 64.3301C24.13 63.6901 23.93 63.0501 23.87 62.4101C23.7 60.4501 23.9 58.4501 23.15 56.5601C23.56 55.2401 22.89 53.9801 22.9 52.6801C22.9 52.1301 23.19 51.8901 23.55 51.6501L23.45 51.7701L23.53 51.7001C23.43 51.5101 23.35 51.1901 23.22 51.1701C22.85 51.1101 22.55 51.1001 22.39 50.6601C21.97 49.4301 21.44 48.2401 21.08 46.9901C20.63 45.4401 19.47 44.4201 18.51 43.2501V43.3101C18.1 42.7201 17.42 42.9901 16.88 42.8701C15.9 42.6701 14.87 42.7901 13.9 42.3401C13.26 42.0401 12.6 42.3901 11.99 42.6101C10.85 43.0201 9.68999 42.9801 8.52999 42.8101C7.90999 42.7201 7.49999 42.4701 7.31999 41.7701C7.00999 40.5201 6.12999 39.4601 6.09999 38.1001C6.08999 37.6401 5.77999 37.3301 5.40999 37.0501C4.83999 36.6101 4.16999 36.2801 3.78999 35.6001C3.53999 35.1501 3.01999 35.2101 2.58999 35.2401C1.84999 35.2801 1.17999 35.2301 0.529993 34.7901C-0.0400072 34.4101 -0.160007 34.1601 0.189993 33.6501C0.539993 33.1401 1.01999 32.7901 1.55999 32.5901C3.67999 31.8101 5.78999 31.0001 8.04999 30.6301C9.32999 30.4201 10.58 29.9201 11.8 29.4401C14.26 28.4901 16.68 27.4101 18.85 25.9001C21 24.4101 22.49 22.3401 23.51 19.9401C24.1 18.5601 23.75 17.2101 23.48 15.8501C23.42 15.5701 23.24 15.3101 23.19 15.0201C23.11 14.5201 23.13 13.9901 23.03 13.4901C22.93 12.9501 23.8 12.7201 23.43 12.1201C23.52 12.0401 23.62 11.9701 23.7 11.8901C23.71 11.8801 23.65 11.7601 23.64 11.7601C23.39 11.8201 23.46 12.0101 23.49 12.1701L23.51 12.1901ZM30.72 29.4501C30.41 29.8101 30.11 30.0501 29.96 30.3601C29.27 31.7501 28.3 32.9301 27.23 34.0201C26.63 34.6301 26.2 35.4101 25.39 35.8501C25.03 36.0501 24.9 36.6201 25.22 37.0301C26.24 38.3401 26.82 39.9201 28.05 41.1201C28.96 42.0101 29.36 42.0801 30.04 41.0701C30.24 40.7701 30.57 40.5601 30.78 40.2601C31.83 38.7501 33.04 37.4301 34.62 36.4501C35.17 36.1101 35.62 35.6001 36.09 35.1501C36.43 34.8201 36.51 34.4001 36.3 33.9501C35.92 33.1301 35.39 32.4301 34.59 32.0101C33.24 31.3001 31.91 30.5501 30.72 29.4401V29.4501ZM24.57 49.0401C24.81 48.5601 24.66 48.1401 24.2 48.0001C23.67 47.8401 23.09 47.8501 22.53 47.8201C22.45 47.8201 22.32 48.0001 22.28 48.1201C22.22 48.3401 22.33 48.5601 22.57 48.5701C23.51 48.6301 24.21 48.7801 24.56 49.0401H24.57ZM32.16 28.9401C32.22 28.7801 32.16 28.6701 31.99 28.6501C31.94 28.6501 31.87 28.7001 31.82 28.7301C31.88 28.8401 31.94 28.9401 32 29.0501C32.05 29.0101 32.11 28.9801 32.16 28.9401ZM24.89 1.24006C24.9 1.05006 24.82 1.01006 24.67 1.15006C24.65 1.17006 24.7 1.25006 24.72 1.31006C24.78 1.29006 24.84 1.26006 24.89 1.24006ZM32.93 4.80006L33.02 4.64006H32.87L32.93 4.80006Z" fill="black"/>
<path id="Vector_2" d="M18.52 43.26L18.56 43.4L18.53 43.33V43.26H18.52Z" fill="black"/>
</g>
<defs>
<clipPath id="clip0_8795_2141">
<rect width="55.95" height="72.52" fill="white"/>
</clipPath>
</defs>
</svg>
