<svg width="90" height="90" viewBox="0 0 90 90" fill="none" xmlns="http://www.w3.org/2000/svg">
<path d="M12.5038 28.6676V9.63525" stroke="black" stroke-width="2.5" stroke-linecap="round" stroke-linejoin="round"/>
<path d="M9.07075 34.3671L7.63749 77.6982C7.5375 80.4981 9.80405 82.8313 12.6372 82.8313C15.4704 82.8313 17.7037 80.4981 17.637 77.6649L16.0371 34.3337" stroke="black" stroke-width="2.5" stroke-linecap="round" stroke-linejoin="round"/>
<path d="M81.0338 48.8997L74 49" stroke="black" stroke-width="2.5" stroke-linecap="round" stroke-linejoin="round"/>
<path d="M74.0342 46.3667L72.9675 78.465C72.8342 80.8316 75.1674 82.8315 78.1006 82.8315C81.0338 82.8315 83.3337 80.8316 83.2337 78.465L81.9004 44.6334C80.3338 41.5002 81.7004 39.7003 83.1004 38.7337C84.3336 37.9004 85.1003 36.5005 85.0336 35.0006C84.8336 30.0008 84.1336 26.4343 83.8003 24.9344C81.0338 12.5017 74.0008 8.2019 74.0008 8.2019V46.3667H74.0342Z" stroke="black" stroke-width="2.5" stroke-linecap="round" stroke-linejoin="round"/>
<path d="M24.1366 44.1998C24.1366 32.3338 33.7694 22.7009 45.6355 22.7009C57.5016 22.7009 67.1344 32.3338 67.1344 44.1998C67.1344 56.0659 57.5016 65.6988 45.6355 65.6988C33.7694 65.6988 24.1366 56.0659 24.1366 44.1998Z" stroke="#FA198C" stroke-width="2.5" stroke-linecap="round" stroke-linejoin="round"/>
<path d="M20.1702 8.16846V26.7675C20.1702 30.934 16.7703 34.3338 12.6039 34.3338C8.43743 34.3338 5.0376 30.934 5.0376 26.7675V8.16846" stroke="black" stroke-width="2.5" stroke-linecap="round" stroke-linejoin="round"/>
<path d="M73.5 63.5C67.4003 72.4995 57.3349 78.0651 45.6355 78.0651C33.9361 78.0651 23.0366 71.7987 17.0369 62.3325" stroke="black" stroke-width="2.5" stroke-linecap="round" stroke-linejoin="round"/>
<path d="M20.5369 21.4012C26.7366 14.5682 35.6695 10.3018 45.6023 10.3018C57.3018 10.3018 67.6012 16.2348 73.7009 25.2343" stroke="black" stroke-width="2.5" stroke-linecap="round" stroke-linejoin="round"/>
</svg>
