<svg width="90" height="90" viewBox="0 0 90 90" fill="none" xmlns="http://www.w3.org/2000/svg">
<path d="M44.9499 16.798C46.7834 12.7644 51.9505 9.49741 56.7509 10.0641C61.3846 10.5975 65.185 14.2645 65.9183 18.8649C66.3851 21.9651 65.5183 24.8987 63.7848 27.0989L44.9499 47.0673L26.115 27.0989C24.3815 24.8987 23.5148 21.9985 23.9815 18.8982C24.6815 14.2978 28.5152 10.6308 33.1489 10.0975C37.9827 9.53075 43.1498 12.7977 44.9499 16.8314V16.798Z" stroke="black" stroke-width="2.5" stroke-linecap="round" stroke-linejoin="round"/>
<path d="M29.7486 21.432C29.7486 18.3651 32.2154 15.8982 35.2824 15.8982" stroke="black" stroke-width="2.5" stroke-linecap="round" stroke-linejoin="round"/>
<path d="M75.9192 38.4332C77.8527 33.6661 78.2194 24.8654 78.2194 24.8654C78.4861 22.2985 78.8528 17.5981 81.4197 16.4646C82.3864 15.9979 83.5199 16.598 83.7199 17.6647C83.7199 17.6647 85.72 27.5323 84.72 45.8338C84.72 46.3672 83.8199 50.0342 83.4865 50.4342L72.6189 64.2354C72.1522 64.7021 71.9189 65.3021 71.9189 65.9688V69.9358" stroke="black" stroke-width="2.5" stroke-linecap="round" stroke-linejoin="round"/>
<path d="M53.3173 69.9358L53.4506 62.4685C53.5173 58.8682 54.9841 55.3345 57.7177 53.001C57.9177 52.8343 58.1177 52.6676 58.2844 52.5343C59.1844 51.8676 60.1512 51.1008 61.2846 50.4341L61.6513 50.1341C65.185 47.0005 68.3852 43.5002 71.0521 39.6332C71.6522 38.7665 72.5189 38.2331 73.4857 38.0664C74.2857 37.9331 75.1525 38.0664 75.9192 38.4331M75.9192 38.4331C75.7859 38.3331 76.0525 38.4998 75.9192 38.4331ZM75.9192 38.4331L76.3192 38.6665C78.0194 39.8666 77.6193 42.1334 76.7193 43.5669L71.0521 51.7342C71.0521 51.7342 71.3855 55.7346 67.2518 58.7682" stroke="black" stroke-width="2.5" stroke-linecap="round" stroke-linejoin="round"/>
<path d="M51.0838 79.6034V69.9359H74.1857V79.6034" stroke="black" stroke-width="2.5" stroke-linecap="round" stroke-linejoin="round"/>
<path d="M14.0808 38.4332C12.1473 33.6661 11.7806 24.8654 11.7806 24.8654C11.5139 22.2985 11.1472 17.5981 8.5803 16.4646C7.61355 15.9979 6.48013 16.598 6.28011 17.6647C6.28011 17.6647 4.27994 27.5323 5.28002 45.8338C5.28002 46.3672 6.1801 50.0342 6.51346 50.4342L17.381 64.2354C17.8478 64.7021 18.0811 65.3021 18.0811 65.9688V69.9358" stroke="black" stroke-width="2.5" stroke-linecap="round" stroke-linejoin="round"/>
<path d="M36.6828 69.9358L36.5494 62.4685C36.4828 58.8682 35.016 55.3345 32.2824 53.001C32.0824 52.8343 31.8824 52.6676 31.7157 52.5343C30.8156 51.8676 29.8489 51.1008 28.7154 50.4341L28.3487 50.1341C24.8151 47.0005 21.6148 43.5002 18.9479 39.6332C18.3479 38.7665 17.4811 38.2331 16.5144 38.0664C15.7143 37.9331 14.8476 38.0664 14.0809 38.4331M14.0809 38.4331C13.9475 38.4998 14.2142 38.3331 14.0809 38.4331ZM14.0809 38.4331L13.6808 38.6665C11.9807 39.8666 12.3807 42.1334 13.2808 43.5669L18.9479 51.7342C18.9479 51.7342 18.6146 55.7346 22.7483 58.7682" stroke="black" stroke-width="2.5" stroke-linecap="round" stroke-linejoin="round"/>
<path d="M38.9163 79.6034V69.9359H15.8143V79.6034" stroke="black" stroke-width="2.5" stroke-linecap="round" stroke-linejoin="round"/>
<circle cx="55.1553" cy="20.2358" r="4.09431" stroke="#FA198C" stroke-width="2.5"/>
</svg>
