<svg width="230" height="104" viewBox="0 0 230 104" fill="none" xmlns="http://www.w3.org/2000/svg">
<g clip-path="url(#clip0_6196_2248)">
<path d="M101.448 60.8575C101.598 60.7444 101.362 60.2752 101.048 60.0411C100.825 59.8756 100.829 59.932 101.061 60.3448C101.212 60.6232 101.346 60.8656 101.343 60.8875C101.34 60.9094 101.387 60.8937 101.448 60.8575ZM87.0043 54.8607C87.1309 54.7555 87.9539 55.1058 88.1439 55.345C88.2963 55.5341 88.2838 55.5435 87.9219 55.4927C87.5162 55.4357 86.8527 54.9848 87.0043 54.8607ZM107.199 63.1407C107.094 63.1707 107.052 63.1536 107.128 63.0861C107.192 63.028 107.197 62.8385 107.132 62.6617C107.026 62.3785 107.039 62.3691 107.232 62.508C107.495 62.7015 107.481 63.0461 107.2 63.1298L107.199 63.1407ZM96.2384 58.5385C96.0483 58.2994 96.0372 58.2196 96.2017 58.2426C96.3552 58.2642 96.4321 58.3533 96.4577 58.5693C96.4991 58.8323 96.4662 58.8277 96.2384 58.5385ZM88.9785 55.9317C88.792 55.9055 88.6066 55.6335 88.7207 55.5377C88.8598 55.4231 89.2174 55.6633 89.152 55.8107C89.1303 55.8859 89.0458 55.93 88.98 55.9208L88.9785 55.9317ZM170.243 79.1348C170.243 79.1348 170.353 79.0719 170.525 79.0401C170.697 79.0084 170.883 79.0346 170.942 79.0986C170.998 79.1737 170.87 79.2116 170.658 79.2042C170.448 79.186 170.264 79.1488 170.243 79.1348ZM86.1409 54.6389C86.1153 54.4229 86.1497 54.4165 86.3348 54.5319C86.6234 54.7066 86.7559 55.1166 86.5289 55.1406C86.3129 55.1662 86.1621 54.9661 86.1284 54.6483L86.1409 54.6389ZM124.785 68.9748C124.709 68.8747 124.723 68.7761 124.819 68.7335C125.077 68.6468 125.305 68.8576 125.104 69.0085C125.004 69.0839 124.862 69.0639 124.786 68.9638L124.785 68.9748ZM112.197 64.4126C112.197 64.4126 112.21 64.3249 112.272 64.2777C112.335 64.2306 112.423 64.2429 112.47 64.3054C112.517 64.368 112.486 64.4307 112.395 64.4403C112.304 64.4499 112.216 64.4376 112.186 64.411L112.197 64.4126ZM146.027 75.3668C145.952 75.2668 145.963 75.19 146.055 75.1694C146.146 75.1598 146.227 75.216 146.237 75.3068C146.261 75.5338 146.18 75.5559 146.016 75.3652L146.027 75.3668ZM73.7666 19.402C73.71 19.327 73.7835 19.2814 73.9495 19.2935C74.1061 19.2931 74.2237 19.332 74.2144 19.3978C74.196 19.5294 73.8577 19.549 73.7541 19.4114L73.7666 19.402ZM15.3556 28.2329C15.4432 28.1669 15.6263 28.1367 15.7673 28.1676C16.1371 28.2419 15.9843 28.5335 15.588 28.4891C15.2042 28.4352 15.154 28.3946 15.3556 28.2329ZM63.3608 22.0003C63.3137 21.9378 63.326 21.8501 63.39 21.792C63.4526 21.7449 63.5153 21.776 63.5249 21.8668C63.5345 21.9576 63.5207 22.0563 63.4957 22.0752C63.4706 22.094 63.4079 22.0629 63.3608 22.0003ZM28.4324 27.3177C28.3852 27.2551 28.3975 27.1674 28.4616 27.1093C28.5241 27.0622 28.5868 27.0934 28.5965 27.1842C28.6061 27.275 28.5938 27.3627 28.5672 27.3925C28.5422 27.4114 28.4795 27.3802 28.4324 27.3177ZM13.3518 28.4883C13.3518 28.4883 14.3784 28.1851 14.5805 28.2582C14.6338 28.2769 14.512 28.4275 14.2979 28.5987C13.8712 28.9302 13.2995 28.8611 13.3518 28.4883ZM176.866 80.0644C176.866 80.0644 176.811 79.9001 176.845 79.8155C176.88 79.7309 177.011 79.7493 177.145 79.8351C177.276 79.9319 177.452 79.9565 177.514 79.9094C177.578 79.8513 177.632 79.87 177.624 79.9248C177.602 80.0783 176.973 80.1801 176.868 80.0535L176.866 80.0644ZM81.45 53.0077C81.3368 52.8576 81.2628 52.6683 81.297 52.5837C81.3328 52.4881 81.4661 52.5739 81.6185 52.763C81.7708 52.9521 81.8324 53.1508 81.7714 53.187C81.7089 53.2341 81.5631 53.1577 81.45 53.0077ZM80.3144 52.2557C80.1918 52.0931 80.1539 51.9648 80.2572 51.9457C80.348 51.9361 80.5033 52.025 80.5866 52.1485C80.6824 52.2626 80.7062 52.4113 80.6452 52.4475C80.5827 52.4946 80.4259 52.4167 80.3159 52.2447L80.3144 52.2557ZM70.5785 20.1286C70.5785 20.1286 70.771 20.1109 70.8965 20.1732C71.0721 20.2761 71.069 20.2981 70.8341 20.2986C70.5115 20.2869 70.4394 20.2432 70.5894 20.1301L70.5785 20.1286ZM79.2867 52.089C79.2867 52.089 79.233 51.9138 79.2563 51.8276C79.2905 51.743 79.3798 51.7443 79.4537 51.8553C79.5291 51.9553 79.5356 52.0681 79.4731 52.1152C79.4106 52.1623 79.3213 52.161 79.2757 52.0875L79.2867 52.089ZM75.4899 50.4603C75.4145 50.3603 75.4487 50.2756 75.5786 50.2268C75.696 50.1873 75.8025 50.2247 75.8137 50.3045C75.8362 50.5425 75.6329 50.6369 75.4915 50.4494L75.4899 50.4603ZM60.6422 68.0558C60.3832 67.8294 60.4025 67.3737 60.479 67.3061C60.5416 67.259 60.7643 67.4245 60.9638 67.6761C61.3896 68.2278 61.2118 68.5383 60.6547 68.0464L60.6422 68.0558ZM48.0744 56.821C47.9142 56.6084 47.9219 56.5536 48.1083 56.5798C48.2947 56.6059 48.3434 56.6575 48.3172 56.8439C48.291 57.0303 48.2362 57.0226 48.076 56.81L48.0744 56.821ZM43.9876 53.7539C43.8368 53.5538 43.8429 53.5099 44.0763 53.5203C44.2329 53.5199 44.3833 53.5634 44.4304 53.6259C44.4681 53.676 44.4308 53.7825 44.3417 53.8595C44.2417 53.9349 44.0913 53.8914 43.9876 53.7539ZM32.9829 45.8022C33.0719 45.7252 33.2035 45.7437 33.271 45.8203C33.337 45.9078 33.5536 46.1171 33.7514 46.3014L34.1092 46.62L33.6643 46.524C33.1331 46.4047 32.7453 45.9813 32.9844 45.7912L32.9829 45.8022ZM49.6623 58.0949C49.0711 57.766 48.2487 57.0132 48.4632 56.9986C48.543 56.9874 48.9022 57.2167 49.2427 57.4993C49.5832 57.782 49.933 57.9988 50.0238 57.9891C50.2289 57.962 50.3687 58.1606 50.2296 58.2752C50.1671 58.3223 49.921 58.2431 49.6717 58.1075L49.6623 58.0949ZM42.276 52.4849C42.276 52.4849 42.2883 52.3972 42.3508 52.3501C42.4134 52.3029 42.5011 52.3153 42.5592 52.3793C42.6173 52.4434 42.5751 52.5046 42.4843 52.5142C42.3935 52.5238 42.3058 52.5115 42.276 52.4849ZM42.7306 52.6717C42.8214 52.6621 43.0049 52.7885 43.1259 52.962C43.3333 53.2371 43.3302 53.2591 43.0809 53.1234C42.7077 52.9145 42.5365 52.7004 42.7306 52.6717ZM50.7889 58.9911C50.7115 58.7454 50.7554 58.7515 51.1115 59.0028C51.7844 59.4662 52.4139 60.0801 52.1946 60.0494C51.8327 59.9986 50.8835 59.2727 50.7889 58.9911ZM55.523 62.943C55.523 62.943 55.7581 63.0207 55.9199 63.2223C56.1383 63.4989 56.14 63.5663 55.9582 63.5072C55.6385 63.3952 55.373 63.0561 55.523 62.943ZM28.1004 34.3826C28.1004 34.3826 28.7524 34.5971 28.8041 34.6267C28.8559 34.6563 28.842 34.755 28.7859 34.8366C28.6595 35.0201 28.1279 34.7442 28.1004 34.3826ZM53.8053 61.7179C53.3736 61.2883 53.1366 61.0649 52.8807 60.8166C52.7222 60.6713 52.6326 60.5134 52.6826 60.4757C52.7326 60.438 52.96 60.5705 53.1672 60.7673C53.3838 60.9766 53.6914 61.2546 53.8484 61.4108C54.0069 61.5561 54.0856 61.7125 54.0341 61.7612C53.9715 61.8083 53.8619 61.7929 53.7928 61.7273L53.8053 61.7179ZM5.5056 35.2365C5.6014 35.3505 5.62697 35.5666 5.56311 35.703C5.5102 35.8409 5.53136 36.1681 5.6291 36.4279C5.71431 36.697 5.84954 36.9284 5.91226 36.9596C5.97497 36.9908 6.17908 37.2095 6.36915 37.4486C6.55768 37.6987 6.81029 37.8907 6.96688 37.8903C7.11097 37.8994 7.37605 38.0819 7.55669 38.3086C7.73733 38.5352 7.95549 38.7335 8.05418 38.7474C8.15286 38.7612 8.6719 39.0465 9.20825 39.3678C9.74459 39.6891 10.3138 40.015 10.4847 40.0725C10.6555 40.13 11.0068 40.3359 11.2734 40.5075C11.5385 40.6901 12.0637 40.9315 12.4477 41.0637C12.8332 41.1849 13.6704 41.5931 14.3228 41.9642C14.9642 42.3338 16.0053 42.8825 16.6325 43.1941C17.2612 43.4948 17.8587 43.8582 17.9624 43.9958C18.0661 44.1333 18.5853 44.4969 19.1137 44.7947C20.6537 45.693 25.7429 49.4263 26.4693 49.9867C27.2066 50.5487 27.9315 51.12 28.0822 51.2418C28.2312 51.3746 28.4759 51.5431 28.6202 51.6304C28.7645 51.7178 29.2649 52.0564 29.7214 52.3888C30.1889 52.7228 30.9403 53.2643 31.4078 53.5983C31.8643 53.9307 32.5578 54.4865 32.9345 54.8301C33.8071 55.6235 36.2024 57.2791 37.6004 58.3922C38.2656 58.9105 39.891 60.1562 41.2166 61.1473C42.5423 62.1385 44.2116 63.3903 44.9191 63.9257C45.6267 64.4611 46.4299 65.0323 46.6996 65.1819C46.9803 65.3332 47.3113 65.6033 47.4433 65.7783C47.69 66.0925 48.7555 67.0248 50.0468 68.0223C51.2141 68.9465 51.641 69.3306 54.1761 71.8222C58.0958 75.6821 61.9379 79.218 63.849 80.7386C64.0702 80.915 64.5598 81.3304 64.9474 81.6755C65.7227 82.3658 66.4609 82.6036 66.5522 82.1915C66.5878 82.0176 66.6598 81.9829 66.8041 82.0703C66.9076 82.1295 67.2063 81.9926 67.5224 81.8916C68.6678 81.538 68.5397 81.0168 68.6398 80.9414C68.7273 80.8754 68.7596 80.6452 68.7106 80.437C68.6615 80.2289 68.6798 80.019 68.7564 79.9515C68.8314 79.8949 68.8999 79.7256 68.8995 79.569C68.9101 79.4139 69.0051 79.2148 69.1192 79.119C69.2333 79.0232 69.286 78.807 69.226 78.5973C69.1644 78.3986 69.2108 78.1479 69.342 78.0098C69.4982 77.8528 69.9878 76.3561 69.8181 76.131C69.7412 76.042 69.7748 75.7224 69.8947 75.4261C70.0332 75.0766 70.1175 73.6795 69.9855 73.5045C69.8709 73.3654 69.7314 73.3235 69.6189 73.4083C69.4798 73.5229 69.3395 73.1678 69.0379 73.405C68.9488 73.482 68.8532 73.4462 68.8138 73.3288C68.7285 73.0597 67.0683 71.6638 66.8036 71.6378C66.6611 71.6178 66.779 71.8133 67.2499 72.2819C68.3347 73.3958 68.3803 73.4693 68.2053 73.6012C68.1162 73.6782 67.8921 73.602 67.6818 73.4271C67.4825 73.2538 67.2253 73.0947 67.1062 73.0668C66.8352 73.0064 66.3817 72.652 65.622 71.9304C64.5061 70.8792 62.4188 69.0208 61.595 68.3573C61.4146 68.209 61.2437 68.1515 61.2001 68.2236C61.1002 68.3773 61.4303 68.8933 61.7235 69.0351C62.1217 69.2251 62.5894 69.6374 62.4878 69.7238C62.3988 69.8007 61.7054 69.3232 61.589 69.1168C61.5638 69.0574 61.4965 69.0591 61.4465 69.0968C61.3965 69.1345 61.1864 69.0379 60.9981 68.8661C60.7972 68.7038 60.5383 68.4773 60.4175 68.3821C59.3521 67.5281 59.2359 67.4 59.2474 66.9991C59.2524 66.4854 59.5297 66.502 59.6234 67.0295C59.6853 67.3848 59.7355 67.4254 60.0268 67.4216C60.4871 67.4079 60.5067 67.1088 60.041 66.8421C59.6693 66.6222 58.4656 65.5588 57.8423 64.901C57.6586 64.6963 57.2929 64.3543 57.0465 64.1184C56.6305 63.7358 56.5757 63.7281 56.3712 63.9901C56.1246 64.3133 55.8285 64.2717 55.5159 63.87C55.4013 63.7309 55.2664 63.6561 55.2039 63.7032C55.1414 63.7504 54.939 63.599 54.7583 63.3723C54.5777 63.1457 54.2135 62.7927 53.9609 62.6007C53.4354 62.2027 53.3757 62.1496 52.843 61.4039C52.3654 60.7442 50.8854 59.4183 50.5595 59.3502C50.3652 59.3006 50.3275 59.2506 50.4274 59.0969C50.5288 58.9322 50.4393 58.8525 49.8608 58.5924C49.4815 58.4274 49.1192 58.22 49.0532 58.1325C48.9872 58.0449 48.8791 58.0186 48.8276 58.0672C48.765 58.1144 48.6585 58.077 48.5815 57.988C48.5061 57.8879 48.3447 57.8429 48.2273 57.8824C48.11 57.9218 47.9784 57.9033 47.9313 57.8408C47.8841 57.7783 47.9247 57.7281 48.0155 57.7185C48.1752 57.6961 48.1327 57.6007 47.732 57.0301C47.6377 56.9051 47.6468 56.761 47.7312 56.7169C48.008 56.5769 47.7895 56.2219 47.1668 55.7991C46.0014 55.0205 45.3236 54.5117 45.1524 54.2975C44.9152 53.9959 44.588 54.0171 44.238 54.3593C43.9662 54.623 43.9333 54.6184 43.7915 54.2743C43.5301 53.6673 43.3275 53.4376 43.1399 53.579C42.9634 53.7219 42.3547 53.2787 41.7218 52.5301C41.4517 52.2239 41.276 52.1209 41.0773 52.1825C40.8551 52.2519 40.7437 52.1692 40.5094 51.7673C40.2924 51.4014 40.1527 51.2812 39.9696 51.3114C39.8099 51.3337 39.686 51.2604 39.6323 51.0852C39.555 50.8395 39.5785 50.8316 39.928 50.9701C40.4563 51.1896 41.0977 51.5592 41.1481 51.6781C41.1733 51.7375 41.2406 51.7358 41.3157 51.6792C41.3907 51.6227 41.3372 51.5257 41.2148 51.4415C41.091 51.3682 40.7678 51.1215 40.4994 50.8826C40.231 50.6437 39.9096 50.4643 39.7765 50.4568C39.6418 50.4603 39.3861 50.2902 39.2149 50.0761C38.8694 49.6698 37.9816 49.0644 37.869 49.1492C37.744 49.2435 38.884 50.5217 39.1268 50.5446C39.4009 50.583 39.5485 50.7268 39.4109 50.8304C39.2984 50.9153 39.0192 50.7531 37.7251 49.8558C37.2357 49.5188 36.7261 49.246 36.582 49.2369C36.2375 49.2221 36.0678 48.997 36.2269 48.7398C36.4187 48.4089 36.6803 48.4569 36.653 48.8108C36.6365 49.088 36.6742 49.1381 36.9641 49.2235C37.2555 49.2979 37.279 49.29 37.1455 49.1259C37.0591 49.0244 37.0807 48.8709 37.1807 48.7954C37.3073 48.6902 37.2946 48.6213 37.1299 48.52C36.9951 48.4451 36.7911 48.3047 36.6594 48.2079C36.5276 48.1111 36.3239 48.049 36.1986 48.065C35.9482 48.0969 35.675 47.8126 35.8391 47.6791C35.9641 47.5848 35.7063 47.1908 35.4965 47.1725C35.4197 47.1617 35.3385 47.2622 35.3091 47.3922C35.2379 47.74 34.9059 47.7158 34.7452 47.3466C34.635 47.0963 34.5613 47.0636 34.3862 47.1956C34.2722 47.2914 34.1 47.3231 34.0075 47.2654C33.904 47.2062 33.8978 47.25 33.9826 47.3626C34.0565 47.4736 34.1023 47.6254 34.068 47.71C34.0338 47.7947 33.8157 47.5963 33.525 47.1977C32.9421 46.4114 32.2437 45.8103 31.8709 45.7579C31.6406 45.7256 31.6139 45.6771 31.6993 45.3872C31.7599 45.1944 31.7468 44.969 31.6809 44.8814C31.6149 44.7939 31.6083 44.6812 31.6708 44.634C31.8584 44.4926 31.4158 44.0615 30.9629 43.9421C30.4333 43.8118 30.329 44.0767 30.717 44.5784C30.9919 44.9301 30.9521 45.2935 30.668 45.0076C30.5989 44.942 30.4906 44.8374 30.4419 44.7858C30.3823 44.7327 30.1847 44.6267 30.006 44.5457C29.8273 44.4647 29.4899 44.1602 29.2527 43.8585C28.9966 43.5319 28.5949 43.2071 28.2594 43.0482C27.9443 42.9034 27.6619 42.6848 27.624 42.5565C27.5782 42.4047 27.7427 42.4278 28.1363 42.6508C28.4593 42.8191 28.7821 42.9092 28.8712 42.8322C29.0838 42.672 29.5763 42.9871 30.1243 43.6231L30.3348 43.8763L30.4448 43.4109C30.5564 42.9346 30.7644 42.8072 30.9623 43.0698C31.0283 43.1573 31.1803 43.1899 31.2977 43.1504C31.415 43.111 31.7253 43.2104 31.9856 43.3476C32.2443 43.4958 32.5139 43.5671 32.5764 43.52C32.6389 43.4729 33.0306 43.5502 33.4459 43.698C34.2547 43.9904 34.7812 44.1426 35.3484 44.2445C36.058 44.3665 38.042 44.9692 38.1473 45.0958C38.2038 45.1709 38.406 45.244 38.5924 45.2701C38.7898 45.2978 39.2756 45.4219 39.6705 45.5556C40.0655 45.6893 40.4446 45.7761 40.5135 45.7634C40.5824 45.7507 40.9539 45.8923 41.363 46.0839C42.4417 46.6043 42.9825 46.8144 43.2095 46.7904C43.3222 46.7838 43.6246 46.8598 43.8661 46.972C44.1075 47.0841 45.0228 47.4139 45.8864 47.714C46.7515 48.0031 47.4835 48.2848 47.5228 48.3238C47.551 48.3614 47.8598 48.4718 48.2155 48.5664C48.5603 48.6596 49.0807 48.8556 49.3629 48.9958C49.9054 49.2733 50.3171 49.208 49.8779 48.9116C49.7351 48.8133 49.6832 48.7054 49.7472 48.6473C49.8098 48.6001 50.0231 48.7531 50.2022 48.9907C50.4488 49.3048 50.8628 49.5418 51.6779 49.8687C52.3034 50.113 53.1937 50.4616 53.6702 50.6515C54.2204 50.8741 54.5697 50.9343 54.6415 50.8214C54.7133 50.7085 54.8198 50.7458 54.9816 50.9474C55.2094 51.2365 56.042 51.6777 56.2736 51.6207C56.3315 51.6065 56.4272 51.6423 56.4743 51.7048C56.5214 51.7673 57.0324 51.9509 57.5997 52.1311C58.167 52.3114 58.772 52.5417 58.9352 52.654C59.3116 52.9193 60.5967 53.3233 60.7218 53.2291C60.7734 53.1804 61.079 53.3128 61.4099 53.5046C61.7298 53.6948 62.0355 53.8272 62.0855 53.7895C62.1356 53.7518 62.377 53.8639 62.6436 54.0355C63.1659 54.3772 64.2852 54.8474 65.3054 55.1471C65.6815 55.2558 66.0404 55.4068 66.1284 55.4975C66.2053 55.5865 66.4546 55.7222 66.6882 55.8108C66.9233 55.8886 67.5064 56.1158 68.0033 56.3197C68.5017 56.5127 69.1412 56.7366 69.4326 56.811C69.7241 56.8855 70.0078 57.0148 70.0659 57.0789C70.1225 57.1539 70.2212 57.1677 70.2852 57.1096C70.3478 57.0625 70.5028 57.0731 70.6362 57.1589C71.2995 57.5315 72.6457 57.9777 72.7833 57.874C72.8708 57.808 73.0024 57.8265 73.0778 57.9265C73.1532 58.0265 73.3287 58.0512 73.4726 57.9819C73.7103 57.8811 74.1853 58.082 75.0808 58.6326C75.2769 58.7495 75.5056 58.7928 75.5931 58.7268C75.7072 58.631 76.0381 58.8228 76.6595 59.3349C77.16 59.7518 78.7622 59.809 78.9994 60.1106C79.18 60.3373 79.2239 60.3434 79.2781 60.1162C79.3324 59.889 79.3668 59.8827 79.5176 60.0827C79.6229 60.2093 79.7577 60.2842 79.8218 60.2261C79.8858 60.168 79.9784 60.2257 80.0069 60.3415C80.0448 60.4698 80.2673 60.557 80.5476 60.5516C80.9281 60.5491 81.0834 60.638 81.305 60.971C81.5266 61.304 81.6411 61.3648 81.8679 61.2624C82.0228 61.1947 82.1778 61.2053 82.2094 61.2992C82.2975 61.4681 83.1907 61.7165 83.3298 61.6018C83.3798 61.5641 84.6572 62.0229 85.0006 62.2053C85.3126 62.3721 85.935 62.6384 86.3832 62.7907C86.8314 62.9431 87.2422 63.1238 87.2893 63.1863C87.3364 63.2488 87.7204 63.381 88.134 63.4614C88.5461 63.5528 88.9222 63.6615 88.9709 63.713C89.0086 63.763 89.1575 63.8175 89.3 63.8375C89.4426 63.8575 89.7921 63.996 90.0743 64.1363C90.3566 64.2765 90.7061 64.415 90.8487 64.435C91.3969 64.512 92.3263 64.8214 92.966 65.1236C93.3438 65.2996 93.8015 65.4645 93.991 65.4687C94.1789 65.4839 94.4109 65.5836 94.4863 65.6836C94.5727 65.7852 94.7609 65.8787 94.9049 65.8877C95.049 65.8968 95.2951 65.976 95.4378 66.0744C95.5806 66.1727 95.8659 66.291 96.0727 66.3312C96.281 66.3604 96.7497 66.5268 97.1071 66.6888C97.4645 66.8508 97.941 67.0407 98.1636 67.1278C98.3768 67.2025 99.0445 67.4639 99.659 67.7067C100.262 67.948 100.885 68.1359 101.04 68.1465C101.195 68.1571 101.643 68.3095 102.041 68.4995C102.439 68.6896 103.408 69.038 104.178 69.2914C104.949 69.5338 105.61 69.7608 105.627 69.7968C105.674 69.8593 109.898 71.3915 111.234 71.8361C113.188 72.4906 116.447 73.6524 117.845 74.2064C118.364 74.4134 118.889 74.5766 119.003 74.5591C119.117 74.5416 119.692 74.7453 120.269 75.0164C120.846 75.2874 121.412 75.4787 121.528 75.4502C121.644 75.4217 121.764 75.4387 121.813 75.4902C121.86 75.5527 122.246 75.6739 122.669 75.7669C123.092 75.8598 123.465 75.9904 123.513 76.042C123.561 76.1045 123.808 76.1728 124.052 76.1847C124.305 76.2201 124.709 76.3663 124.963 76.5474C125.217 76.7284 125.694 76.9183 126.032 76.977C126.371 77.0356 126.822 77.1661 127.032 77.2627C127.755 77.6101 128.628 77.8444 128.765 77.7407C128.84 77.6842 129.105 77.7884 129.348 77.9679C129.591 78.1474 130.015 78.3187 130.279 78.3446C130.544 78.3706 131.03 78.4947 131.346 78.6286C131.674 78.764 131.989 78.8306 132.064 78.774C132.203 78.6594 133.191 79.1111 133.21 79.2927C133.212 79.36 133.422 79.4566 133.647 79.5218C133.886 79.5776 134.031 79.5757 133.967 79.4772C133.899 79.4006 133.932 79.327 134.023 79.3173C134.114 79.3077 134.288 79.4216 134.401 79.5717C134.563 79.7733 134.671 79.7996 134.847 79.6567C135.036 79.5043 135.112 79.5261 135.253 79.7919C135.367 80.0203 135.511 80.1076 135.717 80.0696C135.879 80.0363 136.029 80.0798 136.029 80.1581C136.06 80.4195 136.455 80.5532 136.669 80.382C136.883 80.2108 138.183 80.5051 138.392 80.7693C138.458 80.8568 138.593 80.8533 138.693 80.7779C138.793 80.7025 138.981 80.7177 139.102 80.8129C139.364 81.0174 139.542 80.9418 139.458 80.6617C139.43 80.5459 139.464 80.5396 139.56 80.6537C139.763 80.8834 140.984 81.4238 141.499 81.4961C141.73 81.5284 141.962 81.6281 142.029 81.7046C142.097 81.7812 142.282 81.8183 142.465 81.7881C142.637 81.7564 143.083 81.8414 143.434 81.969C143.797 82.0981 144.314 82.2378 144.588 82.2762C144.862 82.3147 145.315 82.4342 145.591 82.54C145.867 82.6458 146.139 82.6952 146.202 82.6481C146.252 82.6104 146.413 82.6554 146.556 82.7537C146.699 82.852 147.15 82.9825 147.546 83.0269C148.676 83.1855 149.957 83.4548 150.26 83.6091C150.417 83.687 150.569 83.7195 150.619 83.6818C150.669 83.6441 151.073 83.712 151.526 83.8315C152.496 84.0906 153.998 84.3798 155.225 84.5631C155.718 84.6324 156.566 84.8073 157.127 84.9531C157.689 85.088 158.658 85.2798 159.283 85.3675C159.908 85.4553 161.881 85.7323 163.678 85.9957C168.303 86.6671 168.478 86.6918 173.351 87.1857C177.497 87.5999 179.444 87.7502 182.061 87.8268C182.662 87.8441 183.306 87.8785 183.47 87.9016C183.635 87.9247 184.337 87.9449 185.03 87.9416C185.713 87.9368 186.471 87.9538 186.692 87.9736C187.212 88.013 188.17 88.0358 188.878 88.0121C189.182 87.9988 189.539 88.0042 189.694 88.0148C190.425 88.0616 193.245 87.9654 193.344 87.901C193.406 87.8538 193.565 87.8425 193.706 87.8735C193.934 87.9167 194.33 87.8829 196.096 87.6499C196.267 87.6292 196.549 87.6128 196.726 87.6265C197.349 87.6469 201.011 87.1321 201.175 86.9986C201.275 86.9232 201.47 86.8836 201.621 86.927C201.991 87.0013 206.752 85.9812 207.503 85.6505C207.823 85.5166 208.28 85.3683 208.51 85.3223C208.751 85.2779 209.357 85.0274 209.874 84.7646C210.392 84.5018 211.232 84.0942 211.736 83.8518C214.528 82.5217 218.26 79.4339 219.997 77.0165C220.26 76.651 220.633 76.1443 220.836 75.8932C221.259 75.3488 221.891 74.3528 221.969 74.1178C221.992 74.0316 222.305 73.3152 222.662 72.5266C223.731 70.3285 224.134 68.7302 224.621 64.7844C224.957 62.0697 225.014 59.5954 224.748 58.4622C224.721 58.3355 224.54 56.2751 224.123 54.5504C223.425 51.713 222.237 48.4712 221.273 46.4911C219.799 43.4551 219.549 43.0063 218.602 41.4646C218.275 40.9267 217.863 40.198 217.677 39.8476C217.504 39.4879 217.124 38.853 216.836 38.4325C216.549 38.012 216.075 37.2411 215.78 36.7188C215.484 36.1965 215.082 35.6368 214.893 35.465C214.705 35.2933 214.446 34.9102 214.32 34.613C214.194 34.3158 213.53 33.3058 212.853 32.3945C210.853 29.6761 210.099 28.5975 210.087 28.4393C210.078 28.3485 209.91 28.1908 209.711 28.0957C209.367 27.9134 209.195 27.9451 208.994 28.1852C208.941 28.2448 208.834 28.3641 208.755 28.4536C208.233 28.9841 207.883 29.8071 208.125 30.2325C208.233 30.4154 208.204 30.5455 208.009 30.6634C207.91 30.7278 207.835 31.5001 207.882 31.965C207.941 32.4989 208.134 32.7161 208.162 32.7536C208.23 32.8302 208.219 32.9852 208.16 33.0887C208.101 33.1922 208.185 33.6289 208.36 34.056C208.535 34.4831 208.679 35.0512 208.696 35.322C208.716 35.6602 208.927 36.1483 209.347 36.8222C209.694 37.3742 210.223 38.3093 210.531 38.9005C210.841 39.4807 211.522 40.605 212.037 41.393C212.553 42.1809 213.099 43.0738 213.235 43.3725C213.372 43.6713 213.652 44.1467 213.861 44.4108C214.07 44.675 214.503 45.496 214.837 46.225C215.169 46.9648 215.537 47.6874 215.65 47.8375C215.774 47.9891 216.042 48.5522 216.259 49.0747C216.466 49.5956 216.738 50.2041 216.854 50.4105C216.971 50.617 217.284 51.1753 217.553 51.6491C217.822 52.1229 218.089 52.7643 218.159 53.0648C218.229 53.3653 218.32 53.6689 218.366 53.7424C218.523 53.9769 218.805 54.6762 218.913 55.105C218.979 55.3491 219.178 55.9249 219.371 56.377C220.416 58.8941 220.934 63.2493 220.551 66.2147C220.061 70.0259 219.188 71.4687 215.835 74.0842C214.402 75.2137 213.587 75.759 212.771 76.1588C212.159 76.4531 211.555 76.7709 211.421 76.8527C211.287 76.9344 210.978 77.0589 210.734 77.1253C210.49 77.1916 209.844 77.414 209.303 77.6064C208.75 77.7972 208.096 77.9961 207.855 78.0406C207.349 78.1373 207.172 78.3695 207.562 78.4578C207.931 78.5321 207.752 78.6187 206.781 78.8403C205.72 79.0715 205.731 79.073 205.823 78.8176C205.877 78.6687 205.744 78.6612 205.355 78.8078C205.06 78.9118 204.622 79.0069 204.387 79.0074C203.974 79.0053 203.96 79.0257 203.964 79.317C203.967 79.6082 203.955 79.6177 203.793 79.416C203.592 79.1754 202.997 79.0359 202.795 79.1977C202.72 79.2542 202.152 79.3198 201.533 79.3448C200.725 79.3656 200.298 79.4622 200.012 79.668C199.501 80.0435 199.133 80.1149 199.245 79.7952C199.301 79.6353 199.282 79.6103 199.182 79.6857C199.107 79.7423 198.781 79.7525 198.463 79.7078C198.145 79.6632 197.795 79.6922 197.695 79.7676C197.595 79.843 197.479 79.8715 197.432 79.809C197.394 79.759 197.056 79.7786 196.697 79.8625C196.339 79.9463 195.808 79.9837 195.546 79.9358C195.272 79.8973 194.696 79.9394 194.27 80.025C193.845 80.1106 193.251 80.1168 192.949 80.0408C192.54 79.9274 192.415 79.9434 192.435 80.114C192.456 80.2847 192.409 80.3005 192.213 80.1835C191.741 79.8824 191.55 79.8892 191.438 80.2089C191.312 80.549 191.029 80.5763 191.065 80.2349C191.09 80.0594 191.019 80.0048 190.794 80.0178C190.558 80.0294 190.47 80.0954 190.372 80.3947C190.279 80.6612 190.213 80.7302 190.138 80.6302C190.072 80.5426 189.953 80.593 189.817 80.7641C189.655 80.9649 189.493 80.9982 189.149 80.9051C188.89 80.8352 188.583 80.7138 188.459 80.6405C188.326 80.5547 188.119 80.5928 187.932 80.7342C187.767 80.8677 187.444 80.9453 187.212 80.9239C186.981 80.8916 186.466 80.8975 186.061 80.9189C185.541 80.9577 185.271 80.8864 185.119 80.6973C184.854 80.3581 183.837 80.4279 183.583 80.8059C183.441 81.0208 183.377 81.0006 183.149 80.7115C182.95 80.4598 182.834 80.41 182.683 80.5231C182.571 80.608 182.245 80.6182 181.954 80.5437C181.543 80.4414 181.416 80.4683 181.426 80.6374C181.439 80.7846 181.378 80.7424 181.266 80.5031C181.093 80.1434 180.421 80.0714 179.98 80.1101C179.867 80.1166 179.411 80.0974 178.971 80.0468C178.52 79.9946 178.117 79.994 178.067 80.0317C177.942 80.126 178.448 80.51 178.684 80.4985C178.808 80.4935 178.837 80.52 178.751 80.575C178.687 80.6331 178.374 80.6339 178.045 80.5877C177.694 80.5385 174.884 80.0881 175.015 80.1065C174.093 79.9882 173.295 79.8539 173.259 79.793C173.211 79.7414 173.035 79.7951 172.841 79.902C172.56 80.075 172.472 80.0627 172.287 79.7906C172.13 79.5561 172.014 79.5063 171.875 79.6209C171.673 79.7827 170.033 79.5973 169.486 79.3527C169.318 79.2733 169.107 79.266 169.018 79.3429C168.803 79.5141 167.86 79.2252 167.988 79.0307C168.174 78.7437 167.715 78.7463 167.496 79.0288C167.32 79.25 167.216 79.269 166.937 79.1069C166.752 78.9914 166.522 78.9591 166.433 79.0361C166.344 79.113 166.231 79.1195 166.182 79.068C166.135 79.0055 165.88 78.992 165.619 79.0224C165.232 79.0687 165.063 79.0003 164.742 78.6534C164.394 78.269 164.319 78.2473 164.067 78.4468C163.879 78.5882 163.494 78.6236 162.913 78.542C161.641 78.3634 161.512 78.323 161.155 78.1611C160.976 78.0801 160.766 78.0618 160.679 78.1278C160.602 78.1953 160.361 78.1614 160.14 78.0633C159.624 77.8344 158.932 77.7484 158.578 77.8777C158.425 77.9344 158.22 77.8832 158.135 77.7707C157.935 77.5191 157.632 77.5323 157.358 77.807C157.19 77.9734 157.103 77.9502 156.836 77.622C156.417 77.1047 156.215 77.1099 156.212 77.6125C156.205 78.2154 156.096 78.2001 155.746 77.5808C155.495 77.1429 155.375 77.0367 155.213 77.081C155.095 77.1204 154.489 76.9794 153.856 76.7899C153.224 76.5894 152.659 76.4765 152.571 76.5425C152.421 76.6556 150.746 76.3199 150.375 76.1C150.271 76.0407 149.972 75.9428 149.709 75.9059C149.445 75.8689 148.934 75.6854 148.577 75.5234C148.22 75.3614 147.817 75.2825 147.684 75.3533C147.359 75.5201 146.712 75.351 146.626 75.0819C146.581 74.9301 146.541 74.9693 146.514 75.245C146.485 75.4534 146.564 75.7664 146.675 75.9274C146.861 76.1994 146.865 76.3304 146.687 76.3204C146.554 76.3129 146.314 76.1115 146.146 75.8754C145.979 75.6284 145.579 75.2927 145.245 75.1228C144.922 74.9545 144.642 74.8033 144.613 74.7658C144.423 74.5267 142.784 74.6544 142.42 74.9387C142.293 75.0439 142.144 75.0678 142.086 75.0037C142.03 74.9287 142.113 74.8173 142.327 74.7244C142.554 74.6221 142.647 74.5122 142.602 74.3604C142.502 74.0334 142.198 73.9683 142.146 74.2629C142.085 74.5339 141.777 74.5018 141.751 74.2075C141.741 74.1167 141.625 74.0668 141.508 74.1063C141.38 74.1442 141.237 74.1242 141.18 74.0491C141.03 73.8491 139.761 73.2461 139.661 73.3215C139.611 73.3593 139.64 73.4751 139.725 73.5876C139.849 73.7392 139.767 73.7613 139.352 73.6919C139.069 73.6409 138.772 73.521 138.706 73.4335C138.64 73.346 138.457 73.2979 138.296 73.3311C138.135 73.3644 137.776 73.2134 137.492 73.0058C136.729 72.4627 136.298 72.3463 135.983 72.6039C135.819 72.7374 135.613 72.7646 135.48 72.6788C134.887 72.2825 133.984 71.9433 133.783 72.0268C133.653 72.0756 133.507 72.0776 133.46 72.015C133.413 71.9525 133.353 71.9777 133.319 72.0624C133.285 72.147 133.348 72.2565 133.451 72.3157C133.555 72.375 133.652 72.5564 133.676 72.7051C133.711 72.9336 133.617 72.8869 133.215 72.4839C132.941 72.2105 132.476 71.7763 132.186 71.5343C131.897 71.2813 131.572 70.9673 131.457 70.8282C131.354 70.6907 131.118 70.5347 130.946 70.4881C130.666 70.4152 130.7 70.4871 131.25 71.1122C131.597 71.5075 131.856 71.8905 131.822 71.9752C131.732 72.2197 131.274 71.8982 130.824 71.2761C130.46 70.7665 130.347 70.6947 130.123 70.7751C129.97 70.8319 129.845 70.9261 129.835 70.9919C129.826 71.0577 129.632 71.0081 129.393 70.874C129.124 70.7243 128.967 70.5681 128.984 70.4475C129.025 70.1514 128.075 69.7497 127.886 69.9804C127.724 70.1812 127.161 69.8115 127.047 69.4265C127.008 69.3092 126.907 69.228 126.804 69.247C126.702 69.2551 126.653 69.3711 126.69 69.4994C126.791 69.8155 126.633 69.9051 126.328 69.6945C126.185 69.5962 125.765 69.4813 125.38 69.4384C124.996 69.3846 124.654 69.2695 124.615 69.1522C124.585 69.0473 124.459 68.985 124.343 69.0134C124.226 69.0529 124.096 69.0234 124.038 68.9594C123.98 68.8953 124.011 68.8326 124.113 68.8245C124.204 68.8149 124.169 68.6647 124.018 68.4646C123.877 68.277 123.662 68.135 123.536 68.151C123.422 68.1685 123.131 68.0941 122.885 68.0148C122.436 67.8624 122.036 68.0075 122.223 68.2685C122.279 68.3436 122.179 68.3407 122.011 68.2612C121.834 68.1693 121.66 68.1337 121.623 68.1619C121.585 68.1902 121.411 67.998 121.237 67.7276C120.961 67.2976 120.899 67.2664 120.728 67.4438C120.491 67.7012 120.416 67.6795 120.261 67.2664C120.187 67.0771 120.052 66.924 119.919 66.9165C119.766 66.8949 119.747 66.9482 119.89 67.1248C119.995 67.2514 120.04 67.4925 120.005 67.6554C119.947 67.9155 119.934 67.9249 119.863 67.7137C119.808 67.5494 119.629 67.4684 119.314 67.4801C118.843 67.4923 118.845 67.4813 118.935 67.1585C119.008 66.878 118.975 66.7951 118.703 66.6564C118.526 66.5644 118.214 66.3976 118.018 66.2806C117.667 66.0748 117.335 66.1288 117.516 66.3555C117.563 66.418 117.563 66.4963 117.511 66.545C117.461 66.5827 117.323 66.4515 117.216 66.2576C117.037 65.9417 116.358 65.6004 115.796 65.5438C115.741 65.5361 115.52 65.438 115.322 65.332C115.114 65.2245 114.872 65.1906 114.785 65.2566C114.697 65.3226 114.491 65.2824 114.331 65.1481C114.109 64.9717 113.997 64.9782 113.884 65.1413C113.688 65.4268 113.221 65.3277 112.905 64.948C112.734 64.7339 112.626 64.7075 112.507 64.8362C112.374 64.9853 112.23 64.898 111.721 64.3793L111.095 63.7435L111.071 64.2321C111.056 64.655 111.003 64.7146 110.786 64.6729C110.645 64.6419 110.505 64.6782 110.473 64.7519C110.44 64.8256 110.297 64.7273 110.156 64.5397C109.995 64.3271 109.798 64.2211 109.657 64.2685C109.482 64.3221 109.372 64.2284 109.205 63.9031C108.88 63.276 108.577 63.1217 107.91 63.2517C107.14 63.4008 106.704 63.3173 106.801 63.0289C106.852 62.902 106.783 62.7581 106.588 62.6301C106.425 62.5178 106.146 62.2773 105.972 62.0851C105.545 61.6226 105.432 61.6292 105.236 62.1496L105.063 62.5838L104.843 62.0832C104.646 61.653 104.497 61.5203 103.694 61.1057C102.714 60.5992 102.443 60.5387 102.477 60.8566C102.493 60.9818 102.525 60.9864 102.578 60.8485C102.631 60.7105 102.666 60.7042 102.68 60.8404C102.693 60.9876 102.641 61.0362 102.463 61.0335C102.33 61.026 102.17 61.1267 102.099 61.2396C102.011 61.3839 101.931 61.395 101.836 61.2809C101.655 61.0543 100.823 60.9264 100.402 61.0574C100.133 61.1426 99.9872 61.0662 99.6167 60.6788C99.3357 60.371 99.2083 60.163 99.2849 60.0955C99.3489 60.0374 99.4117 60.0685 99.4213 60.1593C99.4324 60.2392 99.5125 60.3063 99.6033 60.2967C99.705 60.2886 99.595 60.1166 99.2826 59.7932C98.7614 59.284 98.5529 59.1765 98.657 59.4706C98.7516 59.7523 98.5388 59.8342 98.1641 59.6363C97.976 59.5428 97.7457 59.5104 97.6706 59.567C97.5831 59.633 97.3326 59.6649 97.1133 59.6341C96.883 59.6018 96.6389 59.6682 96.5656 59.7921C96.4829 59.9034 96.3219 60.015 96.1982 60.02C95.8694 60.0522 95.8654 59.6826 96.1955 59.5612C96.4442 59.4619 96.4269 59.426 95.879 58.8683C95.5557 58.5433 95.2071 58.1589 95.1034 58.0214C94.896 57.7463 94.7708 57.7623 94.7277 58.0693C94.7107 58.1899 94.5668 58.2592 94.3539 58.2628C94.1174 58.2744 94.0249 58.2166 94.0638 58.0991C94.1757 57.7794 93.882 57.4027 93.3066 57.1207L92.7296 56.8496L92.9374 57.2813C93.1986 57.8099 93.1909 57.8648 92.8856 57.889C92.6931 57.9067 92.6146 57.8286 92.5072 57.4781C92.4299 57.2324 92.3183 57.0714 92.2668 57.1201C92.2042 57.1672 92.0992 57.1189 92.0223 57.0298C91.8997 56.8673 91.8857 56.8877 91.8456 57.1728C91.7995 57.5017 91.5101 57.6512 91.4734 57.3553C91.4638 57.2645 91.3245 56.6635 91.0708 56.6391C90.817 56.6147 90.3109 56.4765 89.9519 56.3255C89.1603 55.9908 88.8907 56.5568 88.9921 57.0294L89.0666 57.3753L88.8655 57.1347C88.7493 57.0065 88.5956 56.9067 88.5173 56.9069C88.4375 56.918 88.2051 56.6618 88.0148 56.3444C87.6768 55.8049 87.6564 55.7909 87.6541 56.126C87.6484 56.3265 87.7524 56.6206 87.8655 56.7707C88.1672 57.1708 88.1932 57.5435 87.9046 57.3688C87.7807 57.2955 87.6755 57.1689 87.6659 57.0781C87.6228 56.7478 86.5141 55.4852 86.072 55.2889C85.8196 55.1753 85.5701 54.9613 85.5149 54.797C85.4597 54.6327 85.2021 54.317 84.9462 54.0687C84.5821 53.7157 84.4755 53.6783 84.4274 53.8617C84.367 54.1327 84.0174 53.9942 83.9195 53.6562C83.8785 53.5498 83.7797 53.4577 83.6998 53.4688C83.609 53.4784 83.6188 53.6475 83.7023 53.8494L83.8645 54.2076L83.4336 54.0912C83.1954 54.0354 82.8426 53.8405 82.6433 53.6672C82.2745 53.347 81.8938 53.2712 82.1215 53.5604C82.2362 53.6995 82.0588 54.8039 81.9072 54.928C81.8822 54.9469 81.7204 54.7452 81.5554 54.4873C81.2253 53.9713 81.278 53.7551 81.6748 54.0344C81.8066 54.1312 81.9696 54.1652 82.0196 54.1275C82.0696 54.0898 81.9659 53.9523 81.7839 53.8149C81.1737 53.3826 80.4415 53.0227 80.329 53.1075C80.2774 53.1562 79.9452 53.0536 79.5908 52.8697C79.2349 52.6968 78.9137 52.5958 78.8527 52.6319C78.6886 52.7654 78.3729 52.3857 78.336 52.0115C78.3038 51.6827 78.2646 51.6437 78.0643 51.7162C77.925 51.7526 77.7259 51.6575 77.5845 51.47C77.1777 50.9432 77.0043 51.1425 77.3441 51.7493C77.5233 52.0652 77.6353 52.3828 77.612 52.469C77.5389 52.6712 76.3291 51.0142 76.3283 50.701C76.3181 50.3753 76.0927 50.3884 76.012 50.7237C75.9905 50.8772 76.0459 51.1198 76.1606 51.2589C76.2737 51.409 76.3194 51.5607 76.2569 51.6079C76.0928 51.7414 75.5859 51.2901 75.2352 50.6817C74.883 50.0844 74.7952 50.0721 74.7089 50.6079C74.6487 50.9572 74.6377 50.9557 74.2729 50.3678C74.0277 49.9644 73.7624 49.7035 73.5194 49.6023C73.1604 49.4513 73.1495 49.4497 73.3286 49.6873C73.47 49.8749 73.4467 49.9611 73.2449 50.0446C72.9476 50.1706 72.7939 50.0707 72.8857 49.8153C72.92 49.7306 72.7972 49.4897 72.6229 49.2976C72.3528 48.9913 72.2557 48.9665 72.0416 49.1377C71.7274 49.3843 71.1645 49.0929 70.8923 48.5627C70.7601 48.3093 70.5656 48.1814 70.1849 48.1056C69.8919 48.0421 69.6051 47.9347 69.5485 47.8597C69.492 47.7847 69.4216 47.8083 69.3858 47.9039C69.35 47.9995 69.2327 48.039 69.1151 48.0001C68.9443 47.9426 68.8958 47.9693 68.8525 48.1981C68.7967 48.4362 68.7403 48.4395 68.4689 48.2225C68.2979 48.0867 68.1015 47.8131 68.0305 47.6019C67.9089 47.1935 67.0853 46.6082 66.9936 46.8637C66.9609 46.9374 66.7806 46.8674 66.5813 46.694C66.2314 46.3989 66.2204 46.3974 66.2275 46.745C66.2327 46.947 66.1736 47.1288 66.1032 47.1525C66.0313 47.1871 66.0221 47.2529 66.0692 47.3154C66.2498 47.542 65.9195 47.5851 65.4884 47.3904C65.236 47.2767 64.9771 47.0503 64.9015 46.872C64.7912 46.6217 64.7379 46.603 64.6381 46.7567C64.5648 46.8806 64.474 46.8902 64.3782 46.7762C64.3028 46.6761 64.2853 46.5618 64.3478 46.5147C64.5244 46.3718 63.9812 45.7812 63.6695 45.771C63.5144 45.7604 63.2407 45.8785 63.0625 46.0324C62.7203 46.3198 62.3692 46.1923 62.2288 45.7588C62.1372 45.4553 60.587 44.2313 60.437 44.3445C60.3744 44.3916 60.4374 44.5011 60.5597 44.5853C60.693 44.6711 60.7671 44.8604 60.7236 45.0109C60.6678 45.249 60.6161 45.2194 60.2752 44.7802C59.8102 44.1894 59.4185 44.1121 59.2223 44.5541C59.1086 44.8065 59.0413 44.8083 58.7025 44.593C58.221 44.2794 58.0105 44.0262 58.214 44.0101C58.3049 44.0005 58.361 43.9189 58.3514 43.8281C58.3418 43.7373 58.2541 43.725 58.154 43.8004C57.9899 43.9339 57.7483 43.7434 57.4355 43.2635C57.3616 43.1524 57.2018 43.0965 57.05 43.1422C56.9092 43.1896 56.8591 43.2273 56.9359 43.2381C57.0127 43.2488 57.0475 43.3991 57.0009 43.5714C56.9653 43.7453 56.9686 43.8017 57.0169 43.6967C57.0652 43.5916 57.1544 43.593 57.2502 43.7071C57.3838 43.8712 57.3353 43.8979 56.9155 43.8614C56.6508 43.8354 56.317 43.7438 56.1852 43.647C56.0425 43.5487 55.7995 43.4475 55.6366 43.4135C55.4721 43.3904 55.1912 43.1609 55.0136 42.9123C54.6758 42.4512 53.4146 41.5586 53.2755 41.6732C53.2255 41.7109 53.2494 41.8596 53.2952 42.0114C53.4308 42.3994 53.2494 42.497 52.8463 42.2615C52.4244 42.001 52.4056 41.976 52.598 41.88C52.7059 41.8281 52.6349 41.6168 52.4227 41.2963C52.2184 40.9993 51.9085 41.0564 51.9855 41.1455C52.0624 41.2346 52.0424 41.3771 51.9439 41.4416C51.8548 41.5185 51.7232 41.5 51.6478 41.4C51.5709 41.3109 51.4658 41.2626 51.4143 41.3113C51.3518 41.3585 51.184 41.279 51.027 41.1228C50.7602 40.8729 50.2065 41.153 50.4485 41.5C50.5994 41.7001 51.2225 41.6422 51.1599 41.6893C51.0974 41.7365 51.1322 41.8867 51.2454 42.0368C51.415 42.2619 51.4135 42.2728 51.169 42.1826C51.0201 42.1282 50.8291 42.1349 50.754 42.1914C50.6149 42.3061 49.4986 41.7357 49.5232 41.5602C49.5309 41.5054 49.6592 41.4675 49.8143 41.4781C50.0476 41.4885 50.0742 41.4587 49.9799 41.3336C49.9139 41.2461 49.7881 41.0272 49.7015 40.8473C49.5551 40.536 49.5442 40.5345 49.5434 40.8586C49.5411 41.1938 49.5301 41.1922 49.2273 40.9596C49.0563 40.8238 48.8255 40.5566 48.7091 40.3502C48.5927 40.1437 48.4545 40.0125 48.4045 40.0502C48.3545 40.088 48.2212 40.0022 48.0971 39.8506C47.9652 39.6755 47.7833 39.6164 47.6066 39.6811C47.4532 39.7378 47.2762 39.7242 47.2087 39.6476C47.1412 39.571 46.8653 39.4652 46.5802 39.4252C46.2951 39.3852 46.0004 39.2544 45.914 39.1528C45.7711 38.9762 45.7695 38.9871 45.7984 39.2595C45.8382 39.5335 45.8132 39.5523 45.3528 39.566L44.858 39.586L45.3149 40.075L45.7718 40.5641L45.303 40.3193C45.0427 40.1822 44.7195 39.9355 44.5781 39.748C44.2655 39.3463 43.4391 38.8613 43.275 38.9948C43.1249 39.1079 43.1532 39.1454 43.5907 39.3746C43.8619 39.5133 43.9373 39.6133 43.9221 39.8013C43.8698 40.1741 43.4731 39.9731 43.1053 39.4071C42.9293 39.1475 42.5886 38.7866 42.3313 38.6275C42.0443 38.4419 41.8904 38.2637 41.9137 38.1776C41.9868 37.9754 39.1244 36.7797 39.3587 37.1816C39.4846 37.4005 39.4503 37.4852 39.2141 37.575C39.0482 37.6412 38.9074 37.6885 38.898 37.676C38.898 37.676 38.7302 37.5965 38.539 37.525C38.318 37.4269 38.1814 37.2847 38.1497 37.1125C38.1258 36.9638 38.4451 36.9192 38.1877 36.6818C37.9303 36.4444 37.4298 36.6648 37.0491 36.589C36.8955 36.5675 36.7139 36.5867 36.6279 36.6417C36.3654 36.8397 35.5785 36.5504 35.2361 36.1221C35.0664 35.897 34.69 35.6317 34.4141 35.5259C34.1382 35.4201 32.9416 35.3416 32.8791 35.3887C32.8041 35.4453 32.8043 35.5236 33.1161 35.6121C33.2994 35.6602 33.7786 35.6716 33.9247 35.8262C34.2073 36.1231 34.0056 36.2849 33.5839 36.1027C33.4052 36.0217 33.0386 35.9255 32.7754 35.8885C32.5012 35.8501 32.2081 35.7083 32.1138 35.5832C32.0195 35.4582 31.7671 35.3445 31.5667 35.3387C31.3553 35.3314 31.095 35.1942 30.9819 35.0442C30.8687 34.8941 29.4615 34.4841 29.7368 34.9924C29.9334 35.3443 30.5729 35.5682 30.9005 35.7036C31.1544 35.8064 31.3474 35.9453 31.3476 36.0236C31.3152 36.2539 30.9863 36.2077 30.7679 35.931C30.6548 35.781 30.4901 35.6796 30.3884 35.6877C30.2976 35.6973 30.1423 35.6084 30.0481 35.4834C29.9538 35.3583 29.8472 35.321 29.8239 35.4072C29.7912 35.4809 29.7301 35.4387 29.6702 35.3073C29.6119 35.165 29.3376 35.0482 28.9742 35.0084C28.5106 34.9657 28.4057 34.9957 28.5204 35.1348C28.6067 35.2363 28.6227 35.3616 28.5727 35.3993C28.5211 35.448 28.3313 35.2871 28.1506 35.0605C27.97 34.8339 27.6764 34.5355 27.5054 34.3997C27.2936 34.2358 27.2307 34.1263 27.3073 34.0588C27.3823 34.0022 27.4904 34.0286 27.5564 34.1161C27.6224 34.2036 27.8588 34.1921 28.0746 34.0882C28.2905 33.9843 28.5081 33.9478 28.5458 33.9978C28.5929 34.0603 28.7322 34.024 28.8463 33.9282C28.9713 33.8339 29.1091 33.8085 29.1577 33.8601C29.2049 33.9226 29.3442 33.8862 29.4567 33.8014C29.5817 33.7071 29.7351 33.6504 29.8088 33.6831C29.9467 33.736 32.3576 33.4482 33.5613 33.237C33.9166 33.1751 34.3581 33.1364 34.5351 33.1501C34.7121 33.1637 34.9062 33.1351 34.9687 33.0879C35.0203 33.0393 35.5087 32.9848 36.0505 32.949C36.5797 32.9227 37.2607 32.8506 37.5487 32.7903C37.8367 32.7301 38.1984 32.7026 38.3644 32.7148C38.9612 32.765 40.6489 32.6105 40.8005 32.4864C40.888 32.4204 41.0023 32.4029 41.04 32.453C41.0871 32.5155 41.5381 32.4893 42.0406 32.4145C42.543 32.3397 43.4291 32.2404 44.0038 32.2092C44.5784 32.1781 45.1452 32.1235 45.2719 32.0965C45.3987 32.0696 45.7994 32.0028 46.1627 31.9644C46.5274 31.9149 47.1771 31.8272 47.6138 31.7432C48.0489 31.6701 48.6517 31.5981 48.9414 31.6052C49.2326 31.6014 49.7915 31.5233 50.1608 31.441C50.5427 31.3492 51.3771 31.2203 52.0362 31.1451C52.6843 31.0683 53.3715 30.9524 53.5483 30.8877C53.7251 30.8231 54.024 30.7644 54.2056 30.7452C54.3857 30.7369 54.6329 30.6486 54.7454 30.5638C54.858 30.4789 54.9832 30.463 55.0319 30.5145C55.079 30.577 55.1917 30.5705 55.2918 30.4951C55.3809 30.4181 55.6923 30.35 55.9647 30.3212C56.2466 30.3048 56.699 30.2677 56.9809 30.2514C57.2627 30.235 57.5257 30.1937 57.5647 30.1544C57.6022 30.1261 57.9183 30.0251 58.2642 29.9507C59.9749 29.5535 61.3865 29.2149 61.9123 29.0539C62.2284 28.9529 62.6885 28.8609 62.925 28.8494C63.5121 28.8088 65.262 28.4506 65.412 28.3375C65.4746 28.2904 66.958 27.8389 67.055 27.7854C67.1519 27.7319 67.3272 27.6782 67.4399 27.6717C67.5651 27.6557 68.1188 27.3756 68.2035 27.4099C68.2881 27.4441 68.4509 27.3999 68.565 27.3041C68.6775 27.2192 68.8966 27.1717 69.0376 27.2027C69.1896 27.2352 69.3618 27.2035 69.4164 27.1329C69.4711 27.0623 69.6948 26.9818 69.8999 26.9547C70.1065 26.9166 71.2313 26.4707 71.4853 26.5734C71.6013 26.6233 71.8235 26.5538 71.9735 26.4407C72.1126 26.3261 73.6261 25.9794 74.1892 25.7118C75.0025 25.334 74.925 25.01 74.9933 24.7624C75.0087 24.6528 75.1976 24.4221 75.4008 24.2494C75.5929 24.0751 75.7692 23.7755 75.7969 23.5782C75.8261 23.3698 76.0102 23.0938 76.2744 22.8848C76.6635 22.5817 76.7367 22.3795 76.9186 21.2421C76.9725 20.8583 77.3027 19.4623 77.2338 18.8376C77.1297 17.9061 76.5828 17.7399 76.4279 17.8076C76.2746 17.8643 76.1246 17.9775 76.0997 18.0746C76.0951 18.1075 74.9155 18.5457 74.6138 18.7829C74.1746 19.1238 74.5415 19.2983 74.5792 19.3483C74.7677 19.5984 74.123 19.8098 73.8876 19.5755C73.6317 19.3272 73.3735 19.4139 73.5809 19.689C73.7333 19.8781 73.5865 20.0476 73.3404 19.9684C73.2558 19.9341 73.093 19.9784 72.979 20.0742C72.8664 20.159 72.7021 20.2142 72.6175 20.18C72.5219 20.1442 72.5625 20.094 72.6908 20.0561C72.8316 20.0087 72.8658 19.9241 72.7904 19.8241C72.5909 19.5724 72.4297 19.6057 72.3162 19.9364C72.226 20.1809 72.165 20.2171 71.9722 20.1565C71.8233 20.102 71.7668 20.027 71.8105 19.9549C71.9243 19.7808 71.0744 19.941 71.1421 20.0959C71.2429 20.3337 71.2133 20.3854 70.9378 20.4362C70.7547 20.4664 70.5683 20.4402 70.5211 20.3777C70.474 20.3152 70.3722 20.3233 70.2847 20.3892C70.1972 20.4552 70.014 20.4854 69.884 20.456C69.7414 20.436 69.5098 20.4929 69.3692 20.6185C69.2191 20.7317 68.8311 20.8673 68.5117 20.9119C68.1924 20.9565 67.8059 21.0812 67.6543 21.2053C67.4792 21.3373 67.3321 21.3501 67.2457 21.2486C67.1514 21.1235 67.0575 21.1551 66.8936 21.3669C66.7563 21.5489 66.6359 21.6102 66.5683 21.5337C66.5102 21.4696 66.4115 21.4557 66.349 21.5029C66.274 21.5594 65.9718 21.5617 65.6757 21.5202C65.27 21.4632 65.0853 21.5044 64.9808 21.691C64.7578 22.0846 64.6874 22.1083 64.5162 21.8942C64.4298 21.7926 63.2546 22.1196 63.028 22.3002C62.8029 22.4699 62.5728 22.5159 62.3064 22.4226C61.9647 22.3075 61.8943 22.3312 61.7885 22.6071C61.6873 22.8501 61.6357 22.8987 61.5009 22.8239C61.264 22.6788 58.9394 22.9899 58.6252 23.2365C58.3736 23.436 58.1294 23.5024 57.9147 23.4387C57.733 23.3796 57.4182 23.3914 57.196 23.4608C56.9848 23.5318 55.7859 23.7884 55.6793 23.7511C55.5618 23.7122 55.3301 23.7692 55.1472 23.8777C54.9642 23.9862 54.6622 24.0668 54.4743 24.0516C54.2863 24.0364 53.906 24.1172 53.6432 24.2368C53.3694 24.3549 53.1174 24.3978 53.0703 24.3353C53.0231 24.2728 52.9214 24.2809 52.8338 24.3468C52.7463 24.4128 51.5967 24.3186 51.6047 24.4203C51.6144 24.5111 51.5066 24.6414 51.3533 24.6981C51.2 24.7549 51.1219 24.8334 51.1721 24.8739C51.3808 25.0598 51.4518 25.271 51.3156 25.2854C51.2357 25.2966 51.107 25.1779 51.0393 25.023C50.8771 24.6648 50.4168 24.6785 50.5336 25.0415C50.5778 25.2043 50.4853 25.1465 50.2764 24.8824C50.0093 24.5542 49.8933 24.5044 49.7183 24.6363C49.6042 24.7321 49.4305 24.7749 49.3443 24.7516C49.2596 24.7173 49.0594 24.7899 48.9078 24.9139C48.7452 25.0365 48.1833 25.1365 47.5773 25.1521C47.0057 25.1613 46.3811 25.2302 46.2027 25.3058C46.0244 25.3814 45.5844 25.4091 45.2116 25.3567C44.8388 25.3044 44.4552 25.3288 44.3536 25.4152C44.252 25.5016 44.0454 25.5397 43.8934 25.5072C43.7399 25.4856 43.5598 25.4939 43.4708 25.5708C43.3942 25.6384 42.9996 25.6613 42.5908 25.6262C42.193 25.5928 41.8109 25.6062 41.7594 25.6549C41.6328 25.7601 39.79 25.904 39.6551 25.8292C39.5924 25.798 39.4766 25.8265 39.3891 25.8925C39.3015 25.9584 39.1888 25.965 39.1323 25.89C39.0757 25.8149 38.9568 25.8653 38.846 26.0175C38.7227 26.1791 38.5569 26.2453 38.3626 26.1956C38.2012 26.1506 38.0634 26.176 38.0526 26.2528C38.0419 26.3295 38.1517 26.4232 38.3037 26.4557C38.5747 26.5161 38.6928 26.7899 38.5037 26.9423C38.4412 26.9894 38.3362 26.9411 38.2498 26.8395C38.1744 26.7395 38.1007 26.7068 38.0899 26.7835C38.0684 26.9371 37.2044 27.1177 37.0992 26.9911C36.9562 26.8145 37.0592 26.6389 37.305 26.6398C37.4382 26.6473 37.5946 26.5686 37.6507 26.4871C37.71 26.3836 37.5784 26.3651 37.3249 26.419C37.0932 26.4759 36.7768 26.4203 36.6356 26.311C36.4347 26.1487 36.2876 26.1616 36.0359 26.361C35.7968 26.5511 35.6152 26.5704 35.3659 26.4347C34.9801 26.2352 34.7893 26.3203 34.7229 26.7135C34.6937 26.9218 34.6702 26.9297 34.5992 26.7185C34.544 26.5542 34.4609 26.509 34.3484 26.5938C34.2608 26.6598 34.1183 26.6398 34.0413 26.5507C33.9565 26.4382 33.8547 26.4462 33.7955 26.5497C33.7362 26.6532 33.5281 26.7023 33.3417 26.6761C33.1552 26.65 32.8359 26.6946 32.631 26.8C32.4261 26.9054 32.1678 26.9139 32.047 26.8187C31.8963 26.6969 31.7132 26.7271 31.4506 26.9251C31.213 27.1042 30.9594 27.158 30.7338 27.0928C30.3044 26.9654 30.1309 27.0864 30.3586 27.3756C30.4529 27.5006 30.5908 27.5535 30.6534 27.5064C30.7159 27.4593 30.7801 27.4795 30.7898 27.5703C30.8298 27.9225 30.3911 27.861 30.2086 27.4887C30.0591 27.1994 29.9148 27.112 29.4841 27.0739C28.8873 27.0237 28.6465 27.1464 28.738 27.45C28.7775 27.5674 28.9797 27.6405 29.2161 27.6289C29.8392 27.571 29.8648 27.7871 29.2528 27.9248C28.7692 28.0247 28.683 28.0014 28.5068 27.6636C28.2944 27.2648 27.724 27.1064 27.3974 27.3625C27.3098 27.4285 27.1532 27.4288 27.0497 27.3696C26.9462 27.3103 26.5626 27.3348 26.1933 27.4171C25.8333 27.5119 25.4028 27.5521 25.2508 27.5196C25.0973 27.4981 24.8797 27.5346 24.7672 27.6195C24.6546 27.7043 24.4261 27.7393 24.2631 27.7053C23.9826 27.6323 23.3172 27.6731 23.1906 27.7783C23.1531 27.8066 23.2051 27.9146 23.2899 28.0271C23.4894 28.2787 23.9749 28.3245 24.5242 28.1556C24.7464 28.0862 24.9594 28.0825 25.0174 28.1466C25.1494 28.3216 24.7054 28.6171 24.4609 28.5269C24.3449 28.4771 24.06 28.5154 23.8253 28.5942C23.4482 28.7314 23.3745 28.6987 23.1167 28.3047C22.7851 27.7997 22.4121 27.6691 22.0619 27.933C21.9354 28.0382 21.6849 28.0702 21.514 28.0126C21.3432 27.9551 21.0004 28.0076 20.747 28.1398C20.4937 28.272 20.1603 28.337 20.0114 28.2825C19.8515 28.2266 19.6918 28.2489 19.6341 28.3414C19.5764 28.4339 19.3963 28.4422 19.227 28.3737C19.0593 28.2943 18.8589 28.2885 18.7713 28.3545C18.6838 28.4205 18.4568 28.4445 18.25 28.4043C18.0416 28.375 17.7802 28.4054 17.6661 28.5012C17.5535 28.5861 17.4064 28.599 17.3419 28.5005C17.2759 28.4129 17.0239 28.4558 16.7721 28.577C16.5297 28.7107 16.2887 28.7552 16.24 28.7036C16.1929 28.6411 16.0911 28.6492 16.0255 28.7182C15.7521 28.9929 15.5909 29.0262 15.448 28.8496C15.1825 28.5105 14.8426 28.4627 14.7806 28.7448C14.714 29.0597 13.8218 29.2028 13.4547 28.95C13.323 28.8532 13.1952 29.126 12.939 28.7211C12.7189 28.3771 12.4342 28.4937 12.146 28.4756C11.6933 28.4344 11.5119 28.532 11.5987 28.7901C11.6302 28.884 11.6083 28.8809 11.5454 28.7715C11.212 28.1991 8.95251 28.9219 8.58026 29.7418C8.46963 29.9723 8.09545 30.6465 8.06139 30.8095C8.02426 30.9944 7.92267 31.0807 7.69414 31.1157C7.23549 31.1967 6.91518 31.4872 6.97387 31.7862C6.99771 31.9349 6.92134 32.0807 6.79303 32.1186C6.66471 32.1565 6.50254 32.4356 6.41403 32.7475C6.32093 33.0922 6.16181 33.3494 5.99753 33.4046C5.80822 33.4787 5.17258 34.8207 5.55272 35.299L5.5056 35.2365ZM65.1874 21.6529C65.25 21.6058 65.3127 21.637 65.3223 21.7278C65.3319 21.8186 65.318 21.9172 65.293 21.9361C65.268 21.955 65.2053 21.9238 65.1582 21.8613C65.1111 21.7987 65.1234 21.711 65.1874 21.6529ZM47.353 25.6349C47.423 25.4547 47.7583 25.5353 47.7321 25.7217C47.7229 25.7875 47.6259 25.841 47.5053 25.8241C47.3628 25.804 47.3156 25.7415 47.353 25.6349ZM44.848 25.876C44.9105 25.8288 45.0233 25.8223 45.1094 25.8456C45.1941 25.8798 45.1927 25.9691 45.0817 26.043C44.9817 26.1184 44.869 26.1249 44.8203 26.0734C44.7732 26.0108 44.7855 25.9231 44.8465 25.8869L44.848 25.876ZM44.3894 25.957C44.4802 25.9473 44.5679 25.9597 44.5977 25.9862C44.6166 26.0112 44.5854 26.0739 44.5229 26.1211C44.4604 26.1682 44.3726 26.1559 44.3145 26.0918C44.2674 26.0293 44.2986 25.9666 44.3894 25.957ZM42.9244 26.2769L43.2576 26.1335C43.6378 25.9745 43.763 25.9585 43.746 26.0791C43.7399 26.123 43.5521 26.1861 43.3236 26.2211L42.9134 26.2753L42.9244 26.2769ZM41.5243 26.2145C41.7342 26.2328 41.9394 26.284 41.9881 26.3355C42.0258 26.3856 41.9258 26.461 41.7426 26.4912C41.5705 26.5229 41.3667 26.4608 41.2913 26.3607C41.1688 26.1982 41.1938 26.1793 41.5258 26.2036L41.5243 26.2145ZM38.9147 26.5638C38.9772 26.5167 39.0649 26.529 39.123 26.5931C39.1702 26.6556 39.139 26.7183 39.0482 26.728C38.9574 26.7376 38.8587 26.7237 38.8398 26.6987C38.821 26.6737 38.8521 26.611 38.9147 26.5638ZM35.2135 26.883C35.7269 26.8097 35.9245 26.9157 35.6604 27.1246C35.5604 27.2 35.4586 27.2081 35.4115 27.1456C35.3643 27.083 35.2062 27.0944 35.0529 27.1511C34.8995 27.2079 34.732 27.2067 34.6958 27.1457C34.5827 26.9957 34.6797 26.9422 35.226 26.8735L35.2135 26.883ZM33.828 27.0351C33.8618 26.7939 34.0325 26.7731 34.2022 26.9982C34.2964 27.1232 34.3343 27.2515 34.2828 27.3002C34.1577 27.3945 33.8159 27.2011 33.828 27.0351ZM32.4506 27.289C32.4506 27.289 32.6008 27.2542 32.648 27.3168C32.6951 27.3793 32.6828 27.467 32.6202 27.5141C32.5577 27.5613 32.47 27.5489 32.4229 27.4864C32.3757 27.4239 32.388 27.3362 32.4506 27.289ZM208.178 78.2089C208.33 78.0848 208.505 78.0312 208.552 78.0937C208.599 78.1562 208.537 78.2816 208.423 78.3774C208.309 78.4732 208.135 78.5159 208.049 78.4927C207.964 78.4584 208.014 78.3424 208.178 78.2089ZM200.557 79.6886C200.725 79.6898 200.905 79.6815 200.939 79.6751C200.983 79.6813 200.905 79.7598 200.767 79.8635C200.617 79.9766 200.472 79.9785 200.387 79.866C200.263 79.7144 200.289 79.6846 200.557 79.6886ZM182.791 80.8736C182.882 80.864 182.969 80.8763 182.999 80.9029C183.018 80.9279 182.987 80.9906 182.924 81.0377C182.862 81.0849 182.774 81.0726 182.716 81.0085C182.669 80.946 182.7 80.8833 182.791 80.8736ZM180.188 80.6201C180.222 80.5354 180.31 80.5477 180.385 80.6478C180.46 80.7478 180.448 80.8355 180.357 80.8451C180.266 80.8548 180.179 80.8425 180.16 80.8174C180.141 80.7924 180.153 80.7047 180.188 80.6201ZM159.181 78.3648C159.243 78.3176 159.331 78.3299 159.378 78.3925C159.425 78.455 159.413 78.5427 159.351 78.5899C159.288 78.637 159.2 78.6247 159.153 78.5621C159.106 78.4996 159.118 78.4119 159.181 78.3648ZM144.115 75.4451C144.245 75.3962 144.364 75.2675 144.371 75.1344C144.395 74.9699 144.43 74.9526 144.506 75.0526C144.562 75.1276 144.563 75.2842 144.491 75.3972C144.419 75.5101 144.252 75.5872 144.122 75.5578C143.936 75.5316 143.929 75.4972 144.104 75.4435L144.115 75.4451ZM124.24 72.2975C124.657 72.4343 124.772 72.6517 124.443 72.6838C124.341 72.6919 124.147 72.6423 123.989 72.5753C123.547 72.3791 123.761 72.1296 124.229 72.296L124.24 72.2975ZM116.325 66.2331C116.359 66.1485 116.474 66.131 116.598 66.2043C116.845 66.3508 116.852 66.5419 116.602 66.5738C116.375 66.5979 116.25 66.4463 116.325 66.2331ZM115.182 65.6925C115.273 65.6829 115.409 65.7468 115.474 65.8453C115.551 65.9343 115.528 66.0205 115.448 66.0317C115.357 66.0413 115.22 65.9774 115.156 65.8789C115.079 65.7899 115.102 65.7037 115.182 65.6925ZM113.099 68.2627C113.331 68.3623 113.894 69.1345 113.783 69.2084C113.72 69.2555 113.611 69.2401 113.542 69.1745C112.981 68.6263 112.73 68.1101 113.089 68.2611L113.099 68.2627ZM112.427 69.1522C112.519 69.2099 112.614 69.335 112.645 69.4289C112.675 69.5337 112.603 69.49 112.479 69.3384C112.355 69.1868 112.333 69.1055 112.427 69.1522ZM111.872 65.1384C111.936 65.0803 111.997 65.1225 112.007 65.2133C112.016 65.3041 112.004 65.3918 111.978 65.4216C111.953 65.4405 111.89 65.4093 111.843 65.3468C111.796 65.2842 111.808 65.1965 111.87 65.1494L111.872 65.1384ZM105.741 66.8384C105.833 66.8961 105.909 66.9962 105.899 67.0619C105.89 67.1277 105.818 67.0841 105.724 66.959C105.631 66.823 105.637 66.7792 105.741 66.8384ZM103.684 65.9571C103.834 65.844 104.057 66.166 103.984 66.3682C103.909 66.5814 103.834 66.5596 103.696 66.2718C103.636 66.1404 103.632 66.0058 103.684 65.9571ZM102.764 61.3554C102.855 61.3458 102.992 61.4096 103.058 61.4972C103.124 61.5847 103.13 61.6975 103.068 61.7446C103.005 61.7917 102.88 61.7294 102.774 61.6028C102.669 61.4762 102.674 61.365 102.764 61.3554ZM101.818 61.7257C101.725 61.5897 101.731 61.5458 101.835 61.6051C101.927 61.6628 102.003 61.7628 101.994 61.8286C101.984 61.8944 101.912 61.8508 101.818 61.7257ZM100.945 64.1974C101.264 64.3203 101.37 64.4359 101.349 64.5895C101.327 64.743 101.272 64.7353 101.141 64.5602C101.035 64.4336 100.859 64.2524 100.726 64.1666C100.604 64.0823 100.702 64.0962 100.936 64.1849L100.945 64.1974ZM100.626 61.4577C100.718 61.5154 100.812 61.6405 100.844 61.7344C100.874 61.8392 100.802 61.7955 100.678 61.6439C100.554 61.4923 100.531 61.411 100.626 61.4577ZM97.2505 62.5606C97.5102 62.4629 97.7377 62.6737 97.5361 62.8355C97.4361 62.9109 97.2935 62.8909 97.2181 62.7909C97.1427 62.6908 97.1566 62.5921 97.2505 62.5606ZM97.191 60.6737C97.2818 60.6641 97.3994 60.703 97.4465 60.7655C97.4936 60.828 97.4625 60.8907 97.3717 60.9004C97.2809 60.91 97.1633 60.8711 97.1162 60.8086C97.0691 60.7461 97.1002 60.6834 97.202 60.6753L97.191 60.6737ZM92.1269 58.1962C92.221 58.243 92.3137 58.379 92.3452 58.4729C92.3753 58.5777 92.3031 58.5341 92.179 58.3825C92.0549 58.2309 92.0328 58.1495 92.1269 58.1962ZM91.2829 61.4211C91.2829 61.4211 91.4331 61.3862 91.4913 61.4503C91.5384 61.5128 91.5072 61.5755 91.4164 61.5852C91.3256 61.5948 91.2269 61.5809 91.2081 61.5559C91.1892 61.5309 91.2204 61.4682 91.2829 61.4211ZM90.4109 60.2252C90.5238 60.297 90.538 60.3549 90.4472 60.3645C90.3564 60.3741 90.2498 60.3368 90.2027 60.2743C90.0802 60.1117 90.1835 60.0927 90.4109 60.2252ZM87.5656 58.9872C87.7085 59.1638 87.7449 59.3031 87.6416 59.3222C87.4381 59.3383 87.3611 59.2493 87.3384 58.933C87.3207 58.7404 87.3646 58.7466 87.5641 58.9982L87.5656 58.9872ZM86.8105 56.3207C87.002 56.4705 87.0837 56.605 87.0087 56.6616C86.9462 56.7087 86.7721 56.5948 86.6212 56.3947C86.2977 55.9915 86.3571 55.9663 86.8105 56.3207ZM84.6372 58.9787C84.7613 59.1303 84.8181 59.2837 84.768 59.3214C84.654 59.4172 84.3779 59.2331 84.2975 59.0093C84.1949 58.7042 84.4 58.6771 84.6388 58.9678L84.6372 58.9787ZM83.5626 57.5532C83.6251 57.5061 83.7694 57.5934 83.892 57.756C84.0145 57.9185 84.0399 58.0563 83.9491 58.0659C83.8583 58.0755 83.7031 57.9866 83.6088 57.8616C83.5145 57.7365 83.4876 57.6098 83.5516 57.5517L83.5626 57.5532ZM83.9485 55.2816C84.077 55.322 84.27 55.4609 84.3643 55.586C84.5057 55.7735 84.4916 55.7939 84.3004 55.7224C84.1719 55.682 83.9789 55.5431 83.8847 55.418C83.7433 55.2304 83.7464 55.2085 83.9485 55.2816ZM82.5857 54.4753C82.9366 54.5246 83.1282 54.7528 82.8543 54.7926C82.7745 54.8037 82.6067 54.7243 82.4765 54.6165C82.2348 54.4261 82.2348 54.4261 82.5967 54.4769L82.5857 54.4753ZM81.2275 58.0976C81.3201 58.1553 81.3955 58.2554 81.3862 58.3212C81.377 58.387 81.3048 58.3433 81.2106 58.2182C81.1179 58.0822 81.124 58.0384 81.2275 58.0976ZM79.4306 53.2945C79.5435 53.3662 79.711 53.3674 79.797 53.3124C80.0112 53.1412 80.2511 53.2643 80.2957 53.5836C80.3292 53.8232 80.3041 53.842 79.9954 53.7316C79.4625 53.545 79.4535 53.6891 79.9715 54.2202C80.2368 54.4811 80.4961 54.8641 80.5561 55.0738C80.6525 55.4228 80.6416 55.4212 80.3368 55.043C80.1547 54.8274 79.8751 54.5086 79.7166 54.3633C79.2034 53.8776 78.9852 53.0419 79.4385 53.318L79.4306 53.2945ZM78.1018 52.9626C78.1959 53.0094 78.2886 53.1454 78.3202 53.2393C78.3502 53.3441 78.278 53.3004 78.1555 53.1379C78.0314 52.9863 78.0093 52.9049 78.1018 52.9626ZM76.7446 55.0643C76.8177 54.8621 77.0466 54.9837 77.0676 55.2327C77.0883 55.4033 77.0414 55.4191 76.8877 55.3192C76.7732 55.2584 76.7009 55.1365 76.7336 55.0628L76.7446 55.0643ZM75.6405 52.4942C75.6748 52.4095 75.7625 52.4218 75.8379 52.5219C75.9133 52.6219 75.901 52.7096 75.8102 52.7192C75.7194 52.7289 75.6317 52.7165 75.6128 52.6915C75.594 52.6665 75.6063 52.5788 75.6405 52.4942ZM75.2084 54.4574C75.1757 54.531 75.0566 54.5031 74.9233 54.4173C74.7915 54.3206 74.7286 54.2111 74.7787 54.1734C74.9052 54.0682 75.2629 54.3085 75.2069 54.4683L75.2084 54.4574ZM74.4993 55.2076C74.532 55.134 74.6526 55.1509 74.7844 55.2477C75.0166 55.4256 75.0266 55.673 74.7948 55.6516C74.6084 55.6255 74.4418 55.3785 74.4978 55.2186L74.4993 55.2076ZM74.3383 54.0445C74.2456 53.9085 74.2517 53.8646 74.3552 53.9239C74.4478 53.9816 74.5232 54.0816 74.5139 54.1474C74.5047 54.2132 74.4326 54.1696 74.3383 54.0445ZM73.796 55.1201C73.796 55.1201 73.9276 55.1386 74.0311 55.1978C74.1346 55.2571 74.1771 55.3525 74.1146 55.3996C74.052 55.4468 73.9455 55.4094 73.8685 55.3204C73.7916 55.2313 73.76 55.1374 73.785 55.1186L73.796 55.1201ZM73.2621 54.542C73.4093 54.5291 73.6138 54.9044 73.5138 54.9798C73.4887 54.9987 73.3883 54.9175 73.2846 54.78C73.1904 54.6549 73.1729 54.5406 73.2637 54.531L73.2621 54.542ZM73.5313 50.6327C73.5313 50.6327 73.4138 50.5938 73.3493 50.4953C73.2724 50.4062 73.2862 50.3076 73.377 50.2979C73.5242 50.2851 73.6454 50.5369 73.5313 50.6327ZM72.8268 52.6247C72.8268 52.6247 73.0398 52.6211 73.159 52.7273C73.2908 52.8241 73.3787 52.9147 73.3537 52.9335C73.3287 52.9524 73.1783 52.9089 73.0215 52.831C72.8632 52.764 72.7768 52.6625 72.8268 52.6247ZM70.6112 49.5295C69.9766 48.7137 69.811 48.2208 70.2278 48.3576C70.5381 48.457 71.2215 49.3245 71.1499 49.5157C71.0924 49.6865 71.378 49.9614 71.8092 50.1561C71.9675 50.2231 72.1997 50.401 72.3128 50.5511C72.4259 50.7011 72.6204 50.8291 72.741 50.846C72.8945 50.8676 72.9715 50.9566 73.0081 51.1742C73.0415 51.4137 73.0259 51.4451 72.8722 51.3452C72.7703 51.275 72.5052 51.0924 72.2793 50.9489C72.055 50.7944 71.8493 50.5867 71.8193 50.4818C71.7893 50.377 71.6341 50.2881 71.4775 50.2885C71.277 50.2827 71.0275 50.0688 70.6097 49.5405L70.6112 49.5295ZM70.2836 50.0315C70.3178 49.9468 70.3883 49.9231 70.4339 49.9966C70.481 50.0592 70.4781 50.1594 70.4046 50.205C70.3421 50.2521 70.2732 50.2648 70.2543 50.2398C70.2355 50.2148 70.2368 50.1255 70.2821 50.0424L70.2836 50.0315ZM69.8163 51.0505C69.9498 51.2146 70.0333 51.4164 69.9975 51.512C69.9244 51.7142 69.6306 51.3375 69.5985 51.0087C69.5808 50.8162 69.6247 50.8223 69.8148 51.0614L69.8163 51.0505ZM69.7511 49.3641C69.7854 49.2794 69.8731 49.2918 69.9485 49.3918C70.0239 49.4918 70.0116 49.5796 69.9208 49.5892C69.83 49.5988 69.7423 49.5865 69.7234 49.5615C69.7045 49.5365 69.7169 49.4487 69.7511 49.3641ZM66.7194 51.924C66.7536 51.8394 66.8492 51.8752 66.9545 52.0018C67.0597 52.1283 67.1211 52.2488 67.0851 52.2661C66.9835 52.3525 66.668 52.051 66.7194 51.924ZM67.3335 48.8235C67.3335 48.8235 67.1188 48.7598 66.9963 48.5972C66.77 48.2971 66.7716 48.2862 67.0834 48.3747C67.4172 48.4662 67.5336 48.6727 67.3335 48.8235ZM66.4093 50.6282C66.5593 50.5151 66.8841 50.7507 66.9693 51.0199C67.0214 51.2061 66.9949 51.2359 66.8256 51.1674C66.5482 51.0726 66.2842 50.7224 66.4093 50.6282ZM66.741 47.3091C67.0661 47.064 67.2996 47.1527 67.5576 47.625C67.8596 48.1817 67.7723 48.326 67.3299 47.9732C67.1588 47.8373 66.9266 47.6594 66.8043 47.5751C66.6819 47.4909 66.6535 47.3751 66.741 47.3091ZM65.6392 50.7773C65.5484 50.7869 65.423 50.7245 65.3554 50.648C65.2894 50.5604 65.2641 50.4227 65.2873 50.3365C65.3231 50.2409 65.4485 50.3032 65.5711 50.4658C65.7046 50.6299 65.73 50.7676 65.6282 50.7757L65.6392 50.7773ZM65.0944 51.4723C65.4031 51.5827 65.5838 51.8094 65.4447 51.924C65.3822 51.9712 65.2284 51.8713 65.0949 51.7072C64.9049 51.4681 64.911 51.4242 65.0928 51.4833L65.0944 51.4723ZM65.0128 49.5041C65.1663 49.5256 65.2433 49.6147 65.2689 49.8308C65.3102 50.0937 65.2773 50.0891 65.0496 49.8C64.8595 49.5608 64.8483 49.481 65.0128 49.5041ZM64.4387 51.0448C64.6252 51.071 64.6723 51.1335 64.6477 51.309C64.6215 51.4954 64.5667 51.4877 64.4064 51.2751C64.2462 51.0625 64.2523 51.0187 64.4403 51.0339L64.4387 51.0448ZM59.9741 46.527C59.8123 46.3254 59.7273 46.1345 59.7913 46.0764C59.9289 45.9727 60.0797 46.1728 60.1794 46.5782C60.2442 46.8332 60.2128 46.8177 59.9647 46.5145L59.9741 46.527ZM61.0091 46.4822C61.0999 46.4726 61.2457 46.5489 61.3196 46.6599C61.4421 46.8225 61.4296 46.8319 61.2259 46.7698C60.9171 46.6593 60.804 46.5093 61.0075 46.4931L61.0091 46.4822ZM60.6895 46.4485C60.602 46.5145 60.396 46.1501 60.4489 46.0122C60.4816 45.9385 60.5522 45.9931 60.6214 46.137C60.6892 46.2919 60.7161 46.4187 60.6911 46.4375L60.6895 46.4485ZM59.9262 47.426C60.439 47.7551 60.4296 47.7426 60.2405 47.895C60.153 47.961 59.9964 47.9613 59.8835 47.8896C59.6153 47.729 59.5682 47.6664 59.5393 47.394C59.5185 47.2234 59.6282 47.2388 59.9246 47.4369L59.9262 47.426ZM58.7665 48.9963C58.8606 49.0431 58.9533 49.1791 58.9849 49.273C59.0149 49.3778 58.9427 49.3342 58.8186 49.1826C58.6946 49.031 58.674 48.9386 58.7665 48.9963ZM57.6363 44.7005C57.6989 44.6534 57.7866 44.6657 57.8337 44.7282C57.8808 44.7907 57.8685 44.8785 57.806 44.9256C57.7435 44.9727 57.6558 44.9604 57.6086 44.8979C57.5615 44.8354 57.5738 44.7476 57.6363 44.7005ZM56.7396 44.9548C56.8305 44.9452 56.9669 45.0091 57.0328 45.0966C57.0988 45.1841 57.1053 45.2969 57.0428 45.344C56.9803 45.3911 56.8564 45.3178 56.7496 45.2022C56.6554 45.0772 56.6488 44.9644 56.7396 44.9548ZM55.6339 44.2294C55.6904 44.3044 55.7174 44.4312 55.6831 44.5158C55.6116 44.707 55.5833 44.6695 55.5496 44.3517C55.5367 44.2045 55.5773 44.1543 55.6339 44.2294ZM54.6016 44.0956C54.8867 44.1357 55.1441 44.3731 55.0646 44.5408C55.0304 44.6255 54.8626 44.546 54.6962 44.3773C54.5015 44.1711 54.459 44.0756 54.5906 44.0941L54.6016 44.0956ZM53.5831 45.1379C53.6756 45.1957 53.7511 45.2957 53.7418 45.3615C53.7326 45.4273 53.6604 45.3836 53.5662 45.2586C53.4734 45.1225 53.4796 45.0787 53.5831 45.1379ZM52.5766 43.3865C52.6707 43.4333 52.7649 43.5583 52.795 43.6632C52.825 43.768 52.7528 43.7243 52.6287 43.5727C52.5046 43.4211 52.4825 43.3398 52.5766 43.3865ZM51.2148 42.9717C51.249 42.8871 51.3429 42.8555 51.4291 42.8788C51.5137 42.9131 51.5124 43.0023 51.4123 43.0777C51.2123 43.2286 51.1401 43.1849 51.2148 42.9717ZM50.6503 42.6912C50.7411 42.6816 50.8775 42.7455 50.9529 42.8455C51.0299 42.9346 51.0066 43.0208 50.9268 43.0319C50.836 43.0416 50.7011 42.9667 50.6351 42.8792C50.5582 42.7901 50.5815 42.7039 50.6613 42.6928L50.6503 42.6912ZM49.6267 42.2568C49.8193 42.2391 50.2027 42.7738 50.0761 42.879C50.0136 42.9261 49.8614 42.8153 49.7325 42.6183C49.6021 42.4323 49.5578 42.2695 49.6267 42.2568ZM48.9836 43.0946C49.0744 43.085 49.2296 43.1739 49.3239 43.2989C49.4181 43.424 49.4247 43.5367 49.3339 43.5463C49.2431 43.556 49.0878 43.4671 48.9936 43.342C48.8993 43.217 48.8928 43.1043 48.9836 43.0946ZM48.8164 41.9754C48.8739 41.8045 49.3081 41.9773 49.2835 42.1528C49.2758 42.2076 49.1615 42.2251 49.0095 42.1926C48.8356 42.157 48.7681 42.0804 48.8164 41.9754ZM47.81 44.7637C47.9795 44.9105 48.1146 45.0636 48.1099 45.0965C48.0869 45.261 47.5457 44.8943 47.528 44.7017C47.5151 44.5546 47.6013 44.5779 47.8116 44.7527L47.81 44.7637ZM47.4457 41.1456C47.5082 41.0985 47.596 41.1108 47.6431 41.1733C47.6902 41.2359 47.6779 41.3236 47.6154 41.3707C47.5529 41.4179 47.4652 41.4055 47.418 41.343C47.3709 41.2805 47.3832 41.1928 47.4457 41.1456ZM47.5261 40.0947C47.8472 40.1174 48.2062 40.2684 48.3208 40.4075C48.635 40.7982 48.4065 40.8332 47.7056 40.4889C46.8574 40.0791 46.8322 40.0196 47.5387 40.0853L47.5261 40.0947ZM46.592 39.7399C46.6955 39.7992 46.7568 39.9196 46.7226 40.0043C46.6883 40.0889 46.5817 40.0516 46.4875 39.9265C46.2786 39.6624 46.3128 39.5777 46.592 39.7399ZM44.9411 43.4553C45.2443 43.8445 45.372 44.209 45.2345 44.3127C45.1829 44.3614 45.0983 44.3272 45.0432 44.2412C44.9882 44.1552 44.8436 43.9112 44.7178 43.6923C44.4175 43.2029 44.6002 43.0161 44.9411 43.4553ZM44.2051 40.2547C44.2051 40.2547 44.4244 40.2855 44.5735 40.4182C44.8717 40.6837 44.8017 40.864 44.4723 40.6612C44.1838 40.4865 44.091 40.3505 44.2051 40.2547ZM42.7599 40.9911C42.854 41.0379 42.9483 41.1629 42.9783 41.2677C43.0083 41.3726 42.9362 41.3289 42.8121 41.1773C42.688 41.0257 42.6659 40.9444 42.7599 40.9911ZM42.0058 40.6281C42.0966 40.6185 42.2221 40.6808 42.2881 40.7683C42.354 40.8559 42.3904 40.9951 42.3561 41.0798C42.3219 41.1644 42.1949 41.1131 42.0739 40.9395C41.942 40.7645 41.915 40.6377 42.0058 40.6281ZM41.4899 39.0461C41.5241 38.9615 41.6307 38.9988 41.725 39.1239C41.8192 39.2489 41.8806 39.3693 41.8556 39.3882C41.754 39.4746 41.4385 39.1731 41.4789 39.0446L41.4899 39.0461ZM40.6308 38.6348C40.8551 38.7893 40.9761 38.9628 40.9701 39.085C40.9516 39.2166 40.8308 39.1214 40.614 38.8338C40.2841 38.3961 40.2746 38.3836 40.6417 38.6364L40.6308 38.6348ZM39.2006 41.6544C39.2006 41.6544 39.3508 41.6196 39.4089 41.6836C39.456 41.7461 39.4249 41.8089 39.3341 41.8185C39.2433 41.8281 39.1446 41.8143 39.1257 41.7892C39.1069 41.7642 39.138 41.7015 39.2006 41.6544ZM38.7608 38.5736C39.0696 38.6841 39.1654 38.7981 39.0263 38.9128C38.9638 38.9599 38.8289 38.8851 38.7252 38.7475C38.5634 38.5459 38.579 38.5146 38.7718 38.5752L38.7608 38.5736ZM38.2589 38.246C38.409 38.1329 38.4388 38.1594 38.4299 38.3818C38.4303 38.5384 38.3994 38.6794 38.3853 38.6998C38.3603 38.7187 38.2803 38.6515 38.2143 38.564C38.1373 38.4749 38.1683 38.3339 38.2574 38.257L38.2589 38.246ZM36.9636 41.3404C36.9978 41.2557 37.0856 41.2681 37.161 41.3681C37.2364 41.4681 37.2241 41.5559 37.1333 41.5655C37.0425 41.5751 36.9547 41.5628 36.9359 41.5378C36.917 41.5128 36.9293 41.425 36.9636 41.3404ZM36.1582 37.2803L36.6006 37.6331C36.8924 37.8641 37.0433 38.0642 37.0248 38.1958C37.0063 38.3274 36.8651 38.2181 36.5823 37.843L36.1582 37.2803ZM33.2911 39.9416C33.3836 39.9993 33.4591 40.0993 33.4498 40.1651C33.4406 40.2309 33.3684 40.1872 33.2742 40.0622C33.1814 39.9262 33.1876 39.8823 33.2911 39.9416ZM32.7094 36.4384C32.8019 36.4961 32.8773 36.5961 32.8681 36.6619C32.8589 36.7277 32.7758 36.6825 32.6925 36.559C32.5997 36.423 32.6059 36.3791 32.7094 36.4384ZM32.0763 36.2489C32.1388 36.2017 32.2265 36.214 32.2846 36.2781C32.3318 36.3406 32.3006 36.4033 32.2098 36.413C32.119 36.4226 32.0313 36.4103 32.0015 36.3837C31.9826 36.3587 32.0138 36.296 32.0763 36.2489ZM29.3974 35.8169C29.7062 35.9274 29.802 36.0415 29.6629 36.1561C29.6004 36.2032 29.4655 36.1284 29.3618 35.9909C29.2016 35.7783 29.2156 35.7579 29.4084 35.8185L29.3974 35.8169ZM64.8367 72.2674C65.048 72.1965 65.3365 72.3711 65.1865 72.4842C65.1239 72.5314 64.9814 72.5114 64.8685 72.4396C64.7446 72.3663 64.7209 72.2959 64.8273 72.2549L64.8367 72.2674ZM64.6299 71.5899C64.7207 71.5803 64.8383 71.6191 64.876 71.6691C64.9231 71.7317 64.9108 71.8194 64.8483 71.8665C64.7858 71.9136 64.6792 71.8763 64.6038 71.7763C64.5268 71.6872 64.5391 71.5995 64.6299 71.5899ZM63.2146 70.4408C63.2146 70.4408 63.4278 70.5154 63.5692 70.703C63.7106 70.8906 63.8112 71.0501 63.7862 71.0689C63.7612 71.0878 63.5996 70.9644 63.4316 70.8067C63.2652 70.638 63.1646 70.4785 63.2146 70.4408ZM61.0771 71.7285C61.1696 71.7863 61.245 71.8863 61.2358 71.9521C61.2266 72.0179 61.1544 71.9742 61.0602 71.8492C60.9674 71.7132 60.9736 71.6693 61.0771 71.7285ZM56.2133 67.2665C56.2133 67.2665 56.3887 67.2911 56.4955 67.4067C56.5897 67.5318 56.6526 67.6412 56.6276 67.6601C56.6026 67.6789 56.4772 67.6166 56.3454 67.5198C56.2136 67.4231 56.1632 67.3042 56.2133 67.2665ZM56.563 64.2965C56.7271 64.163 56.8887 64.2863 57.5828 65.077C58.123 65.6896 58.2207 65.9493 57.8697 65.8217C57.5718 65.7128 56.438 64.3908 56.563 64.2965ZM54.8324 64.8363C54.4576 64.6384 54.3916 64.5508 54.5292 64.4471C54.5917 64.4 54.7454 64.4999 54.8774 64.6749C55.0848 64.95 55.0817 64.972 54.8433 64.8379L54.8324 64.8363ZM53.5063 64.9633C53.581 64.7501 53.6248 64.7563 54.0706 65.1655L54.4488 65.4981L54.0257 65.4052C53.5369 65.303 53.4286 65.1984 53.5173 64.9648L53.5063 64.9633ZM53.5385 63.38C53.7249 63.4062 53.7735 63.4577 53.7474 63.6441C53.7212 63.8306 53.6664 63.8229 53.5061 63.6103C53.3459 63.3977 53.352 63.3538 53.5385 63.38ZM51.9238 63.3323C52.0368 63.404 52.051 63.4619 51.9602 63.4716C51.8694 63.4812 51.7628 63.4439 51.7157 63.3813C51.5931 63.2188 51.698 63.1888 51.9238 63.3323ZM51.8515 62.573C51.9833 62.6697 52.0635 62.8152 52.0293 62.8998C51.9966 62.9735 51.8711 62.9112 51.7595 62.7501C51.4941 62.411 51.5283 62.3263 51.8515 62.573ZM51.1913 61.541C51.0985 61.405 51.1047 61.3612 51.2082 61.4204C51.3007 61.4781 51.3761 61.5782 51.3669 61.644C51.3577 61.7098 51.2855 61.6661 51.1913 61.541ZM50.8727 62.5362C50.9635 62.5266 51.081 62.5655 51.1282 62.628C51.1753 62.6905 51.1441 62.7532 51.0533 62.7628C50.9625 62.7724 50.845 62.7336 50.7979 62.6711C50.7507 62.6085 50.7819 62.5458 50.8727 62.5362ZM50.2084 60.4974C50.4656 60.6565 50.5599 60.7815 50.5478 60.9475C50.5247 61.112 50.4322 61.0543 50.1776 60.7167C49.8477 60.279 49.8493 60.2681 50.2084 60.4974ZM49.103 61.2032C49.1373 61.1186 49.225 61.1309 49.3004 61.2309C49.3758 61.3309 49.3635 61.4187 49.2727 61.4283C49.1819 61.4379 49.0942 61.4256 49.0753 61.4006C49.0565 61.3756 49.0688 61.2879 49.103 61.2032ZM48.2629 58.9831C48.3537 58.9735 48.4713 59.0124 48.5184 59.0749C48.5655 59.1374 48.5359 59.1892 48.4451 59.1988C48.3543 59.2084 48.2368 59.1696 48.1896 59.107C48.1425 59.0445 48.1721 58.9928 48.2629 58.9831ZM47.3994 57.4083C47.3368 57.4555 47.2664 57.4791 47.2491 57.4431C47.2303 57.4181 47.2331 57.3179 47.2783 57.2348C47.3126 57.1502 47.3815 57.1375 47.4286 57.2C47.4757 57.2625 47.4729 57.3627 47.3994 57.4083ZM47.3355 58.1821C47.4673 58.2788 47.4988 58.3727 47.4205 58.3729C47.3407 58.3841 47.2168 58.3108 47.1398 58.2217C46.9592 57.9951 47.064 57.9651 47.337 58.1711L47.3355 58.1821ZM47.0019 56.2568C47.1272 56.2408 47.2809 56.3406 47.3422 56.4611C47.4555 56.6894 47.4446 56.6879 47.1141 56.6527C46.5533 56.5851 46.4696 56.305 47.0019 56.2568ZM45.1381 58.0637C45.2307 58.1215 45.3061 58.2215 45.2969 58.2873C45.2876 58.3531 45.2045 58.3079 45.1212 58.1844C45.0175 58.0468 45.0346 58.0045 45.1381 58.0637ZM45.4079 55.0267C45.4079 55.0267 45.6085 55.1107 45.8092 55.1948C45.9989 55.2773 46.1574 55.4226 46.178 55.5149C46.1955 55.6292 46.1125 55.6623 45.9433 55.5938C45.8053 55.5409 45.6691 55.5553 45.6458 55.6415C45.6116 55.7262 45.516 55.6904 45.4108 55.5638C45.2584 55.3747 45.2605 54.9613 45.4079 55.0267ZM44.3506 57.4612C44.4881 57.3575 44.8567 57.5993 44.8854 57.7934C44.8919 57.9062 44.82 57.9408 44.693 57.8894C44.4156 57.7946 44.2255 57.5555 44.3615 57.4627L44.3506 57.4612ZM44.6867 54.6683C44.7867 54.5928 45.2178 54.7875 45.2009 54.9082C45.1963 54.9411 45.0537 54.921 44.8829 54.8635C44.7121 54.806 44.6241 54.7154 44.6757 54.6667L44.6867 54.6683ZM43.8194 56.0672C44.1282 56.1776 44.3386 56.4308 44.1226 56.4564C44.0318 56.466 43.8781 56.3662 43.7634 56.2271C43.6126 56.027 43.6172 55.9941 43.8084 56.0657L43.8194 56.0672ZM42.6119 55.9872C42.7983 56.0133 43.304 56.6322 43.1443 56.6545C43.077 56.6563 42.8966 56.5079 42.7442 56.3188C42.5918 56.1297 42.5351 55.9764 42.6009 55.9856L42.6119 55.9872ZM40.4911 54.5266C40.5786 54.4606 40.7652 54.5651 40.9395 54.7573C41.2285 55.0886 41.2269 55.0995 40.9026 55.0205C40.4936 54.9071 40.291 54.6774 40.4801 54.5251L40.4911 54.5266ZM39.6514 53.7379C39.7139 53.6907 39.811 53.7155 39.8676 53.7906C39.9351 53.8671 40.1031 54.0249 40.2662 54.1372C40.4686 54.2886 40.4922 54.3591 40.356 54.3735C40.2543 54.3816 40.1492 54.3333 40.149 54.255C40.1379 54.1751 40.0563 54.119 39.9655 54.1286C39.7495 54.1542 39.5123 53.8525 39.6514 53.7379ZM38.9702 51.8197C39.1412 51.9555 39.2762 52.1086 39.281 52.154C39.2549 52.3404 38.7076 52.0176 38.682 51.8016C38.6612 51.6309 38.738 51.6417 38.9811 51.8212L38.9702 51.8197ZM38.0833 52.8804C37.9906 52.7444 37.9967 52.7005 38.1002 52.7598C38.1928 52.8175 38.2682 52.9175 38.2589 52.9833C38.2497 53.0491 38.1776 53.0055 38.0833 52.8804ZM37.8107 53.4683C37.9015 53.4587 37.9892 53.471 38.019 53.4976C38.0379 53.5226 38.0067 53.5853 37.9442 53.6324C37.8817 53.6795 37.794 53.6672 37.7359 53.6032C37.6887 53.5407 37.7199 53.4779 37.8107 53.4683ZM34.9245 48.9372C35.017 48.9949 35.0924 49.0949 35.0832 49.1607C35.074 49.2265 35.0018 49.1829 34.9076 49.0578C34.8148 48.9218 34.821 48.8779 34.9245 48.9372ZM33.1319 47.847C33.207 47.7904 34.4332 48.4545 34.5746 48.6421C34.8589 49.0063 34.4343 48.9243 33.8351 48.4936C33.1448 47.9941 33.0554 47.9145 33.1304 47.8579L33.1319 47.847ZM32.858 48.5241C32.8922 48.4395 32.9626 48.4158 33.0082 48.4893C33.0554 48.5518 33.054 48.6411 32.979 48.6977C32.9165 48.7448 32.8476 48.7575 32.8287 48.7325C32.8099 48.7075 32.8128 48.6072 32.858 48.5241ZM32.5812 47.3895C32.0731 47.1057 31.9569 46.9776 32.0944 46.8739C32.232 46.7702 32.9801 47.2554 33.0057 47.4714C33.0153 47.5622 32.8289 47.5361 32.5906 47.402L32.5812 47.3895ZM32.1044 47.7587L31.8986 47.4726L32.2045 47.6832C32.3786 47.7971 32.5794 47.9595 32.6564 48.0486C32.782 48.1892 32.7695 48.1986 32.5563 48.124C32.4278 48.0836 32.2285 47.9103 32.1044 47.7587ZM31.8392 48.1351C31.8392 48.1351 31.9894 48.1003 32.0475 48.1644C32.0946 48.2269 32.0635 48.2896 31.9727 48.2992C31.8819 48.3089 31.7941 48.2965 31.7643 48.27C31.7455 48.245 31.7766 48.1823 31.8392 48.1351ZM31.0976 44.5759C31.0976 44.5759 30.9925 44.5277 30.9265 44.4401C30.8496 44.3511 30.8431 44.2383 30.9056 44.1912C30.9681 44.1441 31.0481 44.2112 31.0766 44.327C31.116 44.4444 31.1226 44.5571 31.0976 44.5759ZM27.7573 43.917C27.8498 43.9747 27.9252 44.0748 27.916 44.1406C27.9068 44.2063 27.8346 44.1627 27.7404 44.0376C27.6477 43.9016 27.6538 43.8578 27.7573 43.917ZM27.9297 27.9515C27.8825 27.889 27.9199 27.7824 28.0089 27.7055C28.098 27.6285 28.2107 27.622 28.2688 27.6861C28.316 27.7486 28.2786 27.8552 28.1896 27.9321C28.1005 28.0091 27.9768 28.0141 27.9297 27.9515ZM26.7344 44.4331C27.2267 44.67 27.4685 44.9387 27.3406 45.1332C27.2704 45.2352 27.203 45.2369 27.1651 45.1086C27.1242 45.0022 26.8951 44.8023 26.6567 44.6682C26.169 44.3985 26.2312 44.1948 26.7344 44.4331ZM26.8159 34.8508C27.0085 34.8331 27.4956 35.5053 27.3674 35.6215C27.2268 35.7471 27.1468 35.6799 27.1149 35.4295C27.1004 35.2933 26.981 35.1088 26.8586 35.0245C26.7159 34.9262 26.6922 34.8558 26.8159 34.8508ZM26.0635 34.5551C26.1543 34.5455 26.2907 34.6093 26.3567 34.6969C26.4227 34.7844 26.4292 34.8971 26.3667 34.9443C26.3042 34.9914 26.1803 34.9181 26.0735 34.8025C25.9793 34.6775 25.9727 34.5647 26.0526 34.5536L26.0635 34.5551ZM26.7675 27.8667C26.8583 27.8571 26.9759 27.8959 27.012 27.9569C27.0592 28.0194 27.0468 28.1072 26.9843 28.1543C26.9218 28.2014 26.8152 28.1641 26.7398 28.0641C26.6644 27.964 26.6752 27.8873 26.766 27.8777L26.7675 27.8667ZM25.2787 28.0379C25.3412 27.9908 25.4305 27.9921 25.4682 28.0421C25.5059 28.0921 25.6625 28.0918 25.8174 28.024C25.9597 27.9658 26.1461 27.9919 26.2231 28.081C26.3377 28.2201 26.3097 28.2609 26.0592 28.2928C25.6725 28.3392 25.1286 28.151 25.2802 28.0269L25.2787 28.0379ZM22.0352 28.5219C22.1098 28.3087 22.3619 28.2658 22.3326 28.4742C22.3234 28.54 22.2327 28.6279 22.1389 28.6594C21.9981 28.7068 21.9792 28.6817 22.0352 28.5219ZM21.1693 28.5569C21.2318 28.5097 21.3461 28.4922 21.4417 28.528C21.5263 28.5623 21.55 28.6327 21.4875 28.6798C21.425 28.7269 21.2997 28.7429 21.2151 28.7087C21.1304 28.6744 21.1052 28.615 21.1678 28.5678L21.1693 28.5569ZM20.3113 28.6154C20.3455 28.5307 20.5037 28.5194 20.6824 28.6004C20.9457 28.7156 20.9631 28.7516 20.7691 28.8585C20.5048 28.9891 20.2336 28.8504 20.3097 28.6263L20.3113 28.6154ZM19.7276 28.7906C19.7901 28.7435 19.9154 28.7275 20 28.7618C20.0862 28.785 20.1099 28.8554 20.0473 28.9026C19.9848 28.9497 19.8596 28.9657 19.7749 28.9314C19.6903 28.8972 19.6651 28.8377 19.7276 28.7906ZM18.6097 28.8685C18.9367 28.769 19.2709 29.0172 18.9956 29.1463C18.8752 29.2077 18.6888 29.1815 18.5899 29.0894C18.4612 28.9707 18.4704 28.9049 18.6222 28.8591L18.6097 28.8685ZM17.2336 29.0332C17.3244 29.0235 17.442 29.0624 17.4781 29.1234C17.5253 29.1859 17.5129 29.2736 17.4504 29.3208C17.3879 29.3679 17.2813 29.3306 17.2059 29.2305C17.1305 29.1305 17.1428 29.0428 17.2336 29.0332ZM15.8922 29.2698C16.0688 29.1268 16.5824 29.1318 16.7065 29.2834C16.8211 29.4225 16.7711 29.4602 16.4125 29.4658C16.0086 29.4762 15.7546 29.3735 15.9031 29.2713L15.8922 29.2698ZM12.0538 29.2118C12.0708 29.0912 12.1221 28.9642 12.1737 28.9156C12.3128 28.8009 12.6887 29.4687 12.5763 29.6318C12.4499 29.8153 12.0169 29.475 12.0538 29.2118ZM44.3865 38.8825C44.4773 38.8728 44.5574 38.94 44.5685 39.0198C44.5926 39.2468 44.4987 39.2784 44.3479 39.0783C44.2724 38.9783 44.2848 38.8905 44.3756 38.8809L44.3865 38.8825ZM38.6244 37.2351C38.5773 37.1725 38.5896 37.0848 38.6521 37.0377C38.7147 36.9906 38.8024 37.0029 38.8495 37.0654C38.8967 37.1279 38.8843 37.2156 38.8218 37.2628C38.7593 37.3099 38.6716 37.2976 38.6244 37.2351ZM43.2553 38.6566C43.1538 38.743 42.5738 38.4938 42.4293 38.3282C42.2675 38.1266 42.7125 38.2226 42.8643 38.1768C42.9816 38.1374 43.1132 38.1558 43.1603 38.2184C43.209 38.2699 43.3108 38.2618 43.3983 38.1959C43.6234 38.0262 44.058 38.3555 44.0572 38.6797C44.0456 39.0806 43.8813 39.1358 43.6347 38.8217C43.5027 38.6466 43.3539 38.5922 43.2538 38.6676L43.2553 38.6566ZM36.1026 36.322C36.1026 36.322 36.0489 36.1468 36.0831 36.0621C36.1174 35.9775 36.224 36.0148 36.3292 36.1414C36.4344 36.268 36.441 36.3807 36.3486 36.4013C36.2578 36.4109 36.1512 36.3736 36.1026 36.322ZM50.3778 40.7297C50.3023 40.6297 50.3131 40.553 50.4039 40.5433C50.4947 40.5337 50.6123 40.5726 50.6484 40.6336C50.6956 40.6961 50.6848 40.7728 50.6207 40.8309C50.5582 40.8781 50.4407 40.8392 50.3653 40.7392L50.3778 40.7297ZM62.3623 45.2856C62.2363 44.9884 62.3769 44.8627 62.6545 45.0359C62.8913 45.1809 62.9363 45.6569 62.7093 45.6809C62.5622 45.6938 62.5323 45.6673 62.3623 45.2856ZM32.157 45.5521C31.8263 45.4386 31.7995 45.3901 31.8705 44.964C31.9013 44.7447 31.9825 44.6442 32.0391 44.7193C32.0956 44.7943 32.0927 44.8945 32.0302 44.9417C31.9677 44.9888 32.0214 45.1641 32.1533 45.3391C32.3434 45.5782 32.3372 45.6221 32.1554 45.563L32.157 45.5521ZM61.355 44.4957C61.455 44.4203 61.9962 44.7869 62.0185 44.9466C62.0297 45.0265 61.9373 45.047 61.8198 45.0082C61.5847 44.9305 61.255 44.5711 61.355 44.4957ZM55.631 43.0549C55.4727 42.9879 55.3284 42.9006 55.3205 42.8771C55.3236 42.8552 55.1993 42.6253 55.0781 42.3735C54.85 41.9277 54.85 41.9277 55.1824 42.1086C55.8865 42.5093 56.034 42.653 55.9752 42.9131C55.924 43.1184 55.8645 43.1436 55.6216 43.0424L55.631 43.0549Z" fill="white"/>
</g>
<defs>
<clipPath id="clip0_6196_2248">
<rect width="221.295" height="73.8239" fill="white" transform="matrix(-0.990292 -0.139 -0.139 0.990292 229.408 30.7598)"/>
</clipPath>
</defs>
</svg>
