<svg width="109" height="98" viewBox="0 0 109 98" fill="none" xmlns="http://www.w3.org/2000/svg">
<g clip-path="url(#clip0_6299_5023)">
<path d="M22.4273 70.9739C22.2736 71.1018 22.2132 71.0948 22.2765 70.9615C22.3404 70.8381 22.4562 70.7522 22.5361 70.7482C22.616 70.7441 22.5711 70.8465 22.4268 70.9639L22.4273 70.9739ZM21.1459 71.9697C21.0654 71.9637 20.9501 72.0597 20.8858 72.1731C20.8224 72.3064 20.8728 72.3139 21.0366 72.1855C21.1808 72.0681 21.2263 71.9757 21.1459 71.9697ZM18.491 75.1174C18.3347 75.1953 18.1335 75.3757 18.0407 75.5206C17.9479 75.6654 18.0747 75.5989 18.3238 75.3761C18.5729 75.1533 18.6472 75.0394 18.501 75.1169L18.491 75.1174ZM15.8098 77.5454C15.7249 77.4496 14.4164 78.3066 14.3755 78.4889C14.3675 78.5293 14.4305 78.5862 14.5219 78.6116C14.7351 78.671 15.9272 77.6897 15.8098 77.5454ZM17.5475 76.0661C17.3438 75.9962 15.9271 77.2892 16.1403 77.3486C16.1403 77.3486 16.7909 77.1455 16.8483 77.0926C16.9057 77.0396 17.7518 76.1459 17.5475 76.0661ZM18.8764 76.2093C18.9818 76.1139 19.0247 75.9716 18.9612 75.9047C18.8978 75.8378 18.7969 75.8229 18.72 75.8868C18.6531 75.9503 18.6097 76.0826 18.6352 76.1915C18.6508 76.3008 18.7616 76.3153 18.8664 76.2098L18.8764 76.2093ZM21.7973 71.3862C21.641 71.4641 21.4398 71.6445 21.347 71.7893C21.2542 71.9342 21.381 71.8677 21.6201 71.6454C21.8692 71.4226 21.9436 71.3087 21.7973 71.3862ZM22.9858 70.1347C22.9059 70.1388 22.7901 70.2247 22.7262 70.3481C22.6628 70.4814 22.7133 70.4889 22.877 70.3605C23.0213 70.2431 23.0667 70.1507 22.9863 70.1447L22.9858 70.1347ZM31.5268 58.4198C31.5268 58.4198 31.3979 58.4463 31.2926 58.5418C31.1873 58.6372 31.1539 58.769 31.2073 58.8364C31.2708 58.9033 31.3781 58.8479 31.4415 58.7145C31.5148 58.5806 31.5482 58.4488 31.5268 58.4198ZM29.9802 62.1024C30.0151 62.0005 29.9497 61.8936 29.8478 61.8587C29.7464 61.8338 29.6391 61.8893 29.6141 61.9907C29.5892 62.092 29.6447 62.1994 29.7466 62.2343C29.8485 62.2692 29.9553 62.2037 29.9802 62.1024ZM35.3795 51.2267C35.0848 51.1414 34.9456 51.3587 34.8789 52.0229C34.8461 52.365 34.8871 52.5832 34.9835 52.5083C35.271 52.2535 35.5728 51.2871 35.3795 51.2267ZM98.6993 2.75701C98.6993 2.75701 98.6973 2.71706 98.6983 2.73703C98.6983 2.73703 98.6988 2.74702 98.6993 2.75701ZM23.6058 69.723C23.5424 69.6561 23.432 69.6517 23.3552 69.7156C23.2783 69.7796 23.3023 69.8584 23.4142 69.8929C23.526 69.9273 23.6364 69.9317 23.6648 69.9002C23.6933 69.8688 23.6693 69.7899 23.6058 69.723ZM27.1315 66.171C27.0785 66.1136 26.9592 66.1296 26.8728 66.204C26.7864 66.2785 26.4949 66.4534 26.2313 66.5868C25.8019 66.8087 25.7929 66.8292 26.126 66.8825C26.4996 66.9438 27.3118 66.3721 27.1415 66.1705L27.1315 66.171ZM28.5601 63.5257C28.5451 63.4263 28.4377 63.4818 28.3254 63.6376C28.2136 63.8035 28.1513 63.9568 28.1728 63.9858C28.2582 64.0916 28.5886 63.6944 28.5601 63.5257ZM61.0255 63.4109C60.9711 63.5237 61.0695 63.4887 61.2417 63.3299C61.4239 63.1705 61.4693 63.0781 61.3415 63.1246C61.2236 63.1706 61.0799 63.298 61.0155 63.4114L61.0255 63.4109ZM56.4357 65.9151C56.58 65.7977 56.6254 65.7053 56.545 65.6994C56.4651 65.7034 56.3493 65.7893 56.2854 65.9127C56.2221 66.0461 56.2725 66.0535 56.4363 65.9251L56.4357 65.9151ZM58.6336 65.0233C59.0735 64.8109 59.4115 64.5636 59.3975 64.4842C59.3479 64.2964 59.4363 64.262 58.4373 64.9031C57.4578 65.5332 57.5198 65.5701 58.6336 65.0233ZM55.6311 66.6366C55.7753 66.5192 55.8207 66.4267 55.7403 66.4208C55.6604 66.4248 55.5446 66.5108 55.4807 66.6341C55.4174 66.7675 55.4678 66.775 55.6316 66.6466L55.6311 66.6366ZM9.09967 83.4708C9.03622 83.4039 8.95733 83.4279 8.92241 83.5298C8.888 83.6417 8.91503 83.7805 8.97898 83.8574C9.04242 83.9243 9.12132 83.9003 9.14574 83.7889C9.18065 83.687 9.15312 83.5382 9.08968 83.4713L9.09967 83.4708ZM51.8962 69.0176C51.8328 68.9508 51.7219 68.9363 51.655 68.9998C51.5881 69.0632 51.5737 69.1741 51.6371 69.241C51.7006 69.3079 51.8114 69.3223 51.8783 69.2588C51.9452 69.1954 51.9597 69.0845 51.8962 69.0176ZM46.3137 95.5224C45.1586 95.4504 43.659 95.496 42.6143 95.6287C42.5544 95.6318 42.4845 95.6353 42.4151 95.6488C42.0366 95.6879 41.5772 95.7111 41.3065 95.7047C40.9854 95.6909 40.168 95.7621 39.4808 95.8368C38.7942 95.9215 34.2278 95.7111 33.6007 95.7828C31.6996 96.0088 27.4842 95.6105 26.9009 95.5598C23.2708 95.2522 19.5513 94.7589 18.938 94.7097C18.3148 94.661 17.3329 94.4502 16.7516 94.2392C15.6203 93.8457 13.3279 93.2604 12.5728 93.1783C12.3211 93.1509 9.67317 92.4634 9.342 92.2498C9.01082 92.0362 8.48384 91.7123 8.16518 91.5481C7.82552 91.365 7.57324 91.1274 7.54471 90.9586C7.51668 90.7998 7.35781 90.6276 7.17451 90.5668C6.62362 90.3642 6.37125 89.9264 6.43889 89.2822C6.50008 88.7084 6.47759 88.6594 6.12904 88.697C5.79996 88.7236 5.72652 88.6572 5.44512 88.0406C5.27567 87.6587 5.19712 87.2922 5.26401 87.2287C5.46518 87.0484 2.61192 86.261 5.06537 85.076C5.26058 84.976 5.95685 84.0899 6.88039 83.3424C7.57279 82.7768 7.7852 83.2167 8.57906 82.8763C9.5292 82.4579 11.8066 80.5608 11.6052 80.3407C11.5418 80.2738 11.2492 80.4287 10.9422 80.6945C10.5493 81.0448 10.4215 81.0912 10.4814 80.888C10.618 80.4205 11.6732 79.306 12.2689 79.0056C12.7472 78.7612 12.858 78.7756 13.0954 79.1141C13.2683 79.3657 13.3916 79.4296 13.435 79.2972C13.5203 79.0026 14.1294 78.7716 14.2504 78.9858C14.3053 79.0831 14.4746 79.0646 14.6184 78.9372C14.8101 78.7673 14.9519 78.8002 15.1637 79.0299L15.45 79.3458L16.7414 78.1493C17.4492 77.4928 18.1041 76.779 18.1929 76.5542C18.3261 76.2171 18.3451 76.1961 18.3382 76.4568C18.3249 76.9881 18.4858 77 19.0419 76.5114C19.4542 76.1502 19.5176 76.0168 19.3322 75.916C18.9826 75.7334 19.2166 75.211 19.7274 75.015C19.9536 74.9335 20.2236 74.7296 20.316 74.5748C20.4083 74.4199 20.5735 74.3215 20.6854 74.3559C20.9906 74.4507 21.6385 73.7972 21.7906 73.2388C21.8918 72.8633 22.2796 72.4132 23.3414 71.4285C24.7091 70.158 25.3285 69.3358 25.1057 69.0867C25.0423 69.0198 24.7951 69.0823 24.542 69.2252C23.5584 69.7754 23.7854 69.1132 25.0133 67.8497C25.6697 67.1658 25.8539 67.0464 25.9329 67.2226C26.0009 67.3794 25.8507 67.5772 25.5037 67.845C25.0694 68.1673 25.014 68.2602 25.2397 68.369C25.4046 68.4608 25.4301 68.5697 25.3053 68.6761C25.2 68.7715 25.1955 68.8819 25.3069 68.9063C25.4188 68.9407 25.8641 68.6379 26.3148 68.2447C26.9473 67.6822 27.106 67.4539 27.025 67.2377C26.9441 67.0215 26.991 66.959 27.2307 66.9469C27.4104 66.9379 27.5268 66.8619 27.5112 66.7526C27.4962 66.6532 27.6324 66.376 27.8106 66.1367C27.9888 65.8974 28.0581 65.6837 27.9667 65.6583C27.7634 65.5984 27.4669 64.6822 27.6107 64.5548C27.6681 64.5018 27.9532 64.3973 28.2498 64.3223C28.7641 64.1963 29.1639 63.7856 28.9731 63.5749C28.9306 63.527 29.2356 63.2213 29.6605 62.9095C30.0848 62.5877 30.5036 62.1561 30.5934 61.9513C30.6827 61.7365 30.8284 61.4488 30.9207 61.294C31.1423 60.9224 30.911 60.7037 30.5845 60.9805C30.4407 61.1079 30.283 61.1559 30.23 61.0985C30.177 61.0411 30.4475 60.647 30.8364 60.2169C31.2257 59.7967 31.628 59.2358 31.7447 58.9695C31.8515 58.7038 32.2961 57.9905 32.7258 57.3781C33.2209 56.6723 33.439 56.2308 33.3156 56.1669C33.2127 56.112 33.1996 55.8523 33.2969 55.5971C33.4381 55.2195 33.9623 53.9015 34.6751 53.1446C34.9696 52.8294 35.2706 52.4437 35.3529 52.2894C35.6254 51.735 36.1796 51.6069 36.7581 51.9582C37.2226 52.2352 37.288 52.342 37.2008 52.5967C37.1045 52.8719 37.1454 52.8899 37.535 52.8703C37.9045 52.8516 37.9559 52.8791 37.8886 53.1328C37.771 53.5793 38.0975 53.5027 38.2646 53.0437C38.3439 52.8295 38.4739 53.0232 38.5693 53.1285C38.6862 53.2628 39.8 54.8988 39.8361 55.4176C39.8517 55.7272 39.9493 56.0728 40.0552 56.1876C40.1611 56.3024 40.1812 56.5016 40.1078 56.6355C40.0345 56.7694 40.3353 57.375 40.3514 57.6946C40.3615 57.8943 40.2862 58.1885 40.1844 58.3538C40.0826 58.5191 40.0832 58.7294 40.1686 58.8352C40.2536 58.9311 40.2397 59.2522 40.124 59.5384C40.0088 59.8345 40.0149 60.1546 40.1308 60.2689C40.2782 60.4117 40.2383 60.614 40.0137 60.9257C39.836 61.1749 39.5616 61.6894 39.4114 62.0875C39.0228 63.1183 37.5762 65.6043 37.1644 65.9755C36.6562 66.4217 34.8847 69.6149 34.4918 69.9652C33.8115 70.5702 32.2037 72.4435 30.7563 74.3188C29.5999 75.8089 29.2684 76.1861 28.1233 77.3051C27.5698 77.8437 27.1745 78.3442 27.2194 78.4421C27.2754 78.5594 27.1007 78.6684 26.7152 78.7679C26.1714 78.9055 26.133 78.9374 26.1706 79.286C26.1822 79.5157 26.0824 79.721 25.8772 79.8214C25.7014 79.9104 25.5697 80.0772 25.5852 80.1866C25.6007 80.296 25.4305 80.4948 25.2069 80.6262C24.6038 80.977 24.3378 81.461 24.5826 81.7491C24.6995 81.8833 24.8434 81.9562 24.9018 81.9232C25.6866 81.403 25.9327 81.1203 25.9405 80.6793C25.9483 80.2384 25.9672 80.2174 26.1576 80.4181C26.2745 80.5524 26.4053 80.5658 26.4692 80.4424C26.5336 80.329 26.7363 80.1786 26.923 80.1091C27.2181 80.0042 27.2386 80.0131 27.0574 80.1925C26.9331 80.3089 26.9117 80.4802 26.9971 80.586C27.082 80.6819 27.1106 80.8506 27.0552 80.9435C26.9354 81.1498 27.7316 81.4501 27.9327 81.2698C27.9996 81.2063 27.9267 81.1499 27.7764 81.1475C27.5656 81.1381 27.4777 80.9823 27.434 80.5139C27.3919 80.0755 27.4433 79.9027 27.634 79.9131C27.7749 79.926 27.9816 79.8555 28.0769 79.7606C28.1823 79.6652 28.5408 79.6271 28.8729 79.6604C29.2654 79.7007 29.552 79.6262 29.6728 79.4398C29.7751 79.2845 29.9998 79.173 30.1716 79.2044C30.3429 79.2258 30.5611 79.1848 30.6664 79.0894C30.7722 79.0039 31.2541 78.8294 31.7389 78.7149C32.2337 78.5998 32.7061 78.4358 32.7919 78.3514C32.8783 78.277 33.103 78.1655 33.2812 78.1265C33.6867 78.0259 34.3952 77.78 34.7772 77.6105C34.9339 77.5425 35.1667 77.5909 35.2836 77.7252C35.4534 77.9168 35.4185 78.0187 35.1075 78.2046C34.8159 78.3795 34.7705 78.4719 34.9254 78.5643C35.0493 78.6381 35.2575 78.5976 35.4017 78.4802C35.9119 78.074 36.0198 78.0285 36.1262 78.1533C36.1896 78.2202 36.0894 78.4155 35.9071 78.5748C35.696 78.7557 35.6436 78.9085 35.7675 78.9824C35.8914 79.0562 36.2324 78.8688 36.6647 78.5066C37.2597 77.996 37.3056 77.9136 36.997 77.9492C36.7379 77.9722 36.5416 77.852 36.3462 77.5514C35.9769 76.9793 35.8356 76.9564 34.7815 77.2999C34.2892 77.4649 33.717 77.6339 33.5088 77.6745C32.0922 77.9762 30.5233 78.4357 29.65 78.7902C28.7084 79.1781 27.4286 79.4128 27.7261 79.1575C27.793 79.094 28.3932 78.8836 29.0538 78.68C30.5822 78.2125 30.9191 77.9452 30.0941 77.8666C29.7725 77.8428 29.5488 77.774 29.6062 77.721C29.6636 77.6681 30.4325 77.429 31.3018 77.195C32.1806 76.9504 33.0574 76.6659 33.2616 76.5455C33.4658 76.425 33.7345 76.3915 33.8483 76.4658C34.1475 76.641 33.3667 77.0408 32.6476 77.0771C32.348 77.0922 31.9935 77.2102 31.8592 77.3271C31.3994 77.7407 31.9817 77.7715 33.0243 77.3985C33.9784 77.06 34.3089 76.8631 35.871 75.673C36.3243 75.3297 37.648 74.9726 37.8074 75.1548C37.8288 75.1838 37.2527 75.4731 36.5182 75.8005C35.7938 76.1274 35.1512 76.4903 35.0963 76.5931C35.0415 76.696 35.7855 76.5584 36.7437 76.2998C37.7113 76.0308 38.3465 75.9186 38.1528 76.0486C37.9691 76.178 37.8488 76.3743 37.8943 76.4821C38.0078 76.7467 38.7741 76.2575 38.8938 75.851C38.9616 75.6073 39.1942 75.4554 39.7545 75.2469C40.4725 74.9904 43.8057 73.5808 45.695 72.7246C46.1648 72.5107 46.6426 72.2563 46.7674 72.1499C46.8822 72.0439 47.3735 71.859 47.8584 71.7444C48.3432 71.6299 49.1945 71.2365 49.7666 70.8672C50.6882 70.2801 51.4981 69.8588 53.0828 69.118C53.3664 68.9836 53.907 68.5858 54.2894 68.2261C54.7861 67.7505 55.0976 67.5746 55.3793 67.6005C55.6 67.6094 55.8482 67.5668 55.9345 67.4924C56.0209 67.4179 56.5146 67.0826 57.0383 66.7458C57.562 66.409 58.3653 65.8579 58.8291 65.5241C60.162 64.5558 60.4716 64.3399 61.161 63.9147C61.6173 63.6313 61.788 63.4425 61.759 63.2637C61.7315 63.1149 61.8533 62.9486 62.0689 62.8576C62.2647 62.7676 62.4355 62.7791 62.45 62.8684C62.4645 62.9578 62.7196 62.8549 63.0192 62.6395C63.4151 62.3492 63.5084 62.2143 63.3545 62.142C63.2002 62.0596 63.3404 61.8623 63.8576 61.3957C64.519 60.8117 64.6174 60.7767 65.1468 60.9502C65.7167 61.1318 66.0207 61.0063 66.3042 60.4713C66.4324 60.2346 66.391 60.2066 65.995 60.2967C65.203 60.4768 65.9 60.0011 66.7598 59.7775C67.7974 59.5049 68.5086 57.3264 68.5086 57.3264L69.3465 57.0638C69.9182 56.8848 70.4913 56.5355 71.1637 55.9709C72.4701 54.8738 72.3528 54.9298 73.2342 54.9354C74.0857 54.9425 74.3682 54.7881 74.2293 54.4146C74.1138 54.1101 73.9125 54.0902 73.616 54.3654C73.4817 54.4823 73.3229 54.5104 73.249 54.434C73.1641 54.3382 73.4106 54.0654 74.0082 53.6047C74.4899 53.23 74.8523 52.8713 74.7994 52.8139C74.7464 52.7565 74.7713 52.6551 74.8482 52.5911C74.9251 52.5272 75.0161 52.7429 75.0532 53.0814C75.0903 53.42 75.1563 53.7371 75.1988 53.785C75.3472 53.9477 76.2206 52.8023 76.2414 52.4208C76.2648 52.0892 76.2043 52.0822 75.716 52.3271C75.2178 52.5725 75.2357 52.5316 75.9985 51.7722C76.4562 51.3186 76.8606 50.9978 76.913 51.0452C76.966 51.1026 77.0559 51.0981 77.1227 51.0346C77.1896 50.9712 77.1342 50.8639 77.0008 50.8005C76.795 50.6907 76.9168 50.5244 77.7315 49.8024C78.2681 49.3248 78.7618 48.9895 78.8148 49.0469C78.9527 49.2002 78.4536 49.8261 78.146 49.8817C78.0072 49.9087 77.8719 50.0056 77.8365 50.0975C77.7502 50.3722 78.2929 50.2147 78.7148 49.843C79.3667 49.2694 79.5568 48.8693 79.2681 48.7037C79.0518 48.5844 79.0603 48.5539 79.321 48.5608C79.4913 48.5623 79.7564 48.4588 79.8897 48.3219C80.0617 48.1597 80.0296 48.1179 79.7932 48.1966C79.5176 48.2906 79.4667 48.2731 79.5775 48.0873C79.9552 47.4375 81.8849 45.1975 82.1629 44.9532C82.7385 44.4535 83.852 43.1058 83.9373 42.8111C84.0914 42.2927 84.4428 41.9145 85.2017 41.4757C85.5911 41.2558 85.6455 41.143 85.5126 40.8893C85.3901 40.6452 85.4714 40.4709 85.8927 40.0892C86.1898 39.8239 86.4428 39.4807 86.4747 39.3189C86.536 38.9453 87.5407 37.6231 88.1367 37.1324C88.4248 36.8876 88.6473 36.536 88.7111 36.2124C88.7659 35.9092 89.2734 35.0526 89.9118 34.2094C90.5217 33.3976 91.2009 32.3721 91.419 31.9306C91.647 31.4885 91.9724 30.9915 92.1641 30.8217C92.3458 30.6523 92.5689 30.3106 92.6556 30.0459C92.7429 29.7912 92.9365 29.461 93.0803 29.3336C93.3294 29.1108 93.5115 28.7512 94.4316 26.7423C94.6027 26.3632 94.9166 25.8367 95.1132 25.5665C95.3198 25.2958 95.2408 24.9193 95.3101 24.7055C95.3794 24.4917 95.559 24.0822 95.7252 23.8034C96.4243 22.5767 97.7433 17.9544 97.844 16.3773C97.8599 16.0962 97.9267 15.8325 97.9841 15.7795C98.1852 15.5992 98.1478 14.4596 98.2905 14.112C98.3793 13.8872 98.47 13.5022 98.4974 13.2505C98.5247 12.9988 98.6725 11.7598 98.8193 10.5008C98.9661 9.24179 99.0958 7.64324 99.1015 6.96209C99.1303 4.15708 98.6129 4.02296 98.6923 4.00894C98.891 3.9789 98.7534 3.23489 98.6774 2.91831C98.6749 2.86838 98.6529 2.82943 98.6519 2.80946C98.6764 2.89834 98.7093 2.95675 98.7383 2.93527C98.7668 2.90379 98.3151 1.29449 98.2211 0.818625C98.0609 0.0256821 98.6454 0.496851 98.9765 0.510197C99.0564 0.506169 99.6263 0.887956 99.7928 1.20998C99.9152 1.45413 100.145 1.6428 100.337 1.67318C100.609 1.71951 100.925 2.4245 101.252 2.35795C101.906 2.21485 103.652 5.66132 103.65 5.82163C103.657 5.97144 103.816 6.33392 104.02 6.61398C104.532 7.229 104.695 7.89161 104.683 9.03368C104.678 9.53456 104.732 10.0124 104.786 10.0898C104.85 10.1667 104.865 10.6666 104.823 11.2094C104.78 11.7522 104.489 13.3289 104.518 14.6992C104.557 16.0689 104.517 17.653 104.425 18.2183C104.333 18.7837 104.215 19.6207 104.169 20.0936C104.123 20.5665 103.947 21.4465 103.787 22.0553C103.628 22.6641 103.443 23.5745 103.369 24.0789C103.126 25.8134 102.36 26.7131 102.12 27.3159C101.855 28.0102 102.002 28.1429 102.33 27.5056C102.458 27.2688 102.58 27.0925 102.601 27.1215C102.643 27.1694 102.338 28.0659 101.46 30.5032C100.968 31.8697 100.483 33.7765 98.7936 36.4049C98.0231 37.6053 97.4968 38.8834 97.2662 39.2755C97.0456 39.6671 96.5311 40.3839 96.1343 40.8545C95.738 41.335 95.8765 41.8988 95.7188 42.147C95.0242 43.2634 92.5148 46.9144 92.1451 47.7241C92.0194 48.0107 89.3621 51.3087 87.7359 53.213C87.0551 54.0083 85.9215 55.3571 85.2138 56.2138C82.8639 59.0557 74.3223 66.7856 73.2446 66.86C72.955 66.8746 71.5152 67.9084 70.722 68.6593C70.435 68.9241 69.1555 69.7596 67.8714 70.5052C66.5873 71.2508 66.0568 72.0485 65.611 72.3413C63.2745 73.8609 59.9782 75.2086 59.6248 75.5468C59.4051 75.7581 59.0736 75.935 58.8839 75.9446C58.6941 75.9542 58.4799 76.0751 58.4076 76.2289C58.3252 76.3833 58.1011 76.5047 57.9008 76.5048C57.7011 76.5149 57.2782 76.6664 56.9576 76.8627C56.6371 77.0591 55.6985 77.507 54.8557 77.8699C54.0229 78.2322 52.6244 78.8935 51.7557 79.3378C48.6232 80.9576 42.1598 83.2359 35.5433 85.0614C33.4596 85.637 31.6011 86.1112 31.4219 86.1303C31.2421 86.1393 30.5416 86.3449 29.8625 86.5793C29.1835 86.8138 28.0096 87.1634 27.2481 87.352C25.864 87.7021 25.4141 87.915 25.606 88.1456C25.7549 88.3184 26.8442 88.674 26.9495 88.5785C26.9974 88.5361 27.4868 88.5114 28.0481 88.5232C28.5994 88.5354 29.1177 88.4893 29.1946 88.4253C29.271 88.3514 29.6805 88.3307 30.103 88.3695C30.9275 88.4381 31.0778 88.4405 32.1823 88.3047C32.5803 88.2546 33.2185 88.2024 33.5985 88.1933C34.8085 88.1623 35.9455 88.075 36.2626 88.0089C36.4309 87.9704 36.6921 87.9873 36.8339 88.0202C36.9762 88.063 37.194 88.012 37.3188 87.9056C37.4435 87.7992 37.9929 87.7715 38.5377 87.8542C39.0926 87.9363 39.6518 87.9081 39.7861 87.7912C39.9199 87.6643 40.1097 87.6548 40.2046 87.7501C40.29 87.8559 40.6391 87.8283 40.9631 87.7018C41.2872 87.5754 41.6152 87.5288 41.6897 87.6151C41.7641 87.7015 42.0033 87.6794 42.218 87.5685C42.4327 87.4575 42.6929 87.4544 42.7783 87.5603C42.8737 87.6656 43.1249 87.683 43.3411 87.602C43.5573 87.521 44.174 87.4398 44.7038 87.4231C45.2337 87.4064 45.7215 87.3518 45.7789 87.2988C45.8363 87.2459 46.2143 87.1968 46.6143 87.1866C47.0143 87.1765 47.669 87.0534 48.0519 86.9039C48.5233 86.7199 48.8034 86.7158 48.9019 86.8811C49.0653 87.1432 49.6769 86.9621 49.7796 86.6165C49.8649 86.3219 50.8012 86.2246 51.045 86.4927C51.2249 86.6838 52.9317 86.5778 53.6602 86.3308C53.808 86.2833 54.0976 86.2687 54.2994 86.2986C54.7334 86.3668 55.5163 86.2072 55.2117 86.1224C55.0998 86.088 55.0433 85.9607 55.0777 85.8488C55.1116 85.7269 55.6699 85.6788 56.3441 85.7449C57.4507 85.8493 57.5891 85.8123 58.1457 85.3337C58.7018 84.8451 59.0798 84.796 58.8423 85.2485C58.7599 85.4028 58.8229 85.4597 59.1145 85.4851C59.4966 85.5159 60.9499 84.7517 61.0262 84.4775C61.0521 84.3961 61.168 84.3102 61.2873 84.2942C61.4461 84.2661 61.4796 84.3345 61.4287 84.5173C61.3085 84.9139 62.1135 84.7932 62.6411 84.3361C62.8813 84.1337 63.087 84.0432 63.102 84.1426C63.117 84.242 63.3408 84.3108 63.5994 84.2777C64.1867 84.2081 64.3309 84.0907 64.0222 83.926C63.8165 83.8162 63.8933 83.7523 64.5799 83.4673C65.3153 83.1599 65.3727 83.107 65.3466 82.7879C65.337 82.5981 65.4149 82.3539 65.5297 82.248C65.7788 82.0251 67.3638 82.0854 67.5761 82.325C67.6606 82.4109 67.9063 82.5186 68.139 82.567C68.6449 82.6716 69.6881 83.7004 69.7136 83.8093C69.7291 83.9186 69.9689 84.1068 70.2446 84.2131C70.5203 84.3193 70.78 84.5065 70.8365 84.6338C70.8825 84.7516 71.1093 84.8804 71.3405 84.8987C71.5722 84.9271 71.8 85.0758 71.858 85.2331C71.916 85.3904 72.1658 85.5781 72.4095 85.6459C72.7446 85.7391 74.4053 86.5065 75.0369 87.3157C75.6789 88.1344 75.3018 88.9945 75.108 89.1244C74.8854 89.2758 74.7671 89.5121 74.7902 89.7712C74.8384 90.3295 74.161 90.9945 73.3496 91.1856C72.9836 91.2741 72.5582 91.3756 72.4209 91.4326C71.7613 91.6561 70.2678 92.0218 67.5939 92.6072C66.0095 92.9574 64.4556 93.3161 64.149 93.3916C63.8429 93.4771 63.4459 93.5472 63.2562 93.5568C63.0764 93.5658 62.4517 93.6874 61.888 93.826C60.4245 94.1902 55.4709 94.8404 51.7033 95.1805C50.6467 95.2739 49.2115 95.4063 48.5244 95.481C47.8273 95.5562 46.8076 95.5876 46.2548 95.5453L46.3137 95.5224ZM66.305 82.9298C66.305 82.9298 66.2695 82.8214 66.1741 82.7161C66.0786 82.6108 65.9178 82.5989 65.8125 82.6943C65.477 82.9916 65.8152 83.1447 66.305 82.9298ZM50.5493 86.788C50.6646 86.6921 50.6975 86.5502 50.634 86.4833C50.5706 86.4165 50.4697 86.4015 50.4028 86.465C50.3359 86.5284 50.3025 86.6603 50.318 86.7696C50.3336 86.879 50.4444 86.8934 50.5493 86.788ZM83.4374 45.0091C83.5042 44.9456 83.5407 44.8737 83.5187 44.8347C83.4872 44.8063 83.3763 44.7919 83.267 44.8074C83.1576 44.8229 83.1217 44.9048 83.1857 44.9817C83.2496 45.0586 83.37 45.0625 83.4369 44.9991L83.4374 45.0091ZM82.2004 46.0927C82.3446 45.9753 82.39 45.8829 82.3096 45.8769C82.2297 45.881 82.1139 45.9669 82.05 46.0903C81.9867 46.2236 82.0371 46.2311 82.2009 46.1027L82.2004 46.0927ZM74.3355 55.3304C74.2825 55.273 74.0284 55.396 73.7793 55.6188C73.5113 55.8626 73.4005 56.0484 73.5123 56.0828C73.6242 56.1172 73.8494 56.0158 74.0221 55.8669C74.2138 55.697 74.4026 55.6675 74.5085 55.7823C74.6993 55.993 74.8536 55.875 75.2139 55.2761C75.4449 54.894 75.4449 54.894 74.9382 55.1699C74.6656 55.3238 74.389 55.3978 74.3355 55.3304ZM71.4357 56.7983C71.4936 56.7553 71.6873 56.6254 71.8611 56.4965C72.0353 56.3776 72.2405 56.2771 72.3104 56.2736C72.5112 56.2835 72.9778 55.6092 72.8714 55.4843C72.8184 55.4269 72.727 55.4015 72.6691 55.4445C71.5783 56.2504 71.1475 56.6426 71.233 56.7484C71.2964 56.8153 71.3878 56.8408 71.4457 56.7978L71.4357 56.7983ZM73.584 56.71C73.7283 56.5926 73.7737 56.5002 73.6933 56.4942C73.6134 56.4983 73.4976 56.5842 73.4337 56.7076C73.3703 56.8409 73.4208 56.8484 73.5845 56.72L73.584 56.71ZM69.7548 57.8142C70.4572 57.4484 70.8506 57.1082 70.7227 56.9544C70.6592 56.8875 70.3093 57.0954 69.9464 57.4441C69.3818 57.9632 69.3548 58.0246 69.7548 57.8142ZM70.944 58.365C70.9749 58.1833 70.9469 58.0245 70.8864 58.0175C70.7156 58.0061 70.6354 58.4006 70.7738 58.5639C70.8482 58.6502 70.9146 58.5768 70.944 58.365ZM72.2638 58.3285C72.4176 58.2006 72.4335 58.1197 72.3027 58.1063C71.9416 58.0945 71.3275 58.4258 71.4549 58.5696C71.5828 58.7233 71.8984 58.6273 72.2638 58.3285ZM70.203 59.7541C70.6133 59.3529 70.8758 58.9993 70.7944 58.9733C70.713 58.9474 70.4 59.0934 70.0994 59.2887C69.7989 59.4841 69.4494 59.702 69.3226 59.7685C69.1863 59.8454 69.1649 60.0167 69.2833 60.181C69.4572 60.4526 69.5256 60.4191 70.2125 59.7436L70.203 59.7541ZM68.3483 60.899C68.3638 61.0083 68.5031 60.9913 68.6374 60.8744C68.7812 60.747 68.882 60.5617 68.856 60.4428C68.8404 60.3335 68.7011 60.3505 68.5668 60.4674C68.4231 60.5948 68.3228 60.7901 68.3483 60.899ZM64.9672 61.3598C65.111 61.2324 65.1544 61.1 65.0425 61.0656C64.9406 61.0307 64.8048 61.1177 64.7315 61.2515C64.5583 61.5907 64.6507 61.6361 64.9572 61.3603L64.9672 61.3598ZM64.6734 62.0855C64.7503 62.0215 64.7547 61.9112 64.6907 61.8343C64.6273 61.7674 64.5554 61.731 64.5164 61.753C64.488 61.7845 64.4735 61.8953 64.4991 62.0042C64.5146 62.1135 64.5965 62.1495 64.6734 62.0855ZM64.0888 62.6056C64.0888 62.6056 64.1317 62.4633 64.1062 62.3544C64.0907 62.245 64.0088 62.2091 63.9319 62.2731C63.855 62.337 63.8506 62.4474 63.9145 62.5243C63.978 62.5912 64.0599 62.6271 64.0888 62.6056ZM65.8497 62.7771C66.0794 62.7656 66.333 62.6326 66.4169 62.5083C66.5002 62.3739 66.7803 62.1695 67.0544 62.0456C67.6805 61.7537 68.0229 61.396 67.9094 61.1314C67.8524 60.994 67.6847 61.0426 67.4356 61.2654C67.2249 61.4562 66.8819 61.6037 66.6807 61.5838C66.2687 61.5545 65.9881 61.7489 66.1575 61.9306C66.2209 61.9975 66.0822 62.2247 65.8525 62.4366C65.4602 62.7968 65.4607 62.8068 65.8597 62.7766L65.8497 62.7771ZM63.7397 63.6245C63.6228 63.4902 63.1894 63.6322 62.8918 63.8875C62.7291 64.0359 62.7511 64.0748 63.0233 64.1112C63.3863 64.1629 63.909 63.8062 63.7392 63.6145L63.7397 63.6245ZM62.097 65.3994C63.0071 64.7828 63.9177 64.1762 64.1214 64.0458C64.6935 63.6765 65.0918 63.2359 65.0129 63.0596C64.9679 62.9618 64.6479 63.1682 64.2091 63.6008C63.5691 64.2138 63.3934 64.3028 62.8905 64.258C62.5689 64.2342 62.1824 64.3138 62.0292 64.4516C61.5879 64.8343 61.2219 64.9229 61.01 64.6933C60.8507 64.5111 60.8312 64.522 60.8643 64.7807C60.8938 64.9695 60.9887 65.0648 61.1275 65.0378C61.2469 65.0218 61.3608 65.0961 61.3773 65.2254C61.4354 65.583 60.8642 65.9722 60.3509 65.918C59.8275 65.8643 58.9818 66.5678 59.1403 66.9302C59.2538 67.1949 60.0736 66.7731 62.0975 65.4094L62.097 65.3994ZM58.5688 67.71C58.76 67.5302 58.8144 67.4173 58.6966 67.4633C58.5787 67.5093 58.4059 67.4579 58.321 67.362C58.2361 67.2662 58.0753 67.2543 57.9699 67.3497C57.8646 67.4451 57.8742 67.6349 58.0016 67.7787C58.1719 67.9803 58.3113 67.9633 58.5788 67.7095L58.5688 67.71ZM56.7819 68.6111C56.8095 68.7599 57.3128 68.6144 57.9358 68.2626C57.9748 68.2406 57.7925 68.1997 57.5408 68.1724C57.0474 68.1171 56.7259 68.2935 56.7814 68.6011L56.7819 68.6111ZM54.7161 68.7453C54.7161 68.7453 54.5558 68.7434 54.408 68.7909C54.2507 68.8489 54.2243 68.9203 54.3356 68.9447C54.5184 68.9956 54.811 68.8407 54.7256 68.7348L54.7161 68.7453ZM54.711 69.837C54.6477 69.9703 54.7081 69.9773 54.8618 69.8494C55.0061 69.732 55.0515 69.6396 54.9711 69.6336C54.8912 69.6376 54.7754 69.7236 54.711 69.837ZM50.7914 70.9357C50.9886 70.8757 51.1654 70.8067 51.1848 70.7957C51.2043 70.7847 51.1808 70.7158 51.1074 70.6494C51.0439 70.5825 50.8667 70.6415 50.7139 70.7894C50.4464 71.0432 50.4469 71.0532 50.7914 70.9357ZM53.6342 70.7223C53.7301 70.6374 53.8499 70.6313 53.9139 70.7082C53.9773 70.7751 54.0847 70.7196 54.148 70.5863C54.2214 70.4524 54.3292 70.4069 54.4032 70.4833C54.4671 70.5601 54.5975 70.5636 54.6838 70.4892C54.7991 70.3932 54.7667 70.3448 54.5659 70.3349C54.4151 70.3225 54.2493 70.2107 54.2028 70.0829C54.1108 69.8472 53.9245 69.9267 53.5257 70.3573C53.4119 70.4832 53.1673 70.5956 52.987 70.5947C52.8072 70.6038 52.651 70.6817 52.646 70.7821C52.6361 70.9829 53.3851 70.9451 53.6248 70.7328L53.6342 70.7223ZM52.0575 71.4226C52.1244 71.3591 52.1004 71.2802 51.989 71.2558C51.8771 71.2214 51.7383 71.2484 51.6615 71.3124C51.5946 71.3758 51.6186 71.4547 51.7304 71.4891C51.8423 71.5235 51.9811 71.4965 52.058 71.4326L52.0575 71.4226ZM43.4638 75.14C43.4793 75.2494 43.6181 75.2223 43.7619 75.0949C43.9057 74.9675 44.009 74.8321 43.9775 74.8037C43.8711 74.6789 43.4248 74.9617 43.4633 75.13L43.4638 75.14ZM50.7209 71.9205C50.8262 71.8251 50.9011 71.7212 50.8691 71.6827C50.7522 71.5485 50.4496 71.7039 50.4792 71.8926C50.5047 72.0015 50.6056 72.0164 50.7109 71.921L50.7209 71.9205ZM48.1285 72.9323C48.1321 73.0022 48.2275 73.1076 48.3509 73.1714C48.5152 73.2533 48.7883 73.1093 49.2391 72.7161C49.5935 72.3979 49.8196 72.1161 49.7482 72.0897C49.5549 72.0294 48.14 72.7615 48.128 72.9223L48.1285 72.9323ZM46.948 72.9518C47.0149 72.8883 47.0199 72.788 46.9559 72.7111C46.8925 72.6442 46.7531 72.6612 46.6378 72.7572C46.5225 72.8531 46.5281 72.9629 46.6299 72.9979C46.7418 73.0323 46.8806 73.0052 46.948 72.9518ZM45.3813 73.6516C45.3813 73.6516 45.3857 73.5412 45.3223 73.4743C45.2588 73.4074 45.1485 73.403 45.0716 73.4669C44.9947 73.5309 45.0187 73.6098 45.1306 73.6442C45.2325 73.6791 45.3528 73.683 45.3813 73.6516ZM47.7528 73.6221C47.8102 73.5691 47.8506 73.3769 47.8415 73.1971C47.8274 72.9175 47.777 72.91 47.4989 73.1543C47.2593 73.3666 47.2354 73.488 47.4102 73.5793C47.5441 73.6527 47.7049 73.6646 47.7528 73.6221ZM50.7394 73.2813C51.0554 72.995 51.0818 72.9236 50.8531 72.9552C50.4557 73.0152 50.0628 73.3655 50.2112 73.5282C50.2751 73.6051 50.5098 73.4931 50.7394 73.2813ZM41.7085 75.2785C41.9921 75.1441 42.5413 74.9162 42.9248 74.7767C43.7302 74.4657 44.0397 74.2499 43.7655 74.1736C43.6536 74.1392 43.4764 74.1982 43.3516 74.3046C43.2368 74.4105 42.697 74.6279 42.1543 74.7855C41.6215 74.9425 41.1012 75.149 40.9959 75.2444C40.6894 75.5202 41.1408 75.5375 41.7085 75.2785ZM43.7617 75.8859C43.7577 75.806 43.5749 75.7552 43.3457 75.7767C43.106 75.7888 42.8838 75.75 42.8393 75.6621C42.8053 75.5837 42.6755 75.5903 42.5696 75.6757C42.4643 75.7711 42.4209 75.9035 42.4844 75.9704C42.6327 76.1331 43.7503 76.0567 43.7612 75.876L43.7617 75.8859ZM37.1994 76.9978C37.2663 76.9343 37.2712 76.8339 37.2178 76.7665C37.0799 76.6133 36.6924 76.6729 36.681 76.8437C36.6695 77.0145 37.0556 77.1252 37.2089 76.9873L37.1994 76.9978ZM40.7725 77.1681C40.9543 77.199 41.2109 77.1259 41.3547 76.9985C41.489 76.8816 41.7172 76.8401 41.8505 76.9035C42.1797 77.0771 42.3409 76.8988 42.1545 76.5777C41.9901 76.2957 41.1777 76.4668 40.7079 76.881C40.4873 77.0723 40.5098 77.1212 40.782 77.1576L40.7725 77.1681ZM39.978 77.2982C40.3655 77.2387 40.4134 77.1962 40.1697 77.1284C40.0578 77.094 39.9095 77.1315 39.8232 77.2059C39.7273 77.2909 39.7893 77.3278 39.978 77.2982ZM39.0085 77.9279C39.5298 77.7414 39.7689 77.519 39.5451 77.4502C39.4433 77.4153 39.2465 77.4853 39.1122 77.6022C38.978 77.7191 38.7812 77.7891 38.6793 77.7542C38.5775 77.7193 38.4287 77.7468 38.3618 77.8103C38.1606 77.9906 38.6146 78.0579 39.028 77.9169L39.0085 77.9279ZM28.5937 80.6757C28.7589 80.5773 29.0071 80.5347 29.1394 80.5781C29.2718 80.6215 29.6458 80.4925 29.9763 80.2956C30.3063 80.0888 30.6498 79.9513 30.7412 79.9767C30.9649 80.0455 31.1946 79.8337 31.3063 79.4676C31.3751 79.2439 31.2937 79.2179 30.8813 79.3789C30.6067 79.4929 30.2222 79.6124 30.0439 79.6514C29.8557 79.6909 29.592 79.8244 29.4578 79.9413C29.314 80.0687 29.1173 80.1387 29.0054 80.1043C28.9035 80.0694 28.5749 80.106 28.2883 80.1805C27.784 80.306 27.775 80.3265 28.0283 80.5841C28.1867 80.7463 28.4089 80.7852 28.5937 80.6757ZM36.7956 52.3068C36.7806 52.2074 36.6203 52.2055 36.4446 52.2944C36.181 52.4279 36.173 52.4683 36.4352 52.5052C36.7983 52.557 36.8377 52.545 36.8056 52.3063L36.7956 52.3068ZM31.8968 60.7942C31.8818 60.6948 31.7399 60.6619 31.5826 60.7199C31.2486 60.8469 31.2077 61.0292 31.4924 61.115C31.7466 61.1923 31.9393 61.0424 31.8968 60.7942ZM28.2785 64.8916C28.3454 64.8281 28.3888 64.6958 28.3633 64.5869C28.3477 64.4776 28.2369 64.4631 28.1321 64.5685C28.0167 64.6645 27.9838 64.8063 28.0473 64.8732C28.1107 64.9401 28.2116 64.955 28.2885 64.8911L28.2785 64.8916ZM24.0311 72.7955C24.098 72.732 24.1029 72.6316 24.039 72.5548C23.9755 72.4879 23.8362 72.5049 23.7209 72.6008C23.6056 72.6968 23.6111 72.8066 23.713 72.8416C23.8249 72.876 23.9637 72.8489 24.0311 72.7955ZM20.1625 75.3034C20.1625 75.3034 20.1669 75.1931 20.1035 75.1262C20.04 75.0593 19.9296 75.0549 19.8528 75.1188C19.7759 75.1828 19.7999 75.2616 19.9118 75.2961C20.0137 75.331 20.134 75.3349 20.1625 75.3034ZM20.3492 76.4255C20.3492 76.4255 20.478 76.3989 20.5833 76.3035C20.6887 76.2081 20.7321 76.0757 20.6686 76.0089C20.6052 75.942 20.4978 75.9974 20.4345 76.1308C20.3611 76.2647 20.3277 76.3965 20.3492 76.4255ZM19.3964 77.5849C19.5022 77.4995 19.5641 77.3362 19.548 77.2168C19.5325 77.1075 19.3932 77.1245 19.2494 77.2519C19.1056 77.3793 19.0338 77.5431 19.0977 77.62C19.1612 77.6869 19.2905 77.6704 19.3964 77.5849ZM12.5163 79.5438C12.5832 79.4804 12.6265 79.348 12.601 79.2392C12.5855 79.1298 12.4751 79.1254 12.3698 79.2208C12.2645 79.3162 12.2216 79.4585 12.285 79.5254C12.3485 79.5923 12.4494 79.6073 12.5163 79.5438ZM13.7024 79.8345C13.934 79.6626 14.0643 79.4658 14.0003 79.3889C13.9369 79.322 13.7107 79.4035 13.5006 79.6043C13.2899 79.7952 13.1497 79.9925 13.2026 80.0499C13.2556 80.1073 13.4808 80.0058 13.7024 79.8345ZM14.9647 79.4504C14.5672 79.5105 14.3945 79.6594 14.6387 79.7372C14.7406 79.7721 14.9273 79.7026 15.0521 79.5962C15.2438 79.4263 15.2228 79.4074 14.9647 79.4504ZM17.3808 79.7091C17.4367 79.6262 17.6138 79.3669 17.782 79.1282L18.0905 78.6921L17.4429 78.955C16.8148 79.207 16.091 79.9443 16.2613 80.146C16.3678 80.2708 17.2315 79.9269 17.3708 79.7096L17.3808 79.7091ZM11.5558 81.5447C11.6351 81.3304 11.6365 81.1602 11.5661 81.1537C11.3654 81.1438 11.1598 81.6348 11.2977 81.788C11.3827 81.8839 11.459 81.8099 11.5658 81.5442L11.5558 81.5447ZM24.0223 81.7573C23.88 81.7144 23.8036 81.7883 23.7737 81.9901C23.7438 82.1919 23.6675 82.2658 23.5251 82.2229C23.1386 82.1022 23.0623 82.3764 23.4399 82.5176C23.6436 82.5874 23.8344 82.5978 23.8608 82.5264C23.8873 82.455 23.9781 82.2702 24.0699 82.1053C24.1617 81.9405 24.1342 81.7917 24.0223 81.7573ZM9.44897 84.044C9.50385 83.9411 9.85383 83.7332 10.2158 83.5648C11.0481 83.1924 11.5957 82.7342 11.5517 82.4561C11.4941 82.1085 10.6636 82.1204 10.101 82.4792C9.80994 82.664 9.38955 82.8655 9.17235 82.9265C8.74793 83.048 8.05863 83.8738 8.42615 83.8152C8.54549 83.7991 8.7997 83.8764 8.99601 83.9967C9.19231 84.117 9.40305 84.1264 9.45844 84.0335L9.44897 84.044ZM23.9885 83.2709C24.0618 83.137 24.0952 83.0052 24.0738 82.9762C24.0523 82.9473 23.9449 83.0028 23.8396 83.0982C23.7343 83.1936 23.7009 83.3255 23.7543 83.3929C23.8178 83.4597 23.9251 83.4043 23.9885 83.2709ZM28.0814 83.2248C28.1932 83.2592 28.3205 83.2027 28.355 83.0908C28.3983 82.9585 28.3244 82.8821 28.1541 82.8807C27.8425 82.8563 27.7867 83.1395 28.0814 83.2248ZM10.9125 84.8713C11.4048 84.7063 11.7597 84.3981 11.6218 84.2448C11.5584 84.1779 11.2948 84.3114 11.0367 84.5547C10.6538 84.9044 10.6369 84.9653 10.9125 84.8713ZM25.3608 88.2481C25.3952 88.1362 25.2114 88.0654 24.9213 88.07C24.1822 88.1073 24.043 88.3246 24.7272 88.3902C25.0493 88.424 25.3364 88.3595 25.3708 88.2476L25.3608 88.2481ZM60.1882 63.8836C60.3325 63.7662 60.3779 63.6738 60.2975 63.6678C60.2176 63.6719 60.1018 63.7578 60.0379 63.8812C59.9745 64.0145 60.025 64.022 60.1887 63.8936L60.1882 63.8836ZM39.3432 74.6368C39.2413 74.6019 39.0546 74.6714 38.9298 74.7778C38.7481 74.9472 38.7591 74.9667 39.0172 74.9236C39.4147 74.8635 39.5874 74.7146 39.3432 74.6368ZM41.4393 73.9104C41.5836 73.793 41.629 73.7006 41.5486 73.6946C41.4687 73.6986 41.3529 73.7846 41.289 73.9079C41.2256 74.0413 41.2761 74.0488 41.4398 73.9204L41.4393 73.9104ZM46.4721 71.6541C46.4377 71.766 46.4936 71.8833 46.595 71.9082C46.8288 71.9766 47.6914 71.2121 47.5535 71.0589C47.4156 70.9056 46.5484 71.3799 46.4721 71.6541ZM38.1504 75.0074C38.0835 75.0708 38.1075 75.1497 38.2194 75.1841C38.3312 75.2185 38.47 75.1915 38.5369 75.128C38.6038 75.0646 38.5798 74.9857 38.4679 74.9513C38.3561 74.9169 38.2173 74.9439 38.1404 75.0079L38.1504 75.0074ZM50.2226 69.7829C50.3535 69.7963 50.6101 69.7233 50.7859 69.6343C51.3221 69.347 51.389 69.2835 51.1378 69.2661C50.8067 69.2528 49.911 69.7585 50.2226 69.7829ZM48.241 70.7939C48.241 70.7939 48.0987 70.7511 47.9898 70.7766C47.8805 70.7921 47.8445 70.874 47.9085 70.9509C47.9724 71.0278 48.0828 71.0322 48.1597 70.9683C48.2266 70.9048 48.263 70.8329 48.241 70.7939ZM48.9655 70.467C49.1097 70.3496 49.1551 70.2572 49.0747 70.2513C48.9948 70.2553 48.879 70.3412 48.8152 70.4646C48.7518 70.598 48.8122 70.6049 48.966 70.477L48.9655 70.467Z" fill="white"/>
</g>
<defs>
<clipPath id="clip0_6299_5023">
<rect width="92.54" height="104.46" fill="white" transform="translate(104.328) rotate(87.1139)"/>
</clipPath>
</defs>
</svg>
