<svg width="230" height="104" viewBox="0 0 230 104" fill="none" xmlns="http://www.w3.org/2000/svg">
<g clip-path="url(#clip0_6560_1098)">
<path d="M101.448 43.0097C101.598 43.1228 101.362 43.592 101.048 43.8261C100.825 43.9916 100.829 43.9352 101.061 43.5224C101.212 43.244 101.346 43.0016 101.343 42.9797C101.34 42.9577 101.387 42.9735 101.448 43.0097ZM87.0043 49.0065C87.1309 49.1117 87.9539 48.7614 88.1439 48.5222C88.2963 48.3331 88.2838 48.3237 87.9219 48.3745C87.5162 48.4314 86.8527 48.8824 87.0043 49.0065ZM107.199 40.7265C107.094 40.6965 107.052 40.7136 107.128 40.7811C107.192 40.8392 107.197 41.0287 107.132 41.2055C107.026 41.4887 107.039 41.4981 107.232 41.3592C107.495 41.1657 107.481 40.8211 107.2 40.7374L107.199 40.7265ZM96.2384 45.3287C96.0483 45.5678 96.0372 45.6476 96.2017 45.6245C96.3552 45.603 96.4321 45.5139 96.4577 45.2979C96.4991 45.0349 96.4662 45.0395 96.2384 45.3287ZM88.9785 47.9355C88.792 47.9616 88.6066 48.2337 88.7207 48.3295C88.8598 48.4441 89.2174 48.2038 89.152 48.0565C89.1303 47.9813 89.0458 47.9372 88.98 47.9464L88.9785 47.9355ZM170.243 24.7324C170.243 24.7324 170.353 24.7953 170.525 24.827C170.697 24.8588 170.883 24.8326 170.942 24.7686C170.998 24.6935 170.87 24.6556 170.658 24.6629C170.448 24.6812 170.264 24.7184 170.243 24.7324ZM86.1409 49.2283C86.1153 49.4443 86.1497 49.4507 86.3348 49.3352C86.6234 49.1606 86.7559 48.7506 86.5289 48.7266C86.3129 48.701 86.1621 48.901 86.1284 49.2189L86.1409 49.2283ZM124.785 34.8924C124.709 34.9924 124.723 35.0911 124.819 35.1336C125.077 35.2204 125.305 35.0096 125.104 34.8587C125.004 34.7833 124.862 34.8033 124.786 34.9034L124.785 34.8924ZM112.197 39.4546C112.197 39.4546 112.21 39.5423 112.272 39.5895C112.335 39.6366 112.423 39.6243 112.47 39.5618C112.517 39.4992 112.486 39.4365 112.395 39.4269C112.304 39.4173 112.216 39.4296 112.186 39.4561L112.197 39.4546ZM146.027 28.5004C145.952 28.6004 145.963 28.6772 146.055 28.6978C146.146 28.7074 146.227 28.6512 146.237 28.5604C146.261 28.3334 146.18 28.3113 146.016 28.5019L146.027 28.5004ZM73.7666 84.4652C73.71 84.5402 73.7835 84.5858 73.9495 84.5737C74.1061 84.5741 74.2237 84.5352 74.2144 84.4694C74.196 84.3378 73.8577 84.3182 73.7541 84.4558L73.7666 84.4652ZM15.3556 75.6343C15.4432 75.7003 15.6263 75.7305 15.7673 75.6995C16.1371 75.6253 15.9843 75.3336 15.588 75.3781C15.2042 75.432 15.154 75.4725 15.3556 75.6343ZM63.3608 81.8669C63.3137 81.9294 63.326 82.0171 63.39 82.0752C63.4526 82.1223 63.5153 82.0912 63.5249 82.0004C63.5345 81.9096 63.5207 81.8109 63.4957 81.792C63.4706 81.7732 63.4079 81.8043 63.3608 81.8669ZM28.4324 76.5495C28.3852 76.612 28.3975 76.6998 28.4616 76.7579C28.5241 76.805 28.5868 76.7738 28.5965 76.683C28.6061 76.5922 28.5938 76.5045 28.5672 76.4747C28.5422 76.4558 28.4795 76.487 28.4324 76.5495ZM13.3518 75.3789C13.3518 75.3789 14.3784 75.6821 14.5805 75.609C14.6338 75.5903 14.512 75.4397 14.2979 75.2684C13.8712 74.937 13.2995 75.0061 13.3518 75.3789ZM176.866 23.8028C176.866 23.8028 176.811 23.967 176.845 24.0517C176.88 24.1363 177.011 24.1179 177.145 24.0321C177.276 23.9353 177.452 23.9107 177.514 23.9578C177.578 24.0159 177.632 23.9972 177.624 23.9424C177.602 23.7889 176.973 23.6871 176.868 23.8137L176.866 23.8028ZM81.45 50.8595C81.3368 51.0096 81.2628 51.1989 81.297 51.2835C81.3328 51.3791 81.4661 51.2933 81.6185 51.1042C81.7708 50.9151 81.8324 50.7164 81.7714 50.6802C81.7089 50.6331 81.5631 50.7095 81.45 50.8595ZM80.3144 51.6115C80.1918 51.7741 80.1539 51.9024 80.2572 51.9215C80.348 51.9311 80.5033 51.8422 80.5866 51.7187C80.6824 51.6046 80.7062 51.4559 80.6452 51.4197C80.5827 51.3726 80.4259 51.4505 80.3159 51.6225L80.3144 51.6115ZM70.5785 83.7386C70.5785 83.7386 70.771 83.7563 70.8965 83.694C71.0721 83.5911 71.069 83.5691 70.8341 83.5685C70.5115 83.5803 70.4394 83.624 70.5894 83.7371L70.5785 83.7386ZM79.2867 51.7781C79.2867 51.7781 79.233 51.9534 79.2563 52.0396C79.2905 52.1242 79.3798 52.1229 79.4537 52.0119C79.5291 51.9118 79.5356 51.7991 79.4731 51.752C79.4106 51.7049 79.3213 51.7062 79.2757 51.7797L79.2867 51.7781ZM75.4899 53.4069C75.4145 53.5069 75.4487 53.5915 75.5786 53.6404C75.696 53.6798 75.8025 53.6425 75.8137 53.5627C75.8362 53.3247 75.6329 53.2303 75.4915 53.4178L75.4899 53.4069ZM60.6422 35.8113C60.3832 36.0378 60.4025 36.4935 60.479 36.561C60.5416 36.6082 60.7643 36.4427 60.9638 36.1911C61.3896 35.6394 61.2118 35.3289 60.6547 35.8208L60.6422 35.8113ZM48.0744 47.0462C47.9142 47.2588 47.9219 47.3136 48.1083 47.2874C48.2947 47.2613 48.3434 47.2097 48.3172 47.0233C48.291 46.8369 48.2362 46.8446 48.076 47.0571L48.0744 47.0462ZM43.9876 50.1133C43.8368 50.3134 43.8429 50.3573 44.0763 50.3469C44.2329 50.3472 44.3833 50.3038 44.4304 50.2412C44.4681 50.1912 44.4308 50.0846 44.3417 50.0077C44.2417 49.9323 44.0913 49.9758 43.9876 50.1133ZM32.9829 58.065C33.0719 58.142 33.2035 58.1235 33.271 58.0469C33.337 57.9594 33.5536 57.7501 33.7514 57.5658L34.1092 57.2472L33.6643 57.3432C33.1331 57.4625 32.7453 57.8859 32.9844 58.076L32.9829 58.065ZM49.6623 45.7722C49.0711 46.1012 48.2487 46.854 48.4632 46.8686C48.543 46.8798 48.9022 46.6505 49.2427 46.3678C49.5832 46.0852 49.933 45.8684 50.0238 45.878C50.2289 45.9052 50.3687 45.7066 50.2296 45.592C50.1671 45.5448 49.921 45.6241 49.6717 45.7597L49.6623 45.7722ZM42.276 51.3823C42.276 51.3823 42.2883 51.47 42.3508 51.5171C42.4134 51.5642 42.5011 51.5519 42.5592 51.4879C42.6173 51.4238 42.5751 51.3626 42.4843 51.353C42.3935 51.3434 42.3058 51.3557 42.276 51.3823ZM42.7306 51.1955C42.8214 51.2051 43.0049 51.0787 43.1259 50.9052C43.3333 50.63 43.3302 50.6081 43.0809 50.7437C42.7077 50.9527 42.5365 51.1668 42.7306 51.1955ZM50.7889 44.8761C50.7115 45.1218 50.7554 45.1156 51.1115 44.8644C51.7844 44.4009 52.4139 43.7871 52.1946 43.8178C51.8327 43.8686 50.8835 44.5945 50.7889 44.8761ZM55.523 40.9242C55.523 40.9242 55.7581 40.8465 55.9199 40.6449C56.1383 40.3683 56.14 40.3009 55.9582 40.36C55.6385 40.472 55.373 40.8111 55.523 40.9242ZM28.1004 69.4846C28.1004 69.4846 28.7524 69.2701 28.8041 69.2405C28.8559 69.2109 28.842 69.1122 28.7859 69.0306C28.6595 68.8471 28.1279 69.123 28.1004 69.4846ZM53.8053 42.1493C53.3736 42.5789 53.1366 42.8023 52.8807 43.0506C52.7222 43.1959 52.6326 43.3538 52.6826 43.3915C52.7326 43.4292 52.96 43.2967 53.1672 43.0999C53.3838 42.8906 53.6914 42.6126 53.8484 42.4564C54.0069 42.3111 54.0856 42.1547 54.0341 42.106C53.9715 42.0589 53.8619 42.0743 53.7928 42.1399L53.8053 42.1493ZM5.5056 68.6307C5.6014 68.5166 5.62697 68.3006 5.56311 68.1642C5.5102 68.0263 5.53136 67.699 5.6291 67.4393C5.71431 67.1702 5.84954 66.9388 5.91226 66.9076C5.97497 66.8764 6.17908 66.6577 6.36915 66.4186C6.55768 66.1685 6.81029 65.9765 6.96688 65.9769C7.11097 65.9678 7.37605 65.7852 7.55669 65.5586C7.73733 65.332 7.95549 65.1336 8.05418 65.1198C8.15286 65.1059 8.6719 64.8206 9.20825 64.4994C9.74459 64.1781 10.3138 63.8522 10.4847 63.7947C10.6555 63.7371 11.0068 63.5313 11.2734 63.3597C11.5385 63.1771 12.0637 62.9357 12.4477 62.8035C12.8332 62.6823 13.6704 62.2741 14.3228 61.903C14.9642 61.5334 16.0053 60.9847 16.6325 60.6731C17.2612 60.3724 17.8587 60.009 17.9624 59.8714C18.0661 59.7339 18.5853 59.3703 19.1137 59.0725C20.6537 58.1742 25.7429 54.4409 26.4693 53.8805C27.2066 53.3185 27.9315 52.7471 28.0822 52.6254C28.2312 52.4926 28.4759 52.3241 28.6202 52.2368C28.7645 52.1494 29.2649 51.8108 29.7214 51.4784C30.1889 51.1444 30.9403 50.6029 31.4078 50.2689C31.8643 49.9365 32.5578 49.3807 32.9345 49.0371C33.8071 48.2437 36.2024 46.5881 37.6004 45.475C38.2656 44.9567 39.891 43.711 41.2166 42.7199C42.5423 41.7287 44.2116 40.4769 44.9191 39.9415C45.6267 39.4061 46.4299 38.8349 46.6996 38.6852C46.9803 38.534 47.3113 38.2639 47.4433 38.0889C47.69 37.7747 48.7555 36.8424 50.0468 35.8449C51.2141 34.9207 51.641 34.5366 54.1761 32.045C58.0958 28.1851 61.9379 24.6492 63.849 23.1286C64.0702 22.9522 64.5598 22.5368 64.9474 22.1917C65.7227 21.5014 66.4609 21.2636 66.5522 21.6757C66.5878 21.8496 66.6598 21.8842 66.8041 21.7969C66.9076 21.7376 67.2063 21.8746 67.5224 21.9756C68.6678 22.3292 68.5397 22.8503 68.6398 22.9258C68.7273 22.9917 68.7596 23.222 68.7106 23.4302C68.6615 23.6383 68.6798 23.8482 68.7564 23.9157C68.8314 23.9723 68.8999 24.1416 68.8995 24.2982C68.9101 24.4532 69.0051 24.6524 69.1192 24.7482C69.2333 24.844 69.286 25.0602 69.226 25.2699C69.1644 25.4686 69.2108 25.7193 69.342 25.8574C69.4982 26.0144 69.9878 27.5111 69.8181 27.7362C69.7412 27.8252 69.7748 28.1448 69.8947 28.441C70.0332 28.7906 70.1175 30.1876 69.9855 30.3627C69.8709 30.5018 69.7314 30.5437 69.6189 30.4589C69.4798 30.3442 69.3395 30.6994 69.0379 30.4622C68.9488 30.3852 68.8532 30.421 68.8138 30.5384C68.7285 30.8075 67.0683 32.2034 66.8036 32.2294C66.6611 32.2494 66.779 32.0539 67.2499 31.5853C68.3347 30.4714 68.3803 30.3979 68.2053 30.266C68.1162 30.189 67.8921 30.2652 67.6818 30.4401C67.4825 30.6134 67.2253 30.7725 67.1062 30.8004C66.8352 30.8608 66.3817 31.2152 65.622 31.9368C64.5061 32.988 62.4188 34.8464 61.595 35.5099C61.4146 35.6582 61.2437 35.7157 61.2001 35.6436C61.1002 35.4899 61.4303 34.9739 61.7235 34.8321C62.1217 34.6421 62.5894 34.2298 62.4878 34.1434C62.3988 34.0665 61.7054 34.5439 61.589 34.7504C61.5638 34.8098 61.4965 34.8081 61.4465 34.7704C61.3965 34.7327 61.1864 34.8292 60.9981 35.001C60.7972 35.1634 60.5383 35.3898 60.4175 35.4851C59.3521 36.3391 59.2359 36.4672 59.2474 36.8681C59.2524 37.3817 59.5297 37.3652 59.6234 36.8377C59.6853 36.4824 59.7355 36.4418 60.0268 36.4456C60.4871 36.4593 60.5067 36.7584 60.041 37.0251C59.6693 37.245 58.4656 38.3084 57.8423 38.9662C57.6586 39.1709 57.2929 39.5129 57.0465 39.7488C56.6305 40.1314 56.5757 40.1391 56.3712 39.8771C56.1246 39.5539 55.8285 39.5955 55.5159 39.9972C55.4013 40.1363 55.2664 40.2111 55.2039 40.164C55.1414 40.1168 54.939 40.2682 54.7583 40.4949C54.5777 40.7215 54.2135 41.0745 53.9609 41.2665C53.4354 41.6645 53.3757 41.7176 52.843 42.4633C52.3654 43.123 50.8854 44.4489 50.5595 44.517C50.3652 44.5666 50.3275 44.6166 50.4274 44.7703C50.5288 44.935 50.4393 45.0146 49.8608 45.2747C49.4815 45.4398 49.1192 45.6472 49.0532 45.7347C48.9872 45.8223 48.8791 45.8486 48.8276 45.7999C48.765 45.7528 48.6585 45.7901 48.5815 45.8792C48.5061 45.9792 48.3447 46.0243 48.2273 45.9848C48.11 45.9454 47.9784 45.9639 47.9313 46.0264C47.8841 46.0889 47.9247 46.1391 48.0155 46.1487C48.1752 46.171 48.1327 46.2665 47.732 46.8371C47.6377 46.9621 47.6468 47.1062 47.7312 47.1503C48.008 47.2903 47.7895 47.6452 47.1668 48.0681C46.0014 48.8467 45.3236 49.3555 45.1524 49.5696C44.9152 49.8713 44.588 49.8501 44.238 49.5079C43.9662 49.2441 43.9333 49.2488 43.7915 49.5929C43.5301 50.1999 43.3275 50.4296 43.1399 50.2882C42.9634 50.1453 42.3547 50.5885 41.7218 51.3371C41.4517 51.6433 41.276 51.7463 41.0773 51.6847C40.8551 51.6152 40.7437 51.698 40.5094 52.0998C40.2924 52.4658 40.1527 52.586 39.9696 52.5558C39.8099 52.5335 39.686 52.6068 39.6323 52.782C39.555 53.0277 39.5785 53.0356 39.928 52.8971C40.4563 52.6776 41.0977 52.308 41.1481 52.1891C41.1733 52.1297 41.2406 52.1314 41.3157 52.188C41.3907 52.2445 41.3372 52.3415 41.2148 52.4257C41.091 52.499 40.7678 52.7457 40.4994 52.9846C40.231 53.2235 39.9096 53.4028 39.7765 53.4103C39.6418 53.4069 39.3861 53.5769 39.2149 53.7911C38.8694 54.1974 37.9816 54.8028 37.869 54.718C37.744 54.6237 38.884 53.3455 39.1268 53.3226C39.4009 53.2841 39.5485 53.1404 39.4109 53.0367C39.2984 52.9519 39.0192 53.1141 37.7251 54.0114C37.2357 54.3484 36.7261 54.6212 36.582 54.6302C36.2375 54.6451 36.0678 54.8701 36.2269 55.1274C36.4187 55.4582 36.6803 55.4103 36.653 55.0564C36.6365 54.7791 36.6742 54.7291 36.9641 54.6437C37.2555 54.5693 37.279 54.5771 37.1455 54.7412C37.0591 54.8428 37.0807 54.9963 37.1807 55.0717C37.3073 55.177 37.2946 55.2458 37.1299 55.3472C36.9951 55.4221 36.7911 55.5625 36.6594 55.6593C36.5276 55.756 36.3239 55.8182 36.1986 55.8022C35.9482 55.7703 35.675 56.0546 35.8391 56.1881C35.9641 56.2824 35.7063 56.6764 35.4965 56.6947C35.4197 56.7054 35.3385 56.605 35.3091 56.475C35.2379 56.1272 34.9059 56.1514 34.7452 56.5206C34.635 56.7709 34.5613 56.8036 34.3862 56.6716C34.2722 56.5758 34.1 56.544 34.0075 56.6018C33.904 56.661 33.8978 56.6172 33.9826 56.5046C34.0565 56.3936 34.1023 56.2418 34.068 56.1572C34.0338 56.0725 33.8157 56.2709 33.525 56.6695C32.9421 57.4557 32.2437 58.0569 31.8709 58.1093C31.6406 58.1416 31.6139 58.1901 31.6993 58.48C31.7599 58.6727 31.7468 58.8982 31.6809 58.9857C31.6149 59.0733 31.6083 59.186 31.6708 59.2331C31.8584 59.3745 31.4158 59.8057 30.9629 59.9251C30.4333 60.0554 30.329 59.7905 30.717 59.2888C30.9919 58.9371 30.9521 58.5737 30.668 58.8596C30.5989 58.9252 30.4906 59.0298 30.4419 59.0814C30.3823 59.1345 30.1847 59.2405 30.006 59.3215C29.8273 59.4025 29.4899 59.707 29.2527 60.0086C28.9966 60.3353 28.5949 60.66 28.2594 60.819C27.9443 60.9638 27.6619 61.1824 27.624 61.3107C27.5782 61.4625 27.7427 61.4394 28.1363 61.2164C28.4593 61.0481 28.7821 60.958 28.8712 61.035C29.0838 61.1952 29.5763 60.8801 30.1243 60.2441L30.3348 59.9909L30.4448 60.4563C30.5564 60.9326 30.7644 61.06 30.9623 60.7974C31.0283 60.7098 31.1803 60.6773 31.2977 60.7168C31.415 60.7562 31.7253 60.6567 31.9856 60.5196C32.2443 60.3714 32.5139 60.3001 32.5764 60.3472C32.6389 60.3943 33.0306 60.317 33.4459 60.1692C34.2547 59.8768 34.7812 59.7246 35.3484 59.6227C36.058 59.5007 38.042 58.8979 38.1473 58.7714C38.2038 58.6963 38.406 58.6232 38.5924 58.5971C38.7898 58.5694 39.2756 58.4453 39.6705 58.3116C40.0655 58.1779 40.4446 58.0911 40.5135 58.1038C40.5824 58.1165 40.9539 57.9749 41.363 57.7833C42.4417 57.2629 42.9825 57.0528 43.2095 57.0768C43.3222 57.0834 43.6246 57.0074 43.8661 56.8952C44.1075 56.7831 45.0228 56.4533 45.8864 56.1532C46.7515 55.864 47.4835 55.5824 47.5228 55.5433C47.551 55.5058 47.8598 55.3954 48.2155 55.3007C48.5603 55.2076 49.0807 55.0116 49.3629 54.8713C49.9054 54.5939 50.3171 54.6591 49.8779 54.9556C49.7351 55.0539 49.6832 55.1618 49.7472 55.2199C49.8098 55.2671 50.0231 55.1141 50.2022 54.8765C50.4488 54.5624 50.8628 54.3254 51.6779 53.9985C52.3034 53.7542 53.1937 53.4056 53.6702 53.2157C54.2204 52.9931 54.5697 52.9329 54.6415 53.0458C54.7133 53.1587 54.8198 53.1214 54.9816 52.9198C55.2094 52.6307 56.042 52.1895 56.2736 52.2465C56.3315 52.2607 56.4272 52.2249 56.4743 52.1624C56.5214 52.0999 57.0324 51.9163 57.5997 51.7361C58.167 51.5558 58.772 51.3255 58.9352 51.2132C59.3116 50.9479 60.5967 50.5439 60.7218 50.6381C60.7734 50.6868 61.079 50.5544 61.4099 50.3626C61.7298 50.1724 62.0355 50.04 62.0855 50.0777C62.1356 50.1154 62.377 50.0033 62.6436 49.8317C63.1659 49.49 64.2852 49.0198 65.3054 48.7201C65.6815 48.6114 66.0404 48.4603 66.1284 48.3697C66.2053 48.2807 66.4546 48.145 66.6882 48.0563C66.9233 47.9786 67.5064 47.7514 68.0033 47.5475C68.5017 47.3545 69.1412 47.1306 69.4326 47.0561C69.7241 46.9817 70.0078 46.8524 70.0659 46.7883C70.1225 46.7133 70.2212 46.6995 70.2852 46.7576C70.3478 46.8047 70.5028 46.7941 70.6362 46.7083C71.2995 46.3357 72.6457 45.8895 72.7833 45.9932C72.8708 46.0592 73.0024 46.0407 73.0778 45.9407C73.1532 45.8407 73.3287 45.816 73.4726 45.8853C73.7103 45.9861 74.1853 45.7852 75.0808 45.2346C75.2769 45.1177 75.5056 45.0744 75.5931 45.1404C75.7072 45.2362 76.0381 45.0444 76.6595 44.5322C77.16 44.1154 78.7622 44.0582 78.9994 43.7566C79.18 43.5299 79.2239 43.5238 79.2781 43.751C79.3324 43.9782 79.3668 43.9845 79.5176 43.7844C79.6229 43.6579 79.7577 43.583 79.8218 43.6411C79.8858 43.6992 79.9784 43.6415 80.0069 43.5257C80.0448 43.3974 80.2673 43.3102 80.5476 43.3156C80.9281 43.3181 81.0834 43.2292 81.305 42.8962C81.5266 42.5632 81.6411 42.5024 81.8679 42.6048C82.0228 42.6725 82.1778 42.6619 82.2094 42.568C82.2975 42.3991 83.1907 42.1507 83.3298 42.2654C83.3798 42.3031 84.6572 41.8443 85.0006 41.6619C85.3126 41.4951 85.935 41.2288 86.3832 41.0765C86.8314 40.9241 87.2422 40.7434 87.2893 40.6809C87.3364 40.6184 87.7204 40.4862 88.134 40.4058C88.5461 40.3144 88.9222 40.2057 88.9709 40.1542C89.0086 40.1041 89.1575 40.0497 89.3 40.0297C89.4426 40.0097 89.7921 39.8712 90.0743 39.7309C90.3566 39.5907 90.7061 39.4521 90.8487 39.4321C91.3969 39.3552 92.3263 39.0458 92.966 38.7436C93.3438 38.5676 93.8015 38.4027 93.991 38.3985C94.1789 38.3833 94.4109 38.2836 94.4863 38.1836C94.5727 38.082 94.7609 37.9885 94.9049 37.9794C95.049 37.9704 95.2951 37.8911 95.4378 37.7928C95.5806 37.6945 95.8659 37.5762 96.0727 37.536C96.281 37.5068 96.7497 37.3403 97.1071 37.1784C97.4645 37.0164 97.941 36.8265 98.1636 36.7393C98.3768 36.6647 99.0445 36.4032 99.659 36.1605C100.262 35.9192 100.885 35.7313 101.04 35.7207C101.195 35.7101 101.643 35.5577 102.041 35.3676C102.439 35.1776 103.408 34.8292 104.178 34.5758C104.949 34.3334 105.61 34.1064 105.627 34.0704C105.674 34.0079 109.898 32.4757 111.234 32.0311C113.188 31.3766 116.447 30.2148 117.845 29.6608C118.364 29.4538 118.889 29.2906 119.003 29.3081C119.117 29.3256 119.692 29.1219 120.269 28.8508C120.846 28.5798 121.412 28.3885 121.528 28.417C121.644 28.4455 121.764 28.4285 121.813 28.377C121.86 28.3144 122.246 28.1932 122.669 28.1003C123.092 28.0074 123.465 27.8768 123.513 27.8252C123.561 27.7627 123.808 27.6944 124.052 27.6825C124.305 27.6471 124.709 27.5008 124.963 27.3198C125.217 27.1388 125.694 26.9489 126.032 26.8902C126.371 26.8315 126.822 26.7011 127.032 26.6045C127.755 26.2571 128.628 26.0228 128.765 26.1264C128.84 26.183 129.105 26.0787 129.348 25.8992C129.591 25.7198 130.015 25.5485 130.279 25.5226C130.544 25.4966 131.03 25.3725 131.346 25.2386C131.674 25.1032 131.989 25.0366 132.064 25.0932C132.203 25.2078 133.191 24.7561 133.21 24.5745C133.212 24.5072 133.422 24.4106 133.647 24.3454C133.886 24.2896 134.031 24.2915 133.967 24.39C133.899 24.4666 133.932 24.5402 134.023 24.5499C134.114 24.5595 134.288 24.4456 134.401 24.2955C134.563 24.0939 134.671 24.0676 134.847 24.2105C135.036 24.3629 135.112 24.3411 135.253 24.0752C135.367 23.8469 135.511 23.7595 135.717 23.7976C135.879 23.8309 136.029 23.7874 136.029 23.7091C136.06 23.4477 136.455 23.314 136.669 23.4852C136.883 23.6564 138.183 23.3621 138.392 23.0979C138.458 23.0104 138.593 23.0139 138.693 23.0893C138.793 23.1647 138.981 23.1495 139.102 23.0543C139.364 22.8498 139.542 22.9254 139.458 23.2055C139.43 23.3213 139.464 23.3276 139.56 23.2135C139.763 22.9838 140.984 22.4434 141.499 22.3711C141.73 22.3388 141.962 22.2391 142.029 22.1625C142.097 22.086 142.282 22.0488 142.465 22.079C142.637 22.1108 143.083 22.0257 143.434 21.8982C143.797 21.7691 144.314 21.6294 144.588 21.591C144.862 21.5525 145.315 21.433 145.591 21.3272C145.867 21.2214 146.139 21.1719 146.202 21.2191C146.252 21.2568 146.413 21.2118 146.556 21.1135C146.699 21.0151 147.15 20.8847 147.546 20.8403C148.676 20.6817 149.957 20.4124 150.26 20.2581C150.417 20.1802 150.569 20.1477 150.619 20.1854C150.669 20.2231 151.073 20.1552 151.526 20.0357C152.496 19.7765 153.998 19.4874 155.225 19.304C155.718 19.2348 156.566 19.0599 157.127 18.9141C157.689 18.7792 158.658 18.5874 159.283 18.4997C159.908 18.4119 161.881 18.1349 163.678 17.8715C168.303 17.2 168.478 17.1754 173.351 16.6815C177.497 16.2673 179.444 16.117 182.061 16.0404C182.662 16.0231 183.306 15.9887 183.47 15.9656C183.635 15.9425 184.337 15.9223 185.03 15.9255C185.713 15.9303 186.471 15.9134 186.692 15.8936C187.212 15.8541 188.17 15.8314 188.878 15.8551C189.182 15.8684 189.539 15.863 189.694 15.8524C190.425 15.8056 193.245 15.9018 193.344 15.9662C193.406 16.0134 193.565 16.0247 193.706 15.9937C193.934 15.9504 194.33 15.9843 196.096 16.2173C196.267 16.238 196.549 16.2544 196.726 16.2407C197.349 16.2203 201.011 16.7351 201.175 16.8686C201.275 16.944 201.47 16.9836 201.621 16.9401C201.991 16.8659 206.752 17.886 207.503 18.2167C207.823 18.3506 208.28 18.4989 208.51 18.5449C208.751 18.5893 209.357 18.8398 209.874 19.1026C210.392 19.3654 211.232 19.773 211.736 20.0154C214.528 21.3455 218.26 24.4333 219.997 26.8507C220.26 27.2162 220.633 27.7229 220.836 27.974C221.259 28.5184 221.891 29.5143 221.969 29.7494C221.992 29.8356 222.305 30.552 222.662 31.3406C223.731 33.5387 224.134 35.137 224.621 39.0828C224.957 41.7975 225.014 44.2718 224.748 45.4049C224.721 45.5317 224.54 47.5921 224.123 49.3168C223.425 52.1542 222.237 55.3959 221.273 57.3761C219.799 60.412 219.549 60.8609 218.602 62.4026C218.275 62.9405 217.863 63.6692 217.677 64.0195C217.504 64.3793 217.124 65.0141 216.836 65.4347C216.549 65.8552 216.075 66.6261 215.78 67.1484C215.484 67.6707 215.082 68.2303 214.893 68.4021C214.705 68.5739 214.446 68.957 214.32 69.2542C214.194 69.5514 213.53 70.5614 212.853 71.4727C210.853 74.191 210.099 75.2697 210.087 75.4278C210.078 75.5187 209.91 75.6764 209.711 75.7714C209.367 75.9538 209.195 75.9221 208.994 75.682C208.941 75.6224 208.834 75.5031 208.755 75.4136C208.233 74.8831 207.883 74.0601 208.125 73.6347C208.233 73.4518 208.204 73.3217 208.009 73.2038C207.91 73.1393 207.835 72.3671 207.882 71.9022C207.941 71.3683 208.134 71.1511 208.162 71.1136C208.23 71.037 208.219 70.882 208.16 70.7785C208.101 70.675 208.185 70.2383 208.36 69.8112C208.535 69.3841 208.679 68.816 208.696 68.5451C208.716 68.2069 208.927 67.7189 209.347 67.045C209.694 66.493 210.223 65.5579 210.531 64.9667C210.841 64.3865 211.522 63.2622 212.037 62.4742C212.553 61.6862 213.099 60.7934 213.235 60.4946C213.372 60.1959 213.652 59.7205 213.861 59.4564C214.07 59.1922 214.503 58.3712 214.837 57.6422C215.169 56.9023 215.537 56.1798 215.65 56.0297C215.774 55.8781 216.042 55.315 216.259 54.7925C216.466 54.2716 216.738 53.6631 216.854 53.4566C216.971 53.2502 217.284 52.6919 217.553 52.2181C217.822 51.7443 218.089 51.1029 218.159 50.8024C218.229 50.5019 218.32 50.1983 218.366 50.1248C218.523 49.8903 218.805 49.191 218.913 48.7622C218.979 48.5181 219.178 47.9423 219.371 47.4902C220.416 44.9731 220.934 40.6178 220.551 37.6525C220.061 33.8413 219.188 32.3985 215.835 29.783C214.402 28.6535 213.587 28.1082 212.771 27.7084C212.159 27.4141 211.555 27.0963 211.421 27.0145C211.287 26.9327 210.978 26.8083 210.734 26.7419C210.49 26.6755 209.844 26.4532 209.303 26.2608C208.75 26.07 208.096 25.871 207.855 25.8266C207.349 25.7298 207.172 25.4976 207.562 25.4093C207.931 25.3351 207.752 25.2485 206.781 25.0269C205.72 24.7957 205.731 24.7941 205.823 25.0496C205.877 25.1985 205.744 25.206 205.355 25.0594C205.06 24.9554 204.622 24.8603 204.387 24.8598C203.974 24.8619 203.96 24.8415 203.964 24.5502C203.967 24.259 203.955 24.2495 203.793 24.4512C203.592 24.6918 202.997 24.8313 202.795 24.6695C202.72 24.613 202.152 24.5474 201.533 24.5224C200.725 24.5016 200.298 24.405 200.012 24.1992C199.501 23.8237 199.133 23.7523 199.245 24.072C199.301 24.2319 199.282 24.2569 199.182 24.1815C199.107 24.1249 198.781 24.1147 198.463 24.1594C198.145 24.204 197.795 24.175 197.695 24.0996C197.595 24.0241 197.479 23.9957 197.432 24.0582C197.394 24.1082 197.056 24.0886 196.697 24.0047C196.339 23.9208 195.808 23.8835 195.546 23.9314C195.272 23.9699 194.696 23.9278 194.27 23.8422C193.845 23.7566 193.251 23.7504 192.949 23.8264C192.54 23.9397 192.415 23.9238 192.435 23.7531C192.456 23.5825 192.409 23.5667 192.213 23.6837C191.741 23.9848 191.55 23.978 191.438 23.6583C191.312 23.3182 191.029 23.2909 191.065 23.6323C191.09 23.8078 191.019 23.8624 190.794 23.8493C190.558 23.8378 190.47 23.7718 190.372 23.4725C190.279 23.206 190.213 23.137 190.138 23.237C190.072 23.3245 189.953 23.2741 189.817 23.1031C189.655 22.9023 189.493 22.869 189.149 22.9621C188.89 23.0319 188.583 23.1533 188.459 23.2266C188.326 23.3124 188.119 23.2744 187.932 23.133C187.767 22.9995 187.444 22.9219 187.212 22.9433C186.981 22.9756 186.466 22.9696 186.061 22.9483C185.541 22.9094 185.271 22.9808 185.119 23.1699C184.854 23.5091 183.837 23.4393 183.583 23.0613C183.441 22.8464 183.377 22.8666 183.149 23.1557C182.95 23.4073 182.834 23.4572 182.683 23.3441C182.571 23.2592 182.245 23.249 181.954 23.3235C181.543 23.4258 181.416 23.3989 181.426 23.2298C181.439 23.0826 181.378 23.1248 181.266 23.3641C181.093 23.7238 180.421 23.7958 179.98 23.7571C179.867 23.7506 179.411 23.7698 178.971 23.8204C178.52 23.8726 178.117 23.8731 178.067 23.8354C177.942 23.7412 178.448 23.3572 178.684 23.3687C178.808 23.3737 178.837 23.3472 178.751 23.2922C178.687 23.2341 178.374 23.2333 178.045 23.2795C177.694 23.3287 174.884 23.7791 175.015 23.7606C174.093 23.879 173.295 24.0133 173.259 24.0742C173.211 24.1258 173.035 24.0721 172.841 23.9652C172.56 23.7922 172.472 23.8045 172.287 24.0766C172.13 24.3111 172.014 24.3609 171.875 24.2462C171.673 24.0845 170.033 24.2699 169.486 24.5144C169.318 24.5939 169.107 24.6012 169.018 24.5243C168.803 24.353 167.86 24.642 167.988 24.8365C168.174 25.1235 167.715 25.1208 167.496 24.8384C167.32 24.6172 167.216 24.5982 166.937 24.7603C166.752 24.8758 166.522 24.9081 166.433 24.8311C166.344 24.7542 166.231 24.7476 166.182 24.7992C166.135 24.8617 165.88 24.8752 165.619 24.8448C165.232 24.7984 165.063 24.8669 164.742 25.2138C164.394 25.5982 164.319 25.6199 164.067 25.4204C163.879 25.279 163.494 25.2436 162.913 25.3252C161.641 25.5037 161.512 25.5441 161.155 25.7061C160.976 25.7871 160.766 25.8054 160.679 25.7394C160.602 25.6719 160.361 25.7058 160.14 25.8039C159.624 26.0328 158.932 26.1188 158.578 25.9895C158.425 25.9328 158.22 25.984 158.135 26.0965C157.935 26.3481 157.632 26.3349 157.358 26.0601C157.19 25.8937 157.103 25.917 156.836 26.2452C156.417 26.7625 156.215 26.7573 156.212 26.2547C156.205 25.6517 156.096 25.6671 155.746 26.2864C155.495 26.7243 155.375 26.8304 155.213 26.7862C155.095 26.7468 154.489 26.8878 153.856 27.0773C153.224 27.2778 152.659 27.3907 152.571 27.3247C152.421 27.2116 150.746 27.5473 150.375 27.7672C150.271 27.8264 149.972 27.9244 149.709 27.9613C149.445 27.9983 148.934 28.1818 148.577 28.3438C148.22 28.5058 147.817 28.5846 147.684 28.5138C147.359 28.3471 146.712 28.5162 146.626 28.7853C146.581 28.9371 146.541 28.8978 146.514 28.6222C146.485 28.4138 146.564 28.1008 146.675 27.9398C146.861 27.6678 146.865 27.5368 146.687 27.5468C146.554 27.5543 146.314 27.7557 146.146 27.9917C145.979 28.2388 145.579 28.5745 145.245 28.7443C144.922 28.9127 144.642 29.0639 144.613 29.1014C144.423 29.3405 142.784 29.2128 142.42 28.9285C142.293 28.8233 142.144 28.7994 142.086 28.8635C142.03 28.9385 142.113 29.0499 142.327 29.1428C142.554 29.2451 142.647 29.355 142.602 29.5068C142.502 29.8338 142.198 29.8988 142.146 29.6043C142.085 29.3332 141.777 29.3654 141.751 29.6597C141.741 29.7505 141.625 29.8003 141.508 29.7609C141.38 29.723 141.237 29.743 141.18 29.818C141.03 30.0181 139.761 30.6211 139.661 30.5456C139.611 30.5079 139.64 30.3921 139.725 30.2796C139.849 30.128 139.767 30.1059 139.352 30.1753C139.069 30.2263 138.772 30.3462 138.706 30.4337C138.64 30.5212 138.457 30.5693 138.296 30.536C138.135 30.5028 137.776 30.6538 137.492 30.8614C136.729 31.4045 136.298 31.5208 135.983 31.2633C135.819 31.1297 135.613 31.1026 135.48 31.1884C134.887 31.5847 133.984 31.9239 133.783 31.8404C133.653 31.7915 133.507 31.7896 133.46 31.8522C133.413 31.9147 133.353 31.8895 133.319 31.8048C133.285 31.7202 133.348 31.6107 133.451 31.5515C133.555 31.4922 133.652 31.3108 133.676 31.1621C133.711 30.9335 133.617 30.9803 133.215 31.3833C132.941 31.6567 132.476 32.0909 132.186 32.3329C131.897 32.5859 131.572 32.8999 131.457 33.039C131.354 33.1765 131.118 33.3325 130.946 33.3791C130.666 33.452 130.7 33.3801 131.25 32.755C131.597 32.3597 131.856 31.9766 131.822 31.892C131.732 31.6475 131.274 31.969 130.824 32.5911C130.46 33.1007 130.347 33.1725 130.123 33.0921C129.97 33.0353 129.845 32.9411 129.835 32.8753C129.826 32.8095 129.632 32.8591 129.393 32.9932C129.124 33.1429 128.967 33.2991 128.984 33.4197C129.025 33.7158 128.075 34.1175 127.886 33.8868C127.724 33.686 127.161 34.0557 127.047 34.4407C127.008 34.558 126.907 34.6392 126.804 34.6202C126.702 34.6121 126.653 34.4961 126.69 34.3678C126.791 34.0517 126.633 33.962 126.328 34.1727C126.185 34.271 125.765 34.3859 125.38 34.4288C124.996 34.4826 124.654 34.5977 124.615 34.715C124.585 34.8199 124.459 34.8822 124.343 34.8537C124.226 34.8143 124.096 34.8437 124.038 34.9078C123.98 34.9719 124.011 35.0346 124.113 35.0427C124.204 35.0523 124.169 35.2025 124.018 35.4026C123.877 35.5902 123.662 35.7321 123.536 35.7162C123.422 35.6987 123.131 35.7731 122.885 35.8524C122.436 36.0048 122.036 35.8597 122.223 35.5987C122.279 35.5236 122.179 35.5265 122.011 35.606C121.834 35.6979 121.66 35.7335 121.623 35.7052C121.585 35.677 121.411 35.8691 121.237 36.1396C120.961 36.5696 120.899 36.6008 120.728 36.4234C120.491 36.166 120.416 36.1877 120.261 36.6008C120.187 36.7901 120.052 36.9432 119.919 36.9507C119.766 36.9723 119.747 36.919 119.89 36.7424C119.995 36.6158 120.04 36.3747 120.005 36.2118C119.947 35.9517 119.934 35.9423 119.863 36.1535C119.808 36.3178 119.629 36.3988 119.314 36.3871C118.843 36.3749 118.845 36.3859 118.935 36.7087C119.008 36.9892 118.975 37.0721 118.703 37.2108C118.526 37.3028 118.214 37.4696 118.018 37.5865C117.667 37.7924 117.335 37.7383 117.516 37.5117C117.563 37.4492 117.563 37.3709 117.511 37.3222C117.461 37.2845 117.323 37.4157 117.216 37.6096C117.037 37.9255 116.358 38.2668 115.796 38.3234C115.741 38.3311 115.52 38.4292 115.322 38.5352C115.114 38.6427 114.872 38.6766 114.785 38.6106C114.697 38.5446 114.491 38.5848 114.331 38.7191C114.109 38.8955 113.997 38.889 113.884 38.7259C113.688 38.4404 113.221 38.5394 112.905 38.9192C112.734 39.1333 112.626 39.1597 112.507 39.031C112.374 38.8819 112.23 38.9692 111.721 39.4879L111.095 40.1237L111.071 39.6351C111.056 39.2122 111.003 39.1526 110.786 39.1943C110.645 39.2253 110.505 39.1889 110.473 39.1153C110.44 39.0416 110.297 39.1399 110.156 39.3275C109.995 39.54 109.798 39.646 109.657 39.5987C109.482 39.545 109.372 39.6387 109.205 39.9641C108.88 40.5912 108.577 40.7455 107.91 40.6155C107.14 40.4664 106.704 40.5499 106.801 40.8382C106.852 40.9652 106.783 41.1091 106.588 41.237C106.425 41.3494 106.146 41.5899 105.972 41.7821C105.545 42.2445 105.432 42.238 105.236 41.7176L105.063 41.2834L104.843 41.784C104.646 42.2142 104.497 42.3469 103.694 42.7615C102.714 43.268 102.443 43.3284 102.477 43.0106C102.493 42.8854 102.525 42.8808 102.578 43.0187C102.631 43.1566 102.666 43.163 102.68 43.0268C102.693 42.8796 102.641 42.8309 102.463 42.8336C102.33 42.8411 102.17 42.7405 102.099 42.6276C102.011 42.4833 101.931 42.4722 101.836 42.5862C101.655 42.8129 100.823 42.9408 100.402 42.8098C100.133 42.7246 99.9872 42.801 99.6167 43.1884C99.3357 43.4962 99.2083 43.7042 99.2849 43.7717C99.3489 43.8298 99.4117 43.7986 99.4213 43.7078C99.4324 43.628 99.5125 43.5609 99.6033 43.5705C99.705 43.5786 99.595 43.7505 99.2826 44.0739C98.7614 44.5832 98.5529 44.6907 98.657 44.3966C98.7516 44.1149 98.5388 44.033 98.1641 44.2309C97.976 44.3244 97.7457 44.3568 97.6706 44.3002C97.5831 44.2342 97.3326 44.2023 97.1133 44.2331C96.883 44.2654 96.6389 44.199 96.5656 44.0751C96.4829 43.9637 96.3219 43.8522 96.1982 43.8472C95.8694 43.815 95.8654 44.1846 96.1955 44.306C96.4442 44.4052 96.4269 44.4412 95.879 44.9989C95.5557 45.3239 95.2071 45.7082 95.1034 45.8458C94.896 46.1209 94.7708 46.1049 94.7277 45.7979C94.7107 45.6773 94.5668 45.608 94.3539 45.6044C94.1174 45.5928 94.0249 45.6505 94.0638 45.7681C94.1757 46.0878 93.882 46.4645 93.3066 46.7465L92.7296 47.0176L92.9374 46.5859C93.1986 46.0572 93.1909 46.0024 92.8856 45.9782C92.6931 45.9605 92.6146 46.0386 92.5072 46.3891C92.4299 46.6348 92.3183 46.7958 92.2668 46.7471C92.2042 46.7 92.0992 46.7483 92.0223 46.8373C91.8997 46.9999 91.8857 46.9795 91.8456 46.6944C91.7995 46.3654 91.5101 46.216 91.4734 46.5118C91.4638 46.6026 91.3245 47.2036 91.0708 47.2281C90.817 47.2525 90.3109 47.3906 89.9519 47.5417C89.1603 47.8764 88.8907 47.3104 88.9921 46.8378L89.0666 46.4919L88.8655 46.7325C88.7493 46.8607 88.5956 46.9605 88.5173 46.9603C88.4375 46.9492 88.2051 47.2054 88.0148 47.5228C87.6768 48.0623 87.6564 48.0763 87.6541 47.7412C87.6484 47.5407 87.7524 47.2466 87.8655 47.0965C88.1672 46.6964 88.1932 46.3237 87.9046 46.4984C87.7807 46.5717 87.6755 46.6983 87.6659 46.7891C87.6228 47.1194 86.5141 48.382 86.072 48.5782C85.8196 48.6919 85.5701 48.9059 85.5149 49.0702C85.4597 49.2344 85.2021 49.5501 84.9462 49.7985C84.5821 50.1515 84.4755 50.1888 84.4274 50.0055C84.367 49.7345 84.0174 49.873 83.9195 50.211C83.8785 50.3174 83.7797 50.4095 83.6998 50.3984C83.609 50.3887 83.6188 50.2196 83.7023 50.0178L83.8645 49.6596L83.4336 49.776C83.1954 49.8318 82.8426 50.0267 82.6433 50.2C82.2745 50.5202 81.8938 50.5959 82.1215 50.3068C82.2362 50.1677 82.0588 49.0633 81.9072 48.9392C81.8822 48.9203 81.7204 49.122 81.5554 49.3799C81.2253 49.8959 81.278 50.1121 81.6748 49.8328C81.8066 49.736 81.9696 49.702 82.0196 49.7397C82.0696 49.7774 81.9659 49.9149 81.7839 50.0523C81.1737 50.4846 80.4415 50.8445 80.329 50.7597C80.2774 50.711 79.9452 50.8136 79.5908 50.9975C79.2349 51.1704 78.9137 51.2714 78.8527 51.2353C78.6886 51.1017 78.3729 51.4815 78.336 51.8557C78.3038 52.1845 78.2646 52.2235 78.0643 52.151C77.925 52.1146 77.7259 52.2097 77.5845 52.3972C77.1777 52.924 77.0043 52.7247 77.3441 52.1179C77.5233 51.802 77.6353 51.4844 77.612 51.3982C77.5389 51.196 76.3291 52.853 76.3283 53.1662C76.3181 53.4919 76.0927 53.4788 76.012 53.1435C75.9905 52.99 76.0459 52.7474 76.1606 52.6083C76.2737 52.4582 76.3194 52.3064 76.2569 52.2593C76.0928 52.1258 75.5859 52.5771 75.2352 53.1854C74.883 53.7828 74.7952 53.7951 74.7089 53.2593C74.6487 52.91 74.6377 52.9115 74.2729 53.4994C74.0277 53.9028 73.7624 54.1637 73.5194 54.2649C73.1604 54.4159 73.1495 54.4175 73.3286 54.1799C73.47 53.9923 73.4467 53.9061 73.2449 53.8226C72.9476 53.6966 72.7939 53.7965 72.8857 54.0519C72.92 54.1366 72.7972 54.3774 72.6229 54.5696C72.3528 54.8759 72.2557 54.9007 72.0416 54.7295C71.7274 54.4829 71.1645 54.7743 70.8923 55.3045C70.7601 55.5579 70.5656 55.6858 70.1849 55.7616C69.8919 55.8251 69.6051 55.9325 69.5485 56.0075C69.492 56.0825 69.4216 56.0589 69.3858 55.9633C69.35 55.8676 69.2327 55.8282 69.1151 55.8671C68.9443 55.9246 68.8958 55.8978 68.8525 55.6691C68.7967 55.4309 68.7403 55.4277 68.4689 55.6447C68.2979 55.7805 68.1015 56.0541 68.0305 56.2653C67.9089 56.6737 67.0853 57.2589 66.9936 57.0035C66.9609 56.9298 66.7806 56.9998 66.5813 57.1732C66.2314 57.4683 66.2204 57.4698 66.2275 57.1222C66.2327 56.9202 66.1736 56.7384 66.1032 56.7147C66.0313 56.6801 66.0221 56.6143 66.0692 56.5518C66.2498 56.3251 65.9195 56.2821 65.4884 56.4768C65.236 56.5904 64.9771 56.8169 64.9015 56.9952C64.7912 57.2455 64.7379 57.2642 64.6381 57.1105C64.5648 56.9866 64.474 56.9769 64.3782 57.091C64.3028 57.1911 64.2853 57.3053 64.3478 57.3525C64.5244 57.4954 63.9812 58.086 63.6695 58.0962C63.5144 58.1068 63.2407 57.9887 63.0625 57.8348C62.7203 57.5474 62.3692 57.6749 62.2288 58.1083C62.1372 58.4119 60.587 59.6358 60.437 59.5227C60.3744 59.4756 60.4374 59.3661 60.5597 59.2819C60.693 59.1961 60.7671 59.0068 60.7236 58.8563C60.6678 58.6182 60.6161 58.6478 60.2752 59.087C59.8102 59.6778 59.4185 59.7551 59.2223 59.3131C59.1086 59.0607 59.0413 59.0589 58.7025 59.2742C58.221 59.5878 58.0105 59.841 58.214 59.8571C58.3049 59.8667 58.361 59.9483 58.3514 60.0391C58.3418 60.1299 58.2541 60.1422 58.154 60.0668C57.9899 59.9333 57.7483 60.1238 57.4355 60.6037C57.3616 60.7147 57.2018 60.7707 57.05 60.7249C56.9092 60.6776 56.8591 60.6399 56.9359 60.6291C57.0127 60.6184 57.0475 60.4681 57.0009 60.2958C56.9653 60.1218 56.9686 60.0655 57.0169 60.1705C57.0652 60.2755 57.1544 60.2742 57.2502 60.1601C57.3838 59.996 57.3353 59.9693 56.9155 60.0058C56.6508 60.0318 56.317 60.1234 56.1852 60.2202C56.0425 60.3185 55.7995 60.4197 55.6366 60.4537C55.4721 60.4768 55.1912 60.7063 55.0136 60.9549C54.6758 61.416 53.4146 62.3086 53.2755 62.194C53.2255 62.1563 53.2494 62.0076 53.2952 61.8558C53.4308 61.4678 53.2494 61.3702 52.8463 61.6057C52.4244 61.8662 52.4056 61.8912 52.598 61.9872C52.7059 62.0391 52.6349 62.2504 52.4227 62.5709C52.2184 62.8679 51.9085 62.8108 51.9855 62.7217C52.0624 62.6326 52.0424 62.4901 51.9439 62.4256C51.8548 62.3487 51.7232 62.3671 51.6478 62.4672C51.5709 62.5563 51.4658 62.6045 51.4143 62.5559C51.3518 62.5087 51.184 62.5882 51.027 62.7444C50.7602 62.9943 50.2065 62.7142 50.4485 62.3672C50.5994 62.1671 51.2225 62.225 51.1599 62.1778C51.0974 62.1307 51.1322 61.9805 51.2454 61.8304C51.415 61.6053 51.4135 61.5944 51.169 61.6846C51.0201 61.739 50.8291 61.7323 50.754 61.6757C50.6149 61.5611 49.4986 62.1315 49.5232 62.307C49.5309 62.3618 49.6592 62.3997 49.8143 62.3891C50.0476 62.3787 50.0742 62.4085 49.9799 62.5336C49.9139 62.6211 49.7881 62.84 49.7015 63.0199C49.5551 63.3312 49.5442 63.3327 49.5434 63.0086C49.5411 62.6734 49.5301 62.675 49.2273 62.9076C49.0563 63.0434 48.8255 63.3106 48.7091 63.517C48.5927 63.7234 48.4545 63.8546 48.4045 63.8169C48.3545 63.7792 48.2212 63.865 48.0971 64.0166C47.9652 64.1917 47.7833 64.2508 47.6066 64.1861C47.4532 64.1294 47.2762 64.143 47.2087 64.2196C47.1412 64.2962 46.8653 64.402 46.5802 64.442C46.2951 64.482 46.0004 64.6128 45.914 64.7144C45.7711 64.891 45.7695 64.8801 45.7984 64.6076C45.8382 64.3337 45.8132 64.3148 45.3528 64.3012L44.858 64.2812L45.3149 63.7922L45.7718 63.3031L45.303 63.5478C45.0427 63.685 44.7195 63.9316 44.5781 64.1192C44.2655 64.5209 43.4391 65.0059 43.275 64.8724C43.1249 64.7593 43.1532 64.7218 43.5907 64.4926C43.8619 64.3539 43.9373 64.2539 43.9221 64.0659C43.8698 63.6931 43.4731 63.8941 43.1053 64.4601C42.9293 64.7196 42.5886 65.0805 42.3313 65.2396C42.0443 65.4253 41.8904 65.6034 41.9137 65.6896C41.9868 65.8918 39.1244 67.0875 39.3587 66.6856C39.4846 66.4667 39.4503 66.382 39.2141 66.2922C39.0482 66.226 38.9074 66.1787 38.898 66.1912C38.898 66.1912 38.7302 66.2706 38.539 66.3422C38.318 66.4403 38.1814 66.5825 38.1497 66.7547C38.1258 66.9034 38.4451 66.948 38.1877 67.1854C37.9303 67.4228 37.4298 67.2023 37.0491 67.2781C36.8955 67.2997 36.7139 67.2805 36.6279 67.2254C36.3654 67.0275 35.5785 67.3168 35.2361 67.7451C35.0664 67.9702 34.69 68.2354 34.4141 68.3413C34.1382 68.4471 32.9416 68.5256 32.8791 68.4784C32.8041 68.4219 32.8043 68.3436 33.1161 68.2551C33.2994 68.207 33.7786 68.1956 33.9247 68.041C34.2073 67.7441 34.0056 67.5823 33.5839 67.7645C33.4052 67.8455 33.0386 67.9417 32.7754 67.9786C32.5012 68.0171 32.2081 68.1589 32.1138 68.284C32.0195 68.409 31.7671 68.5227 31.5667 68.5285C31.3553 68.5358 31.095 68.673 30.9819 68.823C30.8687 68.9731 29.4615 69.383 29.7368 68.8748C29.9334 68.5229 30.5729 68.299 30.9005 68.1635C31.1544 68.0608 31.3474 67.9219 31.3476 67.8436C31.3152 67.6133 30.9863 67.6595 30.7679 67.9361C30.6548 68.0862 30.4901 68.1876 30.3884 68.1795C30.2976 68.1699 30.1423 68.2588 30.0481 68.3838C29.9538 68.5089 29.8472 68.5462 29.8239 68.46C29.7912 68.3863 29.7301 68.4285 29.6702 68.5599C29.6119 68.7022 29.3376 68.819 28.9742 68.8588C28.5106 68.9015 28.4057 68.8715 28.5204 68.7324C28.6067 68.6309 28.6227 68.5056 28.5727 68.4679C28.5211 68.4192 28.3313 68.5801 28.1506 68.8067C27.97 69.0333 27.6764 69.3317 27.5054 69.4675C27.2936 69.6314 27.2307 69.7409 27.3073 69.8084C27.3823 69.865 27.4904 69.8386 27.5564 69.7511C27.6224 69.6635 27.8588 69.6751 28.0746 69.779C28.2905 69.8829 28.5081 69.9194 28.5458 69.8694C28.5929 69.8069 28.7322 69.8432 28.8463 69.939C28.9713 70.0333 29.1091 70.0587 29.1577 70.0071C29.2049 69.9446 29.3442 69.981 29.4567 70.0658C29.5817 70.1601 29.7351 70.2168 29.8088 70.1841C29.9467 70.1312 32.3576 70.419 33.5613 70.6302C33.9166 70.6921 34.3581 70.7308 34.5351 70.7171C34.7121 70.7035 34.9062 70.7321 34.9687 70.7793C35.0203 70.8279 35.5087 70.8824 36.0505 70.9181C36.5797 70.9445 37.2607 71.0166 37.5487 71.0768C37.8367 71.1371 38.1984 71.1646 38.3644 71.1524C38.9612 71.1022 40.6489 71.2567 40.8005 71.3808C40.888 71.4467 41.0023 71.4642 41.04 71.4142C41.0871 71.3517 41.5381 71.3779 42.0406 71.4527C42.543 71.5275 43.4291 71.6268 44.0038 71.6579C44.5784 71.6891 45.1452 71.7437 45.2719 71.7707C45.3987 71.7976 45.7994 71.8643 46.1627 71.9028C46.5274 71.9523 47.1771 72.04 47.6138 72.124C48.0489 72.1971 48.6517 72.2691 48.9414 72.262C49.2326 72.2658 49.7915 72.3439 50.1608 72.4262C50.5427 72.518 51.3771 72.6469 52.0362 72.7221C52.6843 72.7988 53.3715 72.9148 53.5483 72.9795C53.7251 73.0441 54.024 73.1028 54.2056 73.122C54.3857 73.1303 54.6329 73.2186 54.7454 73.3034C54.858 73.3883 54.9832 73.4042 55.0319 73.3527C55.079 73.2901 55.1917 73.2967 55.2918 73.3721C55.3809 73.449 55.6923 73.5171 55.9647 73.546C56.2466 73.5624 56.699 73.5995 56.9809 73.6158C57.2627 73.6322 57.5257 73.6735 57.5647 73.7128C57.6022 73.7411 57.9183 73.842 58.2642 73.9165C59.9749 74.3137 61.3865 74.6523 61.9123 74.8133C62.2284 74.9143 62.6885 75.0063 62.925 75.0178C63.5121 75.0584 65.262 75.4166 65.412 75.5297C65.4746 75.5768 66.958 76.0283 67.055 76.0818C67.1519 76.1353 67.3272 76.189 67.4399 76.1955C67.5651 76.2115 68.1188 76.4916 68.2035 76.4573C68.2881 76.4231 68.4509 76.4673 68.565 76.5631C68.6775 76.648 68.8966 76.6955 69.0376 76.6645C69.1896 76.632 69.3618 76.6637 69.4164 76.7343C69.4711 76.8049 69.6948 76.8853 69.8999 76.9125C70.1065 76.9506 71.2313 77.3965 71.4853 77.2937C71.6013 77.2439 71.8235 77.3134 71.9735 77.4265C72.1126 77.5411 73.6261 77.8878 74.1892 78.1554C75.0025 78.5332 74.925 78.8572 74.9933 79.1047C75.0087 79.2144 75.1976 79.4451 75.4008 79.6178C75.5929 79.7921 75.7692 80.0916 75.7969 80.289C75.8261 80.4974 76.0102 80.7734 76.2744 80.9823C76.6635 81.2855 76.7367 81.4877 76.9186 82.6251C76.9725 83.0089 77.3027 84.4049 77.2338 85.0296C77.1297 85.9611 76.5828 86.1273 76.4279 86.0596C76.2746 86.0028 76.1246 85.8897 76.0997 85.7926C76.0951 85.7597 74.9155 85.3215 74.6138 85.0843C74.1746 84.7434 74.5415 84.5689 74.5792 84.5189C74.7677 84.2688 74.123 84.0573 73.8876 84.2917C73.6317 84.54 73.3735 84.4533 73.5809 84.1782C73.7333 83.9891 73.5865 83.8196 73.3404 83.8988C73.2558 83.9331 73.093 83.8888 72.979 83.793C72.8664 83.7082 72.7021 83.653 72.6175 83.6872C72.5219 83.723 72.5625 83.7732 72.6908 83.8111C72.8316 83.8584 72.8658 83.9431 72.7904 84.0431C72.5909 84.2948 72.4297 84.2615 72.3162 83.9308C72.226 83.6863 72.165 83.6501 71.9722 83.7107C71.8233 83.7651 71.7668 83.8402 71.8105 83.9123C71.9243 84.0864 71.0744 83.9262 71.1421 83.7713C71.2429 83.5335 71.2133 83.4818 70.9378 83.431C70.7547 83.4008 70.5683 83.427 70.5211 83.4895C70.474 83.552 70.3722 83.5439 70.2847 83.4779C70.1972 83.412 70.014 83.3818 69.884 83.4112C69.7414 83.4312 69.5098 83.3743 69.3692 83.2486C69.2191 83.1355 68.8311 82.9999 68.5117 82.9553C68.1924 82.9106 67.8059 82.786 67.6543 82.6619C67.4792 82.5299 67.3321 82.517 67.2457 82.6186C67.1514 82.7437 67.0575 82.7121 66.8936 82.5003C66.7563 82.3183 66.6359 82.257 66.5683 82.3335C66.5102 82.3976 66.4115 82.4114 66.349 82.3643C66.274 82.3078 65.9718 82.3054 65.6757 82.347C65.27 82.404 65.0853 82.3628 64.9808 82.1762C64.7578 81.7826 64.6874 81.7589 64.5162 81.973C64.4298 82.0746 63.2546 81.7476 63.028 81.5669C62.8029 81.3973 62.5728 81.3513 62.3064 81.4446C61.9647 81.5596 61.8943 81.536 61.7885 81.2601C61.6873 81.0171 61.6357 80.9685 61.5009 81.0433C61.264 81.1884 58.9394 80.8773 58.6252 80.6307C58.3736 80.4312 58.1294 80.3648 57.9147 80.4285C57.733 80.4876 57.4182 80.4758 57.196 80.4064C56.9848 80.3354 55.7859 80.0788 55.6793 80.1161C55.5618 80.155 55.3301 80.098 55.1472 79.9895C54.9642 79.881 54.6622 79.8004 54.4743 79.8156C54.2863 79.8308 53.906 79.75 53.6432 79.6304C53.3694 79.5123 53.1174 79.4694 53.0703 79.5319C53.0231 79.5944 52.9214 79.5863 52.8338 79.5203C52.7463 79.4544 51.5967 79.5486 51.6047 79.4469C51.6144 79.3561 51.5066 79.2258 51.3533 79.1691C51.2 79.1123 51.1219 79.0338 51.1721 78.9932C51.3808 78.8074 51.4518 78.5962 51.3156 78.5817C51.2357 78.5706 51.107 78.6893 51.0393 78.8442C50.8771 79.2024 50.4168 79.1887 50.5336 78.8257C50.5778 78.6629 50.4853 78.7207 50.2764 78.9848C50.0093 79.313 49.8933 79.3628 49.7183 79.2308C49.6042 79.135 49.4305 79.0923 49.3443 79.1156C49.2596 79.1499 49.0594 79.0773 48.9078 78.9533C48.7452 78.8307 48.1833 78.7307 47.5773 78.7151C47.0057 78.7059 46.3811 78.637 46.2027 78.5614C46.0244 78.4858 45.5844 78.4581 45.2116 78.5104C44.8388 78.5628 44.4552 78.5383 44.3536 78.452C44.252 78.3656 44.0454 78.3275 43.8934 78.36C43.7399 78.3816 43.5598 78.3733 43.4708 78.2963C43.3942 78.2288 42.9996 78.2059 42.5908 78.2409C42.193 78.2744 41.8109 78.261 41.7594 78.2123C41.6328 78.1071 39.79 77.9632 39.6551 78.038C39.5924 78.0692 39.4766 78.0407 39.3891 77.9747C39.3015 77.9087 39.1888 77.9022 39.1323 77.9772C39.0757 78.0523 38.9568 78.0019 38.846 77.8497C38.7227 77.6881 38.5569 77.6219 38.3626 77.6716C38.2012 77.7166 38.0634 77.6912 38.0526 77.6144C38.0419 77.5377 38.1517 77.444 38.3037 77.4115C38.5747 77.3511 38.6928 77.0773 38.5037 76.9249C38.4412 76.8778 38.3362 76.9261 38.2498 77.0277C38.1744 77.1277 38.1007 77.1604 38.0899 77.0837C38.0684 76.9301 37.2044 76.7495 37.0992 76.8761C36.9562 77.0527 37.0592 77.2283 37.305 77.2274C37.4382 77.2199 37.5946 77.2985 37.6507 77.3801C37.71 77.4836 37.5784 77.5021 37.3249 77.4482C37.0932 77.3913 36.7768 77.4469 36.6356 77.5562C36.4347 77.7185 36.2876 77.7056 36.0359 77.5061C35.7968 77.3161 35.6152 77.2968 35.3659 77.4325C34.9801 77.632 34.7893 77.5469 34.7229 77.1537C34.6937 76.9454 34.6702 76.9375 34.5992 77.1487C34.544 77.313 34.4609 77.3582 34.3484 77.2734C34.2608 77.2074 34.1183 77.2274 34.0413 77.3165C33.9565 77.429 33.8547 77.4209 33.7955 77.3174C33.7362 77.2139 33.5281 77.1649 33.3417 77.1911C33.1552 77.2172 32.8359 77.1726 32.631 77.0672C32.4261 76.9617 32.1678 76.9533 32.047 77.0485C31.8963 77.1703 31.7132 77.1401 31.4506 76.9421C31.213 76.763 30.9594 76.7092 30.7338 76.7744C30.3044 76.9017 30.1309 76.7807 30.3586 76.4916C30.4529 76.3666 30.5908 76.3136 30.6534 76.3608C30.7159 76.4079 30.7801 76.3877 30.7898 76.2969C30.8298 75.9447 30.3911 76.0062 30.2086 76.3785C30.0591 76.6678 29.9148 76.7552 29.4841 76.7933C28.8873 76.8435 28.6465 76.7207 28.738 76.4172C28.7775 76.2998 28.9797 76.2267 29.2161 76.2382C29.8392 76.2961 29.8648 76.0801 29.2528 75.9424C28.7692 75.8425 28.683 75.8658 28.5068 76.2036C28.2944 76.6024 27.724 76.7608 27.3974 76.5047C27.3098 76.4387 27.1532 76.4383 27.0497 76.4976C26.9462 76.5569 26.5626 76.5324 26.1933 76.4501C25.8333 76.3553 25.4028 76.3151 25.2508 76.3476C25.0973 76.3691 24.8797 76.3326 24.7672 76.2477C24.6546 76.1629 24.4261 76.1279 24.2631 76.1619C23.9826 76.2348 23.3172 76.1941 23.1906 76.0888C23.1531 76.0606 23.2051 75.9526 23.2899 75.8401C23.4894 75.5885 23.9749 75.5427 24.5242 75.7116C24.7464 75.781 24.9594 75.7847 25.0174 75.7206C25.1494 75.5455 24.7054 75.2501 24.4609 75.3403C24.3449 75.3901 24.06 75.3518 23.8253 75.273C23.4482 75.1358 23.3745 75.1685 23.1167 75.5625C22.7851 76.0675 22.4121 76.1981 22.0619 75.9342C21.9354 75.8289 21.6849 75.797 21.514 75.8545C21.3432 75.9121 21.0004 75.8595 20.747 75.7274C20.4937 75.5952 20.1603 75.5302 20.0114 75.5847C19.8515 75.6406 19.6918 75.6183 19.6341 75.5258C19.5764 75.4333 19.3963 75.425 19.227 75.4935C19.0593 75.5729 18.8589 75.5787 18.7713 75.5127C18.6838 75.4467 18.4568 75.4227 18.25 75.4629C18.0416 75.4921 17.7802 75.4617 17.6661 75.3659C17.5535 75.2811 17.4064 75.2682 17.3419 75.3667C17.2759 75.4542 17.0239 75.4114 16.7721 75.2902C16.5297 75.1565 16.2887 75.112 16.24 75.1636C16.1929 75.2261 16.0911 75.218 16.0255 75.149C15.7521 74.8742 15.5909 74.841 15.448 75.0176C15.1825 75.3567 14.8426 75.4045 14.7806 75.1224C14.714 74.8075 13.8218 74.6644 13.4547 74.9172C13.323 75.0139 13.1952 74.7411 12.939 75.1461C12.7189 75.4901 12.4342 75.3735 12.146 75.3916C11.6933 75.4328 11.5119 75.3352 11.5987 75.0771C11.6302 74.9832 11.6083 74.9863 11.5454 75.0957C11.212 75.668 8.95251 74.9453 8.58026 74.1254C8.46963 73.8949 8.09545 73.2206 8.06139 73.0577C8.02426 72.8728 7.92267 72.7865 7.69414 72.7514C7.23549 72.6705 6.91518 72.38 6.97387 72.081C6.99771 71.9323 6.92134 71.7865 6.79303 71.7486C6.66471 71.7107 6.50254 71.4315 6.41403 71.1197C6.32093 70.775 6.16181 70.5178 5.99753 70.4625C5.80822 70.3885 5.17258 69.0465 5.55272 68.5682L5.5056 68.6307ZM65.1874 82.2143C65.25 82.2614 65.3127 82.2302 65.3223 82.1394C65.3319 82.0486 65.318 81.9499 65.293 81.9311C65.268 81.9122 65.2053 81.9434 65.1582 82.0059C65.1111 82.0684 65.1234 82.1562 65.1874 82.2143ZM47.353 78.2322C47.423 78.4125 47.7583 78.3319 47.7321 78.1455C47.7229 78.0797 47.6259 78.0262 47.5053 78.0431C47.3628 78.0631 47.3156 78.1257 47.353 78.2322ZM44.848 77.9912C44.9105 78.0383 45.0233 78.0449 45.1094 78.0216C45.1941 77.9874 45.1927 77.8981 45.0817 77.8242C44.9817 77.7488 44.869 77.7423 44.8203 77.7938C44.7732 77.8564 44.7855 77.9441 44.8465 77.9803L44.848 77.9912ZM44.3894 77.9102C44.4802 77.9198 44.5679 77.9075 44.5977 77.881C44.6166 77.856 44.5854 77.7933 44.5229 77.7461C44.4604 77.699 44.3726 77.7113 44.3145 77.7754C44.2674 77.8379 44.2986 77.9006 44.3894 77.9102ZM42.9244 77.5903L43.2576 77.7336C43.6378 77.8927 43.763 77.9087 43.746 77.7881C43.7399 77.7442 43.5521 77.6811 43.3236 77.6461L42.9134 77.5919L42.9244 77.5903ZM41.5243 77.6527C41.7342 77.6344 41.9394 77.5832 41.9881 77.5317C42.0258 77.4816 41.9258 77.4062 41.7426 77.376C41.5705 77.3443 41.3667 77.4064 41.2913 77.5065C41.1688 77.669 41.1938 77.6879 41.5258 77.6636L41.5243 77.6527ZM38.9147 77.3033C38.9772 77.3505 39.0649 77.3382 39.123 77.2741C39.1702 77.2116 39.139 77.1489 39.0482 77.1392C38.9574 77.1296 38.8587 77.1435 38.8398 77.1685C38.821 77.1935 38.8521 77.2562 38.9147 77.3033ZM35.2135 76.9842C35.7269 77.0575 35.9245 76.9515 35.6604 76.7426C35.5604 76.6672 35.4586 76.6591 35.4115 76.7216C35.3643 76.7841 35.2062 76.7728 35.0529 76.7161C34.8995 76.6593 34.732 76.6605 34.6958 76.7214C34.5827 76.8715 34.6797 76.925 35.226 76.9937L35.2135 76.9842ZM33.828 76.8321C33.8618 77.0733 34.0325 77.0941 34.2022 76.869C34.2964 76.744 34.3343 76.6156 34.2828 76.567C34.1577 76.4727 33.8159 76.666 33.828 76.8321ZM32.4506 76.5781C32.4506 76.5781 32.6008 76.613 32.648 76.5504C32.6951 76.4879 32.6828 76.4002 32.6202 76.3531C32.5577 76.3059 32.47 76.3182 32.4229 76.3808C32.3757 76.4433 32.388 76.531 32.4506 76.5781ZM208.178 25.6583C208.33 25.7824 208.505 25.836 208.552 25.7735C208.599 25.711 208.537 25.5856 208.423 25.4897C208.309 25.3939 208.135 25.3512 208.049 25.3745C207.964 25.4088 208.014 25.5248 208.178 25.6583ZM200.557 24.1786C200.725 24.1774 200.905 24.1857 200.939 24.192C200.983 24.1859 200.905 24.1074 200.767 24.0037C200.617 23.8906 200.472 23.8887 200.387 24.0012C200.263 24.1528 200.289 24.1826 200.557 24.1786ZM182.791 22.9935C182.882 23.0032 182.969 22.9908 182.999 22.9643C183.018 22.9393 182.987 22.8766 182.924 22.8294C182.862 22.7823 182.774 22.7946 182.716 22.8587C182.669 22.9212 182.7 22.9839 182.791 22.9935ZM180.188 23.2471C180.222 23.3318 180.31 23.3195 180.385 23.2194C180.46 23.1194 180.448 23.0317 180.357 23.022C180.266 23.0124 180.179 23.0247 180.16 23.0497C180.141 23.0748 180.153 23.1625 180.188 23.2471ZM159.181 25.5024C159.243 25.5496 159.331 25.5372 159.378 25.4747C159.425 25.4122 159.413 25.3245 159.351 25.2773C159.288 25.2302 159.2 25.2425 159.153 25.305C159.106 25.3676 159.118 25.4553 159.181 25.5024ZM144.115 28.4221C144.245 28.471 144.364 28.5997 144.371 28.7328C144.395 28.8973 144.43 28.9146 144.506 28.8146C144.562 28.7395 144.563 28.5829 144.491 28.47C144.419 28.3571 144.252 28.28 144.122 28.3094C143.936 28.3356 143.929 28.37 144.104 28.4237L144.115 28.4221ZM124.24 31.5697C124.657 31.4329 124.772 31.2155 124.443 31.1834C124.341 31.1753 124.147 31.2249 123.989 31.2919C123.547 31.4881 123.761 31.7376 124.229 31.5712L124.24 31.5697ZM116.325 37.6341C116.359 37.7187 116.474 37.7362 116.598 37.6629C116.845 37.5163 116.852 37.3253 116.602 37.2934C116.375 37.2693 116.25 37.4209 116.325 37.6341ZM115.182 38.1747C115.273 38.1843 115.409 38.1204 115.474 38.0219C115.551 37.9329 115.528 37.8467 115.448 37.8355C115.357 37.8259 115.22 37.8898 115.156 37.9883C115.079 38.0773 115.102 38.1635 115.182 38.1747ZM113.099 35.6045C113.331 35.5049 113.894 34.7327 113.783 34.6588C113.72 34.6117 113.611 34.627 113.542 34.6926C112.981 35.2409 112.73 35.7571 113.089 35.6061L113.099 35.6045ZM112.427 34.715C112.519 34.6573 112.614 34.5322 112.645 34.4383C112.675 34.3335 112.603 34.3772 112.479 34.5288C112.355 34.6804 112.333 34.7617 112.427 34.715ZM111.872 38.7288C111.936 38.7869 111.997 38.7447 112.007 38.6539C112.016 38.5631 112.004 38.4754 111.978 38.4456C111.953 38.4267 111.89 38.4579 111.843 38.5204C111.796 38.5829 111.808 38.6707 111.87 38.7178L111.872 38.7288ZM105.741 37.0288C105.833 36.9711 105.909 36.871 105.899 36.8052C105.89 36.7394 105.818 36.7831 105.724 36.9082C105.631 37.0442 105.637 37.088 105.741 37.0288ZM103.684 37.9101C103.834 38.0232 104.057 37.7012 103.984 37.499C103.909 37.2858 103.834 37.3076 103.696 37.5954C103.636 37.7268 103.632 37.8614 103.684 37.9101ZM102.764 42.5118C102.855 42.5214 102.992 42.4575 103.058 42.37C103.124 42.2825 103.13 42.1697 103.068 42.1226C103.005 42.0755 102.88 42.1378 102.774 42.2644C102.669 42.391 102.674 42.5022 102.764 42.5118ZM101.818 42.1415C101.725 42.2775 101.731 42.3214 101.835 42.2621C101.927 42.2044 102.003 42.1043 101.994 42.0385C101.984 41.9728 101.912 42.0164 101.818 42.1415ZM100.945 39.6698C101.264 39.5469 101.37 39.4313 101.349 39.2777C101.327 39.1242 101.272 39.1319 101.141 39.307C101.035 39.4336 100.859 39.6148 100.726 39.7006C100.604 39.7849 100.702 39.771 100.936 39.6823L100.945 39.6698ZM100.626 42.4095C100.718 42.3518 100.812 42.2267 100.844 42.1328C100.874 42.028 100.802 42.0717 100.678 42.2232C100.554 42.3748 100.531 42.4562 100.626 42.4095ZM97.2505 41.3066C97.5102 41.4043 97.7377 41.1935 97.5361 41.0317C97.4361 40.9563 97.2935 40.9763 97.2181 41.0763C97.1427 41.1764 97.1566 41.2751 97.2505 41.3066ZM97.191 43.1935C97.2818 43.2031 97.3994 43.1642 97.4465 43.1017C97.4936 43.0392 97.4625 42.9764 97.3717 42.9668C97.2809 42.9572 97.1633 42.9961 97.1162 43.0586C97.0691 43.1211 97.1002 43.1838 97.202 43.1919L97.191 43.1935ZM92.1269 45.671C92.221 45.6242 92.3137 45.4882 92.3452 45.3943C92.3753 45.2895 92.3031 45.3331 92.179 45.4847C92.0549 45.6363 92.0328 45.7177 92.1269 45.671ZM91.2829 42.4461C91.2829 42.4461 91.4331 42.4809 91.4913 42.4169C91.5384 42.3544 91.5072 42.2916 91.4164 42.282C91.3256 42.2724 91.2269 42.2863 91.2081 42.3113C91.1892 42.3363 91.2204 42.399 91.2829 42.4461ZM90.4109 43.642C90.5238 43.5702 90.538 43.5123 90.4472 43.5027C90.3564 43.4931 90.2498 43.5304 90.2027 43.5929C90.0802 43.7555 90.1835 43.7745 90.4109 43.642ZM87.5656 44.8799C87.7085 44.7033 87.7449 44.5641 87.6416 44.545C87.4381 44.5289 87.3611 44.6179 87.3384 44.9342C87.3207 45.1268 87.3646 45.1206 87.5641 44.869L87.5656 44.8799ZM86.8105 47.5465C87.002 47.3966 87.0837 47.2622 87.0087 47.2056C86.9462 47.1585 86.7721 47.2724 86.6212 47.4724C86.2977 47.8757 86.3571 47.9009 86.8105 47.5465ZM84.6372 44.8884C84.7613 44.7368 84.8181 44.5835 84.768 44.5458C84.654 44.45 84.3779 44.6341 84.2975 44.8579C84.1949 45.163 84.4 45.1901 84.6388 44.8994L84.6372 44.8884ZM83.5626 46.314C83.6251 46.3611 83.7694 46.2738 83.892 46.1112C84.0145 45.9486 84.0399 45.8109 83.9491 45.8013C83.8583 45.7917 83.7031 45.8805 83.6088 46.0056C83.5145 46.1306 83.4876 46.2574 83.5516 46.3155L83.5626 46.314ZM83.9485 48.5856C84.077 48.5452 84.27 48.4063 84.3643 48.2812C84.5057 48.0937 84.4916 48.0733 84.3004 48.1448C84.1719 48.1852 83.9789 48.3241 83.8847 48.4492C83.7433 48.6368 83.7464 48.6587 83.9485 48.5856ZM82.5857 49.3918C82.9366 49.3426 83.1282 49.1144 82.8543 49.0746C82.7745 49.0635 82.6067 49.1429 82.4765 49.2506C82.2348 49.4411 82.2348 49.4411 82.5967 49.3903L82.5857 49.3918ZM81.2275 45.7696C81.3201 45.7119 81.3955 45.6118 81.3862 45.546C81.377 45.4802 81.3048 45.5239 81.2106 45.6489C81.1179 45.785 81.124 45.8288 81.2275 45.7696ZM79.4306 50.5727C79.5435 50.5009 79.711 50.4998 79.797 50.5548C80.0112 50.726 80.2511 50.6029 80.2957 50.2835C80.3292 50.044 80.3041 50.0252 79.9954 50.1356C79.4625 50.3222 79.4535 50.1781 79.9715 49.647C80.2368 49.3861 80.4961 49.0031 80.5561 48.7934C80.6525 48.4444 80.6416 48.4459 80.3368 48.8242C80.1547 49.0398 79.8751 49.3586 79.7166 49.5038C79.2034 49.9896 78.9852 50.8253 79.4385 50.5492L79.4306 50.5727ZM78.1018 50.9046C78.1959 50.8578 78.2886 50.7218 78.3202 50.6279C78.3502 50.5231 78.278 50.5667 78.1555 50.7293C78.0314 50.8809 78.0093 50.9623 78.1018 50.9046ZM76.7446 48.8028C76.8177 49.005 77.0466 48.8835 77.0676 48.6345C77.0883 48.4639 77.0414 48.4481 76.8877 48.5479C76.7732 48.6087 76.7009 48.7307 76.7336 48.8044L76.7446 48.8028ZM75.6405 51.373C75.6748 51.4577 75.7625 51.4454 75.8379 51.3453C75.9133 51.2453 75.901 51.1576 75.8102 51.148C75.7194 51.1383 75.6317 51.1506 75.6128 51.1757C75.594 51.2007 75.6063 51.2884 75.6405 51.373ZM75.2084 49.4098C75.1757 49.3361 75.0566 49.364 74.9233 49.4498C74.7915 49.5466 74.7286 49.6561 74.7787 49.6938C74.9052 49.799 75.2629 49.5587 75.2069 49.3989L75.2084 49.4098ZM74.4993 48.6596C74.532 48.7332 74.6526 48.7163 74.7844 48.6195C75.0166 48.4416 75.0266 48.1942 74.7948 48.2155C74.6084 48.2417 74.4418 48.4887 74.4978 48.6486L74.4993 48.6596ZM74.3383 49.8227C74.2456 49.9587 74.2517 50.0025 74.3552 49.9433C74.4478 49.8856 74.5232 49.7855 74.5139 49.7197C74.5047 49.654 74.4326 49.6976 74.3383 49.8227ZM73.796 48.7471C73.796 48.7471 73.9276 48.7286 74.0311 48.6694C74.1346 48.6101 74.1771 48.5147 74.1146 48.4676C74.052 48.4204 73.9455 48.4578 73.8685 48.5468C73.7916 48.6359 73.76 48.7298 73.785 48.7486L73.796 48.7471ZM73.2621 49.3252C73.4093 49.3381 73.6138 48.9628 73.5138 48.8873C73.4887 48.8685 73.3883 48.9497 73.2846 49.0872C73.1904 49.2123 73.1729 49.3265 73.2637 49.3362L73.2621 49.3252ZM73.5313 53.2345C73.5313 53.2345 73.4138 53.2734 73.3493 53.3719C73.2724 53.4609 73.2862 53.5596 73.377 53.5692C73.5242 53.5821 73.6454 53.3303 73.5313 53.2345ZM72.8268 51.2424C72.8268 51.2424 73.0398 51.2461 73.159 51.1399C73.2908 51.0431 73.3787 50.9525 73.3537 50.9337C73.3287 50.9148 73.1783 50.9583 73.0215 51.0362C72.8632 51.1032 72.7768 51.2047 72.8268 51.2424ZM70.6112 54.3376C69.9766 55.1535 69.811 55.6464 70.2278 55.5096C70.5381 55.4101 71.2215 54.5427 71.1499 54.3515C71.0924 54.1807 71.378 53.9057 71.8092 53.711C71.9675 53.6441 72.1997 53.4661 72.3128 53.3161C72.4259 53.166 72.6204 53.0381 72.741 53.0212C72.8945 52.9996 72.9715 52.9106 73.0081 52.693C73.0415 52.4535 73.0259 52.4221 72.8722 52.5219C72.7703 52.5922 72.5052 52.7747 72.2793 52.9183C72.055 53.0727 71.8493 53.2805 71.8193 53.3854C71.7893 53.4902 71.6341 53.5791 71.4775 53.5787C71.277 53.5845 71.0275 53.7984 70.6097 54.3267L70.6112 54.3376ZM70.2836 53.8357C70.3178 53.9204 70.3883 53.944 70.4339 53.8705C70.481 53.808 70.4781 53.7078 70.4046 53.6622C70.3421 53.6151 70.2732 53.6024 70.2543 53.6274C70.2355 53.6524 70.2368 53.7417 70.2821 53.8248L70.2836 53.8357ZM69.8163 52.8167C69.9498 52.6526 70.0333 52.4508 69.9975 52.3552C69.9244 52.153 69.6306 52.5297 69.5985 52.8585C69.5808 53.051 69.6247 53.0449 69.8148 52.8057L69.8163 52.8167ZM69.7511 54.5031C69.7854 54.5877 69.8731 54.5754 69.9485 54.4754C70.0239 54.3754 70.0116 54.2876 69.9208 54.278C69.83 54.2684 69.7423 54.2807 69.7234 54.3057C69.7045 54.3307 69.7169 54.4184 69.7511 54.5031ZM66.7194 51.9432C66.7536 52.0278 66.8492 51.992 66.9545 51.8654C67.0597 51.7388 67.1211 51.6184 67.0851 51.6011C66.9835 51.5147 66.668 51.8162 66.7194 51.9432ZM67.3335 55.0437C67.3335 55.0437 67.1188 55.1074 66.9963 55.2699C66.77 55.5701 66.7716 55.581 67.0834 55.4925C67.4172 55.401 67.5336 55.1945 67.3335 55.0437ZM66.4093 53.239C66.5593 53.3521 66.8841 53.1165 66.9693 52.8473C67.0214 52.6611 66.9949 52.6313 66.8256 52.6998C66.5482 52.7946 66.2842 53.1448 66.4093 53.239ZM66.741 56.5581C67.0661 56.8032 67.2996 56.7145 67.5576 56.2422C67.8596 55.6855 67.7723 55.5412 67.3299 55.894C67.1588 56.0298 66.9266 56.2078 66.8043 56.2921C66.6819 56.3763 66.6535 56.4921 66.741 56.5581ZM65.6392 53.0899C65.5484 53.0803 65.423 53.1426 65.3554 53.2192C65.2894 53.3067 65.2641 53.4445 65.2873 53.5307C65.3231 53.6263 65.4485 53.564 65.5711 53.4014C65.7046 53.2373 65.73 53.0996 65.6282 53.0915L65.6392 53.0899ZM65.0944 52.3949C65.4031 52.2844 65.5838 52.0578 65.4447 51.9432C65.3822 51.896 65.2284 51.9959 65.0949 52.16C64.9049 52.3991 64.911 52.443 65.0928 52.3839L65.0944 52.3949ZM65.0128 54.3631C65.1663 54.3415 65.2433 54.2525 65.2689 54.0364C65.3102 53.7735 65.2773 53.7781 65.0496 54.0672C64.8595 54.3064 64.8483 54.3862 65.0128 54.3631ZM64.4387 52.8223C64.6252 52.7962 64.6723 52.7337 64.6477 52.5582C64.6215 52.3718 64.5667 52.3795 64.4064 52.5921C64.2462 52.8046 64.2523 52.8485 64.4403 52.8333L64.4387 52.8223ZM59.9741 57.3402C59.8123 57.5418 59.7273 57.7327 59.7913 57.7908C59.9289 57.8944 60.0797 57.6944 60.1794 57.289C60.2442 57.0339 60.2128 57.0495 59.9647 57.3527L59.9741 57.3402ZM61.0091 57.385C61.0999 57.3946 61.2457 57.3183 61.3196 57.2073C61.4421 57.0447 61.4296 57.0353 61.2259 57.0974C60.9171 57.2078 60.804 57.3579 61.0075 57.3741L61.0091 57.385ZM60.6895 57.4187C60.602 57.3527 60.396 57.7171 60.4489 57.855C60.4816 57.9287 60.5522 57.8741 60.6214 57.7302C60.6892 57.5753 60.7161 57.4485 60.6911 57.4297L60.6895 57.4187ZM59.9262 56.4412C60.439 56.1121 60.4296 56.1246 60.2405 55.9722C60.153 55.9062 59.9964 55.9058 59.8835 55.9776C59.6153 56.1382 59.5682 56.2008 59.5393 56.4732C59.5185 56.6438 59.6282 56.6284 59.9246 56.4303L59.9262 56.4412ZM58.7665 54.8709C58.8606 54.8241 58.9533 54.6881 58.9849 54.5942C59.0149 54.4894 58.9427 54.533 58.8186 54.6846C58.6946 54.8362 58.674 54.9286 58.7665 54.8709ZM57.6363 59.1667C57.6989 59.2138 57.7866 59.2015 57.8337 59.139C57.8808 59.0764 57.8685 58.9887 57.806 58.9416C57.7435 58.8945 57.6558 58.9068 57.6086 58.9693C57.5615 59.0318 57.5738 59.1195 57.6363 59.1667ZM56.7396 58.9124C56.8305 58.922 56.9669 58.8581 57.0328 58.7706C57.0988 58.683 57.1053 58.5703 57.0428 58.5232C56.9803 58.476 56.8564 58.5493 56.7496 58.665C56.6554 58.79 56.6488 58.9027 56.7396 58.9124ZM55.6339 59.6378C55.6904 59.5628 55.7174 59.436 55.6831 59.3514C55.6116 59.1602 55.5833 59.1977 55.5496 59.5155C55.5367 59.6626 55.5773 59.7129 55.6339 59.6378ZM54.6016 59.7715C54.8867 59.7315 55.1441 59.4941 55.0646 59.3264C55.0304 59.2417 54.8626 59.3212 54.6962 59.4899C54.5015 59.6961 54.459 59.7916 54.5906 59.7731L54.6016 59.7715ZM53.5831 58.7293C53.6756 58.6715 53.7511 58.5715 53.7418 58.5057C53.7326 58.4399 53.6604 58.4836 53.5662 58.6086C53.4734 58.7446 53.4796 58.7885 53.5831 58.7293ZM52.5766 60.4807C52.6707 60.4339 52.7649 60.3089 52.795 60.204C52.825 60.0992 52.7528 60.1429 52.6287 60.2945C52.5046 60.446 52.4825 60.5274 52.5766 60.4807ZM51.2148 60.8955C51.249 60.9801 51.3429 61.0116 51.4291 60.9884C51.5137 60.9541 51.5124 60.8649 51.4123 60.7895C51.2123 60.6386 51.1401 60.6823 51.2148 60.8955ZM50.6503 61.1759C50.7411 61.1856 50.8775 61.1217 50.9529 61.0217C51.0299 60.9326 51.0066 60.8464 50.9268 60.8352C50.836 60.8256 50.7011 60.9005 50.6351 60.988C50.5582 61.0771 50.5815 61.1633 50.6613 61.1744L50.6503 61.1759ZM49.6267 61.6104C49.8193 61.628 50.2027 61.0934 50.0761 60.9882C50.0136 60.9411 49.8614 61.0519 49.7325 61.2489C49.6021 61.4349 49.5578 61.5977 49.6267 61.6104ZM48.9836 60.7726C49.0744 60.7822 49.2296 60.6933 49.3239 60.5682C49.4181 60.4432 49.4247 60.3305 49.3339 60.3208C49.2431 60.3112 49.0878 60.4001 48.9936 60.5252C48.8993 60.6502 48.8928 60.7629 48.9836 60.7726ZM48.8164 61.8918C48.8739 62.0626 49.3081 61.8899 49.2835 61.7144C49.2758 61.6596 49.1615 61.6421 49.0095 61.6746C48.8356 61.7102 48.7681 61.7868 48.8164 61.8918ZM47.81 59.1035C47.9795 58.9567 48.1146 58.8036 48.1099 58.7707C48.0869 58.6062 47.5457 58.9729 47.528 59.1654C47.5151 59.3126 47.6013 59.2893 47.8116 59.1145L47.81 59.1035ZM47.4457 62.7216C47.5082 62.7687 47.596 62.7564 47.6431 62.6938C47.6902 62.6313 47.6779 62.5436 47.6154 62.4965C47.5529 62.4493 47.4652 62.4616 47.418 62.5242C47.3709 62.5867 47.3832 62.6744 47.4457 62.7216ZM47.5261 63.7725C47.8472 63.7498 48.2062 63.5988 48.3208 63.4597C48.635 63.069 48.4065 63.034 47.7056 63.3783C46.8574 63.7881 46.8322 63.8475 47.5387 63.7819L47.5261 63.7725ZM46.592 64.1273C46.6955 64.068 46.7568 63.9476 46.7226 63.8629C46.6883 63.7783 46.5817 63.8156 46.4875 63.9407C46.2786 64.2048 46.3128 64.2894 46.592 64.1273ZM44.9411 60.4119C45.2443 60.0227 45.372 59.6581 45.2345 59.5545C45.1829 59.5058 45.0983 59.54 45.0432 59.626C44.9882 59.712 44.8436 59.956 44.7178 60.1749C44.4175 60.6643 44.6002 60.8511 44.9411 60.4119ZM44.2051 63.6125C44.2051 63.6125 44.4244 63.5817 44.5735 63.449C44.8717 63.1835 44.8017 63.0032 44.4723 63.206C44.1838 63.3807 44.091 63.5167 44.2051 63.6125ZM42.7599 62.8761C42.854 62.8293 42.9483 62.7043 42.9783 62.5994C43.0083 62.4946 42.9362 62.5383 42.8121 62.6899C42.688 62.8415 42.6659 62.9228 42.7599 62.8761ZM42.0058 63.2391C42.0966 63.2487 42.2221 63.1864 42.2881 63.0989C42.354 63.0113 42.3904 62.8721 42.3561 62.7874C42.3219 62.7028 42.1949 62.7541 42.0739 62.9277C41.942 63.1027 41.915 63.2295 42.0058 63.2391ZM41.4899 64.821C41.5241 64.9057 41.6307 64.8684 41.725 64.7433C41.8192 64.6183 41.8806 64.4978 41.8556 64.479C41.754 64.3926 41.4385 64.6941 41.4789 64.8226L41.4899 64.821ZM40.6308 65.2324C40.8551 65.0779 40.9761 64.9043 40.9701 64.7822C40.9516 64.6506 40.8308 64.7458 40.614 65.0334C40.2841 65.4711 40.2746 65.4836 40.6417 65.2308L40.6308 65.2324ZM39.2006 62.2128C39.2006 62.2128 39.3508 62.2476 39.4089 62.1836C39.456 62.121 39.4249 62.0583 39.3341 62.0487C39.2433 62.0391 39.1446 62.0529 39.1257 62.0779C39.1069 62.103 39.138 62.1657 39.2006 62.2128ZM38.7608 65.2936C39.0696 65.1831 39.1654 65.069 39.0263 64.9544C38.9638 64.9073 38.8289 64.9821 38.7252 65.1196C38.5634 65.3213 38.579 65.3526 38.7718 65.292L38.7608 65.2936ZM38.2589 65.6212C38.409 65.7343 38.4388 65.7077 38.4299 65.4854C38.4303 65.3288 38.3994 65.1877 38.3853 65.1674C38.3603 65.1485 38.2803 65.2156 38.2143 65.3032C38.1373 65.3922 38.1683 65.5333 38.2574 65.6102L38.2589 65.6212ZM36.9636 62.5268C36.9978 62.6114 37.0856 62.5991 37.161 62.4991C37.2364 62.3991 37.2241 62.3113 37.1333 62.3017C37.0425 62.2921 36.9547 62.3044 36.9359 62.3294C36.917 62.3544 36.9293 62.4421 36.9636 62.5268ZM36.1582 66.5869L36.6006 66.2341C36.8924 66.0031 37.0433 65.803 37.0248 65.6714C37.0063 65.5398 36.8651 65.6491 36.5823 66.0242L36.1582 66.5869ZM33.2911 63.9256C33.3836 63.8679 33.4591 63.7679 33.4498 63.7021C33.4406 63.6363 33.3684 63.6799 33.2742 63.805C33.1814 63.941 33.1876 63.9849 33.2911 63.9256ZM32.7094 67.4288C32.8019 67.3711 32.8773 67.2711 32.8681 67.2053C32.8589 67.1395 32.7758 67.1847 32.6925 67.3082C32.5997 67.4442 32.6059 67.4881 32.7094 67.4288ZM32.0763 67.6183C32.1388 67.6655 32.2265 67.6531 32.2846 67.5891C32.3318 67.5266 32.3006 67.4638 32.2098 67.4542C32.119 67.4446 32.0313 67.4569 32.0015 67.4835C31.9826 67.5085 32.0138 67.5712 32.0763 67.6183ZM29.3974 68.0502C29.7062 67.9398 29.802 67.8257 29.6629 67.7111C29.6004 67.6639 29.4655 67.7388 29.3618 67.8763C29.2016 68.0889 29.2156 68.1093 29.4084 68.0487L29.3974 68.0502ZM64.8367 31.5998C65.048 31.6707 65.3365 31.4961 65.1865 31.3829C65.1239 31.3358 64.9814 31.3558 64.8685 31.4276C64.7446 31.5009 64.7209 31.5713 64.8273 31.6123L64.8367 31.5998ZM64.6299 32.2773C64.7207 32.2869 64.8383 32.2481 64.876 32.198C64.9231 32.1355 64.9108 32.0478 64.8483 32.0007C64.7858 31.9535 64.6792 31.9909 64.6038 32.0909C64.5268 32.18 64.5391 32.2677 64.6299 32.2773ZM63.2146 33.4264C63.2146 33.4264 63.4278 33.3518 63.5692 33.1642C63.7106 32.9766 63.8112 32.8171 63.7862 32.7983C63.7612 32.7794 63.5996 32.9027 63.4316 33.0605C63.2652 33.2292 63.1646 33.3887 63.2146 33.4264ZM61.0771 32.1386C61.1696 32.0809 61.245 31.9809 61.2358 31.9151C61.2266 31.8493 61.1544 31.893 61.0602 32.018C60.9674 32.154 60.9736 32.1979 61.0771 32.1386ZM56.2133 36.6007C56.2133 36.6007 56.3887 36.5761 56.4955 36.4605C56.5897 36.3354 56.6526 36.226 56.6276 36.2071C56.6026 36.1883 56.4772 36.2506 56.3454 36.3474C56.2136 36.4441 56.1632 36.563 56.2133 36.6007ZM56.563 39.5707C56.7271 39.7042 56.8887 39.5808 57.5828 38.7902C58.123 38.1776 58.2207 37.9179 57.8697 38.0455C57.5718 38.1544 56.438 39.4764 56.563 39.5707ZM54.8324 39.0309C54.4576 39.2288 54.3916 39.3164 54.5292 39.42C54.5917 39.4672 54.7454 39.3673 54.8774 39.1923C55.0848 38.9172 55.0817 38.8952 54.8433 39.0293L54.8324 39.0309ZM53.5063 38.9039C53.581 39.1171 53.6248 39.1109 54.0706 38.7017L54.4488 38.3691L54.0257 38.462C53.5369 38.5642 53.4286 38.6688 53.5173 38.9024L53.5063 38.9039ZM53.5385 40.4872C53.7249 40.461 53.7735 40.4095 53.7474 40.223C53.7212 40.0366 53.6664 40.0443 53.5061 40.2569C53.3459 40.4695 53.352 40.5133 53.5385 40.4872ZM51.9238 40.5349C52.0368 40.4631 52.051 40.4052 51.9602 40.3956C51.8694 40.386 51.7628 40.4233 51.7157 40.4859C51.5931 40.6484 51.698 40.6784 51.9238 40.5349ZM51.8515 41.2942C51.9833 41.1975 52.0635 41.052 52.0293 40.9674C51.9966 40.8937 51.8711 40.956 51.7595 41.117C51.4941 41.4562 51.5283 41.5409 51.8515 41.2942ZM51.1913 42.3261C51.0985 42.4622 51.1047 42.506 51.2082 42.4468C51.3007 42.3891 51.3761 42.289 51.3669 42.2232C51.3577 42.1574 51.2855 42.2011 51.1913 42.3261ZM50.8727 41.331C50.9635 41.3406 51.081 41.3017 51.1282 41.2392C51.1753 41.1767 51.1441 41.114 51.0533 41.1044C50.9625 41.0947 50.845 41.1336 50.7979 41.1961C50.7507 41.2586 50.7819 41.3214 50.8727 41.331ZM50.2084 43.3698C50.4656 43.2107 50.5599 43.0857 50.5478 42.9196C50.5247 42.7552 50.4322 42.8129 50.1776 43.1505C49.8477 43.5882 49.8493 43.5991 50.2084 43.3698ZM49.103 42.664C49.1373 42.7486 49.225 42.7363 49.3004 42.6363C49.3758 42.5362 49.3635 42.4485 49.2727 42.4389C49.1819 42.4293 49.0942 42.4416 49.0753 42.4666C49.0565 42.4916 49.0688 42.5793 49.103 42.664ZM48.2629 44.884C48.3537 44.8937 48.4713 44.8548 48.5184 44.7923C48.5655 44.7298 48.5359 44.678 48.4451 44.6684C48.3543 44.6588 48.2368 44.6976 48.1896 44.7601C48.1425 44.8227 48.1721 44.8744 48.2629 44.884ZM47.3994 46.4589C47.3368 46.4117 47.2664 46.3881 47.2491 46.424C47.2303 46.449 47.2331 46.5493 47.2783 46.6324C47.3126 46.717 47.3815 46.7297 47.4286 46.6672C47.4757 46.6047 47.4729 46.5044 47.3994 46.4589ZM47.3355 45.6851C47.4673 45.5883 47.4988 45.4945 47.4205 45.4943C47.3407 45.4831 47.2168 45.5564 47.1398 45.6455C46.9592 45.8721 47.064 45.9021 47.337 45.6961L47.3355 45.6851ZM47.0019 47.6104C47.1272 47.6264 47.2809 47.5266 47.3422 47.4061C47.4555 47.1778 47.4446 47.1793 47.1141 47.2145C46.5533 47.2821 46.4696 47.5622 47.0019 47.6104ZM45.1381 45.8035C45.2307 45.7457 45.3061 45.6457 45.2969 45.5799C45.2876 45.5141 45.2045 45.5593 45.1212 45.6828C45.0175 45.8204 45.0346 45.8627 45.1381 45.8035ZM45.4079 48.8405C45.4079 48.8405 45.6085 48.7565 45.8092 48.6724C45.9989 48.5898 46.1574 48.4446 46.178 48.3523C46.1955 48.238 46.1125 48.2049 45.9433 48.2734C45.8053 48.3263 45.6691 48.3119 45.6458 48.2257C45.6116 48.141 45.516 48.1768 45.4108 48.3034C45.2584 48.4925 45.2605 48.9059 45.4079 48.8405ZM44.3506 46.406C44.4881 46.5097 44.8567 46.2679 44.8854 46.0737C44.8919 45.961 44.82 45.9264 44.693 45.9777C44.4156 46.0726 44.2255 46.3117 44.3615 46.4044L44.3506 46.406ZM44.6867 49.1989C44.7867 49.2743 45.2178 49.0797 45.2009 48.959C45.1963 48.9261 45.0537 48.9461 44.8829 49.0037C44.7121 49.0612 44.6241 49.1518 44.6757 49.2005L44.6867 49.1989ZM43.8194 47.8C44.1282 47.6895 44.3386 47.4364 44.1226 47.4108C44.0318 47.4012 43.8781 47.501 43.7634 47.6401C43.6126 47.8402 43.6172 47.8731 43.8084 47.8015L43.8194 47.8ZM42.6119 47.88C42.7983 47.8538 43.304 47.235 43.1443 47.2126C43.077 47.2109 42.8966 47.3592 42.7442 47.5483C42.5918 47.7375 42.5351 47.8908 42.6009 47.8815L42.6119 47.88ZM40.4911 49.3406C40.5786 49.4066 40.7652 49.3021 40.9395 49.1099C41.2285 48.7786 41.2269 48.7677 40.9026 48.8467C40.4936 48.96 40.291 49.1897 40.4801 49.3421L40.4911 49.3406ZM39.6514 50.1293C39.7139 50.1765 39.811 50.1516 39.8676 50.0766C39.9351 50 40.1031 49.8423 40.2662 49.7299C40.4686 49.5785 40.4922 49.5081 40.356 49.4937C40.2543 49.4856 40.1492 49.5339 40.149 49.6122C40.1379 49.692 40.0563 49.7482 39.9655 49.7386C39.7495 49.713 39.5123 50.0147 39.6514 50.1293ZM38.9702 52.0475C39.1412 51.9117 39.2762 51.7586 39.281 51.7132C39.2549 51.5268 38.7076 51.8496 38.682 52.0656C38.6612 52.2363 38.738 52.2255 38.9811 52.046L38.9702 52.0475ZM38.0833 50.9868C37.9906 51.1228 37.9967 51.1667 38.1002 51.1074C38.1928 51.0497 38.2682 50.9496 38.2589 50.8839C38.2497 50.8181 38.1776 50.8617 38.0833 50.9868ZM37.8107 50.3989C37.9015 50.4085 37.9892 50.3962 38.019 50.3696C38.0379 50.3446 38.0067 50.2819 37.9442 50.2348C37.8817 50.1876 37.794 50.2 37.7359 50.264C37.6887 50.3265 37.7199 50.3893 37.8107 50.3989ZM34.9245 54.93C35.017 54.8723 35.0924 54.7722 35.0832 54.7064C35.074 54.6407 35.0018 54.6843 34.9076 54.8094C34.8148 54.9454 34.821 54.9892 34.9245 54.93ZM33.1319 56.0202C33.207 56.0768 34.4332 55.4127 34.5746 55.2251C34.8589 54.8609 34.4343 54.9429 33.8351 55.3736C33.1448 55.873 33.0554 55.9527 33.1304 56.0093L33.1319 56.0202ZM32.858 55.343C32.8922 55.4277 32.9626 55.4514 33.0082 55.3779C33.0554 55.3153 33.054 55.2261 32.979 55.1695C32.9165 55.1224 32.8476 55.1097 32.8287 55.1347C32.8099 55.1597 32.8128 55.2599 32.858 55.343ZM32.5812 56.4777C32.0731 56.7615 31.9569 56.8896 32.0944 56.9933C32.232 57.097 32.9801 56.6118 33.0057 56.3957C33.0153 56.3049 32.8289 56.3311 32.5906 56.4652L32.5812 56.4777ZM32.1044 56.1085L31.8986 56.3946L32.2045 56.1839C32.3786 56.0701 32.5794 55.9077 32.6564 55.8186C32.782 55.678 32.7695 55.6686 32.5563 55.7432C32.4278 55.7836 32.2285 55.9569 32.1044 56.1085ZM31.8392 55.732C31.8392 55.732 31.9894 55.7669 32.0475 55.7028C32.0946 55.6403 32.0635 55.5776 31.9727 55.5679C31.8819 55.5583 31.7941 55.5706 31.7643 55.5972C31.7455 55.6222 31.7766 55.6849 31.8392 55.732ZM31.0976 59.2912C31.0976 59.2912 30.9925 59.3395 30.9265 59.4271C30.8496 59.5161 30.8431 59.6289 30.9056 59.676C30.9681 59.7231 31.0481 59.656 31.0766 59.5402C31.116 59.4228 31.1226 59.3101 31.0976 59.2912ZM27.7573 59.9502C27.8498 59.8925 27.9252 59.7924 27.916 59.7266C27.9068 59.6608 27.8346 59.7045 27.7404 59.8296C27.6477 59.9656 27.6538 60.0094 27.7573 59.9502ZM27.9297 75.9156C27.8825 75.9782 27.9199 76.0847 28.0089 76.1617C28.098 76.2386 28.2107 76.2452 28.2688 76.1811C28.316 76.1186 28.2786 76.012 28.1896 75.9351C28.1005 75.8581 27.9768 75.8531 27.9297 75.9156ZM26.7344 59.434C27.2267 59.1972 27.4685 58.9285 27.3406 58.734C27.2704 58.632 27.203 58.6303 27.1651 58.7586C27.1242 58.865 26.8951 59.0649 26.6567 59.199C26.169 59.4687 26.2312 59.6724 26.7344 59.434ZM26.8159 69.0164C27.0085 69.0341 27.4956 68.3619 27.3674 68.2457C27.2268 68.1201 27.1468 68.1872 27.1149 68.4377C27.1004 68.5739 26.981 68.7584 26.8586 68.8427C26.7159 68.941 26.6922 69.0114 26.8159 69.0164ZM26.0635 69.3121C26.1543 69.3217 26.2907 69.2578 26.3567 69.1703C26.4227 69.0828 26.4292 68.97 26.3667 68.9229C26.3042 68.8758 26.1803 68.9491 26.0735 69.0647C25.9793 69.1897 25.9727 69.3025 26.0526 69.3136L26.0635 69.3121ZM26.7675 76.0005C26.8583 76.0101 26.9759 75.9713 27.012 75.9103C27.0592 75.8477 27.0468 75.76 26.9843 75.7129C26.9218 75.6658 26.8152 75.7031 26.7398 75.8031C26.6644 75.9032 26.6752 75.9799 26.766 75.9895L26.7675 76.0005ZM25.2787 75.8293C25.3412 75.8764 25.4305 75.8751 25.4682 75.8251C25.5059 75.775 25.6625 75.7754 25.8174 75.8431C25.9597 75.9014 26.1461 75.8753 26.2231 75.7862C26.3377 75.6471 26.3097 75.6063 26.0592 75.5744C25.6725 75.528 25.1286 75.7162 25.2802 75.8403L25.2787 75.8293ZM22.0352 75.3453C22.1098 75.5585 22.3619 75.6014 22.3326 75.393C22.3234 75.3272 22.2327 75.2393 22.1389 75.2078C21.9981 75.1604 21.9792 75.1854 22.0352 75.3453ZM21.1693 75.3103C21.2318 75.3574 21.3461 75.3749 21.4417 75.3392C21.5263 75.3049 21.55 75.2345 21.4875 75.1874C21.425 75.1402 21.2997 75.1243 21.2151 75.1585C21.1304 75.1928 21.1052 75.2522 21.1678 75.2993L21.1693 75.3103ZM20.3113 75.2518C20.3455 75.3365 20.5037 75.3478 20.6824 75.2668C20.9457 75.1516 20.9631 75.1156 20.7691 75.0087C20.5048 74.878 20.2336 75.0167 20.3097 75.2409L20.3113 75.2518ZM19.7276 75.0766C19.7901 75.1237 19.9154 75.1397 20 75.1054C20.0862 75.0822 20.1099 75.0117 20.0473 74.9646C19.9848 74.9175 19.8596 74.9015 19.7749 74.9358C19.6903 74.97 19.6651 75.0295 19.7276 75.0766ZM18.6097 74.9987C18.9367 75.0981 19.2709 74.85 18.9956 74.7209C18.8752 74.6595 18.6888 74.6857 18.5899 74.7778C18.4612 74.8965 18.4704 74.9623 18.6222 75.0081L18.6097 74.9987ZM17.2336 74.834C17.3244 74.8436 17.442 74.8048 17.4781 74.7438C17.5253 74.6813 17.5129 74.5935 17.4504 74.5464C17.3879 74.4993 17.2813 74.5366 17.2059 74.6366C17.1305 74.7367 17.1428 74.8244 17.2336 74.834ZM15.8922 74.5974C16.0688 74.7403 16.5824 74.7353 16.7065 74.5837C16.8211 74.4447 16.7711 74.4069 16.4125 74.4014C16.0086 74.391 15.7546 74.4937 15.9031 74.5959L15.8922 74.5974ZM12.0538 74.6554C12.0708 74.776 12.1221 74.9029 12.1737 74.9516C12.3128 75.0663 12.6887 74.3985 12.5763 74.2354C12.4499 74.0519 12.0169 74.3922 12.0538 74.6554ZM44.3865 64.9847C44.4773 64.9943 44.5574 64.9272 44.5685 64.8474C44.5926 64.6204 44.4987 64.5888 44.3479 64.7889C44.2724 64.8889 44.2848 64.9766 44.3756 64.9863L44.3865 64.9847ZM38.6244 66.6321C38.5773 66.6946 38.5896 66.7824 38.6521 66.8295C38.7147 66.8766 38.8024 66.8643 38.8495 66.8018C38.8967 66.7393 38.8843 66.6516 38.8218 66.6044C38.7593 66.5573 38.6716 66.5696 38.6244 66.6321ZM43.2553 65.2106C43.1538 65.1242 42.5738 65.3733 42.4293 65.539C42.2675 65.7406 42.7125 65.6446 42.8643 65.6904C42.9816 65.7298 43.1132 65.7113 43.1603 65.6488C43.209 65.5973 43.3108 65.6053 43.3983 65.6713C43.6234 65.841 44.058 65.5117 44.0572 65.1875C44.0456 64.7866 43.8813 64.7314 43.6347 65.0455C43.5027 65.2206 43.3539 65.275 43.2538 65.1996L43.2553 65.2106ZM36.1026 67.5452C36.1026 67.5452 36.0489 67.7204 36.0831 67.8051C36.1174 67.8897 36.224 67.8524 36.3292 67.7258C36.4344 67.5992 36.441 67.4865 36.3486 67.4659C36.2578 67.4563 36.1512 67.4936 36.1026 67.5452ZM50.3778 63.1374C50.3023 63.2375 50.3131 63.3142 50.4039 63.3239C50.4947 63.3335 50.6123 63.2946 50.6484 63.2336C50.6956 63.1711 50.6848 63.0943 50.6207 63.0362C50.5582 62.9891 50.4407 63.028 50.3653 63.128L50.3778 63.1374ZM62.3623 58.5816C62.2363 58.8788 62.3769 59.0044 62.6545 58.8313C62.8913 58.6862 62.9363 58.2103 62.7093 58.1863C62.5622 58.1734 62.5323 58.1999 62.3623 58.5816ZM32.157 58.3151C31.8263 58.4286 31.7995 58.4771 31.8705 58.9032C31.9013 59.1225 31.9825 59.2229 32.0391 59.1479C32.0956 59.0729 32.0927 58.9727 32.0302 58.9255C31.9677 58.8784 32.0214 58.7031 32.1533 58.5281C32.3434 58.2889 32.3372 58.2451 32.1554 58.3041L32.157 58.3151ZM61.355 59.3715C61.455 59.4469 61.9962 59.0802 62.0185 58.9206C62.0297 58.8407 61.9373 58.8202 61.8198 58.859C61.5847 58.9367 61.255 59.2961 61.355 59.3715ZM55.631 60.8123C55.4727 60.8792 55.3284 60.9666 55.3205 60.9901C55.3236 61.012 55.1993 61.2419 55.0781 61.4937C54.85 61.9395 54.85 61.9394 55.1824 61.7586C55.8865 61.3579 56.034 61.2142 55.9752 60.9541C55.924 60.7488 55.8645 60.7236 55.6216 60.8248L55.631 60.8123Z" fill="white"/>
</g>
<defs>
<clipPath id="clip0_6560_1098">
<rect width="221.295" height="73.8239" fill="white" transform="translate(229.408 73.1074) rotate(172.01)"/>
</clipPath>
</defs>
</svg>
