<svg width="269" height="92" viewBox="0 0 269 92" fill="none" xmlns="http://www.w3.org/2000/svg">
<g clip-path="url(#clip0_8746_2884)">
<path fill-rule="evenodd" clip-rule="evenodd" d="M49.1034 84.8345C50.072 82.9961 49.7711 80.8871 49.0711 78.6907C46.9177 77.5907 44.5072 77.6568 42.2715 76.9247C44.7195 75.8395 48.7397 75.0165 51.8937 73.7866C56.7109 73.3816 61.4514 71.4391 66.3824 70.2356C68.1961 69.8002 70.1101 69.7335 71.7913 68.7927C74.9992 68.709 78.5885 66.8515 81.7106 67.1768C84.2543 66.3699 87.6294 65.317 90.2751 65.5775C94.5675 64.1837 99.6739 63.8129 104.113 63.1348C105.447 62.929 106.765 62.5636 107.992 62.5068C108.798 62.4777 109.684 62.7596 110.462 62.6235C111.575 62.4232 112.552 61.8901 113.664 61.7506C120.907 60.8111 128.503 60.0475 135.797 59.4238C136.456 59.3677 137.121 59.5944 137.749 59.5332C139.266 59.389 140.739 58.5426 142.298 59.1614C145.767 58.4986 149.22 58.3651 152.646 57.9421C155.418 57.6048 158.287 57.6773 161.068 57.4601C164.29 56.6547 167.199 57.3489 170.413 56.555C176.164 56.9106 182.212 55.8504 187.887 56.5525C190.777 55.6897 193.639 56.6647 196.452 54.9533C197.881 54.0837 198.663 52.0323 199.147 50.6371C199.808 48.7167 201.112 46.1351 198.587 44.4876C198.28 44.2839 197.828 44.2457 197.44 44.0351C194.47 42.3986 190.181 40.9352 187.226 40.7045C180.4 38.3957 173.418 36.882 166.262 36.1056C150.511 32.4253 133.515 34.5689 117.267 33.1979C119.545 32.1201 121.643 31.0004 123.933 30.2549C125.8 29.6487 127.649 29.4912 129.572 29.1698C132.907 28.6197 136.141 27.4478 139.417 26.9074C144.086 26.1515 148.295 25.4905 153.136 24.5447C164.35 23.6713 175.718 22.0539 186.806 21.7783C191.331 21.6942 195.967 21.1058 200.377 21.5669C202.895 20.977 205.054 22.0457 207.605 21.349C208.2 21.3337 208.743 21.5598 209.27 21.8089C224.374 21.5619 239.199 22.5861 253.453 26.2857C256.01 25.8109 258.449 28.5464 260.935 27.2625C263.02 26.1855 262.774 23.6625 264.163 21.9181C263.12 20.6687 261.823 20.4835 260.2 20.0271C257.282 19.2129 253.905 19.2531 251.167 17.9843C250.494 18.2047 249.995 17.627 249.295 17.9937C247.57 17.351 245.718 17.1139 243.922 16.8474C239.986 16.2488 235.834 15.6952 231.737 15.4772C230.041 15.3871 228.332 15.4712 226.667 15.3253C225.249 15.2004 223.857 14.8585 222.203 14.7818C217.939 14.6008 213.29 14.229 208.84 14.5239C207.005 14.6387 205.087 14.5542 203.214 14.5635C198.471 14.6121 193.649 14.1771 188.888 14.9276C187.025 14.743 185.083 14.8852 183.095 15.2475C178.712 15.329 174.325 15.3908 169.71 16.5432C166.956 15.9253 163.999 16.87 161.16 17.1067C160.261 17.1814 159.68 17.2248 158.484 17.4691C155.895 17.9996 153.493 17.4261 150.692 18.3962C149.118 18.1242 147.28 19.1004 145.695 18.881C138.751 20.4812 131.649 21.6005 124.401 23.5742C123.247 23.8927 122.055 24.3491 120.913 24.8074C117.514 26.1479 111.944 27.9106 109.688 31.558C109.177 33.5959 108.929 35.6925 108.965 37.8545C109.488 38.1446 110.018 38.4134 110.465 39.1109C113.032 40.0731 115.484 40.2637 118.266 40.0564C120.618 39.8783 123.179 40.0513 125.645 40.0776C130.425 40.1343 135.917 39.9544 140.849 40.0069C141.23 39.9857 141.489 40.582 141.838 40.7382C143.139 40.011 143.987 41.3729 145.352 40.3518C147.728 41.3246 150.453 40.701 153.003 41.0581C154.237 41.2332 155.395 42.008 156.906 41.267C159.417 41.9445 162.128 42.3566 164.911 42.7773C166.831 43.064 168.612 43.6773 170.483 43.9721C170.733 44.0127 171.108 43.6988 171.369 43.7477C172.762 43.9679 174.755 44.8912 176.295 45.0168C177.485 45.1078 178.197 44.9418 179.562 45.2983C180.112 45.4423 180.901 45.4969 181.357 45.6864C181.693 45.8245 181.972 46.2959 182.346 46.4177C183.171 46.6895 184.18 46.4147 184.897 46.6531C185.443 46.8382 185.844 47.3711 186.356 47.5921C187.388 48.0227 188.589 47.8688 189.654 48.1927C190.326 48.398 190.849 49.0022 191.599 48.8199C190.287 49.5388 188.71 49.3079 187.321 49.3606C184.479 49.4559 181.643 49.5808 178.619 49.6752C177.228 49.7181 175.786 49.445 174.397 49.4977C164.967 49.8188 155.46 51.0437 145.921 51.8181C131.25 52.6737 115.979 54.2138 101.329 56.5146C96.4564 57.1413 91.5084 57.7397 86.6132 58.6639C85.3165 58.9143 84.1334 59.4908 82.8451 59.7298C82.4025 59.8115 81.9279 59.6959 81.4919 59.7563C77.9222 60.2329 74.511 61.626 70.9602 62.2818C69.1107 62.6218 67.3445 63.1002 65.4811 63.6044C63.7346 64.0796 61.8134 64.2894 60.1208 64.847C58.3327 65.4404 56.4902 66.387 54.3855 66.8392C53.2401 67.0854 52.1708 67.2382 50.5472 67.7847C47.7695 68.7105 44.4138 69.821 41.6102 70.6497C42.158 69.5277 44.516 68.7003 45.9642 67.3211C46.5951 66.7125 46.7564 65.957 47.4598 65.6709C46.8749 63.8105 48.1903 62.3616 46.9337 60.3567C40.7883 63.5701 33.6673 67.2655 26.2848 70.2841C21.9232 72.064 17.4389 73.7118 13.6879 75.6967C11.8586 76.6615 8.95748 77.9517 8.05088 79.1722C7.13601 80.4043 6.52697 87.28 10.0937 87.0976C10.9109 86.7019 11.6091 86.8219 12.4584 86.2488C13.9254 86.4875 15.1504 85.732 16.4954 85.342C19.4783 84.4945 22.7106 84.812 25.6478 83.8705C26.6079 84.2317 27.6058 83.8878 28.8834 83.833C33.167 83.6359 37.6591 83.8508 41.9603 84.4511C44.4165 84.793 46.4759 85.2498 49.0524 84.8327L49.1034 84.8345Z" fill="white"/>
</g>
<defs>
<clipPath id="clip0_8746_2884">
<rect width="263.33" height="49.66" fill="white" transform="translate(0.724121 42.3599) rotate(-9.19567)"/>
</clipPath>
</defs>
</svg>
