<svg width="290" height="107" viewBox="0 0 290 107" fill="none" xmlns="http://www.w3.org/2000/svg">
<g clip-path="url(#clip0_6232_2927)">
<path d="M102.998 59.7398C103.656 59.7929 104.302 59.8651 104.961 59.8982C107.66 60.0255 110.362 60.1129 113.057 60.2801C114.684 60.3812 116.291 60.2399 117.909 60.1998C119.97 60.1453 122.043 60.3125 124.11 60.439C126.006 60.5618 127.911 60.7053 129.796 60.9677C130.699 61.0907 131.417 61.7606 131.626 62.6503C131.852 63.5815 131.902 64.5787 131.875 65.5396C131.851 66.3402 131.665 67.1479 131.461 67.9341C131.331 68.4352 130.898 68.5709 130.403 68.3704C128.731 67.7039 126.965 67.702 125.202 67.6702C124.181 67.648 123.154 67.4448 122.133 67.4127C121.292 67.385 120.441 67.4969 119.596 67.5191C118.862 67.5402 118.127 67.5712 117.402 67.4826C116.488 67.3688 115.668 67.3328 114.873 67.991C114.464 68.3293 113.823 68.4481 113.273 68.5442C111.738 68.7917 110.189 68.9677 108.649 69.1645C105.315 69.5679 101.99 70.002 98.6513 70.3448C95.6965 70.6583 92.7267 70.9105 89.7616 71.1028C86.1099 71.3501 82.4623 71.5475 78.8094 71.6844C76.0019 71.7891 73.1973 71.7335 70.3915 71.8182C66.9121 71.9189 63.4247 72.1192 59.9454 72.2199C57.6527 72.2858 55.3612 72.2114 53.0725 72.2275C51.9282 72.2356 50.7865 72.3341 49.6398 72.3721C47.2059 72.4467 44.7761 72.4715 42.3497 72.5768C39.7922 72.6916 37.2407 72.8571 34.6867 73.0524C32.1021 73.2554 29.5234 73.5089 26.9355 73.7517C25.6112 73.8757 24.2754 74.0188 22.9495 74.1627C22.6664 74.19 22.39 74.258 22.1145 74.316C22.1081 74.3958 22.1024 74.4656 22.096 74.5453C22.3595 74.6368 22.6106 74.7573 22.8857 74.8297C25.7003 75.5081 28.5157 76.1766 31.331 76.845C33.4775 77.3491 35.6347 77.8441 37.7935 78.3192C40.4558 78.895 43.1321 79.4218 45.7936 80.0077C46.7002 80.2112 47.6275 80.4063 48.4466 80.8235C48.9672 81.0862 49.4413 81.6762 49.6878 82.2278C50.2835 83.55 50.5804 84.9684 50.4615 86.4437C50.3682 87.5999 49.8206 87.7965 48.7523 87.3592C47.5768 86.8832 46.3162 86.591 45.064 86.3194C41.0904 85.4573 37.1013 84.6641 33.1261 83.8218C31.1734 83.4035 29.2471 82.9071 27.2936 82.4988C25.5569 82.138 23.8039 81.8562 22.0657 81.5154C18.777 80.869 15.4883 80.2226 12.2013 79.5562C9.58476 79.0342 6.96825 78.5122 4.36652 77.9312C3.91284 77.8345 3.50159 77.4602 3.12539 77.149C2.61848 76.7168 2.114 76.2548 1.70563 75.7202C0.682164 74.3535 0.700633 72.8803 1.11234 71.2581C1.49127 69.7938 2.41632 69.1461 3.68462 68.5962C4.48507 68.2495 5.16016 67.5916 5.88537 67.0581C7.05817 66.1996 8.24092 65.3419 9.38624 64.4511C10.7777 63.3694 12.1874 62.3093 13.5239 61.163C16.7262 58.4015 19.8544 55.5637 23.0759 52.8137C25.3502 50.8602 27.7162 49.0144 30.0364 47.1148C30.4342 46.7857 30.8136 46.435 31.1846 46.0636C32.1346 45.1069 32.9846 44.0217 34.0353 43.1834C36.2554 41.4061 38.0359 39.2322 39.8355 37.0699C40.6806 36.0445 41.5632 35.0522 42.4175 34.0376C42.9722 33.38 43.4177 32.5833 44.0815 32.0649C45.0237 31.3283 46.0951 30.7325 47.18 30.218C47.6909 29.9783 48.6303 30.646 48.8967 31.1992C49.6015 32.6605 49.4981 34.0668 49.1394 35.6531C48.6708 37.7321 47.3652 39.2421 46.3159 40.9332C43.9642 44.7164 40.6111 47.6063 37.4561 50.6526C35.9444 52.1058 34.2753 53.3958 32.6995 54.7736C31.0375 56.2247 29.4029 57.7081 27.7226 59.1377C26.894 59.8333 25.9554 60.3997 25.0894 61.0623C24.7048 61.3523 24.3836 61.7277 24.0166 62.0492C22.9395 62.9656 21.8432 63.8704 20.7752 64.7976C20.2789 65.2291 19.8384 65.7153 19.4273 66.3342C41.9783 65.9856 64.4748 66.064 86.9364 64.5846C86.952 64.5156 86.9775 64.4475 86.9931 64.3785C86.0919 63.9848 85.2193 63.483 84.2877 63.2173C82.9937 62.8421 82.1369 62.0205 81.4622 60.9328C81.2495 60.5846 80.9738 60.2714 80.771 59.924C80.0911 58.7756 80.1294 57.5547 80.6237 56.4007C80.9719 55.566 81.8382 55.2747 82.6779 55.3123C86.1738 55.5039 89.5849 54.7557 93.027 54.3711C94.5048 54.2093 96.0012 54.1895 97.4897 54.0186C98.9783 53.8477 100.457 53.5456 101.951 53.3149C103.251 53.1188 104.596 53.1069 105.85 52.7364C107.731 52.1758 109.721 52.7476 111.539 52.1017C113.11 51.5361 114.776 51.7807 116.324 51.3639C118.334 50.8236 120.455 50.8944 122.436 50.091C123.287 49.7383 124.364 49.9455 125.335 49.8532C126.558 49.7312 127.785 49.5792 129.002 49.4065C130.849 49.1441 132.687 48.871 134.527 48.5779C136.031 48.338 137.512 48.016 139.023 47.8168C141.538 47.4778 144.064 47.2502 146.571 46.9005C148.022 46.6964 149.437 46.309 150.883 46.0543C151.575 45.9295 152.305 45.9583 153.004 45.8742C156.165 45.497 159.317 45.0991 162.479 44.702C163.776 44.5357 165.066 44.3487 166.356 44.1518C166.508 44.1339 166.645 44.0447 166.78 43.9854C166.787 43.9056 166.794 43.8159 166.8 43.7362C166.297 43.6354 165.787 43.484 165.28 43.433C163.349 43.2472 161.394 43.22 159.507 42.8672C158.854 42.7443 158.262 42.7567 157.632 42.726C156.322 42.6706 155.007 42.5545 153.703 42.4293C152.538 42.3253 151.377 42.1615 150.213 42.0475C148.859 41.9182 147.501 41.8289 146.148 41.6897C142.176 41.3091 138.211 40.9594 134.244 40.5091C132.415 40.3014 130.62 39.7955 128.791 39.5878C125.659 39.2349 123.356 37.434 121.041 35.5418C120.043 34.7289 119.528 33.6541 118.856 32.6568C118.139 31.5958 118.148 30.3625 118.204 29.1731C118.222 28.8235 118.662 28.3473 119.027 28.1661C121.093 27.1889 123.273 26.6524 125.554 26.4752C126.655 26.3834 127.744 26.0699 128.833 25.8768C129.962 25.6869 131.09 25.507 132.217 25.3371C133.802 25.0936 135.388 24.8403 136.978 24.6475C138.032 24.5218 139.105 24.5181 140.165 24.443C142.647 24.2719 145.123 24.0502 147.601 23.9189C150.704 23.7578 153.812 23.6573 156.912 23.5361C158.352 23.4716 159.785 23.3664 161.222 23.3418C164.224 23.303 167.236 23.285 170.234 23.2961C174.176 23.3129 178.106 23.3489 182.044 23.4056C184.74 23.4424 187.438 23.5697 190.144 23.6073C192.84 23.6341 195.544 23.5712 198.241 23.5981C200.807 23.6244 203.365 23.7504 205.93 23.7867C207.484 23.8116 209.052 23.6471 210.6 23.7319C212.787 23.858 214.95 23.5309 217.136 23.677C218.962 23.7942 220.813 23.6123 222.65 23.5899C225.462 23.5558 228.28 23.5724 231.084 23.5076C233.406 23.454 235.717 23.2892 238.033 23.185C238.828 23.1488 239.621 23.1425 240.408 23.0956C242.916 22.9668 245.426 22.818 247.935 22.6892C250.513 22.5661 253.088 22.4828 255.657 22.3488C258.407 22.2094 261.148 21.9288 263.891 21.8791C268.101 21.8072 272.307 21.8956 276.522 21.8843C278.94 21.8787 281.332 22.0716 283.672 22.6616C284.577 22.885 285.435 23.3254 286.274 23.7442C286.804 24.0077 287.297 24.3684 287.746 24.7658C288.046 25.0308 288.286 25.4113 288.447 25.7854C288.682 26.3462 288.795 26.9471 289.009 27.5262C289.222 28.1153 288.783 28.8323 288.169 28.7326C287.257 28.5989 286.339 28.4145 285.446 28.1619C283.22 27.5309 280.931 27.4166 278.647 27.3729C275.772 27.3217 272.887 27.2696 270.014 27.3188C265.723 27.4042 261.445 27.581 257.161 27.7071C255.945 27.7394 254.716 27.6704 253.497 27.7327C251.513 27.8335 249.541 28.0256 247.555 28.1464C245.74 28.2609 243.933 28.3961 242.113 28.4499C239.639 28.5214 237.171 28.523 234.7 28.5645C232.228 28.606 229.764 28.6782 227.294 28.7097C225.095 28.7331 222.892 28.6858 220.69 28.7391C219.062 28.7783 217.441 28.9687 215.81 29.0478C214.43 29.1171 213.031 29.2952 211.681 29.1161C209.129 28.79 206.59 29.0467 204.044 29.022C202.661 29.0008 201.279 28.8392 199.896 28.828C198.131 28.8161 196.368 28.9047 194.599 28.9427C194.248 28.9444 193.893 28.8657 193.543 28.8575C191.239 28.8122 188.935 28.7668 186.641 28.7323C184.417 28.6934 182.195 28.6246 179.976 28.6464C177.998 28.6674 176.021 28.799 174.042 28.83C173.279 28.8387 172.521 28.6572 171.758 28.6659C169.589 28.6817 167.418 28.7373 165.256 28.8037C162.057 28.907 158.858 29.0202 155.657 29.1434C154.339 29.1976 153.016 29.3016 151.689 29.335C149.97 29.377 148.246 29.3584 146.526 29.4103C145.903 29.4303 145.274 29.51 144.661 29.6512C142.281 30.1816 139.871 30.3284 137.446 30.4138C136.41 30.4506 135.38 30.7789 134.343 30.9561C133.305 31.1332 132.261 31.2697 131.231 31.4776C130.17 31.6931 129.126 31.95 128.072 32.2061C127.386 32.3715 126.711 32.5378 126.042 32.7447C125.857 32.8 125.621 32.9916 125.599 33.1403C125.588 33.2699 125.808 33.5284 125.974 33.582C127.538 34.0993 129.097 34.6765 130.691 35.0559C132.779 35.5452 134.908 35.8875 137.024 36.2688C137.618 36.3768 138.216 36.4151 138.813 36.4832C141 36.7298 143.184 37.0163 145.376 37.2031C147.409 37.377 149.462 37.4222 151.497 37.5662C154.44 37.7734 157.379 38.0205 160.32 38.2576C163.669 38.5277 167.02 38.7778 170.357 39.067C171.364 39.1481 172.359 39.3788 173.365 39.46C176.137 39.6735 178.912 39.8471 181.688 40.0107C183.026 40.0885 184.365 40.026 185.7 40.1436C187.714 40.306 189.714 40.7582 191.712 40.7388C192.766 40.7334 193.774 40.9251 194.802 40.9879C197.848 41.1533 200.888 41.4084 203.92 41.7532C204.556 41.8246 205.265 42.1126 205.501 43.0445C205.699 43.823 206.14 44.4604 205.806 45.3665C205.639 45.8146 206.049 46.4496 206.085 47.0042C206.107 47.4775 206.128 48.2116 205.853 48.3901C205.387 48.6936 204.675 48.8068 204.099 48.7402C203.036 48.6144 202.008 48.1703 200.952 48.0752C199.487 47.957 198.016 48.039 196.541 48.0405C194.233 48.045 191.917 48.0188 189.615 48.084C187.654 48.1366 185.686 48.2888 183.719 48.4211C180.672 48.627 177.627 48.8228 174.595 49.09C172.554 49.2765 170.532 49.595 168.496 49.8322C166.146 50.1042 163.79 50.3356 161.44 50.6176C158.36 50.9913 155.276 51.4148 152.196 51.7884C150.311 52.0177 148.405 52.1449 146.528 52.4049C144.712 52.6597 142.914 53.0565 141.097 53.3213C139.432 53.5682 137.763 53.7347 136.092 53.931C135.879 53.954 135.649 53.9454 135.435 53.9884C134.539 54.1569 133.649 54.366 132.753 54.5246C131.857 54.6931 130.954 54.8209 130.059 54.9694C127.069 55.4707 124.077 55.992 121.08 56.4626C118.062 56.9316 115.032 57.3092 112.016 57.7583C109.386 58.1581 106.762 58.5887 104.138 59.0392C103.731 59.1067 103.354 59.3071 102.961 59.446C102.973 59.5472 102.984 59.6585 102.996 59.7598L102.998 59.7398Z" fill="white"/>
</g>
<defs>
<clipPath id="clip0_6232_2927">
<rect width="283.65" height="83.83" fill="white" transform="translate(282.732 106.357) rotate(-175.39)"/>
</clipPath>
</defs>
</svg>
