<svg width="135" height="135" viewBox="0 0 135 135" fill="none" xmlns="http://www.w3.org/2000/svg">
<g clip-path="url(#clip0_6566_1803)">
<path d="M10.1225 106.305C6.89047 104.91 2.58269 104.229 1.73977 100.461C1.58075 99.582 1.45198 98.6019 2.00444 97.8578C2.01027 97.734 2.04484 97.6189 2.06936 97.485C7.59475 79.5003 12.4748 61.3689 18.0677 43.4201C22.2424 31.447 25.9716 19.3402 29.8488 7.26208C30.4649 5.94082 30.7893 4.39079 31.6956 3.25083C31.7373 3.21628 31.7604 3.19181 31.7978 3.17166C32.5156 2.24185 34.0425 1.85305 35.4237 2.31482C37.3137 2.80386 39.1965 3.36918 41.0893 3.9532C43.4176 4.6523 45.7416 5.36579 48.1088 5.93535C65.4652 10.6447 82.7035 15.6951 99.9705 20.7541C109.995 23.6856 120.016 26.6316 129.915 29.9805C130.806 30.2481 131.285 30.8467 131.452 31.5404C132.323 32.0843 132.762 33.1262 132.483 34.1091C131.325 37.182 130.993 40.5338 129.946 43.6556C127.732 50.5063 126.12 57.4909 124.414 64.4783C121.87 73.1598 118.452 81.3593 115.795 89.8968C112.542 99.793 110.561 110.04 107.777 120.046C106.758 123.333 105.703 126.64 104.526 129.88C104.27 130.839 103.368 131.494 102.415 131.537C101.92 131.985 101.234 132.234 100.543 132.136C95.7231 131.646 91.2622 129.961 86.6803 128.523C77.9994 125.916 69.2162 123.703 60.5799 121C53.9111 118.997 47.1848 117.135 40.4728 115.276C33.8283 113.454 27.2026 111.621 20.6056 109.64C17.0844 108.583 13.5905 107.487 10.1039 106.315L10.1225 106.305ZM26.1914 33.48C22.2459 44.3766 19.3657 55.1694 15.8974 66.1464C12.777 77.0083 9.84354 87.9263 6.41705 98.712C6.36952 98.8703 6.30761 99.0243 6.22128 99.1553C6.23555 99.3165 6.23545 99.4733 6.21234 99.6547C7.85905 100.745 9.84957 101.421 11.4865 102.023C20.3612 105.08 29.4591 107.498 38.4851 110.051C56.0612 114.967 73.6216 119.989 91.1214 125.212C94.1999 126.23 97.3244 127.2 100.556 127.605C100.612 127.418 100.697 127.24 100.777 127.076C101.862 123.777 102.989 120.491 103.92 117.131C107.539 102.261 111.353 87.2609 116.904 73.0022C119.421 66.1327 121.133 59.0215 122.956 51.9592C120.049 51.1493 117.164 50.2201 114.236 49.4822C92.1785 43.0005 69.843 37.5493 47.8534 30.7899C41.7726 28.7601 35.6961 26.716 29.5591 24.8733L29.0417 24.7179C28.127 27.6597 27.2124 30.6015 26.1871 33.4944L26.1914 33.48ZM54.5101 19.7346C54.1802 20.9378 54.8953 22.1567 56.0738 22.5106C57.2524 22.8644 58.5164 22.0986 58.8478 20.9429C59.1777 19.7397 58.4626 18.5208 57.284 18.167C56.1055 17.8131 54.8415 18.5789 54.5101 19.7346ZM46.5106 17.0503C46.1017 18.1513 46.6715 19.5933 47.85 19.9472C49.0286 20.301 50.3011 19.8202 50.7446 18.604C51.1535 17.503 50.5837 16.061 49.4052 15.7071C48.2266 15.3533 46.9541 15.8342 46.5106 17.0503ZM37.6575 14.0783C37.283 15.221 37.9305 16.5608 39.109 16.9147C40.2876 17.2685 41.5558 16.6452 41.9432 15.4593C42.3177 14.3165 41.6702 12.9767 40.4917 12.6229C39.3131 12.269 38.0305 12.888 37.6575 14.0783Z" fill="white"/>
<path d="M24.2849 57.4155C26.0626 51.234 27.8877 45.0511 29.9673 38.9602C30.8424 37.0891 30.7929 33.497 33.6404 33.7714C34.8708 33.9526 35.6981 35.111 35.5349 36.3329C33.1671 43.7493 30.6986 51.1355 28.6182 58.6382C28.1904 60.063 26.882 60.4547 25.8041 60.131C24.7262 59.8074 23.8988 58.8058 24.2892 57.4011L24.2849 57.4155Z" fill="white"/>
<path d="M104.643 80.1784C106.538 73.4514 109.429 67.2122 110.244 60.2709C102.839 58.7378 95.7439 56.2779 88.6341 53.8136C84.0092 52.2053 79.38 50.6114 74.6773 49.2622C71.0526 48.2366 67.4797 47.0383 63.9169 45.8587C59.1884 44.282 54.46 42.7054 49.6106 41.5317C47.3915 40.8341 45.1062 40.3048 42.8066 39.7712C39.3786 38.9773 35.9463 38.1977 32.8105 36.8482C31.802 35.8237 32.1007 34.0463 33.3 33.3395C34.6302 32.5621 36.106 33.3347 37.4427 33.7361C39.3398 34.3057 41.2989 34.7213 43.2263 35.1902C58.2114 38.8737 72.8162 43.9807 87.5017 48.6098L87.4442 48.5925C93.1369 50.6626 98.4401 52.5688 104.214 54.1611C106.865 54.8788 109.519 55.4872 112.191 56.0855C113.218 56.3156 114.236 56.8408 114.6 57.923C115.22 66.0326 110.913 73.6983 108.958 81.4111C108.53 82.836 107.232 83.2463 106.139 82.9183C105.047 82.5904 104.248 81.5975 104.624 80.1885L104.643 80.1784Z" fill="white"/>
<path d="M102.485 84.9122C94.9819 81.9846 87.3272 79.7176 79.6437 77.4419C76.8842 76.6134 74.1161 75.8136 71.3509 74.9519C63.031 72.0302 54.4822 69.5575 45.9665 67.0791C40.3728 65.4623 34.7977 63.8354 29.3003 62.1063C28.7988 61.8459 28.2052 61.6834 27.6217 61.5395C26.584 61.2907 25.5362 61.0232 24.9718 60.0849C23.8878 57.9551 26.2322 55.9917 28.2757 57.0132C34.5821 59.1264 40.975 60.9518 47.3779 62.7959C55.0687 64.9953 62.7594 67.1946 70.2989 69.8977C73.8215 71.0025 77.3758 72.054 80.9401 73.1242C88.9743 75.5365 97.0458 77.9287 104.726 80.8937C105.616 80.0157 106.938 79.5809 108.022 80.4557C110.835 83.4027 106.11 86.0947 103.207 85.223C102.948 85.1453 102.712 85.0431 102.49 84.8978L102.485 84.9122Z" fill="white"/>
<path d="M14.2068 96.5637C11.7566 95.4357 13.3855 92.7241 14.0018 90.9322C15.1335 88.1027 16.1903 85.3134 16.9626 82.3759C18.5069 77.1285 19.7077 71.6681 21.7751 66.6091C22.9923 64.9035 25.9198 65.9551 25.8064 68.0548C23.2455 76.1664 21.4104 84.5743 18.2171 92.496C17.5116 94.3238 16.9907 97.4153 14.4324 96.6471C14.3606 96.6255 14.2743 96.5997 14.2025 96.5781L14.2068 96.5637Z" fill="white"/>
<path d="M46.2742 106.6C45.1633 106.125 44.5862 104.76 45.0944 103.641C45.9768 101.694 46.8347 99.7237 47.536 97.7534C49.5539 91.3459 51.4597 84.9989 54.3556 79.059C45.0523 76.2813 35.4788 73.5166 26.2749 70.5648C25.8754 70.3821 25.4068 70.2727 24.9383 70.1634C23.7094 69.8729 22.4618 69.5925 22.3305 68.0468C22.357 64.7756 25.5867 65.2903 27.715 66.2902C37.067 69.2708 46.5069 72.011 55.9107 74.8189C63.0629 76.1506 56.9034 82.8364 55.958 86.6633C53.578 92.8679 52.1436 99.4193 49.2448 105.421C48.7726 106.472 47.5921 107.012 46.5285 106.692C46.4567 106.671 46.3704 106.645 46.2842 106.619L46.2742 106.6Z" fill="white"/>
<path d="M25.4692 101.844C24.8728 101.586 23.7906 101.277 22.5315 100.93C17.997 99.6474 10.9904 97.6221 14.5519 94.11C15.4349 93.4651 16.6538 93.58 17.4253 94.2981C20.4188 95.6519 23.0576 96.4128 26.0714 97.3335C31.8994 99.1618 37.8411 100.663 43.7512 102.218C45.5334 102.597 48.2241 103.185 47.5886 105.614C47.2587 106.817 45.9918 107.488 44.8003 107.178C38.9981 105.577 33.1354 104.177 27.3577 102.442C26.7253 102.252 26.093 102.063 25.4606 101.873L25.4692 101.844Z" fill="white"/>
<path d="M19.2778 95.1211C17.1003 96.9463 14.2157 93.8209 16.2539 91.7813C18.0933 90.4037 19.8753 88.852 21.778 87.5248C23.1686 86.546 24.5622 85.5052 26.3762 85.8302C28.5423 86.1825 29.4351 88.2706 30.285 90.032C32.2237 93.1245 37.1737 87.4405 39.7284 86.9681C43.3287 85.727 45.5804 89.4469 47.2147 92.0401C48.1108 93.4388 49.25 94.7066 49.8801 96.2608C51.1483 100.282 46.2648 105.484 42.2308 103.786C41.8255 103.57 41.4966 103.205 41.2798 102.779C37.1737 101.373 32.9639 100.313 28.7166 99.4301C27.1457 98.9741 25.2584 98.7369 23.5337 98.219C21.809 97.7012 20.1694 96.848 19.2835 95.1542L19.2778 95.1211ZM27.3041 93.9067C27.3041 93.9067 27.3256 93.9916 27.3313 94.0247C27.5785 94.1931 27.8516 94.2751 28.129 94.3427C28.1577 94.3513 28.1864 94.3599 28.2008 94.3643C27.856 94.1038 27.5385 93.8045 27.2483 93.4664C27.2669 93.6131 27.2711 93.7556 27.2897 93.9024L27.3041 93.9067ZM41.2877 96.96C41.4601 97.0118 41.647 97.0679 41.8338 97.124C41.8338 97.124 41.8338 97.124 41.8482 97.1283C41.8109 96.9916 41.788 96.8592 41.7507 96.7225C41.7249 96.652 41.7177 96.5714 41.7063 96.5052C41.5926 96.675 41.4502 96.8362 41.2834 96.9744L41.2877 96.96Z" fill="white"/>
<path d="M31.4294 82.8288C29.1114 79.2772 34.3149 75.0971 36.9102 78.7162C38.9668 81.7814 35.926 84.9163 33.2097 84.1007C32.5773 83.9109 31.9623 83.5065 31.4294 82.8288Z" fill="white"/>
<path d="M61.8564 81.578C61.3033 81.0197 61.0882 80.1706 61.3028 79.4035C62.1684 76.7294 65.701 78.0097 68.6343 79.0944C69.8343 79.5332 70.9295 79.9562 71.7114 80.0654C75.7687 81.268 79.8491 82.4461 83.9525 83.4428C85.1483 83.7391 85.8289 85.0731 85.4975 86.2288C85.1633 87.4464 83.9094 88.0741 82.7236 87.7965C79.3661 86.9767 76.0518 86.0129 72.7332 85.0635C71.5001 84.6305 70.0499 84.2422 68.5466 83.8221C67.5893 83.5661 66.6321 83.3101 65.6979 83.0296C64.2463 82.5937 62.8982 82.1262 61.8233 81.5838L61.8564 81.578Z" fill="white"/>
<path d="M72.1769 94.3259C68.2863 93.1421 64.4203 91.8243 60.4937 90.7081C58.3263 90.1515 58.3931 86.7982 60.564 86.3517C62.986 86.5298 65.3517 87.3656 67.736 88.1914C69.1128 88.6675 70.4997 89.1624 71.8823 89.5148C80.8305 92.3271 89.8492 94.9566 98.9068 97.4565C100.09 97.796 100.792 99.058 100.452 100.243C100.126 101.431 98.8464 102.145 97.6779 101.81C91.6026 100.127 85.559 98.3911 79.5226 96.5786C77.0793 95.845 74.6216 95.107 72.1913 94.3302L72.1769 94.3259Z" fill="white"/>
<path d="M56.4519 97.0726C56.7688 95.9126 58.0573 95.1698 59.2358 95.5236C60.4144 95.8775 61.1252 97.1108 60.7809 98.3096C60.4639 99.4697 59.1754 100.212 57.9969 99.8586C56.8184 99.5047 56.1076 98.2715 56.4519 97.0726Z" fill="white"/>
<path d="M82.4842 107.588C75.2996 105.321 68.063 103.226 60.9446 100.791C59.7948 100.446 59.0883 99.1979 59.4283 98.0134C59.9858 96.1568 61.9739 96.1105 63.3879 96.8802C72.0888 99.681 80.8156 102.395 89.5771 104.995C91.9859 105.687 94.4077 106.335 96.8295 106.984C98.0166 107.309 98.7102 108.6 98.3745 109.77C98.0302 110.969 96.7777 111.644 95.5905 111.319C91.7617 110.295 87.9357 109.209 84.1414 108.07L82.4886 107.573L82.4842 107.588Z" fill="white"/>
<path d="M68.0408 113.685C63.6545 112.117 58.9185 111.087 54.7625 109.117C53.379 107.776 54.5134 105.199 56.3777 105.303C61.2486 106.719 66.0949 108.268 70.9512 109.836C78.9809 112.42 87.0394 115.012 95.2593 116.962C96.4551 117.259 97.1357 118.593 96.8043 119.748C96.4701 120.966 95.2162 121.593 94.0204 121.297C89.467 120.181 84.9469 118.902 80.4627 117.556C76.3091 116.309 72.1728 115.004 68.0408 113.685Z" fill="white"/>
</g>
<defs>
<clipPath id="clip0_6566_1803">
<rect width="108" height="108" fill="white" transform="translate(31.058) rotate(16.7128)"/>
</clipPath>
</defs>
</svg>
