<svg width="128" height="97" viewBox="0 0 128 97" fill="none" xmlns="http://www.w3.org/2000/svg">
<path d="M127.18 79.4606C128.949 73.2112 126.292 67.0493 120.71 63.8023C121.861 62.5702 121.896 60.7449 122.473 59.2178C122.75 58.4031 122.761 57.5502 122.466 56.8466C123.405 55.7214 122.49 53.4433 122.273 52.037C121.958 50.5623 121.61 49.0909 121.29 47.6298C118.751 35.7943 104.983 27.4904 93.4222 27.4064C92.9122 17.3349 83.9702 9.12526 76.9761 3.6774C71.4592 0.2992 65.9812 0.363749 59.9988 0.237597C50.4352 0.269485 42.3088 10.0221 39.1033 18.0506C23.9053 6.60418 1.43628 20.0049 0.774824 37.8764C1.19703 49.582 9.52182 55.673 18.6036 61.2865C26.7576 66.0976 36.527 68.3249 45.0908 72.3403C55.1014 76.9805 65.3844 81.147 75.6644 85.1566C79.2336 86.3497 82.349 88.8671 86.1404 89.2248C88.2844 90.0661 90.5819 90.8721 93.0837 91.1787C95.054 92.5621 97.7045 94.1247 99.7071 95.5048C101.359 96.0822 105.881 96.2798 107.38 95.5688L107.421 95.7088C116.223 94.5166 124.916 87.9232 127.185 79.447L127.18 79.4606ZM112.981 78.6448C112.557 79.1077 112.367 79.6121 112.374 80.1291C110.464 80.607 108.799 81.6298 107.101 82.5773C105.903 82.0778 104.883 82.7986 103.777 82.8793C95.0898 81.8711 86.9466 77.4849 78.8386 74.6545C73.7309 72.7086 68.689 70.3825 63.3991 68.9599C59.5278 67.8241 55.578 66.6898 52.0786 64.8998C47.1219 61.9359 41.9266 59.5207 36.5986 57.6629C30.0485 54.0501 22.9383 51.3007 15.8956 48.8262L15.7748 48.7338C10.6215 39.8992 17.7233 26.5496 27.9892 26.7208C32.0561 26.7618 35.2229 29.8441 37.4202 33.1831C40.3312 37.6021 46.6866 35.2982 47.5495 30.7473C48.6302 23.7233 50.3146 15.4315 57.6588 12.7378C62.6327 10.9559 67.2095 11.0494 71.6231 12.9355L80.9539 23.9098C81.7346 27.4926 80.7948 31.4223 80.1305 35.0355C78.0939 38.9403 83.1569 42.3652 86.6335 40.4224C91.4184 38.5223 93.9731 39.4722 98.2109 39.3909C101.537 40.3206 104.557 41.3996 106.896 44.1999C107.79 46.0804 109.862 50.3694 110.792 52.279C110.705 52.7138 110.592 52.8892 110.613 53.4113C110.882 56.8631 109.72 59.8984 107.043 62.7353C103.296 66.3833 104.786 73.8182 110.61 73.8689C114.548 73.9233 115.867 75.5439 112.976 78.6584L112.981 78.6448Z" fill="white"/>
</svg>
