<svg width="158" height="148" viewBox="0 0 158 148" fill="none" xmlns="http://www.w3.org/2000/svg">
<g clip-path="url(#clip0_8746_2887)">
<path d="M45.4174 92.013C42.7919 96.9704 40.0014 102.608 37.0601 107.837C36.1585 109.469 35.1292 111.23 34.8862 113.064C34.4185 115.977 37.031 117.782 39.343 115.779C46.6208 108.966 50.9467 99.4435 57.7612 91.996C60.2418 89.0722 62.8823 84.0472 66.8699 88.0144C69.2721 90.3189 71.5466 92.8151 73.9113 95.1609C76.7467 97.9797 79.5599 101.347 83.4951 101.285C89.7588 100.814 90.0719 93.0188 91.5878 88.2923C94.1711 77.9453 98.9681 69.4068 103.652 60.2258C106.735 53.3322 108.941 46.3233 112.054 39.486C112.877 38.2408 114.687 30.3567 116.285 33.1508C118.848 39.1534 122.134 49.5599 126.751 54.6313C129.123 57.5183 132.314 58.0589 134.268 55.2674C136.226 52.4909 134.864 48.4712 133.616 45.5413C129.929 36.6575 126.675 27.5851 124.003 18.3504C122.544 14.3233 122.136 8.30646 117.868 6.34289C111.58 5.0624 104.881 14.622 100.757 18.7095C96.8443 23.1913 94.0437 25.8599 90.39 29.5258C88.4993 31.5505 85.2435 34.1897 85.6524 37.1546C86.0683 39.6384 89.8971 38.2612 91.4798 36.8571C95.6081 33.807 99.5328 30.2648 103.51 26.997C104.131 26.5376 104.98 25.7809 105.511 26.1109C105.839 26.7156 105.009 28.5697 104.622 29.5136C99.8841 40.7055 95.142 51.9463 90.4187 63.0705C88.4925 67.5007 86.3668 71.8372 84.5309 76.3086C83.0847 78.8927 82.9152 83.1213 80.3808 84.5567C79.1396 84.9644 77.3849 83.2642 75.6114 81.425C73.4687 79.1991 71.1945 77.0223 69.067 74.8566C68.649 74.4024 68.4757 74.0944 68.4078 73.8878C68.2833 73.5196 68.5239 73.2675 68.2979 72.9408C67.439 71.6228 63.1184 69.8322 60.7606 71.0795C59.1434 71.7733 60.152 72.159 61.3106 71.9958C61.4461 72.0257 61.3822 72.0897 61.2695 72.2138C60.4162 73.0832 59.2432 74.0809 58.3561 74.9428C57.9952 75.2891 57.7321 75.5788 57.5629 75.7332C57.3562 75.9289 57.3524 75.9139 57.3598 75.7523C57.397 75.3275 57.6294 74.2146 56.6368 74.9752C51.7348 79.5298 48.633 86.3483 45.5413 91.7423L45.3986 92.0018L45.4174 92.013Z" fill="white"/>
<path d="M28.6223 144.035C32.4679 149.093 34.4735 145.106 38.6328 143.134C49.2134 140.237 60.2649 138.068 70.77 134.934C77.4611 132.726 84.2047 130.281 91.0882 128.776C105.782 127.226 119.299 121.498 134.044 119.008C138.22 118.183 142.448 117.568 146.635 117.108C150.352 116.813 157.239 115.77 156.306 110.908C154.683 105.085 132.389 110.892 127.153 111.121C117.022 112.18 106.975 114.656 97.0938 116.898C77.4665 121.477 58.3374 127.848 38.8948 132.779C37.5256 133.059 36.2878 133.099 35.3056 132.69C32.3058 131.191 32.0348 126.674 30.8435 123.777C28.4705 116.177 27.0231 108.632 24.6653 101.092C19.9156 85.8127 17.2988 70.1734 13.9482 54.4787C12.2644 47.5841 10.6895 40.4865 7.49366 34.1315C5.43641 30.5261 2.28072 31.4626 2.4762 35.6794C4.32063 49.963 8.73808 63.8559 12.1849 77.8328C17.4783 99.67 23.0806 122.101 28.4867 143.814L28.6223 144.035ZM102.642 124.595C102.108 124.762 99.0765 125.747 98.9938 125.736C100.103 125.249 101.931 124.63 103.067 124.377C102.981 124.415 102.826 124.501 102.74 124.539L102.635 124.565L102.642 124.595ZM105.08 124.303C104.722 124.408 103.413 124.609 103.255 124.362C105.391 123.633 108.611 122.697 110.864 121.987C111.662 121.851 110.481 122.435 109.868 122.669C108.946 123.012 107.938 123.201 107.002 123.484C106.189 123.752 106.035 124.158 105.354 124.25L105.084 124.318L105.08 124.303Z" fill="white"/>
</g>
<defs>
<clipPath id="clip0_8746_2887">
<rect width="132" height="118" fill="white" transform="translate(0.615234 32.8555) rotate(-14.1003)"/>
</clipPath>
</defs>
</svg>
