<svg width="165" height="160" viewBox="0 0 165 160" fill="none" xmlns="http://www.w3.org/2000/svg">
<g clip-path="url(#clip0_6566_1787)">
<path d="M20.2677 89.3007C20.9159 83.5084 22.7114 77.2289 23.6788 71.681C24.3125 68.7524 23.2508 64.7367 26.3583 63.0092C29.6189 61.4977 34.0678 62.3721 37.3395 62.6847C40.872 63.2506 44.5198 63.4756 47.9726 63.952C53.8907 64.679 59.7143 65.9592 65.5225 67.2179C70.2694 68.2382 74.9947 69.2737 79.8073 70.0205C87.4811 71.3703 95.1859 72.6495 102.894 73.9103C110.288 75.1174 117.679 76.3429 125.039 77.639C126.417 77.9126 127.874 77.9528 129.327 78.0114C132.067 78.1002 134.825 78.1921 137.076 79.8106C140.522 83.3229 138.523 88.9033 137.98 93.1949C137.318 97.0678 136.534 101.432 136.035 105.124C135.851 106.649 134.62 107.843 133.026 107.723C131.564 107.606 130.221 106.237 130.424 104.715C131.055 97.8004 133.401 90.9696 133.256 84.0358C118.11 82.4905 103.086 79.7893 88.0739 77.128C82.9294 76.2106 77.7664 75.29 72.6341 74.4126C58.5248 71.5831 44.0023 68.1703 29.6736 67.8467C29.333 75.286 26.7859 82.405 25.8328 89.7585C25.4842 91.4642 23.9419 92.1496 22.5758 91.916C21.3942 91.714 20.314 90.8081 20.2677 89.3007Z" fill="white"/>
<path d="M76.6896 97.4846C77.0793 91.6481 79.0261 86.0399 80.2218 80.3792C80.8827 71.4002 81.6643 62.2711 83.808 53.6216C85.032 51.686 88.2263 52.1182 88.8701 54.3541C89.3055 55.5864 88.9331 57.0981 88.6881 58.309C86.5471 66.2757 86.6211 73.9566 85.6622 82.0115C84.5836 86.876 83.1479 90.9393 82.5281 95.7874C82.4767 97.8665 81.9975 100.67 79.3102 100.495C79.2179 100.479 79.144 100.467 79.0517 100.451C77.6671 100.214 76.5608 98.9051 76.7081 97.4878L76.6896 97.4846Z" fill="white"/>
<path d="M78.3225 107.16C74.8666 105.923 72.3406 101.581 71.1993 98.2545C69.0546 97.1286 69.4217 93.8697 71.6939 93.1382C72.5697 92.7945 74.1912 93.0906 74.9175 93.1768C77.6624 93.5702 80.4322 93.9298 83.1276 94.3905C84.3276 94.5957 85.614 94.7397 86.4506 95.7368C88.2711 97.8702 86.1645 100.3 84.7785 101.961C82.7485 103.721 81.6826 107.734 78.4333 107.178L78.3225 107.16Z" fill="white"/>
<path d="M21.9481 97.9208C19.5423 95.8771 18.1713 93.0044 16.6697 90.451C15.123 88.3834 13.0761 85.1294 16.5457 83.7295C18.0613 83.5331 19.5964 83.8904 21.1345 84.2292C22.0666 84.4455 23.0203 84.6465 23.9529 84.749C24.7557 84.9432 25.5896 85.0668 26.4267 85.1719C27.9654 85.397 29.504 85.6221 30.8931 86.2771C33.9388 88.4681 30.8871 91.6477 29.1029 93.5255C27.4057 95.2284 25.8823 98.916 23.2976 98.4741C22.873 98.4016 22.4272 98.2304 21.9698 97.9055L21.9481 97.9208ZM23.6496 91.3025C23.8662 91.0359 24.0796 90.7877 24.3147 90.5241L23.5208 90.3884C23.3547 90.36 23.207 90.3348 23.0408 90.3064C23.2304 90.6425 23.4384 90.9817 23.6496 91.3025Z" fill="white"/>
<path d="M133.184 117.468C129.432 115.631 124.298 110.426 125.886 105.914C125.19 101.429 130.319 102.439 133.069 103.023C133.897 103.183 134.737 103.27 135.58 103.338C137.076 103.48 138.594 103.607 139.943 104.274C142.737 106.27 140.45 109.979 139.43 112.386C138.466 114.803 137.005 118.235 134.107 117.74C133.811 117.689 133.504 117.599 133.165 117.465L133.184 117.468Z" fill="white"/>
<path d="M62.9791 44.0819L63.342 44.1819C55.7079 42.9338 58.7513 33.3562 58.5606 27.914C59.3343 23.0543 60.2 18.3241 60.4104 13.4251C60.4627 12.6748 60.8225 12.015 61.3386 11.5528C61.7826 9.84445 63.586 9.2986 65.1616 9.52998C70.0256 9.7541 75.3205 10.7921 79.8778 11.4763C84.4446 12.1052 89.0803 12.4421 93.4963 13.0641C100.66 14.0611 107.755 15.3499 114.85 16.7526C119.544 17.3082 123.073 17.8925 122.53 23.6268C122.159 31.5735 119.989 39.2693 118.2 46.9545C117.825 49.8136 115.198 51.3955 112.446 51.2667C106.457 51.2868 100.427 50.1041 94.4708 48.934C90.7942 48.2106 87.1545 47.4935 83.5599 47.0688C78.1222 46.31 72.9628 46.0354 67.812 45.1549C66.2059 44.8803 64.5907 44.5473 62.9728 44.1188L62.9791 44.0819Z" fill="white"/>
<path d="M36.9506 112.31C29.7509 110.966 22.2145 109.146 15.0568 108.112C13.3642 107.899 11.6625 107.627 9.97935 107.358C8.87614 107.587 7.61265 107.086 7.03451 106.133C6.34921 105.029 6.29613 103.672 7.23637 102.618C8.54721 101.286 10.347 101.651 12.0914 102.006C12.7866 102.163 13.4666 102.298 14.1069 102.331C19.142 102.888 24.0704 103.959 28.9956 105.047C29.8903 105.371 31.2691 105.531 32.7555 105.728C36.4392 106.187 40.8246 106.766 40.2693 110.126C39.9896 111.539 38.5351 112.6 37.1136 112.357C37.0582 112.348 37.0212 112.342 36.9659 112.332L36.9506 112.31Z" fill="white"/>
<path d="M30.1194 139.709C22.872 137.977 15.4158 136.911 8.10491 135.661C1.01829 135.323 3.05692 130.622 3.51684 125.709C4.35685 119.684 4.39445 113.351 5.41277 107.394C5.70506 105.906 5.4228 104.112 6.71111 103.022C8.79376 101.177 11.9592 103.445 11.2598 105.869C10.0019 114.005 9.79444 121.999 8.68149 130.065C16.2323 131.356 23.7994 132.441 31.2529 134.19C32.751 134.541 33.7614 135.966 33.4412 137.506C33.1584 138.938 31.7071 139.981 30.2855 139.738C30.2301 139.728 30.1748 139.719 30.1194 139.709Z" fill="white"/>
<path d="M30.7738 138.549C29.6202 137.517 29.5563 135.779 30.5123 134.633C31.9859 127.235 33.3857 119.825 35.3361 112.528C35.7482 111.118 35.3056 109.372 36.1635 108.133C36.8538 107.207 37.8994 106.76 39.044 106.955C44.3263 108.067 38.4793 120.373 38.2887 124.156C37.0872 127.405 37.2029 140.066 32.3475 139.236C31.8675 139.154 31.351 138.952 30.7706 138.568L30.7738 138.549Z" fill="white"/>
<path d="M59.1565 144.692L58.8796 144.645C56.2581 144.197 54.6709 142.255 55.5125 139.666C56.2302 131.133 56.5691 122.593 58.2593 114.15C57.4768 111.169 61.8222 109.426 63.3882 112.047C64.7209 115.255 62.8832 119.003 62.6174 122.336C61.7297 127.973 61.8299 133.723 61.2038 139.386C69.1027 140.641 76.4 141.414 84.2589 141.904C87.9094 142.224 87.5147 147.756 83.8548 147.491C75.7712 146.982 67.5012 146.119 59.6366 144.774L59.1565 144.692Z" fill="white"/>
<path d="M85.0048 147.099C80.5762 145.772 84.1009 139.827 84.6354 137.033C86.2864 131.488 85.5828 125.711 87.2675 120.191C83.5653 119.729 79.7685 119.042 76.0054 118.38C72.3532 117.736 68.7194 117.096 65.2234 116.65C64.7987 116.578 64.3309 116.536 63.863 116.494C62.2902 116.358 60.6588 116.231 60.1608 114.475C59.7628 113.135 60.3109 111.597 61.6312 110.987C62.615 110.567 63.5935 110.734 64.4612 110.883C64.812 110.943 65.1258 110.996 65.446 111.013C74.0221 112.308 82.8563 113.762 91.2316 115.231C94.9063 117.188 92.4656 121.573 92.0071 124.589C91.7669 131.552 90.1731 138.207 88.3482 144.88C88.0591 146.349 86.5772 147.349 85.1187 147.099C85.0818 147.093 85.0633 147.09 85.0264 147.084L85.0048 147.099Z" fill="white"/>
<path d="M110.11 153.63C108.661 153.326 107.552 151.807 107.922 150.314C108.718 145.098 108.623 139.767 109.857 134.549C110.595 130.784 111.282 126.991 111.559 123.148C111.464 121.366 113.133 119.829 114.93 120.213C116.29 120.483 117.38 121.884 117.177 123.292C116.9 127.914 115.971 132.462 115.137 137.008C114.055 141.777 114.353 146.706 113.45 151.43C113.087 152.887 111.719 153.886 110.224 153.631L110.132 153.615L110.11 153.63Z" fill="white"/>
<path d="M142.773 130.287C133.401 128.647 123.73 126.197 114.399 124.981C111.502 123.48 113.062 119.134 116.222 119.655C121.854 120.277 127.395 121.433 132.914 122.604C136.563 123.379 140.211 124.155 143.888 124.765C147.423 125.54 146.395 130.887 142.85 130.281L142.758 130.266L142.773 130.287Z" fill="white"/>
<path d="M120.775 155.378C117.668 154.771 114.526 154.253 111.425 153.608C107.943 152.747 109.094 147.459 112.648 148.123C119.456 149.42 126.52 150.893 133.311 151.959C135.761 152.302 139.976 152.321 139.389 155.865C138.787 158.609 136.024 158.098 133.849 157.708C133.572 157.66 133.295 157.613 133.055 157.572C131.848 157.404 130.624 157.232 129.424 157.027C126.525 156.532 123.661 155.947 120.772 155.396L120.775 155.378Z" fill="white"/>
<path d="M134.778 154.716C134.748 152.11 135.808 149.027 136.408 146.738C138.387 139.939 139.459 132.891 141.472 126.117C142.39 123.749 146.1 123.719 146.808 126.251C147.029 127.067 146.937 127.829 146.648 128.406C145.55 132.053 144.971 135.883 143.999 139.57C143.03 144.795 140.799 149.842 140.39 155.125C140.228 157.071 138.534 157.863 137.057 157.611C135.783 157.393 134.66 156.404 134.778 154.716Z" fill="white"/>
</g>
<defs>
<clipPath id="clip0_6566_1787">
<rect width="143" height="136" fill="white" transform="translate(23.481 0.924072) rotate(9.70101)"/>
</clipPath>
</defs>
</svg>
