<svg width="118" height="157" viewBox="0 0 118 157" fill="none" xmlns="http://www.w3.org/2000/svg">
<path d="M14.7275 149.16C14.7598 149.266 14.8265 149.391 14.8063 149.496C14.5442 151.526 10.9225 155.648 8.98615 156.125C8.42272 156.269 7.80191 156.604 7.56272 155.702C7.46596 155.384 7.24593 155.097 6.94336 155.3C5.57349 156.196 4.3528 154.689 3.03007 155.112C2.92429 155.144 2.78535 155.105 2.68137 155.068C1.27631 154.61 -0.427617 150.808 0.237753 149.42C1.36493 147.078 2.5961 144.774 3.70625 142.414C7.10889 135.248 10.3901 128.044 13.8442 120.914C21.252 105.597 29.7807 90.9056 39.0157 76.6363C39.4529 75.9626 39.855 75.288 40.4934 74.2682C38.0976 74.9267 36.1241 75.4907 34.1514 76.0195C32.4607 76.4678 31.0283 76.3959 29.3607 75.2641C28.1914 74.4789 26.5618 73.9102 25.0514 73.4674C23.8014 73.1016 23.3153 72.2812 23.5212 71.0747C23.6446 70.3578 23.6885 70.0076 22.7594 70.0891C22.2162 70.1279 22.1275 69.4934 22.0527 68.9997C21.9511 68.1892 22.2314 67.4939 22.599 66.8008C29.1817 54.325 34.4516 41.2008 40.9307 28.6696C43.7841 23.1405 46.4128 17.5002 49.4732 12.0818C50.6456 10.022 49.8785 8.56212 49.0612 7.01317C48.2605 5.49978 48.3042 4.48229 49.744 3.58848C52.6052 1.83552 55.5904 0.7004 59.0399 0.560744C71.2622 0.0494404 83.4771 0.503881 95.6678 1.22114C99.4928 1.44239 103.338 1.54126 107.136 2.14818C108.321 2.33668 109.885 2.04318 110.045 3.96163C110.043 4.04938 110.214 4.19429 110.284 4.19609C112.474 4.05919 113.299 5.9947 114.67 7.10124C116.024 8.18979 116.7 9.77025 117.166 11.398C117.343 11.9821 116.678 12.7026 117.626 13.2187C118.109 13.477 117.52 13.9536 117.234 14.1746C116.253 14.9397 115.238 15.6337 114.222 16.3627C105.385 22.6338 97.2597 29.8012 88.7784 36.5204C85.8145 38.8679 82.9702 41.3238 79.9224 44.2135C82.5708 44.6153 84.6427 45.6695 86.6585 46.8629C88.9845 48.2399 90.9326 50.0287 92.4135 52.2972C93.3052 53.6724 94.0723 55.1322 92.4397 56.7236C93.3105 56.8689 93.1932 55.9878 93.8216 56.0391C93.6412 57.6151 92.6343 58.678 91.5607 59.6164C86.8901 63.7113 82.9021 68.4737 78.6922 73.0195C71.0637 81.2711 63.5889 89.667 56.2508 98.1894C53.5462 101.334 50.8932 104.515 48.2061 107.66C47.8094 108.124 47.5981 108.856 46.777 108.817L46.8111 108.853C46.7952 107.43 48.5204 107 48.6251 105.651C51.0726 103.659 52.7668 101.033 54.6152 98.5338C52.5956 100.888 50.2166 102.934 48.6591 105.687C46.9095 107.064 45.5028 108.714 44.593 110.763C43.3858 112.137 42.1785 113.511 40.9713 114.885C38.2645 118.117 35.4201 121.258 33.2098 124.907L33.264 124.838C31.5444 126.41 30.1686 128.218 29.1701 130.318C28.9356 130.593 28.7016 130.85 28.4846 131.126C25.7783 134.34 23.6034 137.973 20.7595 141.096C19.399 142.308 18.4839 143.882 17.3806 145.294C16.8014 146.052 15.8767 146.643 15.9348 147.786C15.5214 148.214 15.0906 148.642 14.6769 149.088L14.7275 149.16ZM72.7876 78.1717C74.1811 77.7157 74.7407 76.3602 75.6745 75.4183C77.1287 73.9629 78.4122 72.345 79.7638 70.7991C78.7275 70.9656 78.2886 71.7096 77.8 72.3468C76.226 74.3787 74.0358 75.8855 72.8212 78.2253C71.0394 79.4966 69.7366 81.1843 68.536 82.9799C70.044 81.4732 71.8093 80.1662 72.7871 78.1892L72.7876 78.1717ZM105.497 21.6707C103.697 22.3094 102.435 23.7698 101.04 24.9457C99.2346 26.4624 97.1228 27.6375 95.7246 29.6388C93.8137 30.4854 92.3779 31.9061 90.9918 33.4336C90.592 33.3355 90.3226 33.6096 90.0545 33.831C86.4966 36.8305 82.9386 39.8301 79.4148 42.8657C79.1288 43.1042 78.5452 43.3526 78.7898 44.0439C82.1339 41.1969 85.4592 38.4021 88.7333 35.5533C89.5026 34.8881 90.5967 34.5123 90.9581 33.38C92.8013 32.4439 94.3734 31.1671 95.691 29.5852C98.3693 28.1437 100.473 25.9146 102.864 24.0793C103.792 23.3656 105.011 22.8876 105.463 21.6347C106.531 21.6095 107.044 20.6918 107.775 20.1662C109.896 18.6225 111.967 16.9897 114.055 15.375C110.932 17.1212 107.978 19.0825 105.48 21.6702L105.497 21.6707ZM95.2938 13.7336C94.526 13.6612 94.2468 13.6364 93.9671 13.6293C87.2234 13.3154 80.4568 13.2118 73.7188 13.3547C71.5311 13.4039 69.2646 13.1173 67.1929 13.4153C64.9456 13.744 62.83 13.7071 60.6482 13.5281C60.1766 13.4985 59.9937 13.8098 59.6884 14.1181C58.5023 15.3521 58.4935 17.0555 57.8792 18.4974C52.7416 30.5538 47.3621 42.4985 41.896 54.4059C40.8217 56.7317 39.8339 59.0948 38.6076 61.8908C42.4373 60.5667 45.7556 59.4051 49.0905 58.279C50.0434 57.9522 51.0134 57.6434 51.9963 57.5106C53.2782 57.3153 53.6366 58.3431 54.3326 59.1689C54.7399 59.6535 56.4778 58.7323 57.0701 60.1876C57.2179 60.5602 57.403 60.846 57.8704 61.0336C59.4807 61.6721 59.9484 63.2121 60.612 64.6166C61.3082 66.1097 61.377 67.5165 60.3092 68.9116C59.7663 69.6177 59.43 70.4521 58.9386 71.1946C55.6632 76.1334 52.3533 81.0536 49.0778 85.9923C48.0951 87.4774 47.1465 88.9985 46.1803 90.5192C46.3004 90.6101 46.438 90.7015 46.5581 90.7924C57.1836 78.2272 68.9035 66.6387 79.5842 53.9696C75.9247 52.7515 72.2757 53.852 69.005 51.8009C67.7999 51.0499 66.404 49.5563 64.4855 50.0163C64.3094 50.0645 63.4861 49.4286 63.553 48.8683C63.6639 47.9579 63.0912 47.1002 62.717 46.6866C61.4582 45.302 62.202 44.2674 62.9301 43.1621C63.4402 42.3673 63.9679 41.573 64.6157 40.8696C67.4408 37.7985 70.4362 34.9074 73.5522 32.0897C78.5486 27.564 83.8664 23.4681 88.9987 19.104C91.0015 17.3992 93.004 15.712 95.3287 13.7345L95.2938 13.7336ZM35.9484 108.188C36.5822 108.028 36.8422 107.438 37.1852 107.025C41.3346 102.109 45.433 97.1386 49.6169 92.2408C57.7499 82.7378 66.447 73.741 74.7678 64.4184C76.4426 62.5471 78.5987 61.0044 79.8058 58.2781C76.0994 61.6075 36.5858 105.166 35.9484 108.188ZM66.4472 43.1119C67.4932 43.2442 67.6829 42.6695 68.059 42.3279C70.785 39.7109 73.4093 36.9684 76.2876 34.5485C84.0831 27.9697 91.9977 21.5169 99.8787 15.0106C100.29 14.6699 100.664 14.3985 100.338 13.4945C88.9258 23.2996 76.5364 31.6746 66.4476 43.0944L66.4472 43.1119ZM92.059 57.9256C91.9563 57.8352 91.8367 57.7268 91.734 57.6363C89.9019 59.5035 88.0868 61.3888 86.2547 63.256C88.5645 61.8577 90.3801 59.9548 92.059 57.9256ZM64.3516 87.8952C64.2144 87.7863 64.0948 87.6779 63.9581 87.5514C62.6419 89.0807 61.3257 90.6099 60.01 92.1216C60.1126 92.212 60.2327 92.3029 60.3349 92.411C61.6681 90.8997 63.0013 89.3885 64.3516 87.8952ZM43.6428 91.9292C42.8223 93.2253 42.0024 94.5039 41.1819 95.8C42.5877 94.8702 43.2019 93.4283 43.6428 91.9292Z" fill="white"/>
</svg>
