<svg width="154" height="153" viewBox="0 0 154 153" fill="none" xmlns="http://www.w3.org/2000/svg">
<path d="M14.916 62.9489C16.4757 83.1516 32.1204 101.889 51.7621 106.451C56.9412 107.746 62.3345 108.101 67.6792 107.776C71.0622 107.448 73.7313 108.699 76.4824 110.457C80.1856 112.366 83.263 114.89 85.0875 118.906C88.1143 123.3 89.1217 127.567 91.8612 131.841C93.5087 134.318 96.0523 134.694 97.3807 136.537C97.7629 137.183 95.8886 136.135 96.5467 137.554C100.18 143.21 107.061 149.494 114.381 149.355C126.595 148.77 137.322 138.529 129.324 126.6C127.107 123.261 124.124 120.755 121.466 117.756C116.947 112.451 112.987 106.535 108.355 101.307C106.392 99.1126 105.882 96.2504 106.235 93.4078C106.512 89.6839 106.728 85.6046 108.555 81.9839C113.835 70.7389 112.706 59.0575 111.532 47.1874C107.258 20.8024 75.7379 4.24844 51.2865 8.07821C47.5024 8.70461 43.6887 10.0775 40.3475 11.9669C36.348 14.3014 33.5772 18.1488 29.8992 21.0197C17.7396 30.8049 13.587 47.6476 14.892 62.6499L14.913 62.9647L14.916 62.9489ZM103.847 113.388C106.017 115.867 103.381 118.089 101.794 120.039C100.584 121.392 99.7233 123.139 98.0914 123.968C95.5964 124.778 94.5646 120.638 93.3609 119.081C92.7065 117.728 91.3758 116.49 90.8007 115.234C90.7731 114.869 91.1381 114.841 91.4009 114.581C91.5666 114.401 91.6403 114.104 91.4448 113.592C89.662 109.699 86.7971 108.361 92.2971 105.793C93.8254 104.993 95.1272 103.756 96.4173 102.664C97.3756 101.852 97.6638 103.069 97.9209 103.854C99.0369 107.389 102.154 109.708 103.685 113.127L103.863 113.391L103.847 113.388ZM107.686 122.551C109.687 120.828 111.685 121.999 113.173 123.693C116.007 126.546 119.364 128.977 121.231 132.689C122.616 135.001 122.255 137.548 120.282 139.293C119.328 140.171 118.645 140.824 117.955 140.675C117.361 140.446 116.997 140.048 116.253 140.003C110.567 140.654 109.144 138.286 105.963 133.927C104.81 132.363 102.533 131.367 102.111 129.405C102.075 127.305 105.69 124.422 107.451 122.751L107.699 122.57L107.686 122.551ZM87.4576 108.243C87.4576 108.243 87.5115 108.303 87.537 108.341L87.4114 108.398C87.4114 108.398 87.4297 108.303 87.4419 108.24L87.4576 108.243ZM97.956 78.612C90.9212 91.4966 75.9042 99.6506 61.462 98.987C50.4701 96.2915 39.3639 91.0557 32.1438 82.0407C19.3111 68.5566 22.8515 47.6873 32.2665 33.3164C35.124 28.7662 39.7858 25.6275 44.7016 23.2901C50.9298 20.8463 57.6544 21.0822 64.2332 20.7177C92.2039 21.9502 110.651 53.0188 98.1242 78.3338L97.9718 78.615L97.956 78.612ZM52.526 97.6698C51.5312 97.2324 48.747 96.6619 48.1472 95.9573C48.2692 95.8337 48.879 96.1477 49.3931 96.2797C49.9169 96.4463 50.5343 96.4675 51.0205 96.6595C51.5321 96.8891 51.5791 97.3234 52.0708 97.402C52.7802 97.539 54.8673 97.9094 54.6344 97.9299C54.3766 97.9946 53.2268 97.936 52.7752 97.7343L52.5448 97.6571L52.526 97.6698ZM93.9579 132.246C93.4363 131.475 92.6289 130.321 92.0347 129.503C92.8012 130.191 93.914 131.796 94.5179 132.648C94.5718 132.708 94.1476 132.364 94.0815 132.368L93.9548 132.262L93.9579 132.246Z" fill="white"/>
<path d="M82.9276 35.3504C80.2679 32.1876 76.5287 29.1105 72.3032 28.2126C70.3575 27.7877 68.3991 27.3441 66.4565 26.9034C63.1097 26.0281 60.0729 27.273 56.5947 28.4327C55.3475 28.8786 53.9783 29.4482 53.1951 30.5397C51.7095 32.5585 53.2413 35.6344 55.792 35.6365C58.3777 35.7107 61.0037 34.7299 63.5997 34.9206C67.3317 34.9873 71.2199 38.2239 74.4501 40.0416C75.769 40.9177 77.3532 41.4363 78.6765 42.0353C79.6002 42.6716 79.8451 43.5202 80.9521 43.2925C83.9224 42.4762 84.804 38.1658 83.0487 35.5701L82.8961 35.3443L82.9276 35.3504Z" fill="white"/>
</svg>
