<svg width="170" height="165" viewBox="0 0 170 165" fill="none" xmlns="http://www.w3.org/2000/svg">
<g clip-path="url(#clip0_6202_2412)">
<path d="M121.584 18.6266C119.811 18.5722 113.668 17.1387 111.577 16.8487C106.467 16.155 99.9838 14.7758 95.2684 13.7442C84.5871 11.4352 73.794 9.60637 63.4729 7.40283C60.615 6.78867 60.1386 6.83349 58.4981 6.54541C53.6567 5.71423 48.6286 4.86364 43.3331 3.78729C42.3494 3.59378 41.4357 3.39671 40.5553 3.2062C40.1751 3.11409 39.5183 3.01952 38.9982 2.93452C38.4581 2.86291 37.9049 2.85799 37.355 2.8364C35.1823 2.87658 33.0312 3.42323 30.9955 4.61603C29.1861 5.7148 27.1785 7.38072 25.7996 9.72449C25.1335 10.9096 24.551 12.1978 24.2654 13.5617C23.9661 14.819 23.8158 15.7593 23.616 16.8629C23.2166 19.157 23.1488 19.8537 23.2292 19.9734C23.2828 20.0532 23.3528 20.0497 23.0218 21.8203C22.9627 22.1204 22.7383 22.8209 22.705 22.8143C22.5216 22.7783 21.8765 25.353 21.3629 28.4039C19.3641 40.2372 16.5901 52.4896 14.3423 64.6204C13.3887 69.7321 11.9762 76.2083 10.8954 82.2302C10.2832 85.6946 9.58757 89.1426 8.88513 92.5373C8.53391 94.2347 8.18596 95.9154 7.84458 97.5627L7.72323 98.1796L7.58902 98.9499C7.48735 99.4667 7.46903 100 7.43733 100.513C7.38731 101.56 7.49391 102.603 7.69043 103.628C8.67168 108.324 11.9519 111.81 15.7691 113.357C16.7001 113.731 17.804 114.017 18.6576 114.168L21.0818 114.61C22.699 114.928 24.3196 115.23 26.0068 115.544C36.5941 117.627 47.3017 119.803 57.7651 121.722C59.9225 122.112 60.3828 122.237 60.9333 122.432C62.4978 122.931 66.4659 123.711 68.6599 124.091C74.0349 125.027 78.6735 126.009 83.9823 127.105C91.3585 128.608 98.8548 130.117 106.131 131.601C113.907 133.182 121.467 134.722 129.113 136.26C130.13 136.46 131.161 136.68 132.208 136.904L133.775 137.212C134.375 137.33 135.109 137.474 135.782 137.486C138.532 137.68 141.386 136.995 143.781 135.561C146.189 134.147 148.162 131.955 149.32 129.412C149.635 128.781 149.852 128.114 150.054 127.443L150.304 126.436L150.468 125.602C150.674 124.552 150.898 123.505 151.121 122.458C152.823 113.804 154.666 104.348 156.45 95.1909C157.349 90.6226 158.357 84.7075 159.244 80.7257C160.447 75.3166 161.091 71.5988 162.015 66.6371C162.798 62.3057 163.519 58.3778 164.361 53.7462C166.498 42.5289 166.585 41.5589 165.884 42.2176C165.758 42.3313 165.395 43.6455 165.381 43.279C165.325 42.3327 164.373 45.8515 164.527 44.1848C164.804 41.1046 164.236 42.7594 163.628 44.3542C163.195 45.4986 162.926 45.6361 162.247 48.1176C160.758 53.5743 163.407 40.8991 162.964 41.8336C162.844 42.0873 162.876 41.4873 162.783 41.6076C162.487 41.9651 162.659 39.3319 161.678 44.0571C160.046 51.8237 160.922 45.5191 160.131 49.1907C158.981 54.5064 159.524 51.2188 159.516 50.6456C159.493 49.8792 159.209 50.5333 158.399 54.8248C157.38 60.1833 156.642 63.0516 155.777 66.7434C154.597 71.8626 154.16 75.9329 153.066 81.0518C152.975 81.5186 152.853 82.0489 152.761 82.4291C151.485 87.8584 150.263 94.424 149.187 100.066C148.04 106.161 147.28 110.203 146.51 112.268C146.146 113.236 145.552 115.994 145.178 118.864C145.018 120.114 144.737 121.895 144.254 124.086C143.557 129.127 139.098 132.336 133.955 130.753C125.781 128.989 118.92 127.951 111.324 126.509C110.769 126.954 100.161 124.711 94.7027 123.845C91.0918 123.274 87.1332 122.356 84.0687 121.736C77.9429 120.479 79.3049 121.215 73.8258 120.016C73.5257 119.957 72.7188 119.832 72.5521 119.8C65.9256 118.271 58.3301 117.002 51.167 115.472C44.6676 114.089 37.9684 112.754 31.2293 111.445C27.8613 110.783 24.4768 110.117 21.1055 109.471C19.2715 109.11 18.0979 108.914 16.8993 108.228C15.7309 107.565 14.7182 106.639 13.9649 105.538C13.2348 104.407 12.7576 103.136 12.5868 101.803C12.4058 100.434 12.6587 99.2371 13.0195 97.4031C13.6853 94.0185 14.3577 90.6005 15.0866 87.1591C16.1802 82.0403 17.2768 76.8181 17.8726 72.3806C18.0615 70.9804 20.0805 61.3331 20.2921 60.7859C20.5829 60.0118 20.9172 59.2809 20.5908 61.4681C20.2973 63.4885 19.9469 64.3894 19.6151 65.9001C19.3292 67.1773 18.9345 68.8315 18.7872 69.6684C17.8934 74.74 16.8523 79.5921 15.8517 84.5907C14.9366 89.2424 14.5364 92.3329 14.4777 93.7761C14.4689 94.1727 14.6444 93.8089 14.8483 92.9484C15.7298 89.2599 15.8462 87.0834 16.6342 83.3418C17.0644 81.331 17.3549 79.4139 17.5441 78.1003C17.8663 75.6698 18.2892 73.4324 18.9643 70.8809C19.1685 70.1071 19.3991 69.2866 19.7528 67.3126C20.64 62.2744 21.5764 56.9861 22.4309 52.1146C22.8791 49.4839 23.0937 47.7769 22.5068 49.7916C21.8178 52.1499 22.7405 46.755 23.1142 44.7676C23.9989 40.006 23.7108 42.7029 23.9915 41.8922C24.1599 41.3885 24.266 41.2015 24.4671 40.5311C24.8826 39.1234 25.1083 38.8561 26.0114 33.5612C26.4206 31.2172 27.055 27.3762 27.8369 23.8412C28.3855 21.3168 28.2625 21.4138 28.2354 21.2873C28.1209 20.9011 28.1589 20.2678 29.1382 15.9058C29.2071 15.5556 29.2957 15.1055 29.4014 14.8319C29.4938 14.5383 29.5529 14.2382 29.6753 13.9679C29.8902 13.404 30.1583 12.8333 30.5199 12.3156C31.2131 11.257 32.1432 10.3143 33.2939 9.57088C34.8669 8.5295 36.6121 8.19741 38.1621 8.32915C38.5721 8.35785 38.9023 8.44012 39.339 8.50873C39.8225 8.60384 40.3028 8.71563 40.7663 8.82414C41.7101 9.04444 42.6405 9.24479 43.5677 9.46181C46.1323 10.0702 49.1665 10.5805 51.7308 11.1023C61.7447 13.1069 66.3497 13.9954 72.5757 15.3588C75.0835 15.9041 77.4811 16.3931 79.8118 16.7823C84.6398 17.5935 89.2782 18.4886 94.0504 19.5833C99.6164 20.8687 104.494 21.5165 109.819 22.6161C111.12 22.8719 112.171 23.1652 113.345 23.4481C114.418 23.7113 115.092 23.8958 117.083 24.2528C129.473 26.4998 142.255 29.1355 154.78 31.582C157.077 32.0513 158.511 33.3031 159.408 34.38C160.298 35.4903 160.707 36.4887 160.966 37.2844C161.448 38.8858 161.517 39.6787 161.631 40.8614C161.679 41.3211 161.807 40.8442 161.96 40.5104C162.582 39.1955 162.521 36.7763 163.148 38.9604C163.324 39.9996 163.594 37.6627 162.968 35.7384C162.318 33.5844 161.702 32.8398 162.106 32.9885C162.42 33.1541 163.706 34.3598 164.542 37.1565C164.697 37.6892 164.863 38.7784 164.843 38.5318C164.812 37.2789 164.707 36.6694 164.702 36.3395C164.698 36.0096 164.771 35.9893 164.848 35.9525C164.924 35.9156 165.018 35.8819 164.97 35.5088C164.919 35.1524 164.783 34.433 164.166 33.1686C163.023 31.0561 162.281 30.4253 162.344 30.2818C162.347 30.1784 162.982 30.6497 163.657 31.354C164.235 31.9354 164.516 32.2677 164.586 32.2642C164.656 32.2606 164.555 31.8944 164.1 31.216C163.681 30.5275 162.905 29.5435 161.582 28.4346C160.285 27.3656 158.299 26.1955 155.738 25.6571C153.947 25.2528 151.649 24.6969 150.442 24.4941C143.98 23.3614 138.037 21.9672 131.758 20.784C129.171 20.2923 125.376 19.5978 124.685 19.2367L121.634 18.6365L121.584 18.6266ZM28.4818 113.087C25.5105 112.433 23.7568 112.192 21.6962 111.839C20.3156 111.55 17.8456 111.341 15.8192 110.198C13.7695 109.084 12.3974 107.256 11.9614 106.391C10.8586 104.338 10.752 103.295 10.5336 102.733C10.3718 102.147 10.2479 101.984 10.2559 101.328C10.2559 100.271 10.4352 99.0075 10.7407 97.6302C10.993 96.2598 11.2516 94.7693 11.5137 93.3488C12.0213 90.5046 12.5228 87.867 12.9957 86.6958C13.837 81.891 14.7157 77.336 15.7483 72.9672C15.9686 72.0234 16.3488 70.0027 16.3472 70.5392C16.3477 70.7125 16.0099 72.4298 15.9284 73.02C15.5048 76.0539 14.3798 80.7163 13.9526 83.6802C13.2961 86.8415 12.6229 89.9995 11.9598 93.1941C11.6449 94.7947 11.3268 96.412 10.9952 98.0093C10.647 99.6034 10.5153 101.153 10.8268 102.739C11.4099 105.849 13.5082 108.652 16.3385 110.023C17.7371 110.748 19.3142 111.007 20.9648 111.331C22.5821 111.649 24.1993 111.968 25.7999 112.282C27.7507 112.666 29.8514 113.079 30.5588 113.357C30.479 113.411 30.476 113.514 28.4851 113.07L28.4818 113.087ZM151.473 100.862C152.161 98.3304 152.777 96.079 153.75 91.577C153.711 91.9504 153.698 92.277 153.616 92.6938C152.846 96.612 152.102 100.743 151.27 104.355C149.288 113.022 149.295 112.989 147.844 120.895C147.581 122.316 147.349 123.673 147.094 125.06C146.855 126.45 146.32 128.111 145.491 129.334C144.692 130.579 143.741 131.362 143.438 131.493C142.965 131.694 143.777 131.092 144.637 130.066C145.53 129.047 146.285 127.498 146.499 126.588C147.227 122.09 148.635 115.111 149.497 110.466C150.294 106.414 150.988 102.533 151.459 100.842L151.473 100.862ZM157.091 63.6767C157.208 62.9032 158.053 59.3114 158.5 57.3905C158.902 55.703 159.028 55.6759 158.961 56.4593C158.842 57.7693 158.387 59.5503 158.036 61.161C156.84 66.6235 155.66 71.8292 154.554 78.3311C154.276 79.9216 153.625 82.8762 153.143 85.1539C152.837 86.5312 152.561 87.845 152.279 89.1923L153.077 84.3443C153.564 81.4268 154.409 77.835 154.834 74.9744C155.599 71.3495 156.411 68.0111 157.091 63.6767ZM135.862 134.263C134.278 133.865 126.615 132.496 126.044 132.141C125.727 131.905 130.952 132.899 135.69 133.727C137.534 133.864 138.806 133.56 139.602 133.388C140.374 133.159 140.714 133.105 140.654 133.231C140.415 133.392 139.38 133.899 138.264 134.112C137.159 134.362 136.042 134.316 135.879 134.266L135.862 134.263ZM157.514 71.0336C157.529 70.6903 157.903 68.6163 158.165 67.2824C159.129 62.294 159.329 62.42 159.758 61.0323C160.012 60.1817 159.619 62.2691 159.34 63.6863C158.776 66.554 157.466 71.8902 157.514 71.0336ZM110.522 129.174C109.955 128.889 113.47 129.598 115.22 129.856C116.984 130.133 118.591 130.415 120.122 130.82C120.662 130.978 121.106 131.1 121.596 131.249C118.545 130.735 115.481 130.202 112.597 129.721C111.576 129.451 110.649 129.234 110.522 129.174ZM127.282 130.341C127.478 130.31 131.209 130.975 133.43 131.395C133.997 131.506 134.827 131.687 135.558 131.848C136.158 131.966 136.655 131.994 136.698 132.037C136.742 132.081 136.288 132.095 135.685 132.081C135.365 132.035 135.085 132.049 134.668 131.967C134.248 131.902 133.845 131.84 133.508 131.791C131.8 131.316 126.732 130.406 127.285 130.324L127.282 130.341ZM148.523 108.109C148.265 109.687 148.022 110.834 147.895 110.947C147.849 111.007 147.864 110.578 147.972 109.941C148.267 108.267 148.594 106.34 148.895 104.546C149.072 103.559 149.246 102.762 149.394 102.271C149.447 102.091 149.451 102.248 149.468 102.251C149.513 102.901 148.83 106.196 148.523 108.109ZM22.0908 48.9131C22.0501 49.7364 21.779 51.4668 21.3171 53.991C21.012 55.5416 20.7198 56.9388 20.6135 57.0391C20.4143 57.2597 20.8139 55.0523 21.5223 51.451C21.5978 51.0675 22.0744 48.9965 22.0908 48.9131ZM155.757 81.4599C155.699 82.1066 155.509 83.0736 155.364 83.4606C155.208 83.8977 155.092 84.1346 155.036 84.0715C154.922 83.9452 155.173 82.2282 155.585 79.8675C155.644 79.5674 155.862 78.7269 156.069 77.8498C155.963 79.0065 155.866 80.1998 155.74 81.4566L155.757 81.4599ZM58.6267 119.104C58.426 118.891 60.9603 119.39 63.4112 119.872C64.8451 120.154 66.7994 120.608 66.4126 120.549C64.6021 120.245 62.3548 119.872 60.2775 119.515C59.7006 119.367 58.6534 119.144 58.6267 119.104ZM141.682 130.385C142.975 129.445 143.907 128.052 144.467 126.968C144.113 127.885 143.599 128.737 142.895 129.499C142.168 130.291 141.224 130.953 140.032 131.464C140.767 131.072 141.193 130.757 141.682 130.385ZM151.227 93.7478C151.229 94.2676 150.947 95.9614 150.607 97.8687C150.577 98.0188 150.327 98.9393 150.264 98.9962C150.091 99.17 150.452 97.2494 150.845 95.2486C150.987 94.705 151.23 93.6445 151.227 93.7478ZM20.3203 113.023C20.3203 113.023 19.6968 112.935 18.9799 112.794C18.2463 112.649 17.2358 112.416 16.5785 112.148C15.2438 111.626 14.0316 110.833 12.9889 109.883C13.8608 110.557 15.604 111.731 17.3186 112.259C17.7756 112.401 18.2091 112.486 18.6027 112.598C18.9695 112.671 19.303 112.736 19.5665 112.805C20.1 112.91 20.4102 113.006 20.3036 113.02L20.3203 113.023Z" fill="white"/>
<path d="M28.1158 110.106C28.8958 110.19 29.9358 110.273 30.2693 110.339C36.5052 111.652 41.7293 112.299 48.806 113.916C52.7845 114.82 59.1303 116.103 64.1117 116.927C66.1756 117.264 67.2027 117.501 69.127 117.931C73.2389 118.861 76.0599 119.399 84.3791 120.862C85.8862 121.124 87.1933 121.346 88.464 121.666C92.0224 122.504 96.1338 123.261 100.132 124.065C102.199 124.472 103.977 124.856 104.251 125.048C104.541 125.244 103.521 125.147 101.504 124.837C101.121 124.762 100.647 124.703 100.214 124.618C97.1913 123.608 93.0441 123.121 89.2828 122.433C84.4879 121.542 79.6656 120.437 74.8441 119.593C73.2394 119.034 71.7323 118.773 70.009 118.641C69.769 118.629 67.6149 118.222 67.5482 118.209C63.1419 116.927 54.7003 115.734 49.4642 114.444C47.0862 113.855 44.5525 113.53 43.0421 113.284C38.2376 112.53 34.6021 111.555 30.3305 110.732C29.7303 110.614 28.9363 110.336 28.1324 110.109L28.1158 110.106Z" fill="white"/>
<path d="M18.0921 108.238C16.5437 107.57 15.5783 106.843 14.6887 105.819C13.5612 104.42 13.4051 103.54 13.2936 103.051C13.2053 102.531 13.2512 102.298 13.2094 101.718C13.2903 99.8984 13.3906 102.118 13.814 103.223C14.312 104.741 15.3725 106.04 16.6615 106.883C17.306 107.304 17.9836 107.645 18.7142 107.893C18.8911 107.962 19.0911 108.001 19.2713 108.054L19.5481 108.143L19.965 108.225C20.4886 108.38 21.0189 108.502 21.5792 108.647C22.8767 109.006 25.8314 109.656 24.3546 109.504C23.6412 109.433 22.7611 109.329 21.6407 109.126C21.0905 109.018 20.4736 108.897 19.79 108.762C19.093 108.608 18.6828 108.493 18.0787 108.218L18.0921 108.238Z" fill="white"/>
<path d="M56.0582 132.072C56.2129 132.518 55.4164 133.574 55.2844 133.981C54.9711 135.045 53.9413 136.054 53.1232 136.604C52.1854 137.233 51.2375 137.826 50.2259 138.302C49.2042 138.742 48.1254 139.032 47.0392 139.095C46.436 139.081 46.3565 139.221 46 139.272C45.6302 139.303 45.247 139.314 44.8772 139.346C44.4839 139.32 44.0906 139.295 43.6973 139.269L42.5821 144.938C42.9656 145.014 43.3491 145.089 43.7325 145.164C44.7597 145.401 45.5204 145.672 46.5267 145.662C47.4298 145.649 48.6144 146.142 49.7446 146.295C50.3547 146.363 50.5512 146.333 50.6042 146.239C50.634 146.176 50.6305 146.106 51.1173 146.184C51.2006 146.201 51.3676 146.32 51.3611 146.353C51.325 146.537 51.9823 146.805 52.799 146.879C55.9792 147.175 59.1615 148.165 62.389 148.661C63.7493 148.877 65.4404 149.348 67.0472 149.543C68.9042 149.787 70.6921 150.295 72.3796 150.696C74.3338 151.15 75.9172 151.288 77.7045 151.622C80.5056 152.173 83.3268 152.798 86.1208 153.209C86.6942 153.287 86.821 153.346 86.938 153.456C87.3187 153.721 88.3691 153.928 88.9625 153.993C90.4027 154.155 91.6234 154.464 93.014 154.79C94.9549 155.224 96.9491 155.651 98.8567 156.078C99.2068 156.147 99.5569 156.215 99.8904 156.281L101.032 150.479C99.6712 150.177 98.4232 149.654 97.311 148.881C95.8916 147.909 94.5578 146.59 93.6998 145.053C92.7751 143.503 92.1126 141.589 92.0399 139.67C91.9951 139.194 92.0167 138.644 92.0183 138.107C92.0899 137.567 92.1118 137.104 92.2933 136.533C92.7254 135.129 92.8189 134.126 93.0247 132.815C93.1977 131.672 93.301 130.618 93.5071 129.395C94.0209 126.43 93.9734 126.144 93.3838 126.236C93.2772 126.249 93.1083 126.58 93.0413 126.48C92.8538 126.201 92.4201 127.085 92.3386 126.619C92.1959 125.76 91.874 126.164 91.4886 126.538C91.2262 126.816 90.9829 126.82 90.6716 127.434C89.9828 128.822 90.7954 125.484 90.4929 125.702C90.413 125.755 90.3592 125.589 90.2859 125.609C90.0495 125.666 89.8505 124.917 89.5545 126.158C89.0478 128.206 89.0224 126.486 88.7654 127.44C88.3866 128.838 88.4571 127.951 88.3699 127.778C88.2426 127.545 88.0531 127.716 87.8501 128.836C87.6046 130.26 87.2703 130.991 86.9601 131.951C86.5244 133.286 86.6647 134.422 86.299 135.752C86.2727 135.886 86.2465 136.019 86.2036 136.149C85.6591 137.861 85.696 140.05 86.0182 141.845C86.3577 143.817 86.888 144.995 86.8005 145.792C86.7284 146.158 87.111 147.03 87.6899 147.785C87.9742 148.101 88.3156 148.566 88.6774 149.192C89.7194 150.938 91.3435 152.366 92.9438 153.65C95.0853 155.353 97.3733 155.959 99.7808 156.398C99.7808 156.398 99.7873 156.365 99.824 156.355L100.985 150.452C100.626 150.867 97.9651 150.222 96.5451 150.133C95.5685 150.08 94.5444 149.74 93.7307 149.562C92.12 149.211 92.4182 149.72 90.9706 149.331C90.8873 149.315 90.6806 149.309 90.6306 149.299C88.9059 148.734 86.8626 148.557 85.0015 148.07C81.5895 147.191 77.9253 146.626 74.394 145.914C72.6266 145.566 70.823 145.316 69.0119 144.838C67.6778 144.489 66.2904 144.147 65.0875 144.187C64.7043 144.198 62.1763 143.58 62.0459 143.45C61.8554 143.274 61.6914 143.052 62.2946 143.066C62.8479 143.071 63.0485 143.284 63.4587 143.399C63.7856 143.498 64.2227 143.653 64.4427 143.679C65.7962 143.842 67.0636 144.178 68.3942 144.457C69.628 144.699 70.4676 144.657 70.8771 144.512C70.9902 144.465 70.9099 144.346 70.683 144.266C69.7288 143.923 69.1029 144.111 68.1291 143.868C67.6021 143.729 67.0855 143.714 66.7223 143.712C66.0592 143.738 65.4557 143.636 64.8215 143.338C64.6146 143.246 64.411 143.136 63.8876 143.068C62.5341 142.906 61.1806 142.743 59.8271 142.581C59.1137 142.51 58.6572 142.541 59.1547 142.83C59.7456 143.171 58.3022 143.026 57.7654 142.937C56.5051 142.741 57.2512 142.646 57.0574 142.486C56.9372 142.393 56.9003 142.317 56.73 142.214C56.3728 142.005 56.3389 141.825 54.9121 141.683C54.2821 141.629 53.262 141.532 52.3281 141.262C51.671 141.08 51.6847 141.187 51.6415 141.23C51.5221 141.397 51.3389 141.448 50.1948 141.102C49.4276 140.864 48.5934 140.527 47.66 140.43C46.3532 140.294 45.3993 140.037 44.4251 139.707C44.1649 139.621 43.9014 139.552 43.618 139.496L42.5848 144.748C43.1249 144.82 43.6817 144.895 44.1884 144.96C45.7852 145.118 46.9581 145.054 47.9642 144.958C48.4638 144.883 48.9235 144.835 49.4032 144.773C49.8529 144.689 50.3058 144.587 50.812 144.479C51.5978 144.27 52.3535 144.037 52.9822 143.659C54.3395 142.922 55.5465 142.068 56.8535 141.234C58.3566 140.196 59.1853 138.801 60.1641 137.434C60.3896 137.081 60.6287 136.833 60.8777 136.536C61.1068 136.252 61.2429 136.088 61.5009 135.481C61.9079 134.556 62.2181 133.596 62.4783 132.625L62.8137 131.184L63.0597 129.934C63.3877 128.267 63.7157 126.599 64.0436 124.932C64.6499 121.674 64.6789 121.351 64.2762 120.492C64.2057 120.323 64.0928 120.456 63.9832 120.573C63.5279 120.951 63.0466 121.549 62.7877 120.84C62.6767 120.524 62.402 121.128 62.147 121.632C61.5607 122.764 61.2765 122.448 61.1352 120.965C61.1281 120.826 61.1139 120.546 61.0841 120.609C60.5811 121.757 60.4172 120.478 59.941 121.666C59.531 122.693 59.4501 122.4 59.2987 121.938C59.0497 121.179 58.7816 121.749 58.1584 123.861C58.0133 124.335 57.7951 124.915 57.7662 125.238C57.565 126.965 57.0367 128.507 56.7587 130.184C56.6371 130.714 56.4996 131.501 56.2099 131.565L56.0084 132.149L56.0582 132.072ZM78.7489 148.866C77.9784 148.645 77.4919 148.654 76.9318 148.595C76.1851 148.518 74.4076 148.134 73.8905 147.945C72.6961 147.502 72.7641 147.949 72.4471 147.8C71.4158 147.32 69.1702 147.467 68.615 146.855C67.3282 146.706 66.1245 146.487 64.9902 146.09C64.7467 146.008 64.2098 145.92 64.3629 145.846C64.4195 145.822 64.8697 145.911 65.0263 145.907C65.8594 145.898 67.0538 146.341 67.8669 146.345C71.1523 147.251 74.6698 147.769 78.0645 148.472C78.5813 148.574 79.1315 148.682 79.3054 148.855C79.2756 148.918 79.2726 149.021 78.7322 148.863L78.7489 148.866ZM88.4467 141.561C88.5044 140.828 88.6323 140.177 88.7152 138.964C88.7488 139.057 88.7991 139.154 88.7961 139.257C88.8144 139.78 88.8628 140.327 88.9144 140.856C89.0027 141.376 89.0377 141.902 89.1126 142.402C89.2596 143.591 89.4247 144.16 89.5931 144.713C89.7847 145.236 90.0129 145.748 90.6156 146.646C90.8466 146.969 91.0474 147.268 91.2817 147.574C91.7135 148.196 92.5059 149.01 92.4934 149.25C92.4679 149.643 91.7176 148.439 91.3566 148.073C90.3641 147.22 89.5187 145.443 89.0683 144.212C88.6917 143.133 88.415 142.074 88.4768 141.584L88.4467 141.561ZM87.8643 131.229C87.8703 131.022 88.1939 130.081 88.359 129.594C88.5142 129.157 88.6342 129.163 88.6782 129.38C88.746 129.74 88.5509 130.203 88.4323 130.63C88.0302 132.058 87.6079 133.412 87.4201 135.159C87.3748 135.566 87.134 136.35 87.0096 137.07C86.9276 137.487 86.8489 137.887 86.8202 138.297C86.7786 137.804 86.8071 137.307 86.8355 136.81C86.8691 135.847 87.2031 135.03 87.2239 134.22C87.4808 133.266 87.788 132.409 87.8443 131.242L87.8643 131.229ZM94.2672 150.62C94.4222 151.153 96.3412 152.05 96.3721 152.333C96.3893 152.51 95.0413 151.967 93.9854 151.084C93.1469 150.417 92.9323 150.011 93.0887 149.921C93.312 149.93 94.2137 150.54 94.2672 150.62ZM89.3009 133.434C89.2673 133.34 89.3422 132.784 89.411 132.433C89.6701 131.116 89.8836 131.176 90.0892 130.835C90.2184 130.618 90.1269 131.171 90.0514 131.555C89.9006 132.322 89.355 133.687 89.2976 133.45L89.3009 133.434ZM100.467 153.087C100.467 153.087 100.463 153.017 100.517 153.01L100.372 153.744C100.172 153.791 99.5121 153.626 99.1221 153.584C98.6287 153.539 98.2083 153.387 97.8243 153.138C97.6874 153.042 97.5972 152.972 97.4769 152.88C98.2974 153.11 99.1046 153.321 99.8846 153.405C100.105 153.518 100.315 153.594 100.375 153.64L100.48 153.107L100.447 153.1L100.467 153.087ZM95.2143 153.993C95.2143 153.993 94.0797 153.51 93.5019 153.102C93.1846 152.866 92.6497 152.328 92.6661 152.245C92.6792 152.178 93.3136 152.563 93.6908 152.758C94.0355 153.207 95.4573 153.902 95.2143 153.993ZM87.4882 144.057C87.6962 144.496 87.8039 144.829 87.7208 144.899C87.6976 144.929 87.5773 144.836 87.4934 144.646C87.2386 144.181 87.0935 143.598 86.9019 143.075C86.8043 142.779 86.7502 142.526 86.7997 142.363C86.8128 142.296 86.8396 142.336 86.8563 142.339C87.0134 142.508 87.2698 143.494 87.4915 144.04L87.4882 144.057ZM58.8762 143.277C59.1159 143.203 59.5792 143.225 60.2526 143.323C60.6695 143.405 61.033 143.494 61.0499 143.583C61.0871 143.747 60.497 143.665 59.5466 143.478C59.4466 143.459 58.8562 143.29 58.8762 143.277ZM89.0265 136.237C89.0604 136.417 89.0278 136.67 88.9549 136.777C88.8652 136.881 88.7821 136.951 88.7187 136.921C88.5886 136.878 88.567 136.372 88.6517 135.765C88.6681 135.682 88.7608 135.475 88.8401 135.248C88.8977 135.571 88.9688 135.914 89.0232 136.254L89.0265 136.237ZM86.7188 150.521C86.6849 150.341 87.3685 150.475 88.0021 150.6C88.3855 150.675 88.8893 150.844 88.786 150.841C88.306 150.816 87.6959 150.748 87.1359 150.689C86.9924 150.627 86.7122 150.554 86.7188 150.521ZM91.1751 150.757C90.7605 150.311 90.2958 149.856 90.1078 149.404C90.3453 149.693 90.6427 149.942 90.9001 150.218C91.1877 150.517 91.4121 150.873 91.7797 151.205C91.5058 151.012 91.3355 150.909 91.1784 150.74L91.1751 150.757ZM86.6614 139.72C86.7685 139.88 86.8601 140.383 86.9186 140.966C86.9087 141.016 86.8863 141.306 86.8464 141.333C86.71 141.41 86.6182 140.82 86.5862 140.19C86.619 140.024 86.6346 139.68 86.6447 139.717L86.6614 139.72ZM76.3895 149.944C76.3895 149.944 75.7595 149.889 75.4427 149.827C75.1093 149.761 74.7824 149.662 74.4721 149.566C74.7419 149.515 75.2388 149.631 75.6556 149.713C76.0891 149.798 76.4693 149.89 76.4062 149.947L76.3895 149.944Z" fill="white"/>
<path d="M79.0663 146.019C79.2795 145.992 79.5693 145.928 79.6693 145.947C81.3035 146.355 82.7429 146.258 84.5843 146.845C85.6284 147.172 87.2891 147.533 88.6358 147.642C89.1824 147.68 89.4593 147.769 89.9663 147.921C91.0438 148.254 91.7806 148.382 94.0143 148.648C94.421 148.693 94.7744 148.746 95.098 148.861C96.0221 149.182 97.1157 149.345 98.1628 149.568C98.713 149.676 99.1733 149.801 99.2304 149.951C99.2875 150.101 99.0011 150.149 98.4512 150.127L98.1112 150.095C97.3729 149.534 96.2268 149.637 95.2166 149.491C93.9397 149.291 92.6854 148.889 91.3985 148.74C91.011 148.421 90.6043 148.376 90.1147 148.487C90.0415 148.507 89.4713 148.412 89.4546 148.409C88.3496 147.776 86.0435 147.79 84.6922 147.264C84.0816 147.023 83.3819 147.059 82.9719 147.03C81.6687 146.964 80.7509 146.524 79.6138 146.317C79.4638 146.288 79.2533 146.125 79.0663 146.019Z" fill="white"/>
<path d="M76.2395 145.688C75.6458 145.537 75.2159 145.521 74.7392 145.48C73.4657 145.35 73.6117 145.137 73.2146 144.955C72.5938 144.677 73.4171 144.717 73.8506 144.803C75.0278 145.069 76.2638 144.948 77.3519 145.491C77.6823 145.66 78.4529 145.881 78.0431 145.939C77.6501 146 77.0769 146.009 76.2395 145.688Z" fill="white"/>
<path d="M84.8649 54.127C84.9624 54.4233 84.536 54.478 84.5199 54.648C84.4713 55.0713 84.1086 55.2424 83.829 55.3433C83.1932 55.5819 82.8786 56.2128 82.303 56.4978C82.1499 56.5716 82.1969 56.6848 82.1439 56.7783C82.0048 57.0453 81.8558 57.3624 81.583 57.5165C81.3868 57.6338 81.1736 57.6611 81.1479 57.9678C81.1121 58.2378 80.7355 58.2157 80.6029 58.4494C80.5266 58.5729 80.5469 58.6462 80.6138 58.7459C80.654 58.8058 80.6975 58.849 80.631 58.9225C80.631 58.9225 80.531 58.9028 80.5042 58.8629C80.3771 58.7167 80.1839 58.7306 80.0978 58.9042C79.7701 59.6017 78.9843 59.8108 78.5396 60.3987C78.3537 60.6393 77.9609 60.7871 77.7753 61.1143C77.5466 61.4849 77.1371 61.6295 76.8012 61.8405C76.4221 62.095 76.2833 62.4487 75.9875 62.7196C75.5223 63.1476 74.997 63.5292 74.6187 64.0436C74.5457 64.1504 74.4957 64.1406 74.4323 64.1108C74.2388 64.0381 74.066 64.2119 74.0097 64.3221C73.864 64.6225 73.5946 64.7599 73.3486 64.954C72.9861 65.2117 72.6204 65.4862 72.2881 65.7671C71.9357 66.0615 71.5968 66.3758 71.1876 66.6071C70.7552 66.8684 70.3898 67.2294 69.9976 67.5506C69.5887 67.8685 69.2402 68.3195 68.8482 68.7273C68.6523 68.9312 68.5 69.2649 68.2538 69.3723C67.9176 69.4967 67.8216 69.7203 67.6658 69.984C67.5199 70.1978 67.4341 70.458 67.2515 70.6818C66.8333 71.223 66.8636 71.3329 67.2947 71.6948C67.3682 71.7612 67.5049 71.7708 67.5418 71.8473C67.6757 72.0468 68.0157 72.0791 68.0663 72.2622C68.1707 72.6118 68.4142 72.6943 68.6979 72.8367C68.9048 72.9294 69.0819 73.0855 69.302 73.1114C69.812 73.1598 69.2069 73.5949 69.4239 73.7242C69.484 73.7707 69.5209 73.8472 69.581 73.8937C69.7448 74.0298 69.8858 74.3693 70.1252 74.2085C70.5043 73.9541 70.5259 74.4606 70.7189 74.36C70.9917 74.2058 70.9523 74.4059 71.016 74.5223C71.1097 74.662 71.25 74.7415 71.3894 74.5611C71.5752 74.3206 71.8185 74.3165 72.0549 74.2591C72.3845 74.1681 72.2933 73.7518 72.566 73.5977C72.586 73.5843 72.6059 73.5709 72.6426 73.5608C73.0055 73.4763 73.2379 73.1756 73.427 72.9184C73.6394 72.6312 73.7788 72.4508 74.1292 72.6063C74.2861 72.6891 74.4391 72.6153 74.435 72.3721C74.438 72.2687 74.461 72.152 74.5774 72.0884C74.9035 71.9274 75.0656 71.5436 75.425 71.3892C75.8809 71.1845 75.946 70.6777 76.2382 70.3369C75.8869 69.9214 76.4325 69.6131 76.5413 69.2362C76.5905 68.9861 76.8602 68.9353 77.0199 68.8281C77.3058 68.6073 76.9417 68.3452 77.2478 68.1976C77.2478 68.1976 77.2609 68.1309 77.2809 68.1175C77.7171 68.0128 77.8923 67.5623 78.2783 67.3612C78.9736 66.9957 79.4814 66.351 80.0664 65.8426C80.3588 65.5884 80.581 65.2511 80.9637 65.0666C81.2499 64.9324 81.5226 64.7782 81.5281 64.3983C81.5344 64.2783 82.04 63.9968 82.1335 64.0498C82.2571 64.1261 82.4107 64.2256 82.3946 64.3956C82.365 64.5456 82.2248 64.4661 82.1349 64.4831C82.0616 64.5033 81.9384 64.5137 81.9119 64.5604C81.7528 64.8408 81.4866 64.9616 81.2772 65.1456C81.0678 65.3295 81.0853 65.5928 81.1627 65.8158C81.1862 65.8724 81.2764 65.9421 81.3297 65.9352C81.5962 65.9011 81.4819 65.6015 81.6749 65.5009C81.788 65.4539 81.8143 65.3205 81.8206 65.2005C81.8266 64.9939 81.9162 64.8903 82.1363 64.9163C82.203 64.9294 82.2863 64.9458 82.3426 64.8356C82.5017 64.5552 82.6742 64.2947 82.7966 64.0244C82.8628 63.8642 82.8557 63.7243 82.6621 63.6516C82.4153 63.5857 82.5643 63.2687 82.634 63.1785C82.8133 62.9713 82.8475 63.2378 82.9576 63.2941C83.021 63.3239 83.0811 63.3703 83.1612 63.4034C83.3113 63.4329 83.4384 63.5792 83.5841 63.2788C83.6436 63.152 83.7429 62.9117 83.9626 62.851C84.1124 62.7939 84.0389 62.7275 83.9987 62.6676C83.8883 62.5247 83.8746 62.4181 84.131 62.3473C84.3141 62.2967 84.5741 62.2959 84.6634 62.1057C84.8026 61.8386 85.0122 61.7413 85.262 61.7039C85.4386 61.6867 85.5247 61.5131 85.6477 61.4161C86.1164 61.058 86.3225 60.8907 86.6787 60.753C86.8284 60.6958 86.9449 60.6322 87.0077 60.4887C87.1335 60.2017 87.3428 60.0177 87.6492 59.9568C88.0089 59.889 88.0543 59.4823 88.3104 59.3248C88.3703 59.2847 88.4703 59.3043 88.557 59.3041C88.6269 59.3005 88.707 59.3336 88.78 59.2267C89.2113 58.6188 89.87 58.2635 90.4284 57.8019C90.9701 57.3369 90.9999 57.2735 90.7816 56.711C90.7345 56.5979 90.6711 56.5681 90.5976 56.5017C90.2969 56.2693 89.9564 56.0638 89.8252 55.6743C89.7746 55.4912 89.5713 55.4685 89.3911 55.4157C88.9642 55.2971 88.7999 54.9877 88.7816 54.4646C88.7915 54.4145 88.7912 54.3279 88.7745 54.3246C88.4044 54.2691 88.3596 53.7927 87.9996 53.7739C87.6897 53.7648 87.6492 53.6183 87.5784 53.362C87.4672 52.9591 87.2671 52.9197 86.7544 53.0613C86.6445 53.0916 86.4712 53.0922 86.4247 53.1523C86.2025 53.4896 85.7928 53.5475 85.5137 53.8217C85.4041 53.9387 85.2647 54.1191 85.0876 53.963L84.9447 54.0734L84.8649 54.127ZM77.8142 64.9666C78.0006 64.8993 77.9935 64.7594 78.053 64.6326C78.1359 64.4757 78.445 64.2248 78.5849 64.2177C78.9348 64.1999 78.6139 63.8943 78.7339 63.9006C79.1073 63.9394 79.0649 63.1864 79.4957 63.4616C79.6348 63.1946 79.8441 63.0106 80.1473 62.9664C80.2172 62.9628 80.2869 62.8726 80.3405 62.9524C80.3506 62.9891 80.2708 63.0426 80.2776 63.0959C80.2484 63.3326 79.9119 63.3703 79.8827 63.607C79.1638 63.9159 78.6926 64.5506 78.0976 65.0223C78.0145 65.0926 77.9281 65.1795 77.8013 65.1199C77.7579 65.0767 77.6876 64.9936 77.8174 64.9499L77.8142 64.9666ZM71.7152 71.1443C71.4785 71.115 71.2584 71.0891 71.0089 71.2132C71.0155 71.1798 70.9753 71.12 70.9952 71.1066C71.1513 70.9295 71.2773 70.7291 71.517 70.655C72.0697 70.4867 72.0697 70.4867 72.3383 70.0893C72.3881 70.0124 72.4045 69.9291 72.4676 69.8722C72.5772 69.7552 72.7065 69.5382 72.8768 69.641C73.1206 69.8102 72.7207 69.8181 72.7079 69.9714C72.6857 70.3481 72.3198 70.5359 72.1839 70.7862C72.0112 70.9601 71.9018 71.1637 71.7351 71.1309L71.7152 71.1443ZM71.3738 73.848C71.3738 73.848 71.1275 73.9554 71.001 73.9825C70.8911 74.0128 70.7875 73.9232 70.7539 73.83C70.6968 73.6802 70.8534 73.6764 70.9466 73.6428C71.2527 73.4952 71.5856 73.3875 71.7277 73.0171C71.7641 72.9204 71.9505 72.8531 72.0669 72.7894C72.1235 72.7659 72.22 72.7156 72.2965 72.6787L72.2009 72.989C72.1481 73.1691 71.9117 73.2265 71.8723 73.4266C71.6794 73.5271 71.4462 73.5679 71.3872 73.868L71.3738 73.848ZM73.072 69.1772C73.339 69.3163 73.474 68.806 73.6979 68.9886C73.8015 69.0782 73.6725 69.3819 73.4631 69.5658C73.2969 69.7063 73.157 69.7134 73.0331 69.5505C72.9528 69.4308 73.0252 69.1506 73.072 69.1772ZM70.3524 72.2616C70.3524 72.2616 70.3196 72.4284 70.2597 72.4686C70.0605 72.6891 69.9033 72.5197 69.7532 72.4902C69.6532 72.4705 69.7262 72.3636 69.7893 72.3067C69.9156 72.193 70.322 72.1518 70.369 72.2649L70.3524 72.2616ZM74.2855 68.2902C74.4391 68.3897 74.2729 68.5302 74.25 68.6469C74.227 68.7636 74.174 68.8571 74.0373 68.8475L73.8873 68.818C73.9567 68.6412 74.0461 68.4509 74.1122 68.2908C74.1956 68.3072 74.2688 68.2869 74.2989 68.3102L74.2855 68.2902ZM75.0355 70.464C75.0355 70.464 74.9831 70.7307 74.88 70.8144C74.8335 70.8745 74.6436 70.8718 74.6001 70.8286C74.5567 70.7854 74.6029 70.6386 74.6059 70.5353C74.7726 70.5681 74.9284 70.3044 75.0388 70.4473L75.0355 70.464ZM73.0706 71.9132C73.0903 71.8131 73.1668 71.7762 73.2403 71.8426C73.2704 71.8659 73.2939 71.9224 73.2841 71.9725C73.2644 72.0725 73.1914 72.1794 73.155 72.2761C73.1419 72.3428 73.0886 72.3497 73.0219 72.3365C73.0053 72.3333 72.9952 72.2966 72.9785 72.2933C72.8847 72.1537 73.031 72.0266 73.0706 71.9132ZM82.2776 63.2296C82.3246 63.3427 82.2983 63.4761 82.2054 63.5964C82.139 63.6699 82.0657 63.6901 82.0056 63.6437C81.8886 63.5341 81.9616 63.4272 82.1278 63.2867C82.1445 63.29 82.2776 63.2296 82.2776 63.2296ZM70.5803 71.6311C70.5803 71.6311 70.6033 71.5144 70.65 71.5409C70.7167 71.554 70.7736 71.6171 70.817 71.6603C70.9007 71.7634 70.8944 71.8834 70.8315 72.0269C70.8282 72.0435 70.7416 72.0438 70.6883 72.0506C70.6445 71.9208 70.6041 71.7743 70.5636 71.6278L70.5803 71.6311ZM76.4314 66.0973C76.5651 66.2102 76.4421 66.3072 76.3524 66.4108C76.2893 66.4677 76.1627 66.4947 76.166 66.4781C76.1922 66.3447 76.2652 66.2378 76.3081 66.1077C76.3415 66.1143 76.418 66.0774 76.4314 66.0973ZM74.2609 71.0563C74.1912 71.1465 74.1049 71.2334 73.9849 71.2271C73.998 71.1604 74.0144 71.0771 74.0775 71.0202C74.124 70.9601 74.2139 70.9431 74.2937 70.8895C74.2806 70.9562 74.2675 71.0229 74.2609 71.0563ZM72.5595 72.5746C72.5595 72.5746 72.5455 72.3814 72.6185 72.2745C72.6185 72.2745 72.7185 72.2942 72.7519 72.3007C72.8555 72.3904 72.7858 72.4806 72.6994 72.5675C72.6494 72.5577 72.5928 72.5812 72.5794 72.5612L72.5595 72.5746ZM77.1598 63.539C77.1598 63.539 77.2227 63.3955 77.2825 63.3553C77.3424 63.3151 77.4156 63.2949 77.4922 63.258C77.5225 63.3679 77.4227 63.4349 77.3596 63.4917C77.2932 63.5652 77.2 63.5988 77.1765 63.5423L77.1598 63.539Z" fill="white"/>
<path d="M79.7738 67.0665C79.7738 67.0665 79.821 67.2663 79.8011 67.2797C79.4717 67.4574 79.4999 67.9305 79.0437 68.0486C78.7873 68.1193 78.4848 68.3369 78.4025 68.6671C78.3763 68.8005 78.303 68.8207 78.1764 68.8478C77.9201 68.9186 77.8072 69.0522 77.5653 69.4895C77.5156 69.5663 77.4825 69.6464 77.3925 69.6634C77.1427 69.7008 77.0001 69.8979 76.8306 70.055C76.7442 70.142 76.651 70.1756 76.5441 70.1026C76.4406 70.013 76.4102 69.9031 76.4397 69.753C76.4463 69.7197 76.4496 69.703 76.4561 69.6697C76.8699 69.855 76.812 69.4453 76.9514 69.2649C77.1173 69.0377 77.4437 68.9634 77.5661 68.6931C77.8031 68.809 77.8394 68.7122 77.7755 68.5091C77.782 68.4758 77.8517 68.3856 77.8517 68.3856C78.3153 68.4941 78.3599 67.8274 78.7597 67.8195C78.933 67.819 78.9423 67.5957 78.962 67.4956C79.0443 67.1654 79.3643 67.2111 79.5371 67.0373C79.5603 67.0072 79.6704 67.0635 79.7538 67.0799L79.7738 67.0665Z" fill="white"/>
<path d="M80.0784 66.4856C80.1948 66.4219 80.2178 66.3052 80.2708 66.2117C80.3933 65.9414 80.5472 66.1275 80.6672 66.1338C80.8705 66.1565 80.8311 66.3566 80.7513 66.4101C80.5319 66.5575 80.5832 67.0005 80.1831 66.9218C80.0664 66.8988 79.88 66.9661 79.8428 66.8029C79.8056 66.6397 79.8217 66.4697 80.0817 66.4689L80.0784 66.4856Z" fill="white"/>
<path d="M132.32 30.8696C132.121 31.1768 131.277 31.0628 131.035 31.2402C130.419 31.6387 129.626 31.7078 129.013 31.7431C127.661 31.8407 126.43 32.4644 125.191 32.6883C124.851 32.7427 124.825 32.876 124.648 32.9799C124.123 33.2748 123.594 33.5864 122.971 33.7583C122.515 33.8764 122.148 33.8909 121.786 34.2353C121.467 34.5362 120.871 34.4881 120.422 34.7461C120.185 34.8902 120.132 34.9837 120.149 35.0736C120.17 35.1468 120.193 35.2034 120.003 35.2873C119.967 35.2974 119.853 35.2578 119.843 35.2212C119.776 35.0348 119.446 35.0392 119.13 35.2368C117.933 36.0403 116.451 36.2683 115.17 36.9688C114.628 37.2605 113.878 37.4595 113.266 37.8413C112.571 38.2934 111.756 38.4792 111.043 38.7548C110.218 39.0773 109.663 39.5223 108.951 39.8844C107.819 40.4412 106.648 40.9381 105.61 41.6345C105.391 41.7818 105.324 41.7687 105.244 41.7357C104.984 41.6498 104.575 41.8811 104.369 42.0483C103.873 42.4531 103.351 42.6447 102.775 42.9298C101.99 43.3122 101.171 43.688 100.413 44.1103C99.5843 44.5362 98.8026 44.9885 97.964 45.3777C97.0689 45.7904 96.1809 46.3431 95.3027 46.8458C94.4045 47.3618 93.4736 48.0446 92.5992 48.7038C92.1537 49.0318 91.6688 49.5599 91.2129 49.7646C90.6072 50.0265 90.2983 50.364 89.8564 50.762C89.4609 51.0998 89.1455 51.4707 88.73 51.8219C87.6963 52.675 87.6534 52.8051 88.0778 53.2003C88.1514 53.2667 88.3446 53.2528 88.3616 53.3427C88.4157 53.5958 88.9254 53.5576 88.8596 53.8044C88.7677 54.2712 89.0678 54.3303 89.4081 54.4492C89.6517 54.5317 89.8088 54.7012 90.1587 54.6834C90.9316 54.6276 89.641 55.3782 89.8914 55.514C89.9548 55.5438 89.9518 55.6471 90.0086 55.7103C90.1723 55.8464 90.1538 56.293 90.6228 56.0216C91.4045 55.5692 91.0568 56.2802 91.4228 56.0924C91.9818 55.804 91.7295 56.1181 91.7565 56.2446C91.7904 56.4245 91.9473 56.5073 92.3196 56.1995C92.7949 55.8081 93.168 55.7603 93.5774 55.6157C94.1533 55.4173 94.3149 54.8602 94.8372 54.582C94.8771 54.5552 94.9337 54.5317 94.9736 54.5049C95.5995 54.3163 96.1645 53.8213 96.6431 53.4132C97.1815 52.965 97.5439 52.7072 97.9444 52.8726C98.1212 52.942 98.4208 52.8278 98.5897 52.4973C98.6692 52.3571 98.7887 52.1901 99.0317 52.0994C99.674 51.8274 100.209 51.3092 100.885 51.0438C101.767 50.6977 102.278 50.0363 102.979 49.5509C102.764 49.0583 103.879 48.5849 104.321 48.1003C104.61 47.7762 105.08 47.678 105.402 47.5337C106.031 47.2418 105.677 46.9297 106.29 46.7211C106.326 46.711 106.376 46.6342 106.396 46.6208C107.172 46.4617 107.843 45.8664 108.625 45.5874C110.057 45.0896 111.397 44.2623 112.788 43.618C113.477 43.2859 114.145 42.8806 114.918 42.6516C115.487 42.4865 116.073 42.3247 116.408 41.8537C116.525 41.7034 117.59 41.3934 117.683 41.4465C117.82 41.5427 117.971 41.6588 117.791 41.866C117.615 42.0565 117.465 41.9404 117.285 41.9743C117.142 41.998 116.932 42.0087 116.852 42.0623C116.37 42.4004 115.824 42.5354 115.295 42.7603C114.802 42.9752 114.58 43.3125 114.528 43.5792C114.514 43.6459 114.601 43.7323 114.708 43.7186C115.164 43.6872 115.257 43.307 115.663 43.1791C115.882 43.1184 116.052 42.9612 116.148 42.8243C116.334 42.5838 116.567 42.4564 116.89 42.4854C116.99 42.5051 117.107 42.528 117.29 42.3908C117.769 42.0694 118.298 41.7578 118.76 41.4331C119.002 41.2557 119.142 41.0753 118.845 40.9996C118.501 40.8973 119.02 40.5491 119.23 40.4518C119.712 40.2004 119.523 40.5442 119.65 40.6038C119.73 40.6369 119.787 40.7 119.884 40.7364C120.081 40.7924 120.188 40.952 120.69 40.6005C120.909 40.4532 121.272 40.1954 121.685 40.1208C121.971 40.0733 121.921 39.9768 121.914 39.9235C121.88 39.7436 121.92 39.6302 122.433 39.5753C122.769 39.5375 123.179 39.5662 123.515 39.3552C123.988 39.0672 124.404 38.9759 124.854 38.9778C125.167 38.9701 125.46 38.8026 125.736 38.7184C126.822 38.395 127.301 38.2469 128.004 38.1947C128.284 38.1805 128.54 38.1097 128.773 37.9823C129.242 37.7109 129.735 37.5827 130.285 37.6043C130.915 37.659 131.357 37.261 131.92 37.2159C132.06 37.2088 132.187 37.2684 132.303 37.2913C132.42 37.3143 132.497 37.3641 132.697 37.3168C133.895 36.9464 135.239 37.0721 135.866 37.2301C136.126 37.3159 136.032 37.2629 136.099 37.1894C136.189 37.1724 136.312 37.0754 136.564 36.9347C136.661 36.8844 136.707 36.8242 136.76 36.7308C136.993 36.4301 137.078 35.9966 137.484 35.8687C137.664 35.8348 137.636 35.535 137.562 35.2952C137.387 34.7759 137.546 34.4088 138.45 34.5693C138.533 34.5857 138.677 34.6486 138.65 34.6086C138.338 33.9065 139.182 34.1071 138.626 33.409C138.084 32.8175 138.264 32.7836 138.687 32.7457C139.391 32.7801 139.029 32.1547 137.524 31.443C137.22 31.314 136.826 31.1153 136.603 31.106C135.516 31.0827 134.609 30.8523 133.726 30.9384C133.373 30.9729 132.837 31.0579 132.723 30.845L132.316 30.8862L132.32 30.8696ZM109.999 42.5671C110.345 42.4794 110.468 42.2957 110.671 42.1451C110.933 41.9543 111.655 41.6288 111.902 41.608C112.482 41.5662 112.241 41.207 112.414 41.2065C112.961 41.2448 113.571 40.343 114.045 40.6615C114.507 40.3368 115 40.1219 115.53 40.0703C115.653 40.0599 115.849 39.9426 115.843 40.0626C115.836 40.096 115.647 40.1799 115.6 40.24C115.351 40.5374 114.775 40.5625 114.526 40.8599C113.084 41.2344 111.767 42.0317 110.416 42.6491C110.206 42.7464 109.993 42.8604 109.853 42.7808C109.829 42.7243 109.779 42.6278 110.016 42.5704L109.999 42.5671ZM95.3002 51.348C94.9504 51.3658 94.6371 51.3734 94.1714 51.6281C94.1812 51.5781 94.1943 51.5114 94.2176 51.4814C94.5833 51.207 94.9255 50.876 95.3549 50.718C96.3569 50.3782 96.3402 50.3749 97.0582 49.8062C97.1845 49.6925 97.2941 49.5755 97.4338 49.4817C97.7098 49.3109 98.0687 48.9832 98.2357 49.1026C98.4929 49.2918 97.8533 49.3738 97.7107 49.5708C97.4056 50.065 96.6636 50.4039 96.2615 50.7751C95.8657 51.0263 95.5301 51.3239 95.3002 51.348ZM92.8263 55.2082C92.8263 55.2082 92.3672 55.4296 92.1474 55.4902C91.9443 55.5542 91.8774 55.4544 91.8836 55.3344C91.923 55.1344 92.1529 55.1103 92.3259 55.0231C92.9015 54.7381 93.4807 54.5229 93.9921 53.9481C94.1249 53.8011 94.4444 53.6734 94.6773 53.5461C94.8104 53.4857 94.9468 53.4086 95.0999 53.3348L94.7347 53.7825C94.5256 54.0531 94.1028 54.1777 93.9071 54.4683C93.5378 54.6727 93.1382 54.7673 92.8463 55.1948L92.8263 55.2082ZM98.9535 48.4472C99.2539 48.5929 99.8749 47.9011 100.095 48.1003C100.196 48.2066 99.7538 48.6046 99.2648 48.8894C98.8756 49.1073 98.6823 49.1212 98.5951 48.9482C98.5747 48.7883 98.8901 48.4174 98.9535 48.4472ZM92.4002 53.2367C92.4002 53.2367 92.2176 53.4605 92.0946 53.5576C91.6426 53.9189 91.5086 53.7194 91.2853 53.7101C91.1519 53.6838 91.3348 53.5466 91.4745 53.4529C91.7538 53.2654 92.4098 53.1 92.3969 53.2533L92.4002 53.2367ZM101.592 47.0958C101.742 47.212 101.376 47.3998 101.24 47.5635C101.104 47.7272 100.958 47.8543 100.751 47.8483C100.684 47.8352 100.618 47.8221 100.531 47.8224C100.787 47.5783 101.059 47.3375 101.315 47.0934C101.455 47.0863 101.565 47.0559 101.595 47.0792L101.592 47.0958ZM101.031 49.8603C101.031 49.8603 100.719 50.2145 100.502 50.3451C100.383 50.4255 100.08 50.4698 100.039 50.4099C99.9959 50.3667 100.192 50.1628 100.288 50.0259C100.528 50.0385 100.983 49.6605 101.031 49.8603ZM96.8489 52.1029C96.965 51.9526 97.0949 51.9089 97.1517 51.972C97.1818 51.9952 97.1821 52.0819 97.1189 52.1387C96.9861 52.2858 96.8199 52.4263 96.6838 52.59C96.5974 52.6769 96.5209 52.7138 96.4375 52.6974C96.4042 52.6908 96.4107 52.6575 96.3973 52.6375C96.3634 52.4577 96.6928 52.28 96.8322 52.0996L96.8489 52.1029ZM118.73 40.4401C118.7 40.5901 118.534 40.7306 118.285 40.8547C118.128 40.9452 117.968 40.9657 117.928 40.9058C117.851 40.7694 118.051 40.6355 118.444 40.4876C118.494 40.4975 118.75 40.4267 118.747 40.4434L118.73 40.4401ZM93.2238 52.3076C93.2434 52.2076 93.3265 52.1374 93.4066 52.1704C93.49 52.1868 93.5501 52.2333 93.5903 52.2932C93.654 52.4096 93.5312 52.5933 93.3519 52.8004C93.3287 52.8305 93.2221 52.8442 93.1122 52.8745C93.1483 52.6911 93.1844 52.5077 93.2205 52.3243L93.2238 52.3076ZM106.828 44.0734C106.938 44.2164 106.669 44.3538 106.419 44.4779C106.266 44.5517 106.033 44.5925 106.073 44.5657C106.226 44.4052 106.432 44.2379 106.618 44.0841C106.688 44.0805 106.818 44.0368 106.831 44.0567L106.828 44.0734ZM99.3673 50.7453C99.1877 50.8658 98.9882 50.9998 98.7917 51.0304C98.898 50.9301 98.9909 50.8098 99.1106 50.7294C99.2304 50.6491 99.3968 50.5952 99.5499 50.5214C99.4802 50.6116 99.4304 50.6884 99.3673 50.7453ZM95.5858 53.1533C95.5755 53.03 95.7083 52.883 95.8611 52.7225C95.8611 52.7225 96.001 52.7154 96.0278 52.7553C96.1147 52.8417 95.9453 52.9989 95.7791 53.1394C95.7091 53.1429 95.596 53.1899 95.5826 53.17L95.5858 53.1533ZM110.17 40.817C110.17 40.817 110.379 40.6331 110.512 40.5726C110.646 40.5122 110.789 40.4885 110.935 40.448C110.872 40.5915 110.683 40.6754 110.513 40.7459C110.34 40.8331 110.174 40.887 110.17 40.817Z" fill="white"/>
<path d="M111.353 45.1024C111.3 45.1958 111.251 45.3593 111.214 45.3694C110.528 45.5982 110.184 46.2058 109.354 46.3717C108.885 46.4698 108.236 46.7751 107.807 47.193C107.635 47.3669 107.511 47.3773 107.292 47.4379C106.819 47.5527 106.543 47.7236 105.801 48.3224C105.659 48.4328 105.552 48.5331 105.409 48.5569C104.996 48.6315 104.597 48.8994 104.191 49.114C103.978 49.2279 103.792 49.2952 103.705 49.2088C103.604 49.1025 103.651 48.9557 103.793 48.7586C103.837 48.7152 103.86 48.6851 103.9 48.6583C104.417 48.8467 104.655 48.3394 105.018 48.0816C105.46 47.7703 106.039 47.6418 106.455 47.2906C106.742 47.4163 106.868 47.3026 106.94 47.0225C106.947 46.9891 107.15 46.8385 107.166 46.8418C107.8 46.9664 108.437 46.1046 109.104 46.0626C109.4 46.0516 109.576 45.7745 109.705 45.6441C110.114 45.2396 110.594 45.2647 111.02 45.0368C111.08 44.9966 111.22 45.0761 111.337 45.0991L111.353 45.1024Z" fill="white"/>
<path d="M112.331 44.3595C112.574 44.2688 112.72 44.1417 112.883 44.0178C113.315 43.6699 113.389 43.9096 113.592 43.9323C113.919 43.9446 113.66 44.2053 113.473 44.2726C113.001 44.474 112.689 45.0015 112.116 44.9234C111.932 44.8873 111.603 44.9783 111.692 44.7881C111.782 44.5978 111.928 44.3841 112.347 44.3628L112.331 44.3595Z" fill="white"/>
<path d="M126.389 49.3069C126.434 49.6967 125.629 50.1791 125.517 50.486C125.232 51.2268 124.474 51.8223 123.906 52.2474C122.646 53.1944 121.7 54.4804 120.463 55.3974C120.121 55.6418 120.161 55.7883 120.002 55.9821C119.547 56.5334 119.099 57.138 118.484 57.6231C118.032 57.9845 117.616 58.1624 117.358 58.6831C117.113 59.1371 116.42 59.3992 116.002 59.8538C115.779 60.1044 115.74 60.2178 115.79 60.3143C115.83 60.3742 115.87 60.434 115.681 60.6046C115.641 60.6314 115.518 60.6418 115.491 60.6019C115.364 60.4556 114.988 60.6068 114.696 60.9476C113.55 62.2809 111.91 63.1359 110.571 64.3098C110.006 64.8048 109.154 65.2607 108.499 65.8593C107.742 66.5415 106.823 66.9843 106.018 67.4667C105.08 68.0095 104.459 68.6147 103.611 69.1406C102.287 69.9712 100.897 70.7021 99.633 71.5792C99.3736 71.7533 99.2869 71.7536 99.1836 71.7506C98.8835 71.6915 98.388 72.0097 98.1253 72.2004C97.4936 72.6823 96.868 72.9576 96.1426 73.2998C95.1477 73.7795 94.1361 74.2559 93.1778 74.7254C92.143 75.2319 91.1281 75.725 90.0731 76.1582C88.9314 76.5917 87.7936 77.1818 86.642 77.6653C85.4673 78.1789 84.2297 78.836 83.0085 79.4097C82.3962 79.7049 81.6612 80.1838 81.0785 80.3289C80.2927 80.538 79.8204 80.8261 79.1816 81.168C78.6194 81.4731 78.1238 81.7912 77.5116 82.0864C76.0242 82.7809 75.9312 82.9012 76.2494 83.3967C76.303 83.4765 76.523 83.5025 76.5033 83.6025C76.4675 83.8726 77.0475 83.9174 76.895 84.1645C76.5965 84.6253 76.9168 84.7576 77.2473 84.9265C77.4977 85.0624 77.5982 85.2553 78.0249 85.2873C78.9482 85.3477 77.1205 85.9233 77.3577 86.1259C77.4178 86.1723 77.3615 86.2825 77.4184 86.3456C77.5556 86.5285 77.3104 86.9825 78.0096 86.7737C79.1516 86.4268 78.4106 87.1123 78.9433 86.9573C79.7324 86.7316 79.3101 87.0295 79.2839 87.1629C79.2445 87.363 79.3981 87.4624 79.9904 87.1806C80.7325 86.8417 81.2056 86.8136 81.7818 86.7018C82.5744 86.546 82.9992 85.9714 83.7382 85.7358C83.8115 85.7156 83.888 85.6787 83.9413 85.6719C84.784 85.5259 85.6756 85.0432 86.4308 84.6376C87.2426 84.2085 87.7881 83.9002 88.2353 84.0921C88.4455 84.168 88.8483 84.0568 89.1605 83.7026C89.2933 83.5555 89.5027 83.3716 89.8189 83.2606C90.7111 82.9512 91.5157 82.3821 92.4245 82.076C93.613 81.669 94.4004 80.9234 95.3983 80.3404C95.2034 79.8345 96.7111 79.2132 97.3425 78.6447C97.7612 78.2768 98.3672 78.1016 98.7865 77.907C99.6283 77.5011 99.2175 77.2124 100.006 76.9C100.043 76.8899 100.133 76.7863 100.153 76.7729C101.161 76.4865 102.042 75.7072 103.047 75.2642C104.857 74.4253 106.6 73.2268 108.329 72.0949C109.2 71.539 109.991 70.8633 110.94 70.3571C111.622 69.9717 112.327 69.5563 112.708 68.9386C112.834 68.7382 114.081 67.9445 114.211 67.9874C114.395 68.0235 114.588 68.0962 114.393 68.3867C114.2 68.6606 113.987 68.6013 113.79 68.7185C113.617 68.8057 113.358 68.8932 113.268 68.9968C112.71 69.5451 112.048 69.9171 111.426 70.3489C110.841 70.7707 110.566 71.2014 110.523 71.5048C110.507 71.5882 110.617 71.6445 110.747 71.6008C111.306 71.399 111.408 70.9688 111.9 70.6674C112.173 70.5132 112.376 70.276 112.482 70.089C112.687 69.7484 112.97 69.5443 113.373 69.433C113.499 69.406 113.643 69.3822 113.858 69.1649C114.417 68.6166 115.028 68.0615 115.516 67.5167C115.799 67.2259 115.918 66.9723 115.565 67.0067C115.138 67.0614 115.709 66.4464 115.939 66.249C116.484 65.7674 116.312 66.2012 116.482 66.2173C116.582 66.237 116.665 66.2534 116.772 66.2397C117.022 66.2023 117.172 66.3185 117.727 65.7002C117.969 65.4362 118.354 64.9751 118.826 64.687C119.162 64.476 119.089 64.4096 119.065 64.353C118.995 64.1832 119.004 64.0466 119.59 63.7115C119.999 63.4802 120.468 63.2955 120.827 62.8811C121.302 62.3164 121.781 61.995 122.303 61.7167C122.669 61.529 122.948 61.1682 123.26 60.9006C124.427 59.9005 124.922 59.409 125.723 58.8567C126.046 58.6257 126.318 58.3849 126.53 58.0976C126.978 57.493 127.477 56.9849 128.109 56.5897C128.86 56.1141 129.175 55.3966 129.769 54.8382C129.916 54.7111 130.085 54.6406 130.242 54.5501C130.398 54.4597 130.508 54.4293 130.694 54.1888C131.859 52.6688 133.301 51.3246 134.552 49.8044C135.781 48.3142 135.85 48.1373 135.694 47.4313C135.667 47.3048 135.541 47.3319 135.424 47.3089C134.961 47.287 134.448 47.342 134.36 46.8224C134.319 46.5892 133.986 46.7836 133.683 46.9145C132.981 47.2266 132.807 46.8806 132.977 46.0136C132.994 45.9302 133.023 45.7802 133.02 45.7969C132.381 46.1388 132.499 45.3653 131.867 45.7605C131.335 46.0888 131.324 45.8789 131.283 45.5591C131.215 45.0261 130.922 45.1936 129.995 45.9464C129.788 46.1136 129.492 46.2979 129.393 46.4515C128.892 47.2362 128.134 47.7451 127.563 48.4468C127.317 48.7275 126.972 49.1618 126.745 49.0825L126.44 49.4034L126.389 49.3069ZM104.889 71.7126C105.305 71.5346 105.471 71.3075 105.717 71.1134C106.046 70.8491 106.897 70.3066 107.193 70.209C107.893 70.0002 107.592 69.6812 107.788 69.6506C108.454 69.5218 109.117 68.3534 109.701 68.5548C110.216 68.05 110.781 67.6416 111.42 67.3863C111.553 67.3259 111.799 67.1319 111.79 67.2685C111.783 67.3019 111.577 67.4692 111.527 67.546C111.259 67.9434 110.57 68.1888 110.301 68.5863C108.601 69.4814 107.058 70.7193 105.372 71.721C105.116 71.8785 104.856 72.0526 104.696 71.9864C104.673 71.9299 104.619 71.85 104.902 71.7325L104.889 71.7126ZM85.4572 82.3679C85.0272 82.3526 84.6473 82.3471 84.0014 82.5491C84.0446 82.5057 84.061 82.4223 84.1176 82.3988C84.6533 82.1405 85.1822 81.8289 85.725 81.7106C87.0171 81.3932 87.0305 81.4132 88.0516 80.8001C88.2279 80.6963 88.3941 80.5558 88.587 80.4552C88.953 80.2674 89.4852 79.9391 89.6689 80.0619C89.9261 80.251 89.1299 80.3368 88.9139 80.5541C88.4124 81.0789 87.4238 81.4386 86.8151 81.8038C86.2627 82.0588 85.7671 82.3769 85.4739 82.3712L85.4572 82.3679ZM81.0402 86.1576C80.9405 86.2245 80.3843 86.323 80.0811 86.3672C79.8146 86.4014 79.7644 86.3049 79.8439 86.1647C79.9699 85.9643 80.2665 85.9534 80.5029 85.896C81.3086 85.6735 82.1046 85.5011 82.9393 84.9552C83.1388 84.8213 83.5917 84.7199 83.9113 84.5922C84.0944 84.5417 84.3007 84.461 84.5005 84.4138L83.8954 84.8489C83.533 85.1066 82.9735 85.2217 82.6244 85.4994C82.0884 85.6711 81.5721 85.7427 81.0236 86.1543L81.0402 86.1576ZM90.6597 79.3389C91.0101 79.4944 91.9041 78.7351 92.1247 78.9344C92.225 79.0407 91.5999 79.4892 90.9311 79.8079C90.4153 80.0528 90.1521 80.0703 90.1015 79.8872C90.1343 79.7205 90.5796 79.3058 90.6597 79.3389ZM81.2802 84.0573C81.2802 84.0573 80.9776 84.2749 80.8046 84.3621C80.1191 84.6775 80.0418 84.4545 79.7884 84.422C79.6384 84.3925 79.9245 84.2582 80.1142 84.1743C80.5103 84.0098 81.3598 83.9171 81.2936 84.0773L81.2802 84.0573ZM94.1506 77.7916C94.3176 77.9111 93.8385 78.1458 93.6324 78.3131C93.423 78.4971 93.2401 78.6343 92.9769 78.6518C92.8903 78.652 92.8036 78.6523 92.7203 78.6359C93.086 78.3615 93.4684 78.0904 93.8174 77.8127C93.9773 77.7922 94.1238 77.7517 94.1539 77.7749L94.1506 77.7916ZM92.907 80.7681C92.907 80.7681 92.4483 81.1628 92.1422 81.3104C91.9692 81.3976 91.5928 81.4621 91.5526 81.4023C91.5092 81.3591 91.7951 81.1382 91.9479 80.9778C92.2411 80.9835 92.8963 80.5582 92.907 80.7681ZM87.1062 83.2292C87.2923 83.0753 87.4588 83.0214 87.529 83.1045C87.5558 83.1444 87.5227 83.2245 87.4429 83.2781C87.2401 83.4287 86.984 83.5861 86.7612 83.7501C86.6415 83.8305 86.5284 83.8775 86.4283 83.8578C86.395 83.8513 86.4015 83.8179 86.4048 83.8012C86.4075 83.6113 86.8768 83.4265 87.1196 83.2491L87.1062 83.2292ZM115.333 66.4242C115.3 66.591 115.151 66.8214 114.858 67.0756C114.689 67.2327 114.496 67.3333 114.436 67.2869C114.315 67.1939 114.555 66.9466 114.983 66.6153C115.04 66.5918 115.333 66.4242 115.333 66.4242ZM82.5971 83.1734C82.6501 83.0799 82.7865 83.0029 82.8666 83.0359C82.95 83.0523 83.0235 83.1187 83.0437 83.192C83.0874 83.3218 82.8781 83.5058 82.5821 83.69C82.5422 83.7168 82.4022 83.7239 82.2623 83.731C82.3683 83.544 82.4744 83.3571 82.5971 83.1734ZM100.95 73.9511C101.064 74.0774 100.731 74.2717 100.418 74.4527C100.242 74.5565 99.9459 74.6541 99.9891 74.6106C100.182 74.4234 100.468 74.2026 100.697 74.0052C100.787 73.9883 100.937 73.9312 100.95 73.9511ZM90.6107 81.7885C90.3579 81.9292 90.0717 82.0634 89.8219 82.1009C89.9816 81.9937 90.1278 81.8666 90.2841 81.7762C90.4571 81.689 90.6602 81.625 90.8865 81.531C90.7603 81.6447 90.6938 81.7182 90.5941 81.7852L90.6107 81.7885ZM85.1899 84.255C85.2128 84.1382 85.4356 83.9743 85.6717 83.8302C85.6884 83.8335 85.845 83.8297 85.8718 83.8696C85.9555 83.9726 85.7026 84.1134 85.4165 84.2476C85.3298 84.2479 85.1666 84.285 85.1699 84.2684L85.1899 84.255ZM105.089 69.8124C105.089 69.8124 105.342 69.585 105.502 69.4778C105.661 69.3707 105.828 69.3169 106.001 69.2297C105.934 69.3898 105.698 69.5339 105.502 69.6511C105.299 69.8017 105.096 69.8657 105.089 69.8124Z" fill="white"/>
<path d="M106.522 74.0603C106.463 74.1871 106.393 74.364 106.337 74.3875C105.472 74.8234 104.967 75.5382 103.922 75.9214C103.326 76.1332 102.461 76.5692 101.89 77.0975C101.657 77.3115 101.491 77.3654 101.214 77.4496C100.605 77.6414 100.246 77.8825 99.1986 78.629C99.0158 78.7662 98.8529 78.89 98.6531 78.9373C98.107 79.0723 97.5715 79.4172 97.0325 79.6922C96.7464 79.8264 96.5001 79.9338 96.3965 79.8442C96.2929 79.7545 96.379 79.581 96.6116 79.367C96.6715 79.3268 96.7147 79.2833 96.7745 79.2431C97.3848 79.3978 97.7795 78.8001 98.2551 78.4953C98.8704 78.0968 99.6029 77.8945 100.178 77.4362C100.525 77.5217 100.691 77.3812 100.82 77.0776C100.83 77.0276 101.106 76.8567 101.123 76.86C101.916 76.8775 102.796 75.8383 103.628 75.6557C104.008 75.5745 104.25 75.2239 104.419 75.0667C104.958 74.5318 105.577 74.4632 106.116 74.1016C106.196 74.048 106.363 74.0808 106.502 74.0737L106.522 74.0603Z" fill="white"/>
<path d="M107.769 73.0066C108.078 72.8423 108.254 72.6518 108.464 72.4679C109.012 71.9696 109.089 72.1926 109.359 72.1418C109.772 72.0672 109.443 72.4181 109.21 72.5455C108.605 72.894 108.227 73.5817 107.484 73.6607C107.254 73.6847 106.838 73.8627 106.954 73.6257C107.07 73.3887 107.276 73.1348 107.789 72.9932L107.769 73.0066Z" fill="white"/>
<path d="M135.275 36.8887C135.455 36.8548 135.308 36.8952 135.408 36.9149C135.711 36.9573 135.625 36.9575 135.508 37.0212C135.285 37.0986 135.566 37.2577 135.353 37.3716C135.296 37.3951 135.426 37.4381 135.456 37.4613C135.56 37.5509 135.657 37.6739 135.587 37.7641C135.541 37.8243 135.401 37.8314 135.585 37.9541C135.752 38.0735 135.475 38.0711 135.525 38.1676C135.549 38.2241 135.609 38.2706 135.706 38.307C135.772 38.3201 135.833 38.3665 135.826 38.3999C135.826 38.3999 135.743 38.3835 135.709 38.3769C135.532 38.3075 135.393 38.3146 135.446 38.3944C135.657 38.7303 135.204 38.8317 135.235 39.1149C135.245 39.2382 135.042 39.3021 135.08 39.4653C135.11 39.6618 134.91 39.7091 134.787 39.8061C134.644 39.9166 134.725 40.1229 134.665 40.2498C134.556 40.4534 134.35 40.6207 134.348 40.8973C134.338 40.9473 134.304 40.9407 134.241 40.9109C134.064 40.8415 134.031 40.9216 134.035 40.9916C134.072 41.1547 133.955 41.2184 133.852 41.3021C133.709 41.4125 133.566 41.5229 133.454 41.6566C133.341 41.7902 133.211 41.9206 133.035 42.0245C132.842 42.125 132.722 42.292 132.576 42.4191C132.41 42.5596 132.334 42.7698 132.211 42.9535C132.142 43.0437 132.189 43.2435 132.049 43.2506C131.856 43.2645 131.883 43.3911 131.857 43.5245C131.834 43.6412 131.857 43.7844 131.821 43.8812C131.718 44.1381 131.772 44.2179 132.226 44.5497C132.303 44.5995 132.4 44.6358 132.473 44.7022C132.647 44.875 132.907 44.9608 133.018 45.1038C133.229 45.353 133.429 45.479 133.696 45.6182C133.883 45.7242 134.063 45.8636 134.24 45.933C134.647 46.065 134.334 46.246 134.551 46.3753C134.612 46.4217 134.672 46.4682 134.732 46.5147C134.916 46.6374 135.14 46.9066 135.256 46.8429C135.449 46.7423 135.64 47.0916 135.75 47.0613C135.916 47.0075 135.944 47.134 136.03 47.2204C136.147 47.33 136.284 47.4262 136.341 47.3161C136.4 47.1892 136.584 47.2253 136.74 47.2215C136.967 47.2141 136.749 46.9115 136.899 46.8544C136.899 46.8544 136.919 46.841 136.936 46.8443C137.192 46.8601 137.248 46.6633 137.295 46.5166C137.361 46.3564 137.384 46.2397 137.714 46.4086C137.854 46.4881 137.948 46.4545 137.857 46.2982C137.82 46.2217 137.783 46.1451 137.857 46.1249C138.043 46.0577 138.022 45.8111 138.225 45.7472C138.485 45.6597 138.344 45.3202 138.417 45.1267C137.976 44.8148 138.268 44.6473 138.174 44.421C138.117 44.2712 138.294 44.254 138.357 44.1971C138.483 44.0834 138.093 43.868 138.262 43.7975L138.256 43.7442C138.539 43.7133 138.458 43.4203 138.671 43.3064C139.037 43.1186 139.102 42.6985 139.288 42.3713C139.387 42.2177 139.38 41.9911 139.576 41.8739C139.716 41.7801 139.855 41.6864 139.661 41.4404C139.604 41.3772 139.837 41.1632 139.934 41.1996C140.067 41.2258 140.244 41.2952 140.311 41.395C140.378 41.4948 140.215 41.4453 140.158 41.4688C140.118 41.4956 140.015 41.4926 140.025 41.5292C140.059 41.709 139.902 41.7995 139.843 41.9263C139.787 42.0365 139.924 42.2193 140.104 42.3587C140.148 42.4019 140.244 42.4383 140.298 42.4314C140.494 42.4008 140.254 42.215 140.357 42.1313C140.417 42.0911 140.38 42.0146 140.326 41.9348C140.229 41.8118 140.242 41.7451 140.415 41.7446C140.465 41.7544 140.549 41.7708 140.532 41.6809C140.498 41.501 140.501 41.3111 140.45 41.1279C140.417 41.0347 140.333 40.9317 140.146 40.9123C139.913 40.8664 139.862 40.6832 139.872 40.6332C139.898 40.4998 140.072 40.6726 140.172 40.6923C140.239 40.7054 140.322 40.7218 140.389 40.7349C140.522 40.7611 140.706 40.7972 140.638 40.6108C140.605 40.5176 140.548 40.3678 140.667 40.2875C140.747 40.2339 140.65 40.1975 140.604 40.171C140.444 40.1049 140.37 40.0385 140.523 39.9647C140.636 39.9177 140.819 39.8671 140.776 39.7373C140.708 39.5509 140.811 39.4672 140.984 39.38C141.098 39.333 141.054 39.2032 141.084 39.1398C141.199 38.8162 141.232 38.6494 141.408 38.4589C141.475 38.3854 141.511 38.2886 141.461 38.1922C141.363 37.9825 141.363 37.8092 141.536 37.6354C141.745 37.4514 141.451 37.1858 141.51 36.9723C141.52 36.9223 141.6 36.8687 141.643 36.8252C141.686 36.7818 141.746 36.7416 141.709 36.6651C141.595 36.3655 141.534 36.0591 141.506 35.7593C141.449 35.4362 141.364 35.0732 141.233 34.7704C140.968 34.268 140.888 34.2349 140.339 34.3866C140.229 34.417 140.183 34.4771 140.103 34.5307C139.814 34.7682 139.524 35.0057 139.138 35.1202C138.972 35.1741 138.876 35.311 138.766 35.428C138.507 35.6888 138.174 35.7965 137.758 35.8877C137.724 35.8812 137.651 35.9014 137.648 35.9181C137.435 36.1187 137.049 36.2332 136.863 36.3871C136.7 36.5109 136.57 36.5547 136.344 36.6487C135.984 36.8031 135.865 36.8835 135.675 36.9674C135.622 36.9742 135.515 36.9879 135.535 36.9745C135.578 36.931 135.548 36.9078 135.531 36.9045L135.498 36.898L136.021 36.793L135.971 36.7832C135.971 36.7832 135.858 36.8302 135.768 36.8471C135.661 36.8608 135.518 36.8846 135.485 36.878L135.368 36.855L135.275 36.8887ZM137.143 41.7416C137.253 41.7112 137.166 41.6249 137.162 41.5549C137.145 41.465 137.242 41.328 137.348 41.3144C137.591 41.3103 137.198 41.1116 137.298 41.1312C137.584 41.1703 137.173 40.7084 137.64 40.8869C137.603 40.7237 137.656 40.6302 137.852 40.5996C137.886 40.6062 137.899 40.5395 137.992 40.5925C138.026 40.5991 137.983 40.6425 138.026 40.6857C138.136 40.8287 137.89 40.8494 138 40.9924C137.638 41.1635 137.599 41.5368 137.406 41.8107C137.38 41.8575 137.353 41.9042 137.227 41.8446C137.18 41.8181 137.086 41.7651 137.16 41.7448L137.143 41.7416ZM135.311 45.0699C135.114 45.0138 134.954 44.9477 134.82 45.0081C134.807 44.9881 134.764 44.9449 134.767 44.9283C134.82 44.8348 134.843 44.7181 134.983 44.711C135.333 44.6932 135.333 44.6932 135.359 44.4732C135.365 44.4398 135.345 44.3666 135.365 44.3532C135.411 44.2931 135.401 44.1698 135.575 44.2559C135.822 44.4084 135.522 44.3494 135.588 44.4491C135.729 44.702 135.526 44.7659 135.517 44.9026C135.447 44.9928 135.444 45.0961 135.311 45.0699ZM136.053 46.8437C136.053 46.8437 135.906 46.8842 135.823 46.8678C135.739 46.8514 135.649 46.7817 135.592 46.7186C135.495 46.5956 135.609 46.6352 135.662 46.6284C135.845 46.5778 136.055 46.5671 136.031 46.3373C136.024 46.284 136.131 46.2703 136.207 46.2334C136.244 46.2233 136.284 46.1965 136.337 46.1897L136.384 46.3895C136.415 46.4994 136.241 46.4999 136.302 46.633C136.189 46.68 136.039 46.6505 136.086 46.8503L136.053 46.8437ZM135.527 43.9694C135.777 44.1053 135.666 43.7891 135.917 43.9249C136.04 44.0012 136.058 44.1777 135.988 44.2679C135.921 44.3414 135.821 44.3218 135.671 44.2056C135.567 44.116 135.5 43.9295 135.547 43.9561L135.527 43.9694ZM134.709 45.575C134.709 45.575 134.743 45.6682 134.719 45.6982C134.663 45.8084 134.483 45.669 134.336 45.6228C134.256 45.5897 134.282 45.543 134.289 45.5096C134.335 45.4495 134.619 45.5053 134.706 45.5916L134.709 45.575ZM136.062 43.5379C136.219 43.6207 136.153 43.6942 136.19 43.7707C136.226 43.8473 136.233 43.9006 136.117 43.8776L135.983 43.8514C135.973 43.7281 135.942 43.6182 135.929 43.5116C135.995 43.5247 136.029 43.5313 136.062 43.5379ZM137.523 45.0895C137.523 45.0895 137.577 45.256 137.551 45.3027C137.544 45.3361 137.407 45.3265 137.347 45.28C137.301 45.2535 137.267 45.1603 137.23 45.0838C137.38 45.1133 137.376 44.9567 137.523 45.0895ZM136.622 45.7955C136.622 45.7955 136.639 45.7122 136.712 45.7786C136.746 45.7852 136.786 45.845 136.796 45.8816C136.816 45.9549 136.806 46.0049 136.81 46.0749C136.803 46.1082 136.8 46.1249 136.737 46.0951C136.72 46.0918 136.69 46.0686 136.677 46.0486C136.543 45.9358 136.623 45.8822 136.603 45.8089L136.622 45.7955ZM139.566 40.6942C139.656 40.7639 139.709 40.8437 139.696 40.9104C139.686 40.9604 139.647 40.9872 139.566 40.9541C139.423 40.8912 139.419 40.8213 139.472 40.7278C139.472 40.7278 139.549 40.6909 139.566 40.6942ZM134.644 45.1986C134.644 45.1986 134.608 45.1221 134.654 45.1486C134.718 45.1784 134.778 45.2248 134.825 45.2513C134.928 45.341 134.965 45.4175 134.982 45.5075C134.982 45.5075 134.932 45.4976 134.882 45.4878L134.631 45.1786L134.644 45.1986ZM136.658 42.3563C136.815 42.4391 136.769 42.4992 136.742 42.546C136.736 42.5793 136.632 42.5763 136.632 42.5763C136.595 42.4998 136.592 42.4298 136.572 42.3566C136.605 42.3631 136.642 42.353 136.655 42.373L136.658 42.3563ZM137.188 45.3872C137.188 45.3872 137.135 45.4807 137.051 45.4643C137.058 45.4309 137.018 45.3711 137.041 45.341C137.048 45.3077 137.117 45.3041 137.157 45.2773C137.184 45.3172 137.208 45.3738 137.188 45.3872ZM136.497 46.1692C136.497 46.1692 136.403 46.0295 136.413 45.9795C136.413 45.9795 136.496 45.9959 136.527 46.0191C136.633 46.0921 136.624 46.1421 136.597 46.1889C136.564 46.1823 136.514 46.1725 136.497 46.1692ZM135.94 40.8123C135.94 40.8123 135.92 40.739 135.927 40.7057C135.933 40.6723 135.986 40.6655 136.023 40.6554C136.097 40.7218 136.073 40.7519 136.05 40.7819C136.044 40.8153 135.987 40.8388 135.944 40.7956L135.94 40.8123Z" fill="white"/>
<path d="M139.617 43.1633C139.617 43.1633 139.747 43.2929 139.744 43.3095C139.584 43.4167 139.815 43.7392 139.525 43.8034C139.362 43.8406 139.233 43.971 139.313 44.1774C139.347 44.2706 139.294 44.2774 139.224 44.2809C139.061 44.3181 139.044 44.4015 139.042 44.6781C139.032 44.7281 139.039 44.7814 138.989 44.7716C138.815 44.7721 138.789 44.9055 138.723 44.979C138.696 45.0258 138.64 45.0493 138.516 44.973C138.393 44.8967 138.322 44.8137 138.289 44.7205C138.289 44.7205 138.295 44.6871 138.282 44.6672C138.666 44.8292 138.461 44.5466 138.484 44.4299C138.511 44.2965 138.724 44.2692 138.707 44.0926C138.93 44.1886 138.923 44.1353 138.78 43.9858C138.763 43.9825 138.779 43.8991 138.779 43.8991C139.19 44.0145 138.915 43.5621 139.225 43.5711C139.361 43.5807 139.251 43.4377 139.231 43.3645C139.15 43.1581 139.404 43.1906 139.46 43.0805C139.46 43.0805 139.577 43.1035 139.66 43.1199L139.617 43.1633Z" fill="white"/>
<path d="M139.569 42.7903C139.569 42.7903 139.592 42.6736 139.585 42.6203C139.551 42.4405 139.751 42.5665 139.851 42.5862C140.021 42.6023 140.082 42.7354 140.059 42.7655C139.969 42.8691 140.21 43.1416 139.873 43.0926C139.773 43.073 139.66 43.12 139.56 43.0136C139.459 42.9073 139.376 42.8043 139.569 42.7903Z" fill="white"/>
<path d="M128.987 48.8655C128.721 48.9863 128.78 48.6862 128.637 48.71C128.284 48.7444 128.26 48.5145 128.243 48.338C128.218 47.9348 127.774 47.8129 127.71 47.4366C127.696 47.33 127.58 47.3936 127.516 47.3638C127.339 47.2944 127.123 47.2518 127.052 47.082C127.008 46.9522 127.055 46.8054 126.808 46.8262C126.595 46.8535 126.721 46.5666 126.56 46.5004C126.48 46.4673 126.41 46.4709 126.327 46.5411C126.267 46.5813 126.208 46.6215 126.164 46.5783C126.164 46.5783 126.214 46.5015 126.254 46.4747C126.413 46.3676 126.46 46.2208 126.346 46.1812C125.869 46.0527 125.924 45.5093 125.574 45.2672C125.42 45.1677 125.419 44.9077 125.215 44.7984C124.978 44.6825 124.981 44.4059 124.917 44.2028C124.826 43.9598 124.576 43.9107 124.439 43.7278C124.235 43.4452 124.094 43.1057 123.787 42.9067C123.726 42.8603 123.75 42.8302 123.796 42.7701C123.929 42.623 123.845 42.52 123.749 42.4836C123.555 42.4109 123.521 42.2311 123.447 42.078C123.353 41.8517 123.263 41.6087 123.149 41.3958C123.021 41.1629 122.891 40.9467 122.836 40.6936C122.772 40.4039 122.592 40.1778 122.484 39.9316C122.363 39.6654 122.126 39.4628 121.949 39.2201C121.868 39.1004 121.625 39.0178 121.641 38.8478C121.65 38.6245 121.503 38.5783 121.37 38.4655C121.249 38.3725 121.083 38.3397 120.966 38.2301C120.688 37.9677 120.595 38.0013 120.146 38.346C120.067 38.3996 120.014 38.4931 119.934 38.5466C119.721 38.6606 119.568 38.9077 119.402 38.9615C119.089 39.0558 118.929 39.2496 118.717 39.4502C118.567 39.594 118.381 39.7479 118.278 39.9182C118.046 40.3055 117.925 39.866 117.732 40.0532C117.672 40.0934 117.596 40.1303 117.553 40.1737C117.387 40.3142 117.05 40.4386 117.091 40.5851C117.158 40.8582 116.735 40.8961 116.762 41.0227C116.793 41.2192 116.643 41.1897 116.526 41.2534C116.373 41.3272 116.264 41.4442 116.367 41.5338C116.498 41.6634 116.412 41.8369 116.379 42.0037C116.333 42.2371 116.696 42.1526 116.73 42.3325C116.73 42.3325 116.723 42.3658 116.72 42.3825C116.667 42.6493 116.831 42.7854 116.978 42.9182C117.142 43.0543 117.246 43.144 116.986 43.4047C116.877 43.5217 116.874 43.625 117.067 43.6111C117.157 43.5941 117.24 43.6105 117.261 43.6838C117.285 43.9137 117.528 43.9962 117.549 44.2427C117.573 44.5593 117.953 44.5647 118.144 44.7407C118.599 44.4494 118.684 44.8124 118.937 44.8449C119.104 44.8777 119.071 45.0444 119.121 45.1409C119.205 45.3306 119.541 45.0329 119.552 45.2428L119.602 45.2527C119.539 45.5695 119.873 45.6351 119.907 45.9016C119.988 46.3679 120.363 46.6666 120.604 47.0258C120.724 47.2053 120.941 47.3346 120.979 47.5844C121.009 47.781 121.043 47.9608 121.363 47.9198C121.47 47.9061 121.544 48.2325 121.477 48.306C121.371 48.4063 121.245 48.52 121.122 48.5304C120.998 48.5408 121.128 48.4104 121.121 48.3571C121.131 48.3071 121.151 48.2071 121.117 48.2005C120.94 48.1311 120.906 47.9512 120.829 47.8148C120.749 47.6951 120.519 47.7192 120.31 47.8165C120.253 47.84 120.17 47.9102 120.16 47.9603C120.104 48.157 120.387 48.0395 120.414 48.1661C120.434 48.2393 120.521 48.239 120.607 48.2388C120.767 48.2183 120.824 48.2814 120.745 48.4216C120.735 48.4716 120.672 48.5285 120.752 48.5616C120.929 48.631 121.099 48.7338 121.296 48.7898C121.396 48.8095 121.519 48.7991 121.638 48.6321C121.781 48.435 121.975 48.5077 122.035 48.5542C122.152 48.6638 121.915 48.7212 121.846 48.8114C121.799 48.8715 121.739 48.9117 121.693 48.9718C121.617 49.0954 121.474 49.2058 121.687 49.2651C121.787 49.2848 121.934 49.331 121.941 49.4709C121.938 49.5742 122.021 49.504 122.078 49.4805C122.234 49.39 122.311 49.3531 122.311 49.5264C122.288 49.6431 122.232 49.8399 122.362 49.8828C122.556 49.9555 122.566 50.0788 122.53 50.2622C122.507 50.3789 122.621 50.4185 122.657 50.4951C122.825 50.7878 122.922 50.9108 122.926 51.1541C122.923 51.2574 122.963 51.3172 123.06 51.3536C123.26 51.3929 123.374 51.5192 123.331 51.736C123.282 51.9861 123.618 51.9483 123.689 52.1181C123.699 52.1547 123.666 52.2348 123.653 52.3015C123.643 52.3515 123.597 52.4116 123.66 52.4414C124.051 52.6568 124.192 53.0829 124.439 53.4087C124.69 53.7179 124.74 53.7277 125.273 53.4861C125.369 53.4358 125.416 53.3757 125.496 53.3221C125.771 53.0646 126.017 52.7839 126.393 52.6328C126.563 52.5622 126.626 52.4187 126.722 52.2818C126.924 51.9579 127.234 51.7936 127.67 51.689C127.707 51.6788 127.777 51.6753 127.796 51.6619C127.939 51.3782 128.355 51.2869 128.461 51.0133C128.557 50.7897 128.69 50.7293 128.916 50.6353C129.292 50.4841 129.355 50.3406 129.371 49.9973C129.384 49.9306 129.41 49.7973 129.377 49.7907C129.153 49.6948 129.209 49.4113 129.049 49.2585C128.992 49.1954 128.868 49.1191 129.051 48.9819L128.997 48.9021L128.987 48.8655ZM122.045 45.335C122.038 45.4549 122.162 45.4446 122.242 45.4776C122.338 45.514 122.456 45.7102 122.416 45.8237C122.334 46.0672 122.679 45.8062 122.63 45.883C122.474 46.1467 123.12 46.0314 122.754 46.3924C122.931 46.4619 123.028 46.5849 122.969 46.7983C122.959 46.8484 123.003 46.8915 122.926 46.9284C122.906 46.9418 122.863 46.8987 122.826 46.9088C122.633 46.9227 122.715 46.6792 122.522 46.6931C122.497 46.2033 122.113 45.9546 121.892 45.582C121.869 45.5255 121.812 45.4623 121.915 45.3787C121.971 45.3552 122.054 45.2849 122.055 45.3716L122.045 45.335ZM119 41.5322C119.103 41.3619 119.206 41.1916 119.185 41.0317C119.218 41.0383 119.278 40.9981 119.275 41.0148C119.359 41.1178 119.482 41.1941 119.466 41.3641C119.407 41.7508 119.407 41.7508 119.638 41.9001C119.684 41.9266 119.754 41.923 119.781 41.9629C119.835 42.0427 119.978 42.1056 119.832 42.2327C119.603 42.43 119.748 42.1297 119.625 42.14C119.325 42.1677 119.288 41.9178 119.148 41.8383C119.064 41.7353 118.94 41.659 119.017 41.5355L119 41.5322ZM116.93 41.4887C116.93 41.4887 116.93 41.3154 116.95 41.2154C116.966 41.132 117.066 41.0651 117.159 41.0314C117.305 40.991 117.249 41.1011 117.239 41.1512C117.25 41.3611 117.221 41.5978 117.481 41.6836C117.548 41.6967 117.538 41.8334 117.558 41.9066C117.565 41.9599 117.572 42.0132 117.579 42.0665C117.512 42.0534 117.445 42.0403 117.362 42.0239C117.229 41.9976 117.281 41.8175 117.125 41.8214C117.098 41.6948 117.15 41.5147 116.947 41.492L116.93 41.4887ZM120.139 42.345C119.943 42.5489 120.296 42.6011 120.087 42.7851C119.984 42.8687 119.787 42.8127 119.693 42.673C119.63 42.5566 119.683 42.4631 119.842 42.356C119.959 42.2923 120.182 42.3016 120.139 42.345ZM118.574 40.6171C118.574 40.6171 118.457 40.5941 118.427 40.5709C118.313 40.4446 118.513 40.3107 118.603 40.2071C118.652 40.1303 118.712 40.1767 118.736 40.2333C118.79 40.3131 118.664 40.6001 118.567 40.6504L118.574 40.6171ZM120.451 43.1339C120.325 43.2476 120.258 43.1478 120.171 43.1481C120.088 43.1317 120.021 43.1186 120.078 43.0084C120.084 42.9751 120.127 42.9316 120.151 42.9015C120.267 42.9245 120.394 42.9841 120.511 43.007C120.481 43.0704 120.471 43.1205 120.451 43.1339ZM118.431 43.8967C118.431 43.8967 118.248 43.8606 118.187 43.8142C118.157 43.7909 118.22 43.6474 118.263 43.604C118.307 43.5605 118.423 43.5835 118.493 43.5799C118.417 43.7035 118.591 43.7896 118.434 43.88L118.431 43.8967ZM117.91 42.582C117.91 42.582 117.987 42.6318 117.907 42.6853C117.867 42.7121 117.811 42.7356 117.794 42.7323C117.727 42.7192 117.647 42.6862 117.584 42.6564C117.551 42.6498 117.54 42.6132 117.584 42.5697C117.587 42.553 117.624 42.5429 117.644 42.5295C117.797 42.4557 117.827 42.5656 117.927 42.5853L117.91 42.582ZM122.127 48.3473C122.014 48.3943 121.928 48.3946 121.854 48.3281C121.807 48.3016 121.82 48.2349 121.88 48.1948C122.003 48.0977 122.083 48.1308 122.13 48.244C122.13 48.244 122.127 48.3473 122.111 48.344L122.127 48.3473ZM119.001 40.7357C119.001 40.7357 119.084 40.7521 119.044 40.7789C119.001 40.8223 118.938 40.8792 118.878 40.9194C118.762 40.9831 118.672 41 118.575 40.9637C118.575 40.9637 118.588 40.897 118.595 40.8636C118.725 40.8199 118.838 40.7729 118.964 40.7458L119.001 40.7357ZM121.542 44.4568C121.399 44.5672 121.362 44.4907 121.305 44.4275C121.278 44.3876 121.295 44.3042 121.331 44.2941C121.415 44.3105 121.498 44.3269 121.598 44.3466C121.592 44.38 121.585 44.4133 121.579 44.4466L121.542 44.4568ZM118.203 43.3842C118.203 43.3842 118.119 43.2812 118.152 43.2011C118.202 43.2109 118.269 43.2241 118.299 43.2473C118.326 43.2872 118.316 43.3372 118.339 43.3938C118.289 43.384 118.233 43.4075 118.223 43.3708L118.203 43.3842ZM117.539 42.2666C117.539 42.2666 117.703 42.2294 117.763 42.2759C117.763 42.2759 117.73 42.356 117.693 42.3661C117.59 42.4497 117.546 42.4065 117.486 42.3601C117.493 42.3267 117.503 42.2767 117.539 42.2666ZM123.422 44.6708C123.422 44.6708 123.522 44.6905 123.532 44.7271C123.542 44.7637 123.549 44.817 123.556 44.8703C123.463 44.9039 123.423 44.8441 123.396 44.8042C123.352 44.761 123.362 44.7109 123.422 44.6708Z" fill="white"/>
<path d="M119.71 46.9888C119.71 46.9888 119.524 47.0561 119.527 47.0394C119.483 46.8229 119.087 46.9008 119.116 46.5775C119.152 46.3941 119.051 46.2011 118.815 46.1719C118.715 46.1522 118.725 46.1022 118.741 46.0188C118.777 45.8354 118.684 45.7824 118.4 45.64C118.35 45.6301 118.303 45.6036 118.316 45.5369C118.349 45.3702 118.245 45.2805 118.182 45.1641C118.142 45.1042 118.138 45.0343 118.224 44.9474C118.327 44.8637 118.437 44.8334 118.541 44.8364C118.557 44.8397 118.574 44.8429 118.591 44.8462C118.302 45.1704 118.665 45.0859 118.772 45.1589C118.908 45.2551 118.866 45.4719 119.043 45.5413C118.87 45.7151 118.933 45.7449 119.14 45.6643C119.173 45.6708 119.24 45.684 119.22 45.6974C118.978 46.048 119.504 46.0131 119.395 46.3033C119.352 46.4334 119.529 46.4162 119.599 46.4127C119.835 46.4419 119.703 46.6756 119.803 46.7819C119.803 46.7819 119.73 46.8888 119.684 46.9489L119.71 46.9888Z" fill="white"/>
<path d="M120.097 47.1342C120.097 47.1342 120.201 47.2238 120.268 47.237C120.464 47.293 120.248 47.4236 120.212 47.5204C120.129 47.6773 119.976 47.6644 119.952 47.6079C119.892 47.4748 119.512 47.5559 119.694 47.2454C119.747 47.152 119.737 47.0287 119.9 46.9915C120.047 46.9511 120.17 46.9407 120.101 47.1175L120.097 47.1342Z" fill="white"/>
<path d="M77.3197 79.3647C76.9565 79.3625 76.7075 78.6035 76.4571 78.4676C75.8462 78.1396 75.4874 77.411 75.2291 76.8752C74.6521 75.6707 73.6561 74.7474 73.0493 73.6063C72.8582 73.257 72.7986 73.3838 72.5578 73.1113C71.8119 72.2372 71.083 71.453 70.4199 70.422C69.9443 69.6704 69.5854 68.9417 69.041 68.5402C68.8906 68.424 68.7367 68.2379 68.5927 68.0017C68.1239 68.3598 67.5817 68.6514 67.07 69.1396C66.6679 69.5108 66.5619 69.6977 66.5523 69.8344C66.5359 69.9177 66.5529 70.0077 66.2637 70.2452C66.2205 70.2886 66.0806 70.2957 66.0737 70.2425C66.0497 70.0126 65.5506 70.2608 65.0356 70.7656C64.5406 71.257 64.0555 71.6985 63.5569 72.1199C63.1847 72.4277 62.9586 72.6084 62.6361 72.8393C62.031 73.2745 61.4091 73.7063 60.8743 74.2245C60.6417 74.4386 60.3558 74.6594 60.0532 74.877L59.6044 75.2216C59.3551 75.4324 59.0859 75.6565 58.8533 75.8705C57.7701 76.887 56.463 77.7209 55.2495 78.6079C55.1664 78.6781 55.0666 78.7451 54.9868 78.7987C55.8139 80.0524 56.7069 81.0593 57.4735 82.18L58.9935 84.4013C59.3718 84.9433 59.7534 85.4686 60.1781 85.9505C60.3454 86.1566 60.3489 86.2266 60.3325 86.3099C60.2801 86.5767 60.5813 86.9823 60.7685 87.175C61.2465 87.65 61.5114 88.1524 61.8498 88.7212C62.3355 89.5095 62.8378 90.301 63.2968 91.0494C63.6551 91.6048 64.0167 92.1435 64.3783 92.6822C64.8738 93.4205 65.3494 94.1721 65.8384 94.9437C66.3039 95.6588 66.7292 96.3139 67.1512 96.9858C68.189 96.376 69.1935 95.7596 70.2313 95.1498C70.6837 94.8751 71.136 94.6004 71.5884 94.3257C71.9642 94.0879 72.36 93.8368 72.7558 93.5856C73.2313 93.2808 73.7102 92.9594 74.1858 92.6546C74.6614 92.3499 75.193 91.8483 75.6757 91.6835C76.3281 91.4482 76.667 91.1338 77.1391 90.7591C77.5679 90.4278 77.9101 90.0968 78.3923 89.7587C79.5195 88.9587 79.5791 88.8319 79.1978 88.3932C79.1275 88.3101 78.9343 88.324 78.9373 88.2207C78.9031 87.9542 78.3966 87.9758 78.4825 87.7156C78.6243 87.2586 78.3308 87.1662 77.997 87.014C77.7568 86.9148 77.6196 86.7319 77.2563 86.7297C76.4566 86.7456 77.874 86.0546 77.6302 85.8854C77.5701 85.839 77.5898 85.7389 77.5329 85.6758C77.3725 85.523 77.4643 85.0562 76.9453 85.3177C76.0835 85.737 76.5345 85.0291 76.1185 85.207C75.5128 85.4689 75.7951 85.1781 75.788 85.0381C75.7741 84.8449 75.6172 84.7621 75.1949 85.06C74.6529 85.4383 74.2465 85.4795 73.8037 85.6176C73.1778 85.8062 72.9463 86.3668 72.3572 86.6319C72.3007 86.6554 72.2441 86.6789 72.2042 86.7057C71.5282 86.8844 70.8632 87.3598 70.298 87.7681C69.9954 87.9857 69.736 88.1598 69.5064 88.2705C69.41 88.3208 69.2602 88.3779 69.2134 88.3514C69.1867 88.3115 69.1432 88.2683 69.1063 88.1918C69.0292 88.0554 69.0257 87.9854 69.0563 88.1819C69.0765 88.2552 69.0735 88.3585 69.03 88.3153C68.9899 88.2554 68.98 88.3055 68.9401 88.3323C68.9401 88.3323 68.9133 88.2923 68.9265 88.2257C68.9494 88.1089 68.9396 88.159 68.8663 88.1792C68.8464 88.1926 68.8065 88.2194 68.7731 88.2128L68.7231 88.203C68.7231 88.203 68.5793 88.0535 68.5225 87.9903C68.0534 88.2617 67.4166 87.0974 66.8787 86.6625C66.5179 86.3837 66.3531 85.901 66.1587 85.5684C65.7668 84.9198 65.4981 85.3172 65.2029 84.7049C65.1928 84.6683 65.0993 84.6153 65.0859 84.5953C64.8102 83.7964 64.0883 83.1522 63.6726 82.3604C63.4848 81.9944 63.2738 81.6585 63.0494 81.3026L62.5137 80.5045C62.3631 80.3017 62.1624 80.089 62.0151 79.8695L61.9449 79.7864C62.0944 79.6427 62.2371 79.4456 62.5134 79.3614C62.6233 79.3311 62.7331 79.3007 62.7996 79.2272C62.9258 79.1135 63.2082 78.8227 63.3107 78.5658C63.3968 78.3922 64.4078 77.7425 64.5212 77.7821C64.688 77.8149 64.8782 77.9043 64.7224 78.1681C64.5898 78.4018 64.3931 78.3457 64.22 78.4329C64.067 78.5067 63.8639 78.5707 63.7975 78.6442C63.5949 78.8815 63.3489 79.0755 63.1062 79.2529L62.9433 79.3767L62.8868 79.4002L62.7903 79.4505C62.6706 79.5309 62.811 79.6971 63.0313 79.8097C63.0948 79.8395 63.2082 79.8791 63.2549 79.9056C63.4151 79.9718 63.1546 79.7993 63.2413 79.799C63.3145 79.7788 63.1746 79.7859 63.2773 79.6156C63.423 79.3152 63.6157 79.128 63.9587 79.0569C64.0653 79.0433 64.1886 79.0329 64.348 78.8391C64.7697 78.3679 65.2248 77.9032 65.6099 77.4421C65.8157 77.1882 65.9117 76.9646 65.5984 76.9723C65.2319 76.9868 65.6635 76.4655 65.8496 76.3117C66.2749 75.9104 66.1628 76.304 66.3162 76.3168C66.4162 76.3365 66.4763 76.383 66.5829 76.3693C66.8328 76.3319 66.9232 76.4882 66.9426 76.3015C66.959 76.2182 67.0151 76.0214 67.1118 76.0577C67.1785 76.0708 67.1649 75.9643 67.1446 75.891C67.134 75.6811 67.1435 75.5444 67.2736 75.5873C67.3403 75.6005 67.3906 75.6969 67.4272 75.6868C67.4374 75.7235 67.4674 75.7467 67.4874 75.7333C67.6139 75.7062 67.6779 75.9093 67.6686 76.1326C67.6557 76.286 67.7424 76.2857 67.7826 76.3455C67.8227 76.4054 67.8629 76.4653 67.8864 76.5218C68.0204 76.7214 68.1242 76.8977 68.2314 77.0573C68.4424 77.3932 68.6099 77.6859 68.7676 78.0287C68.9018 78.3149 69.0593 78.571 69.2798 78.7702C69.7377 79.172 70.0791 79.6375 70.2775 80.2134C70.5262 80.8858 71.1038 81.2072 71.4421 81.776C71.5192 81.9124 71.5397 82.0723 71.5802 82.2188C71.6239 82.3486 71.6209 82.4519 71.7914 82.6413C72.8315 83.7811 73.6189 85.1483 74.516 86.3985C75.3996 87.6287 75.5199 87.7216 76.183 87.6962C76.3062 87.6858 76.3259 87.5858 76.3789 87.4923C76.5577 87.1118 76.6829 86.6516 77.1828 86.6633C77.4061 86.6726 77.3484 86.3495 77.3375 86.053C77.3121 85.3899 77.6617 85.2855 78.3824 85.5831C78.4491 85.5963 78.5727 85.6725 78.5792 85.6392C78.4907 85.0329 79.1379 85.2642 78.9993 84.6481C78.8777 84.1219 79.0644 84.1413 79.3711 84.167C79.8844 84.1987 79.8401 83.8956 79.4372 82.9505C79.3399 82.7408 79.2757 82.4511 79.1587 82.3415C78.597 81.7634 78.3414 81.0377 77.8729 80.426C77.6789 80.18 77.3678 79.8244 77.4971 79.6074L77.2796 79.3048L77.3197 79.3647ZM60.4435 81.3441C60.3126 81.0413 60.0956 80.912 59.9083 80.7193C59.6642 80.4635 59.2089 79.7851 59.1917 79.6085C59.1914 79.5219 59.1512 79.462 59.1277 79.4054C59.3138 79.2516 58.9637 79.1827 59.1468 79.1321C59.8261 78.9367 59.9999 78.053 60.6933 78.1375C61.032 77.7365 61.4641 77.3886 61.99 77.1803C62.1031 77.1333 62.2925 76.9627 62.3029 77.086C62.2964 77.1193 62.1469 77.2631 62.1004 77.3232C61.8883 77.6971 61.3323 77.8822 61.2432 78.1591C60.5878 78.4977 59.9728 78.9829 59.3978 79.4412C59.7626 79.9633 60.1642 80.4752 60.4957 80.9907C60.5996 81.167 60.7368 81.3499 60.6605 81.4734C60.6039 81.4969 60.5075 81.5472 60.4268 81.3409L60.4435 81.3441ZM71.5444 89.8837C71.9109 89.8692 72.2375 89.8815 72.75 89.6532C72.7402 89.7033 72.727 89.7699 72.6871 89.7967C72.2881 90.0646 71.8792 90.3825 71.4364 90.5205C70.3644 90.8638 70.441 90.8269 69.6863 91.4058C69.56 91.5195 69.4305 91.6499 69.2908 91.7436C69.0147 91.9145 68.5826 92.2624 68.552 92.0659C68.491 91.7595 68.9311 91.8114 69.117 91.5709C69.5185 91.0264 70.1209 90.7813 70.4964 90.4568C70.9288 90.1955 71.3011 89.8878 71.5444 89.8837ZM74.5283 86.0718C74.5947 85.9983 75.0375 85.8603 75.2739 85.8029C75.4904 85.7589 75.5573 85.8586 75.5177 85.9721C75.4617 86.1689 75.2151 86.1896 75.0254 86.2736C74.3864 86.5288 73.7572 86.7341 73.1625 87.2925C73.0129 87.4363 72.6601 87.5574 72.4105 87.6815C72.2608 87.7386 72.1077 87.8124 71.938 87.8829L72.3698 87.4483C72.6289 87.1876 73.0684 87.0662 73.3174 86.7688C73.7334 86.5909 74.153 86.4829 74.5116 86.0686L74.5283 86.0718ZM67.8159 92.1982C67.811 91.695 67.1999 91.2803 67.2988 90.9535C67.3617 90.81 67.7192 91.1054 67.987 91.5045C68.0942 91.6641 68.168 91.8172 68.195 91.9437C68.2617 91.9568 68.262 92.0435 68.2358 92.1769C68.2226 92.2435 68.1562 92.3171 68.1065 92.3939C67.9865 92.3876 67.8028 92.2649 67.7993 92.1949L67.8159 92.1982ZM74.7546 88.0906C74.7546 88.0906 74.9705 87.8733 75.0935 87.7763C75.609 87.4448 75.7262 87.641 75.9463 87.667C76.0797 87.6932 75.8801 87.8271 75.7205 87.9343C75.4245 88.1185 74.7251 88.2407 74.7546 88.0906ZM66.2347 89.5838C66.3375 89.4135 66.5887 89.8093 66.7289 89.8888C66.8825 89.9883 66.9995 90.0979 67.0268 90.3111C67.0137 90.3778 67.0307 90.4678 67.0342 90.5377C66.7836 90.3152 66.5195 90.0728 66.2856 89.8536C66.2618 89.7104 66.2315 89.6005 66.238 89.5671L66.2347 89.5838ZM68.4427 89.1003C68.4427 89.1003 68.6026 89.0798 68.646 89.123C68.6761 89.1462 68.6701 89.3529 68.6504 89.4529C68.634 89.5363 68.5473 89.5365 68.4875 89.5767C68.4968 89.3534 68.3399 89.2706 68.4427 89.1003ZM69.9656 89.1055C69.8128 89.2659 69.7196 89.2996 69.686 89.2064C69.6759 89.1697 69.6357 89.1099 69.6789 89.0664C69.8284 88.9226 70.0146 88.7688 70.1673 88.6083C70.2537 88.5214 70.3469 88.4878 70.4303 88.5042C70.4636 88.5107 70.4571 88.5441 70.4705 88.564C70.5044 88.7439 70.1384 88.9317 69.9624 89.1222L69.9656 89.1055ZM65.3505 76.5598C65.3377 76.7132 65.2316 76.9001 64.999 77.1141C64.8528 77.2412 64.6964 77.3317 64.6396 77.2686C64.5226 77.159 64.6986 76.9685 65.0643 76.694C65.1042 76.6673 65.3538 76.5432 65.3538 76.5432L65.3505 76.5598ZM73.8143 88.9967C73.7947 89.0967 73.6782 89.1604 73.6148 89.1306C73.5314 89.1142 73.4713 89.0678 73.4344 88.9912C73.3707 88.8748 73.4935 88.6911 73.7228 88.4938C73.746 88.4637 73.8693 88.4533 73.9759 88.4397C73.9231 88.6198 73.8704 88.7999 73.7977 88.9934L73.8143 88.9967ZM62.4727 84.4103C62.5989 84.2966 62.7763 84.5393 62.9504 84.7987C63.0609 84.9416 63.1349 85.1814 63.0882 85.1548C62.9078 85.0154 62.7039 84.8195 62.5167 84.6268C62.4965 84.5535 62.4494 84.4404 62.4727 84.4103ZM68.8207 89.5557C68.8207 89.5557 68.9636 89.4452 69.0205 89.5084C68.974 89.5685 68.921 89.662 68.8778 89.7054C68.8179 89.7456 68.7679 89.7358 68.7146 89.7426C68.7644 89.6658 68.7974 89.5857 68.8207 89.5557ZM71.402 88.0546C71.3957 88.1745 71.2628 88.3216 71.0767 88.4755C71.0767 88.4755 70.9201 88.4793 70.8933 88.4394C70.8097 88.3363 70.9925 88.1991 71.192 88.0652C71.262 88.0617 71.3919 88.0179 71.4052 88.0379L71.402 88.0546ZM58.2859 80.8677C58.2859 80.8677 58.0016 80.552 57.8778 80.3891C57.7572 80.2096 57.6867 80.0398 57.5995 79.8668C57.8166 79.9961 57.974 80.2522 58.1213 80.4717C58.2853 80.6944 58.3859 80.8874 58.2993 80.8877L58.2859 80.8677Z" fill="white"/>
<path d="M63.1158 80.1722C63.1158 80.1722 63.2823 80.1184 63.2989 80.1217C63.2956 80.1383 63.2989 80.1217 63.329 80.1449C63.4427 80.2712 63.5731 80.4007 63.7002 80.547C63.9576 80.8228 64.1952 81.1119 64.3564 81.5247C64.5412 81.994 64.9465 82.6625 65.4377 83.0709C65.6482 83.2335 65.6752 83.36 65.7693 83.5863C65.9674 84.0756 66.1749 84.3415 66.8937 85.0891C67.0241 85.2187 67.1378 85.3449 67.1949 85.4947C67.3329 85.9375 67.6541 86.3297 67.9386 86.7321C68.086 86.9515 68.1865 87.1445 68.0969 87.2481C68.0072 87.3517 67.8572 87.3222 67.6467 87.1595C67.6033 87.1164 67.5565 87.0898 67.5297 87.0499C67.638 86.4997 67.0941 86.2715 66.7997 85.9192C66.4217 85.4638 66.2066 84.8846 65.7887 84.4561C65.8676 84.1426 65.7373 84.013 65.4506 83.9739C65.4172 83.9674 65.2333 83.758 65.2333 83.758C65.2477 83.0681 64.2862 82.498 64.1274 81.8086C64.0498 81.499 63.7526 81.3366 63.5856 81.2172C63.118 80.8654 62.9425 80.1728 62.9928 80.2693C62.9928 80.2693 63.0759 80.199 63.1524 80.1621L63.1158 80.1722Z" fill="white"/>
<path d="M62.769 80.0867C62.769 80.0867 62.6954 80.0203 62.5987 79.9839C62.5186 79.9509 62.5085 79.9142 62.5418 79.9208C62.6285 79.9205 62.7818 79.9334 62.8851 79.9364C63.1052 79.9623 63.2353 80.0052 63.2186 80.002C63.2186 80.002 63.6152 80.0107 63.2754 80.0651C63.1688 80.0788 63.1224 80.1389 62.9625 80.1594C62.8026 80.1799 62.6359 80.1471 62.7889 80.0733L62.769 80.0867Z" fill="white"/>
<path d="M52.7143 106.285C52.9638 106.161 53.5072 106.216 54.0604 106.221C54.6169 106.209 55.1868 106.218 55.4631 106.133C56.8183 105.759 58.5539 105.564 59.8259 105.26C62.7199 104.634 65.2105 102.89 67.3976 101.104C68.0025 100.582 68.0019 100.408 68.2941 100.068C68.7525 99.5863 69.0605 98.9888 69.4653 98.4277C69.681 98.1238 69.8966 97.8198 70.0923 97.5293C70.3741 97.0652 70.636 96.6145 70.9243 96.117C71.3554 95.4225 71.7632 94.758 72.1212 94.1704C72.1874 94.0102 72.3369 93.8664 72.3497 93.7131C72.2393 93.5701 72.1456 93.4305 72.0217 93.2676C71.8009 92.9817 71.5667 92.6758 71.2958 92.3801C70.8109 91.8517 70.3421 91.1534 69.9067 90.4616C69.6588 90.0492 69.4008 89.6001 69.093 89.2278C68.7552 88.8323 68.6183 88.7361 68.5051 88.7831C68.4485 88.8066 68.3854 88.8635 68.1411 88.521C68.1009 88.4611 68.067 88.2813 68.1069 88.2545C68.2665 88.1474 68.0314 87.5816 67.5632 87.0565C65.7639 85.0227 64.4397 82.5108 62.7431 80.3067C62.3851 79.838 62.0267 79.2826 61.6383 78.704C61.3538 78.3016 60.9753 77.673 60.5972 77.2176C60.0733 76.976 59.3391 76.6584 58.8887 76.4832C57.1205 75.8756 55.1758 75.2852 53.233 75.3013C50.9904 75.3451 49.3466 76.1301 47.723 76.9883C45.1448 78.3861 43.1345 80.242 41.5073 82.0867C41.172 82.471 41.0588 82.518 40.929 82.5617C40.5362 82.7096 39.9051 83.3647 39.6031 83.7556C38.8629 84.701 38.0919 85.3633 37.2875 86.019C36.9152 86.3268 36.5361 86.5812 36.1835 86.789L35.9673 86.9196C35.8774 86.9366 35.7607 86.9136 35.6606 86.8939L35.0172 86.8193L33.7304 86.6701C33.7304 86.6701 33.6971 86.6635 33.6304 86.6504L33.3734 86.5479L32.8596 86.3429L31.8319 85.9329L29.7931 85.1162C28.1715 84.4682 26.5499 83.8201 24.9449 83.1753C25.3901 83.8171 25.8321 84.4755 26.2774 85.1173L26.88 86.0152L27.1714 86.4708L27.7574 87.3654L28.002 87.7945L28.1663 88.1039L28.1833 88.1939L28.2002 88.2838C28.2002 88.2838 28.1567 88.2406 28.1234 88.234L28.0332 88.1643L28.1972 88.3871L28.8499 89.2948C29.6767 90.4619 30.5035 91.629 31.3538 92.8527C31.7324 93.4814 32.3542 94.1059 32.9361 94.7572C33.5213 95.3919 34.0833 96.0566 34.7983 96.6476L35.8807 97.4839C36.1245 97.6531 36.3284 97.8491 36.5954 97.9882L38.1113 98.9099C40.2544 100.076 43.0158 100.741 45.6649 100.656C46.328 100.63 47.0775 100.518 47.7936 100.399C48.5029 100.227 49.1755 100.065 49.7451 99.9862C50.491 99.8039 51.117 99.6153 51.686 99.3636C52.2417 99.0919 52.7673 98.797 53.3528 98.4619C54.3304 97.8056 55.1816 97.1764 56.1021 96.3704C58.3054 94.4139 58.3112 94.1206 57.8039 93.8823C57.7104 93.8293 57.401 93.9935 57.3906 93.8703C57.3829 93.557 56.5578 93.9662 56.7398 93.5691C57.0541 92.8516 56.5813 92.9664 56.0882 93.0079C55.7351 93.0424 55.5547 92.903 55.0023 93.158C53.821 93.7049 56.0013 91.8651 55.6613 91.8329C55.5612 91.8132 55.6041 91.6831 55.5241 91.65C55.3171 91.5574 55.4719 90.947 54.6874 91.5894C53.4244 92.6398 54.1372 91.4811 53.5255 91.9496C52.6109 92.549 53.0726 92.051 53.0854 91.8977C53.0915 91.691 52.8747 91.6484 52.2332 92.1803C51.4089 92.8494 50.8327 92.9612 50.1636 93.1932C49.2414 93.4794 48.71 94.0676 47.7742 94.2472C47.6843 94.2641 47.5976 94.2644 47.5276 94.268C46.5415 94.3511 45.4386 94.4112 44.4688 94.4109C43.9421 94.3593 43.5021 94.3073 43.1752 94.2084C42.8382 94.0728 42.6078 93.9236 42.4771 93.7074C42.3566 93.5278 41.9559 93.2758 41.4426 93.2441C41.216 93.2515 40.9025 93.1725 40.5884 92.9202C40.3613 92.7543 40.1309 92.6051 39.8972 92.4725L39.5498 92.2137C39.5498 92.2137 39.5498 92.2137 39.5331 92.2104C39.5164 92.2071 39.4396 92.1573 39.4995 92.1172C39.5626 92.0603 39.5093 92.0672 39.3825 92.0076C39.2658 91.9846 38.9586 91.7856 39.0521 91.8387C38.3515 91.6143 38.615 91.6834 38.8345 91.5361C38.9143 91.4825 38.9974 91.4123 39.0305 91.3322C39.037 91.2988 39.057 91.2854 39.0802 91.2554C39.1002 91.242 39.0802 91.2554 39.0635 91.2521L39.2065 91.1417C39.426 90.9943 39.6255 90.8604 39.845 90.7131C40.2473 90.4286 40.6464 90.1607 40.9388 89.9065C42.1253 88.893 41.5352 88.8116 42.5523 87.9552C42.6121 87.9151 42.6982 87.7415 42.7381 87.7147C44.0015 86.751 45.0067 85.3381 46.2066 84.3446C48.3604 82.5516 50.5276 80.7785 52.7995 80.4981C53.9221 80.3379 55.1285 80.3674 56.3066 80.8936C57.5715 81.5061 56.9404 81.1049 57.8525 81.8385C58.1064 82.0443 59.2754 83.9368 59.2593 84.1068C59.25 84.3301 59.2008 84.5802 58.8365 84.2314C58.4823 83.9193 58.5014 83.646 58.3371 83.3366C58.1964 83.0837 58.0419 82.7243 57.9148 82.5781C56.8644 81.315 57.4053 81.6466 56.6778 81.2956C55.8703 80.9983 55.3141 81.0967 55.0547 81.2708C54.9782 81.3077 55.0219 81.4375 55.1488 81.4971C55.6861 81.7586 56.1155 81.6007 56.6996 81.8888C56.8565 81.9716 56.733 81.8953 56.7663 81.9019L56.8795 81.8549C56.8795 81.8549 57.006 81.8278 57.0328 81.8677C57.1834 82.0705 57.3242 82.3233 57.4217 82.6196C57.489 82.806 57.5396 82.9892 57.8173 83.3382C58.5599 84.229 59.3025 85.1197 60.0451 86.0105C60.4398 86.4691 60.7539 86.7214 60.6424 86.2319C60.5139 85.6524 61.3166 86.5897 61.5911 86.9554C62.2503 87.8298 61.6993 87.4616 61.7266 87.6748C61.7337 87.8147 61.7007 87.8948 61.7378 88.058C61.8089 88.401 61.7094 88.5546 62.4988 89.4719C62.8533 89.8707 63.4352 90.522 63.8474 91.2439C64.1289 91.7495 64.1953 91.676 64.2686 91.6558C64.4651 91.6252 64.6253 91.6913 65.0913 92.5796C65.2422 92.8691 65.4165 93.2151 65.5808 93.5245C65.5945 93.6311 65.6314 93.7076 65.7382 93.7806C66.1488 93.9826 65.7831 94.257 65.5901 94.3576C65.5103 94.4112 65.5103 94.4112 65.3277 94.635C65.1651 94.8455 65.0025 95.0559 64.8598 95.253C63.6347 96.7265 62.8798 97.2188 61.8619 97.8152C61.4361 98.0431 61.0201 98.2211 60.6877 98.502C60.3321 98.8131 59.9161 98.991 59.5168 99.1722C59.1008 99.3502 58.6747 99.4915 58.2016 99.5196C57.1523 99.6596 56.2905 100.079 55.2775 100.122C55.0343 100.126 54.8274 100.033 54.6073 100.008C54.4073 99.9682 54.2739 99.9419 53.9106 99.9397C51.5849 100.054 49.2693 99.1479 47.5856 97.8469C46.8036 97.1562 46.3958 96.7643 46.1383 96.4885C45.8576 96.2427 45.6275 96.1802 45.224 96.1181C45.074 96.0886 45.0644 96.2253 45.0415 96.342C44.9029 96.7823 44.9149 97.4254 44.3111 97.2374C44.0343 97.1483 44.2157 97.6343 44.3505 98.0937C44.4888 98.6231 44.5462 98.8596 44.3398 98.9402C44.1335 99.0208 43.7664 98.862 43.2252 98.4438C43.1183 98.3709 42.9246 98.2115 42.9513 98.2514C43.398 99.3264 42.3927 98.6264 42.9429 99.7911C43.5423 100.706 43.2654 100.617 42.775 100.468C41.9977 100.194 42.2429 100.796 43.8913 102.541C44.2923 102.879 44.767 103.371 45.0775 103.553C45.9087 103.994 46.6965 104.391 47.4842 104.789C48.2916 105.086 49.0927 105.504 49.9663 105.641C50.6832 105.782 51.7202 105.969 51.8875 106.175L52.7375 106.255L52.7143 106.285ZM48.7117 79.7978C49.334 79.5392 49.6298 79.2684 50.0389 79.0371C50.5744 78.6922 52.0861 78.3142 52.5396 78.3861C53.5796 78.4694 53.4451 78.0966 53.742 78.1723C54.6325 78.3995 56.578 78.1934 56.9568 78.9087C57.4903 79.0136 57.9875 79.2154 58.4314 79.4239C58.5416 79.4802 58.6717 79.5231 58.7619 79.5928C58.8288 79.6926 58.8925 79.809 58.9595 79.9088C59.0901 80.125 59.1907 80.3179 59.2981 80.5642C59.3987 80.7572 59.6699 81.1396 59.5231 81.0934C59.4731 81.0835 59.2588 80.7643 59.1418 80.6547C58.8611 80.409 58.7102 80.1195 58.4727 79.8303C58.1256 79.6581 57.8386 79.5324 57.4884 79.4635C56.2601 78.8409 54.8528 78.5121 53.4399 78.5632C52.0304 78.5976 50.6588 79.0552 49.3912 79.689C49.0052 79.8902 48.5961 80.1214 48.4094 80.102C48.3859 80.0455 48.3189 79.9457 48.7349 79.7678L48.7117 79.7978ZM44.1665 96.8279C44.7036 97.0029 45.2145 97.3112 46.2441 97.2713C46.1676 97.3082 46.1011 97.3817 45.9978 97.3787C45.1049 97.4282 44.1452 97.4645 43.3512 97.1871C42.3806 96.9269 41.9698 96.6383 41.5262 96.5164C41.0826 96.3944 40.6887 96.1957 39.848 95.8918C39.5378 95.7961 39.2707 95.657 38.9903 95.4979C38.4395 95.2164 37.6215 94.7091 37.6341 94.4691C37.6362 94.1059 38.3256 95.0035 38.7891 95.112C39.7665 95.4255 41.0886 96.1878 42.1122 96.3545C42.9563 96.6418 43.8093 96.6191 44.1499 96.8247L44.1665 96.8279ZM51.0478 93.5404C51.1574 93.4234 51.8497 93.1613 52.2092 93.0068C52.5186 92.8426 52.6022 92.9456 52.5361 93.1058C52.4103 93.3928 52.0274 93.4906 51.7213 93.6382C51.2189 93.9031 50.7097 94.1146 50.1871 94.3062C49.6713 94.5511 49.1321 94.7395 48.5564 95.0245C48.2804 95.1954 47.6739 95.1973 47.2409 95.2853C46.9711 95.3361 46.7112 95.3369 46.4546 95.3211C46.761 95.2601 47.0438 95.1426 47.3434 95.0284C47.6064 94.9242 47.9095 94.8799 48.2191 94.8023C48.5154 94.7047 48.8117 94.6072 49.0479 94.4631C49.7238 94.2844 50.3997 94.1056 51.0478 93.5404ZM36.1045 93.4409C36.1302 93.1342 34.6936 91.9857 35.0265 91.878C35.2263 91.8307 35.9886 92.6215 36.6536 93.2026C37.1617 93.7008 37.3058 93.937 37.1295 94.0408C36.913 94.0848 36.1182 93.5475 36.1179 93.4608L36.1045 93.4409ZM50.5952 95.8412C50.5952 95.8412 51.0374 95.5299 51.3036 95.4091C52.275 94.8728 52.3488 95.0259 52.702 94.9915C52.9152 94.9641 52.5194 95.2153 52.2567 95.4061C51.7147 95.7844 50.4558 96.0216 50.5952 95.8412ZM34.2183 90.2643C34.3418 90.3406 34.435 90.3069 34.2183 90.2643L33.978 90.1651L33.8613 90.1421C33.8613 90.1421 33.9215 90.1886 33.9515 90.2118C34.2858 90.5374 34.5332 90.7765 34.5105 90.9799C34.4974 91.0466 34.4842 91.1133 34.4711 91.1799L33.7121 90.3725L33.3275 89.9505C33.3275 89.9505 33.5044 90.0199 33.5877 90.0363C33.9081 90.1686 34.1549 90.2345 34.2549 90.2542L34.2183 90.2643ZM38.093 92.0483C38.2097 92.0713 38.4535 92.2404 38.5737 92.3334C38.6339 92.3798 38.621 92.5332 38.5612 92.5734C38.5013 92.6135 38.2944 92.5209 38.1176 92.4515C38.1771 92.3246 37.803 92.0259 38.093 92.0483ZM42.8948 95.1057C42.5914 95.0633 42.3812 94.9874 42.3842 94.884C42.3907 94.8507 42.4872 94.8004 42.6039 94.8234C42.9207 94.8857 43.2774 94.9212 43.6073 94.9168C43.7973 94.9196 43.9274 94.9625 44.0176 95.0322C44.0476 95.0554 44.0077 95.0822 44.0045 95.0989C43.8716 95.2459 43.2547 95.1246 42.8781 95.1024L42.8948 95.1057ZM61.1417 86.0704C60.9515 85.981 60.6574 85.7153 60.2993 85.2466C60.0785 84.9607 59.9243 84.6879 59.9741 84.6111C60.0703 84.4741 60.3914 84.8664 60.8468 85.5448C60.8837 85.6213 61.1417 86.0704 61.125 86.0671L61.1417 86.0704ZM48.499 96.9009C48.376 96.9979 48.1596 97.042 48.0628 97.0056C47.9494 96.966 47.8759 96.8995 47.8723 96.8296C47.8652 96.6896 48.2246 96.5352 48.6939 96.3504C48.7505 96.3269 48.9437 96.313 49.1403 96.2824C48.9476 96.4696 48.745 96.7069 48.4856 96.881L48.499 96.9009ZM43.4132 84.1068C43.5701 84.1896 43.1615 84.5941 42.7862 85.0052C42.567 85.2392 42.2013 85.5136 42.2478 85.4535C42.4733 85.0995 42.8087 84.7152 43.094 84.3211C43.2137 84.2407 43.3999 84.0869 43.4132 84.1068ZM38.8588 92.909L38.9356 92.9587L39.1628 93.1247C39.3098 93.2575 39.4435 93.3704 39.5471 93.46C39.3202 93.3808 39.0999 93.2682 38.9061 93.1088C38.7525 93.0093 38.7623 92.9593 38.6454 92.8497C38.7454 92.8694 38.8121 92.8825 38.8621 92.8923L38.8588 92.909ZM45.598 95.2738C45.5083 95.3774 45.1918 95.4017 44.822 95.4329C44.7886 95.4263 44.6118 95.3569 44.605 95.3036C44.5779 95.1771 44.9444 95.1626 45.3077 95.1648C45.4077 95.1844 45.6045 95.2405 45.598 95.2738ZM49.7478 77.6118C49.7478 77.6118 50.2836 77.3535 50.5965 77.2592C50.8961 77.1449 51.2293 77.1239 51.5491 77.0829C51.3296 77.2302 50.8633 77.3116 50.4872 77.4628C50.0777 77.6074 49.7314 77.6951 49.7612 77.6317L49.7478 77.6118Z" fill="white"/>
<path d="M50.2855 82.1858C50.1925 82.3061 50.1031 82.4963 50.0632 82.5231C49.0585 83.0528 48.5015 83.9477 47.301 84.768C46.6059 85.22 45.6192 86.1862 44.969 87.1147C44.7036 87.4955 44.5008 87.6461 44.1517 87.9238C43.3539 88.5461 42.9989 89.0305 41.4942 90.6048C41.2285 90.8989 40.9361 91.1531 40.6234 91.3341C40.3673 91.4915 40.1511 91.6222 39.9349 91.7528L39.5623 91.9739C39.5623 91.9739 39.6255 91.9171 39.6055 91.9305C39.5888 91.9272 39.5856 91.9439 39.5656 91.9573C39.5457 91.9706 39.4989 91.9441 39.3221 91.8747C39.1452 91.8053 39.0184 91.7457 39.0149 91.6757L39.0214 91.6424L39.0548 91.6489C39.295 91.7482 39.3483 91.7413 39.3582 91.6913L39.368 91.6413C39.368 91.6413 39.3746 91.6079 39.3347 91.6347C39.2947 91.6615 39.4177 91.5645 39.441 91.5344C39.667 91.3537 39.8764 91.1698 40.0625 91.0159C41.0962 90.1629 42.0704 89.4366 42.8174 88.5445C43.2736 88.4264 43.4826 88.1558 43.6212 87.7155C43.6343 87.6488 43.9664 87.2812 43.9864 87.2678C44.998 86.7914 45.9459 85.1421 46.9405 84.5758C47.3928 84.3011 47.6681 83.8704 47.8572 83.6132C48.4913 82.8547 49.2137 82.6158 49.8656 82.2072C49.9487 82.1369 50.1488 82.1763 50.3054 82.1724L50.2855 82.1858Z" fill="white"/>
<path d="M51.8154 81.2745C52.1783 81.19 52.4047 81.096 52.6875 80.9785C53.4201 80.7762 53.3908 81.0129 53.6311 81.1121C54.0148 81.2742 53.5452 81.3724 53.302 81.3765C52.6222 81.3986 52.1073 81.9034 51.3573 81.8425C51.1307 81.8499 50.6379 81.978 50.8071 81.7342C50.9697 81.5238 51.252 81.233 51.8219 81.2412L51.8154 81.2745Z" fill="white"/>
</g>
<defs>
<clipPath id="clip0_6202_2412">
<rect width="145.506" height="139.355" fill="white" transform="translate(26.8984) rotate(11.1291)"/>
</clipPath>
</defs>
</svg>
