<svg width="261" height="132" viewBox="0 0 261 132" fill="none" xmlns="http://www.w3.org/2000/svg">
<g clip-path="url(#clip0_5085_2357)">
<path fill-rule="evenodd" clip-rule="evenodd" d="M139.675 86.5754C139.915 84.7067 142.587 85.4948 143.796 85.2898C147.751 83.8713 152.84 82.9892 157.336 82.222C158.81 81.9673 160.26 82.1591 161.493 81.7621C163.158 81.2319 164.706 81.2158 167.471 80.6762C168.477 80.4799 169.371 79.6648 170.429 79.4408C171.636 79.1849 172.73 79.5449 174.129 79.2808C176.81 78.7702 179.491 77.5341 182.373 76.9894C191.061 75.3534 199.428 73.2095 207.608 70.9209C213.835 69.1877 219.73 67.1634 225.891 64.8858C228.929 63.7615 231.445 61.9215 234.051 60.6632C236.782 59.3486 238.605 58.786 241.083 57.0496C242.12 56.3174 242.765 54.9275 243.736 54.1726C244.325 53.7144 245.191 53.7278 245.779 53.2569C248.133 51.373 250.331 48.5795 251.236 45.5617C248.106 41.3439 243.322 39.1705 238.557 36.4362C235.512 34.6968 232.955 33.3563 229.088 31.8689C225.97 30.6672 222.941 29.2962 219.196 28.1471C217.496 27.6224 215.927 27.6648 214.286 27.2521C209.773 26.1362 206.842 24.5701 201.177 24.2296C200.502 24.1824 199.415 23.5039 198.568 22.955C194.746 22.4966 190.393 22.1248 186.201 21.2751C185.576 21.1494 185.202 20.4145 184.532 20.2399C182.545 19.7276 179.578 19.7923 177.309 19.4449C174.858 19.08 172.565 18.1863 170.285 17.8139C166.627 17.2084 162.858 17.2569 159.103 16.6428C158.168 16.4924 157.251 15.8065 156.273 15.6579C147.607 14.3525 138.707 15.2975 129.529 13.7725C128.597 13.4564 129.099 14.6948 128.167 14.3914C121.412 14.289 118.692 14.1394 112.206 15.0818C95.7345 16.558 76.2325 15.645 59.0888 19.8615C41.9798 22.9055 25.4103 28.7901 12.7919 37.6097C11.1306 39.209 9.88414 41.2614 8.63768 43.3137C7.00924 48.883 7.72533 54.3254 10.0105 58.9999C12.8345 64.7712 17.8939 68.8802 21.0472 72.8807C26.4088 76.5692 31.5042 80.5239 37.0745 84.3435C39.7938 86.2116 41.5531 87.8666 44.7124 89.5374C47.3255 90.9264 49.6781 92.4667 52.1028 94.1947C63.2217 99.1108 73.9524 103.942 86.4633 105.972C85.9799 104.427 84.5134 104.109 83.3731 104.171C81.2061 102.228 78.6149 100.851 76.64 98.6577C75.8905 96.6408 74.6236 95.2572 73.4185 93.8201C72.5449 91.1593 72.027 88.0759 71.9213 85.8784C72.617 85.4155 72.6618 84.2298 73.2117 83.6077C75.933 84.5338 76.3688 88.4354 78.372 90.2963C83.3735 94.5478 90.7934 96.9253 96.8877 100.264C101.461 102.765 106.416 104.714 111.513 105.983C114.5 104.416 115.228 106.179 116.754 109.346C117.786 111.491 120.041 114.473 118.274 117.567C113.779 120.103 108.705 122.818 103.715 124.001C102.531 124.052 103.07 125.403 102.389 125.446C99.9837 124.671 96.3427 126.191 93.1697 126.672C87.8954 127.473 83.0439 126.69 79.558 128.088C73.2826 127.723 66.6123 126.624 59.9663 125.346C58.2211 123.525 54.985 118.599 57.6819 115.503C61.338 117.547 67.3898 116.445 71.683 117.66C79.3032 116.516 88.9268 116.99 94.4893 114.459C92.6096 113.725 89.7564 112.958 87.9354 113.087C81.3753 111.08 74.1618 110.017 67.5193 107.339C63.8228 105.844 60.1711 104.398 56.864 102.275C54.4236 101.668 52.3877 100.534 50.6957 98.9525C45.6106 97.2122 41.3286 94.0371 36.9024 90.9827C32.6528 88.0606 28.9129 84.8238 24.9049 81.5604C24.3403 81.1011 23.5456 81.25 23.014 80.8148C22.2273 80.1614 21.2696 78.7645 20.3344 77.8885C20.0782 77.645 19.6308 77.9189 19.3948 77.6491C19.2148 77.4405 19.312 76.7235 19.1231 76.5534C18.2125 75.7527 17.3381 75.2941 16.4792 74.453C11.1134 69.1862 5.56906 62.7561 2.61868 54.0626C-2.11871 35.9125 9.26589 28.2028 19.3576 22.9548C32.4052 18.6227 46.7545 12.5286 62.4267 10.3487C71.0277 9.16204 80.8243 8.20368 91.2812 7.44588C106.955 6.29693 120.494 5.66041 135.722 5.80364C140.926 5.84585 146.055 6.87143 150.121 6.28823C150.91 7.50151 152.163 6.3272 152.953 7.55318C154.911 7.39209 157.626 6.9437 158.79 8.4081C163.017 7.8434 169.492 9.11625 172.086 10.3151C181.901 11.2653 191.722 13.8318 201.51 15.3941C202.726 15.5961 204.038 15.7939 205.246 16.0599C219.603 19.2957 233.714 23.255 244.177 31.7762C245.141 31.5818 245.488 32.2032 246.28 32.2326C251.027 35.7823 260.901 45.271 256.513 54.4474C254.397 58.8794 249.285 62.1936 244.929 65.4497C241.949 67.6789 238.762 68.835 235.642 70.5483C231.834 72.6352 226.808 73.9854 221.963 75.837C220.324 76.4679 219.746 76.6839 217.149 77.1526C214.542 77.6218 211.959 79.1465 209.153 79.9806C207.751 80.3977 205.909 80.0446 204.538 80.4603C204.254 80.549 203.876 81.2144 203.646 81.3262C201.135 82.5423 197.655 82.3364 194.439 82.8319C191.468 83.2786 188.381 84.0231 185.479 84.6069C181.878 85.3227 177.295 85.7883 175.122 86.4296C174.12 86.7275 172.565 86.833 171.658 86.8595C163.519 87.1097 154.934 87.201 147.148 88.1997C145.312 86.0134 141.429 88.358 139.654 86.589L139.675 86.5754Z" fill="black"/>
</g>
<defs>
<clipPath id="clip0_5085_2357">
<rect width="255.711" height="120.404" fill="white" transform="translate(0 11.0503) rotate(-2.47677)"/>
</clipPath>
</defs>
</svg>
