<?xml version="1.0" encoding="UTF-8"?>
<svg id="Layer_1" data-name="Layer 1" xmlns="http://www.w3.org/2000/svg" version="1.1" viewBox="0 0 450 140">
  <defs>
    <style>
      .cls-1 {
        fill: #000;
        stroke-width: 0px;
      }
    </style>
  </defs>
  <path class="cls-1" d="M41.4,68.5c2.7,0,5.1,0,7.2.5,3,.5,5.5,4.7,5.5,6.7s0,2.2-.5,3.9c-.7,2.6-5.8,11.9-7.9,15.4-2.5-4.1-8.5-15.8-10.6-20.3-.9-1.9-1.4-3.5-1.4-4.3,0-1.4,2.8-1.9,7.6-1.9ZM7.5,68.5c2.5.6,4,1.2,6.1,4.9,7.3,13.5,14.7,28.4,21.9,43,.9.8,2,.9,3.5.9s2.5-.2,3.5-.9c3.4-6.4,12.4-23.7,16.3-30.4,4.5,8.3,12.3,23.4,15.4,30.4.9.8,2,.9,3.4.9s2.6-.2,3.4-.9c6.4-13.9,13-27.6,20.1-41.2,2.4-4.8,3.4-6.1,8.4-7l2.1-.4c1.2-1.2.9-4-.4-4.6-3.3.3-7.2.4-11.6.4s-7.3-.1-12.3-.4c-1.5.5-1.5,3.6-.6,4.6l2.5.5c2.6.5,3.8,1.2,3.8,1.8s-.5,2.7-1.4,5c-2.4,6-4.7,12.3-8.4,19.8-3.3-6.2-7.5-14.6-10.2-20.9-.9-2.2-1.2-3-1.2-4s2.1-1.3,5.5-2l2.2-.4c1.1-.5,1.2-4.4-.4-4.6-8.8.3-17.7.4-26.5.4h-30.2c-6.3,0-11.1-.1-17.2-.4-1.5.6-1.5,3.5-.5,4.6,0,0,2.7.7,2.7.7Z"/>
  <path class="cls-1" d="M132.5,67.7c5.1,0,7.9,2.8,7.9,7.1s-.3,2.6-1,3c-1.7.9-4.1,1.2-6.2,1.2h-5.5c-4.8,0-6.9,0-6.9-1.9,0-4.2,5.4-9.3,11.7-9.3h0ZM132.4,117.1c9,0,20.1-3.8,26.2-14.8,0-2.2-2.3-3.2-3.9-3-4,6-9.8,6.7-13.9,6.7-13.9,0-21.1-9.4-21.1-19.1s.3-2.3,3.8-2.3h28.7c4.7,0,5.4-1.8,5.4-4.3,0-10-8.4-18.7-24-18.7s-32.3,12.7-32.3,29,10.9,26.4,31.1,26.4ZM195.8,68.5c2.7,0,5.1,0,7.2.5,3,.5,5.5,4.7,5.5,6.7s0,2.2-.4,3.9c-.8,2.6-5.8,11.9-7.9,15.4-2.6-4.1-8.5-15.8-10.6-20.3-.9-1.9-1.4-3.5-1.4-4.3,0-1.4,2.8-1.9,7.6-1.9ZM161.8,68.5c2.6.6,4,1.2,6.1,4.9,7.3,13.5,14.7,28.4,21.9,43,.9.8,2,.9,3.5.9s2.5-.2,3.4-.9c3.5-6.4,12.4-23.7,16.3-30.4,4.5,8.3,12.3,23.4,15.4,30.4.9.8,1.9.9,3.4.9s2.6-.2,3.5-.9c6.4-13.9,13.1-27.6,20.1-41.2,2.4-4.8,3.4-6.1,8.4-7l2.1-.4c1.2-1.2.9-4-.5-4.6-3.3.3-7.2.4-11.5.4-4.1,0-8.2-.2-12.3-.4-1.5.5-1.5,3.6-.6,4.6l2.5.5c2.6.5,3.7,1.2,3.7,1.8s-.5,2.7-1.3,5c-2.4,6-4.8,12.3-8.4,19.8-3.3-6.2-7.5-14.6-10.2-20.9-.9-2.2-1.2-3-1.2-4s2.1-1.3,5.5-2l2.2-.4c1.1-.5,1.2-4.4-.4-4.6-9.6.3-17.1.4-26.5.4h-30.3c-5.7,0-11.5-.1-17.2-.4-1.5.6-1.5,3.5-.4,4.6,0,0,2.7.7,2.7.7Z"/>
  <path class="cls-1" d="M290,67.7c8.5,0,12.7,10.9,12.9,23.4.1,11.7-2.7,20.1-11.3,20.1s-13.6-10-13.6-23.6,5.4-19.9,12-19.9h0ZM290,117.1c18.4,0,34.4-8.9,34.4-27.9s-15.9-27.6-33.6-27.6-34.6,10.2-34.5,28.8c.2,17.9,15.7,26.7,33.6,26.7Z"/>
  <path class="cls-1" d="M350,72.7c.9,0,2.3.1,5.7,2.6,1.9,1.6,3.7,2.3,5.8,2.3,4.8,0,9.6-2.5,9.6-8.4s-4.2-7.6-8.3-7.6c-6.3,0-10.6,4.3-14.7,6.5-1.2-.2-1.5-.6-1.5-1.5s.3-3,.6-5.6c-.6-.8-1.5-1.2-2.7-1.2-4.7,2.6-15,6.1-21.9,7.8-1,.8-1,3.1,0,3.9l2.1,1.2c2.8,1.6,2.8,3.1,2.8,8.3v19.5c0,9.1-.6,10.2-5.5,10.6l-2.9.2c-1.2.8-1.2,3.8.2,4.6,5.9-.3,11.8-.4,17.7-.4,7,0,13,.1,20.2.4,1.3-.8,1.3-3.8.1-4.5l-4.8-.4c-4.9-.4-5.5-1.5-5.5-10.5v-19.9c0-4.9.8-7.8,2.9-7.8"/>
  <path class="cls-1" d="M408.7,110.8l-1.9.4c-1.2,1.2-.9,3.9.6,4.5,4.2-.3,9.6-.4,18.4-.4s14.2.1,18.8.4c1.5-.5,1.8-3.6.6-4.5l-2.2-.4c-3.9-.6-6.7-1.3-8.8-3-3.8-3-16.9-20.6-19.6-24.7-.8-1-1.1-1.8-1.1-2.2s.2-.9.9-1.7c2.1-1.8,4.4-3.8,10.1-7.5,4-2.7,7.2-4,10-4.5l4.8-.9c1.1-1,.9-3.9-.6-4.5-8.8,1.2-21.2,1.8-28.3,1.8h-3.6c-1.5.5-1.7,3.4-.3,4.5l3.8.5c1.3.1,2.8.6,2.8,1.3s-.7,2.2-3.6,5.2l-6.3,6.4c-3,3-6.2,3.6-8.7,3.6s-2.1-.4-2.1-1.8v-40.6c0-8.2.2-13.6.5-18.9-.6-.7-1.7-.9-2.6-.9-7.7,2.8-16.8,6-22.9,7.2-1.1.8-1.1,3.1,0,3.9l2.5,1.3c3,1.6,3,3,3,8.2v56.9c0,9.1-.6,10.1-6,10.6l-2.8.3c-1.2.8-1.2,3.7.2,4.5,6.1-.3,12.2-.4,18.3-.4,6.9,0,13.2.1,18,.4,1.3-.8,1.3-3.7.1-4.5l-2.4-.3c-5.3-.5-5.9-1.6-5.9-10.6v-7.5c0-2.5.8-3.1,1.8-3.1,1.5,0,2.7.5,3.8,1.9l10.6,14c1.2,1.5,2.5,3.6,2.5,4.2s-.9.7-2.4,1"/>
</svg>