<?xml version="1.0" encoding="UTF-8"?>
<svg xmlns="http://www.w3.org/2000/svg" version="1.1" viewBox="0 0 89.1 34">
  <!-- Generator: Adobe Illustrator 28.7.1, SVG Export Plug-In . SVG Version: 1.2.0 Build 142)  -->
  <g>
    <g id="Layer_1">
      <g>
        <path d="M25.9,17.5c-1-.3-1.5-.8-1.5-1.4s.7-1.4,1.8-1.4,1.7.6,1.8,1.5h2.6c0-2.3-1.8-3.9-4.3-3.9s-4.4,1.6-4.4,3.9,1.1,3.1,3.3,3.8l1.6.5c1.2.3,1.7.8,1.6,1.6,0,.9-.8,1.5-2,1.5s-2-.8-2-1.6h-2.6c0,2.3,1.9,4,4.6,4s4.6-1.2,4.6-3.8c0-1.9-1.1-3.2-3.5-4l-1.5-.5Z"/>
        <path d="M36,16.5c-1.2,0-2.3.5-3.1,1.4-.8.9-1.3,2-1.3,3.2s.5,2.4,1.3,3.2c.8.9,1.9,1.4,3.1,1.4.7,0,2-.4,2.5-1.2l.2-.3v1.2h2.4v-8.9h-2.4v1.2l-.2-.2c-.8-1.1-2.3-1.2-2.5-1.2ZM36.3,23.3c-.3,0-.6,0-.9-.1-.3-.1-.5-.3-.7-.5s-.4-.5-.5-.7c-.1-.3-.2-.6-.2-.9s0-.6.2-.9c.1-.3.3-.5.5-.7s.5-.4.7-.5c.3-.1.6-.2.9-.1.3,0,.6,0,.8.2.3.1.5.3.7.5.2.2.4.5.5.7.1.3.2.6.2.9s0,.6-.2.9c-.1.3-.3.5-.5.7-.2.2-.5.4-.7.5-.3.1-.6.2-.8.2Z"/>
        <path d="M45,16.7h-2.4v8.9h2.4v-8.9Z"/>
        <path d="M48.9,12.4h-2.4v13.2h2.4v-13.2Z"/>
        <path d="M55.6,12.3h-5.3v13.2h2.6v-4.6h2.7c3.1,0,4.2-2.3,4.2-4.3,0-3-2.1-4.3-4.2-4.3ZM55.5,18.6h-2.5v-4h2.6c1.1,0,1.7,1.2,1.7,2,0,.2,0,.5-.1.7s-.2.4-.4.6-.4.3-.6.4c-.2.1-.5.2-.7.2h0Z"/>
        <path d="M64.1,16.5c-.9,0-1.8.3-2.5.8-.7.5-1.3,1.2-1.7,2.1-.3.8-.4,1.8-.3,2.7s.6,1.7,1.2,2.4c.6.6,1.4,1.1,2.3,1.3.9.2,1.8,0,2.6-.3.8-.4,1.5-.9,2-1.7.5-.8.8-1.7.8-2.6,0-.6,0-1.2-.3-1.8s-.5-1.1-1-1.5c-.4-.4-.9-.8-1.5-1-.6-.2-1.2-.3-1.7-.3ZM64.1,23.2c-.4,0-.8-.1-1.2-.4-.3-.2-.6-.6-.8-1-.2-.4-.2-.8-.1-1.2,0-.4.3-.8.6-1.1.3-.3.7-.5,1.1-.6.4,0,.8,0,1.2.1.4.2.7.4.9.8.2.4.4.8.4,1.2,0,.3,0,.5-.1.8,0,.3-.2.5-.4.7-.2.2-.4.4-.6.5-.2.1-.5.2-.8.2h-.1Z"/>
        <path d="M72,16.7h-2.4v8.9h2.4v-8.9Z"/>
        <path d="M76,17.9l-.2.3v-1.6h-2.5v8.9h2.4v-4.7c0-1.3.6-1.9,1.7-1.9s1.6.7,1.6,1.9v4.7h2.5v-5.3c0-2.4-1.1-3.8-3.1-3.8-.5,0-1,.1-1.4.4-.4.3-.8.6-1,1.1h0Z"/>
        <path d="M43.8,15.4c.3,0,.6,0,.8-.3.3-.2.4-.4.6-.7.1-.3.1-.6,0-.9,0-.3-.2-.6-.4-.8-.2-.2-.5-.4-.8-.4-.3,0-.6,0-.9,0-.3.1-.5.3-.7.6-.2.3-.3.6-.3.9h0c0,.2,0,.4.1.6.1.3.3.5.6.7.2.2.5.3.8.3h0Z"/>
        <path d="M70.8,15.4c.3,0,.6,0,.8-.3.3-.2.4-.4.6-.7.1-.3.1-.6,0-.9,0-.3-.2-.6-.4-.8-.2-.2-.5-.4-.8-.4-.3,0-.6,0-.9,0-.3.1-.5.3-.7.6-.2.3-.3.6-.3.9h0c0,.2,0,.4.1.6.1.3.3.5.6.7.2.2.5.3.8.3Z"/>
        <path d="M88,16.6h-1.7v-3.5h-2.4v3.5h-1.6v2.1h1.6v6.8h2.4v-6.8h1.7v-2.1Z"/>
        <path d="M11.2,7l2.3,14.4H0L11.2,7Z"/>
        <path d="M11.6,7l8.3,14.4h-6l-2.3-14.4Z"/>
        <path d="M0,21.8h13.6l.8,5.2L0,21.8Z"/>
        <path d="M14,21.8h6l-5.1,5.2-.8-5.2Z"/>
        <path d="M88.6,23.8c.1,0,.3.2.3.4,0,.2.1.3.1.5,0,.2,0,.3-.1.5,0,.1-.2.3-.3.4-.1,0-.3.1-.5.1-.2,0-.3,0-.5-.1-.1,0-.3-.2-.3-.4,0-.2-.1-.3-.1-.5,0-.2,0-.4.1-.5,0-.1.2-.3.3-.4.1,0,.3-.1.5-.1.2,0,.3,0,.5.1ZM88.7,25.3c.1-.2.2-.4.2-.6s0-.4-.2-.6c-.2-.1-.4-.2-.6-.2s-.4,0-.6.2c-.1.2-.2.4-.2.6s0,.4.2.6c.2.1.4.2.6.2s.4,0,.6-.2h0ZM88.5,24.7c0,0-.1,0-.2.1l.3.4h-.2s-.3-.4-.3-.4h-.1v.4h-.2v-1.1h.4c0,0,.2,0,.3,0,0,0,0,0,0,.1,0,0,0,0,0,.1,0,0,0,.1,0,.2h0ZM88,24.6h.2s0,0,.1,0c0,0,0,0,0,0,0,0,0,0,0,0,0,0,0,0,0,0,0,0,0,0,0,0,0,0,0,0-.1,0h-.2v.3Z"/>
      </g>
    </g>
  </g>
</svg>