<svg width="445" height="173" viewBox="0 0 445 173" fill="none" xmlns="http://www.w3.org/2000/svg">
<g clip-path="url(#clip0_1757_2281)">
<path d="M117.755 87.6496C113.3 86.3832 111.003 84.1947 111.003 81.1456C111.003 77.3834 114.434 74.7253 119.142 74.7253C124.012 74.7253 127.095 77.322 127.274 81.4997H139.155C138.962 70.9631 131.019 63.8887 119.284 63.8887C107.55 63.8887 99.0311 71.2778 99.0311 81.4702C99.0311 89.5528 104.148 95.2207 114.226 98.3657L121.51 100.399C126.902 101.948 129.137 104.063 129.009 107.616C128.928 111.71 125.358 114.391 119.829 114.391C113.827 114.391 110.827 110.815 110.496 107.149H98.487C98.7051 117.686 107.413 124.927 119.836 124.927C129.884 124.927 140.839 119.518 141.013 107.693C141.258 99.0862 135.83 93.0913 124.838 89.9217L117.755 87.6496Z" fill="#0033A1"/>
<path d="M164.482 83.1251C159.077 83.2695 153.941 85.5253 150.169 89.4122C146.397 93.2992 144.286 98.51 144.286 103.935C144.286 109.36 146.397 114.571 150.169 118.458C153.941 122.345 159.077 124.601 164.482 124.745C167.813 124.745 173.619 123.127 175.974 119.515L176.724 118.372V123.931H187.931V83.9906H176.76V89.4003L176.011 88.3381C172.464 83.2751 165.283 83.1251 164.482 83.1251ZM165.68 114.037C160.588 114.037 155.098 110.176 155.098 103.955C155.098 97.7337 160.58 93.8732 165.68 93.8732C170.781 93.8732 175.913 97.4092 175.913 103.955C175.913 110.501 170.634 114.037 165.68 114.037Z" fill="#0033A1"/>
<path d="M205.829 83.998H194.629V123.971H205.829V83.998Z" fill="#0033A1"/>
<path d="M223.862 64.6706H212.611V123.956H223.862V64.6706Z" fill="#0033A1"/>
<path d="M254.519 64.6116H230.303V123.956H242.312V103.183H254.546C268.8 103.183 273.893 92.8183 273.893 83.9242C273.866 70.5942 264.151 64.6116 254.519 64.6116ZM253.904 92.8183H242.285V75.0498H254.294C259.546 75.0498 261.923 80.2358 261.923 83.9144C261.923 88.311 258.923 92.8183 253.943 92.8183H253.904Z" fill="#0033A1"/>
<path d="M293.779 83.1251C281.814 83.1251 273.126 91.8396 273.126 103.854C273.126 115.869 281.77 124.669 293.779 124.669C305.787 124.669 314.48 115.915 314.48 103.859C314.48 91.8027 305.787 83.1251 293.779 83.1251ZM293.779 113.604C291.866 113.616 289.992 113.059 288.394 112.003C286.797 110.947 285.547 109.439 284.803 107.671C284.059 105.903 283.855 103.953 284.215 102.068C284.575 100.183 285.484 98.4471 286.828 97.0803C288.171 95.7135 289.887 94.7768 291.761 94.3887C293.634 94.0005 295.581 94.1783 297.353 94.8996C299.126 95.6208 300.646 96.8531 301.721 98.4408C302.796 100.029 303.378 101.9 303.393 103.82C303.447 105.051 303.258 106.281 302.838 107.439C302.418 108.597 301.774 109.661 300.944 110.569C300.114 111.478 299.114 112.214 298 112.734C296.887 113.255 295.682 113.55 294.455 113.604C294.232 113.604 294.007 113.604 293.779 113.604Z" fill="#0033A1"/>
<path d="M329.969 83.998H318.762V123.971H329.969V83.998Z" fill="#0033A1"/>
<path d="M348.603 89.7175L347.853 91.1486V83.9906H336.54V123.949H347.792V102.784C347.792 97.0944 350.537 94.0846 355.676 94.0846C360.305 94.0846 363.124 97.3501 363.124 102.588V123.931H374.41V99.9812C374.461 89.1052 369.324 83.0857 359.992 83.0857C357.68 83.0821 355.408 83.6921 353.407 84.8538C351.406 86.0155 349.747 87.6875 348.598 89.7003L348.603 89.7175Z" fill="#0033A1"/>
<path d="M200.224 78.3153C201.607 78.3187 202.96 77.9106 204.112 77.1424C205.264 76.3743 206.163 75.2807 206.695 74C207.227 72.7192 207.369 71.3089 207.102 69.9473C206.836 68.5857 206.173 67.3341 205.197 66.3506C204.221 65.3672 202.977 64.6962 201.621 64.4224C200.265 64.1487 198.859 64.2845 197.58 64.8127C196.301 65.3409 195.207 66.2378 194.436 67.3899C193.665 68.542 193.252 69.8976 193.249 71.2852V71.3098C193.246 72.2296 193.429 73.1405 193.786 73.9876C194.315 75.2676 195.21 76.3618 196.358 77.1321C197.506 77.9023 198.856 78.314 200.237 78.3153H200.224Z" fill="#0033A1"/>
<path d="M324.35 78.3153C325.733 78.3187 327.086 77.9106 328.238 77.1424C329.389 76.3743 330.288 75.2807 330.82 74C331.353 72.7192 331.495 71.3089 331.228 69.9473C330.961 68.5857 330.298 67.3341 329.322 66.3506C328.347 65.3672 327.102 64.6962 325.746 64.4224C324.391 64.1487 322.984 64.2845 321.705 64.8127C320.426 65.3409 319.332 66.2378 318.562 67.3899C317.791 68.542 317.378 69.8976 317.375 71.2852V71.3098C317.368 72.2287 317.546 73.1397 317.899 73.9876C318.428 75.2678 319.323 76.3622 320.471 77.1325C321.619 77.9028 322.969 78.3144 324.35 78.3153Z" fill="#0033A1"/>
<path d="M403.633 83.9685H395.79V68.3812H384.539V83.9685H377.037V93.4822H384.539V123.956H395.79V93.4822H403.633V83.9685Z" fill="#0033A1"/>
<path d="M52.069 42.4687L62.8721 107.152H0.354736L52.069 42.4687Z" fill="#0033A1"/>
<path d="M52.069 42.4687L90.3577 107.152H62.8721L52.069 42.4687Z" fill="#CC27B0"/>
<path d="M0.354736 107.152H62.8721L66.7786 130.529L0.354736 107.152Z" fill="#0071CE"/>
<path d="M62.8721 107.152H90.3577L66.7786 130.529L62.8721 107.152Z" fill="#E17FD2"/>
<path d="M406.613 116.309C407.263 116.688 407.798 117.239 408.157 117.902C408.537 118.601 408.732 119.386 408.721 120.182C408.733 120.974 408.538 121.755 408.157 122.449C407.795 123.107 407.261 123.655 406.613 124.032C405.933 124.423 405.16 124.622 404.376 124.608C403.588 124.621 402.811 124.422 402.126 124.032C401.472 123.657 400.934 123.11 400.57 122.449C400.189 121.755 399.996 120.973 400.008 120.182C399.997 119.386 400.19 118.601 400.57 117.902C400.932 117.237 401.47 116.686 402.126 116.309C402.811 115.919 403.588 115.72 404.376 115.733C405.16 115.719 405.933 115.918 406.613 116.309ZM406.944 122.837C407.578 122.099 407.927 121.156 407.927 120.182C407.927 119.207 407.578 118.265 406.944 117.526C406.25 116.858 405.325 116.486 404.363 116.486C403.402 116.486 402.477 116.858 401.783 117.526C401.15 118.265 400.802 119.207 400.802 120.182C400.802 121.156 401.15 122.098 401.783 122.837C402.477 123.505 403.402 123.878 404.363 123.878C405.325 123.878 406.25 123.505 406.944 122.837ZM405.986 120.132C405.762 120.386 405.458 120.554 405.126 120.609L406.449 122.513L405.324 122.535L404.099 120.654H403.591V122.535H402.643V117.764H404.694C405.115 117.742 405.528 117.88 405.851 118.151C405.995 118.284 406.109 118.447 406.183 118.629C406.258 118.811 406.291 119.007 406.282 119.203C406.298 119.535 406.192 119.861 405.986 120.12V120.132ZM403.604 119.857H404.64C404.822 119.865 405.001 119.81 405.148 119.702C405.215 119.646 405.268 119.575 405.303 119.494C405.337 119.413 405.352 119.325 405.346 119.237C405.353 119.151 405.339 119.064 405.304 118.985C405.269 118.905 405.216 118.836 405.148 118.782C404.998 118.682 404.82 118.632 404.64 118.64H403.604V119.857Z" fill="#0033A1"/>
</g>
<defs>
<clipPath id="clip0_1757_2281">
<rect width="445" height="173" fill="white"/>
</clipPath>
</defs>
</svg>
