<svg width="195" height="43" viewBox="0 0 195 43" fill="none" xmlns="http://www.w3.org/2000/svg">
<path d="M59.4811 22.6014C57.4677 22.0164 56.4342 21.0052 56.4342 19.6014C56.4342 17.8627 57.9845 16.6352 60.1124 16.6352C62.3135 16.6352 63.7065 17.8352 63.7882 19.7602H69.158C69.0702 14.8914 65.4798 11.6239 60.177 11.6239C54.8742 11.6239 51.023 15.0377 51.023 19.7489C51.023 23.4826 53.3386 26.1014 57.8906 27.5551L61.1813 28.4952C63.6188 29.2114 64.6279 30.1877 64.5706 31.8302C64.5341 33.7214 62.9204 34.9552 60.4269 34.9552C57.7139 34.9552 56.3587 33.3027 56.2088 31.6089H50.7671C50.8658 36.4777 54.8011 39.8227 60.4159 39.8227C64.957 39.8227 69.9088 37.3226 69.988 31.8601C70.0989 27.8839 67.6456 25.1101 62.6755 23.6489L59.4811 22.6014Z" fill="white"/>
<path d="M80.5654 20.5193C78.1244 20.5892 75.8063 21.6329 74.1039 23.4284C72.4015 25.224 71.449 27.6297 71.449 30.1343C71.449 32.6388 72.4015 35.0446 74.1039 36.8401C75.8063 38.6357 78.1244 39.6793 80.5654 39.7493C82.0706 39.7493 84.6946 38.9993 85.7598 37.333L86.0985 36.8043V39.373H91.1637V20.9193H86.1144V23.4193L85.7756 22.928C84.173 20.588 80.9274 20.5193 80.5654 20.5193ZM81.1065 34.8018C80.4913 34.8328 79.8764 34.7353 79.2991 34.5152C78.7217 34.2951 78.194 33.957 77.7479 33.5214C77.3018 33.0858 76.9466 32.5618 76.7039 31.9812C76.4613 31.4005 76.3361 30.7754 76.3361 30.1437C76.3361 29.5119 76.4613 28.8868 76.7039 28.3061C76.9466 27.7255 77.3018 27.2015 77.7479 26.7659C78.194 26.3303 78.7217 25.9922 79.2991 25.7721C79.8764 25.552 80.4913 25.4545 81.1065 25.4855C81.7092 25.4754 82.3079 25.5884 82.8675 25.8179C83.4272 26.0475 83.9367 26.389 84.3664 26.8225C84.7961 27.2561 85.1374 27.773 85.3704 28.3432C85.6033 28.9134 85.7232 29.5254 85.7232 30.1437C85.7232 30.7619 85.6033 31.3739 85.3704 31.9441C85.1374 32.5143 84.7961 33.0312 84.3664 33.4647C83.9367 33.8983 83.4272 34.2398 82.8675 34.4693C82.3079 34.6989 81.7092 34.8119 81.1065 34.8018Z" fill="white"/>
<path d="M99.2319 20.9226H94.1692V39.3913H99.2319V20.9226Z" fill="white"/>
<path d="M107.372 11.9877H102.286V39.379H107.372V11.9877Z" fill="white"/>
<path d="M121.206 11.9605H110.26V39.3855H115.687V29.788H121.217C127.659 29.788 129.961 24.9992 129.961 20.8905C129.949 14.7242 125.559 11.9605 121.206 11.9605ZM120.928 24.993H115.676V16.783H121.103C123.478 16.783 124.551 19.1792 124.551 20.8792C124.58 21.3927 124.509 21.9069 124.343 22.3922C124.177 22.8775 123.919 23.3243 123.584 23.7068C123.249 24.0893 122.843 24.3998 122.39 24.6206C121.937 24.8413 121.446 24.9679 120.945 24.993H120.928Z" fill="white"/>
<path d="M138.923 20.5192C137.071 20.5189 135.261 21.0821 133.722 22.1373C132.183 23.1925 130.983 24.6924 130.275 26.4471C129.567 28.2018 129.383 30.1324 129.745 31.9947C130.107 33.857 131 35.5672 132.311 36.9089C133.621 38.2506 135.29 39.1634 137.106 39.5318C138.922 39.9003 140.805 39.7078 142.514 38.9787C144.224 38.2497 145.684 37.0168 146.71 35.4362C147.737 33.8555 148.283 31.9982 148.279 30.0992C148.323 28.8277 148.11 27.5607 147.655 26.3771C147.2 25.1935 146.513 24.1188 145.635 23.2199C144.757 22.3211 143.708 21.6174 142.553 21.1527C141.398 20.6881 140.163 20.4724 138.923 20.5192ZM138.923 34.6017C138.058 34.6071 137.212 34.3495 136.49 33.8616C135.768 33.3736 135.203 32.6771 134.867 31.8601C134.531 31.0431 134.439 30.1423 134.602 29.2715C134.765 28.4007 135.176 27.5989 135.783 26.9675C136.39 26.3362 137.166 25.9036 138.012 25.7243C138.859 25.5451 139.738 25.6273 140.54 25.9606C141.341 26.2939 142.028 26.8632 142.514 27.5967C142.999 28.3302 143.262 29.195 143.269 30.0817C143.293 30.6506 143.208 31.2188 143.018 31.7539C142.828 32.289 142.537 32.7804 142.162 33.2001C141.787 33.6199 141.335 33.9597 140.831 34.2002C140.328 34.4407 139.784 34.5771 139.229 34.6017H138.923Z" fill="white"/>
<path d="M155.27 20.9226H150.205V39.3913H155.27V20.9226Z" fill="white"/>
<path d="M163.618 23.5642L163.28 24.2254V20.9179H158.161V39.3792H163.247V29.6004C163.247 26.9754 164.487 25.5804 166.81 25.5804C168.903 25.5804 170.176 27.0892 170.176 29.5092V39.3704H175.277V28.3042C175.3 23.2792 172.978 20.4979 168.76 20.4979C167.715 20.4964 166.689 20.7783 165.785 21.3151C164.88 21.8518 164.13 22.6243 163.611 23.5542L163.618 23.5642Z" fill="white"/>
<path d="M96.7029 18.2804C97.3279 18.2818 97.9393 18.0932 98.4597 17.7384C98.9802 17.3835 99.3864 16.8783 99.6269 16.2867C99.8675 15.6951 99.9316 15.0436 99.8112 14.4146C99.6908 13.7856 99.3912 13.2074 98.9504 12.753C98.5096 12.2986 97.9473 11.9885 97.3346 11.8618C96.722 11.7351 96.0865 11.7976 95.5084 12.0414C94.9304 12.2851 94.4359 12.6992 94.0873 13.2312C93.7387 13.7633 93.5517 14.3894 93.55 15.0304V15.0416C93.5489 15.4668 93.6318 15.8878 93.7938 16.2791C94.0327 16.8706 94.4371 17.3762 94.9559 17.7322C95.4748 18.0881 96.0848 18.2784 96.709 18.2791L96.7029 18.2804Z" fill="white"/>
<path d="M152.725 18.2804C153.35 18.2818 153.962 18.0932 154.482 17.7384C155.002 17.3835 155.409 16.8783 155.649 16.2867C155.89 15.6951 155.954 15.0436 155.833 14.4146C155.713 13.7856 155.413 13.2074 154.973 12.753C154.532 12.2986 153.97 11.9885 153.357 11.8618C152.744 11.7351 152.109 11.7976 151.531 12.0414C150.953 12.2851 150.458 12.6992 150.11 13.2312C149.761 13.7633 149.574 14.3894 149.572 15.0304V15.0416C149.569 15.4663 149.65 15.8873 149.81 16.2791C150.049 16.8709 150.453 17.3769 150.972 17.7331C151.491 18.0894 152.101 18.2798 152.725 18.2804Z" fill="white"/>
<path d="M188.491 20.9041H184.947V13.7029H179.858V20.9041H176.468V25.2991H179.858V39.3791H184.944V25.3004H188.488L188.491 20.9041Z" fill="white"/>
<path d="M29.0466 0.86676L33.9289 30.7518H5.67346L29.0466 0.86676Z" fill="white"/>
<path d="M29.8179 0.86676L47.1242 30.7518H34.7003L29.8179 0.86676Z" fill="white"/>
<path d="M5.67346 31.6252H33.9302L35.6961 42.4264L5.67346 31.6252Z" fill="white"/>
<path d="M34.6954 31.6252H47.1181L36.4613 42.4264L34.6954 31.6252Z" fill="white"/>
<path d="M189.841 35.8553C190.135 36.0305 190.377 36.2852 190.539 36.5916C190.711 36.9145 190.799 37.2774 190.794 37.6453C190.799 38.0112 190.712 38.3723 190.539 38.6928C190.376 38.997 190.134 39.2498 189.841 39.4241C189.533 39.6047 189.184 39.6967 188.829 39.6903C188.473 39.6962 188.123 39.6043 187.813 39.4241C187.518 39.2508 187.275 38.9979 187.11 38.6928C186.938 38.3722 186.851 38.0111 186.856 37.6453C186.851 37.2775 186.938 36.9145 187.11 36.5916C187.273 36.2843 187.517 36.0294 187.813 35.8553C188.123 35.6751 188.473 35.5832 188.829 35.5891C189.184 35.5826 189.533 35.6746 189.841 35.8553ZM189.991 38.8715C190.278 38.5308 190.437 38.0953 190.437 37.6447C190.437 37.1941 190.278 36.7585 189.991 36.4178C189.677 36.1093 189.259 35.9371 188.825 35.9371C188.39 35.9371 187.972 36.1093 187.658 36.4178C187.372 36.7594 187.215 37.1946 187.215 37.6447C187.215 38.0948 187.372 38.53 187.658 38.8715C187.972 39.1789 188.389 39.3505 188.823 39.3505C189.256 39.3505 189.674 39.1789 189.987 38.8715H189.991ZM189.558 37.6215C189.457 37.7384 189.32 37.8161 189.169 37.8416L189.768 38.7165L189.26 38.7265L188.706 37.8516H188.477V38.7265H188.048V36.5228H188.976C189.166 36.5125 189.353 36.5763 189.499 36.7015C189.564 36.7632 189.615 36.8386 189.648 36.9226C189.682 37.0066 189.697 37.0971 189.694 37.1878C189.701 37.3411 189.653 37.4917 189.559 37.6115L189.558 37.6215ZM188.482 37.4966H188.95C189.032 37.4999 189.113 37.4748 189.179 37.4253C189.21 37.3997 189.235 37.3668 189.25 37.3293C189.266 37.2918 189.273 37.251 189.269 37.2103C189.272 37.1704 189.266 37.1303 189.25 37.0937C189.234 37.057 189.21 37.025 189.179 37.0003C189.112 36.9538 189.031 36.9306 188.95 36.934H188.482V37.4966Z" fill="white"/>
</svg>
