<svg width="118" height="33" viewBox="0 0 118 33" fill="none" xmlns="http://www.w3.org/2000/svg">
<path fill-rule="evenodd" clip-rule="evenodd" d="M5.09 0C2.28 0 0 2.28 0 5.09V32.37H27.28C30.09 32.37 32.37 30.09 32.37 27.28V0H5.09ZM29.93 2.44H5.09C3.63 2.44 2.44 3.63 2.44 5.09V29.93H27.28C28.74 29.93 29.92 28.75 29.92 27.28V2.44H29.93Z" fill="black"/>
<path d="M6.05078 14.97H10.5108C10.5308 16.42 10.0708 17.83 9.20078 18.98C8.46078 19.99 7.30078 20.61 6.05078 20.64V26.32C8.42078 26.32 10.6808 25.12 12.3608 22.99C14.0908 20.68 15.0108 17.85 14.9708 14.96V6.04004H8.59078C7.19078 6.04004 6.06078 7.17004 6.06078 8.57004V14.96L6.05078 14.97ZM26.3208 17.4H21.8608C21.8408 15.95 22.3008 14.54 23.1708 13.39C23.9108 12.38 25.0708 11.76 26.3208 11.73V6.05004C23.9508 6.05004 21.6908 7.25004 20.0108 9.38004C18.2808 11.69 17.3608 14.52 17.4008 17.41V26.33H23.7808C25.1808 26.33 26.3108 25.2 26.3108 23.8V17.41L26.3208 17.4Z" fill="black"/>
<path d="M46.84 4.2002H41V27.8702H46.84V18.9502H55.76V27.8702H61.6V4.2002H55.76V13.1202H46.84V4.2002Z" fill="black"/>
<path fill-rule="evenodd" clip-rule="evenodd" d="M91.9398 28.1802C96.3198 28.1802 99.1698 24.8002 99.1698 19.1802C99.1698 14.0802 96.3198 10.2102 91.9098 10.2102C89.9898 10.1202 88.1498 11.0402 87.0698 12.6302H86.9698V4.2002H81.5598V27.8702H86.7298V25.5002H86.7998C87.8598 27.2502 89.6898 28.1802 91.9398 28.1802ZM90.4098 23.9102C88.1898 23.9102 86.7898 21.9902 86.7898 19.1802C86.7898 16.3702 87.9498 14.3202 90.3398 14.3202C92.5298 14.3202 93.6898 16.2402 93.6898 19.1502C93.6898 22.0602 92.5298 23.9202 90.4098 23.9202V23.9102ZM69.3098 28.0802C71.8598 28.0802 73.3598 27.1902 74.3498 25.7602H74.4198C74.4998 26.5002 74.7198 27.2102 75.0698 27.8702H80.1598V27.6402C79.6798 27.1802 79.6298 26.3602 79.6298 25.0002V16.4602C79.6298 14.3402 78.9298 12.6902 77.4698 11.6302C76.2398 10.7002 74.5198 10.2402 71.9598 10.2402C66.8198 10.2402 64.2898 12.9202 64.1598 16.0602H69.1398C69.3098 14.6402 70.2698 13.8802 71.9998 13.8802C73.6298 13.8802 74.3198 14.6102 74.3198 15.7002C74.3198 16.8602 73.1898 17.1902 70.0098 17.5902C66.4998 18.0502 63.5098 19.1802 63.5098 22.9202C63.5098 26.2602 65.9298 28.0802 69.3098 28.0802ZM71.0298 24.6402C69.6998 24.6402 68.7098 24.1102 68.7098 22.7502C68.7098 21.3902 69.5698 20.9302 71.6598 20.4702C72.6198 20.2802 73.5498 19.9802 74.4498 19.5802V21.6002C74.4498 23.4202 73.0598 24.6402 71.0298 24.6402Z" fill="black"/>
<path d="M112.73 25.5602C111.6 27.2502 109.68 28.2302 107.65 28.1402C103.73 28.1402 101.1 25.5902 101.1 21.8202V10.7002H107.06V20.6902C107.06 22.5402 107.89 23.5702 109.61 23.5702C111.47 23.5702 112.6 22.1802 112.6 20.1602V10.7002H118.01V27.8602H112.83V25.5502H112.73V25.5602Z" fill="black"/>
</svg>
