<svg width="108" height="107" viewBox="0 0 108 107" fill="none" xmlns="http://www.w3.org/2000/svg">
<path d="M5.59434 106.571H102.762C105.358 106.571 107.463 104.466 107.463 101.869V4.70164C107.463 2.105 105.358 0 102.762 0H5.59434C2.9977 0 0.8927 2.105 0.8927 4.70164V101.869C0.8927 104.466 2.9977 106.571 5.59434 106.571Z" fill="#FFE136"/>
<path fill-rule="evenodd" clip-rule="evenodd" d="M30.5416 18.8066C24.5538 18.8066 19.6993 23.6609 19.6993 29.6489V87.764H77.8144C83.8022 87.764 88.6567 82.9097 88.6567 76.9217V18.8066H30.5416ZM83.4524 24.0109H30.5416C27.4279 24.0109 24.9036 26.5352 24.9036 29.6489V82.5597H77.8144C80.9282 82.5597 83.4524 80.0355 83.4524 76.9217V24.0109Z" fill="#212022"/>
<path d="M32.5864 50.6943L42.0867 50.6943C42.0867 53.9011 41.086 56.9766 39.3043 59.2441C37.5225 61.5117 35.1061 62.7856 32.5864 62.7856V74.8768C37.6259 74.8768 42.4587 72.329 46.0217 67.7939C49.5852 63.2588 51.587 57.1079 51.587 50.6943V31.6937H37.9843C35.0032 31.6937 32.5864 34.1104 32.5864 37.0916V50.6943Z" fill="#212022"/>
<path d="M75.7696 55.8763L66.2693 55.8762C66.2693 52.6695 67.27 49.594 69.0518 47.3264C70.8335 45.0589 73.2499 43.785 75.7696 43.785V31.6937C70.7302 31.6937 65.8973 34.2415 62.3343 38.7766C58.7709 43.3117 56.769 49.4627 56.769 55.8763L56.769 74.8768H70.3717C73.3528 74.8769 75.7696 72.4601 75.7696 69.479V55.8763Z" fill="#212022"/>
</svg>
