<svg width="172" height="100" viewBox="0 0 172 100" fill="none" xmlns="http://www.w3.org/2000/svg">
<g clip-path="url(#clip0_424_3411)">
<path d="M-0.186523 34.6396H5.82615V47.9981H18.5072V34.6396H24.5277V67.4305H18.5072V53.7915H5.82615V67.4305H-0.186523V34.6396Z" fill="black"/>
<path d="M43.5764 56.7499C43.5764 59.4949 41.34 61.7286 38.5957 61.7286C35.8504 61.7286 33.6153 59.4949 33.6153 56.7499V42.6323H27.9132V56.7499C27.9132 62.6397 32.7056 67.4304 38.5957 67.4304C44.4844 67.4304 49.2765 62.6397 49.2765 56.7499V42.6323H43.5764V56.7499Z" fill="black"/>
<path d="M65.1948 42.7978C62.3663 42.7978 60.392 43.6186 58.4853 45.4902V34.6396H52.7646V54.7487C52.7646 62.2757 58.2068 67.4305 64.3208 67.4305C71.1179 67.4305 77.0733 62.1837 77.0733 55.1145C77.0733 48.1348 71.5817 42.7978 65.1948 42.7978ZM65.337 62.1383C61.4607 62.1383 58.4964 58.9009 58.4964 55.1145C58.4964 51.3274 61.4607 48.089 65.337 48.089C68.6215 48.089 71.5874 51.3274 71.5874 55.1145C71.5874 58.9009 68.6215 62.1383 65.337 62.1383Z" fill="black"/>
<path d="M86.6808 44.2388C86.6808 41.3632 88.5969 40.4514 90.6945 40.4514C92.3833 40.4514 94.618 41.7286 96.0763 43.2799L99.8159 38.9011C97.947 36.3926 94.1616 34.6587 91.0596 34.6587C84.8553 34.6587 80.3849 38.2625 80.3849 44.2388C80.3849 55.3231 94.0245 51.8096 94.0245 58.0149C94.0245 59.9286 92.1549 61.6181 90.0121 61.6181C86.6353 61.6181 85.54 59.9758 83.9897 58.2419L79.8379 62.5291C82.4852 65.7682 85.7684 67.4112 89.6918 67.4112C95.5758 67.4112 100.32 63.7618 100.32 58.059C100.32 45.7433 86.6808 49.5755 86.6808 44.2388Z" fill="black"/>
<path d="M115.38 42.4766C109.267 42.4766 103.824 47.6284 103.824 55.157V75.3179H109.544V64.4158C111.451 66.2861 113.425 67.1083 116.254 67.1083C122.641 67.1083 128.133 61.7719 128.133 54.7922C128.133 47.722 122.176 42.4766 115.38 42.4766ZM116.397 61.8177C112.521 61.8177 109.556 58.5759 109.556 54.7922C109.556 51.0052 112.521 47.7668 116.397 47.7668C119.68 47.7668 122.647 51.0052 122.647 54.7922C122.647 58.5759 119.68 61.8177 116.397 61.8177Z" fill="black"/>
<path d="M170.241 62.1382C166.866 62.1382 165.909 60.6792 165.909 58.4431V48.545H171.153V43.528H165.909V36.9131L160.117 39.5126V59.6748C160.117 64.83 163.674 67.4305 168.553 67.4305C169.282 67.4305 170.287 67.3833 170.835 67.2483L172.249 62.0486C171.611 62.0928 170.881 62.1382 170.241 62.1382Z" fill="black"/>
<path d="M155.155 48.8368C154.059 46.95 152.516 45.4374 150.587 44.2986C149.146 43.4596 147.652 42.9271 145.968 42.6985V36.7033C147.652 35.9883 148.697 34.4056 148.697 32.5592C148.697 30.0426 146.679 28.0032 144.164 28.0032C141.648 28.0032 139.594 30.0426 139.594 32.5592C139.594 34.4056 140.579 35.9883 142.263 36.7033V42.7012C140.916 42.8958 139.519 43.3158 138.243 43.9611C135.637 41.9821 127.092 35.4894 122.094 31.6973C122.212 31.2699 122.303 30.8294 122.303 30.3646C122.303 27.5772 120.046 25.3179 117.258 25.3179C114.469 25.3179 112.213 27.5772 112.213 30.3646C112.213 33.1517 114.472 35.4116 117.26 35.4116C118.211 35.4116 119.091 35.1334 119.85 34.6761L120.905 35.4763L135.4 45.92C134.634 46.6236 133.92 47.4239 133.349 48.3218C132.192 50.1523 131.485 52.1664 131.485 54.3634V54.8218C131.485 56.3641 131.778 57.8201 132.277 59.1879C132.717 60.3822 133.359 61.468 134.155 62.4498L129.345 67.2722C128.918 67.1149 128.47 67.0287 128.002 67.0287C126.96 67.0287 125.984 67.4356 125.247 68.1708C124.51 68.9081 124.106 69.8872 124.106 70.9293C124.106 71.971 124.512 72.9501 125.249 73.6867C125.986 74.4237 126.965 74.8298 128.007 74.8298C129.049 74.8298 130.028 74.4237 130.766 73.6867C131.501 72.9501 131.907 71.9707 131.907 70.9293C131.907 70.5261 131.845 70.1327 131.728 69.7589L136.7 64.7859C137.382 65.2568 138.118 65.6532 138.91 65.9951C140.471 66.67 142.194 67.0813 144.08 67.0813H144.425C146.51 67.0813 148.477 66.5915 150.325 65.5899C152.273 64.5313 153.798 63.0837 154.95 61.2356C156.108 59.3825 156.746 57.3351 156.746 55.0825V54.97C156.746 52.7542 156.233 50.7097 155.155 48.8368ZM149.08 59.2687C147.73 60.7685 146.179 61.6923 144.425 61.6923H144.136C143.135 61.6923 142.155 61.4155 141.196 60.912C140.114 60.3576 139.293 59.5668 138.62 58.5654C137.925 57.5826 137.548 56.5096 137.548 55.3718V55.0263C137.548 53.9077 137.762 52.8471 138.303 51.8455C138.881 50.7505 139.662 49.8991 140.701 49.2221C141.721 48.5498 142.81 48.2201 144.023 48.2201H144.136C145.236 48.2201 146.278 48.437 147.26 48.9398C148.262 49.476 149.08 50.2086 149.714 51.1722C150.33 52.1361 150.697 53.1758 150.814 54.3085C150.833 54.544 150.842 54.7851 150.842 55.0155C150.842 56.5527 150.255 57.9764 149.08 59.2687Z" fill="black"/>
</g>
<defs>
<clipPath id="clip0_424_3411">
<rect width="172" height="100" fill="white"/>
</clipPath>
</defs>
</svg>
