<svg width="93" height="100" viewBox="0 0 93 100" fill="none" xmlns="http://www.w3.org/2000/svg">
<g clip-path="url(#clip0_424_3434)">
<path d="M20.2544 18.4793C14.9427 26.2542 15.6043 36.3687 19.6511 44.6202L19.9487 45.2084L20.1498 45.5804C20.187 45.6528 20.2302 45.7241 20.2684 45.7945C20.3388 45.9252 20.4092 46.0509 20.4695 46.1796L20.8566 46.8563L21.0778 47.2283L21.5272 47.9441L21.7283 48.2457C21.9294 48.5675 22.1566 48.8872 22.3798 49.2029C22.3849 49.2109 22.3919 49.22 22.3979 49.228C22.4331 49.2783 22.4723 49.3286 22.4985 49.3788C22.6915 49.6503 22.9006 49.9178 23.1017 50.1832L23.3249 50.4727L23.8729 51.1584L24.082 51.4138C24.3312 51.7147 24.586 52.0111 24.8461 52.3026L24.8622 52.3187C24.8723 52.3318 24.8823 52.3388 24.8924 52.3519C25.1444 52.6362 25.4032 52.9144 25.6686 53.1864L25.9179 53.4417L26.5382 54.0611L26.7916 54.3064C27.0704 54.5735 27.3536 54.836 27.6412 55.0936L27.8021 55.2344L28.5732 55.898L28.8929 56.1574L29.5364 56.6601L29.8803 56.9265L30.8636 57.6454C30.8887 57.6625 30.9108 57.6806 30.9359 57.6977C31.1672 57.8586 31.4015 58.0144 31.6367 58.1702L31.9404 58.3763L33.0383 59.06L33.3419 59.234L34.1664 59.7045C34.3172 59.7869 34.471 59.8654 34.6218 59.9438L35.211 60.2454L35.3467 60.3118L35.588 60.4304L36.5231 60.8708L36.7211 60.9713C37.0816 61.1316 37.445 61.2855 37.811 61.4328L38.0764 61.5394L39.105 61.9275L39.2337 61.9737C39.6135 62.1077 39.9956 62.2351 40.3799 62.3558L40.6563 62.4402C41.0585 62.5609 41.4355 62.7047 41.8397 62.7821C67.5262 67.5639 74.9894 47.0714 74.9894 47.0714C68.7226 55.3862 57.5997 57.578 47.0609 55.1379C46.6617 55.0373 46.2746 54.9197 45.8845 54.8021L45.5909 54.7015C45.2109 54.5829 44.8328 54.4572 44.4588 54.3265L44.303 54.2692C43.9683 54.1486 43.6355 54.0229 43.3046 53.8922L43.0231 53.7796C42.661 53.634 42.3017 53.4819 41.9453 53.3231L41.7301 53.2266L40.8212 52.7943L40.5598 52.6656C40.3237 52.5469 40.0891 52.4252 39.856 52.3006L39.3865 52.0492C39.1028 51.8938 38.8219 51.7332 38.544 51.5676L38.2594 51.4068C37.8894 51.1856 37.5235 50.9543 37.1615 50.7231C37.061 50.6577 36.9644 50.5884 36.8649 50.522L36.0837 49.9932L35.8323 49.8122L35.0934 49.2693L34.7656 49.0179L34.099 48.487L33.8014 48.2457L32.9719 47.5419C32.9438 47.5168 32.9116 47.4917 32.8714 47.4645C32.5758 47.2001 32.2852 46.9286 31.9987 46.6562L31.7534 46.4149L31.126 45.7895L30.8806 45.5381C30.6193 45.2666 30.3629 44.9904 30.1115 44.7097C30.0994 44.6956 30.0854 44.6825 30.0733 44.6695C29.8076 44.3728 29.5474 44.0711 29.2931 43.7646L29.089 43.5173L28.526 42.8104L28.3198 42.549L27.6713 41.6693C21.8198 33.5405 19.7285 22.3301 24.3937 13.1224M36.7432 11.928C32.9025 17.5583 33.1107 25.0929 36.1068 31.047C36.608 32.0468 37.1756 33.0118 37.806 33.9356C38.3811 34.7751 39.0195 35.7755 39.7836 36.4492C40.0601 36.7508 40.3497 37.0524 40.6453 37.3601C40.7197 37.4375 40.7961 37.5109 40.8725 37.5883C41.1594 37.8731 41.4531 38.151 41.7533 38.4218C41.7653 38.4318 41.7764 38.4439 41.7894 38.454C42.1274 38.7543 42.4731 39.046 42.826 39.3287L43.0593 39.5137C43.4107 39.7899 43.7695 40.0568 44.1351 40.314C44.1449 40.322 44.155 40.3297 44.1653 40.3371C44.3261 40.4507 44.492 40.5583 44.6559 40.6669C44.7343 40.7192 44.8087 40.7745 44.8871 40.8237C45.1493 40.9953 45.4151 41.1613 45.6844 41.3214L45.797 41.3878L46.5008 41.7899C46.5833 41.8372 46.6677 41.8784 46.7522 41.9227L47.2549 42.1821C47.28 42.1951 47.3052 42.2052 47.3293 42.2172C47.6681 42.3882 48.009 42.549 48.3578 42.7049C48.4322 42.7381 48.5087 42.7682 48.5851 42.8004C48.8636 42.921 49.1451 43.0377 49.4296 43.1493L49.7916 43.284C50.0482 43.3795 50.3063 43.471 50.5658 43.5585L50.9156 43.6721C51.2846 43.7897 51.6496 43.9365 52.0347 44.0019C71.8666 47.3479 76.4462 31.7961 76.4462 31.7961C72.319 37.8487 64.3269 40.7383 55.7969 38.4841C55.4196 38.3839 55.0451 38.2733 54.6739 38.1523C54.5603 38.1171 54.4487 38.0799 54.3361 38.0518C54.0727 37.9648 53.8109 37.873 53.5508 37.7763L53.1959 37.6416C52.9114 37.541 52.6299 37.4154 52.3514 37.2947C52.275 37.2615 52.1986 37.2314 52.1231 37.1962C51.7733 37.0431 51.4279 36.8798 51.0876 36.7065C50.9126 36.6191 50.7407 36.5276 50.5688 36.4371L50.2691 36.2802C50.048 36.1587 49.8291 36.033 49.6126 35.9032L49.4558 35.8027C49.188 35.6426 48.9232 35.4777 48.6615 35.308C48.5811 35.2557 48.5026 35.2075 48.4222 35.1451L47.9074 34.7983C47.5438 34.5408 47.1864 34.2747 46.8356 34L46.5943 33.8069C42.8612 30.8047 39.9013 26.7026 38.4947 22.0505C37.0197 17.2245 37.3385 11.8104 39.9023 7.41567M50.608 7.03361C48.3438 10.4279 48.1216 14.6426 49.7031 18.3908C51.36 22.3693 54.7553 25.4911 58.7177 26.9701C58.8806 27.0324 59.0444 27.0877 59.2204 27.144L59.4376 27.2144C59.6708 27.2888 59.9031 27.3752 60.1434 27.4215C71.0944 29.5761 74.0644 21.6987 74.8547 20.5394C72.2526 24.355 67.8801 25.2709 62.5152 23.9448C62.0929 23.8392 61.6254 23.6833 61.2081 23.5366C60.6831 23.3466 60.1686 23.1288 59.6668 22.884C58.712 22.4158 57.8066 21.853 56.9642 21.204C52.1533 17.494 49.1702 10.4178 52.3031 4.65479" fill="black"/>
<path d="M48.2252 73.0635H44.8269C44.6378 73.0635 44.4508 73.2143 44.4106 73.3993L41.9976 84.5665C41.9574 84.7505 41.7704 84.9013 41.5824 84.9013H39.1764C36.7956 84.9013 37.0711 83.2554 37.5677 81.0003L37.5828 80.9319L37.8714 79.3936L37.996 78.7602L39.094 73.3993C39.1322 73.2143 39.0085 73.0625 38.8195 73.0625H35.3307C35.2345 73.0658 35.142 73.1004 35.0673 73.161C34.9925 73.2216 34.9396 73.3049 34.9164 73.3983L33.345 80.8525C32.4803 84.7978 32.7095 88.56 37.4069 88.6777L37.5426 88.6807H44.9143C45.1033 88.6807 45.2893 88.5299 45.3296 88.3449L48.5087 73.3983C48.5489 73.2133 48.4253 73.0625 48.2372 73.0625L48.2252 73.0635ZM61.7853 84.9405C61.9743 84.9405 62.0869 85.0913 62.0597 85.2763L61.73 86.89" fill="black"/>
<path d="M52.6932 82.8631C52.6902 82.6862 52.8913 82.3825 53.0803 82.3825L52.656 82.3755C52.4549 84.2999 52.6932 82.8631 52.6932 82.8631ZM61.7852 84.9403C61.9743 84.9403 62.0869 85.0911 62.0597 85.2761L61.6756 87.1522" fill="black"/>
<path d="M55.4621 88.8735H55.3033H55.4822H55.4621ZM5.49481 82.9033L6.02266 80.5627L5.41941 83.2371L5.34903 83.573L5.49582 82.9013L5.49481 82.9033ZM11.8149 73.0251H8.08176C7.9853 73.0289 7.89258 73.0634 7.81714 73.1237C7.74171 73.1839 7.68752 73.2667 7.6625 73.3599L6.95468 76.4767C6.94279 76.517 6.9408 76.5597 6.9489 76.6009C6.95699 76.6422 6.97492 76.6809 7.00117 76.7138C7.02742 76.7467 7.06122 76.7727 7.09968 76.7897C7.13815 76.8067 7.18015 76.8142 7.22212 76.8115H10.9844C11.1734 76.8115 11.3604 76.6607 11.4006 76.4767L12.0843 73.3529C12.1245 73.1689 12.0039 73.0181 11.8129 73.0181L11.8149 73.0251ZM0.158049 95.0066L3.23664 95.0307C2.32774 95.0307 0.826653 95.0136 0.157043 95.0056L0.158049 95.0066Z" fill="black"/>
<path d="M10.7331 77.8864H6.96978C6.87332 77.8902 6.7806 77.9247 6.70516 77.985C6.62973 78.0452 6.57554 78.128 6.55052 78.2212L5.49483 82.9025L5.34804 83.5741L4.34262 88.3528C4.29281 88.5758 4.23241 88.7962 4.16164 89.0134C4.16164 89.0134 3.45785 91.1047 2.27749 91.0816L1.10617 91.0594C1.0101 91.0621 0.917379 91.0954 0.841454 91.1543C0.765529 91.2132 0.710344 91.2948 0.683897 91.3872L-0.0953025 94.6679C-0.107613 94.708 -0.110091 94.7505 -0.102527 94.7917C-0.0949636 94.833 -0.0775802 94.8718 -0.0518455 94.905C-0.0261108 94.9381 0.00721921 94.9645 0.0453291 94.9821C0.0834391 94.9996 0.125209 95.0077 0.167112 95.0057L3.24671 95.0308C6.19862 95.0308 7.75401 93.395 8.75239 88.6897L11.0146 78.2333C11.0548 78.0493 10.9321 77.8985 10.7431 77.8985L10.7331 77.8864ZM64.1832 88.6826C63.9941 88.6826 63.8815 88.5318 63.9117 88.3468L66.742 75.0894" fill="black"/>
<path d="M63.9529 88.5146C63.9298 88.4221 63.9429 88.1959 63.9831 88.0119L65.3263 81.718L63.9107 88.3467C63.8705 88.5317 63.9932 88.6825 64.1822 88.6825H64.526C64.337 88.6825 63.9751 88.6071 63.9529 88.5146ZM67.8942 88.6071C67.7916 88.6473 67.5523 88.6825 67.3633 88.6825H67.7072C67.8031 88.6787 67.8953 88.6438 67.9696 88.5831C68.044 88.5223 68.0966 88.439 68.1194 88.3457L68.1878 88.0099C68.1506 88.1949 67.9867 88.5659 67.8861 88.6071H67.8942ZM79.8567 75.9771L80.0125 76.6205C80.0557 76.8045 79.9361 76.9543 79.7481 76.9553" fill="black"/>
<path d="M69.1942 83.019L69.3329 82.3514L69.8728 79.8228L69.2615 82.6862L69.1942 83.019ZM66.7882 74.8711L66.6706 75.4241L65.3273 81.718L66.743 75.0893L66.7882 74.8721V74.8711Z" fill="black"/>
<path d="M80.0135 76.6206L79.8576 75.9771L79.6264 74.9717C79.3207 73.7853 78.4239 73.0986 76.4754 73.0986L67.5071 73.0926C67.4109 73.0959 67.3184 73.1305 67.2437 73.1911C67.1689 73.2517 67.116 73.335 67.0928 73.4284L66.9541 74.0849L66.753 75.0773L63.9941 87.9999C63.9539 88.1849 63.9408 88.4021 63.964 88.5027C63.9871 88.6032 64.349 88.6706 64.5371 88.6706H67.3723C67.5614 88.6706 67.7996 88.6364 67.9032 88.5951C68.0068 88.5539 68.1586 88.193 68.2048 87.9979L69.2806 82.6752L70.4318 77.2822C70.4721 77.0982 70.6581 76.9484 70.8461 76.9474L79.7672 76.9433C79.9552 76.9433 80.0748 76.7925 80.0316 76.6085L80.0135 76.6206ZM91.4984 70.7962L90.8117 70.7992H87.9563C87.8518 70.8055 87.7497 70.834 87.6572 70.8829C87.5645 70.9318 87.4835 70.9999 87.4194 71.0828L81.1054 80.3326C80.9988 80.4885 80.8771 80.4653 80.8339 80.2823L80.3694 78.2444C80.3444 78.1511 80.2902 78.0683 80.2148 78.0081C80.1393 77.9479 80.0466 77.9133 79.9501 77.9096H75.8913C75.7022 77.9096 75.5896 78.0574 75.6419 78.2393L77.4517 84.6117C77.504 84.7927 77.507 85.0913 77.4617 85.2753L76.6574 88.3589C76.6437 88.3984 76.6401 88.4408 76.6469 88.4821C76.6537 88.5233 76.6707 88.5623 76.6964 88.5953C76.722 88.6284 76.7555 88.6545 76.7938 88.6713C76.8322 88.6882 76.8741 88.6951 76.9158 88.6917H80.9375C81.1265 88.6917 81.3195 88.5409 81.3658 88.3599L82.1701 85.2763C82.2332 85.0592 82.3317 84.854 82.4617 84.669L92.723 71.0627C92.8366 70.9118 92.7753 70.7892 92.5863 70.7912L91.5104 70.7982L91.4984 70.7962ZM59.2486 78.7762C59.2244 78.9773 59.0354 79.1281 58.8464 79.1281H53.6986C53.5207 79.1281 53.4302 79.0075 53.4573 78.8567L53.4614 78.8295L53.4845 78.742C53.9872 77.435 54.9775 76.5774 56.8587 76.5774C58.9771 76.5774 59.3903 77.613 59.2465 78.7762H59.2486ZM57.7384 72.8362C51.1328 72.8362 49.5674 76.8458 48.6896 80.8926C47.8109 85.0179 47.8873 88.8757 54.7222 88.8757H55.806L56.6405 88.8726L60.9899 88.8465C61.0854 88.8421 61.1768 88.8069 61.2506 88.7462C61.3243 88.6854 61.3765 88.6025 61.3991 88.5097L62.0597 85.2803C62.0979 85.0953 61.9743 84.9445 61.7852 84.9445H55.6401C53.1969 84.9445 52.47 84.295 52.7375 82.3857H62.5604C62.7213 82.3827 62.8671 82.2851 62.9244 82.1323C62.9344 82.1052 62.9445 82.076 62.9485 82.0469C64.4064 76.5472 63.9881 72.8402 57.7404 72.8402L57.7384 72.8362ZM26.5161 78.7541L26.4236 79.0829L25.6816 81.7131L24.9396 84.3412C24.9088 84.4339 24.8506 84.515 24.7727 84.5739C24.6948 84.6328 24.6008 84.6666 24.5033 84.671H20.5761C17.5981 84.671 16.8732 82.3414 17.5981 78.9059C18.322 75.392 19.7446 73.2072 22.6754 72.986C26.681 72.6844 27.4813 75.5016 26.5161 78.7531V78.7541ZM29.2086 84.4699C29.2086 84.4699 31.0586 79.9757 31.4809 77.3787C32.054 73.903 30.3146 68.8628 23.5934 68.8628C16.9104 68.8628 14.0087 73.6747 12.9018 78.917C11.7958 84.1854 13.2456 88.8063 19.8894 88.7701L30.0301 88.7329C30.1273 88.7282 30.2207 88.6937 30.2976 88.6339C30.3744 88.5742 30.4309 88.4922 30.4594 88.3991L31.314 85.1435C31.3278 85.1041 31.3316 85.0619 31.325 85.0206C31.3184 84.9794 31.3016 84.9404 31.2761 84.9073C31.2507 84.8741 31.2174 84.8479 31.1792 84.8308C31.1411 84.8138 31.0993 84.8066 31.0576 84.8097L29.4218 84.7997C29.2609 84.7987 29.1704 84.6951 29.1885 84.5584C29.1926 84.5333 29.1986 84.5081 29.2086 84.482V84.4699Z" fill="black"/>
<path d="M62.2909 81.4625C62.2909 81.5872 62.1904 81.6877 62.0657 81.6877C61.9411 81.6877 61.8405 81.5872 61.8405 81.4625C61.8405 81.3379 61.9411 81.2373 62.0657 81.2373C62.1904 81.2373 62.2909 81.3379 62.2909 81.4625Z" fill="black"/>
</g>
<defs>
<clipPath id="clip0_424_3434">
<rect width="93" height="100" fill="white"/>
</clipPath>
</defs>
</svg>
