<svg width="100" height="100" viewBox="0 0 100 100" fill="none" xmlns="http://www.w3.org/2000/svg">
<path fill-rule="evenodd" clip-rule="evenodd" d="M46.5844 89.3609C44.6961 89.1922 42.7883 89.25 40.8883 89.2351C40.7031 89.2343 40.5156 89.4382 40.3297 89.5468C40.493 89.6523 40.6531 89.8421 40.8211 89.85C41.7117 89.8937 42.0547 90.4203 42.0625 91.2195C42.0789 92.9617 42.1008 94.7062 42.0539 96.4468C42.0242 97.5257 41.4336 97.9937 40.3453 97.8078C39.8016 97.714 39.2094 97.5101 38.7914 97.1695C37.8492 96.4023 37.0016 95.5179 36.0445 94.6132L36.6141 94.4007C38.1 93.8359 38.757 92.957 38.6484 91.6773C38.55 90.5101 37.5852 89.4976 36.1227 89.3734C34.2656 89.2164 32.3906 89.2586 30.5234 89.2351C30.382 89.2328 30.2391 89.3968 30.0961 89.4836C30.2391 89.6062 30.3774 89.8312 30.5242 89.8375C31.5836 89.8781 31.8399 90.5351 31.8359 91.4351C31.8274 93.0502 31.8266 94.6653 31.8336 96.2804C31.8383 97.1586 31.5406 97.7523 30.5625 97.8343C30.3992 97.8484 30.2516 98.0422 30.0961 98.1531C30.2875 98.2523 30.4774 98.4343 30.6711 98.4375C32.1281 98.4609 33.5867 98.4617 35.0438 98.4359C35.2297 98.4336 35.4125 98.2367 35.5961 98.1296L35.1078 97.8164C34.732 97.5773 34.118 97.4054 34.0289 97.0859C33.818 96.3312 33.857 95.5078 33.7953 94.7132L34.1445 94.5984C34.3688 94.8484 34.6047 95.0882 34.8149 95.3492C35.5117 96.2117 36.1852 97.0921 36.8992 97.9398C37.0852 98.1601 37.3891 98.4281 37.6367 98.4265C40.7391 98.4046 43.8492 98.4468 46.9406 98.2367C48.7094 98.1164 50.0844 97.0945 50.6586 95.289C51.6 92.3273 49.8055 89.6468 46.5844 89.3609ZM33.5938 93.6914V90.1632C34.375 90.057 35.5899 89.9101 36.0844 90.7507C36.4102 91.3039 36.3938 92.2453 36.1578 92.8523C35.736 93.9351 34.375 93.7164 33.5938 93.6914ZM48.1727 96.007C47.6586 97.1586 45.8188 97.9 44.6805 97.4461C44.3914 97.3312 44.0797 96.8429 44.0711 96.5187C44.0164 94.4132 44.043 92.3039 44.043 90.1281C45.5672 90.0804 47.0953 89.9375 48.0141 91.3804C48.9445 92.8429 48.8609 94.4656 48.1727 96.007ZM78.7281 97.3664C77.9578 97.6031 76.8883 97.675 76.2297 97.3132C74.9383 96.6039 75.7727 95.2226 75.5313 94.1429C77.1828 93.9953 77.1781 93.9961 77.7508 95.3796C77.7977 95.4937 77.9547 95.5601 78.061 95.65C78.1555 95.4828 78.3281 95.3179 78.332 95.1492C78.3563 94.0711 78.3516 92.9921 78.332 91.914C78.3289 91.7695 78.1836 91.6281 78.0274 91.3484C77.7578 91.95 77.7594 92.5711 77.4078 92.8218C76.9883 93.121 75.7813 93.1015 75.7813 93.2421V90.0664C76.5625 90.1211 77.4469 90.2109 78.2945 90.214C79.4024 90.2179 79.2906 91.3757 79.8274 91.9359L80.0641 91.8297L79.9047 89.3187C77.6008 89.0242 72.2875 89.1718 71.7359 89.5781C71.9078 89.6796 72.0461 89.8335 72.1906 89.8359C73.25 89.8507 73.5274 90.5054 73.532 91.4086C73.5367 92.9304 73.5742 94.4531 73.5422 95.975C73.5039 97.7867 72.468 98.3796 70.9508 97.3406C69.8774 96.6062 68.9922 95.5953 68.2234 94.8914C69.0336 94.0828 69.9547 93.5117 70.3531 92.6898C71.0813 91.1836 69.868 89.5476 67.9055 89.364C66.1117 89.1968 64.2969 89.2562 62.4906 89.239C62.3149 89.2375 62.1383 89.4031 61.9617 89.4914C62.1109 89.6117 62.2578 89.8312 62.4117 89.8359C63.4805 89.8734 63.7188 90.5679 63.7313 91.4437C63.75 92.7125 63.7602 93.9804 63.7609 95.2484C63.7633 97.2812 63.7586 97.2812 62.0055 97.989L61.8836 98.2257C62.1258 98.3062 62.3422 98.4375 62.5602 98.4406C63.9875 98.4593 65.4141 98.4601 66.8414 98.4398C67.0539 98.4359 67.2641 98.2859 67.4758 98.2031C67.2695 98.0664 67.0742 97.8375 66.8563 97.8125C66.1149 97.7289 65.7922 97.2843 65.7484 96.614C65.7055 95.9734 65.7391 95.3273 65.7391 94.425C66.1188 94.7796 66.3547 94.9554 66.5359 95.1765C67.2594 96.0593 67.9953 96.9343 68.6656 97.8578C69.0063 98.3265 69.3836 98.4664 69.9414 98.4617C73.1766 98.4382 76.4227 98.4515 79.6594 98.4468C79.8992 98.4468 80.4688 98.4078 80.4688 98.3796V95.9609C79.6875 96.4515 79.3844 97.1664 78.7281 97.3664ZM65.625 93.6843V90.1804C67.1875 89.9757 68.3781 90.5109 68.425 91.8375C68.4734 93.2132 67.9688 93.7664 65.625 93.6843ZM20.5977 86.8757C19.918 86.3328 15.7914 86.375 15.2641 86.9601C15.5695 87.0414 15.8227 87.1437 16.0844 87.1742C16.8789 87.2632 17.1531 87.7562 16.9422 88.4382C16.3344 90.4078 15.6633 92.3578 14.9391 94.5546C14.775 94.1336 14.7024 93.9687 14.6461 93.7976C13.9399 91.6664 13.2469 89.532 12.5195 87.4078C12.4086 87.0836 12.1438 86.8125 11.95 86.5171C11.7539 86.8031 11.4844 87.0632 11.3742 87.3796C10.5734 89.6742 9.80548 91.9789 9.02736 94.2812L8.81876 94.3046C8.24454 92.5632 7.66173 90.8265 7.09689 89.0812C6.64923 87.7015 6.75236 87.5367 8.17345 87.1078C8.32111 87.0617 8.43829 86.9195 8.57032 86.8211C8.44845 86.7179 8.32657 86.5257 8.20314 86.525C6.42741 86.5056 4.65153 86.5053 2.87579 86.5242C2.75157 86.5257 2.62814 86.7156 2.5047 86.8171C2.60314 86.9117 2.69845 87.0859 2.80157 87.0906C4.38126 87.1671 4.76798 88.3625 5.1547 89.5648C6.05626 92.3648 6.95626 95.1664 7.86876 97.964C7.97501 98.2898 8.15236 98.5937 8.29611 98.907L8.57267 98.8898L11.4008 90.4617L14.1961 98.9156L14.5258 98.8922C14.6438 98.589 14.775 98.2898 14.8789 97.9812C15.8774 95.0093 16.8789 92.0398 17.8617 89.0632C18.2289 87.95 18.8258 87.1437 20.1149 87.0937C20.2656 87.0882 20.4125 86.9632 20.5977 86.8757ZM58.543 86.7234C56.2578 86.4578 53.9289 86.5648 51.6188 86.5304C51.5 86.5281 51.3774 86.7257 51.1594 86.914C51.4563 87.0117 51.6203 87.107 51.7883 87.114C52.8992 87.1593 53.3945 87.814 53.407 88.8375C53.4359 91.2445 53.4391 93.6515 53.4047 96.0586C53.3899 97.0515 52.9617 97.7617 51.8188 97.8046C51.643 97.8117 51.4766 98.0445 51.3063 98.1734C51.5109 98.2648 51.7133 98.4336 51.9195 98.4359C53.6305 98.4562 55.3438 98.457 57.0555 98.4343C57.2516 98.432 57.4453 98.2492 57.6414 98.1507C57.4625 98.0304 57.2938 97.8211 57.1063 97.8054C56.2774 97.7343 55.6914 97.3867 55.6031 96.5164C55.4977 95.4875 55.4609 94.45 55.3891 93.3148C56.2078 93.3148 56.9063 93.3679 57.5945 93.3046C59.2258 93.1562 60.6672 92.6211 61.2516 90.9109C61.9039 89.0039 60.7063 86.9742 58.543 86.7234ZM58.8695 91.2414C58.3649 92.1703 57.8125 92.3703 55.4688 92.1531V87.5531C56.25 87.5976 57.95 87.2375 58.7781 88.4547C59.3758 89.3359 59.3758 90.3101 58.8695 91.2414ZM27.9109 90.1968C25.7899 88.3992 22.3727 88.4789 20.307 90.3304C18.3914 92.0476 18.1477 94.7445 19.7516 96.7304C20.8813 98.1296 22.4055 98.7171 24.2781 98.7984C24.6078 98.7578 25.0578 98.7492 25.4828 98.6414C27.5281 98.1226 29.0328 96.9804 29.5602 94.8476C30.0274 92.957 29.3469 91.4148 27.9109 90.1968ZM26.5375 96.7773C25.1938 98.4914 22.4485 98.1296 21.4211 96.2023C20.732 94.9109 20.6742 93.5398 21.1211 92.1554C21.625 90.5992 22.6594 89.8343 24.1985 89.8375C25.743 89.8406 26.7938 90.6023 27.2953 92.1414C27.4695 92.6773 27.5375 93.2476 27.6531 93.8015L27.8281 93.9164C27.4094 94.8796 27.1641 95.9789 26.5375 96.7773ZM95.3906 93.1922C94.5445 92.7648 93.6672 92.3804 92.8789 91.8617C92.5774 91.6632 92.2695 91.082 92.3547 90.7882C92.4594 90.4281 92.9281 90.0375 93.318 89.9211C94.4539 89.5804 95.4492 90.282 95.9102 91.575C96.0016 91.832 96.3664 92.0406 96.5313 92.2711C96.5984 92.2211 96.8735 92.1695 96.8735 92.1187V88.7C96.0922 89.0507 96.1024 89.2531 96.0367 89.3109C94.9688 89.1757 94.0367 88.957 93.182 88.9828C92.0297 89.0164 91.0641 89.8179 90.8047 90.764C90.5141 91.8226 90.8852 92.8664 91.8672 93.5906C92.1445 93.7945 92.4508 93.9515 92.7586 94.1101C93.4617 94.4703 94.1828 94.7898 94.8695 95.1804C95.4945 95.5359 96.0727 96.0062 95.8211 96.8398C95.5438 97.7507 94.7609 97.8492 93.9609 97.7671C92.5586 97.6226 91.7719 96.764 91.3633 95.4703C91.3016 95.275 91.0906 95.125 90.9508 94.9547C90.8609 95.0648 90.6953 95.1734 90.693 95.2851C90.675 96.439 90.6813 97.5929 90.6813 98.7468L90.9781 98.8375L91.6477 97.9578C92.0859 98.1664 92.5235 98.4296 92.9977 98.5914C94.7156 99.1711 96.6328 98.3945 97.2649 96.8937C97.8891 95.4148 97.232 94.1242 95.3906 93.1922ZM86.9383 93.1796C86.1742 92.7961 85.4047 92.4257 84.6524 92.0211C84.1156 91.7343 83.6086 91.2601 83.9602 90.6703C84.2 90.2687 84.8211 89.9343 85.3094 89.875C86.3477 89.7484 87.0555 90.4117 87.5039 91.6086C87.5938 91.8476 87.8234 92.0343 87.9883 92.2445L88.2352 92.0789C88.2352 91.1289 88.2367 90.1796 88.2313 89.2304C88.2305 89.1453 88.1742 89.0601 88.0852 88.8125L87.243 89.5046C87.0859 89.4234 86.8969 89.3148 86.6961 89.2281C85.0563 88.5218 83.0945 89.0859 82.4547 90.4437C81.8125 91.8086 82.5688 93.2546 84.3633 94.1304C85.161 94.5118 85.9451 94.9212 86.7141 95.3578C87.2836 95.6867 87.6891 96.2828 87.35 96.8617C87.0984 97.2929 86.4727 97.6781 85.9656 97.7507C84.7531 97.9273 83.6969 97.2031 83.1742 96.0445C83.0594 95.7882 83.0281 95.4898 82.8969 95.2445C82.8258 95.1125 82.6211 95.0531 82.4774 94.9617C82.4024 95.0836 82.2656 95.2054 82.2641 95.3297C82.2467 96.3442 82.2462 97.3589 82.2625 98.3734C82.2649 98.5 82.3711 98.6984 82.4703 98.7296C82.575 98.7625 82.7727 98.6671 82.8531 98.5671C82.9859 98.4 83.0586 98.1836 83.1883 97.9257C83.6797 98.1656 84.0883 98.4156 84.5313 98.5718C86.2266 99.1734 88.2063 98.4148 88.8414 96.9492C89.4914 95.4437 88.8274 94.1265 86.9383 93.1796ZM50.1344 76.3265C70.8297 76.2961 87.582 59.4617 87.5813 38.6961C87.5813 18.2687 70.9063 1.4445 50.9844 1.08903C30.0625 0.716372 12.5805 17.6937 12.575 38.2812C12.568 59.4601 29.2453 76.3578 50.1344 76.3265ZM50.0734 2.91168C69.9422 2.90543 85.7727 19.0476 85.7664 39.3078C85.7602 58.4343 69.5102 74.4359 50.0891 74.4398C30.3024 74.4437 14.3899 58.4007 14.3906 38.4492C14.3914 19.0117 30.5508 2.91793 50.0734 2.91168ZM35.0781 21.7898C35.4031 22.8718 34.4938 23.2492 33.5266 23.3234C32.5102 23.4031 31.4922 23.4789 30.3117 23.5687L41.9797 58.3297C42.2602 57.8711 42.3758 57.7422 42.4266 57.5914C44.5844 51.1422 46.7547 44.6968 48.8578 38.2289C49.05 37.639 48.9547 36.8578 48.7438 36.2515C47.6313 33.0398 46.2985 29.8976 45.3227 26.6468C44.6547 24.4211 43.7695 22.9812 41.1399 23.239C40.6914 23.2828 40.1453 22.3187 39.643 21.8203C40.25 21.4586 40.8524 20.7922 41.4649 20.7828C46.8218 20.7007 52.1798 20.7023 57.5367 20.7875C58.15 20.7976 58.7531 21.482 59.361 21.8531C58.8289 22.339 58.3703 23.0672 57.7492 23.2547C56.7524 23.5554 55.6469 23.4984 54.4539 23.6047L66.1359 58.3578C67.9063 52.4796 69.5524 47.0812 71.1531 41.6703C72.582 36.839 71.7305 32.3281 69.1477 28.0734C68.3711 26.7937 67.4164 25.5523 66.9774 24.157C66.4766 22.5695 66.0617 20.7625 66.3274 19.1711C66.7766 16.4726 68.8469 15.1328 71.6492 14.8765C56.3164 0.648404 32.225 5.74137 23.3477 21.2015C26.7649 21.0429 30.0274 20.8359 33.2922 20.7922C33.9102 20.7843 34.9328 21.3054 35.0781 21.7898ZM41.1867 68.8664C41.1149 69.075 41.1109 69.3062 41.0555 69.6531C47.6633 71.4843 54.1422 71.3523 60.7742 69.1179L50.6422 41.3679C47.4 50.7929 44.2899 59.8289 41.1867 68.8664ZM36.0813 67.6117L20.8172 25.7398C13.9313 39.1906 19.1695 59.7132 36.0813 67.6117ZM82.2266 40.7062C82.7102 34.3461 80.5172 25.5398 78.6219 24.3289C78.4109 26.6679 78.5578 29.2718 77.8867 31.6429C76.307 37.2304 74.375 42.7218 72.5141 48.2281C70.4914 54.2125 68.3891 60.1703 66.3203 66.1398C76.0367 60.3796 81.3766 51.8789 82.2266 40.7062Z" fill="black"/>
</svg>
