<svg width="356" height="73" viewBox="0 0 356 73" fill="none" xmlns="http://www.w3.org/2000/svg">
<g clip-path="url(#clip0_225_3283)">
<path d="M199.971 1.33984H186.058L158.249 73.0001H182.982L188.272 56.1774C186.224 55.127 184.591 53.423 183.634 51.339C182.677 49.2549 182.452 46.9117 182.996 44.6856C183.54 42.4594 184.82 40.4795 186.632 39.0635C188.444 37.6476 190.681 36.8778 192.986 36.8778C195.291 36.8778 197.529 37.6476 199.34 39.0635C201.152 40.4795 202.432 42.4594 202.976 44.6856C203.52 46.9117 203.295 49.2549 202.338 51.339C201.382 53.423 199.748 55.127 197.7 56.1774L202.981 73.0001H227.699L199.971 1.33984Z" fill="black"/>
<path d="M245.088 0.569591H270.181C275.919 0.457134 281.642 1.171 287.174 2.68898C309.415 9.2383 309.482 45.2435 284.743 51.3481L302.935 72.4872H287.922L270.598 52.8563H258.795V72.4872H245.088V0.569591ZM258.81 39.3811H274.15C278.529 39.3811 289.662 39.4946 289.662 26.5133C289.662 14.0523 277.269 13.8556 273.627 13.8556H258.795L258.81 39.3811Z" fill="black"/>
<path d="M338.116 0.815674H324.497V72.4873H338.116V0.815674Z" fill="black"/>
<path d="M34.8346 19.8241L46.4646 50.4058H23.6711L34.8346 19.8241ZM27.8708 0.55835L-0.00195312 72.4854H15.2584L18.6052 63.213H51.0526L54.6697 72.4854H69.4257L41.7814 0.55835H27.8708Z" fill="black"/>
<path d="M150.346 32.6029H115.346V45.0354H135.577C135.426 47.5673 134.652 50.0235 133.322 52.1881C131.992 54.3527 130.147 56.1593 127.95 57.4491C124.411 59.4459 120.389 60.4425 116.32 60.3311C113.025 60.4174 109.746 59.8435 106.679 58.6435C103.612 57.4436 100.819 55.6421 98.4671 53.3465C96.1328 51.1615 94.2836 48.5159 93.0378 45.5793C91.7921 42.6426 91.1773 39.4795 91.2329 36.2929C91.1808 33.2065 91.7725 30.1429 92.9707 27.2951C94.1689 24.4472 95.9477 21.877 98.1948 19.7465C100.467 17.5103 103.171 15.7541 106.144 14.5834C109.117 13.4127 112.298 12.8517 115.494 12.9341C121.443 12.8984 127.233 14.8422 131.942 18.4559L138.503 6.38292C130.869 0.99549 120.552 -0.00174913 115.428 -0.00174913C110.099 -0.179423 104.797 0.815417 99.9 2.91166C95.0033 5.0079 90.633 8.15374 87.1017 12.1242C81.0723 18.6714 77.7836 27.2588 77.9067 36.134C77.8821 42.7138 79.5955 49.1848 82.8754 54.9001C86.0386 60.528 90.7199 65.1661 96.392 68.2921C102.348 71.4982 109.038 73.1187 115.81 72.9963C121.997 73.1422 128.113 71.6561 133.534 68.6894C138.697 65.7107 142.955 61.4025 145.861 56.219C149.031 50.7692 150.599 41.6198 150.599 35.536L150.514 32.6975L150.346 32.6029Z" fill="black"/>
<path d="M351.052 68.2656H351.699C351.876 68.2737 352.052 68.2545 352.223 68.2089C352.353 68.1807 352.475 68.1224 352.579 68.0385C352.665 67.9638 352.73 67.8688 352.769 67.7623C352.81 67.6405 352.826 67.5117 352.815 67.3838C352.821 67.2626 352.811 67.1412 352.786 67.0224C352.74 66.9255 352.675 66.8381 352.596 66.765C352.51 66.689 352.403 66.6397 352.29 66.6231C352.127 66.5805 351.959 66.5607 351.791 66.5644H351.054L351.052 68.2656ZM351.052 68.9109V70.8808H350.186V65.8983H351.789C352.298 65.8613 352.806 65.9816 353.243 66.2428C353.396 66.3683 353.516 66.5274 353.596 66.7074C353.676 66.8874 353.712 67.0834 353.702 67.2798C353.717 67.6025 353.611 67.9191 353.405 68.1691C353.174 68.4402 352.856 68.6234 352.505 68.6876C352.565 68.7274 352.62 68.7745 352.668 68.8277C352.727 68.8841 352.773 68.9525 352.804 69.0282L354.085 70.8808H353.262C353.137 70.8808 353.03 70.8525 352.984 70.7503L351.842 69.0472C351.807 69.0034 351.765 68.9652 351.718 68.9336C351.651 68.9128 351.58 68.9025 351.509 68.9033L351.052 68.9109ZM348.311 68.4C348.31 68.7251 348.358 69.0485 348.454 69.3594C348.533 69.6606 348.648 69.9515 348.796 70.2261C348.952 70.4853 349.135 70.727 349.343 70.947C349.557 71.1589 349.796 71.3433 350.056 71.4958C350.326 71.6561 350.616 71.7784 350.919 71.8592C351.23 71.9405 351.549 71.9837 351.871 71.9878C352.35 71.9917 352.826 71.8963 353.266 71.7078C353.693 71.5307 354.079 71.2715 354.405 70.9451C354.73 70.6187 354.987 70.2316 355.16 69.806C355.339 69.3577 355.432 68.8802 355.435 68.3981C355.438 67.7544 355.271 67.1211 354.949 66.5625C354.79 66.3065 354.607 66.0653 354.405 65.8416C354.189 65.617 353.94 65.4257 353.668 65.2739C353.408 65.1046 353.124 64.9769 352.824 64.8954C352.513 64.8198 352.193 64.781 351.873 64.78C351.396 64.7789 350.924 64.8728 350.485 65.0563C350.059 65.2406 349.672 65.5025 349.343 65.8283C349.022 66.1628 348.764 66.5519 348.581 66.977C348.4 67.4245 348.305 67.9023 348.303 68.3849M347.732 68.3849C347.732 68.0165 347.789 67.6502 347.899 67.2987C347.991 66.9578 348.125 66.6298 348.299 66.3222C348.482 66.0162 348.704 65.7351 348.96 65.4858C349.206 65.2375 349.488 65.0265 349.796 64.8595C350.097 64.6726 350.426 64.5341 350.77 64.4488C351.487 64.2433 352.247 64.2433 352.963 64.4488C353.308 64.5341 353.637 64.6726 353.938 64.8595C354.239 65.0383 354.518 65.2511 354.77 65.4934C355.028 65.7393 355.248 66.021 355.425 66.3298C355.603 66.6358 355.739 66.9642 355.829 67.3062C355.937 67.6583 355.992 68.0243 355.992 68.3924C355.993 68.7594 355.938 69.1243 355.829 69.4748C355.739 69.8217 355.603 70.1552 355.425 70.4664C355.248 70.7681 355.027 71.0423 354.77 71.2801C354.521 71.5271 354.241 71.742 353.938 71.9197C353.638 72.11 353.309 72.2506 352.963 72.336C352.247 72.5434 351.486 72.5434 350.77 72.336C350.425 72.2506 350.096 72.11 349.796 71.9197C349.487 71.7511 349.207 71.5353 348.966 71.2801C348.71 71.039 348.488 70.7654 348.305 70.4664C348.131 70.1537 347.996 69.8206 347.905 69.4748C347.793 69.1249 347.736 68.7597 347.738 68.3924" fill="black"/>
</g>
<defs>
<clipPath id="clip0_225_3283">
<rect width="356" height="73" fill="black"/>
</clipPath>
</defs>
</svg>
