<?xml version="1.0" encoding="UTF-8"?>
<svg xmlns="http://www.w3.org/2000/svg" version="1.1" viewBox="0 0 68 34">
  <!-- Generator: Adobe Illustrator 28.7.1, SVG Export Plug-In . SVG Version: 1.2.0 Build 142)  -->
  <g>
    <g id="Layer_1">
      <g>
        <path d="M38.2,10.2h-2.7l-5.3,13.8h4.7l1-3.3c-1-.5-1.3-1.7-.9-2.7.5-1,1.7-1.3,2.7-.9,1,.5,1.3,1.7.9,2.7-.2.3-.5.6-.9.9l1,3.3h4.7l-5.2-13.8Z"/>
        <path d="M46.8,10.1h4.8c1.1,0,2.2.1,3.3.4,4.2,1.3,4.2,8.2-.5,9.3l3.5,4.1h-2.8l-3.3-3.8h-2.3v3.8h-2.6v-13.8ZM49.4,17.5h2.9c.8,0,3,0,3-2.5s-2.4-2.4-3.1-2.4h-2.8v4.9Z"/>
        <path d="M64.5,10.1h-2.6v13.8h2.6v-13.8Z"/>
        <path d="M6.7,13.8l2.2,5.9h-4.4l2.1-5.9ZM5.3,10.1L0,23.9h2.9l.6-1.8h6.2l.7,1.8h2.8l-5.3-13.8h-2.7Z"/>
        <path d="M28.7,16.2h-6.7v2.4h3.9c0,1-.6,1.9-1.5,2.4-.7.4-1.5.6-2.2.6-1.3,0-2.5-.5-3.4-1.3-.9-.9-1.4-2-1.4-3.3s.5-2.3,1.3-3.2c.9-.9,2.1-1.3,3.3-1.3,1.2,0,2.3.3,3.1,1l1.3-2.3c-1.3-.8-2.8-1.3-4.4-1.2-2,0-4.1.8-5.4,2.3-1.2,1.3-1.8,2.9-1.7,4.6,0,1.3.3,2.5.9,3.6.6,1.1,1.5,2,2.6,2.6,1.2.6,2.4.9,3.7.9s2.3-.2,3.4-.8c1-.6,1.8-1.4,2.3-2.4.6-1.2.9-2.6.9-3.9v-.6Z"/>
        <path d="M67,23.1h.2s0,0,0,0c0,0,0,0,0,0h0c0-.1,0-.2,0-.2h-.3v.3ZM67,23.2v.3h-.2v-.9h.3c.1,0,.2,0,.3,0,.1.1.1.2,0,.3,0,0-.1.1-.2.1h0c0,0,.2.4.2.4h-.2l-.2-.3h-.1ZM66.5,23.1v.2c0,0,0,.1,0,.2,0,0,0,.1.1.1q0,0,.1.1c0,0,.1,0,.2,0h.2c.1,0,.2,0,.3,0,0,0,.2,0,.2-.2,0,0,.1-.1.1-.2,0-.1,0-.3,0-.5,0,0,0-.1,0-.2,0,0,0-.1-.1-.1,0,0-.2-.1-.3-.2h-.2c-.1,0-.2,0-.3,0,0,0-.2,0-.2.2,0,0-.1.1-.1.2v.3ZM66.4,23.1c0,0,0-.1,0-.2,0,0,0-.1,0-.2,0,0,0-.1.1-.2,0,0,.1-.1.2-.1,0,0,.1,0,.2,0s.1,0,.2,0h.2c0,0,.1,0,.2,0,0,0,.1,0,.2.1,0,0,.1.1.1.2,0,0,0,.1,0,.2s0,.1,0,.2,0,.1,0,.2c0,0,0,.1,0,.2,0,0,0,.1-.1.2,0,0-.1.1-.2.1,0,0-.1,0-.2,0h-.5c0,0-.1,0-.2,0,0,0-.1,0-.2-.1-.1-.1-.2-.2-.2-.3,0,0,0-.1,0-.2Z"/>
      </g>
    </g>
  </g>
</svg>