<svg width="148" height="37" viewBox="0 0 148 37" fill="none" xmlns="http://www.w3.org/2000/svg">
<path d="M89.7402 7.68009V0.686523H116.602V7.20325L101.184 35.8133H91.6476L107.383 7.52114L89.7402 7.68009Z" fill="white"/>
<path d="M89.7402 7.68009V0.686523H116.602V7.20325L101.184 35.8133H91.6476L107.383 7.52114L89.7402 7.68009Z" fill="white"/>
<path d="M28.0489 15.7355C28.8437 15.0997 29.6384 14.464 30.2742 13.6692C31.0689 12.8745 31.3868 11.9208 31.3868 10.8082C31.3868 9.69562 30.9099 8.74195 29.9563 7.94723C29.0026 7.31145 27.89 6.83462 26.6184 6.99356C25.3469 6.99356 24.0753 7.47039 23.1216 8.26512C22.3269 9.05984 21.6912 10.1725 21.5322 11.444C20.7375 11.2851 14.2208 10.9672 13.426 10.9672C13.585 9.37773 13.9029 7.78828 14.5386 6.19884C15.3334 4.92728 16.287 3.65572 17.5586 2.70206C18.8302 1.74839 20.2607 1.11261 21.8501 0.635778C23.5985 0.158944 25.3469 0 27.0953 0C28.6847 0 30.2742 0.158944 31.8636 0.635778C33.2941 1.11261 34.5657 1.74839 35.8372 2.54311C36.9498 3.49678 37.9035 4.60939 38.3803 5.88095C39.0161 7.31145 39.334 8.9009 39.334 10.4903C39.334 11.444 39.1751 12.5566 38.8572 13.5103C38.6982 14.464 38.2214 15.2587 37.7446 15.8945C37.2677 16.6892 36.7909 17.325 36.1551 17.9607C35.5193 18.5965 34.8836 19.2323 34.0888 19.7091C33.2941 20.3449 29.4794 23.3649 22.6448 28.9279H39.4929V35.4446H13.2671V27.4974C22.168 20.6628 27.0953 16.5302 28.0489 15.7355Z" fill="white"/>
<path d="M28.0489 15.7355C28.8437 15.0997 29.6384 14.464 30.2742 13.6692C31.0689 12.8745 31.3868 11.9208 31.3868 10.8082C31.3868 9.69562 30.9099 8.74195 29.9563 7.94723C29.0026 7.31145 27.89 6.83462 26.6184 6.99356C25.3469 6.99356 24.0753 7.47039 23.1216 8.26512C22.3269 9.05984 21.6912 10.1725 21.5322 11.444C20.7375 11.2851 14.2208 10.9672 13.426 10.9672C13.585 9.37773 13.9029 7.78828 14.5386 6.19884C15.3334 4.92728 16.287 3.65572 17.5586 2.70206C18.8302 1.74839 20.2607 1.11261 21.8501 0.635778C23.5985 0.158944 25.3469 0 27.0953 0C28.6847 0 30.2742 0.158944 31.8636 0.635778C33.2941 1.11261 34.5657 1.74839 35.8372 2.54311C36.9498 3.49678 37.9035 4.60939 38.3803 5.88095C39.0161 7.31145 39.334 8.9009 39.334 10.4903C39.334 11.444 39.1751 12.5566 38.8572 13.5103C38.6982 14.464 38.2214 15.2587 37.7446 15.8945C37.2677 16.6892 36.7909 17.325 36.1551 17.9607C35.5193 18.5965 34.8836 19.2323 34.0888 19.7091C33.2941 20.3449 29.4794 23.3649 22.6448 28.9279H39.4929V35.4446H13.2671V27.4974C22.168 20.6628 27.0953 16.5302 28.0489 15.7355Z" fill="white"/>
<path d="M109.682 33.871C109.682 33.5532 109.682 33.2353 109.841 32.9174L110.317 32.1227C110.476 31.9637 110.794 31.6458 111.112 31.6458C111.748 31.4869 112.543 31.4869 113.178 31.6458C113.496 31.8048 113.814 31.9637 113.973 32.1227C114.132 32.2816 114.291 32.5995 114.45 32.9174C114.609 33.5532 114.609 34.1889 114.45 34.8247L113.973 35.6194C113.814 35.7784 113.496 36.0963 113.178 36.0963C112.543 36.2552 111.748 36.2552 111.112 36.0963C110.794 35.9373 110.635 35.7784 110.317 35.6194C110.158 35.4605 110 35.1426 109.841 34.8247C109.682 34.5068 109.682 34.1889 109.682 33.871Z" fill="white"/>
<path d="M109.682 33.871C109.682 33.5532 109.682 33.2353 109.841 32.9174L110.317 32.1227C110.476 31.9637 110.794 31.6458 111.112 31.6458C111.748 31.4869 112.543 31.4869 113.178 31.6458C113.496 31.8048 113.814 31.9637 113.973 32.1227C114.132 32.2816 114.291 32.5995 114.45 32.9174C114.609 33.5532 114.609 34.1889 114.45 34.8247L113.973 35.6194C113.814 35.7784 113.496 36.0963 113.178 36.0963C112.543 36.2552 111.748 36.2552 111.112 36.0963C110.794 35.9373 110.635 35.7784 110.317 35.6194C110.158 35.4605 110 35.1426 109.841 34.8247C109.682 34.5068 109.682 34.1889 109.682 33.871Z" fill="white"/>
<path d="M128.906 28.2938C128.27 28.2938 127.634 28.4528 126.998 28.6117C126.362 28.7707 125.886 29.0885 125.409 29.4064C124.932 29.7243 124.614 30.3601 124.773 30.9959C124.773 31.6317 125.091 32.1085 125.568 32.5853C126.204 32.9032 126.839 33.0622 127.475 33.0622C128.111 33.0622 128.588 33.0622 129.223 32.9032C129.7 32.7443 130.177 32.4264 130.654 32.2674C131.131 31.9495 131.449 31.6317 131.608 31.1548C131.767 30.678 131.926 30.2011 132.084 29.5654V28.4528L130.495 28.2938C129.859 28.1349 129.382 28.1349 128.906 28.2938ZM131.926 33.6979C131.29 34.6516 130.336 35.2874 129.223 35.7642C128.111 36.241 126.998 36.4 125.727 36.4C124.773 36.4 123.978 36.241 123.184 35.9232C122.389 35.7642 121.594 35.4463 120.958 34.8105C120.323 34.3337 119.846 33.6979 119.369 33.0622C119.051 32.2674 118.892 31.4727 118.892 30.678C118.892 28.9296 119.687 27.1812 121.276 26.2275C122.071 25.7507 122.866 25.4328 123.66 25.1149C124.614 24.797 125.568 24.6381 126.521 24.4792C127.475 24.3202 128.429 24.3202 129.541 24.3202H132.084C132.084 23.3665 131.608 22.5718 130.972 21.936C130.177 21.3003 129.223 21.1413 128.429 21.1413C127.475 21.1413 126.68 21.3003 125.886 21.7771C125.091 22.095 124.296 22.7308 123.66 23.3665C123.343 23.0486 120.64 20.5055 120.323 20.3466C121.435 19.3929 122.707 18.5982 124.137 18.2803C125.568 17.8035 127.157 17.6445 128.747 17.6445C130.177 17.6445 131.608 17.8035 133.038 18.2803C133.992 18.5982 134.945 19.234 135.74 20.0287C136.535 20.8234 137.012 21.7771 137.171 22.8897C137.489 24.1613 137.648 25.5918 137.648 26.8633V35.9232H132.084L131.926 33.6979Z" fill="white"/>
<path d="M128.906 28.2938C128.27 28.2938 127.634 28.4528 126.998 28.6117C126.362 28.7707 125.886 29.0885 125.409 29.4064C124.932 29.7243 124.614 30.3601 124.773 30.9959C124.773 31.6317 125.091 32.1085 125.568 32.5853C126.204 32.9032 126.839 33.0622 127.475 33.0622C128.111 33.0622 128.588 33.0622 129.223 32.9032C129.7 32.7443 130.177 32.4264 130.654 32.2674C131.131 31.9495 131.449 31.6317 131.608 31.1548C131.767 30.678 131.926 30.2011 132.084 29.5654V28.4528L130.495 28.2938C129.859 28.1349 129.382 28.1349 128.906 28.2938ZM131.926 33.6979C131.29 34.6516 130.336 35.2874 129.223 35.7642C128.111 36.241 126.998 36.4 125.727 36.4C124.773 36.4 123.978 36.241 123.184 35.9232C122.389 35.7642 121.594 35.4463 120.958 34.8105C120.323 34.3337 119.846 33.6979 119.369 33.0622C119.051 32.2674 118.892 31.4727 118.892 30.678C118.892 28.9296 119.687 27.1812 121.276 26.2275C122.071 25.7507 122.866 25.4328 123.66 25.1149C124.614 24.797 125.568 24.6381 126.521 24.4792C127.475 24.3202 128.429 24.3202 129.541 24.3202H132.084C132.084 23.3665 131.608 22.5718 130.972 21.936C130.177 21.3003 129.223 21.1413 128.429 21.1413C127.475 21.1413 126.68 21.3003 125.886 21.7771C125.091 22.095 124.296 22.7308 123.66 23.3665C123.343 23.0486 120.64 20.5055 120.323 20.3466C121.435 19.3929 122.707 18.5982 124.137 18.2803C125.568 17.8035 127.157 17.6445 128.747 17.6445C130.177 17.6445 131.608 17.8035 133.038 18.2803C133.992 18.5982 134.945 19.234 135.74 20.0287C136.535 20.8234 137.012 21.7771 137.171 22.8897C137.489 24.1613 137.648 25.5918 137.648 26.8633V35.9232H132.084L131.926 33.6979Z" fill="white"/>
<path d="M147.38 18.1006V36.0613H141.34V18.1006H147.38ZM140.863 12.3786C140.863 11.5839 141.181 10.6302 141.817 10.1534C143.247 8.88182 145.313 8.88182 146.744 10.1534C148.015 11.266 148.174 13.1733 147.062 14.4449L146.903 14.6038L146.744 14.7628C145.313 16.0343 143.247 16.0343 141.817 14.7628C141.181 14.127 140.704 13.3323 140.863 12.3786Z" fill="white"/>
<path d="M147.38 18.1006V36.0613H141.34V18.1006H147.38ZM140.863 12.3786C140.863 11.5839 141.181 10.6302 141.817 10.1534C143.247 8.88182 145.313 8.88182 146.744 10.1534C148.015 11.266 148.174 13.1733 147.062 14.4449L146.903 14.6038L146.744 14.7628C145.313 16.0343 143.247 16.0343 141.817 14.7628C141.181 14.127 140.704 13.3323 140.863 12.3786Z" fill="white"/>
<path d="M60.0588 9.26953L52.7473 22.7798H60.5356L60.3767 9.26953H60.0588ZM43.6875 28.8197V22.4619L55.6083 0.686523H68.3239V22.6209H73.2512V28.8197H68.3239V35.8133H60.5356V28.8197H43.6875Z" fill="white"/>
<path d="M60.0588 9.26953L52.7473 22.7798H60.5356L60.3767 9.26953H60.0588ZM43.6875 28.8197V22.4619L55.6083 0.686523H68.3239V22.6209H73.2512V28.8197H68.3239V35.8133H60.5356V28.8197H43.6875Z" fill="white"/>
<path d="M84.7078 0.686523V35.8133H75.9658V33.4291H80.8931V3.07069H75.9658V0.686523H84.7078Z" fill="white"/>
<path d="M84.7078 0.686523V35.8133H75.9658V33.4291H80.8931V3.07069H75.9658V0.686523H84.7078Z" fill="white"/>
<path d="M3.81467 3.07069V33.4291H8.74195V35.8133H0V0.686523H8.74195V3.07069H3.81467Z" fill="white"/>
<path d="M3.81467 3.07069V33.4291H8.74195V35.8133H0V0.686523H8.74195V3.07069H3.81467Z" fill="white"/>
</svg>
