<svg width="74" height="103" viewBox="0 0 74 103" fill="none" xmlns="http://www.w3.org/2000/svg">
<g clip-path="url(#clip0_1742_2136)">
<path d="M9.94109 93.598L9.07586 88.4156C8.828 86.9212 8.50805 84.5912 8.26921 82.9742H8.17457C7.91771 84.6048 7.56621 87.003 7.30483 88.4292L6.372 93.6026H9.94109V93.598ZM5.90784 96.9728L4.77673 102.718H0.612793L5.8087 78.8H10.9145L15.6372 102.718H11.4462L10.3422 96.9728H5.90784Z" fill="white"/>
<path d="M25.1188 92.04C25.1188 91.7175 25.1188 91.3451 25.0602 91.009C24.8935 89.8235 24.2671 88.7607 23.2666 88.7607C21.5497 88.7607 20.9143 91.2633 20.9143 94.1839C20.9143 97.5359 21.8156 99.4526 23.2036 99.4526C23.839 99.4526 24.5735 99.1211 24.9701 97.7176C25.0692 97.436 25.1188 97.059 25.1188 96.6229V92.0491V92.04ZM29.3954 78.1686V97.7585C29.3954 99.3164 29.4765 101.224 29.5351 102.718H25.8443L25.601 100.724H25.5108C24.8935 101.951 23.5415 103 21.9282 103C18.3907 103 16.6377 99.0666 16.6377 94.0976C16.6377 88.043 19.2559 85.0998 22.104 85.0998C23.5956 85.0998 24.5555 85.8401 25.0467 86.903H25.1143V78.1641H29.3909L29.3954 78.1686Z" fill="white"/>
<path d="M38.3046 99.6889C39.9359 99.6889 40.3415 96.5867 40.3415 94.0204C40.3415 91.4542 39.9359 88.4019 38.237 88.4019C36.4299 88.4019 36.0513 91.5768 36.0513 94.0204C36.0513 96.9682 36.529 99.6889 38.273 99.6889H38.3091H38.3046ZM38.2234 103C34.2848 103 31.8108 99.807 31.8108 94.1022C31.8108 87.8705 34.9788 85.0999 38.3181 85.0999C42.2026 85.0999 44.6496 88.4473 44.6496 93.9977C44.6496 101.133 40.8281 103 38.2595 103H38.2234Z" fill="white"/>
<path d="M51.3146 96.5322C51.3146 96.9637 51.3912 97.3634 51.4859 97.6359C51.914 99.0894 52.6395 99.4436 53.2253 99.4436C54.8747 99.4436 55.5416 97.3316 55.5416 93.9523C55.5416 90.8773 54.8341 88.7562 53.2028 88.7562C52.3917 88.7562 51.7067 89.6465 51.4723 90.6003C51.3912 90.8955 51.3101 91.3679 51.3101 91.6904V96.5322H51.3146ZM47.038 78.1687H51.3146V87.1983H51.3822C52.2249 85.8675 53.347 85.0999 54.9738 85.0999C58.2004 85.0999 59.8182 88.7971 59.8182 93.6253C59.8182 99.7298 57.4028 103 54.2798 103C52.7882 103 51.7923 102.332 50.9 100.643H50.8099L50.5711 102.718H46.9028C46.9614 101.279 47.0425 99.3119 47.0425 97.7585V78.1687H47.038Z" fill="white"/>
<path d="M70.0658 92.3988C70.0884 89.9642 69.3809 88.261 68.0289 88.261C66.4787 88.261 65.8208 90.5456 65.7712 92.3988H70.0658ZM65.7577 95.451C65.8073 98.5805 67.4431 99.607 69.471 99.607C70.7553 99.607 71.8639 99.3209 72.6796 99.0075L73.2519 102.11C72.1208 102.605 70.3678 102.914 68.6914 102.914C64.0993 102.914 61.5938 99.7569 61.5938 94.3564C61.5938 88.5608 64.5004 85.0815 68.2993 85.0815C72.0982 85.0815 73.9954 88.1565 73.9954 93.1755C73.9954 94.3246 73.9504 94.9696 73.8738 95.4737L65.7532 95.451H65.7577Z" fill="white"/>
<path d="M46.646 0H74V66.0096L46.646 0Z" fill="white"/>
<path d="M27.3765 0H0V66.0096L27.3765 0Z" fill="white"/>
<path d="M37.0113 24.3271L54.4422 66.0095H43.0184L37.8045 52.7331H25.0513L37.0113 24.3271Z" fill="white"/>
</g>
<defs>
<clipPath id="clip0_1742_2136">
<rect width="74" height="103" fill="white"/>
</clipPath>
</defs>
</svg>
