<svg width="210" height="84" viewBox="0 0 210 84" fill="none" xmlns="http://www.w3.org/2000/svg">
<path d="M98.5 19C96.5167 19 95 20.4 95 22C95 23.6 96.6333 25 98.5 25C100.483 25 102 23.6 102 22C102 21.2 101.65 20.4 100.95 19.9C100.367 19.3 99.4333 19 98.5 19Z" fill="black"/>
<path d="M135.044 29.6343H140.255L140.366 31.7612C141.807 29.9701 144.024 28.9627 146.242 28.9627C151.896 28.9627 155 32.5448 155 38.7015V53.0299H149.678V38.8134C149.678 35.6791 147.794 33.7761 145.022 33.7761C142.361 33.7761 140.477 35.5672 140.477 38.8134V52.9179H135.155V29.6343H135.044ZM89.9224 52.9179H84.6009V19H89.9224V52.9179ZM101.452 52.9179H96.1308V29.6343H101.452V52.9179ZM73.2927 29.6343H78.6142V53.0299H73.2927L73.1818 50.5672C71.2971 52.4702 68.7472 53.5896 65.9756 53.7015C59.6563 53.7015 55 48.5522 55 41.3881C55 33.7761 60.0998 28.9627 65.9756 28.9627C68.7472 28.8507 71.2971 29.9701 73.1818 32.097L73.2927 29.6343ZM60.4324 41.2761C60.4324 45.7537 63.204 48.7761 66.9734 48.7761C70.4102 48.7761 73.5144 46.2015 73.5144 41.2761C73.5144 36.4627 70.5211 33.7761 66.9734 33.7761C62.9823 33.7761 60.4324 37.0224 60.4324 41.2761ZM123.958 41.2761C123.958 36.3507 120.965 33.7761 117.417 33.7761C113.315 33.7761 110.876 37.1343 110.876 41.2761C110.876 45.5299 113.426 48.7761 117.417 48.7761C121.075 48.7761 123.958 46.0896 123.958 41.2761ZM129.058 50.6791C129.058 60.7537 123.293 64 116.419 64C113.537 64 110.765 63.4403 108.104 62.097L109.435 57.5075C111.541 58.7388 113.869 59.2985 116.308 59.2985C120.299 59.2985 123.625 56.7239 123.625 52.0224V50.4552C121.741 52.4702 119.08 53.5896 116.419 53.5896C110.211 53.5896 105.443 48.5522 105.443 41.2761C105.443 34.3358 109.878 28.9627 116.419 28.9627C119.191 28.8507 121.741 29.9701 123.625 32.097L123.736 29.6343H129.058V50.6791Z" fill="black"/>
</svg>
