<svg width="104" height="47" viewBox="0 0 104 47" fill="none" xmlns="http://www.w3.org/2000/svg">
<g id="Align">
<path id="Path_1195" d="M45.2369 0C43.2851 0 41.7925 1.60741 41.7925 3.44445C41.7925 5.28149 43.3999 6.88889 45.2369 6.88889C47.1888 6.88889 48.6814 5.28149 48.6814 3.44445C48.6814 2.52593 48.3369 1.60741 47.648 1.03333C47.074 0.344444 46.1554 0 45.2369 0Z" fill="black"/>
<path id="Path_1196" d="M82.8964 11.2517H88.2926L88.4075 13.4331C89.9 11.5961 92.1964 10.5628 94.4926 10.5628C100.348 10.5628 103.563 14.2368 103.563 20.5517V35.248H98.0519V20.6665C98.0519 17.4517 96.1001 15.4998 93.2297 15.4998C90.4741 15.4998 88.5223 17.3368 88.5223 20.6665V35.1332H83.0112V11.2517H82.8964ZM36.1667 35.1332H30.6556V0.344238H36.1667V35.1332ZM48.1074 35.1332H42.5963V11.2517H48.1074V35.1332ZM18.9445 11.2517H24.4556V35.248H18.9445L18.8296 32.722C16.8778 34.6739 14.237 35.822 11.3667 35.9369C4.82223 35.9369 0 30.6554 0 23.3072C0 15.4998 5.28149 10.5628 11.3667 10.5628C14.237 10.4479 16.8778 11.5961 18.8296 13.7776L18.9445 11.2517ZM5.62593 23.1924C5.62593 27.785 8.4963 30.885 12.4 30.885C15.9593 30.885 19.1741 28.2443 19.1741 23.1924C19.1741 18.2554 16.0741 15.4998 12.4 15.4998C8.26667 15.4998 5.62593 18.8294 5.62593 23.1924ZM71.4149 23.1924C71.4149 18.1405 68.3149 15.4998 64.6408 15.4998C60.3926 15.4998 57.8667 18.9443 57.8667 23.1924C57.8667 27.5554 60.5074 30.885 64.6408 30.885C68.4297 30.885 71.4149 28.1294 71.4149 23.1924ZM76.6963 32.8369C76.6963 43.1702 70.726 46.4998 63.6075 46.4998C60.6223 46.4998 57.7519 45.9258 54.9963 44.548L56.3741 39.8406C58.5556 41.1035 60.9667 41.6776 63.4926 41.6776C67.626 41.6776 71.0704 39.0369 71.0704 34.2146V32.6072C69.1186 34.6739 66.363 35.822 63.6075 35.822C57.1778 35.822 52.2408 30.6554 52.2408 23.1924C52.2408 16.0739 56.8334 10.5628 63.6075 10.5628C66.4778 10.4479 69.1186 11.5961 71.0704 13.7776L71.1852 11.2517H76.6963V32.8369Z" fill="black"/>
</g>
</svg>
