<svg width="118" height="61" viewBox="0 0 118 61" fill="none" xmlns="http://www.w3.org/2000/svg">
<g clip-path="url(#clip0_4930_9585)">
<path d="M93.1575 19.6898C93.145 19.6384 93.1775 19.5852 93.2289 19.5727C93.2803 19.5603 93.3335 19.5928 93.346 19.6442C93.3584 19.6956 93.3259 19.7488 93.2745 19.7612C93.2231 19.7737 93.1699 19.7412 93.1575 19.6898ZM80.5442 23.1869C80.5908 22.967 80.5695 22.954 80.2761 23.0159C79.9399 23.0882 79.9092 23.1863 80.1838 23.3466C80.42 23.4981 80.493 23.4623 80.5442 23.1869ZM99.286 18.4424C99.3108 18.2822 99.3173 18.2715 99.359 18.4066C99.3818 18.5008 99.4522 18.5291 99.523 18.4848C99.5854 18.4425 99.6078 18.3101 99.5722 18.2008C99.5139 17.9972 99.5053 17.9993 99.2986 18.1944C99.1651 18.3174 99.1214 18.4368 99.1785 18.5228C99.2483 18.6238 99.272 18.609 99.2902 18.4595L99.286 18.4424ZM87.4695 21.4836C87.6574 21.5107 87.6725 21.498 87.8128 21.328C87.8818 21.2387 87.9039 21.1426 87.8614 21.1167C87.8167 21.0821 87.8489 21.0652 87.9515 21.0767C88.0455 21.0902 88.1184 21.0544 88.106 21.003C88.0935 20.9516 87.9824 20.9422 87.8539 20.9733C87.7254 21.0045 87.648 21.0595 87.6841 21.0961C87.7201 21.1327 87.7237 21.2225 87.6975 21.3014C87.6624 21.4188 87.6196 21.4291 87.4747 21.3554C87.3725 21.3075 87.3104 21.3135 87.3229 21.3649C87.3353 21.4163 87.4012 21.4638 87.4674 21.475L87.4695 21.4836ZM84.7437 22.5877C84.7951 22.5753 84.8338 22.5478 84.8276 22.5221C84.8213 22.4964 84.7681 22.4639 84.7105 22.4506C84.6508 22.4288 84.6142 22.4649 84.6266 22.5163C84.6391 22.5677 84.6923 22.6002 84.7437 22.5877ZM84.2643 22.3682C84.2113 22.2993 84.141 22.271 84.0979 22.3177C84.0462 22.3665 84.0713 22.433 84.1671 22.4914C84.3415 22.6125 84.3911 22.5551 84.2749 22.3747L84.2643 22.3682ZM46.8984 31.5566C46.9498 31.5441 46.9823 31.4909 46.9698 31.4395C46.9574 31.3881 46.9042 31.3556 46.8528 31.3681C46.8014 31.3805 46.7689 31.4337 46.7813 31.4851C46.7938 31.5365 46.847 31.569 46.8984 31.5566ZM49.7764 31.5312C49.8278 31.5187 49.8603 31.4655 49.8479 31.4141C49.8354 31.3627 49.7822 31.3302 49.7308 31.3427C49.6794 31.3551 49.6469 31.4083 49.6594 31.4597C49.6718 31.5112 49.725 31.5436 49.7764 31.5312ZM56.9447 29.0707C56.926 28.9936 56.8728 28.9612 56.8297 29.0079C56.7866 29.0546 56.784 29.1187 56.8201 29.1553C56.9283 29.2652 56.9735 29.227 56.9341 29.0642L56.9447 29.0707ZM45.9725 31.8532C45.9725 31.8532 45.9798 31.7335 45.931 31.6818C45.8887 31.6195 45.8672 31.6429 45.8921 31.7457C45.9149 31.8399 45.9445 31.8872 45.9725 31.8532ZM52.7019 30.3152C52.7019 30.3152 52.7092 30.1956 52.6605 30.1439C52.6182 30.0816 52.5966 30.1049 52.6215 30.2077C52.6443 30.302 52.6739 30.3492 52.7019 30.3152ZM56.576 29.1962C56.674 28.9639 56.6535 28.8419 56.5336 28.8709C56.4822 28.8834 56.4538 28.9537 56.4725 29.0308C56.4912 29.1079 56.4628 29.1783 56.4114 29.1907C56.36 29.2032 56.3553 29.2587 56.402 29.3018C56.4615 29.36 56.5173 29.3284 56.576 29.1962ZM55.8732 29.4026C55.8835 29.4455 55.9586 29.4182 56.0383 29.3355C56.118 29.2527 56.1573 29.1525 56.1212 29.1159C56.0491 29.0426 55.8441 29.2827 55.8732 29.4026ZM65.4605 26.8193C65.4741 26.7253 65.4466 26.6866 65.3822 26.7203C65.3263 26.752 65.283 26.835 65.2718 26.9012C65.2598 27.0765 65.44 26.9966 65.4605 26.8193ZM66.6237 26.5287C66.8202 26.5537 66.8716 26.5412 66.9088 26.4325C66.9306 26.3728 67.0334 26.3479 67.1915 26.3641C67.4073 26.3935 67.4309 26.3787 67.359 26.2691C67.3146 26.1982 67.3087 26.1362 67.3601 26.1237C67.4115 26.1113 67.4354 26.0601 67.423 26.0087C67.3939 25.8888 66.9162 26.0135 66.656 26.2125C66.4345 26.384 66.4165 26.4972 66.6066 26.5328L66.6237 26.5287ZM65.7785 26.8965C65.8556 26.8778 65.9052 26.8205 65.8928 26.7691C65.8804 26.7177 65.9084 26.6837 65.9681 26.7055C66.0748 26.7341 66.1811 26.5361 66.0853 26.4776C65.9789 26.4127 65.5899 26.6791 65.621 26.8077C65.6376 26.8762 65.7121 26.9217 65.7892 26.903L65.7785 26.8965ZM68.1347 26.3263C68.2547 26.2972 68.3642 26.2254 68.3861 26.1657C68.4079 26.1059 68.3804 26.0673 68.329 26.0797C68.2776 26.0921 68.1771 26.0892 68.0938 26.0822C68.019 26.0731 67.9437 26.1367 67.9281 26.2221C67.9101 26.3353 67.9613 26.3592 68.1241 26.3198L68.1347 26.3263ZM67.6999 26.1412C67.8627 26.1018 67.8674 26.0463 67.7288 25.9982C67.6797 25.9829 67.6153 26.0166 67.6021 26.0742C67.5802 26.1339 67.6249 26.1685 67.7106 26.1477L67.6999 26.1412ZM58.1839 28.9069C58.2893 28.8179 58.375 28.7971 58.4581 28.8405C58.5219 28.8795 58.6372 28.906 58.7143 28.8873C58.8171 28.8625 58.8109 28.8368 58.7089 28.7526C58.609 28.677 58.5965 28.6256 58.6612 28.5555C58.7129 28.5068 58.7962 28.5138 58.8556 28.572C58.9151 28.6302 58.9813 28.6413 59.0072 28.5988C59.0787 28.4817 58.9043 28.3607 58.7329 28.4021C58.6472 28.4229 58.5397 28.5033 58.4942 28.5778C58.4207 28.6863 58.3865 28.6946 58.291 28.5998C58.2188 28.5266 58.1825 28.5263 58.1991 28.5948C58.2136 28.6548 58.1705 28.7015 58.0957 28.6924C58.0209 28.6833 57.982 28.7471 58.0069 28.85C58.0421 28.9956 58.0805 29.0045 58.199 28.8942L58.1839 28.9069ZM40.9772 33.6608C40.9896 33.7122 41.0922 33.7237 41.2015 33.6881C41.3643 33.6487 41.3687 33.6295 41.2319 33.6264C41.1314 33.6235 41.0634 33.5674 41.0704 33.484C41.084 33.39 41.0414 33.3641 40.917 33.4123C40.694 33.5026 40.6116 33.6495 40.8001 33.6039C40.8858 33.5831 40.9647 33.6094 40.9772 33.6608ZM78.3792 23.6474C78.3916 23.6988 78.4448 23.7312 78.4962 23.7188C78.5476 23.7063 78.5801 23.6531 78.5677 23.6017C78.5552 23.5503 78.502 23.5179 78.4506 23.5303C78.3992 23.5427 78.3667 23.5959 78.3792 23.6474ZM71.7128 25.3333C71.6173 25.2385 71.8912 25.2085 72.0402 25.2994C72.1466 25.3644 72.1681 25.341 72.137 25.2125C72.1142 25.1182 72.1517 24.9731 72.2293 24.8818C72.348 24.7352 72.3288 24.7307 72.1013 24.8402C71.964 24.9097 71.8006 25.0218 71.751 25.0792C71.6884 25.1578 71.6542 25.1661 71.6376 25.0976C71.6251 25.0461 71.5442 25.0113 71.4499 25.0341C71.27 25.0777 70.9425 25.4109 70.9715 25.5309C70.9819 25.5737 71.168 25.5559 71.3887 25.4934C71.6115 25.4395 71.7553 25.3593 71.7299 25.3292L71.7128 25.3333ZM78.2556 23.5866C78.2985 23.5762 78.3566 23.5168 78.3699 23.4591C78.3917 23.3994 78.3471 23.3649 78.2614 23.3856C78.1757 23.4064 78.1347 23.4616 78.1471 23.513C78.1596 23.5645 78.2042 23.599 78.2556 23.5866ZM78.8112 23.6335C78.7958 23.6826 78.86 23.6852 78.948 23.6367C79.0532 23.584 79.1279 23.5931 79.1445 23.6617C79.1798 23.8073 79.2857 23.6456 79.2505 23.5C79.236 23.44 79.3048 23.3871 79.386 23.3855C79.4759 23.3819 79.5361 23.3311 79.5216 23.2711C79.5071 23.2111 79.5629 23.1795 79.6377 23.1886C79.7317 23.2021 79.7491 23.1616 79.7026 23.0822C79.6328 22.9812 79.5111 22.9653 79.3137 23.0493C79.2795 23.0576 79.2091 23.0293 79.1583 22.969C79.0755 22.8893 79.0519 22.9041 79.038 23.0344C79.0245 23.1284 78.9383 23.2218 78.8526 23.2425C78.7669 23.2633 78.6786 23.3481 78.6716 23.4315C78.6645 23.5148 78.6962 23.5706 78.7476 23.5582C78.799 23.5457 78.8244 23.5759 78.8112 23.6335ZM69.5364 25.597C69.5239 25.5456 69.4964 25.5069 69.4707 25.5131C69.445 25.5194 69.4125 25.5726 69.3993 25.6302C69.3774 25.6899 69.4135 25.7265 69.4649 25.7141C69.5163 25.7016 69.5488 25.6484 69.5364 25.597ZM69.9554 25.6045C69.9583 25.504 69.9334 25.4012 69.9015 25.3817C69.8057 25.3232 69.6433 25.5893 69.6765 25.7264C69.7221 25.9149 69.9602 25.8119 69.9639 25.6024L69.9554 25.6045ZM70.7779 25.9677C70.8293 25.9553 70.868 25.9278 70.8618 25.9021C70.8556 25.8764 70.8024 25.8439 70.7448 25.8306C70.6851 25.8088 70.6484 25.8449 70.6609 25.8963C70.6733 25.9477 70.7265 25.9801 70.7779 25.9677ZM113.842 17.9489C114.022 18.132 113.946 19.3566 113.714 19.7846C113.641 19.9294 113.59 20.0958 113.605 20.1558C113.642 20.31 113.173 20.9223 112.901 21.0699C112.74 21.1542 112.633 21.1619 112.529 21.0692C112.414 20.97 112.166 20.9938 111.251 21.1879C110.63 21.3201 109.926 21.5179 109.698 21.6273C109.348 21.7936 109.139 21.8263 108.476 21.8234C107.886 21.8211 107.515 21.8653 107.072 22.0181C106.467 22.2188 105.673 22.5742 105.918 22.5332C106.012 22.5104 106.007 22.566 105.893 22.6934C105.75 22.8548 105.691 22.8693 105.353 22.824C104.819 22.7537 104.125 22.8854 103.627 23.151C103.202 23.3809 102.685 23.4155 102.637 23.2184C102.626 23.1756 102.464 23.1786 102.278 23.2328C102.089 23.2784 101.819 23.3256 101.663 23.318C101.479 23.308 101.246 23.3918 100.956 23.5799C100.569 23.8186 100.485 23.8479 100.114 23.8109C99.8723 23.7877 99.6604 23.8118 99.6043 23.8798C99.4815 24.0093 98.7319 24.1725 98.7091 24.0783C98.6739 23.9326 98.3078 23.994 97.9619 24.2138C97.7643 24.3342 97.3587 24.5321 97.0671 24.6389C96.7755 24.7458 96.4401 24.709 96.3731 24.8069C96.2305 25.0047 95.5798 25.3889 95.3809 25.3917C95.2997 25.3932 95.1792 25.4949 95.039 25.3656C94.9329 25.2643 93.9716 25.7146 93.5007 25.7923C93.126 25.8558 93.2183 25.5251 93.1539 25.5588C93.008 25.6304 92.7735 25.8232 92.6397 25.9825C92.506 26.1419 92.2995 26.3007 92.1881 26.3277C91.8883 26.4002 91.4612 26.3222 91.4963 26.2049C91.5468 26.0385 91.3086 26.1414 91.1081 26.3623C91.0089 26.477 90.9466 26.5193 90.9599 26.4617C90.9817 26.402 90.8818 26.3264 90.7473 26.2954C90.5339 26.2382 90.4675 26.2634 90.3101 26.4375C90.0665 26.7051 89.5373 26.8422 89.5688 26.6351C89.5779 26.5603 89.5401 26.4788 89.4889 26.4549C89.4313 26.4416 89.3796 26.4904 89.364 26.5758C89.357 26.6591 89.2707 26.7526 89.1851 26.7733C89.0994 26.794 88.9168 26.9017 88.7898 27.0141C88.5553 27.2069 87.9236 27.3325 87.9826 27.1641C88.011 27.0937 87.6477 27.354 86.7631 27.559C86.5232 27.6171 86.2916 27.7094 86.2376 27.7859C86.0454 28.0411 85.2976 28.2493 84.8514 28.1668C84.5567 28.1111 84.2722 28.1346 83.8651 28.2513C83.5179 28.3535 83.1734 28.3915 82.992 28.3538C82.5735 28.2737 80.1641 28.8114 79.3511 29.1624C79.0144 29.3074 78.6057 29.3428 78.4914 29.4702C78.2089 29.8016 77.3937 29.881 77.259 29.5871C77.1496 29.3596 77.7532 29.2679 77.3038 29.3223C77.2781 29.3285 77.2609 29.3327 77.2352 29.3389C76.4777 29.4315 76.0476 29.7533 75.6787 29.9151C75.3998 30.037 75.2843 30.0469 75.1459 29.9624C74.9969 29.8715 74.9435 29.8754 74.8055 30.0176C74.7172 30.1025 74.6502 30.2003 74.6585 30.2346C74.6668 30.2689 74.5655 30.375 74.4258 30.4723C74.1334 30.6882 73.0972 30.8664 72.955 30.7285C72.8935 30.6617 72.7801 30.6801 72.6212 30.773C72.2841 30.9544 71.9482 30.9903 71.7888 30.8566C71.6847 30.7638 71.6227 30.7698 71.4892 30.8928C71.3923 30.9797 71.148 31.057 70.9084 31.0787C70.519 31.1185 70.4803 31.146 70.2787 31.5123C70.103 31.8359 69.6974 31.4716 69.2459 31.5173C69.0234 31.5349 68.8641 31.9635 68.5707 32.0254C67.8085 32.1736 67.6418 32.1595 67.5796 31.9025C67.5506 31.7825 67.5969 32.1613 67.5109 32.2184C67.425 32.2755 67.3718 32.243 67.3345 32.0888C67.293 31.9174 67.2717 31.9044 67.2216 32.0345C67.1844 32.1432 67.1587 32.1495 67.1421 32.0809C67.1214 31.9952 66.997 32.0435 66.6939 32.2529C66.2813 32.5341 66.2727 32.5362 66.0856 32.4001C65.9751 32.318 65.8639 32.3086 65.8229 32.3639C65.4884 32.7805 63.9225 33.1685 63.441 32.9404C63.2365 32.8448 63.0633 32.8413 62.881 32.9126C62.7416 32.9736 62.5383 32.9956 62.4337 32.9756C62.2886 32.9381 62.2455 32.9848 62.2223 33.2263C62.1941 33.5596 62.0396 33.6333 61.4625 33.6097C60.9581 33.5866 60.2956 33.5474 60.046 33.753C59.803 33.9478 59.799 34.1937 60.0303 34.1377C60.1074 34.119 60.1713 34.158 60.1601 34.2242C60.1484 34.3631 59.3328 34.7781 58.7318 34.8057C58.274 34.8258 58.1866 34.8016 58.2282 34.6736C58.2414 34.616 58.2139 34.5773 58.1625 34.5897C58.0127 34.6079 56.8583 35.1593 56.8251 35.0223C56.8002 34.9194 56.2188 35.1781 55.9639 35.2488C55.7154 35.309 55.4129 35.4457 55.2818 35.5409C55.1592 35.634 54.9491 35.703 54.8144 35.7084C54.669 35.7073 54.5875 35.7452 54.602 35.8052C54.6144 35.8566 54.3854 35.3225 54.2569 35.3536C54.0341 35.4075 53.5997 35.7485 53.4181 36.0101C53.3121 36.1718 52.8899 36.3012 52.8609 36.1812C52.8505 36.1384 52.7503 36.0991 52.6413 36.0983C52.4404 36.0925 52.2664 36.1981 51.9132 36.5375C51.7065 36.7327 51.1203 36.7839 51.1237 36.6107C51.1242 36.538 50.9682 36.5304 50.6855 36.5989C50.1371 36.7316 49.9279 36.6915 49.7159 36.4526L49.542 36.2589L49.5079 36.5301C49.4714 36.8292 49.3554 36.9117 49.2179 36.7182C49.1206 36.5785 48.7973 36.6296 48.7363 36.7895C48.7144 36.8492 48.5643 36.9036 48.3761 36.9129C48.1793 36.9242 48.0138 36.7648 48.0283 36.8248C48.0386 36.8676 48.1333 37.0714 48.1886 37.1125C48.1395 37.0971 47.9986 37.0768 47.829 37.1632C47.5886 37.294 47.4208 37.4253 47.4548 37.4533C47.5482 37.5395 47.31 37.9418 47.1148 38.0344C47.0182 38.085 46.7661 38.0553 46.54 37.9831C46.235 37.8846 46.0704 37.8791 45.8409 37.98C45.6778 38.0557 45.5594 38.166 45.576 38.2345C45.6195 38.4145 45.3705 38.5473 45.1896 38.4369C44.9874 38.3135 44.948 38.1507 45.1108 38.1113C45.1793 38.0947 45.2547 38.0311 45.2744 37.9629C45.3007 37.884 45.2537 37.8772 45.1441 37.9491C45.0088 38.0272 44.947 37.9968 44.8627 37.8358C44.7973 37.7155 44.7537 37.8349 44.7023 37.8474C44.6509 37.8598 44.6441 37.9068 44.6822 37.952C44.729 37.9951 44.6879 38.0504 44.6022 38.0711C44.5166 38.0919 44.381 38.2063 44.301 38.3254C44.221 38.4446 43.9862 38.6737 43.7712 38.8346C43.4572 39.0738 43.3822 39.1011 43.3573 38.9982C43.32 38.844 43.1294 38.8811 42.7044 39.1109C42.3608 39.3029 41.5093 39.382 41.4185 39.2317C41.3762 39.1694 41.3248 39.1818 41.2772 39.2477C41.2016 39.3476 41.0256 39.4447 40.4463 39.7118C40.3154 39.7707 40.1207 39.7906 40.0075 39.7727C39.8902 39.7376 39.7253 39.7684 39.6178 39.8489C39.5082 39.9207 39.3197 39.9663 39.1829 39.9632C39.0461 39.96 39.0015 39.9255 39.0679 39.9003C39.143 39.8731 39.0726 39.8448 38.9101 39.8478C38.739 39.8529 38.5376 39.9198 38.4171 40.0216C38.288 40.1254 38.1551 40.1757 38.0655 40.1429C37.8181 40.0577 37.6914 40.1337 37.7692 40.3053C37.8133 40.4126 37.7761 40.5213 37.6536 40.6145C37.4923 40.7351 37.4196 40.7346 37.1684 40.5959C36.8746 40.4312 36.6373 40.4251 36.619 40.5746C36.6123 40.6216 36.4528 40.7872 36.2549 40.9439C35.9301 41.213 35.8872 41.2234 35.659 41.1425C35.5204 41.0945 35.4054 41.0316 35.3972 40.9973C35.3889 40.963 35.1664 40.9806 34.8966 41.0278C34.5412 41.0956 34.3846 41.1607 34.3238 41.2843C34.2825 41.3759 34.188 41.4351 34.1283 41.4132C34.06 41.3935 34.0512 41.4319 34.1168 41.5158C34.1718 41.5932 34.1757 41.6467 34.116 41.6248C34.0669 41.6095 33.9312 41.4609 33.8772 41.5375C33.6307 41.9055 33.3601 42.0617 32.5695 42.2803C32.0853 42.4156 31.7278 42.4749 31.7153 42.4235C31.705 42.3807 31.5882 42.2729 31.4519 42.197C31.2432 42.0843 31.246 42.2831 31.213 42.409C31.1888 42.4965 31.1029 42.5536 31.0281 42.5445C30.9533 42.5354 30.7752 42.6238 30.6311 42.7403C30.36 42.9692 29.9983 43.0114 30.0404 42.8107C30.0516 42.7445 30.0192 42.7977 29.9498 42.9234C29.7957 43.2237 29.3946 43.4024 29.1797 43.2639C29.0839 43.2055 28.9556 43.2003 28.8868 43.2532C28.818 43.3061 28.7796 43.2973 28.7928 43.2396C28.8409 43.101 28.7059 43.1428 28.3984 43.3714C28.2608 43.4772 28.1767 43.5792 28.2192 43.6052C28.2618 43.6312 28.2423 43.6631 28.1823 43.6776C28.1138 43.6942 28.0715 43.6319 28.0874 43.5102C28.097 43.3627 28.0716 43.3326 27.9706 43.4024C27.9018 43.4553 27.8478 43.5319 27.8581 43.5747C27.8685 43.6175 27.8204 43.7562 27.7425 43.8839C27.6061 44.1073 27.477 44.2111 27.536 44.0427C27.5514 43.9936 27.4701 43.9951 27.3649 44.0478C27.2512 44.1025 27.0417 44.0988 26.8839 44.0463C26.6365 43.9611 26.6108 43.9673 26.644 44.1044C26.6647 44.19 26.7563 44.2314 26.842 44.2106C26.9277 44.1899 27.0367 44.1907 27.0687 44.2102C27.1751 44.2751 27.0412 44.7338 26.8994 44.8225C26.8135 44.8796 26.7999 44.9736 26.863 45.1216C26.9177 45.2353 26.9898 45.3086 27.0244 45.2639C27.061 45.2279 27.0885 45.2666 27.0729 45.352C27.0659 45.4353 27.0056 45.4862 26.948 45.4729C26.8883 45.4511 26.7699 45.5614 26.6769 45.7018C26.5189 45.9486 26.5145 45.9678 26.6871 46.0439C26.8086 46.0962 26.834 46.1263 26.7483 46.147C26.6541 46.1698 26.6603 46.1955 26.7815 46.2841C26.8602 46.3467 26.9541 46.3602 26.9907 46.3242C27.0274 46.2881 27.0868 46.3463 27.1158 46.4662C27.1614 46.6547 27.1786 46.6506 27.2225 46.4948C27.2532 46.3967 27.3179 46.3266 27.3669 46.342C27.416 46.3573 27.4718 46.3257 27.4936 46.266C27.5069 46.2083 27.5884 46.1705 27.6632 46.1796C27.7572 46.1931 27.7858 46.0864 27.7685 45.8276C27.755 45.6222 27.7159 45.4231 27.6928 45.3652C27.6633 45.3179 27.6851 45.2582 27.7279 45.2478C27.7793 45.2354 27.8284 45.2507 27.8408 45.3022C27.8533 45.3536 27.9041 45.4138 27.9638 45.4356C28.0256 45.466 28.0215 45.4489 27.9514 45.3842C27.8686 45.3045 27.8987 45.2791 28.0527 45.2781C28.2066 45.2771 28.2518 45.239 28.2207 45.1104C28.1979 45.0162 28.2221 44.9287 28.2735 44.9163C28.3249 44.9038 28.3675 44.9298 28.3672 44.9662C28.3806 45.1715 28.4613 45.2427 28.6073 45.1711C28.6974 45.1311 28.7742 45.1488 28.7929 45.2259C28.8095 45.2945 28.7897 45.3627 28.7469 45.3731C28.704 45.3835 28.6972 45.4305 28.744 45.4736C28.7907 45.5167 28.7369 45.5569 28.6149 45.5774C28.4651 45.5955 28.4111 45.6721 28.4032 45.8644C28.4021 46.0098 28.4291 46.1212 28.4805 46.1087C28.5319 46.0963 28.5496 46.0195 28.5309 45.9424C28.5081 45.8481 28.5512 45.8014 28.6537 45.8129C28.7371 45.8199 28.8396 45.8314 28.8739 45.8231C28.9082 45.8148 28.8671 45.8701 28.7768 45.9463C28.6477 46.0501 28.6669 46.0546 28.9006 45.9708C29.0935 45.906 29.194 45.9089 29.2126 45.986C29.2271 46.0459 29.2954 46.0657 29.3577 46.0234C29.4201 45.9811 29.5976 45.9653 29.762 46.0072C29.9455 46.0535 30.1467 46.0229 30.3248 45.9345C30.4793 45.8608 30.6123 45.8105 30.625 45.8255C30.6291 45.8427 30.6608 45.8985 30.6818 45.9478C30.6942 45.9993 30.7347 46.0167 30.7669 45.9998C30.7905 45.985 30.8931 45.9965 30.9868 46.0464C31.0805 46.0962 31.2599 46.1254 31.3775 46.1241C31.5036 46.1208 31.6939 46.1201 31.8009 46.1123C31.9548 46.1114 32.0174 46.0327 32.0533 45.8064C32.1007 45.4775 32.2703 45.3911 32.5342 45.5449C32.63 45.6033 32.6702 45.6571 32.6274 45.6674C32.5846 45.6778 32.6848 45.717 32.8491 45.7589C33.1671 45.8361 33.3467 45.8289 33.2512 45.7341C33.2172 45.7061 33.2946 45.6511 33.4146 45.622C33.5345 45.593 33.6412 45.6216 33.6557 45.6816C33.693 45.8358 33.7852 45.8044 33.8702 45.5934C33.9398 45.4314 33.9697 45.4423 34.1882 45.6706C34.394 45.8838 34.4708 45.9015 34.6661 45.8089C34.7969 45.75 34.9125 45.7402 34.9228 45.7831C34.9332 45.8259 35.0679 45.8205 35.2094 45.7681C35.4496 45.6737 35.4816 45.6932 35.4802 45.8749C35.4814 45.9925 35.4897 46.0268 35.5009 45.9606C35.5121 45.8944 35.5853 45.8223 35.6539 45.8057C35.7224 45.7891 35.8066 45.6871 35.8331 45.5718C35.8726 45.4353 35.8581 45.3753 35.7896 45.3919C35.7382 45.4043 35.6849 45.3719 35.6704 45.3119C35.6559 45.2519 35.7117 45.2203 35.7951 45.2273C35.8784 45.2343 35.9514 45.1985 35.9753 45.1474C36.0234 45.0088 36.351 44.9386 36.3821 45.0671C36.3946 45.1185 36.4608 45.1297 36.5296 45.0768C36.607 45.0217 36.6454 45.0306 36.6235 45.0903C36.6017 45.15 36.6635 45.1804 36.7598 45.1661C36.9161 45.1374 36.9161 45.1374 36.7723 45.2176C36.5147 45.3525 36.714 45.5763 37.0499 45.5404C37.2169 45.5181 37.3412 45.4699 37.3288 45.4184C37.3018 45.3071 37.7127 44.9809 37.8902 44.9651C37.9629 44.9657 38.093 45.0158 38.1802 45.0763C38.3035 45.1735 38.3227 45.1779 38.3043 45.0644C38.2835 44.9788 38.3391 44.9835 38.4665 45.0977C38.6173 45.2336 38.6814 45.2362 38.8084 45.1238C38.8902 45.0496 39.0146 45.0014 39.0743 45.0232C39.134 45.045 39.2114 44.99 39.2397 44.9197C39.2769 44.8109 39.3023 44.841 39.3503 45.0018C39.3938 45.1817 39.4151 45.1947 39.4673 45.0732C39.5437 44.8642 39.56 44.9691 39.5254 45.3131C39.4642 45.7723 39.6132 45.8633 39.8659 45.5209C40.0041 45.3424 40.1503 45.2344 40.2443 45.248C40.3468 45.2594 40.3769 45.234 40.3196 45.1844C40.2708 45.1327 40.2947 45.0816 40.391 45.0673C40.4767 45.0466 40.6977 44.9478 40.8758 44.8593C41.157 44.7096 41.2105 44.7057 41.3356 44.8478C41.4225 44.9447 41.5292 44.9733 41.6066 44.9183C41.6775 44.8739 41.8228 44.875 41.9293 44.9399C42.2018 45.0916 42.6307 44.9153 42.5919 44.6798C42.567 44.577 42.5551 44.4529 42.5598 44.3973C42.5645 44.3418 42.5479 44.2732 42.5396 44.2389C42.5313 44.2047 42.5744 44.158 42.6515 44.1393C42.8229 44.0978 42.6751 43.5622 42.4872 43.5351C42.327 43.5104 42.4801 43.0561 42.6819 42.9529C42.8514 42.8665 43.2657 42.9295 43.2906 43.0323C43.3072 43.1008 43.5857 43.3146 44.1473 43.6866C44.2558 43.7601 44.3882 43.7825 44.4399 43.7337C44.4916 43.6849 44.5108 43.6893 44.489 43.749C44.4409 43.8876 44.7743 44.4781 44.8856 44.4512C44.937 44.4387 45.0003 44.5504 45.0356 44.696C45.0937 44.9359 45.3261 45.2969 45.6736 45.7207C45.7372 45.796 45.9034 46.1458 46.0505 46.4911C46.189 46.8385 46.3789 47.1735 46.4768 47.2405C46.8702 47.5171 47.3592 49.3125 47.2047 49.9485C47.1098 50.3434 46.6114 50.9447 46.3115 51.0173C46.1658 51.0525 45.9179 51.04 45.7471 51.0087C45.5828 50.9669 45.4143 50.9079 45.3803 50.8798C45.255 50.7741 44.2815 50.5744 43.9651 50.5784C43.7854 50.5856 43.5484 50.5432 43.444 50.4868C43.2566 50.3871 42.0129 50.8695 41.832 50.7591C41.6958 50.6832 41.5571 50.6351 41.5164 50.654C41.4284 50.7026 40.6654 50.6605 40.2788 50.5998C40.1166 50.5665 39.8152 50.5579 39.6184 50.5692C39.4216 50.5806 39.2103 50.5319 39.1488 50.4652C39.0639 50.3769 38.9463 50.3781 38.6654 50.4915C38.3245 50.6193 37.8904 50.6246 37.404 50.4884C37.2588 50.451 36.9829 50.4724 35.8636 50.6072C35.7138 50.6254 35.5557 50.6092 35.5176 50.564C35.4709 50.5209 35.3577 50.5029 35.2634 50.5258C34.4947 50.6846 34.0154 50.728 33.6759 50.6742C33.0907 50.58 31.5442 50.6731 31.0384 50.8318C30.7276 50.9342 30.4304 50.9427 29.9969 50.8753C29.6594 50.83 29.1656 50.8134 28.8938 50.852C28.622 50.8906 28.2307 50.8855 28.028 50.8348C27.7014 50.7596 26.7653 50.7141 26.5127 50.7571C26.4613 50.7695 26.0742 50.7816 25.6572 50.7827C25.2338 50.7945 24.7099 50.8034 24.4918 50.8018C24.2758 50.8087 23.9656 50.8384 23.8114 50.8757C23.6572 50.9131 23.2426 50.8864 22.8989 50.8154C22.5466 50.7465 22.051 50.685 21.7901 50.6938C21.5271 50.6939 21.2343 50.6832 21.119 50.6566C20.929 50.621 20.4264 50.6429 19.9362 50.7162C19.5232 50.7708 19.04 50.7607 18.8887 50.6976C18.8077 50.6628 18.564 50.6674 18.3456 50.7021C17.9302 50.7845 17.6758 50.7825 17.1932 50.6998C16.6252 50.6015 16.499 50.6048 15.8821 50.7541C15.548 50.8349 15.2398 50.8733 15.2144 50.8431C15.1804 50.8151 14.9877 50.8436 14.7863 50.9105C14.5762 50.9794 14.3194 51.0053 14.2 50.9616C13.9825 50.8873 13.2299 50.8881 12.6115 50.9561C12.4339 50.9719 11.7449 51.0479 11.0815 51.1178C9.77202 51.2533 9.29194 51.4058 8.49239 51.9621C7.97225 52.3238 7.62358 52.3447 7.03775 52.0602C6.55419 51.8235 6.22097 51.496 6.14425 51.179C6.11936 51.0762 6.00728 50.9128 5.90321 50.8201C5.66315 50.6152 5.46795 49.8461 5.26082 48.3907C5.16942 47.7507 4.76026 46.4348 4.80627 46.2877C4.86292 46.147 4.87367 45.8541 4.84753 45.6337C4.77038 45.0901 4.81001 44.6542 4.95785 44.3282C5.02956 44.1748 5.07584 43.9912 5.05925 43.9227C5.04266 43.8542 5.0837 43.7989 5.14575 43.7929C5.2078 43.787 5.25326 43.7125 5.25616 43.612C5.25283 43.4859 5.2209 43.4664 5.14767 43.5385C5.08949 43.5979 5.13315 43.4785 5.25654 43.2764C5.37137 43.0762 5.52434 42.9213 5.58404 42.9431C5.64374 42.965 5.68451 42.946 5.67414 42.9032C5.64718 42.7918 6.15406 42.4877 6.42588 42.4492C6.59282 42.4269 6.67588 42.4703 6.7197 42.6139C6.74666 42.7252 6.80789 42.8283 6.85045 42.8543C6.89302 42.8803 6.89455 42.9615 6.85765 43.034C6.80128 43.1383 6.88461 43.1454 7.20162 43.0686C7.33014 43.0375 7.52536 42.3826 7.90066 41.9471C8.19624 41.5944 8.6976 41.4549 8.68516 41.4035C8.67479 41.3607 8.73296 41.3013 8.82721 41.2785C8.94716 41.2494 8.95988 41.2645 8.88871 41.3452C8.80898 41.428 8.81727 41.4623 8.94939 41.521C9.05374 41.5774 9.12228 41.5608 9.14204 41.4925C9.16387 41.4328 9.14493 41.392 9.10209 41.4024C9.05925 41.4128 9.13484 41.3128 9.25768 41.1833C9.38909 41.0518 9.53295 40.9716 9.58616 41.0041C9.63936 41.0365 9.71675 40.9815 9.76456 40.8793C9.83419 40.7173 9.85133 40.7132 10.0302 40.815C10.1451 40.8779 10.2126 41.0067 10.2118 41.1157C10.2021 41.2631 10.2553 41.2956 10.4864 41.276C10.6468 41.2644 10.7606 41.2096 10.7481 41.1582C10.7357 41.1068 10.7593 41.092 10.7998 41.1094C10.8424 41.1354 10.8288 41.2294 10.7875 41.321C10.7223 41.4638 10.7244 41.4723 10.8425 41.3984C10.9199 41.3434 10.9861 41.3546 10.9985 41.406C11.011 41.4574 10.972 41.5212 10.9206 41.5337C10.8692 41.5461 10.8497 41.578 10.8923 41.604C10.9349 41.63 11.1156 41.4774 11.2925 41.2713C11.5039 41.0206 11.6823 40.8958 11.8191 40.899C11.9923 40.9024 12.0117 40.8705 11.9191 40.6753C11.8582 40.5358 11.8611 40.4354 11.9296 40.4188C11.9896 40.4043 11.9494 40.3505 11.8279 40.2983C11.6937 40.231 11.6683 40.2009 11.7602 40.2058C11.8414 40.2043 11.9445 40.1431 11.99 40.0686C12.0484 39.9728 12.1642 39.9266 12.3587 39.9431C12.752 39.9567 12.8453 39.78 12.5281 39.5937C12.3897 39.5093 12.4284 39.4818 12.7712 39.3988C13.1481 39.3076 13.1674 39.312 13.0655 39.4908C12.9787 39.657 13.0109 39.6401 13.3057 39.3964C13.495 39.2418 13.6651 39.0827 13.6825 39.0422C13.6999 39.0017 13.8074 38.9213 13.9297 38.8645C14.4234 38.618 14.5285 38.5654 14.6685 38.4317C14.7503 38.3575 14.849 38.3155 14.8809 38.335C14.9128 38.3545 14.9668 38.2779 14.9934 38.1626C15.0264 38.0367 15.1082 37.9625 15.2022 37.976C15.2961 37.9896 15.393 37.9027 15.4432 37.7726C15.4954 37.6511 15.5902 37.5556 15.6564 37.5668C15.7226 37.578 15.8971 37.3997 16.0421 37.1742C16.2455 36.8529 16.3057 36.802 16.3368 36.9305C16.3596 37.0248 16.3915 37.0442 16.4219 36.9825C16.4438 36.9228 16.5791 36.8447 16.7182 36.8201C16.8896 36.7786 17.0402 36.6514 17.1875 36.3981C17.3109 36.1959 17.4576 36.0153 17.5176 36.0008C17.5776 35.9863 17.6508 35.9141 17.6771 35.8352C17.7033 35.7563 17.8631 35.5544 18.029 35.3782C18.195 35.202 18.3783 34.9853 18.4197 34.8936C18.4695 34.7999 18.562 34.7322 18.6368 34.7413C18.7115 34.7504 18.7783 34.6889 18.7853 34.6056C18.7923 34.5223 18.8721 34.4395 18.9406 34.4229C19.0092 34.4063 19.0673 34.3469 19.057 34.304C19.0466 34.2612 19.1004 34.221 19.1772 34.2387C19.252 34.2478 19.4156 34.0993 19.541 33.9057C19.6665 33.7121 19.7982 33.5442 19.839 33.5252C19.9462 33.4811 20.075 33.4137 20.1287 33.3735C20.1825 33.3333 20.3092 33.2572 20.4271 33.2196C20.4785 33.2072 20.5047 33.1283 20.4861 33.0512C20.4674 32.9741 20.5303 32.8591 20.61 32.7763C20.7134 32.6787 20.7734 32.6642 20.7899 32.7328C20.8024 32.7842 20.8556 32.8166 20.907 32.8042C20.9584 32.7917 20.9527 32.6934 20.8874 32.5731C20.7883 32.3885 20.8013 32.3672 21.0237 32.3497C21.1585 32.3443 21.2551 32.2937 21.2447 32.2508C21.2343 32.208 21.3463 32.1083 21.4922 32.0367C21.6381 31.9651 21.8168 31.804 21.8968 31.6849C21.9747 31.5572 22.1059 31.4619 22.1978 31.4669C22.3902 31.4748 22.5286 31.2599 22.4292 31.1116C22.3828 31.0321 22.4215 31.0046 22.5604 31.0164C22.6715 31.0258 22.7701 30.9837 22.7855 30.9347C22.8008 30.8856 22.9275 30.8096 23.0646 30.7764C23.2017 30.7432 23.3329 30.648 23.3762 30.565C23.4111 30.484 23.5749 30.2992 23.7406 30.1593C23.9063 30.0195 24.0357 29.8793 24.0274 29.845C23.99 29.6908 24.4223 29.0783 24.5632 29.0986C24.6764 29.1166 24.7089 29.0634 24.6653 28.8834C24.6259 28.7206 24.6478 28.6609 24.7482 28.6638C24.823 28.6729 24.9668 28.5928 25.0681 28.4866C25.1694 28.3805 25.2982 28.313 25.3494 28.337C25.4005 28.3609 25.3751 28.3307 25.2837 28.2531C25.1477 28.1409 25.1415 28.1152 25.2443 28.0903C25.3471 28.0654 25.343 28.0483 25.2236 28.0046C25.0956 27.963 25.0873 27.9287 25.1655 27.7647C25.2502 27.59 25.2396 27.5835 25.0934 27.6915C25.0009 27.7592 24.8893 27.8225 24.8399 27.8435C24.7906 27.8645 24.1833 28.728 24.1337 28.7854C24.0841 28.8427 23.9898 28.8655 23.9322 28.8523C23.8725 28.8304 23.8359 28.8665 23.8483 28.9179C23.8608 28.9693 23.794 29.0308 23.6912 29.0557C23.5884 29.0806 23.5045 29.1462 23.4827 29.2059C23.4609 29.2656 23.3598 29.3354 23.257 29.3603C23.0685 29.4059 23.0685 29.4059 23.2111 29.2082C23.3927 28.9466 23.6662 28.6899 23.7861 28.6609C23.8375 28.6484 23.9214 28.5828 23.971 28.5254C24.5001 27.826 25.0536 27.0027 25.3831 26.9774C25.6056 26.9598 25.7043 26.9178 25.6877 26.8493C25.6732 26.7893 25.6947 26.7659 25.7373 26.7919C25.865 26.8698 25.6424 27.1867 25.4671 27.1747C25.3303 27.1716 25.3043 27.2141 25.3606 27.4091C25.3979 27.5633 25.4299 27.5828 25.4328 27.4823C25.4341 27.3006 25.5845 27.2098 25.6218 27.364C25.6342 27.4154 25.6874 27.4479 25.7389 27.4355C25.7903 27.423 25.8121 27.3633 25.7719 27.3096C25.7402 27.2537 25.7345 27.1554 25.7649 27.0936C25.7953 27.0318 25.8606 26.889 25.9128 26.7676C26.0063 26.5545 26.0063 26.5545 26.0133 26.7705C26.0145 26.8881 26.063 26.9761 26.0973 26.9678C26.1316 26.9595 26.1975 27.007 26.2161 27.0841C26.2348 27.1613 26.2065 27.2316 26.1551 27.244C26.1037 27.2565 26.0816 27.3525 26.1044 27.4468C26.1272 27.541 26.1993 27.6143 26.2679 27.5977C26.4649 27.55 26.7935 27.0714 26.711 26.9553C26.6687 26.893 26.6778 26.8182 26.7337 26.7866C26.796 26.7443 26.788 26.6737 26.7075 26.5661C26.5721 26.3813 26.5298 26.3189 26.4795 26.186C26.4629 26.1174 26.405 26.1405 26.3229 26.2511C26.2258 26.3744 25.8713 26.5962 25.9649 26.3831C26.028 26.2318 26.5011 25.8633 26.5653 25.8659C26.7704 25.8888 26.8984 25.6311 26.7952 25.4293C26.7109 25.2684 26.7153 25.2491 26.8687 25.3209C27.0115 25.3861 27.0457 25.3778 27.0915 25.2669C27.1723 25.0388 27.679 24.4717 27.8332 24.4344C27.9361 24.4095 27.9579 24.3498 27.8943 24.2745C27.8499 24.2036 27.8481 24.1587 27.8972 24.174C27.9761 24.2003 28.161 24.0648 28.6628 23.5897C28.7596 23.5028 28.79 23.441 28.7365 23.4448C28.6851 23.4573 28.7262 23.402 28.8337 23.3216C28.9433 23.2497 28.9911 23.1474 28.9464 23.1129C28.8997 23.0698 28.9065 23.0228 28.9665 23.0083C29.0264 22.9938 29.0462 22.9255 29.0296 22.8569C29.013 22.7884 29.0458 22.6988 29.0995 22.6586C29.1769 22.6036 29.1728 22.5865 29.0871 22.6072C29.0185 22.6238 28.9825 22.5872 28.9957 22.5296C29.009 22.4719 29.0926 22.4426 29.1759 22.4497C29.2785 22.4611 29.2959 22.4206 29.2302 22.3368C29.1731 22.2508 29.0792 22.2373 28.9761 22.2985C28.8881 22.347 28.8068 22.3485 28.7944 22.2971C28.7819 22.2457 28.8315 22.1884 28.9086 22.1697C28.9857 22.151 29.0353 22.0937 29.0229 22.0423C29.0105 21.9909 29.0585 21.8523 29.1365 21.7246C29.2144 21.5969 29.2438 21.3811 29.2107 21.2441C29.1775 21.107 29.1898 20.8954 29.2355 20.7846C29.2812 20.6737 29.295 20.5434 29.2548 20.4896C29.2252 20.4424 29.3014 20.2698 29.4286 20.1211L29.6681 19.8364L29.6766 20.1336C29.693 20.5015 29.8363 20.494 29.8819 20.1202L29.916 19.8489L29.9933 20.0932C30.2378 20.8413 30.3268 20.9467 30.7038 20.8555C30.9094 20.8057 31.0504 20.826 31.148 20.9294C31.2837 21.0779 31.4047 21.7651 31.3368 21.972C31.315 22.0317 31.3363 22.0447 31.3729 22.0087C31.5259 21.8537 32.0783 22.0375 32.2004 22.28C32.2679 22.4088 32.3945 22.6321 32.4897 22.7632C32.6737 23.0362 32.7522 23.3981 32.661 23.5834C32.6327 23.6538 32.616 23.8846 32.6336 24.107C32.6511 24.3295 32.6279 24.571 32.591 24.6434C32.5456 24.7179 32.4601 25.0016 32.4002 25.2791C32.2052 26.197 31.8061 26.9466 31.1228 27.6834C30.7714 28.0677 30.4418 28.3924 30.4076 28.4007C30.3733 28.409 30.1575 28.6789 29.9434 28.9937C29.7294 29.3085 29.5135 29.5784 29.4536 29.593C29.3936 29.6075 29.2294 29.8286 29.0928 30.0884C28.9561 30.3482 28.611 30.7583 28.3354 31.0064C28.0578 31.2459 27.7516 31.5921 27.6497 31.7709C27.5479 31.9498 27.4292 32.0964 27.3949 32.1047C27.3607 32.113 27.2443 32.2318 27.1386 32.3572C27.035 32.4911 26.8823 32.6097 26.7966 32.6304C26.7109 32.6512 26.5515 32.8167 26.4411 32.9976C26.3306 33.1785 26.2161 33.3423 26.1733 33.3527C26.019 33.39 25.4515 34.0806 25.2045 34.5213C25.0592 34.7832 24.9037 35.0023 24.8694 35.0106C24.8351 35.0189 24.6928 35.1803 24.5673 35.3739C24.4398 35.559 24.291 35.731 24.231 35.7455C24.171 35.7601 23.9702 36.0173 23.7863 36.3067C23.412 36.8961 23.427 36.8834 22.5576 37.638C21.9938 38.1191 21.7652 38.3739 21.5099 38.7804C21.4558 38.857 21.374 38.9312 21.3312 38.9415C21.2884 38.9519 21.1977 39.0645 21.1541 39.184C21.0974 39.3246 21.0135 39.3903 20.9346 39.364C20.8471 39.3399 20.8406 39.3505 20.9021 39.4172C20.9616 39.4754 20.9545 39.5588 20.8984 39.6268C20.8338 39.6968 20.9407 39.6891 21.1936 39.6097C21.4122 39.5387 21.7248 39.4812 21.8959 39.476C22.0584 39.473 22.2534 39.4167 22.3352 39.3425C22.4085 39.2704 22.6081 39.1585 22.7754 39.0999C23.0327 39.0014 23.0903 39.0146 23.1852 39.1821L23.2971 39.3818L23.2966 39.1552C23.2936 38.9927 23.3712 38.9013 23.5535 38.83C23.695 38.7776 23.8197 38.693 23.8244 38.6375C23.827 38.5733 23.8934 38.5482 24.0214 38.5898C24.1281 38.6184 24.4449 38.578 24.732 38.4903C25.0212 38.4113 25.3081 38.36 25.3764 38.3797C25.4447 38.3995 25.5475 38.3746 25.6249 38.3196C25.7023 38.2646 25.7685 38.2758 25.783 38.3358C25.7975 38.3957 25.8637 38.4069 25.9411 38.3519C26.0421 38.2821 26.0654 38.3037 26.0579 38.4597C26.0438 38.6264 26.0843 38.6438 26.2985 38.5919C26.5298 38.5359 26.5384 38.5339 26.4132 38.6911C26.3355 38.7825 26.3176 38.8957 26.3643 38.9388C26.5065 39.0767 26.7203 38.7982 26.6752 38.537C26.6461 38.4171 26.6104 38.3441 26.5737 38.3802C26.4789 38.4757 26.4202 38.0455 26.5108 37.9329C26.5539 37.8861 26.6999 37.8146 26.8455 37.7793C26.9912 37.744 27.0665 37.6805 27.0198 37.6374C26.9731 37.5942 26.9798 37.5473 27.0312 37.5348C27.0826 37.5224 27.1509 37.5421 27.1976 37.5852C27.2337 37.6219 27.5655 37.5688 27.9383 37.4604C28.5641 37.2727 28.6282 37.2753 29.0053 37.447C29.2291 37.5471 29.438 37.6235 29.4723 37.6152C29.5923 37.5862 29.7599 37.1919 29.6747 37.1399C29.6301 37.1054 29.6366 37.0947 29.7049 37.1145C29.7646 37.1363 29.9471 37.0286 30.1042 36.8909C30.4099 36.6173 30.8858 36.4477 30.8203 36.6268C30.7985 36.6865 30.826 36.7252 30.8774 36.7128C30.9288 36.7004 30.987 36.6409 31.0003 36.5833C31.0221 36.5236 31.1423 36.4582 31.2794 36.425C31.4165 36.3919 31.693 36.2977 31.8903 36.2137C32.0962 36.1276 32.2697 36.0947 32.28 36.1375C32.3132 36.2746 32.012 36.5289 31.8432 36.5063C31.7599 36.4992 31.702 36.5223 31.7145 36.5737C31.7435 36.6937 32.0319 36.7236 32.1353 36.6261C32.1869 36.5773 32.2165 36.6245 32.211 36.7891C32.2073 36.9986 32.2434 37.0352 32.5022 37.0179C32.8337 37.0012 32.9519 36.9273 32.9083 36.7473C32.8917 36.6788 32.9671 36.6152 33.0976 36.5927C33.2262 36.5616 33.3092 36.605 33.298 36.6711C33.2868 36.7373 33.3998 36.7916 33.5451 36.7927C33.8637 36.7973 34.2296 36.4729 34.1715 36.233C34.1508 36.1473 34.1815 36.0492 34.2438 36.0069C34.3318 35.9584 34.3108 35.9091 34.1577 35.801C34.0385 35.721 34.0048 35.6566 34.0648 35.6421C34.1248 35.6276 34.178 35.66 34.1925 35.72C34.207 35.78 34.2714 35.7463 34.3449 35.6378C34.4184 35.5293 34.5304 35.4296 34.6075 35.411C34.6846 35.3923 34.7835 35.314 34.8376 35.2374C34.9046 35.1395 34.9217 35.1354 34.8975 35.2229C34.8778 35.2911 34.9136 35.3641 34.9818 35.3839C35.0608 35.4101 35.0088 35.4952 34.8455 35.6073C34.652 35.7449 34.6063 35.8557 34.6477 36.0271C34.7099 36.2841 34.8039 36.2976 34.9338 36.0848C35.0052 35.9677 35.0159 35.9742 34.9956 36.1152C34.9729 36.2839 35.1009 36.3255 35.1833 36.1786C35.2092 36.136 35.4066 36.052 35.6338 35.9789C36.1053 35.8285 36.2258 35.7268 36.109 35.619C36.0602 35.5673 36.0903 35.5419 36.21 35.5492C36.3575 35.5588 36.3814 35.5077 36.3402 35.3C36.2862 35.0772 36.2715 35.0536 36.187 35.192C36.1091 35.3197 36.0491 35.3342 35.8656 35.2879C35.5925 35.2089 35.4607 35.1138 35.5043 34.9944C35.5197 34.9453 35.6157 34.9674 35.7115 35.0259C35.8605 35.1168 35.9054 35.115 35.9576 34.9935C35.9989 34.9019 36.2113 34.8051 36.5026 34.7346C36.9139 34.6351 36.9887 34.6442 36.9769 34.7831C36.9756 34.9648 37.1079 34.9872 37.1584 34.8208C37.2174 34.6524 37.484 34.742 37.4761 34.9344C37.4688 35.0541 37.5196 35.1143 37.6822 35.1113C37.9729 35.1135 38.0683 34.9453 37.8643 34.777C37.7389 34.6712 37.7368 34.6627 37.8518 34.7255C37.9349 34.7689 38.0611 34.7656 38.132 34.7212C38.2436 34.6579 38.2542 34.6644 38.1595 34.7599C38.0667 34.864 38.0836 34.8962 38.2347 34.9957C38.4049 35.0996 38.4563 35.0872 38.83 34.8697C39.1071 34.7029 39.2763 34.6529 39.3594 34.6963C39.4233 34.7352 39.5131 34.7316 39.5562 34.6849C39.679 34.5554 39.5828 34.2703 39.4055 34.2498C39.3201 34.2341 39.2814 34.2617 39.3281 34.3048C39.3749 34.3479 39.3447 34.3733 39.2507 34.3598C39.1653 34.3442 39.0929 34.3073 39.0826 34.2644C39.0618 34.1788 38.5968 34.3185 38.474 34.448C38.3641 34.5562 38.1827 34.5185 38.1539 34.3622C38.1373 34.2937 38.1757 34.3025 38.2458 34.3672C38.3519 34.4685 38.3605 34.4664 38.3273 34.3293C38.2817 34.1408 38.4515 34.0181 38.7745 34.0034C38.9092 33.998 39.0058 33.9474 38.9934 33.896C38.981 33.8446 39.009 33.8106 39.0687 33.8324C39.1263 33.8457 39.4688 33.7991 39.8372 33.7099C40.4027 33.5731 40.5309 33.5783 40.6625 33.7097C40.792 33.8326 40.7979 33.8946 40.7221 34.0309C40.5727 34.2756 40.8584 34.6691 41.1497 34.5986C41.3468 34.5509 41.3447 34.5423 41.1721 34.4662C40.9995 34.39 41.0039 34.3708 41.2275 34.2079C41.3586 34.1127 41.5025 34.0325 41.5474 34.0307C41.5837 34.031 41.6313 33.965 41.6383 33.8817C41.6677 33.666 41.811 33.6585 41.8608 33.8641C41.8919 33.9927 41.943 34.0166 42.0804 33.947C42.2157 33.8689 42.2266 33.8391 42.1178 33.8019C42.0283 33.7692 42.0135 33.7456 42.082 33.729C42.262 33.6854 42.4163 33.3488 42.3149 33.1919C42.2282 33.0587 42.3989 32.8269 42.5891 32.8262C42.6234 32.8179 42.6494 32.7754 42.637 32.724C42.6204 32.6554 42.7016 32.6539 42.8509 32.7085C42.9981 32.7545 43.1969 32.7517 43.3449 32.6887C43.5916 32.5836 43.5916 32.5836 43.4534 32.7622C43.3693 32.8642 43.3516 32.941 43.4201 32.9244C43.4801 32.9099 43.5481 32.966 43.5668 33.0431C43.6269 33.2916 44.0663 32.8587 44.2855 32.715C44.3478 32.6727 44.474 32.6694 44.568 32.6829C44.6746 32.7115 44.7497 32.6843 44.7694 32.616C44.7913 32.5563 44.8837 32.4886 44.9865 32.4637C45.0893 32.4388 45.1325 32.3921 45.0964 32.3555C45.0603 32.3189 45.0803 32.2142 45.1429 32.1356C45.2315 32.0144 45.2572 32.0082 45.2564 32.1172C45.2615 32.2883 46.3579 32.0592 46.6298 32.0206C46.9016 31.9821 47.0809 32.3105 47.0863 32.4453C47.0899 32.5351 47.1407 32.5954 47.1921 32.5829C47.2435 32.5705 47.276 32.5173 47.2636 32.4659C47.2511 32.4145 47.3179 32.3529 47.4207 32.3281C47.5235 32.3032 47.6074 32.2375 47.6313 32.1864C47.6531 32.1267 47.8076 32.053 47.981 32.0201C48.4907 31.9149 48.4962 31.7503 47.9882 31.6375C47.747 31.5779 47.4778 31.5524 47.4007 31.571C47.2294 31.6125 47.0827 31.4938 47.184 31.3877C47.3435 31.2221 47.9689 31.0707 48.2122 31.1388C48.3573 31.1763 48.492 31.1709 48.5266 31.1262C48.5525 31.0837 48.5694 31.1159 48.558 31.2184C48.5283 31.4705 48.6586 31.4843 48.8121 31.2567C48.9461 31.061 48.9547 31.0589 48.9528 31.3133C48.9535 31.5036 48.9999 31.5831 49.1365 31.6226C49.2346 31.6533 49.2878 31.6857 49.245 31.6961C49.1421 31.721 49.7233 32.061 49.8347 32.0341C49.8861 32.0216 49.9185 31.9684 49.9061 31.917C49.8937 31.8656 50.0289 31.7875 50.2089 31.744C50.4145 31.6942 50.5713 31.5928 50.6256 31.4798C50.6779 31.3584 50.7402 31.3161 50.7996 31.3742C50.9356 31.4865 51.2999 31.3802 51.2047 31.249C51.1201 31.1244 51.2702 31.0699 51.5412 31.1404C51.6671 31.1734 51.727 31.1589 51.7125 31.0989C51.698 31.0389 51.8008 31.014 51.9846 31.024C52.1856 31.0298 52.2692 31.0005 52.2526 30.9319C52.236 30.8634 52.2617 30.8571 52.3338 30.9304C52.476 31.0683 52.5374 30.872 52.4149 30.6659C52.3579 30.5799 52.3581 30.5436 52.422 30.5825C52.5985 30.7122 53.1948 30.7402 53.2727 30.6125C53.3182 30.538 53.3013 30.5058 53.2328 30.5224C53.1728 30.5369 53.1069 30.4893 53.0882 30.4122C53.0695 30.3351 53.1127 30.2884 53.1874 30.2975C53.3647 30.3181 53.4225 30.5943 53.2737 30.7664C53.1765 30.8897 53.23 30.8858 53.558 30.7792C54.321 30.522 54.77 30.241 54.7203 30.0354C54.6871 29.8983 54.6466 29.8809 54.5305 29.9634C54.2919 30.1391 53.5358 30.313 53.344 30.2324C53.2033 30.1758 53.1802 30.1179 53.2262 29.9707C53.292 29.7552 53.6311 29.5825 54.4477 29.3213C54.767 29.2168 55.0994 29.0911 55.1833 29.0254C55.2843 28.9556 55.3292 28.9538 55.3074 29.0135C55.2855 29.0732 55.3774 29.0782 55.5426 29.011C55.757 28.9228 55.804 28.9296 55.7604 29.049C55.7079 29.2068 55.7011 29.2538 55.74 29.4893C55.7607 29.575 55.7111 29.6323 55.6257 29.6167C55.5509 29.6076 55.4156 29.6857 55.3294 29.7791C55.2021 29.9278 55.1974 29.9834 55.2994 30.0675C55.444 30.1777 55.7008 30.1518 55.6717 30.0318C55.6427 29.9119 56.2564 29.8994 56.6424 30.0327C56.6915 30.0481 56.7024 30.0182 56.6601 29.9559C56.6157 29.885 56.6804 29.8149 56.8733 29.7501C57.302 29.6101 57.4565 29.5364 57.5084 29.4513C57.5344 29.4087 57.6242 29.4051 57.7073 29.4485C57.8202 29.5028 57.8867 29.4776 57.9797 29.3372C58.0662 29.2075 58.2464 29.1276 58.559 29.0701C58.9422 29.0045 59.0388 28.9539 59.1775 28.7027C59.2663 28.5451 59.3978 28.4136 59.4704 28.4141C59.5517 28.4126 59.5865 28.3316 59.5596 28.2202C59.5222 28.066 59.5739 28.0172 59.9081 27.9363C60.1223 27.8845 60.3575 27.882 60.4405 27.9254C60.549 27.9989 60.5898 27.9799 60.6314 27.852C60.6706 27.7518 60.6942 27.737 60.7108 27.8055C60.7544 27.9855 61.061 27.8659 61.1912 27.6167C61.252 27.4932 61.379 27.3808 61.4582 27.3707C61.5802 27.3503 61.5737 27.3609 61.4535 27.4263C61.3247 27.4937 61.3223 27.5215 61.4713 27.6124C61.5671 27.6709 61.6761 27.6717 61.7299 27.6315C61.7816 27.5827 61.947 27.4792 62.108 27.3948C62.3676 27.2685 62.3954 27.2709 62.3237 27.4243C62.2759 27.5265 62.3403 27.4928 62.4655 27.3355C62.8062 26.9447 63.1619 26.8405 63.2304 27.1232C63.2615 27.2517 63.3126 27.2756 63.4071 27.2165C63.5167 27.1446 63.5105 27.1189 63.3976 27.0646C63.2974 27.0254 63.3039 27.0147 63.4407 27.0179C63.5432 27.0293 63.672 26.9619 63.7346 26.8833C63.8923 26.6728 64.1106 26.6381 64.2954 26.802C64.3868 26.8796 64.5106 26.9041 64.588 26.8491C64.689 26.7793 64.7017 26.7943 64.6344 26.9285C64.5931 27.0201 64.4534 27.1174 64.3334 27.1465C64.2049 27.1776 64.1467 27.237 64.1935 27.2801C64.2402 27.3232 64.2458 27.4216 64.2175 27.492C64.1892 27.5623 64.1518 27.7074 64.1403 27.81C64.1221 27.9595 64.1433 27.9725 64.2233 27.8533C64.2904 27.7555 64.3503 27.741 64.4098 27.7992C64.4692 27.8573 64.5377 27.8407 64.6411 27.7432C64.7595 27.6329 64.7873 27.6352 64.7714 27.757C64.76 27.8595 64.8046 27.8941 64.9331 27.863C65.0359 27.8381 65.1958 27.8991 65.2999 27.9919L65.4868 28.1643L65.5271 27.9187C65.5474 27.7778 65.5757 27.7074 65.5947 27.7482C65.605 27.791 65.6803 27.7275 65.7624 27.6169C65.8424 27.4978 65.9349 27.4301 65.9774 27.456C66.02 27.482 66.1145 27.4229 66.1774 27.3079C66.2403 27.1929 66.3132 27.1571 66.3236 27.1999C66.334 27.2428 66.4321 27.2734 66.5284 27.2592C66.6312 27.2343 66.7021 27.19 66.6917 27.1471C66.6814 27.1043 66.791 27.0324 66.9452 26.9951C67.1251 26.9515 67.209 26.8859 67.1862 26.7916C67.1675 26.7145 67.1958 26.6442 67.2472 26.6317C67.2986 26.6193 67.3368 26.6645 67.3427 26.7265C67.3422 26.7992 67.419 26.8169 67.5348 26.7707C67.6335 26.7287 67.783 26.7469 67.8702 26.8075C67.9489 26.8701 68.0662 26.9052 68.1262 26.8906C68.1862 26.8761 68.3053 26.9561 68.3964 27.0701C68.4874 27.1841 68.5918 27.2405 68.6349 27.1938C68.678 27.1471 68.6913 27.0895 68.6573 27.0614C68.6233 27.0334 68.7054 26.9228 68.8365 26.8276C68.9656 26.7238 69.0391 26.6153 69.003 26.5787C68.8714 26.4473 69.0937 26.466 69.3106 26.6131C69.5297 26.7686 70.0243 26.6762 70.1093 26.4651C70.1376 26.3948 70.2017 26.3974 70.2738 26.4706C70.3566 26.5504 70.3909 26.5421 70.3743 26.4735C70.3598 26.4136 70.3902 26.3518 70.4416 26.3393C70.493 26.3269 70.5205 26.3656 70.4987 26.4253C70.4724 26.5042 70.5602 26.492 70.7489 26.4101C70.9141 26.3429 71.2122 26.2254 71.4308 26.1544C71.6408 26.0854 71.8319 25.9756 71.8538 25.9159C71.8909 25.8072 72.1622 25.8413 72.172 25.9568C72.1842 26.0446 72.2421 26.0215 72.5428 25.8399C73.0261 25.5506 73.3112 25.4544 73.5115 25.5329C73.6203 25.57 73.6839 25.6453 73.6665 25.6858C73.6405 25.7284 73.6638 25.75 73.7067 25.7396C73.7495 25.7292 73.8248 25.6656 73.8724 25.5997C73.9243 25.5146 74.0484 25.5027 74.2917 25.5708C74.8059 25.7094 75.3247 25.5294 75.5907 25.1294C75.7831 24.838 75.792 24.7996 75.6279 24.7213C75.4745 24.6496 75.4683 24.6239 75.561 24.5199C75.7766 24.2863 75.5624 24.3381 75.2269 24.6007C75.0054 24.7723 74.7693 24.8838 74.5383 24.9034C74.3436 24.9234 74.1527 24.9968 74.0966 25.0647C74.0361 25.152 73.972 25.1493 73.885 25.0525C73.7875 24.9491 73.734 24.953 73.5984 25.0674C73.48 25.1777 73.418 25.1837 73.365 25.1148C73.31 25.0374 73.2778 25.0543 73.2256 25.1758C73.1734 25.2973 73.1326 25.3162 73.0776 25.2388C73.0374 25.1851 72.9221 25.1585 72.8279 25.1813C72.6651 25.2207 72.6588 25.195 72.8176 24.8392C72.9415 24.5643 73.0127 24.4836 73.0849 24.5568C73.157 24.6301 73.1871 24.6046 73.2095 24.4722C73.2342 24.3121 73.2514 24.3079 73.364 24.3986C73.5467 24.5539 73.9122 24.5652 73.9582 24.418C73.9845 24.3391 74.1195 24.2973 74.3249 24.2839C74.5302 24.2705 74.6889 24.214 74.7665 24.1226C74.8421 24.0227 74.9257 23.9934 75.0537 24.035C75.1518 24.0657 75.2972 24.0667 75.3701 24.0309C75.4602 23.991 75.5135 24.0235 75.4978 24.1089C75.4728 24.3054 75.9334 24.1849 76.0698 23.9614C76.1542 23.823 76.2036 23.802 76.3378 23.8693C76.4294 23.9106 76.6324 23.925 76.7908 23.9048C77.296 23.8188 77.437 23.8391 77.5639 24.0261C77.6337 24.1271 77.663 24.2107 77.6458 24.2148C77.6201 24.2211 77.6902 24.2857 77.8052 24.3486C77.9137 24.4221 78.0224 24.4593 78.0526 24.4338C78.0827 24.4084 78.2213 24.4565 78.3682 24.5388C78.7046 24.7295 78.8762 24.6517 78.941 24.2823C78.9766 24.0923 79.0436 23.9944 79.1376 24.008C79.221 24.015 79.2661 23.9769 79.256 23.8977C79.2353 23.812 79.2823 23.8188 79.3949 23.9094C79.4863 23.9871 79.6101 24.0115 79.6745 23.9778C79.7368 23.9355 79.9038 23.9133 80.0492 23.9144C80.2052 23.9219 80.3059 23.8885 80.2935 23.8371C80.281 23.7857 80.3005 23.7537 80.3434 23.7434C80.5658 23.7258 80.6264 23.6386 80.5766 23.433C80.5455 23.3045 80.5611 23.2191 80.6187 23.2323C80.6678 23.2476 80.7195 23.1989 80.7351 23.1135C80.7421 23.0301 80.8133 22.9494 80.8904 22.9307C80.9675 22.9121 81.0192 22.8633 81.0068 22.8119C80.9943 22.7605 81.0971 22.7356 81.2511 22.7346C81.3985 22.7443 81.5634 22.7135 81.6257 22.6712C81.7202 22.612 81.7285 22.6463 81.6672 22.8425C81.6277 22.9791 81.6201 23.1351 81.6517 23.1909C81.6834 23.2467 81.6359 23.3127 81.5587 23.3313C81.4645 23.3541 81.4362 23.4245 81.4868 23.5211C81.5246 23.6026 81.5108 23.7329 81.4547 23.8009C81.3706 23.9029 81.4025 23.9224 81.6273 23.8771C81.8073 23.8335 81.9792 23.7193 82.0896 23.5384C82.1891 23.3874 82.327 23.2452 82.4041 23.2265C82.5326 23.1954 82.6742 22.8437 82.587 22.7832C82.5572 22.7722 82.6109 22.732 82.7031 22.7006C82.7973 22.6778 82.9061 22.715 82.9546 22.803C83.0179 22.9147 82.9919 22.9573 82.8551 22.9541C82.7547 22.9512 82.6838 22.9956 82.6983 23.0555C82.7398 23.2269 83.1279 23.0695 83.2023 22.8519C83.2374 22.7346 83.3215 22.6326 83.3815 22.6181C83.4672 22.5974 83.4734 22.6231 83.4084 22.7295C83.2786 22.9423 83.3359 22.9919 83.574 22.8889C83.8036 22.788 83.828 22.6642 83.651 22.6073C83.4142 22.5285 83.5377 22.027 83.8013 21.9542C83.9041 21.9293 83.9699 22.2762 83.8754 22.3353C83.7572 22.4092 84.1123 22.677 84.3049 22.6486C84.3927 22.6364 84.6042 22.6487 84.7623 22.6648C85.1297 22.721 85.2141 22.5827 84.9873 22.3202C84.8114 22.1178 84.8178 22.1072 85.1939 21.862C85.4045 21.7204 85.647 21.5982 85.7241 21.5795C85.8012 21.5608 85.883 21.4866 85.8877 21.4311C85.8994 21.2922 86.1869 21.1682 86.2159 21.2882C86.2283 21.3396 86.3267 21.3339 86.447 21.2685C86.6552 21.1546 87.1552 21.1969 87.1863 21.3254C87.1946 21.3597 87.2431 21.4477 87.2854 21.51C87.3384 21.5788 87.284 21.6917 87.17 21.7828C87.0023 21.9141 86.9574 21.9159 86.8749 21.7998C86.8071 21.7074 86.7687 21.6985 86.7617 21.7819C86.7505 21.8481 86.6515 21.9264 86.5316 21.9555C86.2488 22.0239 86.2782 22.1075 86.6872 22.2987C86.9621 22.4227 87.0434 22.4211 87.1683 22.3002C87.248 22.2174 87.3618 22.1627 87.4129 22.1866C87.4705 22.1999 87.5027 22.183 87.4903 22.1316C87.4778 22.0802 87.6087 22.0213 87.765 21.9925C87.9556 21.9555 88.0622 21.9841 88.0638 22.0654C88.0653 22.1466 88.1229 22.1599 88.2325 22.088C88.3914 21.9951 88.4966 21.9425 89.0608 21.688C89.3483 21.564 89.551 21.0524 89.2939 21.1146C89.2168 21.1333 89.1742 21.1073 89.1916 21.0668C89.2267 20.9495 88.896 20.8572 88.7138 20.9285C88.6322 20.9664 88.5725 20.9445 88.5964 20.8934C88.6118 20.8444 88.6676 20.8127 88.7166 20.828C88.7657 20.8434 88.8109 20.8052 88.82 20.7305C88.827 20.6471 88.9423 20.6737 89.1531 20.795C89.3233 20.8989 89.4812 20.9514 89.5051 20.9002C89.5443 20.8001 89.9344 20.3882 90.0029 20.3716C90.0286 20.3654 90.0772 20.4534 90.1062 20.5734C90.158 20.7876 90.4223 20.905 90.4813 20.7366C90.4966 20.6875 90.6337 20.6543 90.7983 20.6598C91.027 20.668 91.0678 20.649 91 20.5566C90.9429 20.4706 90.9946 20.4218 91.1574 20.3824C91.2859 20.3513 91.4085 20.2582 91.4155 20.1748C91.4312 20.0894 91.4979 20.0279 91.5833 20.0436C91.6666 20.0506 91.7718 19.9979 91.8279 19.9299C91.9035 19.83 91.9484 19.8282 92.0182 19.9292C92.0711 19.998 92.1477 20.0521 92.1905 20.0417C92.2334 20.0313 92.2274 19.9693 92.1831 19.8984C92.018 19.6662 92.2955 19.7261 92.5117 19.9821C92.7131 20.2145 92.7193 20.2402 92.6006 20.3869C92.5099 20.4995 92.5071 20.6 92.5807 20.7545C92.7177 21.0206 92.7862 21.0041 93.1501 20.6711C93.3051 20.5247 93.5305 20.4067 93.6375 20.399C93.753 20.3891 93.9161 20.3134 93.9937 20.222C94.0714 20.1307 94.194 20.0375 94.2625 20.0209C94.391 19.9898 94.6437 19.6475 94.5217 19.668C94.4789 19.6783 94.5114 19.6251 94.5846 19.553C94.6578 19.4808 94.6973 19.3443 94.6745 19.2501C94.6393 19.1044 94.6801 19.0855 94.8981 19.0871C95.3833 19.1057 96.101 18.923 96.2049 18.7527C96.3153 18.5718 97.5322 18.241 97.4732 18.4095C97.4599 18.4671 97.4877 18.4695 97.5288 18.4142C97.5804 18.3654 97.698 18.3641 97.7982 18.4034C97.9516 18.4751 97.9602 18.473 97.8756 18.3484C97.8165 18.2538 97.8191 18.1897 97.8962 18.1711C97.9647 18.1545 98.0286 18.1934 98.0431 18.2534C98.0576 18.3134 98.123 18.4336 98.178 18.511C98.2605 18.6271 98.2325 18.6611 98.044 18.7067C97.9154 18.7378 97.8124 18.799 97.8207 18.8333C97.8435 18.9275 97.4908 19.1943 97.3519 19.1825C97.2878 19.1799 97.2497 19.1347 97.2564 19.0878C97.2718 19.0387 97.1799 19.0337 97.0599 19.0628C96.94 19.0918 96.8626 19.1468 96.8986 19.1834C96.9347 19.22 96.8337 19.2898 96.6836 19.3443C96.3492 19.4615 96.2879 19.6577 96.5893 19.6664C96.6983 19.6673 96.8366 19.7517 96.8872 19.8483C96.9547 19.9771 97.0037 19.9924 97.0728 19.9031C97.1894 19.7479 97.9282 19.3152 98.1852 19.253C98.3052 19.2239 98.3764 19.1432 98.3577 19.0661C98.339 18.989 98.3588 18.9207 98.4102 18.9083C98.4616 18.8958 98.5275 18.9434 98.5805 19.0122C98.6334 19.081 98.7764 19.1099 98.9392 19.0705C99.1192 19.0269 99.203 18.9613 99.1802 18.867C99.1367 18.6871 99.308 18.6456 99.4201 18.809C99.4645 18.8799 99.5413 18.8976 99.5844 18.8508C99.6361 18.8021 99.6151 18.7527 99.5276 18.7285C99.4381 18.6958 99.4986 18.6086 99.7071 18.4584C100.124 18.1579 100.141 18.1537 100.169 18.4918C100.191 18.695 100.233 18.7574 100.315 18.7195C100.396 18.6816 100.436 18.7354 100.452 18.8766C100.462 18.9921 100.519 19.0781 100.571 19.0657C100.622 19.0532 100.654 19 100.644 18.9572C100.623 18.8715 100.991 18.5557 101.341 18.3531C101.541 18.2412 101.539 17.9333 101.332 17.8655C101.264 17.8458 101.249 17.8585 101.296 17.9016C101.342 17.9447 101.325 18.0215 101.262 18.0638C101.191 18.1082 101.11 18.0734 101.062 17.9853C100.995 17.8566 100.93 17.8539 100.737 17.9551C100.6 18.0246 100.435 18.0918 100.356 18.1019C100.278 18.1206 100.077 18.1511 99.8952 18.1861C99.7238 18.2276 99.6106 18.2096 99.6538 18.1629C99.6969 18.1162 99.7426 18.0053 99.7561 17.9114C99.7791 17.7063 100.384 17.4692 100.831 17.479C101.388 17.4982 102.647 17.0031 102.778 16.7175C102.843 16.5748 102.856 16.5898 102.86 16.8336C102.863 16.9961 102.787 17.2414 102.681 17.4031C102.581 17.5542 102.52 17.7141 102.537 17.7463C102.564 17.785 102.513 17.8338 102.436 17.8524C102.358 17.8711 102.32 17.9349 102.36 17.9887C102.434 18.1068 102.845 18.0437 102.901 17.903C102.925 17.8518 103.039 17.8334 103.165 17.8665C103.406 17.926 103.635 17.8251 103.598 17.6709C103.586 17.6195 103.515 17.5912 103.438 17.6098C103.335 17.6347 103.308 17.596 103.347 17.4595C103.374 17.3442 103.345 17.2243 103.273 17.151C103.152 17.0261 103.243 16.8044 103.381 16.8889C103.413 16.9083 103.512 16.8663 103.594 16.7921C103.684 16.7158 103.811 16.6761 103.909 16.7068C104.015 16.7354 104.151 16.6937 104.286 16.5792C104.521 16.3864 105.798 15.9321 105.632 16.1083C105.501 16.2399 105.649 16.4035 105.846 16.3558C105.975 16.3247 105.979 16.3418 105.879 16.5292C105.767 16.7379 105.822 16.8153 106.066 16.738C106.143 16.7193 106.176 16.6298 106.14 16.5568C106.104 16.4839 106.133 16.3772 106.204 16.3328C106.275 16.2884 106.314 16.1883 106.297 16.1197C106.279 16.0426 106.386 15.9622 106.598 15.9017C106.778 15.8582 106.941 15.7825 106.961 15.7505C106.98 15.7186 107.081 15.7215 107.185 15.7415C107.292 15.7701 107.371 15.76 107.361 15.7172C107.35 15.6744 107.503 15.5921 107.706 15.5338C107.942 15.4586 108.06 15.4573 108.031 15.5277C108.01 15.5874 108.037 15.6261 108.088 15.6136C108.14 15.6012 108.174 15.5565 108.162 15.5051C108.15 15.4537 108.233 15.4244 108.334 15.4273C108.443 15.4281 108.565 15.3713 108.621 15.3033C108.669 15.2374 108.881 15.1043 109.087 15.0182C109.467 14.8628 109.605 14.6116 109.369 14.5328C109.279 14.5001 109.284 14.4082 109.412 14.1868C109.603 13.8504 109.612 13.7393 109.437 13.7273C109.306 13.7135 109.099 13.156 109.219 13.127C109.262 13.1166 109.282 13.0484 109.263 12.9712C109.244 12.8941 109.298 12.8176 109.375 12.7989C109.452 12.7802 109.506 12.8127 109.482 12.8638C109.46 12.9236 109.498 12.9324 109.576 12.8774C109.645 12.8245 109.852 12.7833 110.03 12.7675C110.451 12.7471 110.789 13.0918 110.66 13.4222C110.616 13.5416 110.493 13.6711 110.38 13.7258C110.217 13.8016 110.227 13.8081 110.435 13.7669C110.572 13.7337 110.696 13.7582 110.706 13.801C110.717 13.8438 110.819 13.8916 110.921 13.9031C111.05 13.9083 111.135 13.9966 111.17 14.1423C111.199 14.2622 111.29 14.3763 111.373 14.3833C111.457 14.3903 111.537 14.4615 111.554 14.53C111.57 14.5986 111.689 14.7149 111.808 14.7949C111.936 14.8729 112.174 15.1419 112.341 15.3826C112.51 15.6319 112.718 15.8537 112.795 15.8714C112.882 15.8956 112.986 16.061 113.042 16.256C113.102 16.5045 113.189 16.6013 113.306 16.6001C113.544 16.6061 113.613 16.7435 113.675 17.3362C113.707 17.6187 113.765 17.8949 113.822 17.9445L113.842 17.9489ZM96.4368 19.1864C96.415 19.2461 96.4918 19.2637 96.5946 19.2389C96.6974 19.214 96.779 19.1761 96.7748 19.159C96.7541 19.0733 96.4695 19.0968 96.4454 19.1843L96.4368 19.1864ZM30.2116 20.9202C30.263 20.9077 30.2955 20.8545 30.283 20.8031C30.2706 20.7517 30.2431 20.713 30.2174 20.7192C30.1917 20.7255 30.1592 20.7787 30.1459 20.8363C30.1241 20.896 30.1516 20.9347 30.2116 20.9202ZM27.7995 25.794C27.7995 25.794 27.8264 25.9053 27.7851 25.997C27.7373 26.0992 27.7695 26.0824 27.8732 25.9485C27.9617 25.8273 28.029 25.6931 28.0187 25.6502C28.0083 25.6074 27.9462 25.6133 27.8774 25.6663C27.8065 25.7106 27.7761 25.7724 27.8081 25.7919L27.7995 25.794ZM27.6023 25.5787C27.6537 25.5662 27.7033 25.5089 27.7186 25.4598C27.7404 25.4001 27.702 25.3913 27.6246 25.4463C27.4849 25.5436 27.4673 25.6204 27.5958 25.5893L27.6023 25.5787ZM27.5444 26.1641C27.5872 26.1537 27.6392 26.0686 27.6462 25.9852C27.678 25.7417 27.5755 25.7303 27.5074 25.9735C27.4723 26.0908 27.493 26.1765 27.5358 26.1661L27.5444 26.1641ZM27.333 26.4148C27.3599 26.5262 27.4542 26.5033 27.6072 26.3484C27.702 26.2529 27.6807 26.2399 27.5179 26.2793C27.4065 26.3063 27.3226 26.3719 27.333 26.4148ZM27.1576 26.7021C27.0637 26.6886 27.0335 26.714 27.0803 26.7571C27.1524 26.8303 27.3341 26.8317 27.3155 26.7546C27.3113 26.7375 27.241 26.7091 27.1556 26.6935L27.1576 26.7021ZM27.0053 26.485C27.0996 26.4622 27.1468 26.4326 27.1128 26.4046C27.0788 26.3765 26.9932 26.3973 26.9415 26.446C26.8792 26.4883 26.9025 26.5099 27.0053 26.485ZM25.4401 27.925C25.4868 27.9681 25.54 28.0006 25.5572 27.9964C25.5829 27.9902 25.5896 27.9432 25.5772 27.8918C25.5648 27.8404 25.5116 27.8079 25.4601 27.8204C25.4087 27.8328 25.402 27.8798 25.4401 27.925ZM9.1172 41.952C9.1686 41.9396 9.20315 41.8949 9.19071 41.8435C9.17827 41.7921 9.12091 41.7425 9.06121 41.7207C9.00151 41.6988 8.96696 41.7435 8.9877 41.8291C9.00843 41.9148 9.06372 41.9559 9.11512 41.9434L9.1172 41.952ZM10.4788 41.432C10.3366 41.2941 9.69207 41.704 9.6603 41.9475C9.64235 42.0607 9.56289 42.1072 9.33183 42.1268C9.13504 42.1381 9.06857 42.1633 9.1602 42.2046C9.24118 42.2394 9.2832 42.3381 9.27381 42.4492C9.25324 42.6265 9.25324 42.6265 9.37221 42.4435C9.43715 42.3371 9.57478 42.2313 9.66046 42.2105C9.74614 42.1898 9.83652 42.1135 9.8477 42.0473C9.86124 41.9533 9.9168 41.958 10.0294 42.0487C10.2166 42.1848 10.3069 42.1085 10.2489 41.8686C10.2281 41.7829 10.2889 41.6593 10.377 41.6108C10.4715 41.5517 10.5169 41.4772 10.4829 41.4491L10.4788 41.432ZM42.4795 45.4144C42.5272 45.6115 42.7351 45.534 42.7282 45.318C42.7267 45.2367 42.6608 45.1892 42.5836 45.2078C42.5065 45.2265 42.4652 45.3181 42.488 45.4124L42.4795 45.4144ZM41.5494 45.1316C41.5618 45.183 41.615 45.2155 41.6664 45.2031C41.7178 45.1906 41.7565 45.1631 41.7503 45.1374C41.7441 45.1117 41.6909 45.0792 41.6333 45.066C41.5736 45.0442 41.5369 45.0802 41.5494 45.1316ZM40.2013 45.5577C40.2527 45.5452 40.3109 45.4858 40.3242 45.4282C40.346 45.3685 40.3185 45.3298 40.2671 45.3422C40.2157 45.3546 40.1575 45.4141 40.1442 45.4717C40.131 45.5293 40.1499 45.5701 40.2013 45.5577ZM37.8305 45.8049C37.9164 45.7479 37.9675 45.7718 37.9987 45.9003C38.0526 46.123 38.1917 46.0984 38.2276 45.8721C38.2435 45.7503 38.2736 45.7249 38.3437 45.7896C38.4753 45.921 38.7996 45.7246 38.8033 45.5151C38.8099 45.2051 38.055 45.2336 37.8324 45.5505C37.6552 45.7929 37.6606 45.9277 37.8411 45.8114L37.8305 45.8049ZM36.1145 45.6851C36.3128 45.755 36.3899 45.7364 36.4315 45.6084C36.4533 45.5487 36.3573 45.5266 36.2137 45.5704C36.0166 45.6181 35.9951 45.6415 36.1145 45.6851ZM36.0295 45.8962C36.0762 45.9393 36.1294 45.9717 36.1466 45.9676C36.1637 45.9634 36.179 45.9144 36.1666 45.863C36.1542 45.8116 36.1009 45.7791 36.0495 45.7915C35.9981 45.804 35.9914 45.851 36.0295 45.8962ZM29.5638 46.2003C29.658 46.1775 29.7053 46.1479 29.6713 46.1198C29.6287 46.0939 29.5516 46.1125 29.4999 46.1613C29.4376 46.2036 29.461 46.2252 29.5638 46.2003ZM23.769 39.4581C23.7814 39.5095 23.8347 39.5419 23.8861 39.5295C23.9375 39.5171 23.9699 39.4638 23.9575 39.4124C23.9451 39.361 23.8919 39.3286 23.8404 39.341C23.789 39.3534 23.7566 39.4067 23.769 39.4581ZM22.5411 40.118C22.6805 40.0571 22.9038 39.9305 23.0349 39.8353C23.1596 39.7507 23.2331 39.6422 23.1864 39.5991C23.1376 39.5474 23.0646 39.5832 23.0083 39.6875C22.8784 39.9004 22.8355 39.9107 22.535 39.793C22.4049 39.7429 22.2767 39.7376 22.2507 39.7802C22.2247 39.8227 22.2629 39.8679 22.329 39.8791C22.4316 39.8906 22.4399 39.9249 22.3747 40.0676C22.303 40.221 22.3222 40.2254 22.5496 40.116L22.5411 40.118ZM25.8967 45.6638C25.8196 45.6825 25.7431 45.6285 25.7203 45.5342C25.6829 45.38 25.6829 45.38 25.626 45.557C25.5579 45.8003 25.4595 45.8059 25.1403 45.6111C24.821 45.4163 24.477 45.3816 24.431 45.5288C24.4092 45.5885 24.3126 45.6391 24.2101 45.6276C23.8874 45.6059 24.0485 45.7846 24.4114 45.86C24.6612 45.9175 24.7569 45.976 24.741 46.0977C24.7207 46.2387 24.7742 46.2348 25.0209 46.1298C25.2097 46.0478 25.3979 46.0385 25.5279 46.0887C25.7091 46.1627 25.6979 46.2289 25.4926 46.2423C25.4583 46.2506 25.4302 46.2846 25.4427 46.336C25.4779 46.4817 25.6475 46.3953 25.8825 46.1298C26.1176 45.8643 26.126 45.5993 25.9032 45.6532L25.8967 45.6638ZM26.3409 45.7377C26.3285 45.6863 26.2815 45.6795 26.2384 45.7263C26.1953 45.773 26.1669 45.8433 26.1794 45.8947C26.1918 45.9461 26.2388 45.9529 26.2819 45.9062C26.325 45.8595 26.3534 45.7891 26.3409 45.7377ZM26.445 44.9688C26.445 44.9688 26.315 44.9186 26.1738 44.9347C25.9811 44.9632 25.9596 44.9865 26.079 45.0302C26.2666 45.0936 26.4679 45.063 26.443 44.9602L26.445 44.9688ZM25.5148 39.0265C25.3957 38.9465 25.0609 39.3994 25.167 39.5007C25.2625 39.5954 25.5868 39.399 25.6009 39.2324C25.61 39.1576 25.568 39.0589 25.5148 39.0265ZM26.4865 39.1813C26.474 39.1299 26.4208 39.0974 26.3694 39.1099C26.318 39.1223 26.3112 39.1693 26.3494 39.2145C26.3961 39.2576 26.4493 39.2901 26.4664 39.2859C26.4921 39.2797 26.4989 39.2327 26.4865 39.1813ZM27.3414 38.3667C27.3269 38.3067 27.2861 38.3257 27.2342 38.4108C27.1173 38.6024 26.9246 38.6309 26.8811 38.4509C26.8603 38.3652 26.8263 38.3372 26.7918 38.3818C26.7658 38.4244 26.7606 38.5526 26.7875 38.664C26.8145 38.7754 26.7818 38.865 26.7111 38.873C26.6491 38.8789 26.608 38.9342 26.6267 39.0113C26.6537 39.1227 26.6986 39.1209 26.8855 38.994C27.0102 38.9094 27.1632 38.7545 27.2387 38.6546C27.3058 38.5567 27.3559 38.4267 27.3435 38.3753L27.3414 38.3667ZM27.6063 38.1121C27.5526 38.1524 27.4941 38.2481 27.485 38.3229C27.4623 38.4916 27.8798 38.4178 27.9367 38.2408C27.9848 38.1022 27.7439 38.0063 27.6063 38.1121ZM28.7154 37.8981C28.6342 37.8997 28.5267 37.9801 28.4662 38.0673C28.3038 38.3333 28.3635 38.3552 28.6219 38.1112C28.7769 37.9649 28.8053 37.8945 28.7154 37.8981ZM31.5202 36.8203C31.5202 36.8203 31.4431 36.8389 31.4254 36.9158C31.397 36.9861 31.3197 37.0411 31.2343 37.0255C31.1509 37.0185 31.0413 37.0903 30.9935 37.1926C30.9088 37.3673 30.928 37.3717 31.2048 37.2412C31.3679 37.1655 31.5206 37.0469 31.5404 36.9786C31.5601 36.9104 31.5521 36.8397 31.5287 36.8182L31.5202 36.8203ZM36.6841 35.3347C36.6841 35.3347 36.6247 35.2765 36.5671 35.2632C36.5074 35.2414 36.4708 35.2775 36.4832 35.3289C36.4956 35.3803 36.5488 35.4128 36.6002 35.4003C36.6517 35.3879 36.6903 35.3604 36.6841 35.3347ZM36.7137 34.8196C36.5966 34.7482 36.5527 34.9039 36.6609 35.0138C36.7437 35.0935 36.7608 35.0894 36.7723 34.9868C36.7835 34.9206 36.7562 34.8456 36.7137 34.8196ZM40.3238 34.1091C40.3114 34.0577 40.2473 34.0551 40.1784 34.108C40.1075 34.1524 40.0579 34.2098 40.0621 34.2269C40.0662 34.244 40.1304 34.2467 40.2075 34.228C40.2846 34.2093 40.3342 34.152 40.3238 34.1091ZM42.9821 33.1756C42.9307 33.188 42.8982 33.2412 42.9106 33.2926C42.9231 33.344 42.9506 33.3827 42.9763 33.3765C43.002 33.3703 43.0345 33.3171 43.0477 33.2594C43.0695 33.1997 43.0335 33.1631 42.9821 33.1756ZM47.2731 37.4519C47.2731 37.4519 47.2137 37.3938 47.156 37.3805C47.0963 37.3587 47.0597 37.3947 47.0722 37.4462C47.0846 37.4976 47.1378 37.53 47.1892 37.5176C47.2406 37.5051 47.2793 37.4776 47.2731 37.4519ZM50.1748 32.0152C50.1623 31.9638 50.1348 31.9252 50.1091 31.9314C50.0834 31.9376 50.0509 31.9908 50.0377 32.0484C50.0158 32.1081 50.0433 32.1468 50.1033 32.1323C50.1633 32.1178 50.1872 32.0667 50.1748 32.0152ZM52.4503 31.0745C52.3989 31.087 52.3665 31.1402 52.3789 31.1916C52.3913 31.243 52.4189 31.2817 52.4446 31.2754C52.4703 31.2692 52.5027 31.216 52.516 31.1584C52.5378 31.0987 52.5103 31.06 52.4503 31.0745ZM60.4395 28.6331C60.6108 28.5916 60.7544 28.5478 60.7482 28.5221C60.742 28.4964 60.6548 28.4358 60.5504 28.3795C60.4248 28.3101 60.4526 28.3125 60.6488 28.3738C60.8067 28.4263 60.9284 28.4422 60.9243 28.425C60.9201 28.4079 60.9186 28.3267 60.9277 28.2519C60.9571 28.0362 60.4212 28.2203 60.2654 28.4757C60.1744 28.6247 60.2353 28.6764 60.4481 28.631L60.4395 28.6331ZM62.0246 32.7843C62.0618 32.6756 61.8455 32.7188 61.6586 32.8457C61.5898 32.8987 61.5594 32.9604 61.5954 32.997C61.6676 33.0703 61.9831 32.9123 62.0332 32.7823L62.0246 32.7843ZM64.063 27.5656C64.1477 27.391 64.1371 27.3845 63.9265 27.5261C63.7631 27.6382 63.7117 27.6507 63.7445 27.5611C63.7707 27.4822 63.7409 27.4713 63.6399 27.5411C63.5625 27.5961 63.4405 27.6165 63.368 27.5797C63.3063 27.5493 63.1417 27.5437 63.0217 27.5728C62.8932 27.6039 62.6598 27.6513 62.4843 27.6756C62.1696 27.7246 61.9343 28.0264 62.223 28.02C62.3042 28.0185 62.3808 28.0725 62.3974 28.1411C62.4306 28.2782 62.6165 28.2967 63.0233 28.2163C63.2032 28.1728 63.257 28.1326 63.1869 28.0679C63.1148 27.9947 63.1425 27.997 63.264 28.0492C63.4579 28.1384 63.8051 28.0362 63.9175 27.8639C63.9565 27.8 64.0238 27.6658 64.0716 27.5636L64.063 27.5656ZM66.2458 31.0009C66.2334 30.9495 66.2059 30.9108 66.1802 30.917C66.1545 30.9232 66.122 30.9764 66.1087 31.034C66.0869 31.0937 66.1209 31.1218 66.1723 31.1093C66.2237 31.0969 66.2562 31.0437 66.2458 31.0009ZM69.3021 27.1774C69.4478 27.1422 69.493 27.104 69.4031 27.1076C69.3112 27.1027 69.1827 27.1338 69.1289 27.174C69.0752 27.2142 69.1479 27.2148 69.3021 27.1774ZM69.457 27.3304C69.3879 27.4197 69.3274 27.5069 69.3316 27.524C69.3502 27.6011 69.4149 27.5311 69.4996 27.3564C69.5757 27.1838 69.5757 27.1838 69.457 27.3304ZM77.2107 24.3655C77.151 24.3437 77.1164 24.3883 77.1371 24.474C77.1765 24.6368 77.2321 24.6415 77.2802 24.5029C77.2955 24.4538 77.2618 24.3894 77.2021 24.3676L77.2107 24.3655ZM80.9248 27.4573C80.9248 27.4573 80.8054 27.4137 80.6641 27.4297C80.4629 27.4603 80.4414 27.4836 80.5626 27.5722C80.6944 27.6673 80.9559 27.5858 80.9227 27.4488L80.9248 27.4573ZM80.9206 23.4676C80.9019 23.3905 80.8446 23.3409 80.8017 23.3513C80.7589 23.3617 80.7563 23.4258 80.8006 23.4967C80.845 23.5676 80.9023 23.6172 80.9195 23.613C80.9366 23.6089 80.9392 23.5447 80.9206 23.4676ZM86.3448 22.3453C86.1846 22.3206 86.0327 22.3302 85.9876 22.3683C85.8842 22.4659 86.3816 22.5722 86.5127 22.477C86.5901 22.422 86.5348 22.381 86.3448 22.3453ZM87.3361 22.7312C87.2504 22.752 87.1985 22.8371 87.2298 22.9293C87.2526 23.0235 87.2931 23.0409 87.315 22.9812C87.3368 22.9215 87.3888 22.8364 87.4212 22.7832C87.4558 22.7385 87.4218 22.7105 87.3361 22.7312ZM89.6449 21.0659C89.5852 21.0441 89.5509 21.0524 89.5572 21.0781C89.5634 21.1038 89.5584 21.1957 89.5514 21.279C89.5443 21.3624 89.5695 21.4288 89.6209 21.4164C89.6723 21.404 89.7178 21.3295 89.7248 21.2461C89.7339 21.1714 89.6961 21.0898 89.6449 21.0659ZM91.9922 20.8334C91.9797 20.782 91.9351 20.7475 91.8837 20.7599C91.8323 20.7724 91.7826 20.8297 91.7694 20.8874C91.7476 20.9471 91.7922 20.9816 91.8779 20.9609C91.9636 20.9401 92.0046 20.8848 91.9922 20.8334ZM95.0038 19.8234C94.8165 19.9866 94.816 20.0593 94.9959 20.0158C95.0644 19.9992 95.1356 19.9185 95.1426 19.8351C95.1585 19.7134 95.1308 19.711 95.0038 19.8234ZM96.2069 19.6229C96.1944 19.5715 96.1412 19.5391 96.0898 19.5515C96.0384 19.5639 96.0316 19.6109 96.0698 19.6561C96.1165 19.6992 96.1697 19.7317 96.1868 19.7275C96.204 19.7234 96.2193 19.6743 96.2069 19.6229ZM105.95 16.8569C105.725 16.8659 105.664 17.0258 105.843 17.1276C105.939 17.186 105.93 17.1881 106.091 17.0675C106.285 16.9299 106.217 16.8375 105.947 16.8483L105.95 16.8569ZM106.821 16.6368C106.821 16.6368 106.746 16.664 106.765 16.7411C106.802 16.8954 106.83 16.8977 106.878 16.7591C106.894 16.71 106.87 16.6521 106.821 16.6368ZM108.953 15.7762C108.893 15.7907 108.858 15.8717 108.888 15.9553C108.925 16.0732 108.867 16.1326 108.629 16.1993C108.239 16.3118 108.248 16.3097 108.341 16.3959C108.437 16.4907 108.563 16.4511 108.875 16.2396C109.116 16.0725 109.176 15.7223 108.953 15.7762ZM110.091 13.7686C110.113 13.7089 110.059 13.6764 109.974 13.6971C109.888 13.7179 109.864 13.769 109.902 13.8142C109.94 13.8594 109.994 13.8918 110.019 13.8856C110.045 13.8794 110.069 13.8283 110.091 13.7686ZM30.2 45.1938C30.2218 45.1341 30.1429 45.1078 30.0401 45.1327C29.9373 45.1576 29.8876 45.2149 29.9258 45.2601C29.9725 45.3032 30.0428 45.3315 30.0857 45.3212C30.1285 45.3108 30.1781 45.2535 30.2 45.1938ZM30.0246 45.4811C29.946 45.4185 29.852 45.4049 29.8068 45.4431C29.7702 45.4792 29.6588 45.5061 29.5669 45.5012C29.426 45.4808 29.4132 45.4658 29.5125 45.3511C29.6052 45.247 29.5945 45.2405 29.4678 45.3165C29.3798 45.365 29.2832 45.4156 29.2404 45.426C29.1975 45.4364 29.197 45.5091 29.2263 45.5927C29.2641 45.6742 29.3472 45.7176 29.4222 45.6904C29.4952 45.6546 29.5933 45.6852 29.6377 45.7561C29.6821 45.827 29.748 45.8745 29.7737 45.8683C29.7994 45.8621 29.789 45.8193 29.7509 45.7741C29.7042 45.731 29.7795 45.6674 29.9166 45.6342C30.1222 45.5844 30.1352 45.5632 30.0119 45.466L30.0246 45.4811ZM27.515 45.4173C27.4984 45.3488 27.4455 45.2799 27.3964 45.2646C27.3473 45.2493 27.3317 45.3347 27.3608 45.4546C27.3898 45.5746 27.4427 45.6434 27.4793 45.6073C27.516 45.5712 27.5316 45.4858 27.515 45.4173ZM27.6046 46.0124C27.6817 45.9937 27.7399 45.9343 27.7274 45.8829C27.715 45.8314 27.6704 45.7969 27.6189 45.8093C27.5675 45.8218 27.5179 45.8791 27.5047 45.9368C27.4828 45.9965 27.5275 46.031 27.6132 46.0103L27.6046 46.0124ZM30.3513 45.2569C30.3637 45.3083 30.5006 45.3115 30.6633 45.2721C30.9118 45.2119 30.9248 45.1907 30.754 45.1594C30.4786 45.1082 30.3158 45.1476 30.3427 45.259L30.3513 45.2569ZM31.2257 45.272C31.2485 45.3663 31.278 45.4135 31.3061 45.3795C31.3235 45.339 31.3134 45.2599 31.2646 45.2082C31.2223 45.1459 31.2008 45.1692 31.2257 45.272ZM35.198 35.0776C35.0816 35.1965 35.0855 35.2499 35.2061 35.4112C35.456 35.7317 35.6415 35.5235 35.4412 35.1457C35.3442 34.9697 35.3143 34.9587 35.1894 35.0797L35.198 35.0776ZM33.4334 35.7314C33.3161 35.6963 33.1106 36.0091 33.1479 36.1633C33.1624 36.2233 33.2118 36.2023 33.251 36.1021C33.2923 36.0104 33.3827 35.9341 33.4489 35.9453C33.5878 35.9571 33.5741 35.7881 33.4355 35.74L33.4334 35.7314ZM73.0038 25.3837C72.9872 25.3151 72.9426 25.2806 72.906 25.3166C72.8693 25.3527 72.8496 25.421 72.86 25.4638C72.8703 25.5067 72.915 25.5412 72.9578 25.5308C73.0006 25.5205 73.0204 25.4522 73.0017 25.3751L73.0038 25.3837ZM27.2019 46.1098C27.2143 46.1612 27.2675 46.1937 27.319 46.1813C27.3704 46.1688 27.4028 46.1156 27.3904 46.0642C27.3779 46.0128 27.3247 45.9803 27.2733 45.9928C27.2219 46.0052 27.1895 46.0584 27.2019 46.1098ZM97.275 19.4642C97.2531 19.5239 97.2978 19.5584 97.3835 19.5377C97.5462 19.4983 97.5509 19.4428 97.4123 19.3947C97.3633 19.3793 97.2989 19.4131 97.277 19.4728L97.275 19.4642ZM31.9979 44.94C31.576 45.0331 31.3391 45.2536 31.5177 45.3918C31.5942 45.4458 31.7417 45.4555 31.8404 45.4135C31.939 45.3715 32.0785 45.3105 32.147 45.2939C32.2155 45.2773 32.2332 45.2005 32.1824 45.1403C32.1401 45.0779 32.145 44.986 32.2009 44.9544C32.2546 44.9142 32.1627 44.9092 31.9999 44.9486L31.9979 44.94ZM33.5147 36.2922C33.5835 36.2393 33.6887 36.1866 33.7487 36.1721C33.8086 36.1576 33.7726 36.121 33.6744 36.0903C33.4782 36.0289 33.3214 36.1304 33.3587 36.2846C33.3711 36.336 33.4352 36.3386 33.5147 36.2922ZM11.09 41.1843C11.0682 41.244 11.1043 41.2806 11.1557 41.2682C11.2071 41.2557 11.2395 41.2025 11.2271 41.1511C11.2147 41.0997 11.1872 41.061 11.1614 41.0672C11.1357 41.0735 11.1033 41.1267 11.09 41.1843ZM48.3895 37.1183C48.2392 37.2091 48.1833 37.54 48.3003 37.6115C48.4153 37.6743 48.7497 37.5571 48.8341 37.4188C49.016 37.1208 48.7139 36.9218 48.3895 37.1183ZM48.2379 37.0915C48.2379 37.0915 48.2421 37.1086 48.2507 37.1065C48.2678 37.1024 48.2507 37.1065 48.2379 37.0915ZM54.0075 35.8221C54.0005 35.9054 54.0064 35.9675 54.0235 35.9633C54.0407 35.9592 54.0947 35.8826 54.136 35.791C54.1859 35.6973 54.1799 35.6352 54.12 35.6497C54.06 35.6643 54.0231 35.7367 54.0075 35.8221ZM23.117 29.494C23.1046 29.4426 23.0771 29.4039 23.0514 29.4101C23.0257 29.4163 22.9932 29.4695 22.98 29.5271C22.9581 29.5868 22.9856 29.6255 23.0456 29.611C23.1056 29.5965 23.1295 29.5454 23.117 29.494ZM33.2745 45.1934C33.287 45.2448 33.3402 45.2773 33.3916 45.2648C33.443 45.2524 33.4817 45.2249 33.4755 45.1992C33.4692 45.1735 33.416 45.141 33.3584 45.1277C33.2987 45.1059 33.2621 45.142 33.2745 45.1934ZM11.2121 40.8645C11.2602 40.7259 11.2389 40.7129 10.8861 40.7167C10.6039 40.7124 10.606 40.721 10.8124 40.8615C11.0527 41.0301 11.1511 41.0244 11.2121 40.8645ZM22.7861 30.0003C22.8962 29.8558 22.8932 29.6933 22.7818 29.7202C22.6276 29.7575 22.5063 29.9683 22.5976 30.046C22.6677 30.1106 22.7105 30.1003 22.7861 30.0003ZM42.277 44.7651C42.2551 44.8248 42.2826 44.8635 42.3426 44.849C42.4026 44.8344 42.4265 44.7833 42.414 44.7319C42.4016 44.6805 42.3741 44.6418 42.3484 44.648C42.3227 44.6542 42.2902 44.7074 42.277 44.7651ZM33.7146 45.2501C33.7374 45.3444 33.7669 45.3916 33.795 45.3576C33.8124 45.3172 33.8023 45.238 33.7535 45.1863C33.7112 45.124 33.6897 45.1473 33.7146 45.2501ZM33.874 45.0846C33.8714 45.1487 33.9033 45.1682 33.9591 45.1365C34.0622 45.0753 34.0548 44.932 33.9519 44.9569C33.9177 44.9652 33.8766 45.0204 33.874 45.0846ZM38.5421 44.9978C38.5545 45.0492 38.6249 45.0776 38.702 45.0589C38.7791 45.0402 38.8116 44.987 38.7649 44.9439C38.7182 44.9008 38.6478 44.8725 38.605 44.8828C38.5621 44.8932 38.5297 44.9464 38.5421 44.9978ZM35.062 45.1961C35.3321 45.3756 35.3599 45.378 35.4018 45.2137C35.413 45.1475 35.758 45.0367 35.5618 44.9754C35.2376 44.8725 34.3035 44.8355 34.3201 44.904C34.3429 44.9983 34.388 45.2595 34.2792 45.2223C34.1128 45.1719 34.0961 45.4027 34.2513 45.5193C34.3852 45.6229 34.4109 45.6167 34.4806 45.4547C34.5328 45.3333 34.6208 45.2848 34.7577 45.2879C34.9243 45.302 34.9459 45.2786 34.8527 45.1561C34.785 45.0636 34.8598 45.0727 35.0555 45.2068L35.062 45.1961Z" fill="black"/>
</g>
<defs>
<clipPath id="clip0_4930_9585">
<rect width="112.809" height="34.2562" fill="white" transform="translate(0 26.9531) rotate(-13.6051)"/>
</clipPath>
</defs>
</svg>
