<svg width="69" height="36" viewBox="0 0 69 36" fill="none" xmlns="http://www.w3.org/2000/svg">
<g clip-path="url(#clip0_4487_64)">
<path d="M50.526 7.4498C50.6395 7.45476 50.7283 7.49937 50.7234 7.54893C50.7184 7.71746 50.5457 7.73729 50.4322 7.58859C50.3384 7.46467 50.3532 7.43989 50.526 7.4498ZM49.0157 6.22056C49.1144 6.07186 48.833 5.79924 48.6455 5.86368C48.5221 5.90333 48.5073 5.95786 48.5813 6.11647C48.685 6.33456 48.9021 6.38908 49.0157 6.22551V6.22056ZM50.4075 7.14745C50.5358 7.02849 50.447 6.89961 50.294 6.98388C50.2348 7.01857 50.2101 7.08797 50.2446 7.14249C50.2841 7.21188 50.3335 7.21188 50.4075 7.14249V7.14745ZM23.1579 15.2565C23.1333 15.1772 23.1579 15.0334 23.2122 14.9442C23.3257 14.746 23.2517 14.394 23.0938 14.3891C22.3041 14.3841 22.9161 15.1128 23.074 15.2714C23.1777 15.3804 23.1925 15.3755 23.1579 15.2565ZM49.8399 7.22675C49.988 7.23171 49.9979 7.21684 49.9238 6.99875C49.8942 6.91448 49.8103 6.84014 49.7412 6.84014C49.5635 6.83022 49.5783 6.64683 49.7609 6.58735C49.8399 6.56256 49.909 6.50308 49.909 6.46343C49.909 6.35934 49.6326 6.24534 49.529 6.30482C49.4796 6.3296 49.0305 6.39404 49.0551 6.48821C49.1933 7.00866 49.7215 7.22675 49.835 7.23171L49.8399 7.22675ZM52.1152 8.62948C52.1152 8.70878 52.1745 8.77322 52.2534 8.77818C52.3324 8.77818 52.3966 8.83766 52.3916 8.90705C52.3916 8.99627 52.4114 8.99131 52.4755 8.90209C52.5496 8.79305 52.5742 8.79305 52.6433 8.91201C52.6878 8.98636 52.8506 9.12514 53.0086 9.22427L53.2998 9.40271V9.15984C53.2998 8.95166 53.2208 8.88227 52.7865 8.70878C52.5051 8.59478 52.2386 8.50061 52.1991 8.49565C52.1597 8.49565 52.1202 8.55513 52.1152 8.63443V8.62948ZM61.6311 14.2553C61.6311 14.171 61.5966 14.1016 61.5423 14.1016C61.488 14.1016 61.4436 14.1363 61.4436 14.1859C61.4436 14.2354 61.483 14.3048 61.5324 14.3395C61.5818 14.3742 61.6262 14.3395 61.6311 14.2553ZM50.9702 7.67285C50.9702 7.72241 50.98 7.80172 50.985 7.85129C50.9998 8.02477 51.6513 8.40147 51.7599 8.29738C51.8981 8.16851 51.4884 7.70755 51.2564 7.73233C51.1676 7.74224 51.0936 7.68772 51.0985 7.60841C51.0985 7.52911 51.1528 7.49937 51.2071 7.53902C51.2762 7.58859 51.2811 7.54893 51.2071 7.40023C51.1034 7.1871 51.0047 7.13753 50.8863 7.24658C50.7974 7.32588 50.7974 7.4151 50.8863 7.50928C50.9257 7.54893 50.9554 7.62328 50.9603 7.67285H50.9702ZM52.0955 8.50061C52.1745 8.43617 52.2288 8.1586 52.2288 8.12886C52.2288 8.10408 52.1646 8.12886 52.0807 8.1933C51.9968 8.25773 51.9326 8.32712 51.9326 8.35191C51.9326 8.37669 52.0116 8.56009 52.0955 8.49565V8.50061ZM7.86738 14.7906C7.94635 14.7906 8.01051 14.7559 8.01545 14.7013C8.01545 14.6468 7.95622 14.6022 7.87725 14.5973C7.79828 14.5973 7.73412 14.632 7.72918 14.6865C7.72918 14.741 7.78841 14.7856 7.86738 14.7906ZM55.4221 17.2094C55.4221 17.1549 55.3826 17.1351 55.3283 17.1648C55.274 17.1945 55.2296 17.2391 55.2296 17.2639C55.2296 17.2887 55.2691 17.3085 55.3234 17.3085C55.3777 17.3085 55.4221 17.2689 55.4221 17.2094ZM2.47768 14.4139C2.47768 14.3643 2.41845 14.3445 2.33455 14.3693C2.25558 14.394 2.18648 14.4337 2.18648 14.4535C2.18648 14.4733 2.25064 14.4932 2.32961 14.4981C2.40858 14.4981 2.47768 14.4634 2.47768 14.4089V14.4139ZM54.815 17.3234C54.8446 17.3581 54.9285 17.3631 54.9976 17.3383C55.0766 17.3135 55.0519 17.2887 54.9433 17.2788C54.8397 17.2689 54.7854 17.2887 54.815 17.3234ZM68.9901 18.6964C68.9556 18.855 68.8963 19.3308 68.8618 19.7522C68.8272 20.1784 68.7335 20.6295 68.6545 20.7633C68.5755 20.8971 68.383 21.2193 68.23 21.4771C67.929 21.9826 67.3367 22.0619 66.547 22.0719C66.3051 22.0719 65.782 22.171 65.3871 22.285C64.7652 22.4634 64.0989 22.622 62.4899 22.9888C62.3024 23.0334 61.7841 23.1574 61.335 23.2714C60.8858 23.3854 60.4515 23.4746 60.3676 23.4696C60.2837 23.4696 60.0172 23.5142 59.7803 23.5836C59.5384 23.6481 59.0399 23.7769 58.6648 23.8711C57.5494 24.1487 55.7725 24.6245 55.5652 24.7038C55.4566 24.7435 55.1753 24.8228 54.9335 24.8724C54.6966 24.9269 54.4547 24.9963 54.4004 25.031C54.3461 25.0607 54.0401 25.1797 53.7193 25.2887C53.3985 25.3978 52.9691 25.5812 52.7717 25.6952C52.5693 25.8092 52.3571 25.8984 52.3028 25.8984C52.2485 25.8984 52.0363 25.9926 51.8388 26.1165C51.6414 26.2404 51.4094 26.3395 51.3305 26.3346C51.2515 26.3346 51.0936 26.3841 50.9899 26.4486C50.8813 26.513 50.2693 26.8203 49.6227 27.1227C48.1124 27.8315 47.7077 28.0396 46.923 28.5006C46.5676 28.7088 46.1283 28.9417 45.9408 29.0211C45.7532 29.1004 45.3386 29.3234 45.0129 29.5167C44.6871 29.715 44.3367 29.9132 44.2281 29.9628C44.1195 30.0124 43.853 30.171 43.6358 30.3197C43.4187 30.4634 43.0189 30.6865 42.7524 30.8054C41.4148 31.4102 36.7013 34.3395 36.0103 34.9888C35.2157 35.7373 34.8504 35.9405 34.2137 35.9901C33.73 36.0248 33.6609 36.0099 33.5721 35.8265C33.5178 35.7175 33.3253 35.4002 33.4142 35.1326C33.4438 35.0434 33.3352 34.6072 33.3796 34.2999C33.4438 33.8488 33.5227 32.8674 33.8534 32.5799C33.9966 32.461 34.115 32.2726 34.12 32.1735C34.12 32.0694 34.3963 31.7522 34.727 31.4597C35.0577 31.1673 35.3292 30.8847 35.3292 30.8253C35.3292 30.7658 35.4378 30.6567 35.571 30.5824C35.6994 30.5031 35.8376 30.3445 35.8721 30.2305C35.9363 30.0124 37.1208 29.1648 37.2639 29.2193C37.3084 29.2391 37.9697 28.5997 38.0536 28.5353C38.1326 28.4709 38.256 28.4461 38.3251 28.4758C38.3942 28.5056 38.5768 28.4064 38.7397 28.2577C38.8039 28.1983 38.8532 28.1735 38.8878 28.1685C38.8384 28.1239 38.8631 28.0942 38.9914 28.0644C39.1296 28.0347 39.1888 28.0644 39.1839 28.1636C39.1839 28.2429 39.2333 28.2924 39.2974 28.2726C39.3616 28.2528 39.4208 28.1437 39.4208 28.0297C39.4208 27.9157 39.4603 27.8265 39.4998 27.8265C39.5442 27.8265 39.5788 27.8711 39.5738 27.9256C39.5738 27.9802 39.6429 28.0248 39.7367 28.0297C39.944 28.0396 40.171 27.7274 40.1069 27.5192C40.0575 27.3755 40.0871 27.3655 40.5609 27.3556C40.7386 27.3556 41.0446 27.0929 41.0545 26.9442C41.0545 26.8897 41.1532 26.8451 41.2717 26.85C41.3901 26.85 41.6764 26.7807 41.9034 26.6914C42.1305 26.5973 42.3822 26.5527 42.4612 26.5873C42.5599 26.632 42.6043 26.5824 42.6092 26.4089C42.6191 26.171 42.782 26.0768 43.236 26.0372C43.3348 26.0272 43.4582 25.9529 43.5075 25.8736C43.5569 25.7943 43.7345 25.7001 43.8974 25.6753C44.0751 25.6456 44.2182 25.5514 44.2528 25.4424C44.2824 25.3432 44.4107 25.2391 44.5341 25.2144C44.6575 25.1896 44.7858 25.1053 44.8204 25.026C44.8648 24.9269 44.9536 24.9071 45.1165 24.9517C45.2843 25.0012 45.3534 24.9814 45.3584 24.8872C45.3633 24.7435 45.8914 24.5353 45.9852 24.6394C46.0148 24.6741 46.1925 24.5551 46.3751 24.3767C46.5577 24.1983 46.7848 24.0297 46.8785 23.995C46.9723 23.9653 47.4856 23.6728 48.0137 23.3507C48.9959 22.7559 49.9386 22.3891 50.1953 22.4981C50.2891 22.5378 50.3927 22.4585 50.5013 22.2652C50.6888 21.938 51.0491 21.7745 51.3749 21.8736C51.5378 21.9232 51.6069 21.8934 51.6513 21.7447C51.6858 21.6258 51.7895 21.5514 51.9079 21.5564C52.0165 21.5564 52.13 21.5217 52.1695 21.4721C52.2041 21.4176 52.2732 21.4027 52.3176 21.4374C52.3669 21.4671 52.4064 21.4077 52.4114 21.2986C52.4114 21.1896 52.4212 21.0756 52.4212 21.0409C52.4212 20.9864 50.8517 20.8773 47.3129 20.684C46.7354 20.6543 45.6397 20.6196 44.8747 20.6146C43.9912 20.6097 42.9202 20.4163 41.8195 20.3519C39.6972 20.228 37.486 20.1685 36.415 20.0446C36.3114 20.0347 36.1189 20.0248 35.9856 20.0297C35.8524 20.0297 34.9195 20.0942 33.9028 19.9851C32.6837 19.8562 30.1073 19.7175 26.2575 19.5737C20.4878 19.3606 18.0891 19.3408 15.6114 19.4895C14.7723 19.539 13.7457 19.5291 12.6944 19.4498C11.8011 19.3854 10.7448 19.3606 10.35 19.3953C9.70343 19.4548 8.73111 19.4548 5.50321 19.4101C4.97017 19.4002 4.10643 19.4101 3.58819 19.43C3.06995 19.4498 2.60107 19.4498 2.54678 19.43C2.49742 19.4101 2.13712 19.3755 1.74721 19.3507C1.15493 19.316 1.02661 19.2763 0.9427 19.1177C0.888408 19.0136 0.765018 18.85 0.671241 18.7658C0.577464 18.6766 0.50343 18.4932 0.508365 18.3544C0.513301 18.1908 0.459009 18.0867 0.340554 18.052C0.0592237 17.9628 0.0148031 17.6704 0.261584 17.5217C0.46888 17.3978 0.46888 17.3829 0.325747 17.1103C0.241842 16.9566 0.153001 16.8228 0.123387 16.8228C0.0937731 16.8228 0.0740306 16.7038 0.0740306 16.5551C0.0740306 16.4114 0.0493525 16.1289 0.0197387 15.9256C-0.0296175 15.6134 -0.00987501 15.5638 0.133258 15.5688C0.133258 15.5688 0.271455 14.9888 0.157936 14.6667C0.00986746 14.2652 -0.00987501 13.1797 0.666305 13.5712C0.715661 13.601 0.70579 13.8736 0.952571 13.8637C1.58927 13.8488 1.92489 14.0173 1.74227 14.2652C1.55472 14.5229 1.96437 14.4238 2.05815 14.513C2.20622 14.6567 2.26051 14.6667 2.47274 14.5626C2.75901 14.4287 4.906 14.632 5.11824 14.6419C5.2515 14.6468 5.36008 14.6171 5.36008 14.5774C5.36008 14.5378 5.86845 14.5229 6.26824 14.5378C6.67296 14.5527 6.86051 14.7955 6.92467 14.736C6.98884 14.6766 7.15665 14.6369 7.30472 14.6419C7.45279 14.6468 7.66008 15.1524 7.7736 15.0681C7.88712 14.9789 8.11416 14.9095 8.28691 14.9145C9.38261 14.9244 9.03712 14.6171 9.04206 14.5725C9.04206 14.4535 9.77253 14.3593 9.84656 14.4733C9.97489 14.6766 9.97982 14.6766 10.1723 14.5031C10.3352 14.3544 10.4388 14.3395 10.809 14.4139C11.194 14.4882 12.3094 14.3048 12.3045 14.4337C12.3045 14.5427 12.4575 14.5725 13.0399 14.5824C13.4496 14.5923 13.8296 14.5675 13.8888 14.5328C13.9481 14.4981 14.106 14.5328 14.2442 14.6171C14.3824 14.6964 14.5157 14.7261 14.5453 14.6865C14.5749 14.6468 14.7131 14.6171 14.8562 14.622C14.9994 14.627 15.1375 14.5824 15.1573 14.5229C15.1869 14.4436 15.2313 14.4436 15.3202 14.5229C15.409 14.6072 15.4732 14.5923 15.5768 14.4684C15.7496 14.2602 15.9371 14.2255 16.1 14.3742C16.1839 14.4486 16.3566 14.4684 16.5886 14.4337C16.786 14.404 17.1019 14.3742 17.2895 14.3792C17.4721 14.3792 17.6794 14.4932 17.7386 14.4585C17.8176 14.4139 17.8373 14.4833 17.8028 14.6815C17.7732 14.8401 17.7929 14.969 17.8423 14.974C17.8916 14.974 17.936 14.9145 17.941 14.8302C17.9509 14.6369 18.168 14.3048 18.3309 14.4486C18.4 14.513 19.1601 14.4585 19.3328 14.4783C19.5845 14.508 19.6734 14.969 19.7474 14.7955C19.7968 14.6766 19.8215 14.5477 19.8017 14.508C19.782 14.4684 19.8215 14.4386 19.8955 14.4386C19.9942 14.4386 20.0189 14.5427 19.9794 14.8104C19.9103 15.2961 20.1373 15.6134 20.5174 15.5539C20.8629 15.4994 20.8579 15.3903 20.5075 15.2466C20.1669 15.1078 20.1373 14.9938 20.468 15.0929C20.6901 15.1623 20.7049 15.1474 20.6951 14.7906C20.6852 14.4238 20.6951 14.4188 21.0109 14.4585C21.1985 14.4833 21.3712 14.4486 21.4206 14.3792C21.4798 14.2899 21.5045 14.3048 21.4996 14.4238C21.4996 14.513 21.5785 14.6171 21.6822 14.6567C21.7858 14.6964 21.8648 14.8104 21.8648 14.9145C21.8599 15.0731 21.9142 15.1028 22.2054 15.0929C22.6002 15.0781 22.7433 15.2763 22.4077 15.3655C22.1017 15.4498 22.3633 15.5935 22.7927 15.5787C22.9753 15.5737 23.232 15.5638 23.3652 15.5638C23.538 15.5638 23.5676 15.5341 23.4788 15.4746C23.38 15.4052 23.385 15.3755 23.5133 15.3358C23.6367 15.2961 23.6614 15.2069 23.6219 14.9442C23.5775 14.627 23.5923 14.6072 23.8193 14.6171C23.9526 14.622 24.0908 14.6815 24.1253 14.741C24.1697 14.8203 24.229 14.8054 24.3178 14.6914C24.3918 14.6022 24.4906 14.5576 24.5448 14.5973C24.5991 14.632 24.7373 14.5824 24.8509 14.4882C25.0532 14.3147 25.0631 14.3147 25.4382 14.518C25.6652 14.6419 25.912 14.7063 26.0453 14.6766C26.223 14.6419 26.2575 14.6617 26.2131 14.7707C26.1292 14.9641 26.45 14.974 26.603 14.7807C26.7066 14.6468 27.6197 14.6964 27.6247 14.622C27.6345 14.3792 28.0442 14.5378 28.1034 14.8054C28.133 14.9393 28.1676 14.9789 28.1775 14.8897C28.1873 14.8054 28.4193 14.7856 28.518 14.6667C28.676 14.4882 28.7303 14.4783 28.903 14.5824C29.0363 14.6617 29.1054 14.7955 29.0955 14.974C29.0807 15.3061 29.2978 15.5638 29.5397 15.4845C29.6335 15.4548 29.668 15.4002 29.6187 15.3655C29.5693 15.3308 29.52 15.1524 29.5101 14.969C29.4953 14.6815 29.5249 14.632 29.7322 14.5873C29.8951 14.5527 30.0481 14.5973 30.1961 14.7212C30.433 14.9194 30.7242 14.9839 30.6354 14.8203C30.586 14.7261 30.818 14.7113 31.8841 14.7311C32.0963 14.7311 32.3234 14.7063 32.3925 14.6716C32.4616 14.632 32.6491 14.6766 32.8071 14.7658C33.1378 14.9492 33.6955 15.0087 33.7942 14.8649C33.8288 14.8154 35.4575 15.1474 35.4674 14.9294C35.4674 14.855 35.5118 14.855 35.6056 14.9442C35.6796 15.0087 35.8178 15.0582 35.9116 15.0533C36.0054 15.0483 36.1584 15.0731 36.2521 15.1227C36.3509 15.1722 36.5088 15.1474 36.6569 15.0582C36.7901 14.9789 37.5897 15.2069 37.5107 15.3259C37.4367 15.43 37.7674 15.5192 38.0734 15.4746C38.2313 15.4498 38.3152 15.3903 38.2906 15.311C38.2659 15.2416 38.335 15.1673 38.4337 15.1474C38.636 15.1028 38.7742 15.2367 38.6212 15.3259C38.5669 15.3556 38.5768 15.4845 38.6509 15.6431C38.7446 15.8463 38.7446 15.9256 38.6509 15.9752C38.5768 16.0198 38.6212 16.0496 38.7742 16.0545C38.9075 16.0595 39.0704 16.1239 39.1395 16.1933C39.2382 16.2974 39.2382 16.2825 39.1395 16.1041C39.0408 15.9256 39.0457 15.8662 39.1642 15.7323C39.2875 15.5985 39.2826 15.5588 39.1444 15.4498C39.0605 15.3804 38.9865 15.2961 38.9914 15.2614C38.9914 15.1821 39.5442 15.2218 39.8502 15.3259C39.9983 15.3755 40.1858 15.3556 40.3586 15.2664C40.6152 15.1375 40.6399 15.1425 40.7633 15.3209C40.862 15.4647 40.9212 15.4895 41.0051 15.4101C41.0841 15.3408 41.1927 15.3408 41.3506 15.4101C41.5086 15.4795 41.6912 15.4795 41.9133 15.4101C42.1601 15.3308 42.2687 15.3358 42.3476 15.425C42.4069 15.4895 42.5747 15.5192 42.7178 15.4994C42.9152 15.4696 43.0288 15.5142 43.1521 15.6728L43.32 15.886L43.3792 15.6679C43.4532 15.4002 44.0257 15.3209 44.1047 15.5638C44.1294 15.6431 44.2775 15.7422 44.4255 15.7869C44.5736 15.8265 44.6921 15.8909 44.6871 15.9256C44.618 16.2924 44.8154 16.3271 45.1412 16.0049C45.388 15.7621 44.5391 15.7769 44.6723 15.5489C44.7562 15.4052 45.4373 15.4696 45.5706 15.5588C45.6891 15.6431 45.8667 15.6481 46.2122 15.5935C46.5084 15.544 46.7206 15.5489 46.7749 15.6084C46.8242 15.6629 46.9476 15.7075 47.0562 15.7125C47.3129 15.7274 48.9219 15.8463 48.9959 16.114C49.0255 16.223 48.2062 16.2379 47.9101 16.223C47.9298 16.2429 47.9446 16.2726 47.9397 16.3172C47.9397 16.4015 47.9891 16.4808 48.0532 16.4907C48.1174 16.5006 48.2161 16.5254 48.2654 16.5403C48.3148 16.5551 48.4777 16.5799 48.6257 16.5898C48.8133 16.6047 48.8725 16.6493 48.8182 16.7286C48.7788 16.793 48.8429 16.7683 48.9614 16.6691C49.0798 16.575 49.1637 16.4461 49.1489 16.3916C49.1193 16.2825 49.3661 16.0049 49.4352 16.0793C49.4549 16.1041 50.7036 16.2379 50.7185 16.3668C50.7382 16.5551 49.5833 16.5898 49.8695 16.6245C50.0571 16.6444 50.3039 16.7137 50.4124 16.7782C50.5753 16.8724 50.6494 16.8674 50.8024 16.7385C50.985 16.5849 51.0837 16.2528 51.2811 16.461C51.5328 16.7187 51.5082 16.6394 51.7056 16.456C51.8191 16.3519 52.0412 16.337 52.6581 16.3916C53.0974 16.4312 53.512 16.5056 53.5762 16.565C53.7391 16.7088 54.7558 16.8079 54.82 17.031C54.8841 17.254 54.2918 17.1103 54.3708 17.1995C54.5584 17.4077 54.4695 17.487 54.0303 17.487C53.8378 17.487 53.5564 17.5018 53.4133 17.5217C53.2652 17.5365 53.1517 17.5118 53.1517 17.4572C53.1517 17.3978 52.9987 17.3829 52.747 17.4176C52.52 17.4473 52.2633 17.4671 52.1695 17.4572C52.0757 17.4473 52.0017 17.482 51.9968 17.5316C51.9968 17.6357 51.9524 17.6307 53.1172 17.6952C53.6058 17.7199 54.0303 17.715 54.0648 17.6852C54.0994 17.6555 54.1833 17.6753 54.2474 17.7348C54.3856 17.8637 55.8318 17.9331 56.0785 17.829C56.2661 17.7497 56.3944 17.7546 56.5277 17.8439C56.6609 17.9331 57.1446 17.943 57.1496 17.8538C57.1496 17.8141 56.9719 17.7398 56.7498 17.6902C56.2908 17.5911 56.1032 17.4969 55.8762 17.2491C55.7873 17.1549 55.659 17.0657 55.585 17.0508C55.5109 17.0359 55.3925 16.9715 55.3234 16.912C55.2049 16.803 54.5337 16.4015 53.4972 15.8116C53.2652 15.6778 52.9938 15.4746 52.9 15.3606C52.7124 15.1326 51.8043 14.632 51.0738 14.3544C50.7925 14.2453 50.5951 14.1066 50.5654 13.9975C50.5408 13.8984 50.4124 13.7844 50.2891 13.7447C50.1657 13.7051 50.0176 13.6158 49.9584 13.5365C49.8991 13.4572 49.7807 13.3928 49.6918 13.3878C49.603 13.3878 49.3661 13.2441 49.1687 13.0805C48.9712 12.912 48.7788 12.7732 48.7442 12.7732C48.7097 12.7732 48.3494 12.5452 47.9496 12.2776C47.2191 11.7869 47.0612 11.6828 46.2122 11.1425C45.9605 10.9839 45.5657 10.7063 45.3288 10.5279C45.0918 10.3494 44.6822 10.0421 44.4255 9.84881C44.1639 9.6555 43.8925 9.41263 43.8283 9.30854C43.7592 9.2094 43.5914 9.06071 43.4483 8.97644C43.3051 8.89714 43.1916 8.798 43.1966 8.75835C43.1966 8.7187 42.9843 8.51548 42.7227 8.3073C42.1897 7.88598 41.6961 7.39528 40.8966 6.49813C40.5116 6.0669 40.3635 5.82403 40.3734 5.63567C40.3833 5.39776 40.1513 4.81287 39.9193 4.50556C39.8551 4.4213 39.8601 4.34199 39.9341 4.26764C39.9933 4.19825 40.0279 3.91572 40.0131 3.58363C40.0131 3.58363 40.2105 2.45352 40.3142 2.25525C40.5363 1.83394 40.63 1.60098 40.709 1.30854C40.7979 0.966529 41.326 0.698871 41.5382 0.708784C41.6221 0.708784 41.8146 0.589825 41.9577 0.441126C42.1848 0.203208 42.4463 0.113989 42.7425 0.178425C42.782 0.188338 42.8165 0.148685 42.8165 0.0941623C42.8165 0.0396394 42.9202 0.00494294 43.0386 0.00989957C43.0386 0.00989957 43.2163 0.0247694 43.2262 0.173468C43.236 0.356864 43.083 0.693914 43.1324 0.827743C43.2163 1.07062 43.32 1.26888 43.3594 1.26888C43.3989 1.26888 43.4828 1.42254 43.5519 1.60593C43.621 1.78933 43.7642 1.97272 43.8727 2.01238C43.9813 2.05203 44.0652 2.13629 44.0652 2.20073C44.0603 2.32465 44.3614 2.68648 44.6427 2.90457C44.7661 2.99875 44.8253 3.20693 44.85 3.60346C44.8796 4.05947 44.9191 4.18338 45.0622 4.21808C45.2004 4.25277 45.235 4.21808 45.2004 4.06442C45.1412 3.79181 45.3732 3.73729 45.5657 3.9752C45.6742 4.10408 45.8075 4.1586 45.9803 4.13382C46.4146 4.07434 46.8637 4.80792 46.4491 4.89714C46.3554 4.91696 46.227 4.88227 46.1678 4.82279C45.8914 4.5353 45.768 4.46095 45.5903 4.45104C45.309 4.43617 45.3436 4.56504 45.6891 4.78809C45.8569 4.89714 46.0099 5.01114 46.0345 5.04584C46.1382 5.18462 46.6712 5.55637 46.7798 5.56132C46.8588 5.56132 46.8884 5.42254 46.8785 5.12514L46.8637 4.684L47.1944 4.75835C47.377 4.798 47.5745 4.89714 47.6287 4.97644C47.683 5.05575 47.7719 5.12018 47.8212 5.12514C48.1223 5.14001 48.4431 5.9182 48.2013 6.05203C48.0828 6.11647 47.6337 5.88846 47.4215 5.66046C47.229 5.45228 46.9772 5.41758 46.9674 5.60098C46.9575 5.7695 47.2586 6.06194 47.4511 6.07186C47.535 6.07186 47.7916 6.24038 48.0285 6.43369C48.2605 6.63196 48.5172 6.79057 48.5961 6.79553C48.6751 6.79553 48.7393 6.83518 48.7343 6.87483C48.7343 6.97892 49.2772 7.30606 49.4747 7.31597C49.5685 7.31597 49.6968 7.39032 49.7609 7.47458C49.8251 7.55885 49.8991 7.60346 49.9288 7.57867C49.9584 7.55389 50.0373 7.61833 50.1064 7.72737C50.1755 7.83642 50.2742 7.92564 50.3236 7.93059C50.373 7.93059 50.5358 8.02973 50.6839 8.14869C50.832 8.26764 50.9948 8.33704 51.0541 8.30234C51.1133 8.26764 51.1577 8.28747 51.1577 8.34199C51.1577 8.39652 51.2564 8.47582 51.3848 8.51052C51.5131 8.55017 51.6809 8.68896 51.7599 8.82774C51.8635 9.00123 51.9622 9.06071 52.1054 9.03096C52.3472 8.97644 53.1221 9.37297 53.1122 9.5415C53.1073 9.66046 53.2998 9.78933 53.4923 9.79924C53.5416 9.79924 53.586 9.71498 53.591 9.61089C53.6009 9.35315 53.9118 9.37297 54.3215 9.6555C54.5485 9.80916 55.4764 10.4287 55.7232 10.6567C55.8712 10.7955 56.1921 10.969 56.4339 11.0384C56.6757 11.1128 56.8485 11.2069 56.8189 11.2515C56.7893 11.2961 56.9127 11.2912 57.0953 11.4101C57.3963 11.6084 57.4654 11.7175 57.426 11.9207C57.4161 11.9603 57.4704 11.995 57.5444 12C57.6185 12 57.727 12.0743 57.7912 12.1586C57.8554 12.2429 57.9294 12.2924 57.9541 12.2676C57.9787 12.2429 58.1318 12.3569 58.2897 12.5204C58.4476 12.684 58.6006 12.5898 58.6401 12.5898C58.6796 12.5898 58.9906 12.8178 58.9856 12.9368C58.9757 13.2144 58.9066 13.6059 59.0498 13.5266C59.109 13.4919 59.1534 13.3531 59.1436 13.2193C59.1288 13.0012 59.1584 12.9814 59.3755 13.031C59.5088 13.0607 59.721 13.1747 59.8395 13.2738C59.9629 13.3779 60.1307 13.4671 60.2146 13.4721C60.3479 13.482 60.8069 13.9678 60.6785 14.0421C60.5996 14.0917 59.9777 13.6505 59.8592 13.6456C59.7408 13.6456 59.6421 13.6803 59.6421 13.7348C59.6421 13.7893 59.6865 13.8339 59.7457 13.8339C59.8099 13.8339 59.8296 13.938 59.7951 14.0768C59.7556 14.2404 59.7803 14.3147 59.874 14.3197C59.953 14.3197 59.9826 14.28 59.9481 14.2106C59.9036 14.1264 60.0221 14.1214 60.3972 14.1809C60.6785 14.2305 60.9845 14.2701 61.0783 14.2751C61.1721 14.2751 61.2412 14.3494 61.2412 14.4287C61.2412 14.5279 61.335 14.5774 61.5521 14.5873C61.7249 14.5973 61.9174 14.6567 61.9815 14.7261C62.0753 14.8253 62.0951 14.8253 62.0704 14.7261C62.0556 14.6567 62.1247 14.5477 62.2184 14.4932C62.3566 14.4139 62.4504 14.4287 62.6775 14.5725C62.8354 14.6716 63.023 14.7559 63.0921 14.7608C63.1612 14.7608 63.2599 14.8401 63.3043 14.9294C63.3783 15.0731 65.3822 15.2614 65.471 15.2714C65.8955 15.3209 66.1225 15.3606 66.2064 15.3903C66.4039 15.4647 66.9715 15.3606 67.1886 15.5886L67.4157 15.8215C67.4157 15.8215 68.0326 15.6382 68.383 16.2974C68.4768 16.4758 68.2251 16.5403 68.383 16.7584C68.5212 16.9417 69.0642 18.3197 68.9753 18.7113L68.9901 18.6964ZM47.8163 5.61089C47.8805 5.68028 47.9545 5.71002 47.9841 5.68524C48.0137 5.6555 47.9644 5.60098 47.8706 5.56132C47.7373 5.50185 47.7275 5.51176 47.8163 5.61089ZM52.1399 9.39776C52.0659 9.31349 51.9524 9.2441 51.8882 9.2441C51.8043 9.2441 51.7994 9.27384 51.8882 9.38784C51.9474 9.47211 52.0609 9.5415 52.1399 9.5415C52.2584 9.54645 52.2584 9.52663 52.1399 9.39776ZM52.6335 9.85377C52.6335 9.79924 52.5397 9.75463 52.4212 9.74968C52.2485 9.74472 52.2337 9.75959 52.3472 9.8389C52.4212 9.89342 52.52 9.93803 52.5594 9.94298C52.5989 9.94298 52.6335 9.90333 52.6335 9.85377ZM56.3154 11.1574C56.0637 11.1821 55.7923 11.3903 55.9996 11.4002C56.044 11.4002 56.1624 11.3457 56.271 11.2763C56.4043 11.1871 56.4191 11.1524 56.3204 11.1623L56.3154 11.1574ZM56.8929 12.3123C56.7942 12.3023 56.735 12.3222 56.7646 12.3569C56.7942 12.3916 56.8781 12.3965 56.9472 12.3717C57.0262 12.347 57.0015 12.3222 56.8929 12.3123ZM0.508365 16.6394C0.315876 16.6295 0.182614 16.7534 0.325747 16.8079C0.384975 16.8327 0.483687 16.8079 0.54785 16.7484C0.631756 16.6741 0.621885 16.6444 0.513301 16.6394H0.508365ZM6.93948 15.1177C6.83583 15.1078 6.78154 15.1276 6.81115 15.1623C6.84077 15.197 6.92467 15.202 6.99377 15.1772C7.07274 15.1524 7.04807 15.1276 6.93948 15.1177ZM14.338 15.1772C14.3133 15.1524 14.2491 15.1574 14.1899 15.1871C14.032 15.2763 14.0616 15.3308 14.2294 15.2763C14.3133 15.2515 14.3577 15.2069 14.338 15.1772ZM21.1886 14.9789C21.1343 14.9789 21.085 15.0186 21.085 15.0731C21.085 15.1276 21.0998 15.1673 21.1245 15.1722C21.1491 15.1722 21.1936 15.1326 21.2281 15.0781C21.2627 15.0285 21.2479 14.9839 21.1886 14.9789ZM21.4255 15.3308C21.3318 15.3606 21.2725 15.4151 21.3021 15.4448C21.3318 15.4746 21.4107 15.4448 21.4749 15.3854C21.5736 15.2961 21.5637 15.2813 21.4255 15.3308ZM21.6674 14.9987C21.6131 14.9987 21.5637 15.0384 21.5637 15.088C21.5637 15.1425 21.5785 15.1871 21.6032 15.1871C21.6279 15.1871 21.6723 15.1474 21.7069 15.0929C21.7414 15.0434 21.7266 14.9987 21.6674 14.9938V14.9987ZM24.1352 15.0681C24.0019 15.1425 24.0217 15.3556 24.1747 15.4944C24.2882 15.5935 24.3227 15.5886 24.377 15.4647C24.4511 15.2912 24.2685 14.9888 24.1352 15.0681ZM25.7294 15.2614C25.6652 15.1177 25.6356 14.974 25.6652 14.9442C25.8281 14.7955 25.5764 14.9145 25.3543 15.0929C25.068 15.3259 25.0088 15.4895 25.2457 15.4101C25.3345 15.3804 25.4579 15.4101 25.527 15.4696C25.7442 15.6679 25.8577 15.544 25.7294 15.2614ZM26.0946 15.4498C26.0107 15.4101 25.9515 15.4448 25.9466 15.5291C25.9466 15.6084 25.9811 15.6728 26.0305 15.6728C26.1933 15.6778 26.2378 15.5142 26.0946 15.4498ZM27.141 15.1474C27.1015 14.9591 27.0916 14.9591 26.9633 15.1128C26.7856 15.3259 26.7856 15.3209 27.0028 15.3308C27.136 15.3358 27.1755 15.2912 27.141 15.1425V15.1474ZM27.679 15.3308C27.679 15.2565 27.6247 15.1425 27.5457 15.0731C27.4272 14.969 27.4075 14.9888 27.3976 15.202C27.3927 15.3606 27.4371 15.4548 27.5309 15.4597C27.6099 15.4597 27.679 15.4052 27.679 15.3358V15.3308ZM28.2614 15.2961C28.0294 15.2862 28.0047 15.3408 28.1972 15.425C28.2712 15.4597 28.365 15.4448 28.3946 15.3953C28.4292 15.3457 28.365 15.3011 28.2564 15.2961H28.2614ZM30.2751 15.1425C30.2751 15.0582 30.2356 15.0186 30.1813 15.0483C30.127 15.0781 30.0826 15.1425 30.0777 15.1921C30.0777 15.2416 30.1172 15.2813 30.1715 15.2862C30.2257 15.2862 30.2702 15.2218 30.2751 15.1425ZM31.3363 15.0037C31.3461 14.8253 31.282 14.8203 31.0994 14.969C30.9118 15.1177 30.9167 15.1276 31.1388 15.1375C31.2425 15.1375 31.3313 15.083 31.3363 15.0037ZM31.7015 16.4114C31.6719 16.3569 31.6028 16.3321 31.5534 16.3618C31.4202 16.4362 31.4399 16.4956 31.6077 16.5056C31.6916 16.5056 31.7311 16.4659 31.7015 16.4114ZM31.8792 15.6927C31.8792 15.6084 31.8397 15.5688 31.7854 15.5985C31.7311 15.6282 31.6867 15.6927 31.6818 15.7422C31.6818 15.7918 31.7212 15.8364 31.7755 15.8364C31.8298 15.8364 31.8742 15.772 31.8792 15.6927ZM32.8466 15.4994C32.8466 15.4448 32.8071 15.425 32.7528 15.4498C32.6985 15.4795 32.6541 15.5242 32.6541 15.5489C32.6541 15.5737 32.6936 15.5935 32.7478 15.5985C32.8021 15.5985 32.8466 15.5588 32.8466 15.4994ZM32.9502 16.4758C32.8515 16.4659 32.7923 16.4857 32.8219 16.5204C32.8515 16.5551 32.9354 16.5601 33.0045 16.5353C33.0835 16.5105 33.0588 16.4857 32.9502 16.4758ZM33.9521 16.5155C33.8436 16.5155 33.7547 16.5502 33.7498 16.6047C33.7498 16.6592 33.809 16.7038 33.883 16.7088C33.9571 16.7137 34.0509 16.6741 34.0854 16.6196C34.12 16.57 34.0607 16.5204 33.9521 16.5155ZM34.5197 15.5142C34.4062 15.4647 34.2976 15.5142 34.1742 15.6629C34.0509 15.8116 34.0262 15.9009 34.0953 15.9306C34.1545 15.9554 34.2236 15.9256 34.2483 15.8612C34.2828 15.7769 34.3273 15.7769 34.4457 15.8761C34.5296 15.9455 34.5691 15.9653 34.5296 15.9157C34.4951 15.8662 34.5148 15.772 34.574 15.7075C34.6579 15.6134 34.6431 15.5688 34.5197 15.5142ZM35.8573 15.3011C35.8326 15.2218 35.7931 15.1524 35.7734 15.1524C35.7536 15.1524 35.7339 15.2168 35.729 15.2961C35.729 15.3755 35.7635 15.4399 35.8129 15.4448C35.8622 15.4448 35.882 15.3854 35.8573 15.3011ZM37.0418 15.9157C36.8296 15.8761 36.7309 16.0942 36.8888 16.2627C37.0122 16.3965 37.0369 16.3965 37.1307 16.2528C37.2541 16.0545 37.2294 15.9554 37.0418 15.9157ZM39.4356 16.9517C39.406 16.8971 39.3172 16.8525 39.2431 16.8476C39.1691 16.8476 39.1049 16.8872 39.1 16.9368C39.1 16.9913 39.1839 17.0359 39.2925 17.0409C39.4011 17.0409 39.4652 17.0062 39.4356 16.9517ZM40.9805 15.9256C40.8916 15.8662 40.7732 15.9405 40.7682 16.0644C40.7682 16.109 40.8077 16.1487 40.8521 16.1487C40.9805 16.1536 41.0742 15.9901 40.9805 15.9256ZM41.706 16.0892C41.6863 16.0198 41.6122 15.9405 41.5481 15.9157C41.479 15.886 41.4395 15.9207 41.4592 15.995C41.479 16.0644 41.553 16.1437 41.6172 16.1685C41.6863 16.1983 41.7257 16.1586 41.706 16.0892ZM42.318 16.9665C42.1354 16.9219 42.086 16.9517 42.091 17.0904C42.091 17.2144 42.1551 17.2639 42.2835 17.254C42.5648 17.2243 42.5845 17.031 42.318 16.9665ZM42.5352 16.1289C42.5056 16.0743 42.4365 16.0496 42.3871 16.0793C42.2489 16.1536 42.2736 16.2131 42.4414 16.223C42.5253 16.223 42.5648 16.1834 42.5352 16.1289ZM43.3496 16.1685C43.3496 16.114 43.3101 16.0694 43.2607 16.0694C43.2064 16.0694 43.162 16.109 43.162 16.1586C43.162 16.2131 43.2015 16.2577 43.2558 16.2577C43.3101 16.2577 43.3545 16.2181 43.3545 16.1685H43.3496ZM44.0455 16.1883C43.9912 16.1289 43.8974 16.1041 43.8382 16.1388C43.6753 16.228 43.7049 16.2825 43.9369 16.2924C44.0899 16.2974 44.1195 16.2726 44.0455 16.1883ZM45.6446 16.2726C45.6446 16.2181 45.6051 16.1735 45.5558 16.1735C45.5015 16.1735 45.4571 16.2131 45.4571 16.2676C45.4571 16.3222 45.4966 16.3668 45.5459 16.3668C45.6002 16.3668 45.6446 16.3271 45.6446 16.2776V16.2726ZM46.9279 17.1549C46.8588 17.1945 46.8588 17.2441 46.9279 17.3185C46.9822 17.3779 47.0513 17.4027 47.0858 17.368C47.1796 17.2788 47.0414 17.0904 46.9279 17.1549ZM47.6781 16.3717C47.5646 16.3618 47.4461 16.3123 47.4165 16.2627C47.3869 16.2131 47.2142 16.1735 47.0315 16.1784C46.8489 16.1834 46.686 16.1437 46.6712 16.0843C46.6515 16.0248 46.5479 16.0545 46.4146 16.1636L46.1925 16.347L46.4639 16.4114C46.612 16.4461 46.8242 16.451 46.9279 16.4213C47.0365 16.3916 47.2043 16.4015 47.3079 16.4411C47.4116 16.4857 47.5843 16.4907 47.6929 16.451C47.8805 16.3866 47.8805 16.3816 47.6781 16.3668V16.3717ZM49.6622 17.4126C49.6326 17.3581 49.5635 17.3333 49.5142 17.3631C49.376 17.4424 49.4006 17.4969 49.5685 17.5068C49.6524 17.5068 49.6918 17.4671 49.6622 17.4126ZM50.827 17.3432C50.6444 17.2738 50.4766 17.2738 50.3039 17.3432C50.0719 17.4374 50.067 17.4572 50.2101 17.5465C50.2989 17.601 50.5358 17.6406 50.7333 17.6357C51.1577 17.6208 51.2021 17.487 50.832 17.3432H50.827ZM51.5772 17.4027C51.5476 17.3482 51.4785 17.3234 51.4292 17.3531C51.3107 17.4225 51.3009 17.6803 51.4144 17.6852C51.5427 17.6902 51.6414 17.5217 51.5772 17.4027ZM22.4028 14.6667C22.4571 14.6369 22.5015 14.5725 22.5064 14.5229C22.5064 14.4733 22.4669 14.4287 22.4127 14.4287C22.3584 14.4287 22.3139 14.4932 22.309 14.5725C22.309 14.6567 22.3485 14.6964 22.4028 14.6667ZM20.2657 14.7261C20.32 14.7261 20.3644 14.6865 20.3644 14.632C20.3644 14.5774 20.3249 14.5328 20.2755 14.5328C20.2212 14.5328 20.1768 14.5725 20.1768 14.622C20.1768 14.6766 20.2163 14.7212 20.2657 14.7212V14.7261ZM8.4942 14.7509C8.60279 14.7261 8.55836 14.5477 8.53369 14.518C8.50901 14.4932 8.42017 14.4882 8.33626 14.518C8.11909 14.5923 8.26223 14.7955 8.48927 14.7509H8.4942ZM21.7908 14.632C21.9734 14.7608 22.0573 14.746 22.0622 14.5824C22.0672 14.4188 22.0524 14.4139 21.8253 14.4882C21.697 14.5328 21.6871 14.5576 21.7858 14.627L21.7908 14.632ZM8.93347 14.6667C8.98776 14.6667 9.00257 14.627 8.97296 14.5725C8.94334 14.518 8.87424 14.4733 8.82489 14.4684C8.7706 14.4684 8.75579 14.508 8.7854 14.5626C8.81502 14.6171 8.88412 14.6617 8.93347 14.6667Z" fill="black"/>
</g>
<defs>
<clipPath id="clip0_4487_64">
<rect width="69" height="36" fill="white"/>
</clipPath>
</defs>
</svg>
