<svg width="121" height="105" viewBox="0 0 121 105" fill="none" xmlns="http://www.w3.org/2000/svg">
<g clip-path="url(#clip0_4930_9627)">
<path d="M18.0069 80.8583C17.8129 80.8929 17.7143 80.8251 17.548 80.5259C17.2766 80.0283 16.4934 79.4069 16.1028 79.373C15.9273 79.3575 15.7805 79.2851 15.7607 79.201C15.741 79.117 15.8059 79.0802 15.9025 79.1119C15.9991 79.1436 16.0969 79.122 16.1186 79.0548C16.1754 78.8961 16.4931 79.0322 16.8661 79.3706C17.0413 79.5287 17.1634 79.708 17.1433 79.7666C17.1233 79.8253 17.2485 79.965 17.4248 80.0698C17.6012 80.1747 17.728 80.3058 17.7096 80.3558C17.6947 80.411 17.8059 80.5302 17.9651 80.6318C18.2229 80.8012 18.2282 80.82 18.0017 80.8618L18.0069 80.8583ZM24.4914 86.5805C24.5131 86.5132 24.4177 86.4282 24.2711 86.3781C24.128 86.3331 23.9165 86.1547 23.7997 85.9943C23.6881 85.8303 23.4277 85.5802 23.2285 85.4309C22.4907 84.8761 22.0246 85.0286 22.6202 85.6278C22.8147 85.8253 23.0658 86.0067 23.1742 86.0228C23.2862 86.0441 23.3867 86.1256 23.403 86.2045C23.4478 86.3914 24.4362 86.7306 24.4828 86.5789L24.4914 86.5805ZM18.8132 81.7339C18.7146 82.0186 18.7497 82.0921 19.0557 82.2662C19.2528 82.3794 19.3969 82.5138 19.3717 82.5759C19.3517 82.6346 19.3884 82.6995 19.4591 82.7263C19.5264 82.748 19.4928 82.4784 19.3845 82.1323C19.1588 81.3936 18.9736 81.2647 18.8081 81.7374L18.8132 81.7339ZM18.4037 81.3529C18.5503 81.403 18.5814 81.2394 18.4795 81.0238C18.427 80.9246 18.3644 80.8548 18.3388 80.8722C18.2447 80.9213 18.2985 81.3196 18.4037 81.3529ZM21.7803 84.835C21.7803 84.835 21.8019 84.9328 21.8523 84.9959C21.9028 85.059 21.9629 85.0481 21.9846 84.9808C22.0062 84.9136 21.9746 84.8451 21.9125 84.8199C21.8538 84.7999 21.7903 84.8057 21.7803 84.835ZM20.6121 83.1859C20.604 83.0639 20.5077 82.8896 20.3932 82.7875C19.9181 82.3762 19.6718 82.499 20.1127 82.9261C20.5936 83.401 20.6178 83.4145 20.6121 83.1859ZM21.9867 84.4994C22.0512 84.418 21.973 84.3363 21.7419 84.2612C21.5539 84.1943 21.3791 84.0809 21.3663 84.0071C21.3501 83.9281 21.284 83.8532 21.2254 83.8331C21.1667 83.8131 21.1017 83.8498 21.0766 83.9119C21.0565 83.9706 20.9227 83.9943 20.7744 83.9528C20.6296 83.9164 20.756 84.0028 21.0532 84.1529C21.3504 84.3029 21.658 84.4683 21.7325 84.5226C21.8104 84.582 21.9203 84.5671 21.9729 84.5013L21.9867 84.4994ZM28.8866 89.6313C28.5084 89.4614 28.1675 89.2362 28.1287 89.1351C28.035 88.8765 26.8251 88.3882 26.6874 88.5495C26.6245 88.6223 26.5128 88.6234 26.4174 88.5384C26.2631 88.411 26.2664 88.3938 26.4978 88.3261C26.8303 88.2197 26.7505 87.9815 26.3314 87.8396C26.1382 87.7761 25.8869 87.5723 25.7664 87.3844C25.6303 87.1846 25.4433 87.0421 25.2936 87.0316C25.1525 87.0226 24.9493 86.9886 24.8407 86.9501C24.6682 86.8951 24.6444 86.9263 24.6811 87.1563C24.7176 87.3639 24.7834 87.4165 24.9722 87.3854C25.1799 87.349 25.2199 87.3967 25.1983 87.6514C25.1829 87.8269 25.2305 87.9519 25.2957 87.9375C25.366 87.9196 25.6411 88.0922 25.9098 88.3217C27.3903 89.5705 28.7177 90.4513 29.4764 90.6844C29.7126 90.756 29.7596 90.814 29.6662 90.9301C29.515 91.1155 29.7343 91.2062 30.0097 91.0711C30.4528 90.8518 29.8398 90.0619 28.8866 89.6313ZM10.6904 74.1129L10.723 73.9407C10.6513 73.6371 10.2332 73.6068 9.97597 73.6696C9.84909 73.7035 9.86698 73.7738 10.044 73.9457C10.3772 74.2587 10.7624 74.4388 10.6852 74.1164L10.6904 74.1129ZM15.7056 78.5036C15.7899 78.5062 15.7157 78.4743 15.5332 78.4486C15.2955 78.408 15.2192 78.34 15.2645 78.2192C15.2962 78.1226 15.2399 77.9959 15.1412 77.9281C14.8401 77.7283 14.785 77.7133 14.8138 77.8437C14.8282 77.9089 14.7169 77.9547 14.5621 77.9476C14.3109 77.9312 14.3251 77.9741 14.705 78.3227C15.2013 78.7871 15.4189 78.8864 15.4975 78.6604C15.5275 78.5724 15.6265 78.4975 15.7108 78.5001L15.7056 78.5036ZM12.405 75.5623C12.7817 75.7631 12.8092 75.7594 12.6661 75.5494C12.5789 75.4213 12.447 75.2937 12.3762 75.2669C12.3055 75.2401 12.0126 74.9971 11.7331 74.73C11.091 74.1175 10.9616 74.0707 10.8429 74.4139C10.746 74.69 10.8958 74.8879 11.2856 75.0198C11.4115 75.0616 11.4831 75.1778 11.443 75.2951C11.3948 75.4554 12.269 76.0673 12.3675 75.9477C12.5238 75.7588 12.1734 75.4425 12.405 75.5623ZM7.69291 72.2774C7.70917 72.3563 7.80805 72.4464 7.91837 72.4763C8.08222 72.5297 8.0941 72.5141 7.97406 72.3709C7.80168 72.1508 7.64645 72.0991 7.68942 72.2723L7.69291 72.2774ZM13.7913 77.1903C13.7913 77.1903 14.1928 77.2843 14.0144 76.9783C13.836 76.6724 13.0306 76.0735 13.0306 76.0735L12.7775 76.3734C12.7745 76.248 12.7289 76.159 12.6845 76.1818C12.64 76.2046 12.6427 76.3077 12.6937 76.4155C12.7357 76.4994 13.312 77.0592 13.6029 77.2661C13.8384 77.4357 13.7973 77.2762 13.7948 77.1954L13.7913 77.1903ZM7.04965 71.5532C7.0659 71.6321 7.14059 71.7087 7.21995 71.7371C7.30443 71.7621 7.3005 71.7123 7.2256 71.6133C7.05671 71.3984 7.01528 71.3816 7.05314 71.5583L7.04965 71.5532ZM14.1123 77.4965C13.9864 77.4548 13.8728 77.4422 13.8663 77.4766C13.8563 77.506 13.933 77.6187 14.0373 77.7276C14.185 77.8895 14.2383 77.8907 14.2817 77.7562C14.3134 77.6596 14.2452 77.5485 14.1107 77.5052L14.1123 77.4965ZM110.952 37.4563C110.615 38.1954 110.344 39.0405 110.263 39.6051C110.215 39.9082 110.149 40.0429 110.037 40.0217C109.882 39.9923 109.499 40.8832 109.6 41.0317C109.624 41.0676 109.816 40.9746 110.028 40.8229C110.296 40.6329 110.341 40.5568 110.194 40.5823C110.034 40.6011 109.986 40.5517 110.018 40.3795C110.051 40.2296 110.14 40.1616 110.295 40.191C110.605 40.2499 111.005 39.3623 110.791 39.1031C110.671 38.9599 110.683 38.9219 110.873 38.8599C111.036 38.8015 111.103 38.6805 111.114 38.3882C111.124 38.1714 111.22 37.7613 111.33 37.4835C111.441 37.2056 111.505 36.9144 111.479 36.8425C111.405 36.6455 111.25 36.8258 110.966 37.4544L110.952 37.4563ZM113.051 31.9394C113.011 32.012 113.094 32.2776 113.243 32.5289C113.552 33.0605 113.474 33.3088 112.849 33.7345C112.475 33.9892 112.445 34.0548 112.401 34.6621C112.369 35.1111 112.294 35.3645 112.172 35.4706C112.023 35.5941 112.017 35.6286 112.142 35.648C112.237 35.6659 112.176 35.7525 111.993 35.8695C111.826 35.976 111.665 36.1908 111.634 36.3544C111.603 36.5181 111.527 36.6374 111.458 36.6244C111.397 36.6129 111.378 36.3862 111.432 36.1243C111.545 35.5301 111.344 35.5768 111.111 36.1929C110.94 36.6467 110.776 36.7583 110.713 36.4564C110.699 36.3689 110.623 36.5329 110.55 36.8225C110.32 37.7514 110.3 37.81 110.09 38.1181C109.828 38.5144 109.823 38.5626 110.055 38.5173C110.267 38.4773 110.263 38.6906 110.04 38.9249C109.939 39.0307 109.903 39.0328 109.918 38.9329C109.978 38.592 109.724 38.7802 109.587 39.1735C109.308 39.986 109.017 40.6266 108.739 41.0334C108.585 41.2584 108.425 41.5849 108.378 41.759C108.274 42.1675 107.94 42.4476 107.72 42.3122C107.604 42.2412 107.56 42.2639 107.581 42.3841C107.594 42.4802 107.673 42.5619 107.75 42.5543C108.015 42.5465 107.822 42.8802 107.55 42.9001C107.337 42.9177 107.303 42.9559 107.409 43.0562C107.515 43.1566 107.507 43.1997 107.402 43.211C107.32 43.2222 107.198 43.44 107.132 43.6951C106.97 44.3156 106.681 44.6846 106.217 44.8508C105.833 44.9921 105.764 45.1218 105.663 45.8878C105.593 46.4231 105.402 46.7259 105.173 46.6869C105.009 46.6558 105.001 46.6765 105.122 46.7888C105.33 46.9844 104.986 47.4589 104.559 47.5697C104.386 47.6127 104.223 47.6934 104.215 47.7588C104.204 47.8191 104.263 47.8391 104.34 47.8091C104.431 47.7773 104.455 47.8355 104.403 47.9684C104.355 48.084 104.199 48.175 104.058 48.1661C103.647 48.1461 103.508 48.3383 103.507 48.909C103.505 49.4351 103.43 49.5235 103.238 49.2418C103.161 49.1291 103.1 49.1486 103.009 49.3231C102.94 49.4528 102.832 49.5484 102.772 49.5369C102.712 49.5255 102.702 49.6219 102.753 49.752C102.829 49.9404 102.774 50.0905 102.48 50.463C102.161 50.8753 102.106 50.9051 102.077 50.6853C102.042 50.4467 102.028 50.4486 101.89 50.7078C101.795 50.8772 101.784 51.0046 101.86 51.0502C102.094 51.1837 101.79 51.4429 101.541 51.3198C101.383 51.2406 101.35 51.2478 101.432 51.3347C101.529 51.4334 100.046 53.5386 99.8253 53.5236C99.7548 53.5191 98.9857 54.4929 98.6175 54.9762C98.071 55.6934 97.3469 56.0065 97.4092 55.7016C97.4321 55.5811 97.3977 55.5745 97.2335 55.6638C97.0489 55.7671 97.044 55.7929 97.1917 55.9548C97.3394 56.1166 97.3345 56.1425 97.1362 56.2476C97.0165 56.3141 96.9058 56.427 96.8911 56.5045C96.8764 56.582 96.756 56.7465 96.6198 56.8768C96.4274 57.0678 96.3587 57.0771 96.292 56.935C96.2357 56.8084 96.2155 56.8447 96.2398 57.0456C96.2555 57.2448 96.1814 57.4003 95.9835 57.5501C95.8317 57.6685 95.5168 57.9879 95.2909 58.2618C95.065 58.5357 94.7757 58.8377 94.6546 58.9351C94.5335 59.0326 94.2965 59.2241 94.1277 59.3616C93.9299 59.5263 93.8697 59.5223 93.947 59.3496C94.0831 59.0319 93.8734 59.0323 93.5636 59.3482C93.3543 59.5583 93.3596 59.5772 93.661 59.6344C93.8591 59.672 93.9406 59.7365 93.8742 59.8042C93.8181 59.8649 93.7012 59.8695 93.6095 59.812C93.3777 59.6698 93.0033 59.8799 93.1855 60.0482C93.2809 60.1333 93.0597 60.3589 92.4472 60.8361C91.7682 61.3585 91.5168 61.4848 91.308 61.4095C91.0906 61.3326 91.0599 61.3535 91.1508 61.5091C91.2366 61.6681 91.0818 61.8261 90.358 62.349C89.863 62.7012 89.4094 63.0701 89.357 63.1583C89.2351 63.3538 88.3998 63.5477 88.2044 63.4259C88.1283 63.3802 87.9448 63.4302 87.7946 63.54C87.5608 63.7142 87.5559 63.7401 87.7412 63.7038C88.2904 63.6073 87.6414 64.2068 86.8775 64.4946C86.5846 64.6041 86.1749 65.0706 85.8024 65.2944C84.7292 65.9428 84.0121 66.2663 84.1558 66.0259C84.2472 65.8737 84.2244 65.8292 84.0628 65.8342C83.9288 65.8356 83.8437 65.931 83.8299 66.0979C83.8147 66.2957 83.5467 66.4858 82.7376 66.8943C81.6291 67.4469 81.4508 67.4933 81.4174 67.2461C81.4027 67.1586 81.2039 67.219 80.9254 67.3937C80.6127 67.5842 80.5107 67.6986 80.6313 67.7215C80.7295 67.7446 80.8873 67.7121 80.9847 67.6458C81.082 67.5795 81.1472 67.5651 81.139 67.6082C81.1161 67.7287 79.874 68.3273 79.8217 68.2504C79.7972 68.2146 79.8667 68.1073 79.9791 68.0082C80.1547 67.8586 80.1529 67.8449 79.985 67.9067C79.8754 67.9439 79.6975 68.0351 79.5813 68.1067C78.9799 68.4788 77.6402 69.1213 77.5196 69.0985C77.4421 69.0838 77.2984 69.1591 77.198 69.265C77.0364 69.4351 77.0453 69.459 77.2617 69.4466C77.3974 69.4366 77.5448 69.3888 77.5856 69.3385C77.6315 69.2848 77.7257 69.258 77.7946 69.2711C77.9669 69.3038 77.6513 69.5562 77.1671 69.781C76.9566 69.8794 76.7368 69.9091 76.6726 69.8478C76.5928 69.7747 76.6077 69.7195 76.7379 69.6684C76.8441 69.6261 76.8608 69.5846 76.7833 69.5699C76.599 69.5305 76.2923 69.8069 76.3523 69.961C76.3788 70.033 76.3417 70.1107 76.2784 70.1388C76.2116 70.1618 76.1509 70.1057 76.1481 70.0026C76.1449 69.8548 76.0213 69.8715 75.5522 70.0635C75.0574 70.273 74.9927 70.3321 75.1605 70.4353C75.3404 70.5453 75.332 70.566 75.051 70.6599C74.8796 70.7166 74.6389 70.7155 74.5163 70.6566C74.3608 70.5825 74.3317 70.5948 74.4255 70.6884C74.5227 70.7872 74.2768 70.9547 73.522 71.2888C72.1374 71.9094 72.1323 71.9129 72.1717 71.7285C72.1881 71.6424 72.328 71.5396 72.4824 71.5019C72.6367 71.4643 72.8025 71.3664 72.8498 71.2817C72.8987 71.1884 72.7409 71.2209 72.4757 71.349C72.2242 71.4753 71.7069 71.6627 71.3298 71.7695C70.9475 71.8799 70.6616 71.9997 70.693 72.0458C70.7209 72.0867 70.6689 72.2196 70.5704 72.3392C70.4125 72.5368 70.3901 72.537 70.3227 72.3279C70.266 72.1566 70.2039 72.1314 70.0602 72.2068C69.9559 72.2628 69.8867 72.3924 69.9083 72.4902C69.9248 72.5915 69.8722 72.6573 69.7809 72.6445C69.6948 72.6281 69.3603 72.6985 69.0329 72.8015C67.2096 73.3834 66.297 73.585 66.1735 73.4367C66.022 73.2474 65.8681 73.3297 65.9118 73.5699C65.9498 73.769 65.7264 73.7712 65.6436 73.5726C65.6171 73.5007 65.1331 73.5828 64.5229 73.766C63.9316 73.9437 63.2269 74.1312 62.949 74.1856C61.8131 74.4117 60.9683 74.6797 60.9354 74.8296C60.9141 74.9416 60.8094 74.9529 60.5608 74.8522C60.2588 74.728 60.2245 74.7438 60.2524 74.9498C60.2765 75.1284 60.2595 75.1475 60.1741 75.0331C60.0939 74.9153 59.8499 74.9315 59.2909 75.0797C58.8726 75.1922 58.478 75.2735 58.4177 75.262C58.3574 75.2506 58.1504 75.3541 57.9455 75.4936C57.7304 75.6402 57.5092 75.7008 57.414 75.6382C57.3224 75.5806 57.2365 75.5866 57.225 75.6469C57.194 75.8105 56.5865 75.7444 56.1922 75.6829C56.0062 75.6521 55.8672 75.6793 55.8919 75.7375C55.9165 75.7957 55.8085 75.8243 55.6535 75.7949C55.4985 75.7655 55.0506 75.8456 54.6478 75.9699C54.2537 76.0959 53.7697 76.178 53.5837 76.1472C53.0673 76.0715 52.8012 76.1103 52.8472 76.2439C52.8737 76.3159 52.7622 76.3393 52.5986 76.3083C52.4349 76.2772 52.1053 76.3218 51.8604 76.4136C51.6206 76.5019 51.2567 76.5623 51.064 76.5436C50.8696 76.5334 50.5007 76.5973 50.2455 76.6961C49.9903 76.7949 49.5937 76.675 49.5248 76.662C49.4473 76.6473 48.8924 76.6803 48.2827 76.7431C47.6782 76.8024 46.9016 76.8513 46.5629 76.8495C46.2277 76.8529 45.7275 76.8561 45.4577 76.8674C43.8215 76.9094 41.6132 76.9812 39.7716 76.7657C39.2432 76.7056 38.777 76.6707 38.7239 76.6918C38.6331 76.7237 31.115 75.2975 29.182 74.8817C28.6341 74.76 28.1049 74.6105 28.0148 74.5443C27.9248 74.4782 27.689 74.4513 27.5002 74.4824C27.0334 74.5678 26.7732 74.5051 26.8764 74.3373C26.9407 74.2335 26.6647 74.1366 25.7688 73.9443C24.7266 73.7243 23.6886 73.4114 22.51 72.9693C22.322 72.9024 21.6377 72.7235 20.9967 72.5751C20.3506 72.4303 19.7371 72.2782 19.6335 72.2362C19.5248 72.1978 19.415 72.2126 19.3812 72.2731C19.3474 72.3336 16.5141 71.2787 16.5036 71.7808C16.4984 71.9493 17.0649 72.2084 17.4036 72.5627C18.281 73.4874 19.5575 74.8002 19.8371 74.9023C20.2909 75.0731 20.3309 75.1209 20.223 75.3368C20.1489 75.4923 20.1603 75.597 20.2741 75.632C20.3707 75.6637 20.4663 75.7711 20.4862 75.8775C20.5027 75.9787 20.7323 76.2498 20.9873 76.4811C21.2424 76.7123 21.4338 76.9494 21.4138 77.008C21.3937 77.0667 21.5326 77.2046 21.7262 77.3127C21.9198 77.4208 22.2456 77.6788 22.4471 77.8866C22.6486 78.0943 22.8757 78.2846 22.9515 78.3079C23.0274 78.3312 23.1909 78.5273 23.3219 78.7306C23.4477 78.9373 23.6701 79.1758 23.8172 79.2706C24.3154 79.5837 27.3428 82.1788 27.2986 82.0589C27.2298 81.8808 27.2449 81.8479 27.3829 81.8964C27.5503 81.9549 28.364 82.5331 28.7663 82.8815C29.6854 83.6804 30.1329 83.743 30.9528 84.242C31.3523 84.4873 31.7211 84.7535 31.77 84.8252C31.8223 84.9021 32.0317 85.0444 32.2407 85.142C32.4963 85.253 32.6075 85.3722 32.569 85.4809C32.4939 85.712 32.7487 85.9209 33.0525 85.8715C33.3461 85.829 33.6127 86.0224 33.5079 86.1988C33.4674 86.2714 33.596 86.4162 33.8103 86.5327C34.0212 86.6441 34.248 86.812 34.3211 86.8972C34.3941 86.9825 34.7211 87.1872 35.0511 87.3524C35.8353 87.7332 35.9461 87.8077 36.74 88.4669C37.1109 88.7692 37.5109 89.0592 37.6298 89.0907C37.7471 89.1308 37.8928 89.2565 37.9437 89.3643C37.9981 89.4773 38.1251 89.6307 38.2257 89.7122C38.3452 89.8108 38.3652 89.9171 38.2786 90.0212C38.1919 90.1252 38.9323 90.2433 39.1958 91.1587C39.2974 91.517 38.9477 92.1376 38.3901 92.2549C37.8926 92.3613 37.795 92.5703 38.1883 92.7073C38.3142 92.749 38.3824 92.8601 38.3558 92.9532C38.3241 93.0498 38.2508 93.1073 38.1835 93.0856C38.1248 93.0655 38.0513 93.1006 38.0312 93.1593C38.0112 93.2179 38.0635 93.2948 38.1429 93.3232C38.3654 93.3966 37.7286 94.7078 37.4252 94.8019C37.1407 94.8907 37.0654 95.0994 37.2166 95.4315C37.3186 95.6694 37.3086 95.6987 37.0511 95.7391C36.8486 95.7721 36.7312 95.897 36.6378 96.1781C36.4674 96.6767 35.7343 95.9086 35.553 95.6646C35.3544 95.3949 35.3577 95.3777 35.6044 95.2996C35.7467 95.2552 35.8149 95.2013 35.7614 95.1777C35.7027 95.1577 33.6658 93.6204 32.9749 93.1235C32.6685 92.9048 32.3138 92.6814 32.1861 92.6259C32.0669 92.5721 31.7074 92.3745 31.3893 92.1937C31.0763 92.0095 30.781 91.8731 30.7416 91.8924C30.6184 91.9538 30.1395 91.3277 30.2226 91.2185C30.299 91.1215 30.7233 91.26 31.5541 91.654C31.9306 91.8325 32.3915 91.8486 32.2317 91.68C32.1866 91.6357 31.9648 91.4643 31.7398 91.3101C31.5148 91.1559 30.8239 90.659 30.2092 90.2078C29.5944 89.7566 28.9228 89.2992 28.7222 89.1808C28.5216 89.0625 28.2896 88.898 28.2131 88.8077C28.1349 88.7259 27.4557 88.1911 26.7058 87.6295C24.4941 85.9788 22.9375 84.6843 21.3581 83.1802C20.9607 82.806 20.461 82.3365 20.2527 82.1408C20.0394 81.9487 19.1401 81.0688 18.2495 80.1906C17.3589 79.3124 16.3435 78.3391 16.0001 78.0331C15.6481 77.7254 14.9696 77.0926 14.4871 76.6264C14.001 76.155 13.5794 75.7672 13.5466 75.7521C13.5087 75.7404 13.0522 75.3014 12.5278 74.7737C11.9983 74.2495 11.5211 73.8021 11.4675 73.7785C11.2329 73.6984 7.91868 70.4288 7.95365 70.315C7.96694 70.2685 7.74824 70.0575 7.46925 69.835C7.19027 69.6126 6.86199 69.2737 6.74477 69.0686C6.48614 68.6448 5.33732 67.3875 5.14415 67.3241C5.04756 67.2924 5.03427 67.339 5.09774 67.4982C5.14191 67.6181 5.27732 67.7509 5.39974 67.7875C5.51703 67.8276 5.62312 67.9503 5.62423 68.062C5.63046 68.1703 5.87447 68.5065 6.16972 68.8079C6.46496 69.1092 6.74691 69.4571 6.79806 69.5873C6.84571 69.7123 7.06508 69.9903 7.27866 70.2048C7.49737 70.4158 7.79795 70.736 7.94591 70.9202C8.09898 71.1009 8.67551 71.6831 9.22739 72.2072C10.156 73.097 10.4735 73.5632 9.9601 73.2829C9.84258 73.2205 9.68267 73.2169 9.60256 73.2865C9.49171 73.377 9.42074 73.3278 9.27539 73.0594C9.17725 72.8712 8.9483 72.6672 8.78097 72.6087C8.5878 72.5453 8.51311 72.4687 8.58298 72.4061C8.64608 72.3556 8.7613 72.3596 8.83413 72.4225C8.90696 72.4854 9.01193 72.4964 9.05967 72.4564C9.11602 72.418 9.02716 72.2985 8.8801 72.2037C8.70534 72.0903 8.55381 72.066 8.46858 72.139C8.37311 72.2191 8.30421 72.206 8.2256 72.0796C8.16279 71.9874 7.96688 71.8208 7.79049 71.716C7.54149 71.5706 7.49057 71.4628 7.55747 71.2748C7.63112 71.0746 7.59437 71.0097 7.36 70.9518C7.19801 70.9122 6.90061 70.7398 6.69259 70.5665C6.48458 70.3932 6.3906 70.2772 6.35222 70.2209C6.36268 70.2362 6.3629 70.2586 6.36825 70.2775C6.38985 70.3752 6.36936 70.3892 6.30678 70.3193C6.25281 70.2511 5.79469 69.8207 5.54837 69.426C5.34578 69.1066 5.3357 68.7835 5.13043 68.7133C4.94587 68.6515 4.76042 68.5004 4.71113 68.384C4.66696 68.2641 4.53155 68.1313 4.41426 68.0912C4.29696 68.0511 4.13364 67.8774 4.05294 67.7149C3.96876 67.5472 3.7796 67.3686 3.62437 67.3169C3.42771 67.2483 3.33002 67.1049 3.29268 66.8078C3.25951 66.583 2.89559 66.2909 2.74 66.0294C2.50066 65.645 2.5004 64.7528 2.35134 64.4568C2.18669 64.149 2.12211 63.878 2.19012 63.8017C2.253 63.7289 2.25441 63.6979 2.19457 63.7312C2.04765 63.8238 1.76691 62.9051 1.88874 62.7096C1.95304 62.6059 2.67859 62.6141 2.30066 61.9491C2.03995 61.4893 2.01813 61.3692 2.16558 61.1562C2.26224 61.0229 2.38497 60.9168 2.43664 60.9266C2.48831 60.9364 2.55795 60.8515 2.57919 60.7396C2.60042 60.6276 2.77022 60.4145 2.94581 60.2649C3.2476 60.0143 3.33439 60.0977 4.29431 60.1638C4.85342 60.203 5.61245 60.2934 5.97927 60.3585C6.34958 60.4288 6.94105 60.4384 7.30327 60.3867C7.66549 60.3349 8.20648 60.2814 8.50374 60.2664C8.80449 60.2566 9.32596 60.1414 9.6668 60.0142C10.5729 59.682 11.9199 59.4245 12.2303 59.528C12.4149 59.5898 14.4545 59.1381 14.6936 58.9827C14.7704 58.9304 14.8649 58.926 14.9015 58.9686C14.938 59.0112 15.1186 59.0232 15.2988 58.9904C15.5477 58.9484 15.5935 58.8947 15.503 58.7838C15.3169 58.5656 16.6551 58.2842 17.2271 58.4195C17.5942 58.5069 17.6731 58.4907 17.6869 58.3238C17.6944 58.2137 17.7725 58.1081 17.8565 58.0883C19.4295 57.7443 20.2918 57.502 20.6199 57.301C20.842 57.1647 21.0851 57.0592 21.1642 57.0653C21.2434 57.0714 21.4508 57.0126 21.6306 56.9351C22.4198 56.6076 23.3501 56.2889 23.7072 56.2406C23.8634 56.2167 24.6836 55.5381 24.9986 55.4061C25.3136 55.274 25.8778 54.9573 26.2655 54.7007C26.6481 54.4476 27.0208 54.2462 27.1 54.2523C27.1791 54.2584 27.4844 54.013 27.7823 53.7126C28.0988 53.3846 28.4932 53.1159 28.7504 53.0532C28.9888 52.9958 29.2126 52.8509 29.2613 52.7352C29.3636 52.4781 30.1346 51.8704 31.7669 50.7437C32.7761 50.0563 35.9508 47.4066 37.0372 46.3592C38.1355 45.2962 38.6759 44.6582 38.8774 44.1834C38.8774 44.1834 39.6019 42.6926 40.3993 42.6744C41.1968 42.6562 40.9192 43.9551 41.0156 43.9645C41.1119 43.9739 41.2424 44.1324 41.301 44.3175C41.5334 45.0441 41.8843 45.2401 41.8011 45.5142C41.7396 45.7211 41.722 46.0256 41.7717 46.1867C41.9016 46.6307 41.8206 47.4807 41.286 48.3473C41.0085 48.7987 40.6979 49.0253 40.7286 49.1694C40.7901 49.48 38.9069 52.3524 38.7424 52.232C38.6801 52.1845 38.51 52.5403 38.2065 52.7994C37.9047 53.05 37.5531 53.3045 37.4144 53.354C36.9674 53.5235 36.5364 53.7495 36.6465 53.757C36.7033 53.7633 36.68 53.8392 36.5863 53.933C36.4978 54.0232 36.2974 54.0923 36.1477 54.0817C35.9981 54.0712 35.8351 54.1072 35.7927 54.166C35.7503 54.2249 35.8262 54.2482 35.96 54.2245C36.2929 54.1628 36.257 54.3523 35.8681 54.6621C35.6942 54.8031 35.5428 54.9662 35.5381 55.0144C35.529 55.1331 34.6219 55.8933 34.4946 55.8826C34.4413 55.8814 34.1169 56.1098 33.776 56.402C32.9014 57.1327 32.2221 57.6328 31.4873 58.0734C31.1403 58.2797 30.7601 58.5912 30.6431 58.7608C30.5143 58.946 30.3213 59.07 30.1767 59.0559C30.0408 59.0435 29.7977 59.1491 29.6461 59.2899C29.2968 59.6028 27.3037 60.7503 26.7864 60.9377C26.6853 60.9765 26.4083 61.1202 26.1689 61.2532C25.9142 61.3967 25.6518 61.4629 25.5224 61.4161C25.3895 61.3641 25.2764 61.3962 25.2258 61.4981C25.1569 61.6501 24.6594 61.7564 23.8363 61.7921C23.6747 61.7972 23.4933 61.8832 23.4307 61.9784C23.368 62.0735 23.1266 62.1705 22.8982 62.1985C22.6664 62.2215 22.4745 62.2921 22.4717 62.3541C22.4546 62.5382 22.0978 62.4437 22.039 62.2363C21.9696 61.9912 21.3494 62.0386 20.718 62.3336C20.4784 62.4443 20.1697 62.5196 20.0217 62.5004C19.8736 62.4813 19.5198 62.5123 19.2281 62.5685C19.084 62.5991 19.5321 62.5414 19.7874 62.63C20.0462 62.7237 20.1106 62.9723 20.088 62.9502C20.0603 62.9316 19.7704 63.1665 19.3975 63.1805C19.0693 63.1941 18.653 62.9902 18.6034 63.0165C18.4495 63.0988 18.4548 63.1177 18.6303 63.1331C18.6785 63.1378 18.8325 63.4079 18.1031 63.5372C17.1421 63.7118 15.2371 63.6894 15.3011 63.7283C15.3409 63.7537 15.3983 63.9921 16.0746 64.2364C17.2271 64.6513 18.8386 65.0685 19.0786 65.1676C19.4549 65.3237 19.9617 65.286 20.0173 65.3456C20.2257 65.5636 20.9267 65.8661 21.7145 66.0869C22.1593 66.2114 22.732 66.4138 22.9773 66.5317C23.2675 66.6715 25.7519 67.2141 29.9703 68.0456C32.4938 68.5466 34.2708 69.0086 36.1733 69.3026C39.5429 69.8347 41.8888 69.9318 41.9937 69.9428C42.2328 69.9524 43.7891 70.0023 45.1608 69.9904C46.6357 69.9758 48.1379 69.77 48.8118 69.7685C49.2484 69.771 49.6693 69.7394 49.748 69.7008C49.8267 69.6622 50.1116 69.6181 50.3779 69.6017C51.1219 69.5599 52.737 69.2998 52.8891 69.2037C52.9608 69.1549 53.1393 69.1307 53.2806 69.162C53.5476 69.2126 54.4809 69.0194 57.041 68.3631C57.4354 68.2595 57.806 68.187 57.8576 68.1968C57.9093 68.2066 58.4101 68.083 58.9637 67.916C59.5173 67.7489 60.0439 67.6302 60.1386 67.6481C60.2334 67.6661 60.7101 67.5514 61.2053 67.3866C61.7005 67.2218 62.3847 67.0482 62.7348 66.9897C64.0203 66.7741 66.4032 65.9236 67.5901 65.4751C68.0748 65.295 68.5462 65.1614 68.6375 65.1742C68.7322 65.1922 68.9257 65.1129 69.0759 65.0031C69.2226 64.8882 70.4922 64.6383 70.7048 64.5761C70.9174 64.5138 75.4298 62.4078 75.5892 62.3666C75.7487 62.3255 76.1217 62.1465 76.4207 61.9578C76.7145 61.7727 77.3066 61.4969 77.728 61.3449C78.1494 61.1929 78.7228 60.9448 78.9981 60.7873C79.4563 60.5352 81.2263 59.5996 82.6927 58.7358C83.7524 58.1116 84.42 57.6494 85.4513 56.9395C87.2442 55.7183 89.7031 53.6911 89.8957 53.5225C91.002 52.5814 91.4075 52.2078 91.6723 51.8699C91.837 51.6603 92.1486 51.3581 92.3721 51.1908C92.5957 51.0236 93.0261 50.5654 93.3282 50.1722C93.6303 49.779 94.0674 49.3087 94.2977 49.1294C94.528 48.95 95.0852 48.1056 95.6945 47.4806C96.3037 46.8557 96.8202 46.0615 96.9978 45.948C97.172 45.8294 97.3355 45.673 97.3518 45.5869C97.3847 45.437 98.4094 44.0567 98.6462 43.8429C98.7808 43.7212 99.7551 42.4652 99.9701 42.1313C100.046 42.0119 100.348 41.574 100.633 41.1551C101.651 39.6889 101.963 39.1993 102.471 38.2608C102.945 37.3828 103.616 36.3859 104.153 35.7651C104.519 35.3437 105.286 34.0485 105.342 33.7557C105.37 33.6093 105.517 33.3517 105.675 33.1765C105.828 33.0048 106.192 32.427 106.48 31.8929C106.83 31.2499 107.072 30.9346 107.184 30.9559C107.279 30.9738 107.527 30.8648 107.734 30.7166C108.215 30.3663 108.8 30.2676 109.05 30.5024C109.187 30.6265 109.265 30.6412 109.35 30.5458C109.435 30.4504 109.655 30.4878 110.205 30.668C110.742 30.8501 110.976 30.8856 111.054 30.8023C111.116 30.738 111.149 30.6328 111.124 30.5746C111.066 30.4119 111.239 30.1592 111.788 30.5801C111.788 30.5801 112.298 31.2524 112.429 31.2459C112.718 31.2293 113.233 31.6883 113.126 31.8733L113.051 31.9394ZM33.7096 56.1173C33.775 56.1252 33.8346 56.0696 33.8374 56.0077C33.8454 55.9423 33.7898 55.8827 33.7279 55.8799C33.6624 55.8719 33.6028 55.9275 33.6 55.9894C33.5921 56.0548 33.6477 56.1145 33.7096 56.1173ZM32.9421 56.73C33.0424 56.6242 33.0555 56.5553 32.9799 56.5543C32.9093 56.5499 32.8153 56.5989 32.7626 56.6648C32.6184 56.8605 32.7634 56.9192 32.9421 56.73ZM30.3932 58.526C30.5471 58.4437 30.5297 58.4181 30.3095 58.4031C30.1598 58.3925 30.0399 58.4367 30.032 58.5021C30.0214 58.6518 30.1488 58.6625 30.3881 58.5295L30.3932 58.526ZM28.2194 59.8266C28.507 59.6983 28.5885 59.5978 28.4044 59.5807C28.3476 59.5744 28.216 59.6565 28.1208 59.7588C27.9591 59.9289 27.9677 59.9306 28.2211 59.818L28.2194 59.8266ZM27.3947 60.2233C27.4997 60.2343 27.6641 60.1674 27.7491 60.072C27.955 59.8568 27.7623 59.838 27.4463 60.0458C27.2414 60.1853 27.233 60.206 27.3947 60.2233ZM26.153 61.0316C26.2661 60.9996 26.3565 60.923 26.3628 60.8662C26.3784 60.7131 26.3047 60.7258 26.1158 60.922C25.9779 61.0609 25.9833 61.0797 26.153 61.0316ZM25.5458 61.1752C25.5458 61.1752 25.6311 61.1021 25.6765 61.0037C25.7219 60.9052 25.7057 60.8263 25.6403 60.8184C25.5784 60.8156 25.519 60.8935 25.5096 60.9899C25.5002 61.0862 25.52 61.1703 25.5423 61.1701L25.5458 61.1752ZM24.6921 61.0667C24.7286 61.1094 24.8336 61.1204 24.9227 61.0971C25.0221 61.0669 24.9926 61.0345 24.8532 61.017C24.7258 61.0062 24.6555 61.0241 24.6921 61.0667ZM23.6901 60.7518C23.7679 60.7888 23.9038 60.8012 23.9895 60.7729C24.0751 60.7445 24.0095 60.7142 23.8426 60.7004C23.6757 60.6866 23.6089 60.7096 23.6901 60.7518ZM24.2356 61.4976C24.4344 61.4372 24.4377 61.42 24.2217 61.3121C23.8917 61.1469 23.6888 61.1352 23.6799 61.2762C23.6679 61.4568 23.9837 61.5792 24.2356 61.4976ZM21.828 61.0677L22.1674 61.1365C22.3603 61.1776 22.5491 61.1465 22.6069 61.0771C22.656 61.0062 22.7657 60.969 22.8502 60.9939C22.9346 61.0189 23.0338 60.9663 23.0725 60.88C23.1263 60.7608 23.0866 60.7354 22.9152 60.7921C22.7867 60.8347 22.4866 60.9116 22.2533 60.9655L21.8245 61.0625L21.828 61.0677ZM20.5095 61.7632C20.7325 61.7163 20.9681 61.7209 21.039 61.77C21.2901 61.9515 22.7402 62.0437 22.9777 61.8969C23.1794 61.7746 23.057 61.738 22.0831 61.6514C21.4602 61.5957 20.9351 61.5183 20.9056 61.486C20.836 61.4059 20.7897 61.4149 20.2908 61.5522C19.7679 61.6984 19.957 61.877 20.5095 61.7632ZM18.0398 62.178C18.1894 62.1886 18.3128 62.1495 18.3173 62.079C18.3278 61.9293 18.2056 61.915 17.956 62.0551C17.8021 62.1374 17.8196 62.163 18.0398 62.178ZM16.7221 62.4455C16.7142 62.5109 16.8541 62.5731 17.021 62.587C17.193 62.5973 17.2991 62.555 17.2589 62.4849C17.2238 62.4113 17.0925 62.3507 16.9601 62.3434C16.8328 62.3327 16.7215 62.3785 16.717 62.449L16.7221 62.4455ZM4.40075 66.2106C4.00454 65.7831 3.95102 65.7595 3.92391 65.973C3.8599 66.4515 4.00896 66.7474 4.29226 66.712C4.43822 66.695 4.58157 66.7624 4.62389 66.8686C4.69968 67.0569 4.8368 67.016 4.84505 66.8079C4.84788 66.746 4.6441 66.4798 4.39911 66.2192L4.40075 66.2106ZM11.2315 72.342C11.1107 72.2968 11.0386 72.3009 11.0648 72.3505C11.0911 72.4001 11.1861 72.4404 11.2806 72.436C11.3837 72.4333 11.3644 72.394 11.235 72.3471L11.2315 72.342ZM30.8307 91.5168C30.7635 91.4951 30.695 91.5267 30.6698 91.5889C30.6447 91.651 30.6556 91.7111 30.6814 91.716C30.7107 91.726 30.7792 91.6944 30.8423 91.6439C30.9054 91.5934 30.8945 91.5333 30.8307 91.5168ZM28.771 83.3508C28.7972 83.4004 28.8922 83.4407 28.9832 83.4312C29.0863 83.4284 29.067 83.3891 28.9376 83.3422C28.822 83.2935 28.7447 83.3012 28.771 83.3508ZM27.7536 82.6939L27.9479 82.869C28.0537 82.9694 28.2215 83.0726 28.313 83.1078C28.4631 83.163 28.4698 83.1509 28.3463 83.0026C28.2698 82.9122 28.1071 82.8055 27.9812 82.7638L27.7536 82.6939ZM32.3786 92.1048L31.9372 92.1505L32.6024 92.3123C33.1436 92.4462 33.2439 92.5054 33.1505 92.6215C33.0298 92.7637 33.165 92.8741 33.3515 92.7846C33.5038 92.7108 33.2442 92.1977 33.0217 92.1242C32.9131 92.0858 32.6242 92.0801 32.3786 92.1048ZM21.2781 77.8879C21.3782 77.9247 21.4517 77.8896 21.4304 77.8141C21.4141 77.7352 21.3774 77.6703 21.3566 77.6619C21.3308 77.657 21.2624 77.6886 21.2044 77.7356C21.1413 77.7861 21.178 77.851 21.2781 77.8879ZM21.6875 71.8497C21.3856 71.7478 20.9904 71.597 20.8057 71.5129C20.279 71.2792 18.6907 70.9511 18.8056 71.0978C18.858 71.1746 19.4756 71.3989 20.1757 71.612C20.8758 71.8251 21.6173 72.055 21.8226 72.1251C22.0313 72.2004 22.2085 72.2072 22.2164 72.1418C22.2279 72.0816 21.991 71.9429 21.6891 71.8411L21.6875 71.8497ZM23.9078 72.6322C23.7896 72.5027 23.4307 72.3722 22.9915 72.2889C22.5213 72.2041 22.3288 72.2078 22.4328 72.2944C22.5213 72.3692 22.9336 72.5232 23.3491 72.6377C24.0231 72.8236 24.0815 72.8213 23.9078 72.6322ZM27.4629 73.5029C26.8352 73.308 25.2372 73.0316 25.1398 73.0979C25.0118 73.1851 27.6276 73.8107 27.8073 73.7333C27.9237 73.684 27.8044 73.6078 27.4629 73.5029ZM29.9042 74.2024C29.914 74.1507 29.6515 74.0296 29.3119 73.9384C28.9758 73.8523 28.6241 73.7544 28.5275 73.7227C28.4344 73.6961 28.2678 73.7046 28.1565 73.7504C28.011 73.812 28.0957 73.8593 28.4834 73.9552C28.7781 74.0245 29.2089 74.1285 29.4519 74.188C29.6949 74.2475 29.8944 74.2541 29.9093 74.1989L29.9042 74.2024ZM33.9743 74.9923C33.7476 74.8467 31.9189 74.54 31.7959 74.6237C31.755 74.6516 32.2754 74.7771 32.9573 74.8976C33.66 75.0264 34.0988 75.065 33.9743 74.9923ZM36.8644 75.5361C36.6051 75.3977 34.3891 75.0398 34.2626 75.1184C34.2319 75.1393 34.8675 75.2688 35.6736 75.4173C36.5313 75.5755 37.0268 75.6205 36.8644 75.5361ZM38.5458 75.7257C38.4591 75.6423 38.3176 75.5887 38.2249 75.6069C38.1322 75.625 37.869 75.6018 37.6451 75.5593C37.4212 75.5168 37.2564 75.5391 37.2845 75.6024C37.3233 75.7035 37.7264 75.7889 38.5283 75.8651C38.6866 75.8773 38.6933 75.8652 38.5528 75.736L38.5458 75.7257ZM39.9194 75.8926L39.5076 75.8056C39.2802 75.758 39.0051 75.7504 38.8989 75.7927C38.7345 75.8597 38.7399 75.8785 38.9361 75.9024C39.0669 75.9183 39.3421 75.9258 39.5448 75.9152L39.9194 75.8926ZM40.3344 75.9624C40.1707 75.9314 40.1004 75.9493 40.1765 75.9949C40.2526 76.0406 40.3853 76.0702 40.4693 76.0505C40.5568 76.0358 40.498 75.9934 40.3344 75.9624ZM41.0465 75.8298C40.9517 75.8119 40.83 75.8423 40.7739 75.903C40.7229 75.9603 40.7596 76.0252 40.8543 76.0432C40.9491 76.0612 41.0708 76.0307 41.1269 75.97C41.178 75.9128 41.1447 75.8529 41.0465 75.8298ZM42.9257 76.1997C42.908 76.1517 42.7407 76.0932 42.5566 76.0762C42.369 76.054 42.0091 75.9991 41.7492 75.9587C41.4598 75.9083 41.3174 75.9303 41.3732 76.0123C41.4709 76.1557 42.9787 76.3436 42.9257 76.1997ZM45.1523 76.0555C44.8203 76.0417 44.4802 76.0708 44.4069 76.1283C44.3095 76.1946 44.4476 76.2431 44.8672 76.2647C45.194 76.2821 45.5341 76.2529 45.6126 76.1919C45.7202 76.1187 45.5943 76.0769 45.1523 76.0555ZM50.893 75.9401C50.74 75.9468 50.6031 76.01 50.5933 76.0617C50.5639 76.2167 50.8374 76.2329 51.1334 76.0839C51.4139 75.9453 51.3464 75.9012 50.8981 75.9366L50.893 75.9401ZM51.9417 75.7733C51.7341 75.8097 51.6294 76.0085 51.7982 76.036C51.8499 76.0458 52.011 75.9961 52.1581 75.9258C52.4284 75.7942 52.3072 75.7043 51.9417 75.7733ZM53.9242 75.4579C53.7864 75.4318 53.5818 75.4286 53.4754 75.4486C53.1339 75.5087 53.2132 75.7022 53.574 75.6814C54.0242 75.6598 54.2479 75.5149 53.9242 75.4579ZM58.0632 74.8736C57.6842 74.9667 57.4737 75.0651 57.6029 75.0896C57.8216 75.1356 58.9298 74.8908 58.9529 74.7925C58.9725 74.6892 58.732 74.7105 58.0683 74.8701L58.0632 74.8736ZM59.5724 74.5131C59.3717 74.5597 59.2642 74.633 59.3368 74.6736C59.4094 74.7141 59.5775 74.6746 59.7055 74.5874C59.9258 74.4373 59.9137 74.4306 59.5724 74.5131ZM61.5324 74.0105C61.4377 73.9926 61.2335 74.0341 61.095 74.106C60.8982 74.2025 60.8763 74.2474 61.0106 74.2684C61.1053 74.2864 61.3095 74.2448 61.448 74.173C61.6448 74.0765 61.6702 74.0367 61.5324 74.0105ZM65.47 73.0534C65.3459 73.0254 65.2721 73.0382 65.3035 73.0843C65.3349 73.1304 65.4332 73.1535 65.5258 73.1354C65.6271 73.1189 65.6026 73.0831 65.47 73.0534ZM66.8815 73.0669C66.8126 73.0539 66.7202 73.0943 66.6692 73.1516C66.6182 73.2088 66.6256 73.2637 66.6945 73.2768C66.7548 73.2882 66.8558 73.2494 66.9068 73.1922C66.9578 73.1349 66.9504 73.08 66.8815 73.0669ZM68.9118 72.0291C68.7353 72.0893 68.6434 72.1744 68.7092 72.227C68.7699 72.2832 68.9604 72.2435 69.1347 72.1472C69.504 71.9407 69.3744 71.8715 68.9118 72.0291ZM70.1513 71.6798C70.0311 71.7016 69.9492 71.7575 69.9771 71.7984C70.005 71.8394 70.1063 71.8229 70.2036 71.7566C70.3419 71.6624 70.3315 71.6471 70.1513 71.6798ZM73.2677 70.6071C73.3187 70.5499 73.3078 70.4898 73.2475 70.4784C73.1786 70.4653 73.0827 70.5006 73.0317 70.5579C72.9807 70.6151 72.9916 70.6752 73.057 70.6831C73.1173 70.6945 73.2183 70.6557 73.2693 70.5985L73.2677 70.6071ZM73.5795 70.8447C73.3588 70.95 73.3488 70.9793 73.5073 71.0139C73.6141 71.0386 73.7803 70.9854 73.8758 70.9053C74.1042 70.7122 73.9148 70.6763 73.5709 70.843L73.5795 70.8447ZM83.1764 66.4155C83.1764 66.4155 83.107 66.3577 83.0088 66.3347C82.9141 66.3167 82.8233 66.3485 82.8102 66.4174C82.7988 66.4777 82.8765 66.5148 82.9778 66.4983C83.0842 66.4783 83.1715 66.4413 83.1764 66.4155ZM88.8641 62.8641C88.7081 62.9103 88.5353 62.998 88.4792 63.0587C88.2649 63.2947 88.4779 63.2771 88.8056 63.0314C89.1332 62.7858 89.1348 62.7772 88.8692 62.8606L88.8641 62.8641ZM92.6917 60.1821C92.5884 60.1625 92.5269 60.2043 92.5534 60.2763C92.5799 60.3482 92.6511 60.4197 92.7165 60.4277C92.7768 60.4391 92.8383 60.3972 92.8548 60.3335C92.8679 60.2646 92.7951 60.2017 92.6917 60.1821ZM94.5867 58.329C94.3762 58.5924 94.3402 58.7818 94.4918 58.8061C94.5555 58.8227 94.6284 58.7205 94.6529 58.5913C94.6774 58.4622 94.7487 58.3686 94.8141 58.3766C94.8795 58.3845 94.9445 58.3478 94.9524 58.2824C94.99 58.0843 94.753 58.1107 94.5832 58.3238L94.5867 58.329ZM96.8439 56.0717C96.7836 56.0603 96.7121 56.1315 96.6925 56.2348C96.6729 56.3382 96.7199 56.3961 96.7832 56.368C96.8551 56.3415 96.9266 56.2703 96.9346 56.2049C96.946 56.1446 96.9042 56.0831 96.8404 56.0666L96.8439 56.0717ZM108.842 40.1608C108.773 40.1477 108.703 40.1879 108.695 40.2533C108.687 40.3187 108.694 40.3737 108.724 40.3837C108.75 40.3886 108.82 40.3484 108.867 40.286C108.918 40.2288 108.907 40.1687 108.838 40.1556L108.842 40.1608ZM111.13 35.1526C111.058 35.1791 110.982 35.3208 110.951 35.4621C110.912 35.6688 110.934 35.6909 111.052 35.566C111.246 35.3663 111.298 35.0908 111.13 35.1526ZM111.616 35.0395C111.493 35.1232 111.48 35.1921 111.563 35.3151C111.71 35.5302 111.869 35.4221 111.819 35.1406C111.789 34.9742 111.74 34.9471 111.612 35.0344L111.616 35.0395ZM108.689 42.2596C108.706 42.3609 108.741 42.3365 108.776 42.2003C108.804 42.0762 108.791 42.0024 108.745 42.0339C108.699 42.0653 108.676 42.1635 108.694 42.2561L108.689 42.2596ZM109.417 41.104C109.214 41.137 108.934 41.628 109.028 41.7663C109.164 41.9661 109.477 41.7533 109.54 41.4174C109.591 41.1504 109.561 41.0734 109.418 41.0954L109.417 41.104ZM36.76 53.9347C36.7131 54.0641 36.728 54.1739 36.7899 54.1768C36.8467 54.1831 36.8998 54.1619 36.9012 54.131C36.8993 54.1172 37.3888 53.7239 37.5709 53.5398C37.7582 53.3523 37.6502 53.3809 37.6686 53.3308C37.6686 53.3308 37.0208 53.712 36.9554 53.7041C36.8935 53.7013 36.8034 53.8001 36.7565 53.9295L36.76 53.9347ZM20.5471 62.9525C21.2379 62.9319 21.6654 62.7007 21.5866 62.5519C21.5217 62.4237 21.065 62.4798 20.4997 62.6848C20.1349 62.8208 19.9954 62.9683 20.5471 62.9525ZM29.0222 59.9923C28.9747 60.0547 28.9958 60.1077 29.0663 60.1122C29.1369 60.1167 29.2 60.0662 29.2028 60.0043C29.2108 59.9389 29.1896 59.8858 29.1586 59.8844C29.1277 59.8829 29.0697 59.9299 29.0222 59.9923ZM78.0035 69.1813C77.9869 69.2451 78.003 69.3017 78.0323 69.3117C78.0581 69.3166 78.1282 69.2764 78.1757 69.214C78.2267 69.1568 78.2158 69.0967 78.1469 69.0837C78.078 69.0706 78.0114 69.1159 78.0035 69.1813ZM108.195 42.7235C108.026 42.959 108.028 42.9951 108.193 42.9952C108.299 42.9975 108.455 42.8843 108.534 42.7477C108.749 42.3914 108.449 42.3703 108.195 42.7235ZM36.7106 96.241C36.6805 96.329 36.7072 96.4233 36.7659 96.4433C36.8245 96.4634 36.9165 96.3782 36.9599 96.2437C37.0016 96.1178 36.9749 96.0235 36.8995 96.0449C36.824 96.0663 36.7407 96.1531 36.7106 96.241ZM70.838 72.1045C70.8214 72.1683 70.8633 72.2297 70.9322 72.2428C70.9925 72.2542 71.0849 72.2138 71.1394 72.1617C71.1904 72.1044 71.1536 72.0395 71.0452 72.0234C70.9367 72.0072 70.8494 72.0442 70.838 72.1045ZM71.6984 71.8484C71.6358 71.9436 71.6483 71.995 71.7203 71.9685C71.7922 71.942 71.8637 71.8708 71.8716 71.8054C71.9043 71.6332 71.8151 71.6564 71.6949 71.8433L71.6984 71.8484ZM107.76 43.4172C107.739 43.5515 107.776 43.6388 107.848 43.6123C107.92 43.5858 107.993 43.4837 108.011 43.3889C108.029 43.2942 107.992 43.2069 107.927 43.1989C107.863 43.1824 107.79 43.2845 107.76 43.4172ZM105.866 45.4801C105.812 45.7642 106.094 45.7821 106.211 45.4921C106.255 45.3799 106.209 45.291 106.102 45.2662C105.99 45.245 105.898 45.3302 105.871 45.4766L105.866 45.4801ZM78.4543 68.8743C78.3462 69.0679 78.5301 69.0627 78.9149 68.868L79.2554 68.6962L78.8894 68.7204C78.6902 68.7362 78.4897 68.8052 78.4492 68.8778L78.4543 68.8743Z" fill="black"/>
</g>
<defs>
<clipPath id="clip0_4930_9627">
<rect width="110.58" height="51.0536" fill="white" transform="translate(0 62.2488) rotate(-34.2587)"/>
</clipPath>
</defs>
</svg>
