<svg width="25" height="49" viewBox="0 0 25 49" fill="none" xmlns="http://www.w3.org/2000/svg">
<g clip-path="url(#clip0_4515_241)">
<path fillRule="evenodd" clip-rule="evenodd" d="M15.8941 17.4063C16.9069 27.2659 18.2872 36.9512 19.4649 46.7637C18.4191 47.7813 16.3934 48.111 13.7507 48.0121C12.785 47.5316 12.3233 47.2065 12.1443 46.6365C10.9996 42.981 11.2964 38.3315 10.717 33.6443C9.91615 27.1528 8.87978 20.3364 8.03656 14.6552C6.19936 15.277 6.31713 17.1472 5.17712 18.2778C4.66836 18.7818 4.75316 20.6237 3.21274 21.2738C2.11513 21.2079 2.05389 20.4165 0.890334 20.3976C1.13058 19.5638 0.405126 19.4036 0.17901 18.8996C0.386283 18.4003 -0.00942116 17.4204 -7.33548e-07 16.775C0.0094216 16.0307 0.485208 15.3053 0.711324 14.528C1.26248 12.6531 1.61108 10.3731 2.31769 8.53121C2.42604 8.24857 2.88298 8.09311 3.03373 7.7822C4.10307 5.5493 4.39514 2.32714 6.78349 0.909203C8.46053 -0.0800559 11.8711 -0.41923 14.283 0.659534C17.3168 7.34881 21.9568 12.5118 25 19.0315C24.3358 19.8889 22.8707 20.4589 21.6035 20.5295C18.485 20.7132 17.2272 18.7017 15.8894 17.4063L15.8941 17.4063Z" fill="black"/>
</g>
<defs>
<clipPath id="clip0_4515_241">
<rect width="48.0309" height="25" fill="white" transform="translate(25) rotate(90)"/>
</clipPath>
</defs>
</svg>
