<svg width="120" height="71" viewBox="0 0 120 71" fill="none" xmlns="http://www.w3.org/2000/svg">
<g clip-path="url(#clip0_1733_2503)">
<path fill-rule="evenodd" clip-rule="evenodd" d="M107.002 9.96651C106.786 9.81425 107.017 9.70635 107.005 9.57238C107.157 9.71747 107.156 9.84885 107.002 9.96651Z" fill="black"/>
<path fill-rule="evenodd" clip-rule="evenodd" d="M106.092 9.35692C106.172 9.17251 106.556 9.27829 106.418 9.45393C106.313 9.34561 106.196 9.55283 106.092 9.35692Z" fill="black"/>
<path fill-rule="evenodd" clip-rule="evenodd" d="M112.158 20.7994C112.324 20.9471 112.387 21.0857 112.284 21.2079C112.175 21.0632 112.114 20.9304 112.158 20.7994Z" fill="black"/>
<path fill-rule="evenodd" clip-rule="evenodd" d="M104.673 21.8048C104.873 21.6496 105.068 21.6769 105.261 21.9231C105.059 22.185 104.867 22.0073 104.673 21.8048Z" fill="black"/>
<path fill-rule="evenodd" clip-rule="evenodd" d="M105.762 23.6884C105.808 23.6508 105.852 23.6074 105.897 23.5698C105.96 23.6397 106.027 23.6089 106.095 23.6525C105.982 23.7399 105.874 23.8695 105.768 23.6868L105.762 23.6884Z" fill="black"/>
<path fill-rule="evenodd" clip-rule="evenodd" d="M99.6436 20.6071C99.5487 20.4898 99.4086 20.3663 99.5826 20.2744C99.6276 20.3244 99.6709 20.3685 99.7101 20.4201C99.6462 20.4815 99.6844 20.5521 99.6452 20.6129L99.6436 20.6071Z" fill="black"/>
<path fill-rule="evenodd" clip-rule="evenodd" d="M95.9382 18.6119C96.0157 18.6217 96.3994 18.8151 96.2621 18.9717C96.1915 18.7166 95.7986 18.8504 95.9382 18.6119Z" fill="black"/>
<path fill-rule="evenodd" clip-rule="evenodd" d="M92.9398 17.9314C92.9868 17.4938 92.5186 17.8732 92.9398 17.9314V17.9314Z" fill="black"/>
<path fill-rule="evenodd" clip-rule="evenodd" d="M90.801 16.3512C91.297 16.4323 90.7389 16.7117 90.801 16.3512V16.3512Z" fill="black"/>
<path fill-rule="evenodd" clip-rule="evenodd" d="M79.6235 14.4405C79.0101 14.6104 78.4055 14.2722 77.7934 14.2669C78.4097 14.0401 79.0147 14.3345 79.6235 14.4405Z" fill="black"/>
<path fill-rule="evenodd" clip-rule="evenodd" d="M41.6372 18.8366C41.7919 18.6751 41.9465 18.626 42.0995 18.6835C41.9448 18.845 41.7902 18.8941 41.6372 18.8366Z" fill="black"/>
<path fill-rule="evenodd" clip-rule="evenodd" d="M38.6063 20.1318C38.7851 19.945 38.9574 19.8473 39.1326 19.9174C38.9538 20.1043 38.7815 20.2019 38.6063 20.1318Z" fill="black"/>
<path fill-rule="evenodd" clip-rule="evenodd" d="M12.8184 37.9994C12.9766 37.9181 12.9037 37.52 13.1464 37.8336C13.0361 37.9079 12.9283 38.0813 12.8184 37.9994Z" fill="black"/>
<path fill-rule="evenodd" clip-rule="evenodd" d="M91.4745 33.676C91.4115 33.6061 91.3469 33.5303 91.2839 33.4603C92.2994 32.6048 93.2935 33.3595 94.3128 32.428C94.5725 32.4434 94.8374 32.3201 95.102 32.2406C94.4518 32.0524 93.7875 32.511 93.1346 32.4484C92.7253 32.6803 92.0138 33.1708 91.4213 33.0789C91.8862 33.0251 91.4584 32.6504 91.2317 32.7319C91.2099 32.4508 91.9986 32.2386 91.8344 31.8034C92.535 31.5656 93.2397 31.2081 93.9366 31.3398C93.8482 31.4704 93.6698 31.3887 93.7373 31.5198C94.0687 31.5466 94.1624 30.9401 94.7259 31.1524C94.7744 31.3949 94.4854 31.2065 94.5895 31.4024C95.5256 31.5427 96.4676 31.2319 97.4062 31.4713C97.6184 31.3376 97.2288 31.1459 97.3462 31.0072C97.4982 31.1961 97.6503 31.2726 97.7997 31.2499C98.3877 31.1683 98.9805 31.104 99.5662 31.2164C99.8351 30.9047 100.174 31.2729 100.219 31.2791C100.454 31.2951 100.639 30.9943 100.807 31.266C104.536 30.9825 108.556 32.2475 111.736 32.0973C111.032 29.8949 110.383 27.5962 109.336 25.5454C109.502 25.3369 109.345 25.1307 109.277 24.9499C108.748 23.4671 108.354 22.0903 107.699 20.6486C107.249 19.6556 106.966 18.5855 106.624 17.7125C106.594 17.6271 106.468 17.5748 106.434 17.4968C106.023 16.5554 105.869 15.6369 104.968 14.6565C105.102 14.0826 104.812 13.8694 104.465 13.2912C104.381 12.3593 103.703 11.3734 103.589 10.4436C104.155 10.0808 104.036 9.65176 104.327 9.25928C104.653 9.53726 104.981 9.39631 105.303 9.68169C105.126 9.42483 105.708 9.45712 106.027 9.54993C105.908 9.75136 105.472 9.47904 105.564 9.83432C105.851 9.72359 106.081 10.3528 106.14 10.6111C106.431 10.312 106.024 9.94406 106.217 9.62842C106.426 9.95745 106.428 9.96325 106.732 10.2038C107.248 9.77365 107.449 10.2737 107.707 10.7576C107.931 10.396 108.103 10.8354 108.032 10.986C107.976 10.8269 107.618 10.7949 107.769 10.959C108.392 11.2486 107.855 11.2225 108.418 11.5471C108.231 11.8173 108.293 12.1063 108.342 12.3984C108.746 12.1242 108.955 13.0589 109.118 13.2636C109.138 13.2894 109.27 13.1154 109.316 13.2149C109.316 13.2149 109.174 13.4228 109.18 13.4649C109.25 13.8076 109.563 14.083 109.494 14.3518C109.413 14.3057 109.252 14.4439 109.295 14.5319C109.54 14.6513 109.599 14.7097 109.559 14.4276C109.872 15.0649 109.58 14.8211 110.07 15.3971C110.074 15.7268 109.796 15.3733 109.607 15.6815C109.67 15.82 109.669 15.9514 109.732 16.09C110.133 15.5794 109.83 16.3313 110.385 16.1526C110.396 16.3494 110.401 16.5477 110.444 16.7481C110.73 16.7687 110.608 17.0461 110.896 17.2535C110.989 18.2641 111.894 19.418 112.223 20.6066C111.621 20.8171 112.582 21.5624 111.949 21.3694C112.099 21.7772 112.545 21.9472 112.726 21.9719C112.931 22.2397 112.539 22.1297 112.654 22.2977C112.765 22.2234 112.869 22.4193 112.979 22.526C113.089 23.3946 113.818 24.3165 113.793 25.1723C113.611 25.098 113.777 24.7524 113.532 24.8825C113.708 25.1336 113.671 25.5621 114.047 25.4579C114.242 26.409 115.045 27.7348 114.922 28.4369C115.006 28.5822 115.185 28.5325 115.112 28.6526C114.741 28.6618 115.357 29.2215 115.364 29.3381C115.302 29.2929 115.238 29.1982 115.167 29.2554C115.197 29.5903 115.883 29.8375 115.356 29.7338C115.49 29.8589 115.418 29.96 115.545 30.0809C115.628 30.0204 115.553 29.8851 115.681 29.9622C115.575 30.1224 115.972 30.3184 115.609 30.288C115.796 30.3549 116.199 31.4293 116.246 31.666C116.263 31.7736 116.132 31.841 116.174 31.9918C116.197 32.0729 116.35 32.0181 116.371 32.0745C116.5 32.4259 116.424 32.8277 116.549 33.2113C116.932 34.3665 117.682 35.5257 118.012 36.4458C117.9 36.558 117.791 36.6133 117.684 36.6115C117.934 36.636 117.761 36.7774 118.008 36.9713C117.917 37.0713 117.738 37.1648 117.808 37.2827C118.065 37.3552 117.813 37.9306 118.057 38.3624C118.308 38.0993 118.137 38.4713 118.382 38.5908C117.999 38.6718 118.189 39.0626 118.37 39.3806C118.242 39.5721 118.104 39.9039 118.229 40.2875C117.788 40.2722 118.074 40.6052 117.638 40.5634C117.701 40.6333 117.768 40.6025 117.836 40.6461C117.495 40.9902 117.357 40.4915 117.308 40.9919C117.156 40.803 117.009 40.6315 116.855 40.7492C116.939 40.8945 117.118 40.8448 117.051 40.9632C116.857 40.9359 116.663 40.7087 116.465 40.7136C116.281 40.883 116.799 40.771 116.463 40.9763C116.141 40.8719 116.118 40.585 115.887 40.1996C115.803 40.279 115.936 40.3793 115.885 40.4623C115.725 40.1569 115.187 40.3497 115.236 39.8742C111.772 39.2915 108.306 38.7906 104.834 38.6971C102.438 38.7739 99.9873 38.6536 97.6251 38.8084C96.7684 38.8647 95.6362 39.0284 95.196 39.3064C94.7183 39.0891 94.2338 39.2295 93.7558 39.1684C93.1719 38.3874 92.6064 37.4703 92.0897 36.6395C91.991 36.4858 91.866 36.5517 91.7647 36.4111C91.7435 36.3796 91.7796 36.1948 91.7037 36.0784C91.2099 35.285 90.3225 34.2635 91.4777 33.6876L91.4745 33.676ZM113.35 24.2711C113.542 24.424 113.388 24.0235 113.289 23.9384C113.276 24.0482 113.307 24.1584 113.35 24.2711ZM113.225 23.8627C113.348 23.6786 113.131 23.4578 113.037 23.2529C113.067 23.4506 112.983 23.6424 113.225 23.8627ZM111.073 18.5218C111.125 18.4198 111.125 18.3074 111.012 18.1891C110.959 18.2911 110.959 18.4035 111.073 18.5218ZM106.532 10.6525C106.705 11.1663 106.139 10.5615 106.532 10.6525V10.6525ZM109.168 32.9709C108.873 33.0526 109.501 33.0283 109.621 33.2136C109.915 32.9013 109.285 33.1256 109.168 32.9709ZM111.907 33.8853C112.046 33.803 111.667 33.3775 111.582 33.6569C111.689 33.7958 111.797 33.7347 111.907 33.8853ZM111.253 33.954C111.292 33.8932 111.254 33.8226 111.318 33.7612C111.207 33.6983 111.099 33.6907 110.991 33.7956C111.078 33.9277 111.165 33.8598 111.253 33.954ZM110.486 32.693C110.982 32.7741 110.424 33.0536 110.486 32.693V32.693ZM109.432 33.3846C109.553 33.5072 109.487 33.6066 109.621 33.7317C109.844 33.589 110.06 33.785 110.274 33.7943C110.344 33.6875 110.169 33.6612 110.077 33.7116C110.052 33.5999 110.162 33.5008 110.016 33.3789C109.728 33.6648 109.453 33.1229 109.165 33.365C109.25 33.4037 109.342 33.4409 109.428 33.392L109.432 33.3846ZM108.919 32.5465C109.47 32.6 108.369 32.493 108.919 32.5465V32.5465ZM108.91 33.0736C109.014 32.7076 108.567 32.9624 108.456 32.8309C108.353 33.1341 108.797 32.9363 108.91 33.0736ZM108.323 32.8239C107.844 32.6008 107.838 33.0519 108.323 32.8239V32.8239ZM108.383 33.288C108.484 33.0666 108.047 33.019 107.923 33.1783C108.07 33.4621 108.232 33.0801 108.383 33.288ZM105.313 32.9335C104.946 32.5981 104.01 32.6388 103.42 32.6899C104.052 32.902 104.684 32.7769 105.313 32.9335ZM95.9497 32.5115C96.0124 32.5128 96.0801 32.7126 96.1403 32.7271C96.7259 32.8396 97.4493 32.5269 97.9781 32.6364C97.981 32.8042 98.053 32.7717 98.1687 32.8521C97.929 32.4814 98.6365 32.6288 98.8216 32.9147C99.2557 32.4574 99.8642 32.7196 100.397 32.6655C101.313 32.5743 102.432 32.745 103.214 32.7344C102.017 32.3729 100.25 32.5816 98.8304 32.519C100.93 32.2495 103.589 32.5369 105.903 32.6576C105.9 32.9394 106.23 33.0728 106.426 32.9687C106.45 33.0805 106.341 33.1795 106.487 33.3014C106.813 33.0175 107.309 33.0548 107.8 33.1623C107.841 32.9264 107.326 33.069 107.148 32.9683C107.055 32.632 107.487 32.9993 107.612 32.6839C106.87 32.39 105.778 32.6549 105.258 32.3306C105.149 32.4545 104.995 32.235 104.733 32.4137C104.825 31.8452 104.01 32.5702 103.692 32.0527C103.581 32.1707 103.472 32.0888 103.364 32.2184C102.373 31.7687 101.192 32.1584 100.095 32.044C99.8827 32.0215 99.712 31.9002 99.4406 32.1127C99.118 31.8026 98.7852 32.0633 98.4618 31.9531C98.3988 31.8831 98.4949 31.8253 98.5268 31.7603C98.8675 31.7533 98.1028 31.6467 98.3904 32.0103C97.1421 32.1375 95.8987 32.0574 94.6477 32.6473C94.991 32.8519 95.4861 32.5025 95.9613 32.5083L95.9497 32.5115Z" fill="black"/>
<path fill-rule="evenodd" clip-rule="evenodd" d="M109.643 31.8967C109.231 31.6485 109.231 32.098 109.643 31.8967V31.8967Z" fill="black"/>
<path fill-rule="evenodd" clip-rule="evenodd" d="M7.31932 56.3217C7.23012 55.6846 7.36882 55.1281 7.34488 54.4792C7.33273 54.2329 7.15566 53.976 7.1583 53.738C7.16254 53.5059 7.34199 53.2314 7.36165 53.0325C7.38647 52.8071 7.28045 52.5368 7.30945 52.304C7.38519 51.5651 7.7692 50.8595 7.79831 50.1772C7.80316 50.0822 7.6553 49.9983 7.67172 49.9001C7.73226 49.5337 8.02788 48.8463 8.14982 48.4317C8.31327 47.8745 8.37264 47.0091 8.50232 46.5549C8.67607 45.9449 9.39645 44.8339 8.85282 44.9408C9.28402 44.5405 9.68515 43.5366 9.60204 42.9666C10.038 42.8084 10.4325 41.488 10.6782 40.958C10.7596 40.7794 11.2788 40.4046 11.2763 40.4178C11.3052 40.2974 11.1269 40.1033 11.1507 40.0093C11.1388 40.0563 11.3795 40.1832 11.4136 40.0364C11.4323 39.9688 11.1546 39.821 11.2871 39.7593C11.8489 39.9658 11.5521 39.1865 11.8887 38.9621C12.0755 39.1414 12.342 38.7991 12.352 38.6778C12.3627 38.5812 12.2183 38.5774 12.2958 38.4748C12.2367 38.5536 12.6421 38.51 12.6248 38.1777C12.9395 38.1218 12.6449 38.5654 12.8857 38.4675C12.9103 38.0612 13.1935 38.1388 13.352 37.789C13.0682 37.6866 13.2319 37.3104 13.4238 37.4632C13.2946 37.5365 13.3328 37.7194 13.48 37.6662C13.8581 37.524 13.1059 37.2828 13.4898 37.1391C13.674 37.2191 13.5064 37.559 13.7508 37.4289C13.8032 37.1459 14.2497 37.2282 14.0875 36.8674C13.5044 36.7417 14.0714 36.8094 14.3515 36.7631C14.5894 36.6098 14.3541 36.4127 14.4898 36.2503C14.6167 36.4836 14.7496 36.2658 14.8797 36.2859C16.1014 34.7801 17.7384 33.3341 19.1979 32.0122C19.3217 31.8968 19.5545 31.6575 19.6622 31.5965C19.6995 31.5736 19.7782 31.7454 19.8595 31.6791C19.8711 31.6759 19.8741 31.3942 19.9313 31.3534C20.03 31.2823 20.2776 31.2762 20.3936 31.2004C21.4193 30.5167 22.6126 29.1562 23.5726 28.8653C23.5344 28.7948 23.445 28.7196 23.5164 28.6624C24.914 28.1068 25.4058 27.1153 26.5502 26.9731C26.4861 26.5164 27.5423 25.8306 27.6772 26.0929C27.8602 25.6739 28.5451 25.3344 28.9302 25.3526C28.8117 24.8797 29.5112 24.8858 29.7912 24.8394C29.4152 24.4941 30.628 24.6888 30.2565 24.2923C30.9686 24.2761 31.586 23.6931 31.8432 23.3846C32.3427 23.7707 32.8104 22.5799 33.0932 23.0384C32.9952 22.9095 32.5765 23.2877 32.6945 23.3986C32.9192 23.1303 33.1346 23.233 33.3571 22.9341C33.2941 22.8642 33.2279 22.895 33.1598 22.8514C33.3411 22.6514 33.8578 22.4022 33.8204 22.6497C33.7639 22.4906 33.4051 22.8147 33.5555 22.8854C33.843 22.6185 33.9577 22.7178 33.9552 22.3939C34.2621 22.8271 34.5751 22.1348 34.0838 22.4082C34.4394 22.1849 34.414 22.0483 34.7265 22.0742C34.7082 22.098 34.6898 22.1218 34.6773 22.144C34.5918 22.2176 34.4947 22.2944 34.5451 22.3866C34.5805 22.2894 34.6281 22.2138 34.6773 22.144C34.7014 22.1186 34.7271 22.099 34.7513 22.0736C34.7455 22.0752 34.7397 22.0768 34.7323 22.0726C35.2066 21.5354 36.087 21.9471 36.2042 21.2903C36.3369 21.6344 36.8565 21.2158 36.617 21.1386C36.951 21.1522 37.8071 20.8464 37.4561 20.6814C37.5906 20.357 37.7136 20.891 37.8461 20.717C38.4245 20.4881 39.2896 20.0799 39.4151 19.8579C39.3781 19.9493 39.3527 20.0375 39.361 20.1351C39.7951 19.6778 41.1788 19.3195 41.4846 19.0288C41.4521 19.069 41.4312 19.106 41.4688 19.1518C44.6697 17.9531 48.0387 16.6642 51.5355 15.8143C52.3116 15.6244 53.0561 15.568 53.7023 15.4265C54.6121 15.2244 55.4728 15.0922 56.2659 14.9412C56.769 14.8456 57.5184 14.4695 57.8408 14.8234C57.8476 14.5781 58.0028 14.6662 58.1697 14.5263C58.4108 14.497 58.2388 14.7756 58.4317 14.6847C58.8461 14.314 59.5501 14.4936 59.9308 14.2258C59.8761 14.2535 59.8324 14.2531 59.8752 14.1601C60.1225 13.973 60.042 14.3574 60.2011 14.2571C60.2806 14.0041 60.5021 14.1737 60.8287 14.1832C60.8197 14.1732 61.5559 14.1316 61.5861 14.1732C61.6301 14.1298 61.6006 14.0006 61.6427 13.9952C61.7269 13.9843 61.7873 14.1799 61.9046 14.1536C62.1625 14.0947 62.3262 13.7185 62.5595 13.9535C62.5 14.0761 62.1481 13.8177 62.2956 14.0578C62.6871 14.2116 63.2803 13.9911 63.4748 13.906C63.7566 14.3836 64.4903 13.9057 64.8513 13.8369C64.8121 13.8977 64.7217 13.954 64.7863 14.0297C65.3296 13.9667 65.9304 14.1561 66.2992 13.7106C66.6524 14.2433 67.821 14.0757 68.2001 13.6898C68.2708 13.9449 68.1081 13.8526 68.1283 14.0156C68.3508 13.9415 68.5629 14.1449 68.789 13.8139C68.9858 13.7594 69.1776 14.137 69.3779 13.9379C69.3249 13.7466 68.9626 13.8782 69.1169 13.6481C69.3159 13.849 69.3896 13.4852 69.7058 13.7722C69.5332 13.9137 69.3763 13.8198 69.5055 14.0836C69.6345 13.8294 70.2333 14.0569 70.3577 13.9662C70.3577 13.9662 70.2009 13.7599 70.3015 13.7633C70.4706 13.7664 70.6367 14.0513 70.9524 14.0887C71.0546 14.0978 70.9557 13.9879 71.2164 13.9844C71.3707 13.9791 71.8042 14.4646 71.8063 13.9771C72.0866 13.9993 71.9534 14.2609 72.1942 14.2754C72.5232 13.8659 73.3046 14.1676 73.8327 14.3647C74.0533 14.1039 74.7827 14.0829 75.2073 14.5584C75.4741 14.3971 75.7361 14.3307 75.9965 14.371C75.939 14.4556 75.945 14.635 76.0585 14.5723C76.128 14.4407 76.0849 14.4651 76.1939 14.4537C76.6703 14.3966 77.9154 14.3702 78.6103 14.8769C78.8363 14.6582 78.2564 14.7689 78.4837 14.5998C79.198 14.6143 79.5254 15.0542 80.1832 15.0219C80.0993 14.8765 79.9199 14.9262 79.9926 14.8062C80.1861 14.8525 80.3857 14.9658 80.5809 14.7931C80.5173 14.6984 80.3836 14.598 80.4543 14.516C80.5874 14.4792 80.7146 14.781 80.8432 14.683C80.9124 14.5952 80.878 14.4486 81.0416 14.6343C81.1396 14.988 80.6986 14.7231 80.5783 14.9187C80.7512 14.9582 80.8158 15.0339 80.8392 15.2085C80.9657 14.7427 81.6005 15.1225 81.7633 14.7653C81.5432 15.2757 82.1574 14.7935 82.2246 14.7436C82.5829 15.0252 81.9651 14.7968 82.1528 15.0694C82.5684 15.3102 83.3333 14.9672 83.5196 15.5274C83.1788 15.5344 83.2171 15.3802 82.9307 15.4034C83.6657 15.9427 84.4142 15.5855 85.1477 16.0067C85.2114 15.7643 85.1352 15.6917 85.4126 15.771C85.771 16.0525 85.1532 15.8241 85.3409 16.0968C85.7241 16.0406 86.1053 16.3595 86.3275 15.9921C86.4541 16.2691 86.6479 16.4964 86.779 16.4975C86.7138 16.397 86.8112 16.3887 86.9144 16.3789C86.809 16.2458 86.7007 16.1696 86.5895 16.1505C86.6705 15.9033 87.0523 16.247 86.9174 15.9848C86.8203 15.8368 86.2941 15.7141 86.5924 15.7564C86.81 15.8896 87.3733 15.8085 87.3719 16.0961C87.2868 16.0136 87.199 15.9442 87.1106 16.0748C87.3915 16.2343 87.1597 16.3422 87.2362 16.4833C87.4873 16.3326 87.4965 16.5235 87.6261 16.5189C87.4947 16.3368 87.6541 16.1927 87.8254 16.3388C87.6209 16.6577 88.78 16.9734 88.8033 16.6298C88.9376 16.755 88.8659 16.856 88.9929 16.9769C89.1264 16.5591 89.4796 16.867 89.1902 17.0596C89.3436 16.9609 89.4924 17.1382 89.6515 17.0379C89.5571 16.8768 89.3983 16.7085 89.5915 16.5738C89.6892 16.8589 89.9065 17.036 90.1784 16.9607C90.1663 16.8267 90.283 16.7756 90.4434 16.725C90.4964 16.9163 90.8587 16.7847 90.7044 17.0148C90.623 16.9686 90.4619 17.1069 90.505 17.1948C91.49 17.0844 92.0764 18.1892 93.1096 18.3651C92.7671 18.8158 93.4241 18.871 93.2951 19.2376C93.4325 18.9686 93.561 19.2077 93.6861 19.1418C93.5459 19.0183 93.6234 18.9157 93.4965 18.7948C93.4078 18.8568 93.3219 18.9742 93.2325 18.8991C93.2528 18.7249 93.0629 18.5341 93.2423 18.372C94.1234 18.8084 94.9642 19.0999 95.9739 19.5507C95.7732 19.7936 95.5826 19.5779 95.3856 19.5638C95.3736 19.8356 95.6591 19.8314 95.8381 19.9379C95.7802 20.0663 95.4198 20.1599 95.5722 20.305C95.8596 20.0381 96.1366 20.4983 96.4234 20.319C96.3129 19.9875 95.8656 20.3298 95.9709 19.9449C96.5232 19.7794 97.5306 19.9748 97.6626 20.6312C97.8212 20.2814 97.9673 20.6967 98.1239 20.6096C98.0291 20.4923 97.889 20.3688 98.0629 20.2769C98.4328 20.78 98.9405 20.296 98.9761 20.4922C98.7791 20.5905 99.2223 20.886 99.562 21.0104C99.4862 20.894 99.6338 20.797 99.6338 20.6846C99.9148 20.7316 100.864 21.4364 100.211 21.33C100.394 20.911 99.9002 21.129 99.7578 21.0873C99.922 21.2977 99.6584 21.4706 99.684 21.6758C99.8589 21.6773 100.029 21.8862 100.208 21.7241C100.081 21.5784 99.9479 21.7962 99.8194 21.5571C99.9911 21.3223 100.143 21.7359 100.147 21.3914C100.237 21.4913 100.256 21.5799 100.274 21.6685C100.525 21.3616 101.068 21.7918 100.936 21.3354C101.19 21.4896 101.344 21.7529 101.46 21.3837C101.644 21.5324 101.477 21.6475 101.714 21.8065C101.783 21.6939 101.75 21.6217 101.913 21.6264C102.059 21.7483 101.95 21.8474 101.974 21.9591C102.264 21.4981 102.216 22.3355 102.562 22.0774C102.295 21.833 102.563 21.6775 102.762 21.766C102.952 22.0006 102.427 22.1771 102.488 22.3974C102.926 22.2888 102.849 21.8543 103.085 21.9885C103.177 21.9133 103.062 22.1511 103.211 22.397C103.078 22.4339 102.951 22.132 102.822 22.23C103.358 22.7495 103.907 22.8847 104.449 23.1092C104.082 22.6615 103.713 22.7699 103.345 22.4097C103.938 22.1207 104.519 22.7091 105.108 22.9017C104.985 23.1105 104.772 23.307 104.834 23.5331C104.706 23.4064 104.573 23.3309 104.445 23.3662C104.573 23.7614 105.338 23.9118 105.685 23.5471C105.869 23.9833 106.888 24.3813 106.726 23.9081C106.949 24.0587 106.724 24.1708 106.852 24.3165C107.407 23.9379 107.083 25.1077 107.888 25.3344C107.665 25.7894 108.089 25.903 108.201 26.3526C108.112 26.4833 107.934 26.4016 108.001 26.5327C108.415 26.88 107.914 27.1376 108.379 27.4895C108.616 27.561 108.457 27.2555 108.643 27.3852C108.79 27.9186 108.528 28.2097 109.153 28.4861C108.906 28.698 108.601 28.9449 109.016 28.8675C108.998 29.2095 108.511 29.6565 108.676 29.8231C108.6 29.7754 108.209 29.8026 108.348 29.9889C108.414 29.958 108.478 29.8718 108.546 29.9402C108.311 30.1927 108.295 30.428 108.144 30.8258C107.844 30.9588 107.473 30.8118 107.352 31.276C106.962 31.2404 106.573 30.8676 106.177 30.9022C105.762 30.212 104.859 30.0811 104.953 29.406C104.805 29.2783 104.646 29.3347 104.493 29.2962C104.041 28.6098 103.202 28.5298 102.541 28.1887C102.133 27.9769 101.756 27.6258 101.374 27.4192C99.6712 26.5113 97.8178 25.826 96.1689 24.8218C94.9105 24.44 93.591 23.8378 92.5225 23.422C92.1738 23.2876 91.7057 23.2175 91.5447 23.131C90.5447 22.6026 89.3666 22.2859 88.4148 22.0438C86.7195 21.6144 84.8175 21.1361 83.1925 20.8932C83.0302 20.8695 82.8431 20.734 82.6692 20.7135C82.0125 20.6145 81.1242 20.6919 80.5788 20.3872C78.4877 20.261 76.3898 20.0429 74.2971 19.7985C69.0595 19.5822 63.7529 19.7472 58.37 20.7386C56.118 21.1563 53.8145 21.7256 51.5354 22.3381C51.4544 22.3605 51.5267 22.5091 51.4704 22.5309C50.8898 22.7292 50.1636 22.7617 49.4952 23.003C49.003 23.1831 48.5188 23.3921 47.9803 23.5849C41.5066 25.9023 34.4471 29.5243 28.5834 33.7516C25.462 36.002 22.1521 38.5168 19.7057 40.9549C17.177 43.4781 14.7919 46.5422 14.0199 49.4467C13.6756 49.3734 13.8491 49.8873 13.8176 50.0208C13.6457 50.7052 13.1913 51.4491 13.0673 52.1264C13.0313 52.3112 13.1624 52.5371 13.1263 52.7219C13.1151 52.7937 12.9588 52.837 12.927 52.902C12.8758 53.0098 13.0159 53.2457 12.987 53.3661C12.9306 53.6126 12.7097 53.8049 12.6492 54.0589C12.5707 54.4053 12.687 54.8475 12.6345 55.2429C12.5272 56.003 12.1844 56.4975 12.4105 57.134C12.199 57.2925 12.351 57.4814 12.1436 57.6325C12.4567 58.7631 12.1343 59.8263 12.3584 60.9503C11.9722 61.513 11.508 61.704 10.9721 61.5466C11.274 61.2195 10.8056 61.4179 10.7118 61.3939C10.7385 61.2429 10.5797 61.0747 10.6518 60.9298C10.5219 60.8659 10.3878 61.1465 10.2608 61.0256C10.2561 60.7835 10.556 60.9439 10.3982 60.6442C9.81862 60.4864 9.53106 59.898 9.49773 59.5077C9.41478 59.5682 9.48964 59.7035 9.36236 59.6264C9.40514 59.5334 9.56887 59.1572 9.30615 59.4234C9.27358 58.6084 8.30566 58.5331 8.15352 57.6014C8.02755 57.4615 7.89311 57.6735 7.76458 57.4344C7.48824 56.999 7.56705 56.8336 7.51441 56.4861C7.50157 56.4397 7.39549 56.3942 7.38683 56.3404L7.31932 56.3217ZM104.124 23.4675C104.388 23.3632 104.1 23.1996 103.999 23.0591C103.952 23.1843 104.016 23.3228 104.124 23.4675ZM99.8193 22.0067C100.524 22.392 99.9603 22.4483 99.8193 22.0067V22.0067ZM98.002 20.9118C98.1261 20.7526 97.7138 20.4111 97.613 20.7448C97.7403 20.822 97.8747 20.8347 98.002 20.9118ZM96.4408 19.977C96.6253 20.1257 96.4578 20.2408 96.695 20.3998C96.7114 20.3016 96.7353 20.2076 96.8304 20.2811C96.9356 20.0085 96.4939 19.9436 96.3779 19.9071C96.3129 19.9875 96.4068 20.0114 96.4408 19.977ZM95.1381 19.4576C95.033 19.2807 94.9214 19.3053 94.8131 19.2292C94.6343 19.4161 94.9596 19.713 95.1381 19.4576ZM92.8585 18.5158C92.7299 18.2767 92.5955 18.4887 92.4695 18.3488C92.3496 18.5006 92.7613 18.705 92.8585 18.5158ZM88.9507 17.0947C88.7543 16.993 88.5566 17.0665 88.3644 16.845C88.3036 17.1428 88.7902 17.3701 88.9507 17.0947ZM35.4396 21.8142C35.2644 21.7441 35.0921 21.8418 34.9133 22.0287C35.0888 22.055 35.2627 21.9631 35.4396 21.8142Z" fill="black"/>
<path fill-rule="evenodd" clip-rule="evenodd" d="M82.827 14.9388C82.9813 15.0459 83.4745 14.9592 83.4149 15.1942C83.2607 15.0871 82.7675 15.1737 82.827 14.9388Z" fill="black"/>
<path fill-rule="evenodd" clip-rule="evenodd" d="M101.867 21.3459C101.867 21.3459 101.81 21.4115 101.803 21.4073C101.964 21.4938 102.353 21.5484 102.064 21.6971C101.97 21.7418 101.599 21.2577 101.874 21.3501L101.867 21.3459Z" fill="black"/>
<path fill-rule="evenodd" clip-rule="evenodd" d="M102.584 21.3472C102.718 21.2476 102.841 21.5568 102.973 21.5142C102.858 21.7958 102.285 21.124 102.584 21.3472Z" fill="black"/>
<path fill-rule="evenodd" clip-rule="evenodd" d="M101.216 21.0204C101.03 21.1345 101.547 21.3158 101.213 21.4146C101.13 21.294 100.952 21.1685 101.024 21.0675C101.046 21.0363 101.464 20.9705 101.222 21.0188L101.216 21.0204Z" fill="black"/>
<path fill-rule="evenodd" clip-rule="evenodd" d="M96.8501 19.227C97.2402 18.7007 97.3258 19.3699 96.8501 19.227V19.227Z" fill="black"/>
<path fill-rule="evenodd" clip-rule="evenodd" d="M97.3635 19.934C97.4419 20.0371 97.8241 19.9999 97.6884 20.1623C97.61 20.0592 97.2213 20.1856 97.3635 19.934Z" fill="black"/>
<path fill-rule="evenodd" clip-rule="evenodd" d="M106.358 32.769C106.903 32.8489 105.663 32.668 106.358 32.769V32.769Z" fill="black"/>
<path fill-rule="evenodd" clip-rule="evenodd" d="M83.6684 15.4799C84.1481 15.3221 84.1422 15.7732 83.6684 15.4799V15.4799Z" fill="black"/>
<path fill-rule="evenodd" clip-rule="evenodd" d="M46.3162 17.1039C46.5413 16.9042 45.4999 17.486 46.3162 17.1039V17.1039Z" fill="black"/>
<path fill-rule="evenodd" clip-rule="evenodd" d="M43.5513 18.0319C43.6612 18.0014 43.7712 17.971 43.8782 17.9975C43.7975 18.0885 43.4088 18.2149 43.5513 18.0319Z" fill="black"/>
<path fill-rule="evenodd" clip-rule="evenodd" d="M35.7743 21.5155C35.1577 21.5615 36.4604 21.338 35.8373 21.5855C35.8258 21.5887 35.7859 21.5123 35.7743 21.5155Z" fill="black"/>
<path fill-rule="evenodd" clip-rule="evenodd" d="M105.053 8.73317C105.237 8.96943 105.12 9.17665 105.177 9.40438C104.793 9.09864 105.109 8.91131 104.726 8.76754C104.83 8.60151 104.754 8.41659 104.999 8.26749C105.283 8.39471 105.161 8.55975 105.451 8.64158C105.319 8.85941 105.19 8.62032 105.055 8.73897L105.053 8.73317Z" fill="black"/>
</g>
<defs>
<clipPath id="clip0_1733_2503">
<rect width="112" height="42" fill="white" transform="matrix(-0.963721 0.266912 0.266912 0.963721 107.937 0)"/>
</clipPath>
</defs>
</svg>
