<svg width="332" height="174" viewBox="0 0 332 174" fill="none" xmlns="http://www.w3.org/2000/svg">
<g clip-path="url(#clip0_5132_11799)">
<path d="M324.892 97.4873C324.933 96.8524 325.028 96.0954 324.62 95.5803C324.135 94.9387 324.076 94.4387 324.257 93.8323C324.383 93.4254 324.454 93.0072 324.465 92.5882C324.474 92.4014 324.347 92.0874 324.159 92.0049C322.929 91.434 323.46 90.832 323.713 90.1625C323.91 89.6257 323.99 89.01 323.904 88.4269C323.7 87.1214 323.396 85.8067 323.059 84.5076C322.837 83.6531 322.606 82.7745 322.137 81.981C320.888 79.8427 318.798 78.1663 316.573 76.5842C316.19 76.307 315.569 75.904 315.234 75.9692C314.187 76.1561 313.403 75.6203 312.51 75.406C312.146 75.3213 311.778 75.047 311.465 75.0724C309.913 75.2236 308.686 74.5646 307.41 73.929C306.76 73.5977 306.067 73.3353 305.431 73.8719C305.291 73.9876 304.804 73.9333 304.53 73.8444C303.581 73.5414 302.657 73.1212 301.935 73.6513C301.391 73.3748 300.967 73.1558 300.555 72.9504C300.544 73.0036 300.534 73.0569 300.521 73.1208C300.921 73.6011 301.333 74.0949 301.852 74.7102C301.208 74.7127 300.9 74.7168 300.563 74.7152C300.715 74.9787 300.845 75.2046 301.071 75.6053C299.371 75.1833 298.096 74.6145 296.523 74.5064C294.125 74.3532 292.42 72.7324 290.731 71.5362C289.38 71.7727 288.081 71.6868 286.834 71.2679C285.712 70.8852 284.624 70.4763 283.413 70.242C281.54 69.8845 279.718 69.2714 277.853 68.8713C275.65 68.4028 273.44 68.0437 271.229 67.6179C271.005 67.5723 270.824 67.3805 270.614 67.2604C270.039 66.922 269.468 66.5624 268.868 66.2744C268.508 66.1017 268.082 66.0375 267.986 66.0069C267.918 65.328 267.852 64.8599 267.83 64.3897C267.818 64.2321 267.949 64.0922 267.979 63.9431C268.038 63.6555 268.11 63.3708 268.066 63.0845C267.995 62.6378 267.792 62.1974 267.735 61.7535C267.666 61.2293 267.76 60.6939 267.644 60.1825C267.37 59.007 266.933 57.8428 266.701 56.6758C266.511 55.739 266.897 54.6973 265.931 53.9028C264.613 52.8262 263.27 51.6558 261.677 50.9228C259.322 49.8357 256.766 49.0183 254.23 48.2493C250.853 47.2213 247.53 45.9271 243.948 45.5559C242.787 45.4317 241.627 45.4517 240.474 45.2956C238.052 44.9712 235.643 44.5829 233.226 44.2372C231.22 43.9528 229.211 43.6122 227.203 43.4159C222.895 43.0088 218.599 42.6927 214.297 42.3311C213.276 42.2461 212.257 42.073 211.253 42.0469C210.031 42.01 208.832 42.0776 207.616 42.0862C205.93 42.0995 204.235 42.0887 202.546 42.1233C199.138 42.1869 195.746 42.32 192.33 42.3488C191.098 42.3652 189.838 42.1543 188.581 42.077C188.307 42.0548 188.005 42.1044 187.756 42.176C187.386 42.2674 187.065 42.4796 186.692 42.5149C185.028 42.6433 183.355 42.7368 181.675 42.7956C180.599 42.8327 179.521 42.8137 178.439 42.8053C178.116 42.7398 177.823 42.9577 177.467 42.9852C174.797 43.2316 172.111 43.4192 169.44 43.6763C167.619 43.8507 165.839 44.3327 164.003 44.2934C161.906 44.2455 159.922 44.7196 157.711 44.2937C156.247 44.0082 154.627 44.4228 153.108 44.6251C152.416 44.7178 151.496 44.5646 151.115 45.286C151.047 45.4052 150.268 45.2805 149.809 45.232C149.452 45.1928 149.101 45.0442 148.765 45.0426C148.179 45.0458 147.61 45.108 147.049 45.205C145.322 45.4981 143.588 45.8232 141.858 46.127C140.445 46.384 139.032 47.0068 137.578 45.803C137.465 45.7135 137.142 45.7147 136.933 45.7388C135.122 45.9374 133.313 46.1254 131.51 46.3588C129.812 46.5802 128.147 46.8527 126.446 47.0848C125.242 47.2511 124.04 47.4067 122.818 47.514C121.954 47.5938 120.848 47.3475 120.227 47.6653C119.067 48.262 117.68 48.1029 116.462 48.4105C115.292 48.6947 114.099 48.9518 112.931 49.2254C112.869 49.2459 112.849 49.3418 112.788 49.4291C113.108 49.4385 113.369 49.4472 113.818 49.4716C112.673 49.9937 111.717 50.4541 110.71 50.8711C110.502 50.9619 110.141 50.8666 109.849 50.8629C108.945 50.8461 108.043 50.8186 107.139 50.8018C106.775 50.7945 106.426 50.8568 106.059 50.8602C104.916 50.8724 103.778 50.8526 102.634 50.8648C102.487 50.8683 102.216 50.9796 102.217 51.0464C102.263 51.8319 101.422 51.6503 100.856 51.7686C100.398 51.8643 99.9375 51.9706 99.4651 52.0634C99.2208 52.1137 98.9667 52.1398 98.6057 52.1886C98.7526 51.8968 98.8293 51.7349 98.8358 51.703C97.7374 51.7798 96.625 51.8538 95.5244 51.9413C95.1234 51.9709 94.7342 52.014 94.3526 52.0919C92.957 52.408 91.569 52.7588 90.1593 53.072C88.98 53.332 87.7811 53.5437 86.5898 53.7902C84.377 54.24 82.15 54.687 79.9588 55.1745C79.2843 55.3261 78.2346 55.5237 78.1612 55.8859C77.981 56.7032 77.2036 56.5679 76.5712 56.728C76.1064 56.8556 75.6437 56.9726 75.1951 57.0923C75.5479 57.9511 73.4021 58.6474 71.7922 58.2879C71.6929 58.7779 70.6304 59.3278 69.8044 59.0717C68.4009 58.632 67.3643 59.0541 66.2304 59.3787C65.145 59.68 64.0067 59.8818 62.7203 60.1645C62.918 59.8386 63.0293 59.6505 63.1547 59.4652C63.0887 59.4297 63.0227 59.3941 62.9568 59.3586C62.5699 59.6794 62.1829 60.0002 61.796 60.321C61.769 60.2379 61.7279 60.1519 61.7008 60.0688C60.557 60.2252 59.4133 60.3815 58.2414 60.5322C58.2188 60.8603 58.2071 61.1351 58.1877 61.3752C57.3207 61.6098 56.5165 61.8238 55.496 62.0939C55.6569 61.6608 55.7153 61.5173 55.874 61.0948C44.2726 63.6121 33.785 67.2755 23.4556 71.7471C24.0437 71.7332 24.3097 71.7206 24.5756 71.7079C24.4471 72.1255 24.4581 72.6489 24.1307 72.893C23.7891 73.1343 23.4985 73.774 22.5427 73.292C22.2767 73.1605 21.4855 73.599 21.0347 73.8736C20.7202 74.0538 20.662 74.4856 20.3355 74.6523C18.9261 75.398 17.4549 76.0868 16.0097 76.792C15.572 77.0027 15.1699 77.2539 14.6986 77.4134C14.1019 77.6141 13.3408 77.6151 12.8317 77.889C11.7951 78.4552 10.8807 79.0683 10.3276 80.0651C9.78087 81.03 8.57353 81.7168 7.70246 82.5494C7.48416 82.7602 7.38371 83.0392 7.16978 83.3729C7.62602 83.4321 7.88333 83.4621 8.29741 83.5127C6.94546 84.9132 5.62914 86.21 5.4352 88.0337C5.26384 89.5293 4.72056 90.9827 4.52109 92.4726C4.36258 93.6159 4.41706 94.7913 4.44558 95.9504C4.47426 97.5419 4.76888 99.1208 5.78133 100.623C6.46819 101.639 7.1529 102.664 7.9003 103.67C10.3026 106.907 13.696 109.369 17.8632 111.189C18.1994 111.335 18.499 111.517 18.8353 111.663C20.1339 112.259 21.3968 112.958 22.7516 113.421C25.7758 114.455 28.8335 115.397 31.9096 116.319C34.019 116.958 36.1598 117.513 38.2865 118.066C40.0781 118.54 41.8642 118.969 43.6644 119.4C44.3066 119.552 44.9716 119.665 45.6386 119.767C47.5674 120.069 49.5049 120.328 51.4315 120.641C53.7419 121.009 56.0286 121.495 58.3401 121.786C62.1512 122.259 65.9654 122.644 69.7819 123.018C72.1344 123.25 74.4956 123.441 76.8568 123.631C78.6126 123.776 80.3748 123.889 82.1327 124.023C82.6073 124.064 83.0852 124.161 83.5641 124.18C86.3231 124.285 89.0886 124.357 91.8595 124.475C93.065 124.52 94.2769 124.677 95.4802 124.732C98.742 124.883 101.996 124.999 105.26 125.139C106.87 125.21 108.495 125.351 110.094 125.331C112.265 125.305 114.423 124.978 116.594 125.096C119.127 125.232 121.629 125.451 124.146 125.307C125.909 125.198 127.737 125.347 129.516 125.308C133.471 125.211 137.426 125.048 141.38 124.962C144.29 124.897 147.219 124.959 150.131 124.883C152.455 124.822 154.747 124.632 157.056 124.501C159.676 124.356 162.307 124.224 164.924 124.089C166.079 124.023 167.224 123.933 168.398 123.916C171.085 123.873 173.789 123.955 176.461 123.842C179.265 123.723 182.024 123.395 184.823 123.23C187.09 123.091 189.371 123.098 191.638 122.959C192.632 122.894 193.572 122.586 194.568 122.51C197.818 122.282 201.073 122.11 204.333 121.905C206.556 121.768 208.771 121.596 211.003 121.483C211.845 121.443 212.726 121.577 213.548 121.488C214.847 121.363 216.091 121.072 217.377 120.933C221.279 120.526 225.161 119.927 229.131 119.833C233.57 119.735 237.641 118.564 242.078 118.542C243.017 118.533 243.9 118.29 244.832 118.169C247.341 117.846 249.862 117.536 252.357 117.21C254.16 116.976 255.944 116.695 257.755 116.496C258.878 116.369 260.077 116.445 261.181 116.27C264.175 115.79 267.133 115.203 270.134 114.691C273.556 114.12 277.006 113.633 280.407 113.024C283.124 112.544 285.763 111.936 288.463 111.396C290.932 110.91 293.432 110.485 295.856 109.934C298.079 109.431 300.217 108.777 302.409 108.212C304.65 107.624 306.946 107.124 309.155 106.474C310.866 105.978 312.379 105.154 314.13 104.743C316.404 104.206 318.252 103.25 320.038 102.159C320.355 101.968 320.527 101.626 320.865 101.473C321.72 101.081 322.661 100.772 323.518 100.369C323.907 100.182 324.318 99.8881 324.443 99.5586C324.698 98.8784 324.842 98.1647 324.886 97.4418L324.892 97.4873ZM169.122 56.076C170.346 55.8139 171.6 55.5468 172.887 55.475C175.758 55.3139 178.66 55.2919 181.537 55.1763C182.349 55.1412 183.126 54.9882 183.94 54.9424C185.491 54.8687 187.05 54.8297 188.609 54.7908C188.756 54.7873 188.921 54.8428 189.046 54.8016C191.035 54.2288 193.187 54.7314 195.257 54.6962C198.324 54.6524 201.467 54.8124 204.435 54.4603C207.299 54.1201 210.151 54.9199 212.974 54.7821C214.63 54.6964 216.336 54.7981 218.016 54.8835C220.073 54.9897 222.132 55.152 224.199 55.349C229.61 55.8689 235.01 56.5194 240.352 57.6684C243.676 58.3754 246.967 59.2527 250.257 60.1301C251.95 60.5841 253.573 61.4563 255.265 61.6994C257.654 62.0394 259.595 63.0759 261.651 63.9803C261.745 64.0215 261.804 64.089 262.062 64.2632L261.007 64.0496C262.073 64.9307 264.05 64.3445 264.874 65.9087C264.334 65.9766 263.854 66.0346 263.388 66.0954C262.879 64.9944 261.784 64.5506 260.458 64.5926C257.495 64.7018 254.557 64.4723 251.698 63.272C251.225 63.0765 250.563 63.2416 249.987 63.1916C248.337 63.0345 246.706 62.8483 245.057 62.6805C244.842 62.6591 244.608 62.5894 244.402 62.5921C243.173 62.6646 241.935 62.9239 240.691 62.206C240.762 62.287 240.831 62.3786 240.948 62.5243C239.925 62.5166 238.943 62.5282 237.964 62.5185C236.928 62.508 235.893 62.4868 234.865 62.4338C234.662 62.4258 234.42 62.2439 234.241 62.1188C233.66 61.735 233.189 61.3179 232.302 61.5042C230.869 61.7904 229.503 61.0923 228.112 60.8103C227.381 60.6622 226.693 60.4452 226.008 60.9385C225.715 61.1563 224.9 60.9911 224.313 60.9276C222.966 60.7877 221.572 60.2281 220.3 60.9461C220.117 60.6208 219.999 60.4084 219.946 60.3089C219.087 60.0684 218.316 59.757 217.545 59.6671C215.942 59.4866 214.324 59.458 212.715 59.3095C210.103 59.0574 207.498 58.7734 204.894 58.4787C204.207 58.4059 203.535 58.1812 202.859 58.1219C201.952 58.049 201.04 58.0748 200.122 58.0551C198.737 58.0295 197.327 57.9102 195.965 57.989C194.085 58.096 192.241 58.3876 190.361 58.4946C188.805 58.5897 187.246 58.7728 185.662 57.853C184.969 57.4464 183.886 57.4487 182.973 57.3303C182.744 57.306 182.491 57.5431 182.286 57.69C182.115 57.8107 181.994 57.9746 181.677 58.3097C181.513 57.3892 181.167 57.2193 180.237 57.3303C179.203 57.4533 178.029 57.1047 176.954 57.1418C176.114 57.1712 175.348 57.4819 174.527 57.637C174.252 57.6922 173.939 57.6509 173.635 57.6337C173.331 57.6165 173.013 57.5964 172.704 57.5337C172.212 57.4341 171.731 57.2811 171.233 57.2134C170.748 57.1485 170.242 57.1902 169.744 57.1224C169.276 57.0497 168.825 56.8918 168.365 56.7766C168.618 56.5395 168.799 56.1547 169.136 56.0788L169.122 56.076ZM223.362 61.866C222.406 62.249 221.811 61.8624 221.267 61.2975C221.995 60.8128 222.759 61.012 223.362 61.866ZM169.862 45.0592C169.62 45.0989 169.391 45.1414 169.151 45.1704C167.879 45.3117 166.599 45.4183 165.348 45.5973C164.792 45.673 164.306 45.9739 163.738 46.0361C163.048 46.1181 162.314 46.0581 161.613 46.0492C160.838 46.0474 160.063 46.0455 159.113 46.0415C159.728 45.534 168.482 44.6466 169.862 45.0592ZM166.192 56.6689C165.668 56.729 165.16 56.7813 164.636 56.8414C164.579 56.6858 164.539 56.5224 164.483 56.3669C165.017 56.3309 165.551 56.295 166.071 56.2562C166.115 56.3983 166.146 56.5375 166.192 56.6689ZM65.3672 61.2553C65.43 61.3789 65.4787 61.4997 65.5436 61.6126C64.7642 61.7763 63.9869 61.9293 63.2075 62.0929C63.1566 61.9828 63.1058 61.8727 63.0549 61.7626C63.8365 61.5883 64.6019 61.4218 65.3834 61.2475L65.3672 61.2553ZM24.6221 71.6952C24.6221 71.6952 24.6967 71.6881 24.727 71.6832C25.8955 71.188 27.064 70.6929 28.2346 70.1872C28.2919 70.2653 28.3493 70.3435 28.4066 70.4216C27.4934 71.2457 26.1724 71.5546 24.727 71.6832C24.6946 71.6988 24.6643 71.7037 24.6459 71.7222L24.6221 71.6952ZM162.568 111.746C161.921 111.903 161 111.539 160.573 112.273C160.485 112.421 159.411 112.159 158.784 111.933C160.521 111.087 162.429 111.13 164.371 111.368C164.379 111.47 164.402 111.574 164.409 111.686C163.792 111.694 163.121 111.614 162.568 111.746ZM287.767 98.1483C287.936 97.3174 289.994 97.1246 291.285 97.974C290.119 98.0259 288.964 98.0914 287.767 98.1483ZM305.834 91.1638C304.795 91.5964 303.907 92.2259 302.586 92.2465C302.278 92.2506 302.04 92.5573 301.727 92.6601C301.429 92.7551 301.072 92.7826 300.742 92.8265C300.651 92.8414 300.503 92.7781 300.424 92.8064C299.68 93.1548 298.937 93.5031 298.293 94.0048C298.68 93.9724 299.065 93.9506 299.452 93.9181C299.47 93.977 299.501 94.0388 299.516 94.1085C297.491 94.4966 295.467 94.8847 293.153 95.3252C293.413 94.912 293.588 94.6259 293.802 94.2923C293.588 94.3376 293.322 94.3502 293.101 94.4275C292.122 94.7835 291.166 95.1665 290.185 95.5332C289.994 95.6055 289.755 95.7013 289.575 95.6536C288.563 95.4486 288.004 95.5349 288.438 96.4989C288.467 96.5713 288.061 96.8438 287.827 96.8409C287.171 96.8299 286.574 97.0305 285.797 96.6068C285.403 96.3829 284.396 96.8774 283.67 97.0631C283.563 97.0858 283.548 97.3045 283.441 97.3272C281.37 97.7281 279.681 98.916 277.284 98.6854C276.021 98.5626 274.634 98.2593 273.533 98.7126C272.911 98.9636 271.76 98.941 271.887 99.8984C271.896 100 271.572 100.156 271.358 100.201C270.639 100.355 269.901 100.461 269.194 100.628C268.887 100.699 268.649 100.861 268.373 100.994C268.412 101.09 268.465 101.19 268.504 101.287C269.933 101.166 271.377 101.048 273.134 100.894C272.821 101.141 272.675 101.355 272.443 101.419C271.406 101.697 270.324 101.91 269.285 102.199C269.085 102.247 269.005 102.497 269.026 102.468C267.973 102.465 267.065 102.47 266.173 102.466C265.442 102.462 264.713 102.448 263.968 102.441L263.901 102.195C265.139 101.935 266.393 101.668 267.645 101.412C267.618 101.329 267.591 101.246 267.578 101.165C265.951 100.669 264.608 101.739 262.903 101.416C263.021 101.196 263.114 101.026 263.193 100.853C262.185 100.194 249.34 101.916 247.822 102.906C247.985 103.039 248.151 103.161 248.43 103.373C245.849 103.615 243.606 104.359 240.962 103.978C239.895 103.828 238.666 104.045 238.178 105.077C237.84 105.807 236.854 105.763 235.957 105.714C234.945 105.653 233.903 105.453 232.909 105.518C230.699 105.669 228.506 105.945 226.322 106.179C225.455 106.269 224.613 106.454 223.729 106.485C223.078 106.52 222.389 106.38 221.643 106.307C221.082 106.404 220.384 106.528 219.397 106.705C219.652 106.169 219.758 105.936 219.952 105.554C217.856 105.861 215.732 105.585 214.009 106.578C213.098 107.103 212.056 107.624 210.627 107.235C210.294 107.145 209.859 107.345 209.479 107.412C209.76 107.614 210.028 107.812 210.309 108.013C210.41 108.089 210.524 108.179 210.574 108.222C208.865 109.362 207.026 109.987 204.615 109.033C205.476 108.753 206.322 108.48 207.293 108.167C206.568 107.987 205.998 107.838 205.206 107.633C205.153 107.678 204.869 107.853 204.497 108.099C204.465 107.893 204.449 107.757 204.422 107.53C203.448 108.22 202.238 108.052 201.077 108.149C199.662 108.273 197.918 108.141 196.907 109.234C196.721 109.429 196.042 109.314 195.616 109.394C195.146 109.476 194.707 109.62 194.242 109.747C193.529 109.947 192.784 110.084 192.114 110.358C191.636 110.55 190.989 110.851 190.918 111.203C190.742 112.143 189.892 111.86 189.083 111.74C189.438 111.646 189.792 111.562 190.178 111.463C189.759 110.425 188.495 111.1 187.698 110.484C188.191 110.218 188.652 109.967 189.242 109.655C188.395 109.572 187.649 109.498 186.733 109.401C186.997 109.178 187.189 109.028 187.386 108.846C187.325 108.789 187.267 108.711 187.173 108.67C185.37 107.894 183.595 108.133 181.872 108.405C181.434 108.472 181.519 109.276 180.752 109.309C180.383 109.323 180.036 109.375 179.668 109.389C178.479 109.403 177.284 109.383 176.089 109.429C174.925 109.47 173.785 109.605 172.619 109.657C171.408 109.711 170.19 109.586 169.042 110.052C168.341 110.332 167.255 110.134 166.339 110.104C165.785 110.091 165.181 109.825 164.933 110.473C164.861 110.68 164.228 110.774 163.827 110.803C162.785 110.891 161.739 110.924 160.682 110.942C160.108 110.959 159.425 111.009 159.79 110.074C158.621 110.136 157.557 110.187 156.507 110.24C156.153 110.257 155.765 110.223 155.43 110.288C154.855 110.382 154.094 110.162 153.842 110.831C153.802 110.956 153.056 111.027 152.788 110.906C151.604 110.322 150.258 110.105 149.658 110.826C149.058 111.548 148.198 111.096 147.541 111.307C147.4 111.356 147.128 111.323 146.998 111.241C145.202 110.068 143.457 110.812 141.649 110.922C141.865 111.01 142.084 111.088 142.3 111.176L142.176 111.428C141.797 111.274 141.434 111.045 141.038 110.976C140.687 110.905 140.305 110.983 139.954 111.056C139.54 111.149 139.143 111.446 138.759 111.39C137.69 111.251 136.529 111.637 135.54 110.815C135.402 110.699 135.048 110.716 134.786 110.707C133.399 110.692 132.027 110.747 130.651 110.679C129.377 110.609 128.101 110.339 126.841 110.273C125.03 110.183 123.216 110.181 121.406 110.158C121.159 110.152 120.753 110.203 120.718 110.307C120.414 111.155 119.477 110.943 118.649 110.986C118.322 111.008 118.049 111.274 117.706 111.449C117.563 111.287 117.381 111.106 117.202 110.903C116.857 111.088 116.559 111.261 116.247 111.43C116.236 111.339 116.225 111.249 116.214 111.158C115.629 111.083 115.045 110.932 114.473 110.938C113.211 110.959 111.945 111.069 110.688 111.136C110.51 111.144 110.325 111.118 110.14 111.091C108.9 110.929 107.664 110.678 106.434 110.606C104.137 110.462 101.829 110.372 99.5379 110.34C97.6113 110.316 95.7043 110.484 93.7637 110.456C92.8016 110.439 91.8047 110.159 90.7138 109.982C90.9613 109.844 91.1115 109.753 91.3104 109.638C91.1418 109.603 91.0455 109.573 90.945 109.564C87.7114 109.418 84.4918 109.276 81.256 109.142C80.0225 109.091 78.777 109.027 77.5446 109.044C76.9867 109.053 76.4517 109.31 75.9003 109.287C73.6667 109.19 71.4212 109.078 69.1789 108.879C68.0589 108.774 66.9355 108.325 65.8208 108.265C63.9699 108.156 62.1105 108.234 60.3884 108.428C60.1019 108.614 59.795 108.974 59.5096 108.938C57.8252 108.73 56.1461 108.423 54.4725 108.161C54.4757 108.073 54.4789 107.985 54.4821 107.897C54.8129 107.853 55.1275 107.817 55.4583 107.773C55.4691 107.72 55.5058 107.683 55.5307 107.633C55.1858 107.529 54.8473 107.394 54.5079 107.337C53.4916 107.153 52.4461 107.041 51.4341 106.836C50.4362 106.634 49.4685 106.282 48.4597 106.133C46.7158 105.857 44.9503 105.688 43.1956 105.466C41.9956 105.322 40.8095 105.182 39.3522 105.009C39.9479 105.174 40.2928 105.277 40.6377 105.38C40.6312 105.412 40.6226 105.454 40.6302 105.489C39.7253 105.406 38.8009 105.418 37.9198 105.217C36.1153 104.807 34.3442 104.304 32.5527 103.83C30.6227 103.317 28.6388 102.926 26.7812 102.273C24.555 101.489 22.1169 101.028 20.2623 99.5656C19.9217 99.297 19.3411 99.2016 18.8783 99.0302C17.1894 98.4107 16.0463 97.3363 14.8751 96.2562C14.2846 95.7041 14.3915 95.2489 14.7643 94.7811C15.1144 94.353 15.5067 93.9335 15.9584 93.4373C15.6081 93.4329 15.3887 93.4328 15.1108 93.4319C16.9414 91.1858 19.5993 89.6951 22.2367 88.2335C24.9551 86.7329 27.8487 85.3786 30.8051 84.148C33.7614 82.9173 36.866 81.8942 39.9273 80.7957C42.0741 80.022 44.2328 79.2618 46.4131 78.5392C47.667 78.128 48.9739 77.8162 50.2538 77.4213C51.5478 77.0292 52.7984 76.5619 54.1183 76.1861C55.3452 75.8359 56.6154 75.5611 57.8499 75.2457C58.6056 75.055 59.3774 74.8566 60.133 74.6659C62.5231 74.0635 64.9273 73.4639 67.3055 72.848C69.4675 72.2881 71.5959 71.677 73.7536 71.1384C75.7881 70.6303 77.8636 70.2081 79.9121 69.7028C81.8677 69.223 83.7962 68.6601 85.7614 68.2045C86.7754 67.9664 87.8673 67.9215 88.9127 67.7452C90.3678 67.4967 91.8022 67.1331 93.2725 66.9542C94.9081 66.7534 96.5838 66.7159 98.2465 66.5982C99.9395 66.4755 101.611 66.3151 103.302 66.2031C105.391 66.0721 107.491 65.9652 109.586 65.8797C113.391 65.7304 117.216 65.6294 121.022 65.4801C122.748 65.4086 124.462 65.2568 126.204 65.1774C127.933 65.0952 129.653 65.0556 131.389 65.0083C135.168 64.92 138.936 64.8077 142.706 64.762C144.23 64.7493 145.779 64.9078 147.325 64.9328C150.386 64.9876 153.443 64.997 156.509 65.0306C159.152 65.0561 161.788 65.0468 164.434 65.1285C167.475 65.2124 170.525 65.3979 173.562 65.5032C175.83 65.5747 178.102 65.5581 180.382 65.6431C183.141 65.7475 185.917 65.9109 188.677 66.0821C192.709 66.3335 196.734 66.6168 200.765 66.8682C203.815 67.0537 206.852 67.159 209.897 67.3658C211.83 67.5024 213.764 67.7833 215.704 67.9547C217.572 68.1226 219.442 68.213 221.324 68.3838C223.809 68.6102 226.291 68.8579 228.761 69.1589C233.573 69.7459 238.385 70.3329 243.185 70.9838C245.962 71.3581 248.716 71.8495 251.474 72.3197C254.274 72.7984 257.088 73.28 259.894 73.8041C262.969 74.3717 266.06 74.9316 269.12 75.5737C270.889 75.9433 272.619 76.5045 274.384 76.9621C277.526 77.7762 280.716 78.5001 283.822 79.4178C286.86 80.3107 289.815 81.3974 292.82 82.3833C293.588 82.6387 294.38 82.8436 295.177 83.0273C298.29 83.7689 300.928 85.3348 303.732 86.5905C305.597 87.4231 307.244 88.6107 309.166 89.743C307.951 90.2508 306.896 90.6913 305.841 91.1318L305.834 91.1638Z" fill="black"/>
</g>
<defs>
<clipPath id="clip0_5132_11799">
<rect width="315.043" height="112.334" fill="white" transform="translate(23.1385 0.667969) rotate(11.4549)"/>
</clipPath>
</defs>
</svg>
