<svg width="80" height="90" viewBox="0 0 80 90" fill="none" xmlns="http://www.w3.org/2000/svg">
<g clip-path="url(#clip0_1447_818)">
<path d="M55.458 72.9958C57.0047 71.9707 58.715 70.1076 57.6757 68.1956C56.9229 66.8125 55.3026 66.2348 53.6495 66.0559C54.3287 65.6816 54.6643 64.9738 54.5251 64.152C53.985 60.9058 53.7805 57.6351 54.2224 54.3645C54.6233 51.3867 55.9245 48.7913 57.4793 46.2692C59.0014 43.804 60.5481 41.3225 61.1864 38.4668C61.7019 36.1725 61.6937 33.7154 61.3828 31.3967C60.859 27.5646 58.7805 24.237 55.7199 21.902C52.7657 19.6483 48.9441 18.672 45.2862 18.3791C37.332 17.7445 28.8868 20.5758 23.1585 26.1164C19.1896 29.9566 17.4711 35.3019 18.4122 40.7123C19.4351 46.6109 23.4368 51.2565 27.8885 54.9909C29.8279 56.6181 31.571 58.2453 32.7657 60.5071C33.9932 62.8259 34.7134 65.3887 35.7199 67.8051C35.7608 67.9027 35.8099 67.9922 35.859 68.0736C34.8607 70.2133 36.6119 72.0114 38.715 72.467C42.0292 73.1911 44.967 72.052 47.913 70.6608C49.1814 70.0587 50.4826 69.4648 51.9147 69.4567C52.6021 69.4567 53.314 69.5299 53.985 69.6763C54.0014 69.6763 54.0423 69.6926 54.0832 69.7008C53.9523 69.8147 53.8132 69.9204 53.6659 70.0181C52.7576 70.6283 51.7183 71.0432 50.6626 71.3198C46.3418 72.4507 40.3353 71.6615 38.0931 76.478C37.2093 78.3737 37.8394 80.3019 39.9179 80.9528C41.6201 81.4816 43.6577 81.083 45.3435 80.6762C47.152 80.245 48.8459 79.472 50.4744 78.5852C52.242 77.617 54.7052 75.876 56.8247 76.535C59.2142 77.2753 58.044 79.9195 57.1274 81.3352C56.0472 82.9949 54.4842 84.0201 52.7657 84.9069C49.9261 86.3632 44.5906 88.0311 42.3729 84.7035C42.3238 84.6302 42.2829 84.557 42.2338 84.4757C41.0718 82.5718 37.9949 84.2072 39.1651 86.1273C41.7265 90.3336 46.7428 90.6346 51.08 89.3084C55.4826 87.9578 59.4106 85.2974 61.2355 80.9772C62.2584 78.5527 61.7592 75.7295 59.5661 74.143C58.2567 73.1911 56.8656 72.8982 55.4499 73.0121L55.458 72.9958ZM40.859 77.6089C40.859 77.6089 40.8427 77.6008 40.8263 77.5926C40.8345 77.5926 40.8508 77.6089 40.859 77.6089ZM46.1536 76.8197C45.1634 77.2347 43.0603 77.7065 41.6774 77.6984C41.5792 77.6984 41.4891 77.6984 41.3909 77.6903C41.5792 77.3892 41.8001 77.1045 42.0292 76.8767C42.6675 76.2665 43.7314 76.0468 44.5579 75.8515C45.8508 75.5424 47.1765 75.3878 48.494 75.2088C48.895 75.1519 49.3042 75.0949 49.697 75.0298C48.5268 75.6563 47.3729 76.3153 46.1454 76.8279L46.1536 76.8197ZM41.7756 69.2126C41.1209 69.2696 40.3844 69.2533 39.7297 69.1475C39.6233 69.1312 39.5088 69.1068 39.4024 69.0743C39.5988 68.8872 39.8443 68.7244 40.0571 68.578C42.4139 67.0159 45.1143 66.9671 47.823 66.8939C45.8345 67.7644 43.9605 69.0255 41.7756 69.2126ZM40.7035 39.5652C42.463 39.9638 44.1323 41.6805 46.1209 42.0629C46.3091 42.1036 46.4973 42.128 46.6692 42.1361C45.7363 45.8949 44.4106 49.5643 44.0178 53.4451C43.8377 55.2269 44.0996 57.0412 44.1733 58.823C44.1896 59.1728 44.2142 59.5715 44.2224 59.9946C41.1864 54.6899 38.2322 49.3364 34.7706 44.2922C35.6053 44.1213 36.3664 43.6494 37.0538 43.1287C37.9621 42.4372 38.6904 41.5015 39.4515 40.6635C39.7952 40.2893 40.1471 39.9313 40.5399 39.614C40.3844 39.7442 40.6135 39.6384 40.6954 39.5733L40.7035 39.5652ZM40.5562 39.5652C40.5562 39.5652 40.6053 39.5489 40.6135 39.5408C40.5972 39.5408 40.5726 39.557 40.5481 39.5652H40.5562ZM50.5644 60.1817C50.6299 61.1905 50.7363 62.1913 50.8672 63.2001C49.6397 63.3954 48.3877 63.4442 47.1356 63.4767C48.1012 60.8488 47.5202 57.7409 47.463 54.9747C47.3648 50.1012 49.6888 45.4068 50.5481 40.6717C50.6299 40.1998 50.5808 39.7279 50.3844 39.3374C50.7199 38.3366 50.859 37.1976 50.8836 36.1562C50.9327 33.9188 47.4466 33.8049 47.3975 36.0342C47.3811 36.6932 47.3648 37.3522 47.2256 37.9949C47.1684 38.2715 47.0783 38.4912 46.9965 38.6458C46.9065 38.6458 46.8165 38.6702 46.9229 38.6946C46.5464 38.6133 46.1782 38.4587 45.9572 38.3529C44.2551 37.5312 42.7003 36.2782 40.7608 36.083C38.7887 35.8877 37.3238 37.8403 36.17 39.1258C35.5644 39.8011 34.9589 40.452 34.3124 40.81C34.3697 40.7693 34.1814 40.8506 34.0751 40.8832C34.0751 40.875 33.9932 40.8669 33.9032 40.8344C33.8296 40.81 33.3631 40.2567 33.1995 40.0126C31.9638 38.1658 28.8787 39.8011 30.1307 41.6642C30.2535 41.8514 30.3844 42.0385 30.5235 42.2175C29.9998 42.909 30.1634 43.7633 30.6708 44.4467C35.1634 50.565 38.6414 57.3178 42.4384 63.8591C41.1454 64.1276 39.7297 64.6402 38.5104 65.3806C37.3484 62.4272 36.4319 59.36 34.5742 56.7402C32.7003 54.1041 29.9098 52.2898 27.5775 50.085C23.7641 46.4889 21.1209 41.2086 21.7428 35.9121C22.2747 31.3804 25.8508 27.7517 29.5415 25.5225C32.8148 23.5373 36.5301 22.4064 40.3189 21.9345C43.8705 21.4871 47.5775 21.8206 50.9081 23.1387C53.8214 24.2858 56.2846 26.5883 57.3402 29.4928C58.0194 31.3641 58.1831 33.333 58.0849 35.3101C57.9458 38.06 56.9965 40.3625 55.589 42.7138C54.1078 45.1952 52.4793 47.5709 51.6201 50.3534C50.6299 53.5509 50.368 56.8541 50.5726 60.1817H50.5644Z" fill="black"/>
<path d="M25.8263 64.4368C23.9523 65.8362 22.2257 67.4146 20.3517 68.8139C19.5906 69.3835 19.697 70.6445 20.2944 71.271C21.0064 72.0114 22.0047 71.8893 22.7658 71.328C24.6397 69.9286 26.3664 68.3502 28.2404 66.9508C29.0014 66.3813 28.8951 65.1202 28.2977 64.4937C27.5857 63.7534 26.5874 63.8754 25.8263 64.4368Z" fill="black"/>
<path d="M17.4386 56.0486C14.4762 57.4561 12.1112 59.7505 9.45985 61.6299C8.68244 62.1831 8.25691 63.0699 8.75609 63.9812C9.16525 64.7378 10.3437 65.2341 11.1211 64.6808C13.7643 62.8014 16.1538 60.499 19.0998 59.0996C21.1292 58.1314 19.468 55.0804 17.4386 56.0486Z" fill="black"/>
<path d="M12.2178 45.1872C8.61713 46.0496 5.12286 47.2374 1.71042 48.6531C-0.368138 49.5155 1.30944 52.5583 3.37163 51.7041C6.50584 50.4023 9.70551 49.3528 13.0034 48.5636C15.1965 48.0347 14.4109 44.6583 12.2178 45.179V45.1872Z" fill="black"/>
<path d="M1.22732 34.1385C4.17331 34.822 7.05383 35.3833 10.0898 35.066C11.0391 34.9684 11.5956 33.8212 11.3992 32.9832C11.17 31.9744 10.2535 31.5838 9.30424 31.6815C6.91472 31.9337 4.53337 31.356 2.22568 30.8109C0.0407395 30.2984 -0.965807 33.626 1.22732 34.1385Z" fill="black"/>
<path d="M13.1916 22.0892C15.0165 23.3991 16.825 20.4294 15.0083 19.1277C12.9216 17.6307 10.7612 16.2394 8.90358 14.4576C7.29146 12.9037 4.76282 15.2956 6.38312 16.8577C8.45349 18.8511 10.8594 20.4213 13.1916 22.0973V22.0892Z" fill="black"/>
<path d="M24.5337 13.0582C25.7694 14.905 28.8463 13.2778 27.6025 11.4066C26.2113 9.31564 25.0329 7.10265 23.8709 4.88154C22.8316 2.89636 19.7629 4.54796 20.8021 6.53314C21.9642 8.75425 23.1344 10.9672 24.5337 13.0582Z" fill="black"/>
<path d="M43.036 11.8622C44.0426 11.6344 44.4517 10.7232 44.3453 9.7794C44.0098 6.90741 44.7627 4.07609 43.8625 1.25291C43.1833 -0.870573 39.779 -0.0976573 40.4583 2.02583C41.3339 4.77578 40.6137 7.721 40.9411 10.5523C41.0475 11.4961 42.1849 12.0493 43.036 11.8541V11.8622Z" fill="black"/>
<path d="M58.6171 13.4976C60.9575 10.8534 63.036 7.94887 65.7447 5.64639C67.455 4.19006 65.0328 1.69232 63.3306 3.14052C60.622 5.44299 58.5516 8.34753 56.203 10.9917C54.73 12.6515 57.1277 15.1817 58.6171 13.4976Z" fill="black"/>
<path d="M63.7152 22.7726C63.9116 23.6106 64.91 24.3916 65.8101 24.0743C68.4697 23.1306 71.162 22.1949 73.5352 20.6491C75.4091 19.4368 73.7643 16.3696 71.874 17.5981C69.7545 18.9731 67.3977 19.8518 65.0245 20.6979C64.1325 21.0152 63.4861 21.78 63.7152 22.7807V22.7726Z" fill="black"/>
<path d="M78.7889 34.35C75.4992 33.4388 72.1277 32.7065 68.6989 32.853C66.4567 32.9425 66.3339 36.4165 68.5761 36.3189C71.7349 36.1887 74.7627 36.8314 77.7824 37.6694C79.9509 38.2715 80.9575 34.9439 78.7807 34.3418L78.7889 34.35Z" fill="black"/>
<path d="M73.1996 52.2979C70.1227 50.6219 67.7086 47.994 64.6317 46.3017C62.6677 45.2197 60.8428 48.1811 62.815 49.2632C65.8919 50.9555 68.306 53.5916 71.3829 55.2594C73.3469 56.3252 75.1799 53.3719 73.1996 52.2979Z" fill="black"/>
<path d="M61.2848 58.5301C59.108 57.985 58.1015 61.3044 60.2864 61.8577C62.0049 62.2889 63.3388 63.3384 64.6154 64.5182C65.311 65.1609 66.3666 65.2585 67.0867 64.5751C67.7414 63.9486 67.8396 62.7608 67.144 62.118C65.4337 60.5478 63.5925 59.1159 61.293 58.5382L61.2848 58.5301Z" fill="black"/>
</g>
<defs>
<clipPath id="clip0_1447_818">
<rect width="80" height="90" fill="white"/>
</clipPath>
</defs>
</svg>
