<svg width="171" height="163" viewBox="0 0 171 163" fill="none" xmlns="http://www.w3.org/2000/svg">
<g clip-path="url(#clip0_1742_2383)">
<path d="M119.544 124.42C119.452 127.44 119.565 129.722 119.283 131.965C118.711 136.565 116.004 139.657 111.542 140.639C105.114 142.057 99.1472 141.206 94.5944 135.743C93.1566 134.016 91.5765 132.402 89.9431 130.865C88.5985 129.606 87.4461 128.368 86.5177 126.684C85.3723 124.578 83.5682 122.606 81.6016 121.211C76.8871 117.847 72.0482 114.616 66.9988 111.791C62.3946 109.225 58.3559 106.056 54.8603 102.204C48.311 94.9713 46.0682 86.4657 47.7916 76.8935C48.7488 71.5798 51.4174 67.1012 55.2853 63.5382C59.2296 59.8921 63.4371 56.4325 67.9344 53.5232C80.1271 45.6642 98.3237 47.8123 108.816 58.228C115.117 64.4785 117.324 72.2764 117.736 80.7225C117.984 85.8988 117.194 91.0546 115.849 96.0927C114.82 99.9419 114.407 103.818 114.975 107.779C115.038 108.182 114.939 108.63 115.047 109.021C115.912 112.306 116.814 115.37 121.265 115.418C123.321 115.44 124.029 116.913 123.844 118.882C123.594 121.599 122.34 123.568 119.551 124.443L119.544 124.42ZM88.9944 117.273C88.6689 114.63 87.181 112.99 85.5835 111.493C81.811 107.941 77.9224 104.507 74.173 100.949C70.5753 97.5338 66.8686 94.1737 63.6004 90.4689C60.7362 87.2331 59.3686 83.123 61.0189 78.9154C62.1236 76.0966 64.0681 73.5267 65.9491 71.0857C67.5376 69.0231 69.9718 67.9003 72.5792 68.3375C76.006 68.9054 78.5472 67.7652 81.0169 65.5192C84.0545 62.7687 87.8305 62.4478 91.592 63.504C97.1202 65.0582 101.197 68.3647 102.678 74.1753C103.603 77.8145 103.935 81.5076 103.022 85.238C102.427 87.6551 101.779 90.062 101.354 92.5063C100.553 97.1331 101.16 101.591 103.481 105.733C103.925 106.524 104.339 107.609 106.054 106.897C105.618 101.352 107.023 95.9512 108.101 90.4924C108.775 87.0637 109.039 83.5016 109.046 79.9987C109.066 73.684 107.666 67.6282 104.285 62.2229C100.474 56.1208 95.0339 52.8721 87.5998 53.5802C83.6277 53.9557 79.8474 55.0201 76.3119 56.9195C71.5214 59.4898 67.2281 62.7753 63.3715 66.5578C61.3198 68.5638 59.1629 70.7723 57.9962 73.3237C53.9335 82.2604 55.5803 90.8576 61.1676 98.5189C64.2003 102.673 68.2543 105.986 72.9662 108.447C77.7339 110.931 82.2809 113.872 86.935 116.572C87.439 116.865 88.0745 116.96 89.0059 117.27L88.9944 117.273ZM83.491 71.2388C86.6685 74.573 88.296 78.054 89.0729 82.0067C90.0215 86.889 85.7216 90.597 81.9054 89.791C81.0995 89.6194 80.2713 89.3675 79.4556 89.3841C76.5993 89.4368 75.1237 87.7073 74.8211 85.2802C74.4331 82.2336 74.5833 79.1115 74.5426 76.0177C74.5255 74.8844 75.5496 73.6963 74.0814 72.2616C73.0442 73.0451 71.7271 73.6714 70.905 74.692C65.8125 81.0452 66.3945 86.1285 71.2773 90.6334C74.1708 93.3043 77.0245 96.0111 79.9462 98.6495C83.4832 101.847 87.1926 104.859 90.6219 108.161C92.8129 110.273 94.6506 112.767 96.7242 115.172C98.3827 114.611 100.211 114.795 100.914 112.496C93.5398 105.382 92.7798 96.7109 95.3814 87.3025C95.8201 85.7083 96.1359 84.074 96.4401 82.443C97.1566 78.6313 96.5096 74.8774 94.8449 71.5305C92.0318 65.8434 89.3831 65.8383 85.6948 68.9306C85.0807 69.4479 84.574 70.0838 83.4846 71.2158L83.491 71.2388ZM99.2805 130.431C100.158 133.985 101.763 136 104.205 137.361C105.957 138.346 107.651 138.357 109.359 136.991C112.695 134.331 113.389 131.02 112.352 126.892C107.82 127.176 104.002 129.265 99.2805 130.431ZM111.038 119.489C110.972 119.074 110.903 118.648 110.846 118.219C109.932 118.238 108.917 117.988 108.124 118.308C103.997 120.001 99.4036 120.512 95.6357 123.095C95.4273 123.239 95.5326 123.841 95.448 124.743C100.804 123.042 106.199 122.11 111.035 119.477L111.038 119.489ZM81.625 83.2011C81.8096 83.1498 81.9858 83.1131 82.1736 83.0732L81.6112 81.0525C81.4843 81.0878 81.3574 81.1231 81.2273 81.1469C81.3582 81.8404 81.4974 82.5191 81.6282 83.2126L81.625 83.2011Z" fill="black"/>
<path d="M21.4148 114.753L20.0728 109.931C24.2962 105.724 39.0299 98.7787 46.1074 97.6379C47.756 101.954 47.6189 102.846 44.1444 104.518C39.6482 106.672 35.0261 108.553 30.48 110.572C27.66 111.827 24.8854 113.156 21.4148 114.753Z" fill="black"/>
<path d="M122.929 23.4599C126.595 28.5508 126.805 30.8677 123.606 33.3536C117.976 37.7287 113.594 43.2409 108.663 48.5224C106.316 47.3693 106.122 45.1099 105.571 42.7273C110.435 35.7325 117.066 30.3492 122.94 23.4567L122.929 23.4599Z" fill="black"/>
<path d="M153.55 66.5491C155.05 67.9627 155.484 69.611 154.733 71.156C154.262 72.1408 153.1 73.1938 152.056 73.4598C144.874 75.2977 137.641 76.9518 130.213 78.7097C128.881 76.7795 127.926 75.0907 128.018 72.6527C132.095 70.5533 136.671 70.2942 141.021 69.269C145.199 68.292 149.246 66.5347 153.539 66.5523L153.55 66.5491Z" fill="black"/>
<path d="M68.7888 118.715C70.3732 120.612 70.8651 122.603 69.5892 124.851C69.0804 125.747 68.5339 126.641 67.883 127.429C63.4249 132.801 58.9425 138.131 54.4665 143.484C53.3691 142.354 52.2717 141.224 50.9625 139.869C51.6554 138.563 52.1561 137.236 52.961 136.109C57.1381 130.307 65.4143 121.237 68.7773 118.718L68.7888 118.715Z" fill="black"/>
<path d="M70.0252 42.6364C64.5107 43.4536 63.968 43.4686 62.2473 39.5186C59.949 34.2079 58.1308 28.7016 56.1543 23.2518C56.0417 22.9367 56.3265 22.4864 56.4268 22.0873C60.7523 21.1062 61.9014 21.5287 63.3619 24.7222C63.7866 25.6678 64.0531 26.67 64.4234 27.6432C66.2241 32.4615 68.0281 37.2913 70.0368 42.6332L70.0252 42.6364Z" fill="black"/>
<path d="M15.0167 54.9637C16.8835 53.4545 19.1723 53.2381 21.3077 54.3015C28.346 57.7983 35.3021 61.4912 42.706 65.3193C40.9836 66.4543 39.6528 67.3442 38.5188 68.0927C37.807 68.0805 37.3341 68.2122 37.0017 68.0449C30.1492 64.5458 23.3166 61.0289 16.5007 57.4826C15.6149 57.0239 14.626 56.5074 15.0019 54.9554L15.0167 54.9637Z" fill="black"/>
<path d="M93.5669 42.555C91.186 41.7702 89.4904 41.2153 87.6687 40.6089C86.8956 35.7768 87.6594 31.1973 88.0782 26.1819C89.7567 26.4075 91.1457 26.4416 92.4468 26.7846C94.0399 27.1948 94.7797 28.424 94.6466 30.0445C94.3324 33.9174 93.9804 37.7885 93.5522 42.5467L93.5669 42.555Z" fill="black"/>
<path d="M117.677 58.0013C121.273 54.4892 125.278 51.8654 130.285 50.6081C130.876 51.3467 131.511 51.8874 131.839 52.5755C132.916 54.8366 132.647 56.0126 130.624 57.231C127.475 59.1342 124.25 60.8978 121.118 62.6848C118.451 62.1654 118.035 60.2273 117.677 58.0013Z" fill="black"/>
<path d="M122.051 90.1978C127.007 88.3114 132.151 89.02 137.205 88.8259C137.643 89.508 138.161 89.9825 138.261 90.5235C138.5 91.6941 138.525 92.8996 138.648 94.3251C137.206 94.7263 136.083 95.1998 134.924 95.3243C132.657 95.5719 130.374 95.6753 128.098 95.7148C124.077 95.7822 123.604 95.3325 122.048 90.1864L122.051 90.1978Z" fill="black"/>
<path d="M40.1442 41.241C43.5798 39.2952 45.8772 39.6455 47.5984 41.9005C49.8452 44.838 51.8356 47.9706 54.0034 51.1157C52.0113 53.068 49.92 52.2521 47.5077 52.2925C45.2042 48.8388 42.831 45.2684 40.1442 41.241Z" fill="black"/>
<path d="M28.4869 82.2412C33.2968 81.1252 37.3599 80.6749 41.4369 81.3464C42.1855 86.3586 41.5531 87.3016 37.3152 87.615C35.4513 87.7502 33.5708 87.6921 31.7114 87.888C30.0082 88.0651 28.7114 87.2012 28.1658 85.9552C27.7474 85.0325 28.334 83.6569 28.4901 82.2526L28.4869 82.2412Z" fill="black"/>
<path d="M45.1605 123.844C42.7433 120.026 43.68 117.452 46.6057 115.326C48.4449 113.985 50.2533 112.579 52.1591 111.344C52.7674 110.939 53.6535 110.952 54.4852 110.77C55.9118 113.887 55.3175 116.217 52.8705 118.098C50.412 119.982 47.8998 121.807 45.1522 123.858L45.1605 123.844Z" fill="black"/>
</g>
<defs>
<clipPath id="clip0_1742_2383">
<rect width="141" height="129" fill="white" transform="translate(0 37.8032) rotate(-15.5518)"/>
</clipPath>
</defs>
</svg>
