<svg width="117" height="122" viewBox="0 0 117 122" fill="none" xmlns="http://www.w3.org/2000/svg">
<g clip-path="url(#clip0_4930_9617)">
<path d="M71.9861 32.2183C70.5904 31.369 66.3621 28.3561 65.4106 28.3199L65.4016 28.3637C58.1668 26.5348 48.4934 27.0115 43.068 32.2449C41.7223 32.4379 40.5001 33.4052 39.7263 34.6566C20.672 51.8938 26.874 78.2765 51.0018 87.0706C64.6415 98.4111 58.0308 93.6424 73.2386 87.4479C75.9507 86.6735 78.2146 84.5282 80.691 83.413C82.6764 83.0186 83.8342 81.4992 83.3638 78.9959C81.4424 65.1436 88.0867 49.1434 78.1465 37.2001C76.8115 35.2584 73.9621 33.7305 71.9835 32.2086L71.9861 32.2183ZM70.5624 79.5403C70.0657 79.7348 68.4738 80.4798 68.2046 80.6343C67.9901 80.412 67.7196 80.0184 67.4639 79.7968C67.7398 78.9678 66.0749 74.506 65.1166 73.0848C64.396 72.1281 62.9107 71.7581 62.5804 70.6353C62.0519 68.7684 59.8755 67.7856 58.3124 66.6188C60.7965 65.5326 62.632 63.605 64.4238 61.6683C65.2242 66.6916 66.3439 72.2921 69.2186 76.711C70.2704 77.1241 70.2869 78.6617 70.5598 79.5307L70.5624 79.5403ZM77.0707 50.6402L77.0611 50.6428C79.2024 59.883 76.5867 68.4762 76.7679 77.5453C76.5412 77.4712 76.3009 77.4628 76.0954 77.5072C75.5364 76.8075 75.4161 76.2393 74.4622 75.7277C70.2659 70.3881 68.2088 61.8913 71.6247 55.4858C72.2466 54.2852 72.3035 52.9454 71.7768 51.8232C66.8111 44.5671 62.3641 56.9289 58.7371 58.775C54.1994 63.689 46.5754 58.6522 44.2194 63.6368C41.4611 70.8399 59.6268 68.0175 62.8851 83.78L60.649 85.2141C52.1505 76.1569 35.4063 72.5464 36.9204 57.3336C37.2351 52.5721 38.4534 47.7457 40.7286 44.5936C45.0357 39.979 50.7485 34.0378 57.76 34.7567C66.737 35.0451 75.7121 41.3467 77.0565 50.6647L77.0707 50.6402Z" fill="black"/>
<path d="M80.7457 17.476C80.9597 16.8808 81.3057 16.0435 81.5416 15.4528C81.322 15.2112 80.989 14.855 80.7578 14.6475C80.7411 14.3518 80.2512 12.9404 80.1785 12.6286C78.0666 11.1112 74.7987 11.7026 73.3129 13.6611C71.6302 14.4924 69.7108 16.4941 69.6248 18.4626C69.3469 19.6336 67.6978 19.9696 68.3436 21.5775C67.482 23.5871 69.2816 24.3598 70.0775 25.7932C71.7409 27.9579 74.8306 26.3481 75.939 24.2935C76.6484 23.2662 77.5838 22.5823 78.0163 21.37C78.3077 19.8228 80.2841 19.1617 80.7289 17.4908L80.7457 17.476Z" fill="black"/>
<path d="M99.1538 36.9633C98.7467 36.6785 98.1245 36.4407 97.3554 36.7388C95.4514 35.9629 92.166 37.1488 91.0989 39.0475C90.1738 39.4596 88.9068 39.2487 88.4614 40.5679C87.0191 40.7866 86.9787 43.1983 85.8957 44.2217C84.1915 46.1764 85.5873 50.0164 88.6774 49.3793C90.8637 49.2728 91.731 47.9447 93.4408 46.982C96.884 45.6506 105.141 40.2838 99.1635 36.9607L99.1538 36.9633Z" fill="black"/>
<path d="M41.6147 26.5574C41.8924 26.6283 42.3104 26.6825 42.5752 26.7051C42.8437 26.975 43.8852 27.66 44.1853 27.9319C46.7207 28.1256 48.6332 24.8943 47.7846 22.7194C48.1792 20.7825 47.2856 18.2057 45.4667 17.1277C45.4302 16.175 45.375 15.1134 44.2452 14.6797C43.166 12.8043 39.0091 13.1668 37.7515 14.661C35.5357 17.4144 37.5488 20.231 39.1001 22.6739C39.3948 24.1684 40.6146 25.4061 41.6244 26.5548L41.6147 26.5574Z" fill="black"/>
<path d="M18.7165 41.0207C16.9279 40.0174 14.9587 39.7349 12.8844 40.3394C12.3278 40.8913 10.417 42.0317 10.4606 42.9722C10.3423 45.0528 11.5078 47.4847 13.4092 47.9405C14.6174 49.2123 17.3916 50.1082 19.093 49.3858C20.1552 49.3718 20.9479 50.5991 22.1192 49.635C22.5959 49.715 23.0197 49.6745 23.3953 49.4916C29.0346 44.5946 24.0996 41.6872 18.7191 41.0304L18.7165 41.0207Z" fill="black"/>
<path d="M25.3713 71.4327C25.3133 71.4482 25.265 71.461 25.207 71.4765C24.9301 71.2916 24.0127 71.5774 23.7203 71.645C21.5386 71.1086 19.204 72.1343 17.7422 73.4449C16.6709 73.3474 16.01 73.7408 15.6033 74.7392C14.0218 75.5228 14.6933 77.3827 14.6131 78.7908C14.7415 81.292 17.7314 82.3375 20.0396 81.3291C21.7783 80.9797 22.67 80.1315 24.1369 79.306C25.6295 78.8876 26.8896 78.1793 28.0563 77.2371C31.1687 74.8968 28.8981 70.9586 25.3616 71.4353L25.3713 71.4327Z" fill="black"/>
<path d="M86.7196 94.6187L86.6371 94.62C85.4525 94.7183 84.1184 95.1877 83.0779 95.8271C82.6463 96.1491 82.3229 96.4112 81.8024 96.4774C79.2019 96.7771 76.762 99.0003 74.5343 100.039C73.8579 100.374 72.7261 100.283 72.1076 100.758C71.8267 100.947 71.5491 101.186 71.2559 101.368C70.6884 101.685 69.8909 101.876 69.4386 102.432C68.0237 103.957 68.1107 106.925 69.6294 108.197C70.5852 109.143 72.1242 108.588 73.2147 108.68C74.3735 108.951 75.6039 108.675 76.6746 108.11C79.8402 106.863 82.5905 104.795 85.8225 103.603C86.8249 103.015 88.0121 102.771 88.8072 101.948C89.5044 100.759 90.1095 99.2625 90.5021 97.9781C90.733 96.2814 87.5569 94.8096 86.7144 94.5994L86.7196 94.6187Z" fill="black"/>
<path d="M88.2674 84.1161C86.4581 83.5012 84.3671 84.1205 82.857 85.1334L82.7249 85.2204C82.2694 85.5694 81.6471 85.9526 81.0216 86.1296C77.4966 87.0378 74.9195 89.4838 71.8536 91.2218C70.5568 92.0641 68.9901 92.2435 67.6643 92.9383C65.4424 94.0375 63.5985 95.7396 61.5859 97.197C59.7144 98.2131 58.512 100.303 60.0693 102.03C62.1488 104.281 66.0451 101.814 68.3205 100.877C71.796 99.123 75.0926 96.9303 78.7588 95.5809C80.6618 94.7219 82.9325 94.2721 84.842 93.3597C86.7933 92.3327 88.5399 90.7703 90.1834 89.4423C91.9294 87.8387 90.3267 84.7368 88.2797 84.1232L88.2674 84.1161Z" fill="black"/>
</g>
<defs>
<clipPath id="clip0_4930_9617">
<rect width="93.92" height="101.02" fill="white" transform="translate(0 24.1821) rotate(-14.9204)"/>
</clipPath>
</defs>
</svg>
