<svg width="85" height="75" viewBox="0 0 85 75" fill="none" xmlns="http://www.w3.org/2000/svg">
<g clip-path="url(#clip0_1447_836)">
<path d="M82.4817 68.8375C69.4696 66.5229 56.2223 65.954 43.0534 66.0601C30.9036 66.1661 18.1756 65.7322 5.98656 66.8798C5.69262 57.4385 5.41826 48.0454 5.58483 38.5559C5.8004 26.4818 6.76063 14.1184 5.57504 2.0733C5.31048 -0.655906 2.371 -0.713769 2.19463 2.0733C1.41077 14.1859 1.53815 26.4239 1.2736 38.5559C1.05803 48.1611 0.313365 58.2678 1.05803 67.9792C-0.294128 69.2425 -0.539085 71.6631 1.49896 72.2321C1.52835 72.4925 1.54795 72.7529 1.58714 73.0036C1.99867 75.9739 5.7906 75.4242 6.14334 72.7625C17.0978 73.6208 28.5422 72.425 39.4281 72.3092C53.1358 72.1549 67.1376 70.718 80.6494 73.1868C85.0292 73.9873 86.8909 69.6186 82.4915 68.8375H82.4817Z" fill="black"/>
<path d="M13.1983 55.7798C19.2928 50.929 26.2398 44.8823 32.5205 40.1954C35.068 44.1398 37.1844 48.3445 39.732 52.3081C41.0842 54.4201 44.396 54.6129 45.7089 52.3081C50.7844 43.4068 57.7608 35.4796 63.9827 27.3499C66.981 23.4345 69.9303 19.4805 72.6934 15.4012C72.6934 21.7179 73.2813 28.1696 75.9268 33.3869C77.5631 36.6176 82.1193 34.2355 81.5118 31.0724C79.7775 22.1229 79.4836 13.376 79.2484 4.27219C79.2092 2.63274 77.8571 1.15723 76.1228 1.19581C72.6738 1.2826 69.5873 4.15646 66.7164 5.84413C62.0818 8.56369 57.3493 11.0711 52.8715 14.0414C50.8334 15.3915 52.068 19.0562 54.6352 18.1496C58.4467 16.8188 62.0133 15.1215 65.5896 13.2892C63.1205 16.8767 60.4651 20.3484 57.8294 23.8202C52.7833 30.4455 47.2865 36.9744 42.7205 43.9855C40.702 40.533 38.7424 37.0515 36.2928 33.8691C35.2444 32.5093 33.3239 31.5739 31.6778 32.6732C23.1729 38.3727 17.7251 46.6182 10.445 53.5521C9.16139 54.7672 10.7193 57.7665 13.2081 55.7895L13.1983 55.7798Z" fill="black"/>
</g>
<defs>
<clipPath id="clip0_1447_836">
<rect width="85" height="75" fill="white"/>
</clipPath>
</defs>
</svg>
