<svg width="40" height="41" viewBox="0 0 40 41" fill="none" xmlns="http://www.w3.org/2000/svg">
<g clip-path="url(#clip0_4515_239)">
<path d="M40 3.04376C39.852 3.13976 39.712 3.23176 39.852 3.44776C39.88 3.49176 39.824 3.62776 39.768 3.67576C39.648 3.77976 39.488 3.83576 39.372 3.93976C39.256 4.04776 39.18 4.19576 39.072 4.31576C38.996 4.39976 38.888 4.45576 38.812 4.53976C38.484 4.89976 38.272 5.36376 37.82 5.61176C37.8 5.62376 37.784 5.65176 37.776 5.67576C37.496 6.54776 36.752 7.04376 36.156 7.65176C35.644 8.17176 35.168 8.71176 34.792 9.33976C34.644 9.59176 34.416 9.79576 34.224 10.0198C33.692 10.6518 33.164 11.2838 32.632 11.9158C32.384 12.2118 32.12 12.4958 31.884 12.7958C31.612 13.1398 31.356 13.4918 31.104 13.8478C31.032 13.9478 31.02 14.0878 30.952 14.1878C30.852 14.3398 30.716 14.4678 30.608 14.6158C30.344 14.9838 30.092 15.3638 29.836 15.7358C29.768 15.8358 29.692 15.9358 29.62 16.0318C29.32 16.4398 29.016 16.8438 28.72 17.2558C28.604 17.4158 28.492 17.5758 28.384 17.7398C28.14 18.1198 27.896 18.5078 27.652 18.8878C27.248 19.5198 26.848 20.1518 26.444 20.7838C26.04 21.4118 25.62 22.0278 25.228 22.6638C24.944 23.1238 24.7 23.6038 24.424 24.0678C24.056 24.6918 23.656 25.2958 23.304 25.9278C22.856 26.7238 22.44 27.5318 22.008 28.3358C21.824 28.6798 21.616 29.0118 21.444 29.3638C21.284 29.6878 21.156 30.0318 21.012 30.3638C20.94 30.5278 20.856 30.6878 20.78 30.8518C20.404 31.6798 20.024 32.5078 19.656 33.3438C19.428 33.8638 19.2 34.3838 19.008 34.9158C18.792 35.5118 18.6 36.1198 18.424 36.7278C18.324 37.0798 18.26 37.4438 18.2 37.8078C18.176 37.9678 18.216 38.1398 18.2 38.3038C18.184 38.4878 18.164 38.6798 18.1 38.8518C17.964 39.2118 17.824 39.5718 17.644 39.9118C17.448 40.2798 17.208 40.5838 16.708 40.6158C16.436 40.6318 16.172 40.7078 15.896 40.6238C15.632 40.5438 15.36 40.4838 15.092 40.4038C15.008 40.3798 14.944 40.3078 14.86 40.2758C14.728 40.2238 14.596 40.1798 14.46 40.1398C14.016 40.0118 13.512 40.0638 13.144 39.7038C13.1 39.6598 13.044 39.5958 12.992 39.5958C12.596 39.5958 12.364 39.2518 12.036 39.1318C11.364 38.8878 11.152 38.2758 10.832 37.7438C10.592 37.3478 10.32 36.9718 10.068 36.5838C9.52 35.7518 8.976 34.9198 8.42 34.0958C8.084 33.5998 7.72 33.1238 7.388 32.6238C7.112 32.2038 6.852 31.7758 6.616 31.3318C6.188 30.5318 5.724 29.7598 5.212 29.0158C5.064 28.7998 4.984 28.5358 4.864 28.2958C4.788 28.1438 4.708 27.9958 4.624 27.8478C4.308 27.2758 3.988 26.7078 3.676 26.1358C3.304 25.4598 2.936 24.7838 2.568 24.1078C2.288 23.5958 2.028 23.0718 1.732 22.5718C1.34 21.9078 0.924002 21.2598 0.520002 20.6038C0.512002 20.5878 0.492002 20.5758 0.488002 20.5638C0.328002 20.2438 0.136002 19.9318 0.0200019 19.5958C-0.0639981 19.3478 0.0600019 19.2478 0.316002 19.2758C0.408002 19.2838 0.500002 19.2758 0.596002 19.2758C0.600002 19.2078 0.608002 19.1838 0.604002 19.1598C0.536002 18.7238 0.548002 18.7038 0.952002 18.5918C1.212 18.5198 1.468 18.4118 1.732 18.3998C1.952 18.3918 2.176 18.4878 2.396 18.5558C2.548 18.6038 2.688 18.6918 2.84 18.7358C3.256 18.8478 3.664 18.9638 4.028 19.2118C4.116 19.2718 4.264 19.2318 4.38 19.2558C4.552 19.2878 4.724 19.3278 4.888 19.3798C5.096 19.4478 5.3 19.5878 5.508 19.5958C5.872 19.6078 6.116 19.8358 6.4 19.9878C6.468 20.0238 6.524 20.1278 6.544 20.2078C6.656 20.7318 7.004 21.1198 7.272 21.5598C7.508 21.9438 7.72 22.3478 7.948 22.7398C8.068 22.9438 8.212 23.1318 8.332 23.3398C8.736 24.0518 9.132 24.7638 9.528 25.4758C9.9 26.1518 10.256 26.8318 10.624 27.5038C10.992 28.1798 11.356 28.8638 11.748 29.5238C12.14 30.1838 12.572 30.8238 12.988 31.4678C12.996 31.4798 13.02 31.4798 13.084 31.5038C13.192 31.3038 13.304 31.0958 13.412 30.8878C13.696 30.3198 13.984 29.7518 14.256 29.1758C14.572 28.4998 14.832 27.7998 15.176 27.1438C15.724 26.1038 16.32 25.0918 16.9 24.0678C17.452 23.0918 18.004 22.1158 18.564 21.1478C18.716 20.8838 18.912 20.6478 19.076 20.3878C19.284 20.0558 19.456 19.7038 19.672 19.3798C20.188 18.6078 20.724 17.8478 21.24 17.0758C21.484 16.7118 21.696 16.3238 21.932 15.9518C22.252 15.4558 22.564 14.9478 22.912 14.4758C23.488 13.6958 24.088 12.9358 24.692 12.1758C25.412 11.2678 26.144 10.3758 26.868 9.47176C27.296 8.93976 27.684 8.37576 28.136 7.86376C28.676 7.25576 29.256 6.67976 29.836 6.10776C30.228 5.71976 30.64 5.34776 31.056 4.97976C31.168 4.88376 31.316 4.81176 31.46 4.77576C31.784 4.69576 32 4.50376 32.156 4.22376C32.264 4.01976 32.372 3.83576 32.672 3.91176C32.728 3.92776 32.828 3.74776 32.916 3.66776C32.992 3.59576 33.076 3.52776 33.16 3.46776C33.216 3.42776 33.316 3.41176 33.34 3.35976C33.448 3.11176 33.608 3.01176 33.892 3.00376C34.08 2.99976 34.264 2.85176 34.452 2.77176C34.516 2.74376 34.584 2.72376 34.652 2.71176C34.924 2.65976 35.208 2.63976 35.468 2.55576C35.848 2.43176 36.208 2.19976 36.596 2.13976C36.872 2.09576 37.148 1.99976 37.408 1.99976C37.552 1.99976 37.744 2.03576 37.912 2.05976C37.968 2.06776 38.032 2.17976 38.048 2.25576C38.068 2.33976 38.044 2.43176 38.036 2.57576C38.176 2.57576 38.304 2.58776 38.428 2.57576C38.596 2.55976 38.76 2.51976 38.928 2.49976C39.384 2.44376 39.736 2.61176 39.98 2.99976V3.05576L40 3.04376Z" fill="black"/>
</g>
<defs>
<clipPath id="clip0_4515_239">
<rect width="40" height="40" fill="white" transform="translate(0 0.667725)"/>
</clipPath>
</defs>
</svg>
