<svg width="252" height="147" viewBox="0 0 252 147" fill="none" xmlns="http://www.w3.org/2000/svg">
<path d="M251.842 66.1081C251.015 44.5735 234.203 24.923 213.752 14.5482C203.481 9.49816 193.63 6.94699 184.002 4.26498C183.687 4.01641 181.31 3.70242 178.749 3.54542C175.951 3.40151 165.706 1.05966 153.661 0.43168C138.885 -0.340214 121.39 0.0784407 111.683 0.536344C98.076 1.17741 93.5183 1.55681 90.4842 2.27638C87.2662 3.13985 82.2882 3.54542 79.8057 4.14724C76.9161 5.07613 64.2807 7.07782 62.2974 8.47769C61.5618 8.88326 60.1827 9.24959 59.2239 9.30192C57.5689 9.38042 56.0584 9.83832 47.3108 12.9521C45.2487 13.6847 43.2128 15.4117 42.7925 15.4247C42.3722 15.4378 41.8994 15.6864 41.7549 15.9481C41.6104 16.2097 41.2032 16.4452 40.8617 16.4714C37.4993 17.2694 30.4591 21.3775 27.228 23.7717C24.3778 25.7603 20.3324 28.7824 18.6249 30.1823C13.2397 34.3034 4.43955 46.1566 3.03415 50.7879C-0.288899 59.0825 -2.94208 69.9021 6.81691 82.4618C8.94471 85.2092 15.0654 90.2199 18.047 91.646C22.5915 93.8308 24.8375 94.9952 25.5205 95.5055C26.7027 96.382 34.3601 99.8228 35.7261 100.098C36.8951 100.333 38.2742 101.21 39.2199 101.982C34.4652 110.799 19.1371 142.918 19.2028 144.109C19.3998 145.365 21.7903 146.856 21.7903 146.856C22.3288 148.19 40.0474 141.113 43.5018 140.092C47.5998 138.522 62.2054 132.556 70.6378 129.129C71.9644 128.409 78.4398 126.054 91.4561 121.554C96.4867 119.814 100.112 119.46 103.789 120.35C105.024 120.69 116.924 122.914 129.152 124.301C139.463 125.478 149.984 125.335 154.528 125.178C171.564 124.563 190.596 121.397 195.114 120.899C195.337 121.017 195.626 120.913 195.758 120.677C195.889 120.428 196.69 120.206 197.544 120.167C198.372 120.128 209.116 116.988 216.655 113.769C224.457 110.446 232.364 104.899 234.715 102.596C245.039 92.2478 253.261 81.5198 251.856 66.1473L251.842 66.1081ZM222.868 24.0856C223.13 23.6016 224.483 24.0072 224.509 24.5697C224.509 25.3154 222.342 25.1192 222.868 24.0856ZM220.372 21.9793C221.029 22.254 221.58 22.6334 221.594 22.8559C221.764 24.3473 217.062 20.6841 220.372 21.9793ZM217.207 20.6448C217.482 20.6448 217.719 20.828 217.732 21.0897C217.85 22.3195 216.366 20.7364 217.207 20.6448ZM90.5104 6.18818C109.648 1.75306 139.305 2.7212 159.69 4.09491C166.021 4.67056 174.099 4.09491 180.338 5.90035C182.912 6.52833 184.804 6.30592 187.339 7.43106C188.455 7.90204 189.716 8.28145 190.123 8.26837C190.53 8.25528 191.187 8.42536 191.568 8.64777C192.474 9.15801 192.106 9.58974 191.134 9.14492C184.501 7.57497 175.728 6.34517 167.098 5.83494C152.374 4.82755 141.276 4.21265 122.086 4.16032C116.517 4.12107 117.922 3.83325 111.71 4.81447C104.236 5.92652 93.6627 6.3975 86.9116 7.79738C83.6411 8.1637 86.9772 6.5545 90.5104 6.18818ZM82.078 7.74505C82.3013 7.32639 84.7969 7.66655 83.8118 8.3207C83.1157 8.79168 78.8863 9.19726 77.4153 9.34117C78.5186 9.02718 81.5527 8.18987 82.0649 7.74505H82.078ZM71.3865 10.5971C71.1632 10.3355 75.8128 9.01409 74.8409 9.87757C73.777 10.6102 70.8217 11.2251 71.3865 10.5971ZM66.9076 11.3559C68.1554 11.3298 68.5231 11.4214 67.827 11.5784C67.1834 11.7223 65.2789 12.311 63.5714 12.8997C60.1302 14.0772 59.8937 14.1295 59.8806 13.6324C59.8543 12.9913 64.7798 11.3952 66.8945 11.369L66.9076 11.3559ZM59.2633 13.253C59.6442 13.6847 58.265 13.3838 58.7248 14.0249C59.1713 14.7183 58.554 14.5351 58.2782 14.0903C57.9367 13.5931 58.8298 12.8474 59.2633 13.253ZM56.8596 14.5874C56.7152 14.8491 56.3737 15.0715 56.1241 15.0846C55.0602 14.8753 57.28 13.3576 56.8596 14.5874ZM47.0613 17.4133C47.1532 16.89 50.4368 16.5891 48.4798 17.3479C47.2057 17.9628 46.746 17.989 47.0613 17.4133ZM78.9257 117.55C71.2026 119.486 68.6676 121.227 62.4944 123.097C61.8639 123.752 55.7957 125.779 55.1259 125.557C54.7844 125.165 50.8834 127.062 50.6339 126.512C50.6339 126.263 50.9491 126.041 51.3694 126.028C51.7897 126.002 52.6697 125.662 53.3396 125.282C54.0094 124.89 56.7546 123.712 59.434 122.679C67.8533 119.421 70.3226 118.44 71.045 118.034C73.3435 117.066 75.5239 116.713 78.8863 115.444C82.078 114.332 82.8661 114.188 83.2207 114.698C84.1008 115.954 83.6148 116.281 78.9257 117.55ZM240.928 81.1796C240.166 82.0693 239.548 82.972 239.562 83.1813C239.562 83.4037 236.922 86.3474 233.664 89.7359C231.182 92.3263 225.061 97.7034 218.914 101.079C210.968 105.449 188.836 110.721 188.586 110.485C188.468 110.381 186.853 110.656 185.001 111.113C182.124 112.042 177.448 111.872 175.215 112.723C174.782 112.971 172.667 113.259 170.5 113.351C160.728 113.913 160.452 113.534 148.158 113.717C142.142 113.848 133.382 113.926 123.373 112.539C107.585 110.355 90.4448 106.194 89.394 105.54C87.9098 104.729 82.853 110.891 82.6428 110.917C77.5466 111.689 76.7323 113.115 72.5423 114.188C68.51 115.117 66.9864 116.399 62.7702 117.93C56.3474 120.298 49.675 123.529 43.3704 125.936C41.7812 126.486 39.5089 127.297 38.2874 127.768C36.8294 128.317 36.0676 128.422 36.0545 128.082C36.0151 127.323 46.155 108.876 46.9036 107.241C48.3484 103.944 48.8344 103.852 49.9903 101.066C50.6207 99.4827 50.6076 99.2341 49.8983 98.3052C49.4649 97.7426 49.0052 96.5259 48.887 95.584C48.7556 94.6027 47.3633 92.7188 45.4982 91.4236C43.6594 90.1414 41.3477 89.4481 39.3644 88.5584C35.7655 86.8838 33.2962 86.1642 31.1553 85.0914C31.0239 84.9475 29.0669 83.9794 26.7946 82.9458C12.7275 76.5483 9.5095 67.7042 11.4009 60.574C13.2923 53.4438 20.3061 48.0274 26.7158 41.7738C28.1081 40.5571 31.1159 38.6993 32.7183 37.2994C33.6246 36.5275 34.6622 35.8865 35.0168 35.8603C35.3715 35.8472 35.8443 35.3501 36.0807 34.7744C36.304 34.1988 37.1052 33.5315 37.8408 33.3091C40.205 32.3541 40.9799 30.9019 43.8696 29.6067C48.4798 26.7153 54.0357 25.2893 59.1451 23.4708C63.9392 21.8485 64.6353 21.3775 70.2701 20.2916C70.2701 20.2916 99.8623 11.4475 140.002 12.5465C151.048 12.8474 170.487 13.7501 180.101 15.2677C196.979 17.8843 204.4 20.9457 217.351 27.618C228.883 33.8848 244.96 52.6719 245.984 63.9101C247.219 68.8032 243.646 78.0397 240.941 81.1535L240.928 81.1796Z" fill="black"/>
</svg>
