<svg width="210" height="84" viewBox="0 0 210 84" fill="none" xmlns="http://www.w3.org/2000/svg">
<path d="M104.3 50.4261C103 50.1261 101.6 49.9261 100.3 49.9261C96.5001 49.9261 94.2001 52.0261 94.2001 55.0261C94.2001 57.7261 96.1001 59.1261 98.4001 59.8261C98.7001 59.9261 99.0001 60.0261 99.3001 60.1261C100.3 60.4261 101.1 60.9261 101.1 61.7261C101.1 62.6261 100.2 63.2261 98.1001 63.2261C96.8001 63.2261 95.5001 63.0261 94.2001 62.6261V66.4261C95.7001 66.7261 97.2001 66.8261 98.7001 66.8261C101.9 66.8261 105.5 65.4261 105.5 61.3261C105.5 59.3261 104.3 57.5261 101.6 56.6261L100.5 56.2261C99.8001 56.0261 98.6001 55.6261 98.6001 54.6261C98.6001 53.8261 99.5001 53.3261 101.2 53.3261C102.3 53.3261 103.4 53.5261 104.4 53.8261L104.3 50.4261ZM139.2 58.3261C139.2 60.7261 137.3 62.6261 134.9 62.5261C132.5 62.5261 130.6 60.6261 130.7 58.2261C130.7 55.9261 132.6 54.0261 135 54.0261C137.3 54.0261 139.2 55.9261 139.3 58.2261C139.2 58.2261 139.2 58.3261 139.2 58.3261ZM135 49.8261C130.3 49.9261 126.6 53.8261 126.7 58.4261C126.8 63.1261 130.7 66.8261 135.3 66.7261C139.9 66.6261 143.6 62.8261 143.6 58.2261C143.6 53.6261 139.9 49.8261 135.3 49.7261C135.2 49.8261 135.1 49.8261 135 49.8261ZM88.7001 66.5261H84.6001V50.1261H88.7001" fill="black"/>
<path d="M78.8999 50.4261C77.6999 50.0261 76.3999 49.8261 75.0999 49.8261C70.4999 49.6261 66.5999 53.2261 66.3999 57.8261C66.3999 58.0261 66.3999 58.1261 66.3999 58.3261C66.3999 63.6261 70.4999 66.8261 75.0999 66.8261C76.3999 66.8261 77.5999 66.6261 78.8999 66.2261V61.8261C77.7999 62.4261 76.5999 62.7261 75.3999 62.7261C72.9999 62.8261 70.9999 60.9261 70.8999 58.5261C70.7999 56.1261 72.6999 54.1261 75.0999 54.0261C75.1999 54.0261 75.2999 54.0261 75.3999 54.0261C76.5999 54.0261 77.7999 54.3261 78.8999 54.9261" fill="black"/>
<path d="M122 50.4261C120.8 50.0261 119.5 49.8261 118.2 49.8261C113.6 49.6261 109.7 53.2261 109.5 57.8261C109.5 58.0261 109.5 58.1261 109.5 58.3261C109.5 63.6261 113.6 66.8261 118.2 66.8261C119.5 66.8261 120.7 66.6261 122 66.2261V61.8261C120.9 62.4261 119.7 62.7261 118.5 62.7261C116.1 62.8261 114.1 60.9261 114 58.5261C113.9 56.1261 115.8 54.1261 118.2 54.0261C118.3 54.0261 118.4 54.0261 118.5 54.0261C119.7 54.0261 120.9 54.3261 122 54.9261" fill="black"/>
<path d="M84.4999 19.2002C84.4999 18.1002 83.5999 17.2002 82.4999 17.2002C81.3999 17.2002 80.3999 18.1002 80.3999 19.2002V41.0002C80.3999 42.1002 81.2999 43.0002 82.4999 43.0002C83.5999 43.0002 84.4999 42.1002 84.4999 41.0002V19.2002ZM73.2999 26.9002C73.2999 25.8002 72.3999 24.8002 71.2999 24.8002C70.1999 24.8002 69.1999 25.7002 69.1999 26.9002V36.8002C69.1999 37.9002 70.0999 38.9002 71.2999 38.9002C72.3999 38.9002 73.2999 38.0002 73.2999 36.8002V26.9002ZM61.9999 32.6002C61.9999 31.5002 61.0999 30.6002 59.8999 30.6002C58.7999 30.6002 57.8999 31.5002 57.8999 32.6002V36.9002C57.8999 38.0002 58.7999 38.9002 59.9999 38.9002C61.0999 38.9002 61.9999 38.0002 61.9999 36.9002" fill="black"/>
<path d="M80.3999 19.2001C80.3999 18.1001 81.2999 17.1001 82.4999 17.1001C83.6999 17.1001 84.5999 18.0001 84.5999 19.2001V41.0001C84.5999 42.1001 83.6999 43.0001 82.4999 43.0001C81.2999 43.0001 80.3999 42.1001 80.3999 41.0001V19.2001ZM91.6999 26.9001C91.6999 25.8001 92.5999 24.9001 93.7999 24.9001C94.9999 24.9001 95.8999 25.8001 95.8999 26.9001V36.8001C95.8999 37.9001 94.9999 38.8001 93.7999 38.8001C92.5999 38.8001 91.6999 37.9001 91.6999 36.8001V26.9001ZM103 32.6001C103 31.5001 103.9 30.6001 105.1 30.6001C106.2 30.6001 107.1 31.5001 107.1 32.6001V36.9001C107.1 38.0001 106.2 38.9001 105 38.9001C103.9 38.9001 103 38.0001 103 36.9001" fill="black"/>
<path d="M125.458 19.2171C125.458 18.1171 126.358 17.1171 127.458 17.1171C128.558 17.1171 129.558 18.0171 129.558 19.2171V40.9171C129.558 42.0171 128.658 43.0171 127.458 43.0171C126.358 43.0171 125.458 42.1171 125.458 40.9171V19.2171ZM136.758 26.9171C136.758 25.8171 137.658 24.9171 138.758 24.9171C139.858 24.9171 140.758 25.8171 140.758 26.9171V36.8171C140.758 37.9171 139.858 38.9171 138.758 38.9171C137.658 38.9171 136.758 38.0171 136.758 36.8171V26.9171ZM147.958 32.6171C147.958 31.5171 148.858 30.6171 150.058 30.6171C151.158 30.6171 152.058 31.5171 152.058 32.6171V36.9171C152.058 38.0171 151.158 38.9171 149.958 38.9171C148.858 38.9171 147.958 38.0171 147.958 36.9171" fill="black"/>
<path d="M129.558 19.2171C129.558 18.1171 128.658 17.2171 127.558 17.2171C126.458 17.2171 125.458 18.1171 125.458 19.2171V40.9171C125.458 42.0171 126.358 43.0171 127.558 43.0171C128.758 43.0171 129.558 42.1171 129.558 40.9171V19.2171ZM118.258 26.9171C118.258 25.8171 117.358 24.8171 116.258 24.8171C115.158 24.9171 114.158 25.8171 114.158 26.9171V36.8171C114.158 37.9171 115.058 38.8171 116.258 38.8171C117.358 38.8171 118.258 37.9171 118.258 36.8171V26.9171ZM107.058 32.6171C107.058 31.5171 106.158 30.6171 104.958 30.6171C103.858 30.6171 102.958 31.5171 102.958 32.6171V36.9171C102.958 38.0171 103.858 38.9171 105.058 38.9171C106.158 38.9171 107.058 38.0171 107.058 36.9171" fill="black"/>
</svg>
