<svg width="95" height="50" viewBox="0 0 95 50" fill="none" xmlns="http://www.w3.org/2000/svg">
<path d="M46.4 33.326C45.1 33.026 43.7 32.826 42.4 32.826C38.6 32.826 36.3 34.926 36.3 37.926C36.3 40.626 38.2 42.026 40.5 42.726C40.8 42.826 41.1 42.926 41.4 43.026C42.4 43.326 43.2 43.826 43.2 44.626C43.2 45.526 42.3 46.126 40.2 46.126C38.9 46.126 37.6 45.926 36.3 45.526V49.326C37.8 49.626 39.3 49.726 40.8 49.726C44 49.726 47.6 48.326 47.6 44.226C47.6 42.226 46.4 40.426 43.7 39.526L42.6 39.126C41.9 38.926 40.7 38.526 40.7 37.526C40.7 36.726 41.6 36.226 43.3 36.226C44.4 36.226 45.5 36.426 46.5 36.726L46.4 33.326ZM81.3 41.226C81.3 43.626 79.4 45.526 77 45.426C74.6 45.426 72.7 43.526 72.8 41.126C72.8 38.826 74.7 36.926 77.1 36.926C79.4 36.926 81.3 38.826 81.4 41.126C81.3 41.126 81.3 41.226 81.3 41.226ZM77.1 32.726C72.4 32.826 68.7 36.726 68.8 41.326C68.9 46.026 72.8 49.726 77.4 49.626C82 49.526 85.7 45.726 85.7 41.126C85.7 36.526 82 32.726 77.4 32.626C77.3 32.726 77.2 32.726 77.1 32.726ZM30.8 49.426H26.7V33.026H30.8" fill="black"/>
<path d="M21 33.3262C19.8 32.9262 18.5 32.7262 17.2 32.7262C12.6 32.5262 8.7 36.1262 8.5 40.7262C8.5 40.9262 8.5 41.0262 8.5 41.2262C8.5 46.5262 12.6 49.7262 17.2 49.7262C18.5 49.7262 19.7 49.5262 21 49.1262V44.7262C19.9 45.3262 18.7 45.6262 17.5 45.6262C15.1 45.7262 13.1 43.8262 13 41.4262C12.9 39.0262 14.8 37.0262 17.2 36.9262C17.3 36.9262 17.4 36.9262 17.5 36.9262C18.7 36.9262 19.9 37.2262 21 37.8262" fill="black"/>
<path d="M64.1 33.3262C62.9 32.9262 61.6 32.7262 60.3 32.7262C55.7 32.5262 51.8 36.1262 51.6 40.7262C51.6 40.9262 51.6 41.0262 51.6 41.2262C51.6 46.5262 55.7 49.7262 60.3 49.7262C61.6 49.7262 62.8 49.5262 64.1 49.1262V44.7262C63 45.3262 61.8 45.6262 60.6 45.6262C58.2 45.7262 56.2 43.8262 56.1 41.4262C56 39.0262 57.9 37.0262 60.3 36.9262C60.4 36.9262 60.5 36.9262 60.6 36.9262C61.8 36.9262 63 37.2262 64.1 37.8262" fill="black"/>
<path d="M26.6 2.1001C26.6 1.0001 25.7 0.100098 24.6 0.100098C23.5 0.100098 22.5 1.0001 22.5 2.1001V23.9001C22.5 25.0001 23.4 25.9001 24.6 25.9001C25.7 25.9001 26.6 25.0001 26.6 23.9001V2.1001ZM15.4 9.8001C15.4 8.7001 14.5 7.7001 13.4 7.7001C12.3 7.7001 11.3 8.6001 11.3 9.8001V19.7001C11.3 20.8001 12.2 21.8001 13.4 21.8001C14.5 21.8001 15.4 20.9001 15.4 19.7001V9.8001ZM4.1 15.5001C4.1 14.4001 3.2 13.5001 2 13.5001C0.9 13.5001 0 14.4001 0 15.5001V19.8001C0 20.9001 0.899998 21.8001 2.1 21.8001C3.2 21.8001 4.1 20.9001 4.1 19.8001" fill="black"/>
<path d="M22.5 2.1C22.5 1 23.4 0 24.6 0C25.8 0 26.7 0.9 26.7 2.1V23.9C26.7 25 25.8 25.9 24.6 25.9C23.4 25.9 22.5 25 22.5 23.9V2.1ZM33.8 9.8C33.8 8.7 34.7 7.8 35.9 7.8C37.1 7.8 38 8.7 38 9.8V19.7C38 20.8 37.1 21.7 35.9 21.7C34.7 21.7 33.8 20.8 33.8 19.7V9.8ZM45.1 15.5C45.1 14.4 46 13.5 47.2 13.5C48.3 13.5 49.2 14.4 49.2 15.5V19.8C49.2 20.9 48.3 21.8 47.1 21.8C46 21.8 45.1 20.9 45.1 19.8" fill="black"/>
<path d="M67.558 2.11699C67.558 1.01699 68.458 0.0169907 69.558 0.0169907C70.658 0.0169907 71.658 0.91699 71.658 2.11699V23.817C71.658 24.917 70.758 25.917 69.558 25.917C68.458 25.917 67.558 25.017 67.558 23.817V2.11699ZM78.858 9.81699C78.858 8.71699 79.758 7.81699 80.858 7.81699C81.958 7.81699 82.858 8.71699 82.858 9.81699V19.717C82.858 20.817 81.958 21.817 80.858 21.817C79.758 21.817 78.858 20.917 78.858 19.717V9.81699ZM90.058 15.517C90.058 14.417 90.958 13.517 92.158 13.517C93.258 13.517 94.158 14.417 94.158 15.517V19.817C94.158 20.917 93.258 21.817 92.058 21.817C90.958 21.817 90.058 20.917 90.058 19.817" fill="black"/>
<path d="M71.658 2.11699C71.658 1.01699 70.758 0.116991 69.658 0.116991C68.558 0.116991 67.558 1.01699 67.558 2.11699V23.817C67.558 24.917 68.458 25.917 69.658 25.917C70.858 25.917 71.658 25.017 71.658 23.817V2.11699ZM60.358 9.81699C60.358 8.71699 59.458 7.71699 58.358 7.71699C57.258 7.81699 56.258 8.71699 56.258 9.81699V19.717C56.258 20.817 57.158 21.717 58.358 21.717C59.458 21.717 60.358 20.817 60.358 19.717V9.81699ZM49.158 15.517C49.158 14.417 48.258 13.517 47.058 13.517C45.958 13.517 45.058 14.417 45.058 15.517V19.817C45.058 20.917 45.958 21.817 47.158 21.817C48.258 21.817 49.158 20.917 49.158 19.817" fill="black"/>
</svg>
