<svg width="86" height="30" viewBox="0 0 86 30" fill="none" xmlns="http://www.w3.org/2000/svg">
<path d="M0 18.415C0 11.8499 4.42948 7.18311 10.6782 7.18311C14.9495 7.18311 18.4298 9.31875 19.7745 12.6409C19.9327 12.9573 20.0118 13.2736 20.0118 13.59C20.0118 14.3019 19.4581 14.8556 18.7462 14.8556H18.6671C18.0343 14.8556 17.5597 14.4601 17.3224 13.9064C16.2151 11.2171 13.763 9.71424 10.6782 9.71424C6.01144 9.71424 2.68933 13.3527 2.68933 18.4941C2.68933 23.6355 5.93234 27.1949 10.6782 27.1949C13.6839 27.3531 16.4524 25.4547 17.4015 22.5281C17.5597 21.9744 18.1134 21.5789 18.6671 21.5789C19.379 21.5789 20.0118 22.1326 20.0118 22.8445C20.0118 22.8445 20.0118 22.8445 20.0118 22.9236V23.0027C20.0118 23.3191 19.9327 23.5564 19.8536 23.8728C18.5089 27.4322 15.1077 29.726 10.6782 29.726C4.35038 29.5678 0 24.9801 0 18.415Z" fill="black"/>
<path d="M35.831 27.7487C35.9101 28.4606 35.4355 29.0934 34.7236 29.2516C34.7236 29.2516 34.7236 29.2516 34.6445 29.2516H34.4073C33.5372 29.2516 33.0626 28.6979 33.0626 27.7487V1.88372C32.9835 1.09274 33.5372 0.459957 34.2491 0.380859C34.3282 0.380859 34.4073 0.380859 34.4073 0.380859C35.2773 0.380859 35.7519 0.934545 35.7519 1.96282V7.89516H40.4187C41.0515 7.81606 41.6843 8.29065 41.7634 8.92343C41.8425 9.55622 41.3679 10.1099 40.7351 10.2681H35.831V27.7487Z" fill="black"/>
<path d="M56.7129 9.23996C56.7129 9.95184 56.2384 10.5055 55.5265 10.5055H55.4474C55.131 10.5055 54.7355 10.4264 54.4982 10.1891C53.8654 9.87275 53.0745 9.71455 52.2835 9.71455C49.4359 9.71455 47.5376 12.2457 47.5376 15.4096V27.7489C47.5376 28.698 47.063 29.2517 46.1929 29.2517C45.481 29.3308 44.8483 28.7771 44.7692 27.9862C44.7692 27.9071 44.7692 27.828 44.7692 27.7489V9.08177C44.7692 8.13259 45.3229 7.49981 46.1138 7.49981C46.9048 7.49981 47.4585 8.05349 47.4585 9.08177V9.63545C48.645 8.0535 50.5433 7.18342 52.5208 7.26252C53.7072 7.18342 54.9728 7.49981 56.0011 8.0535C56.4757 8.21169 56.7129 8.68628 56.7129 9.23996Z" fill="black"/>
<path d="M59.4813 9.08147C59.4813 8.13229 60.035 7.49951 60.826 7.49951C61.617 7.49951 62.1706 8.0532 62.1706 9.08147V27.8277C62.2497 28.5396 61.7752 29.1723 61.0633 29.3305C61.0633 29.3305 61.0633 29.3305 60.9842 29.3305H60.7469C59.8768 29.3305 59.4022 28.7768 59.4022 27.8277L59.4813 9.08147Z" fill="black"/>
<path d="M24.8365 9.08147C24.8365 8.13229 25.3902 7.49951 26.1812 7.49951C26.9722 7.49951 27.5259 8.0532 27.5259 9.08147V27.8277C27.605 28.5396 27.1304 29.1723 26.4185 29.3305C26.4185 29.3305 26.4185 29.3305 26.3394 29.3305H26.1021C25.232 29.3305 24.7574 28.7768 24.7574 27.8277L24.8365 9.08147Z" fill="black"/>
<path d="M26.1817 4.57304C27.3611 4.57304 28.3173 3.61688 28.3173 2.4374C28.3173 1.25792 27.3611 0.301758 26.1817 0.301758C25.0022 0.301758 24.046 1.25792 24.046 2.4374C24.046 3.61688 25.0022 4.57304 26.1817 4.57304Z" fill="black"/>
<path d="M76.3296 20.0761L68.9735 28.6978C68.7362 29.0142 68.3407 29.2514 67.8662 29.2514C67.1543 29.2514 66.6006 28.7769 66.6006 28.065C66.6006 27.7486 66.7588 27.3531 66.917 27.1158L74.5895 18.415L67.2334 9.87246C66.917 9.63516 66.7588 9.23967 66.7588 8.92328C66.7588 8.2114 67.3125 7.65771 68.0244 7.65771H68.1035C68.4989 7.65771 68.8944 7.89501 69.1317 8.2114L76.3296 16.6749L83.5275 8.2114C84.0021 7.65772 84.7931 7.49952 85.3468 7.9741C85.6632 8.2114 85.8214 8.52779 85.8214 8.84418V8.92328C85.8214 9.31877 85.6632 9.71426 85.4259 9.95155L77.9907 18.4941L85.6632 27.1949C85.9005 27.4322 86.0587 27.8277 85.9796 28.1441C85.9796 28.856 85.4259 29.4096 84.7931 29.4096H84.714C84.3185 29.4096 83.923 29.2514 83.6066 28.856L76.3296 20.0761Z" fill="black"/>
<path d="M76.3294 4.57304C77.5089 4.57304 78.465 3.61688 78.465 2.4374C78.465 1.25792 77.5089 0.301758 76.3294 0.301758C75.1499 0.301758 74.1937 1.25792 74.1937 2.4374C74.1937 3.61688 75.1499 4.57304 76.3294 4.57304Z" fill="black"/>
</svg>
