<svg width="129" height="18" viewBox="0 0 129 18" fill="none" xmlns="http://www.w3.org/2000/svg">
<path d="M14.2 13.0068C13.9 13.0068 13.6 13.1068 13.3 13.4068C12.1 14.6068 10.4 15.3068 8.7 15.3068C7.1 15.3068 5.5 14.6068 4.5 13.5068C3.4 12.3068 2.8 10.6068 2.8 8.90685C2.6 5.60685 5.2 2.70685 8.5 2.60685C8.6 2.60685 8.7 2.60685 8.8 2.60685C10.5 2.60685 12.1 3.20685 13.3 4.40685C13.5 4.60685 13.8 4.70685 14.1 4.70685C14.8 4.70685 15.5 4.10685 15.5 3.40685C15.5 3.00685 15.3 2.60685 15 2.30685C13.3 0.80685 11.1 0.0068489 8.8 0.106849C6.4 0.106849 4.1 1.00685 2.5 2.70685C0.9 4.40685 0 6.70685 0 9.00685C0 11.3068 0.9 13.6068 2.5 15.3068C4.1 17.0068 6.4 17.9068 8.7 17.9068C11.1 18.0068 13.4 17.0068 15.1 15.4068C15.4 15.2068 15.5 14.8068 15.5 14.4068C15.5 13.6068 14.9 13.1068 14.2 13.0068ZM26.6 0.00684662C24.2 0.00684662 21.9 0.906847 20.2 2.70685C18.6 4.40685 17.7 6.60685 17.7 9.00685C17.7 11.3068 18.5 13.5068 20.1 15.2068C23.6 18.7068 29.3 18.8068 32.8 15.3068L32.9 15.2068C34.5 13.5068 35.4 11.3068 35.4 8.90685C35.4 6.60685 34.6 4.40685 33 2.70685C31.3 0.906847 29 -0.0931534 26.6 0.00684662ZM32.6 8.90685C32.8 12.3068 30.2 15.1068 26.8 15.3068C26.7 15.3068 26.6 15.3068 26.5 15.3068C24.8 15.3068 23.3 14.6068 22.1 13.4068C21 12.2068 20.4 10.5068 20.4 8.90685C20.2 5.60685 22.8 2.70685 26.2 2.60685C26.3 2.60685 26.4 2.60685 26.5 2.60685C28.2 2.60685 29.7 3.30685 30.9 4.50685C32 5.60685 32.6 7.20685 32.6 8.90685ZM51.3 0.106849C50.5 0.106849 49.9 0.706847 49.9 1.50685V7.60685H41.2V1.50685C41.2 0.806847 40.6 0.106849 39.8 0.106849C39.1 0.106849 38.4 0.706847 38.4 1.50685V16.3069C38.4 17.0069 39 17.7068 39.8 17.7068C40.5 17.7068 41.2 17.1069 41.2 16.3069V10.1068H49.9V16.3069C49.9 17.0069 50.5 17.7068 51.3 17.7068C52 17.7068 52.7 17.1069 52.7 16.3069V1.50685C52.7 0.806847 52.1 0.106849 51.3 0.106849ZM68.1 15.1068H59.1V10.2068H66.9C67.6 10.2068 68.2 9.60685 68.2 8.90685C68.2 8.20685 67.6 7.60685 66.9 7.60685H59.1V2.80685H68C68.7 2.80685 69.3 2.30685 69.3 1.60685C69.3 0.906849 68.8 0.30685 68.1 0.30685C68.1 0.30685 68.1 0.30685 68 0.30685H57.8C57.1 0.30685 56.5 0.906847 56.5 1.70685V16.3069C56.5 17.0069 57.1 17.7068 57.8 17.7068H68.2C68.9 17.7068 69.5 17.1068 69.4 16.4068C69.4 15.6068 68.8 15.1068 68.1 15.1068ZM92.4 0.106849C91.7 0.106849 91.1 0.706847 91.1 1.50685V16.3069C91.1 17.0069 91.7 17.7068 92.5 17.7068C93.2 17.7068 93.9 17.1069 93.9 16.3069V1.50685C93.8 0.706847 93.2 0.106849 92.4 0.106849ZM109.2 0.206847H97.7C97 0.206847 96.4 0.806847 96.4 1.50685C96.4 2.20685 97 2.80685 97.7 2.80685H102.1V16.3069C102.1 17.1069 102.7 17.7068 103.5 17.7068C104.3 17.7068 104.9 17.1069 104.9 16.3069V2.80685H109.3C110 2.80685 110.6 2.20685 110.6 1.50685C110.5 0.806847 109.9 0.306847 109.2 0.206847ZM126.8 0.106849C126.3 0.106849 125.8 0.40685 125.6 0.80685L120.5 8.20685L115.4 0.80685C115.1 0.40685 114.7 0.106849 114.2 0.106849C113.5 0.106849 112.8 0.706848 112.8 1.40685C112.8 1.70685 112.9 2.00685 113.1 2.30685L119.2 10.8068V16.3069C119.2 17.1069 119.8 17.7068 120.6 17.7068C121.4 17.7068 122 17.1069 122 16.3069V10.7068L128 2.30685C128.2 2.00685 128.3 1.70685 128.3 1.40685C128.1 0.706848 127.5 0.106849 126.8 0.106849ZM81.6 5.20685H77.7C77 5.10685 76.4 5.70685 76.3 6.40685C76.2 7.10685 76.8 7.70685 77.5 7.80685C77.6 7.80685 77.6 7.80685 77.7 7.80685H81.6C83.6 7.80685 85.2 9.40685 85.2 11.4068C85.2 13.4068 83.6 15.0068 81.6 15.0068H73.8C73.1 15.1068 72.5 15.7068 72.6 16.4068C72.7 17.0068 73.2 17.5068 73.8 17.6068H81.6C85 17.6068 87.9 14.9068 87.9 11.5068C87.9 8.10685 85.2 5.20685 81.8 5.20685C81.7 5.20685 81.7 5.20685 81.6 5.20685Z" fill="white"/>
<path d="M77.6 12.7068H81.5C82.2 12.6068 82.8001 12.0069 82.7001 11.3069C82.6001 10.7069 82.1 10.2068 81.5 10.1068H77.6C75.6 10.1068 74 8.50685 74 6.50685C74 4.50685 75.6 2.90685 77.6 2.90685H85.1C85.8 2.80685 86.4 2.20685 86.3 1.50685C86.2 0.906847 85.7 0.40685 85.1 0.30685H77.6C74.2 0.30685 71.3 3.00685 71.3 6.40685C71.3 9.80685 74 12.7068 77.4 12.7068C77.5 12.7068 77.6 12.7068 77.6 12.7068Z" fill="white"/>
</svg>
