<svg width="215" height="30" viewBox="0 0 215 30" fill="none" xmlns="http://www.w3.org/2000/svg">
<path d="M23.7703 21.773C23.2681 21.773 22.7659 21.9404 22.2638 22.4426C20.255 24.4514 17.4093 25.6232 14.5635 25.6232C11.8852 25.6232 9.20682 24.4514 7.53285 22.61C5.69149 20.6012 4.68711 17.7555 4.68711 14.9098C4.35232 9.38568 8.70463 4.53117 14.2287 4.36378C14.3961 4.36378 14.5635 4.36378 14.7309 4.36378C17.5767 4.36378 20.255 5.36816 22.2638 7.37692C22.5986 7.71171 23.1007 7.8791 23.6029 7.8791C24.7747 7.8791 25.9465 6.87473 25.9465 5.70295C25.9465 5.03336 25.6117 4.36378 25.1095 3.86159C22.2638 1.35064 18.581 0.0114648 14.7309 0.178861C10.7134 0.178861 6.86326 1.68543 4.18492 4.53117C1.50657 7.37691 0 11.227 0 15.0772C0 18.9273 1.50657 22.7774 4.18492 25.6232C6.86326 28.4689 10.7134 29.9755 14.5635 29.9755C18.581 30.1429 22.4312 28.4689 25.2769 25.7905C25.7791 25.4558 25.9465 24.7862 25.9465 24.1166C25.9465 22.7774 24.9421 21.9404 23.7703 21.773ZM44.5275 0.011461C40.51 0.011461 36.6599 1.51803 33.8141 4.53117C31.1358 7.37691 29.6292 11.0596 29.6292 15.0772C29.6292 18.9273 30.9684 22.61 33.6467 25.4558C39.5056 31.3146 49.0472 31.482 54.9061 25.6232L55.0735 25.4558C57.7518 22.61 59.2584 18.9273 59.2584 14.9098C59.2584 11.0596 57.9192 7.37691 55.2409 4.53117C52.3952 1.51803 48.545 -0.155936 44.5275 0.011461ZM54.5713 14.9098C54.9061 20.6013 50.5538 25.2884 44.8623 25.6232C44.6949 25.6232 44.5275 25.6232 44.3601 25.6232C41.5144 25.6232 39.0034 24.4514 36.9947 22.4426C35.1533 20.4339 34.1489 17.5881 34.1489 14.9098C33.8141 9.38568 38.1664 4.53117 43.8579 4.36378C44.0253 4.36378 44.1927 4.36378 44.3601 4.36378C47.2059 4.36378 49.7168 5.53555 51.7256 7.54431C53.5669 9.38567 54.5713 12.064 54.5713 14.9098ZM85.8745 0.178861C84.5353 0.178861 83.5309 1.18324 83.5309 2.52241V12.7336H68.9674V2.52241C68.9674 1.35063 67.963 0.178861 66.6239 0.178861C65.4521 0.178861 64.2803 1.18324 64.2803 2.52241V27.2971C64.2803 28.4689 65.2847 29.6407 66.6239 29.6407C67.7956 29.6407 68.9674 28.6363 68.9674 27.2971V16.9185H83.5309V27.2971C83.5309 28.4689 84.5353 29.6407 85.8745 29.6407C87.0463 29.6407 88.218 28.6363 88.218 27.2971V2.52241C88.218 1.35063 87.2137 0.178861 85.8745 0.178861ZM113.997 25.2884H98.9314V17.0859H111.988C113.16 17.0859 114.165 16.0815 114.165 14.9098C114.165 13.738 113.16 12.7336 111.988 12.7336H98.9314V4.69857H113.83C115.002 4.69857 116.006 3.86159 116.006 2.68981C116.006 1.51803 115.169 0.513656 113.997 0.513656C113.997 0.513656 113.997 0.513656 113.83 0.513656H96.7553C95.5835 0.513656 94.5791 1.51803 94.5791 2.85721V27.2971C94.5791 28.4689 95.5835 29.6407 96.7553 29.6407H114.165C115.336 29.6407 116.341 28.6363 116.173 27.4645C116.173 26.1253 115.169 25.2884 113.997 25.2884ZM154.675 0.178861C153.503 0.178861 152.498 1.18324 152.498 2.52241V27.2971C152.498 28.4689 153.503 29.6407 154.842 29.6407C156.014 29.6407 157.185 28.6363 157.185 27.2971V2.52241C157.018 1.18324 156.014 0.178861 154.675 0.178861ZM182.797 0.346256H163.547C162.375 0.346256 161.37 1.35063 161.37 2.52241C161.37 3.69419 162.375 4.69857 163.547 4.69857H170.912V27.2971C170.912 28.6363 171.916 29.6407 173.256 29.6407C174.595 29.6407 175.599 28.6363 175.599 27.2971V4.69857H182.965C184.136 4.69857 185.141 3.69419 185.141 2.52241C184.973 1.35063 183.969 0.513652 182.797 0.346256ZM212.259 0.178861C211.422 0.178861 210.585 0.681053 210.25 1.35064L201.713 13.738L193.176 1.35064C192.674 0.681053 192.004 0.178861 191.167 0.178861C189.995 0.178861 188.823 1.18324 188.823 2.35502C188.823 2.85721 188.991 3.3594 189.326 3.86159L199.537 18.0903V27.2971C199.537 28.6363 200.541 29.6407 201.88 29.6407C203.22 29.6407 204.224 28.6363 204.224 27.2971V17.9229L214.268 3.86159C214.603 3.3594 214.77 2.85721 214.77 2.35502C214.435 1.18324 213.431 0.178861 212.259 0.178861ZM136.596 8.71609H130.067C128.895 8.54869 127.891 9.55307 127.724 10.7248C127.556 11.8966 128.561 12.901 129.732 13.0684C129.9 13.0684 129.9 13.0684 130.067 13.0684H136.596C139.944 13.0684 142.622 15.7467 142.622 19.0947C142.622 22.4426 139.944 25.121 136.596 25.121H123.539C122.367 25.2884 121.363 26.2927 121.53 27.4645C121.697 28.4689 122.534 29.3059 123.539 29.4733H136.596C142.287 29.4733 147.142 24.9536 147.142 19.2621C147.142 13.5706 142.622 8.71609 136.93 8.71609C136.763 8.71609 136.763 8.71609 136.596 8.71609Z" fill="black"/>
<path d="M129.9 21.2709H136.428C137.6 21.1035 138.605 20.0991 138.437 18.9273C138.27 17.9229 137.433 17.0859 136.428 16.9185H129.9C126.552 16.9185 123.874 14.2402 123.874 10.8923C123.874 7.54433 126.552 4.86598 129.9 4.86598H142.455C143.627 4.69859 144.631 3.6942 144.463 2.52243C144.296 1.51805 143.459 0.681069 142.455 0.513672H129.9C124.208 0.513672 119.354 5.03338 119.354 10.7249C119.354 16.4164 123.874 21.2709 129.565 21.2709C129.733 21.2709 129.9 21.2709 129.9 21.2709Z" fill="black"/>
</svg>
