<svg width="90" height="90" viewBox="0 0 90 90" fill="none" xmlns="http://www.w3.org/2000/svg">
<g clip-path="url(#clip0_3310_9893)">
<path d="M77.8313 44.341H79.6838C79.3396 25.6703 64.2933 10.5434 45.6592 10.0529V11.9053C63.2755 12.3958 77.4872 26.6954 77.8313 44.341Z" fill="black" stroke="black" stroke-width="0.75" stroke-miterlimit="10"/>
<path d="M11.6415 46.1935H9.78906C10.4114 64.6152 25.348 79.4639 43.799 79.9471V78.0947C26.3657 77.6115 12.2565 63.5975 11.6342 46.1935H11.6415Z" fill="black" stroke="black" stroke-width="0.75" stroke-miterlimit="10"/>
<path d="M43.8063 11.9053V10.0529C25.1722 10.5434 10.1259 25.6703 9.78174 44.341H11.6342C11.9783 26.6954 26.1973 12.3958 43.8063 11.9053Z" fill="black" stroke="black" stroke-width="0.75" stroke-miterlimit="10"/>
<path d="M45.6592 78.0947V79.9471C64.1175 79.4639 79.0541 64.6152 79.6691 46.1935H77.8167C77.1943 63.5975 63.0925 77.6115 45.6519 78.0947H45.6592Z" fill="black" stroke="black" stroke-width="0.75" stroke-miterlimit="10"/>
<path d="M37.5904 46.1935L33.5195 50.3523C33.1607 50.7184 33.168 51.3041 33.5341 51.6629C33.7171 51.8386 33.9441 51.9265 34.1784 51.9265C34.4127 51.9265 34.6617 51.8313 34.8374 51.6482L39.8236 46.5522C40.1237 46.2447 40.2921 45.864 40.3434 45.4759C40.358 45.41 40.3654 45.3441 40.3654 45.2709C40.3654 45.2563 40.3654 45.2489 40.3654 45.2343C40.3654 44.7364 40.1823 44.2385 39.7943 43.8651L34.6983 38.8789C34.3322 38.5202 33.7464 38.5275 33.3877 38.8936C33.0289 39.2597 33.0362 39.8454 33.4023 40.2042L37.6416 44.3484H1.20087C0.688343 44.3484 0.27832 44.7657 0.27832 45.2709C0.27832 45.7761 0.695665 46.1935 1.20087 46.1935H37.5904Z" fill="#FA198C" stroke="#FA198C" stroke-width="0.75" stroke-miterlimit="10"/>
<path d="M88.7993 44.341H52.3585L56.5978 40.1969C56.9639 39.8381 56.9712 39.2524 56.6125 38.8863C56.2537 38.5202 55.668 38.5128 55.3019 38.8716L50.2059 43.8578C49.8251 44.2312 49.6348 44.7291 49.6348 45.227C49.6348 45.2416 49.6348 45.2489 49.6348 45.2636C49.6348 45.3368 49.6421 45.4027 49.6567 45.4686C49.708 45.864 49.8764 46.2447 50.1766 46.5449L55.1627 51.6409C55.3458 51.8239 55.5874 51.9191 55.8217 51.9191C56.056 51.9191 56.2903 51.8313 56.466 51.6555C56.8321 51.2968 56.8395 50.711 56.4807 50.3449L52.4097 46.1861H88.7993C89.3118 46.1861 89.7218 45.7688 89.7218 45.2636C89.7218 44.7584 89.3045 44.341 88.7993 44.341Z" fill="#FA198C" stroke="#FA198C" stroke-width="0.75" stroke-miterlimit="10"/>
<path d="M43.8067 37.5903L39.6479 33.5193C39.2818 33.1606 38.6961 33.1679 38.3373 33.534C37.9785 33.9001 37.9859 34.4858 38.352 34.8446L43.448 39.8308C43.7555 40.1309 44.1289 40.2994 44.5243 40.3506C44.5902 40.3652 44.6561 40.3726 44.7293 40.3726C44.7366 40.3726 44.7439 40.3726 44.7586 40.3726C44.7586 40.3726 44.7732 40.3726 44.7805 40.3726C45.2711 40.3726 45.769 40.1822 46.1424 39.8015L51.1286 34.7055C51.4873 34.3394 51.48 33.7536 51.1139 33.3949C50.7478 33.0361 50.1621 33.0434 49.8033 33.4095L45.6592 37.6488V1.20075C45.6592 0.688221 45.2418 0.278198 44.7366 0.278198C44.2314 0.278198 43.814 0.695543 43.814 1.20075V37.5903H43.8067Z" fill="#FA198C" stroke="#FA198C" stroke-width="0.75" stroke-miterlimit="10"/>
<path d="M45.6592 52.3585L49.8033 56.5978C49.9864 56.7809 50.228 56.8761 50.4623 56.8761C50.6966 56.8761 50.9309 56.7882 51.1066 56.6125C51.4727 56.2537 51.48 55.668 51.1212 55.3019L46.1351 50.2059C45.7763 49.8398 45.3004 49.6421 44.7952 49.6348C44.7805 49.6348 44.7732 49.6348 44.7586 49.6348C44.7439 49.6348 44.7366 49.6348 44.722 49.6348C44.6414 49.6348 44.5682 49.6494 44.495 49.6641C44.0923 49.7226 43.7335 49.891 43.4406 50.1766L38.3446 55.1627C37.9785 55.5215 37.9712 56.1073 38.33 56.4734C38.6888 56.8394 39.2745 56.8468 39.6406 56.488L43.7994 52.4171V88.8066C43.7994 89.3191 44.2168 89.7291 44.722 89.7291C45.2272 89.7291 45.6445 89.3118 45.6445 88.8066V52.3658L45.6592 52.3585Z" fill="#FA198C" stroke="#FA198C" stroke-width="0.75" stroke-miterlimit="10"/>
</g>
<defs>
<clipPath id="clip0_3310_9893">
<rect width="90" height="90" fill="white"/>
</clipPath>
</defs>
</svg>
