<svg width="81" height="80" viewBox="0 0 81 80" fill="none" xmlns="http://www.w3.org/2000/svg">
<g clip-path="url(#clip0_5158_1790)">
<path d="M31.4623 38.4772H14.7703V41.0091H31.4623V38.4772Z" fill="black"/>
<path d="M65.9182 38.4772H49.6548V41.0091H65.9182V38.4772Z" fill="black"/>
<path d="M39.0105 14.7457V30.8024H41.5402V14.7457H39.0105Z" fill="black"/>
<path d="M39.0105 49.0152V65.3771H41.5402V49.0152H39.0105Z" fill="black"/>
<path d="M81 39.9995C81 36.0719 78.1253 32.7239 74.2726 32.1079V15.8902C78.1253 15.2742 81 11.9263 81 7.9986C81 3.58802 77.415 0 73.0082 0C69.0839 0 65.7388 2.87712 65.1234 6.73312H48.3849C47.7694 2.87712 44.4243 0 40.5009 0C36.5776 0 33.2315 2.87712 32.6161 6.73312H15.8776C15.2621 2.87712 11.9161 0 7.99178 0C3.58496 0 0 3.58802 0 7.9986C0 11.9263 2.87466 15.2742 6.72738 15.8902V32.1079C2.87466 32.7239 0 36.0728 0 39.9995C0 43.9263 2.87466 47.2751 6.72738 47.8911V64.1089C2.87466 64.7249 0 68.0737 0 72.0005C0 76.4111 3.58496 79.9991 7.99178 79.9991C11.9161 79.9991 15.2612 77.1229 15.8766 73.2669H32.6151C33.2306 77.1229 36.5757 79.9991 40.5 79.9991C44.4243 79.9991 47.7694 77.1229 48.3839 73.2669H65.1224C65.7379 77.1229 69.083 79.9991 73.0073 79.9991C77.4141 79.9991 80.9991 76.4111 80.9991 72.0005C80.9991 68.0728 78.1244 64.7249 74.2717 64.1089V47.8911C78.1244 47.2751 80.9991 43.9272 80.9991 39.9995H81ZM40.5009 66.5338C43.5123 66.5338 45.962 68.9866 45.962 72.0005C45.962 75.0144 43.5123 77.4672 40.5009 77.4672C37.4896 77.4672 35.0389 75.0153 35.0389 72.0005C35.0389 68.9856 37.4896 66.5338 40.5009 66.5338ZM40.5009 13.4653C37.4896 13.4653 35.0389 11.0125 35.0389 7.9986C35.0389 4.9847 37.4896 2.5319 40.5009 2.5319C43.5123 2.5319 45.962 4.9847 45.962 7.9986C45.962 11.0125 43.5123 13.4653 40.5009 13.4653ZM73.0082 66.5338C76.0195 66.5338 78.4693 68.9866 78.4693 72.0005C78.4693 75.0144 76.0195 77.4672 73.0082 77.4672C69.9969 77.4672 67.5462 75.0153 67.5462 72.0005C67.5462 68.9856 69.9969 66.5338 73.0082 66.5338ZM7.99178 66.5338C11.0031 66.5338 13.4538 68.9866 13.4538 72.0005C13.4538 75.0144 11.0031 77.4672 7.99178 77.4672C4.98045 77.4672 2.53067 75.0153 2.53067 72.0005C2.53067 68.9856 4.98045 66.5338 7.99178 66.5338ZM7.99178 13.4653C4.98045 13.4653 2.53067 11.0125 2.53067 7.9986C2.53067 4.9847 4.98045 2.5319 7.99178 2.5319C11.0031 2.5319 13.4538 4.9847 13.4538 7.9986C13.4538 11.0125 11.0031 13.4653 7.99178 13.4653ZM7.99178 34.5338C11.0031 34.5338 13.4538 36.9856 13.4538 40.0005C13.4538 43.0153 11.0031 45.4672 7.99178 45.4672C4.98045 45.4672 2.53067 43.0144 2.53067 40.0005C2.53067 36.9866 4.98045 34.5338 7.99178 34.5338ZM9.25805 47.8911C13.1108 47.2751 15.9854 43.9272 15.9854 39.9995C15.9854 36.0719 13.1108 32.7239 9.25805 32.1079V15.8902C12.6617 15.3468 15.3337 12.6716 15.8776 9.26502H32.6161C33.2315 13.121 36.5766 15.9981 40.5009 15.9981C44.4252 15.9981 47.7703 13.121 48.3849 9.26502H65.1234C65.6672 12.6716 68.3392 15.3468 71.7429 15.8902V32.1079C67.8902 32.7239 65.0155 36.0719 65.0155 39.9995C65.0155 43.9272 67.8902 47.2751 71.7429 47.8911V64.1089C68.3392 64.6523 65.6672 67.3275 65.1234 70.7341H48.3849C47.7694 66.878 44.4243 64.0009 40.5009 64.0009C36.5776 64.0009 33.2315 66.878 32.6161 70.7341H15.8776C15.3337 67.3275 12.6617 64.6523 9.25805 64.1089V47.8911ZM73.0082 13.4653C69.9969 13.4653 67.5462 11.0125 67.5462 7.9986C67.5462 4.9847 69.9969 2.5319 73.0082 2.5319C76.0195 2.5319 78.4693 4.9847 78.4693 7.9986C78.4693 11.0125 76.0195 13.4653 73.0082 13.4653ZM67.5462 39.9995C67.5462 36.9856 69.9969 34.5328 73.0082 34.5328C76.0195 34.5328 78.4693 36.9847 78.4693 39.9995C78.4693 43.0144 76.0195 45.4662 73.0082 45.4662C69.9969 45.4662 67.5462 43.0134 67.5462 39.9995Z" fill="black"/>
<path d="M40.4999 29.5193C34.7255 29.5193 30.0286 34.2211 30.0286 39.9995C30.0286 45.778 34.7255 50.4798 40.4999 50.4798C46.2743 50.4798 50.9712 45.778 50.9712 39.9995C50.9712 34.2211 46.2743 29.5193 40.4999 29.5193ZM48.4647 39.9995C48.4647 44.3952 44.8918 47.9712 40.4999 47.9712C36.1079 47.9712 32.5351 44.3952 32.5351 39.9995C32.5351 35.6038 36.1079 32.0279 40.4999 32.0279C44.8918 32.0279 48.4647 35.6038 48.4647 39.9995Z" fill="#FA198C"/>
</g>
<defs>
<clipPath id="clip0_5158_1790">
<rect width="81" height="80" fill="white"/>
</clipPath>
</defs>
</svg>
