<svg width="213" height="51" viewBox="0 0 213 51" fill="none" xmlns="http://www.w3.org/2000/svg">
<g clip-path="url(#clip0_4930_9595)">
<path fill-rule="evenodd" clip-rule="evenodd" d="M146.551 21.3838C146.542 21.602 146.73 21.6523 146.867 21.7195C148.461 22.5923 150.064 23.4651 151.668 24.3379C153.339 25.2442 155.011 26.159 156.691 27.0486C157.006 27.2164 157.339 27.3675 157.612 27.6192C157.595 27.1996 157.228 27.0654 156.998 26.8388C156.239 26.0919 155.386 25.454 154.704 24.64C154.38 24.2539 154.004 23.935 153.646 23.5909C152.683 22.6594 151.889 21.602 151.139 20.5026C150.354 19.3444 150.431 18.1527 151.071 16.9862C151.531 16.1554 152.034 15.3581 152.452 14.5021C152.879 13.6293 153.331 12.7733 153.74 11.8921C154.141 11.0361 154.687 10.264 155.386 9.61777C156.017 9.03031 156.827 8.79532 157.663 8.64426C159.42 8.31696 161.117 8.7114 162.822 9.02191C165.986 9.60098 169.047 10.5997 172.126 11.506C174.403 12.1774 176.671 12.8824 178.94 13.5705C179.076 13.6125 179.238 13.6125 179.392 13.8055C178.172 13.4614 177.012 13.1425 175.853 12.8152C175.853 12.9831 176.015 12.9243 176.108 13.0922C174.028 12.4795 172.007 11.8921 169.986 11.3046C170.352 11.7326 170.864 11.8417 171.341 11.9844C172.783 12.4208 174.241 12.8236 175.682 13.2516C177.405 13.772 179.127 14.3091 180.85 14.8378C181.762 15.1147 182.709 15.3245 183.596 15.6686C184.534 16.0295 185.515 16.2309 186.47 16.5498C187.749 16.9778 188.977 17.5485 190.282 17.901C190.333 17.9178 190.376 17.9513 190.495 18.0017C189.983 18.1779 189.574 18.0436 189.19 17.8506C189.028 17.7667 188.875 17.6912 188.687 17.6744C188.559 17.666 188.423 17.7415 188.423 17.4897C188.423 17.3806 188.15 17.3135 188.065 17.3471C187.672 17.5233 187.468 17.196 187.178 17.0953C186.743 16.9526 186.316 16.6925 185.822 16.8519C185.753 16.8771 185.6 16.8519 185.591 16.8184C185.489 16.382 185.174 16.575 184.909 16.575C184.355 16.575 183.92 16.2225 183.434 16.0379C183.212 15.954 183.025 15.8784 182.769 15.912C182.342 15.9623 181.907 15.7777 181.541 15.6099C181.089 15.4085 180.62 15.3749 180.168 15.2238C179.392 14.9637 178.59 14.7622 177.797 14.544C177.14 14.3678 176.484 14.2167 175.801 14.1076C175.145 14.0069 174.514 13.7468 173.866 13.5705C173.252 13.4027 172.663 13.1006 172.007 13.1006C171.35 12.7481 170.608 12.6642 169.909 12.4208C169.713 12.3537 169.508 12.2194 169.244 12.3201C169.423 12.4879 169.653 12.4711 169.841 12.5215C170.557 12.7313 171.265 12.9915 172.015 13.0922C172.1 13.3439 172.348 13.3188 172.527 13.3775C174.582 14.0153 176.637 14.6448 178.701 15.2574C180.347 15.7441 181.942 16.3652 183.587 16.8351C185.464 17.3723 187.34 17.9429 189.207 18.5136C192.073 19.4032 194.938 20.3096 197.803 21.2075C197.889 21.2327 197.999 21.2411 198.059 21.3334H198.068C197.769 21.4593 197.522 21.2747 197.266 21.1991C195.808 20.7543 194.367 20.276 192.917 19.8396C190.683 19.1682 188.448 18.5052 186.214 17.8506C182.726 16.8184 179.247 15.7945 175.759 14.7622C175.529 14.6951 175.307 14.6196 175.051 14.7035C178.113 15.7693 181.225 16.6421 184.312 17.6324C184.125 17.7163 183.98 17.5737 183.809 17.5569C182.411 17.3639 181.072 16.9359 179.724 16.533C177.703 15.9288 175.682 15.3245 173.661 14.7203C172.996 14.5189 172.331 14.3342 171.631 14.1328C171.674 14.3426 171.828 14.3594 171.947 14.393C173.729 14.8797 175.452 15.5427 177.217 16.0547C178.078 16.3064 178.931 16.5666 179.775 16.8351C179.852 16.8603 180.236 16.8016 179.955 17.1121C179.912 17.1624 180.023 17.2128 180.091 17.2212C181.438 17.5065 182.726 17.9933 184.039 18.3877C184.824 18.6227 185.609 18.8745 186.393 19.0843C187.911 19.4955 189.42 19.9655 190.904 20.4774C191.672 20.746 192.473 20.897 193.232 21.174C194.597 21.6691 196.004 22.0635 197.385 22.5251C197.863 22.6846 198.358 22.8692 198.852 23.0035C199.219 23.1042 199.603 23.2469 199.961 23.4063C200.191 23.5154 200.421 23.4651 200.635 23.5574C200.797 23.6329 200.942 23.6749 200.959 23.8763H200.967C200.507 23.7336 200.08 24.0022 199.603 24.0693C200.592 24.3882 201.59 24.7155 202.622 25.0512C202.468 25.1519 202.374 25.0932 202.28 25.0512C201.786 24.9001 201.3 24.7323 200.805 24.6064C200.524 24.5309 200.242 24.3295 199.927 24.4805C199.884 24.2959 199.722 24.2707 199.577 24.2288C196.891 23.3727 194.213 22.4999 191.518 21.6607C189.489 21.0313 187.451 20.4354 185.421 19.8312C185.012 19.7137 184.602 19.613 184.193 19.4955C184.355 19.6466 184.534 19.7137 184.722 19.7641C186.982 20.4522 189.241 21.1236 191.493 21.8286C194.307 22.7014 197.113 23.5993 199.927 24.4805C200.549 24.6819 201.163 24.8834 201.786 25.0848C201.956 25.1435 202.135 25.2107 202.289 25.0428C202.289 25.2191 202.434 25.2526 202.562 25.303C203.815 25.7058 205.078 26.1002 206.323 26.5366C206.604 26.6374 206.86 26.7968 207.116 27.0234C207.653 27.5101 208.378 27.7619 209.094 27.9717C209.87 28.1983 210.638 28.4837 211.38 28.811C211.201 28.7858 211.013 28.7606 210.834 28.7354C210.834 28.7606 210.817 28.7858 210.808 28.811C211.081 28.9201 211.354 29.0375 211.627 29.1299C211.763 29.1802 211.9 29.2054 211.891 29.39C211.098 28.9956 210.237 28.8026 209.41 28.534C206.962 27.7451 204.506 26.9814 202.059 26.2093C198.861 25.2023 195.663 24.1952 192.465 23.1881C191.382 23.272 190.427 22.7685 189.42 22.4999C187.425 21.9712 185.455 21.3418 183.468 20.7543C182.649 20.511 181.831 20.2676 181.012 20.0326C180.347 19.8899 179.716 19.613 179.034 19.5459C179.494 19.7305 179.963 19.8899 180.441 20.0158C180.62 20.0578 180.824 20.2424 181.021 20.0242C181.166 20.3431 181.507 20.3347 181.762 20.4103C185.898 21.6104 190.009 22.8944 194.111 24.212C196.626 25.0176 199.159 25.7897 201.649 26.6709C202.639 27.0234 203.594 27.4514 204.566 27.8458C205.052 28.0389 205.598 28.0976 206.041 28.3997C206.109 28.4501 206.169 28.5004 206.271 28.5844C205.947 28.7606 205.666 28.5844 205.436 28.5004C204.574 28.1647 203.679 27.9465 202.801 27.6612C201.564 27.2668 200.336 26.8639 199.1 26.4779C197.582 25.9995 196.055 25.5296 194.537 25.0512C194.094 24.9169 193.659 24.7659 193.224 24.6232C193.079 24.5728 192.942 24.5225 192.746 24.5812C193.096 24.8666 193.548 24.8414 193.863 25.1016C192.337 24.7155 190.853 24.1868 189.301 23.8679C194.912 25.6638 200.524 27.4682 206.101 29.3732C205.76 29.4572 205.461 29.2809 205.163 29.197C202.622 28.4585 200.08 27.7283 197.556 26.9311C195.526 26.2849 193.471 25.7478 191.416 25.2023C190.393 24.9253 189.446 24.4386 188.414 24.1532C186.078 23.5238 183.749 22.8524 181.43 22.181C178.812 21.4257 176.194 20.662 173.584 19.8983C170.071 18.8745 166.566 17.8087 163.018 16.9023C161.586 16.533 160.144 16.1889 158.678 16.0043C158.174 15.9456 157.68 15.912 157.177 16.0211C156.861 16.0966 156.759 16.1302 156.998 16.4323C157.697 17.3135 158.55 18.052 159.334 18.8493C161.347 20.8718 163.624 22.6007 165.841 24.3882C168.22 26.3017 170.557 28.2571 172.902 30.2125C173.635 30.8251 174.309 31.5049 174.812 32.3273C175.043 32.705 175.085 33.091 174.915 33.5274C174.548 34.459 174.241 35.4157 173.908 36.3556C173.763 36.7836 173.61 37.2033 173.465 37.6313C173.456 37.6564 173.431 37.69 173.439 37.7068C173.704 38.1264 173.235 38.3194 173.124 38.6132C173.047 38.823 172.834 38.974 172.604 38.974C172.254 38.974 171.93 39.1838 171.563 39.0663C171.461 39.0328 171.341 39.0663 171.282 39.1838C171.086 39.5867 170.753 39.5111 170.42 39.3936C169.312 39.016 168.203 38.6551 167.12 38.2019C165.909 37.69 164.681 37.2033 163.479 36.6578C162.797 36.3472 162.106 36.0619 161.432 35.743C159.948 35.0213 158.447 34.3247 156.989 33.5526C155.94 32.9987 154.857 32.5287 153.808 31.9665C151.335 30.6489 148.845 29.3648 146.355 28.0724C144.138 26.9227 141.912 25.7813 139.686 24.64C137.409 23.4735 135.132 22.3237 132.847 21.1656C130.067 19.7557 127.27 18.3961 124.515 16.9359C122.161 15.6854 119.782 14.4685 117.369 13.3356C115.8 12.597 114.188 11.9592 112.525 11.4389C112.388 11.3969 112.252 11.3718 112.116 11.3466C111.851 11.2962 111.519 11.2459 111.391 11.506C111.288 11.7158 111.57 11.8753 111.715 12.0347C113.207 13.6629 114.862 15.1315 116.507 16.6002C116.652 16.7344 116.806 16.8519 116.866 17.045C116.772 16.9778 116.678 16.9191 116.593 16.8519C114.896 15.4756 113.327 13.965 111.774 12.4376C111.476 12.1438 111.212 11.8333 110.922 11.5312C110.845 11.4557 110.734 11.355 110.632 11.4641C110.538 11.5648 110.674 11.6403 110.726 11.6991C111.109 12.1355 111.493 12.5802 111.902 12.9915C115.689 16.768 119.825 20.1753 123.944 23.5909C126.238 25.4876 128.6 27.2919 130.971 29.0963C134.186 31.5301 137.452 33.8967 140.778 36.1794C140.863 36.2381 140.957 36.3808 141.059 36.2801C141.17 36.1626 141.025 36.0451 140.931 35.978C140.539 35.6759 140.138 35.3737 139.729 35.0968C138.816 34.4758 137.853 33.9386 137 33.2505C135.362 31.9329 133.665 30.6908 132.002 29.4236C129.751 27.7032 127.457 26.0331 125.265 24.2372C123.236 22.5671 121.215 20.8886 119.202 19.2018C118.46 18.5807 117.667 18.0101 117.07 17.238C117.463 17.3639 117.701 17.6828 118 17.9345C118.801 18.6059 119.577 19.2941 120.388 19.9571C120.686 20.2088 121.078 20.3515 121.36 20.6201C122.375 21.56 123.517 22.3657 124.566 23.272C126.886 25.2694 129.384 27.0402 131.84 28.8697C134.314 30.716 136.829 32.5036 139.371 34.2659C141.716 35.8857 143.993 37.5977 146.304 39.251C147.643 40.2077 149.041 41.1057 150.261 42.2302C150.789 42.717 151.327 43.2037 151.821 43.7241C152.068 43.9842 152.043 44.3535 151.924 44.6724C151.77 45.0752 151.574 45.5032 151.514 45.8893C151.395 46.6026 151.079 47.2572 150.977 47.9706C150.934 48.3063 150.806 48.6252 150.704 48.9525C150.678 49.0448 150.636 49.1371 150.661 49.2294C150.823 49.6826 150.67 50.0686 150.38 50.4211C150.363 50.4379 150.354 50.4715 150.346 50.4967C150.286 50.6645 150.371 50.9414 150.218 50.9834C150.03 51.0254 149.749 50.9666 149.595 50.8491C149.212 50.5554 148.751 50.5806 148.35 50.6141C147.643 50.6645 147.037 50.3876 146.423 50.161C144.197 49.3469 141.972 48.5329 139.814 47.5677C137.844 46.6866 135.891 45.7634 133.913 44.8906C131.397 43.7828 128.915 42.5995 126.451 41.3994C123.253 39.8384 120.123 38.1432 116.993 36.4563C115.024 35.3989 113.054 34.3499 111.092 33.2924C107.161 31.1776 103.23 29.0543 99.2982 26.9395C97.1833 25.8065 95.0513 24.6987 92.9535 23.5322C92.0154 23.0119 91.0603 22.5335 90.1308 21.9964C88.8345 21.2579 87.4871 20.6033 86.1824 19.8815C85.7816 19.655 85.3552 19.4787 84.9629 19.2437C84.8179 19.1598 84.6559 19.1095 84.4768 19.143C84.4768 19.3025 84.6133 19.3528 84.7071 19.42C87.453 21.3922 90.1308 23.4651 92.9023 25.3953C94.9575 26.8304 97.0127 28.2655 99.0765 29.6921C100.04 30.3551 101.029 30.9846 102.01 31.6224C102.138 31.7063 102.249 31.8238 102.428 31.7399C102.897 32.235 103.426 32.6211 104.082 32.8393C103.63 32.4532 103.144 32.1175 102.65 31.7818C102.581 31.7315 102.505 31.7063 102.419 31.7567C102.24 31.3622 101.839 31.2195 101.515 31.0181C99.8866 29.9691 98.3601 28.7858 96.774 27.678C94.8978 26.3604 93.0217 25.0344 91.1541 23.7084C91.0006 23.5993 90.8045 23.5238 90.7618 23.2972H90.7533C91.137 23.3979 91.3929 23.6749 91.6914 23.8931C93.5419 25.2358 95.4521 26.4779 97.3453 27.7619C100.185 29.6754 103.178 31.3706 105.89 33.4687C106.572 33.9974 107.28 34.4925 107.962 35.0213C108.346 35.315 108.235 35.7766 108.116 36.0871C107.835 36.8088 107.698 37.5893 107.229 38.2439C107.161 38.3362 107.178 38.4789 107.169 38.6048C107.118 39.1754 106.837 39.6874 106.632 40.1993C106.496 40.5518 106.581 40.8707 106.53 41.198C106.496 41.4246 106.487 41.626 106.248 41.7519C106.01 41.8778 106.044 42.0204 106.257 42.1463C106.325 42.1883 106.419 42.2302 106.385 42.3309C106.351 42.4317 106.248 42.3981 106.163 42.4065C105.856 42.4568 105.549 42.4233 105.259 42.2974C104.185 41.861 103.033 41.6596 101.976 41.1728C100.927 40.6861 99.8525 40.2329 98.8121 39.7377C97.7547 39.2342 96.6972 38.7223 95.6483 38.2019C91.4611 36.1123 87.4019 33.8044 83.3255 31.5133C78.5585 28.8277 73.817 26.1086 69.1267 23.3056C66.3807 21.6691 63.6774 19.9823 60.9399 18.329C58.1684 16.6589 55.3798 15.014 52.54 13.4614C51.8407 13.0754 51.1415 12.6558 50.2631 12.5635C50.7833 12.9243 51.0903 13.4279 51.5252 13.8307C53.1284 15.3077 54.7317 16.7932 56.3605 18.2367C57.742 19.4619 59.1747 20.6369 60.6074 21.8118C62.5091 23.3727 64.4193 24.9253 66.3892 26.4024C67.6599 27.3507 68.8879 28.3494 70.1927 29.2641C70.9772 29.8096 71.685 30.4642 72.5122 30.9594C72.751 31.186 72.9301 31.5049 73.3394 31.4629C73.3394 31.9077 73.7744 31.9161 74.0131 32.1259C73.8767 31.8154 73.5782 31.6727 73.3309 31.4713C73.0921 31.2447 72.8704 30.993 72.5037 30.9678C72.444 30.6405 72.1285 30.5482 71.9323 30.3384C71.7533 30.1537 71.5571 29.9775 71.3183 29.7509C71.5742 29.7593 71.685 29.8852 71.813 29.9775C73.3053 31.0685 74.8062 32.1427 76.2048 33.3512C76.6482 33.7288 77.0917 34.1149 77.4925 34.5345C77.8251 34.887 77.9615 35.2982 77.7313 35.8185C77.2367 36.9515 76.725 38.0844 76.3583 39.2594C76.1963 39.7629 75.821 40.2497 75.9831 40.8623C76.0342 41.0721 75.7187 41.0301 75.5652 41.1141C75.5908 41.1812 75.6249 41.2399 75.6334 41.3071C75.659 41.5001 75.8466 41.7183 75.642 41.8862C75.4202 42.0708 75.1132 42.1127 74.8489 42.0204C74.6698 41.9617 74.5078 41.9113 74.3287 41.9281C74.3031 41.9281 74.269 41.9197 74.2434 41.9281C74.0217 42.0036 74.0302 41.391 73.6464 41.7603C73.5271 41.8778 73.0921 41.6931 72.8107 41.6176C71.975 41.3826 71.1648 41.0721 70.3547 40.7616C68.2057 39.9475 66.1334 38.974 64.0697 37.9921C60.2066 36.1626 56.4202 34.1904 52.6765 32.1343C48.3358 29.7509 44.0463 27.2752 39.7824 24.7659C39.6374 24.6819 39.4924 24.6064 39.3389 24.5309C39.2622 24.4973 39.1513 24.405 39.0831 24.5225C39.0319 24.6064 39.1001 24.7071 39.1769 24.7743C39.373 24.9505 39.5777 25.1183 39.7738 25.2946C40.6522 26.0667 41.5306 26.8304 42.4004 27.6025C43.1253 28.2403 43.9951 28.727 44.6262 29.4656C44.9758 29.8768 45.4022 30.2125 45.803 30.5733C45.8798 30.6405 45.9736 31.1104 46.2209 30.6824C46.3147 30.7412 46.417 30.7831 46.5023 30.8503C47.9947 32.1427 49.4956 33.4435 50.988 34.7359C51.8237 35.4577 52.6765 36.1626 53.4269 36.9767C53.6231 37.1949 53.7851 37.4215 53.9215 37.6816C54.1518 38.1012 53.8618 38.4369 53.7425 38.7642C53.4269 39.5867 53.0943 40.3923 52.7106 41.1896C52.5656 41.5001 52.3183 41.8442 52.3951 42.247C52.4036 42.2974 52.3865 42.3645 52.3524 42.4065C51.9431 42.952 51.9772 43.6066 51.8663 44.2276C51.8493 44.3283 51.7981 44.4122 51.7128 44.4626C51.5764 44.5465 51.5337 44.6304 51.5934 44.8067C51.6617 45.0333 51.3888 45.3018 51.1841 45.2095C50.6213 44.9661 50.0158 44.941 49.4359 44.8151C47.8924 44.4794 46.4682 43.8332 45.0014 43.3128C41.9826 42.2554 39.1598 40.7868 36.4053 39.2006C33.6253 37.5893 30.7599 36.1123 28.031 34.4086C27.255 33.9219 26.4278 33.5022 25.7029 32.94C25.268 32.6043 24.8501 32.2434 24.4237 31.8993C24.1338 31.6727 23.8865 31.4293 23.4345 31.4965C23.0507 31.5468 22.6585 31.2531 22.4879 30.9678C22.2065 30.4894 21.7801 30.2292 21.3452 29.9691C20.3815 29.39 19.469 28.7438 18.5566 28.0808C17.2262 27.1073 15.768 26.31 14.4376 25.3282C13.3546 24.5309 12.246 23.7672 11.2056 22.9112C11.0947 22.8189 10.9497 22.7517 10.9071 22.5755C11.18 22.4916 11.4102 22.7181 11.7172 22.6762C11.5893 22.4916 11.4443 22.3908 11.2908 22.2901C11.1288 22.181 10.9753 22.0552 10.8474 21.9125C10.5916 21.6104 10.6342 21.4845 11.1032 21.3334C8.45959 19.2521 5.8586 17.2128 3.25761 15.1651C3.44522 15.0392 3.52197 15.3581 3.71811 15.207C3.67547 15.0224 3.49639 14.9049 3.34289 14.8042C3.02736 14.586 2.69477 14.3762 2.34513 14.2C2.06371 14.0573 1.79935 13.923 1.80787 13.5538C1.80787 13.4866 1.80787 13.4027 1.7226 13.3775C1.17681 13.2432 0.844228 12.7229 0.28139 12.6138C0.0852493 12.5719 -0.0341405 12.4711 0.00849868 12.2697C0.196111 11.3298 0.528697 10.4822 1.4497 9.98703C1.67996 9.86114 1.93579 9.92828 2.1831 9.84436C1.99549 9.72687 1.79935 9.90311 1.61173 9.75204C1.93579 9.45831 2.32807 9.57581 2.67771 9.53384C2.96766 9.50027 3.24908 9.71848 3.57314 9.41635C3.72664 9.26529 4.12745 9.56741 4.41739 9.65134C6.14002 10.1633 7.53859 11.2207 8.90304 12.3117C10.2931 13.4195 11.6746 14.5357 13.0817 15.6183C14.105 16.3987 15.1795 17.1037 16.2029 17.8842C16.6975 18.2534 17.2092 18.6059 17.6526 19.0507C17.8232 19.2269 17.5759 19.4284 17.8232 19.571C18.2581 19.806 18.6163 20.234 19.0682 20.3347C19.4008 20.4103 19.5117 20.6033 19.7249 20.7627C20.0916 21.0313 20.4583 21.2915 20.9358 21.3922C21.1661 21.4425 21.2087 21.753 21.456 21.8957C22.2491 22.3573 22.9313 22.9867 23.7756 23.356C24.509 23.6665 25.1401 24.1364 25.8223 24.5309C26.3937 24.8666 26.965 25.219 27.5279 25.5715C27.5961 25.6135 27.6472 25.6806 27.6728 25.7813C26.948 25.4037 26.2231 25.026 25.4897 24.6484C25.9502 25.1435 26.4107 25.6387 27.0418 25.8736C27.5279 26.0583 27.9457 26.3436 28.3977 26.5702C29.0373 26.8891 29.6257 27.2836 30.325 27.5269C30.8196 27.7032 31.2375 28.0892 31.6894 28.3829C31.8174 28.4669 31.9197 28.5928 32.1244 28.5676C32.1414 28.4165 32.005 28.3578 31.9282 28.2822C30.4529 26.7632 28.9094 25.3114 27.434 23.7924C26.027 22.3405 24.5175 20.9893 23.0848 19.571C21.9933 18.4884 20.9529 17.3555 19.8102 16.3232C18.1643 14.8378 16.689 13.1761 15.1198 11.6151C14.1647 10.6668 13.2181 9.71008 12.2971 8.73658C11.7428 8.14911 11.2908 7.46095 10.6939 6.92384C10.2334 6.50422 10.5574 6.35316 10.7706 6.05104C11.2482 5.36287 11.794 4.73345 12.2715 4.05367C12.9708 3.0466 13.5422 1.96399 14.2841 0.990484C14.8384 0.260354 15.8788 -0.234792 16.706 0.126077C17.1751 0.327492 17.6441 0.629615 18.1216 0.872992C19.6225 1.67026 20.8847 2.78644 22.215 3.8103C24.961 5.92516 27.724 7.99805 30.6064 9.91989C32.6616 11.2878 34.7424 12.597 36.8317 13.8978C40.0126 15.8784 43.185 17.8674 46.4341 19.7305C46.7581 19.9151 47.0652 20.1333 47.3977 20.3179C47.5086 20.3767 47.6792 20.511 47.773 20.3851C47.8753 20.2592 47.7133 20.1417 47.6195 20.041C46.9969 19.42 46.3659 18.8157 45.7519 18.1947C43.5943 16.0127 41.4282 13.8307 39.5521 11.3969C38.9722 10.65 38.4009 9.9031 37.8465 9.1478C37.7101 8.96317 37.6248 8.73658 37.5651 8.50998C37.514 8.30857 37.5225 8.13233 37.2155 8.12394C37.0193 8.11555 37.0108 7.90574 37.1473 7.73789C37.5907 7.20918 38.0939 6.71403 38.4435 6.13496C38.7505 5.62303 39.1257 5.15306 39.4242 4.62435C40.0382 3.54174 40.6266 2.43396 41.5135 1.53598C41.9229 1.12476 42.4345 0.881384 43.023 0.805853C44.123 0.671577 45.1293 0.906561 46.1441 1.35975C47.2528 1.8465 48.3699 2.29129 49.4444 2.85357C51.2608 3.8019 53.0346 4.80059 54.8084 5.83284C56.224 6.65529 57.6141 7.53648 59.0297 8.35892C60.488 9.20654 61.9548 10.029 63.3363 10.9857C63.9673 11.4221 64.6069 11.8585 65.1442 12.4292C65.4426 12.7481 65.8435 12.9579 66.1334 13.302C66.2357 13.4195 66.3551 13.3859 66.5257 13.3272C65.9287 12.8908 65.5365 12.2781 64.8969 11.9005C64.624 11.741 64.479 11.4221 64.2999 11.1787C64.0014 10.7591 63.6262 10.415 63.3107 10.0122C63.2681 9.95346 63.1913 9.89471 63.2595 9.84436C63.5409 9.65134 63.5068 9.22333 63.8565 9.08066C64.0953 8.97995 64.0697 8.7114 64.2061 8.53516C64.9139 7.6204 65.4768 6.62172 66.0225 5.61464C66.2613 5.16985 66.5342 4.74184 66.8071 4.32223C67.8731 2.65216 69.4337 2.19058 71.1904 2.90393C73.1092 3.68441 74.9768 4.61596 76.7847 5.63982C80.0935 7.51969 83.3511 9.48349 86.6599 11.3634C90.3951 13.4782 94.1474 15.5679 97.8996 17.666C99.4602 18.5388 101.029 19.378 102.598 20.234C104.654 21.3502 106.726 22.4496 108.764 23.5993C110.376 24.5141 112.022 25.3617 113.616 26.3017C114.265 26.6877 114.904 27.1073 115.638 27.3675C115.97 27.4934 116.26 27.7619 116.593 27.9298C117.548 28.4081 118.503 28.8781 119.424 29.4236C119.953 29.7341 120.49 30.0446 121.027 30.3551C121.189 30.4475 121.292 30.5817 121.402 30.7747C120.763 30.7831 120.37 30.0362 119.705 30.33H119.722C119.774 30.246 119.987 30.1789 119.791 30.053C119.526 29.8768 119.245 29.7341 118.963 29.583C118.887 29.5411 118.776 29.4823 118.699 29.583C118.648 29.6586 118.716 29.7341 118.759 29.8096C118.853 29.9439 119.032 30.0194 119.023 30.2125C117.94 29.5998 116.857 28.9956 115.765 28.4081C114.631 27.7955 113.48 27.1912 112.346 26.5786C110.956 25.8401 109.549 25.1351 108.201 24.3211C107.766 24.0525 107.272 23.9015 106.854 23.6077C106.41 23.2972 105.924 23.0538 105.447 22.8021C105.251 22.7014 105.046 22.5671 104.918 22.3489C104.773 22.0971 104.449 22.1978 104.21 22.0719C103.699 21.8034 103.144 21.5852 102.658 21.2831C101.609 20.6369 100.484 20.1501 99.4091 19.5626C97.26 18.3793 95.0854 17.2548 92.9705 16.0211C90.5572 14.6196 88.0585 13.3859 85.6536 11.976C85.4063 11.8249 85.142 11.7074 84.8264 11.6487C85.0652 11.8082 85.304 11.976 85.5513 12.1187C88.1949 13.6125 90.8386 15.1147 93.4907 16.6002C95.1451 17.5233 96.8166 18.4213 98.4795 19.3277C100.253 20.2928 102.027 21.2663 103.801 22.2398C105.208 23.0119 106.607 23.7924 108.031 24.5309C108.372 24.7071 108.44 25.068 108.773 25.2442C109.992 25.882 111.186 26.5786 112.397 27.2416C113.958 28.106 115.527 28.962 117.087 29.818C118.963 30.8503 120.857 31.8657 122.724 32.9064C124.524 33.9135 126.408 34.7611 128.156 35.8605C128.225 35.9024 128.318 35.9192 128.336 36.0283C128.233 36.1458 128.131 36.0451 128.046 36.0032C126.417 35.1639 124.788 34.3331 123.202 33.4183C122.912 33.2505 122.588 33.1582 122.315 32.9651C121.53 32.428 120.618 32.1091 119.816 31.6224C119.296 31.3035 118.801 30.9594 118.247 30.6908C116.951 30.053 115.723 29.2809 114.452 28.6095C111.996 27.3003 109.566 25.9576 107.127 24.6148C105.174 23.5406 103.212 22.4999 101.251 21.4509C101.115 21.3754 100.978 21.2663 100.774 21.2915C101.089 21.753 101.618 21.8873 102.053 22.1391C103.264 22.844 104.5 23.5154 105.728 24.1868C107.783 25.3114 109.839 26.4275 111.902 27.5437C113.182 28.2319 114.427 28.9788 115.706 29.6502C117.394 30.5398 119.049 31.4881 120.729 32.4029C123.509 33.9135 126.297 35.4073 129.137 36.792C129.436 36.9347 129.7 37.1949 130.109 37.1613C129.973 36.8172 129.632 36.7081 129.401 36.5906C128.651 36.2046 128.259 35.4157 127.5 35.0464C127.329 34.9625 127.184 34.8282 127.031 34.7023C126.937 34.6268 126.741 34.6184 126.775 34.4674C126.809 34.3079 126.954 34.2156 127.218 34.2492C126.98 34.0142 126.809 33.8883 126.519 33.9806C126.263 34.0561 126.016 33.9806 125.82 33.8044C124.95 33.0491 123.875 32.5623 123.074 31.7231C122.443 31.0601 121.616 30.6237 120.959 29.9859C120.686 29.7173 120.567 29.3481 120.243 29.1131C119.97 28.9117 119.757 28.6767 119.407 28.534C118.844 28.3074 118.401 27.8878 118.034 27.3675C117.804 27.0402 117.573 26.7213 117.198 26.4695C116.627 26.0919 116.2 25.496 115.689 25.026C114.972 24.3714 114.213 23.7588 113.489 23.1126C112.653 22.3825 111.834 21.6271 110.998 20.897C109.805 19.848 108.756 18.6731 107.664 17.5317C107.263 17.1121 107.024 16.5918 106.615 16.1889C106.521 16.0966 106.479 15.9456 106.291 15.8952C106.291 16.147 106.53 16.2645 106.581 16.5162C105.788 15.8113 105.336 14.9301 104.85 13.9734C104.73 14.3426 104.892 14.5608 105.02 14.7874C104.833 14.8462 104.841 14.6951 104.807 14.6364C104.065 13.2516 104.176 11.934 105.165 10.7004C105.541 10.2304 105.72 9.66812 106.018 9.16458C106.811 7.77985 107.417 6.29442 108.312 4.96004C108.943 4.01171 109.915 3.67602 110.973 3.49139C112.141 3.28997 113.275 3.44943 114.35 3.86904C117.463 5.08593 120.601 6.26085 123.534 7.89735C124.558 8.46802 125.632 8.95478 126.647 9.52545C128.25 10.4318 129.871 11.3046 131.516 12.1355C133.938 13.3691 136.369 14.6028 138.791 15.8449C141.503 17.2212 144.197 18.6311 146.884 20.0578C148.026 20.662 149.169 21.2495 150.295 21.8873C150.474 21.988 150.747 22.03 150.764 22.3321C150.764 22.3825 150.951 22.4748 151.028 22.458C151.335 22.3825 151.54 22.5671 151.762 22.693C151.915 22.7769 152.179 22.7517 152.137 23.0874C152.12 23.1797 152.512 23.3224 152.708 23.4483C152.964 23.6161 153.331 23.6413 153.476 24.0357C153.109 23.977 152.853 23.7588 152.572 23.6161C151.872 23.2804 151.182 22.9028 150.491 22.5419C150.406 22.4999 150.303 22.3405 150.209 22.4916C150.116 22.651 150.303 22.7014 150.397 22.7517C151.31 23.2636 152.213 23.7756 153.126 24.2791C153.348 24.3966 153.561 24.5309 153.791 24.6148C154.618 24.9253 155.096 25.6555 155.744 26.1758C152.665 24.5645 149.578 22.9531 146.5 21.3502C146.739 21.2915 146.935 21.4593 147.182 21.4425C146.474 21.0313 145.818 20.5278 145.016 20.2928C144.641 19.9655 144.206 19.7305 143.711 19.613C144.155 19.8228 144.487 20.234 145.025 20.2844C145.093 20.511 145.323 20.5361 145.485 20.6536C145.826 20.8886 146.295 20.9558 146.517 21.3586L146.551 21.3838ZM148.606 23.2385C148.888 23.4231 149.118 23.6833 149.493 23.6749C149.493 23.7504 149.527 23.8091 149.595 23.8427C150.397 24.2791 151.207 24.7071 152.017 25.1351C152.086 25.1771 152.171 25.2023 152.256 25.0848C151.727 24.7994 151.216 24.4973 150.687 24.2455C150.286 24.0609 149.962 23.7168 149.502 23.6833C149.28 23.3811 148.964 23.2888 148.615 23.2469C148.316 22.8356 147.813 22.7853 147.404 22.5587C147.779 22.844 148.154 23.121 148.623 23.2385H148.606ZM117.258 28.727C117.147 28.5424 116.985 28.4753 116.78 28.5424C116.721 28.5592 116.678 28.6683 116.746 28.7186C116.917 28.8613 117.096 28.8697 117.266 28.7186C117.283 29.1047 117.548 29.3145 118.162 29.432C118.119 29.2977 118.162 29.0627 117.949 29.1131C117.573 29.197 117.42 28.9704 117.258 28.7354V28.727ZM152.213 26.3268C151.881 26.0835 151.557 25.8317 151.139 25.7394C151.165 25.5799 151.105 25.4708 150.951 25.4121C149.954 24.9925 149.075 24.3463 148.086 23.9182C147.839 23.7924 147.643 23.5742 147.344 23.5658C147.574 23.7168 147.719 24.0693 148.095 23.9015C148.086 24.0609 148.188 24.1532 148.308 24.2288C148.623 24.447 148.913 24.6987 149.254 24.8582C149.877 25.1603 150.406 25.6722 151.148 25.7226C151.386 26.1338 151.813 26.2093 152.231 26.3017C152.546 26.7045 153.007 26.8639 153.484 26.973C153.075 26.7297 152.708 26.4108 152.213 26.3184V26.3268ZM66.9436 33.9722C66.9094 34.3667 67.1823 34.5009 67.5149 34.652C67.4041 34.3079 67.0374 34.2492 66.9436 33.9722C66.6962 33.8967 66.5683 33.6449 66.3381 33.5526C66.2528 33.519 66.1675 33.5106 66.1078 33.5694C66.0567 33.6113 66.0908 33.6953 66.1334 33.7121C66.3892 33.8463 66.5598 34.2492 66.9521 33.9722H66.9436ZM15.154 10.3311C15.2563 10.6668 15.5803 10.8263 15.785 11.078C15.8447 11.1452 15.9129 11.078 15.9641 11.0277C15.9897 11.5144 16.4161 11.7326 16.706 12.018C18.0705 13.3943 19.4605 14.7455 20.842 16.105C20.9614 16.2225 21.0552 16.3904 21.2769 16.4071C21.2769 16.34 21.2855 16.2896 21.2684 16.2729C20.7226 15.6938 20.1854 15.1063 19.6225 14.5524C18.9744 13.9062 18.2922 13.2852 17.627 12.6474C17.0727 12.1103 16.5184 11.5732 15.9641 11.0445C15.7253 10.7843 15.5548 10.4402 15.1881 10.3059C14.9066 9.76883 14.1391 9.01352 13.7213 8.90442C13.9515 9.13941 14.1221 9.39118 14.3523 9.55063C14.6679 9.76883 14.7702 10.1968 15.1625 10.3311H15.154ZM25.4129 20.511C25.4641 20.3683 25.3703 20.2928 25.2765 20.2088C24.9269 19.8815 24.5943 19.5375 24.2617 19.1934C24.202 19.1346 24.1594 19.0507 24.0314 19.1766C24.4322 19.6801 24.8501 20.1669 25.4215 20.5026C25.8052 21.0565 26.3254 21.4677 26.8286 21.9377C26.9138 21.7782 26.8542 21.7279 26.803 21.6775C26.4619 21.3418 26.1293 20.9977 25.7796 20.6704C25.6858 20.5865 25.5835 20.469 25.4129 20.511ZM42.8694 35.6675C43.0059 36.0535 43.3811 36.1794 43.6796 36.3892C43.5176 36.0451 43.1679 35.7598 42.8609 35.6842C42.6904 35.2311 42.2896 34.9793 41.957 34.6604C41.9058 34.61 41.8035 34.5849 41.7267 34.6604C41.65 34.7443 41.7097 34.8282 41.7779 34.8702C42.1446 35.1304 42.4345 35.4996 42.8694 35.6675ZM145.101 19.8228C144.888 19.4535 144.368 19.2018 144.078 19.3528C144.359 19.3864 144.598 19.4703 144.743 19.6885C144.845 19.8396 144.982 19.7976 145.118 19.8144C145.707 20.2844 146.363 20.6285 147.08 20.8718C146.449 20.469 145.877 19.9739 145.11 19.8312L145.101 19.8228ZM43.0571 13.3272C43.0826 13.2684 43.1509 13.1929 43.1338 13.1425C43.0059 12.7901 42.6733 12.5802 42.4516 12.2949C42.3919 12.2194 42.281 12.2949 42.3237 12.404C42.4686 12.7901 42.6477 13.1593 43.0912 13.302C43.0741 13.5789 43.3385 13.6377 43.4835 13.7803C43.5432 13.8391 43.5858 13.923 43.6796 13.8307C43.7819 13.7384 43.7308 13.6377 43.654 13.5873C43.4835 13.4614 43.3214 13.2852 43.0656 13.3188L43.0571 13.3272ZM50.4763 26.8891C50.1352 26.5282 49.6661 26.3772 49.2312 26.1842C49.632 26.4443 49.9902 26.7884 50.4848 26.8807C50.7151 27.2164 51.1073 27.3255 51.4399 27.5101C51.9857 27.8123 52.4803 28.2151 53.1029 28.3578C53.7339 28.8865 54.4503 29.2641 55.2178 29.5579C56.1985 30.2293 57.2815 30.716 58.3475 31.2279C57.6482 30.7747 56.9233 30.3719 56.1814 30.0027C55.8659 29.8432 55.6015 29.5579 55.2092 29.5747C54.5782 29.0543 53.8618 28.6683 53.0943 28.3746C53.0858 28.299 53.0432 28.2571 52.9749 28.2235C52.3268 27.8626 51.6872 27.485 51.0306 27.1325C50.8515 27.0318 50.7065 26.8723 50.4678 26.8975L50.4763 26.8891ZM133.154 16.4071C133.145 16.5498 133.265 16.5834 133.358 16.6337C133.776 16.8519 134.177 17.1037 134.612 17.2715C135.098 17.4646 135.499 17.8338 136.036 17.8842C136.079 18.0604 136.249 18.094 136.377 18.1611C138.313 19.1766 140.249 20.1837 142.193 21.1824C142.415 21.2998 142.611 21.4929 142.995 21.4509C142.705 21.2747 142.5 21.1404 142.287 21.0229C140.769 20.234 139.26 19.4284 137.725 18.6647C137.17 18.3877 136.642 18.0352 136.028 17.8926C135.132 17.2715 134.134 16.8435 133.137 16.4155C132.403 15.9204 131.551 15.6267 130.792 15.1819C130.527 15.0308 130.246 14.9049 129.973 14.7622C129.973 14.863 130.007 14.9049 130.058 14.9301C130.996 15.4168 131.934 15.8952 132.864 16.382C132.958 16.4323 133.051 16.4407 133.145 16.4071H133.154ZM127.636 36.8088C127.798 36.8927 127.952 36.9767 128.114 37.0606C128.651 37.3375 129.188 37.6229 129.734 37.8914C129.836 37.9418 130.007 37.9837 130.075 37.8411C130.143 37.6816 129.939 37.6816 129.871 37.648C129.41 37.455 128.958 37.262 128.54 36.9767C128.284 36.8004 127.96 36.6913 127.628 36.8172C127.662 36.6242 127.611 36.4983 127.406 36.3976C126.69 36.0367 125.922 35.7598 125.248 35.2982C125.172 35.2478 125.121 35.2982 125.061 35.3486C124.805 35.1052 124.515 34.9205 124.148 34.8954C124.396 35.1639 124.643 35.4325 125.078 35.3402C125.078 35.6759 125.41 35.6171 125.59 35.7346C126.229 36.1626 126.928 36.5067 127.636 36.8088ZM121.232 37.9502C121.317 38.0173 121.394 38.1096 121.488 38.16C122.357 38.6299 123.236 39.0915 124.114 39.5531C124.234 39.6118 124.353 39.7377 124.515 39.6706C124.532 39.5363 124.447 39.5111 124.37 39.4692C123.449 38.9992 122.537 38.5292 121.616 38.0677C121.496 38.0089 121.377 37.9166 121.223 37.9586C121.198 37.8327 121.095 37.7823 120.993 37.732C119.731 37.0522 118.469 36.3724 117.198 35.7094C116.968 35.5919 116.78 35.3402 116.388 35.4241C116.567 35.5332 116.678 35.6087 116.797 35.6675C117.787 36.1962 118.767 36.7417 119.774 37.2536C120.251 37.497 120.686 37.8411 121.24 37.9418L121.232 37.9502ZM117.173 31.144C117.207 31.2951 117.318 31.3622 117.445 31.4294C118.213 31.849 118.98 32.277 119.756 32.6966C119.859 32.7553 120.021 32.9232 120.115 32.7385C120.217 32.5539 119.987 32.4868 119.867 32.4364C119.407 32.2518 118.972 32.0252 118.563 31.7483C118.204 31.5133 117.804 31.337 117.42 31.144C117.326 31.0937 117.224 31.0013 117.138 31.1524C117.07 31.0685 117.028 30.951 116.942 30.8922C116.064 30.3048 115.075 29.9103 114.179 29.3565C114.103 29.3061 114.009 29.3229 113.966 29.4068C113.915 29.5159 114.026 29.5579 114.085 29.5914C115.015 30.1034 115.953 30.6153 116.883 31.1272C116.985 31.186 117.079 31.2447 117.181 31.144H117.173ZM153.314 25.7813C153.203 25.3785 152.819 25.4373 152.538 25.3198C152.734 25.5967 153.041 25.6638 153.322 25.7729C153.356 25.8736 153.45 25.9072 153.535 25.9492C154.925 26.6793 156.315 27.401 157.688 28.148C158.174 28.4165 158.643 28.7102 159.206 28.8865C159.198 28.727 159.087 28.7019 159.019 28.6431C158.712 28.3913 158.319 28.3074 157.978 28.1312C156.563 27.3843 155.156 26.629 153.748 25.8653C153.612 25.7897 153.484 25.7058 153.322 25.7897L153.314 25.7813ZM53.3843 6.7476C53.3672 6.63011 53.2649 6.60493 53.1796 6.55458C52.5656 6.2021 51.9601 5.84963 51.3461 5.50554C51.2012 5.42162 51.0818 5.28734 50.8771 5.3293C51.6702 5.86641 52.4803 6.37834 53.3587 6.77278C53.3672 6.79795 53.3672 6.83992 53.3928 6.84831C54.4417 7.46934 55.4992 8.09037 56.5566 8.70301C57.7591 9.40796 58.953 10.1045 60.1554 10.8011C60.3942 10.9354 60.6074 11.1368 60.9314 11.1368C60.9058 10.9521 60.7694 10.9186 60.6671 10.8514C58.518 9.60938 56.369 8.35053 54.203 7.12525C53.9471 6.98259 53.7254 6.73082 53.3928 6.73921L53.3843 6.7476ZM127.21 40.9378C126.383 40.5182 125.555 40.0902 124.728 39.6706C124.703 39.7126 124.686 39.7545 124.66 39.7965C125.385 40.1825 126.101 40.6021 126.86 40.921C126.98 40.9714 127.099 41.005 127.218 40.921C127.159 41.1308 127.346 41.1308 127.457 41.198C128.498 41.8274 129.623 42.2806 130.715 42.8093C132.531 43.6905 134.365 44.5297 136.198 45.369C136.309 45.4193 136.428 45.5368 136.573 45.4529C136.616 45.2934 136.48 45.285 136.403 45.2515C134.825 44.5213 133.248 43.7996 131.678 43.0611C130.962 42.7254 130.254 42.3729 129.538 42.0288C128.762 41.6596 127.986 41.2903 127.21 40.921V40.9378ZM62.4153 11.9844C62.2532 11.7326 62.0059 11.6319 61.6392 11.5564C61.8951 11.8333 62.0997 12.018 62.4238 11.9676C62.3982 12.169 62.5858 12.2194 62.7052 12.2949C63.6348 12.8824 64.5728 13.453 65.5109 14.0237C67.0715 14.9888 68.6321 15.9623 70.2012 16.9275C70.3376 17.0114 70.4741 17.1792 70.6873 17.0617C70.3717 16.5078 69.6554 16.4323 69.3569 15.8784C69.3484 15.8532 69.2802 15.8449 69.2375 15.8532C68.8367 15.9036 68.5553 15.6602 68.2568 15.4672C68.0607 15.3413 67.8731 15.1986 67.6684 15.0812C66.8753 14.628 66.1163 14.116 65.3233 13.6629C64.3511 13.109 63.4471 12.4376 62.4153 11.976V11.9844ZM160.17 34.6268C160.204 34.6688 160.23 34.7359 160.272 34.7527C161.415 35.2646 162.566 35.7682 163.718 36.2633C163.931 36.3556 164.144 36.4647 164.485 36.4731C164.323 36.3808 164.238 36.3221 164.152 36.2801C163.086 35.8017 162.012 35.3234 160.937 34.8618C160.69 34.7611 160.485 34.5009 160.17 34.6268C160.213 34.417 160.008 34.4254 159.906 34.375C159.172 34.0058 158.422 33.6701 157.697 33.284C154.55 31.6224 151.42 29.9523 148.274 28.2906C148.146 28.2235 148.009 28.0976 147.822 28.1564C147.881 28.299 148.001 28.3242 148.095 28.3746C149.459 29.155 150.858 29.8768 152.248 30.6069C154.644 31.8825 157.015 33.2169 159.479 34.3667C159.701 34.4674 159.906 34.6352 160.178 34.61L160.17 34.6268ZM69.2461 34.9709C69.2461 35.1387 69.4081 35.1807 69.5104 35.2646C70.2694 35.8689 71.0199 36.4731 71.7959 37.0606C72.0944 37.2872 72.3673 37.5641 72.7425 37.69C72.7766 37.5641 72.6913 37.5473 72.6487 37.5054C71.7618 36.8004 70.8749 36.0955 69.9709 35.4157C69.7492 35.2478 69.5616 34.9961 69.2375 34.9877C69.2375 34.8366 69.1267 34.7695 69.0244 34.694C68.1204 34.0058 67.2164 33.326 66.3125 32.6295C64.3937 31.144 62.3897 29.7593 60.5221 28.2067C60.2321 27.9633 59.9422 27.7451 59.5414 27.5773C59.7119 27.8626 59.9422 28.0137 60.1554 28.1815C61.4346 29.1802 62.7052 30.1957 64.0014 31.1776C65.5023 32.3189 67.0203 33.4435 68.5468 34.5597C68.76 34.7191 68.9135 34.9961 69.2375 34.9793L69.2461 34.9709ZM155.514 28.1228C155.386 27.8291 155.104 27.7955 154.832 27.6696C154.934 28.0808 155.241 28.0724 155.522 28.1144C155.463 28.1731 155.403 28.2403 155.343 28.299H155.352C154.977 28.1983 154.661 27.9969 154.328 27.8207C152.938 27.0905 151.548 26.352 150.15 25.6219C150.082 25.5883 149.996 25.538 149.885 25.6722C153.271 27.5353 156.665 29.3648 160.144 31.0433C159.889 30.6657 159.471 30.4475 159.104 30.2964C158.209 29.9103 157.364 29.4488 156.546 28.9368C156.46 28.8865 156.384 28.8529 156.349 28.7438C156.23 28.2906 155.974 28.1144 155.505 28.1396L155.514 28.1228ZM52.5059 22.5251C52.378 22.6594 52.4718 22.7349 52.5656 22.8272C53.0005 23.2133 53.4269 23.6161 53.8618 23.9938C55.7806 25.6638 57.7591 27.2668 59.7461 28.8529C60.0872 29.1299 60.4027 29.4488 60.8461 29.6166C60.8803 29.4739 60.94 29.3565 60.795 29.239C60.3942 28.9117 59.9763 28.5928 59.5755 28.2571C59.2514 27.9885 58.7653 27.913 58.5607 27.4766C58.5522 27.4514 58.4839 27.443 58.4413 27.443C58.2537 27.4178 58.1428 27.2919 58.0831 27.1241C58.0405 26.9982 57.9723 26.8975 57.8443 26.8555C57.4094 26.7129 57.1792 26.3184 56.8381 26.0583C56.2582 25.6219 55.738 25.11 55.1495 24.6652C54.834 24.4302 54.4844 24.1952 54.2285 23.9266C53.7766 23.4567 53.2308 23.0958 52.7959 22.6007C52.7191 22.5167 52.5997 22.4328 52.4633 22.5419C52.5486 22.2146 52.2671 22.1307 52.0881 21.9712C51.7555 21.6943 51.3973 21.4257 51.1159 21.1068C50.9709 20.9474 50.8515 20.7963 50.6554 20.7208C50.5616 20.6872 50.4507 20.6704 50.4166 20.5697C50.246 20.0746 49.7599 19.8732 49.4103 19.5542C49.1545 19.3193 48.8475 19.0927 48.6513 18.8409C48.0459 18.0856 47.2528 17.5149 46.6217 16.7848C46.3232 16.4407 46.0162 16.0798 45.6581 15.7945C45.3511 15.5511 45.1293 15.249 44.8905 14.9469C44.8394 14.8797 44.7456 14.7455 44.6177 14.8881C44.5153 14.9888 44.5409 15.0812 44.6177 15.1819C44.6688 15.249 44.72 15.3161 44.7797 15.3749C45.496 16.105 46.2038 16.8435 46.9202 17.5653C47.5939 18.2367 48.2932 18.8913 48.9669 19.571C49.939 20.5361 50.9624 21.4593 52.0028 22.3573C52.1477 22.4832 52.2842 22.5839 52.4889 22.5419L52.5059 22.5251ZM115.126 33.3596C114.751 32.9651 114.213 32.8393 113.761 32.5707C113.088 32.1763 112.388 31.8154 111.681 31.421C111.664 31.572 111.732 31.5972 111.783 31.6308C112.789 32.193 113.804 32.7553 114.81 33.3176C114.921 33.3764 115.024 33.3764 115.134 33.3428C115.126 33.5694 115.331 33.5946 115.458 33.6701C116.976 34.4925 118.511 35.2898 120.021 36.129C121.82 37.1277 123.654 38.0677 125.487 39.0076C126.945 39.7545 128.438 40.4343 129.913 41.156C130.331 41.3658 130.732 41.6512 131.261 41.7519C131.099 41.5337 130.911 41.4498 130.723 41.3574C129.777 40.8959 128.813 40.4427 127.875 39.9643C125.965 38.9908 124.055 38.0173 122.161 37.027C120.345 36.0787 118.554 35.0884 116.746 34.1401C116.217 33.8631 115.74 33.4939 115.134 33.368L115.126 33.3596ZM41.9996 10.9857C41.812 10.5661 41.5135 10.2388 41.1553 9.95346C41.4027 10.3227 41.5988 10.7339 42.0081 10.9773C41.9826 11.1368 42.0849 11.2375 42.1787 11.3298C42.7245 11.9005 43.2276 12.5047 43.7393 13.109C45.1464 14.7622 46.6899 16.298 48.2505 17.817C50.5701 20.083 52.9664 22.2734 55.4821 24.3379C55.8318 24.6232 56.1217 25.0176 56.6334 25.1771C56.5822 24.8246 56.3349 24.6819 56.1302 24.5141C54.5185 23.2385 53.0091 21.8453 51.474 20.4774C49.7514 18.9332 48.0629 17.3471 46.4597 15.677C45.2828 14.4517 44.0804 13.2432 42.9803 11.9508C42.6904 11.6067 42.4686 11.1787 42.0081 10.9857H41.9996ZM114.256 30.0698C113.787 29.8096 113.344 29.5075 112.832 29.3397C113.292 29.6166 113.685 30.0278 114.273 30.0614C114.29 30.2293 114.427 30.288 114.546 30.3551C115.501 30.8922 116.422 31.4797 117.386 32.0084C119.432 33.1162 121.505 34.1652 123.509 35.3402C124.464 35.9024 125.53 36.2633 126.485 36.8088C127.559 37.4131 128.685 37.9334 129.777 38.5041C130.28 38.7642 130.911 38.8314 131.167 39.5195C131.201 39.3433 131.124 39.1083 131.38 39.2845C131.44 39.3181 131.516 39.3265 131.576 39.3517C131.67 39.3936 131.789 39.5111 131.866 39.3769C131.943 39.2342 131.806 39.1587 131.687 39.0999C131.61 39.0663 131.533 39.0244 131.465 38.9908C130.007 38.2859 128.54 37.5977 127.099 36.8676C124.097 35.3486 121.121 33.7708 118.162 32.1679C116.866 31.4629 115.561 30.7748 114.256 30.0782V30.0698ZM138.288 36.9179C138.219 36.6997 137.98 36.6913 137.853 36.5487C137.699 36.4144 137.554 36.2633 137.384 36.1458C136.104 35.2143 134.8 34.3163 133.546 33.3512C131.977 32.1511 130.408 30.9594 128.796 29.8096C126.997 28.5256 125.325 27.0821 123.594 25.7142C122.289 24.6819 121.019 23.5909 119.739 22.5335C119.586 22.4076 119.407 22.3489 119.236 22.2734C118.946 22.1475 118.58 21.9628 118.469 21.7111C118.358 21.4593 118.23 21.4006 118.017 21.3334C117.889 21.2915 117.77 21.1991 117.659 21.1152C116.362 20.1081 115.151 19.0087 113.932 17.9178C113.804 17.8003 113.702 17.6576 113.48 17.6156C115.066 19.9235 137.716 37.7152 139.26 37.8746C139.191 37.732 139.038 37.7152 138.936 37.6313C138.697 37.4215 138.356 37.2956 138.296 36.9263L138.288 36.9179ZM14.3097 8.36732C14.2244 8.89603 14.6338 9.13941 14.9322 9.39957C15.3842 9.78561 15.7765 10.2388 16.1517 10.6668C16.8425 11.4557 17.6526 12.1187 18.3434 12.8992C18.6418 13.2348 19.0768 13.4782 19.3497 13.8139C19.8272 14.393 20.4412 14.8042 20.9102 15.3917C21.3793 15.9791 22.0445 16.4155 22.5305 17.0114C23.1104 17.7247 23.8779 18.2618 24.5005 18.95C25.1315 19.655 25.899 20.2424 26.5727 20.9138C27.1356 21.4761 27.7325 22.0132 28.3551 22.5251C28.8241 22.9112 29.242 23.4231 29.7025 23.8343C30.6917 24.7155 31.5786 25.6974 32.5678 26.587C33.4547 27.3927 34.3842 28.1731 35.2114 29.0459C35.544 29.3984 35.9704 29.5998 36.2945 29.9607C36.7635 30.4978 37.3434 30.9342 37.8807 31.4126C37.8892 31.421 37.9062 31.4294 37.9148 31.4294C38.0171 31.4629 38.1194 31.572 38.2218 31.4545C38.3412 31.3202 38.1791 31.2363 38.1109 31.1944C37.7016 30.9006 37.4116 30.4894 37.0364 30.1621C35.9448 29.2306 34.9215 28.2235 33.8555 27.2668C32.8748 26.3772 31.9112 25.4624 30.9646 24.5393C29.6939 23.2972 28.3636 22.1139 27.1185 20.8467C26.3254 20.041 25.4641 19.2941 24.6625 18.4968C23.1531 17.003 21.6607 15.4924 20.1683 13.9902C19.3411 13.1593 18.4372 12.3956 17.6441 11.5312C16.9192 10.7339 16.0408 10.0877 15.4268 9.18976C15.154 8.78693 14.7787 8.51838 14.3267 8.35053L14.3097 8.36732ZM85.7986 29.0208C85.7219 28.8529 85.6536 28.811 85.5854 28.7606C84.7923 28.1731 83.8969 27.7451 83.0356 27.2752C79.7268 25.454 76.4692 23.5574 73.22 21.6271C69.4848 19.4116 65.7923 17.1289 62.0656 14.8881C60.036 13.6712 58.0064 12.4628 55.9597 11.2627C54.2456 10.2556 52.5315 9.24851 50.8089 8.26661C50.374 8.01484 49.9476 7.7295 49.4274 7.62879C49.8111 7.92252 50.2034 8.18268 50.6213 8.42606C53.2052 9.9115 55.7977 11.3718 58.3645 12.8824C60.6671 14.2419 62.9525 15.635 65.2209 17.045C69.4081 19.655 73.6464 22.1726 77.9189 24.6316C79.94 25.7897 81.9526 26.9646 83.9822 28.0976C84.545 28.4165 85.0993 28.769 85.7901 29.0208H85.7986ZM137.094 18.8745C141.187 21.0145 145.187 23.3056 149.314 25.3701C149.348 25.3114 149.382 25.2442 149.416 25.1855C145.314 23.0706 141.264 20.8634 137.102 18.8745H137.094ZM120.149 34.8954C123.509 36.8256 126.945 38.5964 130.493 40.1657C127.048 38.4117 123.62 36.6074 120.149 34.8954ZM166.498 27.7367C166.498 27.4766 166.446 27.401 166.353 27.3255C165.466 26.6122 164.596 25.882 163.7 25.1855C162.447 24.2036 161.219 23.1797 160.059 22.0887C159.88 21.9209 159.744 21.6775 159.411 21.8034C161.56 24.0022 164.178 25.6303 166.498 27.7451V27.7367ZM65.5962 33.326C65.5962 33.326 65.6814 33.2924 65.6985 33.2673C65.7411 33.2001 65.7326 33.1246 65.6729 33.0826C65.5109 32.9567 65.4 32.7721 65.1783 32.705C64.6922 32.5623 64.5643 31.8574 63.9418 31.9077C63.9418 31.9077 63.9247 31.8909 63.9162 31.8741C63.6774 31.2615 63.0037 31.1272 62.5773 30.716C62.2873 30.4307 61.8951 30.2544 61.6137 29.9607C61.4772 29.8096 61.3408 29.7761 61.2555 29.8684C61.1446 29.9859 61.3152 30.0698 61.409 30.1453C61.9207 30.5482 62.4323 30.9594 62.9525 31.3538C63.7371 31.9497 64.5216 32.5455 65.3062 33.133C65.3915 33.2001 65.4938 33.2589 65.5876 33.3176L65.5962 33.326ZM159.931 20.0662C161.91 22.2566 164.289 23.9686 166.651 25.7058C164.451 23.784 162.114 22.0132 159.931 20.0662ZM184.193 21.9461C185.139 22.3908 186.154 22.6258 187.126 22.9531C187.22 22.9867 187.374 23.0538 187.374 23.079C187.288 23.4567 187.596 23.314 187.732 23.3224C188.252 23.3476 188.755 23.4231 189.25 23.5574C189.531 23.6329 189.813 23.784 190.128 23.7252C188.175 23.0203 186.197 22.4328 184.184 21.9461H184.193ZM58.9871 31.5468C60.8461 32.5707 62.6967 33.6197 64.6922 34.3918C62.8161 33.3931 60.8973 32.4868 58.9871 31.5468ZM38.7505 31.7986C38.7505 31.7986 38.6993 31.8574 38.6737 31.8825C39.0746 32.1343 39.1939 32.6127 39.5606 32.8896C39.9956 33.2253 40.5158 33.4771 40.8228 33.9722C40.8739 34.0645 41.0104 34.2324 41.1553 34.0729C41.2747 33.9386 41.1042 33.8547 41.0274 33.7792C40.6352 33.4351 40.2514 33.0826 39.8762 32.7218C39.5265 32.3861 39.1343 32.0923 38.759 31.7818L38.7505 31.7986ZM162.029 27.3171C161.995 27.3591 161.952 27.4094 161.918 27.4514C163.095 28.3829 164.263 29.3145 165.44 30.2376C165.466 30.2041 165.491 30.1789 165.517 30.1453C164.408 29.1383 163.231 28.2151 162.038 27.3171H162.029ZM130.587 34.8031C130.45 34.3415 128.702 33.0742 128.327 33.1078C129.094 33.6785 129.836 34.2408 130.587 34.8031ZM147.668 21.2915C148.47 21.5936 149.092 22.1475 149.868 22.4244C149.945 22.4496 150.005 22.4748 150.047 22.416C150.133 22.2901 149.988 22.2985 149.928 22.265C149.348 21.8286 148.64 21.6188 148.018 21.2495C147.915 21.1907 147.813 21.1572 147.66 21.3082L147.668 21.2915ZM21.5072 16.6169C22.0786 17.389 22.7778 18.0269 23.5454 18.6059C22.9313 17.8842 22.2747 17.196 21.5072 16.6169ZM141.596 39.5699C141.46 39.3517 141.255 39.251 141.085 39.1251C140.616 38.781 140.138 38.4453 139.669 38.1012C139.592 38.0425 139.55 37.8578 139.422 38.0005C139.302 38.1348 139.464 38.1852 139.55 38.2439C140.104 38.6551 140.667 39.0663 141.221 39.4776C141.315 39.5447 141.409 39.6538 141.605 39.5783L141.596 39.5699ZM183.152 18.8661C183.152 18.8661 183.127 18.9332 183.118 18.9668C184.227 19.3109 185.336 19.6466 186.444 19.9906C186.461 19.9487 186.47 19.9067 186.487 19.8564C185.378 19.5291 184.27 19.1934 183.152 18.8661ZM193.719 22.1055C192.798 21.7362 191.936 21.5264 191.083 21.2998C191.425 21.5432 193.292 22.1139 193.719 22.1055ZM133.154 39.402C133.026 39.2678 132.992 39.2342 132.949 39.1922C132.702 38.9405 132.241 39.058 132.079 38.6551C132.037 38.5544 131.875 38.6551 131.781 38.7055C131.687 38.7474 131.747 38.8398 131.798 38.8649C132.199 39.0496 132.548 39.3685 133.154 39.3936V39.402ZM162.276 31.9497C162.669 32.2602 163.112 32.47 163.564 32.663C163.624 32.6882 163.7 32.7302 163.752 32.663C163.811 32.5791 163.752 32.5036 163.675 32.4616C163.24 32.2182 162.771 32.0756 162.285 31.9581L162.276 31.9497ZM125.052 32.6798C124.745 32.3357 124.362 32.084 123.969 31.849C123.884 31.7986 123.807 31.6643 123.679 31.765C123.654 31.7902 123.62 31.8406 123.628 31.8658C123.671 31.9832 123.773 32.042 123.893 32.0168C124.089 31.9749 124.217 32.1175 124.259 32.2266C124.404 32.6043 124.745 32.6043 125.052 32.6798ZM132.395 39.9727C132.889 40.3755 133.452 40.6357 134.066 40.7784C133.572 40.3755 132.923 40.2832 132.395 39.9727ZM146.96 48.4909C146.491 48.0041 145.954 47.5929 145.331 47.2908C145.792 47.7859 146.406 48.0965 146.96 48.4909ZM161.688 31.6811C161.279 31.3958 160.844 31.1692 160.358 31.0937C160.775 31.3538 161.159 31.6895 161.688 31.6811ZM47.7559 6.60493C47.7559 6.60493 47.7047 6.67207 47.6792 6.70564C48.1738 6.97419 48.6684 7.25114 49.1545 7.51969C49.1801 7.47773 49.1971 7.44416 49.2227 7.4022C48.7366 7.13365 48.242 6.86509 47.7559 6.59654V6.60493ZM161.748 30.9678C161.594 30.6908 161.321 30.6237 161.117 30.4726C161.04 30.4139 160.92 30.3719 160.852 30.4726C160.784 30.5817 160.861 30.7076 160.955 30.7496C161.185 30.8587 161.415 30.993 161.748 30.9762V30.9678ZM68.5468 35.3653C68.3251 35.0129 68.0181 34.8031 67.7111 34.8031C67.9498 35.0464 68.1716 35.273 68.5468 35.3653ZM158.524 8.94638C158.976 9.09744 159.701 9.13101 159.991 9.01352C159.692 8.89603 159.078 8.86246 158.524 8.94638ZM83.7519 11.0277C83.3511 10.5997 83.0356 10.4234 82.7115 10.4486C83.0527 10.6752 83.3682 10.9018 83.7519 11.0277ZM79.181 24.1281C78.8228 23.8511 78.4476 23.6161 78.0042 23.4902C78.3538 23.784 78.7546 23.977 79.181 24.1281ZM166.864 10.7759C166.864 10.7759 166.89 10.692 166.898 10.65C166.472 10.5325 166.046 10.415 165.611 10.2975C165.602 10.3395 165.585 10.3731 165.577 10.415C165.977 10.6248 166.421 10.6752 166.856 10.7759H166.864ZM121.206 33.368C121.351 33.6701 121.718 33.5946 121.897 33.8044C121.897 33.8044 121.974 33.7792 121.991 33.754C122.059 33.6785 122.008 33.6365 121.948 33.5946C121.735 33.4435 121.513 33.3176 121.206 33.368ZM189.088 20.7376C189.514 20.8467 189.898 21.1152 190.359 21.0816C189.949 20.897 189.557 20.6872 189.088 20.7376ZM115.1 20.9893C114.819 20.7208 114.606 20.3767 114.213 20.234C114.435 20.5613 114.759 20.7963 115.1 20.9893ZM116.158 21.9293C116.286 22.2566 116.584 22.3908 116.874 22.5419C116.695 22.2734 116.456 22.0719 116.158 21.9293ZM123.261 28.1731C123.125 27.8542 122.741 27.8374 122.545 27.5941C122.673 27.9214 122.954 28.064 123.261 28.1731ZM81.0145 17.1708C81.0998 17.431 81.2789 17.5233 81.4665 17.5905C81.5176 17.6072 81.5773 17.5401 81.5603 17.4814C81.5176 17.2632 81.2959 17.2632 81.1509 17.1792C81.1339 17.1708 81.0998 17.1792 81.0145 17.1792V17.1708ZM47.7133 25.3617C47.5171 25.0932 47.2528 24.9337 46.9031 24.8918C47.1675 25.0512 47.4404 25.2023 47.7133 25.3617ZM130.655 38.3278C130.86 38.4369 131.039 38.5208 131.226 38.6216C131.235 38.2187 131.133 38.16 130.655 38.3278ZM113.787 29.2893C113.582 29.0963 113.378 28.9201 113.096 28.9201C113.344 29.0292 113.48 29.3145 113.787 29.2893ZM67.08 11.7746C67.2932 11.9424 67.5234 12.1187 67.7537 12.3033C67.4979 12.1606 67.3785 11.8669 67.08 11.7746ZM44.882 23.7084C44.4897 23.3056 44.4386 23.272 44.0292 23.2217C44.3618 23.4147 44.6177 23.5574 44.882 23.7084ZM21.1917 8.43445C21.0041 8.19108 20.7738 8.01484 20.4156 7.88056C20.6544 8.17429 20.9017 8.33375 21.1917 8.43445ZM66.7986 11.4557C66.611 11.2878 66.4234 11.1116 66.2357 10.9438C66.3125 11.2291 66.4831 11.4137 66.7986 11.4557ZM76.4862 22.6007C76.7079 22.7853 76.9211 22.9783 77.2196 23.0287C77.0149 22.8189 76.7591 22.693 76.4862 22.6007ZM38.7846 20.1081C38.7846 20.1081 38.8187 20.0494 38.8358 20.0242C38.597 19.8815 38.3582 19.7389 38.1194 19.5962C38.1024 19.6214 38.0853 19.6466 38.0683 19.6717C38.3071 19.8144 38.5458 19.9655 38.7761 20.1081H38.7846ZM128.523 14.1412C128.77 14.2587 129.018 14.3846 129.265 14.5021C129.077 14.2755 128.83 14.158 128.523 14.1412Z" fill="black"/>
<path fill-rule="evenodd" clip-rule="evenodd" d="M204.677 22.7012C201.01 21.543 197.334 20.3849 193.625 19.2184C194.094 19.1093 201.999 21.5514 204.677 22.7012Z" fill="black"/>
<path fill-rule="evenodd" clip-rule="evenodd" d="M200.012 21.9207C201.521 22.3907 203.039 22.8523 204.549 23.3223C204.643 23.3474 204.736 23.3726 204.796 23.4649H204.805C204.651 23.5824 204.481 23.5153 204.327 23.4649C202.971 23.0369 201.615 22.6005 200.259 22.1641C200.149 22.1306 199.944 22.1389 200.021 21.9124L200.012 21.9207Z" fill="black"/>
<path fill-rule="evenodd" clip-rule="evenodd" d="M204.796 23.4649C205.7 23.6411 206.553 23.9852 207.431 24.2538C207.764 24.3545 208.131 24.4048 208.463 24.6146C208.045 24.7405 207.755 24.4888 207.431 24.4048C206.655 24.2118 205.888 23.96 205.129 23.7083C205.009 23.6663 204.916 23.5404 204.805 23.4481L204.796 23.4565V23.4649Z" fill="black"/>
<path fill-rule="evenodd" clip-rule="evenodd" d="M211.712 25.7476C211.022 25.5462 210.297 25.4371 209.691 25.0259C210.39 25.1937 211.09 25.3784 211.712 25.7476Z" fill="black"/>
<path fill-rule="evenodd" clip-rule="evenodd" d="M90.7533 23.2886C90.4037 23.2299 90.182 22.9613 89.9176 22.7851C89.4912 22.4997 89.0904 22.164 88.7067 21.8199C89.0734 21.8955 89.3292 22.164 89.5936 22.3738C89.9773 22.6844 90.4719 22.8606 90.7533 23.297L90.7619 23.2886H90.7533Z" fill="black"/>
<path fill-rule="evenodd" clip-rule="evenodd" d="M200.95 23.876C201.377 23.9432 201.829 23.8173 202.246 24.0187C202.323 24.0607 202.408 24.0858 202.391 24.1866C202.374 24.2957 202.263 24.3796 202.178 24.3208C201.803 24.0858 201.291 24.2033 200.959 23.8593L200.95 23.8676V23.876Z" fill="black"/>
<path fill-rule="evenodd" clip-rule="evenodd" d="M172.731 39.5529C172.902 39.4858 172.842 39.276 173.004 39.276C173.115 39.276 173.115 39.3767 173.132 39.4522C173.158 39.5949 173.226 39.7544 172.987 39.8047C172.859 39.8299 172.774 40.0984 172.621 39.9138C172.51 39.7879 172.518 39.5697 172.382 39.4355C172.424 39.4019 172.459 39.3599 172.51 39.3431C172.706 39.276 172.629 39.5194 172.74 39.5613L172.731 39.5529Z" fill="black"/>
<path fill-rule="evenodd" clip-rule="evenodd" d="M120.533 30.9424C120.916 30.9005 121.172 31.1858 121.471 31.3369C121.803 31.5047 122.187 31.6222 122.4 31.9663C121.778 31.6222 121.104 31.3705 120.541 30.9257L120.533 30.9341V30.9424Z" fill="black"/>
<path fill-rule="evenodd" clip-rule="evenodd" d="M198.068 21.3332C198.75 21.4339 199.373 21.7109 200.021 21.9207L200.029 21.9123C199.304 21.9626 198.673 21.7025 198.085 21.3248H198.076L198.068 21.3332Z" fill="black"/>
<path fill-rule="evenodd" clip-rule="evenodd" d="M119.705 30.3213C119.961 30.5563 120.362 30.5899 120.524 30.9424L120.533 30.934C119.995 30.7745 119.526 30.464 119.032 30.2038C119.142 30.1031 119.245 29.994 119.39 30.1787C119.467 30.2794 119.594 30.3213 119.714 30.3297H119.697L119.705 30.3213Z" fill="black"/>
<path fill-rule="evenodd" clip-rule="evenodd" d="M193.13 18.9499C192.636 18.9247 192.175 18.7736 191.749 18.5219C192.209 18.6645 192.67 18.8072 193.13 18.9499Z" fill="black"/>
<path fill-rule="evenodd" clip-rule="evenodd" d="M185.873 18.1273C186.368 18.2112 186.862 18.3036 187.289 18.5805C186.82 18.4294 186.35 18.2784 185.873 18.1273Z" fill="black"/>
<path fill-rule="evenodd" clip-rule="evenodd" d="M212.804 26.1C212.488 26.1168 212.215 26.0077 211.951 25.8398C212.258 25.8566 212.565 25.8398 212.804 26.1Z" fill="black"/>
<path fill-rule="evenodd" clip-rule="evenodd" d="M173.499 38.764C173.388 38.9151 173.755 39.1501 173.473 39.192C173.294 39.2256 173.32 38.9235 173.303 38.7556C173.294 38.6549 173.303 38.5374 173.431 38.5458C173.584 38.5542 173.525 38.6717 173.499 38.764Z" fill="black"/>
<path fill-rule="evenodd" clip-rule="evenodd" d="M211.891 29.3898C212.326 29.138 212.625 29.566 213 29.5828C212.599 29.6584 212.284 29.3394 211.891 29.3898Z" fill="black"/>
<path fill-rule="evenodd" clip-rule="evenodd" d="M190.708 17.7078C190.384 17.6155 190.154 17.5567 189.932 17.498C190.196 17.4225 190.435 17.4309 190.708 17.7078Z" fill="black"/>
<path fill-rule="evenodd" clip-rule="evenodd" d="M138.288 36.9177C138.023 37.1107 137.938 36.8002 137.767 36.7415C137.546 36.666 137.367 36.5317 137.188 36.2799C137.469 36.3219 137.657 36.431 137.853 36.5485C137.981 36.6911 138.228 36.7079 138.288 36.9177Z" fill="black"/>
<path fill-rule="evenodd" clip-rule="evenodd" d="M119.586 22.6172C119.799 22.7682 120.063 22.8522 120.132 23.02C119.995 22.9193 119.791 22.7682 119.586 22.6172Z" fill="black"/>
<path fill-rule="evenodd" clip-rule="evenodd" d="M155.343 28.2988C155.616 28.282 155.872 28.3156 156.085 28.6345C155.761 28.5674 155.531 28.4918 155.352 28.2904L155.343 28.2988Z" fill="black"/>
</g>
<defs>
<clipPath id="clip0_4930_9595">
<rect width="213" height="51" fill="white"/>
</clipPath>
</defs>
</svg>
