<svg width="51" height="57" viewBox="0 0 51 57" fill="none" xmlns="http://www.w3.org/2000/svg">
<path d="M50.2262 40.7115C50.08 38.1255 50.2196 34.8083 48.8369 32.6345C48.3649 31.8966 47.8464 31.285 47.7001 31.0856C47.5672 30.9127 47.7001 30.7532 47.7666 30.5936C47.8331 29.9156 47.3943 29.3306 46.9157 28.3799C44.0572 23.4805 40.1948 19.0997 35.7608 14.8252C33.8728 13.1632 34.5974 11.7273 35.4815 9.79946C36.02 8.27713 36.4056 6.68831 36.9241 5.05961C37.3296 3.64364 37.9612 1.70915 36.6449 0.618921C34.1055 -1.0962 31.3201 2.02161 28.6942 2.12797C27.6239 2.0349 26.9924 0.951318 26.168 0.379612C25.5697 -0.0857305 24.7986 -0.112336 24.1338 0.239995C22.5783 0.951304 21.395 3.19162 19.7397 3.75668C17.998 4.48793 16.2762 3.21153 14.8536 2.26755C10.732 -0.192117 10.6722 4.49456 12.1812 7.26667C13.1252 9.85264 16.2097 12.5317 13.165 14.7055C7.75378 19.3257 3.36627 25.0428 1.36529 31.7902C0.0290957 36.8026 -0.941461 42.4598 1.50491 47.2263C7.09567 55.6091 18.5763 56.9519 27.9563 56.9985C32.0247 57.0317 36.4322 56.5265 40.1416 54.9177C45.5928 52.5378 50.552 47.1399 50.213 40.8511V40.7248L50.2262 40.7115ZM43.5652 46.1028C39.6563 50.8692 32.756 52.0393 26.8594 52.2254C23.3029 52.3584 19.6998 52.478 16.3227 51.2482C11.4233 49.7591 4.60939 47.2662 4.39667 41.1635C4.40996 33.9108 7.9931 21.5261 14.5611 17.6771C17.526 15.8556 21.0094 16.5802 24.3266 16.6932C26.64 16.866 29.1263 16.3475 31.2935 17.338C34.0589 18.867 36.2394 21.7255 38.2936 23.9259C39.437 25.2089 40.6801 26.5185 41.6573 27.9146C43.0733 30.3011 44.0704 32.7807 45.061 35.3534C46.324 38.8834 45.7723 42.9983 43.6184 46.0164L43.5586 46.0962L43.5652 46.1028ZM44.8881 33.1264C44.7485 33.0068 44.569 32.5215 44.3098 32.2423C44.1569 32.0894 43.9043 32.1359 43.8444 32.0628C43.7846 32.0229 43.8444 31.8501 43.8909 31.6706C43.9109 31.6174 43.8909 31.285 43.9508 31.3382C44.2366 31.7836 44.7219 32.5547 44.9346 33.02C44.9612 33.0998 44.9546 33.153 44.928 33.1464L44.8881 33.1198V33.1264ZM43.04 30.002C43.2993 30.3078 43.6982 30.8529 43.8976 31.2119C43.6051 30.926 43.2727 30.3011 43.0201 29.9754L43.04 30.002ZM33.3676 5.47177C33.2413 7.01405 31.8386 10.2316 30.981 11.8869C29.8243 14.2069 27.3314 15.6561 24.7122 15.6295C21.2288 15.4434 17.7055 13.2895 16.7549 9.81277C16.4557 8.87544 16.0103 8.07106 16.5488 7.44617C17.034 6.96753 19.0683 7.33982 20.2316 6.87448C21.6609 6.49555 22.924 5.1128 24.2469 5.97701C24.9781 6.4224 25.7426 7.6456 26.7464 7.97798C27.9297 8.43003 29.1396 7.77853 30.0902 7.08717C31.2004 6.35592 33.0817 4.54111 33.3676 5.41862V5.47842V5.47177ZM16.5155 8.60287C16.5155 8.60287 16.4756 8.73582 16.469 8.88207C16.4956 9.08815 16.6684 9.21448 16.7748 9.36738C16.4823 9.22113 16.356 8.69592 16.1565 8.41672C16.0768 8.27711 16.0435 8.19736 16.1233 8.26383C16.2297 8.3569 16.3626 8.46992 16.469 8.56299L16.5155 8.60287ZM48.4513 32.8738C48.6109 33.1597 48.9167 33.8975 49.0164 34.1834C48.8568 33.9507 48.438 32.9868 48.4048 32.8007L48.4447 32.8738H48.4513Z" fill="black"/>
<path d="M31.7656 37.2481C29.8111 35.1674 25.5566 35.1408 25.3305 31.6773C25.1843 30.1483 25.1245 27.6554 25.8823 27.097C26.7332 26.5054 27.8101 27.5158 28.6876 27.5357C30.2964 27.5224 29.6848 25.1758 29.0865 24.2983C28.3353 23.0419 26.9393 22.4635 26.1815 21.606C25.5566 21.0874 25.1909 19.8111 24.3267 19.7778C23.4825 20.1568 23.0304 21.36 22.3457 22.0048C21.5945 22.8557 20.3913 23.3876 19.2877 24.1055C17.9715 24.9764 16.8214 26.0998 16.1367 27.4959C14.6742 30.2547 15.7112 33.7049 18.2773 35.4532C19.5669 36.457 21.3818 36.9025 22.246 38.3716C23.0902 39.9272 23.8547 44.6471 21.2156 44.1551C20.2184 44.0288 19.0085 43.4039 18.018 43.5502C17.1405 43.6233 17.0541 44.554 17.4796 45.1988C18.4235 46.8076 20.4179 47.253 21.9003 48.2036C23.0304 48.9482 23.7617 50.3109 24.3134 50.2245C24.8785 50.1115 25.2707 49.5465 25.7494 49.234C27.0324 48.3366 28.8472 48.9814 30.2233 48.177C34.0856 46.3356 35.249 40.233 31.8254 37.3146L31.7523 37.2415L31.7656 37.2481ZM27.398 43.7164C26.6734 44.0022 25.3039 44.1352 25.2175 43.0715C25.2574 42.2804 25.2175 41.4561 25.0779 40.6252C25.0713 39.967 24.8187 38.9765 25.5233 38.6774C27.4179 38.5311 30.21 40.0402 29.8311 42.1342C29.7779 42.4334 29.5253 42.4866 29.2859 42.5996C28.7009 42.799 28.0428 43.4704 27.4977 43.6765L27.4046 43.7164H27.398ZM23.0105 29.0648C23.0969 29.7761 22.7911 31.7438 22.6116 32.4219C22.3657 32.834 21.7806 32.6678 21.3153 32.5349C20.019 31.9698 19.2545 30.0686 20.3846 28.9717C20.8433 28.2205 21.3951 27.1037 22.4188 27.1768C22.8509 27.2698 22.9174 28.2869 23.0038 28.9451L23.0171 29.0648H23.0105ZM22.7512 32.7808C22.7512 32.7675 22.7512 32.7476 22.7379 32.7343L22.7579 32.7476C22.7978 32.7675 22.8177 32.8008 22.8376 32.8407C22.811 32.8207 22.7845 32.8008 22.7512 32.7875V32.7808ZM29.512 47.1732C29.4189 47.1799 29.0134 47.366 29.0267 47.3461C29.5452 47.1068 30.2299 46.7278 30.7219 46.3755C30.8548 46.3755 30.5823 46.6148 30.3562 46.781C30.1834 46.894 29.8111 47.3128 29.5918 47.1799H29.5186L29.512 47.1732Z" fill="black"/>
<path d="M27.1451 17.4777C27.2847 17.0988 26.7795 17.0124 26.4537 17.0057C25.7956 16.8528 24.4129 17.3713 24.0605 17.6306C24.4661 17.6638 25.9551 17.6306 26.5003 17.6439C26.7994 17.6372 27.0055 17.6638 27.1052 17.5442L27.1451 17.4843V17.4777Z" fill="black"/>
<path d="M17.6189 41.7552C16.6749 41.7552 16.0168 42.7723 15.5381 43.4571C15.4849 43.5435 15.5049 43.5435 15.5913 43.4969C15.7642 43.3972 16.163 43.1712 16.6151 42.9119C17.4394 42.4267 18.523 41.855 18.5562 41.7752C18.503 41.722 17.9047 41.7419 17.7319 41.7419H17.6255L17.6189 41.7552Z" fill="black"/>
</svg>
