<svg width="139" height="36" viewBox="0 0 139 36" fill="none" xmlns="http://www.w3.org/2000/svg">
<path d="M22.311 11.2145C22.3514 11.3942 22.3627 11.537 22.345 11.6429C22.3511 11.7208 22.3443 11.7997 22.3246 11.8796C22.3307 11.9575 22.3379 12.0484 22.3462 12.1522C22.3524 12.2301 22.3886 12.3578 22.455 12.5354C21.9798 13.4613 21.3922 14.1218 20.6921 14.517C20.0159 14.8841 19.2686 15.1785 18.4502 15.4002C17.6298 15.5959 16.7845 15.8066 15.9142 16.0324C15.0698 16.2562 14.2399 16.6616 13.4244 17.2488C13.0767 17.1457 12.7651 17.1705 12.4899 17.3229C12.2406 17.4733 11.8543 17.5431 11.3309 17.5324C11.1875 17.7005 11.0021 17.8328 10.7746 17.9292C10.5451 17.9997 10.3166 18.0831 10.0892 18.1795C10.2115 18.4049 10.2701 18.6485 10.2647 18.9101C10.2832 19.1438 10.3376 19.3354 10.4279 19.485C11.3426 19.4908 12.3411 19.3985 13.4232 19.2081C14.5312 19.0157 15.6164 18.8643 16.6787 18.7539C16.7149 18.8817 16.7092 18.9736 16.6614 19.0296C16.6115 19.0597 16.6037 19.1256 16.6379 19.2274C16.8299 19.3428 17.025 19.4971 17.2232 19.6904C17.4193 19.8577 17.6155 20.025 17.8116 20.1923C18.0077 20.3596 18.2018 20.5009 18.3938 20.6163C18.6098 20.7037 18.8465 20.7241 19.104 20.6775C19.2244 20.877 19.3078 21.1054 19.3543 21.363C19.4248 21.5925 19.4184 21.8412 19.3352 22.109C18.9425 22.4275 18.5508 22.759 18.1601 23.1035C17.7674 23.422 17.3467 23.7166 16.898 23.9874C16.4752 24.256 16.0104 24.4888 15.5035 24.6858C15.0206 24.8547 14.4665 24.9509 13.8414 24.9744C13.7116 24.9847 13.6078 24.9929 13.5299 24.9991C13.478 25.0032 13.397 24.9704 13.287 24.9008C13.0896 25.0471 12.7942 25.1097 12.4007 25.0887C12.0331 25.0656 11.7506 25.1272 11.5532 25.2735C11.2574 25.1663 10.9028 25.1422 10.4895 25.2011C10.1001 25.232 9.74552 25.2079 9.42576 25.1288C9.05365 25.7069 8.72357 26.3208 8.43552 26.9707C8.14747 27.6205 7.90145 28.3061 7.69745 29.0277C8.5904 29.0874 9.3214 29.0817 9.89046 29.0104C10.4855 28.9371 11.0405 28.8539 11.5556 28.7608C12.0686 28.6417 12.5957 28.5346 13.1367 28.4394C13.6757 28.3183 14.3616 28.2377 15.1944 28.1978C15.6909 27.871 16.2866 27.6409 16.9813 27.5074C17.6999 27.3459 18.3496 27.1376 18.9302 26.8826C19.144 26.944 19.3371 27.0723 19.5093 27.2677C19.6795 27.437 19.8367 27.6074 19.9809 27.7788C20.149 27.9222 20.3161 28.0527 20.4822 28.1701C20.6482 28.2876 20.8471 28.324 21.0786 28.2795C21.1907 28.3751 21.2659 28.4998 21.3042 28.6535C21.3665 28.7792 21.4157 28.9059 21.4519 29.0336C21.4882 29.1614 21.5364 29.2751 21.5966 29.3748C21.6806 29.4465 21.7995 29.4632 21.9532 29.4249C21.6318 30.3125 21.23 31.0105 20.7479 31.519C20.2896 31.9994 19.7453 32.3822 19.1148 32.6673C18.4844 32.9525 17.7719 33.1919 16.9774 33.3855C16.2089 33.5771 15.3516 33.8019 14.4055 34.0598C14.176 34.1302 13.9803 34.1327 13.8183 34.0672C13.6584 34.0276 13.4747 34.0161 13.267 34.0325C12.6802 34.2097 11.9756 34.3832 11.1531 34.5529C10.3306 34.7227 9.48998 34.8285 8.63123 34.8706C7.77249 34.9126 6.94548 34.8606 6.1502 34.7147C5.35698 34.5948 4.69418 34.3078 4.16181 33.8537C3.93971 33.6884 3.78045 33.4921 3.68404 33.2646C3.61152 33.0091 3.42733 32.8278 3.13148 32.7207C3.07874 32.3852 2.99696 32.0129 2.88612 31.6038C2.77529 31.1946 2.66343 30.7724 2.55053 30.3373C2.43558 29.8762 2.33464 29.427 2.2477 28.9898C2.18673 28.5505 2.18077 28.1461 2.22981 27.7765C2.2768 27.3809 2.40475 27.0181 2.61368 26.688C2.84857 26.3559 2.91265 26.0112 2.80594 25.654C2.93368 25.6177 3.00641 25.5466 3.02413 25.4407C3.03979 25.3089 3.13951 25.2487 3.32329 25.2602C3.44198 24.7806 3.57571 24.3259 3.72448 23.8961C3.87324 23.4663 4.02304 23.0495 4.17387 22.6457C4.35065 22.2398 4.51446 21.835 4.66529 21.4312C4.84002 20.9993 4.99867 20.5296 5.14126 20.0219C4.75105 19.7133 4.44963 19.3715 4.23702 18.9965C4.0483 18.5935 3.89956 18.2004 3.79078 17.8171C3.67995 17.408 3.5821 16.9978 3.49722 16.5865C3.41029 16.1493 3.28442 15.7152 3.1196 15.2842C3.34831 14.8742 3.63512 14.5379 3.98002 14.2755C4.34883 13.985 4.74771 13.7443 5.17668 13.5536C5.60564 13.3628 6.0756 13.1949 6.58657 13.0499C7.09753 12.9048 7.63342 12.7447 8.19425 12.5696C9.20588 12.1498 10.1069 11.8171 10.8972 11.5715C11.7135 11.3239 12.507 11.1172 13.2775 10.9516C14.072 10.758 14.8934 10.5752 15.7419 10.4034C16.5903 10.2316 17.5515 9.99862 18.6253 9.70444C18.8775 9.91954 19.1074 10.0189 19.3151 10.0024C19.4004 9.7605 19.5121 9.68633 19.6501 9.77987C19.8121 9.84539 19.8708 9.76237 19.8263 9.53078C20.1209 9.95151 20.4753 10.3022 20.8894 10.5828C21.3274 10.8354 21.8013 11.046 22.311 11.2145ZM43.7867 12.7239C43.1377 12.7754 42.4409 12.8829 41.6963 13.0465C40.9496 13.1841 40.217 13.3337 39.4983 13.4952C38.9853 13.6143 38.4842 13.7193 37.9951 13.8104C37.5319 13.8994 37.1067 13.9723 36.7193 14.0291C36.5829 14.6147 36.4414 15.1353 36.2947 15.5911C36.148 16.0468 35.9872 16.4906 35.8125 16.9224C35.6398 17.3802 35.4812 17.85 35.3365 18.3317C35.2158 18.7854 35.0981 19.278 34.9836 19.8095C34.7569 20.2455 34.5672 20.6524 34.4143 21.0303C34.2853 21.3801 34.1864 21.7798 34.1175 22.2294C33.8369 22.6435 33.6362 23.0774 33.5155 23.531C33.3927 23.9588 33.3047 24.3315 33.2515 24.6492L33.1328 25.1288C32.9894 25.2969 32.9089 25.4339 32.8911 25.5398C32.8714 25.6198 32.8126 25.7028 32.715 25.7889C32.7117 26.0765 32.6435 26.3693 32.5104 26.6672C32.4687 26.8012 32.4401 26.934 32.4244 27.0659C32.4067 27.1718 32.3999 27.2507 32.404 27.3026C32.4246 27.5622 32.3731 27.7361 32.2495 27.8243C32.2858 27.952 32.2971 28.0948 32.2835 28.2526C32.2678 28.3845 32.2522 28.5164 32.2365 28.6482C32.1833 28.9659 32.1769 29.2146 32.2173 29.3943C32.3034 29.4919 32.3755 29.5776 32.4336 29.6514C32.5177 29.7231 32.5779 29.8228 32.6141 29.9506C32.7781 30.042 32.9001 30.0977 32.98 30.1175C33.09 30.1871 33.253 30.2656 33.4689 30.353L33.8503 30.7146C34.0398 31.4571 33.9704 32.0635 33.6419 32.5336C33.2917 33.0578 32.6493 33.3569 31.7147 33.431L31.2474 33.4681C31.1073 33.3486 31.0212 33.2509 30.9891 33.1751C30.7752 33.1137 30.6013 33.0622 30.4674 33.0206C30.3335 32.979 30.2084 32.8844 30.0922 32.7369C29.7424 32.6079 29.4595 32.4997 29.2436 32.4123L28.8777 32.2455C28.855 31.9599 28.8427 31.8041 28.8406 31.7782C28.6403 31.5589 28.477 31.3107 28.3505 31.0334C28.2499 30.754 28.1624 30.4736 28.0878 30.1921C28.0173 29.9626 27.9349 29.7471 27.8406 29.5456C27.7722 29.342 27.6799 29.1665 27.5637 29.019C27.3923 27.5174 27.4342 26.234 27.6893 25.1688C27.9444 24.1037 28.2155 23.0764 28.5028 22.087C28.6693 21.5514 28.8357 21.0157 29.0022 20.48C29.1667 19.9184 29.3041 19.3458 29.4145 18.7623L29.7341 18.3451C29.8829 17.9153 29.9989 17.5665 30.0821 17.2987C30.1893 17.0028 30.2964 16.707 30.4036 16.4111C30.467 16.2232 30.5185 16.0493 30.5581 15.8894C30.6216 15.7015 30.6741 15.5406 30.7157 15.4067C30.56 15.4191 30.4182 15.4434 30.2905 15.4796C30.1607 15.4899 30.0319 15.5132 29.9042 15.5495C29.7505 15.5878 29.6097 15.6251 29.482 15.6613C29.3522 15.6716 29.2224 15.6819 29.0926 15.6922C28.9109 15.7066 28.7801 15.704 28.7001 15.6842C28.4249 15.8366 28.1185 15.9263 27.781 15.953L27.3916 15.9839C27.3137 15.9901 27.2358 15.9963 27.158 16.0025C27.104 15.9806 27.051 15.9718 26.9991 15.9759C26.7395 15.9965 26.5349 16.0519 26.3853 16.1421C26.0738 16.1668 25.7753 16.1905 25.4897 16.2132L25.1003 16.2441C25.0484 16.2482 24.9845 16.2663 24.9087 16.2985C24.8308 16.3046 24.7659 16.3098 24.714 16.3139C24.5323 16.3283 24.3365 16.3308 24.1268 16.3213C23.915 16.2859 23.6871 16.2125 23.4432 16.1012C23.0987 15.7106 22.8735 15.5064 22.7676 15.4887L22.3801 15.0492C22.3418 14.8955 22.2915 14.7558 22.2293 14.6301C22.165 14.4785 22.0997 14.3139 22.0334 14.1363C21.9089 13.8849 21.7835 13.6206 21.657 13.3433C21.5544 13.0379 21.4866 12.6776 21.4537 12.2622C21.4631 12.0525 21.5027 11.8926 21.5723 11.7826C21.642 11.6725 21.6997 11.5765 21.7454 11.4945L21.8159 10.9012L22.3252 10.8999L23.4155 10.8134C24.2463 10.7475 25.0879 10.6546 25.9405 10.5347C26.791 10.3889 27.6674 10.241 28.5699 10.091C29.0849 9.99791 29.6 9.9048 30.1151 9.81169C30.6561 9.71652 31.2102 9.62032 31.7772 9.52308C31.8625 9.28121 31.9488 9.05231 32.0362 8.83639L32.4101 8.61079C32.8753 8.54776 33.205 8.58692 33.3991 8.72826C33.6171 8.84158 33.7961 8.958 33.9362 9.0775C34.5032 8.98027 35.0702 8.88304 35.6372 8.7858C36.2281 8.66055 36.818 8.52232 37.4068 8.37111C38.2792 8.17129 39.1525 7.98444 40.0269 7.81057C40.9273 7.63465 41.7929 7.51373 42.6236 7.44782C42.987 7.41899 43.3385 7.40416 43.6781 7.40335C44.0176 7.40253 44.3322 7.41676 44.6219 7.44602L45.0329 7.68771C45.1231 7.83729 45.2383 7.97184 45.3784 8.09134C45.5445 8.20878 45.7105 8.32622 45.8766 8.44367C46.2108 8.70451 46.5491 9.01728 46.8915 9.38197C47.2339 9.74665 47.396 10.3085 47.3779 11.0675C47.1949 11.3955 47.0536 11.5896 46.9538 11.6498L46.6405 12.1448L46.248 12.1368C46.0922 12.1492 45.9515 12.1864 45.8258 12.2487C45.6981 12.2849 45.5713 12.3342 45.4457 12.3964C45.3459 12.4565 45.2462 12.5167 45.1465 12.5769C45.0447 12.6111 44.93 12.6463 44.8022 12.6825C44.5686 12.7011 44.3739 12.7165 44.2181 12.7289C44.0863 12.7132 43.9424 12.7116 43.7867 12.7239ZM60.5892 26.9474C60.4685 27.4011 60.2709 27.8739 59.9964 28.3659C59.7459 28.8299 59.4274 29.2601 59.0408 29.6565C58.6782 30.0249 58.2595 30.3454 57.7848 30.6182C57.3101 30.891 56.8012 31.062 56.2581 31.1312C55.9145 31.0801 55.6736 31.0077 55.5356 30.9142C55.4255 30.8446 55.3025 30.7759 55.1666 30.7084C55.0846 30.6626 55.0036 30.6299 54.9237 30.6101C54.8676 30.5623 54.8126 30.5275 54.7586 30.5056L54.2759 30.348L54.3915 29.8294C54.4269 29.6176 54.4016 29.4629 54.3155 29.3652C54.2273 29.2416 54.0582 29.0852 53.808 28.8961C53.724 28.8244 53.6399 28.7527 53.5559 28.681C53.4718 28.6093 53.4007 28.5365 53.3426 28.4628L52.622 27.7754L53.6517 27.4194C54.2863 27.1862 54.6961 26.9186 54.8811 26.6166C55.0921 26.3125 55.1449 25.825 55.0394 25.1542C54.512 25.0915 54.0696 25.1135 53.7123 25.2203C53.381 25.3249 53.0378 25.4436 52.6826 25.5762C52.2256 25.7431 51.7546 25.898 51.2696 26.041C50.8085 26.156 50.2924 26.2361 49.7213 26.2814C49.5136 26.2979 49.3189 26.3133 49.1372 26.3278C48.9534 26.3162 48.7566 26.3057 48.5469 26.2962L48.1513 26.2492C48.0767 25.9678 48.0125 25.8161 47.9585 25.7943C47.9024 25.7465 47.8464 25.6987 47.7904 25.6509C47.6503 25.5314 47.4941 25.374 47.3218 25.1787C47.1735 24.9553 47.1249 24.6718 47.176 24.3282C47.0277 24.1048 46.9312 23.8773 46.8868 23.6458C46.7557 23.9696 46.6646 24.3034 46.6135 24.6471L46.4887 25.0488L46.1054 25.1576C46.0556 25.1877 46.0218 25.2557 46.0041 25.3616C45.9843 25.4415 45.9765 25.5074 45.9806 25.5594L45.8384 26.2368C45.7906 26.2928 45.7428 26.3489 45.695 26.4049C45.6451 26.435 45.5963 26.4781 45.5485 26.5341C45.5151 26.7719 45.4687 27.0106 45.4094 27.2505C45.3501 27.4903 45.2897 27.7171 45.2283 27.931C45.1253 28.2788 45.0352 28.6255 44.9581 28.9712C44.905 29.2889 44.9037 29.6025 44.9544 29.912L44.8326 30.3527C44.7152 30.5187 44.5827 30.6599 44.4352 30.7761C44.2856 30.8663 44.136 30.9565 43.9864 31.0468C43.9386 31.1028 43.8649 31.1609 43.7652 31.2211C43.6893 31.2532 43.6265 31.2843 43.5766 31.3144L43.4938 31.752L43.0327 31.867C42.7513 31.9415 42.5467 31.9969 42.4189 32.0332C42.3171 32.0674 42.1884 32.0907 42.0326 32.103L41.6401 32.095C41.336 31.884 41.1009 31.7198 40.9349 31.6024C40.7668 31.4589 40.5737 31.3306 40.3557 31.2173C40.0974 30.9243 39.949 30.7009 39.9107 30.5472C39.8724 30.3935 39.8351 30.2528 39.7989 30.1251C39.7346 29.9734 39.6983 29.8457 39.6901 29.7418C39.6559 29.6401 39.6108 29.5653 39.5547 29.5175L39.0114 29.0904L39.412 28.7059L39.3984 28.0408C39.8126 26.6757 40.2568 25.3604 40.7311 24.095C41.2314 22.8275 41.7426 21.533 42.2647 20.2115C42.4395 19.7797 42.6012 19.3489 42.75 18.9191C42.9247 18.4872 43.0994 18.0554 43.2741 17.6236C43.242 17.5477 43.2218 17.4579 43.2136 17.3541C43.2053 17.2502 43.222 17.1313 43.2637 16.9974C43.5142 16.5334 43.717 16.1255 43.8719 15.7736C44.0248 15.3958 44.1777 15.0179 44.3306 14.64C44.5032 14.1822 44.6769 13.7374 44.8517 13.3056C45.0523 12.8717 45.3039 12.4207 45.6064 11.9526L46.2078 11.6306C46.2836 11.5984 46.3724 11.5653 46.4742 11.5311C46.5739 11.4709 46.6887 11.4357 46.8185 11.4254L47.4088 11.4569C48.1089 11.0618 48.7078 10.544 49.2056 9.9037C49.7013 9.23741 50.2008 8.45327 50.7039 7.55127L51.0501 6.97522L51.581 7.24657C51.717 7.31416 51.9049 7.37762 52.1447 7.43696C52.3825 7.47035 52.6343 7.51568 52.9 7.57297C53.3756 7.63973 53.8262 7.72154 54.2518 7.81839C54.6775 7.91524 55.0304 8.08316 55.3106 8.32217C55.4993 8.72517 55.6149 9.02948 55.6573 9.2351C55.6998 9.44073 55.7552 9.64532 55.8236 9.84888C55.9365 10.284 56.0364 10.7202 56.1233 11.1574C56.2362 11.5925 56.3273 12.0817 56.3965 12.6248C56.5613 13.0558 56.7001 13.4889 56.813 13.924C56.9498 14.3311 57.0747 14.7523 57.1876 15.1874C57.3668 15.8002 57.545 16.3999 57.7222 16.9867C57.8973 17.5475 58.1093 18.0793 58.3581 18.582C58.5658 18.5656 58.6967 18.5682 58.7506 18.5901C58.8763 18.5279 59.003 18.4786 59.1308 18.4424C59.2845 18.404 59.4511 18.3647 59.6308 18.3243L60.0561 18.2514L60.2427 18.6284C60.279 18.7562 60.4191 18.8757 60.663 18.9869C61.0025 18.9861 61.2553 19.0444 61.4214 19.1619C61.5854 19.2534 61.7375 19.3589 61.8776 19.4784C61.9896 19.574 62.0997 19.6436 62.2076 19.6873L62.8102 19.8746L62.5451 20.4834C62.3225 20.9713 61.9822 21.4555 61.5239 21.9359C61.0896 22.3883 60.5852 22.781 60.0108 23.114C60.0491 23.2677 60.0745 23.4224 60.0868 23.5781C60.1231 23.7059 60.1733 23.8456 60.2376 23.9972C60.3505 24.4324 60.4515 24.8815 60.5404 25.3447C60.6294 25.8078 60.6675 26.2881 60.6548 26.7855L60.5892 26.9474ZM48.8011 21.1036C49.5758 20.9899 50.2726 20.8824 50.8915 20.781C51.5343 20.6516 52.2389 20.4782 53.0054 20.2606C52.7619 19.4962 52.5033 18.7069 52.2297 17.8927C51.9541 17.0525 51.6665 16.2263 51.3669 15.4141L51.1642 15.822C50.6882 16.4084 50.2304 17.0586 49.7907 17.7727C49.377 18.4847 49.0251 19.1527 48.735 19.7765C48.5977 20.0225 48.4605 20.2685 48.3233 20.5145C48.1861 20.7605 48.0618 21.0055 47.9506 21.2494C48.1043 21.2111 48.246 21.1868 48.3758 21.1765C48.5316 21.1642 48.6733 21.1399 48.8011 21.1036ZM73.665 28.7705C72.9567 29.0618 72.1834 29.3583 71.3453 29.6599C70.5071 29.9615 69.6597 30.1463 68.803 30.2143C67.505 30.3173 66.4538 30.0741 65.6495 29.4848C65.4971 29.2096 65.3648 29.0241 65.2527 28.9285C65.1666 28.8309 65.0805 28.7332 64.9944 28.6355C64.9321 28.5099 64.8798 28.3442 64.8374 28.1386C64.497 27.7999 64.2174 27.4041 63.9986 26.9512C63.7778 26.4724 63.6089 25.9894 63.4919 25.5024C63.3987 24.9873 63.3446 24.4691 63.3293 23.9479C63.3401 23.4245 63.3918 22.9241 63.4845 22.4465C63.5282 22.3386 63.5459 22.2327 63.5377 22.1288C63.5554 22.0229 63.5721 21.904 63.5878 21.7722C63.6586 21.3486 63.7306 20.938 63.8035 20.5403C63.9024 20.1406 64.0444 19.7897 64.2294 19.4877C64.107 19.2623 64.0864 19.0027 64.1676 18.7089C64.2488 18.4151 64.345 18.1462 64.4563 17.9023C64.7415 16.887 64.9741 16.0326 65.1542 15.3391C65.3582 14.6176 65.5632 13.909 65.7693 13.2135C66.1179 12.0102 66.4416 10.8221 66.7404 9.64892C67.0392 8.47578 67.2918 7.21487 67.4983 5.86619C67.6957 5.71992 67.8442 5.6167 67.9439 5.55654C68.0956 5.49226 68.2223 5.44303 68.3241 5.40883C68.8099 5.6054 69.3736 5.79578 70.0152 5.98C70.6547 6.13825 71.1821 6.20089 71.5975 6.16794C71.8155 6.28126 71.9535 6.37481 72.0116 6.44857C72.0676 6.49637 72.1237 6.54417 72.1797 6.59197C72.4921 6.9068 72.7665 7.23769 73.003 7.58466C73.2375 7.90566 73.3384 8.35481 73.3058 8.93211C73.1686 9.17811 73.0611 9.3042 72.9832 9.31038C72.8946 9.83988 72.7868 10.2925 72.6599 10.6683C72.5589 11.0421 72.445 11.4168 72.318 11.7926C72.1672 12.1965 72.0294 12.5992 71.9045 13.001C71.7796 13.4028 71.6879 13.8933 71.6294 14.4727C71.5359 14.6107 71.4672 14.7337 71.4236 14.8417C71.4058 14.9476 71.3762 15.0675 71.3345 15.2014C71.2929 15.3353 71.2393 15.4833 71.1738 15.6452C71.1322 15.7791 71.0506 15.9031 70.9291 16.0173C70.9047 16.6984 70.8182 17.2539 70.6694 17.6837C70.5466 18.1114 70.4108 18.5401 70.262 18.9699C70.0102 19.7475 69.7844 20.523 69.5845 21.2964C69.4106 22.0678 69.3358 22.9358 69.3601 23.9004C69.4858 23.8382 69.6005 23.803 69.7044 23.7948C69.8342 23.7845 69.951 23.7752 70.0548 23.7669C70.2885 23.7484 70.5642 23.7657 70.8819 23.8189C71.6277 23.3417 72.4518 23.0282 73.3543 22.8782C74.2827 22.7262 75.2001 22.6012 76.1067 22.5031C76.4701 22.4743 76.8335 22.4454 77.197 22.4166C77.5604 22.3878 77.8958 22.335 78.2032 22.2584C78.4472 22.3697 78.5961 22.4362 78.6501 22.4581C78.728 22.4519 78.8318 22.4436 78.9616 22.4333C79.1434 22.4189 79.3002 22.4196 79.432 22.4352C79.7662 22.6961 80.0812 22.8801 80.3771 22.9872C80.6729 23.0943 80.9807 23.1875 81.3005 23.2666C81.5943 23.3478 81.8761 23.443 82.146 23.5522C82.4398 23.6334 82.7248 23.7675 83.0009 23.9546L83.4063 25.6074C83.6065 25.8266 83.6968 25.9762 83.677 26.0561C83.6935 26.2638 83.6539 26.4237 83.5583 26.5358L83.6702 26.9579C83.287 27.0667 83.0216 27.1792 82.8741 27.2954C82.7525 27.4095 82.632 27.5367 82.5125 27.6768C82.3068 27.7192 82.1521 27.7445 82.0483 27.7528C81.9704 27.7589 81.8925 27.7651 81.8146 27.7713C81.4512 27.8001 81.015 27.9001 80.5061 28.071C79.7867 27.893 79.0505 27.8339 78.2977 27.8936C78.0121 27.9162 77.7146 27.9529 77.4051 28.0036C77.0957 28.0543 76.7862 28.1049 76.4767 28.1556C76.1693 28.2322 75.8479 28.2969 75.5125 28.3497C75.203 28.4003 74.8796 28.4391 74.5421 28.4658L73.665 28.7705ZM105.02 23.4224C104.899 23.8761 104.702 24.3489 104.427 24.8409C104.177 25.3049 103.858 25.7351 103.472 26.1315C103.109 26.4999 102.69 26.8204 102.216 27.0932C101.741 27.366 101.232 27.537 100.689 27.6062C100.345 27.5551 100.104 27.4828 99.9663 27.3892C99.8562 27.3196 99.7332 27.251 99.5973 27.1834C99.5153 27.1376 99.4343 27.1049 99.3544 27.0851C99.2983 27.0373 99.2433 27.0025 99.1893 26.9806L98.7066 26.823L98.8222 26.3044C98.8576 26.0926 98.8323 25.9379 98.7462 25.8402C98.658 25.7166 98.4889 25.5602 98.2387 25.3711C98.1547 25.2994 98.0706 25.2277 97.9866 25.156C97.9025 25.0843 97.8314 25.0115 97.7733 24.9378L97.0527 24.2504L98.0824 23.8944C98.717 23.6612 99.1268 23.3936 99.3118 23.0916C99.5228 22.7875 99.5756 22.3 99.4701 21.6292C98.9427 21.5665 98.5003 21.5885 98.143 21.6953C97.8117 21.7999 97.4685 21.9186 97.1133 22.0513C96.6563 22.2181 96.1853 22.3731 95.7003 22.516C95.2392 22.631 94.7231 22.7111 94.152 22.7564C93.9443 22.7729 93.7496 22.7883 93.5679 22.8028C93.3841 22.7912 93.1873 22.7807 92.9776 22.7712L92.582 22.7242C92.5074 22.4428 92.4432 22.2912 92.3892 22.2693C92.3331 22.2215 92.2771 22.1737 92.2211 22.1259C92.081 22.0064 91.9248 21.849 91.7525 21.6537C91.6042 21.4303 91.5556 21.1468 91.6067 20.8032C91.4584 20.5798 91.3619 20.3524 91.3175 20.1208C91.1864 20.4447 91.0953 20.7784 91.0442 21.1221L90.9194 21.5238L90.5361 21.6326C90.4863 21.6627 90.4525 21.7307 90.4348 21.8366C90.415 21.9165 90.4072 21.9825 90.4113 22.0344L90.2691 22.7118C90.2213 22.7678 90.1735 22.8239 90.1257 22.8799C90.0758 22.91 90.027 22.9531 89.9792 23.0091C89.9458 23.2469 89.8994 23.4857 89.8401 23.7255C89.7808 23.9653 89.7204 24.1921 89.659 24.406C89.556 24.7538 89.4659 25.1005 89.3888 25.4462C89.3357 25.7639 89.3344 26.0775 89.3851 26.387L89.2633 26.8277C89.1459 26.9937 89.0134 27.1349 88.8659 27.2511C88.7163 27.3413 88.5667 27.4315 88.4171 27.5218C88.3693 27.5778 88.2956 27.6359 88.1959 27.6961C88.12 27.7282 88.0572 27.7593 88.0073 27.7894L87.9245 28.227L87.4634 28.342C87.182 28.4165 86.9774 28.472 86.8496 28.5082C86.7478 28.5424 86.6191 28.5657 86.4633 28.5781L86.0708 28.57C85.7667 28.359 85.5316 28.1948 85.3656 28.0774C85.1975 27.934 85.0044 27.8056 84.7864 27.6923C84.5281 27.3993 84.3797 27.1759 84.3414 27.0222C84.3031 26.8685 84.2658 26.7278 84.2296 26.6001C84.1653 26.4484 84.129 26.3207 84.1208 26.2169C84.0866 26.1151 84.0415 26.0403 83.9854 25.9925L83.4421 25.5654L83.8427 25.1809L83.8291 24.5158C84.2433 23.1507 84.6875 21.8354 85.1618 20.57C85.6621 19.3025 86.1733 18.008 86.6954 16.6865C86.8702 16.2547 87.0319 15.8239 87.1807 15.3941C87.3554 14.9622 87.5301 14.5304 87.7049 14.0986C87.6727 14.0227 87.6525 13.9329 87.6443 13.8291C87.636 13.7252 87.6527 13.6064 87.6944 13.4724C87.9449 13.0085 88.1477 12.6005 88.3026 12.2486C88.4555 11.8708 88.6084 11.4929 88.7613 11.115C88.9339 10.6572 89.1076 10.2124 89.2824 9.78059C89.483 9.34669 89.7346 8.8957 90.0371 8.4276L90.6385 8.10559C90.7143 8.07345 90.8031 8.04028 90.9049 8.00608C91.0046 7.94592 91.1194 7.9107 91.2492 7.9004L91.8395 7.93194C92.5396 7.53679 93.1385 7.01905 93.6363 6.37871C94.132 5.71242 94.6315 4.92827 95.1346 4.02628L95.4808 3.45022L96.0117 3.72158C96.1477 3.78917 96.3356 3.85263 96.5754 3.91197C96.8132 3.94536 97.065 3.99069 97.3307 4.04798C97.8063 4.11474 98.2569 4.19655 98.6825 4.2934C99.1082 4.39024 99.4611 4.55817 99.7413 4.79718C99.93 5.20018 100.046 5.50449 100.088 5.71011C100.13 5.91573 100.186 6.12033 100.254 6.32389C100.367 6.75903 100.467 7.1952 100.554 7.63241C100.667 8.06755 100.758 8.55667 100.827 9.09977C100.992 9.5308 101.131 9.96388 101.244 10.399C101.381 10.8061 101.505 11.2273 101.618 11.6624C101.797 12.2752 101.976 12.8749 102.153 13.4617C102.328 14.0225 102.54 14.5543 102.789 15.057C102.997 15.0406 103.127 15.0432 103.181 15.0651C103.307 15.0029 103.434 14.9536 103.561 14.9174C103.715 14.8791 103.882 14.8397 104.062 14.7993L104.487 14.7264L104.673 15.1034C104.71 15.2312 104.85 15.3507 105.094 15.462C105.433 15.4611 105.686 15.5195 105.852 15.6369C106.016 15.7284 106.168 15.8339 106.308 15.9534C106.42 16.049 106.53 16.1186 106.638 16.1623L107.241 16.3496L106.976 16.9584C106.753 17.4463 106.413 17.9305 105.955 18.4109C105.52 18.8634 105.016 19.256 104.442 19.589C104.48 19.7427 104.505 19.8974 104.518 20.0532C104.554 20.1809 104.604 20.3206 104.668 20.4722C104.781 20.9074 104.882 21.3565 104.971 21.8197C105.06 22.2829 105.098 22.7631 105.085 23.2605L105.02 23.4224ZM93.2318 17.5786C94.0065 17.4649 94.7033 17.3574 95.3222 17.256C95.965 17.1266 96.6696 16.9532 97.4361 16.7356C97.1926 15.9713 96.934 15.1819 96.6604 14.3677C96.3848 13.5275 96.0972 12.7013 95.7976 11.8891L95.5949 12.297C95.1189 12.8834 94.6611 13.5336 94.2214 14.2477C93.8077 14.9597 93.4558 15.6277 93.1657 16.2515C93.0284 16.4975 92.8912 16.7435 92.754 16.9895C92.6168 17.2355 92.4925 17.4805 92.3813 17.7244C92.535 17.6861 92.6767 17.6618 92.8065 17.6515C92.9623 17.6392 93.104 17.6149 93.2318 17.5786ZM126.213 14.4526C126.197 14.5844 126.18 14.7033 126.163 14.8092C126.143 14.8892 126.123 14.9691 126.103 15.049C126.084 15.129 126.079 15.2338 126.089 15.3636C126.097 15.4675 126.109 15.6103 126.123 15.792C125.454 17.2297 124.559 18.4632 123.439 19.4925C122.345 20.5197 121.113 21.4534 119.742 22.2936C118.396 23.1057 116.981 23.8711 115.497 24.5897C114.01 25.2823 112.567 26.0238 111.167 26.8141C110.531 26.7077 110.031 26.4863 109.664 26.1496C109.324 25.8109 109.044 25.4151 108.826 24.9622C108.631 24.4813 108.472 23.9584 108.348 23.3935C108.249 22.8005 108.149 22.1946 108.047 21.5756C108.103 21.2839 108.188 21.042 108.303 20.85C108.443 20.63 108.498 20.3382 108.469 19.9748C108.623 19.2833 108.778 18.6049 108.934 17.9394C109.091 17.2739 109.168 16.6016 109.166 15.9226C109.228 15.7087 109.359 15.5546 109.561 15.4602C109.592 14.2038 109.492 12.9448 109.261 11.683C109.054 10.3933 108.751 9.2026 108.351 8.11103C108.356 7.84937 108.368 7.66559 108.385 7.55969C108.427 7.42577 108.42 7.33491 108.364 7.28711C108.321 7.08149 108.378 6.9725 108.534 6.96014C108.715 6.94572 108.897 6.93131 109.079 6.91689C109.048 6.52749 108.939 6.14427 108.752 5.76722C108.592 5.38812 108.427 4.95709 108.258 4.47415C108.409 4.07033 108.496 3.68464 108.519 3.31708C108.54 2.92356 108.63 2.57681 108.789 2.27683C110.226 2.60694 111.605 3.03305 112.927 3.55517C114.274 4.07524 115.582 4.42862 116.851 4.61532C117.839 5.21613 118.853 5.81489 119.893 6.41159C120.931 6.98233 121.884 7.63815 122.753 8.37907C123.619 9.09403 124.365 9.9361 124.991 10.9053C125.616 11.8745 126.024 13.0569 126.213 14.4526ZM117.154 17.3265C117.683 17.0755 118.197 16.8127 118.698 16.5378C119.225 16.2609 119.697 15.9622 120.116 15.6416C120.558 15.293 120.946 14.9096 121.279 14.4914C121.611 14.0731 121.873 13.5822 122.063 13.0185C121.883 12.7193 121.653 12.4632 121.375 12.2502C121.095 12.0112 120.817 11.7981 120.541 11.611C120.263 11.398 119.984 11.1849 119.706 10.9719C119.454 10.7568 119.237 10.4867 119.054 10.1616C118.713 10.1364 118.407 10.0692 118.137 9.96003C117.865 9.82487 117.594 9.70268 117.324 9.59348C117.078 9.45625 116.807 9.33407 116.511 9.22692C116.241 9.11772 115.924 9.06455 115.558 9.06743C114.964 8.82718 114.429 8.66069 113.951 8.56796C113.5 8.47317 113.149 8.33121 112.899 8.14206C112.717 8.15648 112.577 8.20675 112.48 8.29287C112.817 9.25875 113.086 10.1779 113.286 11.0502C113.484 11.8966 113.618 12.7611 113.688 13.6438C113.782 14.4984 113.813 15.3841 113.781 16.301C113.749 17.2178 113.685 18.2156 113.587 19.2944C113.845 19.2478 114.075 19.1774 114.276 19.083C114.501 18.9606 114.714 18.8393 114.913 18.719C115.139 18.5966 115.365 18.4872 115.593 18.3908C115.844 18.2664 116.137 18.1778 116.473 18.125C116.538 17.9631 116.632 17.8251 116.753 17.7109C116.901 17.5947 117.034 17.4666 117.154 17.3265ZM135.709 21.5362C135.901 22.3047 135.897 22.9189 135.699 23.3788C135.526 23.8366 135.24 24.1858 134.841 24.4264C134.47 24.691 134.026 24.8568 133.509 24.924C132.992 24.9911 132.497 25.0043 132.023 24.9635C131.735 24.6206 131.465 24.1849 131.214 23.6562C130.963 23.1275 130.724 22.5848 130.497 22.0281C130.268 21.4454 130.053 20.8747 129.852 20.3159C129.677 19.7551 129.52 19.2582 129.381 18.8251C129.486 18.5033 129.536 18.1466 129.531 17.7552C129.55 17.3357 129.543 16.9183 129.51 16.5029C129.503 16.0855 129.483 15.6691 129.45 15.2537C129.441 14.8103 129.447 14.3919 129.468 13.9984C129.564 12.8936 129.741 11.8346 130 10.8214C130.285 9.80605 130.489 8.75797 130.613 7.67713C130.646 7.43937 130.603 7.22077 130.482 7.02133C130.388 6.81983 130.359 6.62616 130.397 6.44032C130.415 6.33442 130.487 6.26334 130.615 6.22708C130.741 6.16486 130.812 6.06782 130.827 5.93596C130.882 5.64422 130.877 5.40955 130.811 5.23195C130.77 5.05229 130.805 4.82751 130.914 4.55761C131.027 4.33963 131.159 4.02873 131.31 3.62492C131.485 3.19308 131.529 2.75856 131.442 2.32135C131.663 2.14706 131.869 1.94783 132.06 1.72367C132.252 1.49952 132.445 1.30132 132.64 1.12908C132.859 0.928824 133.094 0.753497 133.343 0.603101C133.618 0.450645 133.951 0.35897 134.34 0.328076C134.568 0.5712 134.721 0.846463 134.797 1.15387C134.9 1.45921 134.99 1.76558 135.066 2.07298C135.169 2.37832 135.296 2.66863 135.449 2.94389C135.599 3.19319 135.836 3.38337 136.16 3.51441C136.177 3.72209 136.197 3.98169 136.222 4.29322C136.247 4.60474 136.284 4.91523 136.335 5.22469C136.384 5.50819 136.457 5.77665 136.556 6.03007C136.678 6.25548 136.846 6.39888 137.06 6.46028C136.692 7.74344 136.348 9.01156 136.03 10.2646C135.737 11.5157 135.51 12.7745 135.35 14.0412C135.187 15.2819 135.116 16.5284 135.137 17.7807C135.184 19.0309 135.375 20.2827 135.709 21.5362Z" fill="black"/>
</svg>
