<svg width="93" height="80" viewBox="0 0 93 80" fill="none" xmlns="http://www.w3.org/2000/svg">
<g clip-path="url(#clip0_3310_9923)">
<path d="M82.712 59.5326C81.1299 59.5326 79.6385 59.9142 78.3062 60.5781L70.6375 48.0244C73.0449 46.1776 74.6119 43.2701 74.6119 39.9886C74.6119 34.4253 70.1228 29.8998 64.6041 29.8998C63.0219 29.8998 61.5306 30.2814 60.1982 30.9453L52.6053 18.5138H40.387L32.7941 30.9453C31.4617 30.2814 29.9704 29.8998 28.3882 29.8998C22.8695 29.8998 18.3804 34.4253 18.3804 39.9886C18.3804 43.2701 19.9474 46.1776 22.3548 48.0244L14.6861 60.5781C13.3538 59.9142 11.8624 59.5326 10.2803 59.5326C4.76159 59.5326 0.272461 64.058 0.272461 69.6213C0.272461 75.1846 4.76159 79.71 10.2803 79.71C15.4734 79.71 19.7582 75.6959 20.2427 70.5829H36.5262C37.0107 75.6959 41.2878 79.71 46.4886 79.71C51.6893 79.71 55.9665 75.6959 56.451 70.5829H72.7345C73.219 75.6959 77.4961 79.71 82.6969 79.71C88.2156 79.71 92.7047 75.1846 92.7047 69.6213C92.7047 64.058 88.2156 59.5326 82.6969 59.5326H82.712ZM64.6041 31.8306C69.0705 31.8306 72.6966 35.4937 72.6966 39.9886C72.6966 44.4835 69.0629 48.1465 64.6041 48.1465C60.1452 48.1465 56.5115 44.4835 56.5115 39.9886C56.5115 35.4937 60.1452 31.8306 64.6041 31.8306ZM42.0979 19.399C43.4302 20.063 44.9215 20.4445 46.5037 20.4445C48.0859 20.4445 49.5772 20.063 50.9096 19.399L58.5782 31.9527C56.1709 33.7995 54.6038 36.7071 54.6038 39.9886C54.6038 43.2701 56.1709 46.1776 58.5782 48.0244L50.9096 60.5781C49.5772 59.9142 48.0859 59.5326 46.5037 59.5326C44.9215 59.5326 43.4302 59.9142 42.0979 60.5781L34.4292 48.0244C36.8366 46.1776 38.4036 43.2701 38.4036 39.9886C38.4036 36.7071 36.8366 33.7995 34.4292 31.9527L42.0979 19.399ZM20.3032 39.9886C20.3032 35.486 23.9369 31.8306 28.3958 31.8306C32.8546 31.8306 36.4883 35.4937 36.4883 39.9886C36.4883 44.4835 32.8546 48.1465 28.3958 48.1465C23.9369 48.1465 20.3032 44.4835 20.3032 39.9886ZM10.2954 77.7869C5.82899 77.7869 2.20286 74.1238 2.20286 69.6289C2.20286 65.134 5.83656 61.471 10.2954 61.471C14.7543 61.471 18.388 65.134 18.388 69.6289C18.388 74.1238 14.7543 77.7869 10.2954 77.7869ZM20.2502 68.6597C19.9777 65.7751 18.4939 63.2491 16.3213 61.5931L23.9899 49.0394C25.3223 49.7033 26.8136 50.0849 28.3958 50.0849C29.978 50.0849 31.4693 49.7033 32.8016 49.0394L40.4703 61.5931C38.2976 63.2567 36.8139 65.7827 36.5413 68.6597H20.2578H20.2502ZM46.5037 77.7869C42.0373 77.7869 38.4112 74.1238 38.4112 69.6289C38.4112 65.134 42.0449 61.471 46.5037 61.471C50.9626 61.471 54.5963 65.134 54.5963 69.6289C54.5963 74.1238 50.9626 77.7869 46.5037 77.7869ZM56.4585 68.6597C56.186 65.7751 54.7023 63.2491 52.5296 61.5931L60.1982 49.0394C61.5306 49.7033 63.0219 50.0849 64.6041 50.0849C66.1863 50.0849 67.6776 49.7033 69.0099 49.0394L76.6786 61.5931C74.5059 63.2567 73.0222 65.7827 72.7496 68.6597H56.4661H56.4585ZM82.712 77.7869C78.2456 77.7869 74.6195 74.1238 74.6195 69.6289C74.6195 65.134 78.2532 61.471 82.712 61.471C87.1709 61.471 90.8046 65.134 90.8046 69.6289C90.8046 74.1238 87.1709 77.7869 82.712 77.7869Z" fill="black" stroke="black" stroke-width="0.75" stroke-miterlimit="10"/>
<path d="M46.5039 20.4217C52.0074 20.4217 56.489 15.9039 56.489 10.3559C56.489 4.80783 52.0074 0.290039 46.5039 0.290039C41.0004 0.290039 36.5188 4.80783 36.5188 10.3559C36.5188 15.9039 41.0004 20.4217 46.5039 20.4217ZM38.4038 10.3559C38.4038 5.85333 42.0375 2.19789 46.4963 2.19789C50.9552 2.19789 54.5889 5.86096 54.5889 10.3559C54.5889 14.8508 50.9552 18.5138 46.4963 18.5138C42.0375 18.5138 38.4038 14.8508 38.4038 10.3559Z" fill="#FA198C" stroke="#FA198C" stroke-width="0.75" stroke-miterlimit="10"/>
</g>
<defs>
<clipPath id="clip0_3310_9923">
<rect width="93" height="80" fill="white"/>
</clipPath>
</defs>
</svg>
