<svg width="93" height="80" viewBox="0 0 93 80" fill="none" xmlns="http://www.w3.org/2000/svg">
<g clip-path="url(#clip0_5158_1825)">
<path d="M82.7121 59.5326C81.13 59.5326 79.6386 59.9142 78.3063 60.5781L70.6377 48.0244C73.045 46.1776 74.612 43.2701 74.612 39.9886C74.612 34.4253 70.1229 29.8998 64.6042 29.8998C63.022 29.8998 61.5307 30.2814 60.1983 30.9453L52.6054 18.5138H40.3871L32.7942 30.9453C31.4618 30.2814 29.9705 29.8998 28.3883 29.8998C22.8697 29.8998 18.3805 34.4253 18.3805 39.9886C18.3805 43.2701 19.9476 46.1776 22.3549 48.0244L14.6863 60.5781C13.3539 59.9142 11.8626 59.5326 10.2804 59.5326C4.76172 59.5326 0.272583 64.058 0.272583 69.6213C0.272583 75.1846 4.76172 79.71 10.2804 79.71C15.4736 79.71 19.7583 75.6959 20.2428 70.5829H36.5263C37.0108 75.6959 41.288 79.71 46.4887 79.71C51.6894 79.71 55.9666 75.6959 56.4511 70.5829H72.7346C73.2191 75.6959 77.4963 79.71 82.697 79.71C88.2157 79.71 92.7048 75.1846 92.7048 69.6213C92.7048 64.058 88.2157 59.5326 82.697 59.5326H82.7121ZM64.6042 31.8306C69.0706 31.8306 72.6968 35.4937 72.6968 39.9886C72.6968 44.4835 69.0631 48.1465 64.6042 48.1465C60.1454 48.1465 56.5117 44.4835 56.5117 39.9886C56.5117 35.4937 60.1454 31.8306 64.6042 31.8306ZM42.098 19.399C43.4303 20.063 44.9217 20.4445 46.5038 20.4445C48.086 20.4445 49.5773 20.063 50.9097 19.399L58.5783 31.9527C56.171 33.7995 54.604 36.7071 54.604 39.9886C54.604 43.2701 56.171 46.1776 58.5783 48.0244L50.9097 60.5781C49.5773 59.9142 48.086 59.5326 46.5038 59.5326C44.9217 59.5326 43.4303 59.9142 42.098 60.5781L34.4294 48.0244C36.8367 46.1776 38.4037 43.2701 38.4037 39.9886C38.4037 36.7071 36.8367 33.7995 34.4294 31.9527L42.098 19.399ZM20.3034 39.9886C20.3034 35.486 23.937 31.8306 28.3959 31.8306C32.8548 31.8306 36.4885 35.4937 36.4885 39.9886C36.4885 44.4835 32.8548 48.1465 28.3959 48.1465C23.937 48.1465 20.3034 44.4835 20.3034 39.9886ZM10.2955 77.7869C5.82912 77.7869 2.20299 74.1238 2.20299 69.6289C2.20299 65.134 5.83669 61.471 10.2955 61.471C14.7544 61.471 18.3881 65.134 18.3881 69.6289C18.3881 74.1238 14.7544 77.7869 10.2955 77.7869ZM20.2504 68.6597C19.9778 65.7751 18.4941 63.2491 16.3214 61.5931L23.99 49.0394C25.3224 49.7033 26.8137 50.0849 28.3959 50.0849C29.9781 50.0849 31.4694 49.7033 32.8018 49.0394L40.4704 61.5931C38.2977 63.2567 36.814 65.7827 36.5414 68.6597H20.2579H20.2504ZM46.5038 77.7869C42.0374 77.7869 38.4113 74.1238 38.4113 69.6289C38.4113 65.134 42.045 61.471 46.5038 61.471C50.9627 61.471 54.5964 65.134 54.5964 69.6289C54.5964 74.1238 50.9627 77.7869 46.5038 77.7869ZM56.4587 68.6597C56.1861 65.7751 54.7024 63.2491 52.5297 61.5931L60.1983 49.0394C61.5307 49.7033 63.022 50.0849 64.6042 50.0849C66.1864 50.0849 67.6777 49.7033 69.0101 49.0394L76.6787 61.5931C74.506 63.2567 73.0223 65.7827 72.7497 68.6597H56.4662H56.4587ZM82.7121 77.7869C78.2457 77.7869 74.6196 74.1238 74.6196 69.6289C74.6196 65.134 78.2533 61.471 82.7121 61.471C87.171 61.471 90.8047 65.134 90.8047 69.6289C90.8047 74.1238 87.171 77.7869 82.7121 77.7869Z" fill="black" stroke="black" stroke-width="0.75" stroke-miterlimit="10"/>
<path d="M46.5038 20.4216C52.0073 20.4216 56.4889 15.9038 56.4889 10.3558C56.4889 4.80777 52.0073 0.289978 46.5038 0.289978C41.0002 0.289978 36.5187 4.80777 36.5187 10.3558C36.5187 15.9038 41.0002 20.4216 46.5038 20.4216ZM38.4037 10.3558C38.4037 5.85327 42.0374 2.19783 46.4962 2.19783C50.9551 2.19783 54.5888 5.8609 54.5888 10.3558C54.5888 14.8507 50.9551 18.5138 46.4962 18.5138C42.0374 18.5138 38.4037 14.8507 38.4037 10.3558Z" fill="#FA198C" stroke="#FA198C" stroke-width="0.75" stroke-miterlimit="10"/>
</g>
<defs>
<clipPath id="clip0_5158_1825">
<rect width="93" height="80" fill="white"/>
</clipPath>
</defs>
</svg>
