<svg width="40" height="40" viewBox="0 0 40 40" fill="none" xmlns="http://www.w3.org/2000/svg">
<g clip-path="url(#clip0_4331_2172)">
<path d="M14.7982 20.7172H17.2098V30.6452C17.2098 30.8412 17.3686 31 17.5646 31H21.6535C21.8495 31 22.0083 30.8412 22.0083 30.6452V20.764H24.7806C24.9608 20.764 25.1125 20.6287 25.1331 20.4497L25.5541 16.7947C25.5657 16.6941 25.5338 16.5934 25.4666 16.518C25.3992 16.4425 25.3028 16.3992 25.2017 16.3992H22.0084V14.1081C22.0084 13.4175 22.3803 13.0672 23.1138 13.0672C23.2184 13.0672 25.2017 13.0672 25.2017 13.0672C25.3977 13.0672 25.5566 12.9083 25.5566 12.7124V9.35746C25.5566 9.16145 25.3977 9.00263 25.2017 9.00263H22.3243C22.304 9.00163 22.259 9 22.1925 9C21.6933 9 19.9579 9.09801 18.5871 10.3591C17.0682 11.7566 17.2794 13.4299 17.3298 13.72V16.3992H14.7982C14.6022 16.3992 14.4434 16.558 14.4434 16.754V20.3623C14.4434 20.5583 14.6022 20.7172 14.7982 20.7172Z" fill="black"/>
</g>
<circle cx="20" cy="20" r="19" stroke="black" stroke-width="2"/>
<defs>
<clipPath id="clip0_4331_2172">
<rect width="22" height="22" fill="white" transform="translate(9 9)"/>
</clipPath>
</defs>
</svg>
