<svg width="126" height="96" viewBox="0 0 126 96" fill="none" xmlns="http://www.w3.org/2000/svg">
<g clip-path="url(#clip0_4930_9741)">
<path d="M124.83 57.1301C124.14 55.9401 122.64 55.5701 121.29 55.3201C115.25 54.2101 109.14 53.5501 103 53.3401C101.12 53.2801 87.0699 54.4901 86.7499 53.9501L86.6799 53.9301C85.6399 55.7001 79.1899 57.7101 81.9099 60.6601C82.7599 61.5901 84.2699 62.1101 86.0699 62.3801C90.2299 63.0301 95.9399 62.3701 98.6199 62.4601C105.31 62.6901 112.02 62.7701 118.71 62.4401C120.34 62.3601 122.06 62.2301 123.43 61.3401C124.8 60.4501 125.65 58.5401 124.83 57.1201V57.1301Z" fill="black"/>
<path d="M53.07 1.67002C51.29 -0.749983 41.96 -0.829983 43.45 3.38002C43.79 4.34002 44.63 5.03002 45.27 5.83002C47.26 8.33002 47.24 11.62 46.79 14.98C46.38 18.06 45.6 21.2 45.68 23.83C45.71 24.78 45.78 25.76 46.22 26.61C47.76 29.56 50.31 27.44 51.24 25.38C54.07 19.15 55.24 11.98 54.28 5.18002C54.11 3.94002 53.81 2.68002 53.07 1.67002Z" fill="black"/>
<path d="M82.57 41.04C83.59 43 85.29 42.48 86.85 41.69C93.18 38.47 99.52 35.27 105.41 31.26C106.57 30.47 107.51 29.58 108.19 28.11C108.46 27.1 108.95 25.82 107.67 24.87C106.3 23.84 105.04 24.32 103.69 25.19C97.31 29.33 90.89 33.39 84.46 37.45C83.11 38.31 81.58 39.14 82.57 41.03V41.04Z" fill="black"/>
<path d="M69.91 29.93C71.41 30.09 72.27 29.17 72.92 28.06C73.9 26.4 74.82 24.7 75.68 22.97C77.57 19.18 78.92 15.13 81.56 11.71C82.66 10.28 83.5 8.51996 83.63 6.65996C83.72 5.34996 83.63 3.76996 81.77 3.57996C80.24 3.41996 78.69 3.69996 78.44 5.55996C78.19 7.41996 76.85 8.62996 76.1 10.17C73.43 15.63 70.66 21.04 67.92 26.47C67.82 26.76 67.72 27.05 67.61 27.34C67.85 28.66 68.34 29.75 69.89 29.92L69.91 29.93Z" fill="black"/>
<path d="M78.2001 67.57C76.0901 65.46 73.7101 63.62 71.1601 62.17C69.5801 61.27 67.8601 60.48 66.0401 60.43C64.2201 60.37 62.2701 61.18 61.4401 62.8C60.6201 64.37 61.0201 66.35 61.9501 67.86C62.8801 69.37 64.28 70.52 65.59 71.71C71.37 76.94 76.0701 83.37 79.2901 90.47C79.7701 91.53 80.2401 92.64 81.1001 93.42C82.7101 94.89 84.7501 94.17 85.9301 92.59C87.9901 89.84 87.7701 85.98 86.9901 82.85C85.5601 77.13 82.4101 71.79 78.1901 67.57H78.2001Z" fill="black"/>
<path d="M28.12 30.2401C28.61 30.9301 29.09 31.6601 29.79 32.1401C33.18 34.4601 35.74 30.6301 35.62 27.6901C35.52 25.1701 34.1 22.4701 32.99 20.2701C30.99 16.2901 28.42 11.6201 25.08 8.58006C24.24 7.81006 23.4 7.40006 22.58 7.25006C20.13 6.80006 17.77 8.61006 15.45 9.99006C12.22 11.9101 11.84 12.9101 14.12 15.8801C18.22 21.2201 24.18 24.6801 28.12 30.2501V30.2401Z" fill="black"/>
<path d="M33.11 54.9099C34.13 52.6699 33.21 50.6299 30.75 49.1799C28.62 47.9199 26.26 48.0899 23.99 47.8599C16.11 47.0799 8.37002 47.1899 1.66002 52.3799C0.79002 53.0599 -0.15998 53.5899 0.0400195 54.8599C0.24002 56.1399 1.13002 56.9299 2.31002 57.2299C3.23002 57.4599 4.21002 57.4199 5.17002 57.4699C11.61 57.7999 18.09 57.6299 24.47 58.8399C28.7 59.6399 31.56 58.3299 33.12 54.9199L33.11 54.9099Z" fill="black"/>
<path d="M47.97 63.2399C47.53 62.1299 46.89 61.2499 45.61 61.7499C43.27 62.6599 40.99 63.6399 40.13 66.4199C38.85 70.5699 36.74 74.36 34.65 78.16C32.48 82.11 30.6 86.2299 28.36 90.1399C27.3 91.9999 26.49 93.6399 28.46 95.2099C30.3 96.6799 32.35 96.04 33.75 93.66C34.53 92.33 35.14 90.9099 35.89 89.5599C39.75 82.6599 43.22 75.5399 47.66 68.8799C47.47 66.9999 48.75 65.2099 47.97 63.2399Z" fill="black"/>
</g>
<defs>
<clipPath id="clip0_4930_9741">
<rect width="125.16" height="96" fill="white"/>
</clipPath>
</defs>
</svg>
