<svg width="90" height="90" viewBox="0 0 90 90" fill="none" xmlns="http://www.w3.org/2000/svg">
<g clip-path="url(#clip0_5158_1805)">
<path d="M81.2473 44.1059L81.2532 44.4041H83.9136L83.9077 44.0941C83.5176 23.1588 66.8168 6.32892 45.8854 5.78138L45.5735 5.77258V8.43301L45.8688 8.44084C65.3238 8.97859 80.865 24.6449 81.2473 44.1049V44.1059Z" fill="black"/>
<path d="M8.47123 46.1415L8.46048 45.8482H5.80005L5.8108 46.163C6.50598 66.7728 23.2009 83.3397 43.8185 83.8794L44.1304 83.8882V81.2277L43.8351 81.2199C24.6871 80.69 9.1537 65.2827 8.47123 46.1425V46.1415Z" fill="black"/>
<path d="M5.79517 44.0941L5.78931 44.4041H8.44974L8.4556 44.1059C8.83888 24.6459 24.3791 8.97957 43.8342 8.44181L44.1294 8.43399V5.77356L43.8175 5.78236C22.8861 6.32989 6.18529 23.1588 5.79517 44.0941Z" fill="black"/>
<path d="M81.2327 46.1415C80.5512 65.2818 65.0178 80.689 45.8688 81.2189L45.5735 81.2268V83.8872L45.8854 83.8784C66.503 83.3387 83.1979 66.7718 83.8931 46.1621L83.9038 45.8472H81.2434L81.2327 46.1406V46.1415Z" fill="black"/>
<path d="M30.35 45.5891C30.3735 45.4874 30.3852 45.3906 30.3803 45.2557C30.3842 44.5937 30.1271 43.9758 29.6588 43.5163L24.0094 37.9891C23.7561 37.7407 23.4041 37.6068 23.0649 37.6097C22.71 37.6136 22.3765 37.7554 22.1282 38.0096C21.8789 38.2638 21.7449 38.5992 21.7488 38.9541C21.7527 39.309 21.8945 39.6424 22.1487 39.8908L26.3119 43.9641H1.37273C0.655069 43.9641 0.0351817 44.5145 0.00193857 45.2312C-0.0332601 45.9938 0.57685 46.6245 1.33069 46.6245H26.2719L22.268 50.7183C22.0187 50.9725 21.8847 51.3079 21.8887 51.6628C21.8926 52.0177 22.0343 52.3511 22.2885 52.5995C22.5388 52.8439 22.8693 52.9788 23.2194 52.9788C23.5694 52.9788 23.9184 52.8371 24.1697 52.5789L29.6969 46.9295C30.0587 46.56 30.2865 46.0867 30.351 45.5881L30.35 45.5891Z" fill="black"/>
<path d="M88.6693 43.965H63.688L67.8512 39.8918C68.3753 39.3785 68.3841 38.5337 67.8718 38.0106C67.6224 37.7564 67.291 37.6146 66.9351 37.6107C66.6095 37.6146 66.2448 37.7408 65.9906 37.9901L60.3412 43.5172C59.8729 43.9748 59.6157 44.5918 59.6147 45.2958C59.6147 45.3916 59.6255 45.4874 59.6441 45.5617C59.7145 46.0887 59.9423 46.5619 60.3031 46.9305L65.8302 52.5799C66.0835 52.838 66.4208 52.9798 66.7816 52.9798C67.1424 52.9798 67.4621 52.8449 67.7124 52.6004C68.2365 52.0871 68.2453 51.2424 67.7319 50.7193L63.7281 46.6255H88.6693C89.4026 46.6255 90 46.0291 90 45.2948C90 44.5605 89.4026 43.9641 88.6693 43.9641V43.965Z" fill="black"/>
<path d="M43.0685 29.6959C43.4361 30.0567 43.9094 30.2835 44.408 30.3491C44.5068 30.3715 44.5997 30.3833 44.7375 30.3833H44.7551C45.4112 30.3833 46.0242 30.1261 46.4808 29.6588L52.009 24.0094C52.5213 23.4853 52.5115 22.6415 51.9875 22.1282C51.4624 21.6149 50.6196 21.6257 50.1063 22.1487L46.033 26.312V1.3307C46.033 0.597399 45.4356 0 44.7023 0C43.969 0 43.3716 0.596421 43.3716 1.3307V26.2719L39.2778 22.2671C39.0246 22.0187 38.6931 21.8887 38.3333 21.8877C37.9784 21.8916 37.645 22.0334 37.3966 22.2876C36.8833 22.8117 36.8921 23.6554 37.4162 24.1688L43.0666 29.6959H43.0685Z" fill="black"/>
<path d="M46.4818 60.3402C46.0311 59.8787 45.4278 59.6216 44.7825 59.6147H44.7033C44.6006 59.6147 44.496 59.6294 44.409 59.6519C43.8791 59.7321 43.4273 59.9511 43.0675 60.3031L37.4172 65.8302C36.8931 66.3436 36.8843 67.1873 37.3976 67.7114C37.646 67.9656 37.9784 68.1074 38.3333 68.1113C38.3392 68.1113 38.3441 68.1113 38.349 68.1113C38.699 68.1113 39.0285 67.9764 39.2788 67.7319L43.3726 63.7271V88.6693C43.3726 89.4026 43.97 90 44.7033 90C45.4366 90 46.034 89.4036 46.034 88.6693V63.688L50.1073 67.8512C50.6079 68.3606 51.4839 68.3675 51.9884 67.8718C52.5125 67.3584 52.5223 66.5147 52.009 65.9906L46.4818 60.3412V60.3402Z" fill="black"/>
<path d="M44.8519 33.8181C38.7791 33.8181 33.8396 38.7586 33.8396 44.8303C33.8396 50.9021 38.7791 55.8426 44.8519 55.8426C50.9246 55.8426 55.8642 50.9021 55.8642 44.8303C55.8642 38.7586 50.9246 33.8181 44.8519 33.8181ZM53.2282 44.8303C53.2282 49.4492 49.4707 53.2066 44.8519 53.2066C40.233 53.2066 36.4756 49.4492 36.4756 44.8303C36.4756 40.2115 40.233 36.454 44.8519 36.454C49.4707 36.454 53.2282 40.2115 53.2282 44.8303Z" fill="#FA198C"/>
</g>
<defs>
<clipPath id="clip0_5158_1805">
<rect width="89.999" height="90" fill="white"/>
</clipPath>
</defs>
</svg>
