<svg width="280" height="152" viewBox="0 0 280 152" fill="none" xmlns="http://www.w3.org/2000/svg">
<path d="M93.8338 119.885C93.1734 119.419 92.6924 118.806 92.3908 118.046C92.0892 117.286 91.9474 116.578 91.9654 115.92C92.0908 115.367 92.2851 114.951 92.5484 114.67C92.7906 114.365 93.0726 114.134 93.3943 113.977C93.7183 113.797 94.0481 113.677 94.3839 113.616C94.722 113.531 95.0461 113.469 95.3562 113.429L95.8637 113.656C95.9688 113.784 96.075 113.901 96.1824 114.006C96.3131 114.113 96.4321 114.219 96.5395 114.324C96.782 114.254 96.9357 114.127 97.0009 113.945C97.0893 113.766 97.1778 113.586 97.2662 113.407C97.3616 113.157 97.4686 112.908 97.5873 112.661C97.706 112.414 97.848 112.169 98.0134 111.926C98.0108 111.714 98.041 111.528 98.1038 111.37C98.1666 111.211 98.2271 111.076 98.2853 110.964C98.1569 110.833 98.0577 110.765 97.9877 110.758C97.9434 110.73 97.8536 110.686 97.7183 110.625C97.6483 110.618 97.5783 110.611 97.5083 110.604C97.4407 110.574 97.3614 110.543 97.2704 110.51C96.9459 110.219 96.7335 109.986 96.633 109.811C96.5582 109.615 96.4717 109.418 96.3736 109.22C96.2754 109.022 96.1867 108.848 96.1072 108.699C96.0278 108.55 95.9355 108.411 95.8305 108.283L95.4383 107.962L95.6898 107.563C95.7411 107.521 95.7702 107.465 95.7771 107.395C95.7864 107.301 95.7524 107.168 95.6753 106.996C95.6353 106.686 95.6456 106.463 95.7061 106.328L95.8177 105.915C96.0809 105.635 96.2265 105.472 96.2545 105.428L96.6389 105.113C97.1892 105.026 97.7524 104.929 98.3283 104.821C98.9065 104.69 99.4731 104.557 100.028 104.424C100.583 104.291 101.15 104.158 101.728 104.027C102.306 103.896 102.882 103.788 103.456 103.704C103.658 103.559 103.866 103.485 104.078 103.483C104.316 103.459 104.529 103.445 104.718 103.44C104.881 103.456 105.034 103.459 105.176 103.45C105.319 103.441 105.429 103.393 105.509 103.306C105.919 103.206 106.315 103.127 106.698 103.071C107.416 102.953 108.359 102.823 109.527 102.68C110.696 102.536 111.997 102.477 113.431 102.501L114.169 102.539C114.307 102.576 114.446 102.601 114.586 102.615C114.728 102.606 114.869 102.608 115.009 102.622C116.222 102.742 116.989 103.195 117.312 103.98C117.534 104.12 117.729 104.292 117.897 104.498C118.067 104.679 118.226 104.86 118.373 105.039C118.478 105.167 118.573 105.283 118.657 105.385C118.743 105.465 118.819 105.531 118.884 105.584L119.136 105.892C119.338 106.477 119.33 107.03 119.114 107.55C118.946 107.816 118.778 107.965 118.61 107.995C118.442 108.025 118.275 108.056 118.107 108.086L117.628 108.286C117.327 108.233 117.095 108.198 116.931 108.182C116.791 108.168 116.628 108.152 116.442 108.134C115.742 108.064 114.921 108.03 113.979 108.031C113.062 108.011 112.118 108.035 111.145 108.104C110.175 108.149 109.224 108.243 108.291 108.386C107.361 108.506 106.545 108.661 105.843 108.851C105.642 108.972 105.385 109.076 105.07 109.163C104.998 109.179 104.887 109.227 104.738 109.306C104.743 109.495 104.724 109.682 104.682 109.866C104.643 110.027 104.592 110.187 104.529 110.346C104.494 110.46 104.458 110.586 104.421 110.723C104.409 110.84 104.385 110.967 104.348 111.105C103.8 111.639 103.499 112.304 103.444 113.1L103.234 113.432C103.132 113.516 103.036 113.648 102.948 113.828C102.885 113.986 102.868 114.161 102.896 114.353L102.994 114.786C103.465 114.786 103.925 114.784 104.372 114.781C104.846 114.758 105.342 114.736 105.863 114.717C106.527 114.665 107.189 114.636 107.849 114.631C108.535 114.605 109.239 114.627 109.962 114.699L111.327 114.834L110.981 115.118L111.362 115.191L111.097 115.73C111.253 115.816 111.364 115.886 111.429 115.939C111.52 115.972 111.598 116.015 111.664 116.069L111.874 116.443C111.984 116.524 112.077 116.651 112.154 116.824C112.234 116.973 112.272 117.177 112.27 117.436L112.131 117.775L110.279 119.712L110.041 119.971L109.701 119.831C109.261 119.764 108.836 119.769 108.428 119.846C108.237 119.874 108.033 119.913 107.816 119.962C107.602 119.988 107.389 119.991 107.179 119.97C106.61 120.008 106.136 120.043 105.756 120.076C105.378 120.086 105 120.096 104.622 120.105C104.1 120.148 103.589 120.191 103.09 120.236C102.617 120.26 102.162 120.333 101.726 120.454C101.467 120.452 101.315 120.449 101.268 120.444C101.224 120.416 101.178 120.4 101.132 120.396C100.898 120.373 100.662 120.384 100.421 120.431C100.181 120.478 99.9528 120.526 99.7359 120.575C99.5844 120.678 99.4784 120.797 99.4179 120.932C99.3597 121.044 99.3004 121.168 99.2399 121.303C99.1771 121.462 99.0909 121.618 98.9815 121.772C98.8976 121.905 98.7893 122.048 98.6566 122.2L98.6292 122.833C98.4147 122.859 98.3062 122.883 98.3039 122.907C98.3039 122.907 98.2923 122.905 98.2689 122.903C98.2505 123.09 98.1982 123.261 98.112 123.417C98.0492 123.576 97.9876 123.723 97.9271 123.858C97.8712 123.947 97.8281 124.025 97.7979 124.093C97.7676 124.161 97.749 124.229 97.7421 124.299C97.9337 124.742 97.9447 125.226 97.775 125.751C97.6378 126.185 97.4236 126.564 97.1324 126.889C96.8435 127.19 96.5149 127.416 96.1466 127.568C95.7688 127.578 95.4901 127.539 95.3104 127.45C95.1541 127.364 94.9861 127.277 94.8064 127.188C94.6944 127.13 94.5813 127.084 94.467 127.049C94.355 126.99 94.2418 126.944 94.1275 126.909L93.7423 126.518C93.6862 126.371 93.6173 126.234 93.5355 126.109C93.4561 125.959 93.3767 125.81 93.2972 125.661C93.1968 125.486 93.0963 125.311 92.9959 125.137C92.8954 124.962 92.8089 124.765 92.7364 124.546C92.654 123.713 92.686 123.033 92.8324 122.506C93.0044 121.958 93.2103 121.425 93.45 120.907C93.5151 120.725 93.5791 120.555 93.6419 120.396C93.7047 120.237 93.7687 120.067 93.8338 119.885ZM132.217 120.259C132.166 120.536 132.163 120.807 132.207 121.07C132.252 121.334 132.308 121.598 132.376 121.864C132.469 122.109 132.55 122.364 132.618 122.63C132.686 122.896 132.73 123.159 132.752 123.421C132.766 123.752 132.73 124.113 132.644 124.505C132.561 124.874 132.442 125.239 132.289 125.6C132.137 125.939 131.953 126.25 131.737 126.535C131.522 126.796 131.28 126.984 131.01 127.099C130.642 127.486 130.213 127.774 129.723 127.961C129.234 128.148 128.774 128.385 128.346 128.672C128.073 128.81 127.77 128.898 127.436 128.935C127.126 128.975 126.804 129.014 126.471 129.052C126.201 129.166 125.882 129.288 125.516 129.416C125.153 129.522 124.777 129.626 124.39 129.729C124.005 129.809 123.623 129.865 123.243 129.898C122.865 129.908 122.537 129.887 122.26 129.836C121.535 130.023 120.831 130.118 120.147 130.121C119.485 130.15 118.72 130.027 117.852 129.753C117.001 129.786 116.223 129.674 115.519 129.416C114.837 129.16 114.236 128.806 113.716 128.354C113.221 127.881 112.791 127.344 112.427 126.743C112.088 126.12 111.822 125.482 111.628 124.826C111.573 123.478 111.738 122.282 112.124 121.237C112.513 120.168 113.009 119.205 113.612 118.346C114.241 117.466 114.931 116.675 115.684 115.972C116.439 115.246 117.168 114.541 117.872 113.857C118.007 113.917 118.112 113.928 118.186 113.888C118.287 113.827 118.376 113.754 118.456 113.668C118.537 113.558 118.618 113.46 118.697 113.373C118.799 113.289 118.91 113.241 119.029 113.23C119.227 112.896 119.485 112.663 119.805 112.529C120.15 112.375 120.432 112.144 120.651 111.836C120.865 111.81 121.047 111.757 121.196 111.678C121.345 111.598 121.484 111.506 121.612 111.401C121.764 111.298 121.914 111.207 122.063 111.128C122.215 111.025 122.386 110.96 122.577 110.931L122.615 110.547C123.054 110.402 123.378 110.222 123.587 110.007C123.823 109.771 124.098 109.492 124.412 109.17C124.624 109.168 124.789 109.172 124.905 109.184C125.045 109.197 125.246 109.194 125.507 109.172C125.726 108.864 125.914 108.636 126.07 108.486C126.249 108.339 126.5 108.187 126.821 108.031C127.087 108.198 127.381 108.322 127.703 108.401C128.048 108.482 128.337 108.664 128.568 108.946C128.568 109.181 128.619 109.375 128.722 109.526C128.827 109.654 128.944 109.784 129.072 109.914C129.203 110.021 129.321 110.139 129.426 110.267C129.555 110.398 129.632 110.57 129.657 110.785C129.748 110.817 129.808 110.811 129.836 110.767C129.887 110.725 129.958 110.72 130.049 110.753C130.087 111.086 130.147 111.316 130.228 111.442C130.312 111.544 130.386 111.752 130.449 112.064C130.31 112.286 130.192 112.522 130.097 112.771C130.027 113 129.87 113.161 129.625 113.254C129.585 113.415 129.623 113.513 129.737 113.548C129.854 113.56 129.918 113.625 129.93 113.744C129.932 113.956 129.882 114.104 129.78 114.188C130.249 115.153 130.655 116.171 130.997 117.241C131.34 118.288 131.747 119.294 132.217 120.259ZM127.515 123.149C127.633 122.902 127.771 122.704 127.927 122.554C128.106 122.407 128.224 122.171 128.279 121.847C128.181 121.649 128.125 121.502 128.111 121.407C128.099 121.288 128.105 121.112 128.128 120.878C127.687 120.105 127.32 119.291 127.027 118.438C126.737 117.561 126.395 116.738 126 115.969C125.944 116.058 125.853 116.143 125.727 116.225C125.601 116.306 125.476 116.27 125.349 116.117C125.284 116.298 125.189 116.43 125.063 116.512C124.939 116.571 124.808 116.593 124.668 116.579C124.53 116.542 124.382 116.492 124.223 116.429C124.09 116.345 123.97 116.251 123.863 116.146C123.133 116.615 122.405 117.073 121.678 117.519C120.951 117.966 120.285 118.5 119.682 119.123C119.584 119.161 119.523 119.178 119.5 119.176C119.479 119.151 119.408 119.155 119.287 119.19C119.056 119.615 118.782 120 118.466 120.346C118.174 120.67 117.882 121.006 117.589 121.354C117.295 121.702 117.034 122.076 116.806 122.478C116.578 122.879 116.424 123.358 116.346 123.916C116.71 124.282 117.157 124.526 117.686 124.649C118.216 124.772 118.763 124.838 119.327 124.847C119.915 124.858 120.481 124.843 121.027 124.803C121.598 124.742 122.117 124.735 122.584 124.781C123.587 124.644 124.456 124.424 125.193 124.121C125.932 123.793 126.706 123.47 127.515 123.149ZM154.508 112.963C154.504 113.48 154.541 113.932 154.621 114.316C154.701 114.701 154.793 115.075 154.899 115.439C154.983 115.777 155.056 116.114 155.116 116.45C155.203 116.764 155.248 117.146 155.251 117.593C155.004 118.181 154.809 118.727 154.664 119.231C154.544 119.737 154.409 120.266 154.26 120.816C153.806 121.596 153.373 122.283 152.961 122.878C152.549 123.473 152.214 123.993 151.958 124.439C151.83 124.544 151.711 124.674 151.602 124.828C151.518 124.961 151.421 125.104 151.312 125.258C151.258 125.324 151.19 125.423 151.106 125.556C151.022 125.689 150.955 125.776 150.903 125.818L150.228 125.504L150.001 126.365L149.498 126.456L149.106 126.842C148.587 127.567 148.056 128.174 147.513 128.662C146.972 129.127 146.366 129.538 145.695 129.895C145.049 130.232 144.313 130.536 143.485 130.807C142.681 131.081 141.768 131.379 140.747 131.702C140.355 131.616 140.007 131.558 139.704 131.528C139.427 131.477 139.161 131.427 138.906 131.378C138.463 131.334 137.919 131.245 137.273 131.11C137.221 130.917 137.129 130.778 136.996 130.694C136.863 130.611 136.738 130.563 136.621 130.551C136.243 130.325 135.967 130.027 135.791 129.657C135.642 129.265 135.494 128.85 135.349 128.412C135.258 128.144 135.165 127.899 135.069 127.677C134.975 127.433 134.87 127.187 134.753 126.94L135.365 126.824L134.679 125.908C134.639 125.833 134.587 125.769 134.521 125.715C134.458 125.639 134.407 125.563 134.367 125.488L134.388 124.925C134.477 123.309 134.587 121.836 134.719 120.506C134.876 119.156 135.182 117.973 135.636 116.958L135.674 116.574C135.794 116.067 135.906 115.654 136.008 115.335C136.113 114.992 136.204 114.671 136.28 114.373C136.401 113.866 136.553 113.399 136.737 112.969C137.071 112.932 137.328 112.828 137.51 112.657C137.694 112.464 137.852 112.291 137.985 112.139C138.314 112.148 138.531 112.217 138.636 112.345C138.741 112.473 138.839 112.671 138.93 112.939C139.026 113.161 139.143 113.408 139.281 113.681C139.442 113.956 139.691 114.18 140.027 114.355C140.055 114.546 140.094 114.75 140.143 114.967C140.218 115.163 140.29 115.382 140.36 115.624C140.508 116.039 140.629 116.475 140.725 116.932C140.847 117.368 140.9 117.786 140.884 118.185C140.607 118.605 140.37 119.099 140.172 119.669C139.998 120.24 139.857 120.827 139.75 121.429C139.669 122.009 139.624 122.582 139.616 123.146C139.632 123.69 139.692 124.155 139.795 124.542L139.96 125.017L140.562 125.006C141.28 124.889 141.929 124.753 142.51 124.599C143.116 124.423 143.679 124.208 144.199 123.953C144.719 123.699 145.22 123.395 145.702 123.042C146.187 122.666 146.701 122.235 147.244 121.747C147.787 121.259 148.267 120.694 148.683 120.052C149.126 119.389 149.501 118.696 149.808 117.973C150.138 117.252 150.398 116.536 150.586 115.824C150.8 115.092 150.962 114.401 151.073 113.753C151.484 113.652 151.71 113.392 151.751 112.972L151.719 112.58C151.64 112.431 151.656 112.268 151.768 112.091C151.952 111.661 152.312 111.356 152.848 111.173C153.198 111.443 153.499 111.732 153.751 112.04C154.027 112.35 154.279 112.657 154.508 112.963ZM159.938 127.172C159.723 127.198 159.559 127.311 159.445 127.512C159.333 127.689 159.22 127.878 159.106 128.079C159.015 128.282 158.914 128.472 158.802 128.65C158.716 128.806 158.591 128.876 158.428 128.86C158.386 129.044 158.3 129.2 158.17 129.329C158.062 129.459 157.954 129.602 157.845 129.756C157.738 129.887 157.651 130.043 157.586 130.225C157.523 130.384 157.527 130.584 157.597 130.827C157.397 130.948 157.261 131.135 157.189 131.387C157.117 131.639 157.034 131.878 156.941 132.104C156.871 132.333 156.758 132.522 156.602 132.671C156.446 132.82 156.183 132.865 155.812 132.805C155.733 132.891 155.715 132.948 155.759 132.976C155.804 133.004 155.831 133.089 155.84 133.232C155.588 133.159 155.389 133.152 155.242 133.208C155.116 133.289 154.959 133.333 154.77 133.338C154.341 133.154 153.992 132.872 153.723 132.492C153.478 132.114 153.259 131.704 153.068 131.261C152.902 130.797 152.747 130.335 152.605 129.873C152.485 129.414 152.36 129.013 152.229 128.67C152.324 128.42 152.36 128.177 152.337 127.939C152.316 127.678 152.255 127.46 152.154 127.285C153.537 124.972 155.041 122.507 156.667 119.889C158.292 117.27 159.844 114.68 161.322 112.118C161.838 112.381 162.338 112.678 162.824 113.009C163.335 113.318 163.783 113.669 164.168 114.06C164.577 114.454 164.909 114.899 165.166 115.396C165.426 115.869 165.574 116.39 165.612 116.959C165.552 117.094 165.488 117.147 165.42 117.117C165.378 117.065 165.33 117.072 165.277 117.138C165.358 117.264 165.397 117.35 165.392 117.396C165.411 117.445 165.406 117.492 165.378 117.536C165.374 117.583 165.367 117.653 165.358 117.746C165.351 117.816 165.375 117.925 165.431 118.072C165.34 118.039 165.269 118.044 165.218 118.086C165.19 118.13 165.12 118.123 165.008 118.065C165.076 118.331 165.079 118.543 165.016 118.702C164.976 118.863 164.915 119.01 164.831 119.143C164.749 119.252 164.677 119.386 164.614 119.545C164.554 119.68 164.547 119.868 164.594 120.108C164.524 120.101 164.463 120.119 164.412 120.161C164.386 120.182 164.36 120.215 164.332 120.259C164.306 120.28 164.268 120.312 164.216 120.354C164.191 120.375 164.144 120.37 164.076 120.34C164.095 120.86 164.068 121.375 163.994 121.886C163.92 122.397 163.844 122.919 163.768 123.453C163.717 123.966 163.675 124.516 163.64 125.101C163.608 125.663 163.632 126.254 163.712 126.875C164.6 126.468 165.327 125.904 165.893 125.183C166.482 124.464 166.976 123.641 167.374 122.715C167.795 121.791 168.142 120.789 168.413 119.709C168.685 118.629 168.971 117.527 169.271 116.403C169.501 116.214 169.69 115.973 169.837 115.682C169.983 115.39 170.12 115.085 170.245 114.768C170.373 114.427 170.5 114.099 170.625 113.781C170.753 113.441 170.901 113.137 171.069 112.871C171.414 112.953 171.694 113.098 171.909 113.308C172.149 113.496 172.364 113.706 172.553 113.937C172.745 114.144 172.948 114.353 173.162 114.562C173.38 114.749 173.661 114.883 174.006 114.964C174.247 115.388 174.465 115.798 174.661 116.195C174.858 116.591 174.97 117.002 174.998 117.429C174.863 117.604 174.749 117.805 174.656 118.031C174.586 118.26 174.505 118.487 174.412 118.713C174.319 118.94 174.204 119.152 174.066 119.35C173.931 119.526 173.752 119.673 173.528 119.792C173.398 120.391 173.249 120.942 173.082 121.443C172.94 121.924 172.786 122.403 172.621 122.882C172.48 123.362 172.347 123.867 172.224 124.397C172.103 124.903 172.023 125.472 171.984 126.104C171.745 126.622 171.49 127.174 171.22 127.759C170.95 128.345 170.732 128.877 170.567 129.355C170.164 129.621 169.837 129.954 169.585 130.353C169.334 130.752 169.071 131.15 168.796 131.547C168.693 131.631 168.633 131.648 168.614 131.599C168.595 131.55 168.517 131.507 168.379 131.47C168.393 131.566 168.387 131.636 168.359 131.68C168.331 131.724 168.291 131.768 168.24 131.81C168.214 131.831 168.186 131.875 168.156 131.943C168.149 132.013 168.163 132.108 168.198 132.229C167.858 132.337 167.547 132.506 167.265 132.738C166.983 132.969 166.68 133.174 166.356 133.354C166.055 133.536 165.691 133.642 165.265 133.67C164.861 133.701 164.345 133.567 163.715 133.269C162.828 132.475 162.056 131.586 161.4 130.602C160.767 129.621 160.279 128.478 159.938 127.172ZM189.823 127.022C189.788 127.137 189.755 127.239 189.722 127.33C189.692 127.398 189.661 127.466 189.631 127.533C189.601 127.601 189.58 127.693 189.569 127.81C189.559 127.903 189.547 128.031 189.53 128.195C188.708 129.361 187.719 130.312 186.563 131.045C185.431 131.781 184.19 132.412 182.843 132.938C181.521 133.443 180.146 133.895 178.716 134.295C177.29 134.672 175.893 135.099 174.527 135.576C173.981 135.381 173.573 135.105 173.302 134.749C173.054 134.394 172.87 133.999 172.748 133.563C172.652 133.106 172.594 132.618 172.575 132.098C172.582 131.557 172.589 131.004 172.598 130.439C172.693 130.19 172.807 129.989 172.94 129.837C173.099 129.665 173.194 129.415 173.226 129.089C173.473 128.501 173.718 127.924 173.963 127.36C174.207 126.795 174.383 126.212 174.489 125.61C174.578 125.43 174.719 125.315 174.912 125.263C175.14 124.155 175.252 123.024 175.248 121.87C175.27 120.694 175.191 119.591 175.011 118.561C175.057 118.33 175.096 118.169 175.129 118.078C175.187 117.966 175.195 117.884 175.153 117.833C175.148 117.644 175.216 117.557 175.356 117.57C175.519 117.587 175.682 117.603 175.846 117.619C175.88 117.269 175.845 116.912 175.74 116.549C175.658 116.187 175.58 115.779 175.508 115.324C175.706 114.991 175.844 114.663 175.923 114.341C176.004 113.996 176.139 113.703 176.328 113.463C177.548 113.984 178.702 114.581 179.789 115.254C180.9 115.929 182.003 116.45 183.097 116.818C183.876 117.507 184.679 118.199 185.505 118.893C186.334 119.564 187.074 120.297 187.725 121.092C188.379 121.863 188.906 122.728 189.306 123.686C189.705 124.644 189.878 125.756 189.823 127.022ZM181.341 128.126C181.849 127.988 182.347 127.837 182.834 127.673C183.345 127.512 183.811 127.322 184.233 127.105C184.681 126.867 185.085 126.589 185.446 126.271C185.807 125.954 186.117 125.56 186.376 125.091C186.263 124.798 186.101 124.534 185.889 124.301C185.678 124.045 185.466 123.812 185.251 123.602C185.039 123.369 184.826 123.136 184.614 122.903C184.425 122.672 184.275 122.399 184.165 122.082C183.867 122.005 183.607 121.897 183.385 121.757C183.165 121.594 182.945 121.443 182.723 121.303C182.527 121.142 182.307 120.991 182.062 120.849C181.84 120.709 181.567 120.611 181.243 120.556C180.755 120.248 180.307 120.016 179.899 119.857C179.514 119.701 179.226 119.52 179.034 119.312C178.871 119.296 178.739 119.319 178.639 119.379C178.784 120.289 178.876 121.146 178.914 121.95C178.955 122.731 178.936 123.519 178.857 124.312C178.804 125.084 178.691 125.873 178.517 126.68C178.343 127.487 178.127 128.361 177.869 129.301C178.104 129.301 178.319 129.275 178.512 129.223C178.731 129.151 178.939 129.077 179.135 129.002C179.354 128.93 179.572 128.869 179.789 128.82C180.031 128.75 180.305 128.718 180.611 128.725C180.694 128.592 180.799 128.484 180.925 128.402C181.074 128.323 181.213 128.231 181.341 128.126ZM207.529 135.347C207.35 135.729 207.1 136.117 206.778 136.509C206.482 136.88 206.132 137.21 205.726 137.5C205.346 137.768 204.924 137.986 204.461 138.152C203.997 138.318 203.519 138.388 203.026 138.363C202.73 138.263 202.528 138.161 202.421 138.056C202.335 137.977 202.237 137.896 202.127 137.815C202.062 137.761 201.995 137.719 201.927 137.689C201.885 137.638 201.842 137.598 201.798 137.57L201.395 137.354L201.58 136.913C201.645 136.731 201.648 136.59 201.587 136.489C201.528 136.366 201.404 136.2 201.212 135.993C201.149 135.916 201.086 135.839 201.023 135.762C200.96 135.685 200.909 135.61 200.869 135.535L200.34 134.811L201.309 134.66C201.908 134.555 202.314 134.383 202.526 134.145C202.761 133.909 202.885 133.485 202.899 132.874C202.441 132.735 202.046 132.684 201.713 132.722C201.403 132.762 201.08 132.812 200.744 132.873C200.312 132.948 199.871 133.01 199.418 133.06C198.991 133.088 198.522 133.077 198.008 133.026C197.822 133.008 197.647 132.99 197.484 132.974C197.323 132.935 197.15 132.894 196.966 132.852L196.623 132.748C196.602 132.486 196.569 132.342 196.524 132.314C196.482 132.263 196.44 132.211 196.398 132.16C196.293 132.032 196.18 131.868 196.059 131.667C195.963 131.446 195.965 131.187 196.065 130.891C195.969 130.669 195.92 130.452 195.917 130.24C195.75 130.506 195.616 130.787 195.516 131.084L195.341 131.42L194.984 131.455C194.935 131.474 194.895 131.528 194.862 131.619C194.832 131.687 194.814 131.744 194.81 131.791L194.576 132.368C194.525 132.41 194.474 132.452 194.422 132.494C194.373 132.513 194.323 132.543 194.272 132.586C194.204 132.791 194.125 132.995 194.035 133.198C193.944 133.401 193.854 133.592 193.766 133.772C193.619 134.064 193.484 134.356 193.361 134.65C193.263 134.923 193.212 135.201 193.208 135.483L193.03 135.854C192.899 135.982 192.759 136.086 192.61 136.166C192.463 136.222 192.317 136.278 192.17 136.334C192.118 136.376 192.044 136.416 191.946 136.453C191.874 136.47 191.813 136.487 191.764 136.506L191.621 136.88L191.194 136.909C190.933 136.93 190.743 136.947 190.624 136.958C190.528 136.972 190.411 136.973 190.271 136.959L189.924 136.889C189.689 136.654 189.507 136.471 189.378 136.34C189.252 136.187 189.101 136.042 188.926 135.907C188.744 135.606 188.648 135.385 188.639 135.243C188.629 135.1 188.619 134.97 188.607 134.851C188.574 134.706 188.563 134.587 188.572 134.494C188.558 134.398 188.53 134.325 188.488 134.274L188.074 133.809L188.49 133.532L188.584 132.941C189.168 131.798 189.771 130.703 190.393 129.658C191.038 128.615 191.697 127.549 192.37 126.462C192.593 126.107 192.805 125.752 193.006 125.395C193.229 125.04 193.453 124.685 193.676 124.33C193.66 124.258 193.656 124.175 193.665 124.082C193.675 123.989 193.708 123.886 193.767 123.774C194.062 123.403 194.307 123.074 194.5 122.787C194.696 122.477 194.891 122.166 195.087 121.856C195.313 121.478 195.538 121.111 195.761 120.757C196.008 120.404 196.303 120.045 196.645 119.678L197.229 119.489C197.301 119.473 197.385 119.457 197.481 119.443C197.579 119.406 197.686 119.393 197.803 119.404L198.321 119.526C199.004 119.288 199.617 118.925 200.16 118.437C200.705 117.925 201.272 117.31 201.861 116.591L202.26 116.136L202.687 116.461C202.797 116.543 202.953 116.629 203.156 116.72C203.361 116.787 203.577 116.867 203.803 116.96C204.214 117.095 204.6 117.239 204.962 117.393C205.323 117.547 205.609 117.752 205.819 118.008C205.922 118.395 205.976 118.683 205.981 118.872C205.986 119.061 206.002 119.251 206.03 119.442C206.061 119.845 206.08 120.248 206.088 120.649C206.118 121.052 206.121 121.5 206.096 121.992C206.173 122.4 206.227 122.806 206.258 123.209C206.314 123.592 206.358 123.985 206.389 124.388C206.45 124.959 206.512 125.519 206.576 126.067C206.641 126.592 206.745 127.096 206.885 127.581C207.072 127.6 207.187 127.623 207.231 127.651C207.353 127.616 207.473 127.592 207.592 127.581C207.734 127.571 207.888 127.563 208.053 127.556L208.442 127.559L208.547 127.923C208.559 128.041 208.664 128.17 208.862 128.307C209.163 128.36 209.378 128.452 209.506 128.583C209.637 128.69 209.755 128.808 209.86 128.936C209.944 129.038 210.03 129.117 210.119 129.173L210.623 129.435L210.291 129.932C210.016 130.329 209.638 130.704 209.155 131.056C208.698 131.388 208.189 131.655 207.627 131.859C207.637 132.001 207.635 132.142 207.621 132.282C207.632 132.401 207.655 132.533 207.688 132.677C207.718 133.081 207.736 133.495 207.741 133.919C207.746 134.344 207.704 134.775 207.613 135.214L207.529 135.347ZM198.018 128.293C198.722 128.316 199.356 128.331 199.921 128.34C200.511 128.328 201.163 128.287 201.876 128.216C201.782 127.5 201.679 126.76 201.566 125.995C201.456 125.207 201.333 124.429 201.197 123.662L200.952 123.991C200.437 124.435 199.928 124.938 199.425 125.5C198.945 126.065 198.527 126.601 198.171 127.107C198.01 127.303 197.849 127.499 197.688 127.695C197.528 127.891 197.379 128.089 197.241 128.287C197.383 128.277 197.513 128.278 197.629 128.29C197.769 128.304 197.899 128.305 198.018 128.293ZM228.619 123.41C228.036 123.352 227.402 123.336 226.716 123.363C226.033 123.366 225.36 123.381 224.698 123.41C224.224 123.434 223.764 123.447 223.316 123.45C222.892 123.455 222.503 123.452 222.151 123.44C221.937 123.937 221.729 124.376 221.526 124.756C221.324 125.137 221.111 125.504 220.887 125.859C220.661 126.237 220.446 126.628 220.241 127.031C220.062 127.414 219.879 127.832 219.693 128.284C219.423 128.634 219.19 128.965 218.995 129.275C218.825 129.564 218.673 129.903 218.541 130.29C218.226 130.612 217.979 130.964 217.8 131.347C217.623 131.706 217.486 132.023 217.388 132.295L217.207 132.701C217.053 132.828 216.96 132.936 216.927 133.027C216.897 133.095 216.832 133.159 216.732 133.22C216.683 133.474 216.576 133.722 216.41 133.965C216.352 134.077 216.306 134.19 216.271 134.304C216.238 134.395 216.22 134.464 216.215 134.511C216.192 134.744 216.119 134.89 215.995 134.948C216.007 135.067 215.994 135.196 215.957 135.333C215.922 135.448 215.887 135.562 215.852 135.676C215.755 135.949 215.709 136.168 215.717 136.334C215.777 136.434 215.828 136.522 215.867 136.596C215.93 136.673 215.968 136.771 215.98 136.89C216.11 136.997 216.209 137.066 216.277 137.096C216.363 137.175 216.495 137.271 216.673 137.383L216.953 137.764C217.003 138.451 216.844 138.978 216.479 139.342C216.085 139.75 215.468 139.913 214.629 139.83L214.209 139.788C214.104 139.66 214.043 139.56 214.027 139.487C213.847 139.399 213.701 139.326 213.589 139.268C213.477 139.209 213.381 139.106 213.302 138.956C213.013 138.787 212.779 138.646 212.602 138.534L212.304 138.328C212.33 138.071 212.344 137.931 212.346 137.908C212.203 137.682 212.098 137.436 212.03 137.17C211.986 136.907 211.953 136.644 211.932 136.383C211.906 136.169 211.867 135.965 211.816 135.771C211.787 135.58 211.734 135.41 211.654 135.261C211.741 133.903 211.983 132.773 212.378 131.87C212.774 130.967 213.178 130.1 213.59 129.27C213.823 128.822 214.055 128.374 214.288 127.926C214.523 127.454 214.736 126.969 214.927 126.47L215.276 126.151C215.477 125.794 215.635 125.504 215.751 125.28C215.893 125.035 216.035 124.79 216.177 124.545C216.264 124.388 216.337 124.243 216.397 124.107C216.483 123.951 216.556 123.817 216.614 123.705C216.474 123.691 216.344 123.69 216.226 123.702C216.109 123.69 215.991 123.69 215.872 123.702C215.73 123.711 215.599 123.722 215.48 123.734C215.364 123.722 215.247 123.711 215.131 123.699C214.967 123.683 214.852 123.66 214.784 123.63C214.516 123.721 214.23 123.751 213.927 123.721L213.577 123.687C213.507 123.68 213.437 123.673 213.367 123.666C213.323 123.638 213.278 123.622 213.231 123.617C212.998 123.594 212.808 123.61 212.661 123.667C212.381 123.639 212.113 123.612 211.856 123.587L211.506 123.552C211.46 123.548 211.4 123.554 211.328 123.57C211.258 123.563 211.2 123.557 211.153 123.553C210.99 123.536 210.816 123.507 210.632 123.466C210.45 123.401 210.26 123.299 210.061 123.162C209.818 122.761 209.651 122.544 209.56 122.512L209.287 122.061C209.278 121.918 209.255 121.787 209.22 121.665C209.187 121.521 209.156 121.365 209.125 121.197C209.055 120.954 208.986 120.7 208.918 120.434C208.876 120.148 208.873 119.818 208.91 119.444C208.952 119.26 209.012 119.125 209.092 119.038C209.171 118.952 209.237 118.876 209.291 118.811L209.448 118.296L209.899 118.377L210.879 118.473C211.625 118.547 212.385 118.599 213.16 118.629C213.936 118.635 214.736 118.643 215.559 118.654C216.031 118.654 216.502 118.653 216.973 118.653C217.467 118.655 217.973 118.658 218.491 118.662C218.605 118.461 218.718 118.272 218.83 118.095L219.197 117.955C219.619 117.973 219.905 118.06 220.054 118.216C220.229 118.351 220.369 118.483 220.474 118.611C220.992 118.615 221.51 118.619 222.028 118.624C222.571 118.607 223.115 118.578 223.661 118.538C224.466 118.5 225.269 118.473 226.071 118.459C226.897 118.446 227.683 118.477 228.429 118.551C228.756 118.583 229.069 118.626 229.37 118.679C229.671 118.733 229.948 118.795 230.2 118.867L230.525 119.147C230.581 119.294 230.662 119.431 230.767 119.56C230.895 119.69 231.024 119.82 231.152 119.951C231.407 120.235 231.656 120.566 231.902 120.944C232.147 121.321 232.201 121.845 232.064 122.514C231.85 122.776 231.694 122.925 231.596 122.962L231.239 123.351L230.893 123.281C230.753 123.268 230.622 123.278 230.501 123.313C230.382 123.325 230.262 123.349 230.141 123.384C230.043 123.421 229.945 123.458 229.847 123.496C229.752 123.51 229.644 123.523 229.525 123.535C229.316 123.514 229.141 123.497 229.001 123.483C228.886 123.448 228.759 123.423 228.619 123.41ZM231.167 138.182C231.214 138.893 231.113 139.437 230.864 139.812C230.638 140.19 230.33 140.454 229.938 140.604C229.567 140.779 229.148 140.855 228.679 140.832C228.21 140.809 227.769 140.742 227.356 140.631C227.156 140.281 226.986 139.852 226.848 139.344C226.71 138.836 226.585 138.317 226.472 137.788C226.362 137.235 226.262 136.695 226.173 136.168C226.107 135.644 226.047 135.178 225.993 134.773C226.138 134.504 226.239 134.196 226.297 133.849C226.38 133.48 226.441 133.109 226.478 132.736C226.538 132.365 226.587 131.993 226.624 131.62C226.686 131.226 226.758 130.856 226.839 130.511C227.1 129.548 227.425 128.638 227.816 127.781C228.23 126.927 228.578 126.032 228.86 125.094C228.927 124.889 228.923 124.688 228.848 124.492C228.797 124.299 228.803 124.123 228.865 123.964C228.898 123.873 228.974 123.822 229.093 123.81C229.214 123.775 229.292 123.7 229.327 123.586C229.422 123.336 229.455 123.127 229.424 122.959C229.417 122.794 229.483 122.6 229.623 122.379C229.758 122.203 229.925 121.949 230.122 121.615C230.346 121.261 230.454 120.883 230.447 120.482C230.67 120.363 230.885 120.219 231.09 120.051C231.295 119.883 231.498 119.738 231.698 119.616C231.924 119.474 232.16 119.356 232.404 119.262C232.673 119.171 232.982 119.143 233.331 119.178C233.495 119.429 233.586 119.697 233.605 119.982C233.647 120.269 233.678 120.554 233.697 120.839C233.739 121.126 233.806 121.403 233.897 121.671C233.991 121.916 234.17 122.122 234.436 122.29C234.418 122.476 234.395 122.71 234.367 122.99C234.339 123.269 234.323 123.55 234.319 123.833C234.317 124.092 234.339 124.341 234.386 124.581C234.459 124.8 234.585 124.954 234.764 125.043C234.234 126.121 233.728 127.189 233.246 128.248C232.787 129.31 232.386 130.389 232.042 131.485C231.7 132.559 231.439 133.651 231.258 134.764C231.101 135.879 231.07 137.018 231.167 138.182ZM255.002 132.416C254.951 132.694 254.948 132.964 254.993 133.228C255.037 133.491 255.093 133.756 255.161 134.022C255.255 134.267 255.335 134.522 255.403 134.788C255.471 135.054 255.516 135.317 255.537 135.578C255.551 135.909 255.516 136.271 255.43 136.663C255.346 137.031 255.227 137.396 255.074 137.758C254.923 138.096 254.739 138.408 254.522 138.693C254.308 138.954 254.065 139.142 253.795 139.256C253.427 139.644 252.998 139.931 252.509 140.118C252.019 140.305 251.56 140.542 251.131 140.83C250.858 140.968 250.555 141.055 250.222 141.093C249.912 141.133 249.59 141.172 249.256 141.209C248.986 141.324 248.668 141.445 248.302 141.574C247.938 141.679 247.563 141.784 247.176 141.887C246.791 141.966 246.408 142.023 246.028 142.056C245.651 142.065 245.323 142.045 245.045 141.994C244.32 142.181 243.616 142.276 242.933 142.279C242.27 142.308 241.505 142.185 240.637 141.91C239.786 141.944 239.008 141.832 238.304 141.573C237.623 141.318 237.022 140.964 236.501 140.512C236.006 140.039 235.577 139.502 235.212 138.9C234.874 138.278 234.607 137.639 234.413 136.984C234.358 135.636 234.524 134.44 234.91 133.394C235.298 132.326 235.794 131.362 236.397 130.503C237.026 129.624 237.717 128.832 238.469 128.13C239.224 127.404 239.953 126.699 240.657 126.015C240.792 126.075 240.897 126.086 240.972 126.046C241.072 125.985 241.162 125.912 241.241 125.825C241.323 125.716 241.403 125.617 241.482 125.531C241.585 125.447 241.695 125.399 241.814 125.387C242.012 125.054 242.271 124.82 242.59 124.687C242.935 124.533 243.217 124.302 243.436 123.994C243.651 123.968 243.832 123.915 243.982 123.836C244.131 123.756 244.269 123.664 244.398 123.559C244.549 123.456 244.699 123.365 244.849 123.286C245 123.183 245.171 123.117 245.363 123.089L245.401 122.704C245.839 122.559 246.163 122.379 246.373 122.165C246.608 121.929 246.883 121.65 247.198 121.328C247.41 121.325 247.574 121.33 247.691 121.341C247.831 121.355 248.031 121.351 248.292 121.33C248.511 121.022 248.699 120.793 248.855 120.644C249.034 120.497 249.285 120.345 249.607 120.188C249.873 120.356 250.167 120.479 250.489 120.558C250.834 120.64 251.122 120.821 251.353 121.103C251.353 121.339 251.405 121.532 251.508 121.684C251.613 121.812 251.729 121.941 251.858 122.072C251.989 122.179 252.106 122.297 252.211 122.425C252.34 122.555 252.417 122.728 252.443 122.942C252.534 122.975 252.593 122.969 252.621 122.925C252.673 122.883 252.744 122.878 252.835 122.91C252.872 123.244 252.932 123.474 253.014 123.599C253.098 123.702 253.171 123.909 253.235 124.222C253.095 124.444 252.977 124.679 252.882 124.929C252.812 125.157 252.655 125.319 252.41 125.412C252.371 125.573 252.408 125.671 252.522 125.706C252.639 125.717 252.703 125.783 252.715 125.901C252.718 126.114 252.668 126.262 252.565 126.346C253.035 127.311 253.44 128.329 253.782 129.399C254.126 130.445 254.533 131.451 255.002 132.416ZM250.3 135.307C250.419 135.06 250.556 134.861 250.712 134.712C250.892 134.565 251.009 134.329 251.065 134.005C250.967 133.807 250.911 133.66 250.897 133.564C250.885 133.445 250.89 133.269 250.913 133.036C250.472 132.262 250.105 131.449 249.813 130.595C249.523 129.719 249.18 128.896 248.785 128.127C248.729 128.215 248.639 128.301 248.513 128.382C248.387 128.464 248.261 128.428 248.135 128.274C248.07 128.456 247.974 128.588 247.848 128.67C247.725 128.728 247.593 128.75 247.453 128.737C247.315 128.699 247.167 128.649 247.009 128.587C246.876 128.503 246.755 128.408 246.648 128.304C245.919 128.773 245.19 129.231 244.463 129.677C243.736 130.123 243.071 130.658 242.467 131.281C242.369 131.319 242.309 131.336 242.285 131.334C242.264 131.308 242.193 131.313 242.072 131.348C241.841 131.773 241.568 132.158 241.251 132.503C240.96 132.828 240.667 133.164 240.374 133.512C240.08 133.859 239.82 134.234 239.591 134.635C239.363 135.037 239.21 135.516 239.131 136.073C239.495 136.439 239.942 136.684 240.472 136.807C241.001 136.93 241.548 136.996 242.112 137.005C242.7 137.016 243.267 137.001 243.813 136.961C244.384 136.9 244.903 136.892 245.369 136.938C246.372 136.802 247.242 136.582 247.978 136.278C248.717 135.951 249.491 135.627 250.3 135.307ZM263.183 137.395C262.969 137.421 262.804 137.534 262.69 137.735C262.578 137.912 262.465 138.101 262.351 138.302C262.261 138.505 262.159 138.695 262.048 138.872C261.961 139.029 261.837 139.099 261.673 139.083C261.632 139.267 261.546 139.423 261.415 139.552C261.308 139.682 261.2 139.825 261.09 139.979C260.983 140.11 260.897 140.266 260.832 140.448C260.769 140.606 260.773 140.807 260.843 141.049C260.642 141.171 260.506 141.358 260.434 141.61C260.362 141.862 260.279 142.101 260.186 142.327C260.117 142.556 260.004 142.745 259.848 142.894C259.692 143.043 259.428 143.088 259.057 143.028C258.978 143.114 258.961 143.171 259.005 143.199C259.049 143.227 259.076 143.312 259.086 143.454C258.834 143.382 258.634 143.374 258.487 143.431C258.362 143.512 258.204 143.556 258.015 143.56C257.586 143.377 257.237 143.095 256.968 142.715C256.723 142.337 256.505 141.927 256.313 141.484C256.147 141.02 255.993 140.557 255.85 140.096C255.731 139.637 255.605 139.236 255.475 138.893C255.57 138.643 255.606 138.399 255.582 138.162C255.561 137.9 255.5 137.682 255.4 137.508C256.783 135.195 258.287 132.73 259.912 130.112C261.537 127.493 263.089 124.903 264.568 122.341C265.083 122.604 265.584 122.901 266.069 123.232C266.58 123.541 267.028 123.892 267.414 124.283C267.822 124.677 268.155 125.122 268.412 125.619C268.671 126.092 268.82 126.613 268.858 127.182C268.797 127.317 268.733 127.37 268.665 127.339C268.623 127.288 268.576 127.295 268.522 127.361C268.604 127.486 268.642 127.573 268.638 127.619C268.656 127.668 268.652 127.715 268.624 127.759C268.619 127.806 268.612 127.876 268.603 127.969C268.596 128.039 268.621 128.148 268.677 128.294C268.586 128.262 268.515 128.267 268.463 128.309C268.435 128.353 268.366 128.346 268.254 128.288C268.321 128.554 268.324 128.766 268.261 128.925C268.222 129.086 268.16 129.232 268.076 129.366C267.995 129.475 267.922 129.609 267.86 129.768C267.799 129.903 267.792 130.091 267.839 130.331C267.769 130.324 267.709 130.342 267.657 130.384C267.632 130.405 267.605 130.438 267.577 130.482C267.551 130.503 267.513 130.534 267.462 130.576C267.436 130.597 267.389 130.593 267.322 130.563C267.341 131.083 267.313 131.598 267.239 132.109C267.165 132.62 267.09 133.142 267.013 133.676C266.963 134.189 266.92 134.739 266.886 135.324C266.853 135.886 266.877 136.477 266.957 137.098C267.845 136.691 268.573 136.127 269.139 135.406C269.728 134.687 270.221 133.864 270.619 132.938C271.041 132.014 271.387 131.012 271.659 129.932C271.931 128.852 272.216 127.75 272.516 126.626C272.747 126.436 272.936 126.196 273.082 125.904C273.229 125.613 273.365 125.308 273.491 124.991C273.619 124.65 273.745 124.321 273.871 124.004C273.999 123.664 274.147 123.36 274.314 123.094C274.66 123.175 274.94 123.321 275.154 123.531C275.395 123.719 275.609 123.929 275.799 124.16C275.99 124.367 276.193 124.576 276.408 124.785C276.625 124.972 276.906 125.105 277.251 125.187C277.492 125.611 277.71 126.021 277.907 126.417C278.103 126.814 278.215 127.225 278.244 127.652C278.109 127.827 277.995 128.028 277.901 128.254C277.832 128.483 277.75 128.71 277.657 128.936C277.564 129.163 277.449 129.375 277.312 129.573C277.176 129.748 276.997 129.896 276.773 130.015C276.643 130.614 276.495 131.165 276.327 131.666C276.185 132.147 276.032 132.626 275.867 133.104C275.725 133.585 275.593 134.09 275.469 134.62C275.349 135.126 275.269 135.695 275.23 136.327C274.99 136.845 274.735 137.397 274.465 137.982C274.195 138.568 273.978 139.1 273.813 139.578C273.409 139.844 273.082 140.177 272.831 140.576C272.579 140.975 272.316 141.373 272.041 141.77C271.939 141.854 271.878 141.871 271.859 141.822C271.841 141.773 271.762 141.73 271.625 141.693C271.639 141.789 271.632 141.859 271.604 141.903C271.576 141.947 271.537 141.991 271.485 142.033C271.46 142.054 271.432 142.098 271.401 142.166C271.394 142.236 271.409 142.331 271.444 142.452C271.103 142.56 270.792 142.729 270.51 142.961C270.228 143.192 269.925 143.397 269.601 143.577C269.301 143.759 268.937 143.865 268.51 143.893C268.107 143.924 267.59 143.79 266.96 143.492C266.073 142.698 265.301 141.809 264.645 140.825C264.012 139.844 263.525 138.701 263.183 137.395Z" fill="black"/>
<g clip-path="url(#clip0_4142_11908)">
<path d="M82.9384 69.507C83.0891 69.5622 83.1088 69.6069 82.991 69.6167C82.8799 69.6221 82.7736 69.5764 82.7383 69.5225C82.7031 69.4687 82.7921 69.4586 82.9317 69.5114L82.9384 69.507ZM84.1461 69.9951C84.1746 70.0534 84.2877 70.0948 84.3921 70.0937C84.5099 70.0839 84.4946 70.0459 84.3395 69.984C84.1999 69.9312 84.1176 69.9369 84.1461 69.9951ZM87.3973 70.5691C87.5145 70.6462 87.7207 70.7131 87.8584 70.7191C87.9961 70.7252 87.8988 70.6639 87.6438 70.5808C87.3888 70.4978 87.28 70.4921 87.3929 70.5624L87.3973 70.5691ZM90.1621 71.4514C90.1304 71.549 91.2532 72.1119 91.3957 72.0668C91.4269 72.056 91.4406 71.9893 91.4211 71.9156C91.3755 71.7437 90.2141 71.3117 90.1621 71.4514ZM88.4353 70.8415C88.4698 71.0112 89.9376 71.4733 89.892 71.3014C89.892 71.3014 89.4878 70.9316 89.4279 70.9131C89.3681 70.8946 88.4075 70.6675 88.4353 70.8415ZM87.9949 69.8612C87.8863 69.8266 87.7706 69.8542 87.7502 69.9252C87.7297 69.9962 87.7603 70.0723 87.8357 70.0999C87.9067 70.1207 88.0157 70.0975 88.0805 70.0359C88.1497 69.981 88.1147 69.8982 87.9993 69.868L87.9949 69.8612ZM83.4788 69.7782C83.596 69.8552 83.8022 69.9222 83.9399 69.9282C84.0776 69.9342 83.9803 69.873 83.7297 69.7967C83.4747 69.7136 83.3659 69.7079 83.4788 69.7782ZM82.1322 69.4577C82.1674 69.5115 82.2738 69.5573 82.3849 69.5519C82.5027 69.5421 82.4874 69.5041 82.3323 69.4422C82.1927 69.3893 82.1104 69.3951 82.1389 69.4533L82.1322 69.4577ZM70.576 68.2517C70.576 68.2517 70.6466 68.3305 70.7552 68.3651C70.8639 68.3998 70.9685 68.3698 70.9933 68.3055C71.0138 68.2345 70.9319 68.1823 70.8141 68.1921C70.6919 68.1952 70.5873 68.2251 70.576 68.2517ZM73.7467 67.8406C73.6622 67.8574 73.615 67.946 73.6322 68.0308C73.6561 68.1112 73.738 68.1634 73.8181 68.1398C73.8983 68.1162 73.9499 68.0344 73.9326 67.9496C73.9154 67.8648 73.8268 67.817 73.7467 67.8406ZM64.045 68.4773C64.1057 68.7162 64.3123 68.7253 64.798 68.5038C65.0476 68.3886 65.1816 68.2721 65.0907 68.2355C64.7981 68.1386 64.0082 68.3188 64.045 68.4773ZM4.87599 44.0623C4.87599 44.0623 4.84922 44.0799 4.86261 44.0711C4.86261 44.0711 4.8693 44.0667 4.87599 44.0623ZM81.5963 69.1932C81.5758 69.2643 81.6175 69.3427 81.6929 69.3702C81.7683 69.3978 81.813 69.3494 81.7914 69.2578C81.7697 69.1663 81.728 69.0879 81.6947 69.0808C81.6614 69.0738 81.6167 69.1222 81.5963 69.1932ZM77.7125 68.1778C77.6944 68.2378 77.7539 68.3141 77.8403 68.3441C77.9268 68.374 78.1659 68.5059 78.365 68.6351C78.6925 68.8437 78.7103 68.8417 78.6119 68.589C78.5026 68.3049 77.7782 67.9715 77.7081 68.1711L77.7125 68.1778ZM75.3059 68.2526C75.2434 68.3031 75.3253 68.3553 75.4785 68.3704C75.6384 68.3811 75.7696 68.3626 75.7809 68.336C75.8193 68.234 75.4109 68.1648 75.3059 68.2526ZM62.0515 45.7612C62.1515 45.7534 62.0874 45.6992 61.9078 45.6437C61.7238 45.5815 61.6416 45.5872 61.7256 45.6572C61.8052 45.7205 61.9515 45.7689 62.0559 45.7679L62.0515 45.7612ZM65.6435 47.9377C65.5039 47.8849 65.4217 47.8906 65.4502 47.9489C65.4854 48.0027 65.5917 48.0485 65.7028 48.0431C65.8207 48.0333 65.8053 47.9952 65.6502 47.9333L65.6435 47.9377ZM64.1357 46.7715C63.8105 46.5518 63.5026 46.4169 63.4534 46.4586C63.3439 46.5687 63.2842 46.5212 64.1323 46.9563C64.965 47.3822 64.9653 47.3243 64.1357 46.7715ZM66.4683 48.2055C66.3287 48.1527 66.2464 48.1584 66.2749 48.2166C66.3101 48.2705 66.4165 48.3162 66.5276 48.3108C66.6454 48.301 66.6301 48.263 66.475 48.2011L66.4683 48.2055ZM96.9772 73.7206C96.9568 73.7917 97.0054 73.8367 97.0899 73.8199C97.1811 73.7987 97.266 73.724 97.2932 73.6486C97.3136 73.5776 97.265 73.5325 97.1782 73.5604C97.0937 73.5773 97.0021 73.6564 96.9816 73.7274L96.9772 73.7206ZM69.6283 49.8382C69.6079 49.9092 69.6429 49.992 69.7139 50.0129C69.7848 50.0337 69.8672 49.9991 69.8877 49.928C69.9081 49.857 69.8731 49.7742 69.8021 49.7534C69.7312 49.7325 69.6488 49.7672 69.6283 49.8382ZM90.1976 43.0274C90.6167 43.8583 91.2567 44.881 91.7723 45.5526C91.7987 45.593 91.8296 45.6401 91.8671 45.6829C92.0477 45.9298 92.2501 46.2394 92.3555 46.4299C92.4763 46.6584 92.8572 47.1972 93.1877 47.644C93.5248 48.0865 95.2327 51.3414 95.5367 51.7479C96.4642 52.9765 97.8999 56.0634 98.1016 56.4888C99.3623 59.1328 100.531 61.9139 100.746 62.3594C100.965 62.8117 101.218 63.5783 101.308 64.067C101.496 65.011 102.022 66.8384 102.272 67.3957C102.355 67.5814 102.955 69.6969 102.941 70.0129C102.928 70.3289 102.919 70.8253 102.935 71.1127C102.946 71.4224 102.884 71.6933 102.779 71.7812C102.681 71.8646 102.626 72.0444 102.659 72.1961C102.743 72.6602 102.543 73.012 102.07 73.2247C101.649 73.4136 101.625 73.449 101.792 73.6758C101.944 73.8935 101.928 73.9712 101.616 74.4152C101.421 74.6868 101.2 74.8891 101.129 74.8683C100.923 74.8013 101.537 77.0995 99.723 75.8741C99.5747 75.7789 98.6802 75.6528 97.7892 75.3131C97.1176 75.0604 97.3352 74.7356 96.7779 74.3218C96.1034 73.8308 93.8691 73.0147 93.7988 73.2433C93.7784 73.3143 94.0041 73.4549 94.3122 73.5609C94.7135 73.6924 94.7975 73.7624 94.6328 73.8028C94.2546 73.8964 93.0566 73.6133 92.6075 73.3209C92.2446 73.0874 92.2096 73.0046 92.347 72.7033C92.4506 72.4819 92.4447 72.3705 92.3356 72.3937C92.0975 72.4533 91.6908 72.1236 91.7897 71.9533C91.8346 71.8759 91.7531 71.7658 91.6068 71.7174C91.4117 71.6528 91.3768 71.5411 91.4494 71.3014L91.5515 70.9753L90.2011 70.5612C89.4605 70.3345 88.7017 70.1677 88.5105 70.1967C88.2236 70.2402 88.2014 70.2355 88.3842 70.1351C88.7565 69.9301 88.6995 69.8137 88.1364 69.6246C87.7196 69.484 87.6018 69.4938 87.6074 69.6631C87.6232 69.9794 87.1674 70.0276 86.8248 69.7521C86.6767 69.6279 86.4263 69.5226 86.282 69.5209C86.1376 69.5193 86.0025 69.4442 85.9809 69.3527C85.9225 69.1027 85.2083 68.9163 84.7609 69.0359C84.4605 69.117 83.9923 69.0293 82.8814 68.6892C81.4489 68.2519 80.6297 68.1535 80.5481 68.4086C80.5277 68.4796 80.6712 68.626 80.8726 68.7441C81.6517 69.205 81.1023 69.3145 79.7314 68.9714C78.9928 68.7915 78.8355 68.7118 78.9252 68.5859C79.0059 68.4755 79.2034 68.5 79.5292 68.6329C79.928 68.8045 80.0147 68.8055 79.9982 68.6049C79.9947 68.4534 80.0595 68.3918 80.1836 68.4356C80.2923 68.4702 80.3703 68.4288 80.342 68.3416C80.3203 68.2501 79.9305 68.063 79.476 67.9086C78.8308 67.6964 78.6088 67.6783 78.4923 67.8216C78.3759 67.965 78.3138 67.9576 78.2081 67.7961C78.1289 67.675 78.0293 67.6248 77.96 67.6797C77.8975 67.7302 77.6508 67.7474 77.4133 67.7202C77.1757 67.693 77 67.731 77.0195 67.8047C77.0606 67.97 76.5482 68.5452 76.4019 68.4968C76.3421 68.4783 76.1542 68.3225 75.982 68.1468C75.6862 67.8406 75.2404 67.7286 75.1724 67.946C75.1565 67.9948 74.8216 67.9064 74.4339 67.7372C74.0394 67.5723 73.5714 67.4556 73.3935 67.4758C73.209 67.5004 72.9512 67.5153 72.8068 67.5136C72.4602 67.5097 72.4031 67.7584 72.7267 67.8734C72.8731 67.9219 72.9703 68.012 72.9521 68.0719C72.934 68.1319 72.552 68.103 72.0972 68.0065C71.649 67.9056 71.0984 67.8525 70.8672 67.8788C70.6403 67.9118 69.9673 67.8907 69.37 67.8393C68.6816 67.7802 68.2882 67.8068 68.2942 67.9182C68.298 68.0118 68.124 68.1256 67.9083 68.161C67.5903 68.2152 66.4672 68.3827 65.6553 68.193C65.3181 68.1156 64.9296 68.0622 64.7896 68.0672C64.2962 68.1017 63.9828 67.7685 63.9907 67.2253C63.9935 66.7912 64.0407 66.7027 64.252 66.6606C64.4811 66.6164 64.4769 66.5808 64.3053 66.3183C64.1425 66.0693 64.1405 66.0225 64.3431 65.9669C64.6991 65.8686 64.5138 65.6727 64.129 65.7418C63.9488 65.7731 64.0299 65.6048 64.0639 65.4961C64.1092 65.3608 64.787 63.928 65.1306 63.6937C65.3381 63.5581 65.5371 63.351 65.5734 63.2312C65.6097 63.1114 65.7392 63.0172 65.8614 63.0141C65.9836 63.0111 66.2797 62.558 66.4939 62.418C66.6277 62.3304 66.8614 62.2641 67.0169 62.2681C67.1724 62.2721 67.3174 62.187 67.3558 62.085C67.3875 61.9874 67.6149 61.8675 67.8595 61.8325C68.1108 61.7931 68.3294 61.6598 68.3613 61.5332C68.4 61.3733 68.5559 61.3195 68.8623 61.3497C69.1065 61.3726 69.5732 61.3556 69.909 61.2994C70.7786 61.1535 73.0825 61.1555 73.506 61.2917C74.0203 61.4646 76.9444 61.4069 77.3457 61.5384C78.0397 61.7668 79.9858 62.1276 81.8682 62.3764C83.3666 62.5784 83.7616 62.6564 84.9991 63.0002C85.5957 63.1673 86.1017 63.2399 86.1511 63.1692C86.2094 63.0831 86.3555 63.1605 86.5807 63.3879C86.8964 63.71 86.934 63.7238 87.1595 63.5571C87.3134 63.4565 87.4957 63.443 87.6483 63.5449C87.7811 63.6311 87.9498 63.6553 88.019 63.6004C88.0882 63.5455 88.2946 63.5835 88.4761 63.6858C88.9632 63.963 89.4053 63.9525 89.5049 63.6665C89.5502 63.5312 89.5421 63.4019 89.4956 63.3747C88.8179 63.0396 88.5228 62.9827 88.2151 63.1551C87.9074 63.3275 87.8852 63.3228 87.9466 63.1097C87.9919 62.9744 87.948 62.8782 87.8369 62.8836C87.7325 62.8846 87.5464 62.8045 87.4226 62.7029C87.2304 62.5404 87.2282 62.5226 87.4256 62.576C87.5565 62.6154 87.6834 62.5612 87.7219 62.4592C87.7536 62.3616 87.8586 62.2737 87.9452 62.2747C88.1363 62.2747 88.0206 61.601 87.8144 61.534C87.7434 61.5132 87.734 61.5865 87.7934 61.6919C87.8724 61.842 87.8005 61.9658 87.4948 62.185C87.2091 62.391 87.0689 62.425 86.9987 62.2884C86.9504 62.1854 86.8179 62.0703 86.7136 62.0424C86.605 62.0077 86.4332 61.7742 86.3214 61.5302C86.1899 61.2415 86.0222 61.0726 85.8445 61.0638C85.6957 61.0555 85.5275 60.9444 85.4795 60.8125C85.4248 60.685 85.3079 60.55 85.1992 60.5154C85.0973 60.4764 84.7812 60.2122 84.5054 59.9218C84.2251 59.6247 83.9201 59.3629 83.827 59.3373C83.7405 59.3074 83.5724 59.1964 83.4731 59.0884C83.2391 58.8474 82.7817 58.4547 82.5097 58.2579C82.3991 58.1765 82.3381 57.9954 82.3834 57.8601C82.4468 57.6649 82.5313 57.6481 82.7859 57.789C83.025 57.9209 83.1073 57.9152 83.1082 57.7705C83.1089 57.6547 82.9964 57.5265 82.8568 57.4737C82.3692 57.2833 82.2941 57.2268 82.3371 57.1026C82.3575 57.0315 82.5331 57.0224 82.7171 57.0847C82.9277 57.1583 83.0545 57.1331 83.0552 57.0173C83.0559 56.9015 82.7881 56.7404 82.3625 56.5863C81.7684 56.3791 81.6929 56.3804 81.8427 56.5803C81.9638 56.7509 81.9604 56.9357 81.8322 57.1925C81.5869 57.6795 81.6285 57.7869 82.2934 58.3801C82.6072 58.6554 82.9561 58.9844 83.0686 59.1127C83.8519 59.9744 84.8059 60.8782 85.405 61.3416C86.0551 61.8389 86.7365 62.6327 86.4395 62.5291C86.3685 62.5082 85.9796 62.1765 85.571 61.7999C84.6279 60.9274 84.3065 60.8013 84.5871 61.4056C84.7011 61.6385 84.7444 61.8216 84.6845 61.8031C84.6247 61.7846 84.1475 61.3472 83.6331 60.8381C83.1076 60.3266 82.5553 59.8326 82.3892 59.7394C82.2232 59.6462 82.091 59.4733 82.0961 59.3642C82.0957 59.0859 82.6887 59.4668 83.0055 59.9513C83.1376 60.1533 83.3629 60.3518 83.4981 60.3979C83.9704 60.5502 83.7553 60.1336 83.0747 59.5603C82.4537 59.0343 82.1836 58.8843 80.7278 58.2797C80.3068 58.1035 79.523 57.3285 79.5841 57.1444C79.5954 57.1178 80.0291 57.4011 80.5532 57.779C81.073 58.1501 81.5843 58.4499 81.6776 58.4465C81.7709 58.4431 81.3739 57.9821 80.8065 57.4212C80.228 56.8579 79.8928 56.4622 80.0611 56.5443C80.2251 56.6196 80.4094 56.624 80.4655 56.5489C80.6022 56.3635 79.9533 56.0287 79.624 56.1095C79.4282 56.1607 79.2288 56.0604 78.8575 55.7556C78.389 55.3606 76.0629 53.6149 74.7049 52.6486C74.3665 52.4087 73.9969 52.1796 73.8728 52.1358C73.753 52.0988 73.4259 51.8323 73.15 51.5419C72.8741 51.2515 72.257 50.8192 71.7698 50.5709C70.9903 50.1678 70.3708 49.7755 69.2161 48.974C69.0082 48.8314 68.5141 48.6164 68.1105 48.496C67.5805 48.3429 67.3326 48.1976 67.2361 47.9916C67.1527 47.8348 67.0226 47.6797 66.9362 47.6498C66.8497 47.6198 66.4178 47.4122 65.9727 47.1845C65.5275 46.9567 64.8209 46.6213 64.4022 46.4339C63.1926 45.899 62.9179 45.7711 62.3444 45.464C61.9636 45.2614 61.7639 45.219 61.6522 45.3113C61.5606 45.3904 61.3963 45.3729 61.246 45.2599C61.1044 45.1603 61.043 45.0371 61.0988 44.991C61.1547 44.9449 60.98 44.8093 60.7097 44.6881C60.3486 44.5304 60.2176 44.5199 60.23 44.6559C60.2358 44.7963 60.0426 44.7784 59.5105 44.6076C58.8388 44.3839 58.7747 44.3297 58.6797 43.8922C58.5738 43.4234 58.3638 43.2629 57.8793 43.2818C57.6638 43.2883 57.6613 43.3283 57.8842 43.5669C58.3299 44.044 57.7186 43.752 57.2153 43.2453C56.6059 42.6349 54.8128 43.0195 54.8128 43.0195L54.2915 42.5437C53.9359 42.219 53.4621 41.9619 52.7993 41.7228C51.5114 41.2582 51.5977 41.3171 51.2439 40.7029C50.9033 40.109 50.682 39.9751 50.4805 40.2221C50.317 40.4251 50.3849 40.5728 50.6954 40.6677C50.8306 40.7138 50.9144 40.8127 50.8917 40.8948C50.8599 40.9924 50.5715 40.9312 50.0109 40.7021C49.5566 40.5188 49.1618 40.4118 49.1436 40.4718C49.1255 40.5317 49.0454 40.5552 48.97 40.5276C48.8946 40.5001 49.0067 40.3499 49.2254 40.1877C49.4442 40.0254 49.6363 39.8517 49.6522 39.8029C49.7044 39.6343 48.5589 39.4898 48.287 39.6292C48.0485 39.7467 48.0682 39.7914 48.4355 40.0317C48.8072 40.2786 48.7716 40.2827 47.9376 40.0593C47.4386 39.9245 47.053 39.7731 47.0645 39.7175C47.0826 39.6576 47.043 39.5971 46.9721 39.5762C46.9011 39.5554 46.8495 39.6371 46.8598 39.7553C46.8675 39.9424 46.7032 39.9249 45.8741 39.6504C45.3264 39.4705 44.8945 39.2629 44.9127 39.203C44.9626 39.0455 45.5974 39.1396 45.7606 39.3307C45.8356 39.4162 45.9574 39.471 46.0352 39.4586C46.26 39.4077 45.9309 39.0944 45.503 38.9515C44.8424 38.7301 44.4889 38.7595 44.4917 39.0267C44.4971 39.2249 44.4726 39.2313 44.3716 39.0476C44.3035 38.9288 44.1244 38.7865 43.9758 38.7491C43.7939 38.6951 43.7781 38.7342 43.9284 38.8666C44.1052 39.02 44.1138 39.0624 43.9405 39.0604C43.3384 39.0602 41.0084 38.6238 40.7268 38.5292C40.1482 38.3311 38.7656 38.1015 38.5275 38.1611C38.1069 38.2631 37.7032 38.1716 37.0922 37.8217C36.7823 37.6401 36.6823 37.6478 36.5611 37.8424C36.4422 38.0258 36.2888 38.0396 35.8542 37.901C35.5505 37.8018 35.2108 37.7645 35.0861 37.8076C34.8033 37.9157 33.4824 37.7513 32.9017 37.5354C32.6157 37.4341 32.2826 37.4214 32.0332 37.5076C31.8016 37.5917 31.004 37.5848 30.1627 37.4816C29.3546 37.3855 28.3708 37.3274 27.9773 37.3541C27.5795 37.374 27.1043 37.3485 26.9092 37.2839C26.7185 37.2261 26.392 37.209 26.174 37.2555C25.9626 37.2976 25.656 37.2963 25.5097 37.2478C25.2548 37.1647 24.9325 37.1833 23.1718 37.3546C22.8406 37.3886 22.3496 37.383 22.0832 37.3554C21.8124 37.3211 21.5845 37.5278 21.4087 37.5659C21.2329 37.6039 20.8772 37.6444 20.6173 37.6414C19.4864 37.6507 15.7591 38.5987 14.6291 39.1646C14.4285 39.2669 14.2193 39.3269 14.1594 39.3084C13.9532 39.2414 13.1814 39.7269 12.8835 39.768C12.6922 39.797 12.3895 39.8892 12.2046 39.9717C12.0196 40.0542 11.104 40.4511 10.175 40.8568C9.246 41.2625 8.08943 41.817 7.61672 42.0877C5.66794 43.1986 5.78529 43.6119 5.74339 43.5624C5.64199 43.4366 5.18404 43.8321 4.99628 44.0125C4.96282 44.0344 4.94485 44.0654 4.93146 44.0741C4.98289 44.0213 5.00985 43.9748 4.98326 43.9634C4.94998 43.9563 4.02189 44.9187 3.73144 45.1758C3.24883 45.6067 3.33703 45.011 3.21188 44.7758C3.17667 44.7219 3.20903 44.1723 3.36388 43.927C3.48279 43.7435 3.51983 43.5079 3.46299 43.3626C3.38432 43.1546 3.74298 42.651 3.56429 42.4508C3.20022 42.0548 4.87184 39.4533 4.98332 39.39C5.08371 39.3244 5.26973 39.0682 5.38021 38.8134C5.59731 38.2103 5.98851 37.8296 6.78229 37.3778C7.13013 37.1792 7.43818 36.9489 7.46972 36.8803C7.49686 36.8049 7.8359 36.5928 8.22811 36.4036C8.62033 36.2144 9.82722 35.7807 10.7617 35.2081C11.6918 34.6287 12.8021 34.018 13.2297 33.8537C13.6573 33.6894 14.2832 33.4339 14.6286 33.2753C14.974 33.1167 15.653 32.8841 16.1382 32.7494C16.6234 32.6147 17.327 32.3756 17.7056 32.2241C19.002 31.6935 19.934 31.8623 20.4477 31.7858C21.0349 31.6901 21.067 31.5346 20.4936 31.5637C20.278 31.5701 20.107 31.557 20.1183 31.5304C20.1342 31.4816 20.8772 31.332 22.9168 30.9591C24.0601 30.7496 25.5736 30.3172 28.0745 30.4306C29.2161 30.4815 30.3123 30.3316 30.6767 30.3336C31.0366 30.3288 31.7405 30.397 32.2265 30.4827C32.7192 30.5641 33.0523 30.2406 33.2877 30.25C34.3406 30.2821 37.8802 30.5521 38.5894 30.4823C38.8384 30.454 42.1944 30.9691 44.1694 31.3302C44.9949 31.4822 46.3863 31.7253 47.2652 31.8712C50.1814 32.3567 58.9859 35.1698 59.4746 35.8879C59.6022 36.0831 60.9005 36.6658 61.7409 36.9137C62.0403 37.0062 63.1365 37.5576 64.1725 38.1484C65.2085 38.7392 65.9747 38.7859 66.3579 38.9773C68.3554 39.9866 70.6238 41.7316 71.0008 41.8406C71.2359 41.9078 71.4926 42.0666 71.5762 42.1945C71.6598 42.3224 71.8303 42.4223 71.9659 42.4105C72.1059 42.4055 72.2807 42.5121 72.362 42.6511C72.4501 42.7857 72.7263 43.0182 72.992 43.1615C73.2577 43.3049 73.9479 43.7759 74.5405 44.2147C75.1287 44.6467 76.1529 45.3509 76.8123 45.7749C79.2021 47.2964 83.3985 50.8648 87.3443 54.722C88.5874 55.9364 89.6691 57.0354 89.755 57.1522C89.8342 57.2733 90.2604 57.6767 90.6979 58.0536C91.1354 58.4305 91.8532 59.1045 92.2925 59.557C93.096 60.3768 93.4256 60.6032 93.507 60.377C93.5658 60.204 93.3694 59.3045 93.2607 59.2698C93.2119 59.2537 92.9963 58.9239 92.7766 58.5295C92.5614 58.1418 92.3191 57.8006 92.2438 57.773C92.1617 57.7498 91.9813 57.4739 91.8366 57.1649C91.5494 56.5649 91.49 56.4596 90.948 55.7475C90.7519 55.4914 90.4569 55.0695 90.2963 54.8093C89.7839 53.9818 89.2621 53.2277 89.0879 53.0342C88.993 52.933 88.8986 52.7448 88.8638 52.6331C88.8356 52.517 88.712 52.3864 88.5879 52.3427C88.4638 52.299 88.2217 51.9288 88.0577 51.5172C87.8893 51.0989 87.6428 50.722 87.5076 50.676C87.3657 50.6342 87.2821 50.5064 87.3094 50.402C87.3478 50.3001 87.1871 50.0689 86.9682 49.8949C86.7494 49.721 86.5841 49.512 86.6135 49.4255C86.6429 49.339 86.5306 49.1818 86.3669 49.0775C86.2031 48.9732 86.0954 48.7939 86.1338 48.6919C86.1678 48.5832 86.0779 48.4018 85.9342 48.2844C85.7906 48.1669 85.4843 47.7715 85.2577 47.4105C85.0312 47.0494 84.7954 46.7327 84.7356 46.7142C84.6757 46.6957 84.4884 46.4531 84.3191 46.1795C84.1497 45.9059 83.799 45.5011 83.5404 45.2955C83.2221 45.0425 83.1055 44.8497 83.1797 44.7147C83.2944 44.4956 82.9212 44.144 82.6408 44.212C82.4027 44.2716 81.9556 43.6608 82.0417 43.3835C82.1008 43.1816 81.3349 42.0394 80.8687 41.6333C80.7759 41.5498 80.6483 41.3547 80.587 41.2026C80.458 40.8738 80.03 40.3946 80.0951 40.6403C80.1168 40.7318 80.0518 40.8223 79.9605 40.8436C79.8626 40.8692 79.6028 40.501 79.3749 40.0063C78.9979 39.196 78.9162 39.1149 78.3598 38.9215C77.7967 38.7324 77.6093 38.4898 78.0182 38.4722C78.1582 38.4671 78.172 38.4005 78.0711 38.1878C77.9374 37.9102 76.8199 37.2093 76.5996 37.2669C76.5328 37.2818 76.4265 37.236 76.367 37.1596C76.2832 37.0607 76.3168 37.0099 76.4637 36.9715C76.7863 36.895 76.3763 36.3849 75.8465 36.2029C75.6093 36.1178 75.4633 36.0115 75.5259 35.961C75.5884 35.9105 75.5451 35.7274 75.4173 35.5612C75.1309 35.1816 74.9913 35.1288 75.0028 35.4094C75.0105 35.5966 74.9351 35.569 74.4598 35.2073C73.949 34.8207 73.8891 34.8022 73.6794 34.9489C73.5522 35.0321 73.352 35.0765 73.2322 35.0395C72.9773 34.9564 72.3756 33.8318 72.455 33.5878C72.48 33.4946 72.4547 33.2805 72.3936 33.0995C72.2606 32.7061 72.5477 31.5671 72.6125 31.5055C72.6818 31.4507 72.7144 31.2083 72.6759 30.9741C72.6374 30.7399 72.6612 30.4841 72.7262 30.3935C72.7889 30.3141 72.7858 30.1048 72.7047 29.9369C72.6302 29.7646 72.6405 29.5465 72.7256 29.4428C72.8106 29.3391 72.8389 29.0901 72.7868 28.8935C72.7152 28.6233 72.5712 27.161 72.8737 26.3963C73.1785 25.6205 73.9256 25.5356 74.0939 25.6177C74.2888 25.7112 74.5 25.698 74.6696 25.5775C75.0356 25.319 75.7697 25.5211 76.2309 26.0074C76.4406 26.2258 76.6834 26.4802 76.7784 26.5525C77.2005 26.9203 78.0591 27.8096 79.5484 29.4299C80.4333 30.3886 81.3116 31.3227 81.4882 31.5051C81.6715 31.6831 81.881 31.9304 81.9646 32.0583C82.0438 32.1794 82.3813 32.564 82.7057 32.8995C83.5511 33.7687 86.0104 36.9453 87.7743 39.4237C88.2676 40.1196 88.9415 41.0625 89.2719 41.5094C89.6067 41.963 90.0422 42.6582 90.2374 43.059L90.1976 43.0274ZM73.3885 34.2264C73.3885 34.2264 73.328 34.2947 73.294 34.4034C73.26 34.5122 73.317 34.6286 73.4257 34.6632C73.7671 34.7763 73.7357 34.4798 73.3885 34.2264ZM82.4469 43.6086C82.3338 43.5672 82.2225 43.6016 82.2021 43.6726C82.1817 43.7436 82.2123 43.8196 82.2832 43.8405C82.3542 43.8613 82.4588 43.8314 82.528 43.7765C82.5973 43.7216 82.5622 43.6389 82.4469 43.6086ZM40.2483 37.622C40.1773 37.6011 40.1128 37.6048 40.0949 37.6358C40.088 37.6691 40.123 37.7519 40.1781 37.8216C40.2332 37.8912 40.3044 37.8831 40.3315 37.8077C40.3586 37.7323 40.3125 37.6472 40.2416 37.6264L40.2483 37.622ZM41.4986 38.0438C41.359 37.991 41.2767 37.9967 41.3053 38.0549C41.3405 38.1088 41.4468 38.1545 41.5579 38.1491C41.6758 38.1394 41.6604 38.1013 41.5053 38.0394L41.4986 38.0438ZM51.0698 39.7791C51.0516 39.8391 51.2397 39.9659 51.4946 40.049C51.7718 40.1368 51.9451 40.1388 51.9234 40.0472C51.9018 39.9557 51.7403 39.8403 51.5674 39.7804C51.3723 39.7158 51.2753 39.5967 51.3116 39.4769C51.3797 39.2595 51.2356 39.1999 50.6758 39.1913C50.3182 39.1849 50.3182 39.1849 50.7143 39.4255C50.9312 39.5527 51.0946 39.7149 51.0698 39.7791ZM53.2603 41.2004C53.2071 41.1775 53.0388 41.0954 52.8792 41.0268C52.7264 40.9538 52.5737 40.8518 52.5429 40.8047C52.4683 40.6613 51.8132 40.6093 51.7702 40.7335C51.7521 40.7934 51.7716 40.8671 51.8248 40.89C52.824 41.3223 53.2697 41.4632 53.3081 41.3612C53.3286 41.2902 53.309 41.2165 53.2559 41.1936L53.2603 41.2004ZM52.3275 39.7446C52.1878 39.6918 52.1056 39.6975 52.1341 39.7557C52.1693 39.8096 52.2757 39.8553 52.3868 39.8499C52.5046 39.8402 52.4893 39.8021 52.3342 39.7402L52.3275 39.7446ZM54.644 41.9577C54.1063 41.6176 53.7117 41.4817 53.6574 41.6324C53.637 41.7034 53.9226 41.8626 54.3107 41.9739C54.8983 42.1566 54.9516 42.1505 54.644 41.9577ZM54.5418 40.91C54.4037 40.9619 54.3054 41.0454 54.3251 41.0901C54.3866 41.2133 54.6916 41.1099 54.7482 40.948C54.7776 40.8615 54.6999 40.8451 54.5418 40.91ZM53.981 40.0085C53.8302 39.9534 53.7679 39.9749 53.8117 40.0712C53.9501 40.3266 54.4281 40.6193 54.4757 40.4729C54.53 40.3221 54.3356 40.1417 53.981 40.0085ZM55.8018 40.8644C55.3582 40.7413 55.0074 40.7016 55.0226 40.7686C55.0377 40.8356 55.2655 40.9941 55.5224 41.1239C55.7793 41.2538 56.0716 41.4086 56.169 41.4698C56.2774 41.5334 56.4044 41.4792 56.4698 41.3308C56.5868 41.1005 56.5359 41.0666 55.7907 40.8621L55.8018 40.8644ZM57.3451 41.6904C57.4143 41.6355 57.346 41.5457 57.2107 41.4996C57.0644 41.4511 56.8955 41.4559 56.824 41.5219C56.7548 41.5767 56.8231 41.6666 56.9584 41.7127C57.1047 41.7611 57.2802 41.752 57.3451 41.6904ZM59.0354 43.8518C58.8891 43.8033 58.7801 43.8266 58.8017 43.9181C58.819 44.0029 58.9341 44.0621 59.0563 44.0591C59.3608 44.0425 59.3547 43.9601 59.0398 43.8585L59.0354 43.8518ZM59.6558 43.7631C59.5805 43.7356 59.5024 43.777 59.4753 43.8524C59.4549 43.9234 59.4589 43.988 59.4899 44.0062C59.5232 44.0132 59.6056 43.9785 59.6704 43.9169C59.7396 43.8621 59.7312 43.7907 59.6558 43.7631ZM60.2522 43.9593C60.2522 43.9593 60.1365 43.9869 60.0717 44.0485C60.0025 44.1033 60.0109 44.1747 60.0863 44.2023C60.1616 44.2299 60.2397 44.1884 60.2668 44.1131C60.2872 44.042 60.2788 43.9707 60.2522 43.9593ZM59.6561 42.6677C59.5549 42.5129 59.3601 42.3904 59.2402 42.3823C59.1136 42.3787 58.8588 42.2666 58.662 42.1263C58.2063 41.8094 57.8203 41.7159 57.6837 41.9013C57.612 41.9963 57.7135 42.0932 57.9685 42.1763C58.1858 42.2455 58.4268 42.4242 58.4948 42.5719C58.6417 42.8698 58.8898 42.9862 58.9466 42.7953C58.967 42.7243 59.1803 42.729 59.4197 42.803C59.8277 42.9302 59.8344 42.9258 59.6517 42.6609L59.6561 42.6677ZM61.0975 43.7908C61.0522 43.9261 61.3262 44.1698 61.6232 44.2734C61.7918 44.3265 61.8097 44.2955 61.7244 44.0919C61.6128 43.819 61.1543 43.6 61.0908 43.7952L61.0975 43.7908ZM62.9899 44.2156C62.1948 43.8324 61.4063 43.4448 61.2336 43.356C60.7464 43.1077 60.2805 43.0088 60.1908 43.1347C60.1415 43.2054 60.4139 43.3444 60.8907 43.4745C61.5737 43.6716 61.7065 43.7578 61.8797 44.1249C61.9937 44.3578 62.2055 44.594 62.3629 44.6448C62.8063 44.7968 63.016 45.0152 62.9434 45.2549C62.8822 45.439 62.8977 45.448 63.0629 45.3208C63.1813 45.2242 63.2086 45.1199 63.1336 45.0344C63.0741 44.958 63.0793 44.849 63.1619 44.7853C63.3852 44.6009 63.8858 44.8404 64.0567 45.2187C64.232 45.6036 65.061 45.9071 65.247 45.6509C65.3837 45.4655 64.7597 45.0664 62.9966 44.2112L62.9899 44.2156ZM66.0174 45.7333C65.8156 45.673 65.7156 45.6808 65.7952 45.7441C65.8747 45.8073 65.9094 45.948 65.8777 46.0456C65.846 46.1432 65.903 46.2596 66.0116 46.2943C66.1203 46.3289 66.2474 46.2458 66.295 46.0994C66.3651 45.8998 66.2968 45.8099 66.013 45.7265L66.0174 45.7333ZM67.3648 46.6104C67.4564 46.5313 67.1517 46.2406 66.6559 45.9499C66.6249 45.9317 66.6706 46.0747 66.7539 46.2605C66.916 46.6253 67.1683 46.7774 67.3582 46.6148L67.3648 46.6104ZM68.2959 47.9905C68.2959 47.9905 68.3596 48.1025 68.4524 48.186C68.5563 48.2718 68.6163 48.2613 68.588 48.1742C68.5489 48.0268 68.3232 47.8861 68.2848 47.9881L68.2959 47.9905ZM69.0518 47.5538C69.1696 47.544 69.1499 47.4993 68.9992 47.4441C68.8595 47.3913 68.7773 47.397 68.8058 47.4553C68.841 47.5091 68.9474 47.5549 69.0518 47.5538ZM71.4013 49.8319C71.2798 49.7192 71.1604 49.6243 71.1449 49.6152C71.1294 49.6061 71.0914 49.6502 71.0753 49.7279C71.0549 49.799 71.1676 49.8982 71.3317 49.9446C71.6155 50.028 71.6222 50.0237 71.4013 49.8319ZM70.1002 47.9444C70.0026 47.9121 69.9498 47.8313 69.977 47.7559C69.9974 47.6849 69.9155 47.6328 69.7977 47.6425C69.6755 47.6456 69.6003 47.5891 69.6231 47.507C69.6502 47.4316 69.5997 47.3397 69.5132 47.3097C69.4002 47.2684 69.3799 47.3104 69.4546 47.4538C69.5072 47.5635 69.4973 47.7237 69.4279 47.8075C69.3025 47.9664 69.4329 48.0636 69.8922 48.1669C70.0253 48.1951 70.2022 48.3196 70.2748 48.4451C70.354 48.5663 70.4712 48.6433 70.5426 48.6063C70.6852 48.5322 70.3552 48.0275 70.1113 47.9467L70.1002 47.9444ZM71.2237 48.7566C71.1527 48.7358 71.108 48.7842 71.1363 48.8714C71.1579 48.9629 71.2329 49.0484 71.3083 49.076C71.3793 49.0969 71.424 49.0484 71.4024 48.9568C71.3807 48.8653 71.3057 48.7798 71.2304 48.7523L71.2237 48.7566ZM77.2784 53.2237C77.3476 53.1688 77.2726 53.0833 77.1263 53.0349C76.98 52.9864 76.8445 52.9693 76.8377 53.0026C76.7947 53.1268 77.1711 53.3226 77.2717 53.228L77.2784 53.2237ZM72.11 49.4838C72.0013 49.4491 71.8992 49.439 71.8856 49.4767C71.8403 49.612 72.0705 49.7594 72.1888 49.6628C72.2536 49.6012 72.223 49.5251 72.1144 49.4905L72.11 49.4838ZM73.8607 50.8754C73.9076 50.8448 73.9416 50.7361 73.9356 50.6247C73.9255 50.4776 73.7152 50.3461 73.2608 50.1917C72.8972 50.0739 72.6108 50.0306 72.6216 50.0908C72.6583 50.2493 73.7382 50.9364 73.854 50.8798L73.8607 50.8754ZM74.3533 51.6871C74.2823 51.6663 74.211 51.7033 74.1838 51.7787C74.1634 51.8497 74.2317 51.9396 74.3447 51.9809C74.4578 52.0223 74.5314 51.9742 74.5142 51.8894C74.4925 51.7978 74.4175 51.7124 74.3533 51.6871ZM75.4723 52.4926C75.4723 52.4926 75.3943 52.534 75.3739 52.6051C75.3534 52.6761 75.3951 52.7545 75.4705 52.7821C75.5459 52.8097 75.5906 52.7612 75.569 52.6696C75.5517 52.5848 75.5056 52.4997 75.4723 52.4926ZM74.4896 50.8582C74.4297 50.8397 74.2806 50.8892 74.1601 50.9679C73.9727 51.0905 73.988 51.1285 74.2695 51.223C74.5134 51.3038 74.6069 51.2714 74.5991 51.1133C74.5954 50.9908 74.5384 50.8743 74.4896 50.8582ZM73.0422 48.9222C72.7163 48.8183 72.6562 48.8288 72.7708 48.9748C72.9736 49.2265 73.3749 49.358 73.4271 49.1894C73.4542 49.114 73.2817 48.9962 73.0422 48.9222ZM78.0864 54.3863C77.8785 54.2436 77.4981 53.9543 77.2462 53.7443C76.7046 53.3106 76.43 53.1827 76.4885 53.4038C76.5102 53.4954 76.6229 53.5946 76.747 53.6384C76.8667 53.6754 77.2359 53.9624 77.565 54.2757C77.8896 54.5822 78.2434 54.8601 78.352 54.8948C78.6668 54.9964 78.4956 54.676 78.0864 54.3863ZM77.6726 52.7161C77.6191 52.7511 77.6581 52.8985 77.766 53.0489C77.8717 53.2104 77.935 53.3804 77.8924 53.4467C77.852 53.5019 77.9093 53.5894 78.0112 53.6284C78.1198 53.663 78.2289 53.6398 78.2493 53.5688C78.3015 53.4002 77.7952 52.6551 77.6659 52.7204L77.6726 52.7161ZM81.1036 56.8234C81.0326 56.8026 80.9613 56.8396 80.9364 56.9039C80.8866 57.0614 81.085 57.3064 81.2075 57.2454C81.3301 57.1845 81.2499 56.8719 81.0925 56.8211L81.1036 56.8234ZM79.7711 54.2743C79.7187 54.1356 79.5641 53.9869 79.4178 53.9385C79.2826 53.8924 79.1613 53.7507 79.1509 53.6326C79.1372 53.3341 78.9486 53.2941 78.8026 53.5529C78.6745 53.7807 79.1224 54.2757 79.5991 54.4349C79.8207 54.5109 79.8454 54.4755 79.76 54.2719L79.7711 54.2743ZM80.1834 54.7733C79.985 54.5284 79.9363 54.5122 79.9883 54.7087C80.01 54.8003 80.0961 54.8881 80.1825 54.918C80.2801 54.9503 80.2804 54.8924 80.1834 54.7733ZM81.0117 55.1925C80.6714 54.9058 80.4208 54.8295 80.4641 55.0126C80.4813 55.0974 80.6095 55.2057 80.7447 55.2518C80.8799 55.2979 81.0081 55.4062 81.0254 55.491C81.0426 55.5759 81.122 55.6681 81.193 55.6889C81.3991 55.7558 81.2613 55.4136 80.9962 55.1834L81.0117 55.1925ZM87.1359 61.3147C87.0009 61.2397 86.8708 61.0845 86.847 60.9752C86.8233 60.8658 86.5824 60.6582 86.3123 60.5081C86.0355 60.3624 85.8012 60.1794 85.7817 60.1057C85.7384 59.9226 85.4989 59.8486 85.2008 59.9187C85.0183 59.9611 85.0334 60.0281 85.312 60.2495C85.5021 60.3942 85.7407 60.6129 85.84 60.7209C85.9437 60.8356 86.1428 60.9649 86.278 61.0109C86.4244 61.0594 86.5525 61.1677 86.5742 61.2593C86.5914 61.3441 86.75 61.5574 86.9178 61.7263C87.2092 62.0258 87.227 62.0238 87.302 61.7441C87.3498 61.5688 87.2865 61.3988 87.1359 61.3147ZM64.2162 67.0587C64.1536 67.1092 64.2174 67.2213 64.3501 67.3074C64.5493 67.4366 64.5804 67.4258 64.4995 67.2289C64.3879 66.956 64.3636 66.9335 64.2118 67.052L64.2162 67.0587ZM72.0655 67.0375C72.003 67.088 72.0378 67.1998 72.1417 67.2856C72.365 67.4663 72.5074 67.4211 72.4511 67.1889C72.4014 66.9813 72.2196 66.9079 72.0655 67.0375ZM76.3635 67.8974C76.2925 67.8765 76.1835 67.8998 76.1187 67.9614C76.0495 68.0162 76.0845 68.099 76.1998 68.1293C76.3129 68.1707 76.4242 68.1363 76.4446 68.0653C76.4651 67.9943 76.4345 67.9182 76.3591 67.8907L76.3635 67.8974ZM83.5455 67.6593C83.4745 67.6384 83.4032 67.6754 83.3761 67.7508C83.3556 67.8218 83.4239 67.9117 83.537 67.9531C83.65 67.9945 83.7236 67.9463 83.7064 67.8615C83.6848 67.77 83.6098 67.6845 83.5455 67.6593ZM86.8474 69.3337C86.8474 69.3337 86.7694 69.3751 86.749 69.4461C86.7285 69.5172 86.7702 69.5956 86.8456 69.6232C86.921 69.6507 86.9657 69.6023 86.9441 69.5107C86.9268 69.4259 86.8807 69.3408 86.8474 69.3337ZM87.5465 68.7517C87.5465 68.7517 87.4759 68.673 87.3673 68.6383C87.2586 68.6037 87.1496 68.6269 87.1292 68.6979C87.1087 68.7689 87.1906 68.8211 87.3084 68.8113C87.4306 68.8083 87.5352 68.7783 87.5465 68.7517ZM88.7339 68.9457C88.6319 68.9067 88.4941 68.9296 88.4181 68.9888C88.3489 69.0437 88.4172 69.1335 88.5636 69.182C88.7099 69.2304 88.8522 69.2142 88.8793 69.1389C88.8997 69.0678 88.8358 68.9847 88.7339 68.9457ZM92.8788 72.9321C92.8078 72.9113 92.6988 72.9345 92.634 72.9961C92.5648 73.051 92.6065 73.1294 92.7151 73.164C92.8238 73.1987 92.9395 73.1711 92.9599 73.1C92.9804 73.029 92.9497 72.953 92.8788 72.9321ZM92.5981 71.9915C92.3854 71.9 92.1967 71.8889 92.1695 71.9643C92.1491 72.0353 92.2971 72.1595 92.5211 72.2244C92.7384 72.2937 92.9316 72.3115 92.9497 72.2516C92.9679 72.1917 92.8064 72.0763 92.5981 71.9915ZM91.8207 71.2701C92.0235 71.5218 92.1964 71.5817 92.151 71.3807C92.1338 71.2959 92.01 71.1943 91.8858 71.1506C91.6907 71.086 91.6862 71.1082 91.8207 71.2701ZM91.0188 69.4885C90.9388 69.4831 90.6879 69.4647 90.4548 69.4442L90.0284 69.4059L90.4728 69.7494C90.9017 70.0839 91.7047 70.289 91.7748 70.0895C91.8178 69.9653 91.2298 69.5043 91.0232 69.4952L91.0188 69.4885ZM94.6503 72.7922C94.4702 72.8235 94.352 72.8912 94.3761 72.9426C94.4508 73.086 94.8732 73.0307 94.9231 72.8732C94.9548 72.7756 94.8728 72.7524 94.6459 72.7854L94.6503 72.7922ZM89.738 64.0521C89.7661 64.1682 89.8482 64.1914 89.9996 64.1308C90.1511 64.0702 90.2331 64.0934 90.2613 64.2095C90.3348 64.5265 90.5551 64.4689 90.4994 64.1499C90.4649 63.9803 90.3947 63.8437 90.3346 63.8541C90.2746 63.8645 90.1101 63.876 89.959 63.8787C89.8079 63.8815 89.7163 63.9606 89.738 64.0521ZM97.2313 73.2471C97.138 73.2505 96.8524 73.0913 96.5891 72.9079C95.9942 72.4803 95.4556 72.2848 95.2814 72.4276C95.0647 72.6077 95.4099 73.1794 95.886 73.4253C96.1318 73.5529 96.4415 73.7635 96.5718 73.8897C96.828 74.1353 97.678 74.2809 97.4884 74.0494C97.4289 73.973 97.3791 73.7653 97.3825 73.5806C97.3859 73.3958 97.3068 73.2457 97.2202 73.2447L97.2313 73.2471ZM90.797 63.4653C90.6748 63.4684 90.5702 63.4983 90.5589 63.5249C90.5476 63.5515 90.6295 63.6037 90.7381 63.6383C90.8468 63.673 90.9514 63.643 90.9762 63.5787C90.9967 63.5077 90.9148 63.4555 90.797 63.4653ZM89.1041 60.6426C89.0825 60.5511 88.9918 60.4855 88.9006 60.5067C88.7916 60.5299 88.7689 60.612 88.837 60.7308C88.9466 60.957 89.1648 60.8816 89.1041 60.6426ZM97.2087 71.8975C96.895 71.6223 96.5381 71.5002 96.4882 71.6577C96.4678 71.7287 96.6669 71.8579 96.9396 71.939C97.3365 72.0638 97.3855 72.051 97.2087 71.8975ZM93.6772 60.5059C93.586 60.5271 93.6117 60.6833 93.7326 60.8828C94.0583 61.3809 94.2648 61.3899 94.0325 60.8885C93.9251 60.6512 93.7641 60.4779 93.6728 60.4992L93.6772 60.5059ZM62.7178 46.1518C62.5781 46.099 62.4959 46.1047 62.5244 46.1629C62.5596 46.2168 62.666 46.2625 62.7771 46.2571C62.8949 46.2474 62.8796 46.2093 62.7245 46.1474L62.7178 46.1518ZM78.6031 56.2871C78.6204 56.3719 78.7441 56.4735 78.8683 56.5172C79.059 56.5751 79.068 56.5596 78.9335 56.3977C78.7306 56.146 78.5577 56.0861 78.6031 56.2871ZM77.2508 55.1248C77.1112 55.072 77.0289 55.0778 77.0574 55.136C77.0927 55.1898 77.199 55.2356 77.3101 55.2302C77.4279 55.2204 77.4126 55.1824 77.2575 55.1205L77.2508 55.1248ZM73.6502 52.5407C73.7415 52.5195 73.7998 52.4333 73.7759 52.3529C73.7282 52.1631 72.8502 51.8725 72.8004 52.03C72.7505 52.1875 73.4299 52.5983 73.6502 52.5407ZM79.3431 56.9657C79.4141 56.9866 79.4588 56.9381 79.4372 56.8466C79.4155 56.7551 79.3405 56.6696 79.2696 56.6487C79.1986 56.6279 79.1539 56.6763 79.1755 56.7679C79.1971 56.8594 79.2721 56.9449 79.3475 56.9725L79.3431 56.9657ZM70.836 50.6915C70.7921 50.5953 70.6376 50.4465 70.5048 50.3604C70.0887 50.104 70.0178 50.0832 70.1077 50.2646C70.2329 50.4998 70.9456 50.9177 70.836 50.6915ZM72.3384 51.6595C72.3384 51.6595 72.3665 51.7756 72.4283 51.8409C72.4834 51.9106 72.5545 51.9025 72.5817 51.8271C72.6088 51.7517 72.5671 51.6733 72.4917 51.6457C72.4208 51.6248 72.3563 51.6286 72.3384 51.6595ZM71.8186 51.2884C71.679 51.2356 71.5967 51.2413 71.6253 51.2995C71.6605 51.3534 71.7668 51.3991 71.8779 51.3937C71.9957 51.3839 71.976 51.3392 71.8253 51.284L71.8186 51.2884Z" fill="black"/>
</g>
<defs>
<clipPath id="clip0_4142_11908">
<rect width="74" height="84" fill="white" transform="translate(0.687988 41.2666) rotate(-33.1799)"/>
</clipPath>
</defs>
</svg>
