<svg width="131" height="22" viewBox="0 0 131 22" fill="none" xmlns="http://www.w3.org/2000/svg">
<path d="M2.60659 15.6019C2.11462 15.3319 1.73503 14.9463 1.46783 14.4453C1.20062 13.9443 1.04767 13.4662 1.00897 13.011C1.05252 12.6197 1.15424 12.3172 1.31413 12.1034C1.45753 11.8736 1.63413 11.6922 1.84394 11.5591C2.05353 11.4098 2.27181 11.301 2.49878 11.2329C2.72552 11.1484 2.94435 11.0804 3.15526 11.0287L3.52308 11.1458C3.60555 11.2261 3.68792 11.2982 3.77017 11.3622C3.86869 11.426 3.95908 11.4899 4.04133 11.5539C4.2032 11.4866 4.29953 11.3876 4.33032 11.257C4.37739 11.1261 4.42445 10.9953 4.47152 10.8644C4.51793 10.6847 4.57247 10.5049 4.63515 10.325C4.69783 10.1451 4.77679 9.96502 4.87202 9.78468C4.85377 9.63843 4.86015 9.50812 4.89116 9.39376C4.92217 9.2794 4.9534 9.18132 4.98485 9.0995C4.88611 9.01945 4.81232 8.97975 4.7635 8.98041C4.73073 8.96458 4.6653 8.94104 4.56721 8.90981C4.51839 8.91047 4.46957 8.91113 4.42074 8.91179C4.3717 8.89617 4.31452 8.88067 4.2492 8.86527C4.00266 8.68955 3.83794 8.54527 3.75503 8.43245C3.68818 8.30313 3.61318 8.17393 3.53005 8.04483C3.44692 7.91573 3.37215 7.8028 3.30573 7.70603C3.23931 7.60926 3.16487 7.52074 3.0824 7.44046L2.78682 7.24912L2.92934 6.9542C2.96145 6.92122 2.97717 6.88031 2.97651 6.83149C2.97563 6.76639 2.94188 6.67732 2.87524 6.56427C2.82356 6.35336 2.81333 6.19887 2.84457 6.10078L2.88943 5.80718C3.04932 5.59341 3.13719 5.47014 3.15302 5.43737L3.39384 5.18996C3.76684 5.08726 4.14786 4.97631 4.53692 4.85712C4.92575 4.72165 5.30644 4.58629 5.679 4.45104C6.05156 4.31579 6.43225 4.18043 6.82108 4.04496C7.20991 3.90949 7.59897 3.79029 7.98824 3.68737C8.11689 3.57169 8.25435 3.50473 8.4006 3.48648C8.56291 3.45173 8.70905 3.42534 8.83903 3.40731C8.95295 3.40577 9.05862 3.3962 9.15605 3.37861C9.25348 3.36102 9.32616 3.31934 9.37411 3.25359C9.64946 3.1522 9.91689 3.06721 10.1764 2.99859C10.6629 2.8618 11.3036 2.69852 12.0987 2.50873C12.8937 2.31894 13.7871 2.17666 14.7787 2.08189L15.291 2.05055C15.3889 2.06551 15.4866 2.07233 15.5843 2.07101C15.6817 2.05342 15.7793 2.04396 15.8769 2.04264C16.7232 2.03122 17.2882 2.28403 17.5719 2.80108C17.7357 2.88026 17.8836 2.98407 18.0156 3.1125C18.1473 3.22467 18.2709 3.33694 18.3864 3.44933C18.4688 3.5296 18.5431 3.60185 18.609 3.66607C18.6748 3.71401 18.7323 3.75393 18.7816 3.78582L18.9795 3.97848C19.1638 4.36665 19.2015 4.74866 19.0926 5.12452C18.9976 5.32113 18.8934 5.43648 18.7799 5.47057C18.6664 5.50465 18.5529 5.53874 18.4394 5.57283L18.1244 5.74799C17.9126 5.73458 17.7498 5.72864 17.6358 5.73017C17.5382 5.73149 17.4243 5.73303 17.2941 5.73479C16.8058 5.74138 16.2367 5.78162 15.5866 5.85551C14.9525 5.9129 14.3026 6.00306 13.6369 6.12599C12.971 6.23265 12.3217 6.37163 11.6892 6.54295C11.0565 6.69799 10.5054 6.8682 10.0358 7.05359C9.90694 7.153 9.73727 7.24482 9.52679 7.32904C9.47819 7.34598 9.4055 7.38765 9.30874 7.45407C9.32677 7.58405 9.32853 7.71424 9.31401 7.84466C9.29927 7.9588 9.2764 8.07305 9.24539 8.18741C9.23021 8.26901 9.21515 8.35874 9.20019 8.4566C9.20129 8.53798 9.19436 8.6276 9.1794 8.72546C8.84313 9.13694 8.68687 9.61924 8.71061 10.1724L8.59185 10.4181C8.52763 10.4841 8.47199 10.5825 8.42492 10.7134C8.39391 10.8277 8.39556 10.9498 8.42986 11.0795L8.53147 11.3712C8.85652 11.3342 9.17343 11.2974 9.48221 11.2607C9.80704 11.2075 10.1481 11.154 10.5055 11.1004C10.9601 11.0128 11.4149 10.9416 11.87 10.8866C12.341 10.8151 12.8288 10.776 13.3333 10.7692L14.2854 10.7563L14.0687 10.979L14.3375 10.9998L14.1963 11.3924C14.3109 11.4396 14.3928 11.4792 14.4421 11.5111C14.5074 11.5265 14.5647 11.5502 14.614 11.582L14.7881 11.8239C14.8702 11.8716 14.9445 11.952 15.0111 12.065C15.0776 12.1618 15.1201 12.2996 15.1388 12.4784L15.0689 12.7235L13.9413 14.2037L13.7975 14.4009L13.5523 14.331C13.2429 14.3189 12.9504 14.3554 12.6748 14.4405C12.5451 14.4748 12.4073 14.5174 12.2615 14.5682C12.1155 14.6027 11.9692 14.621 11.8227 14.6229C11.433 14.6933 11.1083 14.7547 10.8486 14.807C10.5886 14.8431 10.3287 14.8791 10.0687 14.9152C9.71154 14.9851 9.36252 15.0549 9.02163 15.1247C8.6968 15.1779 8.38868 15.2634 8.09728 15.3813C7.91848 15.4 7.8128 15.4096 7.78025 15.41C7.74749 15.3942 7.71483 15.3865 7.68228 15.3869C7.51953 15.3891 7.35712 15.4157 7.19503 15.4667C7.03294 15.5178 6.87899 15.5687 6.73318 15.6195C6.63663 15.7022 6.57274 15.7925 6.54151 15.8906C6.51006 15.9724 6.47872 16.0624 6.44749 16.1605C6.41648 16.2748 6.36919 16.3894 6.30563 16.5042C6.25813 16.6025 6.19446 16.7092 6.11462 16.8242L6.14497 17.2633C5.99894 17.2978 5.92603 17.3232 5.92625 17.3395C5.92625 17.3395 5.91811 17.3396 5.90184 17.3398C5.9036 17.47 5.88083 17.5924 5.83355 17.707C5.80253 17.8214 5.77141 17.9276 5.74018 18.0257C5.70851 18.0912 5.68487 18.1485 5.66925 18.1975C5.65364 18.2466 5.64616 18.2955 5.64682 18.3443C5.81352 18.6351 5.85871 18.9682 5.78239 19.3436C5.72147 19.6537 5.60314 19.932 5.42742 20.1785C5.25148 20.4088 5.04232 20.5907 4.79996 20.7242C4.54001 20.7602 4.3446 20.7547 4.21375 20.7076C4.09917 20.6604 3.97645 20.6132 3.84559 20.5661C3.76378 20.5347 3.68208 20.5114 3.60049 20.4962C3.51867 20.4647 3.43697 20.4414 3.35538 20.4262L3.05914 20.1861C3.009 20.0891 2.95083 20.0004 2.88463 19.9199C2.81822 19.8231 2.7518 19.7263 2.68538 19.6296C2.60247 19.5167 2.51956 19.4039 2.43665 19.2911C2.35374 19.1783 2.27875 19.049 2.21167 18.9035C2.09006 18.3354 2.05928 17.8638 2.11932 17.4886C2.19542 17.0969 2.29604 16.713 2.42119 16.3369C2.45198 16.2063 2.48288 16.0838 2.51389 15.9694C2.5449 15.8551 2.5758 15.7326 2.60659 15.6019ZM29.123 12.8756C29.1093 13.0711 29.1281 13.258 29.1794 13.4364C29.2306 13.6147 29.29 13.793 29.3575 13.9711C29.4411 14.1328 29.5166 14.3027 29.5842 14.4808C29.6517 14.659 29.7029 14.8373 29.7379 15.0159C29.7735 15.2433 29.7769 15.4956 29.7481 15.7727C29.7191 16.0335 29.6656 16.2947 29.5878 16.5561C29.5097 16.8014 29.407 17.0306 29.2796 17.244C29.1521 17.441 28.9994 17.5896 28.8217 17.6896C28.5978 17.9857 28.3243 18.2172 28.001 18.3844C27.6777 18.5515 27.3792 18.7509 27.1056 18.9825C26.9281 19.0988 26.7258 19.1829 26.4986 19.2348C26.2877 19.2865 26.0687 19.3383 25.8415 19.3902C25.6638 19.4902 25.4536 19.5989 25.2111 19.7161C24.9683 19.817 24.7173 19.9181 24.4583 20.0193C24.199 20.1041 23.9394 20.1728 23.6797 20.2251C23.4198 20.2612 23.192 20.2724 22.9965 20.2587C22.5107 20.4444 22.0321 20.5648 21.5608 20.62C21.106 20.6912 20.5685 20.6659 19.9483 20.5441C19.3635 20.6333 18.818 20.6163 18.3117 20.4929C17.8217 20.3693 17.3796 20.1718 16.9853 19.9004C16.607 19.6125 16.2688 19.2753 15.9705 18.8886C15.6884 18.4855 15.4548 18.0654 15.2699 17.6284C15.1271 16.7025 15.1484 15.864 15.3336 15.1127C15.5185 14.3452 15.7858 13.6416 16.1352 13.0021C16.5008 12.346 16.9159 11.7463 17.3806 11.2029C17.8451 10.6432 18.2935 10.0999 18.7259 9.57323C18.824 9.60446 18.8972 9.60347 18.9456 9.57026C19.01 9.52056 19.0662 9.46283 19.1142 9.39707C19.1619 9.31504 19.2097 9.24115 19.2577 9.17539C19.3219 9.10941 19.3946 9.06774 19.4757 9.05037C19.5864 8.80471 19.7467 8.62349 19.9567 8.50671C20.1828 8.37344 20.3594 8.192 20.4865 7.9624C20.6326 7.92788 20.754 7.8774 20.8507 7.81099C20.9475 7.74457 21.036 7.67013 21.1163 7.58766C21.2129 7.50496 21.3095 7.43041 21.4063 7.36399C21.5028 7.2813 21.616 7.2228 21.7457 7.1885L21.7421 6.91997C22.0333 6.78582 22.2429 6.63649 22.3709 6.47199C22.5149 6.29099 22.683 6.07711 22.875 5.83036C23.0212 5.8121 23.135 5.80243 23.2164 5.80133C23.3141 5.80001 23.4522 5.78187 23.6307 5.7469C23.7579 5.5173 23.8695 5.34488 23.9656 5.22964C24.078 5.11418 24.2391 4.98993 24.4489 4.85687C24.6455 4.95188 24.8579 5.01413 25.0862 5.0436C25.3308 5.07285 25.5438 5.17578 25.7252 5.35238C25.7437 5.51491 25.7943 5.64445 25.877 5.741C25.9594 5.82127 26.05 5.90143 26.1488 5.98149C26.2473 6.04527 26.3378 6.1173 26.4203 6.19757C26.519 6.27762 26.5857 6.39067 26.6202 6.5367C26.6855 6.55209 26.7261 6.54341 26.7419 6.51064C26.774 6.47765 26.8227 6.46885 26.8881 6.48425C26.94 6.71143 26.999 6.86527 27.0652 6.94577C27.1312 7.00999 27.1982 7.14744 27.2661 7.35813C27.1869 7.52198 27.1241 7.69374 27.0777 7.87342C27.0474 8.0366 26.9514 8.15998 26.7897 8.24355C26.775 8.35769 26.8084 8.42235 26.89 8.43753C26.9714 8.43643 27.0208 8.47645 27.0381 8.55761C27.0564 8.70386 27.0334 8.80997 26.9692 8.87595C27.3683 9.50539 27.7274 10.1761 28.0463 10.888C28.3649 11.5836 28.7238 12.2461 29.123 12.8756ZM26.1028 15.2359C26.1655 15.056 26.2449 14.9084 26.341 14.7932C26.4534 14.6777 26.5162 14.506 26.5294 14.2779C26.4462 14.1488 26.3961 14.0518 26.3789 13.9869C26.3616 13.9058 26.3518 13.7838 26.3496 13.6211C25.9847 13.1214 25.6683 12.5885 25.4002 12.0224C25.1319 11.44 24.8316 10.8988 24.4993 10.3987C24.4676 10.4642 24.4115 10.5301 24.331 10.5963C24.2505 10.6625 24.1608 10.6474 24.0618 10.5511C24.0311 10.6817 23.9754 10.7801 23.8949 10.8463C23.8142 10.8963 23.725 10.9219 23.6274 10.9232C23.5295 10.9082 23.4234 10.8853 23.309 10.8543C23.2107 10.8067 23.1205 10.751 23.0382 10.687C22.5713 11.0677 22.1043 11.4402 21.6371 11.8046C21.17 12.1691 20.7525 12.5898 20.3845 13.0668C20.3199 13.1002 20.2794 13.117 20.2631 13.1173C20.2466 13.1012 20.1979 13.11 20.117 13.1436C19.991 13.4546 19.8321 13.7416 19.6403 14.0047C19.4646 14.2512 19.289 14.5059 19.1134 14.7687C18.9379 15.0315 18.7871 15.3102 18.6608 15.6049C18.5346 15.8996 18.466 16.2424 18.455 16.6332C18.7347 16.8573 19.0621 16.9912 19.437 17.035C19.812 17.0788 20.1946 17.0818 20.5847 17.0439C20.9912 17.0059 21.3811 16.9518 21.7545 16.8816C22.144 16.795 22.5015 16.7495 22.827 16.7451C23.5083 16.5731 24.0914 16.3536 24.5761 16.0866C25.0606 15.8034 25.5695 15.5198 26.1028 15.2359ZM43.9382 6.10756C43.9756 6.46517 44.0368 6.77361 44.1217 7.03291C44.2065 7.2922 44.2995 7.54325 44.4004 7.78605C44.4848 8.01279 44.5612 8.23965 44.6293 8.46661C44.7136 8.67708 44.774 8.93671 44.8108 9.24549C44.6863 9.67038 44.5939 10.0623 44.5336 10.4212C44.4897 10.7799 44.4377 11.155 44.3779 11.5465C44.1252 12.1196 43.8798 12.6275 43.6416 13.0702C43.4034 13.5129 43.2133 13.898 43.0712 14.2255C42.9909 14.3079 42.919 14.4066 42.8554 14.5214C42.8079 14.6197 42.7524 14.7262 42.6888 14.841C42.657 14.8903 42.6173 14.9641 42.5697 15.0624C42.5222 15.1607 42.4824 15.2264 42.4503 15.2593L41.9598 15.0951L41.8704 15.7067L41.5299 15.8089L41.2898 16.1052C40.9878 16.6464 40.6685 17.1065 40.3317 17.4854C39.9948 17.8481 39.6086 18.1788 39.1732 18.4777C38.7538 18.7601 38.269 19.0271 37.719 19.2787C37.1852 19.53 36.5786 19.8068 35.899 20.109C35.6219 20.0802 35.3775 20.0672 35.166 20.07C34.9705 20.0564 34.7831 20.0426 34.6038 20.0288C34.2946 20.033 33.9118 20.0137 33.4555 19.971C33.4049 19.8415 33.3305 19.753 33.2322 19.7055C33.1339 19.658 33.044 19.6348 32.9626 19.6359C32.6842 19.5094 32.4701 19.3251 32.3204 19.083C32.1866 18.8243 32.0527 18.5494 31.9186 18.2582C31.8348 18.0803 31.7512 17.9187 31.6678 17.7733C31.5843 17.6116 31.4926 17.4501 31.3927 17.2887L31.8061 17.161L31.2611 16.5824C31.2279 16.534 31.1867 16.4939 31.1374 16.462C31.0879 16.4138 31.0466 16.3655 31.0134 16.3172L30.9837 15.9269C30.9197 14.8046 30.8814 13.7796 30.8689 12.852C30.8725 11.9078 30.9913 11.0679 31.2256 10.3323L31.2219 10.0638C31.2659 9.70507 31.3108 9.41147 31.3565 9.18296C31.4021 8.93819 31.4397 8.70979 31.4694 8.49778C31.5134 8.13908 31.5821 7.80447 31.6756 7.49393C31.9028 7.44203 32.0724 7.35022 32.1846 7.21848C32.2965 7.07047 32.3924 6.93896 32.4723 6.82394C32.6999 6.80459 32.8549 6.83505 32.9374 6.91532C33.0199 6.9956 33.103 7.12469 33.1868 7.30262C33.2701 7.44799 33.37 7.60942 33.4863 7.7869C33.6189 7.96416 33.808 8.09997 34.0534 8.19432C34.0877 8.32408 34.1303 8.46186 34.1811 8.60767C34.2479 8.73699 34.315 8.88258 34.3823 9.04445C34.5162 9.31936 34.6341 9.61076 34.7359 9.91866C34.8538 10.2101 34.9227 10.494 34.9428 10.7704C34.7842 11.0819 34.6588 11.4417 34.5667 11.8498C34.4908 12.2578 34.4394 12.6736 34.4126 13.0971C34.4018 13.5042 34.4153 13.9028 34.4532 14.293C34.507 14.6666 34.5845 14.983 34.6857 15.2421L34.8365 15.5575L35.2508 15.503C35.7373 15.3663 36.1748 15.222 36.5634 15.0702C36.9681 14.902 37.3399 14.7098 37.6788 14.4936C38.0177 14.2774 38.3399 14.0289 38.6454 13.7481C38.9507 13.451 39.2716 13.1129 39.6084 12.734C39.9451 12.3551 40.2323 11.928 40.47 11.4527C40.7238 10.961 40.9286 10.4536 41.0843 9.93062C41.2563 9.40742 41.3796 8.89301 41.4541 8.3874C41.5448 7.8653 41.6033 7.37618 41.6297 6.92005C41.905 6.81867 42.0407 6.62151 42.0368 6.32857L41.9843 6.06069C41.9179 5.96393 41.9164 5.85 41.9797 5.71893C42.0732 5.40839 42.2978 5.16934 42.6537 5.00176C42.9163 5.16099 43.1465 5.33693 43.3445 5.52959C43.5587 5.72203 43.7566 5.91469 43.9382 6.10756ZM48.79 15.4912C48.6439 15.5257 48.5394 15.6166 48.4762 15.764C48.4129 15.8951 48.3497 16.0343 48.2865 16.1816C48.2397 16.3287 48.1846 16.4679 48.1213 16.5989C48.074 16.7135 47.9934 16.7716 47.8795 16.7731C47.8649 16.9035 47.8177 17.0181 47.7376 17.1168C47.6738 17.2154 47.6101 17.322 47.5466 17.4368C47.4828 17.5354 47.4355 17.6499 47.4047 17.7806C47.3737 17.8949 47.3919 18.0331 47.4592 18.1949C47.3303 18.2943 47.2508 18.4338 47.2206 18.6132C47.1905 18.7927 47.1521 18.9641 47.1055 19.1275C47.0752 19.2907 47.0119 19.4299 46.9158 19.5452C46.8197 19.6604 46.6413 19.7116 46.3807 19.6989C46.3328 19.7646 46.3252 19.8054 46.358 19.8213C46.3907 19.8371 46.4159 19.8937 46.4335 19.9912C46.254 19.961 46.1158 19.971 46.0188 20.0212C45.9383 20.0874 45.8331 20.1295 45.7031 20.1475C45.3926 20.054 45.1299 19.8867 44.915 19.6454C44.7164 19.4039 44.5338 19.1378 44.3671 18.8471C44.2164 18.5398 44.0739 18.2325 43.9396 17.925C43.8215 17.6174 43.7039 17.3504 43.5869 17.1241C43.6333 16.9444 43.6392 16.7734 43.6044 16.6111C43.5695 16.4325 43.5105 16.2868 43.4276 16.174C44.2022 14.4706 45.0485 12.6524 45.9665 10.7193C46.8845 8.78613 47.754 6.87806 48.575 4.99507C48.9513 5.13648 49.3198 5.30242 49.6805 5.49288C50.0572 5.66685 50.3937 5.87391 50.6899 6.11408C51.0024 6.35402 51.2667 6.63531 51.4826 6.95795C51.6984 7.26431 51.8414 7.61234 51.9118 8.00205C51.8806 8.10014 51.8404 8.14137 51.7914 8.12576C51.7584 8.09365 51.726 8.10223 51.6941 8.15149C51.7603 8.23198 51.7936 8.2885 51.794 8.32105C51.8108 8.35338 51.8112 8.38593 51.7954 8.4187C51.7958 8.45125 51.7965 8.50007 51.7973 8.56517C51.798 8.614 51.8234 8.6869 51.8735 8.78389C51.8082 8.76849 51.7595 8.77729 51.7274 8.81028C51.7116 8.84305 51.6627 8.84371 51.5809 8.81226C51.6484 8.9904 51.6667 9.13665 51.6357 9.25101C51.6209 9.36515 51.5898 9.47138 51.5423 9.56968C51.4946 9.65171 51.4552 9.74991 51.4242 9.86427C51.393 9.96236 51.4029 10.0924 51.4539 10.2545C51.4051 10.2552 51.3646 10.272 51.3325 10.305C51.3164 10.3215 51.3005 10.3461 51.2847 10.3789C51.2686 10.3954 51.2445 10.4201 51.2124 10.4531C51.1964 10.4696 51.1638 10.4701 51.1148 10.4544C51.1684 10.8118 51.1895 11.1696 51.1781 11.5279C51.1667 11.8862 51.1553 12.2526 51.1441 12.6271C51.1489 12.9851 51.1622 13.3675 51.184 13.7741C51.2055 14.1645 51.268 14.5706 51.3714 14.9924C51.9526 14.6427 52.4105 14.1971 52.745 13.6554C53.0958 13.1135 53.3725 12.5075 53.5751 11.8374C53.7939 11.167 53.9551 10.4487 54.0587 9.68221C54.1623 8.91577 54.2738 8.13294 54.3932 7.33373C54.5377 7.18528 54.6492 7.00472 54.7278 6.79205C54.8063 6.57939 54.8766 6.35869 54.9386 6.12997C55.0004 5.88497 55.0623 5.64811 55.1243 5.41939C55.1861 5.17439 55.2645 4.95359 55.3595 4.75697C55.6041 4.78623 55.8086 4.86485 55.9731 4.99285C56.1537 5.10436 56.3182 5.23236 56.4666 5.37685C56.6149 5.50507 56.7712 5.63318 56.9357 5.76118C57.1 5.8729 57.3044 5.94339 57.549 5.97264C57.748 6.24667 57.9307 6.51279 58.0969 6.77098C58.2632 7.02918 58.3727 7.30442 58.4255 7.5967C58.3459 7.728 58.2828 7.87535 58.2361 8.03875C58.2058 8.20194 58.1673 8.36523 58.1207 8.52864C58.074 8.69204 58.011 8.84753 57.9316 8.9951C57.852 9.12639 57.7396 9.24185 57.5945 9.34148C57.5514 9.76528 57.4915 10.1567 57.415 10.5159C57.3545 10.8585 57.2859 11.2013 57.2091 11.5441C57.1486 11.8868 57.0965 12.2456 57.0528 12.6206C57.0088 12.9793 56.9979 13.3782 57.0201 13.8174C56.8949 14.1935 56.762 14.5941 56.6212 15.0192C56.4805 15.4443 56.3717 15.8283 56.2949 16.1712C56.0374 16.3863 55.8374 16.6413 55.6949 16.9362C55.5524 17.2311 55.4017 17.5261 55.2429 17.8213C55.1787 17.8872 55.1382 17.9041 55.1215 17.8717C55.1048 17.8394 55.0475 17.8158 54.9496 17.8008C54.9668 17.8657 54.9675 17.9145 54.9516 17.9473C54.9358 17.98 54.9118 18.0129 54.8797 18.0459C54.8636 18.0624 54.8478 18.0952 54.8322 18.1442C54.8329 18.193 54.85 18.2579 54.8837 18.3389C54.6571 18.4396 54.4556 18.5807 54.279 18.7621C54.1024 18.9435 53.9093 19.1089 53.6997 19.2582C53.5064 19.4073 53.2636 19.5083 52.9713 19.5611C52.6953 19.6136 52.3283 19.5616 51.8704 19.405C51.1966 18.9258 50.595 18.3723 50.0656 17.7447C49.5525 17.1168 49.1273 16.3656 48.79 15.4912ZM69.4017 13.0643C69.3865 13.1459 69.3712 13.2193 69.3558 13.2846C69.3402 13.3337 69.3246 13.3827 69.309 13.4318C69.2933 13.4808 69.2861 13.546 69.2872 13.6274C69.2881 13.6925 69.2893 13.782 69.2908 13.8959C68.8142 14.7651 68.2056 15.4976 67.4648 16.0936C66.7404 16.6894 65.9337 17.2212 65.0448 17.6889C64.1719 18.1402 63.2578 18.5595 62.3027 18.9468C61.3473 19.3178 60.4168 19.721 59.5112 20.1564C59.1192 20.0641 58.816 19.9054 58.6013 19.6804C58.403 19.4552 58.2448 19.1969 58.1269 18.9055C58.0251 18.5976 57.9474 18.2649 57.8937 17.9076C57.8561 17.5337 57.8184 17.1517 57.7806 16.7615C57.827 16.5818 57.8901 16.4345 57.97 16.3195C58.0658 16.188 58.1123 16.0083 58.1092 15.7804C58.2337 15.3555 58.3583 14.9388 58.483 14.5302C58.6077 14.1215 58.6834 13.7054 58.7103 13.2819C58.7573 13.151 58.8456 13.0603 58.9752 13.0097C59.046 12.2274 59.0353 11.4381 58.9432 10.6417C58.8671 9.8289 58.7267 9.07389 58.522 8.37672C58.536 8.21376 58.5508 8.09961 58.5662 8.0343C58.5976 7.95248 58.5969 7.89552 58.5639 7.86341C58.5458 7.73344 58.5856 7.66779 58.6833 7.66647C58.7972 7.66493 58.9111 7.66339 59.0251 7.66186C59.0218 7.41774 58.9696 7.17428 58.8687 6.93148C58.784 6.68846 58.6989 6.41289 58.6134 6.10477C58.724 5.85912 58.794 5.62215 58.8235 5.39386C58.8528 5.1493 58.9232 4.93675 59.0347 4.75619C59.9172 5.02099 60.7599 5.3433 61.5626 5.72313C62.3816 6.10273 63.1829 6.37677 63.9665 6.54524C64.5581 6.96047 65.166 7.37548 65.7901 7.79027C66.414 8.18879 66.9817 8.63689 67.493 9.13459C68.0041 9.61602 68.4348 10.1718 68.7851 10.8019C69.1355 11.432 69.341 12.1861 69.4017 13.0643ZM63.6342 14.485C63.9742 14.3502 64.306 14.2074 64.6295 14.0565C64.9693 13.9054 65.2763 13.7385 65.5505 13.5557C65.8408 13.3565 66.0983 13.1333 66.3228 12.8861C66.5474 12.6389 66.7306 12.3434 66.8724 11.9997C66.7721 11.8057 66.6396 11.6366 66.4749 11.4923C66.31 11.3318 66.1452 11.1875 65.9807 11.0595C65.816 10.9152 65.6513 10.7709 65.4866 10.6267C65.3381 10.4822 65.2136 10.3048 65.1131 10.0945C64.9011 10.0648 64.7132 10.0104 64.5494 9.93124C64.3853 9.83579 64.2213 9.74848 64.0575 9.6693C63.9097 9.57363 63.7458 9.48632 63.5656 9.40736C63.4018 9.32819 63.2058 9.282 62.9778 9.2688C62.6173 9.09461 62.2901 8.96881 61.996 8.89139C61.7183 8.81376 61.5053 8.71083 61.357 8.58261C61.2431 8.58415 61.1539 8.60977 61.0895 8.65947C61.2606 9.27571 61.3906 9.85994 61.4794 10.4122C61.568 10.9481 61.6161 11.4928 61.6235 12.0461C61.6471 12.583 61.6301 13.1366 61.5727 13.7071C61.5153 14.2776 61.4341 14.8972 61.3292 15.566C61.4918 15.5476 61.6378 15.513 61.7673 15.4625C61.9129 15.3954 62.0504 15.3284 62.1797 15.2616C62.3253 15.1945 62.471 15.1356 62.6168 15.0847C62.7787 15.0175 62.9653 14.9742 63.1766 14.9551C63.2241 14.8568 63.2881 14.7746 63.3686 14.7084C63.4654 14.6419 63.5539 14.5675 63.6342 14.485ZM82.2675 17.432C82.1735 17.71 82.0309 17.9968 81.8396 18.2923C81.6643 18.5714 81.448 18.8266 81.1907 19.058C80.9494 19.2729 80.6752 19.4556 80.3679 19.6063C80.0607 19.7569 79.7363 19.8427 79.3948 19.8636C79.1825 19.8176 79.0353 19.7626 78.953 19.6986C78.8873 19.6507 78.8134 19.6028 78.7313 19.5551C78.6821 19.5232 78.6329 19.4995 78.5839 19.4839C78.5509 19.4518 78.518 19.4278 78.4853 19.4119L78.1907 19.2938L78.284 18.9752C78.3148 18.8445 78.3054 18.747 78.2557 18.6826C78.2057 18.6018 78.1067 18.4974 77.9584 18.3692C77.9089 18.321 77.8595 18.2728 77.81 18.2247C77.7605 18.1765 77.7192 18.1282 77.6859 18.0798L77.2647 17.6216L77.9215 17.4418C78.3268 17.3224 78.5934 17.1723 78.7212 16.9915C78.8652 16.8106 78.9181 16.5087 78.8798 16.086C78.5535 16.0253 78.2767 16.0209 78.0495 16.0728C77.8386 16.1245 77.6197 16.1844 77.3927 16.2526C77.1009 16.3379 76.8008 16.4152 76.4924 16.4845C76.2001 16.5373 75.875 16.5661 75.5169 16.5709C75.3867 16.5727 75.2647 16.5743 75.1508 16.5758C75.0366 16.5611 74.9143 16.5465 74.7839 16.532L74.5391 16.4864C74.5042 16.3079 74.4703 16.2106 74.4375 16.1948C74.4046 16.1627 74.3716 16.1306 74.3386 16.0985C74.2561 16.0182 74.1652 15.9136 74.0658 15.7848C73.9824 15.6394 73.9637 15.4606 74.0097 15.2484C73.9263 15.103 73.8755 14.9572 73.8573 14.8109C73.7623 15.0075 73.6918 15.2119 73.6458 15.4242L73.5515 15.6696L73.308 15.7217C73.2757 15.7384 73.2518 15.7795 73.2364 15.8448C73.2208 15.8938 73.2132 15.9346 73.2137 15.9672L73.0972 16.3838C73.0651 16.4168 73.033 16.4498 73.0009 16.4828C72.9685 16.4995 72.9363 16.5243 72.9042 16.5573C72.8736 16.7042 72.8349 16.8513 72.7881 16.9984C72.7412 17.1455 72.6943 17.2845 72.6472 17.4154C72.5687 17.628 72.4983 17.8406 72.4361 18.0531C72.3899 18.249 72.3763 18.4445 72.3952 18.6396L72.3011 18.9094C72.2211 19.0082 72.1327 19.0908 72.0359 19.1572C71.9389 19.2073 71.8419 19.2575 71.7449 19.3076C71.7128 19.3406 71.6645 19.3738 71.5998 19.4072C71.5512 19.4242 71.5107 19.441 71.4784 19.4577L71.4088 19.7272L71.1165 19.78C70.9379 19.815 70.8081 19.8411 70.7269 19.8585C70.662 19.8757 70.5808 19.8849 70.4831 19.8862L70.2387 19.8651C70.0577 19.7211 69.9178 19.609 69.819 19.5289C69.7201 19.4326 69.605 19.3446 69.4737 19.265C69.3245 19.0717 69.2412 18.9263 69.2236 18.8289C69.206 18.7315 69.1885 18.6422 69.1712 18.561C69.1373 18.4638 69.1199 18.3827 69.119 18.3176C69.1019 18.2527 69.0768 18.2042 69.0438 18.1721L68.7225 17.8834L68.9881 17.6601L69.0069 17.2448C69.3212 16.4104 69.6522 15.6083 69.9999 14.8386C70.3639 14.0686 70.7358 13.2823 71.1156 12.4795C71.2423 12.2174 71.3608 11.9554 71.4712 11.6934C71.5979 11.4313 71.7246 11.1691 71.8513 10.907C71.8343 10.8584 71.8254 10.8015 71.8246 10.7364C71.8237 10.6713 71.839 10.5979 71.8704 10.5161C72.0457 10.237 72.1889 9.99088 72.2999 9.77777C72.4108 9.54839 72.5216 9.319 72.6325 9.08962C72.7589 8.8112 72.8855 8.54091 73.0122 8.27876C73.1552 8.01639 73.3305 7.74544 73.5384 7.46592L73.9267 7.28976C73.9753 7.27283 74.032 7.25578 74.0969 7.23863C74.1615 7.2052 74.2346 7.18794 74.3159 7.18684L74.6828 7.23072C75.1356 7.013 75.5304 6.71468 75.8671 6.33575C76.2036 5.94054 76.5472 5.47199 76.898 4.9301L77.1375 4.58504L77.4575 4.77605C77.5395 4.82377 77.6541 4.87106 77.8012 4.91791C77.9482 4.94848 78.1033 4.98708 78.2667 5.0337C78.5605 5.09485 78.8382 5.16435 79.0997 5.2422C79.3612 5.32006 79.5744 5.43926 79.7393 5.59981C79.8405 5.85889 79.9001 6.05341 79.9181 6.18339C79.9362 6.31337 79.9623 6.44323 79.9966 6.57299C80.0492 6.849 80.0936 7.12512 80.1299 7.40134C80.1825 7.67735 80.2192 7.98613 80.2401 8.32768C80.3252 8.60325 80.394 8.87903 80.4466 9.15504C80.5152 9.41456 80.5758 9.68232 80.6283 9.95833C80.715 10.3478 80.8015 10.7292 80.8879 11.1024C80.9742 11.4593 81.0845 11.7997 81.2191 12.1234C81.3493 12.1216 81.4308 12.1287 81.4636 12.1445C81.5445 12.1109 81.6256 12.0854 81.7067 12.068C81.8041 12.0504 81.9097 12.0327 82.0234 12.0149L82.2916 11.9868L82.3926 12.2296C82.4099 12.3108 82.4924 12.3911 82.64 12.4705C82.8518 12.4839 83.007 12.5306 83.1058 12.6107C83.2043 12.6745 83.2948 12.7465 83.3773 12.8268C83.4432 12.891 83.509 12.9389 83.5745 12.9706L83.9427 13.1121L83.7523 13.4809C83.5936 13.7761 83.3614 14.0641 83.0559 14.3449C82.7665 14.6092 82.4358 14.8335 82.064 15.0175C82.0815 15.115 82.091 15.2125 82.0923 15.3101C82.1097 15.3913 82.1353 15.4805 82.1692 15.5777C82.2217 15.8537 82.2663 16.1379 82.3028 16.4305C82.3393 16.723 82.3433 17.024 82.315 17.3337L82.2675 17.432ZM75.1554 13.304C75.6432 13.2649 76.0822 13.2264 76.4723 13.1886C76.8785 13.1342 77.3251 13.055 77.812 12.9507C77.6915 12.464 77.5626 11.9612 77.4254 11.4421C77.288 10.9068 77.1425 10.3798 76.989 9.86096L76.8458 10.1071C76.5249 10.4532 76.2128 10.84 75.9092 11.2673C75.622 11.6944 75.3751 12.0965 75.1686 12.4737C75.073 12.6215 74.9773 12.7692 74.8816 12.917C74.786 13.0648 74.6984 13.2125 74.619 13.3601C74.7165 13.3425 74.8059 13.3331 74.8872 13.332C74.9849 13.3307 75.0743 13.3214 75.1554 13.304ZM95.8932 7.55478C95.4863 7.56027 95.0473 7.59875 94.5763 7.67022C94.105 7.72542 93.6419 7.78864 93.1871 7.85989C92.8623 7.91311 92.5455 7.95808 92.2367 7.9948C91.9442 8.03131 91.676 8.05934 91.4321 8.07891C91.323 8.43849 91.2133 8.75738 91.1032 9.03559C90.993 9.31379 90.8745 9.58397 90.7479 9.84612C90.6214 10.1245 90.5032 10.411 90.3932 10.7055C90.2993 10.9835 90.2057 11.2859 90.1125 11.6127C89.9532 11.8753 89.8182 12.1212 89.7074 12.3506C89.6126 12.5635 89.5345 12.8087 89.4731 13.0863C89.2811 13.333 89.1382 13.5954 89.0443 13.8734C88.9501 14.1351 88.88 14.3639 88.8338 14.5599L88.7401 14.8542C88.6438 14.9531 88.5879 15.0353 88.5725 15.1006C88.5569 15.1496 88.5169 15.199 88.4524 15.2487C88.4386 15.4279 88.384 15.6077 88.2888 15.7881C88.2573 15.8699 88.234 15.9516 88.2188 16.0332C88.2035 16.0985 88.196 16.1474 88.1964 16.18C88.1986 16.3427 88.1594 16.4491 88.0786 16.499C88.096 16.5801 88.0972 16.6696 88.0823 16.7675C88.0671 16.8491 88.0519 16.9307 88.0367 17.0123C87.9905 17.2082 87.9764 17.3631 87.9942 17.4768C88.0439 17.5412 88.0853 17.5976 88.1185 17.646C88.168 17.6942 88.2015 17.7588 88.2188 17.84C88.3173 17.9038 88.3911 17.9435 88.4402 17.9591C88.5059 18.007 88.6044 18.0627 88.7354 18.126L88.9584 18.3671C89.0462 18.838 88.978 19.2133 88.7539 19.4931C88.5139 19.8056 88.101 19.9658 87.5151 19.9737L87.2222 19.9776C87.1397 19.8974 87.09 19.8329 87.0731 19.7843C86.9422 19.7373 86.8359 19.698 86.7541 19.6666C86.6723 19.6351 86.5982 19.571 86.5317 19.4742C86.3189 19.3794 86.1469 19.3004 86.0158 19.237L85.7944 19.1179C85.792 18.9389 85.7907 18.8413 85.7905 18.825C85.6746 18.6801 85.5829 18.5185 85.5154 18.3404C85.4641 18.162 85.421 17.9836 85.3861 17.805C85.3515 17.6589 85.309 17.5212 85.2584 17.3916C85.2241 17.2619 85.1737 17.1486 85.1073 17.0518C85.062 16.1083 85.1408 15.3097 85.3435 14.6558C85.5463 14.002 85.7576 13.3725 85.9773 12.7672C86.1031 12.44 86.2289 12.1127 86.3547 11.7855C86.4803 11.442 86.5895 11.0905 86.6823 10.7312L86.8987 10.4841C87.0091 10.2221 87.0958 10.0094 87.1587 9.84575C87.2376 9.66563 87.3166 9.48551 87.3955 9.30539C87.4428 9.19081 87.4821 9.08448 87.5133 8.98639C87.5606 8.87181 87.6 8.77361 87.6314 8.6918C87.5338 8.69312 87.4444 8.70246 87.3632 8.71984C87.2818 8.72093 87.2006 8.73017 87.1194 8.74754C87.022 8.76514 86.9327 8.78262 86.8515 8.79999C86.7702 8.80109 86.6888 8.80219 86.6074 8.80329C86.4935 8.80483 86.412 8.79779 86.363 8.78217C86.1851 8.86596 85.9903 8.90928 85.7787 8.91214L85.5346 8.91544C85.4858 8.9161 85.437 8.91675 85.3882 8.91741C85.3554 8.90158 85.3227 8.89388 85.2902 8.89432C85.1274 8.89652 84.9976 8.92269 84.9006 8.97283C84.7053 8.97547 84.5181 8.97799 84.3391 8.98041L84.095 8.98371C84.0624 8.98414 84.0219 8.99283 83.9733 9.00976C83.9244 9.01042 83.8837 9.01097 83.8512 9.01141C83.7373 9.01295 83.6151 9.00646 83.4847 8.99194C83.3541 8.96115 83.215 8.90606 83.0674 8.82666C82.8686 8.56891 82.7365 8.43233 82.6712 8.41694L82.4475 8.12696C82.4299 8.02953 82.4043 7.94035 82.3707 7.85942C82.3368 7.76221 82.3028 7.65687 82.2687 7.54338C82.2014 7.38152 82.134 7.21151 82.0665 7.03337C82.0151 6.83874 81.9876 6.61122 81.9841 6.35083C81.9986 6.22041 82.0298 6.12233 82.0777 6.05657C82.1257 5.99081 82.1656 5.9333 82.1975 5.88404L82.2658 5.51687L82.5835 5.537L83.267 5.52777C83.7878 5.52074 84.3165 5.49732 84.8531 5.45752C85.3895 5.40145 85.9422 5.34516 86.5111 5.28864C86.8362 5.2517 87.1613 5.21476 87.4863 5.17781C87.8276 5.14065 88.1771 5.10338 88.5347 5.06599C88.5978 4.91864 88.661 4.77943 88.7244 4.64836L88.9669 4.523C89.2596 4.50277 89.4636 4.54071 89.5788 4.63682C89.7101 4.71644 89.817 4.79638 89.8994 4.87665C90.257 4.83927 90.6147 4.80189 90.9723 4.76451C91.3459 4.71063 91.7195 4.64861 92.0929 4.57846C92.6451 4.48962 93.1975 4.40891 93.7499 4.33634C94.3187 4.26356 94.8634 4.22365 95.3842 4.21662C95.612 4.21354 95.8319 4.21871 96.0437 4.23213C96.2554 4.24555 96.4511 4.26732 96.6305 4.29745L96.8769 4.46504C96.9271 4.56203 96.9934 4.65066 97.0759 4.73094C97.1746 4.81099 97.2734 4.89104 97.3721 4.9711C97.5698 5.14748 97.768 5.35642 97.9666 5.5979C98.1652 5.83938 98.2432 6.19643 98.2008 6.66905C98.0732 6.8661 97.9771 6.98134 97.9124 7.01477L97.6967 7.31068L97.4522 7.28956C97.3546 7.29088 97.2653 7.30837 97.1844 7.34201C97.1032 7.35939 97.0222 7.3849 96.9412 7.41854C96.8766 7.45197 96.8119 7.4854 96.7473 7.51883C96.6824 7.53598 96.6094 7.55325 96.5282 7.57062C96.3817 7.5726 96.2597 7.57424 96.162 7.57556C96.0804 7.56039 95.9908 7.55346 95.8932 7.55478ZM98.7999 17.5506C98.8878 18.0378 98.8604 18.4207 98.7177 18.6993C98.5912 18.9777 98.3987 19.1838 98.1401 19.3175C97.8979 19.4673 97.6142 19.5525 97.2889 19.5732C96.9637 19.5938 96.6542 19.5817 96.3606 19.5369C96.1948 19.3112 96.0445 19.0284 95.9097 18.6884C95.7749 18.3484 95.6481 18.0001 95.5293 17.6436C95.4104 17.2708 95.2996 16.9061 95.1972 16.5494C95.1109 16.1924 95.0334 15.8761 94.9646 15.6003C95.0433 15.4039 95.0892 15.1835 95.1022 14.9392C95.1312 14.6783 95.144 14.4177 95.1404 14.1573C95.1532 13.8967 95.1578 13.6362 95.1543 13.3758C95.1668 13.0989 95.1877 12.8382 95.217 12.5937C95.3217 11.9086 95.4756 11.2554 95.6789 10.6341C95.8984 10.0126 96.0687 9.36735 96.1899 8.69834C96.2205 8.55142 96.2023 8.41331 96.1355 8.28399C96.0849 8.15446 96.0751 8.03251 96.1061 7.91815C96.1215 7.85283 96.1698 7.81148 96.2509 7.79411C96.3319 7.76046 96.3799 7.70284 96.3951 7.62125C96.4415 7.44157 96.4477 7.29499 96.4136 7.18151C96.3958 7.0678 96.4264 6.92903 96.5056 6.76519C96.5852 6.63389 96.6804 6.44542 96.791 6.19976C96.9177 5.93761 96.9629 5.66842 96.9266 5.39219C97.0717 5.29257 97.2085 5.17678 97.337 5.04482C97.4654 4.91287 97.5941 4.79719 97.7229 4.69778C97.8679 4.58188 98.0212 4.48215 98.1828 4.39858C98.3607 4.31479 98.5718 4.27125 98.8159 4.26795C98.9483 4.42894 99.0321 4.60686 99.0672 4.80172C99.1187 4.99635 99.162 5.1911 99.1972 5.38595C99.2487 5.58059 99.3163 5.76687 99.4001 5.94479C99.4837 6.10643 99.6237 6.23476 99.8204 6.32977C99.8221 6.45997 99.8243 6.62272 99.827 6.81801C99.8296 7.01331 99.8404 7.20849 99.8593 7.40357C99.878 7.58237 99.9128 7.75281 99.9638 7.9149C100.031 8.06049 100.13 8.15682 100.261 8.20388C99.9783 8.98902 99.7121 9.76579 99.462 10.5342C99.2283 11.3024 99.0353 12.0782 98.8831 12.8616C98.7306 13.6287 98.6353 14.4031 98.597 15.185C98.575 15.9666 98.6426 16.7552 98.7999 17.5506ZM114.8 11.7189C114.786 11.9144 114.805 12.1013 114.856 12.2797C114.907 12.458 114.967 12.6363 115.034 12.8144C115.118 12.9761 115.193 13.146 115.261 13.3241C115.328 13.5023 115.38 13.6806 115.415 13.8592C115.45 14.0866 115.454 14.3389 115.425 14.616C115.396 14.8768 115.342 15.138 115.265 15.3995C115.186 15.6447 115.084 15.8739 114.956 16.0873C114.829 16.2843 114.676 16.4329 114.498 16.5329C114.275 16.829 114.001 17.0605 113.678 17.2277C113.354 17.3948 113.056 17.5942 112.782 17.8258C112.605 17.9421 112.403 18.0262 112.175 18.0781C111.964 18.1298 111.745 18.1816 111.518 18.2335C111.341 18.3336 111.13 18.4422 110.888 18.5594C110.645 18.6604 110.394 18.7614 110.135 18.8626C109.876 18.9475 109.616 19.0161 109.356 19.0684C109.097 19.1045 108.869 19.1157 108.673 19.1021C108.187 19.2877 107.709 19.4081 107.238 19.4633C106.783 19.5345 106.245 19.5092 105.625 19.3874C105.04 19.4767 104.495 19.4596 103.989 19.3362C103.499 19.2126 103.056 19.0151 102.662 18.7437C102.284 18.4558 101.946 18.1186 101.647 17.7319C101.365 17.3288 101.132 16.9087 100.947 16.4717C100.804 15.5459 100.825 14.7073 101.01 13.956C101.195 13.1885 101.463 12.4849 101.812 11.8454C102.178 11.1893 102.593 10.5896 103.057 10.0462C103.522 9.48647 103.97 8.94326 104.403 8.41654C104.501 8.44777 104.574 8.44679 104.622 8.41358C104.687 8.36388 104.743 8.30615 104.791 8.24039C104.839 8.15836 104.887 8.08446 104.934 8.0187C104.999 7.95273 105.071 7.91105 105.153 7.89368C105.263 7.64802 105.423 7.46681 105.633 7.35003C105.86 7.21675 106.036 7.03532 106.163 6.80572C106.309 6.77119 106.431 6.72072 106.527 6.6543C106.624 6.58788 106.713 6.51344 106.793 6.43097C106.89 6.34828 106.986 6.27372 107.083 6.20731C107.18 6.12462 107.293 6.06612 107.422 6.03181L107.419 5.76328C107.71 5.62913 107.92 5.4798 108.048 5.3153C108.192 5.1343 108.36 4.92042 108.552 4.67367C108.698 4.65542 108.812 4.64574 108.893 4.64464C108.991 4.64333 109.129 4.62518 109.308 4.59022C109.435 4.36062 109.546 4.1882 109.642 4.07295C109.755 3.95749 109.916 3.83324 110.126 3.70019C110.322 3.7952 110.535 3.85744 110.763 3.88691C111.008 3.91617 111.221 4.01909 111.402 4.1957C111.42 4.35822 111.471 4.48776 111.554 4.58431C111.636 4.66458 111.727 4.74475 111.826 4.8248C111.924 4.88858 112.015 4.96061 112.097 5.04088C112.196 5.12094 112.262 5.23398 112.297 5.38001C112.362 5.39541 112.403 5.38672 112.419 5.35395C112.451 5.32096 112.5 5.31217 112.565 5.32756C112.617 5.55475 112.676 5.70859 112.742 5.78908C112.808 5.8533 112.875 5.99076 112.943 6.20145C112.864 6.36529 112.801 6.53705 112.754 6.71673C112.724 6.87992 112.628 7.00329 112.466 7.08686C112.452 7.201 112.485 7.26566 112.567 7.28084C112.648 7.27974 112.698 7.31977 112.715 7.40092C112.733 7.54717 112.71 7.65329 112.646 7.71926C113.045 8.3487 113.404 9.01937 113.723 9.73127C114.042 10.4269 114.401 11.0894 114.8 11.7189ZM111.78 14.0792C111.842 13.8993 111.922 13.7517 112.018 13.6365C112.13 13.521 112.193 13.3493 112.206 13.1212C112.123 12.9921 112.073 12.8951 112.056 12.8302C112.038 12.7491 112.029 12.6271 112.026 12.4644C111.662 11.9647 111.345 11.4318 111.077 10.8657C110.809 10.2834 110.508 9.74212 110.176 9.242C110.144 9.30754 110.088 9.37341 110.008 9.4396C109.927 9.5058 109.838 9.49073 109.739 9.39441C109.708 9.52504 109.652 9.62346 109.572 9.68965C109.491 9.73958 109.402 9.7652 109.304 9.76652C109.206 9.75156 109.1 9.72858 108.986 9.69756C108.887 9.65006 108.797 9.59431 108.715 9.53031C108.248 9.91099 107.781 10.2835 107.314 10.648C106.847 11.0124 106.429 11.4331 106.061 11.9101C105.997 11.9435 105.956 11.9603 105.94 11.9606C105.923 11.9445 105.875 11.9533 105.794 11.987C105.668 12.2979 105.509 12.5849 105.317 12.848C105.141 13.0945 104.966 13.3492 104.79 13.612C104.615 13.8748 104.464 14.1535 104.338 14.4482C104.211 14.7429 104.143 15.0857 104.132 15.4765C104.411 15.7006 104.739 15.8346 105.114 15.8783C105.489 15.9221 105.871 15.9251 106.261 15.8872C106.668 15.8492 107.058 15.7951 107.431 15.725C107.821 15.6383 108.178 15.5928 108.504 15.5884C109.185 15.4164 109.768 15.1969 110.253 14.93C110.737 14.6467 111.246 14.3631 111.78 14.0792ZM120.832 14.5186C120.686 14.5531 120.582 14.644 120.519 14.7914C120.455 14.9224 120.392 15.0617 120.329 15.209C120.282 15.3561 120.227 15.4952 120.164 15.6263C120.116 15.7409 120.036 15.799 119.922 15.8005C119.907 15.9309 119.86 16.0455 119.78 16.1442C119.716 16.2428 119.652 16.3494 119.589 16.4642C119.525 16.5628 119.478 16.6773 119.447 16.808C119.416 16.9223 119.434 17.0604 119.501 17.2223C119.373 17.3217 119.293 17.4611 119.263 17.6406C119.233 17.8201 119.194 17.9915 119.148 18.1549C119.117 18.3181 119.054 18.4573 118.958 18.5725C118.862 18.6878 118.684 18.739 118.423 18.7263C118.375 18.792 118.367 18.8328 118.4 18.8487C118.433 18.8645 118.458 18.9211 118.476 19.0185C118.296 18.9884 118.158 18.9984 118.061 19.0486C117.981 19.1148 117.875 19.1569 117.745 19.1749C117.435 19.0814 117.172 18.9141 116.957 18.6728C116.759 18.4313 116.576 18.1652 116.409 17.8745C116.259 17.5672 116.116 17.2599 115.982 16.9524C115.864 16.6447 115.746 16.3777 115.629 16.1514C115.676 15.9718 115.681 15.8008 115.647 15.6385C115.612 15.4599 115.553 15.3142 115.47 15.2014C116.244 13.498 117.091 11.6798 118.009 9.74666C118.927 7.81352 119.796 5.90545 120.617 4.02245C120.994 4.16387 121.362 4.32981 121.723 4.52027C122.099 4.69424 122.436 4.9013 122.732 5.14147C123.045 5.38141 123.309 5.6627 123.525 5.98533C123.741 6.29169 123.884 6.63973 123.954 7.02944C123.923 7.12753 123.883 7.16876 123.834 7.15315C123.801 7.12104 123.768 7.12961 123.736 7.17888C123.803 7.25937 123.836 7.31589 123.836 7.34844C123.853 7.38077 123.853 7.41332 123.838 7.44609C123.838 7.47864 123.839 7.52746 123.84 7.59256C123.84 7.64138 123.866 7.71429 123.916 7.81128C123.85 7.79588 123.802 7.80468 123.77 7.83767C123.754 7.87044 123.705 7.87109 123.623 7.83964C123.691 8.01779 123.709 8.16404 123.678 8.2784C123.663 8.39254 123.632 8.49876 123.585 8.59707C123.537 8.6791 123.497 8.7773 123.466 8.89166C123.435 8.98975 123.445 9.11983 123.496 9.28192C123.447 9.28258 123.407 9.2994 123.375 9.33239C123.359 9.34889 123.343 9.37352 123.327 9.40629C123.311 9.42278 123.287 9.44752 123.255 9.48051C123.239 9.497 123.206 9.49744 123.157 9.48183C123.211 9.83921 123.232 10.197 123.22 10.5553C123.209 10.9136 123.198 11.2799 123.186 11.6545C123.191 12.0125 123.204 12.3949 123.226 12.8015C123.248 13.1919 123.31 13.598 123.414 14.0198C123.995 13.6701 124.453 13.2244 124.787 12.6828C125.138 12.1409 125.415 11.5349 125.617 10.8648C125.836 10.1944 125.997 9.47604 126.101 8.70959C126.205 7.94315 126.316 7.16033 126.436 6.36111C126.58 6.21267 126.692 6.03211 126.77 5.81944C126.849 5.60677 126.919 5.38608 126.981 5.15735C127.043 4.91236 127.105 4.6755 127.167 4.44677C127.228 4.20178 127.307 3.98097 127.402 3.78436C127.646 3.81361 127.851 3.89224 128.015 4.02024C128.196 4.13174 128.36 4.25974 128.509 4.40424C128.657 4.53246 128.813 4.66056 128.978 4.78856C129.142 4.90029 129.347 4.97078 129.591 5.00003C129.79 5.27406 129.973 5.54018 130.139 5.79837C130.305 6.05657 130.415 6.33181 130.468 6.62409C130.388 6.75538 130.325 6.90273 130.278 7.06614C130.248 7.22932 130.21 7.39262 130.163 7.55602C130.116 7.71943 130.053 7.87492 129.974 8.02248C129.894 8.15378 129.782 8.26924 129.637 8.36886C129.594 8.79266 129.534 9.18413 129.457 9.54327C129.397 9.88591 129.328 10.2287 129.251 10.5715C129.191 10.9142 129.139 11.273 129.095 11.648C129.051 12.0067 129.04 12.4056 129.062 12.8448C128.937 13.2209 128.804 13.6215 128.663 14.0466C128.523 14.4717 128.414 14.8557 128.337 15.1986C128.08 15.4136 127.88 15.6686 127.737 15.9636C127.595 16.2585 127.444 16.5535 127.285 16.8486C127.221 16.9146 127.18 16.9314 127.164 16.8991C127.147 16.8668 127.09 16.8431 126.992 16.8282C127.009 16.8931 127.01 16.9419 126.994 16.9747C126.978 17.0074 126.954 17.0403 126.922 17.0733C126.906 17.0898 126.89 17.1226 126.874 17.1716C126.875 17.2204 126.892 17.2853 126.926 17.3662C126.699 17.467 126.498 17.608 126.321 17.7895C126.145 17.9709 125.952 18.1363 125.742 18.2856C125.549 18.4347 125.306 18.5357 125.014 18.5885C124.738 18.641 124.371 18.589 123.913 18.4324C123.239 17.9532 122.637 17.3997 122.108 16.772C121.595 16.1441 121.17 15.393 120.832 14.5186Z" fill="black"/>
</svg>
