<svg width="57" height="51" viewBox="0 0 57 51" fill="none" xmlns="http://www.w3.org/2000/svg">
<g clip-path="url(#clip0_7082_1383)">
<path d="M12.5404 29.515C10.9193 31.3166 9.15749 33.3861 7.37561 35.268C6.82631 35.8574 6.21002 36.4869 5.91527 37.2303C5.41286 38.4024 6.3172 39.4338 7.49619 38.8377C11.2609 36.7481 14.0744 33.212 17.7118 30.8076C19.0583 29.8432 20.6928 28.0148 21.9455 30.0977C22.7091 31.3166 23.3991 32.6025 24.1427 33.8348C25.0336 35.3149 25.8576 37.0227 27.5122 37.4112C30.185 37.8733 31.1362 34.6385 32.2683 32.8168C34.4387 28.7515 37.346 25.6775 40.2734 22.3221C42.2897 19.7571 43.951 17.0513 45.974 14.5131C46.4496 14.0777 48.0373 10.9635 48.4124 12.303C48.8545 15.089 49.1359 19.7972 50.5359 22.4092C51.2259 23.8692 52.5054 24.4318 53.6174 23.4674C54.7294 22.5097 54.582 20.6813 54.3676 19.3217C53.758 15.2096 53.3494 11.064 53.202 6.91162C53.0145 5.06986 53.4767 2.5048 51.8958 1.23231C49.3971 0.0334898 45.5855 3.33526 43.4285 4.61445C41.3184 6.08116 39.8647 6.90493 37.9489 8.05686C36.9441 8.7065 35.3029 9.47 35.1622 10.7559C35.0751 11.8408 36.8235 11.6667 37.634 11.2448C39.6839 10.4009 41.7002 9.32935 43.7098 8.37833C44.018 8.25109 44.4534 8.02338 44.641 8.2176C44.7147 8.50558 44.1721 9.19541 43.9108 9.55036C40.749 13.7429 37.5805 17.9555 34.432 22.1212C33.1593 23.7754 31.8128 25.3694 30.5735 27.0504C29.696 27.9814 29.1802 29.7361 27.9677 30.0709C27.405 30.1111 26.849 29.2137 26.2997 28.2559C25.6365 27.0973 24.913 25.9454 24.2499 24.8135C24.1226 24.5791 24.0824 24.4318 24.0757 24.338C24.0623 24.1706 24.1896 24.0902 24.1293 23.9295C23.9082 23.2865 22.2871 22.081 21.1684 22.3556C20.4182 22.4762 20.8 22.7441 21.3024 22.7976C21.356 22.8244 21.3225 22.8445 21.2622 22.8847C20.8134 23.1593 20.2172 23.454 19.755 23.7219C19.5674 23.829 19.4267 23.9228 19.3396 23.9697C19.2325 24.0299 19.2325 24.0232 19.2526 23.9563C19.3129 23.7821 19.5272 23.3401 19.0315 23.5544C16.4994 24.9475 14.483 27.4791 12.6208 29.4146L12.5337 29.5083L12.5404 29.515Z" fill="black"/>
<path d="M0.0334939 49.5534C1.112 52.0783 2.37137 50.6183 4.32072 50.2298C9.05676 50.1294 13.9134 50.3839 18.6427 50.1763C21.6773 49.9553 24.7587 49.6405 27.8 49.7342C34.1169 50.6317 40.3803 49.6539 46.8178 50.1629C48.6533 50.2566 50.4888 50.4442 52.2907 50.692C53.8784 50.9599 56.8727 51.2478 56.9933 49.1114C56.9263 46.4994 46.9786 46.5865 44.7613 46.1311C40.4071 45.5082 35.939 45.4881 31.5647 45.3877C22.863 45.2403 14.1813 45.8967 5.5198 45.9168C4.91691 45.89 4.39441 45.7761 4.02597 45.5015C2.92737 44.5572 3.28911 42.6351 3.09484 41.2956C2.90058 37.8599 3.08814 34.5448 2.89388 31.1358C2.51205 24.2309 3.06135 17.3996 3.3092 10.4679C3.3293 7.40056 3.41638 4.25952 2.7465 1.25913C2.26419 -0.468777 0.844048 -0.408501 0.482313 1.37968C-0.247855 7.5613 0.140675 13.8501 0.113879 20.0719C0.033494 29.783 0.0200964 39.7753 0 49.4463L0.0334939 49.5534ZM33.0786 49.1985C32.8375 49.2119 31.4642 49.3056 31.4307 49.2922C31.9465 49.2052 32.7772 49.1382 33.2796 49.1516C33.2394 49.1583 33.1657 49.1784 33.1255 49.1851H33.0786V49.1985ZM34.1303 49.3324C33.9696 49.3391 33.4002 49.2855 33.36 49.165C34.3313 49.0846 35.7782 49.031 36.7965 48.9708C37.1448 48.9975 36.5888 49.1181 36.3074 49.1516C35.8854 49.1985 35.4433 49.1717 35.0213 49.1918C34.6528 49.2185 34.5457 49.3726 34.2509 49.3391H34.1303V49.3324Z" fill="black"/>
</g>
<defs>
<clipPath id="clip0_7082_1383">
<rect width="57" height="51" fill="white"/>
</clipPath>
</defs>
</svg>
