<svg width="65" height="88" viewBox="0 0 65 88" fill="none" xmlns="http://www.w3.org/2000/svg">
<path d="M60.1541 60.2147C57.5985 52.7769 51.7751 43.7006 44.423 40.0264C39.5285 37.5836 34.0757 37.2966 28.962 38.8397C28.5181 38.9113 28.0836 38.989 27.6761 39.0774C27.0256 39.2183 26.5284 39.4984 26.1759 39.8784C20.4367 42.435 16.1725 47.5191 13.9294 53.2974C10.5401 62.0401 13.2218 71.2721 15.1469 80.0034C15.2709 80.5755 15.5157 81.023 15.8357 81.3639C15.8391 81.3796 15.8442 81.4031 15.8476 81.4188C16.1998 83.0819 17.6912 83.7925 19.2506 83.6433C30.4259 82.5834 43.5393 82.6296 54.4033 79.7172C57.7375 78.8223 60.7941 77.4788 61.9884 73.979C63.4608 69.6805 61.5418 64.2708 60.1445 60.2086L60.1541 60.2147ZM34.5583 63.6778C34.1297 62.6466 33.7447 61.5895 33.4067 60.5223C32.7624 58.4958 31.9832 55.9981 32.1784 53.7568C33.7396 56.7579 35.1743 60.5002 34.5583 63.6778ZM56.671 70.0771C56.7108 70.7905 56.7086 71.5377 56.5215 72.2264C56.4798 72.3749 56.4637 72.4523 56.4566 72.4949C56.433 72.5 56.3962 72.5571 56.2997 72.7175C56.226 72.832 56.0197 73.0162 56.079 72.9869C54.6397 73.9553 52.8145 74.2031 51.0839 74.6602C47.8028 75.5354 42.4244 74.7975 39.0823 75.3905C32.9437 76.4829 26.7499 77.1688 20.5469 77.7747C18.7097 69.7135 16.1893 61.0373 20.2086 53.233C21.9538 49.8517 24.5805 47.2066 27.7449 45.528C27.9628 46.2685 28.2216 47.0083 28.5005 47.7273C28.2406 48.1939 28.1292 48.7021 28.15 49.2145C27.5744 49.5116 27.1113 50.0632 26.8904 50.8988C26.0044 54.3071 26.6686 57.8637 27.6245 61.1765C28.6001 64.5424 30.238 64.1874 32.0025 67.2183C32.968 68.8716 35.0317 69.2695 36.5073 68.0143C43.4547 62.1354 40.1492 55.8939 36.226 49.1873C36.1226 49.0128 36.0164 48.8635 35.8962 48.7255C36.9574 47.2237 37.836 45.5236 37.8729 43.8007C41.6013 44.5353 44.9955 46.7945 47.5254 49.9877C50.1694 53.3285 53.8656 59.2145 55.1361 63.2222C55.8301 65.402 56.5413 67.775 56.6693 70.0693L56.671 70.0771Z" fill="black"/>
<path d="M25.1137 37.0974C29.9234 37.2939 35.3275 36.5987 39.6567 34.3887C47.1856 30.5498 48.9514 22.5693 46.3731 15.6697C43.6893 8.47301 35.5173 3.89336 27.3837 4.44996C26.0656 4.53872 24.8503 5.06464 24.121 5.97756C12.7654 8.74214 3.75744 21.9598 11.5009 31.6046C14.6576 35.5317 19.9987 36.8931 25.1137 37.0974ZM16.8478 19.7793C18.1848 16.2567 21.8213 13.6143 25.5973 12.7139C26.6032 12.4713 27.3313 11.9689 27.8008 11.3338C32.9538 11.2591 36.9502 13.6094 39.0736 17.5389C41.0446 21.1814 40.5752 25.2625 37.0222 27.9115C35.1151 29.334 31.419 29.9217 28.7059 30.1241C25.2403 30.3746 21.5351 30.2012 18.6186 28.4046C15.6561 26.5852 15.7718 22.6135 16.8478 19.7793Z" fill="black"/>
<path d="M25.0352 27.9906C28.8164 29.0828 32.8589 28.3134 35.4558 25.3794C37.5443 23.015 33.1849 20.8829 31.0963 23.2473C29.9764 24.5156 28.3235 24.2338 26.8697 23.8105C23.7441 22.9043 21.9286 27.0967 25.0369 27.9984L25.0352 27.9906Z" fill="black"/>
</svg>
