<svg width="118" height="33" viewBox="0 0 118 33" fill="none" xmlns="http://www.w3.org/2000/svg">
<path fill-rule="evenodd" clip-rule="evenodd" d="M5.09 0C2.28 0 0 2.28 0 5.09V32.37H27.28C30.09 32.37 32.37 30.09 32.37 27.28V0H5.09ZM29.93 2.44H5.09C3.63 2.44 2.44 3.63 2.44 5.09V29.93H27.28C28.74 29.93 29.92 28.75 29.92 27.28V2.44H29.93Z" fill="white"/>
<path d="M6.05005 14.97H10.51C10.53 16.42 10.0701 17.83 9.20005 18.98C8.46005 19.99 7.30005 20.61 6.05005 20.64V26.32C8.42005 26.32 10.6801 25.12 12.3601 22.99C14.0901 20.68 15.0101 17.85 14.9701 14.96V6.03998H8.59005C7.19005 6.03998 6.06005 7.16998 6.06005 8.56998V14.96L6.05005 14.97ZM26.32 17.4H21.8601C21.8401 15.95 22.3 14.54 23.17 13.39C23.91 12.38 25.07 11.76 26.32 11.73V6.04998C23.95 6.04998 21.6901 7.24998 20.0101 9.37998C18.2801 11.69 17.3601 14.52 17.4001 17.41V26.33H23.78C25.18 26.33 26.31 25.2 26.31 23.8V17.41L26.32 17.4Z" fill="white"/>
<path d="M46.84 4.20001H41V27.87H46.84V18.95H55.76V27.87H61.6V4.20001H55.76V13.12H46.84V4.20001Z" fill="white"/>
<path fill-rule="evenodd" clip-rule="evenodd" d="M91.94 28.18C96.32 28.18 99.17 24.8 99.17 19.18C99.17 14.08 96.32 10.21 91.91 10.21C89.99 10.12 88.15 11.04 87.07 12.63H86.97V4.20001H81.56V27.87H86.73V25.5H86.8C87.86 27.25 89.69 28.18 91.94 28.18ZM90.41 23.91C88.19 23.91 86.79 21.99 86.79 19.18C86.79 16.37 87.95 14.32 90.34 14.32C92.53 14.32 93.69 16.24 93.69 19.15C93.69 22.06 92.53 23.92 90.41 23.92V23.91ZM69.31 28.08C71.86 28.08 73.36 27.19 74.35 25.76H74.42C74.5 26.5 74.72 27.21 75.07 27.87H80.16V27.64C79.68 27.18 79.63 26.36 79.63 25V16.46C79.63 14.34 78.93 12.69 77.47 11.63C76.24 10.7 74.52 10.24 71.96 10.24C66.82 10.24 64.29 12.92 64.16 16.06H69.14C69.31 14.64 70.27 13.88 72 13.88C73.63 13.88 74.32 14.61 74.32 15.7C74.32 16.86 73.19 17.19 70.01 17.59C66.5 18.05 63.51 19.18 63.51 22.92C63.51 26.26 65.93 28.08 69.31 28.08ZM71.03 24.64C69.7 24.64 68.71 24.11 68.71 22.75C68.71 21.39 69.57 20.93 71.66 20.47C72.62 20.28 73.55 19.98 74.45 19.58V21.6C74.45 23.42 73.06 24.64 71.03 24.64Z" fill="white"/>
<path d="M112.73 25.56C111.6 27.25 109.68 28.23 107.65 28.14C103.73 28.14 101.1 25.59 101.1 21.82V10.7H107.06V20.69C107.06 22.54 107.89 23.57 109.61 23.57C111.47 23.57 112.6 22.18 112.6 20.16V10.7H118.01V27.86H112.83V25.55H112.73V25.56Z" fill="white"/>
</svg>
