<svg width="142" height="155" viewBox="0 0 142 155" fill="none" xmlns="http://www.w3.org/2000/svg">
<g clip-path="url(#clip0_5989_1165)">
<path d="M75.2435 101.751C75.6359 101.353 76.0252 100.965 76.4176 100.566C76.5588 100.423 76.6716 100.27 76.7874 100.108C77.0098 99.8126 77.2463 99.7318 77.6174 99.8841C77.7855 99.9493 78.1678 99.9053 78.2114 99.8038C78.3389 99.5088 78.108 99.5073 77.8838 99.5501C77.8617 99.5534 77.7336 99.333 77.7647 99.2695C77.8147 99.1806 77.9469 99.0974 78.0701 99.0744C78.2596 99.0414 78.5418 99.1436 78.6264 99.045C78.9118 98.7172 79.1335 98.3266 79.3711 97.9517C79.5054 97.7325 79.5825 97.4631 79.7616 97.3006C80.8517 96.3091 81.9641 95.3459 83.0796 94.3732C84.1543 93.4293 85.2417 92.5106 86.3068 91.5636C86.8252 91.1012 87.3372 90.6263 87.8079 90.1169C88.2502 89.6298 89.0774 89.4467 89.8645 89.8394C89.7994 89.5869 89.798 89.3971 89.7087 89.2839C89.4821 89.0105 89.4934 88.8143 89.7699 88.5783C90.1973 88.202 90.5863 87.7817 91.0231 87.4085C91.8371 86.7163 92.5706 85.8192 93.5195 85.4233C94.2605 85.1174 94.7173 84.4563 95.4937 84.2356C95.8313 84.1351 96.0682 83.6653 96.3538 83.3691C97.0632 82.6429 97.7631 81.9136 98.4884 81.2031C98.5794 81.1171 98.7918 81.1756 98.9209 81.1019C99.0721 81.0249 99.2072 80.9006 99.2947 80.7608C99.3572 80.6655 99.299 80.4888 99.3711 80.3966C99.8282 79.7671 100.276 79.1345 100.781 78.5521C100.963 78.3484 101.3 78.2795 101.527 78.1008C101.936 77.7815 102.344 77.4623 102.696 77.0929C103.816 75.9115 104.914 74.7017 106.019 73.5046C106.373 73.1257 106.75 72.7751 107.07 72.3743C107.173 72.2502 107.105 72.0072 107.151 71.8329C107.246 71.4116 108.221 70.6455 108.692 70.5883C108.812 70.5748 108.941 70.4695 109.025 70.3709C109.678 69.6261 110.304 68.8625 110.957 68.1178C111.691 67.2839 112.459 66.4718 113.177 65.6222C113.35 65.4154 113.455 65.0921 113.462 64.8106C113.472 64.3931 113.895 63.8366 114.292 63.7135C114.526 63.6422 114.749 63.4097 114.909 63.2093C115.216 62.815 115.488 62.3987 115.769 61.9855C115.81 61.9252 115.914 61.8643 115.91 61.8106C115.867 61.1025 116.389 60.6623 116.704 60.1445C117.133 59.4425 117.615 58.7686 118.113 58.1103C118.279 57.8909 118.556 57.7497 118.786 57.5931C119.513 57.1039 119.339 56.2482 119.631 55.5756C120.306 54.018 120.946 52.4385 121.611 50.8777C122.025 49.8975 122.47 48.9171 122.921 47.886C122.992 48.0879 123.043 48.2203 123.134 48.4916C123.351 47.9524 123.775 47.5857 123.33 47.2094C123.423 46.9874 123.573 46.7839 123.535 46.6767C123.248 45.9736 123.553 45.3262 123.716 44.6957C124.122 43.1242 124.326 41.5289 124.273 39.9133C124.227 38.4684 124.033 37.0278 123.884 35.5805C123.823 35.0244 123.53 34.7609 122.923 34.7843C121.298 34.8658 119.643 34.7799 118.038 34.994C116.001 35.2777 113.971 35.7005 111.969 36.2274C109.978 36.7575 108.022 37.4359 106.082 38.13C104.225 38.7982 102.377 39.5011 100.561 40.2986C98.9438 41.003 97.3877 41.8429 95.8091 42.6229C94.5928 43.2264 93.3509 43.7794 92.1827 44.4615C90.9388 45.1821 89.7334 45.9784 88.5504 46.8029C87.0402 47.8575 85.6291 49.0601 84.0804 50.0391C82.6639 50.9349 81.5882 52.1729 80.3405 53.2288C78.8759 54.4665 77.6818 55.9394 76.4114 57.356C75.1567 58.7566 73.9115 60.1603 72.886 61.7616C71.8509 63.3599 70.6412 64.8487 69.5616 66.422C68.8669 67.4263 68.3726 68.5905 67.5952 69.526C66.6109 70.7096 66.2706 72.1762 65.5304 73.4498C65.265 73.9102 64.9202 74.3239 64.5849 74.7406C64.3028 75.0905 63.9254 75.3779 63.6783 75.7497C63.2062 76.49 62.5109 76.9789 61.6885 76.9533C61.0337 76.9296 60.389 76.5517 59.7452 76.3003C59.1109 76.0519 58.4704 75.8226 57.8673 75.5107C56.9943 75.0586 56.1651 74.5365 55.3172 74.0399C55.044 73.8775 54.7985 73.5978 54.5198 73.5493C53.6556 73.4259 53.2083 72.7967 52.6665 72.2315C52.4402 71.9896 52.0786 71.8405 51.7458 71.7322C51.2228 71.5621 51.0681 71.1648 50.9571 70.6976C50.8398 70.2178 50.6687 69.7415 50.6398 69.2484C50.6215 68.9165 50.7421 68.5456 50.8853 68.2346C51.0752 67.8126 51.3315 67.4123 51.5784 67.0089C51.9159 66.4562 52.5192 65.9268 52.5436 65.3669C52.5785 64.5159 52.9084 63.7925 53.3246 63.1918C54.0883 62.1047 54.2088 60.861 54.5448 59.6663C54.8408 58.6269 55.346 57.6555 55.6324 56.613C55.996 55.3011 56.2454 53.9521 56.5139 52.6093C56.7881 51.1843 57.0337 49.7499 57.2794 48.3156C57.3915 47.6475 57.5479 46.9728 57.5525 46.3118C57.5588 44.5788 58.1921 42.955 58.249 41.2279C58.2954 39.7919 58.6138 38.3602 58.6381 36.9274C58.6698 35.6338 58.7963 34.3395 58.4135 33.0267C58.1249 32.039 58.2085 30.9411 58.0965 29.8952C58.0386 29.3295 57.9049 28.7708 57.8028 28.2118C57.6284 27.2928 57.4857 26.3736 57.2672 25.4613C56.7163 23.2105 56.1433 20.9631 55.5244 18.501C54.7573 19.1138 54.0777 19.5868 53.4872 20.1414C52.5921 20.9859 51.7034 21.8431 50.9165 22.7754C50.0104 23.8478 49.2061 24.9953 48.3858 26.1271C47.9882 26.6707 47.654 27.2456 47.3168 27.8299C46.3797 29.418 45.395 30.9905 44.5373 32.6254C43.1245 35.3206 41.8926 38.1062 41.0158 41.0283C40.0651 44.2102 39.203 47.4105 38.7212 50.7029C38.3628 53.1627 38.0266 55.6191 37.8708 58.1027C37.8145 59.0519 37.6444 59.9955 37.5754 60.951C37.5068 61.9382 37.5108 62.928 37.4707 63.9244C37.4239 64.8766 37.3581 65.8227 37.3208 66.778C37.2919 67.5782 37.2851 68.3752 37.3003 69.1689C37.3253 70.4178 37.4071 71.6537 37.432 72.9026C37.4416 73.7785 37.3784 74.6518 37.3754 75.5341C37.3631 76.445 37.3729 77.3525 37.4017 78.2662C37.4493 80.0273 37.4749 81.7917 37.5637 83.5557C37.6153 84.5609 37.7618 85.5655 37.8641 86.5767C37.8778 86.7284 37.8474 86.8867 37.8485 87.0448C37.8527 87.614 37.8378 88.177 37.8736 88.746C37.9454 89.9156 38.0172 91.0851 38.1523 92.2542C38.3044 93.5971 38.4691 94.9336 38.7097 96.2632C38.8415 96.9895 39.2006 97.6637 39.3198 98.3965C39.5148 99.543 39.5771 100.709 39.7278 101.863C39.7611 102.084 39.8702 102.298 39.9571 102.516C40.1021 102.878 40.2502 103.231 40.4172 103.591C40.5168 103.802 40.6321 103.997 40.7538 104.205C40.8146 104.309 40.9259 104.387 40.9677 104.485C41.2711 105.33 41.5746 106.175 41.8402 107.04C41.9438 107.368 41.8707 107.754 41.9743 108.082C42.1041 108.524 42.3379 108.937 42.515 109.362C42.7144 109.816 42.9706 110.257 43.0879 110.737C43.1889 111.138 43.1289 111.581 43.1604 112.001C43.1611 112.096 43.206 112.184 43.2714 112.469C43.3133 112.146 43.3342 111.984 43.3616 111.835C43.4375 111.829 43.5038 111.819 43.5827 111.802C43.6592 112.311 43.723 112.826 43.8216 113.331C43.8741 113.59 43.9023 113.988 44.0737 114.075C44.7593 114.425 44.6156 115.093 44.765 115.636C44.918 116.232 44.9733 116.871 45.1736 117.451C45.3254 117.89 45.6509 118.279 45.8973 118.685C45.923 118.736 45.9646 118.802 45.9586 118.853C45.81 120.15 46.5074 121.239 46.8669 122.397C47.1907 123.439 47.5588 124.473 47.9552 125.485C48.358 126.51 48.8207 127.512 49.296 128.508C49.7038 129.356 50.1589 130.187 50.6298 131.003C50.8924 131.457 51.1993 131.903 51.5563 132.293C52.5064 133.348 51.7399 134.477 50.9737 135.216C50.1792 135.978 49.2274 135.994 48.2781 135.906C47.3097 135.812 46.3685 135.537 45.4118 135.31C44.7116 135.135 43.9862 134.973 43.3201 134.693C42.489 134.339 41.7263 133.838 40.9014 133.465C40.2065 133.144 39.4711 132.916 38.7513 132.64C38.5927 132.577 38.4244 132.481 38.316 132.361C37.9014 131.89 37.5026 131.403 37.1163 130.909C36.9312 130.67 36.727 130.425 36.6079 130.144C36.1217 128.956 35.6985 127.735 35.1997 126.553C34.6783 125.31 34.0592 124.11 33.5725 122.858C32.7539 120.752 31.9951 118.623 31.2395 116.484C30.626 114.749 30.0723 112.992 29.4493 111.254C29.1815 110.526 28.9044 109.826 28.7942 109.033C28.6774 108.195 28.3015 107.379 27.973 106.578C27.8442 106.263 27.4791 106.06 27.3503 105.745C27.241 105.499 27.3492 105.166 27.3281 104.875C27.3208 104.736 27.2659 104.582 27.1891 104.462C26.9495 104.132 26.6153 103.834 26.8964 103.357C26.9057 103.329 26.9083 103.256 26.8829 103.237C26.1483 102.683 26.6858 101.806 26.3584 101.132C26.1818 100.769 26.1343 100.333 26.0364 99.923C25.8048 98.9539 25.5575 98.0006 25.3606 97.0217C25.177 96.1313 25.0376 95.2342 24.8982 94.3371C24.6822 92.8998 24.4345 91.4627 24.2722 90.0219C24.0154 87.7722 23.7586 85.5224 23.6092 83.2656C23.4561 80.9234 23.42 78.5772 23.3396 76.2377C23.2985 74.9414 23.2985 73.648 23.2986 72.3546C23.2986 71.0612 23.3398 69.7706 23.3303 68.4741C23.3297 67.5381 23.2439 66.6058 23.2624 65.6759C23.3035 63.5126 23.3034 61.3464 23.4489 59.1854C23.6614 56.2365 23.9592 53.2839 24.3045 50.3467C24.4622 48.9889 24.8034 47.6487 25.0624 46.3028C25.114 46.0146 25.1276 45.7141 25.2014 45.4226C25.5245 44.2028 25.9996 43.0007 26.1486 41.7663C26.2737 40.7029 26.4941 39.7019 26.9203 38.747C27.2812 37.9284 27.4363 37.0956 27.5692 36.2345C27.6056 36.0255 27.7528 35.8315 27.8494 35.6316C27.9065 35.6501 27.9697 35.6497 28.0298 35.6587C28.0476 35.9274 28.0718 36.2086 28.0898 36.5089C28.5425 35.2786 28.9826 34.0547 29.4387 32.8465C29.7986 31.9015 30.1711 30.9501 30.585 30.0331C31.0612 28.9892 31.5819 27.9703 32.0961 26.9388C32.1584 26.8118 32.3097 26.7348 32.4259 26.636C32.5139 26.5594 32.7063 26.4853 32.6901 26.438C32.5918 25.9643 33.0909 25.8848 33.2405 25.5864C33.3901 25.2881 33.7268 25.0611 33.3479 24.7065C33.3289 24.7003 33.5634 24.3349 33.6109 24.3504C34.153 24.5267 34.3364 24.0921 34.5397 23.7902C35.0185 23.0941 35.4528 22.3731 35.8616 21.6333C36.1018 21.1856 36.2406 20.6944 36.4392 20.1807C36.2811 20.1818 36.1672 20.1763 35.968 20.1746C36.8862 19.0326 37.1785 17.4873 38.8067 17.0073C38.6924 16.9386 38.6541 16.8946 38.6035 16.8886C38.5559 16.8732 38.4929 16.9053 38.2497 16.9418C38.7446 16.2931 39.1646 15.7777 39.5432 15.2278C39.7028 14.9958 39.7701 14.6917 39.8883 14.4252C39.9038 14.3777 39.9255 14.3111 39.9568 14.2793C40.309 14.0047 40.6802 13.7364 41.026 13.4492C41.2712 13.2451 41.4909 13.0221 41.7296 12.8053C42.8544 11.8041 43.9633 10.7872 45.1328 9.84257C45.3906 9.63197 45.8742 9.59997 46.2287 9.64165C46.7446 9.70428 47.8196 9.2442 48.0596 8.76493C48.1157 8.657 48.2349 8.51699 48.3359 8.49727C49.8324 8.16376 51.324 7.58679 52.8753 8.24903C53.7635 8.62201 54.6581 9.0076 55.5462 9.38059C55.6668 9.43031 55.8123 9.43557 55.9547 9.45034C56.6984 9.52396 57.3826 9.68339 58.0625 10.1148C58.968 10.6932 60.0174 11.0556 61.0012 11.5227C61.839 11.9214 62.686 12.2915 63.4957 12.7441C64.0038 13.025 64.5596 13.353 64.8759 13.8029C65.691 14.9828 66.4211 16.2298 67.1134 17.496C67.5334 18.274 67.8086 19.1417 68.1529 19.9582C68.6196 21.0774 69.1463 22.1741 69.5562 23.3064C69.9466 24.3692 70.2362 25.4834 70.5762 26.5719C70.7672 27.1809 71.0056 27.7737 71.1524 28.3892C71.27 28.9007 71.3086 29.4285 71.3473 29.9563C71.5003 31.8463 71.6658 33.7299 71.7967 35.6232C71.8436 36.4166 71.8178 37.2074 71.8204 38.0074C71.8305 39.8194 71.8406 41.6313 71.8538 43.4338C71.855 43.5919 71.8908 43.7403 71.9245 44.0246C72.2111 43.8549 72.4505 43.733 72.6581 43.5797C73.3846 43.0273 74.0887 42.4466 74.8342 41.9004C74.9883 41.7822 75.2415 41.812 75.4878 41.7659C75.8723 40.2926 77.3306 39.9151 78.4254 39.1355C78.8344 38.8479 79.189 38.469 79.5915 38.1688C80.035 37.8398 80.4716 37.435 80.9733 37.2827C82.1915 36.9323 83.0576 36.0152 84.1542 35.4885C86.4041 34.3905 88.6155 33.2169 90.8846 32.1567C92.7189 31.3021 94.598 30.5358 96.4903 29.8262C98.6474 29.0135 100.85 28.3206 103.036 27.5805C103.556 27.4027 104.109 27.288 104.61 27.0725C104.903 26.947 105.164 26.6953 105.383 26.4407C105.578 26.2305 106.522 25.9801 107.064 26.2513C106.887 26.2779 106.707 26.314 106.531 26.3406C106.55 26.41 106.56 26.4763 106.58 26.5458C107.534 26.4249 108.479 26.3326 109.423 26.1771C110.355 26.028 111.273 25.822 112.196 25.6382C112.182 25.5814 112.182 25.5181 112.169 25.4613C112.271 25.5364 112.369 25.6211 112.541 25.74C112.645 25.1953 112.914 25.2408 113.332 25.3769C113.77 25.5192 114.269 25.4712 114.743 25.4678C116.748 25.4468 118.683 25.8342 120.591 26.4338C122.664 27.0764 124.466 28.2301 126.354 29.2125C127.234 29.6772 128.166 30.0436 129.055 30.4798C129.328 30.6106 129.544 30.8494 129.789 31.0341C129.897 31.1219 129.987 31.2351 130.101 31.3038C131.863 32.1922 133.392 33.3416 134.467 35.0478C134.925 35.7749 135.521 36.4315 135.893 37.1941C136.288 37.9849 136.497 38.8625 136.766 39.7176C137.361 41.5727 137.296 43.518 137.389 45.4305C137.427 46.2525 137.247 47.1298 136.553 47.7768C136.49 47.8405 136.612 48.08 136.613 48.2381C136.609 48.5733 136.686 49.1451 136.563 49.1998C135.655 49.567 135.692 50.2624 135.786 51.0713C135.928 50.9912 136.044 50.9239 136.341 50.7573C135.998 51.9078 135.72 52.8901 135.424 53.8663C135.313 54.2086 135.201 54.551 135.036 54.8653C134.921 55.0906 134.781 55.3921 134.588 55.4662C133.8 55.7566 133.7 56.4183 133.531 57.0994C133.436 57.4891 133.202 57.8545 133.008 58.2227C132.565 59.0672 132.103 59.9054 131.607 60.8166C131.825 60.7929 131.948 60.7699 132.091 60.753C132.15 61.54 131.659 61.8535 130.949 62.0326C131.134 62.24 131.258 62.3751 131.459 62.5981C130.607 63.3412 130.389 64.6267 129.14 65.0406C129.278 65.3906 129.325 65.7002 128.794 65.7484C128.696 65.7586 128.589 65.8605 128.52 65.9433C127.931 66.6243 127.399 67.3556 126.745 67.9738C126.155 68.5284 126.087 69.2531 125.865 69.9378C125.797 70.147 125.634 70.3253 125.505 70.5254C125.383 70.7066 125.245 70.872 125.133 71.0563C124.848 71.5106 124.599 71.9868 124.296 72.4349C124.18 72.597 123.975 72.7724 123.786 72.8054C123.088 72.9465 122.985 73.1655 122.788 73.8373C122.661 74.2905 122.289 74.7581 121.886 75.0267C121.36 75.3815 120.764 75.5661 120.516 76.2637C120.423 76.549 119.905 76.6539 119.664 76.9119C118.857 77.7748 117.892 78.5756 117.353 79.5883C116.919 80.4042 116.331 80.7912 115.645 81.2516C115.32 81.4721 115.01 81.8444 114.889 82.2153C114.679 82.8619 114.233 83.232 113.733 83.6057C113.387 83.8612 113.394 83.9687 113.772 84.1968C112.602 85.0465 111.995 86.4266 110.694 87.1287C110.439 87.2665 110.37 87.7066 110.134 87.9139C109.7 88.3092 109.2 88.6196 108.741 88.9961C108.25 89.4045 107.782 89.8411 107.305 90.2747C107.198 90.3767 107.117 90.5291 107.036 90.6498C106.92 90.812 106.852 91.0528 106.701 91.1298C105.79 91.5697 105.354 92.4267 104.723 93.1366C104.206 93.7254 103.555 94.2077 102.967 94.7211C102.072 95.5024 101.163 96.2586 100.258 97.0368C100.217 97.0023 100.188 96.9614 100.147 96.9269C100.272 96.7679 100.397 96.6088 100.563 96.3894C99.8742 96.4387 99.7236 97.0312 99.3878 97.3847C98.9893 97.8019 98.6798 98.3006 98.2782 98.7273C97.4936 99.5553 96.7027 100.371 95.8735 101.142C95.2735 101.693 94.5746 102.129 93.9778 102.671C93.2929 103.289 92.6781 103.983 91.9837 104.598C91.6758 104.866 91.2371 104.987 90.9196 105.251C90.5927 105.513 90.3392 105.872 90.0505 106.178C89.9501 106.293 89.8466 106.417 89.7239 106.503C89.5037 106.663 89.2134 106.747 89.0346 106.941C88.5547 107.479 87.8661 107.592 87.2995 107.944C87.0381 108.101 86.8281 108.358 86.6179 108.584C86.4203 108.804 86.3118 109.105 86.0854 109.284C85.5195 109.731 84.9604 110.254 84.3139 110.495C83.5285 110.776 83.0362 111.352 82.4548 111.847C81.666 112.526 80.9412 113.3 80.1683 113.995C79.8668 114.275 79.4887 114.468 79.1553 114.717C78.3877 115.266 77.5978 115.788 76.862 116.369C76.3244 116.793 75.8728 117.309 75.367 117.765C75.0276 118.064 74.7011 118.389 74.3107 118.62C73.6558 119.017 73.0007 119.382 72.6646 120.125C72.6211 120.226 72.4886 120.278 72.3911 120.351C71.6739 120.875 71.0076 121.436 70.2139 121.872C69.6123 122.202 69.1837 122.841 68.6527 123.31C68.4925 123.447 68.2556 123.496 68.0476 123.586C67.9625 123.622 67.8647 123.664 67.8019 123.727C67.1268 124.381 66.4581 125.046 65.7894 125.712C65.7078 125.801 65.6203 125.941 65.5254 125.942C64.34 125.998 63.7211 126.995 62.8494 127.574C62.7172 127.657 62.6852 128.047 62.7498 128.236C62.9309 128.778 62.7753 129.127 62.2964 129.371C61.8176 129.615 61.3548 129.906 60.8533 130.09C60.1878 130.326 59.6873 130.636 59.6265 131.405C59.6177 131.497 59.4605 131.625 59.3468 131.651C58.7248 131.785 58.1061 131.941 57.4739 131.978C57.0472 131.997 56.6787 131.772 56.2688 131.512C55.287 130.877 54.4082 130.055 53.2199 129.732C52.7193 129.59 52.0346 129.367 52.1455 128.541C52.1546 128.481 52.0904 128.355 52.0428 128.339C50.988 128.091 51.0569 127.136 50.7857 126.385C50.676 126.076 50.5284 125.786 50.3777 125.506C50.2463 125.263 50.0865 125.043 50.4808 124.898C50.6384 124.833 50.7799 124.722 50.9311 124.645C50.7217 124.545 50.5153 124.436 50.2966 124.365C50.23 124.343 50.1356 124.407 50.0315 124.436C50.1434 123.736 51.6165 122.796 52.4867 122.869L52.3351 123.335L52.4274 123.407C52.8545 122.999 53.2942 122.584 53.7213 122.176C53.702 122.139 53.6858 122.091 53.6761 122.057C53.4234 122.09 53.1611 122.12 52.9084 122.154C52.8765 122.123 52.8477 122.082 52.8254 122.053C53.4156 121.467 54.0059 120.881 54.6746 120.215C54.3641 120.135 54.1993 120.092 53.8762 120.019C54.1775 119.706 54.3906 119.439 54.6484 119.229C55.9313 118.226 57.2366 117.252 58.5259 116.262C60.0951 115.059 61.6643 113.855 63.2176 112.636C64.1075 111.937 64.9495 111.19 65.8424 110.482C66.2386 110.169 66.6826 109.903 67.2333 109.536L67.0477 110.106C67.5365 110.349 68.0777 109.979 68.0196 109.381C67.9685 108.891 68.1533 108.647 68.5117 108.353C69.6308 107.434 70.7052 106.459 71.786 105.496C71.8771 105.41 71.898 105.248 71.9477 105.128C71.8025 105.154 71.6443 105.155 71.5183 105.219C71.3545 105.303 71.2099 105.424 71.0589 105.533C71.0142 105.476 70.9695 105.419 70.9248 105.363C71.8147 104.664 72.7045 103.965 73.5943 103.266C73.1518 103.721 72.7028 104.164 72.2006 104.674C72.3651 104.685 72.4412 104.71 72.517 104.703C73.5185 104.566 73.9609 103.658 74.6557 103.106C74.8695 102.934 74.9269 102.563 75.0577 102.29C75.1483 102.141 75.242 101.982 75.3327 101.833L75.2435 101.751ZM86.2559 98.8659C86.2559 98.8659 86.3136 98.9793 86.3393 99.0297C86.7937 98.8935 87.3954 99.0156 87.4715 98.1676C87.0684 98.4045 86.6684 98.632 86.2654 98.8689L86.2559 98.8659Z" fill="black"/>
<path d="M75.2433 101.751C75.1527 101.901 75.059 102.06 74.9683 102.209C74.4837 102.535 73.9991 102.861 73.505 103.184C74.0833 102.699 74.6585 102.224 75.2369 101.739L75.2433 101.751Z" fill="black"/>
<path d="M65.2993 110.147C64.8309 110.521 64.356 110.882 63.8875 111.255C63.8428 111.198 63.7981 111.142 63.763 111.088C64.2378 110.728 64.7063 110.354 65.1812 109.993C65.2259 110.05 65.261 110.103 65.3088 110.15L65.2993 110.147Z" fill="black"/>
<path d="M53.4967 119.148L54.8797 118L55.001 118.144C54.542 118.521 54.0704 118.904 53.6115 119.28C53.5732 119.236 53.535 119.192 53.4998 119.139L53.4967 119.148Z" fill="black"/>
</g>
<defs>
<clipPath id="clip0_5989_1165">
<rect width="108.03" height="126.9" fill="white" transform="translate(39.248) rotate(18.0159)"/>
</clipPath>
</defs>
</svg>
