<svg width="201" height="61" viewBox="0 0 201 61" fill="none" xmlns="http://www.w3.org/2000/svg">
<path d="M10.673 18.2966C10.3342 18.2966 9.99537 18.2966 9.65654 18.466C9.31772 18.8048 9.14831 19.3131 9.14831 19.6519V24.9037H9.31772V23.7178L11.0118 23.2096V24.7343H11.1813V19.6519C11.6895 18.8048 11.5201 18.2966 10.673 18.2966ZM10.1648 13.7225C8.47065 14.2307 6.94593 14.9083 5.59063 15.9248V18.466H5.08239V23.7178L3.04943 21.6849L1.3553 25.2425V27.9531L0.338827 29.139L0 60.8193H0.677655L0.847065 31.6802V30.1555L1.86355 28.4614V25.9202L2.88002 25.7508V25.2425H2.03296L3.04943 23.2096L3.72709 24.3955V29.139H4.40474L5.59063 27.6143V24.3955L5.42122 24.2261V18.466H6.09887V16.2637C7.11535 15.586 8.30124 15.0778 9.31772 14.7389L10.1648 13.7225ZM13.8919 3.21885V5.2518H14.4001V3.21885C14.4001 2.71061 14.9083 3.04943 15.0778 3.04943C14.4001 2.71061 13.8919 2.54119 13.8919 3.21885ZM14.4001 6.09887H15.9248V1.86354H14.7389C14.2307 1.86354 13.7225 1.86354 13.2142 2.03295V6.09887H14.4001ZM14.7389 12.1977C12.1977 12.1977 9.48713 12.706 7.11535 13.7225C7.11535 13.7225 7.28476 7.96241 12.706 6.94593V6.43769H12.8754V2.37178C12.8754 1.3553 13.553 0.677651 14.5695 0.677651V0H14.7389V0.508238C16.2637 0.508238 16.4331 2.5412 16.4331 2.5412V6.60711H16.6025C21.346 7.793 21.6849 13.7225 21.6849 13.7225C19.6519 12.8754 17.2801 12.3671 14.7389 12.1977ZM19.9907 33.3744C20.1601 33.5438 20.1602 33.3744 20.1602 33.8826C20.3296 35.2379 20.3296 36.7626 20.1602 38.1179V52.0098C20.1602 53.0263 20.6684 50.4851 20.6684 50.4851V37.2709C20.6684 35.7461 20.8378 33.2049 20.1602 33.0355C20.3296 33.3744 19.8213 33.2049 19.9907 33.3744ZM21.5155 18.9743C21.6849 19.1437 21.8543 19.4825 22.0237 19.6519V25.7508L22.5319 25.9202C22.5319 21.346 22.7013 19.3131 21.8543 18.8048L21.5155 18.9743ZM22.8708 31.8496H23.379V30.8332H22.8708V31.8496ZM23.5484 35.4073C23.379 35.2379 23.2096 35.2379 23.0402 35.4073C23.0402 35.2379 23.2096 35.4073 23.2096 35.9156C23.379 37.2709 23.379 38.7956 23.2096 40.1509V52.3486C23.2096 53.0263 23.7178 51.1627 23.7178 51.1627V40.3203C24.0566 38.7956 24.3955 35.7461 23.5484 35.4073ZM22.3625 30.3249H21.8543V31.3414H22.0237V30.3249H22.3625ZM17.2801 60.8193L17.619 23.5484L16.4331 19.9907L15.2472 23.0402L15.0778 24.0566L14.9083 26.5978H14.4001V15.7554H15.0778L15.586 17.9578C15.586 17.9578 17.1107 17.2801 17.7884 19.9907L17.2801 21.0072L18.8048 23.0402L19.3131 27.2755L19.8213 27.7837V14.5695L19.6519 14.4001V13.7225L23.379 14.9083V16.6025L24.0567 17.1107V25.7508L25.0731 23.7178L26.0896 27.2755L26.5978 27.4449V31.172L27.2755 31.8496L28.1226 60.8193H17.2801ZM13.7225 33.205H14.7389C14.7389 32.5273 14.5695 31.6802 13.553 31.6802C12.8754 31.6802 12.0283 31.8496 12.0283 33.3744C12.0283 34.8991 12.3671 50.3157 12.3671 50.3157V50.6545L13.0448 49.9768L13.2142 36.5932L13.8919 36.4238V35.9156H13.2142C13.2142 35.7461 13.2142 33.205 13.7225 33.205ZM9.48713 33.8826H10.5036C10.5036 33.2049 10.3342 32.3579 9.31772 32.3579C8.64006 32.3579 7.793 32.5273 7.793 34.052C7.793 35.5767 8.13182 54.8898 8.13182 54.8898L9.14831 53.8733L9.31772 37.1015L9.99537 36.932V36.4238L9.31772 36.5932C8.97889 36.7626 8.64007 34.2214 9.48713 33.8826ZM4.91298 35.2379H6.09887C6.09887 34.2214 5.92946 33.5438 4.91298 33.5438C3.8965 33.7132 3.21885 34.052 3.21885 35.7461V60.8193H3.8965V57.2616L4.40474 38.965L5.08239 38.7956V38.2873L4.40474 38.4568C4.57416 38.2873 4.40474 35.4073 4.91298 35.2379ZM9.65654 30.3249H9.82595V29.139H9.65654V30.3249ZM8.64007 29.139H8.47065V30.6638H8.64007V29.139ZM7.62359 16.4331H8.30124V26.0896H7.62359V16.4331Z" fill="white"/>
<path d="M43.8935 14.3408H48.4677V25.0138H60.8348V14.3408H65.409V40.0916H60.6654V29.2492H48.2983V40.0916H43.7241L43.8935 14.3408Z" fill="white"/>
<path d="M90.5122 27.4737C90.6816 22.7301 87.1239 18.6642 82.3804 18.3254C82.211 18.3254 82.0415 18.3254 82.0415 18.3254C77.298 18.3254 73.4015 22.2219 73.4015 26.9655C73.4015 27.1349 73.4015 27.1349 73.4015 27.3043C73.2321 32.0478 76.7897 36.1138 81.5333 36.4526C81.7027 36.4526 81.8721 36.4526 81.8721 36.4526C86.9545 36.622 90.5122 32.5561 90.5122 27.4737ZM68.4885 27.4737C68.3191 20.3583 74.0791 14.4289 81.1945 14.2595C81.3639 14.2595 81.5333 14.2595 81.8721 14.2595C88.9875 14.0901 94.7475 19.5113 95.0864 26.6266C95.0864 26.9655 95.0864 27.1349 95.0864 27.4737C95.0864 34.7585 89.3263 40.6879 82.0415 40.6879C81.8721 40.6879 81.8721 40.6879 81.7027 40.6879C74.5874 40.8573 68.6579 35.0973 68.4885 27.9819C68.4885 27.8125 68.4885 27.6431 68.4885 27.4737Z" fill="white"/>
<path d="M120.077 27.4737C120.246 22.7301 116.688 18.6642 111.945 18.3254C111.775 18.3254 111.606 18.3254 111.606 18.3254C106.862 18.3254 102.966 22.2219 102.966 26.9655C102.966 27.1349 102.966 27.1349 102.966 27.3043C102.797 32.0478 106.354 36.1138 111.098 36.4526C111.267 36.4526 111.437 36.4526 111.437 36.4526C116.18 36.622 119.907 32.8949 120.077 28.1513C120.077 27.8125 120.077 27.6431 120.077 27.4737ZM98.2224 27.4737C98.053 20.3583 103.813 14.4289 110.928 14.2595C111.098 14.2595 111.267 14.2595 111.606 14.2595C118.721 14.0901 124.481 19.5113 124.82 26.6266C124.82 26.9655 124.82 27.1349 124.82 27.4737C124.82 34.7585 119.06 40.6879 111.775 40.6879C111.606 40.6879 111.606 40.6879 111.437 40.6879C104.321 40.8573 98.3918 35.0973 98.2224 27.9819C98.2224 27.8125 98.2224 27.6431 98.2224 27.4737Z" fill="white"/>
<path d="M125.064 14.3408H130.146L137.939 34.1621L145.732 14.3408H150.476L139.803 40.4304H135.737L125.064 14.3408Z" fill="white"/>
<path d="M154.154 14.3408H173.128V18.4067H158.389V25.0138H171.264V29.0798H158.389V35.8563H173.128V39.9222H153.815V14.3408H154.154Z" fill="white"/>
<path d="M189.383 27.3907C192.602 27.3907 194.635 25.6966 194.635 23.1554C194.635 20.4448 192.602 18.92 189.383 18.92H182.776V27.5601L189.383 27.3907ZM178.202 14.3459H189.553C192.263 14.1765 194.805 15.0235 196.838 16.8871C198.193 18.4118 198.87 20.4448 198.87 22.4777C199.04 26.2048 196.499 29.5931 192.772 30.2707L199.548 40.0967H194.296L188.028 31.4566H182.437V40.2661H177.863C178.202 40.2661 178.202 14.3459 178.202 14.3459Z" fill="white"/>
<path d="M43.7085 45.7415H46.2497V60.8192H43.7085V45.7415Z" fill="white"/>
<path d="M51.9624 45.6855H54.5036L62.2966 56.0197V45.6855H64.8378V60.5939H62.6354L54.5036 49.9209V60.5939H51.9624V45.6855Z" fill="white"/>
<path d="M68.7295 58.5424L70.2542 56.8483C71.6095 57.8648 73.3036 58.5424 74.9978 58.5424C76.5225 58.5424 77.539 57.8648 77.539 56.8483C77.539 55.8318 77.0307 55.3236 74.3201 54.6459C71.2707 53.9683 69.2377 52.9518 69.2377 50.4106C69.2377 47.8694 71.2707 46.1753 74.3201 46.1753C76.1837 46.1753 78.0472 46.8529 79.5719 47.8694L78.386 49.5636C77.2001 48.5471 75.8448 48.0388 74.3201 48.0388C72.7954 48.0388 71.7789 48.7165 71.7789 49.733C71.7789 50.9189 72.4566 51.4271 75.3366 51.9353C78.386 52.613 80.0802 53.6295 80.0802 56.1707C80.0802 58.8813 77.8778 60.406 74.8284 60.406C72.626 60.7448 70.4236 60.0672 68.7295 58.5424Z" fill="white"/>
<path d="M88.7875 48.2097H84.0439V45.6685H96.0723V48.2097H91.3287V60.5768H88.7875V48.2097Z" fill="white"/>
<path d="M101.648 45.7415H104.189V60.8192H101.648V45.7415Z" fill="white"/>
<path d="M114.398 48.2097H109.654V45.6685H121.683V48.2097H116.939V60.5768H114.398V48.2097Z" fill="white"/>
<path d="M126.499 54.373V45.7329H129.04V54.0341C129.04 56.7447 130.565 58.2695 132.767 58.2695C134.8 58.4389 136.494 56.9141 136.664 55.0506C136.664 54.7118 136.664 54.5424 136.664 54.2035V45.5635H139.205V53.8647C139.205 58.4389 136.664 60.4718 132.937 60.4718C129.04 60.9801 126.499 58.7777 126.499 54.373Z" fill="white"/>
<path d="M149.126 48.2097H144.382V45.6685H156.411V48.2097H151.667V60.5768H149.126V48.2097Z" fill="white"/>
<path d="M161.451 45.7415H163.992V60.8192H161.451V45.7415Z" fill="white"/>
<path d="M181.036 53.2703C181.205 50.5597 179.172 48.1879 176.462 48.0185C176.292 48.0185 176.123 48.0185 176.123 48.0185C173.412 48.0185 171.041 50.2209 171.041 52.9315C171.041 53.1009 171.041 53.2703 171.041 53.2703C170.871 56.1503 173.074 58.5221 175.954 58.5221C175.954 58.5221 175.954 58.5221 176.123 58.5221C178.664 58.5221 181.036 56.3197 181.036 53.2703C181.036 53.4397 181.036 53.4397 181.036 53.2703ZM167.991 53.2703C167.991 49.035 171.21 45.6467 175.445 45.6467C175.615 45.6467 175.784 45.6467 175.784 45.6467C180.02 45.4773 183.577 48.8656 183.577 53.1009C183.577 53.1009 183.577 53.1009 183.577 53.2703C183.577 57.5056 180.02 60.8939 175.784 60.8939C175.784 60.8939 175.784 60.8939 175.615 60.8939C171.718 61.0633 168.161 57.675 167.991 53.2703Z" fill="white"/>
<path d="M187.562 45.6855H190.103L197.896 56.0197V45.6855H200.437V60.5939H198.235L190.103 49.9209V60.5939H187.562V45.6855Z" fill="white"/>
</svg>
