<svg width="253" height="283" viewBox="0 0 253 283" fill="none" xmlns="http://www.w3.org/2000/svg">
<g clip-path="url(#clip0_4331_2220)">
<path d="M128.763 122.515C115.061 122.515 103.917 133.693 103.917 147.43C103.917 161.167 114.041 171.279 126.846 172.263V168.409C116.154 167.434 107.751 158.399 107.751 147.43C107.751 135.812 117.178 126.36 128.763 126.36C140.348 126.36 149.775 135.812 149.775 147.43C149.775 158.399 141.369 167.434 130.68 168.409V172.263C143.488 171.276 153.609 160.522 153.609 147.43C153.609 133.69 142.462 122.515 128.763 122.515Z" fill="#FA198C"/>
<path d="M130.677 168.409V147.43C130.677 146.367 129.82 145.507 128.76 145.507C127.7 145.507 126.843 146.367 126.843 147.43V277.166L120.372 270.535C119.633 269.775 118.419 269.763 117.661 270.504C116.903 271.246 116.891 272.463 117.631 273.223L126.115 281.922C126.819 282.643 127.755 283 128.691 282.994C128.715 282.994 128.733 283 128.757 283C128.899 283 129.038 282.982 129.171 282.952C129.904 282.849 130.611 282.534 131.182 281.977L139.856 273.466C140.24 273.09 140.433 272.591 140.433 272.091C140.433 271.591 140.252 271.119 139.886 270.747C139.147 269.987 137.933 269.975 137.175 270.716L130.677 277.093V168.406V168.409Z" fill="white"/>
<path d="M201.161 105.284C194.736 98.8407 186.544 90.3903 177.873 81.4403C169.174 72.466 160.179 63.186 153.105 56.092L152.486 55.4713H70.9093C63.6025 55.4713 57.6604 61.4299 57.6604 68.757V222.757C57.6604 230.084 63.6025 236.043 70.9093 236.043H188.531C195.838 236.043 201.78 230.084 201.78 222.757V105.904L201.161 105.284ZM194.585 104.663H164.923C157.649 104.663 153.724 98.5288 153.724 92.7549V62.7258C160.101 69.187 167.574 76.8956 174.841 84.3923C181.988 91.7649 188.803 98.7983 194.588 104.66L194.585 104.663ZM188.531 231.804H70.9093C65.9334 231.804 61.8875 227.747 61.8875 222.757V68.757C61.8875 63.7673 65.9334 59.7102 70.9093 59.7102H149.497V92.7549C149.497 97.0028 150.976 100.987 153.664 103.976C156.52 107.152 160.517 108.902 164.923 108.902H197.553V222.757C197.553 227.747 193.507 231.804 188.531 231.804Z" fill="white"/>
<path d="M128.76 36.7205C127.761 36.7205 126.948 35.906 126.948 34.9038V1.81664C126.948 0.814462 127.761 0 128.76 0C129.759 0 130.572 0.814462 130.572 1.81664V34.9038C130.572 35.906 129.759 36.7205 128.76 36.7205Z" fill="white"/>
<path d="M50.9968 48.4197C50.5318 48.4197 50.0698 48.2411 49.7166 47.8868L26.3861 24.4914C25.6796 23.783 25.6796 22.6324 26.3861 21.9209C27.0926 21.2124 28.24 21.2124 28.9465 21.9209L52.277 45.3163C52.9835 46.0247 52.9835 47.1753 52.277 47.8868C51.9237 48.2411 51.4587 48.4197 50.9968 48.4197Z" fill="white"/>
<path d="M197.553 48.4197C197.088 48.4197 196.626 48.2411 196.273 47.8868C195.566 47.1783 195.566 46.0278 196.273 45.3163L219.603 21.9209C220.31 21.2124 221.457 21.2124 222.163 21.9209C222.87 22.6294 222.87 23.7799 222.163 24.4914L198.833 47.8868C198.48 48.2411 198.015 48.4197 197.553 48.4197Z" fill="white"/>
<path d="M34.807 109.108H1.81161C0.812204 109.108 0 108.293 0 107.291C0 106.289 0.812204 105.474 1.81161 105.474H34.807C35.8064 105.474 36.6186 106.289 36.6186 107.291C36.6186 108.293 35.8064 109.108 34.807 109.108Z" fill="white"/>
<path d="M251.188 109.108H218.193C217.194 109.108 216.381 108.293 216.381 107.291C216.381 106.289 217.194 105.474 218.193 105.474H251.188C252.188 105.474 253 106.289 253 107.291C253 108.293 252.188 109.108 251.188 109.108Z" fill="white"/>
</g>
<defs>
<clipPath id="clip0_4331_2220">
<rect width="253" height="283" fill="white"/>
</clipPath>
</defs>
</svg>
