<svg width="336" height="49" viewBox="0 0 336 49" fill="none" xmlns="http://www.w3.org/2000/svg">
<path d="M133.583 35.3468C133.263 35.1239 133.015 34.8451 132.84 34.5103C132.641 34.1746 132.49 33.8172 132.387 33.4382C132.26 33.0583 132.169 32.6679 132.114 32.2672C132.035 31.8421 131.956 31.4405 131.877 31.0623C131.889 30.7344 131.968 30.5028 132.113 30.3674C132.26 30.2086 132.418 30.062 132.587 29.9275C133.15 29.9248 133.655 29.8965 134.103 29.8427C134.55 29.7888 134.986 29.7345 135.41 29.6798C135.835 29.6251 136.258 29.582 136.682 29.5507C137.106 29.496 137.564 29.4777 138.056 29.4958C138.434 28.7827 138.787 28.1039 139.116 27.4593C139.445 26.7913 139.762 26.158 140.065 25.5594C140.227 24.979 140.423 24.4468 140.652 23.9627C140.905 23.456 141.145 22.9841 141.372 22.5469C141.6 22.0862 141.805 21.6364 141.985 21.1974C142.166 20.735 142.29 20.247 142.356 19.7335C142.667 18.9241 142.94 18.1837 143.176 17.5122C143.436 16.8182 143.643 15.9932 143.795 15.0372C142.9 15.145 142.18 15.2592 141.637 15.3798C141.094 15.4771 140.703 15.58 140.464 15.6884C139.997 15.6478 139.625 15.5403 139.35 15.366C139.099 15.1925 138.895 14.9857 138.74 14.7454C138.585 14.5051 138.454 14.2306 138.348 13.9218C138.242 13.613 138.113 13.2916 137.962 12.9577C138.063 12.7504 138.098 12.4467 138.065 12.0469C138.034 11.6235 137.905 11.3139 137.678 11.1179C137.867 11.0779 138.013 10.9309 138.116 10.6767C138.22 10.3991 138.239 10.1887 138.174 10.0456C138.577 9.94316 139.001 9.88844 139.447 9.88142C139.894 9.85097 140.328 9.83181 140.751 9.82392C141.197 9.79348 141.621 9.76217 142.021 9.73C142.421 9.67441 142.766 9.55811 143.054 9.3811C144.273 9.37914 145.54 9.3789 146.853 9.3804C148.19 9.38276 149.422 9.36952 150.549 9.34068C150.965 9.49675 151.443 9.58471 151.981 9.60456C152.543 9.62528 153.092 9.6807 153.629 9.77081C154.188 9.86179 154.674 10.0322 155.087 10.2819C155.524 10.5325 155.813 10.9536 155.955 11.5452C156.305 11.605 156.559 11.7082 156.718 11.8548C156.9 12.0022 157.011 12.1822 157.05 12.3947C157.09 12.5838 157.093 12.8067 157.06 13.0635C157.052 13.2977 157.043 13.5319 157.035 13.7661C156.649 14.0334 156.161 14.2499 155.568 14.4157C155 14.5589 154.374 14.6766 153.691 14.7687C153.008 14.8373 152.291 14.8813 151.54 14.9005C150.813 14.8972 150.098 14.8943 149.394 14.8918C149.249 15.6604 149.004 16.566 148.661 17.6088C148.342 18.629 148.011 19.637 147.67 20.6329C147.329 21.6054 147.027 22.4855 146.763 23.2732C146.524 24.0384 146.412 24.5385 146.427 24.7736C146.173 25.3036 145.957 25.753 145.779 26.1217C145.625 26.4913 145.471 26.8374 145.318 27.1602C145.189 27.4837 145.048 27.8069 144.896 28.1296C144.767 28.4298 144.602 28.7755 144.4 29.1668L146.789 29.2548C146.827 29.5142 146.925 29.6937 147.086 29.7934C147.246 29.8932 147.419 29.9816 147.604 30.0588C147.789 30.136 147.949 30.2357 148.085 30.358C148.246 30.4577 148.322 30.6247 148.313 30.8589C148.754 30.9924 149.028 31.1784 149.137 31.417C149.245 31.6555 149.259 31.914 149.179 32.1925C149.122 32.4484 148.995 32.7134 148.798 32.9876C148.623 33.2626 148.45 33.5025 148.279 33.7072C148.07 33.6526 147.868 33.7038 147.675 33.8609C147.482 33.9945 147.301 34.152 147.13 34.3333C146.454 34.2146 145.787 34.1783 145.128 34.2244C144.47 34.2705 143.859 34.3066 143.295 34.3327C143.177 34.3518 143.128 34.4203 143.147 34.5383C143.167 34.6329 143.141 34.7023 143.069 34.7465C142.351 34.4855 141.605 34.3642 140.831 34.3826C140.079 34.4018 139.302 34.4904 138.499 34.6485C137.72 34.7839 136.917 34.9302 136.091 35.0874C135.263 35.268 134.427 35.3545 133.583 35.3468ZM158.27 29.4316C158.057 29.4707 157.9 29.5939 157.799 29.8013C157.698 29.9852 157.597 30.1808 157.496 30.3882C157.418 30.5964 157.328 30.7924 157.228 30.9763C157.151 31.1377 157.031 31.2154 156.867 31.2093C156.837 31.3958 156.761 31.5572 156.638 31.6934C156.54 31.8305 156.44 31.9793 156.341 32.1398C156.242 32.2768 156.165 32.4382 156.112 32.6239C156.059 32.7861 156.075 32.986 156.16 33.2237C155.967 33.3573 155.843 33.5521 155.787 33.808C155.73 34.0639 155.663 34.3077 155.584 34.5393C155.528 34.7718 155.427 34.9674 155.281 35.1262C155.134 35.285 154.874 35.3457 154.5 35.3085C154.426 35.3996 154.412 35.4577 154.458 35.4829C154.504 35.508 154.536 35.5913 154.555 35.7327C154.299 35.6763 154.099 35.6807 153.956 35.7458C153.836 35.8352 153.681 35.8881 153.493 35.9046C153.053 35.7477 152.687 35.488 152.396 35.1254C152.128 34.7637 151.884 34.3678 151.666 33.9376C151.471 33.4848 151.289 33.0324 151.118 32.5805C150.97 32.1295 150.82 31.737 150.668 31.403C150.748 31.148 150.769 30.9025 150.731 30.6665C150.693 30.4072 150.619 30.1934 150.508 30.0251C151.746 27.6316 153.094 25.0779 154.555 22.3642C156.015 19.6506 157.404 16.9694 158.721 14.3208C159.252 14.5515 159.77 14.8168 160.275 15.1169C160.804 15.3944 161.273 15.7165 161.682 16.0834C162.114 16.4511 162.473 16.8748 162.76 17.3545C163.049 17.8107 163.229 18.3216 163.302 18.8872C163.25 19.026 163.189 19.0824 163.12 19.0563C163.075 19.0078 163.028 19.0178 162.978 19.0863C163.067 19.2069 163.111 19.2906 163.11 19.3374C163.131 19.3851 163.13 19.432 163.104 19.4779C163.103 19.5248 163.1 19.595 163.097 19.6887C163.094 19.759 163.125 19.8657 163.19 20.0088C163.098 19.9819 163.027 19.9911 162.978 20.0362C162.953 20.0822 162.883 20.0796 162.767 20.0284C162.852 20.2895 162.867 20.5012 162.814 20.6634C162.785 20.8265 162.733 20.977 162.657 21.1149C162.582 21.2294 162.519 21.3678 162.466 21.53C162.414 21.6688 162.419 21.8566 162.48 22.0934C162.41 22.0909 162.351 22.1121 162.302 22.1572C162.278 22.1798 162.253 22.2141 162.228 22.26C162.204 22.2826 162.167 22.3164 162.119 22.3616C162.094 22.3841 162.047 22.3824 161.978 22.3564C162.029 22.8742 162.034 23.3904 161.991 23.9048C161.949 24.4192 161.906 24.9453 161.863 25.4832C161.844 25.9984 161.835 26.5493 161.837 27.1357C161.84 27.6987 161.9 28.2872 162.018 28.9014C162.88 28.4406 163.57 27.8328 164.091 27.078C164.635 26.3241 165.076 25.4726 165.416 24.5235C165.78 23.5753 166.063 22.5538 166.268 21.4591C166.472 20.3643 166.69 19.2465 166.919 18.1058C167.138 17.9028 167.311 17.6512 167.44 17.351C167.568 17.0508 167.685 16.7385 167.791 16.4141C167.897 16.0662 168.004 15.73 168.109 15.4056C168.216 15.0577 168.345 14.7458 168.496 14.47C168.845 14.5298 169.134 14.6577 169.361 14.8537C169.613 15.0271 169.84 15.2231 170.043 15.4417C170.247 15.6368 170.462 15.8324 170.69 16.0284C170.918 16.201 171.207 16.3172 171.556 16.3769C171.823 16.7855 172.066 17.1814 172.287 17.5648C172.507 17.9482 172.645 18.352 172.699 18.7761C172.575 18.9592 172.474 19.1665 172.395 19.3982C172.339 19.6307 172.272 19.8627 172.193 20.0943C172.114 20.326 172.013 20.545 171.888 20.7515C171.764 20.9345 171.594 21.0925 171.378 21.2252C171.285 21.8316 171.171 22.3903 171.034 22.9012C170.923 23.3896 170.799 23.8776 170.664 24.3651C170.552 24.8535 170.451 25.3658 170.361 25.9019C170.272 26.4146 170.227 26.9875 170.227 27.6208C170.02 28.1526 169.8 28.7191 169.567 29.3203C169.333 29.9215 169.149 30.4658 169.014 30.9534C168.628 31.244 168.322 31.5963 168.095 32.0101C167.869 32.4239 167.631 32.8373 167.381 33.2503C167.284 33.3405 167.225 33.3618 167.203 33.3141C167.181 33.2663 167.101 33.2282 166.961 33.1996C166.981 33.2941 166.978 33.3644 166.953 33.4104C166.928 33.4564 166.891 33.5019 166.843 33.547C166.818 33.5696 166.793 33.6156 166.767 33.685C166.765 33.7552 166.785 33.8498 166.827 33.9686C166.494 34.0971 166.194 34.2854 165.927 34.5335C165.66 34.7816 165.37 35.0055 165.058 35.2051C164.769 35.4055 164.412 35.5331 163.988 35.5878C163.587 35.6434 163.064 35.542 162.416 35.2836C161.482 34.5456 160.657 33.706 159.941 32.765C159.249 31.8248 158.692 30.7137 158.27 29.4316ZM191.032 20.1202C190.446 20.0986 189.812 20.1221 189.13 20.1908C188.448 20.236 187.777 20.2934 187.118 20.3629C186.647 20.4159 186.188 20.4576 185.741 20.4881C185.318 20.5194 184.93 20.5403 184.578 20.5508C184.395 21.06 184.214 21.5107 184.036 21.9028C183.857 22.2949 183.667 22.6749 183.466 23.0427C183.264 23.434 183.073 23.8374 182.894 24.253C182.739 24.6459 182.582 25.0741 182.424 25.5373C182.176 25.9034 181.964 26.2474 181.788 26.5693C181.636 26.8686 181.506 27.2156 181.398 27.6103C181.104 27.9513 180.879 28.3182 180.724 28.7112C180.57 29.0808 180.452 29.4048 180.372 29.6833L180.216 30.0997C180.07 30.235 179.984 30.3491 179.957 30.442C179.931 30.5114 179.87 30.5795 179.773 30.6463C179.741 30.9031 179.649 31.1577 179.499 31.4101C179.448 31.5255 179.408 31.6413 179.381 31.7576C179.354 31.8504 179.34 31.9202 179.338 31.9671C179.329 32.2013 179.265 32.3514 179.145 32.4173C179.164 32.5353 179.16 32.6641 179.131 32.8038C179.103 32.92 179.076 33.0363 179.048 33.1525C178.967 33.431 178.936 33.6526 178.953 33.8174C179.02 33.9137 179.075 33.9978 179.12 34.0698C179.187 34.1427 179.231 34.2381 179.25 34.3561C179.387 34.4549 179.49 34.5174 179.559 34.5434C179.651 34.6171 179.788 34.7043 179.972 34.8049L180.275 35.1678C180.367 35.8514 180.242 36.3862 179.899 36.7723C179.532 37.2043 178.926 37.4048 178.083 37.3737L177.662 37.3582C177.549 37.2368 177.482 37.1405 177.461 37.0694C177.276 36.9922 177.126 36.928 177.011 36.8769C176.895 36.8257 176.794 36.7282 176.705 36.5842C176.406 36.4324 176.164 36.3063 175.98 36.2057L175.67 36.0184C175.68 35.7607 175.685 35.6202 175.686 35.5968C175.53 35.3799 175.41 35.141 175.325 34.8799C175.265 34.6196 175.216 34.3598 175.178 34.1005C175.139 33.888 175.088 33.6867 175.025 33.4968C174.985 33.3077 174.92 33.1411 174.832 32.9971C174.835 31.637 175.006 30.494 175.345 29.5684C175.684 28.6428 176.034 27.7527 176.394 26.8982C176.598 26.4366 176.803 25.9751 177.007 25.5136C177.213 25.0286 177.395 24.5311 177.555 24.021L177.884 23.6814C178.062 23.3126 178.202 23.0129 178.304 22.7822C178.431 22.5288 178.557 22.2755 178.684 22.0222C178.76 21.8608 178.825 21.7107 178.877 21.5719C178.953 21.4106 179.017 21.2722 179.068 21.1568C178.927 21.1516 178.798 21.1586 178.68 21.1777C178.563 21.1734 178.445 21.1808 178.327 21.1999C178.186 21.2181 178.056 21.2368 177.938 21.2559C177.821 21.2516 177.704 21.2473 177.587 21.243C177.423 21.2369 177.306 21.2209 177.237 21.1949C176.975 21.3025 176.692 21.3507 176.387 21.3395L176.036 21.3265C175.966 21.3239 175.895 21.3214 175.825 21.3188C175.779 21.2936 175.733 21.2802 175.686 21.2785C175.452 21.2698 175.263 21.298 175.12 21.3631C174.839 21.3528 174.57 21.3429 174.312 21.3334L173.961 21.3204C173.914 21.3187 173.855 21.3282 173.784 21.3491C173.713 21.3465 173.655 21.3443 173.608 21.3426C173.444 21.3366 173.269 21.3184 173.082 21.288C172.897 21.2343 172.701 21.145 172.494 21.0201C172.227 20.635 172.047 20.429 171.954 20.4021L171.653 19.9689C171.635 19.8275 171.605 19.6974 171.562 19.5786C171.521 19.4363 171.479 19.2823 171.438 19.1167C171.353 18.879 171.269 18.6296 171.185 18.3685C171.125 18.0849 171.102 17.7557 171.115 17.3809C171.146 17.1944 171.198 17.0556 171.272 16.9645C171.345 16.8734 171.407 16.7936 171.456 16.7251L171.581 16.202L172.037 16.2539L173.02 16.2902C173.77 16.3178 174.532 16.3224 175.306 16.3041C176.082 16.2623 176.881 16.2214 177.703 16.1813C178.173 16.1517 178.644 16.1222 179.114 16.0926C179.607 16.0639 180.113 16.0356 180.63 16.0077C180.731 15.8004 180.832 15.6047 180.933 15.4208L181.29 15.2581C181.713 15.2502 182.003 15.3196 182.162 15.4661C182.345 15.5902 182.493 15.7129 182.606 15.8343C183.123 15.8064 183.64 15.7786 184.157 15.7507C184.698 15.7003 185.24 15.6382 185.782 15.5644C186.583 15.4766 187.383 15.4006 188.183 15.3362C189.006 15.2727 189.792 15.2548 190.542 15.2824C190.87 15.2945 191.186 15.3179 191.489 15.3525C191.793 15.3872 192.073 15.4327 192.328 15.489L192.671 15.7479C192.736 15.891 192.825 16.0233 192.938 16.1447C193.074 16.267 193.21 16.3893 193.346 16.5116C193.618 16.7795 193.888 17.0944 194.156 17.4561C194.424 17.8177 194.51 18.3369 194.415 19.0135C194.217 19.2877 194.071 19.4465 193.975 19.4899L193.643 19.8998L193.293 19.8517C193.153 19.8465 193.023 19.8652 192.904 19.9077C192.786 19.9268 192.668 19.9577 192.549 20.0002C192.454 20.0436 192.358 20.087 192.263 20.1304C192.168 20.1503 192.062 20.1699 191.944 20.189C191.733 20.1812 191.558 20.1747 191.417 20.1696C191.301 20.1418 191.173 20.1254 191.032 20.1202ZM207.282 17.8343C207.3 17.9991 207.295 18.1279 207.268 18.2207C207.265 18.291 207.251 18.3608 207.225 18.4302C207.222 18.5005 207.219 18.5825 207.216 18.6762C207.213 18.7464 207.233 18.8644 207.273 19.0301C206.752 19.8083 206.158 20.3375 205.491 20.6179C204.848 20.8756 204.15 21.0609 203.395 21.1739C202.641 21.2633 201.863 21.3637 201.062 21.4749C200.284 21.5869 199.5 21.8629 198.71 22.3028C198.409 22.1745 198.128 22.1642 197.866 22.2718C197.628 22.3802 197.275 22.4024 196.808 22.3383C196.663 22.4737 196.483 22.5726 196.27 22.6351C196.057 22.6742 195.844 22.725 195.631 22.7875C195.717 23.0017 195.744 23.2255 195.712 23.4589C195.704 23.6696 195.733 23.8466 195.798 23.9897C196.615 24.0902 197.517 24.1117 198.504 24.0543C199.515 23.9977 200.501 23.9754 201.462 23.9874C201.481 24.1054 201.466 24.1869 201.418 24.232C201.37 24.2537 201.356 24.3118 201.376 24.4064C201.536 24.5295 201.694 24.6878 201.851 24.8812C202.009 25.0512 202.167 25.2212 202.325 25.3912C202.483 25.5612 202.641 25.7078 202.801 25.8309C202.985 25.9315 203.195 25.9744 203.43 25.9596C203.516 26.1505 203.567 26.3634 203.582 26.5985C203.621 26.811 203.589 27.0326 203.487 27.2634C203.103 27.5072 202.718 27.7628 202.333 28.03C201.949 28.2739 201.542 28.4934 201.113 28.6887C200.707 28.8848 200.267 29.0445 199.793 29.1677C199.344 29.2684 198.839 29.2967 198.277 29.2526C198.16 29.2483 198.067 29.2448 197.996 29.2422C197.95 29.2405 197.881 29.2028 197.79 29.1291C197.598 29.2393 197.327 29.2645 196.978 29.2047C196.651 29.1458 196.392 29.1714 196.201 29.2816C195.947 29.155 195.633 29.0965 195.257 29.1061C194.906 29.0932 194.592 29.0347 194.314 28.9306C193.921 29.4087 193.562 29.9231 193.237 30.474C192.912 31.0249 192.62 31.6123 192.363 32.236C193.155 32.3825 193.809 32.4535 194.325 32.449C194.865 32.4455 195.369 32.4289 195.84 32.3993C196.311 32.3463 196.793 32.3055 197.287 32.2767C197.781 32.2246 198.403 32.2241 199.151 32.2751C199.629 32.0347 200.186 31.8911 200.82 31.8441C201.48 31.7746 202.082 31.6561 202.628 31.4885C202.813 31.5657 202.972 31.7006 203.105 31.8931C203.24 32.0622 203.363 32.2309 203.474 32.3992C203.609 32.5449 203.745 32.6789 203.881 32.8012C204.017 32.9235 204.191 32.9768 204.403 32.9612C204.493 33.0583 204.547 33.1776 204.566 33.319C204.608 33.4378 204.639 33.5562 204.658 33.6742C204.677 33.7921 204.708 33.8988 204.752 33.9942C204.819 34.0671 204.924 34.0944 205.065 34.0762C204.686 34.8361 204.254 35.4183 203.77 35.8226C203.31 36.2044 202.784 36.4899 202.19 36.6791C201.597 36.8683 200.935 37.0081 200.205 37.0984C199.498 37.1896 198.708 37.3012 197.835 37.4333C197.623 37.4723 197.448 37.4541 197.31 37.3787C197.171 37.3267 197.008 37.2972 196.82 37.2903C196.277 37.3876 195.629 37.4692 194.876 37.5353C194.123 37.6014 193.361 37.6084 192.589 37.5565C191.817 37.5046 191.083 37.372 190.387 37.1588C189.691 36.9689 189.128 36.6433 188.699 36.1819C188.518 36.011 188.396 35.8189 188.334 35.6055C188.295 35.3696 188.15 35.1883 187.896 35.0617C187.884 34.7564 187.85 34.415 187.793 34.0377C187.737 33.6604 187.681 33.2713 187.625 32.8706C187.571 32.4464 187.527 32.0343 187.495 31.6344C187.486 31.2354 187.523 30.8732 187.605 30.5479C187.689 30.1992 187.841 29.8882 188.062 29.6149C188.306 29.3425 188.4 29.041 188.341 28.7105C188.459 28.6914 188.532 28.6354 188.559 28.5426C188.586 28.4264 188.682 28.383 188.845 28.4124C189.001 27.996 189.168 27.6035 189.346 27.2348C189.523 26.8661 189.701 26.5091 189.878 26.1638C190.078 25.8194 190.267 25.4745 190.444 25.1292C190.645 24.7614 190.836 24.358 191.016 23.919C190.699 23.6025 190.465 23.2655 190.314 22.9081C190.188 22.5282 190.096 22.1613 190.038 21.8074C189.982 21.43 189.937 21.0531 189.904 20.6767C189.872 20.2768 189.805 19.8756 189.702 19.4731C189.949 19.1304 190.241 18.8597 190.576 18.661C190.936 18.4397 191.318 18.2662 191.721 18.1403C192.125 18.0145 192.562 17.9133 193.034 17.8369C193.506 17.7605 194.002 17.6732 194.521 17.5751C195.469 17.3051 196.31 17.1016 197.042 16.9644C197.797 16.828 198.528 16.726 199.234 16.6582C199.965 16.5678 200.718 16.4901 201.494 16.4249C202.271 16.3597 203.154 16.2515 204.145 16.1004C204.348 16.3189 204.543 16.4317 204.73 16.4386C204.832 16.2312 204.939 16.1766 205.053 16.2746C205.191 16.35 205.252 16.2819 205.236 16.0702C205.456 16.477 205.736 16.8274 206.077 17.1215C206.442 17.3929 206.844 17.6305 207.282 17.8343ZM230.133 32.1504C229.533 33.1368 228.767 33.8942 227.832 34.4227C226.899 34.9277 225.875 35.3473 224.761 35.6815C223.647 35.9922 222.476 36.2657 221.247 36.5019C220.043 36.7389 218.87 37.0592 217.729 37.4628C217.401 37.4507 217.108 37.4516 216.85 37.4656C216.615 37.4804 216.379 37.5069 216.143 37.5451C215.931 37.5607 215.719 37.5881 215.507 37.6272C215.295 37.6428 215.06 37.6576 214.802 37.6715C214.709 37.6447 214.649 37.6659 214.623 37.7353C214.598 37.7813 214.561 37.8269 214.513 37.872C214.112 37.9276 213.748 37.9493 213.42 37.9372C213.115 37.926 212.858 37.9165 212.647 37.9088C212.366 37.8984 212.072 37.9227 211.765 37.9818C211.48 38.0651 211.221 38.0907 210.988 38.0587C209.235 37.9003 207.876 37.2287 206.911 36.0439C205.97 34.8366 205.479 33.2002 205.438 31.1348C205.466 31.0185 205.445 30.9474 205.376 30.9214C205.33 30.8962 205.284 30.8594 205.239 30.8108C205.248 30.5766 205.279 30.3784 205.331 30.2162C205.408 30.0548 205.427 29.8444 205.39 29.5851C206.046 28.3193 206.781 27.1503 207.595 26.0779C208.409 24.9822 209.371 24.0326 210.479 23.2291C210.648 23.0946 210.794 22.9593 210.916 22.8231C211.038 22.6868 211.149 22.5502 211.248 22.4131C211.37 22.2769 211.503 22.1645 211.647 22.076C211.792 21.9641 211.971 21.8886 212.183 21.8495C212.696 21.3055 213.3 20.8118 213.997 20.3684C214.693 19.925 215.424 19.5064 216.189 19.1124C216.955 18.695 217.709 18.2889 218.45 17.8941C219.216 17.4767 219.914 17.0099 220.542 16.4936C220.796 16.6202 220.982 16.6622 221.101 16.6197C221.22 16.5772 221.348 16.5819 221.487 16.634C221.638 16.9913 221.852 17.2454 222.127 17.3963C222.427 17.5481 222.714 17.7111 222.989 17.8854C223.288 18.0372 223.563 18.2232 223.813 18.4435C224.063 18.6638 224.251 18.9522 224.379 19.3087C224.238 19.3035 224.166 19.3595 224.162 19.4766C224.182 19.5711 224.213 19.6778 224.255 19.7966C224.299 19.8921 224.307 19.9979 224.279 20.1141C224.275 20.2078 224.192 20.2516 224.028 20.2456C224.047 20.3636 224.115 20.4364 224.231 20.4642C224.371 20.4693 224.439 20.5305 224.435 20.6476C224.431 20.7647 224.392 20.8571 224.319 20.9248C224.27 20.9933 224.266 21.1104 224.306 21.2761C223.827 21.5633 223.289 21.8367 222.693 22.0961C222.121 22.3565 221.512 22.6389 220.868 22.9435C220.247 23.2256 219.591 23.5415 218.898 23.8912C218.229 24.2183 217.57 24.6045 216.92 25.0496C216.271 25.4947 215.607 25.998 214.93 26.5593C214.253 27.0973 213.599 27.6712 212.967 28.2812C212.334 28.8911 211.736 29.5258 211.173 30.1852C210.61 30.8211 210.129 31.4601 209.73 32.1021C209.772 32.2209 209.816 32.3163 209.86 32.3883C209.929 32.4377 209.984 32.5219 210.027 32.6407C210.774 32.7152 211.465 32.7406 212.099 32.7171C212.758 32.671 213.412 32.7303 214.063 32.895C214.135 32.8507 214.184 32.7822 214.211 32.6894C214.238 32.5966 214.299 32.5285 214.395 32.4851C215.735 32.3937 216.984 32.2287 218.142 31.9899C219.301 31.7277 220.484 31.4547 221.69 31.1708C221.505 31.0937 221.332 31.0286 221.17 30.9757C221.032 30.9003 220.893 30.8366 220.755 30.7845C220.642 30.6631 220.645 30.5694 220.765 30.5035C220.909 30.415 221.029 30.3256 221.127 30.2354C220.806 30.0359 220.545 29.7918 220.344 29.5029C220.167 29.215 220.064 28.8359 220.035 28.3658C220.179 28.2538 220.255 28.1159 220.261 27.9519C220.267 27.788 220.201 27.6566 220.064 27.5577C219.972 27.5308 219.913 27.5287 219.889 27.5512C219.864 27.5738 219.84 27.6081 219.815 27.654C219.813 27.7009 219.799 27.7473 219.774 27.7933C219.75 27.8158 219.692 27.802 219.6 27.7517C219.631 27.5417 219.684 27.3678 219.76 27.2299C219.859 27.0928 219.935 26.9314 219.989 26.7458L222.472 25.219C222.723 25.4159 223.032 25.6383 223.398 25.8864C223.765 26.111 224.143 26.3477 224.532 26.5966C224.946 26.8229 225.36 27.061 225.773 27.3107C226.21 27.5379 226.612 27.7638 226.979 27.9884C227.302 28.1411 227.588 28.3392 227.837 28.5829C228.086 28.8266 228.322 29.0816 228.547 29.3479C228.773 29.5907 228.998 29.8336 229.224 30.0764C229.473 30.3202 229.758 30.53 230.08 30.7061C230.022 31.0088 230.025 31.2552 230.088 31.4451C230.152 31.6351 230.166 31.8702 230.133 32.1504ZM233.531 34.9493C233.238 35.8767 232.978 36.5824 232.749 37.0665C232.544 37.528 232.233 38.0091 231.816 38.5097C231.513 38.4516 231.301 38.479 231.18 38.5918C231.058 38.7045 230.926 38.8052 230.782 38.8937C230.569 38.9328 230.417 38.9272 230.325 38.8769C230.233 38.8266 230.153 38.765 230.086 38.6921C230.017 38.6427 229.926 38.5807 229.811 38.5061C229.719 38.4558 229.568 38.4268 229.357 38.419C229.317 38.2299 229.265 38.0521 229.201 37.8856C229.16 37.7199 229.01 37.6557 228.75 37.6931C228.804 37.5074 228.821 37.3556 228.802 37.2377C228.784 37.0963 228.753 36.9779 228.71 36.8824C228.691 36.7645 228.671 36.6582 228.651 36.5637C228.632 36.4457 228.649 36.3056 228.702 36.1434C228.585 36.1391 228.494 36.0536 228.43 35.8871C228.366 35.7205 228.29 35.5536 228.202 35.3862C228.288 34.9672 228.373 34.5716 228.457 34.1994C228.541 33.8273 228.636 33.479 228.742 33.1545C228.871 32.8309 228.977 32.5065 229.059 32.1812C229.141 31.8559 229.119 31.515 228.991 31.1585C229.082 31.2322 229.153 31.223 229.203 31.1311C229.254 31.0157 229.295 30.8765 229.324 30.7134C229.355 30.5269 229.373 30.3516 229.379 30.1877C229.386 30.0003 229.38 29.8476 229.361 29.7297C229.617 29.1293 229.827 28.5156 229.991 27.8884C230.179 27.2386 230.344 26.5997 230.484 25.9716C230.648 25.3444 230.811 24.7289 230.974 24.1251C231.137 23.5214 231.345 22.9662 231.599 22.4595C231.858 22.4222 232.138 22.4677 232.438 22.596C232.762 22.7018 232.957 22.8379 233.021 23.0044C233.647 22.5585 234.206 22.0162 234.699 21.3777C235.193 20.7157 235.697 20.0776 236.212 19.4633C236.727 18.8491 237.287 18.3068 237.89 17.8365C238.517 17.3671 239.289 17.1024 240.206 17.0424C240.662 17.411 241.164 17.793 241.712 18.1884C242.285 18.5613 242.747 19.0475 243.101 19.6468C243.284 19.7474 243.433 19.8584 243.546 19.9798C243.683 20.0787 243.843 20.1902 244.026 20.3142L244.01 20.7358C244.282 21.0038 244.493 21.3164 244.644 21.6738C244.819 22.0086 244.97 22.3777 245.096 22.781C245.223 23.161 245.349 23.5526 245.475 23.9559C245.601 24.3359 245.752 24.7049 245.926 25.0632C245.875 25.1785 245.848 25.2831 245.845 25.3768C245.842 25.447 245.851 25.5294 245.871 25.624C245.914 25.7194 245.946 25.8144 245.966 25.9089C245.986 26.0035 245.981 26.1323 245.951 26.2954C245.843 27.3233 245.473 28.1423 244.841 28.7522C244.232 29.363 243.498 29.8637 242.639 30.2542C241.781 30.6213 240.867 30.9277 239.897 31.1734C238.926 31.419 238.048 31.6916 237.263 31.991C237.26 32.0847 237.293 32.1328 237.363 32.1354C237.457 32.1389 237.49 32.1987 237.462 32.315C238.011 32.687 238.446 32.9845 238.766 33.2073C239.086 33.4302 239.384 33.6171 239.66 33.768C239.959 33.9197 240.271 34.0602 240.595 34.1894C240.942 34.296 241.418 34.4308 242.022 34.5938C242.626 34.7568 243.09 34.8911 243.414 34.9969C243.763 35.0801 244.077 35.162 244.355 35.2427C244.634 35.2999 244.914 35.3571 245.193 35.4143C245.497 35.4489 245.917 35.4996 246.454 35.5663C246.657 35.7848 246.823 36.049 246.953 36.3586C247.106 36.6457 247.201 36.9424 247.236 37.2486C247.273 37.5314 247.274 37.8129 247.24 38.0931C247.208 38.3498 247.118 38.5576 246.971 38.7164C246.992 38.7875 247.038 38.8244 247.108 38.8269C247.202 38.807 247.296 38.8104 247.389 38.8373C247.245 38.9258 247.123 39.0386 247.025 39.1757C246.926 39.3128 246.827 39.4498 246.728 39.5869C246.629 39.724 246.519 39.8372 246.399 39.9266C246.277 40.0394 246.111 40.1036 245.899 40.1193C245.163 40.3736 244.249 40.3516 243.158 40.0534C242.065 39.7786 240.688 39.2822 239.026 38.5643C238.195 38.2053 237.514 37.8988 236.984 37.6447C236.479 37.3681 236.031 37.1053 235.641 36.8564C235.276 36.585 234.935 36.3027 234.617 36.0096C234.323 35.7173 233.961 35.3639 233.531 34.9493ZM238.999 23.084C238.727 23.4493 238.422 23.7781 238.083 24.0705C237.767 24.3638 237.451 24.6687 237.134 24.9854C236.842 25.2795 236.571 25.6214 236.323 26.0109C236.074 26.377 235.894 26.816 235.781 27.3278C236.605 27.2643 237.468 27.0733 238.371 26.7548C239.275 26.4129 240.131 26.0926 240.939 25.794C240.872 25.0645 240.636 24.4695 240.231 24.0089C239.849 23.5493 239.438 23.241 238.999 23.084ZM265.177 36.8192C265.022 37.2122 264.796 37.6143 264.499 38.0255C264.227 38.4142 263.898 38.7656 263.511 39.0796C263.148 39.3712 262.741 39.6141 262.288 39.8085C261.835 40.0029 261.362 40.1028 260.87 40.1081C260.568 40.0266 260.36 39.9368 260.246 39.8388C260.155 39.7651 260.052 39.691 259.938 39.6164C259.869 39.567 259.8 39.5292 259.731 39.5032C259.686 39.4547 259.64 39.4178 259.594 39.3927L259.179 39.2015L259.336 38.7499C259.39 38.5643 259.384 38.4233 259.317 38.327C259.251 38.2073 259.116 38.0499 258.912 37.8548C258.844 37.7819 258.777 37.7091 258.709 37.6362C258.641 37.5634 258.585 37.4909 258.541 37.4189L257.969 36.7294L258.926 36.5184C259.518 36.3761 259.912 36.1795 260.109 35.9288C260.329 35.6789 260.427 35.2486 260.403 34.638C259.938 34.527 259.54 34.5006 259.209 34.5588C258.902 34.6178 258.583 34.6882 258.252 34.7698C257.826 34.8713 257.389 34.9608 256.94 35.0381C256.516 35.0928 256.046 35.1106 255.531 35.0917C255.344 35.0848 255.168 35.0783 255.004 35.0722C254.841 35.0428 254.666 35.0129 254.48 34.9826L254.131 34.8993C254.094 34.64 254.052 34.4977 254.006 34.4726C253.961 34.424 253.916 34.3754 253.871 34.3269C253.758 34.2054 253.635 34.0485 253.501 33.8559C253.392 33.6408 253.378 33.3823 253.459 33.0804C253.35 32.8653 253.287 32.6519 253.272 32.4402C253.121 32.7161 253.005 33.005 252.923 33.3069L252.77 33.653L252.416 33.7104C252.368 33.7321 252.331 33.7893 252.304 33.8821C252.278 33.9515 252.264 34.0097 252.262 34.0565L252.065 34.6473C252.016 34.6924 251.968 34.7375 251.919 34.7826C251.871 34.8043 251.823 34.8377 251.775 34.8829C251.72 35.0919 251.654 35.3006 251.576 35.5088C251.498 35.717 251.42 35.9135 251.343 36.0982C251.214 36.3984 251.098 36.699 250.993 37C250.912 37.2785 250.879 37.5587 250.892 37.8406L250.737 38.2219C250.615 38.3581 250.481 38.4705 250.337 38.559C250.194 38.6241 250.051 38.6892 249.908 38.7542C249.859 38.7994 249.787 38.8436 249.692 38.887C249.621 38.9078 249.562 38.9291 249.514 38.9508L249.394 39.3334L248.97 39.3881C248.711 39.4254 248.522 39.4537 248.404 39.4728C248.309 39.4927 248.192 39.5001 248.051 39.495L247.701 39.4469C247.451 39.2266 247.258 39.0553 247.122 38.933C246.987 38.7873 246.828 38.6524 246.645 38.5284C246.444 38.2396 246.335 38.0245 246.317 37.8831C246.298 37.7417 246.28 37.612 246.261 37.4941C246.219 37.3518 246.2 37.2338 246.203 37.1401C246.183 37.0456 246.151 36.974 246.106 36.9255L245.664 36.487L246.063 36.1851L246.12 35.5891C246.632 34.4119 247.166 33.2824 247.722 32.2005C248.301 31.1196 248.893 30.0156 249.498 28.8887C249.699 28.5208 249.888 28.1526 250.066 27.7839C250.267 27.416 250.468 27.0482 250.67 26.6804C250.649 26.6092 250.64 26.5268 250.644 26.4331C250.647 26.3394 250.674 26.2349 250.725 26.1195C250.998 25.7309 251.222 25.3873 251.397 25.0889C251.573 24.767 251.749 24.4451 251.925 24.1233C252.127 23.732 252.328 23.3525 252.53 22.9846C252.754 22.6177 253.026 22.2407 253.345 21.8537L253.916 21.6285C253.988 21.6077 254.07 21.5873 254.165 21.5673C254.26 21.5239 254.367 21.5044 254.484 21.5087L255.008 21.5984C255.675 21.3181 256.265 20.9177 256.776 20.3971C257.289 19.8531 257.817 19.2041 258.361 18.4502L258.73 17.9713L259.177 18.2692C259.291 18.3438 259.452 18.4201 259.661 18.4981C259.87 18.5527 260.09 18.6195 260.322 18.6984C260.74 18.8076 261.134 18.9277 261.505 19.0586C261.875 19.1895 262.173 19.3764 262.399 19.6192C262.525 19.9992 262.597 20.2832 262.613 20.4715C262.63 20.6597 262.658 20.8484 262.698 21.0375C262.754 21.4382 262.798 21.8386 262.83 22.2385C262.885 22.6392 262.916 23.0859 262.921 23.5787C263.024 23.9811 263.103 24.3828 263.158 24.7835C263.238 25.1617 263.306 25.5512 263.361 25.952C263.458 26.5184 263.555 27.0731 263.652 27.6161C263.75 28.1357 263.884 28.6332 264.054 29.1085C264.241 29.1154 264.358 29.1315 264.404 29.1566C264.523 29.1141 264.641 29.0833 264.759 29.0641C264.901 29.0459 265.054 29.0281 265.219 29.0107L265.606 28.9898L265.734 29.3463C265.753 29.4643 265.866 29.5857 266.072 29.7106C266.376 29.7452 266.596 29.8237 266.732 29.946C266.869 30.0449 266.994 30.155 267.107 30.2764C267.197 30.3736 267.288 30.4473 267.38 30.4976L267.899 30.7278L267.599 31.2444C267.349 31.6574 266.994 32.0547 266.535 32.4365C266.099 32.7957 265.608 33.0942 265.059 33.332C265.078 33.4734 265.084 33.6144 265.079 33.7549C265.098 33.8729 265.129 34.003 265.17 34.1452C265.226 34.546 265.269 34.958 265.301 35.3813C265.332 35.8046 265.316 36.2379 265.253 36.6812L265.177 36.8192ZM255.248 30.3671C255.952 30.3461 256.586 30.3226 257.15 30.2965C257.738 30.2478 258.386 30.1661 259.094 30.0515C258.956 29.3428 258.807 28.6103 258.647 27.8539C258.489 27.074 258.318 26.3055 258.134 25.5482L257.911 25.8918C257.424 26.3664 256.947 26.9 256.48 27.4925C256.036 28.086 255.651 28.6464 255.327 29.1739C255.179 29.3795 255.03 29.5851 254.882 29.7907C254.734 29.9963 254.597 30.2024 254.472 30.4089C254.614 30.3906 254.743 30.3837 254.86 30.388C255.001 30.3932 255.13 30.3862 255.248 30.3671ZM285.489 23.6012C284.903 23.5796 284.269 23.6032 283.587 23.6718C282.905 23.7171 282.234 23.7744 281.575 23.844C281.104 23.897 280.645 23.9387 280.198 23.9691C279.775 24.0004 279.387 24.0213 279.035 24.0318C278.852 24.541 278.671 24.9917 278.493 25.3838C278.314 25.776 278.124 26.1559 277.923 26.5238C277.721 26.915 277.53 27.3185 277.351 27.734C277.196 28.127 277.039 28.5551 276.881 29.0184C276.633 29.3845 276.421 29.7285 276.245 30.0503C276.093 30.3496 275.963 30.6966 275.855 31.0913C275.561 31.4323 275.336 31.7993 275.181 32.1923C275.027 32.5618 274.909 32.8859 274.829 33.1643L274.673 33.5807C274.527 33.7161 274.441 33.8302 274.414 33.923C274.388 33.9924 274.327 34.0605 274.23 34.1273C274.198 34.3841 274.106 34.6387 273.956 34.8912C273.905 35.0066 273.865 35.1224 273.838 35.2386C273.811 35.3314 273.796 35.4013 273.795 35.4481C273.786 35.6823 273.722 35.8324 273.602 35.8984C273.621 36.0163 273.617 36.1452 273.588 36.2848C273.56 36.4011 273.533 36.5173 273.505 36.6336C273.424 36.912 273.393 37.1337 273.41 37.2985C273.477 37.3948 273.532 37.4789 273.577 37.5509C273.644 37.6237 273.688 37.7191 273.707 37.8371C273.844 37.936 273.947 37.9984 274.016 38.0244C274.108 38.0981 274.245 38.1853 274.429 38.2859L274.732 38.6489C274.824 39.3324 274.699 39.8672 274.356 40.2533C273.989 40.6854 273.383 40.8859 272.54 40.8548L272.119 40.8393C272.006 40.7178 271.939 40.6216 271.918 40.5504C271.733 40.4733 271.583 40.4091 271.468 40.3579C271.352 40.3068 271.251 40.2092 271.162 40.0652C270.863 39.9135 270.621 39.7873 270.437 39.6867L270.127 39.4994C270.137 39.2418 270.142 39.1012 270.143 39.0778C269.987 38.861 269.867 38.622 269.782 38.3609C269.722 38.1007 269.673 37.8409 269.635 37.5815C269.596 37.369 269.545 37.1678 269.482 36.9778C269.442 36.7887 269.377 36.6222 269.289 36.4782C269.292 35.118 269.463 33.9751 269.802 33.0494C270.141 32.1238 270.491 31.2337 270.851 30.3792C271.055 29.9177 271.26 29.4562 271.464 28.9946C271.67 28.5097 271.852 28.0122 272.012 27.5021L272.341 27.1624C272.519 26.7937 272.659 26.494 272.761 26.2632C272.888 26.0099 273.014 25.7566 273.141 25.5032C273.217 25.3419 273.282 25.1918 273.334 25.053C273.41 24.8916 273.474 24.7532 273.525 24.6379C273.384 24.6327 273.255 24.6397 273.137 24.6588C273.02 24.6544 272.902 24.6618 272.784 24.6809C272.643 24.6992 272.513 24.7179 272.395 24.737C272.278 24.7326 272.161 24.7283 272.044 24.724C271.88 24.718 271.763 24.7019 271.694 24.6759C271.432 24.7836 271.149 24.8317 270.844 24.8205L270.493 24.8076C270.423 24.805 270.352 24.8024 270.282 24.7998C270.236 24.7747 270.19 24.7612 270.143 24.7595C269.909 24.7509 269.72 24.7791 269.577 24.8442C269.296 24.8338 269.027 24.8239 268.769 24.8144L268.418 24.8015C268.371 24.7997 268.312 24.8093 268.241 24.8301C268.17 24.8275 268.112 24.8254 268.065 24.8236C267.901 24.8176 267.726 24.7994 267.539 24.7691C267.354 24.7153 267.158 24.626 266.951 24.5011C266.684 24.116 266.504 23.9101 266.411 23.8832L266.11 23.4499C266.092 23.3085 266.062 23.1784 266.019 23.0596C265.978 22.9173 265.936 22.7634 265.895 22.5977C265.81 22.36 265.726 22.1107 265.642 21.8496C265.582 21.5659 265.559 21.2367 265.572 20.862C265.603 20.6755 265.655 20.5367 265.729 20.4456C265.802 20.3545 265.864 20.2746 265.913 20.2061L266.038 19.683L266.493 19.735L267.477 19.7712C268.227 19.7988 268.989 19.8035 269.763 19.7851C270.539 19.7433 271.338 19.7024 272.16 19.6624C272.63 19.6328 273.1 19.6032 273.571 19.5736C274.064 19.5449 274.57 19.5166 275.087 19.4888C275.188 19.2814 275.289 19.0858 275.39 18.9019L275.747 18.7392C276.17 18.7313 276.46 18.8006 276.619 18.9472C276.802 19.0712 276.95 19.1939 277.063 19.3153C277.58 19.2875 278.097 19.2596 278.614 19.2318C279.155 19.1814 279.697 19.1192 280.239 19.0454C281.04 18.9577 281.84 18.8816 282.64 18.8173C283.463 18.7538 284.249 18.7359 284.999 18.7635C285.327 18.7756 285.643 18.7989 285.946 18.8336C286.25 18.8682 286.53 18.9137 286.785 18.97L287.128 19.2289C287.193 19.372 287.282 19.5043 287.395 19.6257C287.531 19.748 287.667 19.8703 287.803 19.9926C288.075 20.2606 288.345 20.5754 288.613 20.9371C288.881 21.2988 288.967 21.818 288.872 22.4946C288.674 22.7687 288.528 22.9275 288.432 22.9709L288.1 23.3808L287.75 23.3328C287.61 23.3276 287.48 23.3463 287.361 23.3888C287.243 23.4079 287.125 23.4387 287.006 23.4812C286.911 23.5246 286.815 23.568 286.72 23.6114C286.625 23.6314 286.519 23.6509 286.401 23.67C286.19 23.6623 286.015 23.6558 285.874 23.6506C285.758 23.6229 285.63 23.6064 285.489 23.6012ZM288.945 38.1876C289.036 38.8946 288.969 39.4433 288.744 39.8337C288.542 40.2249 288.25 40.5073 287.868 40.6809C287.509 40.8787 287.095 40.9807 286.626 40.9869C286.156 40.9931 285.712 40.9532 285.293 40.8674C285.071 40.5309 284.875 40.1133 284.706 39.6145C284.537 39.1157 284.38 38.6057 284.235 38.0844C284.091 37.5396 283.958 37.0071 283.836 36.4866C283.738 35.967 283.65 35.5064 283.571 35.1048C283.698 34.828 283.78 34.5144 283.816 34.164C283.877 33.791 283.914 33.4171 283.928 33.0423C283.965 32.6684 283.991 32.2941 284.005 31.9194C284.043 31.5221 284.092 31.1486 284.151 30.799C284.352 29.8214 284.62 28.8931 284.958 28.0143C285.318 27.1364 285.61 26.2207 285.833 25.2674C285.887 25.0583 285.871 24.8583 285.785 24.6675C285.721 24.4776 285.716 24.3015 285.769 24.1392C285.796 24.0464 285.868 23.9905 285.986 23.9713C286.105 23.9288 286.178 23.8494 286.206 23.7332C286.286 23.4781 286.305 23.2678 286.264 23.1021C286.247 22.9373 286.301 22.7399 286.427 22.51C286.551 22.327 286.701 22.0628 286.878 21.7175C287.08 21.3497 287.164 20.9658 287.132 20.5659C287.348 20.4332 287.553 20.2765 287.747 20.0961C287.942 19.9156 288.135 19.7586 288.328 19.6249C288.544 19.4688 288.772 19.3364 289.011 19.228C289.273 19.1203 289.579 19.073 289.93 19.086C290.109 19.3271 290.217 19.589 290.253 19.8718C290.313 20.1555 290.361 20.4387 290.398 20.7215C290.458 21.0051 290.542 21.2779 290.649 21.5399C290.758 21.7784 290.95 21.9731 291.226 22.124C291.219 22.3114 291.21 22.5456 291.2 22.8266C291.189 23.1077 291.191 23.3892 291.204 23.6711C291.218 23.9296 291.256 24.1773 291.317 24.4141C291.403 24.6283 291.538 24.774 291.723 24.8512C291.26 25.9599 290.821 27.0578 290.406 28.1448C290.014 29.2326 289.68 30.3344 289.404 31.45C289.13 32.5421 288.936 33.6491 288.825 34.7707C288.736 35.8932 288.777 37.0322 288.945 38.1876ZM312.378 30.9598C312.344 31.24 312.358 31.5102 312.419 31.7704C312.48 32.0306 312.552 32.2913 312.636 32.5524C312.745 32.7909 312.841 33.0407 312.925 33.3018C313.009 33.5629 313.07 33.8231 313.108 34.0825C313.142 34.4121 313.129 34.7752 313.067 35.1716C313.007 35.5446 312.911 35.9164 312.78 36.2868C312.65 36.6338 312.486 36.9561 312.287 37.2537C312.089 37.5278 311.859 37.7304 311.596 37.8614C311.253 38.2709 310.843 38.5842 310.365 38.8011C309.888 39.0181 309.445 39.2832 309.034 39.5964C308.771 39.7509 308.474 39.8572 308.143 39.9154C307.836 39.9744 307.517 40.033 307.187 40.0912C306.924 40.2222 306.614 40.3632 306.257 40.5142C305.9 40.6418 305.532 40.769 305.152 40.8957C304.773 40.999 304.395 41.0789 304.017 41.1353C303.641 41.1684 303.313 41.168 303.032 41.1342C302.32 41.366 301.623 41.5044 300.941 41.5497C300.282 41.6192 299.511 41.5439 298.628 41.3237C297.78 41.4097 296.997 41.3457 296.278 41.1315C295.582 40.9183 294.961 40.6022 294.413 40.1833C293.89 39.7419 293.428 39.2323 293.027 38.6547C292.65 38.0545 292.345 37.4334 292.111 36.7915C291.973 35.4496 292.064 34.2451 292.385 33.1781C292.706 32.0876 293.141 31.0952 293.69 30.2007C294.264 29.2837 294.904 28.4513 295.612 27.7034C296.32 26.9321 297.005 26.1833 297.665 25.4571C297.803 25.5092 297.909 25.513 297.981 25.4688C298.077 25.402 298.162 25.323 298.236 25.2319C298.31 25.1174 298.385 25.0146 298.458 24.9235C298.555 24.8333 298.663 24.7786 298.781 24.7595C298.958 24.4142 299.202 24.1652 299.512 24.0125C299.847 23.8372 300.114 23.589 300.314 23.2681C300.526 23.229 300.704 23.1652 300.848 23.0767C300.992 22.9882 301.125 22.8875 301.246 22.7747C301.391 22.6628 301.536 22.5626 301.68 22.4741C301.824 22.3621 301.991 22.2862 302.181 22.2463L302.195 21.8598C302.623 21.688 302.936 21.4884 303.132 21.2611C303.352 21.0112 303.609 20.7158 303.903 20.3748C304.115 20.3592 304.279 20.3535 304.396 20.3578C304.537 20.363 304.737 20.3469 304.996 20.3096C305.195 19.9886 305.368 19.7487 305.515 19.5899C305.685 19.432 305.926 19.265 306.237 19.0888C306.513 19.2397 306.814 19.3446 307.14 19.4036C307.49 19.4634 307.789 19.6268 308.037 19.8939C308.052 20.129 308.115 20.319 308.227 20.4638C308.34 20.5853 308.464 20.7071 308.6 20.8294C308.737 20.9283 308.862 21.0384 308.975 21.1598C309.111 21.2821 309.199 21.4495 309.238 21.662C309.331 21.6889 309.39 21.6794 309.415 21.6334C309.464 21.5883 309.534 21.5791 309.627 21.606C309.685 21.9365 309.759 22.162 309.848 22.2826C309.939 22.3797 310.025 22.5823 310.108 22.8902C309.982 23.1201 309.879 23.3626 309.799 23.6176C309.744 23.8501 309.597 24.0206 309.358 24.1291C309.329 24.2922 309.372 24.3876 309.488 24.4153C309.606 24.4196 309.674 24.4808 309.693 24.5987C309.708 24.8104 309.668 24.9614 309.571 25.0516C310.099 25.9857 310.567 26.9763 310.974 28.0232C311.382 29.0468 311.85 30.0256 312.378 30.9598ZM307.864 34.1355C307.967 33.8813 308.092 33.6749 308.238 33.5161C308.408 33.3582 308.511 33.1157 308.547 32.7887C308.436 32.597 308.371 32.4538 308.351 32.3593C308.332 32.2413 308.327 32.0652 308.336 31.831C307.847 31.086 307.431 30.2966 307.086 29.4631C306.742 28.6061 306.35 27.8059 305.908 27.0626C305.858 27.1546 305.772 27.2452 305.652 27.3346C305.531 27.424 305.403 27.3958 305.268 27.2501C305.214 27.4357 305.127 27.5732 305.006 27.6626C304.887 27.7286 304.757 27.7589 304.616 27.7538C304.476 27.7252 304.325 27.6844 304.163 27.6315C304.025 27.5561 303.899 27.4694 303.786 27.3714C303.087 27.885 302.388 28.387 301.69 28.8772C300.992 29.3675 300.361 29.9423 299.797 30.6017C299.702 30.6451 299.642 30.6663 299.619 30.6655C299.596 30.6412 299.525 30.6503 299.407 30.6928C299.203 31.1309 298.954 31.5322 298.659 31.8966C298.388 32.2384 298.117 32.5919 297.846 32.9572C297.574 33.3224 297.337 33.7124 297.134 34.1271C296.931 34.5418 296.808 35.0297 296.764 35.591C297.15 35.9336 297.611 36.1499 298.147 36.24C298.683 36.3301 299.233 36.3621 299.797 36.336C300.384 36.3107 300.949 36.2612 301.491 36.1874C302.057 36.091 302.575 36.0514 303.043 36.0687C304.035 35.8707 304.89 35.5973 305.606 35.2484C306.324 34.8762 307.076 34.5052 307.864 34.1355ZM320.851 35.4233C320.639 35.4624 320.482 35.5856 320.38 35.7929C320.28 35.9768 320.179 36.1725 320.077 36.3798C319.999 36.588 319.91 36.7841 319.809 36.968C319.733 37.1294 319.613 37.207 319.449 37.201C319.419 37.3875 319.342 37.5488 319.22 37.6851C319.121 37.8221 319.022 37.9709 318.922 38.1314C318.823 38.2685 318.747 38.4299 318.693 38.6155C318.64 38.7777 318.656 38.9777 318.741 39.2153C318.549 39.349 318.424 39.5437 318.368 39.7997C318.312 40.0556 318.244 40.2993 318.165 40.531C318.11 40.7634 318.009 40.9591 317.862 41.1178C317.716 41.2766 317.455 41.3374 317.081 41.3002C317.008 41.3913 316.994 41.4494 317.04 41.4745C317.086 41.4997 317.118 41.5829 317.136 41.7243C316.88 41.668 316.681 41.6724 316.538 41.7375C316.417 41.8268 316.263 41.8798 316.074 41.8963C315.635 41.7394 315.269 41.4796 314.977 41.1171C314.709 40.7554 314.466 40.3594 314.247 39.9292C314.053 39.4764 313.87 39.0241 313.699 38.5722C313.552 38.1211 313.402 37.7286 313.25 37.3947C313.33 37.1396 313.351 36.8941 313.312 36.6582C313.275 36.3988 313.201 36.185 313.09 36.0168C314.327 33.6232 315.676 31.0696 317.136 28.3559C318.597 25.6422 319.985 22.9611 321.303 20.3125C321.833 20.5431 322.351 20.8085 322.856 21.1085C323.385 21.386 323.854 21.7082 324.263 22.075C324.695 22.4428 325.055 22.8665 325.342 23.3461C325.63 23.8023 325.811 24.3132 325.884 24.8788C325.832 25.0176 325.771 25.074 325.701 25.048C325.656 24.9994 325.609 25.0094 325.56 25.078C325.649 25.1985 325.693 25.2822 325.691 25.3291C325.713 25.3768 325.711 25.4236 325.686 25.4696C325.684 25.5164 325.682 25.5867 325.678 25.6804C325.676 25.7506 325.707 25.8573 325.772 26.0005C325.679 25.9736 325.608 25.9827 325.56 26.0278C325.535 26.0738 325.464 26.0712 325.349 26.0201C325.433 26.2811 325.449 26.4928 325.396 26.655C325.366 26.8181 325.314 26.9686 325.239 27.1066C325.164 27.2211 325.1 27.3595 325.047 27.5217C324.995 27.6605 325 27.8483 325.062 28.0851C324.992 28.0825 324.932 28.1038 324.884 28.1489C324.859 28.1714 324.835 28.2057 324.809 28.2517C324.785 28.2743 324.749 28.3081 324.7 28.3532C324.676 28.3758 324.629 28.374 324.56 28.348C324.611 28.8659 324.615 29.382 324.573 29.8964C324.53 30.4109 324.488 30.937 324.444 31.4748C324.425 31.9901 324.417 32.5409 324.419 33.1273C324.421 33.6903 324.482 34.2789 324.6 34.893C325.461 34.4322 326.152 33.8245 326.672 33.0697C327.216 32.3157 327.658 31.4642 327.998 30.5152C328.361 29.567 328.645 28.5455 328.849 27.4507C329.054 26.356 329.271 25.2382 329.501 24.0974C329.719 23.8944 329.893 23.6428 330.021 23.3426C330.149 23.0425 330.266 22.7302 330.372 22.4057C330.479 22.0579 330.585 21.7217 330.691 21.3972C330.797 21.0494 330.926 20.7375 331.077 20.4616C331.427 20.5214 331.715 20.6493 331.942 20.8453C332.194 21.0188 332.421 21.2148 332.624 21.4333C332.828 21.6285 333.044 21.824 333.271 22.02C333.499 22.1926 333.788 22.3088 334.138 22.3686C334.404 22.7771 334.648 23.1731 334.868 23.5565C335.088 23.9398 335.226 24.3436 335.281 24.7678C335.157 24.9508 335.055 25.1582 334.976 25.3898C334.921 25.6223 334.854 25.8544 334.775 26.086C334.696 26.3176 334.594 26.5367 334.469 26.7431C334.345 26.9262 334.175 27.0841 333.959 27.2169C333.866 27.8232 333.752 28.3819 333.616 28.8929C333.504 29.3813 333.381 29.8692 333.245 30.3568C333.134 30.8452 333.033 31.3574 332.943 31.8935C332.853 32.4062 332.809 32.9792 332.809 33.6124C332.602 34.1442 332.381 34.7107 332.148 35.3119C331.915 35.9131 331.731 36.4575 331.595 36.945C331.209 37.2357 330.903 37.5879 330.677 38.0017C330.451 38.4156 330.213 38.829 329.963 39.2419C329.866 39.3321 329.806 39.3534 329.785 39.3057C329.763 39.258 329.682 39.2198 329.543 39.1912C329.563 39.2858 329.56 39.3561 329.535 39.402C329.51 39.448 329.473 39.4936 329.424 39.5387C329.4 39.5612 329.375 39.6072 329.349 39.6766C329.346 39.7469 329.366 39.8414 329.409 39.9603C329.076 40.0887 328.775 40.277 328.508 40.5252C328.241 40.7733 327.952 40.9972 327.639 41.1967C327.35 41.3972 326.994 41.5247 326.57 41.5795C326.169 41.6351 325.645 41.5337 324.998 41.2753C324.063 40.5372 323.238 39.6977 322.523 38.7566C321.83 37.8164 321.273 36.7053 320.851 35.4233Z" fill="black"/>
<g clip-path="url(#clip0_4142_11771)">
<path d="M75.3396 44.3853C75.1954 44.3696 75.0612 44.3153 74.9355 44.2337C74.7427 44.2013 74.4809 44.0822 74.2817 43.7489C74.2348 43.6645 74.1164 43.4647 74.0958 43.1906C74.018 43.0292 74.0012 42.8744 74.0005 42.7781C74.0035 42.6481 74.0322 42.487 74.1238 42.3157L72.7844 40.3006L75.0951 41.3794C75.1474 41.3114 75.2249 41.2179 75.3344 41.1392C75.383 41.1049 75.4316 41.0705 75.4851 41.0424C75.6149 40.83 75.8203 40.6428 76.0892 40.4908C76.2312 40.2175 76.4114 40.0558 76.5899 39.962C76.6662 39.8797 76.7696 39.806 76.8939 39.7459C76.9675 39.5331 77.1298 39.2789 77.4887 39.1254C77.5618 39.0201 77.6559 38.9284 77.7698 38.8615C77.8976 38.5639 78.1024 38.3313 78.3707 38.185C78.4851 38.0615 78.6063 37.9784 78.6789 37.9297C78.789 37.7944 78.904 37.7164 78.9828 37.6626C79.013 37.6433 79.0376 37.6233 79.0616 37.6089C79.2639 37.3478 79.5242 37.2232 79.7384 37.1616C79.8367 36.9287 80.0224 36.6658 80.3917 36.5191C80.6155 36.215 80.9029 36.0481 81.1183 35.9243C81.138 35.8981 81.157 35.8775 81.1761 35.8569C81.221 35.8052 81.3809 35.6244 81.6567 35.5638C81.6696 35.5482 81.6831 35.527 81.704 35.4897C81.8017 35.3134 81.9315 35.2029 82.0165 35.1442C82.1449 34.943 82.3406 34.7944 82.5985 34.6922L82.7345 34.6277C82.7881 34.5996 82.865 34.5627 82.913 34.5339C83.0328 34.2581 83.2081 34.0903 83.4032 33.9983C83.5907 33.7695 83.7994 33.6563 84.0013 33.6047C84.1569 33.463 84.3409 33.3698 84.5466 33.3356C84.7397 33.1074 84.9594 32.9954 85.1502 32.9426C85.2554 32.8521 85.3748 32.7858 85.5034 32.7375C85.7532 32.5042 86.04 32.3938 86.245 32.3142C86.3151 32.2879 86.4204 32.2484 86.4511 32.2234C86.5133 32.1679 86.5797 32.1241 86.6394 32.091L86.793 31.7112L87.0923 31.7439C87.0923 31.7439 87.1046 31.7339 87.1107 31.7289L87.1612 31.6777C87.2491 31.591 87.3937 31.4482 87.6072 31.3412C87.7887 31.1684 88.0287 31.0756 88.2806 31.0804C88.2861 31.081 88.2984 31.071 88.3046 31.066C88.3889 31.0129 88.4307 30.9891 88.4781 30.966C88.5378 30.9328 88.6621 30.8728 88.8271 30.8511C89.0116 30.5993 89.2854 30.4536 89.6124 30.4382C89.7835 30.3606 89.9496 30.2767 90.1158 30.1929C90.1896 30.133 90.245 30.088 90.3109 30.0499C90.4493 29.963 90.5865 29.8874 90.7299 29.8067L90.8672 29.731C91.013 29.628 91.1583 29.5815 91.2839 29.5612C91.3977 29.4943 91.543 29.4478 91.7141 29.4212C91.7197 29.4218 91.7307 29.423 91.7369 29.418C91.8132 29.3357 91.9307 29.2352 92.0999 29.1744C92.2286 29.1261 92.3566 29.0834 92.4846 29.0407C92.631 28.8301 92.8789 28.6645 93.2293 28.6404C93.252 28.6372 93.2748 28.6341 93.2976 28.6309C93.3333 28.6121 93.3684 28.5989 93.4035 28.5858C93.5561 28.4721 93.7475 28.4137 93.9285 28.3994C93.9587 28.3801 93.9937 28.3669 94.0239 28.3475C94.0128 28.3463 94.0029 28.3339 93.9925 28.3271C93.9481 28.3223 93.9032 28.323 93.8527 28.3232L92.926 28.2845L92.9221 28.1651C92.8335 28.1555 92.7288 28.1384 92.6259 28.1045C92.3839 28.1122 92.1825 28.0562 92.0353 28.0175C91.9916 28.0071 91.954 27.9917 91.9041 27.9862C91.7453 28.0029 91.4726 28.0355 91.18 27.9413C91.0384 27.9542 90.9109 27.9403 90.7976 27.8996C90.6332 27.9157 90.4675 27.892 90.3006 27.8285L90.2396 27.8218C90.1103 27.8247 89.9816 27.822 89.8541 27.8081C89.7322 27.7949 89.6232 27.766 89.5481 27.7351L88.7068 27.5811C88.5368 27.5456 88.3724 27.5107 88.2006 27.492C88.1507 27.4866 88.0996 27.4923 88.054 27.4987C87.969 27.5064 87.8792 27.5079 87.7948 27.5101C87.6544 27.5118 87.5454 27.4829 87.4678 27.4744L87.2646 27.4353C87.1543 27.4176 87.0502 27.395 86.9394 27.3829C86.8064 27.3684 86.6734 27.3539 86.5404 27.3394C86.3907 27.3231 86.2466 27.3074 86.097 27.2911C85.975 27.2778 85.8728 27.2383 85.7927 27.2013C85.7311 27.2002 85.6689 27.2048 85.6129 27.2043C85.5458 27.2027 85.4737 27.1948 85.4066 27.1932C85.3678 27.1889 85.3235 27.1841 85.2841 27.1855C85.1197 27.2016 84.6198 27.2604 84.1429 26.9535C84.1423 26.9591 84.1029 26.9605 84.053 26.955L83.9643 26.9454C83.8319 26.9253 83.6995 26.9052 83.5677 26.8795C83.5455 26.8771 83.5234 26.8747 83.4956 26.8716C83.3252 26.9437 83.1152 26.9661 82.8633 26.9103C82.7248 26.8952 82.5456 26.8927 82.367 26.8846L82.1102 26.8736C82.048 26.8781 81.8393 26.8894 81.6163 26.7744C81.6108 26.7738 81.6052 26.7732 81.5997 26.7726L81.4833 26.7599C81.3601 26.7579 81.245 26.734 81.1643 26.7025C80.9438 26.7182 80.7505 26.6914 80.5922 26.6515C80.3638 26.6889 80.1655 26.656 80.0559 26.6327C80.0226 26.6291 80.0448 26.6315 80.0626 26.6221C79.8256 26.6359 79.6285 26.5918 79.4764 26.5469L79.4875 26.5991L79.0922 26.573C78.9887 26.5957 78.825 26.6062 78.6463 26.5471L77.9129 26.4841L76.4941 26.3295C76.4387 26.3235 76.3826 26.323 76.3321 26.3232C76.2145 26.3217 76.092 26.314 75.9756 26.3013C75.8592 26.2886 75.7385 26.2642 75.6233 26.2403C75.5956 26.2373 75.5679 26.2342 75.5408 26.2256L75.2304 26.1918C75.2304 26.1918 75.1917 26.1876 75.175 26.1858L75.0753 26.1749C74.9965 26.1776 74.9176 26.1804 74.845 26.1781L74.6824 26.1774C74.6098 26.1751 74.5371 26.1729 74.4688 26.1824C74.1092 26.2395 73.8099 26.1559 73.5863 26.0976C73.5481 26.0877 73.5044 26.0773 73.4662 26.0675C73.2397 26.1391 73.0352 26.1112 72.909 26.0861C72.7889 26.056 72.6632 26.0253 72.5431 25.9952C72.3467 25.9455 72.1613 25.897 71.9901 25.8726C71.6809 25.8276 71.3749 25.8056 71.0627 25.7886L70.8065 25.772C70.5991 25.823 70.4143 25.8199 70.2511 25.7738C70.1889 25.7783 70.1335 25.7723 70.0726 25.7656C69.9568 25.7983 69.8312 25.8186 69.6982 25.8041C69.4599 25.7782 69.2216 25.7522 68.9833 25.7262L68.5232 25.6761C68.4567 25.6688 68.3958 25.6622 68.3293 25.6549C68.2295 25.6441 68.1347 25.6394 68.0349 25.6285C67.913 25.6152 67.7024 25.5923 67.4867 25.4612C67.3113 25.527 67.1445 25.5655 66.9949 25.6001C66.8453 25.6348 66.6889 25.6291 66.5423 25.5848L66.4832 25.6124L66.2006 25.5815L65.8742 25.5403C65.7079 25.5222 65.5484 25.4935 65.3821 25.4754C65.3156 25.4681 65.2547 25.4615 65.1882 25.4542L65.0884 25.4434C64.9597 25.4407 64.8704 25.4366 64.7824 25.4213C64.6887 25.4055 64.5902 25.3834 64.4972 25.3619C64.4972 25.3619 64.4917 25.3613 64.4861 25.3607C64.1747 25.491 63.892 25.4602 63.7202 25.4415C63.6925 25.4385 63.6648 25.4355 63.6426 25.4331C63.4628 25.4361 63.2707 25.3982 63.0921 25.3391C63.0754 25.3373 63.0545 25.3236 63.0385 25.3162C62.9246 25.3321 62.8008 25.3356 62.6727 25.3274C62.5619 25.3153 62.4572 25.2982 62.3476 25.2749L62.3365 25.2737L61.9087 25.4423L61.5402 25.1699C61.5402 25.1699 61.5347 25.1693 61.5297 25.1631C61.5131 25.1613 61.5014 25.1657 61.4848 25.1639L61.3204 25.18C61.156 25.196 60.9867 25.2059 60.8235 25.2108C60.6665 25.2107 60.5046 25.2043 60.3426 25.198C60.2539 25.1884 60.164 25.1899 60.0803 25.1864C60.0021 25.1836 59.9233 25.1863 59.8451 25.1835C59.6936 25.1839 59.5477 25.185 59.3974 25.1743C59.2638 25.1654 59.1259 25.1447 58.9953 25.1078L58.9023 25.0864C58.7785 25.0899 58.6548 25.0934 58.5304 25.1025L58.3783 25.1086C58.3783 25.1086 58.3284 25.1031 58.305 25.1119C57.9671 25.177 57.6333 25.152 57.3216 25.0274C56.9978 25.1167 56.7115 25.0685 56.5248 25.0312L56.4528 25.0233C56.3099 24.9964 56.1646 24.9919 56.0193 24.9874L55.9583 24.9808C55.9583 24.9808 55.9238 24.9883 55.9011 24.9915L55.3324 25.3204L55.2644 25.0184C55.2644 25.0184 55.2201 25.0136 55.1924 25.0106L55.1369 25.0045C55.0427 24.9943 54.9103 24.9742 54.7594 24.9181C54.4941 24.9855 54.2607 24.9657 54.1055 24.9488C54.0667 24.9446 54.0224 24.9397 53.9891 24.9361L53.2896 24.9222L53.2834 24.8762C53.1073 24.8966 52.9281 24.8941 52.7305 24.8556C52.5987 24.8299 52.4903 24.7954 52.3954 24.7398C52.1319 24.7903 51.8942 24.7588 51.7507 24.7375C51.1321 24.9589 50.6683 24.8404 50.3566 24.6648C50.3011 24.6588 50.2513 24.6534 50.2014 24.6479C50.0684 24.6334 49.9262 24.6519 49.7298 24.7041C49.4866 24.7739 49.2612 24.7324 49.1036 24.6869C49.0038 24.727 48.9004 24.7497 48.7933 24.755C48.5963 24.7619 48.3992 24.7687 48.2028 24.77L47.9109 24.7721L47.8697 24.7393C47.8364 24.7357 47.8025 24.7377 47.7693 24.734L47.7249 24.7292C47.5323 24.7988 47.3076 24.8027 47.0532 24.7183L46.1301 24.697C45.7282 24.7835 45.3593 24.7716 45.0299 24.7583C44.9018 24.7501 44.7786 24.748 44.6493 24.7509C44.5484 24.7512 44.4541 24.7409 44.3722 24.7207C44.2657 24.7714 44.1562 24.7991 44.0373 24.8088C43.8625 24.818 43.6876 24.7763 43.5397 24.6922C43.2743 24.7086 43.0385 24.7112 42.8088 24.7089C42.7473 24.7078 42.6635 24.7044 42.5748 24.6947L42.5693 24.6941C42.3982 24.7717 42.2277 24.7928 42.0565 24.7685C41.6876 24.7056 41.3242 24.6434 40.9559 24.5749C40.9171 24.5707 40.8672 24.5653 40.8075 24.5474C40.584 24.591 40.4079 24.5605 40.2977 24.5428L40.2533 24.538C40.0059 24.596 39.7626 24.5638 39.5938 24.5171C39.5643 24.5309 39.5403 24.5453 39.5114 24.5534L39.5665 25.4883L38.2744 24.6339C38.1421 24.6647 38.0017 24.6664 37.8699 24.6407C37.7585 24.6852 37.6323 24.7111 37.5091 24.709C37.3804 24.7064 37.2597 24.6819 37.1359 24.6344C37.1027 24.6308 37.0743 24.6333 37.0405 24.6353C36.9408 24.6754 36.8072 24.7175 36.6496 24.723C36.3799 24.7276 36.1059 24.7204 35.8325 24.7076C35.7715 24.7009 35.7105 24.6943 35.6508 24.6765L34.9053 24.8784L34.8374 24.6784C34.7641 24.6818 34.6976 24.6745 34.6256 24.6667C34.5043 24.6478 34.3854 24.6065 34.28 24.5441L34.2394 24.5566C34.0418 24.62 33.8232 24.6189 33.6298 24.5412C33.6242 24.5406 33.6187 24.54 33.607 24.5443C33.5442 24.5545 33.487 24.5652 33.4248 24.5698C33.2992 24.5901 33.0708 24.6275 32.8225 24.5382C32.8004 24.5357 32.7825 24.5451 32.7597 24.5483C32.5826 24.6819 32.3259 24.7729 31.973 24.7174L31.1515 24.5883L30.2649 24.6446C30.0555 24.6614 29.8523 24.6732 29.6448 24.6733C29.4373 24.6733 29.244 24.6466 29.0894 24.6241C28.7306 24.8285 28.3636 24.7999 28.1746 24.7849L28.0914 24.7759C27.9455 24.777 27.7965 24.7551 27.6536 24.7282C27.5815 24.7203 27.5101 24.7069 27.4319 24.704C27.4485 24.7058 27.4196 24.714 27.3962 24.7228C27.2817 24.7443 27.2177 24.7656 27.1543 24.7814L26.9702 24.8236C26.8034 24.8621 26.6365 24.8495 26.48 24.7928C26.2153 24.8546 25.9672 24.8672 25.7474 24.8773L25.6797 24.8812C25.5497 24.8897 25.4211 24.887 25.2924 24.8843C25.152 24.886 25.0122 24.8821 24.8761 24.8956L24.8133 24.9057C24.6656 24.9236 24.4433 24.956 24.1853 24.9053C23.9667 24.9551 23.5629 25.0074 23.1304 24.8073C23.0805 24.8019 23.0245 24.8014 22.974 24.8016L22.5998 24.993L22.5227 24.826C22.2906 24.897 22.0714 24.9015 21.9138 24.9069L21.8461 24.9109C21.7396 24.9616 21.5999 25.0087 21.4367 25.0135C21.4133 25.0223 21.3899 25.0311 21.361 25.0393C21.1979 25.0951 21.0347 25.1 20.8764 25.0601C20.6444 25.1311 20.4338 25.1081 20.3223 25.1017C20.1222 25.0855 19.9442 25.0718 19.7706 25.0698C19.6942 25.1012 19.5902 25.1295 19.4714 25.1392C19.4037 25.1431 19.3409 25.1533 19.2731 25.1572C19.0404 25.1829 18.751 25.2136 18.437 25.1624C18.3914 25.1688 18.3348 25.1739 18.2683 25.1667C18.2073 25.16 18.1463 25.1534 18.0964 25.1479C17.8238 25.2315 17.5737 25.2099 17.429 25.1998C17.4013 25.1968 17.3681 25.1932 17.3404 25.1902C17.256 25.1923 17.1772 25.195 17.0922 25.2028C16.9512 25.2101 16.8047 25.2167 16.6588 25.2178C16.5245 25.2145 16.3915 25.2 16.2585 25.1855C16.2308 25.1825 16.1975 25.1789 16.1698 25.1759L15.7223 25.3197C15.6288 25.3548 15.5118 25.3987 15.3585 25.416L15.268 25.4231C15.0125 25.4519 14.757 25.4807 14.5039 25.4871C14.4196 25.4892 14.3303 25.4852 14.2416 25.4755L13.5518 26.5048L13.1641 25.4827C12.9941 25.4981 12.8506 25.4768 12.7207 25.4344C12.5077 25.5358 12.2941 25.5408 12.1549 25.5313C11.9235 25.6477 11.6736 25.6771 11.4438 25.6237C11.1447 25.7441 10.8535 25.7916 10.6146 25.8222L10.4779 25.8413C10.3074 25.8624 10.1369 25.8834 9.96816 25.8877C9.79945 25.892 9.65042 25.8701 9.53464 25.8518L9.46259 25.8439C9.23358 25.887 9.00456 25.93 8.77433 25.9842L8.69369 26.0037C8.52071 26.0472 8.22031 26.1277 7.8717 26.0331L7.58233 26.0638C7.44627 26.0773 7.30959 26.0964 7.16799 26.1093C7.08302 26.117 6.99251 26.1242 6.90262 26.1257C6.81211 26.1328 6.72221 26.1344 6.6311 26.1471C6.48273 26.1706 6.33929 26.2002 6.19031 26.2293C6.06965 26.2558 5.95514 26.2773 5.8351 26.2982C5.64056 26.3337 5.48166 26.2994 5.40468 26.2853C5.37697 26.2823 5.34925 26.2793 5.3277 26.2713C5.0309 26.2672 4.76975 26.1935 4.55172 26.1357L4.38789 26.0952C3.92351 25.9823 3.50946 25.7163 3.17223 25.3114C2.99899 25.0999 2.90517 24.8801 2.82925 24.7019C2.81568 24.6721 2.80764 24.6429 2.79346 24.6187C2.77866 24.6001 2.76879 24.5877 2.754 24.5691C2.70407 24.5127 2.64488 24.4383 2.61406 24.4122C2.32566 24.1769 2.14057 23.8169 2.10567 23.4166C2.07953 23.1419 2.13098 22.8756 2.25082 22.6508C2.28289 22.0992 2.59544 21.8557 2.9081 21.7142C2.98314 21.6431 3.04528 21.5876 3.11173 21.5438C3.27541 21.4314 3.43115 21.3917 3.5241 21.3622C4.05778 21.1995 4.48586 21.3367 4.7735 21.4247L4.90901 21.4678C5.02357 21.4973 5.13569 21.5492 5.25091 21.624C5.52675 21.6144 5.7639 21.7026 5.92407 21.7767C6.13706 21.7263 6.33165 21.7418 6.45359 21.7551C6.4813 21.7581 6.50347 21.7605 6.53118 21.7635L6.68265 21.7631C6.77255 21.7615 6.86183 21.7656 6.9468 21.7579C7.3045 21.7175 7.66226 21.7282 8.03116 21.7911L8.11429 21.8001C8.11429 21.8001 8.15741 21.8162 8.18512 21.8192L8.42511 21.6754L8.82792 21.7873C8.82792 21.7873 8.88701 21.7597 8.94426 21.749C9.12832 21.7067 9.38134 21.6493 9.67325 21.6982C9.76747 21.7084 9.86169 21.7187 9.9559 21.729L10.0557 21.7398C10.2458 21.6416 10.4324 21.628 10.5346 21.6164C10.6707 21.6029 10.7833 21.5982 10.8911 21.5873C10.9871 21.5808 11.0832 21.5743 11.1798 21.5621C11.2365 21.557 11.2937 21.5462 11.351 21.5355C11.5166 21.5082 11.7284 21.469 11.9673 21.4894C12.173 21.5061 12.4063 21.4749 12.6507 21.4449C12.8496 21.4213 13.0484 21.3976 13.2461 21.3852C13.4154 21.3753 13.5853 21.3598 13.7614 21.3394C13.9092 21.3215 14.0625 21.3042 14.2152 21.2925C14.334 21.2828 14.4571 21.2849 14.5748 21.2864C14.6302 21.2925 14.6868 21.2873 14.7429 21.2877C14.9848 21.2801 15.2225 21.2607 15.4595 21.2469C15.5402 21.2274 15.6091 21.2122 15.6769 21.2083C15.8474 21.1872 16.0635 21.1598 16.3123 21.2436C16.3936 21.2694 16.5303 21.2503 16.747 21.2173L16.8554 21.2008C17.1811 21.1457 17.6046 21.0672 18.0678 21.1913C18.3528 21.0978 18.6532 21.0682 18.9513 21.112C18.9747 21.1032 18.9974 21.1 19.0202 21.0969L19.1353 21.0698C19.4 21.008 19.7977 20.9097 20.2437 21.0886C20.2548 21.0898 20.277 21.0922 20.3576 21.0727C20.6235 20.9997 20.9652 20.901 21.3476 20.9427C21.6024 20.8685 21.8297 20.8933 21.9688 20.9028C21.9799 20.904 21.991 20.9052 22.0076 20.907C22.3985 20.7683 22.7551 20.8412 22.9638 20.8809C23.0082 20.8858 23.0568 20.9024 23.0956 20.9066C23.3506 20.9344 23.5458 20.9444 23.7385 20.9257C24.0556 20.898 24.3333 20.9735 24.5723 21.0449C24.8166 20.9129 25.1367 20.8062 25.516 20.8249C25.5271 20.8261 25.5394 20.8161 25.5511 20.8117C25.6151 20.7904 25.6785 20.7746 25.7419 20.7589C25.7715 20.7451 25.9746 20.6823 26.2302 20.7555C26.2696 20.7541 26.3103 20.7415 26.3503 20.7346C26.4759 20.7143 26.6359 20.6864 26.8262 20.6901C26.95 20.6866 27.0657 20.7049 27.1735 20.745C27.1846 20.7462 27.1969 20.7362 27.2136 20.738C27.3287 20.7109 27.4432 20.6894 27.5559 20.6847C27.8612 20.6613 28.2091 20.6596 28.5694 20.7498C28.6279 20.7279 28.6962 20.7183 28.759 20.7082L28.8674 20.6917C29.0324 20.67 29.2029 20.649 29.3667 20.6385C29.5249 20.6274 29.6617 20.6593 29.7541 20.6864C29.799 20.6856 29.8495 20.6854 29.8938 20.6903C29.9603 20.6975 30.0275 20.6992 30.089 20.7002C30.2792 20.602 30.5316 20.5502 30.8648 20.6318L31.2866 20.6212C31.4664 20.6181 31.6462 20.615 31.8253 20.6176C32.4688 20.631 33.1117 20.6501 33.7533 20.6804C33.8198 20.6877 33.8863 20.6949 33.9528 20.7022C34.1338 20.6369 34.3265 20.6183 34.5248 20.6512C34.5753 20.651 34.6375 20.6465 34.7095 20.6543C34.8037 20.6646 34.8973 20.6805 34.9903 20.7019C35.0181 20.705 35.0458 20.708 35.0673 20.716C35.1307 20.7002 35.1941 20.6845 35.2575 20.6688L35.4274 20.6023L35.8166 20.5824C35.997 20.5737 36.2001 20.5619 36.4169 20.5799C36.561 20.5956 36.7051 20.6113 36.8424 20.6376C37.0868 20.5056 37.4038 20.4779 37.8153 20.6643C38.0824 20.5291 38.3404 20.5289 38.5387 20.5619C38.5554 20.5637 38.5671 20.5593 38.5843 20.5555C38.6409 20.5504 38.6982 20.5396 38.7548 20.5345C38.7948 20.5275 38.8977 20.5104 39.0313 20.5193C39.131 20.5301 39.2253 20.5404 39.3244 20.5569C39.3965 20.5647 39.5005 20.5874 39.535 20.5798C39.7776 20.5156 39.9931 20.5448 40.131 20.5655L40.1976 20.5727C40.2641 20.58 40.3373 20.5766 40.4051 20.5727C40.4894 20.5706 40.5732 20.574 40.6575 20.5719C40.7579 20.5772 40.8527 20.5818 40.9531 20.5871L41.1815 20.6007C41.2554 20.5917 41.3231 20.5878 41.3903 20.5894C41.4679 20.5979 41.5461 20.6008 41.6243 20.6036L41.7739 20.6199C41.9697 20.5733 42.1439 20.5696 42.3084 20.6045C42.4567 20.5811 42.6304 20.583 42.833 20.6277C42.9734 20.626 43.1076 20.6293 43.2474 20.6332C43.3367 20.6373 43.4315 20.642 43.5214 20.6404C43.6618 20.6387 43.7837 20.652 43.8927 20.6809C44.1113 20.6311 44.3114 20.6472 44.4604 20.6691C44.6919 20.6037 44.8976 20.6205 45.0201 20.6282L45.3169 20.6322L45.9622 20.6289C46.1642 20.6283 46.3606 20.627 46.5632 20.6208C46.783 20.6107 46.9862 20.6499 47.1685 20.7264C47.2424 20.7174 47.3212 20.7147 47.4155 20.725C47.5133 20.7017 47.6284 20.6746 47.7627 20.6779L47.8914 20.6805C48.1438 20.6797 48.4523 20.6794 48.772 20.7822C48.772 20.7822 48.7775 20.7828 48.7831 20.7834C48.988 20.7038 49.1783 20.7075 49.2959 20.709C49.5803 20.672 49.8045 20.7248 49.9746 20.8113C50.0084 20.8093 50.0423 20.8073 50.0762 20.8054C50.336 20.7884 50.573 20.7746 50.7854 20.7297C51.2274 20.6363 51.6166 20.6674 51.9103 20.6994C52.0212 20.7115 52.132 20.7236 52.2447 20.7188C52.374 20.7159 52.4978 20.7124 52.6277 20.7039L52.9208 20.6906C53.0279 20.6852 53.1338 20.6911 53.2336 20.702C53.3001 20.7092 53.3555 20.7153 53.4109 20.7213C53.4608 20.7268 53.5162 20.7328 53.5661 20.7382C53.6837 20.7397 53.8019 20.7356 53.9257 20.7321C54.0889 20.7272 54.2576 20.723 54.4201 20.7237C54.5156 20.7228 54.5975 20.743 54.6689 20.7565C54.8284 20.7342 54.9669 20.7493 55.0445 20.7578C55.1782 20.7667 55.257 20.7639 55.3413 20.7618C55.499 20.7563 55.656 20.7564 55.8118 20.7677C56.0008 20.7827 56.1468 20.8326 56.2386 20.8652C56.3254 20.8917 56.3537 20.8891 56.3648 20.8903C56.6622 20.8887 56.9602 20.8816 57.2521 20.8794L57.741 20.8704C57.954 20.8709 58.1394 20.9195 58.2959 21.0271C58.307 21.0283 58.4653 21.0173 58.5558 21.0101L58.6863 20.996C58.8839 20.9836 59.0563 20.9967 59.1949 21.0118C59.2614 21.0191 59.3224 21.0257 59.3895 21.0274C59.4739 21.0252 59.565 21.0125 59.6499 21.0048L59.9892 20.9794L61.0687 21.0574C61.2355 21.07 61.4024 21.0825 61.5681 21.1062C61.6512 21.1152 61.7282 21.1293 61.8101 21.1496C61.8544 21.1544 61.892 21.1698 61.9364 21.1746C62.0583 21.1879 62.1858 21.2018 62.3145 21.2045C62.3643 21.21 62.4198 21.216 62.4752 21.222C62.7319 21.1311 62.9554 21.1384 63.089 21.1473L63.1789 21.1458C63.2977 21.1361 63.5477 21.1067 63.8175 21.2041C63.863 21.1977 63.9086 21.1913 63.9542 21.185L64.0336 21.1766C64.1696 21.1631 64.3519 21.1377 64.5668 21.1724C64.6721 21.1839 64.7639 21.2166 64.8446 21.248C64.8963 21.2367 64.9529 21.2315 65.0207 21.2276C65.1844 21.2171 65.3427 21.257 65.4863 21.3293C65.5835 21.3116 65.6907 21.3063 65.796 21.3177L65.9179 21.331C66.2227 21.3642 66.522 21.3969 66.8269 21.4301C66.8847 21.4137 66.9524 21.4098 67.0202 21.4058C67.1273 21.4005 67.2388 21.407 67.3453 21.4073C67.5245 21.4098 67.6809 21.4155 67.7904 21.3878L68.1019 21.3085L68.3736 21.44C68.3736 21.44 68.4247 21.4343 68.4826 21.4179C68.7128 21.3637 68.9493 21.4065 69.1539 21.5364C69.5103 21.5073 69.8355 21.5597 70.104 21.6173C70.5953 21.5349 71.0418 21.6062 71.439 21.6665L71.5942 21.6834C71.649 21.695 71.6977 21.7117 71.7414 21.7221C71.7986 21.7114 71.8614 21.7012 71.9181 21.696C72.1342 21.6686 72.4027 21.7262 72.6153 21.8853C72.8425 21.9101 73.0686 21.946 73.3007 21.977C73.3728 21.9849 73.4491 22.0045 73.536 22.031C73.7545 21.9302 74.0764 21.8576 74.4713 21.9913C74.6596 21.9608 74.8327 21.9684 74.9608 21.9767L75.151 21.9804L75.1677 21.9822C75.5149 21.9351 75.8234 21.9857 76.0771 22.0247C76.1769 22.0356 76.2699 22.057 76.3703 22.0623C76.5095 22.0718 76.6462 22.1037 76.7682 22.168C76.7792 22.1692 76.7848 22.1698 76.7959 22.171C76.9486 22.1593 77.105 22.165 77.262 22.1651L77.374 22.166C77.374 22.166 77.4184 22.1709 77.4406 22.1733C77.7434 22.1213 77.9935 22.1939 78.1407 22.2326C78.1629 22.235 78.1894 22.2492 78.2115 22.2516C78.2337 22.2541 78.2737 22.2471 78.3131 22.2457L78.3648 22.2344C78.4621 22.2166 78.5649 22.1995 78.661 22.193C78.7964 22.1851 78.951 22.2076 79.1069 22.2699C79.2663 22.2476 79.4621 22.252 79.6666 22.3309C79.6672 22.3253 79.7467 22.317 79.8033 22.3118C79.8772 22.3029 79.9449 22.2989 80.0182 22.2956C80.1253 22.2903 80.323 22.2778 80.5558 22.3542C80.8709 22.2413 81.2238 22.2967 81.503 22.514C81.6101 22.5087 81.7209 22.5208 81.83 22.5497C81.9617 22.5244 82.0744 22.5197 82.1532 22.5169C82.2548 22.511 82.3219 22.5127 82.3884 22.5199C82.655 22.4923 82.8699 22.5271 83.0369 22.5906C83.0701 22.5942 83.1101 22.5872 83.1489 22.5915C83.2604 22.598 83.3657 22.6094 83.4759 22.6271C83.671 22.4841 83.9135 22.4199 84.1352 22.4441C84.3624 22.4688 84.5847 22.4874 84.8126 22.5066L85.4567 22.5654C85.6685 22.5772 85.969 22.5986 86.2777 22.7512C86.6237 22.7662 86.9139 22.8828 87.1788 23.025C87.2065 23.028 87.2342 23.031 87.2564 23.0334C87.4368 23.0248 87.6024 23.0485 87.7484 23.0984C87.8162 23.0944 87.8888 23.0967 87.9658 23.1107C88.1499 23.1195 88.3365 23.1568 88.4954 23.1911C88.6543 23.2254 88.8027 23.2529 88.8945 23.2346C89.1062 23.1954 89.2812 23.2371 89.3791 23.2648C89.4733 23.275 89.562 23.2847 89.6562 23.295C89.9368 23.1386 90.2632 23.1289 90.5391 23.2722C90.6081 23.3081 90.6759 23.3551 90.732 23.4065C90.8268 23.3602 90.9142 23.3301 90.9998 23.3168L90.9887 23.3156C90.9314 23.2753 90.879 23.2413 90.8266 23.2073C90.7798 23.1739 90.733 23.1404 90.6867 23.1014C90.5648 23.0371 90.4723 22.9591 90.4076 22.8841L90.4021 22.8835C90.3429 22.86 90.2838 22.8366 90.2302 22.8138L89.9468 22.6866L89.8962 22.5848C89.7989 22.5515 89.6973 22.5065 89.5925 22.4384C89.4773 22.3636 89.3633 22.2775 89.2548 22.192C89.1926 22.1456 89.1359 22.0998 89.0737 22.0534C89.0527 22.0397 89.0262 22.0255 89.0053 22.0119L88.9418 21.9767C88.7706 21.9014 88.6418 21.7967 88.5443 21.6615C88.4378 21.6102 88.3373 21.554 88.235 21.4635C88.1931 21.4363 88.1611 21.4215 88.1352 21.4017L88.0101 21.3144C87.8795 21.2265 87.7483 21.1443 87.6238 21.0514L87.5086 20.9765C87.3619 20.8813 87.174 20.7532 87.0039 20.5647C86.7864 20.5014 86.5918 20.3839 86.4093 20.2054C86.4192 20.2178 86.3927 20.2036 86.3606 20.1887C86.2861 20.1523 86.2177 20.1109 86.1493 20.0694C85.9713 19.9537 85.875 19.8073 85.8263 19.7397C85.8115 19.7211 85.7973 19.6969 85.7881 19.6789C85.7271 19.6213 85.6599 19.5686 85.5921 19.5216C85.5244 19.4746 85.456 19.4331 85.3876 19.3917C85.2298 19.2952 85.0512 19.1851 84.8724 19.024L84.7757 18.9342C84.5661 18.7471 84.3874 18.586 84.2143 18.5275C83.9759 18.4505 83.8015 18.3013 83.6949 18.199C83.5581 18.0652 83.4163 17.9251 83.2795 17.7912L83.2037 17.715C82.8846 17.6066 82.6713 17.4021 82.5444 17.2807C82.4988 17.236 82.4729 17.2162 82.447 17.1964C82.3848 17.15 82.3231 17.098 82.2677 17.0409C82.2523 17.0279 82.2424 17.0155 82.2325 17.0031C82.1839 16.9865 82.142 16.9593 82.0995 16.9376C81.9787 16.8622 81.877 16.7661 81.8055 16.6507C81.5751 16.552 81.3009 16.3918 81.0734 16.1122C80.973 16.0559 80.8781 16.0002 80.7801 15.9216C80.6569 15.8175 80.5404 15.7029 80.4183 15.5876L80.2556 15.434C80.2556 15.434 80.2094 15.3949 80.1829 15.3807C80.1305 15.3467 80.0732 15.3065 80.0209 15.2724C79.8637 15.1704 79.6851 15.0603 79.5168 14.906C79.2561 14.6737 79.2041 14.3791 79.1855 14.2412C79.0923 14.0158 79.0804 13.8162 79.079 13.6745C79.0327 13.5845 79.0031 13.4963 78.9839 13.4149C78.8649 13.2207 78.8061 12.9877 78.8256 12.7576C78.8377 12.5947 78.8831 12.4354 78.9655 12.2971C78.8766 12.0325 78.9065 11.8092 78.963 11.6511L78.702 11.1129L79.5144 10.7596C79.5144 10.7596 79.5618 10.7365 79.6147 10.7139C79.7174 10.5949 79.8516 10.4962 80.0091 10.4397L80.1489 10.3926C80.1876 10.3459 80.2251 10.3103 80.2621 10.2804C80.3488 10.2049 80.5549 10.0631 80.8573 10.0677C81.3293 9.80195 81.83 9.8905 82.1937 10.3096C82.2085 10.3282 82.2695 10.3859 82.4451 10.473C82.7537 10.6255 83.1634 10.8288 83.4692 11.2643C83.5167 11.2921 83.5536 11.3131 83.5851 11.3335C83.6756 11.3774 83.8025 11.4479 83.9246 11.5631C84.2923 11.6372 84.5788 11.8383 84.749 12.1287C84.9351 12.2226 85.1237 12.3961 85.2588 12.6997C85.2736 12.7183 85.3038 12.7499 85.334 12.7816C85.3889 12.8442 85.4438 12.9068 85.4869 12.9738C85.5307 13.0352 85.5739 13.1022 85.6177 13.1636C85.6368 13.194 85.6559 13.2244 85.675 13.2548C85.7139 13.3101 85.728 13.3343 85.7484 13.3535C85.826 13.4129 85.9548 13.5176 86.0257 13.5366C86.2117 13.5795 86.4396 13.7007 86.5919 13.8985C86.7871 13.9594 86.9147 14.0753 87.0035 14.1869C87.0565 14.2154 87.1095 14.2438 87.1612 14.2834C87.2863 14.3707 87.3708 14.4705 87.4312 14.5337C87.5021 14.6038 87.5421 14.6478 87.5828 14.6862C87.5927 14.6986 87.6032 14.7054 87.613 14.7178C87.8902 14.799 88.1133 14.9649 88.2514 15.1895C88.3562 15.2576 88.4535 15.3418 88.5331 15.4355C88.5331 15.4355 88.538 15.4417 88.5429 15.4479C88.7425 15.5206 88.8695 15.642 88.936 15.7003C88.9921 15.7517 89.0476 15.8087 89.1037 15.8601C89.3987 15.9319 89.5928 16.106 89.6853 16.1841C89.7111 16.2039 89.7432 16.2187 89.7746 16.2391C89.8485 16.2812 89.9219 16.3288 89.989 16.3814C90.1221 16.4469 90.3445 16.5674 90.5159 16.7957L90.6903 16.894C90.8911 17.0065 91.0913 17.1246 91.2916 17.2427C91.4074 17.312 91.4832 17.3882 91.5332 17.4446L91.5855 17.4787C91.6385 17.5071 91.7328 17.5683 91.8179 17.6626C91.8831 17.681 91.9429 17.6989 92.0076 17.7229C92.217 17.808 92.36 17.9369 92.4407 18.0193C92.5172 18.09 92.5628 18.1346 92.6084 18.1792C92.6337 18.2046 92.6589 18.23 92.6897 18.256C92.7834 18.3229 92.8826 18.3903 92.9824 18.4522C93.3402 18.4629 93.6815 18.6247 93.912 18.8763C94.0697 18.9218 94.1892 19.0085 94.2712 19.0797C94.302 19.1058 94.3371 19.1436 94.3717 19.187C94.4641 19.214 94.5657 19.2591 94.676 19.3278C94.8337 19.4243 94.9791 19.5307 95.1301 19.6378C95.2238 19.7046 95.3119 19.7709 95.4062 19.8321C95.4172 19.8334 95.4443 19.842 95.4715 19.8506C95.8792 19.9687 96.1744 20.1934 96.4184 20.3729C96.4806 20.4194 96.5422 20.4714 96.6045 20.5178C96.6821 20.5773 96.8054 20.6813 96.8491 20.6917C97.266 20.7258 97.6288 20.8957 97.9228 21.1826C98.0202 21.2158 98.0898 21.2461 98.1594 21.2763C98.2869 21.3412 98.3794 21.4192 98.4354 21.4707C98.6578 21.5402 98.9412 21.6674 99.1625 21.9521C99.1791 21.9539 99.1951 21.9613 99.2056 21.9681C99.3516 22.018 99.606 22.1023 99.8045 22.3392C99.8643 22.408 99.8859 22.416 99.8859 22.416L99.9456 22.4339C100.022 22.4535 100.098 22.4732 100.174 22.4984C100.395 22.5792 100.616 22.6655 100.836 22.7518C100.965 22.8055 101.08 22.8804 101.17 22.9808L101.176 22.9814C101.536 23.0207 101.769 23.199 101.911 23.3844C102.107 23.3944 102.306 23.4727 102.481 23.6164C102.669 23.6369 102.812 23.7148 102.886 23.7569L102.903 23.7587L102.912 23.7711C102.935 23.7735 102.951 23.7753 102.974 23.7721C103.103 23.7692 103.232 23.7719 103.358 23.797C103.595 23.8398 103.762 23.9543 103.85 24.0149C103.887 24.0359 103.919 24.0563 103.945 24.0761C104.014 24.1064 104.115 24.1571 104.208 24.2351C104.274 24.2933 104.393 24.3346 104.572 24.3881C104.844 24.4687 104.993 24.6491 105.051 24.7292L105.777 25.5332L105.48 25.6822C105.488 25.7169 105.495 25.7517 105.502 25.7865C105.688 26.039 105.732 26.3043 105.756 26.4485L105.765 26.5175C105.785 26.5877 105.817 26.6591 105.849 26.7249C105.889 26.8199 105.929 26.9149 105.963 27.0149C106.091 27.3856 106.094 27.7201 105.965 28.0233C105.978 28.0643 105.985 28.0991 105.997 28.1401C106.046 28.3153 106.088 28.4898 106.119 28.6688C106.175 28.9807 106.058 29.2342 106.005 29.3531L105.478 30.8985L105.116 30.4116C104.774 31.0314 104.246 31.0871 103.77 31.0862C103.551 31.085 103.368 31.0141 103.256 30.9622C103.114 30.9751 102.973 30.9824 102.831 31.0009C102.621 31.0289 102.408 31.0737 102.201 31.1192C102.041 31.1526 101.895 31.1481 101.764 31.1224C101.706 31.1388 101.648 31.1495 101.597 31.1609C101.428 31.3181 101.2 31.4065 100.936 31.4061C100.857 31.4088 100.774 31.3998 100.696 31.3969C100.668 31.3939 100.646 31.3915 100.619 31.3885C100.469 31.5251 100.305 31.5922 100.2 31.6261C100.08 31.7545 99.9484 31.8252 99.837 31.8697C99.7195 31.9192 99.5527 31.9577 99.3531 31.9359L99.118 32.0349C98.7364 32.1916 98.3776 32.345 98.0286 32.5109C97.7265 32.6592 97.4537 32.6918 97.224 32.6894C97.1207 32.7631 97.0265 32.8038 96.9736 32.8264C96.9262 32.8495 96.8849 32.8677 96.8437 32.8859C96.7717 32.929 96.6757 32.9865 96.5594 33.0248L95.3129 33.4497C95.1647 33.5752 94.9155 33.7519 94.5572 33.7978C94.3142 34.0206 94.0488 34.0879 93.8931 34.1276L93.8297 34.1433C93.8297 34.1433 93.8242 34.1427 93.8186 34.1421C93.5854 34.3263 93.3367 34.3955 93.1749 34.4401C93.1404 34.4477 93.0998 34.4603 93.0702 34.4741C92.9293 34.5323 92.7865 34.6074 92.6246 34.703C92.2764 34.9143 91.9432 34.8837 91.7554 34.8575C91.4707 35.257 91.0873 35.4304 90.7727 35.5377C90.697 35.5635 90.5955 35.6204 90.4878 35.6823C90.4398 35.711 90.3979 35.7348 90.3506 35.7579C90.2041 35.8666 90.0638 35.9193 89.9382 35.9396C89.6945 36.1169 89.4077 36.1763 89.1274 36.1231C88.9083 36.2295 88.6837 36.3353 88.4695 36.4479C88.3035 36.6847 88.0629 36.834 87.7884 36.8834C87.6309 37.0418 87.429 37.1444 87.1951 37.1812C87.0585 37.3023 86.893 37.4315 86.6758 37.5211C86.506 37.7405 86.3023 37.8599 86.1706 37.9362C85.9787 38.0512 85.8125 38.1351 85.6513 38.2251L85.6094 38.2489C85.3598 38.5842 85.0003 38.6922 84.8433 38.7431C84.8199 38.7519 84.7971 38.7551 84.7738 38.7639C84.7091 38.7908 84.6624 38.8084 84.6273 38.8215C84.4103 39.166 84.1142 39.2584 83.9492 39.28C83.9036 39.2864 83.847 39.2916 83.7799 39.2899C83.6956 39.343 83.599 39.4061 83.4765 39.4494C83.3361 39.5021 83.202 39.5498 83.0622 39.5969C82.9397 39.6402 82.8173 39.6834 82.6948 39.7267C82.664 39.7517 82.6394 39.7717 82.6093 39.791L82.4819 39.8791C82.4819 39.8791 82.464 39.8885 82.4573 39.8991C82.3473 40.1363 82.1222 40.4007 81.6494 40.4681C81.506 40.5997 81.3516 40.6792 81.2069 40.7201C81.1368 40.7974 81.0568 40.8623 80.9614 40.9142L80.8956 40.9523C80.6685 41.0805 80.447 41.2093 80.2156 41.3257C80.1916 41.3401 80.1626 41.3482 80.1386 41.3626C80.0907 41.4424 80.0428 41.5221 79.9843 41.595C79.8927 41.7153 79.7476 41.9147 79.4977 42.0461C79.4559 42.0699 79.4134 42.0992 79.3765 42.1292C79.2553 42.2123 79.091 42.3303 78.8805 42.4093C78.6744 42.6021 78.4061 42.6974 78.1105 42.6822C78.0797 42.7072 78.0496 42.7266 78.0256 42.7409L77.3599 43.2914L77.3026 43.2512C77.2306 43.2943 77.1592 43.3319 77.0829 43.3632C76.99 43.4437 76.894 43.5012 76.8115 43.5375C76.7181 43.6746 76.5741 43.8119 76.3526 43.8897C76.3175 43.9028 76.283 43.9104 76.2541 43.9186C76.2535 43.9242 76.2467 43.9348 76.2405 43.9398C76.0979 44.1678 75.802 44.4131 75.4054 44.3982C75.3888 44.3964 75.3667 44.3939 75.35 44.3921L75.3396 44.3853ZM93.2194 28.628C93.2194 28.628 93.1905 28.6362 93.1738 28.6344C93.1905 28.6362 93.2028 28.6262 93.2194 28.628Z" fill="black"/>
</g>
<defs>
<clipPath id="clip0_4142_11771">
<rect width="103.993" height="34.9555" fill="white" transform="translate(4.48828 1.50146) rotate(6.21955)"/>
</clipPath>
</defs>
</svg>
