<svg width="77" height="31" viewBox="0 0 77 31" fill="none" xmlns="http://www.w3.org/2000/svg">
<path d="M5.56999 1.2793H0V6.8493H5.56999V1.2793Z" fill="black"/>
<path d="M5.436 30.3223V10.2423H0.156006V30.3123H5.436V30.3223ZM40.496 30.5223V25.6023C39.856 25.6123 39.226 25.5723 38.596 25.4823C38.126 25.4323 37.686 25.2423 37.346 24.9223C37.046 24.5923 36.856 24.1723 36.786 23.7323C36.696 23.0923 36.656 22.4423 36.666 21.7923V14.7723H40.496V10.2523H36.666V2.42231H31.376V21.8323C31.346 23.2223 31.486 24.6123 31.796 25.9823C32.026 26.9723 32.506 27.8923 33.206 28.6423C33.926 29.3423 34.816 29.8423 35.786 30.0923C37.106 30.4123 38.456 30.5623 39.816 30.5323H40.496V30.5223ZM70.796 30.3223V0.862305H65.506V30.3123H70.796V30.3223ZM26.276 12.2123C24.666 10.5723 22.426 9.7023 20.126 9.8323C18.926 9.8223 17.736 10.0823 16.656 10.6023C15.636 11.1023 14.736 11.8423 14.046 12.7423L13.746 13.1223V10.2423H8.52601V30.3123H13.776V20.0023C13.696 18.4923 14.196 17.0023 15.166 15.8323C16.036 14.9123 17.246 14.3923 18.516 14.4023C19.826 14.3123 21.096 14.8223 21.986 15.7923C22.806 16.9023 23.216 18.2623 23.136 19.6423V19.6823V30.2923H28.466V18.9123C28.636 16.4823 27.846 14.0723 26.276 12.2123ZM62.766 20.2423C62.776 18.8523 62.516 17.4723 62.016 16.1723C61.516 14.9523 60.796 13.8223 59.896 12.8623C58.966 11.9023 57.856 11.1523 56.626 10.6423C55.296 10.1023 53.866 9.8323 52.426 9.8523C51.026 9.8423 49.636 10.1223 48.346 10.6623C47.116 11.1923 45.986 11.9423 45.036 12.8823C44.086 13.8323 43.336 14.9523 42.816 16.1923C42.266 17.4823 41.986 18.8723 42.006 20.2823C41.996 21.6823 42.256 23.0723 42.776 24.3623C43.276 25.5923 44.006 26.7223 44.936 27.6723C45.886 28.6323 47.026 29.3923 48.286 29.8923C49.646 30.4523 51.116 30.7423 52.586 30.7223C56.006 30.8123 59.276 29.3623 61.506 26.7723L57.696 23.8723C56.386 25.2923 54.546 26.1023 52.616 26.1123C51.316 26.1723 50.036 25.8123 48.966 25.0823C48.036 24.3923 47.366 23.4023 47.066 22.2823L47.006 22.1023H62.766V20.2423ZM47.046 18.4023C47.046 16.9323 48.736 14.3723 52.356 14.3523C55.986 14.3523 57.696 16.9123 57.696 18.3823L47.046 18.4023Z" fill="black"/>
<path d="M76.836 27.7022C76.636 27.2422 76.266 26.8722 75.806 26.6722C75.566 26.5722 75.316 26.5122 75.056 26.5122C74.796 26.5122 74.536 26.5722 74.306 26.6722C73.846 26.8722 73.476 27.2422 73.276 27.7022C73.176 27.9422 73.116 28.1922 73.116 28.4522C73.116 28.7122 73.176 28.9722 73.276 29.2022C73.476 29.6622 73.846 30.0322 74.306 30.2322C74.546 30.3322 74.796 30.3922 75.056 30.3922C75.316 30.3922 75.576 30.3322 75.806 30.2322C76.266 30.0322 76.636 29.6622 76.836 29.2022C77.046 28.7222 77.046 28.1822 76.836 27.7022ZM76.516 29.0822C76.366 29.4722 76.056 29.7822 75.666 29.9322C75.466 30.0122 75.246 30.0522 75.026 30.0522C74.806 30.0522 74.596 30.0122 74.386 29.9322C73.996 29.7822 73.686 29.4722 73.536 29.0822C73.456 28.8822 73.416 28.6622 73.416 28.4522C73.416 28.2322 73.456 28.0222 73.536 27.8222C73.686 27.4322 73.996 27.1222 74.386 26.9722C74.586 26.8922 74.806 26.8522 75.026 26.8522C75.246 26.8522 75.456 26.8922 75.666 26.9722C76.056 27.1222 76.366 27.4322 76.516 27.8222C76.596 28.0222 76.636 28.2422 76.636 28.4522C76.646 28.6722 76.606 28.8922 76.516 29.0822ZM75.406 28.6122C75.546 28.6022 75.686 28.5322 75.786 28.4322C75.896 28.3122 75.956 28.1622 75.946 27.9922C75.966 27.8022 75.886 27.6222 75.746 27.4922C75.576 27.3622 75.366 27.2922 75.156 27.3122H74.286V29.5522H74.706V28.6422H75.006L75.556 29.5522H75.996L75.406 28.6122ZM75.186 28.2922H74.686V27.6622H75.186C75.246 27.6622 75.306 27.6822 75.366 27.7022C75.416 27.7222 75.456 27.7522 75.486 27.8022C75.536 27.9122 75.536 28.0422 75.486 28.1622C75.456 28.2022 75.416 28.2322 75.366 28.2622C75.306 28.2822 75.246 28.2922 75.186 28.2922Z" fill="black"/>
</svg>
