<svg width="101" height="39" viewBox="0 0 101 39" fill="none" xmlns="http://www.w3.org/2000/svg">
<path d="M7.2486 0.54248H0V7.7911H7.2486V0.54248Z" fill="white"/>
<path d="M7.07434 38.3383V12.2068H0.203125V38.3252H7.07434V38.3383ZM52.7003 38.5985V32.1958C51.8674 32.2088 51.0475 32.1568 50.2277 32.0396C49.616 31.9746 49.0434 31.7273 48.601 31.3109C48.2105 30.8814 47.9633 30.3349 47.8722 29.7623C47.7551 28.9294 47.703 28.0835 47.716 27.2376V18.102H52.7003V12.2198H47.716V2.03013H40.8318V27.2897C40.7928 29.0986 40.9749 30.9075 41.3784 32.6903C41.6777 33.9787 42.3023 35.1759 43.2133 36.152C44.1503 37.0629 45.3085 37.7136 46.5708 38.039C48.2886 38.4554 50.0455 38.6506 51.8153 38.6115H52.7003V38.5985ZM92.1317 38.3383V0H85.2474V38.3252H92.1317V38.3383ZM34.1948 14.7705C32.0996 12.6363 29.1846 11.5041 26.1914 11.6733C24.6298 11.6602 23.0812 11.9986 21.6757 12.6753C20.3483 13.326 19.177 14.289 18.2791 15.4602L17.8887 15.9548V12.2068H11.0956V38.3252H17.9277V24.9082C17.8236 22.9431 18.4743 21.0041 19.7366 19.4815C20.8688 18.2842 22.4435 17.6075 24.0962 17.6205C25.801 17.5034 27.4537 18.1671 28.612 19.4294C29.6791 20.8739 30.2126 22.6438 30.1085 24.4397V24.4917V38.2992H37.0448V23.4897C37.266 20.3273 36.238 17.1911 34.1948 14.7705ZM81.6817 25.2205C81.6947 23.4116 81.3564 21.6157 80.7057 19.9239C80.055 18.3363 79.118 16.8657 77.9468 15.6164C76.7365 14.3671 75.292 13.3911 73.6913 12.7274C71.9605 12.0246 70.0995 11.6733 68.2256 11.6993C66.4036 11.6863 64.5947 12.0507 62.916 12.7534C61.3153 13.4431 59.8448 14.4191 58.6085 15.6424C57.3722 16.8787 56.3961 18.3363 55.7194 19.95C55.0037 21.6287 54.6393 23.4376 54.6653 25.2725C54.6523 27.0945 54.9907 28.9034 55.6674 30.5821C56.3181 32.1828 57.2681 33.6533 58.4783 34.8896C59.7146 36.139 61.1982 37.128 62.8379 37.7787C64.6078 38.5074 66.5208 38.8848 68.4338 38.8588C72.8845 38.9759 77.1399 37.089 80.042 33.7184L75.0838 29.9444C73.379 31.7924 70.9845 32.8465 68.4728 32.8595C66.781 32.9376 65.1153 32.4691 63.7228 31.5191C62.5126 30.6212 61.6407 29.3328 61.2502 27.8753L61.1722 27.641H81.6817V25.2205ZM61.2242 22.826C61.2242 20.913 63.4235 17.5815 68.1345 17.5554C72.8584 17.5554 75.0838 20.8869 75.0838 22.7999L61.2242 22.826Z" fill="white"/>
<path d="M99.9919 34.9285C99.7317 34.3299 99.2502 33.8484 98.6515 33.5881C98.3392 33.458 98.0139 33.3799 97.6755 33.3799C97.3372 33.3799 96.9988 33.458 96.6995 33.5881C96.1009 33.8484 95.6194 34.3299 95.3591 34.9285C95.2289 35.2408 95.1509 35.5662 95.1509 35.9045C95.1509 36.2429 95.2289 36.5812 95.3591 36.8806C95.6194 37.4792 96.1009 37.9607 96.6995 38.221C97.0118 38.3511 97.3372 38.4292 97.6755 38.4292C98.0139 38.4292 98.3522 38.3511 98.6515 38.221C99.2502 37.9607 99.7317 37.4792 99.9919 36.8806C100.265 36.2559 100.265 35.5532 99.9919 34.9285ZM99.5755 36.7244C99.3803 37.2319 98.9769 37.6354 98.4693 37.8306C98.2091 37.9347 97.9228 37.9867 97.6365 37.9867C97.3502 37.9867 97.0769 37.9347 96.8036 37.8306C96.2961 37.6354 95.8927 37.2319 95.6975 36.7244C95.5933 36.4641 95.5413 36.1778 95.5413 35.9045C95.5413 35.6182 95.5933 35.3449 95.6975 35.0847C95.8927 34.5771 96.2961 34.1737 96.8036 33.9785C97.0639 33.8744 97.3502 33.8223 97.6365 33.8223C97.9228 33.8223 98.1961 33.8744 98.4693 33.9785C98.9769 34.1737 99.3803 34.5771 99.5755 35.0847C99.6796 35.3449 99.7317 35.6313 99.7317 35.9045C99.7447 36.1908 99.6926 36.4771 99.5755 36.7244ZM98.131 36.1128C98.3132 36.0997 98.4954 36.0086 98.6255 35.8785C98.7687 35.7223 98.8467 35.5271 98.8337 35.3059C98.8598 35.0586 98.7557 34.8244 98.5735 34.6552C98.3522 34.486 98.0789 34.3949 97.8057 34.421H96.6735V37.336H97.22V36.1518H97.6105L98.3262 37.336H98.8988L98.131 36.1128ZM97.8447 35.6963H97.194V34.8765H97.8447C97.9228 34.8765 98.0009 34.9025 98.079 34.9285C98.144 34.9545 98.1961 34.9936 98.2351 35.0586C98.3002 35.2018 98.3002 35.371 98.2351 35.5271C98.1961 35.5792 98.144 35.6182 98.079 35.6573C98.0009 35.6833 97.9228 35.6963 97.8447 35.6963Z" fill="white"/>
</svg>
