<svg width="95" height="39" viewBox="0 0 95 39" fill="none" xmlns="http://www.w3.org/2000/svg">
<g id="iTero">
<path id="Path_148" d="M93.7099 19.1654C93.5985 19.3883 93.4871 19.6111 93.2642 19.834C93.0414 20.0568 92.8185 20.1682 92.5957 20.2797C92.15 20.5025 91.5928 20.5025 91.0357 20.2797C90.8128 20.1682 90.59 20.0568 90.3671 19.834C90.1443 19.6111 90.0329 19.3883 89.9214 19.1654C89.6986 18.7197 89.6986 18.1626 89.9214 17.6054C90.0329 17.3826 90.1443 17.1597 90.3671 16.9369C90.59 16.714 90.8128 16.6026 91.0357 16.4912C91.4814 16.2683 92.0385 16.2683 92.5957 16.4912C92.8185 16.6026 93.0414 16.714 93.2642 16.9369C93.4871 17.1597 93.5985 17.3826 93.7099 17.6054C93.9328 18.1626 93.9328 18.6083 93.7099 19.1654ZM94.0442 17.494C93.9328 17.1597 93.7099 16.9369 93.4871 16.714C93.2642 16.4912 93.0414 16.2683 92.7071 16.1569C92.15 15.934 91.4814 15.934 90.8129 16.1569C90.4786 16.2683 90.2557 16.4912 90.0329 16.714C89.81 16.9369 89.5872 17.1597 89.4757 17.494C89.2529 18.0511 89.2529 18.7197 89.4757 19.3883C89.5872 19.7225 89.81 19.9454 90.0329 20.1682C90.2557 20.3911 90.4786 20.614 90.8129 20.7254C91.37 20.9482 92.0385 20.9482 92.7071 20.7254C93.0414 20.614 93.2642 20.3911 93.4871 20.1682C93.7099 19.9454 93.9328 19.7225 94.0442 19.3883C94.3785 18.7197 94.3785 18.0511 94.0442 17.494Z" fill="#fff"/>
<path id="Path_149" d="M92.0385 18.1625C91.9271 18.1625 91.9271 18.1625 91.8156 18.1625H91.4813V17.4939H92.0385C92.1499 17.4939 92.1499 17.4939 92.2613 17.4939C92.2613 17.4939 92.3728 17.4939 92.3728 17.6054C92.4842 17.7168 92.4842 17.8282 92.3728 17.9397L92.2613 18.0511C92.1499 18.1625 92.1499 18.1625 92.0385 18.1625ZM92.2613 18.6082C92.3728 18.6082 92.5956 18.4968 92.707 18.3854C92.8185 18.2739 92.9299 18.0511 92.9299 17.9397C92.9299 17.7168 92.8185 17.4939 92.707 17.3825C92.4842 17.2711 92.2613 17.1597 92.0385 17.1597H91.0356V19.6111H91.4813V18.6082H91.8156L92.3728 19.6111H92.8185L92.2613 18.6082Z" fill="#fff"/>
<path id="Path_150" d="M88.027 27.5223C88.027 24.5138 86.8013 21.6167 84.6842 19.4996C79.8929 14.9311 72.4273 14.9311 67.7474 19.4996C63.4017 23.9567 63.2903 31.088 67.6359 35.6565C72.4273 40.1136 80.0043 40.1136 84.7956 35.6565C86.9128 33.428 88.027 30.5309 88.027 27.5223ZM82.6785 27.5223C82.5671 31.088 79.67 33.9851 76.1044 33.9851C72.5387 33.8737 69.6416 30.9766 69.6416 27.4109C69.6416 25.7395 70.4216 24.0681 71.5359 22.8424C72.7616 21.6167 74.433 20.9482 76.1044 20.9482C77.7758 20.9482 79.4472 21.6167 80.6729 22.8424C82.01 24.0681 82.79 25.7395 82.6785 27.5223ZM55.8247 22.0624H62.2875V16.6025H50.3648V38.665H55.8247V22.0624ZM28.6366 29.6395H45.9077V28.8595C46.0192 25.5167 44.9049 22.1739 42.6764 19.611C40.5593 17.2711 37.5507 15.934 34.3194 16.0454C31.1994 15.934 28.1909 17.2711 26.0738 19.4996C24.0681 21.7282 22.9538 24.5138 22.9538 27.5223C22.9538 30.4194 24.0681 33.3165 25.9624 35.4336C28.3023 37.7736 31.5337 39.1107 34.7651 38.9993C38.3307 38.9993 41.785 37.4393 44.1249 34.7651L40.5593 31.1994C39.1107 32.9823 36.9936 34.0965 34.6537 34.2079C32.9823 34.2079 31.4223 33.6508 30.1966 32.648C29.6395 31.868 28.9709 30.7537 28.6366 29.6395ZM28.6366 25.1824C29.3052 22.5081 31.7566 20.7253 34.4308 20.9482C37.105 20.8367 39.5564 22.6196 40.225 25.1824H28.6366ZM18.6082 11.0312H26.1852V5.57129H5.57129V11.0312H13.1483V38.5536H18.6082V11.0312Z" fill="#fff"/>
<path id="Path_151" d="M55.8247 22.0624H62.2874V16.6025H50.3647V38.665H55.8247V22.0624Z" fill="#fff"/>
<path id="Rectangle_39" d="M5.4599 16.4912H0V38.5537H5.4599V16.4912Z" fill="#fff"/>
<path id="Rectangle_40" d="M5.4599 0H0V5.45991H5.4599V0Z" fill="#fff"/>
</g>
</svg>
