<svg width="40" height="40" viewBox="0 0 40 40" fill="none" xmlns="http://www.w3.org/2000/svg">
<g clip-path="url(#clip0_4331_2167)">
<path fill-rule="evenodd" clip-rule="evenodd" d="M15.5509 28.5399V15.6662H11.2725V28.5398H15.5509V28.5399ZM13.4121 13.9092C14.9037 13.9092 15.8328 12.9198 15.8328 11.6845C15.8046 10.4217 14.9037 9.46021 13.4401 9.46021C11.9763 9.46024 11.0195 10.4217 11.0195 11.6845C11.0195 12.9199 11.9481 13.9092 13.384 13.9092L13.4121 13.9092ZM17.9189 28.5399C17.9189 28.5399 17.975 16.8741 17.9189 15.6663H22.198V17.5332H22.1696C22.7323 16.6547 23.746 15.364 26.054 15.364C28.8698 15.364 30.9804 17.2039 30.9804 21.1582V28.5399H26.702V21.6529C26.702 19.9224 26.0829 18.7415 24.5341 18.7415C23.3523 18.7415 22.648 19.5376 22.3387 20.3071C22.2256 20.581 22.198 20.9658 22.198 21.3505V28.5399H17.9189Z" fill="black"/>
</g>
<circle cx="20" cy="20" r="19" stroke="black" stroke-width="2"/>
<defs>
<clipPath id="clip0_4331_2167">
<rect width="20" height="20" fill="white" transform="translate(11 9)"/>
</clipPath>
</defs>
</svg>
