<svg width="149" height="39" viewBox="0 0 149 39" fill="none" xmlns="http://www.w3.org/2000/svg">
<path d="M17.1794 7.62793V2.75293H2.27942V36.2471H17.1794V31.3721C14.1271 31.3721 11.1998 30.1212 9.04162 27.8948C6.88334 25.6683 5.67084 22.6487 5.67084 19.5C5.67084 16.3513 6.88334 13.3316 9.04162 11.1052C11.1998 8.87874 14.1271 7.62793 17.1794 7.62793Z" fill="black"/>
<path d="M17.1794 7.62793V31.3721C20.2317 31.3721 23.159 30.1212 25.3173 27.8948C27.4756 25.6683 28.688 22.6487 28.688 19.5C28.688 16.3513 27.4756 13.3316 25.3173 11.1052C23.159 8.87874 20.2317 7.62793 17.1794 7.62793Z" fill="black"/>
<path d="M37.0498 10.6104H40.3856V27.1854H37.0498V10.6104Z" fill="black"/>
<path d="M42.2537 21.5074C42.2537 20.3149 42.597 19.1493 43.2399 18.1582C43.8828 17.1672 44.7965 16.3953 45.8652 15.9405C46.9339 15.4858 48.1093 15.3686 49.2426 15.6037C50.3759 15.8389 51.416 16.4158 52.231 17.2615C53.0461 18.1072 53.5995 19.1833 53.821 20.3538C54.0424 21.5243 53.9221 22.7361 53.4751 23.8359C53.0281 24.9356 52.2747 25.8738 51.3103 26.5313C50.346 27.1889 49.214 27.5362 48.058 27.5295C47.2913 27.5357 46.5311 27.3839 45.822 27.0829C45.1129 26.782 44.4691 26.3381 43.9285 25.7773C43.3879 25.2164 42.9613 24.5497 42.6737 23.8165C42.3861 23.0833 42.2434 22.2983 42.2537 21.5074ZM50.6155 21.5074C50.6024 20.9933 50.4426 20.4946 50.1561 20.0737C49.8697 19.6527 49.4694 19.3282 49.0051 19.1408C48.5408 18.9534 48.0333 18.9113 47.5461 19.0199C47.0587 19.1284 46.6133 19.3827 46.2654 19.7511C45.9174 20.1195 45.6825 20.5854 45.59 21.0908C45.4975 21.5962 45.5514 22.1184 45.7451 22.5923C45.9388 23.0661 46.2636 23.4707 46.679 23.7551C47.0943 24.0395 47.5817 24.1913 48.0803 24.1915C48.4197 24.1984 48.7569 24.1329 49.0707 23.9992C49.3845 23.8655 49.6681 23.6665 49.904 23.4146C50.1398 23.1627 50.3227 22.8632 50.4414 22.5352C50.56 22.207 50.6117 21.8571 50.5933 21.5074H50.6155Z" fill="black"/>
<path d="M67.0612 15.8294V26.6232C67.0612 30.4314 64.1701 32.0488 61.2457 32.0488C60.2142 32.1361 59.1795 31.9247 58.2583 31.4383C57.3369 30.952 56.5655 30.2099 56.0307 29.2958L58.8439 27.6211C59.0719 28.0953 59.4345 28.4865 59.8835 28.7426C60.3325 28.9988 60.8464 29.1077 61.3569 29.055C61.6822 29.0963 62.0122 29.063 62.3234 28.9575C62.6348 28.8518 62.9195 28.6767 63.1575 28.4443C63.3956 28.2119 63.5808 27.9282 63.7001 27.6133C63.8194 27.2986 63.8698 26.9604 63.8477 26.6232V25.5794C63.4595 26.0649 62.9669 26.4503 62.4092 26.7052C61.8513 26.9601 61.2436 27.0773 60.6342 27.0476C59.1596 27.0476 57.7456 26.4433 56.7029 25.3677C55.6602 24.2923 55.0745 22.8334 55.0745 21.3123C55.0745 19.7912 55.6602 18.3325 56.7029 17.2569C57.7456 16.1813 59.1596 15.577 60.6342 15.577C61.2436 15.5473 61.8513 15.6645 62.4092 15.9194C62.9669 16.1743 63.4595 16.5597 63.8477 17.0453V15.8982L67.0612 15.8294ZM63.8477 21.2779C63.8698 20.7292 63.7324 20.186 63.4529 19.7185C63.1735 19.2509 62.765 18.8803 62.2796 18.6542C61.7944 18.4282 61.2547 18.357 60.7299 18.4499C60.2052 18.5429 59.7193 18.7956 59.3349 19.1756C58.9505 19.5556 58.685 20.0456 58.5727 20.5826C58.4604 21.1195 58.5064 21.6787 58.7046 22.1884C58.903 22.6982 59.2446 23.1351 59.6855 23.443C60.1265 23.7509 60.6466 23.9157 61.179 23.9161C61.5265 23.942 61.8753 23.8923 62.2029 23.7705C62.5306 23.6485 62.8299 23.4571 63.0813 23.2084C63.3328 22.9598 63.531 22.6595 63.663 22.327C63.795 21.9945 63.8579 21.6371 63.8477 21.2779Z" fill="black"/>
<path d="M68.9403 21.5073C68.9403 20.3157 69.283 19.151 69.925 18.1604C70.5669 17.1698 71.4792 16.398 72.5466 15.9426C73.6139 15.4871 74.7882 15.3685 75.921 15.6018C77.0537 15.8351 78.0938 16.4098 78.9099 17.2531C79.7258 18.0965 80.2809 19.1706 80.5048 20.3395C80.7289 21.5085 80.6117 22.7196 80.1681 23.8198C79.7246 24.92 78.9746 25.8597 78.0132 26.5201C77.0517 27.1804 75.922 27.5317 74.7669 27.5294C73.9988 27.5371 73.2368 27.3864 72.5258 27.0864C71.8148 26.7863 71.169 26.3429 70.6264 25.7819C70.0836 25.221 69.655 24.554 69.3654 23.82C69.076 23.086 68.9314 22.2997 68.9403 21.5073ZM77.3021 21.5073C77.289 20.9927 77.1289 20.4935 76.842 20.0723C76.5551 19.6513 76.154 19.3268 75.6891 19.1397C75.2242 18.9526 74.7162 18.9112 74.2286 19.0207C73.741 19.1301 73.2956 19.3857 72.9481 19.7552C72.6006 20.1246 72.3665 20.5917 72.2754 21.0978C72.1841 21.6039 72.2396 22.1265 72.4349 22.6001C72.6303 23.0738 72.9569 23.4775 73.3737 23.7606C73.7905 24.0436 74.279 24.1935 74.778 24.1914C75.1175 24.1983 75.4546 24.1328 75.7684 23.9991C76.0822 23.8654 76.3659 23.6664 76.6017 23.4145C76.8375 23.1626 77.0205 22.8631 77.1391 22.5351C77.2578 22.2069 77.3095 21.857 77.291 21.5073H77.3021Z" fill="black"/>
<path d="M82.139 12.7897C82.139 12.3859 82.2551 11.9911 82.4726 11.6554C82.6901 11.3196 82.9992 11.0579 83.3608 10.9033C83.7226 10.7488 84.1205 10.7084 84.5045 10.7872C84.8883 10.8659 85.241 11.0604 85.5179 11.3459C85.7946 11.6315 85.9831 11.9954 86.0595 12.3913C86.1359 12.7874 86.0967 13.1979 85.9469 13.5711C85.7971 13.9441 85.5434 14.263 85.2179 14.4873C84.8924 14.7117 84.5098 14.8315 84.1183 14.8315C83.5951 14.8255 83.0951 14.6085 82.7251 14.2268C82.3552 13.8452 82.1448 13.3294 82.139 12.7897ZM82.4615 15.8294H85.7973V27.1853H82.4615V15.8294Z" fill="black"/>
<path d="M100.075 21.5074C100.112 22.2626 100.004 23.0181 99.7575 23.7301C99.5108 24.4422 99.13 25.097 98.6371 25.6566C98.144 26.2164 97.5487 26.6699 96.8851 26.9913C96.2216 27.3128 95.503 27.4956 94.7706 27.5294C94.1492 27.5721 93.5264 27.4694 92.9488 27.2291C92.3712 26.9887 91.8537 26.617 91.4348 26.1415V31.7506H88.099V15.8294H91.4348V16.8962C91.8542 16.4221 92.3722 16.0521 92.9498 15.8137C93.5275 15.5752 94.15 15.4748 94.7706 15.5197C95.5001 15.5536 96.2158 15.7354 96.8771 16.0546C97.5384 16.3738 98.1323 16.8244 98.6247 17.3804C99.1173 17.9364 99.4988 18.587 99.7476 19.2952C99.9963 20.0032 100.108 20.7549 100.075 21.5074ZM96.7388 21.5074C96.7256 20.9746 96.5603 20.4577 96.2636 20.0215C95.967 19.5853 95.552 19.2489 95.0709 19.055C94.5897 18.8609 94.0638 18.8178 93.5588 18.9307C93.054 19.0437 92.5928 19.308 92.2329 19.6903C91.8729 20.0726 91.6304 20.556 91.5358 21.08C91.441 21.6038 91.4983 22.1449 91.7005 22.6354C91.9026 23.1258 92.2405 23.5437 92.672 23.8369C93.1034 24.1301 93.6091 24.2853 94.1257 24.2833C94.4795 24.2987 94.8326 24.2369 95.1616 24.1018C95.4907 23.9667 95.7884 23.7613 96.0351 23.4992C96.2819 23.2371 96.472 22.9241 96.5933 22.5809C96.7146 22.2376 96.7641 21.8718 96.7388 21.5074Z" fill="black"/>
<path d="M110.227 23.7786C110.227 26.3939 108.003 27.5065 105.645 27.5065C104.684 27.5958 103.719 27.3855 102.874 26.9029C102.03 26.4204 101.345 25.6876 100.909 24.7995L103.777 23.1248C103.891 23.534 104.137 23.8907 104.475 24.135C104.813 24.3793 105.223 24.4964 105.634 24.4668C106.424 24.4668 106.824 24.2145 106.824 23.7556C106.824 22.5054 101.409 23.1706 101.409 19.2362C101.409 16.7586 103.433 15.5198 105.723 15.5198C106.594 15.4795 107.459 15.6833 108.226 16.1095C108.994 16.5356 109.635 17.1682 110.082 17.9401L107.213 19.5001C107.087 19.2041 106.879 18.9525 106.617 18.7753C106.355 18.5982 106.048 18.5034 105.734 18.5021C105.156 18.5021 104.811 18.7315 104.811 19.133C104.811 20.4406 110.227 19.5804 110.227 23.7786Z" fill="black"/>
<path d="M122.313 15.8295V27.1854H118.978V26.1186C118.598 26.5908 118.117 26.9644 117.573 27.2096C117.028 27.4547 116.436 27.5642 115.842 27.5295C113.618 27.5295 111.717 25.8892 111.717 22.8265V15.8295H115.052V22.3104C115.026 22.5813 115.057 22.8549 115.144 23.1123C115.23 23.3695 115.369 23.6045 115.552 23.8008C115.735 23.9971 115.958 24.1501 116.203 24.2493C116.449 24.3484 116.713 24.3913 116.976 24.3751C118.177 24.3751 119.022 23.6409 119.022 22.0809V15.8295H122.313Z" fill="black"/>
<path d="M141.216 20.2112V27.1853H137.881V20.5094C137.881 19.3624 137.358 18.6512 136.302 18.6512C135.245 18.6512 134.578 19.4427 134.578 20.7847V27.1853H131.242V20.5094C131.242 19.3624 130.72 18.6512 129.663 18.6512C128.607 18.6512 127.94 19.4427 127.94 20.7847V27.1853H124.604V15.8294H127.94V16.8733C128.286 16.4121 128.736 16.0469 129.253 15.8106C129.769 15.5743 130.335 15.4743 130.898 15.5197C131.461 15.4893 132.024 15.6109 132.529 15.8723C133.034 16.1338 133.464 16.5262 133.778 17.0109C134.144 16.5044 134.629 16.102 135.187 15.8413C135.745 15.5804 136.358 15.4698 136.969 15.5197C139.571 15.5197 141.216 17.378 141.216 20.2112Z" fill="black"/>
<path d="M144.019 15.7606C145.37 15.7606 146.465 14.6307 146.465 13.237C146.465 11.8434 145.37 10.7135 144.019 10.7135C142.668 10.7135 141.572 11.8434 141.572 13.237C141.572 14.6307 142.668 15.7606 144.019 15.7606Z" fill="black"/>
</svg>
