<svg width="46" height="55" viewBox="0 0 46 55" fill="none" xmlns="http://www.w3.org/2000/svg">
<path d="M20.4047 36.5452C20.2707 36.558 20.1368 36.5771 19.9199 36.5963C19.4414 37.2406 18.7588 37.8594 18.4781 38.7525C18.459 38.8036 18.4271 38.861 18.3824 38.8929C18.1719 39.0588 17.9614 39.2246 17.7508 39.3905C17.6615 39.4607 17.585 39.5819 17.4829 39.6202C17.1639 39.7222 17.1639 39.9965 17.1001 40.2517C17.0746 40.3666 17.0491 40.4941 16.9725 40.5835C15.2501 42.6887 13.5085 44.7811 11.8116 46.9055C11.416 47.4031 11.0141 47.9964 10.8929 48.6024C10.6505 49.8145 9.83392 50.5609 9.04287 51.3584C8.67286 51.7284 8.31562 52.1112 7.93285 52.4557C7.77336 52.596 7.55645 52.6726 7.36507 52.781C7.34593 52.7491 7.32042 52.7172 7.30129 52.6853C7.3587 52.6151 7.41611 52.545 7.49905 52.4429C7.40336 52.462 7.33318 52.4812 7.18007 52.5131C7.29491 52.3919 7.35869 52.3153 7.48628 52.1813C7.24386 52.1558 7.05249 52.1303 6.82283 52.1048V51.7794C6.25505 51.5689 5.89141 52.0665 5.41295 52.277C5.48312 52.2962 5.55331 52.3217 5.62348 52.3281C5.70004 52.3344 5.77658 52.3281 5.834 52.3281C5.80848 52.5067 5.78296 52.6726 5.75745 52.832H6.28693C6.204 52.9214 6.14021 52.9915 6.07642 53.0617C6.33798 53.2786 5.99349 53.3169 5.96159 53.4827C6.02539 53.4827 6.0828 53.4764 6.14022 53.4827C6.18487 53.4891 6.22315 53.5146 6.26143 53.5338C6.23591 53.5784 6.22314 53.6295 6.19124 53.6678C6.11469 53.7634 6.03176 53.8591 5.93607 53.9293C5.834 54.0059 5.70642 54.1271 5.60434 54.1143C4.13707 53.974 2.77823 53.5529 1.62354 52.6024C0.858004 51.9708 0.220069 51.2436 0.0605822 50.2165C-0.15632 48.8321 0.20092 47.6455 1.26629 46.6758C1.70648 46.2739 2.06372 45.7827 2.45925 45.3362C4.17533 43.4032 5.89142 41.4702 7.61387 39.55C7.97112 39.1481 8.24544 38.7143 8.46872 38.223C8.67286 37.7637 8.97269 37.3427 9.25977 36.9216C9.68081 36.3092 10.1146 35.6968 10.5612 35.1035C10.8993 34.6633 11.2821 34.255 11.6266 33.8212C12.105 33.2215 12.5898 32.6283 13.0237 31.9967C13.9232 30.6889 14.7461 29.3301 15.7668 28.1116C16.5324 27.1929 17.2533 26.2296 17.9869 25.2855C18.1017 25.1388 18.2166 24.9856 18.3059 24.8262C19.1097 23.327 20.2516 22.0702 21.2596 20.7178C23.0267 18.3446 24.7172 15.914 26.5545 13.5983C27.352 12.5903 28.092 11.5377 28.9596 10.5808C30.4013 8.98593 31.875 7.41658 33.1062 5.64308C33.623 4.90306 34.2609 4.25236 34.8223 3.54424C35.3072 2.93181 35.7218 2.26196 36.2258 1.66229C36.9148 0.839341 37.7441 0.195015 38.8541 0.0546664C39.843 -0.0729231 40.7871 -0.0218873 41.5973 0.698993C42.1332 1.17107 42.7201 1.59212 43.2751 2.04506C44.1044 2.72129 44.3979 3.65269 44.4681 4.6734C44.5191 5.4198 44.3086 6.07051 43.8748 6.71484C43.1539 7.78659 42.5032 8.91575 41.8908 10.0513C41.0678 11.5824 40.3533 13.1709 39.4985 14.6764C38.9562 15.6397 38.2928 16.5392 37.6038 17.4005C35.186 20.4243 32.7299 23.4163 30.3057 26.4338C29.7443 27.1355 29.1318 27.7671 28.4046 28.3093C28.0218 28.59 27.6582 28.9409 27.3838 29.3237C27.1032 29.7192 26.7778 30.102 26.6949 30.6251C26.6183 31.0717 26.5099 31.1099 26.0569 31.0972C26.0059 31.0972 25.8974 31.1992 25.9038 31.2439C26.0123 32.035 25.3679 32.3795 24.966 32.8707C24.864 32.9983 24.7619 33.1322 24.6598 33.2662C24.5003 33.4703 24.3217 33.4703 24.1239 33.3172C23.9581 33.1896 23.7858 33.0621 23.6008 32.9217C23.2946 33.1705 23.2691 33.4065 23.5434 33.7638C23.8943 34.204 23.9007 34.2104 23.5306 34.6505C20.6152 38.1082 17.6998 41.5659 14.7844 45.0172C14.1528 45.7636 13.4957 46.4972 12.8514 47.2372L12.7749 47.1862C12.979 46.8928 13.1449 46.561 13.4001 46.3186C13.6106 46.1208 13.6425 46.0124 13.4192 45.8338C14.038 45.0299 14.6696 44.2389 15.2629 43.4223C16.0539 42.3314 16.8195 41.2278 17.585 40.1178C17.719 39.9264 17.8338 39.8052 18.0635 40.0093C18.5929 38.6696 19.4669 37.5851 20.4047 36.5452C20.9087 36.0221 21.4063 35.499 21.9166 34.9631C21.7699 34.8866 21.6615 34.8355 21.4828 34.7462C21.3425 35.0142 21.1958 35.2821 21.049 35.55C20.9533 35.7223 20.8768 35.9073 20.7492 36.0476C20.679 36.1306 20.5195 36.1306 20.3218 36.1944C20.3345 36.2582 20.3728 36.4049 20.4047 36.5516V36.5452ZM22.4398 33.3619C22.2675 33.5469 22.3377 33.9552 22.5546 34.3316C22.5163 34.0062 22.4844 33.7128 22.4398 33.3619Z" fill="black"/>
<path d="M42.9882 33.7637C42.9244 33.8977 42.8606 34.038 42.7713 34.223C42.8797 34.223 43.0137 34.2103 43.2115 34.1975C43.2625 34.2486 43.3773 34.3443 43.5304 34.4782C43.4794 34.3698 43.4603 34.3187 43.422 34.2358C43.5177 34.2741 43.5878 34.2996 43.658 34.3315C43.6772 34.3124 43.6899 34.2932 43.709 34.2677C43.6006 34.172 43.4922 34.0699 43.3837 33.9742C43.2689 33.8786 43.0902 33.8084 43.3135 33.6298C43.4603 33.7829 43.6006 33.936 43.7282 34.0699C43.792 34.0189 43.8558 33.9487 43.8749 33.9615C44.0153 34.0317 44.162 34.0891 44.2704 34.1975C45.6165 35.5308 46.1269 37.1895 45.9738 39.0332C45.8972 39.9263 45.6548 40.8067 45.4889 41.6934C45.4698 41.7891 45.4315 41.8784 45.406 41.9677C45.3805 41.9677 45.355 41.9677 45.3294 41.9613C45.3422 41.7253 45.355 41.4829 45.3741 41.1958C45.3422 41.1767 45.2529 41.1192 45.1572 41.0618C45.1891 40.7237 45.221 40.3792 45.2593 40.0411C45.3486 39.282 45.2401 38.5547 44.9913 37.8402C44.902 37.5914 44.902 37.5914 45.1827 37.4511C44.4554 36.8322 44.2704 35.8945 43.7473 35.1162C43.6453 35.231 43.5623 35.3267 43.4347 35.467C43.5815 35.5245 43.6835 35.5755 43.7984 35.6138C44.0536 35.7031 44.0663 35.7605 43.8877 36.0029C43.9706 35.9902 44.0344 35.9774 44.1684 35.9583C44.0854 36.0667 44.0344 36.1305 43.9515 36.2326C44.1492 36.5133 44.3534 36.8195 44.5958 37.1576C44.5703 37.2979 44.5384 37.5148 44.4937 37.7636C44.481 37.7381 44.4874 37.7636 44.4937 37.77C44.7999 37.8849 44.7999 38.1209 44.7936 38.4016C44.7553 39.8115 44.5958 41.1958 44.1811 42.5483C44.1556 42.6248 44.1429 42.7269 44.1684 42.8034C44.3087 43.2053 44.1875 43.5498 43.977 43.8943C43.7154 44.3217 43.4602 44.7492 43.2115 45.1766C43.1732 45.2468 43.1604 45.3361 43.1349 45.4126C43.0583 45.6551 42.9754 45.8911 42.9052 46.1335C42.867 46.2611 42.867 46.4015 42.8414 46.529C42.8223 46.6311 42.8351 46.7715 42.7713 46.8416C41.9675 47.773 41.1317 48.6725 40.3471 49.6167C39.0648 51.1605 37.4316 52.1876 35.6326 53.017C34.5417 53.5209 33.4636 54.076 32.4046 54.6501C32.0346 54.8543 31.6582 54.8543 31.2755 54.8543C30.8353 54.8543 30.4015 54.7586 29.9613 54.7267C29.7508 54.7075 29.5275 54.7586 29.317 54.7394C28.5259 54.682 27.8624 54.312 27.199 53.9101C26.644 53.572 26.0762 53.2594 25.5276 52.9213C25.3744 52.8256 25.2405 52.6852 25.1256 52.5385C23.9008 51.084 23.097 49.4253 22.9375 47.5179C22.8482 46.4397 22.9566 45.3552 23.3777 44.3217C23.652 43.6519 23.786 42.9246 24.0858 42.2676C24.5643 41.2213 24.6663 40.0922 24.9534 39.0076C25.1065 38.4399 25.4 37.904 25.6488 37.3617C25.7062 37.2342 25.8082 37.1002 25.9231 37.0236C26.3441 36.7621 26.5738 36.3665 26.6886 35.9136C26.8736 35.1544 27.4159 34.6249 27.8688 34.038C27.9007 33.9934 27.9581 33.9551 28.0092 33.936C29.2787 33.3937 30.2739 32.507 31.1224 31.4352C31.5498 30.8993 31.9772 30.3698 32.7236 30.2167C33.6167 30.0317 34.4907 30.07 35.32 30.4336C35.7602 30.625 36.1558 30.9057 36.5832 31.129C36.7363 31.2119 36.9213 31.263 37.0935 31.2757C37.8527 31.3395 38.6182 31.3906 39.3838 31.4416C39.7984 31.4671 40.1302 31.6649 40.4236 31.9328C40.7936 32.2645 41.2147 32.4304 41.7187 32.3985C41.7825 32.3985 41.8781 32.4368 41.9228 32.4878C42.0887 32.6728 42.2482 32.8706 42.4268 33.0939C42.3502 33.0939 42.3056 33.0875 42.2163 33.0811C42.497 33.3299 42.7458 33.5468 42.9946 33.7701L42.9882 33.7637ZM30.0889 47.5817C30.1272 47.6008 30.1654 47.6136 30.2037 47.6327C30.376 47.5434 30.5546 47.4668 30.7141 47.3584C31.1415 47.0777 31.5434 46.7268 32.1112 46.7778C32.175 46.7778 32.2515 46.7523 32.3026 46.7077C32.6407 46.4334 33.0489 46.2292 33.2403 45.8018C33.3679 45.5147 33.5019 45.2276 33.6742 44.9661C33.7826 44.8066 33.9676 44.5833 34.1143 44.5897C34.4078 44.6088 34.478 44.4876 34.5099 44.2516C34.5737 43.8178 34.8225 43.6072 35.2499 43.6009C35.3392 43.6009 35.4285 43.5945 35.5114 43.5753C35.9325 43.4733 36.194 43.0267 36.1175 42.4717C36.0856 42.242 36.1494 42.0825 36.2642 41.9039C36.6661 41.2724 37.0361 40.628 37.438 39.9965C37.5146 39.8753 37.6613 39.7604 37.8017 39.7158C38.1717 39.5882 38.2163 39.4606 37.9612 39.1608C37.9356 39.1352 37.9165 39.1033 37.8718 39.0395C37.993 39.0523 38.076 39.0587 38.0824 39.0587C38.0569 38.9311 37.9867 38.7971 38.0122 38.6823C38.0696 38.459 38.2546 38.5483 38.4013 38.593C38.6182 38.6632 38.8351 38.7333 39.0584 38.8035C38.3567 38.4016 37.6486 38.0571 36.7937 38.408C36.8958 38.7333 36.749 38.8801 36.4492 38.9566C36.092 39.0523 35.7411 39.1863 35.3838 39.3011C35.1669 39.3713 34.9437 39.4351 34.7204 39.5052C34.7076 39.467 34.6949 39.4287 34.6885 39.384C34.8416 39.3394 34.9947 39.2883 35.1478 39.2437C35.1733 39.2692 35.1988 39.2883 35.2244 39.3139C35.2626 39.1608 35.3009 39.0013 35.3456 38.8482C35.3583 38.7971 35.403 38.7461 35.4413 38.7142C35.7602 38.459 36.0856 38.2166 36.4173 37.9614C36.4365 37.9806 36.4811 38.0188 36.5321 38.0635C36.7108 37.6169 36.832 37.5404 37.2913 37.5276C37.4189 37.5276 37.5529 37.4957 37.6677 37.483C37.5146 37.3554 37.4125 37.2724 37.3104 37.1895C37.2722 37.2661 37.2339 37.349 37.1829 37.4638C37.0808 37.3809 37.0042 37.3235 36.9213 37.2597C36.8766 37.2086 36.8384 37.164 36.7937 37.1129C36.6725 37.2405 36.5513 37.3681 36.4237 37.4957C36.462 37.5276 36.5003 37.5659 36.5385 37.5978C36.4365 37.5723 36.328 37.5404 36.2259 37.5085C36.2132 37.6105 36.2068 37.6999 36.194 37.7828C36.1813 37.7636 36.1621 37.7445 36.1494 37.719C35.69 37.955 35.2244 38.1783 34.7714 38.4271C34.6694 38.4781 34.5673 38.5802 34.529 38.6823C34.4588 38.8737 34.3567 38.912 34.1654 38.8737C33.7252 38.778 33.419 38.9694 33.2786 39.4032C32.9405 39.3394 32.6024 39.2883 32.2643 39.2182C32.0219 39.1735 31.8815 39.2373 31.7986 39.4861C31.5434 40.2644 31.1861 40.9853 30.7077 41.6551C30.4334 42.0379 30.2739 42.51 30.1208 42.9565C30.0123 43.2819 30.0059 43.6328 30.2165 43.9517C30.242 43.99 30.242 44.0538 30.2292 44.0985C30.159 44.3026 30.0697 44.494 30.0123 44.6981C29.974 44.8193 29.9166 45.0043 29.974 45.0618C30.2611 45.368 30.0761 45.6933 30.057 46.0123C30.0506 46.1654 30.0697 46.3185 30.0889 46.4652C30.1016 46.5737 30.1654 46.6821 30.1591 46.7906C30.1527 47.0585 30.1144 47.3201 30.0889 47.588V47.5817ZM43.9706 34.4846C43.9323 34.5101 43.8941 34.5356 43.8558 34.5612C44.0025 34.7717 44.1492 34.9822 44.3024 35.1927C44.3406 35.1672 44.3789 35.1417 44.4172 35.1162C44.2705 34.9056 44.1173 34.6951 43.9706 34.4846Z" fill="black"/>
<path d="M8.53233 20.4942C8.53871 20.3921 8.54507 20.2837 8.55783 20.1369C8.23886 20.0604 7.90714 19.9902 7.53713 19.9009C7.4542 19.7733 7.33936 19.5947 7.20539 19.3842C6.87365 19.633 6.68865 19.3459 6.49089 19.1226C6.05709 18.6378 5.59776 18.1784 5.215 17.6553C4.94706 17.2917 4.78119 16.8451 4.57066 16.4432C4.51963 16.3539 4.47497 16.2455 4.39204 16.188C4.11772 15.9775 4.04117 15.7096 4.07945 15.3842C4.13049 14.9696 4.20066 14.5485 4.2198 14.1339C4.23894 13.7894 4.20704 13.4449 4.19428 13.1004C4.19428 13.0812 4.18153 13.0557 4.16877 13.0493C3.85618 12.7942 4.07307 12.5581 4.18152 12.2966C4.48774 11.5821 4.79396 10.8739 5.06189 10.1467C5.52122 8.88355 6.21019 7.74162 6.93107 6.61884C7.81782 5.22173 8.68543 3.80549 9.52114 2.37649C9.7508 1.98096 10.0825 1.77044 10.4589 1.59181C10.7907 1.43233 11.1543 1.33025 11.4924 1.17715C11.6646 1.10059 11.7986 0.915588 11.9772 0.858173C12.5195 0.692307 13.0681 0.545579 13.6231 0.443507C14.344 0.309539 15.0713 0.201088 15.8049 0.137293C16.1558 0.105395 16.5258 0.194708 16.8767 0.258503C18.2164 0.494543 19.5433 0.787999 20.7682 1.38767C21.6868 1.83423 22.4906 2.44028 23.001 3.37168C23.7155 4.68586 24.3407 6.02554 24.7362 7.48006C24.9467 8.25198 24.7745 8.95372 24.4108 9.62995C24.3789 9.68736 24.3406 9.75754 24.2896 9.79581C23.7729 10.1212 23.7729 10.6762 23.6453 11.1865C23.4667 11.8947 23.2243 12.5964 22.5289 13.0047C21.7761 13.4449 21.1701 14.0382 20.7171 14.7846C20.6151 14.9504 20.4875 15.1099 20.4173 15.2885C19.9707 16.4432 19.0967 17.2343 18.1653 17.9871C16.9277 18.9886 15.6327 19.9137 14.2419 20.6983C14.0059 20.8323 13.7125 20.8833 13.4381 20.9152C13.0681 20.9535 12.679 20.8897 12.3664 21.1704C12.2962 21.2342 12.2069 21.2916 12.1622 21.3682C11.9007 21.7701 11.9071 21.7765 11.5945 21.4065C11.486 21.5851 11.5307 21.8785 11.2117 21.8722C11.0012 21.8722 10.7843 21.9359 10.5737 21.9168C10.4972 21.9104 10.4015 21.7446 10.3824 21.6361C10.3377 21.4001 10.3441 21.1577 10.2739 20.877C10.2165 20.979 10.1336 21.0747 10.0953 21.1832C10.057 21.3044 10.0634 21.432 10.0443 21.5596C9.98046 21.9678 9.98046 21.9742 9.57855 21.9423C8.60887 21.8722 7.72213 21.534 6.91194 21.0045C5.6807 20.2007 4.69825 19.1545 4.03479 17.8339C3.99013 17.7446 3.95185 17.6553 3.91358 17.566C3.90082 17.5405 3.90084 17.5086 3.95187 17.4448C4.07946 17.6043 4.20703 17.7574 4.3729 17.9552C4.4048 17.9488 4.50687 17.9233 4.59619 17.8977C4.92154 18.2422 5.21499 18.6186 5.57224 18.9121C5.94863 19.2183 6.37607 19.4735 6.79711 19.7095C6.96298 19.8052 7.0778 19.8626 7.00763 20.003C7.53074 20.1752 8.0411 20.3347 8.54508 20.5006C8.78112 20.6218 9.02355 20.743 9.29149 20.877C9.317 20.7111 9.32976 20.5899 9.34251 20.5069C9.15113 20.2773 8.78751 20.8833 8.71095 20.3028C8.68543 20.3411 8.67267 20.373 8.64715 20.4049C8.61526 20.4432 8.57697 20.4687 8.53869 20.5069L8.53233 20.4942ZM12.2069 13.7575C12.3791 14.3954 11.9453 14.4528 11.5307 14.5166C11.671 14.6251 11.7859 14.708 11.9262 14.8165V14.5677C12.2898 14.6761 12.3281 14.6506 12.3983 14.2742C12.4812 14.2678 12.5642 14.2614 12.6598 14.2487C12.6407 14.153 12.6279 14.0764 12.6152 13.9935C12.6407 14.0063 12.6598 14.019 12.6854 14.0318C12.9916 13.6809 13.3042 13.3364 13.6104 12.9792C13.6359 12.9537 13.6295 12.8899 13.6168 12.8516C13.5402 12.5964 13.6614 12.5198 13.8975 12.5007C14.0123 12.4943 14.1845 12.4369 14.2164 12.354C14.2866 12.1754 14.2866 11.9648 14.3185 11.7416C14.7013 11.7607 14.9884 11.5119 15.2754 11.2503C15.6072 10.9505 15.9772 10.6889 16.328 10.4146C16.4684 10.3062 16.6215 10.2232 16.7618 10.1084C17.0872 9.84685 17.2212 9.51512 17.151 9.09407C17.1318 8.96648 17.1638 8.78148 17.2467 8.68578C17.4508 8.45612 17.5593 8.22646 17.4955 7.91387C17.4763 7.81818 17.5082 7.69059 17.5593 7.60127C17.8208 7.17385 17.7124 6.70815 17.7188 6.19779C17.4125 6.319 17.1446 6.47211 16.8575 6.52952C16.5577 6.58694 16.2387 6.5359 15.9261 6.54866C15.8304 6.54866 15.7347 6.58694 15.6454 6.62522C15.1925 6.8166 14.7204 6.86763 14.2356 6.8485C13.8273 6.82936 13.2212 7.12281 13.1638 7.65869C13.1511 7.748 13.1319 7.83731 13.1 7.91387C12.998 8.13715 12.9023 8.37319 12.5642 8.29664C12.5195 8.28388 12.3855 8.4306 12.3728 8.51354C12.309 8.92182 12.175 9.06217 11.7603 9.09407C11.3202 9.12597 11.0905 9.46408 11.2308 9.87875C11.2755 10.0063 11.3393 10.1339 11.4286 10.236C11.5817 10.4146 11.5945 10.5996 11.5434 10.8101C11.4414 11.2503 11.3457 11.6905 11.2564 12.1371C11.1989 12.4561 11.1351 12.7559 10.7524 12.8324C10.7013 12.8452 10.6567 12.8962 10.51 12.9983C10.6822 13.1195 10.797 13.1961 10.9182 13.2854C10.8544 13.2981 10.797 13.3109 10.7906 13.3109C10.8289 13.4002 10.8736 13.4959 10.9119 13.5916C10.8034 13.6299 10.695 13.7 10.5929 13.6873C10.3632 13.6682 10.14 13.6044 9.89116 13.5533C10.2612 13.7894 11.0012 13.9106 12.0474 13.9042V12.9473C12.2324 12.909 12.4238 12.8643 12.6088 12.8261C12.4302 12.6347 12.5003 12.4943 12.8448 12.3986C12.7109 12.6474 12.998 12.8962 12.7619 13.1642C12.5897 13.3556 12.5067 13.6363 12.3855 13.8914C12.3409 13.8595 12.2962 13.8213 12.2133 13.7575H12.2069Z" fill="black"/>
<path d="M4.85162 40.6152C4.80696 41.2468 4.34126 41.8465 3.51831 42.3058C3.94574 41.7635 4.37954 41.2149 4.85162 40.6152Z" fill="black"/>
<path d="M11.9838 47.971C12.1688 47.9072 12.2772 47.8753 12.4622 47.8115C12.0029 48.609 11.5627 49.3681 11.1289 50.1337C11.097 50.1145 11.0651 50.1018 11.0332 50.0826C11.0779 49.9997 11.1225 49.9104 11.1672 49.8274C11.4415 49.3171 11.7222 48.8067 11.9774 48.29C12.0284 48.1879 11.9838 48.0348 11.9838 47.971Z" fill="black"/>
<path d="M42.9942 33.7631C42.8284 33.5527 42.669 33.3423 42.4905 33.1255C42.5479 33.0809 42.6116 33.0235 42.6754 32.9725C42.618 32.8768 42.5606 32.7939 42.4969 32.6855C42.7455 32.7429 42.7264 32.7493 42.7965 33.0235C42.822 33.1255 42.9496 33.1956 43.0197 33.2913C43.1345 33.4507 43.2237 33.6228 42.9878 33.7631H42.9942Z" fill="black"/>
<path d="M45.0038 42.3696C45.0675 42.3569 45.1632 42.3378 45.3035 42.3123C45.1632 42.7458 45.0229 43.173 44.8826 43.5939C44.8571 43.5939 44.8316 43.5811 44.8125 43.5811C44.8763 43.1794 44.9464 42.7713 45.0102 42.3696H45.0038Z" fill="black"/>
<path d="M3.93262 16.9409C3.88799 17.011 3.83062 17.1003 3.74772 17.2342C3.6202 16.7815 3.50542 16.3606 3.38428 15.9398L3.44804 15.9143C3.60745 16.2522 3.76048 16.5902 3.92626 16.9409H3.93262Z" fill="black"/>
<path d="M36.9588 53.6548C36.6528 53.8333 36.3467 54.0055 36.0151 54.1968C36.0725 53.7823 36.2702 53.6612 36.9588 53.6548Z" fill="black"/>
<path d="M7.07766 4.1311C7.23707 4.55193 7.11592 4.7751 6.58032 5.06203C6.75886 4.73047 6.90551 4.44991 7.07766 4.1311Z" fill="black"/>
</svg>
