<svg width="82" height="81" viewBox="0 0 82 81" fill="none" xmlns="http://www.w3.org/2000/svg">
<g clip-path="url(#clip0_3310_9907)">
<path d="M41.3087 29.1929C47.8262 29.1929 53.1246 34.4964 53.1246 41.0202C53.1246 47.544 47.8262 52.8475 41.3087 52.8475C34.7912 52.8475 29.4928 47.544 29.4928 41.0202C29.4928 34.4964 34.7912 29.1929 41.3087 29.1929ZM41.3087 26.064C33.072 26.064 26.3669 32.7755 26.3669 41.0202C26.3669 49.2649 33.072 55.9765 41.3087 55.9765C49.5454 55.9765 56.2505 49.2649 56.2505 41.0202C56.2505 32.7755 49.5454 26.064 41.3087 26.064Z" fill="#FA198C"/>
<path d="M81.7108 40.4961C81.7108 36.5302 78.7334 33.2448 74.9041 32.7598V15.8324C78.7412 15.3474 81.7108 12.062 81.7108 8.09609C81.7108 3.79382 78.2098 0.289429 73.9117 0.289429C69.9496 0.289429 66.6674 3.26973 66.1829 7.10266H48.7326C48.2481 3.26191 44.9659 0.289429 41.0038 0.289429C37.0418 0.289429 33.7596 3.26973 33.2751 7.10266H15.8248C15.3324 3.26973 12.058 0.297251 8.08816 0.297251C3.79006 0.297251 0.296875 3.79382 0.296875 8.09609C0.296875 12.062 3.27429 15.3474 7.10351 15.8324V32.7598C3.26647 33.2448 0.296875 36.5302 0.296875 40.4961C0.296875 44.462 3.27429 47.7474 7.10351 48.2324V65.1598C3.26647 65.6448 0.296875 68.9302 0.296875 72.8961C0.296875 77.1984 3.79788 80.7028 8.09598 80.7028C12.058 80.7028 15.3402 77.7225 15.8248 73.8895H33.2751C33.7596 77.7303 37.0418 80.7028 41.0038 80.7028C44.9659 80.7028 48.2481 77.7225 48.7326 73.8895H66.1829C66.6674 77.7303 69.9496 80.7028 73.9117 80.7028C78.2098 80.7028 81.7108 77.1984 81.7108 72.8961C81.7108 68.9302 78.7334 65.6448 74.9041 65.1598V48.2324C78.7412 47.7474 81.7108 44.462 81.7108 40.4961ZM73.9117 2.26847C77.1235 2.26847 79.7336 4.88112 79.7336 8.09609C79.7336 11.3111 77.1235 13.9237 73.9117 13.9237C70.6998 13.9237 68.0897 11.3111 68.0897 8.09609C68.0897 4.88112 70.6998 2.26847 73.9117 2.26847ZM41.0038 2.26847C44.2157 2.26847 46.8258 4.88112 46.8258 8.09609C46.8258 11.3111 44.2157 13.9237 41.0038 13.9237C37.792 13.9237 35.1818 11.3111 35.1818 8.09609C35.1818 4.88112 37.792 2.26847 41.0038 2.26847ZM2.26619 8.09609C2.26619 4.88112 4.87631 2.26847 8.08816 2.26847C11.3 2.26847 13.9101 4.88112 13.9101 8.09609C13.9101 11.3111 11.3 13.9237 8.08816 13.9237C4.87631 13.9237 2.26619 11.3111 2.26619 8.09609ZM2.26619 40.4961C2.26619 37.2811 4.87631 34.6685 8.08816 34.6685C11.3 34.6685 13.9101 37.2811 13.9101 40.4961C13.9101 43.7111 11.3 46.3237 8.08816 46.3237C4.87631 46.3237 2.26619 43.7111 2.26619 40.4961ZM8.08816 78.7315C4.87631 78.7315 2.26619 76.1189 2.26619 72.9039C2.26619 69.6889 4.87631 67.0763 8.08816 67.0763C11.3 67.0763 13.9101 69.6889 13.9101 72.9039C13.9101 76.1189 11.3 78.7315 8.08816 78.7315ZM41.0038 78.7315C37.792 78.7315 35.1818 76.1189 35.1818 72.9039C35.1818 69.6889 37.792 67.0763 41.0038 67.0763C44.2157 67.0763 46.8258 69.6889 46.8258 72.9039C46.8258 76.1189 44.2157 78.7315 41.0038 78.7315ZM48.7326 71.9105C48.2481 68.0697 44.9659 65.0973 41.0038 65.0973C37.0418 65.0973 33.7596 68.0775 33.2751 71.9105H15.8248C15.3793 68.3983 12.5973 65.6135 9.08064 65.1598V48.2324C12.9177 47.7474 15.8873 44.462 15.8873 40.4961C15.8873 36.5302 12.9099 33.2448 9.08064 32.7598V15.8324C12.5894 15.3865 15.3715 12.6017 15.8248 9.0817H33.2751C33.7596 12.9225 37.0418 15.8949 41.0038 15.8949C44.9659 15.8949 48.2481 12.9146 48.7326 9.0817H66.1829C66.6283 12.5939 69.4104 15.3787 72.927 15.8324V32.7598C69.09 33.2448 66.1204 36.5302 66.1204 40.4961C66.1204 44.462 69.0978 47.7474 72.927 48.2324V65.1598C69.4182 65.6057 66.6362 68.3904 66.1829 71.9105H48.7326ZM79.7336 72.9039C79.7336 76.1189 77.1235 78.7315 73.9117 78.7315C70.6998 78.7315 68.0897 76.1189 68.0897 72.9039C68.0897 69.6889 70.6998 67.0763 73.9117 67.0763C77.1235 67.0763 79.7336 69.6889 79.7336 72.9039ZM73.9117 46.3315C70.6998 46.3315 68.0897 43.7189 68.0897 40.5039C68.0897 37.2889 70.6998 34.6763 73.9117 34.6763C77.1235 34.6763 79.7336 37.2889 79.7336 40.5039C79.7336 43.7189 77.1235 46.3315 73.9117 46.3315Z" fill="black" stroke="black" stroke-width="0.75" stroke-miterlimit="10"/>
</g>
<defs>
<clipPath id="clip0_3310_9907">
<rect width="82" height="81" fill="white"/>
</clipPath>
</defs>
</svg>
