<svg width="160" height="105" viewBox="0 0 160 105" fill="none" xmlns="http://www.w3.org/2000/svg">
<g clip-path="url(#clip0_4864_25597)">
<path d="M74.3709 12.0547C74.1917 12.2177 74.0466 12.4856 73.9697 12.9515C74.499 13.4407 75.0368 12.1828 74.3709 12.0547Z" fill="#FA198C"/>
<path d="M160 47.5667C159.718 40.1707 156.875 34.4053 153.939 28.6982C151.813 27.1375 150.934 24.7964 149.363 22.8979C148.595 22.7348 148.356 21.7681 147.869 21.2672C143.712 16.9578 137.651 14.8729 132.555 11.635C128.201 8.87457 123.557 8.43197 119.161 6.26558C118.162 5.7764 117.232 5.28721 116.267 5.04262C112.007 3.93613 108.499 3.412 104.64 2.09586C101.192 1.86292 97.555 0.977727 94.4734 0.313834C94.2941 0.83796 93.8929 0.698193 93.5514 0.733135C88.0795 -0.419943 83.1881 0.104183 78.1771 0.313834C77.9125 0.581721 77.6308 0.779724 77.3491 1.00102C76.8113 0.581721 76.4869 0.779724 76.0174 0.558426C73.3796 1.39703 70.8272 1.5135 68.2748 1.74645C65.4833 2.01433 62.837 4.64661 59.798 3.88954C58.6712 5.3338 56.9553 5.03097 55.5041 5.48521C55.2395 6.03264 55.4615 6.26558 55.3334 6.71982C54.531 7.13912 53.6517 7.32548 52.7298 7.39536C52.2944 8.15244 53.0712 8.14079 52.8407 8.76974C52.5505 9.30551 51.9444 8.90951 51.7651 9.77141C52.892 10.843 54.3432 8.12914 55.7346 9.9927C55.3078 11.7398 53.7968 10.2955 53.3017 11.8563C54.1895 12.2057 54.1639 11.3321 54.7785 12.3687C59.2346 10.4586 63.8785 10.9827 68.3175 8.79304C68.5821 9.36375 68.9406 10.3305 69.4955 9.81799C69.7516 7.16242 71.2199 9.38704 72.1333 9.59669C72.5943 9.70152 72.6967 9.18904 73.243 9.06092C74.6174 8.7115 75.4028 9.3754 76.0515 10.016C76.0857 9.43363 76.4357 9.75976 76.5467 9.38705C76.5893 8.5368 75.7784 9.24728 75.8467 8.37373C76.4357 8.65327 76.8625 8.65327 77.3918 8.04761C77.682 8.74645 77.3149 8.74645 77.0247 9.41034C78.143 9.41034 80.2857 9.65493 80.2088 8.36209C81.6259 8.24561 82.0442 9.92282 81.8222 11.3671C79.9442 12.1009 77.4345 10.9594 75.8552 12.5667C75.915 13.1375 76.3759 12.4386 76.3674 13.0443C74.404 13.8829 71.6894 14.3255 69.6918 13.8945C70.2894 13.6849 70.9638 13.6849 71.3906 12.986C70.3321 12.8812 69.2992 12.8463 68.5053 13.5218C68.3431 14.5235 69.4699 13.6965 69.5382 14.4769C68.7955 14.0343 68.5309 14.9777 67.7626 14.4769C67.3784 14.3954 68.4199 13.7082 67.6858 13.5568C66.6784 12.9162 66.5163 14.7448 65.7394 14.7914C65.2443 14.6749 65.1163 14.3255 64.8004 14.1042C64.2626 15.1874 63.0248 14.209 62.4272 15.1175C62.1455 14.9777 61.8553 14.838 61.5736 14.6865C58.8334 14.9544 56.3663 16.026 53.4042 15.6649C52.5505 16.7015 50.9115 16.6433 49.8956 16.1075C48.803 16.1308 48.0944 17.2839 46.814 16.7714C44.9445 17.9827 42.8103 18.437 40.4542 18.2157C40.1725 18.2157 40.2152 19.1358 39.9079 19.0426C38.3201 18.8679 36.775 19.7182 35.1872 20.4286C34.6323 19.3222 34.0689 20.7198 33.3263 20.1608C32.1141 21.803 30.1507 21.2439 28.6397 22.001C28.3153 22.3155 28.1617 23.1308 27.7092 23.0726C27.4531 23.2473 27.0434 22.9561 26.6592 22.7697C23.2361 24.7265 19.4886 25.7514 16.6459 29.432C15.4081 29.2689 14.8361 31.0626 13.641 31.016C13.3764 32.5534 12.5227 32.3438 12.0618 33.3105C9.20204 34.8829 6.29109 38.0509 4.59232 41.9062C3.16672 42.6632 2.0399 45.2256 1.36552 47.3338C-0.469835 53.006 0.110649 58.0143 0.0167468 63.1508C-0.171057 73.8895 2.68868 84.838 10.3801 89.4503C20.0946 98.3371 33.6506 101.424 44.3384 103.555C44.7481 103.59 44.9871 103.159 45.3969 103.206C51.0395 104.848 56.8871 104.161 62.6577 104.999C63.0846 104.988 63.3407 104.475 63.7675 104.452C69.0772 104.895 75.0101 104.172 80.2259 103.217C90.3246 102.6 100.731 99.9095 110.206 97.2889C113.16 96.4736 115.9 95.1458 118.7 94.4935C122.106 93.6899 125.358 92.2573 128.5 91.0227C129.482 90.6383 130.583 90.5218 131.488 90.1025C132.196 89.7647 132.768 88.9261 133.536 88.4836C135.116 87.5867 137.096 87.1325 138.522 86.1308C144.625 81.8679 150.627 77.1508 156.363 71.9328C157.738 68.8463 158.147 66.7148 159.146 62.7664C158.924 61.5085 159.266 59.9012 159.718 58.2123C159.445 54.8929 159.633 51.2939 159.991 47.5667H160ZM109.865 12.6133C110.232 12.788 110.001 12.8463 109.907 13.0676C110.744 13.4286 110.633 12.2173 111.555 12.3454C111.666 12.0077 111.487 11.8446 111.623 11.4952C111.965 11.5767 112.187 11.3088 112.494 11.2623C112.494 12.6599 114.073 13.0559 114.056 14.4652C113.689 14.7098 113.518 14.2672 113.202 14.0343C112.861 14.2323 113.151 14.7448 112.835 15.397C112.263 14.6865 111.692 13.9761 111.154 13.2423C110.607 13.8363 109.762 13.5218 108.815 12.9511C109.173 12.8463 109.472 12.5784 109.873 12.6017L109.865 12.6133ZM105.767 15.8513C106.015 15.9095 105.964 16.1541 106.143 16.2589C105.964 16.8995 105.537 16.7947 105.084 16.6083C105.323 16.387 105.656 16.4336 105.767 15.8513ZM104.316 25.4719C104.657 26.5435 104.76 27.7664 106.177 28.1624C105.707 28.8729 104.538 28.1624 103.642 27.9994C102.916 27.8596 101.285 28.2556 101.704 26.8113C102.754 27.5568 103.727 26.986 104.325 25.4719H104.316ZM102.37 15.9095C102.233 16.6083 101.439 16.2473 101.268 15.8047C101.516 15.4786 101.926 15.6533 102.37 15.9095ZM101.072 15.9328C99.4587 16.2822 97.2221 14.7914 95.8989 15.991C93.7221 14.8263 90.9905 14.9661 88.9673 15.3854C88.0112 14.8845 87.0978 14.5118 86.5771 15.2922C85.8429 14.5701 84.8442 14.7098 84.2722 15.4553C83.5039 14.244 81.4808 15.9328 80.3113 14.5817C80.7125 13.2073 82.0356 14.5468 82.6247 13.7548C84.5881 14.0925 86.4234 14.0459 88.1393 13.6499C88.5063 13.7431 88.3527 14.1624 88.7966 14.1974C91.3063 13.5917 94.6697 15.4902 96.9831 14.3255C97.9221 16.1192 99.8599 14.3488 101.072 15.9212V15.9328ZM82.0612 24.2606C81.4296 23.3055 79.7564 24.3305 78.7747 23.2822C79.2954 21.3954 80.5844 23.6083 81.1478 22.2689C81.7539 22.5834 82.1722 23.0143 82.4112 23.5618C82.471 24.1441 81.6856 23.8879 82.0612 24.2722V24.2606ZM94.277 11.204C94.5416 11.2739 94.8404 12.1009 95.1307 11.635C95.566 12.8113 93.7648 12.2406 94.277 11.204ZM92.9282 11.4253C92.3819 12.2173 91.4173 11.4836 90.6746 11.402C89.6758 11.2972 88.5405 11.6932 87.8576 11.0992C89.5905 9.86458 90.7856 11.239 92.9282 11.437V11.4253ZM94.866 12.6133C95.0282 12.7298 94.8916 13.021 94.849 13.2656C92.4502 13.3122 90.41 12.8696 87.7722 12.59C89.9575 11.6699 92.399 13.0559 94.866 12.6133ZM86.0051 10.1674C86.7307 10.9944 86.8332 10.7265 87.7636 10.8197C87.3027 11.7864 86.4576 11.6117 85.4588 10.9944C85.6722 10.808 85.7917 10.3538 86.0051 10.1674ZM86.8758 12.3571C86.3637 12.8346 85.0661 12.5202 83.8966 12.625C84.699 11.9727 85.8344 12.2989 86.8758 12.3571ZM84.6478 11.0177C84.11 11.3321 83.06 11.4603 82.01 11.239C82.7612 10.0509 83.6576 11.0992 84.6478 11.0177ZM81.9332 12.7415C81.2503 12.9278 80.482 12.8579 79.6796 12.7182C80.2003 12.2639 81.6686 11.7514 81.9332 12.7415ZM79.5344 12.6483C79.0735 13.021 78.5101 13.1142 77.8527 12.9045C78.2369 12.3105 78.8601 12.4037 79.5344 12.6483ZM77.7076 12.8346C77.3832 13.2656 77.0247 13.6034 76.4528 13.3122C76.615 12.4037 77.3149 13.0676 77.7076 12.8346ZM63.7333 23.4569C63.9809 23.7831 64.015 24.2489 63.8443 24.8313C63.5968 24.6799 63.4772 24.9245 63.2211 24.7381C63.3919 24.3072 63.6394 24.1208 63.7248 23.4453L63.7333 23.4569ZM55.2139 25.1458C55.47 25.833 54.0188 25.8097 53.8651 25.3554C54.2493 24.9128 55.0261 25.204 55.2139 25.1458ZM50.8773 26.2756C50.442 26.8463 50.1091 27.7082 49.3237 27.2656C49.853 26.9628 50.1859 26.1009 50.8773 26.2756ZM46.1396 25.8912C46.6688 25.9261 46.1993 26.6017 46.1652 27.0093C45.9176 26.8579 45.7981 27.0909 45.542 26.9162C45.764 26.6366 46.0713 26.6133 46.1396 25.8912ZM44.603 26.229C44.8932 26.3571 44.0993 27.5218 44.6371 26.6832C44.9615 27.219 44.3128 27.7897 43.9542 27.4403C44.0567 26.6949 44.3725 26.5784 44.603 26.2173V26.229ZM41.914 26.6483C42.4091 26.5667 42.8957 26.5202 42.853 27.3355C43.203 27.3122 43.4335 26.9511 43.8603 27.184C43.314 27.9994 42.5884 28.3138 41.7774 28.3488C41.9055 27.5801 41.7006 27.6732 41.9055 26.6599L41.914 26.6483ZM37.0482 29.7232C37.6799 29.793 37.5945 30.6666 37.2189 30.8995C36.9713 30.62 36.9799 30.189 37.0482 29.7232ZM26.3263 31.843C26.6848 31.8662 26.9068 31.4702 27.1543 31.1558C27.53 31.5052 27.1543 32.3438 27.7434 32.5534C28.3836 31.9944 28.4604 31.0975 28.597 30.5618C29.0665 31.1208 29.4592 31.4702 28.947 32.2739C31.0555 31.3072 33.2238 30.5152 35.5116 30.0493L35.8275 28.8845C36.0921 29.7581 36.0494 29.9561 36.8604 29.8396C35.947 30.62 34.8116 30.7598 34.1287 32.2157C33.1897 32.437 32.1567 31.7847 30.8848 31.6915C30.5433 32.8796 29.8348 32.996 29.2629 33.5202C29.2458 33.7415 29.5104 33.788 29.4421 34.0559C29.3995 34.7431 28.9641 34.2772 28.8104 34.615C27.9995 33.7298 26.147 33.986 25.1995 35.4536C24.7812 35.3954 25.0288 34.9178 24.9263 34.6616C24.4227 34.6732 24.0812 35.1857 23.5263 35.0576C24.9775 34.9644 24.7897 30.2589 26.3263 31.8313V31.843ZM7.68254 45.412C7.90449 44.7947 8.43376 45.0742 8.61302 44.3405C8.87766 44.7598 8.88619 44.4453 9.27034 44.8879C8.86912 47.9395 6.61548 48.382 5.42036 50.2223C5.18134 48.5917 8.05815 47.5784 7.68254 45.412ZM26.3946 93.4919C25.8568 93.2473 26.1897 92.4436 25.4129 92.3388C24.9946 92.0243 24.9007 92.6766 24.5507 92.5601C25.1397 93.9578 27.2909 93.4802 27.9482 94.9245C25.5495 96.0543 23.3471 93.8296 20.4873 92.0826C20.2739 92.0243 20.2824 92.6416 20.0434 92.5251C18.9508 92.199 18.8995 91.209 18.891 90.1957C19.2495 90.6499 21.3154 91.3255 21.7251 92.2689C22.2032 92.1524 22.6556 91.7564 23.108 92.5251C24.5934 90.5451 27.197 92.4203 28.9812 93.4802C28.2556 93.8995 27.0604 92.9328 26.3946 93.5035V93.4919ZM53.1054 99.1291C53.4042 99.0826 53.4981 98.4303 53.9761 98.8962C53.942 99.8746 51.9615 98.8147 53.1054 99.1291ZM62.837 103.112C62.6833 102.67 63.0333 101.913 63.1614 101.296C63.6309 101.54 63.0077 102.46 63.2211 102.868C63.6565 103.101 63.7931 102.46 64.3224 102.973C63.8187 103.008 63.5199 103.613 62.837 103.112ZM89.3771 96.788C89.01 96.7414 88.6429 96.7182 88.4551 97.2073C88.1136 96.5551 88.0539 96.6366 87.6356 97.2423C87.0637 96.9627 86.6027 96.6133 86.9015 95.7747C87.6783 96.0659 88.0795 95.5767 88.5661 96.1707C88.8905 95.8563 89.0697 95.0992 89.6758 95.6233C89.5734 96.0077 89.471 96.4037 89.36 96.788H89.3771ZM92.1856 95.3205C92.9795 94.7614 93.9014 94.5867 94.9258 94.7148C94.1234 95.6117 93.449 95.402 92.1856 95.3205ZM95.9416 94.5634C96.2916 94.2606 96.855 93.3521 97.1965 94.0859C96.8124 94.3654 96.5307 94.9128 95.9416 94.5634ZM141.04 80.3421C141.296 79.7132 141.723 79.5618 142.116 79.3405C142.295 79.8879 141.416 80.2722 141.04 80.3421ZM155.723 59.2955C154.801 60.6583 152.573 61.6832 151.139 63.1624C150.942 63.3604 150.925 63.8962 150.738 64.0593C149.636 65.026 148.134 65.4103 147.886 67.4719C145.624 67.5185 144.267 69.0909 142.807 71.9677C142.457 71.8629 142.269 71.6649 142.15 71.4203C141.757 71.4203 141.569 72.0143 141.356 72.5618C140.98 72.0143 140.613 72.0842 140.075 71.9212C139.546 72.4686 140.272 71.9212 140.4 72.5268C140.041 73.5634 139.102 72.8646 138.744 73.9012C138.744 74.5185 139.043 73.3538 139.171 74.1108C137.293 76.6965 134.493 76.5568 132.546 78.9444C132.597 79.6549 133.426 79.7481 133.827 79.585C133.127 81.9378 130.463 81.4835 129.063 82.9278C129.627 85.2456 131.095 82.5784 132.324 82.7997C131.966 83.9411 133.033 84.1741 133.579 84.7448C133.955 84.4536 134.091 83.4752 134.475 83.2073C134.715 82.5202 133.707 82.625 134.219 81.7631C134.441 81.5068 134.749 81.4603 135.175 81.798C135.355 81.0643 135.167 81.1691 135.491 80.6333C136.046 80.9827 136.533 81.1458 136.789 80.6217C136.9 82.6599 138.027 80.5518 139.307 81.437C139.572 81.0526 139.811 80.61 140.007 80.0276C140.34 80.1907 140.332 80.5751 140.81 80.6449C139.93 82.9162 138.334 83.0792 136.908 83.7548C136.644 82.9744 137.335 82.4503 136.806 81.7281C136.072 81.5301 135.747 82.5551 135.107 82.6483C134.911 83.6849 135.449 83.5335 136.089 83.8013C135.022 86.4569 132.58 85.0476 131.411 87.4004C129.78 87.1208 128.833 88.8446 127.305 88.8679C127.45 87.3538 126.912 85.2689 128.022 84.3837C127.996 83.3238 126.408 83.2539 126.152 82.3454C125.93 81.6583 126.682 81.8679 126.895 81.3904C125 80.4819 123.284 83.0326 121.124 82.4619C121.193 82.2057 121.261 81.9494 121.329 81.6932C120.877 81.2855 120.706 81.7165 120.279 81.3904C119.998 82.7764 118.709 83.021 117.727 81.8796C117.206 82.788 117.215 81.8563 116.6 83.0792C116.088 82.0077 114.594 82.5551 114.048 83.5684C113.826 84.3954 114.995 83.6965 115.081 84.5235C114.585 85.199 113.937 84.407 113.296 85.1757C112.665 84.8729 112.921 84.011 112.613 83.5102C111.41 82.8696 111.521 86.0842 110.59 86.2356C110.087 86.1774 110.565 85.5019 110.181 85.3737C110.3 85.0243 110.693 85.4902 110.855 85.2689C110.735 84.4419 110.181 84.9078 109.822 84.3138C108.96 85.9212 108.456 86.3055 106.843 87.0043C106.126 87.3188 106.194 87.2722 105.443 87.4004C103.104 87.8197 101.422 89.4619 99.177 89.1125C98.827 90.6499 100.901 89.6483 100.184 91.3721C99.655 91.2206 99.6465 90.7431 99.4843 90.3588C99.0831 90.4403 98.716 90.6499 98.3745 90.9062C97.8794 90.5218 97.8026 89.8696 97.888 89.1241C95.9672 89.9627 94.0721 90.8712 91.8185 90.7082C91.5709 90.9178 91.2807 90.9761 91.1356 91.4652C91.7673 91.1857 92.2624 90.9178 92.8087 91.8613C91.8953 93.026 90.9307 92.3271 90.1795 91.4303C90.2648 91.2206 90.4868 91.3954 90.6575 91.4536C89.9746 90.9062 89.4368 90.4636 88.6685 90.4636C87.9771 90.4636 87.7039 90.9761 86.8844 91.1042C85.971 91.2556 84.2722 91.6516 83.0771 92.0593C81.1137 92.7232 78.493 92.5251 76.4015 92.9095C75.6333 93.0493 74.6003 93.0842 73.4223 93.1774C72.4918 93.2473 71.4845 93.818 70.6735 93.7947C70.3577 93.7831 70.1272 93.3405 69.8199 93.3638C68.2065 93.4802 66.5931 93.9228 64.8772 93.7481C64.3736 93.6899 64.715 93.0959 64.4675 92.8862C61.198 93.8762 57.9712 92.9328 54.5822 93.6666C53.2761 92.2805 51.3554 93.5501 50.1091 92.3155C49.1103 92.9794 48.9652 92.1408 47.7188 92.2223C47.2408 92.199 47.5822 91.6632 47.642 91.3022C46.8396 90.8945 46.5152 91.9311 45.8579 91.9544C45.1237 91.8263 45.4225 91.0459 44.6798 90.9295C44.7908 91.4536 44.6798 91.3604 44.1762 92.2223C43.792 92.0127 42.7506 91.011 42.5713 90.9761C42.2981 90.9411 41.8542 91.5584 41.5981 91.5934C40.6506 91.7098 38.8835 90.9761 37.5006 90.6499C35.7677 90.2423 34.1799 89.7531 32.3872 89.8579C31.5677 89.0776 30.7226 89.031 29.869 89.0426C29.2202 87.5867 27.8031 87.1907 26.83 87.7498C26.019 86.422 25.1653 86.2939 23.8422 86.2589C24.0214 85.6649 23.919 85.2456 23.919 84.7564C14.4435 80.2606 4.80574 73.6799 2.11673 62.6383C6.00085 49.2789 14.8105 45.0626 21.8873 38.8429C22.2715 39.0526 22.2629 38.6566 22.4593 39.1225C23.6032 38.0859 25.1227 38.1674 26.147 36.7814C30.5946 35.9661 34.3677 33.1707 38.9774 32.8446C39.9506 31.8895 41.5128 32.6583 42.2298 30.9461C42.4091 31.1558 43.0237 31.0859 42.8872 31.4935C45.3542 30.9927 47.8981 30.7248 50.1603 29.63C51.5005 30.1075 52.5078 29.5834 53.5237 29.1058C56.5029 29.1874 59.3797 28.9544 62.026 28.0692C66.4992 28.605 70.6309 28.1508 74.8223 27.8596C76.7601 28.3371 78.6552 28.7215 80.1405 27.8829C80.7808 28.3138 81.0369 28.6632 81.5235 28.1275C82.36 29.2689 83.5295 28.3721 85.0149 28.3371C86.6539 28.2905 87.96 29.4786 89.1295 28.6283C94.7892 29.595 100.09 29.8746 106.092 30.9345C106.843 31.0626 107.534 31.6799 108.277 31.808C108.661 31.8779 109.028 31.5168 109.481 31.5285C111.948 31.6333 114.509 33.7182 116.028 32.3787C115.866 31.412 115.431 29.7581 114.261 29.9561C113.792 29.3388 114.748 29.1641 114.585 28.1391C116.728 26.8696 117.07 21.9428 116.643 19.2639C123.6 21.3954 131.727 25.1458 138.752 29.432C145.496 33.5434 150.319 38.7964 154.033 45.2024C155.074 49.2556 158.992 54.4736 155.74 59.2606L155.723 59.2955Z" fill="#FA198C"/>
<path d="M128.526 80.6924C129.559 80.7273 130.361 80.0751 131.232 79.6209C131.044 79.4112 130.95 79.155 130.763 78.9453C130.165 79.9586 129.09 79.5743 128.518 80.6808L128.526 80.6924Z" fill="#FA198C"/>
<path d="M71.7408 9.85352C71.3908 10.6688 71.7066 11.0532 72.142 11.3793C72.4066 10.8319 72.0481 10.6805 72.3127 10.1447C72.1249 10.0515 71.9286 9.95834 71.7408 9.86516V9.85352Z" fill="#FA198C"/>
</g>
<defs>
<clipPath id="clip0_4864_25597">
<rect width="160" height="105" fill="white"/>
</clipPath>
</defs>
</svg>
