<svg width="40" height="38" viewBox="0 0 40 38" fill="none" xmlns="http://www.w3.org/2000/svg">
<path d="M24.4165 12.8601C24.7947 13.135 25.3654 13.063 25.8432 12.9648C29.3402 12.2382 32.8704 11.6752 36.4205 11.2825C37.0044 11.217 37.6282 11.1581 38.1656 11.4068C39.1875 11.8781 39.4264 13.1743 39.5326 14.2806C39.6786 15.7862 39.8312 17.2852 39.9772 18.7908C40.0104 19.105 40.0369 19.4454 39.8777 19.7204C39.6985 20.028 39.3402 20.172 39.0017 20.2833C35.0734 21.6056 30.7735 21.3569 26.7522 22.3781C26.3408 22.4828 25.9029 22.6203 25.6374 22.941C25.3123 23.3338 25.3256 23.8968 25.3587 24.4073C25.5976 28.0666 26.1749 31.6997 27.0774 35.2607C27.23 35.8564 27.376 36.5307 27.0508 37.0544C26.6925 37.6304 25.9228 37.8137 25.2393 37.8334C18.4178 38.0101 18.2586 38.5534 17.1703 35.444C16.1749 32.5899 16.8186 29.4216 15.6574 26.6003C15.5379 26.3188 15.3919 26.0242 15.1265 25.8737C14.8279 25.6969 14.4497 25.7362 14.1046 25.782C11.5299 26.1093 8.94866 26.4366 6.37401 26.7574C5.84979 26.8229 5.30566 26.8883 4.81462 26.7116C4.30367 26.5283 3.9188 26.1093 3.56711 25.6969C2.23997 24.1128 1.13844 22.3453 0.295708 20.4666C-0.15552 19.4585 -0.142248 18.7384 0.700486 18.0118C1.07208 17.6911 7.34946 16.4539 10.1431 15.9302C11.3176 15.7076 12.6447 15.3868 13.2221 14.3526C13.5737 13.7176 13.5472 12.9517 13.5207 12.2251C13.4278 10.078 13.3282 7.31553 13.2353 5.16842C13.1756 3.84611 13.1623 2.38633 14.0316 1.38478C14.7947 0.50106 16.0489 0.213032 17.2167 0.0952026C18.6965 -0.0553572 20.1962 -0.0291729 21.6627 0.186848C22.094 0.252309 22.5518 0.337408 22.8836 0.625435C23.2353 0.926555 23.3879 1.39133 23.4941 1.83646C24.2838 5.14223 23.4941 8.62475 24.0051 11.9829C24.0449 12.2644 24.1046 12.5589 24.3037 12.7684C24.3368 12.8077 24.3767 12.8404 24.4231 12.8732L24.4165 12.8601Z" fill="black"/>
</svg>
