<svg width="149" height="197" viewBox="0 0 149 197" fill="none" xmlns="http://www.w3.org/2000/svg">
<g clip-path="url(#clip0_4331_1671)">
<path d="M40.4746 173.148C40.2373 173.359 40.0444 173.349 39.563 173.079C38.7695 172.624 37.168 172.432 36.6025 172.715C36.3482 172.842 36.0851 172.867 35.987 172.768C35.8888 172.669 35.9471 172.564 36.1066 172.526C36.2661 172.488 36.3823 172.375 36.3552 172.265C36.2993 171.999 36.8509 171.917 37.6494 172.067C38.0239 172.136 38.3432 172.28 38.3652 172.377C38.3872 172.475 38.6773 172.561 39.0084 172.556C39.3394 172.551 39.6245 172.624 39.6414 172.708C39.6675 172.797 39.9211 172.867 40.2257 172.872C40.7232 172.887 40.7465 172.908 40.4705 173.157L40.4746 173.148ZM54.2225 175.533C54.1955 175.422 53.9925 175.386 53.7486 175.441C53.5139 175.5 53.0724 175.433 52.7764 175.311C52.4844 175.18 51.9152 175.057 51.5153 175.02C50.0323 174.881 49.5206 175.484 50.8455 175.804C51.2797 175.912 51.7782 175.949 51.9408 175.879C52.1127 175.814 52.3197 175.841 52.4087 175.936C52.6283 176.155 54.2734 175.786 54.2093 175.538L54.2225 175.533ZM42.3228 173.67C42.4278 174.144 42.5382 174.216 43.1059 174.196C43.4724 174.185 43.7839 174.248 43.8019 174.355C43.8239 174.453 43.9293 174.511 44.0492 174.488C44.1599 174.461 43.8859 174.119 43.4445 173.735C42.5101 172.91 42.1467 172.889 42.3187 173.679L42.3228 173.67ZM41.438 173.492C41.6819 173.437 41.5862 173.186 41.2641 172.976C41.108 172.884 40.963 172.841 40.9425 172.886C40.8547 173.033 41.2652 173.535 41.438 173.492ZM49.0212 175.425C49.0212 175.425 49.1335 175.541 49.2562 175.585C49.3789 175.629 49.4523 175.563 49.4252 175.452C49.3982 175.342 49.2969 175.274 49.1902 175.292C49.0927 175.314 49.0102 175.376 49.0212 175.425ZM46.0221 174.145C45.9079 173.984 45.6282 173.826 45.3847 173.783C44.3841 173.619 44.1493 173.996 45.1162 174.21C46.1785 174.457 46.2231 174.455 46.0221 174.145ZM49.0213 174.789C49.0412 174.623 48.8647 174.576 48.4836 174.668C48.1686 174.735 47.8326 174.727 47.7527 174.636C47.6636 174.542 47.5095 174.495 47.4119 174.517C47.3144 174.539 47.2561 174.644 47.274 174.751C47.296 174.848 47.1321 174.994 46.8932 175.062C46.6635 175.134 46.9102 175.146 47.4455 175.102C47.9807 175.057 48.5433 175.024 48.6915 175.036C48.8489 175.051 48.9873 174.938 49.004 174.803L49.0213 174.789ZM62.8412 176.011C62.1779 176.098 61.519 176.076 61.3803 175.97C61.0329 175.694 58.9574 176.045 58.9045 176.383C58.8796 176.536 58.7269 176.632 58.524 176.596C58.2043 176.551 58.1943 176.525 58.4552 176.236C58.8221 175.809 58.5113 175.549 57.8152 175.708C57.4962 175.784 56.9786 175.717 56.6542 175.56C56.2983 175.4 55.9207 175.363 55.7061 175.475C55.5047 175.582 55.1967 175.706 55.0148 175.745C54.7312 175.816 54.7249 175.878 54.9697 176.164C55.1953 176.418 55.3302 176.435 55.5634 176.233C55.818 176.007 55.9134 176.039 56.099 176.407C56.226 176.661 56.3972 176.793 56.4746 176.718C56.5561 176.634 57.08 176.639 57.6432 176.727C60.7334 177.192 63.302 177.281 64.5418 176.96C64.9269 176.859 65.0405 176.899 65.0103 177.138C64.9592 177.52 65.3371 177.46 65.6015 177.041C66.0252 176.365 64.5152 175.798 62.8412 176.011ZM24.7186 170.06L24.618 169.795C24.2628 169.439 23.6627 169.75 23.3621 170.054C23.2164 170.208 23.3004 170.289 23.689 170.376C24.4114 170.525 25.093 170.447 24.7145 170.069L24.7186 170.06ZM35.322 171.856C35.44 171.788 35.311 171.807 35.0384 171.926C34.6775 172.071 34.5151 172.042 34.4752 171.838C34.4372 171.678 34.2528 171.552 34.0599 171.542C33.4772 171.522 33.3888 171.548 33.5385 171.703C33.6134 171.78 33.4991 171.937 33.2804 172.058C32.9214 172.248 32.977 172.295 33.7939 172.453C34.8684 172.672 35.2513 172.624 35.1683 172.248C35.1353 172.101 35.208 171.915 35.326 171.847L35.322 171.856ZM28.3 170.603C28.9875 170.56 29.0221 170.532 28.648 170.364C28.4199 170.262 28.1307 170.198 28.0109 170.221C27.891 170.244 27.2831 170.158 26.6733 170.027C25.2731 169.727 25.0557 169.772 25.1827 170.345C25.2827 170.806 25.6558 170.951 26.3031 170.803C26.5114 170.754 26.7081 170.853 26.7521 171.048C26.8212 171.31 28.5399 171.412 28.5742 171.164C28.6294 170.772 27.8805 170.634 28.3 170.603ZM19.0478 170.07C19.1369 170.165 19.3489 170.205 19.5258 170.153C19.7961 170.088 19.7992 170.056 19.5132 169.961C19.0904 169.804 18.8333 169.864 19.0387 170.066L19.0478 170.07ZM31.581 171.669C31.581 171.669 32.2123 171.459 31.7085 171.189C31.2048 170.919 29.5919 170.777 29.5919 170.777L29.4974 171.403C29.3873 171.233 29.2495 171.149 29.2076 171.218C29.1658 171.287 29.2567 171.426 29.4178 171.532C29.5464 171.611 30.8116 171.894 31.3862 171.932C31.8531 171.966 31.6619 171.782 31.5901 171.673L31.581 171.669ZM17.5517 169.618C17.6407 169.713 17.8081 169.755 17.9412 169.727C18.0784 169.69 18.0309 169.625 17.8444 169.552C17.4306 169.399 17.3595 169.411 17.5608 169.622L17.5517 169.618ZM32.2811 171.818C32.0728 171.867 31.906 171.946 31.9261 171.999C31.9371 172.048 32.1379 172.138 32.3732 172.199C32.713 172.297 32.7873 172.254 32.7332 172.032C32.6952 171.873 32.5077 171.778 32.2861 171.832L32.2811 171.818ZM131.541 34.9532C131.703 36.2534 132.044 37.6446 132.411 38.4886C132.6 38.9461 132.623 39.1868 132.452 39.2523C132.214 39.3428 132.44 40.891 132.705 41.0097C132.769 41.0383 132.953 40.7486 133.116 40.3613C133.324 39.8736 133.322 39.7304 133.141 39.8902C132.937 40.051 132.829 40.0242 132.728 39.7599C132.647 39.5261 132.711 39.3577 132.949 39.2671C133.425 39.086 133.225 37.5278 132.712 37.3524C132.426 37.257 132.41 37.195 132.619 36.949C132.793 36.7313 132.784 36.5079 132.552 36.0969C132.382 35.7907 132.167 35.1462 132.084 34.6708C132.002 34.1953 131.844 33.7409 131.747 33.6644C131.478 33.4564 131.418 33.8349 131.558 34.9391L131.541 34.9532ZM129.764 25.5969C129.77 25.7309 130.109 26.0255 130.526 26.2452C131.4 26.7142 131.503 27.1217 131.003 28.2349C130.705 28.9009 130.719 29.0167 131.171 29.8884C131.507 30.5323 131.619 30.9439 131.54 31.1934C131.44 31.4885 131.46 31.5414 131.649 31.4618C131.795 31.4065 131.784 31.577 131.632 31.8923C131.492 32.1801 131.452 32.6115 131.547 32.8626C131.643 33.1138 131.639 33.3422 131.533 33.3825C131.441 33.4177 131.222 33.1225 131.076 32.7169C130.728 31.8049 130.492 32.0387 130.693 33.0821C130.841 33.8502 130.71 34.1422 130.368 33.7806C130.274 33.6727 130.309 33.9622 130.454 34.4216C130.923 35.8924 130.945 35.9899 130.916 36.5909C130.89 37.3574 130.925 37.4276 131.205 37.1696C131.463 36.9349 131.637 37.232 131.529 37.7424C131.48 37.9727 131.432 38.006 131.368 37.8566C131.163 37.337 130.972 37.8106 131.116 38.467C131.419 39.8194 131.561 40.9459 131.522 41.7398C131.501 42.1794 131.556 42.7634 131.64 43.0419C131.842 43.6913 131.619 44.3587 131.203 44.3583C130.983 44.3586 130.942 44.4275 131.073 44.5741C131.172 44.6953 131.349 44.7416 131.448 44.6658C131.806 44.4314 131.823 45.0529 131.467 45.3096C131.189 45.5137 131.174 45.5949 131.405 45.6434C131.635 45.6919 131.66 45.758 131.526 45.8621C131.422 45.9471 131.439 46.3492 131.563 46.7558C131.865 47.7457 131.78 48.4968 131.282 49.1175C130.874 49.636 130.889 49.8727 131.398 51.0106C131.753 51.8058 131.746 52.3835 131.399 52.5234C131.147 52.619 131.153 52.6546 131.415 52.7062C131.867 52.7991 131.795 53.7422 131.301 54.2553C131.1 54.4607 130.944 54.7089 130.989 54.8056C131.024 54.8981 131.122 54.8761 131.202 54.7697C131.3 54.6492 131.383 54.7084 131.424 54.935C131.455 55.1351 131.318 55.3915 131.116 55.4985C130.535 55.8184 130.506 56.2 130.987 56.9855C131.429 57.7099 131.401 57.8946 130.899 57.6696C130.698 57.5795 130.63 57.6585 130.652 57.9754C130.667 58.212 130.6 58.4341 130.507 58.4694C130.415 58.5046 130.483 58.6449 130.664 58.7806C130.927 58.9754 130.978 59.2284 130.889 59.9886C130.799 60.8249 130.749 60.9121 130.522 60.6352C130.273 60.3368 130.255 60.351 130.284 60.8242C130.297 61.137 130.39 61.3211 130.533 61.3195C130.967 61.3058 130.769 61.9184 130.323 61.9595C130.038 61.9849 129.999 62.0224 130.184 62.0728C130.402 62.1263 130.142 66.2731 129.827 66.4386C129.726 66.4921 129.492 68.4804 129.394 69.4558C129.249 70.9032 128.518 71.9455 128.346 71.4738C128.276 71.2888 128.223 71.3089 128.073 71.5703C127.906 71.8683 127.922 71.9079 128.261 72.0055C128.601 72.1031 128.616 72.1428 128.432 72.4549C128.324 72.6475 128.267 72.896 128.313 73.015C128.358 73.1339 128.332 73.4618 128.254 73.756C128.151 74.1811 128.065 74.2519 127.853 74.1131C127.669 73.9865 127.672 74.0536 127.875 74.3091C128.065 74.5697 128.094 74.846 127.949 75.2191C127.84 75.5101 127.678 76.2153 127.598 76.7826C127.519 77.3499 127.377 78.0094 127.293 78.2457C127.209 78.482 127.045 78.9454 126.929 79.2771C126.796 79.6706 126.71 79.716 126.671 79.4133C126.589 78.8616 126.301 79.0394 126.143 79.7354C126.032 80.201 126.056 80.2225 126.518 80.0463C126.822 79.9306 126.989 79.9504 126.955 80.0996C126.929 80.2305 126.772 80.3355 126.597 80.3339C126.159 80.3345 125.822 80.9395 126.214 81.017C126.417 81.0532 126.304 81.5504 125.865 82.7236C125.374 84.0155 125.135 84.4016 124.784 84.4745C124.421 84.5525 124.396 84.6072 124.652 84.7442C124.905 84.8902 124.825 85.2382 124.273 86.5685C123.89 87.4708 123.578 88.3613 123.581 88.5268C123.578 88.8984 122.594 89.8708 122.223 89.8685C122.079 89.8701 121.87 90.0938 121.756 90.3716C121.582 90.8086 121.597 90.8483 121.821 90.6419C122.494 90.0451 122.109 91.4176 121.302 92.4587C120.992 92.8566 120.823 93.844 120.5 94.4663C119.573 96.2644 118.861 97.315 118.855 96.8631C118.852 96.5768 118.783 96.5349 118.566 96.6783C118.383 96.7935 118.346 96.9964 118.468 97.2375C118.615 97.5223 118.407 98.01 117.64 99.2552C116.583 100.951 116.378 101.166 116.123 100.854C116.029 100.746 115.807 100.997 115.571 101.473C115.303 101.999 115.259 102.242 115.444 102.172C115.599 102.121 115.788 101.943 115.866 101.769C115.944 101.596 116.021 101.521 116.046 101.587C116.117 101.772 114.915 103.645 114.778 103.583C114.715 103.555 114.719 103.348 114.79 103.117C114.905 102.763 114.891 102.746 114.712 102.973C114.593 103.116 114.426 103.392 114.327 103.589C113.814 104.608 112.516 106.624 112.331 106.694C112.212 106.739 112.078 106.964 112.03 107.195C111.951 107.565 111.984 107.59 112.271 107.39C112.449 107.262 112.611 107.072 112.625 106.968C112.642 106.856 112.749 106.739 112.855 106.699C113.119 106.598 112.899 107.212 112.423 107.93C112.217 108.243 111.94 108.47 111.8 108.44C111.629 108.407 111.603 108.318 111.738 108.138C111.848 107.99 111.837 107.919 111.718 107.964C111.431 108.066 111.243 108.705 111.456 108.866C111.553 108.942 111.568 109.081 111.504 109.173C111.432 109.261 111.301 109.235 111.21 109.096C111.081 108.895 110.925 109.023 110.443 109.683C109.94 110.389 109.901 110.525 110.218 110.525C110.559 110.524 110.565 110.56 110.258 110.926C110.07 111.149 109.738 111.351 109.52 111.373C109.244 111.403 109.214 111.444 109.422 111.494C109.639 111.547 109.443 111.985 108.688 113.083C107.309 115.106 107.305 115.115 107.203 114.828C107.153 114.696 107.259 114.436 107.439 114.254C107.619 114.072 107.764 113.797 107.758 113.641C107.746 113.471 107.557 113.649 107.301 114.05C107.062 114.436 106.509 115.13 106.081 115.596C105.649 116.071 105.357 116.477 105.439 116.514C105.512 116.546 105.553 116.773 105.519 117.021C105.469 117.425 105.438 117.445 105.169 117.214C104.946 117.027 104.839 117.045 104.706 117.27C104.61 117.435 104.624 117.671 104.736 117.788C104.845 117.913 104.828 118.048 104.692 118.107C104.559 118.158 104.159 118.537 103.796 118.955C101.782 121.296 100.698 122.344 100.403 122.244C100.035 122.112 99.8929 122.355 100.156 122.649C100.376 122.89 100.071 123.082 99.7896 122.879C99.6924 122.803 99.0967 123.324 98.4128 124.092C97.7503 124.836 96.9402 125.689 96.6041 125.999C95.2341 127.269 94.2994 128.352 94.3809 128.585C94.4463 128.757 94.3119 128.861 93.8852 128.933C93.3651 129.017 93.3314 129.068 93.5437 129.328C93.7278 129.553 93.7205 129.593 93.5066 129.508C93.2967 129.414 92.9751 129.643 92.3321 130.319C91.8522 130.827 91.3785 131.272 91.286 131.307C91.1935 131.342 90.9965 131.66 90.8328 132.025C90.6609 132.408 90.4082 132.678 90.2244 132.672C90.0498 132.671 89.9368 132.752 89.972 132.844C90.0676 133.095 89.1768 133.518 88.583 133.766C88.3013 133.881 88.1333 134.036 88.2163 134.095C88.2994 134.154 88.1751 134.285 87.9372 134.375C87.6993 134.466 87.1514 134.955 86.7029 135.466C86.2676 135.972 85.6719 136.494 85.3902 136.609C84.6164 136.941 84.2835 137.219 84.4596 137.364C84.5569 137.441 84.4234 137.567 84.1723 137.663C83.9212 137.758 83.5058 138.098 83.2468 138.431C82.9918 138.755 82.5427 139.146 82.262 139.283C81.9864 139.433 81.5332 139.833 81.266 140.184C80.9988 140.535 80.3524 140.706 80.2467 140.746C80.1277 140.791 79.3929 141.306 78.6081 141.907C77.8273 142.5 76.8014 143.223 76.3344 143.507C75.8765 143.795 75.1917 144.222 74.8304 144.465C72.6172 145.906 69.6427 147.871 66.9295 149.131C66.1525 149.495 65.4822 149.841 65.4271 149.914C65.3293 150.035 53.7912 154.428 50.7832 155.49C49.9272 155.786 49.0735 156.028 48.8939 156.013C48.7142 155.998 48.3674 156.16 48.1342 156.362C47.5649 156.874 47.1543 157.008 47.1543 156.69C47.155 156.493 46.6937 156.593 45.3 157.086C43.6816 157.664 41.9905 158.111 39.9971 158.5C39.6821 158.567 38.5905 158.899 37.5841 159.237C36.5737 159.584 35.602 159.893 35.4242 159.923C35.2423 159.962 35.1038 160.075 35.1085 160.187C35.1132 160.299 30.3278 161.243 30.7376 161.942C30.8729 162.178 31.8704 162.055 32.6353 162.256C34.6226 162.786 37.4864 163.511 37.9569 163.415C38.725 163.267 38.8203 163.298 38.8545 163.686C38.8841 163.963 38.9882 164.097 39.1742 164.049C39.3337 164.011 39.5558 164.078 39.6732 164.207C39.7814 164.332 40.3261 164.511 40.872 164.613C41.4179 164.715 41.8813 164.879 41.9034 164.977C41.9254 165.075 42.2328 165.147 42.5902 165.132C42.9477 165.117 43.6135 165.196 44.0659 165.311C44.5184 165.426 44.9913 165.496 45.1153 165.464C45.2393 165.432 45.6297 165.563 45.9815 165.732C46.3292 165.91 46.8364 166.05 47.1186 166.056C48.0679 166.065 54.4217 167.073 54.2596 166.946C54.0145 166.759 54.0076 166.701 54.2383 166.651C54.5177 166.59 56.1246 166.697 56.972 166.836C58.9102 167.158 59.5783 166.865 61.1267 166.858C61.8832 166.858 62.6151 166.912 62.7428 166.969C62.8797 167.031 63.2878 167.049 63.6575 167.007C64.1025 166.944 64.3561 167.013 64.395 167.195C64.4872 167.576 65.0139 167.648 65.3897 167.324C65.7572 167.017 66.2871 167.058 66.2921 167.389C66.2977 167.523 66.5969 167.613 66.99 167.592C67.3738 167.567 67.8276 167.606 68 167.661C68.1724 167.717 68.7948 167.722 69.3879 167.67C70.7876 167.531 71.0028 167.54 72.6509 167.775C73.4162 167.877 74.211 167.937 74.401 167.88C74.5961 167.836 74.9026 167.886 75.0637 167.991C75.2339 168.1 75.5382 168.204 75.7452 168.231C75.9928 168.265 76.1102 168.394 76.079 168.611C76.0478 168.827 77.1652 168.363 78.301 169.399C78.7433 169.806 78.7871 170.954 78.1199 171.586C77.5261 172.153 77.5685 172.523 78.2249 172.379C78.4332 172.33 78.6207 172.425 78.6629 172.575C78.7009 172.735 78.6487 172.876 78.5379 172.903C78.4403 172.925 78.3689 173.035 78.3909 173.133C78.4129 173.23 78.5498 173.292 78.6829 173.264C79.0507 173.177 79.2835 175.517 78.9461 175.902C78.6301 176.265 78.703 176.615 79.1913 176.944C79.5327 177.185 79.5437 177.234 79.2239 177.507C78.9734 177.723 78.9177 177.994 79.0268 178.459C79.2139 179.288 77.5573 178.852 77.102 178.67C76.6011 178.467 76.591 178.441 76.8642 178.125C77.0222 177.944 77.0704 177.812 76.9769 177.825C76.8794 177.847 72.7807 177.455 71.4113 177.356C70.8053 177.315 70.1291 177.307 69.9066 177.339C69.6974 177.366 69.0363 177.398 68.4463 177.418C67.8604 177.43 67.3393 177.492 67.3015 177.552C67.1841 177.74 65.9967 177.284 66.0188 177.064C66.0418 176.866 66.7419 176.698 68.2167 176.537C68.8851 176.464 69.5321 176.097 69.1699 176C69.0705 175.978 68.6209 175.929 68.1813 175.908C67.7417 175.886 66.3724 175.787 65.1461 175.686C63.9199 175.586 62.6103 175.524 62.2346 175.531C61.8589 175.538 61.4011 175.508 61.2196 175.449C61.0431 175.402 59.6576 175.241 58.1523 175.103C53.7176 174.703 50.4843 174.24 47.0427 173.507C46.1802 173.328 45.0966 173.106 44.6451 173.013C44.1895 172.929 42.21 172.479 40.2438 172.025C38.2776 171.571 36.0597 171.091 35.329 170.961C34.5852 170.835 33.118 170.539 32.0608 170.306C30.9945 170.069 30.0873 169.892 30.0294 169.899C29.9675 169.915 28.9691 169.697 27.8024 169.415C26.6316 169.142 25.5977 168.931 25.5042 168.943C25.114 169.031 17.796 167.338 17.7479 167.153C17.7268 167.077 17.2479 166.972 16.6765 166.902C16.1051 166.832 15.3676 166.644 15.0331 166.461C14.3196 166.097 11.6781 165.34 11.3591 165.416C11.1995 165.454 11.2206 165.529 11.4424 165.695C11.6044 165.822 11.9027 165.89 12.1019 165.837C12.297 165.793 12.5465 165.872 12.6424 166.024C12.7425 166.168 13.362 166.424 14.0224 166.589C14.6829 166.753 15.3644 166.993 15.5447 167.129C15.7158 167.26 16.2523 167.457 16.7271 167.571C17.2059 167.677 17.8897 167.863 18.2487 167.991C18.6118 168.11 19.8961 168.423 21.0975 168.677C23.1257 169.115 23.956 169.487 23.0136 169.536C22.7993 169.55 22.5765 169.68 22.5252 169.843C22.4493 170.061 22.3102 170.054 21.8836 169.807C21.5897 169.632 21.1027 169.545 20.8232 169.606C20.5041 169.682 20.3368 169.64 20.3799 169.495C20.424 169.372 20.5857 169.28 20.739 169.305C20.8922 169.33 21.0458 169.256 21.0775 169.161C21.1226 169.061 20.8995 168.972 20.6172 168.965C20.2812 168.957 20.0524 169.052 19.997 169.224C19.9334 169.415 19.8277 169.455 19.6128 169.348C19.4485 169.274 19.0386 169.211 18.7075 169.216C18.2425 169.227 18.0814 169.121 18.0144 168.806C17.9465 168.469 17.8411 168.411 17.4701 168.529C17.214 168.612 16.6595 168.626 16.2272 168.564C15.7949 168.501 15.5677 168.421 15.4673 168.376C15.4947 168.389 15.5139 168.419 15.5372 168.441C15.6495 168.557 15.6331 168.593 15.4881 168.55C15.3562 168.502 14.3629 168.298 13.6908 167.963C13.1424 167.695 12.8556 167.26 12.5141 167.337C12.2083 167.408 11.8257 167.357 11.6595 167.239C11.4975 167.111 11.1992 167.043 11.0041 167.087C10.809 167.131 10.4378 167.03 10.1895 166.875C9.93217 166.716 9.52124 166.63 9.26415 166.69C8.93595 166.762 8.68047 166.648 8.37815 166.271C8.14252 165.99 7.39554 165.896 6.96072 165.668C6.30692 165.342 5.5526 164.116 5.09765 163.835C4.61124 163.551 4.29349 163.234 4.32247 163.071C4.34736 162.918 4.32314 162.874 4.269 162.97C4.14529 163.222 2.98313 162.196 2.9854 161.825C2.98607 161.628 3.99025 161.026 2.90888 160.432C2.16196 160.02 2.03046 159.873 2.05319 159.456C2.07337 159.191 2.1524 158.941 2.2317 158.911C2.311 158.881 2.33494 158.706 2.26953 158.534C2.20411 158.362 2.25737 157.925 2.37228 157.572C2.57535 156.972 2.76508 157.013 4.14027 156.293C4.94178 155.874 6.06143 155.357 6.62061 155.137C7.18893 154.92 8.00996 154.434 8.46408 154.057C8.9182 153.679 9.61653 153.149 10.0124 152.877C10.4174 152.609 11.0368 152.01 11.3978 151.547C12.3624 150.325 13.9961 148.833 14.5103 148.713C14.8161 148.642 17.2375 146.298 17.4349 145.882C17.4963 145.745 17.6225 145.659 17.7087 145.687C17.7949 145.715 18.0533 145.578 18.2733 145.381C18.5798 145.113 18.5974 145 18.3794 144.925C17.9392 144.782 19.5405 143.264 20.4411 142.967C21.0194 142.777 21.1142 142.688 20.9921 142.447C20.9094 142.289 20.9274 142.078 21.0262 141.98C22.8975 140.178 23.8778 139.116 24.1589 138.563C24.349 138.188 24.5939 137.837 24.7078 137.779C24.8218 137.72 25.0572 137.464 25.2388 137.206C26.0467 136.088 27.056 134.864 27.5061 134.496C27.7006 134.331 28.2543 132.706 28.5757 132.258C28.897 131.81 29.4047 130.898 29.7208 130.218C30.0327 129.547 30.3749 128.955 30.4888 128.896C30.6027 128.838 30.8149 128.243 30.9705 127.578C31.1282 126.86 31.4433 126.157 31.7439 125.854C32.023 125.573 32.2081 125.185 32.1773 124.985C32.1006 124.545 32.6468 123.058 33.9381 120.13C34.7443 118.333 36.8684 112.008 37.4765 109.651C38.0877 107.262 38.2912 105.928 38.167 105.105C38.167 105.105 37.9029 102.444 38.9835 101.745C40.0642 101.046 40.7803 103.066 40.9207 102.998C41.061 102.929 41.3744 103.037 41.6113 103.242C42.5447 104.044 43.1926 104.017 43.3099 104.464C43.4002 104.8 43.6332 105.233 43.8377 105.413C44.3914 105.913 44.9985 107.15 44.996 108.793C44.9962 109.648 44.7607 110.222 44.9246 110.394C45.2716 110.769 45.1107 116.308 44.7829 116.281C44.657 116.269 44.7239 116.901 44.5259 117.514C44.3228 118.113 44.0546 118.76 43.9058 118.946C43.4346 119.556 43.0333 120.231 43.1909 120.148C43.2743 120.109 43.3064 120.233 43.257 120.441C43.2116 120.64 42.9945 120.904 42.7798 121.016C42.5652 121.128 42.3717 121.315 42.3632 121.432C42.3546 121.549 42.4786 121.517 42.6426 121.371C43.0479 121.005 43.1586 121.296 42.886 122.05C42.7661 122.391 42.6958 122.743 42.7301 122.813C42.8179 122.984 42.2137 124.795 42.0296 124.888C41.9554 124.932 41.7026 125.52 41.4809 126.209C40.8963 127.953 40.3854 129.214 39.7476 130.441C39.4452 131.017 39.1857 131.767 39.1684 132.099C39.1478 132.462 38.9873 132.796 38.7768 132.899C38.5795 132.996 38.3346 133.347 38.2452 133.668C38.0295 134.394 36.2599 137.655 35.7072 138.35C35.6012 138.489 35.3418 138.92 35.1253 139.305C34.8964 139.718 34.5918 140.03 34.3744 140.075C34.1478 140.116 34.0194 140.256 34.036 140.439C34.0696 140.706 33.4758 141.273 32.3747 142.017C32.1569 142.161 31.9803 142.432 31.9746 142.616C31.9689 142.8 31.719 143.137 31.4289 143.368C31.1296 143.596 30.9256 143.855 30.9741 143.943C31.1062 144.21 30.536 144.382 30.2799 144.146C29.9772 143.868 29.165 144.457 28.5465 145.396C28.3108 145.751 27.9501 146.115 27.7305 146.214C27.5108 146.313 27.0507 146.655 26.6973 146.978C26.5252 147.142 27.0923 146.684 27.518 146.59C27.9529 146.5 28.2514 146.788 28.2017 146.776C28.1479 146.774 27.948 147.342 27.4473 147.676C27.0077 147.972 26.2632 148.044 26.2172 148.122C26.0753 148.365 26.0986 148.387 26.3528 148.259C26.423 148.225 26.8629 148.466 25.9697 149.26C24.7965 150.312 22.1594 151.891 22.2802 151.891C22.3563 151.892 22.6366 152.171 23.7726 151.935C25.7072 151.532 28.2746 150.743 28.6881 150.677C29.3373 150.573 30.0019 150.093 30.1287 150.128C30.5994 150.252 31.8184 150.075 33.0878 149.713C33.8044 149.508 34.7625 149.302 35.1993 149.257C35.7163 149.204 39.5893 147.85 46.0897 145.428C49.9813 143.984 52.814 143.118 55.6773 141.914C60.7582 139.798 64.0643 137.949 64.2179 137.875C64.5546 137.687 66.7357 136.44 68.611 135.265C70.6257 133.998 72.5164 132.446 73.4413 131.874C74.0436 131.509 74.5953 131.11 74.6708 130.99C74.7464 130.871 75.1007 130.569 75.4529 130.322C76.4401 129.636 78.4401 127.913 78.5679 127.653C78.6252 127.525 78.8502 127.341 79.0708 127.264C79.4805 127.108 80.5999 126.054 83.5639 122.989C84.0184 122.513 84.4665 122.1 84.5458 122.07C84.6251 122.04 85.2089 121.447 85.8286 120.749C86.4483 120.052 87.0718 119.444 87.2171 119.388C87.3625 119.333 87.9208 118.772 88.4622 118.128C89.0035 117.483 89.7972 116.666 90.229 116.29C91.8135 114.907 94.3698 111.724 95.6221 110.105C96.1361 109.448 96.6711 108.866 96.8073 108.806C96.9527 108.751 97.1516 108.479 97.2653 108.201C97.3698 107.919 98.9037 106.502 99.1432 106.237C99.3827 105.972 103.805 99.2643 103.989 99.0731C104.174 98.8818 104.535 98.3205 104.787 97.8086C105.034 97.3058 105.615 96.4265 106.065 95.8614C106.516 95.2964 107.095 94.4708 107.34 94.0218C107.757 93.2881 109.399 90.5065 110.684 88.0801C111.613 86.3267 112.14 85.1273 112.957 83.2801C114.39 80.0866 116.056 75.2226 116.178 74.828C116.904 72.5998 117.145 71.7436 117.224 71.0555C117.273 70.6282 117.446 69.9495 117.612 69.5307C117.777 69.1119 117.982 68.1186 118.065 67.3228C118.148 66.5271 118.351 65.5114 118.516 65.0703C118.681 64.6291 118.733 62.9977 119.042 61.6239C119.352 60.2502 119.39 58.7222 119.539 58.4161C119.678 58.1058 119.77 57.7528 119.72 57.6206C119.639 57.3868 119.88 54.6239 120.025 54.1299C120.107 53.8489 120.385 51.2993 120.398 50.6586C120.402 50.4302 120.447 49.5734 120.484 48.7572C120.645 45.8812 120.659 44.9451 120.565 43.2258C120.475 41.6182 120.554 39.6812 120.768 38.3741C120.914 37.4862 120.875 35.0573 120.703 34.608C120.618 34.3833 120.602 33.905 120.672 33.5306C120.737 33.1653 120.749 32.0636 120.694 31.0857C120.631 29.9066 120.698 29.2682 120.87 29.2028C121.015 29.1474 121.264 28.7878 121.423 28.4096C121.788 27.5214 122.509 26.8913 123.051 27.0028C123.345 27.0576 123.463 27.0123 123.5 26.8094C123.536 26.6064 123.87 26.4715 124.779 26.2542C125.67 26.0511 126.022 25.902 126.059 25.7214C126.089 25.5814 126.046 25.4087 125.963 25.3495C125.745 25.1751 125.769 24.6817 126.879 24.7962C126.879 24.7962 128.149 25.2888 128.323 25.1696C128.706 24.9029 129.802 25.0985 129.812 25.4427L129.764 25.5969ZM41.149 125.874C41.2456 125.83 41.2806 125.703 41.2321 125.616C41.1878 125.519 41.061 125.484 40.9735 125.532C40.8769 125.577 40.8419 125.704 40.8904 125.791C40.9347 125.888 41.0615 125.923 41.149 125.874ZM40.6119 127.365C40.6604 127.135 40.6202 127.029 40.5154 127.092C40.4147 127.145 40.3269 127.292 40.3102 127.427C40.2774 127.818 40.5263 127.776 40.6119 127.365ZM38.6265 131.987C38.7685 131.744 38.7229 131.724 38.4076 131.889C38.1929 132.001 38.0655 132.163 38.1098 132.26C38.2218 132.474 38.4059 132.382 38.6225 131.996L38.6265 131.987ZM36.7379 135.612C37.0247 135.192 37.0518 134.985 36.7843 135.117C36.7009 135.157 36.5895 135.381 36.5451 135.602C36.4666 135.972 36.4799 135.967 36.7329 135.599L36.7379 135.612ZM35.9397 136.854C36.0933 136.78 36.2626 136.549 36.2989 136.346C36.3999 135.877 36.1192 136.014 35.8605 136.566C35.6968 136.931 35.7028 136.967 35.9397 136.854ZM34.9161 139.014C35.0445 138.875 35.104 138.693 35.0647 138.61C34.9568 138.386 34.8661 138.466 34.7723 138.895C34.7002 139.202 34.7235 139.224 34.9161 139.014ZM34.2029 139.725C34.2029 139.725 34.2583 139.552 34.2376 139.378C34.2169 139.205 34.1278 139.11 34.0312 139.154C33.9437 139.203 33.928 139.36 33.9966 139.5C34.0651 139.641 34.1633 139.74 34.1938 139.72L34.2029 139.725ZM32.9379 140.297C33.0241 140.325 33.1777 140.251 33.2806 140.144C33.3917 140.018 33.3237 139.999 33.1173 140.093C32.9332 140.185 32.8517 140.269 32.9379 140.297ZM31.2947 140.711C31.4328 140.696 31.6301 140.598 31.7239 140.487C31.8177 140.375 31.7019 140.389 31.4608 140.511C31.2198 140.633 31.1474 140.721 31.2947 140.711ZM32.6747 141.275C32.8969 141.024 32.8868 140.997 32.4988 141.032C31.9057 141.083 31.6168 141.239 31.7237 141.44C31.8599 141.699 32.3974 141.6 32.6747 141.275ZM29.0023 142.719L29.5269 142.526C29.8268 142.42 30.06 142.217 30.0808 142.073C30.0884 141.934 30.2076 141.791 30.3448 141.753C30.482 141.716 30.5739 141.56 30.5542 141.409C30.5274 141.2 30.4513 141.198 30.2637 141.421C30.123 141.588 29.7756 141.947 29.5005 142.219L28.9932 142.714L29.0023 142.719ZM27.7779 144.789C28.0448 144.536 28.3724 144.343 28.5115 144.351C29.0099 144.388 31.0809 143.289 31.2833 142.887C31.457 142.548 31.2578 142.601 29.8461 143.305C28.943 143.755 28.156 144.092 28.088 144.073C27.9247 144.022 27.8687 144.073 27.299 144.684C26.7039 145.326 27.1148 145.412 27.7779 144.789ZM24.7341 147.446C24.9487 147.334 25.0853 147.176 25.0318 147.075C24.9198 146.861 24.7398 146.944 24.5151 147.348C24.3731 147.591 24.4188 147.611 24.7341 147.446ZM23.1492 148.927C23.1935 149.024 23.4383 148.991 23.6794 148.869C23.9245 148.738 24.0347 148.59 23.9202 148.527C23.8097 148.456 23.5781 148.484 23.39 148.586C23.2059 148.678 23.0916 148.835 23.1451 148.936L23.1492 148.927ZM9.39639 164.514C8.49053 164.261 8.39708 164.274 8.54019 164.59C8.85661 165.302 9.31155 165.583 9.67094 165.295C9.85725 165.148 10.1112 165.119 10.2591 165.23C10.5224 165.424 10.6763 165.252 10.5118 164.959C10.4633 164.872 9.95834 164.678 9.40142 164.527L9.39639 164.514ZM23.9658 167.168C23.7616 167.208 23.666 167.275 23.744 167.321C23.822 167.367 23.9866 167.342 24.1128 167.256C24.2522 167.165 24.1924 167.128 23.975 167.173L23.9658 167.168ZM67.1065 176.96C66.9958 176.987 66.9284 177.088 66.9463 177.195C66.9643 177.302 67.03 177.375 67.0697 177.36C67.1184 177.349 67.1858 177.248 67.2299 177.125C67.2739 177.002 67.2082 176.929 67.1065 176.96ZM57.375 167.477C57.453 167.523 57.6176 167.498 57.7346 167.408C57.874 167.318 57.8143 167.28 57.5968 167.325C57.3967 167.355 57.2969 167.431 57.375 167.477ZM55.4216 167.434L55.8366 167.511C56.0669 167.559 56.3847 167.559 56.5402 167.53C56.7932 167.479 56.7922 167.457 56.4971 167.358C56.3155 167.298 56.0018 167.289 55.7935 167.338L55.4216 167.434ZM69.7309 176.46L69.1629 176.896L70.2139 176.556C71.0707 176.283 71.2586 176.28 71.2283 176.518C71.1827 176.815 71.4618 176.853 71.6424 176.572C71.7894 176.342 70.9991 175.856 70.6312 175.943C70.4493 175.982 70.0475 176.219 69.7309 176.46ZM42.4604 166.301C42.629 166.267 42.7005 166.156 42.6074 166.071C42.5183 165.976 42.4129 165.918 42.3774 165.924C42.3377 165.939 42.2704 166.04 42.2304 166.154C42.1863 166.277 42.2917 166.335 42.4604 166.301ZM37.9205 157.656C37.4195 157.771 36.749 157.898 36.4239 157.938C35.5026 158.062 33.0424 158.953 33.3243 159.058C33.4612 159.119 34.4996 158.906 35.6419 158.607C36.7841 158.308 37.9975 157.997 38.3389 157.92C38.6895 157.847 38.9387 157.707 38.8944 157.611C38.8591 157.518 38.4164 157.528 37.9155 157.643L37.9205 157.656ZM41.6333 156.855C41.3614 156.777 40.7579 156.901 40.0839 157.158C39.3661 157.439 39.1046 157.606 39.3207 157.637C39.5054 157.665 40.2024 157.529 40.8702 157.335C41.9536 157.021 42.0319 156.968 41.6333 156.855ZM47.2553 155.048C46.2279 155.31 43.7979 156.281 43.7202 156.454C43.6179 156.682 47.7417 155.332 47.9233 155.073C48.0417 154.907 47.8132 154.903 47.2553 155.048ZM51.2016 153.946C51.1714 153.867 50.7083 153.922 50.1645 154.084C49.6299 154.249 49.0638 154.412 48.9042 154.45C48.7538 154.492 48.5319 154.645 48.4177 154.802C48.2698 155.009 48.4262 155.003 49.0401 154.807C49.5036 154.653 50.1836 154.432 50.5678 154.309C50.9521 154.185 51.2318 154.025 51.2057 153.937L51.2016 153.946ZM57.4631 151.592C57.0286 151.584 54.2559 152.708 54.1577 152.927C54.125 153 54.9463 152.732 55.9854 152.321C57.06 151.905 57.6957 151.587 57.4631 151.592ZM61.8948 149.897C61.4215 149.926 58.0733 151.307 57.966 151.522C57.9414 151.577 58.9245 151.218 60.1577 150.74C61.4702 150.233 62.1893 149.876 61.8948 149.897ZM64.366 148.737C64.1763 148.696 63.9365 148.742 63.8245 148.845C63.7124 148.948 63.331 149.139 62.9874 149.27C62.6438 149.4 62.4361 149.57 62.5282 149.634C62.667 149.74 63.2932 149.516 64.4597 148.944C64.6876 148.827 64.6866 148.804 64.3843 148.745L64.366 148.737ZM66.3948 147.806L65.7553 148.034C65.4026 148.161 65.018 148.383 64.9079 148.531C64.7386 148.762 64.7618 148.783 65.0517 148.65C65.2449 148.561 65.6294 148.339 65.8991 148.153L66.3948 147.806ZM67.0241 147.551C66.773 147.647 66.6915 147.731 66.8347 147.729C66.9779 147.728 67.1852 147.656 67.284 147.558C67.392 147.464 67.2753 147.455 67.0241 147.551ZM67.8909 146.767C67.7455 146.822 67.6039 146.967 67.578 147.098C67.5563 147.22 67.6617 147.278 67.8071 147.223C67.9525 147.167 68.0941 147.023 68.1199 146.892C68.1416 146.77 68.0454 146.716 67.8909 146.767ZM70.7862 145.687C70.7214 145.636 70.442 145.697 70.1745 145.83C69.8979 145.958 69.357 146.186 68.9655 146.35C68.5252 146.526 68.3481 146.676 68.4941 146.742C68.7495 146.856 70.9807 145.84 70.7862 145.687ZM73.7246 143.608C73.2566 143.869 72.8138 144.197 72.7616 144.338C72.6838 144.511 72.9145 144.461 73.5096 144.136C73.9734 143.884 74.4162 143.556 74.4725 143.406C74.5585 143.215 74.3502 143.264 73.7246 143.608ZM81.5171 138.598C81.3125 138.736 81.1778 138.939 81.208 139.018C81.2986 139.256 81.6881 139.047 81.9689 138.592C82.2374 138.165 82.1074 138.161 81.5211 138.589L81.5171 138.598ZM82.8174 137.482C82.5628 137.708 82.587 138.069 82.8422 137.965C82.9215 137.935 83.1009 137.73 83.2438 137.509C83.5041 137.1 83.2615 137.079 82.8174 137.482ZM85.2756 135.374C85.0641 135.454 84.7803 135.623 84.6509 135.74C84.2324 136.111 84.5048 136.31 84.9832 135.977C85.5836 135.567 85.7687 135.178 85.2756 135.374ZM90.4705 131.073C90.0283 131.521 89.8221 131.834 90.0204 131.759C90.3599 131.637 91.676 130.364 91.6248 130.21C91.5644 130.051 91.2519 130.284 90.4745 131.064L90.4705 131.073ZM92.2401 129.302C92.0038 129.536 91.9178 129.727 92.0519 129.722C92.1859 129.716 92.3835 129.52 92.4859 129.292C92.6618 128.899 92.6395 128.9 92.2401 129.302ZM94.5092 126.955C94.3638 127.01 94.1184 127.24 93.9887 127.456C93.7998 127.755 93.8077 127.835 94.01 127.75C94.1554 127.695 94.4009 127.465 94.5306 127.25C94.7194 126.951 94.7207 126.875 94.5092 126.955ZM99.1123 122.312C98.9181 122.379 98.8275 122.458 98.9096 122.495C98.9917 122.532 99.1462 122.481 99.2582 122.378C99.3835 122.269 99.3196 122.241 99.1123 122.312ZM101.064 121.138C100.958 121.178 100.865 121.312 100.843 121.434C100.822 121.555 100.878 121.625 100.984 121.584C101.076 121.549 101.183 121.41 101.204 121.289C101.226 121.167 101.169 121.098 101.064 121.138ZM102.977 117.996C102.785 118.228 102.731 118.422 102.866 118.439C102.997 118.465 103.225 118.249 103.383 117.97C103.716 117.374 103.48 117.388 102.977 117.996ZM104.385 116.468C104.239 116.6 104.173 116.746 104.246 116.779C104.319 116.811 104.445 116.703 104.522 116.53C104.633 116.283 104.605 116.271 104.385 116.468ZM107.762 112.361C107.784 112.239 107.718 112.165 107.626 112.201C107.52 112.241 107.418 112.371 107.396 112.492C107.374 112.614 107.44 112.687 107.537 112.643C107.629 112.608 107.735 112.469 107.757 112.347L107.762 112.361ZM108.391 112.424C108.177 112.755 108.188 112.804 108.435 112.717C108.603 112.661 108.786 112.447 108.85 112.257C109.001 111.798 108.71 111.909 108.378 112.429L108.391 112.424ZM117.839 98.2263C117.839 98.2263 117.694 98.2055 117.54 98.2568C117.395 98.3121 117.297 98.4326 117.337 98.5384C117.372 98.6309 117.51 98.6161 117.636 98.5079C117.765 98.3906 117.854 98.266 117.839 98.2263ZM122.655 88.5389C122.479 88.7342 122.316 89.0007 122.29 89.1316C122.195 89.637 122.473 89.4328 122.716 88.8183C122.958 88.2038 122.953 88.1906 122.659 88.5298L122.655 88.5389ZM125.649 81.6182C125.49 81.6786 125.441 81.7881 125.538 81.8646C125.636 81.941 125.794 81.9791 125.89 81.9348C125.983 81.8996 126.032 81.7901 126.001 81.6884C125.961 81.5827 125.807 81.5578 125.649 81.6182ZM126.687 77.4699C126.621 78.0099 126.731 78.3006 126.96 78.206C127.062 78.1748 127.076 77.9728 127 77.7746C126.925 77.5763 126.944 77.3875 127.04 77.3432C127.137 77.2988 127.195 77.1934 127.151 77.0968C127.035 76.7929 126.731 77.0294 126.678 77.4658L126.687 77.4699ZM127.882 72.4602C127.79 72.4954 127.751 72.6537 127.812 72.8123C127.872 72.9709 127.986 73.0108 128.049 72.9187C128.126 72.8214 128.164 72.6632 128.119 72.5666C128.084 72.474 127.975 72.4249 127.873 72.4561L127.882 72.4602ZM130.927 40.4534C130.821 40.4936 130.759 40.6081 130.803 40.7047C130.847 40.8014 130.904 40.8706 130.953 40.8596C130.992 40.8445 131.055 40.73 131.067 40.6041C131.089 40.4823 131.023 40.409 130.917 40.4493L130.927 40.4534ZM129.839 31.6364C129.763 31.7336 129.778 31.9926 129.855 32.2132C129.976 32.5304 130.025 32.5417 130.081 32.2708C130.179 31.8325 130.018 31.4096 129.839 31.6364ZM130.411 31.0708C130.313 31.2898 130.353 31.3955 130.572 31.4937C130.955 31.6656 131.082 31.3827 130.777 31.0375C130.594 30.8348 130.504 30.8386 130.402 31.0667L130.411 31.0708ZM132.49 43.4671C132.598 43.5924 132.627 43.5285 132.56 43.312C132.493 43.1179 132.414 43.0272 132.377 43.1093C132.34 43.1915 132.391 43.346 132.494 43.458L132.49 43.4671ZM132.514 41.2639C132.263 41.4803 132.293 42.3922 132.539 42.5027C132.895 42.6623 133.145 42.1057 132.948 41.5903C132.792 41.1806 132.686 41.1 132.509 41.2507L132.514 41.2639ZM43.4971 120.297C43.542 120.514 43.6553 120.653 43.7428 120.604C43.8262 120.565 43.8812 120.491 43.857 120.447C43.8429 120.43 44.1832 119.476 44.278 119.069C44.3768 118.653 44.2525 118.783 44.2356 118.699C44.2356 118.699 43.6674 119.77 43.5708 119.815C43.4833 119.863 43.443 120.075 43.488 120.293L43.4971 120.297ZM28.8346 146.392C29.7667 145.779 30.1589 145.1 29.9248 144.963C29.7272 144.841 29.1469 145.304 28.5433 146.064C28.1568 146.559 28.0897 146.879 28.8346 146.392ZM37.9812 135.161C37.9686 135.287 38.0426 135.342 38.1433 135.289C38.244 135.235 38.288 135.112 38.2396 135.025C38.1952 134.928 38.1213 134.873 38.0776 134.897C38.0338 134.922 37.9938 135.035 37.9812 135.161ZM113.066 106.399C113.097 106.501 113.167 106.565 113.216 106.554C113.256 106.539 113.318 106.424 113.331 106.298C113.352 106.177 113.286 106.103 113.181 106.144C113.075 106.184 113.022 106.302 113.066 106.399ZM132.203 44.5221C132.169 44.9891 132.203 45.0369 132.43 44.8976C132.578 44.8107 132.696 44.5238 132.69 44.2689C132.684 43.5977 132.254 43.8217 132.203 44.5221ZM79.18 178.484C79.213 178.631 79.3294 178.738 79.427 178.716C79.5245 178.694 79.579 178.499 79.5249 178.277C79.4759 178.069 79.3595 177.962 79.2739 178.055C79.1883 178.148 79.147 178.338 79.18 178.484ZM105.688 116.472C105.719 116.573 105.829 116.623 105.934 116.582C106.027 116.547 106.12 116.413 106.151 116.296C106.172 116.174 106.067 116.116 105.904 116.185C105.742 116.255 105.653 116.379 105.688 116.472ZM106.654 115.393C106.649 115.576 106.709 115.637 106.786 115.539C106.862 115.442 106.9 115.284 106.856 115.187C106.755 114.923 106.652 115.03 106.645 115.389L106.654 115.393ZM132.192 45.8431C132.276 46.0454 132.401 46.1341 132.477 46.0369C132.554 45.9397 132.568 45.7377 132.512 45.5923C132.457 45.4469 132.333 45.3582 132.236 45.4025C132.134 45.4337 132.12 45.6357 132.192 45.8431ZM131.331 50.2793C131.497 50.7154 131.9 50.5015 131.816 50.0037C131.781 49.8127 131.644 49.729 131.476 49.7853C131.304 49.8507 131.25 50.0455 131.335 50.2701L131.331 50.2793ZM113.426 105.596C113.441 105.954 113.69 105.791 114.054 105.198L114.377 104.674L113.894 105.017C113.634 105.207 113.417 105.471 113.422 105.605L113.426 105.596Z" fill="black"/>
</g>
<defs>
<clipPath id="clip0_4331_1671">
<rect width="178.41" height="82.37" fill="white" transform="translate(0 162.788) rotate(-65.844)"/>
</clipPath>
</defs>
</svg>
