<svg width="273" height="136" viewBox="0 0 273 136" fill="none" xmlns="http://www.w3.org/2000/svg">
<g clip-path="url(#clip0_4331_1673)">
<path d="M165.405 96.9402C166.498 96.3598 166.81 96.3709 168.137 96.9402C169.319 97.4426 184.204 103.236 200.003 112.446C213.806 120.483 228.847 132.082 228.959 132.595C229.438 134.75 233.307 136.625 234.701 135.821C234.991 135.654 236.552 134.649 236.964 133.377C237.455 131.858 236.741 129.961 236.094 128.588C232.605 121.164 223.384 107.456 222.737 106.541C221.856 105.313 221.154 104.196 221.154 104.051C221.154 103.906 216.761 96.5942 216.75 95.9579C216.75 95.7123 218.311 95.556 220.529 95.5784C226.115 95.6453 237.979 95.4332 239.428 95.2435C240.119 95.1542 243.052 95.0425 245.94 95.009C248.827 94.9644 254.614 94.8416 255.774 94.6518C256.933 94.462 260.1 94.7411 261.594 94.6518C265.229 94.4174 268.328 93.8257 269.443 93.1448C269.945 92.8434 270.748 91.5596 271.227 90.2759C271.929 88.4116 272.03 87.6191 271.718 86.246C271.472 85.1409 271.495 83.5892 271.762 82.8078C272.074 81.9147 272.052 81.4124 271.651 80.9324C271.004 80.1398 270.859 70.5172 271.361 64.9356C271.74 60.5932 271.294 9.92392 271.394 8.18248C271.528 5.93869 271.818 4.72192 272.409 3.91817C273.145 2.93582 273.167 2.73488 272.61 2.16557C271.383 0.904137 264.894 0.513428 244.468 0.468776C237.99 0.468776 232.515 0.435287 232.281 0.424124C223.373 -0.100542 199.702 -0.156357 199.312 0.345982C199.178 0.513428 197.472 0.647385 195.51 0.658549C193.547 0.658549 191.551 0.725527 191.094 0.803669C190.626 0.881811 189.957 0.792506 189.6 0.59157C189.232 0.390634 188.106 0.401797 187.08 0.613896C184.572 1.11624 179.577 1.17205 179.287 0.692038C179.153 0.468776 178.83 0.491102 178.529 0.73669C178.239 0.971115 176.789 1.10507 175.306 1.03809C167.435 0.680875 153.721 0.613896 153.118 0.926463C152.684 1.16089 152.059 1.07158 151.413 0.714364C150.565 0.245514 150.286 0.245514 149.818 0.714364C149.105 1.39531 146.629 1.39531 145.559 0.692038C144.957 0.30133 144.332 0.323656 142.738 0.803669C141.456 1.19438 140.53 1.27252 140.229 1.01577C139.973 0.792506 139.627 0.747853 139.46 0.9153C139.192 1.17205 132.859 1.26136 128.076 1.07158C127.151 1.03809 125.924 0.993441 125.345 0.971115C124.085 0.926463 115.901 1.2167 112.946 1.41764C111.787 1.49578 108.854 1.60741 106.435 1.65206C99.4773 1.81951 95.5303 1.98696 94.538 2.17673C94.0363 2.2772 87.759 2.29952 80.5897 2.25487C73.4205 2.19906 65.9502 2.19906 63.9879 2.25487C62.0255 2.31069 56.919 2.3665 52.6375 2.38883C48.3671 2.41115 41.276 2.62325 36.883 2.84652C32.49 3.08094 27.5953 3.33769 25.9897 3.41583C23.8713 3.5163 22.9905 3.41583 22.7452 3.01396C22.5556 2.71256 22.3995 2.64558 22.3995 2.88C22.3995 3.12559 21.2846 3.23722 19.7682 3.14792C18.3187 3.06978 15.1968 2.94698 12.8331 2.86884C9.52165 2.76837 8.52933 2.61209 8.52933 2.16557C8.52933 1.853 8.07219 1.38415 7.52586 1.11624C6.12099 0.435287 3.93566 1.27252 3.56772 3.99631C3.41162 5.14611 3.01023 6.69778 2.67574 7.42338C2.3301 8.14899 2.96563 10.0914 2.86529 11.0849C2.5085 14.5678 2.17401 31.5357 2.15171 45.9026C2.12941 71.5889 2.14056 77.6058 2.19631 80.7538C2.2409 83.4217 2.15171 83.8683 1.47158 84.0245C-0.0336312 84.3818 -0.312373 85.5092 0.26741 88.847C0.813745 91.995 1.76147 94.0043 3.05483 94.7299C3.48967 94.9755 5.99835 94.9644 9.61085 94.6965C13.4129 94.4286 21.095 94.4174 31.6203 94.6741C40.5178 94.8974 48.4675 94.9979 49.2703 94.8974C54.1761 94.2834 87.7144 94.8081 107.672 95.8351L165.383 96.9514L165.405 96.9402ZM45.7804 8.45039C46.5609 8.27178 46.8062 8.33876 46.5943 8.67365C46.2153 9.2653 44.4536 9.24297 43.3498 8.61784C42.7589 8.28294 42.3575 8.28294 41.9672 8.58435C41.4097 9.03087 36.4927 8.88575 37.0168 8.42806C37.5743 7.94805 44.6655 7.7806 44.6655 8.24945C44.6655 8.52853 45.1003 8.59551 45.7804 8.43923V8.45039ZM47.609 6.50801C47.609 6.59732 47.2299 6.66429 46.7727 6.65313C46.3156 6.64197 45.9254 6.46336 45.9254 6.25126C45.9254 6.03916 46.3045 5.98335 46.7727 6.10614C47.241 6.2401 47.609 6.41871 47.609 6.50801ZM51.9908 8.43923C51.3553 7.89223 51.2103 7.9034 50.8201 8.51737C50.5748 8.89691 50.2291 9.10901 50.0285 8.98622C49.8389 8.86342 49.8055 8.58435 49.9393 8.37225C50.3295 7.74711 49.3037 6.74244 48.5455 7.01035C48.0996 7.16663 47.9769 7.08849 48.1776 6.76476C48.6793 5.96102 51.9239 6.26242 52.6932 7.1778C53.6186 8.27178 53.0054 9.33227 51.9685 8.45039L51.9908 8.43923ZM48.2222 7.97038C48.3671 7.72479 48.6905 7.53502 48.9358 7.54618C49.2145 7.54618 49.1811 7.79177 48.8577 8.18248C48.278 8.86342 47.7651 8.69598 48.2222 7.97038ZM58.9593 3.85119C58.9593 3.9405 58.6695 4.00748 58.3238 3.99631C57.9782 3.99631 57.6994 3.79538 57.6994 3.57212C57.6994 3.34885 57.9782 3.28188 58.3238 3.427C58.6695 3.57212 58.9593 3.76189 58.9593 3.85119ZM59.3719 6.50801C59.3719 7.07733 58.4242 7.71362 57.889 7.50153C57.5991 7.37873 57.22 7.4792 57.0751 7.72479C56.919 7.97038 57.0527 8.17131 57.3538 8.19364C57.744 8.21596 57.7329 8.31643 57.2757 8.60667C56.6625 8.98622 55.5921 9.1425 55.5921 8.8411C55.5921 8.24945 56.997 6.10614 57.4987 5.92753C58.1789 5.68194 59.383 6.06149 59.383 6.51917L59.3719 6.50801ZM63.1516 6.66429C63.1516 6.90988 62.9621 6.98802 62.7279 6.8429C62.4938 6.68662 62.0032 6.86523 61.6241 7.23361C61.245 7.60199 60.6764 7.79177 60.3642 7.65781C60.052 7.53502 59.7956 7.60199 59.7956 7.82526C59.7956 8.04852 59.606 8.22713 59.3719 8.22713C59.1377 8.22713 58.9593 8.04852 58.9593 7.84758C58.9593 7.3899 61.5572 6.18428 62.4826 6.20661C62.8506 6.20661 63.1516 6.41871 63.1516 6.66429ZM70.1202 6.68662C69.9864 7.03268 69.8749 7.4792 69.8749 7.6913C69.8749 7.9034 69.5961 8.07084 69.2394 8.05968C68.8937 8.05968 68.615 7.85875 68.615 7.62432C68.615 7.3899 68.4254 7.20012 68.2024 7.20012C67.9683 7.20012 67.7787 7.4792 67.7787 7.83642C67.7787 8.2048 67.6003 8.38341 67.3885 8.23829C67.1655 8.09317 66.8756 8.18248 66.7307 8.40574C66.2735 9.1425 65.5711 8.8411 65.783 8.00387C65.9167 7.51269 65.8053 7.2671 65.5265 7.35641C64.8798 7.5685 63.7314 6.78709 64.1217 6.40754C64.2889 6.2401 64.6345 6.30708 64.8687 6.55266C65.1809 6.86523 66.0728 6.85407 67.8345 6.5415C70.0198 6.13963 70.3209 6.16195 70.1202 6.68662ZM84.6928 8.42806C83.7116 8.97505 83.3214 8.95273 83.3214 8.33876C83.3214 7.94805 83.2099 7.93689 82.8197 8.31643C82.1284 8.99738 80.9911 8.90808 80.2106 8.10433C79.6309 7.52385 79.4525 7.51269 78.6051 8.03735C77.9473 8.45039 76.5312 8.59551 74.0783 8.51737C72.1048 8.45039 70.7446 8.32759 71.0233 8.22713C71.5808 8.03735 71.7815 7.21129 71.2351 7.36757C71.0679 7.42338 70.923 7.27826 70.923 7.04384C70.923 6.80941 72.2052 6.65313 73.9334 6.69778C75.5835 6.74244 77.0776 6.63081 77.256 6.47452C78.0142 5.73776 80.9577 6.41871 80.5563 7.23361C80.4225 7.50153 80.5897 7.3899 80.9242 6.98802C81.5821 6.20661 83.1207 6.06149 83.5332 6.74244C83.6782 6.97686 84.1576 7.1778 84.6036 7.18896C85.6182 7.21129 85.6628 7.86991 84.6817 8.4169L84.6928 8.42806ZM89.2084 7.23361C89.2084 8.14899 88.8517 8.56202 88.0935 8.53969C87.6586 8.53969 87.6363 8.30527 88.0154 7.4792C88.5729 6.26242 89.2084 6.12847 89.2084 7.22245V7.23361ZM103.491 7.75828C103.491 8.24945 102.755 8.16015 102.432 7.62432C102.242 7.32292 101.975 7.33408 101.562 7.65781C101.239 7.91456 100.971 8.03735 100.971 7.9034C100.971 7.76944 100.403 7.82526 99.7003 8.00387C98.7414 8.24945 98.4404 8.19364 98.4404 7.75828C98.4404 6.90988 96.0766 7.04384 95.2516 7.92572C94.7498 8.46155 94.2146 8.59551 93.2446 8.38341C92.5199 8.22713 91.8621 8.04852 91.784 7.98154C91.706 7.92572 92.23 7.75828 92.9436 7.62432C93.6572 7.49036 94.2369 7.09966 94.2369 6.77593C94.2369 6.44103 94.4376 6.18428 94.6829 6.19544C94.9282 6.19544 95.0063 6.39638 94.8613 6.61964C94.7164 6.85407 94.7944 7.04384 95.0174 7.04384C95.2516 7.04384 95.5415 6.88756 95.6641 6.68662C96.1101 5.98335 100.659 6.00567 102.109 6.73127C102.856 7.11082 103.469 7.5685 103.469 7.75828H103.491ZM106.301 7.4792C106.145 7.86991 105.743 8.00387 105.175 7.83642L104.294 7.59083L105.186 6.98802C106.167 6.3294 106.669 6.55266 106.301 7.4792ZM108.542 6.5415C107.695 7.04384 106.936 6.26242 107.617 5.59264C108.007 5.20193 108.23 5.22426 108.642 5.63729C109.055 6.06149 109.033 6.2401 108.542 6.5415ZM112.734 6.22893C111.92 6.73127 111.474 6.72011 111.474 6.19544C111.474 5.96102 111.898 5.79357 112.422 5.80474C113.191 5.82706 113.247 5.91637 112.734 6.22893ZM118.521 5.50333C118.12 5.50333 117.785 5.70427 117.785 5.92753C117.785 6.15079 117.607 6.35173 117.373 6.34056C117.138 6.34056 116.96 6.06149 116.96 5.72659C116.96 4.90053 117.428 4.69959 118.432 5.13495C119.145 5.43635 119.156 5.49217 118.532 5.50333H118.521ZM128.701 6.60848C128.701 7.02151 124.687 6.88756 123.237 6.40754C122.892 6.28475 122.758 6.28475 122.925 6.38522C123.304 6.59732 122.925 7.33408 122.434 7.32292C122.256 7.32292 121.766 6.93221 121.353 6.46336C120.617 5.64845 120.628 5.6038 121.598 5.26891C122.156 5.07913 122.657 5.06797 122.724 5.24658C122.791 5.42519 123.226 5.48101 123.672 5.38054C124.129 5.28007 124.765 5.42519 125.099 5.70427C125.545 6.08381 125.924 6.10614 126.571 5.77125C127.273 5.41403 127.496 5.45868 127.697 5.97218C127.831 6.3294 128.11 6.51917 128.322 6.40754C128.522 6.28475 128.701 6.37405 128.701 6.61964V6.60848ZM135.926 5.55915C135.647 5.55915 135.435 5.9052 135.435 6.36289C135.435 7.22245 134.967 7.37873 132.179 7.44571C130.674 7.4792 130.395 7.35641 130.395 6.68662C130.395 5.8159 131.878 4.61028 132.904 4.65494C133.383 4.67726 133.417 4.7554 133.004 5.00099C132.592 5.24658 132.67 5.5145 133.317 6.1173C134.108 6.85407 134.22 6.8429 134.142 6.06149C134.097 5.68194 135.903 5.05681 136.193 5.34705C136.316 5.46984 136.193 5.57031 135.926 5.55915ZM149.127 6.31824C147.833 6.28475 146.785 6.07265 146.785 5.83822C146.785 5.20193 146.083 5.31356 145.314 6.06149C144.868 6.49685 144.489 6.58615 144.221 6.31824C143.742 5.8159 139.951 6.21777 139.75 6.78709C139.572 7.31175 136.271 7.40106 136.271 6.87639C136.271 6.64197 136.461 6.34056 136.695 6.20661C136.929 6.07265 137.029 5.79357 136.918 5.6038C136.561 5.02332 138.401 4.91169 144.912 5.11262C149.472 5.25774 151.167 5.44752 151.29 5.83822C151.424 6.21777 150.81 6.35173 149.127 6.30708V6.31824ZM156.441 5.43635C156.441 5.79357 156.251 6.08381 156.017 6.07265C155.794 6.07265 155.605 5.88288 155.605 5.67078C155.605 5.44752 155.794 5.15728 156.017 5.02332C156.251 4.88936 156.441 5.06797 156.441 5.43635ZM161.904 5.42519C161.904 5.71543 161.503 5.78241 160.879 5.61496C160.31 5.45868 159.73 5.52566 159.574 5.77125C159.429 6.01683 159.017 6.09498 158.682 5.96102C158.337 5.8159 157.879 5.70427 157.668 5.6931C157.456 5.6931 157.288 5.49217 157.288 5.26891C157.288 5.03448 158.325 4.86704 159.596 4.90053C161.001 4.93401 161.904 5.14611 161.904 5.42519ZM165.684 4.98983C165.104 4.97867 164.87 4.8782 165.16 4.76657C165.45 4.65494 165.918 4.6661 166.208 4.78889C166.498 4.91169 166.264 5.00099 165.695 4.98983H165.684ZM179.108 4.11911C177.737 4.05213 177.726 4.0298 178.674 3.67258C179.354 3.427 179.833 3.44932 180.123 3.73956C180.424 4.05213 180.101 4.16376 179.108 4.13027V4.11911ZM171.46 86.9716C170.846 86.5362 164.692 83.8571 163.454 82.9194C162.506 82.205 161.024 83.4329 161.024 83.8348C161.024 85.152 160.076 85.4646 157.021 85.1743C157.021 85.1743 134.911 85.1967 111.14 85.0069C87.3687 84.8283 20.1584 83.2096 20.1584 83.2096L8.58507 82.8859L8.74117 53.4265C8.88612 27.7514 9.25406 15.1148 9.98993 14.4003C10.0791 14.311 10.5586 14.4673 11.0492 14.7464C11.7404 15.1371 12.1084 15.1371 12.5655 14.7464C12.9892 14.4115 40.239 14.3222 42.7812 14.2664C45.3233 14.2105 48.1665 14.1212 49.0919 14.0543C50.0173 13.9873 54.834 13.9315 59.8067 13.9315C64.7683 13.9315 72.8073 13.9315 77.6685 13.9315C82.5298 13.9315 87.9039 13.8757 89.6433 13.831C91.3715 13.7752 94.5826 13.6747 96.7791 13.6077C98.9756 13.5296 102.856 13.4291 105.398 13.3622C107.94 13.2952 110.683 13.1835 111.497 13.1277C112.299 13.0607 115.421 12.9491 118.432 12.871C121.431 12.7928 124.018 12.6477 124.174 12.5584C124.475 12.3798 134.153 12.2793 146.161 12.3351C150.086 12.3575 153.297 12.3351 153.297 12.3128C153.297 12.2793 155.661 12.2458 158.548 12.2235C161.436 12.2124 167.301 12.1454 171.582 12.0896C175.853 12.0226 180.68 11.9668 182.297 11.9556C186.835 11.9333 197.137 11.7323 199.947 11.6319C213.36 11.1072 216.025 11.1295 236.808 11.8551C243.855 12.1007 260.044 12.5472 261.081 13.0942C262.017 13.5854 262.14 13.898 262.095 15.952C262.051 19.167 262.809 82.9975 262.084 83.1985C261.148 83.4552 249.441 84.326 239.818 84.6832C231.936 84.9734 215.323 84.8394 214.353 84.2032C213.617 83.7343 211.331 83.5892 210.84 84.0022C210.539 84.2366 205.299 86.6925 204.998 90.5773C204.886 91.9503 205.254 92.888 207.116 96.0919C208.354 98.224 216.973 112.39 216.973 112.602C216.973 113.216 216.07 113.049 215.256 112.289L171.493 86.9716H171.46Z" fill="black"/>
</g>
<defs>
<clipPath id="clip0_4331_1673">
<rect width="273" height="136" fill="white"/>
</clipPath>
</defs>
</svg>
