<svg width="187" height="37" viewBox="0 0 187 37" fill="none" xmlns="http://www.w3.org/2000/svg">
<path d="M68.2076 10.8232C60.7858 10.8232 57.2295 14.8434 57.2295 21.6467V26.44C57.2295 32.6248 60.1673 36.9542 68.053 36.9542C70.3723 37.1088 72.6916 36.4903 74.7017 35.408C76.0933 34.6349 77.3302 33.5525 78.258 32.161L75.4748 29.2232C75.1655 29.0685 74.7017 29.0685 74.5471 29.3778C73.3101 31.5425 71.7639 32.7794 68.053 32.7794C63.4143 32.7794 61.7135 30.6147 61.7135 26.7492V25.8215H77.3302C78.7218 25.8215 79.3403 25.0484 79.3403 24.1207V21.1829C79.1857 15.3073 75.9387 10.8232 68.2076 10.8232ZM74.5471 22.2652H61.7135V21.0282C61.7135 17.1627 63.7236 14.6888 68.2076 14.6888C72.6916 14.6888 74.5471 17.0081 74.5471 21.0282V22.2652Z" fill="white"/>
<path d="M141.343 10.8232C133.922 10.8232 130.365 14.8434 130.365 21.6467V26.44C130.365 32.6248 133.303 36.9542 141.189 36.9542C143.508 37.1088 145.827 36.4903 147.837 35.408C149.229 34.6349 150.466 33.5525 151.394 32.161L148.611 29.3778C148.301 29.2232 147.837 29.2232 147.683 29.5324C146.446 31.6971 144.9 32.9341 141.189 32.9341C136.55 32.9341 134.849 30.7694 134.849 26.9038V25.9761H150.466C151.858 25.9761 152.476 25.203 152.476 24.2753V21.3375C152.476 15.3073 149.074 10.8232 141.343 10.8232ZM147.683 22.2652H134.849V21.0282C134.849 17.1627 136.859 14.6888 141.343 14.6888C145.982 14.6888 147.683 17.0081 147.683 21.0282V22.2652Z" fill="white"/>
<path d="M53.0545 11.4419H51.3536C49.962 11.4419 49.4982 11.7511 49.1889 12.6789C49.1889 12.6789 42.3856 29.0687 42.231 30.3057H42.0764C41.7671 29.0687 34.8092 12.6789 34.8092 12.6789C34.4999 11.7511 34.0361 11.4419 32.6445 11.4419H30.9436C29.7067 11.4419 29.552 11.7511 30.0159 12.9881L39.6024 34.9443C39.757 35.7174 40.5301 36.1813 41.4579 36.0266H42.6948C43.468 36.1813 44.2411 35.7174 44.3957 34.9443L54.1368 12.8335C54.6007 11.7511 54.2914 11.4419 53.0545 11.4419Z" fill="white"/>
<path d="M97.7403 10.8232H96.0394C92.7924 10.8232 89.5453 11.4417 86.4529 12.3695C85.0613 12.6787 84.2882 13.9157 84.4429 15.3073V34.7895C84.4429 35.7172 84.7521 36.0265 85.6798 36.0265H87.8445C88.7722 36.0265 89.0815 35.7172 89.0815 34.7895V17.0081C89.0815 16.5442 89.3907 16.0804 89.8546 15.9257C91.8647 15.3073 93.8747 14.998 96.0394 14.998H97.8949C98.8226 14.998 99.1319 14.6888 99.1319 13.761V11.9056C98.9772 11.1325 98.668 10.8232 97.7403 10.8232Z" fill="white"/>
<path d="M23.6766 11.4419H21.5119C20.5841 11.4419 20.2749 11.7511 20.2749 12.6789V34.9443C20.2749 35.872 20.5841 36.1813 21.5119 36.1813H23.6766C24.6043 36.1813 24.9135 35.872 24.9135 34.9443V12.6789C25.0682 11.7511 24.6043 11.4419 23.6766 11.4419Z" fill="white"/>
<path d="M115.212 10.8233C112.893 10.8233 110.574 11.2872 108.254 12.0603V8.96786V4.94771C108.254 4.17461 107.945 3.55613 107.481 2.93764L105.007 0.463701C104.853 0.30908 104.698 0.309082 104.389 0.309082C103.925 0.309082 103.616 0.618324 103.616 1.08219V1.23681C103.616 3.09226 103.616 9.89559 103.616 32.4703C103.616 34.1711 103.925 34.635 105.626 35.4081C108.409 36.4904 111.347 37.1089 114.285 36.9543C122.17 36.9543 125.417 34.1711 125.417 27.2132V20.2552C125.263 13.6065 122.634 10.8233 115.212 10.8233ZM120.624 27.0585C120.624 31.5425 118.923 32.6249 113.975 32.6249C112.275 32.6249 110.728 32.3156 109.182 31.6972C108.409 31.3879 108.409 31.2333 108.409 30.7694V16.5443C110.419 15.7712 112.429 15.3073 114.594 15.1527C119.078 15.1527 120.624 16.2351 120.624 20.2552V27.0585Z" fill="white"/>
<path d="M178.916 4.79326C178.916 4.02015 178.607 3.40166 178.143 2.78318L175.669 0.309243C175.514 0.154622 175.36 0 175.05 0C174.586 0 174.277 0.309242 174.123 0.773106V11.5966V11.7512C171.958 10.9781 169.639 10.6689 167.319 10.6689C160.207 10.6689 157.114 13.452 157.114 20.2554V27.3679C157.114 34.0166 160.052 36.7998 167.783 36.7998C170.876 36.7998 173.968 36.336 176.751 35.2536C178.452 34.4805 178.761 34.1713 178.761 32.3158V12.5243L178.916 4.79326ZM174.277 30.7696C174.277 31.3881 174.277 31.5427 173.504 31.6973C171.803 32.3158 170.102 32.6251 168.247 32.6251C163.608 32.6251 161.753 31.5427 161.753 27.3679V20.5646C161.753 16.2352 163.299 15.1529 168.092 15.1529C170.102 15.1529 172.113 15.6167 174.123 16.2352L174.277 30.7696Z" fill="white"/>
<path d="M13.3169 10.8232H11.6161C8.36905 10.8232 5.12201 11.4417 2.02958 12.3695C0.637994 12.6787 -0.135111 13.9157 0.0195105 15.3073V34.7895C0.0195105 35.7172 0.328751 36.0265 1.25648 36.0265H3.42118C4.3489 36.0265 4.65814 35.7172 4.65814 34.7895V17.0081C4.65814 16.5442 4.96739 16.0804 5.43125 15.9257C7.44132 15.3073 9.4514 14.998 11.6161 14.998H13.4715C14.3993 14.998 14.7085 14.6888 14.7085 13.761V11.9056C14.5539 11.1325 14.2446 10.8232 13.3169 10.8232Z" fill="white"/>
<path d="M22.7488 3.40137H22.4396C20.7388 3.40137 20.2749 3.86523 20.2749 5.56607V5.8753C20.2749 7.57613 20.8934 8.04 22.4396 8.04H22.7488C24.4497 8.04 24.9135 7.57613 24.9135 5.8753V5.56607C25.0682 3.86523 24.4497 3.40137 22.7488 3.40137Z" fill="white"/>
<path d="M184.048 0.204102C185.285 0.204102 186.213 1.13183 186.213 2.3688C186.213 3.60577 185.285 4.53349 184.048 4.53349C182.811 4.53349 181.883 3.60577 181.883 2.3688C181.883 1.28645 182.811 0.204102 184.048 0.204102ZM184.048 4.37887C184.976 4.37887 185.903 3.60577 185.903 2.52342C185.903 1.59569 185.13 0.667964 184.203 0.667964C183.275 0.667964 182.502 1.44107 182.502 2.52342C182.347 3.45114 183.12 4.22425 184.048 4.37887ZM183.43 1.28645H184.357C184.666 1.28645 184.976 1.59569 185.13 1.90493C185.13 2.21418 184.976 2.52342 184.666 2.52342C184.666 2.52342 184.666 2.52342 184.821 2.67804L185.285 3.60576H184.976L184.512 2.67804H184.048V3.60576H183.584L183.43 1.28645ZM184.203 2.3688C184.512 2.3688 184.666 2.21418 184.666 1.90493C184.666 1.75031 184.512 1.59569 184.357 1.44107H183.893V2.3688H184.203Z" fill="white"/>
</svg>
