<svg width="25" height="25" viewBox="0 0 25 25" fill="none" xmlns="http://www.w3.org/2000/svg">
<path d="M24.3563 21.2533L17.5149 14.4116C18.4044 12.9705 18.919 11.2742 18.919 9.45904C18.919 4.24328 14.6751 0 9.45952 0C4.24399 0 0 4.24328 0 9.45995C0 14.6766 4.24308 18.9199 9.45952 18.9199C11.2737 18.9199 12.9699 18.4053 14.4119 17.5157L21.2533 24.3574C21.6814 24.7855 22.2428 25 22.8052 25C23.3676 25 23.9282 24.7855 24.3572 24.3574C25.2143 23.5003 25.2143 22.1105 24.3572 21.2533H24.3563ZM2.7434 9.45995C2.7434 5.75654 5.75628 2.74353 9.45952 2.74353C13.1628 2.74353 16.1756 5.75654 16.1756 9.45995C16.1756 13.1633 13.1628 16.1764 9.45952 16.1764C5.75628 16.1764 2.7434 13.1633 2.7434 9.45995Z" fill="white"/>
</svg>
