<svg width="505" height="442" viewBox="0 0 505 442" fill="none" xmlns="http://www.w3.org/2000/svg">
<g clip-path="url(#clip0_6299_4585)">
<path d="M373.859 224.43C377.65 227.072 394.399 236.459 396.525 230.868C398.651 225.276 378.316 207.887 347.992 199.116C353.883 200.27 364.767 202.732 365.075 199.193C365.382 195.858 351.194 187.01 335.264 182.547C318.258 177.802 299.434 177.546 299.075 177.495H299.024C300.1 177.007 302.84 176.135 304.428 176.263C316.132 177.289 322.945 168.697 320.947 165.543C315.492 166.928 310.37 165.902 305.196 164.876C297.615 163.388 289.932 161.901 281.045 167.979C281.148 165.312 281.199 162.055 280.379 158.874C279.867 156.951 277.178 148.025 274.591 150.359C270.954 153.642 271.236 162.388 265.653 169.133C264.987 168.107 264.244 167.056 263.425 166.004C261.734 163.773 255.332 152.719 252.591 152.796C249.851 152.873 251.029 167.441 251.029 170.313C250.645 169.723 250.107 169.441 249.646 169.082C239.299 161.08 206.107 155.591 204.673 166.697C204.468 168.261 215.891 169.492 220.808 174.699C220.526 174.75 234.484 176.674 220.065 174.827C205.646 172.981 173.223 178.444 170.995 188.42C170.559 190.831 176.117 190.524 182.34 190.19C187.796 189.908 193.763 189.6 196.683 191.114C188.82 191.139 168.613 192.883 153.835 201.757C140.8 209.606 134.166 223.507 136.292 224.738C138.418 225.969 149.456 213.632 151.991 213.017C151.326 213.863 131.195 232.329 134.627 242.999C135.421 245.461 143.284 237.716 145.461 236.1C145.281 236.664 135.37 246.461 130.53 259.465C125.689 272.494 125.228 282.368 127.635 282.779C130.094 283.189 132.604 272.571 133.526 271.417L133.449 272.084C115.112 327.431 124.28 371.776 135.985 376.957C137.726 377.958 140.518 376.829 140.825 372.238C139.109 398.578 147.714 418.455 152.529 402.374L153.042 406.221C154.962 421.661 159.982 450.72 171.584 418.635C171.584 418.635 184.184 469.648 211.05 420.61C211.05 420.61 224.727 465.853 243.96 417.455C243.96 417.455 262.759 460.159 275.027 414.172C275.027 414.172 288.088 449.053 301.995 411.787C301.995 411.787 319.205 441.231 329.552 400.553C329.552 400.553 363.897 436.973 374.704 399.861C374.935 399.117 374.961 397.681 374.884 395.885C376.676 397.219 379.033 399.348 381.722 398.732C385.871 397.809 392.555 390.653 394.399 365.441C394.502 364.031 394.348 366.724 395.04 372.751C395.321 375.059 395.603 380.805 400.725 380.138C404.669 379.625 414.222 362.159 393.938 311.35C400.392 320.173 406.436 324.841 406.821 322.097C409.663 301.04 385.102 260.26 385.102 260.26C391.582 263.825 400.776 277.418 403.158 275.418C405.54 273.417 399.445 241.922 373.911 224.327L373.859 224.43ZM142.72 304.964V305.323H142.592L142.72 304.964Z" fill="#ED2789"/>
<path d="M334.931 282.368C327.657 300.912 306.733 310.017 288.242 302.733C269.751 295.449 260.633 274.494 267.932 255.977C275.206 237.459 296.104 228.328 314.621 235.638C333.138 242.922 342.23 263.876 334.931 282.394" fill="white"/>
<path d="M242.782 299.322C236.508 315.274 218.529 323.097 202.624 316.839C186.694 310.555 178.883 292.551 185.132 276.598C191.407 260.645 209.386 252.822 225.29 259.106C241.22 265.39 249.031 283.394 242.782 299.322Z" fill="white"/>
<path d="M349.964 263.184C350.374 264.03 350.758 264.877 351.117 265.723C351.475 266.569 351.859 267.441 352.192 268.288C352.884 270.006 353.55 271.75 354.113 273.52C354.677 275.29 355.189 277.059 355.547 278.88C355.906 280.676 356.162 282.522 356.111 284.318L357.391 283.574C355.932 282.702 354.472 281.83 352.986 280.983L348.556 278.419L345.021 276.367L347.147 279.778C348.146 281.368 349.068 282.933 349.862 284.6C350.656 286.267 351.373 287.96 352.064 289.704L353.55 288.344C351.834 287.601 350.118 286.908 348.402 286.19L345.431 284.933L346.993 287.652C347.121 287.883 347.301 288.216 347.429 288.524C347.557 288.832 347.685 289.139 347.787 289.447C348.018 290.088 348.197 290.73 348.299 291.371C348.53 292.679 348.504 294.012 348.12 295.269L349.811 294.833L345.201 290.242L342.46 287.524L343.638 291.166C343.69 291.294 343.741 291.499 343.766 291.679C343.818 291.858 343.843 292.063 343.869 292.268C343.92 292.653 343.971 293.064 343.997 293.474C344.048 294.269 344.022 295.115 343.946 295.936C343.792 297.578 343.382 299.245 342.819 300.835L344.048 300.707L341.794 296.731L340.949 295.244L340.77 296.962C340.667 297.885 340.488 298.86 340.258 299.809C340.027 300.758 339.745 301.707 339.438 302.656C339.131 303.605 338.747 304.528 338.337 305.451C337.927 306.375 337.466 307.272 336.928 308.144C337.543 307.324 338.106 306.477 338.619 305.58C339.131 304.682 339.566 303.784 339.976 302.835C340.386 301.912 340.744 300.937 341.052 299.988C341.359 299.014 341.615 298.065 341.794 297.039L340.77 297.27L342.768 301.373L343.408 302.681L344.022 301.245C344.381 300.399 344.688 299.552 344.919 298.68C345.175 297.808 345.354 296.911 345.482 296.039C345.61 295.141 345.662 294.243 345.662 293.346C345.662 292.91 345.636 292.448 345.585 291.986C345.585 291.755 345.534 291.525 345.482 291.319C345.431 291.089 345.405 290.883 345.329 290.601L343.766 291.525L348.248 296.218L349.375 297.398L349.939 295.757C350.22 294.961 350.374 294.141 350.425 293.32C350.476 292.499 350.425 291.73 350.297 290.935C350.169 290.165 349.964 289.422 349.708 288.703C349.58 288.344 349.452 287.985 349.298 287.626C349.145 287.267 348.991 286.934 348.786 286.575L347.378 288.037C349.093 288.755 350.784 289.498 352.5 290.217L354.933 291.217L353.985 288.857C353.268 287.088 352.525 285.344 351.68 283.625C351.245 282.779 350.809 281.932 350.323 281.086C349.836 280.265 349.298 279.47 348.786 278.675L347.378 280.034L351.885 282.497C353.37 283.317 354.882 284.112 356.393 284.908L357.699 285.6V284.164C357.622 282.189 357.289 280.291 356.802 278.444C356.316 276.623 355.701 274.828 354.984 273.084C354.267 271.34 353.499 269.647 352.628 267.98C351.757 266.313 350.835 264.697 349.836 263.133" fill="#AA206B"/>
<path d="M244.191 297.654C241.809 304.605 237.02 310.735 230.156 314.582C215.097 323.046 195.837 317.378 187.181 301.938C183.647 295.628 182.443 288.652 183.262 282.035C180.394 290.37 180.983 299.963 185.695 308.375C194.352 323.815 213.611 329.483 228.671 321.02C237.583 316.018 242.987 307.221 244.191 297.654Z" fill="#AA206B"/>
<path d="M210.718 313.171C195.172 311.273 183.749 298.347 183.365 283.292C183.211 284.061 183.058 284.805 182.955 285.6C180.881 302.502 193.046 317.916 210.128 319.994C227.211 322.071 242.731 310.042 244.806 293.14C244.985 291.627 245.036 290.114 244.985 288.626C241.86 304.297 227.006 315.172 210.718 313.171Z" fill="#CEDCE5"/>
<path d="M336.544 281.548C333.752 289.652 328.195 296.731 320.23 301.219C302.712 311.042 280.354 304.451 270.263 286.523C266.14 279.188 264.757 271.083 265.704 263.389C262.375 273.084 263.041 284.215 268.547 294.012C278.612 311.966 300.996 318.532 318.514 308.709C328.861 302.912 335.161 292.653 336.544 281.548Z" fill="#AA206B"/>
<path d="M297.641 299.552C279.585 297.347 266.293 282.317 265.832 264.825C265.653 265.697 265.474 266.595 265.371 267.493C262.964 287.139 277.101 305.041 296.95 307.452C316.798 309.863 334.828 295.91 337.236 276.238C337.441 274.469 337.492 272.725 337.441 271.006C333.804 289.242 316.542 301.861 297.616 299.552H297.641Z" fill="#CEDCE5"/>
<path d="M140.569 259.106L380.928 236.407L140.569 259.106Z" fill="#010101"/>
<path d="M215.942 221.275C202.932 223.686 190.895 231.15 182.853 241.64C181.982 242.768 180.189 241.793 180.65 240.46C183.288 232.483 189.025 223.378 194.839 220.121C201.344 216.479 209.155 216.659 216.121 219.3C217.095 219.659 216.967 221.096 215.942 221.275Z" fill="#721548"/>
<path d="M274.463 214.966C287.678 214.453 301.047 219.044 311.24 227.508C312.316 228.405 313.853 227.072 313.136 225.866C308.807 218.685 301.201 211.068 294.798 209.17C287.627 207.041 280.072 208.964 273.848 213.068C272.978 213.632 273.413 215.017 274.463 214.966Z" fill="#721548"/>
<path d="M165.437 281.471C164.387 283.394 163.465 285.395 162.671 287.447C161.852 289.498 161.186 291.602 160.622 293.73C160.085 295.885 159.7 298.065 159.547 300.322C159.393 302.553 159.496 304.836 159.982 307.093L160.418 309.093L161.57 307.349C162.723 305.605 164.054 303.989 165.565 302.528C167.051 301.066 168.715 299.732 170.431 298.501L168.869 297.142C168.715 297.449 168.587 297.68 168.485 297.962C168.357 298.219 168.254 298.501 168.152 298.757C167.947 299.296 167.768 299.835 167.614 300.373C167.281 301.45 167.025 302.553 166.846 303.682C166.462 305.887 166.385 308.17 166.564 310.427L166.718 312.505L168.357 311.222L173.069 307.503L171.353 306.323C171.225 306.785 171.123 307.17 171.046 307.606C170.969 308.016 170.892 308.452 170.841 308.863C170.739 309.709 170.688 310.555 170.739 311.402C170.79 313.12 171.2 314.89 172.071 316.454L172.967 318.019L173.863 316.454L177.423 310.222L175.682 309.658C175.682 309.965 175.682 310.196 175.682 310.453C175.682 310.709 175.707 310.966 175.733 311.196C175.784 311.684 175.835 312.171 175.938 312.658C176.117 313.633 176.348 314.582 176.655 315.48C176.962 316.403 177.346 317.301 177.756 318.173C178.192 319.045 178.678 319.865 179.19 320.686L180.061 322.046L180.42 320.507L181.572 315.582H180.548C180.958 316.659 181.419 317.608 181.905 318.583C182.417 319.532 182.955 320.455 183.57 321.353C184.774 323.148 186.157 324.79 187.744 326.226C187.027 325.431 186.387 324.61 185.772 323.713C185.158 322.841 184.594 321.943 184.108 321.02C183.595 320.096 183.134 319.147 182.699 318.198C182.289 317.249 181.88 316.249 181.598 315.274L181.086 313.556L180.573 315.3L179.139 320.173L180.394 319.994C179.498 318.429 178.755 316.762 178.243 315.044C177.987 314.172 177.807 313.3 177.679 312.428C177.628 311.992 177.577 311.556 177.551 311.12C177.551 310.889 177.551 310.684 177.551 310.478C177.551 310.273 177.551 310.042 177.577 309.888L178.038 305.682L175.835 309.324L172.122 315.48H173.889C173.223 314.274 172.941 312.838 172.916 311.376C172.916 310.658 172.916 309.888 173.044 309.17C173.095 308.811 173.146 308.427 173.223 308.067C173.3 307.708 173.377 307.324 173.479 307.016L174.504 303.707L171.763 305.836L167.025 309.504L168.818 310.299C168.639 308.221 168.715 306.144 169.048 304.092C169.202 303.066 169.433 302.04 169.714 301.066C169.868 300.578 170.022 300.065 170.201 299.604C170.278 299.373 170.38 299.116 170.483 298.886C170.585 298.655 170.688 298.398 170.764 298.219L172.685 294.295L169.228 296.885C167.461 298.193 165.77 299.629 164.208 301.219C163.44 302.015 162.697 302.861 162.005 303.733C161.314 304.631 160.699 305.554 160.136 306.503L161.724 306.759C161.186 304.759 161.032 302.604 161.058 300.476C161.083 298.347 161.365 296.193 161.749 294.064C162.133 291.935 162.671 289.832 163.312 287.729C163.619 286.677 163.977 285.651 164.336 284.625C164.695 283.599 165.079 282.574 165.514 281.573" fill="#AA206B"/>
<path d="M199.935 280.701C193.481 288.498 194.557 300.065 202.317 306.528C210.103 312.992 221.653 311.914 228.107 304.143C234.561 296.346 233.486 284.779 225.726 278.316C217.94 271.853 206.389 272.93 199.935 280.701Z" fill="#B11F5D"/>
<path d="M204.34 284.343C199.884 289.704 200.627 297.68 205.98 302.117C211.332 306.58 219.297 305.836 223.728 300.476C228.159 295.115 227.441 287.139 222.089 282.702C216.736 278.239 208.771 278.983 204.34 284.343Z" fill="#E67AAF"/>
<path d="M207.055 286.6C203.854 290.473 204.391 296.192 208.233 299.398C212.075 302.604 217.812 302.066 221.013 298.219C224.214 294.346 223.677 288.626 219.835 285.42C215.968 282.214 210.256 282.753 207.055 286.6Z" fill="#010101"/>
<path d="M206.799 277.88C204.494 280.65 204.878 284.753 207.644 287.062C210.41 289.37 214.508 288.985 216.813 286.215C219.118 283.445 218.734 279.342 215.968 277.033C213.202 274.725 209.104 275.11 206.799 277.88Z" fill="white"/>
<path d="M333.855 265.21C334.265 270.16 330.602 274.495 325.659 274.905C320.717 275.315 316.388 271.648 315.979 266.698C315.569 261.748 319.231 257.413 324.174 257.003C329.117 256.592 333.445 260.26 333.855 265.21Z" fill="#B11F5D"/>
<path d="M331.063 265.441C331.345 268.852 328.81 271.827 325.429 272.109C322.048 272.391 319.052 269.852 318.77 266.467C318.488 263.081 321.024 260.08 324.405 259.798C327.811 259.516 330.782 262.055 331.063 265.441Z" fill="#E67AAF"/>
<path d="M329.348 265.595C329.552 268.031 327.734 270.186 325.275 270.391C322.842 270.596 320.691 268.775 320.486 266.313C320.281 263.851 322.1 261.722 324.558 261.517C327.017 261.312 329.143 263.133 329.348 265.595Z" fill="#010101"/>
<path d="M331.883 262.158C332.037 263.928 330.731 265.467 328.963 265.595C327.196 265.723 325.66 264.441 325.532 262.671C325.403 260.901 326.684 259.362 328.451 259.234C330.218 259.106 331.755 260.388 331.883 262.158Z" fill="white"/>
<path d="M261.786 393.552C261.786 393.552 286.142 381.01 297.052 383.934C307.962 386.857 273.593 389.73 261.786 393.552Z" fill="#721548"/>
<path d="M283.12 371.187C283.12 371.187 291.853 366.519 298.922 369.084C305.99 371.648 308.5 373.008 308.5 373.008C308.5 373.008 302.635 365.878 293.031 366.16C283.427 366.442 283.12 371.161 283.12 371.161V371.187Z" fill="#AA206B"/>
<path d="M275.36 348.847C275.36 349.104 275.36 349.386 275.36 349.642C275.539 349.617 275.769 349.566 275.949 349.514C275.744 349.283 275.565 349.053 275.36 348.847Z" fill="#AA206B"/>
<path d="M261.581 353.721C261.453 353.49 261.299 353.233 261.145 353.002C261.145 353.31 261.12 353.618 261.12 353.9C261.325 353.823 261.453 353.772 261.453 353.772C261.504 353.772 261.53 353.746 261.581 353.721Z" fill="#AA206B"/>
<path d="M270.929 360.312C270.929 360.312 270.98 360.286 270.98 360.261C270.929 360.261 270.903 360.261 270.852 360.286C270.852 360.286 270.903 360.286 270.929 360.286V360.312Z" fill="#AA206B"/>
<path d="M295.336 354.798C295.029 355.644 294.619 356.516 293.927 357.311C293.594 357.696 293.159 358.055 292.698 358.337C292.212 358.619 291.674 358.799 291.161 358.901C290.086 359.107 289.087 358.953 288.191 358.696C287.294 358.44 286.475 358.081 285.706 357.67C284.938 357.26 284.221 356.798 283.529 356.311C283.299 356.157 283.12 355.977 282.915 355.824C280.405 357.055 277.588 358.209 274.566 359.209C274.437 359.619 274.284 360.03 274.105 360.466C273.9 360.902 273.669 361.338 273.259 361.774C273.08 362.005 272.85 362.21 272.542 362.389C272.261 362.569 271.928 362.723 271.595 362.825C270.878 363.005 270.212 362.928 269.674 362.748C269.136 362.569 268.701 362.338 268.316 362.082C267.932 361.825 267.599 361.543 267.266 361.261C267.241 361.235 267.215 361.21 267.19 361.184C264.731 361.723 262.375 362.133 260.121 362.364C260.07 362.543 260.044 362.748 259.967 362.928C259.66 363.851 259.25 364.775 258.61 365.647C258.277 366.083 257.893 366.519 257.406 366.878C256.92 367.237 256.331 367.545 255.716 367.699C255.101 367.852 254.461 367.878 253.897 367.827C253.308 367.75 252.796 367.596 252.284 367.416C251.311 367.006 250.491 366.467 249.749 365.878C248.494 364.852 247.469 363.672 246.547 362.415C242.116 367.057 238.07 373.444 236.764 381.933C232.922 407.068 249.902 391.756 264.526 386.062C274.591 382.164 282.121 379.958 290.342 378.496C305.811 375.752 328.272 379.112 311.497 360.004C306.861 354.721 301.431 351.643 296.207 349.848C296.156 350.617 296.079 351.387 295.976 352.156C295.848 353.002 295.643 353.849 295.336 354.721V354.798Z" fill="#721548"/>
<path d="M276.128 349.72C276.128 349.72 276 349.591 275.949 349.514C275.769 349.54 275.564 349.591 275.36 349.643C275.385 351.233 275.36 352.823 275.283 354.413C275.155 355.978 275.001 357.542 274.54 359.209C277.562 358.209 280.354 357.055 282.889 355.824C281.762 354.977 280.661 354.105 279.637 353.182C278.433 352.079 277.255 350.925 276.154 349.72H276.128Z" fill="white"/>
<path d="M262.81 355.747C262.375 355.08 261.991 354.413 261.607 353.72C261.555 353.72 261.53 353.746 261.479 353.772C261.479 353.772 261.35 353.823 261.146 353.9C261.146 355.105 261.146 356.311 261.043 357.542C260.889 359.158 260.633 360.774 260.147 362.415C262.375 362.184 264.757 361.774 267.215 361.235C266.626 360.697 266.088 360.132 265.602 359.542C264.577 358.311 263.681 357.055 262.836 355.747H262.81Z" fill="white"/>
<path d="M328.041 327.098C328.323 328.021 328.502 328.97 328.554 329.919C328.605 330.868 328.477 331.843 328.118 332.715C327.76 333.587 327.171 334.382 326.428 334.972C325.685 335.588 324.814 336.024 323.892 336.357C322.074 336.998 320.102 337.255 318.156 337.306C316.209 337.357 314.263 337.28 312.367 337.024L311.65 336.921L311.753 337.639C311.932 338.768 312.035 339.922 312.086 341.076C312.111 342.205 312.086 343.359 311.83 344.436C311.599 345.513 311.164 346.514 310.447 347.155C309.73 347.796 308.679 347.975 307.629 347.898C306.554 347.822 305.478 347.488 304.428 347.078C303.378 346.667 302.354 346.154 301.355 345.59C300.356 345.026 299.383 344.41 298.435 343.769C297.487 343.128 296.54 342.436 295.695 341.743L293.928 340.307L294.081 342.589C294.184 344.18 294.26 345.77 294.235 347.36C294.235 348.027 294.184 348.694 294.158 349.36C294.107 350.258 294.004 351.156 293.851 352.028C293.723 352.772 293.518 353.515 293.262 354.208C293.006 354.875 292.673 355.516 292.237 355.952C291.802 356.414 291.341 356.67 290.777 356.773C290.214 356.875 289.548 356.773 288.857 356.593C287.602 356.208 286.398 355.49 285.22 354.695C285.117 354.618 285.015 354.567 284.912 354.49C283.658 353.592 282.454 352.566 281.327 351.489C280.559 350.771 279.842 350.002 279.099 349.232C278.74 348.847 278.356 348.514 278.023 348.129C277.972 348.078 277.921 348.001 277.869 347.95C276.871 346.847 275.872 345.693 274.95 344.539L272.44 341.384L272.619 345.436C272.67 346.565 272.696 347.668 272.696 348.796C272.696 349.181 272.722 349.566 272.722 349.95C272.722 350.053 272.722 350.155 272.722 350.284C272.722 351.669 272.722 353.054 272.594 354.439C272.491 355.901 272.312 357.388 271.928 358.696C271.748 359.337 271.467 359.953 271.185 360.261C271.083 360.389 271.031 360.389 270.955 360.415L270.903 360.466C270.903 360.466 270.852 360.466 270.826 360.466C270.75 360.466 270.673 360.466 270.519 360.44C270.109 360.312 269.572 359.927 269.085 359.491C268.598 359.055 268.112 358.517 267.651 357.978C266.729 356.875 265.909 355.67 265.09 354.439C264.782 353.951 264.501 353.438 264.193 352.925C263.937 352.489 263.681 352.079 263.425 351.643C263.22 351.31 263.015 350.976 262.81 350.617C262.093 349.309 261.376 348.001 260.736 346.667L257.534 340.102L258.123 347.411C258.303 349.514 258.38 351.617 258.38 353.721C258.38 354.285 258.354 354.849 258.328 355.439C258.328 356.157 258.328 356.875 258.277 357.568C258.123 359.235 257.893 360.902 257.381 362.389C257.329 362.543 257.278 362.672 257.227 362.8C256.997 363.39 256.74 363.954 256.407 364.39C255.998 364.954 255.537 365.288 255.05 365.416C254.564 365.544 253.949 365.467 253.283 365.211C252.643 364.954 251.977 364.544 251.388 364.057C250.773 363.569 250.21 363.031 249.646 362.441C249.493 362.261 249.364 362.082 249.211 361.902C248.903 361.543 248.596 361.184 248.314 360.799C248.238 360.722 248.161 360.645 248.11 360.543C246.189 357.875 244.729 354.823 243.807 351.643L242.987 348.822L241.579 351.464C240.375 353.695 239.069 355.849 237.507 357.773C236.738 358.722 235.893 359.62 234.971 360.338C234.049 361.056 233.025 361.569 232.026 361.671C231.027 361.774 230.028 361.441 229.132 360.799C228.235 360.158 227.467 359.26 226.801 358.286C226.135 357.311 225.572 356.234 225.06 355.131C224.573 354.028 224.112 352.874 223.754 351.746L223.395 350.566L222.371 351.284C219.118 353.567 215.737 355.695 212.203 357.439C210.436 358.311 208.617 359.055 206.748 359.62C205.826 359.876 204.878 360.107 203.931 360.184C202.983 360.286 202.035 360.286 201.165 360.081C200.294 359.876 199.5 359.466 198.936 358.799C198.373 358.132 198.066 357.286 197.989 356.388C197.912 355.49 197.989 354.541 198.245 353.618C198.475 352.695 198.834 351.797 199.295 350.951C200.191 349.232 201.446 347.668 202.932 346.385C204.417 345.103 206.21 344.077 208.131 343.538C206.184 344 204.34 344.923 202.727 346.154C201.139 347.386 199.782 348.95 198.757 350.694C198.245 351.566 197.835 352.489 197.528 353.464C197.221 354.439 197.067 355.439 197.118 356.491C197.169 357.516 197.477 358.568 198.143 359.414C198.808 360.261 199.807 360.825 200.832 361.107C201.856 361.389 202.932 361.441 203.982 361.364C205.032 361.287 206.056 361.107 207.055 360.851C209.053 360.363 210.974 359.594 212.818 358.747C216.173 357.209 219.323 355.336 222.371 353.361C222.652 354.233 222.908 355.106 223.267 355.952C223.779 357.132 224.368 358.311 225.085 359.414C225.802 360.517 226.673 361.594 227.826 362.441C228.389 362.877 229.055 363.236 229.798 363.492C230.54 363.749 231.334 363.826 232.128 363.774C232.922 363.698 233.691 363.492 234.382 363.185C235.074 362.877 235.714 362.492 236.277 362.056C237.43 361.21 238.403 360.209 239.274 359.158C240.401 357.799 241.374 356.362 242.27 354.875C242.578 355.721 242.936 356.542 243.295 357.337C244.037 358.953 244.934 360.517 245.958 361.979C246.112 362.184 246.291 362.389 246.445 362.595C247.367 363.826 248.391 365.031 249.646 366.057C250.389 366.647 251.208 367.211 252.182 367.596C252.668 367.776 253.206 367.955 253.795 368.006C254.384 368.083 254.999 368.058 255.614 367.878C256.228 367.724 256.817 367.416 257.304 367.057C257.79 366.698 258.175 366.262 258.508 365.826C259.148 364.954 259.558 364.005 259.865 363.108C259.942 362.928 259.942 362.723 260.019 362.543C260.505 360.902 260.761 359.286 260.915 357.67C261.017 356.439 261.017 355.234 261.017 354.028C261.017 353.721 261.043 353.413 261.043 353.131C261.171 353.361 261.325 353.618 261.478 353.849C261.863 354.516 262.272 355.208 262.682 355.875C263.527 357.183 264.424 358.44 265.448 359.671C265.935 360.261 266.473 360.825 267.062 361.364C267.087 361.389 267.113 361.415 267.138 361.441C267.446 361.723 267.804 362.005 268.189 362.261C268.573 362.518 269.008 362.749 269.546 362.928C270.058 363.108 270.75 363.185 271.467 363.005C271.825 362.902 272.158 362.749 272.414 362.569C272.696 362.389 272.927 362.159 273.131 361.953C273.516 361.517 273.772 361.081 273.977 360.645C274.182 360.209 274.335 359.799 274.438 359.389C274.899 357.747 275.078 356.157 275.18 354.593C275.283 352.977 275.283 351.387 275.257 349.822C275.257 349.566 275.257 349.283 275.257 349.027C275.462 349.258 275.641 349.489 275.846 349.694C275.897 349.771 275.974 349.822 276.025 349.899C277.152 351.079 278.305 352.233 279.509 353.361C280.533 354.285 281.634 355.157 282.761 356.003C282.966 356.157 283.145 356.337 283.376 356.491C284.067 356.978 284.784 357.439 285.553 357.85C286.321 358.26 287.141 358.619 288.037 358.876C288.933 359.132 289.932 359.286 291.008 359.081C291.546 358.978 292.084 358.799 292.545 358.517C293.031 358.235 293.441 357.875 293.774 357.491C294.465 356.721 294.875 355.849 295.183 354.977C295.49 354.131 295.669 353.259 295.823 352.412C295.951 351.643 296.028 350.874 296.053 350.104C296.104 349.207 296.13 348.309 296.13 347.411C296.13 346.462 296.028 345.513 295.976 344.564C296.386 344.846 296.77 345.154 297.18 345.436C298.179 346.077 299.203 346.693 300.279 347.257C301.355 347.822 302.43 348.334 303.608 348.745C304.761 349.155 305.99 349.489 307.296 349.566C307.962 349.591 308.628 349.566 309.32 349.36C310.011 349.181 310.677 348.822 311.215 348.335C311.753 347.847 312.137 347.257 312.419 346.642C312.7 346.026 312.854 345.411 312.956 344.795C313.161 343.564 313.161 342.333 313.085 341.153C313.008 340.179 312.88 339.23 312.7 338.281C314.468 338.434 316.235 338.46 317.976 338.332C319.974 338.178 321.997 337.845 323.892 337.075C324.84 336.69 325.736 336.177 326.505 335.485C327.273 334.818 327.862 333.92 328.195 332.971C328.528 332.023 328.579 331.022 328.477 330.048C328.374 329.073 328.144 328.15 327.811 327.252L328.041 327.098Z" fill="#721548"/>
<path d="M163.052 248.65C163.427 244.403 159.848 240.616 155.058 240.191C150.267 239.766 146.08 242.865 145.704 247.112C145.329 251.359 148.908 255.146 153.698 255.571C158.488 255.995 162.676 252.897 163.052 248.65Z" fill="white"/>
<path d="M399.494 269.577C399.87 265.33 396.291 261.543 391.5 261.118C386.71 260.693 382.522 263.792 382.146 268.039C381.771 272.286 385.35 276.073 390.14 276.498C394.931 276.923 399.119 273.824 399.494 269.577Z" fill="white"/>
<path d="M401.775 260.875C401.775 260.875 368.456 251.976 343.715 249.796C308.347 246.666 287.218 251.924 273.106 250.668C259.02 249.411 239.146 240.537 203.751 237.382C179.011 235.202 144.667 238.074 144.667 238.074C143.694 238.151 142.925 239.023 142.951 239.998C142.951 239.998 143.284 253.643 143.386 254.669C143.463 255.72 144.308 256.079 144.718 256.182C161.135 260.773 136.932 322.84 197.426 328.201C260.147 333.766 250.722 269.031 271.339 270.852C291.956 272.673 271.339 334.741 334.034 340.307C394.502 345.667 381.568 280.291 398.549 278.675C398.984 278.624 399.88 278.444 400.136 277.418C400.392 276.418 403.133 263.055 403.133 263.055C403.338 262.106 402.723 261.106 401.775 260.875ZM198.527 321.43C185.44 320.276 176.911 316.762 170.867 310.017C162.672 300.912 159.598 286.138 161.493 264.851C162.313 255.695 165.694 249.975 172.148 246.846C178.576 243.717 188.436 242.871 203.188 244.179C248.315 248.18 253.59 257.746 252.822 266.569C250.876 288.678 241.22 325.226 198.552 321.455L198.527 321.43ZM146.511 247.308C146.511 247.308 150.02 245.538 154.092 245.897C158.19 246.256 161.314 248.616 161.314 248.616C161.314 248.616 157.805 250.385 153.733 250.026C149.636 249.667 146.511 247.308 146.511 247.308ZM363.385 327.072C356.239 332.638 347.224 334.587 334.137 333.433C291.469 329.663 288.37 291.986 290.317 269.878C291.085 261.055 297.974 252.565 343.101 256.567C357.827 257.875 367.406 260.439 373.194 264.646C379.007 268.877 381.338 275.11 380.544 284.266C378.674 305.554 373.04 319.558 363.385 327.098V327.072ZM390.763 271.058C386.665 270.698 383.54 268.339 383.54 268.339C383.54 268.339 387.049 266.569 391.121 266.928C395.193 267.287 398.344 269.647 398.344 269.647C398.344 269.647 394.835 271.417 390.763 271.058Z" fill="#010101"/>
</g>
<g clip-path="url(#clip1_6299_4585)">
<path d="M68.3178 186.758C68.4519 186.929 68.5711 187.1 68.7127 187.263C69.1972 187.813 69.0108 188.526 69.1897 189.142C69.2791 189.454 69.0854 189.878 69.5474 190.056C69.5921 190.071 69.6145 190.234 69.5847 190.308C69.3611 190.88 69.7114 191.4 69.7039 191.957C69.7039 192.225 69.689 192.425 69.458 192.663C69.2866 192.841 69.4133 193.287 69.4058 193.614C69.54 193.591 69.6741 193.569 69.9201 193.532C69.9052 193.51 69.9648 193.576 69.9946 193.658C70.3821 194.579 70.7026 195.53 70.8591 196.518C70.9709 197.231 71.0379 197.944 71.1125 198.657C71.1274 198.768 71.105 198.939 71.0379 198.983C70.7026 199.221 70.8516 199.518 70.8591 199.823C70.874 200.788 71.1497 201.68 71.5224 202.556C71.5894 202.719 71.7087 202.86 71.8205 203.039C71.6714 203.403 71.8503 203.893 72.2378 204.093C72.3272 204.138 72.3869 204.249 72.4614 204.324C72.6552 204.524 72.8638 204.717 73.0427 204.925C73.1247 205.022 73.1917 205.155 73.2215 205.289C73.2588 205.445 73.2215 205.623 73.2514 205.787C73.393 206.418 73.2215 206.7 72.5806 206.864C72.29 206.938 72.1931 207.183 72.3272 207.458C72.3794 207.569 72.4167 207.696 72.4837 207.874C71.9397 207.748 71.4776 207.636 71.0007 207.525C71.0379 207.651 71.0901 207.8 71.1497 207.985C70.397 208.045 69.7337 207.8 69.0556 207.644C68.5935 207.532 68.1538 207.101 67.6247 207.465C67.5725 207.502 67.4533 207.465 67.3713 207.436C67.3042 207.413 67.2371 207.361 67.1701 207.339C66.4024 207.153 65.6423 206.938 64.8672 206.789C63.9878 206.619 63.3022 205.972 63.1233 205.089C63.0637 204.806 62.9594 204.517 62.8028 204.279C62.147 203.291 61.4241 202.348 60.8056 201.338C60.2913 200.506 59.5684 199.845 59.0468 199.043C58.6816 198.486 58.1375 198.129 57.7053 197.647C57.1016 196.963 56.4756 196.295 55.872 195.611C55.8049 195.537 55.8123 195.396 55.7676 195.292C55.708 195.151 55.6558 194.988 55.544 194.891C55.1118 194.505 55.0522 194.178 55.3652 193.718C55.0373 193.621 54.5305 193.755 54.456 193.978C53.9566 193.472 53.3753 193.071 53.122 192.351C53.0325 192.091 52.6375 191.935 52.3842 191.72C52.1531 191.527 51.9221 191.341 51.7134 191.125C50.9682 190.375 50.2378 189.603 49.4702 188.868C49.3211 188.726 49.0379 188.726 48.8218 188.66C48.7771 188.645 48.7249 188.66 48.6951 188.63C48.2331 188.229 47.7412 187.858 47.3239 187.412C46.8767 186.944 46.1985 186.528 45.6843 187.271C45.4831 187.56 45.1253 187.754 44.8049 187.932C44.6707 188.006 44.4546 187.924 44.231 187.91C44.1863 188.11 44.1118 188.37 43.7019 188.169C43.9255 188.578 43.7988 188.793 43.5454 189.016C42.9715 189.506 42.4275 190.026 41.8537 190.516C41.5705 190.754 41.2425 190.947 40.8774 191.2C41.0264 190.762 41.0711 190.346 41.4885 190.108C41.5481 190.071 41.5407 189.87 41.5183 189.751C41.4885 189.625 41.3991 189.521 41.332 189.41C41.6152 189.365 41.8984 189.313 42.189 189.261C42.1294 189.38 42.0772 189.484 41.9953 189.647C42.4275 189.447 42.7703 189.284 43.1131 189.12C42.9641 189.024 42.8001 189.001 42.6362 189.001C42.3828 189.001 42.107 189.105 41.8909 189.024C41.4512 188.86 41.3618 189.053 41.332 189.41C41.1606 189.447 40.9892 189.491 40.7358 189.551C40.8848 189.64 40.9743 189.692 41.1159 189.774C40.9594 189.915 40.8178 190.049 40.7656 190.101C40.4526 190.026 40.2365 189.982 40.0278 189.93C40.0129 190.167 39.998 190.412 39.9831 190.65C39.9831 190.702 40.0129 190.762 40.0203 190.821C40.0352 190.932 40.0501 191.044 40.0576 191.148C40.1768 191.059 40.3035 190.977 40.4824 190.851C40.5271 190.903 40.6314 191.029 40.7581 191.185C40.3482 191.304 40.0352 191.393 40.0203 191.876C40.0203 192.061 39.7222 192.254 39.5359 192.418C39.2304 192.693 38.9173 192.923 38.4478 192.915C38.1497 192.915 37.8442 193.131 37.5461 193.257C37.4194 193.309 37.3076 193.398 37.1436 193.413C37.2629 193.272 37.3821 193.123 37.4939 192.982C36.7039 193.168 36.1524 193.621 35.6829 194.356C36.2195 194.081 36.2866 194.475 36.4058 194.691C36.5623 194.973 36.3239 195.017 36.1077 195.092C35.9587 195.144 35.7649 195.248 35.7202 195.366C35.5115 196.005 34.9153 196.258 34.4831 196.666C34.3489 196.8 34.103 196.815 33.9316 196.919C33.7527 197.023 33.5888 197.156 33.4397 197.297C33.0373 197.676 32.6646 198.107 32.2324 198.456C31.6585 198.917 31.04 199.318 30.4363 199.734C30.3767 199.778 30.2649 199.741 30.1978 199.778C30.0935 199.83 29.9743 199.89 29.9146 199.986C29.7358 200.239 29.5867 200.521 29.4079 200.781C29.1768 201.1 28.916 201.405 28.6701 201.717C28.126 202.393 27.6565 202.519 26.8218 202.199C26.4939 202.073 26.1809 201.925 25.8083 202.118C25.7486 202.147 25.5772 202.006 25.4804 201.932C25.3611 201.835 25.2642 201.635 25.1375 201.62C24.2879 201.516 23.8184 200.863 23.252 200.38C23.1179 200.447 22.9688 200.499 22.857 200.588C22.3875 200.952 21.9329 201.338 21.4709 201.702C21.3293 201.813 21.1579 201.895 20.9939 201.969C20.9343 201.999 20.8225 201.954 20.7778 201.991C20.3008 202.355 19.9878 202.177 19.6152 201.776C19.4587 201.605 19.0339 201.687 18.7358 201.657C18.6091 201.642 18.4526 201.694 18.3482 201.642C17.5508 201.219 16.7608 200.781 15.9783 200.328C15.8591 200.261 15.792 200.112 15.6951 200.001C15.2703 200.246 15.084 200.239 14.9499 199.8C14.7263 199.102 14.1301 198.983 13.5786 198.798C13.3103 198.709 13.2134 198.59 13.2432 198.33C13.2805 198.01 13.2954 197.691 13.2507 197.349C13.1612 197.528 13.0793 197.713 12.9898 197.892L12.893 197.847C13.0942 197.379 13.2805 196.911 13.4966 196.451C13.5264 196.391 13.6755 196.399 13.7202 196.339C13.8096 196.228 13.9438 195.99 13.9214 195.968C13.5413 195.649 13.9587 195.322 14.0481 195.292C14.5772 195.099 14.607 194.579 14.622 194.237C14.6369 193.799 14.7785 193.443 14.9126 193.064C15.0244 192.745 15.084 192.366 15.2927 192.121C15.5833 191.772 15.6579 191.393 15.792 190.992C16.2243 189.766 16.7757 188.585 17.3347 187.412C17.5136 187.041 17.8713 186.751 18.1172 186.402C18.311 186.12 18.4526 185.808 18.5346 185.451C18.4079 185.629 18.2812 185.815 18.1023 186.06C18.1023 185.548 18.4079 185.325 18.6985 185.095C19.0413 184.82 19.0637 184.671 18.8774 184.255C18.855 184.211 18.8774 184.136 18.8997 184.084C19.1755 183.401 19.4438 182.71 19.7419 182.042C20.4201 180.505 21.1131 178.982 21.8286 177.385C21.3144 177.244 20.8299 177.118 20.3455 176.984C19.7717 176.836 19.2053 176.665 18.6314 176.531C16.7385 176.1 14.8381 175.669 12.9377 175.254C11.9092 175.031 10.8733 174.838 9.8374 174.645C9.09959 174.511 8.34688 174.437 7.61653 174.273C6.63279 174.05 5.66396 173.768 4.69512 173.508C4.07656 173.337 3.45799 173.167 2.83198 172.988C2.42954 172.877 2.0271 172.765 1.62466 172.632C1.53523 172.602 1.47561 172.491 1.40108 172.431C1.3042 172.35 1.18496 172.186 1.10298 172.201C0.52168 172.305 0.484417 171.919 0.454607 171.503C0.365176 171.651 0.283198 171.77 0.208672 171.889C0.149052 171.815 0 171.718 0 171.622C0 171.488 0.119241 171.362 0.216125 171.176C0 170.931 0.126694 170.664 0.298103 170.329C0.670732 169.624 1.25203 169.2 1.89295 168.762C2.31775 168.465 2.68293 168.131 3.21206 168.012C4.23306 167.782 5.23916 167.433 6.27507 167.299C8.06369 167.061 9.6958 166.274 11.4472 165.932C12.0881 165.806 12.7439 165.762 13.3848 165.621C14.2344 165.435 15.0617 165.175 15.9038 164.967C16.5969 164.796 17.2974 164.662 17.9905 164.492C18.8848 164.276 19.7791 164.068 20.6585 163.816C21.5528 163.556 22.4248 163.222 23.3117 162.954C24.1612 162.702 25.0183 162.479 25.8679 162.256C26.1064 162.189 26.3598 162.159 26.6057 162.107C26.6579 162.093 26.7398 162.07 26.7547 162.033C26.9709 161.491 27.4404 161.758 27.813 161.692C28.044 161.647 28.2602 161.565 28.4763 161.476C28.6179 161.417 28.752 161.238 28.8862 161.238C29.3482 161.238 29.4749 160.904 29.624 160.585C30.1382 159.486 30.6375 158.379 31.1816 157.295C31.3977 156.864 31.7182 156.492 31.9865 156.091C31.9715 156.032 31.8672 155.869 31.9045 155.765C32.1131 155.252 32.3516 154.747 32.5827 154.242C32.7317 153.915 32.8882 153.588 33.0596 153.269C33.1192 153.158 33.2459 153.091 33.3726 152.979V152.2C34.021 152.46 33.1714 152.942 33.7527 153.225C33.8496 152.875 33.939 152.534 34.0434 152.133C34.4905 152.021 34.2967 151.479 34.5725 151.1C34.2744 151.167 34.0732 151.212 33.8123 151.264C33.8496 151.085 33.8347 150.952 33.8943 150.9C34.4309 150.439 34.2744 149.711 34.5874 149.147C34.9973 148.419 35.2507 147.61 35.586 146.837C35.7724 146.406 35.9736 145.968 36.2121 145.56C36.3462 145.337 36.5698 145.166 36.7412 144.965C36.8157 144.884 36.9052 144.78 36.9126 144.683C36.9201 144.238 36.8977 143.792 36.8902 143.339C36.8902 143.294 36.8828 143.242 36.8977 143.205C37.2256 142.47 37.5535 141.735 37.9112 140.933C38.1348 141.096 38.2988 141.222 38.5447 141.408C38.6267 141.059 38.6863 140.769 38.7683 140.487C38.813 140.338 38.8801 140.197 38.9546 140.064C39.1186 139.774 39.4614 139.514 39.044 139.157C38.9546 139.076 38.9397 138.912 38.8205 138.793C38.9472 138.452 38.9248 137.969 39.5359 137.88C39.7222 137.858 39.8489 137.442 40.0576 137.122C39.7893 137.108 39.6552 137.1 39.3794 137.085C39.5955 136.84 39.752 136.669 39.9309 136.476C39.8191 135.837 40.3035 134.605 40.8103 134.389C40.7432 134.3 40.6836 134.226 40.6911 134.233C40.9444 133.944 41.1755 133.691 41.3767 133.416C41.3916 133.394 41.1904 133.216 41.0339 133.052C41.4587 131.946 41.8388 130.735 42.5691 129.688C42.6064 129.703 42.6436 129.71 42.6883 129.725C42.7033 129.829 42.7182 129.925 42.7331 130.029L42.8299 130.052C42.8896 129.866 42.9492 129.68 43.0014 129.495C43.061 129.287 43.0684 129.042 43.1877 128.863C43.3665 128.596 43.5156 128.373 43.1877 128.121C43.1504 128.091 43.1281 128.002 43.143 127.957C43.3144 127.318 43.143 126.628 43.5603 126.004C43.7839 125.67 43.8211 125.179 43.8659 124.756C43.9329 124.058 44.1416 123.441 44.6707 122.951C44.7229 122.907 44.7602 122.78 44.7378 122.721C44.6186 122.417 44.7527 122.253 45.0583 122.186C45.021 122.06 45.0061 121.949 44.9539 121.867C44.7974 121.644 44.8123 121.466 45.0136 121.28C45.0881 121.206 45.1328 121.08 45.1552 120.976C45.2595 120.56 45.3117 120.129 45.4682 119.735C45.5352 119.557 45.7812 119.386 45.9824 119.327C46.6829 119.111 47.3984 118.851 48.1436 119.141C48.4119 119.245 48.6504 119.423 48.9187 119.535C49.1348 119.624 49.3733 119.72 49.5894 119.706C50.0589 119.668 50.1409 119.706 50.1484 120.196C50.1484 120.24 50.1484 120.285 50.1484 120.285C50.4614 120.263 50.7744 120.211 51.0799 120.233C51.2514 120.248 51.4153 120.381 51.5793 120.463C51.7581 120.552 51.9817 120.612 52.1159 120.753C52.3469 120.998 52.4438 120.827 52.645 120.723C52.7791 120.649 53.0623 120.745 53.2114 120.857C53.4201 120.998 53.5318 121.302 53.748 121.399C54.0386 121.533 54.3889 121.555 54.7094 121.607C54.7913 121.622 54.8808 121.585 55 121.562C55.2683 122.001 55.5366 122.431 55.8347 122.899C55.872 122.892 55.9912 122.862 56.1775 122.818C56.2297 123.293 56.3042 123.746 56.3266 124.192C56.3638 124.712 56.334 125.246 56.3862 125.766C56.4085 126.019 56.6023 126.249 56.6396 126.502C56.6992 126.865 56.6768 127.244 56.7141 127.616C56.7365 127.801 56.7663 128.009 56.8557 128.173C57.0197 128.492 57.0495 128.797 56.96 129.153C56.9153 129.324 57.0569 129.539 57.1091 129.732C57.1389 129.851 57.1613 129.97 57.1687 130.096C57.1762 130.252 57.1389 130.416 57.1687 130.557C57.2656 130.995 57.3997 131.426 57.4966 131.864C57.519 131.975 57.4519 132.109 57.437 132.235C57.4221 132.376 57.3625 132.592 57.437 132.651C57.8618 133.023 57.6084 133.483 57.601 133.892C57.601 134.122 57.7351 134.389 57.437 134.627C57.3103 134.731 57.437 135.176 57.4817 135.459C57.5264 135.733 57.6233 136.008 57.7276 136.365C57.7873 136.172 57.8245 136.045 57.8692 135.912C58.2568 136.343 58.2493 136.55 57.914 137.018C57.832 137.137 57.8543 137.33 57.8245 137.486C57.8618 137.501 57.8991 137.509 57.9438 137.523C58.0034 137.427 58.063 137.33 58.1152 137.241C58.1599 137.241 58.2121 137.234 58.2568 137.226C58.3835 138.043 58.5176 138.86 58.6518 139.722H58.2121C58.1673 139.989 58.1599 140.205 58.4654 140.338C58.7635 140.472 58.8753 140.925 58.7114 141.237C58.6145 141.415 58.5176 141.594 58.4282 141.742C58.4953 141.913 58.5772 142.121 58.6592 142.329C58.6667 142.359 58.689 142.381 58.7039 142.403C58.7561 142.485 58.8828 143.101 58.8604 143.168C59.4045 143.28 59.4492 143.413 59.0989 143.881C59.0468 143.948 59.0542 144.082 59.0766 144.171C59.1734 144.557 59.2778 144.936 59.3523 145.196C59.5386 145.337 59.7249 145.404 59.7622 145.523C59.8814 145.931 59.9485 146.354 60.0379 146.778C59.9485 146.822 59.8442 146.867 59.6206 146.971C59.8293 147.001 59.9113 147.015 60.0454 147.038C59.9411 147.186 59.8516 147.305 59.8069 147.372C59.9783 147.572 60.1199 147.743 60.269 147.907C60.3211 147.959 60.3808 148.003 60.4329 148.055C60.6714 148.293 61.0142 147.944 61.3049 148.248C61.4688 148.419 61.834 148.181 62.1172 148.011C62.5271 147.766 63.0637 147.721 63.5407 147.58C63.645 147.55 63.7195 147.454 63.8164 147.394C64.5244 146.971 65.143 146.392 65.9776 146.198C66.0224 146.191 66.0745 146.198 66.1043 146.176C66.1863 146.124 66.313 146.072 66.3279 145.998C66.3428 145.938 66.2385 145.842 66.1714 145.745C66.9241 145.404 67.6843 145.069 68.437 144.728C68.5339 144.683 68.6457 144.668 68.7127 144.594C69.294 143.993 70.0617 143.874 70.8293 143.74C71.0379 143.703 71.269 143.621 71.4255 143.48C71.6863 143.242 71.9397 143.168 72.2304 143.346C72.4763 143.495 72.6253 143.369 72.8117 143.25C73.0576 143.094 73.3184 142.96 73.5644 142.804C73.6314 142.76 73.7209 142.663 73.706 142.604C73.6389 142.269 73.8774 142.359 74.0562 142.321C74.2426 142.284 74.414 142.188 74.6003 142.143C75.0996 142.017 75.4946 141.712 75.9268 141.452C76.687 140.999 77.6186 140.866 78.3415 140.286C78.4234 140.22 78.5501 140.175 78.6545 140.168C79.2656 140.101 79.7426 139.774 80.2121 139.41C80.3313 139.321 80.4878 139.284 80.6369 139.239C81.0393 139.128 81.4492 138.979 81.8591 138.942C82.2988 138.905 82.5745 138.749 82.6789 138.326C82.6789 138.311 82.7012 138.296 82.7087 138.296C83.4912 138.296 84.0427 137.464 84.8848 137.679C84.9445 137.694 85.0339 137.709 85.0562 137.679C85.4214 137.278 85.9953 137.405 86.4126 137.167C86.5989 137.063 86.7107 136.825 86.8672 136.64C87.2995 136.84 87.6199 136.692 88.0522 136.513C88.5962 136.283 88.9763 135.748 89.6619 135.763C90.1911 135.771 90.7276 135.54 91.2642 135.436C91.3462 135.422 91.5027 135.496 91.5474 135.57C91.935 136.276 92.6206 136.417 93.3137 136.439C93.9621 136.461 93.9621 136.409 94.2602 137.026C94.6999 136.721 94.9831 137.026 95.3259 137.286C95.7432 137.613 96.25 137.806 96.6599 138.14C97.1443 138.534 97.815 138.712 98.0983 139.365C98.1877 139.573 98.4634 139.685 98.605 139.878C98.769 140.101 98.9255 140.353 98.9702 140.613C98.9926 140.762 98.8137 140.985 98.6721 141.103C98.3665 141.363 98.4932 141.66 98.5677 141.928C98.7168 142.515 98.2622 143.072 97.6511 143.012C97.5393 142.997 97.3753 143.049 97.3008 143.124C96.9207 143.525 96.6226 144.007 96.0637 144.215C95.8923 144.275 95.6911 144.423 95.8029 144.579C95.6836 144.802 95.5942 144.965 95.4973 145.136C95.4973 145.151 95.4973 145.173 95.4898 145.181C95.0725 145.545 94.6701 145.946 94.2229 146.265C94.0739 146.369 93.7757 146.258 93.5596 146.295C93.3957 146.325 93.2466 146.436 93.0901 146.518C93.105 146.57 93.1125 146.622 93.1274 146.681C93.3286 146.696 93.5224 146.703 93.813 146.726C93.7459 146.845 93.7012 147.001 93.5969 147.105C92.9187 147.78 92.248 148.456 91.54 149.102C91.2642 149.355 90.8841 149.489 90.5935 149.719C90.3997 149.867 90.2879 150.12 90.1091 150.283C89.2297 151.108 88.3428 151.917 87.456 152.727C87.3814 152.794 87.2697 152.809 87.1728 152.846C87.4336 152.549 87.687 152.229 87.9702 151.94C88.708 151.197 89.4458 150.462 90.1985 149.734C90.3625 149.578 90.6233 149.518 90.7873 149.355C90.9512 149.199 91.0556 148.969 91.2121 148.746C90.7276 148.976 90.2805 149.184 89.8408 149.392C89.8408 149.414 89.8557 149.437 89.8632 149.459C89.9675 149.437 90.0644 149.422 90.1687 149.4C90.1836 149.437 90.1911 149.474 90.206 149.518C89.9824 149.578 89.7514 149.682 89.5278 149.682C89.0359 149.682 88.395 150.424 88.5142 150.848C88.0745 151.1 87.523 151.264 87.2398 151.628C87.0237 151.902 86.6362 151.954 86.502 152.385C86.3977 152.712 85.8909 152.905 85.5779 153.173C85.0115 153.648 84.46 154.146 83.9011 154.628C83.7669 154.747 83.6179 154.851 83.5135 155.037C83.6552 155.007 83.7968 154.977 83.9383 154.948C83.9607 154.985 83.9831 155.022 84.0054 155.066C83.7968 155.193 83.5881 155.341 83.3645 155.416C83.3123 155.43 83.1707 155.193 83.0291 155.022C82.7012 155.438 82.3733 155.921 81.9783 156.337C81.5908 156.745 81.1287 157.087 80.7114 157.473C80.6294 157.547 80.6145 157.681 80.5698 157.792C80.5325 157.889 80.4953 157.985 80.458 158.089C80.0705 157.867 79.8543 158.275 79.4743 158.386C79.5413 158.23 79.5786 158.141 79.6159 158.06C79.601 158.045 79.5786 158.03 79.5637 158.015C79.4966 158.104 79.3476 158.216 79.3625 158.29C79.4445 158.698 79.1389 158.869 78.9228 159.092C78.893 159.122 78.8333 159.144 78.8259 159.181C78.565 159.857 77.8943 159.894 77.3428 160.102C77.1043 160.191 76.918 160.303 76.9851 160.563C77.082 160.934 77.1267 161.261 76.7317 161.506C76.6646 161.543 76.6572 161.677 76.5976 161.84C76.8286 161.714 76.9925 161.632 77.1491 161.543C77.1714 161.565 77.2012 161.588 77.2236 161.61C77.1491 161.729 77.1043 161.87 77.0075 161.951C76.0982 162.702 75.1741 163.444 74.2575 164.18C74.2053 164.224 74.1233 164.239 74.0562 164.261C74.3394 163.987 74.6226 163.704 74.8984 163.407C75.0176 163.281 75.107 163.14 75.2114 163.006C75.4946 162.798 75.7852 162.583 76.0684 162.375C76.0237 162.323 75.9865 162.263 75.9417 162.211C75.6884 162.442 75.4275 162.664 75.1816 162.895C75.1667 162.91 75.2114 162.969 75.2263 163.014C75.1071 163.058 74.9804 163.11 74.7717 163.192C74.8686 163.036 74.9282 162.947 74.9431 162.924C74.5928 162.895 74.2426 162.82 73.9072 162.865C73.7283 162.887 73.5718 163.11 73.4079 163.244C73.5867 163.4 73.7656 163.548 73.9743 163.727C73.8774 163.786 73.8476 164.142 73.4526 163.912C73.3706 163.868 73.0799 164.009 73.0129 164.135C72.7818 164.544 72.357 164.603 71.9993 164.789C71.7832 164.9 71.5149 165.004 71.4031 165.19C71.2168 165.494 70.9783 165.561 70.6728 165.606C70.4194 165.643 70.1734 165.732 69.9275 165.799C69.9499 165.836 69.9797 165.866 70.002 165.903C69.9648 166.007 69.9573 166.155 69.8828 166.207C69.5102 166.497 69.0928 166.735 68.7351 167.039C68.4892 167.247 68.2432 167.514 68.4519 168.019C68.1911 168.042 67.9675 168.064 67.7514 168.086C67.6768 168.094 67.5278 168.138 67.5352 168.153C67.5427 168.279 67.5874 168.406 67.6172 168.532C67.2893 168.747 66.9316 168.985 66.5291 169.252C66.6856 169.386 66.7751 169.468 66.8645 169.549C66.2087 169.401 65.8808 169.78 65.6348 170.285C65.7317 170.225 65.8286 170.166 65.9255 170.099L65.9702 170.144L65.605 170.664C65.605 170.664 65.6497 170.738 65.6721 170.775C65.8882 170.664 66.1043 170.545 66.3354 170.426C66.313 170.857 66.2981 170.849 65.9255 171.161C65.6945 171.354 65.2473 171.54 65.7541 171.911C65.7839 171.934 65.7988 171.993 65.7988 172.038C65.7466 172.446 65.6945 172.855 65.6199 173.404C65.3963 173.137 65.2697 172.988 65.143 172.832C64.9715 173.174 65.0833 173.761 65.3591 173.828C65.4783 173.857 65.6423 173.701 65.8808 173.582C65.9329 173.932 65.9926 174.333 66.0447 174.741C66.082 175.038 66.0671 175.291 65.6945 174.949C65.6795 174.942 65.5901 175.008 65.5454 175.038C65.5976 175.417 66.4397 175.06 66.1565 175.751C66.0373 175.677 65.9404 175.618 65.8211 175.551C65.8062 175.751 65.7988 175.915 65.7913 176.004C65.9329 176.145 66.0522 176.256 66.1863 176.39C66.5888 176.249 66.9912 176.494 67.0881 176.969C67.1253 177.133 67.2073 177.289 67.3042 177.422C67.5054 177.712 67.5949 177.957 67.1999 178.083C67.4309 178.885 67.7066 179.65 67.7215 180.467L67.5725 180.497C67.5427 180.408 67.5129 180.319 67.4831 180.23C67.4607 180.245 67.416 180.259 67.416 180.267C67.4533 180.438 67.4682 180.631 67.5576 180.772C67.6321 180.898 67.7961 180.973 67.9228 181.069C67.893 181.106 67.8631 181.151 67.8333 181.188C67.729 181.173 67.6321 181.158 67.5278 181.136C67.7365 181.507 67.5129 182.049 68.0569 182.243C68.2805 182.324 68.3252 182.844 68.1314 183.03C67.893 183.26 67.9153 183.468 68.0196 183.743C68.2805 184.419 68.519 185.102 68.4444 185.852C68.4295 186.045 68.5488 186.246 68.586 186.454C68.6308 186.647 68.6382 186.833 68.3401 186.781C68.2507 186.36 68.0693 186.139 67.7961 186.12C67.9824 186.342 68.1612 186.558 68.3476 186.781L68.3178 186.758ZM45.6172 181.143C46.124 180.928 46.6084 180.675 46.9214 180.17C46.3625 179.948 46.2358 179.977 45.9973 180.401C45.8631 180.646 45.7514 180.898 45.6247 181.151C45.334 181.218 45.0434 181.292 44.6856 181.381C45.2893 181.827 45.4756 181.76 45.6172 181.143ZM52.3618 180.831C52.2947 180.846 52.2276 180.854 52.1606 180.869C51.937 181.084 51.8029 181.463 51.3557 181.18C51.2737 181.128 51.0054 181.27 50.8862 181.381C50.752 181.515 50.6775 181.715 50.5583 181.923C50.6775 182.384 50.0813 182.399 49.9174 182.703C50.2304 183.015 50.4912 182.993 50.7744 182.658C50.9756 182.421 51.2514 182.243 51.4973 182.042C51.2066 182.51 50.8787 182.941 50.4688 183.275C50.1484 183.535 49.7236 183.683 49.3137 183.891C49.3211 184.196 49.3808 184.552 49.7757 184.753C49.8652 184.798 49.9248 184.894 49.9993 184.968C50.1856 185.154 50.2378 185.503 50.6104 185.481C50.6775 185.481 50.7893 185.607 50.8191 185.704C50.9384 186.075 51.1917 186.283 51.5718 186.357C51.6314 186.372 51.6985 186.379 51.7358 186.417C52.2575 186.855 52.7642 187.323 53.3083 187.731C53.8299 188.125 54.4336 188.422 54.918 188.845C55.5068 189.358 56.0136 189.974 56.5576 190.539C56.7663 190.754 57.0196 190.895 57.0047 191.281C57.0047 191.504 57.2209 191.735 57.3625 192.002C57.5413 191.861 57.6755 191.764 57.7649 191.697C58.1599 191.957 58.5325 192.21 58.8902 192.448C58.7934 192.47 58.607 192.507 58.3835 192.551C58.5996 192.982 58.9946 193.094 59.4045 193.168C59.4194 193.361 59.3821 193.569 59.4566 193.695C59.6653 194.022 59.9262 194.319 60.1795 194.616C60.2243 194.676 60.3137 194.698 60.3733 194.743C60.3957 194.653 60.4553 194.564 60.4404 194.483C60.3882 193.978 60.3137 193.472 60.2541 192.967C60.1795 192.381 60.1423 191.794 60.0305 191.215C59.8144 190.063 59.4343 188.949 59.397 187.768C59.397 187.709 59.3821 187.657 59.3598 187.598C59.2033 187.159 59.002 186.736 58.9052 186.283C58.7114 185.362 58.5847 184.426 58.4282 183.498C58.3909 183.282 58.3388 183.067 58.2866 182.852C58.1152 182.153 57.9289 181.455 57.7724 180.75C57.6009 179.933 57.4668 179.108 57.3028 178.291C57.2805 178.187 57.1613 178.039 57.0644 178.024C56.9749 178.009 56.8557 178.135 56.7588 178.21C56.6023 178.328 56.4458 178.455 56.2893 178.581C56.2595 178.536 56.2222 178.492 56.1924 178.455C56.416 178.217 56.6396 177.979 56.9228 177.682C56.4085 177.667 56.1328 177.853 55.939 178.217C55.8794 178.321 55.7453 178.47 55.6484 178.462C55.1789 178.432 54.7243 178.373 54.3516 178.774C54.2995 178.826 54.1355 178.781 54.0237 178.781C54.0237 178.759 54.0163 178.737 54.0088 178.715C54.1355 178.648 54.2622 178.588 54.3889 178.522C54.3814 178.499 54.3665 178.477 54.3591 178.455C54.1504 178.544 53.9417 178.626 53.6958 178.729C53.8374 178.923 53.9492 179.056 54.0982 179.257H53.6436C53.6809 179.391 53.7107 179.48 53.7331 179.576C53.8896 179.524 54.0088 179.487 54.2622 179.405C54.0982 179.65 54.0088 179.777 53.9194 179.91C53.8523 179.858 53.7852 179.806 53.7778 179.792C53.6287 179.962 53.4871 180.252 53.3753 180.245C52.8686 180.185 52.645 180.549 52.3543 180.831H52.3618ZM38.8801 180.311C38.8801 180.267 38.8801 180.215 38.8801 180.17C39.0589 180.141 39.2378 180.118 39.4092 180.081C39.5508 180.052 39.7222 180.044 39.8117 179.955C40.1917 179.591 40.5196 179.168 40.9146 178.826C41.1829 178.596 41.3767 178.158 41.7121 178.291C42.0474 178.068 42.2859 177.913 42.5691 177.727C42.584 177.296 42.9492 177.051 43.3367 176.821C43.5454 176.694 43.7317 176.531 43.9404 176.405C44.4099 176.123 44.7229 175.58 45.3564 175.551C45.4309 175.551 45.4905 175.365 45.5725 175.276C45.6768 175.15 45.7737 174.942 45.893 174.927C46.2581 174.897 46.5637 174.852 46.5935 174.399C46.5935 174.347 46.7276 174.303 46.7947 174.251C46.9438 174.139 47.0928 174.021 47.2419 173.902C47.3909 173.783 47.54 173.649 47.6741 173.545C47.7263 173.434 47.7412 173.278 47.8232 173.219C48.1287 172.996 48.4641 172.803 48.7846 172.602C49.187 172.35 49.6118 172.127 49.9844 171.837C50.2453 171.644 50.439 171.362 50.6626 171.124C50.8191 170.953 50.9458 170.716 51.1396 170.626C51.9743 170.225 52.5928 169.572 53.2561 168.963C53.4424 168.792 53.7256 168.725 53.9715 168.606C54.0237 168.525 54.0759 168.376 54.1802 168.279C54.3367 168.123 54.5528 168.019 54.6944 167.856C54.7839 167.752 54.8584 167.566 54.836 167.44C54.7317 166.905 54.5901 166.386 54.456 165.858C54.1281 164.544 53.8001 163.229 53.4648 161.922C53.3604 161.498 53.2934 161.506 52.8984 161.692C52.3618 161.937 51.8178 162.182 51.2439 162.301C50.8713 162.375 50.521 162.36 50.2378 162.687C50.1111 162.828 49.8354 162.835 49.6267 162.91C49.2615 163.036 48.7771 163.066 48.5684 163.326C48.3001 163.645 48.002 163.697 47.6741 163.786C47.0779 163.949 46.4668 164.046 45.9004 164.276C45.2073 164.558 44.5739 164.982 43.8808 165.271C43.3814 165.479 42.8225 165.539 42.3008 165.71C41.8835 165.851 41.481 166.059 41.0711 166.237C40.7954 166.356 40.5196 166.475 40.2365 166.593C40.2066 166.541 40.1768 166.467 40.1917 166.497C39.6552 166.727 39.1335 166.92 38.6341 167.173C38.3733 167.306 38.1199 167.5 37.9485 167.73C37.6877 168.071 37.5461 168.502 37.2778 168.822C37.084 169.052 36.935 169.223 36.8977 169.557C36.8604 169.921 36.7263 170.366 36.4729 170.597C35.9289 171.102 35.7798 171.792 35.4817 172.394C35.1016 173.167 34.8855 174.013 34.5799 174.823C34.4905 175.068 34.3266 175.291 34.2073 175.528C33.9167 176.137 33.6558 176.769 33.3354 177.363C33.2236 177.571 33.2385 177.645 33.3875 177.801C33.8496 178.284 34.4607 178.388 35.0569 178.566C35.4444 178.685 35.8916 178.796 36.1524 179.071C36.5251 179.457 36.8902 179.524 37.3747 179.443C37.5312 179.413 37.8293 179.539 37.8665 179.658C38.0454 180.163 38.4404 180.252 38.8726 180.326L38.8801 180.311ZM43.5081 155.668C43.5081 155.668 43.5827 155.72 43.6199 155.75C43.8808 155.661 44.1565 155.586 44.4099 155.475C44.9539 155.23 45.5129 155.014 46.0122 154.695C46.8096 154.175 47.7561 154.094 48.6057 153.752C48.9113 153.626 49.3062 153.574 49.4776 153.343C49.6118 153.165 49.7087 153.054 49.9174 153.009C50.1484 152.965 50.3794 152.927 50.603 152.875C50.9831 152.786 51.147 152.497 51.0427 152.125C51.0129 152.029 50.9607 151.94 50.9384 151.836C50.6626 150.58 50.3943 149.325 50.1186 148.07C49.9472 147.29 49.7608 146.518 49.6043 145.738C49.4851 145.129 49.418 144.498 49.2913 143.889C49.1795 143.369 49.0156 142.856 48.8665 142.277C48.7771 142.477 48.7324 142.626 48.643 142.752C48.3001 143.235 47.9424 143.703 48.0169 144.349C48.0244 144.416 47.9946 144.512 47.9499 144.55C47.5027 144.914 47.5921 145.485 47.3909 145.946C46.9438 146.978 46.5115 148.011 46.0793 149.05C45.9824 149.281 45.9228 149.533 45.8333 149.771C45.647 150.261 45.647 150.848 45.0508 151.145C44.9241 151.212 44.9241 151.553 44.9018 151.776C44.8869 151.925 44.9912 152.11 44.939 152.237C44.6707 152.942 44.3652 153.633 44.0745 154.331C43.8882 154.784 43.6944 155.23 43.5081 155.683V155.668ZM67.416 154.873C66.7676 155.245 66.1565 155.646 65.5007 155.95C64.8598 156.247 64.1667 156.44 63.4065 156.715C63.481 156.5 63.5481 156.322 63.645 156.054C63.414 156.225 63.2425 156.351 63.0413 156.492C63.3171 156.723 63.1904 156.871 62.9743 157.005C62.7507 157.146 62.5346 157.302 62.3259 157.465C61.7818 157.896 61.6999 158.557 62.3557 159.047C62.6016 159.233 62.6836 159.649 62.5346 159.909C62.4973 159.983 62.5793 160.147 62.6463 160.243C62.7358 160.377 62.9221 160.459 62.9743 160.6C63.1606 161.075 63.3394 161.105 63.7121 160.733C63.9282 160.518 64.1518 160.273 64.4201 160.162C64.9865 159.924 65.3367 159.315 66.0075 159.248C66.0894 159.241 66.1565 159.114 66.231 159.04C66.7229 158.513 67.1999 157.971 67.8706 157.696C67.9302 157.532 68.0197 157.384 68.1389 157.287C68.2358 157.213 68.4295 157.22 68.4817 157.131C68.7873 156.641 69.2344 156.262 69.7039 155.987C70.0542 155.779 70.3374 155.557 70.5759 155.252C70.6281 155.185 70.71 155.118 70.7846 155.096C71.1945 154.977 71.5224 154.807 71.4776 154.301C71.4776 154.257 71.5745 154.19 71.6416 154.16C72.1186 153.945 72.5955 153.737 73.0203 153.551C73.1843 153.083 73.3482 152.623 73.5047 152.177C73.0949 152.348 72.9756 151.992 72.8191 151.635C72.7595 151.806 72.7446 151.969 72.752 152.133C72.752 152.214 72.834 152.348 72.8191 152.363C72.6253 152.474 72.4241 152.564 72.2005 152.675C72.1856 152.519 72.1782 152.393 72.1633 152.244C71.8801 152.318 71.6192 152.385 71.3137 152.467C71.2839 152.437 71.2019 152.348 71.0976 152.237C70.9411 152.43 70.8367 152.623 70.6728 152.757C70.5163 152.883 70.3076 152.935 70.1213 153.017C69.8679 153.135 69.5996 153.232 69.3611 153.373C69.1524 153.499 68.9736 153.685 68.7649 153.856C68.9065 153.945 69.0034 154.004 69.2121 154.131C68.7202 154.376 68.3699 154.561 68.0122 154.717C67.9377 154.747 67.7961 154.717 67.729 154.673C67.3638 154.405 66.7304 154.569 66.4248 155.096C66.7825 154.888 67.0583 154.584 67.4234 154.873H67.416ZM30.3394 187.88C30.2053 187.806 30.0786 187.672 30.3916 187.516C30.6748 187.375 30.9729 187.241 31.2486 187.085C31.353 187.026 31.4275 186.907 31.4946 186.803C31.7331 186.431 31.9715 186.082 32.4262 185.912C32.8957 185.741 33.3503 185.533 33.7751 185.28C34.0359 185.124 34.565 185.161 34.4383 184.604C34.4383 184.59 34.5352 184.552 34.5799 184.515C34.7365 184.389 34.9004 184.263 35.0346 184.122C35.4295 183.721 35.7947 183.29 36.2121 182.904C36.6145 182.532 36.5996 182.049 36.1152 181.789C35.8692 181.656 35.601 181.559 35.3327 181.463C34.3638 181.114 33.3875 180.779 32.4187 180.423C31.8299 180.208 31.6734 180.267 31.4424 180.854C31.2636 181.307 31.0921 181.76 30.9058 182.205C30.5928 182.948 30.2947 183.706 29.9519 184.434C29.46 185.488 28.916 186.513 28.4167 187.568C28.1633 188.103 27.977 188.674 27.7683 189.209C28.2974 189.12 28.7818 189.046 29.2588 188.957C29.3408 188.942 29.4302 188.89 29.4898 188.83C29.7805 188.519 30.0562 188.192 30.332 187.88H30.3394ZM15.792 173.048C16.0007 173.152 16.0976 173.219 16.1944 173.248C17.1186 173.523 18.1247 173.56 18.9519 174.139C19.0041 174.177 19.0935 174.169 19.168 174.184C19.6375 174.288 20.1518 174.325 20.353 174.719C20.666 174.697 20.8747 174.659 21.0833 174.674C21.3144 174.697 21.5454 174.808 21.7764 174.808C22.4248 174.808 23.0583 174.927 23.4309 174.065C23.878 173.025 24.6009 172.112 24.7351 170.968C23.2669 171.28 21.7764 171.599 20.2859 171.896C19.7568 172 19.2202 172.038 18.6911 172.112C18.6016 172.127 18.5196 172.156 18.4377 172.186C17.7073 172.416 16.9695 172.639 16.2392 172.869C16.1274 172.907 16.0156 172.959 15.792 173.048ZM70.5237 165.078C70.479 164.945 70.4417 164.811 70.3821 164.625C69.9648 165.011 69.2195 165.056 69.0108 165.903C69.5847 165.591 70.0617 165.331 70.5237 165.078ZM33.3205 196.273C32.9776 196.25 32.6348 196.235 32.292 196.213C32.2771 196.265 32.2696 196.317 32.2547 196.369C32.3889 196.458 32.5156 196.547 32.7317 196.696C32.5976 196.755 32.4783 196.815 32.3591 196.874C33.1714 196.911 33.2385 196.874 33.313 196.273H33.3205ZM64.8449 155.349C64.6287 155.586 64.435 155.794 64.2412 156.002C64.2561 156.017 64.2785 156.032 64.2934 156.047C64.8896 155.772 65.4932 155.497 66.0894 155.222C66.0745 155.163 66.0522 155.111 66.0373 155.052C65.8435 155.066 65.5007 155.037 65.4858 155.104C65.3665 155.512 65.0908 155.408 64.8523 155.349H64.8449ZM52.5481 175.61C52.2053 175.328 51.9221 175.462 51.6165 175.989C51.9892 175.833 52.2724 175.721 52.5481 175.61ZM67.7215 185.592C67.7663 185.622 67.811 185.644 67.8482 185.674C67.9079 185.503 68.0122 185.332 68.0196 185.154C68.0196 185.02 67.9079 184.887 67.8482 184.753C67.8035 184.768 67.7588 184.783 67.7141 184.798V185.592H67.7215ZM81.9709 155.378C81.9262 155.319 81.8889 155.252 81.8442 155.193C81.5163 155.423 81.1884 155.653 80.8604 155.883C80.8828 155.913 80.9052 155.95 80.9275 155.98L81.9634 155.378H81.9709ZM56.8482 175.439C56.5203 175.595 56.2744 175.721 55.9688 175.863C56.4458 176.1 56.6396 175.855 56.8482 175.439ZM73.4302 160.095C73.4377 160.05 73.4451 160.006 73.4526 159.968C73.3408 159.79 73.2365 159.619 73.1172 159.434C73.0576 159.5 72.9756 159.612 72.8415 159.768C73.065 159.894 73.2439 159.991 73.4228 160.095H73.4302ZM42.1369 188.541C42.1369 188.541 42.0847 188.467 42.0623 188.437C41.9729 188.519 41.8835 188.6 41.8015 188.682C41.8239 188.719 41.8462 188.764 41.8686 188.801H42.6287C42.6287 188.801 42.6287 188.756 42.6213 188.734C42.4573 188.674 42.3008 188.608 42.1369 188.548V188.541ZM93.105 146.986C93.0603 146.934 93.0081 146.889 92.9634 146.837C92.7846 146.993 92.6057 147.157 92.4194 147.312C92.4641 147.357 92.5014 147.409 92.5461 147.454C92.7324 147.298 92.9187 147.134 93.105 146.978V146.986Z" fill="white"/>
<path d="M74.0339 164.224C73.7507 164.491 73.4675 164.759 73.1769 165.019C72.8266 165.331 72.4689 165.635 72.1037 165.932C71.9174 166.088 71.7161 166.222 71.4702 166.408V165.583C71.4702 165.583 71.5 165.546 71.5075 165.554C72.2974 165.821 72.5881 165.108 73.08 164.781C73.3855 164.581 73.7209 164.417 74.0414 164.239V164.232L74.0339 164.224Z" fill="white"/>
<path d="M87.1727 152.823C86.7479 153.269 86.3306 153.722 85.9058 154.168C85.8462 154.108 85.7865 154.042 85.7344 153.982C86.2188 153.596 86.6958 153.217 87.1802 152.831L87.1727 152.823Z" fill="white"/>
<path d="M66.6931 170.077C67.0136 169.854 67.2521 169.505 67.662 169.408C67.6918 169.453 67.7216 169.498 67.7514 169.542C67.4235 169.758 67.0956 169.973 66.7751 170.196C66.7453 170.159 66.7229 170.114 66.6931 170.077Z" fill="white"/>
<path d="M69.4282 167.997C69.2717 168.22 69.2121 168.569 68.6755 168.472C68.9364 168.242 69.1301 168.064 69.3314 167.886C69.3612 167.923 69.3984 167.96 69.4282 167.99V167.997Z" fill="white"/>
<path d="M79.8394 159.189C80.0927 158.995 80.3387 158.81 80.5921 158.617C80.6293 158.661 80.6591 158.713 80.6964 158.758C80.4356 158.936 80.1747 159.114 79.9213 159.285C79.899 159.255 79.8692 159.218 79.8468 159.189H79.8394Z" fill="white"/>
<path d="M52.3619 180.831C52.4811 180.943 52.5929 181.054 52.7941 181.24C52.3246 181.321 52.1458 181.218 52.1681 180.868C52.2352 180.854 52.3023 180.846 52.3693 180.831H52.3619Z" fill="white"/>
<path d="M54.1951 179.881C54.5081 179.643 54.7615 179.442 55.0223 179.249C55.0521 179.286 55.0819 179.324 55.1117 179.368C54.9254 179.658 54.8285 180.066 54.2025 179.888L54.1951 179.881Z" fill="white"/>
<path d="M69.4804 153.863C69.6741 153.678 69.8679 153.499 70.0617 153.314C70.1064 153.366 70.1511 153.41 70.1958 153.462C69.9946 153.641 69.8008 153.819 69.5996 153.997L69.4729 153.863H69.4804Z" fill="white"/>
</g>
<g clip-path="url(#clip2_6299_4585)">
<path d="M169.286 119C168.159 119 167.013 118.98 165.876 118.855C163.37 118.584 161.358 118.207 159.542 117.656C156.986 116.882 154.538 115.886 151.828 114.754C150.38 114.145 148.855 113.381 147.183 112.404C146.095 111.766 145.046 111.06 144.026 110.383C143.482 110.025 142.948 109.658 142.403 109.31C138.925 107.076 136.283 104.958 134.068 102.646L133.523 102.076C132.532 101.051 131.503 99.9869 130.609 98.7973C128.841 96.4473 127.15 93.9522 125.654 91.7473C124.469 89.9969 123.361 88.2368 122.351 86.5347C121.875 85.732 121.476 84.8906 121.088 84.0783C120.922 83.7205 120.748 83.3626 120.573 83.0145L120.203 82.2698C119.922 81.7089 119.64 81.148 119.368 80.5871C118.882 79.5426 118.513 78.7303 118.192 77.947C117.862 77.1539 117.541 76.3609 117.23 75.5583C116.764 74.4074 116.308 73.2566 115.822 72.1154C115.647 71.7092 115.443 71.3224 115.239 70.9356C114.976 70.4424 114.704 69.9298 114.481 69.3786C114.238 68.779 114.073 68.1697 113.908 67.5798C113.791 67.1736 113.675 66.7674 113.539 66.3709C113.364 65.8584 113.16 65.3555 112.965 64.8526C112.713 64.2047 112.45 63.5374 112.227 62.8507C111.858 61.7192 111.527 60.5684 111.187 59.4272C110.974 58.7116 110.77 57.996 110.546 57.2803C110.43 56.8838 110.294 56.4873 110.158 56.1005C109.992 55.6266 109.837 55.1624 109.691 54.6789C109.546 54.176 109.429 53.6537 109.312 53.1412L109.176 52.5513C109.069 52.1161 108.963 51.6809 108.856 51.2554C108.603 50.2496 108.341 49.2148 108.156 48.1607C107.768 45.9944 107.486 44.0699 107.291 42.2518C107.126 40.6561 106.951 38.7799 107.01 36.9135C107.068 35.105 107.126 33.0645 108.506 31.256C108.506 31.256 108.525 31.0916 108.555 30.9756C108.603 30.7144 108.671 30.3856 108.827 30.0568C109.876 27.8325 111.139 25.9951 112.693 24.4574C113.665 23.5 114.675 22.5813 115.715 21.7205C116.405 21.1403 117.133 20.6181 117.833 20.1055C118.124 19.8928 118.416 19.68 118.707 19.4576C118.766 19.4189 118.824 19.3802 118.882 19.3415C119.718 18.152 120.893 17.4557 121.933 16.8464C122.438 16.5466 122.904 16.2758 123.322 15.9567C123.565 15.773 123.779 15.5602 124.002 15.3474C124.323 15.038 124.682 14.6898 125.11 14.3997C126.276 13.6067 127.568 12.7943 129.054 11.9336C130.104 11.3147 131.192 10.7441 132.241 10.1832L133.183 9.68032C133.455 9.53525 133.727 9.44822 133.941 9.37085C136.001 8.69389 137.439 8.05561 138.702 7.29161C139.353 6.89511 140.072 6.75972 140.703 6.63399C140.995 6.57597 141.286 6.52762 141.568 6.43091C142.384 6.16979 143.19 5.89901 143.997 5.61855C144.988 5.28007 145.979 4.94159 146.979 4.63213C147.65 4.41937 148.33 4.26463 148.991 4.1099C149.437 4.00352 149.875 3.89714 150.322 3.78109C150.866 3.63603 151.4 3.47162 151.944 3.30722C152.692 3.08479 153.431 2.86236 154.188 2.66894C155.043 2.45618 155.898 2.29178 156.734 2.13704L157.404 2.01132C158.123 1.87593 158.852 1.73087 159.571 1.5858C161.417 1.21831 163.331 0.841146 165.235 0.560691C167.042 0.289907 168.878 0.202869 170.647 0.115831L171.045 0.0964894C172.57 0.0191225 174.377 -0.0485736 176.223 0.0287934C177.379 0.0771477 178.642 0.241552 180.197 0.55102C182.159 0.937855 183.811 1.30535 185.443 1.79856C186.794 2.20474 188.241 2.76565 190 3.55866C191.583 4.2743 193.235 5.106 194.896 6.02473C195.635 6.43091 196.344 6.89511 197.024 7.3303C197.52 7.64944 198.005 7.96857 198.511 8.26837C199.375 8.78093 200.25 9.28381 201.124 9.77703C202.125 10.3476 203.126 10.9182 204.107 11.5081C206.351 12.8524 209.003 14.4577 211.656 16.1405C213.55 17.3493 215.076 18.6355 216.329 20.0765C217.213 21.0919 217.757 22.3395 217.942 23.7901C218.204 25.879 217.718 27.7842 217.262 29.2058C216.999 30.0375 216.718 30.8692 216.446 31.7009C215.921 33.2579 215.387 34.8729 214.94 36.4686C214.629 37.5808 214.425 38.7316 214.211 39.9405C214.114 40.5014 214.017 41.0526 213.9 41.6135L213.521 43.538C213.162 45.3465 212.812 47.1549 212.443 48.9537C212.268 49.8241 212.074 50.6945 211.879 51.5648C211.704 52.3385 211.539 53.1122 211.374 53.8858C211.219 54.6402 211.073 55.3945 210.917 56.1585C210.675 57.3674 210.441 58.5762 210.169 59.7851C210.024 60.4137 209.81 61.0036 209.596 61.5645C209.518 61.7773 209.431 61.9997 209.363 62.2125C209.207 62.6476 209.062 63.0828 208.916 63.518C208.547 64.6012 208.168 65.723 207.74 66.8255C207.43 67.6088 207.07 68.3535 206.711 69.0788C206.526 69.4559 206.341 69.8234 206.167 70.2006C205.166 72.3765 203.708 74.1947 202.3 75.9548C201.96 76.3803 201.62 76.8155 201.28 77.2506C199.861 79.0784 198.734 80.4324 197.627 81.6412L197.209 82.0958C195.781 83.6528 194.294 85.2678 192.623 86.6507C190.524 88.3915 188.484 89.6874 186.386 90.6351L185.647 90.9639C183.782 91.8053 181.858 92.6757 179.779 93.1689C177.982 93.5944 176.175 93.8362 174.319 94.078C172.91 94.2617 171.443 94.3584 169.957 94.3778C168.684 94.3971 167.343 94.3391 165.857 94.194C164.438 94.0586 162.962 93.8555 161.339 93.5654C160.698 93.4494 160.105 93.2559 159.532 93.0722C159.338 93.0045 159.134 92.9465 158.939 92.8884C155.908 91.9697 152.984 90.316 150.001 87.8306C148.524 86.6024 147.067 85.1808 145.26 83.2369C144.152 82.0377 143.122 80.7515 142.131 79.504L141.276 78.4402C140.694 77.7149 140.013 76.8638 139.421 75.9451C138.848 75.0554 138.284 74.0786 137.643 72.8504C137.322 72.2315 136.982 71.6222 136.652 71.0129C135.739 69.3399 134.786 67.5991 134.068 65.7713C132.979 62.9958 132.27 60.1622 131.726 57.7542C131.425 56.4389 131.435 55.1044 131.444 53.8085V53.0058C131.444 51.1296 131.493 49.4179 131.619 47.7448C131.668 47.1356 131.794 46.5747 131.92 46.0234C132.008 45.6656 132.086 45.3078 132.144 44.9403C132.396 43.0545 133.378 41.6715 134.31 40.337C134.485 40.0855 134.66 39.8341 134.835 39.5826C136.254 37.4647 138.119 35.8497 139.926 34.283C140.324 33.9348 140.723 33.5964 141.111 33.2482C142.17 32.3101 143.424 31.6815 144.648 31.0819C144.968 30.9272 145.279 30.7725 145.59 30.6081C146.95 29.9021 148.34 29.2638 149.719 28.7029C150.778 28.2774 151.886 28.0066 152.828 27.7938C154.052 27.5231 155.364 27.2329 156.714 27.0879C159.066 26.8364 160.999 26.6914 162.806 26.6333C164.302 26.585 165.886 26.6333 167.936 26.7784C168.859 26.8461 169.762 26.9622 170.647 27.0685C171.336 27.1556 172.026 27.2426 172.726 27.3103C175.3 27.5424 177.681 28.4128 179.711 29.2155L180.265 29.4282C181.635 29.9698 183.053 30.521 184.404 31.2173C185.696 31.8846 186.57 32.9871 187.338 33.9639L187.697 34.4184C189.096 36.1495 189.563 38.103 190 39.9985C190.087 40.3853 190.184 40.7818 190.282 41.1687C190.359 41.4684 190.427 41.7682 190.495 42.068C190.622 42.6193 190.748 43.1415 190.913 43.6347C191.962 46.7004 192.137 49.7854 192.166 52.3965C192.196 54.6595 191.311 56.6034 190.476 58.2474C190.058 59.0791 189.495 59.7947 188.951 60.4814C188.795 60.6748 188.64 60.8779 188.494 61.0713L187.979 61.7483C187.25 62.7153 186.502 63.7114 185.676 64.6495C183.685 66.9222 181.829 68.5759 179.818 69.8234C178.03 70.9452 176.048 72.0574 173.717 72.57C170.802 73.2179 168.431 73.2663 166.265 72.7247C163.146 71.951 160.795 70.8195 158.852 69.1658L158.745 69.0691C157.035 67.6088 155.267 66.1001 153.955 64.0983C153.392 63.2376 153.032 62.2705 152.76 61.4388C152.061 59.3499 151.964 57.0192 152.478 54.3307C152.887 52.1548 153.499 49.6403 154.936 47.445C155.578 46.4683 156.423 45.3948 157.861 44.8726C158.113 44.7856 158.405 44.5535 158.726 44.302L158.978 44.1086C160.591 42.8804 162.213 41.981 163.933 41.3524C164.166 41.2654 164.399 41.159 164.642 41.0623C165.128 40.8495 165.692 40.5981 166.294 40.4724L166.993 40.3176C168.48 39.9888 170.17 39.6116 171.948 40.0178C172.483 40.1435 172.988 40.3079 173.474 40.511L173.853 40.6754C174.581 40.9849 175.329 41.304 176.039 41.7392C176.758 42.1744 177.379 42.7257 178.001 43.3059C179.021 44.2537 180.265 45.5786 180.867 47.4547C181.256 48.6732 181.013 49.9595 180.187 51.0716C179.031 52.6286 177.885 53.9535 176.699 55.114C175.825 55.9651 174.727 56.526 173.765 56.9805C172.609 57.5318 171.307 58.054 169.782 58.5762C167.984 59.1951 166.177 59.2145 164.574 58.6536C163.612 58.3151 162.864 57.5318 162.388 56.9805C161.893 56.4099 161.786 55.5976 162.097 54.8046C162.495 53.7988 163.438 53.0348 164.448 52.9188C164.973 52.8607 165.497 52.8027 166.022 52.7543C166.828 52.677 167.635 52.5899 168.441 52.4739C168.888 52.4062 169.325 52.2708 169.665 52.0774C171.161 51.2457 172.23 50.5107 172.92 49.4082C173.367 48.6926 173.415 48.0156 173.046 47.2806C172.492 46.1588 170.802 45.3948 169.568 45.714C169.335 45.772 169.092 45.8203 168.849 45.8784C168.48 45.9557 168.13 46.0331 167.829 46.1395C167.576 46.2362 167.304 46.3813 167.013 46.5457C166.78 46.681 166.537 46.8068 166.294 46.9228C165.857 47.1259 165.381 47.3387 164.866 47.4644C164.399 47.5804 164.001 47.9383 163.535 48.3444C163.263 48.5862 162.981 48.828 162.68 49.0407C161.553 49.8434 160.756 50.8879 160.29 52.1548C159.911 53.1702 159.668 54.2437 159.406 55.3848L159.279 55.9264C159.24 56.0908 159.202 56.2552 159.153 56.4293C159.046 56.8355 158.9 57.3867 158.968 57.6188C159.036 57.8702 159.104 58.1217 159.172 58.3828C159.6 59.9978 159.959 61.3904 161.242 62.2705C161.728 62.5993 162.077 63.0248 162.388 63.402C162.592 63.6534 162.796 63.8952 162.981 64.0403C164.137 64.9493 165.196 65.6843 166.216 66.2839C167.217 66.8738 168.422 67.0962 170.229 67.0092C172.114 66.9318 173.921 66.2839 175.757 65.046C176.544 64.5141 177.253 63.8178 178.001 63.0828C178.263 62.8217 178.536 62.5606 178.798 62.3092L179.05 62.0771C179.643 61.5162 180.207 60.9939 180.654 60.4137C181.868 58.847 183.121 57.232 184.19 55.5299C184.656 54.7949 184.928 53.8762 185.025 52.7253C185.414 48.2671 184.19 44.0699 182.82 40.2112C182.49 39.2828 182.082 38.4318 181.606 37.6871C181.003 36.7491 180.051 35.9947 178.506 35.2307C176.544 34.2637 174.319 33.5867 171.501 33.1031C170.025 32.8517 168.781 32.6486 167.518 32.5229C167.052 32.4745 166.556 32.4939 166.032 32.5132C165.73 32.5229 165.429 32.5326 165.128 32.5326C164.73 32.5326 164.331 32.5326 163.933 32.5132C163.117 32.4939 162.34 32.4745 161.572 32.5326C160.125 32.639 158.648 32.8614 157.142 33.0935C156.627 33.1708 156.102 33.3256 155.539 33.4803L154.528 33.7511C154.004 33.8865 153.499 34.0122 153.071 34.2056C152.012 34.6698 150.953 35.2017 149.923 35.7046L148.787 36.2655C148.689 36.3429 148.534 36.4493 148.31 36.5073C146.426 37.0585 145.124 38.5285 143.744 40.0855C141.636 42.4742 139.586 45.0177 139.158 48.2864C139.1 48.7023 139.061 49.1084 139.013 49.5243C138.954 49.9982 138.906 50.472 138.838 50.9459C138.799 51.2167 138.75 51.4778 138.692 51.7486C138.624 52.0967 138.546 52.4255 138.546 52.6963C138.537 53.7698 138.614 54.8723 138.702 55.8974C138.702 55.8684 138.731 55.9167 138.76 55.9651C138.838 56.1295 138.945 56.3519 139.013 56.613C139.1 56.9708 139.168 57.3383 139.236 57.7058C139.343 58.2861 139.44 58.8277 139.615 59.3112C140.227 61.0423 141.063 63.3246 142.025 65.5199C142.365 66.2936 142.763 67.0285 143.19 67.8216C143.628 68.6242 144.075 69.4559 144.453 70.336C145.26 72.1831 146.397 73.8175 147.494 75.3261C148.145 76.2255 148.903 77.1249 149.739 77.9856C151.293 79.591 152.955 81.2931 154.694 82.8791C155.549 83.6624 156.685 84.6392 157.929 85.2871L158.444 85.5579C159.678 86.2155 160.844 86.8442 162.145 87.0376C162.932 87.1536 163.69 87.347 164.429 87.5211C165.206 87.7145 165.934 87.8886 166.663 87.9853C167.372 88.082 168.13 88.053 168.937 88.024C169.345 88.0143 169.724 87.9756 170.151 87.995C170.316 87.995 170.491 88.0047 170.656 88.024C170.763 88.024 170.86 88.0433 170.967 88.0433C171.317 88.0433 171.667 88.024 172.016 88.0047H172.075C172.22 87.966 172.454 87.9176 172.735 87.966C174.29 88.2077 175.912 87.8402 177.302 87.4824L177.661 87.3857C179.527 86.9022 181.285 86.4573 182.81 85.4999C183.257 85.2195 183.704 84.9583 184.161 84.6875C185.094 84.1363 185.968 83.6237 186.784 83.0242C188.047 82.0958 189.164 81.119 190.116 80.1132C190.991 79.1848 191.788 78.1984 192.623 77.1539C193.002 76.6801 193.391 76.2062 193.779 75.742C194.022 75.4519 194.275 75.1617 194.518 74.8716C194.994 74.3204 195.45 73.7982 195.849 73.2566C196.101 72.8988 196.364 72.5506 196.626 72.2025C197.947 70.4037 199.2 68.7113 200.017 66.7481C200.347 65.9454 200.706 65.1427 201.066 64.3497C201.552 63.2763 202.047 62.1641 202.465 61.0616C202.99 59.6884 203.349 58.1894 203.708 56.7387C204.311 54.3017 204.874 51.8163 205.399 49.3502C205.632 48.2381 205.846 47.1259 206.06 46.0138C206.293 44.7952 206.526 43.567 206.788 42.3582C207.07 41.0719 207.391 39.7954 207.711 38.5092C207.906 37.7452 208.09 36.9908 208.275 36.2268C208.527 35.1727 208.77 34.1089 209.013 33.0548C209.227 32.1457 209.431 31.227 209.645 30.3179C209.703 30.0665 209.781 29.8151 209.858 29.5636C209.926 29.3412 209.994 29.1188 210.043 28.8867L210.111 28.5772C210.334 27.5037 210.568 26.3916 210.743 25.3084C210.888 24.3704 210.704 23.6741 210.169 23.1035L209.48 22.3685C208.751 21.5852 208.061 20.8502 207.313 20.1635C207.041 19.9121 206.681 19.6993 206.303 19.4672C205.943 19.2448 205.574 19.0224 205.214 18.7322C203.398 17.2913 201.328 16.0824 199.327 14.9123C198.754 14.5738 198.18 14.245 197.617 13.9065C195.577 12.688 193.497 11.5468 191.477 10.4443C189.66 9.45789 188.057 8.61652 186.561 7.89121C185.152 7.20458 183.617 6.85642 181.985 6.4986C181.47 6.38255 180.955 6.2665 180.44 6.14078C178.293 5.60888 176.029 5.57987 173.707 5.57987C173.27 5.57987 172.842 5.57987 172.405 5.5702C171.433 5.56053 170.52 5.54119 169.607 5.61855C168.48 5.70559 167.372 5.87967 166.187 6.07308L164.467 6.34387C163.117 6.55663 161.718 6.76939 160.387 7.05951C158.191 7.53339 156.025 8.08462 153.819 8.64553C152.032 9.10007 150.127 9.60295 148.252 10.1832C147.164 10.5217 146.066 10.9279 144.997 11.3244C144.492 11.5081 143.987 11.7015 143.472 11.8756C143.045 12.0303 142.607 12.1754 142.17 12.3301C141.267 12.6396 140.334 12.9587 139.45 13.3166C138.119 13.8485 137.011 14.303 135.981 14.9026C134.641 15.6666 133.31 16.5273 132.018 17.3687L130.259 18.5001C129.375 19.0611 128.539 19.593 127.743 20.1829C126.256 21.2854 125.071 22.2234 124.022 23.1422C122.487 24.4767 121.058 25.821 119.766 27.1169C119.397 27.4844 119.067 27.9196 118.707 28.3741C118.319 28.8673 117.92 29.3799 117.444 29.8537C116.716 30.5791 116.269 31.5268 115.822 32.5132C115.113 34.1089 114.462 35.84 114.549 37.6871C114.578 38.3544 114.588 39.0314 114.598 39.6987C114.617 40.7721 114.627 41.7779 114.734 42.7837C114.957 44.8823 115.287 47.0292 115.705 49.1568C116.123 51.236 116.657 53.4797 117.396 56.2165C117.794 57.7155 118.348 59.2338 118.843 60.5781C119.815 63.2569 120.825 65.9261 121.845 68.5856L122.059 69.1465C122.982 71.5835 123.944 74.098 124.935 76.5544C125.615 78.2468 126.315 79.9778 127.14 81.5832C129.346 85.8481 131.269 88.9524 133.358 91.6312C133.786 92.1825 134.213 92.7434 134.631 93.3043C135.544 94.5228 136.409 95.6833 137.39 96.7568C138.78 98.2848 140.383 99.7064 141.937 101.089L142.015 101.157C142.996 102.027 144.104 102.878 145.396 103.768C146.795 104.726 148.272 105.664 149.904 106.621C151.682 107.666 153.304 108.594 154.985 109.387C156.559 110.132 158.133 110.731 159.668 111.176C160.795 111.505 161.98 111.776 163.127 112.037C164.147 112.269 165.206 112.511 166.255 112.791C168.966 113.536 171.715 113.313 174.63 113.081H174.756C176.728 112.907 178.749 112.491 180.702 112.085L181.11 111.998C184.161 111.369 187.017 110.112 189.174 109.087C189.767 108.807 190.359 108.536 190.962 108.255C192.205 107.685 193.488 107.095 194.692 106.447C195.868 105.818 196.946 105.054 198.239 104.116C199.57 103.149 200.881 102.143 202.193 101.147L207.77 96.9018L209.227 98.1977L209.081 98.8844C209.062 98.9811 209.052 99.0875 209.042 99.1938C208.994 99.7354 208.897 100.877 207.585 101.476C207.604 101.486 207.517 101.631 207.439 101.737C207.303 101.94 207.148 102.163 206.934 102.385C206.604 102.724 206.254 103.053 205.914 103.391C205.477 103.817 205.03 104.242 204.622 104.687C202.863 106.602 200.813 108.362 198.365 110.054C195.683 111.911 193.361 113.217 191.059 114.155C190.641 114.329 190.214 114.571 189.767 114.841C189.397 115.054 189.028 115.276 188.649 115.46C188.261 115.654 187.882 115.75 187.532 115.837C187.406 115.866 187.27 115.905 187.143 115.944C186.541 116.128 185.948 116.311 185.346 116.505C183.957 116.94 182.509 117.394 181.071 117.791C180.372 117.984 179.682 118.071 179.012 118.168C178.72 118.207 178.429 118.245 178.137 118.294C177.768 118.352 177.389 118.42 177.02 118.487C176.214 118.632 175.368 118.777 174.523 118.884C173.6 118.99 172.667 119 171.793 119C171.307 119 170.812 119 170.326 119C169.976 119 169.617 119 169.257 119H169.286ZM147.669 34.196C147.669 34.196 147.66 34.196 147.65 34.196C147.65 34.196 147.66 34.196 147.669 34.196Z" fill="white"/>
</g>
<g clip-path="url(#clip3_6299_4585)">
<path d="M461.619 166.899C461.906 167.154 462.203 167.186 462.534 166.966C462.708 166.854 462.919 166.799 463.081 166.672C463.186 166.591 463.241 166.437 463.317 166.31C463.339 166.272 463.332 166.211 463.354 166.174C463.572 165.865 464.363 165.644 464.714 165.78C465.105 165.932 465.548 165.728 465.698 165.328C465.784 165.099 466.095 164.924 466.548 164.862C466.553 164.951 466.561 165.035 466.564 165.187C466.702 165.003 466.797 164.866 466.901 164.726C466.922 164.739 466.944 164.752 466.963 164.756C466.944 164.86 466.923 164.969 466.904 165.073C466.923 165.127 466.943 165.189 466.962 165.243C467.108 165.165 467.255 165.086 467.402 165.008C467.371 165.097 467.339 165.187 467.313 165.279C467.345 165.298 467.371 165.327 467.403 165.346C467.539 165.262 467.672 165.182 467.808 165.098C467.796 165.069 467.787 165.049 467.775 165.021C467.644 165.023 467.514 165.024 467.387 165.021C467.528 164.904 467.664 164.783 467.832 164.645C467.485 164.383 467.612 164.192 467.917 164.1C468.471 163.94 468.642 163.517 468.686 163.019C468.745 162.372 469.418 161.78 470.183 161.809C470.465 161.818 470.746 161.805 471.029 161.8C471.078 161.8 471.14 161.758 471.172 161.777C471.712 162.125 472.083 161.655 472.523 161.506C472.676 161.453 472.846 161.432 472.962 161.407C473.035 161.235 473.082 160.961 473.18 160.941C473.329 160.907 473.518 161.061 473.691 161.121C473.791 161.158 473.92 161.242 473.997 161.209C474.246 161.104 474.402 161.204 474.597 161.348C474.881 161.559 475.207 161.723 475.558 161.931C475.405 162.056 475.294 162.148 475.138 162.278C475.281 162.363 475.398 162.432 475.515 162.501C475.606 162.554 475.761 162.596 475.783 162.667C475.84 162.887 475.968 162.84 476.118 162.829C476.21 162.819 476.358 162.848 476.4 162.91C476.651 163.287 476.854 163.695 477.116 164.065C477.222 164.214 477.462 164.269 477.568 164.418C477.899 164.865 478.219 165.32 478.308 165.896C478.314 165.936 478.36 165.978 478.388 166.016C478.44 166.075 478.547 166.124 478.548 166.182C478.556 166.423 478.523 166.662 478.514 166.908C478.502 167.267 478.205 167.199 477.994 167.289C477.694 167.421 477.382 167.595 477.15 167.831C476.672 168.323 476.25 168.856 476.183 169.599C476.155 169.962 476.027 170.324 475.91 170.679C475.837 170.901 475.693 171.095 475.605 171.316C475.44 171.728 475.281 172.144 475.157 172.572C475.112 172.733 475.171 172.925 475.175 173.1C475.175 173.172 475.181 173.247 475.157 173.312C475.029 173.674 474.877 174.029 474.759 174.397C474.738 174.47 474.819 174.576 474.854 174.661C474.544 174.944 474.438 175.269 474.524 175.693C474.561 175.873 474.522 176.158 474.399 176.28C474.018 176.657 474.101 177.172 473.927 177.6C473.789 177.942 473.77 178.34 473.707 178.712C473.666 178.939 473.674 179.144 473.913 179.286C474.28 179.503 474.643 179.739 475 179.972C475.148 180.074 475.281 180.188 475.408 180.313C475.582 180.481 475.727 180.696 476.023 180.548C476.075 180.521 476.202 180.525 476.224 180.559C476.493 180.955 476.99 180.926 477.338 181.175C477.955 181.626 478.641 181.946 479.36 182.198C479.495 182.249 479.577 182.413 479.71 182.492C479.992 182.658 480.267 182.885 480.645 182.707C480.693 182.686 480.926 182.888 480.915 182.967C480.876 183.275 481.107 183.382 481.288 183.439C481.531 183.526 481.646 183.622 481.588 183.782C481.948 183.937 482.313 184.024 482.597 184.235C482.916 184.473 483.414 184.553 483.494 185.074C483.498 185.127 483.675 185.217 483.726 185.19C484.047 185.049 484.188 185.355 484.403 185.453C484.521 185.509 484.573 185.712 484.675 185.88C484.772 185.837 484.878 185.792 485.006 185.731C485.034 185.805 485.068 185.882 485.08 185.911C485.238 185.947 485.384 185.955 485.516 186.011C485.758 186.111 485.987 186.233 486.255 186.362C486.259 186.343 486.207 186.492 486.239 186.511C486.78 186.845 487.184 187.45 487.923 187.413C488.239 187.399 488.561 187.353 488.873 187.372C489.024 187.383 489.168 187.504 489.31 187.58C489.411 187.64 489.503 187.738 489.613 187.759C490.049 187.859 490.483 187.937 490.92 188.023C490.978 188.036 491.048 188.063 491.104 188.053C491.503 187.973 491.891 187.851 492.326 187.965C492.437 187.995 492.664 187.806 492.757 187.66C492.919 187.411 493.087 187.417 493.322 187.506C493.702 187.652 493.861 187.516 493.844 187.097C493.845 187.083 493.835 187.063 493.835 187.063C494.078 186.87 494.295 186.589 494.569 186.514C494.8 186.45 495.184 186.433 495.309 186.815C495.479 187.353 495.643 187.888 495.796 188.431C495.897 188.806 495.894 189.163 495.785 189.565C495.695 189.9 495.65 190.34 495.893 190.706C496.018 190.894 496.039 191.065 495.756 191.156C495.705 191.169 495.681 191.319 495.669 191.413C495.643 191.699 495.634 191.981 495.603 192.264C495.577 192.514 495.524 192.762 495.489 193.014C495.393 193.675 495.321 194.343 495.186 194.995C495.077 195.519 494.565 195.79 494.033 195.792C493.402 195.792 492.764 195.852 492.133 195.924C491.962 195.945 491.773 196.084 491.644 196.216C491.315 196.566 491.037 196.976 490.7 197.315C490.095 197.926 489.448 197.903 488.767 197.32C488.61 197.184 488.366 197.148 488.168 197.045C488.083 196.995 487.972 196.929 487.95 196.844C487.761 196.108 487.136 195.975 486.558 195.935C485.304 195.846 484.038 195.851 482.777 195.823C481.748 195.803 480.718 195.811 479.692 195.785C478.627 195.766 477.558 195.693 476.494 195.696C475.683 195.697 474.873 195.792 474.065 195.823C473.779 195.834 473.49 195.763 473.199 195.771C472.536 195.788 471.87 195.846 471.21 195.857C470.639 195.864 470.065 195.84 469.496 195.82C468.736 195.794 468.366 196.213 468.308 196.882L468.211 196.839C468.124 197.011 467.982 197.178 467.953 197.361C467.844 198.007 467.781 198.659 467.68 199.303C467.653 199.459 467.546 199.603 467.492 199.779C467.426 199.927 467.349 200.069 467.294 200.222C467.229 200.406 467.193 200.6 467.146 200.788C467.105 200.943 466.982 201.114 467.258 201.17C467.202 201.288 467.147 201.406 467.076 201.55C467.379 201.887 467.094 202.271 467.029 202.649C466.946 203.117 466.809 203.567 466.693 204.029C466.666 204.149 466.659 204.282 466.605 204.386C466.442 204.721 466.318 205.027 466.518 205.418C466.635 205.645 466.183 206.325 465.909 206.508C465.822 206.571 465.722 206.763 465.759 206.835C466.033 207.428 465.942 208.006 465.759 208.594C465.739 208.653 465.761 208.724 465.774 208.86C465.873 208.754 465.921 208.696 465.975 208.642C465.843 209.181 465.827 209.717 465.981 210.246C466.014 210.251 466.046 210.256 466.079 210.261C466.133 210.085 466.187 209.909 466.241 209.733L466.351 209.754C466.308 210.081 466.257 210.409 466.234 210.74C466.215 210.93 466.237 211.122 466.254 211.312C466.302 211.936 466.388 212.554 466.381 213.173C466.377 213.544 466.218 213.91 466.131 214.275C466.127 214.294 466.103 214.322 466.086 214.327C465.552 214.477 465.146 214.969 464.474 214.759C463.881 214.573 463.22 214.598 462.611 214.439C462.098 214.3 461.539 214.286 461.079 213.935C460.9 213.8 460.585 213.836 460.406 213.702C460.102 213.464 459.761 213.421 459.415 213.388C458.57 213.312 457.85 212.915 457.132 212.504C456.85 212.338 456.71 211.882 456.787 211.461C456.834 211.224 456.866 210.976 456.841 210.739C456.761 210.061 456.579 209.386 456.566 208.704C456.549 207.969 456.282 207.316 456.137 206.627C456.074 206.332 456.13 206.02 456.123 205.715C456.121 205.585 456.146 205.434 456.099 205.32C455.838 204.742 455.903 204.121 455.824 203.515C455.743 202.9 455.581 202.287 455.456 201.675C455.448 201.627 455.419 201.567 455.433 201.532C455.582 201.183 455.438 200.94 455.253 200.622C455.011 200.206 454.982 199.673 454.784 199.218C454.466 198.47 454.41 197.619 453.872 196.963C453.844 196.926 453.814 196.879 453.803 196.837C453.668 196.398 453.578 195.943 453.391 195.531C453.255 195.228 452.998 194.983 452.872 194.808C452.224 194.798 451.696 194.794 451.171 194.771C451.089 194.765 450.98 194.658 450.928 194.563C450.62 194.029 450.159 193.885 449.581 194.002C449.46 194.024 449.34 194.032 449.217 194.046C449.225 194.409 449.059 194.519 448.442 194.52C448.524 194.454 448.587 194.42 448.624 194.37C448.682 194.296 448.715 194.215 448.763 194.136C448.677 194.085 448.589 194.004 448.503 194.004C448.252 193.992 447.995 194.026 447.746 194.023C447.61 194.021 447.478 193.979 447.322 193.951C447.333 194.101 447.338 194.226 447.351 194.363C446.761 194.316 446.196 194.29 445.633 194.222C445.507 194.205 445.395 194.053 445.302 193.919C444.865 193.725 444.298 193.871 444.046 193.435C443.736 193.546 443.488 193.686 443.224 193.709C442.819 193.75 442.407 193.707 441.997 193.708C441.903 193.71 441.805 193.717 441.744 193.724C441.742 193.873 441.747 193.998 441.747 194.156C441.407 194.063 441.579 193.396 441.041 193.71C441.108 193.792 441.154 193.848 441.199 193.904C441.131 193.935 441.062 193.966 440.991 193.989C440.826 194.05 440.662 194.11 440.537 194.151C440.294 194.173 440.077 194.188 439.86 194.203C439.846 194.202 439.829 194.22 439.829 194.22C439.429 193.84 439.083 194.303 438.705 194.288C438.294 194.267 437.869 194.317 437.457 194.36C437.124 194.4 436.792 194.513 436.461 194.539C435.878 194.59 435.296 194.604 434.712 194.632C434.601 194.638 434.492 194.616 434.383 194.631C434.004 194.665 433.626 194.721 433.302 194.444C432.756 193.984 432.106 193.894 431.424 193.871C431.274 193.869 431.121 193.764 430.982 193.696C430.915 193.663 430.863 193.568 430.805 193.57C430.093 193.572 429.947 192.933 429.526 192.469C429.844 192.234 430.143 192.008 430.456 191.806C430.688 191.656 430.729 191.465 430.532 191.277C430.496 191.241 430.443 191.16 430.453 191.144C430.484 191.091 430.549 191.043 430.613 191.031C430.801 191.005 430.987 190.993 431.288 190.97C431.034 190.842 430.873 190.761 430.707 190.677C430.715 190.653 430.719 190.634 430.721 190.606C430.796 190.601 430.877 190.584 430.951 190.592C431.176 190.625 431.319 190.565 431.288 190.303C431.262 190.08 431.345 190 431.588 189.964C431.988 189.907 432.377 189.771 432.772 189.588C432.322 189.221 431.735 189.462 431.194 189.15C431.369 189.038 431.47 188.939 431.591 188.904C431.967 188.803 432.354 188.73 432.74 188.636C433.338 188.487 433.781 188.161 434.118 187.628C434.259 187.403 434.328 187.2 434.366 186.942C434.395 186.759 434.596 186.59 434.742 186.44C434.817 186.362 434.938 186.326 435.033 186.275C435.021 186.246 435.004 186.215 434.992 186.186C434.837 186.267 434.689 186.359 434.528 186.414C433.655 186.737 432.931 187.342 432.117 187.772C431.251 188.229 430.382 188.727 429.637 189.356C429.17 189.746 428.541 189.899 428.178 190.38C427.845 190.822 427.474 190.66 427.08 190.599C426.962 190.579 426.822 190.633 426.696 190.666C426.082 190.841 425.314 190.588 424.931 190.082C424.815 189.927 424.657 189.805 424.566 189.643C424.463 189.453 424.373 189.242 424.341 189.029C424.252 188.489 424.146 187.938 424.146 187.393C424.145 186.933 424.292 186.467 424.344 186.003C424.36 185.89 424.289 185.755 424.23 185.649C424.102 185.429 424.068 185.28 424.292 185.046C424.564 184.769 424.719 184.373 424.899 184.02C424.918 183.988 424.827 183.863 424.763 183.825C424.699 183.788 424.601 183.808 424.466 183.793C424.506 183.666 424.515 183.542 424.572 183.468C424.708 183.312 424.783 183.184 424.625 182.99C424.582 182.943 424.623 182.752 424.681 182.715C424.917 182.546 425.154 182.363 425.426 182.28C425.78 182.166 426.075 182.032 426.375 181.779C426.735 181.475 427.194 181.208 427.654 181.121C428.226 181.015 428.662 180.691 429.15 180.449C429.465 180.291 429.786 180.136 430.112 179.999C430.189 179.965 430.342 179.962 430.38 180.007C430.718 180.393 430.993 180.075 431.284 179.946C431.556 179.826 431.83 179.702 432.094 179.571C432.198 179.517 432.282 179.424 432.383 179.361C432.869 179.074 433.324 178.669 433.848 178.534C434.841 178.275 435.702 177.729 436.659 177.398C436.795 177.349 436.931 177.265 437.074 177.242C437.209 177.221 437.381 177.208 437.488 177.271C437.868 177.489 438.582 177.387 438.844 177.04C438.881 176.99 438.905 176.853 438.894 176.846C438.809 176.796 438.702 176.783 438.59 176.681C438.805 176.657 439.014 176.631 439.231 176.616C439.783 176.569 440.338 176.552 440.886 176.475C441.057 176.453 441.196 176.242 441.372 176.188C441.542 176.13 441.743 176.142 441.926 176.149C442.105 176.162 442.211 176.153 442.265 175.927C442.319 175.678 442.624 175.586 442.828 175.728C443.081 175.907 443.277 176.145 443.542 175.684C443.725 175.376 444.463 175.633 444.67 176.107C444.952 175.958 445.228 175.806 445.502 175.659L445.469 175.582C445.273 175.61 445.074 175.643 444.883 175.674C444.867 175.628 444.853 175.591 444.853 175.591C445.354 175.328 445.264 174.715 445.592 174.342C445.637 174.29 445.553 174.118 445.519 173.968C445.726 173.933 445.981 173.89 446.27 173.839C446.223 173.918 446.186 174.004 446.126 174.119C446.389 174.196 446.614 174.616 446.851 174.154C446.654 173.7 446.457 173.268 446.272 172.828C446.046 172.3 445.852 171.754 445.609 171.231C445.235 170.42 444.842 169.628 444.447 168.828C444.395 168.733 444.289 168.67 444.209 168.587C444.147 168.522 444.074 168.464 444.027 168.386C443.889 168.182 443.797 167.949 443.63 167.771C443.099 167.213 442.494 166.719 442.015 166.12C441.675 165.689 441.475 165.14 441.243 164.623C441.13 164.377 441.198 164.129 441.388 163.905C441.506 163.766 441.615 163.558 441.616 163.386C441.589 162.617 442.32 161.952 443.103 162.048C443.145 161.771 443.288 161.699 443.566 161.798C443.666 161.836 443.822 161.742 443.952 161.704C444.187 161.635 444.422 161.565 444.651 161.493C444.697 161.477 444.767 161.468 444.785 161.436C445.039 160.861 445.605 160.973 446.065 160.85C446.228 160.804 446.377 160.698 446.537 160.634C446.745 160.549 446.955 160.473 447.175 160.416C447.604 160.311 448.023 160.172 448.46 160.15C448.829 160.131 449.081 159.936 449.381 159.805C449.515 159.748 449.821 159.85 449.903 159.977C450.147 160.33 450.328 160.716 450.472 161.139C450.71 161.818 451.108 162.455 451.499 163.067C451.771 163.493 452.154 163.841 452.475 164.232C452.549 164.326 452.558 164.468 452.6 164.615C452.83 164.493 452.992 164.524 453.088 164.81C453.127 164.926 453.299 165.035 453.433 165.064C453.787 165.145 453.955 165.431 454.186 165.646C454.394 165.841 454.635 166.005 454.872 166.174C455.054 166.303 455.247 166.424 455.441 166.546C455.579 166.628 455.723 166.713 455.861 166.795C455.925 166.832 455.992 166.865 456.047 166.905C456.349 167.183 456.635 167.475 456.943 167.743C457.312 168.054 457.692 168.358 458.079 168.637C458.195 168.72 458.413 168.777 458.516 168.724C459.1 168.416 459.667 168.076 460.239 167.74C460.262 167.725 460.274 167.682 460.325 167.583C460.108 167.598 459.94 167.614 459.773 167.63C459.761 167.601 459.753 167.567 459.736 167.536C459.975 167.434 460.212 167.337 460.358 167.272C460.516 167.38 460.603 167.489 460.691 167.498C460.884 167.512 461.105 167.391 461.196 167.675C461.285 167.634 461.394 167.62 461.454 167.555C461.58 167.414 461.851 167.308 461.639 167.047C461.588 166.988 461.51 166.949 461.414 166.87C461.532 166.84 461.597 166.814 461.665 166.797L461.619 166.899ZM448.752 180.15C448.498 180.18 448.31 180.169 448.145 180.229C447.719 180.379 447.299 180.569 446.875 180.727C446.719 180.785 446.536 180.792 446.384 180.867C445.648 181.2 444.92 181.558 444.174 181.885C443.225 182.3 442.268 182.681 441.317 183.088C440.76 183.325 440.208 183.58 439.65 183.831C438.585 184.321 437.521 184.811 436.37 185.336C436.538 185.514 436.602 185.624 436.696 185.672C436.937 185.786 437.184 185.889 437.439 185.968C437.661 186.042 437.804 186.141 437.799 186.403C437.797 186.589 437.838 186.714 438.086 186.573C438.224 186.497 438.445 186.513 438.614 186.541C439.139 186.636 439.655 186.784 440.184 186.86C440.404 186.889 440.649 186.79 440.876 186.745C441.034 186.709 441.187 186.656 441.347 186.629C441.49 186.606 441.631 186.61 441.781 186.598C441.78 186.576 441.779 186.554 441.778 186.532C441.609 186.489 441.437 186.452 441.268 186.41L441.293 186.259C442.038 186.298 442.781 186.328 443.525 186.367C443.526 186.403 443.523 186.444 443.518 186.477C443.411 186.5 443.307 186.518 443.102 186.561C443.401 186.724 443.614 186.836 443.74 186.903C444.184 186.807 444.564 186.723 444.943 186.652C445.08 186.626 445.278 186.571 445.367 186.638C445.706 186.903 446.086 186.891 446.478 186.872C446.603 186.867 446.729 186.848 446.852 186.834C446.829 186.727 446.809 186.615 446.787 186.495C447.248 186.516 447.722 186.309 448.151 186.627C448.104 186.779 448.062 186.911 448.011 187.082C448.385 187.045 448.768 187.343 448.974 186.812C449.163 187.161 449.457 187.162 449.744 187.052C450.043 186.935 450.333 186.783 450.603 186.606C450.688 186.548 450.759 186.368 450.738 186.269C450.56 185.575 450.359 184.883 450.156 184.196C450.128 184.086 450.02 184 449.983 183.893C449.877 183.55 449.482 183.273 449.758 182.855C449.678 182.772 449.588 182.704 449.525 182.617C449.279 182.256 449.054 181.872 448.79 181.529C448.482 181.117 448.439 180.704 448.749 180.156L448.752 180.15ZM455.96 177.086C456.34 178.179 456.683 179.165 457.033 180.175C456.8 180.411 456.799 180.632 457.072 180.959C457.11 181.003 457.139 181.063 457.154 181.122C457.263 181.545 457.343 181.98 457.484 182.386C457.637 182.843 457.844 183.281 458.031 183.729C458.057 183.723 458.082 183.716 458.107 183.71C458.042 183.384 457.973 183.063 457.907 182.737C458.702 183.918 458.786 185.317 459.347 186.674C459.189 186.638 459.093 186.618 458.998 186.597L459.181 186.663C459.184 186.865 459.186 187.067 459.191 187.264C459.202 187.27 459.219 187.266 459.233 187.267C459.262 187.133 459.299 186.998 459.34 186.807C459.509 187.043 459.62 187.281 459.797 187.429C459.984 187.575 460.243 187.635 460.458 187.719C461.02 187.485 461.639 187.506 462.229 187.589C462.404 186.954 462.566 186.375 462.732 185.791C462.757 185.713 462.822 185.651 462.866 185.577C462.961 185.417 463.063 185.255 463.123 185.082C463.17 184.953 463.138 184.79 463.178 184.649C463.414 183.862 463.677 183.078 463.898 182.29C463.944 182.116 463.917 181.835 463.8 181.716C463.506 181.413 463.171 181.142 462.813 180.909C461.805 180.249 460.784 179.609 459.76 178.974C459.025 178.518 458.271 178.094 457.533 177.643C457.336 177.527 457.01 177.484 457.185 177.201C456.947 177.153 456.732 177.105 456.512 177.076C456.367 177.054 456.219 177.074 455.961 177.073L455.96 177.086ZM470.703 188.087C470.96 188.103 471.112 188.099 471.258 188.121C471.375 188.14 471.491 188.223 471.611 188.215C472.278 188.179 472.927 188.053 473.586 187.69L471.481 186.445C471.199 186.679 471.207 186.677 471.14 187.118C471.126 187.203 470.995 187.363 470.955 187.346C470.733 187.272 470.761 187.382 470.768 187.53C470.771 187.632 470.72 187.731 470.707 187.838C470.697 187.94 470.701 188.043 470.701 188.079L470.703 188.087ZM466.561 172.132C466.047 172.395 465.568 172.635 465.094 172.879C465.336 173.295 465.581 173.705 465.843 174.148C466.016 173.941 466.349 174.009 466.403 173.675C466.475 173.237 466.594 172.805 466.681 172.368C466.691 172.302 466.611 172.219 466.561 172.132ZM462.8 168.336C462.498 168.373 462.314 168.393 462.132 168.422C462.131 168.472 462.134 168.516 462.133 168.566C462.299 168.614 462.46 168.681 462.628 168.701C462.66 168.706 462.711 168.535 462.805 168.339L462.8 168.336Z" fill="white"/>
<path d="M461.625 166.902C461.997 166.721 462.376 166.542 462.748 166.361C462.767 166.415 462.788 166.463 462.812 166.52C462.415 166.645 462.021 166.778 461.625 166.902Z" fill="white"/>
<path d="M464.43 165.203C464.589 165.081 464.747 164.959 464.905 164.838C464.943 164.882 464.976 164.923 465.015 164.967C464.864 165.101 464.713 165.234 464.561 165.359C464.52 165.306 464.474 165.25 464.43 165.203Z" fill="white"/>
</g>
<defs>
<clipPath id="clip0_6299_4585">
<rect width="284" height="292" fill="white" transform="translate(123 150)"/>
</clipPath>
<clipPath id="clip1_6299_4585">
<rect width="99" height="89" fill="white" transform="translate(0 119)"/>
</clipPath>
<clipPath id="clip2_6299_4585">
<rect width="111" height="119" fill="white" transform="translate(107)"/>
</clipPath>
<clipPath id="clip3_6299_4585">
<rect width="66.9941" height="52.9974" fill="white" transform="translate(446.978 145) rotate(30.5994)"/>
</clipPath>
</defs>
</svg>
