<svg width="144" height="29" viewBox="0 0 144 29" fill="none" xmlns="http://www.w3.org/2000/svg">
<path d="M1.24798 16.7624C1.28155 16.5157 1.3019 16.3187 1.30905 16.1715C1.31518 16.008 1.24771 15.841 1.10663 15.6704C1.15543 15.4064 1.19152 15.2004 1.21491 15.0521C1.25455 14.9029 1.25003 14.6993 1.20136 14.4414C1.32127 14.01 1.51833 13.6389 1.79253 13.3283C2.08298 13.0167 2.40082 12.7523 2.74607 12.5352C3.09031 12.3017 3.45332 12.1079 3.8351 11.9537C4.21587 11.7832 4.57379 11.6386 4.90886 11.5199C4.90481 11.4549 4.8703 11.4245 4.80532 11.4285C4.74034 11.4326 4.72157 11.393 4.74901 11.3097C5.6161 11.0927 6.47865 10.8025 7.33665 10.4393C8.21089 10.075 9.1034 9.74223 10.0142 9.44092C10.9249 9.13962 11.8662 8.93426 12.8378 8.82486C13.8084 8.69921 14.8394 8.75735 15.9308 8.99926C16.0079 9.19015 16.1089 9.3714 16.2337 9.54301C16.3585 9.71462 16.4834 9.88624 16.6082 10.0578C16.7483 10.2122 16.8721 10.3676 16.9797 10.524C17.0873 10.6803 17.1547 10.8474 17.1821 11.025C17.3882 11.1916 17.5546 11.3769 17.6815 11.581C17.8236 11.7679 17.8646 12.0344 17.8046 12.3806C17.634 12.5217 17.4553 12.6633 17.2684 12.8053C17.0816 12.9474 16.8861 13.0819 16.682 13.2088C15.9399 13.0756 15.2048 13.0561 14.4769 13.1503C13.7489 13.2446 13.0945 13.3424 12.5138 13.4438C12.3229 13.2599 12.1062 13.1837 11.8635 13.2152C11.6199 13.2303 11.3625 13.2871 11.0914 13.3855C10.8355 13.4667 10.5802 13.556 10.3253 13.6534C10.0694 13.7345 9.82677 13.7659 9.59732 13.7476C9.42875 13.9212 9.20028 14.0495 8.91192 14.1327C8.62255 14.1997 8.31643 14.2595 7.99356 14.3122C7.98237 14.3944 8.00216 14.4503 8.05291 14.4797C8.10367 14.5092 8.11583 14.5737 8.08941 14.6731C8.21222 14.8123 8.37312 14.9083 8.5721 14.9611C8.77007 14.9977 8.96804 15.0343 9.16601 15.0709C9.38022 15.1065 9.57158 15.168 9.7401 15.2553C9.9076 15.3264 10.0218 15.4579 10.0827 15.6498C10.3761 15.6479 10.6329 15.7134 10.8532 15.8465C11.0725 15.9633 11.2613 16.1146 11.4196 16.3005C11.5779 16.4863 11.6967 16.6909 11.7758 16.9143C11.8539 17.1214 11.8904 17.3148 11.8853 17.4945C11.9604 17.6529 12.0294 17.7139 12.0924 17.6773C12.1716 17.6398 12.2634 17.6748 12.368 17.7825C12.4481 18.0221 12.6105 18.2729 12.8551 18.5349C13.115 18.7797 13.3195 19.0523 13.4687 19.3529C13.5315 19.8382 13.5831 20.2753 13.6237 20.6641C13.6804 21.052 13.6392 21.4378 13.5 21.8215C13.2683 22.5535 12.9103 23.2199 12.4259 23.8208C11.9414 24.4217 11.3798 24.9622 10.7411 25.4423C10.1176 25.9051 9.45048 26.3217 8.73969 26.6921C8.0279 27.0462 7.32119 27.3512 6.61957 27.6068C6.55359 27.5946 6.47236 27.5997 6.37591 27.622C6.29569 27.6433 6.27642 27.5956 6.31807 27.4788C6.17996 27.6179 6.01445 27.7097 5.82153 27.7543C5.64487 27.798 5.44231 27.8187 5.21388 27.8166C5.0027 27.8298 4.78289 27.8353 4.55445 27.8332C4.34226 27.8301 4.13159 27.8514 3.92243 27.897C3.78439 27.7751 3.65446 27.6528 3.53266 27.5299C3.4271 27.406 3.33627 27.2567 3.26017 27.0821C3.17794 27.0709 3.13429 27.0247 3.12924 26.9435C3.13942 26.845 3.10389 26.7983 3.02267 26.8033C3.01863 26.7384 3.02372 26.6891 3.03794 26.6556C3.05216 26.6221 3.06638 26.5886 3.0806 26.5551C3.14255 26.5023 3.16489 26.4683 3.14764 26.4531C3.14562 26.4206 3.11973 26.3978 3.06999 26.3846C3.03548 26.3541 2.99284 26.3241 2.94209 26.2947C2.90757 26.2642 2.89692 26.2241 2.91014 26.1744C2.98226 26.0231 2.99601 25.851 2.95138 25.6581C2.92199 25.4479 2.89261 25.2378 2.86322 25.0276C2.83383 24.8174 2.83794 24.6215 2.87555 24.4398C2.91215 24.2418 3.04012 24.0707 3.25945 23.9266C3.92952 23.9502 4.55292 23.8787 5.12964 23.7124C5.7226 23.545 6.27191 23.3314 6.77758 23.0716C7.2995 22.8109 7.78791 22.5358 8.24283 22.2466C8.71298 21.9401 9.1684 21.659 9.60909 21.4033C9.64771 21.2378 9.71222 21.0951 9.80261 20.9754C9.90924 20.8546 10.0164 20.7419 10.124 20.6374C10.2307 20.5166 10.3292 20.3963 10.4196 20.2765C10.5089 20.1405 10.5724 19.9816 10.61 19.7999C10.6222 19.7339 10.6192 19.6852 10.6009 19.6537C10.5827 19.6222 10.5568 19.5994 10.5233 19.5851C10.4888 19.5547 10.4543 19.5242 10.4198 19.4937C10.3853 19.4633 10.366 19.4155 10.3619 19.3506C10.3122 19.3374 10.2624 19.3241 10.2127 19.3109C10.1792 19.2967 10.1462 19.2906 10.1137 19.2926C9.6782 19.1077 9.22035 18.9569 8.74016 18.84C8.25997 18.7231 7.85186 18.5854 7.51585 18.427C7.329 18.5691 7.13609 18.6137 6.93711 18.5608C6.73813 18.508 6.49854 18.4577 6.21833 18.4099C5.53404 18.4199 4.88021 18.3953 4.25685 18.3363C3.64973 18.2762 3.05431 18.1421 2.47058 17.9338C2.43202 17.8383 2.38636 17.7596 2.33358 17.6977C2.27979 17.6195 2.16456 17.6022 1.98789 17.6458C1.86407 17.4905 1.73313 17.3519 1.59509 17.23C1.47227 17.0909 1.35657 16.935 1.24798 16.7624ZM29.5052 12.117C29.5599 12.4724 29.636 12.7775 29.7334 13.0324C29.8308 13.2872 29.9358 13.5335 30.0484 13.7711C30.1438 13.9934 30.2311 14.2163 30.3102 14.4397C30.4046 14.6458 30.4776 14.9022 30.5293 15.2088C30.4256 15.6393 30.3525 16.0352 30.3097 16.3966C30.2832 16.757 30.2496 17.1342 30.2089 17.5281C29.9844 18.1129 29.7639 18.6321 29.5476 19.0859C29.3312 19.5396 29.16 19.9335 29.0341 20.2675C28.9579 20.3538 28.8909 20.4558 28.833 20.5736C28.7903 20.6741 28.74 20.7832 28.6821 20.901C28.6527 20.9517 28.6166 21.0273 28.5739 21.1278C28.5313 21.2284 28.4947 21.2959 28.4642 21.3304L27.9663 21.1901L27.9067 21.8054L27.5717 21.9241L27.3462 22.2316C27.0709 22.7869 26.7743 23.262 26.4564 23.6569C26.1376 24.0355 25.7679 24.3846 25.3475 24.7043C24.9423 25.0068 24.4712 25.297 23.934 25.5751C23.4131 25.8521 22.8206 26.1581 22.1566 26.4929C21.8784 26.4776 21.6337 26.4766 21.4225 26.4897C21.2266 26.4856 21.0387 26.481 20.859 26.4759C20.5504 26.4951 20.1671 26.4945 19.7093 26.4741C19.6524 26.3471 19.5738 26.2623 19.4733 26.2197C19.3728 26.177 19.2819 26.1582 19.2007 26.1633C18.9164 26.0505 18.6936 25.8768 18.5323 25.6422C18.3861 25.3904 18.239 25.1224 18.0908 24.838C17.9985 24.6644 17.9071 24.507 17.8168 24.3659C17.7255 24.2085 17.626 24.0516 17.5184 23.8952L17.9251 23.7476L17.3526 23.1962C17.3171 23.1494 17.274 23.1114 17.2232 23.0819C17.1714 23.0362 17.1278 22.99 17.0923 22.9433L17.0436 22.5549C16.9251 21.4371 16.8371 20.4152 16.7794 19.4893C16.737 18.5461 16.8149 17.7014 17.0131 16.9552L16.9964 16.6872C17.0229 16.3267 17.0534 16.0313 17.088 15.8009C17.1216 15.5542 17.148 15.3242 17.1674 15.111C17.1938 14.7506 17.2462 14.413 17.3245 14.0983C17.5489 14.0354 17.7139 13.9355 17.8195 13.7984C17.9241 13.6451 18.0135 13.5091 18.0876 13.3903C18.314 13.3599 18.4704 13.3828 18.5567 13.459C18.6429 13.5352 18.7323 13.6601 18.8246 13.8337C18.9149 13.9748 19.0225 14.1312 19.1473 14.3028C19.2884 14.4734 19.4838 14.5999 19.7336 14.6822C19.7741 14.8101 19.8233 14.9457 19.8812 15.0888C19.9542 15.2148 20.0283 15.3569 20.1034 15.5153C20.2506 15.7834 20.3825 16.0687 20.4992 16.3713C20.6311 16.6566 20.7137 16.9368 20.7472 17.212C20.6039 17.5308 20.4962 17.8962 20.424 18.3084C20.3681 18.7196 20.337 19.1374 20.3308 19.5617C20.3399 19.9689 20.3728 20.3663 20.4295 20.7542C20.5015 21.1248 20.5943 21.437 20.708 21.6909L20.8739 21.9985L21.2851 21.924C21.7643 21.7637 22.1943 21.5983 22.5751 21.4279C22.9711 21.2401 23.3331 21.0301 23.6611 20.7977C23.9891 20.5652 24.2988 20.3014 24.5903 20.006C24.8807 19.6944 25.1849 19.3411 25.5028 18.9463C25.8207 18.5514 26.0868 18.1108 26.3011 17.6246C26.5307 17.1211 26.7105 16.6043 26.8406 16.0744C26.9869 15.5435 27.0851 15.0237 27.1349 14.515C27.2 13.9891 27.2347 13.4977 27.2389 13.0409C27.509 12.9262 27.6349 12.7227 27.6167 12.4303L27.5513 12.1653C27.4802 12.0719 27.4732 11.9581 27.53 11.8241C27.6083 11.5094 27.8211 11.2597 28.1683 11.075C28.4384 11.2213 28.6769 11.3858 28.884 11.5686C29.1073 11.7504 29.3144 11.9332 29.5052 12.117ZM38.8335 10.2889C39.5208 10.3276 40.1386 10.4278 40.6868 10.5894C41.235 10.7509 41.706 10.9825 42.0998 11.2842C42.385 11.6741 42.656 12.0975 42.9127 12.5545C43.1857 13.0104 43.3953 13.4947 43.5413 14.0075C43.7026 14.503 43.7919 15.0193 43.809 15.5563C43.8423 16.0924 43.7625 16.6437 43.5695 17.2102C43.1348 17.8243 42.5879 18.3394 41.9289 18.7555C41.2851 19.1543 40.5804 19.4917 39.8149 19.7677C39.0493 20.0437 38.2492 20.2891 37.4146 20.5042C36.5962 20.7182 35.7941 20.9312 35.0082 21.1432C35.0477 21.5158 35.0725 21.9138 35.0825 22.3372C35.1078 22.7433 35.093 23.16 35.038 23.5875C34.9983 23.9976 34.9175 24.4022 34.7956 24.8012C34.6737 25.2001 34.501 25.5696 34.2775 25.9097C34.0014 25.9269 33.7191 25.9771 33.4308 26.0603C33.1434 26.1597 32.8875 26.2408 32.6631 26.3037C32.5454 26.2458 32.4358 26.1874 32.3342 26.1285C32.25 26.0848 32.1261 26.0599 31.9627 26.0538C31.985 25.8893 31.9343 25.7294 31.8105 25.574C31.6857 25.4024 31.5608 25.2308 31.436 25.0592C31.3112 24.8876 31.2193 24.7221 31.1605 24.5627C31.1179 24.4022 31.1895 24.2429 31.3753 24.0845C31.2545 23.9779 31.1886 23.8352 31.1775 23.6565C31.279 23.4545 31.3598 23.1804 31.4198 22.8342C31.496 22.487 31.5484 22.1495 31.5769 21.8215C31.6207 21.4764 31.6177 21.1667 31.568 20.8926C31.5183 20.6184 31.3433 20.4255 31.0428 20.3137C31.057 20.2802 31.0885 20.262 31.1372 20.2589C31.1859 20.2559 31.2342 20.2447 31.2819 20.2255C31.1459 20.1361 31.056 20.003 31.0124 19.8264C30.9851 19.6487 30.9186 19.4979 30.813 19.374C30.8405 19.2908 30.8603 19.2162 30.8725 19.1502C30.8847 19.0842 30.94 19.0563 31.0385 19.0665C30.9716 18.7771 30.9544 18.5009 30.9869 18.238C31.0357 17.974 31.1099 17.7248 31.2095 17.4903C31.308 17.2395 31.4314 16.9954 31.5797 16.7579C31.728 16.5203 31.8682 16.2833 32.0002 16.0468C32.1129 16.0235 32.1789 16.0357 32.1982 16.0834C32.2337 16.1301 32.2901 16.1184 32.3673 16.0484C32.5683 15.8728 32.7039 15.6931 32.774 15.5094C32.8441 15.3256 32.8721 15.1201 32.8579 14.8926C32.9504 14.5444 33.0672 14.1947 33.2085 13.8434C33.3487 13.4759 33.5071 13.1399 33.6839 12.8354C33.8606 12.5309 34.0556 12.2578 34.2689 12.0162C34.4984 11.7736 34.7396 11.5874 34.9924 11.4575C35.1772 11.2829 35.4118 11.1215 35.6961 10.9734C35.9794 10.809 36.2896 10.6837 36.6267 10.5975C36.9628 10.495 37.3014 10.4332 37.6425 10.4119C37.9989 10.3734 38.3258 10.3857 38.6233 10.4487C38.7065 10.4762 38.7461 10.4574 38.7421 10.3924C38.7543 10.3264 38.7847 10.2919 38.8335 10.2889ZM38.1969 16.1747C38.5919 15.9708 39.0138 15.8059 39.4626 15.6801C39.9266 15.5371 40.3038 15.3098 40.5943 14.9981C40.3882 14.8316 40.0943 14.695 39.7126 14.5883C39.3299 14.4653 38.9182 14.4013 38.4776 14.3961C38.0369 14.3909 37.5928 14.4593 37.145 14.6013C36.7124 14.7261 36.3428 14.9448 36.0361 15.2574C35.9569 15.5559 35.8903 15.7965 35.8365 15.9792C35.7816 16.1457 35.7049 16.3543 35.6063 16.6051C35.6439 16.6843 35.6967 16.7462 35.7647 16.7909C35.8479 16.8183 35.9083 16.8717 35.9459 16.9509C36.3073 16.7327 36.6744 16.6038 37.047 16.5643C37.4349 16.5076 37.8182 16.3777 38.1969 16.1747ZM56.4153 10.5888C56.4387 10.7015 56.4442 10.7908 56.432 10.8568C56.4351 10.9055 56.43 10.9548 56.4168 11.0045C56.4198 11.0533 56.4233 11.1101 56.4274 11.1751C56.4304 11.2238 56.4517 11.304 56.4913 11.4157C56.1845 11.9893 55.8103 12.3958 55.3686 12.6353C54.9421 12.8575 54.472 13.0336 53.9582 13.1634C53.4435 13.277 52.913 13.3997 52.3667 13.5315C51.8367 13.6624 51.3138 13.9069 50.7979 14.2652C50.5817 14.1971 50.3868 14.2092 50.2131 14.3016C50.0557 14.3929 49.8136 14.4324 49.4867 14.4202C49.3953 14.5237 49.278 14.6044 49.1348 14.6622C48.9906 14.7038 48.847 14.7535 48.7038 14.8114C48.7779 14.9535 48.8118 15.1063 48.8057 15.2698C48.8148 15.416 48.8468 15.5363 48.9016 15.6307C49.4732 15.6441 50.0981 15.597 50.7763 15.4896C51.4708 15.3811 52.1505 15.298 52.8155 15.2403C52.8368 15.3206 52.8323 15.3779 52.8018 15.4124C52.7703 15.4307 52.7647 15.4718 52.785 15.5358C52.9038 15.6099 53.0241 15.7084 53.1459 15.8313C53.2666 15.9379 53.3874 16.0446 53.5082 16.1512C53.629 16.2578 53.7488 16.3482 53.8676 16.4224C54.0016 16.4793 54.1493 16.4945 54.3107 16.4682C54.3838 16.5941 54.4335 16.7378 54.4599 16.8992C54.5014 17.0434 54.4948 17.1987 54.4399 17.3652C54.1911 17.5601 53.9429 17.7631 53.6951 17.9742C53.4463 18.1691 53.1802 18.3487 52.8969 18.5131C52.6299 18.6765 52.3369 18.817 52.0181 18.9347C51.7145 19.0351 51.3673 19.0894 50.9764 19.0974C50.8952 19.1025 50.8302 19.1065 50.7815 19.1095C50.749 19.1116 50.6987 19.0902 50.6307 19.0455C50.5058 19.1348 50.3205 19.1708 50.0748 19.1535C49.8454 19.1352 49.6682 19.1707 49.5433 19.26C49.3596 19.1899 49.1382 19.171 48.8793 19.2035C48.6357 19.2186 48.4143 19.1998 48.2154 19.147C47.9767 19.5043 47.7639 19.8844 47.577 20.2875C47.3901 20.6905 47.229 21.1163 47.0939 21.565C47.6513 21.6119 48.1081 21.6161 48.4645 21.5776C48.8371 21.5381 49.1849 21.492 49.5077 21.4393C49.8296 21.3703 50.1601 21.309 50.4992 21.2552C50.8373 21.1853 51.2668 21.1422 51.7876 21.1261C52.1014 20.9272 52.476 20.7897 52.9116 20.7137C53.3624 20.6204 53.7706 20.4972 54.1361 20.3439C54.2691 20.3846 54.3884 20.4669 54.4939 20.5907C54.5985 20.6984 54.6949 20.8065 54.7832 20.9152C54.8868 21.0066 54.9898 21.0899 55.0923 21.165C55.1948 21.2402 55.3187 21.2651 55.4639 21.2397C55.5329 21.3007 55.5786 21.3794 55.6009 21.4758C55.6384 21.555 55.6678 21.6347 55.6891 21.7149C55.7104 21.7952 55.7394 21.8667 55.7759 21.9297C55.8277 21.9754 55.9018 21.9871 55.9982 21.9648C55.7879 22.516 55.5294 22.948 55.2227 23.2606C54.9313 23.556 54.587 23.7894 54.19 23.9609C53.793 24.1323 53.3452 24.2744 52.8467 24.3869C52.3644 24.4985 51.8263 24.6298 51.2323 24.781C51.0882 24.8225 50.9658 24.822 50.8653 24.7793C50.7658 24.7529 50.6511 24.7438 50.5211 24.7518C50.1526 24.8563 49.7104 24.9572 49.1946 25.0546C48.6788 25.1519 48.1524 25.2091 47.6153 25.2263C47.0782 25.2434 46.562 25.2021 46.0666 25.1025C45.5721 25.0191 45.161 24.8327 44.8331 24.5433C44.6961 24.4377 44.5987 24.3133 44.5408 24.1701C44.4982 24.0097 44.3851 23.8944 44.2013 23.8243C44.1719 23.6141 44.1248 23.3806 44.0599 23.1237C43.995 22.8669 43.9295 22.6019 43.8636 22.3287C43.7967 22.0394 43.7384 21.7576 43.6887 21.4835C43.6553 21.2083 43.6558 20.9555 43.6904 20.7251C43.724 20.4784 43.8078 20.253 43.9419 20.049C44.0922 19.8439 44.1359 19.6292 44.073 19.4048C44.1532 19.3835 44.1994 19.3399 44.2116 19.2739C44.2228 19.1916 44.2858 19.1551 44.4005 19.1643C44.4797 18.8658 44.5681 18.5831 44.6657 18.3161C44.7632 18.0491 44.8613 17.7902 44.9598 17.5395C45.0746 17.2877 45.1813 17.0365 45.2798 16.7857C45.3936 16.5177 45.4977 16.2258 45.5922 15.9101C45.3516 15.7131 45.1669 15.4963 45.038 15.2597C44.9244 15.0058 44.8356 14.7586 44.7717 14.518C44.7068 14.2611 44.65 14.0037 44.6014 13.7458C44.5517 13.4717 44.4776 13.1991 44.3792 12.928C44.5265 12.6742 44.7093 12.4671 44.9276 12.3067C45.1612 12.1291 45.413 11.983 45.6831 11.8683C45.9532 11.7537 46.2487 11.6538 46.5695 11.5686C46.8903 11.4834 47.2269 11.389 47.5793 11.2855C48.2159 11.0339 48.7825 10.8356 49.279 10.6905C49.7917 10.5445 50.2897 10.4238 50.773 10.3284C51.2716 10.2159 51.7868 10.1104 52.3189 10.0121C52.8509 9.91373 53.454 9.77834 54.1282 9.60592C54.2835 9.74302 54.4261 9.80752 54.5561 9.79943C54.612 9.64919 54.6825 9.60403 54.7678 9.66395C54.8683 9.70662 54.9059 9.65535 54.8805 9.51016C55.0602 9.77621 55.2779 9.99912 55.5337 10.1789C55.8047 10.3414 56.0986 10.478 56.4153 10.5888ZM60.2061 21.5806C60.0679 22.2415 59.9363 22.747 59.8113 23.0973C59.7016 23.4303 59.5197 23.784 59.2658 24.1586C59.0526 24.1393 58.9079 24.1727 58.8318 24.259C58.7556 24.3453 58.6708 24.4239 58.5774 24.495C58.4332 24.5366 58.3276 24.5431 58.2606 24.5147C58.1936 24.4863 58.1342 24.4492 58.0825 24.4035C58.0317 24.374 57.9642 24.3375 57.88 24.2938C57.813 24.2653 57.7064 24.2557 57.5602 24.2648C57.5196 24.1368 57.4714 24.0175 57.4156 23.9069C57.376 23.7952 57.2679 23.7611 57.0912 23.8047C57.1156 23.6728 57.1172 23.5667 57.0959 23.4864C57.0735 23.39 57.0441 23.3103 57.0076 23.2473C56.9863 23.1671 56.9655 23.095 56.9452 23.0311C56.9239 22.9508 56.926 22.8529 56.9514 22.7371C56.8702 22.7422 56.8016 22.6894 56.7458 22.5787C56.69 22.468 56.6261 22.3579 56.554 22.2482C56.5846 21.9527 56.6161 21.6736 56.6487 21.4106C56.6812 21.1477 56.7229 20.9005 56.7737 20.669C56.8408 20.4365 56.8916 20.205 56.9262 19.9746C56.9608 19.7441 56.9217 19.5101 56.8091 19.2725C56.8771 19.3172 56.9253 19.306 56.9538 19.239C56.9812 19.1558 56.9995 19.0568 57.0087 18.9421C57.0168 18.8111 57.0174 18.6888 57.0103 18.575C57.0022 18.4451 56.9875 18.34 56.9662 18.2598C57.1024 17.8273 57.2055 17.3888 57.2757 16.9441C57.3611 16.4822 57.4308 16.0294 57.4847 15.5857C57.5548 15.141 57.6255 14.7045 57.6967 14.2761C57.7679 13.8476 57.8736 13.4497 58.0138 13.0822C58.1904 13.0386 58.3869 13.0508 58.6031 13.1189C58.8346 13.1697 58.9782 13.2504 59.034 13.3611C59.4362 13.0099 59.7855 12.5968 60.0821 12.1217C60.3777 11.6304 60.6824 11.1549 60.9962 10.695C61.3101 10.2352 61.6594 9.82205 62.0443 9.45563C62.4454 9.08821 62.9607 8.85229 63.5902 8.74787C63.9303 8.97132 64.3033 9.20086 64.7094 9.43651C65.1307 9.6549 65.4839 9.95906 65.7691 10.349C65.9031 10.4059 66.0132 10.4724 66.0995 10.5486C66.201 10.6075 66.3193 10.6735 66.4543 10.7467L66.4725 11.0391C66.6786 11.2056 66.846 11.4072 66.9749 11.6438C67.119 11.8631 67.2484 12.1078 67.3631 12.3779C67.4767 12.6318 67.5909 12.8937 67.7055 13.1638C67.8192 13.4177 67.9486 13.6624 68.0937 13.898C68.0662 13.9812 68.0546 14.0553 68.0586 14.1203C68.0616 14.169 68.0733 14.2254 68.0936 14.2894C68.1301 14.3523 68.1585 14.4158 68.1788 14.4797C68.1991 14.5437 68.2047 14.633 68.1955 14.7478C68.1913 15.4656 67.9916 16.0569 67.5965 16.5218C67.2177 16.9857 66.745 17.382 66.1784 17.7108C65.6108 18.0234 65.0001 18.2979 64.3462 18.5343C63.6923 18.7707 63.1044 19.0193 62.5824 19.28C62.5865 19.345 62.6129 19.376 62.6616 19.373C62.7266 19.3689 62.7535 19.408 62.7423 19.4902C63.1473 19.7096 63.4681 19.8854 63.7046 20.0174C63.9412 20.1495 64.1599 20.2582 64.3609 20.3435C64.5782 20.4278 64.803 20.5035 65.0355 20.5706C65.2832 20.6204 65.6213 20.6809 66.0497 20.7521C66.4782 20.8232 66.8081 20.8842 67.0396 20.9351C67.2863 20.9686 67.5086 21.0037 67.7066 21.0403C67.9035 21.0607 68.1005 21.081 68.2974 21.1014C68.5096 21.1045 68.8036 21.1106 69.1792 21.1199C69.3345 21.257 69.4675 21.4281 69.5781 21.6332C69.7039 21.821 69.7897 22.0196 69.8353 22.2287C69.8799 22.4216 69.9002 22.6161 69.8961 22.812C69.8909 22.9917 69.8432 23.1414 69.7528 23.2612C69.7721 23.3089 69.8061 23.3313 69.8548 23.3283C69.9188 23.308 69.9838 23.3039 70.0498 23.3161C69.9563 23.3872 69.8802 23.4734 69.8213 23.575C69.7623 23.6765 69.7034 23.778 69.6445 23.8795C69.5856 23.981 69.5176 24.0668 69.4404 24.1368C69.3642 24.2231 69.2535 24.2789 69.1083 24.3042C68.6169 24.5305 67.9839 24.5781 67.2092 24.4469C66.4356 24.332 65.4499 24.0835 64.2519 23.7015C63.653 23.5104 63.1616 23.3453 62.7779 23.2061C62.4094 23.0497 62.082 22.8989 61.7957 22.7536C61.5247 22.5911 61.2694 22.4194 61.0298 22.2387C60.8065 22.0569 60.532 21.8375 60.2061 21.5806ZM63.1703 13.0058C63.0078 13.2769 62.8194 13.525 62.6052 13.7504C62.4071 13.9747 62.2096 14.2071 62.0126 14.4477C61.8308 14.671 61.6673 14.9258 61.522 15.2121C61.3757 15.4821 61.2812 15.7978 61.2385 16.1593C61.803 16.0589 62.3863 15.8677 62.9885 15.5856C63.5896 15.2872 64.1592 15.0072 64.6974 14.7454C64.6011 14.2458 64.3971 13.8508 64.0855 13.5604C63.7901 13.2689 63.4851 13.0841 63.1703 13.0058ZM89.3148 22.3616C89.0559 22.394 88.7305 22.4061 88.3386 22.3979C87.9629 22.3886 87.6172 22.4672 87.3014 22.6337C86.4384 22.6548 85.5547 22.6038 84.6501 22.4807C83.7455 22.3576 82.9115 22.1894 82.1481 21.976C81.9745 21.8074 81.8019 21.6551 81.6304 21.519C81.4578 21.3666 81.2315 21.2666 80.9513 21.2188C80.5422 20.9344 80.2021 20.5805 79.9312 20.1571C79.6592 19.7174 79.4344 19.2503 79.2569 18.7558C79.0793 18.2613 78.95 17.7557 78.8689 17.2389C78.7868 16.7059 78.7387 16.1952 78.7246 15.7068C78.9228 14.9607 79.225 14.314 79.6313 13.7669C80.0527 13.2025 80.4829 12.6457 80.9216 12.0966C81.1267 11.986 81.275 11.8789 81.3664 11.7753C81.473 11.6546 81.5806 11.55 81.6893 11.4617C81.8132 11.3562 81.9295 11.2592 82.0381 11.1709C82.162 11.0654 82.2686 10.9446 82.358 10.8086C82.6941 10.7061 82.9794 10.5742 83.214 10.4128C83.4638 10.2342 83.7055 10.0561 83.939 9.87846C84.1716 9.6846 84.4133 9.50648 84.6641 9.3441C84.9149 9.18172 85.2083 9.0493 85.5444 8.94684C85.6653 8.79255 85.8125 8.66924 85.9861 8.57689C86.1588 8.4683 86.3319 8.36783 86.5055 8.27549C86.6944 8.16588 86.867 8.05729 87.0234 7.94972C87.196 7.84112 87.326 7.70257 87.4134 7.53406C87.5027 7.65896 87.6194 7.70062 87.7636 7.65903C87.9068 7.60119 88.0418 7.54386 88.1687 7.48704C88.249 7.46574 88.315 7.47794 88.3667 7.52364C88.4347 7.56833 88.4946 7.61353 88.5464 7.65923C88.5982 7.70493 88.6408 7.73489 88.6743 7.74911C88.723 7.74608 88.7611 7.70294 88.7885 7.61969C88.8698 7.61464 88.8967 7.65373 88.8692 7.73698C88.8418 7.82022 88.821 7.87859 88.8067 7.91209C88.9357 7.88776 89.0433 7.91368 89.1296 7.98984C89.2311 8.04876 89.3798 8.08027 89.5758 8.08438C89.6458 8.16156 89.6661 8.22552 89.6366 8.27628C89.6062 8.31079 89.594 8.37678 89.6 8.47425C90.0965 8.59012 90.4198 8.80645 90.57 9.12325C90.7191 9.42381 90.7475 9.7482 90.655 10.0964C90.5625 10.4446 90.3792 10.774 90.105 11.0846C89.8308 11.3952 89.5261 11.6099 89.1911 11.7286C88.4245 11.9883 87.7 12.2699 87.0177 12.5733C86.3506 12.8594 85.8129 13.2598 85.4046 13.7744C85.0218 13.9124 84.6822 14.0885 84.3856 14.3026C84.1044 14.4995 83.8332 14.7284 83.5722 14.9892C83.3265 15.2328 83.0899 15.4922 82.8624 15.7673C82.6501 16.0251 82.4216 16.2839 82.1769 16.5438C82.2073 16.7702 82.1778 16.9514 82.0884 17.0874C82.0142 17.2062 81.9406 17.3331 81.8675 17.4681C81.9151 17.7097 81.9856 17.9255 82.079 18.1154C82.1713 18.289 82.2718 18.4622 82.3804 18.6348C83.4728 18.8929 84.6225 19.0252 85.8297 19.0316C87.0531 19.037 88.2745 19.0099 89.4938 18.9503C89.6176 19.1057 89.7572 19.2519 89.9125 19.389C90.083 19.5089 90.2383 19.646 90.3784 19.8003C90.5175 19.9384 90.6337 20.1024 90.727 20.2923C90.8194 20.4659 90.8498 20.6923 90.8182 20.9715C90.606 21.2294 90.3683 21.4725 90.1053 21.7008C89.8413 21.913 89.5778 22.1332 89.3148 22.3616ZM105.743 13.9517C105.739 14.1476 105.767 14.3334 105.827 14.5091C105.886 14.6847 105.954 14.8599 106.031 15.0345C106.122 15.1919 106.206 15.3579 106.282 15.5326C106.358 15.7072 106.418 15.8829 106.461 16.0596C106.508 16.285 106.524 16.5367 106.508 16.8149C106.492 17.0769 106.451 17.3403 106.386 17.6053C106.32 17.854 106.229 18.088 106.112 18.3073C105.994 18.5103 105.849 18.6661 105.676 18.7747C105.467 19.0813 105.205 19.3259 104.89 19.5085C104.575 19.6912 104.287 19.9049 104.025 20.1495C103.853 20.2743 103.655 20.3682 103.431 20.4311C103.223 20.4929 103.007 20.5553 102.782 20.6182C102.61 20.7268 102.405 20.8455 102.168 20.9744C101.931 21.087 101.685 21.2002 101.431 21.3138C101.176 21.4112 100.921 21.4924 100.664 21.5573C100.406 21.606 100.179 21.6282 99.9829 21.6241C99.5067 21.8332 99.0346 21.9767 98.5665 22.0548C98.1157 22.1481 97.5776 22.1489 96.9522 22.0574C96.3725 22.175 95.8268 22.1845 95.3151 22.0859C94.8197 21.9863 94.3684 21.8105 93.9614 21.5587C93.5695 21.2895 93.2153 20.9691 92.8986 20.5974C92.5972 20.2085 92.3435 19.8003 92.1375 19.3728C91.9499 18.455 91.9303 17.6163 92.0787 16.857C92.2261 16.0813 92.4588 15.3656 92.7768 14.7098C93.1099 14.0368 93.4954 13.4176 93.9331 12.8522C94.3698 12.2705 94.7913 11.7062 95.1976 11.159C95.297 11.1855 95.3702 11.1809 95.4169 11.1454C95.4788 11.0926 95.5321 11.0322 95.5768 10.9642C95.6205 10.8799 95.6647 10.8038 95.7094 10.7358C95.7703 10.6668 95.8409 10.6216 95.9211 10.6003C96.0196 10.3496 96.171 10.1608 96.3751 10.0339C96.5944 9.88979 96.762 9.69997 96.8778 9.46446C97.0219 9.42287 97.1407 9.36655 97.2342 9.29551C97.3276 9.22446 97.4124 9.1458 97.4885 9.05952C97.581 8.97223 97.6739 8.89306 97.7673 8.82202C97.8597 8.73473 97.9699 8.67079 98.0978 8.63022L98.0811 8.36218C98.3654 8.21402 98.5675 8.05468 98.6874 7.88414C98.8224 7.69635 98.9799 7.47455 99.1596 7.21875C99.3048 7.1934 99.418 7.1782 99.4993 7.17315C99.5967 7.16708 99.7338 7.14224 99.9105 7.09863C100.026 6.86312 100.129 6.68547 100.22 6.56569C100.326 6.4449 100.481 6.31295 100.684 6.16985C100.885 6.25519 101.101 6.30702 101.33 6.32535C101.576 6.34267 101.793 6.43512 101.983 6.60269C102.01 6.76412 102.066 6.89105 102.154 6.98346C102.24 7.05962 102.334 7.13529 102.437 7.21044C102.538 7.26935 102.632 7.33689 102.719 7.41306C102.821 7.48822 102.893 7.59788 102.935 7.74206C103.001 7.75426 103.041 7.74361 103.055 7.71011C103.086 7.6756 103.134 7.66445 103.2 7.67665C103.263 7.90104 103.329 8.05182 103.399 8.129C103.468 8.18993 103.542 8.32397 103.62 8.5311C103.549 8.6986 103.494 8.87322 103.457 9.05494C103.434 9.21941 103.345 9.34731 103.187 9.43865C103.178 9.55337 103.215 9.61633 103.297 9.62751C103.378 9.62246 103.429 9.66004 103.451 9.74025C103.476 9.88544 103.458 9.99255 103.397 10.0616C103.826 10.6708 104.218 11.3233 104.571 12.0188C104.923 12.6981 105.314 13.3424 105.743 13.9517ZM102.841 16.4561C102.895 16.2734 102.967 16.1221 103.058 16.0023C103.164 15.8816 103.219 15.7069 103.221 15.4785C103.131 15.3536 103.077 15.2592 103.056 15.1952C103.035 15.115 103.019 14.9937 103.009 14.8312C102.62 14.3499 102.278 13.833 101.983 13.2806C101.687 12.712 101.361 12.186 101.004 11.7027C100.976 11.7697 100.923 11.8382 100.846 11.9082C100.769 11.9782 100.678 11.9676 100.575 11.8762C100.55 12.0081 100.5 12.1091 100.422 12.1792C100.344 12.233 100.256 12.2629 100.159 12.269C100.06 12.2588 99.9533 12.241 99.8376 12.2156C99.7371 12.1729 99.6442 12.1216 99.5589 12.0617C99.1111 12.4646 98.6628 12.8595 98.2139 13.2462C97.7651 13.6329 97.3685 14.0734 97.0242 14.5678C96.9612 14.6043 96.9216 14.6231 96.9054 14.6241C96.8881 14.6088 96.8399 14.62 96.7607 14.6575C96.65 14.9743 96.5052 15.2687 96.3264 15.5407C96.1629 15.7955 95.9999 16.0584 95.8374 16.3295C95.6749 16.6005 95.5377 16.8863 95.426 17.1868C95.3142 17.4872 95.2624 17.8329 95.2704 18.2238C95.5607 18.4341 95.8942 18.5519 96.2709 18.5774C96.6475 18.6029 97.0298 18.5872 97.4176 18.5305C97.8217 18.4727 98.2085 18.3997 98.5781 18.3115C98.9629 18.206 99.3178 18.1431 99.6427 18.1229C100.315 17.918 100.887 17.6704 101.358 17.3801C101.828 17.0737 102.322 16.7656 102.841 16.4561ZM121.435 12.9749C121.431 13.1708 121.459 13.3566 121.519 13.5323C121.579 13.708 121.647 13.8831 121.723 14.0578C121.814 14.2151 121.898 14.3812 121.974 14.5558C122.05 14.7305 122.11 14.9061 122.154 15.0828C122.2 15.3082 122.216 15.56 122.201 15.8382C122.184 16.1001 122.144 16.3635 122.079 16.6285C122.012 16.8772 121.921 17.1112 121.804 17.3305C121.686 17.5335 121.541 17.6893 121.369 17.7979C121.159 18.1045 120.897 18.3491 120.583 18.5318C120.268 18.7144 119.979 18.9281 119.717 19.1727C119.546 19.2975 119.348 19.3914 119.123 19.4543C118.915 19.5162 118.699 19.5785 118.475 19.6414C118.302 19.75 118.097 19.8688 117.861 19.9976C117.623 20.1103 117.377 20.2234 117.124 20.3371C116.869 20.4345 116.613 20.5156 116.356 20.5805C116.098 20.6292 115.871 20.6515 115.675 20.6474C115.199 20.8564 114.727 20.9999 114.259 21.078C113.808 21.1713 113.27 21.1722 112.645 21.0806C112.065 21.1982 111.519 21.2078 111.007 21.1091C110.512 21.0095 110.061 20.8338 109.654 20.5819C109.262 20.3127 108.908 19.9923 108.591 19.6207C108.289 19.2317 108.036 18.8235 107.83 18.396C107.642 17.4782 107.623 16.6396 107.771 15.8802C107.918 15.1046 108.151 14.3888 108.469 13.7331C108.802 13.06 109.188 12.4408 109.625 11.8754C110.062 11.2938 110.484 10.7294 110.89 10.1823C110.989 10.2087 111.062 10.2041 111.109 10.1686C111.171 10.1158 111.224 10.0554 111.269 9.98742C111.313 9.90316 111.357 9.82703 111.402 9.75902C111.463 9.68999 111.533 9.64483 111.613 9.62353C111.712 9.37278 111.863 9.18398 112.067 9.05712C112.287 8.91301 112.454 8.7232 112.57 8.48768C112.714 8.44609 112.833 8.38978 112.926 8.31873C113.02 8.24769 113.105 8.16902 113.181 8.08275C113.273 7.99546 113.366 7.91629 113.46 7.84524C113.552 7.75795 113.662 7.69402 113.79 7.65344L113.773 7.3854C114.058 7.23725 114.26 7.0779 114.38 6.90736C114.515 6.71957 114.672 6.49778 114.852 6.24197C114.997 6.21663 115.11 6.20143 115.192 6.19637C115.289 6.19031 115.426 6.16547 115.603 6.12185C115.719 5.88634 115.822 5.70869 115.912 5.58892C116.019 5.46813 116.174 5.33618 116.377 5.19308C116.578 5.27841 116.793 5.33024 117.022 5.34858C117.268 5.3659 117.486 5.45834 117.676 5.62591C117.702 5.78735 117.759 5.91427 117.846 6.00668C117.932 6.08285 118.027 6.15851 118.129 6.23367C118.231 6.29258 118.325 6.36012 118.411 6.43629C118.513 6.51144 118.585 6.62111 118.627 6.76529C118.693 6.77749 118.733 6.76684 118.747 6.73334C118.778 6.69883 118.826 6.68767 118.892 6.69987C118.955 6.92426 119.021 7.07505 119.091 7.15222C119.16 7.21316 119.234 7.34719 119.312 7.55433C119.241 7.72183 119.187 7.89644 119.149 8.07817C119.127 8.24263 119.037 8.37054 118.879 8.46187C118.87 8.57659 118.907 8.63955 118.989 8.65074C119.07 8.64568 119.122 8.68326 119.143 8.76347C119.168 8.90866 119.15 9.01577 119.089 9.08479C119.519 9.69406 119.91 10.3465 120.263 11.042C120.615 11.7213 121.006 12.3656 121.435 12.9749ZM118.533 15.4793C118.587 15.2966 118.659 15.1453 118.75 15.0256C118.856 14.9048 118.911 14.7302 118.913 14.5017C118.824 14.3768 118.769 14.2824 118.749 14.2184C118.727 14.1382 118.712 14.0169 118.701 13.8544C118.313 13.3731 117.971 12.8562 117.675 12.3039C117.379 11.7352 117.053 11.2092 116.697 10.7259C116.668 10.7929 116.615 10.8614 116.538 10.9314C116.461 11.0015 116.371 10.9908 116.267 10.8994C116.243 11.0314 116.192 11.1324 116.115 11.2024C116.036 11.2562 115.949 11.2861 115.851 11.2922C115.753 11.282 115.646 11.2642 115.53 11.2388C115.429 11.1961 115.336 11.1448 115.251 11.0849C114.803 11.4879 114.355 11.8827 113.906 12.2694C113.457 12.6561 113.061 13.0966 112.716 13.591C112.654 13.6275 112.614 13.6463 112.598 13.6473C112.58 13.6321 112.532 13.6432 112.453 13.6808C112.342 13.9975 112.197 14.2919 112.019 14.5639C111.855 14.8187 111.692 15.0817 111.53 15.3527C111.367 15.6237 111.23 15.9095 111.118 16.21C111.007 16.5105 110.955 16.8562 110.963 17.247C111.253 17.4573 111.586 17.5751 111.963 17.6006C112.34 17.6261 112.722 17.6104 113.11 17.5537C113.514 17.4959 113.901 17.4229 114.27 17.3347C114.655 17.2292 115.01 17.1663 115.335 17.1461C116.007 16.9412 116.579 16.6936 117.05 16.4034C117.52 16.0969 118.015 15.7889 118.533 15.4793ZM129.793 19.524C129.347 19.6985 128.861 19.8755 128.334 20.0551C127.807 20.2347 127.275 20.3412 126.739 20.3745C125.927 20.4251 125.273 20.262 124.776 19.8852C124.684 19.7115 124.603 19.5943 124.534 19.5333C124.481 19.4714 124.429 19.4094 124.376 19.3475C124.338 19.2683 124.307 19.1642 124.283 19.0353C124.074 18.82 123.904 18.5697 123.772 18.2843C123.639 17.9828 123.538 17.6792 123.47 17.3736C123.418 17.0507 123.389 16.7263 123.385 16.4004C123.398 16.0735 123.435 15.7613 123.498 15.4638C123.527 15.3968 123.539 15.3309 123.535 15.2659C123.547 15.1999 123.559 15.1258 123.57 15.0435C123.619 14.7796 123.668 14.5237 123.718 14.276C123.784 14.0273 123.876 13.8096 123.995 13.6228C123.921 13.4806 123.911 13.3182 123.965 13.1354C124.019 12.9527 124.082 12.7857 124.154 12.6345C124.343 12.003 124.497 11.4715 124.617 11.0401C124.752 10.5914 124.888 10.1508 125.024 9.7183C125.255 8.97011 125.47 8.23104 125.669 7.50111C125.868 6.77118 126.039 5.98591 126.183 5.14531C126.308 5.05599 126.401 4.99307 126.464 4.95654C126.56 4.91798 126.64 4.88856 126.704 4.86827C127.005 4.99627 127.355 5.12124 127.754 5.24317C128.152 5.34886 128.481 5.39362 128.741 5.37744C128.876 5.45057 128.961 5.51049 128.997 5.5572C129.031 5.58767 129.066 5.61814 129.1 5.64861C129.292 5.84866 129.46 6.05836 129.604 6.27769C129.747 6.48078 129.806 6.76254 129.779 7.12295C129.691 7.27522 129.622 7.35287 129.574 7.3559C129.513 7.68585 129.44 7.96757 129.357 8.20106C129.29 8.43354 129.215 8.66653 129.132 8.90002C129.033 9.15077 128.943 9.40101 128.86 9.65074C128.778 9.90048 128.715 10.2061 128.673 10.5675C128.613 10.6528 128.569 10.7289 128.54 10.7959C128.528 10.8619 128.508 10.9365 128.481 11.0197C128.453 11.103 128.418 11.1949 128.376 11.2954C128.348 11.3786 128.296 11.4552 128.219 11.5253C128.196 11.9507 128.136 12.2969 128.039 12.5639C127.957 12.8298 127.868 13.0963 127.77 13.3633C127.605 13.8465 127.455 14.3288 127.322 14.81C127.205 15.2902 127.15 15.8318 127.154 16.4349C127.234 16.3973 127.306 16.3765 127.371 16.3725C127.452 16.3674 127.525 16.3629 127.59 16.3588C127.736 16.3497 127.908 16.3635 128.106 16.4001C128.577 16.1098 129.096 15.9226 129.661 15.8385C130.243 15.7534 130.818 15.685 131.385 15.6334C131.613 15.6192 131.84 15.6051 132.068 15.5909C132.295 15.5767 132.505 15.5474 132.698 15.5027C132.849 15.5749 132.942 15.618 132.975 15.6322C133.024 15.6292 133.089 15.6252 133.17 15.6201C133.284 15.613 133.382 15.6151 133.464 15.6263C133.67 15.7928 133.865 15.9112 134.049 15.9813C134.232 16.0514 134.424 16.1128 134.623 16.1657C134.806 16.2195 134.981 16.282 135.148 16.3531C135.331 16.407 135.508 16.4938 135.678 16.6137L135.914 17.6508C136.037 17.79 136.092 17.8844 136.078 17.9341C136.086 18.0641 136.06 18.1636 135.999 18.2326L136.064 18.4976C135.824 18.5615 135.657 18.629 135.563 18.7C135.486 18.7701 135.41 18.8482 135.333 18.9345C135.204 18.9588 135.107 18.973 135.042 18.9771C134.994 18.9801 134.945 18.9831 134.896 18.9862C134.669 19.0003 134.395 19.0581 134.075 19.1596C133.628 19.0407 133.168 18.9959 132.697 19.0252C132.518 19.0363 132.332 19.0561 132.138 19.0845C131.944 19.1128 131.75 19.1412 131.556 19.1696C131.364 19.2142 131.162 19.2512 130.952 19.2806C130.758 19.309 130.555 19.3298 130.344 19.3429L129.793 19.524ZM142.363 2.18126C142.372 2.32746 142.359 2.50767 142.323 2.72188C142.304 2.93508 142.284 3.14829 142.265 3.36149C142.246 3.57469 142.25 3.77013 142.277 3.94781C142.303 4.10925 142.383 4.21029 142.516 4.25093C142.277 5.13009 142.119 5.86562 142.042 6.4575C141.981 7.04838 141.926 7.61438 141.878 8.1555C141.846 8.67938 141.791 9.23725 141.714 9.82914C141.636 10.421 141.478 11.1484 141.238 12.0113C141.092 12.5423 140.895 12.9214 140.648 13.1488C140.4 13.3599 140.13 13.4746 139.838 13.4928C139.546 13.511 139.24 13.4485 138.921 13.3052C138.602 13.162 138.307 13.001 138.035 12.8222C137.967 12.5166 137.936 12.1435 137.941 11.7029C137.961 11.245 137.989 10.7704 138.023 10.279C138.058 9.7876 138.094 9.32058 138.132 8.87793C138.169 8.41904 138.194 8.03426 138.207 7.72359C138.358 7.53479 138.463 7.38151 138.521 7.26375C138.579 7.14599 138.612 7.02163 138.62 6.89066C138.644 6.75869 138.658 6.59472 138.663 6.39878C138.667 6.20283 138.69 5.92414 138.733 5.56272C138.754 5.382 138.728 5.22869 138.655 5.10278C138.597 4.95961 138.581 4.82204 138.605 4.69006C138.634 4.62306 138.679 4.57129 138.742 4.53476C138.821 4.49721 138.867 4.43732 138.878 4.35509C138.93 4.13986 138.936 3.97641 138.896 3.86472C138.856 3.73678 138.87 3.58094 138.94 3.3972C139.014 3.26218 139.098 3.05306 139.195 2.76982C139.307 2.46933 139.337 2.16577 139.285 1.85915C139.424 1.73633 139.554 1.59778 139.675 1.44349C139.796 1.2892 139.918 1.15116 140.041 1.02935C140.179 0.890297 140.326 0.775101 140.484 0.683766C140.658 0.59142 140.866 0.537664 141.11 0.522497C141.251 0.693098 141.359 0.857599 141.434 1.016C141.509 1.1744 141.576 1.32519 141.633 1.46835C141.708 1.61051 141.797 1.74353 141.903 1.86742C142.008 1.99131 142.162 2.09593 142.363 2.18126ZM140.813 16.1962C140.854 16.3241 140.886 16.4444 140.909 16.5571C140.933 16.6698 140.956 16.7907 140.981 16.9196C140.905 17.2668 140.818 17.582 140.722 17.8653C140.68 17.982 140.652 18.0571 140.638 18.0906C140.624 18.1241 140.617 18.149 140.618 18.1653C140.619 18.1815 140.629 18.2054 140.647 18.2368C140.664 18.2521 140.676 18.3165 140.683 18.4303L140.58 18.7302C140.506 18.849 140.414 18.9444 140.304 19.0165C140.211 19.0875 140.109 19.151 139.998 19.2068C139.951 19.2423 139.896 19.2702 139.832 19.2905C139.785 19.326 139.747 19.361 139.716 19.3955L139.661 19.6925L139.323 19.7625C139.067 19.8436 138.834 19.8908 138.623 19.9039L138.355 19.9206C138.148 19.754 137.986 19.6256 137.866 19.5352C137.746 19.4448 137.61 19.3635 137.459 19.2914C137.261 18.9939 137.139 18.7324 137.092 18.507C137.047 18.2979 136.998 18.1623 136.945 18.1004L136.582 17.7805L136.861 17.543L136.54 17.0982C136.726 16.9399 136.865 16.8252 136.959 16.7541C137.052 16.6831 137.129 16.613 137.19 16.544C137.267 16.4577 137.342 16.3552 137.416 16.2364C137.49 16.1177 137.608 15.9228 137.771 15.6517L137.97 15.3213L138.273 15.4737C138.358 15.5174 138.507 15.557 138.721 15.5926C138.951 15.6109 139.148 15.6313 139.312 15.6536C139.577 15.7187 139.833 15.768 140.08 15.8016C140.341 15.8179 140.55 15.8865 140.704 16.0073L140.813 16.1962Z" fill="black"/>
</svg>
