<svg width="139" height="28" viewBox="0 0 139 28" fill="none" xmlns="http://www.w3.org/2000/svg">
<path d="M1.4 0.0626462C0.800002 -0.137354 0.300002 0.162647 0.100002 0.662647C0.100002 0.762647 0 0.962646 0 1.06265C0 1.86265 0.600002 2.56265 1.4 2.76265L13.9 6.16265V3.46265L1.4 0.0626462Z" fill="white"/>
<path d="M1.4 5.56265C0.800002 5.36265 0.300002 5.66265 0.100002 6.16265C0.100002 6.26265 0 6.46265 0 6.56265C0 7.36265 0.600002 8.06265 1.4 8.26265L13.9 11.6626V8.96265L1.4 5.56265Z" fill="white"/>
<path d="M9.0001 12.9626C8.4001 12.7626 7.9001 13.0626 7.7001 13.5626C7.7001 13.6626 7.6001 13.8626 7.6001 13.9626C7.6001 14.7626 8.2001 15.4626 8.9001 15.6626L13.9001 16.9626V14.2626L9.0001 12.9626Z" fill="white"/>
<path d="M9.0001 18.4626C8.4001 18.2626 7.9001 18.5626 7.7001 19.0626C7.7001 19.1626 7.6001 19.3626 7.6001 19.4626C7.6001 20.2626 8.2001 20.9626 8.9001 21.1626L13.9001 22.4626V19.7626L9.0001 18.4626Z" fill="white"/>
<path d="M9.0001 23.8626C8.4001 23.6626 7.9001 23.9626 7.7001 24.4626C7.7001 24.5626 7.6001 24.7626 7.6001 24.8626C7.6001 25.6626 8.2001 26.3626 8.9001 26.5626L13.9001 27.8626V25.1626L9.0001 23.8626Z" fill="white"/>
<path d="M22.818 20.0886C23.618 19.8886 24.118 19.1886 24.118 18.3886C24.118 17.7886 23.718 17.3886 23.218 17.3886C23.118 17.3886 22.918 17.3886 22.818 17.4886L13.918 19.8886V22.5886L22.818 20.0886Z" fill="white"/>
<path d="M22.818 9.18864C23.618 8.98864 24.118 8.28865 24.118 7.48865C24.118 6.88865 23.718 6.48865 23.218 6.38865C23.118 6.38865 22.918 6.38865 22.818 6.48865L13.918 8.88865V11.5886L22.818 9.18864Z" fill="white"/>
<path d="M26.6999 12.2626C28.3999 10.6626 29.2999 8.46265 29.3999 6.06265C29.3999 2.36265 26.3999 0.0626489 22.5999 1.06265L13.8999 3.36265V6.06265L22.6999 3.66265C24.2999 3.06265 25.9999 3.96265 26.5999 5.46265C26.6999 5.86265 26.7999 6.26265 26.7999 6.66265C26.6999 9.06265 25.0999 11.0626 22.7999 11.7626L13.9999 14.1626V16.8626L22.8999 14.4626C24.4999 13.9626 26.1999 14.7626 26.6999 16.3626C26.7999 16.7626 26.8999 17.0626 26.7999 17.4626C26.6999 19.8626 24.9999 21.9626 22.6999 22.6626L13.9999 24.9626V27.6626L22.6999 25.3626C26.5999 24.2626 29.2999 20.7626 29.4999 16.7626C29.4999 14.9626 28.4999 13.1626 26.6999 12.2626Z" fill="white"/>
<path d="M48.187 5.45667H34.987C34.787 5.45667 34.687 5.55666 34.687 5.75666V7.55667C34.687 7.75667 34.787 7.85666 34.987 7.85666H40.287V22.1567C40.287 22.3567 40.387 22.4567 40.587 22.4567H42.587C42.787 22.4567 42.887 22.3567 42.887 22.1567V7.85666H48.187C48.387 7.85666 48.487 7.75667 48.487 7.55667V5.75666C48.587 5.55666 48.387 5.45667 48.187 5.45667Z" fill="white"/>
<path d="M73.387 9.35666H71.587C71.387 9.35666 71.287 9.45666 71.287 9.65666V10.3567C70.087 9.55666 68.587 9.05667 67.187 9.05667C63.287 9.05667 60.687 11.7567 60.687 15.8567C60.687 20.0567 63.287 22.7567 67.287 22.7567C68.687 22.7567 70.187 22.3567 71.287 21.4567V22.1567C71.287 22.3567 71.387 22.4567 71.587 22.4567H73.387C73.587 22.4567 73.687 22.3567 73.687 22.1567V9.65666C73.687 9.45666 73.587 9.35666 73.387 9.35666ZM71.287 13.2567V18.3567C70.387 19.5567 68.987 20.3567 67.387 20.2567C64.787 20.2567 63.187 18.5567 63.187 15.7567C63.187 13.0567 64.787 11.3567 67.287 11.3567C68.887 11.4567 70.287 12.0567 71.287 13.2567Z" fill="white"/>
<path d="M77.187 5.45667C77.887 5.45667 78.487 6.05666 78.487 6.75666V21.2567C78.487 21.9567 77.887 22.5567 77.187 22.5567C76.487 22.5567 75.887 21.9567 75.887 21.2567V6.75666C75.887 6.05666 76.487 5.45667 77.187 5.45667Z" fill="white"/>
<path d="M102.587 9.05667C98.387 9.05667 95.387 11.8567 95.387 15.8567C95.387 19.8567 98.287 22.7567 102.587 22.7567C106.887 22.7567 109.687 19.9567 109.687 15.8567C109.787 11.8567 106.787 9.05667 102.587 9.05667ZM107.187 15.8567C107.287 18.3567 105.287 20.4567 102.787 20.5567C100.287 20.6567 98.187 18.6567 98.087 16.1567C97.987 13.6567 99.987 11.5567 102.487 11.4567H102.587C104.987 11.3567 106.987 13.1567 107.087 15.5567C107.187 15.5567 107.187 15.7567 107.187 15.8567Z" fill="white"/>
<path d="M102.587 9.05667C98.387 9.05667 95.387 11.8567 95.387 15.8567C95.387 19.8567 98.287 22.7567 102.587 22.7567C106.887 22.7567 109.687 19.9567 109.687 15.8567C109.787 11.8567 106.787 9.05667 102.587 9.05667ZM107.187 15.8567C107.287 18.3567 105.287 20.4567 102.787 20.5567C100.287 20.6567 98.187 18.6567 98.087 16.1567C97.987 13.6567 99.987 11.5567 102.487 11.4567H102.587C104.987 11.3567 106.987 13.1567 107.087 15.5567C107.187 15.5567 107.187 15.7567 107.187 15.8567Z" fill="white"/>
<path d="M117.587 9.05667C113.387 9.05667 110.387 11.8567 110.387 15.8567C110.387 19.8567 113.287 22.7567 117.587 22.7567C121.887 22.7567 124.687 19.9567 124.687 15.8567C124.687 11.8567 121.787 9.05667 117.587 9.05667ZM122.087 15.8567C122.187 18.3567 120.187 20.4567 117.687 20.5567C115.187 20.6567 113.087 18.6567 112.987 16.1567C112.887 13.6567 114.887 11.5567 117.387 11.4567H117.487C119.887 11.3567 121.887 13.1567 121.987 15.5567C122.087 15.5567 122.087 15.7567 122.087 15.8567Z" fill="white"/>
<path d="M138.387 21.9567L133.587 14.3567L138.087 9.75667C138.187 9.65667 138.187 9.45666 138.087 9.25666C137.987 9.15666 137.987 9.15666 137.887 9.15666H135.387C135.287 9.15666 135.187 9.15666 135.187 9.25666L128.487 16.1567V5.75666C128.487 5.55666 128.387 5.45667 128.187 5.45667H126.387C126.187 5.45667 126.087 5.55666 126.087 5.75666V22.1567C126.087 22.3567 126.187 22.4567 126.387 22.4567H128.187C128.387 22.4567 128.487 22.3567 128.487 22.1567V19.6567L131.887 16.2567L135.687 22.2567C135.787 22.3567 135.887 22.3567 135.987 22.3567H138.287C138.487 22.3567 138.587 22.2567 138.587 22.0567C138.387 22.0567 138.387 22.0567 138.387 21.9567Z" fill="white"/>
<path d="M91.987 13.8567H91.787L91.987 13.7567C93.187 12.9567 93.887 11.5567 93.787 10.0567C93.787 8.35667 93.087 5.45667 88.187 5.45667H80.987C80.787 5.45667 80.687 5.55666 80.687 5.75666V13.9567V22.1567C80.687 22.3567 80.787 22.4567 80.987 22.4567H88.887C93.787 22.4567 94.487 19.5567 94.487 17.8567C94.487 16.2567 93.987 14.5567 91.987 13.8567ZM83.287 7.85666H88.287C89.587 7.85666 91.187 8.35667 91.187 10.0567C91.187 11.7567 90.187 12.6567 87.987 12.6567H83.387L83.287 7.85666ZM88.987 20.0567H83.287V15.1567H88.587C90.887 15.1567 91.787 16.0567 91.787 17.8567C91.787 19.6567 90.287 20.0567 88.987 20.0567Z" fill="white"/>
<path d="M57.4869 18.5567C57.3869 18.4567 57.1869 18.4567 57.0869 18.5567C56.0869 19.7567 54.5869 20.3567 53.0869 20.3567C51.4869 20.4567 49.8869 19.5567 49.0869 18.1567C52.0869 17.3567 56.6869 16.1567 59.4869 15.3567C59.4869 14.2567 58.9869 9.05667 52.7869 9.05667C48.5869 9.05667 46.0869 12.0567 46.0869 15.8567C46.0869 20.0567 48.7869 22.6567 52.9869 22.7567C55.2869 22.9567 57.4869 21.9567 58.9869 20.1567C59.0869 20.0567 59.0869 19.8567 58.8869 19.7567L57.4869 18.5567ZM52.6869 11.3567C54.3869 11.1567 56.0869 12.1567 56.5869 13.8567L48.4869 16.0567C48.1869 13.7567 49.8869 11.6567 52.1869 11.4567C52.3869 11.3567 52.4869 11.3567 52.6869 11.3567Z" fill="white"/>
</svg>
