<svg width="90" height="123" viewBox="0 0 90 123" fill="none" xmlns="http://www.w3.org/2000/svg">
<g clip-path="url(#clip0_1742_5028)">
<path d="M11.5221 117.287C11.5511 117.374 11.6092 117.475 11.5947 117.547C11.435 119.134 8.66334 122.423 7.13964 122.841C6.70429 122.957 6.22542 123.231 6.00774 122.538C5.93519 122.293 5.74654 122.062 5.49984 122.235C4.44051 122.957 3.43922 121.817 2.4089 122.163C2.33635 122.192 2.22026 122.163 2.13319 122.134C1.01581 121.803 -0.406316 118.874 0.0870731 117.778C0.928737 115.917 1.85747 114.099 2.68462 112.252C5.20961 106.597 7.66205 100.913 10.2451 95.2724C15.7739 83.1686 22.188 71.5408 29.1825 60.2161C29.5163 59.6823 29.821 59.1341 30.2999 58.3406C28.4279 58.9033 26.8897 59.3793 25.337 59.8266C24.0164 60.2016 22.8846 60.1728 21.5495 59.3361C20.6063 58.7446 19.3147 58.3262 18.1248 58.0233C17.1235 57.7636 16.7317 57.1432 16.8768 56.1911C16.9639 55.6285 16.9784 55.3544 16.2528 55.4265C15.832 55.4698 15.7304 54.9648 15.6724 54.5898C15.5708 53.9694 15.7885 53.4068 16.0642 52.8586C20.9981 42.9909 24.8871 32.6471 29.734 22.7361C31.8671 18.3649 33.8262 13.9071 36.1335 9.62248C37.0187 7.99229 36.3802 6.86702 35.6982 5.68405C35.0452 4.51551 35.0452 3.72205 36.1625 3.00073C38.3828 1.57251 40.7046 0.634793 43.4328 0.447249C53.0539 -0.201942 62.6895 -0.0865305 72.3106 0.230852C75.3289 0.331837 78.3618 0.331837 81.3657 0.721351C82.3089 0.851189 83.5424 0.577087 83.6875 2.07744C83.6875 2.14957 83.8181 2.26498 83.8762 2.25056C85.5885 2.10629 86.2851 3.60664 87.3879 4.42895C88.4763 5.25126 89.0423 6.46308 89.4486 7.71818C89.5937 8.17983 89.0858 8.74246 89.8549 9.13198C90.2322 9.31952 89.7823 9.70904 89.5647 9.89658C88.8101 10.5025 88.0265 11.0795 87.2428 11.6566C80.4079 16.7347 74.1535 22.4909 67.6088 27.9008C65.3305 29.7907 63.1248 31.7671 60.7885 34.0898C62.8781 34.3494 64.5324 35.1285 66.1432 36.0229C68.0007 37.0472 69.5824 38.4033 70.7868 40.1489C71.5124 41.202 72.1509 42.3273 70.9029 43.6112C71.5995 43.7122 71.4834 43.0197 71.9768 43.0486C71.8752 44.2893 71.0916 45.1404 70.2644 45.8906C66.6656 49.1798 63.6182 52.974 60.3967 56.6095C54.5485 63.2024 48.831 69.8962 43.2296 76.6911C41.169 79.2013 39.1374 81.7259 37.0768 84.2361C36.772 84.6112 36.6269 85.1883 35.9739 85.1739L36.0029 85.2027C35.9594 84.0919 37.3089 83.7312 37.367 82.6781C39.2535 81.0767 40.5305 78.9849 41.9381 77.0085C40.3854 78.8839 38.5569 80.5285 37.396 82.7069C36.0464 83.8178 34.9726 85.1306 34.2906 86.7463C33.3618 87.8427 32.4476 88.9392 31.5189 90.0356C29.4437 92.6179 27.267 95.1281 25.6127 98.0134L25.6562 97.9557C24.3357 99.2108 23.2909 100.653 22.5508 102.312C22.3767 102.529 22.188 102.745 22.0139 102.962C19.9387 105.515 18.3135 108.4 16.1367 110.896C15.0919 111.877 14.3954 113.103 13.5682 114.243C13.1329 114.849 12.4073 115.325 12.4798 116.22C12.1606 116.566 11.8413 116.912 11.5221 117.258V117.287ZM55.8401 60.7499C56.9284 60.3603 57.3347 59.2928 58.0603 58.5426C59.1777 57.3885 60.15 56.0901 61.1948 54.8494C60.3821 54.9937 60.0484 55.5996 59.6856 56.0901C58.4811 57.7059 56.7833 58.9177 55.8836 60.7787C54.505 61.803 53.5182 63.1591 52.604 64.5729C53.7649 63.361 55.129 62.3223 55.8546 60.7499H55.8401ZM80.4805 16.0134C79.0729 16.5472 78.1151 17.7013 77.0268 18.6534C75.6337 19.8797 73.9939 20.8318 72.9345 22.4187C71.4399 23.1112 70.337 24.2653 69.2922 25.4772C68.9729 25.405 68.7698 25.6214 68.5666 25.809C65.8239 28.2182 63.0813 30.6274 60.3676 33.0799C60.15 33.2819 59.6856 33.4694 59.9033 34.0176C62.4863 31.7238 65.0403 29.4877 67.5798 27.1939C68.1748 26.6601 69.031 26.3427 69.2777 25.4627C70.7143 24.6981 71.9187 23.6738 72.92 22.4043C75.0097 21.2214 76.6205 19.4469 78.4634 17.961C79.189 17.3839 80.1322 16.9944 80.466 15.999C81.3077 15.9557 81.6995 15.2344 82.2654 14.8016C83.9052 13.5465 85.5015 12.2337 87.1122 10.9497C84.6888 12.3779 82.396 13.9648 80.495 16.0278L80.4805 16.0134ZM72.2815 10.0264C71.6721 9.99757 71.4544 9.96871 71.2367 9.96871C65.911 9.8533 60.5853 9.91101 55.2741 10.1563C53.5472 10.2284 51.7623 10.0553 50.1371 10.3438C48.3812 10.6468 46.7124 10.6612 44.9855 10.5602C44.6227 10.5458 44.4631 10.791 44.2309 11.0363C43.3167 12.0173 43.3457 13.3445 42.8958 14.4842C39.0938 23.9912 35.1032 33.4261 31.0255 42.8178C30.2274 44.6499 29.4873 46.5109 28.5876 48.7182C31.5769 47.6073 34.1745 46.6408 36.772 45.7031C37.5121 45.429 38.2667 45.1693 39.0358 45.0394C40.0371 44.8663 40.3418 45.6598 40.9078 46.2801C41.2415 46.6552 42.5911 45.8906 43.0845 47.0159C43.2151 47.3044 43.3602 47.5352 43.7375 47.6651C45.0145 48.1267 45.4208 49.3241 45.9578 50.4061C46.5382 51.5602 46.6108 52.6566 45.8126 53.753C45.4063 54.3156 45.1451 54.9793 44.7823 55.5563C42.3009 59.4803 39.8049 63.3755 37.3089 67.2995C36.5543 68.4824 35.8433 69.6943 35.1177 70.8772C35.2193 70.9494 35.3209 71.0215 35.4224 71.0792C43.5343 61.0528 52.5315 51.7766 60.7014 41.6781C57.7991 40.8125 54.9404 41.7358 52.3283 40.1921C51.356 39.6295 50.2386 38.5043 48.7295 38.8793C48.5989 38.9082 47.9313 38.4465 47.9749 37.9993C48.0474 37.278 47.583 36.6288 47.2783 36.3114C46.2625 35.2439 46.8285 34.436 47.3799 33.556C47.7717 32.9212 48.1635 32.2864 48.6569 31.7382C50.8191 29.2857 53.1264 26.9631 55.5208 24.7126C59.3663 21.0771 63.4876 17.7734 67.4202 14.2678C68.9584 12.8973 70.4966 11.5412 72.296 9.95429L72.2815 10.0264ZM27.4266 84.9142C27.92 84.7699 28.1087 84.3083 28.3844 83.9764C31.5624 80.0525 34.6824 76.0996 37.8749 72.2045C44.0858 64.6161 50.7611 57.4318 57.1316 50.0021C58.4231 48.5018 60.0774 47.2611 60.9771 45.1116C58.1329 47.7805 27.8765 82.5482 27.4266 84.9286V84.9142ZM50.1371 33.5271C50.9642 33.6137 51.1093 33.1665 51.385 32.8779C53.4892 30.7861 55.4918 28.5933 57.712 26.6457C63.7198 21.3512 69.8291 16.1577 75.9094 10.9353C76.2286 10.6612 76.5189 10.4448 76.2432 9.75232C67.4492 17.6292 57.8572 24.4096 50.1371 33.5271ZM70.6127 44.5778C70.5256 44.5057 70.4386 44.4335 70.3515 44.3614C68.9439 45.8617 67.5508 47.3621 66.1432 48.848C67.9426 47.7083 69.3212 46.1936 70.6127 44.5778ZM49.397 68.5113C49.2954 68.4247 49.1938 68.3382 49.0777 68.2516C48.0764 69.4634 47.0606 70.6897 46.0593 71.9015C46.1464 71.9736 46.2335 72.0458 46.3205 72.1179C47.3363 70.9205 48.3667 69.7087 49.3825 68.5113H49.397ZM33.1587 72.0746C32.5347 73.0989 31.9107 74.1232 31.3012 75.1475C32.3896 74.3973 32.8394 73.2576 33.1587 72.0746Z" fill="black"/>
</g>
<defs>
<clipPath id="clip0_1742_5028">
<rect width="90" height="123" fill="white"/>
</clipPath>
</defs>
</svg>
