<svg width="46" height="51" viewBox="0 0 46 51" fill="none" xmlns="http://www.w3.org/2000/svg">
<path d="M20.4047 33.7218C20.2707 33.7334 20.1368 33.7507 19.9199 33.7681C19.4414 34.3516 18.7588 34.9119 18.4781 35.7207C18.459 35.767 18.4271 35.819 18.3824 35.8478C18.1719 35.9981 17.9614 36.1483 17.7508 36.2985C17.6615 36.362 17.585 36.4718 17.4829 36.5064C17.1639 36.5989 17.1639 36.8473 17.1001 37.0784C17.0746 37.1824 17.0491 37.2979 16.9725 37.3788C15.2501 39.2853 13.5085 41.1802 11.8116 43.104C11.416 43.5546 11.0141 44.0919 10.8929 44.6407C10.6505 45.7384 9.83392 46.4143 9.04287 47.1364C8.67286 47.4715 8.31562 47.8181 7.93285 48.1301C7.77336 48.2572 7.55645 48.3265 7.36507 48.4247C7.34593 48.3959 7.32042 48.367 7.30129 48.3381C7.3587 48.2745 7.41611 48.211 7.49905 48.1185C7.40336 48.1359 7.33318 48.1532 7.18007 48.1821C7.29491 48.0723 7.35869 48.003 7.48628 47.8817C7.24386 47.8586 7.05249 47.8355 6.82283 47.8124V47.5177C6.25505 47.3271 5.89141 47.7777 5.41295 47.9683C5.48312 47.9857 5.55331 48.0088 5.62348 48.0146C5.70004 48.0203 5.77658 48.0146 5.834 48.0146C5.80848 48.1763 5.78296 48.3265 5.75745 48.471H6.28693C6.204 48.5518 6.14021 48.6154 6.07642 48.6789C6.33798 48.8754 5.99349 48.91 5.96159 49.0602C6.02539 49.0602 6.0828 49.0544 6.14022 49.0602C6.18487 49.066 6.22315 49.0891 6.26143 49.1064C6.23591 49.1469 6.22314 49.1931 6.19124 49.2278C6.11469 49.3144 6.03176 49.4011 5.93607 49.4646C5.834 49.534 5.70642 49.6437 5.60434 49.6322C4.13707 49.5051 2.77823 49.1238 1.62354 48.263C0.858004 47.691 0.220069 47.0324 0.0605822 46.1023C-0.15632 44.8487 0.20092 43.7741 1.26629 42.896C1.70648 42.532 2.06372 42.0872 2.45925 41.6828C4.17533 39.9323 5.89142 38.1818 7.61387 36.4429C7.97112 36.0789 8.24544 35.6861 8.46872 35.2412C8.67286 34.8253 8.97269 34.444 9.25977 34.0627C9.68081 33.5081 10.1146 32.9535 10.5612 32.4162C10.8993 32.0176 11.2821 31.6478 11.6266 31.255C12.105 30.7119 12.5898 30.1747 13.0237 29.6027C13.9232 28.4184 14.7461 27.1879 15.7668 26.0844C16.5324 25.2525 17.2533 24.3802 17.9869 23.5252C18.1017 23.3923 18.2166 23.2536 18.3059 23.1092C19.1097 21.7516 20.2516 20.6135 21.2596 19.3887C23.0267 17.2396 24.7172 15.0385 26.5545 12.9414C27.352 12.0286 28.092 11.0754 28.9596 10.2088C30.4013 8.76449 31.875 7.34331 33.1062 5.73726C33.623 5.0671 34.2609 4.47783 34.8223 3.83657C35.3072 3.28196 35.7218 2.67536 36.2258 2.1323C36.9148 1.38705 37.7441 0.803556 38.8541 0.676458C39.843 0.560915 40.7871 0.607132 41.5973 1.25995C42.1332 1.68746 42.7201 2.06876 43.2751 2.47893C44.1044 3.09131 44.3979 3.93478 44.4681 4.85913C44.5191 5.53505 44.3086 6.12433 43.8748 6.70782C43.1539 7.67838 42.5032 8.70094 41.8908 9.72928C41.0678 11.1158 40.3533 12.5543 39.4985 13.9177C38.9562 14.7901 38.2928 15.6047 37.6038 16.3846C35.186 19.1229 32.7299 21.8324 30.3057 24.565C29.7443 25.2005 29.1318 25.7725 28.4046 26.2635C28.0218 26.5177 27.6582 26.8355 27.3838 27.1821C27.1032 27.5403 26.7778 27.8869 26.6949 28.3606C26.6183 28.765 26.5099 28.7997 26.0569 28.7881C26.0059 28.7881 25.8974 28.8806 25.9038 28.921C26.0123 29.6374 25.3679 29.9494 24.966 30.3942C24.864 30.5097 24.7619 30.6311 24.6598 30.7524C24.5003 30.9373 24.3217 30.9373 24.1239 30.7986C23.9581 30.6831 23.7858 30.5675 23.6008 30.4404C23.2946 30.6657 23.2691 30.8795 23.5434 31.203C23.8943 31.6016 23.9007 31.6074 23.5306 32.006C20.6152 35.1373 17.6998 38.2685 14.7844 41.3939C14.1528 42.0699 13.4957 42.7342 12.8514 43.4044L12.7749 43.3582C12.979 43.0924 13.1449 42.792 13.4001 42.5725C13.6106 42.3934 13.6425 42.2952 13.4192 42.1334C14.038 41.4055 14.6696 40.6891 15.2629 39.9496C16.0539 38.9617 16.8195 37.9623 17.585 36.9571C17.719 36.7837 17.8338 36.674 18.0635 36.8588C18.5929 35.6456 19.4669 34.6635 20.4047 33.7218C20.9087 33.2481 21.4063 32.7744 21.9166 32.2891C21.7699 32.2198 21.6615 32.1736 21.4828 32.0927C21.3425 32.3353 21.1958 32.578 21.049 32.8206C20.9533 32.9766 20.8768 33.1441 20.7492 33.2712C20.679 33.3463 20.5195 33.3463 20.3218 33.4041C20.3345 33.4619 20.3728 33.5947 20.4047 33.7276V33.7218ZM22.4398 30.839C22.2675 31.0066 22.3377 31.3763 22.5546 31.7172C22.5163 31.4225 22.4844 31.1568 22.4398 30.839Z" fill="black"/>
<path d="M42.9882 31.203C42.9244 31.3243 42.8606 31.4514 42.7713 31.619C42.8797 31.619 43.0137 31.6074 43.2115 31.5959C43.2625 31.6421 43.3773 31.7287 43.5304 31.8501C43.4794 31.7518 43.4603 31.7056 43.422 31.6305C43.5177 31.6652 43.5878 31.6883 43.658 31.7172C43.6772 31.6998 43.6899 31.6825 43.709 31.6594C43.6006 31.5727 43.4922 31.4803 43.3837 31.3937C43.2689 31.307 43.0902 31.2434 43.3135 31.0817C43.4603 31.2203 43.6006 31.359 43.7282 31.4803C43.792 31.4341 43.8558 31.3705 43.8749 31.3821C44.0153 31.4457 44.162 31.4976 44.2704 31.5959C45.6165 32.8033 46.1269 34.3053 45.9738 35.9749C45.8972 36.7838 45.6548 37.581 45.4889 38.384C45.4698 38.4707 45.4315 38.5516 45.406 38.6324C45.3805 38.6324 45.355 38.6324 45.3294 38.6267C45.3422 38.4129 45.355 38.1934 45.3741 37.9334C45.3422 37.9161 45.2529 37.8641 45.1572 37.8121C45.1891 37.5059 45.221 37.1939 45.2593 36.8877C45.3486 36.2003 45.2401 35.5417 44.9913 34.8946C44.902 34.6693 44.902 34.6693 45.1827 34.5422C44.4554 33.9818 44.2704 33.1326 43.7473 32.4278C43.6453 32.5318 43.5623 32.6184 43.4347 32.7455C43.5815 32.7975 43.6835 32.8437 43.7984 32.8784C44.0536 32.9593 44.0663 33.0113 43.8877 33.2308C43.9706 33.2192 44.0344 33.2077 44.1684 33.1904C44.0854 33.2886 44.0344 33.3463 43.9515 33.4388C44.1492 33.693 44.3534 33.9703 44.5958 34.2765C44.5703 34.4036 44.5384 34.6 44.4937 34.8253C44.481 34.8022 44.4874 34.8253 44.4937 34.8311C44.7999 34.9351 44.7999 35.1488 44.7936 35.403C44.7553 36.6798 44.5958 37.9334 44.1811 39.1582C44.1556 39.2275 44.1429 39.3199 44.1684 39.3893C44.3087 39.7532 44.1875 40.0652 43.977 40.3771C43.7154 40.7642 43.4602 41.1513 43.2115 41.5384C43.1732 41.6019 43.1604 41.6828 43.1349 41.7521C43.0583 41.9716 42.9754 42.1854 42.9052 42.4049C42.867 42.5205 42.867 42.6476 42.8414 42.7631C42.8223 42.8556 42.8351 42.9827 42.7713 43.0462C41.9675 43.8897 41.1317 44.7042 40.3471 45.5593C39.0648 46.9573 37.4316 47.8875 35.6326 48.6385C34.5417 49.0949 33.4636 49.5975 32.4046 50.1174C32.0346 50.3023 31.6582 50.3023 31.2755 50.3023C30.8353 50.3023 30.4015 50.2157 29.9613 50.1868C29.7508 50.1694 29.5275 50.2157 29.317 50.1983C28.5259 50.1463 27.8624 49.8113 27.199 49.4473C26.644 49.1411 26.0762 48.858 25.5276 48.5518C25.3744 48.4652 25.2405 48.3381 25.1256 48.2052C23.9008 46.888 23.097 45.386 22.9375 43.6586C22.8482 42.6822 22.9566 41.7001 23.3777 40.7642C23.652 40.1576 23.786 39.499 24.0858 38.904C24.5643 37.9565 24.6663 36.934 24.9534 35.9518C25.1065 35.4377 25.4 34.9524 25.6488 34.4613C25.7062 34.3458 25.8082 34.2245 25.9231 34.1551C26.3441 33.9183 26.5738 33.5601 26.6886 33.1499C26.8736 32.4624 27.4159 31.9829 27.8688 31.4514C27.9007 31.411 27.9581 31.3763 28.0092 31.359C29.2787 30.8679 30.2739 30.0649 31.1224 29.0943C31.5498 28.6091 31.9772 28.1296 32.7236 27.9909C33.6167 27.8234 34.4907 27.858 35.32 28.1873C35.7602 28.3606 36.1558 28.6148 36.5832 28.817C36.7363 28.8921 36.9213 28.9384 37.0935 28.9499C37.8527 29.0077 38.6182 29.0539 39.3838 29.1001C39.7984 29.1232 40.1302 29.3023 40.4236 29.545C40.7936 29.8454 41.2147 29.9956 41.7187 29.9667C41.7825 29.9667 41.8781 30.0014 41.9228 30.0476C42.0887 30.2151 42.2482 30.3942 42.4268 30.5964C42.3502 30.5964 42.3056 30.5906 42.2163 30.5849C42.497 30.8102 42.7458 31.0066 42.9946 31.2088L42.9882 31.203ZM30.0889 43.7163C30.1272 43.7337 30.1654 43.7452 30.2037 43.7626C30.376 43.6817 30.5546 43.6124 30.7141 43.5141C31.1415 43.26 31.5434 42.9422 32.1112 42.9884C32.175 42.9884 32.2515 42.9653 32.3026 42.9249C32.6407 42.6765 33.0489 42.4916 33.2403 42.1045C33.3679 41.8445 33.5019 41.5846 33.6742 41.3477C33.7826 41.2033 33.9676 41.0011 34.1143 41.0069C34.4078 41.0242 34.478 40.9144 34.5099 40.7007C34.5737 40.3078 34.8225 40.1172 35.2499 40.1114C35.3392 40.1114 35.4285 40.1056 35.5114 40.0883C35.9325 39.9959 36.194 39.5915 36.1175 39.0888C36.0856 38.8809 36.1494 38.7364 36.2642 38.5747C36.6661 38.0027 37.0361 37.4192 37.438 36.8473C37.5146 36.7375 37.6613 36.6335 37.8017 36.5931C38.1717 36.4776 38.2163 36.362 37.9612 36.0905C37.9356 36.0674 37.9165 36.0385 37.8718 35.9807C37.993 35.9923 38.076 35.9981 38.0824 35.9981C38.0569 35.8825 37.9867 35.7612 38.0122 35.6572C38.0696 35.455 38.2546 35.5359 38.4013 35.5763C38.6182 35.6399 38.8351 35.7034 39.0584 35.767C38.3567 35.403 37.6486 35.091 36.7937 35.4088C36.8958 35.7034 36.749 35.8363 36.4492 35.9056C36.092 35.9923 35.7411 36.1136 35.3838 36.2176C35.1669 36.2811 34.9437 36.3389 34.7204 36.4025C34.7076 36.3678 34.6949 36.3331 34.6885 36.2927C34.8416 36.2523 34.9947 36.206 35.1478 36.1656C35.1733 36.1887 35.1988 36.206 35.2244 36.2291C35.2626 36.0905 35.3009 35.9461 35.3456 35.8074C35.3583 35.7612 35.403 35.715 35.4413 35.6861C35.7602 35.455 36.0856 35.2355 36.4173 35.0044C36.4365 35.0217 36.4811 35.0564 36.5321 35.0968C36.7108 34.6924 36.832 34.6231 37.2913 34.6115C37.4189 34.6115 37.5529 34.5827 37.6677 34.5711C37.5146 34.4556 37.4125 34.3805 37.3104 34.3053C37.2722 34.3747 37.2339 34.4498 37.1829 34.5538C37.0808 34.4787 37.0042 34.4267 36.9213 34.3689C36.8766 34.3227 36.8384 34.2822 36.7937 34.236C36.6725 34.3516 36.5513 34.4671 36.4237 34.5827C36.462 34.6115 36.5003 34.6462 36.5385 34.6751C36.4365 34.652 36.328 34.6231 36.2259 34.5942C36.2132 34.6866 36.2068 34.7675 36.194 34.8426C36.1813 34.8253 36.1621 34.808 36.1494 34.7849C35.69 34.9986 35.2244 35.2008 34.7714 35.4261C34.6694 35.4723 34.5673 35.5648 34.529 35.6572C34.4588 35.8305 34.3567 35.8652 34.1654 35.8305C33.7252 35.7439 33.419 35.9172 33.2786 36.31C32.9405 36.2523 32.6024 36.206 32.2643 36.1425C32.0219 36.102 31.8815 36.1598 31.7986 36.3851C31.5434 37.0899 31.1861 37.7428 30.7077 38.3494C30.4334 38.696 30.2739 39.1235 30.1208 39.5279C30.0123 39.8225 30.0059 40.1403 30.2165 40.4291C30.242 40.4638 30.242 40.5216 30.2292 40.562C30.159 40.7469 30.0697 40.9202 30.0123 41.1051C29.974 41.2148 29.9166 41.3824 29.974 41.4344C30.2611 41.7117 30.0761 42.0063 30.057 42.2952C30.0506 42.4338 30.0697 42.5725 30.0889 42.7053C30.1016 42.8036 30.1654 42.9018 30.1591 43C30.1527 43.2426 30.1144 43.4795 30.0889 43.7221V43.7163ZM43.9706 31.8558C43.9323 31.8789 43.8941 31.902 43.8558 31.9252C44.0025 32.1158 44.1492 32.3064 44.3024 32.4971C44.3406 32.474 44.3789 32.4509 44.4172 32.4278C44.2705 32.2371 44.1173 32.0465 43.9706 31.8558Z" fill="black"/>
<path d="M8.53245 19.1861C8.53883 19.0937 8.5452 18.9955 8.55795 18.8626C8.23898 18.7933 7.90726 18.7297 7.53725 18.6488C7.45432 18.5333 7.33948 18.3715 7.20551 18.1809C6.87378 18.4062 6.68878 18.1462 6.49101 17.944C6.05721 17.5049 5.59789 17.089 5.21512 16.6153C4.94718 16.286 4.78131 15.8816 4.57078 15.5176C4.51975 15.4367 4.47509 15.3385 4.39216 15.2865C4.11784 15.0959 4.0413 14.8532 4.07957 14.5586C4.13061 14.1831 4.20078 13.8018 4.21992 13.4263C4.23906 13.1143 4.20716 12.8023 4.1944 12.4904C4.1944 12.473 4.18165 12.4499 4.16889 12.4441C3.8563 12.2131 4.0732 11.9993 4.18165 11.7624C4.48786 11.1154 4.79408 10.4741 5.06202 9.81554C5.52134 8.67166 6.21032 7.63755 6.9312 6.62076C7.81794 5.35557 8.68555 4.07303 9.52126 2.77895C9.75092 2.42077 10.0827 2.23012 10.459 2.06836C10.7908 1.92393 11.1544 1.83149 11.4925 1.69284C11.6648 1.62352 11.7987 1.45598 11.9774 1.40398C12.5196 1.25378 13.0682 1.1209 13.6233 1.02847C14.3441 0.907148 15.0714 0.808936 15.805 0.751164C16.1559 0.722278 16.5259 0.803159 16.8768 0.86093C18.2165 1.07469 19.5434 1.34044 20.7683 1.88349C21.6869 2.28789 22.4907 2.83672 23.0011 3.68019C23.7156 4.87028 24.3408 6.08349 24.7363 7.40068C24.9468 8.09972 24.7746 8.73521 24.4109 9.34759C24.379 9.39958 24.3408 9.46313 24.2897 9.49779C23.773 9.79243 23.773 10.295 23.6454 10.7572C23.4668 11.3985 23.2244 12.034 22.529 12.4037C21.7762 12.8023 21.1702 13.3396 20.7172 14.0155C20.6152 14.1657 20.4876 14.3102 20.4174 14.4719C19.9708 15.5176 19.0969 16.234 18.1655 16.9157C16.9278 17.8227 15.6328 18.6604 14.2421 19.371C14.006 19.4923 13.7126 19.5385 13.4383 19.5674C13.0683 19.6021 12.6791 19.5443 12.3665 19.7985C12.2963 19.8563 12.207 19.9082 12.1624 19.9776C11.9008 20.3415 11.9072 20.3473 11.5946 20.0122C11.4861 20.174 11.5308 20.4397 11.2118 20.434C11.0013 20.434 10.7844 20.4917 10.5739 20.4744C10.4973 20.4686 10.4016 20.3184 10.3825 20.2202C10.3378 20.0065 10.3442 19.7869 10.274 19.5327C10.2166 19.6252 10.1337 19.7118 10.0954 19.81C10.0571 19.9198 10.0635 20.0353 10.0444 20.1509C9.98059 20.5206 9.98058 20.5264 9.57867 20.4975C8.60899 20.434 7.72225 20.1278 6.91206 19.6483C5.68082 18.9204 4.69838 17.9729 4.03491 16.777C3.99026 16.6961 3.95198 16.6153 3.9137 16.5344C3.90094 16.5113 3.90096 16.4824 3.95199 16.4246C4.07958 16.569 4.20716 16.7077 4.37302 16.8868C4.40492 16.881 4.507 16.8579 4.59631 16.8348C4.92166 17.1468 5.21512 17.4876 5.57237 17.7534C5.94876 18.0307 6.37619 18.2618 6.79723 18.4755C6.9631 18.5622 7.07792 18.6142 7.00775 18.7413C7.53086 18.8972 8.04122 19.0417 8.5452 19.1919C8.78124 19.3016 9.02367 19.4114 9.29161 19.5327C9.31713 19.3825 9.32988 19.2728 9.34264 19.1977C9.15125 18.9897 8.78763 19.5385 8.71107 19.0128C8.68556 19.0474 8.67279 19.0763 8.64728 19.1052C8.61538 19.1399 8.57709 19.163 8.53882 19.1977L8.53245 19.1861ZM12.207 13.0854C12.3793 13.6631 11.9455 13.7151 11.5308 13.7729C11.6711 13.8711 11.786 13.9462 11.9263 14.0444V13.8191C12.29 13.9173 12.3282 13.8942 12.3984 13.5534C12.4813 13.5476 12.5643 13.5418 12.66 13.5303C12.6408 13.4436 12.6281 13.3743 12.6153 13.2992C12.6408 13.3107 12.66 13.3223 12.6855 13.3338C12.9917 13.0161 13.3043 12.7041 13.6105 12.3806C13.636 12.3575 13.6296 12.2997 13.6169 12.2651C13.5403 12.034 13.6615 11.9646 13.8976 11.9473C14.0124 11.9415 14.1847 11.8895 14.2166 11.8144C14.2867 11.6527 14.2867 11.462 14.3186 11.2598C14.7014 11.2772 14.9885 11.0519 15.2756 10.815C15.6073 10.5435 15.9773 10.3066 16.3282 10.0582C16.4685 9.95997 16.6216 9.88486 16.762 9.78087C17.0873 9.54401 17.2213 9.2436 17.1511 8.86231C17.132 8.74676 17.1639 8.57922 17.2468 8.49257C17.451 8.28459 17.5594 8.07661 17.4956 7.79353C17.4765 7.70687 17.5084 7.59133 17.5594 7.51045C17.821 7.12338 17.7125 6.70164 17.7189 6.23947C17.4127 6.34924 17.1447 6.48789 16.8577 6.53988C16.5578 6.59188 16.2388 6.54566 15.9263 6.55722C15.8306 6.55722 15.7349 6.59188 15.6456 6.62654C15.1926 6.79986 14.7205 6.84607 14.2357 6.82874C13.8274 6.81141 13.2213 7.07716 13.1639 7.56244C13.1512 7.64332 13.1321 7.7242 13.1002 7.79353C12.9981 7.99573 12.9024 8.20949 12.5643 8.14016C12.5196 8.12861 12.3856 8.26148 12.3729 8.33658C12.3091 8.70632 12.1751 8.83342 11.7605 8.86231C11.3203 8.89119 11.0906 9.19738 11.231 9.5729C11.2756 9.68844 11.3394 9.80398 11.4287 9.89642C11.5818 10.0582 11.5946 10.2257 11.5436 10.4164C11.4415 10.815 11.3458 11.2136 11.2565 11.618C11.1991 11.9069 11.1353 12.1784 10.7525 12.2477C10.7015 12.2593 10.6568 12.3055 10.5101 12.3979C10.6823 12.5077 10.7972 12.577 10.9184 12.6579C10.8546 12.6695 10.7971 12.681 10.7908 12.681C10.829 12.7619 10.8737 12.8485 10.912 12.9352C10.8035 12.9699 10.6951 13.0334 10.593 13.0219C10.3633 13.0045 10.1401 12.9468 9.89128 12.9005C10.2613 13.1143 11.0013 13.2241 12.0475 13.2183V12.3517C12.2325 12.3171 12.4239 12.2766 12.6089 12.2419C12.4303 12.0686 12.5005 11.9415 12.845 11.8549C12.711 12.0802 12.9981 12.3055 12.762 12.5481C12.5898 12.7215 12.5068 12.9756 12.3856 13.2067C12.341 13.1778 12.2963 13.1432 12.2134 13.0854H12.207Z" fill="black"/>
<path d="M4.8515 37.4077C4.80684 37.9797 4.34114 38.5227 3.51819 38.9387C3.94561 38.4476 4.37941 37.9508 4.8515 37.4077Z" fill="black"/>
<path d="M11.9838 44.0687C12.1688 44.011 12.2772 43.9821 12.4622 43.9243C12.0029 44.6465 11.5627 45.3339 11.1289 46.0272C11.097 46.0099 11.0651 45.9983 11.0332 45.981C11.0779 45.9059 11.1225 45.825 11.1672 45.7499C11.4415 45.2877 11.7222 44.8256 11.9774 44.3576C12.0284 44.2652 11.9838 44.1265 11.9838 44.0687Z" fill="black"/>
<path d="M42.9942 31.2024C42.8284 31.0119 42.669 30.8213 42.4905 30.625C42.5479 30.5846 42.6116 30.5326 42.6754 30.4864C42.618 30.3998 42.5606 30.3247 42.4969 30.2266C42.7455 30.2785 42.7264 30.2843 42.7965 30.5326C42.822 30.625 42.9496 30.6885 43.0197 30.7751C43.1345 30.9195 43.2237 31.0754 42.9878 31.2024H42.9942Z" fill="black"/>
<path d="M45.0039 38.9963C45.0677 38.9848 45.1633 38.9674 45.3036 38.9443C45.1633 39.337 45.023 39.7239 44.8828 40.1049C44.8572 40.1049 44.8318 40.0934 44.8126 40.0934C44.8764 39.7296 44.9465 39.3601 45.0103 38.9963H45.0039Z" fill="black"/>
<path d="M3.93262 15.9682C3.88799 16.0317 3.83062 16.1126 3.74772 16.2338C3.6202 15.8239 3.50542 15.4428 3.38428 15.0617L3.44804 15.0386C3.60745 15.3446 3.76048 15.6506 3.92626 15.9682H3.93262Z" fill="black"/>
<path d="M36.9589 49.2158C36.6529 49.3775 36.3468 49.5334 36.0153 49.7066C36.0726 49.3313 36.2703 49.2216 36.9589 49.2158Z" fill="black"/>
<path d="M7.07766 4.36768C7.23707 4.74877 7.11592 4.95087 6.58032 5.21071C6.75886 4.91045 6.90551 4.65639 7.07766 4.36768Z" fill="black"/>
</svg>
