<svg width="337" height="282" viewBox="0 0 337 282" fill="none" xmlns="http://www.w3.org/2000/svg">
<g clip-path="url(#clip0_6299_5552)">
<path d="M158.834 55.311H134.517V58.9506H158.834V55.311Z" fill="black"/>
<path d="M209.029 55.311H185.337V58.9506H209.029V55.311Z" fill="black"/>
<path d="M169.83 21.197V44.2786H173.516V21.197H169.83Z" fill="black"/>
<path d="M169.83 70.4593V93.9796H173.516V70.4593H169.83Z" fill="black"/>
<path d="M231 57.4993C231 51.8533 226.812 47.0406 221.2 46.1552V22.8422C226.812 21.9567 231 17.144 231 11.498C231 5.15778 225.777 0 219.358 0C213.641 0 208.768 4.13585 207.871 9.67886H183.487C182.59 4.13585 177.717 0 172.001 0C166.286 0 161.411 4.13585 160.515 9.67886H136.13C135.234 4.13585 130.359 0 124.642 0C118.223 0 113 5.15778 113 11.498C113 17.144 117.188 21.9567 122.8 22.8422V46.1552C117.188 47.0406 113 51.8547 113 57.4993C113 63.144 117.188 67.958 122.8 68.8435V92.1565C117.188 93.042 113 97.856 113 103.501C113 109.841 118.223 114.999 124.642 114.999C130.359 114.999 135.232 110.864 136.129 105.321H160.513C161.41 110.864 166.283 114.999 172 114.999C177.717 114.999 182.59 110.864 183.485 105.321H207.87C208.766 110.864 213.639 114.999 219.356 114.999C225.776 114.999 230.999 109.841 230.999 103.501C230.999 97.8547 226.811 93.042 221.198 92.1565V68.8435C226.811 67.958 230.999 63.1453 230.999 57.4993H231ZM172.001 95.6423C176.388 95.6423 179.957 99.1682 179.957 103.501C179.957 107.833 176.388 111.359 172.001 111.359C167.614 111.359 164.044 107.834 164.044 103.501C164.044 99.1669 167.614 95.6423 172.001 95.6423ZM172.001 19.3564C167.614 19.3564 164.044 15.8305 164.044 11.498C164.044 7.16551 167.614 3.6396 172.001 3.6396C176.388 3.6396 179.957 7.16551 179.957 11.498C179.957 15.8305 176.388 19.3564 172.001 19.3564ZM219.358 95.6423C223.745 95.6423 227.313 99.1682 227.313 103.501C227.313 107.833 223.745 111.359 219.358 111.359C214.971 111.359 211.401 107.834 211.401 103.501C211.401 99.1669 214.971 95.6423 219.358 95.6423ZM124.642 95.6423C129.029 95.6423 132.599 99.1682 132.599 103.501C132.599 107.833 129.029 111.359 124.642 111.359C120.255 111.359 116.687 107.834 116.687 103.501C116.687 99.1669 120.255 95.6423 124.642 95.6423ZM124.642 19.3564C120.255 19.3564 116.687 15.8305 116.687 11.498C116.687 7.16551 120.255 3.6396 124.642 3.6396C129.029 3.6396 132.599 7.16551 132.599 11.498C132.599 15.8305 129.029 19.3564 124.642 19.3564ZM124.642 49.6423C129.029 49.6423 132.599 53.1669 132.599 57.5007C132.599 61.8345 129.029 65.3591 124.642 65.3591C120.255 65.3591 116.687 61.8331 116.687 57.5007C116.687 53.1682 120.255 49.6423 124.642 49.6423ZM126.487 68.8435C132.1 67.958 136.287 63.1453 136.287 57.4993C136.287 51.8533 132.1 47.0406 126.487 46.1552V22.8422C131.445 22.061 135.338 18.2154 136.13 13.3185H160.515C161.411 18.8615 166.284 22.9973 172.001 22.9973C177.718 22.9973 182.591 18.8615 183.487 13.3185H207.871C208.663 18.2154 212.556 22.061 217.514 22.8422V46.1552C211.902 47.0406 207.714 51.8533 207.714 57.4993C207.714 63.1453 211.902 67.958 217.514 68.8435V92.1565C212.556 92.9377 208.663 96.7832 207.871 101.68H183.487C182.59 96.1372 177.717 92.0013 172.001 92.0013C166.286 92.0013 161.411 96.1372 160.515 101.68H136.13C135.338 96.7832 131.445 92.9377 126.487 92.1565V68.8435ZM219.358 19.3564C214.971 19.3564 211.401 15.8305 211.401 11.498C211.401 7.16551 214.971 3.6396 219.358 3.6396C223.745 3.6396 227.313 7.16551 227.313 11.498C227.313 15.8305 223.745 19.3564 219.358 19.3564ZM211.401 57.4993C211.401 53.1669 214.971 49.6409 219.358 49.6409C223.745 49.6409 227.313 53.1655 227.313 57.4993C227.313 61.8331 223.745 65.3577 219.358 65.3577C214.971 65.3577 211.401 61.8318 211.401 57.4993Z" fill="black"/>
<path d="M172 42.434C163.588 42.434 156.745 49.1928 156.745 57.4993C156.745 65.8058 163.588 72.5647 172 72.5647C180.412 72.5647 187.255 65.8058 187.255 57.4993C187.255 49.1928 180.412 42.434 172 42.434ZM183.603 57.4993C183.603 63.8181 178.398 68.9585 172 68.9585C165.602 68.9585 160.397 63.8181 160.397 57.4993C160.397 51.1805 165.602 46.0401 172 46.0401C178.398 46.0401 183.603 51.1805 183.603 57.4993Z" fill="#FA198C"/>
</g>
<g clip-path="url(#clip1_6299_5552)">
<path d="M117.359 215.708L117.367 216.139H121.21L121.201 215.691C120.638 185.451 96.5143 161.142 66.2796 160.351L65.8291 160.338V164.181L66.2556 164.192C94.3577 164.969 116.806 187.598 117.359 215.707V215.708Z" fill="black"/>
<path d="M12.2362 218.649L12.2207 218.225H8.37781L8.39334 218.68C9.39749 248.45 33.5126 272.379 63.2939 273.159L63.7445 273.172V269.329L63.3179 269.318C35.6593 268.552 13.222 246.297 12.2362 218.65V218.649Z" fill="black"/>
<path d="M8.37078 215.692L8.3623 216.139H12.2052L12.2137 215.708C12.7673 187.6 35.2145 164.971 63.3166 164.194L63.7431 164.182V160.34L63.2926 160.352C33.0579 161.143 8.93429 185.452 8.37078 215.692Z" fill="black"/>
<path d="M117.337 218.649C116.353 246.296 93.9156 268.551 66.2556 269.316L65.8291 269.328V273.17L66.2796 273.158C96.0609 272.378 120.176 248.448 121.18 218.679L121.196 218.224H117.353L117.337 218.647V218.649Z" fill="black"/>
<path d="M43.8394 217.851C43.8733 217.704 43.8903 217.564 43.8832 217.369C43.8888 216.413 43.5174 215.521 42.8409 214.857L34.6806 206.873C34.3148 206.514 33.8064 206.321 33.3163 206.325C32.8036 206.331 32.3221 206.536 31.9633 206.903C31.6032 207.27 31.4097 207.754 31.4153 208.267C31.421 208.78 31.6258 209.261 31.993 209.62L38.0066 215.504H1.98288C0.946248 215.504 0.0508457 216.299 0.0028273 217.334C-0.0480157 218.436 0.833264 219.346 1.92215 219.346H37.9487L32.1653 225.26C31.8051 225.627 31.6117 226.111 31.6173 226.624C31.623 227.137 31.8277 227.618 32.1949 227.977C32.5565 228.33 33.0339 228.525 33.5395 228.525C34.0451 228.525 34.5493 228.32 34.9122 227.947L42.896 219.787C43.4185 219.253 43.7476 218.57 43.8408 217.849L43.8394 217.851Z" fill="black"/>
<path d="M128.079 215.505H91.9949L98.0085 209.622C98.7655 208.88 98.7782 207.66 98.0381 206.904C97.678 206.537 97.1992 206.332 96.6852 206.327C96.2149 206.332 95.6881 206.514 95.3209 206.875L87.1606 214.858C86.4841 215.519 86.1126 216.41 86.1112 217.427C86.1112 217.566 86.1267 217.704 86.1536 217.811C86.2553 218.573 86.5843 219.256 87.1055 219.789L95.0892 227.949C95.455 228.322 95.9423 228.526 96.4634 228.526C96.9846 228.526 97.4464 228.332 97.8079 227.978C98.5649 227.237 98.5776 226.017 97.8362 225.261L92.0528 219.348H128.079C129.139 219.348 130.001 218.486 130.001 217.426C130.001 216.365 129.139 215.504 128.079 215.504V215.505Z" fill="black"/>
<path d="M62.2108 194.894C62.7418 195.415 63.4254 195.743 64.1456 195.838C64.2883 195.87 64.4225 195.887 64.6216 195.887H64.647C65.5947 195.887 66.4802 195.516 67.1397 194.84L75.1249 186.68C75.865 185.923 75.8508 184.704 75.0938 183.963C74.3354 183.222 73.118 183.237 72.3766 183.993L66.4929 190.006V153.922C66.4929 152.863 65.63 152 64.5708 152C63.5115 152 62.6486 152.861 62.6486 153.922V189.948L56.7353 184.164C56.3695 183.805 55.8907 183.617 55.371 183.616C54.8583 183.621 54.3767 183.826 54.018 184.193C53.2765 184.95 53.2892 186.169 54.0462 186.91L62.208 194.894H62.2108Z" fill="black"/>
<path d="M67.1411 239.158C66.49 238.492 65.6186 238.12 64.6865 238.11H64.5721C64.4238 238.11 64.2727 238.131 64.147 238.164C63.3815 238.28 62.729 238.596 62.2093 239.104L54.0476 247.088C53.2906 247.83 53.2779 249.048 54.0193 249.805C54.3781 250.173 54.8582 250.377 55.3709 250.383C55.3794 250.383 55.3865 250.383 55.3935 250.383C55.8991 250.383 56.3751 250.188 56.7366 249.835L62.6499 244.05V280.078C62.6499 281.137 63.5129 282 64.5721 282C65.6313 282 66.4942 281.139 66.4942 280.078V243.994L72.3779 250.007C73.101 250.743 74.3664 250.753 75.0952 250.037C75.8522 249.296 75.8663 248.077 75.1249 247.32L67.1411 239.16V239.158Z" fill="black"/>
<path d="M64.7867 200.848C56.0149 200.848 48.8799 207.985 48.8799 216.755C48.8799 225.525 56.0149 232.662 64.7867 232.662C73.5585 232.662 80.6935 225.525 80.6935 216.755C80.6935 207.985 73.5585 200.848 64.7867 200.848ZM76.8859 216.755C76.8859 223.427 71.4584 228.854 64.7867 228.854C58.115 228.854 52.6875 223.427 52.6875 216.755C52.6875 210.083 58.115 204.656 64.7867 204.656C71.4584 204.656 76.8859 210.083 76.8859 216.755Z" fill="#FA198C"/>
</g>
<g clip-path="url(#clip2_6299_5552)">
<path d="M322.619 244.346C320.407 244.346 318.323 244.88 316.46 245.809L305.741 228.234C309.106 225.649 311.296 221.578 311.296 216.984C311.296 209.195 305.021 202.86 297.307 202.86C295.095 202.86 293.01 203.394 291.148 204.323L280.534 186.919H263.455L252.841 204.323C250.979 203.394 248.894 202.86 246.682 202.86C238.968 202.86 232.693 209.195 232.693 216.984C232.693 221.578 234.884 225.649 238.249 228.234L227.529 245.809C225.667 244.88 223.582 244.346 221.37 244.346C213.656 244.346 207.381 250.681 207.381 258.47C207.381 266.258 213.656 272.594 221.37 272.594C228.63 272.594 234.619 266.974 235.296 259.816H258.058C258.735 266.974 264.714 272.594 271.984 272.594C279.254 272.594 285.233 266.974 285.91 259.816H308.672C309.349 266.974 315.328 272.594 322.598 272.594C330.312 272.594 336.587 266.258 336.587 258.47C336.587 250.681 330.312 244.346 322.598 244.346H322.619ZM297.307 205.563C303.55 205.563 308.619 210.691 308.619 216.984C308.619 223.277 303.54 228.405 297.307 228.405C291.074 228.405 285.995 223.277 285.995 216.984C285.995 210.691 291.074 205.563 297.307 205.563ZM265.846 188.159C267.709 189.088 269.794 189.622 272.005 189.622C274.217 189.622 276.302 189.088 278.164 188.159L288.884 205.734C285.518 208.319 283.328 212.39 283.328 216.984C283.328 221.578 285.518 225.649 288.884 228.234L278.164 245.809C276.302 244.88 274.217 244.346 272.005 244.346C269.794 244.346 267.709 244.88 265.846 245.809L255.127 228.234C258.492 225.649 260.682 221.578 260.682 216.984C260.682 212.39 258.492 208.319 255.127 205.734L265.846 188.159ZM235.381 216.984C235.381 210.68 240.46 205.563 246.693 205.563C252.926 205.563 258.005 210.691 258.005 216.984C258.005 223.277 252.926 228.405 246.693 228.405C240.46 228.405 235.381 223.277 235.381 216.984ZM221.391 269.902C215.148 269.902 210.079 264.773 210.079 258.48C210.079 252.188 215.159 247.059 221.391 247.059C227.624 247.059 232.704 252.188 232.704 258.48C232.704 264.773 227.624 269.902 221.391 269.902ZM235.307 257.124C234.926 253.085 232.852 249.549 229.815 247.23L240.534 229.655C242.397 230.585 244.481 231.119 246.693 231.119C248.905 231.119 250.989 230.585 252.852 229.655L263.571 247.23C260.534 249.559 258.46 253.096 258.079 257.124H235.317H235.307ZM272.005 269.902C265.762 269.902 260.693 264.773 260.693 258.48C260.693 252.188 265.772 247.059 272.005 247.059C278.238 247.059 283.317 252.188 283.317 258.48C283.317 264.773 278.238 269.902 272.005 269.902ZM285.921 257.124C285.54 253.085 283.466 249.549 280.428 247.23L291.148 229.655C293.01 230.585 295.095 231.119 297.307 231.119C299.518 231.119 301.603 230.585 303.466 229.655L314.185 247.23C311.148 249.559 309.074 253.096 308.693 257.124H285.931H285.921ZM322.619 269.902C316.376 269.902 311.307 264.773 311.307 258.48C311.307 252.188 316.386 247.059 322.619 247.059C328.852 247.059 333.931 252.188 333.931 258.48C333.931 264.773 328.852 269.902 322.619 269.902Z" fill="black" stroke="black" stroke-width="0.75" stroke-miterlimit="10"/>
<path d="M272.005 189.59C279.698 189.59 285.963 183.265 285.963 175.498C285.963 167.731 279.698 161.406 272.005 161.406C264.312 161.406 258.048 167.731 258.048 175.498C258.048 183.265 264.312 189.59 272.005 189.59ZM260.683 175.498C260.683 169.195 265.762 164.077 271.995 164.077C278.227 164.077 283.307 169.205 283.307 175.498C283.307 181.791 278.227 186.919 271.995 186.919C265.762 186.919 260.683 181.791 260.683 175.498Z" fill="#FA198C" stroke="#FA198C" stroke-width="0.75" stroke-miterlimit="10"/>
</g>
<defs>
<clipPath id="clip0_6299_5552">
<rect width="118" height="115" fill="white" transform="translate(113)"/>
</clipPath>
<clipPath id="clip1_6299_5552">
<rect width="130" height="130" fill="white" transform="translate(0 152)"/>
</clipPath>
<clipPath id="clip2_6299_5552">
<rect width="130" height="112" fill="white" transform="translate(207 161)"/>
</clipPath>
</defs>
</svg>
