<svg width="798" height="27" viewBox="0 0 798 27" fill="none" xmlns="http://www.w3.org/2000/svg">
<path fill-rule="evenodd" clip-rule="evenodd" d="M782.466 25.5611C779.897 24.9718 774.972 26.1555 772.693 25.159C776.139 24.7029 781.222 25.1777 783.634 24.1336C781.24 23.8435 777.835 24.1732 775.062 24.1155C776.2 23.368 778.63 23.3555 779.811 22.6325L779.803 22.2048C775.914 21.7366 771.013 21.9133 766.195 21.988C769.16 20.8598 772.164 21.8954 776.678 21.5485C777.314 21.3625 777.135 20.9123 776.915 20.5633C771.383 21.2028 768.389 20.6956 763.316 20.7743C762.913 19.7486 759.642 20.4537 757.806 20.306L757.793 19.6015C757.194 19.485 755.752 19.91 755.869 19.3545C758.512 19.3135 759.758 19.7724 761.577 18.9891L761.587 19.5427L764.23 19.5017C764.951 19.2892 764.725 18.5628 766.136 18.7674C766.53 19.315 765.502 19.0793 765.421 19.3322C766.249 20.2757 768.486 19.0078 770.668 19.4018C771.299 18.9642 771.673 18.4047 773.037 18.3835C772.99 18.1326 773.28 17.6751 772.558 17.8373C773.747 17.542 775.969 17.8095 775.391 16.535C777.009 16.384 778.325 16.0868 778.693 15.2254C778.432 14.9526 777.329 15.2214 777.236 14.8201C775.283 15.3034 772.127 15.302 770.079 15.208C769.439 15.1927 768.933 15.5026 768.634 15.5072C758.656 15.5613 746.378 15.7266 735.005 16.4567C729.83 15.6561 722.482 17.2298 717.824 16.7231C717.142 16.7337 717.15 17.1615 716.641 17.2952C715.219 16.5119 713.028 17.9301 711.648 17.0958C709.145 17.8393 703.886 17.0652 701.642 17.9557C701.002 17.9153 700.952 17.5385 700.691 17.2657C699.412 17.2856 697.961 17.2074 697.371 17.5941C697.63 17.7662 698.058 17.8351 697.853 18.2913C692.207 17.3722 684.637 18.4963 679.455 17.3183C683.209 17.3859 684.912 17.2336 688.29 17.7349C689.095 17.4456 687.981 17.186 688.018 16.8834C683.621 16.6245 679.198 17.2468 675.391 16.6514C672.805 17.4466 670.21 15.5237 667.499 16.497C665.236 16.3308 661.811 15.6289 659.607 16.3426C660.056 17.5437 664.425 16.3182 665.591 17.1055C666.524 16.789 667.888 16.7427 669.381 16.7698C669.865 17.5929 668.496 17.3876 668.205 17.7696C663.077 17.1948 658.365 18.3501 653.19 17.5746C652.884 17.1264 653.956 17.4621 653.649 17.0138C654.205 17.1059 655.07 17.7468 655.786 17.2575C655.054 16.8914 653.428 16.5643 652.669 17.0291C652.787 16.5239 651.936 16.6377 651.928 16.1848C648.405 17.0952 643.649 15.8351 640.508 16.6388C638.237 16.0449 635.601 16.5136 632.616 16.4844C631.936 16.6459 632.033 17.2485 631.182 17.3623C631.173 16.8843 630.195 17.0253 630.228 16.5214C626.729 16.3995 624.008 16.8444 620.926 16.2378C621.256 15.6035 624.533 15.2507 624.721 16.179C627.688 15.2018 632.871 16.4553 635.459 15.7356C638.112 16.2481 640.968 16.1535 643.815 15.606C646.425 16.094 650.511 15.6783 653.839 15.7273C654.047 15.4724 654.73 15.487 654.55 15.0116C656.09 15.2394 656.164 14.6342 656.928 14.421C657.194 14.9958 656.685 15.1295 656.219 15.2877C656.694 15.6076 657.675 15.6175 658.15 15.9625C658.616 15.8042 659.126 15.6705 659.592 15.5123C660.004 14.7508 658.055 15.4103 658.382 14.6753C658.595 14.672 658.549 14.4966 658.633 14.3946C660.515 14.7178 663.03 14.6284 665.081 14.8483C665.269 15.8017 668.805 15.6462 669.863 15.202C669.868 15.4536 670.167 15.4992 670.129 15.7515C671.451 15.731 673.031 15.8324 673.705 15.4192C673.615 15.1186 673.27 14.9226 672.757 14.8802C678.376 14.3149 683.017 16.2563 688.973 15.4844C689.304 14.9004 688.453 15.0394 688.489 14.6362C689.921 13.6576 691.474 14.6654 693.477 14.5589C693.658 15.1349 693.365 15.4415 692.77 15.5514C692.689 15.7791 692.988 15.7997 693.034 15.9751C693.595 16.3691 694.782 15.948 695.163 15.7911C697.698 16.834 699.807 15.568 702.548 16.2302C703.06 16.2223 702.622 15.625 702.788 15.3708C704.081 16.0806 705.093 15.4609 706.38 15.8688C707.017 15.7582 706.836 15.1822 707.56 15.1458C708.412 15.0822 707.873 15.896 708.303 16.1158L709.753 16.0933C710.264 16.0854 709.827 15.4881 709.993 15.2339C712.545 14.8923 712.483 16.1768 714.319 16.2993C718.405 15.8333 725.057 15.8056 728.634 15.5236C729.192 15.7415 729.919 15.856 731.026 15.7633C731.362 15.4561 732.085 15.3442 732.204 14.8894L735.061 14.8451C736.152 16.2124 738.856 14.8617 740.304 14.7637C740.986 14.728 741.93 15.0405 742.697 15.0035C743.89 14.9598 744.945 14.3394 745.809 14.9552C746.579 15.0691 746.142 14.497 746.739 14.5129C749.935 14.3627 753.123 13.835 755.316 14.8077C759.703 14.5132 764.651 14.5623 768.434 13.8996C770.745 14.3168 772.953 13.8295 775.327 13.088C775.459 13.2873 775.043 13.8222 775.596 13.7885C776.912 13.4661 778.099 13.0701 779.156 12.6007C779.488 12.0671 778.512 12.3339 778.675 11.9035C777.363 12.4775 776.795 11.7565 774.88 11.9623C774.245 12.2239 774.041 12.7052 773.233 12.8436C771.732 12.3887 770.695 11.6497 769.405 11.0657C772.337 10.4917 776.381 12.4173 778.486 10.9249C777.801 10.7845 777.031 10.6706 776.346 10.5302C776.336 9.95153 777.446 10.0601 777.996 9.79993C775.81 9.17948 771.473 9.9011 769.878 8.94431C769.948 8.13785 771.829 8.38552 773.193 8.3392C773.272 8.01079 772.761 8.04389 772.924 7.63867C772.022 7.27515 769.206 7.21815 768.621 7.85642C767.932 7.4896 766.778 7.38165 765.288 7.48027C765.428 5.81703 768.898 6.71957 770.521 6.84541C770.988 6.71233 771.023 6.3091 770.972 5.85687L772.891 5.82711L772.88 5.27358C768.099 4.97024 762.348 5.33627 758.092 5.7798C757.58 5.78774 758.018 6.38498 757.852 6.63923C760.16 6.90545 761.443 7.11206 763.099 6.70886C762.767 7.24252 764.165 6.71749 763.834 7.25115C760.775 7.87745 755.992 7.52378 752.416 7.85609C751.941 7.56144 751.467 7.29195 751.204 6.89335C752.776 6.59212 755.646 7.25231 756.696 6.38032C754.378 5.56057 748.974 6.22324 744.759 6.56547C744.556 7.12231 745.575 6.90515 745.246 7.53946C744.23 7.95789 741.92 7.59103 741.939 8.57229C741.422 8.30346 740.4 8.36965 740.01 8.04852C737.503 8.56558 734.552 8.08284 731.441 8.18143C729.31 8.26481 728.263 9.28777 725.749 9.40226C725.615 9.10232 726.214 9.1937 726.21 8.96726C725.179 8.58056 724.128 9.37707 723.364 9.56509C723.368 9.8167 723.668 9.86239 723.63 10.1147C726.937 9.08182 734.042 10.4817 736.026 9.3687C737.661 10.1739 741.255 8.50739 742.473 9.82239C738.342 10.0878 734.635 10.2963 729.35 10.4538C729.271 10.7822 728.33 10.5955 728.423 11.0219C723.265 11.127 718.36 11.1024 714.088 10.6905C713.537 10.9004 712.814 10.9871 712.436 11.2698C710.077 10.5765 705.611 11.1743 703.337 10.4294C703.584 9.9474 704.952 10.1527 704.509 9.27868C703.737 9.03897 702.67 8.98002 702.109 8.61121C703.341 8.36559 705.091 8.43912 705.203 7.58168C706.4 7.71413 707.174 8.07963 708.075 8.39283C708.742 7.57712 709.733 8.11544 710.453 7.80227C711.059 8.32138 714.142 8.97827 714.977 8.00894C716.951 8.68302 719.477 6.93243 721.883 7.90182C722.65 7.88992 722.642 7.41187 723.064 7.17881C724.948 7.57745 725.199 7.34703 726.663 8.10453C727.431 8.11778 727.682 7.86221 727.847 7.53248C730.236 7.59609 731.298 7.37828 732.371 7.73915C732.792 7.45578 732.998 7.07506 733.291 6.74334C735.367 8.34704 739.138 7.03016 741.665 7.595C742.041 7.18648 743.366 7.34211 743.57 6.86075C743.86 6.40323 742.801 6.77201 743.091 6.31449C742.023 6.23038 741.515 6.4396 740.964 6.62432C739.127 6.40115 735.365 5.90581 733.797 6.45864C728.468 6.5413 719.246 5.95448 712.348 6.51449C711.702 6.17216 710.593 6.18935 709.96 6.55152C705.766 5.7357 698.324 6.883 694.685 6.08375C694.35 6.41613 693.368 6.35586 693.248 6.81073C690.809 6.34521 688.075 6.0856 684.666 6.23915C684.548 6.7695 685.4 6.73112 685.873 6.92513C685.839 7.40384 684.642 7.24623 684.695 7.7991C685.257 8.19307 687.548 7.57867 687.815 8.17856C688.106 7.77136 689.432 7.97731 689.465 7.44827C690.924 7.929 691.76 7.06032 692.795 7.67346C693.646 7.55959 693.074 6.61209 694.442 6.79222C694.794 7.36562 693.939 7.25304 693.989 7.65495C694.08 7.95555 695.184 7.68675 695.654 7.78012C695.986 7.24646 695.01 7.51327 695.172 7.0829C695.6 7.12661 695.64 6.97498 695.636 6.79886C696.839 7.28355 698.085 7.76759 700.427 7.58026C700.902 7.92523 700.224 8.13709 700.701 8.55755C701.471 8.72177 700.863 8.10202 701.634 8.26624C701.449 9.8295 695.835 8.30585 695.219 9.62411C694.397 8.9825 693.565 10.0776 692.827 9.38438C692.96 9.68432 692.362 9.59293 692.366 9.81938C694.29 10.1167 696.679 10.13 698.35 10.5823C697.982 11.4437 696.348 10.714 695.03 10.9106C694.518 10.9185 694.911 11.4158 694.787 11.6191C694.065 11.7561 692.351 11.3548 692.405 11.9329C691.759 11.5905 690.906 11.6038 690.273 11.9659C689.551 12.1281 689.841 11.6706 689.794 11.4197C688.298 11.2164 688.267 11.846 686.943 11.7407L686.93 11.0362L689.061 11.0032C688.753 10.4794 687.939 10.2656 687.125 10.0517C687.749 9.23662 689.174 10.1709 690.237 10.0034C690.099 9.47702 688.991 9.51937 689.022 8.8897C684.217 9.61859 679.544 8.28168 674.951 8.95695C674.623 9.69189 675.687 9.54956 675.443 10.2077C674.462 10.2229 674.073 9.92693 673.303 9.81304C673.295 9.33498 673.674 9.10259 674.484 9.09002C672.25 8.21863 670.25 8.40067 668.044 9.03891C667.821 8.51385 666.164 8.86672 666.11 8.21321C662.711 8.94544 658.26 8.08328 655.371 8.65661C654.436 8.79696 654.766 8.18782 653.703 8.40563C653.164 9.21937 654.775 8.69103 654.657 9.24655C653.845 9.15847 653.507 9.33988 653.729 9.81462C655.31 9.94112 657.049 9.43596 658.251 9.89549C659.061 9.88293 658.838 9.30754 659.691 9.31948C660.462 9.50886 660.558 10.1114 662.088 9.83598C662.511 9.65324 662.547 9.27517 663.013 9.11694C663.654 9.15734 663.703 9.53409 663.964 9.80688C664.889 9.113 666.442 10.0705 667.3 10.3088C666.409 10.5492 666.934 11.2961 667.787 11.2828C666.43 11.7066 664.334 11.3364 662.799 11.3602C661.988 11.3224 662.556 12.0687 661.357 11.8104C661.438 11.5575 661.181 11.5363 660.883 11.5409C661.09 11.2105 661.857 11.1735 662.322 10.9649C662.062 10.7424 661.212 10.8814 661.121 10.5557C660.351 10.4166 660.528 10.7914 660.188 10.847C657.783 9.95309 653.154 11.0064 649.439 10.7369C648.591 10.9765 649.303 10.2608 648.707 10.3204C647.723 10.1343 647.945 10.6342 647.262 10.6196C647.461 9.83635 645.509 10.37 646.045 9.38012C647.406 9.15767 646.996 10.0449 648.441 9.77082C648.994 9.7119 648.513 9.065 648.678 8.78559C643.468 8.33789 640.621 8.91056 635.795 8.55756L635.78 7.7021C637.738 7.49556 638.725 7.88292 640.304 7.90877C640.945 7.9995 640.121 7.25724 640.763 7.34797C642.308 7.90285 646.131 7.11369 646.96 8.10754C647.382 7.87449 647.891 7.69043 647.667 7.11504C649.078 7.34482 648.858 6.94556 650.049 6.80125C650.735 7.01711 653.051 7.6859 653.158 6.60201C649.229 6.26028 642.913 6.0059 638.831 6.67323C635.072 6.30369 630.036 6.13011 625.692 6.44917C625.089 6.10618 622.743 6.06706 621.853 6.35772C622.548 7.07679 625.816 6.22074 626.849 6.70808C627.118 7.45892 624.129 7.22845 623.995 6.90334C623.484 6.9616 623.147 7.16817 623.067 7.47142C625.034 7.74293 626.79 8.14355 628.588 8.51835C627.835 9.31022 625.428 8.31567 624.287 8.8619C624.51 9.38696 623.92 9.77363 624.308 9.99412C626.408 10.5656 629.152 9.06328 629.82 10.6133C627.639 10.2445 624.975 11.4938 624.572 10.4179C623.759 10.2795 624.196 10.8516 624.116 11.1297C621.262 11.3249 616.934 10.2092 617.232 12.4948C616.592 12.4292 615.36 12.7 615.098 12.3769C615.347 11.9955 616.07 11.9088 616.75 11.7976C616.653 11.1447 615.881 10.905 615.278 10.562C614.293 10.376 614.516 10.8759 613.833 10.8613C613.145 10.5196 611.95 10.4878 612.147 9.62905C613.295 9.40991 613.134 9.96608 614.071 9.87606C614.96 9.50992 613.55 9.35562 613.797 8.89877C613.16 9.05965 611.969 9.20396 611.663 8.78086C611.31 8.13198 612.766 8.48691 612.843 8.05785C612.911 7.07527 611.965 6.68725 612.551 6.0993C611.269 5.94301 611.581 6.64288 610.643 6.68259C610.251 6.21049 609.479 5.97079 608.96 5.57615C610.956 5.16767 614.677 5.76431 615.856 4.9155C612.861 4.40825 610.377 3.79243 607.276 4.49488C606.631 4.17771 603.515 3.99954 602.971 4.56166C602.584 4.41665 602.366 4.16835 602.022 4.02268C600.079 4.98404 596.854 3.54916 595.121 4.40657C595.218 5.05942 596.539 4.96344 597.058 5.35807C598.881 4.80127 604.611 5.6436 607.289 5.19937C607.512 5.72444 609.212 5.3709 608.97 6.15484C606.849 6.74144 603.048 6.42288 600.15 6.56849C599.988 6.99886 600.964 6.73205 600.632 7.26571C601.869 7.24653 603.188 7.12539 603.497 7.64914C603.847 8.17222 602.431 7.69083 602.782 8.21391C602.833 8.64098 603.811 8.52512 603.989 8.89989C603.193 9.69243 603.012 9.14154 601.135 9.09516C599.556 9.04414 597.813 9.32286 596.829 9.16194C596.231 9.07056 595.542 8.72889 594.181 8.92617C593.979 9.55849 595.17 9.36386 595.137 9.89289C596.786 9.13744 598.651 10.8451 601.111 10.0771C601.501 10.4485 602.103 10.716 601.861 11.4748C601.306 11.4331 600.962 11.2623 600.196 11.3497C600.189 10.9471 599.381 11.0854 599.711 10.5015C598.9 10.4637 599.339 11.1113 599.002 11.3682C598.443 11.1 597.504 11.0642 596.354 11.1324C596.026 11.8673 597.09 11.725 596.846 12.3832C595.871 12.7003 595.096 12.2845 593.734 12.4314C593.907 12.5797 594.291 12.5738 594.211 12.8519L593.017 12.8704C593.734 12.4314 592.831 12.0176 591.805 11.9076C591.294 11.9156 591.731 12.5128 591.565 12.7671C592.59 12.8518 593.278 13.1432 593.502 13.7186C594.442 13.8298 594.09 13.2313 595.159 13.416C595.423 13.8146 595.426 13.9907 595.178 14.3973C593.815 14.5191 592.307 13.6868 591.383 14.4561C588.991 14.2416 588.624 12.8127 587.75 11.6937C588.349 11.8102 588.653 12.1075 589.674 11.9407C589.708 11.4872 589.279 11.3428 588.723 11.2508C589.691 10.5814 588.278 10.2761 589.161 9.55773C586.588 8.81743 583.896 8.532 580.581 9.13711C581.231 9.68073 582.64 9.78471 583.248 10.3541C582.394 10.317 581.713 10.3779 581.119 10.5382C580.832 11.197 581.938 11.0037 581.609 11.6631C580.198 11.4837 579.673 10.7619 578.937 10.1442C577.873 10.2613 577.357 10.068 576.8 9.90046C575.437 9.9971 576.945 10.8546 575.624 10.9002C574.79 9.57929 578.064 9.05033 578.718 9.8707C579.486 9.88396 579.737 9.62839 579.902 9.29866C579.896 8.99673 578.878 9.26421 578.45 9.17018C577.7 7.84791 576.013 8.83046 574.381 8.25173L574.366 7.39628C575.303 7.33141 575.271 7.93592 575.815 7.37379C576.625 7.36123 576.423 7.94323 577.275 7.90484C577.995 7.66716 578.457 7.28248 579.393 7.16729C576.512 5.85292 570.341 6.52749 566.026 6.11623C565.648 6.42411 565.959 7.09881 564.59 6.84321C564.868 8.04695 568.055 7.46898 569.135 8.18211C569.486 8.70519 568.069 8.2238 568.42 8.74688C567.433 8.38468 566.111 8.38002 564.834 8.52566C564.837 8.70178 564.796 8.77792 564.583 8.80639C565.077 10.1578 568.776 9.54673 571.295 9.68384C571.647 10.3076 570.621 10.1221 570.844 10.6724C569.565 10.667 568.538 10.4816 567.047 10.5803C566.536 10.6385 566.975 11.2861 566.809 11.5655C566.21 11.4489 564.768 11.874 564.886 11.3185C564.336 11.5787 564.217 12.0587 562.977 11.9018C562.855 12.2308 563.295 12.9287 562.742 13.038C560.465 12.0917 561.152 10.0425 559.083 8.86653C559.849 8.77915 560.278 8.89834 560.538 9.12082C562.168 7.30863 554.647 8.78434 553.139 7.97719C552.001 8.67437 550.963 7.88511 549.345 8.03604C549.121 7.43549 550.017 7.47193 550.052 7.04354C550.044 6.64097 549.321 6.72769 549.314 6.35028C547.274 6.73427 542.184 5.93234 541.229 7.33138C543.071 7.78099 547.148 6.8369 547.683 8.08699C547.257 8.11876 546.486 7.95454 546.75 8.3783C545.035 7.90154 540.687 7.99415 539.593 8.76616C538.78 8.65292 538.516 8.17883 537.914 7.93649C535.577 8.40058 534.499 7.76294 530.544 8.32765C530.485 9.73796 534.853 8.43699 535.342 9.51162C534.033 10.2366 532.531 9.68106 531.558 10.124C530.701 9.88562 530.307 9.3632 528.691 9.61477C528.32 10.3001 529.383 10.1326 529.434 10.5848C528.198 10.604 527.298 10.3914 527.285 9.63659C526.219 9.65313 525.54 9.83983 525.163 10.2232C524.379 9.32931 521.318 9.82981 520.154 9.16833C521.004 9.00414 523.018 9.50143 522.789 8.6996C523.184 9.27234 525.569 9.13467 526.115 8.64803C526.934 9.11351 528.933 8.83083 530.426 8.85801C530.756 8.27402 529.906 8.41305 529.941 8.00982C525.767 8.27591 521.149 7.61767 518.521 8.4638C518.276 9.09678 520.267 8.36121 519.727 9.14978C516.8 9.95023 514.67 7.79366 510.629 8.30937C510.043 8.92248 510.491 10.0984 510.926 10.5447C509.643 10.3884 507.813 10.5678 508.259 9.32766L509.922 9.30187L509.912 8.74834C509.738 8.57486 507.56 8.43246 507.783 8.93236C507.139 8.69068 506.959 8.19011 506.315 7.97359C505.937 8.2563 504.74 8.0987 504.879 8.70056C502.743 8.50718 502.029 9.12228 500.109 9.05139L500.099 8.49786C499.2 8.31046 499.637 8.88254 498.91 8.79314C499.241 8.25948 498.266 8.52629 498.428 8.09592C498.508 7.79267 498.845 7.5861 499.356 7.52784C500.081 7.5166 500.089 7.94433 500.096 8.37206L502.228 8.33899C502.684 7.65238 501.411 7.97415 501.488 7.49478C502.422 7.30411 501.965 7.94039 502.942 7.74906C503.282 7.69345 503.149 7.39351 503.188 7.19156C501.647 6.91344 500.191 6.55851 498.651 6.28039C497.708 6.0685 498.576 6.88557 497.936 6.84517C497.169 6.88223 496.909 6.63459 496.732 6.31015L493.62 6.35842C492.068 7.76672 488.642 6.96416 486.458 6.46951C485.559 6.28211 485.996 6.85419 485.269 6.76479C482.912 6.12183 478.034 7.53138 475.245 6.64342C474.779 6.80166 474.27 6.93539 473.804 7.09363C473.822 8.07489 475.944 7.51346 476.45 7.2036C476.289 7.75977 477.858 7.28242 477.656 7.88958C478.052 8.51264 476.078 7.83856 476.473 8.46163C477.939 9.31976 481.498 8.08167 481.991 9.35758C479.726 9.14102 478.334 9.94282 477.003 9.43495C476.408 9.57001 476.072 9.8269 475.563 10.011C475.737 10.1593 476.12 10.1533 476.04 10.4314C477.315 10.2103 479.06 10.0071 480.346 10.3646C477.118 11.0691 474.144 11.6689 470.127 11.2278C469.924 11.7847 470.522 11.8257 470.868 12.072C472.179 11.498 472.62 12.2965 474.452 12.1675C474.719 12.7673 474.21 12.9514 474.004 13.307C471.91 13.0626 470.785 12.2243 467.806 12.5474L467.785 11.4152C464.959 10.7543 461.051 11.6203 457.762 11.2938C457.857 11.846 456.358 11.5169 456.325 12.0208C454.266 11.348 452.953 11.8717 450.602 11.5558L450.589 10.8513C449.569 11.0433 449.519 10.6414 448.921 10.6004C448.527 10.0528 449.943 10.5342 449.851 10.1581C447.79 9.3847 441.821 9.47727 439.567 9.76392C433.798 9.12354 428.518 9.55778 424.291 9.29616C423.969 10.333 425.376 10.3364 426.952 10.2364C427.3 10.5582 427.478 10.9581 427.909 11.2031C429.178 10.6549 429.488 11.2793 431.234 11.1516C431.541 11.5998 430.468 11.2641 430.775 11.7124C428.809 11.466 427.701 11.5084 426.469 11.7791C425.741 11.6143 425.814 10.9588 425.255 10.6654C424.484 10.5012 425.092 11.121 424.322 10.9568C423.496 10.139 423.514 8.77969 420.496 9.32985L420.504 9.75758C420.767 10.131 421.493 10.1953 422.177 10.2853C422.148 11.0408 421.198 10.4012 420.522 10.7388C420.531 11.2169 421.509 11.0759 421.476 11.5797C420.021 11.2751 419.895 11.4281 418.838 11.8975C418.791 11.6466 419.081 11.1891 418.359 11.3513C417.117 11.0685 418.159 12.0591 417.175 11.9233C416.48 11.2042 414.941 11.0016 413.36 10.8499C414.715 10.3256 412.245 10.5149 412.404 9.88322C412.957 9.79914 413.509 9.66474 414.32 9.7025C414.517 8.81857 412.858 9.07081 413.351 8.03129C411.212 7.66178 407.586 7.61735 404.992 8.00993C401.106 7.74302 396.449 7.2364 393.308 8.04015C394.724 8.49638 396.814 8.56462 398.82 8.65934C399.331 8.60109 399.024 8.12767 399.535 8.09457C403.244 8.0622 405.646 8.80515 409.567 8.64367C408.608 9.86659 404.752 8.89452 403.129 8.74352C402.835 8.9746 402.197 9.06 402.42 9.61022L400.757 9.63601C401.332 10.7093 403.778 9.26197 404.096 10.2889C403.978 10.8193 402.265 10.4683 401.974 10.8755C400.555 10.218 397.702 10.4636 395.777 10.1159C394.547 10.4622 396.308 11.1396 395.8 11.374C395.511 11.8566 394.73 11.1389 393.413 11.411C393.896 9.86827 391.217 10.2873 389.592 10.0609C389.371 9.61128 389.796 9.52919 390.048 9.34909C389.612 8.82734 388.29 8.82267 388.36 7.96589C385.202 7.86386 383.375 8.21938 380.262 8.24249C380.5 9.5727 384.912 8.32138 385.783 9.28942C386.712 8.82198 388.246 8.72269 388.898 9.39211C389.249 9.91519 388.263 9.67879 388.442 10.1039C389.134 10.6217 390.121 10.9587 391.572 11.0369C391.411 11.5427 389.111 11.7294 388.718 11.2321C388.338 11.389 388.129 11.644 387.791 11.8002C386.686 11.9935 386.972 11.3347 385.867 11.5532L385.844 10.2952L387.976 10.2621C387.109 9.49536 384.176 10.0442 382.719 9.63895C382.078 9.59855 382.946 10.4156 382.004 10.2037C382.91 10.7685 383.724 10.9573 385.124 10.5832C385.694 11.43 383.807 10.8553 384.205 11.579C383.682 11.0082 381.641 11.3419 381.566 11.8968C380.031 11.8954 379.17 11.4557 377.762 11.4021C377.553 11.657 376.871 11.6424 377.05 12.1178C378.505 12.3973 379.875 12.6529 381.359 12.202C381.456 12.8548 379.615 12.4304 379.453 12.9362C376.675 12.6018 374.086 13.2712 370.365 12.6494L370.349 11.7939C369.539 11.8065 369.763 12.3818 368.91 12.3699C368.904 12.0428 368.476 11.974 368.638 11.5184C368.933 11.3125 369.659 11.3516 370.298 11.3417C369.901 10.6431 368.535 10.5385 368.138 9.81478C366.753 11.0443 363.742 9.65645 361.71 10.4682C361.969 10.6403 362.397 10.7092 362.192 11.1654C361.045 11.3845 361.205 10.8283 360.269 10.9184C360.015 11.0481 359.805 11.2024 359.552 11.3573C360.371 11.8228 363.255 10.9979 363.356 11.852C360.966 11.7381 359.14 12.1691 357.857 11.9373C357.581 13.1497 360.636 12.3221 360.992 13.1471C357.324 13.1033 355.834 13.2271 352.415 12.8523C352.745 12.2683 351.895 12.4073 351.93 12.0041C352.648 11.5903 353.192 11.0533 355.029 11.2513C353.054 10.4766 349.222 10.838 345.939 10.8386C345.428 10.8969 345.866 11.5444 345.701 11.8239C347.626 12.1463 350.717 10.9659 350.699 12.3C348.521 12.1073 346.007 12.247 343.324 12.4144C342.713 13.9591 337.331 13.5141 334.981 13.2485C334.92 12.2931 333.089 12.397 332.818 11.5958L330.686 11.6289C330.682 11.3773 330.382 11.3316 330.42 11.0793C329.65 10.9151 330.258 11.5349 329.487 11.3706C327.212 10.5502 324.206 11.7042 322.335 12.0353C321.359 12.2518 321.562 11.7452 320.881 11.781C320.627 11.8856 320.631 12.112 320.161 12.069C320.34 12.5192 322.177 12.6921 322.551 12.1829C322.94 12.4286 323.876 12.3134 324.011 12.714C321.844 13.1503 318.945 13.1701 316.39 13.3859C317.163 13.6759 318.153 14.1639 317.141 14.7836C315.126 14.2108 311.72 14.5153 308.777 14.4855C308.809 13.9313 307.619 14.1511 307.568 13.6485C306.384 14.1954 304.984 14.5947 302.808 14.5781L302.793 13.7226L305.649 13.6783C305.812 13.2479 305.215 13.2823 305.377 12.8268C304.607 12.6626 304.217 12.3163 302.982 12.4361C302.604 12.7188 302.656 13.2717 301.804 13.3101C302.889 14.3251 299.658 14.8534 297.311 14.7892C297.449 15.3407 298.346 15.4023 299.453 15.3096C299.76 15.7579 298.688 15.4222 298.994 15.8704C297.324 15.4685 294.304 15.918 293.013 15.2585C292.787 14.5573 293.724 14.5428 294.188 14.2587C293.965 13.7337 293.068 13.6218 293.435 12.71C292.869 12.0896 289.878 11.7837 290.33 13.186C289.944 13.041 289.726 12.7927 289.382 12.6471C288.633 13.6151 285.34 13.1376 283.211 13.2965L283.221 13.85C283.483 14.1731 284.714 13.8772 285.355 13.9679C285.494 14.5446 283.521 13.946 284.178 14.8419C283.282 14.8558 283.568 14.1718 282.505 14.3141L282.487 13.3329C280.956 13.5831 278.994 13.5632 277.722 13.9605C276.214 13.1281 271.923 14.0001 270.795 12.9354C269.358 13.6372 270.437 14.3503 269.64 15.0674C268.268 14.6859 269.319 13.8391 269.348 13.1088C266.573 12.9253 262.267 13.0173 259.795 13.106C259.722 13.7363 261.123 13.4125 261.261 13.9389C260.748 13.8714 259.602 14.1912 259.806 13.6847C259.813 14.0872 258.486 13.7806 258.623 14.2567C257.977 13.9144 257.124 13.9276 256.491 14.2898C257.093 14.5824 257.106 15.2618 257.455 15.6842C256.172 15.4776 254.719 15.3491 253.605 15.0392C255.12 13.9587 252.301 13.7256 252.114 12.8224C252.713 12.939 253.017 13.2363 254.038 13.0694C253.759 11.8154 252.425 11.2069 249.954 11.2955C249.579 11.7795 249.204 12.2635 248.527 12.576C245.74 11.7384 242.863 12.9911 240.437 13.2552C240.654 13.4532 241.251 13.4188 241.383 13.6684C242.282 13.8558 241.845 13.2837 242.572 13.3731C242.578 13.7002 243.006 13.7691 242.843 14.2246C245.742 14.1545 246.279 15.5304 248.587 15.8217C252.127 15.8172 255.119 16.1986 258.616 16.2199C261.011 16.5603 264.398 17.5648 266.727 16.6478C267.099 16.038 265.405 16.6934 265.778 16.1088L266.247 16.1015L266.242 15.8248C266.964 15.6625 266.674 16.1201 266.721 16.371C268.682 16.3154 270.137 16.5697 272.224 16.4367C271.149 15.95 270.96 14.9462 270.517 14.0722L274.823 14.0054L274.841 14.9867C276.039 15.2198 276.715 14.8821 278.166 14.9351C278.343 15.2595 277.76 16.0488 278.653 15.9091C278.792 16.4606 277.335 16.1057 277.731 16.7791C283.933 17.7651 292.781 16.5457 298.514 17.5893C300.293 16.9073 303.331 17.4642 304.957 17.7662C307.801 17.0426 310.332 17.8842 313.308 17.3598C313.548 16.5256 311.639 17.0585 311.627 16.4044L313.076 16.3819C312.805 15.5556 311.059 15.6581 309.956 16.0024C309.418 16.8413 311.662 16.0011 311.419 16.6844C309.936 17.1856 309.492 16.2613 307.833 16.4632C307.647 15.6356 308.672 15.7203 307.809 15.2052C308.32 15.1469 308.657 14.9404 308.737 14.6371C311 14.8033 312.252 15.6145 315.19 15.3927C315.416 16.0687 314.048 15.8635 314.273 16.5395C314.203 17.346 316.283 16.8355 316.677 17.3579C318.282 16.5528 321.547 17.8361 324.047 16.9668C324.999 17.7322 327.446 16.2597 328.571 17.1734C332.01 16.3399 336.128 17.6602 340.247 16.7155C342.051 17.3922 345.959 16.5514 347.159 16.8851C347.67 16.8269 348.007 16.6203 348.087 16.317C352.313 16.5787 356.863 15.8789 360.972 16.6709C361.087 15.9896 363.746 16.7789 363.818 16.073C365.153 16.7822 366.544 15.8798 368.337 16.0029C368.934 16.0189 367.347 15.5149 368.324 15.2985C369.131 15.1349 368.716 15.7202 368.806 15.9957C371.06 15.6587 372.824 16.5122 374.05 15.9143C374.832 16.7076 378.777 15.5893 379.56 16.3826C380.188 15.7688 383.014 16.4045 383.6 15.7662C385.321 16.6204 387.35 15.6326 389.109 16.2345C389.275 15.9802 389.83 15.9968 390.039 15.7922C388.957 14.9029 385.217 15.6153 384.05 14.7525C386.305 14.4659 391.247 14.213 391.704 15.8922C397.249 15.932 398.997 15.9049 403.391 15.9878C403.766 15.5038 404.744 15.3628 405.291 14.9768C406.711 15.6343 409.985 15.1556 411.742 15.5814C411.899 14.8743 410.454 15.1483 410.781 14.3379C412.484 14.1857 412.88 14.8591 414.372 14.8359C414.636 15.2848 413.995 15.1941 413.913 15.3967C414.605 15.8893 417.166 16.051 417.715 15.7656C420.449 16.0252 423.855 15.7207 427.27 15.8942C428.849 15.9704 430.265 16.4266 431.802 16.5286C435.132 16.7287 438.844 16.8221 440.835 16.1117C442.586 16.2355 445.349 15.7397 446.34 16.3031C447.111 16.4674 446.502 15.8476 447.273 16.0118C449.542 16.5303 453.414 16.0424 455.389 16.7417C456.102 16.1014 459.227 16.7828 459.897 16.118C460.455 16.3107 461.182 16.375 461.57 16.6458C462.081 16.5875 462.418 16.3809 462.498 16.0777C463.86 15.9559 465.827 16.2022 466.801 15.8599C465.595 15.2243 463.799 14.9501 463.901 13.514C464.199 13.5094 464.119 13.7623 464.164 13.9378C464.98 14.2523 466.766 13.9477 467.961 14.0299C467.872 13.7796 468.127 13.7505 468.425 13.7458C468.032 13.2234 468.038 13.5757 468.412 13.0413C469.658 13.5254 471.395 12.8944 471.543 13.9743C470.898 13.7075 469.79 13.7247 469.145 13.4578C468.696 14.547 471.717 14.1981 473.205 13.9485C473.728 14.5696 473.06 15.3099 473.495 15.7813C474.142 16.1991 476.518 15.5331 476.828 16.1574C481.757 15.2001 486.718 15.9285 490.631 15.3897C491.523 15.1745 491.107 15.7598 491.83 15.6479C494.367 14.5012 500.878 16.0361 502.768 14.4967C503.898 15.6117 506.866 14.7352 508.755 15.3854C509.478 15.2987 509.727 14.8921 510.191 14.6584C516.054 15.7755 524.05 14.5945 531.18 15.0376C534.295 15.1654 539.152 14.9139 542.871 15.4099C543.55 15.2484 543.454 14.6207 544.047 14.4102C544.859 14.5234 545.166 14.9716 545.514 15.3689L546.239 15.3577C546.751 15.3498 546.358 14.8525 546.482 14.6492C546.43 14.1718 544.691 14.677 544.809 14.1215C546.775 14.3427 547.366 14.0566 548.608 14.3394C547.843 14.4519 547.766 14.9062 548.158 15.3279C548.163 15.6299 549.182 15.3624 549.61 15.4564L549.626 16.3119L550.819 16.2934C550.811 15.8153 549.832 15.9563 549.866 15.4524C551.35 15.0016 554.989 15.7757 555.352 14.6626C555.835 15.385 558.398 15.6473 558.678 14.6111C561.668 14.917 564.364 15.3786 567.27 15.7362C567.821 15.5515 568.328 15.3171 569.396 15.4264C569.707 16.1011 568.597 15.9925 568.693 16.5698C569.121 16.689 569.339 16.9122 569.894 16.979C570.96 16.9625 570.732 16.1607 572.013 16.2415L571.997 15.386C573.955 15.1795 574.774 15.6701 575.594 16.1859C575.972 15.8781 575.032 15.792 575.834 15.3265C580.076 16.3933 585.684 15.2996 591.107 15.6433C591.646 14.8296 590.035 15.3579 590.153 14.8024C594.114 14.5145 595.736 16.9306 599.463 15.5137C601.009 16.1441 604.622 15.484 606.169 16.1144C606.72 15.9297 606.883 15.4993 607.605 15.3874C608.3 16.0562 609.922 16.1568 610.28 17.0322C609.596 16.9673 608.281 17.3148 608.609 16.6302C605.848 17.2267 602.842 16.0905 600.509 16.7559C595.625 15.5481 589.783 17.8786 585.484 16.0074C582.93 16.2483 580.879 16.0285 578.112 16.2727C578.038 16.9282 578.64 17.1706 579.79 17.1024C578.57 18.0022 574.29 17.1374 572.167 17.6485C567.112 16.393 561.092 18.3236 556.883 16.753C556.7 16.0511 558.253 17.0086 558.541 16.4504C557.463 15.8128 554.742 16.2325 553.537 15.6723C553.54 15.8485 553.499 15.9246 553.286 15.9531C552.438 16.1927 553.844 16.1458 553.553 16.5026C550.652 16.447 547.543 16.6714 544.978 16.3588C544.679 16.3131 544.543 15.8622 544.243 15.8165C543.045 15.5834 541.473 15.9098 540.449 15.8753C538.23 15.7839 536.783 15.9322 534.736 15.964C533.713 15.9798 532.462 15.219 531.624 16.0122C529.114 16.328 527.386 15.1468 525.911 16.1008C525.919 16.5034 526.726 16.365 526.396 16.949C525.072 16.8437 524.313 17.3085 523.284 16.9973C523.359 16.4424 524.295 16.3524 525.405 16.4107C525.565 15.8294 524.629 15.9445 524.199 15.7247C518.318 15.9418 510.382 15.7377 504.164 16.1865C504.518 16.8857 506.169 16.2057 506.807 16.1455L506.823 17.0009L509.679 16.9566C510.101 16.6984 510.307 16.2925 510.857 16.0827C514.66 16.5018 519.392 16.3781 523.026 16.8755C515.871 17.4143 506.871 17.277 499.197 17.3961C499.527 16.8121 498.677 16.9511 498.712 16.5479C492.179 16.0704 483.403 16.584 474.62 16.6447C474.33 17.1022 475.389 16.7335 475.099 17.191C474.461 17.2764 473.22 17.0439 472.97 17.375C472.641 18.0093 473.744 17.7405 474.427 17.7802C474.944 18.0491 472.681 17.908 472.043 17.9682C472.849 17.7292 472.247 17.4869 471.774 17.2677C471.177 17.277 471.183 17.6041 470.844 17.71C470.933 17.9099 471.443 17.8265 471.785 17.8464C470.99 18.7144 469.138 17.6861 467.013 18.0714C467.094 17.8437 467.778 17.9337 467.471 17.5106C467.298 17.3623 466.914 17.3683 466.994 17.0902C464.745 17.6787 462.938 16.8259 461.031 17.4595C459.268 16.6815 455.406 17.6978 454.119 17.2899C453.866 17.3945 453.87 17.6209 453.4 17.5779C453.11 18.0354 454.169 17.6666 453.879 18.1241C452.895 17.9632 451.658 17.9572 451.012 17.6149C448.25 18.1359 444.37 18.1709 442.907 17.4638C440.317 18.0576 436.632 17.1081 433.139 17.3384C433.147 17.741 433.954 17.6026 433.624 18.1866C427.131 17.5826 418.911 18.138 412.377 17.6605C411.739 17.7207 411.703 18.1239 410.72 17.963C403.88 17.0624 394.101 18.6486 388.277 17.3296L385.165 17.3779C382.806 16.6594 376.334 17.1876 373.217 17.0095C374.296 17.7226 378.075 16.7831 378.226 18.0643C376.43 17.8153 370.006 18.6197 367.478 17.9542C367.008 17.9112 366.753 17.9906 366.758 18.2422C366.203 18.2256 366.618 17.6152 366.745 17.5377C366.694 17.1106 365.547 17.3298 364.821 17.2907C364.958 17.7668 365.896 17.7774 366.033 18.2534C365.476 18.0859 364.96 17.8674 363.896 18.0097C363.763 17.7098 364.362 17.8012 364.358 17.5747C362.46 16.4464 358.055 18.05 355.267 17.1621C353.699 17.7401 350.279 17.2897 348.583 17.8194C348.428 18.6523 350.892 18.1359 351.229 17.9294C353.284 18.3254 358.017 18.3023 360.054 17.7925C359.682 18.4023 361.376 17.7468 361.003 18.3315C356.403 18.6797 351.574 18.1254 347.666 18.9662C338.925 19.0263 321.53 19.2206 311.434 19.805C311.458 21.1134 313.448 20.3526 314.556 20.3103C319.202 20.1627 325.859 20.4118 330.077 20.2205L330.093 21.076L333.887 21.0171C334.002 20.2855 333.188 20.0968 331.953 20.1914C331.775 19.7664 333.403 20.169 334.596 20.1504C335.79 20.1319 338.94 19.8314 336.515 20.1207C335.92 20.2557 335.627 20.5623 334.601 20.4272L334.612 20.9807C338.917 20.8636 345.593 22.1695 349.613 20.4712L349.626 21.1757C350.653 21.336 350.688 20.9327 351.284 20.8732C351.288 21.1248 351.463 21.3486 351.763 21.4194C352.017 21.3148 352.013 21.0884 352.483 21.1314C352.855 20.5216 351.246 21.1506 351.281 20.7222C352.886 19.8919 355.351 21.7161 356.994 20.6336C357.885 20.4184 357.048 21.2619 357.94 21.0468C358.752 21.1852 358.315 20.6131 358.396 20.335L361.721 20.2834C361.854 20.5834 361.385 20.5655 361.001 20.5714C362.159 20.931 362.533 20.3715 363.853 20.2504C364.159 20.6986 363.087 20.3629 363.394 20.8112C363.656 21.1343 364.887 20.8383 365.528 20.9291C364.494 20.3411 365.507 19.7717 365.966 19.236C366.822 19.4241 367.215 19.8962 367.903 20.1875C371.738 20.0525 374.722 19.9559 379.11 19.7369C379.116 20.0891 379.671 20.0805 379.845 20.2791C381.337 20.256 381.708 19.5707 383.416 19.6701C384.228 19.7833 384.113 20.4898 385.558 20.1905C385.482 20.6951 383.984 20.4163 383.908 20.9208C382.92 20.5335 379.38 20.4877 378.408 21.0061C377.726 20.9915 373.2 20.7094 372.706 21.6483C372.06 21.3059 371.84 20.9318 371.038 21.3973C371.326 20.814 370.643 20.7742 369.834 20.8623C369.802 21.4165 370.992 21.1967 371.044 21.6992C369.043 21.8813 365.503 21.8858 363.663 21.5368C362.809 21.4997 362.733 21.954 362.008 21.9904C353.269 22.1511 342.773 21.8357 333.407 22.7108C332.892 22.5175 331.863 22.2314 331.488 22.7406C330.724 22.9035 330.887 22.5234 330.545 22.4784C330.081 22.7372 328.551 23.0127 328.158 22.5154C323.144 23.474 313.33 23.1984 307.918 23.383C306.98 23.3976 305.993 23.0857 305.056 23.1506C302.288 23.3445 299.352 23.6921 296.236 23.5642C289.707 23.288 282.892 23.7712 276.663 23.591C275.893 23.4771 275.77 23.7306 275.474 23.8862C270.348 23.4121 262.412 23.1828 257.598 23.4588C256.1 23.1549 252.728 22.9807 251.633 23.7023C248.073 22.5998 244.014 24.5 240.663 23.1678C237.905 23.9153 232.127 22.7968 229.706 23.3377C227.911 23.0887 224.443 22.3372 223.269 23.4376C220.778 22.4695 216.064 23.5493 212.763 22.619C212.081 22.6296 212.217 23.0553 211.577 23.0652C209.262 22.3713 205.518 22.832 202.75 23.0512C203.081 22.5175 201.683 23.0425 202.015 22.5089C196.337 22.1691 189.603 22.3994 184.613 22.3509C182.881 23.2587 178.09 22.4521 176.057 23.1883C173.017 22.5559 166.946 24.0092 163.432 23.1073C161.138 23.5707 157.904 23.9229 155.342 23.7865L155.332 23.2329C151.538 23.2918 148.502 22.8607 144.37 23.1261C144.08 23.5836 145.14 23.2149 144.85 23.6724C143.828 23.7637 143.313 23.5704 143.177 23.1446C141.297 22.9724 138.616 23.2909 137.2 22.8095C133.075 23.402 128.511 23.3721 123.869 23.7209C121.442 23.9096 118.5 23.9552 115.982 23.8433C105.356 23.4041 94.0533 23.3277 83.3025 23.0918C82.3613 22.9302 82.8419 23.5519 81.8581 23.391C80.8715 23.0791 78.2681 22.9685 77.3391 23.4611C68.6258 22.7154 58.5349 23.5766 49.4393 22.9123C46.9624 22.7242 44.0634 22.7692 42.2668 22.4699C39.9136 22.0533 36.8534 22.6042 34.6327 22.4373C33.4372 22.3551 32.6605 21.8638 31.5048 21.6301C29.964 21.3268 27.5367 21.5155 26.9625 20.4421C25.9412 20.5587 25.3411 20.3918 25.0361 20.0442L22.1798 20.0885C19.7242 18.7423 19.5456 16.0018 13.7587 16.6956C13.7671 17.1485 14.1554 17.3942 14.0378 17.9497C12.9251 17.7404 12.0229 17.3769 11.8801 16.5737C10.9301 15.9341 8.75959 16.1691 7.56635 16.2128C6.80268 16.426 6.85832 17.1298 6.39586 17.4893C4.87353 15.877 2.5069 14.7309 0.352051 13.5059C0.495174 12.0188 1.84455 11.1925 2.20316 9.82787C5.02341 10.1365 4.95569 8.77847 7.68975 9.03808C8.07066 8.88116 8.27917 8.62625 8.61745 8.47C11.9511 8.87131 15.9868 8.02851 19.8349 8.57285C19.9771 7.03542 17.0392 7.28233 15.2977 7.66169C14.939 6.71088 16.3904 6.78904 15.9886 5.81373C19.731 5.25233 20.0256 2.73098 24.2846 2.43841C24.7944 2.32983 25.2175 2.1471 25.2096 1.71937C27.2161 1.83925 27.8435 1.17516 29.9793 1.36854C32.9923 0.566779 38.2815 0.635746 40.4771 1.75941C51.1631 3.10373 64.4228 2.9484 76.5003 3.4406C77.5263 3.57569 77.8191 3.26914 78.4137 3.13407C79.1528 3.90281 82.8864 2.86336 83.6677 3.60627C90.0538 3.02903 100.475 3.89927 107.494 2.95987C108.655 3.47038 112.745 3.2811 113.932 2.86002C114.921 3.2977 116.234 2.82431 116.788 2.81571C132.312 2.9021 154.1 2.69001 170.433 2.68835C172.347 2.43215 177.073 2.0065 179.983 2.54023C183.593 1.77953 188.169 2.46359 190.939 2.37029C192.126 1.99953 196.559 1.85527 199.034 1.96788C209.063 2.39118 220.915 2.20735 230.051 2.74518C233.067 2.11954 239.356 3.20488 241.993 2.83679C246.1 3.50297 252.272 2.90388 256.336 3.59588C258.288 3.06225 260.596 3.32847 262.774 3.49603C271.528 4.14045 282.009 3.62553 290.929 4.04086C291.828 4.22826 291.391 3.65618 292.118 3.74558C295.916 3.91317 301.47 4.45622 304.998 3.82265C314.171 4.08305 325.075 3.36023 334.329 3.3677C334.883 3.35911 334.666 3.13597 335.049 3.0797C340.449 2.21574 351.601 3.42698 357.684 2.57761C358.322 2.49221 359.421 1.94664 360.327 2.53661C373.457 2.25746 392.667 1.0283 404.921 1.84494C405.561 1.88534 406.71 1.74169 407.772 1.52387C412.942 2.04771 419.588 1.69295 425.643 1.67453C425.312 2.2082 426.709 1.68316 426.378 2.21682C429.221 1.44286 432.267 2.45266 434.473 1.81442C459.735 2.70615 485.632 1.02092 512.661 0.601682C527.497 0.371566 539.562 0.184432 552.24 0.843497C552.838 0.884561 553.124 0.200598 553.689 0.821015C554.46 0.960077 554.282 0.585313 554.622 0.529701C555.823 0.913755 555.731 0.537671 557.265 0.488704C558.601 1.22302 563.062 0.323292 565.84 0.632557C566.267 0.676267 566.657 0.997402 567.041 1.04177C570.927 1.30868 575.015 0.968439 578.984 1.13339C591.488 1.64413 604.57 1.11404 616.902 1.52679C617.801 1.71419 617.364 1.14211 618.091 1.23151C621.296 1.63481 630.112 0.994719 635.751 1.51129C637.141 0.608846 639.813 2.10264 641.245 1.14922C641.803 1.31675 642.533 1.63259 642.908 1.12343C660.871 1.65018 681.153 0.75673 698.231 1.82574C699.172 1.98731 698.692 1.36557 699.675 1.52649C719.565 2.42605 740.849 0.384507 762.857 0.546512C773.928 -0.35507 787.026 -0.0297046 794.825 2.01375C792.738 2.1468 792.13 1.5522 790.519 2.08054C790.566 2.33149 790.276 2.789 790.998 2.6268C790.022 2.86845 788.272 2.76976 786.482 2.84786C786.227 2.87698 786.316 3.12727 786.018 3.1319C785.939 3.4603 786.028 3.66027 786.287 3.83242C786.808 4.3277 788.635 3.99734 789.873 4.05364C788.997 5.12427 785.536 4.7501 783.928 5.40425L783.941 6.10874C784.418 6.55436 785.944 6.02734 786.805 6.49216C786.951 7.44628 784.899 7.17609 783.493 7.24824C783.509 8.1037 784.199 8.52084 785.648 8.4732C785.015 8.86053 784.943 9.56635 783.534 9.48753C783.753 9.78615 784.478 9.7749 784.485 10.1775C785.725 10.3344 786.016 9.92722 786.867 9.86367C786.235 10.251 786.048 11.6885 787.37 11.6931C786.648 11.8302 786.96 12.5804 786.927 13.1094L790.253 13.0578C789.766 14.3993 791.471 14.398 793.388 14.2676C793.395 14.6701 792.671 14.6814 792.463 14.9866C793.236 15.2515 793.798 15.6706 794.613 15.9348C793.983 16.4479 794.007 17.7814 794.188 18.3323C795.385 18.4899 795.634 18.1337 795.84 17.753C796.959 18.2893 795.363 19.5977 793.956 19.6195L793.966 20.173C794.784 20.5882 796.14 20.1141 796.82 19.9777C796.739 20.2307 796.995 20.2519 797.294 20.2472C797.263 20.8769 796.499 21.0901 796.123 21.5238C795.695 21.4298 794.706 20.9669 794.202 21.4026C793.96 22.1614 795.785 21.68 796.133 22.0773C793.906 23.8233 791.075 25.2514 788.114 26.5557C787.717 25.8572 786.519 25.6241 785.447 25.3387C784.516 25.7306 782.595 25.5843 782.138 26.2457C781.959 25.8206 782.944 26.057 782.594 25.534L782.466 25.5611ZM311.234 13.5917C310.203 13.1798 308.413 13.2328 306.918 13.1049C306.942 14.4384 309.653 13.4149 311.234 13.5917ZM525.468 3.64968C525.123 3.42852 523.162 3.45894 522.825 3.69067C523.17 3.88667 525.267 4.282 525.468 3.64968ZM544.072 4.21683C544.798 4.30623 544.361 3.73415 545.26 3.92155C550.774 4.59106 557.756 3.9794 565.05 4.04245C565.057 4.44502 566.373 4.09744 566.254 4.57747C570.251 3.98694 575.21 4.63989 579.134 4.65454C579.986 4.64131 580.877 4.35066 581.772 4.33677C583.008 4.3176 584.339 4.80031 585.576 4.83145C588.478 4.93745 591.334 4.86799 594.14 4.42178C591.184 3.66227 585.95 4.29713 582.699 3.74353C576.863 4.08573 567.246 2.90101 560.272 3.94039C559.792 3.36897 557.584 3.88141 556.936 3.43844C553.099 3.49795 546.833 3.64548 543.8 3.36534C538.204 2.84811 531.996 3.80011 525.937 3.6424C531.026 4.41917 538.603 3.64729 544.072 4.21683ZM354.559 8.84251C354.776 9.06565 355.205 9.18484 356.013 9.0968L356 8.3923C353.355 8.33266 351.399 8.63984 348.841 8.65436C348.504 8.91125 348.427 9.36546 348.134 9.64686C347.621 9.57931 347.235 9.4343 347.396 8.9536L345.734 8.97939C345.654 9.25748 345.66 9.58457 345.019 9.54417C344.46 9.276 343.521 9.24022 342.371 9.3084L342.384 10.0129C345.618 9.63555 348.832 10.4917 350.953 9.87998C351.389 10.3766 352.415 10.5117 353.356 10.6984C353.42 9.5397 351.586 9.51782 350.477 9.48469C350.725 9.07815 351.749 9.08744 352.385 8.9014C353.763 9.66022 353.935 9.70789 354.516 8.86834L354.559 8.84251ZM365.781 9.22214C366.429 9.63995 367.528 9.11954 368.424 9.18114C368.246 8.75606 368.671 8.67396 368.664 8.32171C367.248 7.84032 366.801 9.00498 365.824 9.22148L365.781 9.22214ZM376.253 8.20401C376.009 8.86215 379.425 9.11118 379.368 8.3067C378.34 8.04581 377.403 8.11068 376.253 8.20401ZM389.394 8.55388C390.414 8.38704 390.718 8.68434 391.318 8.80089C391.694 8.39237 392.976 8.52349 392.964 7.91964C392.022 7.70774 390.447 7.85801 389.167 7.82753C388.962 8.2334 389.515 8.17448 389.436 8.52805L389.394 8.55388ZM707.446 4.32542C702.702 3.76981 695.296 4.5642 690.508 3.88345C688.978 4.20918 686.38 4.37532 684.07 3.9833C681.36 5.03204 675.536 3.68782 672.65 4.43728C666.676 4.22793 660.144 3.85105 654.526 4.44154C652.335 3.56949 649.329 4.74866 646.629 4.01034C642.975 4.77171 635.488 3.47844 632.096 4.5126C631.875 4.08817 629.701 4.1219 629.453 4.55359C630.053 4.74562 629.98 5.37596 630.665 5.51634C632.619 5.10851 637.665 5.86078 640.209 5.09145C642.358 5.98933 646.13 4.74793 649.044 5.50811C653.504 4.50774 661.617 5.11175 667.163 5.22707C670.486 5.02453 677.265 4.94455 681.237 5.28563C683.699 4.66858 686.486 5.48106 688.394 4.89777C688.486 5.27385 689.126 5.2891 689.598 5.43279C692.144 4.71378 694.851 5.8295 697.224 5.03766C700.223 5.77135 704.299 4.80208 707 5.59072C707.204 5.05905 708.571 5.18885 709.635 5.122C709.37 4.62275 708.258 4.4135 707.488 4.2996L707.446 4.32542ZM422.996 8.46054C424.364 8.6155 426.912 8.04745 427.521 8.66721C427.984 8.38317 429.008 8.39246 429.644 8.20642C429.763 7.70122 428.912 7.81509 428.904 7.3622C428.186 7.77601 425.799 7.81304 425.109 7.42105C424.864 8.00371 422.594 7.46007 422.996 8.43538L422.996 8.46054ZM458.496 7.20522C458.254 7.964 459.362 7.92165 458.994 8.7579C459.88 8.21564 460.485 8.65927 461.637 8.7169C461.802 8.38717 461.19 7.61645 462.088 7.72837C462.645 7.87073 462.19 8.60766 462.367 8.98243C465.192 9.5678 467.308 8.67928 468.057 7.63579C468.361 7.93309 468.411 8.36016 468.8 8.60581C469.695 8.59192 469.729 8.11321 470.926 8.29598C470.919 7.89341 470.194 7.90465 469.975 7.60603C470.486 7.54778 470.823 7.3412 470.903 7.03795C469.881 7.12931 468.341 6.87635 468.052 7.35902C464.843 6.80477 462.076 7.07419 458.497 7.23038L458.496 7.20522ZM509.538 6.96723C509.88 7.03742 510.771 6.77193 510.734 7.09968C509.964 6.93546 510.572 7.55521 509.801 7.39099C509.417 7.34662 509.58 6.94141 508.858 7.12877C508.692 7.35786 508.095 7.34196 508.144 7.69355C508.876 8.08487 511.263 8.04784 511.938 7.6347C511.931 7.23213 511.207 7.31885 511.2 6.94144L512.394 6.92293C512.063 7.45659 513.039 7.18977 512.876 7.62015C513.853 7.40366 514.477 6.56344 513.572 6.04895C511.872 6.37733 511.908 6.02442 509.778 6.10781C509.784 6.43489 509.359 6.51699 509.538 6.96723ZM531.501 7.05441C532.183 7.04384 531.961 6.56909 532.946 6.75517C534.588 7.91258 538.447 6.74535 540.331 7.1943C540.176 5.68665 536.309 6.42616 533.876 6.31289C531.508 7.43182 528.784 5.41032 526.5 6.42729C522.343 5.30888 518.872 6.69661 514.553 6.05891C515.481 7.83142 520.109 6.72776 522.938 7.48925C524.204 6.79008 526.829 8.05809 527.444 6.71467C529.238 6.86302 530.511 6.56641 531.502 7.07958L531.501 7.05441ZM327.156 9.79607C327.671 9.98942 327.849 10.4145 328.618 10.4781C328.992 9.94376 330.831 10.2424 331.938 10.1497C332.018 9.82133 332.312 9.61542 332.176 9.16451C330.22 9.4717 328.631 8.86715 327.198 9.79541L327.156 9.79607ZM418.006 8.38694C419.28 8.14066 422.279 8.87435 422.045 7.77059C420.346 8.12413 420.211 7.72354 417.995 7.83341L418.006 8.38694ZM430.156 8.19848C431.605 8.15084 433.499 9.10301 433.947 7.98867C433.562 7.89398 433.598 7.54107 433.002 7.57549C432.207 8.41835 430.39 7.01197 430.155 8.17332L430.156 8.19848ZM438.738 8.77007C439.977 8.90185 440.096 8.42182 440.646 8.18678C441.867 9.62757 446.882 8.71925 450.212 8.89412C450.207 8.64251 450.373 8.41342 450.67 8.33331C451.02 8.78091 452.592 8.47968 453.068 8.84981C453.065 8.67369 453.147 8.5214 453.532 8.56577C453.822 8.10825 452.763 8.47703 453.053 8.01952C450.372 8.33794 450.01 7.21101 447.54 7.40032C447.01 8.71727 444.813 7.49296 443.234 7.46711C442.083 7.4598 442.006 7.91401 441.105 7.65113C441.104 7.57565 441.102 7.47501 440.847 7.50414C440.991 8.40793 438.206 7.67094 438.738 8.79523L438.738 8.77007ZM454.73 8.79886C455.665 8.63335 457.678 9.08032 457.837 8.47383C456.932 7.95934 455.52 7.7044 454.025 7.55142C453.783 8.28504 454.552 8.37378 454.773 8.7982L454.73 8.79886ZM563.238 7.5437C563.358 7.08883 563.055 6.89217 562.964 6.56641C560.441 6.17769 557.933 6.59412 556.052 6.39677C556.297 8.10438 560.59 7.30793 563.238 7.5437ZM762.319 3.75116C760.86 3.27043 758.007 3.4657 757.08 4.10926C753.912 3.40337 748.811 4.33818 746.119 4.00243C739.655 5.00872 730.505 3.69092 726.568 5.28721C727.214 5.62954 728.067 5.61631 728.7 5.25415C729.22 5.6991 732.29 5.65149 732.75 5.19133C735.748 5.87469 740.339 5.07362 743.233 4.75189C752.915 4.85339 764.889 4.34049 774.48 4.11623C771.388 2.9813 766.186 2.98649 762.319 3.75116ZM391.336 9.78215L391.325 9.22861L390.388 9.24316C390.478 9.54377 390.823 9.73976 391.336 9.78215ZM414.45 9.85148L415.9 9.82899L415.882 8.84773C414.73 8.81527 414.353 9.17346 414.45 9.85148ZM474.299 8.49535L474.288 7.94182L473.351 7.95636C473.189 8.43706 473.491 8.63371 474.299 8.49535ZM417.094 9.81048C418.413 9.66418 418.467 10.2925 419.955 10.0429C420.319 8.95509 417.03 8.65376 417.094 9.81048ZM593.755 6.64252C590.305 6.84704 586.146 5.65316 585.891 8.02288C587.677 7.71834 587.776 8.49699 588.761 8.68307C589.83 8.86782 589.478 8.26926 590.418 8.38051C590.541 8.0766 590.103 7.4542 590.656 7.39528C591.803 7.17614 591.18 8.04152 592.116 7.92633C594.072 7.64431 596.244 7.48478 597.338 6.71277C596.606 6.32145 594.641 6.10026 593.755 6.61736L593.755 6.64252ZM713.438 5.49087C717.743 5.42409 722.098 5.65857 725.124 5.58646C725.121 5.41033 725.203 5.25805 725.588 5.30242C723.044 3.80664 717.177 4.77851 713.419 4.50961L713.438 5.49087ZM213.95 12.9613C214.943 13.6506 216.906 13.6957 217.773 14.4625C217.092 14.5485 215.764 14.2419 216.118 14.916C218.899 15.4014 224.024 15.8001 226.872 15.3029C226.689 14.6513 224.694 15.1353 225.186 14.0706C225.654 14.013 226.639 14.2494 226.374 13.7753C226.135 12.3445 223.248 13.0436 222.042 12.4331C220.011 13.27 217.142 12.6602 213.95 12.9865L213.95 12.9613ZM230.411 12.9829C229.503 12.3174 228.031 13.4476 226.825 12.7617L226.843 13.7429C227.356 13.8105 228.417 13.5423 228.508 13.8681C228.514 14.17 227.657 13.9568 227.317 14.0376C227.458 14.7149 227.429 15.4704 228.54 15.579C229.214 15.1659 230.199 15.3771 230.676 15.8227C231.447 15.9869 230.839 15.3672 231.609 15.5314C233.843 16.4279 238.339 15.0747 240.452 16.3758C240.836 16.3698 240.616 16.0209 241.172 16.0878C240.901 15.2866 239.029 15.517 238.295 14.9998C238.797 14.4635 239.615 14.929 240.679 14.8119C240.66 13.7551 237.708 13.222 238.717 12.4514C237.097 12.5016 234.929 12.8876 233.937 12.2487C233.136 12.7393 232.312 12.0222 230.611 12.3002C230.487 12.5035 230.923 13.0253 230.369 13.0087L230.411 12.9829ZM186.542 13.6633C187.199 14.5843 185.399 14.134 185.366 14.6631C186.441 15.1498 188.749 15.416 190.146 14.8658C196.677 15.2175 204.899 14.7125 211.127 14.8172C211.417 14.3597 210.357 14.7285 210.647 14.271C207.324 14.4232 205.265 13.7756 202.278 13.6961L202.265 12.9916C200.555 12.7413 200.354 13.3987 199.161 13.4676C199.039 13.7715 199.477 14.3939 198.924 14.4528C198.319 14.0595 196.703 14.2859 195.803 14.0733L195.793 13.5198C193.182 13.0066 189.775 13.2356 186.499 13.664L186.542 13.6633ZM204.4 13.1095C205.559 13.5193 210.399 14.6523 210.582 13.0136C209.514 12.9295 209.006 13.1387 208.455 13.3234C207.849 12.8546 205.165 12.9969 204.4 13.1095ZM266.132 12.152C266.439 12.6254 267.126 12.8664 268.066 12.9777C268.36 12.7466 268.998 12.6612 268.775 12.111C267.583 12.2301 267.022 11.8613 266.132 12.152ZM654.05 6.412C653.978 7.11782 654.538 7.43631 655.267 7.65151C657.687 7.03513 662.107 8.55213 663.826 6.96507C665.585 7.54181 669.327 6.93009 670.285 7.99744C670.926 8.08817 670.102 7.34591 670.743 7.43664C671.385 7.52736 671.225 8.1087 671.95 8.12262C672.718 8.13587 672.495 7.61081 672.875 7.40358C674.928 7.72408 675.917 8.18692 678.598 7.8685C678.416 7.24213 678.751 6.93491 679.302 6.72503C679.054 7.15673 679.818 6.9687 680.245 6.98725C678.315 6.41315 676.554 5.73577 673.528 5.83304C673.532 6.03433 673.623 6.36009 673.283 6.39054C669.266 5.94949 664.677 6.8512 660.147 6.31744C660.156 6.82065 661.136 6.75512 661.609 6.99945L659.478 7.03252L659.465 6.32802C657.12 6.36439 656.139 6.3796 655.154 6.11804C655.418 6.59212 654.433 6.35573 653.965 6.41332L654.05 6.412ZM312.865 11.855C311.921 11.5424 309.922 11.8503 308.556 11.7708C308.908 12.3694 312.713 12.8892 312.865 11.855ZM356.486 11.6062C357.293 11.4427 359.178 11.9168 358.865 11.1415C358.518 10.8197 357.202 11.1169 356.475 11.0275L356.486 11.5811L356.486 11.6062ZM453.046 9.95754C452.784 9.63442 451.553 9.93036 450.911 9.83964C451.007 10.3918 452.967 10.2859 453.046 9.95754ZM456.381 10.4595C460.988 10.4887 463.076 10.406 467.135 10.8464C467.386 10.5657 467.593 10.2604 467.844 9.97969C469.091 10.514 471.855 10.0937 473.818 10.1639C472.985 8.96874 469.503 9.77778 467.841 9.82872C466.761 9.06528 465.289 10.1955 464.255 9.6075C462.18 10.3947 459.431 9.30482 456.368 9.72983C456.205 10.1602 456.203 10.0092 456.381 10.4343L456.381 10.4595ZM777.324 5.75834C777.013 5.08364 775.438 5.20875 773.989 5.25639C774.089 6.06021 775.96 5.75434 777.324 5.75834ZM778.518 5.73983C779.584 5.7233 780.823 5.82992 780.639 5.15323L778.508 5.1863L778.518 5.73983ZM455.203 11.3083L456.866 11.2825C456.687 10.8574 456.214 10.6383 455.193 10.7548L455.203 11.3083ZM467.83 11.5403C468.512 11.5297 468.308 12.0111 469.285 11.7946C469.534 11.4132 469.816 10.528 468.793 10.5438C468.673 10.9987 467.993 11.1099 467.873 11.5396L467.83 11.5403ZM592.744 9.60283C592.952 9.34792 593.635 9.3625 593.455 8.8871L591.324 8.92016C591.333 9.44853 592.06 9.51277 592.786 9.60217L592.744 9.60283ZM589.892 9.9239C590.574 9.91332 590.37 10.3947 591.347 10.1782C591.465 9.64783 590.992 9.42866 590.393 9.33727C590.7 9.78553 589.628 9.44982 589.935 9.89808L589.892 9.9239ZM776.119 7.46328C776.216 8.06581 778.125 7.558 778.981 7.69574C778.799 7.09453 776.883 7.27525 776.119 7.46328ZM705.322 9.41708C706.709 10.6036 711.342 9.80189 713.446 10.5495C715.565 9.83707 717.489 10.1092 721.067 9.87757C721.166 8.34079 717.513 9.10215 715.336 8.98491C714.834 9.54638 712.781 9.20072 711.547 9.32053C711.339 9.62576 710.657 9.66151 709.889 9.62309C709.881 9.19536 709.873 8.76763 709.149 8.77887C708.131 9.12183 706.64 9.19529 705.364 9.39125L705.322 9.41708ZM594.701 11.6866C595.093 12.1083 595.636 11.4959 595.89 11.3913L594.696 11.4098L594.701 11.6866ZM465.721 15.0965C466.911 14.8767 467.005 15.3534 467.858 15.3402C467.929 14.5841 466.946 14.4735 465.71 14.5178L465.721 15.0713L465.721 15.0965ZM345.819 18.2146L347.95 18.1816C347.937 17.4519 345.848 17.4843 345.819 18.2146ZM404.694 17.3014C404.684 16.7227 403.029 17.1763 402.302 17.0617C402.313 17.6404 403.967 17.1869 404.694 17.3014ZM301.707 19.6035C301.501 20.0094 301.502 20.0346 301.723 20.459C302.356 20.122 305.464 19.8473 306.029 20.3922C306.662 20.03 307.514 20.0168 308.161 20.3591C308.799 20.2989 308.834 19.8957 309.818 20.0566C309.721 19.4037 308.274 19.5772 307.671 19.2342C306.057 19.6116 304.519 19.4341 301.707 19.6035ZM297.667 20.2199L300.055 20.1828C300.381 19.3724 297.311 19.42 297.667 20.2199ZM501.03 17.3425C502.356 17.5736 502.549 16.4884 501.483 16.4797C501.49 16.8823 500.678 16.7691 501.03 17.3425ZM565.882 16.7644L568.013 16.7314C567.622 16.3096 567.061 15.9911 565.869 16.0599L565.882 16.7644ZM690.592 15.3838C690.808 15.5063 692.132 15.6619 692.255 15.358C691.611 15.1415 690.757 15.0541 690.113 14.8375C689.823 15.2951 690.882 14.9263 690.592 15.3838ZM774.627 19.0132C774.767 19.6906 776.552 19.3609 777.03 19.8317C777.189 19.2252 778.383 19.2067 778.672 18.6737C777.087 18.3207 776.204 18.9636 774.627 19.0132ZM780.204 23.1549C780.968 22.9669 780.383 23.6052 781.147 23.4171C782.122 23.0748 785.61 22.5929 783.035 21.7016C781.89 22.0717 780.444 22.2703 780.204 23.1549Z" fill="black"/>
</svg>
