<svg width="196" height="32" viewBox="0 0 196 32" fill="none" xmlns="http://www.w3.org/2000/svg">
<g id="Vocera">
<g id="Group_3398">
<path id="Path_1110" d="M43.6989 18.266C43.8445 24.9665 38.6007 30.356 31.9002 30.6473C25.1998 30.5017 20.1016 24.9665 20.1016 18.266C19.9559 11.5656 25.1998 6.17609 31.9002 5.88477C38.455 6.17609 43.6989 11.5656 43.6989 18.266ZM41.9509 18.266C41.9509 12.4396 37.4354 7.34138 31.9002 7.34138C26.3651 7.34138 21.8495 12.1482 21.8495 18.266C21.7039 23.9469 26.2194 28.7537 31.9002 28.8994C37.5811 28.7537 42.0966 23.9469 41.9509 18.266Z" fill="#fff"/>
<path id="Path_1111" d="M57.9735 30.6472C51.273 30.5015 46.1748 24.9664 46.1748 18.2659C46.0292 11.5655 51.273 6.17597 57.9735 5.88465C62.926 5.73899 67.4415 8.94355 68.8981 13.7504H67.0045C65.5479 9.96319 62.052 7.48693 57.9735 7.63259C52.2927 7.77826 47.7771 12.5851 47.9228 18.2659C47.7771 23.9467 52.2927 28.7536 57.9735 28.8993C61.9064 28.8993 65.5479 26.423 67.0045 22.7815H68.7525C67.2958 27.4426 62.926 30.6472 57.9735 30.6472Z" fill="#fff"/>
<path id="Path_1112" d="M72.831 18.2659C72.5397 23.9467 77.0552 28.7536 82.5903 28.8992C82.736 28.8992 82.8817 28.8992 83.173 28.8992C88.7081 28.8992 91.3301 25.8403 92.3497 22.7814H94.0976C92.7867 27.5883 88.2712 30.9385 83.173 30.6472C76.4725 30.6472 71.083 25.2577 71.083 18.7029C71.083 18.5572 71.083 18.4116 71.083 18.4116C70.9374 11.7111 76.1812 6.3216 82.8817 6.03027C89.8734 6.03027 94.6803 12.4394 94.6803 18.4116L72.831 18.2659ZM92.641 16.5179C91.9127 11.5654 87.8342 7.77822 82.8817 7.48689C77.7835 7.63256 73.7049 11.4198 73.1223 16.5179H92.641Z" fill="#fff"/>
<path id="Path_1113" d="M128.037 12.8765C128.037 8.36102 124.687 5.88477 118.86 5.88477C113.471 5.88477 109.829 8.36102 109.101 12.5852H110.849C112.014 9.23499 114.782 7.48705 119.006 7.48705C122.356 7.48705 126.58 8.65235 126.58 12.8765C126.58 15.6441 123.23 16.2268 117.841 16.8094C112.743 17.3921 107.79 18.5574 107.79 23.8012C107.79 28.3167 112.888 30.5017 116.967 30.5017C122.793 30.5017 128.183 28.7537 128.183 22.3446C128.037 17.9747 128.037 12.8765 128.037 12.8765ZM109.538 23.8012C109.538 20.451 111.723 18.9944 117.986 18.4117C121.337 18.1204 124.687 17.8291 126.435 16.2268V21.7619C126.435 27.5884 122.211 29.045 116.967 29.045C114.49 28.8994 109.538 27.7341 109.538 23.8012Z" fill="#fff"/>
<path id="Path_1114" d="M108.955 7.63239H107.79C103.42 7.34106 99.633 10.6913 99.3417 15.0612C99.3417 15.3525 99.3417 15.6438 99.3417 16.0808V30.3557H97.5938V15.7895C97.5938 9.67166 102.109 6.03011 107.644 6.03011H109.101C109.247 5.88445 108.955 7.63239 108.955 7.63239Z" fill="#fff"/>
<path id="Path_1115" d="M10.6333 30.6472C11.3616 30.7929 12.09 30.2102 12.3813 29.4819L21.121 6.46729H19.3731L10.9247 28.6079L10.6333 28.8993C10.4877 28.8993 10.342 28.7536 10.342 28.6079L1.89361 6.46729H0L8.73973 29.4819C9.03105 30.0645 9.75936 30.5015 10.6333 30.6472Z" fill="#fff"/>
</g>
<path id="Path_1116" d="M194.168 0H177.854C174.358 0.145662 171.299 2.3306 169.988 5.53516L162.705 22.2863L155.422 5.53516C153.965 2.3306 151.052 0.291324 147.556 0H131.242C130.805 0 130.368 0.43699 130.368 0.873976V1.74795C130.368 2.18493 130.659 2.47626 130.95 2.62192H131.096C133.427 3.05891 135.612 4.66119 136.631 6.84612L145.08 26.5105C146.682 29.7151 149.886 31.7543 153.528 31.9H171.444C174.94 31.7543 178.291 29.7151 179.893 26.5105L188.341 6.84612C189.361 4.66119 191.546 3.05891 193.876 2.62192C194.459 2.62192 194.459 2.33059 194.75 1.74795L195.042 0.873976C194.896 0.582652 194.896 0 194.168 0ZM154.111 30.2977C151.197 30.1521 148.575 28.4041 147.41 25.7822L138.962 6.11781C137.942 3.78722 135.903 1.89361 133.427 1.31096H147.993C150.76 1.45662 153.237 3.20457 154.402 5.82648L162.268 23.7429L161.685 25.1995C160.52 27.8215 158.043 29.5694 155.276 29.7151L154.111 30.2977ZM158.772 30.2977C159.791 29.8607 160.665 29.1324 161.248 28.4041C161.831 27.8215 162.413 26.9475 162.705 26.2192C162.996 27.0931 163.433 27.8215 164.161 28.4041C164.89 29.2781 165.764 29.8607 166.638 30.2977H158.772ZM186.885 6.55479L178.436 26.0735C177.125 28.5498 174.503 30.1521 171.736 30.2977H170.862C168.094 30.1521 165.472 28.4041 164.453 25.7822L163.87 24.3256L171.736 6.40913C172.901 3.78722 175.377 2.18494 178.145 1.89361H192.711C190.089 2.3306 187.904 4.07854 186.885 6.55479Z" fill="#fff"/>
</g>
</svg>
