<svg width="155" height="147" viewBox="0 0 155 147" fill="none" xmlns="http://www.w3.org/2000/svg">
<g clip-path="url(#clip0_1742_5019)">
<path d="M80.2003 147H77.7143L77.5047 146.771C77.0952 146.676 76.6761 146.571 76.257 146.494C75.895 146.427 75.114 146.294 74.4663 145.616C74.4091 145.578 74.352 145.549 74.3043 145.511C74.0376 145.33 73.7709 145.139 73.5042 144.948L73.3899 145.33L73.1804 144.757C73.1137 144.719 73.0566 144.671 72.9899 144.633L71.8945 144.805L71.3897 142.972C71.0563 142.591 70.8753 142.132 70.8563 141.627C70.8563 141.56 70.8468 141.483 70.8372 141.407C70.7896 140.987 70.7134 140.357 70.9706 139.68C70.9611 139.67 70.9515 139.584 70.9515 139.498C70.9515 139.288 70.9515 139.078 70.9515 138.868C70.9611 138.639 70.9801 138.248 71.1706 137.799L71.3516 137.37L71.3135 136.912C71.2849 136.559 71.2563 136.205 71.2563 135.852L71.2373 135.289C71.2087 134.411 71.1801 133.495 71.2087 132.579C71.2182 132.025 71.2849 131.5 71.3325 130.994C71.3611 130.727 71.3897 130.469 71.4087 130.202C71.4373 129.84 71.4564 129.467 71.4754 129.095C71.4945 128.79 71.5135 128.484 71.5326 128.179C71.5897 127.348 71.6564 126.518 71.7326 125.688C71.7707 125.23 71.9517 124.772 72.2565 124.399C72.3612 122.939 72.3993 121.431 72.4374 119.971L72.466 118.978C72.5136 117.384 72.3993 115.752 72.1326 114.111C72.066 113.672 72.0088 113.223 71.9517 112.784C71.9326 112.593 71.904 112.402 71.885 112.211C71.2754 111.524 71.2087 110.694 71.1801 110.303C71.1516 109.978 71.142 109.663 71.123 109.358C71.1039 108.9 71.0754 108.441 71.0277 107.983V107.888C70.9706 107.535 70.9134 107.067 70.9896 106.542C70.8182 106.208 70.7039 105.779 70.6944 105.254C70.5705 103.564 70.5229 101.856 70.561 100.128V99.8898C70.561 99.4794 70.561 98.9067 70.761 98.2863L70.8277 98.0955C70.9134 97.8091 71.0277 97.456 71.1992 97.0933C71.7897 95.8812 73.6757 95.3372 74.7139 95.5281C75.1044 95.4803 75.4283 95.509 75.695 95.5281C75.7807 95.5281 75.876 95.5471 75.9617 95.5376C76.5618 95.4994 77.0952 95.614 77.4762 95.6903C77.5905 95.7094 77.6952 95.738 77.8095 95.7571C79.2288 95.9766 80.2098 96.9597 80.3717 98.3245L80.467 98.6108C80.8956 99.9566 80.3146 101.035 80.0003 101.617C79.9717 101.675 79.9431 101.732 79.9431 101.999V102.476C79.9431 103.335 79.9431 104.146 80.0098 104.939C80.086 105.979 80.2098 107.01 80.3241 108.05L80.9528 113.681C81.0004 114.12 81.0575 114.55 81.0861 114.989L81.1147 115.37C81.1719 116.115 81.229 116.888 81.2195 117.69C81.2195 119.074 81.1909 120.458 81.1623 121.832L81.1338 123.197C81.1147 124.247 81.0957 125.296 81.0671 126.346C81.0576 126.795 81.0385 127.243 81.0194 127.702C81.0004 128.332 80.9718 128.961 80.9623 129.591L80.9433 130.498C80.9147 131.701 80.8956 132.941 80.9242 134.134C80.9623 135.556 81.048 137.103 81.2004 138.983C81.2576 139.699 81.3624 140.424 81.4767 141.178L81.6005 142.047C81.6576 142.228 81.6957 142.371 81.7243 142.524C82.0386 144.27 81.429 145.368 80.7527 146.017C80.7432 146.036 80.7337 146.055 80.7242 146.074L80.1717 147H80.2003Z" fill="black"/>
<path d="M95.345 87.1481C94.6021 87.1481 94.0592 86.8904 93.7067 86.6423C93.2495 86.3177 92.6685 85.6974 92.5066 84.5712C92.478 84.3898 92.4494 84.2085 92.4209 84.0367C92.297 83.3304 92.1637 82.5382 92.2685 81.622C92.2685 81.622 92.2685 81.5552 92.2399 81.412C92.0208 80.3908 92.097 79.4077 92.4685 78.482C92.4685 78.2338 92.5161 78.0143 92.5733 77.8329L92.4113 76.4872L93.1352 76.3345V76.2868L93.5543 76.2391L94.8593 75.9527V75.9336L95.6784 75.7523L94.6497 75.1796L100.641 74.6929L101.927 74.4161L101.946 74.5116L102.298 74.4352C102.755 74.3398 103.213 74.2443 103.679 74.168C103.851 74.1393 104.013 74.1298 104.156 74.1393C104.641 73.9771 105.175 73.9675 105.699 74.1393C106.28 74.0725 106.861 73.9771 107.47 73.8816C108.461 73.7194 109.49 73.5571 110.566 73.4999C111.156 73.4712 111.776 73.3853 112.423 73.2994C112.68 73.2613 112.938 73.2326 113.195 73.1945C113.366 73.1467 113.633 73.099 113.947 73.1372C114.138 73.1563 114.462 73.099 114.795 73.0417C115.29 72.9463 115.9 72.8413 116.595 72.889C116.738 72.8986 117.024 72.8413 117.281 72.7936C117.557 72.7363 117.824 72.6886 118.1 72.66C118.462 72.6218 118.815 72.5932 119.177 72.5741C119.338 72.5645 119.491 72.555 119.653 72.5454C120.243 72.2305 120.815 72.2019 121.129 72.1923L121.453 72.1637C121.663 72.1446 121.872 72.1255 122.082 72.116H122.348C123.11 72.0969 123.958 72.0873 124.863 72.2973C124.911 72.2973 124.968 72.2973 125.015 72.2878C125.358 72.2687 125.615 72.24 125.863 72.2019H125.977C126.492 71.9442 127.054 71.8678 127.682 71.9633C128.53 71.7342 129.283 71.8678 129.816 71.9633H129.845H129.854C130.397 71.8392 130.988 71.7819 131.645 71.7628H131.769C133.474 71.7342 135.236 71.696 136.988 71.7151C137.674 71.7151 138.369 71.7628 139.055 71.801C139.55 71.8296 140.046 71.8583 140.541 71.8773C140.817 71.8773 141.094 71.8774 141.37 71.8583C141.76 71.8392 142.141 71.8201 142.532 71.8392C143.275 71.8678 144.027 71.906 144.77 71.9442C145.351 71.9728 145.932 72.011 146.523 72.0301C147.218 72.0587 147.904 72.0587 148.599 72.0682H148.885C149.228 72.0682 149.571 72.0682 149.914 72.0682C150.352 72.0682 150.78 72.0682 151.219 72.0682C151.981 72.0682 152.619 72.345 153.057 72.8509C153.352 73.1945 153.771 73.6717 153.962 74.3589C154.219 75.2751 154.428 76.1818 154.581 77.0408C154.724 77.8616 154.829 78.6824 154.933 79.5127L155.01 80.114C155.038 80.3622 155.038 80.6199 155.029 80.8489V81.8606L154.314 82.4333C152.933 83.5499 151.428 83.2636 150.933 83.1682C150.076 83.0059 149.161 82.9391 148.142 82.9486C147.723 82.9486 147.304 82.92 146.885 82.8818C146.694 82.8627 146.504 82.8532 146.313 82.8437C142.189 82.6337 138.112 82.5478 134.178 82.5955C132.292 82.6146 130.368 82.6719 128.473 82.7387C125.558 82.8532 123.196 82.9677 121.053 83.0918C119.919 83.1586 118.757 83.2827 117.624 83.3972L116.395 83.5213C115.024 83.6549 113.643 83.7981 112.28 83.9699C110.775 84.1608 109.271 84.3994 108.013 84.6093C106.365 84.8766 104.918 85.1343 103.575 85.4015C102.289 85.6497 100.927 85.936 99.1741 86.3368C98.7264 86.4418 98.2883 86.5564 97.8406 86.6709C97.2691 86.814 96.6976 86.9668 96.1261 87.0908C95.8594 87.1481 95.6117 87.1672 95.3831 87.1672L95.345 87.1481ZM106.289 74.4066C106.289 74.4066 106.299 74.4066 106.308 74.4161C106.308 74.4161 106.299 74.4161 106.289 74.4066ZM119.138 72.8413H119.119C119.119 72.8413 119.129 72.8413 119.138 72.8413Z" fill="black"/>
<path d="M92.9067 68.8044C92.4495 68.8044 92.0113 68.6708 91.6398 68.4226C91.2303 68.1458 90.9445 67.7354 90.8112 67.2678C90.7731 67.2391 90.735 67.2105 90.6969 67.1819C90.5921 67.1055 90.2206 66.8383 89.992 66.3515C89.8872 66.132 89.6491 65.922 89.1633 65.6166C88.8395 65.4162 88.3632 65.0821 88.0013 64.5668C87.9346 64.4713 87.8679 64.3854 87.7917 64.29C87.506 63.9177 87.1155 63.4024 86.8773 62.7056C86.3916 61.2835 86.7821 59.9283 87.9441 59.012C88.3537 58.6875 88.9157 58.2771 89.592 58.0099C89.973 57.8667 90.354 57.5708 90.7921 57.2273L90.935 57.1127C92.2113 56.1392 93.4782 54.9366 94.8117 53.4477C95.1165 53.1137 95.4117 52.7606 95.6975 52.417C96.0023 52.0543 96.3166 51.6916 96.6309 51.3385C97.231 50.6704 97.8406 50.0214 98.4597 49.3724C99.6789 48.1125 100.898 46.8527 102.127 45.5929C102.555 45.1538 102.994 44.7243 103.422 44.2948C103.889 43.8272 104.356 43.3691 104.813 42.8918C105.413 42.2715 106.013 41.6511 106.613 41.0212C107.185 40.4294 107.756 39.8282 108.328 39.2364C109.918 37.6043 111.509 35.7623 113.328 33.4335C113.985 32.5936 114.7 31.8396 115.395 31.1047L115.757 30.7134C116.062 30.3889 116.386 30.198 116.605 30.074L116.719 30.0072C116.824 29.9213 116.948 29.7972 117.072 29.6731C117.214 29.5299 117.367 29.3868 117.519 29.2532L117.614 29.1673C117.719 29.0718 117.853 28.9477 118.015 28.8332L118.167 27.5161L120.234 27.7929C120.605 27.8311 121.472 27.9265 122.129 28.6137C122.434 28.7569 122.825 28.9764 123.177 29.3677C123.234 29.3963 123.282 29.425 123.339 29.4631C123.701 29.6827 124.33 30.0644 124.672 30.8566C124.73 30.9234 124.768 30.9711 124.806 31.0284C124.863 31.1047 124.93 31.1811 124.996 31.2574C125.13 31.4197 125.282 31.6106 125.434 31.8301C125.434 31.8301 125.454 31.8301 125.463 31.8301L127.692 32.1737L127.006 34.3211C126.73 35.1515 126.254 35.686 125.835 36.125C125.52 36.44 125.215 36.7549 124.901 37.0699C124.187 37.7857 123.51 38.4633 122.882 39.1791C122.329 39.7995 121.815 40.4485 121.263 41.1453C120.882 41.6225 120.501 42.1092 120.1 42.5769C119.462 43.3404 118.757 44.1517 117.872 45.1252C116.71 46.3946 115.538 47.664 114.366 48.9142C113.776 49.5442 113.176 50.1741 112.576 50.804C111.985 51.4244 111.385 52.0543 110.795 52.6842C110.375 53.1328 109.956 53.5909 109.537 54.049C108.985 54.6503 108.442 55.2516 107.88 55.8338C107.223 56.5305 106.537 57.2082 105.861 57.8858L104.841 58.9261C103.775 60.3291 102.527 61.7035 101.117 63.011C100.26 63.8032 99.3646 64.5286 98.4978 65.2253C98.0597 65.5784 97.6311 65.9316 97.2024 66.2847C96.7929 66.6283 96.45 66.9146 96.1928 67.2105C95.4308 68.0695 94.5069 68.3844 93.8211 68.6135L93.7068 68.6517C93.4496 68.7376 93.1829 68.7853 92.9257 68.7853L92.9067 68.8044ZM122.606 29.3581C122.606 29.3581 122.606 29.3581 122.606 29.3677C122.606 29.3677 122.606 29.3677 122.606 29.3581Z" fill="black"/>
<path d="M120.529 131.787C120.215 131.787 119.948 131.71 119.777 131.634C118.748 131.195 117.891 130.67 117.148 130.021C116.7 129.63 116.243 129.267 115.776 128.904C115.29 128.513 114.795 128.131 114.319 127.721C112.985 126.566 111.68 125.392 110.375 124.209L110.195 124.046C109.109 123.063 108.042 122.08 106.975 121.078C106.585 120.706 106.204 120.315 105.823 119.914C105.603 119.685 105.394 119.465 105.175 119.246C104.908 118.978 104.632 118.702 104.356 118.434C104.032 118.119 103.708 117.804 103.394 117.48C103.222 117.308 103.051 117.117 102.879 116.936C102.717 116.755 102.555 116.583 102.384 116.421C101.574 115.657 100.755 114.903 99.9266 114.159C99.8504 114.12 99.7742 114.082 99.698 114.044C99.4789 113.92 99.1074 113.7 98.8026 113.261C98.6788 113.118 98.0311 112.584 97.812 112.45C97.612 112.364 97.3644 112.192 97.1358 111.973C97.0215 111.858 96.9167 111.753 96.8119 111.639C96.669 111.486 96.5262 111.333 96.3642 111.2L96.2499 111.104C95.9356 110.856 95.4879 110.503 95.1546 109.93C94.8117 109.644 94.4973 109.386 94.183 109.138C94.1449 109.11 94.0973 109.081 94.0592 109.052C93.9258 108.966 93.802 108.871 93.6782 108.776C93.421 108.575 93.1829 108.356 92.9448 108.136C92.7447 107.945 92.5542 107.754 92.4018 107.544L92.3256 107.449C92.1828 107.258 91.9827 107.01 91.8303 106.676C91.5827 106.542 91.3731 106.38 91.2207 106.218C90.7445 106.151 90.2111 105.922 89.7158 105.359L86.1249 101.255L86.4487 100.529C86.2106 99.7181 86.3821 98.9355 86.4583 98.5537C86.6869 97.4943 87.1917 96.6735 87.9537 96.0531C88.0203 95.9959 88.0394 95.9768 88.0394 95.9768C88.3918 94.9174 89.1348 93.9248 90.1539 93.1708C91.5351 92.1496 93.5163 92.4454 94.5545 93.8389L94.945 94.3734C95.4689 95.0796 95.9642 95.7573 96.4976 96.3967C96.7929 96.7499 97.1072 97.0839 97.431 97.418C97.6692 97.6661 97.9073 97.9143 98.1359 98.172C100.298 100.587 102.851 102.658 105.061 104.366C106.746 105.674 108.528 107.105 110.175 108.747C110.785 109.358 111.395 109.969 112.004 110.589C112.747 111.343 113.49 112.087 114.233 112.832C115.071 113.653 115.929 114.454 116.795 115.256L117.014 115.457C117.862 116.239 118.738 117.05 119.615 117.804C120.643 118.692 121.748 119.599 122.996 120.582C123.387 120.887 123.787 121.174 124.187 121.46C124.492 121.679 124.806 121.899 125.111 122.128C125.854 122.682 126.682 123.731 126.396 125.554C126.235 126.604 125.654 127.282 125.273 127.73C125.196 127.816 125.12 127.912 125.053 127.998C124.596 128.618 123.987 129.105 123.244 129.458C123.148 129.506 123.053 129.553 122.958 129.601L123.644 130.431L121.596 131.481C121.205 131.72 120.834 131.796 120.529 131.796V131.787ZM94.9831 109.52C94.9831 109.52 94.9831 109.52 94.9831 109.53C94.9831 109.53 94.9831 109.53 94.9831 109.52Z" fill="black"/>
<path d="M34.128 133.963C34.0232 133.963 33.9184 133.963 33.8137 133.944C33.3374 133.867 32.8802 133.743 32.4611 133.571C32.1563 133.447 31.9372 133.285 31.7848 133.161C31.3372 132.98 31.0133 132.741 30.7752 132.474C30.2228 132.273 29.7846 131.997 29.4227 131.767C29.2988 131.691 29.1845 131.615 29.0607 131.548C28.8893 131.453 28.7273 131.338 28.5654 131.214C28.5178 131.185 28.4797 131.147 28.4321 131.118C27.1367 130.412 26.6128 128.771 27.2891 127.453C27.6034 126.843 27.9939 126.289 28.4892 125.764C28.794 125.449 29.0893 125.115 29.375 124.791C29.7751 124.342 30.1751 123.893 30.5942 123.474C31.642 122.414 32.7088 121.393 33.747 120.41C34.2232 119.961 34.6995 119.522 35.1853 119.074C35.6044 118.692 36.0235 118.31 36.433 117.919L36.9569 117.423C37.6999 116.726 38.4047 116.067 39.081 115.371C40.4431 113.958 41.7861 112.488 42.9291 111.238C43.5196 110.589 44.1006 109.921 44.6721 109.262L45.6151 108.184C46.7391 106.905 47.8059 105.53 48.8631 103.994C49.187 103.526 49.5108 103.068 49.8347 102.61C50.1109 102.219 50.3871 101.818 50.6634 101.426C50.8062 101.216 50.9491 100.997 51.092 100.777L51.9873 99.4317C52.4826 98.6872 52.9779 97.9428 53.4923 97.2174C54.1114 96.3394 54.7496 95.4613 55.3878 94.5737L56.9308 92.4453L58.1595 92.7316C58.2738 92.7603 58.4072 92.7984 58.531 92.8366C59.3787 92.7889 60.1502 93.0084 60.8075 93.4856C61.3218 93.6002 61.7314 93.8483 62.0267 94.2301C62.0933 94.3064 62.1981 94.3637 62.2838 94.44C62.6172 94.6882 63.0744 95.0413 63.4364 95.614C63.4649 95.6331 63.484 95.6522 63.503 95.6713C63.7221 95.8621 63.9221 96.0435 64.1126 96.2916C64.265 96.4825 64.4079 96.6829 64.5794 96.9216L65.2366 97.8282L65.1128 98.6013C64.9794 99.4603 64.5127 100.1 64.1793 100.558C64.1031 100.672 64.0174 100.777 63.9412 100.901C63.5888 101.455 63.2459 102.009 62.903 102.572L62.2934 103.583C62.1314 103.86 61.9695 104.137 61.7981 104.404L61.2361 105.292C60.6646 106.199 60.0645 107.143 59.4359 108.05C58.5596 109.319 57.6452 110.532 56.7593 111.706C56.1497 112.507 55.5211 113.29 54.8829 114.072L54.7686 114.216C54.5781 114.454 54.3686 114.674 54.1686 114.903C54.0638 115.017 53.959 115.132 53.8542 115.246L52.6446 116.64C51.7968 117.613 50.9491 118.596 50.0823 119.56C49.6251 120.076 49.1298 120.572 48.6441 121.059L47.5582 122.156C46.9677 122.758 46.3771 123.369 45.7675 123.96C45.4056 124.313 45.0246 124.667 44.6436 125.01C44.3959 125.239 44.1483 125.459 43.9006 125.688C43.672 125.907 43.4434 126.127 43.2148 126.346C42.9672 126.595 42.7195 126.833 42.4624 127.072C42.148 127.368 41.8337 127.587 41.5194 127.711C41.367 127.893 41.1765 128.074 40.9479 128.236C40.9288 128.265 40.8717 128.322 40.8241 128.379C40.7098 128.503 40.5859 128.637 40.4621 128.751C40.3002 128.895 40.1478 129.019 39.9954 129.114C39.9287 129.238 39.8525 129.343 39.7858 129.42L39.643 129.601C39.4048 129.897 39.1667 130.193 38.9095 130.469C38.6143 130.784 38.2237 131.004 37.7951 131.118C37.7951 131.118 37.7951 131.118 37.7951 131.128L37.6903 131.252C37.5951 131.386 37.4427 131.586 37.2141 131.777L36.5378 132.321C36.3949 132.436 36.2616 132.55 36.1187 132.655C36.0044 132.922 35.8425 133.17 35.6234 133.38C35.2234 133.762 34.69 133.972 34.147 133.972L34.128 133.963Z" fill="black"/>
<path d="M58.4072 69.3102L57.3118 69.0143C56.2355 68.7185 55.4163 68.1744 54.702 67.6877C53.6161 66.9528 52.5969 66.2656 51.5873 65.5784L50.8634 65.0821C50.6919 64.9771 50.2538 64.7194 49.968 64.1945C49.9014 64.1468 49.8347 64.1086 49.768 64.0609L49.1679 63.6314C48.7965 63.3546 48.4155 63.0874 48.0345 62.8201C47.9964 62.801 47.9488 62.7724 47.8916 62.7533C47.7297 62.6674 47.5582 62.5815 47.4058 62.4861C47.0344 62.257 46.72 62.0375 46.4438 61.8084C46.0533 61.4935 45.6532 61.1785 45.2627 60.854C44.8246 60.4913 44.3769 60.1382 43.9292 59.7851C43.0148 59.0597 42.0814 58.3439 41.1574 57.6376C41.0622 57.5708 41.0241 57.5422 40.9765 57.5135C40.8241 57.4181 40.6717 57.3227 40.5288 57.2081C40.2716 57.0077 39.7954 56.6546 39.4906 56.0437L39.2334 55.8147C39.1572 55.767 39.0524 55.7192 38.9476 55.6715C38.6905 55.5474 38.3666 55.4043 38.0428 55.1657C37.6522 54.8793 37.4236 54.5262 37.2808 54.2017C36.8712 53.944 36.5664 53.6386 36.3664 53.4191C36.2997 53.3523 36.233 53.2759 36.1568 53.2091C35.6806 52.7987 35.3377 52.3406 35.071 51.9684C34.9567 51.8061 34.8329 51.6439 34.6995 51.5007C34.4042 51.1762 34.1947 51.0044 34.0137 50.9376C33.4517 50.7372 33.0803 50.3745 32.8517 50.155L32.585 49.9259L32.5659 50.05L31.9087 49.6396C31.5753 49.5632 31.2229 49.3914 30.88 49.086C30.5085 48.9524 30.0132 48.7042 29.6322 48.2175C29.2798 47.998 28.9369 47.7785 28.5845 47.5589C28.4321 47.4635 28.2987 47.349 28.1654 47.2344L27.6605 46.8336C27.3367 46.7477 26.9843 46.5854 26.6128 46.2991C26.2127 46.0128 25.9556 45.7074 25.7651 45.4783L25.6127 45.3065C25.3555 45.1538 25.0983 45.0011 24.8602 44.8197C24.6602 44.667 24.3744 44.4475 24.2697 44.4189C23.6696 44.3998 23.241 44.123 23.06 44.0085L21.9456 43.4549L22.0884 41.5747C22.1265 40.9543 22.3551 40.5058 22.4885 40.2385C22.9171 39.3795 23.4219 38.7496 23.8601 38.1961C24.1173 37.8716 24.2601 37.547 24.3554 37.1462C24.5173 36.4208 24.9459 35.9436 25.2221 35.6287C25.2698 35.5809 25.3079 35.5332 25.346 35.476C25.5365 35.2373 25.746 35.056 25.8603 34.951L26.4032 34.4452L27.3843 34.3975C27.6415 34.3975 27.8891 34.3975 28.1368 34.4165C28.8035 34.4834 29.7846 34.6742 30.5942 35.5046C30.6895 35.6 30.7943 35.6955 30.8895 35.7909C31.2038 36.0868 31.5944 36.4495 31.9373 36.9553C32.0801 37.1748 32.404 37.4421 32.7183 37.7093L32.8898 37.8525C33.7375 38.5778 34.5281 39.2173 35.2901 39.809C35.8711 40.2576 36.4521 40.6871 37.0426 41.1261C37.5856 41.527 38.119 41.9278 38.6524 42.3382C39.3763 42.8918 40.1002 43.4645 40.8241 44.0276C41.3194 44.4189 41.8147 44.8007 42.31 45.1824C42.6719 45.4687 43.0434 45.7455 43.4149 46.0223C43.7578 46.28 44.1007 46.5377 44.434 46.7954C46.1676 48.1316 47.8916 49.4678 49.6251 50.804C49.9395 51.0521 50.2538 51.3003 50.5681 51.5484C51.0634 51.9397 51.5587 52.331 52.0635 52.7033C53.0637 53.4477 54.0924 54.1731 55.1115 54.8889C56.1688 55.6238 57.2451 56.3492 58.3215 57.0554C59.1597 57.5994 59.9407 58.0862 60.7122 58.5348C60.9789 58.6875 61.2647 58.8211 61.5504 58.9452C61.7409 59.0311 61.941 59.117 62.1315 59.2124C63.684 59.976 64.1888 61.3217 63.503 62.906C63.484 62.9633 63.4649 63.0206 63.4459 63.0778C63.3316 63.4119 63.1506 63.975 62.6839 64.4617C62.5886 64.5572 62.522 64.6622 62.4458 64.7767C62.1981 65.1298 61.8457 65.607 61.2742 66.0079C61.2266 66.0461 61.0742 66.256 60.9789 66.3992C60.8551 66.571 60.7313 66.7428 60.5979 66.9051L60.5122 67.01C60.3979 67.1532 60.2931 67.2868 60.1693 67.4204C59.9407 67.6686 59.7026 67.9167 59.4645 68.1649L58.3691 69.3102H58.4072ZM49.8061 63.8509C49.8061 63.8509 49.8061 63.8509 49.8061 63.8605C49.8061 63.8605 49.8061 63.8605 49.8061 63.8509Z" fill="black"/>
<path d="M3.19088 90.336C2.35268 90.336 1.58116 90.0401 0.99061 89.4865C0.200037 88.7421 -0.142863 87.654 0.057162 86.4896C0.266712 85.2775 0.742961 84.2277 1.17158 83.2923L1.30493 83.006C1.58116 82.3856 2.13361 81.918 2.89561 81.6507C3.52426 81.4312 4.1529 81.3167 4.69583 81.2117C5.01015 81.1544 5.32448 81.0972 5.62928 81.0208C6.60082 80.7631 7.5438 80.6581 8.44867 80.5627C8.98207 80.5054 9.51547 80.4482 10.0393 80.3527L10.1536 80.3336C10.9633 80.1905 11.7824 80.0378 12.6016 79.9137C12.8873 79.866 13.1826 79.8469 13.4683 79.8373L14.4875 79.7705L15.2495 79.6464C17.1736 79.341 18.9261 79.2265 20.6025 79.3219C21.6312 78.9497 22.6314 78.9783 23.4505 79.007H23.7839C24.0315 79.0165 24.2887 79.007 24.5364 78.9974L25.7841 78.9402C26.4699 78.902 27.1653 78.8734 27.8511 78.8543C28.3083 78.8447 28.7559 78.8543 29.2131 78.8543C29.5751 78.8543 29.9466 78.8638 30.3085 78.8543C30.7371 78.8543 31.1562 78.8256 31.5849 78.797L32.3468 78.7588C32.4992 78.7588 32.6516 78.7588 32.7945 78.7684H33.7946C34.3757 78.7684 34.9757 78.7684 35.5758 78.7779C35.8139 78.7779 36.0521 78.7588 36.2902 78.7397C36.9284 78.692 37.6999 78.6252 38.5571 78.8256C38.7572 78.7875 38.9572 78.7493 39.1477 78.7397C39.3287 78.7397 39.5096 78.7111 39.6906 78.7016C40.3097 78.6538 40.9955 78.5966 41.748 78.7016C41.9576 78.6443 42.2814 78.587 42.6815 78.6443C42.9577 78.6825 43.3387 78.6443 43.7673 78.5966C44.1102 78.5584 44.4531 78.5202 44.796 78.5107C45.1008 78.2816 45.4056 78.1385 45.6818 78.0621C45.8723 76.9645 46.7581 76.1724 47.9202 76.1246C48.1774 76.1151 48.4345 76.1246 48.6917 76.1437C49.3966 76.2296 49.8347 76.2201 50.2157 76.1151C50.8158 75.9433 51.7207 75.9528 52.4255 76.4778C52.435 76.4778 52.4541 76.4778 52.4636 76.4778C55.3402 76.6114 55.8926 78.9783 56.0641 79.761C56.2164 80.4386 56.3403 81.1163 56.4641 81.7939L56.5308 82.1852C56.6736 82.9678 56.807 83.7505 56.9308 84.5331C57.0928 85.602 56.5879 86.6042 55.6259 87.1387C54.8068 87.5968 53.9971 87.6063 53.4637 87.6159H53.3018C52.7398 87.635 52.1874 87.6254 51.6254 87.6254H51.0063C50.8063 87.6445 50.4253 87.6636 49.9871 87.4822C49.93 87.4822 49.6537 87.5013 49.4728 87.5204L49.2823 87.5395C48.4631 87.6254 47.6916 87.53 47.1106 87.4345C46.4724 87.3295 45.7961 87.32 45.1484 87.32C44.2245 87.32 43.3006 87.3391 42.3767 87.3582C41.6337 87.3773 40.8908 87.3868 40.1478 87.3963C39.2906 87.3963 38.4238 87.3963 37.5665 87.4059C36.5093 87.4059 35.4615 87.4059 34.4042 87.425H34.2423C30.9181 87.4727 27.4891 87.53 24.1173 87.6159C21.4026 87.6922 19.2214 87.8449 17.2498 88.0931L16.9735 88.1312C15.3257 88.3412 13.6684 88.5416 12.0205 88.7803C9.67739 89.1143 7.78192 89.4102 6.03885 89.6965C5.715 89.7538 5.35305 89.8588 4.97205 89.9637C4.67678 90.0496 4.3815 90.1355 4.08623 90.2023C3.78143 90.2787 3.47663 90.3169 3.18136 90.3169L3.19088 90.336Z" fill="black"/>
<path d="M78.6002 62.3526C78.343 62.3526 78.0572 62.3239 77.7429 62.2476C77.1333 62.0949 76.5237 61.9517 75.9236 61.7799L75.6284 61.7036C75.095 61.5604 74.533 61.4077 73.9615 61.1786C73.3805 60.9496 72.9233 60.6155 72.5518 60.3387C71.9422 59.8902 71.5898 59.2125 71.5422 58.4872C71.5231 58.239 71.5231 57.9909 71.5136 57.7427C71.5136 57.5041 71.5136 57.275 71.485 57.046C71.4183 56.5974 71.4469 56.2061 71.4755 55.8911C71.4755 55.7862 71.4945 55.643 71.4945 55.5666C71.2374 55.0226 71.2755 54.4977 71.285 54.2686C71.285 54.2114 71.285 54.1732 71.285 54.1445C71.0659 53.5528 71.0754 52.9706 71.1135 52.5793C71.1421 52.3216 71.1897 52.0639 71.2374 51.8158C71.2659 51.6917 71.285 51.5676 71.304 51.4531V51.3958C71.2659 51.2526 71.2374 51.119 71.2183 50.9759C71.1802 50.6705 71.1421 50.3746 71.1421 50.0405V49.5347C71.1612 48.8857 71.1707 48.2176 71.2374 47.5304C71.2564 47.3586 71.2374 47.1391 71.2374 46.9005C71.2088 46.366 71.1802 45.7075 71.3802 44.9726C71.4088 44.8676 71.3993 44.5622 71.3993 44.3426C71.3993 44.1231 71.3993 43.9036 71.3993 43.6841C71.3993 43.5314 71.4183 43.3787 71.4279 43.2069L71.6469 40.3627L72.1708 40.5918C72.1708 40.5918 72.1708 40.5059 72.1803 40.4581C72.2089 40.1145 72.2375 39.771 72.2661 39.4274C72.3042 38.9883 72.3518 38.5493 72.3708 38.1007C72.3899 37.7667 72.3804 37.4231 72.3708 37.089V36.7645C72.3518 36.1346 72.5232 35.5429 72.8471 35.037C72.9042 34.6266 72.9614 34.2067 72.9995 33.7963C73.009 33.6722 72.9995 33.5481 72.9995 33.4241C72.9995 33.2332 72.9995 33.0423 72.9995 32.8609V32.7273C73.0185 32.3933 73.0376 31.9733 73.1614 31.5057C73.3328 30.8757 73.409 30.3604 73.3995 29.8832C73.3995 29.5396 73.4281 29.2151 73.4853 28.9096L73.4091 28.8524L73.7138 27.6116C73.7138 27.5544 73.7139 27.478 73.7234 27.4017C73.7424 27.0199 73.771 26.4281 74.0758 25.8173L72.9138 23.1068L74.9045 23.5076C74.9426 23.374 74.9616 23.1831 74.9807 22.9827C74.9997 22.83 75.0188 22.6868 75.0378 22.5341L75.2569 21.0261C75.3045 20.7016 75.3521 20.3771 75.4188 20.0622C75.495 19.7281 75.5998 19.3941 75.7141 19.0696L75.7808 18.8691C75.8951 18.5064 76.0189 18.1533 75.9903 18.0197C75.8951 17.4948 76.0189 17.0653 76.0951 16.8458C76.1141 16.7121 76.1332 16.5785 76.1522 16.4449L75.8189 15.8436L75.9427 15.166C75.9427 15.0801 75.9713 14.9465 76.0094 14.7747C75.7427 13.763 75.9903 12.9422 76.1522 12.3886L76.1903 12.2741C76.3332 11.816 76.6285 11.4342 76.9904 11.1765C77.1238 10.6802 77.1619 10.2889 77.1143 9.93574C77.0381 9.37263 77.1524 8.87633 77.219 8.55183C77.2381 8.48502 77.2476 8.40867 77.2571 8.34186C77.2571 8.32277 77.2571 8.29414 77.2667 8.2655C77.0857 7.02476 77.2857 5.889 77.5429 4.84868C77.5619 4.76278 77.5715 4.52417 77.5715 4.34283C77.5715 4.10423 77.5715 3.85608 77.6 3.61747V3.45522C77.6572 2.94938 77.7143 2.19538 78.162 1.44139C78.6002 0.716031 79.2574 0.219732 80.0099 0.0574801C80.7719 -0.104772 81.5815 0.0861127 82.2863 0.582412C83.3722 1.35549 84.0199 2.49125 84.258 4.04696C84.4199 5.07774 84.5057 6.15623 84.5342 7.25382C84.5628 8.3514 84.5152 9.43944 84.4104 10.4989C84.258 12.0927 84.0485 13.7248 83.8103 15.3569C83.6579 16.3876 83.477 17.4089 83.2865 18.4396C83.1817 19.0409 83.0674 19.6327 82.9721 20.234L82.734 21.6369C82.4864 23.0781 82.2292 24.5766 82.0196 26.0368C81.8006 27.583 81.6196 29.2341 81.4291 31.3911C81.3529 32.2883 81.2957 33.195 81.2386 34.0922C81.1814 35.0561 81.1148 36.0201 81.029 36.9745C80.8385 39.0361 80.8481 41.0785 80.8481 43.2451V44.3999C80.8481 46.2324 80.9338 48.1221 81.0195 49.9546L81.0481 50.4796C81.1433 52.6175 81.2767 54.7554 81.4196 56.8933C81.4386 57.256 81.5148 57.6568 81.591 58.0768L81.6386 58.3249C81.9149 59.9283 80.9624 61.0546 80.648 61.4268C80.3813 61.7417 79.7241 62.3526 78.5811 62.3526H78.6002ZM73.0947 34.7125C73.0947 34.7125 73.0947 34.7125 73.0852 34.7221C73.0852 34.7221 73.0852 34.7221 73.0947 34.7125ZM76.1427 14.3738C76.1427 14.3738 76.1427 14.3738 76.1427 14.3833C76.1427 14.3833 76.1427 14.3833 76.1427 14.3738Z" fill="black"/>
</g>
<defs>
<clipPath id="clip0_1742_5019">
<rect width="155" height="147" fill="white"/>
</clipPath>
</defs>
</svg>
