<svg width="132" height="86" viewBox="0 0 132 86" fill="none" xmlns="http://www.w3.org/2000/svg">
<g clip-path="url(#clip0_3336_26287)">
<path d="M119.519 28.2545C119.732 28.2888 119.81 28.3945 119.873 28.7638C119.974 29.3761 120.559 30.3012 120.951 30.4773C121.127 30.5567 121.252 30.6846 121.242 30.7786C121.232 30.8726 121.152 30.8871 121.064 30.8195C120.975 30.7518 120.866 30.7388 120.82 30.8005C120.704 30.9441 120.424 30.6887 120.161 30.2042C120.037 29.9775 119.976 29.7481 120.018 29.6947C120.059 29.6413 119.981 29.4517 119.836 29.2796C119.692 29.1076 119.608 28.9263 119.645 28.8812C119.68 28.8296 119.608 28.6662 119.481 28.5037C119.275 28.2356 119.277 28.2142 119.526 28.2528L119.519 28.2545ZM114.883 19.9984C114.837 20.0601 114.904 20.1824 115.038 20.2872C115.17 20.3854 115.324 20.6461 115.387 20.8541C115.443 21.0639 115.622 21.4164 115.773 21.6427C116.336 22.4826 116.873 22.4933 116.473 21.6589C116.344 21.3845 116.15 21.1063 116.043 21.0505C115.935 20.9881 115.861 20.8676 115.873 20.7801C115.894 20.5707 114.995 19.8632 114.892 20.0032L114.883 19.9984ZM119.002 27.0583C119.207 26.7997 119.197 26.711 118.944 26.4206C118.781 26.2324 118.68 26.0415 118.729 25.9864C118.771 25.933 118.756 25.8526 118.693 25.7993C118.631 25.7526 118.568 26.0434 118.555 26.4403C118.522 27.2853 118.667 27.4853 119.009 27.0565L119.002 27.0583ZM119.288 27.6C119.154 27.4952 119.063 27.6532 119.09 27.9128C119.109 28.0343 119.148 28.1291 119.181 28.1203C119.296 28.1035 119.384 27.6724 119.288 27.6ZM117.055 22.7816C117.055 22.7816 117.068 22.6728 117.039 22.5893C117.009 22.5058 116.943 22.4954 116.897 22.5571C116.85 22.6188 116.858 22.701 116.913 22.7494C116.966 22.7913 117.034 22.8083 117.055 22.7816ZM117.669 24.9145C117.633 25.0435 117.67 25.2585 117.751 25.4053C118.094 26.002 118.393 25.964 118.091 25.3633C117.766 24.6989 117.745 24.6762 117.669 24.9145ZM116.722 23.0605C116.626 23.1213 116.678 23.234 116.889 23.3951C117.06 23.5321 117.199 23.7125 117.186 23.7934C117.174 23.8808 117.215 23.9822 117.269 24.0241C117.322 24.066 117.402 24.0515 117.451 23.9963C117.493 23.943 117.64 23.9668 117.778 24.0633C117.914 24.1532 117.815 24.0182 117.562 23.7558C117.309 23.4934 117.051 23.2113 116.993 23.1283C116.934 23.0388 116.815 23.0144 116.737 23.0635L116.722 23.0605ZM111.444 15.2645C111.773 15.5767 112.044 15.9326 112.048 16.0511C112.052 16.3522 113.126 17.2938 113.326 17.1769C113.418 17.1243 113.534 17.1635 113.601 17.2858C113.715 17.4732 113.705 17.4898 113.442 17.4762C113.06 17.4661 113.056 17.7411 113.438 18.0392C113.615 18.1745 113.801 18.4759 113.858 18.7136C113.926 18.9693 114.068 19.1841 114.219 19.2491C114.361 19.3093 114.559 19.4179 114.658 19.4969C114.816 19.616 114.852 19.5924 114.897 19.3414C114.934 19.1136 114.885 19.0354 114.679 18.9994C114.451 18.9621 114.427 18.8983 114.541 18.6429C114.62 18.467 114.616 18.3206 114.544 18.3119C114.465 18.305 114.243 18.0273 114.048 17.6931C112.969 15.8677 111.915 14.478 111.215 13.963C110.996 13.8038 110.969 13.7269 111.107 13.6406C111.33 13.5035 111.137 13.3306 110.803 13.3708C110.266 13.4374 110.614 14.4752 111.444 15.2645ZM124.646 37.8686L124.55 38.0349C124.514 38.3746 124.935 38.5568 125.224 38.5848C125.367 38.5956 125.374 38.5165 125.253 38.2749C125.022 37.831 124.689 37.5058 124.652 37.8669L124.646 37.8686ZM121.046 31.5128C120.959 31.4797 121.025 31.5395 121.204 31.6319C121.435 31.7597 121.489 31.8576 121.399 31.9661C121.331 32.0545 121.344 32.2057 121.421 32.3114C121.66 32.6267 121.712 32.6621 121.729 32.5169C121.738 32.4443 121.869 32.4372 122.027 32.5004C122.281 32.608 122.281 32.5587 122.015 32.0611C121.669 31.4019 121.48 31.2207 121.317 31.4259C121.255 31.506 121.125 31.5477 121.039 31.5145L121.046 31.5128ZM123.397 35.7514C123.08 35.4078 123.05 35.4017 123.122 35.6704C123.166 35.8343 123.256 36.0138 123.32 36.0671C123.383 36.1203 123.598 36.4772 123.791 36.8542C124.233 37.7192 124.35 37.8144 124.597 37.5024C124.796 37.2521 124.713 36.9934 124.358 36.7163C124.243 36.6277 124.211 36.4817 124.294 36.375C124.402 36.2267 123.72 35.2785 123.575 35.3665C123.345 35.5054 123.593 35.9588 123.397 35.7514ZM127.087 40.8465C127.099 40.759 127.029 40.6302 126.926 40.5595C126.776 40.4451 126.758 40.457 126.831 40.6483C126.929 40.938 127.071 41.0476 127.089 40.853L127.087 40.8465ZM122.558 33.5663C122.558 33.5663 122.177 33.3242 122.251 33.7048C122.325 34.0855 122.941 34.9953 122.941 34.9953L123.311 34.7767C123.269 34.9075 123.284 35.0158 123.338 35.0083C123.392 35.0009 123.427 34.8933 123.413 34.7635C123.4 34.6616 123.006 33.8748 122.78 33.556C122.598 33.2957 122.583 33.4754 122.557 33.5598L122.558 33.5663ZM127.484 41.8291C127.496 41.7417 127.446 41.6355 127.375 41.5774C127.296 41.5211 127.282 41.5741 127.324 41.7034C127.421 41.9865 127.458 42.0188 127.482 41.8225L127.484 41.8291ZM122.324 33.1374C122.439 33.226 122.552 33.28 122.571 33.2468C122.592 33.2201 122.553 33.0759 122.485 32.9256C122.391 32.705 122.336 32.6845 122.243 32.8079C122.175 32.8962 122.205 33.0356 122.329 33.129L122.324 33.1374ZM7.77252 39.5516C8.38722 38.9092 8.97335 38.1339 9.26031 37.5793C9.41994 37.2836 9.53653 37.168 9.64457 37.2304C9.79417 37.3168 10.5119 36.5343 10.4609 36.3442C10.4486 36.2984 10.217 36.3253 9.94344 36.4056C9.5978 36.5053 9.52312 36.5674 9.68489 36.5943C9.85673 36.6326 9.88916 36.7012 9.79319 36.8674C9.70506 37.0105 9.58884 37.0486 9.43924 36.9623C9.14003 36.7895 8.40571 37.5624 8.53333 37.9075C8.60568 38.0989 8.57993 38.1339 8.36093 38.1294C8.17165 38.1309 8.05812 38.2316 7.94133 38.5298C7.85286 38.7502 7.60591 39.1396 7.39114 39.3868C7.17637 39.6341 7.00491 39.9118 7.00633 39.9958C7.01185 40.2261 7.23681 40.0956 7.75764 39.5486L7.77252 39.5516ZM3.617 44.4939C3.68512 44.4335 3.69481 44.1288 3.63192 43.8155C3.50392 43.1542 3.67457 42.9259 4.47425 42.7116C4.95275 42.5834 5.00776 42.5265 5.27236 41.9146C5.46722 41.462 5.63611 41.227 5.80126 41.1617C5.99919 41.0876 6.01838 41.0543 5.89547 40.9889C5.80405 40.9361 5.89839 40.8687 6.12956 40.8138C6.34106 40.7641 6.58522 40.6004 6.6764 40.4425C6.76756 40.2845 6.88942 40.1887 6.9559 40.2271C7.01408 40.2606 6.95229 40.502 6.80178 40.7531C6.47069 41.3266 6.69497 41.3508 7.1581 40.7981C7.49857 40.3908 7.70832 40.3346 7.66457 40.6695C7.64807 40.7652 7.7856 40.623 7.96537 40.35C8.53827 39.4729 8.58016 39.4195 8.90859 39.1769C9.32305 38.8621 9.34528 38.814 9.08952 38.7772C8.85518 38.7416 8.9371 38.523 9.25207 38.3613C9.39405 38.2881 9.43209 38.299 9.38107 38.397C9.19568 38.7277 9.52646 38.625 9.81017 38.2679C10.392 37.5289 10.9242 36.9718 11.3583 36.6518C11.5989 36.4749 11.8823 36.1952 11.9931 36.0321C12.2484 35.6475 12.6949 35.4787 12.8731 35.6979C12.9672 35.8132 13.0214 35.8057 13.0422 35.6737C13.0635 35.5696 13.0122 35.4569 12.9296 35.4369C12.6532 35.3494 12.9729 35.074 13.2606 35.1515C13.4871 35.2102 13.536 35.1831 13.4629 35.0411C13.3897 34.8991 13.4137 34.8575 13.5261 34.8836C13.6152 34.9019 13.8196 34.7207 13.9802 34.4809C14.372 33.8982 14.8036 33.621 15.3434 33.6169C15.791 33.6093 15.9094 33.5003 16.2901 32.745C16.5561 32.217 16.8631 31.9732 17.0857 32.0962C17.2436 32.1874 17.2598 32.169 17.1748 32.0091C17.0302 31.7317 17.5574 31.3656 18.0387 31.4053C18.2332 31.4234 18.4304 31.3987 18.4622 31.334C18.4958 31.2758 18.4424 31.2339 18.3519 31.237C18.2466 31.2372 18.2421 31.1681 18.3438 31.0495C18.4359 30.9476 18.6295 30.9097 18.7721 30.9699C19.1898 31.139 19.4029 30.9906 19.6103 30.4011C19.802 29.8579 19.9112 29.7935 20.0078 30.1541C20.0464 30.2983 20.1172 30.3004 20.2744 30.1529C20.3927 30.0439 20.5382 29.9838 20.5964 30.0174C20.6546 30.051 20.6991 29.9548 20.6932 29.8018C20.6829 29.5797 20.7942 29.4445 21.2323 29.1656C21.711 28.8546 21.7783 28.8436 21.7296 29.0815C21.6797 29.3407 21.6945 29.3438 21.9312 29.1258C22.0901 28.9849 22.1473 28.8572 22.0851 28.7825C21.8921 28.5602 22.2993 28.4019 22.512 28.6189C22.6476 28.7582 22.6839 28.7625 22.6309 28.6433C22.566 28.5061 24.8594 26.8659 25.0816 26.9609C25.1529 26.991 26.2995 26.2622 26.8546 25.8957C27.6784 25.3518 28.5399 25.2896 28.3654 25.5822C28.2982 25.6986 28.3314 25.7178 28.5334 25.6847C28.7615 25.6447 28.7759 25.6198 28.6816 25.3991C28.5874 25.1785 28.6018 25.1535 28.8448 25.1165C28.9925 25.091 29.1476 25.0143 29.1908 24.9395C29.234 24.8647 29.4178 24.7382 29.6057 24.6527C29.8735 24.5248 29.9478 24.54 29.9655 24.7109C29.9779 24.8621 30.012 24.8319 30.0594 24.6155C30.1151 24.4038 30.2478 24.2699 30.5065 24.1865C30.7062 24.119 31.147 23.9025 31.4794 23.701C31.8118 23.4996 32.2198 23.2919 32.3802 23.2349C32.5405 23.1778 32.8547 23.0656 33.0788 22.9844C33.3427 22.8856 33.4035 22.9115 33.2612 23.062C33.0058 23.3412 33.2227 23.4166 33.657 23.2019C33.9492 23.0603 33.9505 23.0389 33.6596 22.8709C33.4685 22.7606 33.4076 22.6645 33.5007 22.6185C33.5806 22.576 33.7031 22.6134 33.777 22.706C33.9653 22.9366 34.4281 22.8547 34.3006 22.6149C34.2327 22.4926 34.5429 22.3392 35.3482 22.0672C36.2387 21.7724 36.5442 21.7327 36.7328 21.8859C36.9297 22.0439 36.969 22.0334 36.9312 21.8398C36.8999 21.6444 37.117 21.5371 38.0539 21.2579C38.6927 21.0727 39.2948 20.8552 39.3809 20.7829C39.5774 20.6249 40.5108 20.7261 40.6688 20.9226C40.731 20.9973 40.9386 21.0119 41.1335 20.9526C41.4381 20.857 41.4525 20.832 41.2479 20.8026C40.6454 20.7041 41.5327 20.3188 42.4262 20.2972C42.7684 20.2897 43.3603 19.9555 43.8262 19.8588C45.1696 19.5761 46.0276 19.5008 45.7922 19.6973C45.6428 19.8216 45.6503 19.8758 45.8191 19.929C45.9582 19.976 46.0805 19.9081 46.1551 19.7406C46.2422 19.5416 46.5879 19.442 47.5717 19.3118C48.917 19.1411 49.1181 19.1574 49.0633 19.425C49.0468 19.5208 49.2741 19.5301 49.625 19.4501C50.017 19.3662 50.1638 19.2847 50.0475 19.2175C49.9543 19.1582 49.7794 19.1348 49.6549 19.1681C49.5303 19.2015 49.4578 19.1929 49.4818 19.1513C49.5489 19.035 51.0489 18.8649 51.0753 18.9632C51.0876 19.0091 50.9771 19.0949 50.825 19.1567C50.5895 19.2479 50.5865 19.2628 50.7823 19.2595C50.9091 19.2606 51.1259 19.2306 51.2718 19.1986C52.0279 19.0311 53.6446 18.8508 53.7609 18.918C53.8357 18.9612 54.0114 18.9352 54.1534 18.862C54.3819 18.7446 54.3814 18.7166 54.1531 18.6513C54.0093 18.6126 53.8397 18.6089 53.7794 18.6461C53.7126 18.6851 53.6055 18.6786 53.539 18.6403C53.3727 18.5443 53.79 18.3974 54.3718 18.3398C54.6248 18.3142 54.8627 18.3629 54.9069 18.4493C54.963 18.5538 54.9277 18.6054 54.7747 18.6112C54.6497 18.6166 54.6174 18.6534 54.6922 18.6966C54.8685 18.8039 55.2853 18.629 55.2789 18.448C55.2775 18.3641 55.3439 18.2971 55.4195 18.2909C55.4969 18.2913 55.5394 18.3712 55.505 18.4788C55.4549 18.6327 55.5887 18.6601 56.1429 18.631C56.7299 18.5932 56.8182 18.5555 56.682 18.3882C56.5358 18.2096 56.552 18.1912 56.8763 18.1956C57.0739 18.1989 57.3223 18.2869 57.4278 18.3921C57.5617 18.5249 57.5962 18.5226 57.5331 18.392C57.4683 18.2548 57.7829 18.1705 58.6837 18.0977C60.3389 17.9563 60.3455 17.9546 60.2382 18.1309C60.1902 18.214 60.0084 18.2697 59.8353 18.2529C59.6622 18.236 59.4555 18.2774 59.376 18.3478C59.2917 18.4266 59.4666 18.45 59.787 18.4133C60.0925 18.3736 60.6948 18.3668 61.1232 18.3925C61.5582 18.4165 61.8969 18.396 61.8811 18.337C61.8671 18.2845 61.9688 18.1659 62.1138 18.0779C62.3484 17.9307 62.3716 17.9386 62.3657 18.179C62.3625 18.3766 62.4176 18.4251 62.5933 18.3991C62.7213 18.3788 62.8397 18.2698 62.8527 18.1609C62.8722 18.0503 62.9504 18.0013 63.0401 18.0475C63.1232 18.0955 63.4943 18.1436 63.8698 18.1554C65.9646 18.2123 66.9806 18.3335 67.0548 18.5314C67.1429 18.7818 67.3317 18.7523 67.3734 18.4882C67.4059 18.2687 67.6377 18.3471 67.6515 18.5823C67.6529 18.6662 68.1828 18.7561 68.8796 18.7871C69.555 18.8169 70.3511 18.8776 70.658 18.9218C71.9136 19.0982 72.8837 19.1264 72.9718 18.9833C73.0342 18.8753 73.1465 18.9014 73.3671 19.0952C73.6344 19.3327 73.6755 19.3287 73.7212 19.1057C73.7607 18.9124 73.7852 18.8988 73.8321 19.0478C73.8725 19.1986 74.1305 19.27 74.7618 19.3186C75.2348 19.3535 75.672 19.412 75.7302 19.4455C75.7883 19.4791 76.0396 19.4469 76.3018 19.3767C76.5771 19.3029 76.8276 19.3201 76.9034 19.4192C76.9774 19.5118 77.0683 19.5366 77.1019 19.4784C77.1931 19.3205 77.7971 19.6083 78.1824 19.8142C78.3635 19.9132 78.517 19.9353 78.5125 19.8662C78.5081 19.7972 78.63 19.8066 78.7796 19.893C78.9292 19.9794 79.4211 20.0583 79.8823 20.0753C80.3352 20.0874 80.8651 20.1773 81.0462 20.2763C81.5527 20.541 81.8417 20.597 81.8424 20.4423C81.8409 20.3584 81.9647 20.3744 82.1226 20.4656C82.2805 20.5567 82.6373 20.6298 82.9236 20.6233C83.2033 20.6186 83.6012 20.6876 83.7936 20.7766C83.9909 20.8572 84.3953 20.9245 84.6947 20.9145C84.9941 20.9045 85.3608 21.1716 85.4273 21.21C85.5021 21.2532 86.0876 21.4194 86.7404 21.5747C87.3866 21.7317 88.207 21.9616 88.5564 22.0857C88.904 22.2033 89.4222 22.3806 89.7052 22.4664C91.4115 23.0138 93.7199 23.7371 95.5456 24.6249C96.07 24.8778 96.5393 25.0823 96.6018 25.0796C96.7071 25.0795 103.963 29.2685 105.81 30.3962C106.333 30.72 106.826 31.0656 106.895 31.1665C106.964 31.2674 107.198 31.3803 107.405 31.4163C107.918 31.4966 108.164 31.6554 107.997 31.7915C107.893 31.8756 108.143 32.0755 109 32.5977C109.998 33.2015 110.957 33.8998 112.016 34.7824C112.186 34.9194 112.829 35.3514 113.438 35.7362C114.053 36.1193 114.632 36.498 114.724 36.5788C114.823 36.6578 114.942 36.6821 114.998 36.6318C115.055 36.5814 117.603 38.6949 117.795 38.1798C117.861 38.0075 117.369 37.5351 117.147 37.0466C116.574 35.774 115.729 33.9561 115.477 33.7497C115.069 33.4092 115.045 33.3454 115.235 33.1611C115.367 33.0272 115.394 32.9148 115.289 32.8376C115.2 32.77 115.14 32.6245 115.158 32.5073C115.177 32.3967 115.038 32.0336 114.858 31.7025C114.678 31.3713 114.566 31.0572 114.607 31.0038C114.649 30.9504 114.556 30.7578 114.395 30.5761C114.233 30.3945 113.99 30.0101 113.857 29.7226C113.723 29.4351 113.557 29.1565 113.487 29.105C113.417 29.0535 113.319 28.7917 113.257 28.5344C113.202 28.2752 113.058 27.9484 112.94 27.7973C112.538 27.2938 110.347 23.5183 110.349 23.6582C110.356 23.8671 110.328 23.8956 110.203 23.7956C110.051 23.6747 109.419 22.7833 109.129 22.2779C108.468 21.1203 108.028 20.894 107.36 20.0822C107.036 19.6843 106.751 19.276 106.726 19.1842C106.7 19.0859 106.535 18.8631 106.354 18.6868C106.13 18.4798 106.058 18.3164 106.137 18.218C106.298 18.0062 106.11 17.6983 105.779 17.6397C105.46 17.5775 105.254 17.2814 105.426 17.1369C105.494 17.0765 105.414 16.8804 105.234 16.6826C105.056 16.4913 104.883 16.2358 104.838 16.1213C104.793 16.0069 104.529 15.6771 104.248 15.3872C103.575 14.7105 103.487 14.5934 102.905 13.6255C102.63 13.1791 102.322 12.7349 102.21 12.6594C102.103 12.5756 101.998 12.393 101.984 12.2632C101.969 12.1268 101.893 11.9223 101.819 11.8018C101.731 11.6568 101.748 11.5396 101.876 11.4634C102.003 11.3872 101.28 10.9977 101.338 9.95637C101.363 9.54938 101.948 9.03419 102.567 9.11431C103.12 9.18403 103.296 9.00328 102.939 8.71958C102.824 8.63098 102.793 8.49158 102.855 8.40495C102.922 8.31657 103.019 8.28367 103.08 8.33037C103.134 8.37227 103.223 8.36255 103.264 8.30916C103.306 8.25579 103.28 8.15746 103.208 8.09941C103.005 7.94317 104.136 6.81796 104.484 6.83022C104.81 6.8412 104.963 6.65261 104.927 6.25487C104.907 5.97207 104.928 5.94539 105.209 5.99663C105.43 6.03571 105.597 5.94896 105.795 5.69213C106.151 5.23841 106.631 6.29698 106.731 6.61466C106.839 6.9651 106.829 6.98172 106.546 6.97332C106.383 6.96783 106.293 6.99898 106.339 7.04263C106.393 7.08453 107.943 9.40905 108.478 10.1721C108.715 10.5088 109.001 10.8678 109.113 10.9713C109.217 11.0699 109.517 11.404 109.781 11.7057C110.038 12.0092 110.294 12.2567 110.341 12.251C110.491 12.232 110.76 13.0522 110.634 13.1349C110.52 13.2076 110.132 12.9113 109.416 12.204C109.091 11.8836 108.62 11.7005 108.725 11.9325C108.755 11.9946 108.923 12.2518 109.099 12.4925C109.276 12.7331 109.811 13.4961 110.283 14.1845C110.756 14.8728 111.285 15.5882 111.449 15.7829C111.614 15.9777 111.794 16.2315 111.841 16.3525C111.892 16.4652 112.401 17.2632 112.973 18.1145C114.663 20.6194 115.805 22.5195 116.894 24.6444C117.169 25.1747 117.516 25.8405 117.661 26.1179C117.812 26.3935 118.424 27.6277 119.027 28.857C119.631 30.0864 120.329 31.459 120.573 31.8993C120.826 32.3445 121.299 33.2435 121.629 33.8997C121.961 34.5624 122.257 35.1154 122.285 35.1429C122.32 35.1687 122.634 35.7873 122.985 36.5221C123.343 37.2552 123.675 37.8899 123.722 37.9336C123.935 38.1012 126.18 42.6774 126.103 42.7824C126.072 42.8257 126.222 43.1227 126.43 43.4534C126.638 43.7841 126.855 44.2528 126.902 44.5072C127.016 45.0386 127.75 46.753 127.926 46.8883C128.015 46.9559 128.045 46.9126 128.037 46.7251C128.035 46.5852 127.943 46.3991 127.83 46.3171C127.723 46.2333 127.658 46.0681 127.697 45.9522C127.729 45.8381 127.599 45.4025 127.402 44.9844C127.206 44.5663 127.04 44.1049 127.034 43.9519C127.03 43.8054 126.904 43.4388 126.761 43.14C126.611 42.843 126.416 42.4034 126.329 42.1596C126.236 41.9176 125.851 41.1076 125.469 40.3667C124.831 39.1116 124.671 38.5151 125.101 38.9902C125.2 39.0972 125.364 39.1586 125.471 39.1156C125.619 39.0621 125.674 39.1386 125.728 39.4685C125.761 39.6984 125.924 39.992 126.076 40.1129C126.253 40.2482 126.302 40.3543 126.207 40.3938C126.124 40.4232 126.006 40.3774 125.954 40.2861C125.901 40.1948 125.797 40.1456 125.733 40.1697C125.661 40.189 125.709 40.3446 125.827 40.4957C125.967 40.676 126.115 40.7558 126.229 40.7111C126.357 40.6629 126.423 40.7013 126.459 40.8603C126.49 40.9783 126.633 41.2212 126.777 41.3933C126.982 41.6334 126.996 41.7632 126.859 41.9334C126.71 42.1137 126.725 42.1941 126.946 42.3386C127.099 42.438 127.344 42.7236 127.497 42.9778C127.649 43.2321 127.705 43.3859 127.724 43.458C127.719 43.4383 127.726 43.4151 127.728 43.3937C127.741 43.2849 127.767 43.2778 127.806 43.3726C127.838 43.4626 128.156 44.0729 128.268 44.5698C128.362 44.9732 128.255 45.3107 128.442 45.4574C128.611 45.5879 128.748 45.8111 128.757 45.9492C128.759 46.0891 128.851 46.2752 128.958 46.359C129.065 46.4428 129.171 46.6814 129.195 46.8785C129.222 47.0821 129.353 47.3351 129.495 47.4446C129.673 47.5865 129.722 47.77 129.654 48.0905C129.607 48.3349 129.877 48.7682 129.944 49.0947C130.052 49.5784 129.73 50.5007 129.778 50.8604C129.837 51.238 129.806 51.5414 129.708 51.5957C129.616 51.6483 129.604 51.6798 129.678 51.667C129.863 51.6244 129.821 52.6753 129.625 52.8333C129.521 52.9174 128.774 52.6468 128.924 53.4706C129.028 54.0401 129.007 54.1721 128.778 54.3389C128.63 54.4418 128.465 54.5072 128.415 54.4784C128.365 54.4496 128.262 54.5122 128.2 54.6203C128.137 54.7283 127.885 54.8873 127.649 54.9785C127.247 55.1285 127.187 55.011 126.219 54.596C125.655 54.3536 124.903 53.986 124.548 53.7862C124.19 53.5799 123.583 53.3564 123.19 53.279C122.796 53.2017 122.218 53.0616 121.905 52.9698C121.591 52.8714 121.01 52.8021 120.612 52.8105C119.556 52.8266 118.07 52.6063 117.787 52.3872C117.618 52.2567 115.347 51.9871 115.044 52.0614C114.946 52.0877 114.846 52.0581 114.824 52.0009C114.802 51.9436 114.619 51.866 114.421 51.8348C114.149 51.7883 114.082 51.8273 114.136 51.9746C114.249 52.2673 112.764 52.075 112.222 51.7286C111.874 51.5056 111.787 51.4939 111.712 51.6614C111.665 51.7725 111.546 51.8535 111.452 51.8436C109.702 51.6311 108.723 51.5702 108.311 51.6594C108.033 51.72 107.743 51.7414 107.664 51.7065C107.584 51.6716 107.348 51.6575 107.135 51.6726C106.201 51.7262 105.124 51.7196 104.737 51.6405C104.567 51.6088 103.475 52.014 103.101 52.0367C102.728 52.0595 102.031 52.1832 101.537 52.3083C101.05 52.4317 100.592 52.5053 100.513 52.4704C100.433 52.4355 100.029 52.579 99.6126 52.7818C99.167 53.0066 98.6623 53.1419 98.3738 53.1138C98.1066 53.087 97.823 53.156 97.7309 53.2579C97.5323 53.4868 96.516 53.8364 94.422 54.4115C93.1307 54.7575 88.8925 56.3498 87.3913 57.0401C85.8723 57.7422 85.0834 58.2065 84.7036 58.6244C84.7036 58.6244 83.4165 59.9036 82.5856 59.6345C81.7548 59.3653 82.5108 58.123 82.4146 58.0785C82.3184 58.0341 82.2407 57.823 82.247 57.6106C82.2692 56.7756 81.9773 56.4464 82.1623 56.1931C82.3006 56.0015 82.4288 55.6931 82.4355 55.5086C82.4616 55.0029 82.8523 54.1535 83.7178 53.4509C84.1676 53.0845 84.5705 52.9625 84.5908 52.8025C84.6394 52.4592 87.6231 50.1704 87.7496 50.3543C87.7969 50.4259 88.1012 50.1195 88.5084 49.9613C88.9109 49.8113 89.3662 49.6752 89.5275 49.6742C90.0507 49.6604 90.5778 49.5824 90.4667 49.5349C90.4103 49.5079 90.4618 49.4379 90.5924 49.3748C90.7165 49.3134 90.9486 49.3144 91.0995 49.3794C91.2504 49.4444 91.4318 49.466 91.4969 49.4205C91.5619 49.3749 91.4919 49.3234 91.345 49.2995C90.9787 49.2432 91.0842 49.0603 91.5981 48.8805C91.8288 48.7976 92.0441 48.6837 92.0664 48.6356C92.1187 48.5162 93.3307 48.0579 93.4584 48.115C93.5131 48.1355 93.9308 48.0166 94.3887 47.8377C95.5566 47.3983 96.4393 47.1266 97.3579 46.9367C97.791 46.8487 98.2965 46.6641 98.4787 46.531C98.6787 46.3861 98.923 46.3276 99.0673 46.3944C99.2033 46.4563 99.4927 46.4349 99.7002 46.3442C100.174 46.1469 102.649 45.6806 103.251 45.6738C103.369 45.6701 103.708 45.6216 104.003 45.5706C104.318 45.5143 104.613 45.5406 104.73 45.6357C104.849 45.7374 104.977 45.7451 105.066 45.658C105.193 45.5259 105.745 45.5956 106.609 45.856C106.778 45.9091 106.996 45.8857 107.095 45.8099C107.194 45.7342 107.479 45.7212 107.725 45.7746C107.973 45.8347 108.197 45.8309 108.222 45.7679C108.306 45.5838 108.641 45.8103 108.627 46.0459C108.61 46.3244 109.268 46.4993 110.027 46.4223C110.315 46.3944 110.661 46.4281 110.807 46.5014C110.953 46.5746 111.33 46.6704 111.652 46.7176C111.812 46.738 111.328 46.6358 111.096 46.4521C110.863 46.2618 110.886 45.9815 110.901 46.0126C110.923 46.0418 111.308 45.9037 111.698 46.0238C112.042 46.1283 112.399 46.4894 112.46 46.4802C112.648 46.4507 112.65 46.4292 112.474 46.3499C112.426 46.3277 112.364 45.9929 113.165 46.1226C114.221 46.2892 116.182 47.0003 116.13 46.9369C116.098 46.8963 116.125 46.6292 115.514 46.1325C114.472 45.2875 112.957 44.2743 112.745 44.0853C112.413 43.788 111.875 43.6439 111.839 43.5622C111.703 43.2616 111.087 42.6959 110.353 42.1831C109.938 41.8938 109.419 41.4779 109.208 41.2674C108.959 41.0181 106.587 39.5601 102.527 37.1774C100.1 35.7482 98.4299 34.629 96.5696 33.6381C93.279 31.8712 90.8894 30.9238 90.7849 30.8745C90.5413 30.7782 88.9507 30.1646 87.5286 29.6816C85.9989 29.1641 84.372 28.8343 83.6749 28.5925C83.2245 28.4322 82.778 28.3129 82.6828 28.3244C82.5875 28.3359 82.2771 28.2786 81.9959 28.1993C81.2119 27.9738 79.4486 27.6595 79.2567 27.7039C79.1649 27.7284 78.9717 27.6889 78.837 27.6056C78.5793 27.4568 77.5449 27.3195 74.6618 27.0733C74.2167 27.038 73.8075 26.9791 73.7577 26.9503C73.7078 26.9215 73.1456 26.8684 72.513 26.8412C71.8805 26.814 71.2933 26.7465 71.2019 26.6937C71.1105 26.6409 70.5763 26.5873 70.0049 26.5788C69.4336 26.5703 68.6637 26.5026 68.2807 26.4367C66.8742 26.1953 64.1042 26.2139 62.7155 26.2488C62.1494 26.26 61.6139 26.2278 61.5242 26.1816C61.4328 26.1288 61.2042 26.1409 61.0093 26.2001C60.8162 26.2659 59.4136 26.0657 59.1715 26.0533C58.9293 26.0409 53.5048 26.5881 53.3251 26.573C53.1454 26.5579 52.6952 26.6083 52.3181 26.6953C51.9475 26.7806 51.236 26.8518 50.7455 26.8567C50.2551 26.8617 49.5728 26.911 49.2315 26.9744C48.6668 27.0695 46.4995 27.3973 44.6719 27.7606C43.3512 28.0231 42.4943 28.2597 41.172 28.6211C38.8778 29.2358 35.6043 30.4431 35.3443 30.5479C33.861 31.121 33.307 31.3608 32.9113 31.6143C32.6654 31.7716 32.2341 31.9714 31.9427 32.0636C31.6512 32.1557 31.041 32.4738 30.5867 32.7711C30.1324 33.0685 29.5108 33.3966 29.208 33.4989C28.9052 33.6011 28.0243 34.2727 27.1689 34.6986C26.3136 35.1245 25.493 35.7589 25.2683 35.812C25.0455 35.8717 24.8201 35.9743 24.7721 36.0574C24.6839 36.2005 23.1264 37.2571 22.8044 37.3926C22.6214 37.4697 21.1607 38.4161 20.8179 38.6836C20.6961 38.7795 20.2261 39.1232 19.7807 39.4533C18.1983 40.6009 17.6996 40.9945 16.8355 41.781C16.0281 42.5172 14.9747 43.3053 14.1954 43.753C13.6655 44.0565 12.4044 45.1181 12.2412 45.4007C12.1597 45.542 11.9147 45.7551 11.688 45.8791C11.4678 46.0013 10.8831 46.4671 10.3918 46.9149C9.79843 47.4533 9.43371 47.6915 9.32567 47.6291C9.23424 47.5763 8.93834 47.5994 8.67135 47.678C8.04736 47.8663 7.40684 47.7569 7.23335 47.424C7.13653 47.2462 7.06173 47.203 6.93941 47.2709C6.8171 47.3388 6.60277 47.2206 6.09918 46.8357C5.61045 46.4538 5.38125 46.3325 5.27029 46.3903C5.1838 46.4346 5.11135 46.5313 5.1158 46.6004C5.11734 46.7896 4.84743 46.9884 4.43184 46.3551C4.43184 46.3551 4.1471 45.4759 4.00978 45.4354C3.70544 45.3484 3.33878 44.6879 3.51563 44.5351L3.617 44.4939ZM94.3546 48.1559C94.2898 48.1241 94.2081 48.16 94.1829 48.223C94.151 48.2877 94.187 48.3694 94.25 48.3947C94.3147 48.4266 94.3964 48.3906 94.4217 48.3276C94.4535 48.2629 94.4176 48.1812 94.3546 48.1559ZM95.3709 47.8063C95.2289 47.8795 95.1906 47.946 95.2684 47.9743C95.3397 48.0044 95.4546 47.9876 95.5328 47.9386C95.7525 47.7884 95.6239 47.6753 95.3709 47.8063ZM98.6456 46.8656C98.4568 46.8952 98.4656 46.9279 98.6878 47.023C98.8386 47.0879 98.9785 47.0856 99.0104 47.0208C99.0753 46.8699 98.9476 46.8128 98.6522 46.8639L98.6456 46.8656ZM101.364 46.3129C101.02 46.3417 100.9 46.4162 101.084 46.5003C101.14 46.5274 101.306 46.49 101.441 46.4186C101.67 46.3012 101.662 46.2964 101.359 46.3212L101.364 46.3129ZM102.366 46.1989C102.262 46.1497 102.067 46.1595 101.945 46.2274C101.655 46.3755 101.847 46.4645 102.249 46.3639C102.511 46.2936 102.527 46.2752 102.366 46.1989ZM103.935 45.8137C103.806 45.806 103.685 45.8525 103.658 45.9089C103.587 46.0615 103.668 46.075 103.934 45.9405C104.126 45.8467 104.128 45.8253 103.935 45.8137ZM104.621 45.8828C104.621 45.8828 104.506 45.9275 104.424 46.0129C104.341 46.0982 104.33 46.1857 104.394 46.2175C104.457 46.2428 104.547 46.1837 104.591 46.0874C104.636 45.9912 104.646 45.8972 104.623 45.8894L104.621 45.8828ZM105.458 46.305C105.435 46.2477 105.331 46.1985 105.23 46.1903C105.116 46.1856 105.135 46.2297 105.273 46.2982C105.401 46.3553 105.48 46.3622 105.458 46.305ZM106.384 46.984C106.317 46.9177 106.181 46.8557 106.082 46.8541C105.984 46.8525 106.041 46.9075 106.208 46.982C106.376 47.0566 106.453 47.0569 106.384 46.984ZM106.09 46.0161C105.862 46.0068 105.853 46.0234 106.037 46.2129C106.318 46.5028 106.524 46.5883 106.584 46.4457C106.662 46.2633 106.38 46.0228 106.09 46.0161ZM108.423 47.33L108.097 47.1363C107.912 47.0242 107.706 46.9881 107.621 47.0389C107.545 47.0945 107.418 47.0934 107.34 47.0371C107.261 46.9808 107.14 46.9993 107.069 47.0746C106.97 47.1783 107.002 47.2189 107.2 47.2221C107.348 47.2246 107.686 47.2535 107.946 47.282L108.425 47.3365L108.423 47.33ZM110.037 47.0872C109.789 47.0551 109.548 46.9654 109.492 46.8889C109.298 46.6107 107.832 45.9918 107.534 46.0577C107.281 46.1113 107.395 46.1934 108.37 46.6346C108.994 46.9171 109.509 47.1866 109.527 47.2307C109.57 47.3386 109.622 47.346 110.187 47.3842C110.78 47.422 110.649 47.1691 110.037 47.0872ZM112.739 47.5504C112.588 47.4854 112.447 47.4812 112.417 47.5525C112.352 47.7034 112.473 47.7622 112.781 47.7077C112.97 47.6782 112.962 47.6454 112.739 47.5504ZM114.198 47.7497C114.23 47.685 114.108 47.5701 113.94 47.4956C113.766 47.4228 113.641 47.4282 113.657 47.5152C113.667 47.6039 113.781 47.7139 113.915 47.7693C114.043 47.8264 114.174 47.8192 114.204 47.7479L114.198 47.7497ZM128.293 48.3076C128.548 48.8926 128.595 48.9363 128.7 48.7255C128.939 48.254 128.892 47.8943 128.586 47.8286C128.429 47.7934 128.305 47.672 128.3 47.547C128.289 47.325 128.133 47.3177 128.049 47.5298C128.024 47.5928 128.138 47.9415 128.298 48.2993L128.293 48.3076ZM123.447 39.5036C123.555 39.594 123.631 39.6157 123.622 39.555C123.613 39.4942 123.529 39.4183 123.43 39.3887C123.322 39.3543 123.328 39.4019 123.445 39.4971L123.447 39.5036ZM110.115 12.6136C110.177 12.6603 110.259 12.6524 110.308 12.5972C110.356 12.5421 110.367 12.4761 110.342 12.4617C110.315 12.4407 110.233 12.4487 110.149 12.4781C110.066 12.5075 110.055 12.5735 110.115 12.6136ZM109.287 21.7929C109.278 21.7322 109.194 21.6562 109.097 21.6332C108.989 21.5988 108.995 21.6464 109.112 21.7416C109.214 21.8337 109.296 21.8537 109.287 21.7929ZM110.101 22.8393L109.964 22.5881C109.891 22.4462 109.755 22.2789 109.673 22.2095C109.538 22.0982 109.526 22.1083 109.6 22.3062C109.647 22.4272 109.776 22.5962 109.891 22.6848L110.101 22.8393ZM108.726 11.4403L109.199 11.5525L108.57 11.145C108.059 10.8112 107.976 10.7138 108.115 10.6276C108.291 10.5242 108.191 10.3613 107.966 10.3864C107.782 10.4076 107.865 11.0318 108.068 11.188C108.167 11.267 108.463 11.3772 108.726 11.4403ZM115.061 30.1517C114.97 30.0775 114.882 30.0873 114.877 30.1729C114.865 30.2604 114.879 30.3408 114.898 30.3569C114.923 30.3713 115.005 30.3634 115.082 30.3357C115.165 30.3064 115.151 30.2259 115.061 30.1517ZM112.455 36.2383C112.73 36.4526 113.084 36.7512 113.245 36.9049C113.705 37.3366 115.228 38.2493 115.162 38.0562C115.136 37.9578 114.579 37.503 113.932 37.0299C113.285 36.5569 112.602 36.0515 112.415 35.9049C112.226 35.7516 112.046 35.6806 112.014 35.7453C111.98 35.8035 112.175 36.0323 112.45 36.2466L112.455 36.2383ZM110.451 34.6325C110.527 34.8091 110.85 35.0736 111.274 35.3183C111.73 35.5756 111.93 35.6414 111.854 35.5143C111.789 35.4051 111.419 35.0969 111.031 34.8286C110.401 34.3931 110.34 34.3743 110.451 34.6325ZM107.085 32.4505C107.663 32.8786 109.215 33.7414 109.339 33.708C109.503 33.6641 107.026 32.0729 106.812 32.088C106.674 32.0969 106.77 32.2188 107.085 32.4505ZM104.82 30.8442C104.792 30.894 105.019 31.1141 105.337 31.3309C105.654 31.5413 105.982 31.7695 106.07 31.8371C106.157 31.8982 106.332 31.9496 106.464 31.9424C106.636 31.9313 106.566 31.8518 106.2 31.6127C105.92 31.4347 105.512 31.1716 105.283 31.0224C105.053 30.8732 104.849 30.7943 104.814 30.8459L104.82 30.8442ZM100.891 28.5531C101.072 28.7854 102.852 29.7629 103.009 29.7207C103.061 29.7067 102.569 29.3891 101.907 29.0183C101.228 28.6314 100.788 28.433 100.891 28.5531ZM98.0998 26.9474C98.3178 27.184 100.479 28.3543 100.638 28.3187C100.677 28.3081 100.067 27.9447 99.2877 27.5002C98.4584 27.0269 97.9624 26.8015 98.0998 26.9474ZM96.4369 26.1424C96.4965 26.2599 96.6234 26.3665 96.7257 26.3812C96.828 26.3959 97.0917 26.515 97.3078 26.6397C97.5239 26.7645 97.7023 26.801 97.6961 26.7254C97.6925 26.6069 97.3066 26.3731 96.5054 26.0047C96.3462 25.9349 96.3348 25.945 96.4334 26.1293L96.4369 26.1424ZM95.0775 25.4739L95.4717 25.7126C95.6895 25.8439 95.9712 25.9511 96.0962 25.9457C96.2902 25.9358 96.2915 25.9144 96.0973 25.8189C95.9679 25.7553 95.6862 25.6481 95.4728 25.5858L95.0775 25.4739ZM94.6738 25.2519C94.8317 25.3431 94.9108 25.35 94.8487 25.2753C94.7865 25.2007 94.6601 25.1221 94.5661 25.1122C94.4704 25.0957 94.5159 25.1608 94.6738 25.2519ZM93.8881 25.1252C93.9796 25.178 94.1164 25.1905 94.1963 25.148C94.2697 25.1073 94.2552 25.0269 94.1638 24.9741C94.0724 24.9213 93.9355 24.9088 93.8556 24.9513C93.7822 24.992 93.795 25.0659 93.8881 25.1252ZM92.0811 24.0709C92.0821 24.1268 92.2339 24.2477 92.418 24.3319C92.6039 24.4226 92.956 24.6092 93.2101 24.7449C93.491 24.9015 93.6462 24.9301 93.6181 24.8252C93.5689 24.6417 92.0783 23.903 92.0811 24.0709ZM89.7343 23.414C90.0723 23.5483 90.4344 23.641 90.531 23.6081C90.6555 23.5747 90.5304 23.4747 90.1044 23.3008C89.7729 23.1648 89.4108 23.0722 89.3077 23.1068C89.1701 23.1437 89.2851 23.2323 89.7343 23.414ZM83.7573 21.4537C83.9178 21.502 84.0821 21.4861 84.1109 21.4362C84.1973 21.2866 83.9204 21.1711 83.5608 21.2183C83.2207 21.2603 83.2746 21.3301 83.7508 21.4555L83.7573 21.4537ZM82.6065 21.2492C82.8343 21.2865 83.0142 21.1189 82.8498 21.0295C82.7999 21.0007 82.6154 20.9939 82.438 21.0133C82.111 21.0518 82.2039 21.1885 82.6065 21.2492ZM80.4502 20.8575C80.5832 20.9343 80.7935 21.0114 80.9107 21.0292C81.2854 21.0904 81.2733 20.8618 80.8929 20.7529C80.4197 20.6127 80.1361 20.6817 80.4502 20.8575ZM75.9546 19.9685C76.38 20.0091 76.633 19.9834 76.5084 19.9115C76.2988 19.7849 75.0651 19.6378 75.0057 19.731C74.9482 19.8307 75.2044 19.8955 75.948 19.9703L75.9546 19.9685ZM74.2645 19.7961C74.4887 19.8203 74.6264 19.7835 74.566 19.7153C74.5056 19.6472 74.3176 19.6273 74.1537 19.6712C73.8719 19.7468 73.8819 19.7581 74.2645 19.7961ZM72.0572 19.6077C72.1486 19.6605 72.3746 19.6913 72.5438 19.667C72.782 19.6384 72.8208 19.5998 72.6896 19.5296C72.5982 19.4768 72.3722 19.4461 72.203 19.4703C71.9648 19.499 71.9242 19.531 72.0572 19.6077ZM67.6417 19.175C67.7598 19.2488 67.8407 19.2622 67.8249 19.2032C67.8091 19.1442 67.7159 19.0849 67.6136 19.0702C67.503 19.0506 67.5153 19.0965 67.6417 19.175ZM66.1876 18.6513C66.2541 18.6897 66.3643 18.6813 66.4377 18.6406C66.511 18.5998 66.5232 18.5404 66.4567 18.502C66.3986 18.4684 66.2801 18.472 66.2067 18.5128C66.1333 18.5535 66.1211 18.613 66.1876 18.6513ZM63.7144 18.9909C63.9185 18.9924 64.0443 18.9376 63.9953 18.8594C63.9528 18.7795 63.7416 18.7518 63.5266 18.7883C63.0703 18.8684 63.1793 18.9867 63.7144 18.9909ZM62.3023 18.9126C62.4344 18.9334 62.5393 18.9053 62.5252 18.8529C62.5112 18.8004 62.4005 18.7809 62.276 18.8143C62.099 18.8617 62.1043 18.8813 62.3023 18.9126ZM58.7004 18.8942C58.627 18.9349 58.6166 19.0009 58.6748 19.0345C58.7413 19.0729 58.8532 19.071 58.9266 19.0303C59 18.9895 59.0104 18.9235 58.9456 18.8917C58.8875 18.8581 58.769 18.8617 58.6956 18.9025L58.7004 18.8942ZM58.4639 18.536C58.7301 18.5068 58.7511 18.4802 58.5997 18.3872C58.4982 18.3231 58.3072 18.3181 58.1796 18.3663C57.8738 18.4834 58.0566 18.589 58.4722 18.5408L58.4639 18.536ZM46.9453 19.6483C46.9453 19.6483 46.9961 19.733 47.0893 19.7924C47.1807 19.8452 47.286 19.845 47.3244 19.7785C47.358 19.7204 47.291 19.654 47.1804 19.6345C47.0633 19.6167 46.9597 19.6234 46.9453 19.6483ZM39.784 21.2651C39.962 21.2736 40.1722 21.2453 40.2521 21.2029C40.5588 21.0364 40.3323 20.9776 39.9049 21.1132C39.4776 21.2488 39.4728 21.2571 39.7775 21.2668L39.784 21.2651ZM34.8593 22.6549C34.959 22.7125 35.0377 22.6914 35.0363 22.6075C35.0349 22.5235 34.9871 22.4239 34.9224 22.3921C34.8642 22.3585 34.7855 22.3796 34.7454 22.4395C34.707 22.506 34.7596 22.5973 34.8593 22.6549ZM32.2315 23.8859C32.5442 23.6897 32.6498 23.5069 32.5019 23.427C32.442 23.3869 32.3298 23.4662 32.2578 23.5908C32.1858 23.7155 32.0783 23.7864 32.0136 23.7546C31.9489 23.7228 31.8685 23.7373 31.8366 23.802C31.7263 23.9932 31.9807 24.0514 32.2332 23.8925L32.2315 23.8859ZM29.0834 25.4039C29.1415 25.4375 29.2411 25.3897 29.2987 25.29C29.3563 25.1902 29.3287 25.1133 29.2531 25.1195C29.1691 25.121 29.0695 25.1687 29.0377 25.2335C29.0041 25.2916 29.0252 25.3703 29.0851 25.4104L29.0834 25.4039ZM10.9366 37.5165C11.0031 37.5549 11.0901 37.5386 11.1219 37.4739C11.1537 37.4091 11.1659 37.3497 11.1392 37.3287C11.1143 37.3143 11.0273 37.3306 10.9557 37.3779C10.8823 37.4186 10.8719 37.4847 10.9384 37.523L10.9366 37.5165ZM6.76466 41.8731C6.84858 41.8716 6.97827 41.7526 7.0616 41.6179C7.17677 41.4184 7.16142 41.3874 6.99498 41.4741C6.72238 41.6104 6.56883 41.8764 6.76466 41.8731ZM6.22211 41.8147C6.37943 41.7725 6.41782 41.7061 6.37567 41.5487C6.30191 41.2734 6.09871 41.3279 6.04793 41.6366C6.01974 41.8197 6.06 41.8652 6.22387 41.8213L6.22211 41.8147ZM11.8542 35.4089C11.8738 35.2983 11.8279 35.3106 11.7428 35.4387C11.6691 35.5568 11.6556 35.6377 11.7146 35.6219C11.7736 35.6061 11.8329 35.5129 11.8477 35.4106L11.8542 35.4089ZM10.683 36.3339C10.9042 36.373 11.3714 35.9668 11.324 35.7898C11.2555 35.5342 10.8557 35.6413 10.6685 35.9655C10.5198 36.2231 10.523 36.3136 10.6782 36.3422L10.683 36.3339ZM90.4135 49.3103C90.5087 49.1935 90.533 49.0745 90.47 49.0492C90.4136 49.0222 90.3511 49.0249 90.3385 49.0564C90.3354 49.0713 89.6875 49.3011 89.4328 49.4255C89.1715 49.5517 89.2935 49.5612 89.2564 49.6063C89.2564 49.6063 90.0636 49.4462 90.1283 49.478C90.1913 49.5033 90.3201 49.4337 90.4153 49.3168L90.4135 49.3103ZM110.428 45.8444C109.706 45.6162 109.181 45.7008 109.208 45.883C109.229 46.039 109.721 46.146 110.38 46.1382C110.806 46.1294 111.003 46.0273 110.428 45.8444ZM100.601 45.85C100.672 45.8027 100.669 45.7402 100.598 45.7102C100.527 45.6801 100.443 45.7095 100.418 45.7725C100.386 45.8372 100.389 45.8997 100.421 45.9123C100.452 45.925 100.529 45.8973 100.601 45.85ZM53.2925 18.6642C53.3326 18.6042 53.3365 18.54 53.3098 18.519C53.2848 18.5046 53.1979 18.5209 53.1262 18.5682C53.0529 18.6089 53.0424 18.6749 53.1089 18.7133C53.1754 18.7517 53.2606 18.7289 53.2925 18.6642ZM12.5305 35.1012C12.7908 34.9191 12.8017 34.881 12.6312 34.8213C12.5219 34.7804 12.3204 34.8414 12.189 34.9539C11.8383 35.2445 12.1401 35.3744 12.5305 35.1012ZM105.744 5.60739C105.807 5.52732 105.813 5.42021 105.76 5.37831C105.707 5.33641 105.581 5.39121 105.487 5.51459C105.399 5.62966 105.392 5.73676 105.478 5.7419C105.564 5.74705 105.681 5.68745 105.744 5.60739ZM61.7525 18.2239C61.7926 18.164 61.7716 18.0853 61.7051 18.0469C61.6469 18.0133 61.5367 18.0218 61.4616 18.056C61.3882 18.0967 61.4027 18.1771 61.509 18.2329C61.6153 18.2888 61.7189 18.2821 61.7525 18.2239ZM60.7707 18.1779C60.8698 18.1021 60.8754 18.0444 60.7915 18.0458C60.7076 18.0472 60.6079 18.095 60.5761 18.1597C60.4801 18.326 60.5807 18.3341 60.7724 18.1844L60.7707 18.1779ZM13.2306 34.5413C13.3008 34.4101 13.2941 34.3065 13.2102 34.3079C13.1263 34.3093 13.014 34.3886 12.9612 34.48C12.9085 34.5714 12.9151 34.675 12.9799 34.7068C13.0398 34.747 13.152 34.6677 13.2306 34.5413ZM15.9338 33.0934C16.0921 32.8191 15.807 32.6988 15.5808 32.9561C15.4953 33.0563 15.5103 33.1647 15.6118 33.2288C15.7198 33.2912 15.8457 33.2364 15.9272 33.0951L15.9338 33.0934ZM52.7139 18.8122C52.8955 18.6511 52.7036 18.5901 52.2355 18.6523L51.8216 18.707L52.2086 18.8141C52.4202 18.8698 52.6523 18.8708 52.7204 18.8104L52.7139 18.8122Z" fill="white"/>
</g>
<defs>
<clipPath id="clip0_3336_26287">
<rect width="121.069" height="55.8963" fill="white" transform="translate(131.411 53.9917) rotate(165)"/>
</clipPath>
</defs>
</svg>
