<?xml version="1.0" encoding="UTF-8"?>
<svg id="Layer_1" data-name="Layer 1" xmlns="http://www.w3.org/2000/svg" version="1.1" viewBox="0 0 430 120">
  <defs>
    <style>
      .cls-1, .cls-2 {
        fill: #fff;
      }

      .cls-2 {
        stroke-width: 0px;
      }
    </style>
  </defs>
  <path class="cls-1" d="M399.8,79.1c0,12.3-8,15.2-14.2,15.2s-14.2-2.9-14.2-15.2,8-15.2,14.2-15.2,14.2,2.9,14.2,15.2M411.1,79.1V19.4c0-1.1-.6-1.7-1.7-1.7h-7.9c-1.1,0-1.7.6-1.7,1.7v39.7c-3.2-4.2-10.1-6-14.2-6-14.4,0-25.5,9-25.5,26s11.2,26,25.5,26,25.5-9,25.5-26M323.2,63.9c-5,0-11.2,2-13.4,9.1h26.8c-2.2-7.1-8.3-9.1-13.4-9.1M346.9,81.2h-37.9c1,10.6,8.3,13.1,14.2,13.1s7.1-.7,9.9-3.6c.9-.6,1.8-1,2.8-.5l7.2,3.2c.9.4,1.2,1.4.6,2.2-4.5,6.3-11.8,9.5-20.6,9.5-14.4,0-25.5-9-25.5-26s11.2-26,25.5-26,25.5,9,25.5,26v.4c0,1-.9,1.7-1.8,1.7M275.1,79.1c0,11.9-8,15.2-14.2,15.2s-14.2-2.9-14.2-15.2,8-15.2,14.2-15.2,14.2,2.9,14.2,15.2M286.4,79.1c0-17.1-11.2-26-25.5-26s-11,1.8-14.2,6V19.4c0-1.1-.6-1.7-1.7-1.7h-7.9c-1.1,0-1.7.6-1.7,1.7v59.7c0,17.1,11.2,26,25.5,26s25.5-10.9,25.5-26M222.6,63.5c-.2,1.2-.5,1.7-2,1.4s-4.1-.6-6-.6c-5.4,0-10.3,2-10.3,9.8v27.9c0,1.1-.6,1.7-1.7,1.7h-7.9c-1.1,0-1.7-.6-1.7-1.7v-27.9c0-15.2,9.1-20.7,20.4-20.7s6,.4,9.1,1.2,1.6,1,1.4,2.2l-1.2,6.8h0ZM169.3,73h-26.8c2.2-7.1,8.3-9.1,13.4-9.1s11.2,2,13.4,9.1M181.5,79.5v-.4c0-17.1-11.2-26-25.5-26s-25.5,9-25.5,26,11.2,26,25.5,26,16.1-3.2,20.6-9.5c.6-.9.2-1.8-.6-2.2l-7.2-3.2c-1-.5-2-.1-2.8.5-2.8,2.8-6.6,3.6-9.9,3.6-5.9,0-13.3-2.6-14.2-13.1h37.9c1,0,1.8-.7,1.8-1.7M105,102.1c-.4,1.1-1.2,1.6-2.3,1.6h-8.8c-1.1,0-2-.5-2.5-1.6l-19.5-45.9c-.4-.9.2-1.6,1.1-1.6h8.8c1.1,0,2,.5,2.3,1.6l14.1,33.9,14.1-33.9c.4-1.1,1.2-1.6,2.3-1.6h8.8c.9,0,1.4.7,1,1.6l-19.5,45.9h0ZM60.5,56.3c0-1.1-.6-1.7-1.7-1.7h-7.9c-1.1,0-1.7.6-1.7,1.7v45.7c0,1.1.6,1.7,1.7,1.7h7.9c1.1,0,1.7-.6,1.7-1.7v-45.7h0ZM54.8,28.2c3.8,0,6.9,3.1,6.9,6.9s-3.1,6.9-6.9,6.9-6.9-3.1-6.9-6.9,3.1-6.9,6.9-6.9M37.8,56.8c.2-1.2-.2-1.8-1.4-2.2-3-1-6.1-1.2-9.1-1.2-11.3,0-20.4,5.5-20.4,20.7v27.9c0,1.1.6,1.7,1.7,1.7h7.9c1.1,0,1.7-.6,1.7-1.7v-27.9c0-7.9,4.9-9.8,10.3-9.8s4,.1,6,.6,1.8-.3,2-1.4l1.2-6.8h0Z"/>
  <path class="cls-2" d="M421.1,17.7c2.7,0,4.9,2.2,4.9,4.9s-2.2,4.9-4.9,4.9-4.9-2.2-4.9-4.9,2.2-4.9,4.9-4.9ZM421.1,26.6c2.2,0,4-1.7,4-4s-1.8-4-4-4-4,1.8-4,4,1.7,4,4,4ZM419.2,20c0-.1,0-.2.2-.2h1.9c1.1,0,2,.6,2,2s-.5,1.6-1.1,1.8l1.1,1.6c0,0,0,.2,0,.2h-.8c-.1,0-.3,0-.3-.2l-1-1.4h-.8v1.4c0,.1,0,.2-.2.2h-.6c-.1,0-.2,0-.2-.2v-5.1ZM421.4,22.8c.6,0,.9-.3.9-1s-.3-1-.9-1h-1.1v2h1.1Z"/>
</svg>