<svg width="63" height="3" viewBox="0 0 63 3" fill="none" xmlns="http://www.w3.org/2000/svg">
<path fill-rule="evenodd" clip-rule="evenodd" d="M8.73234 1.20211C6.08043 1.64101 3.67173 1.70017 0.352566 1.69757C0.163695 1.30999 0.711386 1.42521 0.591541 1.08331C3.29794 1.14389 6.72282 0.706663 8.86869 1.19965C10.1596 0.926089 12.9532 0.781781 13.9594 1.10768C14.456 0.911029 16.044 0.725943 16.5047 1.06169C17.3598 0.577053 18.685 0.944105 20.0696 0.825253C20.0722 0.965964 20.0074 1.15481 20.2122 1.16675C20.5875 0.55002 23.0883 0.551761 24.0271 0.925793C26.2694 0.463012 28.8209 0.76099 31.5237 0.618324C31.731 0.770975 32.2299 0.699403 32.3026 0.948325C32.7736 0.595741 34.2343 0.913427 34.3142 0.302035C34.5684 0.532038 34.9798 0.649724 34.9647 1.07227C34.5522 0.892044 34.4613 0.893687 34.0783 1.08828C35.3797 1.39321 37.2648 1.29659 39.0375 1.26457C39.144 0.871647 38.5097 0.992585 38.5265 0.663848C38.1844 0.607468 38.6247 1.06871 38.2827 1.01233C37.5498 0.712772 35.9192 1.05503 35.4778 0.531249C35.7013 0.323894 36.6059 0.0573168 36.8851 0.411986C40.0684 0.448313 43.109 0.127509 45.6653 0.691275C45.1437 0.763256 44.3225 0.606055 44.008 0.815053C44.4205 0.995278 45.3267 0.822509 45.5369 1.13151C45.8303 1.01673 46.1005 0.871088 46.6701 0.938996C46.6658 0.704477 46.2576 0.758772 46.2758 0.508207L47.4121 0.487679C47.2598 0.865783 47.6237 0.874849 47.6731 1.09291C49.6478 0.916481 50.3318 1.02924 51.7442 1.1914C52.05 0.49773 50.6724 1.00745 50.5969 0.60218L52.1196 0.574671C52.261 0.853631 51.919 0.79725 51.8758 0.923148C52.8147 1.29718 54.6282 1.01418 55.4548 1.46844C55.5432 1.32608 55.8616 1.33597 55.835 1.1175C58.8101 0.95427 59.7217 1.07856 61.9225 0.835483C61.9253 0.991829 62.085 1.02022 62.0651 1.17698C61.844 1.52505 60.7254 1.26374 60.8034 1.80972C56.1039 2.1605 51.0788 2.11053 46.9435 2.23215C45.9612 1.96839 45.647 2.19302 44.2814 2.10821C44.4601 1.93294 44.432 1.6363 44.9099 1.65894C44.6469 0.944269 42.3237 0.704725 41.9751 1.53993C41.8564 1.26056 42.0828 1.20955 42.2172 1.09764C41.6652 0.747899 40.2383 1.03955 39.2824 0.978626C39.5122 1.11523 39.7417 1.2362 39.6797 1.5814C40.0775 0.948622 40.6558 1.5012 41.6992 1.37287C41.7697 1.49672 41.5483 1.82915 41.8435 1.80818C42.4316 1.64116 42.8589 1.3832 43.3552 1.17092C43.5421 1.44906 43.7065 1.74324 44.0056 1.94116C41.0108 2.27677 37.0463 1.78537 33.8391 1.68691C33.7215 1.47008 33.492 1.34911 33.3295 1.16437C32.7167 1.22236 32.4721 1.52393 31.8131 1.53584C31.3285 1.13796 30.047 0.676279 29.1462 1.14611C27.8878 0.699649 26.219 1.44922 25.3392 1.82483C25.0418 1.72073 24.7665 1.58494 24.1998 1.67338L24.1935 1.32942C23.1294 1.5676 21.3701 1.08327 20.2681 1.74441C18.4646 1.32344 15.9397 1.24394 14.4306 2.02191C14.313 1.80508 14.0835 1.6841 13.921 1.49936C13.4693 1.66392 12.8102 1.67583 12.4045 1.87083C11.4368 1.15325 9.4774 2.17395 8.82242 1.15356L8.73234 1.20211ZM46.5013 1.66147C47.2436 1.22579 47.6884 1.93718 48.5239 1.62493C48.3782 1.11145 47.1777 1.3521 46.6053 1.12784C46.609 1.33109 46.3826 1.3821 46.4785 1.66188L46.5013 1.66147ZM51.4573 1.66578L52.0936 1.65428L52.0905 1.4823C52.0885 1.37286 51.8843 1.39219 51.7025 1.39547C51.751 1.56663 51.5238 1.57074 51.4573 1.66578Z" fill="white"/>
</svg>
