<?xml version="1.0" encoding="UTF-8"?>
<svg id="Layer_1" data-name="Layer 1" xmlns="http://www.w3.org/2000/svg" version="1.1" viewBox="0 0 450 130">
  <defs>
    <style>
      .cls-1 {
        fill: #fff;
      }

      .cls-1, .cls-2 {
        stroke-width: 0px;
      }

      .cls-2 {
        fill: #fff;
      }
    </style>
  </defs>
  <path class="cls-1" d="M159.7,88.5c-15.3,0-23-11-23-23.2s8-23.1,23.2-23.1,10,1.3,13.5,3.5l-4.4,7.2c-2.5-1.6-5.2-2.6-9.3-2.6-8.2,0-12.6,6.6-12.6,14.7s4.2,15.3,12.7,15.3,7.7-1.7,10-3.4l4,6.9c-2.3,2-7.6,4.7-14.2,4.7h0ZM192.3,61.1c-4.9,0-6.5,4.1-6.5,10.2s2,10.3,6.9,10.3,6.6-4.1,6.6-10.1c0-6-2-10.4-7-10.4h0ZM192.4,88.5c-11.5,0-16.4-8.6-16.4-17.1s5-17.3,16.4-17.3,16.7,8.5,16.7,17c0,8.4-5.1,17.4-16.7,17.4h0ZM223.5,55v21c0,3.2,1.1,4.8,4.2,4.8s5.8-3.2,6.5-3.9v-21.9h9.2v23.1c0,4.3.5,7.6.9,9.6h-9.1c-.3-.9-.6-3-.7-4.4-1.7,2.3-5.1,5.1-10.6,5.1s-9.8-4.6-9.8-10.6v-22.9h9.4c0,0,0,0,0,0ZM266.1,88.5c-10.6,0-17-6.9-17-17.1s7.3-17.2,17.4-17.2,8.4,1.6,10,2.6l-2.9,6.3c-1.4-.9-3.5-1.9-6.8-1.9-5.1,0-7.8,4-7.8,10s2.6,10.3,8.1,10.3,6-1.4,6.9-2l2.8,6.2c-1.5,1-4.5,2.9-10.6,2.9h0ZM301.4,87.8v-21c0-3.2-1.1-4.8-4.2-4.8s-5.9,3.1-6.6,3.9v21.9h-9.2v-48.3h9.2v19.5c1.7-1.8,4.8-4.7,10.2-4.7s9.8,4.6,9.8,10.6v22.9h-9.2q0,0,0,0ZM327.4,80.6c.6.2,2,.7,4.4.7,4.8,0,7.7-3.5,7.7-10.2s-2-9.7-6.7-9.7-4.8,1.7-5.4,2.4v16.7ZM327.4,39.5v18.1c1.5-1.5,4.4-3.4,8-3.4,8.1,0,13.9,5.6,13.9,16.9s-7.5,17.4-17.5,17.4-12-1.9-13.7-2.6v-46.5h9.3q0,0,0,0ZM371.2,73.4h-1.1c-5.1,0-8.6,1.5-8.6,5.2s1.9,3.3,3.9,3.3c3.1,0,4.9-1.8,5.8-2.7v-5.8h0ZM372.2,87.8c-.3-.8-.5-2.5-.5-3.5-1.4,1.7-4.5,4.3-9.1,4.3-5.6,0-9.9-3.3-9.9-9.2,0-8.5,8.8-11.6,17.4-11.6h1.1v-1.8c0-2.7-1.1-4.4-5.2-4.4s-7.1,2.2-8.3,3l-4-5.6c2-1.8,6.3-4.8,13.4-4.8s13.4,3.5,13.4,12.2v11.5c0,4.5.5,7.7.9,9.8h-9.1ZM397,88.5c-5.9,0-9.7-1.7-11.7-3.1l3.1-6.4c1.3.9,4.5,2.7,8.1,2.7s5.3-1,5.3-2.8-3.7-2.7-8.4-5c-4.5-2.2-7.2-4.7-7.2-9.7s4.9-10.1,12.4-10.1,9.1,1.7,10.6,2.6l-3.2,6.3c-1.3-.8-3.8-2-6.9-2s-4.5,1.1-4.5,2.8,3,2.6,6.8,4.1c5.1,2.1,8.8,4.5,8.8,10-.2,7-5.1,10.6-13.2,10.6h0ZM434.9,67.4c0-3.6-1.5-6.6-5.4-6.6s-5.7,2.3-6.3,6.6h11.8ZM431.5,81.7c4.5,0,6.9-1.4,8.5-2.3l2.9,5.9c-2.2,1.2-5.5,3.2-12.3,3.2-11,0-17.3-6.9-17.3-17.4s7.2-17,16.3-17,15.3,7.2,14.2,19.4h-20.6c.4,4.9,2.9,8.1,8.2,8.1h0Z"/>
  <path class="cls-2" d="M59.8,15.5c-27.5,0-49.9,22.3-49.9,49.9s22.3,49.9,49.9,49.9,49.9-22.3,49.9-49.9S87.3,15.5,59.8,15.5ZM93.5,74.2c0,3-1.7,5.7-5.1,6.3-5.9,1.1-18.3,1.7-28.6,1.7s-22.7-.6-28.6-1.7c-3.4-.6-5.1-3.2-5.1-6.3v-19.5c0-3,2.3-5.8,5.1-6.3,1.7-.3,5.8-.6,9-.6s2.2.9,2.2,2.3v13.7l17.5-.4,17.5.4v-13.7c0-1.4,1-2.3,2.2-2.3,3.2,0,7.2.3,9,.6,2.9.5,5.1,3.2,5.1,6.3-.2,6.4-.2,13-.2,19.5h0Z"/>
</svg>