<?xml version="1.0" encoding="UTF-8"?>
<svg id="Layer_1" data-name="Layer 1" xmlns="http://www.w3.org/2000/svg" version="1.1" viewBox="0 0 280 280">
  <defs>
    <style>
      .cls-1 {
        fill: none;
      }

      .cls-1, .cls-2 {
        fill-rule: evenodd;
        stroke-width: 0px;
      }

      .cls-2 {
        fill: #fff;
      }
    </style>
  </defs>
  <path class="cls-2" d="M140.3,278.4C63.8,278.4,1.6,216.2,1.6,139.7S63.8,1,140.3,1s138.7,62.2,138.7,138.7-62.2,138.7-138.7,138.7h0ZM163.8,86.1h-78.4l-11.9,19.1h78.3l12-19.1ZM179.8,86.2l-47.9,76.3h-53.2l12.3-19.1h31.9l12.2-19.1H61.3l-12.2,19.1h17.5l-24.2,38.2h101l37.3-58.9,13.6,20.7h-12.3l-11.6,19.1h36.3l12.6,19.1h23.2l-62.8-95.4Z"/>
  <path class="cls-1" d="M163.8,86.1h-78.4l-11.9,19.1h78.3l12-19.1ZM179.8,86.2l-47.9,76.3h-53.2l12.3-19.1h31.9l12.2-19.1H61.3l-12.2,19.1h17.5l-24.2,38.2h101l37.3-58.9,13.6,20.7h-12.3l-11.6,19.1h36.3l12.6,19.1h23.2l-62.8-95.4Z"/>
</svg>