<svg width="367" height="108" viewBox="0 0 367 108" fill="none" xmlns="http://www.w3.org/2000/svg">
<g clip-path="url(#clip0_1707_773)">
<path d="M39.1391 67.171C39.1391 69.6212 38.6256 71.8984 37.5986 74.0027C36.5716 76.0782 35.1168 77.8654 33.291 79.3067C31.4368 80.7768 29.2402 81.901 26.7013 82.7082C24.1624 83.5153 21.3667 83.9189 18.3429 83.9189C14.72 83.9189 11.4679 83.4288 8.61518 82.4199C5.76248 81.4398 2.88123 79.7679 0 77.4619L4.76403 69.65C7.04619 71.5813 9.10012 72.9938 10.9544 73.8874C12.7801 74.781 14.6629 75.2134 16.6027 75.2134C18.9705 75.2134 20.8533 74.6081 22.3081 73.3685C23.763 72.129 24.4477 70.486 24.4477 68.3817C24.4477 67.4881 24.305 66.6521 24.0483 65.8738C23.7915 65.0955 23.3066 64.2883 22.6219 63.4524C21.9373 62.6453 20.9674 61.7229 19.7407 60.7716C18.5426 59.8203 16.9736 58.6096 15.0338 57.1972C13.5789 56.1594 12.124 55.0641 10.7261 53.9687C9.32833 52.8445 8.07316 51.6626 6.90356 50.3942C5.76248 49.1259 4.84959 47.7134 4.13642 46.128C3.45177 44.5714 3.08093 42.7553 3.08093 40.7663C3.08093 38.4603 3.56589 36.3271 4.50728 34.4246C5.44867 32.5221 6.7609 30.9078 8.41547 29.553C10.07 28.1982 12.0384 27.1605 14.3776 26.411C16.6883 25.6615 19.1987 25.2868 21.9373 25.2868C24.8185 25.2868 27.5856 25.6615 30.2672 26.4398C32.9487 27.2181 35.4306 28.3423 37.7412 29.8413L33.4337 36.8748C30.4954 34.7994 27.3859 33.7328 24.1338 33.7328C22.1655 33.7328 20.5109 34.2517 19.2272 35.2894C17.9435 36.3271 17.2874 37.6243 17.2874 39.2097C17.2874 40.7087 17.8579 42.0635 18.999 43.2454C20.1401 44.4561 22.1084 46.0991 24.9041 48.2899C27.7283 50.3654 30.0675 52.2103 31.8932 53.7669C33.7475 55.3235 35.2024 56.8224 36.2864 58.2061C37.3704 59.5897 38.0836 60.9734 38.5115 62.4147C38.9394 63.8848 39.1391 65.4414 39.1391 67.171ZM88.0629 53.9975C88.0629 56.1594 87.8347 58.4943 87.3782 61.0022C86.9503 63.51 86.1801 65.8162 85.0961 67.9493C84.0121 70.0824 82.6142 71.8408 80.8741 73.1956C79.1339 74.5792 76.9088 75.271 74.2558 75.271C69.8056 75.271 66.2968 73.4839 63.7293 69.8806C61.1619 66.3062 59.8782 61.3769 59.8782 55.1217C59.8782 48.6935 61.1619 43.6201 63.7864 39.8439C66.3823 36.0677 69.9197 34.194 74.3699 34.194C78.5919 34.194 81.9296 35.9812 84.3829 39.498C86.8362 43.0436 88.0629 47.8864 88.0629 53.9975ZM103.525 53.4498C103.525 49.27 102.925 45.465 101.756 42.0635C100.558 38.6332 98.9031 35.693 96.7066 33.2139C94.51 30.7349 91.9426 28.8324 88.9472 27.4487C85.9519 26.0651 82.6427 25.3733 79.0198 25.3733C75.026 25.3733 71.5172 26.1516 68.4933 27.6505C65.4695 29.1783 62.6453 31.5709 60.0779 34.857L59.9923 26.6992H45.7573V110.554H59.9638V75.1269C61.3616 76.77 62.7024 78.1537 64.0146 79.2779C65.2983 80.4021 66.6106 81.3245 67.9514 82.0163C69.2921 82.7082 70.6899 83.2271 72.1733 83.5153C73.6567 83.8036 75.2543 83.9477 76.9374 83.9477C80.7029 83.9477 84.2403 83.1694 87.4924 81.6704C90.7444 80.1427 93.5686 78.0095 95.9363 75.2422C98.3041 72.4749 100.158 69.2464 101.499 65.5855C102.868 61.8958 103.525 57.8313 103.525 53.4498ZM109.858 82.5929H124.463V0.554077H109.858V82.5929ZM186.766 82.6217V26.6416H172.161V56.7648C172.161 59.4456 172.046 61.5211 171.818 62.9912C171.59 64.4613 171.219 65.7585 170.706 66.9692C168.652 71.5813 164.858 73.9162 159.352 73.9162C155.044 73.9162 152.049 72.3596 150.337 69.2176C149.653 68.0357 149.196 66.6809 148.94 65.182C148.683 63.683 148.54 61.5211 148.54 58.6673V26.6416H133.934V58.4367C133.934 60.5986 133.963 62.4435 133.991 63.9136C134.02 65.3838 134.134 66.7386 134.277 67.8916C134.419 69.0446 134.59 70.0824 134.79 70.976C134.961 71.8696 135.247 72.7344 135.617 73.5415C136.958 76.9718 139.098 79.5661 142.093 81.3245C145.088 83.0829 148.768 83.9477 153.104 83.9477C157.013 83.9477 160.464 83.2559 163.431 81.8722C166.398 80.4886 169.279 78.2401 172.075 75.0981L172.103 82.5929L186.766 82.6217ZM249.697 82.5929V50.8554C249.697 48.6935 249.668 46.8486 249.64 45.3209C249.611 43.7931 249.526 42.4671 249.355 41.3429C249.212 40.2187 249.012 39.2386 248.813 38.4026C248.584 37.5378 248.328 36.7019 248.042 35.8947C246.702 32.5509 244.562 29.9566 241.567 28.1405C238.571 26.3245 234.891 25.4021 230.527 25.4021C226.619 25.4021 223.167 26.0939 220.2 27.4776C217.233 28.8612 214.352 31.1385 211.556 34.2517L211.528 26.7569H196.836V82.6217H211.556V52.4697C211.556 49.8754 211.642 47.8287 211.842 46.3874C212.013 44.9461 212.384 43.5913 212.897 42.2941C213.838 40.0457 215.322 38.3738 217.29 37.2207C219.259 36.0677 221.598 35.4912 224.336 35.4912C228.644 35.4912 231.639 37.0478 233.351 40.1898C234.007 41.3717 234.463 42.7265 234.72 44.1966C234.977 45.6668 235.12 47.8575 235.12 50.6825V82.564L249.697 82.5929ZM310.117 78.9032L287.866 50.9708L306.665 30.6196L295.597 25.8056L276.027 48.7223H274.487V0.554077H259.767V82.5929H274.487V52.8733L296.51 83.7171L310.117 78.9032ZM367 58.8402V49.7024L322.755 27.2758V37.336L357.044 54.1993L322.755 71.2931V81.1227L367 58.8402ZM327.034 12.7763C324.324 12.7763 322.127 15.0247 322.127 17.792C322.127 20.617 324.324 22.8366 327.034 22.8366C329.772 22.8366 331.94 20.617 331.94 17.792C331.94 14.9959 329.772 12.7763 327.034 12.7763ZM327.062 13.5546C329.259 13.5546 331.027 15.4571 331.027 17.8209C331.027 20.1846 329.259 22.0871 327.062 22.0583C324.837 22.0583 323.068 20.1846 323.068 17.792C323.068 15.4571 324.837 13.5546 327.062 13.5546ZM326.121 18.3109H326.72C327.433 18.3109 327.775 18.5703 327.918 19.291C328.032 20.0405 328.175 20.5305 328.289 20.7035H329.23C329.145 20.5305 329.002 20.1846 328.888 19.3198C328.774 18.4838 328.46 18.0515 327.947 17.965V17.9073C328.546 17.7344 329.031 17.2732 329.031 16.5525C329.031 16.0336 328.859 15.6301 328.517 15.3995C328.175 15.14 327.633 14.9671 326.805 14.9671C326.149 14.9671 325.693 15.0247 325.236 15.1112V20.7035H326.121V18.3109ZM326.121 15.7165C326.263 15.6877 326.463 15.6589 326.748 15.6589C327.747 15.6589 328.089 16.149 328.089 16.639C328.089 17.3308 327.462 17.5902 326.748 17.5902H326.121V15.7165Z" fill="black"/>
</g>
<defs>
<clipPath id="clip0_1707_773">
<rect width="367" height="108" fill="white"/>
</clipPath>
</defs>
</svg>
