<?xml version="1.0" encoding="UTF-8"?>
<svg id="Layer_1" data-name="Layer 1" xmlns="http://www.w3.org/2000/svg" version="1.1" xmlns:serif="http://www.serif.com/" viewBox="0 0 430 110">
  <defs>
    <style>
      .cls-1 {
        fill: #fff;
        stroke-width: 0px;
      }
    </style>
  </defs>
  <g id="Layer-1" serif:id="Layer 1">
    <path class="cls-1" d="M257.8,32.6c-2.2,0-4.2.5-6,1.4s-3.4,2.3-4.6,3.9l-2.9-4.5h-1.7v44.5h5.3v-31.6c0-1.1.2-2,.6-2.9.5-.9.9-1.7,1.7-2.5.6-.6,1.5-1.2,2.5-1.7.9-.5,2-.6,2.9-.6h5.3v-5.9h-3.1s.2,0,.2,0ZM233,52h-19.1v-6.7c0-1.1.2-2,.6-2.9s.9-1.7,1.7-2.5c.6-.8,1.5-1.2,2.5-1.7.9-.5,2-.6,2.9-.6h3.6c1.1,0,2,.2,2.9.6.9.5,1.7.9,2.5,1.7.8.6,1.2,1.5,1.7,2.5s.6,2,.6,2.9v6.7ZM234.6,36.3c-1.2-1.2-2.6-2.2-4.2-2.8s-3.3-1.1-5.1-1.1h-3.6c-1.9,0-3.4.3-5.1,1.1-1.5.6-2.9,1.5-4.2,2.8s-2.2,2.6-2.8,4.2c-.6,1.5-1.1,3.3-1.1,5.1v20.1c0,1.9.3,3.6,1.1,5.1.6,1.5,1.5,2.9,2.8,4.2s2.6,2.2,4.2,2.8c1.5.6,3.3,1.1,5.1,1.1h3.6c1.9,0,3.4-.3,5.1-1.1,1.5-.6,2.9-1.5,4.2-2.8s2.2-2.6,2.8-4.2c.6-1.5,1.1-3.3,1.1-5.1v-1.9l-5.3-.9v2.9c0,1.1-.2,2-.6,3.1-.5.9-.9,1.7-1.7,2.5-.6.6-1.5,1.2-2.5,1.7s-2,.6-2.9.6h-3.6c-1.1,0-2,0-2.9-.6-.9-.5-1.7-.9-2.5-1.7-.6-.6-1.2-1.5-1.7-2.5s-.6-2-.6-3.1v-9.9h24.3v-10.5c0-1.9-.3-3.6-1.1-5.1-.6-1.5-1.5-2.9-2.8-4.2M191,67.2v2.3l-.3-2.3-11.6-33.8h-5.3l15.8,44.5h2.6l15.8-44.5h-5.3l-11.5,33.8h-.3ZM164.5,77.9h5.3V16.9h-5.3v60.9ZM153.5,22.7h6.2v-5.7h-6.2v5.7ZM154,77.9h5.3v-44.5h-5.3v44.5ZM145.9,57.7c-1.1-.9-2.5-1.7-3.9-2.3s-2.9-1.1-4.5-1.7c-1.5-.5-2.9-.9-4.5-1.4-1.4-.5-2.8-.9-3.9-1.7-1.1-.6-2-1.5-2.8-2.5-.6-.9-1.1-2.2-1.1-3.7s0-2,.6-2.9c.5-.8.9-1.5,1.7-2.2.6-.6,1.5-1.1,2.5-1.4.9-.3,2-.5,2.9-.5h3.1c1.1,0,2,.2,2.9.6s1.7.9,2.5,1.7c.6.6,1.2,1.5,1.7,2.5s.6,2,.6,2.9v1.4l5.3-.9h0c0-2-.3-3.7-1.1-5.3-.6-1.5-1.5-2.9-2.8-4.2-1.2-1.2-2.6-2.2-4.2-2.8s-3.3-1.1-5.1-1.1h-3.1c-1.9,0-3.4.3-5.1.9-1.5.6-2.9,1.4-4.2,2.5-1.2,1.1-2.2,2.3-2.8,3.9-.8,1.5-1.1,3.1-1.1,5s.3,3.9,1.1,5.3c.6,1.4,1.5,2.6,2.8,3.6,1.1.9,2.5,1.7,3.9,2.3s2.9,1.1,4.5,1.5,3.1.9,4.5,1.4c1.4.5,2.8,1.1,3.9,1.7,1.1.6,2,1.5,2.8,2.5.6,1.1,1.1,2.3,1.1,3.9s0,2-.6,2.9c-.5.8-1.1,1.5-1.9,2.2s-1.7,1.1-2.6,1.4-2,.5-3.1.5h-3.6c-1.1,0-2.2,0-3.1-.6-.9-.5-1.9-.9-2.6-1.7-.8-.6-1.4-1.5-1.9-2.5-.5-.9-.6-2-.6-3.1v-2.9l-5.3.9v1.9c0,1.9.3,3.6,1.1,5.1s1.7,2.9,2.9,4.2,2.6,2.2,4.3,2.8c1.7.6,3.4,1.1,5.1,1.1h3.6c1.9,0,3.6-.3,5.1-.9,1.7-.6,3.1-1.4,4.3-2.5,1.2-1.1,2.2-2.3,2.9-3.9s1.1-3.1,1.1-5-.3-3.9-1.1-5.3c-.6-1.4-1.5-2.6-2.8-3.6"/>
    <path class="cls-1" d="M54.9,8.3c-3.3,0-4,1.5-4.2,3.9v2.3c-1.7,27.7-13.2,49-34.1,65.6,9.5-3.9,19.1-6.2,28.8-7.4,13.3-17.7,20-35.3,20.5-59.1v-5.1h-11.2.2v-.2Z"/>
    <path class="cls-1" d="M7.5,87.8c-.3,0-4.5,2.5-4.5,2.5l5.6,9.6c1.7,2.8,3.3,2.8,5.4,1.7.2,0,.3-.3,2-1.1,25-12.4,49-13,73.8-3.3-8.1-6.2-15-13.3-20.8-21.2-5-.6-9.8-.9-14.4-.9-16.1,0-30.8,3.9-47.1,12.7Z"/>
    <path class="cls-1" d="M60.2,54.1c8.7,20.5,20.6,35,40.9,47.3.3,0,4.5,2.6,4.5,2.6l5.6-9.6c1.7-2.9.8-4.2-1.2-5.4,0,0-.5,0-2-1.2-23.1-15.3-35.8-36-39.7-62.3-1.4,10.1-4,19.7-8.1,28.8h0v-.2Z"/>
    <path class="cls-1" d="M297,65.9c0,1.1-.2,2-.6,3.1-.5.9-.9,1.7-1.7,2.5s-1.5,1.2-2.5,1.7-2,.6-2.9.6h-3.6c-1.1,0-2,0-2.9-.6-.9-.5-1.7-.9-2.5-1.7-.6-.6-1.2-1.5-1.7-2.5s-.6-2-.6-3.1v-20.6c0-1.1.2-2,.6-3.1.5-.9.9-1.7,1.7-2.5.8-.6,1.5-1.2,2.5-1.7.9-.5,2-.6,2.9-.6h3.6c1.1,0,2,.2,2.9.6.9.5,1.7.9,2.5,1.7.6.6,1.2,1.5,1.7,2.5s.6,2,.6,3.1v20.6ZM298.6,36.3c-1.2-1.2-2.6-2.2-4.2-2.8s-3.3-1.1-5.1-1.1h-1.4c-2.2,0-4.2.5-6,1.4s-3.4,2.3-4.5,3.9l-2.9-4.5h-1.7v61.1h5.3v-20.3c1.2,1.4,2.6,2.6,4.3,3.4s3.6,1.2,5.6,1.2h1.4c1.9,0,3.4-.3,5.1-1.1,1.5-.6,2.9-1.5,4.2-2.8s2.2-2.6,2.8-4.2c.6-1.5,1.1-3.3,1.1-5.1v-20.1c0-1.9-.3-3.6-1.1-5.1-.6-1.5-1.5-2.9-2.8-4.2"/>
    <path class="cls-1" d="M330.8,52h-19.1v-6.7c0-1.1.2-2,.6-3.1.5-.9.9-1.7,1.7-2.5.6-.8,1.5-1.2,2.5-1.7.9-.5,2-.6,2.9-.6h3.6c1.1,0,2,.2,2.9.6.9.5,1.7.9,2.5,1.7.6.6,1.2,1.5,1.7,2.5s.6,2,.6,3.1v6.7ZM332.4,36.3c-1.2-1.2-2.6-2.2-4.2-2.8s-3.3-1.1-5.1-1.1h-3.6c-1.9,0-3.4.3-5.1,1.1-1.5.6-2.9,1.5-4.2,2.8s-2.2,2.6-2.8,4.2c-.6,1.5-1.1,3.3-1.1,5.1v20.1c0,1.9.3,3.6,1.1,5.1.6,1.5,1.5,2.9,2.8,4.2s2.6,2.2,4.2,2.8c1.5.6,3.3,1.1,5.1,1.1h3.6c1.9,0,3.4-.3,5.1-1.1,1.5-.6,2.9-1.5,4.2-2.8s2.2-2.6,2.8-4.2c.6-1.5,1.1-3.3,1.1-5.1v-1.1l-5.3-1.5v2.9c0,1.1-.2,2-.6,3.1-.5.9-.9,1.7-1.7,2.5-.6.6-1.5,1.2-2.5,1.7s-2,.6-2.9.6h-3.6c-1.1,0-2,0-2.9-.6-.9-.5-1.7-.9-2.5-1.7-.6-.6-1.2-1.5-1.7-2.5s-.6-2-.6-3.1v-9.9h24.3v-10.5c0-1.9-.3-3.6-1.1-5.1-.6-1.5-1.5-2.9-2.8-4.2"/>
    <path class="cls-1" d="M364.5,65.9c0,1.1-.2,2-.6,3.1-.5.9-.9,1.7-1.7,2.5-.6.8-1.5,1.2-2.5,1.7s-2,.6-2.9.6h-3.6c-1.1,0-2,0-2.9-.6-.9-.5-1.7-.9-2.5-1.7-.6-.6-1.2-1.5-1.7-2.5s-.6-2-.6-3.1v-1.9c0-1.1.2-2,.6-2.9.5-.9.9-1.7,1.7-2.5.6-.8,1.5-1.2,2.5-1.7s2-.6,2.9-.6h11.3v9.6ZM366,36.3c-1.2-1.2-2.6-2.2-4.2-2.8s-3.3-1.1-5.1-1.1h-3.1c-1.9,0-3.6.3-5.1,1.1-1.5.6-2.9,1.5-4.2,2.8s-2.2,2.6-2.8,4.2c-.6,1.5-1.1,3.3-1.1,5.1h0c0,.2,5.3,1.7,5.3,1.7v-2c0-1.1.2-2,.6-3.1.5-.9.9-1.7,1.7-2.5.6-.6,1.5-1.2,2.5-1.7.9-.5,2-.6,2.9-.6h3.1c1.1,0,2,.2,2.9.6.9.5,1.7.9,2.5,1.7.6.6,1.2,1.5,1.7,2.5s.6,2,.6,3.1v6.8h-11.3c-1.9,0-3.4.3-5.1,1.1-1.5.6-2.9,1.5-4.2,2.8s-2.2,2.6-2.8,4.2c-.6,1.5-1.1,3.3-1.1,5.1v.5c0,1.9.3,3.6,1.1,5.1.6,1.5,1.5,2.9,2.8,4.2s2.6,2.2,4.2,2.8c1.5.6,3.3,1.1,5.1,1.1h1.4c2.2,0,4.2-.5,6-1.4,1.9-.9,3.4-2.3,4.5-3.9l2.9,4.5h1.9v-32.2c0-1.9-.3-3.6-1.1-5.1-.6-1.5-1.5-2.9-2.8-4.2"/>
    <rect class="cls-1" x="374.2" y="16.9" width="5.3" height="60.9"/>
    <path class="cls-1" d="M397.2,33.4l-18.1,22.3,18.1,22.3h7l-18.6-22.3,18.6-22.3s-7,0-7,0Z"/>
    <path class="cls-1" d="M428,33.4v8.5h-1.5v-7l-3.1,7h-.9l-3.1-7v7h-1.4v-8.5h2.3l2.6,5.9,2.8-5.9h2.3ZM416.1,33.4v1.4h-2.9v7.1h-1.5v-7.1h-2.9v-1.4h7.4Z"/>
  </g>
</svg>