<svg xmlns="http://www.w3.org/2000/svg" xmlns:xlink="http://www.w3.org/1999/xlink" version="1.1" id="MO18001_Logo_H_Color_Tag_RGB" x="0px" y="0px" style="enable-background:new 0 0 210 84;" xml:space="preserve" viewBox="38.4 22.65 133.2 38.7">
<style type="text/css">
	.st0{fill:#fff;}
</style>
<path id="Path_287" class="st0" d="M69.6,33.6L56.1,26c-0.3-0.1-0.6-0.1-0.9,0l-13.5,7.6c-0.3,0.2-0.5,0.5-0.5,0.8v15.2  c0,0.3,0.2,0.6,0.5,0.8l13.5,7.6c0.3,0.1,0.6,0.1,0.9,0l13.5-7.6c0.3-0.2,0.5-0.5,0.5-0.8V34.4C70.1,34.1,69.9,33.8,69.6,33.6  L69.6,33.6z M48.2,48.3h-2.6c-0.5,0-1,0.2-1.5,0.5l-0.6,0.4h-0.1c-0.1,0-0.1-0.1-0.1-0.1v-0.1l4-11.2c0.2-0.6,0.1-1.4-0.4-1.9  l-0.8-0.6C46.1,35.1,46,35.1,46,35c0-0.1,0.1-0.2,0.2-0.2h6c0.6,0.1,1,0.5,1,1.1c0,0.2-0.1,0.4-0.1,0.7l-3.8,10.7  C49.2,47.8,48.7,48.2,48.2,48.3z M55.6,48.3H53c-0.5,0-1,0.2-1.5,0.5L51,49.1h-0.1c-0.1,0-0.1-0.1-0.1-0.1v-0.1l4-11.2  c0.2-0.6,0.1-1.4-0.4-1.9l-0.8-0.6c-0.1-0.1-0.1-0.1-0.1-0.2c0-0.1,0.1-0.2,0.2-0.2h6c0.6,0.1,1,0.6,1,1.1c0,0.2-0.1,0.4-0.1,0.7  l-3.8,10.7C56.6,47.8,56.1,48.2,55.6,48.3z M67.9,36.7L64,47.3c-0.1,0.5-0.6,0.8-1.1,0.9h-2.6c-0.5,0-1,0.2-1.5,0.5l-0.6,0.4h-0.1  c-0.1,0-0.1-0.1-0.1-0.1l0,0v-0.1l4-11.2c0.2-0.6,0.1-1.4-0.4-1.9L61,35.3c-0.1-0.1-0.1-0.1-0.1-0.2c0-0.1,0.1-0.2,0.2-0.2h6  c0.6,0.1,1,0.6,1,1.1C68,36.3,67.9,36.5,67.9,36.7L67.9,36.7z"/>
<path id="Path_288" class="st0" d="M72.4,31.9l-16.1-9.1c-0.3-0.2-0.8-0.2-1.1,0L39,31.9c-0.4,0.2-0.6,0.6-0.6,1v18.2  c0,0.4,0.2,0.8,0.6,1l16.2,9.1c0.3,0.2,0.8,0.2,1.1,0l16.2-9.1c0.4-0.2,0.6-0.6,0.6-1V33C73,32.5,72.7,32.1,72.4,31.9L72.4,31.9z   M70.7,50c0,0.3-0.2,0.6-0.5,0.8l-14.1,7.9c-0.3,0.1-0.6,0.1-0.9,0l-14.1-7.9c-0.3-0.2-0.4-0.5-0.5-0.8V34.2c0-0.3,0.2-0.6,0.5-0.8  l14.1-7.9c0.3-0.1,0.6-0.1,0.9,0l14.1,7.9c0.3,0.2,0.4,0.5,0.5,0.8V50z"/>
<path id="Path_289" class="st0" d="M168.8,35c-0.4,0-0.8,0.1-1.2,0.2c-0.7,0.3-1.3,0.8-1.5,1.5c-0.1,0.4-0.2,0.7-0.2,1.1  c0,0.4,0.1,0.8,0.2,1.2c0.3,0.7,0.8,1.3,1.5,1.5c0.7,0.3,1.6,0.3,2.3,0c0.4-0.1,0.7-0.4,0.9-0.7c0.3-0.3,0.5-0.6,0.6-0.9  c0.1-0.4,0.2-0.7,0.2-1.1c0-0.4-0.1-0.8-0.2-1.1c-0.1-0.3-0.3-0.7-0.6-0.9c-0.3-0.3-0.6-0.5-0.9-0.7C169.5,35.1,169.2,35,168.8,35z   M168.7,40.4c-0.3,0-0.6-0.1-0.9-0.2c-0.3-0.1-0.5-0.3-0.7-0.5c-0.2-0.2-0.4-0.5-0.5-0.8c-0.1-0.3-0.2-0.6-0.1-0.9  c0-0.3,0.1-0.6,0.1-0.9c0.1-0.3,0.2-0.5,0.4-0.8c0.2-0.2,0.5-0.4,0.7-0.5c0.6-0.3,1.4-0.3,2,0c0.3,0.1,0.5,0.3,0.7,0.5  c0.2,0.2,0.4,0.5,0.5,0.8c0.1,0.3,0.2,0.6,0.1,0.9c0,0.3-0.1,0.6-0.1,0.9c-0.1,0.3-0.3,0.6-0.5,0.8c-0.2,0.2-0.5,0.4-0.7,0.5  C169.4,40.3,169.1,40.4,168.7,40.4L168.7,40.4z"/>
<path id="Path_290" class="st0" d="M169.4,38c0.1,0,0.1-0.1,0.2-0.1c0.1-0.1,0.1-0.1,0.2-0.1c0.1-0.1,0.1-0.2,0.1-0.3  c0.1-0.1,0.1-0.2,0.1-0.3c0-0.2-0.1-0.3-0.1-0.5c-0.1-0.1-0.2-0.2-0.3-0.3c-0.1-0.1-0.3-0.1-0.5-0.1h-1.5v3.2h0.8v-1.3h0.5  c0.1,0,0.1,0,0.1,0.1c0.1,0.1,0.1,0.1,0.1,0.1c0.1,0.1,0.1,0.2,0.1,0.3l0.1,0.2l0.1,0.2l0.1,0.2l0.1,0.2h0.9l-0.1-0.3l-0.1-0.3  c-0.1-0.1-0.1-0.2-0.1-0.3c-0.1-0.1-0.1-0.2-0.1-0.3c0-0.1-0.1-0.1-0.1-0.2c0-0.1,0-0.1-0.1-0.1c0-0.1-0.1-0.1-0.1-0.1  C169.5,38,169.5,38,169.4,38L169.4,38z M168.8,37.7h-0.5v-0.8h0.6c0.1,0,0.1,0.1,0.2,0.1s0.1,0.1,0.1,0.1c0.1,0.1,0.1,0.3,0,0.4  c0,0.1-0.1,0.1-0.1,0.1c-0.1,0-0.1,0.1-0.2,0.1L168.8,37.7z"/>
<path id="Path_291" class="st0" d="M78,34.9h3.2v1.1c0.2-0.2,0.5-0.4,0.8-0.5c0.3-0.1,0.7-0.3,1.1-0.3l1.2-0.2c0.4,0,0.8,0,1.2,0  c0.3,0,0.5,0.1,0.8,0.1c0.4,0.1,0.7,0.2,1.1,0.3c0.4,0.1,0.7,0.3,1.1,0.5c0.3,0.2,0.6,0.5,0.8,0.8c0.3-0.4,0.7-0.7,1.1-0.9  c0.4-0.2,0.8-0.4,1.2-0.5c0.4-0.1,0.9-0.2,1.3-0.3c0.5-0.1,1-0.1,1.5-0.1c0.7,0,1.4,0.1,2.1,0.3c0.6,0.2,1.1,0.6,1.5,1  c0.4,0.5,0.8,1,0.9,1.7c0.2,0.7,0.3,1.5,0.3,2.3v8.8h-3.2v-7.8c0-0.5-0.1-1-0.2-1.5c-0.1-0.4-0.3-0.7-0.5-1.1  c-0.2-0.3-0.5-0.5-0.9-0.7c-0.8-0.3-1.6-0.3-2.4,0c-0.3,0.2-0.7,0.4-0.9,0.7c-0.3,0.3-0.5,0.7-0.6,1.1c-0.1,0.5-0.2,1-0.2,1.5v7.8  h-3.2v-7.9c0-0.5-0.1-1-0.2-1.5c-0.1-0.4-0.3-0.7-0.5-1.1c-0.2-0.3-0.5-0.5-0.9-0.7c-0.8-0.3-1.6-0.3-2.4,0  c-0.3,0.2-0.7,0.4-0.9,0.7c-0.3,0.3-0.5,0.7-0.6,1.1c-0.1,0.5-0.2,1-0.2,1.5V49h-3.2v-14H78z"/>
<path id="Path_292" class="st0" d="M100.2,42L100.2,42c0-1,0.2-1.9,0.5-2.8c0.3-0.9,0.9-1.6,1.5-2.3c0.7-0.7,1.4-1.2,2.3-1.5  c1.9-0.7,3.9-0.7,5.8,0c0.9,0.3,1.7,0.9,2.3,1.5c0.7,0.6,1.2,1.4,1.5,2.3c0.3,0.9,0.5,1.8,0.5,2.7V42c0,2.9-1.7,5.4-4.4,6.5  c-1.9,0.7-3.9,0.7-5.8,0c-0.9-0.3-1.6-0.8-2.3-1.5c-0.6-0.7-1.2-1.4-1.5-2.3C100.4,43.9,100.2,43,100.2,42z M111.6,42L111.6,42  c0-0.6-0.1-1.2-0.3-1.7c-0.2-0.5-0.5-1-0.9-1.4c-0.4-0.4-0.8-0.7-1.3-0.9c-1.1-0.5-2.3-0.5-3.4,0c-0.5,0.2-0.9,0.5-1.3,0.9  c-0.4,0.4-0.6,0.9-0.8,1.4c-0.2,0.5-0.3,1.1-0.3,1.7V42c0,0.6,0.1,1.1,0.3,1.7c0.2,0.5,0.5,1,0.9,1.4c0.4,0.4,0.8,0.7,1.3,0.9  c0.5,0.2,1.1,0.3,1.7,0.3c0.6,0,1.2-0.1,1.7-0.3c0.5-0.2,0.9-0.5,1.3-0.9c0.4-0.4,0.6-0.9,0.8-1.4C111.5,43.1,111.5,42.6,111.6,42  L111.6,42z"/>
<path id="Path_293" class="st0" d="M129.6,34.9h3.2V36c0.3-0.2,0.6-0.4,0.9-0.5c0.3-0.1,0.7-0.3,1-0.3c0.4-0.1,0.7-0.1,1.1-0.2  c0.4,0,0.9-0.1,1.3-0.1c0.7,0,1.4,0.1,2.1,0.4c0.6,0.2,1.1,0.6,1.5,1.1c0.4,0.5,0.8,1,0.9,1.7c0.2,0.7,0.3,1.4,0.3,2.2V49h-3.2v-7.8  c0-0.5-0.1-1-0.2-1.5c-0.1-0.4-0.3-0.7-0.6-1.1c-0.3-0.3-0.6-0.5-0.9-0.7c-0.8-0.3-1.7-0.3-2.5,0c-0.4,0.1-0.7,0.4-1,0.7  c-0.6,0.7-0.9,1.6-0.9,2.5V49h-3.2L129.6,34.9L129.6,34.9z"/>
<path id="Path_294" class="st0" d="M128.2,49.1H125V48c-0.3,0.2-0.6,0.4-0.9,0.5c-0.3,0.1-0.7,0.3-1,0.3c-0.4,0.1-0.7,0.1-1.1,0.2  c-0.4,0-0.9,0.1-1.3,0.1c-0.7,0-1.4-0.1-2.1-0.4c-0.6-0.2-1.1-0.6-1.5-1.1c-0.5-0.5-0.8-1-1-1.7c-0.2-0.7-0.3-1.4-0.3-2.2v-8.9h3.2  v7.9c0,0.5,0.1,1,0.2,1.5c0.1,0.4,0.3,0.7,0.6,1.1c0.3,0.3,0.6,0.5,0.9,0.7c0.4,0.2,0.8,0.2,1.3,0.2c0.4,0,0.9-0.1,1.3-0.3  c0.4-0.1,0.7-0.4,1-0.7c0.6-0.7,0.9-1.6,0.9-2.5v-7.8h3.2L128.2,49.1L128.2,49.1z"/>
<path id="Path_295" class="st0" d="M152,46.9l2.1-2.3l2.1-2.3l2.1-2.3l2.1-2.3h-7.9v-2.6h12v2.3l-2.1,2.3l-2.1,2.3l-2.1,2.3  l-2.1,2.3h8.2v2.6H152V46.9z"/>
<path id="Path_296" class="st0" d="M147.8,34.9v-3.1h-2.3l-0.3,0.8l-0.3,0.8l-0.3,0.8l-0.3,0.8h-1.7v2.6h1.9v7.7  c0,0.7,0.1,1.3,0.3,1.9c0.1,0.4,0.4,0.8,0.8,1.1c0.4,0.3,0.8,0.5,1.3,0.6c0.5,0.1,1.1,0.2,1.6,0.1h2.6v-2.6h-1.8  c-0.2,0-0.4,0-0.6-0.1c-0.2,0-0.3-0.1-0.5-0.3c-0.1-0.1-0.2-0.3-0.3-0.4c-0.1-0.2-0.1-0.4-0.1-0.6v-7.7h3.4v-2.6H147.8z"/>
</svg>