<svg width="196" height="94" viewBox="0 0 196 94" fill="none" xmlns="http://www.w3.org/2000/svg">
<path d="M24.74 21.2865L19.988 35.3491H29.096L24.74 21.2865ZM35.036 53.9671L32.66 46.0446H16.424L13.85 53.9671H0.187988L19.394 1.28198H29.294L48.5 53.9671H35.036Z" fill="black"/>
<path d="M89.09 54.3632C82.952 54.3632 78.398 52.3825 74.438 48.4212C68.894 42.8754 69.092 35.547 69.092 27.6245C69.092 19.7019 68.894 12.3735 74.438 6.82768C78.2 3.06445 82.952 0.885742 89.09 0.885742C98.99 0.885742 107.108 6.43154 109.088 18.1173H96.02C95.228 15.1464 93.644 12.5716 89.288 12.5716C84.932 12.5716 85.13 13.5619 84.14 14.7503C82.952 16.3348 82.16 18.1174 82.16 27.8225C82.16 37.5277 82.952 39.3103 84.14 40.8948C85.13 42.0832 86.912 43.0735 89.288 43.0735C93.644 43.0735 95.228 40.4986 96.02 37.5277H109.088C107.108 49.2135 99.188 54.7593 89.09 54.7593" fill="black"/>
<path d="M136.61 53.9671V1.28198H172.25V12.9678H149.48V21.6826H168.29V33.1704H149.48V42.4794H172.25V53.9671H136.61Z" fill="black"/>
<path d="M24.542 93.1839V81.6961C24.542 78.7252 22.958 77.5368 20.78 77.5368C18.602 77.5368 16.82 78.9233 16.82 81.4981V93.1839H13.058V81.6961C13.058 78.7252 11.474 77.5368 9.29597 77.5368C7.11797 77.5368 5.33597 78.9232 5.33597 81.6961V93.1839H1.57397V74.3678H5.33597V76.3484C6.52397 74.9619 8.50397 74.1697 10.286 74.1697C12.068 74.1697 14.444 75.16 15.632 76.9426C17.216 75.16 18.998 74.1697 21.572 74.1697C24.146 74.1697 25.136 74.7639 26.324 75.9523C27.71 77.3387 28.304 79.1213 28.304 81.3V93.1839H24.542Z" fill="black"/>
<path d="M55.628 79.7155C55.034 78.3291 53.648 77.3388 51.866 77.3388C50.084 77.3388 48.698 78.3291 48.104 79.7155C47.708 80.5078 47.708 81.102 47.708 82.2904H56.222C56.222 81.102 56.222 80.5078 55.628 79.7155ZM47.708 84.8652C47.708 88.0343 49.49 90.0149 52.46 90.0149C55.43 90.0149 55.628 89.4207 57.014 88.0342L59.39 90.213C57.41 92.1936 55.628 93.1839 52.46 93.1839C47.708 93.1839 43.946 90.6091 43.946 83.4788C43.946 76.3485 47.114 73.9717 51.866 73.9717C56.618 73.9717 59.786 77.7349 59.786 83.0826V84.6672H47.708V84.8652Z" fill="black"/>
<path d="M83.744 93.1839C80.18 93.1839 78.596 90.609 78.596 88.0342V77.7348H76.418V74.7639H78.596V69.02H82.358V74.7639H85.922V77.7348H82.358V87.8361C82.358 89.2226 82.952 90.0148 84.338 90.0148H85.922V93.1839H83.744Z" fill="black"/>
<path d="M116.612 78.9232C115.82 78.131 115.028 77.7348 113.84 77.7348C111.86 77.7348 110.078 79.3194 110.078 81.8942V93.1839H106.316V74.3678H110.078V76.3484C111.068 74.9619 113.048 74.1697 115.028 74.1697C117.008 74.1697 118.196 74.5658 119.582 75.9523L116.81 78.7252L116.612 78.9232Z" fill="black"/>
<path d="M135.818 74.3678H139.58V93.1839H135.818V74.3678ZM135.818 66.8413H139.778V70.8026H135.818V66.8413Z" fill="black"/>
<path d="M169.874 93.1838L166.112 86.8457L162.152 93.1838H157.598L163.934 83.6767L157.796 74.3677H162.35L166.112 80.5077L169.676 74.3677H174.23L168.092 83.6767L174.428 93.1838H169.874Z" fill="black"/>
<path d="M190.268 92.3917C187.694 92.3917 185.516 90.213 185.516 87.6381C185.516 85.0633 187.694 82.8846 190.268 82.8846C192.842 82.8846 195.02 85.0633 195.02 87.6381C195.02 90.213 192.842 92.3917 190.268 92.3917ZM190.268 81.8943C187.1 81.8943 184.724 84.4691 184.724 87.4401C184.724 90.4111 187.298 92.9859 190.268 92.9859C193.238 92.9859 195.812 90.4111 195.812 87.4401C195.812 84.4691 193.238 81.8943 190.268 81.8943Z" fill="black"/>
<path d="M190.466 87.4399H189.278V85.4593H190.466C191.456 85.4593 191.852 85.8554 191.852 86.4496C191.852 87.0438 191.06 87.4399 190.466 87.4399ZM191.654 90.4109H192.446L190.862 87.836C191.852 87.836 192.248 87.2418 192.248 86.2515C192.248 85.2612 191.654 84.667 190.268 84.667H188.288V90.2128H188.882V87.638H189.872L191.258 90.2128L191.654 90.4109Z" fill="black"/>
</svg>
