<?xml version="1.0" encoding="UTF-8"?>
<svg id="Isolation_Mode" data-name="Isolation Mode" xmlns="http://www.w3.org/2000/svg" version="1.1" viewBox="0 0 100 155">
  <defs>
    <style>
      .cls-1 {
        fill: #000;
      }

      .cls-1, .cls-2, .cls-3, .cls-4, .cls-5, .cls-6, .cls-7, .cls-8, .cls-9, .cls-10, .cls-11, .cls-12, .cls-13 {
        stroke-width: 0px;
      }

      .cls-2 {
        fill: #3c54a5;
      }

      .cls-3 {
        fill: #b9519e;
      }

      .cls-4 {
        fill: #c4c6c8;
      }

      .cls-5 {
        fill: #6cbe45;
      }

      .cls-6 {
        fill: #333334;
      }

      .cls-7 {
        fill: #3f2d79;
      }

      .cls-8 {
        fill: #073e59;
      }

      .cls-9 {
        fill: #fff;
      }

      .cls-10 {
        fill: #000006;
      }

      .cls-11 {
        fill: #f5eb12;
      }

      .cls-12 {
        fill: #72cddc;
      }

      .cls-13 {
        fill: #ee2626;
      }
    </style>
  </defs>
  <g>
    <path class="cls-1" d="M57.1,52.3c-3.5,1.9-7.6,2.9-11.7,3.4v-1h-11.1v1.5c-7.3-.1-14.4-1-18.8-5.3-3.1-3.1-4.6-7.7-4.6-14,7.5,20.5,23.3,17.9,36.9,13.8,7.7-2.4,15.1-5.4,18.9-11.4-1.5,6-4.7,10.3-9.6,13.1M74.4,29.7l-5.1.3c0-2.6-.3-5.6-1.2-8.9C62.7.5,48.1,1.2,33.9,4.1,19.7,7,4.8,12.4,9.5,31.9l-3.3.2v5.8h2.2c.2,6.5,1.9,11.4,5.4,14.8,5,5,12.8,6,20.6,6.1v4.8l-11.3,1.4v12.3h2.6c0,0-3.8,5.4-3.8,5.4-.4,0-.8,0-1.3,0-2.3,0-4.2.9-4.2,2s1.9,2,4.2,2,4.2-.9,4.2-2-.8-1.4-2.1-1.7l7.5-5.8h5.8c0-.1.4,2.1.4,2.1-1.5.1-2.6.7-2.6,1.5s1.4,1.5,3.2,1.5,3.2-.7,3.2-1.5-1.3-1.4-2.9-1.5l.7-2.2,13.9-.3c1.5,3.1,3.6,7.3,4.9,10.1-1.7.4-3,1.3-3,2.4s2,2.6,4.5,2.6,4.5-1.2,4.5-2.6-2-2.6-4.5-2.6-.4,0-.6,0l-1.2-10h6.4v-16.4l-17.6,2.1v-4c11.8-1.4,22.1-6.2,24.4-21.3l4.2-.2.4-7.2Z"/>
    <path class="cls-1" d="M83,57.1c.7,2.1-4,6.1-8.3,8.7l-10.8-5.6,1,16.3,6.4-.6.7,3.5c-2.1.1-3.7.9-3.7,1.8s1.9,1.9,4.2,1.9,4.2-.8,4.2-1.9-1.7-1.8-3.9-1.9l1.1-3.7,2.2-.2v-6.6c2.2-1.2,5.7-3.3,7-5.4,1.8-3.1,0-6.3,0-6.3"/>
    <path class="cls-4" d="M18.5,13.6c-6.4,4.1-10,10.6-6.2,21.8,0,0,0,.1,0,.2h6.2V13.6Z"/>
    <path class="cls-11" d="M27.2,35.6V9.9c-3.1,1-6.1,2.2-8.6,3.8v21.9h8.6Z"/>
    <path class="cls-12" d="M35.8,35.6V7.7c-.3,0-.5.1-.8.2-2.6.6-5.3,1.2-7.8,2v25.7h8.6Z"/>
    <path class="cls-5" d="M44.4,35.6V6.4c-2.8.2-5.7.7-8.6,1.3v27.9h8.6Z"/>
    <path class="cls-3" d="M53,35.6V6.8c-2.7-.6-5.6-.6-8.6-.4v29.2h8.6Z"/>
    <path class="cls-13" d="M61.6,35.6V11.4c-2.4-2.5-5.4-4-8.6-4.7v28.8h8.6Z"/>
    <path class="cls-2" d="M61.6,11.4v24.1h4.3c1.9-3.5,2.5-8.1.8-14.1-1.2-4.4-2.9-7.6-5.1-10"/>
    <path class="cls-2" d="M18.5,35.6h-6.2c.5,1.4,1,2.6,1.5,3.7h4.6v-3.7Z"/>
    <polygon class="cls-10" points="18.5 35.6 18.5 39.3 20.4 39.3 27.2 39.3 27.2 35.6 18.5 35.6"/>
    <polygon class="cls-3" points="27.2 39.3 30.9 39.3 35.8 39.3 35.8 35.6 27.2 35.6 27.2 39.3"/>
    <rect class="cls-12" x="44.4" y="35.6" width="8.6" height="3.7"/>
    <path class="cls-4" d="M61.6,39.3h1.4c1.2-1.1,2.1-2.3,2.9-3.7h-4.3v3.7Z"/>
    <path class="cls-8" d="M18.5,39.3h-4.6c1.8,3.6,4,6.1,6.5,7.8v-7.8h-1.9Z"/>
    <path class="cls-9" d="M27.2,39.3h-6.7v7.8c3.1,2.1,6.7,2.9,10.5,3v-10.8h-3.7Z"/>
    <path class="cls-7" d="M35.8,39.3h-4.9v10.8c3.4,0,7-.5,10.5-1.3v-9.4h-5.6Z"/>
    <path class="cls-10" d="M53,39.3v5.9c.9-.3,1.8-.7,2.6-1.1v-4.8h-2.6Z"/>
    <path class="cls-10" d="M61.6,35.6h-8.6v3.7h2.6v4.8c2.8-1.3,5.4-2.8,7.4-4.8h-1.4v-3.7Z"/>
    <path class="cls-6" d="M44.4,39.3v-3.7h-8.6v3.7h5.6v9.4c1.8-.4,3.7-.9,5.4-1.5,2.1-.6,4.2-1.3,6.2-2.1v-5.9h-8.6Z"/>
  </g>
  <g>
    <g>
      <path class="cls-1" d="M13,109.2l-2.4,7.1h4.6l-2.2-7.1ZM18.2,125.7l-1.2-4h-8.2l-1.3,4H.6l9.7-26.6h5l9.7,26.6h-6.8Z"/>
      <path class="cls-1" d="M45.5,125.9c-3.1,0-5.4-1-7.4-3-2.8-2.8-2.7-6.5-2.7-10.5s-.1-7.7,2.7-10.5c1.9-1.9,4.3-3,7.4-3,5,0,9.1,2.8,10.1,8.7h-6.6c-.4-1.5-1.2-2.8-3.4-2.8s-2.1.5-2.6,1.1c-.6.8-1,1.7-1,6.6s.4,5.8,1,6.6c.5.6,1.4,1.1,2.6,1.1,2.2,0,3-1.3,3.4-2.8h6.6c-1,5.9-5,8.7-10.1,8.7"/>
      <polygon class="cls-1" points="69.5 125.7 69.5 99.1 87.5 99.1 87.5 105 76 105 76 109.4 85.5 109.4 85.5 115.2 76 115.2 76 119.9 87.5 119.9 87.5 125.7 69.5 125.7"/>
    </g>
    <g>
      <path class="cls-1" d="M12.9,145.5v-5.8c0-1.5-.8-2.1-1.9-2.1s-2,.7-2,2v5.9h-1.9v-5.8c0-1.5-.8-2.1-1.9-2.1s-2,.7-2,2.1v5.8h-1.9v-9.5h1.9v1c.6-.7,1.6-1.1,2.5-1.1s2.1.5,2.7,1.4c.8-.9,1.7-1.4,3-1.4s1.8.3,2.4.9c.7.7,1,1.6,1,2.7v6h-1.9Z"/>
      <path class="cls-1" d="M28.6,138.7c-.3-.7-1-1.2-1.9-1.2s-1.6.5-1.9,1.2c-.2.4-.2.7-.2,1.3h4.3c0-.6,0-.9-.3-1.3M24.6,141.3c0,1.6.9,2.6,2.4,2.6s1.6-.3,2.3-1l1.2,1.1c-1,1-1.9,1.5-3.5,1.5-2.4,0-4.3-1.3-4.3-4.9s1.6-4.8,4-4.8,4,1.9,4,4.6v.8h-6.1Z"/>
      <path class="cls-1" d="M42.8,145.5c-1.8,0-2.6-1.3-2.6-2.6v-5.2h-1.1v-1.5h1.1v-2.9h1.9v2.9h1.8v1.5h-1.8v5.1c0,.7.3,1.1,1,1.1h.8v1.6h-1.1Z"/>
      <path class="cls-1" d="M59.4,138.3c-.4-.4-.8-.6-1.4-.6-1,0-1.9.8-1.9,2.1v5.7h-1.9v-9.5h1.9v1c.5-.7,1.5-1.1,2.5-1.1s1.6.2,2.3.9l-1.4,1.4Z"/>
      <path class="cls-1" d="M69.1,136h1.9v9.5h-1.9v-9.5ZM69.1,132.2h2v2h-2v-2Z"/>
      <polygon class="cls-1" points="86.3 145.5 84.4 142.3 82.4 145.5 80.1 145.5 83.3 140.7 80.2 136 82.5 136 84.4 139.1 86.2 136 88.5 136 85.4 140.7 88.6 145.5 86.3 145.5"/>
      <path class="cls-1" d="M96.6,145.1c-1.3,0-2.4-1.1-2.4-2.4s1.1-2.4,2.4-2.4,2.4,1.1,2.4,2.4-1.1,2.4-2.4,2.4M96.6,139.8c-1.6,0-2.8,1.3-2.8,2.8s1.3,2.8,2.8,2.8,2.8-1.3,2.8-2.8-1.3-2.8-2.8-2.8"/>
      <path class="cls-1" d="M96.7,142.6h-.6v-1h.6c.5,0,.7.2.7.5s-.4.5-.7.5M97.3,144.1h.4l-.8-1.3h0c.5,0,.7-.3.7-.8s-.3-.8-1-.8h-1v2.8h.3v-1.3h.5s.7,1.3.7,1.3Z"/>
    </g>
  </g>
</svg>