<?xml version="1.0" encoding="UTF-8"?>
<svg id="submission_front" data-name="submission front" xmlns="http://www.w3.org/2000/svg" version="1.1" viewBox="0 0 813.9 237.5">
  <defs>
    <style>
      .cls-1 {
        fill: #fff;
        stroke-width: 0px;
      }
    </style>
  </defs>
  <path class="cls-1" d="M23.4,211.4c3.3,0,6-2.7,6-6s-.5-2.8-1.4-3.9l11-14.7c.7.3,1.5.5,2.4.5,1.5,0,2.8-.5,3.8-1.4l8.6,6.6c-.4.7-.5,1.6-.5,2.5,0,3.3,2.7,6,6,6s6-2.7,6-6-2.7-6-6-6-2.8.5-3.8,1.4l-8.6-6.6c.4-.7.5-1.6.5-2.5,0-3.3-2.7-6-6-6s-6,2.7-6,6,.5,2.8,1.4,3.9l-11,14.8c-.7-.3-1.5-.5-2.4-.5-3.3,0-6,2.7-6,6s2.7,5.9,6,5.9h0ZM62.4,195.1c0,1.8-1.5,3.3-3.3,3.3s-3.3-1.5-3.3-3.3,1.5-3.3,3.3-3.3,3.3,1.5,3.3,3.3h0ZM41.3,178.1c1.8,0,3.3,1.5,3.3,3.3s-1.5,3.3-3.3,3.3-3.3-1.5-3.3-3.3,1.5-3.3,3.3-3.3h0ZM23.4,202.2c1.8,0,3.3,1.5,3.3,3.3s-1.5,3.3-3.3,3.3-3.3-1.5-3.3-3.3,1.5-3.3,3.3-3.3h0ZM65.6,220.4c0,.7-.6,1.3-1.3,1.3H13.4c-.6,0-1.7-.1-2.6-.9-.9-.8-1.3-2-1.3-3.5v-2h-2.8c-.7,0-1.3-.6-1.3-1.3s.6-1.3,1.3-1.3h2.8v-5.9h-2.8c-.7,0-1.3-.6-1.3-1.3s.6-1.3,1.3-1.3h2.8v-5.9h-2.8c-.7,0-1.3-.6-1.3-1.3s.6-1.3,1.3-1.3h2.8v-5.9h-2.8c-.7,0-1.3-.6-1.3-1.3s.6-1.3,1.3-1.3h2.8v-5.9h-2.8c-.7,0-1.3-.6-1.3-1.3s.6-1.3,1.3-1.3h2.8v-6.4h-2.8c-.7,0-1.3-.6-1.3-1.3s.6-1.3,1.3-1.3h4.2c.7,0,1.3.6,1.3,1.3v46.6c0,.5,0,1.2.4,1.5.4.3.9.3.9.3h50.8c.7,0,1.3.6,1.3,1.3h0ZM65.6,220.4"/>
  <path class="cls-1" d="M199.5,37.2l-2.4,2.4c1.1,2.1,1.8,4.5,1.8,7,0,8.1-6.6,14.7-14.7,14.7s-14.7-6.6-14.7-14.7,6.6-14.7,14.7-14.7,4.9.6,7,1.8l2.4-2.4c-2.7-1.7-6-2.7-9.4-2.7-9.9,0-18,8.1-18,18s8.1,18,18,18,18-8.1,18-18-1-6.7-2.7-9.4ZM192.8,43.9l-2.9,2.9c-.1,3-2.6,5.5-5.7,5.5s-5.7-2.5-5.7-5.7,2.4-5.5,5.5-5.7l2.9-2.9c-.9-.3-1.8-.4-2.7-.4-5,0-9,4-9,9s4,9,9,9,9-4,9-9c0-.9-.1-1.8-.4-2.7ZM207.7,32.5l-2.4,2.4c1.9,3.5,3,7.4,3,11.7,0,13.3-10.8,24.1-24.1,24.1s-24.1-10.8-24.1-24.1,10.8-24.1,24.1-24.1,8.2,1.1,11.7,3l2.4-2.4c-4.1-2.5-8.9-3.9-14.1-3.9-15.1,0-27.4,12.3-27.4,27.4s12.3,27.4,27.4,27.4,27.4-12.3,27.4-27.4-1.4-10-3.9-14.1ZM204.1,32.6l-3.2-.4-15.6,15.6c-.6.6-1.7.6-2.3,0-.6-.6-.6-1.7,0-2.3l15.6-15.6-.4-3.2,8.8-8.8,1.2,4.7,4.7,1.2-8.8,8.8Z"/>
  <g>
    <path id="path8861" class="cls-1" d="M334.7,166.9c-15.6,0-28.3,12.7-28.3,28.3s12.7,28.3,28.3,28.3,28.3-12.7,28.3-28.3-12.7-28.3-28.3-28.3ZM334.7,168.9c.6,0,1.2,0,1.8,0,2,1.9,3.7,4.8,5.1,8.3-1.3.7-2.2,1.9-2.5,3.3h-12.2c1.4-5,3.6-9.1,6.2-11.7.5,0,1.1,0,1.6,0ZM330.2,169.3c-2.3,2.9-4.1,6.8-5.3,11.3h-12.1c3.9-5.9,10.2-10.1,17.4-11.3ZM339.5,169.3c7.1,1.3,13.3,5.5,17.1,11.3h-8c-.5-2.2-2.4-3.9-4.8-3.9s-.3,0-.4,0c-1.1-2.9-2.4-5.4-4-7.4ZM343.9,178.6c1.6,0,2.9,1.3,2.9,2.9s-1.3,2.9-2.9,2.9-2.9-1.3-2.9-2.9,1.3-2.9,2.9-2.9ZM311.6,182.5h12.8c-.6,2.5-1,5.2-1.2,7.9-1.9.4-3.4,1.9-3.8,3.8h-11c.2-4.2,1.3-8.2,3.2-11.7ZM326.4,182.5h12.7c.5,2.2,2.4,3.9,4.8,3.9s0,0,.1,0c.4,2.5.6,5.1.7,7.8h-15.7c-.4-1.9-1.9-3.4-3.8-3.8.2-2.8.7-5.4,1.3-7.9ZM348.7,182.5h9.1c1.9,3.5,3.1,7.5,3.2,11.7h-14.4c0-2.8-.3-5.6-.7-8.3,1.4-.6,2.4-1.9,2.7-3.5ZM324.2,192.3c1.6,0,2.9,1.3,2.9,2.9s-1.3,2.9-2.9,2.9h-.5c-1.4-.3-2.4-1.5-2.4-2.9s1.3-2.9,2.9-2.9h0s0,0,0,0ZM308.4,196.2h11c.4,1.9,1.9,3.4,3.8,3.8.2,2.8.6,5.4,1.2,7.9h-12.8c-1.9-3.5-3.1-7.5-3.2-11.7ZM329,196.2h15.7c0,2.7-.3,5.3-.7,7.8,0,0,0,0-.1,0-2.3,0-4.3,1.7-4.8,3.9h-12.7c-.6-2.5-1-5.1-1.3-7.9,1.9-.4,3.4-1.9,3.8-3.8ZM346.7,196.2h14.4c-.2,4.2-1.3,8.2-3.2,11.7h-9.1c-.3-1.5-1.4-2.8-2.7-3.5.4-2.6.7-5.4.7-8.3ZM343.9,205.9c1.6,0,2.9,1.3,2.9,2.9s-1.3,2.9-2.9,2.9-2.9-1.3-2.9-2.9,1.3-2.9,2.9-2.9ZM312.8,209.8h12.1c1.2,4.5,3,8.4,5.3,11.3-7.2-1.2-13.5-5.4-17.4-11.3ZM327,209.8h12.2c.3,1.5,1.2,2.7,2.5,3.3-1.4,3.5-3.1,6.4-5.1,8.3-.6,0-1.2,0-1.8,0s-1.1,0-1.6,0c-2.6-2.5-4.7-6.6-6.2-11.7ZM348.7,209.8h8c-3.9,5.8-10,10-17.1,11.3,1.6-2,2.9-4.5,4-7.4.1,0,.2,0,.4,0,2.3,0,4.3-1.7,4.8-3.9Z"/>
    <path class="cls-1" d="M334.7,223.9c-15.8,0-28.7-12.9-28.7-28.7s12.9-28.7,28.7-28.7,28.7,12.9,28.7,28.7-12.9,28.7-28.7,28.7ZM334.7,167.4c-15.4,0-27.9,12.5-27.9,27.9s12.5,27.9,27.9,27.9,27.9-12.5,27.9-27.9-12.5-27.9-27.9-27.9ZM334.7,222c-.5,0-1.1,0-1.6,0h-.2s-.1-.1-.1-.1c-2.6-2.5-4.8-6.7-6.3-11.8l-.2-.6h13.1v.3c.3,1.3,1.2,2.4,2.4,3l.3.2v.4c-1.5,3.6-3.3,6.5-5.3,8.5h-.1c0,.1-.2.1-.2.1-.6,0-1.3,0-1.9,0ZM333.3,221.1c1,0,2,0,3,0,1.8-1.8,3.4-4.5,4.7-7.7-1.1-.7-2-1.8-2.3-3.1h-11.3c1.4,4.6,3.5,8.5,5.8,10.8ZM331.3,221.8l-1.1-.2c-7.2-1.2-13.6-5.4-17.7-11.5l-.5-.7h13.2v.3c1.3,4.5,3.1,8.4,5.3,11.2l.7.9ZM313.7,210.3c3.7,5.2,9.3,8.9,15.5,10.2-1.9-2.7-3.5-6.2-4.6-10.2h-10.9ZM338.5,221.8l.7-.9c1.5-1.9,2.9-4.4,4-7.3v-.3c.1,0,.4,0,.4,0,.1,0,.2,0,.3,0,2.1,0,3.9-1.5,4.4-3.6v-.3h9.2l-.5.7c-4,6-10.4,10.2-17.4,11.5l-1.1.2ZM343.8,214.2c-.9,2.4-2,4.5-3.3,6.3,6.1-1.4,11.6-5.1,15.3-10.2h-6.8c-.6,2.3-2.8,4-5.2,3.9ZM343.9,212.2c-1.9,0-3.4-1.5-3.4-3.4s1.5-3.4,3.4-3.4,3.4,1.5,3.4,3.4-1.5,3.4-3.4,3.4ZM343.9,206.4c-1.4,0-2.5,1.1-2.5,2.5s1.1,2.5,2.5,2.5,2.5-1.1,2.5-2.5-1.1-2.5-2.5-2.5ZM358.1,208.3h-9.8v-.3c-.4-1.4-1.3-2.5-2.6-3.1h-.3c0-.1,0-.5,0-.5.4-2.7.7-5.4.7-8.2v-.4h15.3v.4c-.2,4.2-1.3,8.2-3.3,11.9v.2ZM349,207.5h8.5c1.8-3.4,2.8-7,3-10.8h-13.5c0,2.6-.3,5.1-.7,7.6,1.3.7,2.2,1.9,2.6,3.3ZM339.5,208.3h-13.4v-.3c-.7-2.5-1.1-5.2-1.3-8v-.4s.3,0,.3,0c1.7-.4,3.1-1.7,3.5-3.5v-.3h16.6v.4c0,2.7-.3,5.3-.7,7.9v.4c0,0-.6,0-.6,0-2.1,0-3.9,1.5-4.4,3.6v.3ZM326.8,207.5h12c.6-2.2,2.6-3.8,4.9-3.9.3-2.3.5-4.6.6-6.9h-14.9c-.5,1.8-1.9,3.2-3.7,3.7.2,2.5.6,4.9,1.1,7.1ZM325,208.3h-13.6v-.2c-2.1-3.7-3.2-7.7-3.4-11.9v-.4s11.8,0,11.8,0v.3c.4,1.7,1.8,3.1,3.5,3.5h.3c0,0,0,.4,0,.4.2,2.7.6,5.4,1.2,7.8v.5ZM311.9,207.5h12c-.5-2.3-.8-4.7-1.1-7.1-1.8-.5-3.2-1.9-3.7-3.7h-10.2c.2,3.8,1.2,7.5,3,10.8ZM324.2,198.6h-.6c-1.6-.3-2.8-1.7-2.8-3.4s1.4-3.3,3.3-3.4h0c1.9,0,3.3,1.5,3.3,3.4s-1.5,3.4-3.4,3.4ZM324.2,192.3v.4c-1.4,0-2.5,1.1-2.5,2.5s.9,2.2,2.1,2.5h.5c1.4,0,2.5-1.1,2.5-2.5s-1.1-2.5-2.5-2.5v-.4s0,.4,0,.4v-.4ZM361.5,194.7h-15.3v-.4c0-2.8-.3-5.5-.7-8.2v-.3c0,0,.2-.1.2-.1,1.3-.6,2.2-1.8,2.5-3.1v-.3h9.8v.2c2.1,3.7,3.2,7.7,3.4,11.9v.4ZM347.1,193.8h13.5c-.2-3.8-1.2-7.5-3-10.8h-8.5c-.4,1.4-1.3,2.6-2.6,3.3.4,2.5.6,5,.7,7.6ZM345.2,194.7h-16.5v-.3c-.4-1.7-1.8-3.1-3.5-3.5h-.4c0,0,0-.5,0-.5.2-2.7.7-5.4,1.3-8v-.3h13.5v.3c.5,2.1,2.3,3.6,4.4,3.6h.5s0,.4,0,.4c.4,2.6.6,5.2.7,7.9v.4ZM329.3,193.8h14.9c0-2.4-.3-4.7-.6-6.9-2.3-.1-4.3-1.7-4.9-3.9h-12c-.5,2.3-.9,4.7-1.1,7.1,1.8.5,3.2,1.9,3.7,3.7ZM319.8,194.7h-11.8v-.4c.2-4.2,1.3-8.2,3.3-11.9v-.2h13.7v.5c-.7,2.5-1.1,5.1-1.3,7.8v.3s-.3,0-.3,0c-1.7.4-3.1,1.7-3.5,3.5v.3ZM308.9,193.8h10.2c.5-1.8,1.9-3.2,3.7-3.7.2-2.5.6-4.8,1.1-7.1h-12c-1.8,3.4-2.8,7-3,10.8ZM343.9,184.9c-1.9,0-3.4-1.5-3.4-3.4s1.5-3.4,3.4-3.4,3.4,1.5,3.4,3.4-1.5,3.4-3.4,3.4ZM343.9,179.1c-1.4,0-2.5,1.1-2.5,2.5s1.1,2.5,2.5,2.5,2.5-1.1,2.5-2.5-1.1-2.5-2.5-2.5ZM357.5,181h-9.1v-.3c-.5-2.1-2.3-3.6-4.4-3.6s-.2,0-.3,0h-.3s-.1-.3-.1-.3c-1.1-2.9-2.4-5.3-4-7.3l-.7-.9,1.1.2c7.1,1.3,13.4,5.5,17.4,11.5l.5.7ZM349,180.1h6.8c-3.7-5.1-9.2-8.8-15.3-10.2,1.2,1.8,2.3,3.9,3.3,6.3,2.4,0,4.6,1.6,5.2,3.9ZM339.5,181h-13.1l.2-.6c1.5-5.1,3.7-9.3,6.3-11.8h.1c0-.1.2-.1.2-.1,1.1,0,2.3,0,3.5,0h.2s.1.1.1.1c2,2,3.8,4.9,5.2,8.5v.4c.1,0-.2.2-.2.2-1.2.6-2,1.7-2.3,3v.3ZM327.5,180.1h11.3c.4-1.3,1.2-2.4,2.3-3.1-1.3-3.2-2.9-5.9-4.7-7.7-1,0-2.1,0-3,0-2.3,2.3-4.4,6.2-5.8,10.8ZM325.2,181h-13.2l.5-.7c4.1-6.1,10.5-10.3,17.7-11.5l1.1-.2-.7.9c-2.2,2.8-4,6.6-5.2,11.2v.3ZM313.7,180.1h10.9c1.1-4,2.7-7.5,4.6-10.2-6.2,1.4-11.8,5-15.5,10.2Z"/>
  </g>
  <g>
    <path class="cls-1" d="M484.4,224.4c-16.1,0-29.1-13.1-29.1-29.1s13.1-29.1,29.1-29.1,29.1,13.1,29.1,29.1-13.1,29.1-29.1,29.1ZM484.4,169.2c-14.4,0-26.1,11.7-26.1,26.1s11.7,26.1,26.1,26.1,26.1-11.7,26.1-26.1-11.7-26.1-26.1-26.1Z"/>
    <path class="cls-1" d="M476.1,212.2l-10.5-22.4,14.8-6.5,4.5,3.5,15.7-4.4-8.1,25.9-16.4,3.9ZM469.7,191.4l8.2,17.3,12.3-2.9,5.9-18.9-11.8,3.3-4.3-3.3-10.3,4.5Z"/>
  </g>
  <g>
    <path class="cls-1" d="M29.6,54.6c-.6,0-1.2-.2-1.7-.5-1-.6-1.7-1.7-1.7-3v-14.3c0-1.2.6-2.3,1.7-2.9,1-.6,2.3-.6,3.4,0l13,7.1c1.1.6,1.8,1.7,1.8,3s-.7,2.4-1.8,3l-13,7.1c-.5.3-1.1.4-1.7.4ZM29.6,36.5c0,0-.1,0-.2,0-.1,0-.2.2-.2.3v14.3c0,.1,0,.3.2.3.1,0,.3,0,.4,0l13-7.1c.1,0,.2-.2.2-.3s0-.3-.2-.3l-13-7.1c0,0-.1,0-.2,0Z"/>
    <rect class="cls-1" x="9.1" y="26.7" width="52.7" height="3"/>
    <rect class="cls-1" x="9.1" y="59.7" width="52.7" height="3"/>
    <rect class="cls-1" x="34" y="18.4" width="3" height="9.8"/>
    <rect class="cls-1" x="20.8" y="18.4" width="3" height="9.8"/>
    <rect class="cls-1" x="47.1" y="18.4" width="3" height="9.8"/>
    <rect class="cls-1" x="34" y="61.3" width="3" height="9.8"/>
    <rect class="cls-1" x="20.8" y="61.3" width="3" height="9.8"/>
    <rect class="cls-1" x="47.1" y="61.3" width="3" height="9.8"/>
    <path class="cls-1" d="M55.8,72.6H15.1c-4.1,0-7.5-3.4-7.5-7.5V24.4c0-4.1,3.4-7.5,7.5-7.5h40.7c4.1,0,7.5,3.4,7.5,7.5v40.7c0,4.1-3.4,7.5-7.5,7.5ZM15.1,19.9c-2.5,0-4.5,2-4.5,4.5v40.7c0,2.5,2,4.5,4.5,4.5h40.7c2.5,0,4.5-2,4.5-4.5V24.4c0-2.5-2-4.5-4.5-4.5H15.1Z"/>
  </g>
  <g>
    <path class="cls-1" d="M212.2,167.7h-9.8c-1.8,0-3.3,1.5-3.3,3.3v44.8c0,1.8,1.5,3.3,3.3,3.3h9.8c1.8,0,3.3-1.5,3.3-3.3v-44.8c0-1.8-1.5-3.3-3.3-3.3ZM213.1,215.8c0,.5-.4.9-.9.9h-9.8c-.5,0-.9-.4-.9-.9v-44.8c0-.5.4-.9.9-.9h9.8c.5,0,.9.4.9.9v44.8Z"/>
    <path class="cls-1" d="M205.2,186.9h-1.4c-.6,0-1.2.5-1.2,1.2s.5,1.2,1.2,1.2h1.4c.6,0,1.2-.5,1.2-1.2s-.5-1.2-1.2-1.2Z"/>
    <path class="cls-1" d="M210.8,186.9h-1.4c-.6,0-1.2.5-1.2,1.2s.5,1.2,1.2,1.2h1.4c.6,0,1.2-.5,1.2-1.2s-.5-1.2-1.2-1.2Z"/>
    <path class="cls-1" d="M206.6,174.3h1.4c.6,0,1.2-.5,1.2-1.2s-.5-1.2-1.2-1.2h-1.4c-.6,0-1.2.5-1.2,1.2s.5,1.2,1.2,1.2Z"/>
    <path class="cls-1" d="M207.3,190.4c-.6,0-1.2.5-1.2,1.2v4.2c0,.6.5,1.2,1.2,1.2s1.2-.5,1.2-1.2v-4.2c0-.6-.5-1.2-1.2-1.2Z"/>
    <path class="cls-1" d="M207.3,175.7c-2.7,0-5,2.2-5,5s2.2,5,5,5,5-2.2,5-5-2.2-5-5-5ZM207.3,183.3c-1.5,0-2.6-1.2-2.6-2.6s1.2-2.6,2.6-2.6,2.6,1.2,2.6,2.6-1.2,2.6-2.6,2.6Z"/>
    <path class="cls-1" d="M188.9,172.9h-26.2c-4.3,0-7.9,3.5-7.9,7.9v26.2c0,4.3,3.5,7.9,7.9,7.9h26.2c4.3,0,7.9-3.5,7.9-7.9v-26.2c0-4.3-3.5-7.9-7.9-7.9ZM194.4,207c0,3.1-2.5,5.6-5.6,5.6h-26.2c-3.1,0-5.6-2.5-5.6-5.6v-26.2c0-3.1,2.5-5.6,5.6-5.6h26.2c3.1,0,5.6,2.5,5.6,5.6v26.2Z"/>
    <path class="cls-1" d="M186.9,187.6c-.6-.2-1.3,0-1.5.6l-3.3,8.2-3.3-8.2c-.2-.6-.9-.9-1.5-.6-.6.2-.9.9-.6,1.5l4.4,10.9c.2.4.6.7,1.1.7s.9-.3,1.1-.7l4.4-10.9c.2-.6,0-1.3-.6-1.5Z"/>
    <path class="cls-1" d="M173.9,187.8h-8.9c-.6,0-1.2.5-1.2,1.2s.5,1.2,1.2,1.2h3.3v9.3c0,.6.5,1.2,1.2,1.2s1.2-.5,1.2-1.2v-9.3h3.3c.6,0,1.2-.5,1.2-1.2s-.5-1.2-1.2-1.2Z"/>
  </g>
  <g>
    <path class="cls-1" d="M354.9,27.3h-14.3c-.2-1.1-.6-2.1-1.2-3l5.4-4.9c.4.2.8.3,1.3.3,1.7,0,3.2-1.4,3.2-3.2s-1.4-3.2-3.2-3.2-3.2,1.4-3.2,3.2,0,.8.2,1.2l-5.5,4.9c-1.1-.7-2.3-1.1-3.7-1.1s-2.6.4-3.6,1.1l-5.4-4.9c.1-.4.2-.8.2-1.2,0-1.7-1.4-3.2-3.2-3.2s-3.2,1.4-3.2,3.2,1.4,3.2,3.2,3.2.9,0,1.3-.3l5.3,4.8c-.7.9-1.1,1.9-1.3,3.1h-13.9c-4.4,0-8,3.6-8,8v27.2c0,4.4,3.6,8,8,8h1v4.5c0,.7.5,1.2,1.2,1.2h1.7c.3,0,.6-.1.8-.3l5.7-5.4h20.8l5.7,5.4c.2.2.5.3.8.3h1.7c.7,0,1.2-.5,1.2-1.2v-4.5h1c4.4,0,8-3.6,8-8v-27.2c0-4.4-3.6-8-8-8ZM346.1,15.7c.4,0,.8.4.8.8s-.4.8-.8.8-.8-.4-.8-.8.4-.8.8-.8ZM321.3,16.5c0-.4.4-.8.8-.8s.8.4.8.8-.4.8-.8.8-.8-.4-.8-.8ZM334,23.9c2.1,0,3.8,1.4,4.2,3.4h-8.4c.4-1.9,2.1-3.4,4.2-3.4ZM316.9,73.8v-3.3s3.5,0,3.5,0l-3.5,3.3ZM351.6,73.8l-3.5-3.3h3.5v3.3ZM360.6,62.4c0,3.1-2.5,5.6-5.6,5.6h-41.4c-3.1,0-5.6-2.5-5.6-5.6v-27.2c0-3.1,2.5-5.6,5.6-5.6h41.4c3.1,0,5.6,2.5,5.6,5.6v27.2Z"/>
    <path class="cls-1" d="M345.8,33.4h-29.3c-3.2,0-5.7,2.6-5.7,5.7v19.8c0,3.2,2.6,5.7,5.7,5.7h29.3c3.2,0,5.7-2.6,5.7-5.7v-19.8c0-3.2-2.6-5.7-5.7-5.7ZM349.2,59c0,1.9-1.5,3.4-3.4,3.4h-29.3c-1.9,0-3.4-1.5-3.4-3.4v-19.8c0-1.9,1.5-3.4,3.4-3.4h29.3c1.9,0,3.4,1.5,3.4,3.4v19.8Z"/>
    <path class="cls-1" d="M356,36c-2,0-3.7,1.6-3.7,3.7s1.6,3.7,3.7,3.7,3.7-1.6,3.7-3.7-1.6-3.7-3.7-3.7ZM356,40.9c-.7,0-1.3-.6-1.3-1.3s.6-1.3,1.3-1.3,1.3.6,1.3,1.3-.6,1.3-1.3,1.3Z"/>
    <path class="cls-1" d="M356,45.1c-2,0-3.7,1.6-3.7,3.7s1.6,3.7,3.7,3.7,3.7-1.6,3.7-3.7-1.6-3.7-3.7-3.7ZM356,50c-.7,0-1.3-.6-1.3-1.3s.6-1.3,1.3-1.3,1.3.6,1.3,1.3-.6,1.3-1.3,1.3Z"/>
    <path class="cls-1" d="M356,54.2c-2,0-3.7,1.6-3.7,3.7s1.6,3.7,3.7,3.7,3.7-1.6,3.7-3.7-1.6-3.7-3.7-3.7ZM356,59.1c-.7,0-1.3-.6-1.3-1.3s.6-1.3,1.3-1.3,1.3.6,1.3,1.3-.6,1.3-1.3,1.3Z"/>
  </g>
  <g>
    <path class="cls-1" d="M615.2,71.9v-11.2h-1.3c-4.5,0-8.1-3.6-8.1-8.1v-27.8c0-4.5,3.6-8.1,8.1-8.1h38.3c4.5,0,8.1,3.6,8.1,8.1v27.8c0,4.5-3.6,8.1-8.1,8.1h-23l-14,11.2ZM613.9,19.2c-3,0-5.5,2.5-5.5,5.5v27.8c0,3,2.5,5.5,5.5,5.5h3.9v8.4s10.5-8.4,10.5-8.4h23.9c3,0,5.5-2.5,5.5-5.5v-27.8c0-3-2.5-5.5-5.5-5.5h-38.3Z"/>
    <path class="cls-1" d="M629.7,46.4c-.4,0-.7,0-1-.3-.6-.4-1-1-1-1.7v-11.6c0-.7.4-1.4,1-1.7.6-.4,1.4-.4,2,0l10.1,5.8c.6.4,1,1,1,1.8s-.4,1.4-1,1.8l-10.1,5.8c-.3.2-.7.3-1,.3ZM630.3,33.8v9.6l8.4-4.8-8.4-4.8ZM629.4,33.3s0,0,0,0h0Z"/>
    <path class="cls-1" d="M633.1,53.2c-8.1,0-14.6-6.5-14.6-14.6s6.5-14.6,14.6-14.6h0c8,0,14.6,6.5,14.6,14.6s-6.5,14.6-14.6,14.6ZM633.1,26.6c-6.6,0-12,5.4-12,12s5.4,12,12,12,12-5.4,12-12-5.4-12-12-12h0Z"/>
  </g>
  <g>
    <g>
      <g>
        <g>
          <rect class="cls-1" x="645.8" y="165.9" width="2.6" height="33.4"/>
          <g>
            <path class="cls-1" d="M649.9,201.8h-.5c-1.3,0-2.4-.6-3.3-1.6-4.2-5.3-11.1-8.4-15.4-8.4h-1.3v-18.2h1.3c4.2,0,11.1-3.1,15.4-8.4.8-1,2-1.6,3.3-1.6h.5c2.3,0,4.1,1.8,4.1,4.1v30c0,2.3-1.8,4.1-4.1,4.1ZM632,189.2c4.8.5,11.6,3.7,16.1,9.3.3.4.8.7,1.3.7h.5c.8,0,1.5-.7,1.5-1.5v-30c0-.8-.7-1.5-1.5-1.5h-.5c-.5,0-.9.2-1.3.7-4.5,5.6-11.3,8.8-16.1,9.3v13.2Z"/>
            <path class="cls-1" d="M632,191.7h-11.8c-2.7,0-4.9-2.2-4.9-4.9v-8.5c0-2.7,2.2-4.9,4.9-4.9h11.8v3.6h-2.6v-1h-9.2c-1.3,0-2.3,1-2.3,2.3v8.5c0,1.3,1,2.3,2.3,2.3h9.2v-1h2.6v3.6Z"/>
          </g>
          <rect class="cls-1" x="621" y="178.5" width="5.4" height="2.6"/>
          <rect class="cls-1" x="621" y="184.1" width="5.4" height="2.6"/>
        </g>
        <path class="cls-1" d="M629.8,201.3c-.8-1.9-1.4-3.8-1.9-5.8l-.9-3.7h-4.5l1.9,8.7-2.5.6-2.6-11.9h9.8l1.3,5.8c.4,1.8,1,3.6,1.7,5.3l-2.4,1Z"/>
        <path class="cls-1" d="M634.9,208.8"/>
      </g>
      <path class="cls-1" d="M652.7,190.4h-1.3v-15.6h1.3c4.3,0,7.8,3.5,7.8,7.8s-3.5,7.8-7.8,7.8ZM654,177.6v10c2.2-.6,3.9-2.6,3.9-5s-1.7-4.4-3.9-5Z"/>
    </g>
    <g>
      <path class="cls-1" d="M613.6,202h-1.6v-2.6h1.6c.6,0,1.2-.3,1.6-.7l2.5-2.7c.9-1,2.2-1.5,3.5-1.5v2.6c-.6,0-1.2.3-1.6.7l-2.5,2.7c-.9,1-2.2,1.5-3.5,1.5Z"/>
      <path class="cls-1" d="M631.3,218.3h-10.5c-1.2,0-2.3-.3-3.3-.9-1.7-1.1-3.6-1.6-5.5-1.6v-2.6c0,0,0,0,0,0,2.4,0,4.8.7,6.9,2,.6.3,1.3.5,1.9.5h10.5c1.3,0,2.5-1,2.6-2.4l.9-8.4c0-.8-.2-1.5-.7-2s-1.2-.9-2-.9h-11.6v-2.6h11.6c1.5,0,2.9.6,3.9,1.7,1,1.1,1.5,2.6,1.3,4l-.9,8.4c-.3,2.7-2.5,4.7-5.2,4.7Z"/>
      <rect class="cls-1" x="630.9" y="205" width="4.9" height="2.6"/>
      <rect class="cls-1" x="630.1" y="210.8" width="5.2" height="2.6"/>
      <polygon class="cls-1" points="613.3 217.2 607.5 217.2 607.5 214.6 610.7 214.6 610.7 200.1 607.5 200.1 607.5 197.5 613.3 197.5 613.3 217.2"/>
    </g>
  </g>
  <g>
    <g>
      <path class="cls-1" d="M484.1,35.1c-2.2,0-4-1.6-4.3-3.8l-.2-1.6c-.1-1.2.2-2.4,1.1-3.4.8-.9,2-1.4,3.2-1.4h.4c1.2,0,2.4.5,3.2,1.4.8.9,1.2,2.1,1.1,3.4l-.2,1.6c-.3,2.2-2.1,3.8-4.3,3.8ZM483.9,27.4c-.5,0-.9.2-1.3.6-.3.4-.5.8-.4,1.3l.2,1.6c0,.9.8,1.5,1.7,1.5s1.6-.7,1.7-1.5l.2-1.6c0-.5,0-1-.4-1.3-.3-.4-.8-.6-1.3-.6h-.4Z"/>
      <path class="cls-1" d="M492.9,43.8h-2.6v-2.8c0-1.1-1-2.1-2.4-2.4-2.5-.6-5.2-.6-7.7,0-1.4.3-2.4,1.3-2.4,2.4v2.8h-2.6v-2.8c0-2.3,1.8-4.3,4.4-4.9,2.9-.6,5.9-.6,8.8,0,2.6.6,4.4,2.6,4.4,4.9v2.8Z"/>
      <path class="cls-1" d="M484.1,47.6c-7.6,0-13.8-6.2-13.8-13.8s6.2-13.8,13.8-13.8,13.8,6.2,13.8,13.8-6.2,13.8-13.8,13.8ZM484.1,22.5c-6.2,0-11.2,5-11.2,11.2s5,11.2,11.2,11.2,11.2-5,11.2-11.2-5-11.2-11.2-11.2Z"/>
    </g>
    <path class="cls-1" d="M504.8,70.8c-3.4,0-6.2-2.8-6.2-6.2s2.8-6.2,6.2-6.2,6.2,2.8,6.2,6.2-2.8,6.2-6.2,6.2ZM504.8,61c-2,0-3.6,1.6-3.6,3.6s1.6,3.6,3.6,3.6,3.6-1.6,3.6-3.6-1.6-3.6-3.6-3.6Z"/>
    <path class="cls-1" d="M484.1,70.8c-3.4,0-6.2-2.8-6.2-6.2s2.8-6.2,6.2-6.2,6.2,2.8,6.2,6.2-2.8,6.2-6.2,6.2ZM484.1,61c-2,0-3.6,1.6-3.6,3.6s1.6,3.6,3.6,3.6,3.6-1.6,3.6-3.6-1.6-3.6-3.6-3.6Z"/>
    <path class="cls-1" d="M462.4,70.8c-3.4,0-6.2-2.8-6.2-6.2s2.8-6.2,6.2-6.2,6.2,2.8,6.2,6.2-2.8,6.2-6.2,6.2ZM462.4,61c-2,0-3.6,1.6-3.6,3.6s1.6,3.6,3.6,3.6,3.6-1.6,3.6-3.6-1.6-3.6-3.6-3.6Z"/>
    <polygon class="cls-1" points="463.7 59.7 461.1 59.7 461.1 51 482.8 51 482.8 46.3 485.4 46.3 485.4 53.6 463.7 53.6 463.7 59.7"/>
    <polygon class="cls-1" points="506.1 59.7 503.5 59.7 503.5 53.6 485.4 53.6 485.4 59.7 482.8 59.7 482.8 51 506.1 51 506.1 59.7"/>
  </g>
  <g>
    <path class="cls-1" d="M777.4,36.6"/>
    <path class="cls-1" d="M765.9,37.3c-.2,0-.4,0-.6-.2-.4-.2-.6-.7-.6-1.1v-6.9c0-.5.2-.9.6-1.1.4-.2.9-.2,1.3,0l6,3.4c.4.2.6.7.6,1.1s-.2.9-.6,1.1l-6,3.4c-.2.1-.4.2-.6.2ZM766.4,29.9v5.4l4.6-2.7-4.6-2.7Z"/>
    <g>
      <path class="cls-1" d="M796.3,39.5c-.2,0-.4,0-.6,0-1.3-.3-2.4-1.3-2.6-2.6-.2-1.1.1-2.2.9-3,.8-.8,1.9-1.1,3-.9,1.3.3,2.4,1.3,2.6,2.6.2,1.1-.1,2.2-.9,3-.6.6-1.5,1-2.4,1ZM796.3,34.5c-.4,0-.8.2-1.1.5-.4.4-.5.9-.4,1.5h0c.1.6.6,1.1,1.2,1.2.5.1,1.1,0,1.5-.4.4-.4.5-.9.4-1.5-.1-.6-.6-1.1-1.2-1.2-.1,0-.2,0-.3,0Z"/>
      <polygon class="cls-1" points="799.7 36.1 797.9 36.1 797.9 25.4 803.8 28.6 803 30.1 799.7 28.3 799.7 36.1"/>
    </g>
    <path class="cls-1" d="M764.7,45c-6.3-1.6-10.3-7.4-9.6-13.8.6-5.9,5.4-10.7,11.3-11.4,3.7-.4,7.3.7,10.1,3.2,2.7,2.4,4.3,5.9,4.3,9.6s-.2,2.6-.7,4l-2.5-.8c.4-1.2.6-2.2.6-3.2,0-2.9-1.2-5.7-3.4-7.7-2.2-2-5.1-2.9-8-2.5-4.7.5-8.5,4.3-9,9.1-.5,5.1,2.7,9.8,7.7,11l-.6,2.5Z"/>
    <g>
      <path class="cls-1" d="M797.2,66.9h-29.9c-3.4,0-6.5-1.3-8.9-3.8-2.3-2.4-3.6-5.6-3.5-9,.2-6.2,5.2-11.4,11.4-11.9,1.5-.1,2.9,0,4.3.4,1.6-5.1,6.3-8.6,11.7-8.6s10.1,3.5,11.7,8.6c1.1-.3,2.2-.5,3.4-.5,2.6,0,5.1.8,7.3,2.4,3.6,2.6,5.5,7.1,5,11.5-.8,6.1-6.1,10.8-12.5,10.8ZM767.3,44.8c-.3,0-.5,0-.8,0-4.9.4-8.8,4.5-9,9.4,0,2.7.9,5.2,2.7,7.1,1.9,1.9,4.3,3,7,3h29.9c5.1,0,9.4-3.7,10-8.5.4-3.6-1-7-3.9-9.1-1.7-1.2-3.7-1.9-5.7-1.9s-2.6.3-3.8.8l-1.5.6-.3-1.6c-.9-4.6-4.9-7.9-9.5-7.9s-8.7,3.3-9.5,7.9l-.3,1.6-1.5-.6c-1.2-.5-2.5-.8-3.8-.8Z"/>
      <polygon class="cls-1" points="781.1 58.7 776.4 54 778.3 52.2 781.1 55 786.9 49.1 788.8 51 781.1 58.7"/>
    </g>
    <path class="cls-1" d="M800.1,45l-.6-2.5c5-1.3,8.2-5.9,7.7-11-.5-4.7-4.3-8.5-9-9.1-3-.3-5.8.6-8,2.5-2.2,1.9-3.4,4.7-3.4,7.7s.2,2.1.6,3.2l-2.5.8c-.5-1.4-.7-2.7-.7-4,0-3.7,1.6-7.2,4.3-9.6,2.7-2.4,6.4-3.6,10-3.2,5.9.7,10.7,5.5,11.3,11.4.7,6.4-3.4,12.2-9.6,13.8Z"/>
  </g>
  <g>
    <g>
      <path class="cls-1" d="M802.9,219.3h-38.6c-3.1,0-5.7-2.5-5.7-5.7v-40.3c0-3.1,2.5-5.7,5.7-5.7h38.6c3.1,0,5.7,2.5,5.7,5.7v40.3c0,3.1-2.5,5.7-5.7,5.7ZM764.4,170.3c-1.7,0-3.1,1.4-3.1,3.1v40.3c0,1.7,1.4,3.1,3.1,3.1h38.6c1.7,0,3.1-1.4,3.1-3.1v-40.3c0-1.7-1.4-3.1-3.1-3.1h-38.6Z"/>
      <rect class="cls-1" x="760" y="177.1" width="47.3" height="2.6"/>
    </g>
    <g>
      <path class="cls-1" d="M783.7,212.1c-3.6,0-7.1-1.4-9.9-4.1-2.6-2.6-4.1-6.1-4.1-9.9s1.5-7.2,4.1-9.9h0s0,0,0,0c5.4-5.4,14.3-5.4,19.7,0,2.6,2.6,4.1,6.1,4.1,9.9s-1.5,7.2-4.1,9.9c-2.7,2.7-6.3,4.1-9.9,4.1ZM783.7,186.9c-2.9,0-5.8,1.1-8,3.3h0c-2.1,2.1-3.3,5-3.3,8s1.2,5.9,3.3,8c4.4,4.4,11.6,4.4,16.1,0,2.1-2.1,3.3-5,3.3-8s-1.2-5.9-3.3-8c-2.2-2.2-5.1-3.3-8-3.3Z"/>
      <polygon class="cls-1" points="787 203.3 782.4 198.7 782.4 189.7 785 189.7 785 197.7 788.8 201.5 787 203.3"/>
    </g>
    <rect class="cls-1" x="769.7" y="165.7" width="2.6" height="7"/>
    <rect class="cls-1" x="795" y="165.7" width="2.6" height="7"/>
  </g>
</svg>