<svg width="126" height="65" viewBox="0 0 126 65" fill="none" xmlns="http://www.w3.org/2000/svg">
<path d="M17.7801 17.5037L14.9801 25.768H20.3934L17.7801 17.5037ZM23.8468 36.6787L22.4001 32.0823H12.8334L11.2934 36.6787H3.36011L14.6534 5.80371H20.5334L31.8268 36.7251H23.8468V36.6787Z" fill="black"/>
<path d="M55.7667 36.9571C52.1267 36.9571 49.4201 35.7499 47.1334 33.4749C43.8667 30.2249 44.0067 25.8607 44.0067 21.2178C44.0067 16.5749 43.8667 12.2571 47.1334 8.96066C49.4201 6.73209 52.1267 5.47852 55.7667 5.47852C61.6467 5.47852 66.4067 8.72852 67.5267 15.5535H59.7801C59.3134 13.8357 58.3334 12.2571 55.8134 12.2571C53.2934 12.2571 53.3867 12.8142 52.7801 13.5571C52.0801 14.4857 51.6134 15.5535 51.6134 21.1714C51.6134 26.7892 52.0801 27.9035 52.7801 28.8321C53.3401 29.5749 54.4134 30.1321 55.8134 30.1321C58.3334 30.1321 59.3134 28.5535 59.7801 26.8357H67.5267C66.4067 33.6607 61.6467 36.9107 55.7667 36.9107" fill="black"/>
<path d="M83.7668 36.6787V5.80371H104.907V12.5359H91.4202V17.7359H102.48V24.5144H91.4202V29.9001H104.907V36.6787H83.7668Z" fill="black"/>
<path d="M17.64 59.7073V53.0216C17.64 51.3037 16.66 50.5608 15.4 50.5608C14.14 50.5608 13.1134 51.3037 13.1134 52.9287V59.7537H10.8734V53.068C10.8734 51.3501 9.89336 50.6073 8.63336 50.6073C7.37336 50.6073 6.34669 51.3501 6.34669 53.068V59.7537H4.10669V48.7501H6.30002V49.8644C7.04669 49.0751 8.12002 48.6108 9.24002 48.6108C10.36 48.6108 11.6667 49.168 12.3667 50.2358C13.2534 49.1216 14.3734 48.6108 15.82 48.6108C17.2667 48.6108 17.9667 48.9823 18.62 49.5858C19.46 50.4216 19.7867 51.443 19.7867 52.6966V59.7073H17.5467H17.64Z" fill="black"/>
<path d="M36.0735 51.8145C35.7468 50.9787 34.9534 50.4216 33.8801 50.4216C32.8068 50.4216 32.0135 50.9787 31.6868 51.8145C31.4535 52.3252 31.4068 52.6502 31.4068 53.3002H36.4001C36.4001 52.6502 36.3068 52.3252 36.0735 51.8145ZM31.4068 54.8323C31.4068 56.7359 32.4335 57.8966 34.2068 57.8966C35.9801 57.8966 36.1201 57.5252 36.8668 56.7823L38.2668 58.1287C37.1468 59.243 36.0734 59.8466 34.1134 59.8466C31.3601 59.8466 29.1201 58.4073 29.1201 54.1823C29.1201 49.9573 30.9868 48.5645 33.7868 48.5645C36.5868 48.5645 38.5001 50.7466 38.5001 53.8573V54.8323H31.3134H31.4068Z" fill="black"/>
<path d="M52.64 59.7071C50.5867 59.7071 49.6067 58.2214 49.6067 56.6428V50.6071H48.3467V48.8892H49.6067V45.5464H51.8467V48.8892H53.9933V50.6071H51.8467V56.55C51.8467 57.3392 52.22 57.85 53.06 57.85H53.9933V59.7535H52.6867L52.64 59.7071Z" fill="black"/>
<path d="M72.0533 51.2573C71.5399 50.7466 71.1666 50.5145 70.3733 50.5145C69.1599 50.5145 68.1799 51.4895 68.1799 52.9752V59.6609H65.9399V48.6573H68.1333V49.8645C68.6933 49.0752 69.8133 48.5645 71.0733 48.5645C72.3333 48.5645 72.9399 48.843 73.6866 49.6323L72.0066 51.3037L72.0533 51.2573Z" fill="black"/>
<path d="M83.3933 48.7038H85.6333V59.7073H83.3933V48.7038ZM83.3467 44.2002H85.68V46.5216H83.3467V44.2002Z" fill="black"/>
<path d="M103.46 59.7072L101.173 55.9465L98.84 59.7072H96.1333L99.96 54.0893L96.32 48.7036H98.98L101.173 52.2786L103.32 48.7036H106.027L102.387 54.0893L106.167 59.7072H103.46Z" fill="black"/>
<path d="M115.453 59.2428C113.867 59.2428 112.607 57.9893 112.607 56.4107C112.607 54.8321 113.913 53.5785 115.453 53.5785C116.993 53.5785 118.3 54.8785 118.3 56.4107C118.3 57.9428 116.993 59.2428 115.453 59.2428ZM115.453 53.1143C113.633 53.1143 112.14 54.6 112.14 56.4107C112.14 58.2214 113.633 59.7071 115.453 59.7071C117.273 59.7071 118.767 58.2214 118.767 56.4107C118.767 54.6 117.273 53.1143 115.453 53.1143Z" fill="black"/>
<path d="M115.547 56.2718H114.8V55.1111H115.547C116.107 55.1111 116.34 55.2968 116.34 55.7147C116.34 56.1325 115.873 56.2718 115.547 56.2718ZM116.293 58.0361H116.807L115.873 56.5968H115.967C116.527 56.5039 116.76 56.2254 116.76 55.7147C116.76 55.2039 116.433 54.8325 115.64 54.8325H114.427V58.0825H114.847V56.6432H115.453L116.34 58.0825L116.293 58.0361Z" fill="black"/>
</svg>
