<?xml version="1.0" encoding="UTF-8"?>
<svg id="submission_front" data-name="submission front" xmlns="http://www.w3.org/2000/svg" version="1.1" viewBox="0 0 552.4 409.4">
  <defs>
    <style>
      .cls-1 {
        fill: #000;
      }

      .cls-1, .cls-2, .cls-3, .cls-4, .cls-5, .cls-6, .cls-7, .cls-8, .cls-9, .cls-10, .cls-11, .cls-12, .cls-13 {
        stroke-width: 0px;
      }

      .cls-2 {
        fill: #3c54a5;
      }

      .cls-3 {
        fill: #b9519e;
      }

      .cls-4 {
        fill: #c4c6c8;
      }

      .cls-5 {
        fill: #6cbe45;
      }

      .cls-6 {
        fill: #333334;
      }

      .cls-7 {
        fill: #3f2d79;
      }

      .cls-8 {
        fill: #073e59;
      }

      .cls-9 {
        fill: #fff;
      }

      .cls-10 {
        fill: #000006;
      }

      .cls-11 {
        fill: #f5eb12;
      }

      .cls-12 {
        fill: #72cddc;
      }

      .cls-13 {
        fill: #ee2626;
      }
    </style>
  </defs>
  <g>
    <path class="cls-1" d="M87.7,45.6c-1,.6-1.3,1.9-.7,2.9,6.3,10.5,7.4,20.2,2.9,24.7-6.6,6.6-23.7.7-37.4-12.9-13.6-13.6-19.6-30.8-12.9-37.4,3.6-3.6,10.8-3.6,19.2,0,1.7.7,3.4,1.6,5,2.6,1,.6,2.3.3,2.9-.8.6-1,.2-2.3-.8-2.9-1.8-1.1-3.7-2-5.5-2.8-10.2-4.5-18.5-4.5-24.5,1.4-13.8,13.6-12.3,37.5,3.1,53l-4.7,26.8h-1.6c-4.4,0-8.1,3.6-8.1,8.1v5.9c0,1.2,1,2.1,2.1,2.1h45.8c1.2,0,2.1-1,2.1-2.1v-5.9c0-4.4-3.6-8.1-8.1-8.1h-1.5l-1.4-14.4c.8.1,1.6.2,2.4.2.8,0,1.6,0,2.4,0,9.1,0,17.5-3.2,23.6-9.5,6.9-7,5.7-18.1-1.7-30.5-.6-1-1.9-1.3-2.9-.7ZM70.5,108.4v3.8H28.9v-3.8c0-2.1,1.7-3.8,3.8-3.8h34c2.1,0,3.8,1.7,3.8,3.8ZM61,100.3h-22.3l4.1-23.5c5,4,10.7,6.9,16.7,8.3l1.4,15.2ZM66.6,82c-9-.6-17.6-4.6-24.4-11.4-10.7-10.7-14-25.7-9.4-37.5.2,2,.7,4.2,1.4,6.5,2.5,7.9,8,16.4,15.3,23.7,9.9,9.9,21.1,15.8,30.2,16.8-4,1.6-8.5,2.2-13.2,1.9Z"/>
    <path class="cls-1" d="M101.2,10.7c-1.3-1.3-3.1-2.1-5-2.1s-3.7.7-5,2.1c-1.3,1.3-2.1,3.1-2.1,5s.4,2.6,1,3.6l-2.5,2.5-37.4,10.2c-1.1.3-1.8,1.5-1.5,2.6.3,1.1,1.5,1.8,2.6,1.5l30.2-8.2-24.2,24.2c-.8.8-.8,2.2,0,3,.4.4,1,.6,1.5.6s1.1-.2,1.5-.6l24.2-24.2-8.2,30.2c-.3,1.1.4,2.3,1.5,2.6.2,0,.4,0,.6,0,.9,0,1.8-.6,2-1.6l10.2-37.4,2.7-2.7c.9.4,1.9.6,2.9.6,1.9,0,3.7-.7,5-2.1,2.8-2.8,2.8-7.2,0-10ZM98.2,17.7c-1.1,1.1-2.9,1.1-4,0-.5-.5-.8-1.2-.8-2s.3-1.5.8-2c.5-.5,1.2-.8,2-.8s1.5.3,2,.8c1.1,1.1,1.1,2.9,0,4Z"/>
  </g>
  <g>
    <path class="cls-1" d="M247.2,262.6c0-1-.6-2-1.5-2.5l-10.9-6.3c-.9-.5-2-.5-2.9,0-.9.5-1.5,1.5-1.5,2.5v12.6c0,1,.6,2,1.5,2.5.5.3,1,.4,1.5.4s1-.1,1.5-.4l10.9-6.3c.9-.5,1.5-1.5,1.5-2.5ZM234.1,267.6v-10l8.6,5-8.6,5Z"/>
    <path class="cls-1" d="M308.7,286.7c-4-2.9-8.8-4.5-13.8-4.5s-4.8.4-7,1.1c-2.8-10-12-17-22.5-17s-3,.2-4.5.4c.3-1.4.4-2.7.4-4.1,0-13.5-11-24.5-24.5-24.5s-24.5,11-24.5,24.5,5.3,17.7,13.5,21.8c-8,3.7-13.5,11.8-13.5,21.2s10.5,23.4,23.4,23.4h59.1c12.9,0,23.4-10.5,23.4-23.4s-3.6-14.5-9.6-18.9ZM216,262.6c0-11.4,9.3-20.8,20.8-20.8s20.8,9.3,20.8,20.8-.3,3.4-.8,5.3c-6.7,2.6-11.9,8.2-14,15.3-2.3-.7-4.6-1.1-7-1.1s-3,.1-4.4.4c-9.1-2.5-15.3-10.6-15.3-20ZM294.9,325.3h-59.1c-10.9,0-19.7-8.9-19.7-19.7s8.9-19.7,19.7-19.7,5.2.5,7.6,1.5l2.1.9.4-2.2c1.8-9.3,9.9-16.1,19.4-16.1s17.6,6.8,19.4,16.1l.4,2.2,2.1-.9c2.4-1,5-1.5,7.6-1.5,4.2,0,8.2,1.3,11.6,3.8,5.1,3.7,8.1,9.7,8.1,16,0,10.9-8.9,19.7-19.7,19.7Z"/>
  </g>
  <g>
    <path class="cls-1" d="M48,326.9c-23.9,0-43.3-19.4-43.3-43.3s19.4-43.3,43.3-43.3,43.3,19.4,43.3,43.3-19.4,43.3-43.3,43.3ZM48,244.8c-21.4,0-38.8,17.4-38.8,38.8s17.4,38.8,38.8,38.8,38.8-17.4,38.8-38.8-17.4-38.8-38.8-38.8Z"/>
    <path class="cls-1" d="M35.8,308.8l-15.7-33.3,22-9.6,6.8,5.2,23.4-6.6-12.1,38.5-24.4,5.8ZM26.2,277.8l12.1,25.8,18.4-4.4,8.8-28.1-17.5,4.9-6.4-5-15.3,6.7Z"/>
  </g>
  <g>
    <path class="cls-1" d="M316,35.8h-37.7c-.3-1.6-1.1-3.1-2.1-4.3l10.2-15.2c.6-.9.4-2.2-.6-2.8-.9-.6-2.2-.4-2.8.6l-10,15c-1.3-.7-2.8-1.1-4.4-1.1s-3.1.4-4.5,1.1l-10-15c-.6-.9-1.9-1.2-2.8-.6-.9.6-1.2,1.9-.6,2.8l10.2,15.3c-1,1.2-1.7,2.7-2.1,4.3h-37.7c-1.1,0-2,.9-2,2v64.2c0,1.1.9,2,2,2h12.1l-2.5,5c-.5,1,0,2.2.9,2.7.3.1.6.2.9.2.7,0,1.4-.4,1.8-1.1l3.4-6.8h59.1l3.4,6.8c.4.7,1.1,1.1,1.8,1.1s.6,0,.9-.2c1-.5,1.4-1.7.9-2.7l-2.5-5h14.6c1.1,0,2-.9,2-2V37.8c0-1.1-.9-2-2-2ZM268.6,31.9c1.3,0,2.6.5,3.6,1.2.1.1.2.2.3.3,0,0,0,0,0,0,.7.6,1.3,1.5,1.6,2.4h-11.1c.8-2.3,3-3.9,5.5-3.9ZM314,100h-90.9v-60.2h90.9v60.2Z"/>
    <path class="cls-1" d="M308.3,81.1h-8.2c-1.1,0-2,.9-2,2s.9,2,2,2h8.2c1.1,0,2-.9,2-2s-.9-2-2-2Z"/>
    <path class="cls-1" d="M308.3,90.1h-8.2c-1.1,0-2,.9-2,2s.9,2,2,2h8.2c1.1,0,2-.9,2-2s-.9-2-2-2Z"/>
    <path class="cls-1" d="M229,47.7v44.4c0,1.1.9,2,2,2h61.2c1.1,0,2-.9,2-2v-44.4c0-1.1-.9-2-2-2h-61.2c-1.1,0-2,.9-2,2ZM233.1,49.8h57.2v40.4h-57.2v-40.4Z"/>
    <path class="cls-1" d="M299.2,52.5h1.6c1.1,0,2-.9,2-2s-.9-2-2-2h-1.6c-1.1,0-2,.9-2,2s.9,2,2,2Z"/>
    <path class="cls-1" d="M307.5,52.5h1.7c1.1,0,2-.9,2-2s-.9-2-2-2h-1.7c-1.1,0-2,.9-2,2s.9,2,2,2Z"/>
    <path class="cls-1" d="M299.2,60.4h1.6c1.1,0,2-.9,2-2s-.9-2-2-2h-1.6c-1.1,0-2,.9-2,2s.9,2,2,2Z"/>
    <path class="cls-1" d="M307.5,60.4h1.7c1.1,0,2-.9,2-2s-.9-2-2-2h-1.7c-1.1,0-2,.9-2,2s.9,2,2,2Z"/>
    <path class="cls-1" d="M299.2,68.3h1.6c1.1,0,2-.9,2-2s-.9-2-2-2h-1.6c-1.1,0-2,.9-2,2s.9,2,2,2Z"/>
    <path class="cls-1" d="M307.5,68.3h1.7c1.1,0,2-.9,2-2s-.9-2-2-2h-1.7c-1.1,0-2,.9-2,2s.9,2,2,2Z"/>
    <path class="cls-1" d="M251.2,56.7h-4.1c-4.4,0-8,3.6-8,8v16.6c0,1.1.9,2,2,2s2-.9,2-2v-7.4h12v7.4c0,1.1.9,2,2,2s2-.9,2-2v-16.6c0-4.4-3.6-8-8-8ZM243.1,69.8v-5.1c0-2.2,1.8-3.9,3.9-3.9h4.1c2.2,0,3.9,1.8,3.9,3.9v5.1h-12Z"/>
    <path class="cls-1" d="M280.2,56.7h-14c-1.1,0-2,.9-2,2v22.5c0,1.1.9,2,2,2h14c2.2,0,4.1-1.8,4.1-4.1v-18.4c0-2.2-1.8-4.1-4.1-4.1ZM280.2,79.2h-12v-18.5h12s0,18.5,0,18.5Z"/>
  </g>
  <circle class="cls-1" cx="126" cy="62.5" r="3.4"/>
  <circle class="cls-1" cx="143" cy="62.5" r="3.4"/>
  <circle class="cls-1" cx="159.9" cy="62.5" r="3.4"/>
  <circle class="cls-1" cx="159.9" cy="62.5" r="3.4"/>
  <circle class="cls-1" cx="176.9" cy="62.5" r="3.4"/>
  <circle class="cls-1" cx="176.9" cy="62.5" r="3.4"/>
  <circle class="cls-1" cx="193.9" cy="62.5" r="3.4"/>
  <circle class="cls-1" cx="193.9" cy="62.5" r="3.4"/>
  <circle class="cls-1" cx="117.5" cy="283.6" r="3.4"/>
  <circle class="cls-1" cx="134.5" cy="283.6" r="3.4"/>
  <circle class="cls-1" cx="151.5" cy="283.6" r="3.4"/>
  <circle class="cls-1" cx="151.5" cy="283.6" r="3.4"/>
  <circle class="cls-1" cx="168.4" cy="283.6" r="3.4"/>
  <circle class="cls-1" cx="168.4" cy="283.6" r="3.4"/>
  <circle class="cls-1" cx="185.4" cy="283.6" r="3.4"/>
  <circle class="cls-1" cx="185.4" cy="283.6" r="3.4"/>
  <circle class="cls-1" cx="49.6" cy="182.2" r="3.4"/>
  <circle class="cls-1" cx="66.6" cy="182.2" r="3.4"/>
  <circle class="cls-1" cx="83.5" cy="182.2" r="3.4"/>
  <circle class="cls-1" cx="100.5" cy="182.2" r="3.4"/>
  <circle class="cls-1" cx="117.5" cy="182.2" r="3.4"/>
  <circle class="cls-1" cx="346.7" cy="62.5" r="3.4"/>
  <circle class="cls-1" cx="363.7" cy="62.5" r="3.4"/>
  <circle class="cls-1" cx="380.7" cy="62.5" r="3.4"/>
  <circle class="cls-1" cx="380.7" cy="62.5" r="3.4"/>
  <circle class="cls-1" cx="397.7" cy="62.5" r="3.4"/>
  <circle class="cls-1" cx="397.7" cy="62.5" r="3.4"/>
  <circle class="cls-1" cx="414.6" cy="62.5" r="3.4"/>
  <circle class="cls-1" cx="414.6" cy="62.5" r="3.4"/>
  <circle class="cls-1" cx="338.2" cy="283.3" r="3.4"/>
  <circle class="cls-1" cx="355.2" cy="283.3" r="3.4"/>
  <circle class="cls-1" cx="372.2" cy="283.3" r="3.4"/>
  <circle class="cls-1" cx="372.2" cy="283.3" r="3.4"/>
  <circle class="cls-1" cx="389.2" cy="283.3" r="3.4"/>
  <circle class="cls-1" cx="389.2" cy="283.3" r="3.4"/>
  <circle class="cls-1" cx="49.6" cy="216.1" r="3.4"/>
  <circle class="cls-1" cx="49.6" cy="199.1" r="3.4"/>
  <circle class="cls-1" cx="491.1" cy="148.1" r="3.4"/>
  <circle class="cls-1" cx="491.1" cy="182.2" r="3.4"/>
  <circle class="cls-1" cx="491.1" cy="165.1" r="3.4"/>
  <circle class="cls-1" cx="134.5" cy="182.2" r="3.4"/>
  <circle class="cls-1" cx="151.5" cy="182.2" r="3.4"/>
  <circle class="cls-1" cx="168.4" cy="182.2" r="3.4"/>
  <circle class="cls-1" cx="185.4" cy="182.2" r="3.4"/>
  <circle class="cls-1" cx="185.4" cy="182.2" r="3.4"/>
  <circle class="cls-1" cx="202.4" cy="182.2" r="3.4"/>
  <circle class="cls-1" cx="219.4" cy="182.2" r="3.4"/>
  <circle class="cls-1" cx="236.4" cy="182.2" r="3.4"/>
  <circle class="cls-1" cx="253.3" cy="182.2" r="3.4"/>
  <circle class="cls-1" cx="270.3" cy="182.2" r="3.4"/>
  <circle class="cls-1" cx="287.3" cy="182.2" r="3.4"/>
  <circle class="cls-1" cx="304.3" cy="182.2" r="3.4"/>
  <circle class="cls-1" cx="321.3" cy="182.2" r="3.4"/>
  <circle class="cls-1" cx="338.2" cy="182.2" r="3.4"/>
  <circle class="cls-1" cx="355.2" cy="182.2" r="3.4"/>
  <circle class="cls-1" cx="372.2" cy="182.2" r="3.4"/>
  <circle class="cls-1" cx="389.2" cy="182.2" r="3.4"/>
  <circle class="cls-1" cx="406.2" cy="182.2" r="3.4"/>
  <circle class="cls-1" cx="423.1" cy="182.2" r="3.4"/>
  <circle class="cls-1" cx="440.1" cy="182.2" r="3.4"/>
  <circle class="cls-1" cx="457.1" cy="182.2" r="3.4"/>
  <circle class="cls-1" cx="457.1" cy="182.2" r="3.4"/>
  <circle class="cls-1" cx="474.1" cy="182.2" r="3.4"/>
  <g>
    <path class="cls-1" d="M525,56.1c-.7-23.3-20.1-41.9-43.4-41.6-23.1.3-42,19.3-42.2,42.4l-9.8,22.7c-.6,1.3-.6,2.7.2,3.9.7,1.2,2,2,3.5,2h10.9l3.6,18.2c.6,3.2,3.6,5.4,6.9,5l14-1.7v12.6c0,1.1.9,1.9,1.9,1.9h38.4c1.1,0,1.9-.9,1.9-1.9v-30.3c9.5-8.4,14.7-20.5,14.3-33.2ZM507.5,87.1c-.4.4-.7.9-.7,1.5v29.2h-34.5v-12.8c0-.5-.2-1.1-.6-1.4-.4-.4-1-.5-1.5-.5l-16.2,2c-1.2.2-2.4-.7-2.6-1.9l-3.9-19.8c-.2-.9-1-1.5-1.9-1.5h-12.4s-.1,0-.2-.1,0-.2,0-.2c0,0,0,0,0-.1l10-23.1c.1-.2.2-.5.2-.8,0-21.2,17.2-38.7,38.4-39,21.2-.3,39,16.7,39.6,37.9.3,11.9-4.6,23.1-13.7,30.8Z"/>
    <path class="cls-1" d="M506.5,58.7c-.1,0-.2,0-.4,0l-5.5-14c1.3-1.1,2.2-2.8,2.2-4.7,0-3.4-2.7-6.1-6.1-6.1s-4.2,1.2-5.2,3l-11.3-2.5c-.3-3.1-2.9-5.5-6.1-5.5s-6.1,2.7-6.1,6.1.4,2.5,1.1,3.5l-6.2,8.4c-.6-.2-1.2-.3-1.9-.3-3.4,0-6.1,2.7-6.1,6.1s2.7,6.1,6.1,6.1,6.1-2.7,6.1-6.1-.4-2.5-1.1-3.5l6.2-8.4c.6.2,1.2.3,1.9.3s.1,0,.2,0l4.3,11.6c-1.4,1.1-2.3,2.8-2.3,4.8s1.8,5,4.2,5.8v12.7c-2.4.8-4.2,3.1-4.2,5.8s2.7,6.1,6.1,6.1.7,0,1,0l11.6,21.8c.3.6,1,1,1.7,1s.6,0,.9-.2c.9-.5,1.3-1.7.8-2.6l-11.6-21.8c1.1-1.1,1.7-2.6,1.7-4.2,0-2.7-1.8-5-4.2-5.8v-12.7c1.3-.4,2.3-1.2,3.1-2.3l13,3.9c0,3.3,2.8,6,6.1,6s6.1-2.7,6.1-6.1-2.7-6.1-6.1-6.1ZM502.6,60.1c-.4.3-.8.7-1.1,1.2l-13-3.9c0-1.1-.4-2.2-.9-3.1l7-8.5c.7.3,1.4.4,2.2.4s.2,0,.4,0l5.5,14ZM477.8,39.8c.6-.5,1.1-1,1.4-1.6l11.3,2.5c0,1,.4,1.9.9,2.7l-7,8.5c-.7-.3-1.4-.4-2.2-.4s-.1,0-.2,0l-4.3-11.6Z"/>
  </g>
  <g>
    <path class="cls-1" d="M495.2,314.8c-6.3,3.5-13.8,5.3-21.3,6.2v-1.9h-20.2v2.8c-13.3-.2-26.3-1.8-34.2-9.7-5.6-5.6-8.4-14-8.4-25.5,13.6,37.3,42.4,32.7,67.2,25.1,13.9-4.3,27.5-9.8,34.4-20.8-2.7,11-8.5,18.8-17.5,23.8M526.8,273.6l-9.3.6c.1-4.8-.6-10.1-2.2-16.3-9.9-37.4-36.5-36.1-62.3-30.8-25.8,5.3-53,15-44.5,50.6l-6.1.4v10.5l4-.2c.3,12.1,3.5,21,9.8,27.2,9.1,9.1,23.3,10.9,37.6,11.1v8.8l-20.6,2.5v22.3h4.8c0-.1-7,9.9-7,9.9-.7-.1-1.5-.2-2.3-.2-4.2,0-7.7,1.6-7.7,3.6s3.5,3.6,7.7,3.6,7.7-1.6,7.7-3.6-1.5-2.5-3.8-3.1l13.7-10.5,10.6-.2.8,4c-2.7.2-4.8,1.4-4.8,2.7s2.6,2.7,5.9,2.7,5.9-1.2,5.9-2.7-2.3-2.5-5.2-2.7l1.2-4.1,25.3-.5c2.8,5.6,6.5,13.4,8.9,18.3-3.2.7-5.4,2.4-5.4,4.4s3.7,4.7,8.2,4.7,8.2-2.1,8.2-4.7-3.7-4.7-8.2-4.7-.7,0-1.1,0l-2.2-18.3,11.7-.3v-29.6l-32,3.9v-7.2c21.4-2.5,40.2-11.3,44.5-38.8l7.6-.4.8-13.1Z"/>
    <path class="cls-1" d="M542.4,323.5c1.3,3.8-7.2,11.1-15.2,15.8l-19.7-10.2,1.8,29.6,11.7-1.1,1.2,6.4c-3.8.2-6.7,1.6-6.7,3.4s3.4,3.4,7.7,3.4,7.7-1.5,7.7-3.4-3.1-3.3-7.1-3.4l2-6.8,4-.4v-12.1c4-2.1,10.5-6,12.7-9.8,3.3-5.6-.1-11.5-.1-11.5"/>
    <path class="cls-4" d="M425,244.4c-11.7,7.4-18.2,19.2-11.4,39.6,0,0,0,.2,0,.3h11.3v-39.9Z"/>
    <path class="cls-11" d="M440.7,284.3v-46.8c-5.7,1.8-11.1,4-15.7,6.9v39.9h15.7Z"/>
    <path class="cls-12" d="M456.4,284.3v-50.8c-.5.1-.9.2-1.4.3-4.8,1-9.6,2.2-14.3,3.7v46.8h15.7Z"/>
    <path class="cls-5" d="M472.1,284.3v-53.2c-5.1.4-10.4,1.3-15.7,2.4v50.8h15.7Z"/>
    <path class="cls-3" d="M487.8,284.3v-52.5c-4.9-1-10.2-1.2-15.7-.7v53.2h15.7Z"/>
    <path class="cls-13" d="M503.5,284.3v-43.9c-4.4-4.6-9.8-7.3-15.7-8.5v52.5h15.7Z"/>
    <path class="cls-2" d="M503.5,240.4v43.9h7.8c3.5-6.4,4.5-14.8,1.5-25.8-2.1-8-5.4-13.9-9.4-18.2"/>
    <path class="cls-2" d="M425,284.3h-11.3c.9,2.5,1.8,4.8,2.8,6.8h8.4v-6.8Z"/>
    <polygon class="cls-10" points="425 284.3 425 291.2 428.4 291.2 440.7 291.2 440.7 284.3 425 284.3"/>
    <polygon class="cls-3" points="440.7 291.1 447.5 291.1 456.4 291.1 456.4 284.3 440.7 284.3 440.7 291.1"/>
    <rect class="cls-12" x="472.1" y="284.3" width="15.7" height="6.8"/>
    <path class="cls-4" d="M503.5,291.1h2.6c2.1-2,3.9-4.3,5.3-6.8h-7.8v6.8Z"/>
    <path class="cls-8" d="M425,291.1h-8.4c3.2,6.5,7.3,11.1,11.9,14.1v-14.1h-3.4Z"/>
    <path class="cls-9" d="M440.7,291.1h-12.3v14.1c5.7,3.8,12.2,5.3,19.1,5.4v-19.6h-6.8Z"/>
    <path class="cls-7" d="M456.4,291.1h-8.9v19.6c6.2.1,12.7-.9,19.1-2.4v-17.2h-10.2Z"/>
    <path class="cls-10" d="M487.8,291.1v10.7c1.6-.6,3.2-1.3,4.8-2v-8.7h-4.8Z"/>
    <path class="cls-10" d="M503.5,284.3h-15.7v6.8h4.8v8.7c5.1-2.3,9.8-5.1,13.5-8.7h-2.6v-6.8Z"/>
    <path class="cls-6" d="M472.1,291.1v-6.8h-15.7v6.8h10.2v17.2c3.3-.8,6.7-1.7,9.9-2.7,3.8-1.1,7.6-2.4,11.3-3.8v-10.7h-15.7Z"/>
  </g>
</svg>