<?xml version="1.0" encoding="UTF-8"?>
<svg id="Isolation_Mode" data-name="Isolation Mode" xmlns="http://www.w3.org/2000/svg" version="1.1" viewBox="0 0 270 140">
  <defs>
    <style>
      .cls-1 {
        fill: #000;
        stroke-width: 0px;
      }
    </style>
  </defs>
  <g>
    <path class="cls-1" d="M38.1,37.7l-6,17.8h11.6l-5.6-17.8ZM51.1,79l-3.1-9.9h-20.5l-3.3,9.9H7.2L31.4,12.5h12.6l24.2,66.6h-17.1Z"/>
    <path class="cls-1" d="M119.5,79.6c-7.8,0-13.6-2.6-18.5-7.5-7-7-6.7-16.4-6.7-26.4s-.3-19.3,6.7-26.4c4.9-4.8,10.7-7.5,18.5-7.5,12.6,0,22.8,7,25.2,21.7h-16.6c-1-3.7-3.1-7.1-8.5-7.1s-5.2,1.2-6.5,2.8c-1.5,2-2.5,4.3-2.5,16.4s1,14.5,2.5,16.5c1.2,1.6,3.5,2.8,6.5,2.8,5.4,0,7.5-3.4,8.5-7.1h16.6c-2.4,14.7-12.6,21.7-25.2,21.7"/>
    <polygon class="cls-1" points="179.5 79 179.5 12.5 224.8 12.5 224.8 27 195.9 27 195.9 38.2 219.6 38.2 219.6 52.8 195.9 52.8 195.9 64.4 224.8 64.4 224.8 79 179.5 79"/>
  </g>
  <g>
    <path class="cls-1" d="M37.8,128.6v-14.4c0-3.7-2.1-5.3-4.8-5.3s-4.9,1.6-4.9,5.1v14.7h-4.8v-14.4c0-3.7-2.1-5.3-4.8-5.3s-4.9,1.6-4.9,5.3v14.4h-4.8v-23.7h4.7v2.4c1.6-1.7,3.9-2.7,6.3-2.7s5.2,1.2,6.7,3.5c1.9-2.4,4.3-3.5,7.4-3.5s4.6.8,6,2.1c1.8,1.8,2.5,4,2.5,6.7v15.1h-4.8Z"/>
    <path class="cls-1" d="M77.3,111.6c-.7-1.8-2.4-3-4.7-3s-4,1.2-4.7,3c-.5,1.1-.6,1.8-.6,3.2h10.7c0-1.4-.2-2.1-.7-3.2M67.3,118.1c0,4.1,2.2,6.6,6,6.6s4.1-.8,5.7-2.4l3,2.9c-2.4,2.4-4.7,3.7-8.9,3.7-5.9,0-10.7-3.1-10.7-12.2s4-12.1,10-12.1,10.1,4.7,10.1,11.4v2.1h-15.4Z"/>
    <path class="cls-1" d="M112.8,128.6c-4.4,0-6.5-3.2-6.5-6.6v-13h-2.7v-3.7h2.7v-7.2h4.8v7.2h4.6v3.7h-4.6v12.8c0,1.7.8,2.8,2.6,2.8h2v4.1h-2.8Z"/>
    <path class="cls-1" d="M154.4,110.4c-1.1-1.1-1.9-1.6-3.6-1.6-2.6,0-4.7,2.1-4.7,5.3v14.4h-4.8v-23.7h4.7v2.6c1.2-1.7,3.6-2.8,6.3-2.8s4,.6,5.6,2.3l-3.6,3.6Z"/>
    <path class="cls-1" d="M178.7,104.9h4.8v23.7h-4.8v-23.7ZM178.6,95.2h5v5h-5v-5Z"/>
    <polygon class="cls-1" points="221.7 128.6 216.8 120.5 211.8 128.6 206 128.6 214.2 116.5 206.4 104.9 212.1 104.9 216.8 112.6 221.4 104.9 227.2 104.9 219.4 116.5 227.5 128.6 221.7 128.6"/>
    <path class="cls-1" d="M247.4,127.6c-3.4,0-6.1-2.7-6.1-6.1s2.8-6.1,6.1-6.1,6.1,2.8,6.1,6.1-2.8,6.1-6.1,6.1M247.4,114.4c-3.9,0-7.1,3.2-7.1,7.1s3.2,7.1,7.1,7.1,7.1-3.2,7.1-7.1-3.2-7.1-7.1-7.1"/>
    <path class="cls-1" d="M247.6,121.2h-1.6v-2.5h1.6c1.2,0,1.7.4,1.7,1.3s-1,1.2-1.7,1.2M249.2,125h1.1l-2-3.1h.2c1.2-.2,1.7-.8,1.7-1.9s-.7-1.9-2.4-1.9h-2.6v7h.9v-3.1h1.3c0,0,1.9,3.1,1.9,3.1Z"/>
  </g>
</svg>