<svg width="57" height="60" viewBox="0 0 57 60" fill="none" xmlns="http://www.w3.org/2000/svg">
<path d="M49.7688 59.7694H6.84821C3.40122 59.7694 0.510193 56.9905 0.510193 53.4334V8.63678C0.510193 5.19088 3.29003 2.30078 6.84821 2.30078H49.7688C53.2157 2.30078 56.1067 5.07973 56.1067 8.63678V53.4334C56.1067 56.8793 53.3269 59.7694 49.7688 59.7694ZM6.95944 5.30204C5.06916 5.30204 3.51242 6.85824 3.51242 8.74793V53.5446C3.51242 55.4342 5.06916 56.9905 6.95944 56.9905H49.8799C51.7702 56.9905 53.3269 55.4342 53.3269 53.5446V8.74793C53.3269 6.85824 51.7702 5.30204 49.8799 5.30204H6.95944Z" fill="white"/>
<path d="M54.6612 12.8608H2.06693V15.7509H54.6612V12.8608Z" fill="white"/>
<path d="M28.4197 51.7659C24.4167 51.7659 20.525 50.2097 17.4115 47.2084C14.5205 44.3183 12.8527 40.4278 12.8527 36.2038C12.8527 31.9798 14.5205 28.2004 17.4115 25.1992C23.416 19.1966 33.3122 19.1966 39.3166 25.1992C42.2076 28.0893 43.8755 31.9798 43.8755 36.2038C43.8755 40.4278 42.2076 44.2072 39.3166 47.2084C36.3144 50.2097 32.3114 51.7659 28.3085 51.7659H28.4197ZM28.4197 23.7541C25.1951 23.7541 21.9705 24.9768 19.5242 27.4223C17.1892 29.7566 15.8549 32.9802 15.8549 36.3149C15.8549 39.6497 17.1892 42.8733 19.5242 45.2076C24.4167 50.0985 32.4226 50.0985 37.4263 45.2076C39.7613 42.8733 41.0956 39.6497 41.0956 36.3149C41.0956 32.9802 39.7613 29.7566 37.4263 27.4223C34.98 24.9768 31.7554 23.7541 28.5309 23.7541H28.4197Z" fill="white"/>
<path d="M32.089 41.9839L26.9742 36.8707V26.8665H29.8652V35.7591L34.0905 39.9831L32.089 41.9839Z" fill="white"/>
<path d="M15.7437 0.188721H12.8527V7.96977H15.7437V0.188721Z" fill="white"/>
<path d="M43.8755 0.188721H40.9845V7.96977H43.8755V0.188721Z" fill="white"/>
</svg>
