<svg width="65" height="64" viewBox="0 0 65 64" fill="none" xmlns="http://www.w3.org/2000/svg">
<path d="M32.163 0.522461C14.8169 0.522461 0.695396 14.6395 0.695396 31.9801C0.695396 49.3208 14.8169 63.4378 32.163 63.4378C49.5092 63.4378 63.6306 49.3208 63.6306 31.9801C63.6306 14.6395 49.5092 0.522461 32.163 0.522461ZM32.163 2.74562C32.8302 2.74562 33.4973 2.74562 34.1645 2.74562C36.3884 4.85762 38.2786 8.0812 39.8354 11.9717C38.3898 12.7498 37.3891 14.0837 37.0555 15.6399H23.49C25.0467 10.082 27.4929 5.52458 30.3839 2.63447C30.9399 2.63447 31.6071 2.63447 32.163 2.63447V2.74562ZM27.1594 3.19026C24.6019 6.41384 22.6004 10.749 21.2661 15.7511H7.81174C12.1483 9.19279 19.1535 4.52416 27.1594 3.19026ZM37.5003 3.19026C45.395 4.63531 52.289 9.30395 56.5143 15.7511H47.6189C47.0629 13.3056 44.9502 11.4159 42.2816 11.4159C39.6129 11.4159 41.948 11.4159 41.8368 11.4159C40.6137 8.19236 39.1682 5.41342 37.3891 3.19026H37.5003ZM42.3928 13.5279C44.1719 13.5279 45.6174 14.973 45.6174 16.7515C45.6174 18.53 44.1719 19.9751 42.3928 19.9751C40.6137 19.9751 39.1682 18.53 39.1682 16.7515C39.1682 14.973 40.6137 13.5279 42.3928 13.5279ZM6.47745 17.8631H20.7101C20.043 20.642 19.5982 23.6433 19.3758 26.6446C17.2632 27.0892 15.5953 28.7566 15.1505 30.8686H2.91926C3.14164 26.1999 4.36478 21.7536 6.47745 17.8631ZM22.934 17.8631H37.0555C37.6115 20.3086 39.7241 22.1982 42.3928 22.1982C45.0614 22.1982 42.3928 22.1982 42.504 22.1982C42.9487 24.9772 43.1711 27.8673 43.2823 30.8686H25.825C25.3803 28.7566 23.7124 27.0892 21.5997 26.6446C21.8221 23.5321 22.378 20.642 23.0452 17.8631H22.934ZM47.7301 17.8631H57.8486C59.9613 21.7536 61.2956 26.1999 61.4068 30.8686H45.395C45.395 27.7561 45.0614 24.6437 44.6166 21.6425C46.1733 20.9755 47.2853 19.5305 47.6189 17.7519L47.7301 17.8631ZM20.4878 28.7566C22.2669 28.7566 23.7124 30.2016 23.7124 31.9801C23.7124 33.7587 22.2669 35.2037 20.4878 35.2037H19.9318C18.3751 34.8703 17.2631 33.5364 17.2631 31.9801C17.2631 30.4239 18.7087 28.7566 20.4878 28.7566ZM2.91926 33.0917H15.1505C15.5953 35.2037 17.2632 36.8711 19.3758 37.3157C19.5982 40.4282 20.043 43.3182 20.7101 46.0972H6.47745C4.36478 42.2067 3.03045 37.7604 2.91926 33.0917ZM25.825 33.0917H43.2823C43.2823 36.093 42.9487 38.9831 42.504 41.762C42.504 41.762 42.504 41.762 42.3928 41.762C39.8353 41.762 37.6115 43.6517 37.0555 46.0972H22.934C22.2668 43.3182 21.8221 40.4282 21.4885 37.3157C23.6012 36.8711 25.2691 35.2037 25.7138 33.0917H25.825ZM45.5062 33.0917H61.518C61.2956 37.7604 60.0725 42.2067 57.9598 46.0972H47.8412C47.5076 44.4298 46.2845 42.9848 44.839 42.2067C45.2838 39.3166 45.6174 36.2042 45.6174 32.9806L45.5062 33.0917ZM42.3928 43.874C44.1719 43.874 45.6174 45.3191 45.6174 47.0976C45.6174 48.8762 44.1719 50.3212 42.3928 50.3212C40.6137 50.3212 39.1682 48.8762 39.1682 47.0976C39.1682 45.3191 40.6137 43.874 42.3928 43.874ZM7.81174 48.2092H21.2661C22.6004 53.2113 24.6019 57.5465 27.1594 60.7701C19.1535 59.4362 12.1483 54.7675 7.81174 48.2092ZM23.6012 48.2092H37.1667C37.5003 49.8766 38.501 51.2105 39.9466 51.8774C38.3898 55.7679 36.4996 58.9915 34.2757 61.1035C33.6085 61.1035 32.9414 61.1035 32.2742 61.1035C31.607 61.1035 31.0511 61.1035 30.4951 61.1035C27.6041 58.3246 25.2691 53.7671 23.6012 48.098V48.2092ZM47.7301 48.2092H56.6255C52.289 54.6564 45.5062 59.325 37.6115 60.7701C39.3906 58.5469 40.8361 55.7679 42.0592 52.5444C42.1704 52.5444 42.2816 52.5444 42.504 52.5444C45.0614 52.5444 47.2853 50.6547 47.8412 48.2092H47.7301Z" fill="white"/>
<path d="M32.1631 63.8825C14.5946 63.8825 0.250641 49.5431 0.250641 31.9802C0.250641 14.4172 14.5946 0.0778809 32.1631 0.0778809C49.7316 0.0778809 64.0754 14.4172 64.0754 31.9802C64.0754 49.5431 49.7316 63.8825 32.1631 63.8825ZM32.1631 1.0783C15.0393 1.0783 1.14017 14.973 1.14017 32.0914C1.14017 49.2097 15.0393 63.1044 32.1631 63.1044C49.2868 63.1044 63.1859 49.2097 63.1859 32.0914C63.1859 14.973 49.2868 1.0783 32.1631 1.0783ZM32.1631 61.7705C31.6071 61.7705 30.9399 61.7705 30.384 61.7705H30.1616L30.0504 61.6593C27.1593 58.8804 24.7131 54.2118 23.0452 48.5427L22.8228 47.8758H37.3891V48.2093C37.7227 49.6543 38.7234 50.877 40.0577 51.544L40.3913 51.7663V52.2109C38.7234 56.2126 36.7219 59.4362 34.4981 61.6593H34.3869C34.3869 61.7705 34.1645 61.7705 34.1645 61.7705C33.4974 61.7705 32.719 61.7705 32.0519 61.7705H32.1631ZM30.6063 60.7701C31.7183 60.7701 32.8302 60.7701 33.9421 60.7701C35.9436 58.7693 37.7227 55.768 39.1682 52.2109C37.9451 51.4328 36.9444 50.2101 36.6108 48.765H24.0459C25.6026 53.8783 27.9377 58.2135 30.4952 60.7701H30.6063ZM28.3825 61.5482L27.1594 61.3259C19.1535 59.992 12.0371 55.3234 7.47819 48.5427L6.92222 47.7646H21.5997V48.0981C23.0452 53.1002 25.0467 57.4353 27.4929 60.5478L28.2713 61.5482H28.3825ZM8.81252 48.765C12.9267 54.5453 19.1535 58.6581 26.0474 60.1031C23.9348 57.1019 22.1557 53.2114 20.9326 48.765H8.81252ZM36.3884 61.5482L37.1667 60.5478C38.8346 58.4358 40.3913 55.6568 41.6145 52.4333V52.0998C41.7257 52.0998 42.0592 52.0998 42.0592 52.0998C42.1704 52.0998 42.2816 52.0998 42.3928 52.0998C44.7278 52.0998 46.7293 50.4324 47.2853 48.0981V47.7646H57.515L56.9591 48.5427C52.5114 55.2122 45.395 59.8808 37.6115 61.3259L36.3884 61.5482ZM42.2816 53.1002C41.2809 55.768 40.0577 58.1023 38.6122 60.1031C45.395 58.5469 51.5106 54.4341 55.6248 48.765H48.0636C47.3965 51.3217 44.9502 53.2113 42.2816 53.1002ZM42.3928 50.877C40.2801 50.877 38.6122 49.2097 38.6122 47.0977C38.6122 44.9857 40.2801 43.3183 42.3928 43.3183C44.5055 43.3183 46.1733 44.9857 46.1733 47.0977C46.1733 49.2097 44.5055 50.877 42.3928 50.877ZM42.3928 44.4299C40.8361 44.4299 39.613 45.6526 39.613 47.2088C39.613 48.765 40.8361 49.9878 42.3928 49.9878C43.9495 49.9878 45.1726 48.765 45.1726 47.2088C45.1726 45.6526 43.9495 44.4299 42.3928 44.4299ZM58.1822 46.5419H47.2853V46.2084C46.8405 44.6522 45.8398 43.4295 44.3943 42.7625H44.0607C44.0607 42.6513 44.0607 42.2067 44.0607 42.2067C44.5055 39.2055 44.8391 36.2042 44.8391 33.0918V32.6471H61.8516V33.0918C61.6292 37.7604 60.4061 42.2067 58.1822 46.3196V46.5419ZM48.0636 45.6526H57.515C59.5165 41.8732 60.6285 37.8716 60.8508 33.6476H45.8398C45.8398 36.5377 45.5062 39.3166 45.0614 42.0956C46.5069 42.8737 47.5077 44.2076 47.9524 45.7638L48.0636 45.6526ZM37.5003 46.5419H22.6004V46.2084C21.8221 43.4295 21.3773 40.4282 21.1549 37.3158V36.8712H21.4885C23.3788 36.4265 24.9355 34.9815 25.3803 32.9806V32.6471H43.8383V33.0918C43.8383 36.093 43.5047 38.9832 43.06 41.8733V42.3179H42.3928C40.0577 42.3179 38.0563 43.9853 37.5003 46.3196V46.653V46.5419ZM23.3788 45.6526H36.7219C37.3891 43.2071 39.613 41.4286 42.1704 41.3175C42.504 38.7608 42.7264 36.2042 42.8376 33.6476H26.2698C25.7138 35.6484 24.1572 37.2046 22.1557 37.7604C22.3781 40.5393 22.8228 43.2071 23.3788 45.6526ZM21.3773 46.5419H6.25506V46.3196C3.92 42.2067 2.69689 37.7604 2.4745 33.0918V32.6471H15.5953V32.9806C16.04 34.8703 17.5967 36.4265 19.487 36.8712H19.8206V37.3158C20.043 40.317 20.4878 43.3183 21.1549 45.9861V46.5419H21.3773ZM6.81102 45.6526H20.1542C19.5982 43.096 19.2646 40.4282 18.9311 37.7604C16.9296 37.2046 15.3729 35.6484 14.8169 33.6476H3.47523C3.69762 37.8716 4.80955 41.9844 6.81102 45.6526ZM20.4878 35.7596H19.8206C18.0415 35.4261 16.7072 33.8699 16.7072 31.9802C16.7072 30.0905 18.2639 28.312 20.3766 28.2008C22.4893 28.2008 24.0459 29.8682 24.0459 31.9802C24.0459 34.0922 22.3781 35.7596 20.2654 35.7596H20.4878ZM20.4878 28.7566V29.2012C18.9311 29.2012 17.708 30.424 17.708 31.9802C17.708 33.5364 18.7087 34.4257 20.043 34.7591H20.599C22.1557 34.7591 23.3788 33.5364 23.3788 31.9802C23.3788 30.424 22.1557 29.2012 20.599 29.2012V28.7566H20.4878ZM61.9628 31.4244H44.9502V30.9798C44.9502 27.8674 44.6167 24.8661 44.1719 21.8648V21.5314L44.3943 21.4202C45.8398 20.7532 46.8405 19.4194 47.1741 17.9743V17.6408H58.071V17.8631C60.4061 21.976 61.6292 26.4223 61.8516 31.0909V31.5356L61.9628 31.4244ZM45.951 30.424H60.962C60.7397 26.2 59.6277 22.0871 57.6262 18.4189H48.1748C47.7301 19.9751 46.7293 21.309 45.2838 22.0871C45.7286 24.8661 45.951 27.645 46.0622 30.5351L45.951 30.424ZM43.8383 31.4244H25.4915V31.0909C25.0467 29.2012 23.49 27.645 21.5997 27.2004H21.1549V26.6446C21.3773 23.6433 21.9333 20.6421 22.6004 17.752V17.4185H37.6115V17.752C38.1675 20.0863 40.1689 21.7537 42.504 21.7537H43.06V22.1983C43.5047 25.0884 43.7271 27.9785 43.8383 30.9798V31.4244ZM26.1586 30.424H42.7264C42.7264 27.7562 42.3928 25.1996 42.0592 22.7541C39.5018 22.6429 37.2779 20.8644 36.6108 18.4189H23.2676C22.7116 20.9756 22.2669 23.6434 22.0445 26.3112C24.046 26.8669 25.6026 28.4231 26.1586 30.424ZM15.5953 31.4244H2.4745V30.9798C2.69689 26.3111 3.92 21.8648 6.14386 17.752V17.5297H21.3773V18.0855C20.599 20.8644 20.1542 23.7545 19.9318 26.7558V27.0893H19.5982C17.7079 27.5339 16.1512 28.9789 15.7065 30.9798V31.3133L15.5953 31.4244ZM3.47523 30.424H14.8169C15.3729 28.4231 16.9296 26.8669 18.9311 26.3112C19.1534 23.5322 19.5982 20.9756 20.1542 18.4189H6.81102C4.80955 22.1983 3.69762 26.2 3.47523 30.424ZM42.3928 20.5309C40.2801 20.5309 38.6122 18.8636 38.6122 16.7516C38.6122 14.6396 40.2801 12.9722 42.3928 12.9722C44.5055 12.9722 46.1733 14.6396 46.1733 16.7516C46.1733 18.8636 44.5055 20.5309 42.3928 20.5309ZM42.3928 14.0838C40.8361 14.0838 39.613 15.3065 39.613 16.8627C39.613 18.4189 40.8361 19.6417 42.3928 19.6417C43.9495 19.6417 45.1726 18.4189 45.1726 16.8627C45.1726 15.3065 43.9495 14.0838 42.3928 14.0838ZM57.515 16.1958H47.3965V15.8623C46.8405 13.528 44.839 11.8606 42.504 11.8606C40.1689 11.8606 42.2816 11.8606 42.1704 11.8606H41.8368L41.7256 11.5271C40.5025 8.30357 39.057 5.63578 37.2779 3.41262L36.4996 2.4122L37.7227 2.63452C45.6174 4.07957 52.6226 8.7482 57.0703 15.4177L57.6262 16.1958H57.515ZM48.0636 15.1954H55.6248C51.5106 9.52631 45.395 5.41345 38.6122 3.85724C39.9466 5.85808 41.1697 8.1924 42.2816 10.8602C44.9502 10.8602 47.3965 12.6387 48.0636 15.1954ZM37.5003 16.1958H22.934L23.1564 15.5288C24.8243 9.85977 27.2705 5.19115 30.1616 2.4122H30.2728C30.2728 2.30105 30.4952 2.30104 30.4952 2.30104C31.7183 2.30104 33.0526 2.30104 34.3869 2.30104H34.6093L34.7205 2.4122C36.9443 4.63536 38.9458 7.85894 40.5025 11.8606V12.3052C40.6137 12.3052 40.2801 12.5276 40.2801 12.5276C38.9458 13.1945 38.0563 14.4172 37.7227 15.8623V16.1958H37.5003ZM24.1571 15.1954H36.7219C37.1667 13.7503 38.0563 12.5276 39.2794 11.7495C37.8339 8.19241 36.0548 5.19115 34.0533 3.19031C32.9414 3.19031 31.7183 3.19031 30.7175 3.19031C28.1601 5.74694 25.825 10.0821 24.2683 15.1954H24.1571ZM21.5997 16.1958H6.92222L7.47819 15.4177C12.0371 8.63704 19.1535 3.96841 27.1594 2.63452L28.3825 2.4122L27.6041 3.41262C25.1579 6.52504 23.1564 10.749 21.8221 15.8623V16.1958H21.5997ZM8.81252 15.1954H20.9326C22.1557 10.749 23.9348 6.85851 26.0474 3.85724C19.1535 5.41345 12.9267 9.41515 8.81252 15.1954Z" fill="white"/>
</svg>
