<svg width="60" height="62" viewBox="0 0 60 62" fill="none" xmlns="http://www.w3.org/2000/svg">
<path d="M45.9756 3.41089H43.0845V40.5376H45.9756V3.41089Z" fill="white"/>
<path d="M47.6434 43.3166H47.0875C45.642 43.3166 44.4188 42.6496 43.4181 41.538C38.7479 35.6467 31.0757 32.2008 26.2944 32.2008H24.8489V11.97H26.2944C30.9645 11.97 38.6368 8.52413 43.4181 2.63276C44.3076 1.52119 45.642 0.854248 47.0875 0.854248H47.6434C50.2009 0.854248 52.2023 2.85508 52.2023 5.41171V38.7591C52.2023 41.3157 50.2009 43.3166 47.6434 43.3166ZM27.7399 29.3107C33.0771 29.8664 40.6382 33.4235 45.6419 39.6483C45.9755 40.093 46.5315 40.4264 47.0875 40.4264H47.6434C48.533 40.4264 49.3113 39.6483 49.3113 38.7591V5.41171C49.3113 4.52245 48.533 3.74434 47.6434 3.74434H47.0875C46.5315 3.74434 46.0867 3.96666 45.6419 4.52244C40.6382 10.7473 33.0771 14.3043 27.7399 14.8601V29.533V29.3107Z" fill="white"/>
<path d="M27.7399 32.0897H14.6191C11.6169 32.0897 9.17062 29.6442 9.17062 26.643V17.1945C9.17062 14.1933 11.6169 11.7478 14.6191 11.7478H27.7399V15.7495H24.8489V14.6379H14.6191C13.1736 14.6379 12.0617 15.7495 12.0617 17.1945V26.643C12.0617 28.088 13.1736 29.1996 14.6191 29.1996H24.8489V28.088H27.7399V32.0897Z" fill="white"/>
<path d="M21.5131 17.4167H15.5086V20.3069H21.5131V17.4167Z" fill="white"/>
<path d="M21.5131 23.6416H15.5086V26.5317H21.5131V23.6416Z" fill="white"/>
<path d="M25.2936 42.7607C24.4041 40.6487 23.737 38.5367 23.181 36.3135L22.1802 32.2007H17.1765L19.2892 41.8714L16.5094 42.5383L13.6183 29.3105H24.5152L25.9608 35.7577C26.4056 37.7586 27.0727 39.7594 27.851 41.6491L25.1824 42.7607H25.2936Z" fill="white"/>
<path d="M50.7568 30.6446H49.3113V13.304H50.7568C55.5381 13.304 59.4299 17.1945 59.4299 21.9743C59.4299 26.7541 55.5381 30.6446 50.7568 30.6446ZM52.2023 16.4164V27.5322C54.6486 26.8652 56.5389 24.6421 56.5389 21.9743C56.5389 19.3065 54.6486 17.0833 52.2023 16.4164Z" fill="white"/>
<path d="M7.28034 43.539H5.50128V40.6489H7.28034C7.9475 40.6489 8.6147 40.3154 9.05947 39.8708L11.8393 36.8695C12.84 35.7579 14.2855 35.2021 15.7311 35.2021V38.0923C15.0639 38.0923 14.3967 38.4257 13.9519 38.8704L11.1721 41.8716C10.1714 42.9832 8.72585 43.539 7.28034 43.539Z" fill="white"/>
<path d="M26.9615 61.6578H15.2863C13.9519 61.6578 12.7288 61.3243 11.6169 60.6573C9.72662 59.4346 7.61395 58.8788 5.50128 58.8788V55.9887C8.16991 55.9887 10.8386 56.7668 13.1736 58.2119C13.8408 58.5454 14.6191 58.7677 15.2863 58.7677H26.9615C28.407 58.7677 29.7414 57.6561 29.8526 56.0999L30.8533 46.7626C30.8533 45.8733 30.6309 45.0952 30.0749 44.5395C29.5189 43.9837 28.7406 43.539 27.851 43.539H14.9527V40.6489H27.851C29.5189 40.6489 31.0757 41.3159 32.1876 42.5386C33.2995 43.7614 33.8555 45.4287 33.6331 46.9849L32.6324 56.3222C32.2988 59.3235 29.8526 61.5466 26.8504 61.5466L26.9615 61.6578Z" fill="white"/>
<path d="M31.9652 46.8738H26.5168V49.7639H31.9652V46.8738Z" fill="white"/>
<path d="M31.4092 53.3208H25.6272V56.2109H31.4092V53.3208Z" fill="white"/>
<path d="M6.94677 60.435H0.497589V57.5449H4.05578V41.427H0.497589V38.5369H6.94677V60.435Z" fill="white"/>
</svg>
