<svg width="62" height="57" viewBox="0 0 62 57" fill="none" xmlns="http://www.w3.org/2000/svg">
<path d="M31.2854 17.0166C28.8392 17.0166 26.8377 15.238 26.5041 12.7926L26.2817 11.014C26.1705 9.68015 26.5041 8.34626 27.5049 7.23468C28.3944 6.23426 29.7287 5.67847 31.063 5.67847H31.5078C32.8421 5.67847 34.1764 6.23426 35.066 7.23468C35.9555 8.2351 36.4003 9.56899 36.2891 11.014L36.0667 12.7926C35.7331 15.238 33.7317 17.0166 31.2854 17.0166ZM31.063 8.45741C30.507 8.45741 30.0623 8.67973 29.6175 9.12436C29.2839 9.56899 29.0616 10.0136 29.1727 10.5694L29.3951 12.3479C29.3951 13.3484 30.2847 14.0153 31.2854 14.0153C32.2861 14.0153 33.0645 13.2372 33.1757 12.3479L33.3981 10.5694C33.3981 10.0136 33.3981 9.45784 32.9533 9.12436C32.6197 8.67973 32.0637 8.45741 31.5078 8.45741H31.063Z" fill="white"/>
<path d="M41.0704 26.6873H38.1794V23.5749C38.1794 22.3521 37.0674 21.2406 35.5107 20.9071C32.7309 20.2401 29.7287 20.2401 26.9489 20.9071C25.3922 21.2406 24.2802 22.3521 24.2802 23.5749V26.6873H21.3892V23.5749C21.3892 21.0182 23.3907 18.7951 26.2817 18.1281C29.5063 17.4612 32.8421 17.4612 36.0667 18.1281C38.9577 18.7951 40.9592 21.0182 40.9592 23.5749V26.6873H41.0704Z" fill="white"/>
<path d="M31.2854 30.9113C22.8347 30.9113 15.9408 24.0195 15.9408 15.5715C15.9408 7.12348 22.8347 0.231689 31.2854 0.231689C39.7361 0.231689 46.63 7.12348 46.63 15.5715C46.63 24.0195 39.7361 30.9113 31.2854 30.9113ZM31.2854 3.01064C24.3914 3.01064 18.8318 8.56853 18.8318 15.4603C18.8318 22.3521 24.3914 27.91 31.2854 27.91C38.1794 27.91 43.739 22.3521 43.739 15.4603C43.739 8.56853 38.1794 3.01064 31.2854 3.01064Z" fill="white"/>
<path d="M54.3023 56.6998C50.5218 56.6998 47.4084 53.5874 47.4084 49.808C47.4084 46.0287 50.5218 42.9163 54.3023 42.9163C58.0829 42.9163 61.1963 46.0287 61.1963 49.808C61.1963 53.5874 58.0829 56.6998 54.3023 56.6998ZM54.3023 45.8064C52.0785 45.8064 50.2994 47.5849 50.2994 49.808C50.2994 52.0312 52.0785 53.8097 54.3023 53.8097C56.5262 53.8097 58.3053 52.0312 58.3053 49.808C58.3053 47.5849 56.5262 45.8064 54.3023 45.8064Z" fill="white"/>
<path d="M31.2854 56.6998C27.5048 56.6998 24.3914 53.5874 24.3914 49.808C24.3914 46.0287 27.5048 42.9163 31.2854 42.9163C35.066 42.9163 38.1794 46.0287 38.1794 49.808C38.1794 53.5874 35.066 56.6998 31.2854 56.6998ZM31.2854 45.8064C29.0615 45.8064 27.2825 47.5849 27.2825 49.808C27.2825 52.0312 29.0615 53.8097 31.2854 53.8097C33.5093 53.8097 35.2884 52.0312 35.2884 49.808C35.2884 47.5849 33.5093 45.8064 31.2854 45.8064Z" fill="white"/>
<path d="M7.15651 56.6998C3.37595 56.6998 0.262562 53.5874 0.262562 49.808C0.262562 46.0287 3.37595 42.9163 7.15651 42.9163C10.9371 42.9163 14.0505 46.0287 14.0505 49.808C14.0505 53.5874 10.9371 56.6998 7.15651 56.6998ZM7.15651 45.8064C4.93265 45.8064 3.15355 47.5849 3.15355 49.808C3.15355 52.0312 4.93265 53.8097 7.15651 53.8097C9.38037 53.8097 11.1595 52.0312 11.1595 49.808C11.1595 47.5849 9.38037 45.8064 7.15651 45.8064Z" fill="white"/>
<path d="M8.60204 44.3615H5.71101V34.6907H29.8399V29.4663H32.7309V37.5808H8.60204V44.3615Z" fill="white"/>
<path d="M55.7479 44.3614H52.8568V37.5808H32.7309V44.3614H29.8399V34.6907H55.7479V44.3614Z" fill="white"/>
</svg>
