<svg width="65" height="71" viewBox="0 0 65 71" fill="none" xmlns="http://www.w3.org/2000/svg">
<path d="M55.624 16.346H39.7234C39.501 15.1233 39.0562 14.0117 38.3891 13.0113L44.3935 7.56457C44.8383 7.78688 45.2831 7.89804 45.839 7.89804C47.7293 7.89804 49.3972 6.34183 49.3972 4.34099C49.3972 2.34015 47.8405 0.783936 45.839 0.783936C43.8376 0.783936 42.2808 2.34015 42.2808 4.34099C42.2808 6.34183 42.2809 5.23025 42.5032 5.67488L36.3876 11.1216C35.1645 10.3435 33.8302 9.89888 32.2735 9.89888C30.7168 9.89888 29.3824 10.3435 28.2705 11.1216L22.2661 5.67488C22.3773 5.23025 22.4885 4.78562 22.4885 4.34099C22.4885 2.4513 20.9318 0.783936 18.9303 0.783936C16.9288 0.783936 15.3722 2.34015 15.3722 4.34099C15.3722 6.34183 16.9288 7.89804 18.9303 7.89804C20.9318 7.89804 19.9311 7.89804 20.3758 7.56457L26.2691 12.9001C25.4907 13.9006 25.0459 15.0121 24.8236 16.346H9.3677C4.47521 16.346 0.47226 20.3477 0.47226 25.2387V55.4736C0.47226 60.3646 4.47521 64.3663 9.3677 64.3663H10.4796V69.3684C10.4796 70.1465 11.0356 70.7022 11.814 70.7022H13.7043C14.0378 70.7022 14.3714 70.5911 14.5938 70.3688L20.9318 64.3663H44.0599L50.398 70.3688C50.6203 70.5911 50.9539 70.7022 51.2875 70.7022H53.1778C53.9561 70.7022 54.5121 70.1465 54.5121 69.3684V64.3663H55.624C60.5165 64.3663 64.5194 60.3646 64.5194 55.4736V25.2387C64.5194 20.3477 60.5165 16.346 55.624 16.346ZM45.839 3.45172C46.2838 3.45172 46.7286 3.89636 46.7286 4.34099C46.7286 4.78562 46.2838 5.23025 45.839 5.23025C45.3943 5.23025 44.9495 4.78562 44.9495 4.34099C44.9495 3.89636 45.3943 3.45172 45.839 3.45172ZM18.2631 4.34099C18.2631 3.89636 18.7079 3.45172 19.1527 3.45172C19.5975 3.45172 20.0422 3.89636 20.0422 4.34099C20.0422 4.78562 19.5975 5.23025 19.1527 5.23025C18.7079 5.23025 18.2631 4.78562 18.2631 4.34099ZM32.3847 12.5667C34.7197 12.5667 36.61 14.1229 37.0548 16.346H27.7146C28.1593 14.234 30.0496 12.5667 32.3847 12.5667ZM13.3707 68.0345V64.3663H17.2624L13.3707 68.0345ZM51.9547 68.0345L48.0629 64.3663H51.9547V68.0345ZM61.962 55.3625C61.962 58.8084 59.1822 61.5873 55.7352 61.5873H9.7013C6.25432 61.5873 3.47448 58.8084 3.47448 55.3625V25.1275C3.47448 21.6816 6.25432 18.9027 9.7013 18.9027H55.7352C59.1822 18.9027 61.962 21.6816 61.962 25.1275V55.3625Z" fill="white"/>
<path d="M45.5054 23.1267H12.9259C9.36772 23.1267 6.58788 26.0168 6.58788 29.4627V51.472C6.58788 55.029 9.47892 57.808 12.9259 57.808H45.5054C49.0636 57.808 51.8435 54.9179 51.8435 51.472V29.4627C51.8435 25.9057 48.9524 23.1267 45.5054 23.1267ZM49.286 51.5831C49.286 53.6951 47.6181 55.3625 45.5054 55.3625H12.9259C10.8132 55.3625 9.14534 53.6951 9.14534 51.5831V29.5739C9.14534 27.4619 10.8132 25.7945 12.9259 25.7945H45.5054C47.6181 25.7945 49.286 27.4619 49.286 29.5739V51.5831Z" fill="white"/>
<path d="M56.8471 26.0168C54.6233 26.0168 52.733 27.7954 52.733 30.1297C52.733 32.464 54.5121 34.2425 56.8471 34.2425C59.1822 34.2425 60.9613 32.464 60.9613 30.1297C60.9613 27.7954 59.1822 26.0168 56.8471 26.0168ZM56.8471 31.4636C56.0688 31.4636 55.4016 30.7966 55.4016 30.0185C55.4016 29.2404 56.0688 28.5735 56.8471 28.5735C57.6255 28.5735 58.2926 29.2404 58.2926 30.0185C58.2926 30.7966 57.6255 31.4636 56.8471 31.4636Z" fill="white"/>
<path d="M56.8471 36.1321C54.6233 36.1321 52.733 37.9106 52.733 40.2449C52.733 42.5792 54.5121 44.3578 56.8471 44.3578C59.1822 44.3578 60.9613 42.5792 60.9613 40.2449C60.9613 37.9106 59.1822 36.1321 56.8471 36.1321ZM56.8471 41.5788C56.0688 41.5788 55.4016 40.9119 55.4016 40.1338C55.4016 39.3557 56.0688 38.6887 56.8471 38.6887C57.6255 38.6887 58.2926 39.3557 58.2926 40.1338C58.2926 40.9119 57.6255 41.5788 56.8471 41.5788Z" fill="white"/>
<path d="M56.8471 46.2476C54.6233 46.2476 52.733 48.0261 52.733 50.3604C52.733 52.6947 54.5121 54.4732 56.8471 54.4732C59.1822 54.4732 60.9613 52.6947 60.9613 50.3604C60.9613 48.0261 59.1822 46.2476 56.8471 46.2476ZM56.8471 51.6943C56.0688 51.6943 55.4016 51.0273 55.4016 50.2492C55.4016 49.4711 56.0688 48.8042 56.8471 48.8042C57.6255 48.8042 58.2926 49.4711 58.2926 50.2492C58.2926 51.0273 57.6255 51.6943 56.8471 51.6943Z" fill="white"/>
</svg>
