<svg width="62" height="62" viewBox="0 0 62 62" fill="none" xmlns="http://www.w3.org/2000/svg">
<path d="M11.0595 61.9226V49.4729H9.61397C4.61029 49.4729 0.6073 45.4713 0.6073 40.4692V9.56726C0.6073 4.56516 4.61029 0.563477 9.61397 0.563477H52.2009C57.2046 0.563477 61.2075 4.56516 61.2075 9.56726V40.4692C61.2075 45.4713 57.2046 49.4729 52.2009 49.4729H26.6265L11.0595 61.9226ZM9.61397 3.34242C6.27818 3.34242 3.49836 6.12137 3.49836 9.45611V40.358C3.49836 43.6927 6.27818 46.4717 9.61397 46.4717H13.9505V55.809L25.6257 46.4717H52.2009C55.5367 46.4717 58.3165 43.6927 58.3165 40.358V9.45611C58.3165 6.12137 55.5367 3.34242 52.2009 3.34242H9.61397Z" fill="white"/>
<path d="M27.1824 33.5775C26.7377 33.5775 26.4041 33.5774 26.0705 33.244C25.4034 32.7993 24.9586 32.1324 24.9586 31.3543V18.46C24.9586 17.6819 25.4034 16.9038 26.0705 16.5703C26.7377 16.1257 27.6272 16.1257 28.2944 16.5703L39.5248 23.0175C40.192 23.4621 40.6368 24.129 40.6368 25.0183C40.6368 25.9076 40.192 26.5745 39.5248 27.0191L28.2944 33.4663C27.9608 33.6886 27.516 33.7998 27.1824 33.7998V33.5775ZM27.8496 19.5716V30.2427L37.1898 24.9071L27.8496 19.5716Z" fill="white"/>
<path d="M30.963 41.1361C21.9563 41.1361 14.7288 33.9108 14.7288 24.907C14.7288 15.9032 21.9563 8.67798 30.963 8.67798C39.8584 8.67798 47.1972 15.9032 47.1972 24.907C47.1972 33.9108 39.9696 41.1361 30.963 41.1361ZM30.963 11.5681C23.6242 11.5681 17.6198 17.5706 17.6198 24.907C17.6198 32.2435 23.6242 38.246 30.963 38.246C38.3017 38.246 44.3061 32.2435 44.3061 24.907C44.3061 17.5706 38.3017 11.5681 30.963 11.5681Z" fill="white"/>
</svg>
