<svg width="62" height="54" viewBox="0 0 62 54" fill="none" xmlns="http://www.w3.org/2000/svg">
<path d="M12.6274 20.4619C12.405 20.4619 12.1825 20.4619 11.9602 20.2396C11.5154 20.0173 11.293 19.4615 11.293 19.0169V11.347C11.293 10.7912 11.5154 10.3466 11.9602 10.1243C12.4049 9.90194 12.9609 9.90194 13.4057 10.1243L20.0772 13.9036C20.522 14.1259 20.7444 14.6817 20.7444 15.1264C20.7444 15.571 20.522 16.1268 20.0772 16.3491L13.4057 20.1285C13.1833 20.2396 12.9609 20.3508 12.7385 20.3508L12.6274 20.4619ZM13.1833 12.2363V18.2388L18.2982 15.2375L13.1833 12.2363Z" fill="white"/>
<path d="M46.43 22.9074C46.2076 22.9074 45.9852 22.9074 45.7629 22.9074C44.3173 22.574 43.0942 21.4624 42.8718 20.0173C42.6494 18.7946 42.983 17.5719 43.8726 16.6826C44.7621 15.7933 45.9852 15.4599 47.2084 15.6822C48.6539 16.0156 49.877 17.1272 50.0993 18.5723C50.3217 19.795 49.9882 21.0178 49.0986 21.907C48.4315 22.574 47.4307 23.0186 46.43 23.0186V22.9074ZM46.43 17.3495C45.9852 17.3495 45.5405 17.5719 45.2069 17.9053C44.7621 18.35 44.6509 18.9058 44.7621 19.5727C44.8733 20.2396 45.4293 20.7954 46.0964 20.9066C46.6524 21.0178 47.3195 20.9066 47.7643 20.462C48.2091 20.0173 48.3203 19.4615 48.2091 18.7946C48.0979 18.1276 47.5419 17.5719 46.8748 17.4607C46.7636 17.4607 46.6524 17.4607 46.5412 17.4607L46.43 17.3495Z" fill="white"/>
<path d="M50.2106 19.128H48.2091V7.23413L54.7695 10.7912L53.8799 12.4586L50.2106 10.4577V19.128Z" fill="white"/>
<path d="M11.293 29.0211C4.28785 27.2426 -0.159909 20.7955 0.618443 13.6814C1.2856 7.12304 6.62292 1.78746 13.1833 1.00936C17.2974 0.564726 21.3004 1.78746 24.4138 4.56641C27.416 7.2342 29.1951 11.1247 29.1951 15.2376C29.1951 19.3504 28.9727 18.1277 28.4167 19.6839L25.6369 18.7946C26.0816 17.4607 26.3041 16.3491 26.3041 15.2376C26.3041 12.014 24.9697 8.90157 22.5235 6.67841C20.0772 4.45525 16.8526 3.45483 13.628 3.89946C8.40197 4.45525 4.17663 8.67925 3.62067 14.0148C3.0647 19.6839 6.62289 24.9083 12.1825 26.2422L11.5154 29.0211H11.293Z" fill="white"/>
<path d="M47.4307 53.3647H14.184C10.4034 53.3647 6.9565 51.9196 4.28787 49.1406C1.73043 46.4729 0.284921 42.9158 0.396114 39.1364C0.6185 32.2446 6.17811 26.4644 13.0721 25.9086C14.74 25.7975 16.2967 25.9086 17.8534 26.3533C19.6325 20.6842 24.8585 16.7937 30.863 16.7937C36.8674 16.7937 42.0935 20.6842 43.8726 26.3533C45.0957 26.0198 46.3188 25.7975 47.6531 25.7975C50.5442 25.7975 53.324 26.6868 55.7702 28.4653C59.7732 31.3554 61.8858 36.3575 61.3299 41.2484C60.4403 48.0291 54.5471 53.2535 47.4307 53.2535V53.3647ZM14.184 28.7988C13.8504 28.7988 13.6281 28.7988 13.2945 28.7988C7.84602 29.2434 3.50949 33.8009 3.28711 39.2476C3.28711 42.2489 4.28786 45.0278 6.28933 47.1398C8.402 49.2518 11.0706 50.4745 14.0728 50.4745H47.3195C52.9904 50.4745 57.7717 46.3617 58.4388 41.0261C58.8836 37.0244 57.3269 33.2451 54.1023 30.9108C52.212 29.5769 49.9882 28.7988 47.7643 28.7988C45.5405 28.7988 44.8733 29.1322 43.539 29.688L41.8711 30.355L41.5375 28.5764C40.5368 23.4632 36.0891 19.795 30.9742 19.795C25.8593 19.795 21.3004 23.4632 20.4109 28.5764L20.0772 30.355L18.4093 29.688C17.075 29.1322 15.6295 28.7988 14.184 28.7988Z" fill="white"/>
<path d="M29.5286 44.2498L24.3026 39.0254L26.4152 37.0245L29.5286 40.1369L35.9779 33.5786L38.0905 35.6906L29.5286 44.2498Z" fill="white"/>
<path d="M50.6553 29.0211L49.9882 26.2421C55.5478 24.7971 59.106 19.6838 58.55 14.0148C57.9941 8.79036 53.7687 4.56636 48.5427 3.89941C45.2069 3.56594 42.0935 4.56636 39.6472 6.67836C37.201 8.79036 35.8666 11.9028 35.8666 15.2375C35.8666 18.5723 36.0891 17.5718 36.5338 18.7946L33.754 19.6838C33.198 18.1276 32.9756 16.6826 32.9756 15.2375C32.9756 11.1247 34.7547 7.23415 37.7569 4.56636C40.7591 1.89857 44.8733 0.564675 48.8762 1.00931C55.4366 1.78741 60.7739 7.12299 61.441 13.6813C62.2194 20.7954 57.6605 27.2426 50.7665 29.0211H50.6553Z" fill="white"/>
</svg>
