<svg width="67" height="59" viewBox="0 0 67 59" fill="none" xmlns="http://www.w3.org/2000/svg">
<path d="M20.0192 46.9878C23.6885 46.9878 26.6908 43.9866 26.6908 40.3184C26.6908 36.6502 26.1348 37.206 25.134 35.9832L37.3653 19.643C38.1436 19.9765 39.0332 20.1988 40.0339 20.1988C41.7018 20.1988 43.1473 19.643 44.2592 18.6426L53.8218 25.979C53.3771 26.7571 53.2659 27.7575 53.2659 28.758C53.2659 32.4262 56.2681 35.4274 59.9375 35.4274C63.6068 35.4274 66.609 32.4262 66.609 28.758C66.609 25.0898 63.6068 22.0885 59.9375 22.0885C56.2681 22.0885 56.8241 22.6443 55.7121 23.6447L46.1495 16.3083C46.5943 15.5302 46.7055 14.5298 46.7055 13.5293C46.7055 9.86112 43.7033 6.85986 40.0339 6.85986C36.3645 6.85986 33.3623 9.86112 33.3623 13.5293C33.3623 17.1975 33.9183 16.6417 34.919 17.8645L22.6878 34.3159C21.9095 33.9824 21.0199 33.7601 20.0192 33.7601C16.3498 33.7601 13.3476 36.7613 13.3476 40.4295C13.3476 44.0978 16.3498 46.9878 20.0192 46.9878ZM63.3844 28.8691C63.3844 30.87 61.7165 32.5373 59.7151 32.5373C57.7136 32.5373 56.0457 30.87 56.0457 28.8691C56.0457 26.8683 57.7136 25.2009 59.7151 25.2009C61.7165 25.2009 63.3844 26.8683 63.3844 28.8691ZM39.9227 9.97228C41.9242 9.97228 43.5921 11.6396 43.5921 13.6405C43.5921 15.6413 41.9242 17.3087 39.9227 17.3087C37.9212 17.3087 36.2533 15.6413 36.2533 13.6405C36.2533 11.6396 37.9212 9.97228 39.9227 9.97228ZM20.0192 36.7613C22.0206 36.7613 23.6885 38.4287 23.6885 40.4295C23.6885 42.4304 22.0206 44.0978 20.0192 44.0978C18.0177 44.0978 16.3498 42.4304 16.3498 40.4295C16.3498 38.4287 18.0177 36.7613 20.0192 36.7613ZM66.9426 56.9921C66.9426 57.7702 66.2755 58.4371 65.4971 58.4371H8.89987C8.23271 58.4371 7.00959 58.326 6.00885 57.4367C5.00811 56.5474 4.56334 55.2135 4.56334 53.5462V51.323H1.44993C0.671583 51.323 0.00442505 50.6561 0.00442505 49.878C0.00442505 49.0999 0.671583 48.4329 1.44993 48.4329H4.56334V41.8746H1.44993C0.671583 41.8746 0.00442505 41.2076 0.00442505 40.4295C0.00442505 39.6514 0.671583 38.9845 1.44993 38.9845H4.56334V32.4262H1.44993C0.671583 32.4262 0.00442505 31.7592 0.00442505 30.9811C0.00442505 30.203 0.671583 29.5361 1.44993 29.5361H4.56334V22.9778H1.44993C0.671583 22.9778 0.00442505 22.3108 0.00442505 21.5327C0.00442505 20.7546 0.671583 20.0876 1.44993 20.0876H4.56334V13.5293H1.44993C0.671583 13.5293 0.00442505 12.8624 0.00442505 12.0843C0.00442505 11.3062 0.671583 10.6392 1.44993 10.6392H4.56334V3.52512H1.44993C0.671583 3.52512 0.00442505 2.85817 0.00442505 2.08007C0.00442505 1.30196 0.671583 0.63501 1.44993 0.63501H6.12004C6.89839 0.63501 7.56555 1.30196 7.56555 2.08007V53.8797C7.56555 54.4354 7.56555 55.2135 8.01032 55.547C8.4551 55.8805 9.01106 55.8805 9.01106 55.8805H65.4971C66.2755 55.8805 66.9426 56.5474 66.9426 57.3255V56.9921Z" fill="white"/>
</svg>
