<svg width="65" height="66" viewBox="0 0 65 66" fill="none" xmlns="http://www.w3.org/2000/svg">
<path d="M32.619 65.4383C14.7169 65.4383 0.26181 50.8766 0.26181 33.0913C0.26181 15.3061 14.8281 0.744385 32.619 0.744385C50.4099 0.744385 64.9762 15.3061 64.9762 33.0913C64.9762 50.8766 50.4099 65.4383 32.619 65.4383ZM32.619 4.07912C16.6072 4.07912 3.5976 17.0846 3.5976 33.0913C3.5976 49.0981 16.6072 62.1035 32.619 62.1035C48.6308 62.1035 61.6404 49.0981 61.6404 33.0913C61.6404 17.0846 48.6308 4.07912 32.619 4.07912Z" fill="white"/>
<path d="M23.39 51.877L11.7147 26.9776L28.1713 19.7524L33.1749 23.6429L50.6323 18.752L41.6256 47.5419L23.39 51.877ZM16.2736 28.7562L25.3914 47.9865L39.0682 44.7629L45.6286 23.7541L32.5078 27.4223L27.7265 23.7541L16.2736 28.7562Z" fill="white"/>
</svg>
