<svg width="68" height="58" viewBox="0 0 68 58" fill="none" xmlns="http://www.w3.org/2000/svg">
<path d="M63.9516 0.411865H53.0547C51.0532 0.411865 49.3853 2.07924 49.3853 4.08008V53.8788C49.3853 55.8797 51.0532 57.547 53.0547 57.547H63.9516C65.9531 57.547 67.621 55.8797 67.621 53.8788V4.08008C67.621 2.07924 65.9531 0.411865 63.9516 0.411865ZM64.9523 53.8788C64.9523 54.4346 64.5076 54.8792 63.9516 54.8792H53.0547C52.4987 54.8792 52.0539 54.4346 52.0539 53.8788V4.08008C52.0539 3.52429 52.4987 3.07966 53.0547 3.07966H63.9516C64.5076 3.07966 64.9523 3.52429 64.9523 4.08008V53.8788Z" fill="white"/>
<path d="M56.1681 21.7542H54.6114C53.9442 21.7542 53.2771 22.31 53.2771 23.0881C53.2771 23.8662 53.833 24.422 54.6114 24.422H56.1681C56.8352 24.422 57.5024 23.8662 57.5024 23.0881C57.5024 22.31 56.9464 21.7542 56.1681 21.7542Z" fill="white"/>
<path d="M62.3949 21.7542H60.8382C60.171 21.7542 59.5039 22.31 59.5039 23.0881C59.5039 23.8662 60.0598 24.422 60.8382 24.422H62.3949C63.062 24.422 63.7292 23.8662 63.7292 23.0881C63.7292 22.31 63.1732 21.7542 62.3949 21.7542Z" fill="white"/>
<path d="M57.7248 7.74837H59.2815C59.9486 7.74837 60.6158 7.19258 60.6158 6.41447C60.6158 5.63637 60.0598 5.08057 59.2815 5.08057H57.7248C57.0576 5.08057 56.3905 5.63637 56.3905 6.41447C56.3905 7.19258 56.9464 7.74837 57.7248 7.74837Z" fill="white"/>
<path d="M58.5031 25.6448C57.836 25.6448 57.1688 26.2006 57.1688 26.9787V31.6473C57.1688 32.3143 57.7248 32.9812 58.5031 32.9812C59.2815 32.9812 59.8374 32.4254 59.8374 31.6473V26.9787C59.8374 26.3117 59.2815 25.6448 58.5031 25.6448Z" fill="white"/>
<path d="M58.5031 9.30444C55.5009 9.30444 52.9435 11.7499 52.9435 14.8623C52.9435 17.9748 55.3897 20.4202 58.5031 20.4202C61.6165 20.4202 64.0628 17.9748 64.0628 14.8623C64.0628 11.7499 61.6165 9.30444 58.5031 9.30444ZM58.5031 17.7524C56.8352 17.7524 55.6121 16.4185 55.6121 14.8623C55.6121 13.3061 56.9464 11.9722 58.5031 11.9722C60.0598 11.9722 61.3941 13.3061 61.3941 14.8623C61.3941 16.4185 60.0598 17.7524 58.5031 17.7524Z" fill="white"/>
<path d="M38.0436 6.19214H8.91104C4.12974 6.19214 0.126801 10.0827 0.126801 14.9736V44.097C0.126801 48.8768 4.01855 52.8785 8.91104 52.8785H38.0436C42.8249 52.8785 46.8279 48.9879 46.8279 44.097V14.9736C46.8279 10.1938 42.9361 6.19214 38.0436 6.19214ZM44.1592 44.097C44.1592 47.5429 41.3794 50.3218 37.9324 50.3218H8.79986C5.35288 50.3218 2.57304 47.5429 2.57304 44.097V14.9736C2.57304 11.5277 5.35288 8.74877 8.79986 8.74877H37.9324C41.3794 8.74877 44.1592 11.5277 44.1592 14.9736V44.097Z" fill="white"/>
<path d="M35.8197 22.5322C35.1526 22.3099 34.3742 22.5322 34.1519 23.1991L30.4825 32.3141L26.8131 23.1991C26.5907 22.5322 25.8124 22.1987 25.1452 22.5322C24.4781 22.7545 24.1445 23.5326 24.4781 24.1996L29.3706 36.3158C29.593 36.7604 30.0377 37.0939 30.5937 37.0939C31.1496 37.0939 31.5944 36.7604 31.8168 36.3158L36.7093 24.1996C36.9317 23.5326 36.7093 22.7545 36.0421 22.5322H35.8197Z" fill="white"/>
<path d="M21.3646 22.7546H11.4685C10.8013 22.7546 10.1342 23.3104 10.1342 24.0885C10.1342 24.8666 10.6901 25.4224 11.4685 25.4224H15.1378V35.7601C15.1378 36.4271 15.6938 37.094 16.4722 37.094C17.2505 37.094 17.8065 36.5382 17.8065 35.7601V25.4224H21.4758C22.143 25.4224 22.8102 24.8666 22.8102 24.0885C22.8102 23.3104 22.2542 22.7546 21.4758 22.7546H21.3646Z" fill="white"/>
</svg>
