<svg width="63" height="64" viewBox="0 0 63 64" fill="none" xmlns="http://www.w3.org/2000/svg">
<path d="M47.8301 22.3507L45.1614 25.0185C46.3846 27.3528 47.1629 30.0206 47.1629 32.7995C47.1629 41.8033 39.8242 49.1397 30.8175 49.1397C21.8109 49.1397 14.4722 41.8033 14.4722 32.7995C14.4722 23.7957 21.8109 16.4593 30.8175 16.4593C39.8242 16.4593 36.266 17.1263 38.601 18.4602L41.2697 15.7924C38.2675 13.9027 34.5981 12.7911 30.8175 12.7911C19.8094 12.7911 10.8028 21.7949 10.8028 32.7995C10.8028 43.8042 19.8094 52.8079 30.8175 52.8079C41.8256 52.8079 50.8323 43.8042 50.8323 32.7995C50.8323 21.7949 49.7203 25.352 47.8301 22.3507ZM40.3801 29.7983L37.1555 33.0218C37.0443 36.3566 34.2645 39.1355 30.8175 39.1355C27.3705 39.1355 24.4795 36.3566 24.4795 32.7995C24.4795 29.2425 27.1482 26.6859 30.5951 26.4635L33.8197 23.24C32.819 22.9065 31.8183 22.7953 30.8175 22.7953C25.2579 22.7953 20.8102 27.2416 20.8102 32.7995C20.8102 38.3574 25.2579 42.8037 30.8175 42.8037C36.3772 42.8037 40.8249 38.3574 40.8249 32.7995C40.8249 31.7991 40.7137 30.7987 40.3801 29.7983ZM56.9479 17.1263L54.2793 19.7941C56.3919 23.6846 57.6151 28.0197 57.6151 32.7995C57.6151 47.5835 45.6062 59.5886 30.8175 59.5886C16.0289 59.5886 4.02002 47.5835 4.02002 32.7995C4.02002 18.0155 16.0289 6.01048 30.8175 6.01048C45.6062 6.01048 39.9354 7.23322 43.8271 9.34522L46.4958 6.67743C41.9368 3.89848 36.5996 2.34227 30.8175 2.34227C14.0274 2.34227 0.350647 16.0147 0.350647 32.7995C0.350647 49.5844 14.0274 63.2568 30.8175 63.2568C47.6077 63.2568 61.2844 49.5844 61.2844 32.7995C61.2844 16.0147 59.7277 21.6837 56.9479 17.1263ZM52.945 17.2374L49.3868 16.7928L32.0407 34.1334C31.3735 34.8004 30.1504 34.8004 29.4832 34.1334C28.8161 33.4665 28.8161 32.2437 29.4832 31.5768L46.8293 14.2362L46.3846 10.6791L56.1695 0.897217L57.5039 6.12164L62.7299 7.45553L52.945 17.2374Z" fill="white"/>
</svg>
