<svg width="63" height="63" viewBox="0 0 63 63" fill="none" xmlns="http://www.w3.org/2000/svg">
<path d="M24.9132 42.6923C24.246 42.6923 23.5788 42.4699 23.0229 42.1365C21.9109 41.4695 21.1326 40.2468 21.1326 38.8017V22.9062C21.1326 21.5723 21.7998 20.3495 23.0229 19.6826C24.1348 19.0156 25.5803 19.0156 26.8034 19.6826L41.2585 27.5748C42.4817 28.2417 43.26 29.4645 43.26 30.9095C43.26 32.3546 42.4817 33.5773 41.2585 34.2443L26.8034 42.1365C26.2475 42.4699 25.5803 42.5811 24.9132 42.5811V42.6923ZM24.9132 22.5727C24.9132 22.5727 24.802 22.5727 24.6908 22.5727C24.5796 22.5727 24.4684 22.795 24.4684 22.9062V38.8017C24.4684 38.9129 24.4684 39.1352 24.6908 39.1352C24.802 39.1352 25.0244 39.1352 25.1355 39.1352L39.5906 31.243C39.7018 31.243 39.813 31.0207 39.813 30.9095C39.813 30.7984 39.813 30.5761 39.5906 30.5761L25.1355 22.6838C25.1355 22.6838 25.0244 22.6838 24.9132 22.6838V22.5727Z" fill="white"/>
<path d="M60.7173 11.6792H2.11859V15.0139H60.7173V11.6792Z" fill="white"/>
<path d="M60.7173 48.3613H2.11859V51.6961H60.7173V48.3613Z" fill="white"/>
<path d="M33.1414 2.45312H29.8056V13.3466H33.1414V2.45312Z" fill="white"/>
<path d="M18.464 2.45312H15.1282V13.3466H18.464V2.45312Z" fill="white"/>
<path d="M47.7077 2.45312H44.3719V13.3466H47.7077V2.45312Z" fill="white"/>
<path d="M33.1414 50.1396H29.8056V61.0331H33.1414V50.1396Z" fill="white"/>
<path d="M18.464 50.1396H15.1282V61.0331H18.464V50.1396Z" fill="white"/>
<path d="M47.7077 50.1396H44.3719V61.0331H47.7077V50.1396Z" fill="white"/>
<path d="M54.0457 62.7006H8.79016C4.23125 62.7006 0.450684 58.9212 0.450684 54.3637V9.12249C0.450684 4.56501 4.23125 0.785645 8.79016 0.785645H54.0457C58.6046 0.785645 62.3852 4.56501 62.3852 9.12249V54.3637C62.3852 58.9212 58.6046 62.7006 54.0457 62.7006ZM8.79016 4.12038C6.01034 4.12038 3.78647 6.34354 3.78647 9.12249V54.3637C3.78647 57.1427 6.01034 59.3659 8.79016 59.3659H54.0457C56.8256 59.3659 59.0494 57.1427 59.0494 54.3637V9.12249C59.0494 6.34354 56.8256 4.12038 54.0457 4.12038H8.79016Z" fill="white"/>
</svg>
