<?xml version="1.0" encoding="utf-8"?>
<!-- Generator: Adobe Illustrator 28.1.0, SVG Export Plug-In . SVG Version: 6.00 Build 0)  -->
<svg version="1.1" id="Layer_1" xmlns="http://www.w3.org/2000/svg" xmlns:xlink="http://www.w3.org/1999/xlink" x="0px" y="0px"
	 viewBox="0 0 114 39" style="enable-background:new 0 0 114 39;" xml:space="preserve">
<style type="text/css">
	.st0{opacity:0.2;}
	.st1{fill:#FFFFFF;}
	.st2{fill:#FA198C;}
</style>
<g>
	<rect x="1.1" y="1.2" class="st0" width="104.9" height="36.4"/>
	<g>
		<path class="st1" d="M50.2,15.4c-1.5,0-2.7,0.5-3.7,1.4c-1,0.9-1.5,2.2-1.5,4h10.4c-0.1-1.8-0.6-3.1-1.4-4
			C53.1,15.8,51.9,15.4,50.2,15.4z"/>
		<path class="st1" d="M74.5,25c-1.2,0.3-2.1,0.5-2.7,1.3c-0.5,0.7-0.7,1.4-0.7,2.2c0,1,0.3,1.8,0.9,2.4c0.6,0.5,1.5,0.8,2.7,0.8
			c2.9,0,3.9-0.4,5.1-1.6c1.1-1.1,1-2.5,1-4.3v-2.5c-1,0.5-1.8,0.9-4,1.3L74.5,25z"/>
		<path class="st1" d="M0,0v39h114V0H0z M25.9,32.3c-3.1,3.3-6.2,4.7-10.6,4.7C7.7,37,2,31.2,2,23.4v-0.1C2,15.6,7.8,9.7,15.5,9.7
			c4.3,0,7.4,1.3,10.2,4.1l-2.4,2.8c-0.8,0.9-2.1,1.1-3.1,0.4c-1.6-1.1-3.1-1.6-4.8-1.6c-4.1,0-7.1,3.4-7.1,7.8v0.1
			c0,4.5,3.1,7.9,7.1,7.9c2.1,0,3.6-0.6,5-1.7c0.9-0.7,2.1-0.6,3,0.1l2.6,2.4L25.9,32.3z M35.3,37h-7.1V2H32c0.9,0,1.7,0.3,2.3,0.9
			c0.6,0.6,1,1.4,1,2.3V37z M62.8,24c0,0.3-0.1,1.1-0.1,1.1H45c0.1,2,0.6,3.6,1.5,4.5c0.9,1.1,2.2,1.6,4,1.6c2.3,0,3.6-0.7,4.3-1.4
			c0.9-0.9,2-1.4,3.2-1.4l4.4,0c-0.8,2.8-2.2,4.9-4.3,6.3c-2.1,1.5-4.8,2.3-8,2.3c-3.9,0-6.9-1.2-9.1-3.7c-2.2-2.4-3.3-5.8-3.3-10.2
			c0-4.2,1.1-7.5,3.2-9.9c2.2-2.4,5.2-3.7,9.1-3.7c4.1,0,7.3,1.2,9.5,3.6c2.2,2.4,3.3,6.3,3.3,10.7V24z M87.5,26.6
			c0,2.6-0.4,4.8-1.5,6.2c-0.9,1.2-1.5,1.7-2.9,2.6c-1.3,0.7-3.1,1.2-4.7,1.5C77.5,37,75.6,37,73.6,37c-2.5-0.1-4.6-0.6-6.4-1.9
			c-1.8-1.3-2.8-3.4-2.8-6.4c0-2.8,0.8-4.7,2.5-5.9c1.7-1.2,3.8-2,6.4-2.4c0,0,2.3-0.3,2.9-0.4c3-0.4,4.5-1.3,4.5-2.6
			c0-1-0.5-1.6-1.6-1.9c-1.1-0.3-2-0.4-2.9-0.4c-1,0-1.8,0.1-2.6,0.4c-0.8,0.3-1.3,0.8-1.6,1.5h-6.9c0.3-2,1.2-3.7,2.9-5
			c1.8-1.5,4.5-2.3,7.9-2.3c3.8,0,6.7,0.6,8.6,1.9c2,1.3,3,3.2,3,5.5V26.6z M105.3,16.8H103c-2,0-3.4,0.5-4.4,1.4
			c-1,0.9-1.4,2.4-1.4,4.3v11.1c0,1.9-1.6,3.4-3.5,3.4H90V23.3c0-2.6,0.4-4.7,1.2-6.5c0.8-1.7,1.9-3.1,3.2-4.2
			c1.3-1,2.8-1.7,4.6-2.2c1.7-0.5,3.5-0.7,5.4-0.7h1V16.8z"/>
	</g>
	<path class="st2" d="M106.7,26.2c-2.9,0-5.3,2.3-5.3,5.3c0,3,2.3,5.4,5.3,5.4c3,0,5.3-2.4,5.3-5.4C112,28.6,109.7,26.2,106.7,26.2z
		 M109.3,31.6c0,1.5-1.1,2.7-2.6,2.7c-1.5,0-2.6-1.2-2.6-2.7c0-1.5,1.1-2.6,2.6-2.6C108.1,29,109.3,30.1,109.3,31.6z"/>
</g>
</svg>
