<svg width="207" height="204" viewBox="0 0 207 204" fill="none" xmlns="http://www.w3.org/2000/svg">
<g clip-path="url(#clip0_6299_5546)">
<path d="M190.68 120.83C199.84 119.37 206.75 111.27 206.75 101.99C206.75 92.71 199.84 84.62 190.68 83.15L189.31 82.93V38.15L190.68 37.93C199.84 36.47 206.75 28.37 206.75 19.09C206.75 8.55999 198.18 -0.0100098 187.66 -0.0100098C178.38 -0.0100098 170.28 6.89999 168.82 16.06L168.6 17.43H122.43L122.21 16.06C120.75 6.89999 112.65 -0.0100098 103.38 -0.0100098C94.11 -0.0100098 86 6.89999 84.54 16.06L84.32 17.43H38.15L37.93 16.06C36.47 6.90999 28.37 -9.76585e-06 19.1 -9.76585e-06C8.57 -9.76585e-06 0 8.56999 0 19.1C0 28.38 6.91 36.47 16.07 37.94L17.44 38.16V82.94L16.07 83.16C6.91 84.62 0 92.72 0 102C0 111.28 6.91 119.37 16.07 120.84L17.44 121.06V165.84L16.07 166.06C6.91 167.52 0 175.62 0 184.9C0 195.43 8.57 203.99 19.1 203.99C28.38 203.99 36.48 197.08 37.94 187.92L38.16 186.55H84.33L84.55 187.92C86.01 197.08 94.11 203.99 103.39 203.99C112.67 203.99 120.76 197.08 122.22 187.92L122.44 186.55H168.61L168.83 187.92C170.29 197.08 178.39 203.99 187.67 203.99C198.2 203.99 206.76 195.42 206.76 184.9C206.76 175.62 199.85 167.53 190.69 166.06L189.32 165.84V121.06L190.69 120.84L190.68 120.83ZM187.66 200.67C178.96 200.67 171.87 193.59 171.87 184.88C171.87 176.17 178.95 169.09 187.66 169.09C196.37 169.09 203.44 176.17 203.44 184.88C203.44 193.59 196.36 200.67 187.66 200.67ZM19.1 3.30999C27.8 3.30999 34.89 10.39 34.89 19.1C34.89 27.81 27.81 34.89 19.1 34.89C10.39 34.89 3.31 27.8 3.31 19.1C3.31 10.4 10.39 3.30999 19.1 3.30999ZM103.38 200.67C94.68 200.67 87.59 193.59 87.59 184.88C87.59 176.17 94.67 169.09 103.38 169.09C112.09 169.09 119.16 176.17 119.16 184.88C119.16 193.59 112.08 200.67 103.38 200.67ZM19.1 117.77C10.4 117.77 3.31 110.69 3.31 101.98C3.31 93.27 10.39 86.19 19.1 86.19C27.81 86.19 34.89 93.27 34.89 101.98C34.89 110.69 27.81 117.77 19.1 117.77ZM103.38 3.30999C112.08 3.30999 119.16 10.39 119.16 19.1C119.16 27.81 112.08 34.89 103.38 34.89C94.68 34.89 87.59 27.81 87.59 19.1C87.59 10.39 94.67 3.30999 103.38 3.30999ZM125.65 101.99C125.65 114.27 115.66 124.26 103.37 124.26C91.08 124.26 81.1 114.27 81.1 101.99C81.1 89.71 91.09 79.72 103.37 79.72C115.65 79.72 125.65 89.71 125.65 101.99ZM186 82.93L184.63 83.15C176.76 84.41 170.44 90.52 168.92 98.35L168.67 99.66H128.84L128.64 98.27C126.94 86.66 117.6 77.74 105.93 76.58L104.47 76.43V38.18L105.88 37.99C114.19 36.89 120.91 30.36 122.23 22.1L122.45 20.73H168.62L168.84 22.1C170.14 30.26 176.5 36.61 184.65 37.91L186.02 38.13V82.91L186 82.93ZM101.14 76.53L99.75 76.73C88.64 78.32 79.75 87.18 78.13 98.28L77.93 99.67H38.1L37.85 98.36C36.32 90.52 30.01 84.41 22.14 83.16L20.77 82.94V38.16L22.14 37.94C30.3 36.64 36.65 30.28 37.95 22.13L38.17 20.76H84.34L84.56 22.13C85.82 30.04 91.96 36.36 99.84 37.86L101.16 38.11V76.54L101.14 76.53ZM20.75 121.04L22.12 120.82C30.41 119.5 36.95 112.74 38.02 104.39L38.2 102.97H77.83L77.97 104.44C79.1 116.19 88.05 125.57 99.74 127.24L101.13 127.44V165.87L99.81 166.12C91.93 167.62 85.79 173.94 84.53 181.85L84.31 183.22H38.14L37.92 181.85C36.62 173.69 30.26 167.34 22.11 166.04L20.74 165.82V121.04H20.75ZM104.45 127.53L105.91 127.38C118 126.18 127.61 116.54 128.77 104.44L128.91 102.97H168.54L168.72 104.39C169.79 112.74 176.33 119.49 184.62 120.82L185.99 121.04V165.82L184.62 166.04C176.46 167.34 170.11 173.7 168.81 181.85L168.59 183.22H122.42L122.2 181.85C120.88 173.59 114.16 167.06 105.85 165.96L104.44 165.77V127.52L104.45 127.53ZM187.66 86.2C196.36 86.2 203.44 93.28 203.44 101.99C203.44 110.7 196.36 117.78 187.66 117.78C178.96 117.78 171.87 110.7 171.87 101.99C171.87 93.28 178.95 86.2 187.66 86.2ZM187.66 3.30999C196.36 3.30999 203.44 10.39 203.44 19.1C203.44 27.81 196.36 34.89 187.66 34.89C178.96 34.89 171.87 27.81 171.87 19.1C171.87 10.39 178.95 3.30999 187.66 3.30999ZM19.1 200.67C10.4 200.67 3.31 193.59 3.31 184.88C3.31 176.17 10.39 169.09 19.1 169.09C27.81 169.09 34.89 176.17 34.89 184.88C34.89 193.59 27.81 200.67 19.1 200.67Z" fill="black"/>
<path d="M103.38 76.47C89.31 76.47 77.86 87.92 77.86 101.99C77.86 116.06 89.31 127.51 103.38 127.51C117.45 127.51 128.9 116.06 128.9 101.99C128.9 87.92 117.45 76.47 103.38 76.47ZM103.38 124.26C91.1 124.26 81.11 114.27 81.11 101.99C81.11 89.71 91.1 79.71 103.38 79.71C115.66 79.71 125.65 89.7 125.65 101.99C125.65 114.28 115.66 124.26 103.38 124.26Z" fill="#FA198C"/>
</g>
<defs>
<clipPath id="clip0_6299_5546">
<rect width="206.75" height="203.98" fill="white"/>
</clipPath>
</defs>
</svg>
