<svg width="208" height="177" viewBox="0 0 208 177" fill="none" xmlns="http://www.w3.org/2000/svg">
<g clip-path="url(#clip0_6299_5526)">
<path d="M185.63 132.72C182.44 132.72 179.33 133.41 176.4 134.77L175.49 135.19L157.73 106.34L158.51 105.72C163.82 101.49 166.86 95.19 166.86 88.45C166.86 76.26 156.94 66.33 144.74 66.33C141.55 66.33 138.45 67.02 135.51 68.38L134.6 68.8L116.82 39.93L117.6 39.31C122.89 35.09 125.92 28.8 125.92 22.07C125.94 9.9 116.04 0 103.87 0C91.7 0 81.81 9.9 81.81 22.06C81.81 28.79 84.84 35.08 90.13 39.3L90.91 39.92L73.13 68.79L72.22 68.37C69.29 67.01 66.18 66.32 62.99 66.32C50.8 66.32 40.87 76.24 40.87 88.44C40.87 95.18 43.91 101.48 49.22 105.71L50 106.33L32.24 135.17L31.33 134.75C28.4 133.39 25.3 132.7 22.11 132.7C9.91999 132.7 -0.0100098 142.62 -0.0100098 154.82C-0.0100098 167.02 9.90999 176.94 22.11 176.94C33.29 176.94 42.73 168.58 44.06 157.49L44.18 156.5H81.8L81.92 157.49C83.25 168.58 92.69 176.94 103.87 176.94C115.05 176.94 124.49 168.58 125.82 157.49L125.94 156.5H163.56L163.68 157.49C165.01 168.58 174.45 176.94 185.63 176.94C197.83 176.94 207.75 167.02 207.75 154.82C207.75 142.62 197.83 132.7 185.63 132.7V132.72ZM185.63 173.59C175.28 173.59 166.87 165.17 166.87 154.83C166.87 144.49 175.29 136.07 185.63 136.07C195.97 136.07 204.39 144.49 204.39 154.83C204.39 165.17 195.97 173.59 185.63 173.59ZM103.87 173.59C93.52 173.59 85.11 165.17 85.11 154.83C85.11 144.49 93.53 136.07 103.87 136.07C114.21 136.07 122.63 144.49 122.63 154.83C122.63 165.17 114.21 173.59 103.87 173.59ZM93.73 41.68L94.65 42.1C97.56 43.45 100.67 44.13 103.87 44.13C107.07 44.13 110.14 43.46 113.04 42.13L113.94 41.72L131.76 70.57L130.98 71.19C125.67 75.42 122.63 81.72 122.63 88.46C122.63 95.2 125.67 101.5 130.98 105.73L131.76 106.35L114 135.19L113.09 134.77C110.16 133.41 107.01 132.73 103.87 132.73C100.73 132.73 97.58 133.41 94.64 134.77L93.73 135.19L75.97 106.35L76.75 105.73C82.06 101.5 85.1 95.2 85.1 88.46C85.1 81.72 82.06 75.42 76.75 71.19L75.97 70.57L93.73 41.69V41.68ZM52.86 108.1L53.77 108.52C59.64 111.24 66.36 111.23 72.22 108.52L73.13 108.1L90.89 136.94L90.11 137.56C85.6 141.16 82.61 146.49 81.92 152.16L81.8 153.15H44.18L44.06 152.16C43.37 146.48 40.39 141.16 35.87 137.56L35.09 136.94L52.85 108.1H52.86ZM134.62 108.1L135.53 108.52C141.39 111.24 148.11 111.24 153.98 108.52L154.89 108.1L172.65 136.94L171.87 137.56C167.36 141.16 164.37 146.49 163.68 152.16L163.56 153.15H125.94L125.82 152.16C125.13 146.49 122.15 141.16 117.63 137.56L116.85 136.94L134.62 108.1ZM125.99 88.45C125.99 78.1 134.41 69.69 144.75 69.69C155.09 69.69 163.51 78.11 163.51 88.45C163.51 98.79 155.09 107.21 144.75 107.21C134.41 107.21 125.99 98.79 125.99 88.45ZM62.99 69.68C73.34 69.68 81.75 78.1 81.75 88.44C81.75 98.78 73.33 107.2 62.99 107.2C52.65 107.2 44.23 98.78 44.23 88.44C44.23 78.1 52.65 69.68 62.99 69.68ZM103.87 3.3C114.22 3.3 122.63 11.72 122.63 22.06C122.63 32.4 114.21 40.82 103.87 40.82C93.53 40.82 85.11 32.4 85.11 22.06C85.11 11.72 93.53 3.3 103.87 3.3ZM22.12 173.59C11.77 173.59 3.35999 165.17 3.35999 154.83C3.35999 144.49 11.78 136.07 22.12 136.07C32.46 136.07 40.88 144.49 40.88 154.83C40.88 165.17 32.46 173.59 22.12 173.59Z" fill="black"/>
<path d="M103.87 0C91.7001 0 81.8101 9.9 81.8101 22.06C81.8101 34.22 91.7101 44.12 103.87 44.12C116.03 44.12 125.93 34.22 125.93 22.06C125.93 9.9 116.04 0 103.87 0ZM103.87 40.83C93.5201 40.83 85.1101 32.41 85.1101 22.07C85.1101 11.73 93.5301 3.3 103.87 3.3C114.21 3.3 122.63 11.72 122.63 22.06C122.63 32.4 114.21 40.82 103.87 40.82V40.83Z" fill="#FA198C"/>
</g>
<defs>
<clipPath id="clip0_6299_5526">
<rect width="207.75" height="176.95" fill="white"/>
</clipPath>
</defs>
</svg>
