<svg width="208" height="208" viewBox="0 0 208 208" fill="none" xmlns="http://www.w3.org/2000/svg">
<g clip-path="url(#clip0_6299_5536)">
<path d="M192.99 107.38L193.05 106.09H205.55C206.52 106.09 207.3 105.3 207.3 104.34C207.3 103.38 206.51 102.59 205.55 102.59H193.11L193.08 101.27C192.04 53.49 153.8 14.94 106.03 13.51L104.72 13.47V1.75C104.72 0.78 103.93 0 102.97 0C102.01 0 101.22 0.79 101.22 1.75V13.49L99.92 13.54C52.51 15.31 14.57 53.84 13.54 101.27L13.51 102.59H1.85C0.869996 102.59 0.0399964 103.34 -3.56522e-06 104.26C-0.0200036 104.74 0.149996 105.2 0.479996 105.55C0.809996 105.9 1.27 106.09 1.75 106.09H13.56L13.62 107.38C14.65 129.89 24.05 151.05 40.1 166.97C56.15 182.89 77.39 192.12 99.91 192.97L101.21 193.02V205.55C101.21 206.52 102 207.3 102.96 207.3C103.92 207.3 104.71 206.51 104.71 205.55V193.05L106.02 193.01C152.66 191.61 190.86 154 192.99 107.39V107.38ZM106.11 189.49L104.72 189.53V143.94L116.54 156.02C116.85 156.33 117.3 156.51 117.78 156.52H117.8C118.27 156.52 118.72 156.35 119.02 156.05C119.71 155.37 119.73 154.26 119.05 153.57L106.15 140.39C105.35 139.57 104.28 139.11 103.14 139.1H102.97C102.84 139.1 102.71 139.12 102.64 139.14L102.49 139.17C101.54 139.31 100.73 139.7 100.1 140.32L86.92 153.22C86.59 153.55 86.4 153.99 86.39 154.46C86.39 154.93 86.56 155.37 86.89 155.7C87.22 156.04 87.66 156.22 88.12 156.23C88.6 156.23 89.04 156.05 89.37 155.73L101.21 144.14V189.51L99.81 189.45C78.29 188.58 57.97 179.72 42.61 164.48C27.24 149.25 18.2 129.01 17.15 107.5L17.08 106.08H63.17L51.58 117.93C51.25 118.27 51.07 118.71 51.08 119.18C51.08 119.65 51.27 120.09 51.61 120.42C52.28 121.07 53.44 121.06 54.09 120.39L66.99 107.21C67.62 106.57 68.03 105.73 68.14 104.85L68.16 104.71C68.19 104.59 68.2 104.48 68.2 104.29C68.2 103.06 67.75 101.96 66.92 101.15L53.74 88.25C53.42 87.93 52.96 87.76 52.49 87.75C52.03 87.75 51.59 87.94 51.26 88.28C50.93 88.62 50.75 89.06 50.76 89.53C50.76 90 50.95 90.44 51.29 90.77L63.37 102.59H17.01L17.04 101.21C18.1 55.84 54.46 18.88 99.8 17.06L101.2 17V63.16L89.35 51.57C89.02 51.24 88.58 51.07 88.08 51.07C87.63 51.07 87.19 51.26 86.87 51.6C86.19 52.29 86.2 53.4 86.9 54.08L100.08 66.98C100.72 67.61 101.56 68.02 102.44 68.13L102.57 68.15C102.69 68.18 102.81 68.19 103.03 68.19C104.24 68.19 105.32 67.73 106.13 66.91L119.03 53.73C119.7 53.04 119.69 51.93 119 51.25C118.31 50.58 117.2 50.59 116.52 51.28L104.7 63.36V16.97L106.09 17.01C151.81 18.48 188.47 55.46 189.55 101.2L189.58 102.58H143.93L156.01 90.76C156.7 90.08 156.71 88.97 156.04 88.28C155.71 87.94 155.27 87.76 154.8 87.75C154.36 87.75 153.86 87.95 153.55 88.25L140.37 101.15C139.53 101.97 139.08 103.07 139.08 104.34C139.08 104.46 139.1 104.58 139.11 104.64L139.14 104.78C139.27 105.72 139.67 106.56 140.3 107.21L153.2 120.39C153.86 121.07 155.01 121.08 155.68 120.42C156.37 119.74 156.38 118.63 155.71 117.94L144.12 106.09H189.52L189.45 107.51C188.39 129.14 179.27 149.46 163.76 164.72C148.24 179.99 127.76 188.79 106.09 189.49H106.11Z" fill="black"/>
<path d="M103.3 78.91C89.88 78.91 78.95 89.83 78.95 103.26C78.95 116.69 89.87 127.61 103.3 127.61C116.73 127.61 127.65 116.69 127.65 103.26C127.65 89.83 116.73 78.91 103.3 78.91ZM103.3 124.15C91.78 124.15 82.41 114.78 82.41 103.25C82.41 91.72 91.78 82.35 103.3 82.35C114.82 82.35 124.19 91.72 124.19 103.25C124.19 114.78 114.82 124.15 103.3 124.15Z" fill="#FA198C"/>
</g>
<defs>
<clipPath id="clip0_6299_5536">
<rect width="207.3" height="207.3" fill="white"/>
</clipPath>
</defs>
</svg>
