<svg width="180" height="26" viewBox="0 0 180 26" fill="none" xmlns="http://www.w3.org/2000/svg">
<path d="M19.9221 18.8782C19.5012 18.8782 19.0803 19.0233 18.6594 19.4587C16.9758 21.2004 14.5908 22.2164 12.2058 22.2164C9.96103 22.2164 7.71629 21.2004 6.31333 19.6039C4.77007 17.8622 3.9283 15.3948 3.9283 12.9274C3.64771 8.13779 7.2954 3.92873 11.9252 3.78359C12.0655 3.78359 12.2058 3.78359 12.3461 3.78359C14.7311 3.78359 16.9758 4.65443 18.6594 6.39611C18.94 6.68639 19.3609 6.83153 19.7818 6.83153C20.7638 6.83153 21.7459 5.96069 21.7459 4.94471C21.7459 4.36415 21.4653 3.78359 21.0444 3.34817C18.6594 1.17106 15.5729 0.00994051 12.3461 0.155081C8.97896 0.155081 5.75214 1.46134 3.5074 3.92872C1.26267 6.39611 0 9.73433 0 13.0726C0 16.4108 1.26267 19.749 3.5074 22.2164C5.75214 24.6838 8.97896 25.99 12.2058 25.99C15.5729 26.1352 18.7997 24.6838 21.1847 22.3615C21.6056 22.0713 21.7459 21.4907 21.7459 20.9101C21.7459 19.749 20.9041 19.0233 19.9221 18.8782ZM37.3188 0.00993719C33.9517 0.00993719 30.7249 1.3162 28.3398 3.92872C26.0951 6.39611 24.8324 9.58919 24.8324 13.0726C24.8324 16.4108 25.9548 19.6039 28.1995 22.0712C33.1099 27.1512 41.1068 27.2963 46.0172 22.2164L46.1575 22.0712C48.4022 19.6039 49.6649 16.4108 49.6649 12.9274C49.6649 9.58919 48.5425 6.39611 46.2977 3.92872C43.9127 1.3162 40.6859 -0.135203 37.3188 0.00993719ZM45.7366 12.9274C46.0172 17.8622 42.3695 21.9261 37.5994 22.2164C37.4591 22.2164 37.3188 22.2164 37.1785 22.2164C34.7935 22.2164 32.689 21.2004 31.0055 19.4587C29.4622 17.717 28.6204 15.2497 28.6204 12.9274C28.3398 8.13779 31.9875 3.92873 36.7576 3.78359C36.8979 3.78359 37.0382 3.78359 37.1785 3.78359C39.5635 3.78359 41.668 4.79956 43.3515 6.54125C44.8948 8.13779 45.7366 10.46 45.7366 12.9274ZM71.972 0.155081C70.8496 0.155081 70.0078 1.02592 70.0078 2.18704V11.0406H57.802V2.18704C57.802 1.17106 56.9603 0.155081 55.8379 0.155081C54.8558 0.155081 53.8737 1.02592 53.8737 2.18704V23.6678C53.8737 24.6838 54.7155 25.6998 55.8379 25.6998C56.82 25.6998 57.802 24.8289 57.802 23.6678V14.6691H70.0078V23.6678C70.0078 24.6838 70.8496 25.6998 71.972 25.6998C72.954 25.6998 73.9361 24.8289 73.9361 23.6678V2.18704C73.9361 1.17106 73.0943 0.155081 71.972 0.155081ZM95.5417 21.9261H82.9151V14.8142H93.8582C94.8402 14.8142 95.682 13.9434 95.682 12.9274C95.682 11.9114 94.8402 11.0406 93.8582 11.0406H82.9151V4.07387H95.4014C96.3835 4.07387 97.2253 3.34817 97.2253 2.33218C97.2253 1.3162 96.5238 0.445362 95.5417 0.445362C95.5417 0.445362 95.5417 0.445362 95.4014 0.445362H81.0912C80.1091 0.445362 79.2674 1.3162 79.2674 2.47732V23.6678C79.2674 24.6838 80.1091 25.6998 81.0912 25.6998H95.682C96.6641 25.6998 97.5059 24.8289 97.3656 23.8129C97.3656 22.6518 96.5238 21.9261 95.5417 21.9261ZM129.634 0.155081C128.652 0.155081 127.81 1.02592 127.81 2.18704V23.6678C127.81 24.6838 128.652 25.6998 129.774 25.6998C130.756 25.6998 131.738 24.8289 131.738 23.6678V2.18704C131.598 1.02592 130.756 0.155081 129.634 0.155081ZM153.203 0.300219H137.069C136.087 0.300219 135.246 1.17106 135.246 2.18704C135.246 3.20302 136.087 4.07387 137.069 4.07387H143.242V23.6678C143.242 24.8289 144.084 25.6998 145.207 25.6998C146.329 25.6998 147.171 24.8289 147.171 23.6678V4.07387H153.344C154.326 4.07387 155.168 3.20302 155.168 2.18704C155.027 1.17106 154.186 0.445359 153.203 0.300219ZM177.896 0.155081C177.194 0.155081 176.493 0.590502 176.212 1.17106L169.057 11.9114L161.902 1.17106C161.481 0.590502 160.92 0.155081 160.218 0.155081C159.236 0.155081 158.254 1.02592 158.254 2.0419C158.254 2.47732 158.394 2.91275 158.675 3.34817L167.233 15.6851V23.6678C167.233 24.8289 168.075 25.6998 169.197 25.6998C170.32 25.6998 171.161 24.8289 171.161 23.6678V15.5399L179.579 3.34817C179.86 2.91275 180 2.47732 180 2.0419C179.719 1.02592 178.878 0.155081 177.896 0.155081ZM114.482 7.55723H109.01C108.028 7.41209 107.186 8.28293 107.046 9.29891C106.906 10.3149 107.747 11.1857 108.73 11.3309C108.87 11.3309 108.87 11.3309 109.01 11.3309H114.482C117.288 11.3309 119.532 13.6531 119.532 16.5559C119.532 19.4587 117.288 21.781 114.482 21.781H103.539C102.557 21.9261 101.715 22.797 101.855 23.8129C101.995 24.6838 102.697 25.4095 103.539 25.5546H114.482C119.252 25.5546 123.32 21.6358 123.32 16.7011C123.32 11.7663 119.532 7.55723 114.762 7.55723C114.622 7.55723 114.622 7.55723 114.482 7.55723Z" fill="black"/>
<path d="M108.87 18.4425H114.341C115.323 18.2973 116.165 17.4265 116.025 16.4105C115.885 15.5397 115.183 14.8139 114.341 14.6688H108.87C106.064 14.6688 103.819 12.3466 103.819 9.44376C103.819 6.54095 106.064 4.21871 108.87 4.21871H119.392C120.374 4.07357 121.216 3.20273 121.076 2.18675C120.935 1.31591 120.234 0.590209 119.392 0.445068H108.87C104.1 0.445068 100.031 4.36385 100.031 9.29862C100.031 14.2334 103.819 18.4425 108.589 18.4425C108.73 18.4425 108.87 18.4425 108.87 18.4425Z" fill="black"/>
</svg>
