<?xml version="1.0" encoding="UTF-8"?>
<svg xmlns="http://www.w3.org/2000/svg" version="1.1" viewBox="0 0 84 34">
  <!-- Generator: Adobe Illustrator 28.7.1, SVG Export Plug-In . SVG Version: 1.2.0 Build 142)  -->
  <g>
    <g id="Layer_1">
      <g>
        <path d="M0,8.5c2.5,1.1,4.9,2.3,7.4,3.4v3.3c-1.4-.7-2.9-1.3-4.3-2v6.9c1.4.7,2.9,1.3,4.3,2,0,1.1,0,2.2,0,3.3-2.5-1.1-4.9-2.3-7.4-3.4v-13.6Z"/>
        <path d="M14.7,8.5c0,4.5,0,9.1,0,13.6-2.5,1.1-4.9,2.3-7.3,3.4,0-1.1,0-2.2,0-3.3,1.4-.7,2.9-1.4,4.4-2v-6.9c-1.4.7-2.9,1.4-4.4,2v-3.3c2.3-1.1,4.8-2.2,7.2-3.4Z"/>
        <path d="M20.4,8.5c2,1.4,3.9,2.9,5.9,4.4,2-1.5,3.9-2.9,5.9-4.4v13.6h-3v-7.8c-1,.7-1.9,1.4-2.9,2.2-1-.7-1.9-1.4-2.9-2.2v7.8h-3v-13.6Z"/>
        <path d="M47.5,8.6h2.8c1.9,4.5,3.7,9,5.6,13.6h-3.1c-.3-.8-.6-1.6-.9-2.3h-4.7c-.3.8-.6,1.5-.9,2.3h-3.1c1.7-3.9,3.5-7.8,5.1-11.8-.3-.7-.5-1.2-.8-1.8ZM49.5,14c-.4,1-.8,2.1-1.2,3.1h2.5c-.5-1-.9-2.1-1.3-3.1Z"/>
        <path d="M59.6,8.8c1.2-.3,2.4-.3,3.5.2-.4.8-.8,1.7-1.1,2.5-.5-.2-1.2-.5-1.7,0-.6.5-.3,1.4-.4,2.1h1.8v2.5h-1.8v6.1h-2.7v-6.1h-1.2v-2.5h1.2c0-.9,0-1.8.3-2.7.4-1,1.2-1.7,2.2-2Z"/>
        <path d="M36.4,12.4c1.4-.6,3.1-.6,4.5,0,.9.5,1.8,1.2,2.3,2.2-.8.5-1.5.9-2.3,1.4-.4-.8-1.3-1.4-2.2-1.5-1.4,0-2.6,1.2-2.6,2.6s1.2,2.6,2.6,2.6c1,0,1.8-.6,2.2-1.5.8.5,1.5.9,2.3,1.4-.5.9-1.3,1.6-2.2,2.1-2,.9-4.2.7-5.9-.8-1.3-1.2-2-2.9-1.6-4.6.3-1.7,1.4-3.2,3-3.9Z"/>
        <path d="M63.6,13.9c1.8-2.2,5-2.6,7.2-1,1.6,1.1,2.2,3.2,2.1,5.1h-7.5c.5,1.2,1.7,1.9,2.9,1.7.6-.1,1.1-.4,1.5-.8.7.4,1.5.8,2.2,1.2-.8.9-1.8,1.5-2.9,1.8-2.1.6-4.3-.1-5.7-1.9-1.3-1.8-1.3-4.3,0-6.1ZM65.4,15.8h4.4c-.4-.8-1.2-1.4-2.1-1.4-1,0-1.9.5-2.3,1.4Z"/>
        <path d="M74.5,14.3c1.4-2.2,4.2-2.9,6.5-1.9,1.3.6,2.3,1.7,2.7,3.1.3.8.3,1.7.3,2.5h-7.5c.4,1.2,1.6,1.8,2.8,1.7.7-.1,1.2-.4,1.7-.8.7.4,1.5.8,2.2,1.2-.9,1.1-2.2,1.8-3.6,2-1.8.3-3.5-.4-4.8-1.8-1.4-1.8-1.6-4.2-.4-6.1ZM76.6,15.8h4.4c-.4-.9-1.3-1.5-2.3-1.4-1,0-1.8.6-2.1,1.4Z"/>
      </g>
    </g>
  </g>
</svg>