<?xml version="1.0" encoding="UTF-8"?>
<svg id="Logo_-_Black_Orange" data-name="Logo - Black Orange" xmlns="http://www.w3.org/2000/svg" version="1.1" viewBox="0 0 350 120">
  <defs>
    <style>
      .cls-1 {
        fill: #000;
        stroke-width: 0px;
      }
    </style>
  </defs>
  <path id="Path_39" data-name="Path 39" class="cls-1" d="M249.3,38.1h-40v-16.6h60.3v15.9l-34.2,69.8h-21.4l35.3-69.2Z"/>
  <path id="Path_40" data-name="Path 40" class="cls-1" d="M37.1,87.9l33.6-29.8,5.1-5.1c1.7-1.7,2.7-4.4,2.7-6.8s-1-5.1-3.1-6.8-4.7-2.4-7.5-2.4c-3.1-.3-5.8,1-8.1,3.1-2,2-3.1,4.7-3.4,7.8l-18.3-1.7c0-4.1,1-7.8,2.7-11.5,1.7-3.1,3.7-6.1,6.4-8.1,2.7-2.4,6.1-4.1,9.5-4.7,3.7-1,7.8-1.7,11.9-1.7s7.5.7,10.8,1.7c3.4,1,6.4,2.7,8.8,4.7,2.7,2,4.7,5.1,5.8,8.1,1.4,3.7,2.4,7.5,2,11.2,0,2.4-.3,5.1-1,7.5-.7,2-1.4,4.1-2.4,6.1-1,1.7-2.4,3.4-3.7,5.1s-3.1,3.1-4.4,4.4l-25.8,22.4h38.3v15.9h-60v-19.3Z"/>
  <path id="Path_41" data-name="Path 41" class="cls-1" d="M254.4,101.8c0-.7,0-1.7.3-2.4s.7-1.4,1.4-2c.7-.7,1-1,2-1.4,1.4-.7,3.1-.7,4.7,0,.7.3,1.4.7,2,1.4.7.7,1,1,1.4,2,.7,1.4.7,3.1,0,4.4-.3.7-.7,1.4-1.4,1.7-.7.7-1,1-2,1.4-1.4.7-3.1.7-4.7,0-.7-.3-1.4-.7-2-1.4-.7-.7-1-1-1.4-1.7-.3-.3-.3-1.4-.3-2"/>
  <path id="Path_42" data-name="Path 42" class="cls-1" d="M301.5,88.3h-3.7c-1.4,0-3.1.3-4.4.7s-2.7,1-3.7,2c-1,1-1.7,2-1.4,3.4,0,1.4.7,3.1,2,3.7s2.7,1,4.4,1,2.7-.3,3.7-.7c1-.3,2.4-.7,3.4-1.4,1-.7,1.7-1.4,2.4-2.4.7-1,1-2.4,1-3.7v-2.7h-3.7ZM304.6,101.8h0c-1.7,2.4-3.7,4.1-6.1,5.1-2.4,1-5.1,1.7-7.8,1.4-2,0-4.1-.3-5.8-.7-1.7-.7-3.4-1.4-5.1-2.7-1.4-1-2.7-2.7-3.4-4.1-1-1.7-1.4-3.7-1.4-5.8s.3-4.4,1.4-6.4c1-1.7,2.4-3.1,3.7-4.4,1.7-1,3.4-2,5.4-2.7,2-.7,4.1-1,6.4-1.4,2-.3,4.4-.3,6.4-.7h6.1c0-2-1-4.4-2.7-5.8-1.7-1.4-3.7-2-6.1-2s-4.1.3-6.1,1.4c-1.7,1-3.4,2.4-4.7,3.7l-7.1-7.5c2.4-2.4,5.4-4.1,8.8-5.1s6.8-1.7,10.5-1.7,6.8.3,9.8,1.4c2.4,1,4.4,2.4,6.1,4.4s2.7,4.4,3.1,7.1c.7,3.1,1,6.4,1,9.5v22h-12.5v-5.1Z"/>
  <path id="Path_43" data-name="Path 43" class="cls-1" d="M326,63.9h13.6v43.4h-13.6v-43.4ZM324.6,50.3c0-2,.7-4.1,2.4-5.4,3.1-3.1,8.1-3.1,11.2,0s3.1,7.8,0,10.8h0c-3.1,3.1-8.1,3.1-11.2,0-1.4-1.4-2.4-3.4-2.4-5.4"/>
  <path id="Path_44" data-name="Path 44" class="cls-1" d="M143.2,42.2h-.7l-16.3,32.5h17.6l-.7-32.5ZM143.9,90h-38.3v-15.3l27.1-53.2h28.8v53.2h11.2v15.3h-11.2v17.3h-17.6v-17.3Z"/>
  <path id="Path_45" data-name="Path 45" class="cls-1" d="M178.1,21.5h19.7v85.4h-19.7v-5.4h11.2V27.3h-11.2v-5.8Z"/>
  <path id="Path_46" data-name="Path 46" class="cls-1" d="M26.6,27.3h-11.2v74.2h11.2v5.8H7V21.5h19.7v5.8Z"/>
</svg>