<?xml version="1.0" encoding="UTF-8"?>
<svg id="Layer_1" data-name="Layer 1" xmlns="http://www.w3.org/2000/svg" version="1.1" viewBox="0 0 356 120">
  <defs>
    <style>
      .cls-1 {
        fill: #000;
        stroke-width: 0px;
      }
    </style>
  </defs>
  <path class="cls-1" d="M47.5,40.7c11.2,0,20.1,5.5,24,15.2.6,2.1,2.5,3.6,4.8,3.6h.3c2.4,0,4.5-1.9,4.5-4.5s-.1-2.4-.7-3.4c-5.1-12-17.6-19.7-33-19.7-22.8,0-38.8,16.7-38.8,40.7s15.8,40.5,38.8,40.5,28.3-8.2,33-21.1c.4-1,.6-2.1.6-3.1h0c0-2.8-2.1-4.9-4.8-4.9s-4,1.5-4.6,3.6c-4.5,11.4-13,16.7-24.2,16.7-17.2,0-28.9-13-28.9-31.7s12.1-31.8,29.1-31.8ZM155,34h-16.9V12.6c0-3.6-1.6-5.5-4.8-5.5s-4.9,2.1-4.9,5.5v93.9c0,3.3,1.6,5.4,4.8,5.4s4.9-2.1,4.9-5.4v-63.8h16.9c3,0,4.8-1.6,4.8-4.3s-1.8-4.3-4.8-4.3ZM211.2,34.9c-3.9-2.1-8.2-3.1-12.7-3-7.2-.1-14,3-18.3,8.7v-1.9c0-3.6-1.6-5.5-4.8-5.5s-4.9,2.1-4.9,5.5v67.9c0,3.4,1.8,5.4,4.9,5.4s4.8-1.9,4.8-5.4v-44.7c0-11.5,6.7-20.6,17.2-20.6,2.8-.1,5.5.4,7.9,1.6,1,.6,2.2,1,3.6,1h.4c2.5,0,4.5-2.1,4.5-4.6s-.9-3.4-2.5-4.3ZM228.7,33.1c-3.1,0-4.9,2.1-4.9,5.5v67.9c0,3.3,1.6,5.4,4.8,5.4s4.9-2.1,4.9-5.4V38.6c0-3.6-1.6-5.5-4.8-5.5ZM103.3,33.1c-3.1,0-4.9,2.1-4.9,5.5v67.9c0,3.3,1.6,5.4,4.8,5.4s4.9-2.1,4.9-5.4V38.6c0-3.6-1.6-5.5-4.8-5.5ZM103.3,7.1c-4.3,0-7.8,3.5-7.8,7.8s3.5,7.8,7.8,7.8,7.8-3.5,7.8-7.8-3.5-7.8-7.8-7.8ZM290.8,72.3l26.8-30.9c1-.9,1.6-2.2,1.6-3.6h0c0-2.7-2.2-4.6-4.8-4.5-1.5,0-2.8.7-3.7,1.9l-26,30.6-26-30.6c-.9-1.2-2.2-1.9-3.7-1.9h-.1c-2.7-.1-4.8,1.9-4.8,4.5s.6,2.7,1.6,3.6l26.8,30.9-27.9,31.7c-.9.9-1.3,2.1-1.3,3.4,0,2.5,2.1,4.5,4.6,4.5s3-.7,3.9-1.9l26.7-31.4,26.8,31.4c.9,1.2,2.4,1.9,3.9,1.9,2.5.1,4.6-1.9,4.6-4.5s-.4-2.5-1.3-3.4l-27.9-31.7ZM347.6,102.8l-2.5,6-.3,1-.4-1-2.5-6h-1.3v8.4h1v-7c-.1,0,.1.6.1.6l2.7,6.3h.9l2.7-6.3v-.6c.1,0,0,1.6,0,1.6v5.4h1v-8.4h-1.3ZM331.9,103.7h2.8v7.5h1.2v-7.5h2.8v-.9h-6.9v.9ZM284.6,22.6c4.3,0,7.8-3.5,7.8-7.8s-3.5-7.8-7.8-7.8-7.8,3.5-7.8,7.8,3.5,7.8,7.8,7.8Z"/>
</svg>