<?xml version="1.0" encoding="UTF-8"?>
<svg id="Layer_1" data-name="Layer 1" xmlns="http://www.w3.org/2000/svg" version="1.1" viewBox="0 0 447.7 146.4">
  <defs>
    <style>
      .cls-1 {
        fill: #fff;
        stroke-width: 0px;
      }
    </style>
  </defs>
  <g id="aAsset-1">
    <g id="Layer_2" data-name="Layer 2">
      <g id="Layer_1-2" data-name="Layer 1-2">
        <path id="Shape" class="cls-1" d="M48,127.4c-10.9-.3-20.8-3.5-29.1-10.6-6.9-5.6-11.3-13.6-12.7-22.2-.9-5.6.6-10.6,4.7-14.8.3-.3.3-.6.5-.9s0-.6-.3-.9c-5.3-8.8-6.2-18-3.6-27.6,1.4-6.7,4.8-12.8,9.9-17.5,6.5-6,14.5-9.9,23.1-11,12.8-2.1,24.3.9,34.4,8.8,8.6,6.5,13.4,15.4,14.3,26.1.5,4.7-1.4,8.6-4.7,11.8s-.9,1.4-.3,2.6c6.2,10.9,6.7,22.3,1.4,33.6-5.1,11-14,17.5-25.3,21-3.9,1.2-8,1.8-12.2,1.8h-.1ZM27.3,59.2c0-4.7,1.8-9.2,5.3-12.5,5.1-4.8,11.3-6.2,18.2-5.1,8.6,1.4,16,7.4,16.9,15.7.3,2.3,3.2,3.9,5.7,3.5,2.6-.5,4.4-2.7,3.9-5.3-.6-5.6-3.2-10.6-7.4-14.3-9-8.3-19.3-11-31.1-8-9.7,2.3-16.9,7.8-20.2,17.5-3.2,9.5-1.4,19.1,6.7,25.6,4.8,3.9,9.9,7.4,14.9,10.9.9.6,1.6,1.4,1.8,2.6.5,3.2,3.5,5.3,6.7,5.1,3.5-.5,5.7-3,5.7-6.2s-1.2-4.2-3.2-5.6c-6-3.9-12.5-8.6-18.7-13.1-3.5-2.6-5.1-6.2-5.3-10.6h.1ZM45.3,114.7c8.3,0,13.9-1.4,18.9-4.4,8.6-5.1,13.1-12.5,13.4-22.3.3-6.9-2.6-12.7-7.8-17.3-4.7-4.2-9.9-7.7-14.9-11-1.2-.5-1.8-1.6-2.1-2.7-.5-3-3.5-5.1-6.5-4.8-3.2.3-5.7,2.7-6,6,0,2.3,1.2,4.2,3,5.6,6,4.2,11.8,8.3,17.8,12.5,2.3,1.6,4.4,3.6,5.6,6.5,2.6,5.7.9,13.1-4.2,17.8-5.1,4.8-11.3,6.2-18.2,5.3-8.6-1.4-16-7.4-17-15.7-.3-2.3-3.2-3.9-5.7-3.6-2.6.5-4.4,2.7-4.2,5.3.6,5.6,3.2,10.6,7.4,14.3,6.9,6.2,14.5,9,20.8,9l-.4-.3Z"/>
      </g>
    </g>
  </g>
  <g>
    <path class="cls-1" d="M158.4,89.8c0,5.3-1.7,9.5-5.2,12.6-3.5,3.1-8.2,4.7-14.3,4.7s-13.5-.9-18.9-2.9l2.5-8.4c2.2.9,4.7,1.7,7.4,2.3,2.7.6,5.7.9,9,.9s5.8-.8,7.7-2.3c1.8-1.6,2.7-3.6,2.7-6.2s-.4-3.4-1.3-4.7c-.9-1.2-2.2-2.5-4.2-3.6s-4.5-2.5-7.8-3.9c-5.1-2.1-8.8-4.7-11.3-7.7s-3.8-6.5-3.8-10.6,1.7-8.2,4.9-10.8c3.2-2.7,7.8-4,13.4-4s4.5.1,6.7.5c2.2.3,5.3,1,9.3,2.2l-2.3,8c-2.2-.6-4.4-1.3-6.6-1.9-2.2-.6-4.7-.9-7.1-.9s-5.2.6-6.7,1.8-2.3,2.9-2.3,5.1.9,4.2,2.9,5.8,5.4,3.5,10.5,5.7c5.1,2.2,8.8,4.7,11.2,7.5,2.3,2.9,3.6,6.4,3.6,10.5v.3Z"/>
    <path class="cls-1" d="M195.5,106.2v-31.3c0-2.9-.8-5.1-2.2-6.6-1.4-1.6-3.5-2.3-6.1-2.3-4.7,0-8.8,1.4-12.5,4.2v36.2h-8.8V41.4h8.8v22.1c2.1-1.4,4.3-2.6,6.7-3.4,2.3-.9,5.2-1.3,8.4-1.3s8,1.3,10.6,4,3.9,6.5,3.9,11.2v32.4h-9Z"/>
    <path class="cls-1" d="M240.9,106.2l-1.4-4c-2.5,1.7-4.8,2.9-7.1,3.6-2.3.8-4.9,1.2-7.5,1.2-4.3,0-7.7-1.2-10.1-3.6s-3.8-5.7-3.8-10,2.1-9.1,6.4-11.5c4.2-2.5,11.4-3.9,21.7-4.4v-2.7c0-2.9-.9-5.2-2.6-6.7-1.7-1.7-4-2.5-6.9-2.5s-8,.9-12.2,2.6l-2.2-6.6c4.8-1.8,9.9-2.9,15-2.9s10,1.3,13.1,4c3.1,2.7,4.5,6.5,4.5,11.3v32.2h-6.9ZM238.8,83.7c-7,.4-12.1,1.4-14.9,2.9-2.9,1.6-4.3,3.8-4.3,7s.6,3.8,1.9,4.9c1.3,1.3,3,1.8,5.1,1.8,3.9,0,7.9-1.2,12.2-3.6v-13.1h0Z"/>
    <path class="cls-1" d="M257.9,59.5h7.1l.9,5.6c3-4.3,6.7-6.5,11.2-6.5s4,.3,5.4.6l-1.2,8.3c-1.4-.4-3.2-.6-5.4-.6s-3.4.4-4.9,1.3c-1.6.9-3,2.2-4.3,3.9v34.1h-8.8v-46.7h0Z"/>
    <path class="cls-1" d="M322.9,84.3h-29.1c0,5.2,1.2,9.1,3.4,11.8s5.7,4,10.2,4,4.7-.3,7.4-.9,4.9-1.3,6.7-2.1l1.8,6.9c-2.3,1-4.9,1.8-8,2.3-3,.5-6,.8-8.8.8-7.1,0-12.5-1.9-16.2-6-3.6-4-5.6-9.9-5.6-17.5s1.7-14.1,5.1-18.4c3.4-4.3,8.2-6.5,14.5-6.5s10.6,1.8,13.9,5.6c3.1,3.6,4.7,9.1,4.7,16.2v3.9h0ZM314.2,78c0-4-.8-7.1-2.3-9.3-1.6-2.2-3.9-3.2-7.1-3.2s-5.6,1-7.5,3.2-3,5.3-3.4,9.3h20.4,0Z"/>
    <polygon class="cls-1" points="332.6 106.2 332.6 46.3 364.7 46.3 364.7 50.3 337.1 50.3 337.1 72.6 362.6 72.6 362.6 76.7 337.1 76.7 337.1 106.2 332.6 106.2"/>
    <path class="cls-1" d="M371.9,45.9c0-.9.3-1.6.9-2.2s1.3-.9,2.2-.9,1.7.3,2.3.9.9,1.4.9,2.2-.3,1.7-.9,2.2c-.6.6-1.4.9-2.3.9s-1.6-.3-2.2-.9-.9-1.3-.9-2.2ZM373,106.2v-46.3h4.3v46.3h-4.3Z"/>
    <rect class="cls-1" x="391.4" y="41.4" width="4.3" height="65"/>
    <path class="cls-1" d="M441.6,83.4h-30.9c0,6.5,1.4,11.3,4.2,14.8,2.7,3.4,6.7,5.1,12.2,5.1s8.7-1,13.9-3.2l1,4c-2.2.9-4.7,1.7-7.4,2.3s-5.3.9-7.9.9c-6.6,0-11.7-1.9-15.2-6-3.5-4-5.2-9.7-5.2-17.4s1.6-14,4.7-18.2c3.1-4.3,7.7-6.4,13.4-6.4s9.9,1.7,12.8,5.2c3,3.5,4.4,8.6,4.4,15.4v3.5h0ZM437.1,79.5c0-5.4-1-9.5-3.1-12.3-2.1-2.7-5.3-4.2-9.5-4.2s-7.1,1.4-9.5,4.2-3.6,6.9-4.2,12.3h26.2,0Z"/>
  </g>
</svg>