<?xml version="1.0" encoding="UTF-8"?>
<svg xmlns="http://www.w3.org/2000/svg" version="1.1" viewBox="0 0 115.9 34">
  <!-- Generator: Adobe Illustrator 28.7.1, SVG Export Plug-In . SVG Version: 1.2.0 Build 142)  -->
  <g>
    <g id="Layer_1">
      <g>
        <path d="M48.3,9.7C46-2.1,24.5-2.9,10.6,6.1v1C24.4-.5,44.1-.4,45.9,10.4c.6,3.6-1.3,7.3-4.7,9.5v2.8c4.1-1.6,8.3-6.8,7.1-13.1ZM23,30.3c-9.6.9-19.6-.5-21-8.5-.7-3.9,1-8.1,3.2-10.7v-1.4C1.3,13.5-.9,18.2.4,23.8c1.6,7.2,10.2,11.3,23.3,9.9,5.2-.5,12-2.3,16.7-5.1v-3.9c-4.3,2.7-11.3,5-17.2,5.5Z"/>
        <path d="M39.5,8h-2.5v11.9c0,1.4.6,2.6,2.5,2.8"/>
        <path d="M9.6,12.3h-2.5v7.8c0,1.4.6,2.6,2.5,2.8"/>
        <path d="M7.1,8.3h2.5v2.5h-2.5v-2.5Z"/>
        <path d="M24.6,22.8c-2,0-2.9-1.5-2.9-3v-10.3h2.5v2.9h1.9v2.1h-1.9v5.2c0,.6.3.9.9.9h1v2.2h-1.5Z"/>
        <path d="M31.2,14.3c-.8,0-1.5.5-1.8,1.1-.2.4-.2.7-.2,1.1h3.8c0-1.1-.5-2.2-1.8-2.2ZM29.2,18.4c0,1.4.8,2.4,2.2,2.4s1.7-.3,2.3-1l1.5,1.6c-1,1-2,1.7-3.8,1.7s-4.7-1.4-4.7-5.4,2-5.4,4.6-5.4,4.2,2.3,4.2,5.3v1h-6.3Z"/>
        <path d="M16.3,14.4c.7,0,1,.4,1,1v7.3h2.5v-7.3c0-1.5-.7-3.1-2.9-3.1h-5.1v10.5h2.5v-8.3"/>
        <path d="M41.9,7.9c.2,0,.3,0,.5.1.2,0,.3.2.4.4,0,.2.1.3.1.5s0,.3-.1.5c0,.2-.2.3-.4.4-.2,0-.3.1-.5.1s-.3,0-.5-.1c-.2,0-.3-.2-.4-.4,0-.2-.1-.3-.1-.5s0-.3.1-.5c0-.2.2-.3.4-.4.2,0,.3-.1.5-.1ZM41.9,8.1c-.1,0-.3,0-.4.1-.1,0-.2.2-.3.3,0,.1-.1.3-.1.4s0,.3.1.4c0,.1.2.2.3.3.1,0,.3.1.4.1s.3,0,.4-.1c.1,0,.2-.2.3-.3,0-.1.1-.3.1-.4s0-.3-.1-.4c0-.1-.2-.2-.3-.3-.1,0-.3-.1-.4-.1ZM41.5,9.5v-1.1h.4c.1,0,.2,0,.3,0,0,0,.1,0,.1.1,0,0,0,.1,0,.2s0,.1,0,.2c0,0-.1,0-.2,0,0,0,0,0,0,0,0,0,0,.1.2.2v.2c.1,0,0,0,0,0v-.2c-.2-.1-.2-.2-.3-.3,0,0,0,0-.1,0h-.1v.5h-.2ZM41.7,8.9h.2c.1,0,.2,0,.2,0,0,0,0,0,0-.1s0,0,0,0c0,0,0,0,0,0,0,0,0,0-.2,0h-.2v.3Z"/>
        <path d="M115.9,12.5c0,.2,0,.4,0,.6v1.9c0,.3,0,.7-.1,1-.3,2.6-1.2,4.9-3,6.7-.9.9-1.8,1.6-2.9,2.1,0-.2,0-.4,0-.6,0,0,0,0,.1,0,2.1-1.1,3.6-2.8,4.5-5.1.5-1.3.8-2.6.8-4,0-.7,0-1.3,0-2,.2-.1.3-.4.5-.4Z"/>
        <path d="M51.9,21.6c.2-.2.3-.4.5-.7.5.4,1,.7,1.7.9.9.2,1.8.3,2.7-.1,1-.5,1.3-1.5,1-2.4-.1-.4-.4-.7-.8-.9-.5-.3-1-.4-1.6-.5-.5-.2-1.1-.3-1.6-.5-.7-.3-1.3-.8-1.5-1.6-.4-1.4.1-2.8,1.7-3.3,1.5-.5,2.9-.3,4.2.4,0,0,.2.1.3.2-.1.2-.3.4-.4.6-.2-.1-.5-.3-.7-.4-1.1-.4-2.2-.5-3.2,0-.7.3-1,.8-1.1,1.6,0,.7.4,1.3,1,1.6.6.3,1.3.4,1.9.6.5.2,1,.3,1.5.6,1,.6,1.3,1.4,1.2,2.5-.1,1.3-.8,2.1-2,2.4-1.7.5-3.3.2-4.7-.9,0,0,0,0-.1-.1Z"/>
        <path d="M60.9,19.1c0,1.4.6,2.7,2.1,2.9.9.1,1.7,0,2.4-.6.1.2.2.4.4.6-.4.3-.9.6-1.4.7-.7.2-1.3.1-2,0-.9-.2-1.6-.8-2-1.8-.5-1.4-.6-2.8,0-4.1.5-1.1,1.4-1.7,2.6-1.7.5,0,1,0,1.4.2.9.4,1.3,1.1,1.5,2.1.1.6.1,1.1,0,1.7h-5.1ZM65.2,18.4c0-.3,0-.5,0-.8-.1-.9-.6-1.5-1.3-1.6-.5-.1-.9,0-1.4,0-1,.3-1.6,1.3-1.6,2.3h4.3Z"/>
        <path d="M94.1,15.3c.3,0,.5,0,.8,0,.1,0,.1,0,.2.2.6,1.6,1.2,3.3,1.9,4.9.2.4.3.8.5,1.3.1-.3.2-.5.3-.7.7-1.8,1.4-3.7,2.1-5.5,0-.1.1-.2.2-.2.2,0,.4,0,.7,0,0,0,0,.1,0,.1-1.2,3-2.3,5.9-3.5,8.9-.1.3-.3.6-.5.9-.3.4-.6.6-1,.7-.3,0-.6,0-.9,0v-.7c.2,0,.5,0,.7,0,.4,0,.6-.3.8-.6.3-.5.5-1.1.7-1.7,0,0,0-.2,0-.2-.9-2.3-1.8-4.7-2.7-7,0,0,0-.2,0-.3Z"/>
        <path d="M80,15.3s0,0,0,0v7.2s0,0,0,0c-.2,0-.3,0-.5,0-.2,0-.3-.2-.3-.4,0-.2,0-.5,0-.8-.1.2-.3.4-.4.6-.6.7-1.4.9-2.2.8-.6,0-1.1-.2-1.5-.6-.4-.4-.6-1-.7-1.6,0-.3,0-.6,0-.9v-4.4h.8c0,0,0,.2,0,.2,0,1.5,0,3.1,0,4.6,0,.3,0,.5.1.8.2.7.7,1.1,1.4,1.1,1.3,0,2.2-.8,2.4-2.2,0-.5,0-1,0-1.5,0-.9,0-1.9,0-2.8,0,0,0-.2,0-.2.3,0,.5,0,.8,0Z"/>
        <path d="M109.9,24.2c0,.2,0,.4,0,.6-.3,0-.6-.3-.9-.4-.8-.5-1.5-1-2.2-1.7-.6-.7-1.2-1.4-1.6-2.2-.7-1.3-1.1-2.7-1.3-4.2,0-.5-.1-1-.1-1.5,0-.7,0-1.4,0-2,0-.2,0-.3.3-.4,1.1-.3,2.2-.5,3.2-.6,1.2-.2,2.3-.2,3.5-.1,1.1,0,2.2.2,3.2.4.5.1,1.1.2,1.6.4,0,0,.2,0,.2.1-.2,0-.3.3-.5.4-.5-.1-1.1-.3-1.6-.4-1.1-.2-2.2-.3-3.3-.4-.6,0-1.2,0-1.8,0-.2,0-.4,0-.7,0-.6,0-1.1.1-1.7.2-.6,0-1.2.2-1.8.4,0,0-.1,0-.1.1,0,.1,0,.3,0,.4,0,1,0,2,.2,3.1.2,1.2.5,2.4,1.1,3.5.8,1.6,2,2.9,3.5,3.8.2.2.5.3.8.4Z"/>
        <path d="M72.8,15.8c-.1.2-.2.4-.4.6-.3-.2-.7-.4-1.1-.5-.5,0-1.1,0-1.6.1-.6.2-1.1.7-1.3,1.3-.4,1-.4,2.1,0,3.1.3.9,1,1.4,1.8,1.5.8.1,1.5,0,2.2-.4,0,0,0,0,0,0,.1.2.2.4.3.6-.4.3-.8.5-1.3.6-.7.2-1.5.1-2.2-.1-1-.3-1.6-1.1-1.9-2.1-.3-1.1-.3-2.2,0-3.3.5-1.4,1.5-2,2.8-2.2.6,0,1.2,0,1.8.2.2,0,.5.2.7.4Z"/>
        <path d="M90.5,16.1h-1.2v-.7h1.3v-1.9h.9v1.9h1.8v.7h-1.8c0,0,0,.2,0,.2,0,1.4,0,2.8,0,4.3s0,.4,0,.6c0,.4.3.6.7.7.3,0,.5,0,.8,0,.1,0,.2,0,.3,0v.7c-.7,0-1.4.1-2.1-.4-.4-.3-.5-.7-.6-1.2,0-.2,0-.5,0-.7,0-1.4,0-2.7,0-4.1,0,0,0-.2,0-.3Z"/>
        <path d="M85.7,16c-.3,0-.5,0-.8,0-1.1.1-1.8.8-2,1.9,0,.4-.1.8-.1,1.2,0,1.1,0,2.2,0,3.3s0,0,0,.2h-.8v-7.3c.2,0,.4,0,.6,0,.2,0,.2.2.2.4,0,.3,0,.6,0,.8,0,0,0,0,0,0,.4-.8,1.1-1.2,2-1.3.2,0,.5,0,.7,0,0,0,.1,0,.1.1,0,.2,0,.4,0,.7Z"/>
        <path d="M87.9,15.3c0,0,0,.1,0,.2v7.1h-.8c0,0,0-.1,0-.2v-7c0,0,0-.1,0-.2.3,0,.5,0,.8,0Z"/>
        <path d="M88,12.4v1.1h-1v-1.1h1Z"/>
        <path d="M87.9,15.3c-.3,0-.5,0-.8,0,.3,0,.5,0,.8,0Z"/>
        <path d="M79.2,15.3c.3,0,.5,0,.8,0-.3,0-.5,0-.8,0Z"/>
        <path d="M105.3,13.6c3,.3,6,.3,9,0,0,.4,0,.7,0,1.1,0,1-.1,2.1-.4,3.1-.4,1.3-.9,2.5-1.8,3.5-.6.7-1.3,1.3-2.2,1.8-.1,0-.3,0-.4,0-1.4-.8-2.5-1.9-3.3-3.4-.6-1.2-.9-2.5-1-3.8,0-.7,0-1.4,0-2.1,0,0,0,0,0-.1ZM107.8,14.6c-.3,1.7-.5,3.3-.8,5h1.2c.1-.9.3-1.8.4-2.7,0,0,0,0,0,0,.2.9.4,1.8.6,2.7h1.3s0,0,0,0c-.5-1.6-1-3.2-1.5-4.8,0,0,0-.1-.1-.1-.4,0-.7,0-1.1,0ZM112.6,19.6c0-.1,0-.2,0-.3-.2-1.5-.4-3-.6-4.5,0-.1,0-.1-.1-.1-.3,0-.6,0-1,0,0,0-.1,0-.2.1,0,.3-.2.6-.3.9-.1.3-.2.6-.3,1,0,.2,0,.3,0,.5,0,.3.2.5.3.8.1.3.2.7.3,1.1.1-.7.3-1.4.4-2,0,0,0,0,0,0,.1.9.2,1.8.4,2.7h1.1Z"/>
      </g>
    </g>
  </g>
</svg>