<svg xmlns="http://www.w3.org/2000/svg" id="Layer_1" data-name="Layer 1" version="1.1" viewBox="6 23.1 406.6 111.67">
  <defs>
    <style>
      .cls-1 {
        fill: #fff;
        stroke-width: 0px;
      }
    </style>
  </defs>
  <g>
    <g>
      <path class="cls-1" d="M86.4,122.6c-33.5,3.1-68.3-1.8-73.2-27.9-2.4-12.9,3.5-26.6,11.3-35.1v-4.5c-14,12.3-21.6,27.9-17.3,46.3,5.6,23.6,35.5,37,81.2,32.5,18.1-1.8,41.7-7.6,58.2-16.6v-12.8c-14.9,8.9-39.6,16.2-60.2,18.2ZM174.5,54.8c-7.9-38.7-83.2-41.2-131.7-11.7v3.3c48.4-24.9,117.1-24.8,123.4,10.9,2.1,11.8-4.6,24.1-16.4,31.2v9.3c14.3-5.2,29-22.2,24.7-43Z"/>
      <path class="cls-1" d="M143.9,49.2h-8.8v39.1c0,4.6,2.2,8.6,8.8,9.2v-48.3Z"/>
      <path class="cls-1" d="M39.4,63.4h-8.8v25.5c0,4.6,2.2,8.6,8.8,9.2v-34.7Z"/>
      <rect class="cls-1" x="30.6" y="50.4" width="8.8" height="8.3"/>
      <path class="cls-1" d="M92,97.8c-7.1,0-10.1-4.9-10.1-9.8v-33.9h8.7v9.4h6.5v7h-6.5v17c0,2,.9,3.1,3,3.1h3.5v7.2h-5.1"/>
      <path class="cls-1" d="M108,83.3c0,4.5,2.8,7.7,7.7,7.7s5.8-1.1,8-3.3l5.4,5.1c-3.4,3.4-7.1,5.5-13.4,5.5s-16.3-4.5-16.3-17.8,7-17.7,16.1-17.7,14.6,7.5,14.6,17.3v3.1h-22.1M115,70.1c-3,0-5.3,1.5-6.2,3.6-.6,1.2-.8,2.2-.8,3.7h13.4c-.2-3.7-1.9-7.3-6.3-7.3Z"/>
      <path class="cls-1" d="M63,70.5c2.5,0,3.6,1.3,3.6,3.3v24h8.7v-24.1c0-4.9-2.6-10.3-10.2-10.3h-18s0,34.4,0,34.4h8.7v-27.3h7.2Z"/>
      <path class="cls-1" d="M153.3,56.2c-1.9,0-3.5-1.6-3.5-3.5s1.5-3.5,3.5-3.5,3.5,1.6,3.5,3.5-1.6,3.5-3.5,3.5ZM153.3,49.8c-1.6,0-2.9,1.3-2.9,2.9s1.3,2.9,2.9,2.9,2.9-1.3,2.9-2.9-1.3-2.9-2.9-2.9ZM154.9,54.8h-.7c0,0-.1,0-.1,0l-.9-1.5s-.1,0-.1,0h-.4v1.5c0,0,0,.2-.2.2h-.6c0,0-.1,0-.1-.2v-3.8c0-.2,0-.3.3-.3.2,0,.8,0,1.1,0,1.1,0,1.7.3,1.7,1.3h0c0,.7-.3,1-.8,1.2l.9,1.6s0,0,0,.1c0,0,0,.1-.1.1ZM154,51.8c0-.4-.3-.6-.8-.6h-.6v1.2c0,0,.5,0,.6,0,.6,0,.8-.2.8-.6h0Z"/>
    </g>
    <g>
      <path class="cls-1" d="M200.5,65c-2.8,0-5,.6-6.5,1.7-1.6,1.1-2.3,2.7-2.3,4.7s.4,2.4,1.2,3.5c.8,1.1,2.2,1.9,4.3,2.5l6.9,2c2.5.7,4.4,1.8,5.7,3.1,1.3,1.4,1.9,3.2,1.9,5.4s-.3,2.9-.8,4.1c-.6,1.2-1.4,2.3-2.4,3.1-1.1.9-2.3,1.5-3.8,2-1.5.5-3.1.7-5,.7s-4.8-.4-6.8-1.2c-2-.8-3.8-1.8-5.1-3l1.6-2.2c1.4,1.2,2.9,2,4.6,2.7,1.7.6,3.6.9,5.6.9s5-.6,6.6-1.9c1.6-1.2,2.4-2.9,2.4-5.1s-.5-3-1.4-3.9c-.9-1-2.3-1.7-4.1-2.2l-7-1.9c-2.4-.7-4.2-1.7-5.5-3.1-1.3-1.4-2-3.3-2-5.5s.3-2.6.8-3.7c.5-1.1,1.3-2.1,2.3-2.9,1-.8,2.2-1.4,3.7-1.9,1.5-.4,3.2-.7,5-.7s3.7.2,5.5.7c1.8.5,3.4,1.3,4.8,2.3l-1.4,2.2c-1.2-.8-2.5-1.4-3.9-1.8-1.5-.4-3.1-.7-4.8-.7Z"/>
      <path class="cls-1" d="M219.1,85.2c0,3.1.8,5.5,2.4,7.3s3.9,2.6,6.8,2.6,2.4-.2,3.5-.5c1.2-.3,2.2-.8,3.1-1.6l1.3,2.1c-.8.7-1.9,1.3-3.2,1.8-1.4.5-2.9.8-4.8.8s-3.7-.3-5.2-.9c-1.5-.6-2.8-1.5-3.8-2.6-1-1.1-1.8-2.5-2.3-4.1-.5-1.6-.8-3.4-.8-5.4s.3-3.7.8-5.2c.5-1.6,1.3-2.9,2.3-4.1,1-1.1,2.2-2,3.6-2.6,1.4-.6,3-.9,4.8-.9s3,.3,4.2.8c1.2.5,2.2,1.3,3,2.2.8,1,1.4,2.1,1.8,3.3.4,1.3.6,2.6.6,4.1s0,1.9-.2,2.8h-17.9ZM227.6,74.4c-2.5,0-4.5.8-6,2.3-1.5,1.5-2.3,3.5-2.5,6.1h15.3v-.8c0-2.4-.6-4.2-1.7-5.5-1.1-1.3-2.8-2-5.1-2Z"/>
      <path class="cls-1" d="M253.6,97.7c-1.5,0-3-.2-4.4-.7-1.4-.5-2.7-1.2-3.8-2.2-1.1-1-2-2.3-2.6-4-.7-1.6-1-3.6-1-5.9s.3-3.8.8-5.4c.5-1.6,1.3-3,2.4-4.1,1-1.1,2.3-2,3.8-2.6,1.5-.6,3.2-.9,5.1-.9s2.7.2,4,.5c1.3.4,2.3.9,3.2,1.7l-1.3,2.1c-.6-.5-1.4-.9-2.3-1.2-.9-.3-2-.5-3.4-.5-3,0-5.3.9-6.9,2.7-1.6,1.8-2.4,4.4-2.4,7.7s.2,3.3.7,4.6c.4,1.3,1.1,2.3,1.9,3.2.8.8,1.8,1.4,2.9,1.8s2.3.6,3.7.6,2.4-.2,3.4-.5c1-.3,1.9-.7,2.6-1.3l1.2,2.1c-.9.7-1.9,1.2-3.3,1.6-1.3.4-2.7.6-4.2.6Z"/>
      <path class="cls-1" d="M283.3,92.9c-.7,1.4-1.7,2.6-3.1,3.5s-3.1,1.4-5.3,1.4-4.9-.8-6.4-2.5c-1.5-1.7-2.3-4.1-2.3-7.4v-15.3h2.9v14.8c0,2.6.5,4.5,1.5,5.8,1,1.3,2.5,1.9,4.7,1.9s4.5-.9,5.9-2.6c1.4-1.7,2.1-4.3,2.1-7.7v-12.3h2.9v24.5h-1.5c-.9,0-1.4-.4-1.4-1.3v-2.9Z"/>
      <path class="cls-1" d="M293.1,72.5h1.5c.9,0,1.4.4,1.4,1.3v3.3c.7-1.6,1.8-2.8,3.2-3.7,1.4-.8,3.1-1.3,5-1.3s.9,0,1.2,0c.4,0,.6,0,.8.1v2.4h-1.7c-2.9,0-5.1.9-6.5,2.7-1.4,1.8-2.1,4.6-2.1,8.3v11.4h-2.9v-24.5Z"/>
      <path class="cls-1" d="M310.9,62.9h3.4v3.8h-3.4v-3.8ZM314.1,72.5v24.5h-2.9v-24.5h2.9Z"/>
      <path class="cls-1" d="M326.4,74.9v14.8c0,1.9.4,3.2,1.2,3.9.8.7,2.1,1,4.1,1h1.3v2.4c-.6.1-1.3.2-2.2.2-2.5,0-4.4-.6-5.5-1.8-1.1-1.2-1.7-3.1-1.7-5.7v-14.8h-4.5v-2.4h4.5v-6.4h2.9v6.4h6.5v2.4h-6.5Z"/>
      <path class="cls-1" d="M339.6,105.3c.7,0,1.3,0,1.8-.2.5-.2.9-.4,1.3-.7.4-.3.7-.8,1-1.3.3-.5.6-1.2.9-2l1.6-3.8-10.2-24.7h3.2l8.5,21.4,8.5-21.4h3.1l-11.7,28.4c-.5,1.2-1,2.3-1.4,3.1-.4.9-.9,1.6-1.5,2.1-.5.5-1.1.9-1.8,1.2-.7.2-1.5.4-2.6.4s-.8,0-1,0c-.3,0-.5,0-.8-.1v-2.4h1.3Z"/>
    </g>
  </g>
  <g>
    <path class="cls-1" d="M412.1,62.9c-.9-.3-10.9-2.8-21-2.8s-20.2,2.6-21,2.8c0,.3-.3,2.1-.3,5.3,0,8.6,2.2,27.3,21.4,36.1,19.2-8.7,21.4-27.5,21.4-36.1s-.3-5-.3-5.3ZM391.1,102.2c-17.3-8.1-19.4-25.6-19.4-33.9,0-1.7,0-3.1.2-3.8,1.7-.4,10.4-2.4,19.3-2.4s17.6,2,19.3,2.4c0,.7.2,2,.2,3.8,0,8.3-2.2,25.8-19.4,33.9Z"/>
    <path class="cls-1" d="M406.9,66.7c-.4,0-6.8.8-15.9.8s-15.4-.8-15.9-.8c0,1.1-.1,2.2-.1,3.3,0,20.7,13.4,27.4,16,28.5,2.6-1.1,16-7.8,16-28.5s0-2.1-.1-3.3ZM388.2,69.9l5.5,17.2h-4.9l-2.1-9.6-1.5,9.6h-4.2l2.7-17.2h4.4ZM401.1,87.1h-4.2l-1.4-9.6-1.5,7.3-2.3-7.4,2.5-7.5h4.4l2.5,17.2Z"/>
  </g>
</svg>