<?xml version="1.0" encoding="UTF-8"?>
<svg id="Layer_1" data-name="Layer 1" xmlns="http://www.w3.org/2000/svg" version="1.1" viewBox="0 0 625 302">
  <defs>
    <style>
      .cls-1 {
        fill: #fff;
        stroke-width: 0px;
      }
    </style>
  </defs>
  <g>
    <path class="cls-1" d="M35.2,69.9c0,.2,0,.5.2.6,0,.2,0,.4.1.6.1.1.3.2.4.1,1.9,1.7,3.7,3.5,5.3,5.5,0,0,0,0,0,0,0,0,0,0,0,0,.1,0,.2,0,.2.1,0,0,0,0,.1,0,0,0,.1,0,.2,0,0,0,.1,0,.2,0,0,0,0,0,.1,0,0,0,.1,0,.1,0,0,0,.1,0,.1-.1,0,0,0,0,0,0,9.7-12.2,20.8-26.4,29.8-39.2,0-.1.2-.3.1-.5,0-.4,0-.8,0-1.2,0-1.1.3-2.1.5-3.5,0-.5,0-1.1.1-1.7,0-.1,0-.2,0-.2,0,0,0,0,0-.1,0,0,0,0,0-.1,0,0,0,0-.1-.1-1.2-1-2-1.8-2.8-2.5-.8-.7-1.8-1.3-3.1-1.8-.3-.1-.7,0-.9.3-4.9,6.4-9.8,12.9-14.8,19.3-4.7,6.1-9.4,12.2-15,17.4,0,0-.2.2-.2.2h0c0,.1,0,.2,0,.2,0,0,0,0,0,.1,0,0,0,.1,0,.2,0,0,0,0,0,0,0,1,0,1.8-.1,2.7,0,.9-.2,2-.5,3.6ZM70.8,36.9c-8.4,12-18.7,25.2-27.9,36.9.2-1.2.3-2.5.5-3.7,9-11.4,19.2-24.4,27.8-36.5-.1.7-.2,1.4-.3,2.2,0,.3,0,.7,0,1.1ZM40.5,73.3c.1-.2.1-.3.1-.5.4-.7.7-1.5,1.1-2.2-.2,1.2-.3,2.4-.5,3.6-.2-.3-.5-.6-.7-.9ZM39.4,72.3c-.3-.3-.6-.6-1-.9.6-1,1.2-2,1.8-2.9.2.3.5.5.7.8-.5,1-1,2-1.5,3.1ZM37.5,70.5c-.1-.1-.3-.3-.4-.4,0,0,0-.1,0-.2.6-1,1.2-2,1.8-3,.2.2.4.4.6.6-.6,1-1.2,2-1.8,3ZM37.2,67.3c0-.3,0-.6,0-.8,0-.3,0-.6,0-.9.2.2.4.3.6.5-.2.4-.5.8-.7,1.2ZM52.5,46.4c4.8-6.3,9.6-12.6,14.4-18.9.8.3,1.4.7,2,1.2.6.5,1.3,1.2,2.2,2-8.7,12.3-19.3,25.9-28.7,37.7-1.5-1.7-3-3.4-4.7-4.9,5.6-5.2,10.2-11.2,14.8-17.2Z"/>
    <path class="cls-1" d="M38.5,50.3c.2,0,.4,0,.6,0,0,0,.2,0,.2,0,.9,0,1.8,0,2.5-.2,3.2-.7,5.7-3.2,7.1-5.9,1.2-2.3,1.8-5.8,2.1-9.4,0-.2,0-.4-.2-.6,0-2-.2-4-.9-5.9-.3-.9-.8-1.8-1.4-2.5-1.2-1.5-3.1-2.3-4.9-2.5-1.5-.1-3.1,0-4.4.7-3,1.4-5.1,4.1-6.4,6.9-.6,1.4-1.1,2.9-1.3,4.4,0,0-.1.2-.2.3-.3,1.5-.7,3.1-.9,4.7-.2,2.1,0,4.2,1.1,6,1.7,2.6,4.4,3.7,6.8,3.9ZM32.2,41c0,0,0,.1,0,.2,0,0,0-.1,0-.2ZM33,42.7c.1.2.2.3.3.5-.2.5-.5,1-.7,1.6,0-.2-.2-.4-.2-.6.2-.5.4-1,.6-1.5ZM33.5,46c.3-.6.6-1.2.8-1.9.3.2.5.5.8.7-.3.7-.6,1.3-.9,2-.2-.2-.5-.5-.7-.8ZM35.2,47.5c0,0,0-.2,0-.3.3-.6.6-1.2.9-1.8.3.2.6.3.9.4-.4.7-.8,1.4-1.1,2.1-.2-.1-.5-.2-.7-.4ZM37.1,48.3c.3-.8.7-1.5,1.2-2.1.4.1.9.2,1.3.3.1,0,.3,0,.4,0-.3.7-.6,1.5-1,2.2-.1,0-.2,0-.4,0-.5,0-1.1-.2-1.6-.3ZM40.4,48.6c.3-.6.6-1.3.8-1.9,0-.1.1-.2.2-.3.3,0,.6,0,.9-.1.2,0,.3,0,.5-.1-.3.7-.7,1.4-1,2.1,0,0,0,.1,0,.2,0,0,0,0-.1,0-.4,0-.8.1-1.2.2ZM44.8,46.6c0,0,0,.2,0,.3-.5.4-.9.7-1.5,1,.4-.8.8-1.6,1.1-2.3.3-.2.6-.3.9-.5-.2.5-.4,1.1-.6,1.6ZM46.7,44.7c.2-.4.3-.9.5-1.3.2-.3.5-.5.7-.8-.1.3-.2.6-.4.8-.2.5-.5.9-.8,1.3ZM34.3,31.6c1.2-2.6,3-5,5.6-6.1,1.1-.5,2.4-.7,3.6-.6,1.5.1,2.9.8,3.8,1.9.5.6.8,1.3,1.1,2.1.7,1.9,1,4,.8,6-.2,1.7-.6,3.3-1.4,4.8-1.2,2.4-3.4,4.5-6,5.1-.7.2-1.5.2-2.2.1-1.9-.2-3.7-1.1-4.9-2.5-1.4-1.7-1.9-3.9-1.6-6.3.1-1.5.6-3,1.2-4.4Z"/>
    <path class="cls-1" d="M75.4,54.9c-1.2-1.5-3.1-2.3-4.9-2.5-1.5-.1-3.1,0-4.4.7-3,1.4-5.1,4.1-6.4,6.9-.6,1.4-1.1,2.9-1.3,4.4,0,0-.1.2-.2.3-.3,1.5-.7,3.1-.9,4.7-.2,2.1,0,4.2,1.1,6,1.7,2.6,4.4,3.7,6.8,3.9.2,0,.4,0,.6,0,0,0,.2,0,.2,0,.9,0,1.8,0,2.5-.2,3.2-.7,5.7-3.2,7.1-5.9,1.2-2.3,1.8-5.8,2.1-9.4,0-.2,0-.4-.2-.6,0-2-.2-4-.9-5.9-.3-.9-.8-1.8-1.4-2.5ZM59.5,73.9c0-.2-.2-.4-.2-.6.2-.5.4-1,.6-1.5.1.2.2.3.3.5-.2.5-.5,1-.7,1.6ZM59,70.2c0,0,0,.1,0,.2,0,0,0-.1,0-.2ZM60.3,75.1c.3-.6.6-1.2.8-1.9.3.2.5.5.8.7-.3.7-.6,1.3-.9,2-.2-.2-.5-.5-.7-.8ZM62,76.7c0,0,0-.2,0-.3.3-.6.6-1.2.9-1.8.3.2.6.3.9.4-.4.7-.8,1.4-1.1,2.1-.2-.1-.5-.2-.7-.4ZM63.9,77.5c.3-.8.7-1.5,1.2-2.1.4.1.9.2,1.3.3.1,0,.3,0,.4,0-.3.7-.6,1.5-1,2.2-.1,0-.2,0-.4,0-.5,0-1.1-.2-1.6-.3ZM67.2,77.8c.3-.6.6-1.3.8-1.9,0-.1.1-.2.2-.3.3,0,.6,0,.9-.1.2,0,.3,0,.5-.1-.3.7-.7,1.4-1,2.1,0,0,0,.1,0,.2,0,0,0,0-.1,0-.4,0-.8.1-1.2.2ZM71.6,75.7c0,0,0,.2,0,.3-.5.4-.9.7-1.5,1,.4-.8.8-1.6,1.1-2.3.3-.2.6-.3.9-.5-.2.5-.4,1.1-.6,1.6ZM73.5,73.8l.5-1.3c.2-.3.5-.5.7-.8-.1.3-.2.6-.4.8-.2.5-.5.9-.8,1.3ZM76.1,64c-.2,1.7-.6,3.3-1.4,4.8-1.2,2.4-3.4,4.5-6,5.1-.7.2-1.5.2-2.2.1-1.9-.2-3.7-1.1-4.9-2.5-1.4-1.7-1.9-3.9-1.6-6.3.1-1.5.6-3,1.2-4.4,1.2-2.6,3-5,5.6-6.1,1.1-.5,2.4-.7,3.6-.6,1.5.1,2.9.8,3.8,1.9.5.6.8,1.3,1.1,2.1l.8-.3-.8.3c.7,1.9,1,4,.8,6Z"/>
  </g>
  <g>
    <path class="cls-1" d="M260.1,75.3c.2.1.5,0,.6-.1,2-3,3.9-6,5.9-9,.1-.2,0-.5-.1-.6-.2-.1-.5,0-.6.1-2,3-3.9,6-5.9,9-.1.2,0,.5.1.6Z"/>
    <path class="cls-1" d="M262.7,66.5c-.1-.2-.4-.2-.6-.1-.5.4-.8.9-.8,1.5,0,.2,0,.4.1.6,0,.2.3.3.6.3.2,0,.3-.3.3-.6v-.3c0-.3.1-.6.3-.8.2-.1.2-.4.1-.6Z"/>
    <path class="cls-1" d="M265.6,72.3c-.4.1-.7.2-1.1.4-.2,0-.4.3-.3.6,0,.2.3.4.6.3.4-.1.7-.2,1.1-.4.2,0,.4-.3.3-.6,0-.2-.3-.4-.6-.3Z"/>
    <path class="cls-1" d="M251.9,72.6c-.2,0-.3.3-.2.5,0,.2.2.3.4.4.4,0,.7,0,1,0,.6,0,1,0,1.5-.1.5,0,.9-.1,1.6-.1.2,0,.4-.2.4-.4s-.2-.4-.4-.4c-.7,0-1.3,0-1.8.1-.3,0-.5,0-.8,0,.3-.2.6-.5.8-.8.6-.6.9-1.4,1-2.2h0c0-.6-.3-1-.6-1.2-.3-.3-.7-.4-1.1-.4-.2,0-.3,0-.5,0-.4,0-.9.3-1.3.7-.4.4-.8,1-.8,1.9v.2c0,.2.2.4.5.4.2,0,.4-.2.4-.5h0c0-.6.2-1,.6-1.3.3-.3.7-.5.9-.5.1,0,.3,0,.4,0,.3,0,.4,0,.5.2.1.1.2.3.3.6,0,.6-.3,1.1-.8,1.6-.5.5-1.1,1-1.9,1.4Z"/>
    <path class="cls-1" d="M259.8,71.8c.4-.5.7-1.3.7-2,0-.4-.1-.9-.4-1.3-.3-.4-.7-.7-1.3-.8-.2,0-.3,0-.5,0-.8,0-1.5.5-1.9,1.1-.4.6-.6,1.3-.6,1.9,0,.3,0,.6.2.8.4.7,1.2,1.1,2,1.1.6,0,1.3-.2,1.8-.8ZM256.8,71.1c0,0,0-.2,0-.4,0-.4.2-1,.5-1.5.3-.5.7-.7,1.1-.7,0,0,.2,0,.3,0,.4.1.7.3.8.5.1.2.2.4.2.7,0,.5-.2,1.1-.5,1.5-.2.3-.6.5-1.1.5-.6,0-1.1-.3-1.2-.6Z"/>
    <path class="cls-1" d="M197.3,37.1c-2.3,3.6-3.5,8-3.5,12.4,0,0,0,.2,0,.3-.3,1.4-.4,2.8-.4,4.3,0,1.8.2,3.7.7,5.5,0,0,0,0,0,.1-.1.3,0,.6.3.8.2.8.5,1.5.7,2.3,0,.2,0,.4.2.5.3.8.6,1.5,1,2.3-.1.3,0,.6.3.7,0,0,.1,0,.2,0,.3.5.5,1,.8,1.4h0c0,.3.2.5.4.6.4.6.9,1.2,1.4,1.8,0,.2,0,.5.3.6,0,0,.2,0,.2,0,.2.2.4.5.6.7,1.4,1.4,3.4,3.3,6.4,4.8,0,0,0,.1,0,.2.1.3.5.4.8.3.8.4,1.7.7,2.7,1.1,0,.2.1.5.4.6.3,0,.5,0,.7-.2.7.2,1.4.4,2.1.5,0,.3.1.6.4.6.3,0,.6,0,.7-.4.7,0,1.3.2,2,.3,0,.1.2.2.3.3.2,0,.5,0,.7-.2.8,0,1.5,0,2.3,0,1,0,2.1,0,3.2-.2,0,.2.2.3.4.3.3,0,.5,0,.6-.3h0c1.1-.2,2.2-.4,3.4-.6.3,0,.5-.4.5-.7,0-.1-.1-.3-.2-.3.2-.8.3-1.6.4-2.5.2.2.3.5.5.7.5.7,1,1.3,1.5,1.8.1.1.2.1.3.2,0,0,0,0,0,0,0,0,.2,0,.3,0,1.3-.5,2.6-1,3.8-1.6.1,0,.2,0,.3-.2.7-.4,1.4-.8,2-1.2.2,0,.5,0,.6-.3,0,0,0-.1,0-.2,1.2-.8,2.2-1.7,3.2-2.6l4.3,5.4c.1.1.3.2.5.2h14.6c.3,0,.6-.3.6-.6s-.3-.6-.6-.6h-14.3s-4.2-5.4-4.2-5.4c1-1.1,1.8-2.2,2.4-3.5.1,0,.2-.2.2-.2v-.2c.1-.1.1-.2.2-.4,0-.5.2-1.4.3-2.4,0,0,0,0,0,0,0,.3.2.5.4.7.2.1.4.2.6.2.1,0,.3,0,.4-.1.1,0,.3-.2.4-.4,1.7-3.5,2.2-7.3,2.2-11.1,0-.1,0-.3,0-.4,0-1.1,0-2.3-.2-3.4v-1.2c-.4-2.3-.7-4.6-1.1-6.9,0-.2-.2-.4-.4-.5-.1-.1-.3-.2-.5-.1,0,0,0,0,0,0-2.2.5-4.9,1.5-7.8,2.5,2.2-1,4.3-2,6.2-2.9.2,0,.3-.2.3-.4.3-1.9.8-3.8,1.2-5.7.3-.1.4-.5.3-.8-.5-1-1.1-2-1.8-2.9-1.6-2-3.8-3.6-6.2-4.9l-1.1-.6c-2.9-1.3-6.1-2.1-9.2-2.4-1-.1-2.1-.2-3.1-.2-.2,0-.4.1-.5.3-.2,0-.3.2-.4.5-1.1,8.7-2.2,14.2-2.7,22.8,0,0-.2.2-.2.3-.1.8-.2,2.2-.2,3.2,0,0-.2,0-.2,0,0-.9,0-3.1,0-5.8s0-7.7,0-11.3c0-1.8,0-3.5.1-4.8,0-1.3.1-2.3.2-2.6,0,0,0,0,0,0,0,0,0,0,0,0,0,0,0-.1,0-.2,0,0,0,0,0,0,0,0,0,0,0,0,0,0,0,0,0,0,0,0,0,0-.1,0,0,0,0,0-.1,0,0,0,0,0-.1,0,0,0,0,0,0,0-9,.6-17.7,4.5-22.6,11.3M194.7,55.8c.2.6.3,1.1.5,1.6,0,.2-.2.3-.3.5-.1-.7-.2-1.4-.3-2.2ZM196.4,60.2c-.2.4-.4.8-.6,1.2-.2-.6-.3-1.1-.5-1.7.1-.3.3-.6.4-.9.2.5.4.9.7,1.3ZM200.1,64.9c.4.3.7.7,1.1,1-.5,1-.9,2.1-1.4,3.1-.4-.5-.7-1-1.1-1.5.4-.9.8-1.8,1.4-2.6ZM198,66.3c-.2-.3-.3-.5-.5-.8.4-.7.7-1.4,1.1-2.1.2.2.4.4.6.7-.5.7-.9,1.5-1.2,2.2ZM196.9,64.3c-.2-.5-.4-.9-.6-1.4.3-.5.6-1,.9-1.5.2.4.5.7.7,1.1-.3.6-.6,1.2-.9,1.8ZM200.7,70c.5-1.1,1-2.2,1.5-3.4.4.3.9.6,1.3.9-.6,1.2-1.2,2.4-1.8,3.6-.1-.1-.2-.2-.3-.3-.2-.3-.5-.5-.7-.8ZM209.5,70.7c-.8,1.4-1.5,2.8-2.3,4.2,0,0,0,.2-.1.3-.7-.4-1.3-.8-1.9-1.2.6-1.5,1.4-2.9,2.3-4.2.7.3,1.4.7,2.1.9ZM215.8,72.5c-.7,1.7-1.4,3.5-1.9,5.2-.7-.1-1.4-.3-2-.5.7-1.7,1.5-3.4,2.3-5.1.5.1,1.1.2,1.6.3ZM210.7,76.8c-1-.3-1.9-.7-2.7-1.1,0,0,0-.2.1-.2.8-1.5,1.6-2.9,2.4-4.4.8.3,1.6.5,2.5.8-.9,1.6-1.6,3.3-2.3,5ZM204.1,73.3c-.6-.4-1.1-.9-1.6-1.3.6-1.3,1.2-2.5,1.9-3.8.6.4,1.2.7,1.8,1.1-.8,1.3-1.6,2.6-2.2,4.1ZM217,72.6c.6,0,1.3.1,1.9.2-.7,1.8-1.4,3.6-2.1,5.4-.6,0-1.3-.1-1.8-.2.6-1.8,1.2-3.6,2-5.3ZM220.5,72.8c.6,0,1.2,0,1.9,0-.8,1.8-1.6,3.7-2.4,5.5,0,0,0,0,0,0-.6,0-1.3,0-1.9,0,.7-1.8,1.4-3.6,2.1-5.4.1,0,.3,0,.4,0ZM243.8,35.7c-.5,1.8-1.2,3.5-1.8,5.2-.3.2-.7.3-1,.5.6-1.8,1.3-3.5,2-5.3.3-.2.6-.3.9-.4ZM239.6,41.7v.2s0,.2,0,.2c-.5.2-.9.4-1.4.7.5-1.6,1-3.2,1.4-4.8.6-.3,1.2-.6,1.8-.9-.6,1.6-1.2,3.1-1.7,4.7ZM228.9,74.2c0,0,.2-.2.2-.3.2-.9.5-1.7,1-2.5.2-.3.4-.7.6-1.1,0,.4,0,1-.1,1.8-.1,0-.3.1-.3.3-.4.7-.7,1.4-1.1,2.1,0,0-.2-.2-.2-.3ZM226.7,77.7s0,0-.1,0c0-.1.1-.3.2-.4,0,.1,0,.2,0,.4ZM224.7,56.3c0,0,0-.1,0-.2-.8-1.4-1.5-2.8-2.1-4,.7.3,1.5.7,2.4,1.1,2.7,1.2,6.2,2.7,9.5,4.1,0,.1.1.2.3.3.1,0,.3,0,.4,0,2.7,1.1,5.1,2.2,6.9,2.9,0,0,.2.2.3.2,0,0,.2,0,.3,0,.3.1.6.2.8.3,0,0,0,0,0,.1,0,.2,0,.4,0,.6-.5.6-1,1.2-1.7,1.8,0,0-.1.1-.2.2-1,.9-2.1,1.9-3.4,2.8l-2.7-3.4c-.2-.3-.6-.3-.8-.1-.3.2-.3.6-.1.8l2.6,3.3c-1.6,1-3.3,1.9-5.3,2.6,0,0,0-.1,0-.2-.3-.6-.8-1.7-1.6-3.2,0,0,0,0,0-.1,0,0,0-.2-.1-.2-1.4-2.7-3.4-6.3-5.2-9.7ZM224.3,58.1c.1.2.3.5.4.7-.2.4-.4.9-.6,1.3-.1-.3-.2-.6-.3-.9,0,0,0,0,.1-.2.2-.3.3-.6.4-.9ZM222.3,50.4c.6.3,1.5.6,2.7,1.1,0,.1,0,.3-.1.4-1-.5-1.9-.9-2.7-1.2,0,0,0-.2,0-.3ZM226.3,52c.3,0,.6.2.8.3,0,.2-.1.3-.2.5-.3-.1-.6-.3-.9-.4,0,0,0,0,0-.1,0-.1,0-.2,0-.4,0,0,.1,0,.2,0ZM229.8,53.3c-.1.2-.2.4-.4.6-.5-.2-1-.4-1.5-.6,0-.2.2-.4.2-.6.5.2,1,.4,1.6.6ZM240.4,56.9c-.3.4-.6.9-.8,1.3-.7-.3-1.3-.6-2.1-.9.3-.4.5-.8.7-1.2.7.3,1.5.5,2.2.7ZM245.2,58.8s0,0,0,0c-.4.3-.8.7-1.1,1.2-.2,0-.4-.2-.7-.3.3-.6.6-1.1,1.1-1.5.3.1.6.2.8.3,0,.1,0,.2,0,.3ZM242.2,59.3c-.5-.2-.9-.4-1.5-.6.2-.5.5-.9.8-1.3,0,0,0,0,0,0,.5.2,1,.4,1.5.5-.4.5-.7,1-.9,1.5ZM236.5,56.9c-.2,0-.5-.2-.7-.3.2-.4.3-.7.5-1.1.3,0,.6.2.8.3-.2.4-.4.8-.6,1.1ZM234.7,56.1c-.6-.2-1.2-.5-1.8-.8,0,0,0,0-.1,0,.1-.3.3-.6.4-.9.6.2,1.3.4,1.9.7-.2.3-.3.7-.5,1ZM231.8,54.9c-.4-.2-.8-.3-1.2-.5.1-.2.3-.5.4-.7.4.1.8.3,1.2.4-.1.3-.3.5-.4.8ZM239.9,66.9c0,0,0-.2,0-.2.4-.3.8-.6,1.2-.9-.3,1.1-.6,2.3-.9,3.4l-.7-.8c.1-.5.3-.9.4-1.4ZM229.5,67.7c.2.3.3.6.4.8,0,0,0,.2,0,.3h0c0,.4,0,.6-.2.9-.2.3-.4.6-.6,1-.3.4-.5.9-.7,1.4,0-.3,0-.6,0-.9,0-.3-.2-.5-.4-.5,0,0,0,0,0-.1.5-1,1-2,1.5-3,0,0,0,.1,0,.1ZM230.3,74.7c0,.4,0,.8-.1,1.2,0-.1-.2-.3-.3-.4.1-.3.3-.5.4-.8ZM231.6,73.9c.1-1.1.2-2.1.3-2.9.7-.2,1.3-.5,1.9-.7-.6,2-1.2,3.9-1.9,5.9,0,0,0,0,0,.1-.2,0-.4.1-.6.2,0-.7.2-1.7.3-2.6ZM235.2,69.6s0,0,0,0c.2-.1.5-.2.7-.4-.5,2-1.1,4.1-1.9,6.1-.3.1-.5.3-.8.4.6-2,1.3-4,1.9-6ZM237.3,68.5s0,0,0,0c.2-.1.4-.2.5-.3l.4.5c-.5,1.8-1,3.5-1.6,5.3-.3.2-.7.4-1,.6.7-2,1.3-3.9,1.7-5.9ZM239.1,69.7l.6.8c-.1.4-.3.8-.4,1.2-.4.3-.7.7-1.1,1,.3-1,.6-2,.9-3ZM242.6,64.4c.4-.4.7-.7,1.1-1.1,0,.5-.1.9-.2,1.4,0,.6-.1,1.2-.2,1.6,0,.1,0,.2,0,.3-.5,1.1-1.2,2.1-2,3.1.5-1.7,1-3.5,1.4-5.3ZM245.9,63.3c.1-1.6.3-3.1.4-4.7,0,0,.1-.1.2-.2.5-1.4.9-3,1.1-4.6,0,3.3-.5,6.5-1.7,9.5ZM246.2,42.5c.4,2,.6,4.1.6,6.2,0,.2,0,.4,0,.7v1.3c-.2,2.3-.6,4.5-1.2,6.6,0,0-.1,0-.2,0-1.8-.6-4.3-1.5-7-2.4,0,0-.1-.1-.2-.2,0,0-.2,0-.3,0-1.6-.5-3.2-1.1-4.7-1.6-1.7-.6-3.3-1.1-4.7-1.6,0-.2-.2-.3-.4-.3-.1,0-.3,0-.4,0-.3-.1-.6-.2-.9-.3,0,0-.1,0-.2,0,0,0,0-.1-.1-.2-.2-.2-.4-.2-.7,0-.4-.1-.8-.3-1.1-.4,1.3-.4,3.1-1,5.2-1.8.2,0,.4,0,.5-.2,1.4-.5,3-1.1,4.5-1.7,4-1.5,8.3-3.1,11.3-3.9ZM236.7,43.4c-.9.4-1.7.8-2.6,1.2.6-1.5,1.2-3,1.8-4.5,0,0,0-.1,0-.2.7-.4,1.4-.8,2.1-1.2-.4,1.6-.9,3.2-1.4,4.7ZM232.6,45.3c-.5.2-.9.4-1.4.6.5-1.2,1-2.4,1.6-3.6.1-.2,0-.5,0-.6.6-.3,1.1-.6,1.7-1-.6,1.5-1.2,3.1-1.8,4.6ZM229.7,46.6c-.3.2-.7.3-1,.5.4-1.1.9-2.3,1.2-3.5,0,0,0-.2,0-.3.5-.3,1-.6,1.5-.9-.7,1.4-1.3,2.8-1.8,4.2ZM227.2,47.7c-.3.1-.6.3-.9.4-.1,0-.2.2-.3.3-.3,0-.5.2-.7.3.3-1,.6-2,1.1-3,0,0,0-.2,0-.3.6-.4,1.4-.8,2.1-1.3-.4,1.2-.8,2.4-1.3,3.5ZM223.9,49.1c-.6.2-1.1.3-1.2.3-.1,0-.1,0-.2,0,0,0,0,0-.1,0,0-.5,0-1.1,0-1.6,0,0,.1,0,.3-.1.4-.2,1.1-.6,2-1.2-.3.9-.6,1.7-.8,2.6ZM222.7,55c0,.2-.1.3-.2.4-.2-.7-.4-1.4-.6-2,.3.5.5,1,.8,1.6ZM223.4,56.3c0,.1.1.2.2.3,0,.3-.2.7-.3,1,0-.2-.1-.4-.2-.6.1-.2.2-.5.3-.7ZM224.6,61.7c.3-.6.5-1.1.8-1.6.2.4.4.7.6,1.1-.3.6-.6,1.3-.9,1.9-.2-.5-.3-.9-.5-1.4ZM226.7,62.4c.3.5.6,1.1.8,1.6-.5.7-.9,1.5-1.3,2.2-.2-.5-.4-1-.6-1.6.3-.7.7-1.5,1-2.2ZM226.8,67.6c.4-.8.8-1.6,1.3-2.4.2.4.4.8.6,1.2-.5.9-1,1.8-1.5,2.7-.2-.5-.4-.9-.6-1.4,0,0,0,0,0-.1ZM227.2,72.1c0,0,0,.1,0,.2,0,.5,0,1,0,1.5-.1,0-.2.1-.3.3-.6,1.3-1.1,2.6-1.7,3.9-.2,0-.4,0-.7,0,.7-2,1.5-3.9,2.4-5.9.1,0,.2,0,.3,0ZM223.2,78.2c-.7,0-1.3.1-1.9.1.8-1.9,1.6-3.8,2.4-5.6.6,0,1.2-.1,1.8-.2-.8,1.9-1.6,3.8-2.3,5.7ZM244.1,39.9c-.2.1-.5.2-.7.3.6-1.5,1.1-3,1.5-4.5-.3,1.4-.6,2.7-.9,4.2ZM225.4,24.2c.9,0,1.8,0,2.8.2,2.9.3,5.8,1,8.5,2.1l1.1.5c2.4,1.2,4.6,2.7,6.2,4.7.5.6.9,1.3,1.3,2-.9.4-1.8.8-2.7,1.3-.2,0-.4,0-.6.3-3.6,1.8-7.7,4.2-11.3,6.2-2.4,1.4-4.6,2.8-6.2,3.7-.7.4-1.3.8-1.7,1,.5-8.2,1.6-13.7,2.7-22.1ZM203.8,42.8,198.8,37c4.5-6.3,12.6-10.1,21.2-10.9,0,.5,0,1.2-.1,2-.2,3.9-.2,11-.2,16.1s0,4.9,0,5.8c0,0,0,.2,0,.2,0,0,0,.2,0,.3.2.7,1,3.2,2,6.2,0,0,0,.1,0,.2-.1.3,0,.6.3.8,0,0,.1,0,.2,0,.7,2.1,1.5,4.5,2.3,6.7,0,.2,0,.3.2.5.8,2.3,1.6,4.4,2.2,5.9,0,0-.1,0-.2,0-.2,0-.3,0-.4,0-1.8.3-3.7.6-5.6.6s-.1,0-.2,0c0-.1-.2-.2-.3-.3-.3-.1-.5,0-.7.2-1.6,0-3.2-.3-4.8-.6,0-.1-.1-.2-.2-.3-.2-.1-.5,0-.7,0-1.9-.5-3.9-1.2-5.8-2.2,0-.1-.1-.2-.2-.3-.2-.1-.3-.1-.5,0-1.7-.9-3.4-2-5.1-3.2-2.6-2-4.4-4.6-5.6-7.6,0-.2,0-.4-.2-.6-.8-2.2-1.2-4.5-1.2-6.9,0-.2,0-.3,0-.5,0-.2,0-.3,0-.4,0-3.9,1.2-7.8,3.1-11"/>
  </g>
  <g>
    <path class="cls-1" d="M402.6,242.7c-1.7-.3-3.5-.5-5.2-.8-.2,0-.3,0-.3.2,0,.2,0,.3.2.3l5.2.8c.2,0,.3,0,.3-.2,0-.2,0-.3-.2-.3Z"/>
    <path class="cls-1" d="M393.8,254.4l5.1,1.6c.2,0,.3,0,.4-.2,0-.2,0-.3-.2-.4-1.7-.5-3.4-1-5.1-1.6-.2,0-.3,0-.4.2,0,.2,0,.3.2.4Z"/>
    <path class="cls-1" d="M392.5,272.7c.3.4.7.7,1.1.9.4.2.8.4,1.1.5,1.6.9,3.2,1.8,5.2,2.5.1,0,.2,0,.3,0,0,0,.2,0,.3.1.3,0,.6.1,1,.2.3,0,.6-.2.6-.5,2.8,1.4,6,3,8.8,4.3,3.5,1.6,6.5,3,8.2,3.4,0,0,.1,0,.1,0,0,0,0,0,.1,0,0,0,0,0,0,0,0,0,0,0,.1,0,1.4-.9,5.1-2.9,8.7-4.8,1.8-.9,3.5-1.8,4.8-2.6.7-.4,1.3-.7,1.7-1,.5-.3.8-.5,1-.6.3-.2.3-.6,0-.8-.2-.3-.6-.3-.8,0,0,0-.4.3-.9.5-1.6.9-4.7,2.6-7.8,4.2-2.9,1.6-5.7,3.1-7.2,4-1.5-.5-4.4-1.7-7.7-3.3-3.4-1.6-7.2-3.5-10.4-5.1,0-.2.1-.5.2-.7,4.3,2,8.6,3.9,12,5.4,1.8.8,3.3,1.5,4.3,2,1.1.5,1.8.8,1.8.8,0,0,0,0,0,0,0,0,0,0,.1,0,0,0,0,0,.1,0,0,0,0,0,.1,0,0,0,0,0,.1,0,0,0,0,0,0,0,1.7-1.2,4.4-2.5,7.3-4.1,3-1.6,6.2-3.5,9-5.8.2-.2.3-.6,0-.8-.2-.2-.6-.3-.8,0-2.7,2.3-5.8,4.1-8.8,5.7-2.8,1.5-5.3,2.8-7.2,4-.3-.1-.8-.4-1.6-.7-3.2-1.4-9.9-4.5-16.6-7.5,0-.2,0-.3,0-.4,4.3,2,8.5,3.9,11.7,5.4,1.7.8,3.1,1.5,4.2,2,.5.2,1,.4,1.3.6.3.2.6.2.7.3.3.1.6,0,.7-.4.1-.3,0-.6-.4-.7,0,0-.3-.1-.6-.3-2.3-1-9.6-4.5-17.6-8.1,0-.2,0-.4,0-.5,6.9,3.2,13.8,6.6,18.6,8.7,0,0,.1,0,.2,0,0,0,0,0,.1,0,0,0,0,0,.1,0,0,0,0,0,.1,0,4.9-2.7,9.8-4.9,15.9-9.6.3-.2.3-.6.1-.8-.2-.3-.6-.3-.8-.1-5.9,4.5-10.7,6.7-15.5,9.3-4.8-2.1-11.6-5.5-18.5-8.7,0,0,0-.2,0-.2,6.4,2.9,12.4,5.2,18.8,8.2.2,0,.4,0,.6,0,0,0,.4-.2.8-.5,1.6-1,5-3.1,8.1-5.1,1.6-1,3-1.9,4.1-2.6.6-.3,1-.6,1.4-.9.2-.1.3-.2.4-.3.1,0,.2-.1.2-.2.2-.1.2-.3.2-.6,0-.2-.2-.4-.4-.4l-8.9-3c0,0,.2-.1.2-.2,1.6-1.1,3.2-2.2,4.5-3.1.6-.4,1.2-.8,1.6-1.2.4-.3.7-.6.9-.7.2-.2.2-.6,0-.8-.2-.2-.6-.2-.8,0,0,0-.4.3-.8.6-1.4,1.1-4.4,3.1-7.2,5.1-2.7,1.9-5.3,3.8-6.6,4.8-1.6-.3-4.6-1.2-8.1-2.3-3.5-1.2-7.5-2.6-10.9-3.8,0-.2,0-.5,0-.8,4.5,1.4,9,2.8,12.5,3.9,1.8.6,3.4,1.1,4.5,1.4,1.1.4,1.8.6,1.9.6,0,0,0,0,0,0,0,0,0,0,.1,0,0,0,0,0,.1,0,0,0,0,0,.1,0,0,0,0,0,.1,0,0,0,0,0,0,0,1.5-1.4,4-3,6.8-4.9,2.7-1.9,5.7-4.2,8.2-6.9.2-.2.2-.6,0-.8-.2-.2-.6-.2-.8,0-2.4,2.6-5.3,4.8-8,6.7-2.6,1.8-5,3.4-6.6,4.8-.3-.1-.9-.3-1.6-.5-3.3-1-10.4-3.2-17.3-5.4,0-.2,0-.3,0-.5,4.6,1.5,8.9,2.9,12.3,4,1.8.6,3.3,1.1,4.4,1.4.6.2,1,.3,1.4.4.4.1.6.2.8.2.3,0,.6-.1.7-.5s-.1-.6-.5-.7c0,0-.3,0-.7-.2-2.4-.7-10.1-3.3-18.4-5.9,0,0,0,0,0-.1,0-.1,0-.3,0-.4,7.2,2.4,14.5,4.9,19.5,6.4,0,0,.1,0,.2,0,0,0,0,0,.1,0,0,0,0,0,.1,0,0,0,0,0,.1,0,4.6-3.3,9.1-6.1,14.7-11.4.2-.2.2-.6,0-.8-.2-.2-.6-.2-.8,0-5.3,5.2-9.8,7.9-14.3,11.2-5-1.5-12.2-4-19.4-6.4,0,0,0-.2,0-.2,6.7,2.1,13,3.6,19.6,5.9.2,0,.4,0,.6-.1,0,0,.3-.3.7-.6,1.4-1.2,4.6-3.7,7.4-6,1.4-1.1,2.8-2.2,3.8-3.1.5-.4.9-.8,1.2-1,.2-.1.3-.2.4-.3l.2-.2c.1-.2.2-.4.1-.6,0-.2-.2-.4-.4-.4l-5.6-1.2c3.3-4.3,7.6-9.9,8.2-10.8.2-.3.1-.6-.1-.8-.3-.2-.6-.1-.8.1-.9,1.2-9.1,12-11.6,14.9-1.6,0-4.7-.5-8.3-1.1-3.7-.6-7.8-1.4-11.3-2.1,0-.2,0-.5,0-.8,4.7.7,9.4,1.5,13,2,1.9.3,3.5.5,4.7.7,1.2.2,1.9.3,2,.3,0,0,0,0,0,0,0,0,0,0,.1,0,0,0,0,0,.1,0,0,0,0,0,.1,0,0,0,0,0,0,0,0,0,0,0,0,0,2.8-3.3,7.7-10.2,11.7-16.1.2-.3.1-.6-.2-.8-.3-.2-.6-.1-.8.2-3.9,5.8-8.7,12.5-11.4,15.8-.3,0-.9-.1-1.7-.3-3.4-.5-10.8-1.6-18-2.8,0-.2,0-.3,0-.5,4.7.8,9.2,1.5,12.7,2.1,1.8.3,3.4.6,4.6.7.6,0,1.1.2,1.4.2.4,0,.6,0,.8,0,.3,0,.6-.2.6-.6,0-.3-.2-.6-.6-.6,0,0-.3,0-.7,0-2.5-.4-10.5-1.7-19.1-3.1,0-.2,0-.4,0-.5,7.5,1.3,15,2.7,20.2,3.4,0,0,0,0,0,0,0,0,0,0,.1,0,0,0,0,0,.1,0,0,0,0,0,.1,0,0,0,0,0,0,0,0,0,0,0,0,0,3.5-4.4,6.7-9.1,11.3-16.1.2-.3.1-.6-.2-.8-.3-.2-.6-.1-.8.2-4,6.1-7,10.4-9.9,14.3,3.8-5.4,7.9-11.2,11.3-16.9.1-.2.1-.4,0-.6-.1-.2-.3-.3-.5-.3-.9,0-1.8,0-2.7,0-5.8,0-11.7,0-17.5-.2,0,0,0,0,0-.1-.3-.3-.6-.5-.9-.5-.3,0-.6-.1-.9-.1-2-.2-4.1-.4-6.2-.5-.1,0-.2,0-.3,0-.6,0-1,0-1.3.2-.3.1-.6.4-.7.6,0,0,0,0,0,.1-4.4-.1-8.4-.2-12.8-.4-.1,0-.3,0-.4.1-4.9,3.9-9.9,7.6-15.1,11.2-.2.1-.3.4-.2.7,0,.2.3.4.6.4,2.6,0,5.2.6,7.9,1.1,3.4.6,6.4,1.1,9.7,1.6,0,0,0,.1,0,.2-7.1-1.2-13.1-2-16.8-2.3-.3,0-.6.2-.6.5,0,.3.2.6.5.6,3.6.2,9.7,1.1,16.9,2.3,0,.2,0,.4,0,.6-8.2-1.3-15-2.4-16.5-2.5-.3,0-.6.2-.6.5,0,.3.2.6.5.6,1.4.1,8.4,1.2,16.7,2.5,0,.2,0,.3,0,.5-2.8-.4-5.2-.8-6.9-1.1-.9-.1-1.6-.3-2.2-.4-.3,0-.5,0-.6-.1-.2,0-.3,0-.3,0-2.2-.6-4.4-.9-6.5-1.1-.3,0-.6.2-.6.5,0,.3.2.6.5.6,2.2.2,4.3.5,6.3,1,0,0,.2,0,.4,0,1.1.2,4.8.8,9.9,1.6,0,.1,0,.3,0,.5-.7-.1-1.2-.2-2-.3-4.7-.8-9.4-1.7-14.1-2.7-.3,0-.6.1-.7.4,0,.2,0,.4.1.5-.5.2-1.1.6-1.7.9-1,.5-2,1-2.3,1.2-.2.1-.4.4-.3.6s.2.5.5.5c2.6.4,5.1,1.4,7.7,2.3,3.3,1.1,6.2,2,9.4,3,0,0,0,.1,0,.2-6.9-2.2-12.7-4-16.3-4.8-.3,0-.6.1-.7.4,0,.3.1.6.4.7,3.6.8,9.4,2.6,16.4,4.8,0,.2,0,.4,0,.6-3.9-1.2-7.4-2.4-10.2-3.2-2.9-.9-4.9-1.5-5.7-1.7-.3,0-.6.1-.7.4,0,.3.1.6.4.7.7.2,2.8.8,5.6,1.7,2.8.9,6.5,2,10.5,3.3,0,.2,0,.3,0,.5-2.7-.9-5-1.6-6.7-2.1-.9-.3-1.6-.5-2.1-.7-.3,0-.5-.2-.6-.2-.1,0-.3,0-.3,0-2-.9-4.2-1.5-6.3-2-.3,0-.6.1-.7.4,0,.3.1.6.4.7,2.1.5,4.2,1.1,6.1,2,0,0,.2,0,.3.1,1.1.4,4.7,1.5,9.5,3.1,0,.1,0,.3,0,.4,0,0,0,0,0,0-.7-.2-1.2-.3-2-.6-2.7-.9-5.4-1.8-8.1-2.8-1.8-.7-3.6-1.3-5.4-2-.3-.1-.6,0-.8.3-.1.3,0,.6.3.8,1.3.5,2.6,1,3.9,1.5-.7.2-1.4.5-1.8.6-.2,0-.4.3-.4.6,0,.3.2.5.4.5,2.5.7,4.9,2,7.3,3.2,3.1,1.5,5.9,2.7,8.9,4.1,0,0,0,.1,0,.2-6.5-3-12.1-5.5-15.6-6.7-.3-.1-.6,0-.7.4-.1.3,0,.6.4.7,3.4,1.2,9.1,3.7,15.7,6.7,0,.2,0,.4-.1.6-3.7-1.7-7.1-3.2-9.8-4.4-2.8-1.2-4.7-2.1-5.4-2.4-.3-.1-.6,0-.8.3-.1.3,0,.6.3.8.7.3,2.6,1.1,5.4,2.4,2.7,1.2,6.2,2.8,10,4.6,0,.2,0,.3-.1.4-2.6-1.2-4.8-2.2-6.3-2.9-.8-.4-1.5-.7-2-.9-.2-.1-.4-.2-.6-.3-.1,0-.2-.1-.2-.1-1.9-1.2-4-2-6-2.8-.3-.1-.6,0-.8.3-.1.3,0,.6.3.8,2,.8,4,1.6,5.8,2.7,0,0,.2,0,.3.2,1,.5,4.5,2.1,9.1,4.2,0,.1-.1.3-.2.5-.7-.3-1.2-.5-1.9-.8-4.3-2-8.6-4.1-12.8-6.4-.3-.2-.6,0-.8.2-.2.3,0,.6.2.8,4.2,2.3,8.5,4.4,12.9,6.5.8.4,1.4.6,2.1.9,0,.1,0,.3,0,.4,0,.3,0,.6.3.8ZM394.2,272.6c-.3-.2-.6-.3-.7-.5h0c0-.4.1-.8.2-1.3.1-.4.3-.8.4-1.1.2-.7.3-1.4.5-2.1.2-1.1.5-2.2,1.1-3.1l2.1-.5s0,0,.1,0c.5.2,1,.3,1.5.4.1,0,.2,0,.3,0,0,0,0,0,0,0,.3,0,.5,0,.9,0,.1,0,.2,0,.3,0,.3,0,.6-.3.6-.6,1.5.5,3.1,1.1,4.7,1.7l-3.7,1.2h-.2c-.2.3-.3.5-.5.6-.9,1.1-1.1,2.4-1.3,3.7,0,.2,0,.3,0,.4,0,.7-.5,2.6-.7,3.3,0,.1,0,.3-.2.4,0,0,0,0,0,0-1.6-.7-3-1.4-4.4-2.2-.4-.2-.8-.4-1.1-.6ZM391.9,250.1c1.1-.5,2.2-1.1,3.2-1.6.1,0,.3,0,.4,0,0,0,0,.1,0,.2,0,.2,0,.3.2.5-.8.5-1.7,1-2.5,1.4-.4-.1-.9-.3-1.4-.4,0,0,0,0,0-.2ZM395.8,235.7c0-.1-.2-.2-.4-.1-1.4.7-2.9,1.5-4.3,2.2-.4,0-.8,0-1.2-.1-.4,0-.7-.1-1.2-.3,3.5-2.4,7.2-4.6,10.9-6.6,0,0,0,0,0,0,.5,0,1,0,1.6,0,0,0,0,0-.1,0-.9.5-1.7,1.2-2.5,1.8-.9.8-2,1.7-2.4,3.1-.1.3-.2.7-.2,1.1s0,.2,0,.2c0,0,0,0-.1,0-.7.4-1.5.8-2.2,1.2h0c-.5,0-1-.2-1.5-.2,1.2-.6,2.4-1.2,3.6-1.8.1,0,.2-.2.1-.4ZM392.3,231.7c.2,0,.5,0,.7,0-.8.4-1.6.9-2.4,1.4.6-.5,1.2-1,1.7-1.4ZM388.8,234.7c0,.1.3.1.4,0,1.6-1.2,3.4-2.2,5.2-3,.5-.1,1-.3,1.5-.5.2,0,.4-.2.5-.4,0,0,.1-.2.2-.3.6,0,1.3,0,1.9.1-3.3,1.8-6.6,3.8-9.7,5.9,0-.5-.2-.9-.4-1.3,0,0,0,0,0-.1.2-.1.3-.3.5-.4ZM397.6,237.5c0,.1-.2.2-.3.3-.2-.3-.2-.7-.2-1.1,0-.2,0-.5.1-.7.3-.9,1.1-1.7,2-2.5.7-.6,1.5-1.2,2.3-1.7.4-.2.7-.4,1.1-.5-1.6,2.1-3.3,4.1-5.1,6.1ZM396,237.6c0,.4.2.8.5,1.2-.7-.1-1.4-.3-2-.4.5-.3,1-.6,1.6-.8ZM394.6,250.9c-.1,0-.3,0-.4,0,.7-.4,1.3-.8,2-1.2.3.2.6.3.8.4l-2.2.9c0,0-.1,0-.2,0ZM392.4,260.6s0-.1,0-.3c0-.3,0-.7.1-1.1,0-.4.2-.7.2-1,.1-.7.1-1.4.2-2.1,0-1.2.2-2.3.7-3.2l5-2.1c.1,0,.2-.1.2-.2,1.7.4,3.5.8,5.5,1,.1,0,.2,0,.3,0,.1,0,.2,0,.3,0,.3,0,.6,0,1-.1.3,0,.5-.4.5-.7.3,0,.7.1,1,.2l-6.7,3.4-.2.2c-.1.2-.3.4-.4.6-.7,1.1-.8,2.3-.8,3.5,0,.1,0,.2,0,.3,0,.2,0,.3,0,.4,0,0,0,.1,0,.1,0,.7-.2,2.6-.3,3.2,0,.1,0,.3,0,.4,0,0,0,0,0,.1-1.7-.5-3.2-1-4.7-1.6-.4-.2-.8-.3-1.2-.4-.3-.1-.6-.3-.8-.5ZM415.2,252.3c-1.9.9-3.8,1.8-5.7,2.6-.6-.2-1.2-.3-1.7-.5.3-.2.6-.5.9-.6,0,0,.1,0,.1-.2,1.1,0,2.1-.3,3-1,.3-.2.5-.5.7-.8.9.2,1.8.3,2.7.5ZM417.6,252.7c-1.7.8-3.5,1.7-5.2,2.5h0c0,0,0,.2,0,.2,0,.1,0,.2,0,.4-.6-.2-1.2-.4-1.8-.6,2-.8,3.9-1.7,5.8-2.7.5,0,.9.2,1.4.2ZM424.9,253.6c0,0,.1,0,.1,0,0,0,0,0,0,0,0,0,0,0,0,0,0,0,0,0,0,0,.3-.4.8-1,1.4-1.6.5,0,1,.2,1.5.2-2.8,1.4-5.6,2.9-8,5.1-.5-.2-1-.4-1.5-.5,1.6-1.2,3.3-2.2,5.1-3.1.4,0,.8,0,1.1,0ZM418.1,256.3c0,0,0,.1-.1.2-.2,0-.4,0-.6,0-.4,0-.9,0-1.3.1,1.8-1.1,3.5-2.3,5.4-3.3.4,0,.8,0,1.2.1-1.6.8-3.1,1.8-4.6,2.9ZM414.7,256.7c0,0-.2,0-.3,0-.7-.3-1.4-.6-2-.8,0,0,.1,0,.1,0,0,0,.1,0,.2-.1,1.9-.9,3.7-1.8,5.6-2.7,0,0,.1,0,.1-.2.7.1,1.4.2,2.1.3-2,1.1-3.9,2.3-5.8,3.6ZM405.3,253.3h0s0,0,0,0c.8.2,1.5.3,2.3.3h0c-.2.2-.5.3-.7.5-.7-.1-1.4-.3-2-.4h-.5c0-.1.7-.5.7-.5ZM411.5,252.2c-.9.8-2.3.9-3.6.9h-.2c-.6,0-1.1,0-1.7-.2l2.9-1.5c.1,0,.2-.2.3-.3.9.2,1.9.3,2.8.5-.1.2-.3.3-.4.5ZM409.3,266.6c-.4.2-.8.5-1.2.8-.1,0-.3-.1-.4-.2-.4-.2-.7-.4-1-.5l1.5-.5c.4.1.8.3,1.1.4ZM426.5,264.6c0,0,.1.1.2.1l8.3,2.8c-1.6,1-4.9,3.1-7.9,5-1.6,1-3,1.9-4.1,2.6-.6.3-1,.6-1.4.9-.1,0-.3.2-.4.2-6.3-3-12.2-5.3-18.4-8,0,0,.1-.2.2-.2l2.1-.7c.4.3,1.1.6,2.1,1.1,2.8,1.3,7.4,3.3,9.4,4.1,0,0,0,0,0,0,.2.2.6.3.8,0,.6-.5,1.4-.8,2.2-.9h.1c.8,0,1.5.3,2.1.7,0,0,.1.1.3.2.1,0,.3.1.5.1h.2s.2,0,.2,0l5.6-3.3c.2,0,.3-.3.3-.5,0-.2,0-.4-.2-.5,0,0-.3-.2-.5-.5-.2-.3-.5-.7-.5-1.2h0c0-.3-.1-.5-.3-.6l-1.7-.8c.3-.2.6-.4.9-.7ZM411.6,267.6c0,0,.1,0,.2,0,.1,0,.2-.1.2-.2.5.2,1,.3,1.5.5-.7.3-1.4.6-2.1.9-.1,0-.3-.1-.4-.2-.2,0-.4-.2-.7-.3.4-.3.8-.5,1.2-.8ZM416.2,268.8c-.7.3-1.3.6-2,1h0c0,0-.1.2-.1.2h0c-.6-.2-1.3-.4-1.9-.7.7-.3,1.5-.7,2.2-1,.7.2,1.3.4,1.9.6ZM418.4,269.3c-.8.4-1.5,1-2.1,1.7-.5-.2-1.1-.4-1.7-.7,0,0,0,0,0,0,.8-.4,1.6-.8,2.4-1.2.5.1.9.2,1.3.3ZM420.2,269.2c.1,0,.3-.1.3-.2.9-.7,2.4-1.8,4-2.9,0,0,0,0,0,0l1.2.6c-2.1,1.3-4.2,2.5-6.4,3.6,0,0-.2.2-.2.3h0c-.8.2-1.5.4-2.1.9,0,0,0,0-.1,0,.6-.7,1.5-1.2,2.4-1.7,0,0,0,0,0,0,0,0,.1,0,.1,0,0,0,0,0,.1,0,0,0,0,0,0,0,0,0,0,0,.1,0,.1,0,.2-.2.3-.3ZM422.5,271.5c-.1-.1-.3-.2-.4-.3,1.6-1,3.2-1.9,4.9-2.8,0,0,.1.2.2.2,0,0,0,0,0,.1l-4.7,2.8ZM426.5,266.9c0,.3.1.6.2.9-1.8,1-3.5,2-5.2,3-.5-.2-1-.3-1.6-.4,2.2-1.1,4.3-2.3,6.4-3.6h0ZM411.1,267.2c-.5.3-1,.6-1.5.9-.3-.2-.7-.3-1-.5.4-.3.9-.6,1.4-.8.3,0,.6.2.8.3,0,0,.2,0,.3,0ZM433.1,251c-1.5,1.2-4.5,3.7-7.3,5.9-1.4,1.1-2.8,2.2-3.8,3.1-.5.4-.9.8-1.2,1-.1.1-.2.2-.3.3-6.6-2.2-12.8-3.7-19.2-5.8,0,0,.1-.2.2-.3l1.6-.8s0,0,.1,0c.6.1,1.1.3,1.7.4,1.5.4,3,.7,4.5,1.1,1.6.5,3.2,1,4.7,1.7.3.1.6.3,1,.3.4,0,.6-.1.8-.2.5-.2,1-.2,1.5-.2.9,0,1.8.2,2.6.7.2.1.5.1.7,0,2.7-2.6,6.2-4.3,9.7-6,.2-.1.4-.4.3-.6,0-.3-.2-.5-.5-.5-.9-.1-1.8-.3-2.7-.4.2-.2.4-.5.6-.7l5,1.1ZM424.6,247.2c-5.2-.7-12.6-2.1-20.1-3.4,0,0,0-.2,0-.3,6.9,1.1,13.4,1.7,20.3,2.9.2,0,.4,0,.5-.2-.2.3-.5.6-.7.9ZM435.5,229.1c-3.3,5.4-7.1,10.9-10.8,16.1-6.8-1.2-13.1-1.8-19.8-2.8.3-.7.8-1.3,1.3-1.9,0,0,.1,0,.2,0,4.2.7,8.5,1.4,12.7,2.1.2,0,.3,0,.6,0,.1,0,.2,0,.3,0,.7-.1,1-.6,1.3-.8.5-.4,1.1-.6,1.7-.6.5,0,1,.1,1.5.4.2,0,.3.1.5,0,.2,0,.3-.2.4-.4.9-2.7,2.5-5.2,4.5-7.2.2-.2.2-.5,0-.7-.1-.2-.4-.3-.7-.3-.1,0-.2,0-.4,0-.4,0-.9-.2-1.2-.5-.3-.3-.6-.7-.6-1.1,0-.3-.3-.5-.6-.5-5.5-.2-7.8-.7-12.6-.8.4-.6.8-1.1,1.2-1.6,6.3.2,12.6.3,18.8.3s1.1,0,1.6,0ZM424.5,240.5c-.5-.2-1-.3-1.5-.3-.4,0-.7,0-1.1.1.3-.3.8-.6,1.4-.9.7-.4,1.3-.8,1.8-1,.1,0,.2-.3.1-.4,0-.1-.3-.2-.4-.1-.5.3-1.3.7-2,1.2-.4.2-.7.5-1,.7-.3.2-.5.4-.6.7,0,0,0,.2,0,.2-.2.1-.4.2-.6.4-.4.3-.6.5-.8.6h-.1c0,0-.2,0-.4,0-.5,0-1.1-.2-1.6-.3,3.1-2.4,6.3-4.6,9.7-6.6.1,0,.2-.3.1-.4,0-.1-.3-.2-.4-.1-3.4,2-6.7,4.2-9.8,6.6-.1,0-.1.3,0,.4-1.4-.2-2.8-.5-4.1-.7,4.4-2.5,8.9-4.9,13.3-7.4.2.2.3.4.5.6.4.3.8.5,1.2.7-1.6,1.8-2.8,3.8-3.7,6.1ZM426,232.4c0,0,0,.2,0,.2-4.6,2.6-9.3,5.1-13.9,7.7,0,0,0,0,0,0-.7-.1-1.3-.2-2-.3.8-.3,1.6-.7,2.3-1.3,0,0,.2.1.3.1.1,0,.3,0,.4,0,.1,0,.2-.1.2-.3,3.6-2.2,7.2-4.3,11-6.1,0,0,.1-.1.1-.2.5,0,1,0,1.5,0ZM414,237.4c.2-.2.4-.4.6-.7.3-.5.5-1,.6-1.6,1.9-1,3.7-2.1,5.6-3.1.8,0,1.7.1,2.7.2-3.3,1.6-6.4,3.3-9.5,5.2ZM415.3,234.5c0,0,0-.2,0-.3,0-.4,0-.7-.1-1.1.7-.5,1.4-1,2.1-1.3.8,0,1.7.1,2.5.2-1.5.8-3,1.7-4.5,2.5ZM415,232.5c-.1-.3-.2-.6-.4-.9.6,0,1.1,0,1.6,0-.4.2-.8.5-1.2.8ZM413,231.6s0,0,0,0c.6.7,1,1.6,1,2.6,0,.3,0,.7-.1,1,0,0-.1,0-.2.1h0c0,0-.1.3-.1.3v.3s0,0,0,0c0,0,0,.1,0,.2-.2.3-.5.6-.8.9-1.4,1.3-3.2,2.2-5.1,2.5-.1-.2-.3-.2-.5-.2,1.9-2.3,3.9-5.1,5.8-7.7ZM407,227.7c.1,0,.4-.1.9-.1h.3c2,0,4,.3,6,.5-2.6,3.6-6.1,8.4-8.8,11.6-.6.7-1.3,1.5-1.7,2.4-.3.7-.4,1.4-.4,2.1,0,.6,0,1.2.2,1.8,0,.2,0,.3,0,.5.1.7.2,2.6.2,3.3,0,.2,0,.4,0,.6-1.7-.2-3.3-.5-4.8-.9-.4-.1-.8-.2-1.2-.2-.3,0-.6-.2-.9-.3h0c0-.2-.1-.6,0-1,0-.5,0-1.1,0-1.4,0-.7,0-1.5-.1-2.1,0-.5,0-.9,0-1.4,0-.9,0-1.7.4-2.4,0-.2.2-.3.3-.5.1,0,.2-.2.2-.3,0,0,.1-.2.2-.3,0,0,.1-.1.2-.2.2-.3.4-.6.7-.8,2.9-3.4,5.6-6.7,8.2-10.4,0-.1.1-.2.3-.2ZM385.9,239.3c-2.1-.4-4.2-.8-6.4-1,4.6-3.3,9.2-6.6,13.6-10.2,4,.1,7.8.2,11.8.3-.3.4-.6.9-1,1.3-2.6-.2-5.2-.3-7.8-.5-.2,0-.4,0-.5.2,0,.1-.1.3,0,.4h0c0,0-.2.2-.2.2-.6.3-1.3.5-2,.5-.3,0-.6,0-.9-.1-.2,0-.4,0-.5.2-.1,0-.2,0-.3.1-1.6,1.2-3.1,2.5-4.6,3.9,0,0,0,0-.1,0-.1.1-.2.3-.2.4,0,.3,0,.5.3.7.1,0,.3,0,.4,0h0c.2.3.2.5.2.7,0,.2,0,.5-.4.8-.1.1-.1.3,0,.5s.2.3.3.4c.9.4,1.6.5,2.1.6.6,0,1,0,1.5.2,1.5.3,3,.5,4.8.9,0,0,0,0,0,0-.1.3-.2.6-.3,1-3.3-.5-6.3-1-9.7-1.6ZM394.2,248.3c-.9.4-1.7.9-2.6,1.3l-.3.2c0,0-.1.1-.1.2-.4-.1-.8-.3-1.2-.4.8-.7,1.7-1.2,2.7-1.6.3,0,.5,0,.8.1.3,0,.6,0,.8.1ZM383.9,247.7s0,0,0-.1c.2-.3.6-.6.9-.7,0,0,.2-.1.2-.2.2,0,.4,0,.6.1-.6.2-1.1.6-1.7.9,0,0,0,0-.1,0ZM383.9,246.7c0,0,0-.2,0-.3.1,0,.3,0,.4,0-.1,0-.2.1-.3.2ZM386.2,247.2c.1,0,.2-.1.2-.3.1,0,.2,0,.4,0-.5.3-1,.6-1.4,1.1-.2,0-.4,0-.6-.1.5-.3.9-.6,1.4-.7ZM387.2,247.4c.1,0,.1-.2.1-.3.2,0,.4,0,.6.1-.5.3-1,.7-1.4,1.2-.2,0-.4-.1-.6-.2.4-.4.8-.7,1.2-.9ZM388.5,247.6c0,0,.1-.1.1-.2.2,0,.4,0,.7.1-.5.5-1.1.9-1.6,1.4,0,0-.1,0-.2,0-.1,0-.3,0-.4-.2.4-.5.9-.8,1.4-1.1ZM389.9,247.8c0,0,0-.1,0-.2.5,0,1.1.2,1.6.3-.8.4-1.5.9-2.2,1.4,0,0,0,0,0,.1-.3,0-.6-.2-1-.3.5-.4,1-.9,1.5-1.3ZM383,249.6c-2.1-.7-4.1-1.5-6.2-2,.3-.1.6-.3.9-.5,1-.5,2-1,2.3-1.2.1,0,.2-.2.3-.3.7.2,1.5.3,2.2.5,0,.1,0,.3.1.4.1.2.2.4.2.6,0,.2,0,.5-.2.6-.1.2-.2.4,0,.6,0,.2.2.3.4.4,1.4.3,2.9.7,4.2,1.2.6.2,1.5.6,2.1.7,1.4.4,2.6.8,3.7,1.1-.2,0-.3.2-.3.3-.1.2-.2.4-.2.6-3.2-1-6.1-1.9-9.4-3ZM385.5,260c-1.9-.9-3.9-1.9-5.9-2.7.5-.2,1.1-.4,1.5-.5,2.6,1,5.3,1.9,8,2.7.9.3,1.4.4,2.2.7,0,.2,0,.4,0,.6,0,.2.1.4.3.6.4.4.8.6,1.2.7.4.2.8.3,1.1.4.6.3,1.2.5,1.8.7h-.7c-.1.2-.3.3-.4.4-.1.2-.2.4-.3.5-3.1-1.4-5.8-2.7-8.9-4.1Z"/>
    <path class="cls-1" d="M400.4,268.3c.1,0,.3,0,.4-.1,0-.1,0-.3-.1-.4-1.6-.7-3.2-1.4-4.8-2.2-.1,0-.3,0-.4.1s0,.3.1.4c1.6.7,3.2,1.4,4.8,2.2Z"/>
  </g>
  <g>
    <path class="cls-1" d="M398,68.7c.2,0,.4,0,.5,0v-.7c0,0,0,.7,0,.7l17.7-2.6c1.8-.3,3-.5,3.9-.9.4-.2.8-.5,1-.9.2-.4.3-.8.3-1.3,0-1.2-.5-2.7-.8-5.1-1.8-12.7-1.8-12.8-3.7-25.5-.3-1.8-1.8-3.2-3.6-3.2-.2,0-.3,0-.5,0h-.2c-.2,0-.4,0-.6.1l-8.9,1.3s0,0,0,0c-.3-.2-.7-.2-1,.1,0,0,0,0,0,.1l-7,1c-1.8.3-3,.5-3.9.9-.4.2-.8.5-1,.9-.2.4-.3.8-.3,1.3,0,1.2.5,2.7.8,5.1,1.8,12.6,1.9,13.4,3.7,25.4.3,1.9,1.9,3.2,3.7,3.2ZM392.8,46c3-4.8,6.3-9.5,9.8-13.9l8.1-1.2c-6,8-11.5,16.3-16.5,24.9-.5-3.2-.8-5.8-1.4-9.9ZM420,63.1c0,.3,0,.5-.1.6,0,0-.1.2-.3.3-.4.3-1.6.6-3.6.9l-9,1.3c4-4.9,7.8-10,11.2-15.3.3,1.9.6,4.2,1.1,7.3.4,2.5.8,4.1.8,4.9ZM415.5,32.6c1.2,8.6,1.6,11.4,2.3,16.2,0,0-.1.1-.2.2-3.9,6-8.1,11.8-12.7,17.3,0,0-6.7,1-6.7,1h-.3c-1.2,0-2.2-.8-2.4-2-.4-3-.8-5.3-1-7.2,0,0,0,0,0,0,5.4-9.5,11.4-18.6,18-27.3h.3s.3,0,.3,0c1.1,0,2.1.8,2.3,2ZM391.2,34.4c0,0,.1-.2.3-.3.4-.3,1.6-.6,3.6-.9l5.5-.8c-2.9,3.7-5.6,7.6-8.2,11.5-.2-1.2-.4-2.6-.6-4.1-.4-2.5-.8-4.1-.8-5,0-.3,0-.5.1-.6Z"/>
    <path class="cls-1" d="M398,27.8c0,.1,0,.2.1.3.2.2.4.3.5.3.2,0,.3,0,.4,0,.2,0,.5,0,.7,0,2.5,0,4.9-.6,7.2-1.1.3,0,.8-.2,1.3-.6.3-.3.5-.7.5-1.1,0-.3,0-.5-.3-.8-.2-.3-.5-.4-.8-.4-.2,0-.5,0-.8,0-1,0-2.2.2-3.6.4-1.3.2-2.7.5-3.7.6-.3,0-.8,0-1.3.4-.4.3-.6.7-.6,1.2,0,.2,0,.4.2.7ZM399.9,26.9c1.1-.1,2.5-.4,3.8-.6,1.3-.2,2.6-.4,3.3-.4.1,0,.2,0,.3,0-.1,0-.3.2-.6.2-2.3.6-4.6,1.1-6.9,1.1-.2,0-.3,0-.5,0,0,0,0,0,0-.1.1,0,.3-.1.6-.1Z"/>
    <path class="cls-1" d="M412.2,69.7c-.7-.6-1.5-.8-2.1-.8-.1,0-.3,0-.4,0-1.1,0-2.2.3-3.1,1-.4.3-.8.8-1,1.4,0,.3-.1.5-.1.8,0,.9.4,1.7,1,2.3.8.7,1.7,1,2.6,1.1v-.7c0,0,0,.7,0,.7.2,0,.4,0,.6,0,1,0,2-.3,2.8-1.2.5-.6.7-1.4.7-2.1,0-.4,0-.8-.2-1.2-.2-.5-.4-1-.8-1.3ZM411.3,73.5c-.4.5-1,.7-1.7.7-.1,0-.3,0-.5,0-.7,0-1.4-.3-1.8-.7-.3-.3-.6-.9-.6-1.3,0-.1,0-.3,0-.4,0-.3.3-.5.5-.7.6-.5,1.4-.7,2.2-.7h.3c.5,0,1,.2,1.3.5.2.2.3.4.4.8,0,.2.1.5.1.7,0,.5-.2,1-.4,1.3Z"/>
    <path class="cls-1" d="M426,76.7c.4-.8.5-1.6.5-2.5,0-1-.2-2.1-.3-3.4,0-1.8-.4-3.8-.7-5.9-1.4-9.4-4-27.9-5.4-37.3-.4-3-.9-4.9-1.7-6.1-.4-.6-.9-1.1-1.5-1.3-.6-.3-1.3-.3-2-.3-.7,0-1.4,0-2.3.2-7.6,1.1-13.5,1.9-21.1,3-2.5.4-4.1,1.1-5.2,2.2-1,1.2-1.4,2.6-1.4,4.2,0,1.8.4,3.7.7,5.8,1.4,9.4,3.7,26,5.1,35.4.2,1.5.3,3.3.8,5,0,1.1.2,2.3.6,3.4.2.5.4,1.1.6,1.5.2.4.4.8.7,1.1.6.5,1.3.8,2,1,0,0,0,0,0,0,.1.1.3,0,.4,0,.5,0,1,.1,1.6.1.6,0,1.1,0,1.6,0,6.6-.5,14.2-1.8,22.7-3.4,1.6-.3,3.3-1.1,4.2-2.7ZM424.8,76.1c-.4.7-1,1.2-1.7,1.5.2-.5.4-1.1.5-1.6,0,0,.1,0,.1,0,0,0,0,0,0,0,.4-.3.8-.5,1.1-.9,0-.1.1-.2.2-.3,0,.5-.1,1-.3,1.4ZM387.2,35.1c-.3-2.1-.7-4.1-.7-5.6,0-1.4.3-2.5,1-3.3.7-.8,2-1.5,4.3-1.8,7.6-1.1,13.5-1.9,21-3,.8,0,1.6-.2,2.2-.2.6,0,1.1,0,1.4.2.5.2.9.6,1.3,1.6.4,1,.7,2.5,1.1,4.8,1.4,9.4,4,27.9,5.4,37.3.3,1.8.5,3.4.6,4.8,0,0,0,.2,0,.2,0,.3,0,.5,0,.7,0,1.4-.3,2.4-1,3.2-.7.8-2,1.5-4.3,1.8-6.9.9-16.1,2.6-22.6,3.3-1.1-.1-1.9-.5-2.4-1-.9-.8-1.4-2-1.7-3.4-.3-1.4-.4-2.9-.6-4.3-1.4-9.4-3.7-26-5.1-35.4ZM406.3,80.7c.3-.6.7-1.1,1.1-1.6,1.4-.2,2.7-.4,4.1-.6-.4.6-.9,1.2-1.3,1.7-1.3.2-2.6.4-3.8.6ZM403.3,79.7c-.1.2-.3.5-.5.7-.2.3-.4.5-.6.8-.6,0-1.2.1-1.8.2.3-.5.6-1,1-1.4.6,0,1.2-.2,1.8-.3ZM403.4,80.8c.3-.4.5-.8.8-1.2.8-.2,1.5-.3,2.3-.4-.4.5-.7,1-1,1.6-.8.1-1.6.2-2.3.3,0-.1.1-.2.2-.3ZM412.4,78.3c1.3-.2,2.6-.4,3.8-.6-.4.5-.7,1-1,1.6-1.4.2-2.8.5-4.1.7.4-.5.9-1.1,1.2-1.7ZM417.2,77.5c.9-.1,1.7-.2,2.5-.3-.3.5-.6.9-.9,1.4-.9.2-1.8.3-2.7.5.3-.6.7-1.1,1.1-1.6ZM394.1,80c-.1-.2-.2-.5-.3-.8.8.6,1.8,1.1,3,1.2-.2.3-.4.6-.6,1-.6-.1-1.2-.4-1.7-.8,0,0-.2-.3-.4-.6ZM399.1,81.5c-.5,0-1,0-1.5,0-.2,0-.5,0-.7,0,.2-.4.5-.7.7-1.1.9-.1,1.8-.2,2.8-.3-.3.4-.6.9-.9,1.4-.2,0-.3,0-.5,0ZM419.8,78.5c.3-.5.6-1,.9-1.4.8-.2,1.5-.3,2.1-.6-.2.5-.3,1-.5,1.5-.2,0-.4.1-.6.2-.6.1-1.2.2-1.8.3Z"/>
  </g>
  <g>
    <path class="cls-1" d="M56.2,247.2c-3.1-1.3-6.5-2.7-8.7-3.9-.9-.5-1.8-.7-2.7-.6-1.4,0-2.8.8-3.8,1.9-4.6,5.5-9.1,11-13.7,16.5-.1.2-.2.4-.2.6.2,1.6.9,2.8.9,3.9,0,.3.2.6.5.7.3,0,.6,0,.8-.2l15.4-17.3c5.2,2.4,10.3,4.8,15.5,7.2,1,.4,2.1,1,3.4.9.3,0,.5,0,.8-.1,1.4-.4,2.3-1.5,3-2.3,4.6-5.5,10.8-14.1,13.6-18v4c-.2.3,0,.5.2.7,0,0,.5.3,1.2.7.7.4,1.5.8,2.2,1.1.2,0,.5,0,.7,0,.2-.1.3-.3.4-.5.3-1.7.8-5.7,1.1-9.3.4-3.6.6-6.8.6-6.8,0-.2,0-.5-.3-.7-.2-.2-.4-.2-.7-.2,0,0-11,2.2-17.2,4.2-.3,0-.5.3-.5.6,0,.3,0,.6.3.8.7.6,2.9,2.3,2.9,2.3.2.1.4.2.6.2l4.5-.4c-2.7,3.2-9.2,11.2-13.7,17.4-1.7-.9-4.3-1.9-7.1-3.1ZM74,239.1c1.6-1.9,2.9-3.6,3.9-4.8,1-1.2,1.6-1.9,1.6-1.9.2-.2.2-.6,0-.9-.2-.3-.5-.5-.8-.4l-6.1.6c-.2-.2-.5-.4-.9-.7-.2-.1-.4-.3-.5-.4,2.8-.9,6.4-1.7,9.3-2.4,1.7-.4,3.3-.7,4.4-1,.3,0,.5-.1.8-.2-.1,1.2-.3,3.4-.5,5.7-.3,3-.6,6.2-.9,8.1-.3-.2-.7-.4-1-.5-.3-.2-.6-.3-.8-.4l.2-6.2c0-.4-.2-.7-.5-.8-.3-.1-.7,0-.9.3,0,0-.6.8-1.5,2.1-2.8,3.9-9.1,12.5-13.6,18-.7.9-1.4,1.6-2.2,1.8-.1,0-.3,0-.4,0-.8,0-1.7-.3-2.6-.8-5.3-2.5-10.7-4.9-16-7.4-.3-.1-.7,0-.9.2l-14.7,16.6c-.2-.7-.4-1.4-.5-2,4.5-5.4,8.9-10.8,13.4-16.2.7-.8,1.6-1.3,2.6-1.3.6,0,1.3.1,1.9.4,2.3,1.3,5.7,2.7,8.8,4,3.2,1.3,6.1,2.5,7.6,3.3.4.2.8,0,1-.2,2.9-3.9,6.7-8.8,9.8-12.6Z"/>
    <path class="cls-1" d="M24.4,285.4c.4,0,.8-.4.8-.8l-.3-5.7,65.1-3.5c.4,0,.8-.4.8-.8s-.4-.8-.8-.8l-8.3.4c0-1.7-.2-3.3-.3-5-.3-5.1-.6-10.3-1-15.4.2-.3.1-.6,0-.9-.1-1.8-.3-3.6-.4-5.4,0-.3-.2-.6-.6-.7-.3,0-.6,0-.9.2-1,1.2-2.9,3.2-4.5,5.1-.8.9-1.6,1.8-2.3,2.5-.6.7-1,1.2-1.2,1.4-.1.2-.2.4-.2.6.5,5.7.8,9.9,1.3,15.1,0,.2,0,.3,0,.5,0,.8.1,1.6.2,2.4l-3.7.2c0-1.3-.1-2.5-.2-3.7-.2-3.8-.4-7.2-.7-11.3,0-.3-.2-.6-.5-.7-.3-.1-.6,0-.8.1-.8.7-1.1,1.1-1.4,1.3-.2.1-.3.2-.6.2-.3,0-.7.1-1.2.1,0,0-.4,0-.8-.2-.6-.2-1.4-.5-2.1-.7-.4-.1-.7-.2-1-.3-.3,0-.5-.1-.8-.2-.2,0-.5,0-.6.2-.2.2-.2.4-.2.6.3,4.2.7,8.4,1,12.6,0,.2,0,.4,0,.6,0,.6,0,1.2.1,1.8l-3.7.2c0-1.4-.1-2.9-.2-4.3s-.2-2.5-.2-3.7c0,0,0,0,0-.1,0-1.6-.2-3.3-.3-4.9,0-.2,0-.3,0-.5,0-1-.1-2-.2-3,0-.2-.1-.5-.3-.6-2.4-1.7-4.7-3.1-6.5-4.5-.2-.1-.4-.2-.6-.2-.4,0-.6.2-.7.3-.3.2-.5.5-.7.8-.3.5-.6,1-.9,1.5-.3.5-.5.9-.6,1.1,0,.1-.1.3-.1.5.6,7.4,1,11.1,1.6,18.3l-3.7.2c0-1.4-.1-2.9-.2-4.3-.2-3.9-.5-7.9-.7-11.8,0-.3-.2-.6-.6-.7-.3-.1-.7,0-.9.2-2.4,2.8-5,6.4-7.8,8.4-.2.2-.3.4-.3.7.2,3,.4,5,.7,8l-6.8.4-2.7-49.3c0-.4-.4-.8-.8-.8s-.8.4-.8.8l.7,12h-1.8c-.4.1-.8.5-.8.9s.4.8.8.8h1.8c0,0,.3,5.3.3,5.3h-1.8c-.4.1-.8.5-.8.9s.4.8.8.8h1.8c0,0,.3,6,.3,6-.6,0-1.2,0-1.8,0s-.8.4-.8.8.4.8.8.8h1.8c0,0,.3,5.7.3,5.7h-1.8c-.4.1-.8.5-.8.9s.4.8.8.8h1.8c0,0,.3,6,.3,6-.6,0-1.2,0-1.8,0s-.8.4-.8.8.4.8.8.8h1.8c0,0,.3,5.8.3,5.8l-4.7.3c-.4,0-.8.4-.8.8s.4.8.8.8l4.7-.3.3,5.7c0,.4.4.8.8.8ZM39.7,275.9l-4.9.3c1.6-1.1,3.1-2,4.8-3.1,0,.9,0,1.9.1,2.8ZM32.8,272.7c2.4-.9,4.5-2,6.5-3.5,0,.7,0,1.4.1,2.1-2.4,1.6-4.1,2.7-6.4,4.2,0-1-.2-1.9-.2-2.8ZM52.2,259.5c0,.8,0,1.6.1,2.4-2.2,1.5-4.4,3-6.6,4.5-.1-1.4-.3-2.8-.4-4.3,1.6-1.1,3.3-2.1,5.5-3.5.4.3.9.6,1.3.9ZM53.1,275.2h-2.6c.9-.4,1.7-1.1,2.5-1.7,0,.6,0,1.1,0,1.7ZM45.9,268.3s.1,0,.1,0c2.1-1.5,4.3-2.9,6.4-4.4,0,1.1.1,2.2.2,3.3-2.8,1.7-3.9,2.4-6.5,4,0-1-.2-1.9-.3-2.9ZM46.3,273c2.9-1.8,3.9-2.4,6.5-4,0,.8.1,1.6.1,2.4s0,0,0,.1c-1.5,1.3-3.9,3-5.5,3.9,0,0,0,0-.1.1h-.8c0-.9-.1-1.7-.2-2.6ZM59.4,267.8c1.9-1,4.5-2.3,6.6-3.4,0,1,.1,2,.2,3-2.4,1.3-4.4,2.5-6.5,4.2-.1-1.3-.2-2.5-.3-3.8ZM66.5,274.5h-2.4c.8-.4,1.5-.9,2.3-1.4,0,.5,0,1,0,1.4ZM66.4,271.2c-1.7,1.1-3.3,2.3-5,3.4,0,0-.1.1-.2.2h-1.3c0-.3,0-.8-.1-1.2,2-1.8,4-3.1,6.4-4.4,0,.7,0,1.3.1,2ZM72.8,267.4c2.6-2.1,3.7-2.9,6.5-5.5,0,1.3.2,2.6.2,3.9,0,0-.2,0-.2.1-2.4,1.7-4,3-6.2,4.5,0-1-.2-2.1-.3-3ZM79.6,267.7c0,.5,0,1.1,0,1.6,0,1.5.2,3,.2,4.4l-6.6.4c0-.6,0-1.2-.1-1.8,2.4-1.7,4-3,6.4-4.7ZM79.2,260c0,0-.1,0-.2.1-3,2.8-4,3.7-6.3,5.4-.1-1.2-.2-2.5-.3-3.8,1.8-1.3,3.1-2.4,4.2-3.6.8-.8,1.5-1.6,2.3-2.5.1,1.5.2,2.9.3,4.4ZM72.9,255.8c1.4-1.6,3.9-4.2,5.6-6.2,0,1.2.2,2.5.3,3.7-1.3,1.5-2.3,2.6-3.3,3.7-.9,1-1.9,1.8-3.2,2.9,0-1-.2-2-.2-3,.2-.2.5-.6.9-1.1ZM60.9,262.2c.4.1.7.2,1,.3.3,0,.5.1.9.1.6,0,1.1,0,1.5-.2.6-.1,1.1-.4,1.5-.8,0,.3,0,.7,0,1-1.9,1-4.5,2.3-6.6,3.4-.1-1.5-.2-3.1-.4-4.6.6.2,1.3.4,2,.7ZM46.5,254.6h-.1c0,.1-.4.6-.4.6l.5-.6ZM45.9,256.4c.2-.3.4-.6.5-.8.9.7,2,1.4,3,2.1-1.6,1-3,1.9-4.2,2.7,0-.8-.1-1.6-.2-2.4.2-.4.5-1,.9-1.6ZM38.9,262.4c.1,1.6.2,3.2.3,4.7-2.4,1.4-4.2,2.4-6.5,3.8,0-.5,0-1.1-.1-1.7,2.4-1.9,4.5-4.5,6.4-6.8Z"/>
  </g>
  <g>
    <path class="cls-1" d="M227.1,283c-15.1,1.1-16.9-.2-17.1-1.6-.9-2.1-.8-5.3-.8-8.1,0-1.2,0-2.4,0-3.3l-2.6-36.8c-.3-3.7-.2-5.9,4.5-6.2s9.2-.7,14.4-1.1c5.2-.4,10.5-.9,14.6-1.2,5.9-.4,7.1-.4,7.5-.3.3,0,.7.1,1,.5,2.2,2,2.9,12.2,3.2,26.8,0,1.8,0,3.2.1,3.8l1.5,20.3c.2,2.3-.3,3.6-1.4,4.4-1,.7-2.3.9-4.3,1h-.6c-.6,0-2,.2-3.9.4-4,.4-10.1,1.1-15.9,1.5ZM240.1,226.2c-4.1.3-9.3.7-14.6,1.2-5.2.4-10.4.9-14.4,1.1-3.3.2-3.4,1.1-3.1,4.6l2.6,36.8c0,1,0,2.2,0,3.4,0,2.7,0,5.8.7,7.5,0,0,0,.2,0,.3.1.2,1.7,1.4,15.5.4s11.9-1.1,15.9-1.5c1.9-.2,3.3-.4,4-.4h.6c1.7-.2,2.9-.3,3.6-.8.4-.3.9-.9.7-3.1l-1.5-20.3c0-.6,0-2-.1-3.9-.4-20.8-1.7-25.5-2.7-25.7-.1,0-.2,0-.3,0-.2,0-1.5,0-7,.3ZM227.7,278.4c-3.8.3-9.9.5-11.3.2-.4,0-.8-.2-1.2-.5-1-1-.9-3.3-.7-5.1,0-.7.1-2,10.9-2.7s8.2-.5,9.6-.2c.4,0,.7.2,1,.4,1.2,1.3.9,5.6.9,5.6-.2.7-.5,1.7-9.1,2.3ZM215.9,273.3c-.2,2.2,0,3.5.3,3.8.1,0,.3,0,.4,0,.6.1,5.6.1,10.9-.2,6-.4,7.4-1,7.8-1.2,0-1.3,0-3.8-.5-4.2-.1,0-.1,0-.2,0-.5-.1-4.6,0-9.1.2-6.6.5-9.1,1.2-9.6,1.5ZM243.8,276.9c-2.3.2-4.6-.7-4.8-2.9s-.1-1.7-.2-2.8c-.2-2.5-.5-5.6-.5-7.9,0-1.2,1.4-1.9,3.5-2.1s3.3.1,4.3,1c.4.4.7.9.7,1.4,0,2.4.3,4.7.5,7.1,0,1.2.2,2.4.3,3.6s-1.4,2.5-3.8,2.6ZM241.9,262.8c-1.3,0-2.1.5-2.2.6,0,2.1.3,5.2.5,7.7,0,1.1.2,2.1.2,2.8,0,1.3,2.1,1.5,3.2,1.5s2.4-.7,2.4-1c0-1.2-.2-2.4-.3-3.5-.2-2.3-.4-4.7-.5-7.1,0,0,0-.2-.2-.3-.5-.5-1.8-.7-3.2-.6ZM230.6,268.3c-1.8.1-2.5,0-2.8,0-.3,0-.6-.2-.9-.4-.8-.7-.8-2.2-.8-3.5v-.5c-.1-1.7,2.5-1.9,3.5-2s1.8,0,2.5,0c.3,0,.6,0,.8,0,.4,0,.8.1,1.1.4,1.1,1.1.8,4.5.7,4.8,0,.3-.2.5-.4.6-.8.4-3,.6-3.7.6ZM228.3,266.8c.2,0,.9,0,2.2,0s2.2-.2,2.8-.4c0-1.4,0-2.9-.4-3.2-.2,0-.5,0-.8,0-.7,0-1.6,0-2.4,0-1.8.1-2.1.5-2.1.5v.5c0,.6,0,2.2.4,2.4.1,0,.3,0,.4,0ZM218.6,269.1c-1.8.1-2.5,0-2.8,0-.3,0-.6-.2-.9-.4-.8-.7-.8-2.2-.8-3.5v-.5c-.1-1.7,2.5-1.9,3.5-2s1.8,0,2.5,0c.3,0,.6,0,.8,0,.4,0,.8.1,1.1.4,1.1,1.1.8,4.5.7,4.8,0,.3-.2.5-.4.6-.8.4-3,.6-3.7.6ZM216.3,267.6c.2,0,.9,0,2.2,0s2.2-.2,2.8-.4c0-1.4,0-2.9-.4-3.2-.2,0-.5,0-.8,0-.7,0-1.6,0-2.4,0-1.8.1-2.1.5-2.1.5v.5c0,.6,0,2.2.4,2.4.1,0,.3,0,.4,0ZM242.3,259.3c-1.7.1-2.5,0-2.8,0-.3,0-.6-.2-.9-.4-.8-.7-.8-2.2-.8-3.5v-.5c-.1-1.7,2.5-1.9,3.5-2s1.8,0,2.5,0c.3,0,.6,0,.8,0,.4,0,.8.1,1.1.4,1.1,1.1.8,4.2.7,4.8,0,.3-.2.5-.4.6-.8.4-3,.6-3.7.6ZM240,257.8c.2,0,.9,0,2.2,0s2.2-.2,2.8-.4c0-1.4,0-2.9-.4-3.2-.2,0-.5,0-.8,0-.7,0-1.6,0-2.4,0-1.8.1-2.1.5-2.1.5v.5c0,.6,0,2.2.4,2.4.1,0,.3,0,.4,0ZM230,260.2c-1.7.1-2.5,0-2.8,0-.3,0-.6-.2-.9-.4-.8-.7-.8-2.2-.8-3.5v-.5c-.1-1.7,2.5-1.9,3.5-2s1.8,0,2.5,0c.3,0,.6,0,.8,0,.4,0,.8.1,1.1.4,1.1,1.1.8,4.5.7,4.8,0,.3-.2.5-.4.6-.8.4-3,.6-3.7.6ZM227.7,258.7c.2,0,.9,0,2.2,0s2.2-.2,2.8-.4c0-1.4,0-2.9-.4-3.2-.2,0-.5,0-.8,0-.7,0-1.6,0-2.4,0-1.8.1-2.1.5-2.1.5v.5c0,.6,0,2.2.4,2.4.1,0,.3,0,.4,0ZM218,261c-1.7.1-2.5,0-2.8,0-.3,0-.6-.2-.9-.4-.8-.7-.8-2.2-.8-3.5v-.5c-.1-1.7,2.5-1.9,3.5-2s1.8,0,2.5,0c.3,0,.6,0,.8,0,.4,0,.8.1,1.1.4,1.1,1.1.8,4.5.7,4.8,0,.3-.2.5-.4.6-.8.4-3,.6-3.7.6ZM215.7,259.6c.2,0,.9,0,2.2,0s2.2-.2,2.8-.4c0-1.4,0-2.9-.4-3.2-.2,0-.5,0-.8,0-.7,0-1.6,0-2.4,0-1.8.1-2.1.5-2.1.5v.5c0,.6,0,2.2.4,2.4.1,0,.3,0,.4,0ZM241.7,251.5c-1.7.1-2.5,0-2.8,0-.3,0-.6-.2-.9-.4-.8-.7-.8-2.2-.8-3.5v-.5c-.1-1.7,2.5-1.9,3.5-2s1.8,0,2.5,0c.3,0,.6,0,.8,0,.4,0,.8.1,1.1.4,1.1,1.1.8,4.2.7,4.8,0,.3-.2.5-.4.6-.8.4-3,.6-3.7.6ZM239.5,250c.2,0,.9,0,2.2,0s2.2-.2,2.8-.4c0-1.4,0-2.9-.4-3.2-.2,0-.5,0-.8,0-.7,0-1.6,0-2.4,0-1.8.1-2.1.5-2.1.5v.5c0,.6,0,2.2.4,2.4.1,0,.3,0,.4,0ZM229.4,252.4c-1.7.1-2.5,0-2.8,0-.3,0-.6-.2-.9-.4-.8-.7-.8-2.2-.8-3.5v-.5c-.1-1.7,2.5-1.9,3.5-2s1.8,0,2.5,0c.3,0,.6,0,.8,0,.4,0,.8.1,1.1.4,1.1,1.1.8,4.5.7,4.8,0,.3-.2.5-.4.6-.8.4-3,.6-3.7.6ZM227.1,250.9c.2,0,.9,0,2.2,0s2.2-.2,2.8-.4c0-1.4,0-2.9-.4-3.2-.2,0-.5,0-.8,0-.7,0-1.6,0-2.4,0-1.8.1-2.1.5-2.1.5v.5c0,.6,0,2.2.4,2.4.1,0,.3,0,.4,0ZM217.5,253.2c-1.7.1-2.5,0-2.8,0-.3,0-.6-.2-.9-.4-.8-.7-.8-2.2-.8-3.5v-.5c-.1-1.7,2.5-1.9,3.5-2s1.8,0,2.5,0c.3,0,.6,0,.8,0,.4,0,.8.1,1.1.4,1.1,1.1.8,4.5.7,4.8,0,.3-.2.5-.4.6-.8.4-3,.6-3.7.6ZM215.2,251.7c.2,0,.9,0,2.2,0s2.2-.2,2.8-.4c0-1.4,0-2.9-.4-3.2-.2,0-.5,0-.8,0-.7,0-1.6,0-2.4,0-1.8.1-2.1.5-2.1.5v.5c0,.6,0,2.2.4,2.4.1,0,.3,0,.4,0ZM233.8,243.6c-4.4.3-8.8.5-11.8.6-1.3,0-2.3,0-2.7.1s-.9,0-1.4.2c-.6,0-1.1.2-1.7.2-1.2,0-2,0-2.7-.4-.9-.5-1.4-1.4-1.5-2.6s-.2-2.7-.4-4.1c-.1-1.1-.2-2.2-.3-3.3,0,0,0-.2-.1-.2,0-.1,0-.2,0-.4,0-.4,0-1.4.7-1.4s.3,0,.4,0c1.4-.8,5-1.6,14.1-2.3,5.9-.4,11.7-.6,12.9-.6.4,0,.8,0,1.2,0,2.5-.1,5-.2,5.3,3.5l.5,7.5c0,1.2-.8,2.5-12.5,3.3ZM219.2,242.8c.4,0,1.4,0,2.8-.1,3-.1,7.4-.3,11.8-.6,9.1-.7,10.8-1.5,11.1-1.8l-.5-7.4c-.2-2.2-1-2.2-3.7-2.1-.4,0-.8,0-1.3,0-1.2,0-7,.2-12.8.6-11.3.8-13.2,1.9-13.5,2.2,0,0,0,.1,0,.2,0,0,0,.2-.1.3,0,1.1.2,2.2.3,3.3.1,1.4.3,2.8.4,4.2s.4,1.3.7,1.4c.4.2,1,.3,1.9.2s1.1-.1,1.6-.2c.5,0,1-.2,1.5-.2Z"/>
    <path class="cls-1" d="M223,243.2c-.2,0-.4,0-.5-.1-.3-.3-.4-.7-.2-1.1l8.9-11.8c.3-.3.7-.4,1.1-.1.3.3.4.7.2,1.1l-8.9,11.8c-.1.2-.3.3-.5.3Z"/>
    <path class="cls-1" d="M230.4,243.4c-.1,0-.3,0-.4,0-.4-.2-.5-.6-.4-1,2.1-4.6,4.8-8.9,8-12.7.3-.3.7-.4,1.1-.1.3.3.4.7.1,1.1-3.1,3.8-5.8,8-7.8,12.4-.1.3-.4.4-.6.4Z"/>
    <path class="cls-1" d="M239.3,242.5c-.2,0-.3,0-.4-.1-.4-.2-.5-.7-.3-1,1.8-2.9,3.2-5.2,5.5-8.1.3-.3.7-.4,1.1-.1.3.3.4.7.1,1.1-2.2,2.8-3.6,5.1-5.4,7.9-.1.2-.4.3-.6.4Z"/>
    <path class="cls-1" d="M235.9,285.2c-2.8.2-5.6.3-8.6.4-1.5,0-3.4.2-5.3.3-7.1.5-11.5.7-12.6-.9-.5-.6-.5-1.8-.4-3.8,0-.7,0-1.3,0-1.7,0-.4.3-.8.7-.8.4,0,.8.3.8.7,0,.5,0,1.2,0,1.9,0,.9-.1,2.5,0,2.8.8,1,7.4.6,11.3.3,2-.1,3.8-.3,5.4-.3,8.5-.2,16.2-1.1,22.7-1.8,1.3-.2,1.9-.5,2-.9.1-.6,0-3.9-.4-5.5,0-.4.2-.8.6-.9.4,0,.8.2.9.6.4,1.6.6,5.2.4,6.1-.4,1.8-2.5,2-3.3,2.1-4.3.5-9.1,1.1-14.3,1.4Z"/>
    <path class="cls-1" d="M212.8,285.8c-.3,0-.4-.2-.4-.4,0-1,.4-2.1.9-3,.1-.2.3-.2.5-.1.2.1.2.3.1.5-.5.8-.8,1.7-.8,2.6,0,.2-.2.3-.3.4Z"/>
    <path class="cls-1" d="M217.4,285.9s0,0,0,0c-.2,0-.3-.2-.3-.4.1-.8.4-1.7.7-2.4,0-.2.3-.3.5-.2.2,0,.3.3.2.5-.3.7-.5,1.5-.6,2.3,0,.2-.2.3-.3.3Z"/>
    <path class="cls-1" d="M219.7,285.9s0,0,0,0c-.2,0-.3-.2-.3-.4.2-.9.4-1.9.7-2.8,0-.2.3-.3.5-.2.2,0,.3.3.2.5-.3.8-.5,1.7-.7,2.6,0,.2-.2.3-.3.3Z"/>
    <path class="cls-1" d="M221.9,285.3c0,0-.1,0-.2,0-.2,0-.3-.3-.2-.5l.8-1.6c0-.2.3-.3.5-.2.2,0,.3.3.2.5l-.8,1.6c0,.1-.2.2-.3.2Z"/>
    <path class="cls-1" d="M228.3,285.3s0,0-.1,0c-.2,0-.3-.3-.3-.5.3-1,.7-2,1.3-2.9.1-.2.3-.2.5,0,.2.1.2.4,0,.5-.6.8-1,1.7-1.2,2.7,0,.2-.2.3-.3.3Z"/>
    <path class="cls-1" d="M232,285s0,0-.1,0c-.2,0-.3-.3-.2-.5.3-1,.8-2,1.3-2.8.1-.2.3-.2.5-.1.2.1.2.3.1.5-.5.8-1,1.7-1.3,2.6,0,.2-.2.3-.3.3Z"/>
    <path class="cls-1" d="M236.2,284c0,0-.1,0-.2,0-.2,0-.3-.3-.2-.5l.8-1.8c0-.2.3-.3.5-.2.2,0,.3.3.2.5l-.8,1.8c0,.1-.2.2-.3.2Z"/>
    <path class="cls-1" d="M239.7,284.2c-.3,0-.4-.2-.4-.4,0-.9.4-1.8,1-2.6.1-.2.4-.2.5,0,.2.1.2.4,0,.5-.5.7-.7,1.4-.8,2.2,0,.2-.2.3-.3.3Z"/>
    <path class="cls-1" d="M243.7,283.8c0,0-.1,0-.2,0-.2,0-.3-.3-.2-.5.3-.9.8-1.8,1.3-2.6.1-.2.4-.2.5-.1.2.1.2.3.1.5-.5.7-.9,1.6-1.2,2.4,0,.1-.2.2-.3.2Z"/>
    <path class="cls-1" d="M246.5,284.2s0,0-.1,0c-.2,0-.3-.3-.3-.5.3-1.1.9-2.2,1.7-3,.1-.2.4-.2.5,0,.2.1.2.4,0,.5-.7.8-1.2,1.7-1.5,2.7,0,.2-.2.3-.3.3Z"/>
    <path class="cls-1" d="M248.7,283.6c0,0-.1,0-.2,0-.2,0-.3-.3-.2-.5l1.2-2.9c0-.2.3-.3.5-.2.2,0,.3.3.2.5l-1.2,2.9c0,.1-.2.2-.3.2Z"/>
    <path class="cls-1" d="M243.7,274.2c-.5,0-1.6,0-2.2-.7-.3-.4-.4-.9-.5-1.2-.7-3.7-1-6.6-.8-9.3,0-.2.1-.4.3-.5.2-.1.5,0,.6.1.1.2,0,.4,0,.6-.2,2.6,0,5.4.8,8.9,0,.4.1.7.3.9.3.3.8.5,1.7.4.8,0,1.6-.2,2.4-.4.2,0,.4,0,.5.3,0,.2,0,.4-.3.5-.8.2-1.7.4-2.6.5,0,0-.1,0-.2,0Z"/>
    <path class="cls-1" d="M219.1,276.4c-.7,0-1.4,0-2-.4-1.2-.9-.7-2.8-.5-3.4,0-.2.3-.3.5-.3.2,0,.3.3.3.5-.4,1.3-.3,2.2.3,2.6.4.3,1,.3,1.7.2l4.6-.4c3.7-.3,7.5-.6,11.1-1.5.2,0,.4,0,.5.3,0,.2,0,.4-.3.5-3.7.9-7.5,1.2-11.2,1.6l-4.6.4c0,0-.1,0-.2,0Z"/>
    <path class="cls-1" d="M216.5,251c-.4,0-.7,0-1.1,0-.2,0-.4-.1-.4-.3-.1-.8-.1-1.7-.1-2.6,0-.2.2-.4.4-.4.2,0,.4.2.4.4,0,.7,0,1.4,0,2.1,1.3,0,2.6-.2,3.8-.5.2,0,.4,0,.4.3,0,.2,0,.4-.3.4-1,.2-2.1.4-3.2.5Z"/>
    <path class="cls-1" d="M230.4,250c-1.1,0-2.1,0-3.2,0-.2,0-.3-.2-.3-.3,0-.7-.1-1.4,0-2,0-.2.2-.4.4-.3.2,0,.4.2.3.4,0,.5,0,1.1,0,1.6,1.4.1,2.8,0,4.2-.1.2,0,.4.1.4.3,0,.2-.1.4-.3.4-.5,0-1,.1-1.5.2Z"/>
    <path class="cls-1" d="M240,249.7c-.1,0-.3,0-.4,0-.3-.2-.3-.5-.3-.6l-.2-2.2c0-.2.1-.4.3-.4.2,0,.4.1.4.3l.2,2.2,4.4-.5c0,0,0-.2.1-.3.2-.1.4-.1.6,0,.2.2.2.4.1.6-.2.3-.4.3-.6.3,0,0-4.6.6-4.7.6Z"/>
    <path class="cls-1" d="M216,259.1c0,0-.2,0-.2,0,0,0-.1-.2-.2-.3,0-.8-.1-1.7-.1-2.5,0-.2.2-.4.4-.4.2,0,.4.2.4.4,0,.7,0,1.3,0,2l4-.8s0,0,0-.1c.1-.2.4-.2.6-.1.2.1.3.4.2.6,0,.2-.2.3-.5.3,0,0-4.6,1-4.7,1Z"/>
    <path class="cls-1" d="M231.8,257.8c-1.4,0-2.8,0-4.1,0-.2,0-.3-.2-.3-.3l-.2-2.2c0-.2.1-.4.3-.4s.4.1.4.3v1.8c1.7.1,3.3,0,4.9,0,.2,0,.4.1.4.3,0,.2-.1.4-.3.4-.4,0-.7,0-1.1,0Z"/>
    <path class="cls-1" d="M242.4,256.6c-.8,0-1.6,0-2.3,0-.2,0-.3-.1-.4-.3-.1-.7-.1-1.4,0-2.2,0-.2.2-.4.4-.3.2,0,.4.2.3.4,0,.6,0,1.1,0,1.7,1.9,0,3.8-.2,5.7-.7.2,0,.4,0,.5.3,0,.2,0,.4-.3.5-1.3.4-2.6.6-3.9.7Z"/>
    <path class="cls-1" d="M217.2,267c-.1,0-.3,0-.4,0-.3-.2-.3-.4-.3-.6l-.3-2.4c0-.2.1-.4.3-.4.2,0,.4.1.4.3l.3,2.3,4.4-.4c.2,0,.4.1.4.3,0,.2-.1.4-.3.4,0,0-4.5.4-4.5.4Z"/>
    <path class="cls-1" d="M230.3,265.9c-.7,0-1.5,0-2.2,0-.2,0-.4-.1-.4-.3,0-.8,0-1.5,0-2.3,0-.2.2-.3.4-.3.2,0,.3.2.3.4-.1.6-.1,1.2,0,1.8,1.3,0,2.6-.1,3.9-.3.3,0,.6-.2.6-.3,0-.2.2-.4.4-.4.2,0,.4.2.4.4,0,.5-.5.9-1.2,1-.7.1-1.4.2-2.1.2Z"/>
    <path class="cls-1" d="M213.4,237.4c-.1,0-.3,0-.3-.2-.7-1.2,0-2.7.9-3.4,1-.7,2.3-.9,3.3-1,7.9-.9,15.9-1.4,23.8-1.5.7,0,1.4,0,2.1.2.7.3,1.4.9,1.5,1.8,0,.2-.1.4-.4.4-.2,0-.4-.2-.4-.4,0-.5-.5-1-1-1.1-.6-.2-1.3-.2-1.9-.2-7.9.2-15.9.7-23.7,1.5-.9.1-2.1.2-3,.8-.7.5-1.2,1.6-.7,2.4.1.2,0,.4-.1.5,0,0-.1,0-.2,0Z"/>
  </g>
  <g>
    <path class="cls-1" d="M585.9,253.9c1.6-1.8,3.1-3.5,4.7-5.3.1-.1,0-.3,0-.4-.1-.1-.3,0-.4,0-1.6,1.8-3.1,3.5-4.7,5.3-.1.1,0,.3,0,.4.1.1.3,0,.4,0Z"/>
    <path class="cls-1" d="M584.5,267.3c1.3-1.5,2.6-3,3.9-4.5.1-.1,0-.3,0-.4-.1-.1-.3,0-.4,0-1.3,1.5-2.6,3-3.9,4.5-.1.1,0,.3,0,.4s.3,0,.4,0Z"/>
    <path class="cls-1" d="M583.5,271.7c1.5-1.6,3.1-3.1,4.6-4.7.1-.1.1-.3,0-.4-.1-.1-.3-.1-.4,0-1.5,1.6-3.1,3.1-4.6,4.7-.1.1-.1.3,0,.4.1.1.3.1.4,0Z"/>
    <path class="cls-1" d="M606.2,246.9c-.7-1.8-1.8-3-3.1-3.8-1.3-.8-2.7-1.2-3.8-1.5-.2,0-.5,0-.7-.1-1.3-.1-2.7,0-4,.8-.6.3-1.2.7-1.7,1.2,0,0,0,0,0-.1,0,0,0,0-.1,0,.2-1.4.4-2.8.5-4.1,0,0,0-.2,0-.2,0-1-.2-2-.9-3-.8-1-2-1.8-3.9-2.6-.7-.3-2.2-.7-4.3-1.1-2.1-.4-4.7-.8-7.4-1.1-2.7-.2-5.6-.3-8.2,0-1.7.2-4.3.8-6.5,1.7-1.1.5-2.1,1-2.9,1.6-.4.3-.7.7-1,1-.3.4-.4.8-.5,1.3,0,.1,0,.2,0,.3h-.3c.4,9-.9,22.4-1.2,31.5h.2c.3.7.7,1.5,1.3,2.3h-.2c0,.2,0,.5-.1.7,0,.6,0,1.1,0,1.7h0c0,.1,0,.2.1.2,0,.1,0,.2,0,.3h.1c.4.4.9.9,1.4,1.3,2.3,1.6,6,2.9,8.9,3.4,1.7.3,3.2.5,4.6.6,4.3.4,7.7,0,10-.6,1.2-.3,2.1-.7,2.8-1.1.7-.4,1.2-.8,1.4-1.3h-.1c0-.5.1-1,.2-1.5.8-.5,1.4-1,2-1.5,0,0,.1,0,.1-.1h0c.3-3.1.7-6.5,1.2-10,1.5,1,3,1.5,4.6,1.6,6,.5,11.8-4.5,12.4-11.5.2-2.1,0-4.3-.9-6.6ZM585.6,276.2c-.2.1-.4.3-.7.5-1.7,1-5.7,2.1-12.1,1.5-1.4-.1-2.9-.3-4.5-.6-1.8-.3-4-1-5.9-1.9-.9-.4-1.8-.9-2.5-1.4-.5-.4-.9-.7-1.2-1.1,0-.4,0-.8,0-1.1,2.2,2.2,5.9,4.3,12.1,5.3.6,0,1.3.2,1.9.2,3.5.3,6.9,0,9.7-.8,1.2-.3,2.3-.7,3.3-1.2v.5ZM587.8,272.9c-1.1,1-2.7,1.8-4.7,2.5,1.6-1.7,3.2-3.4,5-4.9,0,.8-.2,1.6-.3,2.4ZM591.4,244.3c-2.2,2-4.3,3.9-6.5,5.9-.1.1-.1.3,0,.4.1.1.3.1.4,0,.3-.3.7-.5,1-.8,0,0,.1-.1.1-.2,1.6-1.5,3.2-2.9,4.8-4.4-.3,2.3-.6,4.7-.9,7.1,0,0-.2,0-.2,0-1.7,2-3.5,3.9-5.2,5.9-.1.1,0,.3,0,.4.1.1.3,0,.4,0,1.6-1.8,3.3-3.7,4.9-5.5-.2,1.3-.3,2.6-.5,3.9-.1-.1-.3,0-.4,0-1.7,1.9-3.4,3.8-5.2,5.6-.1.1-.1.3,0,.4.1.1.3.1.4,0,1.7-1.8,3.4-3.7,5.1-5.5-.5,4.3-1.1,8.5-1.5,12.4-.1-.1-.3-.1-.4,0-2,1.7-3.8,3.6-5.6,5.6,0,0,0,0,0,.1-2.7.7-6,1.1-9.3.8-.6,0-1.2-.1-1.8-.2-9.4-1.5-12.6-5.6-13.5-8,.3-8.4,1.3-20.2,1.2-29,.1.1.2.2.4.3.8.6,2,1.2,3.9,1.8,3.6,1.2,7.8,2.1,12.4,2.5s5.5.3,8.4.2c.8,0,1.9-.1,3.1-.3.9-.1,1.7-.3,2.4-.5-1.4,1.2-2.8,2.3-4.3,3.4-.1,0-.2.3,0,.4s.3.2.4,0c2.2-1.5,4.2-3.2,6.2-5,0,0,.1,0,.2-.1-.1.8-.2,1.6-.3,2.4ZM586,240.5c0,.2-.2.2-.4.2-3-1.3-4-1.8-7.8-2.3-.5,0-1-.1-1.4-.2-2.8-.2-5.6,0-8.2.8,0,0-.3.3-.4.4h0c0,.1,0,.2.2.3.1.1.3.2.5.3,2.4.8,4.8,1.3,7.2,1.5,2.2.2,4.4.2,6.7,0,.4,0,.7-.1.8-.2h0c0,0-.2-.2-.3-.2-.3-.2-.8-.4-1.3-.6-1.2-.4-2.8-.8-4.7-.9-.5,0-.9,0-1.4,0-.6,0-1.1,0-1.6.1-.4,0-.7.2-.8.2,0,0,.2.1.3.2.4.1,1,.3,1.9.5,0,0,1.5,0,2.4,0,0,0,.2,0,.2,0-.3,0-.7-.2-1.3-.2-.2,0-.4,0-.7,0-.2,0-.3-.1-.3-.3,0-.2.1-.3.3-.3.3,0,.5,0,.7,0,.5,0,.9.1,1.2.2.3,0,.6.2.7.3.1,0,.2.2.2.4,0,.1,0,.2-.2.3-.2.1-.2.1-.4.1-.1,0-.3,0-.4,0-.3,0-.7,0-1.1,0-.8,0-1.5,0-1.5,0h0c-.7-.1-1.3-.3-1.7-.4-.4-.1-.7-.3-.9-.4-.1-.1-.2-.3-.2-.5,0-.1,0-.2.2-.3l.3-.2c.2-.1.4-.2.7-.2.5-.1,1.2-.2,1.9-.2.5,0,1,0,1.5,0,2.5.2,4.7.8,5.8,1.3.4.2.7.4.9.6.1.1.2.3.2.5,0,.1,0,.3-.2.3,0,0-.2.1-.3.2-.2,0-.5.1-.9.2-2.3.2-4.6.2-6.8,0s-4.9-.7-7.3-1.5c-.2,0-.5-.2-.7-.4-.2-.2-.4-.4-.4-.8v-.3c.2-.3.5-.6.8-.7,2.7-1,5.6-1.1,8.5-.9.5,0,1,0,1.5.2,3.8.5,4.9,1,7.9,2.4h0c.2,0,.2.2.2.4ZM592,239.4c-.1.6-.4,1.1-.9,1.5-.4.3-.9.6-1.4.9-1.6-3.2-8.1-4.8-16.7-5.1-6.1-.2-11.1,1.8-10.9,3.1-1.2-.5-1.9-.9-2.4-1.2-.6-.5-.8-.8-.9-1.2h-.3c0,0,.3,0,.3,0,0-.1,0-.2,0-.4,0-.2.1-.4.3-.7.3-.4.9-.9,1.6-1.3,2.2-1.3,5.9-2.3,8-2.5,2.4-.3,5.2-.2,7.9,0,2.6.2,5.2.6,7.2,1,2,.4,3.6.8,4.1,1,1.8.7,2.8,1.5,3.4,2.2.6.7.7,1.4.7,2.1,0,.2,0,.3,0,.5ZM591.6,251.4h.3c0-.2.2-.7.5-1.1.4-.7,1.2-1.5,2.1-2.1,1-.6,2.2-.9,3.7-.8.1,0,.2,0,.3,0,.7,0,1.5.4,2.1.8.6.4,1.1.9,1.3,1.6.4,1,.5,2,.4,3-.2,1.8-1.1,3.5-2.5,4.6-1.4,1.2-3.2,1.8-5.1,1.6-1.3-.1-2.7-.6-4-1.6.3-2,.5-4,.8-6ZM602.1,261.1c-2.1,1.9-4.7,2.9-7.3,2.6-1.5-.1-2.9-.6-4.3-1.6l-.3.4c.2-1.3.3-2.6.5-3.9,1.3.9,2.7,1.4,4,1.5,4.5.4,8.5-3,8.9-7.4,0-1.1,0-2.3-.5-3.5-.3-.9-1-1.6-1.8-2.2-.8-.5-1.7-.8-2.6-.9-.1,0-.2,0-.4,0-2.3-.2-4.2.6-5.5,1.7-.4.3-.7.6-.9.9.1-.9.2-1.8.4-2.6h0c.6-1.4,1.6-2.3,2.7-2.8,1.1-.5,2.3-.7,3.3-.6.2,0,.4,0,.6,0,1.1.2,2.3.6,3.4,1.3,1.1.7,2,1.7,2.6,3.2.8,2.1,1,4.2.9,6.1-.3,3.2-1.8,5.9-3.8,7.8Z"/>
  </g>
  <g>
    <path class="cls-1" d="M607.6,43.5c-.2-.1-.4-.1-.6,0-2.2,1.7-4.5,3.1-6.8,4.5-.4.3-.9.5-1.3,1l.4.3-.4-.3c-.3.4-.4.8-.6,1.2v.3c-.7,2.6-1.3,5.2-1.7,7.8,0,.2,0,.4.2.5.2.1.4.1.6,0,2.7-1.8,5.2-3.3,8.3-5.4.1,0,.2-.2.2-.3.7-2.8,1.4-6.4,1.9-9,0-.2,0-.4-.2-.6ZM600.7,48.9c1.9-1.2,3.9-2.3,5.8-3.7-.5,2.4-1,5.2-1.6,7.4-2.6,1.7-4.8,3-7.1,4.5.4-2.2.9-4.3,1.4-6.4v-.2c.2-.3.3-.6.4-.8.2-.3.6-.5,1.1-.8Z"/>
    <path class="cls-1" d="M586.2,70.4c-.8.3-1.7.3-2.5,0-.2,0-.4-.1-.5-.2.4-.5.9-1,1.5-1.3.8,0,1.7-.1,2.4-.6.2-.1.3-.4.2-.6s-.3-.4-.5-.4c-.8,0-1.6.1-2.3.5-.1,0-.2,0-.3,0-.1,0-.3,0-.4-.1-.1,0-.2-.1-.3-.2h0c0-.2.2-.5.5-.6,1.5-1.1,3-2.2,4.4-3.3.2-.2.3-.4.2-.7s-.4-.3-.6-.3l-3.1.8c-.3,0-.5.1-.7,0-.1,0-.2-.1-.2-.3,0-.2,0-.4,0-.6,0-.2.1-.3.2-.5.5-.8,1.2-1.6,2.1-2.1.3-.1.3-.5.2-.7-.1-.3-.5-.3-.7-.2-1,.6-1.9,1.4-2.5,2.5-.1.2-.2.5-.3.7,0,.4-.1.8,0,1.2,0,.4.4.8.8,1h.2c.5.2.9,0,1.2,0,.2,0,.3,0,.5-.1-.7.5-1.5,1.1-2.2,1.6-.3.2-.7.5-.8,1.1,0,.1,0,.3,0,.5,0,.3.2.6.4.7.2.2.4.3.5.3-.5.4-1,1-1.3,1.6-.1.3,0,.6.2.7.4.2.8.4,1.3.5.4.1.8.2,1.2.2-.8.7-1.6,1.3-2.5,2-.1.1-.3.3-.5.6h0c-.1.6,0,.9.3,1.2.2.2.5.4.8.5h.2c.5,0,1,0,1.2,0h.1c.3.2.6,0,.7-.2.1-.3,0-.6-.3-.7,0,0-.2,0-.3,0-.6-.1-1,0-1.4,0h0c-.1,0-.2-.1-.3-.2h0c0,0,.2-.2.2-.2,1.3-1.1,2.6-2.1,3.9-3.2.2-.2.3-.4.1-.7-.1-.2-.4-.3-.6-.3Z"/>
    <path class="cls-1" d="M564.3,74.8c1.3,1.6,3.2,2.7,5.2,3.3,1.2.3,2.4.4,3.5.2,1.1-.2,2.1-.7,2.9-1.6,0,0,0,0,.1,0h.2c.3-.4.5-.6.7-.8,0,.1,0,.2,0,.3,0,0,0,0,0,0,0,0,0,0,0,.1,0,.1,0,.2,0,.3,1.3,1.7,3.3,3.1,5.4,3.6,1.1.3,2.2.4,3.3.2.8-.1,1.5-.4,2.2-.9,0,0,.3,0,.3,0,.3,0,.5-.3.5-.6,0,0,0,0,0,0,4.8-4,9.9-7.7,15.3-11,0,0,.1,0,.2,0,.3,0,.6,0,.7-.4,3.1-11.5,5.5-24.9,8.4-36.7,0-.2,0-.5-.3-.6-.2-.1-.5,0-.6,0-.8.9-1.8,1.8-2.8,2.8,0,0-.2,0-.3,0-1.1.1-2.5,0-3.7-.3-.6-.2-1.1-.4-1.6-.7,0-.3,0-.6,0-.9,0,0,0,0,0,0,0-.9.1-1.8.2-2.8,0-.2,0-.4-.2-.5s-.4-.1-.5,0c-2.5,1.3-4.9,2.7-7.3,4.2,0-1.1.2-2.2.2-3.3,0-.2-.1-.4-.3-.5-.2,0-.5,0-.6.1-.5.5-.9,1.1-1.4,1.6-1,.1-2.1,0-3.1-.2-.6-.2-1.1-.4-1.7-.7,0-.3,0-.6,0-.9,0,0,0,0,0,0,0-.9,0-1.8,0-2.8,0-.2,0-.4-.3-.5-.2,0-.4,0-.5,0-2.5,1.4-4.8,3-7,4.6,0-1.2.1-2.5.2-3.7,0-.2-.1-.4-.3-.5-.2,0-.5,0-.6.2-.5.5-.9,1.1-1.4,1.6-1.1.2-2.2.1-3.3-.2,0,0-.2,0-.3,0-.4-.1-.9-.3-1.3-.5,0-.3,0-.6,0-.9,0,0,0,0,0,0,0-.9,0-1.8,0-2.8,0-.2-.1-.4-.3-.5-.2,0-.4,0-.5,0-6.8,4.2-12.6,8.9-18.3,14.5-.1.1-.3.3-.4.6,0,0,0,.2,0,.2-.2,0-.3.2-.3.4-1,10.8-2,20.1-4,34.2,0,.2,0,.3.1.5,1.2,1.5,3.1,2.6,5,3.1,1.2.3,2.5.4,3.6.2,1.1-.2,2.2-.7,3-1.7,0,0,0,0,.1,0h.2c.5-.6,1.4-1.5,2.1-2.2-.1.8-.3,1.7-.4,2.5,0,.2,0,.3.1.5ZM572.8,77.3c-.9.2-2,0-3.1-.2-1.7-.5-3.4-1.5-4.5-2.8,2.1-13.2,3.3-22.2,4.4-32.2.9.7,2,1.2,3.1,1.5,1.4.4,3,.5,4.4.5,1,0,2.1,0,3.1-.3.4-.1.8-.3,1.2-.5-2,10.8-3.9,20.3-5.9,31.2,0,0,0,.1-.1.2-.1.5-.2.8-.2,1.1,0,0,0,.1,0,.2,0,0,0,0-.1,0-.6.7-1.4,1.1-2.3,1.3ZM587.9,26.4c0,.7,0,1.4,0,2.1-5.6,3.7-11.1,7.5-16.5,11.4-.3.2-.6.4-.7.7,0,0,0,.2-.1.3,0,0,0,.2,0,.3,0,0,0,0-.1-.1-.1,0-.2-.2-.3-.3,0-.1,0-.3,0-.5v-.2c0,0,.1-.1.3-.2,5.5-5.2,11.1-9.6,17.5-13.4ZM587.9,29.3s0,0,0,.1c-1.2.7-2.4,1.4-3.5,2.1,1.2-.8,2.3-1.6,3.5-2.4,0,0,0,.1,0,.2ZM571.5,42c0,0-.2,0-.3-.1-.2-.2-.3-.5-.2-.8v-.2c.2-.2.4-.4.7-.6,1.4-1,2.8-2,4.2-3-1,.8-2.1,1.6-3.1,2.4-.5.5-1.1,1.1-1.3,1.8,0,.1,0,.3,0,.5ZM585.2,43.4v-.2c.2-.2.4-.4.7-.5,1.4-1,2.9-1.9,4.4-2.8-1.1.7-2.1,1.5-3.2,2.3-.6.4-1.2,1.1-1.4,1.9,0,.1,0,.2,0,.4,0,0-.2-.1-.3-.2-.2-.2-.2-.5-.1-.7ZM602.6,32.3s0,0,0,.1c-1.2.6-2.4,1.3-3.6,1.9,1.2-.7,2.4-1.5,3.6-2.2,0,0,0,.1,0,.2ZM577.3,74c-.3.2-.5.4-.7.6,2.1-11.3,4-21,6.2-32.4,0,.2,0,.4,0,.6,0,.2.1.3.2.5-.1,0-.2.2-.2.4-1.1,10.2-2.9,20.3-5.5,30.3,0,0,0,0,0,0ZM585.4,79.5c-.9.1-1.9,0-2.8-.2-1.8-.5-3.6-1.6-4.7-3.1,2.8-10.5,4.8-21.2,5.9-32,1,.9,2.2,1.5,3.5,1.8,1.3.3,2.6.5,3.9.6,1,0,2.1,0,3.1-.2.4-.1.9-.3,1.3-.6-2.6,11.2-5,20.8-7.6,32.1,0,0,0,.1,0,.2,0,0-.2.1-.3.2-.6.7-1.4,1-2.2,1.2ZM597,44.9c-2.4,10.7-4.7,20.8-7,31.6-.2.2-.5.4-.7.6,2.6-11.2,5-20.8,7.6-32.1,0,0,0,0,.1-.1ZM603.7,66.9s0,0-.1,0c-4.3,2.6-8.4,5.5-12.3,8.5,2.4-10.7,4.7-20.7,7-31.5.3-.2.6-.4.8-.6,3.7-2.9,8.7-7.2,12.4-10.8-2.7,11.2-5,23.5-7.8,34.2ZM598.5,42.5c-.6.4-1.1.8-1.7,1.2,0,0,0,0-.2-.1-.3-.1-.6,0-.7.3-.3.7-1.1,1.3-1.9,1.5-.8.2-1.8.2-2.8.2-1.2,0-2.5-.2-3.7-.5-.3,0-.5-.2-.7-.2,0,0,0-.1,0-.2-.1-.1-.1-.2,0-.5,0-.4.6-.9,1.1-1.3,4.9-3.6,10.1-6.8,15.5-9.6.1,0,.3.1.4.2-5.1,3-9.8,6.1-14.6,9.7-.2.2-.3.5-.1.7s.5.3.7.1c5-3.7,9.9-6.9,15.2-10,0,0,0,0,0,0,.2,0,.3,0,.5.1-4.4,3.1-8.8,6.2-13.2,9.2-.2.2-.3.5-.1.7.2.2.5.3.7.1,4.6-3.3,9.3-6.5,13.9-9.8,0,0,0,0,.1-.1.4,0,.8,0,1.2,0-3.2,2.9-6.8,6-9.6,8.2ZM602.8,29.4c0,.7,0,1.4-.1,2.1-5.7,3.4-11.4,7-17,10.7-.3.2-.6.4-.8.7,0,.1-.1.2-.2.4,0,0,0,.1,0,.2,0,0,0,0-.1-.1-.2-.1-.4-.3-.6-.5v-.2c-.1,0-.1-.1-.1-.1,0,0,.1-.2.2-.3,5.7-4.9,12-9.2,18.7-12.7ZM588.3,37.4c2.3-2.2,4.4-4.6,6.5-7,0,.8-.1,1.7-.2,2.5-2.2,1.4-4.3,2.9-6.4,4.4ZM584.3,39.7c-.8.7-1.2,1-1.9,1.5-.3,0-.5.2-.5.4,0,0-.2.2-.2.3-.1.1-.3.2-.5.3-.4.2-.8.4-1.3.5-.8.3-1.8.3-2.8.3-1.4,0-2.9-.1-4.2-.5,0,0-.2,0-.3,0,0,0,0-.1,0-.2-.1-.2-.1-.3,0-.5,0-.4.5-.9,1-1.3,4.7-3.8,9.7-7.3,15-10.3.1,0,.3.2.4.2-5,3.2-9.5,6.5-14.2,10.3-.2.2-.3.5,0,.7s.5.3.7,0c4.8-3.9,9.5-7.3,14.7-10.7,0,0,0,0,0,0,.1,0,.3,0,.4,0-4.2,3.3-8.4,6.5-12.6,9.8-.2.2-.3.5,0,.7.2.2.5.3.7,0,4.5-3.5,9-6.9,13.4-10.4.2,0,.3,0,.5,0-2.7,3-5.4,5.9-8.4,8.5ZM567.9,38.4c-.3,0-.5.2-.5.4,0,0-.2.2-.2.3-.1.1-.3.2-.4.3-.4.2-.8.4-1.2.6-.8.3-1.8.3-2.8.3-1.5,0-3,0-4.4-.4,0,0,0,0,0,0,0,0,0-.1-.1-.2-.1-.2-.1-.3,0-.5,0-.4.5-.9.9-1.3,4.6-3.9,9.6-7.5,14.8-10.6.1,0,.3.1.4.2-4.9,3.3-9.4,6.8-13.9,10.6-.2.2-.3.5,0,.7.2.2.5.3.7,0,4.7-4,9.4-7.5,14.5-11,.2,0,.4,0,.6.1-4.1,3.3-8.3,6.7-12.4,10-.2.2-.3.5,0,.7.2.2.5.3.7,0,4.4-3.6,8.8-7.1,13.2-10.7.2,0,.3,0,.5,0-2.6,3-5.3,6-8.2,8.6-.8.7-1.2,1-1.9,1.5ZM556.8,39.3c-.2-.2-.3-.5-.2-.8v-.2c.2-.2.4-.4.6-.6,1.4-1,2.8-2.1,4.2-3.1-1,.8-2,1.6-3,2.5-.5.5-1.1,1.1-1.3,1.8,0,.2,0,.3,0,.5,0,0-.2,0-.3-.1ZM573.2,26.4s0,0,0,.1c-1.2.7-2.3,1.4-3.5,2.2,1.1-.8,2.3-1.6,3.4-2.4,0,0,0,.1,0,.2ZM555.7,37.6s0-.1.2-.2c5.4-5.3,10.9-9.8,17.3-13.8,0,.7,0,1.4,0,2.1-5.5,3.8-10.9,7.7-16.2,11.8-.3.2-.5.4-.7.8,0,0,0,.2-.1.3,0,0,0,.2,0,.3,0,0,0,0-.1-.1-.1,0-.2-.2-.3-.3,0-.2,0-.3,0-.5h0ZM559,74.7c-1,.2-2.1.1-3.2-.2-1.7-.4-3.3-1.4-4.3-2.6,1.8-13.2,2.9-22.2,3.8-32.3.9.7,1.9,1.1,2.9,1.4,1.5.4,3.1.5,4.6.5,1,0,2.1,0,3.1-.4.4-.1.8-.3,1.2-.5-1.8,10.9-3.5,20.3-5.3,31.3,0,0,0,.1-.1.2-.1.5-.2.8-.2,1.1,0,0,0,.1,0,.2,0,0,0,0-.1,0-.6.7-1.4,1.1-2.4,1.3ZM564.7,70.3c-.4.4-1.1,1.1-1.8,1.7,1.9-11.4,3.6-21.1,5.5-32.5,0,0,0,0,0,0,.8-.6,1.3-1,2.1-1.7,3.5-3.2,6.6-6.7,9.7-10.3,0,.9,0,1.9-.1,2.8,0,0,0,.1,0,.2-3.6,2.7-7.1,5.6-10.5,8.7-.1.1-.3.3-.4.6,0,0,0,.2,0,.2-.2,0-.3.2-.3.4-1.1,9.7-2.2,18.1-4,29.9,0,0-.1,0-.2,0Z"/>
    <path class="cls-1" d="M573.3,68.1c-.8.3-1.8.3-2.7.1-.1,0-.2,0-.3-.1.4-.5.9-1,1.4-1.3.8,0,1.7-.2,2.4-.7.2-.1.3-.4.2-.6,0-.2-.3-.4-.5-.4-.8,0-1.6.2-2.3.6-.2,0-.3,0-.5,0h-.3c-.1-.1-.2-.2-.3-.3h0c0-.1,0-.2,0-.2,0,0,.2-.3.4-.5,1.4-1.2,2.8-2.3,4.3-3.5.2-.2.3-.4.1-.7s-.4-.3-.6-.3c-1,.3-2.1.6-3.1,1-.3.1-.6.1-.7.1-.1,0-.2-.1-.2-.3,0-.2,0-.4,0-.7,0-.1,0-.3.1-.4.4-.9,1.1-1.6,2-2.1.2-.2.3-.5.2-.7-.2-.2-.5-.3-.7-.2-1,.6-1.8,1.5-2.3,2.6,0,.2-.2.4-.2.6-.1.4-.1.8,0,1.2,0,.4.4.8.9,1h.1c.5.2.9,0,1.3,0,.2,0,.3,0,.5-.1-.7.6-1.4,1.2-2.1,1.7-.3.2-.6.5-.8,1,0,.2,0,.4,0,.5,0,.3.3.6.4.7.2.1.4.2.5.3-.5.5-.9,1-1.2,1.6-.1.3,0,.6.2.7.3.2.7.3,1.1.4.5.1.9.2,1.4.2-.8.7-1.6,1.4-2.4,2.1-.1.1-.3.3-.4.6h0c-.1.5,0,.9.3,1.1.2.2.5.4.8.5.1,0,.2,0,.3,0,.3,0,.5,0,.7,0,.2,0,.4,0,.5,0h0c.3.1.6,0,.7-.3.1-.3,0-.6-.3-.7h-.2c-.3-.1-.6-.1-.8-.1-.2,0-.5,0-.6,0h-.1c-.1,0-.2-.1-.3-.2,0,0,.1-.2.1-.2,1.2-1.1,2.5-2.2,3.7-3.3.2-.2.2-.5.1-.7-.1-.2-.4-.3-.6-.2Z"/>
    <path class="cls-1" d="M559.4,65.5c-.9.3-1.9.4-2.8.1,0,0-.2,0-.3,0,.3-.5.8-1,1.4-1.4.8,0,1.7-.2,2.3-.7.2-.1.3-.4.2-.6,0-.2-.3-.4-.5-.4-.8,0-1.6.3-2.3.6-.2,0-.4,0-.5,0h-.2c-.1-.1-.2-.2-.3-.2h0c0-.1,0-.2,0-.2,0,0,.2-.3.4-.5,1.4-1.2,2.8-2.4,4.2-3.6.2-.2.2-.4.1-.7-.1-.2-.4-.3-.6-.2-1,.3-2,.7-3.1,1-.3.1-.6.2-.7.1-.1,0-.2,0-.2-.3,0-.2,0-.5,0-.7,0-.1,0-.2.1-.3.4-.9,1.1-1.6,1.9-2.2.2-.2.3-.5.1-.7-.2-.2-.5-.3-.7-.1-1,.6-1.8,1.6-2.3,2.6,0,.2-.1.3-.2.5-.1.4-.1.8,0,1.3,0,.4.4.9.9,1h.1c.5.2,1,0,1.3-.1.1,0,.3-.1.4-.2-.7.6-1.4,1.2-2.1,1.8-.3.2-.6.5-.8,1,0,.2,0,.4,0,.6,0,.3.3.6.5.7.2.1.4.2.6.3-.5.5-.9,1-1.2,1.7-.1.3,0,.6.2.7.3.2.6.3,1,.4.5.1,1,.2,1.5.2-.8.7-1.5,1.4-2.3,2.2-.1.1-.3.3-.4.6h0c-.1.5,0,.9.3,1.1.2.2.5.4.8.5.1,0,.2,0,.3,0,.3,0,.5,0,.8,0,.2,0,.4,0,.5,0h0c.3.1.6,0,.7-.3.1-.3,0-.6-.3-.7h-.2c-.3-.1-.6-.1-.9-.1-.2,0-.5,0-.6,0h-.1c-.1,0-.2-.1-.3-.2,0,0,.1-.2.1-.2,1.2-1.1,2.4-2.3,3.6-3.4.2-.2.2-.5,0-.7-.1-.2-.4-.3-.6-.2Z"/>
  </g>
</svg>