<?xml version="1.0" encoding="UTF-8"?>
<svg xmlns="http://www.w3.org/2000/svg" version="1.1" xmlns:xlink="http://www.w3.org/1999/xlink" viewBox="0 0 421 141">
  <defs>
    <style>
      .cls-1 {
        fill: url(#linear-gradient);
      }

      .cls-1, .cls-2, .cls-3, .cls-4, .cls-5, .cls-6, .cls-7 {
        stroke-width: 0px;
      }

      .cls-8 {
        isolation: isolate;
      }

      .cls-2, .cls-6 {
        fill: #221f1f;
      }

      .cls-2, .cls-9 {
        mix-blend-mode: multiply;
      }

      .cls-3 {
        fill: #0e764d;
      }

      .cls-4 {
        fill: url(#linear-gradient-2);
      }

      .cls-5 {
        fill: url(#linear-gradient-3);
      }

      .cls-7 {
        fill: #929497;
      }
    </style>
    <linearGradient id="linear-gradient" x1="300.6" y1="-246.4" x2="382.6" y2="-246.4" gradientTransform="translate(4.3 -191.8) rotate(-5.5) scale(1 -1)" gradientUnits="userSpaceOnUse">
      <stop offset="0" stop-color="#a6c330"/>
      <stop offset=".2" stop-color="#a1c130"/>
      <stop offset=".3" stop-color="#95bb30"/>
      <stop offset=".5" stop-color="#81b131"/>
      <stop offset=".7" stop-color="#64a331"/>
      <stop offset=".9" stop-color="#409232"/>
      <stop offset="1" stop-color="#1e8234"/>
    </linearGradient>
    <linearGradient id="linear-gradient-2" x1="318.4" y1="-243.2" x2="323.5" y2="-268.4" gradientTransform="translate(4.3 -191.8) rotate(-5.5) scale(1 -1)" gradientUnits="userSpaceOnUse">
      <stop offset="0" stop-color="#d81733"/>
      <stop offset=".3" stop-color="#d41632"/>
      <stop offset=".5" stop-color="#ca1630"/>
      <stop offset=".6" stop-color="#b9162c"/>
      <stop offset=".8" stop-color="#a11526"/>
      <stop offset="1" stop-color="#821520"/>
      <stop offset="1" stop-color="#821520"/>
    </linearGradient>
    <linearGradient id="linear-gradient-3" x1="330.7" y1="-243" x2="375" y2="-243" gradientTransform="translate(4.3 -191.8) rotate(-5.5) scale(1 -1)" gradientUnits="userSpaceOnUse">
      <stop offset="0" stop-color="#47b5dd"/>
      <stop offset=".3" stop-color="#35a4d1"/>
      <stop offset=".9" stop-color="#067ab2"/>
      <stop offset="1" stop-color="#0074ae"/>
    </linearGradient>
  </defs>
  <g class="cls-8">
    <g id="Layer_1" data-name="Layer 1">
      <g id="small">
        <g>
          <path class="cls-2" d="M70.9,113c-3.3,0-5.2-1.7-5.2-5.3v-22.3c0-10-3.7-13.9-12.3-13.9s-11.4,4.1-11.4,13.9v27.6h-3.1c-3,0-5.1-1.8-5.1-5.6v-22.2c0-13.6,8.1-21.5,20.5-21.5s19.5,7,19.5,21.4v27.9h-3Z"/>
          <path class="cls-2" d="M96,113.9c-8.1,0-14.7-3.8-14.7-9.6v-3.5h.4c2.7,3,8.1,5.4,14.4,5.4s10.3-2.3,10.3-7.1-1.7-5.7-12.8-8.1c-9-1.9-13.3-5-13.3-12.2s7.2-15.2,19.2-15.2,14.1,3.3,14.1,9.1v3.6h-.5c-2.1-2.5-7.3-5-13-5-8.2,0-11.5,2.8-11.5,6.9s1.8,4.6,11.9,6.8c9.6,2.1,14.3,6.5,14.3,13.2,0,10.1-7.9,15.6-18.9,15.6Z"/>
          <path class="cls-2" d="M130,64.7h16.6v2.7c0,3-2,5-6.3,5h-10.2v24c0,6.9,2.7,9.8,8,9.8s5.9-.3,7.6-1.4h.4v2.9c0,4.1-3.1,6.2-8.8,6.2-10.8,0-15.5-5.6-15.5-16.7v-31.5c0-2.8.7-5.5,2.1-7.5,1.2-1.7,3.9-3.4,5.1-3.4h1v10Z"/>
          <path class="cls-2" d="M166.8,113.9c-9.9,0-18.5-5.7-18.5-14.3s8.1-16.1,22.5-16.1h6.5v-2.3c0-7.1-3.5-9.9-11.4-9.9s-12.6,2.7-15.4,6.6h-.5v-4c0-4.4,5.8-10.2,16.6-10.2s18.8,6.4,18.8,18.2v15.2c0,9.8-5.3,16.8-18.8,16.8ZM177.4,90.4h-6.6c-9.7,0-14.1,3-14.1,8.3s4.2,7.6,10.4,7.6,10.3-2.9,10.3-9.9v-6.1Z"/>
          <path class="cls-2" d="M229,113c-3.4,0-5.2-1.7-5.2-5.3v-22.3c0-10-3.7-13.9-12.3-13.9s-11.4,4.1-11.4,13.9v27.6h-3.1c-3,0-5.1-1.8-5.1-5.6v-22.2c0-13.6,8.2-21.5,20.5-21.5s19.5,7,19.5,21.4v27.9h-3Z"/>
          <path class="cls-2" d="M246.8,64.7h16.7v2.7c0,3-2,5-6.3,5h-10.2v24c0,6.9,2.7,9.8,8,9.8s5.9-.3,7.6-1.4h.5v2.9c0,4.1-3.2,6.2-8.8,6.2-10.8,0-15.5-5.6-15.5-16.7v-31.5c0-2.8.7-5.5,2.1-7.5,1.2-1.7,3.9-3.4,5.1-3.4h1v10Z"/>
          <g class="cls-9">
            <g>
              <path class="cls-7" d="M274.3,113c-3.6,0-6.5-2.6-6.5-6.3s2.9-6.4,6.5-6.4,6.4,2.7,6.4,6.4-2.8,6.3-6.4,6.3Z"/>
              <path class="cls-7" d="M300.3,113.4c-9.5,0-14.7-4.6-14.7-14.4v-51.1h2.5c3.3,0,5.8,2.1,5.8,6.3v43.8c0,6.1,3.1,7.8,7.6,7.8h5.3v2.7c0,3.4-2.2,4.9-6.6,4.9Z"/>
              <path class="cls-7" d="M331.9,108.4c-7.7,15.6-12.2,20.5-19.1,20.5s-6.2-2.1-6.2-4.2v-3.1h3.9c3.8,0,6.3-.9,11.9-11.5-7.6-11.7-15.7-29.8-18.6-45.6h4.7c3.4,0,4.5,2.6,5.1,4.9,2.2,9.7,7,23,13.1,32.9,5.1-8.9,12.1-27.2,13.7-37.8h3.3c2.2,0,3.8.8,3.8,3.7s-.6,3.7-1,5.1c-3.7,14.4-11.8,29.7-14.5,35Z"/>
            </g>
          </g>
          <g class="cls-9">
            <path class="cls-6" d="M21.6,57.9c3.1,0,5.5-2.5,5.5-5.6s-2.4-5.7-5.5-5.7-5.6,2.6-5.6,5.7,2.5,5.6,5.6,5.6Z"/>
            <path class="cls-6" d="M25.5,92.8v-21.8c0-4.3-2.9-6.4-5.7-6.4h-2.5v36.8c0,9.4,2.2,11.2,8.2,11.2v-19.8Z"/>
          </g>
          <g>
            <polygon class="cls-1" points="410 29.9 325.9 11.8 340.8 29.9 410 29.9"/>
            <polygon class="cls-4" points="392.2 32.1 304.3 32.1 327 48.3 392.2 32.1"/>
            <polygon class="cls-5" points="355.6 6.7 360.3 16.8 402 26 355.6 6.7"/>
            <polygon class="cls-3" points="361.5 19.4 364.5 26 391.9 26 361.5 19.4"/>
          </g>
        </g>
        <g>
          <path class="cls-7" d="M358.4,70.5v-5.1h-1.9v-.7h4.6v.7h-1.9v5.1h-.8Z"/>
          <path class="cls-7" d="M361.9,70.5v-5.8h1.2l1.4,4.1c.1.4.2.7.3.9,0-.2.2-.5.3-.9l1.4-4h1v5.8h-.7v-4.9l-1.7,4.9h-.7l-1.7-4.9v4.9h-.8Z"/>
        </g>
      </g>
    </g>
  </g>
</svg>