<svg width="190" height="60" viewBox="0 0 190 60" fill="none" xmlns="http://www.w3.org/2000/svg">
<g clip-path="url(#clip0_1578_5346)">
<g style="mix-blend-mode:multiply">
<path d="M27.0185 51.4963C25.4351 51.4963 24.5235 50.6765 24.5235 48.9403V38.1857C24.5235 33.363 22.7482 31.4822 18.6218 31.4822C14.4954 31.4822 13.152 33.4595 13.152 38.1857V51.4963H11.6646C10.2251 51.4963 9.21753 50.6283 9.21753 48.7956V38.0893C9.21753 31.5304 13.104 27.7205 19.0536 27.7205C25.0033 27.7205 28.4099 31.0963 28.4099 38.041V51.4963H26.9705H27.0185Z" fill="white"/>
</g>
<g style="mix-blend-mode:multiply">
<path d="M39.0618 51.9305C35.1754 51.9305 32.0086 50.0979 32.0086 47.3007V45.6128H32.2005C33.496 47.0596 36.087 48.217 39.1098 48.217C42.1326 48.217 44.0518 47.1078 44.0518 44.7929C44.0518 42.478 43.2362 42.044 37.9103 40.8865C33.592 39.9702 31.5288 38.4752 31.5288 35.0029C31.5288 31.5305 34.9834 27.6724 40.7412 27.6724C46.4989 27.6724 47.5065 29.2639 47.5065 32.061V33.7972H47.2666C46.259 32.5915 43.764 31.3858 41.029 31.3858C37.0946 31.3858 35.5112 32.7362 35.5112 34.7135C35.5112 36.6908 36.3749 36.9319 41.221 37.9929C45.8271 39.0057 48.0823 41.1277 48.0823 44.3589C48.0823 49.2298 44.2918 51.8823 39.0138 51.8823L39.0618 51.9305Z" fill="white"/>
</g>
<g style="mix-blend-mode:multiply">
<path d="M55.3754 28.2029H63.3402V29.5051C63.3402 30.9519 62.3806 31.9164 60.3174 31.9164H55.4233V43.4909C55.4233 46.8185 56.7188 48.2171 59.2618 48.2171C61.8048 48.2171 62.0927 48.0724 62.9084 47.5419H63.1003V48.9405C63.1003 50.9178 61.6129 51.9306 58.878 51.9306C53.696 51.9306 51.4409 49.2299 51.4409 43.8767V28.6852C51.4409 27.3348 51.7768 26.0327 52.4485 25.0682C53.0243 24.2483 54.3198 23.4285 54.8955 23.4285H55.3754V28.2512V28.2029Z" fill="white"/>
</g>
<g style="mix-blend-mode:multiply">
<path d="M73.0322 51.9304C68.2821 51.9304 64.1558 49.1815 64.1558 45.0339C64.1558 40.8864 68.0422 37.2694 74.9515 37.2694H78.0703V36.1602C78.0703 32.7361 76.3909 31.3857 72.6004 31.3857C68.8099 31.3857 66.5548 32.6878 65.2113 34.5687H64.9714V32.6396C64.9714 30.5176 67.7543 27.7205 72.9363 27.7205C78.1182 27.7205 81.9567 30.807 81.9567 36.4978V43.8283C81.9567 48.5545 79.4137 51.9304 72.9363 51.9304H73.0322ZM78.1182 40.5971H74.9515C70.2973 40.5971 68.1862 42.0439 68.1862 44.5999C68.1862 47.1559 70.2014 48.2651 73.1762 48.2651C76.151 48.2651 78.1182 46.8666 78.1182 43.4907V40.5488V40.5971Z" fill="white"/>
</g>
<g style="mix-blend-mode:multiply">
<path d="M102.877 51.4963C101.245 51.4963 100.382 50.6765 100.382 48.9403V38.1857C100.382 33.363 98.6063 31.4822 94.48 31.4822C90.3536 31.4822 89.0101 33.4595 89.0101 38.1857V51.4963H87.5227C86.0833 51.4963 85.0757 50.6283 85.0757 48.7956V38.0893C85.0757 31.5304 89.0101 27.7205 94.9118 27.7205C100.813 27.7205 104.268 31.0963 104.268 38.041V51.4963H102.829H102.877Z" fill="white"/>
</g>
<g style="mix-blend-mode:multiply">
<path d="M111.417 28.2029H119.43V29.5051C119.43 30.9519 118.47 31.9164 116.407 31.9164H111.513V43.4909C111.513 46.8185 112.809 48.2171 115.352 48.2171C117.895 48.2171 118.182 48.0724 118.998 47.5419H119.238V48.9405C119.238 50.9178 117.703 51.9306 115.016 51.9306C109.834 51.9306 107.579 49.2299 107.579 43.8767V28.6852C107.579 27.3348 107.914 26.0327 108.586 25.0682C109.162 24.2483 110.457 23.4285 111.033 23.4285H111.513V28.2512L111.417 28.2029Z" fill="white"/>
</g>
<g style="mix-blend-mode:multiply">
<path d="M124.612 51.4964C122.885 51.4964 121.493 50.2425 121.493 48.4581C121.493 46.6737 122.885 45.3716 124.612 45.3716C126.339 45.3716 127.683 46.6737 127.683 48.4581C127.683 50.2425 126.339 51.4964 124.612 51.4964Z" fill="white"/>
<path d="M137.087 51.6892C132.529 51.6892 130.034 49.4708 130.034 44.7446V20.1006H131.233C132.817 20.1006 134.016 21.1134 134.016 23.1389V44.2623C134.016 47.2041 135.504 48.024 137.663 48.024H140.206V49.3261C140.206 50.9658 139.15 51.6892 137.039 51.6892H137.087Z" fill="white"/>
<path d="M152.249 49.2778C148.554 56.8012 146.395 59.1644 143.085 59.1644C139.774 59.1644 140.11 58.1516 140.11 57.1388V55.6438H141.981C143.804 55.6438 145.004 55.2097 147.691 50.0977C144.044 44.4551 140.158 35.7261 138.766 28.1062H141.021C142.653 28.1062 143.181 29.3601 143.469 30.4693C144.524 35.1473 146.827 41.5615 149.754 46.336C152.201 42.0438 155.56 33.2183 156.327 28.1062H157.911C158.966 28.1062 159.734 28.492 159.734 29.8906C159.734 31.2892 159.446 31.675 159.254 32.3502C157.479 39.2949 153.592 46.6736 152.297 49.2296L152.249 49.2778Z" fill="white"/>
</g>
<g style="mix-blend-mode:multiply">
<path d="M3.36394 24.9233C4.85135 24.9233 6.00289 23.7176 6.00289 22.2226C6.00289 20.7275 4.85135 19.4736 3.36394 19.4736C1.87653 19.4736 0.677002 20.7275 0.677002 22.2226C0.677002 23.7176 1.87653 24.9233 3.36394 24.9233Z" fill="white"/>
<path d="M5.23522 41.7545V31.2411C5.23522 29.1673 3.84377 28.1545 2.50031 28.1545H1.30078V45.9021C1.30078 50.4354 2.35636 51.3035 5.23522 51.3035V41.7545Z" fill="white"/>
</g>
<path d="M189.722 11.4198L149.37 2.69067L156.519 11.4198H189.722Z" fill="white"/>
<path d="M181.181 12.481H139.006L149.898 20.2937L181.181 12.481Z" fill="white"/>
<path d="M163.62 0.231201L165.875 5.10212L185.884 9.539L163.62 0.231201Z" fill="white"/>
<path d="M166.451 6.35596L167.891 9.53894H181.037L166.451 6.35596Z" fill="white"/>
<path d="M164.964 31V28.5405H164.052V28.2029H166.259V28.5405H165.348V31H164.964Z" fill="white"/>
<path d="M166.643 31V28.2029H167.219L167.891 30.1802C167.939 30.3731 167.987 30.5178 168.035 30.6142C168.035 30.5178 168.131 30.3731 168.179 30.1802L168.85 28.2511H169.33V31.0483H168.994V28.6852L168.179 31.0483H167.843L167.027 28.6852V31.0483H166.643V31Z" fill="white"/>
</g>
<defs>
<clipPath id="clip0_1578_5346">
<rect width="190" height="60" fill="white"/>
</clipPath>
</defs>
</svg>
