<svg width="330" height="15" viewBox="0 0 330 15" fill="none" xmlns="http://www.w3.org/2000/svg">
<path fill-rule="evenodd" clip-rule="evenodd" d="M240.436 2.38836C240.792 2.44862 240.928 2.68498 241.388 2.66236C241.394 2.87228 241.354 3.14348 241.499 3.24955C242.614 2.9989 243.957 3.30222 245.002 3.0835C245.2 2.98803 245.049 2.63205 245.271 2.55593C245.896 2.53878 245.991 2.97635 246.235 3.26977C246.771 2.97499 248.15 3.73749 248.985 3.19439C249.052 3.46267 250.147 3.36261 250.213 3.16074C250.689 3.31774 252.18 3.42692 252.488 3.02833C251.907 2.92423 251.186 2.90398 250.586 3.01044C250.495 2.68283 250.969 2.75986 250.95 2.48029C251.449 2.60665 251.779 2.5776 252.76 2.58073C252.78 2.89029 252.594 2.99543 252.778 3.25048C253.545 3.20946 255.253 3.06259 256.193 3.30693C256.413 3.15084 256.778 3.11082 257.227 3.12852C257.339 2.88537 256.919 3.07695 257.03 2.8338C256.656 2.9841 255.377 2.8591 254.656 2.82886C255.414 2.46796 256.992 2.71482 258.063 2.58542C257.929 2.87919 257.241 2.74801 257.324 3.1959C258.892 3.10289 260.113 3.2595 261.394 3.01432C262.545 3.65301 264.377 2.8425 266.13 3.03453C266.242 2.79139 265.822 2.98296 265.933 2.73982C265.468 3.00267 264.918 2.76764 264.418 2.63129C264.507 2.42877 265.022 2.26459 265.172 2.54061C266.578 2.58208 267.871 2.35656 269.245 2.49897C269.456 2.43317 269.269 2.07816 269.324 1.9066C269.606 1.84886 270.14 1.97425 270.266 1.81075L270.262 1.6608C269.718 1.65569 268.967 1.83634 268.45 1.49038C268.3 1.62454 267.921 1.58491 267.892 1.8058C267.794 1.67844 267.627 1.62299 267.321 1.67138C267.192 1.69494 267.244 1.86358 267.235 1.97386C266.196 1.97234 265.195 2.08981 264.391 2.05183C264.241 1.74583 264.886 2.02824 264.857 1.81897C264.643 1.76482 264.602 1.57586 264.284 1.61458C264.155 1.63813 264.207 1.80677 264.198 1.91706C264.192 1.70713 263.678 1.89131 263.718 1.63011C265.774 1.24362 268.055 1.28114 270.344 1.22838C272.304 1.17467 274.811 1.31601 276.318 1.13465C277.052 1.63472 279.577 0.655187 279.745 1.63094C279.439 1.67933 279.273 1.62388 279.175 1.49652C278.48 2.02574 277.148 1.26195 276.523 1.71926C274.948 1.56236 273.173 1.44095 272.166 1.76866C272.552 2.0382 273.884 1.5115 273.98 2.01905C273.015 2.14554 271.46 1.85804 270.953 2.32211C274.363 2.62879 277.59 2.29024 280.452 2.87202C280.202 3.19902 279.028 3.06111 278.834 2.84637C278.21 2.93349 277.093 3.10417 276.741 2.75369C276.494 2.81046 276.32 2.92527 276.375 3.20388C276.593 3.40797 277.071 3.18479 277.223 3.11061C277.546 3.27181 278.136 3.6858 278.454 3.22691C279.295 3.72407 281.529 2.92255 282.442 3.48774C284.798 3.2631 287.036 3.91201 288.894 3.61099C289.995 4.15102 291.344 3.37377 292.504 3.88218C293.447 3.39615 295.888 4.11953 296.953 3.76022C299.756 3.91346 303.623 3.64741 307.089 3.41235C306.964 3.16568 306.377 3.29181 306.137 3.13834C304.232 3.47064 301.894 3.48472 300.167 3.37201C300.529 2.79187 302.47 3.3789 303.001 2.92418C303.494 3.25079 304.761 2.92596 305.566 3.00393C306.398 2.77103 307.694 3.07564 308.784 2.76566C309.286 1.71149 311.356 1.81482 312.823 1.47449C313.53 1.82527 314.214 1.36634 315.101 1.41206C315.184 1.85995 314.255 1.5553 314.169 1.87777C313.723 1.55987 313.261 1.94267 312.755 1.98657C312.765 2.36642 312.729 2.76757 312.97 2.94103C313.189 2.76495 313.638 2.75265 314.099 2.76003C314.234 2.52623 314.526 2.39819 314.745 2.22211C315.035 2.44426 315.515 2.31104 315.685 2.04628C315.781 2.09368 315.784 2.21363 315.973 2.18846C316.05 2.41643 315.645 2.28749 315.794 2.5635C315.512 2.62124 314.977 2.48586 314.852 2.65935C315.292 3.1975 316.707 2.70852 316.441 2.02558C316.814 2.30544 317.338 2.00099 317.471 1.69722C317.219 1.55407 316.724 1.60764 316.611 1.35065C316.869 1.27356 317.5 1.47633 317.457 1.17742C317.761 1.07904 317.534 1.41539 317.839 1.31701C318.493 1.05898 319.169 1.18049 319.55 1.2701C321.099 0.897518 324.682 1.07939 326.932 0.847662C327.792 0.764068 328.781 0.656922 329.405 0.999964C328.461 1.466 326.871 1.22946 325.998 1.2434C325.905 1.29597 325.908 1.41593 325.719 1.40111C325.749 1.65037 326.311 1.46491 326.111 1.91056C325.687 1.54203 325.339 2.19182 325.747 2.44072C326.114 2.45069 325.973 2.07439 326.304 2.05533C326.318 2.14497 326.482 2.11046 326.589 2.11754C326.739 2.44353 326.312 2.35522 326.414 2.64252C327.249 2.93976 328.088 1.65629 328.784 2.50752C328.523 2.86483 327.429 2.6147 327.083 2.92429C327.159 3.11228 327.293 3.24867 327.658 3.20865C327.568 3.38117 327.225 3.37057 327.292 3.65884C327.654 3.91903 327.95 3.52077 328.329 3.5604L328.343 4.0802C327.585 4.00094 327.406 4.35599 326.636 4.27705C326.998 4.53725 326.481 4.65144 326.178 4.8098C325.907 4.81724 325.889 4.58765 325.698 4.52285C325.339 4.79278 325.402 4.48096 324.848 4.54614C324.828 4.66675 324.946 4.67351 324.949 4.76347C325.109 5.02917 325.086 4.58966 325.324 4.68315C325.227 5.01594 325.58 4.97624 325.622 5.19519C325.783 5.05071 326.403 5.23381 326.371 4.95457C326.447 5.14255 326.847 5.07158 326.853 5.31149C327.163 4.97288 327.642 5.19985 328.169 5.05534C328.289 5.53224 328.058 5.74864 328.009 6.10012L327.065 6.126C326.988 6.33819 327.2 6.31237 327.169 6.49328C327.714 6.53837 328.199 6.14493 328.581 6.30451C328.699 6.73144 328.07 6.60864 327.935 6.84243C327.826 7.18554 328.572 6.82496 328.602 7.04423C328.669 7.36249 328.195 7.27547 328.045 7.42962C327.425 7.21653 325.913 7.19796 325.679 7.71457C325.72 7.48336 325.507 7.45919 325.57 7.19735C325.121 7.17965 324.744 7.22 324.536 7.37576C324.471 7.60762 324.869 7.45667 324.735 7.74045C324.475 7.72757 324.041 7.8595 324.162 7.53606C323.963 7.58154 323.811 7.65572 323.889 7.91368C323.557 7.85277 323.491 7.58449 323.124 7.56453C322.887 7.551 323.521 7.82375 323.134 7.93439C322.651 7.55747 321.308 7.24416 320.468 7.63732C320.149 7.60607 319.909 7.49258 319.705 7.35814C319.505 7.38363 319.69 7.68866 319.526 7.73317C319.078 7.74547 318.768 7.65392 318.666 7.3866C319.254 7.29046 319.444 6.89511 320.261 6.97274C320.401 6.90889 320.457 6.77732 320.44 6.59771C320.022 6.43909 319.212 6.60137 318.644 6.57691L318.63 6.0571C318.348 6.11485 318.199 6.269 318.266 6.58726C317.76 6.63116 317.31 6.61346 317.312 6.24328C316.616 6.28236 315.668 6.13831 315.816 6.8045C315.24 6.90032 315.195 6.56142 314.584 6.6882L314.594 7.05806C315.204 7.33145 316.242 7.263 316.794 7.58799C313.961 7.63564 312.105 8.01663 308.845 8.02595C308.597 8.01275 308.939 8.43353 308.57 8.3336C308.289 8.41134 308.401 8.17819 308.373 8.03889C307.412 7.86517 306.181 8.63919 305.338 8.05206C304.599 8.21239 303.569 8.15057 302.685 8.19483C302.832 7.96071 303.148 7.86201 303.331 7.6569C303.58 7.6801 303.598 7.8897 303.996 7.78873C304.506 7.41463 305.907 7.69634 306.164 7.1391C304.953 6.9222 303.952 7.45983 303.03 7.00492C302.7 7.01397 302.79 7.3116 302.472 7.32033C302.224 7.34712 302.22 7.17718 302.18 7.02821C300.282 7.14027 298.884 6.99852 297.259 7.16312L297.273 7.68292C297.569 7.27466 298.018 7.72252 298.782 7.57154L298.792 7.9414C299.5 7.93198 299.932 8.16025 300.791 8.03667C300.127 8.39498 298.644 8.14553 297.667 8.27234L297.659 7.97245C297.137 7.90672 297.014 8.1302 296.817 8.29564C296.131 8.23443 295.221 7.79919 294.536 8.20813C293.357 7.8703 292.479 8.15446 291.211 7.99915C290.559 7.91698 289.773 7.68843 289.206 7.68396C289.076 7.68752 288.986 7.85005 288.833 7.84426C288.111 7.79402 287.2 7.32879 286.456 7.75934C284.509 7.81272 282.212 7.59559 280.277 7.25847C279.981 7.20658 280.166 7.51161 279.809 7.42135C279.319 7.18471 278.543 7.32602 278.305 7.68268C277.952 7.74236 277.9 7.56373 277.548 7.63341C277.655 7.24032 277.173 7.33355 277.154 7.05398C277.381 7.1478 277.584 7.25226 278.008 7.18063C277.845 5.98464 275.777 6.83161 274.761 6.37929C274.404 6.27903 274.59 6.58406 274.293 6.54217C273.232 6.19111 272.063 6.60331 270.973 6.48313C270.629 6.44253 270.435 6.23779 270.209 6.20395C269.178 6.07216 267.541 6.66724 265.953 6.47068C265.679 6.39815 265.463 6.27403 265.189 6.1915C263.012 6.49126 259.375 6.51093 257.329 6.40696C255.744 6.33036 254.039 6.59718 252.783 6.46154C252.049 6.38164 250.096 6.65526 248.525 6.6483C248.005 6.65254 247.524 6.33561 247.012 6.61974C245.696 6.43573 244.37 6.74219 243.127 6.6562C243.36 6.96993 244.39 6.62159 244.461 7.0598C245.174 6.79016 245.469 7.19224 246.168 6.86295C246.44 6.84551 246.364 7.10768 246.739 6.99736C246.591 7.1815 246.285 7.24989 246.281 7.53011C245.449 7.33284 244.311 7.60413 243.154 7.61584C243.087 7.32757 243.43 7.33818 243.519 7.16565C243.316 7.08119 243.032 7.06896 242.852 6.96385L242.838 6.44405C242.17 6.63242 241.771 6.30323 241.143 6.64058C240.306 6.29336 238.419 6.36512 237.917 6.57895C236.087 6.17894 233.319 6.87506 231.931 6.22285C231.791 6.3067 231.7 6.43924 231.561 6.53309C229.991 6.11596 226.965 6.89917 225.672 6.25436C225.081 6.6907 224.222 6.37412 223.408 6.8366C223.296 6.6096 223.557 6.65247 223.589 6.53154C223.528 6.45319 223.374 6.45739 223.394 6.3168C221.44 6.58042 218.163 6.79031 216.474 6.35643C216.406 6.47833 216.182 6.47448 216.199 6.66409C215.407 6.22561 214.12 7.09121 213.535 6.43699C212.517 7.22517 211.363 6.47652 210.329 7.11509C210.337 7.38499 210.806 7.27208 210.906 7.46942C211.247 7.43005 211.348 7.21722 211.846 7.29359C212.194 8.34446 210.423 7.52267 209.681 8.02319C209.416 7.82039 208.78 7.90783 208.261 7.91207C208.161 7.71473 208.068 7.34714 208.337 7.23973C208.784 7.19745 208.77 7.53797 209.01 7.66145L209.387 7.6511C209.727 7.56175 209.513 7.06743 210.131 7.19056C209.65 6.90361 208.897 6.9843 208.134 7.17526L208.122 6.73542C209.272 6.45381 210.907 6.65908 211.615 6.19951C211.554 6.12115 211.401 6.12536 211.42 5.98477C211.15 6.05218 210.857 6.10026 210.768 6.30277C210.407 6.08256 209.215 6.11524 208.867 6.35486C208.741 6.04821 209.012 6.02077 209.042 5.82988C210.192 5.98842 210.732 5.86358 211.693 5.60714C211.823 5.58359 211.771 5.41495 211.78 5.30466C212.932 5.97334 214.74 5.16348 216.422 5.32747C216.453 5.16656 216.357 5.12916 216.319 5.03017C214.905 5.13896 212.879 4.92439 211.585 5.08992C211.561 4.65041 210.43 4.77144 210.164 4.9788C208.369 4.55783 207.126 5.73234 205.163 5.6361C204.902 5.59324 205.243 5.98403 204.982 5.94116C204.606 6.02149 204.739 5.68773 204.317 5.80934C204.106 5.84515 204.292 6.17017 204.237 6.33173C203.788 6.31403 203.652 6.52784 203.588 6.78968C203.7 7.00669 204.436 6.69641 204.536 6.91374C204.539 7.44387 203.023 6.85519 203.231 7.53975C203.263 7.84899 203.734 7.78607 203.904 7.96147C204.053 8.23749 203.648 8.10854 203.725 8.33651C202.998 8.09634 201.846 8.73814 201.345 8.10165C201.682 7.91233 202.357 7.97386 202.176 7.40861C202.506 7.39955 202.42 7.70202 202.751 7.69297C202.844 7.6404 202.84 7.52044 203.03 7.53526C202.539 6.86845 201.083 7.59863 199.802 7.40366C200.015 7.00766 201.398 7.46994 201.503 6.98689C200.512 6.61389 199.733 7.05541 198.283 7.14518C198.47 6.62987 199.729 6.90547 199.771 6.29408C200.236 6.4414 200.805 6.50584 201.385 6.54997C201.462 6.33778 201.623 6.1933 201.845 6.09719C201.688 5.98144 201.519 5.85602 201.363 5.74027C201.14 5.7964 201.387 6.19977 201.188 6.26525C200.286 6.09991 199.694 6.0661 198.816 6.33028C198.925 6.01716 198.653 6.00461 198.613 5.81565C196.008 6.45726 192.604 6.37049 189.716 6.57971C189.828 6.78672 190.021 6.93148 190.203 7.08657C190.639 7.05461 191.26 6.86753 191.434 7.20287C191.858 6.72107 193.523 7.14561 194.08 6.76022C195.199 7.09967 196.161 6.42306 197.494 6.81667C195.339 7.01582 193.005 8.07015 190.782 7.52087C190.605 7.97588 189.71 7.65027 189.181 7.71481C188.927 8.36202 190.237 8.32611 190.513 8.04844C191.931 8.50976 193.355 7.49033 193.938 8.47475C192.698 8.93888 190.169 8.448 188.93 8.91213C188.597 8.84122 188.391 8.6468 188.439 8.25532C188.689 8.29851 188.892 8.38298 189.106 8.45713C189.039 8.15886 188.81 7.99507 188.431 7.95544C188.305 7.64879 188.829 7.81449 188.895 7.64261C188.848 7.22374 188.282 7.23927 187.842 7.15127C188.251 6.97001 188.985 7.02993 189.152 6.6752C188.298 6.55855 187.214 6.6283 186.493 6.59805C186.543 6.29655 187.318 6.53542 187.332 6.2049C186.795 6.00954 186.022 6.24081 186.022 6.68097C185.57 6.56331 184.817 6.66398 184.612 6.93971C184.729 7.31665 185.724 6.98927 185.852 7.34589C184.056 7.33509 183.486 7.23066 182.158 7.44715C181.978 7.34205 181.682 7.33014 181.491 7.24535C181.635 6.91127 182.539 7.15658 182.997 7.054C182.819 6.56871 181.547 6.70362 181.093 6.95614C180.779 6.71465 180.299 6.85786 179.96 6.9872C179.919 6.79824 179.647 6.78569 179.757 6.47257C179.591 6.45711 179.287 6.55548 179.375 6.33298C179.282 6.38555 179.285 6.5055 179.096 6.49069C179.035 6.8425 179.424 6.83182 179.398 7.15267C180.048 7.17486 180.929 7.00066 181.302 7.25053C181.211 7.37307 180.866 7.31248 180.836 7.48339C180.598 7.41988 180.487 7.27285 180.076 7.35415C179.774 7.54249 179.581 7.80789 179.436 8.11199C179.679 8.38541 179.785 7.94234 180.095 8.0239C180.369 8.12642 180.644 8.22893 180.675 8.52817C180.103 8.34378 178.885 8.6973 178.486 8.36811C178.266 8.5242 177.901 8.56421 177.451 8.54652C177.552 8.33369 177.954 8.33268 178.006 8.09116C178.542 8.26653 178.641 7.98372 179.326 7.98495C179.426 7.77212 179.421 7.59218 179.31 7.39517C179.038 7.39261 179.128 7.65025 178.747 7.56064C178.95 7.18496 178.812 7.31879 178.729 6.89089L176.923 6.94039C176.861 7.25222 176.983 7.39892 177.221 7.45243C176.687 7.80719 175.86 8.23001 175.049 7.95212C174.975 8.24427 175.385 8.13299 175.252 8.46675C175.573 8.50799 175.399 8.19264 175.622 8.15651C176.1 8.37348 177.133 8.1151 177.057 8.78743C176.751 8.83583 176.584 8.78038 176.486 8.65302C176.483 8.97322 175.577 9.11809 175.357 8.83402C174.71 8.94178 173.678 9.18017 172.796 8.90422C172.439 8.80397 172.624 9.109 172.328 9.0671C170.992 9.03369 167.954 8.91691 166.354 9.16083C166.352 9.09086 166.235 9.10409 166.164 9.09603C166.319 8.73164 166.483 8.68712 166.328 8.20119C163.68 8.13371 161.029 7.93628 158.558 8.26412C159.145 8.99831 160.943 8.21876 162.262 8.53272L162.274 8.97255C160.434 9.06301 159.022 9.25177 157.544 9.17226C157.411 9.48602 158.074 9.13771 157.93 9.46179L157.08 9.48508C157.028 9.32644 157.254 9.37027 157.263 9.25999C155.954 8.90572 154.543 9.15447 153.386 9.58634C153.236 9.31033 153.81 9.5647 153.661 9.27869C153.585 9.1107 153.129 9.26326 152.904 9.22942C152.643 9.20655 152.985 9.62733 152.725 9.60446C152.396 9.6735 152.275 9.57677 152.339 9.31493C151.225 9.19539 150.158 9.46474 149.39 9.02562C149.385 9.28585 148.682 9.03503 148.834 9.41101C148.279 8.99605 147.378 9.73102 147.018 9.09065C146.589 8.96234 146.86 9.36507 146.648 9.40089C145.731 9.09592 144.708 9.71417 143.8 9.32891C143.314 9.68237 142.166 9.59379 141.432 9.54388C141.305 9.20724 142.069 9.52641 142.087 9.30584C141.577 9.23979 140.097 9.0903 140.004 9.58302C139.86 9.50694 139.762 9.37957 139.618 9.29349C137.706 9.76606 134.564 9.34199 132.895 9.62784C131.676 9.5412 129.803 9.29243 128.725 9.59209C127.912 9.23423 125.99 9.7871 125.304 9.31573C123.898 9.72441 120.561 9.50576 118.766 9.49495C118.518 9.50175 118.274 9.66848 118.014 9.6656C114.009 9.62533 109.255 9.81568 105.508 10.1585C106.275 10.1374 107.121 10.8345 107.886 10.3134C108.436 10.5284 110.005 10.4854 110.542 10.2406C110.847 10.1722 110.898 10.2908 111.018 10.3776C111.095 10.1654 111.522 10.2237 111.864 10.2043C113.405 10.8423 116.355 10.3313 118.601 10.3898C119.095 10.7464 119.507 10.2649 120.206 10.3458C120.431 10.3696 120.15 10.0072 120.483 10.1181C120.64 10.2339 120.809 10.3593 120.966 10.475C121.391 10.0632 121.987 10.6771 122.378 10.2863C125.365 10.6846 129.334 10.2657 133 10.4353C133.139 10.3514 133.23 10.2189 133.369 10.125C134.413 10.7266 136.878 10.1489 138.211 10.5125C138.568 10.6128 138.382 10.3077 138.678 10.3496C140.685 10.3146 143.562 10.5559 145.315 10.3178C147.269 10.5043 150.48 10.4263 152.42 10.123C152.771 10.0033 152.603 10.3181 152.896 10.26C154.04 9.74848 155.497 10.7889 156.779 10.1536C157.125 10.2641 157.624 10.3805 157.912 10.1225C157.778 10.3863 158.232 10.1538 158.202 10.3347C159.874 10.1788 161.849 10.2647 164.079 10.1736C164.818 10.4234 165.985 9.92122 166.743 10.4007C166.808 10.1888 167.331 10.3045 167.395 10.0826C168.072 10.2042 168.779 10.1648 169.488 10.1753C169.689 10.1698 169.767 10.0076 169.956 10.0124C170.063 10.0095 170.314 10.1527 170.433 10.1495C171.259 10.1268 173.049 9.93768 174.414 10.1904C176.027 10.0161 178.864 10.0784 180.675 10.2388C179.527 10.5804 177.339 10.4803 176.224 10.2908C172.707 10.3972 168.784 10.7748 165.047 10.5972C158.744 10.2998 152.526 10.9604 146.471 10.6662C145.723 10.9868 144.624 10.5268 144.102 10.8812C140.387 10.6229 135.521 11.0664 131.972 10.8436C131.759 10.8294 131.834 11.0074 131.692 11.0013C130.627 10.9105 128.759 10.8516 127.715 11.1103C125.697 10.7355 122.928 10.9714 120.413 11.0104C119.956 10.7028 119.292 11.0311 118.81 11.1243C118.751 11.5661 119.546 11.2642 119.662 11.171C119.744 11.5889 121.05 10.9829 120.994 11.5046C119.752 11.4387 118.06 11.7651 117.487 11.5308C117.478 11.2209 118.216 11.4407 118.521 11.3523C118.456 11.1241 118.171 11.0818 118.037 10.9255C116.552 11.0262 114.165 10.9816 112.254 11.084C112.753 11.6105 113.493 11.05 114.162 11.3318C113.645 11.8461 112.117 11.2578 112.096 12.1987C111.738 12.0685 111.749 11.628 111.23 11.6322C110.985 11.769 110.922 12.0308 110.774 12.235C110.383 12.1857 110.293 12.3582 109.926 12.3282C109.858 12.02 110.225 12.0199 110.386 11.8755C110.344 11.6265 109.795 11.4415 110.273 11.2083C108.703 10.8112 105.863 11.4692 104.293 11.0721C102.37 11.565 98.9089 11.1297 97.2868 11.4142C96.7335 11.0492 96.1925 11.5643 95.5914 11.6107C97.2132 12.1765 99.8341 11.2744 101.288 11.7547C100.234 12.0837 98.9501 12.1989 97.6927 12.0033C97.5058 12.0785 97.3189 12.1536 97.1323 12.2388C98.6605 12.407 100.304 12.4619 101.678 12.1842C101.747 12.5624 102.833 12.0825 102.914 12.4504C103.096 12.1953 104.183 12.2356 104.517 12.3365C104.641 12.5731 104.212 12.4048 104.336 12.6415C102.886 12.7513 101.256 12.3058 99.9812 12.7609C99.0082 12.5975 97.5892 12.9665 96.8394 12.3268C96.5789 12.304 96.9212 12.7247 96.6607 12.7019C96.3893 12.7093 96.2098 12.6242 96.2729 12.3423C95.8253 12.3846 95.4586 12.3647 95.4149 12.0658C94.0207 12.044 92.7087 12.0099 91.5321 12.1722C91.3196 12.178 91.5052 12.483 91.4497 12.6146C91.1412 12.563 91.0973 12.6843 90.9817 12.7775C90.2237 12.6982 90.3667 12.7443 89.5655 12.8163C91.0029 13.117 92.5171 13.2056 93.9265 12.9169C94.2097 12.9091 94.216 13.139 94.4068 13.2038C94.8613 12.9813 95.3106 12.999 95.8189 13.015C98.5375 13.0906 102.062 12.8439 104.924 12.9855C105.882 13.0293 107.053 13.0672 107.682 13.21C107.917 13.1436 108.501 13.3277 108.434 13.0394C108.903 13.3566 109.531 13.0093 109.94 12.848C110.368 12.9264 111.389 13.1384 111.734 12.7989C112.174 12.8969 112.842 13.1586 113.154 12.91C113.506 13.2305 114.962 13.3606 115.243 12.8527C116.091 13.1896 116.725 13.0622 118.19 13.0721C118.268 13.32 117.803 13.1727 117.917 13.4497C116.534 13.4076 114.724 13.7173 113.653 13.4165C113.272 13.3269 113.47 13.6616 113.09 13.582C109.95 13.2079 106.953 14.1604 103.428 13.9969C103.175 13.7938 102.443 13.8138 102.201 14.0305C100.429 14.0291 97.0098 13.8027 95.6586 14.0598C95.3624 14.0279 95.2743 13.8303 95.0819 13.7055C95.0158 13.8774 94.6842 13.8464 94.5215 13.9409C88.7121 14.0001 83.2299 14.3605 77.3671 14.1911C75.5435 14.4512 72.7028 14.2289 70.3485 14.0834C67.065 14.5135 63.3776 13.9943 59.7343 14.2243C59.6229 14.4674 60.0428 14.2758 59.9314 14.519C60.5075 14.4232 60.2006 14.4316 60.7811 14.4957C60.186 15.1922 58.5497 14.5268 57.5592 14.584C57.4203 14.2577 58.1257 14.5685 58.1196 14.3486C56.5568 14.2113 54.3361 14.2022 52.9169 14.5612C51.2915 14.2956 49.087 14.4461 47.5055 14.4894C46.852 14.3473 45.568 14.4725 44.9505 14.7796C43.8556 14.4795 42.1872 14.3651 41.3448 14.6583C40.9271 14.4997 39.6374 14.415 39.2559 14.7156C36.7264 15.075 34.7398 14.1291 32.812 14.8922C30.945 14.8634 28.5624 14.5485 26.3598 14.769C25.3221 14.3973 23.2098 14.8953 22.3683 14.3582C22.0491 14.3469 21.7897 14.3641 21.7115 14.5263C20.4138 14.1517 18.7637 14.2769 17.1493 13.9811C16.8763 13.9285 16.5757 13.7367 16.2914 13.7045C15.1779 13.5849 14.0888 13.9249 13.0634 13.5729C12.7667 13.521 12.9525 13.836 12.5954 13.7358C12.5186 13.9479 12.7305 13.9221 12.7 14.103C12.4711 13.9392 12.0805 13.9099 12.0248 13.6013C11.2429 13.5127 9.86036 13.9208 9.64438 13.3665C9.55134 13.419 9.55463 13.539 9.36525 13.5242C7.61747 13.1019 6.98018 12.6892 5.07238 12.4614C5.08062 12.3311 4.94997 12.3047 4.96974 12.1641C3.75744 11.8872 1.96709 12.0664 1.06659 11.5308C0.988109 11.2529 1.5126 11.4286 1.7234 11.3628C1.83292 11.0496 1.5612 11.0471 1.52032 10.8481C1.16158 11.1181 0.559673 11.1346 0.198488 10.8844C0.00337242 10.2295 0.471344 10.0666 0.445293 9.54711C0.74007 9.52902 0.696991 9.2501 1.10018 9.30907C1.24292 8.91501 0.900659 8.9244 0.800763 8.72706C0.980573 7.96185 1.82347 7.68865 2.07601 6.99146C2.58541 7.04753 2.61287 6.75667 3.01414 6.74567C3.15193 6.60184 3.38633 6.53539 3.37975 6.29548C5.22502 5.53463 7.25088 4.89888 9.01161 4.07032C9.43347 3.94872 9.31269 4.28215 9.67664 4.20215C9.80591 4.1786 9.75432 4.01995 9.76283 3.89967C11.5403 3.25073 14.4109 3.27207 16.1824 2.83337C18.7047 3.50451 21.802 3.60968 25.0308 3.77126C27.0061 3.87718 29.0811 3.74027 31.0087 3.82748C32.073 3.87834 33.1476 3.86889 34.0538 4.18417C39.0516 3.81709 45.6731 4.51592 51.2082 3.93403C52.4117 4.32119 54.8397 3.70443 56.0435 4.1016C58.057 3.87634 59.5314 3.80591 61.7321 3.94566C63.1659 3.68628 64.7004 3.65422 66.1773 3.67375C67.1816 3.68624 68.2202 3.65777 69.2146 3.74056C71.1913 3.89645 73.2882 3.69892 75.2868 3.79419C76.0438 3.83346 76.758 4.03397 77.4784 4.03422C77.6319 4.03002 77.6865 3.86846 77.852 3.87393C82.0145 4.05994 86.7331 4.28073 91.0373 4.03269C92.6333 4.08898 95.7814 4.32281 97.5839 4.15335C99.4609 4.55207 102.293 4.02427 105.07 4.09819C105.138 3.97629 105.362 3.98014 105.345 3.79054L106.951 3.74654C108.376 4.46776 110.635 3.73557 112.268 4.27103C112.625 4.37128 112.44 4.06625 112.736 4.10815C112.932 4.37287 114.301 4.31535 114.243 3.91679C114.653 4.22567 115.116 3.89285 115.37 3.66582C115.631 3.72867 115.638 3.99857 116.131 3.86503C116.265 3.58125 115.867 3.7322 115.932 3.50035C116.473 3.40549 116.69 3.5796 116.884 3.77435C117.014 3.7508 116.962 3.59215 116.97 3.47188C118.538 3.33888 119.735 3.50613 121.141 3.50762C121.241 3.72495 120.932 3.64339 120.767 3.66792C121.207 3.75591 121.542 3.93678 122.189 3.84901C122.422 3.70259 122.063 3.53237 122.27 3.32662C123.692 3.49772 125.291 3.2338 126.824 3.57193C125.896 3.77742 124.828 3.59661 123.318 3.66801C123.197 3.97146 123.525 3.89242 123.519 4.10267C125.843 3.97896 128.356 4.32022 130.154 3.99083C130.53 3.9105 130.397 4.24426 130.819 4.12266C131.044 4.1465 130.762 3.78408 131.096 3.89497C131.089 3.63507 130.701 3.71572 130.706 3.46549C131.854 3.53407 133.475 3.19954 134.31 3.51676C133.758 4.07209 132.329 3.21093 132.135 3.8765C131.781 3.88621 131.889 3.52311 131.466 3.59473C131.163 3.75309 131.547 3.97265 131.574 4.11195C133.198 3.87737 134.852 4.34221 136.024 3.98998C136.559 4.11537 137.719 4.23361 138.023 4.08525C139.846 4.24535 143.369 3.9387 144.947 4.19556C145.401 3.97302 146.278 4.06904 146.54 3.71173C146.284 3.42863 145.001 3.57385 144.734 3.76123C144.359 3.43138 143.222 3.74266 142.547 3.67113C142.038 4.07522 140.869 3.6471 139.889 3.67395C139.252 3.69142 138.609 3.93913 138.29 3.93786C138.196 3.94045 137.206 3.59744 136.864 3.60682C136.651 3.61265 136.223 3.92451 135.924 3.78265C135.919 3.61271 135.752 3.56726 135.817 3.3454C139.918 3.43307 145.317 3.47515 148.997 3.28425C149.282 3.36645 150.008 3.56663 150.224 3.2506C154.367 3.5972 161.045 2.89396 165.289 3.05772C165.561 3.07027 166.229 2.8719 166.242 3.33172C164.732 3.42311 163.863 3.14684 162.741 3.57775C159.955 3.20395 155.547 3.53486 152.878 3.548C152.785 3.62056 152.693 3.70312 152.601 3.77568C153.817 4.2225 155.672 3.81152 157.245 3.86846C158.616 3.92089 160.457 3.87043 161.511 3.97158C161.821 4.05314 161.576 3.72973 161.885 3.81129C162.168 3.80352 162.174 4.03344 162.365 4.09824C163.561 3.78534 164.26 4.27639 165.294 3.64782C165.484 3.71262 165.514 3.9119 165.682 4.00733C166.312 3.72996 167.153 4.24711 167.573 3.65535C167.782 3.92975 169.182 4.17147 169.285 3.60845C169.731 3.51618 169.658 3.85832 170.139 3.7351C170.159 3.18433 169.51 3.20213 168.803 3.25153C168.964 2.69688 170.259 3.40166 170.789 2.89696C171.765 3.17032 174.33 2.8199 175.341 3.0723C174.628 3.34194 173.744 3.40619 172.973 3.28727C172.88 3.35983 172.788 3.44239 172.696 3.51495C172.584 3.75809 173.004 3.56652 172.893 3.80966C173.335 3.58745 174.373 3.52899 174.596 3.91302C174.795 3.83755 174.789 3.61763 175.06 3.60019C175.377 3.54147 175.221 3.86588 175.446 3.88973C176.248 3.42757 177.442 3.47486 178.374 3.43931C177.79 2.78509 176.584 3.60844 176.088 3.20186C176.553 2.90903 178.011 2.67898 178.645 2.98171C180.189 2.4292 182.77 3.08873 184.141 2.68101C185.334 3.10849 186.641 2.52246 187.938 2.87705C188.406 2.71417 190.028 2.43961 190.22 2.96456C188.252 3.13854 185.767 2.96657 183.497 3.29891C185.382 3.58734 186.611 3.58368 188.518 3.38133L188.539 4.12105C189.015 4.27805 189.932 4.55302 190.443 4.21891C190.305 3.92258 189.705 4.01905 189.21 4.03264C189.075 3.86626 188.941 3.69988 189.002 3.36807C189.885 3.24384 190.201 3.5853 191.095 3.46075L191.087 3.16086C191.172 2.8184 190.472 3.11771 190.511 2.80653C191.935 2.63743 194.423 2.4792 196.388 2.64542C197.158 2.28419 198.728 2.68132 199.791 2.25204C200.846 2.42317 201.328 2.30994 202.163 2.18701C204.105 2.37386 207.232 1.82798 209.553 2.05446C209.633 2.40239 209.027 2.24895 208.902 2.44244C208.407 2.06585 207.596 2.63829 207.293 2.3365C207.14 2.37069 207.216 2.56867 206.919 2.49679C206.98 2.57514 207.134 2.57094 207.114 2.71153C206.679 2.78348 206.249 3.02536 205.887 2.74518C205.785 2.47787 206.262 2.63486 206.449 2.57971C205.815 2.27697 203.805 2.63218 202.283 2.69391C202.071 2.69973 202.256 3.00476 202.201 3.13633L201.351 3.15962C201.412 3.23797 201.565 3.23377 201.546 3.37436C201.968 3.27275 202.977 3.00502 203.34 3.32519C203.706 3.33515 203.566 2.95885 203.896 2.9398C203.728 3.28452 204.276 3.02941 204.189 3.3019C204.672 3.22865 204.84 2.91392 205.214 2.75362C204.671 3.21866 205.883 3.0254 205.987 3.40267C206.466 3.17948 207.727 3.08489 207.986 3.49794C207.301 3.48671 207.273 3.33741 206.761 3.60155C207.391 3.77434 208.153 3.56338 208.665 3.69941C209.044 3.73904 208.784 3.306 209.127 3.31661C209.528 3.29562 209.202 3.48461 209.133 3.53653C209.827 3.86763 211.384 3.36478 211.796 3.76363C212.006 3.66784 212.297 3.47982 212.457 3.74551C212.585 3.67198 213.251 3.38364 213.307 3.72222C213.895 3.63607 214.984 3.2961 215.585 3.65978C215.991 3.37856 216.973 3.47166 217.481 3.45775C217.609 3.38422 217.592 3.20461 217.756 3.1501C217.726 2.92083 216.98 3.2914 217.089 2.9483C219.757 2.485 223.508 2.72232 226.56 2.4686C226.772 2.46277 226.587 2.15774 226.642 2.02617C226.992 1.86652 227.21 2.06063 227.681 1.9977C227.593 2.2502 227.132 2.22283 226.936 2.38827C228.029 2.6484 229.994 2.36446 231.024 2.86644C229.575 3.00619 229.053 2.94046 227.518 2.96252C227.364 3.34691 227.774 3.25561 227.816 3.47456C229.093 3.09943 230.488 3.58138 232.072 3.20783C232.043 3.43871 232.418 3.3284 232.458 3.49736C235.059 3.15597 237.865 3.40917 240.981 3.33376C241.074 2.85103 240.567 2.86494 240.394 2.60957C240.281 2.76275 240.263 2.99331 240.125 3.13714C239.548 3.20297 239.272 3.04047 238.984 2.86831C239.535 2.71315 240.155 2.92624 240.39 2.45962L240.436 2.38836ZM117.699 3.75203C117.684 3.64239 117.472 3.6882 117.319 3.69241C117.126 3.96781 117.812 4.00902 117.699 3.75203ZM119.705 4.13719C119.731 3.78635 119.491 3.66287 119.032 3.71547C119.006 4.06631 119.246 4.18979 119.705 4.13719ZM147.482 4.04604C148.142 3.99793 149.043 4.13328 149.173 3.69956C148.756 3.13078 148.073 3.63968 147.359 3.44917C147.319 3.70037 147.406 3.85805 147.47 4.03636L147.482 4.04604ZM149.665 3.98619C150.258 4.04998 150.33 3.66786 150.704 3.95772C150.579 3.72104 151.009 3.88933 150.885 3.65265C150.767 3.65589 150.66 3.63881 150.692 3.50788C150.428 3.79522 149.29 3.23618 149.665 3.97619L149.665 3.98619ZM171.08 3.61925L171.741 3.60113L171.731 3.23127C171.38 3.35094 171.549 3.0362 171.255 3.09427C171.225 3.28517 170.954 3.3126 171.08 3.61925ZM119.926 4.87141C120.147 5.59564 121.302 4.64363 121.728 5.12213C121.604 4.88545 122.033 5.05374 121.909 4.81706C121.144 4.92806 120.511 4.6753 119.914 4.87174L119.926 4.87141ZM170.801 3.77696C170.955 3.80274 170.944 3.3729 170.791 3.4071C170.661 3.41065 170.413 3.82762 170.801 3.77696ZM179.033 3.33123C179.464 3.54949 180.035 3.25375 180.351 3.14505C179.952 3.23602 179.107 3.00908 179.033 3.33123ZM191.341 2.92383C191.222 3.32724 191.53 3.36881 191.642 3.58581C192.959 3.34965 194.299 3.12285 195.507 2.80963C194.007 2.83072 192.862 2.85211 191.341 2.92383ZM196.361 2.93628C196.995 2.80885 197.167 3.07422 197.686 3.04999C197.562 2.81332 197.992 2.9816 197.867 2.74493C197.487 2.67531 196.601 2.67958 196.361 2.93628ZM201.087 2.58663C200.355 2.5767 199.042 2.50265 198.721 2.87158C199.265 2.90668 200.04 2.73538 200.422 2.89496C200.5 3.14293 200.276 3.16907 200.053 3.2052C199.991 2.6767 199.068 3.48229 198.725 3.02152C198.544 3.2966 197.904 3.23409 197.409 3.27767L197.417 3.57756C198.052 3.47012 198.533 3.3569 198.739 3.54133C199.203 3.20851 200.546 3.52182 200.913 3.11161C200.584 3.18065 200.463 3.08392 200.527 2.82208C201.166 2.88458 201.497 2.44536 201.943 2.78326C202.039 2.42048 201.359 2.58919 201.087 2.58663ZM123.227 5.09104C123.077 4.78503 123.759 5.09647 123.597 4.7808L123.125 4.79374C123.14 4.90337 123.097 5.06461 123.227 5.09104ZM124.451 4.90745L124.455 5.05739C126.33 4.94597 128.125 5.36695 130.143 4.90146C128.412 4.6488 125.791 4.67064 124.451 4.90745ZM133.169 4.96858C134.196 4.94044 134.6 5.0294 135.732 4.96835C135.749 4.7278 135.57 4.65268 135.344 4.60884C134.605 5.23932 133.271 3.94541 133.169 4.96858ZM131.363 5.01808L132.874 4.97667C132.664 4.6423 131.992 4.69073 131.355 4.71819L131.363 5.01808ZM140.276 4.8438C140.811 4.98918 141.566 4.94848 141.69 4.735C141.263 4.66668 140.489 4.4378 140.276 4.8438ZM142.274 4.93907C143.182 4.87417 144.009 4.87152 144.466 5.17911C144.734 5.06171 145.003 4.94431 145.018 4.64377C143.939 4.93344 142.571 4.12064 142.274 4.93907ZM148.714 4.61249C148.708 4.82273 149.037 4.7437 148.915 5.04715C149.257 5.03776 149.418 4.88329 149.375 4.59437C148.986 4.62504 149.006 4.50444 148.714 4.61249ZM158.294 4.65001C158.473 4.72512 158.733 4.738 158.774 4.93695C159.037 4.61963 160.18 4.95843 160.178 4.4583C159.469 4.43772 158.728 4.1279 158.282 4.66033L158.294 4.65001ZM162.172 4.39363C162.415 5.04723 164.488 4.84035 165.214 4.61037C166.424 4.79729 168.187 4.90903 169.286 4.49876C170.813 4.64695 172.664 4.53619 174.123 4.7363C174.493 4.44606 175.103 4.74944 175.543 4.84742C175.742 4.77195 175.736 4.55203 176.007 4.5346C176.798 4.97307 178.214 4.04394 178.855 4.60657C179.28 4.57493 179.584 4.47656 179.502 4.06865C178.415 4.05843 177.086 4.24493 176.276 4.00703C176.136 4.09088 176.046 4.22342 175.906 4.31727C175.721 4.02223 174.785 4.33801 174.576 4.05361C172.199 4.34888 168.246 4.04708 165.009 4.46593C164.129 4.23996 163.008 4.28069 162.161 4.39395L162.172 4.39363ZM190.785 3.75937L191.162 3.74902C191.123 3.59005 190.99 3.49365 190.777 3.45949L190.785 3.75937ZM156.578 4.54697L156.106 4.55991C155.971 4.79371 156.726 4.773 156.578 4.54697ZM160.658 4.73525L160.65 4.43536L160.272 4.44571C160.312 4.61468 160.445 4.70108 160.658 4.73525ZM195.72 4.14427C196.508 4.00264 198.018 4.39139 198.082 3.70939C197.5 4.01545 197.123 3.60564 196.67 3.89815C196.532 3.60182 196.865 3.66274 196.847 3.45314C196.418 3.32484 196.689 3.72757 196.478 3.76338C196.018 3.79599 195.569 3.80828 195.341 3.64449C195.394 3.87311 195.679 3.92533 195.732 4.15395L195.72 4.14427ZM218.256 3.30644C220.571 3.30301 223.199 3.07093 225.367 3.33161C225.83 2.99879 226.826 3.55172 227.356 3.05702C226.826 3.12156 226.689 2.85522 226.309 2.7856C225.156 2.95725 223.773 2.91513 222.426 2.89203C222.245 3.1971 221.532 3.02658 221.478 2.76797C220.812 3.03632 219.135 3.04227 218.445 2.85111C218.462 3.06071 218.13 2.9998 218.268 3.29612L218.256 3.30644ZM179.984 4.42557C180.267 4.41781 180.562 4.40972 180.545 4.19013C180.098 4.28239 180.172 3.94025 179.691 4.06348C179.685 4.27372 179.979 4.22565 179.984 4.42557ZM191.631 4.03629L191.623 3.7364L191.339 3.74417C191.321 3.93474 191.314 4.115 191.631 4.03629ZM270.823 1.86552C271.139 1.78681 271.89 2.02633 271.761 1.61972C271.626 1.45334 271.099 1.60785 270.815 1.57562L270.823 1.87551L270.823 1.86552ZM191.82 4.03111L191.83 4.40098C192.412 4.53507 192.778 4.08488 192.963 4.36992C192.835 4.00329 193.756 4.41822 193.616 4.05191C193.646 3.87101 193.18 4.10387 193.326 3.83976C192.917 3.99103 192.716 3.99653 191.82 4.03111ZM269.421 2.42414C269.854 2.31221 270.867 2.61459 270.831 2.1654C270.543 2.00323 269.85 2.16227 269.413 2.13425L269.421 2.43414L269.421 2.42414ZM267.446 3.21854L266.597 3.24183C266.676 3.54977 267.506 3.24691 267.643 3.51325C267.688 3.402 267.527 3.1363 267.728 3.1408C268.225 3.19719 269.177 3.02104 269.818 3.15351C269.729 2.47571 268.23 2.94696 267.436 2.84868L267.446 3.21854ZM270.196 3.14316C270.527 3.1341 270.749 3.06798 270.658 2.76036L270.186 2.7733L270.196 3.14316ZM274.838 3.16596C275.092 2.94892 275.732 3.00143 276.251 2.9772C276.081 2.81179 275.53 2.96694 275.21 2.93569L275.206 2.78575C274.526 2.95446 273.795 3.0145 273.113 2.69307C273.119 2.90299 272.595 2.74729 272.649 3.00589C272.652 3.12585 272.887 3.0594 272.844 3.22064C273.331 2.90716 274.231 2.99253 274.838 3.16596ZM319.844 2.08235C321.061 2.52917 322.454 2.07083 323.458 2.50348C323.656 2.42801 323.65 2.20809 323.921 2.19065C324.055 2.30705 324.292 2.34057 324.217 2.62273C324.807 2.62654 325.169 2.44658 325.241 2.07445C324.921 2.03321 324.359 2.19868 324.201 2.03295L324.195 1.81303L325.233 1.78456C323.974 1.07881 320.823 1.17518 319.844 2.08235ZM311.417 2.31334L311.889 2.3004C311.85 2.16142 311.845 1.98149 311.598 2.00827C311.722 2.24495 311.292 2.07666 311.417 2.31334ZM309.429 2.58793C309.982 2.51275 310.908 2.70743 310.931 2.24663C310.346 2.01258 309.766 2.39861 309.429 2.58793ZM317.476 2.29732C318.222 2.3869 319.048 2.36425 319.368 1.94535C318.612 1.96605 317.773 1.92904 317.476 2.29732ZM218.954 5.06798C218.843 5.31113 219.263 5.11955 219.151 5.36269C218.582 5.27826 218.688 5.69551 218.697 6.04538C219.161 6.14272 219.094 5.85445 219.449 5.87474C219.332 5.4778 219.769 5.48582 219.615 5.05986C219.342 4.98733 219.224 4.99057 218.954 5.07798L218.954 5.06798ZM222.648 4.96672C222.418 5.60328 221.669 5.01357 220.941 5.16358C220.936 5.4238 220.667 5.49122 220.578 5.69373C220.186 5.62444 219.739 5.67672 219.642 6.0195C220.973 5.91297 222.097 6.41236 223.147 5.92342C223.235 6.13108 223.658 6.04945 224.001 6.05007C224.151 5.48575 225.057 5.81103 225.23 6.0864C225.641 6.0051 225.534 5.53787 225.68 5.26376C225.312 5.18382 225.302 4.82396 224.726 4.91978C224.602 5.13326 224.996 5.29252 224.738 5.35962C224.596 5.3535 224.384 5.39931 224.358 5.29999C224.355 5.18004 224.592 5.23355 224.541 5.0749C224.048 4.75829 223.428 4.97536 222.637 4.97704L222.648 4.96672ZM110.297 8.19652C110.72 8.1049 111.6 8.34086 111.709 8.00775L110.293 8.04657L110.297 8.19652ZM124.597 7.65447C124.232 8.12465 122.931 7.21995 123.004 8.13831C124.854 7.98755 126.608 8.61974 128.02 8.00081C127.229 7.60232 125.537 7.9288 124.597 7.65447ZM178.029 6.33987L178.037 6.63976C178.436 6.53879 178.453 6.74839 178.702 6.77159C178.764 6.43977 178.618 6.28371 178.403 6.18957C178.503 6.4069 178.194 6.32535 178.029 6.34987L178.029 6.33987ZM182.581 6.51521L182.573 6.21532L182.289 6.22308C182.271 6.41366 182.264 6.59392 182.581 6.51521ZM231.849 5.38478C231.24 5.16137 229.362 5.14283 229.3 5.89482C231.633 5.71081 233.995 6.12625 236.023 5.56047C236.134 5.31732 235.714 5.5089 235.826 5.26576C235.287 5.44058 235.05 5.42706 234.596 5.22943C234.408 5.26459 234.606 5.5693 234.225 5.4597C234.035 5.00473 233.187 5.51816 232.8 5.19863C232.904 5.10576 233.068 5.06124 232.979 4.8236C232.208 4.71467 232.366 5.29058 231.86 5.37446L231.849 5.38478ZM129.342 7.97458C130.145 8.39274 132.321 8.08298 133.418 8.01291C132.023 7.54095 131.197 8.00375 129.342 7.97458ZM164.115 7.17145C164.539 7.13981 164.879 7.06045 165.051 6.84568C164.626 6.86732 164.033 6.77354 164.115 7.17145ZM227.687 5.64892C227.485 5.61444 227.063 5.75603 227.024 5.59707C227.056 5.47614 227.317 5.529 227.204 5.292L226.071 5.32306C226.007 5.57491 226.463 5.40235 226.365 5.68516L225.893 5.6981C226.339 6.45616 227.401 5.56672 227.99 5.94072C227.94 5.4019 228.926 5.62495 228.912 5.10515L227.873 5.13361C227.759 5.2668 227.873 5.56378 227.699 5.6586L227.687 5.64892ZM309.056 3.19838C309.513 3.0958 310.43 3.34079 310.562 3.00703C310.294 2.69426 309.347 3.06034 309.056 3.19838ZM129.247 7.97716L128.209 8.00563C128.218 8.3555 129.147 8.19999 129.247 7.97716ZM136.453 7.99974C137.393 8.25407 138.23 8.22111 139.301 8.07172C138.643 7.76963 137.162 7.61014 136.453 7.99974ZM214.977 5.62716C214.11 5.85103 212.83 5.70603 211.766 6.08534C211.633 6.4291 212.378 6.02853 212.246 6.37229C213.324 6.07263 214.946 6.18825 216.121 5.96597C216.017 5.62868 215.266 5.81932 214.977 5.62716ZM217.643 5.92423C218.069 5.95257 218.302 5.83614 218.294 5.53626L217.633 5.55437L217.643 5.92423ZM307.724 3.30491C308.031 3.2965 308.397 3.31646 308.379 3.06688C307.976 3.0179 307.862 3.17108 307.724 3.30491ZM139.863 7.90624C139.844 8.04684 139.974 8.06327 139.966 8.20354C140.592 8.1864 141.072 8.05318 141.372 7.79486C140.878 7.84843 140.19 7.74724 139.863 7.90624ZM142.905 8.12299C143.266 7.95302 143.821 7.92782 144.411 7.93163C144.223 7.50665 143.133 7.83662 142.505 7.7638C142.488 8.00436 142.667 8.07948 142.893 8.12331L142.905 8.12299ZM146.119 7.73478C146.048 7.75671 146.014 7.79767 146.028 7.88731C146.79 8.10652 148.69 8.05443 149.439 7.79382C149.965 7.58933 150.475 8.10554 150.572 7.76276C149.229 7.45944 147.581 7.66468 146.119 7.73478ZM151.134 7.59729C151.179 7.9162 151.927 7.64559 152.272 7.71617C152.147 7.4895 151.368 7.50085 151.134 7.59729ZM262.64 4.98089C261.617 4.27866 259.981 4.91373 258.745 4.64749C258.014 4.67755 257.167 4.8108 256.373 4.71252C255.761 5.19949 254.933 4.73199 254.292 5.06967C254.252 4.88071 253.992 4.86783 253.812 4.78272C253.57 5.4196 252.858 4.8689 252.396 4.82154C252.038 5.11147 251.727 5.83026 251 5.60009C251.234 5.53364 251.191 5.25471 251.173 5.00513C250.422 5.20577 250.189 4.90203 249.666 5.19648C249.395 4.79376 248.643 4.93442 248.344 5.23272C247.404 4.96838 246.271 5.4396 245.024 5.17368C244.763 5.13082 245.104 5.52161 244.843 5.47874C244.612 5.24498 244.041 5.07058 243.706 5.35986C243.2 5.00359 241.653 5.01598 240.952 5.28529C240.808 5.20921 240.745 5.05088 240.474 5.07832C239.518 5.55468 238.502 5.09236 237.159 5.2392C237.124 5.67033 236.233 5.46468 236.041 5.79006C236.198 5.9358 236.494 5.9677 236.71 6.07183C237.034 5.84285 237.062 5.99215 237.465 6.05113C239.393 5.72817 241.245 5.63739 243.049 5.52792C243.148 5.67527 243.431 5.66751 243.437 5.88743C244.218 5.92605 245.31 5.69604 245.813 5.97235C245.999 5.42705 246.654 6.03934 246.934 5.50145C246.928 5.7117 247.257 5.63267 247.135 5.93611C248.337 5.82314 249.485 6.35188 250.357 5.84779C250.854 6.31435 253.085 5.82304 254.152 5.96386C254.756 6.04733 256.18 5.85824 256.99 5.66598C257.124 5.83236 257.293 5.96777 257.566 6.02031C258.693 5.74934 259.8 6.06913 261.453 6.06382C261.569 5.53046 262.286 5.85092 262.765 5.65772C262.785 5.51713 262.655 5.5007 262.662 5.36043C262.113 5.56556 261.815 5.45369 261.244 5.32927C261.337 5.24671 261.429 5.17415 261.522 5.10159C261.854 5.15251 262.531 5.28401 262.936 4.99279C263.187 5.09596 263.206 5.37553 263.607 5.34454L263.597 4.97468C263.3 4.93278 262.845 4.67518 262.653 5.00056L262.64 4.98089ZM155.025 7.78074C155.53 8.10703 156.44 7.67195 156.729 7.8841C156.723 7.67418 157.247 7.82988 157.193 7.57127C156.383 7.77353 155.301 7.06292 155.013 7.78107L155.025 7.78074ZM161.19 7.76181C162.971 7.66298 164.524 7.8805 166.3 7.62173C164.48 7.56159 162.25 6.8024 161.19 7.76181ZM123.29 8.65067C123.747 8.54809 124.664 8.79308 124.796 8.45932C124.338 8.5619 123.422 8.31691 123.29 8.65067ZM125.666 8.73559C125.602 8.56727 125.492 8.43023 125.186 8.44864C125.249 8.61696 125.359 8.754 125.666 8.73559ZM251.275 5.29243L251.653 5.28208C251.613 5.12311 251.48 5.02671 251.267 4.99255L251.275 5.29243ZM265.665 4.59786C265.157 5.00195 264.491 4.39997 263.97 4.79439C263.875 5.19715 264.311 5.16519 264.181 5.59891C264.554 5.41862 265.168 5.41179 265.782 5.40497C265.751 5.57587 265.636 5.68907 265.702 5.92736C266.637 6.01176 266.718 5.95952 267.696 5.87269C268.525 5.06969 270.04 6.07853 271.292 5.62407C271.366 5.74209 271.59 5.72594 271.583 5.91619L273.578 5.86152C273.311 5.59874 273.296 5.4991 273.367 5.057C272.878 4.89033 271.948 4.58569 271.368 4.96173C271.257 5.20488 271.677 5.0133 271.565 5.25644C271.2 5.30646 271.067 5.17007 270.99 4.97208C269.923 4.82127 269.089 5.41435 268.335 5.04487C268.379 5.36378 267.59 5.45543 267.302 5.29326L267.296 5.07334L268.146 5.05005C268.054 4.29228 266.196 5.00347 265.665 4.59786ZM276.567 4.59914C276.989 4.47754 277.387 4.77675 277.605 4.57068C277.353 4.39754 276.799 4.47272 276.558 4.29926L276.567 4.59914ZM168.962 7.76886C168.871 7.49123 169.42 7.66627 169.329 7.38864L168.48 7.41194C168.567 7.5896 168.736 7.70503 168.962 7.76886ZM170 7.74039C170.152 7.65621 170.63 7.43303 170.848 7.64712C171.004 8.14305 169.563 8.17252 169.344 7.90845C168.72 7.99557 167.648 8.11498 166.971 7.97348C167.072 8.1908 166.762 8.10925 166.598 8.13377C166.936 8.40461 166.606 8.42366 166.616 8.80352C166.92 8.69515 167.092 8.48037 167.359 8.34298C168.366 8.42544 169.44 8.406 171.53 8.37872L171.54 8.74858C171.813 8.80112 171.785 8.64183 172.01 8.66567C171.686 8.06431 172.569 8.36025 172.655 8.05777C172.156 7.9614 171.53 7.96855 171.136 7.7993C171.225 7.61678 171.52 7.59869 171.694 7.48388C170.954 7.18406 170.446 7.60814 169.601 7.3912C169.584 7.63176 169.763 7.70687 169.989 7.75071L170 7.74039ZM326.967 3.43766C327.032 3.20581 327.034 3.29577 326.957 3.0678L326.391 3.08333C326.398 3.35323 326.59 3.468 326.967 3.43766ZM138.166 8.46296C138.151 8.35333 137.94 8.39913 137.787 8.40334C137.593 8.67874 138.279 8.71995 138.166 8.46296ZM324.611 3.65231C325.251 3.29464 326.012 3.92401 326.302 3.30583C325.643 3.37393 325.26 3.20435 324.601 3.28245L324.611 3.65231ZM148.587 8.1773L147.077 8.21871C147.088 8.64855 148.599 8.60714 148.587 8.1773ZM148.782 8.39204C148.997 8.45619 150.194 8.61344 150.1 8.20586C149.886 8.14171 148.688 7.98446 148.782 8.39204ZM150.779 8.40734C151.202 8.33572 151.406 8.44017 151.633 8.53399C151.554 8.25604 152.079 8.43173 152.289 8.36593L152.281 8.06604C151.704 8.12188 150.813 7.94622 150.779 8.40734ZM153.623 8.32937L154.473 8.30608L154.483 8.67594C155.921 8.58649 156.661 8.84633 157.894 8.58245C157.803 8.29482 158.219 8.38346 158.068 8.05746C156.742 8.36392 155.398 8.03062 153.615 8.02949L153.623 8.32937ZM285.861 4.55446C285.189 4.62288 284.715 4.54586 284.251 4.44851C284.221 4.61942 283.84 4.52981 283.882 4.75875C283.774 5.12185 284.347 4.92607 284.366 5.18565C283.726 5.53332 282.883 4.9362 282.468 5.30771C281.462 4.80508 280.408 5.57424 279.146 5.1787L279.133 4.73886C278.136 4.53613 277.613 4.85057 276.384 4.81424C276.465 5.19216 276.136 5.2612 276.024 5.49434C275.543 5.61757 275.605 5.28575 275.17 5.36769C275.033 5.51152 274.798 5.57797 274.805 5.81788C275.872 5.9687 277.459 5.69511 278.41 5.93913C278.634 5.91299 278.496 5.61666 278.684 5.5615C278.935 5.68466 279.071 5.90102 279.449 5.91066C280.939 5.53969 283.14 6.53977 284.953 5.90984C285.144 5.97464 285.162 6.19423 285.433 6.19679C285.801 5.81658 287.229 6.21759 287.608 5.83705C287.737 6.23367 288.773 6.5254 289.224 6.16292C289.263 6.32188 289.396 6.41829 289.609 6.45245C290.711 6.12215 292.513 6.39286 293.685 6.49078C293.693 6.35051 293.737 6.23926 293.866 6.18572C294.773 6.10083 295.578 5.73864 296.333 6.1181C296.56 5.78176 297.763 6.15893 297.833 5.70683C297.792 5.51788 297.532 5.505 297.353 5.41989C295.627 5.79732 293.777 5.5379 291.943 5.41811C291.139 5.37014 289.997 5.51148 289.286 5.42093C288.539 5.32136 287.18 5.72874 286.345 5.43151L286.335 5.06165C287.851 5.19017 286.117 4.86755 285.849 4.55478L285.861 4.55446ZM273.563 5.33172C273.816 5.51485 274.054 5.57836 273.766 5.84635C273.99 5.81021 273.971 5.9808 274.24 5.90338C274.295 5.75182 274.109 5.4168 274.32 5.38099C274.676 5.43126 274.766 5.27873 275.074 5.29031C275.062 4.85048 273.551 4.89189 273.563 5.33172ZM147.767 8.85002C147.668 9.10284 148.458 9.05118 148.237 8.76711C147.964 8.71457 147.992 8.87387 147.767 8.85002ZM151.841 8.80839C151.881 8.97735 152.314 8.82543 152.504 8.86024C152.534 8.67934 151.786 8.52979 151.841 8.80839ZM325.778 4.41063C326.145 4.44058 326.271 4.29708 326.336 4.09521L325.769 4.11074L325.778 4.41063ZM172.88 8.53177C172.888 8.37151 172.549 8.51084 172.406 8.47474C172.202 8.77045 172.994 8.78876 172.88 8.53177ZM174.782 8.54966C174.511 8.5671 174.587 8.30493 174.212 8.41524C174.02 8.73063 174.739 8.68091 174.782 8.54966ZM302.864 5.25881C302.214 5.65678 301.119 5.37666 300.209 5.3316C299.404 5.29362 298.256 5.18505 298.035 5.76131C298.442 5.93024 298.917 6.04725 299.369 6.16491C299.519 5.60059 300.602 5.91103 300.88 6.1235C303.398 6.22453 304.735 5.43761 307.314 5.577C307.164 5.30099 307.738 5.55536 307.589 5.26935C306.715 4.42297 304.345 5.86845 302.852 5.24914L302.864 5.25881ZM315.937 4.75041C315.872 4.96228 315.349 4.84656 315.284 5.06842C315.13 5.04263 315.195 4.84077 314.902 4.92883C314.735 5.29354 315.226 5.12002 315.197 5.3609C316.887 5.3946 318.006 5.2839 319.741 5.23634C319.772 5.06544 319.899 4.97191 320.111 4.9261C320.78 5.20787 321.975 5.30515 322.577 4.85849C320.835 4.20599 318.205 4.77826 315.936 4.74042L315.937 4.75041ZM308.277 5.40053C308.679 5.84968 309.438 5.52877 310.087 5.50098C311.656 5.42796 313.674 5.8028 314.336 4.94435C314.264 4.9263 314.228 4.88729 314.237 4.797C312.555 5.04319 310.221 4.77704 308.277 5.40053ZM93.4273 11.51C93.9444 11.4158 93.9301 11.7563 94.47 11.6315L94.4598 11.2616C93.9872 11.2546 93.5385 11.2569 93.4273 11.51ZM111.622 11.3114L111.614 11.0115L111.237 11.0218C111.173 11.2737 111.293 11.3704 111.622 11.3114ZM278.637 6.88327C279.369 6.86321 280.432 6.87408 281.389 6.87786C281.349 7.56922 283.494 7.41038 283.574 6.88799C281.907 6.80365 280.389 6.59516 278.637 6.43311C278.56 6.6553 278.56 6.66529 278.649 6.87295L278.637 6.88327ZM324.966 5.8334C325.209 5.63667 325.764 5.62147 326.005 5.80493L325.991 5.28512C325.34 5.24294 325.05 5.46095 324.966 5.8334ZM326.202 6.09964C326.598 5.88871 327.499 6.04406 327.316 5.39883C327.055 5.35597 326.564 5.5095 326.465 5.35215C326.463 5.30217 326.451 5.26251 326.368 5.28477C326.184 5.45988 326.157 5.75074 326.202 6.09964ZM88.6974 12.1699C88.7372 12.3288 88.8697 12.4252 89.0833 12.4594C89.3679 12.0715 89.7576 12.5009 90.2163 12.4283L90.2081 12.1285C89.5963 12.2153 89.0951 12.0289 88.6974 12.1699ZM290.296 6.94382C289.202 7.09386 287.542 6.43909 287.074 7.03214L288.113 7.00367L288.121 7.30355C289.344 7.09997 289.747 7.57911 290.692 7.60321C290.57 7.02634 291.726 7.39481 292.195 7.26192C292.175 7.40251 292.305 7.41894 292.297 7.55922C292.888 7.57303 293.687 7.42108 294.013 7.66225C294.428 7.31073 294.598 7.48613 295.236 7.47866C295.196 7.2997 295.409 7.31387 295.32 7.10621C293.494 7.27631 292.246 6.97041 290.674 6.93347C290.654 7.06406 290.778 7.30074 290.493 7.23853C290.212 7.31627 290.324 7.08312 290.296 6.94382ZM306.798 7.01167C306.717 7.50408 307.329 7.42728 307.572 7.66072C309.386 7.07078 311.466 7.55396 313.439 7.12975C313.434 6.95981 313.598 6.9053 313.521 6.68732C312.8 6.66707 312.308 6.81061 311.924 7.03121C311.647 6.80874 311.022 6.87586 310.594 6.76755C310.394 6.79305 310.508 7.05004 310.319 7.07521C310.173 6.89916 309.76 6.94047 309.556 6.79602C309.467 6.99854 309.161 7.03694 308.903 7.11403C308.815 6.91637 309.085 6.41879 308.696 6.44946C308.713 7.07922 307.239 7.16964 306.81 7.02135L306.798 7.01167ZM325.356 6.28287L325.829 6.26993L325.82 5.97004L325.348 5.98298L325.356 6.28287ZM320.634 6.78246C320.998 6.69246 321.807 6.92037 321.857 6.59887C321.685 6.3335 321.073 6.44029 320.624 6.4126L320.634 6.78246ZM296.196 7.6024L296.763 7.58687C296.788 7.23603 296.549 7.11255 296.09 7.16515C296.025 7.39701 296.191 7.43247 296.196 7.6024ZM306.712 7.31415L306.703 7.01426L306.326 7.02462C306.366 7.18358 306.498 7.27999 306.712 7.31415Z" fill="black"/>
</svg>
