<svg width="278" height="14" viewBox="0 0 278 14" fill="none" xmlns="http://www.w3.org/2000/svg">
<path fill-rule="evenodd" clip-rule="evenodd" d="M202.667 1.42388C202.967 1.48568 203.083 1.72259 203.471 1.70196C203.477 1.91188 203.444 2.18287 203.567 2.28955C204.506 2.04374 205.639 2.3528 206.519 2.1386C206.686 2.044 206.556 1.68741 206.743 1.61225C207.271 1.5978 207.352 2.03573 207.56 2.33016C208.009 2.03772 209.175 2.80607 209.877 2.26663C209.934 2.53517 210.857 2.43984 210.912 2.23827C211.314 2.3973 212.572 2.51289 212.829 2.11568C212.339 2.00908 211.731 1.98573 211.226 2.0896C211.147 1.76163 211.548 1.84069 211.53 1.56107C211.952 1.68957 212.23 1.66194 213.056 1.6693C213.075 1.97891 212.918 2.08323 213.075 2.33905C213.721 2.30133 215.16 2.16183 215.953 2.41019C216.138 2.25507 216.446 2.21663 216.824 2.23625C216.917 1.99362 216.564 2.18337 216.657 1.94073C216.343 2.0894 215.264 1.95891 214.656 1.92556C215.293 1.56797 216.624 1.82159 217.526 1.69682C217.415 1.98998 216.834 1.85585 216.906 2.30405C218.228 2.2178 219.257 2.37965 220.336 2.14C221.309 2.78358 222.85 1.98106 224.329 2.18061C224.421 1.93798 224.068 2.12772 224.161 1.88509C223.77 2.1459 223.306 1.90854 222.884 1.77004C222.958 1.56794 223.392 1.406 223.519 1.68262C224.704 1.73014 225.793 1.51022 226.952 1.65853C227.13 1.59364 226.97 1.23787 227.016 1.06657C227.253 1.01004 227.704 1.13772 227.809 0.974779L227.805 0.824835C227.347 0.817385 226.715 0.994775 226.277 0.646635C226.152 0.780131 225.832 0.738875 225.808 0.95961C225.725 0.83184 225.584 0.77568 225.327 0.822754C225.218 0.845746 225.262 1.01459 225.255 1.12482C224.379 1.11883 223.536 1.23197 222.858 1.19053C222.73 0.883923 223.276 1.16909 223.25 0.95971C223.069 0.904641 223.034 0.71553 222.766 0.752881C222.658 0.775873 222.702 0.944718 222.695 1.05495C222.689 0.845028 222.256 1.02696 222.289 0.765968C224.021 0.388377 225.943 0.435715 227.873 0.392815C229.524 0.347554 231.639 0.499671 232.908 0.324823C233.529 0.827995 235.653 -0.140558 235.799 0.835802C235.541 0.882877 235.401 0.826716 235.317 0.698946C234.735 1.22511 233.609 0.45568 233.083 0.910239C231.755 0.746578 230.258 0.617541 229.411 0.940877C229.737 1.21205 230.858 0.691147 230.941 1.19905C230.128 1.32137 228.816 1.02721 228.391 1.48904C231.267 1.81036 233.985 1.48575 236.4 2.07979C236.19 2.40567 235.201 2.26272 235.036 2.04717C234.511 2.13159 233.569 2.29744 233.271 1.94549C233.064 2.00119 232.917 2.11524 232.965 2.39405C233.15 2.59906 233.552 2.37796 233.679 2.30444C233.952 2.46701 234.452 2.88349 234.718 2.42603C235.428 2.92675 237.308 2.13495 238.08 2.704C240.065 2.48953 241.954 3.148 243.519 2.85502C244.45 3.39972 245.583 2.62837 246.563 3.14172C247.356 2.6598 249.417 3.39361 250.313 3.03892C252.677 3.20421 255.935 2.95484 258.856 2.73473C258.749 2.48755 258.255 2.61114 258.052 2.45666C256.448 2.78072 254.477 2.78473 253.02 2.6646C253.323 2.08609 254.962 2.6814 255.407 2.22903C255.825 2.55772 256.891 2.23838 257.57 2.3198C258.27 2.09052 259.364 2.40067 260.281 2.09542C260.701 1.04354 262.446 1.15577 263.681 0.821797C264.278 1.17557 264.853 0.71965 265.6 0.769175C265.672 1.21737 264.888 0.908761 264.817 1.23082C264.44 0.911034 264.052 1.2918 263.625 1.33351C263.635 1.71337 263.607 2.11431 263.811 2.28879C263.995 2.11368 264.373 2.10331 264.761 2.11267C264.874 1.87949 265.12 1.75271 265.304 1.5776C265.549 1.80097 265.954 1.66983 266.096 1.40584C266.177 1.45364 266.18 1.5736 266.339 1.54924C266.405 1.77752 266.063 1.64684 266.19 1.92347C265.952 1.97999 265.501 1.84232 265.396 2.01525C265.769 2.55523 266.96 2.07241 266.732 1.38839C267.049 1.66983 267.488 1.36767 267.599 1.06451C267.386 0.920292 266.97 0.97173 266.873 0.714282C267.09 0.638309 267.623 0.843775 267.585 0.544706C267.841 0.44765 267.651 0.782979 267.908 0.685924C268.458 0.430745 269.029 0.555151 269.35 0.646388C270.654 0.280521 273.675 0.4778 275.571 0.255785C276.295 0.175903 277.129 0.0730291 277.656 0.418716C276.862 0.880636 275.521 0.637278 274.785 0.647459C274.707 0.699621 274.71 0.819576 274.55 0.803946C274.577 1.05331 275.05 0.870282 274.883 1.31503C274.524 0.944711 274.234 1.59292 274.579 1.84356C274.888 1.8551 274.768 1.47824 275.046 1.46061C275.059 1.5503 275.197 1.51649 275.287 1.52404C275.415 1.85064 275.054 1.76049 275.142 2.0482C275.847 2.349 276.549 1.06929 277.139 1.92343C276.92 2.27957 275.997 2.02476 275.707 2.33282C275.772 2.52112 275.885 2.65806 276.193 2.61962C276.118 2.79174 275.829 2.77965 275.887 3.06818C276.192 3.3299 276.44 2.93296 276.76 2.97421L276.774 3.49402C276.135 3.41151 275.985 3.76574 275.336 3.6835C275.642 3.94522 275.207 4.05718 274.952 4.21421C274.724 4.22048 274.707 3.99084 274.546 3.92523C274.245 4.19358 274.296 3.88206 273.83 3.94486C273.814 4.06536 273.913 4.07263 273.916 4.1626C274.053 4.42895 274.031 3.98939 274.232 4.0839C274.152 4.41623 274.449 4.37806 274.485 4.59716C274.621 4.45339 275.143 4.63914 275.116 4.35979C275.181 4.54808 275.517 4.47884 275.524 4.71875C275.783 4.38151 276.188 4.61051 276.632 4.46829C276.734 4.94566 276.541 5.16103 276.501 5.51226L275.705 5.53407C275.642 5.74591 275.82 5.721 275.795 5.90175C276.254 5.94919 276.662 5.55788 276.985 5.71909C277.086 6.14648 276.555 6.02098 276.442 6.25417C276.352 6.59677 276.979 6.23944 277.005 6.45881C277.063 6.77733 276.663 6.68828 276.538 6.84176C276.014 6.62603 274.739 6.60095 274.544 7.11649C274.578 6.88548 274.398 6.8604 274.45 6.59886C274.072 6.57923 273.754 6.61795 273.579 6.7728C273.526 7.00435 273.86 6.85513 273.749 7.1383C273.529 7.1243 273.164 7.25435 273.265 6.93147C273.097 6.97609 272.97 7.04961 273.036 7.30787C272.756 7.24553 272.699 6.977 272.39 6.95546C272.19 6.94092 272.725 7.21636 272.4 7.32532C271.991 6.94638 270.858 6.62732 270.152 7.01681C269.882 6.98419 269.68 6.86969 269.507 6.73437C269.338 6.759 269.496 7.0648 269.358 7.1086C268.98 7.11896 268.718 7.02609 268.632 6.75837C269.127 6.66477 269.285 6.27028 269.974 6.35142C270.092 6.28818 270.138 6.15686 270.123 5.9772C269.77 5.81681 269.088 5.97557 268.609 5.94867L268.595 5.42887C268.358 5.48539 268.233 5.63888 268.291 5.9574C267.864 5.99911 267.485 5.97948 267.485 5.60935C266.899 5.64543 266.098 5.49731 266.226 6.16405C265.741 6.25739 265.702 5.91833 265.188 6.04247L265.198 6.41233C265.713 6.68832 266.587 6.62434 267.054 6.95167C264.666 6.98712 263.103 7.36007 260.356 7.35536C260.146 7.34109 260.437 7.76329 260.125 7.66179C259.889 7.7383 259.982 7.50566 259.958 7.36626C259.147 7.18842 258.113 7.95705 257.4 7.36636C256.777 7.52349 255.909 7.45724 255.164 7.49768C255.287 7.26423 255.553 7.1669 255.706 6.96261C255.916 6.98687 255.932 7.19652 256.268 7.09729C256.695 6.72542 257.878 7.01313 258.092 6.45706C257.07 6.23497 256.229 6.76823 255.45 6.3094C255.171 6.31704 255.249 6.61502 254.98 6.62238C254.772 6.6481 254.767 6.47816 254.733 6.32904C253.134 6.43291 251.955 6.28515 250.586 6.44273L250.6 6.96254C250.847 6.5556 251.228 7.00534 251.871 6.85766L251.881 7.22753C252.478 7.22116 252.843 7.45126 253.566 7.33139C253.009 7.6868 251.757 7.431 250.935 7.55359L250.926 7.2537C250.486 7.18573 250.383 7.40865 250.218 7.57322C249.639 7.50906 248.871 7.06996 248.294 7.4759C247.3 7.13303 246.561 7.41338 245.491 7.25263C244.941 7.16766 244.278 6.93575 243.8 6.92885C243.691 6.93185 243.615 7.09397 243.486 7.08752C242.877 7.03418 242.108 6.56508 241.482 6.99238C239.841 7.03737 237.904 6.81037 236.272 6.46496C236.021 6.4118 236.179 6.71759 235.878 6.62581C235.463 6.38708 234.81 6.52503 234.611 6.88063C234.314 6.93879 234.269 6.75995 233.972 6.8281C234.061 6.43552 233.655 6.52667 233.638 6.24705C233.83 6.34183 234.002 6.44716 234.358 6.37736C234.216 5.18081 232.477 6.01878 231.618 5.56213C231.317 5.46036 231.475 5.76615 231.224 5.72298C230.329 5.36739 229.345 5.77452 228.425 5.64966C228.135 5.60758 227.971 5.40202 227.78 5.36722C226.911 5.231 225.533 5.81897 224.194 5.6156C223.963 5.5419 223.78 5.41685 223.549 5.33316C221.715 5.62351 218.649 5.62752 216.924 5.51475C215.588 5.43133 214.152 5.69079 213.093 5.54975C212.473 5.46669 210.828 5.73187 209.504 5.71816C209.066 5.72016 208.659 5.40119 208.229 5.68308C207.119 5.49343 206.002 5.79414 204.954 5.70281C205.152 6.01751 206.019 5.67364 206.08 6.11211C206.68 5.84557 206.93 6.24887 207.519 5.92263C207.747 5.90636 207.685 6.16818 208 6.05949C207.876 6.24296 207.619 6.31003 207.617 6.5902C206.914 6.38937 205.956 6.65573 204.981 6.66245C204.923 6.37393 205.212 6.38601 205.287 6.21389C205.115 6.12856 204.876 6.11511 204.724 6.00925L204.71 5.48944C204.147 5.67492 203.81 5.34404 203.281 5.67865C202.575 5.32787 200.984 5.39149 200.562 5.60314C199.018 5.1953 196.687 5.87941 195.514 5.2213C195.397 5.30454 195.321 5.43668 195.204 5.52991C193.879 5.10608 191.332 5.87616 190.239 5.22586C189.743 5.65961 189.017 5.33937 188.333 5.79829C188.237 5.57083 188.458 5.61482 188.484 5.49404C188.432 5.41544 188.303 5.41898 188.319 5.27849C186.673 5.53367 183.912 5.72943 182.486 5.28832C182.43 5.40991 182.24 5.4051 182.255 5.59476C181.586 5.15292 180.505 6.01288 180.009 5.35622C179.155 6.13993 178.178 5.38639 177.31 6.02043C177.317 6.29033 177.712 6.17946 177.797 6.3772C178.085 6.33931 178.169 6.12693 178.589 6.20545C178.887 7.25769 177.391 6.42837 176.767 6.92564C176.543 6.72172 176.007 6.80641 175.569 6.80841C175.484 6.61067 175.405 6.24272 175.631 6.13648C176.008 6.09614 175.997 6.43655 176.2 6.56105L176.518 6.55233C176.804 6.46445 176.622 5.96927 177.143 6.09504C176.737 5.80606 176.102 5.88349 175.46 6.07115L175.448 5.63131C176.416 5.35468 177.795 5.56696 178.39 5.1105C178.338 5.03189 178.209 5.03543 178.225 4.89494C177.998 4.96119 177.75 5.00799 177.676 5.2101C177.371 4.98836 176.366 5.0159 176.074 5.254C175.966 4.94684 176.195 4.92058 176.219 4.72983C177.189 4.89331 177.644 4.77081 178.453 4.51854C178.562 4.49554 178.518 4.3267 178.525 4.21647C179.499 4.89003 181.02 4.08805 182.438 4.25926C182.463 4.0985 182.383 4.06069 182.35 3.96155C181.158 4.06424 179.45 3.84097 178.359 4.00091C178.337 3.56135 177.385 3.67749 177.162 3.88369C175.647 3.45504 174.604 4.62406 172.948 4.51937C172.728 4.47539 173.018 4.86761 172.798 4.82362C172.481 4.90232 172.591 4.56918 172.236 4.68895C172.058 4.72385 172.216 5.04963 172.171 5.21094C171.792 5.19131 171.679 5.4045 171.626 5.66604C171.722 5.8835 172.34 5.57643 172.426 5.79417C172.431 6.32424 171.15 5.72911 171.328 6.41449C171.356 6.72383 171.753 6.66294 171.897 6.83905C172.024 7.11568 171.682 6.985 171.748 7.21328C171.134 6.97001 170.166 7.60677 169.741 6.96819C170.024 6.78035 170.593 6.84478 170.438 6.27881C170.717 6.27118 170.646 6.57325 170.924 6.56561C171.002 6.51345 170.999 6.3935 171.159 6.40913C170.742 5.74029 169.518 6.46411 168.437 6.26364C168.615 5.86861 169.783 6.33679 169.869 5.85425C169.033 5.47703 168.378 5.91514 167.156 5.99866C167.311 5.48421 168.374 5.7652 168.407 5.15406C168.799 5.30337 169.279 5.37025 169.768 5.41687C169.832 5.20504 169.967 5.06127 170.154 4.96613C170.021 4.84972 169.878 4.72358 169.746 4.60717C169.558 4.66233 169.768 5.06673 169.601 5.13134C168.84 4.96213 168.341 4.92578 167.601 5.18614C167.692 4.87353 167.463 4.85981 167.428 4.6707C165.235 5.30102 162.366 5.19961 159.932 5.39637C160.028 5.60383 160.191 5.74941 160.344 5.90526C160.712 5.87518 161.234 5.69079 161.383 6.02685C161.738 5.54694 163.144 5.97859 163.611 5.59564C164.556 5.93987 165.364 5.26749 166.49 5.66679C164.673 5.85663 162.711 6.90079 160.834 6.34201C160.687 6.7962 159.932 6.46678 159.486 6.52903C159.274 7.17506 160.378 7.1448 160.61 6.86836C161.807 7.33572 163.004 6.32255 163.499 7.30936C162.456 7.7681 160.322 7.26639 159.279 7.72513C158.999 7.65279 158.824 7.4575 158.863 7.06629C159.073 7.11054 159.245 7.19587 159.426 7.27094C159.368 6.97241 159.175 6.80766 158.855 6.7664C158.747 6.45924 159.19 6.62718 159.245 6.45561C159.203 6.03658 158.726 6.04967 158.355 5.9598C158.699 5.78032 159.317 5.84338 159.457 5.48942C158.737 5.36911 157.823 5.43418 157.215 5.40083C157.256 5.09958 157.91 5.34176 157.921 5.01134C157.468 4.81368 156.817 5.0416 156.819 5.48171C156.437 5.36212 155.803 5.45954 155.631 5.73434C155.731 6.11175 156.569 5.78868 156.678 6.14582C155.164 6.12729 154.684 6.02042 153.564 6.23117C153.412 6.1253 153.163 6.11212 153.001 6.02652C153.122 5.6931 153.885 5.94227 154.271 5.84167C154.118 5.35567 153.046 5.48508 152.665 5.73563C152.399 5.49281 151.995 5.63394 151.71 5.7618C151.675 5.57269 151.446 5.55897 151.537 5.24636C151.397 5.23019 151.141 5.32724 151.214 5.10514C151.136 5.1573 151.139 5.27726 150.98 5.26163C150.93 5.61313 151.258 5.60414 151.237 5.92483C151.785 5.94982 152.527 5.77943 152.842 6.03088C152.766 6.15302 152.476 6.09095 152.45 6.2617C152.25 6.19718 152.156 6.04969 151.81 6.12921C151.556 6.31623 151.394 6.58077 151.273 6.8842C151.48 7.15864 151.567 6.71608 151.828 6.79896C152.06 6.90265 152.292 7.00633 152.32 7.30568C151.837 7.11884 150.811 7.46708 150.474 7.1362C150.289 7.29132 149.981 7.32977 149.602 7.31014C149.686 7.09776 150.025 7.09849 150.068 6.85722C150.521 7.03487 150.602 6.75253 151.18 6.7567C151.264 6.54433 151.259 6.3644 151.164 6.16693C150.935 6.1632 151.011 6.4212 150.69 6.32996C150.859 5.95519 150.743 6.08841 150.672 5.66021L149.15 5.70193C149.099 6.01345 149.203 6.16066 149.403 6.21519C148.955 6.5676 148.26 6.98681 147.575 6.70546C147.513 6.99726 147.859 6.88776 147.748 7.22091C148.018 7.26353 147.87 6.94746 148.058 6.91229C148.463 7.1313 149.332 6.87739 149.27 7.54932C149.013 7.5964 148.872 7.54024 148.789 7.41247C148.788 7.73262 148.025 7.87357 147.838 7.58859C147.293 7.69355 146.424 7.92746 145.68 7.64775C145.378 7.54598 145.536 7.85177 145.286 7.8086C144.16 7.76944 141.598 7.63959 140.251 7.8766C140.249 7.80662 140.15 7.81934 140.09 7.81098C140.219 7.4473 140.357 7.4035 140.225 6.91696C137.993 6.83809 135.757 6.62926 133.675 6.94642C134.173 7.68305 135.685 6.91134 136.799 7.23094L136.811 7.67078C135.26 7.7533 134.071 7.93596 132.824 7.85009C132.713 8.16324 133.271 7.81783 133.151 8.14125L132.434 8.16088C132.39 8.00203 132.581 8.04683 132.588 7.9366C131.483 7.57674 130.295 7.81938 129.321 8.24622C129.194 7.9696 129.679 8.22641 129.552 7.93979C129.487 7.77149 129.103 7.92207 128.913 7.88727C128.693 7.86328 128.984 8.28548 128.764 8.26149C128.487 8.32911 128.385 8.23187 128.438 7.97033C127.498 7.84602 126.6 8.11074 125.951 7.66836C125.948 7.92854 125.354 7.67473 125.483 8.05131C125.014 7.63401 124.258 8.36502 123.951 7.72317C123.589 7.59304 123.819 7.99688 123.641 8.03178C122.866 7.7229 122.007 8.33667 121.24 7.94755C120.831 8.29887 119.863 8.20536 119.245 8.1523C119.136 7.81515 119.782 8.13757 119.796 7.91711C119.366 7.84886 118.117 7.69302 118.041 8.18529C117.92 8.10859 117.836 7.98082 117.715 7.89413C116.105 8.35841 113.455 7.92086 112.049 8.19949C111.021 8.10762 109.441 7.85081 108.534 8.14579C107.847 7.78448 106.229 8.329 105.649 7.85473C104.465 8.25731 101.652 8.02432 100.138 8.00578C99.9293 8.01151 99.7248 8.17718 99.5057 8.17318C96.1296 8.11567 92.1227 8.28553 88.9661 8.61214C89.6127 8.59442 90.3287 9.29506 90.9715 8.77726C91.4354 8.99463 92.7583 8.95836 93.2095 8.71591C93.4665 8.64884 93.5096 8.7677 93.6115 8.85494C93.6754 8.64311 94.0354 8.70327 94.3236 8.68537C95.6254 9.32994 98.1103 8.83166 100.003 8.89981C100.421 9.25849 100.767 8.77886 101.356 8.86273C101.546 8.88754 101.307 8.52395 101.589 8.63627C101.722 8.75268 101.864 8.87881 101.997 8.99522C102.354 8.58529 102.859 9.20169 103.186 8.81256C105.706 9.22367 109.05 8.8219 112.141 9.00727C112.258 8.92403 112.334 8.7919 112.451 8.69866C113.334 9.3047 115.408 8.73764 116.533 9.10695C116.835 9.20873 116.677 8.90293 116.927 8.9461C118.619 8.91974 121.045 9.17336 122.521 8.94281C124.169 9.13773 126.875 9.07356 128.509 8.77866C128.805 8.66053 128.664 8.9745 128.911 8.9177C129.873 8.41116 131.106 9.45776 132.184 8.828C132.476 8.94004 132.897 9.05854 133.139 8.80182C133.027 9.06499 133.409 8.83444 133.384 9.01519C134.793 8.86652 136.458 8.96093 138.337 8.87941C138.961 9.1324 139.943 8.63531 140.583 9.11795C140.637 8.90639 141.079 9.02434 141.132 8.80279C141.703 8.9272 142.299 8.89084 142.897 8.90447C143.066 8.89984 143.131 8.73799 143.291 8.74362C143.38 8.74117 143.593 8.88539 143.693 8.88266C144.389 8.86357 145.897 8.68218 147.049 8.94072C148.408 8.77341 150.799 8.84792 152.327 9.01612C151.361 9.35273 149.516 9.24323 148.575 9.04894C145.611 9.14019 142.306 9.50089 139.155 9.30715C133.841 8.98266 128.602 9.61644 123.497 9.29622C122.868 9.61355 121.94 9.14882 121.501 9.50096C118.368 9.22671 114.269 9.64921 111.276 9.41113C111.096 9.39604 111.161 9.57434 111.041 9.56761C110.143 9.4722 108.568 9.40532 107.689 9.6595C105.986 9.27601 103.653 9.50003 101.534 9.52812C101.147 9.2186 100.589 9.54402 100.183 9.63517C100.135 10.0766 100.804 9.77821 100.901 9.68551C100.972 10.1037 102.071 9.5034 102.025 10.0248C100.978 9.9535 99.5533 10.2727 99.069 10.0358C99.0605 9.72596 99.6838 9.94897 99.9403 9.86191C99.8842 9.63336 99.6441 9.58992 99.5303 9.43298C98.2787 9.52731 96.2664 9.47243 94.6563 9.56658C95.079 10.0952 95.7008 9.53795 96.266 9.82257C95.8321 10.3347 94.5416 9.73979 94.5276 10.6805C94.2254 10.5488 94.2332 10.1084 93.7953 10.1104C93.5899 10.2461 93.5374 10.5076 93.4136 10.7111C93.0837 10.6601 93.0087 10.8322 92.6993 10.8007C92.6411 10.4922 92.9497 10.4937 93.0851 10.3499C93.0484 10.1008 92.5854 9.91346 92.9872 9.68236C91.6621 9.27852 89.2709 9.92428 87.9458 9.52044C86.3266 10.005 83.4076 9.55481 82.0415 9.83235C81.5735 9.46503 81.1197 9.97766 80.6132 10.0216C81.9827 10.5942 84.1881 9.70348 85.4159 10.19C84.5289 10.5144 83.4468 10.6241 82.3862 10.4231C82.2289 10.4975 82.0717 10.5718 81.9148 10.6561C83.2037 10.8309 84.589 10.8929 85.7462 10.6211C85.8064 10.9996 86.7191 10.5244 86.7889 10.8927C86.9412 10.6384 87.8582 10.6833 88.1398 10.7856C88.2458 11.0228 87.8828 10.8527 87.9889 11.0899C86.7673 11.1934 85.3911 10.7409 84.3184 11.1905C83.4976 11.0229 82.3031 11.3858 81.6683 10.7429C81.4486 10.7189 81.7389 11.1411 81.5193 11.1171C81.2905 11.1234 81.1388 11.0375 81.1908 10.756C80.8137 10.7964 80.5045 10.7748 80.4664 10.4757C79.291 10.4479 78.185 10.4082 77.1939 10.5655C77.0148 10.5704 77.1725 10.8762 77.1264 11.0075C76.8661 10.9546 76.8296 11.0756 76.7326 11.1683C76.0933 11.0858 76.214 11.1325 75.539 11.201C76.7519 11.5079 78.0286 11.603 79.2154 11.3203C79.4541 11.3138 79.4604 11.5437 79.6215 11.6093C80.0037 11.3888 80.3825 11.4084 80.811 11.4267C83.1029 11.5139 86.0729 11.2824 88.4861 11.4364C89.2937 11.4842 90.2804 11.5272 90.812 11.6727C91.0093 11.6073 91.5021 11.7938 91.4445 11.5053C91.8414 11.8246 92.3695 11.48 92.7135 11.3205C93.0741 11.4006 93.9361 11.6171 94.2255 11.279C94.5965 11.3789 95.1612 11.6435 95.4232 11.3963C95.7207 11.7182 96.9488 11.8546 97.1838 11.348C97.8999 11.6885 98.434 11.5638 99.6688 11.58C99.7353 11.8283 99.343 11.679 99.4402 11.9564C98.2742 11.9083 96.7495 12.2102 95.8453 11.9049C95.5242 11.8136 95.6927 12.1492 95.3719 12.0679C92.7234 11.6803 90.2008 12.6198 87.2295 12.4412C87.0149 12.237 86.3982 12.2539 86.1951 12.4695C84.7017 12.4604 81.8182 12.2194 80.6804 12.4706C80.4306 12.4375 80.3555 12.2394 80.1928 12.1139C80.1378 12.2854 79.8582 12.2531 79.7214 12.3469C74.8247 12.3811 70.2052 12.7178 65.2625 12.5231C63.7265 12.7753 61.331 12.5409 59.3458 12.3852C56.58 12.8011 53.4695 12.2662 50.3994 12.4804C50.3066 12.723 50.6597 12.5333 50.5668 12.7759C51.052 12.6826 50.7934 12.6897 51.283 12.7563C50.7844 13.4502 49.4022 12.7778 48.5675 12.8307C48.449 12.5038 49.0449 12.8176 49.0389 12.5977C47.721 12.4538 45.8491 12.435 44.6543 12.7879C43.283 12.5154 41.4254 12.6563 40.0925 12.6929C39.5411 12.5479 38.4593 12.6676 37.9401 12.972C37.0159 12.6672 35.609 12.5457 34.9003 12.8352C34.5475 12.6748 33.46 12.5846 33.1397 12.8835C31.009 13.232 29.3304 12.2776 27.7087 13.0323C26.1349 12.9955 24.1251 12.6704 22.2694 12.8813C21.3931 12.5052 19.6147 12.9941 18.9031 12.4534C18.634 12.4408 18.4154 12.4568 18.3502 12.6186C17.2547 12.2385 15.8643 12.3566 14.5023 12.0538C14.2718 12.0001 14.0177 11.807 13.7779 11.7736C12.8387 11.6493 11.9222 11.9845 11.0563 11.6281C10.806 11.5749 10.964 11.8907 10.6626 11.789C10.5987 12.0008 10.7772 11.9759 10.7523 12.1566C10.5586 11.9919 10.2293 11.9609 10.181 11.6521C9.52149 11.5601 8.35789 11.9622 8.17345 11.407C8.09525 11.4592 8.09854 11.5791 7.93884 11.5635C6.46377 11.1338 5.9248 10.7184 4.31567 10.4824C4.32206 10.3522 4.21182 10.3252 4.22788 10.1847C3.2048 9.90261 1.69643 10.074 0.935073 9.53466C0.867719 9.2564 1.31059 9.43433 1.48799 9.36945C1.57896 9.05684 1.34991 9.05311 1.31459 8.85401C1.01336 9.12236 0.506069 9.13627 0.200538 8.88454C0.0332492 8.22888 0.427015 8.06803 0.402819 7.5485C0.651218 7.53169 0.613705 7.25261 0.953817 7.31331C1.07244 6.91992 0.78398 6.92782 0.698925 6.73008C0.847197 5.96573 1.55652 5.69619 1.76639 5.00018C2.19603 5.05843 2.21792 4.76772 2.55612 4.75845C2.67164 4.61523 2.86894 4.5498 2.86236 4.30989C4.41452 3.55707 6.11944 2.93012 7.60005 2.10924C7.95512 1.98947 7.85475 2.32234 8.16118 2.24392C8.27005 2.22093 8.22588 2.06208 8.23254 1.94185C9.72802 1.30063 12.1479 1.33434 13.6392 0.903311C15.7682 1.58523 18.3795 1.70372 21.1018 1.87919C22.7673 1.9936 24.5158 1.86564 26.141 1.96114C27.0384 2.01657 27.9441 2.01175 28.7094 2.3309C32.9206 1.98538 38.505 2.71263 43.1683 2.15464C44.1844 2.54695 46.2283 1.94071 47.2448 2.34301C48.941 2.12645 50.1836 2.06238 52.0392 2.21159C53.2467 1.95841 54.54 1.93296 55.785 1.95885C56.6316 1.97566 57.5069 1.95167 58.3455 2.03872C60.0124 2.20311 61.7791 2.01463 63.4642 2.11849C64.1025 2.16102 64.7053 2.36458 65.3126 2.36794C65.4419 2.36439 65.4873 2.20309 65.6268 2.20927C69.1363 2.41318 73.1147 2.65426 76.7418 2.42478C78.0874 2.48794 80.742 2.73529 82.2606 2.57362C83.8445 2.98037 86.2294 2.46482 88.571 2.55069C88.6274 2.4291 88.8167 2.43392 88.8015 2.24426L90.1543 2.20718C91.3588 2.93445 93.2602 2.21208 94.6388 2.7545C94.9403 2.85628 94.7826 2.55049 95.0326 2.59365C95.1991 2.85919 96.3524 2.80757 96.3017 2.40881C96.6487 2.71942 97.0378 2.38863 97.2506 2.16272C97.4713 2.22669 97.4787 2.49659 97.8932 2.36518C98.0049 2.08202 97.6705 2.23123 97.7239 1.99968C98.1793 1.90717 98.3632 2.0822 98.5279 2.27776C98.6367 2.25477 98.5926 2.09592 98.5992 1.97569C99.9197 1.84946 100.93 2.02185 102.115 2.02939C102.2 2.24712 101.939 2.16424 101.8 2.18805C102.171 2.27793 102.455 2.46022 103 2.37525C103.195 2.22985 102.892 2.0581 103.065 1.85327C104.265 2.03047 105.612 1.77347 106.905 2.11815C106.124 2.31963 105.223 2.13424 103.951 2.19913C103.85 2.50202 104.126 2.42441 104.122 2.63461C106.08 2.52091 108.2 2.87296 109.714 2.55134C110.031 2.47264 109.92 2.80579 110.275 2.68602C110.465 2.71083 110.226 2.34724 110.508 2.45956C110.501 2.19965 110.175 2.27863 110.178 2.02845C111.145 2.10196 112.51 1.77444 113.216 2.09523C112.753 2.64811 111.545 1.7809 111.384 2.44556C111.085 2.45374 111.175 2.09115 110.818 2.16094C110.564 2.31797 110.888 2.53916 110.912 2.67856C112.28 2.45101 113.676 2.92292 114.662 2.57577C115.114 2.70345 116.092 2.82667 116.347 2.67963C117.885 2.84757 120.853 2.55612 122.184 2.81974C122.567 2.59919 123.306 2.69897 123.525 2.34283C123.308 2.05866 122.227 2.19834 122.003 2.38454C121.686 2.05312 120.728 2.35947 120.159 2.28504C119.732 2.68689 118.745 2.25379 117.919 2.27642C117.382 2.29114 116.841 2.53605 116.572 2.53342C116.493 2.5356 115.657 2.18837 115.368 2.19627C115.189 2.20118 114.83 2.51116 114.577 2.36803C114.572 2.19809 114.432 2.15193 114.485 1.93038C117.942 2.03569 122.493 2.10101 125.594 1.92597C125.835 2.0094 126.448 2.21268 126.629 1.89762C130.123 2.26201 135.748 1.58761 139.327 1.76962C139.556 1.78334 140.118 1.58787 140.131 2.04769C138.859 2.13258 138.125 1.85259 137.181 2.27862C134.831 1.89286 131.116 2.20476 128.867 2.2064C128.789 2.27856 128.712 2.36071 128.634 2.43286C129.662 2.88487 131.224 2.48193 132.549 2.54563C133.706 2.60396 135.257 2.56143 136.146 2.66711C136.407 2.74999 136.199 2.42557 136.46 2.50844C136.699 2.5019 136.705 2.73181 136.866 2.79742C137.873 2.48972 138.464 2.98371 139.333 2.35967C139.494 2.42528 139.52 2.62466 139.662 2.72081C140.192 2.44618 140.903 2.96689 141.255 2.37702C141.432 2.65228 142.613 2.9 142.697 2.33748C143.073 2.24715 143.013 2.58894 143.417 2.4678C143.432 1.91719 142.885 1.93218 142.289 1.97853C142.423 1.42465 143.518 2.13492 143.962 1.63256C144.786 1.91009 146.946 1.57076 147.8 1.82748C147.2 2.09401 146.455 2.15445 145.804 2.03223C145.727 2.10438 145.649 2.18653 145.572 2.25869C145.479 2.50132 145.832 2.31158 145.739 2.55421C146.111 2.33393 146.986 2.27995 147.176 2.66489C147.343 2.59028 147.337 2.37037 147.565 2.3541C147.832 2.29675 147.702 2.62045 147.892 2.64526C148.566 2.18661 149.573 2.23904 150.358 2.20751C149.863 1.55085 148.85 2.36891 148.43 1.96024C148.821 1.66944 150.049 1.4457 150.585 1.75113C151.884 1.20533 154.062 1.87589 155.216 1.47413C156.223 1.90669 157.322 1.32636 158.417 1.68649C158.811 1.52564 160.177 1.2581 160.341 1.78381C158.683 1.9493 156.588 1.76665 154.675 2.08917C156.266 2.38569 157.301 2.38732 158.909 2.19321L158.929 2.93293C159.332 3.09196 160.106 3.37085 160.535 3.03898C160.417 2.74209 159.912 2.83596 159.494 2.84742C159.38 2.68048 159.266 2.51354 159.317 2.18203C160.06 2.06162 160.328 2.4044 161.081 2.28371L161.073 1.98382C161.143 1.64177 160.554 1.93803 160.585 1.62705C161.786 1.46411 163.882 1.31661 165.539 1.49127C166.186 1.1334 167.511 1.53724 168.405 1.11258C169.296 1.28824 169.701 1.1771 170.405 1.05777C172.043 1.25297 174.676 0.720613 176.633 0.957062C176.703 1.3053 176.191 1.14926 176.087 1.34219C175.668 0.963518 174.987 1.5324 174.73 1.22933C174.601 1.26286 174.666 1.46115 174.416 1.388C174.467 1.46661 174.597 1.46306 174.581 1.60355C174.214 1.67362 173.853 1.91362 173.546 1.63191C173.459 1.36419 173.862 1.52322 174.02 1.46888C173.484 1.16345 171.791 1.50996 170.508 1.56513C170.329 1.57004 170.487 1.87583 170.441 2.00714L169.725 2.02678C169.777 2.10538 169.906 2.10184 169.89 2.24233C170.245 2.14255 171.094 1.87919 171.402 2.20089C171.711 2.21243 171.591 1.83557 171.869 1.81794C171.729 2.1619 172.19 1.90918 172.118 2.18126C172.524 2.1101 172.665 1.79613 172.979 1.63746C172.524 2.1001 173.544 1.91208 173.634 2.28976C174.036 2.06865 175.099 1.9795 175.319 2.39362C174.741 2.37944 174.717 2.23005 174.287 2.49195C174.819 2.66743 175.46 2.45977 175.892 2.59799C176.212 2.63925 175.991 2.20514 176.28 2.21723C176.618 2.19796 176.344 2.38553 176.286 2.43714C176.872 2.7712 178.183 2.27511 178.532 2.67568C178.709 2.58081 178.952 2.39406 179.089 2.66041C179.197 2.58744 179.756 2.302 179.805 2.64078C180.301 2.55718 181.217 2.22193 181.725 2.58816C182.066 2.30872 182.895 2.40604 183.322 2.39432C183.43 2.32134 183.415 2.14168 183.553 2.08789C183.527 1.85852 182.9 2.22584 182.99 1.88324C185.237 1.43149 188.4 1.68493 190.971 1.44437C191.15 1.43946 190.993 1.13367 191.039 1.00236C191.333 0.844233 191.518 1.03925 191.914 0.978363C191.841 1.23045 191.452 1.2011 191.288 1.36567C192.211 1.63048 193.865 1.35503 194.735 1.86138C193.515 1.99488 193.075 1.92691 191.781 1.94236C191.652 2.32604 191.998 2.23653 192.034 2.45563C193.109 2.08603 194.287 2.57394 195.621 2.20725C195.597 2.43798 195.913 2.32929 195.947 2.49841C198.138 2.16826 200.505 2.43351 203.131 2.37153C203.207 1.88925 202.78 1.90098 202.633 1.64489C202.538 1.79756 202.524 2.02802 202.409 2.17124C201.923 2.23458 201.689 2.07092 201.446 1.89753C201.909 1.74477 202.433 1.9605 202.629 1.49495L202.667 1.42388ZM99.2142 2.25895C99.2012 2.14926 99.0233 2.19415 98.894 2.1977C98.7323 2.47223 99.3109 2.51639 99.2142 2.25895ZM100.907 2.6527C100.928 2.30201 100.725 2.17752 100.338 2.22814C100.318 2.57882 100.52 2.70332 100.907 2.6527ZM124.321 2.68115C124.877 2.63589 125.637 2.77511 125.745 2.342C125.391 1.77149 124.817 2.27739 124.215 2.08383C124.182 2.33483 124.256 2.49286 124.311 2.67143L124.321 2.68115ZM126.161 2.63071C126.66 2.69705 126.72 2.31528 127.036 2.60671C126.93 2.36953 127.293 2.53965 127.187 2.30246C127.088 2.30519 126.998 2.28765 127.024 2.15688C126.803 2.44305 125.842 1.87917 126.161 2.62071L126.161 2.63071ZM144.211 2.35602L144.768 2.34075L144.758 1.97089C144.462 2.08903 144.603 1.77505 144.356 1.83185C144.331 2.0226 144.103 2.04886 144.211 2.35602ZM101.097 3.38779C101.286 4.11288 102.255 3.16596 102.617 3.64623C102.511 3.40905 102.874 3.57916 102.768 3.34198C102.124 3.44967 101.589 3.19422 101.087 3.38806L101.097 3.38779ZM143.976 2.51251C144.106 2.53895 144.094 2.10911 143.966 2.14264C143.856 2.14564 143.649 2.56149 143.976 2.51251ZM150.913 2.10227C151.277 2.32237 151.757 2.02911 152.023 1.92179C151.687 2.01103 150.974 1.78048 150.913 2.10227ZM161.286 1.74791C161.187 2.15076 161.447 2.19365 161.543 2.41112C162.651 2.18065 163.78 1.95964 164.797 1.65166C163.533 1.6663 162.568 1.68275 161.286 1.74791ZM165.517 1.78197C166.051 1.65729 166.198 1.92337 166.635 1.90138C166.529 1.6642 166.892 1.83431 166.786 1.59713C166.466 1.52589 165.719 1.52634 165.517 1.78197ZM169.5 1.45272C168.882 1.43964 167.775 1.35994 167.507 1.72744C167.965 1.76488 168.618 1.59694 168.941 1.75815C169.007 2.00642 168.819 2.0316 168.631 2.06677C168.576 1.53806 167.802 2.33958 167.511 1.87739C167.359 2.15165 166.82 2.0864 166.403 2.12784L166.411 2.42773C166.946 2.32304 167.351 2.2119 167.525 2.39719C167.914 2.0664 169.048 2.38546 169.355 1.97689C169.078 2.0445 168.976 1.94726 169.028 1.68573C169.568 1.75097 169.844 1.31323 170.222 1.65301C170.302 1.29069 169.729 1.45645 169.5 1.45272ZM103.88 3.6216C103.752 3.31499 104.329 3.62932 104.19 3.31299L103.793 3.32389C103.806 3.43358 103.77 3.59461 103.88 3.6216ZM104.911 3.4433L104.915 3.59324C106.495 3.48991 108.01 3.91856 109.709 3.46182C108.249 3.20174 106.039 3.21229 104.911 3.4433ZM112.26 3.54196C113.125 3.51824 113.466 3.60893 114.42 3.55277C114.433 3.31231 114.282 3.23643 114.092 3.19163C113.472 3.81885 112.341 2.51935 112.26 3.54196ZM110.738 3.58368L112.011 3.54878C111.833 3.21354 111.267 3.25907 110.73 3.28379L110.738 3.58368ZM118.25 3.44779C118.702 3.59546 119.338 3.55802 119.441 3.3451C119.081 3.27495 118.428 3.04276 118.25 3.44779ZM119.935 3.55166C120.7 3.49068 121.396 3.49158 121.783 3.8011C122.009 3.68487 122.235 3.56864 122.246 3.26821C121.338 3.5532 120.181 2.7346 119.935 3.55166ZM125.362 3.25284C125.358 3.46303 125.634 3.38543 125.533 3.68831C125.821 3.68041 125.957 3.52664 125.919 3.23757C125.591 3.26656 125.608 3.14606 125.362 3.25284ZM133.437 3.3316C133.588 3.40748 133.808 3.42147 133.843 3.62058C134.063 3.30443 135.028 3.64811 135.025 3.14803C134.427 3.1244 133.801 2.81143 133.427 3.34187L133.437 3.3316ZM136.705 3.09195C136.912 3.74652 138.659 3.54859 139.27 3.32176C140.29 3.51387 141.777 3.63318 142.702 3.2277C143.99 3.38245 145.55 3.27967 146.78 3.48604C147.091 3.19742 147.607 3.50339 147.978 3.60326C148.145 3.52865 148.139 3.30874 148.367 3.29247C149.036 3.7343 150.226 2.81137 150.769 3.3767C151.126 3.34689 151.382 3.24984 151.311 2.84163C150.395 2.82673 149.275 3.00748 148.592 2.76612C148.475 2.84936 148.399 2.98149 148.282 3.07473C148.124 2.77894 147.337 3.09064 147.159 2.80538C145.157 3.09038 141.823 2.7716 139.097 3.17646C138.354 2.94673 137.409 2.98263 136.695 3.09222L136.705 3.09195ZM160.821 2.58096L161.139 2.57224C161.105 2.41312 160.993 2.31615 160.812 2.28108L160.821 2.58096ZM131.99 3.22119L131.593 3.2321C131.48 3.46528 132.116 3.44783 131.99 3.22119ZM135.43 3.42701L135.422 3.12712L135.104 3.13585C135.138 3.30497 135.25 3.39193 135.43 3.42701ZM164.983 2.98707C165.646 2.84885 166.921 3.24406 166.972 2.5624C166.483 2.86593 166.163 2.45454 165.782 2.74507C165.665 2.44818 165.945 2.51052 165.93 2.30087C165.568 2.17074 165.798 2.57459 165.619 2.60948C165.232 2.64011 164.854 2.65047 164.66 2.48571C164.707 2.71454 164.947 2.76797 164.993 2.99679L164.983 2.98707ZM183.975 2.24637C185.927 2.25291 188.14 2.03216 189.969 2.30215C190.358 1.97136 191.2 2.52851 191.644 2.03615C191.198 2.0984 191.081 1.8315 190.761 1.76026C189.79 1.92692 188.624 1.87885 187.488 1.84996C187.337 2.15421 186.735 1.98064 186.688 1.72183C186.128 1.98728 184.715 1.98601 184.132 1.7919C184.148 2.00155 183.867 1.93921 183.985 2.2361L183.975 2.24637ZM151.719 3.20058C151.958 3.19404 152.207 3.18722 152.191 2.96758C151.815 3.05791 151.875 2.71613 151.471 2.83727C151.466 3.04746 151.714 3.00066 151.719 3.20058ZM161.535 2.86149L161.527 2.56161L161.288 2.56815C161.274 2.75862 161.268 2.93883 161.535 2.86149ZM228.279 1.03194C228.545 0.954602 229.179 1.19733 229.069 0.790207C228.954 0.623271 228.511 0.775487 228.271 0.742046L228.279 1.04193L228.279 1.03194ZM161.694 2.85713L161.704 3.22699C162.196 3.36357 162.502 2.91501 162.659 3.20082C162.55 2.83368 163.328 3.25252 163.208 2.88566C163.233 2.70491 162.841 2.93573 162.963 2.67229C162.619 2.82178 162.45 2.82641 161.694 2.85713ZM227.099 1.58446C227.465 1.47441 228.319 1.78111 228.287 1.33182C228.044 1.16843 227.461 1.32447 227.091 1.29457L227.1 1.59446L227.099 1.58446ZM225.439 2.37026L224.723 2.3899C224.791 2.69814 225.489 2.39889 225.606 2.66579C225.643 2.55474 225.506 2.28838 225.675 2.29375C226.095 2.35227 226.897 2.18024 227.438 2.31546C227.36 1.63735 226.098 2.10209 225.429 2.0004L225.439 2.37026ZM227.756 2.30673C228.035 2.2991 228.222 2.23394 228.144 1.92597L227.746 1.93687L227.756 2.30673ZM231.67 2.34952C231.883 2.1336 232.422 2.18885 232.859 2.16686C232.715 2.00074 232.251 2.1535 231.982 2.12088L231.978 1.97093C231.405 2.13669 230.789 2.19358 230.213 1.86925C230.219 2.07917 229.776 1.92123 229.823 2.18005C229.827 2.3 230.024 2.23457 229.989 2.3956C230.398 2.08426 231.157 2.1735 231.67 2.34952ZM269.601 1.45981C270.629 1.91182 271.801 1.45953 272.649 1.89645C272.816 1.82184 272.81 1.60193 273.039 1.58566C273.152 1.70261 273.352 1.73715 273.29 2.01895C273.788 2.02531 274.091 1.84692 274.151 1.47515C273.881 1.43253 273.407 1.59556 273.273 1.42917L273.267 1.20925L274.143 1.18526C273.078 0.474166 270.423 0.556963 269.601 1.45981ZM262.499 1.65449L262.897 1.64358C262.863 1.50445 262.858 1.32452 262.65 1.35024C262.756 1.58742 262.393 1.41731 262.499 1.65449ZM260.824 1.92049C261.29 1.84769 262.072 2.04634 262.089 1.5857C261.595 1.34915 261.108 1.73265 260.824 1.92049ZM267.606 1.66456C268.236 1.75734 268.932 1.73825 269.199 1.32077C268.563 1.33822 267.855 1.2976 267.606 1.66456ZM184.571 4.01071C184.478 4.25334 184.831 4.06359 184.739 4.30623C184.258 4.21936 184.349 4.63702 184.359 4.98688C184.75 5.08621 184.692 4.79768 184.992 4.81949C184.891 4.4221 185.26 4.432 185.128 4.00543C184.898 3.93173 184.798 3.93446 184.571 4.0207L184.571 4.01071ZM187.685 3.92536C187.493 4.56085 186.86 3.96799 186.246 4.11484C186.244 4.37502 186.016 4.44127 185.942 4.64337C185.612 4.5724 185.235 4.62275 185.155 4.96507C186.277 4.86429 187.226 5.36846 188.109 4.88409C188.184 5.0921 188.541 5.01231 188.829 5.0144C188.953 4.4508 189.719 4.77994 189.866 5.05602C190.212 4.9765 190.119 4.50886 190.241 4.23542C189.931 4.1539 189.921 3.79404 189.435 3.88737C189.332 4.10029 189.665 4.26123 189.448 4.32721C189.328 4.32048 189.15 4.36537 189.127 4.26596C189.124 4.146 189.325 4.20053 189.28 4.04168C188.864 3.72298 188.342 3.93735 187.675 3.93563L187.685 3.92536ZM92.9942 6.67104C93.3501 6.58125 94.0933 6.82098 94.1837 6.48838L92.9901 6.5211L92.9942 6.67104ZM105.046 6.19063C104.74 6.65918 103.64 5.74898 103.705 6.66755C105.264 6.52478 106.745 7.16444 107.932 6.55167C107.264 6.14982 105.84 6.46898 105.046 6.19063ZM150.079 5.10624L150.088 5.40613C150.423 5.30689 150.439 5.51654 150.649 5.5408C150.699 5.20929 150.576 5.05262 150.394 4.95756C150.48 5.1753 150.218 5.09242 150.08 5.11623L150.079 5.10624ZM153.917 5.30115L153.909 5.00126L153.67 5.00781C153.656 5.19828 153.651 5.37849 153.917 5.30115ZM195.442 4.38298C194.928 4.15698 193.344 4.13036 193.295 4.88198C195.261 4.70804 197.254 5.1336 198.961 4.57662C199.054 4.33399 198.701 4.52373 198.793 4.2811C198.34 4.45358 198.141 4.43904 197.757 4.23948C197.599 4.27383 197.766 4.57935 197.445 4.46812C197.283 4.01239 196.57 4.52211 196.243 4.20096C196.33 4.10853 196.468 4.06473 196.392 3.82673C195.742 3.7145 195.877 4.29101 195.451 4.37271L195.442 4.38298ZM109.047 6.53112C109.725 6.95269 111.559 6.65234 112.483 6.587C111.305 6.10909 110.611 6.56829 109.047 6.53112ZM138.354 5.87781C138.712 5.848 138.999 5.77012 139.142 5.55611C138.784 5.57592 138.284 5.47959 138.354 5.87781ZM191.934 4.62917C191.764 4.59382 191.41 4.73359 191.376 4.57447C191.402 4.4537 191.623 4.50767 191.526 4.27022L190.572 4.29639C190.519 4.54794 190.902 4.37736 190.82 4.65971L190.423 4.67062C190.802 5.43051 191.693 4.54575 192.191 4.92224C192.147 4.38326 192.979 4.61054 192.965 4.09074L192.09 4.11473C191.994 4.24741 192.091 4.54484 191.945 4.6389L191.934 4.62917ZM260.512 2.52926C260.898 2.42866 261.671 2.67756 261.781 2.34441C261.554 2.03053 260.757 2.39249 260.512 2.52926ZM108.967 6.53331L108.092 6.5573C108.101 6.90717 108.884 6.75568 108.967 6.53331ZM115.041 6.5869C115.834 6.84525 116.54 6.8159 117.442 6.67113C116.886 6.36625 115.637 6.20041 115.041 6.5869ZM181.221 4.5527C180.491 4.7728 179.412 4.62231 178.516 4.99699C178.406 5.34014 179.032 4.94283 178.922 5.28597C179.83 4.99099 181.197 5.11358 182.187 4.89638C182.098 4.55869 181.466 4.74608 181.221 4.5527ZM183.47 4.86121C183.829 4.89138 184.025 4.77597 184.017 4.47608L183.46 4.49135L183.47 4.86121ZM259.39 2.63004C259.649 2.62295 259.958 2.64449 259.941 2.39486C259.601 2.34415 259.506 2.49682 259.39 2.63004ZM117.915 6.5081C117.899 6.64859 118.009 6.66559 118.003 6.80581C118.53 6.79136 118.935 6.66022 119.187 6.40323C118.77 6.45466 118.19 6.35052 117.915 6.5081ZM120.48 6.73791C120.784 6.56952 121.251 6.54671 121.749 6.55307C121.588 6.12732 120.671 6.45257 120.142 6.37705C120.128 6.61751 120.28 6.69339 120.47 6.73819L120.48 6.73791ZM123.187 6.36359C123.128 6.38522 123.099 6.42602 123.112 6.51572C123.755 6.73817 125.357 6.69428 125.987 6.43692C126.429 6.23472 126.861 6.75307 126.941 6.41074C125.808 6.10168 124.42 6.29979 123.187 6.36359ZM127.415 6.24771C127.453 6.56677 128.083 6.29941 128.374 6.37148C128.268 6.14429 127.611 6.15229 127.415 6.24771ZM221.395 4.11172C220.53 3.40517 219.153 4.03312 218.111 3.76159C217.494 3.78849 216.781 3.91808 216.111 3.81639C215.597 4.30067 214.897 3.82966 214.359 4.16454C214.324 3.97543 214.104 3.96143 213.953 3.87556C213.751 4.51132 213.149 3.95762 212.759 3.90828C212.458 4.19662 212.199 4.91399 211.586 4.68072C211.783 4.61529 211.746 4.33621 211.729 4.08658C211.097 4.28396 210.9 3.97926 210.46 4.27142C210.23 3.86758 209.596 4.00498 209.346 4.30196C208.552 4.03361 207.599 4.49989 206.546 4.22864C206.326 4.18465 206.616 4.57687 206.396 4.53288C206.2 4.29816 205.717 4.12131 205.437 4.40912C205.009 4.05071 203.705 4.05644 203.115 4.3227C202.993 4.246 202.939 4.08743 202.711 4.11369C201.908 4.58588 201.049 4.11924 199.918 4.26028C199.89 4.69121 199.137 4.48175 198.977 4.80626C199.11 4.95266 199.36 4.98583 199.542 5.09088C199.815 4.86333 199.839 5.01273 200.179 5.07343C201.803 4.75882 203.363 4.67602 204.884 4.57433C204.967 4.72209 205.206 4.71555 205.212 4.93547C205.87 4.97745 206.79 4.75216 207.215 5.0306C207.37 4.48617 207.924 5.10121 208.158 4.56459C208.154 4.77479 208.431 4.69718 208.33 5.00007C209.342 4.89228 210.312 5.4259 211.045 4.92563C211.466 5.39427 213.344 4.91263 214.244 5.05802C214.754 5.14408 215.954 4.96114 216.635 4.77239C216.749 4.93933 216.892 5.07546 217.123 5.12917C218.071 4.86308 219.006 5.18759 220.399 5.18941C220.494 4.65661 221.1 4.98012 221.503 4.78901C221.519 4.64851 221.409 4.63152 221.416 4.4913C220.953 4.69404 220.701 4.58091 220.22 4.45405C220.297 4.37189 220.375 4.29974 220.453 4.22758C220.733 4.27993 221.304 4.41433 221.644 4.12489C221.856 4.22912 221.874 4.50875 222.212 4.47948L222.201 4.10962C221.951 4.06646 221.566 3.80692 221.406 4.13144L221.395 4.11172ZM130.695 6.44789C131.122 6.77632 131.887 6.3452 132.132 6.55858C132.126 6.34865 132.568 6.50659 132.521 6.24778C131.84 6.44653 130.924 5.73134 130.685 6.44817L130.695 6.44789ZM135.892 6.45551C137.392 6.36436 138.702 6.58854 140.199 6.33745C138.664 6.26948 136.781 5.50077 135.892 6.45551ZM103.948 7.18108C104.334 7.08048 105.107 7.32938 105.217 6.99624C104.832 7.09684 104.058 6.84793 103.948 7.18108ZM105.951 7.27622C105.897 7.10765 105.804 6.97015 105.545 6.98724C105.6 7.15581 105.693 7.29331 105.951 7.27622ZM211.816 4.37429L212.135 4.36556C212.1 4.20644 211.988 4.10948 211.808 4.0744L211.816 4.37429ZM223.943 3.74175C223.516 4.14361 222.952 3.53883 222.515 3.93096C222.437 4.33326 222.804 4.30318 222.696 4.73629C223.01 4.55763 223.528 4.55345 224.045 4.54927C224.02 4.72002 223.923 4.83271 223.98 5.07126C224.769 5.15967 224.837 5.10778 225.661 5.02518C226.356 4.22584 227.638 5.24109 228.69 4.79207C228.753 4.91039 228.942 4.89521 228.937 5.08541L230.618 5.03933C230.392 4.77543 230.38 4.67574 230.437 4.234C230.024 4.06525 229.239 3.75664 228.752 4.13014C228.659 4.37277 229.012 4.18302 228.919 4.42566C228.612 4.4741 228.499 4.33715 228.434 4.13886C227.534 3.98347 226.833 4.57289 226.196 4.20021C226.234 4.51927 225.57 4.60751 225.326 4.44412L225.32 4.2242L226.036 4.20457C225.956 3.44649 224.392 4.1496 223.943 3.74175ZM233.133 3.78998C233.488 3.6702 233.824 3.97109 234.008 3.76598C233.794 3.59178 233.328 3.66457 233.124 3.49009L233.133 3.78998ZM142.443 6.49602C142.365 6.21803 142.828 6.39542 142.751 6.11743L142.035 6.13706C142.109 6.31508 142.252 6.43122 142.443 6.49602ZM143.318 6.47202C143.445 6.38851 143.847 6.16741 144.032 6.38242C144.165 6.87896 142.952 6.90223 142.765 6.63723C142.24 6.72166 141.337 6.83644 140.766 6.69204C140.851 6.90978 140.59 6.8269 140.452 6.85071C140.738 7.12297 140.46 7.1406 140.47 7.52046C140.726 7.4134 140.869 7.19939 141.095 7.06317C141.943 7.14995 142.848 7.13514 144.61 7.11687L144.62 7.48673C144.85 7.54043 144.826 7.38104 145.016 7.40585C144.741 6.80317 145.486 7.10287 145.557 6.8008C145.136 6.70229 144.609 6.70675 144.275 6.53581C144.35 6.3537 144.598 6.33689 144.745 6.22284C144.119 5.91986 143.693 6.34171 142.98 6.12115C142.967 6.36161 143.118 6.43749 143.308 6.48229L143.318 6.47202ZM275.612 2.84563C275.665 2.61408 275.668 2.70405 275.602 2.47577L275.124 2.48886C275.132 2.75876 275.294 2.87435 275.612 2.84563ZM116.487 7.05744C116.474 6.94776 116.296 6.99265 116.167 6.9962C116.005 7.27073 116.584 7.31489 116.487 7.05744ZM273.626 3.05011C274.164 2.69524 274.809 3.32782 275.051 2.71096C274.495 2.77621 274.172 2.605 273.616 2.68025L273.626 3.05011ZM125.27 6.81669L123.997 6.85159C124.009 7.28142 125.282 7.24652 125.27 6.81669ZM125.435 7.03224C125.616 7.09731 126.626 7.2597 126.545 6.85176C126.364 6.78669 125.355 6.6243 125.435 7.03224ZM127.118 7.05613C127.475 6.98634 127.647 7.09166 127.839 7.18645C127.771 6.90819 128.214 7.08612 128.392 7.02123L128.383 6.72135C127.897 6.77469 127.146 6.59522 127.118 7.05613ZM129.516 6.99042L130.232 6.97079L130.242 7.34065C131.454 7.25741 132.078 7.5204 133.117 7.26185C133.039 6.97387 133.39 7.06429 133.261 6.73769C132.145 7.0384 131.011 6.69934 129.507 6.69054L129.516 6.99042ZM240.966 3.78531C240.401 3.85084 240.001 3.77178 239.61 3.67245C239.584 3.8432 239.263 3.75197 239.3 3.98106C239.21 4.34365 239.692 4.15036 239.709 4.40999C239.171 4.75486 238.458 4.15418 238.11 4.52386C237.26 4.01697 236.375 4.7815 235.309 4.38056L235.297 3.94073C234.455 3.73372 234.016 4.04588 232.979 4.00426C233.049 4.38248 232.772 4.45009 232.679 4.68273C232.274 4.80387 232.325 4.47236 231.959 4.55242C231.843 4.69564 231.646 4.76107 231.653 5.00098C232.553 5.15637 233.889 4.88965 234.692 5.13774C234.881 5.11256 234.763 4.81568 234.921 4.76133C235.134 4.88556 235.249 5.10247 235.568 5.11374C236.822 4.74924 238.681 5.75867 240.207 5.13663C240.368 5.20224 240.384 5.42188 240.613 5.42561C240.921 5.04702 242.127 5.45414 242.445 5.07528C242.556 5.4724 243.43 5.76856 243.808 5.40806C243.842 5.56718 243.955 5.66414 244.135 5.69922C245.061 5.3737 246.582 5.65214 247.57 5.75509C247.577 5.61487 247.613 5.50382 247.721 5.45084C248.486 5.36987 249.163 5.01119 249.8 5.39386C249.99 5.05853 251.006 5.44084 251.063 4.9891C251.028 4.79999 250.809 4.78599 250.657 4.70012C249.204 5.07007 247.644 4.80272 246.097 4.67505C245.419 4.62362 244.457 4.76002 243.857 4.66643C243.228 4.56365 242.084 4.96514 241.379 4.66434L241.369 4.29448C242.647 4.42952 241.184 4.09947 240.957 3.78559L240.966 3.78531ZM230.604 4.50953C230.818 4.69374 231.019 4.75826 230.777 5.02498C230.965 4.98981 230.95 5.16029 231.177 5.08404C231.223 4.93274 231.064 4.59695 231.242 4.56206C231.543 4.61385 231.618 4.46173 231.877 4.47463C231.865 4.0348 230.592 4.0697 230.604 4.50953ZM124.582 7.4858C124.499 7.73816 125.165 7.6899 124.978 7.40492C124.747 7.35121 124.772 7.51061 124.582 7.4858ZM128.015 7.46171C128.05 7.63082 128.414 7.48079 128.574 7.51641C128.599 7.33566 127.968 7.1829 128.015 7.46171ZM274.613 3.81336C274.922 3.8449 275.028 3.70195 275.082 3.50039L274.605 3.51348L274.613 3.81336ZM145.749 7.27571C145.755 7.1155 145.47 7.25336 145.349 7.21664C145.178 7.51144 145.846 7.53316 145.749 7.27571ZM147.352 7.30179C147.124 7.31805 147.186 7.05624 146.871 7.16493C146.71 7.47945 147.316 7.43283 147.352 7.30179ZM255.302 4.56279C254.756 4.95791 253.832 4.67311 253.064 4.62414C252.386 4.5827 251.417 4.4692 251.234 5.04444C251.577 5.2151 251.979 5.33415 252.36 5.45374C252.484 4.89013 253.399 5.20519 253.633 5.41884C255.757 5.53069 256.88 4.74962 259.054 4.9001C258.927 4.62348 259.412 4.88029 259.285 4.59367C258.545 3.74363 256.553 5.17873 255.292 4.55306L255.302 4.56279ZM266.319 4.11073C266.265 4.32229 265.824 4.20434 265.77 4.42589C265.64 4.39945 265.694 4.19789 265.448 4.28467C265.309 4.64863 265.722 4.47724 265.699 4.71796C267.123 4.75894 268.066 4.65307 269.528 4.61299C269.554 4.44223 269.66 4.34927 269.838 4.30438C270.404 4.589 271.412 4.69141 271.917 4.24739C270.446 3.58746 268.231 4.14835 266.319 4.10074L266.319 4.11073ZM259.866 4.7278C260.207 5.17863 260.845 4.86102 261.392 4.83603C262.714 4.76977 264.417 5.15326 264.971 4.29776C264.91 4.2794 264.879 4.24024 264.887 4.15C263.47 4.38891 261.501 4.11275 259.866 4.7278ZM78.7886 9.91151C79.224 9.81954 79.2135 10.16 79.668 10.0375L79.6579 9.6676C79.2594 9.65851 78.8812 9.65888 78.7886 9.91151ZM94.125 9.79123L94.1167 9.49134L93.7984 9.50006C93.7456 9.75161 93.8478 9.84884 94.125 9.79123ZM234.888 6.08274C235.504 6.06584 236.401 6.08129 237.207 6.08919C237.176 6.78029 238.984 6.63071 239.049 6.10872C237.643 6.01721 236.363 5.80221 234.885 5.63264C234.822 5.85447 234.822 5.86446 234.897 6.07248L234.888 6.08274ZM273.935 5.23247C274.139 5.03681 274.606 5.024 274.811 5.20847L274.796 4.68867C274.248 4.64369 274.005 4.86043 273.935 5.23247ZM274.978 5.504C275.311 5.2948 276.071 5.45401 275.914 4.80808C275.694 4.76409 275.28 4.91549 275.196 4.75773C275.195 4.70775 275.184 4.66804 275.115 4.68994C274.96 4.86424 274.938 5.15495 274.978 5.504ZM74.8044 10.5509C74.8387 10.71 74.9508 10.807 75.131 10.8421C75.3692 10.4554 75.6996 10.8865 76.0859 10.8159L76.0776 10.516C75.5623 10.6002 75.1391 10.4117 74.8044 10.5509ZM244.716 6.19349C243.794 6.3388 242.392 5.67696 242 6.26792L242.875 6.24393L242.884 6.54381C243.913 6.34552 244.255 6.82634 245.052 6.85451C244.947 6.27718 245.923 6.65058 246.317 6.51972C246.301 6.66021 246.411 6.67721 246.405 6.81743C246.903 6.83378 247.576 6.68529 247.851 6.92783C248.2 6.57815 248.344 6.75426 248.882 6.74953C248.847 6.57042 249.027 6.5855 248.951 6.37749C247.413 6.53971 246.359 6.22847 245.034 6.18476C245.018 6.31526 245.124 6.55244 244.883 6.48901C244.646 6.56553 244.739 6.33289 244.716 6.19349ZM258.626 6.33238C258.56 6.82438 259.075 6.75022 259.281 6.98468C260.808 6.40262 262.563 6.8947 264.224 6.47903C264.219 6.3091 264.357 6.2553 264.292 6.03702C263.684 6.01367 263.27 6.15507 262.947 6.37399C262.712 6.15035 262.186 6.21478 261.825 6.10464C261.656 6.12927 261.753 6.38671 261.594 6.41107C261.47 6.23441 261.123 6.27394 260.949 6.12863C260.875 6.33074 260.618 6.36782 260.401 6.44379C260.325 6.24577 260.551 5.74941 260.223 5.7784C260.24 6.40817 258.998 6.49223 258.636 6.34211L258.626 6.33238ZM274.266 5.68357L274.664 5.67266L274.656 5.37278L274.258 5.38368L274.266 5.68357ZM270.288 6.16277C270.594 6.07434 271.277 6.30571 271.318 5.98447C271.171 5.71839 270.656 5.82253 270.277 5.79291L270.288 6.16277ZM249.692 6.87739L250.169 6.8643C250.189 6.51362 249.987 6.38912 249.6 6.43974C249.547 6.67129 249.687 6.70746 249.692 6.87739ZM258.554 6.63445L258.546 6.33456L258.228 6.34329C258.262 6.50241 258.374 6.59937 258.554 6.63445Z" fill="black"/>
</svg>
