<svg width="228" height="25" viewBox="0 0 228 25" fill="none" xmlns="http://www.w3.org/2000/svg">
<g clip-path="url(#clip0_4740_9392)">
<path fill-rule="evenodd" clip-rule="evenodd" d="M83.4961 7.46973L83.9505 7.45727L83.9546 7.60721L83.5002 7.61967L83.4961 7.46973Z" fill="black"/>
<path fill-rule="evenodd" clip-rule="evenodd" d="M92.6147 7.44964L93.3288 7.43007C93.3935 7.7184 93.2321 7.75284 93.1461 7.87524C92.8929 7.82216 92.5927 7.83039 92.6147 7.44964Z" fill="black"/>
<path fill-rule="evenodd" clip-rule="evenodd" d="M115.235 7.33998C115.564 7.49103 115.448 7.38418 115.82 7.32397L115.828 7.62386C115.575 7.59077 115.49 7.73316 115.447 7.93442C115.297 7.82847 115.196 7.6712 115.236 7.34998L115.235 7.33998Z" fill="black"/>
<path fill-rule="evenodd" clip-rule="evenodd" d="M156.925 6.4274C156.844 7.02985 156.053 6.34124 155.957 6.67401C155.647 6.33237 154.677 6.78912 154.383 6.41705C155.432 6.49832 156.202 6.1171 156.924 6.41741L156.925 6.4274Z" fill="black"/>
<path fill-rule="evenodd" clip-rule="evenodd" d="M157.308 6.18672C157.505 6.28135 157.757 6.30444 157.963 6.38884C158.015 6.82757 157.382 6.53481 157.125 6.63189C157.06 6.34356 157.222 6.30912 157.308 6.18672Z" fill="black"/>
<path fill-rule="evenodd" clip-rule="evenodd" d="M164.095 6.45053C163.324 7.04189 161.342 6.44596 160.651 6.695C160.288 6.48487 159.167 6.47558 158.825 6.74505C158.73 6.54757 158.329 6.72863 158.298 6.4594C158.692 6.03843 159.268 6.61286 159.332 6.28098C160.612 6.45598 162.577 6.17202 164.095 6.45053Z" fill="black"/>
<path fill-rule="evenodd" clip-rule="evenodd" d="M151.531 6.94504C151.559 7.10432 150.785 7.00549 150.494 7.04349C150.668 6.86866 151.105 6.81666 151.531 6.94504Z" fill="black"/>
<path fill-rule="evenodd" clip-rule="evenodd" d="M157.521 6.85114L157.529 7.15103L157.075 7.16349C157.042 6.86427 157.252 6.82849 157.521 6.85114Z" fill="black"/>
<path fill-rule="evenodd" clip-rule="evenodd" d="M162.349 7.01897C162.391 7.35795 162.247 7.44192 162.367 7.68872C163.121 7.61805 163.815 7.75908 164.132 7.79039C164.09 8.03164 163.488 7.67801 163.554 8.02633C163.008 7.96126 162.5 7.78512 161.923 8.07103C161.867 7.82246 162.163 7.94441 162.174 7.76403C162.059 7.69717 162.062 7.49702 161.844 7.55301C161.884 7.23179 162.091 7.10606 162.349 7.01897Z" fill="black"/>
<path fill-rule="evenodd" clip-rule="evenodd" d="M162.608 7.01158L162.868 7.00447C162.862 7.09465 162.888 7.13397 162.937 7.15263C162.893 7.3239 162.565 7.20285 162.608 7.01158Z" fill="black"/>
<path fill-rule="evenodd" clip-rule="evenodd" d="M165.019 6.9458C165.42 7.08484 165.537 7.17169 166.061 7.06727C165.968 7.49 165.014 7.35609 165.019 6.9458Z" fill="black"/>
<path fill-rule="evenodd" clip-rule="evenodd" d="M177.198 6.61176C177.407 6.51601 177.253 6.85033 177.462 6.75458C177.466 6.91452 177.187 6.79213 177.074 6.83523C177.113 6.75415 177.218 6.75126 177.198 6.61176Z" fill="black"/>
<path fill-rule="evenodd" clip-rule="evenodd" d="M166.199 7.05344L166.523 7.04454C166.57 7.25335 166.128 7.44552 166.199 7.05344Z" fill="black"/>
<path fill-rule="evenodd" clip-rule="evenodd" d="M179.547 6.68734L179.553 6.90726C179.439 6.89038 179.23 6.98613 179.289 6.76443C179.403 6.76132 179.425 6.67069 179.547 6.68734Z" fill="black"/>
<path fill-rule="evenodd" clip-rule="evenodd" d="M180.658 6.65697C180.829 6.6523 181.031 6.61675 181.115 6.71449C181.029 6.83689 181.152 7.18364 180.932 7.15966C180.752 7.09458 180.721 6.85534 180.658 6.64697L180.658 6.65697Z" fill="black"/>
<path fill-rule="evenodd" clip-rule="evenodd" d="M145.68 7.69569L145.692 8.13552C145.481 8.1513 145.405 8.02335 145.359 7.84453C145.564 7.89895 145.433 7.58241 145.68 7.68569L145.68 7.69569Z" fill="black"/>
<path fill-rule="evenodd" clip-rule="evenodd" d="M145.94 7.68857C146.191 7.67168 146.324 7.78807 146.403 7.976L145.948 7.98846L145.94 7.68857Z" fill="black"/>
<path fill-rule="evenodd" clip-rule="evenodd" d="M148.285 7.62435C148.337 7.74297 148.491 7.72874 148.488 7.9189L148.034 7.93135C147.928 7.62414 148.399 7.94134 148.285 7.62435Z" fill="black"/>
<path fill-rule="evenodd" clip-rule="evenodd" d="M169.585 7.04049C169.589 7.21042 169.704 7.25729 169.662 7.47854C169.388 7.57607 169.374 7.36637 169.203 7.34105C169.247 7.14979 169.332 7.0074 169.584 7.03049L169.585 7.04049Z" fill="black"/>
<path fill-rule="evenodd" clip-rule="evenodd" d="M193.632 6.82125C195.249 6.57684 196.191 7.17125 197.34 6.7196L197.346 6.93952C197.452 7.24674 197.013 6.95864 197.027 7.16834C197.062 7.82764 197.925 7.04368 198.078 7.5797C197.998 7.92202 197.282 7.58151 197.177 7.9045C196.925 7.59129 196.398 7.61575 195.863 7.64042C195.893 7.25945 196.45 7.45425 196.766 7.39559C196.808 7.16434 196.693 7.12747 196.689 6.95754C196.188 7.06129 195.345 6.80431 195.062 7.15219C194.377 6.7708 194.064 7.48965 193.615 6.8217L193.632 6.82125Z" fill="black"/>
<path fill-rule="evenodd" clip-rule="evenodd" d="M166.542 7.71402C166.696 7.99991 166.153 8.0548 166.219 7.7929C166.374 7.81866 166.353 7.64917 166.542 7.71402Z" fill="black"/>
<path fill-rule="evenodd" clip-rule="evenodd" d="M191.686 7.24475C191.668 7.48532 191.325 7.38471 191.24 7.55709C190.75 7.46048 189.816 7.16595 189.41 7.45719C189.253 7.36145 189.112 7.25528 188.822 7.32326C189.465 6.80543 190.732 7.39095 191.686 7.24475Z" fill="black"/>
<path fill-rule="evenodd" clip-rule="evenodd" d="M197.475 6.93627C197.655 6.98135 197.992 6.83206 198.062 6.99022L198.068 7.21014C197.775 7.21815 197.586 7.1333 197.475 6.92627L197.475 6.93627Z" fill="black"/>
<path fill-rule="evenodd" clip-rule="evenodd" d="M198.392 6.91116C198.961 7.22569 199.578 6.62856 199.837 7.17168C199.884 7.12037 200.031 6.85624 200.032 7.16634C200.142 7.06327 200.574 6.81135 200.49 7.30383C200.685 7.29849 200.679 7.06858 200.806 6.99505C201.983 7.26291 203.545 7.06004 204.604 7.48118C204.501 7.88414 204.01 7.73754 203.766 7.72422C202.855 7.67916 201.94 7.47416 201.149 7.35579C200.994 7.33003 200.967 7.51085 200.959 7.51107C200.479 7.5042 200.006 7.40714 199.453 7.40228C199.413 7.6935 199.263 7.86766 199.281 8.21731C199.03 7.94409 198.874 8.19844 198.567 8.23688C198.666 8.01407 198.815 7.82992 199.141 7.85101C199.111 7.66175 198.924 7.64687 198.997 7.33476C198.874 7.30811 198.61 7.4454 198.668 7.19372C198.455 7.10953 198.626 7.43496 198.413 7.35078C198.35 7.13242 198.349 7.12242 198.401 6.91094L198.392 6.91116Z" fill="black"/>
<path fill-rule="evenodd" clip-rule="evenodd" d="M169.222 8.0109C169.236 7.66036 169.634 7.95957 169.615 8.15017C169.35 8.25747 169.408 7.99579 169.222 8.0109Z" fill="black"/>
<path fill-rule="evenodd" clip-rule="evenodd" d="M195.076 7.37221C195.002 7.65433 194.22 7.55573 194.039 7.47066C194.349 7.22207 194.686 7.38289 195.076 7.37221Z" fill="black"/>
<path fill-rule="evenodd" clip-rule="evenodd" d="M180.821 7.84269C180.8 7.97331 180.402 8.27432 180.369 7.92512C180.522 7.9009 180.609 7.79849 180.821 7.84269Z" fill="black"/>
<path fill-rule="evenodd" clip-rule="evenodd" d="M205.649 7.68269C205.367 7.77045 204.887 8.0437 204.801 7.55588C204.974 7.35106 205.629 7.26307 205.649 7.68269Z" fill="black"/>
<path fill-rule="evenodd" clip-rule="evenodd" d="M207.337 7.63607C207.392 7.88464 207.205 7.87976 207.152 8.01127C206.796 7.74094 206.379 7.93243 205.97 7.8236C206.28 7.3049 206.683 7.76404 207.337 7.63607Z" fill="black"/>
<path fill-rule="evenodd" clip-rule="evenodd" d="M216.972 7.22187C217.173 7.15633 217.06 7.47955 217.301 7.36292C217.315 7.57262 217.144 7.57729 216.982 7.59173C216.98 7.52176 216.899 7.53398 216.85 7.52532C216.763 7.28763 217.06 7.45956 216.972 7.22187Z" fill="black"/>
<path fill-rule="evenodd" clip-rule="evenodd" d="M194.638 7.98433C194.693 8.2229 195.11 8.0314 195.102 8.34173C195.069 8.62274 194.344 8.52258 194.195 8.43662C194.086 8.00945 194.713 8.3724 194.638 7.98433Z" fill="black"/>
<path fill-rule="evenodd" clip-rule="evenodd" d="M201.092 7.94759L201.547 7.93513C201.528 8.12573 201.526 8.34587 201.431 8.4585C201.172 8.46561 201.069 8.27835 201.092 7.94759Z" fill="black"/>
<path fill-rule="evenodd" clip-rule="evenodd" d="M221.737 7.46153C221.806 7.28959 222.142 7.42042 222.32 7.37554C222.277 7.59679 221.842 7.73875 221.737 7.46153Z" fill="black"/>
<path fill-rule="evenodd" clip-rule="evenodd" d="M195.236 8.1879C195.582 8.07838 195.543 8.42958 195.889 8.32005C195.869 8.77078 195.169 8.68994 195.236 8.1879Z" fill="black"/>
<path fill-rule="evenodd" clip-rule="evenodd" d="M221.023 7.48111L221.348 7.47221C221.452 7.69946 220.932 7.71369 221.023 7.48111Z" fill="black"/>
<path fill-rule="evenodd" clip-rule="evenodd" d="M196.149 8.31283C196.335 8.29772 196.341 8.48765 196.354 8.67735C196.169 8.74245 196.181 8.58206 196.028 8.61628C195.94 8.37859 196.237 8.55052 196.149 8.31283Z" fill="black"/>
<path fill-rule="evenodd" clip-rule="evenodd" d="M200.472 9.00473C200.075 9.04561 199.781 8.68354 199.498 9.03142C198.605 9.0259 197.482 8.35641 196.82 8.80471C196.853 8.50371 196.437 8.75519 196.485 8.44374C196.577 8.21116 196.769 8.41597 197.005 8.42951C197.127 8.43617 197.342 8.28022 197.325 8.27067C197.505 8.29576 197.665 8.51146 197.853 8.55632C198.784 8.74089 200.053 8.24591 200.472 9.00473Z" fill="black"/>
<path fill-rule="evenodd" clip-rule="evenodd" d="M206.312 8.17462C206.451 8.21083 206.763 8.04221 206.705 8.31389C206.566 8.27769 206.254 8.4463 206.312 8.17462Z" fill="black"/>
<path fill-rule="evenodd" clip-rule="evenodd" d="M200.918 8.69257C201.098 8.73766 201.435 8.58837 201.504 8.74653C201.588 9.14438 200.798 9.046 200.918 8.69257Z" fill="black"/>
<path fill-rule="evenodd" clip-rule="evenodd" d="M201.957 8.66401C202.249 8.67599 202.486 8.73952 202.614 8.9461L202.03 8.96212C202.034 8.83194 201.944 8.8044 201.957 8.66401Z" fill="black"/>
<path fill-rule="evenodd" clip-rule="evenodd" d="M226.143 8.82122L226.533 8.81054C226.535 9.19062 226.203 9.22973 225.963 9.34636C225.914 9.05758 226.209 9.12954 226.143 8.82122Z" fill="black"/>
<path fill-rule="evenodd" clip-rule="evenodd" d="M137.006 12.0749C137.014 12.3648 136.687 12.3037 136.428 12.3108C136.556 12.5674 136.554 12.4974 136.44 12.7507C136.493 12.9193 136.806 12.7706 136.961 12.8064C136.956 12.9366 137.046 12.9641 137.034 13.1045C136.425 13.1212 135.939 13.4546 135.403 13.1492C135.388 12.6094 136.285 13.045 136.362 12.6027C136.366 12.4226 136.211 12.4268 136.159 12.3082C135.999 12.3926 136.015 12.6723 135.78 12.6887C135.79 12.4384 135.941 12.3342 135.959 12.0936C136.525 12.0081 136.436 12.0105 136.997 12.0651L137.006 12.0749Z" fill="black"/>
<path fill-rule="evenodd" clip-rule="evenodd" d="M158.235 11.5732C158.423 11.6281 158.627 11.6625 158.698 11.8607C158.675 12.2114 158.269 11.9224 158.178 11.8749C158.115 11.9267 158.118 12.0466 157.988 12.0302C158.031 12.109 158.136 12.1061 158.124 12.2465L156.817 12.2824C156.837 12.1018 156.691 12.1257 156.742 11.9143C157.284 11.8494 157.852 11.8138 158.235 11.5732Z" fill="black"/>
<path fill-rule="evenodd" clip-rule="evenodd" d="M126.135 12.7433L126.524 12.7327C126.505 12.9133 126.65 12.8893 126.599 13.1007C126.956 13.091 127.396 13.1489 127.569 12.9241C127.826 12.847 127.738 13.1796 128.027 13.0616C128.023 13.5119 126.999 13.4699 126.79 13.2456C126.478 13.4342 125.5 13.601 125.349 13.135L126.064 13.1154C126.202 13.1216 126.089 12.8546 126.118 12.7438L126.135 12.7433Z" fill="black"/>
<path fill-rule="evenodd" clip-rule="evenodd" d="M161.107 11.7847L161.692 11.7687C161.642 12.0301 161.163 12.0432 161.107 11.7847Z" fill="black"/>
<path fill-rule="evenodd" clip-rule="evenodd" d="M86.9954 13.9664C87.1009 13.9635 87.2458 13.9195 87.257 14.0292C87.3371 14.2871 86.8649 14.24 86.9954 13.9664Z" fill="black"/>
<path fill-rule="evenodd" clip-rule="evenodd" d="M162.29 11.9723C162.31 11.8017 162.614 11.9334 162.742 11.8898C162.653 12.1724 162.925 12.0249 162.882 12.2561L162.428 12.2686C162.408 12.1391 162.483 11.897 162.29 11.9723Z" fill="black"/>
<path fill-rule="evenodd" clip-rule="evenodd" d="M164.704 12.0563C164.184 12.0405 163.999 12.4057 163.613 12.5263C163.404 12.6221 163.557 12.2878 163.349 12.3835C163.343 12.1536 163.579 12.1971 163.532 11.9383C163.872 11.909 164.563 11.66 164.704 12.0563Z" fill="black"/>
<path fill-rule="evenodd" clip-rule="evenodd" d="M225.537 10.3884L225.017 10.4026C224.993 10.1032 225.553 10.0879 225.537 10.3884Z" fill="black"/>
<path fill-rule="evenodd" clip-rule="evenodd" d="M226.506 10.2118C226.75 10.2351 226.491 10.8325 226.597 11.1697C226.369 11.1159 226.297 10.8678 226.194 10.6605C226.228 10.4295 226.421 10.3742 226.506 10.2118Z" fill="black"/>
<path fill-rule="evenodd" clip-rule="evenodd" d="M138.194 12.7828L138.454 12.7757L138.462 13.0756C138.237 13.1418 138.153 13.0441 138.194 12.7828Z" fill="black"/>
<path fill-rule="evenodd" clip-rule="evenodd" d="M160.793 12.1636L161.117 12.1547C161.205 12.3924 160.908 12.2204 160.996 12.4581C160.944 12.3395 160.79 12.3537 160.793 12.1636Z" fill="black"/>
<path fill-rule="evenodd" clip-rule="evenodd" d="M161.58 12.1416C161.719 12.1779 162.008 12.0399 162.036 12.1992C162.143 12.5464 161.765 12.3867 161.588 12.4315L161.58 12.1317L161.58 12.1416Z" fill="black"/>
<path fill-rule="evenodd" clip-rule="evenodd" d="M170.368 11.9009L171.082 11.8813C171.007 12.1234 171.294 11.9355 171.22 12.1776C171.463 12.151 171.814 12.2414 171.865 12.0099C172.029 12.0754 172.106 12.2234 172.388 12.1456L172.398 12.5155C172.112 12.4533 172.035 12.6054 171.883 12.6796C171.888 12.5495 171.798 12.5219 171.81 12.3815C171.672 12.6654 171.023 12.4031 170.909 12.7063C170.665 12.693 170.477 12.6182 170.382 12.4207C170.568 12.4056 170.83 12.4684 170.832 12.2583C170.803 12.089 170.507 12.2372 170.376 12.2008L170.368 11.9009Z" fill="black"/>
<path fill-rule="evenodd" clip-rule="evenodd" d="M181.401 12.4188C180.408 12.9262 179.487 12.8114 178.411 12.6508C178.489 12.2285 178.901 12.1672 179.306 12.1061L179.316 12.4759C179.762 12.4837 179.891 11.5598 180.281 12.1493C180.751 12.1165 181.206 12.114 181.393 12.419L181.401 12.4188Z" fill="black"/>
<path fill-rule="evenodd" clip-rule="evenodd" d="M175.859 12.2707C176.047 12.0054 176.102 12.5341 176.257 12.5599C176.489 12.4335 176.842 12.2737 176.91 12.692C176.486 12.6336 176.151 12.8429 175.872 12.7205C175.774 12.423 176.003 12.4868 175.989 12.2771L175.859 12.2807L175.859 12.2707Z" fill="black"/>
<path fill-rule="evenodd" clip-rule="evenodd" d="M174.553 12.3062C174.725 12.3515 174.849 12.4581 174.824 12.7389L174.565 12.746L174.553 12.3062Z" fill="black"/>
<path fill-rule="evenodd" clip-rule="evenodd" d="M9.25244 16.9878L9.70684 16.9753L9.71506 17.2752C9.46352 17.2821 9.33068 17.1757 9.25244 16.9878Z" fill="black"/>
<path fill-rule="evenodd" clip-rule="evenodd" d="M71.7891 15.5635C71.1124 15.7621 70.6639 15.6944 70.1641 15.8281C70.2132 15.5467 69.8452 15.7468 69.8943 15.4654C70.6306 15.6653 71.4372 14.8729 71.7891 15.5635Z" fill="black"/>
<path fill-rule="evenodd" clip-rule="evenodd" d="M173.973 12.4722L174.232 12.4651L174.241 12.7649C174.094 12.739 174.002 12.6414 173.973 12.4722Z" fill="black"/>
<path fill-rule="evenodd" clip-rule="evenodd" d="M188.035 12.087C188.058 12.3364 188.183 12.463 188.434 12.4461C188.636 12.3906 188.51 12.244 188.489 12.0745C188.981 11.971 189.104 12.2977 189.282 12.573C188.41 12.7469 187.858 12.762 187.191 12.4102C187.372 12.1952 187.695 12.1363 188.026 12.0872L188.035 12.087Z" fill="black"/>
<path fill-rule="evenodd" clip-rule="evenodd" d="M190.189 12.178C190.392 12.1724 190.351 12.4437 190.584 12.3872C190.503 12.9597 190.049 12.4219 189.879 12.7067C189.677 12.7722 189.79 12.449 189.55 12.5657C189.519 12.0163 190.259 12.6763 190.189 12.178Z" fill="black"/>
<path fill-rule="evenodd" clip-rule="evenodd" d="M91.006 15.1166C91.3314 15.1377 91.0148 15.4365 91.0181 15.5565C90.8712 15.5305 90.7792 15.433 90.7502 15.2637C90.8633 15.2406 91.0767 15.3248 91.0058 15.1067L91.006 15.1166Z" fill="black"/>
<path fill-rule="evenodd" clip-rule="evenodd" d="M91.4604 15.104C91.8645 15.6231 92.7718 15.2481 93.2254 15.2057C93.2549 15.3949 93.434 15.41 93.5582 15.4967C93.4265 15.7304 93.4282 15.7903 93.5724 16.0165C93.359 15.9323 93.5303 16.2577 93.3169 16.1735C93.0947 15.1793 92.0985 15.8668 91.4728 15.5538L91.4607 15.114L91.4604 15.104Z" fill="black"/>
<path fill-rule="evenodd" clip-rule="evenodd" d="M154.573 13.3742C154.843 13.4369 155.034 13.5917 155.044 13.9516C154.672 14.0218 154.536 13.7954 154.573 13.3742Z" fill="black"/>
<path fill-rule="evenodd" clip-rule="evenodd" d="M88.47 15.3363C88.6807 15.3205 88.7573 15.4485 88.8028 15.6273L88.2186 15.6433C88.1127 15.3361 88.5843 15.6533 88.47 15.3363Z" fill="black"/>
<path fill-rule="evenodd" clip-rule="evenodd" d="M89.8335 15.2988L90.1581 15.2899L90.1663 15.5898L89.8417 15.5987L89.8335 15.2988Z" fill="black"/>
<path fill-rule="evenodd" clip-rule="evenodd" d="M63.0684 16.1729L63.9122 16.1497C63.677 16.4563 63.3119 16.4663 63.0684 16.1729Z" fill="black"/>
<path fill-rule="evenodd" clip-rule="evenodd" d="M125.857 14.4514C126.177 14.5726 126.466 14.7448 126.903 14.7228C126.841 14.8045 126.778 14.8763 126.715 14.948C126.208 14.8419 125.835 14.8321 125.408 14.9838C125.506 14.6911 125.123 14.9616 125.143 14.771C125.107 14.3719 125.884 14.8508 125.848 14.4516L125.857 14.4514Z" fill="black"/>
<path fill-rule="evenodd" clip-rule="evenodd" d="M133.874 14.5317C132.813 14.9509 131.15 14.4263 130.366 14.8479C130.221 14.8919 130.273 14.7104 130.167 14.7033C130.026 14.8873 129.419 14.9539 129.196 14.8C129.604 14.0185 132.469 14.2301 133.297 14.5375C133.554 14.4404 133.656 14.2976 133.881 14.5215L133.874 14.5317Z" fill="black"/>
<path fill-rule="evenodd" clip-rule="evenodd" d="M128.859 14.6695C128.739 14.7328 128.686 14.8643 128.541 14.8983C128.315 14.6544 127.775 14.7993 127.36 14.7806C127.607 14.3137 128.231 14.8768 128.859 14.6695Z" fill="black"/>
<path fill-rule="evenodd" clip-rule="evenodd" d="M157.32 13.7391C157.459 13.7753 157.771 13.6067 157.714 13.8783C157.575 13.8421 157.262 14.0108 157.32 13.7391Z" fill="black"/>
<path fill-rule="evenodd" clip-rule="evenodd" d="M106.53 15.6514L104.12 15.7175C104.357 15.1808 106.141 15.0719 106.53 15.6514Z" fill="black"/>
<path fill-rule="evenodd" clip-rule="evenodd" d="M111.147 15.2246L111.602 15.2122L111.606 15.3621L111.152 15.3746L111.147 15.2246Z" fill="black"/>
<path fill-rule="evenodd" clip-rule="evenodd" d="M111.731 15.209L111.991 15.2019C111.987 15.332 112.077 15.3596 112.064 15.5L111.74 15.5089L111.731 15.209Z" fill="black"/>
<path fill-rule="evenodd" clip-rule="evenodd" d="M115.193 15.2641C115.915 15.2443 116.684 15.1532 117.091 15.5121C116.653 15.5041 115.508 15.8156 115.193 15.2641Z" fill="black"/>
<path fill-rule="evenodd" clip-rule="evenodd" d="M147.171 14.3872L147.431 14.3801C147.426 14.5103 147.516 14.5378 147.504 14.6782C147.293 14.694 147.216 14.566 147.171 14.3872Z" fill="black"/>
<path fill-rule="evenodd" clip-rule="evenodd" d="M151.93 14.407C151.826 14.75 151.27 14.6052 150.898 14.6554C150.96 13.9534 151.439 14.5505 151.93 14.407Z" fill="black"/>
<path fill-rule="evenodd" clip-rule="evenodd" d="M153.557 14.5127C153.238 14.4414 152.947 14.7595 152.713 14.5358C152.878 14.3112 153.487 14.0144 153.557 14.5127Z" fill="black"/>
<path fill-rule="evenodd" clip-rule="evenodd" d="M117.28 15.5769C117.459 15.0018 118.089 15.7648 118.312 15.3286C118.521 15.2328 118.368 15.5671 118.576 15.4714C118.663 15.399 119.119 15.1164 119.16 15.4554C119.356 15.5 119.718 15.3401 119.811 15.5075C118.869 15.4834 117.874 15.6407 117.272 15.5772L117.28 15.5769Z" fill="black"/>
<path fill-rule="evenodd" clip-rule="evenodd" d="M154.47 14.3374L154.924 14.3249C154.903 14.4555 154.977 14.4635 155.058 14.4713C154.996 14.593 154.759 14.5295 154.74 14.7001C154.584 14.6544 154.46 14.5777 154.47 14.3374Z" fill="black"/>
<path fill-rule="evenodd" clip-rule="evenodd" d="M129.588 15.1694C130.255 15.2212 130.713 15.0585 131.285 15.1929C131.18 15.776 130.094 15.2956 129.796 15.6739C129.766 15.4546 129.484 15.5424 129.587 15.1594L129.588 15.1694Z" fill="black"/>
<path fill-rule="evenodd" clip-rule="evenodd" d="M156.228 14.5094C156.613 14.3288 157.291 14.4503 157.793 14.3965C157.57 14.5726 156.706 14.7564 156.228 14.5094Z" fill="black"/>
<path fill-rule="evenodd" clip-rule="evenodd" d="M163.077 14.6218C162.679 14.9128 161.405 14.9477 161.308 14.3702C161.973 14.3319 162.746 14.1007 163.077 14.6218Z" fill="black"/>
<path fill-rule="evenodd" clip-rule="evenodd" d="M84.3319 16.6304C84.5934 16.6932 84.7609 16.8787 84.9281 17.0542C85.2694 16.7647 86.3186 16.826 86.6889 17.0059C86.9966 16.6774 87.2407 16.9908 87.6627 16.9792C87.9467 16.9715 88.2546 16.6529 88.4983 16.6562C88.6038 16.6533 88.6669 16.8817 88.8311 16.9472C89.5036 17.1889 90.4322 16.4031 90.7886 16.9636C91.9259 16.6823 92.9057 17.1756 93.9126 16.8779C94.6728 17.3573 95.974 17.1316 96.9188 17.2357C97.1136 17.2304 97.1073 17.0005 97.2352 16.9269C97.708 16.994 97.9924 17.2963 98.5517 17.261C98.1656 17.6917 97.7641 17.2626 97.3915 17.5929C96.4912 17.3375 95.5333 17.6438 94.523 17.5215C91.8673 17.2141 88.8961 17.8358 86.6298 17.2176C84.7533 17.4891 83.5256 17.4328 81.8707 17.198C82.4263 16.4325 83.7763 17.3959 84.3313 16.6104L84.3319 16.6304Z" fill="black"/>
<path fill-rule="evenodd" clip-rule="evenodd" d="M226.64 12.7293L226.835 12.724C226.814 13.1347 226.625 13.36 226.269 13.4097C226.196 13.1216 226.491 13.2136 226.385 12.8864C226.498 12.8633 226.711 12.9474 226.64 12.7293Z" fill="black"/>
<path fill-rule="evenodd" clip-rule="evenodd" d="M167.118 14.5107L168.027 14.4858C168.09 14.7242 167.978 14.7673 167.907 14.8593C167.674 14.6356 167.413 14.6027 167.126 14.8106L167.118 14.5107Z" fill="black"/>
<path fill-rule="evenodd" clip-rule="evenodd" d="M169.792 14.5875C169.708 15.07 168.822 14.7441 168.49 14.7732L168.485 14.6233C168.625 14.3794 169.631 14.3518 169.792 14.5875Z" fill="black"/>
<path fill-rule="evenodd" clip-rule="evenodd" d="M194.67 13.9055C195.352 14.2069 196.302 14.1909 196.969 14.5127C195.785 14.6052 194.482 14.4608 193.049 14.3201C193.326 13.7423 194.376 14.4437 194.67 13.9055Z" fill="black"/>
<path fill-rule="evenodd" clip-rule="evenodd" d="M174.291 14.6044C175.412 14.6037 176.773 14.5164 178.001 14.5727C178.031 14.762 178.218 14.7769 178.145 15.089C176.986 14.8707 176.12 14.9644 175.019 15.1046C174.834 14.8696 174.256 15.1056 174.291 14.6044Z" fill="black"/>
<path fill-rule="evenodd" clip-rule="evenodd" d="M182.499 14.5293C182.435 14.8712 182.086 14.9007 181.73 14.9205L181.718 14.4807C181.926 14.3749 182.277 14.4353 182.499 14.5293Z" fill="black"/>
<path fill-rule="evenodd" clip-rule="evenodd" d="M191.745 14.1259C191.816 14.344 191.284 14.5186 191.292 14.2083C191.446 14.1841 191.532 14.0817 191.745 14.1259Z" fill="black"/>
<path fill-rule="evenodd" clip-rule="evenodd" d="M130.07 15.8965C130.693 16.1095 131.126 15.6074 131.45 16.1588C131.148 16.3872 130.577 16.3228 130.083 16.3463L130.071 15.9065L130.07 15.8965Z" fill="black"/>
<path fill-rule="evenodd" clip-rule="evenodd" d="M157.943 15.1326C158.082 15.1688 158.394 15.0002 158.336 15.2719C158.197 15.2357 157.885 15.4043 157.943 15.1326Z" fill="black"/>
<path fill-rule="evenodd" clip-rule="evenodd" d="M162.252 15.3147C162.009 15.3413 161.657 15.2509 161.607 15.4824C161.46 15.4564 161.368 15.3589 161.339 15.1896C161.543 14.9539 162.185 14.9464 162.252 15.3147Z" fill="black"/>
<path fill-rule="evenodd" clip-rule="evenodd" d="M220.926 13.4059L221.185 13.3988L221.194 13.6986C220.968 13.7649 220.884 13.6671 220.926 13.4059Z" fill="black"/>
<path fill-rule="evenodd" clip-rule="evenodd" d="M131.697 16.0019L132.022 15.993C132.109 16.2307 131.812 16.0588 131.9 16.2965C131.848 16.1779 131.694 16.1921 131.697 16.0019Z" fill="black"/>
<path fill-rule="evenodd" clip-rule="evenodd" d="M188.765 14.728C188.484 15.1359 187.287 15.0186 186.876 14.8498C185.745 15.0709 185.115 14.8981 183.947 14.9301C183.884 14.7218 184.031 14.7378 184.002 14.5585C184.97 14.3419 185.942 14.8354 186.606 14.4871C187.111 14.8234 188.26 14.3917 188.765 14.728Z" fill="black"/>
<path fill-rule="evenodd" clip-rule="evenodd" d="M55.9642 18.598C55.6007 18.668 55.45 18.502 55.2441 18.3976C55.3246 18.0753 56.0668 18.195 55.9642 18.598Z" fill="black"/>
<path fill-rule="evenodd" clip-rule="evenodd" d="M101.224 16.9873C101.914 17.2585 103.888 17.0143 104.946 17.1053C105.215 17.128 105.68 16.9151 105.799 17.3821C104.425 17.9199 102.838 16.913 101.956 17.6374C101.694 17.5446 101.377 17.5233 101.107 17.4406C100.889 17.2065 101.238 17.2169 101.224 16.9973L101.224 16.9873Z" fill="black"/>
<path fill-rule="evenodd" clip-rule="evenodd" d="M204.099 15.4181C203.937 16.0128 203.593 15.6221 203.267 15.8811C201.954 15.687 200.079 15.3883 198.827 15.6327C197.513 15.1185 195.327 15.6586 194.053 15.0933C193.807 14.99 193.937 15.2965 193.733 15.2521C192.95 14.8434 191.546 15.172 190.662 14.8961C191.568 14.191 192.082 14.8872 193.325 14.603C193.703 15.0429 194.835 14.5717 195.165 15.0728C195.326 14.9984 195.394 14.8464 195.68 14.9086C196.145 15.266 197.317 14.7737 197.774 15.1513C198.036 15.2142 197.929 14.887 198.224 14.9889C198.474 14.9221 198.433 15.2033 198.62 15.1982C200.489 14.9469 202.412 15.2143 204.099 15.4181Z" fill="black"/>
<path fill-rule="evenodd" clip-rule="evenodd" d="M210.193 14.0705C210.151 14.3217 209.822 14.1707 209.483 14.24C209.517 14.009 210.009 13.8955 210.193 14.0705Z" fill="black"/>
<path fill-rule="evenodd" clip-rule="evenodd" d="M215.985 13.8418C215.919 14.1037 215.811 14.3267 215.879 14.735L215.555 14.7439C215.594 14.4127 215.501 14.2552 215.406 14.0777C215.775 14.1877 215.633 13.7414 215.985 13.8418Z" fill="black"/>
<path fill-rule="evenodd" clip-rule="evenodd" d="M169.881 15.4755C169.247 15.4429 168.448 15.6148 167.924 15.4591C168.282 15.2192 169.595 15.1232 169.881 15.4755Z" fill="black"/>
<path fill-rule="evenodd" clip-rule="evenodd" d="M109.961 17.2581C109.794 17.9729 108.818 17.0493 108.403 17.6009C108.154 17.3877 107.582 17.5634 107.356 17.3295C107.891 16.6846 109.306 17.086 109.961 17.2581Z" fill="black"/>
<path fill-rule="evenodd" clip-rule="evenodd" d="M220.94 13.9256C221.174 14.1693 221.74 14.0638 221.979 13.8972C222.146 14.0727 222.423 14.1251 222.575 14.321C221.604 14.7278 220.711 14.4421 219.455 14.5566C219.668 14.0405 220.526 14.2271 220.94 13.9256Z" fill="black"/>
<path fill-rule="evenodd" clip-rule="evenodd" d="M116.286 17.2346C116.111 17.6496 115.577 17.4241 115.122 17.4166C114.415 17.396 113.504 17.661 113.162 17.3203C113.653 17.1468 114.511 16.7831 115.049 17.1185C115.294 16.8917 116.193 16.817 116.286 17.2346Z" fill="black"/>
<path fill-rule="evenodd" clip-rule="evenodd" d="M199.449 14.6649C201.968 14.7259 203.172 14.4828 205.316 14.8042C204.956 15.2843 204.355 15.0106 203.819 14.9953C202.397 14.9543 200.905 15.0252 199.579 14.9615C199.654 14.7193 199.367 14.9073 199.441 14.6651L199.449 14.6649Z" fill="black"/>
<path fill-rule="evenodd" clip-rule="evenodd" d="M111.081 17.5273L110.302 17.5487C110.345 17.0673 110.936 17.2812 111.081 17.5273Z" fill="black"/>
<path fill-rule="evenodd" clip-rule="evenodd" d="M116.542 17.0779C116.931 17.0473 117.327 17.0064 117.394 17.3547C117.714 17.476 117.806 16.9933 118.041 17.2669C117.806 17.5735 116.9 17.4282 116.542 17.3781L116.533 17.0782L116.542 17.0779Z" fill="black"/>
<path fill-rule="evenodd" clip-rule="evenodd" d="M210.075 14.5138C210.78 15.0447 212.232 14.0945 212.623 14.7441C211.908 14.7436 210.978 15.4594 210.54 14.8712C210.362 15.1962 209.199 15.4481 209.038 14.9123C209.342 14.734 210.089 15.0336 210.067 14.514L210.075 14.5138Z" fill="black"/>
<path fill-rule="evenodd" clip-rule="evenodd" d="M126.715 17.3188L125.343 17.3564C125.662 17.1376 126.559 16.6628 126.715 17.3188Z" fill="black"/>
<path fill-rule="evenodd" clip-rule="evenodd" d="M134.018 17.4191C132.442 17.4122 131.048 17.5005 129.713 17.387C129.315 17.3579 128.664 17.6058 128.336 17.2047C129.008 16.8561 130.241 17.0824 130.673 16.8405C130.947 17.0631 131.68 17.4631 131.983 16.9546C132.559 17.229 133.622 16.9097 134.018 17.4191Z" fill="black"/>
<path fill-rule="evenodd" clip-rule="evenodd" d="M149.173 16.3332C149.392 16.3072 149.57 16.3123 149.632 16.4706C149.555 16.6328 149.131 16.5644 149.173 16.3332Z" fill="black"/>
<path fill-rule="evenodd" clip-rule="evenodd" d="M120.597 17.4866C120.458 17.4504 120.169 17.5883 120.14 17.4291C120.069 17.1809 120.616 17.306 120.597 17.4866Z" fill="black"/>
<path fill-rule="evenodd" clip-rule="evenodd" d="M188.128 15.4857C188.282 15.7816 188.126 16.0159 187.75 15.9362C187.717 15.617 187.843 15.4635 188.128 15.4857Z" fill="black"/>
<path fill-rule="evenodd" clip-rule="evenodd" d="M196.942 15.9142C196.678 16.0715 195.531 15.9829 195.112 15.8143C194.907 15.7399 194.953 15.9387 194.857 15.9714C194.395 15.704 193.189 15.8671 192.378 15.8893C191.842 15.904 191.154 15.9829 190.866 15.5606C190.981 15.5875 190.986 15.4973 190.992 15.4071C193.049 15.5008 195.058 15.6257 196.934 15.9145L196.942 15.9142Z" fill="black"/>
<path fill-rule="evenodd" clip-rule="evenodd" d="M216.138 14.7177L216.333 14.7123C216.302 15.0533 216.373 15.2815 216.546 15.3767C216.738 15.2814 217.199 14.8887 217.325 15.3554C217.269 15.6771 216.694 15.4427 216.42 15.5302C216.325 15.5929 216.288 15.724 216.301 15.9037C215.968 15.9128 215.618 15.8824 215.461 16.0767C214.463 15.814 212.783 15.85 211.753 16.1784C211.377 15.8185 210.506 16.0425 209.856 16.0103C209.701 15.9845 209.898 16.3493 209.667 16.2356C208.894 15.5765 207.767 16.5377 206.983 15.7889C207.636 15.0008 208.887 15.6067 209.973 15.5569C210.667 15.9681 211.872 14.9146 212.513 15.4873C213.019 15.5535 213.306 15.3855 213.686 15.3051C213.795 15.4322 214.053 15.3751 214.083 15.5943C214.518 15.4623 215.428 15.1673 215.775 15.3979C215.983 15.2621 216.248 15.1848 216.146 14.7175L216.138 14.7177Z" fill="black"/>
<path fill-rule="evenodd" clip-rule="evenodd" d="M222.001 14.707C222.148 14.733 222.24 14.8305 222.269 14.9998L222.009 15.0069L222.001 14.707Z" fill="black"/>
<path fill-rule="evenodd" clip-rule="evenodd" d="M108.356 17.9721C108.614 17.895 108.526 18.2276 108.815 18.1096C108.712 18.2124 108.685 18.4033 108.431 18.3402C108.459 18.1794 108.338 18.2027 108.232 18.1956C108.271 18.1145 108.376 18.1116 108.356 17.9721Z" fill="black"/>
<path fill-rule="evenodd" clip-rule="evenodd" d="M220.902 14.8871C220.853 15.1686 220.753 15.4014 220.596 15.5658C220.401 15.5711 220.394 15.3412 220.263 15.2748C220.03 15.3612 219.847 15.4963 219.488 15.4461C219.468 14.7263 220.603 15.2554 220.91 14.8869L220.902 14.8871Z" fill="black"/>
<path fill-rule="evenodd" clip-rule="evenodd" d="M218.692 15.1681C218.678 15.5386 218.47 15.6344 218.838 15.7543C218.704 15.888 218.104 15.9345 218.12 15.6239L218.445 15.615C218.535 15.3525 218.225 15.5811 218.244 15.4005C218.233 14.9906 218.433 15.1852 218.692 15.1681Z" fill="black"/>
<path fill-rule="evenodd" clip-rule="evenodd" d="M178.243 16.2765C178.521 16.649 179.546 16.1408 179.817 16.5335L178.186 16.5782C178.174 16.4485 178.263 16.416 178.243 16.2765Z" fill="black"/>
<path fill-rule="evenodd" clip-rule="evenodd" d="M186.146 16.6504C185.94 16.8361 185.374 16.6316 185.243 16.8953C185.236 16.6553 184.946 16.7433 185.034 16.3808C185.568 16.2961 185.817 16.2293 186.146 16.6504Z" fill="black"/>
<path fill-rule="evenodd" clip-rule="evenodd" d="M189.54 16.9273C188.911 16.8244 187.612 17.1302 186.99 16.627C187.155 16.1323 187.952 16.4806 188.085 16.2969C188.291 16.4113 188.505 16.5055 188.679 16.6507C188.966 16.7329 189.622 16.3848 189.531 16.9275L189.54 16.9273Z" fill="black"/>
<path fill-rule="evenodd" clip-rule="evenodd" d="M199.032 16.007L199.356 15.9981C199.46 16.2253 198.941 16.2396 199.032 16.007Z" fill="black"/>
<path fill-rule="evenodd" clip-rule="evenodd" d="M199.62 16.1407C200.532 15.9356 201.393 16.5322 202.095 16.0728C202.74 16.4853 203.686 16.0592 204.259 16.5337C202.443 16.6335 201.314 16.3243 199.62 16.1407Z" fill="black"/>
<path fill-rule="evenodd" clip-rule="evenodd" d="M226.918 15.7626L226.927 16.0625L226.602 16.0714C226.638 15.9003 226.707 15.7584 226.918 15.7626Z" fill="black"/>
<path fill-rule="evenodd" clip-rule="evenodd" d="M208.044 16.5703C208.312 16.5629 208.454 16.6891 208.76 16.6207C208.646 16.8839 208.364 16.9617 207.99 16.9419C207.961 16.7726 207.99 16.6618 208.044 16.5703Z" fill="black"/>
<path fill-rule="evenodd" clip-rule="evenodd" d="M209.929 16.5986C210.053 16.6753 210.232 16.6904 210.262 16.8896L209.937 16.8985L209.929 16.5986Z" fill="black"/>
<path fill-rule="evenodd" clip-rule="evenodd" d="M227.066 16.4189L227.085 17.0886C226.785 17.1169 226.737 16.8381 226.366 16.9583C226.498 16.7246 226.496 16.6646 226.352 16.4385C226.66 16.4 226.815 16.1457 227.066 16.4189Z" fill="black"/>
<path fill-rule="evenodd" clip-rule="evenodd" d="M215.609 16.7329L216.063 16.7205L216.067 16.8704L215.613 16.8829L215.609 16.7329Z" fill="black"/>
<path fill-rule="evenodd" clip-rule="evenodd" d="M224.173 17.8287C224.423 17.7618 224.461 17.9408 224.569 18.0379C224.602 18.3671 224.209 18.2279 224.191 18.4884C224.001 18.3436 224.203 18.0279 224.173 17.8187L224.173 17.8287Z" fill="black"/>
<path fill-rule="evenodd" clip-rule="evenodd" d="M165.357 7.44634C165.602 7.50964 165.698 7.74711 166.014 7.72843C166.02 7.93836 165.995 8.20914 166.095 8.31643C166.86 8.07538 167.786 8.39012 168.503 8.1804C168.639 8.08665 168.532 7.72946 168.684 7.65526C169.114 7.64347 169.183 8.08174 169.353 8.37718C169.719 8.08706 170.674 8.86118 171.244 8.32536C171.292 8.59414 172.045 8.50349 172.088 8.30223C172.417 8.46327 173.444 8.58518 173.652 8.18932C173.251 8.08027 172.755 8.05385 172.344 8.15516C172.278 7.82684 172.605 7.90791 172.589 7.62824C172.934 7.75884 173.16 7.73262 173.835 7.74415C173.851 8.05381 173.724 8.15733 173.853 8.4139C174.38 8.37945 175.554 8.24723 176.202 8.49956C176.352 8.34539 176.603 8.30851 176.912 8.33004C176.987 8.08791 176.699 8.27585 176.774 8.03372C176.518 8.18078 175.638 8.04486 175.141 8.00845C175.659 7.65412 176.746 7.91443 177.482 7.79423C177.393 8.08679 176.918 7.94974 176.979 8.39824C178.057 8.31868 178.898 8.48569 179.776 8.25153C180.574 8.89992 181.827 8.10529 183.034 8.31228C183.109 8.07014 182.822 8.25808 182.896 8.01595C182.579 8.27475 182.199 8.03508 181.854 7.89448C181.913 7.69277 182.266 7.53304 182.371 7.81027C183.339 7.86377 184.226 7.64937 185.172 7.80351C185.317 7.73952 185.185 7.383 185.221 7.21195C185.414 7.15663 185.783 7.28657 185.868 7.12418L185.864 6.97424C185.49 6.96447 184.975 7.13865 184.617 6.78835C184.515 6.92119 184.254 6.87833 184.235 7.09891C184.167 6.97074 184.052 6.91388 183.842 6.95965C183.753 6.98209 183.79 7.15113 183.785 7.26131C183.07 7.2509 182.383 7.35977 181.83 7.31492C181.724 7.0077 182.17 7.29558 182.148 7.0861C182 7.03013 181.971 6.84087 181.753 6.87686C181.664 6.8993 181.701 7.06835 181.696 7.17853C181.69 6.96861 181.338 7.14833 181.363 6.88754C182.774 6.51874 184.343 6.57577 185.917 6.54262C187.264 6.50569 188.99 6.66846 190.025 6.50004C190.534 7.00628 192.262 6.04858 192.386 7.02554C192.176 7.07131 192.061 7.01445 191.993 6.88627C191.52 7.40943 190.597 6.63442 190.171 7.08626C189.086 6.91592 187.865 6.77935 187.175 7.09836C187.442 7.37114 188.354 6.85597 188.425 7.36422C187.762 7.48242 186.69 7.18168 186.345 7.6413C188.693 7.97709 190.91 7.66624 192.883 8.27239C192.714 8.59716 191.906 8.44925 191.77 8.23289C191.342 8.31465 190.575 8.47573 190.329 8.12231C190.16 8.17697 190.042 8.29026 190.082 8.56927C190.234 8.77518 190.561 8.55614 190.664 8.48328C190.888 8.64721 191.297 9.06615 191.512 8.61009C192.094 9.11432 193.624 8.33212 194.257 8.90499C195.875 8.70057 197.42 9.36848 198.695 9.08344C199.458 9.63276 200.379 8.86723 201.18 9.38546C201.825 8.90761 203.51 9.65172 204.24 9.3016C206.169 9.4788 208.826 9.2459 211.208 9.04056C211.12 8.79288 210.717 8.91396 210.55 8.75847C209.244 9.0744 207.636 9.06846 206.446 8.94099C206.691 8.36409 208.031 8.96759 208.392 8.51753C208.734 8.84828 209.602 8.53437 210.157 8.6192C210.727 8.39349 211.621 8.70912 212.368 8.40854C212.705 7.35892 214.129 7.47993 215.135 7.15224C215.624 7.50898 216.091 7.05602 216.701 7.10931C216.762 7.55781 216.12 7.24528 216.064 7.56694C215.755 7.2453 215.44 7.62406 215.092 7.66361C215.103 8.04347 215.081 8.44421 215.248 8.61969C215.398 8.44553 215.706 8.43707 216.023 8.44839C216.114 8.21581 216.314 8.09029 216.463 7.91613C216.664 8.14071 216.994 8.01163 217.108 7.74839C217.175 7.7966 217.178 7.91655 217.307 7.893C217.362 8.12158 217.082 7.98919 217.188 8.26642C216.994 8.32174 216.625 8.1818 216.54 8.35419C216.847 8.89597 217.817 8.41923 217.628 7.73416C217.887 8.01715 218.244 7.71725 218.333 7.4147C218.159 7.26943 217.819 7.31875 217.739 7.06085C217.916 6.98598 218.352 7.19411 218.319 6.89489C218.528 6.79914 218.375 7.13347 218.583 7.03772C219.031 6.78535 219.497 6.91262 219.76 7.00547C220.822 6.64623 223.288 6.85873 224.833 6.64631C225.424 6.5701 226.103 6.47144 226.535 6.81974C225.89 7.27759 224.795 7.0275 224.194 7.03397C224.131 7.08573 224.134 7.20568 224.003 7.18925C224.027 7.43871 224.411 7.2581 224.277 7.70193C223.983 7.32986 223.749 7.97652 224.032 8.22886C224.284 8.24196 224.184 7.86454 224.411 7.84832C224.422 7.93806 224.535 7.90496 224.608 7.91296C224.714 8.24016 224.42 8.14821 224.492 8.43632C225.069 8.74063 225.635 7.46464 226.121 8.32164C225.944 8.67662 225.19 8.41719 224.955 8.72375C225.009 8.91235 225.102 9.04984 225.353 9.01296C225.292 9.18468 225.057 9.17114 225.105 9.45991C225.356 9.72314 225.556 9.3275 225.817 9.37037L225.832 9.89017C225.309 9.80444 225.189 10.1579 224.659 10.0724C224.91 10.3356 224.556 10.4453 224.349 10.6011C224.162 10.6062 224.148 10.3765 224.016 10.3101C223.772 10.5769 223.812 10.2657 223.432 10.3261C223.419 10.4465 223.5 10.4543 223.503 10.5442C223.616 10.8112 223.595 10.3716 223.76 10.4671C223.696 10.799 223.939 10.7624 223.969 10.9816C224.079 10.8385 224.507 11.0269 224.483 10.7475C224.537 10.936 224.811 10.8685 224.817 11.1084C225.027 10.7725 225.359 11.0035 225.72 10.8636C225.806 11.3414 225.65 11.5558 225.619 11.9068L224.97 11.9246C224.919 12.136 225.064 12.112 225.045 12.2926C225.42 12.3424 225.75 11.9532 226.014 12.116C226.099 12.5438 225.665 12.4157 225.574 12.6483C225.502 12.9904 226.012 12.6362 226.035 12.8557C226.084 13.1745 225.757 13.0834 225.655 13.2363C225.227 13.0179 224.187 12.9864 224.03 13.5009C224.056 13.2701 223.91 13.2441 223.951 12.9829C223.642 12.9613 223.383 12.9984 223.241 13.1524C223.199 13.3836 223.471 13.2361 223.381 13.5187C223.202 13.5036 222.905 13.6318 222.986 13.3094C222.849 13.3532 222.745 13.4261 222.801 13.6846C222.572 13.6209 222.524 13.3521 222.272 13.329C222.109 13.3135 222.547 13.5916 222.282 13.6989C221.946 13.3179 221.02 12.9932 220.446 13.3791C220.226 13.3451 220.06 13.2296 219.918 13.0934C219.781 13.1172 219.911 13.4237 219.799 13.4668C219.49 13.4753 219.277 13.3811 219.204 13.113C219.608 13.0219 219.735 12.6283 220.298 12.7129C220.393 12.6502 220.43 12.5192 220.417 12.3394C220.129 12.1773 219.573 12.3326 219.182 12.3033L219.168 11.7835C218.974 11.8388 218.873 11.9916 218.922 12.3104C218.574 12.35 218.265 12.3284 218.263 11.9583C217.785 11.9914 217.131 11.8393 217.239 12.5066C216.843 12.5975 216.81 12.2583 216.391 12.3798L216.401 12.7497C216.823 13.0282 217.536 12.9686 217.918 13.2983C215.97 13.3217 214.697 13.6867 212.455 13.6681C212.284 13.6528 212.523 14.0764 212.269 13.9733C212.076 14.0487 212.151 13.8165 212.131 13.677C211.468 13.4951 210.628 14.2584 210.043 13.6642C209.536 13.8182 208.828 13.7476 208.22 13.7842C208.319 13.5514 208.535 13.4554 208.66 13.252C208.831 13.2773 208.845 13.487 209.118 13.3895C209.465 13.0198 210.432 13.3134 210.603 12.7585C209.769 12.5313 209.085 13.0602 208.447 12.5976C208.22 12.6038 208.285 12.9021 208.066 12.9081C207.896 12.9328 207.891 12.7628 207.863 12.6136C206.558 12.7094 205.595 12.5557 204.479 12.7063L204.493 13.2261C204.693 12.8205 205.006 13.2721 205.53 13.1277L205.54 13.4975C206.027 13.4942 206.326 13.7261 206.916 13.6099C206.462 13.9624 205.44 13.7004 204.769 13.8188L204.761 13.5189C204.402 13.4487 204.319 13.6711 204.185 13.8348C203.712 13.7677 203.083 13.3248 202.615 13.7278C201.801 13.3799 201.2 13.6565 200.327 13.4904C199.878 13.4027 199.335 13.1674 198.945 13.1581C198.856 13.1606 198.795 13.3223 198.69 13.3152C198.193 13.2588 197.563 12.7859 197.055 13.2099C195.716 13.2466 194.134 13.0099 192.801 12.6563C192.596 12.6019 192.726 12.9084 192.48 12.8151C192.141 12.5744 191.608 12.709 191.447 13.0635C191.205 13.1202 191.168 12.9411 190.926 13.0078C190.997 12.6157 190.666 12.7048 190.65 12.4251C190.807 12.5209 190.948 12.627 191.239 12.5591C191.117 11.362 189.702 12.191 188.999 11.7301C188.753 11.6268 188.883 11.9334 188.679 11.889C187.946 11.5289 187.145 11.931 186.394 11.8015C186.158 11.758 186.022 11.5516 185.867 11.5159C185.157 11.3753 184.036 11.9562 182.942 11.7461C182.753 11.6713 182.603 11.5453 182.414 11.4605C180.92 11.7415 178.418 11.7301 177.01 11.6086C175.92 11.5184 174.749 11.7706 173.884 11.6243C173.378 11.5381 172.037 11.7949 170.957 11.7745C170.6 11.7743 170.266 11.4533 169.916 11.733C169.01 11.5378 168.1 11.8328 167.245 11.7362C167.408 12.0519 168.113 11.7124 168.166 12.1511C168.654 11.8877 168.86 12.2922 169.338 11.9689C169.524 11.9538 169.475 12.2153 169.732 12.1082C169.631 12.291 169.422 12.3568 169.421 12.6369C168.847 12.4326 168.067 12.6941 167.271 12.6959C167.223 12.4071 167.458 12.4206 167.519 12.2489C167.378 12.1627 167.183 12.1481 167.058 12.0414L167.044 11.5216C166.586 11.7043 166.309 11.3717 165.88 11.7036C165.302 11.3493 164.004 11.4049 163.66 11.6144C162.398 11.1988 160.5 11.8711 159.54 11.2071C159.445 11.2898 159.384 11.4215 159.289 11.5141C158.205 11.0837 156.131 11.8408 155.236 11.1851C154.834 11.6163 154.24 11.2924 153.684 11.7478C153.605 11.5199 153.785 11.565 153.806 11.4444C153.763 11.3655 153.657 11.3684 153.67 11.228C152.329 11.4748 150.076 11.6566 148.911 11.2084C148.865 11.3297 148.711 11.3239 148.724 11.5136C148.176 11.0685 147.298 11.9229 146.89 11.2638C146.197 12.0431 145.397 11.2847 144.691 11.9143C144.699 12.1842 145.02 12.0753 145.091 12.2735C145.325 12.237 145.393 12.0251 145.736 12.1057C145.984 13.1593 144.759 12.3226 144.253 12.8166C144.069 12.6116 143.633 12.6936 143.275 12.6934C143.205 12.4952 143.138 12.1269 143.322 12.0219C143.629 11.9834 143.622 12.3237 143.788 12.4492L144.048 12.4421C144.281 12.3557 144.129 11.8597 144.555 11.988C144.222 11.6971 143.705 11.7713 143.182 11.9557L143.17 11.5158C143.958 11.2441 145.085 11.4633 145.568 11.0099C145.525 10.9311 145.42 10.934 145.432 10.7936C145.247 10.8587 145.045 10.9042 144.986 11.1059C144.736 10.8827 143.916 10.9051 143.679 11.1417C143.59 10.8341 143.776 10.809 143.795 10.6184C144.587 10.7867 144.957 10.6665 145.617 10.4184C145.705 10.3959 145.668 10.2269 145.673 10.1167C146.471 10.7951 147.708 10.0009 148.866 10.1792C148.886 10.0186 148.82 9.98042 148.793 9.88113C147.821 9.97779 146.426 9.74593 145.537 9.90035C145.517 9.46073 144.741 9.57205 144.56 9.77709C143.321 9.34086 142.476 10.5045 141.125 10.3914C140.945 10.3463 141.183 10.74 141.004 10.6949C140.746 10.772 140.834 10.4394 140.545 10.5574C140.4 10.5914 140.531 10.9179 140.494 11.079C140.185 11.0574 140.094 11.27 140.052 11.5313C140.131 11.7492 140.634 11.4453 140.705 11.6634C140.712 12.1934 139.664 11.5919 139.813 12.2781C139.837 12.5875 140.161 12.5287 140.279 12.7055C140.384 12.9827 140.104 12.8503 140.159 13.0789C139.657 12.8326 138.871 13.4644 138.52 12.8237C138.751 12.6373 139.215 12.7046 139.086 12.138C139.313 12.1317 139.257 12.4334 139.484 12.4272C139.547 12.3754 139.544 12.2555 139.674 12.2719C139.331 11.601 138.336 12.3186 137.453 12.1127C137.597 11.7186 138.552 12.1926 138.62 11.7106C137.935 11.3292 137.403 11.7639 136.406 11.8413C136.53 11.3277 137.399 11.614 137.423 11.0031C137.744 11.1544 138.135 11.2237 138.535 11.2727C138.586 11.0613 138.695 10.9182 138.847 10.824C138.738 10.707 138.621 10.5801 138.512 10.4631C138.36 10.5173 138.533 10.9227 138.397 10.9864C137.775 10.8134 137.368 10.7745 136.766 11.0311C136.838 10.719 136.651 10.7041 136.622 10.5149C134.836 11.134 132.494 11.0182 130.51 11.2026C130.589 11.4105 130.722 11.5569 130.849 11.7135C131.148 11.6853 131.574 11.5036 131.697 11.8403C131.984 11.3623 133.133 11.801 133.512 11.4204C134.285 11.7694 134.941 11.1012 135.861 11.5061C134.38 11.6867 132.784 12.7209 131.25 12.1527C131.133 12.6061 130.515 12.2729 130.151 12.3329C129.982 12.9777 130.883 12.9531 131.07 12.6778C132.049 13.1512 133.02 12.1442 133.429 13.1333C132.581 13.5868 130.837 13.0743 129.989 13.5278C129.759 13.454 129.616 13.2579 129.646 12.8669C129.818 12.9122 129.958 12.9984 130.106 13.0744C130.057 12.7756 129.899 12.6099 129.638 12.567C129.548 12.2594 129.91 12.4295 129.954 12.2582C129.918 11.8391 129.529 11.8497 129.226 11.758C129.505 11.5803 130.01 11.6465 130.122 11.2933C129.534 11.1693 128.789 11.2298 128.293 11.1934C128.325 10.8924 128.859 11.1378 128.867 10.8075C128.496 10.6076 127.966 10.8322 127.97 11.2722C127.658 11.1507 127.141 11.2449 127.002 11.5188C127.086 11.8967 127.767 11.5779 127.858 11.9355C126.623 11.9094 126.23 11.8001 125.318 12.0052C125.194 11.8985 124.99 11.8841 124.858 11.7977C124.954 11.4649 125.579 11.7179 125.893 11.6193C125.765 11.1326 124.892 11.2566 124.582 11.5052C124.364 11.261 124.035 11.4001 123.803 11.5265C123.773 11.3372 123.586 11.3224 123.659 11.0103C123.545 10.9934 123.336 11.0891 123.395 10.8674C123.332 10.9192 123.335 11.0392 123.205 11.0227C123.165 11.3739 123.433 11.3666 123.418 11.6871C123.865 11.7149 124.469 11.5483 124.728 11.8013C124.667 11.923 124.429 11.8595 124.41 12.0301C124.245 11.9645 124.168 11.8166 123.886 11.8944C123.68 12.0801 123.549 12.3438 123.452 12.6465C123.622 12.922 123.691 12.4799 123.905 12.5641C124.094 12.669 124.284 12.7738 124.308 13.0732C123.913 12.884 123.078 13.227 122.801 12.8945C122.651 13.0486 122.4 13.0855 122.091 13.064C122.158 12.8521 122.435 12.8545 122.469 12.6135C122.839 12.7934 122.904 12.5115 123.375 12.5186C123.443 12.3067 123.438 12.1267 123.359 11.9288C123.172 11.9239 123.236 12.1823 122.974 12.0894C123.11 11.7156 123.016 11.8482 122.956 11.4197L121.714 11.4537C121.674 11.7649 121.759 11.9127 121.923 11.9682C121.559 12.3183 120.994 12.7339 120.434 12.4492C120.385 12.7406 120.666 12.6329 120.578 12.9654C120.799 13.0094 120.676 12.6926 120.83 12.6584C121.16 12.8794 121.868 12.6299 121.822 13.3015C121.612 13.3472 121.496 13.2904 121.428 13.1622C121.429 13.4823 120.807 13.6194 120.653 13.3335C120.209 13.4357 119.501 13.6652 118.892 13.3818C118.646 13.2785 118.776 13.585 118.572 13.5406C117.653 13.4958 115.562 13.353 114.464 13.5832C114.462 13.5132 114.381 13.5254 114.332 13.5168C114.436 13.1538 114.549 13.1107 114.438 12.6235C112.616 12.5334 110.791 12.3133 109.094 12.62C109.505 13.359 110.734 12.595 111.644 12.9202L111.656 13.36C110.392 13.4347 109.422 13.6113 108.405 13.5192C108.316 13.8317 108.769 13.4892 108.672 13.812L108.088 13.828C108.051 13.6689 108.207 13.7147 108.212 13.6045C107.309 13.2391 106.341 13.4757 105.548 13.8976C105.443 13.6204 105.84 13.8796 105.735 13.5924C105.682 13.4238 105.369 13.5724 105.214 13.5366C105.034 13.5115 105.273 13.9351 105.094 13.9101C104.868 13.9763 104.785 13.8785 104.826 13.6173C104.059 13.4882 103.327 13.7484 102.796 13.3028C102.795 13.5629 102.308 13.3062 102.416 13.6833C102.031 13.2637 101.418 13.9908 101.165 13.3475C100.869 13.2156 101.058 13.6205 100.913 13.6545C100.279 13.3418 99.5814 13.9511 98.9535 13.5582C98.622 13.9074 97.8316 13.809 97.3266 13.7528C97.2361 13.4152 97.7648 13.7408 97.775 13.5205C97.4239 13.4501 96.4044 13.2879 96.3448 13.7797C96.2452 13.7024 96.1767 13.5743 96.0769 13.487C94.7658 13.9431 92.6015 13.4922 91.4559 13.7637C90.6168 13.6667 89.3265 13.4019 88.5874 13.6923C88.0252 13.3275 86.7082 13.8638 86.2322 13.3867C85.2686 13.7832 82.9719 13.5361 81.7369 13.5099C81.5665 13.5146 81.4005 13.6792 81.2217 13.6741C78.4668 13.5996 75.1984 13.7492 72.6247 14.0598C73.1521 14.0454 73.7398 14.7495 74.2617 14.235C74.6412 14.4547 75.7204 14.4251 76.0874 14.185C76.2967 14.1192 76.3325 14.2383 76.4161 14.326C76.4671 14.1145 76.7611 14.1765 76.9962 14.1601C78.0616 14.8111 80.0865 14.3255 81.6315 14.4031C81.9743 14.7639 82.2535 14.2861 82.735 14.3729C82.89 14.3987 82.6932 14.0339 82.9237 14.1476C83.0325 14.2647 83.1497 14.3915 83.2584 14.5086C83.5477 14.1005 83.9626 14.7194 84.228 14.332C86.286 14.7557 89.012 14.3709 91.5349 14.5718C91.63 14.4892 91.6914 14.3575 91.7863 14.2648C92.5095 14.8752 94.1995 14.3187 95.1193 14.6937C95.3657 14.797 95.2355 14.4904 95.4397 14.5348C96.8197 14.517 98.8003 14.7828 100.004 14.5598C101.35 14.763 103.557 14.7125 104.889 14.4259C105.129 14.3092 105.016 14.6225 105.218 14.5669C106 14.0653 107.011 15.118 107.887 14.4937C108.126 14.6072 108.47 14.7279 108.666 14.4724C108.576 14.735 108.886 14.5064 108.867 14.687C110.016 14.5454 111.375 14.6482 112.908 14.5762C113.418 14.8323 114.217 14.3402 114.742 14.826C114.785 14.6148 115.145 14.7349 115.188 14.5137C115.654 14.641 116.141 14.6076 116.628 14.6243C116.766 14.6205 116.819 14.459 116.949 14.4654C117.022 14.4634 117.196 14.6087 117.277 14.6065C117.845 14.5909 119.075 14.4171 120.016 14.6815C121.124 14.521 123.075 14.6076 124.323 14.7835C123.536 15.1152 122.03 14.9964 121.262 14.7974C118.844 14.8737 116.149 15.2176 113.577 15.008C109.24 14.6567 104.969 15.264 100.802 14.9181C100.29 15.2322 99.5306 14.7628 99.1747 15.1127C96.617 14.8227 93.2743 15.2244 90.8312 14.9713C90.6846 14.9553 90.7382 15.1339 90.6406 15.1266C89.907 15.0266 88.6219 14.9518 87.906 15.2015C86.5148 14.8095 84.6124 15.0217 82.8832 15.0391C82.5661 14.7277 82.1121 15.0502 81.7816 15.1393C81.7449 15.5805 82.289 15.2855 82.3677 15.1933C82.4279 15.6118 83.3211 15.0171 83.2867 15.5382C82.4319 15.4616 81.2711 15.7735 80.8748 15.5343C80.8663 15.2244 81.376 15.4505 81.5847 15.3648C81.5379 15.136 81.3418 15.0913 81.2481 14.9338C80.2274 15.0219 78.5853 14.9568 77.2721 15.0428C77.6196 15.5735 78.1241 15.0195 78.5867 15.3069C78.2353 15.8167 77.1794 15.2154 77.1727 16.156C76.9254 16.0227 76.9296 15.5824 76.5723 15.5822C76.4055 15.7168 76.3639 15.9781 76.2639 16.1809C75.9945 16.1283 75.9342 16.3 75.6816 16.2669C75.6325 15.9581 75.8843 15.9612 75.9941 15.8181C75.9629 15.5689 75.5842 15.3792 75.9108 15.1502C74.8277 14.7397 72.8799 15.3733 71.7968 14.9628C70.4781 15.4392 68.0942 14.9743 66.981 15.2449C66.5973 14.8753 66.2296 15.3855 65.8166 15.4269C66.9369 16.0064 68.7318 15.1269 69.736 15.6196C69.0139 15.9395 68.1316 16.0437 67.2652 15.8373C67.1373 15.9109 67.0094 15.9844 66.8817 16.0679C67.9342 16.2492 69.0649 16.3182 70.0077 16.0523C70.0586 16.431 70.8009 15.9605 70.8598 16.329C70.9828 16.0756 71.7312 16.1251 71.9614 16.2288C72.0491 16.4665 71.7521 16.2946 71.8398 16.5323C70.8437 16.6296 69.7186 16.1702 68.8456 16.6143C68.175 16.4426 67.2022 16.7994 66.6811 16.1535C66.5017 16.1284 66.7407 16.552 66.5614 16.5269C66.3748 16.532 66.2506 16.4454 66.2916 16.1641C65.9841 16.2026 65.7317 16.1795 65.6991 15.8803C64.74 15.8465 63.8374 15.8013 63.0295 15.9534C62.8835 15.9575 63.0137 16.264 62.9767 16.3951C62.7641 16.3409 62.7349 16.4617 62.6562 16.5539C62.1342 16.4682 62.2329 16.5155 61.6825 16.5806C62.6737 16.8936 63.7158 16.995 64.6827 16.7184C64.8775 16.7131 64.8838 16.943 65.0155 17.0094C65.3262 16.7908 65.6354 16.8124 65.9851 16.8328C67.8555 16.9316 70.2776 16.7151 72.2473 16.8812C72.9064 16.9332 73.7117 16.9811 74.1461 17.1293C74.3068 17.0649 74.7098 17.2539 74.6613 16.9651C74.9868 17.2863 75.4159 16.9444 75.6958 16.7867C75.9904 16.8686 76.6948 17.0894 76.9292 16.7529C77.2324 16.8546 77.6945 17.122 77.907 16.8761C78.1514 17.1996 79.1541 17.3421 79.3433 16.8368C79.9292 17.1808 80.3644 17.0589 81.3719 17.0813C81.4275 17.3298 81.1066 17.1786 81.1873 17.4565C80.2358 17.4025 78.9933 17.6967 78.254 17.3868C77.9916 17.294 78.1307 17.6303 77.8686 17.5474C75.7057 17.1466 73.6523 18.0732 71.2271 17.8795C71.0509 17.6743 70.5479 17.6881 70.3832 17.9027C69.1647 17.8861 66.8109 17.6305 65.8838 17.876C65.6798 17.8415 65.6175 17.6432 65.4842 17.5168C65.4401 17.688 65.2118 17.6543 65.1007 17.7474C61.1057 17.7568 57.3383 18.0702 53.3046 17.8506C52.0526 18.095 50.097 17.8485 48.4765 17.6829C46.2219 18.0848 43.6814 17.5342 41.1776 17.7329C41.1031 17.975 41.3902 17.7871 41.3157 18.0292C41.7111 17.9383 41.5001 17.9441 41.8999 18.0132C41.4966 18.7045 40.3655 18.0253 39.6847 18.0739C39.5864 17.7465 40.0742 18.0632 40.0682 17.8433C38.9921 17.6928 37.4647 17.6646 36.4917 18.0114C35.3715 17.732 33.8566 17.8635 32.7693 17.8933C32.3186 17.7456 31.4366 17.8599 31.0145 18.1615C30.259 17.8521 29.1105 17.7235 28.5336 18.0095C28.245 17.8473 27.3572 17.7516 27.0974 18.0488C25.3608 18.3865 23.9864 17.4238 22.667 18.1703C21.3827 18.1254 19.7413 17.7903 18.2284 17.9918C17.5115 17.6113 16.0629 18.0912 15.4796 17.547C15.26 17.533 15.0817 17.5479 15.0293 17.7094C14.1336 17.3238 12.9998 17.4349 11.8869 17.1253C11.6987 17.0704 11.4903 16.876 11.2945 16.8414C10.5276 16.7124 9.7815 17.0429 9.07326 16.6822C8.86876 16.6278 8.99924 16.9443 8.7528 16.841C8.70175 17.0525 8.84726 17.0285 8.82785 17.2091C8.66902 17.0434 8.40015 17.0108 8.3592 16.7018C7.82064 16.6065 6.87329 17.0026 6.72001 16.4466C6.65646 16.4984 6.65975 16.6183 6.52937 16.6019C5.32369 16.1647 4.88185 15.7467 3.56778 15.5026C3.57233 15.3724 3.48225 15.3449 3.49464 15.2045C2.65849 14.9173 1.42868 15.0811 0.804763 14.538C0.748405 14.2594 1.11064 14.4395 1.25505 14.3756C1.3277 14.0635 1.1408 14.0586 1.11098 13.8593C0.866557 14.1261 0.452728 14.1375 0.202175 13.8842C0.0623756 13.2278 0.382837 13.069 0.360474 12.5494C0.563058 12.5338 0.531042 12.2546 0.808847 12.317C0.903646 11.9243 0.668331 11.9307 0.597937 11.7326C0.715055 10.9691 1.29243 10.7032 1.46016 10.0083C1.81099 10.0687 1.82738 9.77815 2.10327 9.77059C2.19681 9.62797 2.35745 9.56355 2.35087 9.32364C3.61348 8.57876 5.00136 7.9605 6.20524 7.1472C6.49434 7.02924 6.41413 7.36156 6.66375 7.28469C6.75246 7.26225 6.71562 7.1032 6.72045 6.98302C7.93738 6.34944 9.91189 6.39535 11.1265 5.97191C12.867 6.66448 14.9981 6.79613 17.2202 6.98532C18.5797 7.10811 20.0056 6.989 21.332 7.09269C22.0645 7.15264 22.8035 7.15239 23.4295 7.47536C26.8636 7.15114 31.4236 7.90647 35.2256 7.37209C36.0566 7.76947 37.7212 7.17363 38.5525 7.58101C39.9354 7.37303 40.9489 7.31524 42.4636 7.4738C43.4476 7.22674 44.5027 7.20782 45.5186 7.24C46.2094 7.26108 46.9235 7.2415 47.6081 7.33278C48.9689 7.50555 50.4094 7.32601 51.7849 7.43837C52.3058 7.48411 52.7987 7.69068 53.2942 7.69711C53.3997 7.69422 53.4359 7.53316 53.5498 7.54005C56.4142 7.76164 59.6614 8.02276 62.6196 7.81162C63.7178 7.88156 65.8849 8.14227 67.1231 7.98829C68.4175 8.40297 70.3607 7.89954 72.2717 7.99721C72.3171 7.87592 72.4715 7.88169 72.4582 7.69199L73.5618 7.66174C74.5482 8.39498 76.0959 7.6823 77.2235 8.23161C77.4699 8.3349 77.3397 8.02835 77.5439 8.07277C77.6811 8.33911 78.6218 8.29332 78.5784 7.89436C78.8631 8.20668 79.1789 7.8779 79.3514 7.65309C79.5318 7.71817 79.5392 7.98807 79.8767 7.85877C79.9664 7.57621 79.6944 7.72372 79.7367 7.49247C80.1078 7.40227 80.2588 7.5782 80.3941 7.77456C80.4828 7.75212 80.446 7.59307 80.4508 7.4729C81.5275 7.35335 82.3526 7.53081 83.3193 7.54432C83.3902 7.76246 83.1768 7.67828 83.0637 7.70138C83.3667 7.79312 83.5991 7.97682 84.0435 7.89461C84.2019 7.75021 83.9535 7.57695 84.0941 7.37303C85.0736 7.55626 86.1711 7.30609 87.2283 7.65725C86.5922 7.85476 85.8561 7.66485 84.8183 7.72331C84.7373 8.02565 84.9626 7.94945 84.9602 8.15959C86.5571 8.05579 88.2886 8.41849 89.5224 8.10456C89.7801 8.02747 89.6918 8.36001 89.9809 8.24205C90.1359 8.26781 89.9391 7.90306 90.1696 8.01679C90.1625 7.75689 89.8966 7.8342 89.8979 7.58407C90.6877 7.66246 91.7995 7.34188 92.3768 7.66618C92.0022 8.21665 91.0119 7.34346 90.8839 8.00721C90.6405 8.01389 90.7118 7.6518 90.4213 7.71978C90.2144 7.87551 90.4804 8.09831 90.5005 8.23781C91.615 8.01718 92.7569 8.49608 93.5596 8.15395C93.9285 8.28389 94.7278 8.41204 94.935 8.26631C96.1903 8.44197 98.6108 8.16555 99.6982 8.43585C100.009 8.21726 100.613 8.32075 100.79 7.96577C100.611 7.68055 99.7299 7.81475 99.5482 7.9998C99.2873 7.66682 98.5079 7.96829 98.0429 7.891C97.6966 8.29064 96.8888 7.85261 96.2153 7.87108C95.7771 7.88309 95.3371 8.12523 95.1178 8.12124C95.0529 8.12302 94.3692 7.77162 94.1339 7.77807C93.9879 7.78208 93.6959 8.09019 93.4889 7.94581C93.4842 7.77588 93.3693 7.72901 93.4119 7.50776C96.2331 7.6305 99.9465 7.71878 102.476 7.55942C102.673 7.64404 103.174 7.85039 103.32 7.53628C106.172 7.91826 110.759 7.27234 113.679 7.47238C113.867 7.48726 114.324 7.29465 114.337 7.75448C113.3 7.83293 112.699 7.54928 111.931 7.97048C110.012 7.57292 106.983 7.86603 105.147 7.85632C105.084 7.92807 105.022 8.00982 104.959 8.08158C105.799 8.53871 107.072 8.1437 108.154 8.21408C109.097 8.27824 110.363 8.24355 111.089 8.3537C111.302 8.43788 111.131 8.11246 111.344 8.19664C111.539 8.1913 111.545 8.42122 111.677 8.48763C112.497 8.18505 112.982 8.68196 113.688 8.06238C113.819 8.1288 113.841 8.32828 113.957 8.42513C114.388 8.15322 114.971 8.67744 115.255 8.08943C115.401 8.36554 116.366 8.61919 116.432 8.05718C116.738 7.96876 116.691 8.31019 117.02 8.19111C117.03 7.64065 116.583 7.65288 116.097 7.69621C116.204 7.14308 117.101 7.85878 117.46 7.35874C118.134 7.64039 119.895 7.312 120.593 7.57299C120.105 7.83646 119.497 7.89313 118.966 7.76764C118.903 7.8394 118.84 7.92114 118.777 7.9929C118.703 8.23503 118.99 8.04709 118.915 8.28923C119.218 8.07085 119.931 8.02129 120.088 8.40714C120.224 8.33338 120.218 8.11347 120.404 8.09836C120.622 8.04237 120.517 8.36536 120.672 8.39113C121.22 7.93594 122.042 7.99345 122.682 7.96588C122.274 7.30681 121.452 8.11964 121.108 7.70892C121.425 7.42013 122.426 7.20262 122.865 7.51071C123.922 6.97154 125.703 7.653 126.642 7.25712C127.466 7.6947 128.36 7.12 129.255 7.48561C129.575 7.32676 130.689 7.06616 130.825 7.59262C129.473 7.74972 127.763 7.55652 126.204 7.86935C127.503 8.17385 128.348 8.18071 129.658 7.99473L129.679 8.73446C130.008 8.89549 130.641 9.17826 130.989 8.84859C130.892 8.55115 130.48 8.64246 130.139 8.6518C130.045 8.48431 129.952 8.31682 129.991 7.98561C130.597 7.86897 130.818 8.21305 131.431 8.09619L131.423 7.7963C131.479 7.45465 131 7.74789 131.024 7.43712C132.002 7.28025 133.712 7.14335 135.065 7.32635C135.591 6.9718 136.674 7.38227 137.401 6.96218C138.129 7.14231 138.459 7.03323 139.032 6.91747C140.37 7.1209 142.515 6.60191 144.114 6.84821C144.172 7.19674 143.754 7.03815 143.67 7.23052C143.326 6.84979 142.773 7.41515 142.562 7.11083C142.457 7.14371 142.511 7.3423 142.306 7.26789C142.349 7.34675 142.455 7.34386 142.442 7.48425C142.144 7.55246 141.85 7.7906 141.598 7.50738C141.526 7.23926 141.855 7.4003 141.984 7.34676C141.545 7.03867 140.166 7.37659 139.119 7.42528C138.973 7.42928 139.103 7.73583 139.066 7.86689L138.482 7.88291C138.525 7.96176 138.631 7.95887 138.618 8.09927C138.908 8.00129 139.599 7.74225 139.852 8.06546C140.104 8.07855 140.004 7.70114 140.231 7.68492C140.118 8.02813 140.493 7.77776 140.436 8.04944C140.767 7.98035 140.88 7.66713 141.136 7.51006C140.766 7.97035 141.598 7.7875 141.673 8.16558C142 7.94654 142.867 7.86276 143.049 8.27793C142.577 8.26084 142.557 8.11134 142.207 8.37104C142.642 8.54918 143.164 8.34479 143.517 8.48517C143.778 8.52803 143.596 8.09287 143.832 8.10641C144.107 8.08885 143.885 8.27501 143.838 8.32633C144.318 8.6633 145.384 8.17389 145.672 8.57617C145.815 8.4822 146.013 8.29671 146.126 8.56371C146.213 8.49129 146.668 8.20872 146.71 8.5477C147.114 8.4666 147.86 8.13604 148.276 8.50477C148.553 8.22709 149.23 8.32858 149.579 8.31902C149.666 8.2466 149.653 8.06689 149.765 8.01379C149.743 7.78432 149.233 8.14843 149.305 7.80633C151.136 7.36599 153.717 7.63535 155.814 7.4078C155.96 7.4038 155.83 7.09725 155.867 6.96619C156.107 6.80957 156.258 7.0055 156.581 6.94662C156.523 7.1983 156.206 7.16699 156.072 7.33071C156.827 7.60014 158.175 7.33308 158.888 7.84375C157.892 7.97108 157.533 7.90089 156.478 7.90981C156.375 8.29279 156.656 8.20503 156.687 8.42428C157.562 8.06016 158.526 8.55395 159.612 8.19404C159.594 8.42462 159.851 8.31754 159.88 8.48681C161.666 8.16776 163.598 8.44492 165.74 8.39619C165.8 7.91437 165.451 7.92394 165.331 7.66715C165.253 7.81932 165.244 8.04967 165.15 8.19229C164.754 8.25317 164.562 8.08835 164.363 7.91376C164.74 7.76336 165.169 7.9817 165.326 7.5172L165.357 7.44634ZM80.954 7.75921C80.9429 7.64948 80.7979 7.69347 80.6924 7.69636C80.5619 7.97004 81.0342 8.01711 80.954 7.75921ZM82.3374 8.16146C82.3521 7.81092 82.1863 7.68542 81.8709 7.73408C81.8562 8.08462 82.022 8.21012 82.3374 8.16146ZM101.441 8.30806C101.894 8.26562 102.515 8.40865 102.601 7.97614C102.309 7.40392 101.844 7.90686 101.351 7.71029C101.325 7.96108 101.387 8.11947 101.432 8.29829L101.441 8.30806ZM102.942 8.26691C103.35 8.33576 103.396 7.95435 103.656 8.24734C103.568 8.00965 103.865 8.18158 103.777 7.94389C103.696 7.94612 103.623 7.92813 103.643 7.79751C103.464 8.08252 102.677 7.51387 102.941 8.25692L102.942 8.26691ZM117.667 8.08335L118.121 8.07089L118.111 7.70103C117.871 7.81766 117.984 7.50444 117.783 7.55998C117.764 7.75058 117.577 7.77569 117.667 8.08335ZM82.4956 8.8974C82.6535 9.62334 83.4398 8.68145 83.7372 9.16348C83.6495 8.92579 83.9465 9.09772 83.8588 8.86003C83.3338 8.96446 82.8964 8.70635 82.4875 8.89762L82.4956 8.8974ZM117.476 8.23863C117.583 8.26573 117.571 7.83589 117.466 7.86877C117.377 7.87121 117.21 8.28595 117.476 8.23863ZM123.134 7.86346C123.433 8.08536 123.823 7.79457 124.039 7.6886C123.765 7.77614 123.182 7.54202 123.134 7.86346ZM131.595 7.56149C131.517 7.96379 131.73 8.00799 131.809 8.2259C132.712 8.00107 133.632 7.78578 134.46 7.48298C133.429 7.49123 132.641 7.50281 131.595 7.56149ZM135.048 7.61691C135.483 7.49494 135.604 7.76172 135.961 7.74194C135.873 7.50425 136.17 7.67618 136.083 7.43849C135.821 7.36564 135.212 7.36233 135.048 7.61691ZM138.296 7.3078C137.792 7.2916 136.888 7.20633 136.671 7.57242C137.046 7.61217 137.577 7.44755 137.841 7.61037C137.897 7.85894 137.743 7.88316 137.59 7.91737C137.543 7.38846 136.915 8.18596 136.675 7.72236C136.553 7.99582 136.112 7.92786 135.772 7.96719L135.781 8.26708C136.216 8.1651 136.546 8.05602 136.689 8.24217C137.005 7.91339 137.932 8.23813 138.18 7.83116C137.955 7.89736 137.871 7.79963 137.913 7.53839C138.353 7.60635 138.576 7.17006 138.886 7.5117C138.949 7.14983 138.483 7.31268 138.296 7.3078ZM84.768 9.14523C84.6621 8.83801 85.1337 9.15521 85.0194 8.83822L84.6948 8.84712C84.706 8.95685 84.6779 9.11768 84.768 9.14523ZM85.6078 8.97215L85.6119 9.12209C86.9004 9.02675 88.1385 9.46299 89.523 9.01488C88.3301 8.74747 86.5273 8.74687 85.6078 8.97215ZM91.6043 9.10789C92.3103 9.08854 92.5889 9.18094 93.367 9.12959C93.3767 8.88924 93.2528 8.81261 93.0972 8.76685C92.5947 9.39086 91.6656 8.08582 91.6043 9.10789ZM90.3628 9.14192L91.4015 9.11345C91.2542 8.77736 90.7925 8.82002 90.3546 8.84203L90.3628 9.14192ZM96.4911 9.04396C96.8606 9.19389 97.3793 9.15966 97.4628 8.9473C97.1685 8.87533 96.6343 8.63988 96.4911 9.04396ZM97.8665 9.15631C98.4902 9.0992 99.0587 9.10362 99.3758 9.41505C99.5595 9.29998 99.7431 9.1849 99.7511 8.88457C99.0117 9.16494 98.0634 8.34061 97.8665 9.15631ZM102.293 8.88493C102.29 9.09507 102.516 9.01887 102.435 9.3212C102.67 9.31475 102.779 9.16169 102.747 8.87247C102.48 8.8998 102.493 8.7794 102.293 8.88493ZM108.882 9.00442C109.006 9.08106 109.185 9.09616 109.214 9.29541C109.393 8.98042 110.182 9.32892 110.176 8.82889C109.688 8.80225 109.176 8.48616 108.874 9.01464L108.882 9.00442ZM111.547 8.7813C111.719 9.43683 113.143 9.24774 113.641 9.02403C114.474 9.22126 115.688 9.34805 116.44 8.94729C117.492 9.10852 118.764 9.01363 119.769 9.22618C120.021 8.93917 120.444 9.2477 120.747 9.34943C120.883 9.27568 120.877 9.05576 121.063 9.04065C121.611 9.48579 122.577 8.56899 123.023 9.13699C123.314 9.10899 123.523 9.01324 123.463 8.60472C122.715 8.5852 121.803 8.76028 121.244 8.5155C121.149 8.59814 121.087 8.72987 120.992 8.82251C120.862 8.52596 120.221 8.83364 120.075 8.54753C118.443 8.82238 115.721 8.48682 113.499 8.87786C112.891 8.64442 112.121 8.67554 111.539 8.78153L111.547 8.7813ZM131.22 8.39208L131.48 8.38497C131.451 8.22569 131.359 8.12818 131.212 8.0922L131.22 8.39208ZM107.701 8.88673L107.376 8.89563C107.285 9.12821 107.805 9.11398 107.701 8.88673ZM110.509 9.10988L110.5 8.81L110.241 8.81711C110.27 8.98638 110.362 9.0739 110.509 9.10988ZM134.618 8.81914C135.159 8.68428 136.201 9.08587 136.239 8.40457C135.841 8.70558 135.578 8.29263 135.269 8.5812C135.172 8.28376 135.401 8.34751 135.387 8.13781C135.091 8.00587 135.281 8.41082 135.136 8.44482C134.82 8.47348 134.512 8.48193 134.353 8.31622C134.392 8.54525 134.588 8.59989 134.627 8.82891L134.618 8.81914ZM150.111 8.17439C151.703 8.19077 153.508 7.98123 155.001 8.2604C155.317 7.93163 156.007 8.49295 156.367 8.0029C156.003 8.06289 155.906 7.79543 155.644 7.72258C154.853 7.88433 153.901 7.83038 152.975 7.79576C152.853 8.09921 152.361 7.92262 152.322 7.66361C151.866 7.92619 150.713 7.91779 150.236 7.72077C150.25 7.93047 150.021 7.86673 150.118 8.16417L150.111 8.17439ZM123.798 8.96569C123.993 8.96035 124.195 8.95479 124.181 8.73509C123.875 8.82352 123.923 8.48209 123.593 8.60117C123.591 8.81131 123.792 8.76576 123.798 8.96569ZM131.805 8.67618L131.796 8.37629L131.602 8.38163C131.591 8.572 131.588 8.75216 131.805 8.67618ZM186.252 7.1837C186.469 7.10772 186.987 7.35361 186.895 6.94599C186.801 6.7785 186.44 6.92845 186.244 6.89381L186.252 7.1937L186.252 7.1837ZM131.935 8.67262L131.945 9.04248C132.346 9.18153 132.594 8.73457 132.724 9.02113C132.632 8.65349 133.269 9.0762 133.17 8.70879C133.189 8.52819 132.871 8.757 132.969 8.49421C132.689 8.64194 132.551 8.64572 131.935 8.67262ZM185.292 7.73019C185.59 7.622 186.288 7.93297 186.26 7.48359C186.06 7.31899 185.586 7.47206 185.284 7.4403L185.292 7.74019L185.292 7.73019ZM183.941 8.50751L183.357 8.52352C183.414 8.83207 183.983 8.53638 184.079 8.80384C184.109 8.69299 183.996 8.42598 184.134 8.4322C184.477 8.49283 185.13 8.32487 185.572 8.4628C185.505 7.78439 184.478 8.2427 183.931 8.13765L183.941 8.50751ZM185.832 8.45568C186.059 8.44945 186.211 8.38525 186.146 8.07692L185.822 8.08582L185.832 8.45568ZM189.025 8.51821C189.198 8.3034 189.638 8.36136 189.994 8.34158C189.876 8.17475 189.499 8.32516 189.278 8.29118L189.274 8.14123C188.808 8.30408 188.306 8.35785 187.834 8.03066C187.84 8.24058 187.478 8.08043 187.518 8.33944C187.521 8.4594 187.682 8.39497 187.653 8.5558C187.986 8.24657 188.606 8.33963 189.025 8.51821ZM219.969 7.82004C220.81 8.27718 221.764 7.83087 222.458 8.27201C222.594 8.19825 222.588 7.97834 222.774 7.96322C222.867 8.08073 223.03 8.11627 222.981 8.39772C223.387 8.40659 223.634 8.22976 223.681 7.85834C223.46 7.81437 223.075 7.97499 222.965 7.80794L222.959 7.58802L223.673 7.56845C222.801 6.85208 220.634 6.92147 219.969 7.82004ZM214.175 7.97886L214.5 7.96996C214.471 7.83068 214.467 7.65075 214.297 7.67541C214.384 7.9131 214.087 7.74117 214.175 7.97886ZM212.81 8.23636C213.19 8.16593 213.828 8.3685 213.84 7.90801C213.436 7.669 213.04 8.04998 212.81 8.23636ZM218.342 8.01469C218.856 8.11064 219.424 8.09507 219.64 7.679C219.121 7.69323 218.543 7.64905 218.342 8.01469ZM150.606 9.94148C150.531 10.1836 150.818 9.99568 150.744 10.2378C150.351 10.1485 150.428 10.5666 150.437 10.9165C150.757 11.0177 150.708 10.729 150.953 10.7523C150.869 10.3544 151.169 10.3662 151.06 9.93902C150.871 9.86417 150.79 9.86639 150.606 9.95148L150.606 9.94148ZM153.145 9.87186C152.992 10.5063 152.472 9.91032 151.973 10.0541C151.972 10.3142 151.787 10.3793 151.728 10.581C151.458 10.5084 151.15 10.5568 151.087 10.8987C152.002 10.8036 152.779 11.3124 153.497 10.8326C153.559 11.041 153.849 10.963 154.085 10.9665C154.183 10.4036 154.809 10.7366 154.931 11.0134C155.213 10.9356 155.135 10.4676 155.233 10.1948C154.979 10.1117 154.969 9.75185 154.574 9.84271C154.49 10.0551 154.763 10.2177 154.586 10.2825C154.488 10.2752 154.343 10.3192 154.324 10.2197C154.321 10.0997 154.485 10.1553 154.448 9.99622C154.106 9.67546 153.682 9.88717 153.138 9.88208L153.145 9.87186ZM75.9014 12.1393C76.1913 12.0513 76.7989 12.2948 76.871 11.9627L75.8973 11.9894L75.9014 12.1393ZM85.7318 11.7198C85.4847 12.1867 84.5826 11.2711 84.6403 12.1899C85.9115 12.055 87.1229 12.702 88.0889 12.0953C87.5418 11.6902 86.381 12.0021 85.7318 11.7198ZM122.469 10.8628L122.478 11.1627C122.751 11.0652 122.765 11.2749 122.936 11.3002C122.976 10.969 122.874 10.8117 122.725 10.7157C122.796 10.9339 122.583 10.8497 122.47 10.8728L122.469 10.8628ZM125.602 11.0771L125.593 10.7772L125.399 10.7825C125.388 10.9729 125.384 11.153 125.602 11.0771ZM159.477 10.3686C159.056 10.14 157.764 10.1054 157.728 10.8567C159.331 10.6927 160.959 11.1282 162.349 10.5799C162.424 10.3378 162.136 10.5257 162.211 10.2836C161.842 10.4538 161.679 10.4382 161.365 10.2368C161.236 10.2703 161.374 10.5766 161.111 10.4638C160.977 10.0073 160.398 10.5134 160.13 10.1906C160.2 10.0986 160.313 10.0555 160.249 9.81719C159.718 9.7017 159.831 10.2788 159.484 10.3583L159.477 10.3686ZM88.998 12.0804C89.5537 12.5054 91.048 12.2143 91.8015 12.1536C90.8381 11.6698 90.2741 12.1255 88.998 12.0804ZM112.907 11.5751C113.198 11.5471 113.432 11.4707 113.548 11.2574C113.256 11.2754 112.847 11.1766 112.907 11.5751ZM156.616 10.597C156.477 10.5608 156.189 10.6988 156.16 10.5395C156.181 10.4189 156.361 10.474 156.282 10.2361L155.503 10.2574C155.461 10.5087 155.773 10.34 155.708 10.6219L155.383 10.6308C155.696 11.3925 156.419 10.5124 156.828 10.8914C156.788 10.3522 157.469 10.5837 157.454 10.0639L156.74 10.0834C156.663 10.2156 156.744 10.5135 156.625 10.6068L156.616 10.597ZM212.558 8.84348C212.872 8.74484 213.505 8.99761 213.593 8.66506C213.406 8.35008 212.758 8.70797 212.558 8.84348ZM88.933 12.0822L88.219 12.1018C88.2286 12.4516 88.866 12.3041 88.933 12.0822ZM93.8888 12.1664C94.5375 12.4288 95.1133 12.403 95.8484 12.2628C95.3934 11.9551 94.3736 11.783 93.8888 12.1664ZM147.875 10.4665C147.28 10.6829 146.399 10.527 145.67 10.8971C145.582 11.2396 146.091 10.8455 146.003 11.1881C146.742 10.8977 147.858 11.0272 148.664 10.815C148.59 10.4769 148.076 10.6611 147.875 10.4665ZM149.711 10.7863C150.004 10.8183 150.164 10.7039 150.155 10.404L149.701 10.4164L149.711 10.7863ZM211.643 8.93859C211.854 8.9328 212.107 8.9559 212.092 8.70621C211.814 8.6538 211.737 8.80597 211.643 8.93859ZM96.2338 12.1022C96.2214 12.2425 96.3112 12.2601 96.307 12.4003C96.737 12.3885 97.0664 12.2594 97.2705 12.0037C96.9308 12.053 96.4569 11.946 96.2338 12.1022ZM98.3274 12.3449C98.5746 12.178 98.9557 12.1576 99.3619 12.1665C99.2284 11.74 98.482 12.0605 98.0495 11.9824C98.0399 12.2227 98.1638 12.2993 98.3193 12.3451L98.3274 12.3449ZM100.534 11.9843C100.486 12.0056 100.463 12.0463 100.474 12.136C100.999 12.3617 102.306 12.3259 102.819 12.0717C103.179 11.8718 103.534 12.3922 103.598 12.0504C102.671 11.7356 101.54 11.9267 100.534 11.9843ZM103.983 11.8897C104.016 12.209 104.529 11.9448 104.766 12.0183C104.679 11.7906 104.143 11.7953 103.983 11.8897ZM180.651 10.2283C179.941 9.51749 178.821 10.1384 177.969 9.86166C177.466 9.88544 176.885 10.0114 176.338 9.90636C175.921 10.388 175.348 9.91351 174.91 10.2456C174.881 10.0564 174.702 10.0413 174.577 9.95463C174.416 10.5893 173.922 10.0326 173.604 9.98132C173.36 10.2681 173.152 10.9841 172.65 10.7477C172.811 10.6833 172.779 10.4041 172.764 10.1544C172.249 10.3486 172.087 10.0429 171.729 10.3328C171.54 9.92786 171.024 10.062 170.821 10.3577C170.172 10.0854 169.397 10.5468 168.536 10.2703C168.356 10.2252 168.595 10.6188 168.415 10.5737C168.254 10.338 167.859 10.1588 167.632 10.4451C167.281 10.0846 166.217 10.0838 165.737 10.347C165.637 10.2697 165.592 10.1109 165.406 10.136C164.753 10.6041 164.05 10.1332 163.128 10.2685C163.107 10.6992 162.493 10.486 162.363 10.8096C162.473 10.9567 162.677 10.9911 162.826 11.0971C163.047 10.8709 163.068 11.0204 163.345 11.0828C164.669 10.7765 165.941 10.7015 167.181 10.6075C167.25 10.7557 167.445 10.7504 167.451 10.9703C167.988 11.0156 168.737 10.795 169.086 11.0755C169.209 10.5319 169.665 11.1497 169.853 10.6143C169.851 10.8245 170.076 10.7483 169.995 11.0506C170.82 10.9479 171.615 11.4864 172.21 10.9899C172.556 11.4606 174.086 10.9885 174.821 11.1384C175.238 11.227 176.215 11.0502 176.77 10.8649C176.864 11.0324 176.982 11.1692 177.17 11.2241C177.942 10.9628 178.707 11.292 179.844 11.3008C179.919 10.7686 180.415 11.0951 180.742 10.9061C180.755 10.7657 180.665 10.7481 180.669 10.6079C180.293 10.8083 180.087 10.6939 179.694 10.5647C179.756 10.4829 179.819 10.4112 179.882 10.3394C180.111 10.3932 180.578 10.5304 180.854 10.2427C181.028 10.348 181.043 10.6277 181.319 10.6001L181.309 10.2303C181.104 10.1859 180.789 9.92442 180.659 10.2481L180.651 10.2283ZM106.661 12.1065C107.011 12.437 107.632 12.0098 107.833 12.2244C107.827 12.0144 108.189 12.1746 108.149 11.9156C107.595 12.1109 106.844 11.3912 106.652 12.1067L106.661 12.1065ZM110.9 12.1403C112.124 12.0567 113.194 12.2875 114.414 12.044C113.161 11.9683 111.621 11.1902 110.9 12.1403ZM84.8412 12.7046C85.1552 12.6059 85.7874 12.8587 85.8757 12.5261C85.5617 12.6248 84.9295 12.372 84.8412 12.7046ZM86.4763 12.8098C86.431 12.641 86.3542 12.503 86.1435 12.5188C86.1887 12.6876 86.2656 12.8256 86.4763 12.8098ZM172.837 10.4425L173.096 10.4354C173.068 10.2761 172.976 10.1786 172.829 10.1426L172.837 10.4425ZM182.728 9.87126C182.382 10.2709 181.918 9.66337 181.564 10.0532C181.502 10.4551 181.801 10.4269 181.716 10.8594C181.971 10.6823 182.393 10.6807 182.815 10.6792C182.795 10.8498 182.717 10.962 182.764 11.2008C183.408 11.2931 183.464 11.2416 184.136 11.1632C184.699 10.3675 185.75 11.389 186.606 10.9454C186.658 11.064 186.812 11.0498 186.809 11.2399L188.181 11.2023C187.995 10.9373 187.984 10.8376 188.029 10.3962C187.691 10.2254 187.049 9.91287 186.653 10.2839C186.579 10.526 186.866 10.3381 186.791 10.5802C186.541 10.6271 186.448 10.4896 186.394 10.291C185.658 10.1311 185.09 10.7169 184.568 10.341C184.601 10.6602 184.059 10.7451 183.86 10.5805L183.854 10.3606L184.438 10.3446C184.369 9.5862 183.096 10.2813 182.728 9.87126ZM190.226 9.96585C190.515 9.84788 190.791 10.1504 190.94 9.94628C190.764 9.77101 190.385 9.84145 190.217 9.66596L190.226 9.96585ZM116.246 12.2139C116.181 11.9355 116.56 12.1152 116.495 11.8369L115.911 11.8529C115.973 12.0313 116.089 12.1481 116.246 12.2139ZM116.96 12.1943C117.063 12.1114 117.39 11.8924 117.542 12.1083C117.653 12.6054 116.663 12.6226 116.509 12.3567C116.081 12.4384 115.345 12.5486 114.878 12.4014C114.949 12.6195 114.736 12.5353 114.623 12.5584C114.858 12.8321 114.631 12.8483 114.641 13.2282C114.849 13.1224 114.965 12.9092 115.148 12.7741C115.841 12.8652 116.58 12.8549 118.017 12.8456L118.027 13.2154C118.215 13.2703 118.195 13.1108 118.35 13.1365C118.122 12.5326 118.731 12.836 118.788 12.5343C118.444 12.4337 118.014 12.4355 117.741 12.2629C117.801 12.0812 118.004 12.0656 118.122 11.9523C117.61 11.6462 117.265 12.0659 116.682 11.8418C116.672 12.0821 116.796 12.1587 116.952 12.2045L116.96 12.1943ZM224.88 9.23601C224.922 9.00476 224.925 9.09472 224.87 8.86615L224.48 8.87682C224.488 9.14672 224.621 9.26312 224.88 9.23601ZM95.0712 12.6442C95.0601 12.5345 94.9151 12.5785 94.8097 12.5814C94.6791 12.855 95.1514 12.9021 95.0712 12.6442ZM223.261 9.43044C223.698 9.07833 224.227 9.71407 224.421 9.09852C223.968 9.16096 223.704 8.98814 223.251 9.06057L223.261 9.43044ZM102.236 12.4478L101.198 12.4763C101.209 12.9061 102.248 12.8777 102.236 12.4478ZM102.372 12.6642C102.52 12.7301 103.345 12.8976 103.277 12.4893C103.129 12.4233 102.304 12.2559 102.372 12.6642ZM103.745 12.6966C104.036 12.6286 104.177 12.7347 104.334 12.8305C104.277 12.5519 104.639 12.7321 104.784 12.6681L104.776 12.3682C104.379 12.4191 103.765 12.2358 103.745 12.6966ZM105.701 12.643L106.285 12.6269L106.295 12.9968C107.284 12.9197 107.794 13.1858 108.64 12.9325C108.575 12.6442 108.862 12.7364 108.756 12.4092C107.846 12.7042 106.919 12.3595 105.693 12.3431L105.701 12.643ZM196.617 10.0007C196.156 10.0634 195.829 9.98231 195.51 9.88103C195.49 10.0516 195.228 9.95879 195.258 10.188C195.187 10.5501 195.58 10.3593 195.595 10.619C195.158 10.9611 194.573 10.3569 194.29 10.7248C193.594 10.2136 192.876 10.9736 192.004 10.5673L191.992 10.1275C191.304 9.91627 190.947 10.2262 190.102 10.1793C190.161 10.5579 189.935 10.6241 189.86 10.8562C189.531 10.9753 189.57 10.6441 189.272 10.7223C189.178 10.8649 189.018 10.9293 189.024 11.1692C189.76 11.3291 190.849 11.0692 191.505 11.3213C191.659 11.2971 191.561 10.9996 191.69 10.9461C191.864 11.0714 191.959 11.2888 192.219 11.3017C193.241 10.9436 194.763 11.9623 196.005 11.348C196.136 11.4144 196.151 11.6341 196.337 11.639C196.587 11.262 197.573 11.6752 197.83 11.298C197.923 11.6956 198.637 11.9961 198.944 11.6376C198.973 11.7969 199.065 11.8944 199.212 11.9304C199.966 11.6096 201.209 11.8956 202.016 12.0036C202.02 11.8634 202.049 11.7525 202.137 11.7001C202.76 11.623 203.311 11.2678 203.833 11.6536C203.986 11.3193 204.817 11.7067 204.861 11.2553C204.832 11.066 204.653 11.0509 204.529 10.9643C203.345 11.3269 202.071 11.0517 200.808 10.9162C200.255 10.8614 199.47 10.9929 198.981 10.8963C198.466 10.7904 197.535 11.186 196.958 10.8817L196.948 10.5119C197.991 10.6533 196.797 10.3159 196.609 10.0009L196.617 10.0007ZM188.166 10.6725C188.342 10.8578 188.506 10.9233 188.31 11.1888C188.464 11.1546 188.452 11.325 188.637 11.2499C188.673 11.0988 188.542 10.7623 188.687 10.7283C188.933 10.7816 188.993 10.6299 189.205 10.6441C189.193 10.2042 188.154 10.2327 188.166 10.6725ZM101.678 13.1134C101.612 13.3653 102.155 13.3204 102 13.0345C101.812 12.9796 101.833 13.1391 101.678 13.1134ZM104.479 13.1066C104.508 13.2759 104.805 13.1277 104.936 13.1641C104.955 12.9835 104.439 12.8276 104.479 13.1066ZM224.07 10.1986C224.322 10.2317 224.408 10.0893 224.451 9.888L224.061 9.89868L224.07 10.1986ZM118.947 13.0101C118.951 12.85 118.719 12.9864 118.621 12.949C118.483 13.2429 119.027 13.268 118.947 13.0101ZM120.255 13.0443C120.069 13.0594 120.119 12.7979 119.862 12.905C119.732 13.2187 120.227 13.1751 120.255 13.0443ZM208.318 10.8504C207.874 11.2427 207.119 10.9533 206.492 10.9005C205.939 10.8556 205.148 10.7373 205.001 11.3115C205.282 11.4839 205.61 11.6049 205.922 11.7264C206.02 11.1635 206.768 11.4831 206.961 11.6979C208.694 11.8205 209.606 11.0452 211.381 11.2066C211.276 10.9294 211.673 11.1886 211.567 10.9014C210.959 10.0478 209.342 11.4726 208.309 10.8407L208.318 10.8504ZM217.304 10.454C217.261 10.6653 216.901 10.5451 216.858 10.7664C216.752 10.7393 216.795 10.538 216.594 10.6236C216.483 10.9868 216.819 10.8175 216.801 11.0581C217.964 11.1062 218.732 11.0051 219.925 10.9724C219.945 10.8018 220.032 10.7094 220.177 10.6654C220.639 10.9528 221.462 11.0603 221.872 10.6189C220.669 9.95167 218.865 10.5013 217.304 10.444L217.304 10.454ZM212.042 11.0385C212.322 11.4909 212.842 11.1766 213.288 11.1544C214.366 11.0948 215.757 11.4868 216.205 10.6342C216.156 10.6156 216.13 10.5763 216.136 10.4861C214.981 10.7178 213.373 10.4317 212.042 11.0385ZM64.3273 15.3076C64.6822 15.2179 64.6753 15.5582 65.0455 15.438L65.0354 15.0682C64.7103 15.0571 64.4016 15.0555 64.3273 15.3076ZM76.8397 15.2648L76.8315 14.9649L76.5718 14.972C76.53 15.2232 76.6139 15.321 76.8397 15.2648ZM191.669 12.2672C192.172 12.2534 192.904 12.2733 193.562 12.2853C193.54 12.9762 195.014 12.8357 195.065 12.3141C193.917 12.2155 192.872 11.9941 191.665 11.8171C191.614 12.0386 191.614 12.0486 191.677 12.2569L191.669 12.2672ZM223.524 11.6141C223.689 11.4195 224.07 11.409 224.238 11.5945L224.224 11.0747C223.776 11.0269 223.579 11.2424 223.524 11.6141ZM224.376 11.8908C224.646 11.6833 225.268 11.8463 225.137 11.1997C224.957 11.1546 224.62 11.3039 224.55 11.1457C224.549 11.0958 224.54 11.056 224.484 11.0776C224.358 11.251 224.342 11.5416 224.376 11.8908ZM61.0799 15.9269C61.1086 16.0861 61.2006 16.1836 61.3478 16.2196C61.5402 15.8342 61.812 16.2669 62.1268 16.1983L62.1185 15.8984C61.6985 15.9799 61.3522 15.7893 61.0799 15.9269ZM199.688 12.4275C198.937 12.5681 197.79 11.8993 197.473 12.4882L198.187 12.4686L198.196 12.7685C199.035 12.5754 199.316 13.0579 199.966 13.0901C199.878 12.5123 200.676 12.8906 200.997 12.7618C200.984 12.9021 201.074 12.9197 201.07 13.0599C201.477 13.0787 202.025 12.9337 202.251 13.1776C202.533 12.8297 202.652 13.0065 203.09 13.0045C203.061 12.8252 203.208 12.8412 203.145 12.6328C201.891 12.7873 201.03 12.4707 199.948 12.4204C199.935 12.5508 200.023 12.7884 199.826 12.7238C199.634 12.7991 199.709 12.567 199.688 12.4275ZM211.038 12.6366C210.987 13.1282 211.407 13.0566 211.576 13.2921C212.819 12.7178 214.254 13.2187 215.607 12.8114C215.602 12.6415 215.714 12.5884 215.66 12.3698C215.164 12.3434 214.826 12.4827 214.564 12.7C214.371 12.4752 213.943 12.5369 213.647 12.425C213.51 12.4488 213.59 12.7067 213.461 12.7302C213.358 12.5529 213.075 12.5907 212.933 12.4446C212.874 12.6463 212.664 12.682 212.487 12.7569C212.425 12.5585 212.606 12.0634 212.339 12.0907C212.356 12.7205 211.343 12.7983 211.047 12.6463L211.038 12.6366ZM223.796 12.0668L224.121 12.0579L224.112 11.758L223.788 11.7669L223.796 12.0668ZM220.552 12.5258C220.802 12.4389 221.36 12.6737 221.392 12.3527C221.271 12.086 220.852 12.1875 220.542 12.156L220.552 12.5258ZM203.752 13.1364L204.141 13.1257C204.156 12.7752 203.99 12.6497 203.675 12.6983C203.632 12.9296 203.747 12.9665 203.752 13.1364ZM210.982 12.9382L210.973 12.6383L210.714 12.6455C210.743 12.8047 210.835 12.9022 210.982 12.9382Z" fill="black"/>
<path fill-rule="evenodd" clip-rule="evenodd" d="M146.516 7.08242L146.508 6.78253C146.26 6.92937 145.502 7.11022 145.408 6.96272C145.177 7.09912 145.528 7.15953 145.483 7.3308C145.349 7.16443 144.823 7.21887 145.216 7.03803C145.066 6.91209 144.736 7.00118 144.625 6.83413C144.644 6.61355 144.905 6.65641 145.007 6.52357C146.148 6.69235 148.432 6.15958 149.766 6.54317C150.23 6.29036 151.568 6.24366 152.046 6.48067C152.609 6.29516 153.232 6.20806 153.681 6.5859C153.202 6.59903 152.64 6.52441 152.588 6.98602C152.47 6.84918 152.266 6.80476 152.188 6.62683C151.867 7.07579 151.058 6.28766 150.691 6.81792C150.253 6.52982 149.374 6.77399 148.731 6.72158C148.745 6.93128 148.822 7.06923 149.064 7.01257C148.029 7.47111 146.62 7.01955 145.62 7.25705C145.676 6.93539 146.251 7.16973 146.524 7.08219L146.516 7.08242ZM146.646 7.07886L147.23 7.06284C147.245 6.71231 146.577 6.62059 146.646 7.07886ZM147.425 7.0575C147.702 7.08993 147.837 6.97619 147.871 6.74516L147.417 6.75762L147.425 7.0575ZM148.139 7.03793L148.464 7.02903L148.455 6.72915C148.244 6.72493 148.175 6.85689 148.139 7.03793Z" fill="black"/>
<path fill-rule="evenodd" clip-rule="evenodd" d="M161.71 7.40627C161.691 7.59686 161.505 7.62197 161.594 7.92963C161.441 7.96385 161.452 7.79347 161.268 7.86856C161.256 7.73883 161.345 7.70639 161.324 7.56689C161.587 7.65973 161.523 7.40139 161.71 7.40627Z" fill="black"/>
<path fill-rule="evenodd" clip-rule="evenodd" d="M205.208 8.20468C204.894 8.59343 204.188 8.30268 203.778 8.46397L203.79 8.9038L203.336 8.91626C203.417 8.61392 203.192 8.69012 203.194 8.47998L203.648 8.46752C203.525 8.41088 203.465 8.28249 203.318 8.2565C203.073 8.5233 202.461 8.39004 202.016 8.44226C201.731 8.42005 201.957 8.95407 201.571 8.82458C201.563 8.51469 201.922 8.58487 201.947 8.29409C202.035 7.98154 201.582 8.3241 201.679 8.00132C202.801 8.08059 204.082 7.98547 205.724 8.0405L205.732 8.34039C205.834 8.20754 206.095 8.25041 206.113 8.02982C206.437 8.59116 205.352 8.41082 205.208 8.20468Z" fill="black"/>
<path fill-rule="evenodd" clip-rule="evenodd" d="M206.318 8.40467C206.687 8.52461 206.04 8.64237 206.205 8.99801C205.724 8.93116 204.897 9.29394 204.951 8.5922C205.385 8.72036 205.911 8.66592 206.318 8.40467Z" fill="black"/>
<path fill-rule="evenodd" clip-rule="evenodd" d="M154.878 12.6257L154.872 12.4058C154.72 12.1999 154.393 12.4189 154.289 12.4918C154.216 12.1737 153.607 12.5005 153.502 12.2133C153.58 12.1011 153.784 12.1355 153.687 11.8381C154.622 11.6123 155.084 11.8498 156.356 11.7649C156.268 12.0974 156.557 11.9894 156.5 12.2811L155.259 12.3151C155.12 12.5691 154.939 12.7841 154.557 12.7746C154.485 12.5264 154.756 12.649 154.877 12.6157L154.878 12.6257Z" fill="black"/>
<path fill-rule="evenodd" clip-rule="evenodd" d="M160.649 11.6473C160.736 11.8849 160.439 11.713 160.527 11.9507C160.39 11.9945 160.095 11.8725 160.075 12.0331C159.987 12.3757 160.495 11.9816 160.407 12.3241C159.812 12.5405 159.197 12.0072 158.906 12.3653C158.816 12.3477 158.844 12.1769 158.833 12.0672L159.482 12.0494C159.325 11.9336 159.207 11.7668 158.892 11.8455L158.884 11.5456C159.627 11.6853 160.11 11.8521 160.649 11.6473Z" fill="black"/>
<path fill-rule="evenodd" clip-rule="evenodd" d="M184.207 12.5618C183.872 12.801 183.196 12.4194 182.574 12.5365C182.486 12.2988 182.783 12.4707 182.695 12.2331C183.323 12.3259 184.816 11.6847 185.438 12.458C185.199 12.6346 184.676 12.5089 184.336 12.5582C184.323 12.6786 184.405 12.6864 184.407 12.7763C184.411 12.9063 184.202 12.6819 184.207 12.5618Z" fill="black"/>
<path fill-rule="evenodd" clip-rule="evenodd" d="M109.322 15.2748C109.034 15.4627 108.419 15.5396 108.023 15.6105C108.098 15.3684 107.811 15.5563 107.885 15.3142C108.345 15.1815 108.962 15.1846 109.322 15.2748Z" fill="black"/>
<path fill-rule="evenodd" clip-rule="evenodd" d="M168.142 13.9625C169.18 13.884 169.577 13.8531 170.544 13.5965C170.919 13.9364 172.017 13.4061 172.187 13.9917C172.401 14.0758 172.229 13.7504 172.443 13.8346C173.397 14.2886 175.109 13.6415 175.902 14.1099C175.767 14.2237 175.487 14.3914 175.382 14.1242C174.764 14.3712 174.029 14.2313 173.362 14.1796C171.644 14.0366 169.885 14.1348 168.142 13.9525L168.142 13.9625Z" fill="black"/>
<path fill-rule="evenodd" clip-rule="evenodd" d="M225.498 13.7211C225.435 13.8028 225.372 13.8746 225.309 13.9463C225.02 14.0443 225.154 13.6204 224.849 13.7388C224.721 13.8224 224.844 14.1691 224.666 14.184C224.671 14.344 224.943 14.2064 225.058 14.2433C225.145 14.481 224.848 14.3091 224.936 14.5468C225.013 14.6847 225.31 14.5565 225.331 14.756C225.506 14.5912 225.612 14.3381 225.837 14.222C225.805 14.5629 225.876 14.7911 226.05 14.8864C226.252 14.8708 226.036 14.4066 226.297 14.4394C226.503 14.5238 226.456 14.9152 226.575 15.1021C225.944 15.1694 225.914 15.8705 225.291 15.9476C225.232 15.569 225.566 15.6199 225.666 15.4171C225.669 15.2069 225.443 15.2831 225.524 14.9808C224.987 14.9455 225.083 15.7632 225.167 16.171C224.997 16.1757 225.023 15.9449 224.837 15.96C224.626 15.9658 224.708 16.3037 224.388 16.1924C224.511 16.5092 224.727 16.7033 225.179 16.6109C225.247 17.0192 224.905 16.9885 224.739 17.1431C225.104 17.4132 224.389 17.7129 224.226 17.3773C223.985 17.4739 223.903 17.7463 223.721 17.9113C223.646 18.1535 223.933 17.9655 223.859 18.2077C223.387 18.4607 222.779 19.1176 222.488 18.2452C222.695 18.1295 222.862 17.9849 222.794 17.5666C222.471 17.6455 222.291 17.8905 222.362 18.3887C222.091 18.6062 221.779 18.7649 221.467 18.9335C221.459 18.6536 221.146 18.7622 221.193 18.4208C221.614 18.3692 221.968 18.2495 222.222 18.0224C222.215 17.7925 221.981 17.849 222.015 17.5879L221.041 17.6146C220.742 18.2631 220.487 17.5398 219.938 17.6449C219.956 17.4243 220.108 17.3401 220.252 17.2661C220.389 17.2324 220.377 17.3728 220.388 17.4825C220.716 17.0033 221.009 17.6455 221.489 17.3823C221.601 17.3092 221.629 17.1483 221.607 16.9389C221.906 16.8607 221.913 17.1306 222.07 17.2263C222.232 17.2319 222.219 17.0521 222.323 16.9993C222.382 16.7776 222.174 16.8733 222.06 16.8564C221.972 16.6188 222.269 16.7907 222.181 16.553C222.529 16.7936 223.184 16.4155 223.678 16.3619C223.668 15.992 223.481 15.6771 223.786 15.5487C223.719 15.4705 223.652 15.4023 223.585 15.3341C223.334 15.351 223.417 15.7288 223.074 15.6482C223.067 15.3883 223.106 15.0471 222.863 15.0638C222.948 14.8914 223.317 15.0213 223.51 14.976C223.606 14.9133 223.643 14.7823 223.63 14.6026C223.486 14.3664 223.299 14.6617 223.178 14.685C223.186 14.4147 222.826 14.5946 222.717 14.4775C222.94 13.7211 224.214 14.8667 224.066 13.6302C224.536 14.1676 224.952 13.0558 225.507 13.7408L225.498 13.7211ZM223.656 17.9131C223.643 17.7534 223.379 17.8907 223.264 17.8538C223.205 18.0655 223.697 18.2121 223.656 17.9131Z" fill="black"/>
<path fill-rule="evenodd" clip-rule="evenodd" d="M176.682 6.76614C176.056 7.00341 174.561 6.69424 173.885 6.91285C173.74 6.97683 173.872 7.33336 173.836 7.50441C173.599 7.43089 173.408 7.30605 173.053 7.37582C173.068 7.02528 173.426 7.05548 173.759 7.05636C173.008 6.61677 171.776 7.01067 170.629 6.92207C170.084 6.877 169.55 6.68153 169.059 6.81506C168.913 6.84905 169.045 7.18559 169.008 7.33664C168.627 7.3471 168.237 7.33778 168.28 6.83641C166.843 6.56567 165.454 6.84384 164.229 6.57732C164.709 6.04394 165.705 6.80696 166.115 6.37555C166.829 6.6261 168.062 6.30217 169.503 6.43274C169.731 6.4565 169.988 6.63953 170.158 6.63486C170.28 6.63153 170.373 6.47891 170.479 6.47602C172.346 6.46485 174.769 6.5885 176.682 6.74615L176.682 6.76614Z" fill="black"/>
<path fill-rule="evenodd" clip-rule="evenodd" d="M211.183 7.53073L211.189 7.75065C210.943 7.97746 210.283 8.48574 209.891 8.08635C209.244 8.49422 208.433 8.21635 207.746 8.36521C207.863 8.17194 208.074 7.86605 207.73 7.77543C208.135 7.1341 209.374 7.60032 209.945 7.71471C210.224 7.507 210.72 7.54341 211.183 7.53073Z" fill="black"/>
<path fill-rule="evenodd" clip-rule="evenodd" d="M150.226 11.7928C150.166 12.2546 150.44 12.1971 150.244 12.4626C149.711 12.2671 148.887 12.4097 148.472 12.071C148.395 11.6529 148.955 11.9177 149.18 11.8315C149.105 12.0736 149.392 11.8857 149.318 12.1278C149.489 12.1431 149.484 11.9732 149.504 11.8226C149.838 11.8735 149.996 11.6791 150.218 11.803L150.226 11.7928Z" fill="black"/>
</g>
<defs>
<clipPath id="clip0_4740_9392">
<rect width="226.701" height="18.8" fill="white" transform="translate(0 6.20703) rotate(-1.57018)"/>
</clipPath>
</defs>
</svg>
