<svg width="715" height="41" viewBox="0 0 715 41" fill="none" xmlns="http://www.w3.org/2000/svg">
<g clip-path="url(#clip0_6299_1950)">
<path fill-rule="evenodd" clip-rule="evenodd" d="M4.78935 17.5097C5.09601 17.5612 5.8953 17.3587 5.86124 17.6049C6.0966 17.96 4.29992 17.9526 4.78935 17.5097Z" fill="white"/>
<path fill-rule="evenodd" clip-rule="evenodd" d="M711.181 10.7372C711.56 10.5606 713.357 10.5302 713.743 10.6939C713.408 11.229 711.717 10.7849 711.181 10.7372Z" fill="white"/>
<path fill-rule="evenodd" clip-rule="evenodd" d="M367.55 16.5522C368.656 16.3822 368.473 16.858 369.465 16.7278C368.821 17.098 369.207 17.2616 369.481 17.673L368.181 17.695C368.098 17.2804 368.167 16.8632 367.511 16.534L367.55 16.5522Z" fill="white"/>
<path fill-rule="evenodd" clip-rule="evenodd" d="M446.672 15.8562C445.158 16.7894 439.171 15.586 438.544 16.9392C438.821 17.5207 441.146 17.0086 441.954 17.2975C441.659 17.9832 438.821 17.5018 437.486 17.6946C437.846 18.6717 441.696 17.8691 443.27 18.2396C442.743 18.7401 440.753 18.6604 439.224 18.7241C437.848 18.7852 436.431 18.639 435.595 18.9935C435.6 19.2959 436.325 19.1891 436.027 19.6291C434.806 19.801 435.291 19.0743 434.525 19.0116C434.174 18.6393 435.25 18.9426 435.169 18.6792C434.819 18.3259 434.279 18.0892 433.246 18.0688C433.662 17.7593 435.58 18.1239 436.034 17.8137C436.213 17.0921 433.51 17.8186 433.045 17.4483C432.844 16.8844 435.677 17.0444 435.834 17.2876C436.178 17.244 436.019 16.9441 436.672 17.0654C436.322 16.7499 435.897 16.4734 435.168 16.3534C438.656 14.5547 442.668 16.5479 446.71 15.8366L446.672 15.8562Z" fill="white"/>
<path fill-rule="evenodd" clip-rule="evenodd" d="M509.758 14.5617L510.405 14.5508L510.412 14.9667C509.691 15.0923 509.725 14.827 509.758 14.5617Z" fill="white"/>
<path fill-rule="evenodd" clip-rule="evenodd" d="M513.406 15.4641L512.336 15.4822C511.982 14.8457 513.815 14.758 513.406 15.4641Z" fill="white"/>
<path fill-rule="evenodd" clip-rule="evenodd" d="M208.885 20.1826L209.726 20.1684C209.653 20.3965 209.35 20.5529 208.892 20.5985L208.885 20.1826Z" fill="white"/>
<path fill-rule="evenodd" clip-rule="evenodd" d="M327.571 18.1742L327.578 18.5901L325.666 18.6224C325.928 18.2776 327.038 18.3534 327.571 18.1742Z" fill="white"/>
<path fill-rule="evenodd" clip-rule="evenodd" d="M526.87 15.4445C527.132 15.0997 526.18 15.3805 526.442 15.0357C527.362 15.1525 527.357 14.8501 527.93 14.8026C527.668 15.1474 528.619 14.8665 528.358 15.2113C527.785 15.2588 527.752 15.562 526.87 15.4445Z" fill="white"/>
<path fill-rule="evenodd" clip-rule="evenodd" d="M397.095 17.6406C396.8 18.2885 395.606 17.7793 394.727 17.7941C394.839 17.641 396.325 17.3322 397.095 17.6406Z" fill="white"/>
<path fill-rule="evenodd" clip-rule="evenodd" d="M399.428 17.601L400.498 17.5829C400.656 17.8826 399.17 18.1534 399.428 17.601Z" fill="white"/>
<path fill-rule="evenodd" clip-rule="evenodd" d="M455.024 16.6603C455.222 17.0729 454.302 16.9372 454.616 17.4046C452.897 17.5472 453.567 16.458 455.024 16.6603Z" fill="white"/>
<path fill-rule="evenodd" clip-rule="evenodd" d="M492.877 16.0198C493.298 16.0505 493.795 16.042 493.724 16.3267C493.151 16.3742 492.654 16.3826 492.877 16.0198Z" fill="white"/>
<path fill-rule="evenodd" clip-rule="evenodd" d="M450.131 16.8567C451.278 16.8372 452.615 16.7012 452.7 17.2292C451.668 17.2656 451.137 17.5393 450.337 17.6852C450.607 17.8697 451.56 17.6834 451.187 18.2003L449.275 18.2326C449.574 17.8305 450.566 17.6813 449.68 17.2803C450.331 17.3827 450.058 17.047 450.093 16.8573L450.131 16.8567Z" fill="white"/>
<path fill-rule="evenodd" clip-rule="evenodd" d="M483.901 16.701C483.873 17.3255 481.158 17.3336 481.527 16.5332C482.481 16.4225 483.584 16.0446 483.901 16.701Z" fill="white"/>
<path fill-rule="evenodd" clip-rule="evenodd" d="M484.544 16.2741C485.157 16.3394 485.162 16.6229 485.615 16.256C486.115 16.4177 486.766 16.5012 487.759 16.4277C487.763 16.6167 488.031 16.65 487.996 16.8397C486.468 16.9412 486.039 16.4946 484.36 16.6932C484.357 16.5042 484.624 16.4619 484.582 16.2735L484.544 16.2741Z" fill="white"/>
<path fill-rule="evenodd" clip-rule="evenodd" d="M491.159 16.1623L492.23 16.1442C492.397 17.0112 495.186 16.7938 495.866 16.2907C496.325 16.3207 496.633 16.4668 496.714 16.6923L495.223 16.7175C495.039 17.1934 496.108 17.0429 496.076 17.4406C493.666 17.4057 491.293 17.3324 491.12 16.144L491.159 16.1623Z" fill="white"/>
<path fill-rule="evenodd" clip-rule="evenodd" d="M235.628 20.6944C236.28 20.7968 236.932 20.8803 237.545 20.9834C237.785 21.5844 235.943 21.2185 235.18 21.3449C234.867 20.9153 235.633 20.9968 235.59 20.695L235.628 20.6944Z" fill="white"/>
<path fill-rule="evenodd" clip-rule="evenodd" d="M360.317 18.5844C360.931 18.6685 361.278 18.8706 361.399 19.209C360.559 19.3177 360.857 18.8589 359.904 19.0263C359.631 18.6905 360.591 18.939 360.318 18.6033L360.317 18.5844Z" fill="white"/>
<path fill-rule="evenodd" clip-rule="evenodd" d="M444.782 17.155C446.117 16.9622 446.163 17.4342 447.347 17.3196C447.2 17.6814 446.59 17.7862 445.865 17.8742C445.668 17.556 444.523 17.7078 444.782 17.155Z" fill="white"/>
<path fill-rule="evenodd" clip-rule="evenodd" d="M221.522 21.1411C222.4 21.0318 222.633 21.2924 222.601 21.652C221.875 21.6643 221.377 21.5783 221.522 21.1411Z" fill="white"/>
<path fill-rule="evenodd" clip-rule="evenodd" d="M394.542 18.2133C395.186 18.0324 395.201 18.9014 394.551 18.7423L394.542 18.2133Z" fill="white"/>
<path fill-rule="evenodd" clip-rule="evenodd" d="M395.612 18.1951C396.371 18.0688 396.193 18.8281 395.391 18.6148C395.387 18.4258 395.653 18.3835 395.612 18.1951Z" fill="white"/>
<path fill-rule="evenodd" clip-rule="evenodd" d="M567.945 15.2788C567.948 15.4678 568.216 15.5011 568.181 15.6908L566.461 15.7199C566.377 15.3053 567.064 15.2369 567.945 15.2788Z" fill="white"/>
<path fill-rule="evenodd" clip-rule="evenodd" d="M448.192 17.5133C448.387 17.7557 448.999 17.8209 448.854 18.2391C448.054 18.4039 448.428 17.9629 447.78 18.0494C447.622 17.7309 448.504 17.9049 448.192 17.5133Z" fill="white"/>
<path fill-rule="evenodd" clip-rule="evenodd" d="M354.556 19.4194C356.126 19.5063 358.605 19.124 359.492 19.5439C360.44 19.0741 362.052 19.3871 362.29 19.9126C361.071 20.179 359.537 19.9592 358.43 20.0913C358.436 20.3938 359.16 20.287 358.862 20.727C358.213 20.8136 358.588 20.3723 357.788 20.5371C357.785 20.3481 358.052 20.3058 358.01 20.1174C357.352 19.6369 355.025 20.0355 354.595 19.4377L354.556 19.4194Z" fill="white"/>
<path fill-rule="evenodd" clip-rule="evenodd" d="M476.224 17.3604L477.066 17.3461C476.993 17.5743 476.69 17.7307 476.231 17.7762L476.224 17.3604Z" fill="white"/>
<path fill-rule="evenodd" clip-rule="evenodd" d="M299.155 20.5648L299.805 20.5538C299.507 21.0315 300.422 20.8648 300.238 21.2839L301.079 21.2697C301.149 20.8525 302.259 20.9282 303.215 20.9121C303.031 21.3312 303.946 21.1644 303.648 21.6422L299.595 21.7108C299.857 21.366 298.906 21.6468 299.167 21.302C298.827 21.4969 297.984 21.4355 297.874 21.7399C297.224 21.7509 298.167 20.9597 297.214 21.1082C297.858 20.7758 299.437 21.4109 299.116 20.5465L299.155 20.5648Z" fill="white"/>
<path fill-rule="evenodd" clip-rule="evenodd" d="M394.975 18.9433C395.703 18.9877 395.52 19.4636 395.409 19.6734L393.688 19.7026C393.76 19.4555 393.302 19.4822 393.45 19.1771C393.8 19.5683 394.944 19.322 394.937 18.944L394.975 18.9433Z" fill="white"/>
<path fill-rule="evenodd" clip-rule="evenodd" d="M561.763 16.1209L562.604 16.1067L562.611 16.5223C561.886 16.6101 561.578 16.4831 561.763 16.1209Z" fill="white"/>
<path fill-rule="evenodd" clip-rule="evenodd" d="M566.475 16.5706C566.556 16.815 566.826 16.9617 566.717 17.3039C567.14 17.4669 568.019 17.4142 568.215 17.6946C568.749 17.591 569.013 17.3596 569.932 17.4575C569.044 16.9242 566.789 17.0758 566.508 16.2485C568.15 16.1073 569.072 16.3564 569.729 16.7235C570.223 16.5828 570.679 16.4049 571.637 16.4832C571.719 16.8411 571.57 17.0705 571.422 17.3378C570.81 17.3292 570.352 17.3748 570.125 17.5677C570.97 17.7803 572.422 17.6612 572.926 18.0498C569.754 18.198 566.961 18.1507 565.229 17.5371C565.066 16.9348 565.828 16.7706 566.513 16.5699L566.475 16.5706Z" fill="white"/>
<path fill-rule="evenodd" clip-rule="evenodd" d="M232.671 22.2195C232.982 22.5546 231.413 22.5055 231.372 22.3549C231.061 22.0198 232.63 22.0689 232.671 22.2195Z" fill="white"/>
<path fill-rule="evenodd" clip-rule="evenodd" d="M303.676 21.0177C304.093 20.8405 306.005 20.8081 306.467 20.9705C306.245 21.4281 304.023 21.201 303.676 21.0177Z" fill="white"/>
<path fill-rule="evenodd" clip-rule="evenodd" d="M318.018 20.9832C318.772 20.3275 321.188 20.7405 320.17 21.5897C319.553 21.3165 318.131 20.8867 317.799 21.6298C315.965 21.7176 315.193 21.2768 314.382 20.8367C315.45 20.6485 317.476 20.6142 318.018 20.9832Z" fill="white"/>
<path fill-rule="evenodd" clip-rule="evenodd" d="M473.444 18.0314C473.444 18.0314 471.047 18.7338 470.655 18.1921C471.225 17.9744 472.528 18.1037 473.444 18.0314Z" fill="white"/>
<path fill-rule="evenodd" clip-rule="evenodd" d="M405.232 19.2993C404.933 19.7393 405.697 19.6318 405.663 19.935L403.943 19.9641C403.859 19.5117 404.276 19.2966 405.232 19.2993Z" fill="white"/>
<path fill-rule="evenodd" clip-rule="evenodd" d="M355.834 20.3433L356.481 20.3323L356.488 20.7482C355.918 20.7957 355.951 20.5304 355.834 20.3433Z" fill="white"/>
<path fill-rule="evenodd" clip-rule="evenodd" d="M413.154 19.5812C414.185 19.507 414.989 19.5501 415.073 19.9647C414.349 20.1661 414.116 19.9242 413.161 19.9971L413.154 19.5812Z" fill="white"/>
<path fill-rule="evenodd" clip-rule="evenodd" d="M296.422 21.7834C297.152 21.979 298.147 22.0189 298.346 22.4883C297.399 23.0338 295.668 22.4391 296.422 21.7834Z" fill="white"/>
<path fill-rule="evenodd" clip-rule="evenodd" d="M313.934 21.4871L314.775 21.4728C314.703 21.7197 315.161 21.6931 315.013 21.9979C314.287 22.0102 313.94 21.846 313.934 21.4871Z" fill="white"/>
<path fill-rule="evenodd" clip-rule="evenodd" d="M381.957 20.3361C382.417 20.385 383.445 20.1407 383.26 20.522C382.8 20.4731 381.772 20.7174 381.957 20.3361Z" fill="white"/>
<path fill-rule="evenodd" clip-rule="evenodd" d="M675.957 15.361C676.956 15.6278 679.168 15.2689 679.599 15.8289L676.196 15.8865C676.268 15.6394 675.809 15.6661 675.957 15.361Z" fill="white"/>
<path fill-rule="evenodd" clip-rule="evenodd" d="M356.495 20.975C358.183 21.2679 361 20.4827 361.21 21.6326C359.491 21.7374 358.833 21.2947 356.924 21.4972C357.072 21.1732 356.196 21.3771 356.495 20.975Z" fill="white"/>
<path fill-rule="evenodd" clip-rule="evenodd" d="M609.276 16.6973C610.002 16.6472 610.462 16.7151 610.999 16.7816L611.009 17.4243C610.018 17.5735 610.277 17.0775 609.285 17.2455L609.276 16.7162L609.276 16.6973Z" fill="white"/>
<path fill-rule="evenodd" clip-rule="evenodd" d="M386.676 21.2016C384.659 21.8219 379.681 21.4523 377.913 20.9339C380.012 20.6715 383.542 21.3303 386.676 21.2016Z" fill="white"/>
<path fill-rule="evenodd" clip-rule="evenodd" d="M518.169 18.8631C518.177 19.3168 516.527 19.0043 515.802 19.1111C515.865 18.297 517.211 18.7469 518.169 18.8631Z" fill="white"/>
<path fill-rule="evenodd" clip-rule="evenodd" d="M471.796 20.0828C471.943 19.7588 471.067 19.9628 471.366 19.5606C472.282 19.4128 472.325 19.7146 472.861 19.7433L472.877 20.6885C471.504 20.9008 471.837 20.2334 470.729 20.3089C470.725 20.1198 470.992 20.0775 470.951 19.8891C471.637 19.7451 471.11 20.2268 471.796 20.0828Z" fill="white"/>
<path fill-rule="evenodd" clip-rule="evenodd" d="M575.063 17.8058C576.403 17.8587 578.349 17.6178 579.348 17.8467C579.624 18.3715 577.587 17.782 577.864 18.2878C577.872 18.7793 579.966 18.1955 580.012 18.6675C580.964 18.4434 583.667 17.6791 583.648 18.814C581.123 18.7811 579.216 19.0781 577.033 18.9259C576.528 18.4806 575.758 18.1722 575.101 17.7862L575.063 17.8058Z" fill="white"/>
<path fill-rule="evenodd" clip-rule="evenodd" d="M581.257 17.7009C581.563 17.6957 581.869 17.6905 581.909 17.8033L581.912 18.0111L580.842 18.0292C580.993 17.9132 581.337 17.9074 581.257 17.7009Z" fill="white"/>
<path fill-rule="evenodd" clip-rule="evenodd" d="M563.104 18.5374C564.128 18.3689 563.644 18.9629 563.763 19.2633C562.928 19.353 563.148 18.8768 563.104 18.5374Z" fill="white"/>
<path fill-rule="evenodd" clip-rule="evenodd" d="M594.535 18.0056L595.375 17.9914C595.497 18.3862 595.079 18.5633 594.546 18.648L594.535 18.0056Z" fill="white"/>
<path fill-rule="evenodd" clip-rule="evenodd" d="M503.657 20.1675L501.095 20.2108C501.161 19.5857 503.496 19.6597 503.657 20.1675Z" fill="white"/>
<path fill-rule="evenodd" clip-rule="evenodd" d="M551.981 18.9336C552.629 18.8093 552.367 19.1539 552.409 19.3422L551.568 19.3564C551.295 19.0208 552.254 19.2692 551.981 18.9336Z" fill="white"/>
<path fill-rule="evenodd" clip-rule="evenodd" d="M673.649 16.8748L677.702 16.8063C677.67 17.1472 677.329 17.3231 676.641 17.3537C676.647 17.7129 677.525 17.6034 677.493 17.9822C676.155 18.0048 675.851 18.1234 674.702 18.0294C675.033 17.2863 673.81 17.3448 673.611 16.8755L673.649 16.8748Z" fill="white"/>
<path fill-rule="evenodd" clip-rule="evenodd" d="M648.646 17.5061C648.952 17.5009 649.257 17.4957 649.297 17.6084L649.301 17.8162L648.231 17.8344C648.382 17.7184 648.726 17.7126 648.646 17.5061Z" fill="white"/>
<path fill-rule="evenodd" clip-rule="evenodd" d="M621.274 18.2906C621.279 18.5363 621.662 18.5866 621.515 18.9294C620.406 18.9482 619.072 19.2355 618.529 18.772C617.389 19.2451 615.545 18.7279 614.053 18.7342C615.412 17.6901 619.98 18.6718 621.313 18.2899L621.274 18.2906Z" fill="white"/>
<path fill-rule="evenodd" clip-rule="evenodd" d="M552.414 19.664L553.061 19.6531L553.068 20.069C552.347 20.1946 552.38 19.9293 552.414 19.664Z" fill="white"/>
<path fill-rule="evenodd" clip-rule="evenodd" d="M563.732 19.4723C565.263 19.5598 566.416 19.8617 568.213 19.8124C568.333 20.1508 567.837 20.197 567.996 20.5536L566.696 20.5756C566.494 19.9361 565.23 19.8251 563.701 19.8888L563.694 19.4729L563.732 19.4723Z" fill="white"/>
<path fill-rule="evenodd" clip-rule="evenodd" d="M593.48 18.969C594.129 18.8823 593.754 19.3236 594.554 19.1588L594.563 19.6881C593.724 19.7968 594.022 19.338 593.068 19.5054C592.756 19.1136 593.638 19.2877 593.48 18.969Z" fill="white"/>
<path fill-rule="evenodd" clip-rule="evenodd" d="M604.381 18.9925C606.081 20.0037 609.23 18.4755 609.75 19.8471C607.268 20.0593 606.074 19.6067 603.743 19.7407C603.39 19.2172 604.464 19.3882 604.381 18.9925Z" fill="white"/>
<path fill-rule="evenodd" clip-rule="evenodd" d="M427.32 22.7262C428.275 22.6533 428.813 22.8144 428.82 23.2302C428.093 23.1669 427.441 23.0834 427.32 22.7262Z" fill="white"/>
<path fill-rule="evenodd" clip-rule="evenodd" d="M318.274 24.7984C318.966 25.0136 317.369 25.5512 316.981 25.2363C316.783 24.8614 317.819 25.0708 318.277 25.0063L318.274 24.7984Z" fill="white"/>
<path fill-rule="evenodd" clip-rule="evenodd" d="M436.543 23.0051C435.784 23.3583 434.523 23.4364 433.562 23.169C433.903 22.9741 435.505 22.7201 436.543 23.0051Z" fill="white"/>
<path fill-rule="evenodd" clip-rule="evenodd" d="M373.232 24.606C371.016 24.738 367.474 25.63 366.801 24.2988C368.295 24.4248 372.491 23.7676 373.232 24.606Z" fill="white"/>
<path fill-rule="evenodd" clip-rule="evenodd" d="M374.525 24.149C375.212 24.1185 375.445 24.3035 375.602 24.5465L374.532 24.5646L374.525 24.149Z" fill="white"/>
<path fill-rule="evenodd" clip-rule="evenodd" d="M548.156 21.2109C549.654 21.5449 552.251 21.3118 553.937 21.5291C554.096 21.8479 553.213 21.6737 553.526 22.0655L547.752 22.1632C547.671 21.9188 547.401 21.7721 547.51 21.4299C547.931 21.4606 548.198 21.3993 548.156 21.2109Z" fill="white"/>
<path fill-rule="evenodd" clip-rule="evenodd" d="M134.602 28.852C134.375 29.026 133.609 28.9444 133.537 29.1915C133.149 28.8955 131.738 29.1274 131.161 28.9102C131.536 28.469 134.101 28.6335 134.564 28.8526L134.602 28.852Z" fill="white"/>
<path fill-rule="evenodd" clip-rule="evenodd" d="M384.359 24.4177L385.429 24.3996C385.778 24.7149 384.02 24.7447 384.359 24.4177Z" fill="white"/>
<path fill-rule="evenodd" clip-rule="evenodd" d="M467.567 23.3121C468.06 23.0579 469.478 23.2419 470.356 23.1514C469.863 23.4056 468.445 23.2216 467.567 23.3121Z" fill="white"/>
<path fill-rule="evenodd" clip-rule="evenodd" d="M429.712 23.9528C429.908 24.2142 430.71 24.1628 431.437 24.1316C431.595 24.4504 431.214 24.5135 431.218 24.7782C429.958 24.8941 430.101 24.2866 428.84 24.4024C428.489 23.9546 430.026 24.4013 429.675 23.9723L429.712 23.9528Z" fill="white"/>
<path fill-rule="evenodd" clip-rule="evenodd" d="M453.878 23.5435L455.369 23.5182L455.373 23.7262L453.882 23.7514L453.878 23.5435Z" fill="white"/>
<path fill-rule="evenodd" clip-rule="evenodd" d="M415.607 24.4182L421.61 24.3166C420.354 24.6593 416.577 25.2338 415.607 24.4182Z" fill="white"/>
<path fill-rule="evenodd" clip-rule="evenodd" d="M526.149 22.5477C528.14 22.6842 531.686 22.038 532.35 22.8588C529.441 22.7378 527.613 23.1659 526.149 22.5477Z" fill="white"/>
<path fill-rule="evenodd" clip-rule="evenodd" d="M498.354 23.226C499.195 23.1739 499.619 23.3558 499.663 23.7333C500.04 23.4243 500.34 23.06 501.566 23.1716L501.575 23.7009C503.02 23.1848 508.18 23.003 509.073 23.782C508.392 24.2096 506.635 24.3717 505.448 24.2594C504.647 24.4053 505.455 24.6942 505.039 25.0038L501.636 25.0613C501.667 24.5881 500.445 24.7411 499.907 24.5612C501.009 24.1265 503.078 24.3751 504.382 24.5989C505.291 24.054 503.568 23.9508 503.296 23.6718C502.578 24.1945 499.585 23.659 498.829 24.1634C498.556 23.8466 497.865 23.6692 498.392 23.2253L498.354 23.226ZM505.635 24.0482L506.706 24.0301L506.699 23.6142L505.628 23.6323L505.635 24.0482Z" fill="white"/>
<path fill-rule="evenodd" clip-rule="evenodd" d="M193.201 29.1273C189.921 29.6366 184.978 29.1341 180.578 29.0194C184.089 28.5629 189.754 28.8263 193.201 29.1273Z" fill="white"/>
<path fill-rule="evenodd" clip-rule="evenodd" d="M575.557 22.1276C577.324 22.5704 579.421 22.1945 581.757 22.3441C580.243 23.2774 576.483 22.6035 574.075 22.6821C573.837 22.1567 576.066 22.7808 575.557 22.1276Z" fill="white"/>
<path fill-rule="evenodd" clip-rule="evenodd" d="M531.521 23.6102C531.068 23.9583 531.069 24.0339 531.534 24.3475C531.075 24.393 530.772 24.5494 530.699 24.7776C530.469 24.7059 530.466 24.5357 530.046 24.5806C529.927 24.3557 530.464 24.4223 530.461 24.2522C530.306 24.1413 529.962 24.1472 530.035 23.9379C529.428 24.2507 527.742 24.0334 527.238 23.6638C528.685 23.28 529.458 23.7586 531.521 23.5913L531.521 23.6102Z" fill="white"/>
<path fill-rule="evenodd" clip-rule="evenodd" d="M606.767 22.1287L608.679 22.0964C608.683 22.361 608.186 22.3695 608.036 22.5233C607.688 22.3401 606.849 22.4299 606.729 22.1294L606.767 22.1287Z" fill="white"/>
<path fill-rule="evenodd" clip-rule="evenodd" d="M206.482 29.64C204.878 29.7806 204.07 29.5295 202.846 29.4935C203.075 29.4518 206.245 29.1713 206.482 29.64Z" fill="white"/>
<path fill-rule="evenodd" clip-rule="evenodd" d="M355.106 27.1249C354.685 27.0942 353.81 27.298 354.033 26.9352C354.529 26.8701 355.024 26.7483 355.106 27.1249Z" fill="white"/>
<path fill-rule="evenodd" clip-rule="evenodd" d="M188.966 29.7284C191.799 29.9073 193.588 29.3665 195.167 30.0394C194.21 29.98 193.754 30.139 193.259 30.2797C192.485 29.7634 189.323 30.4598 188.966 29.7095L188.966 29.7284Z" fill="white"/>
<path fill-rule="evenodd" clip-rule="evenodd" d="M368.372 26.6925C369.711 26.7455 371.658 26.5046 372.656 26.7335C372.285 27.3827 368.647 27.1606 368.372 26.6925Z" fill="white"/>
<path fill-rule="evenodd" clip-rule="evenodd" d="M661.537 22.1474C660.429 22.2228 658.449 22.7669 658.13 21.997C659.238 21.9215 661.218 21.3775 661.537 22.1474Z" fill="white"/>
<path fill-rule="evenodd" clip-rule="evenodd" d="M578.37 23.3469L579.861 23.3217L579.865 23.5296L578.373 23.5549L578.37 23.3469Z" fill="white"/>
<path fill-rule="evenodd" clip-rule="evenodd" d="M586.285 23.2128C586.859 23.2598 587.965 23.052 588.199 23.2939L588.204 23.6153C587.248 23.6315 586.634 23.5095 586.285 23.2317L586.285 23.2128Z" fill="white"/>
<path fill-rule="evenodd" clip-rule="evenodd" d="M588.617 23.1736L590.108 23.1483L590.112 23.3563L588.621 23.3815L588.617 23.1736Z" fill="white"/>
<path fill-rule="evenodd" clip-rule="evenodd" d="M639.931 22.3052C640.086 22.4728 640.621 22.4448 640.588 22.7101L638.676 22.7425C638.361 22.2372 640.283 22.7909 639.969 22.3046L639.931 22.3052Z" fill="white"/>
<path fill-rule="evenodd" clip-rule="evenodd" d="M200.712 29.9458C200.376 30.4242 198.343 30.0805 197.312 30.2114C197.648 29.7329 199.681 30.0767 200.712 29.9458Z" fill="white"/>
<path fill-rule="evenodd" clip-rule="evenodd" d="M598.447 23.2151L599.517 23.197C599.867 23.5123 598.109 23.5421 598.447 23.2151Z" fill="white"/>
<path fill-rule="evenodd" clip-rule="evenodd" d="M388.686 26.9917L390.177 26.9665L390.181 27.1744L388.69 27.1996L388.686 26.9917Z" fill="white"/>
<path fill-rule="evenodd" clip-rule="evenodd" d="M684.451 22.2891C684.753 22.0382 685.942 22.2261 686.59 22.1395C686.212 22.3728 684.879 22.7168 684.451 22.2891Z" fill="white"/>
<path fill-rule="evenodd" clip-rule="evenodd" d="M635.052 23.333L638.035 23.2826L638.042 23.6984C636.473 23.6872 636.584 23.4584 635.25 23.7457C635.247 23.5566 634.979 23.5234 635.014 23.3337L635.052 23.333Z" fill="white"/>
<path fill-rule="evenodd" clip-rule="evenodd" d="M236.25 30.3086C237.931 30.1856 239.043 30.3559 240.307 30.4479C239.467 30.5567 236.451 30.8914 236.25 30.3086Z" fill="white"/>
<path fill-rule="evenodd" clip-rule="evenodd" d="M645.954 23.3755L647.445 23.3503C647.49 23.7655 646.074 23.7138 645.954 23.3755Z" fill="white"/>
<path fill-rule="evenodd" clip-rule="evenodd" d="M647.865 23.3433L649.356 23.318L649.36 23.526L647.869 23.5512L647.865 23.3433Z" fill="white"/>
<path fill-rule="evenodd" clip-rule="evenodd" d="M674.407 23.1966C674.188 23.8432 675.638 23.6296 675.267 24.3355C671.938 24.2406 670.218 24.3075 667.352 24.4695C667.648 23.8405 666.617 23.9335 666.495 23.5385C669.209 23.4548 672.309 23.5725 674.407 23.1966Z" fill="white"/>
<path fill-rule="evenodd" clip-rule="evenodd" d="M626.532 26.1245C627.336 26.1487 627.95 26.2518 628.26 26.5113L626.539 26.5404L626.532 26.1245Z" fill="white"/>
<path fill-rule="evenodd" clip-rule="evenodd" d="M701.641 27.9169C699.339 27.4831 694.918 28.3899 692.878 27.6491C695.97 27.2943 700.527 27.6332 702.694 26.8401C700.549 26.6306 697.493 26.8903 695.007 26.8568C696.03 26.2911 698.21 26.2731 699.271 25.7257L699.266 25.4043C695.78 25.0662 691.384 25.2162 687.063 25.2894C689.726 24.4312 692.416 25.1988 696.465 24.9222C697.037 24.7802 696.878 24.4425 696.682 24.1811C691.719 24.6811 689.035 24.3105 684.485 24.3875C684.128 23.6183 681.192 24.1596 679.545 24.0551L679.537 23.5258C679 23.4403 677.705 23.7648 677.812 23.347C680.183 23.3069 681.298 23.6473 682.933 23.0523L682.94 23.4682L685.31 23.4281C685.958 23.2659 685.757 22.7209 687.022 22.8697C687.373 23.2797 686.452 23.1062 686.379 23.2966C687.118 24.0026 689.128 23.042 691.084 23.3304C691.652 22.9993 691.989 22.5776 693.213 22.5569C693.171 22.3685 693.433 22.0237 692.785 22.1481C693.852 21.9221 695.844 22.1153 695.331 21.1596C696.782 21.0405 697.964 20.8125 698.297 20.1639C698.064 19.9599 697.073 20.1657 696.992 19.8646C695.239 20.2346 692.409 20.2447 690.572 20.1812C689.998 20.172 689.543 20.4066 689.275 20.4112C680.327 20.4869 669.314 20.6544 659.112 21.243C654.474 20.6597 647.878 21.8681 643.703 21.5038C643.091 21.5142 643.096 21.8355 642.639 21.9378C641.367 21.3542 639.396 22.4276 638.162 21.8056C635.915 22.3731 631.201 21.8099 629.185 22.4869C628.611 22.4588 628.568 22.1759 628.335 21.9719C627.188 21.9913 625.887 21.9377 625.356 22.2303C625.588 22.3587 625.971 22.409 625.786 22.7525C620.726 22.0817 613.932 22.953 609.29 22.0861C612.656 22.1237 614.184 22.0033 617.212 22.3681C617.935 22.1479 616.937 21.9567 616.972 21.7292C613.029 21.5501 609.06 22.0333 605.648 21.5994C603.325 22.206 601.006 20.7703 598.571 21.5112C596.542 21.3942 593.473 20.8789 591.494 21.4229C591.891 22.3238 595.815 21.3876 596.858 21.9751C597.695 21.734 598.918 21.6944 600.257 21.7095C600.688 22.3263 599.462 22.1768 599.199 22.4649C594.602 22.0511 590.372 22.9357 585.734 22.3713C585.461 22.0356 586.421 22.284 586.148 21.9483C586.646 22.0155 587.419 22.4941 588.063 22.1239C587.408 21.8513 585.951 21.6113 585.268 21.9632C585.377 21.5832 584.613 21.6717 584.608 21.3315C581.445 22.0279 577.184 21.0978 574.364 21.7128C572.329 21.2745 569.964 21.636 567.286 21.6246C566.677 21.7483 566.761 22.2007 565.997 22.2893C565.991 21.9301 565.113 22.0395 565.145 21.6608C562.008 21.5815 559.566 21.9254 556.804 21.4805C557.102 21.0027 560.042 20.7261 560.207 21.4229C562.872 20.6782 567.516 21.6018 569.839 21.0519C572.217 21.4277 574.778 21.3465 577.334 20.9251C579.673 21.2826 583.339 20.9558 586.323 20.981C586.511 20.7887 587.123 20.7973 586.964 20.4407C588.344 20.6064 588.412 20.1514 589.098 19.9885C589.335 20.4195 588.878 20.5217 588.459 20.6423C588.884 20.8809 589.763 20.8849 590.189 21.1425C590.607 21.0219 591.064 20.9196 591.483 20.7991C591.856 20.2255 590.105 20.7279 590.402 20.1745C590.593 20.1713 590.552 20.0396 590.628 19.9627C592.314 20.1989 594.57 20.1229 596.408 20.2808C596.573 20.9966 599.746 20.8673 600.696 20.5297C600.699 20.7188 600.968 20.7521 600.933 20.9417C602.118 20.9217 603.534 20.9923 604.141 20.6795C604.061 20.4539 603.752 20.3078 603.293 20.2778C608.334 19.8332 612.489 21.2756 617.833 20.6747C618.132 20.2347 617.369 20.3421 617.402 20.039C618.69 19.2987 620.08 20.0505 621.876 19.9633C622.036 20.3955 621.772 20.6269 621.238 20.7116C621.164 20.883 621.432 20.8974 621.473 21.0291C621.975 21.3231 623.041 21.0025 623.383 20.8833C625.653 21.658 627.549 20.6993 630.005 21.1872C630.464 21.1795 630.074 20.7322 630.223 20.5406C631.38 21.0694 632.29 20.6002 633.442 20.9022C634.015 20.8168 633.854 20.3846 634.504 20.3547C635.268 20.304 634.781 20.9173 635.166 21.081L636.466 21.059C636.925 21.0512 636.535 20.604 636.685 20.4124C638.975 20.1467 638.915 21.1121 640.561 21.1977C644.227 20.8331 650.193 20.7889 653.402 20.5644C653.902 20.7261 654.553 20.8096 655.546 20.7361C655.848 20.5041 656.497 20.4175 656.606 20.0753L659.168 20.0319C660.142 21.0554 662.572 20.031 663.871 19.9523C664.483 19.9231 665.328 20.1546 666.016 20.124C667.086 20.087 668.034 19.6171 668.807 20.0768C669.497 20.1597 669.107 19.7313 669.643 19.7412C672.509 19.617 675.371 19.2093 677.334 19.9325C681.269 19.6957 685.706 19.7152 689.102 19.2039C691.172 19.5092 693.155 19.1353 695.287 18.5698C695.404 18.7191 695.029 19.1225 695.526 19.0952C696.707 18.8483 697.773 18.5466 698.723 18.1902C699.022 17.788 698.146 17.9919 698.293 17.668C697.115 18.1039 696.609 17.5641 694.89 17.7256C694.32 17.9243 694.135 18.2867 693.41 18.3935C692.066 18.057 691.138 17.5054 689.984 17.0711C692.615 16.6295 696.235 18.0621 698.128 16.9333C697.514 16.8303 696.824 16.7474 696.211 16.6443C696.203 16.2095 697.199 16.2872 697.693 16.0898C695.735 15.6313 691.843 16.1888 690.416 15.4755C690.482 14.8692 692.168 15.0487 693.391 15.0091C693.463 14.7621 693.005 14.7887 693.153 14.4837C692.345 14.2137 689.82 14.1808 689.293 14.6625C688.676 14.3893 687.642 14.3122 686.305 14.3916C686.437 13.1413 689.546 13.8073 691.001 13.8961C691.42 13.7945 691.453 13.4913 691.409 13.1517L693.13 13.1226L693.123 12.7067C688.835 12.4956 683.677 12.7909 679.858 13.1392C679.399 13.147 679.789 13.5942 679.639 13.7858C681.708 13.9777 682.858 14.1284 684.344 13.8196C684.045 14.2218 685.301 13.8224 685.001 14.2245C682.256 14.7059 677.968 14.457 674.76 14.7193C674.335 14.4996 673.911 14.2987 673.676 14.0002C675.088 13.7683 677.659 14.2542 678.604 13.5953C676.528 12.9875 671.679 13.5045 667.897 13.7765C667.713 14.1956 668.628 14.0289 668.33 14.5066C667.418 14.8246 665.348 14.5571 665.36 15.2944C664.898 15.0942 663.981 15.1475 663.633 14.9076C661.383 15.3049 658.738 14.9526 655.947 15.0376C654.036 15.1078 653.093 15.8801 650.838 15.975C650.719 15.7501 651.256 15.8167 651.253 15.6465C650.33 15.3596 649.384 15.9618 648.698 16.1058C648.701 16.2948 648.97 16.3281 648.935 16.5178C651.905 15.7301 658.271 16.7569 660.054 15.9136C661.518 16.5128 664.748 15.248 665.835 16.2318C662.129 16.4458 658.804 16.6155 654.064 16.7524C653.992 16.9995 653.148 16.8625 653.23 17.1826C648.603 17.2798 644.205 17.2785 640.375 16.9841C639.881 17.1437 639.232 17.2114 638.891 17.4252C636.779 16.9126 632.771 17.3775 630.734 16.8258C630.958 16.4627 632.184 16.6121 631.79 15.957C631.099 15.7796 630.142 15.7391 629.64 15.4639C630.746 15.275 632.315 15.3241 632.419 14.6794C633.492 14.7747 634.185 15.0466 634.992 15.2788C635.593 14.6635 636.48 15.0645 637.126 14.8267C637.668 15.2146 640.43 15.6973 641.183 14.966C642.95 15.4656 645.223 14.1413 647.377 14.8612C648.065 14.8496 648.059 14.4904 648.438 14.3138C650.126 14.6067 650.353 14.4327 651.663 14.9967C652.351 15.0039 652.578 14.811 652.726 14.5627C654.869 14.6021 655.822 14.4347 656.783 14.702C657.162 14.4876 657.348 14.2008 657.612 13.9506C659.468 15.1482 662.855 14.1455 665.119 14.561C665.458 14.2527 666.645 14.365 666.83 14.0026C667.092 13.6578 666.141 13.9386 666.403 13.5938C665.445 13.5344 664.989 13.6934 664.494 13.8341C662.847 13.6729 659.475 13.3139 658.067 13.7349C653.287 13.8157 645.019 13.4073 638.831 13.8524C638.253 13.5974 637.258 13.6143 636.689 13.8886C632.931 13.2904 626.253 14.1787 622.992 13.5909C622.69 13.8419 621.81 13.8 621.701 14.1423C619.515 13.8011 617.064 13.6156 614.006 13.743C613.898 14.1419 614.663 14.1101 615.086 14.2542C615.054 14.614 613.981 14.4998 614.026 14.915C614.528 15.2091 616.586 14.7394 616.823 15.1892C617.085 14.8822 618.273 15.0323 618.305 14.6346C619.611 14.9907 620.365 14.335 621.291 14.7921C622.054 14.7035 621.545 13.9936 622.771 14.1241C623.085 14.5537 622.318 14.4722 622.362 14.774C622.442 14.9995 623.433 14.7937 623.855 14.8622C624.154 14.46 623.278 14.6639 623.425 14.34C623.808 14.3713 623.844 14.2573 623.842 14.1249C624.919 14.4849 626.035 14.8442 628.136 14.6952C628.561 14.9527 627.951 15.1143 628.377 15.4286C629.068 15.5492 628.525 15.0857 629.215 15.2064C629.044 16.3816 624.014 15.2566 623.457 16.2493C622.723 15.7701 621.972 16.5959 621.313 16.0776C621.431 16.3025 620.895 16.2359 620.898 16.406C622.622 16.6227 624.764 16.6242 626.261 16.9582C625.928 17.6067 624.466 17.0642 623.283 17.2166C622.824 17.2244 623.174 17.5966 623.062 17.7498C622.414 17.8553 620.879 17.5598 620.924 17.994C620.346 17.739 619.582 17.752 619.013 18.0263C618.365 18.1507 618.626 17.8059 618.585 17.6176C617.244 17.4701 617.213 17.9433 616.027 17.8688L616.018 17.3395L617.929 17.3072C617.655 16.9147 616.926 16.7569 616.196 16.5991C616.76 15.9844 618.034 16.6814 618.988 16.5518C618.866 16.1568 617.872 16.1925 617.903 15.7193C613.59 16.2839 609.405 15.2958 605.283 15.8194C604.986 16.3728 605.94 16.2621 605.719 16.7574C604.84 16.7723 604.492 16.5513 603.802 16.4684C603.796 16.1093 604.137 15.9333 604.864 15.921C602.864 15.2741 601.069 15.4179 599.088 15.9053C598.89 15.5115 597.403 15.7825 597.357 15.2917C594.306 15.8538 590.318 15.2217 587.724 15.6627C586.885 15.7714 587.183 15.3126 586.23 15.48C585.743 16.0933 587.189 15.6906 587.082 16.1085C586.354 16.0451 586.05 16.1826 586.248 16.5386C587.664 16.6281 589.226 16.2424 590.303 16.5834C591.029 16.5711 590.831 16.1396 591.596 16.1455C592.286 16.2851 592.371 16.7375 593.744 16.5252C594.124 16.3864 594.157 16.1022 594.576 15.9816C595.15 16.0097 595.193 16.2927 595.426 16.4967C596.259 15.9721 597.648 16.686 598.416 16.8621C597.616 17.0458 598.084 17.6052 598.849 17.5923C597.63 17.9154 595.752 17.6447 594.375 17.668C593.648 17.6424 594.155 18.2011 593.081 18.0113C593.154 17.821 592.924 17.806 592.656 17.8105C592.843 17.5615 593.531 17.531 593.949 17.3726C593.717 17.2064 592.954 17.3138 592.873 17.0694C592.183 16.9676 592.341 17.2486 592.036 17.2915C589.883 16.6283 585.727 17.4361 582.397 17.2467C581.635 17.4297 582.276 16.8894 581.741 16.9363C580.859 16.7999 581.057 17.1748 580.445 17.1662C580.626 16.577 578.873 16.9848 579.358 16.2392C580.579 16.0672 580.208 16.7353 581.505 16.5243C582.001 16.4781 581.572 15.9937 581.722 15.7832C577.05 15.4651 574.495 15.9055 570.169 15.6572L570.158 15.0145C571.915 14.8524 572.799 15.14 574.214 15.1538C574.789 15.2197 574.053 14.6649 574.628 14.7308C576.012 15.1423 579.444 14.5359 580.183 15.2797C580.563 15.1031 581.019 14.963 580.821 14.5315C582.086 14.6992 581.889 14.3999 582.959 14.2873C583.573 14.4471 585.647 14.9415 585.748 14.1267C582.225 13.8837 576.561 13.7148 572.898 14.2306C569.528 13.9662 565.013 13.8535 561.116 14.1086C560.576 13.853 558.472 13.8318 557.673 14.0534C558.294 14.5912 561.228 13.9365 562.152 14.299C562.391 14.8623 559.711 14.6996 559.592 14.4558C559.134 14.5014 558.831 14.6578 558.758 14.8859C560.521 15.083 562.094 15.3779 563.705 15.6531C563.027 16.2508 560.872 15.512 559.847 15.9264C560.044 16.3202 559.514 16.6128 559.861 16.7771C561.742 17.1991 564.209 16.0606 564.802 17.2229C562.847 16.9535 560.454 17.9016 560.096 17.0946C559.367 16.9935 559.757 17.4218 559.684 17.631C557.124 17.7878 553.247 16.9647 553.506 18.681C552.931 18.634 551.826 18.8418 551.592 18.6C551.817 18.3125 552.466 18.2448 553.076 18.1588C552.991 17.6686 552.3 17.4912 551.76 17.2356C550.878 17.0993 551.076 17.4741 550.464 17.4656C549.847 17.2113 548.776 17.1916 548.957 16.5456C549.986 16.3769 549.84 16.7954 550.681 16.7245C551.479 16.4462 550.215 16.3352 550.439 15.9911C549.867 16.1142 548.798 16.2268 548.525 15.91C548.211 15.4237 549.516 15.6852 549.587 15.3626C549.651 14.624 548.804 14.3358 549.332 13.892C548.183 13.7791 548.46 14.3038 547.619 14.337C547.269 13.9836 546.577 13.8062 546.113 13.5115C547.905 13.1976 551.24 13.6328 552.3 12.9908C549.617 12.6202 547.391 12.1663 544.608 12.705C544.03 12.469 541.236 12.3461 540.746 12.7704C540.4 12.6628 540.206 12.477 539.898 12.3687C538.151 13.0979 535.264 12.0311 533.707 12.6815C533.792 13.1717 534.976 13.0949 535.44 13.3896C537.078 12.9648 542.213 13.5775 544.617 13.2343C544.815 13.6281 546.34 13.3564 546.12 13.9463C544.216 14.3946 540.808 14.1686 538.209 14.2882C538.062 14.6122 538.938 14.4082 538.639 14.8104C539.747 14.7916 540.932 14.696 541.206 15.0884C541.519 15.4802 540.25 15.1235 540.563 15.5153C540.607 15.836 541.485 15.7455 541.642 16.0265C540.926 16.6248 540.766 16.2115 539.083 16.1833C537.667 16.1505 536.102 16.3661 535.221 16.2486C534.684 16.1821 534.068 15.9278 532.846 16.0808C532.663 16.5566 533.732 16.4062 533.7 16.8038C535.182 16.2304 536.848 17.5069 539.057 16.9212C539.406 17.1989 539.945 17.3978 539.725 17.9688C539.227 17.9394 538.919 17.8122 538.232 17.8806C538.226 17.5781 537.502 17.6849 537.8 17.245C537.073 17.2195 537.464 17.7045 537.161 17.8987C536.66 17.6992 535.819 17.6756 534.787 17.7309C534.49 18.2843 535.444 18.1736 535.223 18.6689C534.348 18.9107 533.654 18.601 532.432 18.7162C532.587 18.827 532.931 18.8212 532.858 19.0304L531.788 19.0485C532.432 18.7162 531.624 18.4084 530.704 18.3294C530.246 18.3372 530.636 18.7844 530.486 18.976C531.405 19.0361 532.02 19.2526 532.219 19.6842C533.062 19.7644 532.748 19.3159 533.707 19.451C533.941 19.7496 533.943 19.8819 533.719 20.1882C532.497 20.2846 531.148 19.6645 530.316 20.2458C528.172 20.093 527.848 19.0207 527.068 18.1829C527.605 18.2684 527.877 18.4907 528.793 18.3618C528.825 18.0209 528.441 17.9139 527.942 17.8467C528.814 17.3403 527.548 17.1159 528.342 16.573C526.038 16.0258 523.624 15.8208 520.649 16.2872C521.23 16.6934 522.493 16.7665 523.036 17.1923C522.27 17.1674 521.659 17.2156 521.126 17.338C520.866 17.8341 521.858 17.6849 521.561 18.1816C520.296 18.0517 519.828 17.5113 519.17 17.0497C518.216 17.1415 517.754 16.998 517.255 16.8741C516.032 16.9515 517.382 17.5905 516.197 17.6295C515.453 16.6398 518.392 16.2309 518.976 16.845C519.664 16.8522 519.89 16.6593 520.039 16.411C520.035 16.1841 519.121 16.3887 518.737 16.3195C518.07 15.3286 516.553 16.0729 515.092 15.6438L515.081 15.001C515.922 14.949 515.891 15.4033 516.381 14.979C517.108 14.9667 516.924 15.4048 517.689 15.3729C518.336 15.1918 518.751 14.9011 519.591 14.8113C517.012 13.8338 511.475 14.3624 507.607 14.0686C507.267 14.3013 507.543 14.8071 506.316 14.6199C506.561 15.5234 509.422 15.0779 510.387 15.6099C510.7 16.0017 509.432 15.645 509.744 16.0368C508.86 15.7681 507.674 15.7693 506.529 15.8832C506.531 16.0156 506.494 16.0729 506.303 16.095C506.741 17.1087 510.06 16.6366 512.319 16.7307C512.632 17.1981 511.712 17.0624 511.911 17.4751C510.763 17.4756 509.843 17.3399 508.506 17.4192C508.047 17.4648 508.438 17.9498 508.289 18.1604C507.752 18.0749 506.457 18.3994 506.564 17.9815C506.071 18.179 505.962 18.5401 504.851 18.4266C504.74 18.6742 505.132 19.1971 504.636 19.2811C502.597 18.5781 503.221 17.0359 501.37 16.1596C502.058 16.0913 502.441 16.1793 502.674 16.3456C504.142 14.9782 497.392 16.1135 496.043 15.5123C495.019 16.0402 494.091 15.4508 492.64 15.5699C492.441 15.1194 493.245 15.1437 493.277 14.8216C493.272 14.5192 492.623 14.5869 492.618 14.3033C490.787 14.5991 486.226 14.0144 485.364 15.069C487.015 15.4004 490.674 14.6766 491.149 15.614C490.767 15.6394 490.076 15.5187 490.311 15.8362C488.775 15.484 484.876 15.5689 483.891 16.1529C483.163 16.0706 482.927 15.7153 482.389 15.5354C480.291 15.8923 479.327 15.417 475.778 15.8552C475.719 16.9152 479.642 15.9222 480.076 16.728C478.9 17.2773 477.554 16.8652 476.68 17.2014C475.912 17.0253 475.561 16.6342 474.111 16.8289C473.776 17.3451 474.73 17.2155 474.774 17.5552C473.665 17.5739 472.859 17.4174 472.849 16.8503C471.893 16.8664 471.284 17.0091 470.945 17.2985C470.245 16.6296 467.497 17.0165 466.456 16.5235C467.219 16.3972 469.023 16.7637 468.822 16.162C469.173 16.591 471.313 16.4792 471.804 16.1116C472.537 16.4585 474.331 16.239 475.67 16.2542C475.968 15.8142 475.205 15.9217 475.238 15.6186C471.493 15.8332 467.355 15.3549 464.994 15.9999C464.773 16.4764 466.561 15.9167 466.074 16.5111C463.445 17.1229 461.544 15.5099 457.917 15.9117C457.389 16.3744 457.787 17.2564 458.175 17.5902C457.025 17.4773 455.383 17.6186 455.788 16.6851L457.279 16.6599L457.272 16.244C457.117 16.1143 455.165 16.015 455.362 16.3898C454.786 16.2105 454.626 15.835 454.05 15.6746C453.709 15.8883 452.636 15.7741 452.759 16.2259C450.844 16.0881 450.202 16.5528 448.48 16.5063L448.473 16.0904C447.667 15.9527 448.057 16.3811 447.406 16.3164C447.705 15.9143 446.829 16.1182 446.976 15.7943C447.049 15.5661 447.352 15.4097 447.81 15.3641C448.46 15.3531 448.466 15.6745 448.471 15.9959L450.383 15.9635C450.795 15.446 449.652 15.6923 449.722 15.3318C450.561 15.1852 450.149 15.6649 451.026 15.5177C451.331 15.4747 451.212 15.2498 451.248 15.098C449.868 14.8944 448.563 14.6329 447.183 14.4293C446.339 14.2734 447.114 14.8843 446.54 14.8562C445.852 14.8867 445.619 14.7016 445.462 14.4584L442.671 14.5057C441.274 15.5693 438.204 14.9783 436.247 14.6144C435.441 14.4767 435.831 14.905 435.18 14.8404C433.068 14.3656 428.688 15.4419 426.191 14.7845C425.772 14.9051 425.315 15.0074 424.896 15.1279C424.909 15.8651 426.814 15.4358 427.269 15.2012C427.123 15.6197 428.532 15.2555 428.348 15.7124C428.7 16.1792 426.933 15.6796 427.285 16.1464C428.596 16.786 431.793 15.8432 432.23 16.8002C430.2 16.6454 428.948 17.2528 427.756 16.8759C427.222 16.9795 426.92 17.1737 426.463 17.3138C426.618 17.4246 426.962 17.4188 426.889 17.628C428.034 17.4574 429.599 17.2985 430.751 17.5627C427.853 18.1033 425.184 18.5645 421.583 18.2473C421.399 18.6664 421.935 18.6951 422.244 18.879C423.422 18.443 423.815 19.0415 425.458 18.9381C425.695 19.3879 425.238 19.528 425.052 19.7958C423.175 19.6196 422.17 18.9937 419.497 19.2469L419.482 18.3963C416.95 17.9097 413.442 18.5741 410.493 18.3404C410.577 18.755 409.234 18.513 409.202 18.8917C407.358 18.3934 406.179 18.7916 404.071 18.5625L404.062 18.0332C403.147 18.1811 403.103 17.8792 402.568 17.8505C402.216 17.4404 403.485 17.7972 403.403 17.5149C401.558 16.941 396.205 17.0316 394.181 17.2549C389.01 16.7941 384.273 17.139 380.484 16.9573C380.191 17.7375 381.453 17.7351 382.867 17.6544C383.177 17.895 383.335 18.1949 383.72 18.3774C384.861 17.961 385.136 18.4291 386.703 18.327C386.976 18.6627 386.016 18.4142 386.289 18.75C384.527 18.5718 383.533 18.6075 382.427 18.8153C381.775 18.694 381.843 18.2012 381.342 17.9828C380.652 17.8621 381.195 18.3256 380.505 18.2049C379.768 17.5934 379.789 16.572 377.08 16.996L377.086 17.3173C377.32 17.597 377.971 17.6427 378.584 17.708C378.555 18.2757 377.706 17.7985 377.098 18.0546C377.104 18.4138 377.982 18.3044 377.95 18.6831C376.646 18.4593 376.533 18.5747 375.583 18.9311C375.542 18.7427 375.804 18.3979 375.155 18.5224C374.043 18.3143 374.973 19.0549 374.092 18.9564C373.471 18.4185 372.091 18.2717 370.674 18.1633C371.892 17.7645 369.676 17.9155 369.821 17.4403C370.317 17.3752 370.812 17.2722 371.54 17.2977C371.72 16.6329 370.231 16.8282 370.677 16.0454C368.76 15.7753 365.509 15.7547 363.181 16.0588C359.697 15.8719 355.522 15.5077 352.702 16.1227C353.97 16.4605 355.845 16.5044 357.643 16.5685C358.102 16.5229 357.828 16.1683 358.286 16.1416C361.613 16.1042 363.764 16.654 367.281 16.5189C366.417 17.4411 362.962 16.7243 361.507 16.6166C361.242 16.7913 360.67 16.8577 360.868 17.2703L359.377 17.2956C359.888 18.1 362.087 17.0039 362.368 17.7744C362.26 18.1733 360.726 17.9156 360.463 18.2226C359.193 17.7336 356.634 17.9282 354.908 17.6737C353.804 17.9382 355.38 18.441 354.924 18.6189C354.663 18.9826 353.965 18.446 352.783 18.6551C353.222 17.4942 350.818 17.8186 349.362 17.6541C349.165 17.3171 349.547 17.2539 349.774 17.1177C349.385 16.7272 348.199 16.7283 348.265 16.0843C345.433 16.0188 343.793 16.2923 341.002 16.3207C341.21 17.3193 345.171 16.3636 345.948 17.0879C346.784 16.7334 348.159 16.6534 348.742 17.1541C349.054 17.5459 348.172 17.3717 348.33 17.6905C348.948 18.0771 349.832 18.3269 351.134 18.3805C350.987 18.7612 348.924 18.9095 348.574 18.5373C348.232 18.6565 348.044 18.8488 347.74 18.9674C346.748 19.1166 347.007 18.6205 346.015 18.7886L345.999 17.8434L347.911 17.811C347.137 17.238 344.505 17.6607 343.199 17.3613C342.625 17.3332 343.4 17.9441 342.556 17.7882C343.367 18.2094 344.096 18.3483 345.353 18.0623C345.861 18.6966 344.171 18.2714 344.524 18.8138C344.058 18.3868 342.227 18.6447 342.157 19.0619C340.78 19.0663 340.01 18.7389 338.747 18.7036C338.559 18.8958 337.947 18.8873 338.106 19.2439C339.41 19.4487 340.637 19.636 341.97 19.292C342.055 19.7822 340.405 19.4697 340.258 19.8504C337.768 19.6089 335.444 20.1209 332.108 19.6668L332.097 19.0241C331.371 19.0364 331.569 19.4679 330.804 19.462C330.8 19.2162 330.417 19.166 330.564 18.8231C330.829 18.6674 331.48 18.6942 332.053 18.6845C331.7 18.161 330.475 18.0872 330.122 17.5448C328.875 18.4735 326.181 17.4413 324.355 18.0584C324.587 18.1868 324.97 18.2371 324.785 18.5806C323.755 18.7493 323.901 18.3308 323.06 18.4017C322.833 18.5002 322.643 18.6168 322.416 18.7341C323.148 19.081 325.739 18.451 325.826 19.0924C323.683 19.0152 322.044 19.3455 320.893 19.1759C320.641 20.0878 323.384 19.4552 323.701 20.0738C320.411 20.0539 319.074 20.1521 316.01 19.8825C316.308 19.4426 315.545 19.55 315.578 19.2469C316.223 18.9335 316.714 18.5281 318.361 18.6704C316.591 18.0952 313.154 18.3803 310.209 18.3923C309.751 18.4379 310.142 18.9229 309.992 19.1334C311.717 19.369 314.494 18.4711 314.473 19.4736C312.52 19.3365 310.265 19.4503 307.858 19.5856C307.304 20.7484 302.479 20.4329 300.373 20.2417C300.322 19.524 298.679 19.6085 298.439 19.0075L296.528 19.0398C296.524 18.8508 296.256 18.8175 296.291 18.6278C295.601 18.5072 296.144 18.9707 295.453 18.85C293.416 18.2416 290.715 19.1193 289.037 19.3746C288.16 19.5407 288.345 19.1594 287.733 19.1887C287.505 19.2682 287.508 19.4383 287.087 19.4076C287.245 19.7453 288.892 19.8687 289.23 19.4848C289.577 19.668 290.417 19.5782 290.537 19.8787C288.592 20.2141 285.992 20.2392 283.7 20.4104C284.392 20.6256 285.278 20.9888 284.368 21.458C282.563 21.0347 279.507 21.2755 276.868 21.2635C276.899 20.8469 275.831 21.0163 275.786 20.6388C274.722 21.0539 273.465 21.3588 271.515 21.354L271.504 20.7113L274.066 20.668C274.213 20.344 273.678 20.372 273.825 20.0291C273.135 19.9084 272.786 19.6496 271.679 19.744C271.338 19.9577 271.383 20.373 270.619 20.4048C271.588 21.1637 268.688 21.5721 266.584 21.532C266.706 21.946 267.509 21.9891 268.503 21.9156C268.776 22.2513 267.816 22.0028 268.089 22.3386C266.592 22.0424 263.883 22.3908 262.727 21.8998C262.527 21.3738 263.368 21.3595 263.785 21.1445C263.587 20.7507 262.783 20.6698 263.115 19.9834C262.61 19.5193 259.929 19.2999 260.329 20.352C259.983 20.2444 259.789 20.0586 259.481 19.9504C258.805 20.6804 255.854 20.3332 253.944 20.4601L253.951 20.876C254.185 21.1178 255.29 20.8911 255.865 20.957C255.987 21.3899 254.22 20.9471 254.805 21.6179C254.002 21.6315 254.261 21.1166 253.307 21.2272L253.294 20.49C251.921 20.6834 250.161 20.6754 249.019 20.9783C247.67 20.3583 243.818 21.0285 242.81 20.2325C241.519 20.7649 242.484 21.2969 241.766 21.8385C240.538 21.5568 241.483 20.9168 241.512 20.3679C239.024 20.2398 235.162 20.3241 232.945 20.3994C232.877 20.8733 234.135 20.6251 234.256 21.0202C233.796 20.9712 232.768 21.2155 232.952 20.8342C232.958 21.1367 231.768 20.911 231.889 21.2682C231.311 21.0133 230.546 21.0262 229.977 21.3006C230.516 21.5184 230.525 22.0288 230.836 22.345C229.686 22.1942 228.384 22.1028 227.386 21.8739C228.749 21.0566 226.222 20.8914 226.057 20.2134C226.594 20.2989 226.866 20.5212 227.782 20.3923C227.536 19.451 226.343 18.9984 224.126 19.0738C223.788 19.4388 223.45 19.8038 222.842 20.041C220.345 19.4214 217.76 20.3728 215.584 20.5798C215.778 20.7278 216.313 20.6998 216.431 20.8869C217.236 21.0245 216.846 20.5962 217.498 20.6608C217.502 20.9066 217.885 20.9568 217.738 21.2997C220.338 21.2368 220.814 22.2687 222.883 22.4795C226.057 22.4636 228.739 22.7397 231.876 22.7434C234.022 22.9907 237.056 23.7335 239.148 23.0363C239.484 22.5768 237.963 23.0753 238.299 22.6347L238.72 22.6276L238.716 22.4196C239.365 22.2952 239.103 22.64 239.144 22.8284C240.903 22.7797 242.206 22.9657 244.079 22.8583C243.116 22.4964 242.95 21.7429 242.557 21.0877L246.419 21.0223L246.431 21.7596C247.505 21.9305 248.113 21.6744 249.414 21.7091C249.571 21.9523 249.045 22.5474 249.847 22.4393C249.969 22.8532 248.664 22.5916 249.016 23.0962C254.574 23.8153 262.514 22.8678 267.652 23.6318C269.25 23.1131 271.972 23.5209 273.429 23.742C275.982 23.1883 278.25 23.8117 280.92 23.4073C281.139 22.7795 279.425 23.1867 279.416 22.6952L280.716 22.6732C280.476 22.0533 278.91 22.1365 277.92 22.3991C277.433 23.0314 279.449 22.3921 279.229 22.9064C277.896 23.2882 277.502 22.5953 276.013 22.7528C275.85 22.1316 276.769 22.1917 275.997 21.8076C276.456 21.7621 276.759 21.6057 276.831 21.3775C278.861 21.4945 279.98 22.0995 282.616 21.9225C282.816 22.4297 281.589 22.2803 281.789 22.7875C281.723 23.3937 283.591 23.0028 283.941 23.3939C285.384 22.7833 288.307 23.7361 290.553 23.0741C291.404 23.6459 293.603 22.5308 294.609 23.2134C297.697 22.575 301.385 23.5526 305.083 22.8282C306.698 23.3303 310.205 22.6848 311.28 22.9313C311.739 22.8857 312.042 22.7293 312.115 22.5012C315.904 22.6829 319.987 22.1411 323.669 22.7217C323.775 22.2093 326.156 22.793 326.224 22.2624C327.418 22.7906 328.669 22.1076 330.277 22.1938C330.813 22.2037 329.391 21.8306 330.268 21.6645C330.993 21.5388 330.618 21.9801 330.698 22.1867C332.72 21.9256 334.299 22.5607 335.401 22.1071C336.099 22.7004 339.642 21.8463 340.34 22.4396C340.906 21.9762 343.438 22.4439 343.966 21.9622C345.506 22.5979 347.329 21.8485 348.905 22.2946C349.055 22.103 349.552 22.1135 349.741 21.959C348.773 21.2947 345.417 21.8431 344.373 21.1989C346.397 20.9756 350.83 20.7682 351.234 22.0283C356.206 22.0387 357.774 22.0122 361.714 22.0589C362.052 21.694 362.93 21.5845 363.422 21.2926C364.693 21.7816 367.631 21.4104 369.205 21.7242C369.349 21.1923 368.052 21.4033 368.348 20.7932C369.875 20.6728 370.228 21.1774 371.567 21.1548C371.802 21.4911 371.227 21.4252 371.153 21.5778C371.771 21.9455 374.068 22.0579 374.561 21.8415C377.012 22.027 380.068 21.7862 383.13 21.9045C384.546 21.9562 385.814 22.294 387.192 22.3653C390.178 22.5038 393.506 22.561 395.295 22.0201C396.864 22.107 399.344 21.7247 400.231 22.1446C400.921 22.2653 400.378 21.8018 401.068 21.9224C403.102 22.304 406.576 21.9238 408.344 22.4422C408.986 21.9586 411.787 22.4596 412.39 21.9578C412.89 22.1006 413.541 22.1463 413.888 22.3484C414.347 22.3028 414.65 22.1464 414.723 21.9183C415.945 21.822 417.707 22.0001 418.582 21.7395C417.504 21.2661 415.894 21.0665 415.99 19.987C416.258 19.9825 416.185 20.1728 416.225 20.3045C416.956 20.5379 418.558 20.3028 419.63 20.3603C419.55 20.1726 419.78 20.1498 420.047 20.1453C419.696 19.7541 419.701 20.0188 420.038 19.616C421.153 19.9753 422.713 19.495 422.842 20.306C422.265 20.1077 421.271 20.1246 420.694 19.9263C420.287 20.7463 422.998 20.4735 424.333 20.2807C424.8 20.7456 424.198 21.3041 424.586 21.6568C425.165 21.9685 427.298 21.4597 427.574 21.9277C431.998 21.191 436.444 21.7209 439.955 21.3022C440.756 21.1374 440.381 21.5786 441.03 21.492C443.31 20.6214 449.142 21.7518 450.844 20.5885C451.852 21.4223 454.518 20.7532 456.209 21.2351C456.858 21.1674 457.083 20.8611 457.5 20.6838C462.754 21.5026 469.929 20.587 476.322 20.8948C479.115 20.9799 483.472 20.7738 486.806 21.1334C487.415 21.0096 487.331 20.5383 487.864 20.378C488.592 20.4602 488.865 20.796 489.176 21.0933L489.826 21.0823C490.285 21.0745 489.935 20.7023 490.047 20.5491C490.002 20.1906 488.441 20.5763 488.548 20.1584C490.311 20.3177 490.842 20.1007 491.955 20.3088C491.268 20.3961 491.197 20.7376 491.547 21.0532C491.551 21.28 492.465 21.0754 492.849 21.1446L492.86 21.7873L493.93 21.7692C493.924 21.41 493.046 21.5194 493.078 21.1407C494.411 20.7967 497.672 21.3655 498.002 20.5279C498.432 21.069 500.73 21.257 500.984 20.4774C503.665 20.6968 506.081 21.0341 508.686 21.2926C509.181 21.1518 509.637 20.9739 510.594 21.0523C510.87 21.5582 509.875 21.4805 509.958 21.914C510.342 22.002 510.537 22.1689 511.035 22.2172C511.991 22.201 511.789 21.5993 512.937 21.6555L512.927 21.0128C514.683 20.8507 515.416 21.2165 516.149 21.6012C516.49 21.3685 515.647 21.3071 516.368 20.9546C520.168 21.7412 525.202 20.8996 530.064 21.1388C530.55 20.5255 529.104 20.9282 529.211 20.5103C532.765 20.28 534.21 22.0897 537.558 21.012C538.943 21.4802 542.185 20.9715 543.57 21.4397C544.065 21.299 544.212 20.975 544.861 20.8884C545.481 21.3885 546.936 21.4584 547.253 22.1149C546.64 22.0685 545.459 22.3343 545.756 21.8187C543.278 22.2767 540.587 21.4335 538.492 21.9417C534.116 21.0513 528.868 22.8231 525.02 21.4322C522.728 21.6222 520.89 21.4643 518.407 21.6575C518.339 22.1503 518.877 22.3303 519.909 22.275C518.811 22.9554 514.976 22.3207 513.07 22.7122C508.541 21.7867 503.135 23.2585 499.367 22.0932C499.205 21.5665 500.594 22.2804 500.855 21.86C499.89 21.3847 497.448 21.7097 496.37 21.293C496.372 21.4253 496.335 21.4827 496.144 21.5048C495.382 21.6879 496.644 21.6476 496.381 21.9168C493.779 21.8852 490.99 22.0648 488.692 21.8389C488.423 21.8057 488.303 21.4673 488.035 21.434C486.961 21.2631 485.55 21.5139 484.632 21.4916C482.642 21.4308 481.343 21.5473 479.508 21.5783C478.59 21.5939 477.471 21.0266 476.717 21.6256C474.464 21.8717 472.919 20.9902 471.593 21.7123C471.598 22.0147 472.323 21.9079 472.024 22.3479C470.837 22.2734 470.155 22.6253 469.233 22.3951C469.303 21.9779 470.143 21.907 471.138 21.9469C471.284 21.5095 470.444 21.5994 470.058 21.4357C464.783 21.6195 457.667 21.4941 452.089 21.8532C452.404 22.3774 453.887 21.8606 454.46 21.8131L454.471 22.4558L457.033 22.4125C457.412 22.217 457.598 21.9113 458.092 21.7517C461.501 22.0532 465.745 21.9436 469.002 22.3045C462.584 22.7346 454.512 22.6631 447.63 22.7796C447.928 22.3396 447.165 22.4471 447.198 22.144C441.341 21.8082 433.469 22.2251 425.591 22.3016C425.329 22.6464 426.281 22.3656 426.019 22.7104C425.446 22.7768 424.334 22.6066 424.109 22.8562C423.811 23.334 424.802 23.1281 425.414 23.1555C425.877 23.3557 423.848 23.2577 423.275 23.3052C423.999 23.1228 423.46 22.9428 423.037 22.7798C422.501 22.7888 422.506 23.0346 422.201 23.1154C422.28 23.2653 422.738 23.2008 423.044 23.2146C422.329 23.8696 420.671 23.1035 418.764 23.4005C418.837 23.229 419.45 23.2943 419.177 22.9775C419.022 22.8666 418.678 22.8724 418.751 22.6632C416.732 23.1134 415.114 22.4789 413.402 22.9617C411.824 22.3833 408.356 23.1606 407.204 22.8586C406.976 22.9381 406.978 23.1083 406.557 23.0776C406.295 23.4224 407.247 23.1415 406.985 23.4863C406.103 23.3689 404.994 23.3687 404.416 23.1138C401.937 23.515 398.457 23.555 397.148 23.0288C394.822 23.4841 391.521 22.7836 388.388 22.969C388.393 23.2715 389.118 23.1647 388.819 23.6046C382.998 23.1737 375.624 23.6199 369.767 23.2841C369.194 23.3317 369.161 23.6348 368.279 23.5173C362.148 22.8647 353.372 24.091 348.154 23.1204L345.363 23.1677C343.25 22.6361 337.444 23.0558 334.65 22.9329C335.615 23.465 339.007 22.7458 339.138 23.7079C337.528 23.5271 331.763 24.1542 329.499 23.663C329.077 23.6323 328.849 23.6929 328.852 23.882C328.355 23.8715 328.729 23.4113 328.843 23.3527C328.799 23.0319 327.77 23.2006 327.119 23.1738C327.24 23.5311 328.081 23.5357 328.202 23.893C327.703 23.769 327.241 23.6067 326.287 23.7174C326.168 23.4925 326.705 23.559 326.702 23.3889C325.005 22.5478 321.048 23.7682 318.55 23.1108C317.143 23.5507 314.077 23.2243 312.554 23.6283C312.412 24.2547 314.624 23.858 314.927 23.7016C316.768 23.9919 321.013 23.9579 322.842 23.5677C322.505 24.0272 324.027 23.5287 323.69 23.9693C319.564 24.2471 315.235 23.8477 311.728 24.4932C303.888 24.5691 288.287 24.7764 279.23 25.2511C279.247 26.2341 281.035 25.6555 282.028 25.6198C286.195 25.4926 292.165 25.6563 295.948 25.4977L295.959 26.1404L299.362 26.0828C299.468 25.5327 298.739 25.3937 297.631 25.4692C297.472 25.1504 298.931 25.4472 300.001 25.4291C301.072 25.411 303.898 25.1741 301.722 25.4C301.188 25.5036 300.925 25.7349 300.005 25.637L300.012 26.0529C303.873 25.9498 309.856 26.9074 313.468 25.6172L313.477 26.1465C314.397 26.2633 314.43 25.9602 314.964 25.9134C314.968 26.1024 315.123 26.2699 315.392 26.3221C315.62 26.2426 315.617 26.0725 316.039 26.1032C316.375 25.6437 314.93 26.1219 314.963 25.7999C316.405 25.1704 318.608 26.5324 320.086 25.7132C320.887 25.5484 320.132 26.1852 320.933 26.0204C321.661 26.1215 321.272 25.6932 321.344 25.4839L324.327 25.4335C324.445 25.6584 324.025 25.6466 323.68 25.6524C324.718 25.9185 325.055 25.4968 326.239 25.4011C326.512 25.7368 325.552 25.4884 325.825 25.8241C326.059 26.066 327.164 25.8393 327.739 25.9052C326.814 25.467 327.724 25.0356 328.138 24.6315C328.905 24.7698 329.256 25.1231 329.871 25.3396C333.312 25.2247 335.987 25.1416 339.924 24.9615C339.928 25.2262 340.425 25.2178 340.581 25.3664C341.919 25.3438 342.255 24.8275 343.786 24.8962C344.514 24.9784 344.408 25.5096 345.705 25.2797C345.635 25.6591 344.292 25.4549 344.222 25.8342C343.338 25.5467 340.163 25.5248 339.29 25.9177C338.678 25.9092 334.62 25.7131 334.173 26.4203C333.595 26.1654 333.399 25.885 332.678 26.2376C332.939 25.7983 332.326 25.7708 331.601 25.8398C331.57 26.2564 332.638 26.087 332.682 26.4644C330.887 26.6083 327.713 26.6242 326.064 26.3684C325.298 26.3436 325.228 26.6851 324.578 26.715C316.74 26.8666 307.328 26.6666 298.925 27.3572C298.464 27.2137 297.542 27.0024 297.204 27.3863C296.518 27.5113 296.666 27.2252 296.36 27.1926C295.942 27.3887 294.569 27.601 294.218 27.2288C289.718 27.9668 280.918 27.7942 276.063 27.952C275.222 27.9663 274.338 27.7354 273.498 27.7874C271.014 27.9429 268.38 28.2144 265.586 28.1293C259.731 27.9448 253.618 28.3318 248.032 28.2184C247.342 28.1355 247.231 28.3265 246.965 28.4444C242.37 28.1062 235.253 27.9619 230.935 28.1862C229.593 27.9631 226.569 27.8441 225.584 28.3902C222.396 27.5744 218.748 29.0165 215.748 28.0272C213.272 28.5986 208.094 27.7786 205.921 28.1935C204.312 28.0128 201.205 27.4602 200.148 28.2912C197.917 27.5726 193.686 28.4006 190.729 27.7132C190.117 27.7235 190.237 28.0429 189.664 28.0526C187.59 27.5394 184.23 27.8988 181.747 28.0732C182.046 27.671 180.791 28.0704 181.09 27.6683C175.999 27.433 169.959 27.6297 165.484 27.6109C163.928 28.2991 159.634 27.7099 157.807 28.2703C155.084 27.8058 149.633 28.9191 146.486 28.2538C144.427 28.6102 141.524 28.8862 139.228 28.7927L139.221 28.3768C135.818 28.4344 133.097 28.1211 129.391 28.3351C129.129 28.6799 130.08 28.3991 129.818 28.7439C128.902 28.8161 128.44 28.6727 128.32 28.3533C126.635 28.2305 124.23 28.4792 122.962 28.1225C119.259 28.5822 115.167 28.5758 111.002 28.8543C108.825 29.0046 106.187 29.0493 103.929 28.974C94.4002 28.6814 84.2643 28.6639 74.6236 28.5245C73.7802 28.4064 74.2088 28.8718 73.3271 28.7544C72.4435 28.5235 70.1092 28.4496 69.274 28.823C61.4626 28.2934 52.4095 28.976 44.2549 28.5089C42.0343 28.3763 39.4343 28.4203 37.8242 28.2017C35.7154 27.8971 32.9688 28.3217 30.9779 28.2041C29.906 28.1466 29.2114 27.7802 28.1758 27.6086C26.7951 27.3862 24.6176 27.5365 24.1067 26.732C23.1903 26.8232 22.6528 26.6999 22.3806 26.4398L19.8188 26.4831C17.6217 25.4803 17.4722 23.4217 12.2797 23.9634C12.2854 24.3037 12.6328 24.4869 12.5251 24.9047C11.5281 24.7514 10.7203 24.4815 10.5953 23.8785C9.74583 23.4012 7.79833 23.5854 6.72803 23.6225C6.04233 23.7853 6.08953 24.314 5.6734 24.5858C4.31433 23.3797 2.19629 22.5268 0.268476 21.6139C0.402548 20.496 1.61588 19.8704 1.94273 18.8438C4.47082 19.0657 4.41531 18.0456 6.86628 18.231C7.20849 18.1117 7.39647 17.9195 7.70044 17.8009C10.6886 18.0907 14.3112 17.4432 17.7601 17.8386C17.8936 16.6829 15.2578 16.8788 13.6946 17.17C13.3766 16.4568 14.6779 16.5104 14.3213 15.779C17.6797 15.344 17.9536 13.4484 21.7744 13.2136C22.2319 13.1302 22.612 12.9914 22.6066 12.67C24.4056 12.7531 24.9709 12.2519 26.8856 12.3896C29.5908 11.7766 34.334 11.8098 36.2988 12.6463C45.8771 13.6188 57.7693 13.4554 68.5988 13.7827C69.5184 13.8806 69.7822 13.6492 70.3159 13.5456C70.9759 14.1206 74.3282 13.3264 75.0261 13.8819C80.7554 13.4257 90.0983 14.0429 96.3967 13.3123C97.4358 13.6918 101.105 13.5351 102.17 13.2146C103.056 13.5399 104.235 13.1796 104.732 13.1712C118.654 13.1814 138.195 12.9453 152.843 12.8865C154.56 12.6873 158.8 12.3508 161.408 12.7416C164.649 12.1573 168.75 12.6552 171.234 12.5753C172.301 12.2925 176.276 12.1685 178.496 12.2444C187.489 12.5271 198.118 12.3473 206.31 12.7192C209.017 12.2385 214.653 13.0318 217.019 12.746C220.699 13.2321 226.237 12.7602 229.879 13.2658C231.632 12.858 233.7 13.0499 235.653 13.1681C243.501 13.6215 252.903 13.1977 260.902 13.4783C261.707 13.6159 261.317 13.1876 261.969 13.2522C265.375 13.3648 270.353 13.7533 273.52 13.2648C281.746 13.4281 291.527 12.8466 299.826 12.8196C300.323 12.8112 300.129 12.6443 300.473 12.6007C305.319 11.9325 315.316 12.8033 320.774 12.1437C321.347 12.0772 322.334 11.6634 323.145 12.1035C334.921 11.8475 352.154 10.8563 363.14 11.4267C363.715 11.4548 364.745 11.3428 365.699 11.1754C370.333 11.5508 376.295 11.2609 381.725 11.2257C381.426 11.6278 382.682 11.2284 382.382 11.6306C384.935 11.039 387.663 11.787 389.644 11.2997C412.296 11.8807 435.528 10.5232 459.769 10.113C473.076 9.88783 483.897 9.70471 495.264 10.1553C495.8 10.184 496.059 9.66909 496.564 10.1333C497.254 10.235 497.096 9.95408 497.401 9.91109C498.477 10.1954 498.396 9.91317 499.772 9.87098C500.967 10.418 504.971 9.72627 507.461 9.94886C507.844 9.9802 508.192 10.2201 508.537 10.2521C512.021 10.439 515.688 10.1689 519.247 10.2789C530.459 10.6186 542.194 10.1742 553.252 10.4409C554.057 10.5785 553.667 10.1502 554.319 10.2148C557.192 10.5066 565.101 9.99456 570.156 10.3628C571.406 9.67986 573.796 10.7929 575.085 10.0714C575.584 10.1953 576.238 10.4301 576.576 10.0462C592.684 10.3787 610.877 9.63593 626.188 10.379C627.032 10.4971 626.603 10.0316 627.485 10.1491C645.318 10.7549 664.415 9.14594 684.151 9.19014C694.084 8.4737 705.829 8.67204 712.815 10.18C710.943 10.2873 710.4 9.84269 708.953 10.2454C708.995 10.4337 708.733 10.7785 709.381 10.6541C708.505 10.8391 706.935 10.7711 705.33 10.8361C705.101 10.8589 705.181 11.0467 704.913 11.0512C704.841 11.2982 704.92 11.4482 705.151 11.5766C705.617 11.9469 707.257 11.6923 708.367 11.7302C707.577 12.5378 704.475 12.2688 703.03 12.766L703.039 13.2953C703.465 13.6284 704.835 13.2271 705.606 13.5733C705.733 14.2897 703.894 14.0939 702.632 14.1531C702.643 14.7958 703.26 15.1068 704.56 15.0659C703.991 15.3592 703.924 15.8898 702.661 15.8355C702.856 16.0591 703.506 16.0481 703.511 16.3506C704.622 16.4642 704.885 16.1572 705.649 16.1064C705.08 16.3997 704.907 17.4804 706.093 17.4793C705.444 17.5848 705.721 18.1474 705.69 18.545L708.672 18.4945C708.231 19.5042 709.76 19.4972 711.48 19.3925C711.485 19.695 710.835 19.706 710.647 19.936C711.339 20.1323 711.842 20.4453 712.572 20.6409C712.005 21.0287 712.022 22.0306 712.182 22.4439C713.254 22.5581 713.479 22.2896 713.666 22.0028C714.667 22.4019 713.23 23.3905 711.968 23.4119L711.975 23.8278C712.707 24.1368 713.925 23.7759 714.535 23.671C714.462 23.8613 714.692 23.8763 714.96 23.8718C714.929 24.3451 714.244 24.5079 713.905 24.8351C713.521 24.766 712.636 24.4217 712.182 24.7508C711.962 25.3218 713.601 24.9537 713.912 25.251C711.907 26.5708 709.363 27.6538 706.702 28.6443C706.349 28.1208 705.275 27.9499 704.316 27.7392C703.479 28.037 701.756 27.9338 701.344 28.4324C701.186 28.1137 702.068 28.2878 701.756 27.896L701.641 27.9169ZM279.075 20.5832C278.152 20.2774 276.546 20.3234 275.206 20.2327C275.223 21.2346 277.657 20.4559 279.075 20.5832ZM471.243 12.3581C470.935 12.1932 469.176 12.2229 468.873 12.3982C469.181 12.5443 471.06 12.834 471.243 12.3581ZM487.925 12.7187C488.577 12.7834 488.187 12.355 488.992 12.4927C493.935 12.9763 500.199 12.4921 506.74 12.5138C506.745 12.8163 507.926 12.5505 507.817 12.9116C511.405 12.4538 515.849 12.9269 519.368 12.9241C520.133 12.9112 520.932 12.6896 521.735 12.6761C522.844 12.6573 524.036 13.0153 525.145 13.0344C527.747 13.1038 530.309 13.0415 532.827 12.6964C530.179 12.1361 525.483 12.6315 522.569 12.227C517.334 12.5047 508.714 11.6484 502.455 12.454C502.027 12.0263 500.045 12.4191 499.465 12.0885C496.024 12.1468 490.404 12.2797 487.685 12.0799C482.668 11.711 477.097 12.4482 471.664 12.351C476.225 12.9167 483.023 12.3101 487.925 12.7187ZM317.948 16.8621C318.142 17.029 318.526 17.117 319.251 17.048L319.242 16.5187C316.87 16.4832 315.115 16.7209 312.82 16.7408C312.518 16.9351 312.447 17.2766 312.183 17.4891C311.723 17.4401 311.377 17.3325 311.524 16.9708L310.033 16.996C309.96 17.2053 309.964 17.451 309.39 17.4229C308.889 17.2234 308.047 17.1998 307.015 17.2551L307.024 17.7844C309.926 17.4895 312.805 18.1215 314.71 17.6543C315.099 18.0259 316.018 18.1238 316.862 18.2608C316.924 17.39 315.279 17.38 314.284 17.359C314.508 17.0526 315.426 17.056 315.998 16.914C317.231 17.4793 317.385 17.5145 317.91 16.8816L317.948 16.8621ZM328.011 17.1078C328.59 17.4194 329.577 17.0245 330.381 17.0677C330.223 16.7489 330.604 16.6857 330.6 16.4211C329.332 16.0643 328.926 16.941 328.049 17.1071L328.011 17.1078ZM337.406 16.3059C337.185 16.8013 340.248 16.9763 340.199 16.3721C339.278 16.1797 338.437 16.2317 337.406 16.3059ZM349.19 16.5225C350.106 16.3935 350.377 16.6158 350.914 16.7013C351.253 16.393 352.402 16.487 352.394 16.0333C351.55 15.8774 350.137 15.9959 348.989 15.9775C348.803 16.2832 349.3 16.237 349.228 16.5029L349.19 16.5225ZM634.443 12.2248C630.191 11.824 623.546 12.447 619.254 11.9524C617.881 12.2025 615.55 12.3365 613.48 12.0501C611.046 12.8476 605.828 11.8581 603.236 12.4314C597.88 12.2952 592.023 12.035 586.982 12.4985C585.021 11.8509 582.32 12.7476 579.902 12.2023C576.622 12.7873 569.913 11.8419 566.867 12.6309C566.67 12.3128 564.72 12.3458 564.496 12.671C565.034 12.8132 564.965 13.2871 565.579 13.3901C567.333 13.0768 571.856 13.6243 574.14 13.0373C576.064 13.7043 579.452 12.7583 582.062 13.3192C586.065 12.5518 593.34 12.9771 598.313 13.0442C601.293 12.8803 607.373 12.7963 610.934 13.0386C613.145 12.5663 615.641 13.167 617.355 12.722C617.436 13.0042 618.01 13.0134 618.432 13.1197C620.718 12.5705 623.141 13.3993 625.273 12.796C627.96 13.3367 631.619 12.594 634.038 13.1771C634.223 12.7769 635.448 12.8696 636.403 12.8156C636.168 12.4414 635.171 12.2881 634.481 12.2052L634.443 12.2248ZM379.326 16.334C380.551 16.4456 382.839 16.0098 383.382 16.4733C383.799 16.2583 384.717 16.2616 385.289 16.1196C385.397 15.7396 384.634 15.8281 384.628 15.4879C383.983 15.8013 381.842 15.8376 381.225 15.5455C381.003 15.9841 378.969 15.5836 379.325 16.3151L379.326 16.334ZM411.168 15.2657C410.948 15.8367 411.942 15.8009 411.608 16.4306C412.404 16.02 412.945 16.3512 413.979 16.3905C414.128 16.1421 413.582 15.5652 414.387 15.6461C414.886 15.7511 414.475 16.3064 414.632 16.5874C417.164 17.0173 419.065 16.3422 419.74 15.5555C420.012 15.7778 420.055 16.0986 420.403 16.2818C421.205 16.2682 421.238 15.9084 422.311 16.0415C422.306 15.739 421.656 15.75 421.461 15.5264C421.919 15.4808 422.222 15.3244 422.295 15.0963C421.378 15.1685 419.998 14.9839 419.736 15.3476C416.861 14.9424 414.379 15.1546 411.168 15.2846L411.168 15.2657ZM456.944 14.907C457.251 14.9586 458.05 14.7559 458.016 15.0023C457.326 14.8817 457.869 15.3452 457.179 15.2245C456.834 15.1925 456.982 14.8875 456.334 15.0308C456.184 15.2035 455.648 15.1937 455.691 15.4577C456.346 15.7492 458.487 15.7129 459.094 15.4001C459.089 15.0976 458.44 15.1654 458.435 14.8818L459.506 14.8637C459.206 15.2658 460.083 15.0619 459.935 15.3859C460.812 15.2198 461.375 14.5862 460.565 14.2028C459.04 14.4556 459.073 14.1903 457.162 14.2604C457.166 14.5062 456.785 14.5694 456.944 14.907ZM476.641 14.8952C477.253 14.8848 477.055 14.5289 477.937 14.6652C479.406 15.5291 482.871 14.6385 484.559 14.9692C484.426 13.8369 480.955 14.4062 478.773 14.3296C476.646 15.1787 474.211 13.6694 472.158 14.4416C468.434 13.6159 465.316 14.6708 461.445 14.2069C462.271 15.5354 466.425 14.6899 468.959 15.2521C470.098 14.7223 472.447 15.6658 473.003 14.6542C474.612 14.7593 475.755 14.532 476.641 14.9141L476.641 14.8952ZM293.368 17.6751C293.83 17.8186 293.988 18.1374 294.677 18.1824C295.015 17.7796 296.663 17.9975 297.656 17.924C297.728 17.677 297.994 17.5212 297.873 17.1829C296.118 17.4206 294.695 16.9719 293.406 17.6745L293.368 17.6751ZM374.85 16.2962C375.994 16.1067 378.681 16.6474 378.476 15.8189C376.95 16.0905 376.83 15.79 374.843 15.8804L374.85 16.2962ZM385.747 16.1118C387.047 16.0709 388.742 16.7797 389.149 15.9408C388.803 15.871 388.837 15.6057 388.302 15.6337C387.586 16.2698 385.962 15.2195 385.747 16.0929L385.747 16.1118ZM393.442 16.5111C394.553 16.6057 394.661 16.2446 395.156 16.0661C396.245 17.1444 400.746 16.4442 403.731 16.5639C403.728 16.3748 403.878 16.2021 404.145 16.1409C404.457 16.476 405.868 16.2441 406.293 16.5205C406.291 16.3882 406.366 16.2735 406.71 16.3055C406.972 15.9607 406.021 16.2415 406.283 15.8967C403.877 16.1454 403.557 15.2999 401.341 15.4509C400.861 16.4423 398.895 15.5301 397.479 15.5162C396.447 15.5148 396.376 15.8563 395.569 15.662C395.569 15.6053 395.567 15.5297 395.338 15.5525C395.464 16.231 392.969 15.6871 393.442 16.53L393.442 16.5111ZM407.784 16.4764C408.623 16.3487 410.427 16.6775 410.572 16.2212C409.762 15.8378 408.497 15.6512 407.156 15.5416C406.936 16.0936 407.626 16.1576 407.822 16.4757L407.784 16.4764ZM505.101 15.151C505.21 14.8088 504.94 14.6621 504.86 14.4176C502.598 14.1345 500.347 14.4562 498.662 14.3145C498.875 15.5968 502.727 14.9832 505.101 15.151ZM683.657 11.6C682.35 11.2439 679.79 11.4007 678.957 11.8875C676.118 11.3683 671.54 12.0887 669.127 11.8459C663.326 12.6248 655.125 11.6668 651.589 12.8801C652.167 13.1351 652.932 13.1221 653.501 12.8478C653.965 13.1803 656.718 13.1337 657.133 12.7863C659.819 13.2892 663.939 12.6711 666.536 12.4192C675.219 12.4613 685.959 12.0338 694.561 11.8315C691.793 10.9896 687.127 11.0118 683.657 11.6ZM350.927 17.4386L350.92 17.0227L350.078 17.0369C350.159 17.2625 350.467 17.4085 350.927 17.4386ZM371.656 17.4092L372.956 17.3872L372.944 16.65C371.911 16.6296 371.571 16.9001 371.656 17.4092ZM425.335 16.1794L425.328 15.7635L424.486 15.7777C424.34 16.1395 424.61 16.2862 425.335 16.1794ZM374.027 17.3691C375.211 17.2545 375.257 17.7265 376.592 17.5337C376.923 16.715 373.974 16.5002 374.027 17.3691ZM532.473 14.3664C529.378 14.5322 525.653 13.6498 525.415 15.4313C527.018 15.1961 527.104 15.7809 527.986 15.9172C528.945 16.0523 528.631 15.6037 529.474 15.684C529.585 15.4552 529.194 14.9891 529.691 14.9429C530.721 14.7742 530.158 15.4266 530.998 15.3368C532.754 15.118 534.702 14.9905 535.687 14.4065C535.032 14.1151 533.27 13.9558 532.473 14.3475L532.473 14.3664ZM639.812 13.0794C643.674 13.014 647.578 13.1749 650.292 13.1101C650.29 12.9777 650.365 12.863 650.709 12.895C648.434 11.78 643.168 12.531 639.799 12.3422L639.812 13.0794ZM191.83 20.4523C192.718 20.9667 194.478 20.9937 195.253 21.5667C194.642 21.6338 193.453 21.4081 193.767 21.9133C196.259 22.2683 200.854 22.5498 203.41 22.1662C203.249 21.6773 201.457 22.0479 201.903 21.2462C202.323 21.2013 203.205 21.3754 202.97 21.0201C202.76 19.9459 200.169 20.4814 199.09 20.0269C197.265 20.6629 194.695 20.2147 191.83 20.4712L191.83 20.4523ZM206.593 20.4105C205.781 19.9137 204.457 20.7681 203.377 20.2569L203.39 20.9941C203.85 21.0431 204.802 20.8379 204.883 21.0823C204.887 21.3092 204.119 21.152 203.814 21.2139C203.938 21.7223 203.909 22.2901 204.905 22.3678C205.512 22.055 206.394 22.2102 206.82 22.5434C207.511 22.664 206.967 22.2005 207.658 22.3212C209.658 22.987 213.695 21.9543 215.585 22.9245C215.929 22.9187 215.734 22.6573 216.232 22.7056C215.992 22.1045 214.312 22.2842 213.656 21.8982C214.108 21.4935 214.84 21.8404 215.795 21.7486C215.781 20.9546 213.136 20.5645 214.044 19.9818C212.591 20.0253 210.646 20.323 209.758 19.8464C209.037 20.2178 208.302 19.6819 206.775 19.8968C206.663 20.05 207.052 20.4405 206.555 20.43L206.593 20.4105ZM167.248 21.0763C167.833 21.766 166.221 21.434 166.189 21.8316C167.152 22.1935 169.22 22.3855 170.475 21.9671C176.331 22.2084 183.706 21.8 189.291 21.8567C189.553 21.5119 188.602 21.7927 188.864 21.4479C185.882 21.574 184.038 21.0947 181.36 21.0455L181.351 20.5162C179.818 20.3341 179.636 20.8288 178.566 20.8848C178.455 21.1135 178.845 21.5797 178.349 21.6259C177.808 21.3325 176.358 21.5083 175.552 21.3518L175.545 20.9359C173.205 20.5595 170.149 20.7435 167.209 21.0769L167.248 21.0763ZM183.265 20.5972C184.303 20.9011 188.639 21.7354 188.809 20.5034C187.852 20.444 187.396 20.603 186.901 20.7437C186.36 20.3936 183.952 20.51 183.265 20.5972ZM238.632 19.6603C238.905 20.0149 239.52 20.1936 240.363 20.2739C240.628 20.0992 241.2 20.0328 241.002 19.6202C239.933 19.7139 239.431 19.4388 238.632 19.6603ZM586.549 13.9807C586.481 14.5113 586.982 14.7487 587.635 14.9078C589.807 14.4361 593.766 15.5604 595.314 14.3619C596.889 14.789 600.247 14.3162 601.102 15.1148C601.677 15.1808 600.941 14.6259 601.515 14.6918C602.09 14.7577 601.945 15.1951 602.595 15.203C603.283 15.2103 603.086 14.8165 603.427 14.6595C605.267 14.8931 606.153 15.2374 608.558 14.9887C608.397 14.5187 608.699 14.2866 609.193 14.127C608.97 14.4522 609.656 14.3083 610.038 14.3207C608.31 13.8961 606.733 13.3933 604.019 13.4771C604.022 13.6283 604.102 13.8728 603.797 13.8969C600.196 13.5796 596.077 14.2733 592.016 13.8882C592.023 14.2663 592.902 14.2136 593.325 14.3955L591.414 14.4279L591.405 13.8986C589.302 13.9342 588.422 13.949 587.539 13.756C587.775 14.1113 586.892 13.9371 586.472 13.982L586.549 13.9807ZM280.544 19.2725C279.699 19.041 277.905 19.2793 276.68 19.2244C276.994 19.6729 280.404 20.0501 280.544 19.2725ZM319.665 18.9319C320.39 18.8062 322.079 19.1558 321.801 18.5743C321.491 18.3338 320.309 18.5618 319.658 18.4971L319.665 18.913L319.665 18.9319ZM406.269 17.3529C406.035 17.1111 404.93 17.3378 404.355 17.2719C404.439 17.6865 406.197 17.6 406.269 17.3529ZM409.259 17.7184C413.389 17.7241 415.262 17.6546 418.901 17.9712C419.127 17.7594 419.314 17.5293 419.54 17.3175C420.656 17.7146 423.137 17.389 424.897 17.4348C424.155 16.5397 421.029 17.1599 419.538 17.204C418.573 16.6342 417.248 17.4886 416.323 17.0504C414.459 17.6493 411.998 16.84 409.249 17.1701C409.102 17.4941 409.1 17.3807 409.258 17.6995L409.259 17.7184ZM697.106 13.0553C696.83 12.5494 695.416 12.649 694.117 12.6899C694.203 13.2935 695.882 13.0571 697.106 13.0553ZM698.177 13.0372C699.133 13.021 700.243 13.0968 700.082 12.589L698.17 12.6213L698.177 13.0372ZM408.199 18.3603L409.69 18.3351C409.531 18.0163 409.108 17.8533 408.191 17.9444L408.199 18.3603ZM419.522 18.4901C420.134 18.4798 419.949 18.8422 420.826 18.6761C421.05 18.3886 421.307 17.7225 420.389 17.738C420.28 18.0802 419.669 18.1662 419.56 18.4895L419.522 18.4901ZM531.555 16.5943C531.743 16.402 532.355 16.4106 532.196 16.054L530.284 16.0863C530.291 16.4833 530.942 16.529 531.593 16.5936L531.555 16.5943ZM528.996 16.8456C529.608 16.8352 529.423 17.1976 530.3 17.0315C530.408 16.6326 529.985 16.4696 529.448 16.403C529.721 16.7388 528.761 16.4903 529.034 16.826L528.996 16.8456ZM696.019 14.3406C696.103 14.793 697.817 14.4047 698.584 14.5052C698.423 14.0541 696.705 14.1967 696.019 14.3406ZM632.519 16.0581C633.758 16.9448 637.916 16.3261 639.8 16.8804C641.703 16.3376 643.427 16.5353 646.637 16.3487C646.732 15.1936 643.453 15.7785 641.501 15.6981C641.049 16.1218 639.209 15.8693 638.101 15.9636C637.914 16.1937 637.302 16.223 636.614 16.1968C636.608 15.8755 636.603 15.5541 635.953 15.5651C635.039 15.8264 633.702 15.8868 632.557 16.0386L632.519 16.0581ZM533.302 18.1531C533.652 18.4686 534.141 18.0065 534.369 17.927L533.299 17.9451L533.302 18.1531ZM417.617 21.1697C418.685 21.0003 418.767 21.3582 419.532 21.3453C419.599 20.7769 418.718 20.6972 417.609 20.7349L417.616 21.1508L417.617 21.1697ZM310.073 23.935L311.985 23.9027C311.976 23.3544 310.102 23.3862 310.073 23.935ZM362.878 23.0414C362.871 22.6066 361.385 22.9532 360.733 22.8697C360.741 23.3045 362.226 22.9579 362.878 23.0414ZM270.508 25.134C270.322 25.4397 270.322 25.4586 270.519 25.7767C271.088 25.5213 273.876 25.3039 274.38 25.7114C274.95 25.437 275.714 25.4241 276.292 25.679C276.865 25.6315 276.898 25.3284 277.78 25.4459C277.695 24.9557 276.397 25.0911 275.857 24.8355C274.409 25.1247 273.03 24.9968 270.508 25.134ZM266.882 25.6114L269.024 25.5751C269.319 24.965 266.566 25.0116 266.882 25.6114ZM449.274 22.7329C450.462 22.9019 450.64 22.0858 449.683 22.083C449.689 22.3855 448.96 22.3033 449.274 22.7329ZM507.437 22.0701L509.349 22.0377C508.999 21.7222 508.498 21.4849 507.428 21.5408L507.437 22.0701ZM619.285 20.5934C619.478 20.6846 620.666 20.7969 620.777 20.5681C620.2 20.4077 619.434 20.345 618.858 20.1846C618.596 20.5294 619.547 20.2486 619.285 20.5934ZM694.636 23.0245C694.759 23.5329 696.361 23.2789 696.788 23.631C696.933 23.1747 698.004 23.1566 698.265 22.7551C696.845 22.4954 696.05 22.9816 694.636 23.0245ZM699.622 26.1168C700.308 25.9729 699.781 26.4545 700.467 26.3105C701.342 26.0499 704.472 25.6755 702.166 25.0149C701.138 25.297 699.84 25.4513 699.622 26.1168Z" fill="white"/>
<path fill-rule="evenodd" clip-rule="evenodd" d="M332.535 20C332.965 20.5033 331.814 20.2959 331.896 20.6538C333.767 20.433 336.333 20.6543 337.91 21.1949C336.432 21.9952 333.697 20.8124 332.559 21.3989C332.438 21.0039 330.951 21.3127 331.057 20.7814C331.588 20.5455 331.696 20.1088 332.536 20.019L332.535 20Z" fill="white"/>
<path fill-rule="evenodd" clip-rule="evenodd" d="M522.128 24.5067C519.83 24.3187 515.677 25.2777 513.364 24.239C512.071 24.639 510.837 24.0359 509.501 24.1909C509.035 23.8017 510.6 23.605 509.49 23.5482C509.984 23.3696 511.056 23.446 511.396 23.1945C511.323 23.3848 511.553 23.3998 511.82 23.3953C511.784 23.5093 511.401 23.478 511.403 23.6103C511.905 23.9044 513.963 23.4347 514.2 23.8845C514.388 23.6922 515 23.7007 514.841 23.3442C516.447 23.3548 516.907 23.3659 518.246 23.4C517.336 23.8503 518.335 24.1549 518.686 24.5649C518.914 24.4854 518.912 24.3153 519.333 24.346C518.83 23.9952 518.638 23.9795 518.896 23.4079C519.813 23.3546 520.237 23.5554 520.207 24.0286C522.418 23.5563 523.996 24.1536 526.207 23.7191C526.707 23.8808 526.486 24.414 526.873 24.6533C527.717 24.8092 526.942 24.1983 527.516 24.2264C528.28 24.2135 528.666 24.4149 528.597 24.851C529.476 24.7794 530.203 24.8238 530.323 25.1433C531.12 24.7327 531.85 24.9473 533.109 24.7747C533.14 24.3581 532.072 24.5275 532.028 24.1501C533.715 24.443 534.699 23.8023 536.084 24.2894C537.987 23.7278 540.525 24.5546 542.696 23.9695C542.699 24.1586 542.967 24.1918 542.932 24.3815C544.762 24.0291 547.675 24.4147 549.543 24.0617C551.04 24.3578 553.068 24.3802 555.095 24.3837C554.906 24.5004 554.678 24.5988 554.45 24.7161C552.955 24.4767 548.209 24.2922 547.38 25.0437C546.692 25.0743 546.459 24.8891 546.302 24.646C545.654 24.7326 546.497 24.8696 546.309 25.0618C545.202 25.194 545.082 24.8368 544.582 24.6751C544.088 24.8914 543.248 24.9435 542.215 24.9231C542.135 24.7354 542.364 24.7126 542.632 24.7081C541.405 24.5586 539.924 25.1699 537.932 24.9956L537.923 24.4663C536.477 24.9068 533.489 24.617 533.007 25.495C532.549 25.5594 532.697 25.2922 532.353 25.298C527.899 26.5269 526.202 23.4544 522.09 24.5262L522.128 24.5067Z" fill="white"/>
<path fill-rule="evenodd" clip-rule="evenodd" d="M666.891 22.0569C670.998 20.6827 678.085 21.338 683.782 21.2416C684.585 21.2281 685.499 20.9668 686.341 20.9903C687.909 21.0205 689.637 21.3884 690.387 20.5059C691.082 20.929 692.536 20.9611 694.256 20.8564C693.956 21.2586 694.833 21.0546 694.685 21.3786C693.876 21.0519 691.658 21.0705 690.632 21.4472C686.383 21.2354 682.536 22.1515 679.085 21.6426C675.765 22.1337 670.904 21.8945 666.891 22.0569Z" fill="white"/>
<path fill-rule="evenodd" clip-rule="evenodd" d="M569.591 24.4409C565.126 24.9892 561.073 25.0766 555.489 25.0955C555.175 24.6281 556.096 24.7638 555.897 24.3511C560.45 24.4065 566.216 23.8551 569.821 24.437C571.995 24.0976 576.696 23.9046 578.386 24.292C579.223 24.051 581.897 23.8166 582.668 24.2196C584.112 23.6279 586.337 24.0629 588.668 23.91C588.671 24.0802 588.56 24.309 588.904 24.322C589.542 23.5738 593.749 23.5593 595.325 24.0054C599.101 23.4309 603.391 23.7743 607.939 23.5839C608.286 23.7671 609.126 23.6773 609.246 23.9778C610.042 23.5483 612.496 23.9228 612.637 23.183C613.062 23.4594 613.753 23.599 613.723 24.11C613.031 23.8948 612.878 23.8974 612.232 24.1353C614.418 24.4954 617.591 24.3661 620.573 24.3156C620.756 23.8398 619.688 23.9902 619.719 23.5926C619.145 23.5267 619.881 24.0815 619.306 24.0156C618.076 23.6582 615.329 24.0829 614.592 23.4524C614.97 23.2002 616.494 22.8719 616.961 23.2989C622.316 23.3217 627.434 22.9137 631.729 23.5784C630.851 23.6689 629.471 23.4843 628.94 23.7391C629.632 23.9543 631.158 23.7394 631.508 24.1116C632.003 23.9709 632.459 23.793 633.417 23.8713C633.412 23.5878 632.725 23.6561 632.758 23.353L634.67 23.3207C634.41 23.7789 635.022 23.7874 635.103 24.0508C638.426 23.8244 639.576 23.9562 641.95 24.1429C642.472 23.3021 640.149 23.9276 640.026 23.438L642.588 23.3947C642.823 23.7311 642.248 23.6651 642.174 23.8177C643.75 24.2637 646.804 23.9095 648.19 24.4533C648.34 24.2806 648.876 24.2905 648.833 24.0265C653.84 23.8094 655.372 23.9536 659.077 23.6451C659.08 23.8341 659.348 23.8674 659.313 24.0571C658.938 24.4795 657.059 24.1709 657.185 24.8306C649.275 25.2859 640.822 25.2588 633.864 25.4332C632.214 25.1208 631.683 25.3945 629.387 25.301C629.689 25.0879 629.645 24.7293 630.448 24.7536C630.013 23.8911 626.107 23.6168 625.512 24.6291C625.315 24.2921 625.697 24.2289 625.924 24.0927C624.999 23.6734 622.595 24.0355 620.988 23.9682C621.373 24.1319 621.758 24.2766 621.65 24.6944C622.326 23.9266 623.293 24.591 625.05 24.4289C625.167 24.5782 624.792 24.9817 625.288 24.9543C626.279 24.7485 627.001 24.4337 627.838 24.1737C628.149 24.5088 628.423 24.8635 628.924 25.1008C623.883 25.5265 617.218 24.9585 611.824 24.8607C611.628 24.5993 611.243 24.4546 610.972 24.2322C609.94 24.3064 609.526 24.6727 608.417 24.6915C607.606 24.2136 605.454 23.6638 603.934 24.2379C601.822 23.7064 599.007 24.6238 597.523 25.0838C597.024 24.9599 596.562 24.7975 595.608 24.9082L595.601 24.4924C593.808 24.7874 590.853 24.2134 588.993 25.0202C585.963 24.5231 581.716 24.4437 579.169 25.3944C578.974 25.133 578.589 24.9882 578.317 24.7659C577.556 24.9679 576.447 24.9867 575.763 25.2252C574.142 24.3639 570.835 25.6111 569.743 24.3816L569.591 24.4409ZM633.126 24.7461C634.379 24.2143 635.12 25.0716 636.529 24.6885C636.289 24.0686 634.267 24.3675 633.306 24.1001C633.31 24.3459 632.929 24.409 633.087 24.7467L633.126 24.7461ZM641.463 24.7184L642.534 24.7003L642.53 24.4924C642.528 24.3601 642.184 24.3848 641.878 24.39C641.958 24.5966 641.576 24.6031 641.463 24.7184Z" fill="white"/>
<path fill-rule="evenodd" clip-rule="evenodd" d="M683.571 22.3042C682.886 22.5049 681.473 22.6422 680.588 22.3547C681.738 22.4676 682.762 21.9964 683.571 22.3042Z" fill="white"/>
<path fill-rule="evenodd" clip-rule="evenodd" d="M459.115 16.5911L460.415 16.5691C460.613 16.9817 459.693 16.846 460.007 17.3134C460.695 17.3207 460.922 17.1278 461.07 16.8794C461.917 17.1676 462.954 17.4526 464.056 17.0369L464.065 17.5662C465.058 17.4927 465.745 17.3487 466.21 17.7379C466.778 17.3879 467.391 17.4721 468.348 17.4937L468.359 18.1365C467.255 18.4577 466.711 17.9563 465.564 17.9757C465.184 18.1524 465.19 18.4926 464.502 18.5232C464.379 18.0525 463.688 17.8751 463.186 17.6C462.343 17.4819 462.771 17.9474 461.89 17.8299C461.97 18.0744 462.241 18.2211 462.132 18.5633C460.526 18.5905 458.882 18.675 458.49 18.0955L459.561 18.0773C459.05 17.2918 459.546 17.2078 459.115 16.61L459.115 16.5911Z" fill="white"/>
<path fill-rule="evenodd" clip-rule="evenodd" d="M388.663 25.6117C388.392 25.4272 387.439 25.6136 387.813 25.0967C388.923 25.1724 389.92 25.2879 390.196 25.7938C390.694 25.8232 390.073 25.3232 390.84 25.4614C391.137 24.927 390.372 24.9021 390.404 24.5234C391.511 24.3912 391.632 24.7484 391.904 25.0274C392.938 25.1045 391.818 24.4427 392.316 24.491C393.39 24.6808 394.161 25.046 395.311 25.1778C395.997 25.0716 395.296 24.3271 396.6 24.5131C396.914 24.9805 395.993 24.8448 396.192 25.2574C396.232 25.3702 396.613 25.3259 396.616 25.4583C397.421 25.5581 396.953 25.0555 397.681 25.1188L397.69 25.6481C399.142 25.5668 401.064 26.1583 402.163 25.5724C402.775 25.562 402.781 25.8834 403.241 25.9701C404.075 25.5211 402.354 25.5124 402.575 25.036C400.785 25.4633 399.859 25.0063 397.643 25.1194C397.637 24.7981 396.874 24.8866 396.982 24.4877C400.076 24.2462 404.325 24.4769 406.388 24.3285C406.164 24.6538 406.85 24.5098 407.233 24.5222C407.237 24.8058 407.166 25.1284 407.475 25.2556C409.082 25.304 410.528 24.8636 411.34 25.3982C411.754 25.0319 413.056 25.0855 413.702 24.8288C413.517 25.2101 414.735 24.868 414.361 25.3471C414.855 25.2063 415.311 25.0284 416.269 25.1068L416.276 25.5227C418.413 25.2407 423.258 24.4969 425.032 25.3745C426.056 24.8655 429.399 25.7922 430.802 25.0688C431.613 25.5089 432.289 24.7789 433.176 25.2367C433.444 25.2321 433.364 25.0444 433.4 24.9114C433.32 24.667 432.329 24.8917 431.907 24.8232C432.058 24.7072 432.402 24.7014 432.322 24.4947C433.122 24.2543 433.363 24.9688 433.393 24.4766C433.703 24.7361 435.038 24.4677 434.893 24.9807C435.653 24.6653 437.523 24.4256 438.105 24.9263C438.715 24.8215 437.833 24.6662 438.096 24.397C439.548 24.2968 440.165 24.6078 440.896 24.8791C441.609 24.0729 445.098 24.5622 446.428 24.048C447.774 24.498 450.292 24.0961 451.781 23.9575C451.786 24.2221 452.169 24.2723 451.79 24.4868C452.289 24.554 453.469 24.2693 453.285 24.6695C453.584 24.2484 455.425 24.5765 455.184 23.8999C457.452 24.58 461.291 23.1536 462.271 24.5174C463.344 24.6505 463.414 24.2901 464.179 24.2771C464.135 23.9564 462.423 24.477 462.682 23.981C463.905 23.9414 465.475 24.0472 466.082 23.7155C466.806 23.5897 466.431 24.031 466.511 24.2376C467.122 24.1895 468.373 23.5065 468.88 24.0841C469.217 23.6813 471.02 23.9723 471.435 23.6249C472.124 23.6699 472.282 23.9698 472.933 24.0155C473.777 24.1714 473.002 23.5605 473.576 23.5886C474.301 23.4629 474.267 23.7282 474.233 23.9935C475.791 23.381 477.948 24.3088 479.159 23.4942C481.113 23.7069 483.105 23.8812 485.589 23.8013L485.598 24.3307L486.44 24.3164C486.702 24.0283 486.811 23.6672 487.922 23.7619C488.463 24.0931 487.936 24.6125 487.943 25.0284C484.732 25.1206 482.848 24.5285 480.85 23.9761C480.391 23.9839 480.781 24.4311 480.631 24.6227C479.142 24.7614 476.735 24.8967 475.278 24.7133C475.35 24.4474 476.492 24.1255 475.495 23.9722C475.231 24.2035 475.198 24.5256 474.857 24.7204C474.282 24.6356 472.873 24.962 472.942 24.5448C471.958 25.1855 469.619 24.828 468.885 24.4055C468.083 24.4191 468.359 24.9249 467.401 24.8466C466.753 24.971 467.015 24.6262 466.974 24.4378C465.558 24.3861 464.836 24.7009 464.191 25.0144C461.431 24.6451 459.376 25.2093 456.921 24.8159C453.716 25.2673 449.156 24.7583 445.787 24.5883C445.637 24.7611 445.101 24.7512 445.144 25.0152C439.649 25.77 431.687 25.3564 426.539 26.2755C426.383 26.108 425.848 26.136 425.882 25.8707C421.751 25.846 419.122 26.4578 415.405 26.0479C413.54 26.5522 408.522 26.1077 406.232 26.4112C405.347 26.1236 402.172 26.1017 401.299 26.4946C398.015 26.7582 396.929 25.9068 394.213 25.8771L394.206 25.4612C392.981 25.4063 392.682 25.7896 392.305 26.1363C389.858 26.1588 386.462 26.6701 385.224 25.8401C384.808 26.093 383.621 25.9996 383.32 26.2884C382.86 26.2583 382.552 26.1123 382.471 25.8867C379.99 26.1367 375.696 25.5475 374.563 26.4365C374.139 26.2168 372.339 26.096 372.002 26.4799C367.093 25.6931 359.602 26.009 355.974 26.3351C355.202 25.97 354.442 26.2476 353.823 25.842C353.518 25.8661 353.752 26.1647 353.408 26.1705C352.567 26.2037 351.916 26.1579 352.099 25.6632C350.65 25.9146 348.928 25.8681 347.811 25.4143C347.538 25.0786 348.498 25.3271 348.225 24.9913C348.911 24.8473 348.384 25.329 349.07 25.185C348.835 24.8864 348.373 24.6863 347.759 24.5643C349.927 23.8469 352.425 24.561 355.442 24.3208C354.87 24.3872 354.618 25.318 355.875 25.0509C355.648 25.1872 355.267 25.2503 355.464 25.5874C356.261 25.2713 358.139 25.4665 358.86 25.1139C359.173 25.5624 361.502 25.2961 361.649 24.9532C364.211 24.9099 366.864 25.7537 369.149 25.1478C369.874 25.0599 369.5 25.5389 369.997 25.5494C370.836 25.4029 371.177 25.208 371.909 25.5171C372.288 25.3405 372.745 25.2004 372.546 24.7688C373.655 24.7501 372.858 25.1039 372.979 25.499C374.776 25.4307 377.065 25.0706 378.983 25.3974C379.551 25.0663 381.276 25.3018 381.342 24.7145C379.62 24.6302 378.353 24.368 376.41 24.798C376.709 24.3958 375.833 24.5998 375.98 24.2758C378.961 24.093 381.177 23.9988 383.899 24.3498C384.172 24.6856 383.212 24.4371 383.485 24.7728C383.719 25.0147 384.824 24.788 385.399 24.8539C385.867 25.3943 387.207 25.4851 388.623 25.5368L388.663 25.6117ZM351.863 25.289C353.09 25.4574 353.205 25.4554 354.425 25.2457C354.458 24.9048 354.073 24.7978 353.575 24.7306C353.504 25.0722 351.554 25.0863 351.863 25.289ZM383.31 25.7023C383.881 25.5603 383.3 25.1541 383.297 24.9651L382.456 24.9793C382.463 25.3763 382.773 25.598 383.31 25.7023ZM404.041 25.7675L404.882 25.7533C404.989 25.2977 404.679 25.076 404.028 25.0303L404.041 25.7675ZM470.951 24.4272C471.674 24.207 471.483 24.2102 472.251 24.4052L472.246 24.0839L470.946 24.1059L470.951 24.4272ZM478.633 24.0892C478.714 24.3148 479.022 24.4608 479.481 24.4909C479.669 24.2986 480.282 24.3072 480.123 23.9506C479.395 23.8873 479.284 24.1161 478.633 24.0892ZM406.379 26.0494L407.22 26.0352L407.211 25.5059L406.37 25.5201L406.379 26.0494ZM484.417 24.6154C484.376 24.4081 484.643 24.3846 484.64 24.1956L483.569 24.2137C483.65 24.4393 483.958 24.5853 484.417 24.6154Z" fill="white"/>
</g>
<defs>
<clipPath id="clip0_6299_1950">
<rect width="714.551" height="28.1518" fill="white" transform="translate(0 12.4854) rotate(-0.969484)"/>
</clipPath>
</defs>
</svg>
