<svg width="240" height="26" viewBox="0 0 240 26" fill="none" xmlns="http://www.w3.org/2000/svg">
<g clip-path="url(#clip0_4740_9109)">
<path fill-rule="evenodd" clip-rule="evenodd" d="M87.9087 8.34863L88.3871 8.33552L88.3912 8.48546L87.9128 8.49858L87.9087 8.34863Z" fill="black"/>
<path fill-rule="evenodd" clip-rule="evenodd" d="M97.5099 8.31536L98.2617 8.29475C98.3295 8.583 98.1594 8.61767 98.0687 8.74021C97.8022 8.68749 97.4861 8.69615 97.5099 8.31536Z" fill="black"/>
<path fill-rule="evenodd" clip-rule="evenodd" d="M121.326 8.17297C121.672 8.32355 121.55 8.21687 121.941 8.15611L121.95 8.456C121.684 8.42327 121.594 8.5658 121.548 8.76713C121.391 8.66138 121.284 8.50426 121.327 8.18297L121.326 8.17297Z" fill="black"/>
<path fill-rule="evenodd" clip-rule="evenodd" d="M165.221 7.1996C165.135 7.80218 164.304 7.1147 164.202 7.44762C163.876 7.10642 162.854 7.56459 162.545 7.19293C163.65 7.27268 164.46 6.89033 165.221 7.1896L165.221 7.1996Z" fill="black"/>
<path fill-rule="evenodd" clip-rule="evenodd" d="M165.625 6.95839C165.833 7.05274 166.099 7.07547 166.315 7.15958C166.369 7.59824 165.703 7.30639 165.432 7.40385C165.364 7.1156 165.534 7.08093 165.625 6.95839Z" fill="black"/>
<path fill-rule="evenodd" clip-rule="evenodd" d="M172.772 7.21263C171.958 7.80513 169.873 7.21205 169.145 7.46211C168.763 7.2525 167.583 7.24483 167.222 7.5148C167.123 7.31745 166.7 7.4991 166.667 7.2299C167.083 6.80835 167.689 7.38197 167.757 7.04998C169.104 7.22314 171.174 6.93631 172.772 7.21263Z" fill="black"/>
<path fill-rule="evenodd" clip-rule="evenodd" d="M159.541 7.72576C159.571 7.885 158.756 7.7873 158.45 7.82572C158.633 7.65063 159.093 7.598 159.541 7.72576Z" fill="black"/>
<path fill-rule="evenodd" clip-rule="evenodd" d="M165.848 7.62294L165.857 7.92283L165.378 7.93594C165.344 7.63676 165.566 7.60068 165.848 7.62294Z" fill="black"/>
<path fill-rule="evenodd" clip-rule="evenodd" d="M170.932 7.78335C170.975 8.12229 170.823 8.20647 170.95 8.4531C171.743 8.38134 172.474 8.52137 172.808 8.55222C172.763 8.79354 172.13 8.44077 172.199 8.789C171.624 8.72472 171.089 8.54931 170.482 8.83608C170.424 8.58757 170.735 8.70909 170.747 8.52869C170.625 8.462 170.628 8.26184 170.399 8.31814C170.442 7.99686 170.66 7.87082 170.932 7.78335Z" fill="black"/>
<path fill-rule="evenodd" clip-rule="evenodd" d="M171.205 7.77622L171.478 7.76873C171.472 7.85893 171.499 7.89821 171.551 7.9168C171.504 8.08814 171.159 7.96756 171.205 7.77622Z" fill="black"/>
<path fill-rule="evenodd" clip-rule="evenodd" d="M173.742 7.70654C174.165 7.84501 174.287 7.93169 174.84 7.8265C174.741 8.24939 173.737 8.11685 173.742 7.70654Z" fill="black"/>
<path fill-rule="evenodd" clip-rule="evenodd" d="M186.567 7.35473C186.786 7.25868 186.625 7.59324 186.844 7.49718C186.849 7.65712 186.555 7.53513 186.436 7.5784C186.477 7.49726 186.588 7.49421 186.567 7.35473Z" fill="black"/>
<path fill-rule="evenodd" clip-rule="evenodd" d="M174.985 7.81221L175.327 7.80285C175.375 8.0116 174.91 8.20441 174.985 7.81221Z" fill="black"/>
<path fill-rule="evenodd" clip-rule="evenodd" d="M189.04 7.42718L189.046 7.6471C188.926 7.63039 188.706 7.72644 188.768 7.50465C188.888 7.50137 188.911 7.4107 189.04 7.42718Z" fill="black"/>
<path fill-rule="evenodd" clip-rule="evenodd" d="M190.21 7.39525C190.39 7.39033 190.602 7.35449 190.691 7.45211C190.6 7.57464 190.729 7.92123 190.498 7.89756C190.308 7.83274 190.276 7.59354 190.21 7.38525L190.21 7.39525Z" fill="black"/>
<path fill-rule="evenodd" clip-rule="evenodd" d="M153.381 8.48477L153.393 8.9246C153.171 8.94069 153.09 8.81284 153.043 8.63408C153.258 8.68821 153.121 8.37184 153.38 8.47477L153.381 8.48477Z" fill="black"/>
<path fill-rule="evenodd" clip-rule="evenodd" d="M153.654 8.47714C153.918 8.45989 154.058 8.57609 154.14 8.76392L153.662 8.77703L153.654 8.47714Z" fill="black"/>
<path fill-rule="evenodd" clip-rule="evenodd" d="M156.123 8.40959C156.178 8.52814 156.34 8.5137 156.336 8.70386L155.858 8.71698C155.747 8.4099 156.243 8.72643 156.123 8.40959Z" fill="black"/>
<path fill-rule="evenodd" clip-rule="evenodd" d="M178.55 7.7948C178.555 7.96474 178.676 8.01144 178.631 8.23276C178.343 8.33069 178.328 8.12101 178.148 8.09594C178.194 7.9046 178.284 7.76208 178.55 7.78481L178.55 7.7948Z" fill="black"/>
<path fill-rule="evenodd" clip-rule="evenodd" d="M203.868 7.54096C205.572 7.29419 206.563 7.88726 207.773 7.43393L207.779 7.65385C207.89 7.96092 207.429 7.67344 207.443 7.88313C207.478 8.54241 208.389 7.75717 208.549 8.29299C208.464 8.63544 207.711 8.29595 207.6 8.61911C207.335 8.30625 206.78 8.33147 206.216 8.35692C206.249 7.9759 206.835 8.16989 207.167 8.11078C207.212 7.87946 207.091 7.84275 207.087 7.67282C206.56 7.7773 205.672 7.52153 205.374 7.86983C204.653 7.48942 204.323 8.20876 203.851 7.54142L203.868 7.54096Z" fill="black"/>
<path fill-rule="evenodd" clip-rule="evenodd" d="M175.345 8.47282C175.507 8.7585 174.936 8.81417 175.006 8.55216C175.169 8.5777 175.147 8.40823 175.345 8.47282Z" fill="black"/>
<path fill-rule="evenodd" clip-rule="evenodd" d="M201.82 7.96715C201.801 8.20777 201.439 8.10764 201.349 8.28016C200.834 8.18425 199.851 7.89107 199.423 8.18291C199.258 8.08739 199.11 7.98142 198.804 8.04982C199.482 7.53104 200.815 8.11474 201.82 7.96715Z" fill="black"/>
<path fill-rule="evenodd" clip-rule="evenodd" d="M207.916 7.65013C208.105 7.69496 208.46 7.54518 208.533 7.70324L208.539 7.92316C208.231 7.93159 208.032 7.84701 207.916 7.64014L207.916 7.65013Z" fill="black"/>
<path fill-rule="evenodd" clip-rule="evenodd" d="M208.881 7.62352C209.48 7.93723 210.13 7.33918 210.401 7.88195C210.451 7.83057 210.607 7.56621 210.607 7.87633C210.723 7.77309 211.178 7.52053 211.089 8.01316C211.294 8.00754 211.288 7.77763 211.423 7.7039C212.661 7.97007 214.306 7.76493 215.42 8.18455C215.311 8.58768 214.794 8.44179 214.538 8.42882C213.579 8.38508 212.616 8.18139 211.783 8.06416C211.62 8.03862 211.591 8.21949 211.582 8.21973C211.077 8.21355 210.579 8.11718 209.997 8.11311C209.954 8.40441 209.796 8.57879 209.815 8.92843C209.551 8.65556 209.387 8.91015 209.063 8.94904C209.168 8.72607 209.325 8.54169 209.668 8.56231C209.637 8.37309 209.44 8.35848 209.517 8.04625C209.388 8.01978 209.109 8.15746 209.171 7.90568C208.946 7.8218 209.126 8.14699 208.902 8.06312C208.836 7.84484 208.836 7.83484 208.89 7.62328L208.881 7.62352Z" fill="black"/>
<path fill-rule="evenodd" clip-rule="evenodd" d="M178.166 8.76578C178.183 8.41521 178.601 8.71385 178.581 8.90449C178.301 9.01218 178.363 8.7504 178.166 8.76578Z" fill="black"/>
<path fill-rule="evenodd" clip-rule="evenodd" d="M205.388 8.08945C205.31 8.37169 204.487 8.27422 204.296 8.18941C204.623 7.94036 204.978 8.1007 205.388 8.08945Z" fill="black"/>
<path fill-rule="evenodd" clip-rule="evenodd" d="M190.379 8.5808C190.357 8.71146 189.938 9.01306 189.903 8.66389C190.064 8.63945 190.156 8.53691 190.379 8.5808Z" fill="black"/>
<path fill-rule="evenodd" clip-rule="evenodd" d="M216.52 8.38459C216.223 8.47276 215.718 8.74671 215.627 8.25901C215.81 8.05393 216.5 7.96499 216.52 8.38459Z" fill="black"/>
<path fill-rule="evenodd" clip-rule="evenodd" d="M218.297 8.33574C218.355 8.58424 218.158 8.57963 218.102 8.71122C217.727 8.4414 217.288 8.63351 216.857 8.52526C217.185 8.00609 217.608 8.46467 218.297 8.33574Z" fill="black"/>
<path fill-rule="evenodd" clip-rule="evenodd" d="M228.443 7.9077C228.655 7.84186 228.536 8.16526 228.789 8.04827C228.803 8.25796 228.624 8.26288 228.453 8.27756C228.451 8.20758 228.366 8.21992 228.315 8.21133C228.223 7.97376 228.535 8.14526 228.443 7.9077Z" fill="black"/>
<path fill-rule="evenodd" clip-rule="evenodd" d="M204.926 8.7024C204.984 8.94091 205.424 8.7488 205.415 9.05915C205.38 9.34022 204.616 9.2411 204.46 9.15535C204.346 8.72833 205.005 9.09038 204.926 8.7024Z" fill="black"/>
<path fill-rule="evenodd" clip-rule="evenodd" d="M211.722 8.65608L212.201 8.64296C212.18 8.83359 212.178 9.05374 212.078 9.16651C211.805 9.17401 211.697 8.98689 211.722 8.65608Z" fill="black"/>
<path fill-rule="evenodd" clip-rule="evenodd" d="M233.459 8.14024C233.532 7.9682 233.886 8.09854 234.073 8.0534C234.027 8.27473 233.57 8.41732 233.459 8.14024Z" fill="black"/>
<path fill-rule="evenodd" clip-rule="evenodd" d="M205.556 8.90518C205.921 8.79515 205.879 9.14642 206.244 9.03639C206.222 9.48716 205.484 9.40733 205.556 8.90518Z" fill="black"/>
<path fill-rule="evenodd" clip-rule="evenodd" d="M232.708 8.16078L233.049 8.15141C233.158 8.37852 232.611 8.3935 232.708 8.16078Z" fill="black"/>
<path fill-rule="evenodd" clip-rule="evenodd" d="M206.517 9.02893C206.713 9.01355 206.719 9.20348 206.732 9.39317C206.537 9.45853 206.55 9.29813 206.389 9.33257C206.297 9.095 206.609 9.2665 206.517 9.02893Z" fill="black"/>
<path fill-rule="evenodd" clip-rule="evenodd" d="M211.067 9.7143C210.649 9.75576 210.34 9.3941 210.042 9.7424C209.101 9.73817 207.92 9.07029 207.223 9.51956C207.257 9.2185 206.82 9.47059 206.871 9.15907C206.967 8.92635 207.169 9.13088 207.418 9.14408C207.546 9.15056 207.773 8.9943 207.755 8.98477C207.944 9.00961 208.113 9.22507 208.31 9.26967C209.29 9.45289 210.627 8.95606 211.067 9.7143Z" fill="black"/>
<path fill-rule="evenodd" clip-rule="evenodd" d="M217.217 8.87578C217.364 8.91179 217.693 8.74271 217.632 9.01448C217.485 8.97848 217.156 9.14755 217.217 8.87578Z" fill="black"/>
<path fill-rule="evenodd" clip-rule="evenodd" d="M211.537 9.40153C211.727 9.44636 212.082 9.29658 212.155 9.45465C212.242 9.85239 211.41 9.75515 211.537 9.40153Z" fill="black"/>
<path fill-rule="evenodd" clip-rule="evenodd" d="M212.631 9.37152C212.939 9.38309 213.189 9.44627 213.323 9.65268L212.708 9.66954C212.713 9.53935 212.618 9.51194 212.631 9.37152Z" fill="black"/>
<path fill-rule="evenodd" clip-rule="evenodd" d="M238.097 9.49378L238.507 9.48254C238.509 9.86263 238.159 9.90222 237.906 10.0192C237.855 9.73048 238.165 9.80202 238.097 9.49378Z" fill="black"/>
<path fill-rule="evenodd" clip-rule="evenodd" d="M144.241 12.8767C144.249 13.1666 143.905 13.106 143.632 13.1135C143.767 13.3699 143.765 13.2999 143.644 13.5533C143.7 13.7219 144.029 13.5728 144.193 13.6083C144.188 13.7385 144.282 13.7659 144.269 13.9063C143.628 13.9239 143.116 14.2581 142.552 13.9534C142.537 13.4136 143.481 13.8479 143.563 13.4055C143.567 13.2253 143.404 13.2298 143.35 13.1112C143.181 13.1959 143.197 13.4756 142.95 13.4923C142.96 13.242 143.12 13.1376 143.139 12.8969C143.735 12.8106 143.641 12.8132 144.232 12.867L144.241 12.8767Z" fill="black"/>
<path fill-rule="evenodd" clip-rule="evenodd" d="M166.594 12.344C166.792 12.3986 167.006 12.4327 167.08 12.6308C167.056 12.9816 166.629 12.6932 166.533 12.6457C166.466 12.6976 166.47 12.8176 166.332 12.8013C166.377 12.8801 166.488 12.8771 166.475 13.0175L165.1 13.0552C165.12 12.8746 164.967 12.8988 165.021 12.6872C165.592 12.6215 166.19 12.5851 166.594 12.344Z" fill="black"/>
<path fill-rule="evenodd" clip-rule="evenodd" d="M132.794 13.5605L133.204 13.5493C133.184 13.7299 133.337 13.7057 133.283 13.9173C133.659 13.907 134.122 13.9643 134.304 13.7392C134.575 13.6618 134.482 13.9945 134.787 13.8761C134.782 14.3264 133.703 14.2859 133.483 14.0618C133.155 14.2509 132.125 14.4192 131.967 13.9534L132.719 13.9327C132.865 13.9388 132.746 13.6719 132.777 13.561L132.794 13.5605Z" fill="black"/>
<path fill-rule="evenodd" clip-rule="evenodd" d="M169.618 12.5513L170.233 12.5344C170.18 12.7959 169.676 12.8098 169.618 12.5513Z" fill="black"/>
<path fill-rule="evenodd" clip-rule="evenodd" d="M91.5837 14.8403C91.6947 14.8373 91.8474 14.7931 91.859 14.9028C91.943 15.1606 91.4458 15.1142 91.5837 14.8403Z" fill="black"/>
<path fill-rule="evenodd" clip-rule="evenodd" d="M170.862 12.7374C170.883 12.5668 171.203 12.6981 171.339 12.6543C171.244 12.937 171.531 12.7891 171.486 13.0204L171.007 13.0335C170.987 12.9041 171.065 12.6618 170.862 12.7374Z" fill="black"/>
<path fill-rule="evenodd" clip-rule="evenodd" d="M173.404 12.8175C172.856 12.8025 172.661 13.1679 172.254 13.2891C172.034 13.3852 172.196 13.0506 171.976 13.1467C171.97 12.9168 172.219 12.96 172.169 12.7012C172.528 12.6714 173.256 12.4214 173.404 12.8175Z" fill="black"/>
<path fill-rule="evenodd" clip-rule="evenodd" d="M237.456 11.062L236.909 11.077C236.884 10.7775 237.473 10.7614 237.456 11.062Z" fill="black"/>
<path fill-rule="evenodd" clip-rule="evenodd" d="M238.477 10.8837C238.734 10.9067 238.459 11.5044 238.571 11.8415C238.33 11.788 238.255 11.54 238.147 11.3329C238.183 11.1018 238.387 11.0462 238.477 10.8837Z" fill="black"/>
<path fill-rule="evenodd" clip-rule="evenodd" d="M145.492 13.5826L145.765 13.5751L145.773 13.875C145.536 13.9415 145.448 13.8439 145.492 13.5826Z" fill="black"/>
<path fill-rule="evenodd" clip-rule="evenodd" d="M169.286 12.9307L169.628 12.9213C169.72 13.1589 169.407 12.9874 169.499 13.2249C169.445 13.1064 169.283 13.1208 169.286 12.9307Z" fill="black"/>
<path fill-rule="evenodd" clip-rule="evenodd" d="M170.115 12.9078C170.261 12.9438 170.565 12.8054 170.595 12.9646C170.707 13.3117 170.309 13.1525 170.123 13.1977L170.114 12.8978L170.115 12.9078Z" fill="black"/>
<path fill-rule="evenodd" clip-rule="evenodd" d="M179.367 12.6543L180.119 12.6337C180.04 12.8759 180.343 12.6876 180.264 12.9298C180.52 12.9028 180.89 12.9927 180.943 12.7611C181.116 12.8264 181.197 12.9743 181.494 12.8961L181.504 13.266C181.203 13.2042 181.122 13.3565 180.962 13.4309C180.967 13.3007 180.872 13.2733 180.885 13.1329C180.739 13.417 180.056 13.1556 179.936 13.459C179.68 13.446 179.481 13.3715 179.381 13.1741C179.578 13.1587 179.853 13.2212 179.856 13.011C179.825 12.8418 179.513 12.9904 179.375 12.9542L179.367 12.6543Z" fill="black"/>
<path fill-rule="evenodd" clip-rule="evenodd" d="M190.984 13.1561C189.938 13.665 188.968 13.5515 187.835 13.3925C187.918 12.9701 188.352 12.9081 188.778 12.8464L188.788 13.2163C189.259 13.2234 189.396 12.2993 189.805 12.8883C190.3 12.8547 190.779 12.8516 190.975 13.1564L190.984 13.1561Z" fill="black"/>
<path fill-rule="evenodd" clip-rule="evenodd" d="M185.148 13.0157C185.346 12.7502 185.404 13.2789 185.567 13.3044C185.811 13.1776 186.183 13.0174 186.254 13.4356C185.808 13.3778 185.455 13.5876 185.161 13.4656C185.059 13.1683 185.3 13.2317 185.285 13.022L185.149 13.0257L185.148 13.0157Z" fill="black"/>
<path fill-rule="evenodd" clip-rule="evenodd" d="M183.773 13.0537C183.954 13.0988 184.085 13.2052 184.058 13.4861L183.785 13.4935L183.773 13.0537Z" fill="black"/>
<path fill-rule="evenodd" clip-rule="evenodd" d="M9.72607 17.9746L10.2045 17.9615L10.2127 18.2614C9.94789 18.2686 9.80817 18.1624 9.72607 17.9746Z" fill="black"/>
<path fill-rule="evenodd" clip-rule="evenodd" d="M75.5711 16.4597C74.8583 16.6593 74.3862 16.5922 73.8598 16.7267C73.9119 16.4451 73.5241 16.6458 73.5763 16.3643C74.3512 16.5632 75.2016 15.7696 75.5711 16.4597Z" fill="black"/>
<path fill-rule="evenodd" clip-rule="evenodd" d="M183.162 13.2202L183.436 13.2127L183.444 13.5126C183.289 13.4868 183.192 13.3894 183.162 13.2202Z" fill="black"/>
<path fill-rule="evenodd" clip-rule="evenodd" d="M197.968 12.8147C197.992 13.0642 198.124 13.1906 198.389 13.1733C198.601 13.1175 198.468 12.9711 198.447 12.8016C198.965 12.6974 199.094 13.024 199.281 13.2989C198.363 13.4742 197.782 13.4901 197.079 13.1392C197.27 12.9239 197.611 12.8645 197.96 12.815L197.968 12.8147Z" fill="black"/>
<path fill-rule="evenodd" clip-rule="evenodd" d="M200.236 12.9026C200.45 12.8968 200.406 13.1681 200.653 13.1113C200.566 13.6839 200.089 13.1468 199.909 13.4318C199.697 13.4976 199.816 13.1743 199.563 13.2912C199.531 12.7419 200.31 13.4008 200.236 12.9026Z" fill="black"/>
<path fill-rule="evenodd" clip-rule="evenodd" d="M95.8049 15.9849C96.1475 16.0055 95.8137 16.3048 95.817 16.4248C95.6624 16.399 95.5656 16.3016 95.5354 16.1324C95.6544 16.1091 95.879 16.193 95.8046 15.9749L95.8049 15.9849Z" fill="black"/>
<path fill-rule="evenodd" clip-rule="evenodd" d="M96.2832 15.9722C96.7078 16.4907 97.6637 16.1144 98.1413 16.0713C98.1721 16.2605 98.3606 16.2754 98.4913 16.3618C98.3523 16.5957 98.354 16.6557 98.5055 16.8816C98.2809 16.7977 98.4608 17.1229 98.2362 17.0391C98.0038 16.0451 96.9539 16.7341 96.2955 16.422L96.2835 15.9822L96.2832 15.9722Z" fill="black"/>
<path fill-rule="evenodd" clip-rule="evenodd" d="M162.736 14.1506C163.02 14.2128 163.221 14.3674 163.231 14.7273C162.839 14.798 162.696 14.5718 162.736 14.1506Z" fill="black"/>
<path fill-rule="evenodd" clip-rule="evenodd" d="M93.1349 16.2085C93.3567 16.1924 93.4372 16.3202 93.4848 16.499L92.8697 16.5159C92.7587 16.2088 93.2547 16.5253 93.1349 16.2085Z" fill="black"/>
<path fill-rule="evenodd" clip-rule="evenodd" d="M94.5698 16.1689L94.9116 16.1596L94.9198 16.4595L94.578 16.4688L94.5698 16.1689Z" fill="black"/>
<path fill-rule="evenodd" clip-rule="evenodd" d="M66.3882 17.0815L67.2767 17.0572C67.0286 17.3641 66.6442 17.3746 66.3882 17.0815Z" fill="black"/>
<path fill-rule="evenodd" clip-rule="evenodd" d="M132.499 15.2692C132.836 15.39 133.14 15.5617 133.601 15.5391C133.535 15.6209 133.469 15.6928 133.402 15.7646C132.869 15.6592 132.476 15.65 132.027 15.8023C132.13 15.5094 131.727 15.7805 131.747 15.5899C131.711 15.1907 132.527 15.6685 132.491 15.2694L132.499 15.2692Z" fill="black"/>
<path fill-rule="evenodd" clip-rule="evenodd" d="M140.94 15.3379C139.823 15.7587 138.073 15.2364 137.246 15.6592C137.094 15.7034 137.149 15.5219 137.037 15.5149C136.888 15.6991 136.249 15.7666 136.014 15.613C136.446 14.8309 139.461 15.0383 140.333 15.3445C140.604 15.2471 140.711 15.1041 140.948 15.3277L140.94 15.3379Z" fill="black"/>
<path fill-rule="evenodd" clip-rule="evenodd" d="M135.66 15.4828C135.533 15.5463 135.477 15.6778 135.324 15.7121C135.087 15.4685 134.518 15.6141 134.081 15.5961C134.342 15.1287 134.999 15.691 135.66 15.4828Z" fill="black"/>
<path fill-rule="evenodd" clip-rule="evenodd" d="M165.627 14.5115C165.773 14.5475 166.102 14.3785 166.041 14.6502C165.895 14.6142 165.566 14.7833 165.627 14.5115Z" fill="black"/>
<path fill-rule="evenodd" clip-rule="evenodd" d="M112.15 16.4976L109.612 16.5671C109.862 16.0301 111.74 15.9186 112.15 16.4976Z" fill="black"/>
<path fill-rule="evenodd" clip-rule="evenodd" d="M117.011 16.064L117.49 16.0508L117.494 16.2008L117.015 16.2139L117.011 16.064Z" fill="black"/>
<path fill-rule="evenodd" clip-rule="evenodd" d="M117.626 16.0474L117.9 16.0399C117.895 16.1701 117.99 16.1975 117.976 16.3379L117.635 16.3472L117.626 16.0474Z" fill="black"/>
<path fill-rule="evenodd" clip-rule="evenodd" d="M121.27 16.0976C122.031 16.0767 122.84 15.9845 123.269 16.3429C122.807 16.3355 121.602 16.6487 121.27 16.0976Z" fill="black"/>
<path fill-rule="evenodd" clip-rule="evenodd" d="M154.94 15.1743L155.214 15.1668C155.209 15.297 155.304 15.3244 155.29 15.4648C155.069 15.4809 154.988 15.3531 154.94 15.1743Z" fill="black"/>
<path fill-rule="evenodd" clip-rule="evenodd" d="M159.951 15.1872C159.841 15.5304 159.255 15.3863 158.863 15.4371C158.93 14.735 159.433 15.3314 159.951 15.1872Z" fill="black"/>
<path fill-rule="evenodd" clip-rule="evenodd" d="M161.664 15.2902C161.328 15.2194 161.021 15.538 160.775 15.3146C160.949 15.0898 161.59 14.7921 161.664 15.2902Z" fill="black"/>
<path fill-rule="evenodd" clip-rule="evenodd" d="M123.467 16.4075C123.657 15.8321 124.319 16.5942 124.555 16.1576C124.774 16.0616 124.613 16.3961 124.832 16.3001C124.924 16.2275 125.404 15.9443 125.447 16.2832C125.654 16.3276 126.034 16.1671 126.133 16.3344C125.14 16.3116 124.093 16.4704 123.459 16.4077L123.467 16.4075Z" fill="black"/>
<path fill-rule="evenodd" clip-rule="evenodd" d="M162.626 15.1137L163.104 15.1006C163.082 15.2313 163.159 15.2392 163.245 15.2468C163.18 15.3686 162.93 15.3055 162.909 15.4761C162.745 15.4306 162.615 15.3541 162.626 15.1137Z" fill="black"/>
<path fill-rule="evenodd" clip-rule="evenodd" d="M136.426 15.9819C137.128 16.0327 137.611 15.8694 138.213 16.0029C138.101 16.5862 136.959 16.1073 136.645 16.4861C136.613 16.2669 136.316 16.355 136.426 15.9719L136.426 15.9819Z" fill="black"/>
<path fill-rule="evenodd" clip-rule="evenodd" d="M164.477 15.2833C164.882 15.1021 165.595 15.2226 166.124 15.1681C165.889 15.3446 164.98 15.5296 164.477 15.2833Z" fill="black"/>
<path fill-rule="evenodd" clip-rule="evenodd" d="M171.688 15.3858C171.268 15.6775 169.927 15.7142 169.825 15.1368C170.525 15.0976 171.34 14.8652 171.688 15.3858Z" fill="black"/>
<path fill-rule="evenodd" clip-rule="evenodd" d="M88.7758 17.5081C89.0511 17.5706 89.2272 17.7559 89.403 17.9311C89.7627 17.6411 90.8673 17.7009 91.257 17.8803C91.5814 17.5513 91.8379 17.8644 92.2822 17.8522C92.5812 17.844 92.9059 17.525 93.1625 17.5279C93.2736 17.5249 93.3397 17.7532 93.5125 17.8185C94.2202 18.0592 95.199 17.272 95.5734 17.832C96.7712 17.5491 97.8022 18.041 98.8627 17.7418C99.6625 18.2201 101.033 17.9925 102.027 18.0952C102.232 18.0896 102.226 17.8597 102.361 17.786C102.859 17.8524 103.158 18.1543 103.747 18.1181C103.339 18.5495 102.917 18.1209 102.525 18.4518C101.577 18.1976 100.568 18.5054 99.5045 18.3845C96.7089 18.081 93.5796 18.707 91.1944 18.0921C89.2183 18.3663 87.9257 18.3117 86.1837 18.0794C86.7697 17.313 88.1897 18.2745 88.7752 17.4881L88.7758 17.5081Z" fill="black"/>
<path fill-rule="evenodd" clip-rule="evenodd" d="M238.614 13.4011L238.819 13.3955C238.796 13.8062 238.597 14.0318 238.222 14.0821C238.146 13.7941 238.456 13.8856 238.345 13.5585C238.464 13.5352 238.688 13.6191 238.614 13.4011Z" fill="black"/>
<path fill-rule="evenodd" clip-rule="evenodd" d="M175.942 15.269L176.899 15.2428C176.965 15.4811 176.847 15.5243 176.772 15.6164C176.527 15.3931 176.252 15.3606 175.95 15.5689L175.942 15.269Z" fill="black"/>
<path fill-rule="evenodd" clip-rule="evenodd" d="M178.757 15.3419C178.668 15.8246 177.735 15.5 177.386 15.5296L177.381 15.3796C177.529 15.1355 178.588 15.1065 178.757 15.3419Z" fill="black"/>
<path fill-rule="evenodd" clip-rule="evenodd" d="M204.952 14.6238C205.67 14.9243 206.669 14.9069 207.371 15.2278C206.125 15.3219 204.753 15.1795 203.245 15.0408C203.536 14.4625 204.642 15.1625 204.952 14.6238Z" fill="black"/>
<path fill-rule="evenodd" clip-rule="evenodd" d="M183.494 15.352C184.674 15.3496 186.108 15.2603 187.401 15.3149C187.431 15.5041 187.628 15.5187 187.552 15.831C186.331 15.6143 185.419 15.7094 184.26 15.8512C184.066 15.6164 183.457 15.8532 183.494 15.352Z" fill="black"/>
<path fill-rule="evenodd" clip-rule="evenodd" d="M192.136 15.2655C192.068 15.6074 191.702 15.6375 191.326 15.6578L191.314 15.218C191.533 15.1119 191.903 15.1718 192.136 15.2655Z" fill="black"/>
<path fill-rule="evenodd" clip-rule="evenodd" d="M201.871 14.8484C201.946 15.0664 201.386 15.2418 201.395 14.9315C201.557 14.907 201.648 14.8045 201.871 14.8484Z" fill="black"/>
<path fill-rule="evenodd" clip-rule="evenodd" d="M136.933 16.7085C137.589 16.9206 138.045 16.4179 138.385 16.9688C138.067 17.1976 137.466 17.134 136.945 17.1583L136.933 16.7185L136.933 16.7085Z" fill="black"/>
<path fill-rule="evenodd" clip-rule="evenodd" d="M166.281 15.9041C166.427 15.9401 166.756 15.771 166.695 16.0428C166.549 16.0068 166.22 16.1759 166.281 15.9041Z" fill="black"/>
<path fill-rule="evenodd" clip-rule="evenodd" d="M170.817 16.0799C170.562 16.107 170.191 16.0171 170.138 16.2486C169.983 16.2228 169.887 16.1255 169.856 15.9562C170.072 15.7202 170.747 15.7117 170.817 16.0799Z" fill="black"/>
<path fill-rule="evenodd" clip-rule="evenodd" d="M232.597 14.086L232.87 14.0785L232.878 14.3784C232.641 14.445 232.553 14.3473 232.597 14.086Z" fill="black"/>
<path fill-rule="evenodd" clip-rule="evenodd" d="M138.646 16.8115L138.988 16.8021C139.08 17.0397 138.768 16.8682 138.86 17.1058C138.805 16.9872 138.643 17.0017 138.646 16.8115Z" fill="black"/>
<path fill-rule="evenodd" clip-rule="evenodd" d="M198.733 15.4544C198.436 15.8627 197.176 15.7472 196.744 15.579C195.553 15.8017 194.89 15.6298 193.66 15.6635C193.594 15.4552 193.749 15.471 193.718 15.2918C194.738 15.0737 195.761 15.5659 196.461 15.2166C196.991 15.5522 198.202 15.1188 198.733 15.4544Z" fill="black"/>
<path fill-rule="evenodd" clip-rule="evenodd" d="M58.9053 19.5173C58.5225 19.5879 58.364 19.4221 58.1474 19.318C58.2326 18.9956 59.0139 19.1142 58.9053 19.5173Z" fill="black"/>
<path fill-rule="evenodd" clip-rule="evenodd" d="M106.56 17.841C107.286 18.1112 109.365 17.8641 110.479 17.9536C110.762 17.9759 111.252 17.7624 111.376 18.2292C109.929 18.769 108.26 17.7644 107.33 18.4901C107.054 18.3976 106.72 18.3768 106.436 18.2946C106.207 18.0607 106.575 18.0707 106.56 17.851L106.56 17.841Z" fill="black"/>
<path fill-rule="evenodd" clip-rule="evenodd" d="M214.877 16.1223C214.705 16.7172 214.344 16.327 214.001 16.5865C212.619 16.3943 210.644 16.0983 209.326 16.3445C207.944 15.8322 205.641 16.3755 204.301 15.812C204.041 15.7091 204.178 16.0154 203.963 15.9713C203.14 15.5637 201.661 15.8944 200.73 15.6198C201.685 14.9133 202.226 15.6088 203.535 15.3228C203.932 15.7621 205.124 15.2892 205.471 15.7899C205.64 15.7153 205.713 15.5632 206.014 15.625C206.503 15.9817 207.737 15.4877 208.218 15.8647C208.493 15.9272 208.382 15.6001 208.692 15.7016C208.956 15.6344 208.912 15.9157 209.108 15.9103C211.077 15.6563 213.102 15.9209 214.877 16.1223Z" fill="black"/>
<path fill-rule="evenodd" clip-rule="evenodd" d="M221.295 14.7662C221.25 15.0176 220.904 14.867 220.547 14.9368C220.584 14.7057 221.102 14.5915 221.295 14.7662Z" fill="black"/>
<path fill-rule="evenodd" clip-rule="evenodd" d="M227.393 14.5289C227.323 14.7909 227.21 15.0141 227.281 15.4223L226.939 15.4317C226.981 15.1004 226.883 14.9431 226.784 14.7657C227.172 14.8751 227.023 14.429 227.393 14.5289Z" fill="black"/>
<path fill-rule="evenodd" clip-rule="evenodd" d="M178.85 16.2295C178.182 16.1978 177.34 16.3709 176.789 16.216C177.167 15.9755 178.549 15.8776 178.85 16.2295Z" fill="black"/>
<path fill-rule="evenodd" clip-rule="evenodd" d="M115.759 18.099C115.582 18.8142 114.556 17.8919 114.118 18.4441C113.856 18.2312 113.254 18.4078 113.016 18.1742C113.58 17.5285 115.07 17.9279 115.759 18.099Z" fill="black"/>
<path fill-rule="evenodd" clip-rule="evenodd" d="M232.611 14.6061C232.857 14.8494 233.453 14.7431 233.704 14.5761C233.88 14.7514 234.172 14.8034 234.332 14.9991C233.308 15.4073 232.369 15.1229 231.046 15.2392C231.272 14.7228 232.175 14.9082 232.611 14.6061Z" fill="black"/>
<path fill-rule="evenodd" clip-rule="evenodd" d="M122.418 18.0665C122.233 18.4818 121.671 18.2571 121.192 18.2502C120.448 18.2306 119.489 18.497 119.129 18.1567C119.646 17.9825 120.55 17.6175 121.115 17.9522C121.374 17.725 122.321 17.649 122.418 18.0665Z" fill="black"/>
<path fill-rule="evenodd" clip-rule="evenodd" d="M209.983 15.3763C212.635 15.4337 213.902 15.1888 216.159 15.5071C215.779 15.9877 215.148 15.7149 214.583 15.7004C213.086 15.6614 211.514 15.7345 210.119 15.6727C210.198 15.4304 209.895 15.6188 209.974 15.3765L209.983 15.3763Z" fill="black"/>
<path fill-rule="evenodd" clip-rule="evenodd" d="M116.937 18.367L116.117 18.3895C116.164 17.908 116.785 18.1211 116.937 18.367Z" fill="black"/>
<path fill-rule="evenodd" clip-rule="evenodd" d="M122.688 17.9095C123.097 17.8782 123.515 17.8368 123.584 18.185C123.921 18.3058 124.019 17.823 124.266 18.0963C124.018 18.4032 123.065 18.2593 122.687 18.2096L122.679 17.9097L122.688 17.9095Z" fill="black"/>
<path fill-rule="evenodd" clip-rule="evenodd" d="M221.17 15.2095C221.912 15.7394 223.442 14.7871 223.853 15.4361C223.1 15.4367 222.12 16.1539 221.659 15.5663C221.471 15.8915 220.247 16.1452 220.078 15.6096C220.398 15.4308 221.185 15.7293 221.162 15.2098L221.17 15.2095Z" fill="black"/>
<path fill-rule="evenodd" clip-rule="evenodd" d="M133.399 18.1357L131.955 18.1752C132.291 17.956 133.235 17.4799 133.399 18.1357Z" fill="black"/>
<path fill-rule="evenodd" clip-rule="evenodd" d="M141.088 18.2253C139.429 18.2207 137.961 18.311 136.555 18.1995C136.136 18.171 135.45 18.4198 135.105 18.0191C135.814 17.6696 137.111 17.8941 137.566 17.6516C137.855 17.8737 138.626 18.2727 138.946 17.7638C139.552 18.0373 140.672 17.7165 141.088 18.2253Z" fill="black"/>
<path fill-rule="evenodd" clip-rule="evenodd" d="M157.046 17.1173C157.276 17.091 157.464 17.0959 157.528 17.2542C157.447 17.4164 157.001 17.3486 157.046 17.1173Z" fill="black"/>
<path fill-rule="evenodd" clip-rule="evenodd" d="M126.957 18.3126C126.81 18.2766 126.506 18.4149 126.476 18.2557C126.401 18.0077 126.977 18.1319 126.957 18.3126Z" fill="black"/>
<path fill-rule="evenodd" clip-rule="evenodd" d="M198.061 16.2131C198.223 16.5088 198.059 16.7434 197.663 16.6642C197.629 16.345 197.761 16.1913 198.061 16.2131Z" fill="black"/>
<path fill-rule="evenodd" clip-rule="evenodd" d="M207.341 16.6291C207.063 16.7868 205.855 16.6998 205.414 16.5318C205.199 16.4577 205.247 16.6565 205.145 16.6893C204.659 16.4225 203.39 16.5873 202.535 16.6108C201.971 16.6262 201.247 16.7061 200.945 16.2842C201.065 16.3109 201.071 16.2207 201.077 16.1305C203.243 16.2212 205.358 16.3433 207.332 16.6293L207.341 16.6291Z" fill="black"/>
<path fill-rule="evenodd" clip-rule="evenodd" d="M227.554 15.405L227.759 15.3994C227.726 15.7405 227.8 15.9685 227.982 16.0636C228.185 15.968 228.67 15.5745 228.803 16.0411C228.743 16.3628 228.138 16.1293 227.85 16.2172C227.749 16.28 227.71 16.4112 227.723 16.5909C227.373 16.6005 227.005 16.5705 226.839 16.7652C225.789 16.5038 224.02 16.5423 222.934 16.8722C222.54 16.5129 221.623 16.7381 220.938 16.7068C220.775 16.6813 220.981 17.0458 220.739 16.9324C219.925 16.2744 218.738 17.2373 217.914 16.4896C218.602 15.7005 219.918 16.3046 221.062 16.2533C221.792 16.6634 223.062 15.6082 223.736 16.1799C224.268 16.2454 224.571 16.077 224.971 15.996C225.086 16.123 225.358 16.0655 225.389 16.2847C225.847 16.1521 226.805 15.8557 227.171 16.0858C227.389 15.9498 227.669 15.8721 227.563 15.4048L227.554 15.405Z" fill="black"/>
<path fill-rule="evenodd" clip-rule="evenodd" d="M233.727 15.3857C233.881 15.4115 233.978 15.5089 234.008 15.6781L233.735 15.6856L233.727 15.3857Z" fill="black"/>
<path fill-rule="evenodd" clip-rule="evenodd" d="M114.068 18.8157C114.34 18.7382 114.246 19.0709 114.551 18.9525C114.442 19.0555 114.413 19.2464 114.147 19.1837C114.176 19.0228 114.049 19.0463 113.937 19.0393C113.978 18.9582 114.089 18.9551 114.068 18.8157Z" fill="black"/>
<path fill-rule="evenodd" clip-rule="evenodd" d="M232.569 15.5677C232.516 15.8492 232.412 16.0822 232.245 16.2468C232.04 16.2524 232.034 16.0225 231.895 15.9563C231.65 16.043 231.457 16.1784 231.079 16.1287C231.059 15.409 232.254 15.9364 232.577 15.5674L232.569 15.5677Z" fill="black"/>
<path fill-rule="evenodd" clip-rule="evenodd" d="M230.242 15.8513C230.227 16.2219 230.007 16.3179 230.395 16.4374C230.254 16.5713 229.622 16.6186 229.639 16.308L229.981 16.2987C230.077 16.0359 229.749 16.265 229.77 16.0844C229.759 15.6745 229.969 15.8688 230.242 15.8513Z" fill="black"/>
<path fill-rule="evenodd" clip-rule="evenodd" d="M187.652 17.0186C187.945 17.3907 189.025 16.881 189.31 17.2733L187.592 17.3204C187.58 17.1907 187.673 17.1581 187.652 17.0186Z" fill="black"/>
<path fill-rule="evenodd" clip-rule="evenodd" d="M195.973 17.3807C195.756 17.5667 195.16 17.363 195.022 17.6269C195.015 17.387 194.71 17.4754 194.803 17.1127C195.365 17.0273 195.628 16.96 195.973 17.3807Z" fill="black"/>
<path fill-rule="evenodd" clip-rule="evenodd" d="M199.546 17.6531C198.884 17.5512 197.516 17.8588 196.861 17.3565C197.036 16.8616 197.875 17.2087 198.015 17.0248C198.232 17.1389 198.457 17.2328 198.64 17.3778C198.942 17.4596 199.633 17.1105 199.537 17.6533L199.546 17.6531Z" fill="black"/>
<path fill-rule="evenodd" clip-rule="evenodd" d="M209.541 16.7189L209.882 16.7095C209.991 16.9366 209.444 16.9516 209.541 16.7189Z" fill="black"/>
<path fill-rule="evenodd" clip-rule="evenodd" d="M210.16 16.8521C211.121 16.6457 212.026 17.2411 212.766 16.7807C213.444 17.1922 214.441 16.7647 215.044 17.2384C213.132 17.3408 211.943 17.0333 210.16 16.8521Z" fill="black"/>
<path fill-rule="evenodd" clip-rule="evenodd" d="M238.902 16.434L238.911 16.7339L238.569 16.7433C238.607 16.5722 238.68 16.4301 238.902 16.434Z" fill="black"/>
<path fill-rule="evenodd" clip-rule="evenodd" d="M219.03 17.2689C219.312 17.2612 219.46 17.3871 219.783 17.3183C219.662 17.5817 219.365 17.6598 218.971 17.6406C218.941 17.4714 218.972 17.3605 219.03 17.2689Z" fill="black"/>
<path fill-rule="evenodd" clip-rule="evenodd" d="M221.014 17.2949C221.144 17.3714 221.333 17.3862 221.364 17.5854L221.022 17.5948L221.014 17.2949Z" fill="black"/>
<path fill-rule="evenodd" clip-rule="evenodd" d="M239.057 17.0902L239.076 17.76C238.76 17.7886 238.71 17.5099 238.32 17.6306C238.459 17.3967 238.457 17.3368 238.305 17.1108C238.629 17.0719 238.793 16.8173 239.057 17.0902Z" fill="black"/>
<path fill-rule="evenodd" clip-rule="evenodd" d="M226.994 17.4209L227.472 17.4078L227.476 17.5577L226.998 17.5708L226.994 17.4209Z" fill="black"/>
<path fill-rule="evenodd" clip-rule="evenodd" d="M236.009 18.5043C236.273 18.4371 236.312 18.6161 236.426 18.713C236.46 19.0422 236.046 18.9035 236.028 19.1641C235.827 19.0195 236.041 18.7036 236.009 18.4944L236.009 18.5043Z" fill="black"/>
<path fill-rule="evenodd" clip-rule="evenodd" d="M174.098 8.20668C174.356 8.26963 174.457 8.50696 174.79 8.48783C174.796 8.69775 174.769 8.96859 174.874 9.07573C175.68 8.83357 176.655 9.14698 177.41 8.9362C177.553 8.84226 177.44 8.4852 177.601 8.41078C178.053 8.39837 178.125 8.83656 178.304 9.13177C178.69 8.8411 179.694 9.61387 180.295 9.0772C180.345 9.34593 181.138 9.25417 181.184 9.05284C181.53 9.21341 182.611 9.33384 182.831 8.93767C182.409 8.82919 181.886 8.80349 181.453 8.9054C181.384 8.57716 181.729 8.65776 181.712 8.3781C182.075 8.50821 182.314 8.48166 183.024 8.49221C183.041 8.80186 182.907 8.90557 183.042 9.16196C183.597 9.12675 184.833 8.99283 185.515 9.24422C185.673 9.08983 185.937 9.05258 186.263 9.07367C186.342 8.83142 186.039 9.01978 186.118 8.77753C185.848 8.92497 184.921 8.79032 184.399 8.75463C184.945 8.39953 186.089 8.65828 186.864 8.537C186.769 8.8297 186.27 8.69334 186.333 9.14177C187.468 9.06064 188.353 9.22645 189.279 8.991C190.117 9.63826 191.438 8.84178 192.709 9.04703C192.788 8.80478 192.485 8.99314 192.564 8.75089C192.229 9.01016 191.829 8.77103 191.466 8.63092C191.529 8.42912 191.901 8.26888 192.011 8.54596C193.03 8.59806 193.965 8.38237 194.961 8.53514C195.113 8.47094 194.975 8.11459 195.013 7.94348C195.217 7.88788 195.605 8.01729 195.694 7.85478L195.69 7.70483C195.297 7.69561 194.754 7.87054 194.377 7.52075C194.27 7.65374 193.995 7.61126 193.975 7.83187C193.903 7.7038 193.782 7.6471 193.561 7.69317C193.468 7.71574 193.506 7.88474 193.501 7.99493C192.748 7.98555 192.025 8.09543 191.442 8.05137C191.331 7.7443 191.8 8.03154 191.778 7.82209C191.622 7.76633 191.591 7.5771 191.361 7.61341C191.268 7.63598 191.307 7.80498 191.301 7.91517C191.296 7.70525 190.924 7.88549 190.951 7.62465C192.437 7.25379 194.089 7.30856 195.747 7.27312C197.165 7.23424 198.982 7.39451 200.072 7.22459C200.607 7.73011 202.428 6.76986 202.557 7.74669C202.336 7.79276 202.215 7.73606 202.143 7.60798C201.644 8.13184 200.674 7.35814 200.225 7.81062C199.083 7.64184 197.797 7.50704 197.07 7.82707C197.351 8.09947 198.312 7.58295 198.386 8.09112C197.688 8.21029 196.56 7.91109 196.196 8.37123C198.667 8.70363 201.002 8.38955 203.079 8.99286C202.9 9.3179 202.049 9.17115 201.906 8.95498C201.455 9.03736 200.648 9.19956 200.39 8.84648C200.212 8.90138 200.087 9.01485 200.129 9.29381C200.288 9.49952 200.633 9.28 200.742 9.20698C200.977 9.37059 201.408 9.78895 201.634 9.33256C202.247 9.83598 203.858 9.05152 204.524 9.6235C206.228 9.41672 207.854 10.0824 209.197 9.79552C209.999 10.3438 210.969 9.57687 211.813 10.0939C212.492 9.61515 214.265 10.3568 215.034 10.0057C217.065 10.1801 219.863 9.94331 222.371 9.73451C222.279 9.48695 221.854 9.60861 221.679 9.45336C220.303 9.77119 218.61 9.76758 217.358 9.64184C217.616 9.06456 219.026 9.66614 219.407 9.21553C219.766 9.5458 220.681 9.23062 221.265 9.31466C221.866 9.08811 222.806 9.40245 223.593 9.10078C223.949 8.05063 225.449 8.16958 226.509 7.84042C227.023 8.19647 227.515 7.74281 228.157 7.79522C228.221 8.24365 227.546 7.93204 227.486 8.25379C227.161 7.93258 226.829 8.31181 226.463 8.35187C226.473 8.73173 226.45 9.13251 226.626 9.30776C226.783 9.13338 227.108 9.12448 227.442 9.13534C227.538 8.90261 227.748 8.7768 227.906 8.60242C228.117 8.82671 228.464 8.69715 228.585 8.43374C228.655 8.48185 228.658 8.6018 228.794 8.57806C228.852 8.80657 228.558 8.67458 228.668 8.95167C228.464 9.00727 228.076 8.86787 227.986 9.04038C228.309 9.58174 229.33 9.10357 229.132 8.41875C229.405 8.70138 229.781 8.40095 229.876 8.09825C229.692 7.95323 229.334 8.00305 229.25 7.74525C229.437 7.67013 229.895 7.87763 229.861 7.57845C230.081 7.48239 229.919 7.81695 230.139 7.7209C230.611 7.46787 231.102 7.59447 231.378 7.68694C232.497 7.32615 235.093 7.53508 236.72 7.32041C237.342 7.24334 238.058 7.1437 238.512 7.49138C237.832 7.95019 236.679 7.70168 236.047 7.70901C235.98 7.76087 235.983 7.88082 235.846 7.86458C235.87 8.11401 236.275 7.93284 236.133 8.37689C235.824 8.00523 235.577 8.65225 235.874 8.90419C236.14 8.91692 236.035 8.53964 236.274 8.52308C236.285 8.61282 236.404 8.57955 236.481 8.58744C236.593 8.9145 236.283 8.82297 236.359 9.11099C236.966 9.41447 237.563 8.13762 238.074 8.99394C237.887 9.3492 237.094 9.09085 236.845 9.39776C236.902 9.58628 237 9.72365 237.264 9.68641C237.2 9.85822 236.952 9.84502 237.002 10.1337C237.266 10.3966 237.478 10.0007 237.752 10.0432L237.767 10.563C237.217 10.478 237.09 10.8316 236.532 10.7469C236.796 11.0097 236.422 11.12 236.204 11.276C236.008 11.2814 235.993 11.0517 235.854 10.9855C235.597 11.2527 235.639 10.9414 235.239 11.0024C235.226 11.1228 235.311 11.1305 235.314 11.2204C235.432 11.4873 235.412 11.0477 235.585 11.143C235.517 11.4749 235.773 11.4379 235.804 11.6571C235.92 11.5139 236.37 11.7017 236.345 11.4222C236.402 11.6108 236.691 11.5428 236.697 11.7827C236.919 11.4465 237.267 11.6771 237.648 11.5366C237.738 12.0143 237.573 12.2289 237.54 12.5799L236.856 12.5987C236.802 12.8102 236.955 12.786 236.935 12.9667C237.329 13.0159 237.678 12.6262 237.956 12.7886C238.045 13.2163 237.588 13.0888 237.492 13.3215C237.416 13.6637 237.953 13.3089 237.976 13.5283C238.028 13.847 237.683 13.7564 237.576 13.9094C237.126 13.6917 236.03 13.6617 235.865 14.1764C235.893 13.9456 235.738 13.9198 235.782 13.6585C235.457 13.6374 235.184 13.6749 235.035 13.829C234.99 14.0604 235.276 13.9125 235.181 14.1952C234.993 14.1803 234.68 14.3089 234.765 13.9865C234.621 14.0304 234.512 14.1035 234.57 14.362C234.329 14.2985 234.279 14.0298 234.014 14.0071C233.842 13.9918 234.303 14.2693 234.024 14.377C233.671 13.9965 232.696 13.6731 232.091 14.0598C231.859 14.0261 231.685 13.9109 231.536 13.7749C231.391 13.7989 231.528 14.1052 231.41 14.1485C231.085 14.1574 230.86 14.0635 230.784 13.7955C231.209 13.7038 231.344 13.31 231.936 13.3938C232.037 13.331 232.076 13.1999 232.063 13.0202C231.759 12.8584 231.173 13.0145 230.762 12.9858L230.748 12.466C230.544 12.5216 230.437 12.6746 230.489 12.9933C230.122 13.0334 229.797 13.0123 229.795 12.6422C229.292 12.676 228.603 12.5248 228.716 13.192C228.299 13.2834 228.264 12.9442 227.823 13.0664L227.833 13.4362C228.277 13.7142 229.028 13.6536 229.43 13.9827C227.379 14.0089 226.038 14.3758 223.678 14.3604C223.498 14.3454 223.749 14.7686 223.481 14.6659C223.278 14.7415 223.357 14.5093 223.336 14.3698C222.638 14.1889 221.753 14.9534 221.138 14.36C220.604 14.5147 219.858 14.4451 219.218 14.4827C219.323 14.2497 219.551 14.1534 219.682 13.9498C219.862 13.9748 219.877 14.1845 220.165 14.0866C220.531 13.7164 221.548 14.0087 221.729 13.4535C220.851 13.2275 220.13 13.7574 219.459 13.2956C219.22 13.3022 219.288 13.6004 219.057 13.6068C218.878 13.6317 218.873 13.4617 218.844 13.3125C217.47 13.4102 216.457 13.2579 215.281 13.4102L215.295 13.93C215.506 13.524 215.835 13.9752 216.387 13.83L216.397 14.1999C216.91 14.1958 217.224 14.4273 217.845 14.3102C217.367 14.6635 216.292 14.4028 215.585 14.5222L215.577 14.2224C215.199 14.1527 215.111 14.3752 214.97 14.5391C214.472 14.4727 213.81 14.0307 213.317 14.4344C212.461 14.0877 211.827 14.3652 210.908 14.2003C210.435 14.1132 209.865 13.8788 209.454 13.87C209.36 13.8726 209.296 14.0344 209.185 14.0274C208.662 13.9718 207.999 13.4997 207.463 13.9246C206.054 13.9632 204.388 13.7288 202.985 13.3771C202.77 13.323 202.907 13.6293 202.647 13.5364C202.29 13.2961 201.73 13.4315 201.56 13.7863C201.305 13.8433 201.266 13.6643 201.011 13.7313C201.086 13.3391 200.738 13.4287 200.722 13.149C200.887 13.2445 201.035 13.3505 201.341 13.2821C201.214 12.0851 199.723 12.9163 198.984 12.4564C198.725 12.3534 198.861 12.6598 198.646 12.6157C197.876 12.2567 197.032 12.6599 196.242 12.5315C195.992 12.4883 195.85 12.2822 195.687 12.2466C194.939 12.1071 193.758 12.6897 192.606 12.4811C192.408 12.4065 192.25 12.2808 192.051 12.1962C190.477 12.4795 187.844 12.4716 186.361 12.3522C185.213 12.2636 183.98 12.5175 183.07 12.3724C182.538 12.287 181.125 12.5457 179.988 12.5269C179.612 12.5272 179.261 12.2067 178.892 12.4869C177.938 12.293 176.98 12.5894 176.08 12.494C176.251 12.8094 176.994 12.4689 177.048 12.9076C177.563 12.6434 177.779 13.0476 178.283 12.7237C178.479 12.7083 178.427 12.9699 178.697 12.8624C178.591 13.0454 178.371 13.1114 178.37 13.3916C177.766 13.188 176.944 13.4507 176.106 13.4536C176.055 13.1649 176.303 13.1781 176.367 13.0063C176.219 12.9203 176.014 12.9059 175.883 12.7995L175.868 12.2797C175.386 12.463 175.095 12.1308 174.642 12.4634C174.034 12.1099 172.668 12.1674 172.306 12.3774C170.978 11.9636 168.978 12.6386 167.968 11.9761C167.868 12.0588 167.803 12.1907 167.703 12.2834C166.563 11.8545 164.378 12.6147 163.436 11.9602C163.012 12.392 162.388 12.069 161.802 12.5252C161.719 12.2974 161.908 12.3423 161.93 12.2216C161.885 12.1428 161.774 12.1458 161.788 12.0054C160.375 12.2542 158.003 12.4393 156.777 11.9927C156.729 12.1141 156.566 12.1085 156.58 12.2982C156.003 11.8539 155.078 12.7095 154.649 12.051C153.918 12.8314 153.077 12.0741 152.333 12.7048C152.341 12.9747 152.68 12.8653 152.753 13.0634C153 13.0266 153.072 12.8146 153.433 12.8947C153.693 13.948 152.404 13.113 151.871 13.6078C151.677 13.403 151.217 13.4856 150.841 13.4859C150.767 13.2879 150.697 12.9197 150.891 12.8143C151.215 12.7754 151.207 13.1158 151.382 13.241L151.655 13.2335C151.901 13.1468 151.742 12.6509 152.19 12.7787C151.84 12.4882 151.295 12.5632 150.744 12.7483L150.732 12.3085C151.562 12.0356 152.748 12.2532 153.257 11.7991C153.213 11.7203 153.101 11.7233 153.115 11.5829C152.92 11.6483 152.707 11.6941 152.644 11.8959C152.382 11.673 151.519 11.6967 151.269 11.9336C151.175 11.6261 151.371 11.6007 151.391 11.4101C152.225 11.5773 152.615 11.4566 153.31 11.2074C153.403 11.1849 153.364 11.0159 153.37 10.9057C154.209 11.5829 155.513 10.7869 156.731 10.9636C156.753 10.8029 156.683 10.7648 156.655 10.6656C155.632 10.7636 154.163 10.5338 153.227 10.6895C153.206 10.2499 152.389 10.3624 152.198 10.5677C150.895 10.1332 150.003 11.2981 148.581 11.187C148.392 11.1422 148.642 11.5355 148.452 11.4906C148.181 11.5681 148.274 11.2354 147.97 11.3538C147.817 11.388 147.954 11.7144 147.916 11.8755C147.59 11.8544 147.493 12.0671 147.449 12.3284C147.532 12.5462 148.063 12.2416 148.137 12.4596C148.143 12.9897 147.041 12.3897 147.196 13.0757C147.222 13.3851 147.562 13.3257 147.687 13.5024C147.797 13.7795 147.503 13.6475 147.56 13.876C147.032 13.6304 146.203 14.2633 145.835 13.6232C146.077 13.4364 146.567 13.5031 146.431 12.9366C146.671 12.93 146.611 13.2318 146.85 13.2252C146.917 13.1733 146.913 13.0534 147.051 13.0696C146.69 12.3993 145.641 13.1183 144.712 12.9137C144.864 12.5194 145.869 12.992 145.941 12.5098C145.221 12.1294 144.66 12.565 143.61 12.6437C143.742 12.13 144.656 12.415 144.682 11.8041C145.019 11.9549 145.432 12.0236 145.852 12.0721C145.906 11.8606 146.022 11.7173 146.182 11.6229C146.067 11.506 145.944 11.3793 145.83 11.2624C145.669 11.3168 145.851 11.722 145.707 11.786C145.053 11.6138 144.624 11.5756 143.99 11.833C144.067 11.5208 143.87 11.5062 143.839 11.317C141.958 11.9388 139.493 11.8263 137.403 12.0136C137.486 12.2214 137.626 12.3676 137.759 12.524C138.074 12.4954 138.523 12.313 138.652 12.6496C138.955 12.1711 140.164 12.6082 140.564 12.2271C141.377 12.5749 142.068 11.9057 143.037 12.3093C141.477 12.4921 139.796 13.5286 138.181 12.9626C138.057 13.4162 137.407 13.0839 137.024 13.1444C136.845 13.7896 137.793 13.7636 137.991 13.4881C139.021 13.96 140.045 12.9516 140.474 13.9402C139.58 14.3948 137.745 13.8849 136.851 14.3396C136.61 14.2662 136.459 14.0702 136.491 13.6792C136.672 13.7243 136.819 13.8103 136.975 13.886C136.925 13.5873 136.758 13.4218 136.483 13.3793C136.389 13.0718 136.77 13.2414 136.816 13.0701C136.779 12.6509 136.369 12.6622 136.05 12.5709C136.345 12.3927 136.876 12.4582 136.995 12.1048C136.376 11.9817 135.591 12.0433 135.069 12.0076C135.103 11.7065 135.666 11.9512 135.674 11.6208C135.283 11.4215 134.725 11.6468 134.729 12.0869C134.401 11.9659 133.856 12.0608 133.71 12.3349C133.797 12.7127 134.515 12.3929 134.61 12.7504C133.31 12.726 132.896 12.6173 131.936 12.8237C131.805 12.7173 131.591 12.7031 131.452 12.6169C131.554 12.284 132.21 12.5361 132.541 12.437C132.408 11.9505 131.488 12.0757 131.161 12.3247C130.932 12.0809 130.586 12.2205 130.341 12.3472C130.31 12.158 130.113 12.1434 130.19 11.8312C130.07 11.8145 129.85 11.9105 129.913 11.6887C129.846 11.7406 129.849 11.8605 129.712 11.8443C129.67 12.1956 129.952 12.1878 129.935 12.5084C130.406 12.5355 131.043 12.368 131.315 12.6207C131.25 12.7425 131 12.6793 130.979 12.8499C130.806 12.7847 130.725 12.6368 130.428 12.715C130.211 12.901 130.073 13.1649 129.97 13.4678C130.149 13.743 130.222 13.3009 130.447 13.3847C130.646 13.4893 130.846 13.5939 130.871 13.8933C130.455 13.7046 129.576 14.0489 129.284 13.7167C129.126 13.8711 128.862 13.9083 128.537 13.8873C128.608 13.6752 128.898 13.6773 128.935 13.4362C129.324 13.6156 129.393 13.3336 129.89 13.34C129.961 13.128 129.956 12.948 129.873 12.7502C129.677 12.7456 129.744 13.0039 129.467 12.9114C129.611 12.5373 129.512 12.6701 129.449 12.2416L128.142 12.2775C128.099 12.5888 128.189 12.7364 128.361 12.7917C127.977 13.1423 127.382 13.5588 126.793 13.2748C126.741 13.5663 127.037 13.4582 126.944 13.7909C127.176 13.8345 127.047 13.5179 127.209 13.4835C127.557 13.704 128.302 13.4535 128.252 14.1251C128.031 14.1712 127.91 14.1145 127.838 13.9864C127.838 14.3065 127.184 14.4445 127.022 14.1589C126.555 14.2617 125.809 14.4922 125.168 14.2097C124.909 14.1067 125.045 14.4131 124.83 14.369C123.863 14.3255 121.662 14.1857 120.505 14.4175C120.504 14.3475 120.418 14.3599 120.367 14.3513C120.477 13.9882 120.595 13.9449 120.479 13.4579C118.562 13.3704 116.64 13.153 114.853 13.462C115.284 14.2005 116.58 13.4347 117.538 13.7586L117.55 14.1984C116.218 14.275 115.197 14.453 114.126 14.3623C114.032 14.675 114.51 14.3318 114.407 14.6547L113.792 14.6716C113.754 14.5126 113.917 14.5581 113.923 14.4479C112.972 14.0838 111.953 14.3218 111.118 14.7449C111.008 14.4678 111.425 14.7264 111.315 14.4394C111.259 14.2708 110.929 14.4199 110.766 14.3844C110.577 14.3595 110.828 14.7828 110.639 14.758C110.402 14.8245 110.314 14.7269 110.358 14.4656C109.551 14.3377 108.78 14.5989 108.22 14.1541C108.219 14.4142 107.707 14.1581 107.82 14.5352C107.416 14.1161 106.769 14.8441 106.503 14.2011C106.192 14.0696 106.391 14.4743 106.238 14.5085C105.571 14.1967 104.835 14.8071 104.175 14.415C103.825 14.7647 102.993 14.6675 102.462 14.612C102.367 14.2745 102.923 14.5994 102.934 14.379C102.564 14.3091 101.491 14.1484 101.428 14.6404C101.323 14.5632 101.251 14.4351 101.146 14.348C99.7651 14.806 97.4871 14.3582 96.2804 14.6314C95.3971 14.5356 94.039 14.2727 93.2604 14.5641C92.669 14.2002 91.2816 14.7384 90.7812 14.2619C89.7661 14.6599 87.3483 14.4161 86.048 14.3917C85.8686 14.3966 85.6935 14.5615 85.5053 14.5566C82.6049 14.4861 79.1634 14.6404 76.4531 14.9548C77.0085 14.9396 77.6263 15.6429 78.1764 15.1277C78.5757 15.3468 79.7121 15.3157 80.0988 15.075C80.3192 15.0089 80.3567 15.1279 80.4446 15.2155C80.4987 15.004 80.8082 15.0655 81.0556 15.0487C82.1764 15.6983 84.3091 15.2096 85.9357 15.2851C86.2961 15.6454 86.5908 15.1671 87.0976 15.2533C87.2607 15.2788 87.0541 14.9143 87.2966 15.0277C87.411 15.1446 87.5341 15.2713 87.6485 15.3882C87.9537 14.9797 88.3896 15.598 88.6696 15.2102C90.8358 15.631 93.7065 15.2422 96.3624 15.4395C96.4628 15.3567 96.5276 15.2249 96.6276 15.1321C97.3882 15.7415 99.1684 15.1825 100.136 15.5561C100.396 15.659 100.259 15.3527 100.474 15.3968C101.927 15.377 104.012 15.6399 105.279 15.4151C106.696 15.6164 109.02 15.5627 110.423 15.2741C110.676 15.1571 110.556 15.4705 110.769 15.4147C111.593 14.9119 112.656 15.9632 113.579 15.3376C113.831 15.4508 114.193 15.5709 114.4 15.3152C114.304 15.5779 114.631 15.3488 114.611 15.5295C115.821 15.3862 117.252 15.4871 118.865 15.4128C119.403 15.6682 120.244 15.175 120.796 15.66C120.842 15.4487 121.221 15.5683 121.266 15.347C121.757 15.4736 122.269 15.4396 122.783 15.4555C122.928 15.4515 122.983 15.29 123.12 15.2962C123.197 15.2941 123.381 15.4391 123.466 15.4368C124.064 15.4204 125.359 15.2448 126.349 15.5078C127.516 15.3458 129.571 15.4295 130.884 15.6036C130.055 15.9364 128.47 15.8198 127.661 15.6219C125.115 15.7017 122.277 16.0496 119.57 15.8437C115.003 15.4987 110.506 16.1122 106.119 15.7722C105.58 16.0871 104.781 15.6189 104.405 15.9693C101.713 15.6829 98.1929 16.0895 95.621 15.8399C95.4667 15.8241 95.5229 16.0027 95.4201 15.9955C94.6478 15.8966 93.2949 15.8237 92.5409 16.0744C91.0766 15.6844 89.0733 15.8994 87.2527 15.9193C86.9192 15.6083 86.4407 15.9315 86.0926 16.0211C86.0534 16.4623 86.6267 16.1665 86.7097 16.0742C86.7725 16.4926 87.7137 15.8966 87.6767 16.4178C86.7769 16.3425 85.5543 16.6561 85.1373 16.4174C85.1288 16.1075 85.6651 16.3329 85.8851 16.2469C85.8361 16.0181 85.6296 15.9738 85.5313 15.8164C84.4564 15.9059 82.7276 15.8432 81.3449 15.9311C81.71 16.4613 82.242 15.9066 82.7286 16.1933C82.3579 16.7037 81.247 16.1039 81.2386 17.0445C80.9785 16.9116 80.9835 16.4712 80.6073 16.4716C80.4314 16.6064 80.3873 16.8677 80.2817 17.0707C79.9981 17.0185 79.9344 17.1903 79.6685 17.1575C79.6173 16.8488 79.8824 16.8516 79.9982 16.7083C79.9657 16.4591 79.5672 16.27 79.9115 16.0405C78.7717 15.6315 76.72 16.268 75.5802 15.8591C74.1911 16.3373 71.6818 15.8759 70.5093 16.1481C70.1059 15.779 69.7181 16.2899 69.2832 16.3318C70.4618 16.9097 72.3528 16.0276 73.4094 16.5188C72.6487 16.8398 71.7197 16.9453 70.8077 16.7402C70.6729 16.8139 70.5382 16.8876 70.4037 16.9713C71.5115 17.151 72.7019 17.2185 73.6949 16.9511C73.748 17.3298 74.5302 16.8582 74.5916 17.2267C74.7215 16.973 75.5094 17.0215 75.7517 17.1249C75.8437 17.3624 75.5312 17.1909 75.6232 17.4285C74.5742 17.5273 73.3903 17.0695 72.4706 17.5149C71.7648 17.3442 70.74 17.7024 70.1923 17.0572C70.0035 17.0323 70.2545 17.4556 70.0657 17.4308C69.8692 17.4362 69.7386 17.3497 69.7822 17.0684C69.4583 17.1073 69.1927 17.0846 69.1588 16.7854C68.149 16.753 67.1987 16.7091 66.3479 16.8624C66.1942 16.8666 66.3308 17.173 66.2916 17.3041C66.0679 17.2502 66.037 17.3711 65.954 17.4635C65.4045 17.3785 65.5084 17.4256 64.9288 17.4916C65.9719 17.8031 67.069 17.9031 68.0874 17.6251C68.2925 17.6194 68.2988 17.8493 68.4374 17.9156C68.7648 17.6965 69.0903 17.7176 69.4585 17.7375C71.4277 17.8336 73.9781 17.6136 76.0517 17.7769C76.7456 17.8279 77.5934 17.8747 78.0506 18.0222C78.2198 17.9575 78.6439 18.146 78.5933 17.8573C78.9355 18.178 79.3878 17.8355 79.6827 17.6773C79.9928 17.7589 80.7341 17.9786 80.9814 17.6417C81.3005 17.743 81.7866 18.0098 82.0107 17.7636C82.2675 18.0867 83.3231 18.2278 83.5229 17.7221C84.1394 18.0654 84.5977 17.9428 85.6585 17.9637C85.7166 18.2122 85.3791 18.0614 85.4636 18.3392C84.4618 18.2866 83.1532 18.5826 82.3753 18.2738C82.0991 18.1813 82.2451 18.5174 81.9693 18.435C79.6926 18.0372 77.5293 18.9668 74.9761 18.7767C74.791 18.5717 74.2613 18.5862 74.0876 18.8011C72.8047 18.7862 70.3268 18.534 69.3503 18.7809C69.1356 18.7468 69.0703 18.5485 68.9301 18.4223C68.8835 18.5936 68.6431 18.5602 68.526 18.6534C64.3198 18.6687 60.3527 18.9875 56.106 18.7738C54.7875 19.02 52.7288 18.7763 51.0229 18.613C48.6485 19.0182 45.9745 18.4713 43.338 18.6736C43.2592 18.9159 43.5618 18.7275 43.483 18.9698C43.8994 18.8783 43.6773 18.8844 44.0981 18.9529C43.6725 19.6448 42.4825 18.9672 41.7657 19.0168C41.6627 18.6895 42.1758 19.0056 42.1698 18.7857C41.0371 18.6366 39.4289 18.6107 38.4039 18.9589C37.225 18.6811 35.6298 18.8149 34.4849 18.8463C34.0106 18.6992 33.0818 18.8147 32.637 19.117C31.8419 18.8087 30.6329 18.6818 30.0251 18.9685C29.7214 18.8068 28.7869 18.7123 28.5129 19.01C26.684 19.3502 25.2383 18.3895 23.8481 19.1378C22.496 19.0949 20.7683 18.7621 19.175 18.9658C18.4207 18.5863 16.895 19.0683 16.2815 18.5249C16.0503 18.5113 15.8626 18.5264 15.8072 18.688C14.8647 18.3037 13.6708 18.4164 12.4996 18.1084C12.3014 18.0538 12.0823 17.8598 11.8762 17.8254C11.069 17.6975 10.2829 18.0291 9.53774 17.6694C9.32251 17.6153 9.45943 17.9317 9.20011 17.8287C9.14606 18.0403 9.29929 18.0161 9.27859 18.1967C9.11161 18.0312 8.82857 17.999 8.7859 17.69C8.21901 17.5955 7.22099 17.993 7.06041 17.4372C6.99343 17.4891 6.99672 17.609 6.85947 17.5928C5.59067 17.1574 5.12608 16.7399 3.74288 16.4978C3.74786 16.3676 3.65306 16.3402 3.66631 16.1997C2.78636 15.9137 1.49129 16.0793 0.83517 15.5371C0.776236 15.2586 1.15736 15.4382 1.3095 15.374C1.38645 15.0618 1.18967 15.0572 1.15856 14.858C0.900829 15.1251 0.465102 15.1371 0.201669 14.8842C0.0554289 14.2279 0.393065 14.0686 0.370272 13.5491C0.58359 13.5332 0.550286 13.254 0.842689 13.316C0.943069 12.9231 0.695304 12.9299 0.621474 12.7319C0.745891 11.9682 1.35418 11.7014 1.53178 11.0063C1.90108 11.0662 1.91876 10.7756 2.20924 10.7676C2.30793 10.6249 2.47716 10.5602 2.47058 10.3203C3.80103 9.57356 5.26319 8.95327 6.5319 8.1382C6.83646 8.01981 6.75152 8.35226 7.01446 8.27502C7.10789 8.25246 7.06933 8.09345 7.07459 7.97326C8.35678 7.33789 10.4356 7.38094 11.715 6.95573C13.5466 7.6458 15.7902 7.77437 18.1295 7.96034C19.5606 8.08117 21.0621 7.95998 22.4586 8.06175C23.2297 8.12065 24.0077 8.11933 24.6664 8.4414C28.2826 8.11219 33.0826 8.86094 37.0863 8.32103C37.9607 8.71722 39.7142 8.11895 40.5889 8.52513C42.0452 8.31515 43.1123 8.25589 44.7069 8.41225C45.7432 8.16376 46.8542 8.14331 47.9238 8.17401C48.6511 8.19409 49.4029 8.17348 50.1236 8.26377C51.5561 8.43458 53.0731 8.25295 54.5211 8.36331C55.0695 8.4083 55.5882 8.61417 56.1099 8.61987C56.2209 8.61683 56.2593 8.45572 56.3791 8.46243C59.3947 8.67988 62.8132 8.93631 65.9281 8.72088C67.0842 8.78922 69.3656 9.04681 70.6695 8.89102C72.0317 9.30385 74.0784 8.79758 76.0903 8.89248C76.1383 8.77112 76.3009 8.77667 76.2871 8.58697L77.4491 8.55512C78.4866 9.28697 80.1171 8.57202 81.3035 9.11972C81.5628 9.22265 81.4262 8.91628 81.6412 8.96041C81.7853 9.22656 82.7758 9.1794 82.7306 8.78049C83.0299 9.0924 83.3629 8.76316 83.5448 8.53809C83.7347 8.60291 83.7421 8.87281 84.0976 8.74302C84.1925 8.46031 83.9058 8.60822 83.9508 8.3769C84.3416 8.28616 84.5003 8.46188 84.6425 8.65805C84.7359 8.63548 84.6974 8.47648 84.7026 8.35629C85.8365 8.23518 86.7049 8.41145 87.7226 8.42356C87.797 8.64161 87.5724 8.55773 87.4534 8.581C87.7722 8.6723 88.0166 8.85567 88.4846 8.77282C88.6517 8.62819 88.3904 8.45528 88.5387 8.25114C89.5697 8.43296 90.7256 8.18119 91.8382 8.53083C91.1682 8.72927 90.3935 8.54042 89.3007 8.60039C89.2149 8.90285 89.4522 8.82632 89.4495 9.03648C91.1309 8.93036 92.9534 9.29056 94.2529 8.97483C94.5244 8.89737 94.4309 9.23005 94.7355 9.11166C94.8986 9.1372 94.692 8.77273 94.9345 8.88612C94.9274 8.62622 94.6473 8.70392 94.649 8.45378C95.4805 8.53103 96.6516 8.20882 97.259 8.5323C96.8636 9.08334 95.8223 8.21154 95.6866 8.87551C95.4303 8.88254 95.5059 8.52033 95.1999 8.58874C94.9819 8.74477 95.2616 8.96719 95.2825 9.10667C96.4563 8.88442 97.6579 9.36168 98.5035 9.01838C98.8918 9.14779 99.7332 9.27478 99.9515 9.12874C101.273 9.3026 103.822 9.02265 104.966 9.29139C105.294 9.07234 105.929 9.17496 106.116 8.81971C105.929 8.53473 105.001 8.67022 104.809 8.85554C104.535 8.52293 103.714 8.82554 103.224 8.74892C102.859 9.14908 102.009 8.7122 101.3 8.73164C100.839 8.74429 100.375 8.98708 100.144 8.98341C100.076 8.98528 99.3565 8.63486 99.1088 8.64165C98.955 8.64587 98.6471 8.95442 98.4294 8.81033C98.4247 8.64039 98.3037 8.59369 98.349 8.37237C101.319 8.49103 105.229 8.57393 107.892 8.41089C108.099 8.49524 108.627 8.70087 108.78 8.38654C111.783 8.7644 116.613 8.1118 119.688 8.30762C119.885 8.32223 120.367 8.12895 120.38 8.58877C119.288 8.66873 118.656 8.38594 117.847 8.80827C115.826 8.41348 112.637 8.71099 110.704 8.70394C110.638 8.77579 110.572 8.85763 110.505 8.92948C111.39 9.38541 112.73 8.98854 113.869 9.05736C114.863 9.12015 116.195 9.08362 116.959 9.19273C117.184 9.27661 117.004 8.95141 117.229 9.03529C117.434 9.02967 117.44 9.25958 117.579 9.32581C118.442 9.02203 118.952 9.51825 119.696 8.89763C119.834 8.96386 119.857 9.16332 119.979 9.26C120.434 8.98745 121.046 9.51086 121.347 8.92241C121.5 9.19832 122.515 9.45058 122.585 8.88845C122.908 8.79958 122.857 9.14109 123.205 9.02153C123.215 8.47104 122.745 8.48392 122.234 8.52796C122.347 7.97465 123.29 8.68908 123.669 8.18849C124.378 8.46917 126.233 8.13822 126.967 8.39821C126.452 8.6624 125.813 8.71995 125.254 8.59523C125.187 8.66708 125.121 8.74892 125.055 8.82077C124.976 9.06302 125.278 8.87466 125.2 9.11691C125.518 8.89809 126.269 8.84749 126.434 9.23313C126.577 9.15917 126.571 8.93925 126.767 8.92387C126.997 8.86757 126.886 9.19073 127.049 9.21626C127.627 8.76027 128.492 8.81659 129.166 8.78809C128.738 8.12958 127.871 8.94364 127.509 8.5334C127.843 8.24414 128.897 8.02517 129.359 8.33264C130.473 7.79192 132.347 8.47082 133.336 8.07356C134.203 8.50997 135.145 7.93394 136.087 8.29827C136.425 8.13896 137.597 7.87672 137.74 8.40301C136.316 8.56208 134.516 8.37135 132.874 8.68645C134.242 8.98908 135.131 8.99472 136.511 8.80683L136.532 9.54655C136.878 9.70712 137.544 9.98898 137.911 9.65879C137.809 9.36148 137.375 9.4534 137.017 9.46323C136.918 9.29587 136.819 9.12851 136.862 8.79723C137.5 8.6797 137.731 9.02348 138.378 8.90572L138.37 8.60583C138.429 8.26409 137.924 8.55803 137.949 8.24721C138.98 8.08893 140.78 7.94954 142.204 8.13058C142.759 7.77526 143.899 8.18418 144.665 7.76301C145.431 7.9421 145.779 7.83253 146.382 7.71594C147.79 7.91744 150.05 7.39532 151.733 7.63931C151.793 7.98777 151.353 7.82978 151.264 8.02228C150.903 7.64203 150.32 8.20822 150.098 7.90419C149.988 7.93722 150.045 8.13574 149.829 8.06163C149.874 8.14043 149.985 8.13738 149.972 8.2778C149.657 8.34644 149.347 8.58502 149.083 8.30216C149.007 8.03413 149.354 8.1947 149.489 8.14097C149.028 7.8335 147.575 8.17344 146.473 8.22364C146.319 8.22786 146.456 8.53423 146.417 8.66535L145.802 8.68221C145.847 8.76101 145.958 8.75797 145.945 8.89838C146.25 8.79999 146.978 8.53993 147.243 8.86279C147.509 8.87552 147.404 8.49824 147.643 8.48168C147.524 8.82507 147.919 8.57415 147.858 8.84592C148.207 8.77634 148.327 8.46295 148.596 8.30551C148.207 8.76635 149.082 8.58229 149.161 8.96027C149.506 8.74075 150.418 8.65571 150.609 9.07063C150.113 9.05423 150.092 8.90475 149.722 9.16496C150.18 9.34248 150.731 9.13733 151.102 9.2772C151.377 9.31969 151.185 8.88477 151.434 8.89797C151.724 8.88001 151.49 9.0665 151.44 9.11789C151.945 9.45418 153.069 8.9632 153.37 9.36508C153.522 9.2709 153.73 9.08511 153.849 9.35197C153.941 9.27942 154.42 8.99617 154.464 9.33511C154.889 9.25342 155.675 8.92176 156.113 9.28991C156.404 9.01181 157.117 9.11233 157.484 9.10226C157.576 9.02971 157.563 8.85001 157.681 8.79675C157.658 8.5673 157.12 8.93216 157.197 8.58995C159.125 8.14693 161.843 8.41256 164.051 8.18197C164.205 8.17775 164.068 7.87138 164.107 7.74026C164.36 7.58329 164.519 7.779 164.859 7.71965C164.798 7.97143 164.463 7.94058 164.323 8.1045C165.117 8.37285 166.537 8.10382 167.286 8.61348C166.238 8.74225 165.86 8.67259 164.749 8.68304C164.64 9.06618 164.936 8.97801 164.968 9.19722C165.89 8.83182 166.904 9.32423 168.048 8.96274C168.029 9.19335 168.3 9.08589 168.33 9.25513C170.211 8.93347 172.244 9.20784 174.5 9.15601C174.564 8.67409 174.197 8.68416 174.07 8.42753C173.989 8.57982 173.978 8.8102 173.879 8.95296C173.462 9.01441 173.261 8.84986 173.051 8.67555C173.448 8.5246 173.899 8.74233 174.066 8.27759L174.098 8.20668ZM85.232 8.64189C85.2204 8.53217 85.0678 8.57637 84.9567 8.57941C84.8189 8.85329 85.316 8.89969 85.232 8.64189ZM86.6879 9.04215C86.704 8.69158 86.5295 8.56631 86.1974 8.61543C86.1814 8.966 86.3558 9.09127 86.6879 9.04215ZM106.801 9.16107C107.279 9.11797 107.932 9.26011 108.023 8.82746C107.717 8.25564 107.226 8.75927 106.708 8.5634C106.68 8.81425 106.744 8.97255 106.792 9.15131L106.801 9.16107ZM108.382 9.11774C108.811 9.186 108.86 8.80451 109.133 9.09713C109.041 8.85957 109.354 9.03107 109.262 8.7935C109.176 8.79584 109.099 8.77796 109.121 8.6473C108.932 8.93258 108.104 8.36505 108.381 9.10775L108.382 9.11774ZM123.886 8.91283L124.364 8.89971L124.354 8.52985C124.101 8.64684 124.22 8.33344 124.008 8.38928C123.988 8.57991 123.792 8.60529 123.886 8.91283ZM86.8535 9.77789C87.0187 10.5036 87.8479 9.56056 88.1603 10.0422C88.0683 9.80461 88.3808 9.97611 88.2888 9.73854C87.7359 9.84373 87.2757 9.58625 86.8449 9.77812L86.8535 9.77789ZM123.685 9.06839C123.797 9.09534 123.785 8.6655 123.675 8.69853C123.581 8.70111 123.404 9.11611 123.685 9.06839ZM129.642 8.68501C129.956 8.90649 130.367 8.61512 130.595 8.50883C130.307 8.59677 129.693 8.36349 129.642 8.68501ZM138.551 8.37077C138.468 8.77319 138.692 8.81709 138.775 9.0349C139.726 8.80874 140.695 8.59211 141.567 8.2881C140.482 8.29785 139.653 8.31057 138.551 8.37077ZM142.187 8.42118C142.645 8.29857 142.772 8.56519 143.148 8.54489C143.056 8.30732 143.368 8.47883 143.276 8.24126C143 8.16878 142.359 8.16635 142.187 8.42118ZM145.607 8.10735C145.076 8.09188 144.125 8.00792 143.895 8.37434C144.29 8.41355 144.849 8.24815 145.127 8.41059C145.186 8.65909 145.024 8.68353 144.862 8.71797C144.814 8.18911 144.151 8.98755 143.899 8.52428C143.77 8.79793 143.307 8.73061 142.949 8.77043L142.957 9.07032C143.416 8.9677 143.763 8.85814 143.914 9.04409C144.247 8.71484 145.222 9.03824 145.484 8.6309C145.246 8.69744 145.158 8.59982 145.202 8.33851C145.666 8.40583 145.902 7.9692 146.228 8.3104C146.295 7.94843 145.803 8.11196 145.607 8.10735ZM89.2456 10.0224C89.1346 9.71536 89.6306 10.0319 89.5108 9.71505L89.1691 9.72442C89.1806 9.83414 89.1508 9.99502 89.2456 10.0224ZM90.1301 9.84813L90.1342 9.99808C91.491 9.90086 92.7939 10.3353 94.2522 9.88519C92.9966 9.6195 91.0986 9.62151 90.1301 9.84813ZM96.4435 9.97518C97.1868 9.95481 97.48 10.0468 98.2994 9.99434C98.3099 9.75396 98.1796 9.6775 98.0158 9.63197C97.4858 10.2567 96.5095 8.95299 96.4435 9.97518ZM95.1363 10.011L96.2299 9.98104C96.0753 9.64515 95.5892 9.68849 95.1281 9.71113L95.1363 10.011ZM101.589 9.90417C101.978 10.0536 102.524 10.0186 102.612 9.80609C102.302 9.73456 101.74 9.49987 101.589 9.90417ZM103.037 10.0145C103.693 9.95652 104.292 9.96012 104.625 10.2711C104.819 10.1558 105.012 10.0404 105.021 9.74005C104.242 10.0215 103.245 9.19852 103.037 10.0145ZM107.697 9.73672C107.695 9.94688 107.932 9.87035 107.846 10.1728C108.094 10.166 108.209 10.0128 108.176 9.72361C107.894 9.75133 107.908 9.6309 107.697 9.73672ZM114.635 9.84668C114.765 9.92313 114.953 9.93797 114.984 10.1372C115.173 9.82193 116.003 10.1693 115.998 9.66926C115.484 9.64332 114.945 9.32797 114.626 9.85691L114.635 9.84668ZM117.441 9.61968C117.622 10.275 119.121 10.0838 119.645 9.85938C120.523 10.0554 121.8 10.1805 122.593 9.77858C123.7 9.9383 125.04 9.84156 126.097 10.0527C126.363 9.76527 126.807 10.0732 127.127 10.1745C127.27 10.1005 127.264 9.88063 127.46 9.86524C128.037 10.3096 129.055 9.39138 129.523 9.95875C129.83 9.93032 130.05 9.83427 129.987 9.42583C129.2 9.40739 128.239 9.5838 127.651 9.33982C127.551 9.4226 127.486 9.55442 127.386 9.6472C127.249 9.35083 126.574 9.65945 126.421 9.37354C124.701 9.65076 121.836 9.31914 119.496 9.71342C118.857 9.48084 118.045 9.51309 117.433 9.61992L117.441 9.61968ZM138.155 9.20194L138.429 9.19444C138.399 9.0352 138.302 8.93782 138.147 8.90205L138.155 9.20194ZM113.392 9.73069L113.05 9.74006C112.954 9.97278 113.5 9.95779 113.392 9.73069ZM116.347 9.94978L116.339 9.64989L116.066 9.65739C116.096 9.82662 116.192 9.91401 116.347 9.94978ZM141.732 9.62408C142.301 9.48843 143.398 9.88853 143.439 9.20715C143.02 9.50875 142.744 9.09616 142.418 9.38519C142.316 9.08788 142.557 9.1513 142.543 8.94161C142.231 8.81009 142.431 9.21479 142.278 9.24899C141.945 9.27812 141.62 9.28702 141.453 9.12153C141.494 9.35051 141.7 9.40487 141.741 9.63384L141.732 9.62408ZM158.044 8.95685C159.721 8.97092 161.622 8.75876 163.194 9.03578C163.527 8.70653 164.252 9.26688 164.632 8.77628C164.249 8.8368 164.147 8.56948 163.872 8.49701C163.038 8.65991 162.036 8.60734 161.061 8.57406C160.932 8.87769 160.414 8.70181 160.373 8.44285C159.893 8.7061 158.679 8.69937 158.177 8.50304C158.192 8.71272 157.951 8.64931 158.053 8.94662L158.044 8.95685ZM130.339 9.78632C130.544 9.7807 130.758 9.77484 130.743 9.55516C130.421 9.64403 130.471 9.30252 130.124 9.42208C130.121 9.63224 130.334 9.5864 130.339 9.78632ZM138.77 9.4852L138.762 9.18531L138.557 9.19093C138.545 9.38133 138.541 9.56149 138.77 9.4852ZM196.098 7.91374C196.327 7.83744 196.872 8.08259 196.775 7.67509C196.677 7.50773 196.296 7.65822 196.09 7.62385L196.098 7.92374L196.098 7.91374ZM138.907 9.48145L138.917 9.85131C139.34 9.98978 139.601 9.54245 139.737 9.82883C139.641 9.46131 140.311 9.88311 140.207 9.51582C140.228 9.33519 139.892 9.56447 139.996 9.30153C139.701 9.44967 139.556 9.45365 138.907 9.48145ZM195.087 8.46165C195.4 8.35302 196.136 8.66299 196.106 8.21363C195.896 8.04931 195.396 8.20308 195.079 8.17176L195.087 8.47165L195.087 8.46165ZM193.663 9.24095L193.048 9.25781C193.108 9.56629 193.707 9.26977 193.808 9.53709C193.839 9.4262 193.721 9.15934 193.866 9.16536C194.227 9.22549 194.915 9.05658 195.381 9.19388C195.311 8.51554 194.229 8.97535 193.653 8.87109L193.663 9.24095ZM195.654 9.18638C195.893 9.17983 196.054 9.1154 195.986 8.80715L195.644 8.81652L195.654 9.18638ZM199.016 9.24429C199.198 9.02922 199.661 9.08654 200.037 9.06624C199.913 8.89958 199.515 9.05054 199.283 9.01688L199.279 8.86693C198.788 9.03046 198.259 9.08497 197.763 8.75844C197.768 8.96836 197.388 8.80873 197.429 9.0677C197.432 9.18765 197.602 9.12299 197.572 9.28387C197.922 8.97414 198.575 9.0663 199.016 9.24429ZM231.597 8.50124C232.481 8.95718 233.487 8.50946 234.217 8.94962C234.36 8.87566 234.354 8.65575 234.55 8.64036C234.648 8.75774 234.82 8.79304 234.767 9.07458C235.195 9.08286 235.455 8.90566 235.505 8.53416C235.273 8.49051 234.867 8.65169 234.751 8.4848L234.745 8.26488L235.497 8.24427C234.58 7.52914 232.299 7.60167 231.597 8.50124ZM225.497 8.66846L225.838 8.65909C225.809 8.51985 225.804 8.33991 225.625 8.36483C225.717 8.60239 225.405 8.43089 225.497 8.66846ZM224.059 8.92796C224.459 8.85697 225.131 9.05862 225.144 8.59809C224.719 8.35966 224.302 8.74123 224.059 8.92796ZM229.884 8.69826C230.425 8.79347 231.023 8.77707 231.251 8.36067C230.704 8.37566 230.096 8.33231 229.884 8.69826ZM158.563 10.7233C158.484 10.9656 158.787 10.7772 158.708 11.0194C158.295 10.9307 158.375 11.3487 158.385 11.6986C158.721 11.7994 158.67 11.5107 158.927 11.5336C158.84 11.1359 159.156 11.1472 159.042 10.7202C158.843 10.6456 158.758 10.6479 158.563 10.7333L158.563 10.7233ZM161.237 10.65C161.075 11.2847 160.529 10.6894 160.003 10.8339C160.001 11.094 159.806 11.1594 159.743 11.3612C159.459 11.289 159.136 11.3378 159.068 11.6798C160.032 11.5834 160.849 12.0912 161.606 11.6103C161.671 11.8185 161.977 11.7401 162.225 11.7433C162.329 11.1803 162.988 11.5123 163.115 11.789C163.412 11.7108 163.331 11.2428 163.435 10.9699C163.168 10.8872 163.158 10.5273 162.741 10.6188C162.653 10.8313 162.94 10.9935 162.753 11.0586C162.651 11.0514 162.498 11.0956 162.478 10.9961C162.475 10.8762 162.647 10.9315 162.609 10.7725C162.249 10.4522 161.802 10.6645 161.229 10.6602L161.237 10.65ZM79.9059 13.0295C80.2113 12.9411 80.8506 13.1837 80.927 12.8514L79.9018 12.8795L79.9059 13.0295ZM90.2567 12.5957C89.9959 13.063 89.0474 12.1487 89.1068 13.0674C90.4454 12.9306 91.72 13.576 92.7379 12.9678C92.1625 12.5635 90.9398 12.8771 90.2567 12.5957ZM128.938 11.6854L128.946 11.9853C129.234 11.8874 129.248 12.0971 129.429 12.1222C129.471 11.7909 129.364 11.6337 129.207 11.538C129.282 11.756 129.057 11.6722 128.938 11.6954L128.938 11.6854ZM132.235 11.8952L132.227 11.5953L132.022 11.6009C132.01 11.7913 132.007 11.9715 132.235 11.8952ZM167.903 11.1375C167.46 10.9096 166.1 10.8768 166.061 11.6282C167.749 11.4619 169.462 11.8951 170.927 11.3448C171.005 11.1025 170.703 11.2909 170.782 11.0486C170.393 11.2193 170.222 11.204 169.891 11.003C169.755 11.0367 169.9 11.3429 169.624 11.2304C169.483 10.7741 168.873 11.281 168.59 10.9586C168.665 10.8666 168.783 10.8233 168.717 10.585C168.158 10.4703 168.276 11.0473 167.911 11.1273L167.903 11.1375ZM93.695 12.9516C94.2795 13.3758 95.8532 13.0825 96.6467 13.0208C95.6331 12.5384 95.0386 12.9948 93.695 12.9516ZM118.869 12.4116C119.176 12.3832 119.422 12.3064 119.544 12.093C119.237 12.1114 118.807 12.0132 118.869 12.4116ZM164.891 11.3702C164.745 11.3342 164.441 11.4725 164.41 11.3133C164.433 11.1926 164.622 11.2475 164.539 11.0097L163.719 11.0321C163.674 11.2835 164.003 11.1144 163.934 11.3964L163.592 11.4058C163.921 12.167 164.683 11.2858 165.113 11.6642C165.072 11.1251 165.788 11.3556 165.774 10.8358L165.022 10.8564C164.94 10.9887 165.025 11.2864 164.9 11.3799L164.891 11.3702ZM223.793 9.53546C224.124 9.43636 224.789 9.68823 224.883 9.35554C224.686 9.04081 224.003 9.39965 223.793 9.53546ZM93.6267 12.9535L92.8748 12.9741C92.8844 13.324 93.5558 13.1755 93.6267 12.9535ZM98.8443 13.0305C99.5269 13.2919 100.133 13.2653 100.907 13.124C100.429 12.817 99.3553 12.6464 98.8443 13.0305ZM155.688 11.2523C155.061 11.4695 154.133 11.3149 153.365 11.6861C153.272 12.0288 153.809 11.6339 153.715 11.9766C154.494 11.6852 155.669 11.813 156.518 11.5997C156.44 11.2617 155.898 11.4466 155.688 11.2523ZM157.62 11.5695C157.929 11.601 158.097 11.4864 158.089 11.1865L157.61 11.1996L157.62 11.5695ZM222.83 9.6319C223.052 9.62581 223.318 9.64854 223.302 9.39887C223.01 9.34685 222.929 9.49914 222.83 9.6319ZM101.313 12.9629C101.3 13.1033 101.395 13.1207 101.39 13.2609C101.843 13.2485 102.19 13.1189 102.405 12.8629C102.047 12.9127 101.549 12.8064 101.313 12.9629ZM103.517 13.2026C103.778 13.0354 104.179 13.0144 104.607 13.0226C104.467 12.5963 103.681 12.918 103.225 12.8404C103.215 13.0808 103.345 13.1573 103.509 13.2028L103.517 13.2026ZM105.842 12.8387C105.791 12.8601 105.766 12.9008 105.777 12.9906C106.331 13.2155 107.706 13.1778 108.246 12.9229C108.626 12.7224 108.999 13.2424 109.067 12.9004C108.092 12.587 106.9 12.7797 105.842 12.8387ZM109.473 12.7392C109.507 13.0584 110.047 12.7935 110.297 12.8667C110.205 12.6391 109.641 12.6446 109.473 12.7392ZM190.197 10.9666C189.45 10.2568 188.27 10.8793 187.374 10.6038C186.844 10.6283 186.232 10.7551 185.656 10.6509C185.216 11.1331 184.613 10.6595 184.152 10.9922C184.122 10.803 183.933 10.7882 183.802 10.7017C183.632 11.3366 183.112 10.7807 182.777 10.7298C182.52 11.017 182.3 11.7333 181.772 11.4976C181.941 11.433 181.908 11.1538 181.893 10.9041C181.351 11.099 181.18 10.7936 180.803 11.084C180.604 10.6793 180.061 10.8143 179.846 11.1103C179.163 10.8389 178.347 11.3014 177.441 11.0261C177.252 10.9813 177.502 11.3746 177.313 11.3298C177.144 11.0943 176.729 10.9156 176.489 11.2023C176.12 10.8423 175 10.843 174.494 11.1069C174.389 11.0298 174.342 10.871 174.146 10.8964C173.458 11.3654 172.718 10.8955 171.747 11.0322C171.725 11.4629 171.078 11.2506 170.941 11.5744C171.057 11.7213 171.271 11.7555 171.428 11.8612C171.661 11.6347 171.682 11.7842 171.975 11.8462C173.369 11.5379 174.709 11.4612 176.014 11.3654C176.087 11.5134 176.292 11.5078 176.298 11.7277C176.863 11.7722 177.652 11.5505 178.019 11.8306C178.15 11.2868 178.628 11.9039 178.827 11.3683C178.825 11.5784 179.062 11.5019 178.976 11.8044C179.845 11.7005 180.681 12.2378 181.309 11.7404C181.672 12.2106 183.284 11.7363 184.057 11.8852C184.496 11.9732 185.525 11.7949 186.11 11.6088C186.209 11.7762 186.332 11.9128 186.53 11.9674C187.344 11.705 188.148 12.0331 189.345 12.0403C189.425 11.5079 189.947 11.8338 190.292 11.6442C190.305 11.5038 190.211 11.4864 190.216 11.3462C189.819 11.5472 189.602 11.4331 189.188 11.3043C189.255 11.2225 189.321 11.1507 189.387 11.0788C189.628 11.1322 190.119 11.2688 190.411 10.9807C190.593 11.0858 190.609 11.3654 190.899 11.3375L190.889 10.9676C190.674 10.9235 190.342 10.6625 190.206 10.9864L190.197 10.9666ZM112.291 12.952C112.66 13.2821 113.315 12.854 113.526 13.0683C113.52 12.8583 113.901 13.018 113.859 12.759C113.275 12.9551 112.486 12.2365 112.283 12.9523L112.291 12.952ZM116.755 12.9797C118.044 12.8944 119.17 13.1236 120.455 12.8783C119.136 12.8044 117.516 12.0285 116.755 12.9797ZM89.3176 13.5818C89.6483 13.4827 90.3135 13.7346 90.407 13.4019C90.0763 13.501 89.411 13.2491 89.3176 13.5818ZM91.0389 13.6847C90.9916 13.5159 90.9108 13.3781 90.689 13.3941C90.7363 13.5629 90.8171 13.7008 91.0389 13.6847ZM181.969 11.1921L182.242 11.1846C182.212 11.0254 182.116 10.928 181.961 10.8922L181.969 11.1921ZM192.384 10.6065C192.019 11.0067 191.532 10.3998 191.158 10.7902C191.092 11.1921 191.408 11.1635 191.317 11.5961C191.585 11.4187 192.03 11.4165 192.475 11.4143C192.454 11.585 192.371 11.6973 192.42 11.936C193.098 12.0275 193.157 11.9759 193.864 11.8964C194.458 11.0999 195.563 12.12 196.466 11.6751C196.521 11.7936 196.683 11.7792 196.679 11.9693L198.123 11.9298C197.928 11.665 197.917 11.5653 197.964 11.1238C197.609 10.9535 196.934 10.6419 196.516 11.0134C196.437 11.2557 196.74 11.0673 196.661 11.3096C196.397 11.3568 196.3 11.2195 196.243 11.0209C195.469 10.8621 194.87 11.4487 194.321 11.0736C194.355 11.3928 193.785 11.4785 193.575 11.3142L193.569 11.0942L194.184 11.0774C194.112 10.3191 192.771 11.0161 192.384 10.6065ZM200.278 10.6902C200.583 10.5719 200.873 10.874 201.03 10.6696C200.846 10.4946 200.446 10.5656 200.27 10.3904L200.278 10.6902ZM122.383 13.0456C122.316 12.7673 122.714 12.9465 122.646 12.6682L122.031 12.6851C122.096 12.8634 122.219 12.98 122.383 13.0456ZM123.135 13.0249C123.244 12.9419 123.588 12.7224 123.748 12.9381C123.864 13.4351 122.822 13.4537 122.661 13.188C122.21 13.2704 121.435 13.3817 120.943 13.2351C121.018 13.4531 120.793 13.3692 120.674 13.3925C120.921 13.6659 120.682 13.6824 120.692 14.0623C120.912 13.9562 121.034 13.7428 121.227 13.6074C121.956 13.6975 122.734 13.6862 124.247 13.6747L124.257 14.0446C124.455 14.0992 124.434 13.9397 124.597 13.9652C124.358 13.3616 124.999 13.6641 125.059 13.3623C124.698 13.2622 124.244 13.2646 123.958 13.0924C124.021 12.9106 124.234 12.8948 124.359 12.7813C123.821 12.4759 123.456 12.8961 122.843 12.6728C122.833 12.9132 122.963 12.9896 123.127 13.0352L123.135 13.0249ZM236.765 9.91014C236.81 9.67883 236.813 9.76879 236.755 9.54028L236.345 9.55152C236.353 9.82142 236.493 9.93763 236.765 9.91014ZM100.089 13.5066C100.077 13.3969 99.9243 13.4411 99.8133 13.4442C99.6754 13.718 100.173 13.7644 100.089 13.5066ZM235.061 10.1069C235.521 9.75418 236.077 10.3892 236.283 9.77332C235.806 9.83641 235.528 9.66397 235.051 9.73707L235.061 10.1069ZM107.633 13.2998L106.539 13.3298C106.551 13.7597 107.644 13.7297 107.633 13.2998ZM107.775 13.516C107.931 13.5818 108.799 13.748 108.728 13.3398C108.572 13.2741 107.704 13.1078 107.775 13.516ZM109.221 13.5464C109.527 13.478 109.675 13.584 109.84 13.6795C109.781 13.401 110.163 13.5806 110.315 13.5164L110.307 13.2165C109.889 13.268 109.243 13.0856 109.221 13.5464ZM111.28 13.49L111.895 13.4731L111.905 13.843C112.946 13.7644 113.484 14.0298 114.375 13.7753C114.307 13.487 114.609 13.5788 114.497 13.2517C113.539 13.5481 112.563 13.2047 111.272 13.1901L111.28 13.49ZM207.008 10.7159C206.522 10.7792 206.178 10.6986 205.842 10.5978C205.821 10.7684 205.545 10.6759 205.576 10.9051C205.501 11.2673 205.915 11.0759 205.93 11.3356C205.469 11.6784 204.854 11.075 204.557 11.4433C203.824 10.9332 203.067 11.6942 202.15 11.2892L202.138 10.8493C201.414 10.6391 201.038 10.9495 200.147 10.9039C200.209 11.2824 199.971 11.3489 199.892 11.5812C199.545 11.7007 199.587 11.3694 199.273 11.4481C199.174 11.5908 199.005 11.6555 199.011 11.8954C199.785 12.0543 200.932 11.7927 201.623 12.0439C201.785 12.0194 201.683 11.7221 201.818 11.6684C202.001 11.7934 202.101 12.0108 202.375 12.0233C203.451 11.6637 205.052 12.6802 206.361 12.0641C206.499 12.1303 206.514 12.35 206.711 12.3546C206.974 11.9773 208.011 12.389 208.283 12.0114C208.379 12.4089 209.131 12.7084 209.455 12.3494C209.485 12.5086 209.582 12.606 209.737 12.6418C210.532 12.3199 211.839 12.6042 212.688 12.7109C212.693 12.5708 212.724 12.4599 212.817 12.4073C213.473 12.3293 214.053 11.9733 214.602 12.3584C214.764 12.0238 215.638 12.41 215.686 11.9585C215.655 11.7693 215.467 11.7545 215.336 11.668C214.089 12.0323 212.748 11.759 211.419 11.6253C210.836 11.5713 210.01 11.704 209.495 11.608C208.953 11.5028 207.972 11.8999 207.365 11.5964L207.355 11.2265C208.453 11.3665 207.196 11.0308 206.999 10.7161L207.008 10.7159ZM198.109 11.4C198.293 11.585 198.466 11.6503 198.26 11.916C198.421 11.8816 198.409 12.052 198.603 11.9766C198.642 11.8255 198.504 11.4891 198.657 11.4549C198.915 11.5079 198.98 11.3561 199.202 11.37C199.19 10.9301 198.097 10.9601 198.109 11.4ZM107.044 13.9662C106.974 14.2182 107.545 14.1726 107.384 13.8869C107.186 13.8323 107.207 13.9918 107.044 13.9662ZM109.993 13.9554C110.024 14.1246 110.336 13.976 110.474 14.0123C110.494 13.8316 109.951 13.6764 109.993 13.9554ZM235.911 10.8739C236.177 10.9066 236.267 10.7641 236.313 10.5628L235.903 10.574L235.911 10.8739ZM125.226 13.8379C125.23 13.6778 124.986 13.8145 124.883 13.7773C124.737 14.0714 125.31 14.0957 125.226 13.8379ZM126.604 13.8702C126.408 13.8856 126.46 13.6241 126.19 13.7315C126.053 14.0454 126.573 14.0011 126.604 13.8702ZM219.326 11.5486C218.857 11.9416 218.063 11.6533 217.403 11.6013C216.821 11.5573 215.988 11.4401 215.833 12.0145C216.128 12.1865 216.473 12.3071 216.802 12.4281C216.906 11.8651 217.693 12.1836 217.895 12.3981C219.72 12.5182 220.682 11.7415 222.55 11.9004C222.44 11.6233 222.857 11.882 222.747 11.5949C222.108 10.7421 220.403 12.1694 219.317 11.5389L219.326 11.5486ZM228.788 11.1392C228.742 11.3505 228.363 11.2309 228.318 11.4522C228.206 11.4253 228.251 11.2239 228.04 11.3098C227.922 11.6731 228.276 11.5034 228.257 11.744C229.481 11.7905 230.291 11.6882 231.546 11.6538C231.567 11.4832 231.659 11.3906 231.812 11.3464C232.298 11.6332 233.165 11.7395 233.597 11.2975C232.331 10.6319 230.431 11.1842 228.787 11.1292L228.788 11.1392ZM223.246 11.7313C223.541 12.1834 224.088 11.8683 224.558 11.8454C225.693 11.7842 227.157 12.1743 227.63 11.321C227.578 11.3024 227.551 11.2631 227.557 11.1729C226.341 11.4063 224.649 11.1226 223.246 11.7313ZM67.7153 16.2147C68.089 16.1244 68.0813 16.4648 68.4712 16.3441L68.4611 15.9742C68.1188 15.9636 67.7939 15.9625 67.7153 16.2147ZM80.8893 16.1537L80.8811 15.8538L80.6077 15.8613C80.5632 16.1126 80.6514 16.2102 80.8893 16.1537ZM201.795 12.9896C202.324 12.975 203.094 12.9939 203.787 13.005C203.763 13.6959 205.316 13.5533 205.37 13.0316C204.161 12.9347 203.061 12.7147 201.791 12.5395C201.737 12.761 201.737 12.771 201.803 12.9793L201.795 12.9896ZM235.334 12.2903C235.509 12.0954 235.91 12.0844 236.086 12.2696L236.072 11.7498C235.6 11.7027 235.393 11.9185 235.334 12.2903ZM236.231 12.5658C236.516 12.3579 237.17 12.52 237.033 11.8736C236.844 11.8287 236.489 11.9785 236.416 11.8204C236.415 11.7705 236.405 11.7307 236.346 11.7523C236.214 11.926 236.196 12.2166 236.231 12.5658ZM64.2953 16.8387C64.3253 16.9979 64.422 17.0953 64.5769 17.1311C64.7801 16.7453 65.0655 17.1777 65.3971 17.1086L65.3889 16.8087C64.9465 16.8908 64.5822 16.7008 64.2953 16.8387ZM210.238 13.1383C209.446 13.28 208.24 12.6128 207.905 13.2022L208.657 13.1816L208.665 13.4815C209.549 13.2872 209.844 13.7693 210.529 13.8005C210.437 13.2228 211.276 13.6 211.615 13.4706C211.601 13.6111 211.696 13.6285 211.691 13.7687C212.119 13.7869 212.697 13.6411 212.934 13.8846C213.232 13.5363 213.357 13.713 213.819 13.7103C213.788 13.5311 213.942 13.5469 213.877 13.3386C212.556 13.4949 211.649 13.1796 210.511 13.1308C210.497 13.2612 210.589 13.4988 210.383 13.4344C210.179 13.51 210.259 13.2777 210.238 13.1383ZM222.187 13.3309C222.132 13.8226 222.575 13.7504 222.752 13.9857C224.062 13.4096 225.572 13.9084 226.997 13.4992C226.992 13.3292 227.111 13.276 227.053 13.0575C226.531 13.0318 226.176 13.1715 225.9 13.3892C225.697 13.1647 225.245 13.2271 224.935 13.1155C224.79 13.1395 224.874 13.3973 224.738 13.421C224.63 13.2439 224.332 13.2821 224.183 13.1361C224.12 13.3379 223.899 13.374 223.712 13.4491C223.647 13.2509 223.839 12.7554 223.557 12.7831C223.575 13.4129 222.508 13.4922 222.196 13.3407L222.187 13.3309ZM235.62 12.7426L235.962 12.7332L235.954 12.4333L235.612 12.4427L235.62 12.7426ZM232.205 13.2064C232.467 13.1191 233.055 13.3531 233.089 13.0321C232.962 12.7654 232.52 12.8676 232.194 12.8365L232.205 13.2064ZM214.515 13.8413L214.925 13.8301C214.941 13.4795 214.767 13.3542 214.434 13.4034C214.389 13.6347 214.51 13.6714 214.515 13.8413ZM222.127 13.6327L222.119 13.3328L221.846 13.3403C221.876 13.4995 221.972 13.5969 222.127 13.6327Z" fill="black"/>
<path fill-rule="evenodd" clip-rule="evenodd" d="M154.262 7.87021L154.253 7.57033C153.992 7.71753 153.194 7.89949 153.096 7.75212C152.851 7.88886 153.221 7.94877 153.174 8.12011C153.033 7.95392 152.479 8.00913 152.893 7.82771C152.735 7.70198 152.387 7.79155 152.271 7.62466C152.291 7.40404 152.566 7.44653 152.673 7.31353C153.875 7.48067 156.28 6.94457 157.684 7.32624C158.173 7.07274 159.582 7.0241 160.085 7.26043C160.678 7.0741 161.334 6.98609 161.806 7.3633C161.302 7.37711 160.71 7.30331 160.654 7.76501C160.531 7.62834 160.316 7.58421 160.234 7.40639C159.896 7.85583 159.045 7.06885 158.658 7.59966C158.197 7.31218 157.271 7.55763 156.594 7.50616C156.609 7.71584 156.689 7.85368 156.944 7.79668C155.854 8.25673 154.371 7.80719 153.317 8.04615C153.377 7.7244 153.982 7.95791 154.27 7.86998L154.262 7.87021ZM154.398 7.86647L155.014 7.8496C155.03 7.49903 154.326 7.40828 154.398 7.86647ZM155.219 7.84398C155.51 7.87601 155.652 7.76207 155.689 7.53098L155.21 7.5441L155.219 7.84398ZM155.97 7.82337L156.312 7.81401L156.304 7.51412C156.082 7.51021 156.008 7.64227 155.97 7.82337Z" fill="black"/>
<path fill-rule="evenodd" clip-rule="evenodd" d="M170.258 8.17221C170.238 8.36284 170.042 8.38822 170.136 8.69576C169.974 8.7302 169.987 8.5598 169.792 8.63516C169.78 8.50544 169.873 8.47287 169.852 8.3334C170.128 8.42586 170.062 8.1676 170.258 8.17221Z" fill="black"/>
<path fill-rule="evenodd" clip-rule="evenodd" d="M216.056 8.90739C215.724 9.29661 214.981 9.00687 214.549 9.16876L214.561 9.60859L214.083 9.62171C214.169 9.31925 213.931 9.39578 213.934 9.18562L214.413 9.17251C214.283 9.11604 214.219 8.98773 214.065 8.96196C213.807 9.22912 213.162 9.09674 212.693 9.14961C212.394 9.12781 212.63 9.66152 212.225 9.53258C212.217 9.2227 212.595 9.29236 212.621 9.00154C212.715 8.68884 212.237 9.03207 212.339 8.70914C213.521 8.78678 214.87 8.6898 216.598 8.74246L216.606 9.04234C216.714 8.90935 216.989 8.95184 217.008 8.73122C217.349 9.2921 216.206 9.11333 216.056 8.90739Z" fill="black"/>
<path fill-rule="evenodd" clip-rule="evenodd" d="M217.224 9.10531C217.612 9.22472 216.931 9.34342 217.103 9.69884C216.597 9.63268 215.727 9.99668 215.784 9.29483C216.241 9.42237 216.795 9.36716 217.224 9.10531Z" fill="black"/>
<path fill-rule="evenodd" clip-rule="evenodd" d="M163.057 13.4016L163.051 13.1817C162.892 12.9759 162.547 13.1955 162.438 13.2685C162.361 12.9505 161.72 13.2782 161.609 12.9911C161.692 12.8788 161.907 12.9129 161.804 12.6156C162.79 12.3885 163.275 12.6253 164.615 12.5386C164.522 12.8712 164.827 12.7628 164.766 13.0546L163.459 13.0904C163.312 13.3446 163.121 13.5599 162.719 13.5509C162.644 13.3029 162.93 13.4251 163.057 13.3916L163.057 13.4016Z" fill="black"/>
<path fill-rule="evenodd" clip-rule="evenodd" d="M169.135 12.4146C169.227 12.6522 168.914 12.4807 169.006 12.7183C168.862 12.7622 168.551 12.6407 168.53 12.8014C168.437 13.144 168.973 12.7492 168.88 13.0919C168.253 13.3091 167.606 12.7767 167.299 13.1352C167.205 13.1178 167.234 12.9469 167.223 12.8372L167.906 12.8185C167.741 12.7029 167.616 12.5363 167.285 12.6154L167.277 12.3155C168.059 12.4541 168.568 12.6203 169.135 12.4146Z" fill="black"/>
<path fill-rule="evenodd" clip-rule="evenodd" d="M193.937 13.2952C193.585 13.535 192.873 13.1543 192.218 13.2723C192.126 13.0348 192.438 13.2063 192.346 12.9687C193.007 13.0606 194.58 12.4173 195.234 13.1897C194.982 13.3666 194.432 13.2417 194.074 13.2915C194.06 13.4119 194.146 13.4196 194.148 13.5095C194.152 13.6395 193.932 13.4154 193.937 13.2952Z" fill="black"/>
<path fill-rule="evenodd" clip-rule="evenodd" d="M115.089 16.1169C114.786 16.3053 114.138 16.3831 113.721 16.4545C113.8 16.2123 113.498 16.4006 113.576 16.1584C114.06 16.0251 114.71 16.0273 115.089 16.1169Z" fill="black"/>
<path fill-rule="evenodd" clip-rule="evenodd" d="M177.021 14.7193C178.114 14.6394 178.532 14.6079 179.551 14.3499C179.945 14.6892 181.101 14.1573 181.28 14.7426C181.505 14.8265 181.325 14.5013 181.549 14.5852C182.553 15.0379 184.357 14.3882 185.19 14.8555C185.048 14.9695 184.754 15.1376 184.644 14.8705C183.992 15.1185 183.219 14.9796 182.516 14.9288C180.708 14.7883 178.856 14.8891 177.021 14.7093L177.021 14.7193Z" fill="black"/>
<path fill-rule="evenodd" clip-rule="evenodd" d="M237.41 14.3945C237.344 14.4763 237.277 14.5482 237.211 14.62C236.906 14.7184 237.048 14.2944 236.726 14.4132C236.592 14.4969 236.721 14.8435 236.533 14.8587C236.538 15.0186 236.825 14.8807 236.946 14.9174C237.038 15.155 236.725 14.9835 236.817 15.221C236.898 15.3589 237.211 15.2303 237.233 15.4297C237.417 15.2646 237.529 15.0114 237.766 14.8949C237.732 15.236 237.807 15.464 237.989 15.559C238.202 15.5432 237.976 15.0792 238.25 15.1117C238.466 15.1958 238.417 15.5873 238.542 15.774C237.877 15.8422 237.845 16.5434 237.189 16.6214C237.127 16.2429 237.479 16.2933 237.585 16.0903C237.588 15.8802 237.35 15.9567 237.436 15.6542C236.871 15.6197 236.97 16.4373 237.058 16.845C236.879 16.85 236.907 16.6191 236.71 16.6345C236.488 16.6406 236.574 16.9783 236.238 16.8675C236.366 17.1841 236.594 17.378 237.07 17.2849C237.141 17.6931 236.781 17.6629 236.606 17.8178C236.99 18.0874 236.237 18.3881 236.065 18.0527C235.811 18.1497 235.725 18.4222 235.533 18.5875C235.454 18.8297 235.757 18.6414 235.678 18.8836C235.18 19.1374 234.54 19.7952 234.234 18.9232C234.453 18.8072 234.629 18.6623 234.557 18.2441C234.217 18.3234 234.027 18.5687 234.101 19.0669C233.816 19.2848 233.487 19.4439 233.158 19.6129C233.151 19.333 232.82 19.4421 232.871 19.1006C233.314 19.0485 233.687 18.9282 233.954 18.7008C233.948 18.4709 233.701 18.5276 233.737 18.2666L232.712 18.2947C232.396 18.9436 232.128 18.2206 231.55 18.3265C231.569 18.1059 231.73 18.0215 231.881 17.9473C232.026 17.9133 232.013 18.0537 232.024 18.1635C232.37 17.6838 232.678 18.3256 233.184 18.0616C233.302 17.9884 233.332 17.8275 233.309 17.6181C233.623 17.5394 233.63 17.8093 233.795 17.9048C233.967 17.9102 233.953 17.7305 234.063 17.6774C234.125 17.4556 233.905 17.5517 233.785 17.535C233.693 17.2974 234.006 17.4689 233.914 17.2313C234.28 17.4714 234.97 17.0923 235.49 17.0381C235.48 16.6682 235.283 16.3535 235.605 16.2246C235.534 16.1465 235.464 16.0784 235.394 16.0103C235.129 16.0276 235.216 16.4053 234.855 16.3252C234.848 16.0653 234.89 15.724 234.634 15.7411C234.723 15.5685 235.112 15.6979 235.316 15.6523C235.416 15.5896 235.456 15.4584 235.442 15.2787C235.29 15.0428 235.093 15.3383 234.966 15.3618C234.975 15.0915 234.595 15.2719 234.481 15.155C234.717 14.3983 236.056 15.542 235.903 14.3057C236.396 14.8424 236.836 13.73 237.419 14.4142L237.41 14.3945ZM235.464 18.5894C235.451 18.4297 235.173 18.5673 235.052 18.5306C234.99 18.7424 235.507 18.8883 235.464 18.5894Z" fill="black"/>
<path fill-rule="evenodd" clip-rule="evenodd" d="M186.024 7.50982C185.363 7.748 183.79 7.44099 183.078 7.66059C182.926 7.72478 183.064 8.08113 183.026 8.25224C182.776 8.17906 182.576 8.0545 182.202 8.12478C182.218 7.77421 182.595 7.80389 182.945 7.80428C182.155 7.36577 180.858 7.76146 179.65 7.67453C179.076 7.63024 178.515 7.43554 177.997 7.56978C177.844 7.60399 177.981 7.94035 177.943 8.09146C177.541 8.10247 177.131 8.09372 177.177 7.59227C175.664 7.3236 174.202 7.60379 172.912 7.33904C173.419 6.80495 174.466 7.56655 174.898 7.13452C175.649 7.38405 176.948 7.05833 178.465 7.18681C178.705 7.21024 178.975 7.39291 179.155 7.38799C179.283 7.38448 179.381 7.23172 179.492 7.22868C181.458 7.2148 184.01 7.33494 186.023 7.48982L186.024 7.50982Z" fill="black"/>
<path fill-rule="evenodd" clip-rule="evenodd" d="M222.347 8.22494L222.353 8.44485C222.094 8.67203 221.398 9.18128 220.985 8.78245C220.304 9.19127 219.45 8.91457 218.727 9.06442C218.85 8.87098 219.073 8.56477 218.711 8.47465C219.138 7.83271 220.442 8.29715 221.044 8.41071C221.337 8.20259 221.86 8.23828 222.347 8.22494Z" fill="black"/>
<path fill-rule="evenodd" clip-rule="evenodd" d="M158.161 12.5754C158.097 13.0373 158.386 12.9794 158.179 13.2451C157.618 13.0504 156.75 13.1943 156.313 12.8561C156.233 12.4382 156.822 12.7021 157.059 12.6156C156.98 12.8579 157.283 12.6695 157.204 12.9117C157.384 12.9268 157.379 12.7569 157.401 12.6062C157.753 12.6566 157.918 12.462 158.153 12.5856L158.161 12.5754Z" fill="black"/>
</g>
<defs>
<clipPath id="clip0_4740_9109">
<rect width="238.697" height="18.8" fill="white" transform="translate(0 7.20703) rotate(-1.57018)"/>
</clipPath>
</defs>
</svg>
