<svg width="152" height="13" viewBox="0 0 152 13" fill="none" xmlns="http://www.w3.org/2000/svg">
<path fill-rule="evenodd" clip-rule="evenodd" d="M110.684 2.94533C110.849 3.01084 110.915 3.24911 111.127 3.23331C111.133 3.44323 111.118 3.71372 111.187 3.8219C111.696 3.58784 112.319 3.9109 112.797 3.70773C112.887 3.61523 112.812 3.25715 112.913 3.18435C113.201 3.17646 113.251 3.61525 113.368 3.91217C113.61 3.62543 114.256 4.40801 114.633 3.87749C114.667 4.14665 115.17 4.06283 115.197 3.86202C115.419 4.026 116.107 4.15719 116.243 3.76332C115.974 3.65066 115.641 3.61975 115.367 3.71731C115.32 3.38847 115.54 3.47249 115.527 3.19274C115.758 3.32644 115.91 3.30228 116.361 3.31991C116.375 3.62965 116.291 3.73199 116.38 3.98966C116.732 3.96 117.516 3.83846 117.953 4.0966C118.052 3.94383 118.219 3.90923 118.426 3.93356C118.474 3.69216 118.283 3.87745 118.331 3.63605C118.161 3.78076 117.571 3.63689 117.238 3.59599C117.582 3.24645 118.312 3.51654 118.803 3.40304C118.746 3.69472 118.427 3.5534 118.472 4.00234C119.192 3.93257 119.757 4.10717 120.343 3.88103C120.882 4.53649 121.714 3.75341 122.524 3.9713C122.571 3.7299 122.381 3.91519 122.429 3.67379C122.218 3.92965 121.962 3.68659 121.73 3.5429C121.768 3.34178 122.002 3.18529 122.075 3.4634C122.723 3.52566 123.315 3.31936 123.95 3.48203C124.046 3.41937 123.955 3.06174 123.977 2.89106C124.106 2.83751 124.354 2.97076 124.41 2.80918L124.406 2.65924C124.155 2.64609 123.812 2.81556 123.569 2.46209C123.502 2.59398 123.327 2.54876 123.317 2.76912C123.27 2.64036 123.192 2.58247 123.052 2.62632C122.993 2.64795 123.019 2.81729 123.017 2.9274C122.538 2.9105 122.079 3.01312 121.708 2.96326C121.635 2.65516 121.936 2.94702 121.919 2.73739C121.82 2.68009 121.799 2.49061 121.653 2.52462C121.594 2.54625 121.62 2.71559 121.618 2.8257C121.612 2.61577 121.378 2.79226 121.392 2.53176C122.333 2.17584 123.384 2.24708 124.437 2.22821C125.338 2.20351 126.495 2.38188 127.186 2.22288C127.532 2.73361 128.679 1.79181 128.771 2.76965C128.631 2.81351 128.554 2.75561 128.507 2.62685C128.195 3.14559 127.57 2.36241 127.289 2.81028C126.562 2.63015 125.743 2.48253 125.284 2.79522C125.465 3.07035 126.071 2.56357 126.123 3.07234C125.68 3.1845 124.96 2.87412 124.734 3.3305C126.308 3.68749 127.789 3.39681 129.115 4.0207C129.005 4.34385 128.463 4.18865 128.37 3.97111C128.084 4.04897 127.572 4.20306 127.405 3.84751C127.292 3.90062 127.214 4.01281 127.243 4.29211C127.346 4.49935 127.563 4.28333 127.632 4.21142C127.783 4.37734 128.061 4.79988 128.201 4.34588C128.595 4.85527 129.612 4.08713 130.04 4.6656C131.122 4.47589 132.162 5.15765 133.013 4.88423C133.528 5.44032 134.137 4.68334 134.679 5.2087C135.106 4.73682 136.24 5.49602 136.725 5.1526C138.018 5.34724 139.795 5.13849 141.387 4.95479C141.326 4.70638 141.057 4.82378 140.944 4.66681C140.072 4.97081 138.996 4.9503 138.199 4.81209C138.357 4.23754 139.26 4.85304 139.497 4.40636C139.729 4.74013 140.308 4.43417 140.68 4.52401C141.059 4.30352 141.66 4.62718 142.158 4.33344C142.373 3.28714 143.328 3.42103 143.998 3.10254C144.329 3.46362 144.637 3.01501 145.046 3.07382C145.091 3.52276 144.658 3.20449 144.624 3.52556C144.414 3.20119 144.207 3.57701 143.974 3.61339C143.985 3.99325 143.974 4.3937 144.087 4.57065C144.186 4.39789 144.392 4.39223 144.604 4.40642C144.663 4.17472 144.796 4.05105 144.894 3.87828C145.031 4.10463 145.25 3.97857 145.324 3.71643C145.369 3.76523 145.372 3.88518 145.459 3.86281C145.498 4.09183 145.309 3.95694 145.382 4.23505C145.253 4.2886 145.005 4.14536 144.95 4.31693C145.16 4.86136 145.805 4.39353 145.672 3.70691C145.848 3.99219 146.084 3.6956 146.141 3.39393C146.023 3.24711 145.796 3.29335 145.74 3.03478C145.858 2.96153 146.152 3.17356 146.127 2.87412C146.266 2.78029 146.166 3.11314 146.305 3.0193C146.602 2.77106 146.916 2.90253 147.092 2.99773C147.8 2.64821 149.452 2.88301 150.485 2.68465C150.879 2.61381 151.333 2.52134 151.625 2.87347C151.198 3.32536 150.462 3.0654 150.06 3.06642C150.018 3.11759 150.022 3.23754 149.934 3.21993C149.952 3.46954 150.208 3.29246 150.122 3.73497C149.922 3.36033 149.771 4.0047 149.963 4.25954C150.131 4.27492 150.061 3.8967 150.213 3.88254C150.221 3.97236 150.296 3.94028 150.345 3.94894C150.42 4.27703 150.221 4.18243 150.273 4.47113C150.661 4.78059 151.029 3.51005 151.362 4.37124C151.247 4.72453 150.74 4.45833 150.585 4.76268C150.623 4.95172 150.686 5.09003 150.854 5.05542C150.815 5.22655 150.657 5.21087 150.692 5.50002C150.862 5.76546 150.993 5.37173 151.168 5.41695L151.182 5.93676C150.832 5.84632 150.755 6.19857 150.399 6.10828C150.569 6.37371 150.333 6.48022 150.196 6.63404C150.071 6.63746 150.06 6.40769 149.971 6.3401C149.81 6.60462 149.834 6.29384 149.58 6.35082C149.572 6.47107 149.627 6.47958 149.629 6.56954C149.707 6.83751 149.69 6.39782 149.801 6.49481C149.761 6.82602 149.923 6.79157 149.946 7.01104C150.018 6.86901 150.306 7.06119 150.287 6.7816C150.325 6.97063 150.508 6.9056 150.514 7.14551C150.652 6.81161 150.876 7.04557 151.116 6.90892C151.178 7.3874 151.076 7.6003 151.058 7.95091L150.624 7.96282C150.592 8.17378 150.689 8.15111 150.677 8.33149C150.929 8.38462 151.146 7.99851 151.325 8.16369C151.385 8.59219 151.094 8.46013 151.035 8.69183C150.99 9.03319 151.328 8.68379 151.345 8.90341C151.381 9.22254 151.161 9.12854 151.095 9.28041C150.806 9.05824 150.109 9.01731 150.009 9.53024C150.025 9.29973 149.926 9.27242 149.952 9.01163C149.745 8.98729 149.572 9.02205 149.478 9.17467C149.452 9.40547 149.632 9.26047 149.575 9.54215C149.455 9.52543 149.257 9.65089 149.308 9.32937C149.217 9.37189 149.149 9.4438 149.188 9.70281C149.034 9.637 149 9.36784 148.831 9.34247C148.722 9.32545 149.017 9.60746 148.841 9.71233C148.613 9.32843 147.99 8.99538 147.609 9.37595C147.462 9.33999 147.35 9.22301 147.254 9.08559C147.162 9.10811 147.252 9.41576 147.177 9.45783C146.97 9.46349 146.827 9.36739 146.776 9.09868C147.045 9.01127 147.127 8.61889 147.504 8.70858C147.567 8.64682 147.591 8.51613 147.581 8.33634C147.386 8.17162 147.015 8.32183 146.754 8.28899L146.739 7.76918C146.61 7.82274 146.544 7.97462 146.58 8.29375C146.347 8.33014 146.14 8.3058 146.135 7.93579C145.816 7.96457 145.377 7.80654 145.455 8.47465C145.191 8.56191 145.165 8.22248 144.886 8.34018L144.896 8.71004C145.181 8.99234 145.658 8.93926 145.917 9.27229C144.613 9.27802 143.764 9.6314 142.264 9.59251C142.149 9.57564 142.313 10.0013 142.142 9.89597C142.013 9.96951 142.061 9.73811 142.047 9.59846C141.601 9.41059 141.046 10.1661 140.649 9.56673C140.311 9.71606 139.836 9.63904 139.43 9.67019C139.494 9.43834 139.638 9.34436 139.72 9.14205C139.834 9.16891 139.846 9.37869 140.028 9.28366C140.257 8.91725 140.906 9.21957 141.016 8.66635C140.455 8.43162 140.002 8.95423 139.571 8.48587C139.419 8.49004 139.465 8.78888 139.319 8.7929C139.205 8.81602 139.201 8.64608 139.18 8.49659C138.308 8.58052 137.662 8.41815 136.916 8.55864L136.931 9.07845C137.061 8.67473 137.274 9.12905 137.624 8.98942L137.634 9.35928C137.96 9.36035 138.162 9.5949 138.555 9.48408C138.255 9.83243 137.569 9.56114 137.121 9.67346L137.113 9.37357C136.872 9.30015 136.818 9.5217 136.73 9.68417C136.413 9.61283 135.988 9.16432 135.678 9.56295C135.131 9.20782 134.73 9.47889 134.144 9.30488C133.843 9.2131 133.478 8.97302 133.217 8.96017C133.157 8.9618 133.118 9.12294 133.047 9.11487C132.714 9.05398 132.288 8.57547 131.952 8.99484C131.056 9.0194 129.995 8.76837 129.1 8.40277C128.962 8.34652 129.052 8.65417 128.887 8.55867C128.657 8.31487 128.302 8.44464 128.198 8.79764C128.036 8.85208 128.01 8.67274 127.848 8.73719C127.892 8.34585 127.672 8.43192 127.658 8.15217C127.764 8.24931 127.86 8.35674 128.053 8.2914C127.961 7.09349 127.022 7.90953 126.547 7.44236C126.381 7.33687 126.471 7.64452 126.334 7.59826C125.84 7.23164 125.308 7.62638 124.804 7.49013C124.645 7.44446 124.553 7.23692 124.449 7.19977C123.972 7.05277 123.227 7.6234 122.493 7.40343C122.366 7.32689 122.265 7.19961 122.137 7.11307C121.139 7.38051 119.465 7.34637 118.522 7.21218C117.791 7.11217 117.01 7.35366 116.43 7.1995C116.09 7.10876 115.195 7.35338 114.472 7.3232C114.233 7.31975 114.006 6.99582 113.775 7.27227C113.166 7.06887 112.56 7.35558 111.987 7.25126C112.099 7.56831 112.568 7.23533 112.607 7.67442C112.931 7.41544 113.073 7.82171 113.39 7.5029C113.515 7.48948 113.484 7.75043 113.655 7.6457C113.589 7.82757 113.45 7.89142 113.452 8.17146C113.066 7.96196 112.546 8.2163 112.013 8.2109C111.978 7.92175 112.136 7.93743 112.175 7.7663C112.08 7.67886 111.949 7.66244 111.865 7.55471L111.85 7.03491C111.546 7.21333 111.357 6.87837 111.073 7.20628C110.683 6.84684 109.815 6.89064 109.587 7.09697C108.738 6.67005 107.474 7.32494 106.825 6.65246C106.762 6.73422 106.723 6.86536 106.66 6.95711C105.931 6.51693 104.549 7.25506 103.944 6.59138C103.679 7.01882 103.279 6.68966 102.911 7.13991C102.856 6.91134 102.976 6.95804 102.989 6.83764C102.96 6.75842 102.889 6.76035 102.896 6.62011C102.001 6.85473 100.495 7.01606 99.7111 6.55737C99.6818 6.67822 99.5783 6.67105 99.589 6.86083C99.2181 6.41082 98.6382 7.25703 98.3593 6.59442C97.9024 7.36723 97.3598 6.60181 96.8933 7.22483C96.9007 7.49473 97.1152 7.38881 97.1641 7.58755C97.3207 7.55324 97.3638 7.34198 97.5943 7.4257C97.7699 8.48128 96.9426 7.63363 96.6083 8.12298C96.4831 7.91633 96.1919 7.99434 95.9527 7.99089C95.9038 7.79216 95.8557 7.42334 95.9778 7.31995C96.1833 7.28431 96.1817 7.62448 96.2939 7.75145L96.4676 7.74669C96.6228 7.66241 96.5168 7.16512 96.803 7.29733C96.5776 7.0034 96.2318 7.0729 95.8836 7.25251L95.8715 6.81267C96.3967 6.54818 97.1527 6.77755 97.4718 6.32864C97.4425 6.24941 97.3719 6.25135 97.379 6.1111C97.2557 6.1745 97.1211 6.21821 97.0832 6.41932C96.914 6.19388 96.3657 6.20891 96.2091 6.44328C96.1463 6.13489 96.2706 6.11147 96.2817 5.9211C96.8135 6.09659 97.0602 5.97979 97.4991 5.73767C97.5583 5.71604 97.5319 5.5467 97.5343 5.43659C98.0747 6.12204 98.8953 5.33926 99.672 5.52805C99.6839 5.36767 99.6393 5.32887 99.6203 5.22936C98.9708 5.31719 98.035 5.07274 97.4414 5.21906C97.4239 4.77937 96.9052 4.88362 96.7858 5.08697C95.9532 4.63962 95.3981 5.79526 94.4928 5.67002C94.372 5.62331 94.535 6.019 94.4142 5.97229C94.2424 6.04703 94.2985 5.71536 94.1061 5.83068C94.0092 5.86335 94.0996 6.19099 94.0769 6.35168C93.8698 6.32734 93.8104 6.53905 93.7849 6.79984C93.8398 7.01842 94.1739 6.71916 94.2233 6.93788C94.2324 7.46783 93.5257 6.85697 93.6315 7.54433C93.6508 7.85391 93.8666 7.79798 93.9475 7.97583C94.0204 8.25394 93.8319 8.11905 93.8708 8.34807C93.5325 8.09725 93.0118 8.72175 92.7714 8.0781C92.9239 7.89385 93.2355 7.96533 93.1439 7.39763C93.2959 7.39347 93.2607 7.69454 93.4127 7.69038C93.4548 7.6392 93.4515 7.51925 93.5389 7.53686C93.3031 6.86307 92.6434 7.57141 92.0508 7.35757C92.1433 6.96489 92.7867 7.44744 92.8278 6.96613C92.3663 6.57863 92.0141 7.00845 91.3477 7.07673C91.426 6.56439 92.0099 6.8585 92.0204 6.24799C92.2365 6.40212 92.4993 6.47495 92.7669 6.52764C92.7992 6.31667 92.8713 6.17464 92.972 6.08185C92.8982 5.96383 92.8186 5.83596 92.7447 5.71794C92.6429 5.77075 92.7628 6.17762 92.6721 6.24013C92.2543 6.06151 91.9815 6.01897 91.5809 6.27004C91.6267 5.95867 91.5013 5.9421 91.4798 5.75261C90.2902 6.35544 88.7218 6.21836 87.3953 6.38477C87.4499 6.59336 87.5408 6.74092 87.6267 6.89863C87.827 6.87313 88.11 6.6953 88.1954 7.03309C88.3834 6.55776 89.1563 7.00675 89.4067 6.62975C89.9272 6.98562 90.36 6.32351 90.9798 6.73668C89.9901 6.90387 88.9315 7.92326 87.8996 7.34131C87.825 7.79353 87.4083 7.45482 87.1654 7.5115C87.058 8.15468 87.6606 8.13816 87.7835 7.86469C88.4433 8.34679 89.0842 7.34886 89.3667 8.34149C88.803 8.7871 87.6313 8.25901 87.0677 8.70462C86.9135 8.62882 86.8157 8.43142 86.8322 8.04082C86.9475 8.08768 87.0423 8.17512 87.1422 8.25241C87.1068 7.95327 86.999 7.78616 86.8239 7.74094C86.7611 7.43254 87.005 7.60593 87.0329 7.4351C87.0051 7.0157 86.7445 7.02285 86.5409 6.92839C86.7262 6.75324 87.065 6.82399 87.1369 6.47189C86.7421 6.34265 86.2438 6.39633 85.9113 6.35543C85.9302 6.05479 86.2902 6.30502 86.292 5.97485C86.0419 5.77163 85.6894 5.99137 85.696 6.43135C85.4861 6.30706 85.1409 6.39655 85.0506 6.66913C85.1098 7.04765 85.5631 6.73511 85.6272 7.09349C84.8004 7.05613 84.5365 6.94332 83.928 7.14006C83.8436 7.03234 83.7073 7.01607 83.618 6.92848C83.6795 6.59667 84.0995 6.85526 84.3087 6.75949C84.2193 6.27176 83.6357 6.38779 83.4306 6.6335C83.2826 6.38747 83.0636 6.52352 82.9094 6.64779C82.8879 6.45831 82.7625 6.44174 82.8083 6.13037C82.7317 6.11246 82.5931 6.20629 82.6305 5.98518C82.5884 6.03636 82.5917 6.15631 82.5043 6.1387C82.4813 6.48946 82.6605 6.48455 82.6529 6.80488C82.9526 6.83668 83.3557 6.67557 83.5311 6.93086C83.4909 7.05201 83.3316 6.98635 83.32 7.15673C83.2095 7.08973 83.1565 6.94113 82.9684 7.01631C82.8322 7.20011 82.747 7.46255 82.6847 7.76437C82.8009 8.04129 82.8431 7.59996 82.9868 7.68606C83.1146 7.7926 83.2425 7.89913 83.2616 8.19872C82.9955 8.00594 82.4397 8.3413 82.2512 8.00634C82.1522 8.15911 81.9847 8.19371 81.7776 8.16937C81.8207 7.95811 82.0056 7.96305 82.0261 7.7224C82.2756 7.90563 82.3168 7.62439 82.6322 7.63576C82.6753 7.4245 82.6704 7.24456 82.6161 7.04598C82.4909 7.0394 82.5361 7.29827 82.3596 7.20306C82.4472 6.83052 82.3856 6.96226 82.3412 6.53332L81.5106 6.55608C81.4866 6.86686 81.5449 7.01532 81.6552 7.07232C81.4147 7.41904 81.0403 7.82945 80.6629 7.53968C80.6328 7.83062 80.8201 7.72545 80.764 8.05711C80.9119 8.10307 80.8272 7.78527 80.9295 7.75246C81.153 7.97642 81.6244 7.73341 81.5993 8.40435C81.4593 8.4482 81.3816 8.39031 81.3346 8.26155C81.338 8.58158 80.9232 8.71299 80.8176 8.42578C80.5214 8.52393 80.0495 8.74695 79.6395 8.45807C79.4736 8.35258 79.5635 8.66023 79.4264 8.61397C78.8111 8.56081 77.4104 8.39913 76.6775 8.61929C76.6756 8.54932 76.6216 8.5608 76.5887 8.5517C76.6549 8.18975 76.7298 8.14768 76.6512 7.65965C75.4313 7.55304 74.2078 7.31648 73.0749 7.60763C73.356 8.3502 74.1721 7.59756 74.7843 7.93091L74.7963 8.37075C73.9505 8.43395 73.3032 8.60175 72.6213 8.50039C72.5646 8.81206 72.865 8.47371 72.8032 8.79552L72.4123 8.80623C72.3862 8.64689 72.4908 8.69404 72.4932 8.58394C71.8853 8.21045 71.2396 8.43823 70.7131 8.85281C70.6403 8.5747 70.9083 8.83746 70.8352 8.54935C70.7979 8.38031 70.5901 8.52606 70.4858 8.48891C70.3656 8.46219 70.5293 8.88786 70.4091 8.86115C70.2587 8.92529 70.2017 8.82682 70.2271 8.56602C69.7127 8.43007 69.2253 8.68352 68.8652 8.23322C68.8669 8.49327 68.5392 8.23215 68.6148 8.61022C68.3533 8.18723 67.9493 8.90857 67.774 8.26313C67.5747 8.12854 67.7054 8.53511 67.6085 8.56778C67.1814 8.24936 66.7199 8.85223 66.296 8.4537C66.0773 8.79982 65.5474 8.6943 65.2089 8.63355C65.1453 8.29517 65.5021 8.62552 65.5069 8.4053C65.2713 8.33173 64.5875 8.1604 64.552 8.65156C64.4847 8.57338 64.4377 8.44461 64.3701 8.35643C63.4967 8.80053 62.0441 8.33016 61.2798 8.5912C60.7173 8.48658 59.8513 8.2102 59.3592 8.49379C58.9797 8.12405 58.103 8.64827 57.7802 8.16694C57.1388 8.55466 55.5994 8.28674 54.7726 8.24938C54.6586 8.2525 54.5489 8.41557 54.4292 8.40885C52.5847 8.30935 50.3985 8.4293 48.6787 8.71653C49.0316 8.70686 49.4314 9.41617 49.776 8.90654C50.032 9.12961 50.754 9.10982 50.9975 8.87306C51.137 8.80921 51.162 8.92857 51.2187 9.01705C51.251 8.80609 51.4483 8.8707 51.6055 8.85639C52.3245 9.51694 53.6753 9.04975 54.7101 9.14143C54.9428 9.50519 55.1254 9.03001 55.4484 9.12119C55.5524 9.14835 55.4174 8.78191 55.5727 8.8977C55.6466 9.01572 55.7261 9.14359 55.8 9.26161C55.9899 8.85625 56.2732 9.47872 56.4473 9.09381C57.8286 9.53612 59.6496 9.17609 61.34 9.39986C61.4029 9.3181 61.4428 9.18696 61.5055 9.09521C61.995 9.71202 63.1211 9.17096 63.7401 9.55415C63.906 9.65964 63.8161 9.35199 63.9532 9.39825C64.8766 9.39294 66.2046 9.67666 67.0083 9.46456C67.9106 9.67992 69.3876 9.64943 70.2765 9.37497C70.4363 9.26055 70.3634 9.57267 70.4977 9.51896C71.0166 9.02456 71.7031 10.0861 72.2838 9.47C72.4446 9.58564 72.6761 9.70935 72.805 9.45572C72.747 9.71741 72.9527 9.49169 72.9413 9.67206C73.7092 9.54097 74.6197 9.65607 75.6449 9.59796C75.9889 9.85863 76.5189 9.37392 76.8746 9.86436C76.9015 9.65355 77.1439 9.77695 77.1704 9.55614C77.4837 9.6876 77.8089 9.65868 78.1355 9.67974C78.2277 9.67721 78.2614 9.51623 78.3485 9.52385C78.3974 9.52251 78.5155 9.66932 78.5698 9.66784C78.9498 9.65742 79.7711 9.49485 80.4034 9.76763C81.1436 9.61729 82.4504 9.72152 83.2867 9.90867C82.7632 10.2331 81.7545 10.1007 81.2381 9.8948C79.6206 9.94915 77.8202 10.2686 76.097 10.0357C73.1905 9.64523 70.3375 10.2136 67.5453 9.82998C67.2061 10.1394 66.6932 9.66327 66.4582 10.0098C64.7437 9.6967 62.5101 10.068 60.8726 9.79281C60.7744 9.7755 60.8119 9.95453 60.7464 9.94632C60.2546 9.83976 59.3938 9.75332 58.9169 9.99647C57.9822 9.59193 56.7108 9.78685 55.5536 9.78856C55.3386 9.47433 55.0376 9.7927 54.8172 9.87877C54.7967 10.3195 55.1582 10.0295 55.21 9.93803C55.2541 10.357 55.8465 9.77052 55.8282 10.2912C55.2554 10.2069 54.4813 10.5082 54.2139 10.2654C54.2054 9.95556 54.5486 10.1862 54.6875 10.1024C54.6541 9.87324 54.5224 9.82683 54.4583 9.66852C53.7759 9.74725 52.6763 9.66735 51.7982 9.74144C52.0356 10.2751 52.3682 9.72582 52.6805 10.0174C52.4499 10.5239 51.7377 9.91317 51.7417 10.8534C51.575 10.7179 51.5738 10.2778 51.3347 10.2743C51.2242 10.4074 51.1988 10.6682 51.1337 10.8701C50.9529 10.815 50.9141 10.9861 50.7447 10.9508C50.7091 10.6416 50.8777 10.647 50.9498 10.505C50.9267 10.2555 50.6715 10.0624 50.888 9.83642C50.1594 9.41623 48.8615 10.032 48.1328 9.61183C47.2545 10.0761 45.6548 9.58972 44.9122 9.85017C44.652 9.47716 44.4106 9.98396 44.1345 10.0215C44.8896 10.6111 46.0829 9.74805 46.7595 10.2497C46.2791 10.563 45.6895 10.6592 45.1078 10.445C45.0228 10.5174 44.9379 10.5897 44.8532 10.6721C45.5593 10.8628 46.3166 10.9421 46.9452 10.6848C46.9828 11.0639 47.4754 10.6002 47.5181 10.9692C47.5981 10.7169 48.0995 10.7732 48.2545 10.879C48.3153 11.1174 48.115 10.9428 48.1758 11.1812C47.51 11.2695 46.7528 10.8001 46.1726 11.2362C45.7222 11.0584 45.0744 11.4063 44.7197 10.7558C44.5994 10.7291 44.7632 11.1547 44.643 11.128C44.5181 11.1314 44.4342 11.0437 44.4591 10.7629C44.2536 10.7986 44.0845 10.7732 44.06 10.4738C43.4177 10.4313 42.8132 10.3779 42.2739 10.5227C42.1762 10.5254 42.2661 10.833 42.2425 10.9637C42.0997 10.9076 42.0813 11.0282 42.0295 11.1196C41.6793 11.0292 41.7458 11.0774 41.378 11.1375C42.0442 11.4594 42.7427 11.5703 43.3873 11.3025C43.5176 11.2989 43.5239 11.5288 43.6127 11.5964C43.8186 11.3807 44.0258 11.405 44.26 11.4286C45.5128 11.5443 47.1319 11.3499 48.4517 11.5338C48.8934 11.5917 49.4328 11.647 49.7249 11.799C49.8318 11.7361 50.1033 11.9287 50.0682 11.6396C50.289 11.9636 50.5731 11.6257 50.759 11.4706C50.9569 11.5552 51.4304 11.7823 51.5842 11.4479C51.7881 11.5524 52.0998 11.824 52.2398 11.58C52.4062 11.9056 53.0786 12.0572 53.2007 11.5537C53.596 11.903 53.8861 11.785 54.5607 11.8165C54.6001 12.0655 54.384 11.9114 54.4405 12.19C53.8031 12.1274 52.9742 12.4102 52.4766 12.0937C52.3001 11.9985 52.3963 12.336 52.2201 12.2508C50.7689 11.8304 49.4029 12.7382 47.778 12.5226C47.6582 12.3158 47.3216 12.3251 47.2134 12.5381C46.3977 12.5105 44.82 12.2336 44.2017 12.4706C44.0648 12.4344 44.0214 12.2355 43.9309 12.1079C43.903 12.2787 43.7499 12.2429 43.6764 12.335C41.0026 12.3082 38.484 12.5873 35.7822 12.3313C34.9465 12.5643 33.6353 12.3001 32.5492 12.1198C31.0439 12.5012 29.3385 11.9277 27.6646 12.1036C27.6168 12.345 27.8074 12.1597 27.7596 12.4011C28.0235 12.3139 27.8823 12.3177 28.1505 12.3904C27.8869 13.0779 27.1236 12.3886 26.6684 12.431C26.5997 12.1028 26.929 12.4239 26.923 12.204C26.2015 12.0437 25.1789 12.0017 24.5308 12.3396C23.7785 12.0501 22.7658 12.1679 22.0383 12.1878C21.7354 12.0361 21.1461 12.1423 20.8663 12.44C20.3578 12.1238 19.5879 11.9849 19.2045 12.2655C19.0098 12.1008 18.4147 11.997 18.2435 12.2918C17.0843 12.6137 16.1557 11.6388 15.2794 12.3731C14.4194 12.3166 13.3178 11.9667 12.307 12.1545C11.8237 11.7676 10.8586 12.2342 10.4632 11.6848C10.3161 11.6688 10.1969 11.6821 10.1633 11.8431C9.56032 11.4495 8.80247 11.5503 8.05483 11.2306C7.92832 11.1741 7.78712 10.9779 7.65573 10.9415C7.1413 10.8055 6.64491 11.1292 6.16762 10.7622C6.03025 10.7059 6.12045 11.0236 5.95457 10.9181C5.92232 11.129 6.0195 11.1064 6.00814 11.2867C5.90033 11.1196 5.72009 11.0846 5.68988 10.7753C5.32856 10.6751 4.69809 11.0625 4.59045 10.5053C4.54839 10.5565 4.55168 10.6764 4.46427 10.6588C3.65335 10.2109 3.35383 9.7889 2.47211 9.53297C2.47398 9.40287 2.41344 9.37451 2.42046 9.23427C1.85822 8.93956 1.03659 9.09214 0.614083 8.54351C0.573837 8.26451 0.817914 8.44789 0.91399 8.38523C0.959784 8.07386 0.834646 8.06728 0.812879 7.86781C0.651708 8.13232 0.374836 8.13991 0.204845 7.88447C0.105327 7.22695 0.318372 7.07106 0.298694 6.5514C0.434142 6.53768 0.410183 6.25824 0.596683 6.32315C0.656572 5.93136 0.499134 5.93568 0.450223 5.73694C0.521689 4.9747 0.905717 4.71408 1.01167 4.02091C1.24703 4.08449 1.25537 3.79415 1.43996 3.78909C1.50127 3.64736 1.6082 3.5844 1.60162 3.34449C2.43993 2.61125 3.36323 2.00572 4.16162 1.20354C4.35405 1.08823 4.30337 1.41974 4.46975 1.34515C4.52892 1.32352 4.50282 1.16418 4.50496 1.04408C5.31371 0.421681 6.63566 0.485482 7.44474 0.0731571C8.61594 0.781331 10.0435 0.93227 11.5324 1.14155C12.4434 1.27664 13.3967 1.17048 14.2855 1.28617C14.7763 1.35274 15.2708 1.35919 15.6928 1.68776C17.9883 1.39475 21.0472 2.19123 23.5869 1.69145C24.1468 2.09626 25.2555 1.51566 25.8156 1.93047C26.7393 1.73509 27.417 1.68649 28.4323 1.85874C29.0886 1.62067 29.7946 1.61132 30.4749 1.65269C30.9374 1.68003 31.4152 1.66693 31.8742 1.76439C32.7866 1.94946 33.7491 1.78302 34.6707 1.90782C35.0198 1.95827 35.3515 2.16926 35.6832 2.18017C35.7538 2.17824 35.7766 2.01756 35.8528 2.02547C37.772 2.27297 39.9477 2.56347 41.9257 2.3792C42.6613 2.45907 44.1142 2.73936 44.9415 2.59664C45.8116 3.02296 47.1077 2.53726 48.3875 2.65224C48.4168 2.53139 48.5203 2.53856 48.5096 2.34878L49.2479 2.32854C49.9148 3.07054 50.9442 2.37207 51.7039 2.93147C51.8697 3.03696 51.7798 2.72931 51.9169 2.77557C52.0112 3.04309 52.6404 3.00584 52.6077 2.60658C52.801 2.9214 53.0094 2.59557 53.1228 2.37238C53.2442 2.43908 53.2516 2.70898 53.4763 2.58277C53.5338 2.30109 53.353 2.4461 53.3793 2.21529C53.6269 2.12848 53.7295 2.30573 53.8218 2.50327C53.881 2.48164 53.8549 2.3223 53.8571 2.2022C54.5766 2.09244 55.1304 2.27733 55.7776 2.29961C55.827 2.51833 55.6834 2.43224 55.6079 2.45431C55.8116 2.54877 55.9688 2.73453 56.2654 2.65637C56.3702 2.51345 56.2024 2.33798 56.2946 2.13538C56.9518 2.32744 57.6841 2.08728 58.3949 2.44794C57.9709 2.63963 57.4766 2.44311 56.7825 2.49214C56.731 2.79367 56.8811 2.71953 56.8814 2.9296C57.9493 2.8403 59.1114 3.2186 59.9344 2.91594C60.1062 2.8412 60.0501 3.17286 60.2425 3.05755C60.3465 3.08471 60.2115 2.71827 60.3668 2.83406C60.3596 2.57416 60.1824 2.64904 60.181 2.39898C60.7103 2.48451 61.4516 2.17409 61.8409 2.50354C61.5951 3.05048 60.9244 2.16853 60.8448 2.83096C60.6819 2.83542 60.7263 2.47407 60.5325 2.5394C60.3955 2.69322 60.5755 2.91837 60.5902 3.05802C61.3342 2.84755 62.1028 3.33668 62.6369 3.00192C62.885 3.13517 63.4212 3.27053 63.5585 3.12671C64.4003 3.31371 66.0178 3.0593 66.748 3.33939C66.954 3.12367 67.359 3.23261 67.4743 2.87932C67.3523 2.59255 66.7636 2.71873 66.6437 2.90209C66.4661 2.56683 65.9471 2.86116 65.6352 2.77967C65.4071 3.17607 64.8624 2.73083 64.4118 2.74318C64.1187 2.75122 63.8264 2.98932 63.6795 2.98334C63.6361 2.98453 63.1754 2.62702 63.0179 2.63134C62.9202 2.63401 62.7275 2.93941 62.5877 2.79319C62.5831 2.62325 62.5057 2.57535 62.5322 2.35454C64.4215 2.50283 66.9077 2.62475 68.5991 2.48835C68.7318 2.57475 69.069 2.78559 69.1637 2.47287C71.0764 2.88062 74.1403 2.27643 76.097 2.5029C76.2224 2.51947 76.5269 2.33106 76.5395 2.79089C75.846 2.85992 75.4414 2.57089 74.9312 2.98503C73.6431 2.57017 71.6185 2.83575 70.3899 2.8094C70.3484 2.88057 70.3071 2.96173 70.2656 3.03289C70.8325 3.49753 71.6804 3.11415 72.4052 3.19432C73.0374 3.26703 73.8843 3.24381 74.3711 3.36052C74.5147 3.44662 74.3971 3.11972 74.5407 3.20581C74.671 3.20224 74.6773 3.43215 74.766 3.49975C75.3121 3.20467 75.641 3.70585 76.1077 3.09283C76.1965 3.16042 76.2128 3.36005 76.2916 3.45793C76.5776 3.18999 76.9724 3.71937 77.1574 3.13408C77.2573 3.41145 77.9056 3.67378 77.9446 3.11251C78.1487 3.02688 78.12 3.3678 78.3396 3.25174C78.3408 2.7015 78.0422 2.70968 77.7173 2.7486C77.7836 2.19657 78.3902 2.92022 78.6265 2.42356C79.0799 2.71125 80.2558 2.39891 80.7249 2.66615C80.4006 2.92514 79.9945 2.97628 79.6378 2.84601C79.5963 2.91717 79.555 2.99833 79.5135 3.0695C79.4658 3.3109 79.6563 3.12561 79.6086 3.36701C79.8091 3.15143 80.2861 3.10834 80.3945 3.49552C80.4848 3.42302 80.4788 3.2031 80.6034 3.18968C80.7486 3.13568 80.6814 3.45764 80.7853 3.4848C81.1479 3.0347 81.6984 3.09964 82.127 3.07789C81.8481 2.41528 81.3051 3.22046 81.071 2.80672C81.2805 2.52088 81.9485 2.31249 82.245 2.62449C82.9476 2.09503 84.1457 2.79247 84.7707 2.40519C85.3262 2.85014 85.9192 2.28368 86.5216 2.65731C86.7346 2.50142 87.4775 2.25097 87.5735 2.77854C86.6701 2.92334 85.5235 2.71468 84.4831 3.0133C85.3556 3.32951 85.9211 3.34403 86.7964 3.16997L86.8167 3.9097C87.0385 4.07368 87.4648 4.36211 87.6949 4.03568C87.6269 3.73743 87.3522 3.82499 87.1242 3.83124C87.0599 3.66294 86.9955 3.49464 87.019 3.16387C87.4234 3.05275 87.5742 3.39875 87.984 3.28748L87.9758 2.98759C88.0099 2.64653 87.6919 2.93535 87.7051 2.62487C88.3584 2.47691 89.5014 2.35555 90.4087 2.55076C90.7577 2.20107 91.4863 2.62126 91.9694 2.20787C92.458 2.39455 92.6779 2.28848 93.0606 2.17796C93.9575 2.39346 95.389 1.89405 96.461 2.15477C96.5031 2.50375 96.2216 2.3414 96.1671 2.53297C95.9338 2.14921 95.5689 2.70942 95.4247 2.40326C95.3549 2.43518 95.393 2.63422 95.2551 2.55797C95.2844 2.63719 95.355 2.63526 95.3479 2.7755C95.1487 2.84099 94.9542 3.07641 94.7833 2.79098C94.7325 2.52227 94.9543 2.68626 95.0398 2.63389C94.7433 2.3219 93.8232 2.64724 93.1234 2.68642C93.0257 2.6891 93.1156 2.99675 93.0921 3.12745L92.7012 3.13816C92.7305 3.21739 92.8011 3.21546 92.7941 3.3557C92.987 3.26038 93.4474 3.00767 93.6193 3.33308C93.7881 3.34846 93.718 2.97024 93.8697 2.95608C93.7976 3.29818 94.0462 3.05128 94.0101 3.32237C94.2311 3.25629 94.304 2.94417 94.4736 2.78947C94.2308 3.24629 94.7856 3.07102 94.8394 3.44969C95.0563 3.23367 95.6355 3.15777 95.761 3.57448C95.4453 3.55313 95.4304 3.40348 95.1983 3.65993C95.4913 3.84198 95.8389 3.64237 96.0765 3.78592C96.2516 3.83114 96.1255 3.39443 96.2835 3.41011C96.4678 3.39505 96.3207 3.57915 96.2895 3.63002C96.614 3.97126 97.3234 3.49164 97.5193 3.89643C97.6145 3.80378 97.7453 3.62013 97.8233 3.88809C97.8811 3.81648 98.1831 3.5381 98.2142 3.87738C98.4837 3.79996 98.9801 3.47624 99.2619 3.84866C99.4445 3.57355 99.8984 3.68115 100.132 3.67475C100.19 3.60314 100.179 3.42336 100.254 3.3713C100.237 3.14168 99.8989 3.50107 99.9439 3.15971C101.166 2.73608 102.896 3.02878 104.297 2.8203C104.395 2.81762 104.305 2.50997 104.329 2.37927C104.487 2.22486 104.591 2.42211 104.806 2.36618C104.77 2.61727 104.557 2.58309 104.469 2.74556C104.976 3.02176 105.877 2.76699 106.358 3.284C105.693 3.40226 105.452 3.32884 104.746 3.3282C104.68 3.71014 104.868 3.62496 104.89 3.84443C105.473 3.48834 106.122 3.99073 106.846 3.64076C106.836 3.87112 107.007 3.7664 107.028 3.93589C108.22 3.6331 109.516 3.92771 110.95 3.89842C110.985 3.41726 110.752 3.42366 110.669 3.16584C110.619 3.31727 110.614 3.54748 110.553 3.68922C110.288 3.74649 110.159 3.57998 110.023 3.40361C110.275 3.25667 110.563 3.47885 110.665 3.0159L110.684 2.94533ZM54.1964 2.493C54.188 2.3832 54.0914 2.42586 54.0208 2.42779C53.9359 2.70022 54.2524 2.75157 54.1964 2.493ZM55.126 2.90769C55.1327 2.55737 55.0205 2.4304 54.8099 2.47619C54.8032 2.8265 54.9154 2.95348 55.126 2.90769ZM67.913 3.22743C68.2162 3.1891 68.6332 3.33773 68.6866 2.90611C68.4861 2.33139 68.1792 2.82998 67.8478 2.62899C67.8329 2.87949 67.8753 3.03839 67.9073 3.21758L67.913 3.22743ZM68.9174 3.1999C69.191 3.27243 69.2186 2.89153 69.3951 3.1868C69.3343 2.94838 69.5346 3.12295 69.4738 2.88453C69.4195 2.88602 69.3701 2.86737 69.3828 2.73697C69.2656 3.02029 68.7337 2.44465 68.9171 3.1899L68.9174 3.1999ZM78.7714 3.14986L79.0754 3.14153L79.0653 2.77167C78.9054 2.88609 78.9784 2.57398 78.844 2.62768C78.8329 2.81805 78.7086 2.84147 78.7714 3.14986ZM55.2385 3.64488C55.3508 4.37208 55.8685 3.43754 56.072 3.92215C56.0111 3.68373 56.2115 3.8583 56.1506 3.61988C55.8002 3.71952 55.5051 3.45751 55.2331 3.64503L55.2385 3.64488ZM78.6452 3.30338C78.7166 3.33143 78.7048 2.90159 78.6351 2.93352C78.5754 2.93515 78.4672 3.34827 78.6452 3.30338ZM82.4286 2.97959C82.6303 3.20415 82.8886 2.91696 83.0325 2.81298C82.8501 2.89801 82.4578 2.65867 82.4286 2.97959ZM88.0889 2.7544C88.0402 3.15589 88.1827 3.202 88.2376 3.42058C88.8402 3.20399 89.4538 2.99709 90.0053 2.70187C89.3153 2.70078 88.7884 2.70522 88.0889 2.7544ZM90.4003 2.8411C90.6905 2.7231 90.7739 2.99092 91.0125 2.97438C90.9516 2.73595 91.152 2.91053 91.0911 2.67211C90.9152 2.5969 90.5075 2.58807 90.4003 2.8411ZM92.5713 2.56151C92.2339 2.54074 91.6282 2.4473 91.4861 2.81134C91.7372 2.85447 92.0914 2.69471 92.2698 2.85988C92.3092 3.10889 92.2066 3.13171 92.1043 3.16453C92.068 2.63532 91.6551 3.42694 91.4902 2.96128C91.4107 3.23356 91.1154 3.16163 90.8882 3.19786L90.8964 3.49775C91.1871 3.39975 91.407 3.29369 91.5045 3.48109C91.7128 3.15525 92.3359 3.4883 92.4987 3.08369C92.3483 3.14784 92.2913 3.04936 92.3167 2.78857C92.6121 2.8605 92.7577 2.42635 92.9682 2.77071C93.0072 2.40951 92.6964 2.56808 92.5713 2.56151ZM56.7617 3.91325C56.6881 3.60515 57.0065 3.92654 56.9272 3.6086L56.71 3.61455C56.7185 3.72436 56.7012 3.88489 56.7617 3.91325ZM57.3222 3.74783L57.3263 3.89777C58.1878 3.81413 59.0205 4.26148 59.943 3.82604C59.1422 3.54788 57.9356 3.53094 57.3222 3.74783ZM61.3369 3.93789C61.8092 3.92494 61.9966 4.01984 62.5169 3.97557C62.5212 3.73536 62.4376 3.65762 62.333 3.61047C62.0023 4.22977 61.3687 2.91663 61.3369 3.93789ZM60.5063 3.96066L61.2012 3.94161C61.0996 3.60427 60.791 3.64274 60.4981 3.66077L60.5063 3.96066ZM64.607 3.91828C64.8557 4.07152 65.2026 4.042 65.2566 3.83044C65.0589 3.75583 64.6992 3.5156 64.607 3.91828ZM65.5286 4.04307C65.9455 3.99163 66.3261 4.0012 66.5412 4.31543C66.663 4.20204 66.7849 4.08866 66.7875 3.78848C66.2952 4.06207 65.653 3.22936 65.5286 4.04307ZM68.4887 3.81187C68.489 4.02194 68.6391 3.9478 68.5876 4.24933C68.745 4.24501 68.8169 4.09298 68.7927 3.80354C68.6141 3.82844 68.6216 3.70819 68.4887 3.81187ZM72.8997 3.99107C72.9833 4.06881 73.1033 4.08553 73.1251 4.28501C73.2414 3.9717 73.7728 4.32728 73.7645 3.82731C73.4377 3.79626 73.092 3.47561 72.8945 4.00122L72.8997 3.99107ZM74.6817 3.79217C74.8029 4.44909 75.7543 4.27296 76.0851 4.05381C76.6449 4.25855 77.4582 4.39632 77.9581 4.00247C78.6636 4.1732 79.5143 4.08986 80.1886 4.31147C80.3547 4.02681 80.6403 4.3391 80.8442 4.44355C80.9346 4.37105 80.9286 4.15113 81.0532 4.13771C81.4241 4.58772 82.062 3.6799 82.3656 4.25179C82.5605 4.22644 82.6992 4.13261 82.6554 3.72365C82.1548 3.69736 81.5455 3.86412 81.1692 3.61434C81.1062 3.69609 81.0664 3.82723 81.0037 3.91898C80.9141 3.62133 80.4877 3.92313 80.3874 3.63576C79.2971 3.89574 77.4726 3.5356 75.9887 3.9064C75.5801 3.6675 75.0647 3.69164 74.6763 3.79232L74.6817 3.79217ZM87.8454 3.58139L88.0191 3.57662C87.9984 3.41713 87.936 3.3188 87.8372 3.2815L87.8454 3.58139ZM72.1084 3.86271L71.8913 3.86866C71.8324 4.10036 72.1799 4.09083 72.1084 3.86271ZM73.9896 4.11125L73.9814 3.81137L73.8077 3.81613C73.8286 3.98562 73.8908 4.07395 73.9896 4.11125ZM90.1235 4.03913C90.4839 3.90921 91.1852 4.32015 91.2046 3.63936C90.9411 3.93669 90.7613 3.52146 90.5572 3.80716C90.4893 3.50891 90.6432 3.57472 90.632 3.36495C90.4327 3.23036 90.5634 3.63693 90.4665 3.6696C90.2553 3.69539 90.049 3.70105 89.9412 3.53394C89.9692 3.76326 90.1012 3.81966 90.1292 4.04898L90.1235 4.03913ZM100.487 3.53498C101.552 3.56579 102.759 3.37267 103.761 3.66531C103.969 3.33948 104.436 3.90691 104.672 3.42025C104.429 3.47692 104.362 3.20866 104.186 3.13345C103.658 3.28799 103.021 3.22543 102.4 3.18241C102.322 3.48468 101.991 3.30368 101.962 3.04438C101.659 3.30276 100.887 3.28391 100.567 3.08262C100.578 3.29239 100.424 3.22659 100.492 3.52484L100.487 3.53498ZM82.8827 4.08756C83.013 4.08399 83.1487 4.08027 83.1372 3.8605C82.9331 3.94613 82.9618 3.60521 82.7423 3.72127C82.7426 3.93134 82.8772 3.88764 82.8827 4.08756ZM88.2391 3.87071L88.2309 3.57082L88.1006 3.57439C88.0949 3.76462 88.0944 3.9447 88.2391 3.87071ZM124.667 2.87216C124.811 2.79817 125.161 3.0487 125.095 2.64034C125.031 2.47204 124.79 2.61868 124.659 2.58227L124.667 2.88216L124.667 2.87216ZM88.3259 3.86833L88.3361 4.23819C88.6062 4.38084 88.7679 3.93624 88.8572 4.2239C88.7928 3.85553 89.2229 4.2839 89.153 3.91568C89.1644 3.7353 88.9533 3.96117 89.0167 3.69933C88.8305 3.84449 88.7383 3.84702 88.3259 3.86833ZM124.03 3.40982C124.228 3.30436 124.698 3.62158 124.675 3.17205C124.54 3.00568 124.224 3.15441 124.022 3.11993L124.03 3.41982L124.03 3.40982ZM123.132 4.1747L122.742 4.18541C122.783 4.4944 123.16 4.20394 123.227 4.4722C123.246 4.36165 123.168 4.09368 123.261 4.10115C123.491 4.16487 123.926 4.00288 124.224 4.14478C124.172 3.46593 123.489 3.91482 123.122 3.80483L123.132 4.1747ZM124.397 4.14002C124.549 4.13586 124.651 4.07305 124.604 3.76421L124.387 3.77016L124.397 4.14002ZM126.535 4.23148C126.649 4.01829 126.944 4.08023 127.182 4.06368C127.102 3.89583 126.85 4.04277 126.703 4.0068L126.699 3.85686C126.388 4.01543 126.052 4.06465 125.734 3.73326C125.739 3.94318 125.496 3.77979 125.525 4.0391C125.528 4.15905 125.635 4.0961 125.618 4.25663C125.837 3.95049 126.253 4.04914 126.535 4.23148ZM147.239 3.814C147.806 4.27864 148.441 3.84109 148.909 4.28841C149 4.21591 148.994 3.99599 149.118 3.98257C149.181 4.10089 149.291 4.1379 149.261 4.41884C149.533 4.43139 149.696 4.25684 149.724 3.88594C149.576 3.83997 149.32 3.99706 149.245 3.82906L149.239 3.60914L149.716 3.59604C149.126 2.87195 147.677 2.92168 147.239 3.814ZM143.363 3.92025L143.58 3.9143C143.56 3.7748 143.555 3.59486 143.442 3.61798C143.503 3.8564 143.302 3.68183 143.363 3.92025ZM142.452 4.16532C142.705 4.09834 143.135 4.30665 143.138 3.84638C142.866 3.60377 142.604 3.98107 142.452 4.16532ZM146.152 3.99385C146.497 4.09443 146.877 4.08402 147.018 3.67C146.671 3.67953 146.284 3.63012 146.152 3.99385ZM100.834 5.30613C100.786 5.54753 100.977 5.36224 100.929 5.60364C100.666 5.51082 100.721 5.92947 100.73 6.27934C100.945 6.38349 100.91 6.09434 101.074 6.11987C101.014 5.72136 101.215 5.73584 101.138 5.30779C101.011 5.23124 100.957 5.23273 100.834 5.31612L100.834 5.30613ZM102.533 5.25955C102.436 5.89244 102.083 5.29189 101.75 5.43107C101.752 5.69112 101.629 5.75452 101.591 5.95564C101.409 5.88058 101.204 5.92622 101.165 6.26743C101.776 6.18064 102.301 6.69645 102.777 6.22323C102.821 6.43211 103.014 6.35678 103.172 6.36246C103.233 5.80059 103.655 6.13915 103.738 6.41696C103.927 6.34178 103.87 5.87314 103.933 5.60131C103.763 5.51596 103.753 5.15609 103.489 5.24335C103.435 5.45491 103.619 5.61994 103.501 5.68319C103.436 5.67498 103.339 5.71764 103.325 5.61798C103.322 5.49802 103.432 5.55502 103.406 5.39568C103.175 5.0719 102.892 5.27972 102.528 5.26969L102.533 5.25955ZM50.8544 6.82621C51.0477 6.74088 51.4565 6.98977 51.5018 6.65841L50.8503 6.67626L50.8544 6.82621ZM57.4301 6.4959C57.269 6.96049 56.6569 6.03692 56.7038 6.95597C57.5534 6.83265 58.3701 7.49052 59.0111 6.89273C58.6413 6.48271 57.8672 6.78403 57.4301 6.4959ZM82.0107 5.97216L82.019 6.27205C82.2011 6.17702 82.2123 6.3868 82.3271 6.41366C82.3506 6.08289 82.2811 5.92473 82.1806 5.82745C82.2301 6.04618 82.0865 5.96008 82.011 5.98216L82.0107 5.97216ZM84.1091 6.21476L84.1009 5.91487L83.9706 5.91844C83.9649 6.10867 83.9644 6.28875 84.1091 6.21476ZM106.775 5.81352C106.492 5.5812 105.627 5.53489 105.609 6.28565C106.681 6.13623 107.774 6.58643 108.7 6.05088C108.747 5.80948 108.557 5.99477 108.604 5.75337C108.359 5.92016 108.25 5.90314 108.038 5.69888C107.952 5.73125 108.047 6.03875 107.87 5.92356C107.776 5.46596 107.393 5.96664 107.211 5.64153C107.257 5.55022 107.332 5.50815 107.287 5.26928C106.931 5.14901 107.012 5.727 106.78 5.80338L106.775 5.81352ZM59.6194 6.88606C59.9952 7.31592 60.9927 7.03848 61.4965 6.98466C60.8473 6.49226 60.474 6.94266 59.6194 6.88606ZM75.617 6.59759C75.8119 6.57224 75.9674 6.49795 76.0431 6.2858C75.8479 6.30115 75.5735 6.19864 75.617 6.59759ZM104.863 6.016C104.77 5.97854 104.578 6.11385 104.557 5.95436C104.57 5.83395 104.691 5.89066 104.636 5.65209L104.114 5.66637C104.089 5.91717 104.296 5.75143 104.255 6.03266L104.038 6.03862C104.254 6.80297 104.73 5.9296 105.007 6.31216C104.976 5.77281 105.433 6.01037 105.419 5.49056L104.941 5.50366C104.891 5.6351 104.948 5.93364 104.869 6.02584L104.863 6.016ZM142.289 4.77C142.498 4.67423 142.924 4.93267 142.98 4.60101C142.852 4.2844 142.421 4.63633 142.289 4.77ZM59.576 6.88725L59.0983 6.90034C59.1078 7.25021 59.5332 7.10851 59.576 6.88725ZM62.8936 7.01639C63.3302 7.28453 63.7154 7.26396 64.2061 7.13047C63.8987 6.81877 63.2147 6.63745 62.8936 7.01639ZM99.0113 5.80626C98.6151 6.0172 98.0238 5.85334 97.5394 6.21675C97.4836 6.55841 97.8206 6.16902 97.7648 6.51068C98.2568 6.22709 99.005 6.36664 99.5427 6.16183C99.4899 5.82315 99.1471 6.00261 99.0113 5.80626ZM100.243 6.14264C100.44 6.17726 100.545 6.06433 100.537 5.76444L100.233 5.77278L100.243 6.14264ZM141.677 4.85679C141.819 4.85292 141.988 4.8783 141.975 4.62854C141.789 4.57362 141.739 4.72505 141.677 4.85679ZM64.4626 6.97338C64.4556 7.11363 64.5158 7.13198 64.5142 7.27208C64.802 7.26419 65.0213 7.13813 65.1556 6.88436C64.9286 6.93059 64.6105 6.81927 64.4626 6.97338ZM65.866 7.23502C66.0299 7.07047 66.2848 7.05348 66.5568 7.06603C66.4636 6.63842 65.9669 6.95215 65.6767 6.87007C65.6724 7.11028 65.7561 7.18802 65.8606 7.23517L65.866 7.23502ZM67.3399 6.89451C67.3079 6.91539 67.2927 6.95583 67.3006 7.04564C67.6546 7.27603 68.5286 7.25207 68.8695 7.00264C69.1086 6.80601 69.3511 7.32956 69.3907 6.98835C68.7679 6.66529 68.0122 6.84607 67.3399 6.89451ZM69.6472 6.83126C69.6722 7.1507 70.0128 6.89127 70.1724 6.96692C70.1119 6.7385 69.7533 6.73832 69.6472 6.83126ZM120.946 5.86525C120.464 5.14817 119.72 5.75878 119.148 5.47437C118.811 5.4936 118.423 5.61427 118.056 5.50428C117.782 5.98199 117.394 5.50245 117.104 5.83051C117.082 5.64103 116.962 5.62431 116.878 5.53658C116.776 6.16961 116.44 5.60861 116.227 5.55443C116.066 5.83894 115.934 6.55284 115.596 6.31201C115.703 6.24906 115.679 5.96961 115.666 5.71986C115.324 5.90931 115.212 5.60226 114.976 5.88885C114.845 5.48228 114.501 5.61175 114.368 5.90551C113.931 5.62738 113.416 6.08165 112.838 5.79739C112.717 5.75068 112.88 6.14636 112.759 6.09966C112.65 5.86257 112.384 5.67979 112.234 5.964C111.996 5.60039 111.284 5.58989 110.965 5.84873C110.898 5.77054 110.866 5.61135 110.742 5.63476C110.309 6.0968 109.834 5.61963 109.218 5.74655C109.208 6.17699 108.795 5.95824 108.711 6.28065C108.786 6.42865 108.923 6.46492 109.024 6.5722C109.17 6.34811 109.184 6.49776 109.371 6.56268C110.254 6.26837 111.105 6.20502 111.934 6.12228C111.982 6.27103 112.112 6.26746 112.118 6.48738C112.478 6.53753 112.977 6.32377 113.213 6.60741C113.291 6.06508 113.601 6.68681 113.722 6.15329C113.723 6.36336 113.873 6.28921 113.821 6.59074C114.373 6.49559 114.909 7.04109 115.303 6.55011C115.539 7.02383 116.559 6.56572 117.052 6.72226C117.332 6.81463 117.985 6.64668 118.354 6.46648C118.419 6.63478 118.499 6.77264 118.625 6.8292C119.14 6.575 119.654 6.91103 120.415 6.93018C120.461 6.39874 120.796 6.72969 121.013 6.54365C121.02 6.40341 120.96 6.38505 120.962 6.24496C120.712 6.44188 120.573 6.32564 120.308 6.19284C120.349 6.11168 120.391 6.04052 120.433 5.96935C120.586 6.02516 120.9 6.16662 121.082 5.88152C121.199 5.98835 121.212 6.2681 121.396 6.24305L121.386 5.87319C121.249 5.82692 121.035 5.56268 120.952 5.88509L120.946 5.86525ZM71.4412 7.07219C71.6785 7.40582 72.0907 6.98436 72.2271 7.20071C72.2213 6.99079 72.4649 7.15418 72.436 6.89487C72.0664 7.08507 71.5575 6.35874 71.4358 7.07234L71.4412 7.07219ZM74.2792 7.14446C75.0976 7.072 75.8159 7.31241 76.6299 7.08002C75.7908 6.99298 74.7532 6.20112 74.2792 7.14446ZM56.843 7.47236C57.0522 7.37659 57.4776 7.63503 57.5337 7.30336C57.3245 7.39913 56.8991 7.14069 56.843 7.47236ZM57.9383 7.59239C57.9065 7.4232 57.8538 7.28459 57.7129 7.29845C57.7447 7.46765 57.7974 7.60625 57.9383 7.59239ZM115.718 6.00856L115.892 6.00379C115.871 5.8443 115.808 5.74597 115.71 5.70867L115.718 6.00856ZM122.333 5.52711C122.105 5.92352 121.789 5.31193 121.555 5.69849C121.517 6.09968 121.718 6.07418 121.664 6.5058C121.833 6.3311 122.116 6.33336 122.398 6.33562C122.387 6.506 122.336 6.61745 122.369 6.85662C122.801 6.95482 122.838 6.9038 123.287 6.83147C123.656 6.04104 124.369 7.0719 124.938 6.63613C124.974 6.7552 125.077 6.74237 125.077 6.93245L125.994 6.9073C125.868 6.64067 125.859 6.54086 125.885 6.09998C125.658 5.92615 125.225 5.60789 124.964 5.97519C124.916 6.21659 125.107 6.0313 125.059 6.2727C124.892 6.3173 124.828 6.17898 124.79 5.97995C124.297 5.81341 123.921 6.39391 123.569 6.01344C123.594 6.33287 123.232 6.41281 123.097 6.24645L123.091 6.02653L123.482 6.01582C123.428 5.25699 122.583 5.94041 122.333 5.52711ZM127.352 5.68965C127.544 5.57433 127.732 5.8793 127.83 5.67655C127.711 5.49974 127.457 5.56672 127.344 5.38976L127.352 5.68965ZM77.8574 7.26645C77.8117 6.9876 78.0667 7.17068 78.021 6.89183L77.6301 6.90255C77.6731 7.08144 77.7524 7.19931 77.8574 7.26645ZM78.3352 7.25336C78.4035 7.17145 78.6204 6.95543 78.7241 7.17267C78.803 7.6707 78.1404 7.67886 78.0353 7.41164C77.7494 7.4895 77.2579 7.59301 76.944 7.44155C76.9935 7.66027 76.8499 7.57418 76.7744 7.59625C76.9341 7.87198 76.7824 7.88614 76.7928 8.266C76.9312 8.16217 77.0069 7.95002 77.1282 7.81664C77.5927 7.91395 78.087 7.91041 79.0487 7.91405L79.0588 8.28392C79.1853 8.34047 79.1701 8.18083 79.2741 8.20799C79.1162 7.60209 79.5267 7.91096 79.5619 7.60988C79.3309 7.50617 79.0429 7.50406 78.8588 7.32904C78.8973 7.14792 79.0327 7.1342 79.1112 7.02201C78.7658 6.71135 78.5382 7.12775 78.1461 6.8984C78.1419 7.13861 78.2255 7.21635 78.33 7.2635L78.3352 7.25336ZM150.539 5.27413C150.565 5.04332 150.568 5.13328 150.529 4.90426L150.268 4.91141C150.276 5.18131 150.366 5.29888 150.539 5.27413ZM63.6894 7.50477C63.6809 7.39496 63.5843 7.43762 63.5137 7.43956C63.4288 7.71199 63.7454 7.76333 63.6894 7.50477ZM149.458 5.45383C149.747 5.10578 150.107 5.74616 150.231 5.13252C149.928 5.19083 149.75 5.01566 149.447 5.08397L149.458 5.45383ZM68.4831 7.37336L67.7882 7.39241C67.8 7.82225 68.4948 7.8032 68.4831 7.37336ZM68.576 7.5909C68.6756 7.6582 69.2291 7.83309 69.1799 7.42429C69.0802 7.35699 68.5267 7.1821 68.576 7.5909ZM69.4954 7.63572C69.6892 7.57039 69.7845 7.67782 69.8903 7.77495C69.8501 7.49595 70.0942 7.67933 70.1903 7.61668L70.182 7.31679C69.9171 7.36407 69.5045 7.1753 69.4954 7.63572ZM70.8037 7.59986L71.1946 7.58915L71.2047 7.95901C71.8657 7.89087 72.2099 8.16154 72.7737 7.916C72.7277 7.62715 72.9205 7.7219 72.8463 7.39381C72.2402 7.68053 71.6166 7.32748 70.7955 7.29997L70.8037 7.59986ZM131.63 5.78245C131.322 5.84091 131.102 5.7569 130.888 5.65275C130.876 5.82313 130.7 5.72793 130.722 5.95739C130.678 6.31875 130.939 6.13152 130.951 6.39128C130.662 6.72934 130.265 6.11999 130.079 6.48521C129.609 5.96791 129.135 6.72117 128.548 6.30711L128.536 5.86728C128.073 5.64986 127.837 5.95645 127.271 5.90195C127.314 6.28091 127.163 6.34506 127.115 6.57646C126.896 6.69252 126.919 6.36175 126.72 6.43723C126.659 6.57896 126.552 6.64192 126.559 6.88183C127.052 7.04837 127.779 6.79836 128.221 7.05636C128.323 7.03353 128.255 6.73529 128.341 6.68292C128.458 6.80975 128.524 7.02803 128.698 7.04326C129.379 6.69448 130.407 7.7267 131.232 7.12386C131.321 7.19145 131.333 7.41122 131.458 7.41779C131.621 7.04317 132.285 7.46514 132.454 7.09037C132.519 7.48873 133 7.79567 133.202 7.44C133.223 7.59949 133.285 7.69781 133.384 7.73512C133.886 7.42124 134.72 7.7185 135.261 7.83372C135.263 7.69363 135.282 7.58307 135.34 7.53145C135.756 7.46002 136.122 7.10988 136.475 7.50035C136.574 7.1675 137.134 7.56232 137.159 7.11144C137.138 6.92196 137.018 6.90524 136.934 6.81751C136.145 7.16926 135.29 6.88259 134.443 6.73572C134.072 6.67587 133.549 6.80026 133.22 6.69923C132.875 6.58865 132.255 6.97577 131.866 6.66631L131.856 6.29645C132.556 6.44734 131.753 6.09921 131.625 5.7826L131.63 5.78245ZM125.98 6.3775C126.099 6.5643 126.21 6.6313 126.081 6.89492C126.183 6.86211 126.177 7.03234 126.3 6.95894C126.323 6.80826 126.232 6.47061 126.329 6.43795C126.494 6.49346 126.533 6.34233 126.675 6.35845C126.663 5.91862 125.968 5.93766 125.98 6.3775ZM68.1154 8.03369C68.0734 8.28493 68.4363 8.24497 68.3307 7.95776C68.2042 7.9012 68.2194 8.06085 68.1154 8.03369ZM69.9903 8.05232C70.0113 8.22181 70.2083 8.07635 70.2962 8.11396C70.3076 7.93358 69.9609 7.77302 69.9903 8.05232ZM150.006 6.2291C150.175 6.26447 150.231 6.12289 150.258 5.92207L149.998 5.92921L150.006 6.2291ZM79.6728 8.08702C79.6738 7.92693 79.52 8.0612 79.4537 8.023C79.3639 8.31557 79.7288 8.34558 79.6728 8.08702ZM80.5488 8.13303C80.4242 8.14645 80.455 7.88551 80.2841 7.99023C80.2003 8.30265 80.5306 8.26358 80.5488 8.13303ZM139.469 6.73802C139.175 7.12621 138.667 6.83001 138.247 6.7715C137.877 6.72164 137.346 6.59613 137.253 7.16889C137.443 7.34376 137.663 7.46776 137.873 7.59206C137.934 7.03018 138.437 7.35652 138.568 7.57301C139.729 7.71125 140.333 6.94442 141.522 7.1219C141.449 6.84379 141.717 7.10654 141.644 6.81844C141.23 5.95948 140.16 7.36932 139.463 6.72817L139.469 6.73802ZM145.48 6.42319C145.453 6.634 145.211 6.5106 145.184 6.73141C145.113 6.70335 145.14 6.50254 145.006 6.58623C144.935 6.94832 145.158 6.78213 145.149 7.02249C145.927 7.08118 146.441 6.98707 147.239 6.96519C147.25 6.79481 147.308 6.70321 147.404 6.66055C147.717 6.9521 148.268 7.06702 148.539 6.62944C147.727 5.95143 146.525 6.48458 145.48 6.41319L145.48 6.42319ZM141.963 6.95975C142.155 7.41467 142.5 7.10511 142.798 7.08693C143.519 7.03714 144.454 7.44168 144.746 6.59337C144.713 6.57427 144.695 6.53473 144.698 6.44462C143.927 6.66582 142.849 6.36526 141.963 6.95975ZM43.1367 9.88883C43.3733 9.80232 43.3718 10.1425 43.6185 10.0257L43.6084 9.65582C43.3907 9.64178 43.1841 9.63744 43.1367 9.88883ZM51.5108 9.9594L51.5026 9.65951L51.3288 9.66427C51.3031 9.91507 51.3601 10.0135 51.5108 9.9594ZM128.339 8.00347C128.675 7.99424 129.165 8.02083 129.606 8.03877C129.598 8.72925 130.583 8.60221 130.612 8.08121C129.843 7.97224 129.141 7.74139 128.332 7.55349C128.3 7.77445 128.3 7.78444 128.344 7.99332L128.339 8.00347ZM149.653 7.63929C149.762 7.44624 150.017 7.43924 150.131 7.62619L150.117 7.10639C149.817 7.0546 149.687 7.26824 149.653 7.63929ZM150.226 7.9237C150.405 7.71872 150.823 7.88734 150.729 7.23967C150.608 7.19296 150.384 7.33916 150.336 7.18041C150.335 7.13043 150.328 7.09059 150.291 7.11162C150.209 7.28394 150.2 7.57428 150.226 7.9237ZM40.9688 10.4785C40.9894 10.638 41.0519 10.7363 41.1507 10.7736C41.276 10.39 41.4618 10.8251 41.6719 10.7593L41.6637 10.4594C41.3833 10.5371 41.1498 10.3434 40.9688 10.4785ZM133.708 8.23645C133.206 8.37024 132.432 7.69119 132.226 8.27707L132.703 8.26398L132.711 8.56386C133.271 8.37845 133.464 8.86336 133.9 8.90143C133.835 8.32299 134.373 8.7084 134.586 8.5825C134.579 8.72274 134.64 8.7411 134.638 8.88119C134.91 8.90374 135.276 8.76367 135.429 9.00956C135.615 8.66433 135.696 8.84218 135.99 8.84414C135.969 8.66465 136.067 8.68197 136.023 8.47309C135.185 8.61611 134.606 8.29186 133.881 8.23168C133.874 8.36193 133.935 8.60035 133.803 8.53395C133.674 8.6075 133.722 8.3761 133.708 8.23645ZM141.306 8.54836C141.276 9.03936 141.557 8.97165 141.672 9.20858C142.498 8.64572 143.463 9.15947 144.365 8.76461C144.361 8.59467 144.435 8.54261 144.397 8.32359C144.064 8.29268 143.84 8.42888 143.667 8.64371C143.535 8.41722 143.249 8.47509 143.05 8.36049C142.959 8.38301 143.014 8.64158 142.928 8.66395C142.858 8.4858 142.669 8.521 142.573 8.37359C142.535 8.5747 142.394 8.60856 142.277 8.68181C142.233 8.48293 142.35 7.98954 142.172 8.01444C142.189 8.6442 141.512 8.71279 141.312 8.55821L141.306 8.54836ZM149.84 8.09435L150.057 8.0884L150.049 7.78851L149.831 7.79447L149.84 8.09435ZM147.673 8.52389C147.839 8.43931 148.215 8.67909 148.233 8.35847C148.15 8.09065 147.87 8.18836 147.663 8.15403L147.673 8.52389ZM136.434 8.98203L136.694 8.97489C136.701 8.62457 136.589 8.4976 136.378 8.54338C136.352 8.77419 136.429 8.81209 136.434 8.98203ZM141.271 8.84944L141.263 8.54955L141.089 8.55431C141.11 8.7138 141.172 8.81213 141.271 8.84944Z" fill="black"/>
</svg>
