<?xml version="1.0" encoding="UTF-8"?>
<svg xmlns="http://www.w3.org/2000/svg" version="1.1" viewBox="0 0 33.5 34">
  <!-- Generator: Adobe Illustrator 28.7.1, SVG Export Plug-In . SVG Version: 1.2.0 Build 142)  -->
  <g>
    <g id="Layer_1">
      <g>
        <path d="M10,18.2v6.5h-3v-6.9c0-1.3-.9-2-1.9-2s-2,.9-2,2.1v6.8H0v-11.3h2.9v1.3c.5-.8,1.6-1.6,3.1-1.6,3.3,0,4,2.7,4,5.1Z"/>
        <path d="M12.2,13.4h3v11.3h-3v-11.3Z"/>
        <path d="M17.6,9.1h3v15.6h-3v-15.6Z"/>
        <path d="M28,13.1c3.5,0,5.5,2.3,5.5,6s0,.4,0,.6h-8c0,1.5,1.3,2.6,3,2.6s2.4-.9,2.8-1.4l2,1.5c-.4.8-2,2.5-4.8,2.5s-6-2.5-6-5.9c0-3.4,2.3-6,5.6-6ZM30.5,17.9c0-1.4-1.1-2.3-2.4-2.3s-2.3,1-2.5,2.3h4.9Z"/>
        <path d="M13.7,9c1,0,1.8.7,1.8,1.7s-.8,1.7-1.8,1.7-1.7-.7-1.7-1.7.8-1.7,1.7-1.7Z"/>
      </g>
    </g>
  </g>
</svg>