<svg width="90" height="43" viewBox="0 0 90 43" fill="none" xmlns="http://www.w3.org/2000/svg">
<path d="M26.9374 24.7522V42.1652H18.8937V23.8299C18.8937 20.4856 16.5619 18.4097 13.8226 18.4097C10.5002 18.4097 8.40162 20.8316 8.40162 24.0606V42.1658H0.35791V12.0095H8.22669V15.5268C9.5089 13.4509 12.4238 11.2602 16.387 11.2602C25.0721 11.2602 26.9374 18.352 26.9374 24.7522Z" fill="black"/>
<path d="M32.999 12.0095H41.0427V42.1658H32.999V12.0095Z" fill="black"/>
<path d="M47.3955 0.477478H55.4392V42.1659H47.3955V0.477478Z" fill="black"/>
<path d="M75.0819 11.2602C84.5244 11.2602 89.8871 17.4873 89.8871 27.3472C89.8871 27.924 89.8871 28.5002 89.8288 29.077H68.3787C68.5536 33.1135 71.8177 35.9964 76.3058 35.9964C80.4445 35.9964 82.834 33.5744 83.7087 32.306L89.013 36.2848C87.8474 38.4184 83.767 42.9157 76.1898 42.9157C66.3974 42.9157 60.1606 36.2271 60.1606 27.1747C60.1601 18.0636 66.3974 11.2602 75.0819 11.2602ZM81.7268 23.8875C81.5518 20.1972 78.8708 17.7757 75.1985 17.7757C71.4096 17.7757 68.9618 20.4279 68.6119 23.8875H81.7268Z" fill="black"/>
<path d="M36.9628 0.189026C39.6438 0.189026 41.684 2.14958 41.684 4.74403C41.684 7.33848 39.6438 9.29904 36.9628 9.29904C34.34 9.29904 32.2998 7.33848 32.2998 4.74403C32.2998 2.14958 34.34 0.189026 36.9628 0.189026Z" fill="black"/>
</svg>
