<svg width="450" height="40" viewBox="0 0 450 40" fill="none" xmlns="http://www.w3.org/2000/svg">
<g clip-path="url(#clip0_323_1849)">
<path d="M76.9577 0.0784912H67.2866V39.7844H76.9577V0.0784912Z" fill="white"/>
<path d="M175.979 0.0784912H166.327V39.7844H175.979V0.0784912Z" fill="white"/>
<path d="M199.315 0H207.106L226.507 23.5686L245.83 0H253.622V39.7255H244.597V12.4118L226.879 34.9216H225.02L207.106 13.0588V39.7255H199.315V0Z" fill="white"/>
<path d="M289.193 23.7647L298.101 7.21569L307.381 23.7647H289.193ZM270.439 39.7255H280.09L285.063 31H311.335L316.288 39.7255H327.173L303.25 0H293.97L270.419 39.7255H270.439Z" fill="white"/>
<path d="M374.295 6.84314C377.212 6.84314 378.7 7.43137 378.7 10.0392V14.6471C378.7 17.2745 377.212 17.8431 374.295 17.8431H352.271V6.84314H374.295ZM342.678 39.7255H352.271V24.6863H361.355L377.956 39.7255H391.817L372.964 24.6863H378.406C384.789 24.6863 387.686 22.5294 387.686 17.0784V7.70588C387.686 2.17647 384.789 0 378.406 0H342.659V39.7255H342.678Z" fill="white"/>
<path d="M9.76899 32.5294V7.35291H26.8207C36.0023 7.35291 40.603 11.196 40.603 19.4509C40.603 29.8039 34.5145 32.5294 22.2396 32.5294H9.76899ZM0 39.9411H24.2756C41.7189 39.9411 50.5482 33.3529 50.5482 19.9215C50.5482 7.62742 42.4041 0.196045 26.7424 0.196045H0V39.9411Z" fill="white"/>
<path d="M136.002 32.8432H118.931C109.73 32.8432 105.129 29 105.129 20.7451C105.129 10.4118 111.237 7.6863 123.532 7.6863H144.89V0.274536H121.437C104.013 0.274536 95.2036 6.84316 95.2036 20.2745C95.2036 32.5883 103.367 40 119.009 40H144.89V17.8236H125.431V25.7059H136.198L136.002 32.8628V32.8432Z" fill="white"/>
<path d="M450 32.5882H427.897C418.716 32.5882 414.135 28.7255 414.135 20.4706C414.135 10.1373 420.243 7.41176 432.518 7.41176H450V0H430.462C412.999 0 404.209 6.56863 404.209 20C404.209 32.2941 412.353 39.7255 428.015 39.7255H450V32.5882Z" fill="white"/>
</g>
<defs>
<clipPath id="clip0_323_1849">
<rect width="450" height="40" fill="white"/>
</clipPath>
</defs>
</svg>
