<svg width="134" height="22" viewBox="0 0 134 22" fill="none" xmlns="http://www.w3.org/2000/svg">
<path d="M30.0001 12.54C30.1001 17.14 26.5001 20.84 21.9001 21.04C17.3001 20.94 13.8001 17.14 13.8001 12.54C13.7001 7.93998 17.3001 4.23998 21.9001 4.03998C26.4001 4.23998 30.0001 7.93998 30.0001 12.54ZM28.8001 12.54C28.8001 8.53998 25.7001 5.03998 21.9001 5.03998C18.1001 5.03998 15.0001 8.33998 15.0001 12.54C14.9001 16.44 18.0001 19.74 21.9001 19.84C25.8001 19.74 28.9001 16.44 28.8001 12.54Z" fill="#000"/>
<path d="M39.8003 21.04C35.2003 20.94 31.7003 17.14 31.7003 12.54C31.6003 7.93995 35.2003 4.23996 39.8003 4.03996C43.2003 3.93996 46.3003 6.13996 47.3003 9.43996H46.0003C45.0003 6.83996 42.6003 5.13995 39.8003 5.23995C35.9003 5.33995 32.8003 8.63995 32.9003 12.54C32.8003 16.44 35.9003 19.74 39.8003 19.84C42.5003 19.84 45.0003 18.14 46.0003 15.64H47.2003C46.2003 18.84 43.2003 21.04 39.8003 21.04Z" fill="#000"/>
<path d="M50.0001 12.54C49.8001 16.44 52.9001 19.74 56.7001 19.84C56.8001 19.84 56.9001 19.84 57.1001 19.84C60.9001 19.84 62.7001 17.74 63.4001 15.64H64.6001C63.7001 18.94 60.6001 21.24 57.1001 21.04C52.5001 21.04 48.8001 17.34 48.8001 12.84C48.8001 12.74 48.8001 12.64 48.8001 12.64C48.7001 8.03995 52.3001 4.33995 56.9001 4.13995C61.7001 4.13995 65.0001 8.53995 65.0001 12.64L50.0001 12.54ZM63.6001 11.34C63.1001 7.93995 60.3001 5.33995 56.9001 5.13995C53.4001 5.23995 50.6001 7.83995 50.2001 11.34H63.6001Z" fill="#000"/>
<path d="M87.9002 8.83998C87.9002 5.73998 85.6002 4.03998 81.6002 4.03998C77.9002 4.03998 75.4002 5.73998 74.9002 8.63998H76.1002C76.9002 6.33998 78.8002 5.13998 81.7002 5.13998C84.0002 5.13998 86.9002 5.93998 86.9002 8.83998C86.9002 10.74 84.6002 11.14 80.9002 11.54C77.4002 11.94 74.0002 12.74 74.0002 16.34C74.0002 19.44 77.5002 20.94 80.3002 20.94C84.3002 20.94 88.0002 19.74 88.0002 15.34C87.9002 12.34 87.9002 8.83998 87.9002 8.83998ZM75.2002 16.34C75.2002 14.04 76.7002 13.04 81.0002 12.64C83.3002 12.44 85.6002 12.24 86.8002 11.14V14.94C86.8002 18.94 83.9002 19.94 80.3002 19.94C78.6002 19.84 75.2002 19.04 75.2002 16.34Z" fill="#000"/>
<path d="M74.8002 5.23995H74.0002C71.0002 5.03995 68.4002 7.33995 68.2002 10.34C68.2002 10.54 68.2002 10.74 68.2002 11.04V20.84H67.0002V10.84C67.0002 6.63995 70.1002 4.13995 73.9002 4.13995H74.9002C75.0002 4.03995 74.8002 5.23995 74.8002 5.23995Z" fill="#000"/>
<path d="M7.30024 21.04C7.80024 21.14 8.30024 20.74 8.50024 20.24L14.5002 4.44H13.3002L7.50024 19.64L7.30024 19.84C7.20024 19.84 7.10024 19.74 7.10024 19.64L1.30024 4.44H0.000244141L6.00024 20.24C6.20024 20.64 6.70024 20.94 7.30024 21.04Z" fill="#000"/>
<path d="M133.3 0H122.1C119.7 0.1 117.6 1.6 116.7 3.8L111.7 15.3L106.7 3.8C105.7 1.6 103.7 0.2 101.3 0H90.1003C89.8003 0 89.5002 0.300002 89.5002 0.600002V1.2C89.5002 1.5 89.7003 1.7 89.9003 1.8H90.0002C91.6002 2.1 93.1002 3.2 93.8002 4.7L99.6003 18.2C100.7 20.4 102.9 21.8 105.4 21.9H117.7C120.1 21.8 122.4 20.4 123.5 18.2L129.3 4.7C130 3.2 131.5 2.1 133.1 1.8C133.5 1.8 133.5 1.6 133.7 1.2L133.9 0.600002C133.8 0.400002 133.8 0 133.3 0ZM105.8 20.8C103.8 20.7 102 19.5 101.2 17.7L95.4003 4.2C94.7003 2.6 93.3003 1.3 91.6003 0.900002H101.6C103.5 1 105.2 2.2 106 4L111.4 16.3L111 17.3C110.2 19.1 108.5 20.3 106.6 20.4L105.8 20.8ZM109 20.8C109.7 20.5 110.3 20 110.7 19.5C111.1 19.1 111.5 18.5 111.7 18C111.9 18.6 112.2 19.1 112.7 19.5C113.2 20.1 113.8 20.5 114.4 20.8H109ZM128.3 4.5L122.5 17.9C121.6 19.6 119.8 20.7 117.9 20.8H117.3C115.4 20.7 113.6 19.5 112.9 17.7L112.5 16.7L117.9 4.4C118.7 2.6 120.4 1.5 122.3 1.3H132.3C130.5 1.6 129 2.8 128.3 4.5Z" fill="#000"/>
</svg>
