<svg xmlns="http://www.w3.org/2000/svg" xmlns:xlink="http://www.w3.org/1999/xlink" id="Layer_1" data-name="Layer 1" version="1.1" viewBox="7.2 3 417.8 145.2">
  <defs>
    <style>
      .cls-1 {
        fill: #fff;
      }

      .cls-1, .cls-2, .cls-3, .cls-4, .cls-5, .cls-6, .cls-7, .cls-8, .cls-9, .cls-10, .cls-11, .cls-12, .cls-13 {
        stroke-width: 0px;
      }

      .cls-2 {
        fill: #fff;
      }

      .cls-3 {
        fill: #fff;
      }

      .cls-4 {
        fill:#fff;
      }

      .cls-5 {
        fill: #fff;
      }

      .cls-6 {
        fill: #fff;
      }

      .cls-7 {
        fill: #fff;
      }

      .cls-8 {
        opacity: 0;
      }

      .cls-8, .cls-12 {
        fill: #fff;
      }

      .cls-9 {
        fill: #fff;
      }

      .cls-10 {
        fill: #fff;
      }

      .cls-11 {
        fill: #fff;
        opacity: .2;
      }

      .cls-12 {
        opacity: .1;
      }

      .cls-13 {
        fill: #fff;
      }
    </style>
    <linearGradient id="linear-gradient" x1="339.6" y1="32.7" x2="308.1" y2="108.2" gradientUnits="userSpaceOnUse">
      <stop offset="0" stop-color="#1cce28"/>
      <stop offset=".2" stop-color="#1fc52a"/>
      <stop offset=".6" stop-color="#2aac33"/>
      <stop offset="1" stop-color="#3b8640"/>
    </linearGradient>
    <linearGradient id="linear-gradient-2" x1="275.8" y1="44.4" x2="249.2" y2="108.9" xlink:href="#linear-gradient"/>
    <linearGradient id="New_Gradient_Swatch_4" data-name="New Gradient Swatch 4" x1="336.2" y1="19" x2="304.4" y2="94.3" gradientUnits="userSpaceOnUse">
      <stop offset="0" stop-color="#1cce28"/>
      <stop offset=".2" stop-color="#1fc52a"/>
      <stop offset=".6" stop-color="#2aac33"/>
      <stop offset="1" stop-color="#3b8640"/>
    </linearGradient>
    <linearGradient id="linear-gradient-3" x1="209.6" y1="46" x2="184.4" y2="106.4" xlink:href="#linear-gradient"/>
    <linearGradient id="linear-gradient-4" x1="158.5" y1="55.3" x2="137.3" y2="106.9" xlink:href="#linear-gradient"/>
    <linearGradient id="New_Gradient_Swatch_4-2" data-name="New Gradient Swatch 4" x1="206.9" y1="35" x2="181.4" y2="95.2" xlink:href="#New_Gradient_Swatch_4"/>
    <linearGradient id="linear-gradient-5" x1="105.7" y1="56.6" x2="85.5" y2="104.9" xlink:href="#linear-gradient"/>
    <linearGradient id="linear-gradient-6" x1="64.8" y1="64" x2="47.8" y2="105.3" xlink:href="#linear-gradient"/>
    <linearGradient id="New_Gradient_Swatch_4-3" data-name="New Gradient Swatch 4" x1="103.5" y1="47.8" x2="83.1" y2="96" xlink:href="#New_Gradient_Swatch_4"/>
  </defs>
  <g>
    <g>
      <path class="cls-1" d="M312.6,70.7c4.1,8.3-1,26.3-1.6,28.2h10.3c8.5-13.1,9.6-19.5,9.6-19.5-8.8-8.3-18.3-8.7-18.3-8.7Z"/>
      <path class="cls-9" d="M258.1,61.8c-.7,15.7-7.2,35.8-7.8,37.2h10.2c7.1-7.5,10.5-17.9,10.5-17.9-1.4-11.1-13-19.3-13-19.3Z"/>
      <path class="cls-5" d="M372.1,53.4c.5-25.6-14.3-37.3-14.3-37.3-11.6-5.5-16.5-5.6-16.5-5.6-11.5-6.8-17.9-7.5-21.1-7.5-1.7,0-2.4.3-2.4.3,0,0-1,1.1-1.3,1.5-2.3,3-7.3,10.4-8.9,26.3,2.2,7.1,14.9,17,14.9,17-10.9-3.1-17.8-15.6-17.8-15.6-1.2-9.9,1.4-18.9,1.1-19.5,0,0,0,0-.1,0-21.5,2.7-36,11.1-36,11.1-9.8,6.1-16.5,21-16.5,21,0,0-3,5.6-4.5,16.1-.7,4.9-3.1,14.7-3.1,14.7,0,0,.7,0,1.2-.4,4.8-12.5,9.3-17.8,9.3-17.8,22.5,9.4,19.3,39,19,41.2h10.3c4.9-10.9,4.9-25.8,4.9-25.8,42.2-18.9,54,23.9,54.5,25.8h10.3c-.1-2.3-4.3-21.2-10.2-33.8-5.5-11.8.7-15.3,1.6-15.5,4.3-.8,8.8,1.2,11.5,2.8,3.1,1.9,4.1,5.3,4.9,9.7,1.7,9.1,3,20.8,11.8,20.8s9.8-6.6,9.8-8l-1.4-.4c-1.9,2-4.1,3-5.9,2.9-4.3-.4-5.3-6.9-5-24ZM358.9,36.1c-1.4,0-2.5-1.1-2.5-2.5s1.1-2.5,2.5-2.5,2.5,1.1,2.5,2.5-1.1,2.5-2.5,2.5Z"/>
      <path class="cls-12" d="M258.1,61.8c0,1.3-.3,3.6-.4,4.9,8.7,8.8,9.9,22.3,9.9,22.3,2.3-4.4,3.5-7.9,3.5-7.9-1.4-11.1-13-19.3-13-19.3Z"/>
      <path class="cls-12" d="M326.8,49.8c6.5,3.6,10.8,7,19,17.6-6-11.5-2.2-16.6.4-17.6,0,0-10.6,2.9-19.3,0Z"/>
      <path class="cls-8" d="M316.9,59.1c-19.3-11.1-41.8-10.2-57.1.6,18.3,11,15.5,37.2,15.2,39.2h10.3c4.9-10.9,4.9-25.8,4.9-25.8,42.2-18.9,54,23.9,54.5,25.8-2-15.5-12-30.6-27.8-39.8Z"/>
      <path class="cls-11" d="M310.5,30.3c2-14.4,5.4-21.1,8.1-23.5,0,0,2.1-1.6,4.9-1.6,5.2-.1,11,2.1,17.7,5.3,0,0,0,0,0,0-11.5-6.8-17.8-7.5-21.1-7.5-1.7,0-2.4.3-2.4.3,0,0-1,1.1-1.3,1.5-2.3,3-7.3,10.4-8.9,26.3,2.2,7.1,14.9,17,14.9,17,0,0-12.1-12-12-17.8Z"/>
      <path class="cls-8" d="M279.2,52c7.4,3.5,11.6,11.9,11,21.1,0,0,2.4-1.1,4.8-1.9-.8-8.7-7.5-16.2-15.8-19.2h0Z"/>
    </g>
    <g>
      <path class="cls-10" d="M188,76.4c3.3,6.7-.8,21.1-1.3,22.6h8.2c6.8-10.5,7.7-15.6,7.7-15.6-7.1-6.7-14.7-7-14.7-7Z"/>
      <path class="cls-13" d="M144.4,69.2c-.5,12.5-5.8,28.6-6.2,29.8h8.2c5.7-6,8.4-14.3,8.4-14.3-1.1-8.9-10.4-15.5-10.4-15.5Z"/>
      <path class="cls-7" d="M235.6,62.5c.4-20.5-11.4-29.8-11.4-29.8-9.3-4.4-13.2-4.5-13.2-4.5-9.2-5.5-14.3-6-16.9-6-1.3,0-1.9.2-1.9.2,0,0-.8.9-1,1.2-1.8,2.4-5.9,8.3-7.1,21,1.7,5.7,11.9,13.6,11.9,13.6-8.7-2.5-14.3-12.5-14.3-12.5-.9-7.9,1.1-15.1.9-15.6,0,0,0,0,0,0-17.2,2.2-28.8,8.9-28.8,8.9-7.8,4.9-13.2,16.8-13.2,16.8,0,0-2.4,4.5-3.6,12.9-.6,3.9-2.5,11.8-2.5,11.8,0,0,.6,0,.9-.3,3.9-10,7.4-14.2,7.4-14.2,18,7.5,15.4,31.2,15.2,32.9h8.2c3.9-8.7,3.9-20.7,3.9-20.7,33.7-15.1,43.2,19.1,43.6,20.7h8.2c0-1.8-3.5-17-8.1-27-4.4-9.4.5-12.3,1.3-12.4,3.4-.6,7,.9,9.2,2.3,2.5,1.5,3.3,4.3,3.9,7.8,1.4,7.2,2.4,16.7,9.4,16.7s7.8-5.3,7.8-6.4l-1.2-.3c-1.5,1.6-3.3,2.4-4.7,2.3-3.4-.3-4.3-5.5-4-19.2ZM225.1,48.7c-1.1,0-2-.9-2-2s.9-2,2-2,2,.9,2,2-.9,2-2,2Z"/>
      <path class="cls-12" d="M144.4,69.2c0,1-.2,2.9-.3,3.9,6.9,7.1,7.9,17.9,7.9,17.9,1.9-3.5,2.8-6.3,2.8-6.3-1.1-8.9-10.4-15.5-10.4-15.5Z"/>
      <path class="cls-12" d="M199.3,59.6c5.2,2.9,8.6,5.6,15.2,14.1-4.8-9.2-1.7-13.3.3-14.1,0,0-8.5,2.3-15.5,0Z"/>
      <path class="cls-8" d="M191.5,67.1c-15.4-8.9-33.4-8.2-45.7.5,14.6,8.8,12.4,29.8,12.2,31.4h8.2c3.9-8.7,3.9-20.7,3.9-20.7,33.7-15.1,43.2,19.1,43.6,20.7-1.6-12.4-9.6-24.5-22.3-31.8Z"/>
      <path class="cls-11" d="M186.3,44.1c1.6-11.5,4.3-16.9,6.5-18.8,0,0,1.7-1.3,3.9-1.3,4.2-.1,8.8,1.7,14.2,4.2,0,0,0,0,0,0-9.2-5.4-14.3-6-16.9-6-1.3,0-1.9.2-1.9.2,0,0-.8.9-1,1.2-1.8,2.4-5.9,8.3-7.1,21,1.7,5.7,11.9,13.6,11.9,13.6,0,0-9.7-9.6-9.6-14.3Z"/>
      <path class="cls-8" d="M161.3,61.4c5.9,2.8,9.3,9.6,8.8,16.9,0,0,1.9-.9,3.8-1.5-.6-6.9-6-13-12.6-15.3h0Z"/>
    </g>
    <g>
      <path class="cls-6" d="M88.4,80.9c2.6,5.3-.7,16.9-1,18.1h6.6c5.5-8.4,6.2-12.5,6.2-12.5-5.6-5.3-11.7-5.6-11.7-5.6Z"/>
      <path class="cls-3" d="M53.5,75.2c-.4,10-4.6,22.9-5,23.8h6.5c4.6-4.8,6.7-11.4,6.7-11.4-.9-7.1-8.3-12.4-8.3-12.4Z"/>
      <path class="cls-4" d="M126.5,69.8c.3-16.4-9.1-23.8-9.1-23.8-7.4-3.5-10.6-3.6-10.6-3.6-7.4-4.4-11.4-4.8-13.5-4.8-1.1,0-1.5.2-1.5.2,0,0-.7.7-.8,1-1.4,1.9-4.7,6.6-5.7,16.8,1.4,4.6,9.6,10.9,9.6,10.9-7-2-11.4-10-11.4-10-.7-6.3.9-12.1.7-12.5,0,0,0,0,0,0-13.8,1.7-23.1,7.1-23.1,7.1-6.3,3.9-10.5,13.5-10.5,13.5,0,0-2,3.6-2.9,10.3-.4,3.1-2,9.4-2,9.4,0,0,.5,0,.7-.2,3.1-8,5.9-11.4,6-11.4,14.4,6,12.4,25,12.2,26.3h6.6c3.1-7,3.1-16.5,3.1-16.5,27-12.1,34.6,15.3,34.9,16.5h6.6c0-1.5-2.8-13.6-6.5-21.6-3.5-7.6.4-9.8,1-9.9,2.7-.5,5.6.7,7.3,1.8,2,1.2,2.6,3.4,3.2,6.2,1.1,5.8,1.9,13.3,7.5,13.3s6.3-4.2,6.3-5.1l-.9-.3c-1.2,1.3-2.6,1.9-3.8,1.8-2.7-.3-3.4-4.4-3.2-15.4ZM118,58.7c-.9,0-1.6-.7-1.6-1.6s.7-1.6,1.6-1.6,1.6.7,1.6,1.6-.7,1.6-1.6,1.6Z"/>
      <path class="cls-12" d="M53.5,75.2c0,.8-.2,2.3-.2,3.1,5.5,5.7,6.3,14.3,6.3,14.3,1.5-2.8,2.2-5,2.2-5-.9-7.1-8.3-12.4-8.3-12.4Z"/>
      <path class="cls-12" d="M97.4,67.5c4.2,2.3,6.9,4.5,12.2,11.2-3.9-7.4-1.4-10.6.2-11.3,0,0-6.8,1.9-12.4,0Z"/>
      <path class="cls-8" d="M91.1,73.5c-12.3-7.1-26.7-6.5-36.5.4,11.7,7,9.9,23.8,9.7,25.1h6.6c3.1-7,3.1-16.5,3.1-16.5,27-12.1,34.6,15.3,34.9,16.5-1.3-9.9-7.6-19.6-17.8-25.5Z"/>
      <path class="cls-11" d="M87,55c1.3-9.2,3.5-13.5,5.2-15,0,0,1.4-1,3.2-1.1,3.4,0,7,1.4,11.3,3.4,0,0,0,0,0,0-7.4-4.4-11.4-4.8-13.5-4.8-1.1,0-1.5.2-1.5.2,0,0-.7.7-.8,1-1.4,1.9-4.7,6.6-5.7,16.8,1.4,4.6,9.6,10.9,9.6,10.9,0,0-7.8-7.7-7.7-11.4Z"/>
      <path class="cls-8" d="M67,68.9c4.7,2.2,7.4,7.6,7.1,13.5,0,0,1.6-.7,3-1.2-.5-5.5-4.8-10.4-10.1-12.3h0Z"/>
    </g>
  </g>
  <g>
    <g>
      <path class="cls-2" d="M27.4,147.8v-15.8h-10.4v15.8H7.2v-39.8h9.8v15.3h10.4v-15.3h9.8v39.8h-9.8Z"/>
      <path class="cls-2" d="M70.2,143.7c-2.9,2.9-6.3,4.5-11.1,4.5s-8.2-1.6-11.1-4.5c-4.2-4.2-4-9.8-4-15.8s-.2-11.6,4-15.8c2.9-2.9,6.3-4.5,11.1-4.5s8.2,1.6,11.1,4.5c4.2,4.2,4,9.8,4,15.8s.2,11.6-4,15.8ZM63,118.2c-.7-1-2.1-1.7-3.9-1.7s-3.2.8-3.9,1.7c-.9,1.2-1.5,2.5-1.5,9.8s.6,8.5,1.5,9.7c.7.9,2.1,1.8,3.9,1.8s3.2-.8,3.9-1.8c.9-1.2,1.5-2.5,1.5-9.7s-.6-8.6-1.5-9.8Z"/>
      <path class="cls-2" d="M101.1,147.8l-7-14.8h-3.3v14.8h-9.8v-39.8h15.8c8.8,0,13.6,6.3,13.6,12.8s-3.4,8.8-6.5,10.4l8.6,16.6h-11.3ZM96.3,116.8h-5.5v8h5.5c2.7,0,4.2-2,4.2-4s-1.6-4-4.2-4Z"/>
      <path class="cls-2" d="M134.6,116.8v31.1h-9.8v-31.1h-9.8v-8.7h29.3v8.7h-9.8Z"/>
      <path class="cls-2" d="M173.9,143.7c-2.9,2.9-6.3,4.5-11.1,4.5s-8.2-1.6-11.1-4.5c-4.2-4.2-4-9.8-4-15.8s-.2-11.6,4-15.8,6.3-4.5,11.1-4.5,8.2,1.6,11.1,4.5c4.2,4.2,4,9.8,4,15.8s.2,11.6-4,15.8ZM166.7,118.2c-.7-1-2.1-1.7-3.9-1.7s-3.2.8-3.9,1.7c-.9,1.2-1.5,2.5-1.5,9.8s.6,8.5,1.5,9.7c.7.9,2.1,1.8,3.9,1.8s3.2-.8,3.9-1.8c.9-1.2,1.5-2.5,1.5-9.7s-.6-8.6-1.5-9.8Z"/>
      <path class="cls-2" d="M207.2,147.8l-12.7-20v20h-9.8v-39.8h8.5l12.7,20v-20h9.8v39.8h-8.5Z"/>
      <path class="cls-2" d="M259.5,147.8h-8l-6.4-19.6-6.4,19.6h-7.9l-10.9-39.8h10.2l5.2,21,6.4-21h6.9l6.4,21,5.2-21h10.2l-10.9,39.8Z"/>
      <path class="cls-2" d="M298.8,143.7c-2.9,2.9-6.3,4.5-11.1,4.5s-8.2-1.6-11.1-4.5c-4.2-4.2-4-9.8-4-15.8s-.2-11.6,4-15.8c2.9-2.9,6.3-4.5,11.1-4.5s8.2,1.6,11.1,4.5c4.2,4.2,4,9.8,4,15.8s.2,11.6-4,15.8ZM291.6,118.2c-.7-1-2.1-1.7-3.9-1.7s-3.2.8-3.9,1.7c-.9,1.2-1.5,2.5-1.5,9.8s.6,8.5,1.5,9.7c.7.9,2.1,1.8,3.9,1.8s3.2-.8,3.9-1.8c.9-1.2,1.5-2.5,1.5-9.7s-.6-8.6-1.5-9.8Z"/>
      <path class="cls-2" d="M329.7,147.8l-7-14.8h-3.3v14.8h-9.8v-39.8h15.8c8.8,0,13.6,6.3,13.6,12.8s-3.4,8.8-6.5,10.4l8.6,16.6h-11.3ZM324.9,116.8h-5.5v8h5.5c2.7,0,4.2-2,4.2-4s-1.6-4-4.2-4Z"/>
      <path class="cls-2" d="M368.2,147.8l-9.2-16.3-3.4,3.9v12.5h-9.7v-39.8h9.7v14.1l11.5-14.1h12l-13.6,16.1,14,23.7h-11.4Z"/>
      <path class="cls-2" d="M395,148.1c-6.1,0-11.1-1.1-15.1-5.3l6.3-6.3c2.1,2.1,5.7,2.8,8.9,2.8s5.7-1.3,5.7-3.6-.2-1.7-.8-2.3c-.5-.5-1.3-.9-2.6-1.1l-4.8-.7c-3.5-.5-6.2-1.7-8-3.5-1.8-1.9-2.7-4.6-2.7-8,0-7.3,5.5-12.6,14.5-12.6s10,1.3,13.4,4.7l-6.1,6.1c-2.5-2.5-5.8-2.3-7.5-2.3-3.4,0-4.8,2-4.8,3.7s.2,1.2.8,1.8c.5.5,1.3,1,2.7,1.2l4.8.7c3.6.5,6.1,1.6,7.8,3.3,2.1,2.1,3,5,3,8.7,0,8.1-7,12.5-15.4,12.5Z"/>
    </g>
    <path class="cls-2" d="M419.5,118.7c-3,0-5.5-2.5-5.5-5.5s2.5-5.5,5.5-5.5,5.5,2.5,5.5,5.5-2.5,5.5-5.5,5.5ZM419.5,108.7c-2.5,0-4.4,2-4.4,4.5s1.9,4.5,4.4,4.5,4.4-2,4.4-4.5-1.9-4.5-4.4-4.5ZM420.7,116.2l-1.2-2.3h-.8v2.3h-1.1v-5.9h2.2c1.1,0,1.9.8,1.9,1.8s-.5,1.4-1.2,1.6l1.3,2.5h-1.2ZM419.7,111.1h-1v1.8h1c.6,0,1-.4,1-.9s-.4-.9-1-.9Z"/>
  </g>
</svg>