<?xml version="1.0" encoding="utf-8"?>
<!-- Generator: Adobe Illustrator 21.1.0, SVG Export Plug-In . SVG Version: 6.00 Build 0)  -->
<!DOCTYPE svg PUBLIC "-//W3C//DTD SVG 1.1//EN" "http://www.w3.org/Graphics/SVG/1.1/DTD/svg11.dtd">
<svg version="1.1" id="Layer_1" xmlns="http://www.w3.org/2000/svg" xmlns:xlink="http://www.w3.org/1999/xlink" x="0px" y="0px"
	 viewBox="0 0 286 286" style="enable-background:new 0 0 286 286;" xml:space="preserve">
<style type="text/css">
	.st0{clip-path:url(#SVGID_2_);fill:#4298B5;}
	.st1{clip-path:url(#SVGID_2_);}
	.st2{fill:#DB5C1E;}
	.st3{fill:#002B44;}
	.st4{fill:#003F5C;}
	.st5{fill:#EB6479;}
	.st6{fill:#223129;}
	.st7{fill:#FFFFFF;}
	.st8{fill:#D55A6E;}
	.st9{fill:#D8E2E7;}
	.st10{fill:#939598;}
	.st11{fill:#727D84;}
	.st12{fill:#4298B5;}
	.st13{fill:#E4D5B4;}
	.st14{fill:#CEBFA3;}
	.st15{fill:#EDE0C6;}
	.st16{fill:#3D302D;}
	.st17{fill:#D6C6A6;}
	.st18{fill:#C6B597;}
	.st19{fill:#826754;}
	.st20{fill:#91CEC4;}
	.st21{fill:#D3A98C;}
	.st22{fill:#AD886F;}
	.st23{fill:#896D59;}
	.st24{fill:#EA7442;}
	.st25{fill:#D15F36;}
	.st26{fill:#003E5A;}
	.st27{fill:#243129;}
	.st28{fill:#4077A2;}
	.st29{fill:#0F3644;}
	.st30{fill:#6C707A;}
	.st31{fill:url(#SVGID_3_);}
	.st32{fill:#8AACBD;}
	.st33{fill:#E6EBEE;}
	.st34{fill:#C3D4DD;}
	.st35{fill:#F37029;}
	.st36{fill:#004B6B;}
	.st37{fill:#282829;}
	.st38{fill:#BACAD3;}
	.st39{fill:#9EB3BE;}
	.st40{fill:#27688F;}
	.st41{fill:#005376;}
	.st42{fill:#2B75A2;}
	.st43{fill:#AFC6D2;}
	.st44{fill:url(#SVGID_4_);}
	.st45{fill:#E9E8D8;}
	.st46{fill:#818277;}
	.st47{fill:#63665D;}
	.st48{fill:#B4B39A;}
	.st49{fill:url(#SVGID_5_);}
	.st50{fill:url(#SVGID_6_);}
	.st51{fill:url(#SVGID_7_);}
	.st52{fill:url(#SVGID_8_);}
	.st53{fill:url(#SVGID_9_);}
	.st54{fill:url(#SVGID_10_);}
	.st55{fill:#FFC20E;}
	.st56{fill:#916600;}
	.st57{fill:#A7BDC9;}
	.st58{fill:#8E2833;}
	.st59{fill:#721B25;}
	.st60{fill:#00547A;}
	.st61{fill:#F1F2F2;}
	.st62{fill:#6F6598;}
	.st63{fill:#4B436A;}
	.st64{fill:#F27129;}
	.st65{fill:#A57406;}
	.st66{fill:url(#SVGID_11_);}
	.st67{fill:url(#SVGID_12_);}
	.st68{fill:url(#SVGID_13_);}
	.st69{fill:url(#SVGID_14_);}
	.st70{fill:url(#SVGID_15_);}
	.st71{fill:url(#SVGID_16_);}
	.st72{fill:url(#SVGID_17_);}
	.st73{fill:url(#SVGID_18_);}
	.st74{fill:url(#SVGID_19_);}
	.st75{fill:url(#SVGID_20_);}
	.st76{fill:url(#SVGID_21_);}
	.st77{fill:url(#SVGID_22_);}
	.st78{fill:url(#SVGID_23_);}
	.st79{fill:url(#SVGID_24_);}
	.st80{fill:url(#SVGID_25_);}
	.st81{fill:url(#SVGID_26_);}
	.st82{fill:url(#SVGID_27_);}
	.st83{fill:url(#SVGID_28_);}
	.st84{fill:url(#SVGID_29_);}
	.st85{fill:url(#SVGID_30_);}
	.st86{fill:url(#SVGID_31_);}
	.st87{fill:url(#SVGID_32_);}
	.st88{fill:url(#SVGID_33_);}
	.st89{fill:url(#SVGID_34_);}
	.st90{fill:url(#SVGID_35_);}
	.st91{fill:url(#SVGID_36_);}
	.st92{fill:url(#SVGID_37_);}
	.st93{fill:url(#SVGID_38_);}
	.st94{fill:url(#SVGID_39_);}
	.st95{fill:url(#SVGID_40_);}
	.st96{fill:url(#SVGID_41_);}
	.st97{fill:url(#SVGID_42_);}
	.st98{fill:url(#SVGID_43_);}
	.st99{fill:url(#SVGID_44_);}
	.st100{fill:url(#SVGID_45_);}
	.st101{fill:url(#SVGID_46_);}
	.st102{fill:#F9F1D7;}
	.st103{fill:#6E7980;stroke:#58595B;stroke-width:0.4225;stroke-linecap:round;stroke-linejoin:round;}
	.st104{fill:#DF9CB0;}
	.st105{fill:#C37A8C;}
	.st106{fill:#C29F60;}
	.st107{fill:#FFFFFF;stroke:#D0ECF4;stroke-width:0.4225;}
	.st108{fill:url(#SVGID_47_);}
	.st109{fill:url(#SVGID_48_);}
	.st110{fill:url(#SVGID_49_);stroke:#FFFFFF;stroke-width:2.1123;}
	.st111{fill:#9F2214;}
	.st112{fill:url(#SVGID_50_);stroke:#FFFFFF;stroke-width:2.1123;}
	.st113{fill:#4A7195;}
	.st114{fill:#C13D2E;}
	.st115{fill:#7989A3;stroke:#FFFFFF;stroke-width:2.1123;}
	.st116{fill:#FFCF01;}
	.st117{fill:url(#SVGID_51_);stroke:#FFFFFF;stroke-width:2.1123;}
	.st118{fill:url(#SVGID_52_);stroke:#FFFFFF;stroke-width:2.1123;}
	.st119{fill:url(#SVGID_53_);stroke:#FFFFFF;stroke-width:2.1123;}
	.st120{fill:#876041;}
	.st121{fill:#DAC895;stroke:#F7E8BA;stroke-width:0.4225;}
	.st122{fill:#4B545B;}
	.st123{fill:#3E6D93;}
	.st124{fill:#476F93;}
	.st125{fill:#CAB47E;}
	.st126{fill:#F7E8BA;}
	.st127{fill:#C2A171;}
	.st128{fill:#D0ECF4;}
	.st129{fill:#EFE4AC;}
	.st130{fill:#5980A2;}
	.st131{fill:#17738F;}
	.st132{fill:#B1D45E;}
	.st133{fill:#8CC540;stroke:#221F1F;stroke-width:0.2168;stroke-linejoin:round;stroke-miterlimit:10;}
	.st134{fill:#58595B;}
	.st135{fill:#797A7D;}
	.st136{fill:#BF86A8;}
	.st137{fill:#302B2C;}
	.st138{fill:#48484A;}
	.st139{fill:#72A087;}
	.st140{fill:#94B0BE;}
	.st141{fill:#09723B;}
	.st142{fill:#00A14B;}
	.st143{fill:#004766;}
	.st144{fill:#00354F;}
	.st145{fill:#005B80;}
	.st146{fill:#002F3E;}
	.st147{fill:#3F4450;}
	.st148{fill:#2A6A7F;}
	.st149{fill:url(#SVGID_54_);}
	.st150{fill:#2C3038;}
	.st151{fill:#CACFD1;}
	.st152{fill:#343943;}
	.st153{fill:#27667A;}
	.st154{fill:none;stroke:#243129;stroke-width:0.3823;stroke-miterlimit:10;}
	.st155{fill:#333333;}
	.st156{fill:#E5E8DD;}
	.st157{fill:#767877;}
	.st158{fill:#545554;}
	.st159{fill:#F8E1C7;}
	.st160{fill:#5A5048;}
	.st161{fill:#604373;}
	.st162{fill:none;}
	.st163{fill:#9DB9C8;}
	.st164{fill:#235F83;}
	.st165{fill:#CF473A;}
	.st166{fill:#B4A680;}
	.st167{fill:url(#SVGID_55_);}
	.st168{fill:url(#SVGID_56_);}
	.st169{fill:url(#SVGID_57_);}
	.st170{fill:url(#SVGID_58_);}
	.st171{fill:url(#SVGID_59_);}
	.st172{fill:url(#SVGID_60_);}
	.st173{fill:url(#SVGID_61_);}
	.st174{fill:url(#SVGID_62_);}
	.st175{fill:url(#SVGID_63_);}
	.st176{fill:url(#SVGID_64_);}
	.st177{fill:url(#SVGID_65_);}
	.st178{fill:url(#SVGID_66_);}
	.st179{fill:url(#SVGID_67_);}
	.st180{fill:url(#SVGID_68_);}
	.st181{fill:url(#SVGID_69_);}
	.st182{fill:url(#SVGID_70_);}
	.st183{fill:url(#SVGID_71_);}
	.st184{fill:url(#SVGID_72_);}
	.st185{fill:url(#SVGID_73_);}
	.st186{fill:url(#SVGID_74_);}
	.st187{fill:url(#SVGID_75_);}
	.st188{fill:url(#SVGID_76_);}
	.st189{fill:url(#SVGID_77_);}
	.st190{fill:url(#SVGID_78_);}
	.st191{fill:url(#SVGID_79_);}
	.st192{fill:url(#SVGID_80_);}
	.st193{fill:url(#SVGID_81_);}
	.st194{fill:url(#SVGID_82_);}
	.st195{fill:url(#SVGID_83_);}
	.st196{fill:url(#SVGID_84_);}
	.st197{fill:url(#SVGID_85_);}
	.st198{fill:url(#SVGID_86_);}
	.st199{fill:url(#SVGID_87_);}
	.st200{fill:url(#SVGID_88_);}
	.st201{fill:url(#SVGID_89_);}
	.st202{fill:url(#SVGID_90_);}
	.st203{fill:url(#SVGID_91_);}
	.st204{fill:url(#SVGID_92_);}
	.st205{fill:url(#SVGID_93_);}
	.st206{fill:url(#SVGID_94_);}
	.st207{fill:url(#SVGID_95_);}
	.st208{fill:url(#SVGID_96_);}
	.st209{fill:url(#SVGID_97_);}
	.st210{fill:url(#SVGID_98_);}
	.st211{fill:url(#SVGID_99_);}
	.st212{fill:url(#SVGID_100_);}
	.st213{fill:url(#SVGID_101_);}
	.st214{fill:url(#SVGID_102_);}
	.st215{fill:url(#SVGID_103_);}
	.st216{fill:url(#SVGID_104_);}
	.st217{fill:url(#SVGID_105_);}
	.st218{fill:url(#SVGID_106_);}
	.st219{fill:url(#SVGID_107_);}
	.st220{fill:url(#SVGID_108_);}
	.st221{fill:url(#SVGID_109_);}
	.st222{fill:url(#SVGID_110_);}
	.st223{fill:url(#SVGID_111_);}
	.st224{fill:url(#SVGID_112_);}
	.st225{fill:url(#SVGID_113_);}
	.st226{fill:url(#SVGID_114_);}
	.st227{fill:url(#SVGID_115_);}
	.st228{fill:url(#SVGID_116_);}
	.st229{fill:url(#SVGID_117_);}
	.st230{fill:url(#SVGID_118_);}
	.st231{fill:url(#SVGID_119_);}
	.st232{fill:url(#SVGID_120_);}
	.st233{fill:url(#SVGID_121_);}
	.st234{fill:url(#SVGID_122_);}
	.st235{fill:#F7D9A8;}
	.st236{fill:#EE93B9;}
</style>
<circle class="st12" cx="143" cy="143" r="143"/>
<g>
	<path class="st7" d="M50.3,194.1h5c1.9,0,3.4,0.3,4.3,0.9s1.4,1.5,1.4,2.7c0,0.8-0.2,1.5-0.6,2.1s-1,0.9-1.6,1.1v0.1
		c0.9,0.2,1.5,0.6,1.9,1.2s0.6,1.3,0.6,2.1c0,1.3-0.5,2.3-1.5,3.1s-2.3,1.1-4,1.1h-5.6V194.1z M54.2,199.5h1.2c0.6,0,1-0.1,1.3-0.3
		s0.5-0.6,0.5-1c0-0.8-0.6-1.2-1.8-1.2h-1.1V199.5z M54.2,202.4v3h1.4c1.2,0,1.8-0.5,1.8-1.5c0-0.5-0.2-0.8-0.5-1.1
		s-0.8-0.4-1.4-0.4H54.2z"/>
	<path class="st7" d="M71.5,208.3L71,207h-0.2c-0.3,0.5-0.8,0.9-1.3,1.2s-1.2,0.4-2,0.4c-1.2,0-2.2-0.4-2.8-1.1s-1-1.7-1-3v-7.2h3.8
		v6c0,0.7,0.1,1.3,0.3,1.6s0.5,0.6,1,0.6c0.7,0,1.1-0.3,1.4-0.8s0.4-1.4,0.4-2.6v-4.8h3.8v11.1H71.5z"/>
	<path class="st7" d="M75.6,197.3h4l1.9,6.3c0.1,0.3,0.2,0.7,0.2,1.2h0.1c0.1-0.4,0.1-0.8,0.2-1.2l1.9-6.4h3.9L83.5,209
		c-0.6,1.5-1.2,2.6-2.1,3.2s-1.9,0.9-3.2,0.9c-0.5,0-1-0.1-1.6-0.2v-3c0.3,0.1,0.7,0.1,1.2,0.1c0.3,0,0.6-0.1,0.9-0.2
		s0.5-0.3,0.7-0.6s0.4-0.6,0.6-1.2L75.6,197.3z"/>
	<path class="st7" d="M89.1,194.5c0-0.6,0.2-1,0.5-1.3s0.8-0.4,1.5-0.4s1.2,0.1,1.6,0.4s0.5,0.7,0.5,1.3c0,1.1-0.7,1.7-2,1.7
		C89.8,196.2,89.1,195.6,89.1,194.5z M93,208.3h-3.8v-11.1H93V208.3z"/>
	<path class="st7" d="M102.7,208.3v-6c0-0.7-0.1-1.3-0.3-1.7s-0.6-0.6-1-0.6c-0.6,0-1.1,0.3-1.4,0.8s-0.4,1.4-0.4,2.6v4.8h-3.8
		v-11.1h2.9l0.5,1.4h0.2c0.3-0.5,0.8-0.9,1.4-1.2s1.2-0.4,2-0.4c1.2,0,2.2,0.4,2.9,1.1s1,1.7,1,3v7.2H102.7z"/>
	<path class="st7" d="M119.5,197.3v1.8l-1.5,0.6c0.2,0.4,0.3,0.8,0.3,1.3c0,1.2-0.4,2.1-1.3,2.8s-2.1,1-3.7,1c-0.4,0-0.7,0-1-0.1
		c-0.1,0.2-0.1,0.3-0.1,0.5c0,0.2,0.2,0.3,0.5,0.4s0.7,0.2,1.2,0.2h1.8c2.5,0,3.7,1,3.7,3.1c0,1.3-0.6,2.4-1.7,3.1s-2.8,1.1-4.8,1.1
		c-1.6,0-2.8-0.3-3.6-0.8s-1.3-1.3-1.3-2.3c0-1.3,0.8-2.2,2.5-2.6c-0.3-0.1-0.6-0.4-0.9-0.7s-0.4-0.6-0.4-0.9c0-0.3,0.1-0.6,0.3-0.9
		s0.6-0.6,1.2-0.9c-0.6-0.3-1-0.7-1.4-1.2s-0.5-1.2-0.5-2c0-1.2,0.4-2.1,1.2-2.8s2-1,3.5-1c0.2,0,0.6,0,1,0.1s0.9,0.1,1.1,0.1H119.5
		z M111.2,209.7c0,0.3,0.2,0.6,0.5,0.8s0.8,0.3,1.4,0.3c0.9,0,1.7-0.1,2.2-0.3s0.8-0.5,0.8-0.9c0-0.3-0.2-0.5-0.5-0.6
		s-0.8-0.2-1.5-0.2h-1.5c-0.4,0-0.8,0.1-1,0.3S111.2,209.4,111.2,209.7z M112.4,200.9c0,1.1,0.4,1.7,1.2,1.7c0.4,0,0.6-0.1,0.8-0.4
		s0.3-0.7,0.3-1.3c0-1.1-0.4-1.7-1.1-1.7C112.8,199.2,112.4,199.8,112.4,200.9z"/>
	<path class="st7" d="M130.4,208.3h-3.8v-14.3h8.4v3.1h-4.6v2.7h4.3v3.1h-4.3V208.3z"/>
	<path class="st7" d="M137.1,194.5c0-0.6,0.2-1,0.5-1.3s0.8-0.4,1.5-0.4s1.2,0.1,1.6,0.4s0.5,0.7,0.5,1.3c0,1.1-0.7,1.7-2,1.7
		C137.8,196.2,137.1,195.6,137.1,194.5z M141,208.3h-3.8v-11.1h3.8V208.3z"/>
	<path class="st7" d="M150.3,197.1c0.3,0,0.6,0,0.9,0.1l0.2,0l-0.3,3.6c-0.3-0.1-0.7-0.1-1.3-0.1c-0.8,0-1.4,0.2-1.8,0.6
		c-0.4,0.4-0.6,0.9-0.6,1.6v5.4h-3.8v-11.1h2.8l0.6,1.8h0.2c0.3-0.6,0.8-1.1,1.3-1.4C149.2,197.3,149.8,197.1,150.3,197.1z"/>
	<path class="st7" d="M161.6,204.9c0,1.2-0.4,2.1-1.2,2.7c-0.8,0.6-2,0.9-3.5,0.9c-0.8,0-1.5,0-2.1-0.1s-1.2-0.2-1.9-0.5v-3.1
		c0.6,0.3,1.2,0.5,1.9,0.6c0.7,0.2,1.3,0.3,1.9,0.3c0.8,0,1.2-0.2,1.2-0.6c0-0.2-0.1-0.4-0.3-0.5c-0.2-0.2-0.9-0.5-2-0.9
		c-1-0.4-1.7-0.9-2.1-1.4c-0.4-0.5-0.6-1.2-0.6-2c0-1,0.4-1.8,1.2-2.4c0.8-0.6,1.9-0.9,3.4-0.9c0.7,0,1.4,0.1,2.1,0.2
		c0.6,0.2,1.3,0.4,2,0.7l-1,2.5c-0.5-0.2-1-0.4-1.6-0.6s-1-0.2-1.4-0.2c-0.6,0-0.9,0.2-0.9,0.5c0,0.2,0.1,0.3,0.3,0.5
		c0.2,0.1,0.8,0.4,1.9,0.8c0.8,0.3,1.4,0.6,1.7,0.9s0.7,0.7,0.8,1.1C161.5,203.8,161.6,204.3,161.6,204.9z"/>
	<path class="st7" d="M169.1,205.5c0.5,0,1.1-0.1,1.8-0.4v2.8c-0.5,0.2-1,0.4-1.5,0.5c-0.5,0.1-1,0.1-1.6,0.1
		c-1.3,0-2.2-0.3-2.8-0.9s-0.8-1.6-0.8-2.9v-4.6h-1.3v-1.6l1.7-1.2l1-2.3h2.5v2.2h2.7v2.9h-2.7v4.3
		C168.1,205.2,168.4,205.5,169.1,205.5z"/>
	<path class="st7" d="M190.6,208.3h-3.9v-5.8h-4.5v5.8h-3.9v-14.3h3.9v5.3h4.5v-5.3h3.9V208.3z"/>
	<path class="st7" d="M204,202.8c0,1.8-0.5,3.2-1.5,4.2c-1,1-2.3,1.5-4.1,1.5c-1.7,0-3-0.5-4-1.6c-1-1-1.5-2.4-1.5-4.2
		c0-1.8,0.5-3.2,1.5-4.2c1-1,2.3-1.5,4.1-1.5c1.1,0,2,0.2,2.9,0.7c0.8,0.5,1.5,1.1,1.9,2C203.8,200.6,204,201.6,204,202.8z
		 M196.8,202.8c0,1,0.1,1.7,0.4,2.2s0.7,0.7,1.3,0.7c0.6,0,1-0.2,1.3-0.7s0.4-1.2,0.4-2.2c0-0.9-0.1-1.7-0.4-2.1
		c-0.2-0.5-0.7-0.7-1.3-0.7c-0.6,0-1,0.2-1.3,0.7S196.8,201.8,196.8,202.8z"/>
	<path class="st7" d="M219.8,208.3v-6c0-0.7-0.1-1.3-0.3-1.7s-0.5-0.6-1-0.6c-0.6,0-1,0.3-1.3,0.8s-0.4,1.3-0.4,2.4v5.2H213v-6
		c0-0.7-0.1-1.3-0.3-1.7s-0.5-0.6-0.9-0.6c-0.6,0-1,0.3-1.3,0.8s-0.4,1.4-0.4,2.6v4.8h-3.8v-11.1h2.9l0.5,1.4h0.2
		c0.3-0.5,0.7-0.9,1.3-1.2s1.2-0.4,1.9-0.4c1.6,0,2.7,0.5,3.4,1.5h0.3c0.3-0.5,0.7-0.8,1.3-1.1s1.2-0.4,1.8-0.4c1.3,0,2.3,0.3,2.9,1
		s0.9,1.7,0.9,3.1v7.2H219.8z"/>
	<path class="st7" d="M231.5,208.5c-1.8,0-3.3-0.5-4.3-1.5c-1-1-1.5-2.4-1.5-4.2c0-1.9,0.5-3.3,1.4-4.3c0.9-1,2.3-1.5,4-1.5
		c1.7,0,3,0.4,3.9,1.3s1.4,2.1,1.4,3.8v1.7h-6.8c0,0.6,0.3,1.1,0.7,1.5c0.4,0.4,1,0.5,1.7,0.5c0.7,0,1.3-0.1,1.9-0.2
		c0.6-0.1,1.2-0.3,1.8-0.6v2.7c-0.6,0.3-1.2,0.5-1.9,0.6C233.2,208.5,232.4,208.5,231.5,208.5z M231.3,199.7c-0.4,0-0.8,0.1-1.1,0.4
		s-0.5,0.7-0.5,1.3h3.3c0-0.5-0.2-1-0.5-1.3C232.2,199.8,231.8,199.7,231.3,199.7z"/>
</g>
<g>
	<g>
		<rect x="185.4" y="56.4" class="st38" width="16.5" height="19.3"/>
		<rect x="185.4" y="56.4" class="st39" width="16.5" height="4.8"/>
		<rect x="143.9" y="101.9" class="st38" width="62.5" height="64.9"/>
		<rect x="143.9" y="101.9" class="st39" width="62.5" height="15.8"/>
		<rect x="143.9" y="161.6" class="st40" width="62.5" height="5.1"/>
		<polygon class="st40" points="212.6,114.8 110.3,114.8 110.3,72.6 208.1,72.6 		"/>
		<g>
			<polygon class="st41" points="110.3,104.1 110.3,105 211.6,105 211.5,104.1 			"/>
			<polygon class="st41" points="110.3,99.3 110.3,100.2 211.1,100.2 211,99.3 			"/>
			<polygon class="st41" points="110.3,108.9 110.3,109.8 212.2,109.8 212.1,108.9 			"/>
			<polygon class="st41" points="110.3,94.5 110.3,95.4 210.6,95.4 210.5,94.5 			"/>
			<polygon class="st41" points="110.3,89.7 110.3,90.6 210.1,90.6 210,89.7 			"/>
			<polygon class="st41" points="110.3,80.1 110.3,81 209,81 208.9,80.1 			"/>
			<polygon class="st41" points="110.3,75.3 110.3,76.2 208.5,76.2 208.4,75.3 			"/>
			<polygon class="st41" points="110.3,84.9 110.3,85.8 209.5,85.8 209.5,84.9 			"/>
		</g>
		<polygon class="st9" points="149.1,166.7 149.1,108.7 109.7,71.2 70.5,108.7 70.5,166.7 		"/>
		<g>
			<g>
				<rect x="153.3" y="121.5" class="st7" width="18.1" height="25.9"/>
				<rect x="152.5" y="144.4" class="st7" width="19.7" height="3"/>
			</g>
			<rect x="154.1" y="122.8" class="st41" width="7.8" height="6.5"/>
			<rect x="162.7" y="122.8" class="st41" width="7.8" height="6.5"/>
			<rect x="154.1" y="130.2" class="st41" width="7.8" height="6.5"/>
			<rect x="162.7" y="130.2" class="st41" width="7.8" height="6.5"/>
			<rect x="154.1" y="137.5" class="st41" width="7.8" height="6.5"/>
			<rect x="162.7" y="137.5" class="st41" width="7.8" height="6.5"/>
		</g>
		<g>
			<g>
				<rect x="118.7" y="121.5" class="st7" width="18.1" height="25.9"/>
				<rect x="117.8" y="144.4" class="st7" width="19.7" height="3"/>
			</g>
			<rect x="119.4" y="122.8" class="st41" width="7.8" height="6.5"/>
			<rect x="128.1" y="122.8" class="st41" width="7.8" height="6.5"/>
			<rect x="119.4" y="130.2" class="st41" width="7.8" height="6.5"/>
			<rect x="128.1" y="130.2" class="st41" width="7.8" height="6.5"/>
			<rect x="119.4" y="137.5" class="st41" width="7.8" height="6.5"/>
			<rect x="128.1" y="137.5" class="st41" width="7.8" height="6.5"/>
		</g>
		<g>
			<g>
				<rect x="182.1" y="121.5" class="st7" width="18.1" height="25.9"/>
				<rect x="181.3" y="144.4" class="st7" width="19.7" height="3"/>
			</g>
			<rect x="182.9" y="122.8" class="st41" width="7.8" height="6.5"/>
			<rect x="191.6" y="122.8" class="st41" width="7.8" height="6.5"/>
			<rect x="182.9" y="130.2" class="st41" width="7.8" height="6.5"/>
			<rect x="191.6" y="130.2" class="st41" width="7.8" height="6.5"/>
			<rect x="182.9" y="137.5" class="st41" width="7.8" height="6.5"/>
			<rect x="191.6" y="137.5" class="st41" width="7.8" height="6.5"/>
		</g>
		<rect x="70.5" y="161.6" class="st41" width="78.6" height="5.1"/>
		<rect x="83.1" y="121.5" class="st7" width="25.1" height="41.7"/>
		<rect x="84.9" y="123.9" class="st40" width="21.5" height="35.9"/>
		<path class="st42" d="M103,157.5H88.2v-30.3H103V157.5z M88.7,157h13.9v-29.4H88.7V157z"/>
		<rect x="89.9" y="129" class="st9" width="11.5" height="10"/>
		<rect x="82" y="161.6" class="st9" width="27.2" height="2.2"/>
		<rect x="79.2" y="163.8" class="st38" width="32.9" height="2.9"/>
		<circle class="st7" cx="104.4" cy="142.2" r="0.9"/>
		<g>
			<circle class="st7" cx="109.9" cy="101.3" r="8.2"/>
			<g>
				<path class="st41" d="M103,101.9c0.3,3.4,3,6,6.3,6.3v-6.3H103z"/>
				<path class="st41" d="M109.3,94.4c-3.4,0.3-6,3-6.3,6.3h6.3V94.4z"/>
				<path class="st41" d="M110.5,101.9v6.3c3.4-0.3,6.1-3,6.4-6.3H110.5z"/>
				<path class="st41" d="M116.9,100.7c-0.3-3.4-3-6.1-6.4-6.3v6.3H116.9z"/>
			</g>
		</g>
		<rect x="183.5" y="52.8" class="st40" width="20.5" height="5.9"/>
		<g>
			<polygon class="st38" points="109.7,71.2 70.5,108.7 70.5,115.2 109.7,77.7 149.1,115.2 149.1,108.7 			"/>
		</g>
		<polygon class="st41" points="109.8,73.1 150.8,111.8 156.5,111.8 109.8,67.4 63.1,111.8 68.9,111.8 		"/>
		<polygon class="st7" points="109.8,74.6 149.1,111.8 154.6,111.8 109.8,69.1 65,111.8 70.5,111.8 		"/>
	</g>
</g>
</svg>
