<?xml version="1.0" encoding="utf-8"?>
<!-- Generator: Adobe Illustrator 17.0.0, SVG Export Plug-In . SVG Version: 6.00 Build 0)  -->
<!DOCTYPE svg PUBLIC "-//W3C//DTD SVG 1.1//EN" "http://www.w3.org/Graphics/SVG/1.1/DTD/svg11.dtd">
<svg version="1.1" id="Layer_1" xmlns="http://www.w3.org/2000/svg" xmlns:xlink="http://www.w3.org/1999/xlink" x="0px" y="0px"
	 width="430px" height="654px" viewBox="0 0 430 654" enable-background="new 0 0 430 654" xml:space="preserve">
<rect fill="#34BFC2" width="430" height="654"/>
<rect y="285.143" fill="#B4A680" width="430" height="368.857"/>
<g>
	<polygon fill="#B4A680" points="429.484,285.361 275.348,202.675 69.549,202.64 0.516,285.361 	"/>
</g>
<ellipse fill="#908667" cx="272.137" cy="266.953" rx="21.996" ry="2.992"/>
<g>
	<g>
		<rect x="239.708" y="39.304" fill="#BACAD3" width="24.524" height="28.752"/>
		<rect x="239.708" y="39.304" fill="#9EB3BE" width="24.524" height="7.109"/>
		<rect x="177.964" y="106.981" fill="#BACAD3" width="93.041" height="96.523"/>
		<rect x="177.964" y="106.981" fill="#9EB3BE" width="93.041" height="23.569"/>
		<rect x="177.964" y="195.941" fill="#27688F" width="93.041" height="7.563"/>
		<polygon fill="#27688F" points="280.26,126.274 128.033,126.274 128.033,63.412 273.537,63.412 		"/>
		<g>
			<polygon fill="#005476" points="128.033,110.394 128.033,111.676 278.775,111.676 278.636,110.394 			"/>
			<polygon fill="#005476" points="128.033,103.25 128.033,104.532 278,104.532 277.861,103.25 			"/>
			<polygon fill="#005476" points="128.033,117.538 128.033,118.82 279.551,118.82 279.411,117.538 			"/>
			<polygon fill="#005476" points="128.033,96.105 128.033,97.388 277.224,97.388 277.086,96.105 			"/>
			<polygon fill="#005476" points="128.033,88.961 128.033,90.243 276.449,90.243 276.31,88.961 			"/>
			<polygon fill="#005476" points="128.033,74.673 128.033,75.955 274.899,75.955 274.759,74.673 			"/>
			<polygon fill="#005476" points="128.033,67.529 128.033,68.811 274.123,68.811 273.984,67.529 			"/>
			<polygon fill="#005476" points="128.033,81.817 128.033,83.099 275.674,83.099 275.535,81.817 			"/>
		</g>
		<polygon fill="#D8E2E7" points="185.751,203.468 185.751,117.196 127.127,61.386 68.824,117.196 68.824,203.468 		"/>
		<g>
			<g>
				<rect x="192.052" y="136.284" fill="#FFFFFF" width="26.869" height="38.538"/>
				<rect x="190.796" y="170.357" fill="#FFFFFF" width="29.293" height="4.407"/>
			</g>
			<rect x="193.231" y="138.189" fill="#005476" width="11.665" height="9.657"/>
			<rect x="206.044" y="138.189" fill="#005476" width="11.665" height="9.657"/>
			<rect x="193.231" y="149.089" fill="#005476" width="11.665" height="9.657"/>
			<rect x="206.044" y="149.089" fill="#005476" width="11.665" height="9.657"/>
			<rect x="193.231" y="159.989" fill="#005476" width="11.665" height="9.657"/>
			<rect x="206.044" y="159.989" fill="#005476" width="11.665" height="9.657"/>
		</g>
		<g>
			<g>
				<rect x="140.447" y="136.284" fill="#FFFFFF" width="26.869" height="38.538"/>
				<rect x="139.191" y="170.357" fill="#FFFFFF" width="29.293" height="4.407"/>
			</g>
			<rect x="141.626" y="138.189" fill="#005476" width="11.665" height="9.657"/>
			<rect x="154.438" y="138.189" fill="#005476" width="11.665" height="9.657"/>
			<rect x="141.626" y="149.089" fill="#005476" width="11.665" height="9.657"/>
			<rect x="154.438" y="149.089" fill="#005476" width="11.665" height="9.657"/>
			<rect x="141.626" y="159.989" fill="#005476" width="11.665" height="9.657"/>
			<rect x="154.438" y="159.989" fill="#005476" width="11.665" height="9.657"/>
		</g>
		<g>
			<g>
				<rect x="234.911" y="136.284" fill="#FFFFFF" width="26.869" height="38.538"/>
				<rect x="233.655" y="170.357" fill="#FFFFFF" width="29.293" height="4.407"/>
			</g>
			<rect x="236.09" y="138.189" fill="#005476" width="11.665" height="9.657"/>
			<rect x="248.903" y="138.189" fill="#005476" width="11.665" height="9.657"/>
			<rect x="236.09" y="149.089" fill="#005476" width="11.665" height="9.657"/>
			<rect x="248.903" y="149.089" fill="#005476" width="11.665" height="9.657"/>
			<rect x="236.09" y="159.989" fill="#005476" width="11.665" height="9.657"/>
			<rect x="248.903" y="159.989" fill="#005476" width="11.665" height="9.657"/>
		</g>
		<rect x="68.816" y="195.941" fill="#005476" width="116.934" height="7.563"/>
		<rect x="87.525" y="136.284" fill="#FFFFFF" width="37.416" height="62.091"/>
		<rect x="90.287" y="139.845" fill="#27688F" width="31.962" height="53.415"/>
		<path fill="#2B75A2" d="M117.209,189.753H95.122v-45.132h22.087V189.753z M95.817,189.058h20.697v-43.742H95.817V189.058z"/>
		<rect x="97.625" y="147.377" fill="#D8E2E7" width="17.082" height="14.902"/>
		<rect x="85.979" y="195.914" fill="#D8E2E7" width="40.397" height="3.322"/>
		<rect x="81.741" y="199.2" fill="#BACAD3" width="48.975" height="4.3"/>
		<circle fill="#FFFFFF" cx="119.291" cy="166.983" r="1.268"/>
		<g>
			<circle fill="#FFFFFF" cx="127.436" cy="106.207" r="12.191"/>
			<g>
				<path fill="#005476" d="M117.149,107.083c0.423,5.001,4.394,8.986,9.389,9.427v-9.427H117.149z"/>
				<path fill="#005476" d="M126.538,95.893c-4.992,0.441-8.961,4.421-9.389,9.417h9.389V95.893z"/>
				<path fill="#005476" d="M128.311,107.083v9.431c5.028-0.41,9.035-4.407,9.459-9.431H128.311z"/>
				<path fill="#005476" d="M137.77,105.31c-0.429-5.019-4.434-9.01-9.458-9.42v9.42H137.77z"/>
			</g>
		</g>
		<rect x="236.889" y="33.948" fill="#27688F" width="30.444" height="8.738"/>
		<g>
			<polygon fill="#BACAD3" points="127.127,61.386 68.824,117.196 68.824,126.851 127.127,71.04 185.751,126.851 185.751,117.196 
							"/>
		</g>
		<polygon fill="#005476" points="127.338,64.213 188.222,121.843 196.777,121.843 127.338,55.686 57.868,121.843 66.422,121.843 		
			"/>
		<polygon fill="#FFFFFF" points="127.307,66.512 185.765,121.843 193.978,121.843 127.307,58.325 60.611,121.843 68.824,121.843 		
			"/>
	</g>
</g>
<g>
	<g>
		<g>
			<path fill="#EB6479" d="M303.3,118.899l-0.874-1.165c-1.314-0.696-2.001-3.305-1.383-3.528c1.133-0.275,0.892,2.025,1.356,2.008
				c0.126-0.126-1.595-4.428,1.664-4.428c4.029,0,2.332,3.214,1.732,5.979l-0.452,1.062L303.3,118.899z"/>
			<path fill="#003E5A" d="M273.196,152.932l2.589-0.639c19.778-2.827,26.191-12.552,26.641-34.56l3.368,0.031
				c0,21.951-3.682,33.729-29.078,40.575l-1.524-0.944L273.196,152.932z"/>
		</g>
		<g>
			<path fill="#EB6479" d="M254.154,204.215l0.291,0.388c0.056,0.074,0.118,0.14,0.186,0.204c1.01,0.948,1.99,2.968,1.508,3.35
				c-0.046,0.033-0.091,0.055-0.137,0.067c-0.651,0.179-1.114,0.728-1.155,1.402c-0.078,1.287-0.544,2.477-2.057,2.477
				c-3.964,0-2.288-4.505-1.661-7.284c0.021-0.092,0.048-0.179,0.085-0.265l0,0c0.242-0.568,0.791-0.946,1.409-0.968l0.198-0.007
				C253.344,203.561,253.841,203.798,254.154,204.215z"/>
			<path fill="#003E5A" d="M272.952,160.581l-2.589,0.639c-19.305,6.465-15.072,21.03-15.792,41.949
				c-0.03,0.861-0.744,1.54-1.605,1.533l-0.219-0.002c-0.881-0.008-1.587-0.732-1.579-1.613
				c0.187-20.928-6.328-37.548,18.264-47.912l1.524,0.944L272.952,160.581z"/>
		</g>
		<g>
			<polygon fill="#EB6479" points="271.906,215.305 270.591,267.102 265.055,267.102 268.2,262.381 265.867,215.08 269.264,209.459 
							"/>
			<g>
				<polygon fill="#243129" points="265.055,267.102 270.591,267.102 270.719,261.998 268.179,261.998 268.2,262.381 				"/>
			</g>
		</g>
		<g>
			<polygon fill="#EB6479" points="272.807,215.305 274.122,267.102 279.658,267.102 276.513,262.381 278.846,215.08 
				275.449,209.459 			"/>
			<g>
				<polygon fill="#243129" points="279.658,267.102 274.122,267.102 273.994,261.998 276.534,261.998 276.513,262.381 				"/>
			</g>
		</g>
		<path fill="#003E5A" d="M280.869,221.667c-0.552-27.183-0.16-54.122-5.745-69.858h-5.635c-5.585,15.736-5.193,42.675-5.745,69.858
			H280.869z"/>
		<path fill="#003E5A" d="M272.192,147.403c2.076,3.438,12.541,4.899,16,1.891c-4.324,0.43-4.497-3.008-2.076-12.205
			c2.422-11.947-8.735-16.76-13.924-16.76c-5.189,0-16.346,4.813-13.924,16.76c2.422,9.197,2.249,12.635-2.076,12.205
			C259.652,152.302,270.117,150.841,272.192,147.403z"/>
		<circle fill="#EB6479" cx="261.058" cy="136.831" r="2.321"/>
		<circle fill="#EB6479" cx="283.3" cy="136.831" r="2.321"/>
		<path fill="#EB6479" d="M274.124,123.863h-3.555c-7.037,0.785-10.39,4.163-10.39,11.101c0,5.015,2.49,9.033,5.889,10.878
			c5.528,3.001,3.805,4.595,3.219,5.967l0.864,0.001v0.004l2.196-0.002l2.196,0.002l0-0.004l0.864-0.001
			c-0.585-1.372-2.308-2.966,3.22-5.967c3.399-1.845,5.889-5.863,5.889-10.878C284.514,128.026,281.161,124.648,274.124,123.863z"/>
		<path fill="#003E5A" d="M271.782,121.36c5.673,0,10.659,2.743,12.549,5.931c0.516,1.117,2.322,2.406,3.697,1.804
			c-2.664,6.188-25.701,6.447-28.537,3.782c-1.547-0.859,0.783-4.545,1.95-6.12C263.026,124.618,267.657,121.446,271.782,121.36z"/>
		<path fill="#243129" d="M264.922,137.979c-0.055,0-0.11-0.002-0.165-0.006c-1.003-0.073-2.003-0.831-1.974-2.139l0.454,0.01
			c-0.024,1.072,0.787,1.62,1.552,1.676c0.777,0.056,1.628-0.401,1.768-1.551l0.451,0.055
			C266.842,137.39,265.867,137.979,264.922,137.979z"/>
		<path fill="#243129" d="M279.651,137.979c-0.945,0-1.92-0.588-2.087-1.955l0.451-0.055c0.141,1.15,0.985,1.608,1.769,1.551
			c0.764-0.055,1.576-0.603,1.552-1.676l0.454-0.01c0.029,1.308-0.97,2.066-1.973,2.139
			C279.761,137.977,279.706,137.979,279.651,137.979z"/>
		<path fill="#243129" d="M273.552,145.239c-0.701,0-1.351-0.179-1.524-0.553l0.413-0.19c0.087,0.187,0.928,0.407,1.85,0.215
			c0.565-0.116,1.517-0.465,1.543-1.489l0.453,0.012c-0.024,0.977-0.718,1.677-1.904,1.922
			C274.115,145.211,273.829,145.239,273.552,145.239z"/>
		<path fill="#243129" d="M272.324,141.259l-3.381-0.53l0.665-0.27c1.606-0.653,2.482-3.306,2.482-4.486h0.398
			c0,1.171-0.753,3.556-2.199,4.564l2.097,0.329L272.324,141.259z"/>
		<polygon fill="#FFFFFF" points="272.366,181.204 274.254,153.126 272.366,151.816 270.479,153.126 		"/>
		<g>
			<polygon fill="#FFFFFF" points="272.395,151.824 270.868,154.653 268.761,151.956 269.772,150.205 			"/>
			<polygon fill="#FFFFFF" points="272.329,151.824 273.856,154.653 275.963,151.956 274.951,150.205 			"/>
		</g>
	</g>
	<g>
		<path fill="#E7B20E" d="M310.17,126.287c0.627-1.03,0.748-2.342,0.208-3.52c-0.864-1.885-3.093-2.713-4.978-1.849
			c-1.885,0.864-2.713,3.093-1.849,4.978c0.541,1.181,1.618,1.947,2.811,2.142l0,0c0.62,0.111,0.976,0.457,1.27,1.097l3.298,7.196
			l1.132,0.77l0.14,0.065c0,0,0.141,0.027,0.354-0.07c0.213-0.098,0.401-0.331,0.529-0.574c0.128-0.243,0.523-1.069,0.523-1.069
			l-0.272-0.594l-0.533-0.198l-0.125-0.274l-0.24-0.111l-0.119-0.259l0.287-0.389l-0.505-1.101l0.046-0.261l-0.189-0.412
			l-0.242-0.09l-0.105-0.229l-0.595-0.169l-0.863-1.883l0.398-0.698l-0.375-0.817C309.884,127.328,309.849,126.829,310.17,126.287z
			 M306.466,123.244c-0.418,0.191-0.911,0.008-1.103-0.409c-0.191-0.418-0.008-0.911,0.409-1.103
			c0.418-0.191,0.911-0.008,1.103,0.409C307.067,122.559,306.884,123.053,306.466,123.244z"/>
		<path fill="#ECCE7E" d="M305.26,120.853c-1.885,0.864-2.713,3.093-1.849,4.978c0.864,1.885,3.093,2.713,4.978,1.849
			c1.885-0.864,2.713-3.093,1.849-4.978C309.373,120.817,307.145,119.989,305.26,120.853z M306.333,123.195
			c-0.418,0.191-0.911,0.008-1.103-0.409c-0.191-0.418-0.008-0.911,0.41-1.103c0.417-0.191,0.911-0.008,1.103,0.41
			C306.934,122.51,306.75,123.003,306.333,123.195z"/>
		<path fill="#FFCB05" d="M305.345,121.039c-1.783,0.817-2.565,2.924-1.748,4.707c0.817,1.782,2.924,2.565,4.707,1.748
			c1.782-0.817,2.565-2.924,1.748-4.707C309.235,121.005,307.127,120.222,305.345,121.039z M306.333,123.195
			c-0.418,0.191-0.911,0.008-1.103-0.409c-0.191-0.418-0.008-0.911,0.41-1.103c0.417-0.191,0.911-0.008,1.103,0.41
			C306.934,122.51,306.75,123.003,306.333,123.195z"/>
		<path fill="#FFCB05" d="M305.525,121.432c-0.556,0.255-0.8,0.912-0.545,1.468c0.255,0.556,0.912,0.8,1.468,0.545
			c0.556-0.255,0.8-0.912,0.545-1.468S306.081,121.177,305.525,121.432z M306.333,123.195c-0.418,0.191-0.911,0.008-1.103-0.409
			c-0.191-0.418-0.008-0.911,0.41-1.103c0.417-0.191,0.911-0.008,1.103,0.41C306.934,122.51,306.75,123.003,306.333,123.195z"/>
		<g>
			<path opacity="0.1" d="M306.416,121.418c0.247,0.104,0.457,0.297,0.577,0.559c0.255,0.556,0.011,1.213-0.545,1.468
				c-0.263,0.12-0.548,0.129-0.802,0.047c0.276,0.116,0.598,0.121,0.891-0.014c0.556-0.255,0.8-0.912,0.545-1.468
				C306.947,121.717,306.701,121.51,306.416,121.418z"/>
			<path opacity="0.1" d="M303.7,125.75c-0.807-1.759-0.034-3.839,1.725-4.646c1.752-0.803,3.823-0.04,4.636,1.705
				c-0.003-0.007-0.006-0.014-0.009-0.021c-0.817-1.783-2.924-2.565-4.707-1.748c-1.783,0.817-2.565,2.924-1.748,4.707
				c0.817,1.782,2.924,2.565,4.707,1.748c0.007-0.003,0.014-0.007,0.021-0.01C306.57,128.275,304.503,127.502,303.7,125.75z"/>
			<path opacity="0.1" d="M309.89,126.059l-0.279-0.167l-0.127,0.003l0.371,0.223L309.89,126.059z"/>
		</g>
		<path fill="#FFCB05" d="M310.238,122.702c-0.864-1.885-3.093-2.713-4.978-1.849c-1.885,0.864-2.713,3.093-1.849,4.978
			c0.541,1.181,1.618,1.947,2.811,2.142l0,0c0.62,0.111,0.976,0.457,1.27,1.097l3.298,7.196l1.272,0.835c0,0,0.141,0.027,0.354-0.07
			c0.213-0.098,0.401-0.331,0.529-0.574c0.128-0.243,0.523-1.069,0.523-1.069l-0.265-0.578l-0.533-0.198l-0.133-0.289l-0.24-0.111
			l-0.119-0.259l0.287-0.389l-0.505-1.101l0.046-0.261l-0.181-0.396l-0.242-0.09l-0.098-0.215l-0.595-0.169l-0.877-1.914
			l0.398-0.698l-0.375-0.817c-0.294-0.641-0.323-1.136-0.002-1.678l-0.005-0.003C310.657,125.193,310.778,123.88,310.238,122.702z
			 M309.855,126.117l-0.371-0.223l-3.153,1.445l-0.074,0.432c-1.128-0.184-2.147-0.908-2.659-2.026
			c-0.817-1.783-0.034-3.89,1.748-4.707c1.782-0.817,3.89-0.034,4.707,1.748C310.563,123.902,310.448,125.144,309.855,126.117z"/>
		<path opacity="0.5" fill="#FFCB05" d="M309.18,127.889l3.85,8.4c0.166-0.332,0.438-0.9,0.438-0.9l-0.265-0.578l-0.533-0.198
			l-0.133-0.289l-0.24-0.111l-0.119-0.259l0.287-0.389l-0.505-1.101l0.046-0.261l-0.181-0.396l-0.242-0.09l-0.098-0.215
			l-0.595-0.169l-0.877-1.914l0.398-0.698l-0.375-0.817c-0.06-0.131-0.109-0.255-0.146-0.375L309.18,127.889z"/>
		<path opacity="0.5" fill="#FFCB05" d="M312.031,137.082l0.03,0.02c0,0,0.137,0.026,0.344-0.066l-4.025-8.78l-0.327,0.15
			L312.031,137.082z"/>
		<path opacity="0.5" fill="#FFCB05" d="M309.859,127.414c-0.08-0.317-0.073-0.606,0.035-0.898l-3.362,1.541
			c0.292,0.109,0.515,0.292,0.703,0.559L309.859,127.414z"/>
		
			<linearGradient id="SVGID_1_" gradientUnits="userSpaceOnUse" x1="916.9633" y1="13.0519" x2="916.9633" y2="14.2558" gradientTransform="matrix(0.909 -0.4167 0.4167 0.909 -530.0447 498.1794)">
			<stop  offset="0.3" style="stop-color:#FFCB05"/>
			<stop  offset="1" style="stop-color:#FFCB05;stop-opacity:0"/>
		</linearGradient>
		<path fill="url(#SVGID_1_)" d="M308.527,129.478l0.342-0.157l-0.502-1.094l-0.342,0.157L308.527,129.478z M309.167,127.86
			l0.502,1.094l0.703-0.322l-0.334-0.729c-0.06-0.131-0.109-0.255-0.146-0.375L309.167,127.86z"/>
	</g>
	<g>
		<g>
			<g>
				
					<linearGradient id="SVGID_2_" gradientUnits="userSpaceOnUse" x1="916.6105" y1="6.8528" x2="916.6105" y2="-2.3031" gradientTransform="matrix(0.909 -0.4167 0.4167 0.909 -530.0447 498.1794)">
					<stop  offset="0" style="stop-color:#F2F2F2"/>
					<stop  offset="1" style="stop-color:#D9D9D9"/>
				</linearGradient>
				<path fill="url(#SVGID_2_)" d="M306.736,122.08c-0.114-0.238-0.327-0.398-0.567-0.452c-0.128,0.078-0.262,0.15-0.401,0.214
					c-1.953,0.895-4.262,0.038-5.157-1.915c-0.895-1.953-0.038-4.262,1.915-5.157c1.953-0.895,4.262-0.038,5.157,1.915
					c0.598,1.304,0.413,2.767-0.357,3.861c0.243,0.033,0.482,0.09,0.713,0.169c0.778-1.259,0.932-2.871,0.269-4.317
					c-1.054-2.298-3.771-3.308-6.069-2.254s-3.308,3.771-2.254,6.069c1.054,2.298,3.771,3.308,6.069,2.254
					C306.297,122.356,306.524,122.226,306.736,122.08z"/>
				<g>
					<g>
						
							<linearGradient id="SVGID_3_" gradientUnits="userSpaceOnUse" x1="914.3215" y1="6.8528" x2="914.3215" y2="2.2748" gradientTransform="matrix(0.909 -0.4167 0.4167 0.909 -530.0447 498.1794)">
							<stop  offset="0" style="stop-color:#F2F2F2"/>
							<stop  offset="1" style="stop-color:#CCCCCC"/>
						</linearGradient>
						<path fill="url(#SVGID_3_)" d="M299.986,120.213c1.054,2.298,3.771,3.308,6.069,2.254l-0.287-0.625
							c-1.953,0.895-4.262,0.038-5.157-1.915L299.986,120.213z"/>
						<path opacity="0.5" fill="#FFFFFF" d="M302.344,114.183c1.131-0.518,2.363-0.537,3.449-0.149
							c-1.111-0.428-2.386-0.425-3.554,0.11c-2.298,1.054-3.308,3.771-2.254,6.069l0.073-0.033
							C299.058,117.897,300.07,115.226,302.344,114.183z"/>
						<path opacity="0.6" fill="#FFFFFF" d="M300.643,119.994c-0.011-0.022-0.022-0.045-0.032-0.068l-0.625,0.287
							c0.535,1.166,1.498,2.001,2.618,2.402c-1.077-0.414-2-1.233-2.518-2.365L300.643,119.994z"/>
						<path opacity="0.1" d="M300.611,119.927c-0.895-1.953-0.038-4.262,1.915-5.157c0.959-0.44,2.004-0.456,2.926-0.128
							c-0.945-0.366-2.031-0.364-3.025,0.091c-1.953,0.895-2.811,3.204-1.915,5.157c0.01,0.023,0.021,0.045,0.032,0.068
							L300.611,119.927z"/>
					</g>
				</g>
				<path opacity="0.5" fill="#FFFFFF" d="M306.283,121.662c-0.037-0.014-0.075-0.025-0.113-0.034
					c-0.128,0.078-0.262,0.15-0.401,0.214c-0.958,0.439-2.002,0.456-2.923,0.129c0.946,0.367,2.033,0.366,3.027-0.09
					C306.016,121.816,306.152,121.742,306.283,121.662z"/>
				<path opacity="0.1" d="M306.736,122.08c-0.013-0.027-0.027-0.052-0.042-0.077c-0.229,0.162-0.475,0.306-0.739,0.427
					c-1.132,0.519-2.365,0.537-3.452,0.148c1.11,0.427,2.384,0.424,3.551-0.111C306.297,122.356,306.524,122.226,306.736,122.08z"/>
				<path opacity="0.5" fill="#FFFFFF" d="M307.326,120.546c0.04,0.005,0.08,0.011,0.12,0.017c0.757-1.092,0.936-2.544,0.342-3.84
					c-0.456-0.995-1.279-1.705-2.235-2.045c0.911,0.353,1.691,1.047,2.13,2.006C308.281,117.989,308.096,119.452,307.326,120.546z"
					/>
				<path opacity="0.1" d="M307.938,120.681c0.034,0.011,0.068,0.022,0.101,0.034c0.778-1.259,0.932-2.871,0.269-4.317
					c-0.535-1.166-1.498-2.001-2.618-2.402c1.077,0.414,2,1.233,2.518,2.365C308.873,117.809,308.717,119.422,307.938,120.681z"/>
			</g>
		</g>
	</g>
	<g>
		<path fill="#E7B20E" d="M299.941,128.629l-0.17,0.883l0.553,0.584l-0.392,2.034l-0.538,0.306l-0.048,0.248l-0.213,0.144
			l-0.086,0.445l0.107,0.242l-0.229,1.19l0.371,0.31l-0.054,0.279l-0.206,0.165l-0.057,0.295l-0.471,0.319l-0.124,0.642
			c0,0,0.58,0.708,0.762,0.914c0.182,0.206,0.42,0.388,0.65,0.432c0.23,0.044,0.361-0.016,0.361-0.016l0.121-0.096l0.916-1.017
			l1.496-7.773c0.133-0.692,0.397-1.113,0.973-1.367l0,0c1.112-0.472,1.976-1.472,2.222-2.748c0.392-2.036-0.941-4.005-2.977-4.397
			c-2.036-0.392-4.005,0.941-4.397,2.977c-0.245,1.273,0.184,2.519,1.037,3.371C299.989,127.445,300.075,127.937,299.941,128.629z
			 M301.766,122.185c0.087-0.451,0.523-0.746,0.974-0.659c0.451,0.087,0.746,0.523,0.659,0.974
			c-0.087,0.451-0.523,0.746-0.974,0.659C301.974,123.072,301.679,122.636,301.766,122.185z"/>
		<path fill="#ECCE7E" d="M298.633,123.528c-0.392,2.036,0.941,4.005,2.977,4.397c2.036,0.392,4.005-0.941,4.397-2.977
			s-0.941-4.005-2.977-4.397C300.994,120.158,299.025,121.491,298.633,123.528z M301.884,122.106
			c0.087-0.451,0.523-0.746,0.974-0.659c0.451,0.087,0.746,0.523,0.659,0.974c-0.087,0.451-0.523,0.746-0.974,0.659
			C302.092,122.993,301.797,122.557,301.884,122.106z"/>
		<path fill="#FFCB05" d="M298.834,123.566c-0.371,1.925,0.89,3.787,2.815,4.158c1.926,0.371,3.787-0.89,4.158-2.815
			c0.371-1.926-0.89-3.787-2.815-4.158C301.066,120.38,299.204,121.641,298.834,123.566z M301.884,122.106
			c0.087-0.451,0.523-0.746,0.974-0.659c0.451,0.087,0.746,0.523,0.659,0.974c-0.087,0.451-0.523,0.746-0.974,0.659
			C302.092,122.993,301.797,122.557,301.884,122.106z"/>
		<path fill="#FFCB05" d="M301.613,122.053c-0.116,0.601,0.278,1.181,0.878,1.297c0.601,0.116,1.181-0.278,1.297-0.878
			c0.116-0.601-0.277-1.181-0.878-1.297C302.309,121.06,301.728,121.453,301.613,122.053z M301.884,122.106
			c0.087-0.451,0.523-0.746,0.974-0.659c0.451,0.087,0.746,0.523,0.659,0.974c-0.087,0.451-0.523,0.746-0.974,0.659
			C302.092,122.993,301.797,122.557,301.884,122.106z"/>
		<g>
			<path opacity="0.1" d="M302.041,121.373c-0.215,0.159-0.373,0.397-0.428,0.68c-0.116,0.601,0.278,1.181,0.878,1.297
				c0.284,0.055,0.563-0.004,0.791-0.145c-0.24,0.178-0.552,0.259-0.869,0.198c-0.601-0.116-0.994-0.696-0.878-1.297
				C301.595,121.789,301.786,121.53,302.041,121.373z"/>
			<path opacity="0.1" d="M305.707,124.937c0.366-1.901-0.878-3.738-2.779-4.104c-1.893-0.364-3.723,0.868-4.099,2.756
				c0.001-0.008,0.003-0.015,0.004-0.023c0.371-1.926,2.232-3.186,4.158-2.815c1.926,0.371,3.186,2.232,2.815,4.158
				c-0.371,1.925-2.232,3.186-4.158,2.815c-0.008-0.001-0.015-0.003-0.022-0.005C303.519,128.071,305.343,126.83,305.707,124.937z"
				/>
			<path opacity="0.1" d="M299.816,126.755l0.308-0.305l-0.125,0.027l-0.231,0.229L299.816,126.755z"/>
		</g>
		<path fill="#FFCB05" d="M299.67,126.898l-0.004,0.004c0.44,0.45,0.529,0.939,0.396,1.631l-0.17,0.883l0.553,0.584l-0.398,2.067
			l-0.538,0.305l-0.045,0.232l-0.213,0.144l-0.082,0.427l0.107,0.242l-0.229,1.19l0.371,0.31l-0.054,0.279l-0.206,0.165l-0.06,0.312
			l-0.47,0.319l-0.12,0.625c0,0,0.58,0.708,0.762,0.914c0.182,0.206,0.42,0.388,0.65,0.432c0.23,0.044,0.361-0.016,0.361-0.016
			l1.037-1.113l1.496-7.773c0.133-0.692,0.397-1.113,0.973-1.367l0,0c1.112-0.472,1.976-1.472,2.222-2.748
			c0.392-2.036-0.941-4.005-2.977-4.397c-2.036-0.392-4.005,0.941-4.397,2.977C298.388,124.801,298.817,126.047,299.67,126.898z
			 M298.834,123.566c0.371-1.926,2.232-3.186,4.158-2.815c1.926,0.371,3.186,2.232,2.815,4.158c-0.232,1.207-1.05,2.152-2.103,2.599
			l-0.175-0.402l-3.405-0.656l-0.308,0.305C299.008,125.949,298.602,124.77,298.834,123.566z"/>
		<path opacity="0.5" fill="#FFCB05" d="M300.891,128.315l-1.747,9.074c-0.24-0.283-0.639-0.771-0.639-0.771l0.12-0.625l0.47-0.319
			l0.06-0.312l0.206-0.165l0.054-0.279l-0.371-0.31l0.229-1.19l-0.107-0.242l0.082-0.427l0.213-0.144l0.045-0.232l0.538-0.305
			l0.398-2.067l-0.553-0.584l0.17-0.883c0.027-0.141,0.045-0.274,0.052-0.399L300.891,128.315z"/>
		<path opacity="0.5" fill="#FFCB05" d="M300.303,137.922l-0.024,0.026c0,0-0.127,0.058-0.35,0.018l1.826-9.484l0.353,0.068
			L300.303,137.922z"/>
		<path opacity="0.5" fill="#FFCB05" d="M300.119,128.015c0.002-0.327-0.073-0.606-0.247-0.864l3.631,0.699
			c-0.258,0.175-0.431,0.406-0.55,0.71L300.119,128.015z"/>
		
			<linearGradient id="SVGID_4_" gradientUnits="userSpaceOnUse" x1="2180.5105" y1="291.4681" x2="2180.5105" y2="292.672" gradientTransform="matrix(-0.982 -0.189 -0.189 0.982 2497.4153 254.3335)">
			<stop  offset="0.3" style="stop-color:#FFCB05"/>
			<stop  offset="1" style="stop-color:#FFCB05;stop-opacity:0"/>
		</linearGradient>
		<path fill="url(#SVGID_4_)" d="M302.13,128.522l-0.37-0.071l-0.228,1.182l0.37,0.071L302.13,128.522z M300.115,128.134
			c-0.008,0.126-0.025,0.258-0.052,0.399l-0.152,0.787l0.759,0.146l0.228-1.182L300.115,128.134z"/>
	</g>
	<g>
		
			<linearGradient id="SVGID_5_" gradientUnits="userSpaceOnUse" x1="919.7974" y1="6.8528" x2="919.7974" y2="-2.3031" gradientTransform="matrix(0.909 -0.4167 0.4167 0.909 -530.0447 498.1794)">
			<stop  offset="0" style="stop-color:#F2F2F2"/>
			<stop  offset="1" style="stop-color:#D9D9D9"/>
		</linearGradient>
		<path fill="url(#SVGID_5_)" d="M305.701,114c-0.023-0.008-0.045-0.016-0.068-0.023c0.028,0.01,0.056,0.02,0.085,0.03
			C305.712,114.005,305.707,114.003,305.701,114z"/>
		
			<linearGradient id="SVGID_6_" gradientUnits="userSpaceOnUse" x1="919.8477" y1="6.8528" x2="919.8477" y2="-2.3031" gradientTransform="matrix(0.909 -0.4167 0.4167 0.909 -530.0447 498.1794)">
			<stop  offset="0" style="stop-color:#F2F2F2"/>
			<stop  offset="1" style="stop-color:#D9D9D9"/>
		</linearGradient>
		<path fill="url(#SVGID_6_)" d="M305.776,114.028c-0.023-0.009-0.045-0.017-0.068-0.025c0.012,0.004,0.023,0.009,0.035,0.013
			C305.754,114.02,305.765,114.024,305.776,114.028z"/>
		
			<linearGradient id="SVGID_7_" gradientUnits="userSpaceOnUse" x1="919.8969" y1="6.8528" x2="919.8969" y2="-2.3031" gradientTransform="matrix(0.909 -0.4167 0.4167 0.909 -530.0447 498.1794)">
			<stop  offset="0" style="stop-color:#F2F2F2"/>
			<stop  offset="1" style="stop-color:#D9D9D9"/>
		</linearGradient>
		<path fill="url(#SVGID_7_)" d="M305.848,114.057c-0.022-0.009-0.044-0.018-0.066-0.026c-0.005-0.002-0.01-0.003-0.016-0.005
			C305.794,114.036,305.821,114.046,305.848,114.057z"/>
		
			<linearGradient id="SVGID_8_" gradientUnits="userSpaceOnUse" x1="916.613" y1="6.8528" x2="916.613" y2="-2.3031" gradientTransform="matrix(0.909 -0.4167 0.4167 0.909 -530.0447 498.1794)">
			<stop  offset="0" style="stop-color:#F2F2F2"/>
			<stop  offset="1" style="stop-color:#D9D9D9"/>
		</linearGradient>
		<path fill="url(#SVGID_8_)" d="M308.209,116.361c-0.51-1.114-1.412-1.924-2.467-2.344c-1.073-0.37-2.285-0.345-3.398,0.166
			c-2.274,1.043-3.286,3.714-2.286,5.997l0.485-0.222c-0.011-0.022-0.022-0.045-0.032-0.068c-0.895-1.953-0.038-4.262,1.915-5.157
			c0.994-0.456,2.08-0.457,3.025-0.091c-0.015-0.005-0.03-0.01-0.046-0.015c0.064,0.022,0.128,0.046,0.191,0.071
			c-0.015-0.006-0.029-0.012-0.044-0.018c0.956,0.339,1.779,1.05,2.235,2.045c0.594,1.296,0.415,2.748-0.342,3.84
			c-0.04-0.007-0.08-0.012-0.12-0.017c0.243,0.033,0.482,0.09,0.713,0.169c-0.034-0.012-0.067-0.023-0.101-0.034
			C308.717,119.422,308.873,117.809,308.209,116.361z"/>
		
			<linearGradient id="SVGID_9_" gradientUnits="userSpaceOnUse" x1="916.9977" y1="6.8528" x2="916.9977" y2="-2.3031" gradientTransform="matrix(0.909 -0.4167 0.4167 0.909 -530.0447 498.1794)">
			<stop  offset="0" style="stop-color:#F2F2F2"/>
			<stop  offset="1" style="stop-color:#D9D9D9"/>
		</linearGradient>
		<path fill="url(#SVGID_9_)" d="M305.8,121.912l0.223,0.486c0.238-0.114,0.462-0.246,0.671-0.394
			c-0.099-0.161-0.246-0.278-0.413-0.341c-0.13,0.08-0.266,0.153-0.408,0.218C305.849,121.892,305.824,121.902,305.8,121.912z"/>
		
			<linearGradient id="SVGID_10_" gradientUnits="userSpaceOnUse" x1="916.3878" y1="6.8528" x2="916.3878" y2="-2.3031" gradientTransform="matrix(0.909 -0.4167 0.4167 0.909 -530.0447 498.1794)">
			<stop  offset="0" style="stop-color:#F2F2F2"/>
			<stop  offset="1" style="stop-color:#D9D9D9"/>
		</linearGradient>
		<path fill="url(#SVGID_10_)" d="M306.023,122.398l-0.223-0.486c-0.138,0.06-0.278,0.111-0.419,0.154
			c0.06,0.065,0.163,0.204,0.299,0.48c0.093-0.035,0.185-0.074,0.276-0.116C305.978,122.42,306,122.408,306.023,122.398z"/>
		
			<linearGradient id="SVGID_11_" gradientUnits="userSpaceOnUse" x1="-5605.4775" y1="6.8528" x2="-5605.4775" y2="2.2748" gradientTransform="matrix(-0.909 0.4167 0.4167 0.909 -4792.6572 2452.0723)">
			<stop  offset="0" style="stop-color:#F2F2F2"/>
			<stop  offset="1" style="stop-color:#CCCCCC"/>
		</linearGradient>
		<path fill="url(#SVGID_11_)" d="M306.023,122.398l-0.223-0.486c-0.138,0.06-0.278,0.111-0.419,0.154
			c0.06,0.065,0.163,0.204,0.299,0.48c0.093-0.035,0.185-0.074,0.276-0.116C305.978,122.42,306,122.408,306.023,122.398z"/>
		
			<linearGradient id="SVGID_12_" gradientUnits="userSpaceOnUse" x1="913.3142" y1="6.8528" x2="913.3142" y2="-2.3031" gradientTransform="matrix(0.909 -0.4167 0.4167 0.909 -530.0447 498.1794)">
			<stop  offset="0" style="stop-color:#F2F2F2"/>
			<stop  offset="1" style="stop-color:#D9D9D9"/>
		</linearGradient>
		<path fill="url(#SVGID_12_)" d="M302.444,122.554c0.02,0.008,0.04,0.016,0.06,0.024l0-0.001
			C302.483,122.569,302.464,122.562,302.444,122.554z"/>
		
			<linearGradient id="SVGID_13_" gradientUnits="userSpaceOnUse" x1="-5602.4038" y1="6.8528" x2="-5602.4038" y2="2.2748" gradientTransform="matrix(-0.909 0.4167 0.4167 0.909 -4792.6572 2452.0723)">
			<stop  offset="0" style="stop-color:#F2F2F2"/>
			<stop  offset="1" style="stop-color:#CCCCCC"/>
		</linearGradient>
		<path fill="url(#SVGID_13_)" d="M302.444,122.554c0.02,0.008,0.04,0.016,0.06,0.024l0-0.001
			C302.483,122.569,302.464,122.562,302.444,122.554z"/>
		
			<linearGradient id="SVGID_14_" gradientUnits="userSpaceOnUse" x1="912.7219" y1="6.8528" x2="912.7219" y2="-2.3031" gradientTransform="matrix(0.909 -0.4167 0.4167 0.909 -530.0447 498.1794)">
			<stop  offset="0" style="stop-color:#F2F2F2"/>
			<stop  offset="1" style="stop-color:#D9D9D9"/>
		</linearGradient>
		<path fill="url(#SVGID_14_)" d="M300.085,120.25c0.502,1.096,1.384,1.897,2.417,2.323l-0.456-0.995
			c-0.606-0.388-1.113-0.949-1.435-1.652c0.01,0.023,0.021,0.045,0.032,0.068L300.085,120.25z"/>
		
			<linearGradient id="SVGID_15_" gradientUnits="userSpaceOnUse" x1="-5601.876" y1="6.8528" x2="-5601.876" y2="2.2748" gradientTransform="matrix(-0.909 0.4167 0.4167 0.909 -4792.6572 2452.0723)">
			<stop  offset="0" style="stop-color:#F2F2F2"/>
			<stop  offset="1" style="stop-color:#CCCCCC"/>
		</linearGradient>
		<path fill="url(#SVGID_15_)" d="M300.085,120.25c0.502,1.096,1.384,1.897,2.417,2.323l-0.26-0.876
			c-0.748-0.417-1.308-1.067-1.631-1.771c0.01,0.023,0.021,0.045,0.032,0.068L300.085,120.25z"/>
		<path opacity="0.5" fill="#FFFFFF" d="M305.793,114.034c-0.006-0.002-0.012-0.004-0.017-0.006
			c0.002,0.001,0.005,0.002,0.007,0.003C305.786,114.032,305.79,114.033,305.793,114.034z"/>
		
			<linearGradient id="SVGID_16_" gradientUnits="userSpaceOnUse" x1="915.9401" y1="6.8528" x2="915.9401" y2="-2.3031" gradientTransform="matrix(0.909 -0.4167 0.4167 0.909 -530.0447 498.1794)">
			<stop  offset="0" style="stop-color:#F2F2F2"/>
			<stop  offset="1" style="stop-color:#D9D9D9"/>
		</linearGradient>
		<path fill="url(#SVGID_16_)" d="M302.344,114.183c1.114-0.51,2.325-0.536,3.398-0.166c-0.008-0.003-0.016-0.007-0.025-0.01
			c-0.028-0.01-0.056-0.021-0.085-0.03c-0.022-0.008-0.044-0.016-0.067-0.023c-0.048-0.016-0.096-0.03-0.145-0.044
			c-0.023-0.007-0.045-0.014-0.068-0.02c-0.049-0.013-0.097-0.025-0.146-0.037c-0.023-0.006-0.046-0.012-0.069-0.017
			c-0.049-0.011-0.098-0.02-0.147-0.03c-0.024-0.004-0.047-0.009-0.071-0.014c-0.049-0.008-0.098-0.015-0.148-0.022
			c-0.024-0.003-0.049-0.007-0.073-0.01c-0.049-0.006-0.098-0.01-0.147-0.015c-0.025-0.002-0.051-0.005-0.076-0.007
			c-0.048-0.004-0.097-0.005-0.146-0.007c-0.026-0.001-0.052-0.003-0.079-0.003c-0.048-0.001-0.096-0.001-0.144,0
			c-0.027,0-0.054,0-0.081,0c-0.047,0.001-0.095,0.004-0.143,0.007c-0.028,0.002-0.055,0.002-0.083,0.004
			c-0.047,0.004-0.094,0.009-0.141,0.014c-0.028,0.003-0.057,0.005-0.085,0.009c-0.046,0.006-0.092,0.013-0.138,0.021
			c-0.029,0.005-0.058,0.008-0.087,0.013c-0.046,0.008-0.091,0.018-0.137,0.028c-0.029,0.006-0.059,0.011-0.088,0.018
			c-0.046,0.011-0.092,0.023-0.138,0.035c-0.029,0.008-0.058,0.014-0.086,0.022c-0.047,0.013-0.094,0.029-0.141,0.044
			c-0.027,0.009-0.055,0.016-0.082,0.026c-0.051,0.017-0.101,0.036-0.151,0.056c-0.023,0.009-0.047,0.017-0.07,0.026
			c-0.073,0.029-0.146,0.06-0.218,0.093c-2.298,1.054-3.308,3.771-2.254,6.069l0.073-0.033
			C299.058,117.897,300.07,115.226,302.344,114.183z"/>
		<path opacity="0.5" fill="#FFFFFF" d="M302.344,114.183c1.114-0.51,2.325-0.536,3.398-0.166c-0.008-0.003-0.016-0.007-0.025-0.01
			c-0.028-0.01-0.056-0.021-0.085-0.03c-0.022-0.008-0.044-0.016-0.067-0.023c-0.048-0.016-0.096-0.03-0.145-0.044
			c-0.023-0.007-0.045-0.014-0.068-0.02c-0.049-0.013-0.097-0.025-0.146-0.037c-0.023-0.006-0.046-0.012-0.069-0.017
			c-0.049-0.011-0.098-0.02-0.147-0.03c-0.024-0.004-0.047-0.009-0.071-0.014c-0.049-0.008-0.098-0.015-0.148-0.022
			c-0.024-0.003-0.049-0.007-0.073-0.01c-0.049-0.006-0.098-0.01-0.147-0.015c-0.025-0.002-0.051-0.005-0.076-0.007
			c-0.048-0.004-0.097-0.005-0.146-0.007c-0.026-0.001-0.052-0.003-0.079-0.003c-0.048-0.001-0.096-0.001-0.144,0
			c-0.027,0-0.054,0-0.081,0c-0.047,0.001-0.095,0.004-0.143,0.007c-0.028,0.002-0.055,0.002-0.083,0.004
			c-0.047,0.004-0.094,0.009-0.141,0.014c-0.028,0.003-0.057,0.005-0.085,0.009c-0.046,0.006-0.092,0.013-0.138,0.021
			c-0.029,0.005-0.058,0.008-0.087,0.013c-0.046,0.008-0.091,0.018-0.137,0.028c-0.029,0.006-0.059,0.011-0.088,0.018
			c-0.046,0.011-0.092,0.023-0.138,0.035c-0.029,0.008-0.058,0.014-0.086,0.022c-0.047,0.013-0.094,0.029-0.141,0.044
			c-0.027,0.009-0.055,0.016-0.082,0.026c-0.051,0.017-0.101,0.036-0.151,0.056c-0.023,0.009-0.047,0.017-0.07,0.026
			c-0.073,0.029-0.146,0.06-0.218,0.093c-2.298,1.054-3.308,3.771-2.254,6.069l0.073-0.033
			C299.058,117.897,300.07,115.226,302.344,114.183z"/>
		
			<linearGradient id="SVGID_17_" gradientUnits="userSpaceOnUse" x1="919.8633" y1="6.8528" x2="919.8633" y2="-2.3031" gradientTransform="matrix(0.909 -0.4167 0.4167 0.909 -530.0447 498.1794)">
			<stop  offset="0" style="stop-color:#F2F2F2"/>
			<stop  offset="1" style="stop-color:#D9D9D9"/>
		</linearGradient>
		<path fill="url(#SVGID_17_)" d="M305.767,114.026c0.005,0.002,0.01,0.003,0.016,0.005c-0.002-0.001-0.005-0.002-0.007-0.003
			c-0.011-0.004-0.022-0.008-0.033-0.012C305.751,114.019,305.759,114.022,305.767,114.026z"/>
		<path opacity="0.5" fill="#FFFFFF" d="M305.767,114.026c0.005,0.002,0.01,0.003,0.016,0.005c-0.002-0.001-0.005-0.002-0.007-0.003
			c-0.011-0.004-0.022-0.008-0.033-0.012C305.751,114.019,305.759,114.022,305.767,114.026z"/>
		
			<linearGradient id="SVGID_18_" gradientUnits="userSpaceOnUse" x1="912.6844" y1="6.8528" x2="912.6844" y2="-2.3031" gradientTransform="matrix(0.909 -0.4167 0.4167 0.909 -530.0447 498.1794)">
			<stop  offset="0" style="stop-color:#F2F2F2"/>
			<stop  offset="1" style="stop-color:#D9D9D9"/>
		</linearGradient>
		<path fill="url(#SVGID_18_)" d="M300.058,120.18l-0.073,0.033c0.033,0.072,0.068,0.143,0.104,0.213
			c0.011,0.021,0.023,0.042,0.035,0.063c0.026,0.048,0.052,0.096,0.079,0.143c0.014,0.024,0.029,0.047,0.044,0.07
			c0.026,0.043,0.052,0.086,0.08,0.127c0.016,0.024,0.033,0.047,0.049,0.07c0.028,0.04,0.055,0.081,0.083,0.12
			c0.017,0.023,0.034,0.044,0.051,0.066c0.029,0.039,0.059,0.078,0.089,0.115c0.017,0.021,0.035,0.041,0.053,0.062
			c0.032,0.037,0.063,0.075,0.096,0.111c0.018,0.019,0.036,0.038,0.054,0.057c0.034,0.036,0.068,0.073,0.102,0.108
			c0.018,0.018,0.037,0.035,0.055,0.053c0.036,0.035,0.072,0.07,0.109,0.103c0.018,0.016,0.037,0.032,0.055,0.048
			c0.038,0.034,0.076,0.067,0.115,0.099c0.018,0.015,0.037,0.029,0.055,0.044c0.04,0.032,0.08,0.064,0.121,0.094
			c0.018,0.014,0.037,0.026,0.055,0.039c0.042,0.03,0.084,0.061,0.127,0.089c0.019,0.012,0.038,0.024,0.056,0.036
			c0.044,0.028,0.088,0.057,0.132,0.083c0.019,0.011,0.038,0.022,0.057,0.033c0.045,0.026,0.09,0.052,0.136,0.077
			c0.019,0.01,0.039,0.02,0.059,0.03c0.046,0.024,0.093,0.048,0.14,0.07c0.02,0.01,0.04,0.018,0.061,0.028
			c0.047,0.022,0.094,0.043,0.142,0.063c0.021,0.009,0.042,0.017,0.063,0.025c0.02,0.008,0.039,0.015,0.059,0.023l-0.001-0.003
			c-1.033-0.426-1.914-1.227-2.417-2.323l0.558-0.256c-0.011-0.022-0.022-0.045-0.032-0.068l-0.067,0.031L300.058,120.18z"/>
		
			<linearGradient id="SVGID_19_" gradientUnits="userSpaceOnUse" x1="-5601.7744" y1="6.8528" x2="-5601.7744" y2="2.2748" gradientTransform="matrix(-0.909 0.4167 0.4167 0.909 -4792.6572 2452.0723)">
			<stop  offset="0" style="stop-color:#F2F2F2"/>
			<stop  offset="1" style="stop-color:#CCCCCC"/>
		</linearGradient>
		<path fill="url(#SVGID_19_)" d="M300.058,120.18l-0.073,0.033c0.033,0.072,0.068,0.143,0.104,0.213
			c0.011,0.021,0.023,0.042,0.035,0.063c0.026,0.048,0.052,0.096,0.079,0.143c0.014,0.024,0.029,0.047,0.044,0.07
			c0.026,0.043,0.052,0.086,0.08,0.127c0.016,0.024,0.033,0.047,0.049,0.07c0.028,0.04,0.055,0.081,0.083,0.12
			c0.017,0.023,0.034,0.044,0.051,0.066c0.029,0.039,0.059,0.078,0.089,0.115c0.017,0.021,0.035,0.041,0.053,0.062
			c0.032,0.037,0.063,0.075,0.096,0.111c0.018,0.019,0.036,0.038,0.054,0.057c0.034,0.036,0.068,0.073,0.102,0.108
			c0.018,0.018,0.037,0.035,0.055,0.053c0.036,0.035,0.072,0.07,0.109,0.103c0.018,0.016,0.037,0.032,0.055,0.048
			c0.038,0.034,0.076,0.067,0.115,0.099c0.018,0.015,0.037,0.029,0.055,0.044c0.04,0.032,0.08,0.064,0.121,0.094
			c0.018,0.014,0.037,0.026,0.055,0.039c0.042,0.03,0.084,0.061,0.127,0.089c0.019,0.012,0.038,0.024,0.056,0.036
			c0.044,0.028,0.088,0.057,0.132,0.083c0.019,0.011,0.038,0.022,0.057,0.033c0.045,0.026,0.09,0.052,0.136,0.077
			c0.019,0.01,0.039,0.02,0.059,0.03c0.046,0.024,0.093,0.048,0.14,0.07c0.02,0.01,0.04,0.018,0.061,0.028
			c0.047,0.022,0.094,0.043,0.142,0.063c0.021,0.009,0.042,0.017,0.063,0.025c0.02,0.008,0.039,0.015,0.059,0.023l-0.001-0.003
			c-1.033-0.426-1.914-1.227-2.417-2.323l0.558-0.256c-0.011-0.022-0.022-0.045-0.032-0.068l-0.067,0.031L300.058,120.18z"/>
		<path opacity="0.6" fill="#FFFFFF" d="M300.058,120.18l-0.073,0.033c0.033,0.072,0.068,0.143,0.104,0.213
			c0.011,0.021,0.023,0.042,0.035,0.063c0.026,0.048,0.052,0.096,0.079,0.143c0.014,0.024,0.029,0.047,0.044,0.07
			c0.026,0.043,0.052,0.086,0.08,0.127c0.016,0.024,0.033,0.047,0.049,0.07c0.028,0.04,0.055,0.081,0.083,0.12
			c0.017,0.023,0.034,0.044,0.051,0.066c0.029,0.039,0.059,0.078,0.089,0.115c0.017,0.021,0.035,0.041,0.053,0.062
			c0.032,0.037,0.063,0.075,0.096,0.111c0.018,0.019,0.036,0.038,0.054,0.057c0.034,0.036,0.068,0.073,0.102,0.108
			c0.018,0.018,0.037,0.035,0.055,0.053c0.036,0.035,0.072,0.07,0.109,0.103c0.018,0.016,0.037,0.032,0.055,0.048
			c0.038,0.034,0.076,0.067,0.115,0.099c0.018,0.015,0.037,0.029,0.055,0.044c0.04,0.032,0.08,0.064,0.121,0.094
			c0.018,0.014,0.037,0.026,0.055,0.039c0.042,0.03,0.084,0.061,0.127,0.089c0.019,0.012,0.038,0.024,0.056,0.036
			c0.044,0.028,0.088,0.057,0.132,0.083c0.019,0.011,0.038,0.022,0.057,0.033c0.045,0.026,0.09,0.052,0.136,0.077
			c0.019,0.01,0.039,0.02,0.059,0.03c0.046,0.024,0.093,0.048,0.14,0.07c0.02,0.01,0.04,0.018,0.061,0.028
			c0.047,0.022,0.094,0.043,0.142,0.063c0.021,0.009,0.042,0.017,0.063,0.025c0.02,0.008,0.039,0.015,0.059,0.023l-0.001-0.003
			c-1.033-0.426-1.914-1.227-2.417-2.323l0.558-0.256c-0.011-0.022-0.022-0.045-0.032-0.068l-0.067,0.031L300.058,120.18z"/>
		
			<linearGradient id="SVGID_20_" gradientUnits="userSpaceOnUse" x1="915.9844" y1="6.8528" x2="915.9844" y2="-2.3031" gradientTransform="matrix(0.909 -0.4167 0.4167 0.909 -530.0447 498.1794)">
			<stop  offset="0" style="stop-color:#F2F2F2"/>
			<stop  offset="1" style="stop-color:#D9D9D9"/>
		</linearGradient>
		<path fill="url(#SVGID_20_)" d="M302.427,114.733c-1.953,0.895-2.811,3.204-1.915,5.157c0.01,0.023,0.021,0.045,0.032,0.068
			l0.067-0.031c-0.895-1.953-0.038-4.262,1.915-5.157c0.061-0.028,0.121-0.054,0.182-0.078c0.021-0.008,0.043-0.016,0.064-0.024
			c0.04-0.015,0.08-0.031,0.12-0.044c0.026-0.009,0.053-0.017,0.08-0.025c0.035-0.011,0.07-0.023,0.106-0.033
			c0.029-0.008,0.059-0.015,0.088-0.023c0.033-0.009,0.065-0.018,0.098-0.025c0.032-0.007,0.063-0.013,0.095-0.02
			c0.031-0.006,0.061-0.013,0.092-0.019c0.033-0.006,0.067-0.011,0.1-0.016c0.029-0.005,0.058-0.01,0.087-0.013
			c0.035-0.005,0.069-0.008,0.104-0.011c0.028-0.003,0.056-0.006,0.084-0.009c0.036-0.003,0.072-0.005,0.107-0.007
			c0.027-0.001,0.053-0.003,0.08-0.004c0.037-0.001,0.074-0.001,0.111-0.001c0.025,0,0.051-0.001,0.076,0
			c0.038,0.001,0.075,0.002,0.113,0.004c0.024,0.001,0.049,0.002,0.073,0.003c0.038,0.002,0.076,0.006,0.115,0.01
			c0.023,0.002,0.047,0.004,0.07,0.006c0.039,0.004,0.077,0.01,0.115,0.015c0.023,0.003,0.045,0.006,0.068,0.01
			c0.039,0.006,0.077,0.013,0.116,0.021c0.022,0.004,0.044,0.008,0.066,0.013c0.039,0.008,0.077,0.017,0.115,0.026
			c0.022,0.005,0.043,0.01,0.065,0.016c0.038,0.01,0.076,0.021,0.114,0.032c0.021,0.006,0.042,0.012,0.064,0.019
			c0.038,0.012,0.075,0.024,0.112,0.037c0.015,0.005,0.031,0.01,0.046,0.015C304.507,114.276,303.421,114.277,302.427,114.733z"/>
		<path opacity="0.1" d="M302.427,114.733c-1.953,0.895-2.811,3.204-1.915,5.157c0.01,0.023,0.021,0.045,0.032,0.068l0.067-0.031
			c-0.895-1.953-0.038-4.262,1.915-5.157c0.061-0.028,0.121-0.054,0.182-0.078c0.021-0.008,0.043-0.016,0.064-0.024
			c0.04-0.015,0.08-0.031,0.12-0.044c0.026-0.009,0.053-0.017,0.08-0.025c0.035-0.011,0.07-0.023,0.106-0.033
			c0.029-0.008,0.059-0.015,0.088-0.023c0.033-0.009,0.065-0.018,0.098-0.025c0.032-0.007,0.063-0.013,0.095-0.02
			c0.031-0.006,0.061-0.013,0.092-0.019c0.033-0.006,0.067-0.011,0.1-0.016c0.029-0.005,0.058-0.01,0.087-0.013
			c0.035-0.005,0.069-0.008,0.104-0.011c0.028-0.003,0.056-0.006,0.084-0.009c0.036-0.003,0.072-0.005,0.107-0.007
			c0.027-0.001,0.053-0.003,0.08-0.004c0.037-0.001,0.074-0.001,0.111-0.001c0.025,0,0.051-0.001,0.076,0
			c0.038,0.001,0.075,0.002,0.113,0.004c0.024,0.001,0.049,0.002,0.073,0.003c0.038,0.002,0.076,0.006,0.115,0.01
			c0.023,0.002,0.047,0.004,0.07,0.006c0.039,0.004,0.077,0.01,0.115,0.015c0.023,0.003,0.045,0.006,0.068,0.01
			c0.039,0.006,0.077,0.013,0.116,0.021c0.022,0.004,0.044,0.008,0.066,0.013c0.039,0.008,0.077,0.017,0.115,0.026
			c0.022,0.005,0.043,0.01,0.065,0.016c0.038,0.01,0.076,0.021,0.114,0.032c0.021,0.006,0.042,0.012,0.064,0.019
			c0.038,0.012,0.075,0.024,0.112,0.037c0.015,0.005,0.031,0.01,0.046,0.015C304.507,114.276,303.421,114.277,302.427,114.733z"/>
		<path opacity="0.5" fill="#FFFFFF" d="M306.283,121.662c-0.008-0.003-0.016-0.005-0.024-0.008
			c0.007,0.003,0.015,0.006,0.022,0.009C306.281,121.663,306.282,121.662,306.283,121.662z"/>
		
			<linearGradient id="SVGID_21_" gradientUnits="userSpaceOnUse" x1="916.8809" y1="6.8528" x2="916.8809" y2="-2.3031" gradientTransform="matrix(0.909 -0.4167 0.4167 0.909 -530.0447 498.1794)">
			<stop  offset="0" style="stop-color:#F2F2F2"/>
			<stop  offset="1" style="stop-color:#D9D9D9"/>
		</linearGradient>
		<path fill="url(#SVGID_21_)" d="M305.873,121.881c0.142-0.065,0.278-0.139,0.408-0.218c-0.007-0.003-0.014-0.006-0.022-0.009
			l-0.002-0.001c-0.029-0.01-0.058-0.018-0.087-0.025c-0.128,0.078-0.262,0.15-0.401,0.214l0.032,0.07
			C305.824,121.902,305.849,121.892,305.873,121.881z"/>
		<path opacity="0.5" fill="#FFFFFF" d="M305.873,121.881c0.142-0.065,0.278-0.139,0.408-0.218
			c-0.007-0.003-0.014-0.006-0.022-0.009l-0.002-0.001c-0.029-0.01-0.058-0.018-0.087-0.025c-0.128,0.078-0.262,0.15-0.401,0.214
			l0.032,0.07C305.824,121.902,305.849,121.892,305.873,121.881z"/>
		
			<linearGradient id="SVGID_22_" gradientUnits="userSpaceOnUse" x1="916.373" y1="6.8528" x2="916.373" y2="-2.3031" gradientTransform="matrix(0.909 -0.4167 0.4167 0.909 -530.0447 498.1794)">
			<stop  offset="0" style="stop-color:#F2F2F2"/>
			<stop  offset="1" style="stop-color:#D9D9D9"/>
		</linearGradient>
		<path fill="url(#SVGID_22_)" d="M305.8,121.912l-0.032-0.07c-0.06,0.028-0.121,0.054-0.182,0.078
			c-0.021,0.008-0.042,0.016-0.064,0.024c-0.04,0.015-0.08,0.031-0.12,0.045c-0.026,0.009-0.052,0.016-0.078,0.025
			c0,0,0.02,0.013,0.057,0.053C305.522,122.023,305.662,121.972,305.8,121.912z"/>
		
			<linearGradient id="SVGID_23_" gradientUnits="userSpaceOnUse" x1="-5605.4629" y1="6.8528" x2="-5605.4629" y2="2.2748" gradientTransform="matrix(-0.909 0.4167 0.4167 0.909 -4792.6572 2452.0723)">
			<stop  offset="0" style="stop-color:#F2F2F2"/>
			<stop  offset="1" style="stop-color:#CCCCCC"/>
		</linearGradient>
		<path fill="url(#SVGID_23_)" d="M305.8,121.912l-0.032-0.07c-0.06,0.028-0.121,0.054-0.182,0.078
			c-0.021,0.008-0.042,0.016-0.064,0.024c-0.04,0.015-0.08,0.031-0.12,0.045c-0.026,0.009-0.052,0.016-0.078,0.025
			c0,0,0.02,0.013,0.057,0.053C305.522,122.023,305.662,121.972,305.8,121.912z"/>
		<path opacity="0.5" fill="#FFFFFF" d="M305.8,121.912l-0.032-0.07c-0.06,0.028-0.121,0.054-0.182,0.078
			c-0.021,0.008-0.042,0.016-0.064,0.024c-0.04,0.015-0.08,0.031-0.12,0.045c-0.026,0.009-0.052,0.016-0.078,0.025
			c0,0,0.02,0.013,0.057,0.053C305.522,122.023,305.662,121.972,305.8,121.912z"/>
		<path opacity="0.1" d="M306.695,122.004L306.695,122.004c0.015,0.025,0.029,0.05,0.042,0.077
			C306.724,122.054,306.71,122.028,306.695,122.004z"/>
		
			<linearGradient id="SVGID_24_" gradientUnits="userSpaceOnUse" x1="917.0009" y1="6.8528" x2="917.0009" y2="-2.3031" gradientTransform="matrix(0.909 -0.4167 0.4167 0.909 -530.0447 498.1794)">
			<stop  offset="0" style="stop-color:#F2F2F2"/>
			<stop  offset="1" style="stop-color:#D9D9D9"/>
		</linearGradient>
		<path fill="url(#SVGID_24_)" d="M306.055,122.467c0.242-0.111,0.469-0.241,0.682-0.387c-0.013-0.027-0.027-0.052-0.042-0.076
			c-0.209,0.148-0.433,0.28-0.671,0.394L306.055,122.467z"/>
		<path opacity="0.1" d="M306.055,122.467c0.242-0.111,0.469-0.241,0.682-0.387c-0.013-0.027-0.027-0.052-0.042-0.076
			c-0.209,0.148-0.433,0.28-0.671,0.394L306.055,122.467z"/>
		
			<linearGradient id="SVGID_25_" gradientUnits="userSpaceOnUse" x1="916.4235" y1="6.8528" x2="916.4235" y2="-2.3031" gradientTransform="matrix(0.909 -0.4167 0.4167 0.909 -530.0447 498.1794)">
			<stop  offset="0" style="stop-color:#F2F2F2"/>
			<stop  offset="1" style="stop-color:#D9D9D9"/>
		</linearGradient>
		<path fill="url(#SVGID_25_)" d="M305.955,122.431c-0.091,0.042-0.183,0.08-0.276,0.116c0.01,0.02,0.02,0.04,0.029,0.061
			c0.02-0.007,0.04-0.014,0.059-0.022c0.023-0.009,0.045-0.016,0.068-0.025c0.073-0.029,0.146-0.06,0.218-0.093l-0.032-0.07
			C306,122.408,305.978,122.42,305.955,122.431z"/>
		
			<linearGradient id="SVGID_26_" gradientUnits="userSpaceOnUse" x1="-5605.5132" y1="6.8528" x2="-5605.5132" y2="2.2748" gradientTransform="matrix(-0.909 0.4167 0.4167 0.909 -4792.6572 2452.0723)">
			<stop  offset="0" style="stop-color:#F2F2F2"/>
			<stop  offset="1" style="stop-color:#CCCCCC"/>
		</linearGradient>
		<path fill="url(#SVGID_26_)" d="M305.955,122.431c-0.091,0.042-0.183,0.08-0.276,0.116c0.01,0.02,0.02,0.04,0.029,0.061
			c0.02-0.007,0.04-0.014,0.059-0.022c0.023-0.009,0.045-0.016,0.068-0.025c0.073-0.029,0.146-0.06,0.218-0.093l-0.032-0.07
			C306,122.408,305.978,122.42,305.955,122.431z"/>
		<path opacity="0.1" d="M305.955,122.431c-0.091,0.042-0.183,0.08-0.276,0.116c0.01,0.02,0.02,0.04,0.029,0.061
			c0.02-0.007,0.04-0.014,0.059-0.022c0.023-0.009,0.045-0.016,0.068-0.025c0.073-0.029,0.146-0.06,0.218-0.093l-0.032-0.07
			C306,122.408,305.978,122.42,305.955,122.431z"/>
		
			<linearGradient id="SVGID_27_" gradientUnits="userSpaceOnUse" x1="919.5732" y1="6.8528" x2="919.5732" y2="-2.3031" gradientTransform="matrix(0.909 -0.4167 0.4167 0.909 -530.0447 498.1794)">
			<stop  offset="0" style="stop-color:#F2F2F2"/>
			<stop  offset="1" style="stop-color:#D9D9D9"/>
		</linearGradient>
		<path fill="url(#SVGID_27_)" d="M307.788,116.724c-0.456-0.995-1.279-1.705-2.235-2.045c0.015,0.006,0.029,0.012,0.044,0.018
			c0.036,0.015,0.073,0.029,0.109,0.045c0.02,0.009,0.04,0.018,0.061,0.028c0.036,0.016,0.071,0.033,0.107,0.05
			c0.02,0.01,0.04,0.02,0.06,0.031c0.035,0.018,0.07,0.036,0.104,0.055c0.02,0.011,0.039,0.023,0.059,0.034
			c0.034,0.019,0.067,0.039,0.101,0.06c0.02,0.012,0.039,0.025,0.058,0.038c0.032,0.021,0.065,0.042,0.097,0.063
			c0.02,0.014,0.039,0.028,0.058,0.042c0.031,0.022,0.062,0.044,0.092,0.067c0.02,0.015,0.039,0.031,0.058,0.046
			c0.029,0.023,0.059,0.046,0.087,0.07c0.02,0.017,0.039,0.034,0.058,0.051c0.027,0.024,0.055,0.048,0.082,0.072
			c0.02,0.018,0.039,0.037,0.058,0.056c0.026,0.025,0.051,0.049,0.076,0.074c0.02,0.02,0.039,0.041,0.058,0.062
			c0.024,0.025,0.048,0.05,0.071,0.076c0.02,0.022,0.039,0.045,0.058,0.068c0.022,0.025,0.044,0.05,0.065,0.076
			c0.02,0.025,0.039,0.05,0.058,0.075c0.02,0.025,0.039,0.05,0.058,0.076c0.02,0.027,0.039,0.056,0.058,0.084
			c0.017,0.025,0.035,0.049,0.051,0.075c0.02,0.031,0.039,0.063,0.058,0.094c0.015,0.024,0.03,0.047,0.044,0.071
			c0.021,0.036,0.041,0.074,0.062,0.111c0.011,0.02,0.023,0.04,0.033,0.06c0.03,0.058,0.059,0.118,0.087,0.178
			c0.598,1.304,0.413,2.767-0.357,3.861c0.04,0.005,0.08,0.011,0.12,0.017C308.203,119.471,308.382,118.02,307.788,116.724z"/>
		<path opacity="0.5" fill="#FFFFFF" d="M307.788,116.724c-0.456-0.995-1.279-1.705-2.235-2.045
			c0.015,0.006,0.029,0.012,0.044,0.018c0.036,0.015,0.073,0.029,0.109,0.045c0.02,0.009,0.04,0.018,0.061,0.028
			c0.036,0.016,0.071,0.033,0.107,0.05c0.02,0.01,0.04,0.02,0.06,0.031c0.035,0.018,0.07,0.036,0.104,0.055
			c0.02,0.011,0.039,0.023,0.059,0.034c0.034,0.019,0.067,0.039,0.101,0.06c0.02,0.012,0.039,0.025,0.058,0.038
			c0.032,0.021,0.065,0.042,0.097,0.063c0.02,0.014,0.039,0.028,0.058,0.042c0.031,0.022,0.062,0.044,0.092,0.067
			c0.02,0.015,0.039,0.031,0.058,0.046c0.029,0.023,0.059,0.046,0.087,0.07c0.02,0.017,0.039,0.034,0.058,0.051
			c0.027,0.024,0.055,0.048,0.082,0.072c0.02,0.018,0.039,0.037,0.058,0.056c0.026,0.025,0.051,0.049,0.076,0.074
			c0.02,0.02,0.039,0.041,0.058,0.062c0.024,0.025,0.048,0.05,0.071,0.076c0.02,0.022,0.039,0.045,0.058,0.068
			c0.022,0.025,0.044,0.05,0.065,0.076c0.02,0.025,0.039,0.05,0.058,0.075c0.02,0.025,0.039,0.05,0.058,0.076
			c0.02,0.027,0.039,0.056,0.058,0.084c0.017,0.025,0.035,0.049,0.051,0.075c0.02,0.031,0.039,0.063,0.058,0.094
			c0.015,0.024,0.03,0.047,0.044,0.071c0.021,0.036,0.041,0.074,0.062,0.111c0.011,0.02,0.023,0.04,0.033,0.06
			c0.03,0.058,0.059,0.118,0.087,0.178c0.598,1.304,0.413,2.767-0.357,3.861c0.04,0.005,0.08,0.011,0.12,0.017
			C308.203,119.471,308.382,118.02,307.788,116.724z"/>
		<path opacity="0.1" d="M305.691,113.996c0.003,0.001,0.007,0.003,0.01,0.004c0.002,0.001,0.004,0.001,0.006,0.002
			C305.702,114.001,305.697,113.998,305.691,113.996z"/>
		
			<linearGradient id="SVGID_28_" gradientUnits="userSpaceOnUse" x1="920.1275" y1="6.8528" x2="920.1275" y2="-2.3031" gradientTransform="matrix(0.909 -0.4167 0.4167 0.909 -530.0447 498.1794)">
			<stop  offset="0" style="stop-color:#F2F2F2"/>
			<stop  offset="1" style="stop-color:#D9D9D9"/>
		</linearGradient>
		<path fill="url(#SVGID_28_)" d="M308.204,116.185c-0.011-0.022-0.024-0.042-0.035-0.064c-0.026-0.048-0.051-0.096-0.079-0.142
			c-0.014-0.025-0.03-0.048-0.045-0.072c-0.026-0.042-0.051-0.084-0.078-0.126c-0.016-0.025-0.034-0.048-0.05-0.072
			c-0.027-0.039-0.054-0.079-0.082-0.117c-0.018-0.024-0.036-0.047-0.054-0.07c-0.029-0.037-0.057-0.075-0.086-0.111
			c-0.018-0.022-0.037-0.044-0.056-0.066c-0.031-0.036-0.061-0.072-0.092-0.107c-0.019-0.021-0.038-0.04-0.057-0.061
			c-0.033-0.035-0.065-0.07-0.099-0.104c-0.019-0.019-0.039-0.037-0.058-0.056c-0.035-0.034-0.069-0.067-0.105-0.1
			c-0.019-0.018-0.04-0.034-0.059-0.052c-0.037-0.032-0.073-0.064-0.111-0.095c-0.02-0.016-0.04-0.032-0.06-0.047
			c-0.039-0.031-0.077-0.061-0.116-0.09c-0.02-0.015-0.041-0.029-0.061-0.043c-0.04-0.029-0.081-0.058-0.122-0.085
			c-0.02-0.014-0.041-0.026-0.062-0.04c-0.042-0.027-0.084-0.054-0.127-0.08c-0.021-0.012-0.042-0.024-0.062-0.036
			c-0.043-0.025-0.087-0.05-0.131-0.074c-0.021-0.011-0.042-0.022-0.063-0.033c-0.045-0.023-0.09-0.046-0.135-0.068
			c-0.021-0.01-0.043-0.02-0.064-0.029c-0.046-0.021-0.092-0.042-0.138-0.061c-0.022-0.009-0.044-0.018-0.066-0.026
			c-0.027-0.011-0.054-0.021-0.081-0.031c-0.008-0.003-0.016-0.005-0.024-0.008c1.055,0.42,1.956,1.23,2.467,2.344
			c0.663,1.447,0.508,3.06-0.272,4.32c0.034,0.011,0.068,0.022,0.101,0.034c0.778-1.259,0.932-2.871,0.269-4.317
			C308.276,116.326,308.241,116.255,308.204,116.185z"/>
		<path opacity="0.1" d="M308.204,116.185c-0.011-0.022-0.024-0.042-0.035-0.064c-0.026-0.048-0.051-0.096-0.079-0.142
			c-0.014-0.025-0.03-0.048-0.045-0.072c-0.026-0.042-0.051-0.084-0.078-0.126c-0.016-0.025-0.034-0.048-0.05-0.072
			c-0.027-0.039-0.054-0.079-0.082-0.117c-0.018-0.024-0.036-0.047-0.054-0.07c-0.029-0.037-0.057-0.075-0.086-0.111
			c-0.018-0.022-0.037-0.044-0.056-0.066c-0.031-0.036-0.061-0.072-0.092-0.107c-0.019-0.021-0.038-0.04-0.057-0.061
			c-0.033-0.035-0.065-0.07-0.099-0.104c-0.019-0.019-0.039-0.037-0.058-0.056c-0.035-0.034-0.069-0.067-0.105-0.1
			c-0.019-0.018-0.04-0.034-0.059-0.052c-0.037-0.032-0.073-0.064-0.111-0.095c-0.02-0.016-0.04-0.032-0.06-0.047
			c-0.039-0.031-0.077-0.061-0.116-0.09c-0.02-0.015-0.041-0.029-0.061-0.043c-0.04-0.029-0.081-0.058-0.122-0.085
			c-0.02-0.014-0.041-0.026-0.062-0.04c-0.042-0.027-0.084-0.054-0.127-0.08c-0.021-0.012-0.042-0.024-0.062-0.036
			c-0.043-0.025-0.087-0.05-0.131-0.074c-0.021-0.011-0.042-0.022-0.063-0.033c-0.045-0.023-0.09-0.046-0.135-0.068
			c-0.021-0.01-0.043-0.02-0.064-0.029c-0.046-0.021-0.092-0.042-0.138-0.061c-0.022-0.009-0.044-0.018-0.066-0.026
			c-0.027-0.011-0.054-0.021-0.081-0.031c-0.008-0.003-0.016-0.005-0.024-0.008c1.055,0.42,1.956,1.23,2.467,2.344
			c0.663,1.447,0.508,3.06-0.272,4.32c0.034,0.011,0.068,0.022,0.101,0.034c0.778-1.259,0.932-2.871,0.269-4.317
			C308.276,116.326,308.241,116.255,308.204,116.185z"/>
		
			<linearGradient id="SVGID_29_" gradientUnits="userSpaceOnUse" x1="919.8327" y1="6.8528" x2="919.8327" y2="-2.3031" gradientTransform="matrix(0.909 -0.4167 0.4167 0.909 -530.0447 498.1794)">
			<stop  offset="0" style="stop-color:#F2F2F2"/>
			<stop  offset="1" style="stop-color:#D9D9D9"/>
		</linearGradient>
		<path fill="url(#SVGID_29_)" d="M305.743,114.016c-0.012-0.004-0.023-0.009-0.035-0.013c-0.002-0.001-0.004-0.001-0.006-0.002
			c0.006,0.002,0.011,0.005,0.017,0.007C305.726,114.01,305.734,114.013,305.743,114.016z"/>
		<path opacity="0.1" d="M305.743,114.016c-0.012-0.004-0.023-0.009-0.035-0.013c-0.002-0.001-0.004-0.001-0.006-0.002
			c0.006,0.002,0.011,0.005,0.017,0.007C305.726,114.01,305.734,114.013,305.743,114.016z"/>
		
			<linearGradient id="SVGID_30_" gradientUnits="userSpaceOnUse" x1="919.848" y1="6.8528" x2="919.848" y2="-2.3031" gradientTransform="matrix(0.909 -0.4167 0.4167 0.909 -530.0447 498.1794)">
			<stop  offset="0" style="stop-color:#F2F2F2"/>
			<stop  offset="1" style="stop-color:#D9D9D9"/>
		</linearGradient>
		<path fill="url(#SVGID_30_)" d="M305.718,114.007c0.008,0.003,0.016,0.007,0.025,0.01c0.008,0.003,0.016,0.005,0.024,0.008
			c-0.008-0.003-0.016-0.006-0.024-0.009S305.726,114.01,305.718,114.007z"/>
		<path opacity="0.5" fill="#FFFFFF" d="M305.718,114.007c0.008,0.003,0.016,0.007,0.025,0.01c0.008,0.003,0.016,0.005,0.024,0.008
			c-0.008-0.003-0.016-0.006-0.024-0.009S305.726,114.01,305.718,114.007z"/>
		<path opacity="0.1" d="M305.718,114.007c0.008,0.003,0.016,0.007,0.025,0.01c0.008,0.003,0.016,0.005,0.024,0.008
			c-0.008-0.003-0.016-0.006-0.024-0.009S305.726,114.01,305.718,114.007z"/>
		<polygon fill="#FFCB05" points="302.504,122.577 302.504,122.578 302.514,122.582 		"/>
		<path fill="#FFCB05" d="M303.377,122.118c-0.006-0.001-0.012-0.002-0.018-0.004C303.365,122.116,303.371,122.118,303.377,122.118
			L303.377,122.118z"/>
		<path fill="#FFCB05" d="M302.52,122.584c0.022,0.009,0.045,0.017,0.067,0.025c-0.011-0.004-0.022-0.009-0.034-0.013
			S302.531,122.588,302.52,122.584z"/>
		<path fill="#FFCB05" d="M302.531,122.587c-0.009-0.003-0.018-0.007-0.028-0.011l0,0.001c0.004,0.001,0.007,0.003,0.01,0.004
			C302.52,122.584,302.525,122.585,302.531,122.587z"/>
		<path fill="#FFCB05" d="M302.593,122.611c0.024,0.009,0.048,0.016,0.071,0.025c-0.029-0.01-0.059-0.021-0.088-0.031
			C302.583,122.607,302.588,122.609,302.593,122.611z"/>
		<path fill="#FFCB05" d="M302.603,122.615c-0.003-0.001-0.007-0.003-0.01-0.004c-0.002-0.001-0.004-0.001-0.006-0.002
			C302.593,122.611,302.598,122.613,302.603,122.615z"/>
		<path fill="#FFCB05" d="M302.554,122.596c0.011,0.004,0.022,0.009,0.034,0.013c0.002,0.001,0.004,0.001,0.006,0.002
			c-0.005-0.002-0.011-0.005-0.016-0.007C302.569,122.602,302.561,122.599,302.554,122.596z"/>
		<path fill="#FFCB05" d="M302.531,122.587c0.008,0.003,0.016,0.005,0.023,0.008c-0.018-0.007-0.035-0.014-0.053-0.022l0.001,0.003
			C302.512,122.58,302.521,122.584,302.531,122.587z"/>
		<path fill="#FFCB05" d="M302.504,122.578c0.005,0.002,0.011,0.004,0.016,0.006c-0.002-0.001-0.004-0.002-0.006-0.002
			C302.511,122.58,302.507,122.579,302.504,122.578z"/>
		<path fill="#FFCB05" d="M302.531,122.587c-0.006-0.002-0.011-0.004-0.017-0.006c0.002,0.001,0.004,0.002,0.006,0.002
			c0.011,0.004,0.023,0.008,0.034,0.012C302.546,122.593,302.538,122.59,302.531,122.587z"/>
		<path fill="#FFCB05" d="M302.554,122.596c0.008,0.003,0.016,0.005,0.023,0.008c-0.008-0.003-0.015-0.006-0.023-0.009
			c-0.008-0.003-0.016-0.005-0.023-0.008C302.538,122.59,302.546,122.593,302.554,122.596z"/>
	</g>
	<path fill="#EB6479" d="M302.077,113.81c0-0.954,0.138-2.025,1.985-2.025c2.432,0,2.771,0.903,2.538,2.108
		C306.366,115.099,302.077,115.329,302.077,113.81z"/>
</g>
</svg>
