<?xml version="1.0" encoding="utf-8"?>
<!-- Generator: Adobe Illustrator 21.1.0, SVG Export Plug-In . SVG Version: 6.00 Build 0)  -->
<!DOCTYPE svg PUBLIC "-//W3C//DTD SVG 1.1//EN" "http://www.w3.org/Graphics/SVG/1.1/DTD/svg11.dtd">
<svg version="1.1" id="Layer_1" xmlns="http://www.w3.org/2000/svg" xmlns:xlink="http://www.w3.org/1999/xlink" x="0px" y="0px"
	 viewBox="0 0 286 286" style="enable-background:new 0 0 286 286;" xml:space="preserve">
<style type="text/css">
	.st0{clip-path:url(#SVGID_2_);fill:#4298B5;}
	.st1{clip-path:url(#SVGID_2_);}
	.st2{fill:#DB5C1E;}
	.st3{fill:#002B44;}
	.st4{fill:#003F5C;}
	.st5{fill:#EB6479;}
	.st6{fill:#223129;}
	.st7{fill:#FFFFFF;}
	.st8{fill:#D55A6E;}
	.st9{fill:#D8E2E7;}
	.st10{fill:#939598;}
	.st11{fill:#727D84;}
	.st12{fill:#4298B5;}
	.st13{fill:#E4D5B4;}
	.st14{fill:#CEBFA3;}
	.st15{fill:#EDE0C6;}
	.st16{fill:#3D302D;}
	.st17{fill:#D6C6A6;}
	.st18{fill:#C6B597;}
	.st19{fill:#826754;}
	.st20{fill:#91CEC4;}
	.st21{fill:#D3A98C;}
	.st22{fill:#AD886F;}
	.st23{fill:#896D59;}
	.st24{fill:#EA7442;}
	.st25{fill:#D15F36;}
	.st26{fill:#003E5A;}
	.st27{fill:#243129;}
	.st28{fill:#4077A2;}
	.st29{fill:#0F3644;}
	.st30{fill:#6C707A;}
	.st31{fill:url(#SVGID_3_);}
	.st32{fill:#8AACBD;}
	.st33{fill:#E6EBEE;}
	.st34{fill:#C3D4DD;}
	.st35{fill:#F37029;}
	.st36{fill:#004B6B;}
	.st37{fill:#282829;}
	.st38{fill:#BACAD3;}
	.st39{fill:#9EB3BE;}
	.st40{fill:#27688F;}
	.st41{fill:#005376;}
	.st42{fill:#2B75A2;}
	.st43{fill:#AFC6D2;}
	.st44{fill:url(#SVGID_4_);}
	.st45{fill:#E9E8D8;}
	.st46{fill:#818277;}
	.st47{fill:#63665D;}
	.st48{fill:#B4B39A;}
	.st49{fill:url(#SVGID_5_);}
	.st50{fill:url(#SVGID_6_);}
	.st51{fill:url(#SVGID_7_);}
	.st52{fill:url(#SVGID_8_);}
	.st53{fill:url(#SVGID_9_);}
	.st54{fill:url(#SVGID_10_);}
	.st55{fill:#FFC20E;}
	.st56{fill:#916600;}
	.st57{fill:#A7BDC9;}
	.st58{fill:#8E2833;}
	.st59{fill:#721B25;}
	.st60{fill:#00547A;}
	.st61{fill:#F1F2F2;}
	.st62{fill:#6F6598;}
	.st63{fill:#4B436A;}
	.st64{fill:#F27129;}
	.st65{fill:#A57406;}
	.st66{fill:url(#SVGID_11_);}
	.st67{fill:url(#SVGID_12_);}
	.st68{fill:url(#SVGID_13_);}
	.st69{fill:url(#SVGID_14_);}
	.st70{fill:url(#SVGID_15_);}
	.st71{fill:url(#SVGID_16_);}
	.st72{fill:url(#SVGID_17_);}
	.st73{fill:url(#SVGID_18_);}
	.st74{fill:url(#SVGID_19_);}
	.st75{fill:url(#SVGID_20_);}
	.st76{fill:url(#SVGID_21_);}
	.st77{fill:url(#SVGID_22_);}
	.st78{fill:url(#SVGID_23_);}
	.st79{fill:url(#SVGID_24_);}
	.st80{fill:url(#SVGID_25_);}
	.st81{fill:url(#SVGID_26_);}
	.st82{fill:url(#SVGID_27_);}
	.st83{fill:url(#SVGID_28_);}
	.st84{fill:url(#SVGID_29_);}
	.st85{fill:url(#SVGID_30_);}
	.st86{fill:url(#SVGID_31_);}
	.st87{fill:url(#SVGID_32_);}
	.st88{fill:url(#SVGID_33_);}
	.st89{fill:url(#SVGID_34_);}
	.st90{fill:url(#SVGID_35_);}
	.st91{fill:url(#SVGID_36_);}
	.st92{fill:url(#SVGID_37_);}
	.st93{fill:url(#SVGID_38_);}
	.st94{fill:url(#SVGID_39_);}
	.st95{fill:url(#SVGID_40_);}
	.st96{fill:url(#SVGID_41_);}
	.st97{fill:url(#SVGID_42_);}
	.st98{fill:url(#SVGID_43_);}
	.st99{fill:url(#SVGID_44_);}
	.st100{fill:url(#SVGID_45_);}
	.st101{fill:url(#SVGID_46_);}
	.st102{fill:#F9F1D7;}
	.st103{fill:#6E7980;stroke:#58595B;stroke-width:0.4225;stroke-linecap:round;stroke-linejoin:round;}
	.st104{fill:#DF9CB0;}
	.st105{fill:#C37A8C;}
	.st106{fill:#C29F60;}
	.st107{fill:#FFFFFF;stroke:#D0ECF4;stroke-width:0.4225;}
	.st108{fill:url(#SVGID_47_);}
	.st109{fill:url(#SVGID_48_);}
	.st110{fill:url(#SVGID_49_);stroke:#FFFFFF;stroke-width:2.1123;}
	.st111{fill:#9F2214;}
	.st112{fill:url(#SVGID_50_);stroke:#FFFFFF;stroke-width:2.1123;}
	.st113{fill:#4A7195;}
	.st114{fill:#C13D2E;}
	.st115{fill:#7989A3;stroke:#FFFFFF;stroke-width:2.1123;}
	.st116{fill:#FFCF01;}
	.st117{fill:url(#SVGID_51_);stroke:#FFFFFF;stroke-width:2.1123;}
	.st118{fill:url(#SVGID_52_);stroke:#FFFFFF;stroke-width:2.1123;}
	.st119{fill:url(#SVGID_53_);stroke:#FFFFFF;stroke-width:2.1123;}
	.st120{fill:#876041;}
	.st121{fill:#DAC895;stroke:#F7E8BA;stroke-width:0.4225;}
	.st122{fill:#4B545B;}
	.st123{fill:#3E6D93;}
	.st124{fill:#476F93;}
	.st125{fill:#CAB47E;}
	.st126{fill:#F7E8BA;}
	.st127{fill:#C2A171;}
	.st128{fill:#D0ECF4;}
	.st129{fill:#EFE4AC;}
	.st130{fill:#5980A2;}
	.st131{fill:#17738F;}
	.st132{fill:#B1D45E;}
	.st133{fill:#8CC540;stroke:#221F1F;stroke-width:0.2168;stroke-linejoin:round;stroke-miterlimit:10;}
	.st134{fill:#58595B;}
	.st135{fill:#797A7D;}
	.st136{fill:#BF86A8;}
	.st137{fill:#302B2C;}
	.st138{fill:#48484A;}
	.st139{fill:#72A087;}
	.st140{fill:#94B0BE;}
	.st141{fill:#09723B;}
	.st142{fill:#00A14B;}
	.st143{fill:#004766;}
	.st144{fill:#00354F;}
	.st145{fill:#005B80;}
	.st146{fill:#002F3E;}
	.st147{fill:#3F4450;}
	.st148{fill:#2A6A7F;}
	.st149{fill:url(#SVGID_54_);}
	.st150{fill:#2C3038;}
	.st151{fill:#CACFD1;}
	.st152{fill:#343943;}
	.st153{fill:#27667A;}
	.st154{fill:none;stroke:#243129;stroke-width:0.3823;stroke-miterlimit:10;}
	.st155{fill:#333333;}
	.st156{fill:#E5E8DD;}
	.st157{fill:#767877;}
	.st158{fill:#545554;}
	.st159{fill:#F8E1C7;}
	.st160{fill:#5A5048;}
	.st161{fill:#604373;}
	.st162{fill:none;}
	.st163{fill:#9DB9C8;}
	.st164{fill:#235F83;}
	.st165{fill:#CF473A;}
	.st166{fill:#B4A680;}
	.st167{fill:url(#SVGID_55_);}
	.st168{fill:url(#SVGID_56_);}
	.st169{fill:url(#SVGID_57_);}
	.st170{fill:url(#SVGID_58_);}
	.st171{fill:url(#SVGID_59_);}
	.st172{fill:url(#SVGID_60_);}
	.st173{fill:url(#SVGID_61_);}
	.st174{fill:url(#SVGID_62_);}
	.st175{fill:url(#SVGID_63_);}
	.st176{fill:url(#SVGID_64_);}
	.st177{fill:url(#SVGID_65_);}
	.st178{fill:url(#SVGID_66_);}
	.st179{fill:url(#SVGID_67_);}
	.st180{fill:url(#SVGID_68_);}
	.st181{fill:url(#SVGID_69_);}
	.st182{fill:url(#SVGID_70_);}
	.st183{fill:url(#SVGID_71_);}
	.st184{fill:url(#SVGID_72_);}
	.st185{fill:url(#SVGID_73_);}
	.st186{fill:url(#SVGID_74_);}
	.st187{fill:url(#SVGID_75_);}
	.st188{fill:url(#SVGID_76_);}
	.st189{fill:url(#SVGID_77_);}
	.st190{fill:url(#SVGID_78_);}
	.st191{fill:url(#SVGID_79_);}
	.st192{fill:url(#SVGID_80_);}
	.st193{fill:url(#SVGID_81_);}
	.st194{fill:url(#SVGID_82_);}
	.st195{fill:url(#SVGID_83_);}
	.st196{fill:url(#SVGID_84_);}
	.st197{fill:url(#SVGID_85_);}
	.st198{fill:url(#SVGID_86_);}
	.st199{fill:url(#SVGID_87_);}
	.st200{fill:url(#SVGID_88_);}
	.st201{fill:url(#SVGID_89_);}
	.st202{fill:url(#SVGID_90_);}
	.st203{fill:url(#SVGID_91_);}
	.st204{fill:url(#SVGID_92_);}
	.st205{fill:url(#SVGID_93_);}
	.st206{fill:url(#SVGID_94_);}
	.st207{fill:url(#SVGID_95_);}
	.st208{fill:url(#SVGID_96_);}
	.st209{fill:url(#SVGID_97_);}
	.st210{fill:url(#SVGID_98_);}
	.st211{fill:url(#SVGID_99_);}
	.st212{fill:url(#SVGID_100_);}
	.st213{fill:url(#SVGID_101_);}
	.st214{fill:url(#SVGID_102_);}
	.st215{fill:url(#SVGID_103_);}
	.st216{fill:url(#SVGID_104_);}
	.st217{fill:url(#SVGID_105_);}
	.st218{fill:url(#SVGID_106_);}
	.st219{fill:url(#SVGID_107_);}
	.st220{fill:url(#SVGID_108_);}
	.st221{fill:url(#SVGID_109_);}
	.st222{fill:url(#SVGID_110_);}
	.st223{fill:url(#SVGID_111_);}
	.st224{fill:url(#SVGID_112_);}
	.st225{fill:url(#SVGID_113_);}
	.st226{fill:url(#SVGID_114_);}
	.st227{fill:url(#SVGID_115_);}
	.st228{fill:url(#SVGID_116_);}
	.st229{fill:url(#SVGID_117_);}
	.st230{fill:url(#SVGID_118_);}
	.st231{fill:url(#SVGID_119_);}
	.st232{fill:url(#SVGID_120_);}
	.st233{fill:url(#SVGID_121_);}
	.st234{fill:url(#SVGID_122_);}
	.st235{fill:#F7D9A8;}
	.st236{fill:#EE93B9;}
</style>
<circle class="st12" cx="143" cy="143" r="143"/>
<g>
	<path class="st7" d="M97.6,194.1h5c1.9,0,3.4,0.3,4.3,0.9c0.9,0.6,1.4,1.5,1.4,2.7c0,0.8-0.2,1.5-0.6,2.1s-1,0.9-1.6,1.1v0.1
		c0.9,0.2,1.5,0.6,1.9,1.2c0.4,0.5,0.6,1.3,0.6,2.1c0,1.3-0.5,2.3-1.5,3.1c-1,0.7-2.3,1.1-4,1.1h-5.6V194.1z M101.4,199.5h1.2
		c0.6,0,1-0.1,1.3-0.3s0.5-0.6,0.5-1c0-0.8-0.6-1.2-1.8-1.2h-1.1V199.5z M101.4,202.4v3h1.4c1.2,0,1.8-0.5,1.8-1.5
		c0-0.5-0.2-0.8-0.5-1.1s-0.8-0.4-1.4-0.4H101.4z"/>
	<path class="st7" d="M118.7,208.3l-0.5-1.4H118c-0.3,0.5-0.8,0.9-1.3,1.2c-0.6,0.3-1.2,0.4-2,0.4c-1.2,0-2.2-0.4-2.8-1.1
		c-0.7-0.7-1-1.7-1-3v-7.2h3.8v6c0,0.7,0.1,1.3,0.3,1.6s0.5,0.6,1,0.6c0.7,0,1.1-0.3,1.4-0.8c0.3-0.5,0.4-1.4,0.4-2.6v-4.8h3.8v11.1
		H118.7z"/>
	<path class="st7" d="M122.9,197.3h4l1.9,6.3c0.1,0.3,0.2,0.7,0.2,1.2h0.1c0.1-0.4,0.1-0.8,0.2-1.2l1.9-6.4h3.9l-4.4,11.8
		c-0.6,1.5-1.2,2.6-2.1,3.2c-0.8,0.6-1.9,0.9-3.2,0.9c-0.5,0-1-0.1-1.6-0.2v-3c0.3,0.1,0.7,0.1,1.2,0.1c0.3,0,0.6-0.1,0.9-0.2
		s0.5-0.3,0.7-0.6c0.2-0.2,0.4-0.6,0.6-1.2L122.9,197.3z"/>
	<path class="st7" d="M136.3,194.5c0-0.6,0.2-1,0.5-1.3c0.3-0.3,0.8-0.4,1.5-0.4c0.7,0,1.2,0.1,1.6,0.4c0.3,0.3,0.5,0.7,0.5,1.3
		c0,1.1-0.7,1.7-2,1.7C137,196.2,136.3,195.6,136.3,194.5z M140.3,208.3h-3.8v-11.1h3.8V208.3z"/>
	<path class="st7" d="M149.9,208.3v-6c0-0.7-0.1-1.3-0.3-1.7c-0.2-0.4-0.6-0.6-1-0.6c-0.6,0-1.1,0.3-1.4,0.8
		c-0.3,0.5-0.4,1.4-0.4,2.6v4.8h-3.8v-11.1h2.9l0.5,1.4h0.2c0.3-0.5,0.8-0.9,1.4-1.2s1.2-0.4,2-0.4c1.2,0,2.2,0.4,2.9,1.1
		c0.7,0.7,1,1.7,1,3v7.2H149.9z"/>
	<path class="st7" d="M166.8,197.3v1.8l-1.5,0.6c0.2,0.4,0.3,0.8,0.3,1.3c0,1.2-0.4,2.1-1.3,2.8c-0.8,0.7-2.1,1-3.7,1
		c-0.4,0-0.7,0-1-0.1c-0.1,0.2-0.1,0.3-0.1,0.5c0,0.2,0.2,0.3,0.5,0.4c0.3,0.1,0.7,0.2,1.2,0.2h1.8c2.5,0,3.7,1,3.7,3.1
		c0,1.3-0.6,2.4-1.7,3.1c-1.1,0.7-2.8,1.1-4.8,1.1c-1.6,0-2.8-0.3-3.6-0.8s-1.3-1.3-1.3-2.3c0-1.3,0.8-2.2,2.5-2.6
		c-0.3-0.1-0.6-0.4-0.9-0.7c-0.2-0.3-0.4-0.6-0.4-0.9c0-0.3,0.1-0.6,0.3-0.9c0.2-0.3,0.6-0.6,1.2-0.9c-0.6-0.3-1-0.7-1.4-1.2
		c-0.3-0.5-0.5-1.2-0.5-2c0-1.2,0.4-2.1,1.2-2.8s2-1,3.5-1c0.2,0,0.6,0,1,0.1c0.5,0,0.9,0.1,1.1,0.1H166.8z M158.4,209.7
		c0,0.3,0.2,0.6,0.5,0.8c0.3,0.2,0.8,0.3,1.4,0.3c0.9,0,1.7-0.1,2.2-0.3s0.8-0.5,0.8-0.9c0-0.3-0.2-0.5-0.5-0.6
		c-0.3-0.1-0.8-0.2-1.5-0.2h-1.5c-0.4,0-0.8,0.1-1,0.3S158.4,209.4,158.4,209.7z M159.6,200.9c0,1.1,0.4,1.7,1.2,1.7
		c0.4,0,0.6-0.1,0.8-0.4c0.2-0.3,0.3-0.7,0.3-1.3c0-1.1-0.4-1.7-1.1-1.7C160,199.2,159.6,199.8,159.6,200.9z"/>
	<path class="st7" d="M180.9,208.3l-0.7-1.5H180c-0.5,0.6-1,1.1-1.6,1.3c-0.5,0.2-1.2,0.4-2.1,0.4c-1,0-1.9-0.3-2.5-0.9
		c-0.6-0.6-0.9-1.5-0.9-2.6c0-1.2,0.4-2.1,1.2-2.6s2-0.9,3.6-1l1.8-0.1v-0.2c0-0.9-0.4-1.4-1.3-1.4c-0.8,0-1.8,0.3-3.1,0.8l-1.1-2.5
		c1.3-0.7,2.9-1,4.9-1c1.4,0,2.5,0.4,3.3,1.1c0.8,0.7,1.2,1.7,1.2,2.9v7.3H180.9z M178,205.8c0.5,0,0.9-0.1,1.2-0.4
		c0.3-0.3,0.5-0.7,0.5-1.1v-0.9l-0.9,0c-1.3,0-1.9,0.5-1.9,1.4C176.9,205.5,177.3,205.8,178,205.8z"/>
	<path class="st7" d="M84.2,228c0,0.9-0.2,1.7-0.7,2.4s-1.1,1.2-1.9,1.6c-0.8,0.4-1.8,0.6-3,0.6c-1,0-1.7-0.1-2.4-0.2
		s-1.3-0.4-2-0.7v-3.4c0.7,0.4,1.5,0.7,2.3,0.9c0.8,0.2,1.5,0.3,2.2,0.3c0.6,0,1-0.1,1.3-0.3c0.3-0.2,0.4-0.5,0.4-0.8
		c0-0.2-0.1-0.4-0.2-0.5s-0.3-0.3-0.5-0.4c-0.2-0.1-0.9-0.5-1.9-0.9c-0.9-0.4-1.6-0.8-2.1-1.2c-0.5-0.4-0.8-0.9-1-1.4
		s-0.3-1.1-0.3-1.8c0-1.3,0.5-2.3,1.4-3.1s2.3-1.1,3.9-1.1c1.5,0,3,0.3,4.5,1l-1.2,3c-1.3-0.6-2.5-0.9-3.5-0.9
		c-0.5,0-0.9,0.1-1.1,0.3c-0.2,0.2-0.3,0.4-0.3,0.7c0,0.3,0.1,0.5,0.4,0.8c0.3,0.2,1.1,0.6,2.4,1.2c1.2,0.6,2.1,1.1,2.6,1.8
		S84.2,227,84.2,228z"/>
	<path class="st7" d="M91.5,232.5c-1.8,0-3.3-0.5-4.3-1.5c-1-1-1.5-2.4-1.5-4.2c0-1.9,0.5-3.3,1.4-4.3c0.9-1,2.3-1.5,4-1.5
		c1.7,0,3,0.4,3.9,1.3s1.4,2.1,1.4,3.8v1.7h-6.8c0,0.6,0.3,1.1,0.7,1.5c0.4,0.4,1,0.5,1.7,0.5c0.7,0,1.3-0.1,1.9-0.2
		c0.6-0.1,1.2-0.3,1.8-0.6v2.7c-0.6,0.3-1.2,0.5-1.9,0.6C93.2,232.5,92.4,232.5,91.5,232.5z M91.3,223.7c-0.4,0-0.8,0.1-1.1,0.4
		s-0.5,0.7-0.5,1.3h3.3c0-0.5-0.2-1-0.5-1.3C92.2,223.8,91.8,223.7,91.3,223.7z"/>
	<path class="st7" d="M103.6,232.5c-1.8,0-3.2-0.5-4.1-1.5c-0.9-1-1.4-2.4-1.4-4.2c0-1.8,0.5-3.3,1.5-4.3c1-1,2.4-1.5,4.3-1.5
		c1.3,0,2.5,0.3,3.6,0.8l-1.1,2.8c-0.5-0.2-0.9-0.4-1.3-0.5s-0.8-0.2-1.2-0.2c-0.6,0-1.1,0.2-1.4,0.7c-0.3,0.5-0.5,1.2-0.5,2
		c0,1.8,0.7,2.7,2,2.7c1.1,0,2.2-0.3,3.2-1v3C106.2,232.2,105,232.5,103.6,232.5z"/>
	<path class="st7" d="M119.9,226.8c0,1.8-0.5,3.2-1.5,4.2c-1,1-2.3,1.5-4.1,1.5c-1.7,0-3-0.5-4-1.6c-1-1-1.5-2.4-1.5-4.2
		c0-1.8,0.5-3.2,1.5-4.2c1-1,2.3-1.5,4.1-1.5c1.1,0,2,0.2,2.9,0.7c0.8,0.5,1.5,1.1,1.9,2C119.7,224.6,119.9,225.6,119.9,226.8z
		 M112.7,226.8c0,1,0.1,1.7,0.4,2.2s0.7,0.7,1.3,0.7c0.6,0,1-0.2,1.3-0.7s0.4-1.2,0.4-2.2c0-0.9-0.1-1.7-0.4-2.1
		c-0.2-0.5-0.7-0.7-1.3-0.7c-0.6,0-1,0.2-1.3,0.7S112.7,225.8,112.7,226.8z"/>
	<path class="st7" d="M129.1,232.3v-6c0-0.7-0.1-1.3-0.3-1.7c-0.2-0.4-0.6-0.6-1-0.6c-0.6,0-1.1,0.3-1.4,0.8
		c-0.3,0.5-0.4,1.4-0.4,2.6v4.8h-3.8v-11.1h2.9l0.5,1.4h0.2c0.3-0.5,0.8-0.9,1.4-1.2s1.2-0.4,2-0.4c1.2,0,2.2,0.4,2.9,1.1
		c0.7,0.7,1,1.7,1,3v7.2H129.1z"/>
	<path class="st7" d="M138.9,232.5c-0.8,0-1.5-0.2-2.1-0.7c-0.6-0.4-1-1.1-1.4-2s-0.5-1.9-0.5-3.1c0-1.8,0.4-3.2,1.1-4.2
		s1.7-1.5,3-1.5c0.6,0,1.2,0.1,1.6,0.4c0.5,0.2,0.9,0.7,1.3,1.2h0.1c-0.1-0.9-0.2-1.7-0.2-2.6v-3h3.8v15.2h-2.9l-0.8-1.4h-0.1
		C141.2,232,140.2,232.5,138.9,232.5z M140.5,229.5c0.6,0,1-0.2,1.3-0.6c0.3-0.4,0.4-1,0.4-1.8v-0.3c0-1-0.1-1.7-0.4-2.1
		c-0.3-0.4-0.7-0.6-1.3-0.6c-0.5,0-0.9,0.2-1.2,0.7c-0.3,0.5-0.4,1.1-0.4,2c0,0.9,0.1,1.5,0.4,2C139.6,229.3,140,229.5,140.5,229.5z
		"/>
	<path class="st7" d="M166,232.3h-3.9v-5.8h-4.5v5.8h-3.9v-14.3h3.9v5.3h4.5v-5.3h3.9V232.3z"/>
	<path class="st7" d="M179.4,226.8c0,1.8-0.5,3.2-1.5,4.2c-1,1-2.3,1.5-4.1,1.5c-1.7,0-3-0.5-4-1.6c-1-1-1.5-2.4-1.5-4.2
		c0-1.8,0.5-3.2,1.5-4.2c1-1,2.3-1.5,4.1-1.5c1.1,0,2,0.2,2.9,0.7c0.8,0.5,1.5,1.1,1.9,2C179.2,224.6,179.4,225.6,179.4,226.8z
		 M172.3,226.8c0,1,0.1,1.7,0.4,2.2s0.7,0.7,1.3,0.7c0.6,0,1-0.2,1.3-0.7s0.4-1.2,0.4-2.2c0-0.9-0.1-1.7-0.4-2.1
		c-0.2-0.5-0.7-0.7-1.3-0.7c-0.6,0-1,0.2-1.3,0.7S172.3,225.8,172.3,226.8z"/>
	<path class="st7" d="M195.2,232.3v-6c0-0.7-0.1-1.3-0.3-1.7s-0.5-0.6-1-0.6c-0.6,0-1,0.3-1.3,0.8s-0.4,1.3-0.4,2.4v5.2h-3.8v-6
		c0-0.7-0.1-1.3-0.3-1.7s-0.5-0.6-0.9-0.6c-0.6,0-1,0.3-1.3,0.8s-0.4,1.4-0.4,2.6v4.8h-3.8v-11.1h2.9l0.5,1.4h0.2
		c0.3-0.5,0.7-0.9,1.3-1.2s1.2-0.4,1.9-0.4c1.6,0,2.7,0.5,3.4,1.5h0.3c0.3-0.5,0.7-0.8,1.3-1.1s1.2-0.4,1.8-0.4c1.3,0,2.3,0.3,2.9,1
		s0.9,1.7,0.9,3.1v7.2H195.2z"/>
	<path class="st7" d="M207,232.5c-1.8,0-3.3-0.5-4.3-1.5c-1-1-1.5-2.4-1.5-4.2c0-1.9,0.5-3.3,1.4-4.3c0.9-1,2.3-1.5,4-1.5
		c1.7,0,3,0.4,3.9,1.3s1.4,2.1,1.4,3.8v1.7H205c0,0.6,0.3,1.1,0.7,1.5c0.4,0.4,1,0.5,1.7,0.5c0.7,0,1.3-0.1,1.9-0.2
		c0.6-0.1,1.2-0.3,1.8-0.6v2.7c-0.6,0.3-1.2,0.5-1.9,0.6C208.6,232.5,207.8,232.5,207,232.5z M206.7,223.7c-0.4,0-0.8,0.1-1.1,0.4
		s-0.5,0.7-0.5,1.3h3.3c0-0.5-0.2-1-0.5-1.3C207.6,223.8,207.2,223.7,206.7,223.7z"/>
</g>
<g>
	<g>
		<path class="st102" d="M89.7,153.9c0,0,73.8-23.3,148,13.8c0,0-99.7,10.9-191.9,5.2L89.7,153.9z"/>
	</g>
</g>
<polygon class="st103" points="128.7,50.7 117.8,74.7 177.1,74.7 169.9,50.5 "/>
<polygon class="st104" points="148.3,42.9 134.4,78.1 123.1,78.1 123.1,127.2 172.9,127.2 172.9,77.5 162.7,77.5 "/>
<rect x="124.3" y="107.8" class="st105" width="48.2" height="4.1"/>
<polygon class="st106" points="101.5,129.7 105.6,152.6 111.1,151.7 106.9,129.6 "/>
<rect x="115.8" y="129.9" class="st106" width="5.7" height="20.1"/>
<polygon class="st106" points="128.3,129.6 128.8,149.7 133.9,149.2 133.2,129.7 "/>
<polygon class="st106" points="164,129.8 164,150.5 170.3,151.7 169.4,129.7 "/>
<rect x="173.6" y="129.2" class="st106" width="5.2" height="25.5"/>
<rect x="123" y="78.1" class="st107" width="2.8" height="49.2"/>
<rect x="170.4" y="77.5" class="st107" width="2.5" height="49.6"/>
<linearGradient id="SVGID_2_" gradientUnits="userSpaceOnUse" x1="141.3388" y1="84.8399" x2="155.0916" y2="84.8399">
	<stop  offset="0" style="stop-color:#75B2C7"/>
	<stop  offset="0.9837" style="stop-color:#75B2C7"/>
</linearGradient>
<path style="fill:url(#SVGID_2_);" d="M155.1,95.8h-13.8V81.7c0-4.3,3.1-7.9,6.9-7.9l0,0c3.8,0,6.9,3.5,6.9,7.9V95.8z"/>
<rect x="139.6" y="95.5" class="st107" width="17.3" height="2.5"/>
<linearGradient id="SVGID_3_" gradientUnits="userSpaceOnUse" x1="143.7903" y1="62.9455" x2="152.8879" y2="62.9455">
	<stop  offset="0" style="stop-color:#75B2C7"/>
	<stop  offset="0.9837" style="stop-color:#75B2C7"/>
</linearGradient>
<ellipse class="st31" cx="148.3" cy="62.9" rx="4.5" ry="5.2"/>
<rect x="125.8" y="95.7" class="st107" width="7.6" height="2.3"/>
<g>
	<linearGradient id="SVGID_4_" gradientUnits="userSpaceOnUse" x1="162.8834" y1="88.834" x2="168.5834" y2="88.834">
		<stop  offset="0" style="stop-color:#75B2C7"/>
		<stop  offset="0.9837" style="stop-color:#75B2C7"/>
	</linearGradient>
	<rect x="162.9" y="81.9" style="fill:url(#SVGID_4_);stroke:#FFFFFF;stroke-width:2.1123;" width="5.7" height="13.8"/>
	<rect x="161.9" y="95.7" class="st107" width="7.6" height="2.3"/>
	<rect x="159.2" y="81.9" class="st111" width="3.7" height="13.8"/>
	<rect x="168.6" y="81.9" class="st111" width="3.7" height="13.8"/>
	<polygon class="st7" points="162.9,89.2 162.9,88.4 168.6,88.4 168.6,89.2 162.9,89.2 	"/>
</g>
<linearGradient id="SVGID_5_" gradientUnits="userSpaceOnUse" x1="144.039" y1="117.4153" x2="152.463" y2="117.4153">
	<stop  offset="0" style="stop-color:#75B2C7"/>
	<stop  offset="0.9837" style="stop-color:#75B2C7"/>
</linearGradient>
<rect x="144" y="107.3" style="fill:url(#SVGID_5_);stroke:#FFFFFF;stroke-width:2.1123;" width="8.4" height="20.2"/>
<rect x="141.3" y="107.2" class="st111" width="2.7" height="20.3"/>
<rect x="152.3" y="107.2" class="st111" width="2.7" height="20.3"/>
<polygon class="st113" points="145.1,118.7 145.1,117.2 151.4,117.2 151.4,118.7 145.1,118.7 "/>
<polygon class="st7" points="144,118.2 144,116.1 152.3,116.1 152.3,118.2 144,118.2 "/>
<g>
	<g>
		<rect x="160.1" y="83" class="st114" width="2" height="4.7"/>
		<rect x="160.1" y="83.4" class="st111" width="2" height="0.4"/>
		<rect x="160.1" y="84.1" class="st111" width="2" height="0.4"/>
		<rect x="160.1" y="84.8" class="st111" width="2" height="0.4"/>
		<rect x="160.1" y="85.6" class="st111" width="2" height="0.4"/>
		<rect x="160.1" y="86.3" class="st111" width="2" height="0.4"/>
		<rect x="160.1" y="87" class="st111" width="2" height="0.4"/>
	</g>
	<g>
		<rect x="160.2" y="89.9" class="st114" width="2" height="4.7"/>
		<rect x="160.2" y="90.2" class="st111" width="2" height="0.4"/>
		<rect x="160.2" y="91" class="st111" width="2" height="0.4"/>
		<rect x="160.2" y="91.7" class="st111" width="2" height="0.4"/>
		<rect x="160.2" y="92.4" class="st111" width="2" height="0.4"/>
		<rect x="160.2" y="93.1" class="st111" width="2" height="0.4"/>
		<rect x="160.2" y="93.8" class="st111" width="2" height="0.4"/>
	</g>
</g>
<g>
	<g>
		<rect x="169.5" y="83" class="st114" width="2" height="4.7"/>
		<rect x="169.5" y="83.4" class="st111" width="2" height="0.4"/>
		<rect x="169.5" y="84.1" class="st111" width="2" height="0.4"/>
		<rect x="169.5" y="84.8" class="st111" width="2" height="0.4"/>
		<rect x="169.5" y="85.6" class="st111" width="2" height="0.4"/>
		<rect x="169.5" y="86.3" class="st111" width="2" height="0.4"/>
		<rect x="169.5" y="87" class="st111" width="2" height="0.4"/>
	</g>
	<g>
		<rect x="169.6" y="89.9" class="st114" width="2" height="4.7"/>
		<rect x="169.6" y="90.2" class="st111" width="2" height="0.4"/>
		<rect x="169.6" y="91" class="st111" width="2" height="0.4"/>
		<rect x="169.6" y="91.7" class="st111" width="2" height="0.4"/>
		<rect x="169.6" y="92.4" class="st111" width="2" height="0.4"/>
		<rect x="169.6" y="93.1" class="st111" width="2" height="0.4"/>
		<rect x="169.6" y="93.8" class="st111" width="2" height="0.4"/>
	</g>
</g>
<g>
	<rect x="126.8" y="81.9" class="st115" width="5.7" height="13.8"/>
	<polygon class="st7" points="126.8,89.2 126.8,88.4 132.5,88.4 132.5,89.2 126.8,89.2 	"/>
	<rect x="123.1" y="81.9" class="st111" width="3.7" height="13.8"/>
	<rect x="132.5" y="81.9" class="st111" width="3.7" height="13.8"/>
	<g>
		<g>
			<rect x="123.8" y="83" class="st114" width="2" height="4.7"/>
			<rect x="123.8" y="83.4" class="st111" width="2" height="0.4"/>
			<rect x="123.8" y="84.1" class="st111" width="2" height="0.4"/>
			<rect x="123.8" y="84.8" class="st111" width="2" height="0.4"/>
			<rect x="123.8" y="85.6" class="st111" width="2" height="0.4"/>
			<rect x="123.8" y="86.3" class="st111" width="2" height="0.4"/>
			<rect x="123.8" y="87" class="st111" width="2" height="0.4"/>
		</g>
		<g>
			<rect x="123.9" y="89.9" class="st114" width="2" height="4.7"/>
			<rect x="123.9" y="90.2" class="st111" width="2" height="0.4"/>
			<rect x="123.9" y="91" class="st111" width="2" height="0.4"/>
			<rect x="123.9" y="91.7" class="st111" width="2" height="0.4"/>
			<rect x="123.9" y="92.4" class="st111" width="2" height="0.4"/>
			<rect x="123.9" y="93.1" class="st111" width="2" height="0.4"/>
			<rect x="123.9" y="93.8" class="st111" width="2" height="0.4"/>
		</g>
	</g>
	<g>
		<g>
			<rect x="133.2" y="83" class="st114" width="2" height="4.7"/>
			<rect x="133.2" y="83.4" class="st111" width="2" height="0.4"/>
			<rect x="133.2" y="84.1" class="st111" width="2" height="0.4"/>
			<rect x="133.2" y="84.8" class="st111" width="2" height="0.4"/>
			<rect x="133.2" y="85.6" class="st111" width="2" height="0.4"/>
			<rect x="133.2" y="86.3" class="st111" width="2" height="0.4"/>
			<rect x="133.2" y="87" class="st111" width="2" height="0.4"/>
		</g>
		<g>
			<rect x="133.3" y="89.9" class="st114" width="2" height="4.7"/>
			<rect x="133.3" y="90.2" class="st111" width="2" height="0.4"/>
			<rect x="133.3" y="91" class="st111" width="2" height="0.4"/>
			<rect x="133.3" y="91.7" class="st111" width="2" height="0.4"/>
			<rect x="133.3" y="92.4" class="st111" width="2" height="0.4"/>
			<rect x="133.3" y="93.1" class="st111" width="2" height="0.4"/>
			<rect x="133.3" y="93.8" class="st111" width="2" height="0.4"/>
		</g>
	</g>
	<path class="st116" d="M127.8,83.1c0,0-2.3,2.2,2.4,4.7c0,0,5.4-2,5.4-2.3c0-0.3-4.1,1.4-4.1-2.4L127.8,83.1z"/>
</g>
<linearGradient id="SVGID_6_" gradientUnits="userSpaceOnUse" x1="126.7719" y1="88.834" x2="132.4715" y2="88.834">
	<stop  offset="0" style="stop-color:#75B2C7"/>
	<stop  offset="0.9837" style="stop-color:#75B2C7"/>
</linearGradient>
<rect x="126.8" y="81.9" style="fill:url(#SVGID_6_);stroke:#FFFFFF;stroke-width:2.1123;" width="5.7" height="13.8"/>
<polygon class="st7" points="126.8,89.2 126.8,88.4 132.5,88.4 132.5,89.2 126.8,89.2 "/>
<rect x="123.1" y="81.9" class="st111" width="3.7" height="13.8"/>
<rect x="132.5" y="81.9" class="st111" width="3.7" height="13.8"/>
<g>
	<g>
		<rect x="123.8" y="83" class="st114" width="2" height="4.7"/>
		<rect x="123.8" y="83.4" class="st111" width="2" height="0.4"/>
		<rect x="123.8" y="84.1" class="st111" width="2" height="0.4"/>
		<rect x="123.8" y="84.8" class="st111" width="2" height="0.4"/>
		<rect x="123.8" y="85.6" class="st111" width="2" height="0.4"/>
		<rect x="123.8" y="86.3" class="st111" width="2" height="0.4"/>
		<rect x="123.8" y="87" class="st111" width="2" height="0.4"/>
	</g>
	<g>
		<rect x="123.9" y="89.9" class="st114" width="2" height="4.7"/>
		<rect x="123.9" y="90.2" class="st111" width="2" height="0.4"/>
		<rect x="123.9" y="91" class="st111" width="2" height="0.4"/>
		<rect x="123.9" y="91.7" class="st111" width="2" height="0.4"/>
		<rect x="123.9" y="92.4" class="st111" width="2" height="0.4"/>
		<rect x="123.9" y="93.1" class="st111" width="2" height="0.4"/>
		<rect x="123.9" y="93.8" class="st111" width="2" height="0.4"/>
	</g>
</g>
<g>
	<g>
		<rect x="133.2" y="83" class="st114" width="2" height="4.7"/>
		<rect x="133.2" y="83.4" class="st111" width="2" height="0.4"/>
		<rect x="133.2" y="84.1" class="st111" width="2" height="0.4"/>
		<rect x="133.2" y="84.8" class="st111" width="2" height="0.4"/>
		<rect x="133.2" y="85.6" class="st111" width="2" height="0.4"/>
		<rect x="133.2" y="86.3" class="st111" width="2" height="0.4"/>
		<rect x="133.2" y="87" class="st111" width="2" height="0.4"/>
	</g>
	<g>
		<rect x="133.3" y="89.9" class="st114" width="2" height="4.7"/>
		<rect x="133.3" y="90.2" class="st111" width="2" height="0.4"/>
		<rect x="133.3" y="91" class="st111" width="2" height="0.4"/>
		<rect x="133.3" y="91.7" class="st111" width="2" height="0.4"/>
		<rect x="133.3" y="92.4" class="st111" width="2" height="0.4"/>
		<rect x="133.3" y="93.1" class="st111" width="2" height="0.4"/>
		<rect x="133.3" y="93.8" class="st111" width="2" height="0.4"/>
	</g>
</g>
<g>
	<linearGradient id="SVGID_7_" gradientUnits="userSpaceOnUse" x1="126.7719" y1="114.1018" x2="132.4715" y2="114.1018">
		<stop  offset="0" style="stop-color:#75B2C7"/>
		<stop  offset="0.9837" style="stop-color:#75B2C7"/>
	</linearGradient>
	<rect x="126.8" y="107.2" style="fill:url(#SVGID_7_);stroke:#FFFFFF;stroke-width:2.1123;" width="5.7" height="13.8"/>
	<polygon class="st7" points="126.8,114.5 126.8,113.7 132.5,113.7 132.5,114.5 126.8,114.5 	"/>
	<rect x="123.1" y="107.2" class="st111" width="3.7" height="13.8"/>
	<rect x="132.5" y="107.2" class="st111" width="3.7" height="13.8"/>
	<g>
		<g>
			<rect x="123.8" y="108.3" class="st114" width="2" height="4.7"/>
			<rect x="123.8" y="108.7" class="st111" width="2" height="0.4"/>
			<rect x="123.8" y="109.4" class="st111" width="2" height="0.4"/>
			<rect x="123.8" y="110.1" class="st111" width="2" height="0.4"/>
			<rect x="123.8" y="110.8" class="st111" width="2" height="0.4"/>
			<rect x="123.8" y="111.6" class="st111" width="2" height="0.4"/>
			<rect x="123.8" y="112.3" class="st111" width="2" height="0.4"/>
		</g>
		<g>
			<rect x="123.9" y="115.1" class="st114" width="2" height="4.7"/>
			<rect x="123.9" y="115.5" class="st111" width="2" height="0.4"/>
			<rect x="123.9" y="116.2" class="st111" width="2" height="0.4"/>
			<rect x="123.9" y="116.9" class="st111" width="2" height="0.4"/>
			<rect x="123.9" y="117.7" class="st111" width="2" height="0.4"/>
			<rect x="123.9" y="118.4" class="st111" width="2" height="0.4"/>
			<rect x="123.9" y="119.1" class="st111" width="2" height="0.4"/>
		</g>
	</g>
	<g>
		<g>
			<rect x="133.2" y="108.3" class="st114" width="2" height="4.7"/>
			<rect x="133.2" y="108.7" class="st111" width="2" height="0.4"/>
			<rect x="133.2" y="109.4" class="st111" width="2" height="0.4"/>
			<rect x="133.2" y="110.1" class="st111" width="2" height="0.4"/>
			<rect x="133.2" y="110.8" class="st111" width="2" height="0.4"/>
			<rect x="133.2" y="111.6" class="st111" width="2" height="0.4"/>
			<rect x="133.2" y="112.3" class="st111" width="2" height="0.4"/>
		</g>
		<g>
			<rect x="133.3" y="115.1" class="st114" width="2" height="4.7"/>
			<rect x="133.3" y="115.5" class="st111" width="2" height="0.4"/>
			<rect x="133.3" y="116.2" class="st111" width="2" height="0.4"/>
			<rect x="133.3" y="116.9" class="st111" width="2" height="0.4"/>
			<rect x="133.3" y="117.7" class="st111" width="2" height="0.4"/>
			<rect x="133.3" y="118.4" class="st111" width="2" height="0.4"/>
			<rect x="133.3" y="119.1" class="st111" width="2" height="0.4"/>
		</g>
	</g>
</g>
<g>
	<linearGradient id="SVGID_8_" gradientUnits="userSpaceOnUse" x1="162.8834" y1="114.1018" x2="168.5834" y2="114.1018">
		<stop  offset="0" style="stop-color:#75B2C7"/>
		<stop  offset="0.9837" style="stop-color:#75B2C7"/>
	</linearGradient>
	<rect x="162.9" y="107.2" style="fill:url(#SVGID_8_);stroke:#FFFFFF;stroke-width:2.1123;" width="5.7" height="13.8"/>
	<polygon class="st7" points="162.9,114.5 162.9,113.7 168.6,113.7 168.6,114.5 162.9,114.5 	"/>
	<rect x="159.2" y="107.2" class="st111" width="3.7" height="13.8"/>
	<rect x="168.6" y="107.2" class="st111" width="3.7" height="13.8"/>
	<g>
		<g>
			<rect x="160" y="108.3" class="st114" width="2" height="4.7"/>
			<rect x="160" y="108.7" class="st111" width="2" height="0.4"/>
			<rect x="160" y="109.4" class="st111" width="2" height="0.4"/>
			<rect x="160" y="110.1" class="st111" width="2" height="0.4"/>
			<rect x="160" y="110.8" class="st111" width="2" height="0.4"/>
			<rect x="160" y="111.6" class="st111" width="2" height="0.4"/>
			<rect x="160" y="112.3" class="st111" width="2" height="0.4"/>
		</g>
		<g>
			<rect x="160.1" y="115.1" class="st114" width="2" height="4.7"/>
			<rect x="160.1" y="115.5" class="st111" width="2" height="0.4"/>
			<rect x="160.1" y="116.2" class="st111" width="2" height="0.4"/>
			<rect x="160.1" y="116.9" class="st111" width="2" height="0.4"/>
			<rect x="160.1" y="117.7" class="st111" width="2" height="0.4"/>
			<rect x="160.1" y="118.4" class="st111" width="2" height="0.4"/>
			<rect x="160.1" y="119.1" class="st111" width="2" height="0.4"/>
		</g>
	</g>
	<g>
		<g>
			<rect x="169.3" y="108.3" class="st114" width="2" height="4.7"/>
			<rect x="169.3" y="108.7" class="st111" width="2" height="0.4"/>
			<rect x="169.3" y="109.4" class="st111" width="2" height="0.4"/>
			<rect x="169.3" y="110.1" class="st111" width="2" height="0.4"/>
			<rect x="169.3" y="110.8" class="st111" width="2" height="0.4"/>
			<rect x="169.3" y="111.6" class="st111" width="2" height="0.4"/>
			<rect x="169.3" y="112.3" class="st111" width="2" height="0.4"/>
		</g>
		<g>
			<rect x="169.4" y="115.1" class="st114" width="2" height="4.7"/>
			<rect x="169.4" y="115.5" class="st111" width="2" height="0.4"/>
			<rect x="169.4" y="116.2" class="st111" width="2" height="0.4"/>
			<rect x="169.4" y="116.9" class="st111" width="2" height="0.4"/>
			<rect x="169.4" y="117.7" class="st111" width="2" height="0.4"/>
			<rect x="169.4" y="118.4" class="st111" width="2" height="0.4"/>
			<rect x="169.4" y="119.1" class="st111" width="2" height="0.4"/>
		</g>
	</g>
</g>
<polygon class="st103" points="114.3,98 107,106.3 189.3,106.3 179,98 "/>
<rect x="132.4" y="117.7" class="st107" width="1.4" height="9.5"/>
<rect x="127.5" y="117.7" class="st107" width="1.4" height="9.5"/>
<rect x="119.3" y="117.7" class="st107" width="1.4" height="9.5"/>
<rect x="113.4" y="117.7" class="st107" width="1.4" height="9.5"/>
<rect x="176.3" y="117.7" class="st107" width="1.4" height="9.5"/>
<rect x="168.1" y="117.7" class="st107" width="1.4" height="9.5"/>
<rect x="162.2" y="117.7" class="st107" width="1.4" height="9.5"/>
<polygon class="st105" points="171.4,76 171.4,79.8 161.4,79.8 146.7,44.9 148.6,41.1 163.5,76 "/>
<polygon class="st105" points="133.5,79.8 134.4,78.1 126,78.2 126,79.8 "/>
<path class="st120" d="M101.7,130.9l5.4-0.2l0.9,4.7c0,0-2.2-0.1-5.1,2.3L101.7,130.9z"/>
<path class="st120" d="M115.8,129.9v5.4c0,0,2.3-1.5,5.7,0.1v-5.5H115.8z"/>
<path class="st120" d="M133.2,129.7l0.2,4.5c0,0-2.2-0.8-4.9,1l-0.1-5.5L133.2,129.7z"/>
<path class="st120" d="M164,135.4c0,0,2.5-1.3,5.7,1.2l-0.3-6.8l-5.4,0.1V135.4z"/>
<path class="st120" d="M173.6,129.2v7.2c0,0,2.8-1.4,5.2,0.1v-7.3H173.6z"/>
<rect x="98.9" y="127.1" class="st121" width="91.9" height="3.8"/>
<polygon class="st122" points="142.3,50.7 133.1,74.8 123.3,74.7 139.2,50.7 "/>
<polygon class="st107" points="116.8,74.8 116.8,78.1 134.4,78.1 148.3,42.9 162.7,77.5 177.6,77.5 177.6,74.7 164.4,74.7 
	150.4,39.7 146.5,39.7 133.1,74.8 "/>
<rect x="127.8" y="108.7" class="st123" width="3.7" height="1.2"/>
<rect x="145" y="108.6" class="st123" width="6.4" height="2.5"/>
<rect x="163.9" y="108.7" class="st124" width="3.7" height="1.5"/>
<polygon class="st125" points="159.3,137.2 139.1,137.2 138.3,133.7 159.6,133.7 "/>
<polygon class="st126" points="137.5,136.8 138.3,141.5 160.1,141.5 161.2,136.8 "/>
<polygon class="st125" points="136.8,140.9 137.9,145.2 161.8,145.2 162.8,141.3 "/>
<polygon class="st126" points="136.9,144.8 136.9,148.2 163.3,149.7 163.6,144.6 "/>
<g>
	<path class="st123" d="M147.7,73.9c-1.6,0-3,0.7-4.2,1.8c0.5-0.1,0.9-0.1,1.4-0.1c4.2,0,7.6,3.3,7.6,7.3v10.4
		c0,0.9-0.2,1.8-0.5,2.6h2.2V81.7C154.2,77.4,151.3,73.9,147.7,73.9z"/>
</g>
<polygon class="st113" points="141.3,84.5 141.3,82.4 155.1,82.4 155.1,84.5 141.3,84.5 "/>
<polygon class="st7" points="141.3,82.8 141.3,80.7 155.1,80.7 155.1,82.8 141.3,82.8 "/>
<path class="st123" d="M127.7,86.7c0,0,0.8,1.4,3.7,1.4V85h-3.7V86.7z"/>
<path class="st116" d="M127.8,83.1c0,0-2.3,2.2,2.4,4.7c0,0,5.4-2,5.4-2.3c0-0.3-4.1,1.4-4.1-2.4L127.8,83.1z"/>
<path class="st123" d="M163.8,85.3c0,0,0.9,3,2.6,3c0.1,0,1.1,0,1.1,0l0-5.3l-3.7,0L163.8,85.3z"/>
<path class="st116" d="M163.9,83.1c0,0,0.9,4.8,5.4,4.8c0,0,4.5-2.3,4.5-1.4c0,0.9-4.4,1.1-6.3-3.3L163.9,83.1z"/>
<g>
	<path class="st123" d="M146.8,59.5c2.7,0,5,2.5,5,5.7c0,0.5-0.1,1-0.2,1.4c0.8-0.9,1.3-2.2,1.3-3.7c0-2.9-2-5.2-4.5-5.2
		c-1.6,0-3,1-3.8,2.4C145.2,59.8,145.9,59.5,146.8,59.5z"/>
</g>
<polygon class="st127" points="139.7,126.9 135.5,131.2 140.1,131.2 140,126.9 "/>
<rect x="139.8" y="126.8" class="st125" width="18.4" height="3.4"/>
<polygon class="st126" points="158.6,133.8 139.7,133.8 139.1,129.8 159.1,129.8 "/>
<rect x="123" y="78.1" class="st128" width="2.8" height="1.7"/>
<rect x="170.2" y="77.7" class="st128" width="2.7" height="2.5"/>
<rect x="113.4" y="118.3" class="st128" width="1.4" height="1.7"/>
<rect x="119.3" y="118.3" class="st128" width="1.4" height="1.7"/>
<rect x="127.5" y="118.3" class="st128" width="1.4" height="1.6"/>
<rect x="132.4" y="118.3" class="st128" width="1.4" height="1.5"/>
<rect x="162.2" y="118.3" class="st128" width="1.4" height="2"/>
<rect x="168.1" y="118.3" class="st128" width="1.4" height="1.8"/>
<rect x="176.3" y="118.3" class="st128" width="1.4" height="2.1"/>
<rect x="157.2" y="108.4" class="st107" width="1.9" height="18.7"/>
<rect x="159.1" y="116.8" class="st107" width="26.9" height="1.5"/>
<rect x="157.2" y="108.4" class="st128" width="1.9" height="2.3"/>
<rect x="110.4" y="116.8" class="st107" width="26.8" height="1.5"/>
<rect x="108.5" y="108.4" class="st107" width="1.9" height="18.7"/>
<rect x="137.2" y="108.4" class="st107" width="1.9" height="18.7"/>
<rect x="108.3" y="108.7" class="st128" width="2.3" height="2.5"/>
<rect x="137.2" y="108.4" class="st128" width="1.9" height="2.4"/>
<rect x="107" y="106.3" class="st107" width="81.9" height="2.1"/>
<path class="st122" d="M127.9,98.2c0,0,1.2,1.9,4.1,2.4l3.3-1.6c0,0-1.6-0.3-2.1-0.8H127.9z"/>
<path class="st122" d="M163.8,98.2c0,0,3.2,3.5,7.4,3.3l2-2.4c0,0-2.5,0.1-3.9-0.9H163.8z"/>
<g>
	<path class="st129" d="M187,138.9c1.2,9.9,0.2,18.2-2.3,18.6c-2.5,0.4-5.5-7.3-6.7-17.2c-1.2-9.9-0.2-18.2,2.3-18.6
		C182.8,121.4,185.8,129,187,138.9z"/>
	<path class="st130" d="M186.4,155.6c0,0-0.7,1.9-1.7,2c-1.1,0.1-2.1-1.4-2.1-1.4l-4-32.4c0,0,0.6-1.8,1.6-2
		c1.1-0.2,2.2,1.4,2.2,1.4L186.4,155.6z"/>
</g>
</svg>
