<?xml version="1.0" encoding="utf-8"?>
<!-- Generator: Adobe Illustrator 17.0.0, SVG Export Plug-In . SVG Version: 6.00 Build 0)  -->
<!DOCTYPE svg PUBLIC "-//W3C//DTD SVG 1.1//EN" "http://www.w3.org/Graphics/SVG/1.1/DTD/svg11.dtd">
<svg version="1.1" id="Layer_1" xmlns="http://www.w3.org/2000/svg" xmlns:xlink="http://www.w3.org/1999/xlink" x="0px" y="0px"
	 width="430px" height="654px" viewBox="0 0 430 654" enable-background="new 0 0 430 654" xml:space="preserve">
<rect x="-0.354" y="-0.095" fill="#34BFC2" width="430" height="654"/>
<g>
	<g>
		<defs>
			<rect id="SVGID_1_" x="-0.305" y="1.004" width="429.701" height="654.094"/>
		</defs>
		<clipPath id="SVGID_2_">
			<use xlink:href="#SVGID_1_"  overflow="visible"/>
		</clipPath>
		<g clip-path="url(#SVGID_2_)">
			<g>
				<path fill="#F9F1D7" d="M0.031,377.867c0,0,199.438-62.934,400.194,37.249c0,0-150.894,61.645-400.194,46.237V377.867z"/>
				<path fill="#F9F1D7" d="M848.755,390.314c0,0,225.593-51.09,350.66-16.307c0,0-108.449,13.553-184.599,37.495
					C1014.815,411.502,967.747,433.64,848.755,390.314z"/>
				<path fill="#F9F1D7" d="M746.616,490.893c0,0,140.376-43.626,181.783-65.643c41.41-22.023,274.537-74.066,368.612-58.05
					c94.063,16.011,109.595,27.024,109.595,27.024v95.083c0,0-48.764-22.025-87.617-4.007
					c-38.853,18.02-142.125,31.528-201.429,18.02c-59.305-13.513-134.459-41.038-200.407-29.03
					C851.202,486.3,812.279,493.48,746.616,490.893z"/>
				<path fill="#F9F1D7" stroke="#F7E8BA" stroke-width="1.2475" d="M0.031,435.664c0,0,200.751,6.424,330.649-21.833
					c0,0,207.314-50.092,284.724-50.092c77.417,0,278.171,29.541,346.4,51.376c0,0,346.393,61.645,444.802,5.135v151.556H0.031
					V435.664z"/>
			</g>
			<g>
				<linearGradient id="SVGID_3_" gradientUnits="userSpaceOnUse" x1="848.7545" y1="396.7878" x2="1199.4141" y2="396.7878">
					<stop  offset="0" style="stop-color:#F1E8BB"/>
					<stop  offset="0.3627" style="stop-color:#EEE2B4"/>
					<stop  offset="0.7767" style="stop-color:#E8D4A3"/>
					<stop  offset="1" style="stop-color:#E4CA97"/>
				</linearGradient>
				<path fill="url(#SVGID_3_)" stroke="#F7E8BA" stroke-width="1.2475" d="M848.755,397.586c0,0,225.593-51.09,350.66-16.309
					c0,0-108.449,13.553-184.599,37.495C1014.815,418.772,967.747,440.905,848.755,397.586z"/>
				<path fill="#E3C797" d="M0.031,385.137c0,0,199.438-62.934,400.194,37.244c0,0-150.894,61.655-400.194,46.239V385.137z"/>
				<linearGradient id="SVGID_4_" gradientUnits="userSpaceOnUse" x1="746.6163" y1="443.7665" x2="1406.606" y2="443.7665">
					<stop  offset="0.5978" style="stop-color:#E1D3A2"/>
					<stop  offset="0.7338" style="stop-color:#E1D19F"/>
					<stop  offset="0.8247" style="stop-color:#E1CC97"/>
					<stop  offset="0.9024" style="stop-color:#E0C38A"/>
					<stop  offset="0.9723" style="stop-color:#DFB779"/>
					<stop  offset="1" style="stop-color:#DFB070"/>
				</linearGradient>
				<path fill="url(#SVGID_4_)" d="M746.616,498.163c0,0,140.376-43.623,181.783-65.646c41.41-22.018,274.537-74.064,368.612-58.048
					c94.063,16.011,109.595,27.021,109.595,27.021v95.083c0,0-48.764-22.022-87.617-4.003
					c-38.853,18.015-142.125,31.526-201.429,18.015c-59.305-13.513-134.459-41.034-200.407-29.025
					C851.202,493.567,812.279,500.75,746.616,498.163z"/>
				<path fill="#F6E8B9" stroke="#F7E8BA" stroke-width="0.5447" d="M-1.861,442.62c0,0,200.752,6.424,330.649-21.833
					c0,0,207.312-50.091,284.727-50.091c77.416,0,278.168,29.541,346.4,51.373c0,0,346.393,61.65,444.8,5.137v151.554H-1.861V442.62
					z"/>
			</g>
			<path fill="#F9F1D7" d="M0.031,460.113c0,0,39.784,41.406,128.144,29.442c88.36-11.959,229.878-47.809,304.565-54.287
				c74.258-6.44,131.597,7.359,137.241,37.724c0,0,55.462-19.32,110.92,0c55.461,19.325,99.641,28.526,154.163,28.526
				c54.519,0,100.581-48.767,185.181-45.09c84.603,3.684,159.245,31.125,215.266,29.447c56.02-1.678,33.941-31.177,65.8-36.803
				c31.851-5.629,88.851,0.466,105.296,16.56v95.686H0.031V460.113z"/>
			<linearGradient id="SVGID_5_" gradientUnits="userSpaceOnUse" x1="0.031" y1="502.2849" x2="1406.606" y2="502.2849">
				<stop  offset="0" style="stop-color:#E4C287"/>
				<stop  offset="0.2719" style="stop-color:#EBCF9F"/>
				<stop  offset="0.538" style="stop-color:#F2DAB5"/>
				<stop  offset="1" style="stop-color:#E4C287"/>
			</linearGradient>
			<path fill="url(#SVGID_5_)" d="M0.031,464.88c0,0,39.784,41.404,128.144,29.445c88.36-11.962,229.878-47.811,304.565-54.289
				c74.258-6.44,131.597,7.361,137.241,37.725c0,0,55.462-19.32,110.92,0c55.461,19.325,99.641,28.523,154.163,28.523
				c54.519,0,100.581-48.765,185.181-45.086c84.603,3.682,159.245,31.125,215.266,29.447c56.02-1.68,33.941-31.179,65.8-36.808
				c31.851-5.624,88.851,0.469,105.296,16.565v95.686H0.031V464.88z"/>
			<path fill="#FFFFFF" d="M0.031,506.872c0,0,90.405,30.645,170.094,11.144c79.69-19.501,255.497-75.904,321.601-59.895
				c56.166,13.597,61.758,48.681,31.304,65.142c0,0-2.069,1.371-2.945,0.511c-0.879-0.862,1.602-2.168,2.135-3.365
				c0.535-1.195,1.153-7.67-6.796-11.359c-12.355-5.74-34.023,0.408-33.397,13.365c0.622,12.96,16.196,20.733,32.081,17.989
				c15.889-2.744,86.128-30.795,131.14-36.59c45.012-5.791,138.695,3.452,205.895,28.47
				c67.203,25.018,134.623,43.351,154.451,19.627c19.834-23.722-23.351-47.877-40.316-34.938c0,0-2.333,1.322-1.381,2.255
				c0.949,0.93,2.875,1.155,4.573-1.205c1.696-2.365,18.081-4.828,22.905,3.267c4.827,8.092-7.693,19.763-25.216,18.348
				c-19.341-1.558-26.272-11.587-25.566-28.376c0.7-16.745,38.541-43.051,103.348-26.47
				c64.808,16.583,136.838,58.561,185.384,58.561c48.543,0,97.091-16.663,123.568-32.091c26.483-15.428,53.714-3.086,53.714-3.086
				v63.769H0.031V506.872z"/>
			<path fill="#ACDEE0" d="M0.031,514.003c0,0,90.405,30.644,170.094,11.146c79.69-19.503,255.497-75.904,321.601-59.897
				c56.166,13.604,61.758,48.681,31.304,65.144c0,0-2.069,1.369-2.945,0.511c-0.879-0.86,1.602-2.17,2.135-3.365
				c0.535-1.193,1.153-7.668-6.796-11.362c-12.355-5.739-34.023,0.406-33.397,13.368c0.622,12.958,16.196,20.731,32.081,17.989
				c15.889-2.744,86.456-29.152,131.14-36.588c50.104-8.336,138.695,3.452,205.895,28.467
				c67.203,25.02,134.623,43.349,154.451,19.63c19.834-23.724-23.351-47.879-40.316-34.94c0,0-2.333,1.322-1.381,2.257
				c0.949,0.928,2.875,1.151,4.573-1.209c1.696-2.362,18.081-4.828,22.905,3.267c4.827,8.092-7.693,19.763-25.216,18.353
				c-19.341-1.561-26.272-11.589-25.566-28.378c0.7-16.747,38.541-43.049,103.348-26.471
				c64.808,16.583,136.838,58.559,185.384,58.559c48.543,0,97.091-16.66,123.568-32.088c26.483-15.43,53.714-3.089,53.714-3.089
				v63.771H0.031V514.003z"/>
			<linearGradient id="SVGID_6_" gradientUnits="userSpaceOnUse" x1="0.031" y1="566.9122" x2="1409.4283" y2="566.9122">
				<stop  offset="0" style="stop-color:#75B2C7"/>
				<stop  offset="0.1532" style="stop-color:#80BACD"/>
				<stop  offset="0.3967" style="stop-color:#9FD5DF"/>
				<stop  offset="0.653" style="stop-color:#8FC6D5"/>
				<stop  offset="0.9837" style="stop-color:#75B2C7"/>
			</linearGradient>
			<path fill="url(#SVGID_6_)" d="M0.031,541.395c0,0,122.797,29.723,221.719-8.627c98.923-38.352,210.477-62.107,256.688-54.488
				c16.798,2.77,52.584,18.697,49.02,44.12c-0.42,2.998-2.718,5.875-5.407,8.507c0,0-1.313,0.642-1.966,0
				c-0.659-0.642,1.928-2.547,2.135-3.365c0,0,2.079-6.904-6.796-11.362c-11.279-5.667-45.173-10.014-45.173,14.251
				c0,24.265,22.131,30.567,39.768,29.166c17.638-1.404,84.677-16.239,138.017-24.165c61.669-9.161,132.894-6.187,167.073,0.602
				c39.949,7.928,131.491,48.685,180.597,29.091c27.771-11.08,11.56-60.93-30.426-41.019c0,0,8.145-36.635,73.138-26.776
				c65.004,9.859,104.956,56.654,175.562,60.764c70.614,4.115,160.804-45.255,192.628-20.57l2.822,119.438H2.855L0.031,541.395z"/>
			<g>
				<path fill="#E2BF82" d="M585.779,460.448c-53.494-27.553-129.746-33.665-186.267-33.656l0,0
					c-44.116,0-76.101,3.689-76.177,3.698l0,0c-0.736,0.087-1.418-0.359-1.517-0.989l0,0c-0.1-0.635,0.42-1.219,1.154-1.306l0,0
					c0.048,0,32.248-3.712,76.539-3.712l0,0c56.748,0.014,133.333,6.053,187.655,33.984l0,0c0.641,0.33,0.847,1.036,0.461,1.584l0,0
					c-0.255,0.361-0.702,0.56-1.158,0.56l0,0C586.233,460.612,585.995,460.558,585.779,460.448L585.779,460.448z"/>
				<path fill="#767769" d="M582.142,431.263c-38.344-18.718-82.284-24.633-122.508-24.633l0,0c-34.5,0-66.262,4.357-89.395,8.709
					l0,0c-23.138,4.352-37.597,8.688-37.633,8.704l0,0c-0.174,0.054-0.367-0.026-0.431-0.176l0,0
					c-0.064-0.155,0.03-0.319,0.211-0.372l0,0c0.016-0.007,58.115-17.436,127.248-17.443l0,0c40.3,0,84.357,5.925,122.839,24.713
					l0,0c0.164,0.075,0.216,0.251,0.129,0.394l0,0c-0.063,0.091-0.178,0.143-0.295,0.143l0,0
					C582.249,431.301,582.192,431.289,582.142,431.263L582.142,431.263z"/>
				<path fill="#767769" d="M578.091,447.333c-0.064,0.005-13.243-5.714-35.117-11.427l0,0
					c-21.874-5.718-52.444-11.432-87.304-11.427l0,0c-8.976,0-18.226,0.375-27.685,1.233l0,0c-0.187,0.014-0.35-0.101-0.373-0.256
					l0,0c-0.018-0.159,0.116-0.305,0.304-0.319l0,0c9.482-0.86,18.762-1.24,27.754-1.24l0,0c69.907,0,122.694,22.906,122.723,22.92
					l0,0c0.164,0.07,0.228,0.244,0.146,0.389l0,0c-0.057,0.098-0.176,0.155-0.298,0.155l0,0
					C578.191,447.361,578.139,447.352,578.091,447.333L578.091,447.333z"/>
				<g>
					<path fill="#B25538" d="M332.392,429.602c-0.745-0.009-1.34-0.534-1.328-1.172l0,0l0.209-11.816
						c0.012-0.64,0.624-1.148,1.369-1.139l0,0c0.745,0.012,1.339,0.534,1.328,1.174l0,0l-0.211,11.816
						c-0.011,0.633-0.611,1.137-1.346,1.137l0,0C332.406,429.602,332.399,429.602,332.392,429.602L332.392,429.602z"/>
					<path fill="#B25538" d="M346.889,428.467c-0.728-0.129-1.199-0.738-1.054-1.362l0,0l3.069-13.042
						c0.152-0.626,0.863-1.029,1.59-0.905l0,0c0.733,0.124,1.205,0.734,1.054,1.362l0,0l-3.069,13.04
						c-0.134,0.551-0.698,0.93-1.325,0.93l0,0C347.067,428.491,346.978,428.484,346.889,428.467L346.889,428.467z"/>
					<path fill="#B25538" d="M357.223,426.724l-0.652-13.59c-0.029-0.64,0.547-1.177,1.294-1.202l0,0
						c0.746-0.026,1.373,0.469,1.403,1.108l0,0l0.646,13.586c0.03,0.638-0.547,1.177-1.292,1.202l0,0c-0.018,0-0.036,0-0.053,0l0,0
						C357.851,427.828,357.252,427.343,357.223,426.724L357.223,426.724z"/>
					<path fill="#B25538" d="M366.708,426.304l-0.908-18.287c-0.036-0.637,0.542-1.176,1.287-1.202l0,0
						c0.745-0.026,1.374,0.469,1.403,1.108l0,0l0.908,18.284c0.036,0.635-0.547,1.172-1.287,1.202l0,0
						c-0.018,0-0.036,0.002-0.053,0.002l0,0C367.336,427.413,366.737,426.925,366.708,426.304L366.708,426.304z"/>
					<path fill="#B25538" d="M376.205,427.12c-0.74-0.08-1.264-0.654-1.171-1.287l0,0l2.771-19.215
						c0.094-0.633,0.763-1.083,1.503-1.001l0,0c0.74,0.073,1.264,0.652,1.171,1.287l0,0l-2.766,19.212
						c-0.086,0.581-0.667,1.012-1.339,1.012l0,0C376.317,427.129,376.261,427.127,376.205,427.12L376.205,427.12z"/>
					<path fill="#B25538" d="M391.031,425.676c0.029-3.797-4.338-20.755-4.355-20.766l0,0c-0.163-0.623,0.297-1.242,1.019-1.38l0,0
						c0.728-0.141,1.45,0.248,1.612,0.872l0,0c0,0.07,4.391,16.75,4.42,21.275l0,0c0,0.638-0.6,1.151-1.345,1.151l0,0
						C391.635,426.827,391.031,426.314,391.031,425.676L391.031,425.676z"/>
					<path fill="#B25538" d="M405.511,425.965l-7.371-24.943c-0.186-0.619,0.25-1.247,0.972-1.401l0,0
						c0.722-0.159,1.455,0.216,1.635,0.834l0,0l7.378,24.94c0.181,0.619-0.256,1.247-0.978,1.401l0,0
						c-0.112,0.026-0.224,0.038-0.334,0.038l0,0C406.213,426.834,405.669,426.482,405.511,425.965L405.511,425.965z"/>
					<path fill="#B25538" d="M414.501,425.894l-2.254-28.388c-0.052-0.64,0.513-1.188,1.258-1.233l0,0
						c0.739-0.045,1.38,0.438,1.432,1.073l0,0l2.254,28.388c0.052,0.64-0.513,1.188-1.252,1.233l0,0
						c-0.032,0.002-0.063,0.002-0.096,0.002l0,0C415.14,426.97,414.55,426.501,414.501,425.894L414.501,425.894z"/>
					<path fill="#B25538" d="M426.709,426.297l-3.691-29.646c-0.076-0.64,0.46-1.209,1.199-1.273l0,0
						c0.739-0.07,1.403,0.389,1.484,1.022l0,0l3.687,29.651c0.081,0.635-0.454,1.202-1.199,1.268l0,0
						c-0.051,0.005-0.1,0.007-0.149,0.007l0,0C427.361,427.326,426.78,426.888,426.709,426.297L426.709,426.297z"/>
					<path fill="#B25538" d="M435.239,427.638c-0.74-0.089-1.251-0.675-1.147-1.303l0,0l4.932-29.972
						c0.105-0.633,0.786-1.071,1.519-0.982l0,0c0.74,0.089,1.253,0.673,1.147,1.303l0,0l-4.931,29.97
						c-0.095,0.579-0.671,0.996-1.329,0.996l0,0C435.368,427.65,435.303,427.645,435.239,427.638L435.239,427.638z"/>
					<path fill="#B25538" d="M443.337,428.071c-0.733-0.11-1.222-0.708-1.094-1.336l0,0l6.94-33.97
						c0.129-0.628,0.822-1.048,1.555-0.938l0,0c0.734,0.11,1.222,0.708,1.095,1.336l0,0l-6.936,33.965
						c-0.113,0.565-0.684,0.961-1.326,0.961l0,0C443.494,428.09,443.416,428.083,443.337,428.071L443.337,428.071z"/>
					<path fill="#B25538" d="M457.381,429.081c-0.74-0.094-1.247-0.682-1.142-1.312l0,0l5.549-32.318
						c0.105-0.628,0.792-1.069,1.526-0.973l0,0c0.74,0.094,1.246,0.677,1.14,1.308l0,0l-5.542,32.318
						c-0.101,0.579-0.682,0.989-1.34,0.989l0,0C457.51,429.093,457.445,429.091,457.381,429.081L457.381,429.081z"/>
					<path fill="#B25538" d="M470.642,430.328c-0.74-0.059-1.287-0.619-1.222-1.251l0,0l3.435-33.26
						c0.064-0.633,0.723-1.102,1.462-1.043l0,0c0.74,0.056,1.288,0.614,1.224,1.249l0,0l-3.436,33.258
						c-0.06,0.6-0.648,1.052-1.343,1.052l0,0C470.721,430.333,470.681,430.333,470.642,430.328L470.642,430.328z"/>
					<path fill="#B25538" d="M480.375,431.439c-0.74-0.089-1.247-0.673-1.142-1.305l0,0l5.62-33.171
						c0.111-0.635,0.792-1.069,1.532-0.98l0,0c0.733,0.091,1.246,0.68,1.14,1.308l0,0l-5.624,33.176
						c-0.096,0.572-0.667,0.987-1.325,0.987l0,0C480.509,431.453,480.442,431.448,480.375,431.439L480.375,431.439z"/>
					<path fill="#B25538" d="M493.897,433.302c-0.74-0.052-1.294-0.609-1.235-1.245l0,0l3.261-33.822
						c0.057-0.633,0.71-1.108,1.456-1.057l0,0c0.739,0.054,1.287,0.614,1.228,1.247l0,0l-3.256,33.822
						c-0.06,0.6-0.648,1.057-1.339,1.057l0,0C493.975,433.305,493.935,433.305,493.897,433.302L493.897,433.302z"/>
					<path fill="#B25538" d="M505.73,434.34l-0.583-34.186c-0.011-0.635,0.583-1.162,1.329-1.169l0,0
						c0.74-0.009,1.357,0.499,1.369,1.134l0,0l0.576,34.186c0.012,0.64-0.583,1.162-1.328,1.172l0,0c-0.004,0-0.007,0-0.011,0l0,0
						C506.348,435.477,505.736,434.975,505.73,434.34L505.73,434.34z"/>
					<path fill="#B25538" d="M514.807,436.982c-0.734-0.096-1.24-0.684-1.13-1.317l0,0l5.942-33.59
						c0.111-0.635,0.797-1.064,1.531-0.973l0,0c0.734,0.098,1.242,0.689,1.131,1.317l0,0l-5.942,33.59
						c-0.101,0.574-0.677,0.984-1.331,0.984l0,0C514.942,436.993,514.875,436.991,514.807,436.982L514.807,436.982z"/>
					<path fill="#B25538" d="M524.617,439.082c-0.74-0.068-1.27-0.642-1.188-1.277l0,0l4.794-35.99
						c0.082-0.637,0.752-1.092,1.492-1.017l0,0c0.74,0.07,1.271,0.644,1.189,1.277l0,0l-4.794,35.99
						c-0.082,0.593-0.659,1.027-1.332,1.027l0,0C524.724,439.091,524.671,439.089,524.617,439.082L524.617,439.082z"/>
					<path fill="#B25538" d="M538.129,442.442c-0.747-0.059-1.288-0.619-1.218-1.256l0,0l3.922-35.137
						c0.07-0.635,0.727-1.099,1.469-1.038l0,0c0.74,0.059,1.281,0.623,1.211,1.258l0,0l-3.916,35.135
						c-0.066,0.595-0.648,1.045-1.331,1.045l0,0C538.221,442.449,538.175,442.447,538.129,442.442L538.129,442.442z"/>
					<path fill="#B25538" d="M551.565,446.436c-0.728-0.115-1.211-0.719-1.078-1.343l0,0l7.279-33.727
						c0.139-0.628,0.84-1.043,1.574-0.923l0,0c0.729,0.115,1.218,0.719,1.077,1.343l0,0l-7.279,33.726
						c-0.119,0.555-0.682,0.944-1.32,0.944l0,0C551.736,446.457,551.651,446.45,551.565,446.436L551.565,446.436z"/>
					<path fill="#B25538" d="M564.973,451.125c-0.734-0.075-1.265-0.644-1.177-1.282l0,0l5.34-39.304
						c0.088-0.63,0.758-1.085,1.497-1.01l0,0c0.734,0.075,1.265,0.645,1.177,1.28l0,0l-5.34,39.304
						c-0.081,0.588-0.663,1.022-1.338,1.022l0,0C565.08,451.134,565.026,451.132,564.973,451.125L564.973,451.125z"/>
					<path fill="#B25538" d="M576.051,455.737c-0.729-0.136-1.19-0.75-1.033-1.371l0,0l8.904-35.205
						c0.157-0.619,0.875-1.017,1.604-0.879l0,0c0.729,0.136,1.19,0.75,1.032,1.376l0,0l-8.904,35.198
						c-0.142,0.537-0.697,0.909-1.313,0.909l0,0C576.246,455.765,576.148,455.756,576.051,455.737L576.051,455.737z"/>
				</g>
			</g>
			<path fill="#ACDEE0" d="M1408.214,605.55c-54.757-19.267-131.114-26.565-190.463-23.977
				c-55.219,2.407-100.723,30.23-152.936,42.54c-35.639,8.404-73.089,15.055-110.003,16.543
				c-43.021,1.734-73.316-6.398-113.766-16.065c-27.333-6.529-49.588-16.928-74.892-27.558c-3.192-1.343-8.875-6.215-8.875-6.215
				s-21.374,7.298-31.489,11.237c-60.009,23.358-122.369,15.369-183.945,4.118c-86.159-15.744-187.355-28.671-274.361-13.133
				c-33.938,6.06-67.098,16.339-101.653,19.423c-37.633,3.356-67.616-1.669-103.076-11.291c-13.345-3.618-35.876-9.346-50.102-5.76
				c-4.592,1.16-7.189,5.018-12.444,6.925l2.643,54.626h1406.573L1408.214,605.55z"/>
			<path fill="#ACDEE0" d="M1407.744,618.182c-54.748-19.271-130.644-28.043-189.992-25.458
				c-55.219,2.407-100.723,30.235-152.936,42.545c-35.639,8.404-73.089,15.053-110.003,16.543
				c-43.021,1.73-73.316-6.403-113.766-16.068c-27.333-6.529-49.588-16.928-74.892-27.558c-3.192-1.343-8.875-6.213-8.875-6.213
				s-21.374,7.296-31.489,11.233c-60.009,23.361-122.369,15.369-183.945,4.12c-86.159-15.746-187.355-28.674-274.361-13.136
				c-33.938,6.065-67.098,16.344-101.653,19.426c-37.633,3.358-67.616-1.673-103.076-11.291
				c-13.345-3.621-35.876-9.348-50.102-5.758c-4.592,1.16-7.189,5.015-12.444,6.925l-0.07,43.726l1407.903-2.308L1407.744,618.182z"
				/>
		</g>
	</g>
	<path fill="#5E8D66" d="M298.436,400.942c0.806-3.238,1.982-6.326,3.291-9.344c1.232-2.835,3.184-5.232,4.879-7.712
		c0.843-1.231,1.96-2.374,2.628-3.739c-4.785,2.158-10.456,3.266-13.428,8.7c0.613-2.17,0.721-4.502,1.386-6.674
		c0.854-2.777,1.993-5.417,3.579-7.745c0.953-1.398,2.118-2.786,2.718-4.444c-3.193,1.486-6.206,3.498-8.525,6.519
		c-1.64,2.133-3.011,4.731-4.065,7.288c-0.419,1.025-1.404,2.652-1.244,3.804c0.296-1.69,0.156-3.561,0.163-5.281
		c0.008-2.619,0.153-5.29,0.619-7.859c0.536-2.97,1.147-6.013,1.886-8.92c0.487-1.919,1.857-4.298,1.814-6.303
		c-1.066,2.476-2.711,4.592-3.882,7.031c-2.11,4.4-3.076,9.841-5.651,13.93c0.027-1.646-0.747-3.245-1.175-4.9
		c-0.583-2.249-1.116-4.495-1.765-6.725c-0.281-0.967-1.004-2.36-1.003-3.38c0.03,4.01,0.621,7.926,1.098,11.892
		c0.614,5.079,0.699,10.23,0.699,15.348L298.436,400.942z"/>
	<polygon fill="#6E7980" stroke="#58595B" stroke-width="1.1423" stroke-linecap="round" stroke-linejoin="round" points="
		105.422,99.035 76.048,163.816 236.291,163.816 216.806,98.371 	"/>
	<polygon fill="#DF9CB0" points="158.35,77.773 120.835,173.117 90.3,173.117 90.3,305.668 224.95,305.668 224.95,171.456 
		197.322,171.456 	"/>
	<rect x="93.659" y="253.352" fill="#C37A8C" width="130.273" height="11.146"/>
	<polygon fill="#C29F60" points="31.924,312.655 43.037,374.478 57.902,372.002 46.644,312.328 	"/>
	<rect x="70.6" y="313.149" fill="#C29F60" width="15.299" height="54.24"/>
	<polygon fill="#C29F60" points="104.37,312.161 105.668,366.564 119.666,365.244 117.645,312.493 	"/>
	<polygon fill="#C29F60" points="201.059,312.822 201.059,368.873 218.089,372.002 215.635,312.655 	"/>
	<rect x="226.877" y="311.158" fill="#C29F60" width="13.94" height="69.009"/>
	<rect x="90.05" y="173.117" fill="#FFFFFF" stroke="#D0ECF4" stroke-width="1.1423" width="7.628" height="132.941"/>
	<rect x="218.267" y="171.456" fill="#FFFFFF" stroke="#D0ECF4" stroke-width="1.1423" width="6.682" height="134.187"/>
	<linearGradient id="SVGID_7_" gradientUnits="userSpaceOnUse" x1="139.6617" y1="191.2542" x2="176.848" y2="191.2542">
		<stop  offset="0" style="stop-color:#75B2C7"/>
		<stop  offset="0.9837" style="stop-color:#75B2C7"/>
	</linearGradient>
	<path fill="url(#SVGID_7_)" d="M176.848,220.899h-37.186v-38.05c0-11.729,8.324-21.239,18.595-21.239l0,0
		c10.267,0,18.591,9.51,18.591,21.239V220.899z"/>
	<rect x="135.079" y="219.997" fill="#FFFFFF" stroke="#D0ECF4" stroke-width="1.1423" width="46.771" height="6.648"/>
	<linearGradient id="SVGID_8_" gradientUnits="userSpaceOnUse" x1="146.2904" y1="132.0536" x2="170.8894" y2="132.0536">
		<stop  offset="0" style="stop-color:#75B2C7"/>
		<stop  offset="0.9837" style="stop-color:#75B2C7"/>
	</linearGradient>
	<path fill="url(#SVGID_8_)" d="M170.889,132.05c0,7.766-5.505,14.055-12.3,14.055c-6.792,0-12.299-6.289-12.299-14.055
		c0-7.758,5.507-14.048,12.299-14.048C165.385,118.002,170.889,124.293,170.889,132.05z"/>
	<rect x="97.678" y="220.681" fill="#FFFFFF" stroke="#D0ECF4" stroke-width="1.1423" width="20.486" height="6.132"/>
	<g>
		<linearGradient id="SVGID_9_" gradientUnits="userSpaceOnUse" x1="197.9165" y1="202.0538" x2="213.3287" y2="202.0538">
			<stop  offset="0" style="stop-color:#75B2C7"/>
			<stop  offset="0.9837" style="stop-color:#75B2C7"/>
		</linearGradient>
		<rect x="197.916" y="183.427" fill="url(#SVGID_9_)" stroke="#FFFFFF" stroke-width="5.7114" width="15.412" height="37.254"/>
		<rect x="195.319" y="220.681" fill="#FFFFFF" stroke="#D0ECF4" stroke-width="1.1423" width="20.486" height="6.132"/>
		<rect x="187.94" y="183.427" fill="#9F2214" width="9.976" height="37.254"/>
		<rect x="213.295" y="183.427" fill="#9F2214" width="9.973" height="37.254"/>
		<polygon fill="#FFFFFF" points="197.916,203.146 197.916,200.863 213.293,200.863 213.293,203.146 197.916,203.146 		"/>
	</g>
	<linearGradient id="SVGID_10_" gradientUnits="userSpaceOnUse" x1="146.9627" y1="279.3354" x2="169.7407" y2="279.3354">
		<stop  offset="0" style="stop-color:#75B2C7"/>
		<stop  offset="0.9837" style="stop-color:#75B2C7"/>
	</linearGradient>
	<rect x="146.963" y="252.024" fill="url(#SVGID_10_)" stroke="#FFFFFF" stroke-width="5.7114" width="22.778" height="54.622"/>
	<rect x="139.533" y="251.836" fill="#9F2214" width="7.43" height="54.81"/>
	<rect x="169.421" y="251.836" fill="#9F2214" width="7.431" height="54.81"/>
	<polygon fill="#4A7195" points="149.759,282.872 149.759,278.868 166.953,278.868 166.953,282.872 149.759,282.872 	"/>
	<polygon fill="#FFFFFF" points="146.963,281.453 146.963,275.741 169.422,275.741 169.422,281.453 146.963,281.453 	"/>
	<g>
		<g>
			<rect x="190.301" y="186.346" fill="#C13D2E" width="5.308" height="12.683"/>
			<rect x="190.301" y="187.353" fill="#9F2214" width="5.308" height="1.02"/>
			<rect x="190.301" y="189.31" fill="#9F2214" width="5.308" height="1.018"/>
			<rect x="190.301" y="191.24" fill="#9F2214" width="5.308" height="1.02"/>
			<rect x="190.301" y="193.225" fill="#9F2214" width="5.308" height="1.018"/>
			<rect x="190.301" y="195.158" fill="#9F2214" width="5.308" height="1.015"/>
			<rect x="190.301" y="197.113" fill="#9F2214" width="5.308" height="1.018"/>
		</g>
		<g>
			<rect x="190.566" y="204.827" fill="#C13D2E" width="5.308" height="12.68"/>
			<rect x="190.566" y="205.838" fill="#9F2214" width="5.308" height="1.016"/>
			<rect x="190.566" y="207.792" fill="#9F2214" width="5.308" height="1.02"/>
			<rect x="190.566" y="209.723" fill="#9F2214" width="5.308" height="1.018"/>
			<rect x="190.566" y="211.705" fill="#9F2214" width="5.308" height="1.022"/>
			<rect x="190.566" y="213.638" fill="#9F2214" width="5.308" height="1.02"/>
			<rect x="190.566" y="215.595" fill="#9F2214" width="5.308" height="1.02"/>
		</g>
	</g>
	<g>
		<g>
			<rect x="215.73" y="186.346" fill="#C13D2E" width="5.307" height="12.683"/>
			<rect x="215.73" y="187.353" fill="#9F2214" width="5.307" height="1.02"/>
			<rect x="215.73" y="189.31" fill="#9F2214" width="5.307" height="1.018"/>
			<rect x="215.73" y="191.24" fill="#9F2214" width="5.307" height="1.02"/>
			<rect x="215.73" y="193.225" fill="#9F2214" width="5.307" height="1.018"/>
			<rect x="215.73" y="195.158" fill="#9F2214" width="5.307" height="1.015"/>
			<rect x="215.73" y="197.113" fill="#9F2214" width="5.307" height="1.018"/>
		</g>
		<g>
			<rect x="215.994" y="204.827" fill="#C13D2E" width="5.309" height="12.68"/>
			<rect x="215.994" y="205.838" fill="#9F2214" width="5.309" height="1.016"/>
			<rect x="215.994" y="207.792" fill="#9F2214" width="5.309" height="1.02"/>
			<rect x="215.994" y="209.723" fill="#9F2214" width="5.309" height="1.018"/>
			<rect x="215.994" y="211.705" fill="#9F2214" width="5.309" height="1.022"/>
			<rect x="215.994" y="213.638" fill="#9F2214" width="5.309" height="1.02"/>
			<rect x="215.994" y="215.595" fill="#9F2214" width="5.309" height="1.02"/>
		</g>
	</g>
	<g>
		<rect x="100.274" y="183.427" fill="#7989A3" stroke="#FFFFFF" stroke-width="5.7114" width="15.411" height="37.254"/>
		<polygon fill="#FFFFFF" points="100.275,203.146 100.275,200.863 115.653,200.863 115.653,203.146 100.275,203.146 		"/>
		<rect x="90.3" y="183.427" fill="#9F2214" width="9.974" height="37.254"/>
		<rect x="115.653" y="183.427" fill="#9F2214" width="9.973" height="37.254"/>
		<g>
			<g>
				<rect x="92.369" y="186.346" fill="#C13D2E" width="5.309" height="12.683"/>
				<rect x="92.369" y="187.353" fill="#9F2214" width="5.309" height="1.02"/>
				<rect x="92.369" y="189.31" fill="#9F2214" width="5.309" height="1.018"/>
				<rect x="92.369" y="191.24" fill="#9F2214" width="5.309" height="1.02"/>
				<rect x="92.369" y="193.225" fill="#9F2214" width="5.309" height="1.018"/>
				<rect x="92.369" y="195.158" fill="#9F2214" width="5.309" height="1.015"/>
				<rect x="92.369" y="197.113" fill="#9F2214" width="5.309" height="1.018"/>
			</g>
			<g>
				<rect x="92.632" y="204.827" fill="#C13D2E" width="5.311" height="12.68"/>
				<rect x="92.632" y="205.838" fill="#9F2214" width="5.311" height="1.016"/>
				<rect x="92.632" y="207.792" fill="#9F2214" width="5.311" height="1.02"/>
				<rect x="92.632" y="209.723" fill="#9F2214" width="5.311" height="1.018"/>
				<rect x="92.632" y="211.705" fill="#9F2214" width="5.311" height="1.022"/>
				<rect x="92.632" y="213.638" fill="#9F2214" width="5.311" height="1.02"/>
				<rect x="92.632" y="215.595" fill="#9F2214" width="5.311" height="1.02"/>
			</g>
		</g>
		<g>
			<g>
				<rect x="117.708" y="186.346" fill="#C13D2E" width="5.311" height="12.683"/>
				<rect x="117.708" y="187.353" fill="#9F2214" width="5.311" height="1.02"/>
				<rect x="117.708" y="189.31" fill="#9F2214" width="5.311" height="1.018"/>
				<rect x="117.708" y="191.24" fill="#9F2214" width="5.311" height="1.02"/>
				<rect x="117.708" y="193.225" fill="#9F2214" width="5.311" height="1.018"/>
				<rect x="117.708" y="195.158" fill="#9F2214" width="5.311" height="1.015"/>
				<rect x="117.708" y="197.113" fill="#9F2214" width="5.311" height="1.018"/>
			</g>
			<g>
				<rect x="117.973" y="204.827" fill="#C13D2E" width="5.308" height="12.68"/>
				<rect x="117.973" y="205.838" fill="#9F2214" width="5.308" height="1.016"/>
				<rect x="117.973" y="207.792" fill="#9F2214" width="5.308" height="1.02"/>
				<rect x="117.973" y="209.723" fill="#9F2214" width="5.308" height="1.018"/>
				<rect x="117.973" y="211.705" fill="#9F2214" width="5.308" height="1.022"/>
				<rect x="117.973" y="213.638" fill="#9F2214" width="5.308" height="1.02"/>
				<rect x="117.973" y="215.595" fill="#9F2214" width="5.308" height="1.02"/>
			</g>
		</g>
		<path fill="#FFCF01" d="M102.965,186.502c0,0-6.261,5.934,6.621,12.68c0,0,14.494-5.283,14.494-6.133
			c0-0.848-11.1,3.742-11.1-6.571L102.965,186.502z"/>
	</g>
	<linearGradient id="SVGID_11_" gradientUnits="userSpaceOnUse" x1="100.2741" y1="202.0538" x2="115.6851" y2="202.0538">
		<stop  offset="0" style="stop-color:#75B2C7"/>
		<stop  offset="0.9837" style="stop-color:#75B2C7"/>
	</linearGradient>
	<rect x="100.274" y="183.427" fill="url(#SVGID_11_)" stroke="#FFFFFF" stroke-width="5.7114" width="15.411" height="37.254"/>
	<polygon fill="#FFFFFF" points="100.275,203.146 100.275,200.863 115.653,200.863 115.653,203.146 100.275,203.146 	"/>
	<rect x="90.3" y="183.427" fill="#9F2214" width="9.974" height="37.254"/>
	<rect x="115.653" y="183.427" fill="#9F2214" width="9.973" height="37.254"/>
	<g>
		<g>
			<rect x="92.369" y="186.346" fill="#C13D2E" width="5.309" height="12.683"/>
			<rect x="92.369" y="187.353" fill="#9F2214" width="5.309" height="1.02"/>
			<rect x="92.369" y="189.31" fill="#9F2214" width="5.309" height="1.018"/>
			<rect x="92.369" y="191.24" fill="#9F2214" width="5.309" height="1.02"/>
			<rect x="92.369" y="193.225" fill="#9F2214" width="5.309" height="1.018"/>
			<rect x="92.369" y="195.158" fill="#9F2214" width="5.309" height="1.015"/>
			<rect x="92.369" y="197.113" fill="#9F2214" width="5.309" height="1.018"/>
		</g>
		<g>
			<rect x="92.632" y="204.827" fill="#C13D2E" width="5.311" height="12.68"/>
			<rect x="92.632" y="205.838" fill="#9F2214" width="5.311" height="1.016"/>
			<rect x="92.632" y="207.792" fill="#9F2214" width="5.311" height="1.02"/>
			<rect x="92.632" y="209.723" fill="#9F2214" width="5.311" height="1.018"/>
			<rect x="92.632" y="211.705" fill="#9F2214" width="5.311" height="1.022"/>
			<rect x="92.632" y="213.638" fill="#9F2214" width="5.311" height="1.02"/>
			<rect x="92.632" y="215.595" fill="#9F2214" width="5.311" height="1.02"/>
		</g>
	</g>
	<g>
		<g>
			<rect x="117.708" y="186.346" fill="#C13D2E" width="5.311" height="12.683"/>
			<rect x="117.708" y="187.353" fill="#9F2214" width="5.311" height="1.02"/>
			<rect x="117.708" y="189.31" fill="#9F2214" width="5.311" height="1.018"/>
			<rect x="117.708" y="191.24" fill="#9F2214" width="5.311" height="1.02"/>
			<rect x="117.708" y="193.225" fill="#9F2214" width="5.311" height="1.018"/>
			<rect x="117.708" y="195.158" fill="#9F2214" width="5.311" height="1.015"/>
			<rect x="117.708" y="197.113" fill="#9F2214" width="5.311" height="1.018"/>
		</g>
		<g>
			<rect x="117.973" y="204.827" fill="#C13D2E" width="5.308" height="12.68"/>
			<rect x="117.973" y="205.838" fill="#9F2214" width="5.308" height="1.016"/>
			<rect x="117.973" y="207.792" fill="#9F2214" width="5.308" height="1.02"/>
			<rect x="117.973" y="209.723" fill="#9F2214" width="5.308" height="1.018"/>
			<rect x="117.973" y="211.705" fill="#9F2214" width="5.308" height="1.022"/>
			<rect x="117.973" y="213.638" fill="#9F2214" width="5.308" height="1.02"/>
			<rect x="117.973" y="215.595" fill="#9F2214" width="5.308" height="1.02"/>
		</g>
	</g>
	<g>
		<linearGradient id="SVGID_12_" gradientUnits="userSpaceOnUse" x1="100.2741" y1="270.3758" x2="115.6851" y2="270.3758">
			<stop  offset="0" style="stop-color:#75B2C7"/>
			<stop  offset="0.9837" style="stop-color:#75B2C7"/>
		</linearGradient>
		<rect x="100.274" y="251.751" fill="url(#SVGID_12_)" stroke="#FFFFFF" stroke-width="5.7114" width="15.411" height="37.25"/>
		<polygon fill="#FFFFFF" points="100.272,271.473 100.272,269.188 115.654,269.188 115.654,271.473 100.272,271.473 		"/>
		<rect x="90.3" y="251.751" fill="#9F2214" width="9.974" height="37.25"/>
		<rect x="115.653" y="251.751" fill="#9F2214" width="9.973" height="37.25"/>
		<g>
			<g>
				<rect x="92.369" y="254.672" fill="#C13D2E" width="5.309" height="12.678"/>
				<rect x="92.369" y="255.675" fill="#9F2214" width="5.309" height="1.02"/>
				<rect x="92.369" y="257.634" fill="#9F2214" width="5.309" height="1.018"/>
				<rect x="92.369" y="259.568" fill="#9F2214" width="5.309" height="1.013"/>
				<rect x="92.369" y="261.549" fill="#9F2214" width="5.309" height="1.016"/>
				<rect x="92.369" y="263.48" fill="#9F2214" width="5.309" height="1.018"/>
				<rect x="92.369" y="265.437" fill="#9F2214" width="5.309" height="1.018"/>
			</g>
			<g>
				<rect x="92.632" y="273.15" fill="#C13D2E" width="5.311" height="12.68"/>
				<rect x="92.632" y="274.158" fill="#9F2214" width="5.311" height="1.02"/>
				<rect x="92.632" y="276.117" fill="#9F2214" width="5.311" height="1.018"/>
				<rect x="92.632" y="278.045" fill="#9F2214" width="5.311" height="1.022"/>
				<rect x="92.632" y="280.032" fill="#9F2214" width="5.311" height="1.015"/>
				<rect x="92.632" y="281.963" fill="#9F2214" width="5.311" height="1.015"/>
				<rect x="92.632" y="283.917" fill="#9F2214" width="5.311" height="1.02"/>
			</g>
		</g>
		<g>
			<g>
				<rect x="117.708" y="254.672" fill="#C13D2E" width="5.311" height="12.678"/>
				<rect x="117.708" y="255.675" fill="#9F2214" width="5.311" height="1.02"/>
				<rect x="117.708" y="257.634" fill="#9F2214" width="5.311" height="1.018"/>
				<rect x="117.708" y="259.568" fill="#9F2214" width="5.311" height="1.013"/>
				<rect x="117.708" y="261.549" fill="#9F2214" width="5.311" height="1.016"/>
				<rect x="117.708" y="263.48" fill="#9F2214" width="5.311" height="1.018"/>
				<rect x="117.708" y="265.437" fill="#9F2214" width="5.311" height="1.018"/>
			</g>
			<g>
				<rect x="117.973" y="273.15" fill="#C13D2E" width="5.308" height="12.68"/>
				<rect x="117.973" y="274.158" fill="#9F2214" width="5.308" height="1.02"/>
				<rect x="117.973" y="276.117" fill="#9F2214" width="5.308" height="1.018"/>
				<rect x="117.973" y="278.045" fill="#9F2214" width="5.308" height="1.022"/>
				<rect x="117.973" y="280.032" fill="#9F2214" width="5.308" height="1.015"/>
				<rect x="117.973" y="281.963" fill="#9F2214" width="5.308" height="1.015"/>
				<rect x="117.973" y="283.917" fill="#9F2214" width="5.308" height="1.02"/>
			</g>
		</g>
	</g>
	<g>
		<linearGradient id="SVGID_13_" gradientUnits="userSpaceOnUse" x1="197.9165" y1="270.3758" x2="213.3287" y2="270.3758">
			<stop  offset="0" style="stop-color:#75B2C7"/>
			<stop  offset="0.9837" style="stop-color:#75B2C7"/>
		</linearGradient>
		<rect x="197.916" y="251.751" fill="url(#SVGID_13_)" stroke="#FFFFFF" stroke-width="5.7114" width="15.412" height="37.25"/>
		<polygon fill="#FFFFFF" points="197.918,271.473 197.918,269.188 213.295,269.188 213.295,271.473 197.918,271.473 		"/>
		<rect x="187.94" y="251.751" fill="#9F2214" width="9.976" height="37.25"/>
		<rect x="213.295" y="251.751" fill="#9F2214" width="9.973" height="37.25"/>
		<g>
			<g>
				<rect x="190.01" y="254.672" fill="#C13D2E" width="5.309" height="12.678"/>
				<rect x="190.01" y="255.675" fill="#9F2214" width="5.309" height="1.02"/>
				<rect x="190.01" y="257.634" fill="#9F2214" width="5.309" height="1.018"/>
				<rect x="190.01" y="259.568" fill="#9F2214" width="5.309" height="1.013"/>
				<rect x="190.01" y="261.549" fill="#9F2214" width="5.309" height="1.016"/>
				<rect x="190.01" y="263.48" fill="#9F2214" width="5.309" height="1.018"/>
				<rect x="190.01" y="265.437" fill="#9F2214" width="5.309" height="1.018"/>
			</g>
			<g>
				<rect x="190.277" y="273.15" fill="#C13D2E" width="5.309" height="12.68"/>
				<rect x="190.277" y="274.158" fill="#9F2214" width="5.309" height="1.02"/>
				<rect x="190.277" y="276.117" fill="#9F2214" width="5.309" height="1.018"/>
				<rect x="190.277" y="278.045" fill="#9F2214" width="5.309" height="1.022"/>
				<rect x="190.277" y="280.032" fill="#9F2214" width="5.309" height="1.015"/>
				<rect x="190.277" y="281.963" fill="#9F2214" width="5.309" height="1.015"/>
				<rect x="190.277" y="283.917" fill="#9F2214" width="5.309" height="1.02"/>
			</g>
		</g>
		<g>
			<g>
				<rect x="215.35" y="254.672" fill="#C13D2E" width="5.311" height="12.678"/>
				<rect x="215.35" y="255.675" fill="#9F2214" width="5.311" height="1.02"/>
				<rect x="215.35" y="257.634" fill="#9F2214" width="5.311" height="1.018"/>
				<rect x="215.35" y="259.568" fill="#9F2214" width="5.311" height="1.013"/>
				<rect x="215.35" y="261.549" fill="#9F2214" width="5.311" height="1.016"/>
				<rect x="215.35" y="263.48" fill="#9F2214" width="5.311" height="1.018"/>
				<rect x="215.35" y="265.437" fill="#9F2214" width="5.311" height="1.018"/>
			</g>
			<g>
				<rect x="215.614" y="273.15" fill="#C13D2E" width="5.311" height="12.68"/>
				<rect x="215.614" y="274.158" fill="#9F2214" width="5.311" height="1.02"/>
				<rect x="215.614" y="276.117" fill="#9F2214" width="5.311" height="1.018"/>
				<rect x="215.614" y="278.045" fill="#9F2214" width="5.311" height="1.022"/>
				<rect x="215.614" y="280.032" fill="#9F2214" width="5.311" height="1.015"/>
				<rect x="215.614" y="281.963" fill="#9F2214" width="5.311" height="1.015"/>
				<rect x="215.614" y="283.917" fill="#9F2214" width="5.311" height="1.02"/>
			</g>
		</g>
	</g>
	<polygon fill="#6E7980" stroke="#58595B" stroke-width="1.1423" stroke-linecap="round" stroke-linejoin="round" points="
		66.439,226.812 46.827,249.215 269.479,249.215 241.511,226.812 	"/>
	<rect x="115.553" y="279.974" fill="#FFFFFF" stroke="#D0ECF4" stroke-width="1.1423" width="3.771" height="25.669"/>
	<rect x="102.209" y="279.974" fill="#FFFFFF" stroke="#D0ECF4" stroke-width="1.1423" width="3.77" height="25.669"/>
	<rect x="80.196" y="279.974" fill="#FFFFFF" stroke="#D0ECF4" stroke-width="1.1423" width="3.769" height="25.669"/>
	<rect x="64.065" y="279.974" fill="#FFFFFF" stroke="#D0ECF4" stroke-width="1.1423" width="3.767" height="25.669"/>
	<rect x="247.5" y="279.974" fill="#FFFFFF" stroke="#D0ECF4" stroke-width="1.1423" width="3.769" height="25.669"/>
	<rect x="234.156" y="279.974" fill="#FFFFFF" stroke="#D0ECF4" stroke-width="1.1423" width="3.771" height="25.669"/>
	<rect x="212.144" y="279.974" fill="#FFFFFF" stroke="#D0ECF4" stroke-width="1.1423" width="3.769" height="25.669"/>
	<rect x="196.01" y="279.974" fill="#FFFFFF" stroke="#D0ECF4" stroke-width="1.1423" width="3.771" height="25.669"/>
	<polygon fill="#C37A8C" points="220.872,167.22 220.872,177.66 193.955,177.66 154.035,83.213 159.215,73.004 199.54,167.22 	"/>
	<polygon fill="#C37A8C" points="118.423,177.66 120.835,173.117 98.189,173.19 98.189,177.66 	"/>
	<path fill="#876041" d="M32.386,315.664l14.726-0.61l2.439,12.68c0,0-5.85-0.244-13.798,6.215L32.386,315.664z"/>
	<path fill="#876041" d="M70.6,313.149v14.593c0,0,6.344-4.112,15.299,0.394v-14.987H70.6z"/>
	<path fill="#876041" d="M117.645,312.493l0.461,12.078c0,0-5.916-2.091-13.378,2.582l-0.358-14.992L117.645,312.493z"/>
	<path fill="#876041" d="M201.059,327.834c0,0,6.87-3.408,15.338,3.222l-0.762-18.401l-14.577,0.167V327.834z"/>
	<path fill="#876041" d="M226.877,311.158v19.5c0,0,7.537-3.92,13.94,0.139v-19.639H226.877z"/>
	<rect x="25.035" y="305.643" fill="#DAC895" stroke="#F7E8BA" stroke-width="1.1423" width="248.439" height="10.374"/>
	<polygon fill="#4B545B" points="142.344,98.814 117.346,164.148 90.789,163.816 133.969,98.889 	"/>
	<polygon fill="#FFFFFF" stroke="#D0ECF4" stroke-width="1.1423" points="73.432,164.148 73.432,173.117 120.835,173.117 
		158.35,77.773 197.322,171.456 237.744,171.456 237.744,163.816 201.977,163.816 164.168,69.137 153.698,69.137 117.346,164.148 	
		"/>
	<rect x="102.956" y="255.643" fill="#3E6D93" width="10.043" height="3.125"/>
	<rect x="149.65" y="255.559" fill="#3E6D93" width="17.348" height="6.755"/>
	<rect x="200.592" y="255.687" fill="#476F93" width="10.055" height="4.041"/>
	<polygon fill="#CAB47E" points="188.264,332.846 133.685,332.846 131.439,323.258 188.942,323.258 	"/>
	<polygon fill="#F7E8BA" points="129.188,331.648 131.366,344.323 190.289,344.323 193.29,331.648 	"/>
	<polygon fill="#CAB47E" points="127.315,342.782 130.238,354.428 195.013,354.428 197.636,343.809 	"/>
	<polygon fill="#F7E8BA" points="127.764,353.404 127.69,362.651 198.984,366.503 199.883,352.889 	"/>
	<path fill="#5E8D66" d="M129.297,398.378c0.348,0.088,0.863-8.957,2.574-13.324c0.918-2.339,1.909-4.613,2.914-6.89
		c0.453-1.039,0.739-2.267,1.328-3.204c-4.269,3.252-9.169,5.267-13.143,9.071c-1.273,1.215-2.368,2.534-3.188,4.184
		c-0.394,0.79-0.633,1.716-1.088,2.453c-0.034-1.91,1.304-4.182,1.916-5.934c0.919-2.65,2.059-5.07,3.205-7.597
		c1.187-2.613,4.24-5.832,4.399-8.911c-4.049,3.614-9.2,5.299-12.642,9.845c-2.361,3.116-4.645,7.121-5.844,11.048
		c0.018-4.4,1.791-9.145,2.848-13.329c0.916-3.607,1.677-7.309,2.461-10.942c-5.176,3.823-8.898,11.484-10.216,18.258
		c-0.336,1.725-0.438,3.519-0.484,5.278c-0.016,0.684,0.045,1.532-0.273,2.047c-2.783-4.078-5.619-8.264-8.794-11.952
		c-3.132-3.637-6.902-8.628-11.311-10.239c0.081,1.14,1.201,2.471,1.703,3.461c1.239,2.434,2.413,4.926,3.57,7.418
		c0.962,2.082,1.887,4.18,2.778,6.301c0.931,2.214,1.268,4.458,1.993,6.723c-0.953-1.293-2.342-2.251-3.586-3.113
		c-2.242-1.544-4.54-3.011-6.811-4.49c-2.196-1.433-5.592-2.99-8.172-2.884c0.895,1.208,2.428,1.878,3.551,2.773
		c2.142,1.699,4.118,3.67,5.791,5.951c2.594,3.545,4.512,7.052,6.457,11.058c-1.523-4.008-6.76-6.628-10.061-8.178
		c-3.166-1.493-7.062-2.42-10.484-2.671c1.503,1.301,3.662,1.929,5.295,3.104c2.442,1.759,4.358,4.152,5.728,7.031
		c1.319,2.789,2.464,5.6,2.964,8.732C84.674,409.454,112.596,394.175,129.297,398.378z"/>
	<g>
		<path fill="#3E6D93" d="M156.809,161.61c-4.285,0-8.213,1.815-11.281,4.833c1.261-0.228,2.554-0.359,3.885-0.359
			c11.372,0,20.592,8.81,20.592,19.678v28.153c0,2.464-0.496,4.81-1.36,6.984h5.926v-38.05
			C174.572,171.12,166.617,161.61,156.809,161.61z"/>
	</g>
	<polygon fill="#4A7195" points="139.663,190.282 139.663,184.571 176.849,184.571 176.849,190.282 139.663,190.282 	"/>
	<polygon fill="#FFFFFF" points="139.66,185.701 139.66,179.992 176.848,179.992 176.848,185.701 139.66,185.701 	"/>
	<path fill="#3E6D93" d="M102.862,196.188c0,0,2.057,3.804,10.063,3.804v-8.336h-10.063V196.188z"/>
	<path fill="#FFCF01" d="M102.965,186.502c0,0-6.261,5.934,6.621,12.68c0,0,14.494-5.283,14.494-6.133
		c0-0.848-11.1,3.742-11.1-6.571L102.965,186.502z"/>
	<path fill="#3E6D93" d="M200.523,192.557c0,0,2.49,8.152,7.135,8.152c0.254,0,2.937,0.115,2.937,0.115l-0.047-14.261l-9.937-0.058
		L200.523,192.557z"/>
	<path fill="#FFCF01" d="M200.611,186.504c0,0,2.384,12.884,14.73,12.884c0,0,12.169-6.343,12.169-3.884
		c0,2.458-11.856,3.029-16.963-8.942L200.611,186.504z"/>
	<g>
		<path fill="#3E6D93" d="M154.296,122.833c7.419,0,13.432,6.87,13.432,15.346c0,1.313-0.16,2.584-0.43,3.801
			c2.221-2.542,3.591-6.051,3.591-9.93c0-7.758-5.505-14.048-12.3-14.048c-4.355,0-8.176,2.596-10.359,6.499
			C150.053,123.444,152.11,122.833,154.296,122.833z"/>
	</g>
	<polygon fill="#C2A171" points="135.184,305.066 123.919,316.629 136.26,316.629 135.991,305.066 	"/>
	<rect x="135.373" y="304.625" fill="#CAB47E" width="49.788" height="9.147"/>
	<polygon fill="#F7E8BA" points="186.314,323.771 135.262,323.771 133.642,312.783 187.758,312.783 	"/>
	<rect x="90.11" y="173.117" fill="#D0ECF4" width="7.568" height="4.523"/>
	<rect x="217.72" y="171.891" fill="#D0ECF4" width="7.229" height="6.774"/>
	<g>
		<polygon fill="#FFFAEC" points="59.171,467.412 58.395,470.657 62.914,468.967 		"/>
		<path fill="#FFFAEC" d="M62.567,463.307l-1.977,6.577l-7.687-3.229c-1.41-2.784-0.523-5.73,1.979-6.577
			C57.382,459.229,60.824,460.678,62.567,463.307z"/>
	</g>
	<rect x="64.065" y="281.694" fill="#D0ECF4" width="3.767" height="4.548"/>
	<rect x="80.196" y="281.694" fill="#D0ECF4" width="3.769" height="4.548"/>
	<rect x="102.209" y="281.694" fill="#D0ECF4" width="3.77" height="4.365"/>
	<rect x="115.553" y="281.694" fill="#D0ECF4" width="3.771" height="4.136"/>
	<rect x="196.01" y="281.694" fill="#D0ECF4" width="3.771" height="5.357"/>
	<rect x="212.144" y="281.694" fill="#D0ECF4" width="3.769" height="4.815"/>
	<rect x="234.156" y="281.694" fill="#D0ECF4" width="3.771" height="5.807"/>
	<rect x="247.5" y="281.694" fill="#D0ECF4" width="3.769" height="6.076"/>
	<rect x="182.547" y="255.022" fill="#FFFFFF" stroke="#D0ECF4" stroke-width="1.1423" width="5.116" height="50.621"/>
	<rect x="260.48" y="255.022" fill="#FFFFFF" stroke="#D0ECF4" stroke-width="1.1423" width="5.12" height="50.621"/>
	<rect x="187.663" y="277.561" fill="#FFFFFF" stroke="#D0ECF4" stroke-width="1.1423" width="72.815" height="4.133"/>
	<rect x="182.547" y="255.022" fill="#D0ECF4" width="5.116" height="6.312"/>
	<rect x="260.48" y="255.021" fill="#D0ECF4" width="5.12" height="6.394"/>
	<rect x="55.995" y="277.561" fill="#FFFFFF" stroke="#D0ECF4" stroke-width="1.1423" width="72.537" height="4.133"/>
	<rect x="50.877" y="255.022" fill="#FFFFFF" stroke="#D0ECF4" stroke-width="1.1423" width="5.119" height="50.621"/>
	<rect x="128.532" y="255.022" fill="#FFFFFF" stroke="#D0ECF4" stroke-width="1.1423" width="5.12" height="50.621"/>
	<rect x="50.283" y="255.736" fill="#D0ECF4" width="6.171" height="6.676"/>
	<rect x="128.532" y="255.022" fill="#D0ECF4" width="5.12" height="6.528"/>
	<rect x="46.827" y="249.215" fill="#FFFFFF" stroke="#D0ECF4" stroke-width="1.1423" width="221.561" height="5.807"/>
	<path fill="#4B545B" d="M103.456,227.389c0,0,3.284,5.095,10.951,6.5l9.03-4.221c0,0-4.214-0.686-5.611-2.279H103.456z"/>
	<path fill="#4B545B" d="M200.377,227.306c0,0,8.763,9.426,19.979,8.848l5.501-6.451c0,0-6.659,0.334-10.571-2.397H200.377z"/>
	<g>
		<g>
			<g>
				<g>
					<path fill="#EFE4AC" d="M28.688,338.595c-1.556,22.326-3.466,40.876-13.9,39.408c-10.438-1.465-9.821-19.101-8.263-41.425
						c1.555-22.319,7.778-39.967,13.902-39.408C26.547,297.726,30.245,316.274,28.688,338.595z"/>
					<path fill="#83A7BF" d="M22.6,298.192l-4.103,79.385c-1.1,0.466-2.331,0.623-3.709,0.426c-1.667-0.232-3.051-0.879-4.196-1.889
						l7.432-78.258c0.797-0.522,1.601-0.76,2.403-0.686C21.19,297.237,21.917,297.59,22.6,298.192z"/>
				</g>
			</g>
		</g>
		<polygon fill="#F26922" points="16.881,298.593 9.391,374.893 10.592,376.114 18.024,297.856 		"/>
		<polygon fill="#F26922" points="22.052,297.868 17.939,377.663 19.099,377.181 22.896,298.593 		"/>
	</g>
	<path fill="#5E8D66" d="M52.661,393.354c3.375,1.613,1.481-8.285,3.389-11.762c1.093-1.996,2.43-3.885,3.788-5.656
		c0.468-0.607,1.213-1.277,1.461-1.996c-2.186,0.698-4.454,2.119-6.513,3.22c-1.564,0.834-3.292,1.708-4.631,2.972
		c-1.208,1.141-1.977,2.888-3.246,3.869c0.051-3.966,1.168-7.9,1.976-11.741c1.002-4.778,2.988-9.05,4.35-13.668
		c-1.124,1.922-2.767,3.431-3.972,5.304c-1.691,2.631-2.981,5.459-4.153,8.426c-1.367,3.456-2.292,7.126-3.652,10.557
		c-0.598-4.845-0.993-9.703-1.495-14.567c-0.256-2.494-0.607-5.153-1.324-7.534c-0.518-1.722-1.359-3.417-1.716-5.193
		c-0.489,2.214-0.384,4.65-0.447,6.936c-0.099,3.693-0.144,7.409-0.046,11.101c0.097,3.663,0.275,7.353,0.445,11.009
		c-0.858-2.585-3.14-5.074-4.61-7.232c-1.873-2.742-3.939-5.283-6.274-7.506c-1.711-1.636-3.386-3.319-5.115-4.926
		c-1.126-1.046-2.535-2.462-3.907-3.097c-0.378,1.597,0.531,3.67,1.052,5.088c1.549,4.21,3.492,7.868,5.989,11.412
		c1.913,2.722,3.987,5.784,6.71,7.518c-3.977-2.156-7.601-4.189-12.086-4.516c-2.034-0.148-3.563,0.109-5.392,1.113
		c-0.898,0.487-1.771,1.046-2.675,1.523c4.197,0.327,7.868,0.216,11.643,2.652c3.056,1.973,5.722,5.659,7.198,9.261
		C29.407,395.921,41.707,388.122,52.661,393.354z"/>
	<path fill="#CCA874" d="M-4.445,427.169c-0.613-0.148-0.987-0.765-0.84-1.377l0,0c0.144-0.617,0.76-0.992,1.378-0.844l0,0
		c0.009-0.004,2.839,0.677,7.05,1.363l0,0c4.206,0.682,9.795,1.361,15.339,1.361l0,0c5.539,0.007,11.01-0.7,14.875-2.636l0,0
		c7.514-3.746,18.697-5.851,29.691-5.856l0,0c7.629,0,15.157,1.013,21.297,3.313l0,0c1.384-0.468,6.063-1.891,11.989-1.894l0,0
		c3.514,0,7.484,0.503,11.443,2.047l0,0c2.202,0.851,4.068,1.157,5.786,1.161l0,0c5.297,0.065,9.642-3.255,17.043-3.299l0,0
		c1.849,0,3.879,0.22,6.145,0.767l0,0c0.622-0.009,2.994-0.046,6.434-0.046l0,0c10.624,0.005,31.34,0.297,42.601,2.631l0,0
		c0.617,0.13,1.012,0.73,0.883,1.349l0,0c-0.129,0.616-0.736,1.015-1.353,0.888l0,0c-10.827-2.26-31.587-2.587-42.132-2.582l0,0
		c-4.014,0-6.552,0.044-6.557,0.044l0,0l-0.296-0.035c-2.148-0.533-4.024-0.735-5.727-0.735l0,0
		c-6.601-0.044-10.768,3.234-17.043,3.299l0,0c-1.999,0.004-4.176-0.366-6.616-1.314l0,0c-3.634-1.416-7.311-1.889-10.613-1.889l0,0
		c-6.607-0.007-11.587,1.885-11.598,1.894l0,0c-0.262,0.1-0.553,0.1-0.819-0.004l0,0c-5.825-2.26-13.281-3.313-20.869-3.313l0,0
		c-10.694-0.005-21.658,2.105-28.673,5.619l0,0c-4.419,2.191-10.16,2.868-15.893,2.877l0,0
		C7.033,429.953-4.402,427.178-4.445,427.169L-4.445,427.169z"/>
	<path fill="#767769" d="M217.905,419.447c-30.687-20.947-104.496-25.105-157.688-25.096l0,0c-34.417,0-60.16,1.727-60.219,1.727
		l0,0v0.005c-0.158,0.009-0.291-0.109-0.301-0.267l0,0c-0.014-0.158,0.104-0.297,0.262-0.306l0,0c0.005,0,25.822-1.732,60.259-1.732
		l0,0c53.242,0.014,127.026,4.101,158.014,25.201l0,0c0.129,0.088,0.158,0.262,0.07,0.394l0,0c-0.056,0.081-0.146,0.123-0.236,0.123
		l0,0C218.008,419.496,217.953,419.48,217.905,419.447L217.905,419.447z"/>
	<path fill="#767769" d="M183.903,422.906c-23.511-7.754-65.441-9.822-103.314-9.815l0,0c-42.888,0-80.509,2.64-80.592,2.645l0,0
		h0.005c-0.158,0.009-0.296-0.109-0.306-0.262l0,0c-0.015-0.158,0.104-0.297,0.262-0.306l0,0c0.005,0,37.72-2.65,80.632-2.65l0,0
		c37.897,0,79.837,2.051,103.492,9.85l0,0c0.147,0.049,0.232,0.206,0.182,0.359l0,0c-0.043,0.118-0.153,0.192-0.27,0.192l0,0
		C183.964,422.92,183.934,422.915,183.903,422.906L183.903,422.906z"/>
	<path fill="#B25538" d="M216.561,427.199c-0.621-0.118-1.032-0.714-0.913-1.333l0,0l2.069-10.976
		c0.118-0.619,0.715-1.027,1.338-0.913l0,0c0.617,0.118,1.027,0.714,0.909,1.338l0,0l-2.069,10.979
		c-0.104,0.545-0.583,0.927-1.119,0.927l0,0C216.705,427.22,216.633,427.213,216.561,427.199L216.561,427.199z"/>
	<path fill="#B25538" d="M207.338,424.788c-0.592-0.218-0.898-0.874-0.686-1.467l0,0l5.839-16.139
		c0.217-0.593,0.868-0.899,1.461-0.686l0,0c0.598,0.216,0.904,0.869,0.686,1.465l0,0l-5.838,16.134
		c-0.167,0.471-0.607,0.76-1.076,0.76l0,0C207.596,424.855,207.466,424.832,207.338,424.788L207.338,424.788z"/>
	<path fill="#B25538" d="M198.574,424.811c-0.612-0.167-0.968-0.79-0.804-1.402l0,0l5.276-19.368
		c0.168-0.612,0.794-0.967,1.401-0.804l0,0c0.612,0.169,0.968,0.795,0.804,1.407l0,0l-5.276,19.368
		c-0.14,0.508-0.599,0.841-1.1,0.841l0,0C198.775,424.853,198.674,424.839,198.574,424.811L198.574,424.811z"/>
	<path fill="#B25538" d="M191.394,425.025c-0.603-0.178-0.953-0.811-0.775-1.423l0,0l5.651-19.368c0.179-0.6,0.81-0.95,1.416-0.774
		l0,0c0.607,0.178,0.953,0.813,0.78,1.421l0,0l-5.656,19.368c-0.146,0.496-0.6,0.823-1.095,0.823l0,0
		C191.609,425.071,191.501,425.055,191.394,425.025L191.394,425.025z"/>
	<path fill="#B25538" d="M182.85,422.635c0.103-4.161,7.053-19.681,7.068-19.825l0,0c0.251-0.577,0.922-0.839,1.505-0.589l0,0
		c0.577,0.253,0.839,0.925,0.587,1.502l0,0c-0.005,0.009-1.737,3.966-3.469,8.355l0,0c-1.737,4.323-3.46,9.354-3.407,10.557l0,0
		c0,0.633-0.512,1.145-1.139,1.145l0,0C183.363,423.78,182.85,423.268,182.85,422.635L182.85,422.635z"/>
	<path fill="#B25538" d="M178.062,423.309c-0.612-0.153-0.982-0.774-0.829-1.386l0,0l5.652-22.377
		c0.153-0.612,0.774-0.987,1.386-0.828l0,0c0.612,0.153,0.982,0.774,0.829,1.386l0,0l-5.65,22.377
		c-0.13,0.519-0.596,0.862-1.108,0.862l0,0C178.249,423.344,178.156,423.335,178.062,423.309L178.062,423.309z"/>
	<path fill="#B25538" d="M172.318,423.55c-0.622-0.104-1.047-0.693-0.948-1.314l0,0l3.771-23.453
		c0.099-0.621,0.686-1.045,1.308-0.948l0,0c0.621,0.1,1.046,0.686,0.947,1.307l0,0l-3.766,23.46
		c-0.093,0.561-0.577,0.962-1.131,0.962l0,0C172.44,423.564,172.379,423.56,172.318,423.55L172.318,423.55z"/>
	<path fill="#B25538" d="M164.01,422.206c0.01-2.128,2.078-25.024,2.078-25.064l0,0c0.059-0.63,0.612-1.094,1.238-1.036l0,0
		c0.632,0.056,1.091,0.612,1.037,1.24l0,0c0,0.023-2.073,23.112-2.069,24.86l0,0c0,0.631-0.508,1.143-1.139,1.143l0,0
		C164.524,423.349,164.01,422.837,164.01,422.206L164.01,422.206z"/>
	<path fill="#B25538" d="M157.76,424.424c-0.632-0.03-1.121-0.559-1.096-1.192l0,0l1.131-28.191c0.024-0.633,0.558-1.12,1.189-1.096
		l0,0c0.627,0.025,1.12,0.554,1.095,1.185l0,0l-1.13,28.193c-0.029,0.617-0.533,1.101-1.144,1.101l0,0
		C157.791,424.424,157.775,424.424,157.76,424.424L157.76,424.424z"/>
	<path fill="#B25538" d="M148.632,422.637c-0.044-0.139-0.044-0.195-0.055-0.234l0,0c-0.009-0.079-0.009-0.102-0.009-0.127l0,0
		c0-0.039,0-0.058,0-0.07l0,0c0-0.093,0.012-0.183,0.033-0.271l0,0c0.004-0.035,0.007-0.074,0.012-0.118l0,0
		c0.02-0.211,0.044-0.533,0.074-0.944l0,0c0.064-0.809,0.148-1.977,0.247-3.385l0,0c0.197-2.802,0.455-6.549,0.706-10.295l0,0
		c0.508-7.488,1.001-14.959,1.001-14.975l0,0c0.039-0.63,0.583-1.103,1.215-1.064l0,0c0.626,0.039,1.105,0.582,1.065,1.212l0,0
		c-0.005,0.021-1.836,27.855-2.057,29.899l0,0c-0.045,0.158,0.059-0.044-0.113,0.464l0,0c-0.099,0.035,0,0.489-1.036,0.665l0,0
		C148.71,423.258,148.691,422.681,148.632,422.637L148.632,422.637z"/>
	<path fill="#B25538" d="M142.863,424.638c-0.627-0.035-1.11-0.573-1.081-1.205l0,0l1.698-31.849
		c0.035-0.628,0.573-1.11,1.204-1.076l0,0c0.627,0.033,1.11,0.573,1.081,1.199l0,0l-1.698,31.849
		c-0.033,0.607-0.538,1.082-1.142,1.082l0,0C142.905,424.638,142.884,424.638,142.863,424.638L142.863,424.638z"/>
	<path fill="#B25538" d="M132.743,422.419v-33.784c0-0.635,0.513-1.145,1.145-1.145l0,0c0.627,0,1.139,0.51,1.139,1.145l0,0v33.784
		c0,0.63-0.512,1.145-1.139,1.145l0,0C133.257,423.564,132.743,423.05,132.743,422.419L132.743,422.419z"/>
	<path fill="#B25538" d="M122.766,423.543c-0.626-0.107-1.041-0.696-0.932-1.317l0,0l5.651-32.711
		c0.109-0.623,0.697-1.036,1.318-0.93l0,0c0.622,0.104,1.042,0.698,0.933,1.319l0,0l-5.651,32.707
		c-0.096,0.559-0.58,0.951-1.121,0.951l0,0C122.898,423.562,122.832,423.555,122.766,423.543L122.766,423.543z"/>
	<path fill="#B25538" d="M114.629,423.541c-0.618-0.127-1.016-0.73-0.894-1.347l0,0l6.968-34.647
		c0.129-0.616,0.731-1.018,1.348-0.895l0,0c0.617,0.125,1.021,0.733,0.894,1.349l0,0l-6.969,34.647
		c-0.108,0.538-0.587,0.913-1.123,0.913l0,0C114.78,423.562,114.704,423.555,114.629,423.541L114.629,423.541z"/>
	<path fill="#B25538" d="M107.84,424.612c-0.617-0.13-1.012-0.735-0.883-1.354l0,0l8.104-38.518
		c0.129-0.616,0.736-1.011,1.353-0.883l0,0c0.617,0.13,1.012,0.737,0.883,1.354l0,0l-8.104,38.518
		c-0.111,0.536-0.585,0.909-1.113,0.909l0,0C108.002,424.638,107.922,424.628,107.84,424.612L107.84,424.612z"/>
	<path fill="#B25538" d="M101.023,423.344c-0.632-0.044-1.106-0.591-1.06-1.224l0,0l2.868-40.069
		c0.044-0.628,0.592-1.101,1.218-1.057l0,0c0.632,0.044,1.106,0.591,1.062,1.224l0,0l-2.868,40.069
		c-0.043,0.6-0.546,1.059-1.138,1.059l0,0C101.077,423.346,101.051,423.346,101.023,423.344L101.023,423.344z"/>
	<path fill="#B25538" d="M93.48,422.268c-0.627-0.049-1.096-0.603-1.051-1.229l0,0l3.198-40.843c0.049-0.631,0.601-1.101,1.229-1.05
		l0,0c0.627,0.049,1.101,0.603,1.051,1.229l0,0l-3.198,40.843c-0.047,0.596-0.55,1.055-1.139,1.055l0,0
		C93.539,422.273,93.51,422.271,93.48,422.268L93.48,422.268z"/>
	<path fill="#B25538" d="M87.727,421.872l-3.095-35.831c-0.055-0.626,0.409-1.18,1.036-1.233l0,0
		c0.632-0.058,1.185,0.41,1.239,1.036l0,0l3.095,35.829c0.053,0.628-0.415,1.185-1.042,1.236l0,0
		c-0.036,0.002-0.072,0.005-0.107,0.005l0,0C88.272,422.913,87.774,422.463,87.727,421.872L87.727,421.872z"/>
	<path fill="#B25538" d="M80.949,423.02l-5.276-35.512c-0.088-0.621,0.341-1.205,0.962-1.298l0,0
		c0.627-0.088,1.204,0.341,1.298,0.962l0,0l5.276,35.512c0.094,0.621-0.339,1.203-0.962,1.298l0,0
		c-0.057,0.007-0.114,0.012-0.169,0.012l0,0C81.523,423.993,81.035,423.583,80.949,423.02L80.949,423.02z"/>
	<path fill="#B25538" d="M68.997,421.837c-0.632-0.049-1.101-0.598-1.051-1.229l0,0l2.636-34.216
		c0.049-0.626,0.597-1.099,1.223-1.05l0,0c0.632,0.049,1.101,0.598,1.057,1.229l0,0l-2.64,34.213
		c-0.048,0.598-0.546,1.055-1.135,1.055l0,0C69.057,421.84,69.027,421.84,68.997,421.837L68.997,421.837z"/>
	<path fill="#B25538" d="M56.955,424.823c-0.612-0.141-0.997-0.76-0.85-1.372l0,0l8.851-38.087c0.143-0.612,0.755-0.999,1.371-0.855
		l0,0c0.612,0.144,0.992,0.756,0.85,1.372l0,0l-8.849,38.089c-0.123,0.526-0.592,0.883-1.113,0.883l0,0
		C57.129,424.853,57.042,424.844,56.955,424.823L56.955,424.823z"/>
	<path fill="#B25538" d="M38.761,426.341c-0.621-0.095-1.047-0.682-0.947-1.303l0,0l5.276-33.571
		c0.094-0.621,0.682-1.052,1.303-0.948l0,0c0.622,0.095,1.053,0.682,0.953,1.303l0,0l-5.276,33.571
		c-0.089,0.559-0.569,0.964-1.121,0.964l0,0C38.888,426.358,38.825,426.351,38.761,426.341L38.761,426.341z"/>
	<path fill="#B25538" d="M29.355,428.069c-0.622-0.093-1.052-0.672-0.963-1.298l0,0l5.46-37.183
		c0.093-0.621,0.676-1.055,1.298-0.962l0,0c0.627,0.095,1.056,0.673,0.967,1.294l0,0l-5.464,37.183
		c-0.086,0.568-0.57,0.981-1.128,0.981l0,0C29.469,428.082,29.412,428.078,29.355,428.069L29.355,428.069z"/>
	<path fill="#B25538" d="M20.251,430.368c-0.588-0.232-0.879-0.897-0.647-1.481l0,0c1.61-4.048,3.352-14.155,4.626-23.096l0,0
		c1.284-8.967,2.143-16.846,2.148-16.86l0,0c0.065-0.628,0.633-1.083,1.26-1.013l0,0c0.621,0.07,1.076,0.633,1.006,1.259l0,0
		c-0.02,0.074-3.401,31.55-6.911,40.549l0,0c-0.177,0.447-0.611,0.723-1.065,0.723l0,0
		C20.528,430.449,20.388,430.424,20.251,430.368L20.251,430.368z"/>
	<path fill="#C19A6B" d="M298.801,396.702c0,0-30.002,4.68-52.099,27.043l75.783-18.663
		C322.485,405.082,302.183,397.947,298.801,396.702z"/>
	<ellipse fill="#FFFAEC" cx="35.519" cy="463.042" rx="1.289" ry="1.47"/>
	<path fill="#FFFAEC" d="M41.187,468.631c0,0.974-0.693,1.767-1.545,1.767c-0.856,0-1.547-0.793-1.547-1.767
		c0-0.971,0.691-1.764,1.547-1.764C40.494,466.867,41.187,467.66,41.187,468.631z"/>
	<ellipse fill="#C1A585" cx="103.087" cy="367.542" rx="1.131" ry="1.293"/>
	<ellipse fill="#C1A585" cx="104.931" cy="371.668" rx="0.545" ry="0.624"/>
	<ellipse fill="#C1A585" cx="233.384" cy="413.849" rx="1.101" ry="1.256"/>
	<ellipse fill="#C1A585" cx="238.036" cy="410.775" rx="1.347" ry="1.539"/>
	<path fill="#C1A585" d="M269.974,433.419c0,0.695-0.493,1.261-1.102,1.261c-0.608,0-1.101-0.566-1.101-1.261
		c0-0.693,0.493-1.259,1.101-1.259C269.481,432.16,269.974,432.726,269.974,433.419z"/>
	<g>
		<polygon fill="#FFFAEC" points="277.407,436.831 281.596,437.601 283.019,441.191 285.411,437.791 289.743,437.378 
			287.027,434.478 288.265,430.53 284.25,432.45 280.748,430.79 280.897,434.402 		"/>
	</g>
	<ellipse fill="#FFFAEC" cx="238.337" cy="394.263" rx="1.362" ry="1.556"/>
	<path fill="#FFFAEC" d="M41.997,432.093c0,0.693-0.495,1.256-1.101,1.256c-0.61,0-1.105-0.563-1.105-1.256
		c0-0.698,0.495-1.261,1.105-1.261C41.502,430.832,41.997,431.395,41.997,432.093z"/>
	<ellipse fill="#FFFAEC" cx="138.044" cy="367.616" rx="1.533" ry="1.75"/>
	<ellipse fill="#FFFAEC" cx="80.354" cy="499.344" rx="1.28" ry="1.461"/>
	<ellipse fill="#FFFAEC" cx="77.395" cy="503.276" rx="0.88" ry="1.004"/>
	<path fill="#FFFAEC" d="M218.424,526.719c0,1.055-0.75,1.912-1.675,1.912c-0.925,0-1.673-0.858-1.673-1.912
		c0-1.052,0.747-1.91,1.673-1.91C217.674,524.809,218.424,525.667,218.424,526.719z"/>
	<path fill="#FFFAEC" d="M223.108,526.844c0,0.709-0.498,1.277-1.114,1.277c-0.618,0-1.115-0.568-1.115-1.277
		c0-0.7,0.497-1.273,1.115-1.273C222.609,525.572,223.108,526.144,223.108,526.844z"/>
	<ellipse fill="#FFFAEC" cx="25.544" cy="558.67" rx="1.104" ry="1.261"/>
	<path fill="#C19A6B" d="M234.164,374.777l21.249,12.817l4.629-3.278l5.302,3.294l6.204-1.37
		C271.549,386.24,242.842,375.95,234.164,374.777z"/>
	<g>
		<path fill="#EFE4AC" d="M263.093,337.49c3.299,26.719,0.561,49.249-6.112,50.325c-6.67,1.073-14.748-19.718-18.042-46.437
			c-3.295-26.721-0.556-49.251,6.113-50.324C251.724,289.977,259.801,310.768,263.093,337.49z"/>
		<path fill="#5980A2" d="M261.571,382.515c0,0-1.878,5.028-4.59,5.299c-2.954,0.294-5.742-3.769-5.742-3.769l-10.745-87.57
			c0.001,0,1.633-4.863,4.437-5.376c3.067-0.559,5.821,3.663,5.821,3.663L261.571,382.515z"/>
	</g>
	<g>
		<path fill="#F7C973" d="M282.685,339.416c-2.187,27.5-9.53,49.216-16.396,48.502c-6.866-0.712-10.656-23.587-8.466-51.09
			c2.19-27.5,9.533-49.216,16.395-48.502C281.084,289.04,284.874,311.911,282.685,339.416z"/>
		<path fill="#DF9CB0" d="M271.946,383.866c0,0-2.9,4.509-5.657,4.052c-3.004-0.496-4.951-5.29-4.951-5.29l7.229-90.115
			c0.002,0,2.624-4.409,5.525-4.17c3.169,0.262,5.045,5.202,5.045,5.202L271.946,383.866z"/>
		<path fill="#97D7D9" d="M279.338,321.193c-0.419,5.251-4.251,9.143-8.561,8.698c-4.307-0.445-7.466-5.072-7.045-10.32
			c0.417-5.251,4.25-9.14,8.561-8.698C276.601,311.322,279.755,315.94,279.338,321.193z"/>
	</g>
	<path fill="#CCA874" d="M47.334,422.169l-4.715,1.845c0,0,14.742,5.417,16.932,12.031l11.848-2.102c0,0-6.084-10.258-18.059-11.913
		L47.334,422.169z"/>
	<g>
		<polygon fill="#D4BD94" points="62.45,431.659 64.159,434.365 65.903,321.239 62.455,321.239 		"/>
		<rect x="64.161" y="321.239" fill="#F9F1D7" width="8.829" height="113.125"/>
		<polygon fill="#F7E8BA" points="67.523,311.867 72.992,321.239 64.161,321.239 		"/>
		<polygon fill="#E1D3A2" points="62.455,321.239 67.523,311.867 64.161,321.239 		"/>
	</g>
	<g>
		<polygon fill="#E1D3A2" points="23.173,334.309 30.133,341.47 32.412,342.1 105.135,341.426 100.727,334.265 107.415,327.746 
			105.135,327.109 30.597,327.153 		"/>
		<polygon fill="#F9F1D7" points="25.452,334.944 32.412,342.1 107.415,342.059 103.008,334.9 107.415,327.746 32.879,327.79 		"/>
		<polygon fill="#D4BD94" points="25.452,334.944 32.412,342.1 30.133,341.47 23.173,334.309 		"/>
		<path fill="#A7A9AC" d="M68.31,329.471c0,0.392,0.28,0.712,0.625,0.712c0.341,0,0.622-0.32,0.622-0.712
			c0-0.394-0.282-0.709-0.622-0.709C68.591,328.762,68.31,329.077,68.31,329.471z"/>
		<path fill="#A7A9AC" d="M68.31,340.253c0,0.394,0.28,0.712,0.625,0.712c0.341,0,0.622-0.318,0.622-0.712
			c0-0.392-0.282-0.712-0.622-0.712C68.591,339.541,68.31,339.861,68.31,340.253z"/>
	</g>
	<path fill="#5E8D66" d="M59.55,436.045c-0.045-0.603,0.091-1.201,0.146-1.796c0.169-1.834,0.102-3.649-0.378-5.425
		c-0.611-2.248-1.618-3.428-3.287-4.682c-0.616-0.466-1.423-1.001-1.842-1.722c2.443,0.447,4.931,0.058,7.134,1.634
		c1.488,1.062,3.095,3.125,3.563,5.13c-0.193-1.984-0.32-3.962-0.766-5.9c-0.422-1.831-1.196-3.493-1.672-5.264
		c1.5,0.171,3.104,2.483,3.799,3.846c0.862,1.704,1.625,3.614,2.194,5.471c0.581-1.282,0.55-3.635,0.727-5.162
		c0.185-1.651,0.326-3.248,0.37-4.908c0.785,1.755,1.062,4.286,1.415,6.236c0.51,2.777,0.733,5.529,0.891,8.348
		c0.86-1.968,1.687-3.767,2.864-5.568c2.236-3.426,2.913-4.156,5.168-5.248c-1.412,1.032-2.556,3.901-3.098,5.589
		c-0.899,2.812-1.016,7.339-1.027,10.286C75.752,436.908,66.521,434.365,59.55,436.045z"/>
	<rect x="64.041" y="342.077" fill="#D4BD94" width="8.948" height="5.619"/>
	<path fill="#B25538" d="M49.143,426.131c-0.627-0.09-1.062-0.663-0.973-1.289l0,0l4.901-34.434
		c0.085-0.621,0.666-1.057,1.289-0.967l0,0c0.627,0.088,1.062,0.665,0.973,1.291l0,0l-4.897,34.429
		c-0.08,0.566-0.566,0.981-1.124,0.981l0,0C49.255,426.142,49.2,426.137,49.143,426.131L49.143,426.131z"/>
	<path fill="#75B2C7" d="M149.517,619.762c0,1.767-1.423,3.194-3.179,3.194c-1.753,0-3.177-1.428-3.177-3.194
		c0-1.769,1.425-3.197,3.177-3.197C148.094,616.566,149.517,617.994,149.517,619.762z"/>
	<path fill="#FFFFFF" d="M159.004,612.878c0,1.152-0.93,2.088-2.075,2.088c-1.144,0-2.073-0.936-2.073-2.088
		c0-1.15,0.93-2.084,2.073-2.084C158.075,610.793,159.004,611.728,159.004,612.878z"/>
	<path fill="#C19A6B" d="M254.652,397.293c0,0.927-0.75,1.681-1.669,1.681c-0.924,0-1.671-0.753-1.671-1.681
		c0-0.927,0.747-1.683,1.671-1.683C253.902,395.61,254.652,396.366,254.652,397.293z"/>
	<ellipse fill="#C19A6B" cx="126.792" cy="493.737" rx="1.252" ry="1.259"/>
	<ellipse fill="#C19A6B" cx="21.163" cy="500.905" rx="1.363" ry="1.372"/>
	<ellipse fill="#C19A6B" cx="141.73" cy="456.225" rx="0.934" ry="0.939"/>
	<path fill="#C1A585" d="M222.687,472.632c0,0.617-0.494,1.115-1.105,1.115c-0.61,0-1.105-0.498-1.105-1.115
		c0-0.612,0.495-1.11,1.105-1.11C222.193,471.522,222.687,472.02,222.687,472.632z"/>
</g>
<ellipse fill="#FECB8D" cx="74.403" cy="477.357" rx="25.369" ry="6.786"/>
<ellipse transform="matrix(0.9751 0.2217 -0.2217 0.9751 109.1475 -28.8559)" fill="#FECB8D" cx="183.1" cy="471.724" rx="18.988" ry="5.431"/>
<ellipse transform="matrix(0.9862 -0.1655 0.1655 0.9862 -70.0976 57.0261)" fill="#FECB8D" cx="307.163" cy="449.166" rx="44.776" ry="5.092"/>
<g>
	<g>
		<circle fill="#EB6479" cx="333.14" cy="296.323" r="2.958"/>
		<circle fill="#EB6479" cx="314.634" cy="296.323" r="2.958"/>
		<path fill="#EB6479" d="M311.983,311.845l4.788-30.411h14.169l4.756,30.411h-0.166c-0.278,1.328-5.403,2.388-11.703,2.388
			c-6.3,0-11.425-1.06-11.703-2.388H311.983z"/>
		<path fill="#223129" d="M328.422,293.642c0.134,0.019,0.266,0.026,0.395,0.021c1.277-0.047,2.618-1.189,2.65-3.017l-0.579-0.009
			c-0.026,1.485-1.084,2.412-2.093,2.449c-0.883,0.037-1.894-0.622-2.072-2.554l-0.576,0.053
			C326.337,292.646,327.417,293.498,328.422,293.642z"/>
		<path fill="#223129" d="M318.399,293.642c0.134,0.019,0.266,0.026,0.395,0.021c1.277-0.047,2.618-1.189,2.65-3.017l-0.579-0.009
			c-0.026,1.485-1.084,2.412-2.093,2.449c-0.883,0.037-1.894-0.622-2.071-2.554l-0.576,0.053
			C316.315,292.646,317.394,293.498,318.399,293.642z"/>
		<path fill="#223129" d="M325.299,306.916v-0.579c-2.688,0-6.158-1.494-7.585-4.349l-0.518,0.259
			C318.728,305.312,322.432,306.916,325.299,306.916z"/>
		<polygon fill="#003E5A" points="313.555,301.755 314.403,279.801 337.159,276.769 333.421,285.682 334.253,302.846 
			331.121,286.258 316.79,284.778 		"/>
		<polygon fill="#223129" points="322.484,300.504 326.825,300.504 324.397,290.502 323.734,290.662 325.957,299.822 
			322.484,299.822 		"/>
	</g>
	<polygon fill="#003E5A" points="323.871,374.949 330.576,446.309 343.584,446.309 336.193,440.373 335.197,374.619 327.216,370.34 
			"/>
	<g>
		<rect x="340.119" y="370.156" fill="#FFFFFF" width="22.924" height="25.64"/>
		<rect x="340.119" y="370.156" fill="#FFFFFF" width="22.924" height="25.64"/>
		<rect x="340.119" y="370.156" fill="#FFFFFF" width="22.924" height="25.64"/>
		<rect x="340.119" y="370.156" fill="#FFFFFF" width="22.924" height="25.64"/>
		<rect x="340.119" y="370.156" fill="#D8E2E7" width="5.25" height="25.64"/>
		<path fill="#FFFFFF" d="M348.023,371.279h1.058v-2.371c0-0.395,0.056-0.509,0.067-0.529c0.004,0.002,0.053-0.012,0.181-0.012
			h5.497c0.138,0,0.185,0.017,0.193,0.021c-0.005,0.001,0.056,0.106,0.056,0.52v2.371h1.058v-2.371c0-0.744-0.149-1.599-1.306-1.599
			h-5.497c-1.158,0-1.306,0.854-1.306,1.599V371.279z"/>
	</g>
	<path fill="#EB6479" d="M353.488,364.16c0.736,1.406,1.923,5.394-0.009,5.551c-1.714,0.111-3.438,0.562-4.157-0.549
		c-0.137-0.333-0.117-0.412-0.039-0.823c0.605-0.078,1.112-0.686,0.761-1.059c-0.468-0.059-1.327,0.059-1.62,0.255
		c-0.351-0.157-0.41-0.863,0.449-1.353c0.859-0.49,0.46-1.018,0.298-1.874l0.873-1.518L353.488,364.16z"/>
	<path fill="#003E5A" d="M335.491,311.098c4.617,2.783,15.936,31.818,18.017,53.092l-4.375,0.133
		c-1.187-9.013-6.565-32.63-16.459-43.896L335.491,311.098z"/>
	<g>
		<polygon fill="#D8E2E7" points="345.377,377.843 355.102,382.023 363.058,377.843 363.058,378.419 355.102,382.599 
			345.377,378.419 		"/>
		<rect x="353.989" y="380.113" fill="#D8E2E7" width="2.204" height="3.82"/>
	</g>
	<path fill="#003E5A" d="M312.426,375.171l-0.973,65.202l-7.39,5.936h13.007l6.685-71.138c0-3.165-0.698-5.64-5.294-5.64
		C315.067,369.531,312.426,370.984,312.426,375.171z"/>
	<g>
		<path fill="#003E5A" d="M312.426,375.171L312.426,375.171c-0.648-5.654-1.173-11.615-1.682-16.758l13.128,0.601v16.157h-0.117
			l-6.141,65.345h-6.339l0.178-0.143L312.426,375.171z"/>
	</g>
	<path fill="#FFFFFF" d="M321.081,359.7h5.523v3.48h-5.523V359.7z M322.016,362.503h3.655v-2.18h-3.655V362.503z"/>
	<path fill="#FFFFFF" d="M321.267,361.425c0,0.157,0.128,0.285,0.285,0.285h1.319c0.157,0,0.285-0.128,0.285-0.285l0,0
		c0-0.157-0.128-0.285-0.285-0.285h-1.319C321.395,361.14,321.267,361.267,321.267,361.425L321.267,361.425z"/>
	<path fill="#EB6479" d="M304.574,371.71c-0.736,1.406-1.922,5.394,0.009,5.551c1.714,0.111,3.438,0.562,4.157-0.549
		c0.137-0.333,0.117-0.412,0.039-0.823c-0.605-0.078-1.112-0.686-0.761-1.059c0.468-0.059,1.327,0.059,1.62,0.255
		c0.351-0.157,0.41-0.863-0.449-1.353c-0.859-0.49-0.793-1.597-0.631-2.453l-0.54-0.939L304.574,371.71z"/>
	<path fill="#003E5A" d="M312.3,311.098c-4.617,2.783-11.81,37.662-7.781,61.079l4.039-0.897
		c-1.378-5.958-0.627-49.054,6.558-50.853L312.3,311.098z"/>
	<path fill="#003E5A" d="M312.233,311.017h11.638h0.047h11.638c4.746,19.892,2.522,39.171-0.341,64.154h-11.297h-0.047h-11.297
		C309.711,350.188,307.487,330.908,312.233,311.017z"/>
	<polygon fill="#FFFFFF" points="319.452,358.819 322.594,317.256 320.38,312.629 323.871,312.629 323.919,312.629 327.41,312.629 
		325.196,317.256 328.338,358.819 323.897,363.901 323.895,363.899 323.893,363.901 	"/>
</g>
<g>
	<g>
		<polygon fill="#EB6479" points="285.325,390.81 286.881,452.399 293.433,452.399 289.711,446.785 292.472,390.543 
			288.452,383.859 		"/>
	</g>
	<path fill="#EB6479" d="M261.885,372.746c-0.647,1.237-2.521,4.743-0.822,4.88c1.507,0.098,3.023,0.494,3.655-0.483
		c0.12-0.293,0.103-0.362,0.034-0.724c-0.532-0.069-0.978-0.603-0.669-0.931c0.412-0.052,1.167,0.052,1.424,0.224
		c0.309-0.138,0.36-0.759-0.395-1.189c-0.755-0.431-0.405-0.895-0.262-1.648l-0.767-1.335L261.885,372.746z"/>
	<path fill="#003E5A" d="M282.175,326.597c-4.06,2.447-18.478,27.469-20.308,46.175l3.016,0.117
		c1.044-7.924,9.636-31.025,18.336-40.931L282.175,326.597z"/>
	<path fill="#EB6479" d="M307.865,371.72c0.365,1.377,1.361,3.451,0.822,4.88c-1.507,0.098-3.023,0.494-3.655-0.483
		c-0.12-0.293-0.103-0.362-0.034-0.724c0.532-0.069,0.978-0.603,0.669-0.931c-0.412-0.052-1.167,0.052-1.424,0.224
		c-0.309-0.138-0.36-0.759,0.395-1.189c0.755-0.431,0.375-1.466,0.233-2.218l0.797-0.764L307.865,371.72z"/>
	<path fill="#003E5A" d="M288.799,326.597c4.06,2.447,17.925,27.275,19.755,45.981h-3.478c-1.044-7.924-8.621-30.715-17.321-40.62
		L288.799,326.597z"/>
	<g>
		<polygon fill="#EB6479" points="284.259,390.81 282.702,452.399 276.15,452.399 279.873,446.785 277.111,390.543 281.132,383.859 
					"/>
		<g>
			<polygon fill="#243129" points="276.15,452.399 282.702,452.399 282.854,446.331 279.848,446.331 279.873,446.785 			"/>
		</g>
		<g>
			<polygon fill="#243129" points="293.433,452.399 286.881,452.399 286.729,446.331 289.736,446.331 289.711,446.785 			"/>
		</g>
	</g>
	<g>
		<path fill="#003E5A" d="M284.597,319.395c2.457,4.088,14.842,5.825,18.936,2.248c-5.118,0.511-5.323-3.577-2.457-14.512
			c2.866-14.206-10.338-19.929-16.479-19.929c-6.141,0-19.345,5.723-16.479,19.929c2.866,10.935,2.661,15.023-2.457,14.512
			C269.756,325.22,282.141,323.483,284.597,319.395z"/>
		<ellipse fill="#EB6479" cx="271.42" cy="306.824" rx="2.747" ry="2.759"/>
		<ellipse fill="#EB6479" cx="297.743" cy="306.824" rx="2.747" ry="2.759"/>
		<path fill="#EB6479" d="M286.884,291.405h-4.208c-8.328,0.933-12.297,4.95-12.297,13.199c0,5.963,2.947,10.741,6.97,12.934
			c6.542,3.568,4.69,5.464,4.042,7.095c0,1.032,1.366,2.265,3.34,2.265c1.974,0,3.34-1.234,3.34-2.265h0.001
			c-0.648-1.631-2.403-3.527,4.139-7.095c4.023-2.194,6.969-6.971,6.969-12.934C299.181,296.355,295.212,292.338,286.884,291.405z"
			/>
		<path fill="#003E5A" d="M284.112,288.429c6.714,0,12.615,3.261,14.852,7.052c0.61,1.329,2.748,2.861,4.376,2.146
			c-3.153,7.358-30.417,7.666-33.774,4.497c-1.831-1.022,0.927-5.404,2.308-7.277C273.749,292.302,279.229,288.531,284.112,288.429z
			"/>
		<path fill="#223129" d="M275.993,308.189c-0.065,0-0.13-0.002-0.195-0.007c-1.187-0.086-2.371-0.987-2.336-2.543l0.538,0.012
			c-0.029,1.275,0.932,1.927,1.837,1.993c0.92,0.067,1.926-0.477,2.093-1.844l0.533,0.065
			C278.265,307.489,277.111,308.189,275.993,308.189z"/>
		<path fill="#223129" d="M293.424,308.189c-1.118,0-2.272-0.699-2.47-2.324l0.533-0.065c0.166,1.367,1.166,1.911,2.093,1.844
			c0.905-0.066,1.865-0.717,1.837-1.993l0.538-0.012c0.035,1.555-1.148,2.457-2.335,2.543
			C293.555,308.186,293.49,308.189,293.424,308.189z"/>
		<path fill="#223129" d="M286.206,316.822c-0.83,0-1.599-0.213-1.804-0.658l0.488-0.226c0.102,0.222,1.098,0.483,2.189,0.256
			c0.669-0.138,1.795-0.553,1.826-1.77l0.537,0.014c-0.029,1.161-0.85,1.994-2.253,2.285
			C286.873,316.788,286.535,316.822,286.206,316.822z"/>
		<path fill="#223129" d="M284.753,312.089l-4.001-0.631l0.787-0.321c1.901-0.776,2.937-3.93,2.937-5.334h0.471
			c0,1.393-0.891,4.229-2.602,5.427l2.482,0.391L284.753,312.089z"/>
	</g>
	<circle fill="#FFFFFF" cx="284.829" cy="367.679" r="2.358"/>
	<circle fill="#C3D4DD" cx="284.833" cy="367.687" r="1.411"/>
	<rect x="287.826" y="366.979" fill="#FFFFFF" width="3.475" height="1.486"/>
	<g>
		<path fill="#FFFFFF" d="M292.024,366.98v1.486h1.885c-0.057-0.495-0.113-0.99-0.166-1.486H292.024z"/>
	</g>
	<path fill="#003E5A" d="M288.195,324.633h-3.381h-0.034h-3.381c-6.609,18.711-6.145,46.103-6.799,78.425h10.18h0.034h10.18
		C294.34,370.737,294.804,343.344,288.195,324.633z"/>
	<polygon fill="#FFFFFF" points="289.058,324.809 287.86,322.726 284.797,324.626 281.734,322.726 280.536,324.809 282.659,327.538 
		284.78,359.234 284.78,359.421 284.791,359.585 284.797,359.492 284.803,359.585 284.814,359.421 284.814,359.235 286.935,327.538 
			"/>
</g>
<g>
	<path fill="#FFFFFF" d="M82.337,54.992c0-4.753-3.853-8.606-8.605-8.606c-0.641,0-1.265,0.072-1.866,0.205
		c-0.979-3.677-4.33-6.387-8.315-6.387c-3.926,0-7.235,2.63-8.269,6.223c-3.258,0.329-5.978,2.476-7.134,5.41
		c-0.219-0.025-0.441-0.04-0.668-0.04c-3.258,0-5.9,2.641-5.9,5.9c0,3.258,2.641,5.9,5.9,5.9c0.05,0,26.405-0.001,26.405-0.001
		v-0.003C78.566,63.512,82.337,59.693,82.337,54.992z"/>
</g>
<g>
	<path fill="#FFFFFF" d="M271.814,78.003c0-13.594,11.02-24.614,24.614-24.614c1.834,0,3.618,0.207,5.338,0.587
		c2.799-10.517,12.384-18.268,23.784-18.268c11.229,0,20.695,7.522,23.651,17.801c9.32,0.94,17.098,7.082,20.405,15.475
		c0.627-0.071,1.263-0.115,1.91-0.115c9.32,0,16.874,7.555,16.874,16.875c0,9.32-7.555,16.875-16.874,16.875
		c-0.143,0-75.525-0.003-75.525-0.003v-0.008C282.599,102.372,271.814,91.45,271.814,78.003z"/>
</g>
<path fill="#E3C797" d="M162.223,474.299c0.41,0.285,1.298,0.295,1.057-0.186C163.007,473.568,161.29,473.652,162.223,474.299z"/>
<g>
	<path fill="#EB6479" d="M146.322,447.723c-1.038-0.369-2.774-1.069-3.107-0.4c-0.333,0.669,1.082,1.115,2.105,1.477
		c-1.044-0.144-0.94,0.022,0.618,0.954c0.597,0.274,1.173-0.435,1.553-1.333L146.322,447.723z"/>
	<path fill="#EB6479" d="M167.399,437.385c-10.704,0.493-18.75,6.541-21.104,10.332l1.204,0.729
		c2.175-3.046,10.361-8.881,21.434-8.448L167.399,437.385z"/>
</g>
<g>
	<polygon fill="#EB6479" points="181.481,458.094 174.807,467.653 187.735,465.842 186.464,470.262 184.513,467.575 
		170.209,470.766 176.463,458.386 	"/>
	<g>
		<path fill="#EB6479" d="M166.058,427.961c-0.502,2.264-0.632,4.178,1.341,6.691l-0.503,2.631l-1.703-0.147
			c-0.701-1.231-0.029-2.697-3.761-2.746c-1.977-0.026-3.921-0.4-5.422-1.501l-1.485,1.003c0.698-1.063,0.042-2.287-0.485-3.454
			c-1.06-2.229-0.704-6.306,3.777-8.907C162.018,419.09,167.301,422.215,166.058,427.961z"/>
		<g>
			<path fill="#002F3E" d="M165.875,431.63c5.709-6.005-3.136-17.997-10.83-11.384c-4.427,3.805-1.81,7.505-3.735,7.904
				c2.665,2.259,7.326-0.743,8.091-3.072c0.662,0.083,1.293,0.389,1.902,0.839c0.104-0.119,0.223-0.228,0.367-0.311
				c0.704-0.409,1.605-0.169,2.014,0.534c0.36,0.62,0.216,1.394-0.306,1.848C164.175,428.95,165.591,431.928,165.875,431.63z"/>
		</g>
		<g>
			<path fill="#243129" d="M162.5,431.767c-0.023,0.625-0.483,1.438-1.092,1.933c-0.406,0.329-0.828,0.477-1.191,0.415l0.03-0.177
				c0.311,0.053,0.683-0.081,1.047-0.377c0.573-0.466,1.005-1.223,1.026-1.801L162.5,431.767z"/>
			<path fill="none" stroke="#243129" stroke-width="0.25" stroke-miterlimit="10" d="M157.631,429.637c0,0,1.656,0.644,1.659-1.292
				"/>
		</g>
	</g>
	<polygon fill="#EB6479" points="185.951,460.138 181.791,471.996 197.981,472.26 199.414,476.022 195.934,473.78 178.107,475.106 
		182.398,456.993 	"/>
	<path fill="#4298B5" d="M182.775,471.682c19.541-16.743,6.103-20.241-14.851-37.514l-1.337,2.744l-1.778-0.26
		c2.534,4.385,6.921,9.081,12.541,14.638c2.194,2.128,1.614,5.57-6.949,10.896L182.775,471.682z"/>
	<polygon fill="#FFFFFF" points="168.898,434.161 167.777,433.482 166.04,436.315 164.309,435.86 164.58,437.042 166.069,437.663 
		176.031,446.572 167.655,436.722 	"/>
	<g>
		<path fill="#3B89A3" d="M174.757,439.563l-0.536-0.077c0.922,1.338,1.643,2.293,4.746,4.605
			c16.749,12.239,6.452,21.212,0.97,25.413l2.838,2.178C200.384,456.108,191.568,452.34,174.757,439.563z"/>
	</g>
</g>
<linearGradient id="SVGID_14_" gradientUnits="userSpaceOnUse" x1="105.5005" y1="474.0166" x2="128.2458" y2="474.0166">
	<stop  offset="0" style="stop-color:#E4C287"/>
	<stop  offset="0.2719" style="stop-color:#EBCF9F"/>
	<stop  offset="0.538" style="stop-color:#F2DAB5"/>
	<stop  offset="1" style="stop-color:#E4C287"/>
</linearGradient>
<path fill="url(#SVGID_14_)" d="M117.989,470.676c-6.28,0-11.727,3.318-12.489,6.681h22.745
	C128.246,473.941,124.27,470.676,117.989,470.676z"/>
<linearGradient id="SVGID_15_" gradientUnits="userSpaceOnUse" x1="136.366" y1="473.0284" x2="168.9374" y2="473.0284">
	<stop  offset="0" style="stop-color:#E4C287"/>
	<stop  offset="0.2719" style="stop-color:#EBCF9F"/>
	<stop  offset="0.538" style="stop-color:#F2DAB5"/>
	<stop  offset="1" style="stop-color:#E4C287"/>
</linearGradient>
<path fill="url(#SVGID_15_)" d="M151.764,468.699c-8.995,0-14.175,5.684-15.398,8.658h32.571
	C167.481,473.076,160.758,468.699,151.764,468.699z"/>
<g>
	<rect x="143.496" y="448.445" fill="#C7AE85" width="7.963" height="21.633"/>
	<rect x="147.499" y="448.445" fill="#C7AE85" width="3.961" height="21.633"/>
	<rect x="143.496" y="447.371" fill="#C7AE85" width="0.591" height="2.1"/>
	<rect x="145.56" y="447.371" fill="#C7AE85" width="1.183" height="2.1"/>
	<rect x="148.214" y="447.371" fill="#C7AE85" width="1.183" height="2.1"/>
	<rect x="150.869" y="447.371" fill="#C7AE85" width="0.591" height="2.1"/>
</g>
<path fill="#D3B98D" d="M147.508,450.131c-0.6,0-1.095,0.409-1.108,1.165l0.003,2.108h2.185l0.004-2.108
	C148.592,450.54,148.108,450.131,147.508,450.131z"/>
<path fill="#D37A28" d="M147.508,450.131c-0.004,0-0.007,0-0.011,0v3.272h1.09l0.004-2.108
	C148.592,450.54,148.108,450.131,147.508,450.131z"/>
<rect x="146.402" y="456.556" fill="#DD8726" width="2.185" height="2.103"/>
<rect x="147.497" y="456.556" fill="#D37A28" width="1.09" height="2.103"/>
<rect x="146.402" y="462.768" fill="#DD8726" width="2.185" height="2.047"/>
<rect x="147.497" y="462.768" fill="#D37A28" width="1.09" height="2.047"/>
<path fill="#C7AE85" d="M151.992,447.272c0-0.032-0.026-0.058-0.057-0.058h-8.774c-0.032,0-0.058,0.026-0.058,0.058v1.137
	c0,0.032,0.026,0.059,0.058,0.059h8.774c0.032,0,0.057-0.027,0.057-0.059V447.272z"/>
<polygon fill="#FDDDA8" points="142.506,447.74 147.486,438.896 152.465,447.74 "/>
<polygon fill="#D3B98D" points="147.497,438.916 147.497,447.74 152.465,447.74 "/>
<path fill="#DD9628" d="M148.74,444.076c0.197,0.15,0.577,0.147,0.346-0.21c-0.17-0.262-0.611-0.194-0.425,0.124
	C148.679,444.021,148.707,444.052,148.74,444.076z"/>
<path fill="#F7E8BA" d="M146.834,441.976c-0.454-0.358-0.545,1.044,0.011,0.425C146.954,442.279,147.001,442.108,146.834,441.976z"
	/>
<path fill="#D37E28" d="M150.102,454.335c-0.004-0.012-0.009-0.02-0.014-0.029c-0.226-0.39-0.451,0.07-0.217,0.278
	C150.106,454.791,150.173,454.502,150.102,454.335z"/>
<path fill="#D37E28" d="M144.93,467.683c0.039-0.052,0.066-0.109,0.07-0.144c0.016-0.117-0.043-0.248-0.178-0.212
	c-0.171,0.043-0.276,0.343-0.107,0.451C144.789,467.827,144.873,467.761,144.93,467.683z"/>
<path fill="#D37E28" d="M146.875,461.49c-0.029-0.024-0.066-0.036-0.106-0.026c-0.166,0.04-0.12,0.248,0.014,0.292
	C147.005,461.829,146.987,461.576,146.875,461.49z"/>
<path fill="#F7E8BA" d="M144.678,451.316c0.008-0.022,0.022-0.042,0.043-0.062c0.112-0.107,0.507,0.003,0.261,0.225
	C144.841,451.604,144.622,451.459,144.678,451.316z"/>
<path fill="#DD9628" d="M150.819,447.416c0.066,0.049,0.145,0.049,0.197-0.05c0.063-0.122-0.042-0.481-0.215-0.36
	c-0.054,0.039-0.083,0.089-0.093,0.143C150.687,447.246,150.745,447.361,150.819,447.416z"/>
<g>
	<rect x="121.945" y="448.445" fill="#FDDDA8" width="7.964" height="21.633"/>
	<rect x="125.947" y="448.445" fill="#D3B98D" width="3.962" height="21.633"/>
	<rect x="121.945" y="447.371" fill="#E3C797" width="0.592" height="2.1"/>
	<rect x="124.008" y="447.371" fill="#E3C797" width="1.183" height="2.1"/>
	<rect x="126.663" y="447.371" fill="#E3C797" width="1.183" height="2.1"/>
	<rect x="129.318" y="447.371" fill="#E3C797" width="0.592" height="2.1"/>
</g>
<path fill="#DD8726" d="M125.958,450.131c-0.6,0-1.096,0.409-1.109,1.165l0.002,2.108h2.185l0.004-2.108
	C127.042,450.54,126.556,450.131,125.958,450.131z"/>
<path fill="#C7AE85" d="M125.958,450.131c-0.004,0-0.007,0-0.011,0v3.272h1.09l0.004-2.108
	C127.042,450.54,126.556,450.131,125.958,450.131z"/>
<rect x="124.851" y="456.556" fill="#DD8726" width="2.185" height="2.103"/>
<rect x="125.946" y="456.556" fill="#D37A28" width="1.09" height="2.103"/>
<rect x="124.851" y="462.768" fill="#DD8726" width="2.185" height="2.047"/>
<rect x="125.946" y="462.768" fill="#D37A28" width="1.09" height="2.047"/>
<path fill="#D3B98D" d="M130.442,447.272c0-0.032-0.026-0.058-0.058-0.058h-8.774c-0.032,0-0.058,0.026-0.058,0.058v1.137
	c0,0.032,0.026,0.059,0.058,0.059h8.774c0.032,0,0.058-0.027,0.058-0.059V447.272z"/>
<polygon fill="#FDDDA8" points="120.955,447.74 125.935,438.896 130.914,447.74 "/>
<polygon fill="#D3B98D" points="125.946,438.916 125.946,447.74 130.914,447.74 "/>
<path fill="#F7E8BA" d="M126.63,441.82c0.039,0.243,0.315,0.505,0.395,0.088c0.059-0.307-0.305-0.563-0.392-0.206
	C126.624,441.738,126.624,441.778,126.63,441.82z"/>
<path fill="#E8AA43" d="M123.74,446.901c-0.075-0.574-1.119,0.369-0.289,0.311C123.614,447.202,123.767,447.112,123.74,446.901z"/>
<path fill="#F7E8BA" d="M128.552,454.335c-0.004-0.012-0.009-0.02-0.014-0.029c-0.227-0.39-0.451,0.07-0.217,0.278
	C128.555,454.791,128.622,454.502,128.552,454.335z"/>
<path fill="#D37E28" d="M123.38,467.683c0.038-0.052,0.066-0.109,0.07-0.144c0.016-0.117-0.042-0.248-0.178-0.212
	c-0.17,0.043-0.275,0.343-0.107,0.451C123.238,467.827,123.322,467.761,123.38,467.683z"/>
<path fill="#D37E28" d="M125.325,461.49c-0.03-0.024-0.067-0.036-0.107-0.026c-0.166,0.04-0.119,0.248,0.014,0.292
	C125.454,461.829,125.437,461.576,125.325,461.49z"/>
<path fill="#D37E28" d="M123.127,451.316c0.008-0.022,0.022-0.042,0.043-0.062c0.112-0.107,0.507,0.003,0.26,0.225
	C123.29,451.604,123.071,451.459,123.127,451.316z"/>
<path fill="#F7E8BA" d="M127.548,447.016c0.038,0.072,0.109,0.108,0.199,0.04c0.11-0.082,0.172-0.451-0.037-0.417
	c-0.066,0.012-0.114,0.045-0.147,0.088C127.503,446.807,127.504,446.935,127.548,447.016z"/>
<g>
	<rect x="129.899" y="451.366" fill="#E3C797" width="13.609" height="14.306"/>
	<rect x="136.726" y="451.366" fill="#C7AE85" width="6.782" height="14.306"/>
</g>
<path fill="#DD8726" d="M141.169,465.672l-0.117-5.964c-0.044-2.23-1.98-4.054-4.326-4.074c-2.346-0.019-4.283,1.762-4.327,3.981
	l-0.119,6.058H141.169z"/>
<path fill="#D37A28" d="M141.169,465.672l-0.117-5.964c-0.044-2.23-1.98-4.054-4.326-4.074h-0.004v10.039H141.169z"/>
<path fill="#DA8B28" d="M133.701,455.718c0.125-0.184-0.063-0.354-0.259-0.304c-0.175,0.046-0.34,0.204-0.256,0.346
	C133.272,455.907,133.581,455.895,133.701,455.718z"/>
<path fill="#D37E28" d="M142.542,458.824c0.119,0.037,0.232-0.086,0.265-0.187c0.06-0.187-0.115-0.469-0.322-0.333
	C142.36,458.386,142.387,458.775,142.542,458.824z"/>
<rect x="143.134" y="450.408" fill="#C7AE85" width="0.374" height="1.054"/>
<rect x="141.432" y="450.408" fill="#C7AE85" width="0.749" height="1.054"/>
<rect x="139.731" y="450.408" fill="#C7AE85" width="0.749" height="1.054"/>
<rect x="138.03" y="450.408" fill="#C7AE85" width="0.748" height="1.054"/>
<rect x="136.352" y="450.408" fill="#E3C797" width="0.749" height="1.054"/>
<rect x="136.726" y="450.408" fill="#C7AE85" width="0.374" height="1.054"/>
<rect x="134.628" y="450.408" fill="#E3C797" width="0.749" height="1.054"/>
<rect x="132.927" y="450.408" fill="#E3C797" width="0.749" height="1.054"/>
<rect x="131.226" y="450.408" fill="#E3C797" width="0.748" height="1.054"/>
<rect x="129.899" y="450.408" fill="#E3C797" width="0.374" height="1.054"/>
<g>
	<rect x="126.259" y="455.4" fill="#FDDDA8" width="20.89" height="21.957"/>
	<rect x="136.739" y="455.4" fill="#D3B98D" width="10.409" height="21.957"/>
</g>
<path fill="#E3C797" d="M143.559,477.357l-0.179-9.153c-0.067-3.423-3.04-6.224-6.641-6.254c-3.601-0.03-6.573,2.705-6.641,6.108
	l-0.183,9.298H143.559z"/>
<path fill="#C7AE85" d="M143.559,477.357l-0.179-9.153c-0.067-3.423-3.04-6.224-6.641-6.254h-0.006l-0.001,15.407H143.559z"/>
<path fill="#F7E8BA" d="M132.095,462.08c0.192-0.282-0.097-0.544-0.397-0.466c-0.268,0.071-0.521,0.315-0.393,0.531
	C131.437,462.371,131.91,462.351,132.095,462.08z"/>
<path fill="#F7E8BA" d="M127.618,458.554c-0.065-0.235-0.341-0.199-0.438,0.001c-0.086,0.178-0.071,0.429,0.106,0.461
	C127.471,459.048,127.68,458.78,127.618,458.554z"/>
<path fill="#F7E8BA" d="M142.687,458.755c0.04,0.288-0.731,0.307-0.749-0.058c-0.021-0.405,0.551-0.288,0.711-0.04
	C142.67,458.693,142.683,458.724,142.687,458.755z"/>
<path fill="#F7E8BA" d="M145.665,466.845c0.184,0.057,0.357-0.131,0.407-0.288c0.092-0.286-0.176-0.72-0.495-0.51
	C145.387,466.176,145.427,466.77,145.665,466.845z"/>
<rect x="146.574" y="453.929" fill="#D3B98D" width="0.574" height="1.615"/>
<rect x="143.962" y="453.929" fill="#D3B98D" width="1.149" height="1.615"/>
<rect x="141.352" y="453.929" fill="#D3B98D" width="1.149" height="1.615"/>
<rect x="138.74" y="453.929" fill="#D3B98D" width="1.149" height="1.615"/>
<rect x="136.165" y="453.929" fill="#FDDDA8" width="1.148" height="1.615"/>
<rect x="136.739" y="453.929" fill="#D3B98D" width="0.574" height="1.615"/>
<rect x="133.518" y="453.929" fill="#FDDDA8" width="1.148" height="1.615"/>
<rect x="130.906" y="453.929" fill="#FDDDA8" width="1.149" height="1.615"/>
<rect x="128.296" y="453.929" fill="#FDDDA8" width="1.149" height="1.615"/>
<rect x="126.259" y="453.929" fill="#FDDDA8" width="0.574" height="1.615"/>
<g>
	<rect x="147.101" y="449.626" fill="#E3C797" width="10.208" height="27.731"/>
	<rect x="152.231" y="449.626" fill="#E3C797" width="5.078" height="27.731"/>
	<rect x="147.101" y="448.25" fill="#E3C797" width="0.758" height="2.692"/>
	<rect x="149.746" y="448.25" fill="#E3C797" width="1.517" height="2.692"/>
	<rect x="153.149" y="448.25" fill="#E3C797" width="1.516" height="2.692"/>
	<rect x="156.552" y="448.25" fill="#E3C797" width="0.758" height="2.692"/>
</g>
<path fill="#FDDDA8" d="M152.244,451.787c-0.768,0-1.404,0.523-1.421,1.493l0.004,2.702h2.8l0.005-2.702
	C153.634,452.309,153.012,451.787,152.244,451.787z"/>
<path fill="#D3B98D" d="M152.244,451.787c-0.004,0-0.009,0-0.014,0v4.195h1.396l0.005-2.702
	C153.634,452.309,153.012,451.787,152.244,451.787z"/>
<polygon fill="#FDDDA8" points="150.826,460.023 150.826,462.719 153.626,462.719 153.631,460.023 "/>
<polygon fill="#D3B98D" points="152.23,460.023 152.23,462.719 153.626,462.719 153.631,460.023 "/>
<polygon fill="#FDDDA8" points="150.826,467.987 150.826,470.611 153.626,470.611 153.631,467.987 "/>
<polygon fill="#D3B98D" points="152.23,467.987 152.23,470.611 153.626,470.611 153.631,467.987 "/>
<path fill="#C7AE85" d="M157.993,448.106c0-0.032-0.026-0.057-0.057-0.057h-11.279c-0.032,0-0.058,0.026-0.058,0.057v1.492
	c0,0.032,0.026,0.057,0.058,0.057h11.279c0.032,0,0.057-0.026,0.057-0.057V448.106z"/>
<polygon fill="#FDDDA8" points="145.832,448.722 152.215,437.385 158.598,448.722 "/>
<polygon fill="#D3B98D" points="152.23,437.411 152.23,448.722 158.598,448.722 "/>
<path fill="#F7E8BA" d="M153.823,444.024c0.252,0.193,0.74,0.189,0.443-0.268c-0.217-0.337-0.783-0.25-0.546,0.158
	C153.745,443.955,153.781,443.993,153.823,444.024z"/>
<path fill="#F7E8BA" d="M149.402,447.645c-0.096-0.736-1.435,0.472-0.37,0.4C149.241,448.031,149.436,447.917,149.402,447.645z"/>
<path fill="#F7E8BA" d="M155.569,457.174c-0.005-0.013-0.011-0.024-0.018-0.036c-0.29-0.5-0.579,0.091-0.279,0.356
	C155.573,457.761,155.66,457.39,155.569,457.174z"/>
<path fill="#D37E28" d="M148.94,474.285c0.05-0.066,0.084-0.14,0.091-0.184c0.02-0.148-0.055-0.317-0.228-0.271
	c-0.218,0.056-0.354,0.439-0.138,0.579C148.758,474.469,148.866,474.386,148.94,474.285z"/>
<path fill="#F7E8BA" d="M151.433,466.346c-0.038-0.03-0.085-0.045-0.137-0.032c-0.212,0.053-0.154,0.318,0.019,0.374
	C151.599,466.782,151.576,466.458,151.433,466.346z"/>
<path fill="#F7E8BA" d="M148.616,453.304c0.01-0.026,0.029-0.052,0.055-0.078c0.144-0.135,0.651,0.003,0.333,0.288
	C148.825,453.674,148.545,453.488,148.616,453.304z"/>
<path fill="#F7E8BA" d="M156.525,448.146c0.091,0.026,0.191,0.006,0.238-0.095c0.058-0.122-0.137-0.409-0.334-0.259
	c-0.062,0.048-0.089,0.099-0.093,0.15C156.33,448.032,156.422,448.117,156.525,448.146z"/>
<g>
	<rect x="116.105" y="449.626" fill="#E3C797" width="10.208" height="27.731"/>
	<rect x="116.105" y="449.626" fill="#E3C797" width="5.078" height="27.731"/>
</g>
<path fill="#C7AE85" d="M121.171,451.787c0.769,0,1.404,0.523,1.421,1.493l-0.003,2.702h-2.801l-0.005-2.702
	C119.782,452.309,120.403,451.787,121.171,451.787z"/>
<path fill="#FDDDA8" d="M121.171,451.787c0.004,0,0.009,0,0.014,0v4.195h-1.397l-0.005-2.702
	C119.782,452.309,120.403,451.787,121.171,451.787z"/>
<polygon fill="#C7AE85" points="122.589,460.023 122.589,462.719 119.788,462.719 119.783,460.023 "/>
<polygon fill="#FDDDA8" points="121.185,460.023 121.185,462.719 119.788,462.719 119.783,460.023 "/>
<polygon fill="#C7AE85" points="122.589,467.987 122.589,470.611 119.789,470.611 119.783,467.987 "/>
<polygon fill="#FDDDA8" points="121.185,467.987 121.185,470.611 119.789,470.611 119.783,467.987 "/>
<path fill="#C7AE85" d="M115.422,448.106c0-0.032,0.026-0.057,0.058-0.057h11.279c0.032,0,0.058,0.026,0.058,0.057v1.492
	c0,0.032-0.026,0.057-0.058,0.057H115.48c-0.032,0-0.058-0.026-0.058-0.057V448.106z"/>
<polygon fill="#FDDDA8" points="127.583,448.722 121.2,437.385 114.817,448.722 "/>
<polygon fill="#D3B98D" points="121.185,437.411 121.185,448.722 114.817,448.722 "/>
<path fill="#F7E8BA" d="M122.111,441.206c0.016,0.141-0.163,0.237-0.265,0.076c-0.119-0.19,0.057-0.377,0.215-0.184
	C122.091,441.133,122.107,441.171,122.111,441.206z"/>
<path fill="#F7E8BA" d="M125.196,446.528c-0.145,0.351-0.455-0.121-0.443-0.309C124.784,445.729,125.366,446.115,125.196,446.528z"
	/>
<path fill="#F7E8BA" d="M122.868,457.948c-0.003-0.013-0.005-0.026-0.006-0.04c-0.055-0.576,0.523-0.262,0.434,0.127
	C123.207,458.428,122.92,458.176,122.868,457.948z"/>
<path fill="#D37E28" d="M122.043,475.54c-0.006-0.084,0.003-0.164,0.021-0.204c0.062-0.138,0.214-0.24,0.338-0.111
	c0.155,0.163,0.068,0.56-0.189,0.564C122.101,475.792,122.053,475.664,122.043,475.54z"/>
<path fill="#F7E8BA" d="M118.202,466.544c0.037-0.03,0.085-0.045,0.137-0.032c0.212,0.052,0.154,0.317-0.019,0.373
	C118.036,466.98,118.059,466.655,118.202,466.544z"/>
<path fill="#F7E8BA" d="M122.392,450.873c-0.011-0.027-0.028-0.053-0.055-0.079c-0.144-0.135-0.651,0.004-0.334,0.288
	C122.183,451.243,122.464,451.055,122.392,450.873z"/>
<path fill="#F7E8BA" d="M119.119,447.223c-0.083,0.062-0.186,0.063-0.252-0.066c-0.082-0.156,0.053-0.615,0.276-0.459
	c0.07,0.049,0.107,0.114,0.12,0.183C119.288,447.006,119.214,447.154,119.119,447.223z"/>
<path fill="#CCB489" d="M127.667,473.655c4.067,0,9.116,1.381,10.645,3.703h-14.727
	C123.586,475.086,123.601,473.655,127.667,473.655z"/>
<path fill="#E3C797" d="M112.651,473.053c3.924,0,6.529,1.673,6.529,4.304h-14.212C105.501,474.789,108.727,473.053,112.651,473.053
	z"/>
<path fill="#E3C797" d="M118.287,471.646c6.408-0.777,11.87,2.881,12.545,5.711H111.05
	C110.353,474.023,112.24,472.379,118.287,471.646z"/>
<path fill="#E3C797" d="M124.506,473.384c-0.167-0.124-0.392-0.183-0.499-0.032c-0.153,0.216,0.421,0.602,0.609,0.488
	C124.799,473.731,124.686,473.519,124.506,473.384z"/>
<path fill="#E3C797" d="M115.661,472.91c-0.003-0.012-0.006-0.024-0.009-0.04c-0.163-0.661-1.255-0.092-0.885,0.271
	c0.21,0.206,0.618,0.128,0.813-0.068C115.653,473,115.674,472.984,115.661,472.91z"/>
<path fill="#E3C797" d="M132.445,475.647c0.223,0.178,0.555,0.023,0.378-0.222C132.645,475.178,131.975,475.273,132.445,475.647z"/>
<path fill="#E3C797" d="M147.816,474.835c-0.53-0.105-0.237,0.369,0.123,0.485C148.897,475.628,149.24,475.119,147.816,474.835z"/>
<path fill="#CCB489" d="M145.515,473.427c-6.522,0-12.144,1.965-14.097,3.93h23.619
	C155.037,475.597,152.036,473.427,145.515,473.427z"/>
<path fill="#E3C797" d="M154.148,470.765c-8.633,0-15.755,3.508-15.755,6.592h31.264
	C168.322,475.392,162.782,470.765,154.148,470.765z"/>
<path fill="#E3C797" d="M148.463,474.498c-0.473,0.013-1.222,0.669-0.42,0.669c0.31,0,0.848-0.396,0.653-0.592
	C148.639,474.518,148.557,474.495,148.463,474.498z"/>
<path fill="#E3C797" d="M158.254,472.473c-0.201-0.452,0.464-0.131,0.453,0.078C158.702,472.67,158.317,472.614,158.254,472.473z"/>
<path fill="#E3C797" d="M139.408,474.573c-0.416-0.475-1.276,0.585-0.273,0.302C139.299,474.829,139.54,474.723,139.408,474.573z"/>
<g>
	<path fill="#EB6479" d="M154.991,454.98c-0.321-0.479-1.42-1.657-1.725-1.125c-0.168,0.293,0.568,1.007,0.397,1.031
		c-0.668,0.009-1.534-1.35-2.024-0.366c-0.313,0.628-0.331,1.596-0.331,1.596c-0.032,1.009,2.19,0.799,3.363,0.412L154.991,454.98z"
		/>
	<path fill="#EB6479" d="M168.937,436.908c0.875,10.057-10.099,19.468-14.034,17.951l-0.233,1.669
		c5.496,2.931,20.173-10.746,15.079-20.527L168.937,436.908z"/>
</g>
<ellipse fill="#002F3E" cx="163.347" cy="417.719" rx="4.057" ry="3.42"/>
<g>
	<path fill="#EB6479" d="M84.465,429.082c14.696-4.57,27.284,8.224,32.507,13.337l-2.154,2.151
		c-4.649-3.999-16.496-16.163-32.641-8.279L84.465,429.082z"/>
	<polygon fill="#EB6479" points="98.625,415.749 99.959,422.913 97.91,421.724 94.632,434.26 81.382,425.231 90.543,405.939 
		98.869,408.364 	"/>
	<path fill="#243129" d="M91.508,424.18c0.784,1.03,1.705,1.231,2.339,1.217c1.042-0.022,2.085-0.642,2.795-1.657l-0.334-0.233
		c-0.632,0.911-1.557,1.463-2.47,1.483c-0.775,0.016-1.468-0.349-2.007-1.057L91.508,424.18z"/>
	<path fill="#243129" d="M91.493,416.23c0.62,0.806,1.34,0.97,1.835,0.965c0.813-0.008,1.621-0.48,2.166-1.262l-0.262-0.184
		c-0.485,0.702-1.202,1.123-1.914,1.13c-0.604,0.006-1.148-0.284-1.575-0.838L91.493,416.23z"/>
	<g>
		<polygon fill="#EB6479" points="90.543,405.939 92.248,406.435 85.03,427.717 81.382,425.231 		"/>
	</g>
	<path fill="#EB6479" d="M116.137,441.601c1.005-1.5,2.877-4.363,3.969-3.807c1.091,0.556-0.552,2.644-1.112,4.283
		c1.218-0.257,0.103,1.547-0.512,3.054c-0.695,1.47-2.764,0.709-3.471-0.364L116.137,441.601z"/>
	<polygon fill="#4077A2" points="61.79,462.68 85.818,453.921 83.503,475.497 95.494,475.168 87.549,471.06 93.015,447.309 
		72.282,451.248 58.057,452.033 	"/>
	<polygon fill="#003E5A" points="98.726,412.686 103.401,408.875 90.08,405.096 85.187,417.232 92.252,409.801 	"/>
	<path fill="#EB6479" d="M119.54,455.265c0.409-0.736,1.968-2.344,2.886-1.978c0.918,0.366-0.167,1.287-0.707,2.541
		c1.035,0.126,3.141-0.732,3.213,1.102c0.066,1.664-0.21,2.363-0.21,2.363c-0.698,1.297-3.857,0.237-5.059-1.155L119.54,455.265z"/>
	<path fill="#4077A2" d="M48.511,475.543l25.892-1.481l-16.787-9.245c-5.346-3.937-4.791-8.392-2.636-11.219l0.003,0.002
		c4.44-5.45,15.723-17.696,15.723-17.696s3.539-3.902,11.154-11.681l-0.023,0.1c0.016-0.017,0.034-0.034,0.05-0.051l13.078,8.713
		c-1.472,7.663-17.747,24.757-24.827,28.524l13.9,16.824l-31.833,0.281l-5.914,5.364L48.511,475.543z"/>
</g>
<path fill="#C3D4DD" d="M81.861,424.222c-10.902,10.987-21.466,23.087-21.466,23.087l13.534,11.662
	c1.613-0.866,19.249-17.089,21.037-25.987L81.861,424.222z"/>
<path fill="#C3D4DD" d="M85.833,430.832c0,0,10.761,21.394,33.706,24.433l0.124,2.872c0,0-25.053-2.855-36.442-24.788
	L85.833,430.832z"/>
<path fill="#ABBAC2" d="M89.789,442.565c-0.841-0.361-5.727-7.11-6.567-9.216c0,0,1.866,5.513,6.191,9.699L89.789,442.565z"/>
<g>
	<path fill="#F6E8B9" stroke="#F7E8BA" stroke-width="0.5447" d="M112.006,470.797c0,0,8.694-0.566,10.563,0.025
		c1.869,0.591,2.768,4.097,2.768,4.097L112.006,470.797z"/>
	<circle fill="#FFFAEC" cx="122.441" cy="471.574" r="0.341"/>
	<circle fill="#FFFAEC" cx="123.232" cy="472.248" r="0.256"/>
	<path fill="#EE2544" d="M120.075,487.49l-10.412-2.754c-0.108-0.029-0.18-0.132-0.169-0.243l1.35-14.002l15.248,4.034l-5.75,12.838
		C120.297,487.464,120.184,487.518,120.075,487.49z"/>
	<g opacity="0.25">
		<path fill="#58101D" d="M118.11,473.861l0.358-1.354l-7.624-2.017l-0.246,2.549C112.413,472.823,115.146,473.091,118.11,473.861z"
			/>
	</g>
	<g>
		<defs>
			<path id="SVGID_16_" d="M120.075,487.49l-10.412-2.754c-0.108-0.029-0.18-0.132-0.169-0.243l1.35-14.002l15.248,4.034
				l-5.75,12.838C120.297,487.464,120.184,487.518,120.075,487.49z"/>
		</defs>
		<clipPath id="SVGID_17_">
			<use xlink:href="#SVGID_16_"  overflow="visible"/>
		</clipPath>
		<path opacity="0.25" clip-path="url(#SVGID_17_)" fill="#8C191C" d="M118.469,472.507l-3.599,13.605l5.206,1.377
			c0.108,0.029,0.221-0.025,0.267-0.128l5.75-12.838L118.469,472.507z"/>
	</g>
	<path fill="#EE2544" d="M126.197,475.51l-15.932-4.215c-0.104-0.028-0.167-0.135-0.139-0.239l0.074-0.282
		c0.159-0.6,0.774-0.958,1.375-0.799l14.135,3.739c0.6,0.159,0.958,0.774,0.799,1.375l-0.074,0.282
		C126.409,475.476,126.302,475.538,126.197,475.51z"/>
	<g>
		<path fill="#212121" d="M123.476,481.212c-0.121-0.032-0.231-0.108-0.302-0.223l-5.139-8.211c-0.15-0.239-0.077-0.555,0.162-0.705
			c0.239-0.15,0.555-0.077,0.704,0.162l5.139,8.211c0.15,0.239,0.077,0.555-0.162,0.704
			C123.754,481.23,123.608,481.247,123.476,481.212z"/>
	</g>
</g>
<g>
	<path fill="#E3C797" d="M211.893,453.451c0,0-8.694-0.566-10.563,0.025c-1.869,0.591-2.768,4.097-2.768,4.097L211.893,453.451z"/>
	<circle fill="#FFFAEC" cx="201.458" cy="454.227" r="0.341"/>
	<circle fill="#FFFAEC" cx="200.667" cy="454.901" r="0.256"/>
	<path fill="#1C75BC" d="M203.824,470.143l10.412-2.754c0.108-0.029,0.18-0.132,0.169-0.243l-1.35-14.002l-15.248,4.034l5.75,12.838
		C203.603,470.117,203.716,470.172,203.824,470.143z"/>
	<g opacity="0.25">
		<path fill="#58101D" d="M205.789,456.515l-0.358-1.354l7.624-2.017l0.246,2.549C211.486,455.476,208.753,455.744,205.789,456.515z
			"/>
	</g>
	<g>
		<defs>
			<path id="SVGID_18_" d="M203.824,470.143l10.412-2.754c0.108-0.029,0.18-0.132,0.169-0.243l-1.35-14.002l-15.248,4.034
				l5.75,12.838C203.603,470.117,203.716,470.172,203.824,470.143z"/>
		</defs>
		<clipPath id="SVGID_19_">
			<use xlink:href="#SVGID_18_"  overflow="visible"/>
		</clipPath>
		<path opacity="0.25" clip-path="url(#SVGID_19_)" fill="#8C191C" d="M205.431,455.16l3.599,13.605l-5.206,1.377
			c-0.108,0.029-0.221-0.025-0.267-0.128l-5.75-12.838L205.431,455.16z"/>
	</g>
	<path fill="#1C75BC" d="M197.702,458.164l15.932-4.215c0.104-0.028,0.167-0.135,0.139-0.239l-0.074-0.282
		c-0.159-0.6-0.774-0.958-1.375-0.799l-14.135,3.739c-0.6,0.159-0.958,0.774-0.799,1.375l0.074,0.282
		C197.491,458.129,197.598,458.191,197.702,458.164z"/>
	<g>
		<path fill="#212121" d="M200.423,463.866c0.121-0.032,0.231-0.108,0.302-0.223l5.139-8.211c0.15-0.239,0.077-0.555-0.162-0.705
			c-0.239-0.15-0.555-0.077-0.704,0.162l-5.139,8.211c-0.15,0.239-0.077,0.555,0.162,0.704
			C200.146,463.883,200.291,463.901,200.423,463.866z"/>
	</g>
</g>
<path fill="#F6E8B9" d="M100.917,485.958c0.375-0.167,4.808-5.079,10.167-3.708c5.375,1.375,3.039,0.788,6.874,2.625
	c3.835,1.837,4.878,1.583,6.752,2.25c1.874,0.667-16.907,3.833-23.267,2.417C95.083,488.125,100.917,485.958,100.917,485.958z"/>
<path fill="#F6E8B9" d="M204.888,467.798c0.375-0.167,4.808-5.079,10.167-3.708c5.375,1.375,3.039,0.788,6.874,2.625
	s4.878,1.583,6.752,2.25s-16.907,3.833-23.267,2.417C199.054,469.964,204.888,467.798,204.888,467.798z"/>
<polygon fill="#EB6479" points="74.403,474.061 80.354,473.872 84.038,478.331 52.205,478.612 46.29,483.977 48.511,475.543 "/>
<polygon fill="#EB6479" points="95.494,475.168 83.503,475.497 85.818,453.921 90.557,447.776 93.015,447.309 87.549,471.06 "/>
<path fill="#EB6479" d="M89.498,436.342l-3.024,2.301c0,0,9.978,15.631,33.19,19.494l-0.124-2.872
	C119.54,455.265,103.309,453.246,89.498,436.342z"/>
</svg>
