<?xml version="1.0" encoding="utf-8"?>
<!-- Generator: Adobe Illustrator 21.1.0, SVG Export Plug-In . SVG Version: 6.00 Build 0)  -->
<!DOCTYPE svg PUBLIC "-//W3C//DTD SVG 1.1//EN" "http://www.w3.org/Graphics/SVG/1.1/DTD/svg11.dtd">
<svg version="1.1" id="Layer_1" xmlns="http://www.w3.org/2000/svg" xmlns:xlink="http://www.w3.org/1999/xlink" x="0px" y="0px"
	 viewBox="0 0 286 286" style="enable-background:new 0 0 286 286;" xml:space="preserve">
<style type="text/css">
	.st0{clip-path:url(#SVGID_2_);fill:#4298B5;}
	.st1{clip-path:url(#SVGID_2_);}
	.st2{fill:#DB5C1E;}
	.st3{fill:#002B44;}
	.st4{fill:#003F5C;}
	.st5{fill:#EB6479;}
	.st6{fill:#223129;}
	.st7{fill:#FFFFFF;}
	.st8{fill:#D55A6E;}
	.st9{fill:#D8E2E7;}
	.st10{fill:#939598;}
	.st11{fill:#727D84;}
	.st12{fill:#4298B5;}
	.st13{fill:#E4D5B4;}
	.st14{fill:#CEBFA3;}
	.st15{fill:#EDE0C6;}
	.st16{fill:#3D302D;}
	.st17{fill:#D6C6A6;}
	.st18{fill:#C6B597;}
	.st19{fill:#826754;}
	.st20{fill:#91CEC4;}
	.st21{fill:#D3A98C;}
	.st22{fill:#AD886F;}
	.st23{fill:#896D59;}
	.st24{fill:#EA7442;}
	.st25{fill:#D15F36;}
	.st26{fill:#003E5A;}
	.st27{fill:#243129;}
	.st28{fill:#4077A2;}
	.st29{fill:#0F3644;}
	.st30{fill:#6C707A;}
	.st31{fill:url(#SVGID_3_);}
	.st32{fill:#8AACBD;}
	.st33{fill:#E6EBEE;}
	.st34{fill:#C3D4DD;}
	.st35{fill:#F37029;}
	.st36{fill:#004B6B;}
	.st37{fill:#282829;}
	.st38{fill:#BACAD3;}
	.st39{fill:#9EB3BE;}
	.st40{fill:#27688F;}
	.st41{fill:#005376;}
	.st42{fill:#2B75A2;}
	.st43{fill:#AFC6D2;}
	.st44{fill:url(#SVGID_4_);}
	.st45{fill:#E9E8D8;}
	.st46{fill:#818277;}
	.st47{fill:#63665D;}
	.st48{fill:#B4B39A;}
	.st49{fill:url(#SVGID_5_);}
	.st50{fill:url(#SVGID_6_);}
	.st51{fill:url(#SVGID_7_);}
	.st52{fill:url(#SVGID_8_);}
	.st53{fill:url(#SVGID_9_);}
	.st54{fill:url(#SVGID_10_);}
	.st55{fill:#FFC20E;}
	.st56{fill:#916600;}
	.st57{fill:#A7BDC9;}
	.st58{fill:#8E2833;}
	.st59{fill:#721B25;}
	.st60{fill:#00547A;}
	.st61{fill:#F1F2F2;}
	.st62{fill:#6F6598;}
	.st63{fill:#4B436A;}
	.st64{fill:#F27129;}
	.st65{fill:#A57406;}
	.st66{fill:url(#SVGID_11_);}
	.st67{fill:url(#SVGID_12_);}
	.st68{fill:url(#SVGID_13_);}
	.st69{fill:url(#SVGID_14_);}
	.st70{fill:url(#SVGID_15_);}
	.st71{fill:url(#SVGID_16_);}
	.st72{fill:url(#SVGID_17_);}
	.st73{fill:url(#SVGID_18_);}
	.st74{fill:url(#SVGID_19_);}
	.st75{fill:url(#SVGID_20_);}
	.st76{fill:url(#SVGID_21_);}
	.st77{fill:url(#SVGID_22_);}
	.st78{fill:url(#SVGID_23_);}
	.st79{fill:url(#SVGID_24_);}
	.st80{fill:url(#SVGID_25_);}
	.st81{fill:url(#SVGID_26_);}
	.st82{fill:url(#SVGID_27_);}
	.st83{fill:url(#SVGID_28_);}
	.st84{fill:url(#SVGID_29_);}
	.st85{fill:url(#SVGID_30_);}
	.st86{fill:url(#SVGID_31_);}
	.st87{fill:url(#SVGID_32_);}
	.st88{fill:url(#SVGID_33_);}
	.st89{fill:url(#SVGID_34_);}
	.st90{fill:url(#SVGID_35_);}
	.st91{fill:url(#SVGID_36_);}
	.st92{fill:url(#SVGID_37_);}
	.st93{fill:url(#SVGID_38_);}
	.st94{fill:url(#SVGID_39_);}
	.st95{fill:url(#SVGID_40_);}
	.st96{fill:url(#SVGID_41_);}
	.st97{fill:url(#SVGID_42_);}
	.st98{fill:url(#SVGID_43_);}
	.st99{fill:url(#SVGID_44_);}
	.st100{fill:url(#SVGID_45_);}
	.st101{fill:url(#SVGID_46_);}
	.st102{fill:#F9F1D7;}
	.st103{fill:#6E7980;stroke:#58595B;stroke-width:0.4225;stroke-linecap:round;stroke-linejoin:round;}
	.st104{fill:#DF9CB0;}
	.st105{fill:#C37A8C;}
	.st106{fill:#C29F60;}
	.st107{fill:#FFFFFF;stroke:#D0ECF4;stroke-width:0.4225;}
	.st108{fill:url(#SVGID_47_);}
	.st109{fill:url(#SVGID_48_);}
	.st110{fill:url(#SVGID_49_);stroke:#FFFFFF;stroke-width:2.1123;}
	.st111{fill:#9F2214;}
	.st112{fill:url(#SVGID_50_);stroke:#FFFFFF;stroke-width:2.1123;}
	.st113{fill:#4A7195;}
	.st114{fill:#C13D2E;}
	.st115{fill:#7989A3;stroke:#FFFFFF;stroke-width:2.1123;}
	.st116{fill:#FFCF01;}
	.st117{fill:url(#SVGID_51_);stroke:#FFFFFF;stroke-width:2.1123;}
	.st118{fill:url(#SVGID_52_);stroke:#FFFFFF;stroke-width:2.1123;}
	.st119{fill:url(#SVGID_53_);stroke:#FFFFFF;stroke-width:2.1123;}
	.st120{fill:#876041;}
	.st121{fill:#DAC895;stroke:#F7E8BA;stroke-width:0.4225;}
	.st122{fill:#4B545B;}
	.st123{fill:#3E6D93;}
	.st124{fill:#476F93;}
	.st125{fill:#CAB47E;}
	.st126{fill:#F7E8BA;}
	.st127{fill:#C2A171;}
	.st128{fill:#D0ECF4;}
	.st129{fill:#EFE4AC;}
	.st130{fill:#5980A2;}
	.st131{fill:#17738F;}
	.st132{fill:#B1D45E;}
	.st133{fill:#8CC540;stroke:#221F1F;stroke-width:0.2168;stroke-linejoin:round;stroke-miterlimit:10;}
	.st134{fill:#58595B;}
	.st135{fill:#797A7D;}
	.st136{fill:#BF86A8;}
	.st137{fill:#302B2C;}
	.st138{fill:#48484A;}
	.st139{fill:#72A087;}
	.st140{fill:#94B0BE;}
	.st141{fill:#09723B;}
	.st142{fill:#00A14B;}
	.st143{fill:#004766;}
	.st144{fill:#00354F;}
	.st145{fill:#005B80;}
	.st146{fill:#002F3E;}
	.st147{fill:#3F4450;}
	.st148{fill:#2A6A7F;}
	.st149{fill:url(#SVGID_54_);}
	.st150{fill:#2C3038;}
	.st151{fill:#CACFD1;}
	.st152{fill:#343943;}
	.st153{fill:#27667A;}
	.st154{fill:none;stroke:#243129;stroke-width:0.3823;stroke-miterlimit:10;}
	.st155{fill:#333333;}
	.st156{fill:#E5E8DD;}
	.st157{fill:#767877;}
	.st158{fill:#545554;}
	.st159{fill:#F8E1C7;}
	.st160{fill:#5A5048;}
	.st161{fill:#604373;}
	.st162{fill:none;}
	.st163{fill:#9DB9C8;}
	.st164{fill:#235F83;}
	.st165{fill:#CF473A;}
	.st166{fill:#B4A680;}
	.st167{fill:url(#SVGID_55_);}
	.st168{fill:url(#SVGID_56_);}
	.st169{fill:url(#SVGID_57_);}
	.st170{fill:url(#SVGID_58_);}
	.st171{fill:url(#SVGID_59_);}
	.st172{fill:url(#SVGID_60_);}
	.st173{fill:url(#SVGID_61_);}
	.st174{fill:url(#SVGID_62_);}
	.st175{fill:url(#SVGID_63_);}
	.st176{fill:url(#SVGID_64_);}
	.st177{fill:url(#SVGID_65_);}
	.st178{fill:url(#SVGID_66_);}
	.st179{fill:url(#SVGID_67_);}
	.st180{fill:url(#SVGID_68_);}
	.st181{fill:url(#SVGID_69_);}
	.st182{fill:url(#SVGID_70_);}
	.st183{fill:url(#SVGID_71_);}
	.st184{fill:url(#SVGID_72_);}
	.st185{fill:url(#SVGID_73_);}
	.st186{fill:url(#SVGID_74_);}
	.st187{fill:url(#SVGID_75_);}
	.st188{fill:url(#SVGID_76_);}
	.st189{fill:url(#SVGID_77_);}
	.st190{fill:url(#SVGID_78_);}
	.st191{fill:url(#SVGID_79_);}
	.st192{fill:url(#SVGID_80_);}
	.st193{fill:url(#SVGID_81_);}
	.st194{fill:url(#SVGID_82_);}
	.st195{fill:url(#SVGID_83_);}
	.st196{fill:url(#SVGID_84_);}
	.st197{fill:url(#SVGID_85_);}
	.st198{fill:url(#SVGID_86_);}
	.st199{fill:url(#SVGID_87_);}
	.st200{fill:url(#SVGID_88_);}
	.st201{fill:url(#SVGID_89_);}
	.st202{fill:url(#SVGID_90_);}
	.st203{fill:url(#SVGID_91_);}
	.st204{fill:url(#SVGID_92_);}
	.st205{fill:url(#SVGID_93_);}
	.st206{fill:url(#SVGID_94_);}
	.st207{fill:url(#SVGID_95_);}
	.st208{fill:url(#SVGID_96_);}
	.st209{fill:url(#SVGID_97_);}
	.st210{fill:url(#SVGID_98_);}
	.st211{fill:url(#SVGID_99_);}
	.st212{fill:url(#SVGID_100_);}
	.st213{fill:url(#SVGID_101_);}
	.st214{fill:url(#SVGID_102_);}
	.st215{fill:url(#SVGID_103_);}
	.st216{fill:url(#SVGID_104_);}
	.st217{fill:url(#SVGID_105_);}
	.st218{fill:url(#SVGID_106_);}
	.st219{fill:url(#SVGID_107_);}
	.st220{fill:url(#SVGID_108_);}
	.st221{fill:url(#SVGID_109_);}
	.st222{fill:url(#SVGID_110_);}
	.st223{fill:url(#SVGID_111_);}
	.st224{fill:url(#SVGID_112_);}
	.st225{fill:url(#SVGID_113_);}
	.st226{fill:url(#SVGID_114_);}
	.st227{fill:url(#SVGID_115_);}
	.st228{fill:url(#SVGID_116_);}
	.st229{fill:url(#SVGID_117_);}
	.st230{fill:url(#SVGID_118_);}
	.st231{fill:url(#SVGID_119_);}
	.st232{fill:url(#SVGID_120_);}
	.st233{fill:url(#SVGID_121_);}
	.st234{fill:url(#SVGID_122_);}
	.st235{fill:#F7D9A8;}
	.st236{fill:#EE93B9;}
</style>
<circle class="st12" cx="143" cy="143" r="143"/>
<g>
	<path class="st7" d="M78.8,208.3h-8.5v-14.3h8.5v3.1h-4.6v2.2h4.3v3.1h-4.3v2.7h4.6V208.3z"/>
	<path class="st7" d="M84.9,208.3h-3.8v-15.2h3.8V208.3z"/>
	<path class="st7" d="M91,208.5c-0.8,0-1.5-0.2-2.1-0.7s-1-1.1-1.4-2s-0.5-1.9-0.5-3.1c0-1.8,0.4-3.2,1.1-4.2s1.7-1.5,3-1.5
		c0.6,0,1.2,0.1,1.6,0.4s0.9,0.7,1.3,1.2h0.1c-0.1-0.9-0.2-1.7-0.2-2.6v-3h3.8v15.2h-2.9l-0.8-1.4H94C93.3,208,92.3,208.5,91,208.5z
		 M92.6,205.5c0.6,0,1-0.2,1.3-0.6s0.4-1,0.4-1.8v-0.3c0-1-0.1-1.7-0.4-2.1s-0.7-0.6-1.3-0.6c-0.5,0-0.9,0.2-1.2,0.7s-0.4,1.1-0.4,2
		c0,0.9,0.1,1.5,0.4,2S92.1,205.5,92.6,205.5z"/>
	<path class="st7" d="M105.8,208.5c-1.8,0-3.3-0.5-4.3-1.5s-1.5-2.4-1.5-4.2c0-1.9,0.5-3.3,1.4-4.3s2.3-1.5,4-1.5
		c1.7,0,3,0.4,3.9,1.3s1.4,2.1,1.4,3.8v1.7h-6.8c0,0.6,0.3,1.1,0.7,1.5s1,0.5,1.7,0.5c0.7,0,1.3-0.1,1.9-0.2s1.2-0.3,1.8-0.6v2.7
		c-0.6,0.3-1.2,0.5-1.9,0.6S106.7,208.5,105.8,208.5z M105.6,199.7c-0.4,0-0.8,0.1-1.1,0.4s-0.5,0.7-0.5,1.3h3.3
		c0-0.5-0.2-1-0.5-1.3S106.1,199.7,105.6,199.7z"/>
	<path class="st7" d="M119.5,197.1c0.3,0,0.6,0,0.9,0.1l0.2,0l-0.3,3.6c-0.3-0.1-0.7-0.1-1.3-0.1c-0.8,0-1.4,0.2-1.8,0.6
		s-0.6,0.9-0.6,1.6v5.4h-3.8v-11.1h2.8l0.6,1.8h0.2c0.3-0.6,0.8-1.1,1.3-1.4S118.9,197.1,119.5,197.1z"/>
	<path class="st7" d="M134,197c-0.9,0-1.6,0.4-2.1,1.1s-0.8,1.8-0.8,3.1c0,2.7,1,4.1,3.1,4.1c0.6,0,1.2-0.1,1.8-0.3s1.2-0.4,1.8-0.6
		v3.3c-1.2,0.5-2.5,0.8-4,0.8c-2.2,0-3.8-0.6-5-1.9s-1.7-3.1-1.7-5.4c0-1.5,0.3-2.8,0.8-3.9s1.4-2,2.4-2.6s2.3-0.9,3.7-0.9
		c1.5,0,3,0.3,4.4,1l-1.2,3c-0.5-0.2-1.1-0.5-1.6-0.6S134.6,197,134,197z"/>
	<path class="st7" d="M147.6,208.3l-0.7-1.5h-0.1c-0.5,0.6-1,1.1-1.6,1.3c-0.5,0.2-1.2,0.4-2.1,0.4c-1,0-1.9-0.3-2.5-0.9
		s-0.9-1.5-0.9-2.6c0-1.2,0.4-2.1,1.2-2.6s2-0.9,3.6-1l1.8-0.1v-0.2c0-0.9-0.4-1.4-1.3-1.4c-0.8,0-1.8,0.3-3.1,0.8l-1.1-2.5
		c1.3-0.7,2.9-1,4.9-1c1.4,0,2.5,0.4,3.3,1.1c0.8,0.7,1.2,1.7,1.2,2.9v7.3H147.6z M144.8,205.8c0.5,0,0.9-0.1,1.2-0.4
		c0.3-0.3,0.5-0.7,0.5-1.1v-0.9l-0.9,0c-1.3,0-1.9,0.5-1.9,1.4C143.7,205.5,144,205.8,144.8,205.8z"/>
	<path class="st7" d="M159.5,197.1c0.3,0,0.6,0,0.9,0.1l0.2,0l-0.3,3.6c-0.3-0.1-0.7-0.1-1.3-0.1c-0.8,0-1.4,0.2-1.8,0.6
		c-0.4,0.4-0.6,0.9-0.6,1.6v5.4h-3.8v-11.1h2.8l0.6,1.8h0.2c0.3-0.6,0.8-1.1,1.3-1.4C158.4,197.3,158.9,197.1,159.5,197.1z"/>
	<path class="st7" d="M167.6,208.5c-1.8,0-3.3-0.5-4.3-1.5c-1-1-1.5-2.4-1.5-4.2c0-1.9,0.5-3.3,1.4-4.3c0.9-1,2.3-1.5,4-1.5
		c1.7,0,3,0.4,3.9,1.3s1.4,2.1,1.4,3.8v1.7h-6.8c0,0.6,0.3,1.1,0.7,1.5c0.4,0.4,1,0.5,1.7,0.5c0.7,0,1.3-0.1,1.9-0.2
		c0.6-0.1,1.2-0.3,1.8-0.6v2.7c-0.6,0.3-1.2,0.5-1.9,0.6C169.2,208.5,168.4,208.5,167.6,208.5z M167.3,199.7c-0.4,0-0.8,0.1-1.1,0.4
		s-0.5,0.7-0.5,1.3h3.3c0-0.5-0.2-1-0.5-1.3C168.2,199.8,167.8,199.7,167.3,199.7z"/>
	<path class="st7" d="M187,208.3l-0.7-1.5h-0.1c-0.5,0.6-1,1.1-1.6,1.3c-0.5,0.2-1.2,0.4-2.1,0.4c-1,0-1.9-0.3-2.5-0.9
		c-0.6-0.6-0.9-1.5-0.9-2.6c0-1.2,0.4-2.1,1.2-2.6s2-0.9,3.6-1l1.8-0.1v-0.2c0-0.9-0.4-1.4-1.3-1.4c-0.8,0-1.8,0.3-3.1,0.8l-1.1-2.5
		c1.3-0.7,2.9-1,4.9-1c1.4,0,2.5,0.4,3.3,1.1c0.8,0.7,1.2,1.7,1.2,2.9v7.3H187z M184.2,205.8c0.5,0,0.9-0.1,1.2-0.4
		c0.3-0.3,0.5-0.7,0.5-1.1v-0.9l-0.9,0c-1.3,0-1.9,0.5-1.9,1.4C183.1,205.5,183.4,205.8,184.2,205.8z"/>
	<path class="st7" d="M199.2,208.3v-6c0-0.7-0.1-1.3-0.3-1.7c-0.2-0.4-0.6-0.6-1-0.6c-0.6,0-1.1,0.3-1.4,0.8
		c-0.3,0.5-0.4,1.4-0.4,2.6v4.8h-3.8v-11.1h2.9l0.5,1.4h0.2c0.3-0.5,0.8-0.9,1.4-1.2s1.2-0.4,2-0.4c1.2,0,2.2,0.4,2.9,1.1
		c0.7,0.7,1,1.7,1,3v7.2H199.2z"/>
	<path class="st7" d="M209.1,208.5c-0.8,0-1.5-0.2-2.1-0.7c-0.6-0.4-1-1.1-1.4-2s-0.5-1.9-0.5-3.1c0-1.8,0.4-3.2,1.1-4.2
		s1.7-1.5,3-1.5c0.6,0,1.2,0.1,1.6,0.4c0.5,0.2,0.9,0.7,1.3,1.2h0.1c-0.1-0.9-0.2-1.7-0.2-2.6v-3h3.8v15.2H213l-0.8-1.4H212
		C211.4,208,210.4,208.5,209.1,208.5z M210.6,205.5c0.6,0,1-0.2,1.3-0.6c0.3-0.4,0.4-1,0.4-1.8v-0.3c0-1-0.1-1.7-0.4-2.1
		c-0.3-0.4-0.7-0.6-1.3-0.6c-0.5,0-0.9,0.2-1.2,0.7c-0.3,0.5-0.4,1.1-0.4,2c0,0.9,0.1,1.5,0.4,2
		C209.7,205.3,210.1,205.5,210.6,205.5z"/>
	<path class="st7" d="M65.6,232.3h-3.9v-5.8h-4.5v5.8h-3.9v-14.3h3.9v5.3h4.5v-5.3h3.9V232.3z"/>
	<path class="st7" d="M79,226.8c0,1.8-0.5,3.2-1.5,4.2s-2.3,1.5-4.1,1.5c-1.7,0-3-0.5-4-1.6s-1.5-2.4-1.5-4.2c0-1.8,0.5-3.2,1.5-4.2
		s2.3-1.5,4.1-1.5c1.1,0,2,0.2,2.9,0.7s1.5,1.1,1.9,2S79,225.6,79,226.8z M71.9,226.8c0,1,0.1,1.7,0.4,2.2s0.7,0.7,1.3,0.7
		c0.6,0,1-0.2,1.3-0.7s0.4-1.2,0.4-2.2c0-0.9-0.1-1.7-0.4-2.1s-0.7-0.7-1.3-0.7c-0.6,0-1,0.2-1.3,0.7S71.9,225.8,71.9,226.8z"/>
	<path class="st7" d="M94.8,232.3v-6c0-0.7-0.1-1.3-0.3-1.7s-0.5-0.6-1-0.6c-0.6,0-1,0.3-1.3,0.8s-0.4,1.3-0.4,2.4v5.2H88v-6
		c0-0.7-0.1-1.3-0.3-1.7s-0.5-0.6-0.9-0.6c-0.6,0-1,0.3-1.3,0.8s-0.4,1.4-0.4,2.6v4.8h-3.8v-11.1h2.9l0.5,1.4h0.2
		c0.3-0.5,0.7-0.9,1.3-1.2s1.2-0.4,1.9-0.4c1.6,0,2.7,0.5,3.4,1.5h0.3c0.3-0.5,0.7-0.8,1.3-1.1s1.2-0.4,1.8-0.4c1.3,0,2.3,0.3,2.9,1
		s0.9,1.7,0.9,3.1v7.2H94.8z"/>
	<path class="st7" d="M106.5,232.5c-1.8,0-3.3-0.5-4.3-1.5s-1.5-2.4-1.5-4.2c0-1.9,0.5-3.3,1.4-4.3s2.3-1.5,4-1.5
		c1.7,0,3,0.4,3.9,1.3s1.4,2.1,1.4,3.8v1.7h-6.8c0,0.6,0.3,1.1,0.7,1.5s1,0.5,1.7,0.5c0.7,0,1.3-0.1,1.9-0.2s1.2-0.3,1.8-0.6v2.7
		c-0.6,0.3-1.2,0.5-1.9,0.6S107.4,232.5,106.5,232.5z M106.3,223.7c-0.4,0-0.8,0.1-1.1,0.4s-0.5,0.7-0.5,1.3h3.3
		c0-0.5-0.2-1-0.5-1.3S106.8,223.7,106.3,223.7z"/>
	<path class="st7" d="M125.3,232.3h-3.9v-11.1h-3.5v-3.2h10.8v3.2h-3.5V232.3z"/>
	<path class="st7" d="M137.3,221.1c0.3,0,0.6,0,0.9,0.1l0.2,0l-0.3,3.6c-0.3-0.1-0.7-0.1-1.3-0.1c-0.8,0-1.4,0.2-1.8,0.6
		s-0.6,0.9-0.6,1.6v5.4h-3.8v-11.1h2.8l0.6,1.8h0.2c0.3-0.6,0.8-1.1,1.3-1.4S136.7,221.1,137.3,221.1z"/>
	<path class="st7" d="M147.2,232.3l-0.7-1.5h-0.1c-0.5,0.6-1,1.1-1.6,1.3c-0.5,0.2-1.2,0.4-2.1,0.4c-1,0-1.9-0.3-2.5-0.9
		s-0.9-1.5-0.9-2.6c0-1.2,0.4-2.1,1.2-2.6s2-0.9,3.6-1l1.8-0.1v-0.2c0-0.9-0.4-1.4-1.3-1.4c-0.8,0-1.8,0.3-3.1,0.8l-1.1-2.5
		c1.3-0.7,2.9-1,4.9-1c1.4,0,2.5,0.4,3.3,1.1c0.8,0.7,1.2,1.7,1.2,2.9v7.3H147.2z M144.3,229.8c0.5,0,0.9-0.1,1.2-0.4
		c0.3-0.3,0.5-0.7,0.5-1.1v-0.9l-0.9,0c-1.3,0-1.9,0.5-1.9,1.4C143.3,229.5,143.6,229.8,144.3,229.8z"/>
	<path class="st7" d="M159.4,232.3v-6c0-0.7-0.1-1.3-0.3-1.7c-0.2-0.4-0.6-0.6-1-0.6c-0.6,0-1.1,0.3-1.4,0.8
		c-0.3,0.5-0.4,1.4-0.4,2.6v4.8h-3.8v-11.1h2.9l0.5,1.4h0.2c0.3-0.5,0.8-0.9,1.4-1.2s1.2-0.4,2-0.4c1.2,0,2.2,0.4,2.9,1.1
		c0.7,0.7,1,1.7,1,3v7.2H159.4z"/>
	<path class="st7" d="M174.4,228.9c0,1.2-0.4,2.1-1.2,2.7c-0.8,0.6-2,0.9-3.5,0.9c-0.8,0-1.5,0-2.1-0.1s-1.2-0.2-1.9-0.5v-3.1
		c0.6,0.3,1.2,0.5,1.9,0.6c0.7,0.2,1.3,0.3,1.9,0.3c0.8,0,1.2-0.2,1.2-0.6c0-0.2-0.1-0.4-0.3-0.5c-0.2-0.2-0.9-0.5-2-0.9
		c-1-0.4-1.7-0.9-2.1-1.4c-0.4-0.5-0.6-1.2-0.6-2c0-1,0.4-1.8,1.2-2.4c0.8-0.6,1.9-0.9,3.4-0.9c0.7,0,1.4,0.1,2.1,0.2
		c0.6,0.2,1.3,0.4,2,0.7l-1,2.5c-0.5-0.2-1-0.4-1.6-0.6s-1-0.2-1.4-0.2c-0.6,0-0.9,0.2-0.9,0.5c0,0.2,0.1,0.3,0.3,0.5
		c0.2,0.1,0.8,0.4,1.9,0.8c0.8,0.3,1.4,0.6,1.7,0.9s0.7,0.7,0.8,1.1C174.3,227.8,174.4,228.3,174.4,228.9z"/>
	<path class="st7" d="M176.4,218.5c0-0.6,0.2-1,0.5-1.3c0.3-0.3,0.8-0.4,1.5-0.4c0.7,0,1.2,0.1,1.6,0.4c0.3,0.3,0.5,0.7,0.5,1.3
		c0,1.1-0.7,1.7-2,1.7C177.1,220.2,176.4,219.6,176.4,218.5z M180.3,232.3h-3.8v-11.1h3.8V232.3z"/>
	<path class="st7" d="M188.4,229.5c0.5,0,1.1-0.1,1.8-0.4v2.8c-0.5,0.2-1,0.4-1.5,0.5c-0.5,0.1-1,0.1-1.6,0.1
		c-1.3,0-2.2-0.3-2.8-0.9s-0.8-1.6-0.8-2.9v-4.6h-1.3v-1.6l1.7-1.2l1-2.3h2.5v2.2h2.7v2.9h-2.7v4.3
		C187.4,229.2,187.7,229.5,188.4,229.5z"/>
	<path class="st7" d="M192.1,218.5c0-0.6,0.2-1,0.5-1.3c0.3-0.3,0.8-0.4,1.5-0.4c0.7,0,1.2,0.1,1.6,0.4c0.3,0.3,0.5,0.7,0.5,1.3
		c0,1.1-0.7,1.7-2,1.7C192.8,220.2,192.1,219.6,192.1,218.5z M196,232.3h-3.8v-11.1h3.8V232.3z"/>
	<path class="st7" d="M209.3,226.8c0,1.8-0.5,3.2-1.5,4.2c-1,1-2.3,1.5-4.1,1.5c-1.7,0-3-0.5-4-1.6c-1-1-1.5-2.4-1.5-4.2
		c0-1.8,0.5-3.2,1.5-4.2c1-1,2.3-1.5,4.1-1.5c1.1,0,2,0.2,2.9,0.7c0.8,0.5,1.5,1.1,1.9,2C209,224.6,209.3,225.6,209.3,226.8z
		 M202.1,226.8c0,1,0.1,1.7,0.4,2.2s0.7,0.7,1.3,0.7c0.6,0,1-0.2,1.3-0.7s0.4-1.2,0.4-2.2c0-0.9-0.1-1.7-0.4-2.1
		c-0.2-0.5-0.7-0.7-1.3-0.7c-0.6,0-1,0.2-1.3,0.7S202.1,225.8,202.1,226.8z"/>
	<path class="st7" d="M218.4,232.3v-6c0-0.7-0.1-1.3-0.3-1.7c-0.2-0.4-0.6-0.6-1-0.6c-0.6,0-1.1,0.3-1.4,0.8
		c-0.3,0.5-0.4,1.4-0.4,2.6v4.8h-3.8v-11.1h2.9l0.5,1.4h0.2c0.3-0.5,0.8-0.9,1.4-1.2s1.2-0.4,2-0.4c1.2,0,2.2,0.4,2.9,1.1
		c0.7,0.7,1,1.7,1,3v7.2H218.4z"/>
	<path class="st7" d="M233.4,228.9c0,1.2-0.4,2.1-1.2,2.7c-0.8,0.6-2,0.9-3.5,0.9c-0.8,0-1.5,0-2.1-0.1s-1.2-0.2-1.9-0.5v-3.1
		c0.6,0.3,1.2,0.5,1.9,0.6c0.7,0.2,1.3,0.3,1.9,0.3c0.8,0,1.2-0.2,1.2-0.6c0-0.2-0.1-0.4-0.3-0.5c-0.2-0.2-0.9-0.5-2-0.9
		c-1-0.4-1.7-0.9-2.1-1.4c-0.4-0.5-0.6-1.2-0.6-2c0-1,0.4-1.8,1.2-2.4c0.8-0.6,1.9-0.9,3.4-0.9c0.7,0,1.4,0.1,2.1,0.2
		c0.6,0.2,1.3,0.4,2,0.7l-1,2.5c-0.5-0.2-1-0.4-1.6-0.6s-1-0.2-1.4-0.2c-0.6,0-0.9,0.2-0.9,0.5c0,0.2,0.1,0.3,0.3,0.5
		c0.2,0.1,0.8,0.4,1.9,0.8c0.8,0.3,1.4,0.6,1.7,0.9s0.7,0.7,0.8,1.1C233.3,227.8,233.4,228.3,233.4,228.9z"/>
</g>
<g>
	<g>
		<polygon class="st5" points="198.4,128.6 197.3,172.2 192.7,172.2 195.3,168.3 193.4,128.4 196.2,123.6 		"/>
	</g>
	<g>
		<polygon class="st5" points="199.2,128.6 200.3,172.2 204.9,172.2 202.3,168.3 204.3,128.4 201.4,123.6 		"/>
		<g>
			<polygon class="st27" points="204.9,172.2 200.3,172.2 200.2,167.9 202.3,167.9 202.3,168.3 			"/>
		</g>
		<g>
			<polygon class="st27" points="192.7,172.2 197.3,172.2 197.4,167.9 195.3,167.9 195.3,168.3 			"/>
		</g>
	</g>
	<g>
		<ellipse class="st5" cx="208.3" cy="69" rx="1.9" ry="2"/>
		<ellipse class="st5" cx="189.6" cy="69" rx="1.9" ry="2"/>
		<path class="st5" d="M197.3,58.1h3c5.9,0.7,8.7,3.5,8.7,9.4c0,4.2-2.1,7.6-4.9,9.2c-4.6,2.5-3.3,3.9-2.9,5c0,0.7-1,1.6-2.4,1.6
			c-1.4,0-2.4-0.9-2.4-1.6h0c0.5-1.2,1.7-2.5-2.9-5c-2.9-1.6-4.9-4.9-4.9-9.2C188.6,61.6,191.4,58.7,197.3,58.1z"/>
		<path class="st6" d="M205.1,70c0,0,0.1,0,0.1,0c0.8-0.1,1.7-0.7,1.7-1.8l-0.4,0c0,0.9-0.7,1.4-1.3,1.4c-0.7,0-1.4-0.3-1.5-1.3
			l-0.4,0C203.4,69.5,204.3,70,205.1,70z"/>
		<path class="st6" d="M192.7,70c0.8,0,1.6-0.5,1.8-1.6l-0.4,0c-0.1,1-0.8,1.4-1.5,1.3c-0.6,0-1.3-0.5-1.3-1.4l-0.4,0
			c0,1.1,0.8,1.7,1.7,1.8C192.6,70,192.6,70,192.7,70z"/>
		<path class="st6" d="M197.8,76.1c0.6,0,1.1-0.2,1.3-0.5l-0.3-0.2c-0.1,0.2-0.8,0.3-1.6,0.2c-0.5-0.1-1.3-0.4-1.3-1.3l-0.4,0
			c0,0.8,0.6,1.4,1.6,1.6C197.3,76.1,197.6,76.1,197.8,76.1z"/>
		<path class="st6" d="M198.8,72.7l2.8-0.4l-0.6-0.2c-1.3-0.6-2.1-2.8-2.1-3.8h-0.3c0,1,0.6,3,1.8,3.8l-1.8,0.3L198.8,72.7z"/>
	</g>
	<circle class="st7" cx="198.8" cy="112.2" r="1.7"/>
	<circle class="st34" cx="198.8" cy="112.2" r="1"/>
	<rect x="194.2" y="111.7" class="st7" width="2.5" height="1.1"/>
	<g>
		<path class="st7" d="M193.7,111.7v1.1h-1.3c0-0.4,0.1-0.7,0.1-1.1H193.7z"/>
	</g>
	<path class="st26" d="M196.4,81.6h2.4h0h2.4c4.7,13.3,4.4,32.7,4.8,55.6h-7.2h0h-7.2C192,114.3,191.7,94.9,196.4,81.6z"/>
	<polygon class="st7" points="195.8,81.8 196.6,80.3 198.8,81.6 201,80.3 201.8,81.8 200.3,83.7 198.8,106.2 198.8,106.3 
		198.8,106.4 198.8,106.3 198.8,106.4 198.8,106.3 198.8,106.2 197.3,83.7 	"/>
</g>
<g>
	<g>
		<g>
			<circle class="st5" cx="118.4" cy="65.9" r="2.1"/>
			<circle class="st5" cx="105.2" cy="65.9" r="2.1"/>
			<path class="st5" d="M103.3,76.9l3.4-21.6h10l3.4,21.6H120c-0.2,0.9-3.8,1.7-8.3,1.7C107.3,78.6,103.6,77.8,103.3,76.9
				L103.3,76.9z"/>
			<path class="st6" d="M115,64c0.1,0,0.2,0,0.3,0c0.9,0,1.9-0.8,1.9-2.1l-0.4,0c0,1.1-0.8,1.7-1.5,1.7c-0.6,0-1.3-0.4-1.5-1.8
				l-0.4,0C113.5,63.3,114.3,63.9,115,64z"/>
			<path class="st6" d="M107.9,64c0.1,0,0.2,0,0.3,0c0.9,0,1.9-0.8,1.9-2.1l-0.4,0c0,1.1-0.8,1.7-1.5,1.7c-0.6,0-1.3-0.4-1.5-1.8
				l-0.4,0C106.4,63.3,107.2,63.9,107.9,64z"/>
			<path class="st6" d="M112.8,73.4V73c-1.9,0-4.4-1.1-5.4-3.1l-0.4,0.2C108.1,72.2,110.8,73.4,112.8,73.4z"/>
			<polygon class="st146" points="104.5,69.7 105.1,54.2 121.2,52 118.6,58.3 119.1,70.5 116.9,58.7 106.8,57.7 			"/>
			<polygon class="st6" points="110.8,68.8 113.9,68.8 112.2,61.7 111.7,61.9 113.3,68.4 110.8,68.4 			"/>
		</g>
		<polygon class="st26" points="111.8,121.6 116.5,172.2 125.8,172.2 120.5,168 119.8,121.4 114.1,118.4 		"/>
		<path class="st5" d="M132.8,114c0.5,1,1.4,3.8,0,3.9c-1.2,0.1-2.4,0.4-2.9-0.4c-0.1-0.2-0.1-0.3,0-0.6c0.4-0.1,0.8-0.5,0.5-0.8
			c-0.3,0-0.9,0-1.1,0.2c-0.2-0.1-0.3-0.6,0.3-1c0.6-0.3,0.3-0.7,0.2-1.3l0.6-1.1L132.8,114z"/>
		<path class="st26" d="M120,76.3c3.3,2,11.3,22.6,12.8,37.6l-3.1,0.1C128.9,107.7,125,91,118,83L120,76.3z"/>
		<path class="st26" d="M103.7,121.8L103,168l-5.2,4.2h9.2l4.7-50.4c0-2.2-0.5-4-3.8-4C105.5,117.8,103.7,118.8,103.7,121.8z"/>
		<g>
			<path class="st26" d="M103.7,121.8L103.7,121.8c-0.5-4-0.8-8.2-1.2-11.9l9.3,0.4v11.5h-0.1l-4.4,46.3h-4.5l0.1-0.1L103.7,121.8z"
				/>
		</g>
		<path class="st7" d="M109.8,110.8h3.9v2.5h-3.9V110.8z M110.5,112.8h2.6v-1.5h-2.6V112.8z"/>
		<path class="st7" d="M109.9,112c0,0.1,0.1,0.2,0.2,0.2h0.9c0.1,0,0.2-0.1,0.2-0.2l0,0c0-0.1-0.1-0.2-0.2-0.2h-0.9
			C110,111.8,109.9,111.9,109.9,112L109.9,112z"/>
		<path class="st35" d="M90.7,114c-0.5,1-1.4,3.8,0,3.9c1.2,0.1,2.4,0.4,2.9-0.4c0.1-0.2,0.1-0.3,0-0.6c-0.4-0.1-0.8-0.5-0.5-0.8
			c0.3,0,0.9,0,1.1,0.2c0.2-0.1,0.3-0.6-0.3-1c-0.6-0.3-0.3-0.7-0.2-1.3l-0.6-1.1L90.7,114z"/>
		<path class="st26" d="M103.6,76.3c-3.3,2-11.3,22.6-12.8,37.6l3.1,0.1c0.8-6.4,4.7-23.1,11.7-31.1L103.6,76.3z"/>
		<path class="st26" d="M103.5,76.3h8.3h0h8.3c3.4,14.1,1.8,27.8-0.2,45.5h-8h0h-8C101.7,104.1,100.2,90.4,103.5,76.3z"/>
		<polygon class="st7" points="108.6,110.2 110.9,80.7 109.3,77.4 111.8,77.4 111.8,77.4 114.3,77.4 112.7,80.7 114.9,110.2 
			111.8,113.8 111.8,113.8 111.8,113.8 		"/>
	</g>
	<g>
		<g>
			<polygon class="st5" points="93,128.5 94.1,172.2 98.7,172.2 96.1,168.2 98,128.3 95.2,123.6 			"/>
		</g>
		<path class="st5" d="M76.4,115.7c-0.5,0.9-1.8,3.4-0.6,3.5c1.1,0.1,2.1,0.4,2.6-0.3c0.1-0.2,0.1-0.3,0-0.5c-0.4,0-0.7-0.4-0.5-0.7
			c0.3,0,0.8,0,1,0.2c0.2-0.1,0.3-0.5-0.3-0.8s-0.3-0.6-0.2-1.2l-0.5-0.9L76.4,115.7z"/>
		<path class="st26" d="M90.7,83c-2.9,1.7-13.1,19.5-14.4,32.7l2.1,0.1c0.7-5.6,6.8-22,13-29L90.7,83z"/>
		<path class="st26" d="M95,85c4.4,1.8,13.2,8.9,12.2,12.6c-0.7,2.1-4.3,0.7-5.7-0.1l-1.1,1.7c3.5,1.9,8.2,3,8.9-1.2
			c0.7-6-9.4-13.7-14.4-16.4l0.1,2.2L95,85z"/>
		<g>
			<polygon class="st5" points="92.2,128.5 91.1,172.2 86.5,172.2 89.1,168.2 87.2,128.3 90,123.6 			"/>
			<g>
				<polygon class="st27" points="86.5,172.2 91.1,172.2 91.2,167.9 89.1,167.9 89.1,168.2 				"/>
			</g>
			<g>
				<polygon class="st27" points="98.7,172.2 94.1,172.2 94,167.9 96.1,167.9 96.1,168.2 				"/>
			</g>
		</g>
		<g>
			<path class="st26" d="M92.5,77.9c1.7,2.9,10.5,4.1,13.4,1.6c-3.6,0.4-3.8-2.5-1.7-10.3c2-10.1-7.3-14.1-11.7-14.1
				c-4.4,0-13.7,4.1-11.7,14.1c2,7.8,1.9,10.7-1.7,10.3C81.9,82,90.7,80.8,92.5,77.9z"/>
			<ellipse class="st5" cx="83.1" cy="69" rx="1.9" ry="2"/>
			<ellipse class="st5" cx="101.8" cy="69" rx="1.9" ry="2"/>
			<path class="st5" d="M94.1,58h-3c-5.9,0.7-8.7,3.5-8.7,9.4c0,4.2,2.1,7.6,4.9,9.2c4.6,2.5,3.3,3.9,2.9,5c0,0.7,1,1.6,2.4,1.6
				s2.4-0.9,2.4-1.6h0c-0.5-1.2-1.7-2.5,2.9-5c2.9-1.6,4.9-4.9,4.9-9.2C102.8,61.5,100,58.7,94.1,58z"/>
			<path class="st26" d="M92.1,55.9c4.8,0,8.9,2.3,10.5,5c0.4,0.9,1.9,2,3.1,1.5c-2.2,5.2-21.6,5.4-24,3.2c-1.3-0.7,0.7-3.8,1.6-5.2
				C84.8,58.7,88.7,56,92.1,55.9z"/>
			<path class="st6" d="M86.4,69.9c0,0-0.1,0-0.1,0c-0.8-0.1-1.7-0.7-1.7-1.8l0.4,0c0,0.9,0.7,1.4,1.3,1.4c0.7,0,1.4-0.3,1.5-1.3
				l0.4,0C88,69.4,87.2,69.9,86.4,69.9z"/>
			<path class="st6" d="M98.7,69.9c-0.8,0-1.6-0.5-1.8-1.6l0.4,0c0.1,1,0.8,1.4,1.5,1.3c0.6,0,1.3-0.5,1.3-1.4l0.4,0
				c0,1.1-0.8,1.7-1.7,1.8C98.8,69.9,98.8,69.9,98.7,69.9z"/>
			<path class="st6" d="M93.6,76c-0.6,0-1.1-0.2-1.3-0.5l0.3-0.2c0.1,0.2,0.8,0.3,1.6,0.2c0.5-0.1,1.3-0.4,1.3-1.3l0.4,0
				c0,0.8-0.6,1.4-1.6,1.6C94.1,76,93.8,76,93.6,76z"/>
			<path class="st6" d="M92.6,72.7l-2.8-0.4l0.6-0.2c1.3-0.6,2.1-2.8,2.1-3.8h0.3c0,1-0.6,3-1.8,3.8l1.8,0.3L92.6,72.7z"/>
		</g>
		<circle class="st7" cx="92.6" cy="112.1" r="1.7"/>
		<circle class="st34" cx="92.6" cy="112.1" r="1"/>
		<rect x="94.8" y="111.6" class="st7" width="2.5" height="1.1"/>
		<g>
			<path class="st7" d="M97.7,111.6v1.1h1.3c0-0.4-0.1-0.7-0.1-1.1H97.7z"/>
		</g>
		<path class="st26" d="M95,81.6h-2.4h0h-2.4c-4.7,13.3-4.4,32.7-4.8,55.6h7.2h0h7.2C99.4,114.3,99.7,94.9,95,81.6z"/>
		<polygon class="st7" points="95.6,81.7 94.8,80.2 92.6,81.6 90.4,80.2 89.6,81.7 91.1,83.6 92.6,106.1 92.6,106.3 92.6,106.4 
			92.6,106.3 92.6,106.4 92.6,106.3 92.6,106.1 94.1,83.6 		"/>
		<g>
			<g>
				<path class="st7" d="M105,100.2c-1.3,2.8-4.6,4-7.3,2.7c-2.8-1.3-4-4.6-2.7-7.4l4.6-10c1.3-2.8,4.6-4,7.3-2.7
					c2.8,1.3,4,4.6,2.7,7.4L105,100.2z"/>
				
					<ellipse transform="matrix(0.4225 -0.9064 0.9064 0.4225 -19.5883 140.9177)" class="st5" cx="100.8" cy="85.8" rx="0.6" ry="0.6"/>
				
					<ellipse transform="matrix(0.4225 -0.9064 0.9064 0.4225 -18.3507 150.3049)" class="st5" cx="108.8" cy="89.6" rx="0.6" ry="0.6"/>
				<path class="st5" d="M100.6,86.1c1-2.2,3.7-3.2,5.9-2.2c2.2,1,3.2,3.7,2.2,6c-1,2.2-3.7,3.2-5.9,2.2
					C100.5,91,99.6,88.3,100.6,86.1z"/>
				<g>
					<ellipse transform="matrix(0.4225 -0.9064 0.9064 0.4225 -21.6987 145.9664)" class="st7" cx="103.7" cy="90" rx="1" ry="1"/>
					
						<ellipse transform="matrix(0.4225 -0.9064 0.9064 0.4225 -21.7431 145.9761)" class="st9" cx="103.7" cy="90.1" rx="0.9" ry="0.9"/>
					
						<ellipse transform="matrix(0.4225 -0.9064 0.9064 0.4225 -21.918 145.9986)" class="st7" cx="103.6" cy="90.2" rx="0.4" ry="0.4"/>
					<path class="st7" d="M102.5,90.7c0.2-0.3,0.6-0.5,0.7-0.4l0.3,0.1l0.3,0.1c0.2,0.1,0.3,0.5,0.2,0.8c-0.1,0.3-0.3,0.3-0.9,0.1
						C102.5,91.2,102.3,91.1,102.5,90.7z M103.1,91.2c0.5,0.2,0.6,0.2,0.7,0.1c0.1-0.3,0-0.6-0.1-0.6l-0.2-0.1l-0.2-0.1
						c-0.1,0-0.4,0-0.5,0.3C102.6,90.9,102.6,91,103.1,91.2z"/>
					<path class="st7" d="M103.8,90.3L103.8,90.3c0.1-0.1,0-0.3-0.1-0.4s-0.3,0-0.4,0.2l0,0c-0.1,0.1-0.2,0.1-0.3,0.2
						c-0.1,0.1,0,0.2,0,0.2l0.5,0.2c0.1,0,0.1,0,0.2-0.1C103.9,90.5,103.8,90.5,103.8,90.3z"/>
				</g>
				<path class="st6" d="M105.8,86.2c-0.1,0-0.2,0-0.3-0.1c-0.4-0.2-0.6-0.4-0.6-0.8c0-0.3,0.1-0.6,0.4-0.8c0.3-0.2,0.6-0.2,0.9,0
					c0,0,0.1,0.1,0,0.1c0,0-0.1,0.1-0.1,0c-0.3-0.1-0.6-0.1-0.8,0c-0.2,0.1-0.3,0.4-0.3,0.6c0,0.3,0.2,0.5,0.5,0.7
					c0.2,0.1,0.4,0.1,0.5,0c0.1-0.1,0.1-0.1,0.1-0.2c0-0.1-0.1-0.3-0.4-0.4c0,0-0.1-0.1,0-0.1c0,0,0.1-0.1,0.1,0
					c0.4,0.2,0.4,0.4,0.4,0.5c0,0.1-0.1,0.3-0.2,0.4C106,86.2,105.9,86.2,105.8,86.2z"/>
				<g>
					<path class="st9" d="M99.6,94.1c0.3,0.2,0.5,0.3,0.8,0.5c1.2,0.6,2.7,0.8,4.2,0.6c1.3-0.2,2.4-0.6,3.3-1.3l0.3-0.6
						c-1,0.8-2.2,1.4-3.6,1.6c-2,0.3-4-0.3-5.2-1.3c-0.8-2-1.2-3.8-1-5.3L98.1,89c0,3.6,2.5,8.8,6.3,12.4c0.1-0.1,0.1-0.2,0.2-0.2
						C102.4,99.1,100.7,96.6,99.6,94.1z"/>
				</g>
			</g>
			<path class="st6" d="M102.6,86.6c-0.2-0.1-0.3-0.2-0.4-0.4c-0.1-0.2-0.1-0.4,0-0.6c0,0,0.1-0.1,0.1,0c0,0,0.1,0.1,0,0.1
				c-0.2,0.4,0,0.6,0.2,0.7c0.1,0.1,0.3,0.1,0.4,0c0.1,0,0.3-0.2,0.3-0.3c0,0,0.1-0.1,0.1,0c0,0,0.1,0.1,0,0.1
				C103.4,86.6,102.9,86.7,102.6,86.6z"/>
			<path class="st6" d="M107,88.6c-0.2-0.1-0.3-0.2-0.3-0.4c-0.1-0.2-0.1-0.4,0-0.6c0,0,0.1-0.1,0.1,0c0,0,0.1,0.1,0,0.1
				c-0.2,0.4,0,0.6,0.2,0.7c0.2,0.1,0.5,0.1,0.7-0.3c0,0,0.1-0.1,0.1,0c0,0,0.1,0.1,0,0.1C107.7,88.7,107.3,88.8,107,88.6z"/>
		</g>
		<g>
			<path class="st5" d="M101.5,97.3c-0.6-1.1-1-3-1.7-2.8c-0.4,0.1-0.3,0.9-0.1,1.6c-1-0.8-2.1-1.5-2.6-0.2
				c-0.5,1.3-0.4,2.3,3.3,3.3l1.4,0.1L101.5,97.3z"/>
			<path class="st26" d="M109.3,98.1c-0.7,4.1-5.4,3-8.9,1.1l1.1-1.7c1.4,0.8,5,2.2,5.7,0.1L109.3,98.1z"/>
		</g>
	</g>
</g>
<g>
	<g>
		<circle class="st5" cx="173" cy="65.9" r="2.1"/>
		<circle class="st5" cx="186.1" cy="65.9" r="2.1"/>
		<path class="st5" d="M188,76.9l-3.4-21.6h-10l-3.4,21.6h0.1c0.2,0.9,3.8,1.7,8.3,1.7C184.1,78.6,187.7,77.8,188,76.9L188,76.9z"/>
		<path class="st6" d="M176.4,64c-0.1,0-0.2,0-0.3,0c-0.9,0-1.9-0.8-1.9-2.1l0.4,0c0,1.1,0.8,1.7,1.5,1.7c0.6,0,1.3-0.4,1.5-1.8
			l0.4,0C177.8,63.3,177.1,63.9,176.4,64z"/>
		<path class="st6" d="M183.5,64c-0.1,0-0.2,0-0.3,0c-0.9,0-1.9-0.8-1.9-2.1l0.4,0c0,1.1,0.8,1.7,1.5,1.7c0.6,0,1.3-0.4,1.5-1.8
			l0.4,0C184.9,63.3,184.2,63.9,183.5,64z"/>
		<path class="st6" d="M178.6,73.4V73c1.9,0,4.4-1.1,5.4-3.1l0.4,0.2C183.2,72.2,180.6,73.4,178.6,73.4z"/>
		<polygon class="st6" points="180.6,68.8 177.5,68.8 179.2,61.7 179.7,61.8 178.1,68.3 180.6,68.3 		"/>
	</g>
	<polygon class="st26" points="179.6,121.6 174.8,172.2 165.6,172.2 170.9,168 171.6,121.4 177.2,118.4 	"/>
	<path class="st5" d="M158.6,114c-0.5,1-1.4,3.8,0,3.9c1.2,0.1,2.4,0.4,2.9-0.4c0.1-0.2,0.1-0.3,0-0.6c-0.4-0.1-0.8-0.5-0.5-0.8
		c0.3,0,0.9,0,1.1,0.2c0.2-0.1,0.3-0.6-0.3-1c-0.6-0.3-0.3-0.7-0.2-1.3L161,113L158.6,114z"/>
	<path class="st26" d="M171.4,76.3c-3.3,2-11.3,22.6-12.8,37.6l3.1,0.1c0.8-6.4,4.7-23.1,11.7-31.1L171.4,76.3z"/>
	<path class="st26" d="M187.7,121.8l0.7,46.2l5.2,4.2h-9.2l-4.7-50.4c0-2.2,0.5-4,3.8-4C185.8,117.8,187.7,118.8,187.7,121.8z"/>
	<g>
		<path class="st26" d="M187.7,121.8L187.7,121.8c0.5-4,0.8-8.2,1.2-11.9l-9.3,0.4v11.5h0.1l4.4,46.3h4.5l-0.1-0.1L187.7,121.8z"/>
	</g>
	<path class="st7" d="M181.6,113.3h-3.9v-2.5h3.9V113.3z M180.9,111.2h-2.6v1.5h2.6V111.2z"/>
	<path class="st7" d="M181.4,112c0,0.1-0.1,0.2-0.2,0.2h-0.9c-0.1,0-0.2-0.1-0.2-0.2l0,0c0-0.1,0.1-0.2,0.2-0.2h0.9
		C181.3,111.8,181.4,111.9,181.4,112L181.4,112z"/>
	<path class="st35" d="M200.7,114c0.5,1,1.4,3.8,0,3.9c-1.2,0.1-2.4,0.4-2.9-0.4c-0.1-0.2-0.1-0.3,0-0.6c0.4-0.1,0.8-0.5,0.5-0.8
		c-0.3,0-0.9,0-1.1,0.2c-0.2-0.1-0.3-0.6,0.3-1c0.6-0.3,0.3-0.7,0.2-1.3l0.6-1.1L200.7,114z"/>
	<path class="st26" d="M187.8,76.3c3.3,2,11.3,22.6,12.8,37.6l-3.1,0.1c-0.8-6.4-4.7-23.1-11.7-31.1L187.8,76.3z"/>
	<path class="st26" d="M187.8,76.3h-8.3h0h-8.3c-3.4,14.1-1.8,27.8,0.2,45.5h8h0h8C189.6,104.1,191.2,90.4,187.8,76.3z"/>
	<polygon class="st7" points="182.7,110.2 180.5,80.7 182.1,77.4 179.6,77.4 179.6,77.4 177.1,77.4 178.7,80.7 176.4,110.2 
		179.6,113.8 179.6,113.8 179.6,113.8 	"/>
</g>
<g>
	<g>
		<rect x="110.2" y="98" class="st7" width="32.3" height="47.8"/>
		<g>
			<rect x="111.8" y="146.5" class="st33" width="3" height="26"/>
			<rect x="114.3" y="146.5" class="st151" width="3" height="26"/>
			<rect x="170" y="146.5" class="st33" width="3" height="26"/>
			<rect x="167.5" y="146.5" class="st151" width="3" height="26"/>
			<rect x="110.1" y="145.4" class="st57" width="64.6" height="2.2"/>
		</g>
		<rect x="110.2" y="137.6" class="st34" width="32.3" height="7"/>
		<rect x="110.2" y="142" class="st33" width="32.3" height="3.9"/>
	</g>
	<g>
		<g>
			<rect x="142.4" y="98" class="st7" width="32.3" height="47.8"/>
			<rect x="142.4" y="137.6" class="st34" width="32.3" height="7"/>
			<rect x="142.4" y="142" class="st33" width="32.3" height="3.9"/>
		</g>
	</g>
	<g>
		<polygon class="st5" points="123.9,91.4 121.8,70.8 136.9,68.8 135.4,91.4 		"/>
		<circle class="st5" cx="122.7" cy="81" r="2"/>
		<circle class="st5" cx="136.2" cy="81" r="2"/>
		<g>
			<path class="st6" d="M125.9,79.9c-0.1,0-0.2,0-0.3,0c-0.9,0-1.8-0.8-1.8-2.1l0.4,0c0,1,0.7,1.6,1.4,1.7c0.6,0,1.3-0.4,1.4-1.7
				l0.4,0C127.3,79.2,126.6,79.8,125.9,79.9z"/>
			<path class="st6" d="M132.7,79.9c-0.1,0-0.2,0-0.3,0c-0.9,0-1.8-0.8-1.8-2.1l0.4,0c0,1,0.7,1.6,1.4,1.7c0.6,0,1.3-0.4,1.4-1.7
				l0.4,0C134.1,79.2,133.4,79.8,132.7,79.9z"/>
			<path class="st6" d="M128,88.9v-0.4c1.8,0,4.2-1,5.2-3l0.4,0.2C132.5,87.9,130,88.9,128,88.9z"/>
			<polygon class="st6" points="129.9,84.6 127,84.6 128.6,77.8 129.1,77.9 127.6,84.1 129.9,84.1 			"/>
		</g>
		<g>
			<path class="st147" d="M139,131.5c0-22.4-0.9-27.9-3.5-40.1h-11.6c-2.7,12.4-3.5,17.8-3.5,41.1c0,0-1,6,8.4,6h0.7
				C138.6,138.5,139,134.3,139,131.5z"/>
			<polygon class="st147" points="125.5,130.7 113.8,134.2 121.8,169.1 116.1,172.5 125.3,172.5 121.8,138.8 130.1,138.5 			"/>
			<polygon class="st147" points="134.4,130.7 146.1,134.2 138.1,169.1 143.8,172.5 134.6,172.5 138.2,138.8 129.8,138.5 			"/>
			<polyline class="st152" points="133.4,91.4 126.1,91.4 129.9,104.6 			"/>
			<polygon class="st7" points="132.9,91.4 126.7,91.4 129.8,103.4 			"/>
		</g>
		<path class="st30" d="M137.5,73.2c1-1.3,1.7-3.7,1.7-6.4l-19.1,3.3l3.1,14.7l-0.5-9c1.1-1,1.4-2,1.5-4c1.3,2.6,5.9,3.9,11.3,2.5
			l0.3,9.4L137.5,73.2z"/>
		<g>
			<path class="st5" d="M119.7,130.2c1.7-0.5,1.9-1,2.8-0.5c1.4,1.2,3.3,1,3.3,2.4c0,0.8-4.2,0.5-6.3,0.5l-0.6-1.1L119.7,130.2z"/>
		</g>
		<path class="st147" d="M124,93.1c0,0-14.6,14.6-12.7,22.7s7.6,15.7,7.6,15.7l2.3-2c0,0-7.5-12.3-6.5-15.4
			c2.9-8.6,7.9-13.8,7.9-13.8L124,93.1z"/>
		<g>
			<path class="st5" d="M139.6,130.2c-1.7-0.5-1.9-1-2.8-0.5c-1.4,1.2-3.3,1-3.3,2.4c0,0.8,4.2,0.5,6.3,0.5l0.6-1.1L139.6,130.2z"/>
		</g>
		<path class="st147" d="M135.3,93.1c0,0,14.6,14.6,12.7,22.7c-1.9,8.1-7.6,15.7-7.6,15.7l-2.3-2c0,0,7.5-12.3,6.5-15.4
			c-2.9-8.6-7.9-13.8-7.9-13.8L135.3,93.1z"/>
	</g>
	<g>
		<g>
			<path class="st30" d="M160.3,88.3c1.7,2.9,10.4,4.1,13.3,1.6c-3.6,0.4-3.7-2.5-1.7-10.1c2-9.9-7.3-13.9-11.6-13.9
				c-4.3,0-13.6,4-11.6,13.9c2,7.6,1.9,10.5-1.7,10.1C149.8,92.4,158.5,91.1,160.3,88.3z"/>
			<circle class="st5" cx="151" cy="79.5" r="1.9"/>
			<circle class="st5" cx="169.5" cy="79.5" r="1.9"/>
			<path class="st5" d="M161.9,68.7h-3c-5.8,0.7-8.6,3.5-8.6,9.2c0,4.2,2.1,7.5,4.9,9c4.6,2.5,3.6,3.8,3.2,5l2.1,2.1l2-2.1
				c-0.4-1.1-1.5-2.5,3.1-5c2.8-1.5,4.9-4.9,4.9-9C170.5,72.2,167.7,69.4,161.9,68.7z"/>
			<path class="st30" d="M159.9,66.6c4.7,0,8.9,2.3,10.4,4.9c0.4,0.9,1.9,2,3.1,1.5c-2.2,5.1-21.4,5.4-23.7,3.1
				c-1.3-0.7,0.7-3.8,1.6-5.1C152.6,69.3,156.5,66.7,159.9,66.6z"/>
			<path class="st27" d="M154.2,80.4c0,0-0.1,0-0.1,0c-0.8-0.1-1.7-0.7-1.6-1.8l0.4,0c0,0.9,0.7,1.3,1.3,1.4c0.6,0,1.4-0.3,1.5-1.3
				l0.4,0C155.8,80,155,80.4,154.2,80.4z"/>
			<path class="st27" d="M166.5,80.4c-0.8,0-1.6-0.5-1.7-1.6l0.4,0c0.1,1,0.8,1.3,1.5,1.3c0.6,0,1.3-0.5,1.3-1.4l0.4,0
				c0,1.1-0.8,1.7-1.6,1.8C166.6,80.4,166.5,80.4,166.5,80.4z"/>
			<path class="st27" d="M161.4,86.5c-0.6,0-1.1-0.1-1.3-0.5l0.3-0.2c0.1,0.2,0.8,0.3,1.5,0.2c0.5-0.1,1.3-0.4,1.3-1.2l0.4,0
				c0,0.8-0.6,1.4-1.6,1.6C161.9,86.5,161.6,86.5,161.4,86.5z"/>
			<path class="st27" d="M160.4,83.2l-2.8-0.4l0.6-0.2c1.3-0.5,2.1-2.7,2.1-3.7h0.3c0,1-0.6,3-1.8,3.8l1.7,0.3L160.4,83.2z"/>
		</g>
		<g>
			<polygon class="st5" points="159.2,138.9 166.9,172.5 162,172.5 164.5,169 154.6,138.8 			"/>
			<polygon class="st5" points="152.7,138.9 161.7,172.5 156.8,172.5 159.3,169.1 148.2,138.8 			"/>
			<path class="st30" d="M163.8,139c4.4-0.2,3.7-9.1,3.5-13.3c-0.2-11.2-1.8-23.4-4.4-32.7l-4.7-0.3c-3.5,10.8-4,16.9-4.4,32.5
				c-0.2,7.9-6.3,5.2-6,9.6c0.1,2.1,0.5,8.6,0.5,8.6h13.2l-0.1-2.2C161.2,140,161.8,139,163.8,139z"/>
			<g>
				<polygon class="st27" points="161.7,172.5 160.8,169.1 159.3,169.1 156.8,172.5 				"/>
				<polygon class="st27" points="166.9,172.5 166.1,169.1 164.5,169.1 162,172.5 				"/>
			</g>
		</g>
		<g>
			<polygon class="st7" points="160.5,107.2 162,93.6 160.5,92.5 158.9,93.6 			"/>
			<polygon class="st7" points="160.4,92.5 161.7,94.8 163.5,92.6 162.6,91.1 			"/>
			<polygon class="st7" points="160.5,92.5 159.2,94.8 157.5,92.6 158.3,91.1 			"/>
		</g>
		<g>
			<path class="st5" d="M154.1,130.2c1.7-0.5,1.9-1,2.8-0.5c1.4,1.2,3.3,1,3.3,2.4c0,0.8-4.2,0.5-6.3,0.5l-0.6-1.1L154.1,130.2z"/>
		</g>
		<path class="st30" d="M158.1,93.7c0,0-10.1,14.9-8.8,23.5c1.2,8.2,4,14.3,4,14.3l2.3-2c0,0-4.4-11.1-3.1-16
			c2.3-8.8,4.5-13.1,4.5-13.1L158.1,93.7z"/>
		<g>
			<path class="st5" d="M167.1,130.2c-1.7-0.5-1.9-1-2.8-0.5c-1.4,1.2-3.3,1-3.3,2.4c0,0.8,4.2,0.5,6.3,0.5l0.6-1.1L167.1,130.2z"/>
		</g>
		<path class="st30" d="M163,93.6c0,0,10.2,15,8.9,23.6c-1.2,8.2-4,14.3-4,14.3l-2.3-2c0,0,4.4-11.1,3.1-16
			c-2.3-8.8-4.5-13.1-4.5-13.1L163,93.6z"/>
	</g>
</g>
<polygon class="st29" points="170.9,52.3 172.9,55.4 173.4,65.1 174.8,55.7 184.8,56.8 186.1,64.8 187.7,50.9 "/>
<g>
	<g>
		<polygon class="st147" points="191.6,139.4 195.3,172.3 202.4,172.3 198.4,169.6 197.8,139.2 193.4,137.2 		"/>
		<path class="st5" d="M207.8,134.4c0.4,0.6,1.1,2.5,0,2.6c-0.9,0.1-1.9,0.3-2.3-0.3c-0.1-0.2-0.1-0.2,0-0.4c0.3,0,0.6-0.3,0.4-0.5
			c-0.3,0-0.7,0-0.9,0.1c-0.2-0.1-0.2-0.4,0.2-0.6c0.5-0.2,0.3-0.5,0.2-0.9l0.5-0.7L207.8,134.4z"/>
		<path class="st153" d="M198,109.9c2.5,1.3,8.7,14.7,9.9,24.5l-2.4,0.1c-0.6-4.2-3.6-15.1-9-20.2L198,109.9z"/>
		<path class="st5" d="M175.4,134.4c-0.4,0.6-1.1,2.5,0,2.6c0.9,0.1,1.9,0.3,2.3-0.3c0.1-0.2,0.1-0.2,0-0.4c-0.3,0-0.6-0.3-0.4-0.5
			c0.3,0,0.7,0,0.9,0.1c0.2-0.1,0.2-0.4-0.2-0.6c-0.5-0.2-0.3-0.5-0.2-0.9l-0.5-0.7L175.4,134.4z"/>
		<path class="st153" d="M185.2,109.9c-2.5,1.3-8.7,14.7-9.9,24.5l2.4,0.1c0.6-4.2,3.6-15.1,9-20.2L185.2,109.9z"/>
		<path class="st147" d="M185.3,139.5l-0.5,30.1l-4,2.7h7.1l3.7-32.8c0-1.5-0.4-2.6-2.9-2.6C186.8,136.9,185.3,137.6,185.3,139.5z"
			/>
		<path class="st153" d="M198,109.9L198,109.9c-0.1,0.6-2.9,1.1-6.4,1.1c0,0,0,0,0,0v0c0,0,0,0,0,0s0,0,0,0v0c0,0,0,0,0,0
			c-3.5,0-6.4-0.5-6.4-1.1h0c-2.6,9.2-1.4,18.1,0.2,29.6h6.2h0h6.2C199.4,128,200.6,119.1,198,109.9z"/>
		<path class="st7" d="M190.2,133.2c0,0.1,0.1,0.1,0.2,0.1h0.7c0.1,0,0.2-0.1,0.2-0.1l0,0c0-0.1-0.1-0.1-0.2-0.1h-0.7
			C190.2,133,190.2,133.1,190.2,133.2L190.2,133.2z"/>
		<path class="st28" d="M185.3,139.5L185.3,139.5c-0.4-2.6-0.7-5.1-1-7.5h7.2h0h7.2c-0.3,2.4-0.6,4.8-1,7.5h0l0.5,30.1l0.1,0.1H195
			l-3.4-30.1l0,0h0h-0.1l-3.4,30.1h-3.5l0.1-0.1L185.3,139.5z"/>
		<g>
			<rect x="186.5" y="132.7" class="st7" width="2.9" height="1"/>
			<g>
				<path class="st7" d="M185.9,132.7v1h-1.3c0-0.3-0.1-0.6-0.1-1H185.9z"/>
			</g>
		</g>
		<g>
			<path class="st7" d="M186.8,134.2L186.8,134.2l0.6-0.1v0.2H187c0,0.9-0.6,2-2,2.8c0-0.1,0-0.1,0-0.2
				C186.3,136.1,186.8,135,186.8,134.2z"/>
		</g>
		<g>
			<rect x="193.7" y="132.7" class="st7" width="2.9" height="1"/>
			<g>
				<path class="st7" d="M197.3,132.7v1h1.3c0-0.3,0.1-0.6,0.1-1H197.3z"/>
			</g>
		</g>
		<g>
			<path class="st7" d="M196.4,134.2L196.4,134.2l-0.6-0.1v0.2h0.4c0,0.9,0.6,2,2,2.8c0-0.1,0-0.1,0-0.2
				C196.9,136.1,196.4,135,196.4,134.2z"/>
		</g>
		<path class="st7" d="M190.1,132.4h3v1.6h-3V132.4z M190.6,133.7h2v-1h-2V133.7z"/>
	</g>
	<path class="st26" d="M196.4,98c0,0-2.1,2.9-9,1.3v-2L196.4,98z"/>
</g>
<path class="st5" d="M181.6,116.9c-0.5,0.9-1.8,3.4-0.6,3.5c1.1,0.1,2.1,0.4,2.6-0.3c0.1-0.2,0.1-0.3,0-0.5c-0.4,0-0.7-0.4-0.5-0.7
	c0.3,0,0.8,0,1,0.2c0.2-0.1,0.3-0.5-0.3-0.8s-0.3-0.6-0.2-1.2l-0.5-0.9L181.6,116.9z"/>
<path class="st26" d="M196,84.3c-2.9,1.7-13.1,19.5-14.4,32.7l2.1,0.1c0.7-5.6,6.8-22,13-29L196,84.3z"/>
<g>
	<ellipse class="st5" cx="196.7" cy="103.1" rx="1.6" ry="1.4"/>
	<ellipse class="st5" cx="186.5" cy="103.1" rx="1.6" ry="1.4"/>
	<path class="st5" d="M185.4,110.3l2.3-14l8,1.1l2.4,12.9H198c-0.2,0.6-3,1.1-6.4,1.1C188.1,111.4,185.4,110.3,185.4,110.3z"/>
	<path class="st6" d="M193.8,102.8c0.1,0,0.1,0,0.2,0c0.6,0,1.3-0.5,1.3-1.2l-0.3,0c0,0.6-0.5,1-1,1c-0.4,0-0.9-0.3-1-1l-0.3,0
		C192.8,102.4,193.3,102.7,193.8,102.8z"/>
	<path class="st6" d="M189,102.8c0.1,0,0.1,0,0.2,0c0.6,0,1.3-0.5,1.3-1.2l-0.3,0c0,0.6-0.5,1-1,1c-0.4,0-0.9-0.3-1-1l-0.3,0
		C187.9,102.4,188.5,102.7,189,102.8z"/>
	<path class="st6" d="M191.6,108.6v-0.2c-1.2,0-2.8-0.6-3.4-1.7l-0.2,0.1C188.6,108,190.3,108.6,191.6,108.6z"/>
	<path class="st6" d="M190.8,106c0,0,1.7,0.4,2.2,0.1c0.7-0.6-1.1-4.7-1.1-4.7l-0.4,0.1c0,0,1.6,4.1,1.2,4.4
		c-0.4,0.4-1.9-0.2-1.9-0.2V106z"/>
</g>
<path class="st26" d="M201.5,83.2c11.7,3.2,4,30.7,2.3,34.4l-2-1c3.6-14.8,5.3-24.6,0.3-30.1L201.5,83.2z"/>
<path class="st5" d="M203.8,117.2c0,1,0,3.8-1.1,3.3c-1-0.4-2.1-0.7-2.1-1.5c0-0.2,0.1-0.3,0.2-0.5c0.4,0.1,0.8-0.1,0.7-0.4
	c-0.2-0.2-0.7-0.4-1-0.3c-0.1-0.2,0-0.6,0.6-0.6s0.6-0.4,0.7-0.9l0.9-0.6L203.8,117.2z"/>
<path class="st29" d="M196.7,98.9c0.8-0.7,1.6-2,1.9-3.6l-11.9-0.6l-0.1,9.2l0.9-5.4c0.8-0.5,1.1-1,1.4-2.2c0.4,1.7,3,3.1,6.4,3
	l1,3.4L196.7,98.9z"/>
<path class="st26" d="M189.2,70.5c0,0-4-5.7,2.3-10.9s22.1-1.6,17.3,10.7c0,0,0.4-5.1-0.7-6.3h-18.5
	C189.5,63.9,188.2,66.9,189.2,70.5z"/>
<circle class="st26" cx="202.2" cy="56.6" r="4.2"/>
<path class="st26" d="M199,57.7c4.2,0.5,7.6,3,8.7,5.5c0.3,0.9,2,1.9,3.1,1.6c-2.5,4.3-20,2.5-21.8,0.2c-1.1-0.8,1-3.3,2-4.3
	C192.3,59.3,195.9,57.4,199,57.7z"/>
<g>
	<g>
		<g>
			<g>
				<polygon class="st5" points="87.9,145.6 87.1,172.2 83.7,172.2 85.6,169.8 84.2,145.5 86.2,142.6 				"/>
			</g>
			<g>
				<polygon class="st5" points="88.4,145.6 89.2,172.2 92.6,172.2 90.6,169.8 92.1,145.5 90,142.6 				"/>
				<g>
					<polygon class="st27" points="92.6,172.2 89.2,172.2 89.1,169.6 90.7,169.6 90.6,169.8 					"/>
				</g>
				<g>
					<polygon class="st27" points="83.7,172.2 87.1,172.2 87.1,169.6 85.6,169.6 85.6,169.8 					"/>
				</g>
			</g>
			<path class="st153" d="M86.4,117h1.7h0h1.7c3.4,8.1,3.1,19.9,3.5,33.9h-5.2h0h-5.2C83.2,136.9,83,125.1,86.4,117z"/>
			<g>
				<ellipse class="st5" cx="95" cy="109.3" rx="1.4" ry="1.2"/>
				<ellipse class="st5" cx="81.5" cy="109.3" rx="1.4" ry="1.2"/>
				<path class="st5" d="M87.1,102.6h2.2c4.3,0.4,6.3,2.1,6.3,5.7c0,2.6-1.5,4.6-3.6,5.6c-3.4,1.5-2.4,2.4-2.1,3.1
					c0,0.4-0.7,1-1.7,1s-1.7-0.5-1.7-1h0c0.3-0.7,1.2-1.5-2.1-3.1c-2.1-0.9-3.6-3-3.6-5.6C80.8,104.8,82.8,103,87.1,102.6z"/>
				<path class="st6" d="M92.6,109.9C92.7,109.9,92.7,109.9,92.6,109.9c0.7,0,1.3-0.4,1.3-1.1l-0.3,0c0,0.6-0.5,0.8-0.9,0.9
					c-0.5,0-1-0.2-1.1-0.8l-0.3,0C91.5,109.6,92.1,109.9,92.6,109.9z"/>
				<path class="st6" d="M83.7,109.9c0.6,0,1.2-0.3,1.3-1l-0.3,0c-0.1,0.6-0.6,0.8-1.1,0.8c-0.5,0-1-0.3-0.9-0.9l-0.3,0
					c0,0.7,0.6,1.1,1.2,1.1C83.6,109.9,83.7,109.9,83.7,109.9z"/>
				<path class="st6" d="M87.4,113.6c0.4,0,0.8-0.1,0.9-0.3l-0.3-0.1c-0.1,0.1-0.6,0.2-1.1,0.1c-0.3-0.1-0.9-0.2-0.9-0.8l-0.3,0
					c0,0.5,0.4,0.9,1.2,1C87.1,113.6,87.2,113.6,87.4,113.6z"/>
				<path class="st6" d="M88.1,111.6l2.1-0.3l-0.4-0.1c-1-0.3-1.5-1.7-1.5-2.3H88c0,0.6,0.5,1.8,1.3,2.3l-1.3,0.2L88.1,111.6z"/>
			</g>
			<polygon class="st7" points="85.9,117.1 86.6,116.2 88.1,117 89.7,116.2 90.3,117.1 89.2,118.3 88.1,131.9 88.1,132 88.1,132.1 
				88.1,132.1 88.1,132.1 88.1,132 88.1,131.9 87,118.3 			"/>
		</g>
		<path class="st146" d="M81.1,110.2c0,0-2.9-3.5,1.6-6.7c4.5-3.2,16-1,12.5,6.5c0,0,0.3-3.1-0.5-3.8H81.4
			C81.4,106.2,80.5,108,81.1,110.2z"/>
		<ellipse class="st146" cx="90.6" cy="101.8" rx="3" ry="2.5"/>
		<path class="st146" d="M88.2,102.4c3,0.3,5.5,1.8,6.3,3.4c0.2,0.5,1.5,1.2,2.2,1c-1.8,2.6-14.4,1.5-15.8,0.1
			c-0.8-0.5,0.7-2,1.4-2.6C83.4,103.4,86,102.3,88.2,102.4z"/>
	</g>
	<path class="st5" d="M77.1,138.9c-0.3,0.6-1.1,2.1-0.4,2.2c0.7,0,1.4,0.2,1.6-0.2c0.1-0.1,0-0.2,0-0.3c-0.2,0-0.4-0.3-0.3-0.4
		c0.2,0,0.5,0,0.6,0.1c0.1-0.1,0.2-0.3-0.2-0.5c-0.3-0.2-0.2-0.4-0.1-0.7l-0.3-0.6L77.1,138.9z"/>
	<path class="st153" d="M86.2,118.3c-1.8,1.1-8.3,12.3-9.1,20.7l1.3,0.1c0.5-3.5,4.3-13.9,8.2-18.3L86.2,118.3z"/>
	<path class="st5" d="M99.1,138.7c0.3,0.6,1.1,2.1,0.4,2.2c-0.7,0-1.4,0.2-1.6-0.2c-0.1-0.1,0-0.2,0-0.3c0.2,0,0.4-0.3,0.3-0.4
		c-0.2,0-0.5,0-0.6,0.1c-0.1-0.1-0.2-0.3,0.2-0.5c0.3-0.2,0.2-0.4,0.1-0.7l0.3-0.6L99.1,138.7z"/>
	<path class="st153" d="M90.1,118.1c1.8,1.1,8.3,12.3,9.1,20.7l-1.3,0.1c-0.5-3.5-4.3-13.9-8.2-18.3L90.1,118.1z"/>
</g>
<line class="st152" x1="129.9" y1="104.6" x2="132.9" y2="91.4"/>
</svg>
