<?xml version="1.0" encoding="utf-8"?>
<!-- Generator: Adobe Illustrator 21.1.0, SVG Export Plug-In . SVG Version: 6.00 Build 0)  -->
<!DOCTYPE svg PUBLIC "-//W3C//DTD SVG 1.1//EN" "http://www.w3.org/Graphics/SVG/1.1/DTD/svg11.dtd">
<svg version="1.1" id="Layer_1" xmlns="http://www.w3.org/2000/svg" xmlns:xlink="http://www.w3.org/1999/xlink" x="0px" y="0px"
	 viewBox="0 0 286 286" style="enable-background:new 0 0 286 286;" xml:space="preserve">
<style type="text/css">
	.st0{fill:#4298B5;}
	.st1{enable-background:new    ;}
	.st2{fill:#FFFFFF;}
	.st3{fill:#8AACBD;}
	.st4{fill:#E6EBEE;}
	.st5{fill:#C3D4DD;}
	.st6{fill:#A7BDC9;}
	.st7{fill:#003E5A;}
	.st8{fill:#EB6479;}
	.st9{fill:#243129;}
	.st10{fill:#6C707A;}
	.st11{fill:none;stroke:#243129;stroke-width:0.3823;stroke-miterlimit:10;}
	.st12{fill:#F27129;}
	.st13{fill:#D8E2E7;}
	.st14{fill:#333333;}
	.st15{fill:#E5E8DD;}
	.st16{fill:#767877;}
	.st17{fill:#545554;}
	.st18{fill:#F8E1C7;}
	.st19{fill:#5A5048;}
</style>
<circle class="st0" cx="143" cy="143" r="143"/>
<g class="st1">
	<path class="st2" d="M74.1,208.3h-8.5v-14.3h8.5v3.1h-4.6v2.2h4.3v3.1h-4.3v2.7h4.6V208.3z"/>
	<path class="st2" d="M84.9,204.9c0,1.2-0.4,2.1-1.2,2.7s-2,0.9-3.5,0.9c-0.8,0-1.5,0-2.1-0.1s-1.2-0.2-1.9-0.5v-3.1
		c0.6,0.3,1.2,0.5,1.9,0.6s1.3,0.3,1.9,0.3c0.8,0,1.2-0.2,1.2-0.6c0-0.2-0.1-0.4-0.3-0.5s-0.9-0.5-2-0.9c-1-0.4-1.7-0.9-2.1-1.4
		s-0.6-1.2-0.6-2c0-1,0.4-1.8,1.2-2.4s1.9-0.9,3.4-0.9c0.7,0,1.4,0.1,2.1,0.2s1.3,0.4,2,0.7l-1,2.5c-0.5-0.2-1-0.4-1.6-0.6
		s-1-0.2-1.4-0.2c-0.6,0-0.9,0.2-0.9,0.5c0,0.2,0.1,0.3,0.3,0.5s0.8,0.4,1.9,0.8c0.8,0.3,1.4,0.6,1.7,0.9s0.7,0.7,0.8,1.1
		S84.9,204.3,84.9,204.9z"/>
	<path class="st2" d="M92.5,205.5c0.5,0,1.1-0.1,1.8-0.4v2.8c-0.5,0.2-1,0.4-1.5,0.5s-1,0.1-1.6,0.1c-1.3,0-2.2-0.3-2.8-0.9
		s-0.8-1.6-0.8-2.9v-4.6h-1.3v-1.6l1.7-1.2l1-2.3h2.5v2.2h2.7v2.9h-2.7v4.3C91.4,205.2,91.8,205.5,92.5,205.5z"/>
	<path class="st2" d="M103.5,208.3l-0.7-1.5h-0.1c-0.5,0.6-1,1.1-1.6,1.3s-1.2,0.4-2.1,0.4c-1,0-1.9-0.3-2.5-0.9s-0.9-1.5-0.9-2.6
		c0-1.2,0.4-2.1,1.2-2.6s2-0.9,3.6-1l1.8-0.1v-0.2c0-0.9-0.4-1.4-1.3-1.4c-0.8,0-1.8,0.3-3.1,0.8l-1.1-2.5c1.3-0.7,2.9-1,4.9-1
		c1.4,0,2.5,0.4,3.3,1.1s1.2,1.7,1.2,2.9v7.3H103.5z M100.6,205.8c0.5,0,0.9-0.1,1.2-0.4s0.5-0.7,0.5-1.1v-0.9l-0.9,0
		c-1.3,0-1.9,0.5-1.9,1.4C99.6,205.5,99.9,205.8,100.6,205.8z"/>
	<path class="st2" d="M114.1,205.5c0.5,0,1.1-0.1,1.8-0.4v2.8c-0.5,0.2-1,0.4-1.5,0.5s-1,0.1-1.6,0.1c-1.3,0-2.2-0.3-2.8-0.9
		s-0.8-1.6-0.8-2.9v-4.6h-1.3v-1.6l1.7-1.2l1-2.3h2.5v2.2h2.7v2.9h-2.7v4.3C113.1,205.2,113.5,205.5,114.1,205.5z"/>
	<path class="st2" d="M123.3,208.5c-1.8,0-3.3-0.5-4.3-1.5s-1.5-2.4-1.5-4.2c0-1.9,0.5-3.3,1.4-4.3s2.3-1.5,4-1.5
		c1.7,0,3,0.4,3.9,1.3s1.4,2.1,1.4,3.8v1.7h-6.8c0,0.6,0.3,1.1,0.7,1.5s1,0.5,1.7,0.5c0.7,0,1.3-0.1,1.9-0.2s1.2-0.3,1.8-0.6v2.7
		c-0.6,0.3-1.2,0.5-1.9,0.6S124.1,208.5,123.3,208.5z M123,199.7c-0.4,0-0.8,0.1-1.1,0.4s-0.5,0.7-0.5,1.3h3.3c0-0.5-0.2-1-0.5-1.3
		S123.5,199.7,123,199.7z"/>
	<path class="st2" d="M142,208.3h-3.9v-11.1h-3.5v-3.2h10.8v3.2H142V208.3z"/>
	<path class="st2" d="M154,197.1c0.3,0,0.6,0,0.9,0.1l0.2,0l-0.3,3.6c-0.3-0.1-0.7-0.1-1.3-0.1c-0.8,0-1.4,0.2-1.8,0.6
		c-0.4,0.4-0.6,0.9-0.6,1.6v5.4h-3.8v-11.1h2.8l0.6,1.8h0.2c0.3-0.6,0.8-1.1,1.3-1.4C152.8,197.3,153.4,197.1,154,197.1z"/>
	<path class="st2" d="M163.9,208.3l-0.7-1.5h-0.1c-0.5,0.6-1,1.1-1.6,1.3c-0.5,0.2-1.2,0.4-2.1,0.4c-1,0-1.9-0.3-2.5-0.9
		c-0.6-0.6-0.9-1.5-0.9-2.6c0-1.2,0.4-2.1,1.2-2.6s2-0.9,3.6-1l1.8-0.1v-0.2c0-0.9-0.4-1.4-1.3-1.4c-0.8,0-1.8,0.3-3.1,0.8l-1.1-2.5
		c1.3-0.7,2.9-1,4.9-1c1.4,0,2.5,0.4,3.3,1.1c0.8,0.7,1.2,1.7,1.2,2.9v7.3H163.9z M161.1,205.8c0.5,0,0.9-0.1,1.2-0.4
		c0.3-0.3,0.5-0.7,0.5-1.1v-0.9l-0.9,0c-1.3,0-1.9,0.5-1.9,1.4C160,205.5,160.3,205.8,161.1,205.8z"/>
	<path class="st2" d="M176.1,208.3v-6c0-0.7-0.1-1.3-0.3-1.7c-0.2-0.4-0.6-0.6-1-0.6c-0.6,0-1.1,0.3-1.4,0.8
		c-0.3,0.5-0.4,1.4-0.4,2.6v4.8h-3.8v-11.1h2.9l0.5,1.4h0.2c0.3-0.5,0.8-0.9,1.4-1.2s1.2-0.4,2-0.4c1.2,0,2.2,0.4,2.9,1.1
		c0.7,0.7,1,1.7,1,3v7.2H176.1z"/>
	<path class="st2" d="M191.1,204.9c0,1.2-0.4,2.1-1.2,2.7c-0.8,0.6-2,0.9-3.5,0.9c-0.8,0-1.5,0-2.1-0.1s-1.2-0.2-1.9-0.5v-3.1
		c0.6,0.3,1.2,0.5,1.9,0.6c0.7,0.2,1.3,0.3,1.9,0.3c0.8,0,1.2-0.2,1.2-0.6c0-0.2-0.1-0.4-0.3-0.5c-0.2-0.2-0.9-0.5-2-0.9
		c-1-0.4-1.7-0.9-2.1-1.4c-0.4-0.5-0.6-1.2-0.6-2c0-1,0.4-1.8,1.2-2.4c0.8-0.6,1.9-0.9,3.4-0.9c0.7,0,1.4,0.1,2.1,0.2
		c0.6,0.2,1.3,0.4,2,0.7l-1,2.5c-0.5-0.2-1-0.4-1.6-0.6s-1-0.2-1.4-0.2c-0.6,0-0.9,0.2-0.9,0.5c0,0.2,0.1,0.3,0.3,0.5
		c0.2,0.1,0.8,0.4,1.9,0.8c0.8,0.3,1.4,0.6,1.7,0.9s0.7,0.7,0.8,1.1C191,203.8,191.1,204.3,191.1,204.9z"/>
	<path class="st2" d="M200,200.1h-2.4v8.2h-3.8v-8.2h-1.5v-1.9l1.5-0.9v-0.2c0-1.5,0.3-2.5,0.9-3.1s1.6-1,2.9-1c0.5,0,1,0,1.4,0.1
		c0.5,0.1,1,0.2,1.6,0.4l-0.8,2.5c-0.5-0.1-0.9-0.2-1.4-0.2c-0.3,0-0.5,0.1-0.6,0.3c-0.1,0.2-0.2,0.5-0.2,0.9v0.3h2.4V200.1z"/>
	<path class="st2" d="M206.8,208.5c-1.8,0-3.3-0.5-4.3-1.5c-1-1-1.5-2.4-1.5-4.2c0-1.9,0.5-3.3,1.4-4.3c0.9-1,2.3-1.5,4-1.5
		c1.7,0,3,0.4,3.9,1.3s1.4,2.1,1.4,3.8v1.7h-6.8c0,0.6,0.3,1.1,0.7,1.5c0.4,0.4,1,0.5,1.7,0.5c0.7,0,1.3-0.1,1.9-0.2
		c0.6-0.1,1.2-0.3,1.8-0.6v2.7c-0.6,0.3-1.2,0.5-1.9,0.6C208.5,208.5,207.7,208.5,206.8,208.5z M206.6,199.7c-0.4,0-0.8,0.1-1.1,0.4
		s-0.5,0.7-0.5,1.3h3.3c0-0.5-0.2-1-0.5-1.3C207.5,199.8,207.1,199.7,206.6,199.7z"/>
	<path class="st2" d="M220.5,197.1c0.3,0,0.6,0,0.9,0.1l0.2,0l-0.3,3.6c-0.3-0.1-0.7-0.1-1.3-0.1c-0.8,0-1.4,0.2-1.8,0.6
		c-0.4,0.4-0.6,0.9-0.6,1.6v5.4h-3.8v-11.1h2.8l0.6,1.8h0.2c0.3-0.6,0.8-1.1,1.3-1.4C219.4,197.3,219.9,197.1,220.5,197.1z"/>
</g>
<g class="st1">
	<path class="st2" d="M102,224h6.2v7.7c-1.7,0.6-3.5,0.9-5.5,0.9c-2.2,0-3.9-0.6-5.1-1.9s-1.8-3.1-1.8-5.5c0-2.3,0.7-4.1,2-5.4
		s3.2-1.9,5.5-1.9c0.9,0,1.7,0.1,2.5,0.3s1.5,0.4,2.1,0.6l-1.2,3c-1-0.5-2.2-0.8-3.4-0.8c-1.1,0-2,0.4-2.6,1.1s-0.9,1.8-0.9,3.1
		c0,1.3,0.3,2.4,0.8,3.1s1.4,1,2.4,1c0.6,0,1.1-0.1,1.6-0.2V227H102V224z"/>
	<path class="st2" d="M118.7,232.3l-0.5-1.4H118c-0.3,0.5-0.8,0.9-1.3,1.2s-1.2,0.4-2,0.4c-1.2,0-2.2-0.4-2.8-1.1s-1-1.7-1-3v-7.2
		h3.8v6c0,0.7,0.1,1.3,0.3,1.6s0.5,0.6,1,0.6c0.7,0,1.1-0.3,1.4-0.8s0.4-1.4,0.4-2.6v-4.8h3.8v11.1H118.7z"/>
	<path class="st2" d="M124.1,218.5c0-0.6,0.2-1,0.5-1.3s0.8-0.4,1.5-0.4s1.2,0.1,1.6,0.4s0.5,0.7,0.5,1.3c0,1.1-0.7,1.7-2,1.7
		C124.8,220.2,124.1,219.6,124.1,218.5z M128.1,232.3h-3.8v-11.1h3.8V232.3z"/>
	<path class="st2" d="M134.2,232.5c-0.8,0-1.5-0.2-2.1-0.7s-1-1.1-1.4-2s-0.5-1.9-0.5-3.1c0-1.8,0.4-3.2,1.1-4.2s1.7-1.5,3-1.5
		c0.6,0,1.2,0.1,1.6,0.4s0.9,0.7,1.3,1.2h0.1c-0.1-0.9-0.2-1.7-0.2-2.6v-3h3.8v15.2h-2.9l-0.8-1.4h-0.1
		C136.4,232,135.5,232.5,134.2,232.5z M135.7,229.5c0.6,0,1-0.2,1.3-0.6s0.4-1,0.4-1.8v-0.3c0-1-0.1-1.7-0.4-2.1s-0.7-0.6-1.3-0.6
		c-0.5,0-0.9,0.2-1.2,0.7s-0.4,1.1-0.4,2c0,0.9,0.1,1.5,0.4,2S135.2,229.5,135.7,229.5z"/>
	<path class="st2" d="M150.8,232.3l-0.7-1.5H150c-0.5,0.6-1,1.1-1.6,1.3c-0.5,0.2-1.2,0.4-2.1,0.4c-1,0-1.9-0.3-2.5-0.9
		s-0.9-1.5-0.9-2.6c0-1.2,0.4-2.1,1.2-2.6c0.8-0.6,2-0.9,3.6-1l1.8-0.1v-0.2c0-0.9-0.4-1.4-1.3-1.4c-0.8,0-1.8,0.3-3.1,0.8l-1.1-2.5
		c1.3-0.7,2.9-1,4.9-1c1.4,0,2.5,0.4,3.3,1.1c0.8,0.7,1.2,1.7,1.2,2.9v7.3H150.8z M148,229.8c0.5,0,0.9-0.1,1.2-0.4
		c0.3-0.3,0.5-0.7,0.5-1.1v-0.9l-0.9,0c-1.3,0-1.9,0.5-1.9,1.4C146.9,229.5,147.3,229.8,148,229.8z"/>
	<path class="st2" d="M163,232.3v-6c0-0.7-0.1-1.3-0.3-1.7c-0.2-0.4-0.6-0.6-1-0.6c-0.6,0-1.1,0.3-1.4,0.8c-0.3,0.5-0.4,1.4-0.4,2.6
		v4.8h-3.8v-11.1h2.9l0.5,1.4h0.2c0.3-0.5,0.8-0.9,1.4-1.2s1.2-0.4,2-0.4c1.2,0,2.2,0.4,2.9,1.1c0.7,0.7,1,1.7,1,3v7.2H163z"/>
	<path class="st2" d="M174.5,232.5c-1.8,0-3.2-0.5-4.1-1.5c-0.9-1-1.4-2.4-1.4-4.2c0-1.8,0.5-3.3,1.5-4.3c1-1,2.4-1.5,4.3-1.5
		c1.3,0,2.5,0.3,3.6,0.8l-1.1,2.8c-0.5-0.2-0.9-0.4-1.3-0.5s-0.8-0.2-1.2-0.2c-0.6,0-1.1,0.2-1.4,0.7c-0.3,0.5-0.5,1.2-0.5,2
		c0,1.8,0.7,2.7,2,2.7c1.1,0,2.2-0.3,3.2-1v3C177.1,232.2,175.9,232.5,174.5,232.5z"/>
	<path class="st2" d="M185.6,232.5c-1.8,0-3.3-0.5-4.3-1.5c-1-1-1.5-2.4-1.5-4.2c0-1.9,0.5-3.3,1.4-4.3c0.9-1,2.3-1.5,4-1.5
		c1.7,0,3,0.4,3.9,1.3s1.4,2.1,1.4,3.8v1.7h-6.8c0,0.6,0.3,1.1,0.7,1.5c0.4,0.4,1,0.5,1.7,0.5c0.7,0,1.3-0.1,1.9-0.2
		c0.6-0.1,1.2-0.3,1.8-0.6v2.7c-0.6,0.3-1.2,0.5-1.9,0.6C187.2,232.5,186.5,232.5,185.6,232.5z M185.3,223.7c-0.4,0-0.8,0.1-1.1,0.4
		s-0.5,0.7-0.5,1.3h3.3c0-0.5-0.2-1-0.5-1.3C186.2,223.8,185.8,223.7,185.3,223.7z"/>
</g>
<g>
	<rect x="128.3" y="94.2" class="st2" width="33.1" height="49.1"/>
	<g>
		<circle class="st3" cx="131.8" cy="169.1" r="1.5"/>
		<circle class="st3" cx="144.7" cy="169.1" r="1.5"/>
		<circle class="st3" cx="157.6" cy="169.1" r="1.5"/>
		<rect x="143.2" y="143.4" class="st4" width="3.1" height="12.8"/>
		<rect x="142.4" y="152" class="st5" width="4.8" height="15"/>
		<path class="st2" d="M142.4,163.2l-11.1,2.3c-0.7,0.2-1.1,0.5-1.1,0.9v1.5h3.1l9-1v-3.7H142.4z"/>
		<path class="st2" d="M147.1,163.2l11.1,2.3c0.7,0.2,1.1,0.5,1.1,0.9v1.5h-3.1l-9-1v-3.7H147.1z"/>
		<rect x="143.5" y="163.2" class="st2" width="2.4" height="4.8"/>
		<rect x="137.2" y="142.7" class="st6" width="14.9" height="2.3"/>
	</g>
	<rect x="128.3" y="134.8" class="st5" width="33.1" height="7.2"/>
	<rect x="128.3" y="139.3" class="st4" width="33.1" height="4"/>
</g>
<g>
	<path class="st7" d="M155,129.5c0-23.9-1.8-29.4-4.6-42.1h-11.9c-2.8,12.7-4.6,18.3-4.6,42.1H155z"/>
	<polygon class="st2" points="144.5,120.8 147.9,116.9 145.5,91.7 147.2,88.1 141.7,88.1 143.5,91.7 141,116.9 	"/>
	<g>
		<polygon class="st8" points="138.5,87.4 136.1,77.3 132.3,76.9 137.8,64.1 150.8,64.1 150.4,87.4 		"/>
		<path class="st9" d="M142.2,73.4c0.8,0,1.7-0.5,2-2l-0.4-0.1c-0.3,1.4-1.2,1.8-1.8,1.7c-0.7-0.1-1.4-0.9-1.3-2l-0.4-0.1
			c-0.2,1.4,0.7,2.3,1.6,2.5C142,73.4,142.1,73.4,142.2,73.4z"/>
		<g>
			<path class="st10" d="M151.2,63.1l-0.7,15.5h-1.9l-1-3c0.9-0.3,1.6-1.2,1.6-2.2c0-1.3-1-2.3-2.3-2.3c-0.3,0-0.5,0.1-0.8,0.1
				l-0.9-2.8c-3.1,0.8-8.9,0.1-9.1-4.6L151.2,63.1z"/>
		</g>
		<line class="st11" x1="139.8" y1="81.9" x2="144.9" y2="81.5"/>
	</g>
	<path class="st12" d="M155.1,107.8c-1.7-0.5-2-1-2.9-0.5c-1.5,1.2-3.4,1.1-3.4,2.4c0,0.8,4.3,0.6,6.5,0.5l0.6-1.2L155.1,107.8z"/>
	<path class="st7" d="M150.3,87.4c5,3.2,11.8,12.3,14,18.6c0.9,3-1.9,4.2-3.1,4.2h-6l-0.2-2.4h4.9c1.6,0,1.3-1.5,0.7-2.7
		c-1.9-3.2-6-8.1-9.5-10.8l-2.5-3.2L150.3,87.4z"/>
	<path class="st8" d="M134.4,107.8c1.7-0.5,2-1,2.9-0.5c1.5,1.2,3.4,1.1,3.4,2.4c0,0.8-4.3,0.6-6.5,0.5l-0.6-1.2L134.4,107.8z"/>
	<path class="st7" d="M139.1,87.4c-5,3.2-11.8,12.3-14,18.6c-0.9,3,1.9,4.2,3.1,4.2h6l0.2-2.4h-4.9c-1.6,0-1.3-1.5-0.7-2.7
		c1.9-3.2,6-8.1,9.5-10.8l2.5-3.2L139.1,87.4z"/>
	<path class="st7" d="M145.5,135.7c10.9,0,9.5-5.6,9.5-8l-10.2-3l-10.6,2.9c-0.1,2.5-1.1,8.1,9.9,8.1H145.5z"/>
	<polygon class="st7" points="137.7,126.1 126.3,132.2 122.1,167.1 116.2,170.6 125.6,170.6 131.9,137.1 144.3,134.4 	"/>
	<polygon class="st7" points="147.6,126.1 139.1,131.6 140.7,167.1 134.8,170.6 144.8,170.6 146.6,136.5 151.2,135 	"/>
</g>
<g>
	<rect x="65.3" y="112.1" class="st13" width="3" height="58.5"/>
	<rect x="220.6" y="112.1" class="st13" width="3" height="58.5"/>
	<rect x="65.3" y="112.1" class="st5" width="158.3" height="5.3"/>
	<rect x="58.8" y="110.2" class="st4" width="171.9" height="3.1"/>
</g>
<g>
	<g>
		<path class="st8" d="M189.6,63.6h-4.5c0,0-3.2,16.6-3.9,22.1l8.4,5.1l8.4-5.1c-0.7-5.5-3.9-22.1-3.9-22.1H189.6z"/>
		<path class="st7" d="M189.6,129.1h-7.7c-3-6.7-4.5-35.7-0.7-43.3h16.9c3.8,7.7,2.3,36.7-0.7,43.3H189.6z"/>
		<path class="st7" d="M198.1,85.7c4.7,5.1,14.5,20,15.5,21.5c0.8,1.5-1.3,4.9-3.8,1.9c-2-2.8-9.1-12.3-11-14.1
			C198.8,95,197.6,87.1,198.1,85.7z"/>
		<path class="st7" d="M181.2,85.7c-4.7,5.1-14,20-15.1,21.6c-0.8,1.5,1.3,4.9,3.8,1.9c2-2.8,8.7-12.4,10.5-14.2
			C180.4,95,181.7,87.1,181.2,85.7z"/>
		<polygon class="st7" points="195,134.5 194.8,170.9 204.3,170.9 198.9,167.7 201.6,130.1 189.7,125.4 177.8,130.1 180.5,167.7 
			175.1,170.9 184.6,170.9 184.5,134.5 		"/>
		<polygon class="st7" points="184.4,67.4 182.8,63.6 196.5,63.6 197.5,82.1 188.4,82.1 187.3,68.6 		"/>
		<ellipse class="st8" cx="187.9" cy="72.6" rx="1.8" ry="2.1"/>
		<polygon class="st8" points="184.1,69.7 181.6,74.7 184.1,74.8 		"/>
		<path class="st9" d="M184.8,72.6c-0.3,0-0.7-0.1-1-0.4l0.3-0.3c0.3,0.3,0.7,0.4,1.1,0.3c0.5-0.1,0.9-0.6,1-0.9l0.4,0.1
			c-0.1,0.4-0.6,0.9-1.3,1.1C185.1,72.6,185,72.6,184.8,72.6z"/>
		<line class="st11" x1="182" y1="80.3" x2="184.8" y2="80.5"/>
	</g>
	<g>
		<g>
			<circle class="st3" cx="176.8" cy="169.3" r="1.5"/>
			<circle class="st3" cx="189.6" cy="169.3" r="1.5"/>
			<circle class="st3" cx="202.5" cy="169.3" r="1.5"/>
			<rect x="188.1" y="143.7" class="st4" width="3.1" height="12.8"/>
			<rect x="187.3" y="152.3" class="st5" width="4.8" height="15"/>
			<path class="st2" d="M187.3,163.5l-11.1,2.3c-0.7,0.2-1.1,0.5-1.1,0.9v1.5h3.1l9-1v-3.7H187.3z"/>
			<path class="st2" d="M192,163.5l11.1,2.3c0.7,0.2,1.1,0.5,1.1,0.9v1.5h-3.1l-9-1v-3.7H192z"/>
			<rect x="188.4" y="163.4" class="st2" width="2.4" height="4.8"/>
			<rect x="182.1" y="143" class="st6" width="14.9" height="2.3"/>
		</g>
		<g>
			<rect x="173.2" y="94.4" class="st2" width="33.1" height="49.1"/>
			<rect x="173.2" y="139.5" class="st4" width="33.1" height="4"/>
		</g>
	</g>
</g>
<g>
	<g>
		<rect x="109.3" y="107.6" class="st14" width="23.6" height="1.6"/>
		<rect x="112.7" y="108.2" class="st15" width="8.6" height="0.4"/>
	</g>
	<g>
		<rect x="111.2" y="109.2" class="st14" width="23.6" height="1.6"/>
		<rect x="122.7" y="109.8" class="st15" width="8.6" height="0.4"/>
	</g>
</g>
<g>
	<g>
		<rect x="139.9" y="104" class="st16" width="21.5" height="3.4"/>
		<rect x="139.9" y="107.3" class="st17" width="21.5" height="3.5"/>
	</g>
	<circle class="st2" cx="158.2" cy="107.5" r="1.3"/>
	<rect x="143.3" y="105" class="st2" width="10.1" height="4.8"/>
	<g>
		<rect x="144.6" y="106.1" class="st17" width="0.2" height="2.5"/>
		<rect x="145.8" y="106.2" class="st17" width="0.2" height="2.5"/>
		<rect x="147" y="106.2" class="st17" width="0.2" height="2.5"/>
		<rect x="148.3" y="106.2" class="st17" width="0.2" height="2.5"/>
		<rect x="149.5" y="106.2" class="st17" width="0.2" height="2.5"/>
		<rect x="150.8" y="106.2" class="st17" width="0.2" height="2.5"/>
		<rect x="152" y="106.2" class="st17" width="0.2" height="2.5"/>
	</g>
</g>
<g>
	<g>
		<g>
			<polygon class="st8" points="96.2,138.9 101.1,138.9 96.3,170.6 100.9,170.6 98.7,166.7 105.5,134.9 93,132.1 92.5,133.1 			"/>
			<g>
				<polygon class="st9" points="100.9,170.6 96.3,170.6 96.9,166.4 98.7,166.4 98.7,166.7 				"/>
			</g>
		</g>
		<g>
			<polygon class="st8" points="96.1,138.9 106.5,138.9 101.8,170.6 106.4,170.6 104.1,166.7 111,134.9 98.5,132.1 96.5,133.1 			
				"/>
			<g>
				<polygon class="st9" points="106.4,170.6 101.8,170.6 102.4,166.4 104.2,166.4 104.1,166.7 				"/>
			</g>
		</g>
		<path class="st7" d="M107.1,133.8c-0.3-16.7-2.5-33-6.4-43.8h-5.1c-3.9,10.9-6.5,23.3-6.8,38.2c0,5.3,1.5,10.8,6.7,10.8H108v-4.8
			L107.1,133.8z"/>
		<path class="st8" d="M99.8,64.7h-3.2c-6.4,0.7-9.4,3.8-9.4,10c0,4.5,2.3,8.2,5.3,9.8c5,2.7,3.4,4.2,2.9,5.4h0.8l0,0h2h2l0,0h0.8
			c-0.5-1.2-2.1-2.7,2.9-5.4c3.1-1.7,5.3-5.3,5.3-9.8C109.2,68.5,106.1,65.4,99.8,64.7z"/>
		<g>
			<path class="st7" d="M98,86c1.9,3.1,11.3,4.4,14.5,1.7c-3.9,0.4-4.1-2.7-1.9-11c2.2-10.8-7.9-15.2-12.6-15.2s-14.8,4.4-12.6,15.2
				c2.2,8.3,2,11.4-1.9,11C86.7,90.4,96.1,89.1,98,86z"/>
		</g>
		<path class="st7" d="M95.4,90.6c-3.4,2.9-14.4,11.2-17,13c-1.5,1.1-0.3,3.2,1.9,2c4.3-2.5,11.3-7.7,14.6-10.5
			C95.5,94,95.9,91.4,95.4,90.6z"/>
		<path class="st7" d="M100.9,90.6c3.4,2.9,14.4,11.2,17,13c1.5,1.1,0.3,3.2-1.9,2c-4.3-2.5-11.3-7.7-14.6-10.5
			C100.8,94,100.4,91.4,100.9,90.6z"/>
		<polygon class="st2" points="101.4,90.6 100.3,88.7 96,88.7 94.9,90.6 		"/>
	</g>
</g>
<g>
	<g>
		<circle class="st3" cx="85" cy="169.3" r="1.5"/>
		<circle class="st3" cx="97.9" cy="169.3" r="1.5"/>
		<circle class="st3" cx="110.8" cy="169.3" r="1.5"/>
		<rect x="96.3" y="143.7" class="st4" width="3.1" height="12.8"/>
		<rect x="95.5" y="152.3" class="st5" width="4.8" height="15"/>
		<path class="st2" d="M95.5,163.5l-11.1,2.3c-0.7,0.2-1.1,0.5-1.1,0.9v1.5h3.1l9-1L95.5,163.5L95.5,163.5z"/>
		<path class="st2" d="M100.3,163.5l11.1,2.3c0.7,0.2,1.1,0.5,1.1,0.9v1.5h-3.1l-9-1L100.3,163.5L100.3,163.5z"/>
		<rect x="96.7" y="163.4" class="st2" width="2.4" height="4.8"/>
		<rect x="90.4" y="143" class="st6" width="14.9" height="2.3"/>
	</g>
	<g>
		<rect x="81.4" y="94.4" class="st2" width="33.1" height="49.1"/>
		<rect x="81.4" y="139.5" class="st4" width="33.1" height="4"/>
	</g>
</g>
<g>
	
		<rect x="67.8" y="101" transform="matrix(1.557601e-02 -0.9999 0.9999 1.557601e-02 -41.1674 176.9409)" class="st18" width="2.9" height="16.8"/>
	
		<rect x="61.4" y="108.9" transform="matrix(1.557620e-02 -0.9999 0.9999 1.557620e-02 -47.3182 170.4352)" class="st19" width="2.9" height="0.7"/>
	
		<rect x="75" y="109.3" transform="matrix(1.560113e-02 -0.9999 0.9999 1.560113e-02 -34.2516 184.1649)" class="st19" width="2.9" height="0.3"/>
	
		<rect x="74.3" y="109.3" transform="matrix(1.556354e-02 -0.9999 0.9999 1.556354e-02 -34.9169 183.4834)" class="st19" width="2.9" height="0.3"/>
	
		<ellipse transform="matrix(1.560073e-02 -0.9999 0.9999 1.560073e-02 -41.1182 176.8897)" class="st19" cx="69.3" cy="109.3" rx="0.8" ry="4.3"/>
</g>
</svg>
