<?xml version="1.0" encoding="utf-8"?>
<!-- Generator: Adobe Illustrator 17.0.0, SVG Export Plug-In . SVG Version: 6.00 Build 0)  -->
<!DOCTYPE svg PUBLIC "-//W3C//DTD SVG 1.1//EN" "http://www.w3.org/Graphics/SVG/1.1/DTD/svg11.dtd">
<svg version="1.1" id="Layer_1" xmlns="http://www.w3.org/2000/svg" xmlns:xlink="http://www.w3.org/1999/xlink" x="0px" y="0px"
	 width="430px" height="654px" viewBox="0 0 430 654" enable-background="new 0 0 430 654" xml:space="preserve">
<rect x="0.24" fill="#34BFC2" width="429.521" height="654"/>
<g>
	<linearGradient id="SVGID_1_" gradientUnits="userSpaceOnUse" x1="208.3068" y1="121.7129" x2="208.3068" y2="203.2359">
		<stop  offset="0" style="stop-color:#FFD530"/>
		<stop  offset="0.1802" style="stop-color:#FFC625"/>
		<stop  offset="0.4396" style="stop-color:#FDB51A"/>
		<stop  offset="0.6035" style="stop-color:#FCAF17"/>
	</linearGradient>
	<polygon fill="url(#SVGID_1_)" points="167.649,203.236 186.088,122.865 208.347,121.713 230.607,122.865 248.965,203.236 	"/>
	<g>
		<path fill="#FFFFFF" d="M191.374,252.334l2.615,32.558h17.26l2.615-32.558H191.374z M211.881,269.087l-0.836-0.836l0.97-0.97
			l0.004,0.004L211.881,269.087z M210.675,278.601l-0.97-0.97l0.969-0.969l0.583,0.583l-0.064,0.838L210.675,278.601z
			 M211.132,278.884l-0.012,0.162l-0.075-0.075L211.132,278.884z M194.068,278.077l-0.063-0.828l0.587-0.587l0.97,0.97l-0.97,0.97
			L194.068,278.077z M194.222,278.972l-0.081,0.081l-0.013-0.174L194.222,278.972z M194.643,255.269l0.92,0.92l-0.97,0.97
			l-0.97-0.97l0.92-0.92H194.643z M197.323,255.269l0.92,0.92l-0.97,0.97l-0.97-0.97l0.92-0.92H197.323z M200.004,255.269l0.92,0.92
			l-0.97,0.97l-0.97-0.97l0.92-0.92H200.004z M202.684,255.269l0.919,0.919l-0.97,0.97l-0.97-0.97l0.92-0.92H202.684z
			 M205.364,255.269l0.92,0.92l-0.97,0.97l-0.97-0.97l0.919-0.919H205.364z M208.045,255.269l0.92,0.92l-0.97,0.97l-0.97-0.97
			l0.92-0.92H208.045z M210.725,255.269l0.919,0.919l-0.97,0.97l-0.969-0.969l0.92-0.92H210.725z M194.592,257.899l0.97,0.97
			l-0.97,0.97l-0.97-0.97L194.592,257.899z M193.252,258.499l-0.722-0.722l-0.035-0.46l0.758-0.758l0.97,0.97L193.252,258.499z
			 M199.953,265.941l0.97,0.97l-0.969,0.969l-0.97-0.97L199.953,265.941z M198.613,266.54l-0.97-0.97l0.969-0.969l0.97,0.97
			L198.613,266.54z M203.003,265.57l0.97-0.97l0.97,0.97l-0.97,0.97L203.003,265.57z M204.944,268.251l-0.97,0.97l-0.97-0.97
			l0.97-0.97L204.944,268.251z M203.604,266.91l-0.97,0.97l-0.97-0.97l0.97-0.97L203.604,266.91z M202.263,268.251l-0.969,0.969
			l-0.97-0.97l0.969-0.969L202.263,268.251z M201.293,266.54l-0.97-0.97l0.97-0.97l0.97,0.97L201.293,266.54z M200.924,269.59
			l-0.97,0.97l-0.97-0.97l0.97-0.97L200.924,269.59z M201.294,269.96l0.97,0.97l-0.97,0.97l-0.97-0.97L201.294,269.96z
			 M201.664,269.59l0.969-0.969l0.97,0.97l-0.969,0.969L201.664,269.59z M203.974,269.961l0.97,0.97l-0.969,0.969l-0.97-0.97
			L203.974,269.961z M204.344,269.591l0.97-0.97l0.97,0.97l-0.97,0.97L204.344,269.591z M204.344,266.91l0.97-0.97l0.97,0.97
			l-0.97,0.97L204.344,266.91z M205.684,265.57l0.97-0.97l0.97,0.97l-0.97,0.97L205.684,265.57z M205.684,262.89l0.97-0.97
			l0.97,0.97l-0.97,0.97L205.684,262.89z M206.284,264.23l-0.97,0.97l-0.97-0.97l0.97-0.97L206.284,264.23z M203.974,263.859
			l-0.97-0.97l0.97-0.97l0.97,0.97L203.974,263.859z M203.603,264.229l-0.97,0.97l-0.97-0.97l0.97-0.97L203.603,264.229z
			 M201.294,263.86l-0.97-0.97l0.97-0.97l0.97,0.97L201.294,263.86z M200.923,264.23l-0.97,0.97l-0.97-0.97l0.97-0.97
			L200.923,264.23z M198.613,263.86l-0.97-0.97l0.97-0.97l0.97,0.97L198.613,263.86z M198.243,264.23l-0.969,0.969l-0.97-0.97
			l0.969-0.969L198.243,264.23z M198.243,266.91l-0.97,0.97l-0.97-0.97l0.97-0.97L198.243,266.91z M198.613,267.28l0.97,0.97
			l-0.97,0.97l-0.97-0.97L198.613,267.28z M199.583,270.931l-0.97,0.97l-0.97-0.97l0.97-0.97L199.583,270.931z M199.583,273.612
			l-0.969,0.969l-0.97-0.97l0.969-0.969L199.583,273.612z M198.983,272.271l0.97-0.97l0.97,0.97l-0.971,0.97L198.983,272.271z
			 M201.294,272.641l0.97,0.97l-0.97,0.97l-0.97-0.97L201.294,272.641z M201.664,272.271l0.97-0.97l0.97,0.97l-0.97,0.97
			L201.664,272.271z M203.974,272.641l0.97,0.97l-0.97,0.97l-0.97-0.97L203.974,272.641z M204.344,272.27l0.969-0.969l0.97,0.97
			l-0.969,0.969L204.344,272.27z M206.654,272.642l0.97,0.97l-0.969,0.969l-0.97-0.97L206.654,272.642z M205.684,270.931l0.97-0.97
			l0.97,0.97l-0.97,0.97L205.684,270.931z M205.684,268.251l0.97-0.97l0.97,0.97l-0.97,0.97L205.684,268.251z M207.025,266.91
			l0.97-0.97l0.97,0.97l-0.97,0.97L207.025,266.91z M207.024,264.23l0.97-0.97l0.97,0.97l-0.97,0.97L207.024,264.23z
			 M207.024,261.549l0.97-0.97l0.97,0.97l-0.97,0.97L207.024,261.549z M206.654,261.179l-0.97-0.97l0.97-0.97l0.97,0.969
			L206.654,261.179z M206.284,261.549l-0.97,0.97l-0.97-0.97l0.97-0.97L206.284,261.549z M203.974,261.18l-0.97-0.97l0.97-0.97
			l0.97,0.97L203.974,261.18z M203.603,261.55l-0.97,0.97l-0.97-0.97l0.97-0.97L203.603,261.55z M201.294,261.179l-0.97-0.97
			l0.97-0.97l0.97,0.97L201.294,261.179z M200.923,261.549l-0.97,0.97l-0.97-0.97l0.97-0.97L200.923,261.549z M198.613,261.179
			l-0.97-0.97l0.97-0.97l0.97,0.97L198.613,261.179z M198.243,261.549l-0.97,0.97l-0.97-0.97l0.97-0.97L198.243,261.549z
			 M195.932,261.18l-0.97-0.97l0.97-0.97l0.97,0.97L195.932,261.18z M196.902,262.89l-0.969,0.969l-0.97-0.97l0.969-0.969
			L196.902,262.89z M196.903,265.57l-0.97,0.97l-0.97-0.97l0.97-0.97L196.903,265.57z M196.903,268.25l-0.971,0.97l-0.97-0.97
			l0.97-0.97L196.903,268.25z M197.273,268.621l0.97,0.97l-0.97,0.97l-0.97-0.97L197.273,268.621z M198.243,272.271l-0.969,0.969
			l-0.97-0.97l0.969-0.969L198.243,272.271z M198.243,274.951l-0.97,0.97l-0.97-0.97l0.97-0.97L198.243,274.951z M198.613,275.321
			l0.97,0.97l-0.97,0.97l-0.97-0.97L198.613,275.321z M198.983,274.951l0.969-0.969l0.97,0.97l-0.969,0.969L198.983,274.951z
			 M201.293,275.322l0.97,0.97l-0.969,0.969l-0.97-0.97L201.293,275.322z M201.663,274.951l0.97-0.97l0.97,0.97l-0.97,0.97
			L201.663,274.951z M203.974,275.322l0.97,0.97l-0.971,0.97l-0.97-0.97L203.974,275.322z M204.344,274.951l0.97-0.97l0.97,0.97
			l-0.97,0.97L204.344,274.951z M206.655,275.321l0.97,0.97l-0.97,0.97l-0.97-0.97L206.655,275.321z M207.025,274.951l0.969-0.969
			l0.97,0.97l-0.969,0.969L207.025,274.951z M207.024,272.271l0.97-0.97l0.97,0.97l-0.97,0.97L207.024,272.271z M207.024,269.59
			l0.97-0.97l0.971,0.97l-0.97,0.97L207.024,269.59z M208.364,268.25l0.97-0.97l0.97,0.97l-0.969,0.97L208.364,268.25z
			 M208.364,265.571l0.97-0.97l0.97,0.97l-0.97,0.97L208.364,265.571z M208.365,262.89l0.97-0.97l0.97,0.97l-0.97,0.97
			L208.365,262.89z M208.364,260.209l0.97-0.97l0.97,0.97l-0.97,0.97L208.364,260.209z M208.365,257.529l0.97-0.97l0.969,0.969
			l-0.97,0.97L208.365,257.529z M208.964,258.869l-0.97,0.97l-0.97-0.969l0.97-0.97L208.964,258.869z M206.654,258.499l-0.97-0.97
			l0.97-0.97l0.97,0.97L206.654,258.499z M206.284,258.869l-0.97,0.97l-0.97-0.97l0.97-0.97L206.284,258.869z M203.974,258.499
			l-0.97-0.97l0.97-0.97l0.97,0.97L203.974,258.499z M203.604,258.869l-0.97,0.97l-0.97-0.97l0.97-0.97L203.604,258.869z
			 M201.293,258.499l-0.97-0.97l0.97-0.97l0.97,0.97L201.293,258.499z M200.923,258.869l-0.97,0.97l-0.97-0.97l0.97-0.97
			L200.923,258.869z M198.613,258.499l-0.97-0.97l0.97-0.97l0.97,0.97L198.613,258.499z M198.243,258.869l-0.97,0.97l-0.97-0.97
			l0.97-0.97L198.243,258.869z M195.933,258.499l-0.97-0.97l0.97-0.97l0.97,0.97L195.933,258.499z M195.562,261.55l-0.969,0.969
			l-0.97-0.97l0.969-0.969L195.562,261.55z M195.563,264.229l-0.97,0.97l-0.97-0.97l0.97-0.97L195.563,264.229z M195.563,266.91
			l-0.97,0.97l-0.97-0.97l0.97-0.97L195.563,266.91z M195.562,269.591l-0.969,0.969l-0.97-0.97l0.969-0.969L195.562,269.591z
			 M195.932,269.961l0.97,0.97l-0.969,0.969l-0.97-0.97L195.932,269.961z M196.903,273.611l-0.97,0.97l-0.97-0.97l0.97-0.97
			L196.903,273.611z M195.563,274.951l-0.97,0.97l-0.744-0.744l-0.032-0.421l0.776-0.776L195.563,274.951z M195.933,275.322
			l0.97,0.97l-0.97,0.97l-0.97-0.97L195.933,275.322z M197.273,276.662l0.97,0.97l-0.97,0.97l-0.97-0.97L197.273,276.662z
			 M198.613,278.002l0.97,0.97l-0.97,0.97l-0.97-0.97L198.613,278.002z M198.983,277.631l0.97-0.97l0.97,0.97l-0.97,0.97
			L198.983,277.631z M201.294,278.002l0.97,0.97l-0.97,0.97l-0.97-0.97L201.294,278.002z M201.664,277.631l0.969-0.969l0.97,0.97
			l-0.969,0.969L201.664,277.631z M203.973,278.002l0.97,0.97l-0.969,0.969l-0.97-0.97L203.973,278.002z M204.344,277.632
			l0.971-0.97l0.97,0.97l-0.97,0.97L204.344,277.632z M206.654,278.002l0.97,0.97l-0.97,0.97l-0.97-0.97L206.654,278.002z
			 M207.024,277.631l0.97-0.97l0.97,0.97l-0.97,0.97L207.024,277.631z M208.365,276.291l0.969-0.969l0.97,0.97l-0.969,0.969
			L208.365,276.291z M209.704,274.951l0.97-0.97l0.774,0.773l-0.033,0.427l-0.741,0.741L209.704,274.951z M209.334,274.581
			l-0.97-0.97l0.97-0.97l0.97,0.97L209.334,274.581z M208.365,270.931l0.97-0.97l0.97,0.97l-0.97,0.97L208.365,270.931z
			 M209.705,269.59l0.969-0.97l0.97,0.97l-0.97,0.97L209.705,269.59z M209.704,266.91l0.97-0.97l0.97,0.97l-0.97,0.97
			L209.704,266.91z M209.705,264.23l0.97-0.97l0.97,0.969l-0.97,0.97L209.705,264.23z M209.705,261.549l0.97-0.97l0.97,0.97
			l-0.97,0.97L209.705,261.549z M209.704,258.869l0.97-0.97l0.97,0.97l-0.97,0.97L209.704,258.869z M211.045,257.529l0.97-0.97
			l0.766,0.766l-0.034,0.444l-0.731,0.731L211.045,257.529z M211.466,255.269h1.098l-0.549,0.549L211.466,255.269z M209.335,255.819
			l-0.55-0.55h1.099L209.335,255.819z M206.654,255.819l-0.55-0.55h1.099L206.654,255.819z M203.974,255.818l-0.549-0.549h1.098
			L203.974,255.818z M201.294,255.819l-0.549-0.55h1.099L201.294,255.819z M198.613,255.819l-0.55-0.55h1.099L198.613,255.819z
			 M195.932,255.819l-0.549-0.549h1.099L195.932,255.819z M193.253,255.819l-0.55-0.55h1.099L193.253,255.819z M192.882,256.189
			l-0.44,0.44l-0.072-0.952L192.882,256.189z M192.882,258.869l-0.25,0.25l-0.041-0.542L192.882,258.869z M193.252,259.24l0.97,0.97
			l-0.969,0.969l-0.503-0.503l-0.066-0.868L193.252,259.24z M192.882,261.549l-0.062,0.062l-0.01-0.135L192.882,261.549z
			 M193.253,261.919l0.97,0.97l-0.97,0.97l-0.283-0.283l-0.097-1.277L193.253,261.919z M193.252,264.6l0.97,0.97l-0.97,0.97
			l-0.063-0.063l-0.128-1.686L193.252,264.6z M193.252,267.281l0.97,0.97l-0.835,0.835l-0.137-1.803L193.252,267.281z
			 M194.222,270.93l-0.647,0.647l-0.106-1.4L194.222,270.93z M194.593,271.301l0.97,0.97l-0.97,0.97l-0.964-0.964l-0.001-0.012
			L194.593,271.301z M194.222,273.611l-0.458,0.458l-0.075-0.99L194.222,273.611z M194.222,276.292l-0.269,0.269l-0.044-0.582
			L194.222,276.292z M195.932,278.002l0.97,0.97l-0.97,0.97l-0.97-0.97L195.932,278.002z M196.304,280.311l0.969-0.969l0.968,0.969
			H196.304z M198.985,280.311l0.968-0.968l0.968,0.968H198.985z M201.665,280.311l0.969-0.969l0.969,0.969H201.665z
			 M204.345,280.311l0.968-0.968l0.968,0.968H204.345z M207.026,280.311l0.968-0.968l0.968,0.968H207.026z M208.365,278.972
			l0.97-0.97l0.97,0.97l-0.97,0.97L208.365,278.972z M211.045,276.292l0.309-0.309l-0.044,0.575L211.045,276.292z M211.045,273.611
			l0.531-0.531l-0.075,0.987L211.045,273.611z M211.637,272.278l-0.963,0.963l-0.97-0.97l0.97-0.97l0.963,0.963L211.637,272.278z
			 M211.045,270.931l0.752-0.752l-0.107,1.398L211.045,270.931z M212.015,266.54l-0.97-0.97l0.97-0.97l0.195,0.194l-0.129,1.68
			L212.015,266.54z M212.015,263.859l-0.969-0.969l0.97-0.97l0.384,0.385l-0.097,1.267L212.015,263.859z M212.385,261.55
			l0.078-0.078l-0.011,0.145L212.385,261.55z M212.015,261.18l-0.97-0.97l0.97-0.97l0.575,0.575l-0.065,0.856L212.015,261.18z
			 M212.385,258.869l0.3-0.3l-0.043,0.557L212.385,258.869z M212.385,256.188l0.522-0.522l-0.074,0.97L212.385,256.188z
			 M194.194,279.74l0.399-0.399l0.969,0.969h-1.324L194.194,279.74z M209.706,280.311l0.969-0.969l0.392,0.392l-0.044,0.577H209.706
			z"/>
	</g>
	<g>
		<g>
			<circle fill="#8AACBD" cx="225.246" cy="280.712" r="3.958"/>
			<circle fill="#8AACBD" cx="263.86" cy="280.712" r="3.958"/>
			<rect x="241.208" y="235.557" fill="#FFFFFF" width="6.619" height="45.385"/>
			<path fill="#FFFFFF" d="M243.942,280.939h-23.535v-2.008c0-1.447,0.961-2.62,2.146-2.62h21.389V280.939z"/>
			<path fill="#FFFFFF" d="M245.086,280.939h23.559v-2.008c0-1.447-0.961-2.62-2.146-2.62h-21.412V280.939z"/>
		</g>
		<g>
			<path fill="#E6EBEE" d="M284.979,182.723c-0.014-0.027-2-4.303-2-4.303h-36.388c-0.013,0-0.026,0-0.039,0h-0.145l0,0.003
				c-3.313-0.01-6.199,2.436-6.642,5.808l-7.221,54.881l13.259,1.744l0.37-2.814h28.115
				C274.287,238.042,284.993,182.75,284.979,182.723z"/>
			<g>
				<path fill="#E6EBEE" d="M205.341,233.434c-3.693,0-6.686,2.994-6.686,6.687c0,3.693,2.994,6.686,6.686,6.686h45.067v-13.373
					H205.341z"/>
			</g>
			<path fill="#C3D4DD" d="M283.74,178.474c-3.661-0.482-7.02,2.096-7.502,5.757l-6.474,49.203h-27.949
				c-3.693,0-6.687,2.994-6.687,6.687c0,3.693,2.994,6.686,6.687,6.686h33.77c3.446,0,6.281-2.607,6.645-5.957l7.266-54.875
				C289.979,182.314,287.401,178.955,283.74,178.474z"/>
		</g>
	</g>
	<g>
		<g>
			<path fill="#003E5A" d="M250.192,174.04c-6.909,21.471-22.604,21.095-36.202,22.659l0.11,3.154
				c7.822-1.083,33.051,0.341,42.728-23.544C259.111,171.119,252.126,169.403,250.192,174.04z"/>
			<path fill="#F37029" d="M215.407,198.597l-1.294,1.251c-1.766,0.161-3.636-1.451-5.049-1.274
				c-1.236,0.235-2.773,1.454-3.244,1.925c-0.53,0.471-1.295-0.059-0.588-0.824c2.001-2.413,2.171-3.491,5.113-3.844
				c1.648-0.118,2.68,0.699,3.662,0.885L215.407,198.597z"/>
		</g>
		<g>
			<path fill="#EB6479" d="M264.398,136.933l-2.95-0.814c-10.924-0.66-19.051,0.863-20.862,8.83l-0.003-0.01
				c-0.02,0.097-0.037,0.197-0.056,0.295c-0.051,0.249-0.096,0.504-0.135,0.765c-0.442,2.699-0.721,5.651-3.219,6.717l3.828-0.03
				c1.37,3.735,4.385,6.696,7.872,9.079c6.581,4.498,4.274,6.51,3.528,8.386l6.737-0.472l0.112-1.632l0.003,0.005
				c0.382-6.317,2.193-8.52,5.448-12.255C268.668,151.246,271.236,139.935,264.398,136.933z"/>
			<polygon fill="#EB6479" points="233.426,233.39 218.564,233.39 219.625,285.004 212.915,285.004 216.728,279.282 
				211.387,227.517 233.235,225.369 			"/>
			<g>
				<polygon fill="#243129" points="212.915,285.004 219.625,285.004 219.492,278.818 216.702,278.818 216.727,279.282 				"/>
			</g>
			<polygon fill="#EB6479" points="228.551,233.39 208.585,233.39 209.646,285.004 202.936,285.004 206.748,279.282 
				201.408,227.517 228.36,224.687 			"/>
			<g>
				<polygon fill="#243129" points="202.936,285.004 209.646,285.004 209.513,278.818 206.723,278.818 206.748,279.282 				"/>
			</g>
			<path fill="#243129" d="M249.556,151.04c-0.617,0-1.25-0.204-1.797-0.598c-0.92-0.664-1.397-1.735-1.277-2.866l0.572,0.061
				c-0.099,0.937,0.28,1.789,1.042,2.338c0.713,0.515,1.598,0.634,2.308,0.31c0.804-0.365,1.311-1.266,1.429-2.536l0.573,0.053
				c-0.138,1.484-0.764,2.552-1.764,3.006C250.303,150.964,249.933,151.04,249.556,151.04z"/>
			<path fill="#243129" d="M250.9,160.231c-0.693,0-1.401-0.27-1.963-0.778l0.386-0.427c0.663,0.599,1.57,0.791,2.312,0.488
				c0.565-0.231,0.91-0.702,0.945-1.292l0.575,0.035c-0.049,0.808-0.535,1.477-1.302,1.79
				C251.549,160.171,251.226,160.231,250.9,160.231z"/>
			<path fill="#003E5A" d="M252.062,169.097c-9.284,18.252-6.887,53.4-25.484,55.668c-0.943,0.115-21.151,2.33-21.151,2.33
				l15.762,6.338c3.398-0.043,13.341-0.028,16.015-0.059c24.548-0.29,20.399-3.082,22.289-63.488L252.062,169.097z"/>
			<polygon fill="#FFFFFF" points="260.314,170.314 259.695,167.612 253.951,169.138 252.818,167.191 251.306,168.933 
				251.996,171.136 247.182,194.297 254.669,172.143 			"/>
			<g>
				<path fill="#003E5A" d="M268.674,161.16c10.219-10.141,8.012-35.709-14.226-31.652c-12.266,2.233-12.312,10.761-16.209,9.195
					c2.071,7.169,13.911,7.335,18.024,4.098c1.08,0.93,1.841,2.221,2.392,3.741c0.325-0.09,0.666-0.141,1.021-0.12
					c1.734,0.105,3.056,1.596,2.951,3.33c-0.092,1.529-1.264,2.734-2.728,2.927c-1.121,10.689,0.544,20.225,11.522,17.112
					C268.156,169.785,261.888,167.693,268.674,161.16z"/>
			</g>
		</g>
		<g>
			<path fill="#F37029" d="M241.468,198.053c-2.86-0.934-3.984-1.135-5.494-0.711c-1.51,0.425-4.864,3.258-4.203,4.107
				c0.472,0.566,1.452-0.24,2.773-0.759c1.038-0.566,1.486-0.069,2.469,0.19c1.793,0.472,0.841,0.801,3.602,0.277
				c0.259-0.049,2.106-1.268,2.106-1.268L241.468,198.053z"/>
			<path fill="#003E5A" d="M258.475,177.883c12.779,10.328,24.378,29.723-16.962,20.215l-0.833,3.064
				c48.303,13.588,37.71-14.321,18.807-30.555C257.56,170.944,255.946,175.666,258.475,177.883z"/>
			<g>
				<path fill="#004B6B" d="M258.475,177.883c12.779,10.328,24.378,29.723-16.963,20.215l-0.169,0.621
					c38.103,8.808,36.942-5.276,15.856-24.388C257.098,175.619,257.428,176.965,258.475,177.883z"/>
			</g>
		</g>
	</g>
	<g>
		<g>
			<path fill="#FFFFFF" d="M345.79,96.442c0.059-10.614-8.497-19.266-19.111-19.326c-1.432-0.008-2.826,0.146-4.17,0.435
				c-2.14-8.224-9.59-14.317-18.491-14.367c-8.767-0.049-16.191,5.783-18.544,13.796c-7.281,0.694-13.381,5.455-15.999,11.994
				c-0.49-0.058-0.985-0.096-1.491-0.098c-7.277-0.04-13.208,5.826-13.249,13.102c-0.04,7.277,5.825,13.208,13.102,13.249
				c0.111,0.001,58.969,0.326,58.969,0.326l0-0.007C337.263,115.422,345.731,106.941,345.79,96.442z"/>
		</g>
		<g>
			<path fill="#FFFFFF" d="M182.517,62.198c0-8.851-7.175-16.026-16.025-16.026c-1.194,0-2.355,0.135-3.475,0.382
				c-1.822-6.848-8.063-11.894-15.485-11.894c-7.311,0-13.474,4.898-15.398,11.589c-6.068,0.612-11.132,4.611-13.285,10.075
				c-0.409-0.046-0.822-0.075-1.244-0.075c-6.068,0-10.986,4.919-10.986,10.987c0,6.068,4.919,10.987,10.986,10.987
				c0.093,0,49.172-0.002,49.172-0.002v-0.006C175.495,78.065,182.517,70.954,182.517,62.198z"/>
		</g>
		<g>
			<path fill="#FFFFFF" d="M139.25,81.488h-8.148c-0.412,0-0.747,0.335-0.747,0.747v4.795c0,0.412,0.335,0.747,0.747,0.747h0.899
				l-0.849,2.409l2.389-2.409h5.708c0.412,0,0.747-0.335,0.747-0.747v-4.795C139.997,81.823,139.662,81.488,139.25,81.488z
				 M139.444,87.03c0,0.107-0.087,0.194-0.194,0.194h-8.148c-0.107,0-0.194-0.087-0.194-0.194v-4.795
				c0-0.107,0.087-0.194,0.194-0.194h8.148c0.107,0,0.194,0.087,0.194,0.194V87.03z M138.526,83.535h-6.763
				c-0.153,0-0.276-0.124-0.276-0.276s0.124-0.276,0.276-0.276h6.763c0.153,0,0.277,0.124,0.277,0.276
				S138.679,83.535,138.526,83.535z M138.526,84.888h-6.763c-0.153,0-0.276-0.124-0.276-0.276c0-0.153,0.124-0.277,0.276-0.277
				h6.763c0.153,0,0.277,0.124,0.277,0.277C138.802,84.764,138.679,84.888,138.526,84.888z M136.091,86.24h-4.328
				c-0.153,0-0.276-0.124-0.276-0.276s0.124-0.276,0.276-0.276h4.328c0.153,0,0.277,0.124,0.277,0.276S136.244,86.24,136.091,86.24z
				 M144.974,84.841v4.464c0,0.242-0.196,0.438-0.438,0.438h-0.964l0.711,2.016l-1.999-2.016h-5.333
				c-0.242,0-0.438-0.196-0.438-0.438v-1.051h3.17c0.434,0,0.787-0.353,0.787-0.786v-3.065h4.067
				C144.778,84.403,144.974,84.599,144.974,84.841z"/>
		</g>
		<g>
			
				<ellipse transform="matrix(-0.9999 0.015 -0.015 -0.9999 637.6683 353.5205)" fill="#FFFFFF" cx="317.508" cy="179.152" rx="1.793" ry="1.995"/>
			<g>
				<path fill="#FFFFFF" d="M313.157,174.193l0.675,0.764c0.925-1.02,2.184-1.66,3.58-1.681c1.424-0.021,2.725,0.603,3.686,1.629
					l0.652-0.785c-1.136-1.21-2.673-1.947-4.354-1.922C315.741,172.224,314.251,172.984,313.157,174.193z"/>
				<path fill="#FFFFFF" d="M314.558,175.817l0.674,0.755c0.568-0.608,1.332-0.995,2.182-1.007c0.894-0.013,1.71,0.381,2.305,1.028
					l0.653-0.777c-0.77-0.828-1.822-1.333-2.974-1.316C316.291,174.516,315.296,175.021,314.558,175.817z"/>
				<path fill="#FFFFFF" d="M311.671,172.585l0.663,0.742c1.306-1.444,3.094-2.352,5.08-2.381c1.993-0.03,3.815,0.831,5.165,2.245
					l0.64-0.762c-1.522-1.593-3.575-2.562-5.821-2.529C315.159,169.933,313.143,170.957,311.671,172.585z"/>
			</g>
		</g>
		<g>
			<path fill="#FFFFFF" d="M106.805,173.012c0-0.002,0-0.003,0-0.005c-0.007-1.849-1.516-3.348-3.365-3.341
				c-1.849,0.007-3.348,1.516-3.341,3.365c0,0.002,0,0.004,0,0.005c0,0.001,0,0.002,0,0.003c0,0.004,0.001,0.008,0.001,0.012
				c0.017,1.747,1.375,3.175,3.09,3.309c0.096,0.025,0.196,0.039,0.296,0.038c0.106,0,0.21-0.016,0.31-0.045
				c1.686-0.173,3.004-1.599,3.008-3.326c0-0.004,0.001-0.008,0-0.012C106.805,173.014,106.805,173.013,106.805,173.012z
				 M103.726,175.996c-0.024,0.002-0.048,0.004-0.071,0.006l-0.004-1.072c0.374-0.013,0.73-0.059,1.059-0.134
				C104.477,175.418,104.125,175.865,103.726,175.996z M102.255,174.815c0.322,0.067,0.669,0.108,1.033,0.116l0.004,1.073
				c-0.012-0.001-0.024-0.002-0.036-0.003C102.853,175.879,102.495,175.436,102.255,174.815z M105.363,172.831
				c-0.014-0.367-0.059-0.716-0.131-1.039c0.634,0.245,1.08,0.617,1.187,1.036L105.363,172.831z M104.999,172.832l-1.356,0.005
				l-0.005-1.35c0.421,0.013,0.821,0.073,1.181,0.171C104.919,172.014,104.982,172.413,104.999,172.832z M103.637,171.123
				l-0.004-1.049c0.42,0.094,0.797,0.536,1.048,1.172C104.357,171.176,104.006,171.133,103.637,171.123z M103.271,170.082
				l0.004,1.042c-0.358,0.011-0.699,0.053-1.016,0.121C102.501,170.624,102.863,170.189,103.271,170.082z M103.276,171.487
				l0.005,1.351l-1.333,0.005c0.014-0.424,0.076-0.827,0.175-1.189C102.476,171.56,102.866,171.501,103.276,171.487z
				 M101.585,172.844l-1.098,0.004c0.106-0.43,0.569-0.812,1.226-1.062C101.64,172.115,101.596,172.47,101.585,172.844z
				 M101.584,173.206c0.011,0.378,0.055,0.738,0.128,1.071c-0.663-0.249-1.129-0.633-1.23-1.067L101.584,173.206z M101.947,173.205
				l1.335-0.005l0.005,1.368c-0.414-0.011-0.808-0.069-1.165-0.162C102.023,174.041,101.961,173.634,101.947,173.205z
				 M103.65,174.566l-0.005-1.367l1.358-0.005c-0.01,0.424-0.068,0.827-0.163,1.19C104.478,174.486,104.074,174.55,103.65,174.566z
				 M105.366,173.193l1.058-0.004c-0.095,0.424-0.538,0.804-1.175,1.058C105.317,173.919,105.358,173.565,105.366,173.193z
				 M106.246,171.953c-0.288-0.246-0.676-0.449-1.132-0.593c-0.151-0.465-0.363-0.857-0.617-1.143
				C105.299,170.517,105.94,171.152,106.246,171.953z M102.453,170.201c-0.259,0.287-0.473,0.683-0.625,1.155
				c-0.477,0.148-0.88,0.36-1.177,0.617C100.96,171.149,101.622,170.496,102.453,170.201z M100.67,174.111
				c0.295,0.248,0.691,0.452,1.157,0.595c0.142,0.446,0.339,0.827,0.577,1.113C101.612,175.521,100.979,174.897,100.67,174.111z
				 M104.584,175.786c0.23-0.288,0.419-0.666,0.555-1.108c0.444-0.145,0.822-0.346,1.104-0.587
				C105.947,174.858,105.344,175.474,104.584,175.786z"/>
			<path fill="#FFFFFF" d="M108.204,173.435l-0.473-0.92l-0.467,0.923l0.343-0.001c-0.213,2.087-1.976,3.724-4.119,3.732
				c-0.953,0.003-1.885-0.324-2.625-0.922l-0.153,0.189c0.783,0.633,1.77,0.98,2.779,0.976c2.278-0.008,4.15-1.755,4.363-3.976
				L108.204,173.435z"/>
			<path fill="#FFFFFF" d="M103.458,168.613c-2.26,0.008-4.12,1.728-4.357,3.925l-0.358,0.001l0.474,0.92l0.467-0.923l-0.337,0.001
				c0.236-2.062,1.986-3.673,4.112-3.68c0.961-0.003,1.899,0.329,2.642,0.936l0.154-0.189
				C105.469,168.961,104.475,168.609,103.458,168.613z"/>
		</g>
		<g>
			<path fill="#FFFFFF" d="M84.154,113.719v-0.02h2.1c1.138-7.037,7.213-12.419,14.569-12.423v-0.017h2.582v0.249
				c4.893,0.861,8.955,4.122,10.928,8.53c1.302-0.553,2.733-0.86,4.237-0.86c5.99,0,10.845,4.855,10.845,10.845
				c0,5.989-4.855,10.845-10.845,10.845c0,0-0.015-0.001-0.022-0.001v0.007H84.09v-0.01c-4.691-0.052-8.478-3.867-8.478-8.57
				C75.612,117.567,79.433,113.736,84.154,113.719z"/>
		</g>
		<g>
			<rect x="308.112" y="109.78" fill="#FFFFFF" width="0.724" height="1.448"/>
			<path fill="#FFFFFF" d="M303.926,177.104h-1.496v-0.724h1.496c0.435,0,0.863-0.066,1.272-0.197l0.22,0.69
				C304.937,177.027,304.435,177.104,303.926,177.104z M300.98,177.104h-2.9v-0.724h2.9V177.104z M296.629,177.104h-2.9v-0.724h2.9
				V177.104z M292.278,177.104h-2.9v-0.724h2.9V177.104z M287.928,177.104h-2.9v-0.724h2.9V177.104z M283.578,177.104h-2.9v-0.724
				h2.9V177.104z M279.227,177.104h-2.9v-0.724h2.9V177.104z M274.876,177.104h-2.9v-0.724h2.9V177.104z M270.526,177.104h-2.9
				v-0.724h2.9V177.104z M266.175,177.104h-2.9v-0.724h2.9V177.104z M261.825,177.104h-2.9v-0.724h2.9V177.104z M257.474,177.104
				h-2.9v-0.724h2.9V177.104z M253.123,177.104h-2.9v-0.724h2.9V177.104z M248.773,177.104h-2.9v-0.724h2.9V177.104z
				 M244.423,177.104h-2.9v-0.724h2.9V177.104z M240.072,177.104h-2.9v-0.724h2.9V177.104z M235.721,177.104h-2.9v-0.724h2.9
				V177.104z M231.371,177.104h-2.9v-0.724h2.9V177.104z M227.02,177.104h-2.9v-0.724h2.9V177.104z M222.67,177.104h-2.9v-0.724h2.9
				V177.104z M306.808,176.169l-0.425-0.586c0.723-0.525,1.268-1.28,1.536-2.128l0.69,0.218
				C308.296,174.667,307.656,175.554,306.808,176.169z M308.836,172.136h-0.724v-2.9h0.724V172.136z M308.836,167.786h-0.724v-2.9
				h0.724V167.786z M308.836,163.435h-0.724v-2.9h0.724V163.435z M308.836,159.084h-0.724v-2.9h0.724V159.084z M308.836,154.734
				h-0.724v-2.9h0.724V154.734z M308.836,150.383h-0.724v-2.9h0.724V150.383z M308.836,146.033h-0.724v-2.9h0.724V146.033z
				 M308.836,141.682h-0.724v-2.9h0.724V141.682z M308.836,137.332h-0.724v-2.9h0.724V137.332z M308.836,132.981h-0.724v-2.9h0.724
				V132.981z M308.836,128.63h-0.724v-2.9h0.724V128.63z M308.836,124.28h-0.724v-2.9h0.724V124.28z M308.836,119.929h-0.724v-2.9
				h0.724V119.929z M308.836,115.579h-0.724v-2.9h0.724V115.579z"/>
			<rect x="216.866" y="176.381" fill="#FFFFFF" width="1.448" height="0.724"/>
		</g>
		<g>
			<rect x="108.238" y="116.132" fill="#FFFFFF" width="0.724" height="1.448"/>
			<path fill="#FFFFFF" d="M197.3,170.852h-2.91v-0.724h2.91V170.852z M192.935,170.852h-2.909v-0.724h2.909V170.852z
				 M188.571,170.852h-2.91v-0.724h2.91V170.852z M184.207,170.852h-2.91v-0.724h2.91V170.852z M179.842,170.852h-2.909v-0.724
				h2.909V170.852z M175.478,170.852h-2.91v-0.724h2.91V170.852z M171.113,170.852h-2.909v-0.724h2.909V170.852z M166.749,170.852
				h-2.91v-0.724h2.91V170.852z M162.385,170.852h-2.91v-0.724h2.91V170.852z M158.02,170.852h-2.909v-0.724h2.909V170.852z
				 M153.656,170.852h-2.91v-0.724h2.91V170.852z M149.291,170.852h-2.909v-0.724h2.909V170.852z M144.927,170.852h-2.91v-0.724
				h2.91V170.852z M140.563,170.852h-2.91v-0.724h2.91V170.852z M136.198,170.852h-2.909v-0.724h2.909V170.852z M131.834,170.852
				h-2.91v-0.724h2.91V170.852z M127.469,170.852h-2.909v-0.724h2.909V170.852z M123.105,170.852h-2.91v-0.724h2.91V170.852z
				 M118.74,170.852h-2.91v-0.724h2.91V170.852z M114.376,170.852h-1.228c-0.612,0-1.209-0.112-1.774-0.331l0.262-0.675
				c0.481,0.187,0.99,0.281,1.513,0.282h1.228V170.852z M110.025,169.731c-0.811-0.669-1.395-1.597-1.645-2.612l0.703-0.173
				c0.213,0.866,0.711,1.656,1.403,2.227L110.025,169.731z M108.962,165.588h-0.724v-2.909h0.724V165.588z M108.962,161.224h-0.724
				v-2.91h0.724V161.224z M108.962,156.86h-0.724v-2.91h0.724V156.86z M108.962,152.495h-0.724v-2.909h0.724V152.495z
				 M108.962,148.131h-0.724v-2.91h0.724V148.131z M108.962,143.767h-0.724v-2.91h0.724V143.767z M108.962,139.402h-0.724v-2.91
				h0.724V139.402z M108.962,135.038h-0.724v-2.91h0.724V135.038z M108.962,130.673h-0.724v-2.909h0.724V130.673z M108.962,126.309
				h-0.724v-2.91h0.724V126.309z M108.962,121.945h-0.724v-2.91h0.724V121.945z"/>
			<rect x="198.76" y="170.129" fill="#FFFFFF" width="1.448" height="0.724"/>
		</g>
		<g>
			<rect x="147.817" y="75.655" fill="#FFFFFF" width="0.724" height="1.448"/>
			<path fill="#FFFFFF" d="M177.105,187.711h-2.859v-0.724h2.859V187.711z M172.817,187.711h-2.859v-0.724h2.859V187.711z
				 M168.529,187.711h-2.859v-0.724h2.859V187.711z M164.241,187.711h-2.859v-0.724h2.859V187.711z M159.953,187.711h-2.859v-0.724
				h2.859V187.711z M155.664,187.711h-2.859v-0.724h2.859V187.711z M151.29,187.498c-0.982-0.3-1.864-0.919-2.485-1.742l0.578-0.436
				c0.53,0.702,1.282,1.23,2.119,1.486L151.29,187.498z M148.083,184.399c-0.176-0.513-0.266-1.05-0.266-1.597v-1.352h0.724v1.352
				c0,0.467,0.076,0.925,0.226,1.362L148.083,184.399z M148.542,180.02h-0.724v-2.859h0.724V180.02z M148.542,175.732h-0.724v-2.859
				h0.724V175.732z M148.542,171.443h-0.724v-2.859h0.724V171.443z M148.542,167.155h-0.724v-2.859h0.724V167.155z M148.542,162.867
				h-0.724v-2.859h0.724V162.867z M148.542,158.579h-0.724v-2.859h0.724V158.579z M148.542,154.291h-0.724v-2.859h0.724V154.291z
				 M148.542,150.002h-0.724v-2.859h0.724V150.002z M148.542,145.714h-0.724v-2.859h0.724V145.714z M148.542,141.426h-0.724v-2.859
				h0.724V141.426z M148.542,137.138h-0.724v-2.859h0.724V137.138z M148.542,132.849h-0.724v-2.859h0.724V132.849z M148.542,128.561
				h-0.724v-2.859h0.724V128.561z M148.542,124.273h-0.724v-2.859h0.724V124.273z M148.542,119.985h-0.724v-2.859h0.724V119.985z
				 M148.542,115.696h-0.724v-2.859h0.724V115.696z M148.542,111.408h-0.724v-2.859h0.724V111.408z M148.542,107.12h-0.724v-2.859
				h0.724V107.12z M148.542,102.832h-0.724v-2.859h0.724V102.832z M148.542,98.544h-0.724v-2.859h0.724V98.544z M148.542,94.255
				h-0.724v-2.859h0.724V94.255z M148.542,89.967h-0.724v-2.859h0.724V89.967z M148.542,85.679h-0.724V82.82h0.724V85.679z
				 M148.542,81.391h-0.724v-2.859h0.724V81.391z"/>
			<rect x="178.539" y="186.987" fill="#FFFFFF" width="1.448" height="0.724"/>
		</g>
	</g>
	<g>
		<g>
			<path fill="#FFFFFF" d="M157.679,196.284c-0.657,0-1.19-0.532-1.19-1.19v-42.843c0-0.657,0.532-1.19,1.19-1.19
				c0.657,0,1.19,0.532,1.19,1.19v42.843C158.869,195.752,158.337,196.284,157.679,196.284z"/>
			<g>
				<path fill="#FFFFFF" d="M157.734,152.821c-0.328,0-0.655-0.136-0.891-0.401c-0.436-0.492-0.39-1.244,0.102-1.68l33.64-29.796
					c0.492-0.434,1.244-0.39,1.679,0.102s0.39,1.244-0.102,1.679l-33.64,29.796C158.296,152.722,158.015,152.821,157.734,152.821z"
					/>
				<g>
					<path fill="#D8E2E7" d="M160.892,196.043c-0.006-1.753-1.429-3.173-3.184-3.173c-1.755,0-3.177,1.42-3.184,3.173h-0.001v5.204
						h6.375L160.892,196.043z"/>
					<circle fill="#FFFFFF" cx="157.716" cy="196.057" r="1.626"/>
					<path fill="#FFFFFF" d="M170.933,205.048v-1.663c0-1.012-0.289-2.459-3.037-2.459h-20.393c-2.748,0-3.037,1.446-3.037,2.459
						v1.663H170.933z"/>
				</g>
				<g>
					<g>
						<circle fill="#D8E2E7" cx="157.708" cy="151.643" r="3.185"/>
					</g>
					<circle fill="#FFFFFF" cx="157.716" cy="151.645" r="1.626"/>
				</g>
				<path fill="#FFFFFF" d="M230.828,123.505v-0.731c0-2.021-2.193-4.386-4.343-4.386h-36.405c-2.15,0-4.343,2.365-4.343,4.386
					v0.731H230.828z"/>
				<g>
					<path fill="#D8E2E7" d="M195.147,123.509v-0.731c0-2.021,2.193-4.386,4.343-4.386h-0.944c-2.15,0-4.343,2.365-4.343,4.386
						v0.731H195.147z"/>
				</g>
			</g>
		</g>
		<g>
			<path fill="#FFFFFF" d="M311.907,284.747v-71.409c0-4.577-3.71-8.287-8.287-8.287H145.433c-4.577,0-8.287,3.71-8.287,8.287
				v71.419h52.458v-71.375c0-2.266,1.837-4.102,4.102-4.102h61.528c2.266,0,4.102,1.837,4.102,4.102v71.366H311.907z"/>
			<path fill="#D8E2E7" d="M261.093,284.747v-71.409c0-4.577-3.71-8.287-8.287-8.287H142.948c-4.577,0-8.287,3.71-8.287,8.287
				v71.419h4.128v-71.375c0-2.266,1.837-4.102,4.102-4.102H252.75c2.266,0,4.102,1.837,4.102,4.102v71.366H261.093z"/>
		</g>
		<g>
			<path fill="#D8E2E7" d="M261.334,205.066c0.711,0,1.172-0.682,1.172-1.585v-8.288h-8.567v8.288c0,0.903,0.461,1.585,1.172,1.585
				H261.334z"/>
			<path fill="#FFFFFF" d="M257.52,205.066c0.711,0,1.172-0.682,1.172-1.585v-8.288h-3.45v8.288c0,0.903,0.461,1.585,1.172,1.585
				H257.52z"/>
			<path fill="#D8E2E7" d="M263.355,202.689h-1.304v-1.281h1.304c1.134,0,2.056-0.923,2.056-2.057c0-1.109-0.902-2.031-2.01-2.056
				h-1.321v-1.281h1.335c1.813,0.04,3.276,1.537,3.276,3.336C266.692,201.192,265.195,202.689,263.355,202.689z"/>
		</g>
		<g>
			<path fill="#D8E2E7" d="M227.097,200.075c0,0.9-0.73,1.63-1.63,1.63h-49.371c-0.901,0-1.631-0.73-1.631-1.63V165.64
				c0-0.9,0.73-1.63,1.631-1.63h49.371c0.901,0,1.63,0.73,1.63,1.63V200.075z"/>
			<path fill="#FFFFFF" d="M224.126,198.757c0,0.83-0.684,1.503-1.527,1.503h-46.226c-0.843,0-1.527-0.673-1.527-1.503v-31.747
				c0-0.83,0.683-1.503,1.527-1.503h46.226c0.843,0,1.527,0.673,1.527,1.503V198.757z"/>
			<path fill="#FFFFFF" d="M249.533,201.681v1.726c0,0.9-0.73,1.63-1.63,1.63h-70.261c-0.901,0-1.631-0.73-1.631-1.63v-1.726
				H249.533z"/>
			<path fill="#D8E2E7" d="M249.533,201.681v1.726c0,0.9-0.73,1.63-1.63,1.63h-19.056c-0.9,0-1.63-0.73-1.63-1.63v-1.726H249.533z"
				/>
			<circle fill="#D8E2E7" cx="199.606" cy="182.832" r="4.807"/>
		</g>
	</g>
</g>
<rect x="0.24" y="285.143" fill="#B4A680" width="430" height="368.857"/>
</svg>
