<?xml version="1.0" encoding="utf-8"?>
<!-- Generator: Adobe Illustrator 21.1.0, SVG Export Plug-In . SVG Version: 6.00 Build 0)  -->
<!DOCTYPE svg PUBLIC "-//W3C//DTD SVG 1.1//EN" "http://www.w3.org/Graphics/SVG/1.1/DTD/svg11.dtd">
<svg version="1.1" id="Layer_1" xmlns="http://www.w3.org/2000/svg" xmlns:xlink="http://www.w3.org/1999/xlink" x="0px" y="0px"
	 viewBox="0 0 286 286" style="enable-background:new 0 0 286 286;" xml:space="preserve">
<style type="text/css">
	.st0{clip-path:url(#SVGID_2_);fill:#4298B5;}
	.st1{clip-path:url(#SVGID_2_);}
	.st2{fill:#DB5C1E;}
	.st3{fill:#002B44;}
	.st4{fill:#003F5C;}
	.st5{fill:#EB6479;}
	.st6{fill:#223129;}
	.st7{fill:#FFFFFF;}
	.st8{fill:#D55A6E;}
	.st9{fill:#D8E2E7;}
	.st10{fill:#939598;}
	.st11{fill:#727D84;}
	.st12{fill:#4298B5;}
	.st13{fill:#E4D5B4;}
	.st14{fill:#CEBFA3;}
	.st15{fill:#EDE0C6;}
	.st16{fill:#3D302D;}
	.st17{fill:#D6C6A6;}
	.st18{fill:#C6B597;}
	.st19{fill:#826754;}
	.st20{fill:#91CEC4;}
	.st21{fill:#D3A98C;}
	.st22{fill:#AD886F;}
	.st23{fill:#896D59;}
	.st24{fill:#EA7442;}
	.st25{fill:#D15F36;}
	.st26{fill:#003E5A;}
	.st27{fill:#243129;}
	.st28{fill:#4077A2;}
	.st29{fill:#0F3644;}
	.st30{fill:#6C707A;}
	.st31{fill:url(#SVGID_3_);}
	.st32{fill:#8AACBD;}
	.st33{fill:#E6EBEE;}
	.st34{fill:#C3D4DD;}
	.st35{fill:#F37029;}
	.st36{fill:#004B6B;}
	.st37{fill:#282829;}
	.st38{fill:#BACAD3;}
	.st39{fill:#9EB3BE;}
	.st40{fill:#27688F;}
	.st41{fill:#005376;}
	.st42{fill:#2B75A2;}
	.st43{fill:#AFC6D2;}
	.st44{fill:url(#SVGID_4_);}
	.st45{fill:#E9E8D8;}
	.st46{fill:#818277;}
	.st47{fill:#63665D;}
	.st48{fill:#B4B39A;}
	.st49{fill:url(#SVGID_5_);}
	.st50{fill:url(#SVGID_6_);}
	.st51{fill:url(#SVGID_7_);}
	.st52{fill:url(#SVGID_8_);}
	.st53{fill:url(#SVGID_9_);}
	.st54{fill:url(#SVGID_10_);}
	.st55{fill:#FFC20E;}
	.st56{fill:#916600;}
	.st57{fill:#A7BDC9;}
	.st58{fill:#8E2833;}
	.st59{fill:#721B25;}
	.st60{fill:#00547A;}
	.st61{fill:#F1F2F2;}
	.st62{fill:#6F6598;}
	.st63{fill:#4B436A;}
	.st64{fill:#F27129;}
	.st65{fill:#A57406;}
	.st66{fill:url(#SVGID_11_);}
	.st67{fill:url(#SVGID_12_);}
	.st68{fill:url(#SVGID_13_);}
	.st69{fill:url(#SVGID_14_);}
	.st70{fill:url(#SVGID_15_);}
	.st71{fill:url(#SVGID_16_);}
	.st72{fill:url(#SVGID_17_);}
	.st73{fill:url(#SVGID_18_);}
	.st74{fill:url(#SVGID_19_);}
	.st75{fill:url(#SVGID_20_);}
	.st76{fill:url(#SVGID_21_);}
	.st77{fill:url(#SVGID_22_);}
	.st78{fill:url(#SVGID_23_);}
	.st79{fill:url(#SVGID_24_);}
	.st80{fill:url(#SVGID_25_);}
	.st81{fill:url(#SVGID_26_);}
	.st82{fill:url(#SVGID_27_);}
	.st83{fill:url(#SVGID_28_);}
	.st84{fill:url(#SVGID_29_);}
	.st85{fill:url(#SVGID_30_);}
	.st86{fill:url(#SVGID_31_);}
	.st87{fill:url(#SVGID_32_);}
	.st88{fill:url(#SVGID_33_);}
	.st89{fill:url(#SVGID_34_);}
	.st90{fill:url(#SVGID_35_);}
	.st91{fill:url(#SVGID_36_);}
	.st92{fill:url(#SVGID_37_);}
	.st93{fill:url(#SVGID_38_);}
	.st94{fill:url(#SVGID_39_);}
	.st95{fill:url(#SVGID_40_);}
	.st96{fill:url(#SVGID_41_);}
	.st97{fill:url(#SVGID_42_);}
	.st98{fill:url(#SVGID_43_);}
	.st99{fill:url(#SVGID_44_);}
	.st100{fill:url(#SVGID_45_);}
	.st101{fill:url(#SVGID_46_);}
	.st102{fill:#F9F1D7;}
	.st103{fill:#6E7980;stroke:#58595B;stroke-width:0.4225;stroke-linecap:round;stroke-linejoin:round;}
	.st104{fill:#DF9CB0;}
	.st105{fill:#C37A8C;}
	.st106{fill:#C29F60;}
	.st107{fill:#FFFFFF;stroke:#D0ECF4;stroke-width:0.4225;}
	.st108{fill:url(#SVGID_47_);}
	.st109{fill:url(#SVGID_48_);}
	.st110{fill:url(#SVGID_49_);stroke:#FFFFFF;stroke-width:2.1123;}
	.st111{fill:#9F2214;}
	.st112{fill:url(#SVGID_50_);stroke:#FFFFFF;stroke-width:2.1123;}
	.st113{fill:#4A7195;}
	.st114{fill:#C13D2E;}
	.st115{fill:#7989A3;stroke:#FFFFFF;stroke-width:2.1123;}
	.st116{fill:#FFCF01;}
	.st117{fill:url(#SVGID_51_);stroke:#FFFFFF;stroke-width:2.1123;}
	.st118{fill:url(#SVGID_52_);stroke:#FFFFFF;stroke-width:2.1123;}
	.st119{fill:url(#SVGID_53_);stroke:#FFFFFF;stroke-width:2.1123;}
	.st120{fill:#876041;}
	.st121{fill:#DAC895;stroke:#F7E8BA;stroke-width:0.4225;}
	.st122{fill:#4B545B;}
	.st123{fill:#3E6D93;}
	.st124{fill:#476F93;}
	.st125{fill:#CAB47E;}
	.st126{fill:#F7E8BA;}
	.st127{fill:#C2A171;}
	.st128{fill:#D0ECF4;}
	.st129{fill:#EFE4AC;}
	.st130{fill:#5980A2;}
	.st131{fill:#17738F;}
	.st132{fill:#B1D45E;}
	.st133{fill:#8CC540;stroke:#221F1F;stroke-width:0.2168;stroke-linejoin:round;stroke-miterlimit:10;}
	.st134{fill:#58595B;}
	.st135{fill:#797A7D;}
	.st136{fill:#BF86A8;}
	.st137{fill:#302B2C;}
	.st138{fill:#48484A;}
	.st139{fill:#72A087;}
	.st140{fill:#94B0BE;}
	.st141{fill:#09723B;}
	.st142{fill:#00A14B;}
	.st143{fill:#004766;}
	.st144{fill:#00354F;}
	.st145{fill:#005B80;}
	.st146{fill:#002F3E;}
	.st147{fill:#3F4450;}
	.st148{fill:#2A6A7F;}
	.st149{fill:url(#SVGID_54_);}
	.st150{fill:#2C3038;}
	.st151{fill:#CACFD1;}
	.st152{fill:#343943;}
	.st153{fill:#27667A;}
	.st154{fill:none;stroke:#243129;stroke-width:0.3823;stroke-miterlimit:10;}
	.st155{fill:#333333;}
	.st156{fill:#E5E8DD;}
	.st157{fill:#767877;}
	.st158{fill:#545554;}
	.st159{fill:#F8E1C7;}
	.st160{fill:#5A5048;}
	.st161{fill:#604373;}
	.st162{fill:none;}
	.st163{fill:#9DB9C8;}
	.st164{fill:#235F83;}
	.st165{fill:#CF473A;}
	.st166{fill:#B4A680;}
	.st167{fill:url(#SVGID_55_);}
	.st168{fill:url(#SVGID_56_);}
	.st169{fill:url(#SVGID_57_);}
	.st170{fill:url(#SVGID_58_);}
	.st171{fill:url(#SVGID_59_);}
	.st172{fill:url(#SVGID_60_);}
	.st173{fill:url(#SVGID_61_);}
	.st174{fill:url(#SVGID_62_);}
	.st175{fill:url(#SVGID_63_);}
	.st176{fill:url(#SVGID_64_);}
	.st177{fill:url(#SVGID_65_);}
	.st178{fill:url(#SVGID_66_);}
	.st179{fill:url(#SVGID_67_);}
	.st180{fill:url(#SVGID_68_);}
	.st181{fill:url(#SVGID_69_);}
	.st182{fill:url(#SVGID_70_);}
	.st183{fill:url(#SVGID_71_);}
	.st184{fill:url(#SVGID_72_);}
	.st185{fill:url(#SVGID_73_);}
	.st186{fill:url(#SVGID_74_);}
	.st187{fill:url(#SVGID_75_);}
	.st188{fill:url(#SVGID_76_);}
	.st189{fill:url(#SVGID_77_);}
	.st190{fill:url(#SVGID_78_);}
	.st191{fill:url(#SVGID_79_);}
	.st192{fill:url(#SVGID_80_);}
	.st193{fill:url(#SVGID_81_);}
	.st194{fill:url(#SVGID_82_);}
	.st195{fill:url(#SVGID_83_);}
	.st196{fill:url(#SVGID_84_);}
	.st197{fill:url(#SVGID_85_);}
	.st198{fill:url(#SVGID_86_);}
	.st199{fill:url(#SVGID_87_);}
	.st200{fill:url(#SVGID_88_);}
	.st201{fill:url(#SVGID_89_);}
	.st202{fill:url(#SVGID_90_);}
	.st203{fill:url(#SVGID_91_);}
	.st204{fill:url(#SVGID_92_);}
	.st205{fill:url(#SVGID_93_);}
	.st206{fill:url(#SVGID_94_);}
	.st207{fill:url(#SVGID_95_);}
	.st208{fill:url(#SVGID_96_);}
	.st209{fill:url(#SVGID_97_);}
	.st210{fill:url(#SVGID_98_);}
	.st211{fill:url(#SVGID_99_);}
	.st212{fill:url(#SVGID_100_);}
	.st213{fill:url(#SVGID_101_);}
	.st214{fill:url(#SVGID_102_);}
	.st215{fill:url(#SVGID_103_);}
	.st216{fill:url(#SVGID_104_);}
	.st217{fill:url(#SVGID_105_);}
	.st218{fill:url(#SVGID_106_);}
	.st219{fill:url(#SVGID_107_);}
	.st220{fill:url(#SVGID_108_);}
	.st221{fill:url(#SVGID_109_);}
	.st222{fill:url(#SVGID_110_);}
	.st223{fill:url(#SVGID_111_);}
	.st224{fill:url(#SVGID_112_);}
	.st225{fill:url(#SVGID_113_);}
	.st226{fill:url(#SVGID_114_);}
	.st227{fill:url(#SVGID_115_);}
	.st228{fill:url(#SVGID_116_);}
	.st229{fill:url(#SVGID_117_);}
	.st230{fill:url(#SVGID_118_);}
	.st231{fill:url(#SVGID_119_);}
	.st232{fill:url(#SVGID_120_);}
	.st233{fill:url(#SVGID_121_);}
	.st234{fill:url(#SVGID_122_);}
	.st235{fill:#F7D9A8;}
	.st236{fill:#EE93B9;}
</style>
<circle class="st12" cx="143" cy="143" r="143"/>
<g>
	<path class="st7" d="M106.2,208.3h-3.8v-14.3h8.4v3.1h-4.6v2.7h4.3v3.1h-4.3V208.3z"/>
	<path class="st7" d="M112.8,194.5c0-0.6,0.2-1,0.5-1.3c0.3-0.3,0.8-0.4,1.5-0.4c0.7,0,1.2,0.1,1.6,0.4c0.3,0.3,0.5,0.7,0.5,1.3
		c0,1.1-0.7,1.7-2,1.7C113.5,196.2,112.8,195.6,112.8,194.5z M116.7,208.3h-3.8v-11.1h3.8V208.3z"/>
	<path class="st7" d="M126.1,197.1c0.3,0,0.6,0,0.9,0.1l0.2,0l-0.3,3.6c-0.3-0.1-0.7-0.1-1.3-0.1c-0.8,0-1.4,0.2-1.8,0.6
		c-0.4,0.4-0.6,0.9-0.6,1.6v5.4h-3.8v-11.1h2.8l0.6,1.8h0.2c0.3-0.6,0.8-1.1,1.3-1.4C124.9,197.3,125.5,197.1,126.1,197.1z"/>
	<path class="st7" d="M137.3,204.9c0,1.2-0.4,2.1-1.2,2.7c-0.8,0.6-2,0.9-3.5,0.9c-0.8,0-1.5,0-2.1-0.1s-1.2-0.2-1.9-0.5v-3.1
		c0.6,0.3,1.2,0.5,1.9,0.6c0.7,0.2,1.3,0.3,1.9,0.3c0.8,0,1.2-0.2,1.2-0.6c0-0.2-0.1-0.4-0.3-0.5c-0.2-0.2-0.9-0.5-2-0.9
		c-1-0.4-1.7-0.9-2.1-1.4c-0.4-0.5-0.6-1.2-0.6-2c0-1,0.4-1.8,1.2-2.4c0.8-0.6,1.9-0.9,3.4-0.9c0.7,0,1.4,0.1,2.1,0.2
		c0.6,0.2,1.3,0.4,2,0.7l-1,2.5c-0.5-0.2-1-0.4-1.6-0.6s-1-0.2-1.4-0.2c-0.6,0-0.9,0.2-0.9,0.5c0,0.2,0.1,0.3,0.3,0.5
		c0.2,0.1,0.8,0.4,1.9,0.8c0.8,0.3,1.4,0.6,1.7,0.9s0.7,0.7,0.8,1.1C137.3,203.8,137.3,204.3,137.3,204.9z"/>
	<path class="st7" d="M144.9,205.5c0.5,0,1.1-0.1,1.8-0.4v2.8c-0.5,0.2-1,0.4-1.5,0.5c-0.5,0.1-1,0.1-1.6,0.1
		c-1.3,0-2.2-0.3-2.8-0.9s-0.8-1.6-0.8-2.9v-4.6h-1.3v-1.6l1.7-1.2l1-2.3h2.5v2.2h2.7v2.9h-2.7v4.3
		C143.8,205.2,144.2,205.5,144.9,205.5z"/>
	<path class="st7" d="M153,212.8c-0.7,0-1.4-0.1-2-0.2v-3c0.2,0,0.4,0.1,0.7,0.1s0.5,0.1,0.8,0.1c0.6,0,1.1-0.2,1.4-0.6s0.4-1,0.4-2
		v-13.2h3.9v12.9c0,1.9-0.4,3.4-1.3,4.4C155.9,212.3,154.7,212.8,153,212.8z"/>
	<path class="st7" d="M171.5,202.8c0,1.8-0.5,3.2-1.5,4.2c-1,1-2.3,1.5-4.1,1.5c-1.7,0-3-0.5-4-1.6c-1-1-1.5-2.4-1.5-4.2
		c0-1.8,0.5-3.2,1.5-4.2c1-1,2.3-1.5,4.1-1.5c1.1,0,2,0.2,2.9,0.7c0.8,0.5,1.5,1.1,1.9,2C171.2,200.6,171.5,201.6,171.5,202.8z
		 M164.3,202.8c0,1,0.1,1.7,0.4,2.2s0.7,0.7,1.3,0.7c0.6,0,1-0.2,1.3-0.7s0.4-1.2,0.4-2.2c0-0.9-0.1-1.7-0.4-2.1
		c-0.2-0.5-0.7-0.7-1.3-0.7c-0.6,0-1,0.2-1.3,0.7S164.3,201.8,164.3,202.8z"/>
	<path class="st7" d="M180.4,197.1c1.2,0,2.2,0.5,2.9,1.5c0.7,1,1.1,2.4,1.1,4.2c0,1.8-0.4,3.2-1.1,4.2s-1.7,1.5-3,1.5
		c-0.4,0-0.8,0-1.1-0.1c-0.3-0.1-0.6-0.2-0.9-0.4c-0.2-0.2-0.5-0.4-0.9-0.8h-0.2l-0.6,1.1h-3v-15.2h3.8v3.4c0,0.4,0,1.1-0.1,2.1h0.1
		c0.4-0.6,0.8-1,1.3-1.2C179.2,197.2,179.8,197.1,180.4,197.1z M179,200.1c-0.5,0-0.9,0.2-1.2,0.6c-0.2,0.4-0.4,1-0.4,1.7v0.5
		c0,0.9,0.1,1.6,0.4,1.9c0.2,0.4,0.7,0.6,1.2,0.6c0.4,0,0.8-0.2,1-0.7c0.2-0.5,0.4-1.1,0.4-2C180.4,201,180,200.1,179,200.1z"/>
</g>
<g>
	<linearGradient id="SVGID_2_" gradientUnits="userSpaceOnUse" x1="134.671" y1="48.0717" x2="134.671" y2="108.7929">
		<stop  offset="0" style="stop-color:#FFD530"/>
		<stop  offset="0.1802" style="stop-color:#FFC625"/>
		<stop  offset="0.4396" style="stop-color:#FDB51A"/>
		<stop  offset="0.6035" style="stop-color:#FCAF17"/>
	</linearGradient>
	<polygon style="fill:url(#SVGID_2_);" points="104.4,108.8 118.1,48.9 134.7,48.1 151.3,48.9 165,108.8 	"/>
	<g>
		<path class="st7" d="M122.1,145.4l1.9,24.3h12.9l1.9-24.3H122.1z M137.3,157.8l-0.6-0.6l0.7-0.7l0,0L137.3,157.8z M136.4,164.9
			l-0.7-0.7l0.7-0.7l0.4,0.4l0,0.6L136.4,164.9z M136.8,165.1l0,0.1L136.8,165.1L136.8,165.1z M124.1,164.5l0-0.6l0.4-0.4l0.7,0.7
			l-0.7,0.7L124.1,164.5z M124.2,165.2L124.2,165.2L124.2,165.2L124.2,165.2z M124.5,147.5l0.7,0.7l-0.7,0.7l-0.7-0.7L124.5,147.5
			L124.5,147.5z M126.5,147.5l0.7,0.7l-0.7,0.7l-0.7-0.7L126.5,147.5L126.5,147.5z M128.5,147.5l0.7,0.7l-0.7,0.7l-0.7-0.7
			L128.5,147.5L128.5,147.5z M130.5,147.5l0.7,0.7l-0.7,0.7l-0.7-0.7L130.5,147.5L130.5,147.5z M132.5,147.5l0.7,0.7l-0.7,0.7
			l-0.7-0.7L132.5,147.5L132.5,147.5z M134.5,147.5l0.7,0.7l-0.7,0.7l-0.7-0.7L134.5,147.5L134.5,147.5z M136.5,147.5l0.7,0.7
			l-0.7,0.7l-0.7-0.7L136.5,147.5L136.5,147.5z M124.5,149.5l0.7,0.7l-0.7,0.7l-0.7-0.7L124.5,149.5z M123.5,150l-0.5-0.5l0-0.3
			l0.6-0.6l0.7,0.7L123.5,150z M128.4,155.5l0.7,0.7l-0.7,0.7l-0.7-0.7L128.4,155.5z M127.5,155.9l-0.7-0.7l0.7-0.7l0.7,0.7
			L127.5,155.9z M130.7,155.2l0.7-0.7l0.7,0.7l-0.7,0.7L130.7,155.2z M132.2,157.2l-0.7,0.7l-0.7-0.7l0.7-0.7L132.2,157.2z
			 M131.2,156.2l-0.7,0.7l-0.7-0.7l0.7-0.7L131.2,156.2z M130.2,157.2l-0.7,0.7l-0.7-0.7l0.7-0.7L130.2,157.2z M129.4,155.9
			l-0.7-0.7l0.7-0.7l0.7,0.7L129.4,155.9z M129.2,158.2l-0.7,0.7l-0.7-0.7l0.7-0.7L129.2,158.2z M129.4,158.5l0.7,0.7l-0.7,0.7
			l-0.7-0.7L129.4,158.5z M129.7,158.2l0.7-0.7l0.7,0.7l-0.7,0.7L129.7,158.2z M131.4,158.5l0.7,0.7l-0.7,0.7l-0.7-0.7L131.4,158.5z
			 M131.7,158.2l0.7-0.7l0.7,0.7l-0.7,0.7L131.7,158.2z M131.7,156.2l0.7-0.7l0.7,0.7l-0.7,0.7L131.7,156.2z M132.7,155.2l0.7-0.7
			l0.7,0.7l-0.7,0.7L132.7,155.2z M132.7,153.2l0.7-0.7l0.7,0.7l-0.7,0.7L132.7,153.2z M133.2,154.2l-0.7,0.7l-0.7-0.7l0.7-0.7
			L133.2,154.2z M131.4,153.9l-0.7-0.7l0.7-0.7l0.7,0.7L131.4,153.9z M131.2,154.2l-0.7,0.7l-0.7-0.7l0.7-0.7L131.2,154.2z
			 M129.4,153.9l-0.7-0.7l0.7-0.7l0.7,0.7L129.4,153.9z M129.2,154.2l-0.7,0.7l-0.7-0.7l0.7-0.7L129.2,154.2z M127.5,153.9l-0.7-0.7
			l0.7-0.7l0.7,0.7L127.5,153.9z M127.2,154.2l-0.7,0.7l-0.7-0.7l0.7-0.7L127.2,154.2z M127.2,156.2l-0.7,0.7l-0.7-0.7l0.7-0.7
			L127.2,156.2z M127.5,156.5l0.7,0.7l-0.7,0.7l-0.7-0.7L127.5,156.5z M128.2,159.2l-0.7,0.7l-0.7-0.7l0.7-0.7L128.2,159.2z
			 M128.2,161.2l-0.7,0.7l-0.7-0.7l0.7-0.7L128.2,161.2z M127.7,160.2l0.7-0.7l0.7,0.7l-0.7,0.7L127.7,160.2z M129.4,160.5l0.7,0.7
			l-0.7,0.7l-0.7-0.7L129.4,160.5z M129.7,160.2l0.7-0.7l0.7,0.7l-0.7,0.7L129.7,160.2z M131.4,160.5l0.7,0.7l-0.7,0.7l-0.7-0.7
			L131.4,160.5z M131.7,160.2l0.7-0.7l0.7,0.7l-0.7,0.7L131.7,160.2z M133.4,160.5l0.7,0.7l-0.7,0.7l-0.7-0.7L133.4,160.5z
			 M132.7,159.2l0.7-0.7l0.7,0.7l-0.7,0.7L132.7,159.2z M132.7,157.2l0.7-0.7l0.7,0.7l-0.7,0.7L132.7,157.2z M133.7,156.2l0.7-0.7
			l0.7,0.7l-0.7,0.7L133.7,156.2z M133.7,154.2l0.7-0.7l0.7,0.7l-0.7,0.7L133.7,154.2z M133.7,152.2l0.7-0.7l0.7,0.7l-0.7,0.7
			L133.7,152.2z M133.4,152l-0.7-0.7l0.7-0.7l0.7,0.7L133.4,152z M133.2,152.2l-0.7,0.7l-0.7-0.7l0.7-0.7L133.2,152.2z M131.4,152
			l-0.7-0.7l0.7-0.7l0.7,0.7L131.4,152z M131.2,152.2l-0.7,0.7l-0.7-0.7l0.7-0.7L131.2,152.2z M129.4,152l-0.7-0.7l0.7-0.7l0.7,0.7
			L129.4,152z M129.2,152.2l-0.7,0.7l-0.7-0.7l0.7-0.7L129.2,152.2z M127.5,152l-0.7-0.7l0.7-0.7l0.7,0.7L127.5,152z M127.2,152.2
			l-0.7,0.7l-0.7-0.7l0.7-0.7L127.2,152.2z M125.5,152l-0.7-0.7l0.7-0.7l0.7,0.7L125.5,152z M126.2,153.2l-0.7,0.7l-0.7-0.7l0.7-0.7
			L126.2,153.2z M126.2,155.2l-0.7,0.7l-0.7-0.7l0.7-0.7L126.2,155.2z M126.2,157.2l-0.7,0.7l-0.7-0.7l0.7-0.7L126.2,157.2z
			 M126.5,157.5l0.7,0.7l-0.7,0.7l-0.7-0.7L126.5,157.5z M127.2,160.2l-0.7,0.7l-0.7-0.7l0.7-0.7L127.2,160.2z M127.2,162.2
			l-0.7,0.7l-0.7-0.7l0.7-0.7L127.2,162.2z M127.5,162.5l0.7,0.7l-0.7,0.7l-0.7-0.7L127.5,162.5z M127.7,162.2l0.7-0.7l0.7,0.7
			l-0.7,0.7L127.7,162.2z M129.4,162.5l0.7,0.7l-0.7,0.7l-0.7-0.7L129.4,162.5z M129.7,162.2l0.7-0.7l0.7,0.7l-0.7,0.7L129.7,162.2z
			 M131.4,162.5l0.7,0.7l-0.7,0.7l-0.7-0.7L131.4,162.5z M131.7,162.2l0.7-0.7l0.7,0.7l-0.7,0.7L131.7,162.2z M133.4,162.5l0.7,0.7
			l-0.7,0.7l-0.7-0.7L133.4,162.5z M133.7,162.2l0.7-0.7l0.7,0.7l-0.7,0.7L133.7,162.2z M133.7,160.2l0.7-0.7l0.7,0.7l-0.7,0.7
			L133.7,160.2z M133.7,158.2l0.7-0.7l0.7,0.7l-0.7,0.7L133.7,158.2z M134.7,157.2l0.7-0.7l0.7,0.7l-0.7,0.7L134.7,157.2z
			 M134.7,155.2l0.7-0.7l0.7,0.7l-0.7,0.7L134.7,155.2z M134.7,153.2l0.7-0.7l0.7,0.7l-0.7,0.7L134.7,153.2z M134.7,151.2l0.7-0.7
			l0.7,0.7l-0.7,0.7L134.7,151.2z M134.7,149.2l0.7-0.7l0.7,0.7l-0.7,0.7L134.7,149.2z M135.2,150.2l-0.7,0.7l-0.7-0.7l0.7-0.7
			L135.2,150.2z M133.4,150l-0.7-0.7l0.7-0.7l0.7,0.7L133.4,150z M133.2,150.2l-0.7,0.7l-0.7-0.7l0.7-0.7L133.2,150.2z M131.4,150
			l-0.7-0.7l0.7-0.7l0.7,0.7L131.4,150z M131.2,150.2l-0.7,0.7l-0.7-0.7l0.7-0.7L131.2,150.2z M129.4,150l-0.7-0.7l0.7-0.7l0.7,0.7
			L129.4,150z M129.2,150.2l-0.7,0.7l-0.7-0.7l0.7-0.7L129.2,150.2z M127.5,150l-0.7-0.7l0.7-0.7l0.7,0.7L127.5,150z M127.2,150.2
			l-0.7,0.7l-0.7-0.7l0.7-0.7L127.2,150.2z M125.5,150l-0.7-0.7l0.7-0.7l0.7,0.7L125.5,150z M125.2,152.2l-0.7,0.7l-0.7-0.7l0.7-0.7
			L125.2,152.2z M125.2,154.2l-0.7,0.7l-0.7-0.7l0.7-0.7L125.2,154.2z M125.2,156.2l-0.7,0.7l-0.7-0.7l0.7-0.7L125.2,156.2z
			 M125.2,158.2l-0.7,0.7l-0.7-0.7l0.7-0.7L125.2,158.2z M125.5,158.5l0.7,0.7l-0.7,0.7l-0.7-0.7L125.5,158.5z M126.2,161.2
			l-0.7,0.7l-0.7-0.7l0.7-0.7L126.2,161.2z M125.2,162.2l-0.7,0.7l-0.6-0.6l0-0.3l0.6-0.6L125.2,162.2z M125.5,162.5l0.7,0.7
			l-0.7,0.7l-0.7-0.7L125.5,162.5z M126.5,163.5l0.7,0.7l-0.7,0.7l-0.7-0.7L126.5,163.5z M127.5,164.5l0.7,0.7l-0.7,0.7l-0.7-0.7
			L127.5,164.5z M127.7,164.2l0.7-0.7l0.7,0.7l-0.7,0.7L127.7,164.2z M129.4,164.5l0.7,0.7l-0.7,0.7l-0.7-0.7L129.4,164.5z
			 M129.7,164.2l0.7-0.7l0.7,0.7l-0.7,0.7L129.7,164.2z M131.4,164.5l0.7,0.7l-0.7,0.7l-0.7-0.7L131.4,164.5z M131.7,164.2l0.7-0.7
			l0.7,0.7l-0.7,0.7L131.7,164.2z M133.4,164.5l0.7,0.7l-0.7,0.7l-0.7-0.7L133.4,164.5z M133.7,164.2l0.7-0.7l0.7,0.7l-0.7,0.7
			L133.7,164.2z M134.7,163.2l0.7-0.7l0.7,0.7l-0.7,0.7L134.7,163.2z M135.7,162.2l0.7-0.7l0.6,0.6l0,0.3l-0.6,0.6L135.7,162.2z
			 M135.4,161.9l-0.7-0.7l0.7-0.7l0.7,0.7L135.4,161.9z M134.7,159.2l0.7-0.7l0.7,0.7l-0.7,0.7L134.7,159.2z M135.7,158.2l0.7-0.7
			l0.7,0.7l-0.7,0.7L135.7,158.2z M135.7,156.2l0.7-0.7l0.7,0.7l-0.7,0.7L135.7,156.2z M135.7,154.2l0.7-0.7l0.7,0.7l-0.7,0.7
			L135.7,154.2z M135.7,152.2l0.7-0.7l0.7,0.7l-0.7,0.7L135.7,152.2z M135.7,150.2l0.7-0.7l0.7,0.7l-0.7,0.7L135.7,150.2z
			 M136.7,149.2l0.7-0.7l0.6,0.6l0,0.3l-0.5,0.5L136.7,149.2z M137,147.5h0.8l-0.4,0.4L137,147.5z M135.4,148l-0.4-0.4h0.8
			L135.4,148z M133.4,148l-0.4-0.4h0.8L133.4,148z M131.4,148l-0.4-0.4h0.8L131.4,148z M129.4,148l-0.4-0.4h0.8L129.4,148z
			 M127.5,148l-0.4-0.4h0.8L127.5,148z M125.5,148l-0.4-0.4h0.8L125.5,148z M123.5,148l-0.4-0.4h0.8L123.5,148z M123.2,148.2
			l-0.3,0.3l-0.1-0.7L123.2,148.2z M123.2,150.2l-0.2,0.2l0-0.4L123.2,150.2z M123.5,150.5l0.7,0.7l-0.7,0.7l-0.4-0.4l0-0.6
			L123.5,150.5z M123.2,152.2L123.2,152.2L123.2,152.2L123.2,152.2z M123.5,152.5l0.7,0.7l-0.7,0.7l-0.2-0.2l-0.1-1L123.5,152.5z
			 M123.5,154.5l0.7,0.7l-0.7,0.7l0,0l-0.1-1.3L123.5,154.5z M123.5,156.5l0.7,0.7l-0.6,0.6L123.5,156.5L123.5,156.5z M124.2,159.2
			l-0.5,0.5l-0.1-1L124.2,159.2z M124.5,159.5l0.7,0.7l-0.7,0.7l-0.7-0.7l0,0L124.5,159.5z M124.2,161.2l-0.3,0.3l-0.1-0.7
			L124.2,161.2z M124.2,163.2l-0.2,0.2l0-0.4L124.2,163.2z M125.5,164.5l0.7,0.7l-0.7,0.7l-0.7-0.7L125.5,164.5z M125.7,166.2
			l0.7-0.7l0.7,0.7H125.7z M127.7,166.2l0.7-0.7l0.7,0.7H127.7z M129.7,166.2l0.7-0.7l0.7,0.7H129.7z M131.7,166.2l0.7-0.7l0.7,0.7
			H131.7z M133.7,166.2l0.7-0.7l0.7,0.7H133.7z M134.7,165.2l0.7-0.7l0.7,0.7l-0.7,0.7L134.7,165.2z M136.7,163.2l0.2-0.2l0,0.4
			L136.7,163.2z M136.7,161.2l0.4-0.4l-0.1,0.7L136.7,161.2z M137.2,160.2l-0.7,0.7l-0.7-0.7l0.7-0.7L137.2,160.2L137.2,160.2z
			 M136.7,159.2l0.6-0.6l-0.1,1L136.7,159.2z M137.4,155.9l-0.7-0.7l0.7-0.7l0.1,0.1L137.4,155.9L137.4,155.9z M137.4,153.9
			l-0.7-0.7l0.7-0.7l0.3,0.3l-0.1,0.9L137.4,153.9z M137.7,152.2L137.7,152.2L137.7,152.2L137.7,152.2z M137.4,152l-0.7-0.7l0.7-0.7
			l0.4,0.4l0,0.6L137.4,152z M137.7,150.2l0.2-0.2l0,0.4L137.7,150.2z M137.7,148.2l0.4-0.4l-0.1,0.7L137.7,148.2z M124.2,165.8
			l0.3-0.3l0.7,0.7h-1L124.2,165.8z M135.7,166.2l0.7-0.7l0.3,0.3l0,0.4H135.7z"/>
	</g>
	<g>
		<g>
			<circle class="st32" cx="147.3" cy="166.5" r="2.9"/>
			<circle class="st32" cx="176" cy="166.5" r="2.9"/>
			<rect x="159.2" y="132.9" class="st7" width="4.9" height="33.8"/>
			<path class="st7" d="M161.2,166.7h-17.5v-1.5c0-1.1,0.7-2,1.6-2h15.9V166.7z"/>
			<path class="st7" d="M162.1,166.7h17.5v-1.5c0-1.1-0.7-2-1.6-2h-15.9V166.7z"/>
		</g>
		<g>
			<path class="st33" d="M191.8,93.5c0,0-1.5-3.2-1.5-3.2h-27.1c0,0,0,0,0,0H163l0,0c-2.5,0-4.6,1.8-4.9,4.3l-5.4,40.9l9.9,1.3
				l0.3-2.1h20.9C183.8,134.7,191.8,93.5,191.8,93.5z"/>
			<g>
				<path class="st33" d="M132.5,131.3c-2.8,0-5,2.2-5,5c0,2.8,2.2,5,5,5H166v-10H132.5z"/>
			</g>
			<path class="st34" d="M190.9,90.3c-2.7-0.4-5.2,1.6-5.6,4.3l-4.8,36.6h-20.8c-2.8,0-5,2.2-5,5c0,2.8,2.2,5,5,5h25.2
				c2.6,0,4.7-1.9,4.9-4.4l5.4-40.9C195.5,93.2,193.6,90.7,190.9,90.3z"/>
		</g>
	</g>
	<g>
		<g>
			<path class="st26" d="M165.9,87c-5.1,16-16.8,15.7-27,16.9l0.1,2.3c5.8-0.8,24.6,0.3,31.8-17.5C172.5,84.9,167.3,83.6,165.9,87z"
				/>
			<path class="st35" d="M140,105.3l-1,0.9c-1.3,0.1-2.7-1.1-3.8-0.9c-0.9,0.2-2.1,1.1-2.4,1.4c-0.4,0.4-1,0-0.4-0.6
				c1.5-1.8,1.6-2.6,3.8-2.9c1.2-0.1,2,0.5,2.7,0.7L140,105.3z"/>
		</g>
		<g>
			<path class="st5" d="M176.4,59.4l-2.2-0.6c-8.1-0.5-14.2,0.6-15.5,6.6l0,0c0,0.1,0,0.1,0,0.2c0,0.2-0.1,0.4-0.1,0.6
				c-0.3,2-0.5,4.2-2.4,5l2.9,0c1,2.8,3.3,5,5.9,6.8c4.9,3.4,3.2,4.8,2.6,6.2l5-0.4l0.1-1.2l0,0c0.3-4.7,1.6-6.3,4.1-9.1
				C179.6,70.1,181.5,61.6,176.4,59.4z"/>
			<polygon class="st5" points="153.4,131.3 142.3,131.3 143.1,169.7 138.1,169.7 140.9,165.4 137,126.9 153.2,125.3 			"/>
			<g>
				<polygon class="st27" points="138.1,169.7 143.1,169.7 143,165.1 140.9,165.1 140.9,165.4 				"/>
			</g>
			<polygon class="st5" points="149.7,131.3 134.9,131.3 135.7,169.7 130.7,169.7 133.5,165.4 129.5,126.9 149.6,124.8 			"/>
			<g>
				<polygon class="st27" points="130.7,169.7 135.7,169.7 135.6,165.1 133.5,165.1 133.5,165.4 				"/>
			</g>
			<path class="st27" d="M165.4,69.9c-0.5,0-0.9-0.2-1.3-0.4c-0.7-0.5-1-1.3-1-2.1l0.4,0c-0.1,0.7,0.2,1.3,0.8,1.7
				c0.5,0.4,1.2,0.5,1.7,0.2c0.6-0.3,1-0.9,1.1-1.9l0.4,0c-0.1,1.1-0.6,1.9-1.3,2.2C166,69.9,165.7,69.9,165.4,69.9z"/>
			<path class="st27" d="M166.4,76.8c-0.5,0-1-0.2-1.5-0.6l0.3-0.3c0.5,0.4,1.2,0.6,1.7,0.4c0.4-0.2,0.7-0.5,0.7-1l0.4,0
				c0,0.6-0.4,1.1-1,1.3C166.9,76.7,166.6,76.8,166.4,76.8z"/>
			<path class="st26" d="M167.3,83.4c-6.9,13.6-5.1,39.8-19,41.5c-0.7,0.1-15.8,1.7-15.8,1.7l11.7,4.7c2.5,0,9.9,0,11.9,0
				c18.3-0.2,15.2-2.3,16.6-47.3L167.3,83.4z"/>
			<polygon class="st7" points="173.4,84.3 172.9,82.3 168.7,83.4 167.8,81.9 166.7,83.2 167.2,84.9 163.6,102.1 169.2,85.6 			"/>
			<g>
				<path class="st26" d="M179.6,77.5c7.6-7.6,6-26.6-10.6-23.6c-9.1,1.7-9.2,8-12.1,6.8c1.5,5.3,10.4,5.5,13.4,3.1
					c0.8,0.7,1.4,1.7,1.8,2.8c0.2-0.1,0.5-0.1,0.8-0.1c1.3,0.1,2.3,1.2,2.2,2.5c-0.1,1.1-0.9,2-2,2.2c-0.8,8,0.4,15.1,8.6,12.7
					C179.2,83.9,174.6,82.3,179.6,77.5z"/>
			</g>
		</g>
		<g>
			<path class="st35" d="M159.4,104.9c-2.1-0.7-3-0.8-4.1-0.5c-1.1,0.3-3.6,2.4-3.1,3.1c0.4,0.4,1.1-0.2,2.1-0.6
				c0.8-0.4,1.1-0.1,1.8,0.1c1.3,0.4,0.6,0.6,2.7,0.2c0.2,0,1.6-0.9,1.6-0.9L159.4,104.9z"/>
			<path class="st26" d="M172,89.9c9.5,7.7,18.2,22.1-12.6,15.1l-0.6,2.3c36,10.1,28.1-10.7,14-22.8C171.4,84.7,170.2,88.3,172,89.9
				z"/>
			<g>
				<path class="st36" d="M172,89.9c9.5,7.7,18.2,22.1-12.6,15.1l-0.1,0.5c28.4,6.6,27.5-3.9,11.8-18.2
					C171,88.2,171.3,89.2,172,89.9z"/>
			</g>
		</g>
	</g>
	<g>
		<g>
			<path class="st7" d="M97,103.6c-0.5,0-0.9-0.4-0.9-0.9V70.8c0-0.5,0.4-0.9,0.9-0.9s0.9,0.4,0.9,0.9v31.9
				C97.8,103.2,97.5,103.6,97,103.6z"/>
			<g>
				<path class="st7" d="M97,71.2c-0.2,0-0.5-0.1-0.7-0.3C96,70.6,96,70,96.4,69.7l25.1-22.2c0.4-0.3,0.9-0.3,1.3,0.1
					c0.3,0.4,0.3,0.9-0.1,1.3L97.6,71C97.4,71.2,97.2,71.2,97,71.2z"/>
				<g>
					<path class="st9" d="M99.4,103.4c0-1.3-1.1-2.4-2.4-2.4c-1.3,0-2.4,1.1-2.4,2.4h0v3.9h4.7L99.4,103.4z"/>
					<circle class="st7" cx="97" cy="103.4" r="1.2"/>
					<path class="st7" d="M106.8,110.1v-1.2c0-0.8-0.2-1.8-2.3-1.8H89.4c-2,0-2.3,1.1-2.3,1.8v1.2H106.8z"/>
				</g>
				<g>
					<g>
						<circle class="st9" cx="97" cy="70.4" r="2.4"/>
					</g>
					<circle class="st7" cx="97" cy="70.4" r="1.2"/>
				</g>
				<path class="st7" d="M151.4,49.4v-0.5c0-1.5-1.6-3.3-3.2-3.3h-27.1c-1.6,0-3.2,1.8-3.2,3.3v0.5H151.4z"/>
				<g>
					<path class="st9" d="M124.9,49.4v-0.5c0-1.5,1.6-3.3,3.2-3.3h-0.7c-1.6,0-3.2,1.8-3.2,3.3v0.5H124.9z"/>
				</g>
			</g>
		</g>
		<g>
			<path class="st7" d="M211.8,169.5v-53.2c0-3.4-2.8-6.2-6.2-6.2H87.8c-3.4,0-6.2,2.8-6.2,6.2v53.2h39.1v-53.2
				c0-1.7,1.4-3.1,3.1-3.1h45.8c1.7,0,3.1,1.4,3.1,3.1v53.2H211.8z"/>
			<path class="st9" d="M174,169.5v-53.2c0-3.4-2.8-6.2-6.2-6.2H86c-3.4,0-6.2,2.8-6.2,6.2v53.2h3.1v-53.2c0-1.7,1.4-3.1,3.1-3.1
				h81.8c1.7,0,3.1,1.4,3.1,3.1v53.2H174z"/>
		</g>
		<g>
			<path class="st9" d="M174.2,110.2c0.5,0,0.9-0.5,0.9-1.2v-6.2h-6.4v6.2c0,0.7,0.3,1.2,0.9,1.2H174.2z"/>
			<path class="st7" d="M171.3,110.2c0.5,0,0.9-0.5,0.9-1.2v-6.2h-2.6v6.2c0,0.7,0.3,1.2,0.9,1.2H171.3z"/>
			<path class="st9" d="M175.7,108.4h-1v-1h1c0.8,0,1.5-0.7,1.5-1.5c0-0.8-0.7-1.5-1.5-1.5h-1v-1h1c1.4,0,2.4,1.1,2.4,2.5
				C178.2,107.3,177,108.4,175.7,108.4z"/>
		</g>
		<g>
			<path class="st9" d="M148.7,106.4c0,0.7-0.5,1.2-1.2,1.2h-36.8c-0.7,0-1.2-0.5-1.2-1.2V80.8c0-0.7,0.5-1.2,1.2-1.2h36.8
				c0.7,0,1.2,0.5,1.2,1.2V106.4z"/>
			<path class="st7" d="M146.5,105.5c0,0.6-0.5,1.1-1.1,1.1h-34.4c-0.6,0-1.1-0.5-1.1-1.1V81.8c0-0.6,0.5-1.1,1.1-1.1h34.4
				c0.6,0,1.1,0.5,1.1,1.1V105.5z"/>
			<path class="st7" d="M165.4,107.6v1.3c0,0.7-0.5,1.2-1.2,1.2h-52.3c-0.7,0-1.2-0.5-1.2-1.2v-1.3H165.4z"/>
			<path class="st9" d="M165.4,107.6v1.3c0,0.7-0.5,1.2-1.2,1.2H150c-0.7,0-1.2-0.5-1.2-1.2v-1.3H165.4z"/>
			<circle class="st9" cx="128.2" cy="93.6" r="3.6"/>
		</g>
	</g>
</g>
</svg>
