<?xml version="1.0" encoding="utf-8"?>
<!-- Generator: Adobe Illustrator 21.1.0, SVG Export Plug-In . SVG Version: 6.00 Build 0)  -->
<!DOCTYPE svg PUBLIC "-//W3C//DTD SVG 1.1//EN" "http://www.w3.org/Graphics/SVG/1.1/DTD/svg11.dtd">
<svg version="1.1" id="Layer_1" xmlns="http://www.w3.org/2000/svg" xmlns:xlink="http://www.w3.org/1999/xlink" x="0px" y="0px"
	 viewBox="0 0 286 286" style="enable-background:new 0 0 286 286;" xml:space="preserve">
<style type="text/css">
	.st0{clip-path:url(#SVGID_2_);fill:#4298B5;}
	.st1{clip-path:url(#SVGID_2_);}
	.st2{fill:#DB5C1E;}
	.st3{fill:#002B44;}
	.st4{fill:#003F5C;}
	.st5{fill:#EB6479;}
	.st6{fill:#223129;}
	.st7{fill:#FFFFFF;}
	.st8{fill:#D55A6E;}
	.st9{fill:#D8E2E7;}
	.st10{fill:#939598;}
	.st11{fill:#727D84;}
	.st12{fill:#4298B5;}
	.st13{fill:#E4D5B4;}
	.st14{fill:#CEBFA3;}
	.st15{fill:#EDE0C6;}
	.st16{fill:#3D302D;}
	.st17{fill:#D6C6A6;}
	.st18{fill:#C6B597;}
	.st19{fill:#826754;}
	.st20{fill:#91CEC4;}
	.st21{fill:#D3A98C;}
	.st22{fill:#AD886F;}
	.st23{fill:#896D59;}
	.st24{fill:#EA7442;}
	.st25{fill:#D15F36;}
	.st26{fill:#003E5A;}
	.st27{fill:#243129;}
	.st28{fill:#4077A2;}
	.st29{fill:#0F3644;}
	.st30{fill:#6C707A;}
	.st31{fill:url(#SVGID_3_);}
	.st32{fill:#8AACBD;}
	.st33{fill:#E6EBEE;}
	.st34{fill:#C3D4DD;}
	.st35{fill:#F37029;}
	.st36{fill:#004B6B;}
	.st37{fill:#282829;}
	.st38{fill:#BACAD3;}
	.st39{fill:#9EB3BE;}
	.st40{fill:#27688F;}
	.st41{fill:#005376;}
	.st42{fill:#2B75A2;}
	.st43{fill:#AFC6D2;}
	.st44{fill:url(#SVGID_4_);}
	.st45{fill:#E9E8D8;}
	.st46{fill:#818277;}
	.st47{fill:#63665D;}
	.st48{fill:#B4B39A;}
	.st49{fill:url(#SVGID_5_);}
	.st50{fill:url(#SVGID_6_);}
	.st51{fill:url(#SVGID_7_);}
	.st52{fill:url(#SVGID_8_);}
	.st53{fill:url(#SVGID_9_);}
	.st54{fill:url(#SVGID_10_);}
	.st55{fill:#FFC20E;}
	.st56{fill:#916600;}
	.st57{fill:#A7BDC9;}
	.st58{fill:#8E2833;}
	.st59{fill:#721B25;}
	.st60{fill:#00547A;}
	.st61{fill:#F1F2F2;}
	.st62{fill:#6F6598;}
	.st63{fill:#4B436A;}
	.st64{fill:#F27129;}
	.st65{fill:#A57406;}
	.st66{fill:url(#SVGID_11_);}
	.st67{fill:url(#SVGID_12_);}
	.st68{fill:url(#SVGID_13_);}
	.st69{fill:url(#SVGID_14_);}
	.st70{fill:url(#SVGID_15_);}
	.st71{fill:url(#SVGID_16_);}
	.st72{fill:url(#SVGID_17_);}
	.st73{fill:url(#SVGID_18_);}
	.st74{fill:url(#SVGID_19_);}
	.st75{fill:url(#SVGID_20_);}
	.st76{fill:url(#SVGID_21_);}
	.st77{fill:url(#SVGID_22_);}
	.st78{fill:url(#SVGID_23_);}
	.st79{fill:url(#SVGID_24_);}
	.st80{fill:url(#SVGID_25_);}
	.st81{fill:url(#SVGID_26_);}
	.st82{fill:url(#SVGID_27_);}
	.st83{fill:url(#SVGID_28_);}
	.st84{fill:url(#SVGID_29_);}
	.st85{fill:url(#SVGID_30_);}
	.st86{fill:url(#SVGID_31_);}
	.st87{fill:url(#SVGID_32_);}
	.st88{fill:url(#SVGID_33_);}
	.st89{fill:url(#SVGID_34_);}
	.st90{fill:url(#SVGID_35_);}
	.st91{fill:url(#SVGID_36_);}
	.st92{fill:url(#SVGID_37_);}
	.st93{fill:url(#SVGID_38_);}
	.st94{fill:url(#SVGID_39_);}
	.st95{fill:url(#SVGID_40_);}
	.st96{fill:url(#SVGID_41_);}
	.st97{fill:url(#SVGID_42_);}
	.st98{fill:url(#SVGID_43_);}
	.st99{fill:url(#SVGID_44_);}
	.st100{fill:url(#SVGID_45_);}
	.st101{fill:url(#SVGID_46_);}
	.st102{fill:#F9F1D7;}
	.st103{fill:#6E7980;stroke:#58595B;stroke-width:0.4225;stroke-linecap:round;stroke-linejoin:round;}
	.st104{fill:#DF9CB0;}
	.st105{fill:#C37A8C;}
	.st106{fill:#C29F60;}
	.st107{fill:#FFFFFF;stroke:#D0ECF4;stroke-width:0.4225;}
	.st108{fill:url(#SVGID_47_);}
	.st109{fill:url(#SVGID_48_);}
	.st110{fill:url(#SVGID_49_);stroke:#FFFFFF;stroke-width:2.1123;}
	.st111{fill:#9F2214;}
	.st112{fill:url(#SVGID_50_);stroke:#FFFFFF;stroke-width:2.1123;}
	.st113{fill:#4A7195;}
	.st114{fill:#C13D2E;}
	.st115{fill:#7989A3;stroke:#FFFFFF;stroke-width:2.1123;}
	.st116{fill:#FFCF01;}
	.st117{fill:url(#SVGID_51_);stroke:#FFFFFF;stroke-width:2.1123;}
	.st118{fill:url(#SVGID_52_);stroke:#FFFFFF;stroke-width:2.1123;}
	.st119{fill:url(#SVGID_53_);stroke:#FFFFFF;stroke-width:2.1123;}
	.st120{fill:#876041;}
	.st121{fill:#DAC895;stroke:#F7E8BA;stroke-width:0.4225;}
	.st122{fill:#4B545B;}
	.st123{fill:#3E6D93;}
	.st124{fill:#476F93;}
	.st125{fill:#CAB47E;}
	.st126{fill:#F7E8BA;}
	.st127{fill:#C2A171;}
	.st128{fill:#D0ECF4;}
	.st129{fill:#EFE4AC;}
	.st130{fill:#5980A2;}
	.st131{fill:#17738F;}
	.st132{fill:#B1D45E;}
	.st133{fill:#8CC540;stroke:#221F1F;stroke-width:0.2168;stroke-linejoin:round;stroke-miterlimit:10;}
	.st134{fill:#58595B;}
	.st135{fill:#797A7D;}
	.st136{fill:#BF86A8;}
	.st137{fill:#302B2C;}
	.st138{fill:#48484A;}
	.st139{fill:#72A087;}
	.st140{fill:#94B0BE;}
	.st141{fill:#09723B;}
	.st142{fill:#00A14B;}
	.st143{fill:#004766;}
	.st144{fill:#00354F;}
	.st145{fill:#005B80;}
	.st146{fill:#002F3E;}
	.st147{fill:#3F4450;}
	.st148{fill:#2A6A7F;}
	.st149{fill:url(#SVGID_54_);}
	.st150{fill:#2C3038;}
	.st151{fill:#CACFD1;}
	.st152{fill:#343943;}
	.st153{fill:#27667A;}
	.st154{fill:none;stroke:#243129;stroke-width:0.3823;stroke-miterlimit:10;}
	.st155{fill:#333333;}
	.st156{fill:#E5E8DD;}
	.st157{fill:#767877;}
	.st158{fill:#545554;}
	.st159{fill:#F8E1C7;}
	.st160{fill:#5A5048;}
	.st161{fill:#604373;}
	.st162{fill:none;}
	.st163{fill:#9DB9C8;}
	.st164{fill:#235F83;}
	.st165{fill:#CF473A;}
	.st166{fill:#B4A680;}
	.st167{fill:url(#SVGID_55_);}
	.st168{fill:url(#SVGID_56_);}
	.st169{fill:url(#SVGID_57_);}
	.st170{fill:url(#SVGID_58_);}
	.st171{fill:url(#SVGID_59_);}
	.st172{fill:url(#SVGID_60_);}
	.st173{fill:url(#SVGID_61_);}
	.st174{fill:url(#SVGID_62_);}
	.st175{fill:url(#SVGID_63_);}
	.st176{fill:url(#SVGID_64_);}
	.st177{fill:url(#SVGID_65_);}
	.st178{fill:url(#SVGID_66_);}
	.st179{fill:url(#SVGID_67_);}
	.st180{fill:url(#SVGID_68_);}
	.st181{fill:url(#SVGID_69_);}
	.st182{fill:url(#SVGID_70_);}
	.st183{fill:url(#SVGID_71_);}
	.st184{fill:url(#SVGID_72_);}
	.st185{fill:url(#SVGID_73_);}
	.st186{fill:url(#SVGID_74_);}
	.st187{fill:url(#SVGID_75_);}
	.st188{fill:url(#SVGID_76_);}
	.st189{fill:url(#SVGID_77_);}
	.st190{fill:url(#SVGID_78_);}
	.st191{fill:url(#SVGID_79_);}
	.st192{fill:url(#SVGID_80_);}
	.st193{fill:url(#SVGID_81_);}
	.st194{fill:url(#SVGID_82_);}
	.st195{fill:url(#SVGID_83_);}
	.st196{fill:url(#SVGID_84_);}
	.st197{fill:url(#SVGID_85_);}
	.st198{fill:url(#SVGID_86_);}
	.st199{fill:url(#SVGID_87_);}
	.st200{fill:url(#SVGID_88_);}
	.st201{fill:url(#SVGID_89_);}
	.st202{fill:url(#SVGID_90_);}
	.st203{fill:url(#SVGID_91_);}
	.st204{fill:url(#SVGID_92_);}
	.st205{fill:url(#SVGID_93_);}
	.st206{fill:url(#SVGID_94_);}
	.st207{fill:url(#SVGID_95_);}
	.st208{fill:url(#SVGID_96_);}
	.st209{fill:url(#SVGID_97_);}
	.st210{fill:url(#SVGID_98_);}
	.st211{fill:url(#SVGID_99_);}
	.st212{fill:url(#SVGID_100_);}
	.st213{fill:url(#SVGID_101_);}
	.st214{fill:url(#SVGID_102_);}
	.st215{fill:url(#SVGID_103_);}
	.st216{fill:url(#SVGID_104_);}
	.st217{fill:url(#SVGID_105_);}
	.st218{fill:url(#SVGID_106_);}
	.st219{fill:url(#SVGID_107_);}
	.st220{fill:url(#SVGID_108_);}
	.st221{fill:url(#SVGID_109_);}
	.st222{fill:url(#SVGID_110_);}
	.st223{fill:url(#SVGID_111_);}
	.st224{fill:url(#SVGID_112_);}
	.st225{fill:url(#SVGID_113_);}
	.st226{fill:url(#SVGID_114_);}
	.st227{fill:url(#SVGID_115_);}
	.st228{fill:url(#SVGID_116_);}
	.st229{fill:url(#SVGID_117_);}
	.st230{fill:url(#SVGID_118_);}
	.st231{fill:url(#SVGID_119_);}
	.st232{fill:url(#SVGID_120_);}
	.st233{fill:url(#SVGID_121_);}
	.st234{fill:url(#SVGID_122_);}
	.st235{fill:#F7D9A8;}
	.st236{fill:#EE93B9;}
</style>
<circle class="st12" cx="143" cy="143" r="143"/>
<g>
	<path class="st7" d="M53,208.3v-14.3h3.9v14.3H53z"/>
	<path class="st7" d="M66.7,208.3v-6c0-0.7-0.1-1.3-0.3-1.7c-0.2-0.4-0.6-0.6-1-0.6c-0.6,0-1.1,0.3-1.4,0.8
		c-0.3,0.5-0.4,1.4-0.4,2.6v4.8h-3.8v-11.1h2.9l0.5,1.4h0.2c0.3-0.5,0.8-0.9,1.4-1.2c0.6-0.3,1.2-0.4,2-0.4c1.2,0,2.2,0.4,2.9,1.1
		c0.7,0.7,1,1.7,1,3v7.2H66.7z"/>
	<path class="st7" d="M80.1,208.3v-6c0-1.5-0.4-2.2-1.3-2.2c-0.6,0-1.1,0.3-1.4,0.8c-0.3,0.5-0.4,1.4-0.4,2.6v4.9h-3.8v-15.2H77v2.2
		c0,1-0.1,2.1-0.2,3.3H77c0.4-0.6,0.8-1,1.3-1.2c0.5-0.2,1.1-0.4,1.7-0.4c1.2,0,2.2,0.4,2.9,1.1c0.7,0.7,1,1.7,1,3v7.2H80.1z"/>
	<path class="st7" d="M91.9,208.5c-1.8,0-3.3-0.5-4.3-1.5c-1-1-1.5-2.4-1.5-4.2c0-1.9,0.5-3.3,1.4-4.3c0.9-1,2.3-1.5,4-1.5
		c1.7,0,3,0.4,3.9,1.3s1.4,2.1,1.4,3.8v1.7h-6.8c0,0.6,0.3,1.1,0.7,1.5c0.4,0.4,1,0.5,1.7,0.5c0.7,0,1.3-0.1,1.9-0.2
		c0.6-0.1,1.2-0.3,1.8-0.7v2.7c-0.6,0.3-1.2,0.5-1.9,0.6C93.5,208.5,92.8,208.5,91.9,208.5z M91.6,199.7c-0.4,0-0.8,0.1-1.1,0.4
		s-0.5,0.7-0.5,1.3h3.3c0-0.5-0.2-1-0.5-1.3C92.5,199.8,92.1,199.7,91.6,199.7z"/>
	<path class="st7" d="M105.6,197.1c0.3,0,0.6,0,0.9,0.1l0.2,0l-0.3,3.6c-0.3-0.1-0.7-0.1-1.3-0.1c-0.8,0-1.4,0.2-1.8,0.6
		c-0.4,0.4-0.6,0.9-0.6,1.6v5.4h-3.8v-11.1h2.8l0.6,1.8h0.2c0.3-0.6,0.8-1.1,1.3-1.4C104.4,197.3,105,197.1,105.6,197.1z"/>
	<path class="st7" d="M108.2,194.5c0-0.6,0.2-1,0.5-1.3c0.3-0.3,0.8-0.4,1.5-0.4c0.7,0,1.2,0.1,1.6,0.4c0.3,0.3,0.5,0.7,0.5,1.3
		c0,1.1-0.7,1.7-2,1.7C108.9,196.2,108.2,195.6,108.2,194.5z M112.1,208.3h-3.8v-11.1h3.8V208.3z"/>
	<path class="st7" d="M120.2,205.5c0.5,0,1.1-0.1,1.8-0.4v2.8c-0.5,0.2-1,0.4-1.5,0.5c-0.5,0.1-1,0.1-1.6,0.1
		c-1.3,0-2.2-0.3-2.8-0.9c-0.6-0.6-0.8-1.6-0.8-2.9v-4.6H114v-1.6l1.7-1.2l1-2.3h2.5v2.2h2.7v2.9h-2.7v4.3
		C119.2,205.2,119.5,205.5,120.2,205.5z"/>
	<path class="st7" d="M123.9,194.5c0-0.6,0.2-1,0.5-1.3c0.3-0.3,0.8-0.4,1.5-0.4c0.7,0,1.2,0.1,1.6,0.4c0.3,0.3,0.5,0.7,0.5,1.3
		c0,1.1-0.7,1.7-2,1.7C124.6,196.2,123.9,195.6,123.9,194.5z M127.8,208.3H124v-11.1h3.8V208.3z"/>
	<path class="st7" d="M137.5,208.3v-6c0-0.7-0.1-1.3-0.3-1.7c-0.2-0.4-0.6-0.6-1-0.6c-0.6,0-1.1,0.3-1.4,0.8
		c-0.3,0.5-0.4,1.4-0.4,2.6v4.8h-3.8v-11.1h2.9l0.5,1.4h0.2c0.3-0.5,0.8-0.9,1.4-1.2c0.6-0.3,1.2-0.4,2-0.4c1.2,0,2.2,0.4,2.9,1.1
		c0.7,0.7,1,1.7,1,3v7.2H137.5z"/>
	<path class="st7" d="M154.3,197.3v1.8l-1.5,0.6c0.2,0.4,0.3,0.8,0.3,1.3c0,1.2-0.4,2.1-1.3,2.8c-0.8,0.7-2.1,1-3.7,1
		c-0.4,0-0.7,0-1-0.1c-0.1,0.2-0.1,0.3-0.1,0.5c0,0.2,0.2,0.3,0.5,0.4c0.3,0.1,0.7,0.2,1.2,0.2h1.8c2.5,0,3.7,1,3.7,3.1
		c0,1.3-0.6,2.4-1.7,3.1c-1.1,0.8-2.8,1.1-4.8,1.1c-1.6,0-2.8-0.3-3.6-0.8c-0.8-0.5-1.3-1.3-1.3-2.3c0-1.3,0.8-2.2,2.5-2.6
		c-0.3-0.1-0.6-0.4-0.9-0.7c-0.3-0.3-0.4-0.6-0.4-0.9c0-0.3,0.1-0.6,0.3-0.9c0.2-0.3,0.6-0.6,1.2-0.9c-0.6-0.3-1-0.7-1.4-1.2
		c-0.3-0.5-0.5-1.2-0.5-2c0-1.2,0.4-2.1,1.2-2.8s2-1,3.5-1c0.2,0,0.5,0,1,0.1c0.5,0,0.9,0.1,1.1,0.1H154.3z M146,209.7
		c0,0.3,0.2,0.6,0.5,0.8c0.3,0.2,0.8,0.3,1.4,0.3c0.9,0,1.7-0.1,2.2-0.3c0.6-0.2,0.8-0.5,0.8-0.9c0-0.3-0.2-0.5-0.5-0.6
		c-0.3-0.1-0.8-0.2-1.5-0.2h-1.5c-0.4,0-0.8,0.1-1,0.3C146.1,209.2,146,209.4,146,209.7z M147.2,200.9c0,1.1,0.4,1.7,1.2,1.7
		c0.4,0,0.6-0.1,0.8-0.4c0.2-0.3,0.3-0.7,0.3-1.3c0-1.1-0.4-1.7-1.1-1.7C147.6,199.2,147.2,199.8,147.2,200.9z"/>
	<path class="st7" d="M176.8,208.3h-4.6l-1.4-6.2c-0.1-0.3-0.2-0.8-0.3-1.6c-0.1-0.8-0.2-1.4-0.3-1.9c-0.1,0.4-0.1,0.9-0.3,1.6
		c-0.1,0.6-0.2,1.2-0.3,1.7c-0.1,0.5-0.6,2.7-1.4,6.4h-4.6l-3.5-14.3h3.7l1.6,7.2c0.4,1.6,0.6,2.8,0.7,3.8c0.1-0.7,0.2-1.6,0.5-2.7
		c0.2-1.1,0.4-2.1,0.6-2.8l1.3-5.4h3.6l1.2,5.4c0.2,0.9,0.4,1.9,0.6,3s0.4,2,0.4,2.5c0.1-0.7,0.3-2,0.7-3.8l1.6-7.2h3.7L176.8,208.3
		z"/>
	<path class="st7" d="M187.3,208.5c-1.8,0-3.3-0.5-4.3-1.5c-1-1-1.5-2.4-1.5-4.2c0-1.9,0.5-3.3,1.4-4.3c0.9-1,2.3-1.5,4-1.5
		c1.7,0,3,0.4,3.9,1.3s1.4,2.1,1.4,3.8v1.7h-6.8c0,0.6,0.3,1.1,0.7,1.5c0.4,0.4,1,0.5,1.7,0.5c0.7,0,1.3-0.1,1.9-0.2
		c0.6-0.1,1.2-0.3,1.8-0.7v2.7c-0.6,0.3-1.2,0.5-1.9,0.6C189,208.5,188.2,208.5,187.3,208.5z M187.1,199.7c-0.4,0-0.8,0.1-1.1,0.4
		s-0.5,0.7-0.5,1.3h3.3c0-0.5-0.2-1-0.5-1.3C188,199.8,187.6,199.7,187.1,199.7z"/>
	<path class="st7" d="M201.6,208.3l-0.7-1.5h-0.1c-0.5,0.6-1,1.1-1.6,1.3c-0.5,0.2-1.2,0.4-2.1,0.4c-1,0-1.9-0.3-2.5-0.9
		c-0.6-0.6-0.9-1.5-0.9-2.6c0-1.2,0.4-2.1,1.2-2.6s2-0.9,3.6-1l1.8-0.1v-0.2c0-0.9-0.4-1.4-1.3-1.4c-0.8,0-1.8,0.3-3.1,0.8l-1.1-2.5
		c1.3-0.7,2.9-1,4.9-1c1.4,0,2.5,0.4,3.3,1.1c0.8,0.7,1.2,1.7,1.2,2.9v7.3H201.6z M198.7,205.8c0.5,0,0.9-0.1,1.2-0.4
		c0.3-0.3,0.5-0.7,0.5-1.1v-0.9l-0.9,0c-1.3,0-1.9,0.5-1.9,1.4C197.6,205.5,198,205.8,198.7,205.8z"/>
	<path class="st7" d="M210.6,208.3h-3.8v-15.2h3.8V208.3z"/>
	<path class="st7" d="M218.7,205.5c0.5,0,1.1-0.1,1.8-0.4v2.8c-0.5,0.2-1,0.4-1.5,0.5c-0.5,0.1-1,0.1-1.6,0.1
		c-1.3,0-2.2-0.3-2.8-0.9c-0.6-0.6-0.8-1.6-0.8-2.9v-4.6h-1.3v-1.6l1.7-1.2l1-2.3h2.5v2.2h2.7v2.9h-2.7v4.3
		C217.7,205.2,218,205.5,218.7,205.5z"/>
	<path class="st7" d="M229.4,208.3v-6c0-1.5-0.4-2.2-1.3-2.2c-0.6,0-1.1,0.3-1.4,0.8c-0.3,0.5-0.4,1.4-0.4,2.6v4.9h-3.8v-15.2h3.8
		v2.2c0,1-0.1,2.1-0.2,3.3h0.2c0.4-0.6,0.8-1,1.3-1.2c0.5-0.2,1.1-0.4,1.7-0.4c1.2,0,2.2,0.4,2.9,1.1c0.7,0.7,1,1.7,1,3v7.2H229.4z"
		/>
</g>
<g>
	<g>
		<g>
			<circle class="st5" cx="115.8" cy="84.7" r="1.5"/>
			<circle class="st5" cx="106.4" cy="84.7" r="1.5"/>
			<path class="st5" d="M105,92.7l2.4-15.6h7.2l2.4,15.6h-0.1c-0.1,0.7-2.8,1.2-6,1.2C107.8,93.9,105.2,93.4,105,92.7L105,92.7z"/>
			<path class="st6" d="M113.4,83.4c0.1,0,0.1,0,0.2,0c0.7,0,1.3-0.6,1.4-1.5l-0.3,0c0,0.8-0.6,1.2-1.1,1.3c-0.5,0-1-0.3-1.1-1.3
				l-0.3,0C112.4,82.9,112.9,83.3,113.4,83.4z"/>
			<path class="st6" d="M108.3,83.4c0.1,0,0.1,0,0.2,0c0.7,0,1.3-0.6,1.4-1.5l-0.3,0c0,0.8-0.6,1.2-1.1,1.3c-0.5,0-1-0.3-1.1-1.3
				l-0.3,0C107.2,82.9,107.8,83.3,108.3,83.4z"/>
			<path class="st6" d="M111.8,90.2v-0.3c-1.4,0-3.1-0.8-3.9-2.2l-0.3,0.1C108.5,89.3,110.4,90.2,111.8,90.2z"/>
			<polygon class="st146" points="105.8,87.5 106.2,76.3 117.9,74.7 116,79.3 116.4,88.1 114.8,79.6 107.5,78.8 			"/>
			<polygon class="st6" points="110.4,86.9 112.6,86.9 111.4,81.8 111,81.8 112.2,86.5 110.4,86.5 			"/>
		</g>
		<polygon class="st26" points="111.1,124.9 114.5,161.4 121.2,161.4 117.4,158.4 116.9,124.8 112.8,122.6 		"/>
		<path class="st5" d="M126.2,119.4c0.4,0.7,1,2.8,0,2.8c-0.9,0.1-1.8,0.3-2.1-0.3c-0.1-0.2-0.1-0.2,0-0.4c0.3,0,0.6-0.4,0.4-0.5
			c-0.2,0-0.7,0-0.8,0.1c-0.2-0.1-0.2-0.4,0.2-0.7s0.2-0.5,0.2-1l0.4-0.8L126.2,119.4z"/>
		<path class="st26" d="M117,92.3c2.4,1.4,8.2,16.3,9.2,27.2l-2.2,0.1c-0.6-4.6-3.4-16.7-8.4-22.5L117,92.3z"/>
		<path class="st26" d="M105.2,125.1l-0.5,33.3l-3.8,3h6.7l3.4-36.4c0-1.6-0.4-2.9-2.7-2.9C106.6,122.2,105.2,122.9,105.2,125.1z"/>
		<g>
			<path class="st26" d="M105.2,125.1L105.2,125.1c-0.3-2.9-0.6-5.9-0.9-8.6l6.7,0.3v8.3H111l-3.1,33.4h-3.2l0.1-0.1L105.2,125.1z"
				/>
		</g>
		<path class="st7" d="M109.7,117.1h2.8v1.8h-2.8V117.1z M110.1,118.6h1.9v-1.1h-1.9V118.6z"/>
		<path class="st7" d="M109.8,118c0,0.1,0.1,0.1,0.1,0.1h0.7c0.1,0,0.1-0.1,0.1-0.1l0,0c0-0.1-0.1-0.1-0.1-0.1h-0.7
			C109.8,117.9,109.8,117.9,109.8,118L109.8,118z"/>
		<path class="st5" d="M95.9,119.4c-0.4,0.7-1,2.8,0,2.8c0.9,0.1,1.8,0.3,2.1-0.3c0.1-0.2,0.1-0.2,0-0.4c-0.3,0-0.6-0.4-0.4-0.5
			c0.2,0,0.7,0,0.8,0.1c0.2-0.1,0.2-0.4-0.2-0.7c-0.4-0.3-0.2-0.5-0.2-1l-0.4-0.8L95.9,119.4z"/>
		<path class="st26" d="M105.2,92.3c-2.4,1.4-8.2,16.3-9.2,27.2l2.2,0.1c0.6-4.6,3.4-16.7,8.4-22.5L105.2,92.3z"/>
		<path class="st26" d="M105.1,92.2h6h0h6c2.4,10.2,1.3,20-0.2,32.8h-5.8h0h-5.8C103.8,112.3,102.7,102.4,105.1,92.2z"/>
		<polygon class="st7" points="108.8,116.7 110.4,95.4 109.3,93.1 111.1,93.1 111.1,93.1 112.9,93.1 111.8,95.4 113.4,116.7 
			111.1,119.3 111.1,119.3 111.1,119.3 		"/>
	</g>
	<g>
		<g>
			<polygon class="st5" points="141.1,129.9 141.9,161.4 145.2,161.4 143.3,158.5 144.7,129.8 142.7,126.4 			"/>
		</g>
		<path class="st5" d="M129.1,120.7c-0.3,0.6-1.3,2.4-0.4,2.5c0.8,0,1.5,0.3,1.9-0.2c0.1-0.1,0.1-0.2,0-0.4c-0.3,0-0.5-0.3-0.3-0.5
			c0.2,0,0.6,0,0.7,0.1c0.2-0.1,0.2-0.4-0.2-0.6c-0.4-0.2-0.2-0.5-0.1-0.8l-0.4-0.7L129.1,120.7z"/>
		<path class="st26" d="M139.5,97.1c-2.1,1.3-9.5,14-10.4,23.6l1.5,0.1c0.5-4.1,4.9-15.9,9.4-20.9L139.5,97.1z"/>
		<path class="st5" d="M153.1,120.7c0.3,0.6,1.3,2.4,0.4,2.5c-0.8,0-1.5,0.3-1.9-0.2c-0.1-0.1-0.1-0.2,0-0.4c0.3,0,0.5-0.3,0.3-0.5
			c-0.2,0-0.6,0-0.7,0.1c-0.2-0.1-0.2-0.4,0.2-0.6s0.2-0.5,0.1-0.8l0.4-0.7L153.1,120.7z"/>
		<path class="st26" d="M142.7,97.1c2.1,1.3,9.5,14,10.4,23.6l-1.5,0.1c-0.5-4.1-4.9-15.9-9.4-20.9L142.7,97.1z"/>
		<g>
			<polygon class="st5" points="140.5,129.9 139.7,161.4 136.4,161.4 138.3,158.5 136.9,129.8 138.9,126.4 			"/>
			<g>
				<polygon class="st27" points="136.4,161.4 139.7,161.4 139.8,158.3 138.3,158.3 138.3,158.5 				"/>
			</g>
			<g>
				<polygon class="st27" points="145.2,161.4 141.9,161.4 141.8,158.3 143.3,158.3 143.3,158.5 				"/>
			</g>
		</g>
		<g>
			<path class="st26" d="M140.7,93.4c1.3,2.1,7.6,3,9.7,1.1c-2.6,0.3-2.7-1.8-1.3-7.4c1.5-7.3-5.3-10.2-8.4-10.2s-9.9,2.9-8.4,10.2
				c1.5,5.6,1.4,7.7-1.3,7.4C133.1,96.4,139.4,95.5,140.7,93.4z"/>
			<ellipse class="st5" cx="134" cy="87" rx="1.4" ry="1.4"/>
			<ellipse class="st5" cx="147.4" cy="87" rx="1.4" ry="1.4"/>
			<path class="st5" d="M141.9,79.1h-2.2c-4.3,0.5-6.3,2.5-6.3,6.8c0,3,1.5,5.5,3.6,6.6c3.3,1.8,2.4,2.8,2.1,3.6
				c0,0.5,0.7,1.2,1.7,1.2s1.7-0.6,1.7-1.2h0c-0.3-0.8-1.2-1.8,2.1-3.6c2.1-1.1,3.6-3.6,3.6-6.6C148.2,81.6,146.1,79.6,141.9,79.1z"
				/>
			<path class="st26" d="M140.4,77.6c3.4,0,6.5,1.7,7.6,3.6c0.3,0.7,1.4,1.5,2.2,1.1c-1.6,3.8-15.6,3.9-17.3,2.3
				c-0.9-0.5,0.5-2.8,1.2-3.7C135.1,79.5,137.9,77.6,140.4,77.6z"/>
			<path class="st6" d="M136.3,87.7C136.3,87.7,136.2,87.7,136.3,87.7c-0.7,0-1.3-0.5-1.3-1.3l0.3,0c0,0.7,0.5,1,0.9,1
				c0.5,0,1-0.2,1.1-0.9l0.3,0C137.5,87.3,136.9,87.7,136.3,87.7z"/>
			<path class="st6" d="M145.2,87.7c-0.6,0-1.2-0.4-1.3-1.2l0.3,0c0.1,0.7,0.6,1,1.1,0.9c0.5,0,1-0.4,0.9-1l0.3,0
				C146.5,87.1,145.9,87.6,145.2,87.7C145.3,87.7,145.2,87.7,145.2,87.7z"/>
			<path class="st6" d="M141.5,92.1c-0.4,0-0.8-0.1-0.9-0.3l0.2-0.1c0.1,0.1,0.6,0.2,1.1,0.1c0.3-0.1,0.9-0.3,0.9-0.9l0.3,0
				c0,0.6-0.4,1-1.2,1.2C141.9,92.1,141.7,92.1,141.5,92.1z"/>
			<path class="st6" d="M140.8,89.7l-2-0.3l0.4-0.2c1-0.4,1.5-2,1.5-2.7h0.2c0,0.7-0.5,2.2-1.3,2.8l1.3,0.2L140.8,89.7z"/>
		</g>
		<circle class="st7" cx="140.8" cy="118.1" r="1.2"/>
		<circle class="st34" cx="140.8" cy="118.1" r="0.7"/>
		<rect x="142.3" y="117.7" class="st7" width="1.8" height="0.8"/>
		<g>
			<path class="st7" d="M144.5,117.7v0.8h1c0-0.3-0.1-0.5-0.1-0.8H144.5z"/>
		</g>
		<path class="st26" d="M142.5,96.1h-1.7h0h-1.7c-3.4,9.6-3.1,23.6-3.5,40.1h5.2h0h5.2C145.7,119.6,145.9,105.6,142.5,96.1z"/>
		<polygon class="st7" points="143,96.2 142.4,95.1 140.8,96.1 139.2,95.1 138.6,96.2 139.7,97.6 140.8,113.8 140.8,113.9 
			140.8,113.9 140.8,113.9 140.8,113.9 140.8,113.9 140.8,113.8 141.9,97.6 		"/>
	</g>
	<g>
		<polygon class="st147" points="51.1,125.5 54.5,162 61.2,162 57.4,159 56.9,125.4 52.8,123.2 		"/>
		<path class="st5" d="M66.2,120c0.4,0.7,1,2.8,0,2.8c-0.9,0.1-1.8,0.3-2.1-0.3c-0.1-0.2-0.1-0.2,0-0.4c0.3,0,0.6-0.4,0.4-0.5
			c-0.2,0-0.7,0-0.8,0.1c-0.2-0.1-0.2-0.4,0.2-0.7c0.4-0.3,0.2-0.5,0.2-1l0.4-0.8L66.2,120z"/>
		<path class="st147" d="M55.2,93.7c2.4,1.4,10,16.3,11.1,27.2l-2.2,0.1c-0.6-4.6-3.4-16.7-8.4-22.5L55.2,93.7z"/>
		<path class="st147" d="M45.2,125.6L44.7,159l-3.8,3h6.7l3.4-36.4c0-1.6-0.4-2.9-2.7-2.9C46.6,122.7,45.2,123.5,45.2,125.6z"/>
		<g>
			<path class="st147" d="M45.2,125.6L45.2,125.6c-0.3-2.9-0.6-5.9-0.9-8.6l6.7,0.3v8.3H51l-3.1,33.4h-3.2l0.1-0.1L45.2,125.6z"/>
		</g>
		<path class="st7" d="M49.6,117.7h2.8v1.8h-2.8V117.7z M50.1,119.2H52V118h-1.9V119.2z"/>
		<path class="st7" d="M49.7,118.6c0,0.1,0.1,0.1,0.1,0.1h0.7c0.1,0,0.1-0.1,0.1-0.1l0,0c0-0.1-0.1-0.1-0.1-0.1h-0.7
			C49.8,118.5,49.7,118.5,49.7,118.6L49.7,118.6z"/>
		<path class="st5" d="M35.9,120c-0.4,0.7-1,2.8,0,2.8c0.9,0.1,1.8,0.3,2.1-0.3c0.1-0.2,0.1-0.2,0-0.4c-0.3,0-0.6-0.4-0.4-0.5
			c0.2,0,0.7,0,0.8,0.1c0.2-0.1,0.2-0.4-0.2-0.7s-0.2-0.5-0.2-1l-0.4-0.8L35.9,120z"/>
		<path class="st147" d="M47,93.7c-2.4,1.4-10,16.3-11.1,27.2l2.2,0.1c0.6-4.6,3.4-16.7,8.4-22.5L47,93.7z"/>
		<path class="st147" d="M47,92.9l8.3-0.1c2.4,10.2,3,20.1,1.5,32.8h-5.8h0h-5.9C43.3,112.8,44.6,103,47,92.9z"/>
		<polygon class="st7" points="48.7,92.8 53.5,92.8 51.1,102.2 		"/>
	</g>
	<g>
		<g>
			<g>
				<polygon class="st147" points="169.7,133.5 172.8,161.5 178.9,161.5 175.5,159.2 175,133.3 171.2,131.7 				"/>
				<path class="st5" d="M183.5,129.3c0.3,0.6,0.9,2.1,0,2.2c-0.8,0-1.6,0.2-1.9-0.2c-0.1-0.1-0.1-0.2,0-0.3c0.3,0,0.5-0.3,0.4-0.4
					c-0.2,0-0.6,0-0.8,0.1c-0.2-0.1-0.2-0.3,0.2-0.5c0.4-0.2,0.2-0.4,0.1-0.7l0.4-0.6L183.5,129.3z"/>
				<path class="st148" d="M175.1,108.5c2.1,1.1,7.4,12.5,8.4,20.8l-2,0.1c-0.6-3.5-3.1-12.8-7.7-17.2L175.1,108.5z"/>
				<path class="st5" d="M155.9,129.3c-0.3,0.6-0.9,2.1,0,2.2c0.8,0,1.6,0.2,1.9-0.2c0.1-0.1,0.1-0.2,0-0.3c-0.3,0-0.5-0.3-0.4-0.4
					c0.2,0,0.6,0,0.8,0.1c0.2-0.1,0.2-0.3-0.2-0.5c-0.4-0.2-0.2-0.4-0.1-0.7l-0.4-0.6L155.9,129.3z"/>
				<path class="st148" d="M164.3,108.5c-2.1,1.1-7.4,12.5-8.4,20.8l2,0.1c0.6-3.5,3.1-12.8,7.7-17.2L164.3,108.5z"/>
				<path class="st147" d="M164.4,133.6l-0.5,25.6l-3.4,2.3h6l3.1-27.9c0-1.2-0.3-2.2-2.5-2.2C165.6,131.4,164.4,132,164.4,133.6z"
					/>
				<path class="st148" d="M175.2,108.4L175.2,108.4c-0.1,0.5-2.5,1-5.5,1c0,0,0,0,0,0v0c0,0,0,0,0,0c0,0,0,0,0,0v0c0,0,0,0,0,0
					c-3,0-5.4-0.4-5.4-1h0c-2.2,7.8-1.2,15.4,0.2,25.2h5.3h0h5.3C176.3,123.8,177.4,116.2,175.2,108.4z"/>
				<path class="st7" d="M168.5,128.2c0,0.1,0.1,0.1,0.1,0.1h0.6c0.1,0,0.1-0.1,0.1-0.1l0,0c0-0.1-0.1-0.1-0.1-0.1h-0.6
					C168.5,128.1,168.5,128.2,168.5,128.2L168.5,128.2z"/>
				<path class="st28" d="M164.4,133.6L164.4,133.6c-0.3-2.2-0.6-4.3-0.8-6.3h6.1h0h6.1c-0.2,2-0.5,4.1-0.8,6.3h0l0.5,25.6l0.1,0.1
					h-3l-2.9-25.6l0,0h0h0l-2.9,25.6h-2.9l0.1-0.1L164.4,133.6z"/>
				<g>
					<rect x="165.4" y="127.8" class="st7" width="2.5" height="0.8"/>
					<g>
						<path class="st7" d="M164.8,127.8v0.8h-1.1c0-0.3-0.1-0.5-0.1-0.8H164.8z"/>
					</g>
				</g>
				<g>
					<path class="st7" d="M165.6,129.1L165.6,129.1l0.5-0.1v0.1h-0.4c0,0.7-0.5,1.7-1.7,2.4c0-0.1,0-0.1,0-0.2
						C165.2,130.7,165.6,129.8,165.6,129.1z"/>
				</g>
				<g>
					<rect x="171.5" y="127.8" class="st7" width="2.5" height="0.8"/>
					<g>
						<path class="st7" d="M174.5,127.8v0.8h1.1c0-0.3,0.1-0.5,0.1-0.8H174.5z"/>
					</g>
				</g>
				<g>
					<path class="st7" d="M173.7,129.1L173.7,129.1l-0.5-0.1v0.1h0.4c0,0.7,0.5,1.7,1.7,2.4c0-0.1,0-0.1,0-0.2
						C174.2,130.7,173.7,129.8,173.7,129.1z"/>
				</g>
				<path class="st7" d="M168.4,127.5h2.6v1.4h-2.6V127.5z M168.8,128.6h1.7v-0.9h-1.7V128.6z"/>
			</g>
			<path class="st26" d="M173.8,98.3c0,0-1.8,2.5-7.7,1.1v-1.7L173.8,98.3z"/>
		</g>
		<g>
			<ellipse class="st5" cx="174" cy="102.7" rx="1.4" ry="1.2"/>
			<ellipse class="st5" cx="165.4" cy="102.7" rx="1.4" ry="1.2"/>
			<path class="st5" d="M164.4,108.8l1.9-11.9l6.8,0.9l2,11h-0.1c-0.1,0.5-2.5,0.9-5.4,0.9C166.7,109.7,164.4,108.8,164.4,108.8z"/>
			<path class="st6" d="M171.5,102.4c0.1,0,0.1,0,0.2,0c0.5,0,1.1-0.4,1.1-1l-0.2,0c0,0.5-0.4,0.8-0.9,0.8c-0.4,0-0.8-0.2-0.8-0.9
				l-0.2,0C170.7,102,171.1,102.3,171.5,102.4z"/>
			<path class="st6" d="M167.4,102.4c0.1,0,0.1,0,0.2,0c0.5,0,1.1-0.4,1.1-1l-0.2,0c0,0.5-0.4,0.8-0.9,0.8c-0.4,0-0.8-0.2-0.8-0.9
				l-0.2,0C166.6,102,167,102.3,167.4,102.4z"/>
			<path class="st6" d="M169.7,107.3v-0.2c-1,0-2.4-0.5-2.9-1.4l-0.2,0.1C167.2,106.8,168.6,107.3,169.7,107.3z"/>
			<path class="st6" d="M169,105.2c0,0,1.4,0.4,1.8,0.1c0.6-0.5-0.9-4-0.9-4l-0.3,0.1c0,0,1.3,3.5,1,3.7c-0.4,0.3-1.6-0.1-1.6-0.1
				V105.2z"/>
		</g>
		<path class="st29" d="M174,99.1c0.7-0.6,1.3-1.7,1.6-3l-10.1-0.5l-0.1,7.9l0.8-4.6c0.7-0.4,1-0.9,1.2-1.8c0.4,1.5,2.5,2.7,5.5,2.6
			l0.9,2.9L174,99.1z"/>
	</g>
	<polygon class="st5" points="47,92.9 45.6,77.9 56.5,76.5 55.4,92.8 	"/>
	<circle class="st5" cx="46.2" cy="85.3" r="1.5"/>
	<circle class="st5" cx="55.9" cy="85.3" r="1.5"/>
	<g>
		<path class="st6" d="M48.5,84.5c-0.1,0-0.1,0-0.2,0c-0.6,0-1.3-0.6-1.3-1.5l0.3,0c0,0.7,0.5,1.2,1,1.2c0.4,0,0.9-0.3,1-1.3l0.3,0
			C49.5,84,49,84.4,48.5,84.5z"/>
		<path class="st6" d="M53.4,84.5c-0.1,0-0.1,0-0.2,0c-0.6,0-1.3-0.6-1.3-1.5l0.3,0c0,0.7,0.5,1.2,1,1.2c0.4,0,0.9-0.3,1-1.3l0.3,0
			C54.5,84,53.9,84.4,53.4,84.5z"/>
		<path class="st6" d="M50.1,91v-0.3c1.3,0,3-0.7,3.7-2.1l0.3,0.1C53.3,90.2,51.5,91,50.1,91z"/>
		<polygon class="st6" points="51.4,87.9 49.3,87.9 50.5,82.9 50.8,83 49.7,87.5 51.4,87.5 		"/>
	</g>
	<path class="st30" d="M56.9,79.7c0.8-1,1.3-2.7,1.3-4.6l-13.8,2.4l2.3,10.6l-0.3-6.5c0.8-0.7,1-1.4,1.1-2.9
		c0.9,1.9,4.2,2.8,8.1,1.8l0.2,6.8L56.9,79.7z"/>
	<g>
		<g>
			<g>
				<polygon class="st5" points="76.1,130.5 76.9,162 80.2,162 78.3,159.1 79.7,130.4 77.7,126.9 				"/>
			</g>
			<path class="st5" d="M64.1,121.2c-0.3,0.6-1.3,2.4-0.4,2.5c0.8,0,1.5,0.3,1.9-0.2c0.1-0.1,0.1-0.2,0-0.4c-0.3,0-0.5-0.3-0.3-0.5
				c0.2,0,0.6,0,0.7,0.1c0.2-0.1,0.2-0.4-0.2-0.6s-0.2-0.5-0.1-0.8l-0.4-0.7L64.1,121.2z"/>
			<path class="st147" d="M74.5,97.6c-2.1,1.3-9.5,14-10.4,23.6l1.5,0.1c0.5-4.1,4.9-15.9,9.4-20.9L74.5,97.6z"/>
			<path class="st5" d="M88.1,121.2c0.3,0.6,1.3,2.4,0.4,2.5c-0.8,0-1.5,0.3-1.9-0.2c-0.1-0.1-0.1-0.2,0-0.4c0.3,0,0.5-0.3,0.3-0.5
				c-0.2,0-0.6,0-0.7,0.1c-0.2-0.1-0.2-0.4,0.2-0.6s0.2-0.5,0.1-0.8l0.4-0.7L88.1,121.2z"/>
			<path class="st147" d="M77.7,97.6c2.1,1.3,9.5,14,10.4,23.6l-1.5,0.1c-0.5-4.1-4.9-15.9-9.4-20.9L77.7,97.6z"/>
			<g>
				<polygon class="st5" points="75.5,130.5 74.7,162 71.4,162 73.3,159.1 71.9,130.4 73.9,126.9 				"/>
				<g>
					<polygon class="st27" points="71.4,162 74.7,162 74.8,158.9 73.3,158.9 73.3,159.1 					"/>
				</g>
				<g>
					<polygon class="st27" points="80.2,162 76.9,162 76.8,158.9 78.3,158.9 78.3,159.1 					"/>
				</g>
			</g>
			<circle class="st7" cx="75.8" cy="118.7" r="1.2"/>
			<circle class="st34" cx="75.8" cy="118.7" r="0.7"/>
			<rect x="77.4" y="118.3" class="st7" width="1.8" height="0.8"/>
			<g>
				<path class="st7" d="M79.5,118.3v0.8h1c0-0.3-0.1-0.5-0.1-0.8H79.5z"/>
			</g>
			<path class="st147" d="M77.6,96.6h-1.7h0h-1.7c-3.4,9.6-3.1,23.6-3.5,40.1h5.2h0H81C80.7,120.2,80.9,106.2,77.6,96.6z"/>
			<polygon class="st7" points="78,96.7 77.4,95.7 75.8,96.6 74.3,95.7 73.6,96.7 74.7,98.1 75.8,114.3 75.8,114.4 75.8,114.5 
				75.8,114.5 75.8,114.5 75.8,114.4 75.8,114.3 76.9,98.1 			"/>
		</g>
		<g>
			<path class="st30" d="M75.8,93.9c1.2,2.1,7.5,2.9,9.6,1.1c-2.6,0.3-2.7-1.8-1.2-7.3c1.5-7.2-5.2-10-8.3-10c-3.1,0-9.8,2.9-8.3,10
				c1.5,5.5,1.3,7.6-1.2,7.3C68.3,96.9,74.6,96,75.8,93.9z"/>
			<circle class="st5" cx="69.2" cy="87.6" r="1.4"/>
			<circle class="st5" cx="82.5" cy="87.6" r="1.4"/>
			<path class="st5" d="M77,79.8h-2.1c-4.2,0.5-6.2,2.5-6.2,6.7c0,3,1.5,5.4,3.5,6.5c3.3,1.8,2.6,2.8,2.3,3.6L76,98l1.5-1.5
				c-0.3-0.8-1.1-1.8,2.3-3.6c2-1.1,3.5-3.5,3.5-6.5C83.2,82.3,81.2,80.3,77,79.8z"/>
			<path class="st30" d="M75.6,78.3c3.4,0,6.4,1.6,7.5,3.6c0.3,0.7,1.4,1.4,2.2,1.1c-1.6,3.7-15.4,3.9-17.1,2.3
				c-0.9-0.5,0.5-2.7,1.2-3.7C70.3,80.3,73.1,78.4,75.6,78.3z"/>
			<path class="st27" d="M71.5,88.3C71.4,88.3,71.4,88.3,71.5,88.3c-0.7,0-1.3-0.5-1.3-1.3l0.3,0c0,0.6,0.5,1,0.9,1
				c0.5,0,1-0.2,1.1-0.9l0.3,0C72.6,87.9,72,88.3,71.5,88.3z"/>
			<path class="st27" d="M80.3,88.3c-0.6,0-1.2-0.4-1.3-1.2l0.3,0c0.1,0.7,0.6,1,1.1,0.9c0.5,0,0.9-0.4,0.9-1l0.3,0
				C81.6,87.8,81,88.2,80.3,88.3C80.4,88.3,80.3,88.3,80.3,88.3z"/>
			<path class="st27" d="M76.7,92.6c-0.4,0-0.8-0.1-0.9-0.3l0.2-0.1c0.1,0.1,0.6,0.2,1.1,0.1c0.3-0.1,0.9-0.3,0.9-0.9l0.3,0
				c0,0.6-0.4,1-1.1,1.2C77,92.6,76.8,92.6,76.7,92.6z"/>
			<path class="st27" d="M75.9,90.2l-2-0.3l0.4-0.2c1-0.4,1.5-2,1.5-2.7H76c0,0.7-0.5,2.1-1.3,2.7L76,90L75.9,90.2z"/>
		</g>
	</g>
	<g>
		<g>
			<path class="st7" d="M217.7,126.1c-2.7,1.8-3.4,5.4-1.7,8.1c1.8,2.7,5.4,3.4,8.1,1.6l9.7-6.4c2.7-1.8,3.4-5.4,1.7-8.1
				c-1.8-2.7-5.4-3.4-8.1-1.6L217.7,126.1z"/>
			
				<ellipse transform="matrix(0.8337 -0.5523 0.5523 0.8337 -32.0004 150.2156)" class="st5" cx="233.4" cy="128.2" rx="0.7" ry="0.7"/>
			
				<ellipse transform="matrix(0.8337 -0.5523 0.5523 0.8337 -28.5714 146.0859)" class="st5" cx="228.2" cy="120.5" rx="0.7" ry="0.7"/>
			<path class="st5" d="M233.1,128.5c2.2-1.4,2.8-4.4,1.3-6.5c-1.4-2.2-4.4-2.8-6.6-1.3s-2.8,4.4-1.3,6.5
				C228,129.3,231,129.9,233.1,128.5z"/>
			<g>
				<ellipse transform="matrix(0.8337 -0.5523 0.5523 0.8337 -31.488 147.1571)" class="st7" cx="228.6" cy="125.9" rx="1" ry="1"/>
				
					<ellipse transform="matrix(0.8337 -0.5523 0.5523 0.8337 -31.5064 147.14)" class="st9" cx="228.5" cy="125.9" rx="0.9" ry="0.9"/>
				
					<ellipse transform="matrix(0.8337 -0.5523 0.5523 0.8337 -31.5827 147.0747)" class="st7" cx="228.4" cy="126" rx="0.4" ry="0.4"/>
				<path class="st7" d="M227.1,126.8c-0.4-0.5-0.4-0.7-0.1-0.9c0.3-0.2,0.8-0.1,0.9,0.1l0.2,0.3l0.2,0.3c0.1,0.1,0,0.6-0.3,0.8
					C227.7,127.4,227.5,127.3,227.1,126.8z M227.9,127.1c0.3-0.2,0.3-0.5,0.2-0.6l-0.2-0.2l-0.2-0.2c-0.1-0.1-0.4-0.2-0.7,0
					c-0.1,0.1-0.1,0.2,0.2,0.7C227.7,127.1,227.8,127.2,227.9,127.1z"/>
				<path class="st7" d="M228.2,125.8L228.2,125.8c0.1-0.1,0.3-0.1,0.4,0.1c0.1,0.1,0,0.3-0.1,0.4l0,0c-0.1,0.1,0,0.2-0.2,0.3
					c-0.1,0.1-0.2,0-0.2,0l-0.3-0.5c0,0-0.1-0.1,0.1-0.2C228,125.7,228.1,125.8,228.2,125.8z"/>
			</g>
			<path class="st6" d="M232.2,123c0,0.1,0.1,0.2,0.1,0.3c0.2,0.4,0.6,0.5,0.9,0.5c0.3,0,0.6-0.2,0.7-0.5c0.2-0.3,0.1-0.7-0.1-1
				c0,0-0.1,0-0.1,0c0,0,0,0.1,0,0.1c0.2,0.3,0.2,0.6,0.1,0.8c-0.1,0.2-0.4,0.4-0.6,0.4c-0.3,0-0.6-0.1-0.8-0.4
				c-0.1-0.2-0.1-0.4-0.1-0.5c0-0.1,0.1-0.1,0.2-0.2c0.2,0,0.3,0.1,0.5,0.3c0,0,0.1,0,0.1,0c0,0,0-0.1,0-0.1
				c-0.2-0.4-0.5-0.4-0.6-0.4c-0.2,0-0.3,0.1-0.4,0.2C232.2,122.8,232.2,122.9,232.2,123z"/>
			<g>
				<path class="st9" d="M224.9,130.8c-0.2-0.2-0.4-0.5-0.6-0.8c-0.8-1.2-1.2-2.7-1.3-4.3c0-1.3,0.2-2.6,0.8-3.7l0.6-0.4
					c-0.7,1.1-1.1,2.5-1.1,4c0,2.1,0.9,4.1,2.2,5.2c2.2,0.5,4.2,0.6,5.7,0.2l-0.7,0.5c-3.8,0.6-9.6-1.3-13.9-4.6
					c0.1-0.1,0.1-0.2,0.2-0.2C219.2,128.6,222.1,130,224.9,130.8z"/>
			</g>
		</g>
		<path class="st6" d="M232.3,126.4c0.1,0.2,0.3,0.3,0.4,0.3c0.2,0,0.4,0,0.6-0.1c0,0,0.1-0.1,0-0.1c0,0-0.1-0.1-0.1,0
			c-0.3,0.2-0.7,0.1-0.8-0.1c-0.1-0.1-0.1-0.3-0.1-0.4c0-0.2,0.1-0.3,0.3-0.4c0,0,0.1-0.1,0-0.1c0,0-0.1-0.1-0.1,0
			C232.1,125.7,232.1,126.1,232.3,126.4z"/>
		<path class="st6" d="M229.5,122.2c0.1,0.2,0.3,0.3,0.4,0.3c0.2,0,0.4,0,0.6-0.1c0,0,0.1-0.1,0-0.1c0,0-0.1-0.1-0.1,0
			c-0.3,0.2-0.7,0.1-0.8-0.1c-0.1-0.2-0.2-0.6,0.2-0.8c0,0,0.1-0.1,0-0.1s-0.1-0.1-0.1,0C229.3,121.4,229.3,121.9,229.5,122.2z"/>
	</g>
	<g>
		<rect x="220.7" y="148.8" transform="matrix(0.866 -0.5 0.5 0.866 -43.6961 135.2785)" class="st7" width="19.7" height="0.8"/>
		<g>
			<rect x="215.4" y="154" transform="matrix(0.866 -0.5 0.5 0.866 -47.315 131.6585)" class="st7" width="13.2" height="0.3"/>
			<rect x="215.4" y="153.9" class="st7" width="13.2" height="0.3"/>
			
				<rect x="221.9" y="147.4" transform="matrix(0.4999 -0.8661 0.8661 0.4999 -22.3858 269.3438)" class="st7" width="0.3" height="13.2"/>
			
				<rect x="221.9" y="147.4" transform="matrix(0.8659 -0.5002 0.5002 0.8659 -47.2717 131.7126)" class="st7" width="0.3" height="13.2"/>
			<rect x="221.9" y="147.4" class="st7" width="0.3" height="13.2"/>
			<rect x="215.5" y="153.9" transform="matrix(0.5 -0.866 0.866 0.5 -22.3444 269.382)" class="st7" width="13.2" height="0.3"/>
		</g>
		<path class="st7" d="M215.3,158c-2.2-3.8-0.9-8.6,2.9-10.7c3.8-2.2,8.6-0.9,10.7,2.9c2.2,3.8,0.9,8.6-2.9,10.7
			C222.2,163,217.4,161.8,215.3,158z M225.2,159.5c3-1.7,4-5.6,2.3-8.5c-1.7-3-5.6-4-8.5-2.3s-4,5.6-2.3,8.5
			C218.4,160.2,222.2,161.2,225.2,159.5z"/>
		<path class="st9" d="M216.1,157.5c-1.9-3.3-0.8-7.5,2.5-9.4c3.3-1.9,7.5-0.8,9.4,2.5c1.9,3.3,0.8,7.5-2.5,9.4
			C222.2,161.9,218,160.8,216.1,157.5z M225.2,159.5c3-1.7,4-5.6,2.3-8.5c-1.7-3-5.6-4-8.5-2.3s-4,5.6-2.3,8.5
			C218.4,160.2,222.2,161.2,225.2,159.5z"/>
		<ellipse transform="matrix(0.866 -0.5 0.5 0.866 -47.2973 131.6748)" class="st9" cx="222.1" cy="154.1" rx="2" ry="2"/>
		<ellipse transform="matrix(0.866 -0.5 0.5 0.866 -47.296 131.6749)" class="st7" cx="222.1" cy="154.1" rx="1.6" ry="1.6"/>
	</g>
	<g>
		<rect x="235.1" y="139.3" transform="matrix(0.5 -0.866 0.866 0.5 -11.4658 278.4936)" class="st7" width="0.8" height="19.7"/>
		<g>
			
				<rect x="243.9" y="147.5" transform="matrix(0.4999 -0.8661 0.8661 0.4999 -11.4434 288.4221)" class="st7" width="0.3" height="13.2"/>
			<rect x="237.4" y="153.9" class="st7" width="13.2" height="0.3"/>
			<rect x="237.4" y="153.9" transform="matrix(0.866 -0.5 0.5 0.866 -44.3356 142.6464)" class="st7" width="13.2" height="0.3"/>
			<rect x="237.4" y="153.9" transform="matrix(0.5 -0.866 0.866 0.5 -11.4031 288.3179)" class="st7" width="13.2" height="0.3"/>
			<rect x="243.8" y="147.4" class="st7" width="0.3" height="13.2"/>
			
				<rect x="243.8" y="147.4" transform="matrix(0.8659 -0.5002 0.5002 0.8659 -44.3435 142.6636)" class="st7" width="0.3" height="13.2"/>
		</g>
		<path class="st7" d="M240,160.9c-3.8-2.2-5-7-2.9-10.7c2.2-3.8,7-5,10.7-2.9c3.8,2.2,5,7,2.9,10.7
			C248.6,161.8,243.8,163,240,160.9z M249.4,157.2c1.7-3,0.7-6.8-2.3-8.5s-6.8-0.7-8.5,2.3c-1.7,3-0.7,6.8,2.3,8.5
			C243.8,161.2,247.6,160.2,249.4,157.2z"/>
		<path class="st9" d="M240.5,160c-3.3-1.9-4.4-6.1-2.5-9.4c1.9-3.3,6.1-4.4,9.4-2.5c3.3,1.9,4.4,6.1,2.5,9.4
			C248,160.8,243.8,161.9,240.5,160z M249.4,157.2c1.7-3,0.7-6.8-2.3-8.5s-6.8-0.7-8.5,2.3c-1.7,3-0.7,6.8,2.3,8.5
			C243.8,161.2,247.6,160.2,249.4,157.2z"/>
		<ellipse transform="matrix(0.5 -0.866 0.866 0.5 -11.4586 288.344)" class="st9" cx="244" cy="154.1" rx="2" ry="2"/>
		<ellipse transform="matrix(0.5 -0.866 0.866 0.5 -11.4576 288.3411)" class="st7" cx="244" cy="154.1" rx="1.6" ry="1.6"/>
	</g>
	<path class="st9" d="M228.4,110.4c1.7,0.2,4.1,0.3,6.7,0.3c2.6,0,4.9-0.1,6.6-0.3l-6.7,18.3L228.4,110.4z"/>
	<path class="st34" d="M241.7,110.4c1.2,1.3,2.9,2.9,4.9,4.6c2,1.7,3.9,3.1,5.3,4l-16.9,9.7L241.7,110.4z"/>
	<path class="st43" d="M251.9,131.7l-16.9-3l16.9-9.7c0.1,1.7,0.4,4.1,0.8,6.7c0.2,0.9,0.4,2,0.6,2.8L251.9,131.7z"/>
	<g>
		<path class="st43" d="M236,131.7c0,0,0.1,0,0.1,0c0.2-0.1,0.3-0.3,0.3-0.6l-7.6-20.8c-0.1-0.2-0.3-0.3-0.6-0.3
			c-0.2,0.1-0.3,0.3-0.3,0.6l7.6,20.8C235.6,131.6,235.8,131.7,236,131.7z"/>
		<path class="st43" d="M234.1,131.7c0.2,0,0.3-0.1,0.4-0.3l7.6-20.8c0.1-0.2,0-0.5-0.3-0.6c-0.2-0.1-0.5,0-0.6,0.3l-7.6,20.8
			c-0.1,0.2,0,0.5,0.3,0.6C234,131.7,234,131.7,234.1,131.7z"/>
		<path class="st43" d="M232.6,130.5c0.1,0,0.1,0,0.2-0.1l19.2-11.1c0.2-0.1,0.3-0.4,0.2-0.6c-0.1-0.2-0.4-0.3-0.6-0.2l-19.2,11.1
			c-0.2,0.1-0.3,0.4-0.2,0.6C232.3,130.4,232.5,130.5,232.6,130.5z"/>
	</g>
	<g>
		<path class="st9" d="M236,131.3C236,131.3,236,131.3,236,131.3c0.1,0,0.1-0.1,0.1-0.1l-7.6-20.8c0-0.1-0.1-0.1-0.1-0.1
			c0,0-0.1,0.1-0.1,0.1L236,131.3C235.9,131.3,235.9,131.3,236,131.3z"/>
		<path class="st9" d="M234.1,131.3C234.1,131.3,234.1,131.3,234.1,131.3l7.7-20.9c0,0,0-0.1-0.1-0.1c-0.1,0-0.1,0-0.1,0.1
			l-7.6,20.8C234,131.3,234,131.3,234.1,131.3C234,131.3,234.1,131.3,234.1,131.3z"/>
		<path class="st9" d="M232.6,130.1C232.6,130.1,232.7,130.1,232.6,130.1l19.2-11.1c0,0,0.1-0.1,0-0.1c0,0-0.1-0.1-0.1,0l-19.2,11.1
			C232.5,130,232.5,130,232.6,130.1C232.6,130.1,232.6,130.1,232.6,130.1z"/>
	</g>
	<path class="st9" d="M212.7,128.4v5c0,5.5,6.3,11.5,13.9,11.5h12.9c7.6,0,13.9-6,13.9-11.5v-5H212.7z"/>
	<g>
		<path class="st7" d="M212.7,128.8c0,0.8,0.8,1.4,1.9,1.4c1,0,1.8-0.6,1.8-1.4c0,0.8,0.8,1.4,1.8,1.4s1.8-0.6,1.8-1.4
			c0,0.8,0.8,1.4,1.8,1.4c1,0,1.8-0.6,1.8-1.4c0,0.8,0.8,1.4,1.8,1.4s1.8-0.6,1.8-1.4c0,0.8,0.8,1.4,1.8,1.4c1,0,1.8-0.6,1.8-1.4
			c0,0.8,0.8,1.4,1.8,1.4c1,0,1.8-0.6,1.8-1.4c0,0.8,0.8,1.4,1.8,1.4c1,0,1.8-0.6,1.8-1.4c0,0.8,0.8,1.4,1.8,1.4
			c1,0,1.8-0.6,1.8-1.4c0,0.8,0.8,1.4,1.8,1.4s1.8-0.6,1.8-1.4c0,0.8,0.8,1.4,1.8,1.4c1,0,1.8-0.6,1.8-1.4c0,0.8,0.8,1.4,1.8,1.4
			c1,0,1.8-0.6,1.9-1.4h0v0c0,0,0,0,0,0l0,0v-0.4h-40.7L212.7,128.8z M252.2,129.3c0-0.1,0.1-0.2,0.2-0.2s0.2,0.1,0.2,0.2
			c0,0.1-0.1,0.2-0.2,0.2S252.2,129.4,252.2,129.3z M251.3,129.6c0-0.1,0.1-0.2,0.2-0.2c0.1,0,0.2,0.1,0.2,0.2s-0.1,0.2-0.2,0.2
			C251.4,129.8,251.3,129.7,251.3,129.6z M250.4,129.3c0-0.1,0.1-0.2,0.2-0.2c0.1,0,0.2,0.1,0.2,0.2c0,0.1-0.1,0.2-0.2,0.2
			C250.5,129.5,250.4,129.4,250.4,129.3z M248.5,129.3c0-0.1,0.1-0.2,0.2-0.2c0.1,0,0.2,0.1,0.2,0.2c0,0.1-0.1,0.2-0.2,0.2
			C248.6,129.5,248.5,129.4,248.5,129.3z M247.6,129.6c0-0.1,0.1-0.2,0.2-0.2c0.1,0,0.2,0.1,0.2,0.2s-0.1,0.2-0.2,0.2
			C247.7,129.8,247.6,129.7,247.6,129.6z M246.7,129.3c0-0.1,0.1-0.2,0.2-0.2s0.2,0.1,0.2,0.2c0,0.1-0.1,0.2-0.2,0.2
			S246.7,129.4,246.7,129.3z M244.8,129.3c0-0.1,0.1-0.2,0.2-0.2c0.1,0,0.2,0.1,0.2,0.2c0,0.1-0.1,0.2-0.2,0.2
			C244.9,129.5,244.8,129.4,244.8,129.3z M243.9,129.6c0-0.1,0.1-0.2,0.2-0.2c0.1,0,0.2,0.1,0.2,0.2s-0.1,0.2-0.2,0.2
			C244,129.8,243.9,129.7,243.9,129.6z M243,129.3c0-0.1,0.1-0.2,0.2-0.2c0.1,0,0.2,0.1,0.2,0.2c0,0.1-0.1,0.2-0.2,0.2
			C243.1,129.5,243,129.4,243,129.3z M241.1,129.3c0-0.1,0.1-0.2,0.2-0.2c0.1,0,0.2,0.1,0.2,0.2c0,0.1-0.1,0.2-0.2,0.2
			C241.2,129.5,241.1,129.4,241.1,129.3z M240.2,129.6c0-0.1,0.1-0.2,0.2-0.2c0.1,0,0.2,0.1,0.2,0.2s-0.1,0.2-0.2,0.2
			C240.3,129.8,240.2,129.7,240.2,129.6z M239.3,129.3c0-0.1,0.1-0.2,0.2-0.2c0.1,0,0.2,0.1,0.2,0.2c0,0.1-0.1,0.2-0.2,0.2
			C239.4,129.5,239.3,129.4,239.3,129.3z M237.4,129.3c0-0.1,0.1-0.2,0.2-0.2s0.2,0.1,0.2,0.2c0,0.1-0.1,0.2-0.2,0.2
			S237.4,129.4,237.4,129.3z M236.5,129.6c0-0.1,0.1-0.2,0.2-0.2c0.1,0,0.2,0.1,0.2,0.2s-0.1,0.2-0.2,0.2
			C236.6,129.8,236.5,129.7,236.5,129.6z M235.6,129.3c0-0.1,0.1-0.2,0.2-0.2c0.1,0,0.2,0.1,0.2,0.2c0,0.1-0.1,0.2-0.2,0.2
			C235.7,129.5,235.6,129.4,235.6,129.3z M233.8,129.3c0-0.1,0.1-0.2,0.2-0.2c0.1,0,0.2,0.1,0.2,0.2c0,0.1-0.1,0.2-0.2,0.2
			C233.8,129.5,233.8,129.4,233.8,129.3z M232.8,129.6c0-0.1,0.1-0.2,0.2-0.2c0.1,0,0.2,0.1,0.2,0.2s-0.1,0.2-0.2,0.2
			C232.9,129.8,232.8,129.7,232.8,129.6z M231.9,129.3c0-0.1,0.1-0.2,0.2-0.2c0.1,0,0.2,0.1,0.2,0.2c0,0.1-0.1,0.2-0.2,0.2
			C232,129.5,231.9,129.4,231.9,129.3z M230.1,129.3c0-0.1,0.1-0.2,0.2-0.2c0.1,0,0.2,0.1,0.2,0.2c0,0.1-0.1,0.2-0.2,0.2
			C230.1,129.5,230.1,129.4,230.1,129.3z M229.1,129.6c0-0.1,0.1-0.2,0.2-0.2c0.1,0,0.2,0.1,0.2,0.2s-0.1,0.2-0.2,0.2
			C229.2,129.8,229.1,129.7,229.1,129.6z M228.2,129.3c0-0.1,0.1-0.2,0.2-0.2c0.1,0,0.2,0.1,0.2,0.2c0,0.1-0.1,0.2-0.2,0.2
			C228.3,129.5,228.2,129.4,228.2,129.3z M226.4,129.3c0-0.1,0.1-0.2,0.2-0.2c0.1,0,0.2,0.1,0.2,0.2c0,0.1-0.1,0.2-0.2,0.2
			C226.4,129.5,226.4,129.4,226.4,129.3z M225.4,129.6c0-0.1,0.1-0.2,0.2-0.2c0.1,0,0.2,0.1,0.2,0.2s-0.1,0.2-0.2,0.2
			C225.5,129.8,225.4,129.7,225.4,129.6z M224.5,129.3c0-0.1,0.1-0.2,0.2-0.2c0.1,0,0.2,0.1,0.2,0.2c0,0.1-0.1,0.2-0.2,0.2
			C224.6,129.5,224.5,129.4,224.5,129.3z M222.7,129.3c0-0.1,0.1-0.2,0.2-0.2s0.2,0.1,0.2,0.2c0,0.1-0.1,0.2-0.2,0.2
			S222.7,129.4,222.7,129.3z M221.7,129.6c0-0.1,0.1-0.2,0.2-0.2c0.1,0,0.2,0.1,0.2,0.2s-0.1,0.2-0.2,0.2
			C221.8,129.8,221.7,129.7,221.7,129.6z M220.8,129.3c0-0.1,0.1-0.2,0.2-0.2c0.1,0,0.2,0.1,0.2,0.2c0,0.1-0.1,0.2-0.2,0.2
			C220.9,129.5,220.8,129.4,220.8,129.3z M219,129.3c0-0.1,0.1-0.2,0.2-0.2c0.1,0,0.2,0.1,0.2,0.2c0,0.1-0.1,0.2-0.2,0.2
			C219,129.5,219,129.4,219,129.3z M218,129.6c0-0.1,0.1-0.2,0.2-0.2c0.1,0,0.2,0.1,0.2,0.2s-0.1,0.2-0.2,0.2
			C218.1,129.8,218,129.7,218,129.6z M217.1,129.3c0-0.1,0.1-0.2,0.2-0.2c0.1,0,0.2,0.1,0.2,0.2c0,0.1-0.1,0.2-0.2,0.2
			C217.2,129.5,217.1,129.4,217.1,129.3z M215.3,129.3c0-0.1,0.1-0.2,0.2-0.2c0.1,0,0.2,0.1,0.2,0.2c0,0.1-0.1,0.2-0.2,0.2
			C215.3,129.5,215.3,129.4,215.3,129.3z M214.3,129.6c0-0.1,0.1-0.2,0.2-0.2c0.1,0,0.2,0.1,0.2,0.2s-0.1,0.2-0.2,0.2
			C214.4,129.8,214.3,129.7,214.3,129.6z M213.4,129.3c0-0.1,0.1-0.2,0.2-0.2c0.1,0,0.2,0.1,0.2,0.2c0,0.1-0.1,0.2-0.2,0.2
			C213.5,129.5,213.4,129.4,213.4,129.3z"/>
	</g>
	
		<linearGradient id="SVGID_2_" gradientUnits="userSpaceOnUse" x1="536.9484" y1="143.4763" x2="536.9484" y2="133.4109" gradientTransform="matrix(-1 0 0 1 782.2528 0)">
		<stop  offset="0" style="stop-color:#FFFFFF"/>
		<stop  offset="1" style="stop-color:#D8E2E7"/>
	</linearGradient>
	<path style="fill:url(#SVGID_2_);" d="M251.5,133.4c0,4.2-4.5,10.1-12.5,10.1c3.5-1.1,6.7-6.2,6.7-10.1H251.5z"/>
	<path class="st7" d="M225.7,146.1h2.3c0.4,0,0.7-0.3,0.7-0.7c0-0.4-0.3-0.7-0.7-0.7h-2.3c-0.4,0-2.6-0.1-3.9-2.7l-10.3-21.3
		c-1.5-3.3-3.8-3.7-4.7-3.7h-2.4c-0.4,0-0.7,0.3-0.7,0.7c0,0.4,0.3,0.7,0.7,0.7h2.4c0.6,0,2.3,0.3,3.4,2.9l10.3,21.4
		C221.8,145.2,224.1,146.1,225.7,146.1z"/>
	<rect x="227" y="144.2" class="st43" width="12.4" height="2.3"/>
	<rect x="227" y="144.7" class="st34" width="12.4" height="0.6"/>
	<g>
		<g>
			<g>
				<g>
					<polygon class="st5" points="192.7,142.2 192.1,161.4 189.7,161.4 191.1,159.7 190,142.1 191.5,140.1 					"/>
				</g>
				<g>
					<polygon class="st5" points="193.1,142.2 193.6,161.4 196.1,161.4 194.7,159.7 195.7,142.1 194.2,140.1 					"/>
					<g>
						<polygon class="st27" points="196.1,161.4 193.6,161.4 193.6,159.5 194.7,159.5 194.7,159.7 						"/>
					</g>
					<g>
						<polygon class="st27" points="189.7,161.4 192.1,161.4 192.2,159.5 191.1,159.5 191.1,159.7 						"/>
					</g>
				</g>
				<path class="st148" d="M191.6,121.6h1.2h0h1.2c2.4,5.8,2.3,14.4,2.5,24.4h-3.8h0h-3.8C189.3,136,189.2,127.4,191.6,121.6z"/>
				<g>
					<ellipse class="st5" cx="197.8" cy="116.1" rx="1" ry="0.9"/>
					<ellipse class="st5" cx="188.1" cy="116.1" rx="1" ry="0.9"/>
					<path class="st5" d="M192.1,111.3h1.6c3.1,0.3,4.5,1.5,4.5,4.1c0,1.9-1.1,3.3-2.6,4c-2.4,1.1-1.7,1.7-1.5,2.2
						c0,0.3-0.5,0.7-1.2,0.7s-1.2-0.4-1.2-0.7h0c0.2-0.5,0.9-1.1-1.5-2.2c-1.5-0.7-2.6-2.2-2.6-4C187.6,112.8,189,111.5,192.1,111.3
						z"/>
					<path class="st6" d="M196.1,116.5C196.2,116.5,196.2,116.5,196.1,116.5c0.5,0,0.9-0.3,0.9-0.8l-0.2,0c0,0.4-0.3,0.6-0.7,0.6
						c-0.3,0-0.7-0.1-0.8-0.6l-0.2,0C195.3,116.3,195.7,116.5,196.1,116.5z"/>
					<path class="st6" d="M189.7,116.5c0.4,0,0.8-0.2,0.9-0.7l-0.2,0c-0.1,0.4-0.4,0.6-0.8,0.6c-0.3,0-0.7-0.2-0.7-0.6l-0.2,0
						C188.7,116.2,189.2,116.5,189.7,116.5C189.6,116.5,189.7,116.5,189.7,116.5z"/>
					<path class="st6" d="M192.4,119.2c0.3,0,0.6-0.1,0.7-0.2l-0.2-0.1c0,0.1-0.4,0.2-0.8,0.1c-0.2,0-0.7-0.2-0.7-0.6l-0.2,0
						c0,0.4,0.3,0.6,0.8,0.7C192.1,119.2,192.2,119.2,192.4,119.2z"/>
					<path class="st6" d="M192.9,117.7l1.5-0.2l-0.3-0.1c-0.7-0.2-1.1-1.2-1.1-1.7h-0.2c0,0.4,0.3,1.3,1,1.7l-0.9,0.1L192.9,117.7z"
						/>
				</g>
				<polygon class="st7" points="191.3,121.7 191.7,121 192.9,121.6 194,121 194.5,121.7 193.7,122.5 192.9,132.4 192.9,132.4 
					192.9,132.5 192.9,132.5 192.9,132.5 192.9,132.4 192.9,132.4 192.1,122.5 				"/>
			</g>
			<path class="st146" d="M187.8,116.7c0,0-2.1-2.5,1.2-4.8c3.3-2.3,11.5-0.7,9,4.7c0,0,0.2-2.2-0.4-2.8H188
				C188,113.8,187.4,115.2,187.8,116.7z"/>
			<ellipse class="st146" cx="194.6" cy="110.6" rx="2.2" ry="1.8"/>
			<path class="st146" d="M193,111.1c2.2,0.2,3.9,1.3,4.5,2.4c0.1,0.4,1.1,0.8,1.6,0.7c-1.3,1.9-10.4,1.1-11.4,0.1
				c-0.5-0.3,0.5-1.4,1-1.9C189.5,111.8,191.4,111,193,111.1z"/>
		</g>
		<path class="st5" d="M184.9,137.4c-0.2,0.4-0.8,1.5-0.3,1.6c0.5,0,1,0.2,1.2-0.2c0-0.1,0-0.1,0-0.2c-0.2,0-0.3-0.2-0.2-0.3
			c0.1,0,0.4,0,0.5,0.1c0.1,0,0.1-0.2-0.1-0.4c-0.2-0.1-0.1-0.3-0.1-0.5l-0.2-0.4L184.9,137.4z"/>
		<path class="st148" d="M191.5,122.5c-1.3,0.8-6,8.9-6.6,14.9l1,0c0.3-2.6,3.1-10,5.9-13.2L191.5,122.5z"/>
		<path class="st5" d="M202.9,117.7c0.3-0.4,1-1.4,1.3-1c0.3,0.4,0.6,0.8,0.4,1.1c-0.1,0.1-0.1,0.1-0.2,0.1c-0.1-0.1-0.3-0.2-0.4,0
			c0,0.1,0.2,0.3,0.3,0.4c0,0.1-0.2,0.2-0.4,0.1s-0.3,0-0.5,0.2l-0.5,0L202.9,117.7z"/>
		<path class="st148" d="M194.3,122.4c0,0,2.2,1.1,8.6-4.7l0.5,0.8c-1.4,0.8-4.8,6-9.5,5.6L194.3,122.4z"/>
	</g>
</g>
</svg>
