<?xml version="1.0" encoding="utf-8"?>
<!-- Generator: Adobe Illustrator 21.1.0, SVG Export Plug-In . SVG Version: 6.00 Build 0)  -->
<!DOCTYPE svg PUBLIC "-//W3C//DTD SVG 1.1//EN" "http://www.w3.org/Graphics/SVG/1.1/DTD/svg11.dtd">
<svg version="1.1" id="Layer_1" xmlns="http://www.w3.org/2000/svg" xmlns:xlink="http://www.w3.org/1999/xlink" x="0px" y="0px"
	 viewBox="0 0 286 286" style="enable-background:new 0 0 286 286;" xml:space="preserve">
<style type="text/css">
	.st0{clip-path:url(#SVGID_2_);fill:#4298B5;}
	.st1{clip-path:url(#SVGID_2_);}
	.st2{fill:#DB5C1E;}
	.st3{fill:#002B44;}
	.st4{fill:#003F5C;}
	.st5{fill:#EB6479;}
	.st6{fill:#223129;}
	.st7{fill:#FFFFFF;}
	.st8{fill:#D55A6E;}
	.st9{fill:#D8E2E7;}
	.st10{fill:#939598;}
	.st11{fill:#727D84;}
	.st12{fill:#4298B5;}
	.st13{fill:#E4D5B4;}
	.st14{fill:#CEBFA3;}
	.st15{fill:#EDE0C6;}
	.st16{fill:#3D302D;}
	.st17{fill:#D6C6A6;}
	.st18{fill:#C6B597;}
	.st19{fill:#826754;}
	.st20{fill:#91CEC4;}
	.st21{fill:#D3A98C;}
	.st22{fill:#AD886F;}
	.st23{fill:#896D59;}
	.st24{fill:#EA7442;}
	.st25{fill:#D15F36;}
	.st26{fill:#003E5A;}
	.st27{fill:#243129;}
	.st28{fill:#4077A2;}
	.st29{fill:#0F3644;}
	.st30{fill:#6C707A;}
	.st31{fill:url(#SVGID_3_);}
	.st32{fill:#8AACBD;}
	.st33{fill:#E6EBEE;}
	.st34{fill:#C3D4DD;}
	.st35{fill:#F37029;}
	.st36{fill:#004B6B;}
	.st37{fill:#282829;}
	.st38{fill:#BACAD3;}
	.st39{fill:#9EB3BE;}
	.st40{fill:#27688F;}
	.st41{fill:#005376;}
	.st42{fill:#2B75A2;}
	.st43{fill:#AFC6D2;}
	.st44{fill:url(#SVGID_4_);}
	.st45{fill:#E9E8D8;}
	.st46{fill:#818277;}
	.st47{fill:#63665D;}
	.st48{fill:#B4B39A;}
	.st49{fill:url(#SVGID_5_);}
	.st50{fill:url(#SVGID_6_);}
	.st51{fill:url(#SVGID_7_);}
	.st52{fill:url(#SVGID_8_);}
	.st53{fill:url(#SVGID_9_);}
	.st54{fill:url(#SVGID_10_);}
	.st55{fill:#FFC20E;}
	.st56{fill:#916600;}
	.st57{fill:#A7BDC9;}
	.st58{fill:#8E2833;}
	.st59{fill:#721B25;}
	.st60{fill:#00547A;}
	.st61{fill:#F1F2F2;}
	.st62{fill:#6F6598;}
	.st63{fill:#4B436A;}
	.st64{fill:#F27129;}
	.st65{fill:#A57406;}
	.st66{fill:url(#SVGID_11_);}
	.st67{fill:url(#SVGID_12_);}
	.st68{fill:url(#SVGID_13_);}
	.st69{fill:url(#SVGID_14_);}
	.st70{fill:url(#SVGID_15_);}
	.st71{fill:url(#SVGID_16_);}
	.st72{fill:url(#SVGID_17_);}
	.st73{fill:url(#SVGID_18_);}
	.st74{fill:url(#SVGID_19_);}
	.st75{fill:url(#SVGID_20_);}
	.st76{fill:url(#SVGID_21_);}
	.st77{fill:url(#SVGID_22_);}
	.st78{fill:url(#SVGID_23_);}
	.st79{fill:url(#SVGID_24_);}
	.st80{fill:url(#SVGID_25_);}
	.st81{fill:url(#SVGID_26_);}
	.st82{fill:url(#SVGID_27_);}
	.st83{fill:url(#SVGID_28_);}
	.st84{fill:url(#SVGID_29_);}
	.st85{fill:url(#SVGID_30_);}
	.st86{fill:url(#SVGID_31_);}
	.st87{fill:url(#SVGID_32_);}
	.st88{fill:url(#SVGID_33_);}
	.st89{fill:url(#SVGID_34_);}
	.st90{fill:url(#SVGID_35_);}
	.st91{fill:url(#SVGID_36_);}
	.st92{fill:url(#SVGID_37_);}
	.st93{fill:url(#SVGID_38_);}
	.st94{fill:url(#SVGID_39_);}
	.st95{fill:url(#SVGID_40_);}
	.st96{fill:url(#SVGID_41_);}
	.st97{fill:url(#SVGID_42_);}
	.st98{fill:url(#SVGID_43_);}
	.st99{fill:url(#SVGID_44_);}
	.st100{fill:url(#SVGID_45_);}
	.st101{fill:url(#SVGID_46_);}
	.st102{fill:#F9F1D7;}
	.st103{fill:#6E7980;stroke:#58595B;stroke-width:0.4225;stroke-linecap:round;stroke-linejoin:round;}
	.st104{fill:#DF9CB0;}
	.st105{fill:#C37A8C;}
	.st106{fill:#C29F60;}
	.st107{fill:#FFFFFF;stroke:#D0ECF4;stroke-width:0.4225;}
	.st108{fill:url(#SVGID_47_);}
	.st109{fill:url(#SVGID_48_);}
	.st110{fill:url(#SVGID_49_);stroke:#FFFFFF;stroke-width:2.1123;}
	.st111{fill:#9F2214;}
	.st112{fill:url(#SVGID_50_);stroke:#FFFFFF;stroke-width:2.1123;}
	.st113{fill:#4A7195;}
	.st114{fill:#C13D2E;}
	.st115{fill:#7989A3;stroke:#FFFFFF;stroke-width:2.1123;}
	.st116{fill:#FFCF01;}
	.st117{fill:url(#SVGID_51_);stroke:#FFFFFF;stroke-width:2.1123;}
	.st118{fill:url(#SVGID_52_);stroke:#FFFFFF;stroke-width:2.1123;}
	.st119{fill:url(#SVGID_53_);stroke:#FFFFFF;stroke-width:2.1123;}
	.st120{fill:#876041;}
	.st121{fill:#DAC895;stroke:#F7E8BA;stroke-width:0.4225;}
	.st122{fill:#4B545B;}
	.st123{fill:#3E6D93;}
	.st124{fill:#476F93;}
	.st125{fill:#CAB47E;}
	.st126{fill:#F7E8BA;}
	.st127{fill:#C2A171;}
	.st128{fill:#D0ECF4;}
	.st129{fill:#EFE4AC;}
	.st130{fill:#5980A2;}
	.st131{fill:#17738F;}
	.st132{fill:#B1D45E;}
	.st133{fill:#8CC540;stroke:#221F1F;stroke-width:0.2168;stroke-linejoin:round;stroke-miterlimit:10;}
	.st134{fill:#58595B;}
	.st135{fill:#797A7D;}
	.st136{fill:#BF86A8;}
	.st137{fill:#302B2C;}
	.st138{fill:#48484A;}
	.st139{fill:#72A087;}
	.st140{fill:#94B0BE;}
	.st141{fill:#09723B;}
	.st142{fill:#00A14B;}
	.st143{fill:#004766;}
	.st144{fill:#00354F;}
	.st145{fill:#005B80;}
	.st146{fill:#002F3E;}
	.st147{fill:#3F4450;}
	.st148{fill:#2A6A7F;}
	.st149{fill:url(#SVGID_54_);}
	.st150{fill:#2C3038;}
	.st151{fill:#CACFD1;}
	.st152{fill:#343943;}
	.st153{fill:#27667A;}
	.st154{fill:none;stroke:#243129;stroke-width:0.3823;stroke-miterlimit:10;}
	.st155{fill:#333333;}
	.st156{fill:#E5E8DD;}
	.st157{fill:#767877;}
	.st158{fill:#545554;}
	.st159{fill:#F8E1C7;}
	.st160{fill:#5A5048;}
	.st161{fill:#604373;}
	.st162{fill:none;}
	.st163{fill:#9DB9C8;}
	.st164{fill:#235F83;}
	.st165{fill:#CF473A;}
	.st166{fill:#B4A680;}
	.st167{fill:url(#SVGID_55_);}
	.st168{fill:url(#SVGID_56_);}
	.st169{fill:url(#SVGID_57_);}
	.st170{fill:url(#SVGID_58_);}
	.st171{fill:url(#SVGID_59_);}
	.st172{fill:url(#SVGID_60_);}
	.st173{fill:url(#SVGID_61_);}
	.st174{fill:url(#SVGID_62_);}
	.st175{fill:url(#SVGID_63_);}
	.st176{fill:url(#SVGID_64_);}
	.st177{fill:url(#SVGID_65_);}
	.st178{fill:url(#SVGID_66_);}
	.st179{fill:url(#SVGID_67_);}
	.st180{fill:url(#SVGID_68_);}
	.st181{fill:url(#SVGID_69_);}
	.st182{fill:url(#SVGID_70_);}
	.st183{fill:url(#SVGID_71_);}
	.st184{fill:url(#SVGID_72_);}
	.st185{fill:url(#SVGID_73_);}
	.st186{fill:url(#SVGID_74_);}
	.st187{fill:url(#SVGID_75_);}
	.st188{fill:url(#SVGID_76_);}
	.st189{fill:url(#SVGID_77_);}
	.st190{fill:url(#SVGID_78_);}
	.st191{fill:url(#SVGID_79_);}
	.st192{fill:url(#SVGID_80_);}
	.st193{fill:url(#SVGID_81_);}
	.st194{fill:url(#SVGID_82_);}
	.st195{fill:url(#SVGID_83_);}
	.st196{fill:url(#SVGID_84_);}
	.st197{fill:url(#SVGID_85_);}
	.st198{fill:url(#SVGID_86_);}
	.st199{fill:url(#SVGID_87_);}
	.st200{fill:url(#SVGID_88_);}
	.st201{fill:url(#SVGID_89_);}
	.st202{fill:url(#SVGID_90_);}
	.st203{fill:url(#SVGID_91_);}
	.st204{fill:url(#SVGID_92_);}
	.st205{fill:url(#SVGID_93_);}
	.st206{fill:url(#SVGID_94_);}
	.st207{fill:url(#SVGID_95_);}
	.st208{fill:url(#SVGID_96_);}
	.st209{fill:url(#SVGID_97_);}
	.st210{fill:url(#SVGID_98_);}
	.st211{fill:url(#SVGID_99_);}
	.st212{fill:url(#SVGID_100_);}
	.st213{fill:url(#SVGID_101_);}
	.st214{fill:url(#SVGID_102_);}
	.st215{fill:url(#SVGID_103_);}
	.st216{fill:url(#SVGID_104_);}
	.st217{fill:url(#SVGID_105_);}
	.st218{fill:url(#SVGID_106_);}
	.st219{fill:url(#SVGID_107_);}
	.st220{fill:url(#SVGID_108_);}
	.st221{fill:url(#SVGID_109_);}
	.st222{fill:url(#SVGID_110_);}
	.st223{fill:url(#SVGID_111_);}
	.st224{fill:url(#SVGID_112_);}
	.st225{fill:url(#SVGID_113_);}
	.st226{fill:url(#SVGID_114_);}
	.st227{fill:url(#SVGID_115_);}
	.st228{fill:url(#SVGID_116_);}
	.st229{fill:url(#SVGID_117_);}
	.st230{fill:url(#SVGID_118_);}
	.st231{fill:url(#SVGID_119_);}
	.st232{fill:url(#SVGID_120_);}
	.st233{fill:url(#SVGID_121_);}
	.st234{fill:url(#SVGID_122_);}
	.st235{fill:#F7D9A8;}
	.st236{fill:#EE93B9;}
</style>
<circle class="st12" cx="143" cy="143" r="143"/>
<g>
	<path class="st7" d="M67,208.3v-14.3h3.9v11.2h5.5v3.1H67z"/>
	<path class="st7" d="M78.4,194.5c0-0.6,0.2-1,0.5-1.3s0.8-0.4,1.5-0.4s1.2,0.1,1.6,0.4s0.5,0.7,0.5,1.3c0,1.1-0.7,1.7-2,1.7
		C79,196.2,78.4,195.6,78.4,194.5z M82.3,208.3h-3.8v-11.1h3.8V208.3z"/>
	<path class="st7" d="M88.4,208.5c-1.2,0-2.2-0.5-2.9-1.5s-1.1-2.4-1.1-4.2c0-1.8,0.4-3.2,1.1-4.2s1.7-1.5,2.9-1.5
		c1.3,0,2.3,0.5,3,1.6h0.1l0.3-1.4h3.3v15.9h-3.8v-4.6c0-0.2,0-0.8,0.1-1.6h-0.1C90.7,208,89.8,208.5,88.4,208.5z M90,205.6
		c0.6,0,1-0.2,1.3-0.5s0.4-1,0.4-1.8v-0.5c0-1-0.1-1.7-0.4-2.1s-0.7-0.6-1.3-0.6c-1.1,0-1.6,0.9-1.6,2.8c0,1,0.1,1.7,0.4,2.1
		S89.4,205.6,90,205.6z"/>
	<path class="st7" d="M105.7,208.3l-0.5-1.4H105c-0.3,0.5-0.8,0.9-1.3,1.2s-1.2,0.4-2,0.4c-1.2,0-2.2-0.4-2.8-1.1s-1-1.7-1-3v-7.2
		h3.8v6c0,0.7,0.1,1.3,0.3,1.6s0.5,0.6,1,0.6c0.7,0,1.1-0.3,1.4-0.8s0.4-1.4,0.4-2.6v-4.8h3.8v11.1H105.7z"/>
	<path class="st7" d="M111.1,194.5c0-0.6,0.2-1,0.5-1.3s0.8-0.4,1.5-0.4s1.2,0.1,1.6,0.4s0.5,0.7,0.5,1.3c0,1.1-0.7,1.7-2,1.7
		C111.8,196.2,111.1,195.6,111.1,194.5z M115.1,208.3h-3.8v-11.1h3.8V208.3z"/>
	<path class="st7" d="M121.2,208.5c-0.8,0-1.5-0.2-2.1-0.7s-1-1.1-1.4-2s-0.5-1.9-0.5-3.1c0-1.8,0.4-3.2,1.1-4.2s1.7-1.5,3-1.5
		c0.6,0,1.2,0.1,1.6,0.4s0.9,0.7,1.3,1.2h0.1c-0.1-0.9-0.2-1.7-0.2-2.6v-3h3.8v15.2h-2.9l-0.8-1.4h-0.1
		C123.4,208,122.5,208.5,121.2,208.5z M122.7,205.5c0.6,0,1-0.2,1.3-0.6s0.4-1,0.4-1.8v-0.3c0-1-0.1-1.7-0.4-2.1s-0.7-0.6-1.3-0.6
		c-0.5,0-0.9,0.2-1.2,0.7s-0.4,1.1-0.4,2c0,0.9,0.1,1.5,0.4,2S122.2,205.5,122.7,205.5z"/>
	<path class="st7" d="M130.5,194.5c0-0.6,0.2-1,0.5-1.3s0.8-0.4,1.5-0.4s1.2,0.1,1.6,0.4s0.5,0.7,0.5,1.3c0,1.1-0.7,1.7-2,1.7
		C131.2,196.2,130.5,195.6,130.5,194.5z M134.4,208.3h-3.8v-11.1h3.8V208.3z"/>
	<path class="st7" d="M142.5,205.5c0.5,0,1.1-0.1,1.8-0.4v2.8c-0.5,0.2-1,0.4-1.5,0.5s-1,0.1-1.6,0.1c-1.3,0-2.2-0.3-2.8-0.9
		s-0.8-1.6-0.8-2.9v-4.6h-1.3v-1.6l1.7-1.2l1-2.3h2.5v2.2h2.7v2.9h-2.7v4.3C141.5,205.2,141.8,205.5,142.5,205.5z"/>
	<path class="st7" d="M144.9,197.3h4l1.9,6.3c0.1,0.3,0.2,0.7,0.2,1.2h0.1c0.1-0.4,0.1-0.8,0.2-1.2l1.9-6.4h3.9l-4.4,11.8
		c-0.6,1.5-1.2,2.6-2.1,3.2c-0.8,0.6-1.9,0.9-3.2,0.9c-0.5,0-1-0.1-1.6-0.2v-3c0.3,0.1,0.7,0.1,1.2,0.1c0.3,0,0.6-0.1,0.9-0.2
		s0.5-0.3,0.7-0.6c0.2-0.2,0.4-0.6,0.6-1.2L144.9,197.3z"/>
	<path class="st7" d="M172.4,208.3h-8.5v-14.3h8.5v3.1h-4.6v2.2h4.3v3.1h-4.3v2.7h4.6V208.3z"/>
	<path class="st7" d="M177.6,208.3l-4.2-11.1h4l1.9,6.5c0,0,0,0.1,0,0.2s0,0.2,0.1,0.3s0,0.2,0.1,0.3c0,0.1,0,0.2,0,0.3h0.1
		c0-0.3,0.1-0.7,0.2-1.1l2-6.6h4l-4.2,11.1H177.6z"/>
	<path class="st7" d="M192.2,208.5c-1.8,0-3.3-0.5-4.3-1.5c-1-1-1.5-2.4-1.5-4.2c0-1.9,0.5-3.3,1.4-4.3c0.9-1,2.3-1.5,4-1.5
		c1.7,0,3,0.4,3.9,1.3s1.4,2.1,1.4,3.8v1.7h-6.8c0,0.6,0.3,1.1,0.7,1.5c0.4,0.4,1,0.5,1.7,0.5c0.7,0,1.3-0.1,1.9-0.2
		c0.6-0.1,1.2-0.3,1.8-0.6v2.7c-0.6,0.3-1.2,0.5-1.9,0.6C193.9,208.5,193.1,208.5,192.2,208.5z M192,199.7c-0.4,0-0.8,0.1-1.1,0.4
		s-0.5,0.7-0.5,1.3h3.3c0-0.5-0.2-1-0.5-1.3C192.9,199.8,192.5,199.7,192,199.7z"/>
	<path class="st7" d="M206.2,208.3v-6c0-0.7-0.1-1.3-0.3-1.7c-0.2-0.4-0.6-0.6-1-0.6c-0.6,0-1.1,0.3-1.4,0.8
		c-0.3,0.5-0.4,1.4-0.4,2.6v4.8h-3.8v-11.1h2.9l0.5,1.4h0.2c0.3-0.5,0.8-0.9,1.4-1.2s1.2-0.4,2-0.4c1.2,0,2.2,0.4,2.9,1.1
		c0.7,0.7,1,1.7,1,3v7.2H206.2z"/>
	<path class="st7" d="M218,205.5c0.5,0,1.1-0.1,1.8-0.4v2.8c-0.5,0.2-1,0.4-1.5,0.5c-0.5,0.1-1,0.1-1.6,0.1c-1.3,0-2.2-0.3-2.8-0.9
		s-0.8-1.6-0.8-2.9v-4.6h-1.3v-1.6l1.7-1.2l1-2.3h2.5v2.2h2.7v2.9H217v4.3C217,205.2,217.4,205.5,218,205.5z"/>
</g>
<g>
	<path class="st64" d="M180.9,130.4l-0.2-0.7c-0.2-0.8-0.2-2.3-0.7-2.2c-0.4,0.1-0.2,0.9-0.2,1.3c-0.5-0.6-0.9-2.1-1.9-1.3
		c-1,0.8-0.8,1.6,1.7,3l1.1,0.4L180.9,130.4z"/>
	<path class="st26" d="M192.7,126.9c-3.3,4.1-3.5,9.9-12,2.8l-1,0.8c6,4.8,8.2,8.1,14.9-2.5C195.3,126.6,193.6,125.7,192.7,126.9z"
		/>
	<g>
		<path class="st7" d="M185.8,115l-7.7,0.6l-7.7-0.6l1.9,14.8c0.1,0.6,2.6,1,5.7,1c3.2,0,5.6-0.4,5.7-1
			C183.9,129.8,185.8,115,185.8,115z"/>
		<g>
			<path class="st61" d="M176.5,115.5l-3.7-0.3l1.3,15.3c0.8,0.1,1.8,0.2,2.9,0.3L176.5,115.5z"/>
		</g>
		<ellipse class="st9" cx="178.2" cy="115" rx="7.7" ry="1.3"/>
		<ellipse class="st43" cx="178.2" cy="115" rx="7.3" ry="1.1"/>
		<path class="st34" d="M178.1,127.9c-2.2,0-4.2-0.9-5.6-2.5c-1.6-1.7-2.4-4.2-2.4-7.1v-2.1h0.5v2.1c0,6.3,3.8,9.1,7.5,9.1
			c3.7,0,7.5-2.8,7.5-9.1v-1.9h0.5v1.9c0,2.9-0.8,5.4-2.4,7.1C182.3,127,180.3,127.9,178.1,127.9z"/>
	</g>
	<polygon class="st5" points="199.5,150 202.7,162.6 212.3,176.3 208.1,176.3 209.9,174.6 200.3,163.2 194.9,151.7 198.1,150.5 	"/>
	<polygon class="st5" points="194.5,153.1 189,162.4 189.8,176.3 185.6,176.3 188.6,174.6 186.3,161.7 190.4,151.2 193.1,149.8 	"/>
	<path class="st5" d="M188.7,116.1c1.3,0,2.6-2.5,2.6-2.5c1.8-2.7,4.2-2.3,8.2-0.3c0,0,7,3.7-1.8,8.6c-3.1,1.7-3.4,4.3-3.4,4.3
		l-2.3,0.5l-0.6-0.6c0.7-1.4,1.7-2.3,0.3-4.6c-0.9-1.6-1.7-3.2-1.5-5L188.7,116.1z"/>
	<path class="st26" d="M190.9,126.2c-2.2,4.4-4,10.9-1.5,20c0.9,3.1-2.2,10.9-3,14.7l16.5,0.9c-1.1-5.9-3.7-14.3-5.1-17.8
		c-3.4-8.9-3.1-9.1-3.1-17.7l-2.6,0.2L190.9,126.2z"/>
	
		<rect x="193.7" y="115.2" transform="matrix(2.407538e-02 -0.9997 0.9997 2.407538e-02 72.6465 307.4347)" class="st27" width="0.2" height="2.7"/>
	<g>
		<polygon class="st6" points="208.1,176.3 209.9,174.6 211.2,174.6 212.3,176.3 		"/>
	</g>
	<g>
		<polygon class="st6" points="185.6,176.3 188.6,174.6 189.7,174.6 189.8,176.3 		"/>
	</g>
	<g>
		<path class="st26" d="M198.5,110.5c7.6,1.4,6.9,11.3,0.3,13.7c-2.7,1-1,3,0.2,3.5c-4.5-0.2-4.9-4.4-2-8c0.5,0.1,1.1-0.2,1.3-0.7
			c0.3-0.6,0-1.4-0.6-1.7c-0.1,0-0.2-0.1-0.3-0.1c0-0.7,0-1.3-0.3-1.8c-3.2,0.4-5.8-1.5-5.9-4.3
			C192.3,112.2,193.2,109.5,198.5,110.5z"/>
	</g>
	<path class="st27" d="M193.3,120.9c-0.4,0-0.7-0.1-1-0.2l0.1-0.2c0.6,0.4,1.7,0.2,2-0.2l0.2,0.1
		C194.4,120.7,193.8,120.9,193.3,120.9z"/>
	<g>
		<path class="st3" d="M188.2,139.3c3.1-0.5,5.6-2.9,6.5-7.2c0-1,0-2.1,0-3.5c-0.6-0.3-1.9,0.1-2,1.3c-0.6,4.4-2.4,6.4-4.5,7
			C188.1,137.7,188.1,138.5,188.2,139.3z"/>
	</g>
	<polygon class="st7" points="190.9,127.5 190.7,126.1 191.5,125.1 192,126.4 192,126.4 194.6,125.3 194.9,127 192.2,127.7 
		188.7,135.7 	"/>
	<path class="st5" d="M178.5,131c-0.2-0.4-0.5-1.2-0.9-2.1c-0.4-0.9-1.2-0.7-0.4,1c-0.8,0-1.5-1.6-2.3-0.9c-0.4,0.4-1,1.3,0.4,2
		c0.9,0.4,1.5,0.5,2,0.7l1.5,0.7L178.5,131z"/>
	<g>
		<path class="st26" d="M194.6,128.1c-0.5,12.1-10.8,12.7-17.4,3.5l1.2-0.9c2.1,3.4,12.1,10.4,13.9-1.9
			C192.4,127.3,194.6,127,194.6,128.1z"/>
	</g>
</g>
<g>
	<g>
		
			<ellipse transform="matrix(0.9782 -0.2075 0.2075 0.9782 -18.0242 25.6847)" class="st65" cx="113.4" cy="98.7" rx="3.2" ry="3.2"/>
		
			<linearGradient id="SVGID_2_" gradientUnits="userSpaceOnUse" x1="-12.0877" y1="-84.4933" x2="-5.9955" y2="-84.4933" gradientTransform="matrix(0.9782 -0.2075 0.2075 0.9782 139.7874 179.5272)">
			<stop  offset="0" style="stop-color:#916600"/>
			<stop  offset="3.335160e-02" style="stop-color:#986A01"/>
			<stop  offset="0.1536" style="stop-color:#AB7909"/>
			<stop  offset="0.2886" style="stop-color:#BB840E"/>
			<stop  offset="0.4444" style="stop-color:#C78C11"/>
			<stop  offset="0.6398" style="stop-color:#CD9012"/>
			<stop  offset="1" style="stop-color:#CF9112"/>
		</linearGradient>
		<circle style="fill:url(#SVGID_2_);" cx="113.4" cy="98.7" r="3"/>
		
			<linearGradient id="SVGID_3_" gradientUnits="userSpaceOnUse" x1="-5.9955" y1="-84.4933" x2="-12.0877" y2="-84.4933" gradientTransform="matrix(0.9782 -0.2075 0.2075 0.9782 139.7874 179.5272)">
			<stop  offset="0" style="stop-color:#FFC20E"/>
			<stop  offset="1" style="stop-color:#CF9112"/>
		</linearGradient>
		<path class="st31" d="M113.8,98.7l2.6-0.5c0,0,0,0,0,0c0,0,0,0,0,0L113.8,98.7l2.6-0.3c0,0,0,0,0,0L113.8,98.7l2.6,0c0,0,0,0,0,0
			l-2.6,0.1l2.6,0.1c0,0,0,0,0,0l-2.6-0.1l2.6,0.4c0,0,0,0,0,0l-2.6-0.4l2.6,0.6c0,0,0,0,0,0l-2.6-0.6l2.5,0.8c0,0,0,0,0,0l-2.5-0.8
			l2.4,1c0,0,0,0,0,0l-2.4-1l2.3,1.2c0,0,0,0,0,0l-2.3-1.2l2.2,1.4c0,0,0,0,0,0l-2.2-1.4l2.1,1.6c0,0,0,0,0,0l-2.1-1.6l1.9,1.8
			c0,0,0,0,0,0l-1.9-1.8l1.8,2c0,0,0,0,0,0l-1.8-2l1.6,2.1c0,0,0,0,0,0l-1.6-2.1l1.4,2.2c0,0,0,0,0,0l-1.4-2.2l1.2,2.3c0,0,0,0,0,0
			l-1.2-2.3l1,2.4c0,0,0,0,0,0l-1-2.4l0.8,2.5c0,0,0,0,0,0l-0.8-2.5l0.5,2.6c0,0,0,0,0,0c0,0,0,0,0,0l-0.5-2.6l0.3,2.6c0,0,0,0,0,0
			l-0.3-2.6l0.1,2.6c0,0,0,0,0,0l-0.1-2.6l-0.1,2.6c0,0,0,0,0,0l0.1-2.6l-0.4,2.6c0,0,0,0,0,0l0.4-2.6l-0.6,2.6c0,0,0,0,0,0l0.6-2.6
			l-0.8,2.5c0,0,0,0,0,0l0.8-2.5l-1,2.4c0,0,0,0,0,0l1-2.4l-1.2,2.3c0,0,0,0,0,0l1.2-2.3l-1.4,2.2c0,0,0,0,0,0l1.4-2.2l-1.6,2.1
			c0,0,0,0,0,0l1.6-2.1l-1.8,1.9c0,0,0,0,0,0l1.8-1.9l-2,1.8c0,0,0,0,0,0l2-1.8l-2.1,1.6c0,0,0,0,0,0l2.1-1.6l-2.2,1.4c0,0,0,0,0,0
			l2.2-1.4l-2.4,1.2c0,0,0,0,0,0l2.4-1.2l-2.4,1c0,0,0,0,0,0l2.4-1l-2.5,0.8c0,0,0,0,0,0l2.5-0.8l-2.6,0.5c0,0,0,0,0,0c0,0,0,0,0,0
			l2.6-0.5l-2.6,0.3c0,0,0,0,0,0l2.6-0.3l-2.6,0.1c0,0,0,0,0,0l2.6-0.1l-2.6-0.1c0,0,0,0,0,0l2.6,0.1l-2.6-0.4c0,0,0,0,0,0l2.6,0.4
			l-2.6-0.6c0,0,0,0,0,0l2.6,0.6l-2.5-0.8c0,0,0,0,0,0l2.5,0.8l-2.4-1c0,0,0,0,0,0l2.4,1l-2.3-1.2c0,0,0,0,0,0l2.3,1.2l-2.2-1.4
			c0,0,0,0,0,0l2.2,1.4l-2.1-1.6c0,0,0,0,0,0l2.1,1.6l-1.9-1.8c0,0,0,0,0,0l1.9,1.8l-1.8-2c0,0,0,0,0,0l1.8,2l-1.6-2.1c0,0,0,0,0,0
			l1.6,2.1l-1.4-2.2c0,0,0,0,0,0l1.4,2.2L112,96c0,0,0,0,0,0l1.2,2.4l-1-2.5c0,0,0,0,0,0l1,2.5l-0.8-2.5c0,0,0,0,0,0l0.8,2.5
			l-0.5-2.6c0,0,0,0,0,0c0,0,0,0,0,0l0.5,2.6l-0.3-2.6c0,0,0,0,0,0l0.3,2.6l-0.1-2.6c0,0,0,0,0,0l0.1,2.6l0.1-2.6c0,0,0,0,0,0
			l-0.1,2.6l0.4-2.6c0,0,0,0,0,0l-0.4,2.6l0.6-2.6c0,0,0,0,0,0l-0.6,2.6l0.8-2.5c0,0,0,0,0,0l-0.8,2.5l1-2.4c0,0,0,0,0,0l-1,2.4
			l1.2-2.3c0,0,0,0,0,0l-1.2,2.3l1.4-2.2c0,0,0,0,0,0l-1.4,2.2l1.6-2.1c0,0,0,0,0,0l-1.6,2.1l1.8-1.9c0,0,0,0,0,0l-1.8,1.9l2-1.8
			c0,0,0,0,0,0l-2,1.8l2.1-1.6c0,0,0,0,0,0l-2.1,1.6l2.2-1.4c0,0,0,0,0,0L113.8,98.7l2.3-1.3c0,0,0,0,0,0L113.8,98.7l2.4-1.1
			c0,0,0,0,0,0L113.8,98.7l2.5-0.8c0,0,0,0,0,0L113.8,98.7z"/>
		<ellipse transform="matrix(0.9782 -0.2075 0.2075 0.9782 -18.0244 25.6854)" class="st55" cx="113.4" cy="98.7" rx="3" ry="3"/>
		
			<linearGradient id="SVGID_4_" gradientUnits="userSpaceOnUse" x1="-11.0291" y1="-86.4816" x2="-7.0517" y2="-82.5042" gradientTransform="matrix(0.9782 -0.2075 0.2075 0.9782 139.7874 179.5272)">
			<stop  offset="0" style="stop-color:#FFC20E"/>
			<stop  offset="6.272547e-02" style="stop-color:#E9AC12"/>
			<stop  offset="0.147" style="stop-color:#D69813"/>
			<stop  offset="0.2011" style="stop-color:#CF9112"/>
		</linearGradient>
		<circle class="st44" cx="113.4" cy="98.7" r="2.8"/>
	</g>
	<path class="st55" d="M114,101.4c-1.5,0.3-2.9-0.6-3.3-2.1c-0.3-1.5,0.6-2.9,2.1-3.3c1.5-0.3,2.9,0.6,3.3,2.1
		C116.4,99.7,115.5,101.1,114,101.4z M112.9,96.1c-1.5,0.3-2.4,1.8-2.1,3.2c0.3,1.5,1.8,2.4,3.2,2.1c1.5-0.3,2.4-1.8,2.1-3.2
		C115.8,96.7,114.3,95.8,112.9,96.1z"/>
</g>
<g>
	<g>
		<ellipse transform="matrix(0.9028 -0.43 0.43 0.9028 -24.0713 48.0467)" class="st65" cx="94.3" cy="77.3" rx="3.2" ry="3.2"/>
		
			<linearGradient id="SVGID_5_" gradientUnits="userSpaceOnUse" x1="-156.5669" y1="-317.4742" x2="-150.4747" y2="-317.4742" gradientTransform="matrix(0.9028 -0.43 0.43 0.9028 369.3909 297.875)">
			<stop  offset="0" style="stop-color:#916600"/>
			<stop  offset="3.335160e-02" style="stop-color:#986A01"/>
			<stop  offset="0.1536" style="stop-color:#AB7909"/>
			<stop  offset="0.2886" style="stop-color:#BB840E"/>
			<stop  offset="0.4444" style="stop-color:#C78C11"/>
			<stop  offset="0.6398" style="stop-color:#CD9012"/>
			<stop  offset="1" style="stop-color:#CF9112"/>
		</linearGradient>
		<circle class="st49" cx="94.3" cy="77.3" r="3"/>
		
			<linearGradient id="SVGID_6_" gradientUnits="userSpaceOnUse" x1="-150.4747" y1="-317.4742" x2="-156.5669" y2="-317.4742" gradientTransform="matrix(0.9028 -0.43 0.43 0.9028 369.3909 297.875)">
			<stop  offset="0" style="stop-color:#FFC20E"/>
			<stop  offset="1" style="stop-color:#CF9112"/>
		</linearGradient>
		<path class="st50" d="M94.6,77.1L97,76c0,0,0,0,0,0c0,0,0,0,0,0L94.6,77.1l2.5-0.9c0,0,0,0,0,0L94.6,77.1l2.6-0.6c0,0,0,0,0,0
			L94.6,77.1l2.6-0.4c0,0,0,0,0,0l-2.6,0.5l2.6-0.3c0,0,0,0,0,0l-2.6,0.3l2.6,0c0,0,0,0,0,0l-2.6,0l2.6,0.2c0,0,0,0,0,0l-2.6-0.2
			l2.6,0.4c0,0,0,0,0,0l-2.6-0.4l2.5,0.7c0,0,0,0,0,0l-2.5-0.7l2.5,0.9c0,0,0,0,0,0l-2.5-0.9l2.4,1.1c0,0,0,0,0,0l-2.4-1.1l2.3,1.3
			c0,0,0,0,0,0l-2.3-1.3l2.2,1.5c0,0,0,0,0,0l-2.2-1.5l2,1.7c0,0,0,0,0,0l-2-1.7l1.9,1.8c0,0,0,0,0,0l-1.9-1.8l1.7,2c0,0,0,0,0,0
			l-1.7-2l1.5,2.1c0,0,0,0,0,0l-1.5-2.1l1.3,2.3c0,0,0,0,0,0l-1.3-2.3l1.1,2.4c0,0,0,0,0,0c0,0,0,0,0,0l-1.1-2.4l0.9,2.5
			c0,0,0,0,0,0l-0.9-2.5l0.7,2.5c0,0,0,0,0,0l-0.7-2.5l0.5,2.6c0,0,0,0,0,0l-0.5-2.6l0.3,2.6c0,0,0,0,0,0l-0.3-2.6l0,2.6
			c0,0,0,0,0,0l0-2.6L94,80.3c0,0,0,0,0,0l0.2-2.6l-0.4,2.6c0,0,0,0,0,0l0.4-2.6l-0.7,2.5c0,0,0,0,0,0l0.7-2.5l-0.9,2.5c0,0,0,0,0,0
			l0.9-2.5L93,80.1c0,0,0,0,0,0l1.1-2.4l-1.3,2.3c0,0,0,0,0,0l1.3-2.3l-1.5,2.2c0,0,0,0,0,0l1.5-2.2l-1.7,2c0,0,0,0,0,0l1.7-2
			l-1.8,1.9c0,0,0,0,0,0l1.8-1.9l-2,1.7c0,0,0,0,0,0l2-1.7l-2.1,1.5c0,0,0,0,0,0l2.1-1.5l-2.3,1.3c0,0,0,0,0,0l2.3-1.3l-2.4,1.1
			c0,0,0,0,0,0c0,0,0,0,0,0l2.4-1.1l-2.5,0.9c0,0,0,0,0,0l2.5-0.9l-2.5,0.7c0,0,0,0,0,0l2.5-0.7l-2.6,0.5c0,0,0,0,0,0l2.6-0.5
			l-2.6,0.3c0,0,0,0,0,0l2.6-0.3l-2.6,0c0,0,0,0,0,0l2.6,0l-2.6-0.2c0,0,0,0,0,0l2.6,0.2l-2.6-0.4c0,0,0,0,0,0l2.6,0.4l-2.6-0.7
			c0,0,0,0,0,0l2.6,0.7l-2.5-0.9c0,0,0,0,0,0l2.5,0.9L91.5,76c0,0,0,0,0,0l2.4,1.1l-2.3-1.3c0,0,0,0,0,0l2.3,1.3l-2.2-1.5
			c0,0,0,0,0,0l2.2,1.5l-2-1.7c0,0,0,0,0,0l2,1.7l-1.9-1.9c0,0,0,0,0,0L94,77l-1.7-2c0,0,0,0,0,0l1.7,2l-1.5-2.2c0,0,0,0,0,0
			l1.5,2.2l-1.3-2.3c0,0,0,0,0,0l1.3,2.3l-1.1-2.4c0,0,0,0,0,0c0,0,0,0,0,0l1.1,2.4l-0.9-2.5c0,0,0,0,0,0l0.9,2.5l-0.7-2.5
			c0,0,0,0,0,0l0.7,2.5l-0.5-2.6c0,0,0,0,0,0l0.5,2.6L94,74.2c0,0,0,0,0,0l0.3,2.6l0-2.6c0,0,0,0,0,0l0,2.6l0.2-2.6c0,0,0,0,0,0
			l-0.2,2.6l0.4-2.6c0,0,0,0,0,0l-0.4,2.6l0.7-2.6c0,0,0,0,0,0l-0.7,2.6l0.9-2.5c0,0,0,0,0,0l-0.9,2.5l1.1-2.4c0,0,0,0,0,0l-1.1,2.4
			l1.3-2.3c0,0,0,0,0,0l-1.3,2.3l1.5-2.2c0,0,0,0,0,0L94.5,77l1.7-2c0,0,0,0,0,0l-1.7,2l1.9-1.9c0,0,0,0,0,0L94.6,77.1l1.9-1.8
			c0,0,0,0,0,0L94.6,77.1l2.1-1.6c0,0,0,0,0,0L94.6,77.1l2.3-1.4c0,0,0,0,0,0L94.6,77.1z"/>
		<ellipse transform="matrix(0.9028 -0.43 0.43 0.9028 -24.0712 48.0481)" class="st55" cx="94.3" cy="77.3" rx="3" ry="3"/>
		
			<linearGradient id="SVGID_7_" gradientUnits="userSpaceOnUse" x1="-155.5083" y1="-319.4625" x2="-151.5309" y2="-315.4851" gradientTransform="matrix(0.9028 -0.43 0.43 0.9028 369.3909 297.875)">
			<stop  offset="0" style="stop-color:#FFC20E"/>
			<stop  offset="6.272547e-02" style="stop-color:#E9AC12"/>
			<stop  offset="0.147" style="stop-color:#D69813"/>
			<stop  offset="0.2011" style="stop-color:#CF9112"/>
		</linearGradient>
		<circle class="st51" cx="94.3" cy="77.3" r="2.8"/>
	</g>
	<path class="st55" d="M95.4,79.8c-1.4,0.7-3,0.1-3.7-1.3c-0.7-1.4-0.1-3,1.3-3.7s3-0.1,3.7,1.3C97.4,77.5,96.8,79.1,95.4,79.8z
		 M93.1,74.8c-1.4,0.6-1.9,2.3-1.3,3.6c0.6,1.4,2.3,1.9,3.6,1.3c1.4-0.6,1.9-2.3,1.3-3.6C96.1,74.8,94.5,74.2,93.1,74.8z"/>
</g>
<g>
	<g>
		<ellipse transform="matrix(0.4843 -0.8749 0.8749 0.4843 -2.4515 171.2009)" class="st65" cx="144" cy="87.7" rx="3.2" ry="3.2"/>
		
			<linearGradient id="SVGID_8_" gradientUnits="userSpaceOnUse" x1="608.256" y1="399.3719" x2="614.3482" y2="399.3719" gradientTransform="matrix(0.8749 0.4843 -0.4843 0.8749 -197.4462 -557.7686)">
			<stop  offset="0" style="stop-color:#916600"/>
			<stop  offset="3.335160e-02" style="stop-color:#986A01"/>
			<stop  offset="0.1536" style="stop-color:#AB7909"/>
			<stop  offset="0.2886" style="stop-color:#BB840E"/>
			<stop  offset="0.4444" style="stop-color:#C78C11"/>
			<stop  offset="0.6398" style="stop-color:#CD9012"/>
			<stop  offset="1" style="stop-color:#CF9112"/>
		</linearGradient>
		<circle class="st52" cx="144" cy="87.7" r="3"/>
		
			<linearGradient id="SVGID_9_" gradientUnits="userSpaceOnUse" x1="614.3482" y1="399.3719" x2="608.256" y2="399.3719" gradientTransform="matrix(0.8749 0.4843 -0.4843 0.8749 -197.4462 -557.7686)">
			<stop  offset="0" style="stop-color:#FFC20E"/>
			<stop  offset="1" style="stop-color:#CF9112"/>
		</linearGradient>
		<path class="st53" d="M144.4,87.9l2.3,1.3c0,0,0,0,0,0c0,0,0,0,0,0L144.4,87.9l2.2,1.5c0,0,0,0,0,0L144.4,87.9l2,1.7c0,0,0,0,0,0
			L144.4,87.9l1.8,1.9c0,0,0,0,0,0l-1.9-1.8l1.7,2c0,0,0,0,0,0l-1.7-2l1.5,2.1c0,0,0,0,0,0l-1.5-2.1l1.4,2.3c0,0,0,0,0,0l-1.4-2.3
			l1.2,2.4c0,0,0,0,0,0l-1.2-2.4l0.9,2.5c0,0,0,0,0,0l-0.9-2.5l0.7,2.5c0,0,0,0,0,0l-0.7-2.5l0.5,2.6c0,0,0,0,0,0l-0.5-2.6l0.3,2.6
			c0,0,0,0,0,0l-0.3-2.6l0,2.6c0,0,0,0,0,0l0-2.6l-0.2,2.6c0,0,0,0,0,0l0.2-2.6l-0.4,2.6c0,0,0,0,0,0l0.4-2.6l-0.6,2.6c0,0,0,0,0,0
			l0.6-2.6l-0.9,2.5c0,0,0,0,0,0l0.9-2.5l-1.1,2.4c0,0,0,0,0,0l1.1-2.4l-1.3,2.3c0,0,0,0,0,0c0,0,0,0,0,0l1.3-2.3l-1.5,2.2
			c0,0,0,0,0,0l1.5-2.2l-1.7,2c0,0,0,0,0,0l1.7-2l-1.8,1.9c0,0,0,0,0,0l1.8-1.9l-2,1.7c0,0,0,0,0,0l2-1.7l-2.1,1.5c0,0,0,0,0,0
			l2.1-1.5l-2.3,1.4c0,0,0,0,0,0l2.3-1.4l-2.4,1.2c0,0,0,0,0,0l2.4-1.2l-2.5,0.9c0,0,0,0,0,0l2.5-0.9l-2.5,0.7c0,0,0,0,0,0l2.5-0.7
			l-2.6,0.5c0,0,0,0,0,0l2.6-0.5L141,88c0,0,0,0,0,0l2.6-0.3l-2.6,0c0,0,0,0,0,0l2.6,0l-2.6-0.2c0,0,0,0,0,0l2.6,0.2l-2.6-0.4
			c0,0,0,0,0,0l2.6,0.4L141,87c0,0,0,0,0,0l2.6,0.6l-2.5-0.9c0,0,0,0,0,0l2.5,0.9l-2.4-1.1c0,0,0,0,0,0l2.4,1.1l-2.3-1.3
			c0,0,0,0,0,0c0,0,0,0,0,0l2.3,1.3l-2.2-1.5c0,0,0,0,0,0l2.2,1.5l-2.1-1.7c0,0,0,0,0,0l2.1,1.7l-1.9-1.8c0,0,0,0,0,0l1.9,1.8
			l-1.7-2c0,0,0,0,0,0l1.7,2l-1.6-2.1c0,0,0,0,0,0l1.6,2.1l-1.4-2.3c0,0,0,0,0,0l1.4,2.3l-1.2-2.4c0,0,0,0,0,0l1.2,2.4l-0.9-2.5
			c0,0,0,0,0,0l0.9,2.5l-0.7-2.5c0,0,0,0,0,0l0.7,2.5l-0.5-2.6c0,0,0,0,0,0l0.5,2.6l-0.3-2.6c0,0,0,0,0,0l0.3,2.6l0-2.6c0,0,0,0,0,0
			l0,2.6l0.2-2.6c0,0,0,0,0,0l-0.2,2.6l0.4-2.6c0,0,0,0,0,0l-0.4,2.6l0.6-2.6c0,0,0,0,0,0l-0.6,2.6l0.9-2.5c0,0,0,0,0,0l-0.9,2.5
			l1.1-2.4c0,0,0,0,0,0l-1.1,2.4l1.3-2.3c0,0,0,0,0,0c0,0,0,0,0,0l-1.3,2.3l1.5-2.2c0,0,0,0,0,0l-1.5,2.2l1.7-2.1c0,0,0,0,0,0
			l-1.7,2.1l1.8-1.9c0,0,0,0,0,0l-1.8,1.9l2-1.7c0,0,0,0,0,0l-2,1.7l2.1-1.6c0,0,0,0,0,0l-2.1,1.6l2.3-1.4c0,0,0,0,0,0l-2.3,1.4
			l2.4-1.2c0,0,0,0,0,0l-2.4,1.2l2.5-0.9c0,0,0,0,0,0l-2.5,0.9l2.5-0.7c0,0,0,0,0,0l-2.5,0.7l2.6-0.5c0,0,0,0,0,0l-2.6,0.5l2.6-0.3
			c0,0,0,0,0,0l-2.6,0.3l2.6,0c0,0,0,0,0,0l-2.6,0l2.6,0.2c0,0,0,0,0,0l-2.6-0.2l2.6,0.4c0,0,0,0,0,0l-2.6-0.4l2.6,0.6c0,0,0,0,0,0
			L144.4,87.9l2.5,0.8c0,0,0,0,0,0L144.4,87.9l2.4,1c0,0,0,0,0,0L144.4,87.9z"/>
		<ellipse transform="matrix(0.4843 -0.8749 0.8749 0.4843 -2.4533 171.2035)" class="st55" cx="144" cy="87.7" rx="3" ry="3"/>
		
			<linearGradient id="SVGID_10_" gradientUnits="userSpaceOnUse" x1="609.3146" y1="397.3836" x2="613.2919" y2="401.361" gradientTransform="matrix(0.8749 0.4843 -0.4843 0.8749 -197.4462 -557.7686)">
			<stop  offset="0" style="stop-color:#FFC20E"/>
			<stop  offset="6.272547e-02" style="stop-color:#E9AC12"/>
			<stop  offset="0.147" style="stop-color:#D69813"/>
			<stop  offset="0.2011" style="stop-color:#CF9112"/>
		</linearGradient>
		<circle class="st54" cx="144" cy="87.7" r="2.8"/>
	</g>
	<path class="st55" d="M142.7,90.1c-1.3-0.7-1.8-2.4-1.1-3.7c0.7-1.3,2.4-1.8,3.7-1.1c1.3,0.7,1.8,2.4,1.1,3.7
		C145.7,90.3,144,90.8,142.7,90.1z M145.3,85.3c-1.3-0.7-3-0.2-3.7,1.1c-0.7,1.3-0.2,3,1.1,3.7c1.3,0.7,3,0.2,3.7-1.1
		C147.1,87.7,146.6,86,145.3,85.3z"/>
</g>
<g>
	<g>
		
			<ellipse transform="matrix(0.4843 -0.8749 0.8749 0.4843 -7.4065 148.4608)" class="st65" cx="122.2" cy="80.5" rx="3.2" ry="3.2"/>
		
			<linearGradient id="SVGID_11_" gradientUnits="userSpaceOnUse" x1="585.7414" y1="403.642" x2="591.8336" y2="403.642" gradientTransform="matrix(0.8749 0.4843 -0.4843 0.8749 -197.4462 -557.7686)">
			<stop  offset="0" style="stop-color:#916600"/>
			<stop  offset="3.335160e-02" style="stop-color:#986A01"/>
			<stop  offset="0.1536" style="stop-color:#AB7909"/>
			<stop  offset="0.2886" style="stop-color:#BB840E"/>
			<stop  offset="0.4444" style="stop-color:#C78C11"/>
			<stop  offset="0.6398" style="stop-color:#CD9012"/>
			<stop  offset="1" style="stop-color:#CF9112"/>
		</linearGradient>
		<circle class="st66" cx="122.2" cy="80.5" r="3"/>
		
			<linearGradient id="SVGID_12_" gradientUnits="userSpaceOnUse" x1="591.8336" y1="403.642" x2="585.7414" y2="403.642" gradientTransform="matrix(0.8749 0.4843 -0.4843 0.8749 -197.4462 -557.7686)">
			<stop  offset="0" style="stop-color:#FFC20E"/>
			<stop  offset="1" style="stop-color:#CF9112"/>
		</linearGradient>
		<path class="st67" d="M122.6,80.7l2.3,1.3c0,0,0,0,0,0c0,0,0,0,0,0L122.6,80.7l2.2,1.5c0,0,0,0,0,0L122.6,80.7l2,1.7c0,0,0,0,0,0
			L122.6,80.7l1.8,1.9c0,0,0,0,0,0l-1.9-1.8l1.7,2c0,0,0,0,0,0l-1.7-2L124,83c0,0,0,0,0,0l-1.5-2.1l1.4,2.3c0,0,0,0,0,0l-1.4-2.3
			l1.2,2.4c0,0,0,0,0,0l-1.2-2.4l0.9,2.5c0,0,0,0,0,0l-0.9-2.5l0.7,2.5c0,0,0,0,0,0l-0.7-2.5l0.5,2.6c0,0,0,0,0,0l-0.5-2.6l0.3,2.6
			c0,0,0,0,0,0l-0.3-2.6l0,2.6c0,0,0,0,0,0l0-2.6l-0.2,2.6c0,0,0,0,0,0l0.2-2.6l-0.4,2.6c0,0,0,0,0,0l0.4-2.6l-0.6,2.6c0,0,0,0,0,0
			l0.6-2.6l-0.9,2.5c0,0,0,0,0,0l0.9-2.5l-1.1,2.4c0,0,0,0,0,0l1.1-2.4l-1.3,2.3c0,0,0,0,0,0c0,0,0,0,0,0l1.3-2.3l-1.5,2.2
			c0,0,0,0,0,0l1.5-2.2l-1.7,2c0,0,0,0,0,0l1.7-2l-1.8,1.9c0,0,0,0,0,0l1.8-1.9l-2,1.7c0,0,0,0,0,0l2-1.7l-2.1,1.5c0,0,0,0,0,0
			l2.1-1.5l-2.3,1.4c0,0,0,0,0,0l2.3-1.4l-2.4,1.2c0,0,0,0,0,0l2.4-1.2l-2.5,0.9c0,0,0,0,0,0l2.5-0.9l-2.5,0.7c0,0,0,0,0,0l2.5-0.7
			l-2.6,0.5c0,0,0,0,0,0l2.6-0.5l-2.6,0.3c0,0,0,0,0,0l2.6-0.3l-2.6,0c0,0,0,0,0,0l2.6,0l-2.6-0.2c0,0,0,0,0,0l2.6,0.2l-2.6-0.4
			c0,0,0,0,0,0l2.6,0.4l-2.6-0.6c0,0,0,0,0,0l2.6,0.6l-2.5-0.9c0,0,0,0,0,0l2.5,0.9l-2.4-1.1c0,0,0,0,0,0l2.4,1.1l-2.3-1.3
			c0,0,0,0,0,0c0,0,0,0,0,0l2.3,1.3l-2.2-1.5c0,0,0,0,0,0l2.2,1.5l-2.1-1.7c0,0,0,0,0,0l2.1,1.7l-1.9-1.8c0,0,0,0,0,0l1.9,1.8
			l-1.7-2c0,0,0,0,0,0l1.7,2l-1.6-2.1c0,0,0,0,0,0l1.6,2.1l-1.4-2.3c0,0,0,0,0,0l1.4,2.3l-1.2-2.4c0,0,0,0,0,0l1.2,2.4l-0.9-2.5
			c0,0,0,0,0,0l0.9,2.5l-0.7-2.5c0,0,0,0,0,0l0.7,2.5l-0.5-2.6c0,0,0,0,0,0l0.5,2.6l-0.3-2.6c0,0,0,0,0,0l0.3,2.6l0-2.6c0,0,0,0,0,0
			l0,2.6l0.2-2.6c0,0,0,0,0,0l-0.2,2.6l0.4-2.6c0,0,0,0,0,0l-0.4,2.6l0.6-2.6c0,0,0,0,0,0l-0.6,2.6l0.9-2.5c0,0,0,0,0,0l-0.9,2.5
			l1.1-2.4c0,0,0,0,0,0l-1.1,2.4l1.3-2.3c0,0,0,0,0,0c0,0,0,0,0,0l-1.3,2.3l1.5-2.2c0,0,0,0,0,0l-1.5,2.2l1.7-2.1c0,0,0,0,0,0
			l-1.7,2.1l1.8-1.9c0,0,0,0,0,0l-1.8,1.9l2-1.7c0,0,0,0,0,0l-2,1.7l2.1-1.6c0,0,0,0,0,0l-2.1,1.6l2.3-1.4c0,0,0,0,0,0l-2.3,1.4
			l2.4-1.2c0,0,0,0,0,0l-2.4,1.2l2.5-0.9c0,0,0,0,0,0l-2.5,0.9l2.5-0.7c0,0,0,0,0,0l-2.5,0.7l2.6-0.5c0,0,0,0,0,0l-2.6,0.5l2.6-0.3
			c0,0,0,0,0,0l-2.6,0.3l2.6,0c0,0,0,0,0,0l-2.6,0l2.6,0.2c0,0,0,0,0,0l-2.6-0.2l2.6,0.4c0,0,0,0,0,0l-2.6-0.4l2.6,0.6c0,0,0,0,0,0
			L122.6,80.7l2.5,0.8c0,0,0,0,0,0L122.6,80.7l2.4,1c0,0,0,0,0,0L122.6,80.7z"/>
		<ellipse transform="matrix(0.4843 -0.8749 0.8749 0.4843 -7.4084 148.4634)" class="st55" cx="122.2" cy="80.5" rx="3" ry="3"/>
		
			<linearGradient id="SVGID_13_" gradientUnits="userSpaceOnUse" x1="586.8" y1="401.6537" x2="590.7773" y2="405.6311" gradientTransform="matrix(0.8749 0.4843 -0.4843 0.8749 -197.4462 -557.7686)">
			<stop  offset="0" style="stop-color:#FFC20E"/>
			<stop  offset="6.272547e-02" style="stop-color:#E9AC12"/>
			<stop  offset="0.147" style="stop-color:#D69813"/>
			<stop  offset="0.2011" style="stop-color:#CF9112"/>
		</linearGradient>
		<circle class="st68" cx="122.2" cy="80.5" r="2.8"/>
	</g>
	<path class="st55" d="M120.9,82.9c-1.3-0.7-1.8-2.4-1.1-3.7c0.7-1.3,2.4-1.8,3.7-1.1c1.3,0.7,1.8,2.4,1.1,3.7
		C123.9,83.2,122.2,83.7,120.9,82.9z M123.5,78.1c-1.3-0.7-3-0.2-3.7,1.1c-0.7,1.3-0.2,3,1.1,3.7c1.3,0.7,3,0.2,3.7-1.1
		C125.3,80.5,124.9,78.9,123.5,78.1z"/>
</g>
<g>
	<g>
		
			<ellipse transform="matrix(0.4843 -0.8749 0.8749 0.4843 20.7893 186.7054)" class="st65" cx="168.8" cy="75.7" rx="3.2" ry="3.2"/>
		
			<linearGradient id="SVGID_14_" gradientUnits="userSpaceOnUse" x1="624.1368" y1="376.9107" x2="630.229" y2="376.9107" gradientTransform="matrix(0.8749 0.4843 -0.4843 0.8749 -197.4462 -557.7686)">
			<stop  offset="0" style="stop-color:#916600"/>
			<stop  offset="3.335160e-02" style="stop-color:#986A01"/>
			<stop  offset="0.1536" style="stop-color:#AB7909"/>
			<stop  offset="0.2886" style="stop-color:#BB840E"/>
			<stop  offset="0.4444" style="stop-color:#C78C11"/>
			<stop  offset="0.6398" style="stop-color:#CD9012"/>
			<stop  offset="1" style="stop-color:#CF9112"/>
		</linearGradient>
		<circle class="st69" cx="168.8" cy="75.7" r="3"/>
		
			<linearGradient id="SVGID_15_" gradientUnits="userSpaceOnUse" x1="630.229" y1="376.9107" x2="624.1368" y2="376.9107" gradientTransform="matrix(0.8749 0.4843 -0.4843 0.8749 -197.4462 -557.7686)">
			<stop  offset="0" style="stop-color:#FFC20E"/>
			<stop  offset="1" style="stop-color:#CF9112"/>
		</linearGradient>
		<path class="st70" d="M169.1,75.9l2.3,1.3c0,0,0,0,0,0c0,0,0,0,0,0L169.1,75.9l2.2,1.5c0,0,0,0,0,0L169.1,75.9l2,1.7c0,0,0,0,0,0
			L169.1,75.9l1.8,1.9c0,0,0,0,0,0L169,76l1.7,2c0,0,0,0,0,0l-1.7-2l1.5,2.1c0,0,0,0,0,0l-1.5-2.1l1.4,2.3c0,0,0,0,0,0l-1.4-2.3
			l1.2,2.4c0,0,0,0,0,0l-1.2-2.4l0.9,2.5c0,0,0,0,0,0l-0.9-2.5l0.7,2.5c0,0,0,0,0,0l-0.7-2.5l0.5,2.6c0,0,0,0,0,0l-0.5-2.6l0.3,2.6
			c0,0,0,0,0,0l-0.3-2.6l0,2.6c0,0,0,0,0,0l0-2.6l-0.2,2.6c0,0,0,0,0,0l0.2-2.6l-0.4,2.6c0,0,0,0,0,0l0.4-2.6l-0.6,2.6c0,0,0,0,0,0
			l0.6-2.6l-0.9,2.5c0,0,0,0,0,0l0.9-2.5l-1.1,2.4c0,0,0,0,0,0l1.1-2.4l-1.3,2.3c0,0,0,0,0,0c0,0,0,0,0,0l1.3-2.3l-1.5,2.2
			c0,0,0,0,0,0l1.5-2.2l-1.7,2c0,0,0,0,0,0l1.7-2l-1.8,1.9c0,0,0,0,0,0l1.8-1.9l-2,1.7c0,0,0,0,0,0l2-1.7l-2.1,1.5c0,0,0,0,0,0
			l2.1-1.5l-2.3,1.4c0,0,0,0,0,0l2.3-1.4l-2.4,1.2c0,0,0,0,0,0l2.4-1.2l-2.5,0.9c0,0,0,0,0,0l2.5-0.9l-2.5,0.7c0,0,0,0,0,0l2.5-0.7
			l-2.6,0.5c0,0,0,0,0,0l2.6-0.5l-2.6,0.3c0,0,0,0,0,0l2.6-0.3l-2.6,0c0,0,0,0,0,0l2.6,0l-2.6-0.2c0,0,0,0,0,0l2.6,0.2l-2.6-0.4
			c0,0,0,0,0,0l2.6,0.4l-2.6-0.6c0,0,0,0,0,0l2.6,0.6l-2.5-0.9c0,0,0,0,0,0l2.5,0.9l-2.4-1.1c0,0,0,0,0,0l2.4,1.1l-2.3-1.3
			c0,0,0,0,0,0c0,0,0,0,0,0l2.3,1.3l-2.2-1.5c0,0,0,0,0,0l2.2,1.5l-2.1-1.7c0,0,0,0,0,0l2.1,1.7l-1.9-1.8c0,0,0,0,0,0l1.9,1.8
			l-1.7-2c0,0,0,0,0,0l1.7,2l-1.6-2.1c0,0,0,0,0,0l1.6,2.1l-1.4-2.3c0,0,0,0,0,0l1.4,2.3l-1.2-2.4c0,0,0,0,0,0l1.2,2.4l-0.9-2.5
			c0,0,0,0,0,0l0.9,2.5l-0.7-2.5c0,0,0,0,0,0l0.7,2.5l-0.5-2.6c0,0,0,0,0,0l0.5,2.6l-0.3-2.6c0,0,0,0,0,0l0.3,2.6l0-2.6c0,0,0,0,0,0
			l0,2.6l0.2-2.6c0,0,0,0,0,0l-0.2,2.6l0.4-2.6c0,0,0,0,0,0l-0.4,2.6l0.6-2.6c0,0,0,0,0,0l-0.6,2.6l0.9-2.5c0,0,0,0,0,0l-0.9,2.5
			l1.1-2.4c0,0,0,0,0,0l-1.1,2.4l1.3-2.3c0,0,0,0,0,0c0,0,0,0,0,0l-1.3,2.3l1.5-2.2c0,0,0,0,0,0l-1.5,2.2l1.7-2.1c0,0,0,0,0,0
			l-1.7,2.1l1.8-1.9c0,0,0,0,0,0l-1.8,1.9l2-1.7c0,0,0,0,0,0l-2,1.7l2.1-1.6c0,0,0,0,0,0l-2.1,1.6l2.3-1.4c0,0,0,0,0,0l-2.3,1.4
			l2.4-1.2c0,0,0,0,0,0l-2.4,1.2l2.5-0.9c0,0,0,0,0,0l-2.5,0.9l2.5-0.7c0,0,0,0,0,0l-2.5,0.7l2.6-0.5c0,0,0,0,0,0l-2.6,0.5l2.6-0.3
			c0,0,0,0,0,0l-2.6,0.3l2.6,0c0,0,0,0,0,0l-2.6,0l2.6,0.2c0,0,0,0,0,0l-2.6-0.2l2.6,0.4c0,0,0,0,0,0l-2.6-0.4l2.6,0.6c0,0,0,0,0,0
			L169.1,75.9l2.5,0.8c0,0,0,0,0,0L169.1,75.9l2.4,1c0,0,0,0,0,0L169.1,75.9z"/>
		<ellipse transform="matrix(0.4843 -0.8749 0.8749 0.4843 20.7875 186.7079)" class="st55" cx="168.8" cy="75.7" rx="3" ry="3"/>
		
			<linearGradient id="SVGID_16_" gradientUnits="userSpaceOnUse" x1="625.1954" y1="374.9224" x2="629.1728" y2="378.8997" gradientTransform="matrix(0.8749 0.4843 -0.4843 0.8749 -197.4462 -557.7686)">
			<stop  offset="0" style="stop-color:#FFC20E"/>
			<stop  offset="6.272547e-02" style="stop-color:#E9AC12"/>
			<stop  offset="0.147" style="stop-color:#D69813"/>
			<stop  offset="0.2011" style="stop-color:#CF9112"/>
		</linearGradient>
		<circle class="st71" cx="168.8" cy="75.7" r="2.8"/>
	</g>
	<path class="st55" d="M167.4,78.1c-1.3-0.7-1.8-2.4-1.1-3.7c0.7-1.3,2.4-1.8,3.7-1.1c1.3,0.7,1.8,2.4,1.1,3.7
		C170.4,78.4,168.8,78.9,167.4,78.1z M170.1,73.4c-1.3-0.7-3-0.2-3.7,1.1c-0.7,1.3-0.2,3,1.1,3.7c1.3,0.7,3,0.2,3.7-1.1
		C171.9,75.7,171.4,74.1,170.1,73.4z"/>
</g>
<g>
	<g>
		
			<ellipse transform="matrix(0.4843 -0.8749 0.8749 0.4843 -5.8266 213.4616)" class="st65" cx="178.2" cy="111.7" rx="3.2" ry="3.2"/>
		
			<linearGradient id="SVGID_17_" gradientUnits="userSpaceOnUse" x1="649.7617" y1="403.822" x2="655.8538" y2="403.822" gradientTransform="matrix(0.8749 0.4843 -0.4843 0.8749 -197.4462 -557.7686)">
			<stop  offset="0" style="stop-color:#916600"/>
			<stop  offset="3.335160e-02" style="stop-color:#986A01"/>
			<stop  offset="0.1536" style="stop-color:#AB7909"/>
			<stop  offset="0.2886" style="stop-color:#BB840E"/>
			<stop  offset="0.4444" style="stop-color:#C78C11"/>
			<stop  offset="0.6398" style="stop-color:#CD9012"/>
			<stop  offset="1" style="stop-color:#CF9112"/>
		</linearGradient>
		<circle class="st72" cx="178.2" cy="111.7" r="3"/>
		
			<linearGradient id="SVGID_18_" gradientUnits="userSpaceOnUse" x1="655.8538" y1="403.822" x2="649.7617" y2="403.822" gradientTransform="matrix(0.8749 0.4843 -0.4843 0.8749 -197.4462 -557.7686)">
			<stop  offset="0" style="stop-color:#FFC20E"/>
			<stop  offset="1" style="stop-color:#CF9112"/>
		</linearGradient>
		<path class="st73" d="M178.5,111.9l2.3,1.3c0,0,0,0,0,0c0,0,0,0,0,0L178.5,111.9l2.2,1.5c0,0,0,0,0,0L178.5,111.9l2,1.7
			c0,0,0,0,0,0L178.5,111.9l1.8,1.9c0,0,0,0,0,0l-1.9-1.8l1.7,2c0,0,0,0,0,0l-1.7-2l1.5,2.1c0,0,0,0,0,0l-1.5-2.1l1.4,2.3
			c0,0,0,0,0,0l-1.4-2.3l1.2,2.4c0,0,0,0,0,0l-1.2-2.4l0.9,2.5c0,0,0,0,0,0l-0.9-2.5l0.7,2.5c0,0,0,0,0,0l-0.7-2.5l0.5,2.6
			c0,0,0,0,0,0l-0.5-2.6l0.3,2.6c0,0,0,0,0,0l-0.3-2.6l0,2.6c0,0,0,0,0,0l0-2.6l-0.2,2.6c0,0,0,0,0,0l0.2-2.6l-0.4,2.6c0,0,0,0,0,0
			l0.4-2.6l-0.6,2.6c0,0,0,0,0,0l0.6-2.6l-0.9,2.5c0,0,0,0,0,0l0.9-2.5l-1.1,2.4c0,0,0,0,0,0l1.1-2.4l-1.3,2.3c0,0,0,0,0,0
			c0,0,0,0,0,0l1.3-2.3l-1.5,2.2c0,0,0,0,0,0l1.5-2.2l-1.7,2c0,0,0,0,0,0l1.7-2l-1.8,1.9c0,0,0,0,0,0l1.8-1.9l-2,1.7c0,0,0,0,0,0
			l2-1.7l-2.1,1.5c0,0,0,0,0,0l2.1-1.5l-2.3,1.4c0,0,0,0,0,0l2.3-1.4l-2.4,1.2c0,0,0,0,0,0l2.4-1.2l-2.5,0.9c0,0,0,0,0,0l2.5-0.9
			l-2.5,0.7c0,0,0,0,0,0l2.5-0.7l-2.6,0.5c0,0,0,0,0,0l2.6-0.5l-2.6,0.3c0,0,0,0,0,0l2.6-0.3l-2.6,0c0,0,0,0,0,0l2.6,0l-2.6-0.2
			c0,0,0,0,0,0l2.6,0.2l-2.6-0.4c0,0,0,0,0,0l2.6,0.4l-2.6-0.6c0,0,0,0,0,0l2.6,0.6l-2.5-0.9c0,0,0,0,0,0l2.5,0.9l-2.4-1.1
			c0,0,0,0,0,0l2.4,1.1l-2.3-1.3c0,0,0,0,0,0c0,0,0,0,0,0l2.3,1.3l-2.2-1.5c0,0,0,0,0,0l2.2,1.5l-2.1-1.7c0,0,0,0,0,0l2.1,1.7
			l-1.9-1.8c0,0,0,0,0,0l1.9,1.8l-1.7-2c0,0,0,0,0,0l1.7,2l-1.6-2.1c0,0,0,0,0,0l1.6,2.1l-1.4-2.3c0,0,0,0,0,0l1.4,2.3l-1.2-2.4
			c0,0,0,0,0,0l1.2,2.4l-0.9-2.5c0,0,0,0,0,0l0.9,2.5l-0.7-2.5c0,0,0,0,0,0l0.7,2.5l-0.5-2.6c0,0,0,0,0,0l0.5,2.6l-0.3-2.6
			c0,0,0,0,0,0l0.3,2.6l0-2.6c0,0,0,0,0,0l0,2.6l0.2-2.6c0,0,0,0,0,0l-0.2,2.6l0.4-2.6c0,0,0,0,0,0l-0.4,2.6l0.6-2.6c0,0,0,0,0,0
			l-0.6,2.6l0.9-2.5c0,0,0,0,0,0l-0.9,2.5l1.1-2.4c0,0,0,0,0,0l-1.1,2.4l1.3-2.3c0,0,0,0,0,0c0,0,0,0,0,0l-1.3,2.3l1.5-2.2
			c0,0,0,0,0,0l-1.5,2.2l1.7-2.1c0,0,0,0,0,0l-1.7,2.1l1.8-1.9c0,0,0,0,0,0l-1.8,1.9l2-1.7c0,0,0,0,0,0l-2,1.7l2.1-1.6c0,0,0,0,0,0
			l-2.1,1.6l2.3-1.4c0,0,0,0,0,0l-2.3,1.4l2.4-1.2c0,0,0,0,0,0l-2.4,1.2l2.5-0.9c0,0,0,0,0,0l-2.5,0.9l2.5-0.7c0,0,0,0,0,0l-2.5,0.7
			l2.6-0.5c0,0,0,0,0,0l-2.6,0.5l2.6-0.3c0,0,0,0,0,0l-2.6,0.3l2.6,0c0,0,0,0,0,0l-2.6,0l2.6,0.2c0,0,0,0,0,0l-2.6-0.2l2.6,0.4
			c0,0,0,0,0,0l-2.6-0.4l2.6,0.6c0,0,0,0,0,0L178.5,111.9l2.5,0.8c0,0,0,0,0,0L178.5,111.9l2.4,1c0,0,0,0,0,0L178.5,111.9z"/>
		<ellipse transform="matrix(0.4843 -0.8749 0.8749 0.4843 -5.8284 213.4642)" class="st55" cx="178.2" cy="111.7" rx="3" ry="3"/>
		
			<linearGradient id="SVGID_19_" gradientUnits="userSpaceOnUse" x1="650.8203" y1="401.8337" x2="654.7976" y2="405.811" gradientTransform="matrix(0.8749 0.4843 -0.4843 0.8749 -197.4462 -557.7686)">
			<stop  offset="0" style="stop-color:#FFC20E"/>
			<stop  offset="6.272547e-02" style="stop-color:#E9AC12"/>
			<stop  offset="0.147" style="stop-color:#D69813"/>
			<stop  offset="0.2011" style="stop-color:#CF9112"/>
		</linearGradient>
		<circle class="st74" cx="178.2" cy="111.7" r="2.8"/>
	</g>
	<path class="st55" d="M176.8,114.1c-1.3-0.7-1.8-2.4-1.1-3.7c0.7-1.3,2.4-1.8,3.7-1.1c1.3,0.7,1.8,2.4,1.1,3.7
		C179.8,114.3,178.2,114.8,176.8,114.1z M179.5,109.3c-1.3-0.7-3-0.2-3.7,1.1c-0.7,1.3-0.2,3,1.1,3.7c1.3,0.7,3,0.2,3.7-1.1
		C181.3,111.7,180.8,110,179.5,109.3z"/>
</g>
<g>
	<g>
		<ellipse transform="matrix(0.4843 -0.8749 0.8749 0.4843 3.0717 197.22)" class="st65" cx="168.8" cy="96" rx="3.2" ry="3.2"/>
		
			<linearGradient id="SVGID_20_" gradientUnits="userSpaceOnUse" x1="634.0131" y1="394.6302" x2="640.1053" y2="394.6302" gradientTransform="matrix(0.8749 0.4843 -0.4843 0.8749 -197.4462 -557.7686)">
			<stop  offset="0" style="stop-color:#916600"/>
			<stop  offset="3.335160e-02" style="stop-color:#986A01"/>
			<stop  offset="0.1536" style="stop-color:#AB7909"/>
			<stop  offset="0.2886" style="stop-color:#BB840E"/>
			<stop  offset="0.4444" style="stop-color:#C78C11"/>
			<stop  offset="0.6398" style="stop-color:#CD9012"/>
			<stop  offset="1" style="stop-color:#CF9112"/>
		</linearGradient>
		<circle class="st75" cx="168.8" cy="96" r="3"/>
		
			<linearGradient id="SVGID_21_" gradientUnits="userSpaceOnUse" x1="640.1053" y1="394.6302" x2="634.0131" y2="394.6302" gradientTransform="matrix(0.8749 0.4843 -0.4843 0.8749 -197.4462 -557.7686)">
			<stop  offset="0" style="stop-color:#FFC20E"/>
			<stop  offset="1" style="stop-color:#CF9112"/>
		</linearGradient>
		<path class="st76" d="M169.2,96.2l2.3,1.3c0,0,0,0,0,0c0,0,0,0,0,0L169.2,96.2l2.2,1.5c0,0,0,0,0,0L169.2,96.2l2,1.7c0,0,0,0,0,0
			L169.2,96.2l1.8,1.9c0,0,0,0,0,0l-1.9-1.8l1.7,2c0,0,0,0,0,0l-1.7-2l1.5,2.1c0,0,0,0,0,0l-1.5-2.1l1.4,2.3c0,0,0,0,0,0l-1.4-2.3
			l1.2,2.4c0,0,0,0,0,0l-1.2-2.4l0.9,2.5c0,0,0,0,0,0l-0.9-2.5l0.7,2.5c0,0,0,0,0,0l-0.7-2.5l0.5,2.6c0,0,0,0,0,0l-0.5-2.6l0.3,2.6
			c0,0,0,0,0,0l-0.3-2.6l0,2.6c0,0,0,0,0,0l0-2.6l-0.2,2.6c0,0,0,0,0,0l0.2-2.6l-0.4,2.6c0,0,0,0,0,0l0.4-2.6l-0.6,2.6c0,0,0,0,0,0
			l0.6-2.6l-0.9,2.5c0,0,0,0,0,0l0.9-2.5l-1.1,2.4c0,0,0,0,0,0l1.1-2.4l-1.3,2.3c0,0,0,0,0,0c0,0,0,0,0,0l1.3-2.3l-1.5,2.2
			c0,0,0,0,0,0l1.5-2.2l-1.7,2c0,0,0,0,0,0l1.7-2l-1.8,1.9c0,0,0,0,0,0l1.8-1.9l-2,1.7c0,0,0,0,0,0l2-1.7l-2.1,1.5c0,0,0,0,0,0
			l2.1-1.5l-2.3,1.4c0,0,0,0,0,0l2.3-1.4l-2.4,1.2c0,0,0,0,0,0l2.4-1.2l-2.5,0.9c0,0,0,0,0,0l2.5-0.9l-2.5,0.7c0,0,0,0,0,0l2.5-0.7
			l-2.6,0.5c0,0,0,0,0,0l2.6-0.5l-2.6,0.3c0,0,0,0,0,0l2.6-0.3l-2.6,0c0,0,0,0,0,0l2.6,0l-2.6-0.2c0,0,0,0,0,0l2.6,0.2l-2.6-0.4
			c0,0,0,0,0,0l2.6,0.4l-2.6-0.6c0,0,0,0,0,0l2.6,0.6l-2.5-0.9c0,0,0,0,0,0l2.5,0.9l-2.4-1.1c0,0,0,0,0,0l2.4,1.1l-2.3-1.3
			c0,0,0,0,0,0c0,0,0,0,0,0l2.3,1.3l-2.2-1.5c0,0,0,0,0,0l2.2,1.5l-2.1-1.7c0,0,0,0,0,0l2.1,1.7l-1.9-1.8c0,0,0,0,0,0l1.9,1.8
			l-1.7-2c0,0,0,0,0,0l1.7,2l-1.6-2.1c0,0,0,0,0,0l1.6,2.1l-1.4-2.3c0,0,0,0,0,0l1.4,2.3l-1.2-2.4c0,0,0,0,0,0l1.2,2.4l-0.9-2.5
			c0,0,0,0,0,0l0.9,2.5l-0.7-2.5c0,0,0,0,0,0l0.7,2.5l-0.5-2.6c0,0,0,0,0,0l0.5,2.6l-0.3-2.6c0,0,0,0,0,0l0.3,2.6l0-2.6c0,0,0,0,0,0
			l0,2.6L169,93c0,0,0,0,0,0l-0.2,2.6l0.4-2.6c0,0,0,0,0,0l-0.4,2.6l0.6-2.6c0,0,0,0,0,0l-0.6,2.6l0.9-2.5c0,0,0,0,0,0l-0.9,2.5
			l1.1-2.4c0,0,0,0,0,0l-1.1,2.4l1.3-2.3c0,0,0,0,0,0c0,0,0,0,0,0l-1.3,2.3l1.5-2.2c0,0,0,0,0,0l-1.5,2.2l1.7-2.1c0,0,0,0,0,0
			l-1.7,2.1l1.8-1.9c0,0,0,0,0,0l-1.8,1.9l2-1.7c0,0,0,0,0,0l-2,1.7l2.1-1.6c0,0,0,0,0,0l-2.1,1.6l2.3-1.4c0,0,0,0,0,0l-2.3,1.4
			l2.4-1.2c0,0,0,0,0,0l-2.4,1.2l2.5-0.9c0,0,0,0,0,0l-2.5,0.9l2.5-0.7c0,0,0,0,0,0l-2.5,0.7l2.6-0.5c0,0,0,0,0,0l-2.6,0.5l2.6-0.3
			c0,0,0,0,0,0l-2.6,0.3l2.6,0c0,0,0,0,0,0l-2.6,0l2.6,0.2c0,0,0,0,0,0l-2.6-0.2l2.6,0.4c0,0,0,0,0,0l-2.6-0.4l2.6,0.6c0,0,0,0,0,0
			L169.2,96.2l2.5,0.8c0,0,0,0,0,0L169.2,96.2l2.4,1c0,0,0,0,0,0L169.2,96.2z"/>
		<ellipse transform="matrix(0.4843 -0.8749 0.8749 0.4843 3.0699 197.2226)" class="st55" cx="168.8" cy="96" rx="3" ry="3"/>
		
			<linearGradient id="SVGID_22_" gradientUnits="userSpaceOnUse" x1="635.0717" y1="392.6418" x2="639.049" y2="396.6192" gradientTransform="matrix(0.8749 0.4843 -0.4843 0.8749 -197.4462 -557.7686)">
			<stop  offset="0" style="stop-color:#FFC20E"/>
			<stop  offset="6.272547e-02" style="stop-color:#E9AC12"/>
			<stop  offset="0.147" style="stop-color:#D69813"/>
			<stop  offset="0.2011" style="stop-color:#CF9112"/>
		</linearGradient>
		<circle class="st77" cx="168.8" cy="96" r="2.8"/>
	</g>
	<path class="st55" d="M167.5,98.4c-1.3-0.7-1.8-2.4-1.1-3.7c0.7-1.3,2.4-1.8,3.7-1.1c1.3,0.7,1.8,2.4,1.1,3.7
		S168.8,99.1,167.5,98.4z M170.1,93.6c-1.3-0.7-3-0.2-3.7,1.1c-0.7,1.3-0.2,3,1.1,3.7c1.3,0.7,3,0.2,3.7-1.1
		C171.9,96,171.5,94.4,170.1,93.6z"/>
</g>
<g>
	<g>
		
			<ellipse transform="matrix(0.4843 -0.8749 0.8749 0.4843 -39.3372 183.3761)" class="st65" cx="135.9" cy="125.1" rx="3.2" ry="3.2"/>
		
			<linearGradient id="SVGID_23_" gradientUnits="userSpaceOnUse" x1="619.2549" y1="436.0022" x2="625.3472" y2="436.0022" gradientTransform="matrix(0.8749 0.4843 -0.4843 0.8749 -197.4462 -557.7686)">
			<stop  offset="0" style="stop-color:#916600"/>
			<stop  offset="3.335160e-02" style="stop-color:#986A01"/>
			<stop  offset="0.1536" style="stop-color:#AB7909"/>
			<stop  offset="0.2886" style="stop-color:#BB840E"/>
			<stop  offset="0.4444" style="stop-color:#C78C11"/>
			<stop  offset="0.6398" style="stop-color:#CD9012"/>
			<stop  offset="1" style="stop-color:#CF9112"/>
		</linearGradient>
		<circle class="st78" cx="135.9" cy="125.1" r="3"/>
		
			<linearGradient id="SVGID_24_" gradientUnits="userSpaceOnUse" x1="625.3472" y1="436.0022" x2="619.2549" y2="436.0022" gradientTransform="matrix(0.8749 0.4843 -0.4843 0.8749 -197.4462 -557.7686)">
			<stop  offset="0" style="stop-color:#FFC20E"/>
			<stop  offset="1" style="stop-color:#CF9112"/>
		</linearGradient>
		<path class="st79" d="M136.2,125.2l2.3,1.3c0,0,0,0,0,0c0,0,0,0,0,0L136.2,125.2l2.2,1.5c0,0,0,0,0,0L136.2,125.2l2,1.7
			c0,0,0,0,0,0L136.2,125.2l1.8,1.9c0,0,0,0,0,0l-1.9-1.8l1.7,2c0,0,0,0,0,0l-1.7-2l1.5,2.1c0,0,0,0,0,0l-1.5-2.1l1.4,2.3
			c0,0,0,0,0,0l-1.4-2.3l1.2,2.4c0,0,0,0,0,0l-1.2-2.4l0.9,2.5c0,0,0,0,0,0l-0.9-2.5l0.7,2.5c0,0,0,0,0,0l-0.7-2.5l0.5,2.6
			c0,0,0,0,0,0l-0.5-2.6l0.3,2.6c0,0,0,0,0,0l-0.3-2.6l0,2.6c0,0,0,0,0,0l0-2.6l-0.2,2.6c0,0,0,0,0,0l0.2-2.6l-0.4,2.6c0,0,0,0,0,0
			l0.4-2.6l-0.6,2.6c0,0,0,0,0,0l0.6-2.6l-0.9,2.5c0,0,0,0,0,0l0.9-2.5l-1.1,2.4c0,0,0,0,0,0l1.1-2.4l-1.3,2.3c0,0,0,0,0,0
			c0,0,0,0,0,0l1.3-2.3l-1.5,2.2c0,0,0,0,0,0l1.5-2.2l-1.7,2c0,0,0,0,0,0l1.7-2l-1.8,1.9c0,0,0,0,0,0l1.8-1.9l-2,1.7c0,0,0,0,0,0
			l2-1.7l-2.1,1.5c0,0,0,0,0,0l2.1-1.5l-2.3,1.4c0,0,0,0,0,0l2.3-1.4l-2.4,1.2c0,0,0,0,0,0l2.4-1.2l-2.5,0.9c0,0,0,0,0,0l2.5-0.9
			l-2.5,0.7c0,0,0,0,0,0l2.5-0.7l-2.6,0.5c0,0,0,0,0,0l2.6-0.5l-2.6,0.3c0,0,0,0,0,0l2.6-0.3l-2.6,0c0,0,0,0,0,0l2.6,0l-2.6-0.2
			c0,0,0,0,0,0l2.6,0.2l-2.6-0.4c0,0,0,0,0,0l2.6,0.4l-2.6-0.6c0,0,0,0,0,0l2.6,0.6l-2.5-0.9c0,0,0,0,0,0l2.5,0.9l-2.4-1.1
			c0,0,0,0,0,0l2.4,1.1l-2.3-1.3c0,0,0,0,0,0c0,0,0,0,0,0l2.3,1.3l-2.2-1.5c0,0,0,0,0,0l2.2,1.5l-2.1-1.7c0,0,0,0,0,0l2.1,1.7
			l-1.9-1.8c0,0,0,0,0,0l1.9,1.8l-1.7-2c0,0,0,0,0,0l1.7,2l-1.6-2.1c0,0,0,0,0,0l1.6,2.1l-1.4-2.3c0,0,0,0,0,0l1.4,2.3l-1.2-2.4
			c0,0,0,0,0,0l1.2,2.4l-0.9-2.5c0,0,0,0,0,0l0.9,2.5l-0.7-2.5c0,0,0,0,0,0l0.7,2.5l-0.5-2.6c0,0,0,0,0,0l0.5,2.6l-0.3-2.6
			c0,0,0,0,0,0l0.3,2.6l0-2.6c0,0,0,0,0,0l0,2.6l0.2-2.6c0,0,0,0,0,0l-0.2,2.6l0.4-2.6c0,0,0,0,0,0l-0.4,2.6l0.6-2.6c0,0,0,0,0,0
			l-0.6,2.6l0.9-2.5c0,0,0,0,0,0l-0.9,2.5l1.1-2.4c0,0,0,0,0,0l-1.1,2.4l1.3-2.3c0,0,0,0,0,0c0,0,0,0,0,0l-1.3,2.3l1.5-2.2
			c0,0,0,0,0,0l-1.5,2.2l1.7-2.1c0,0,0,0,0,0l-1.7,2.1l1.8-1.9c0,0,0,0,0,0l-1.8,1.9l2-1.7c0,0,0,0,0,0l-2,1.7l2.1-1.6c0,0,0,0,0,0
			l-2.1,1.6l2.3-1.4c0,0,0,0,0,0l-2.3,1.4l2.4-1.2c0,0,0,0,0,0l-2.4,1.2l2.5-0.9c0,0,0,0,0,0l-2.5,0.9l2.5-0.7c0,0,0,0,0,0l-2.5,0.7
			l2.6-0.5c0,0,0,0,0,0l-2.6,0.5l2.6-0.3c0,0,0,0,0,0l-2.6,0.3l2.6,0c0,0,0,0,0,0l-2.6,0l2.6,0.2c0,0,0,0,0,0l-2.6-0.2l2.6,0.4
			c0,0,0,0,0,0l-2.6-0.4l2.6,0.6c0,0,0,0,0,0L136.2,125.2l2.5,0.8c0,0,0,0,0,0L136.2,125.2l2.4,1c0,0,0,0,0,0L136.2,125.2z"/>
		<ellipse transform="matrix(0.4843 -0.8749 0.8749 0.4843 -39.339 183.3786)" class="st55" cx="135.9" cy="125.1" rx="3" ry="3"/>
		
			<linearGradient id="SVGID_25_" gradientUnits="userSpaceOnUse" x1="620.3135" y1="434.0139" x2="624.2909" y2="437.9913" gradientTransform="matrix(0.8749 0.4843 -0.4843 0.8749 -197.4462 -557.7686)">
			<stop  offset="0" style="stop-color:#FFC20E"/>
			<stop  offset="6.272547e-02" style="stop-color:#E9AC12"/>
			<stop  offset="0.147" style="stop-color:#D69813"/>
			<stop  offset="0.2011" style="stop-color:#CF9112"/>
		</linearGradient>
		<circle class="st80" cx="135.9" cy="125.1" r="2.8"/>
	</g>
	<path class="st55" d="M134.6,127.5c-1.3-0.7-1.8-2.4-1.1-3.7s2.4-1.8,3.7-1.1s1.8,2.4,1.1,3.7S135.9,128.2,134.6,127.5z
		 M137.2,122.7c-1.3-0.7-3-0.2-3.7,1.1c-0.7,1.3-0.2,3,1.1,3.7s3,0.2,3.7-1.1C139,125.1,138.5,123.4,137.2,122.7z"/>
</g>
<g>
	<g>
		
			<ellipse transform="matrix(0.4843 -0.8749 0.8749 0.4843 -37.8881 211.5495)" class="st65" cx="160.5" cy="137.9" rx="3.2" ry="3.2"/>
		
			<linearGradient id="SVGID_26_" gradientUnits="userSpaceOnUse" x1="647.0237" y1="435.3279" x2="653.116" y2="435.3279" gradientTransform="matrix(0.8749 0.4843 -0.4843 0.8749 -197.4462 -557.7686)">
			<stop  offset="0" style="stop-color:#916600"/>
			<stop  offset="3.335160e-02" style="stop-color:#986A01"/>
			<stop  offset="0.1536" style="stop-color:#AB7909"/>
			<stop  offset="0.2886" style="stop-color:#BB840E"/>
			<stop  offset="0.4444" style="stop-color:#C78C11"/>
			<stop  offset="0.6398" style="stop-color:#CD9012"/>
			<stop  offset="1" style="stop-color:#CF9112"/>
		</linearGradient>
		<circle class="st81" cx="160.5" cy="137.9" r="3"/>
		
			<linearGradient id="SVGID_27_" gradientUnits="userSpaceOnUse" x1="653.116" y1="435.3279" x2="647.0237" y2="435.3279" gradientTransform="matrix(0.8749 0.4843 -0.4843 0.8749 -197.4462 -557.7686)">
			<stop  offset="0" style="stop-color:#FFC20E"/>
			<stop  offset="1" style="stop-color:#CF9112"/>
		</linearGradient>
		<path class="st82" d="M160.9,138.1l2.3,1.3c0,0,0,0,0,0c0,0,0,0,0,0L160.9,138.1l2.2,1.5c0,0,0,0,0,0L160.9,138.1l2,1.7
			c0,0,0,0,0,0L160.9,138.1l1.8,1.9c0,0,0,0,0,0l-1.9-1.8l1.7,2c0,0,0,0,0,0l-1.7-2l1.5,2.1c0,0,0,0,0,0l-1.5-2.1l1.4,2.3
			c0,0,0,0,0,0l-1.4-2.3l1.2,2.4c0,0,0,0,0,0l-1.2-2.4l0.9,2.5c0,0,0,0,0,0l-0.9-2.5l0.7,2.5c0,0,0,0,0,0l-0.7-2.5l0.5,2.6
			c0,0,0,0,0,0l-0.5-2.6l0.3,2.6c0,0,0,0,0,0l-0.3-2.6l0,2.6c0,0,0,0,0,0l0-2.6l-0.2,2.6c0,0,0,0,0,0l0.2-2.6l-0.4,2.6c0,0,0,0,0,0
			l0.4-2.6l-0.6,2.6c0,0,0,0,0,0l0.6-2.6l-0.9,2.5c0,0,0,0,0,0l0.9-2.5l-1.1,2.4c0,0,0,0,0,0l1.1-2.4l-1.3,2.3c0,0,0,0,0,0
			c0,0,0,0,0,0l1.3-2.3l-1.5,2.2c0,0,0,0,0,0l1.5-2.2l-1.7,2c0,0,0,0,0,0l1.7-2l-1.8,1.9c0,0,0,0,0,0l1.8-1.9l-2,1.7c0,0,0,0,0,0
			l2-1.7l-2.1,1.5c0,0,0,0,0,0l2.1-1.5l-2.3,1.4c0,0,0,0,0,0l2.3-1.4l-2.4,1.2c0,0,0,0,0,0l2.4-1.2l-2.5,0.9c0,0,0,0,0,0l2.5-0.9
			l-2.5,0.7c0,0,0,0,0,0l2.5-0.7l-2.6,0.5c0,0,0,0,0,0l2.6-0.5l-2.6,0.3c0,0,0,0,0,0l2.6-0.3l-2.6,0c0,0,0,0,0,0l2.6,0l-2.6-0.2
			c0,0,0,0,0,0l2.6,0.2l-2.6-0.4c0,0,0,0,0,0l2.6,0.4l-2.6-0.6c0,0,0,0,0,0l2.6,0.6l-2.5-0.9c0,0,0,0,0,0l2.5,0.9l-2.4-1.1
			c0,0,0,0,0,0l2.4,1.1l-2.3-1.3c0,0,0,0,0,0c0,0,0,0,0,0l2.3,1.3l-2.2-1.5c0,0,0,0,0,0l2.2,1.5l-2.1-1.7c0,0,0,0,0,0l2.1,1.7
			l-1.9-1.8c0,0,0,0,0,0l1.9,1.8l-1.7-2c0,0,0,0,0,0l1.7,2l-1.6-2.1c0,0,0,0,0,0l1.6,2.1l-1.4-2.3c0,0,0,0,0,0l1.4,2.3l-1.2-2.4
			c0,0,0,0,0,0l1.2,2.4l-0.9-2.5c0,0,0,0,0,0l0.9,2.5l-0.7-2.5c0,0,0,0,0,0l0.7,2.5l-0.5-2.6c0,0,0,0,0,0l0.5,2.6l-0.3-2.6
			c0,0,0,0,0,0l0.3,2.6l0-2.6c0,0,0,0,0,0l0,2.6l0.2-2.6c0,0,0,0,0,0l-0.2,2.6l0.4-2.6c0,0,0,0,0,0l-0.4,2.6l0.6-2.6c0,0,0,0,0,0
			l-0.6,2.6l0.9-2.5c0,0,0,0,0,0l-0.9,2.5l1.1-2.4c0,0,0,0,0,0l-1.1,2.4l1.3-2.3c0,0,0,0,0,0c0,0,0,0,0,0l-1.3,2.3l1.5-2.2
			c0,0,0,0,0,0l-1.5,2.2l1.7-2.1c0,0,0,0,0,0l-1.7,2.1l1.8-1.9c0,0,0,0,0,0l-1.8,1.9l2-1.7c0,0,0,0,0,0l-2,1.7l2.1-1.6c0,0,0,0,0,0
			l-2.1,1.6l2.3-1.4c0,0,0,0,0,0l-2.3,1.4l2.4-1.2c0,0,0,0,0,0l-2.4,1.2l2.5-0.9c0,0,0,0,0,0l-2.5,0.9l2.5-0.7c0,0,0,0,0,0l-2.5,0.7
			l2.6-0.5c0,0,0,0,0,0l-2.6,0.5l2.6-0.3c0,0,0,0,0,0l-2.6,0.3l2.6,0c0,0,0,0,0,0l-2.6,0l2.6,0.2c0,0,0,0,0,0l-2.6-0.2l2.6,0.4
			c0,0,0,0,0,0l-2.6-0.4l2.6,0.6c0,0,0,0,0,0L160.9,138.1l2.5,0.8c0,0,0,0,0,0L160.9,138.1l2.4,1c0,0,0,0,0,0L160.9,138.1z"/>
		<ellipse transform="matrix(0.4843 -0.8749 0.8749 0.4843 -37.8899 211.552)" class="st55" cx="160.5" cy="137.9" rx="3" ry="3"/>
		
			<linearGradient id="SVGID_28_" gradientUnits="userSpaceOnUse" x1="648.0823" y1="433.3396" x2="652.0597" y2="437.317" gradientTransform="matrix(0.8749 0.4843 -0.4843 0.8749 -197.4462 -557.7686)">
			<stop  offset="0" style="stop-color:#FFC20E"/>
			<stop  offset="6.272547e-02" style="stop-color:#E9AC12"/>
			<stop  offset="0.147" style="stop-color:#D69813"/>
			<stop  offset="0.2011" style="stop-color:#CF9112"/>
		</linearGradient>
		<circle class="st83" cx="160.5" cy="137.9" r="2.8"/>
	</g>
	<path class="st55" d="M159.2,140.3c-1.3-0.7-1.8-2.4-1.1-3.7c0.7-1.3,2.4-1.8,3.7-1.1c1.3,0.7,1.8,2.4,1.1,3.7
		C162.2,140.6,160.5,141.1,159.2,140.3z M161.8,135.5c-1.3-0.7-3-0.2-3.7,1.1c-0.7,1.3-0.2,3,1.1,3.7c1.3,0.7,3,0.2,3.7-1.1
		C163.6,137.9,163.1,136.3,161.8,135.5z"/>
</g>
<g>
	<g>
		
			<ellipse transform="matrix(0.4843 -0.8749 0.8749 0.4843 -74.9623 198.8438)" class="st65" cx="131.2" cy="163" rx="3.2" ry="3.2"/>
		
			<linearGradient id="SVGID_29_" gradientUnits="userSpaceOnUse" x1="633.5284" y1="471.4797" x2="639.6205" y2="471.4797" gradientTransform="matrix(0.8749 0.4843 -0.4843 0.8749 -197.4462 -557.7686)">
			<stop  offset="0" style="stop-color:#916600"/>
			<stop  offset="3.335160e-02" style="stop-color:#986A01"/>
			<stop  offset="0.1536" style="stop-color:#AB7909"/>
			<stop  offset="0.2886" style="stop-color:#BB840E"/>
			<stop  offset="0.4444" style="stop-color:#C78C11"/>
			<stop  offset="0.6398" style="stop-color:#CD9012"/>
			<stop  offset="1" style="stop-color:#CF9112"/>
		</linearGradient>
		<circle class="st84" cx="131.2" cy="163" r="3"/>
		
			<linearGradient id="SVGID_30_" gradientUnits="userSpaceOnUse" x1="639.6205" y1="471.4797" x2="633.5284" y2="471.4797" gradientTransform="matrix(0.8749 0.4843 -0.4843 0.8749 -197.4462 -557.7686)">
			<stop  offset="0" style="stop-color:#FFC20E"/>
			<stop  offset="1" style="stop-color:#CF9112"/>
		</linearGradient>
		<path class="st85" d="M131.5,163.2l2.3,1.3c0,0,0,0,0,0c0,0,0,0,0,0L131.5,163.2l2.2,1.5c0,0,0,0,0,0L131.5,163.2l2,1.7
			c0,0,0,0,0,0L131.5,163.2l1.8,1.9c0,0,0,0,0,0l-1.9-1.8l1.7,2c0,0,0,0,0,0l-1.7-2l1.5,2.1c0,0,0,0,0,0l-1.5-2.1l1.4,2.3
			c0,0,0,0,0,0l-1.4-2.3l1.2,2.4c0,0,0,0,0,0l-1.2-2.4l0.9,2.5c0,0,0,0,0,0l-0.9-2.5l0.7,2.5c0,0,0,0,0,0l-0.7-2.5l0.5,2.6
			c0,0,0,0,0,0l-0.5-2.6l0.3,2.6c0,0,0,0,0,0l-0.3-2.6l0,2.6c0,0,0,0,0,0l0-2.6l-0.2,2.6c0,0,0,0,0,0l0.2-2.6l-0.4,2.6c0,0,0,0,0,0
			l0.4-2.6l-0.6,2.6c0,0,0,0,0,0l0.6-2.6l-0.9,2.5c0,0,0,0,0,0l0.9-2.5l-1.1,2.4c0,0,0,0,0,0l1.1-2.4l-1.3,2.3c0,0,0,0,0,0
			c0,0,0,0,0,0l1.3-2.3l-1.5,2.2c0,0,0,0,0,0l1.5-2.2l-1.7,2c0,0,0,0,0,0l1.7-2l-1.8,1.9c0,0,0,0,0,0l1.8-1.9l-2,1.7c0,0,0,0,0,0
			l2-1.7l-2.1,1.5c0,0,0,0,0,0l2.1-1.5l-2.3,1.4c0,0,0,0,0,0l2.3-1.4l-2.4,1.2c0,0,0,0,0,0l2.4-1.2l-2.5,0.9c0,0,0,0,0,0l2.5-0.9
			l-2.5,0.7c0,0,0,0,0,0l2.5-0.7l-2.6,0.5c0,0,0,0,0,0l2.6-0.5l-2.6,0.3c0,0,0,0,0,0l2.6-0.3l-2.6,0c0,0,0,0,0,0l2.6,0l-2.6-0.2
			c0,0,0,0,0,0l2.6,0.2l-2.6-0.4c0,0,0,0,0,0l2.6,0.4l-2.6-0.6c0,0,0,0,0,0l2.6,0.6l-2.5-0.9c0,0,0,0,0,0l2.5,0.9l-2.4-1.1
			c0,0,0,0,0,0l2.4,1.1l-2.3-1.3c0,0,0,0,0,0c0,0,0,0,0,0l2.3,1.3l-2.2-1.5c0,0,0,0,0,0l2.2,1.5l-2.1-1.7c0,0,0,0,0,0l2.1,1.7
			l-1.9-1.8c0,0,0,0,0,0l1.9,1.8l-1.7-2c0,0,0,0,0,0l1.7,2l-1.6-2.1c0,0,0,0,0,0l1.6,2.1l-1.4-2.3c0,0,0,0,0,0l1.4,2.3l-1.2-2.4
			c0,0,0,0,0,0l1.2,2.4l-0.9-2.5c0,0,0,0,0,0l0.9,2.5l-0.7-2.5c0,0,0,0,0,0l0.7,2.5l-0.5-2.6c0,0,0,0,0,0l0.5,2.6l-0.3-2.6
			c0,0,0,0,0,0l0.3,2.6l0-2.6c0,0,0,0,0,0l0,2.6l0.2-2.6c0,0,0,0,0,0l-0.2,2.6l0.4-2.6c0,0,0,0,0,0l-0.4,2.6l0.6-2.6c0,0,0,0,0,0
			l-0.6,2.6l0.9-2.5c0,0,0,0,0,0l-0.9,2.5l1.1-2.4c0,0,0,0,0,0l-1.1,2.4l1.3-2.3c0,0,0,0,0,0c0,0,0,0,0,0l-1.3,2.3l1.5-2.2
			c0,0,0,0,0,0l-1.5,2.2l1.7-2.1c0,0,0,0,0,0l-1.7,2.1l1.8-1.9c0,0,0,0,0,0l-1.8,1.9l2-1.7c0,0,0,0,0,0l-2,1.7l2.1-1.6c0,0,0,0,0,0
			l-2.1,1.6l2.3-1.4c0,0,0,0,0,0l-2.3,1.4l2.4-1.2c0,0,0,0,0,0l-2.4,1.2l2.5-0.9c0,0,0,0,0,0l-2.5,0.9l2.5-0.7c0,0,0,0,0,0l-2.5,0.7
			l2.6-0.5c0,0,0,0,0,0l-2.6,0.5l2.6-0.3c0,0,0,0,0,0l-2.6,0.3l2.6,0c0,0,0,0,0,0l-2.6,0l2.6,0.2c0,0,0,0,0,0l-2.6-0.2l2.6,0.4
			c0,0,0,0,0,0l-2.6-0.4l2.6,0.6c0,0,0,0,0,0L131.5,163.2l2.5,0.8c0,0,0,0,0,0L131.5,163.2l2.4,1c0,0,0,0,0,0L131.5,163.2z"/>
		<ellipse transform="matrix(0.4843 -0.8749 0.8749 0.4843 -74.9641 198.8464)" class="st55" cx="131.2" cy="163" rx="3" ry="3"/>
		
			<linearGradient id="SVGID_31_" gradientUnits="userSpaceOnUse" x1="634.587" y1="469.4914" x2="638.5643" y2="473.4687" gradientTransform="matrix(0.8749 0.4843 -0.4843 0.8749 -197.4462 -557.7686)">
			<stop  offset="0" style="stop-color:#FFC20E"/>
			<stop  offset="6.272547e-02" style="stop-color:#E9AC12"/>
			<stop  offset="0.147" style="stop-color:#D69813"/>
			<stop  offset="0.2011" style="stop-color:#CF9112"/>
		</linearGradient>
		<circle class="st86" cx="131.2" cy="163" r="2.8"/>
	</g>
	<path class="st55" d="M129.9,165.4c-1.3-0.7-1.8-2.4-1.1-3.7s2.4-1.8,3.7-1.1s1.8,2.4,1.1,3.7S131.2,166.1,129.9,165.4z
		 M132.5,160.6c-1.3-0.7-3-0.2-3.7,1.1c-0.7,1.3-0.2,3,1.1,3.7s3,0.2,3.7-1.1C134.3,163,133.8,161.4,132.5,160.6z"/>
</g>
<g>
	<g>
		
			<ellipse transform="matrix(0.4843 -0.8749 0.8749 0.4843 -59.8308 230.9849)" class="st65" cx="166" cy="166.2" rx="3.2" ry="3.2"/>
		
			<linearGradient id="SVGID_32_" gradientUnits="userSpaceOnUse" x1="665.5677" y1="457.4442" x2="671.6599" y2="457.4442" gradientTransform="matrix(0.8749 0.4843 -0.4843 0.8749 -197.4462 -557.7686)">
			<stop  offset="0" style="stop-color:#916600"/>
			<stop  offset="3.335160e-02" style="stop-color:#986A01"/>
			<stop  offset="0.1536" style="stop-color:#AB7909"/>
			<stop  offset="0.2886" style="stop-color:#BB840E"/>
			<stop  offset="0.4444" style="stop-color:#C78C11"/>
			<stop  offset="0.6398" style="stop-color:#CD9012"/>
			<stop  offset="1" style="stop-color:#CF9112"/>
		</linearGradient>
		<circle class="st87" cx="166" cy="166.2" r="3"/>
		
			<linearGradient id="SVGID_33_" gradientUnits="userSpaceOnUse" x1="671.6599" y1="457.4442" x2="665.5677" y2="457.4442" gradientTransform="matrix(0.8749 0.4843 -0.4843 0.8749 -197.4462 -557.7686)">
			<stop  offset="0" style="stop-color:#FFC20E"/>
			<stop  offset="1" style="stop-color:#CF9112"/>
		</linearGradient>
		<path class="st88" d="M166.4,166.4l2.3,1.3c0,0,0,0,0,0c0,0,0,0,0,0L166.4,166.4l2.2,1.5c0,0,0,0,0,0L166.4,166.4l2,1.7
			c0,0,0,0,0,0L166.4,166.4l1.8,1.9c0,0,0,0,0,0l-1.9-1.8l1.7,2c0,0,0,0,0,0l-1.7-2l1.5,2.1c0,0,0,0,0,0l-1.5-2.1l1.4,2.3
			c0,0,0,0,0,0l-1.4-2.3l1.2,2.4c0,0,0,0,0,0l-1.2-2.4l0.9,2.5c0,0,0,0,0,0l-0.9-2.5l0.7,2.5c0,0,0,0,0,0l-0.7-2.5l0.5,2.6
			c0,0,0,0,0,0l-0.5-2.6l0.3,2.6c0,0,0,0,0,0l-0.3-2.6l0,2.6c0,0,0,0,0,0l0-2.6l-0.2,2.6c0,0,0,0,0,0l0.2-2.6l-0.4,2.6c0,0,0,0,0,0
			l0.4-2.6l-0.6,2.6c0,0,0,0,0,0l0.6-2.6l-0.9,2.5c0,0,0,0,0,0l0.9-2.5l-1.1,2.4c0,0,0,0,0,0l1.1-2.4l-1.3,2.3c0,0,0,0,0,0
			c0,0,0,0,0,0l1.3-2.3l-1.5,2.2c0,0,0,0,0,0l1.5-2.2l-1.7,2c0,0,0,0,0,0l1.7-2l-1.8,1.9c0,0,0,0,0,0l1.8-1.9l-2,1.7c0,0,0,0,0,0
			l2-1.7l-2.1,1.5c0,0,0,0,0,0l2.1-1.5l-2.3,1.4c0,0,0,0,0,0l2.3-1.4l-2.4,1.2c0,0,0,0,0,0l2.4-1.2l-2.5,0.9c0,0,0,0,0,0l2.5-0.9
			l-2.5,0.7c0,0,0,0,0,0l2.5-0.7l-2.6,0.5c0,0,0,0,0,0l2.6-0.5l-2.6,0.3c0,0,0,0,0,0l2.6-0.3l-2.6,0c0,0,0,0,0,0l2.6,0l-2.6-0.2
			c0,0,0,0,0,0l2.6,0.2l-2.6-0.4c0,0,0,0,0,0l2.6,0.4l-2.6-0.6c0,0,0,0,0,0l2.6,0.6l-2.5-0.9c0,0,0,0,0,0l2.5,0.9l-2.4-1.1
			c0,0,0,0,0,0l2.4,1.1l-2.3-1.3c0,0,0,0,0,0c0,0,0,0,0,0l2.3,1.3l-2.2-1.5c0,0,0,0,0,0l2.2,1.5l-2.1-1.7c0,0,0,0,0,0l2.1,1.7
			l-1.9-1.8c0,0,0,0,0,0l1.9,1.8l-1.7-2c0,0,0,0,0,0l1.7,2l-1.6-2.1c0,0,0,0,0,0l1.6,2.1l-1.4-2.3c0,0,0,0,0,0l1.4,2.3l-1.2-2.4
			c0,0,0,0,0,0l1.2,2.4l-0.9-2.5c0,0,0,0,0,0l0.9,2.5l-0.7-2.5c0,0,0,0,0,0l0.7,2.5l-0.5-2.6c0,0,0,0,0,0l0.5,2.6l-0.3-2.6
			c0,0,0,0,0,0l0.3,2.6l0-2.6c0,0,0,0,0,0l0,2.6l0.2-2.6c0,0,0,0,0,0l-0.2,2.6l0.4-2.6c0,0,0,0,0,0l-0.4,2.6l0.6-2.6c0,0,0,0,0,0
			l-0.6,2.6l0.9-2.5c0,0,0,0,0,0l-0.9,2.5l1.1-2.4c0,0,0,0,0,0l-1.1,2.4l1.3-2.3c0,0,0,0,0,0c0,0,0,0,0,0l-1.3,2.3l1.5-2.2
			c0,0,0,0,0,0l-1.5,2.2l1.7-2.1c0,0,0,0,0,0l-1.7,2.1l1.8-1.9c0,0,0,0,0,0l-1.8,1.9l2-1.7c0,0,0,0,0,0l-2,1.7l2.1-1.6c0,0,0,0,0,0
			l-2.1,1.6l2.3-1.4c0,0,0,0,0,0l-2.3,1.4l2.4-1.2c0,0,0,0,0,0l-2.4,1.2l2.5-0.9c0,0,0,0,0,0l-2.5,0.9l2.5-0.7c0,0,0,0,0,0l-2.5,0.7
			l2.6-0.5c0,0,0,0,0,0l-2.6,0.5l2.6-0.3c0,0,0,0,0,0l-2.6,0.3l2.6,0c0,0,0,0,0,0l-2.6,0l2.6,0.2c0,0,0,0,0,0l-2.6-0.2l2.6,0.4
			c0,0,0,0,0,0l-2.6-0.4l2.6,0.6c0,0,0,0,0,0L166.4,166.4l2.5,0.8c0,0,0,0,0,0L166.4,166.4l2.4,1c0,0,0,0,0,0L166.4,166.4z"/>
		<ellipse transform="matrix(0.4843 -0.8749 0.8749 0.4843 -59.8326 230.9875)" class="st55" cx="166" cy="166.2" rx="3" ry="3"/>
		
			<linearGradient id="SVGID_34_" gradientUnits="userSpaceOnUse" x1="666.6263" y1="455.4559" x2="670.6036" y2="459.4333" gradientTransform="matrix(0.8749 0.4843 -0.4843 0.8749 -197.4462 -557.7686)">
			<stop  offset="0" style="stop-color:#FFC20E"/>
			<stop  offset="6.272547e-02" style="stop-color:#E9AC12"/>
			<stop  offset="0.147" style="stop-color:#D69813"/>
			<stop  offset="0.2011" style="stop-color:#CF9112"/>
		</linearGradient>
		<circle class="st89" cx="166" cy="166.2" r="2.8"/>
	</g>
	<path class="st55" d="M164.7,168.6c-1.3-0.7-1.8-2.4-1.1-3.7c0.7-1.3,2.4-1.8,3.7-1.1c1.3,0.7,1.8,2.4,1.1,3.7
		C167.7,168.9,166,169.4,164.7,168.6z M167.3,163.9c-1.3-0.7-3-0.2-3.7,1.1s-0.2,3,1.1,3.7c1.3,0.7,3,0.2,3.7-1.1
		C169.1,166.3,168.6,164.6,167.3,163.9z"/>
</g>
<g>
	<g>
		
			<ellipse transform="matrix(0.2007 -0.9796 0.9796 0.2007 10.2591 233.0486)" class="st65" cx="148" cy="110.2" rx="3.2" ry="3.2"/>
		
			<linearGradient id="SVGID_35_" gradientUnits="userSpaceOnUse" x1="302.0132" y1="271.4767" x2="308.1053" y2="271.4767" gradientTransform="matrix(0.9796 0.2007 -0.2007 0.9796 -96.403 -216.9466)">
			<stop  offset="0" style="stop-color:#916600"/>
			<stop  offset="3.335160e-02" style="stop-color:#986A01"/>
			<stop  offset="0.1536" style="stop-color:#AB7909"/>
			<stop  offset="0.2886" style="stop-color:#BB840E"/>
			<stop  offset="0.4444" style="stop-color:#C78C11"/>
			<stop  offset="0.6398" style="stop-color:#CD9012"/>
			<stop  offset="1" style="stop-color:#CF9112"/>
		</linearGradient>
		<circle class="st90" cx="148" cy="110.2" r="3"/>
		
			<linearGradient id="SVGID_36_" gradientUnits="userSpaceOnUse" x1="308.1053" y1="271.4767" x2="302.0132" y2="271.4767" gradientTransform="matrix(0.9796 0.2007 -0.2007 0.9796 -96.403 -216.9466)">
			<stop  offset="0" style="stop-color:#FFC20E"/>
			<stop  offset="1" style="stop-color:#CF9112"/>
		</linearGradient>
		<path class="st91" d="M148.4,110.3l2.6,0.5c0,0,0,0,0,0c0,0,0,0,0,0L148.4,110.3l2.5,0.8c0,0,0,0,0,0L148.4,110.3l2.4,1
			c0,0,0,0,0,0l-2.4-1l2.4,1.2c0,0,0,0,0,0l-2.4-1.2l2.2,1.4c0,0,0,0,0,0l-2.2-1.4l2.1,1.6c0,0,0,0,0,0l-2.1-1.6l2,1.7c0,0,0,0,0,0
			l-2-1.7l1.8,1.9c0,0,0,0,0,0l-1.8-1.9l1.6,2.1c0,0,0,0,0,0l-1.6-2.1l1.4,2.2c0,0,0,0,0,0l-1.4-2.2l1.3,2.3c0,0,0,0,0,0l-1.3-2.3
			l1,2.4c0,0,0,0,0,0l-1-2.4l0.8,2.5c0,0,0,0,0,0l-0.8-2.5l0.6,2.6c0,0,0,0,0,0l-0.6-2.6l0.4,2.6c0,0,0,0,0,0l-0.4-2.6l0.2,2.6
			c0,0,0,0,0,0l-0.2-2.6l-0.1,2.6c0,0,0,0,0,0l0.1-2.6l-0.3,2.6c0,0,0,0,0,0l0.3-2.6l-0.5,2.6c0,0,0,0,0,0c0,0,0,0,0,0l0.5-2.6
			l-0.7,2.5c0,0,0,0,0,0l0.8-2.5l-1,2.4c0,0,0,0,0,0l1-2.4l-1.2,2.4c0,0,0,0,0,0l1.2-2.4l-1.4,2.2c0,0,0,0,0,0l1.4-2.2l-1.6,2.1
			c0,0,0,0,0,0l1.6-2.1l-1.7,2c0,0,0,0,0,0l1.7-2l-1.9,1.8c0,0,0,0,0,0l1.9-1.8l-2.1,1.6c0,0,0,0,0,0l2.1-1.6l-2.2,1.5c0,0,0,0,0,0
			l2.2-1.5l-2.3,1.3c0,0,0,0,0,0l2.3-1.3l-2.4,1c0,0,0,0,0,0l2.4-1l-2.5,0.8c0,0,0,0,0,0l2.5-0.8L145,111c0,0,0,0,0,0l2.6-0.6
			l-2.6,0.4c0,0,0,0,0,0l2.6-0.4l-2.6,0.2c0,0,0,0,0,0l2.6-0.2l-2.6-0.1c0,0,0,0,0,0l2.6,0.1l-2.6-0.3c0,0,0,0,0,0l2.6,0.3l-2.6-0.5
			c0,0,0,0,0,0c0,0,0,0,0,0l2.6,0.5l-2.5-0.8c0,0,0,0,0,0l2.5,0.8l-2.5-1c0,0,0,0,0,0l2.5,1l-2.4-1.2c0,0,0,0,0,0l2.4,1.2l-2.3-1.4
			c0,0,0,0,0,0l2.3,1.4l-2.1-1.6c0,0,0,0,0,0l2.1,1.6l-2-1.8c0,0,0,0,0,0l2,1.8l-1.8-1.9c0,0,0,0,0,0l1.8,1.9l-1.6-2.1c0,0,0,0,0,0
			l1.6,2.1l-1.5-2.2c0,0,0,0,0,0l1.5,2.2l-1.3-2.3c0,0,0,0,0,0l1.3,2.3l-1.1-2.4c0,0,0,0,0,0l1.1,2.4l-0.8-2.5c0,0,0,0,0,0l0.8,2.5
			l-0.6-2.6c0,0,0,0,0,0l0.6,2.6l-0.4-2.6c0,0,0,0,0,0l0.4,2.6l-0.2-2.6c0,0,0,0,0,0l0.2,2.6l0.1-2.6c0,0,0,0,0,0l-0.1,2.6l0.3-2.6
			c0,0,0,0,0,0l-0.3,2.6l0.5-2.6c0,0,0,0,0,0c0,0,0,0,0,0l-0.5,2.6l0.8-2.5c0,0,0,0,0,0l-0.8,2.5l1-2.5c0,0,0,0,0,0l-1,2.5l1.2-2.4
			c0,0,0,0,0,0l-1.2,2.4l1.4-2.3c0,0,0,0,0,0l-1.4,2.3l1.6-2.1c0,0,0,0,0,0l-1.6,2.1l1.8-2c0,0,0,0,0,0l-1.8,2l1.9-1.8c0,0,0,0,0,0
			l-1.9,1.8l2.1-1.6c0,0,0,0,0,0l-2.1,1.6l2.2-1.5c0,0,0,0,0,0l-2.2,1.5l2.3-1.3c0,0,0,0,0,0l-2.3,1.3l2.4-1c0,0,0,0,0,0l-2.4,1
			l2.5-0.8c0,0,0,0,0,0l-2.5,0.8l2.6-0.6c0,0,0,0,0,0l-2.6,0.6l2.6-0.4c0,0,0,0,0,0l-2.6,0.4l2.6-0.2c0,0,0,0,0,0L148.4,110.3l2.6,0
			c0,0,0,0,0,0L148.4,110.3l2.6,0.3c0,0,0,0,0,0L148.4,110.3z"/>
		<ellipse transform="matrix(0.2007 -0.9796 0.9796 0.2007 10.2584 233.0525)" class="st55" cx="148" cy="110.2" rx="3" ry="3"/>
		
			<linearGradient id="SVGID_37_" gradientUnits="userSpaceOnUse" x1="303.0717" y1="269.4883" x2="307.0491" y2="273.4657" gradientTransform="matrix(0.9796 0.2007 -0.2007 0.9796 -96.403 -216.9466)">
			<stop  offset="0" style="stop-color:#FFC20E"/>
			<stop  offset="6.272547e-02" style="stop-color:#E9AC12"/>
			<stop  offset="0.147" style="stop-color:#D69813"/>
			<stop  offset="0.2011" style="stop-color:#CF9112"/>
		</linearGradient>
		<circle class="st92" cx="148" cy="110.2" r="2.8"/>
	</g>
	<path class="st55" d="M147.4,112.9c-1.5-0.3-2.4-1.8-2.1-3.2c0.3-1.5,1.8-2.4,3.2-2.1c1.5,0.3,2.4,1.8,2.1,3.2
		C150.3,112.3,148.9,113.2,147.4,112.9z M148.5,107.6c-1.5-0.3-2.9,0.6-3.2,2.1c-0.3,1.5,0.6,2.9,2.1,3.2c1.5,0.3,2.9-0.6,3.2-2.1
		C150.9,109.3,150,107.9,148.5,107.6z"/>
</g>
<g>
	<g>
		<path class="st5" d="M116.4,124.5c0.6-0.5,1-1.2,1.9-1.9c0.7-0.5,1.6,0-0.4,1.2c1.1,0.4,2.4-1,2.9-0.1c0.3,0.6,0.6,1.9-1.9,2.4
			c-0.7,0.2-1,0.1-1.9,0.2l-1.4-0.8L116.4,124.5z"/>
		<path class="st26" d="M95.3,118.2c4.6,3.9,7.2,7.7,21.1,6.2l0.6,1.9c-7.1,1.2-17,1.4-24.2-5.4C91.2,119.3,93.9,116.7,95.3,118.2z"
			/>
	</g>
	<g>
		<path class="st7" d="M105.4,110.9l8,0.6l8-0.6l-2,15.5c-0.1,0.7-2.7,1.1-6,1.1c-3.3,0-5.9-0.4-6-1.1
			C107.4,126.4,105.4,110.9,105.4,110.9z"/>
		<g>
			<path class="st61" d="M115.1,111.4l3.9-0.3l-1.3,16.1c-0.8,0.1-1.9,0.2-3.1,0.3L115.1,111.4z"/>
		</g>
		<ellipse class="st9" cx="113.4" cy="110.9" rx="8" ry="1.3"/>
		<ellipse class="st43" cx="113.4" cy="110.9" rx="7.7" ry="1.2"/>
		<path class="st34" d="M113.4,124.4c-2.3,0-4.4-0.9-5.9-2.6c-1.6-1.8-2.5-4.4-2.5-7.5v-2h0.5v2c0,6.6,3.9,9.5,7.8,9.5
			c3.9,0,7.8-3,7.8-9.5v-2.2h0.5v2.2c0,3.1-0.9,5.7-2.5,7.5C117.8,123.5,115.7,124.4,113.4,124.4z"/>
	</g>
	<g>
		<g>
			<g>
				<polygon class="st5" points="89.1,107.8 95.4,109.6 92.7,111.2 96.8,117.4 87,120.6 82.7,108.8 87.5,106.1 				"/>
				<g>
					<path class="st6" d="M94,115.5l-0.1-0.2c-1,0.6-2.7,0.8-3.9,0l-0.1,0.2C91.1,116.3,92.9,116.1,94,115.5z"/>
				</g>
				<g>
					<path class="st26" d="M89.3,104.5l-0.1,3.3l-3.6,2.6l0.1,2.2c-0.1,0-0.1,0-0.2,0c-0.5,0.2-0.7,0.7-0.5,1.2
						c0.1,0.3,0.4,0.6,0.8,0.6l0.2,3.2l-4-8.4L89.3,104.5z"/>
				</g>
			</g>
			
				<rect x="88.7" y="109.6" transform="matrix(9.012783e-02 -0.9959 0.9959 9.012783e-02 -29.7715 189.5521)" class="st6" width="0.3" height="3"/>
		</g>
		<polygon class="st26" points="90.7,145.5 78.9,176 85,176 82.4,173.3 97.8,146 92.9,142.9 		"/>
		<polygon class="st26" points="93.8,145.9 104,158.3 103.6,176 110.1,176 106.2,173.2 108.1,157.9 100.7,144 97,142.9 		"/>
		<path class="st26" d="M96.8,117.4c4.8,9.7,5.1,19.2,3.7,27.5l-9.9,0.7c0.4-11-1.4-16.3-3.8-25.5L96.8,117.4z"/>
		<g>
			<path class="st3" d="M91,122.2c3.4,4.5,6.7,6.8,9.8,7.7c0.1,0.9,0.2,1.8,0.3,2.7c-4.4-0.7-8.8-3.1-12.9-8
				c-0.1-0.1-0.2-0.2-0.3-0.3c-0.2-0.6-0.3-1.3-0.5-2C87.7,120.9,89.2,120.2,91,122.2z"/>
		</g>
		<polygon class="st7" points="96.2,118.1 92.5,119.1 95,121.6 96.8,140.4 99.3,143.1 101,139.6 96,121.2 		"/>
		<g>
			<path class="st43" d="M98.1,128.7l0.9,3.4c-1-0.3-2-0.7-3-1.2l-0.4-3.9C96.4,127.7,97.2,128.3,98.1,128.7z"/>
		</g>
		<path class="st5" d="M111.7,128c0.3-0.4,0.5-0.4,1.2-1.3c0.6-0.8,1.5-0.5,0.2,0.9c1.3,0.2,1.9-1,2.6-0.1c0.4,0.5,0.8,1.7-0.8,2
			c-1.3,0.2-2.1,0.2-2.6,0.1l-1.5-0.8L111.7,128z"/>
		<path class="st26" d="M91,121.2c7.6,9.9,14.1,9,20.8,6.7l0.6,1.8c-7.4,3.6-16.4,3.1-24.1-6C86.2,121.3,88.4,118.3,91,121.2z"/>
	</g>
</g>
<path class="st7" d="M176.5,50.9c0.1-9.5-7.6-17.2-17.1-17.3c-1.3,0-2.5,0.1-3.7,0.4c-1.9-7.3-8.6-12.8-16.5-12.8
	c-7.8,0-14.5,5.2-16.6,12.3c-6.5,0.6-11.9,4.9-14.3,10.7c-0.4-0.1-0.9-0.1-1.3-0.1c-6.5,0-11.8,5.2-11.8,11.7
	c0,6.5,5.2,11.8,11.7,11.8c0.1,0,52.7,0.3,52.7,0.3l0,0C168.9,67.9,176.5,60.3,176.5,50.9z"/>
</svg>
