<?xml version="1.0" encoding="utf-8"?>
<!-- Generator: Adobe Illustrator 21.1.0, SVG Export Plug-In . SVG Version: 6.00 Build 0)  -->
<!DOCTYPE svg PUBLIC "-//W3C//DTD SVG 1.1//EN" "http://www.w3.org/Graphics/SVG/1.1/DTD/svg11.dtd">
<svg version="1.1" id="Layer_1" xmlns="http://www.w3.org/2000/svg" xmlns:xlink="http://www.w3.org/1999/xlink" x="0px" y="0px"
	 viewBox="0 0 286 286" style="enable-background:new 0 0 286 286;" xml:space="preserve">
<style type="text/css">
	.st0{clip-path:url(#SVGID_2_);fill:#4298B5;}
	.st1{clip-path:url(#SVGID_2_);}
	.st2{fill:#DB5C1E;}
	.st3{fill:#002B44;}
	.st4{fill:#003F5C;}
	.st5{fill:#EB6479;}
	.st6{fill:#223129;}
	.st7{fill:#FFFFFF;}
	.st8{fill:#D55A6E;}
	.st9{fill:#D8E2E7;}
	.st10{fill:#939598;}
	.st11{fill:#727D84;}
	.st12{fill:#4298B5;}
	.st13{fill:#E4D5B4;}
	.st14{fill:#CEBFA3;}
	.st15{fill:#EDE0C6;}
	.st16{fill:#3D302D;}
	.st17{fill:#D6C6A6;}
	.st18{fill:#C6B597;}
	.st19{fill:#826754;}
	.st20{fill:#91CEC4;}
	.st21{fill:#D3A98C;}
	.st22{fill:#AD886F;}
	.st23{fill:#896D59;}
	.st24{fill:#EA7442;}
	.st25{fill:#D15F36;}
	.st26{fill:#003E5A;}
	.st27{fill:#243129;}
	.st28{fill:#4077A2;}
	.st29{fill:#0F3644;}
	.st30{fill:#6C707A;}
	.st31{fill:url(#SVGID_3_);}
	.st32{fill:#8AACBD;}
	.st33{fill:#E6EBEE;}
	.st34{fill:#C3D4DD;}
	.st35{fill:#F37029;}
	.st36{fill:#004B6B;}
	.st37{fill:#282829;}
	.st38{fill:#BACAD3;}
	.st39{fill:#9EB3BE;}
	.st40{fill:#27688F;}
	.st41{fill:#005376;}
	.st42{fill:#2B75A2;}
	.st43{fill:#AFC6D2;}
	.st44{fill:url(#SVGID_4_);}
	.st45{fill:#E9E8D8;}
	.st46{fill:#818277;}
	.st47{fill:#63665D;}
	.st48{fill:#B4B39A;}
	.st49{fill:url(#SVGID_5_);}
	.st50{fill:url(#SVGID_6_);}
	.st51{fill:url(#SVGID_7_);}
	.st52{fill:url(#SVGID_8_);}
	.st53{fill:url(#SVGID_9_);}
	.st54{fill:url(#SVGID_10_);}
	.st55{fill:#FFC20E;}
	.st56{fill:#916600;}
	.st57{fill:#A7BDC9;}
	.st58{fill:#8E2833;}
	.st59{fill:#721B25;}
	.st60{fill:#00547A;}
	.st61{fill:#F1F2F2;}
	.st62{fill:#6F6598;}
	.st63{fill:#4B436A;}
	.st64{fill:#F27129;}
	.st65{fill:#A57406;}
	.st66{fill:url(#SVGID_11_);}
	.st67{fill:url(#SVGID_12_);}
	.st68{fill:url(#SVGID_13_);}
	.st69{fill:url(#SVGID_14_);}
	.st70{fill:url(#SVGID_15_);}
	.st71{fill:url(#SVGID_16_);}
	.st72{fill:url(#SVGID_17_);}
	.st73{fill:url(#SVGID_18_);}
	.st74{fill:url(#SVGID_19_);}
	.st75{fill:url(#SVGID_20_);}
	.st76{fill:url(#SVGID_21_);}
	.st77{fill:url(#SVGID_22_);}
	.st78{fill:url(#SVGID_23_);}
	.st79{fill:url(#SVGID_24_);}
	.st80{fill:url(#SVGID_25_);}
	.st81{fill:url(#SVGID_26_);}
	.st82{fill:url(#SVGID_27_);}
	.st83{fill:url(#SVGID_28_);}
	.st84{fill:url(#SVGID_29_);}
	.st85{fill:url(#SVGID_30_);}
	.st86{fill:url(#SVGID_31_);}
	.st87{fill:url(#SVGID_32_);}
	.st88{fill:url(#SVGID_33_);}
	.st89{fill:url(#SVGID_34_);}
	.st90{fill:url(#SVGID_35_);}
	.st91{fill:url(#SVGID_36_);}
	.st92{fill:url(#SVGID_37_);}
	.st93{fill:url(#SVGID_38_);}
	.st94{fill:url(#SVGID_39_);}
	.st95{fill:url(#SVGID_40_);}
	.st96{fill:url(#SVGID_41_);}
	.st97{fill:url(#SVGID_42_);}
	.st98{fill:url(#SVGID_43_);}
	.st99{fill:url(#SVGID_44_);}
	.st100{fill:url(#SVGID_45_);}
	.st101{fill:url(#SVGID_46_);}
	.st102{fill:#F9F1D7;}
	.st103{fill:#6E7980;stroke:#58595B;stroke-width:0.4225;stroke-linecap:round;stroke-linejoin:round;}
	.st104{fill:#DF9CB0;}
	.st105{fill:#C37A8C;}
	.st106{fill:#C29F60;}
	.st107{fill:#FFFFFF;stroke:#D0ECF4;stroke-width:0.4225;}
	.st108{fill:url(#SVGID_47_);}
	.st109{fill:url(#SVGID_48_);}
	.st110{fill:url(#SVGID_49_);stroke:#FFFFFF;stroke-width:2.1123;}
	.st111{fill:#9F2214;}
	.st112{fill:url(#SVGID_50_);stroke:#FFFFFF;stroke-width:2.1123;}
	.st113{fill:#4A7195;}
	.st114{fill:#C13D2E;}
	.st115{fill:#7989A3;stroke:#FFFFFF;stroke-width:2.1123;}
	.st116{fill:#FFCF01;}
	.st117{fill:url(#SVGID_51_);stroke:#FFFFFF;stroke-width:2.1123;}
	.st118{fill:url(#SVGID_52_);stroke:#FFFFFF;stroke-width:2.1123;}
	.st119{fill:url(#SVGID_53_);stroke:#FFFFFF;stroke-width:2.1123;}
	.st120{fill:#876041;}
	.st121{fill:#DAC895;stroke:#F7E8BA;stroke-width:0.4225;}
	.st122{fill:#4B545B;}
	.st123{fill:#3E6D93;}
	.st124{fill:#476F93;}
	.st125{fill:#CAB47E;}
	.st126{fill:#F7E8BA;}
	.st127{fill:#C2A171;}
	.st128{fill:#D0ECF4;}
	.st129{fill:#EFE4AC;}
	.st130{fill:#5980A2;}
	.st131{fill:#17738F;}
	.st132{fill:#B1D45E;}
	.st133{fill:#8CC540;stroke:#221F1F;stroke-width:0.2168;stroke-linejoin:round;stroke-miterlimit:10;}
	.st134{fill:#58595B;}
	.st135{fill:#797A7D;}
	.st136{fill:#BF86A8;}
	.st137{fill:#302B2C;}
	.st138{fill:#48484A;}
	.st139{fill:#72A087;}
	.st140{fill:#94B0BE;}
	.st141{fill:#09723B;}
	.st142{fill:#00A14B;}
	.st143{fill:#004766;}
	.st144{fill:#00354F;}
	.st145{fill:#005B80;}
	.st146{fill:#002F3E;}
	.st147{fill:#3F4450;}
	.st148{fill:#2A6A7F;}
	.st149{fill:url(#SVGID_54_);}
	.st150{fill:#2C3038;}
	.st151{fill:#CACFD1;}
	.st152{fill:#343943;}
	.st153{fill:#27667A;}
	.st154{fill:none;stroke:#243129;stroke-width:0.3823;stroke-miterlimit:10;}
	.st155{fill:#333333;}
	.st156{fill:#E5E8DD;}
	.st157{fill:#767877;}
	.st158{fill:#545554;}
	.st159{fill:#F8E1C7;}
	.st160{fill:#5A5048;}
	.st161{fill:#604373;}
	.st162{fill:none;}
	.st163{fill:#9DB9C8;}
	.st164{fill:#235F83;}
	.st165{fill:#CF473A;}
	.st166{fill:#B4A680;}
	.st167{fill:url(#SVGID_55_);}
	.st168{fill:url(#SVGID_56_);}
	.st169{fill:url(#SVGID_57_);}
	.st170{fill:url(#SVGID_58_);}
	.st171{fill:url(#SVGID_59_);}
	.st172{fill:url(#SVGID_60_);}
	.st173{fill:url(#SVGID_61_);}
	.st174{fill:url(#SVGID_62_);}
	.st175{fill:url(#SVGID_63_);}
	.st176{fill:url(#SVGID_64_);}
	.st177{fill:url(#SVGID_65_);}
	.st178{fill:url(#SVGID_66_);}
	.st179{fill:url(#SVGID_67_);}
	.st180{fill:url(#SVGID_68_);}
	.st181{fill:url(#SVGID_69_);}
	.st182{fill:url(#SVGID_70_);}
	.st183{fill:url(#SVGID_71_);}
	.st184{fill:url(#SVGID_72_);}
	.st185{fill:url(#SVGID_73_);}
	.st186{fill:url(#SVGID_74_);}
	.st187{fill:url(#SVGID_75_);}
	.st188{fill:url(#SVGID_76_);}
	.st189{fill:url(#SVGID_77_);}
	.st190{fill:url(#SVGID_78_);}
	.st191{fill:url(#SVGID_79_);}
	.st192{fill:url(#SVGID_80_);}
	.st193{fill:url(#SVGID_81_);}
	.st194{fill:url(#SVGID_82_);}
	.st195{fill:url(#SVGID_83_);}
	.st196{fill:url(#SVGID_84_);}
	.st197{fill:url(#SVGID_85_);}
	.st198{fill:url(#SVGID_86_);}
	.st199{fill:url(#SVGID_87_);}
	.st200{fill:url(#SVGID_88_);}
	.st201{fill:url(#SVGID_89_);}
	.st202{fill:url(#SVGID_90_);}
	.st203{fill:url(#SVGID_91_);}
	.st204{fill:url(#SVGID_92_);}
	.st205{fill:url(#SVGID_93_);}
	.st206{fill:url(#SVGID_94_);}
	.st207{fill:url(#SVGID_95_);}
	.st208{fill:url(#SVGID_96_);}
	.st209{fill:url(#SVGID_97_);}
	.st210{fill:url(#SVGID_98_);}
	.st211{fill:url(#SVGID_99_);}
	.st212{fill:url(#SVGID_100_);}
	.st213{fill:url(#SVGID_101_);}
	.st214{fill:url(#SVGID_102_);}
	.st215{fill:url(#SVGID_103_);}
	.st216{fill:url(#SVGID_104_);}
	.st217{fill:url(#SVGID_105_);}
	.st218{fill:url(#SVGID_106_);}
	.st219{fill:url(#SVGID_107_);}
	.st220{fill:url(#SVGID_108_);}
	.st221{fill:url(#SVGID_109_);}
	.st222{fill:url(#SVGID_110_);}
	.st223{fill:url(#SVGID_111_);}
	.st224{fill:url(#SVGID_112_);}
	.st225{fill:url(#SVGID_113_);}
	.st226{fill:url(#SVGID_114_);}
	.st227{fill:url(#SVGID_115_);}
	.st228{fill:url(#SVGID_116_);}
	.st229{fill:url(#SVGID_117_);}
	.st230{fill:url(#SVGID_118_);}
	.st231{fill:url(#SVGID_119_);}
	.st232{fill:url(#SVGID_120_);}
	.st233{fill:url(#SVGID_121_);}
	.st234{fill:url(#SVGID_122_);}
	.st235{fill:#F7D9A8;}
	.st236{fill:#EE93B9;}
</style>
<circle class="st12" cx="143" cy="143" r="143"/>
<g>
	<path class="st7" d="M42.7,208.3L39.8,198h-0.1c0.1,1.8,0.2,3.1,0.2,4.1v6.2h-3.4v-14.3h5.1l3,10.1h0.1l2.9-10.1h5.1v14.3h-3.5
		v-6.3c0-0.3,0-0.7,0-1.1s0.1-1.4,0.1-2.9h-0.1l-2.9,10.3H42.7z"/>
	<path class="st7" d="M62.8,208.3l-0.7-1.5H62c-0.5,0.6-1,1.1-1.6,1.3s-1.2,0.4-2.1,0.4c-1,0-1.9-0.3-2.5-0.9S55,206.1,55,205
		c0-1.2,0.4-2.1,1.2-2.6s2-0.9,3.6-1l1.8-0.1v-0.2c0-0.9-0.4-1.4-1.3-1.4c-0.8,0-1.8,0.3-3.1,0.8l-1.1-2.5c1.3-0.7,2.9-1,4.9-1
		c1.4,0,2.5,0.4,3.3,1.1s1.2,1.7,1.2,2.9v7.3H62.8z M60,205.8c0.5,0,0.9-0.1,1.2-0.4s0.5-0.7,0.5-1.1v-0.9l-0.9,0
		c-1.3,0-1.9,0.5-1.9,1.4C58.9,205.5,59.2,205.8,60,205.8z"/>
	<path class="st7" d="M74.7,197.1c0.3,0,0.6,0,0.9,0.1l0.2,0l-0.3,3.6c-0.3-0.1-0.7-0.1-1.3-0.1c-0.8,0-1.4,0.2-1.8,0.6
		s-0.6,0.9-0.6,1.6v5.4H68v-11.1h2.8l0.6,1.8h0.2c0.3-0.6,0.8-1.1,1.3-1.4S74.1,197.1,74.7,197.1z"/>
	<path class="st7" d="M84.1,197.1c0.3,0,0.6,0,0.9,0.1l0.2,0l-0.3,3.6c-0.3-0.1-0.7-0.1-1.3-0.1c-0.8,0-1.4,0.2-1.8,0.6
		s-0.6,0.9-0.6,1.6v5.4h-3.8v-11.1h2.8l0.6,1.8H81c0.3-0.6,0.8-1.1,1.3-1.4S83.5,197.1,84.1,197.1z"/>
	<path class="st7" d="M86.7,194.5c0-0.6,0.2-1,0.5-1.3s0.8-0.4,1.5-0.4s1.2,0.1,1.6,0.4s0.5,0.7,0.5,1.3c0,1.1-0.7,1.7-2,1.7
		C87.4,196.2,86.7,195.6,86.7,194.5z M90.6,208.3h-3.8v-11.1h3.8V208.3z"/>
	<path class="st7" d="M100.5,208.3l-0.7-1.5h-0.1c-0.5,0.6-1,1.1-1.6,1.3s-1.2,0.4-2.1,0.4c-1,0-1.9-0.3-2.5-0.9s-0.9-1.5-0.9-2.6
		c0-1.2,0.4-2.1,1.2-2.6s2-0.9,3.6-1l1.8-0.1v-0.2c0-0.9-0.4-1.4-1.3-1.4c-0.8,0-1.8,0.3-3.1,0.8l-1.1-2.5c1.3-0.7,2.9-1,4.9-1
		c1.4,0,2.5,0.4,3.3,1.1s1.2,1.7,1.2,2.9v7.3H100.5z M97.7,205.8c0.5,0,0.9-0.1,1.2-0.4s0.5-0.7,0.5-1.1v-0.9l-0.9,0
		c-1.3,0-1.9,0.5-1.9,1.4C96.6,205.5,97,205.8,97.7,205.8z"/>
	<path class="st7" d="M116.2,197.3v1.8l-1.5,0.6c0.2,0.4,0.3,0.8,0.3,1.3c0,1.2-0.4,2.1-1.3,2.8s-2.1,1-3.7,1c-0.4,0-0.7,0-1-0.1
		c-0.1,0.2-0.1,0.3-0.1,0.5c0,0.2,0.2,0.3,0.5,0.4s0.7,0.2,1.2,0.2h1.8c2.5,0,3.7,1,3.7,3.1c0,1.3-0.6,2.4-1.7,3.1s-2.8,1.1-4.8,1.1
		c-1.6,0-2.8-0.3-3.6-0.8s-1.3-1.3-1.3-2.3c0-1.3,0.8-2.2,2.5-2.6c-0.3-0.1-0.6-0.4-0.9-0.7s-0.4-0.6-0.4-0.9c0-0.3,0.1-0.6,0.3-0.9
		s0.6-0.6,1.2-0.9c-0.6-0.3-1-0.7-1.4-1.2s-0.5-1.2-0.5-2c0-1.2,0.4-2.1,1.2-2.8s2-1,3.5-1c0.2,0,0.6,0,1,0.1s0.9,0.1,1.1,0.1H116.2
		z M107.9,209.7c0,0.3,0.2,0.6,0.5,0.8s0.8,0.3,1.4,0.3c0.9,0,1.7-0.1,2.2-0.3s0.8-0.5,0.8-0.9c0-0.3-0.2-0.5-0.5-0.6
		s-0.8-0.2-1.5-0.2h-1.5c-0.4,0-0.8,0.1-1,0.3S107.9,209.4,107.9,209.7z M109.1,200.9c0,1.1,0.4,1.7,1.2,1.7c0.4,0,0.6-0.1,0.8-0.4
		s0.3-0.7,0.3-1.3c0-1.1-0.4-1.7-1.1-1.7C109.5,199.2,109.1,199.8,109.1,200.9z"/>
	<path class="st7" d="M123.2,208.5c-1.8,0-3.3-0.5-4.3-1.5s-1.5-2.4-1.5-4.2c0-1.9,0.5-3.3,1.4-4.3s2.3-1.5,4-1.5
		c1.7,0,3,0.4,3.9,1.3s1.4,2.1,1.4,3.8v1.7h-6.8c0,0.6,0.3,1.1,0.7,1.5s1,0.5,1.7,0.5c0.7,0,1.3-0.1,1.9-0.2s1.2-0.3,1.8-0.6v2.7
		c-0.6,0.3-1.2,0.5-1.9,0.6S124.1,208.5,123.2,208.5z M123,199.7c-0.4,0-0.8,0.1-1.1,0.4s-0.5,0.7-0.5,1.3h3.3c0-0.5-0.2-1-0.5-1.3
		S123.5,199.7,123,199.7z"/>
	<path class="st7" d="M147.8,200.9c0,2.4-0.7,4.2-2,5.5c-1.3,1.3-3.2,1.9-5.5,1.9h-4.6v-14.3h4.9c2.3,0,4.1,0.6,5.3,1.8
		C147.2,197,147.8,198.7,147.8,200.9z M143.8,201c0-1.3-0.3-2.3-0.8-2.9s-1.3-0.9-2.4-0.9h-1.1v8h0.9c1.2,0,2-0.3,2.6-1
		S143.8,202.4,143.8,201z"/>
	<path class="st7" d="M150,194.5c0-0.6,0.2-1,0.5-1.3c0.3-0.3,0.8-0.4,1.5-0.4c0.7,0,1.2,0.1,1.6,0.4c0.3,0.3,0.5,0.7,0.5,1.3
		c0,1.1-0.7,1.7-2,1.7C150.7,196.2,150,195.6,150,194.5z M154,208.3h-3.8v-11.1h3.8V208.3z"/>
	<path class="st7" d="M165.2,204.9c0,1.2-0.4,2.1-1.2,2.7c-0.8,0.6-2,0.9-3.5,0.9c-0.8,0-1.5,0-2.1-0.1s-1.2-0.2-1.9-0.5v-3.1
		c0.6,0.3,1.2,0.5,1.9,0.6c0.7,0.2,1.3,0.3,1.9,0.3c0.8,0,1.2-0.2,1.2-0.6c0-0.2-0.1-0.4-0.3-0.5c-0.2-0.2-0.9-0.5-2-0.9
		c-1-0.4-1.7-0.9-2.1-1.4c-0.4-0.5-0.6-1.2-0.6-2c0-1,0.4-1.8,1.2-2.4c0.8-0.6,1.9-0.9,3.4-0.9c0.7,0,1.4,0.1,2.1,0.2
		c0.6,0.2,1.3,0.4,2,0.7l-1,2.5c-0.5-0.2-1-0.4-1.6-0.6s-1-0.2-1.4-0.2c-0.6,0-0.9,0.2-0.9,0.5c0,0.2,0.1,0.3,0.3,0.5
		c0.2,0.1,0.8,0.4,1.9,0.8c0.8,0.3,1.4,0.6,1.7,0.9s0.7,0.7,0.8,1.1C165.1,203.8,165.2,204.3,165.2,204.9z"/>
	<path class="st7" d="M175.8,204.9c0,1.2-0.4,2.1-1.2,2.7c-0.8,0.6-2,0.9-3.5,0.9c-0.8,0-1.5,0-2.1-0.1s-1.2-0.2-1.9-0.5v-3.1
		c0.6,0.3,1.2,0.5,1.9,0.6c0.7,0.2,1.3,0.3,1.9,0.3c0.8,0,1.2-0.2,1.2-0.6c0-0.2-0.1-0.4-0.3-0.5c-0.2-0.2-0.9-0.5-2-0.9
		c-1-0.4-1.7-0.9-2.1-1.4c-0.4-0.5-0.6-1.2-0.6-2c0-1,0.4-1.8,1.2-2.4c0.8-0.6,1.9-0.9,3.4-0.9c0.7,0,1.4,0.1,2.1,0.2
		c0.6,0.2,1.3,0.4,2,0.7l-1,2.5c-0.5-0.2-1-0.4-1.6-0.6s-1-0.2-1.4-0.2c-0.6,0-0.9,0.2-0.9,0.5c0,0.2,0.1,0.3,0.3,0.5
		c0.2,0.1,0.8,0.4,1.9,0.8c0.8,0.3,1.4,0.6,1.7,0.9s0.7,0.7,0.8,1.1C175.7,203.8,175.8,204.3,175.8,204.9z"/>
	<path class="st7" d="M188.5,202.8c0,1.8-0.5,3.2-1.5,4.2c-1,1-2.3,1.5-4.1,1.5c-1.7,0-3-0.5-4-1.6c-1-1-1.5-2.4-1.5-4.2
		c0-1.8,0.5-3.2,1.5-4.2c1-1,2.3-1.5,4.1-1.5c1.1,0,2,0.2,2.9,0.7c0.8,0.5,1.5,1.1,1.9,2C188.3,200.6,188.5,201.6,188.5,202.8z
		 M181.3,202.8c0,1,0.1,1.7,0.4,2.2s0.7,0.7,1.3,0.7c0.6,0,1-0.2,1.3-0.7s0.4-1.2,0.4-2.2c0-0.9-0.1-1.7-0.4-2.1
		c-0.2-0.5-0.7-0.7-1.3-0.7c-0.6,0-1,0.2-1.3,0.7S181.3,201.8,181.3,202.8z"/>
	<path class="st7" d="M194.5,208.3h-3.8v-15.2h3.8V208.3z"/>
	<path class="st7" d="M205,208.3l-0.5-1.4h-0.2c-0.3,0.5-0.8,0.9-1.3,1.2c-0.6,0.3-1.2,0.4-2,0.4c-1.2,0-2.2-0.4-2.8-1.1
		c-0.7-0.7-1-1.7-1-3v-7.2h3.8v6c0,0.7,0.1,1.3,0.3,1.6s0.5,0.6,1,0.6c0.7,0,1.1-0.3,1.4-0.8c0.3-0.5,0.4-1.4,0.4-2.6v-4.8h3.8v11.1
		H205z"/>
	<path class="st7" d="M216,205.5c0.5,0,1.1-0.1,1.8-0.4v2.8c-0.5,0.2-1,0.4-1.5,0.5c-0.5,0.1-1,0.1-1.6,0.1c-1.3,0-2.2-0.3-2.8-0.9
		s-0.8-1.6-0.8-2.9v-4.6h-1.3v-1.6l1.7-1.2l1-2.3h2.5v2.2h2.7v2.9h-2.7v4.3C214.9,205.2,215.3,205.5,216,205.5z"/>
	<path class="st7" d="M219.7,194.5c0-0.6,0.2-1,0.5-1.3c0.3-0.3,0.8-0.4,1.5-0.4c0.7,0,1.2,0.1,1.6,0.4c0.3,0.3,0.5,0.7,0.5,1.3
		c0,1.1-0.7,1.7-2,1.7C220.4,196.2,219.7,195.6,219.7,194.5z M223.6,208.3h-3.8v-11.1h3.8V208.3z"/>
	<path class="st7" d="M236.8,202.8c0,1.8-0.5,3.2-1.5,4.2c-1,1-2.3,1.5-4.1,1.5c-1.7,0-3-0.5-4-1.6c-1-1-1.5-2.4-1.5-4.2
		c0-1.8,0.5-3.2,1.5-4.2c1-1,2.3-1.5,4.1-1.5c1.1,0,2,0.2,2.9,0.7c0.8,0.5,1.5,1.1,1.9,2C236.6,200.6,236.8,201.6,236.8,202.8z
		 M229.7,202.8c0,1,0.1,1.7,0.4,2.2s0.7,0.7,1.3,0.7c0.6,0,1-0.2,1.3-0.7s0.4-1.2,0.4-2.2c0-0.9-0.1-1.7-0.4-2.1
		c-0.2-0.5-0.7-0.7-1.3-0.7c-0.6,0-1,0.2-1.3,0.7S229.7,201.8,229.7,202.8z"/>
	<path class="st7" d="M246,208.3v-6c0-0.7-0.1-1.3-0.3-1.7c-0.2-0.4-0.6-0.6-1-0.6c-0.6,0-1.1,0.3-1.4,0.8c-0.3,0.5-0.4,1.4-0.4,2.6
		v4.8H239v-11.1h2.9l0.5,1.4h0.2c0.3-0.5,0.8-0.9,1.4-1.2s1.2-0.4,2-0.4c1.2,0,2.2,0.4,2.9,1.1c0.7,0.7,1,1.7,1,3v7.2H246z"/>
	<path class="st7" d="M97.2,226.6c0-1.9,0.2-3.6,0.7-5.1s1.1-2.8,2-3.9h3.2c-0.8,1.1-1.5,2.5-1.9,4s-0.7,3.2-0.7,5
		c0,1.7,0.2,3.3,0.6,4.8s1.1,2.9,1.9,4h-3.2c-0.9-1-1.6-2.3-2-3.8S97.2,228.5,97.2,226.6z"/>
	<path class="st7" d="M117.3,224.9c0,2.4-0.7,4.2-2,5.5s-3.2,1.9-5.5,1.9h-4.6v-14.3h4.9c2.3,0,4.1,0.6,5.3,1.8
		S117.3,222.7,117.3,224.9z M113.3,225c0-1.3-0.3-2.3-0.8-2.9s-1.3-0.9-2.4-0.9h-1.1v8h0.9c1.2,0,2-0.3,2.6-1S113.3,226.4,113.3,225
		z"/>
	<path class="st7" d="M119.6,218.5c0-0.6,0.2-1,0.5-1.3s0.8-0.4,1.5-0.4s1.2,0.1,1.6,0.4s0.5,0.7,0.5,1.3c0,1.1-0.7,1.7-2,1.7
		C120.3,220.2,119.6,219.6,119.6,218.5z M123.5,232.3h-3.8v-11.1h3.8V232.3z"/>
	<path class="st7" d="M129.1,232.3l-4.2-11.1h4l1.9,6.5c0,0,0,0.1,0,0.2s0,0.2,0.1,0.3s0,0.2,0.1,0.3s0,0.2,0,0.3h0.1
		c0-0.3,0.1-0.7,0.2-1.1l2-6.6h4l-4.2,11.1H129.1z"/>
	<path class="st7" d="M148.9,226.8c0,1.8-0.5,3.2-1.5,4.2c-1,1-2.3,1.5-4.1,1.5c-1.7,0-3-0.5-4-1.6s-1.5-2.4-1.5-4.2
		c0-1.8,0.5-3.2,1.5-4.2s2.3-1.5,4.1-1.5c1.1,0,2,0.2,2.9,0.7c0.8,0.5,1.5,1.1,1.9,2C148.7,224.6,148.9,225.6,148.9,226.8z
		 M141.8,226.8c0,1,0.1,1.7,0.4,2.2s0.7,0.7,1.3,0.7c0.6,0,1-0.2,1.3-0.7s0.4-1.2,0.4-2.2c0-0.9-0.1-1.7-0.4-2.1
		c-0.2-0.5-0.7-0.7-1.3-0.7c-0.6,0-1,0.2-1.3,0.7S141.8,225.8,141.8,226.8z"/>
	<path class="st7" d="M157.8,221.1c0.3,0,0.6,0,0.9,0.1l0.2,0l-0.3,3.6c-0.3-0.1-0.7-0.1-1.3-0.1c-0.8,0-1.4,0.2-1.8,0.6
		c-0.4,0.4-0.6,0.9-0.6,1.6v5.4h-3.8v-11.1h2.8l0.6,1.8h0.2c0.3-0.6,0.8-1.1,1.3-1.4C156.7,221.3,157.2,221.1,157.8,221.1z"/>
	<path class="st7" d="M165.5,232.5c-1.8,0-3.2-0.5-4.1-1.5c-0.9-1-1.4-2.4-1.4-4.2c0-1.8,0.5-3.3,1.5-4.3c1-1,2.4-1.5,4.3-1.5
		c1.3,0,2.5,0.3,3.6,0.8l-1.1,2.8c-0.5-0.2-0.9-0.4-1.3-0.5s-0.8-0.2-1.2-0.2c-0.6,0-1.1,0.2-1.4,0.7c-0.3,0.5-0.5,1.2-0.5,2
		c0,1.8,0.7,2.7,2,2.7c1.1,0,2.2-0.3,3.2-1v3C168.1,232.2,166.9,232.5,165.5,232.5z"/>
	<path class="st7" d="M176.6,232.5c-1.8,0-3.3-0.5-4.3-1.5c-1-1-1.5-2.4-1.5-4.2c0-1.9,0.5-3.3,1.4-4.3c0.9-1,2.3-1.5,4-1.5
		c1.7,0,3,0.4,3.9,1.3s1.4,2.1,1.4,3.8v1.7h-6.8c0,0.6,0.3,1.1,0.7,1.5c0.4,0.4,1,0.5,1.7,0.5c0.7,0,1.3-0.1,1.9-0.2
		c0.6-0.1,1.2-0.3,1.8-0.6v2.7c-0.6,0.3-1.2,0.5-1.9,0.6C178.3,232.5,177.5,232.5,176.6,232.5z M176.4,223.7c-0.4,0-0.8,0.1-1.1,0.4
		s-0.5,0.7-0.5,1.3h3.3c0-0.5-0.2-1-0.5-1.3C177.3,223.8,176.9,223.7,176.4,223.7z"/>
	<path class="st7" d="M188.8,226.6c0,1.8-0.2,3.5-0.7,5c-0.5,1.5-1.1,2.8-2,3.8h-3.2c0.8-1.1,1.4-2.4,1.9-4c0.4-1.5,0.7-3.2,0.7-4.9
		c0-1.7-0.2-3.4-0.6-4.9s-1.1-2.9-1.9-4.1h3.2c0.9,1.1,1.6,2.4,2.1,3.9C188.6,223.1,188.8,224.8,188.8,226.6z"/>
</g>
<g>
	<g>
		<path class="st140" d="M121.5,75.2L121.5,75.2C121.5,75.3,121.5,75.3,121.5,75.2L121.5,75.2z"/>
	</g>
	<g>
		<path class="st141" d="M86.6,132.9c0-6.9-7-12.5-15.5-12.5s-15.5,5.6-15.5,12.5c0,0.2,0,0.4,0,0.6c0,0.2,0,0.4,0,0.6
			c0,6.9,7,12.5,15.5,12.5s15.5-5.6,15.5-12.5c0-0.2,0-0.4,0-0.6C86.6,133.2,86.6,133,86.6,132.9z"/>
		<path class="st142" d="M77.8,137c-0.4,0-0.7,0.2-0.7,0.8v3.6c0,0.3-0.2,0.5-0.4,0.5h-6.5c-0.5,0-0.9,0.4-0.9,0.9h0v0
			c0,0,0,16.4,0,16.4c0,0,0,0,0,0c0,0,0,0,0,0v0h0c0,0.2,0.8,0.4,1.7,0.4c0.9,0,1.7-0.2,1.7-0.4h0v0l0,0l0,0v-14.7
			c0-0.5,0.3-0.9,0.8-0.9h3.2c0.7,0,1-0.4,1-1v-4.7c0-0.3,0.1-0.5,0.4-0.5h1.5V137H77.8z"/>
		<path class="st142" d="M59.2,133.8h4.1c0.5,0,0.9,0.3,0.9,0.8v2.3c0,0.3,0.2,0.4,0.5,0.4h1.7c0.7,0,1.1,0.3,1.1,1.2v5.3
			c0,0.5,0.2,0.8,0.8,0.8h1.4v1h-1.6c-0.8,0-1.3-0.5-1.3-1.6v-5.1c0-0.4,0-0.9-0.5-0.9h-1.8c-0.7,0-0.9-0.5-0.9-1.1v-2.2
			c0-0.4-0.1-0.7-0.6-0.7h-3.9V133.8z"/>
		<path class="st142" d="M80.5,123.2H77c-0.3,0-0.4,0.1-0.4,0.4v1.1c0,0.1-0.1,0.2-0.2,0.2h-0.8c-0.3,0-0.5,0.2-0.5,0.5v2.5
			c0,0.3-0.1,0.4-0.4,0.4H74v0.5h0.7c0.4,0,0.6-0.2,0.6-0.7v-2.4c0-0.2,0-0.4,0.2-0.4h0.8c0.3,0,0.4-0.2,0.4-0.5v-1
			c0-0.2,0-0.3,0.3-0.3h3.5V123.2z"/>
		<path class="st142" d="M68.9,127.1h-3.5c-0.3,0-0.4,0.1-0.4,0.4v1.1c0,0.1-0.1,0.2-0.2,0.2h-0.8c-0.3,0-0.5,0.2-0.5,0.5v2.5
			c0,0.3-0.1,0.4-0.4,0.4h-0.6v0.5H63c0.4,0,0.6-0.2,0.6-0.7v-2.4c0-0.2,0-0.4,0.2-0.4h0.8c0.3,0,0.4-0.2,0.4-0.5v-1
			c0-0.2,0-0.3,0.3-0.3h3.5V127.1z"/>
		<path class="st142" d="M74.1,123.6V138c0,0.7,0.3,0.8,0.7,0.8h2.5v0.5h-2.7c-0.8,0-0.9-0.5-0.9-1.2v-14.6H74.1z"/>
		<polygon class="st142" points="62.5,123.1 62.5,133.8 62.2,134 62.2,123.1 		"/>
		<path class="st142" d="M69.9,128.5v9.8c0,0.5-0.2,0.8-0.7,0.8h-1.8v-0.6h1.7c0.4,0,0.5-0.2,0.5-0.5v-9.6H69.9z"/>
		<path class="st142" d="M63,140.6v1.2c0,0.4,0.2,0.5,0.6,0.5h3.3v0.6h-3.3c-0.5,0-1-0.1-1-0.9v-1.4H63z"/>
		<path class="st142" d="M58.5,129v1.2c0,0.4,0.2,0.5,0.6,0.5h3.3v0.6h-3.3c-0.5,0-1-0.1-1-0.9V129H58.5z"/>
		<path class="st142" d="M70.1,123.6v1.2c0,0.4,0.2,0.5,0.6,0.5H74v0.6h-3.3c-0.5,0-1-0.1-1-0.9v-1.4H70.1z"/>
		<path class="st142" d="M72.3,135.5v1.2c0,0.4,0.3,0.5,0.5,0.5h0.8v-0.4h-0.8c-0.3,0-0.3-0.2-0.3-0.4v-0.9H72.3z"/>
		<path class="st142" d="M68.4,131.7v1.2c0,0.4,0.3,0.5,0.5,0.5h0.8V133H69c-0.3,0-0.3-0.2-0.3-0.4v-0.9H68.4z"/>
		<path class="st142" d="M78.2,142.2h4.2c0.7,0,0.9-0.4,0.9-1.1v-4.4h-0.4v4.3c0,0.4-0.1,0.5-0.6,0.5h-4.1V142.2z"/>
		<path class="st142" d="M73.9,132.5h2.6c0.4,0,0.5-0.3,0.5-0.7v-2.7h-0.3v2.7c0,0.2-0.1,0.3-0.4,0.3h-2.5V132.5z"/>
		<path class="st142" d="M69.7,132.1h1.8c0.3,0,0.4-0.2,0.4-0.5v-1.8h-0.2v1.8c0,0.2-0.1,0.2-0.2,0.2h-1.7V132.1z"/>
		<path class="st142" d="M62.4,126.1h1.8c0.3,0,0.4-0.2,0.4-0.5v-1.8h-0.2v1.8c0,0.2-0.1,0.2-0.2,0.2h-1.7V126.1z"/>
		<g>
			<path class="st142" d="M64.9,141.6h-0.2v-0.3c-0.2,0-0.4-0.1-0.5-0.1c-0.2-0.1-0.3-0.3-0.3-0.6h0.4c0,0.1,0,0.2,0.1,0.3
				c0,0.1,0.1,0.1,0.2,0.1v-0.7l-0.1,0c-0.2-0.1-0.3-0.1-0.4-0.2c-0.1-0.1-0.1-0.2-0.1-0.4c0-0.1,0-0.2,0-0.3c0-0.1,0.1-0.1,0.1-0.2
				c0.1-0.1,0.2-0.1,0.3-0.2c0.1,0,0.1,0,0.2,0v-0.2h0.2v0.2c0.2,0,0.3,0.1,0.4,0.1c0.2,0.1,0.3,0.3,0.3,0.5h-0.4c0-0.1,0-0.2,0-0.2
				c0-0.1-0.1-0.1-0.2-0.1v0.6c0.3,0.1,0.4,0.2,0.5,0.2c0.1,0.1,0.2,0.3,0.2,0.5c0,0.3-0.1,0.5-0.3,0.6c-0.1,0.1-0.3,0.1-0.4,0.1
				V141.6z M64.7,139.3c-0.1,0-0.2,0-0.2,0.1c0,0-0.1,0.1-0.1,0.2c0,0.1,0,0.2,0.1,0.2c0,0,0.1,0.1,0.2,0.1V139.3z M64.9,140.9
				c0.1,0,0.1,0,0.2-0.1c0.1,0,0.1-0.1,0.1-0.3c0-0.1,0-0.2-0.1-0.2c0,0-0.1-0.1-0.2-0.1V140.9z"/>
		</g>
		<g>
			<path class="st142" d="M72.5,135.9h-0.1v-0.2c-0.1,0-0.3,0-0.3-0.1c-0.1-0.1-0.2-0.2-0.2-0.4h0.3c0,0.1,0,0.2,0,0.2
				c0,0,0.1,0.1,0.2,0.1v-0.5l-0.1,0c-0.1,0-0.2-0.1-0.3-0.2c-0.1-0.1-0.1-0.2-0.1-0.3c0-0.1,0-0.1,0-0.2c0-0.1,0.1-0.1,0.1-0.1
				c0.1-0.1,0.1-0.1,0.2-0.1c0,0,0.1,0,0.2,0v-0.1h0.1v0.1c0.1,0,0.2,0,0.3,0.1c0.1,0.1,0.2,0.2,0.2,0.4h-0.3c0-0.1,0-0.1,0-0.1
				c0-0.1-0.1-0.1-0.1-0.1v0.4c0.2,0.1,0.3,0.1,0.3,0.2c0.1,0.1,0.1,0.2,0.1,0.3c0,0.2-0.1,0.3-0.2,0.4c-0.1,0.1-0.2,0.1-0.3,0.1
				V135.9z M72.4,134.2c-0.1,0-0.1,0-0.1,0.1c0,0,0,0.1,0,0.1c0,0.1,0,0.1,0.1,0.1c0,0,0.1,0,0.1,0.1V134.2z M72.5,135.4
				c0.1,0,0.1,0,0.1,0c0,0,0.1-0.1,0.1-0.2c0-0.1,0-0.1-0.1-0.1c0,0-0.1,0-0.1-0.1V135.4z"/>
		</g>
		<g>
			<path class="st142" d="M68.4,131.9h-0.1v-0.2c-0.1,0-0.3,0-0.3-0.1c-0.1-0.1-0.2-0.2-0.2-0.4h0.3c0,0.1,0,0.2,0,0.2
				c0,0,0.1,0.1,0.2,0.1v-0.5l-0.1,0c-0.1,0-0.2-0.1-0.3-0.2c-0.1-0.1-0.1-0.2-0.1-0.3c0-0.1,0-0.1,0-0.2c0-0.1,0.1-0.1,0.1-0.1
				c0.1-0.1,0.1-0.1,0.2-0.1c0,0,0.1,0,0.2,0v-0.1h0.1v0.1c0.1,0,0.2,0,0.3,0.1c0.1,0.1,0.2,0.2,0.2,0.4h-0.3c0-0.1,0-0.1,0-0.1
				c0-0.1-0.1-0.1-0.1-0.1v0.4c0.2,0.1,0.3,0.1,0.3,0.2c0.1,0.1,0.1,0.2,0.1,0.3c0,0.2-0.1,0.3-0.2,0.4c-0.1,0.1-0.2,0.1-0.3,0.1
				V131.9z M68.3,130.3c-0.1,0-0.1,0-0.1,0.1c0,0,0,0.1,0,0.1c0,0.1,0,0.1,0.1,0.1c0,0,0.1,0,0.1,0.1V130.3z M68.4,131.4
				c0.1,0,0.1,0,0.1,0c0,0,0.1-0.1,0.1-0.2c0-0.1,0-0.1-0.1-0.1c0,0-0.1,0-0.1-0.1V131.4z"/>
		</g>
		<g>
			<path class="st142" d="M70.9,131.5h-0.1v-0.2c-0.1,0-0.3,0-0.3-0.1c-0.1-0.1-0.2-0.2-0.2-0.4h0.3c0,0.1,0,0.2,0,0.2
				c0,0,0.1,0.1,0.2,0.1v-0.5l-0.1,0c-0.1,0-0.2-0.1-0.3-0.2c-0.1-0.1-0.1-0.2-0.1-0.3c0-0.1,0-0.1,0-0.2c0-0.1,0.1-0.1,0.1-0.1
				c0.1-0.1,0.1-0.1,0.2-0.1c0,0,0.1,0,0.2,0v-0.1h0.1v0.1c0.1,0,0.2,0,0.3,0.1c0.1,0.1,0.2,0.2,0.2,0.4H71c0-0.1,0-0.1,0-0.1
				c0-0.1-0.1-0.1-0.1-0.1v0.4c0.2,0.1,0.3,0.1,0.3,0.2c0.1,0.1,0.1,0.2,0.1,0.3c0,0.2-0.1,0.3-0.2,0.4c-0.1,0.1-0.2,0.1-0.3,0.1
				V131.5z M70.7,129.9c-0.1,0-0.1,0-0.1,0.1c0,0,0,0.1,0,0.1c0,0.1,0,0.1,0.1,0.1c0,0,0.1,0,0.1,0.1V129.9z M70.9,131
				c0.1,0,0.1,0,0.1,0c0,0,0.1-0.1,0.1-0.2c0-0.1,0-0.1-0.1-0.1c0,0-0.1,0-0.1-0.1V131z"/>
		</g>
		<g>
			<path class="st142" d="M64.6,131.4h-0.1v-0.2c-0.1,0-0.3,0-0.3-0.1c-0.1-0.1-0.2-0.2-0.2-0.4h0.3c0,0.1,0,0.2,0,0.2
				c0,0,0.1,0.1,0.2,0.1v-0.5l-0.1,0c-0.1,0-0.2-0.1-0.3-0.2c-0.1-0.1-0.1-0.2-0.1-0.3c0-0.1,0-0.1,0-0.2c0-0.1,0.1-0.1,0.1-0.1
				c0.1-0.1,0.1-0.1,0.2-0.1c0,0,0.1,0,0.2,0v-0.1h0.1v0.1c0.1,0,0.2,0,0.3,0.1c0.1,0.1,0.2,0.2,0.2,0.4h-0.3c0-0.1,0-0.1,0-0.1
				c0-0.1-0.1-0.1-0.1-0.1v0.4c0.2,0.1,0.3,0.1,0.3,0.2c0.1,0.1,0.1,0.2,0.1,0.3c0,0.2-0.1,0.3-0.2,0.4c-0.1,0.1-0.2,0.1-0.3,0.1
				V131.4z M64.5,129.8c-0.1,0-0.1,0-0.1,0.1c0,0,0,0.1,0,0.1c0,0.1,0,0.1,0.1,0.1c0,0,0.1,0,0.1,0.1V129.8z M64.6,130.9
				c0.1,0,0.1,0,0.1,0c0,0,0.1-0.1,0.1-0.2c0-0.1,0-0.1-0.1-0.1c0,0-0.1,0-0.1-0.1V130.9z"/>
		</g>
		<g>
			<path class="st142" d="M75.1,124.6H75v-0.2c-0.1,0-0.3,0-0.3-0.1c-0.1-0.1-0.2-0.2-0.2-0.4h0.3c0,0.1,0,0.2,0,0.2
				c0,0,0.1,0.1,0.2,0.1v-0.5l-0.1,0c-0.1,0-0.2-0.1-0.3-0.2c-0.1-0.1-0.1-0.2-0.1-0.3c0-0.1,0-0.1,0-0.2c0-0.1,0.1-0.1,0.1-0.1
				c0.1-0.1,0.1-0.1,0.2-0.1c0,0,0.1,0,0.2,0v-0.1h0.1v0.1c0.1,0,0.2,0,0.3,0.1c0.1,0.1,0.2,0.2,0.2,0.4h-0.3c0-0.1,0-0.1,0-0.1
				c0-0.1-0.1-0.1-0.1-0.1v0.4c0.2,0.1,0.3,0.1,0.3,0.2c0.1,0.1,0.1,0.2,0.1,0.3c0,0.2-0.1,0.3-0.2,0.4c-0.1,0.1-0.2,0.1-0.3,0.1
				V124.6z M75,123c-0.1,0-0.1,0-0.1,0.1c0,0,0,0.1,0,0.1c0,0.1,0,0.1,0.1,0.1c0,0,0.1,0,0.1,0.1V123z M75.1,124.2
				c0.1,0,0.1,0,0.1,0c0,0,0.1-0.1,0.1-0.2c0-0.1,0-0.1-0.1-0.1c0,0-0.1,0-0.1-0.1V124.2z"/>
		</g>
		<g>
			<path class="st142" d="M70,123.9h-0.1v-0.2c-0.1,0-0.3,0-0.3-0.1c-0.1-0.1-0.2-0.2-0.2-0.4h0.3c0,0.1,0,0.2,0,0.2
				c0,0,0.1,0.1,0.2,0.1V123l-0.1,0c-0.1,0-0.2-0.1-0.3-0.2c-0.1-0.1-0.1-0.2-0.1-0.3c0-0.1,0-0.1,0-0.2c0-0.1,0.1-0.1,0.1-0.1
				c0.1-0.1,0.1-0.1,0.2-0.1c0,0,0.1,0,0.2,0v-0.1H70v0.1c0.1,0,0.2,0,0.3,0.1c0.1,0.1,0.2,0.2,0.2,0.4h-0.3c0-0.1,0-0.1,0-0.1
				c0-0.1-0.1-0.1-0.1-0.1v0.4c0.2,0.1,0.3,0.1,0.3,0.2c0.1,0.1,0.1,0.2,0.1,0.3c0,0.2-0.1,0.3-0.2,0.4c-0.1,0.1-0.2,0.1-0.3,0.1
				V123.9z M69.9,122.3c-0.1,0-0.1,0-0.1,0.1c0,0,0,0.1,0,0.1c0,0.1,0,0.1,0.1,0.1c0,0,0.1,0,0.1,0.1V122.3z M70,123.4
				c0.1,0,0.1,0,0.1,0c0,0,0.1-0.1,0.1-0.2c0-0.1,0-0.1-0.1-0.1c0,0-0.1,0-0.1-0.1V123.4z"/>
		</g>
		<g>
			<path class="st142" d="M59.2,138.1H59v-0.5c-0.3,0-0.6-0.1-0.8-0.2c-0.3-0.2-0.4-0.5-0.4-1h0.7c0,0.2,0.1,0.4,0.1,0.4
				c0.1,0.1,0.2,0.2,0.4,0.2v-1.1l-0.2-0.1c-0.3-0.1-0.6-0.2-0.7-0.4c-0.1-0.2-0.2-0.4-0.2-0.6c0-0.2,0-0.3,0.1-0.4
				c0.1-0.1,0.1-0.2,0.2-0.3c0.1-0.1,0.3-0.2,0.4-0.3c0.1,0,0.2-0.1,0.4-0.1v-0.3h0.3v0.4c0.3,0,0.5,0.1,0.7,0.2
				c0.3,0.2,0.4,0.5,0.5,0.9h-0.7c0-0.2,0-0.3-0.1-0.3c-0.1-0.1-0.2-0.2-0.4-0.2v1c0.4,0.1,0.7,0.3,0.8,0.4c0.2,0.2,0.4,0.4,0.4,0.8
				c0,0.4-0.2,0.8-0.5,1c-0.2,0.1-0.4,0.2-0.7,0.2V138.1z M59,134.3c-0.2,0-0.3,0-0.3,0.1c-0.1,0.1-0.1,0.2-0.1,0.3
				c0,0.1,0.1,0.3,0.2,0.3c0.1,0,0.2,0.1,0.3,0.1V134.3z M59.2,137c0.1,0,0.2,0,0.3-0.1c0.1-0.1,0.2-0.2,0.2-0.4
				c0-0.2-0.1-0.3-0.2-0.4c-0.1-0.1-0.2-0.1-0.3-0.2V137z"/>
		</g>
		<g>
			<path class="st142" d="M61.7,136.6L61.7,136.6l-0.1-0.2c-0.1,0-0.2,0-0.3-0.1c-0.1-0.1-0.2-0.2-0.2-0.4h0.3c0,0.1,0,0.1,0,0.2
				c0,0,0.1,0.1,0.2,0.1v-0.4l-0.1,0c-0.1,0-0.2-0.1-0.3-0.2c-0.1-0.1-0.1-0.1-0.1-0.2c0-0.1,0-0.1,0-0.2c0-0.1,0-0.1,0.1-0.1
				c0,0,0.1-0.1,0.2-0.1c0,0,0.1,0,0.2,0v-0.1h0.1v0.1c0.1,0,0.2,0,0.3,0.1c0.1,0.1,0.2,0.2,0.2,0.4h-0.3c0-0.1,0-0.1,0-0.1
				c0,0-0.1-0.1-0.1-0.1v0.4c0.2,0.1,0.3,0.1,0.3,0.1c0.1,0.1,0.1,0.2,0.1,0.3c0,0.2-0.1,0.3-0.2,0.4c-0.1,0-0.2,0.1-0.3,0.1V136.6z
				 M61.6,135.1c-0.1,0-0.1,0-0.1,0c0,0,0,0.1,0,0.1c0,0.1,0,0.1,0.1,0.1c0,0,0.1,0,0.1,0.1V135.1z M61.7,136.1c0.1,0,0.1,0,0.1,0
				c0,0,0.1-0.1,0.1-0.2c0-0.1,0-0.1-0.1-0.1c0,0-0.1,0-0.1-0.1V136.1z"/>
		</g>
		<g>
			<path class="st142" d="M63.9,128.5L63.9,128.5l-0.1-0.2c-0.1,0-0.2,0-0.3-0.1c-0.1-0.1-0.2-0.2-0.2-0.4h0.3c0,0.1,0,0.1,0,0.2
				c0,0,0.1,0.1,0.2,0.1v-0.4l-0.1,0c-0.1,0-0.2-0.1-0.3-0.2c-0.1-0.1-0.1-0.1-0.1-0.2c0-0.1,0-0.1,0-0.2c0-0.1,0-0.1,0.1-0.1
				c0,0,0.1-0.1,0.2-0.1c0,0,0.1,0,0.2,0v-0.1h0.1v0.1c0.1,0,0.2,0,0.3,0.1c0.1,0.1,0.2,0.2,0.2,0.4h-0.3c0-0.1,0-0.1,0-0.1
				c0,0-0.1-0.1-0.1-0.1v0.4c0.2,0.1,0.3,0.1,0.3,0.1c0.1,0.1,0.1,0.2,0.1,0.3c0,0.2-0.1,0.3-0.2,0.4c-0.1,0-0.2,0.1-0.3,0.1V128.5z
				 M63.8,127c-0.1,0-0.1,0-0.1,0c0,0,0,0.1,0,0.1c0,0.1,0,0.1,0.1,0.1c0,0,0.1,0,0.1,0.1V127z M63.9,128.1c0.1,0,0.1,0,0.1,0
				c0,0,0.1-0.1,0.1-0.2c0-0.1,0-0.1-0.1-0.1c0,0-0.1,0-0.1-0.1V128.1z"/>
		</g>
		<g>
			<path class="st142" d="M59.4,130.9L59.4,130.9l-0.1-0.2c-0.1,0-0.2,0-0.3-0.1c-0.1-0.1-0.2-0.2-0.2-0.4h0.3c0,0.1,0,0.1,0,0.2
				c0,0,0.1,0.1,0.2,0.1V130l-0.1,0c-0.1,0-0.2-0.1-0.3-0.2c-0.1-0.1-0.1-0.1-0.1-0.2c0-0.1,0-0.1,0-0.2c0-0.1,0-0.1,0.1-0.1
				c0,0,0.1-0.1,0.2-0.1c0,0,0.1,0,0.2,0V129h0.1v0.1c0.1,0,0.2,0,0.3,0.1c0.1,0.1,0.2,0.2,0.2,0.4h-0.3c0-0.1,0-0.1,0-0.1
				c0,0-0.1-0.1-0.1-0.1v0.4c0.2,0.1,0.3,0.1,0.3,0.1c0.1,0.1,0.1,0.2,0.1,0.3c0,0.2-0.1,0.3-0.2,0.4c-0.1,0-0.2,0.1-0.3,0.1V130.9z
				 M59.3,129.4c-0.1,0-0.1,0-0.1,0c0,0,0,0.1,0,0.1c0,0.1,0,0.1,0.1,0.1c0,0,0.1,0,0.1,0.1V129.4z M59.4,130.4c0.1,0,0.1,0,0.1,0
				c0,0,0.1-0.1,0.1-0.2c0-0.1,0-0.1-0.1-0.1c0,0-0.1,0-0.1-0.1V130.4z"/>
		</g>
		<g>
			<path class="st142" d="M63.5,125.6L63.5,125.6l-0.1-0.2c-0.1,0-0.2,0-0.3-0.1c-0.1-0.1-0.2-0.2-0.2-0.4h0.3c0,0.1,0,0.1,0,0.2
				c0,0,0.1,0.1,0.2,0.1v-0.4l-0.1,0c-0.1,0-0.2-0.1-0.3-0.2c-0.1-0.1-0.1-0.1-0.1-0.2c0-0.1,0-0.1,0-0.2c0-0.1,0-0.1,0.1-0.1
				c0,0,0.1-0.1,0.2-0.1c0,0,0.1,0,0.2,0v-0.1h0.1v0.1c0.1,0,0.2,0,0.3,0.1c0.1,0.1,0.2,0.2,0.2,0.4h-0.3c0-0.1,0-0.1,0-0.1
				c0,0-0.1-0.1-0.1-0.1v0.4c0.2,0.1,0.3,0.1,0.3,0.1c0.1,0.1,0.1,0.2,0.1,0.3c0,0.2-0.1,0.3-0.2,0.4c-0.1,0-0.2,0.1-0.3,0.1V125.6z
				 M63.4,124.1c-0.1,0-0.1,0-0.1,0c0,0,0,0.1,0,0.1c0,0.1,0,0.1,0.1,0.1c0,0,0.1,0,0.1,0.1V124.1z M63.5,125.1c0.1,0,0.1,0,0.1,0
				c0,0,0.1-0.1,0.1-0.2c0-0.1,0-0.1-0.1-0.1c0,0-0.1,0-0.1-0.1V125.1z"/>
		</g>
		<g>
			<path class="st142" d="M82,137L82,137l-0.1-0.2c-0.1,0-0.2,0-0.3-0.1c-0.1-0.1-0.2-0.2-0.2-0.4h0.3c0,0.1,0,0.1,0,0.2
				c0,0,0.1,0.1,0.2,0.1v-0.4l-0.1,0c-0.1,0-0.2-0.1-0.3-0.2c-0.1-0.1-0.1-0.1-0.1-0.2c0-0.1,0-0.1,0-0.2c0-0.1,0-0.1,0.1-0.1
				c0,0,0.1-0.1,0.2-0.1c0,0,0.1,0,0.2,0v-0.1H82v0.1c0.1,0,0.2,0,0.3,0.1c0.1,0.1,0.2,0.2,0.2,0.4h-0.3c0-0.1,0-0.1,0-0.1
				c0,0-0.1-0.1-0.1-0.1v0.4c0.2,0.1,0.3,0.1,0.3,0.1c0.1,0.1,0.1,0.2,0.1,0.3c0,0.2-0.1,0.3-0.2,0.4c-0.1,0-0.2,0.1-0.3,0.1V137z
				 M81.9,135.5c-0.1,0-0.1,0-0.1,0c0,0,0,0.1,0,0.1c0,0.1,0,0.1,0.1,0.1c0,0,0.1,0,0.1,0.1V135.5z M82,136.5c0.1,0,0.1,0,0.1,0
				c0,0,0.1-0.1,0.1-0.2c0-0.1,0-0.1-0.1-0.1c0,0-0.1,0-0.1-0.1V136.5z"/>
		</g>
		<g>
			<path class="st142" d="M68.1,137.2h-0.2v-0.4c-0.2,0-0.4-0.1-0.5-0.2c-0.2-0.1-0.3-0.4-0.3-0.7h0.5c0,0.1,0,0.2,0.1,0.3
				c0,0.1,0.1,0.1,0.3,0.2v-0.8l-0.1,0c-0.2-0.1-0.4-0.2-0.5-0.3c-0.1-0.1-0.1-0.3-0.1-0.4c0-0.1,0-0.2,0.1-0.3
				c0-0.1,0.1-0.2,0.2-0.2c0.1-0.1,0.2-0.1,0.3-0.2c0.1,0,0.2,0,0.3,0V134h0.2v0.2c0.2,0,0.3,0.1,0.4,0.1c0.2,0.1,0.3,0.3,0.3,0.6
				h-0.5c0-0.1,0-0.2-0.1-0.2c0-0.1-0.1-0.1-0.2-0.1v0.7c0.3,0.1,0.5,0.2,0.6,0.3c0.2,0.1,0.2,0.3,0.2,0.5c0,0.3-0.1,0.5-0.3,0.6
				c-0.1,0.1-0.3,0.1-0.5,0.1V137.2z M67.9,134.6c-0.1,0-0.2,0-0.2,0.1c0,0.1-0.1,0.1-0.1,0.2c0,0.1,0,0.2,0.1,0.2
				c0,0,0.1,0.1,0.2,0.1V134.6z M68.1,136.5c0.1,0,0.2,0,0.2-0.1c0.1-0.1,0.1-0.1,0.1-0.3c0-0.1,0-0.2-0.1-0.2c0,0-0.1-0.1-0.2-0.1
				V136.5z"/>
		</g>
		<g>
			<path class="st142" d="M67.2,130.4H67V130c-0.2,0-0.4-0.1-0.5-0.2c-0.2-0.1-0.3-0.4-0.3-0.7h0.5c0,0.1,0,0.2,0.1,0.3
				c0,0.1,0.1,0.1,0.3,0.2v-0.8l-0.1,0c-0.2-0.1-0.4-0.2-0.5-0.3c-0.1-0.1-0.1-0.3-0.1-0.4c0-0.1,0-0.2,0.1-0.3
				c0-0.1,0.1-0.2,0.2-0.2c0.1-0.1,0.2-0.1,0.3-0.2c0.1,0,0.2,0,0.3,0v-0.2h0.2v0.2c0.2,0,0.3,0.1,0.4,0.1c0.2,0.1,0.3,0.3,0.3,0.6
				h-0.5c0-0.1,0-0.2-0.1-0.2c0-0.1-0.1-0.1-0.2-0.1v0.7c0.3,0.1,0.5,0.2,0.6,0.3c0.2,0.1,0.2,0.3,0.2,0.5c0,0.3-0.1,0.5-0.3,0.6
				c-0.1,0.1-0.3,0.1-0.5,0.1V130.4z M67,127.8c-0.1,0-0.2,0-0.2,0.1c0,0.1-0.1,0.1-0.1,0.2c0,0.1,0,0.2,0.1,0.2
				c0,0,0.1,0.1,0.2,0.1V127.8z M67.2,129.6c0.1,0,0.2,0,0.2-0.1c0.1-0.1,0.1-0.1,0.1-0.3c0-0.1,0-0.2-0.1-0.2c0,0-0.1-0.1-0.2-0.1
				V129.6z"/>
		</g>
		<g>
			<path class="st142" d="M60.7,129.7h-0.2v-0.4c-0.2,0-0.4-0.1-0.5-0.2c-0.2-0.1-0.3-0.4-0.3-0.7h0.5c0,0.1,0,0.2,0.1,0.3
				c0,0.1,0.1,0.1,0.3,0.2v-0.8l-0.1,0c-0.2-0.1-0.4-0.2-0.5-0.3c-0.1-0.1-0.1-0.3-0.1-0.4c0-0.1,0-0.2,0.1-0.3
				c0-0.1,0.1-0.2,0.2-0.2c0.1-0.1,0.2-0.1,0.3-0.2c0.1,0,0.2,0,0.3,0v-0.2h0.2v0.2c0.2,0,0.3,0.1,0.4,0.1c0.2,0.1,0.3,0.3,0.3,0.6
				H61c0-0.1,0-0.2-0.1-0.2c0-0.1-0.1-0.1-0.2-0.1v0.7c0.3,0.1,0.5,0.2,0.6,0.3c0.2,0.1,0.2,0.3,0.2,0.5c0,0.3-0.1,0.5-0.3,0.6
				c-0.1,0.1-0.3,0.1-0.5,0.1V129.7z M60.5,127.1c-0.1,0-0.2,0-0.2,0.1c0,0.1-0.1,0.1-0.1,0.2c0,0.1,0,0.2,0.1,0.2
				c0,0,0.1,0.1,0.2,0.1V127.1z M60.7,129c0.1,0,0.2,0,0.2-0.1c0.1-0.1,0.1-0.1,0.1-0.3c0-0.1,0-0.2-0.1-0.2c0,0-0.1-0.1-0.2-0.1
				V129z"/>
		</g>
		<g>
			<path class="st142" d="M81.1,141h-0.2v-0.4c-0.3,0-0.5-0.1-0.6-0.2c-0.2-0.2-0.4-0.4-0.4-0.8h0.6c0,0.2,0,0.3,0.1,0.4
				c0.1,0.1,0.2,0.2,0.3,0.2v-0.9l-0.2-0.1c-0.3-0.1-0.5-0.2-0.6-0.3c-0.1-0.1-0.2-0.3-0.2-0.5c0-0.1,0-0.3,0.1-0.4
				c0-0.1,0.1-0.2,0.2-0.3c0.1-0.1,0.2-0.2,0.3-0.2c0.1,0,0.2,0,0.3-0.1v-0.3h0.2v0.3c0.2,0,0.4,0.1,0.5,0.2
				c0.2,0.2,0.4,0.4,0.4,0.7h-0.6c0-0.1,0-0.2-0.1-0.3c-0.1-0.1-0.2-0.2-0.3-0.2v0.8c0.3,0.1,0.6,0.2,0.7,0.3
				c0.2,0.2,0.3,0.4,0.3,0.6c0,0.4-0.1,0.6-0.4,0.8c-0.2,0.1-0.4,0.2-0.6,0.2V141z M80.9,137.9c-0.1,0-0.2,0-0.3,0.1
				c-0.1,0.1-0.1,0.2-0.1,0.3c0,0.1,0,0.2,0.1,0.3c0.1,0,0.1,0.1,0.2,0.1V137.9z M81.1,140.1c0.1,0,0.2,0,0.2-0.1
				c0.1-0.1,0.1-0.2,0.1-0.3c0-0.1,0-0.2-0.1-0.3c0,0-0.1-0.1-0.3-0.1V140.1z"/>
		</g>
		<g>
			<path class="st142" d="M81.6,133.9h-0.2v-0.4c-0.3,0-0.5-0.1-0.6-0.2c-0.2-0.2-0.4-0.4-0.4-0.8H81c0,0.2,0,0.3,0.1,0.4
				c0.1,0.1,0.2,0.2,0.3,0.2v-0.9l-0.2-0.1c-0.3-0.1-0.5-0.2-0.6-0.3c-0.1-0.1-0.2-0.3-0.2-0.5c0-0.1,0-0.3,0.1-0.4
				c0-0.1,0.1-0.2,0.2-0.3c0.1-0.1,0.2-0.2,0.3-0.2c0.1,0,0.2,0,0.3-0.1v-0.3h0.2v0.3c0.2,0,0.4,0.1,0.5,0.2
				c0.2,0.2,0.4,0.4,0.4,0.7h-0.6c0-0.1,0-0.2-0.1-0.3c-0.1-0.1-0.2-0.2-0.3-0.2v0.8c0.3,0.1,0.6,0.2,0.7,0.3
				c0.2,0.2,0.3,0.4,0.3,0.6c0,0.4-0.1,0.6-0.4,0.8c-0.2,0.1-0.4,0.2-0.6,0.2V133.9z M81.4,130.7c-0.1,0-0.2,0-0.3,0.1
				c-0.1,0.1-0.1,0.2-0.1,0.3c0,0.1,0,0.2,0.1,0.3c0.1,0,0.1,0.1,0.2,0.1V130.7z M81.6,133c0.1,0,0.2,0,0.2-0.1
				c0.1-0.1,0.1-0.2,0.1-0.3c0-0.1,0-0.2-0.1-0.3c0,0-0.1-0.1-0.3-0.1V133z"/>
		</g>
		<g>
			<path class="st142" d="M79,137.5h-0.1v-0.2c-0.2,0-0.3-0.1-0.4-0.1c-0.1-0.1-0.2-0.3-0.2-0.5h0.3c0,0.1,0,0.2,0,0.2
				c0,0.1,0.1,0.1,0.2,0.1v-0.5l-0.1,0c-0.2,0-0.3-0.1-0.3-0.2c-0.1-0.1-0.1-0.2-0.1-0.3c0-0.1,0-0.1,0-0.2c0-0.1,0.1-0.1,0.1-0.2
				c0.1-0.1,0.1-0.1,0.2-0.1c0,0,0.1,0,0.2,0v-0.2H79v0.2c0.1,0,0.2,0,0.3,0.1c0.1,0.1,0.2,0.2,0.2,0.4h-0.3c0-0.1,0-0.1,0-0.2
				c0-0.1-0.1-0.1-0.2-0.1v0.5c0.2,0.1,0.3,0.1,0.4,0.2c0.1,0.1,0.2,0.2,0.2,0.4c0,0.2-0.1,0.4-0.2,0.5c-0.1,0.1-0.2,0.1-0.3,0.1
				V137.5z M78.9,135.7c-0.1,0-0.1,0-0.2,0.1c0,0-0.1,0.1-0.1,0.2c0,0.1,0,0.1,0.1,0.2c0,0,0.1,0,0.1,0.1V135.7z M79,137
				c0.1,0,0.1,0,0.1,0c0.1,0,0.1-0.1,0.1-0.2c0-0.1,0-0.1-0.1-0.2c0,0-0.1,0-0.1-0.1V137z"/>
		</g>
		<g>
			<path class="st142" d="M75.5,131.6h-0.1v-0.2c-0.2,0-0.3-0.1-0.4-0.1c-0.1-0.1-0.2-0.3-0.2-0.5h0.3c0,0.1,0,0.2,0,0.2
				c0,0.1,0.1,0.1,0.2,0.1v-0.5l-0.1,0c-0.2,0-0.3-0.1-0.3-0.2c-0.1-0.1-0.1-0.2-0.1-0.3c0-0.1,0-0.1,0-0.2c0-0.1,0.1-0.1,0.1-0.2
				c0.1-0.1,0.1-0.1,0.2-0.1c0,0,0.1,0,0.2,0v-0.2h0.1v0.2c0.1,0,0.2,0,0.3,0.1c0.1,0.1,0.2,0.2,0.2,0.4h-0.3c0-0.1,0-0.1,0-0.2
				c0-0.1-0.1-0.1-0.2-0.1v0.5c0.2,0.1,0.3,0.1,0.4,0.2c0.1,0.1,0.2,0.2,0.2,0.4c0,0.2-0.1,0.4-0.2,0.5c-0.1,0.1-0.2,0.1-0.3,0.1
				V131.6z M75.4,129.8c-0.1,0-0.1,0-0.2,0.1c0,0-0.1,0.1-0.1,0.2c0,0.1,0,0.1,0.1,0.2c0,0,0.1,0,0.1,0.1V129.8z M75.5,131.1
				c0.1,0,0.1,0,0.1,0c0.1,0,0.1-0.1,0.1-0.2c0-0.1,0-0.1-0.1-0.2c0,0-0.1,0-0.1-0.1V131.1z"/>
		</g>
		<g>
			<path class="st142" d="M84.1,138H84v-0.3c-0.2,0-0.4-0.1-0.5-0.1c-0.2-0.1-0.3-0.3-0.3-0.7h0.5c0,0.1,0,0.2,0.1,0.3
				c0,0.1,0.1,0.1,0.3,0.1v-0.7l-0.1,0c-0.2-0.1-0.4-0.2-0.5-0.3c-0.1-0.1-0.1-0.2-0.1-0.4c0-0.1,0-0.2,0.1-0.3
				c0-0.1,0.1-0.2,0.1-0.2c0.1-0.1,0.2-0.1,0.3-0.2c0.1,0,0.1,0,0.3,0v-0.2h0.2v0.2c0.2,0,0.3,0.1,0.4,0.1c0.2,0.1,0.3,0.3,0.3,0.6
				h-0.4c0-0.1,0-0.2-0.1-0.2c0-0.1-0.1-0.1-0.2-0.1v0.6c0.3,0.1,0.4,0.2,0.5,0.2c0.2,0.1,0.2,0.3,0.2,0.5c0,0.3-0.1,0.5-0.3,0.6
				c-0.1,0.1-0.3,0.1-0.5,0.1V138z M84,135.5c-0.1,0-0.2,0-0.2,0.1c0,0.1-0.1,0.1-0.1,0.2c0,0.1,0,0.2,0.1,0.2c0,0,0.1,0.1,0.2,0.1
				V135.5z M84.1,137.2c0.1,0,0.2,0,0.2-0.1c0.1-0.1,0.1-0.1,0.1-0.3c0-0.1,0-0.2-0.1-0.2c0,0-0.1-0.1-0.2-0.1V137.2z"/>
		</g>
		<g>
			<path class="st142" d="M77.7,130.5h-0.2v-0.3c-0.2,0-0.4-0.1-0.5-0.1c-0.2-0.1-0.3-0.3-0.3-0.7h0.5c0,0.1,0,0.2,0.1,0.3
				c0,0.1,0.1,0.1,0.3,0.1v-0.7l-0.1,0c-0.2-0.1-0.4-0.2-0.5-0.3c-0.1-0.1-0.1-0.2-0.1-0.4c0-0.1,0-0.2,0.1-0.3
				c0-0.1,0.1-0.2,0.1-0.2c0.1-0.1,0.2-0.1,0.3-0.2c0.1,0,0.1,0,0.3,0v-0.2h0.2v0.2c0.2,0,0.3,0.1,0.4,0.1c0.2,0.1,0.3,0.3,0.3,0.6
				H78c0-0.1,0-0.2-0.1-0.2c0-0.1-0.1-0.1-0.2-0.1v0.6c0.3,0.1,0.4,0.2,0.5,0.2c0.2,0.1,0.2,0.3,0.2,0.5c0,0.3-0.1,0.5-0.3,0.6
				c-0.1,0.1-0.3,0.1-0.5,0.1V130.5z M77.6,128c-0.1,0-0.2,0-0.2,0.1c0,0.1-0.1,0.1-0.1,0.2c0,0.1,0,0.2,0.1,0.2
				c0,0,0.1,0.1,0.2,0.1V128z M77.7,129.8c0.1,0,0.2,0,0.2-0.1c0.1-0.1,0.1-0.1,0.1-0.3c0-0.1,0-0.2-0.1-0.2c0,0-0.1-0.1-0.2-0.1
				V129.8z"/>
		</g>
		<g>
			<path class="st142" d="M71.4,140.4h-0.2V140c-0.3,0-0.5-0.1-0.6-0.2c-0.2-0.2-0.4-0.4-0.4-0.8h0.6c0,0.2,0,0.3,0.1,0.4
				c0.1,0.1,0.2,0.2,0.3,0.2v-0.9l-0.2-0.1c-0.3-0.1-0.5-0.2-0.6-0.3c-0.1-0.1-0.2-0.3-0.2-0.5c0-0.1,0-0.3,0.1-0.4
				c0-0.1,0.1-0.2,0.2-0.3c0.1-0.1,0.2-0.2,0.3-0.2c0.1,0,0.2,0,0.3-0.1v-0.3h0.2v0.3c0.2,0,0.4,0.1,0.5,0.2
				c0.2,0.2,0.4,0.4,0.4,0.7h-0.6c0-0.1,0-0.2-0.1-0.3c-0.1-0.1-0.2-0.2-0.3-0.2v0.8c0.3,0.1,0.6,0.2,0.7,0.3
				c0.2,0.1,0.3,0.4,0.3,0.6c0,0.4-0.1,0.6-0.4,0.8c-0.2,0.1-0.4,0.2-0.6,0.2V140.4z M71.2,137.3c-0.1,0-0.2,0-0.3,0.1
				c-0.1,0.1-0.1,0.2-0.1,0.3c0,0.1,0,0.2,0.1,0.3c0,0,0.1,0.1,0.2,0.1V137.3z M71.4,139.5c0.1,0,0.2,0,0.2-0.1
				c0.1-0.1,0.1-0.2,0.1-0.3c0-0.1,0-0.2-0.1-0.3c0,0-0.1-0.1-0.3-0.1V139.5z"/>
		</g>
		<g>
			<path class="st142" d="M72.2,124.9h-0.2v-0.4c-0.3,0-0.5-0.1-0.6-0.2c-0.2-0.2-0.4-0.4-0.4-0.8h0.6c0,0.2,0,0.3,0.1,0.4
				c0.1,0.1,0.2,0.2,0.3,0.2V123l-0.2-0.1c-0.3-0.1-0.5-0.2-0.6-0.3c-0.1-0.1-0.2-0.3-0.2-0.5c0-0.1,0-0.3,0.1-0.4
				c0-0.1,0.1-0.2,0.2-0.3c0.1-0.1,0.2-0.2,0.3-0.2c0.1,0,0.2,0,0.3-0.1V121h0.2v0.3c0.2,0,0.4,0.1,0.5,0.2c0.2,0.2,0.4,0.4,0.4,0.7
				h-0.6c0-0.1,0-0.2-0.1-0.3c-0.1-0.1-0.2-0.2-0.3-0.2v0.8c0.3,0.1,0.6,0.2,0.7,0.3c0.2,0.1,0.3,0.4,0.3,0.6c0,0.4-0.1,0.6-0.4,0.8
				c-0.2,0.1-0.4,0.2-0.6,0.2V124.9z M71.9,121.7c-0.1,0-0.2,0-0.3,0.1c-0.1,0.1-0.1,0.2-0.1,0.3c0,0.1,0,0.2,0.1,0.3
				c0,0,0.1,0.1,0.2,0.1V121.7z M72.2,124c0.1,0,0.2,0,0.2-0.1c0.1-0.1,0.1-0.2,0.1-0.3c0-0.1,0-0.2-0.1-0.3c0,0-0.1-0.1-0.3-0.1
				V124z"/>
		</g>
		<g>
			<path class="st142" d="M66.8,126.8h-0.2v-0.4c-0.3,0-0.5-0.1-0.6-0.2c-0.2-0.2-0.4-0.4-0.4-0.8h0.6c0,0.2,0,0.3,0.1,0.4
				c0.1,0.1,0.2,0.2,0.3,0.2v-0.9l-0.2-0.1c-0.3-0.1-0.5-0.2-0.6-0.3c-0.1-0.1-0.2-0.3-0.2-0.5c0-0.1,0-0.3,0.1-0.4
				c0-0.1,0.1-0.2,0.2-0.3c0.1-0.1,0.2-0.2,0.3-0.2c0.1,0,0.2,0,0.3-0.1v-0.3h0.2v0.3c0.2,0,0.4,0.1,0.5,0.2
				c0.2,0.2,0.4,0.4,0.4,0.7h-0.6c0-0.1,0-0.2-0.1-0.3c-0.1-0.1-0.2-0.2-0.3-0.2v0.8c0.3,0.1,0.6,0.2,0.7,0.3
				c0.2,0.1,0.3,0.4,0.3,0.6c0,0.4-0.1,0.6-0.4,0.8c-0.2,0.1-0.4,0.2-0.6,0.2V126.8z M66.6,123.6c-0.1,0-0.2,0-0.3,0.1
				c-0.1,0.1-0.1,0.2-0.1,0.3c0,0.1,0,0.2,0.1,0.3c0,0,0.1,0.1,0.2,0.1V123.6z M66.8,125.9c0.1,0,0.2,0,0.2-0.1
				c0.1-0.1,0.1-0.2,0.1-0.3c0-0.1,0-0.2-0.1-0.3c0,0-0.1-0.1-0.3-0.1V125.9z"/>
		</g>
		<g>
			<path class="st142" d="M75.5,137.2h-0.2v-0.4c-0.3,0-0.4-0.1-0.6-0.2c-0.2-0.1-0.3-0.4-0.3-0.8H75c0,0.2,0,0.3,0.1,0.3
				c0.1,0.1,0.1,0.1,0.3,0.2v-0.8l-0.2,0c-0.2-0.1-0.4-0.2-0.5-0.3c-0.1-0.1-0.2-0.3-0.2-0.5c0-0.1,0-0.2,0.1-0.3
				c0-0.1,0.1-0.2,0.2-0.3c0.1-0.1,0.2-0.2,0.3-0.2c0.1,0,0.2,0,0.3,0v-0.3h0.2v0.3c0.2,0,0.4,0.1,0.5,0.2c0.2,0.1,0.3,0.4,0.3,0.7
				h-0.5c0-0.1,0-0.2-0.1-0.3c0-0.1-0.1-0.1-0.3-0.2v0.7c0.3,0.1,0.5,0.2,0.6,0.3c0.2,0.1,0.3,0.3,0.3,0.6c0,0.3-0.1,0.6-0.4,0.7
				c-0.1,0.1-0.3,0.1-0.5,0.2V137.2z M75.4,134.3c-0.1,0-0.2,0-0.2,0.1c-0.1,0.1-0.1,0.1-0.1,0.2c0,0.1,0,0.2,0.1,0.3
				c0,0,0.1,0.1,0.2,0.1V134.3z M75.5,136.3c0.1,0,0.2,0,0.2-0.1c0.1-0.1,0.1-0.2,0.1-0.3c0-0.1,0-0.2-0.1-0.3c0,0-0.1-0.1-0.2-0.1
				V136.3z"/>
		</g>
		<g>
			<path class="st142" d="M80.6,128.1h-0.2v-0.4c-0.3,0-0.4-0.1-0.6-0.2c-0.2-0.1-0.3-0.4-0.3-0.8H80c0,0.2,0,0.3,0.1,0.3
				c0.1,0.1,0.1,0.1,0.3,0.2v-0.8l-0.2,0c-0.2-0.1-0.4-0.2-0.5-0.3c-0.1-0.1-0.2-0.3-0.2-0.5c0-0.1,0-0.2,0.1-0.3
				c0-0.1,0.1-0.2,0.2-0.3c0.1-0.1,0.2-0.2,0.3-0.2c0.1,0,0.2,0,0.3,0v-0.3h0.2v0.3c0.2,0,0.4,0.1,0.5,0.2c0.2,0.1,0.3,0.4,0.3,0.7
				h-0.5c0-0.1,0-0.2-0.1-0.3c0-0.1-0.1-0.1-0.3-0.2v0.7c0.3,0.1,0.5,0.2,0.6,0.3c0.2,0.1,0.3,0.3,0.3,0.6c0,0.3-0.1,0.6-0.4,0.7
				c-0.1,0.1-0.3,0.1-0.5,0.2V128.1z M80.4,125.3c-0.1,0-0.2,0-0.2,0.1c-0.1,0.1-0.1,0.1-0.1,0.2c0,0.1,0,0.2,0.1,0.3
				c0,0,0.1,0.1,0.2,0.1V125.3z M80.6,127.3c0.1,0,0.2,0,0.2-0.1c0.1-0.1,0.1-0.2,0.1-0.3c0-0.1,0-0.2-0.1-0.3c0,0-0.1-0.1-0.2-0.1
				V127.3z"/>
		</g>
		<g>
			<path class="st142" d="M65.4,135.9h-0.1v-0.2c-0.2,0-0.3-0.1-0.4-0.1c-0.1-0.1-0.2-0.3-0.2-0.5h0.3c0,0.1,0,0.2,0,0.2
				c0,0.1,0.1,0.1,0.2,0.1v-0.5l-0.1,0c-0.2,0-0.3-0.1-0.3-0.2c-0.1-0.1-0.1-0.2-0.1-0.3c0-0.1,0-0.1,0-0.2c0-0.1,0.1-0.1,0.1-0.2
				c0.1-0.1,0.1-0.1,0.2-0.1c0,0,0.1,0,0.2,0v-0.2h0.1v0.2c0.1,0,0.2,0,0.3,0.1c0.1,0.1,0.2,0.2,0.2,0.4h-0.3c0-0.1,0-0.1,0-0.2
				c0-0.1-0.1-0.1-0.2-0.1v0.5c0.2,0.1,0.3,0.1,0.4,0.2c0.1,0.1,0.2,0.2,0.2,0.4c0,0.2-0.1,0.4-0.2,0.5c-0.1,0.1-0.2,0.1-0.3,0.1
				V135.9z M65.3,134.1c-0.1,0-0.1,0-0.2,0.1c0,0-0.1,0.1-0.1,0.2c0,0.1,0,0.1,0.1,0.2c0,0,0.1,0,0.1,0.1V134.1z M65.4,135.4
				c0.1,0,0.1,0,0.1,0c0.1,0,0.1-0.1,0.1-0.2c0-0.1,0-0.1-0.1-0.2c0,0-0.1,0-0.1-0.1V135.4z"/>
		</g>
		<g>
			<path class="st142" d="M72.4,128.8h-0.1v-0.2c-0.2,0-0.3-0.1-0.4-0.1c-0.1-0.1-0.2-0.3-0.2-0.5h0.3c0,0.1,0,0.2,0,0.2
				c0,0.1,0.1,0.1,0.2,0.1v-0.5l-0.1,0c-0.2,0-0.3-0.1-0.3-0.2c-0.1-0.1-0.1-0.2-0.1-0.3c0-0.1,0-0.1,0-0.2c0-0.1,0.1-0.1,0.1-0.2
				c0.1-0.1,0.1-0.1,0.2-0.1c0,0,0.1,0,0.2,0v-0.2h0.1v0.2c0.1,0,0.2,0,0.3,0.1c0.1,0.1,0.2,0.2,0.2,0.4h-0.3c0-0.1,0-0.1,0-0.2
				c0-0.1-0.1-0.1-0.2-0.1v0.5c0.2,0.1,0.3,0.1,0.4,0.2c0.1,0.1,0.2,0.2,0.2,0.4c0,0.2-0.1,0.4-0.2,0.5c-0.1,0.1-0.2,0.1-0.3,0.1
				V128.8z M72.3,127c-0.1,0-0.1,0-0.2,0.1c0,0-0.1,0.1-0.1,0.2c0,0.1,0,0.1,0.1,0.2c0,0,0.1,0,0.1,0.1V127z M72.4,128.3
				c0.1,0,0.1,0,0.1,0c0.1,0,0.1-0.1,0.1-0.2c0-0.1,0-0.1-0.1-0.2c0,0-0.1,0-0.1-0.1V128.3z"/>
		</g>
		<g>
			<path class="st142" d="M62.3,141.4h-0.2V141c-0.3,0-0.5-0.1-0.6-0.2c-0.3-0.2-0.4-0.5-0.4-0.9h0.6c0,0.2,0,0.3,0.1,0.4
				c0.1,0.1,0.2,0.2,0.3,0.2v-0.9l-0.2-0.1c-0.3-0.1-0.5-0.2-0.6-0.3c-0.1-0.1-0.2-0.3-0.2-0.5c0-0.1,0-0.3,0.1-0.4
				c0-0.1,0.1-0.2,0.2-0.3c0.1-0.1,0.2-0.2,0.3-0.2c0.1,0,0.2,0,0.3-0.1v-0.3h0.2v0.3c0.2,0,0.4,0.1,0.6,0.2
				c0.2,0.2,0.4,0.4,0.4,0.8h-0.6c0-0.1,0-0.2-0.1-0.3c-0.1-0.1-0.2-0.2-0.3-0.2v0.8c0.3,0.1,0.6,0.2,0.7,0.3
				c0.2,0.2,0.3,0.4,0.3,0.7c0,0.4-0.1,0.6-0.4,0.8c-0.2,0.1-0.4,0.2-0.6,0.2V141.4z M62.1,138.2c-0.1,0-0.2,0-0.3,0.1
				c-0.1,0.1-0.1,0.2-0.1,0.3c0,0.1,0,0.2,0.1,0.3c0.1,0,0.1,0.1,0.2,0.1V138.2z M62.3,140.5c0.1,0,0.2,0,0.2-0.1
				c0.1-0.1,0.1-0.2,0.1-0.3c0-0.1,0-0.2-0.1-0.3c-0.1,0-0.1-0.1-0.3-0.1V140.5z"/>
		</g>
	</g>
	<g>
		<path class="st141" d="M236.5,132.9c0-6.9-7-12.5-15.5-12.5c-8.6,0-15.5,5.6-15.5,12.5c0,0.2,0,0.4,0,0.6c0,0.2,0,0.4,0,0.6
			c0,6.9,7,12.5,15.5,12.5c8.6,0,15.5-5.6,15.5-12.5c0-0.2,0-0.4,0-0.6C236.5,133.2,236.5,133,236.5,132.9z"/>
		<path class="st142" d="M227.7,137c-0.4,0-0.7,0.2-0.7,0.8v3.6c0,0.3-0.2,0.5-0.4,0.5H220c-0.5,0-0.9,0.4-0.9,0.9h0v0
			c0,0,0,16.4,0,16.4c0,0,0,0,0,0c0,0,0,0,0,0v0h0c0,0.2,0.8,0.4,1.7,0.4c0.9,0,1.7-0.2,1.7-0.4h0v0l0,0l0,0v-14.7
			c0-0.5,0.3-0.9,0.8-0.9h3.2c0.7,0,1-0.4,1-1v-4.7c0-0.3,0.1-0.5,0.4-0.5h1.5V137H227.7z"/>
		<path class="st142" d="M209.1,133.8h4.1c0.5,0,0.9,0.3,0.9,0.8v2.3c0,0.3,0.2,0.4,0.5,0.4h1.7c0.7,0,1.1,0.3,1.1,1.2v5.3
			c0,0.5,0.2,0.8,0.8,0.8h1.4v1H218c-0.8,0-1.3-0.5-1.3-1.6v-5.1c0-0.4,0-0.9-0.5-0.9h-1.8c-0.7,0-0.9-0.5-0.9-1.1v-2.2
			c0-0.4-0.1-0.7-0.6-0.7h-3.9V133.8z"/>
		<path class="st142" d="M230.4,123.2h-3.5c-0.3,0-0.4,0.1-0.4,0.4v1.1c0,0.1-0.1,0.2-0.2,0.2h-0.8c-0.3,0-0.5,0.2-0.5,0.5v2.5
			c0,0.3-0.1,0.4-0.4,0.4h-0.6v0.5h0.7c0.4,0,0.6-0.2,0.6-0.7v-2.4c0-0.2,0-0.4,0.2-0.4h0.8c0.3,0,0.4-0.2,0.4-0.5v-1
			c0-0.2,0-0.3,0.3-0.3h3.5V123.2z"/>
		<path class="st142" d="M218.8,127.1h-3.5c-0.3,0-0.4,0.1-0.4,0.4v1.1c0,0.1-0.1,0.2-0.2,0.2h-0.8c-0.3,0-0.5,0.2-0.5,0.5v2.5
			c0,0.3-0.1,0.4-0.4,0.4h-0.6v0.5h0.7c0.4,0,0.6-0.2,0.6-0.7v-2.4c0-0.2,0-0.4,0.2-0.4h0.8c0.3,0,0.4-0.2,0.4-0.5v-1
			c0-0.2,0-0.3,0.3-0.3h3.5V127.1z"/>
		<path class="st142" d="M224,123.6V138c0,0.7,0.3,0.8,0.7,0.8h2.5v0.5h-2.7c-0.8,0-0.9-0.5-0.9-1.2v-14.6H224z"/>
		<polygon class="st142" points="212.4,123.1 212.4,133.8 212.1,134 212.1,123.1 		"/>
		<path class="st142" d="M219.8,128.5v9.8c0,0.5-0.2,0.8-0.7,0.8h-1.8v-0.6h1.7c0.4,0,0.5-0.2,0.5-0.5v-9.6H219.8z"/>
		<path class="st142" d="M212.9,140.6v1.2c0,0.4,0.2,0.5,0.6,0.5h3.3v0.6h-3.3c-0.5,0-1-0.1-1-0.9v-1.4H212.9z"/>
		<path class="st142" d="M208.4,129v1.2c0,0.4,0.2,0.5,0.6,0.5h3.3v0.6H209c-0.5,0-1-0.1-1-0.9V129H208.4z"/>
		<path class="st142" d="M220,123.6v1.2c0,0.4,0.2,0.5,0.6,0.5h3.3v0.6h-3.3c-0.5,0-1-0.1-1-0.9v-1.4H220z"/>
		<path class="st142" d="M222.3,135.5v1.2c0,0.4,0.3,0.5,0.5,0.5h0.8v-0.4h-0.8c-0.3,0-0.3-0.2-0.3-0.4v-0.9H222.3z"/>
		<path class="st142" d="M218.3,131.7v1.2c0,0.4,0.3,0.5,0.5,0.5h0.8V133h-0.8c-0.3,0-0.3-0.2-0.3-0.4v-0.9H218.3z"/>
		<path class="st142" d="M228.1,142.2h4.2c0.7,0,0.9-0.4,0.9-1.1v-4.4h-0.4v4.3c0,0.4-0.1,0.5-0.6,0.5h-4.1V142.2z"/>
		<path class="st142" d="M223.8,132.5h2.6c0.4,0,0.5-0.3,0.5-0.7v-2.7h-0.3v2.7c0,0.2-0.1,0.3-0.4,0.3h-2.5V132.5z"/>
		<path class="st142" d="M219.6,132.1h1.8c0.3,0,0.4-0.2,0.4-0.5v-1.8h-0.2v1.8c0,0.2-0.1,0.2-0.2,0.2h-1.7V132.1z"/>
		<path class="st142" d="M212.3,126.1h1.8c0.3,0,0.4-0.2,0.4-0.5v-1.8h-0.2v1.8c0,0.2-0.1,0.2-0.2,0.2h-1.7V126.1z"/>
		<g>
			<path class="st142" d="M214.8,141.6h-0.2v-0.3c-0.2,0-0.4-0.1-0.5-0.1c-0.2-0.1-0.3-0.3-0.3-0.6h0.4c0,0.1,0,0.2,0.1,0.3
				c0,0.1,0.1,0.1,0.2,0.1v-0.7l-0.1,0c-0.2-0.1-0.3-0.1-0.4-0.2c-0.1-0.1-0.1-0.2-0.1-0.4c0-0.1,0-0.2,0-0.3c0-0.1,0.1-0.1,0.1-0.2
				c0.1-0.1,0.2-0.1,0.3-0.2c0.1,0,0.1,0,0.2,0v-0.2h0.2v0.2c0.2,0,0.3,0.1,0.4,0.1c0.2,0.1,0.3,0.3,0.3,0.5H215c0-0.1,0-0.2,0-0.2
				c0-0.1-0.1-0.1-0.2-0.1v0.6c0.3,0.1,0.4,0.2,0.5,0.2c0.1,0.1,0.2,0.3,0.2,0.5c0,0.3-0.1,0.5-0.3,0.6c-0.1,0.1-0.3,0.1-0.4,0.1
				V141.6z M214.6,139.3c-0.1,0-0.2,0-0.2,0.1c0,0-0.1,0.1-0.1,0.2c0,0.1,0,0.2,0.1,0.2c0,0,0.1,0.1,0.2,0.1V139.3z M214.8,140.9
				c0.1,0,0.1,0,0.2-0.1c0.1,0,0.1-0.1,0.1-0.3c0-0.1,0-0.2-0.1-0.2c0,0-0.1-0.1-0.2-0.1V140.9z"/>
		</g>
		<g>
			<path class="st142" d="M222.4,135.9h-0.1v-0.2c-0.1,0-0.3,0-0.3-0.1c-0.1-0.1-0.2-0.2-0.2-0.4h0.3c0,0.1,0,0.2,0,0.2
				c0,0,0.1,0.1,0.2,0.1v-0.5l-0.1,0c-0.1,0-0.2-0.1-0.3-0.2c-0.1-0.1-0.1-0.2-0.1-0.3c0-0.1,0-0.1,0-0.2c0-0.1,0.1-0.1,0.1-0.1
				c0.1-0.1,0.1-0.1,0.2-0.1c0,0,0.1,0,0.2,0v-0.1h0.1v0.1c0.1,0,0.2,0,0.3,0.1c0.1,0.1,0.2,0.2,0.2,0.4h-0.3c0-0.1,0-0.1,0-0.1
				c0-0.1-0.1-0.1-0.1-0.1v0.4c0.2,0.1,0.3,0.1,0.3,0.2c0.1,0.1,0.1,0.2,0.1,0.3c0,0.2-0.1,0.3-0.2,0.4c-0.1,0.1-0.2,0.1-0.3,0.1
				V135.9z M222.3,134.2c-0.1,0-0.1,0-0.1,0.1c0,0,0,0.1,0,0.1c0,0.1,0,0.1,0.1,0.1c0,0,0.1,0,0.1,0.1V134.2z M222.4,135.4
				c0.1,0,0.1,0,0.1,0c0,0,0.1-0.1,0.1-0.2c0-0.1,0-0.1-0.1-0.1c0,0-0.1,0-0.1-0.1V135.4z"/>
		</g>
		<g>
			<path class="st142" d="M218.4,131.9h-0.1v-0.2c-0.1,0-0.3,0-0.3-0.1c-0.1-0.1-0.2-0.2-0.2-0.4h0.3c0,0.1,0,0.2,0,0.2
				c0,0,0.1,0.1,0.2,0.1v-0.5l-0.1,0c-0.1,0-0.2-0.1-0.3-0.2c-0.1-0.1-0.1-0.2-0.1-0.3c0-0.1,0-0.1,0-0.2c0-0.1,0.1-0.1,0.1-0.1
				c0.1-0.1,0.1-0.1,0.2-0.1c0,0,0.1,0,0.2,0v-0.1h0.1v0.1c0.1,0,0.2,0,0.3,0.1c0.1,0.1,0.2,0.2,0.2,0.4h-0.3c0-0.1,0-0.1,0-0.1
				c0-0.1-0.1-0.1-0.1-0.1v0.4c0.2,0.1,0.3,0.1,0.3,0.2c0.1,0.1,0.1,0.2,0.1,0.3c0,0.2-0.1,0.3-0.2,0.4c-0.1,0.1-0.2,0.1-0.3,0.1
				V131.9z M218.2,130.3c-0.1,0-0.1,0-0.1,0.1c0,0,0,0.1,0,0.1c0,0.1,0,0.1,0.1,0.1c0,0,0.1,0,0.1,0.1V130.3z M218.4,131.4
				c0.1,0,0.1,0,0.1,0c0,0,0.1-0.1,0.1-0.2c0-0.1,0-0.1-0.1-0.1c0,0-0.1,0-0.1-0.1V131.4z"/>
		</g>
		<g>
			<path class="st142" d="M220.8,131.5h-0.1v-0.2c-0.1,0-0.3,0-0.3-0.1c-0.1-0.1-0.2-0.2-0.2-0.4h0.3c0,0.1,0,0.2,0,0.2
				c0,0,0.1,0.1,0.2,0.1v-0.5l-0.1,0c-0.1,0-0.2-0.1-0.3-0.2c-0.1-0.1-0.1-0.2-0.1-0.3c0-0.1,0-0.1,0-0.2c0-0.1,0.1-0.1,0.1-0.1
				c0.1-0.1,0.1-0.1,0.2-0.1c0,0,0.1,0,0.2,0v-0.1h0.1v0.1c0.1,0,0.2,0,0.3,0.1c0.1,0.1,0.2,0.2,0.2,0.4h-0.3c0-0.1,0-0.1,0-0.1
				c0-0.1-0.1-0.1-0.1-0.1v0.4c0.2,0.1,0.3,0.1,0.3,0.2c0.1,0.1,0.1,0.2,0.1,0.3c0,0.2-0.1,0.3-0.2,0.4c-0.1,0.1-0.2,0.1-0.3,0.1
				V131.5z M220.7,129.9c-0.1,0-0.1,0-0.1,0.1c0,0,0,0.1,0,0.1c0,0.1,0,0.1,0.1,0.1c0,0,0.1,0,0.1,0.1V129.9z M220.8,131
				c0.1,0,0.1,0,0.1,0c0,0,0.1-0.1,0.1-0.2c0-0.1,0-0.1-0.1-0.1c0,0-0.1,0-0.1-0.1V131z"/>
		</g>
		<g>
			<path class="st142" d="M214.5,131.4h-0.1v-0.2c-0.1,0-0.3,0-0.3-0.1c-0.1-0.1-0.2-0.2-0.2-0.4h0.3c0,0.1,0,0.2,0,0.2
				c0,0,0.1,0.1,0.2,0.1v-0.5l-0.1,0c-0.1,0-0.2-0.1-0.3-0.2c-0.1-0.1-0.1-0.2-0.1-0.3c0-0.1,0-0.1,0-0.2c0-0.1,0.1-0.1,0.1-0.1
				c0.1-0.1,0.1-0.1,0.2-0.1c0,0,0.1,0,0.2,0v-0.1h0.1v0.1c0.1,0,0.2,0,0.3,0.1c0.1,0.1,0.2,0.2,0.2,0.4h-0.3c0-0.1,0-0.1,0-0.1
				c0-0.1-0.1-0.1-0.1-0.1v0.4c0.2,0.1,0.3,0.1,0.3,0.2c0.1,0.1,0.1,0.2,0.1,0.3c0,0.2-0.1,0.3-0.2,0.4c-0.1,0.1-0.2,0.1-0.3,0.1
				V131.4z M214.4,129.8c-0.1,0-0.1,0-0.1,0.1c0,0,0,0.1,0,0.1c0,0.1,0,0.1,0.1,0.1c0,0,0.1,0,0.1,0.1V129.8z M214.5,130.9
				c0.1,0,0.1,0,0.1,0c0,0,0.1-0.1,0.1-0.2c0-0.1,0-0.1-0.1-0.1c0,0-0.1,0-0.1-0.1V130.9z"/>
		</g>
		<g>
			<path class="st142" d="M225,124.6h-0.1v-0.2c-0.1,0-0.3,0-0.3-0.1c-0.1-0.1-0.2-0.2-0.2-0.4h0.3c0,0.1,0,0.2,0,0.2
				c0,0,0.1,0.1,0.2,0.1v-0.5l-0.1,0c-0.1,0-0.2-0.1-0.3-0.2c-0.1-0.1-0.1-0.2-0.1-0.3c0-0.1,0-0.1,0-0.2c0-0.1,0.1-0.1,0.1-0.1
				c0.1-0.1,0.1-0.1,0.2-0.1c0,0,0.1,0,0.2,0v-0.1h0.1v0.1c0.1,0,0.2,0,0.3,0.1c0.1,0.1,0.2,0.2,0.2,0.4h-0.3c0-0.1,0-0.1,0-0.1
				c0-0.1-0.1-0.1-0.1-0.1v0.4c0.2,0.1,0.3,0.1,0.3,0.2c0.1,0.1,0.1,0.2,0.1,0.3c0,0.2-0.1,0.3-0.2,0.4c-0.1,0.1-0.2,0.1-0.3,0.1
				V124.6z M224.9,123c-0.1,0-0.1,0-0.1,0.1c0,0,0,0.1,0,0.1c0,0.1,0,0.1,0.1,0.1c0,0,0.1,0,0.1,0.1V123z M225,124.2
				c0.1,0,0.1,0,0.1,0c0,0,0.1-0.1,0.1-0.2c0-0.1,0-0.1-0.1-0.1c0,0-0.1,0-0.1-0.1V124.2z"/>
		</g>
		<g>
			<path class="st142" d="M219.9,123.9h-0.1v-0.2c-0.1,0-0.3,0-0.3-0.1c-0.1-0.1-0.2-0.2-0.2-0.4h0.3c0,0.1,0,0.2,0,0.2
				c0,0,0.1,0.1,0.2,0.1V123l-0.1,0c-0.1,0-0.2-0.1-0.3-0.2c-0.1-0.1-0.1-0.2-0.1-0.3c0-0.1,0-0.1,0-0.2c0-0.1,0.1-0.1,0.1-0.1
				c0.1-0.1,0.1-0.1,0.2-0.1c0,0,0.1,0,0.2,0v-0.1h0.1v0.1c0.1,0,0.2,0,0.3,0.1c0.1,0.1,0.2,0.2,0.2,0.4h-0.3c0-0.1,0-0.1,0-0.1
				c0-0.1-0.1-0.1-0.1-0.1v0.4c0.2,0.1,0.3,0.1,0.3,0.2c0.1,0.1,0.1,0.2,0.1,0.3c0,0.2-0.1,0.3-0.2,0.4c-0.1,0.1-0.2,0.1-0.3,0.1
				V123.9z M219.8,122.3c-0.1,0-0.1,0-0.1,0.1c0,0,0,0.1,0,0.1c0,0.1,0,0.1,0.1,0.1c0,0,0.1,0,0.1,0.1V122.3z M219.9,123.4
				c0.1,0,0.1,0,0.1,0c0,0,0.1-0.1,0.1-0.2c0-0.1,0-0.1-0.1-0.1c0,0-0.1,0-0.1-0.1V123.4z"/>
		</g>
		<g>
			<path class="st142" d="M209.1,138.1h-0.3v-0.5c-0.3,0-0.6-0.1-0.8-0.2c-0.3-0.2-0.4-0.5-0.4-1h0.7c0,0.2,0.1,0.4,0.1,0.4
				c0.1,0.1,0.2,0.2,0.4,0.2v-1.1l-0.2-0.1c-0.3-0.1-0.6-0.2-0.7-0.4c-0.1-0.2-0.2-0.4-0.2-0.6c0-0.2,0-0.3,0.1-0.4
				c0.1-0.1,0.1-0.2,0.2-0.3c0.1-0.1,0.3-0.2,0.4-0.3c0.1,0,0.2-0.1,0.4-0.1v-0.3h0.3v0.4c0.3,0,0.5,0.1,0.7,0.2
				c0.3,0.2,0.4,0.5,0.5,0.9h-0.7c0-0.2,0-0.3-0.1-0.3c-0.1-0.1-0.2-0.2-0.4-0.2v1c0.4,0.1,0.7,0.3,0.8,0.4c0.2,0.2,0.4,0.4,0.4,0.8
				c0,0.4-0.2,0.8-0.5,1c-0.2,0.1-0.4,0.2-0.7,0.2V138.1z M208.9,134.3c-0.2,0-0.3,0-0.3,0.1c-0.1,0.1-0.1,0.2-0.1,0.3
				c0,0.1,0.1,0.3,0.2,0.3c0.1,0,0.2,0.1,0.3,0.1V134.3z M209.1,137c0.1,0,0.2,0,0.3-0.1c0.1-0.1,0.2-0.2,0.2-0.4
				c0-0.2-0.1-0.3-0.2-0.4c-0.1-0.1-0.2-0.1-0.3-0.2V137z"/>
		</g>
		<g>
			<path class="st142" d="M211.6,136.6L211.6,136.6l-0.1-0.2c-0.1,0-0.2,0-0.3-0.1c-0.1-0.1-0.2-0.2-0.2-0.4h0.3c0,0.1,0,0.1,0,0.2
				c0,0,0.1,0.1,0.2,0.1v-0.4l-0.1,0c-0.1,0-0.2-0.1-0.3-0.2c-0.1-0.1-0.1-0.1-0.1-0.2c0-0.1,0-0.1,0-0.2c0-0.1,0-0.1,0.1-0.1
				c0,0,0.1-0.1,0.2-0.1c0,0,0.1,0,0.2,0v-0.1h0.1v0.1c0.1,0,0.2,0,0.3,0.1c0.1,0.1,0.2,0.2,0.2,0.4h-0.3c0-0.1,0-0.1,0-0.1
				c0,0-0.1-0.1-0.1-0.1v0.4c0.2,0.1,0.3,0.1,0.3,0.1c0.1,0.1,0.1,0.2,0.1,0.3c0,0.2-0.1,0.3-0.2,0.4c-0.1,0-0.2,0.1-0.3,0.1V136.6z
				 M211.5,135.1c-0.1,0-0.1,0-0.1,0c0,0,0,0.1,0,0.1c0,0.1,0,0.1,0.1,0.1c0,0,0.1,0,0.1,0.1V135.1z M211.6,136.1c0.1,0,0.1,0,0.1,0
				c0,0,0.1-0.1,0.1-0.2c0-0.1,0-0.1-0.1-0.1c0,0-0.1,0-0.1-0.1V136.1z"/>
		</g>
		<g>
			<path class="st142" d="M213.8,128.5L213.8,128.5l-0.1-0.2c-0.1,0-0.2,0-0.3-0.1c-0.1-0.1-0.2-0.2-0.2-0.4h0.3c0,0.1,0,0.1,0,0.2
				c0,0,0.1,0.1,0.2,0.1v-0.4l-0.1,0c-0.1,0-0.2-0.1-0.3-0.2c-0.1-0.1-0.1-0.1-0.1-0.2c0-0.1,0-0.1,0-0.2c0-0.1,0-0.1,0.1-0.1
				c0,0,0.1-0.1,0.2-0.1c0,0,0.1,0,0.2,0v-0.1h0.1v0.1c0.1,0,0.2,0,0.3,0.1c0.1,0.1,0.2,0.2,0.2,0.4H214c0-0.1,0-0.1,0-0.1
				c0,0-0.1-0.1-0.1-0.1v0.4c0.2,0.1,0.3,0.1,0.3,0.1c0.1,0.1,0.1,0.2,0.1,0.3c0,0.2-0.1,0.3-0.2,0.4c-0.1,0-0.2,0.1-0.3,0.1V128.5z
				 M213.7,127c-0.1,0-0.1,0-0.1,0c0,0,0,0.1,0,0.1c0,0.1,0,0.1,0.1,0.1c0,0,0.1,0,0.1,0.1V127z M213.8,128.1c0.1,0,0.1,0,0.1,0
				c0,0,0.1-0.1,0.1-0.2c0-0.1,0-0.1-0.1-0.1c0,0-0.1,0-0.1-0.1V128.1z"/>
		</g>
		<g>
			<path class="st142" d="M209.3,130.9L209.3,130.9l-0.1-0.2c-0.1,0-0.2,0-0.3-0.1c-0.1-0.1-0.2-0.2-0.2-0.4h0.3c0,0.1,0,0.1,0,0.2
				c0,0,0.1,0.1,0.2,0.1V130l-0.1,0c-0.1,0-0.2-0.1-0.3-0.2c-0.1-0.1-0.1-0.1-0.1-0.2c0-0.1,0-0.1,0-0.2c0-0.1,0-0.1,0.1-0.1
				c0,0,0.1-0.1,0.2-0.1c0,0,0.1,0,0.2,0V129h0.1v0.1c0.1,0,0.2,0,0.3,0.1c0.1,0.1,0.2,0.2,0.2,0.4h-0.3c0-0.1,0-0.1,0-0.1
				c0,0-0.1-0.1-0.1-0.1v0.4c0.2,0.1,0.3,0.1,0.3,0.1c0.1,0.1,0.1,0.2,0.1,0.3c0,0.2-0.1,0.3-0.2,0.4c-0.1,0-0.2,0.1-0.3,0.1V130.9z
				 M209.2,129.4c-0.1,0-0.1,0-0.1,0c0,0,0,0.1,0,0.1c0,0.1,0,0.1,0.1,0.1c0,0,0.1,0,0.1,0.1V129.4z M209.3,130.4c0.1,0,0.1,0,0.1,0
				c0,0,0.1-0.1,0.1-0.2c0-0.1,0-0.1-0.1-0.1c0,0-0.1,0-0.1-0.1V130.4z"/>
		</g>
		<g>
			<path class="st142" d="M213.4,125.6L213.4,125.6l-0.1-0.2c-0.1,0-0.2,0-0.3-0.1c-0.1-0.1-0.2-0.2-0.2-0.4h0.3c0,0.1,0,0.1,0,0.2
				c0,0,0.1,0.1,0.2,0.1v-0.4l-0.1,0c-0.1,0-0.2-0.1-0.3-0.2c-0.1-0.1-0.1-0.1-0.1-0.2c0-0.1,0-0.1,0-0.2c0-0.1,0-0.1,0.1-0.1
				c0,0,0.1-0.1,0.2-0.1c0,0,0.1,0,0.2,0v-0.1h0.1v0.1c0.1,0,0.2,0,0.3,0.1c0.1,0.1,0.2,0.2,0.2,0.4h-0.3c0-0.1,0-0.1,0-0.1
				c0,0-0.1-0.1-0.1-0.1v0.4c0.2,0.1,0.3,0.1,0.3,0.1c0.1,0.1,0.1,0.2,0.1,0.3c0,0.2-0.1,0.3-0.2,0.4c-0.1,0-0.2,0.1-0.3,0.1V125.6z
				 M213.3,124.1c-0.1,0-0.1,0-0.1,0c0,0,0,0.1,0,0.1c0,0.1,0,0.1,0.1,0.1c0,0,0.1,0,0.1,0.1V124.1z M213.4,125.1c0.1,0,0.1,0,0.1,0
				c0,0,0.1-0.1,0.1-0.2c0-0.1,0-0.1-0.1-0.1c0,0-0.1,0-0.1-0.1V125.1z"/>
		</g>
		<g>
			<path class="st142" d="M231.9,137L231.9,137l-0.1-0.2c-0.1,0-0.2,0-0.3-0.1c-0.1-0.1-0.2-0.2-0.2-0.4h0.3c0,0.1,0,0.1,0,0.2
				c0,0,0.1,0.1,0.2,0.1v-0.4l-0.1,0c-0.1,0-0.2-0.1-0.3-0.2c-0.1-0.1-0.1-0.1-0.1-0.2c0-0.1,0-0.1,0-0.2c0-0.1,0-0.1,0.1-0.1
				c0,0,0.1-0.1,0.2-0.1c0,0,0.1,0,0.2,0v-0.1h0.1v0.1c0.1,0,0.2,0,0.3,0.1c0.1,0.1,0.2,0.2,0.2,0.4h-0.3c0-0.1,0-0.1,0-0.1
				c0,0-0.1-0.1-0.1-0.1v0.4c0.2,0.1,0.3,0.1,0.3,0.1c0.1,0.1,0.1,0.2,0.1,0.3c0,0.2-0.1,0.3-0.2,0.4c-0.1,0-0.2,0.1-0.3,0.1V137z
				 M231.8,135.5c-0.1,0-0.1,0-0.1,0c0,0,0,0.1,0,0.1c0,0.1,0,0.1,0.1,0.1c0,0,0.1,0,0.1,0.1V135.5z M231.9,136.5c0.1,0,0.1,0,0.1,0
				c0,0,0.1-0.1,0.1-0.2c0-0.1,0-0.1-0.1-0.1c0,0-0.1,0-0.1-0.1V136.5z"/>
		</g>
		<g>
			<path class="st142" d="M218,137.2h-0.2v-0.4c-0.2,0-0.4-0.1-0.5-0.2c-0.2-0.1-0.3-0.4-0.3-0.7h0.5c0,0.1,0,0.2,0.1,0.3
				c0,0.1,0.1,0.1,0.3,0.2v-0.8l-0.1,0c-0.2-0.1-0.4-0.2-0.5-0.3c-0.1-0.1-0.1-0.3-0.1-0.4c0-0.1,0-0.2,0.1-0.3
				c0-0.1,0.1-0.2,0.2-0.2c0.1-0.1,0.2-0.1,0.3-0.2c0.1,0,0.2,0,0.3,0V134h0.2v0.2c0.2,0,0.3,0.1,0.4,0.1c0.2,0.1,0.3,0.3,0.3,0.6
				h-0.5c0-0.1,0-0.2-0.1-0.2c0-0.1-0.1-0.1-0.2-0.1v0.7c0.3,0.1,0.5,0.2,0.6,0.3c0.2,0.1,0.2,0.3,0.2,0.5c0,0.3-0.1,0.5-0.3,0.6
				c-0.1,0.1-0.3,0.1-0.5,0.1V137.2z M217.8,134.6c-0.1,0-0.2,0-0.2,0.1c0,0.1-0.1,0.1-0.1,0.2c0,0.1,0,0.2,0.1,0.2
				c0,0,0.1,0.1,0.2,0.1V134.6z M218,136.5c0.1,0,0.2,0,0.2-0.1c0.1-0.1,0.1-0.1,0.1-0.3c0-0.1,0-0.2-0.1-0.2c0,0-0.1-0.1-0.2-0.1
				V136.5z"/>
		</g>
		<g>
			<path class="st142" d="M217.1,130.4h-0.2V130c-0.2,0-0.4-0.1-0.5-0.2c-0.2-0.1-0.3-0.4-0.3-0.7h0.5c0,0.1,0,0.2,0.1,0.3
				c0,0.1,0.1,0.1,0.3,0.2v-0.8l-0.1,0c-0.2-0.1-0.4-0.2-0.5-0.3c-0.1-0.1-0.1-0.3-0.1-0.4c0-0.1,0-0.2,0.1-0.3
				c0-0.1,0.1-0.2,0.2-0.2c0.1-0.1,0.2-0.1,0.3-0.2c0.1,0,0.2,0,0.3,0v-0.2h0.2v0.2c0.2,0,0.3,0.1,0.4,0.1c0.2,0.1,0.3,0.3,0.3,0.6
				h-0.5c0-0.1,0-0.2-0.1-0.2c0-0.1-0.1-0.1-0.2-0.1v0.7c0.3,0.1,0.5,0.2,0.6,0.3c0.2,0.1,0.2,0.3,0.2,0.5c0,0.3-0.1,0.5-0.3,0.6
				c-0.1,0.1-0.3,0.1-0.5,0.1V130.4z M216.9,127.8c-0.1,0-0.2,0-0.2,0.1c0,0.1-0.1,0.1-0.1,0.2c0,0.1,0,0.2,0.1,0.2
				c0,0,0.1,0.1,0.2,0.1V127.8z M217.1,129.6c0.1,0,0.2,0,0.2-0.1c0.1-0.1,0.1-0.1,0.1-0.3c0-0.1,0-0.2-0.1-0.2c0,0-0.1-0.1-0.2-0.1
				V129.6z"/>
		</g>
		<g>
			<path class="st142" d="M210.6,129.7h-0.2v-0.4c-0.2,0-0.4-0.1-0.5-0.2c-0.2-0.1-0.3-0.4-0.3-0.7h0.5c0,0.1,0,0.2,0.1,0.3
				c0,0.1,0.1,0.1,0.3,0.2v-0.8l-0.1,0c-0.2-0.1-0.4-0.2-0.5-0.3c-0.1-0.1-0.1-0.3-0.1-0.4c0-0.1,0-0.2,0.1-0.3
				c0-0.1,0.1-0.2,0.2-0.2c0.1-0.1,0.2-0.1,0.3-0.2c0.1,0,0.2,0,0.3,0v-0.2h0.2v0.2c0.2,0,0.3,0.1,0.4,0.1c0.2,0.1,0.3,0.3,0.3,0.6
				h-0.5c0-0.1,0-0.2-0.1-0.2c0-0.1-0.1-0.1-0.2-0.1v0.7c0.3,0.1,0.5,0.2,0.6,0.3c0.2,0.1,0.2,0.3,0.2,0.5c0,0.3-0.1,0.5-0.3,0.6
				c-0.1,0.1-0.3,0.1-0.5,0.1V129.7z M210.5,127.1c-0.1,0-0.2,0-0.2,0.1c0,0.1-0.1,0.1-0.1,0.2c0,0.1,0,0.2,0.1,0.2
				c0,0,0.1,0.1,0.2,0.1V127.1z M210.6,129c0.1,0,0.2,0,0.2-0.1c0.1-0.1,0.1-0.1,0.1-0.3c0-0.1,0-0.2-0.1-0.2c0,0-0.1-0.1-0.2-0.1
				V129z"/>
		</g>
		<g>
			<path class="st142" d="M231,141h-0.2v-0.4c-0.3,0-0.5-0.1-0.6-0.2c-0.2-0.2-0.4-0.4-0.4-0.8h0.6c0,0.2,0,0.3,0.1,0.4
				c0.1,0.1,0.2,0.2,0.3,0.2v-0.9l-0.2-0.1c-0.3-0.1-0.5-0.2-0.6-0.3c-0.1-0.1-0.2-0.3-0.2-0.5c0-0.1,0-0.3,0.1-0.4
				c0-0.1,0.1-0.2,0.2-0.3c0.1-0.1,0.2-0.2,0.3-0.2c0.1,0,0.2,0,0.3-0.1v-0.3h0.2v0.3c0.2,0,0.4,0.1,0.5,0.2
				c0.2,0.2,0.4,0.4,0.4,0.7h-0.6c0-0.1,0-0.2-0.1-0.3c-0.1-0.1-0.2-0.2-0.3-0.2v0.8c0.3,0.1,0.6,0.2,0.7,0.3
				c0.2,0.2,0.3,0.4,0.3,0.6c0,0.4-0.1,0.6-0.4,0.8c-0.2,0.1-0.4,0.2-0.6,0.2V141z M230.8,137.9c-0.1,0-0.2,0-0.3,0.1
				c-0.1,0.1-0.1,0.2-0.1,0.3c0,0.1,0,0.2,0.1,0.3c0.1,0,0.1,0.1,0.2,0.1V137.9z M231,140.1c0.1,0,0.2,0,0.2-0.1
				c0.1-0.1,0.1-0.2,0.1-0.3c0-0.1,0-0.2-0.1-0.3c0,0-0.1-0.1-0.3-0.1V140.1z"/>
		</g>
		<g>
			<path class="st142" d="M231.5,133.9h-0.2v-0.4c-0.3,0-0.5-0.1-0.6-0.2c-0.2-0.2-0.4-0.4-0.4-0.8h0.6c0,0.2,0,0.3,0.1,0.4
				c0.1,0.1,0.2,0.2,0.3,0.2v-0.9l-0.2-0.1c-0.3-0.1-0.5-0.2-0.6-0.3c-0.1-0.1-0.2-0.3-0.2-0.5c0-0.1,0-0.3,0.1-0.4
				c0-0.1,0.1-0.2,0.2-0.3c0.1-0.1,0.2-0.2,0.3-0.2c0.1,0,0.2,0,0.3-0.1v-0.3h0.2v0.3c0.2,0,0.4,0.1,0.5,0.2
				c0.2,0.2,0.4,0.4,0.4,0.7h-0.6c0-0.1,0-0.2-0.1-0.3c-0.1-0.1-0.2-0.2-0.3-0.2v0.8c0.3,0.1,0.6,0.2,0.7,0.3
				c0.2,0.2,0.3,0.4,0.3,0.6c0,0.4-0.1,0.6-0.4,0.8c-0.2,0.1-0.4,0.2-0.6,0.2V133.9z M231.3,130.7c-0.1,0-0.2,0-0.3,0.1
				c-0.1,0.1-0.1,0.2-0.1,0.3c0,0.1,0,0.2,0.1,0.3c0.1,0,0.1,0.1,0.2,0.1V130.7z M231.5,133c0.1,0,0.2,0,0.2-0.1
				c0.1-0.1,0.1-0.2,0.1-0.3c0-0.1,0-0.2-0.1-0.3c0,0-0.1-0.1-0.3-0.1V133z"/>
		</g>
		<g>
			<path class="st142" d="M228.9,137.5h-0.1v-0.2c-0.2,0-0.3-0.1-0.4-0.1c-0.1-0.1-0.2-0.3-0.2-0.5h0.3c0,0.1,0,0.2,0,0.2
				c0,0.1,0.1,0.1,0.2,0.1v-0.5l-0.1,0c-0.2,0-0.3-0.1-0.3-0.2c-0.1-0.1-0.1-0.2-0.1-0.3c0-0.1,0-0.1,0-0.2c0-0.1,0.1-0.1,0.1-0.2
				c0.1-0.1,0.1-0.1,0.2-0.1c0,0,0.1,0,0.2,0v-0.2h0.1v0.2c0.1,0,0.2,0,0.3,0.1c0.1,0.1,0.2,0.2,0.2,0.4h-0.3c0-0.1,0-0.1,0-0.2
				c0-0.1-0.1-0.1-0.2-0.1v0.5c0.2,0.1,0.3,0.1,0.4,0.2c0.1,0.1,0.2,0.2,0.2,0.4c0,0.2-0.1,0.4-0.2,0.5c-0.1,0.1-0.2,0.1-0.3,0.1
				V137.5z M228.8,135.7c-0.1,0-0.1,0-0.2,0.1c0,0-0.1,0.1-0.1,0.2c0,0.1,0,0.1,0.1,0.2c0,0,0.1,0,0.1,0.1V135.7z M228.9,137
				c0.1,0,0.1,0,0.1,0c0.1,0,0.1-0.1,0.1-0.2c0-0.1,0-0.1-0.1-0.2c0,0-0.1,0-0.1-0.1V137z"/>
		</g>
		<g>
			<path class="st142" d="M225.4,131.6h-0.1v-0.2c-0.2,0-0.3-0.1-0.4-0.1c-0.1-0.1-0.2-0.3-0.2-0.5h0.3c0,0.1,0,0.2,0,0.2
				c0,0.1,0.1,0.1,0.2,0.1v-0.5l-0.1,0c-0.2,0-0.3-0.1-0.3-0.2c-0.1-0.1-0.1-0.2-0.1-0.3c0-0.1,0-0.1,0-0.2c0-0.1,0.1-0.1,0.1-0.2
				c0.1-0.1,0.1-0.1,0.2-0.1c0,0,0.1,0,0.2,0v-0.2h0.1v0.2c0.1,0,0.2,0,0.3,0.1c0.1,0.1,0.2,0.2,0.2,0.4h-0.3c0-0.1,0-0.1,0-0.2
				c0-0.1-0.1-0.1-0.2-0.1v0.5c0.2,0.1,0.3,0.1,0.4,0.2c0.1,0.1,0.2,0.2,0.2,0.4c0,0.2-0.1,0.4-0.2,0.5c-0.1,0.1-0.2,0.1-0.3,0.1
				V131.6z M225.3,129.8c-0.1,0-0.1,0-0.2,0.1c0,0-0.1,0.1-0.1,0.2c0,0.1,0,0.1,0.1,0.2c0,0,0.1,0,0.1,0.1V129.8z M225.4,131.1
				c0.1,0,0.1,0,0.1,0c0.1,0,0.1-0.1,0.1-0.2c0-0.1,0-0.1-0.1-0.2c0,0-0.1,0-0.1-0.1V131.1z"/>
		</g>
		<g>
			<path class="st142" d="M234,138h-0.2v-0.3c-0.2,0-0.4-0.1-0.5-0.1c-0.2-0.1-0.3-0.3-0.3-0.7h0.5c0,0.1,0,0.2,0.1,0.3
				c0,0.1,0.1,0.1,0.3,0.1v-0.7l-0.1,0c-0.2-0.1-0.4-0.2-0.5-0.3c-0.1-0.1-0.1-0.2-0.1-0.4c0-0.1,0-0.2,0.1-0.3
				c0-0.1,0.1-0.2,0.1-0.2c0.1-0.1,0.2-0.1,0.3-0.2c0.1,0,0.1,0,0.3,0v-0.2h0.2v0.2c0.2,0,0.3,0.1,0.4,0.1c0.2,0.1,0.3,0.3,0.3,0.6
				h-0.4c0-0.1,0-0.2-0.1-0.2c0-0.1-0.1-0.1-0.2-0.1v0.6c0.3,0.1,0.4,0.2,0.5,0.2c0.2,0.1,0.2,0.3,0.2,0.5c0,0.3-0.1,0.5-0.3,0.6
				c-0.1,0.1-0.3,0.1-0.5,0.1V138z M233.9,135.5c-0.1,0-0.2,0-0.2,0.1c0,0.1-0.1,0.1-0.1,0.2c0,0.1,0,0.2,0.1,0.2
				c0,0,0.1,0.1,0.2,0.1V135.5z M234,137.2c0.1,0,0.2,0,0.2-0.1c0.1-0.1,0.1-0.1,0.1-0.3c0-0.1,0-0.2-0.1-0.2c0,0-0.1-0.1-0.2-0.1
				V137.2z"/>
		</g>
		<g>
			<path class="st142" d="M227.6,130.5h-0.2v-0.3c-0.2,0-0.4-0.1-0.5-0.1c-0.2-0.1-0.3-0.3-0.3-0.7h0.5c0,0.1,0,0.2,0.1,0.3
				c0,0.1,0.1,0.1,0.3,0.1v-0.7l-0.1,0c-0.2-0.1-0.4-0.2-0.5-0.3c-0.1-0.1-0.1-0.2-0.1-0.4c0-0.1,0-0.2,0.1-0.3
				c0-0.1,0.1-0.2,0.1-0.2c0.1-0.1,0.2-0.1,0.3-0.2c0.1,0,0.1,0,0.3,0v-0.2h0.2v0.2c0.2,0,0.3,0.1,0.4,0.1c0.2,0.1,0.3,0.3,0.3,0.6
				h-0.4c0-0.1,0-0.2-0.1-0.2c0-0.1-0.1-0.1-0.2-0.1v0.6c0.3,0.1,0.4,0.2,0.5,0.2c0.2,0.1,0.2,0.3,0.2,0.5c0,0.3-0.1,0.5-0.3,0.6
				c-0.1,0.1-0.3,0.1-0.5,0.1V130.5z M227.5,128c-0.1,0-0.2,0-0.2,0.1c0,0.1-0.1,0.1-0.1,0.2c0,0.1,0,0.2,0.1,0.2
				c0,0,0.1,0.1,0.2,0.1V128z M227.6,129.8c0.1,0,0.2,0,0.2-0.1c0.1-0.1,0.1-0.1,0.1-0.3c0-0.1,0-0.2-0.1-0.2c0,0-0.1-0.1-0.2-0.1
				V129.8z"/>
		</g>
		<g>
			<path class="st142" d="M221.3,140.4h-0.2V140c-0.3,0-0.5-0.1-0.6-0.2c-0.2-0.2-0.4-0.4-0.4-0.8h0.6c0,0.2,0,0.3,0.1,0.4
				c0.1,0.1,0.2,0.2,0.3,0.2v-0.9l-0.2-0.1c-0.3-0.1-0.5-0.2-0.6-0.3c-0.1-0.1-0.2-0.3-0.2-0.5c0-0.1,0-0.3,0.1-0.4
				c0-0.1,0.1-0.2,0.2-0.3c0.1-0.1,0.2-0.2,0.3-0.2c0.1,0,0.2,0,0.3-0.1v-0.3h0.2v0.3c0.2,0,0.4,0.1,0.5,0.2
				c0.2,0.2,0.4,0.4,0.4,0.7h-0.6c0-0.1,0-0.2-0.1-0.3c-0.1-0.1-0.2-0.2-0.3-0.2v0.8c0.3,0.1,0.6,0.2,0.7,0.3
				c0.2,0.1,0.3,0.4,0.3,0.6c0,0.4-0.1,0.6-0.4,0.8c-0.2,0.1-0.4,0.2-0.6,0.2V140.4z M221.1,137.3c-0.1,0-0.2,0-0.3,0.1
				c-0.1,0.1-0.1,0.2-0.1,0.3c0,0.1,0,0.2,0.1,0.3c0,0,0.1,0.1,0.2,0.1V137.3z M221.3,139.5c0.1,0,0.2,0,0.2-0.1
				c0.1-0.1,0.1-0.2,0.1-0.3c0-0.1,0-0.2-0.1-0.3c0,0-0.1-0.1-0.3-0.1V139.5z"/>
		</g>
		<g>
			<path class="st142" d="M222.1,124.9h-0.2v-0.4c-0.3,0-0.5-0.1-0.6-0.2c-0.2-0.2-0.4-0.4-0.4-0.8h0.6c0,0.2,0,0.3,0.1,0.4
				c0.1,0.1,0.2,0.2,0.3,0.2V123l-0.2-0.1c-0.3-0.1-0.5-0.2-0.6-0.3c-0.1-0.1-0.2-0.3-0.2-0.5c0-0.1,0-0.3,0.1-0.4
				c0-0.1,0.1-0.2,0.2-0.3c0.1-0.1,0.2-0.2,0.3-0.2c0.1,0,0.2,0,0.3-0.1V121h0.2v0.3c0.2,0,0.4,0.1,0.5,0.2c0.2,0.2,0.4,0.4,0.4,0.7
				h-0.6c0-0.1,0-0.2-0.1-0.3c-0.1-0.1-0.2-0.2-0.3-0.2v0.8c0.3,0.1,0.6,0.2,0.7,0.3c0.2,0.1,0.3,0.4,0.3,0.6c0,0.4-0.1,0.6-0.4,0.8
				c-0.2,0.1-0.4,0.2-0.6,0.2V124.9z M221.9,121.7c-0.1,0-0.2,0-0.3,0.1c-0.1,0.1-0.1,0.2-0.1,0.3c0,0.1,0,0.2,0.1,0.3
				c0,0,0.1,0.1,0.2,0.1V121.7z M222.1,124c0.1,0,0.2,0,0.2-0.1c0.1-0.1,0.1-0.2,0.1-0.3c0-0.1,0-0.2-0.1-0.3c0,0-0.1-0.1-0.3-0.1
				V124z"/>
		</g>
		<g>
			<path class="st142" d="M216.7,126.8h-0.2v-0.4c-0.3,0-0.5-0.1-0.6-0.2c-0.2-0.2-0.4-0.4-0.4-0.8h0.6c0,0.2,0,0.3,0.1,0.4
				c0.1,0.1,0.2,0.2,0.3,0.2v-0.9l-0.2-0.1c-0.3-0.1-0.5-0.2-0.6-0.3c-0.1-0.1-0.2-0.3-0.2-0.5c0-0.1,0-0.3,0.1-0.4
				c0-0.1,0.1-0.2,0.2-0.3c0.1-0.1,0.2-0.2,0.3-0.2c0.1,0,0.2,0,0.3-0.1v-0.3h0.2v0.3c0.2,0,0.4,0.1,0.5,0.2
				c0.2,0.2,0.4,0.4,0.4,0.7H217c0-0.1,0-0.2-0.1-0.3c-0.1-0.1-0.2-0.2-0.3-0.2v0.8c0.3,0.1,0.6,0.2,0.7,0.3
				c0.2,0.1,0.3,0.4,0.3,0.6c0,0.4-0.1,0.6-0.4,0.8c-0.2,0.1-0.4,0.2-0.6,0.2V126.8z M216.5,123.6c-0.1,0-0.2,0-0.3,0.1
				c-0.1,0.1-0.1,0.2-0.1,0.3c0,0.1,0,0.2,0.1,0.3c0,0,0.1,0.1,0.2,0.1V123.6z M216.7,125.9c0.1,0,0.2,0,0.2-0.1
				c0.1-0.1,0.1-0.2,0.1-0.3c0-0.1,0-0.2-0.1-0.3c0,0-0.1-0.1-0.3-0.1V125.9z"/>
		</g>
		<g>
			<path class="st142" d="M225.5,137.2h-0.2v-0.4c-0.3,0-0.4-0.1-0.6-0.2c-0.2-0.1-0.3-0.4-0.3-0.8h0.5c0,0.2,0,0.3,0.1,0.3
				c0.1,0.1,0.1,0.1,0.3,0.2v-0.8l-0.2,0c-0.2-0.1-0.4-0.2-0.5-0.3c-0.1-0.1-0.2-0.3-0.2-0.5c0-0.1,0-0.2,0.1-0.3
				c0-0.1,0.1-0.2,0.2-0.3c0.1-0.1,0.2-0.2,0.3-0.2c0.1,0,0.2,0,0.3,0v-0.3h0.2v0.3c0.2,0,0.4,0.1,0.5,0.2c0.2,0.1,0.3,0.4,0.3,0.7
				h-0.5c0-0.1,0-0.2-0.1-0.3c0-0.1-0.1-0.1-0.3-0.2v0.7c0.3,0.1,0.5,0.2,0.6,0.3c0.2,0.1,0.3,0.3,0.3,0.6c0,0.3-0.1,0.6-0.4,0.7
				c-0.1,0.1-0.3,0.1-0.5,0.2V137.2z M225.3,134.3c-0.1,0-0.2,0-0.2,0.1c-0.1,0.1-0.1,0.1-0.1,0.2c0,0.1,0,0.2,0.1,0.3
				c0,0,0.1,0.1,0.2,0.1V134.3z M225.5,136.3c0.1,0,0.2,0,0.2-0.1c0.1-0.1,0.1-0.2,0.1-0.3c0-0.1,0-0.2-0.1-0.3c0,0-0.1-0.1-0.2-0.1
				V136.3z"/>
		</g>
		<g>
			<path class="st142" d="M230.5,128.1h-0.2v-0.4c-0.3,0-0.4-0.1-0.6-0.2c-0.2-0.1-0.3-0.4-0.3-0.8h0.5c0,0.2,0,0.3,0.1,0.3
				c0.1,0.1,0.1,0.1,0.3,0.2v-0.8l-0.2,0c-0.2-0.1-0.4-0.2-0.5-0.3c-0.1-0.1-0.2-0.3-0.2-0.5c0-0.1,0-0.2,0.1-0.3
				c0-0.1,0.1-0.2,0.2-0.3c0.1-0.1,0.2-0.2,0.3-0.2c0.1,0,0.2,0,0.3,0v-0.3h0.2v0.3c0.2,0,0.4,0.1,0.5,0.2c0.2,0.1,0.3,0.4,0.3,0.7
				h-0.5c0-0.1,0-0.2-0.1-0.3c0-0.1-0.1-0.1-0.3-0.2v0.7c0.3,0.1,0.5,0.2,0.6,0.3c0.2,0.1,0.3,0.3,0.3,0.6c0,0.3-0.1,0.6-0.4,0.7
				c-0.1,0.1-0.3,0.1-0.5,0.2V128.1z M230.3,125.3c-0.1,0-0.2,0-0.2,0.1c-0.1,0.1-0.1,0.1-0.1,0.2c0,0.1,0,0.2,0.1,0.3
				c0,0,0.1,0.1,0.2,0.1V125.3z M230.5,127.3c0.1,0,0.2,0,0.2-0.1c0.1-0.1,0.1-0.2,0.1-0.3c0-0.1,0-0.2-0.1-0.3c0,0-0.1-0.1-0.2-0.1
				V127.3z"/>
		</g>
		<g>
			<path class="st142" d="M215.3,135.9h-0.1v-0.2c-0.2,0-0.3-0.1-0.4-0.1c-0.1-0.1-0.2-0.3-0.2-0.5h0.3c0,0.1,0,0.2,0,0.2
				c0,0.1,0.1,0.1,0.2,0.1v-0.5l-0.1,0c-0.2,0-0.3-0.1-0.3-0.2c-0.1-0.1-0.1-0.2-0.1-0.3c0-0.1,0-0.1,0-0.2c0-0.1,0.1-0.1,0.1-0.2
				c0.1-0.1,0.1-0.1,0.2-0.1c0,0,0.1,0,0.2,0v-0.2h0.1v0.2c0.1,0,0.2,0,0.3,0.1c0.1,0.1,0.2,0.2,0.2,0.4h-0.3c0-0.1,0-0.1,0-0.2
				c0-0.1-0.1-0.1-0.2-0.1v0.5c0.2,0.1,0.3,0.1,0.4,0.2c0.1,0.1,0.2,0.2,0.2,0.4c0,0.2-0.1,0.4-0.2,0.5c-0.1,0.1-0.2,0.1-0.3,0.1
				V135.9z M215.2,134.1c-0.1,0-0.1,0-0.2,0.1c0,0-0.1,0.1-0.1,0.2c0,0.1,0,0.1,0.1,0.2c0,0,0.1,0,0.1,0.1V134.1z M215.3,135.4
				c0.1,0,0.1,0,0.1,0c0.1,0,0.1-0.1,0.1-0.2c0-0.1,0-0.1-0.1-0.2c0,0-0.1,0-0.1-0.1V135.4z"/>
		</g>
		<g>
			<path class="st142" d="M222.3,128.8h-0.1v-0.2c-0.2,0-0.3-0.1-0.4-0.1c-0.1-0.1-0.2-0.3-0.2-0.5h0.3c0,0.1,0,0.2,0,0.2
				c0,0.1,0.1,0.1,0.2,0.1v-0.5l-0.1,0c-0.2,0-0.3-0.1-0.3-0.2c-0.1-0.1-0.1-0.2-0.1-0.3c0-0.1,0-0.1,0-0.2c0-0.1,0.1-0.1,0.1-0.2
				c0.1-0.1,0.1-0.1,0.2-0.1c0,0,0.1,0,0.2,0v-0.2h0.1v0.2c0.1,0,0.2,0,0.3,0.1c0.1,0.1,0.2,0.2,0.2,0.4h-0.3c0-0.1,0-0.1,0-0.2
				c0-0.1-0.1-0.1-0.2-0.1v0.5c0.2,0.1,0.3,0.1,0.4,0.2c0.1,0.1,0.2,0.2,0.2,0.4c0,0.2-0.1,0.4-0.2,0.5c-0.1,0.1-0.2,0.1-0.3,0.1
				V128.8z M222.2,127c-0.1,0-0.1,0-0.2,0.1c0,0-0.1,0.1-0.1,0.2c0,0.1,0,0.1,0.1,0.2c0,0,0.1,0,0.1,0.1V127z M222.3,128.3
				c0.1,0,0.1,0,0.1,0c0.1,0,0.1-0.1,0.1-0.2c0-0.1,0-0.1-0.1-0.2c0,0-0.1,0-0.1-0.1V128.3z"/>
		</g>
		<g>
			<path class="st142" d="M212.2,141.4H212V141c-0.3,0-0.5-0.1-0.6-0.2c-0.3-0.2-0.4-0.5-0.4-0.9h0.6c0,0.2,0,0.3,0.1,0.4
				c0.1,0.1,0.2,0.2,0.3,0.2v-0.9l-0.2-0.1c-0.3-0.1-0.5-0.2-0.6-0.3c-0.1-0.1-0.2-0.3-0.2-0.5c0-0.1,0-0.3,0.1-0.4
				c0-0.1,0.1-0.2,0.2-0.3c0.1-0.1,0.2-0.2,0.3-0.2c0.1,0,0.2,0,0.3-0.1v-0.3h0.2v0.3c0.2,0,0.4,0.1,0.6,0.2
				c0.2,0.2,0.4,0.4,0.4,0.8h-0.6c0-0.1,0-0.2-0.1-0.3c-0.1-0.1-0.2-0.2-0.3-0.2v0.8c0.3,0.1,0.6,0.2,0.7,0.3
				c0.2,0.2,0.3,0.4,0.3,0.7c0,0.4-0.1,0.6-0.4,0.8c-0.2,0.1-0.4,0.2-0.6,0.2V141.4z M212,138.2c-0.1,0-0.2,0-0.3,0.1
				c-0.1,0.1-0.1,0.2-0.1,0.3c0,0.1,0,0.2,0.1,0.3c0.1,0,0.1,0.1,0.2,0.1V138.2z M212.2,140.5c0.1,0,0.2,0,0.2-0.1
				c0.1-0.1,0.1-0.2,0.1-0.3c0-0.1,0-0.2-0.1-0.3c-0.1,0-0.1-0.1-0.3-0.1V140.5z"/>
		</g>
	</g>
	<g>
		<g>
			<path class="st7" d="M220.3,161.3c-0.2-0.9-0.5-1.8-0.8-2.6c0-0.1,0-0.3,0.2-0.3c0.1,0,0.3,0,0.3,0.2c0.3,0.9,0.5,1.7,0.8,2.6
				c0,0.1,0,0.3-0.2,0.3c0,0,0,0-0.1,0C220.4,161.5,220.3,161.5,220.3,161.3z M218.6,156.2c-0.3-0.8-0.7-1.7-1-2.5
				c-0.1-0.1,0-0.3,0.1-0.4c0.1-0.1,0.3,0,0.4,0.1c0.4,0.8,0.7,1.7,1.1,2.5c0.1,0.1,0,0.3-0.2,0.4c0,0-0.1,0-0.1,0
				C218.7,156.4,218.6,156.3,218.6,156.2z M216.3,151.2c-0.4-0.8-0.9-1.6-1.3-2.4c-0.1-0.1,0-0.3,0.1-0.4c0.1-0.1,0.3,0,0.4,0.1
				c0.5,0.8,0.9,1.6,1.3,2.4c0.1,0.1,0,0.3-0.1,0.4c0,0-0.1,0-0.1,0C216.5,151.4,216.4,151.3,216.3,151.2z M213.5,146.6
				c-0.5-0.8-1.1-1.5-1.6-2.2c-0.1-0.1-0.1-0.3,0-0.4c0.1-0.1,0.3-0.1,0.4,0c0.6,0.7,1.1,1.4,1.7,2.2c0.1,0.1,0.1,0.3-0.1,0.4
				c0,0-0.1,0.1-0.2,0.1C213.7,146.7,213.6,146.7,213.5,146.6z M210.1,142.4c-0.6-0.7-1.3-1.3-2-1.8c-0.1-0.1-0.1-0.3,0-0.4
				c0.1-0.1,0.3-0.1,0.4,0c0.7,0.6,1.4,1.2,2,1.9c0.1,0.1,0.1,0.3,0,0.4c-0.1,0.1-0.1,0.1-0.2,0.1
				C210.2,142.5,210.1,142.5,210.1,142.4z"/>
			<path class="st7" d="M206,139.1c0.1,0,0.2,0,0.2-0.1c0.1-0.1,0-0.3-0.1-0.4c-0.4-0.3-0.8-0.5-1.2-0.7c-0.1-0.1-0.3,0-0.4,0.1
				c-0.1,0.1,0,0.3,0.1,0.4c0.4,0.2,0.8,0.4,1.2,0.7C205.9,139.1,206,139.1,206,139.1z"/>
		</g>
		<path class="st7" d="M214.9,161.3c-0.2-0.9-0.4-1.8-0.6-2.7c0-0.1,0.1-0.3,0.2-0.3c0.1,0,0.3,0.1,0.3,0.2c0.2,0.9,0.4,1.8,0.6,2.7
			c0,0.1-0.1,0.3-0.2,0.3c0,0,0,0,0,0C215.1,161.5,214.9,161.4,214.9,161.3z M213.7,156c-0.3-0.9-0.5-1.7-0.9-2.6
			c-0.1-0.1,0-0.3,0.2-0.4c0.1-0.1,0.3,0,0.4,0.2c0.3,0.9,0.6,1.7,0.9,2.6c0,0.1,0,0.3-0.2,0.3c0,0-0.1,0-0.1,0
			C213.8,156.2,213.7,156.1,213.7,156z M211.8,150.8c-0.4-0.8-0.8-1.7-1.2-2.5c-0.1-0.1,0-0.3,0.1-0.4c0.1-0.1,0.3,0,0.4,0.1
			c0.4,0.8,0.8,1.7,1.2,2.5c0.1,0.1,0,0.3-0.1,0.4c0,0-0.1,0-0.1,0C211.9,151,211.8,150.9,211.8,150.8z M209.3,146
			c-0.5-0.8-1-1.6-1.5-2.3c-0.1-0.1-0.1-0.3,0.1-0.4c0.1-0.1,0.3-0.1,0.4,0.1c0.5,0.7,1,1.5,1.5,2.3c0.1,0.1,0,0.3-0.1,0.4
			c0,0-0.1,0-0.1,0C209.5,146.1,209.4,146.1,209.3,146z M206.2,141.5c-0.9-1-1.6-1.7-1.9-1.9c-0.1-0.1-0.2-0.3-0.1-0.4
			c0.1-0.1,0.3-0.2,0.4-0.1c0.4,0.2,1.1,0.9,2,2c0.1,0.1,0.1,0.3,0,0.4c-0.1,0-0.1,0.1-0.2,0.1C206.3,141.6,206.2,141.6,206.2,141.5
			z"/>
		<path class="st7" d="M209.1,158.5c-0.1-0.9-0.2-1.8-0.4-2.7c0-0.1,0.1-0.3,0.2-0.3c0.1,0,0.3,0.1,0.3,0.2c0.2,0.9,0.3,1.8,0.4,2.7
			c0,0.2-0.1,0.3-0.2,0.3c0,0,0,0,0,0C209.3,158.7,209.2,158.6,209.1,158.5z M208.2,153.1c-0.2-0.9-0.4-1.8-0.7-2.6
			c0-0.1,0-0.3,0.2-0.3c0.1,0,0.3,0,0.3,0.2c0.3,0.9,0.5,1.8,0.7,2.7c0,0.1-0.1,0.3-0.2,0.3c0,0,0,0-0.1,0
			C208.3,153.3,208.2,153.2,208.2,153.1z M206.6,147.8c-0.3-0.9-0.6-1.7-1-2.6c-0.1-0.1,0-0.3,0.1-0.4c0.1-0.1,0.3,0,0.4,0.1
			c0.3,0.8,0.7,1.7,1,2.6c0,0.1,0,0.3-0.2,0.3c0,0-0.1,0-0.1,0C206.8,148,206.7,147.9,206.6,147.8z M204.5,142.8
			c-0.6-1-1.1-1.8-1.5-2.2c-0.1-0.1-0.1-0.3,0-0.4c0.1-0.1,0.3-0.1,0.4,0c0.4,0.4,1,1.2,1.6,2.3c0.1,0.1,0,0.3-0.1,0.4
			c0,0-0.1,0-0.1,0C204.7,143,204.6,142.9,204.5,142.8z"/>
		<g>
			<g>
				<polygon class="st5" points="191.1,81.3 192.9,88.3 189.7,86.1 185.5,94.2 174.9,86.8 186.6,74.6 192.3,78.5 				"/>
				<path class="st27" d="M187.2,83.4c0.1,0,0.1,0.1,0.2,0.1c0.6,0.3,1.6,0.1,2.1-0.8l-0.3-0.1c-0.4,0.7-1.1,0.9-1.7,0.7
					c-0.4-0.2-0.8-0.8-0.4-1.8l-0.3-0.1C186.4,82.4,186.7,83,187.2,83.4z"/>
				<path class="st27" d="M184.9,90.8l0.2-0.3c-1.2-0.9-2.3-2.6-2.1-4.4l-0.3,0C182.4,87.9,183.6,89.9,184.9,90.8z"/>
				<g>
					<path class="st4" d="M184.4,79.1c-0.6-0.4-1.3-0.3-1.7,0.3c-0.2,0.3-0.3,0.6-0.2,1l-2.6,1.4l6.6-7.9l8.5,5.9l-3.9,1.6l-4.2-3.4
						l-2.4,1.3C184.5,79.2,184.4,79.1,184.4,79.1z"/>
				</g>
			</g>
			<path class="st5" d="M187.2,114.8c0.7-0.1,1.8-0.4,2,0.2c0.1,0.6-0.7,0.6-1.2,0.8c-0.5,0.2,0.7,0.9,0.7,1.2
				c0,0.4-0.8,1.2-1.5,1.2c-0.7,0-1-1.1-1.6-2.1l-0.4-0.9l1-0.7L187.2,114.8z"/>
			<path class="st4" d="M185.6,93.9c-4.8,6.5-10.4,16.4-12,27.6l-12.2-3.1c1.9-13.5,5.7-25.5,13.6-31.8L185.6,93.9z"/>
			<polygon class="st4" points="161.5,118.3 156.2,158.8 163,158.8 159.6,155.7 168,118.3 164.4,116.6 			"/>
			<polygon class="st4" points="167.2,119.1 173.2,158.8 179.2,158.8 175.8,155.7 173.6,120.2 170.2,116.6 			"/>
			<polygon class="st7" points="183.4,93.7 180.2,91.6 180,94.8 172.2,109.1 173.1,114.2 176.1,111.3 181.3,95.4 			"/>
			<g>
				<path class="st143" d="M181.2,122.7l0.9,0.5c3.1-5.4,6.7-8,9.9-7.2c2.3,0.5,4.1,2.8,4.2,5.4c0.1,2.5-1.2,4.5-3.8,5.4l0.4,1
					c3-1.1,4.7-3.5,4.5-6.4c-0.2-3-2.3-5.7-5-6.4C190.1,114.5,185.8,114.8,181.2,122.7z"/>
				<g>
					<path class="st144" d="M196.2,121.5c-0.1-1.3-0.5-2.5-1.2-3.4c3.4,4.2,0.9,8-2.4,9.2l-0.1-0.4C195,125.9,196.4,124,196.2,121.5
						z"/>
				</g>
				
					<rect x="194.1" y="128.1" transform="matrix(0.8506 -0.5257 0.5257 0.8506 -39.7227 121.7017)" class="st143" width="0.5" height="5.4"/>
				
					<rect x="179.5" y="120.8" transform="matrix(0.9409 -0.3387 0.3387 0.9409 -31.7346 70.3774)" class="st143" width="12.6" height="10.7"/>
				
					<rect x="180.6" y="127.5" transform="matrix(0.9409 -0.3387 0.3387 0.9409 -32.6693 70.9113)" class="st145" width="12.6" height="3.2"/>
				
					<rect x="178.3" y="121.9" transform="matrix(0.9409 -0.3386 0.3386 0.9409 -30.6484 69.7559)" class="st144" width="12.6" height="1.7"/>
				<path class="st143" d="M189.7,129.5L189.7,129.5l10.1,5.1l-0.4,1.7l-14.6-4.1c-0.1,0-0.1,0-0.2-0.1l0,0h0
					c-0.2-0.1-0.3-0.2-0.4-0.3c-0.2-0.6,0.9-1.5,2.5-2.1C188,129.3,189.2,129.2,189.7,129.5z"/>
				<g>
					<path class="st145" d="M186,130.1c0.2-0.1,0.5-0.2,0.7-0.3c0.5-0.2,1-0.3,1.5-0.4l11.5,5.6l-0.1,0.4L186,130.1z"/>
				</g>
				<path class="st4" d="M199.8,134.6l2.4,0.3l-0.1,1.7l-0.8,2.8c-0.3-0.3-1.8-3-1.8-3.1l0,0c-0.1-0.2-0.2-0.4-0.1-1
					C199.4,134.8,199.6,134.6,199.8,134.6z"/>
				
					<ellipse transform="matrix(0.1571 -0.9876 0.9876 0.1571 34.5261 314.9563)" class="st145" cx="201.8" cy="137.3" rx="2.4" ry="0.8"/>
				<g>
					
						<ellipse transform="matrix(0.1562 -0.9877 0.9877 0.1562 34.5077 314.9309)" class="st4" cx="201.6" cy="137.3" rx="0.2" ry="0.1"/>
					
						<ellipse transform="matrix(0.1562 -0.9877 0.9877 0.1562 34.804 315.3665)" class="st4" cx="202" cy="137.3" rx="0.2" ry="0.1"/>
					
						<ellipse transform="matrix(0.1562 -0.9877 0.9877 0.1562 34.1708 315.7662)" class="st4" cx="201.9" cy="137.9" rx="0.2" ry="0.1"/>
					
						<ellipse transform="matrix(0.1563 -0.9877 0.9877 0.1563 33.3191 315.9772)" class="st4" cx="201.6" cy="138.5" rx="0.2" ry="0.1"/>
					
						<ellipse transform="matrix(0.1562 -0.9877 0.9877 0.1562 33.9085 315.3752)" class="st4" cx="201.5" cy="137.8" rx="0.2" ry="0.1"/>
					
						<ellipse transform="matrix(0.1562 -0.9877 0.9877 0.1562 32.8705 315.7758)" class="st4" cx="201.3" cy="138.6" rx="0.2" ry="0.1"/>
					
						<ellipse transform="matrix(0.1562 -0.9877 0.9877 0.1562 32.5465 316.5146)" class="st4" cx="201.5" cy="139.2" rx="0.2" ry="0.1"/>
					
						<ellipse transform="matrix(0.1562 -0.9877 0.9877 0.1562 33.4484 316.4795)" class="st4" cx="202" cy="138.7" rx="0.2" ry="0.1"/>
					
						<ellipse transform="matrix(0.1562 -0.9877 0.9877 0.1562 34.2633 316.2125)" class="st4" cx="202.2" cy="138.1" rx="0.2" ry="0.1"/>
					
						<ellipse transform="matrix(0.1563 -0.9877 0.9877 0.1563 35.0246 315.7842)" class="st4" cx="202.4" cy="137.4" rx="0.2" ry="0.1"/>
					
						<ellipse transform="matrix(0.1562 -0.9877 0.9877 0.1562 33.5003 315.1152)" class="st4" cx="201.2" cy="138" rx="0.2" ry="0.1"/>
					
						<ellipse transform="matrix(0.1562 -0.9877 0.9877 0.1562 35.4911 314.9605)" class="st4" cx="202.1" cy="136.7" rx="0.2" ry="0.1"/>
					
						<ellipse transform="matrix(0.1562 -0.9877 0.9877 0.1562 36.0671 314.3153)" class="st4" cx="202" cy="136" rx="0.2" ry="0.1"/>
					
						<ellipse transform="matrix(0.1562 -0.9877 0.9877 0.1562 35.2589 314.5471)" class="st4" cx="201.7" cy="136.6" rx="0.2" ry="0.1"/>
					
						<ellipse transform="matrix(0.1562 -0.9877 0.9877 0.1562 36.0866 313.8034)" class="st4" cx="201.7" cy="135.8" rx="0.2" ry="0.1"/>
					
						<ellipse transform="matrix(0.1562 -0.9877 0.9877 0.1562 36.8895 313.8474)" class="st4" cx="202.1" cy="135.3" rx="0.2" ry="0.1"/>
					
						<ellipse transform="matrix(0.1562 -0.9877 0.9877 0.1562 36.4543 314.64)" class="st4" cx="202.4" cy="136" rx="0.2" ry="0.1"/>
					
						<ellipse transform="matrix(0.1563 -0.9877 0.9877 0.1563 35.8304 315.2322)" class="st4" cx="202.4" cy="136.6" rx="0.2" ry="0.1"/>
					
						<ellipse transform="matrix(0.1563 -0.9877 0.9877 0.1563 35.1931 314.0498)" class="st4" cx="201.4" cy="136.4" rx="0.2" ry="0.1"/>
					
						<ellipse transform="matrix(0.1562 -0.9877 0.9877 0.1562 34.2707 314.5338)" class="st4" cx="201.2" cy="137.2" rx="0.2" ry="0.1"/>
				</g>
			</g>
			<path class="st4" d="M185.6,93.9c-1.9,4.7-4.3,12.3,1.6,20.9l-1.7,1.2c-5.2-7.1-5.9-11.6-4.6-18.2l0.9-2.5L185.6,93.9z"/>
			<path class="st5" d="M189,116.8c0.1-0.8-0.4-1.2-1.2-0.8c-0.8,0.4-1.5,0.8-1.5,1.3c0,0.5,0.4,0.9,0.7,1
				C187.3,118.5,188.8,117.8,189,116.8z"/>
			<g>
				<path class="st4" d="M175,86.5c-5.5-0.7-15.5,7.5-19.6,21.7l2.1,1c2.4-6.2,6.5-14.8,16.7-16.9L175,86.5z"/>
				<path class="st5" d="M157.2,108.8c0.4,0.5,1.4,1.3,0.9,1.9c-0.5,0.5-0.7,0.1-1.4-0.6c-0.3,0.7-0.4,2.2-1.6,1.7
					c-1.2-0.6-1.5-0.7-1.5-0.7c-0.6-0.8,0.7-2.5,1.9-3L157.2,108.8z"/>
			</g>
		</g>
	</g>
	<g>
		<g>
			<path class="st7" d="M71,161C71,161,70.9,161,71,161c-0.2-0.1-0.3-0.2-0.3-0.3c0.2-0.9,0.5-1.7,0.8-2.6c0-0.1,0.2-0.2,0.3-0.2
				c0.1,0,0.2,0.2,0.2,0.3c-0.3,0.8-0.6,1.7-0.8,2.6C71.2,160.9,71.1,161,71,161z M72.7,155.9C72.7,155.9,72.6,155.9,72.7,155.9
				c-0.2-0.1-0.3-0.2-0.2-0.4c0.3-0.8,0.7-1.7,1-2.5c0.1-0.1,0.2-0.2,0.3-0.1c0.1,0.1,0.2,0.2,0.1,0.3c-0.4,0.8-0.7,1.6-1,2.5
				C72.9,155.8,72.8,155.9,72.7,155.9z M74.9,151c0,0-0.1,0-0.1,0c-0.1-0.1-0.2-0.2-0.1-0.4c0.4-0.8,0.8-1.6,1.3-2.4
				c0.1-0.1,0.2-0.2,0.4-0.1c0.1,0.1,0.2,0.2,0.1,0.4c-0.4,0.8-0.8,1.6-1.2,2.4C75.1,150.9,75,151,74.9,151z M77.5,146.3
				c0,0-0.1,0-0.1,0c-0.1-0.1-0.2-0.2-0.1-0.4c0.5-0.8,1-1.5,1.5-2.3c0.1-0.1,0.2-0.1,0.4-0.1c0.1,0.1,0.1,0.2,0.1,0.4
				c-0.5,0.7-1,1.5-1.5,2.2C77.7,146.3,77.6,146.3,77.5,146.3z M80.6,141.9c-0.1,0-0.1,0-0.2-0.1c-0.1-0.1-0.1-0.3,0-0.4
				c0.6-0.7,1.2-1.4,1.8-2.1c0.1-0.1,0.3-0.1,0.4,0c0.1,0.1,0.1,0.3,0,0.4c-0.6,0.6-1.2,1.3-1.7,2C80.8,141.9,80.7,141.9,80.6,141.9
				z M84.3,138c-0.1,0-0.1,0-0.2-0.1c-0.1-0.1-0.1-0.3,0-0.4c0.7-0.6,1.4-1.2,2.1-1.7c0.1-0.1,0.3-0.1,0.4,0.1
				c0.1,0.1,0.1,0.3-0.1,0.4c-0.7,0.5-1.4,1.1-2,1.7C84.4,138,84.3,138,84.3,138z"/>
			<path class="st7" d="M88.5,134.8c-0.1,0-0.2,0-0.2-0.1c-0.1-0.1,0-0.3,0.1-0.4c0.4-0.2,0.8-0.4,1.2-0.6c0.1-0.1,0.3,0,0.4,0.1
				c0.1,0.1,0,0.3-0.1,0.4c-0.4,0.2-0.8,0.4-1.1,0.6C88.6,134.8,88.6,134.8,88.5,134.8z"/>
		</g>
		<path class="st7" d="M76.1,160.3C76.1,160.3,76,160.3,76.1,160.3c-0.2,0-0.3-0.2-0.3-0.3c0.2-0.9,0.4-1.7,0.6-2.6
			c0-0.1,0.2-0.2,0.3-0.2c0.1,0,0.2,0.2,0.2,0.3c-0.2,0.8-0.4,1.7-0.6,2.6C76.3,160.3,76.2,160.3,76.1,160.3z M77.5,155.2
			C77.4,155.2,77.4,155.2,77.5,155.2c-0.2-0.1-0.3-0.2-0.3-0.3c0.3-0.8,0.6-1.7,0.9-2.5c0.1-0.1,0.2-0.2,0.3-0.2
			c0.1,0.1,0.2,0.2,0.2,0.3c-0.3,0.8-0.6,1.6-0.9,2.5C77.7,155.2,77.6,155.2,77.5,155.2z M79.4,150.3c0,0-0.1,0-0.1,0
			c-0.1-0.1-0.2-0.2-0.1-0.3c0.4-0.8,0.8-1.6,1.2-2.4c0.1-0.1,0.2-0.2,0.4-0.1c0.1,0.1,0.2,0.2,0.1,0.4c-0.4,0.8-0.8,1.6-1.1,2.4
			C79.6,150.3,79.5,150.3,79.4,150.3z M81.8,145.6c0,0-0.1,0-0.1,0c-0.1-0.1-0.2-0.2-0.1-0.4c0.5-0.8,0.9-1.5,1.4-2.3
			c0.1-0.1,0.2-0.2,0.4-0.1c0.1,0.1,0.2,0.2,0.1,0.4c-0.5,0.7-1,1.5-1.4,2.2C82,145.6,81.9,145.6,81.8,145.6z M84.7,141.2
			c-0.1,0-0.1,0-0.2-0.1c-0.1-0.1-0.1-0.3-0.1-0.4c0.5-0.7,1.1-1.4,1.7-2.1c0.1-0.1,0.3-0.1,0.4,0c0.1,0.1,0.1,0.3,0,0.4
			c-0.6,0.7-1.1,1.3-1.6,2.1C84.9,141.2,84.8,141.2,84.7,141.2z M88.2,137.2c-0.1,0-0.1,0-0.2-0.1c-0.1-0.1-0.1-0.3,0-0.4
			c0.7-0.7,1.3-1.3,1.9-1.8c0.1-0.1,0.3-0.1,0.4,0c0.1,0.1,0.1,0.3,0,0.4c-0.6,0.5-1.3,1.1-1.9,1.8
			C88.3,137.2,88.2,137.2,88.2,137.2z"/>
		<path class="st7" d="M81.8,157.9C81.8,157.9,81.7,157.9,81.8,157.9c-0.2,0-0.3-0.2-0.3-0.3c0.2-0.9,0.3-1.7,0.5-2.6
			c0-0.1,0.2-0.2,0.3-0.2c0.1,0,0.2,0.2,0.2,0.3c-0.2,0.9-0.4,1.7-0.5,2.6C82,157.8,81.9,157.9,81.8,157.9z M83,152.8
			C83,152.8,82.9,152.8,83,152.8c-0.2-0.1-0.3-0.2-0.3-0.3c0.2-0.8,0.5-1.7,0.8-2.5c0-0.1,0.2-0.2,0.3-0.2c0.1,0,0.2,0.2,0.2,0.3
			c-0.3,0.8-0.6,1.7-0.8,2.5C83.2,152.7,83.1,152.8,83,152.8z M84.7,147.8C84.7,147.8,84.6,147.8,84.7,147.8
			c-0.2-0.1-0.3-0.2-0.2-0.4c0.3-0.8,0.7-1.6,1-2.4c0.1-0.1,0.2-0.2,0.4-0.1c0.1,0.1,0.2,0.2,0.1,0.4c-0.4,0.8-0.7,1.6-1,2.4
			C84.9,147.7,84.8,147.8,84.7,147.8z M86.9,143c0,0-0.1,0-0.1,0c-0.1-0.1-0.2-0.2-0.1-0.4c0.4-0.8,0.9-1.6,1.3-2.3
			c0.1-0.1,0.2-0.2,0.4-0.1c0.1,0.1,0.2,0.2,0.1,0.4c-0.4,0.7-0.9,1.5-1.3,2.3C87.1,142.9,87,143,86.9,143z M89.6,138.4
			c-0.1,0-0.1,0-0.2,0c-0.1-0.1-0.1-0.2-0.1-0.4c0.6-0.8,1.1-1.5,1.7-2.1c0.1-0.1,0.3-0.1,0.4,0c0.1,0.1,0.1,0.3,0,0.4
			c-0.5,0.6-1.1,1.3-1.6,2C89.8,138.4,89.7,138.4,89.6,138.4z"/>
		<g>
			<g>
				<path class="st5" d="M108.2,115.9c-0.6-0.1-1.6-0.5-1.8,0.1c-0.2,0.5,0.6,0.6,1.1,0.8c0.4,0.2-0.6,0.7-0.7,1
					c0,0.3,0.7,1.1,1.2,1.1c0.6,0,0.9-1,1.5-1.8l0.4-0.8l-0.8-0.7L108.2,115.9z"/>
				<g>
					<path class="st143" d="M112.6,123.7l-0.9,0.4c-2.1-5.1-5.1-7.9-8-7.5c-2.1,0.2-3.9,2.1-4.3,4.3c-0.4,2.2,0.6,4.1,2.8,5.2
						l-0.4,0.8c-2.5-1.3-3.7-3.6-3.3-6.2c0.5-2.7,2.7-4.8,5.2-5.1C105.6,115.4,109.4,116.1,112.6,123.7z"/>
					<g>
						<path class="st144" d="M99.4,120.9c0.2-1.1,0.7-2.1,1.5-2.9c-3.5,3.3-1.7,7,1.1,8.4l0.2-0.3C100,125,99,123.1,99.4,120.9z"/>
					</g>
					
						<rect x="97.6" y="129.1" transform="matrix(0.6282 -0.7781 0.7781 0.6282 -63.4294 125.922)" class="st143" width="4.8" height="0.5"/>
					
						<rect x="103.4" y="120.5" transform="matrix(0.4539 -0.8911 0.8911 0.4539 -53.3721 165.2525)" class="st143" width="9.5" height="11.3"/>
					
						<rect x="105.4" y="123" transform="matrix(0.4539 -0.8911 0.8911 0.4539 -56.2893 165.4834)" class="st145" width="2.9" height="11.3"/>
					
						<rect x="108.9" y="117.6" transform="matrix(0.4539 -0.8911 0.8911 0.4539 -49.9832 164.9847)" class="st144" width="1.5" height="11.3"/>
					<path class="st143" d="M104.3,128.8L104.3,128.8l-9.5,3.4l0.2,1.6l13.5-2c0.1,0,0.1,0,0.2,0l0,0l0,0c0.2,0,0.3-0.1,0.4-0.2
						c0.2-0.5-0.6-1.4-2-2.1C105.8,128.8,104.7,128.5,104.3,128.8z"/>
					<g>
						<path class="st145" d="M107.5,129.7c-0.2-0.1-0.4-0.2-0.6-0.3c-0.4-0.2-0.9-0.4-1.3-0.5l-10.9,3.6l0,0.4L107.5,129.7z"/>
					</g>
					<path class="st4" d="M94.8,132.1l-2.2,0l-0.1,1.5l0.4,2.6c0.3-0.3,1.9-2.5,2-2.6l0,0c0.1-0.1,0.2-0.4,0.2-0.8
						C95,132.4,94.9,132.1,94.8,132.1z"/>
					
						<ellipse transform="matrix(0.9995 -3.213141e-02 3.213141e-02 0.9995 -4.2659 3.0481)" class="st145" cx="92.7" cy="134.3" rx="0.7" ry="2.1"/>
					<g>
						
							<ellipse transform="matrix(0.9995 -3.131200e-02 3.131200e-02 0.9995 -4.1594 2.974)" class="st4" cx="92.9" cy="134.3" rx="0.1" ry="0.2"/>
						
							<ellipse transform="matrix(0.9995 -3.121692e-02 3.121692e-02 0.9995 -4.1469 2.9535)" class="st4" cx="92.5" cy="134.3" rx="0.1" ry="0.2"/>
						
							<ellipse transform="matrix(0.9995 -3.121692e-02 3.121692e-02 0.9995 -4.163 2.9541)" class="st4" cx="92.5" cy="134.8" rx="0.1" ry="0.2"/>
						
							<ellipse transform="matrix(0.9995 -3.131200e-02 3.131200e-02 0.9995 -4.1932 2.9693)" class="st4" cx="92.7" cy="135.4" rx="0.1" ry="0.2"/>
						
							<ellipse transform="matrix(0.9995 -3.121692e-02 3.121692e-02 0.9995 -4.1629 2.9642)" class="st4" cx="92.8" cy="134.8" rx="0.1" ry="0.2"/>
						
							<ellipse transform="matrix(0.9995 -3.121692e-02 3.121692e-02 0.9995 -4.1862 2.9696)" class="st4" cx="93" cy="135.6" rx="0.1" ry="0.2"/>
						
							<ellipse transform="matrix(0.9995 -3.121692e-02 3.121692e-02 0.9995 -4.2009 2.9604)" class="st4" cx="92.7" cy="136" rx="0.1" ry="0.2"/>
						
							<ellipse transform="matrix(0.9995 -3.121989e-02 3.121989e-02 0.9995 -4.1848 2.9504)" class="st4" cx="92.4" cy="135.5" rx="0.1" ry="0.2"/>
						
							<ellipse transform="matrix(0.9995 -3.121692e-02 3.121692e-02 0.9995 -4.1667 2.9449)" class="st4" cx="92.2" cy="134.9" rx="0.1" ry="0.2"/>
						
							<ellipse transform="matrix(0.9995 -3.121692e-02 3.121692e-02 0.9995 -4.1479 2.9429)" class="st4" cx="92.2" cy="134.3" rx="0.1" ry="0.2"/>
						
							<ellipse transform="matrix(0.9995 -3.121692e-02 3.121692e-02 0.9995 -4.167 2.9737)" class="st4" cx="93.2" cy="134.9" rx="0.1" ry="0.2"/>
						
							<ellipse transform="matrix(0.9995 -3.121692e-02 3.121692e-02 0.9995 -4.1298 2.9525)" class="st4" cx="92.5" cy="133.7" rx="0.1" ry="0.2"/>
						
							<ellipse transform="matrix(0.9995 -3.121692e-02 3.121692e-02 0.9995 -4.1117 2.9569)" class="st4" cx="92.6" cy="133.2" rx="0.1" ry="0.2"/>
						
							<ellipse transform="matrix(0.9995 -3.121989e-02 3.121989e-02 0.9995 -4.1293 2.9629)" class="st4" cx="92.8" cy="133.7" rx="0.1" ry="0.2"/>
						
							<ellipse transform="matrix(0.9995 -3.121989e-02 3.121989e-02 0.9995 -4.1056 2.9661)" class="st4" cx="92.9" cy="133" rx="0.1" ry="0.2"/>
						
							<ellipse transform="matrix(0.9995 -3.120536e-02 3.120536e-02 0.9995 -4.0899 2.9541)" class="st4" cx="92.6" cy="132.5" rx="0.1" ry="0.2"/>
						
							<ellipse transform="matrix(0.9995 -3.121692e-02 3.121692e-02 0.9995 -4.1088 2.9466)" class="st4" cx="92.3" cy="133.1" rx="0.1" ry="0.2"/>
						
							<ellipse transform="matrix(0.9995 -3.121692e-02 3.121692e-02 0.9995 -4.1269 2.9431)" class="st4" cx="92.2" cy="133.6" rx="0.1" ry="0.2"/>
						
							<ellipse transform="matrix(0.9995 -3.122845e-02 3.122845e-02 0.9995 -4.1254 2.9728)" class="st4" cx="93.1" cy="133.6" rx="0.1" ry="0.2"/>
						
							<ellipse transform="matrix(0.9995 -3.120540e-02 3.120540e-02 0.9995 -4.1448 2.9736)" class="st4" cx="93.2" cy="134.3" rx="0.1" ry="0.2"/>
					</g>
				</g>
				<path class="st4" d="M114,97.4c-0.1,7.2-1.9,15-5.5,18.7l1.1,1c3.6-4.1,6.8-12.3,6.4-18.3l-0.9-2.8L114,97.4z"/>
				<path class="st5" d="M106.5,117.7c0-0.7,0.4-1,1.1-0.6c0.7,0.4,1.3,0.8,1.3,1.3c0,0.4-0.4,0.8-0.7,0.9
					C107.9,119.2,106.6,118.6,106.5,117.7z"/>
			</g>
			<path class="st4" d="M117.6,96.2c7.1,1.4,12.5,9,14,19.8l-1.7,0.4c-1.1-7.4-4.6-15-11-16.5L117.6,96.2z"/>
			<polygon class="st5" points="127.8,126.1 127.3,158.7 123.9,158.7 125.8,155.9 124.2,126 126.2,122.6 			"/>
			<g>
				<polygon class="st27" points="123.9,158.7 127.3,158.7 127.3,155.7 125.8,155.7 125.8,155.9 				"/>
			</g>
			<polygon class="st5" points="123.9,126.1 119.7,158.7 116.4,158.7 118.3,155.9 120.2,126 122.3,122.6 			"/>
			<g>
				<polygon class="st27" points="116.4,158.7 119.7,158.7 120.1,155.7 118.3,155.7 118.3,155.9 				"/>
			</g>
			<path class="st4" d="M113.9,98.4c5.3,8.9,5.6,22.5,4.8,36.6h10.2c1.1-20.3-1.6-28.7-11.2-38.8L113.9,98.4z"/>
			<path class="st5" d="M130.1,116.3c-0.3,0.5-1.3,1.5-1.1,1.9c0.2,0.3,0.7,0,1.5-0.6c0.3,0.7,0.1,2.1,1.4,1.8
				c0.4-0.1,1.1-0.4,1.1-0.4c0.9-0.3-0.2-2.5-1.4-3L130.1,116.3z"/>
			<g>
				<path class="st5" d="M105.2,82.1c-4.4,3.2-6.4,6.3-4.2,10.1c0,0,2,2.8,1.2,4.2l1.3-1.3c1.8,1.2,4.2,1.5,6.5,1.3
					c4.1-0.3,3.4,1,4,2l3.3,0.3l-0.7-3.4l-0.5-0.3c-1.9-2.7-2-3.6-1.6-6.1C114.1,81.5,106.9,80.8,105.2,82.1z"/>
				<path class="st27" d="M106.7,91.9c-0.2,0.2-0.5,0.3-0.9,0.3c-0.6,0-1.1-0.2-1.5-0.7l0.3-0.2c0.3,0.4,0.7,0.6,1.2,0.6
					c0.5,0,0.9-0.3,1-0.6c0.2-0.4,0.1-0.9-0.3-1.5l0.2-0.2c0.4,0.6,0.5,1.3,0.3,1.8C107,91.6,106.9,91.8,106.7,91.9z"/>
				<path class="st27" d="M110.3,95.2c-0.3,0.2-0.6,0.3-1,0.3l0-0.3c0.5,0,0.9-0.2,1.1-0.6c0.2-0.3,0.1-0.6,0-0.8l0.2-0.2
					c0.2,0.3,0.3,0.8,0.1,1.2C110.6,94.9,110.4,95.1,110.3,95.2z"/>
				<g>
					<polygon class="st7" points="114.7,97.7 116.1,99 117.8,96.1 116.7,95.2 					"/>
					<polygon class="st7" points="114.7,97.7 114.8,99.3 113.6,98.3 113.6,97.3 					"/>
					<polygon class="st7" points="113.9,98.5 119.7,108.1 117.3,96.5 114.7,97.7 					"/>
				</g>
				<g>
					<path class="st4" d="M117.8,89.7c0.8-7.5-8.4-16.5-15.8-7.8c-4.4,5.3-1.8,8-3.5,8.5c2.8,1.4,7.7-1.4,8.3-4.1
						c0.8,0,1.5,0.3,2.2,0.8c0.1-0.1,0.2-0.2,0.3-0.3c0.7-0.5,1.7-0.3,2.2,0.4c0.4,0.6,0.4,1.4,0,1.9c3.6,3.6,7,8.9,10.5,4
						C120.6,94.1,117.2,94.5,117.8,89.7z"/>
				</g>
			</g>
		</g>
	</g>
</g>
</svg>
