<?xml version="1.0" encoding="utf-8"?>
<!-- Generator: Adobe Illustrator 17.0.0, SVG Export Plug-In . SVG Version: 6.00 Build 0)  -->
<!DOCTYPE svg PUBLIC "-//W3C//DTD SVG 1.1//EN" "http://www.w3.org/Graphics/SVG/1.1/DTD/svg11.dtd">
<svg version="1.1" id="Layer_1" xmlns="http://www.w3.org/2000/svg" xmlns:xlink="http://www.w3.org/1999/xlink" x="0px" y="0px"
	 width="430px" height="654px" viewBox="0 0 430 654" enable-background="new 0 0 430 654" xml:space="preserve">
<rect x="-0.115" fill="#34BFC2" width="429.922" height="654"/>
<path id="XMLID_116_" fill="#F2696E" d="M268.516,221.728c-2.461,0-4.456,2.66-4.456,5.942h8.913
	C272.973,224.388,270.978,221.728,268.516,221.728z"/>
<g>
	<g>
		<g>
			<circle fill="#EB6479" cx="179.325" cy="68.581" r="2.81"/>
			<circle fill="#EB6479" cx="196.907" cy="68.581" r="2.81"/>
			<path fill="#EB6479" d="M199.426,83.328l-4.549-28.893h-13.462l-4.518,28.893h0.158c0.264,1.262,5.133,2.269,11.119,2.269
				c5.985,0,10.854-1.007,11.119-2.269H199.426z"/>
			<path fill="#223129" d="M183.808,66.033c-0.127,0.018-0.252,0.025-0.375,0.02c-1.214-0.044-2.487-1.13-2.518-2.866l0.55-0.009
				c0.025,1.411,1.03,2.291,1.989,2.326c0.839,0.035,1.799-0.591,1.968-2.427l0.548,0.05
				C185.788,65.088,184.763,65.897,183.808,66.033z"/>
			<path fill="#223129" d="M193.33,66.033c-0.127,0.018-0.252,0.025-0.375,0.02c-1.214-0.044-2.487-1.13-2.518-2.866l0.55-0.009
				c0.025,1.411,1.03,2.291,1.989,2.326c0.839,0.035,1.799-0.591,1.968-2.427l0.548,0.05
				C195.31,65.088,194.285,65.897,193.33,66.033z"/>
			<path fill="#223129" d="M186.775,78.645v-0.55c2.554,0,5.85-1.42,7.206-4.132l0.492,0.246
				C193.017,77.121,189.498,78.645,186.775,78.645z"/>
			<polygon fill="#223129" points="189.449,72.554 185.325,72.554 187.632,63.05 188.262,63.203 186.15,71.905 189.449,71.905 			
				"/>
		</g>
		<polygon fill="#282829" points="188.132,143.281 181.761,211.078 169.403,211.078 176.425,205.438 177.371,142.968 
			184.954,138.902 		"/>
		<path fill="#EB6479" d="M159.993,133.03c-0.699,1.336-1.827,5.124,0.009,5.273c1.628,0.106,3.266,0.534,3.949-0.522
			c0.13-0.317,0.111-0.391,0.037-0.782c-0.575-0.075-1.057-0.652-0.723-1.006c0.445-0.056,1.261,0.056,1.539,0.242
			c0.334-0.149,0.389-0.82-0.426-1.285c-0.816-0.466-0.437-0.967-0.283-1.78l-0.829-1.442L159.993,133.03z"/>
		<path fill="#282829" d="M177.092,82.618c-4.387,2.644-15.14,30.229-17.118,50.441l4.156,0.126
			c1.128-8.563,6.237-31.001,15.637-41.704L177.092,82.618z"/>
		<path fill="#003E5A" d="M199.005,143.492l0.924,61.946l7.021,5.64h-12.358l-6.351-67.586c0-3.007,0.663-5.358,5.029-5.358
			C196.496,138.134,199.005,139.514,199.005,143.492z"/>
		<g>
			<path fill="#282829" d="M199.005,143.492L199.005,143.492c0.616-5.372,1.115-11.035,1.598-15.921l-12.472,0.571v15.351h0.111
				l5.834,62.082h6.023l-0.169-0.136L199.005,143.492z"/>
		</g>
		<path fill="#FFFFFF" d="M190.782,132.1h-5.247v-3.306h5.247V132.1z M189.894,129.386h-3.472v2.071h3.472V129.386z"/>
		<path fill="#FFFFFF" d="M190.605,130.432c0,0.15-0.121,0.271-0.271,0.271h-1.253c-0.15,0-0.271-0.121-0.271-0.271l0,0
			c0-0.15,0.121-0.271,0.271-0.271h1.253C190.484,130.161,190.605,130.283,190.605,130.432L190.605,130.432z"/>
		<path fill="#EB6479" d="M216.38,133.03c0.699,1.336,1.827,5.124-0.009,5.273c-1.628,0.106-3.266,0.534-3.949-0.522
			c-0.13-0.317-0.111-0.391-0.037-0.782c0.575-0.075,1.057-0.652,0.723-1.006c-0.445-0.056-1.261,0.056-1.539,0.242
			c-0.334-0.149-0.389-0.82,0.426-1.285c0.816-0.466,0.437-0.967,0.283-1.78l0.829-1.442L216.38,133.03z"/>
		<path fill="#282829" d="M199.125,82.618c4.387,2.644,15.14,30.229,17.118,50.441l-4.156,0.126
			c-1.128-8.563-6.237-31.001-15.637-41.704L199.125,82.618z"/>
		<path fill="#282829" d="M199.188,82.541h-11.057h-0.045h-11.057c-4.509,18.898-2.396,37.215,0.324,60.951h10.733h0.045h10.733
			C201.584,119.756,203.697,101.439,199.188,82.541z"/>
	</g>
	<polygon fill="#0F3644" points="176.427,50.422 179.102,54.607 179.875,67.517 181.74,54.953 195.13,56.458 196.79,67.098 
		198.973,48.485 	"/>
</g>
<g>
	<g>
		<path fill="#003E5A" d="M235.794,83.937c2.211,3.662,13.359,5.219,17.044,2.014c-4.607,0.458-4.791-3.205-2.211-13.002
			c2.58-12.727-9.305-17.854-14.833-17.854c-5.528,0-17.413,5.127-14.833,17.854c2.58,9.797,2.395,13.459-2.211,13.002
			C222.435,89.155,233.583,87.599,235.794,83.937z"/>
		<path fill="#EB6479" d="M252.107,137.718c-0.008,1.326,0.003,5.103-1.484,4.462c-1.308-0.589-2.757-0.932-2.852-2.033
			c0.03-0.299,0.075-0.35,0.294-0.623c0.477,0.179,1.089-0.071,0.976-0.483c-0.323-0.227-1.002-0.476-1.295-0.446
			c-0.198-0.253,0.035-0.797,0.861-0.822c0.826-0.025,0.738-0.571,0.954-1.266l1.239-0.778L252.107,137.718z"/>
		<g>
			<g>
				<polygon fill="#EB6479" points="234.918,153.09 233.439,211.604 227.214,211.604 230.751,206.27 228.128,152.836 
					231.947,146.486 				"/>
			</g>
			<g>
				<polygon fill="#EB6479" points="235.931,153.09 237.41,211.604 243.635,211.604 240.098,206.27 242.722,152.836 
					238.902,146.486 				"/>
				<g>
					<polygon fill="#243129" points="243.635,211.604 237.41,211.604 237.266,205.838 240.122,205.838 240.098,206.27 					"/>
				</g>
				<g>
					<polygon fill="#243129" points="227.214,211.604 233.439,211.604 233.584,205.838 230.727,205.838 230.751,206.27 					"/>
				</g>
			</g>
			<g>
				<ellipse fill="#EB6479" cx="248.129" cy="73.298" rx="2.609" ry="2.622"/>
				<ellipse fill="#EB6479" cx="223.12" cy="73.298" rx="2.609" ry="2.622"/>
				<path fill="#EB6479" d="M233.437,58.649h3.998c7.912,0.886,11.683,4.703,11.683,12.54c0,5.665-2.8,10.204-6.622,12.289
					c-6.216,3.39-4.456,5.191-3.84,6.74c0,0.98-1.298,2.152-3.173,2.152s-3.173-1.172-3.173-2.152h-0.001
					c0.616-1.549,2.283-3.351-3.933-6.74c-3.822-2.084-6.621-6.623-6.621-12.289C221.754,63.351,225.525,59.535,233.437,58.649z"/>
				<path fill="#223129" d="M243.784,74.594c0.062,0,0.124-0.002,0.185-0.007c1.128-0.082,2.252-0.938,2.219-2.416l-0.511,0.012
					c0.027,1.212-0.885,1.831-1.745,1.893c-0.874,0.064-1.83-0.454-1.988-1.752l-0.507,0.062
					C241.626,73.929,242.722,74.594,243.784,74.594z"/>
				<path fill="#223129" d="M227.223,74.594c1.062,0,2.159-0.665,2.347-2.208l-0.507-0.062c-0.158,1.299-1.107,1.816-1.989,1.752
					c-0.859-0.063-1.772-0.682-1.745-1.893l-0.511-0.012c-0.033,1.478,1.091,2.334,2.219,2.416
					C227.099,74.592,227.161,74.594,227.223,74.594z"/>
				<path fill="#223129" d="M234.081,82.796c0.789,0,1.519-0.202,1.713-0.625l-0.464-0.215c-0.097,0.211-1.043,0.459-2.08,0.243
					c-0.635-0.132-1.705-0.525-1.734-1.682l-0.51,0.013c0.027,1.103,0.808,1.894,2.141,2.171
					C233.447,82.764,233.768,82.796,234.081,82.796z"/>
				<path fill="#223129" d="M235.461,78.3l3.802-0.599l-0.747-0.305c-1.806-0.737-2.79-3.734-2.79-5.068h-0.448
					c0,1.323,0.847,4.018,2.472,5.156l-2.358,0.372L235.461,78.3z"/>
			</g>
			<circle fill="#FFFFFF" cx="235.389" cy="131.114" r="2.24"/>
			<circle fill="#C3D4DD" cx="235.385" cy="131.122" r="1.34"/>
			<rect x="229.241" y="130.449" fill="#FFFFFF" width="3.301" height="1.412"/>
			<g>
				<path fill="#FFFFFF" d="M228.553,130.449v1.412h-1.791c0.054-0.47,0.107-0.941,0.158-1.412H228.553z"/>
			</g>
			<polygon fill="#FFFFFF" points="231.372,90.384 232.509,88.406 235.42,90.211 238.33,88.406 239.468,90.384 237.451,92.977 
				235.436,123.091 235.436,123.269 235.426,123.424 235.42,123.335 235.414,123.424 235.403,123.269 235.403,123.091 
				233.388,92.977 			"/>
		</g>
		<path fill="#EB6479" d="M213.899,133.281c-0.615,1.175-2.395,4.506-0.781,4.637c1.432,0.093,2.872,0.469,3.472-0.459
			c0.114-0.278,0.098-0.344,0.033-0.688c-0.505-0.066-0.929-0.573-0.636-0.884c0.391-0.049,1.108,0.049,1.353,0.213
			c0.293-0.131,0.342-0.721-0.375-1.13c-0.717-0.409-0.384-0.85-0.249-1.565l-0.729-1.268L213.899,133.281z"/>
		<path fill="#EB6479" d="M231.617,93.75c-3.857,2.325-16.311,22.534-18.05,40.306l2.865,0.111
			c0.992-7.529,7.911-25.912,16.176-35.323L231.617,93.75z"/>
		<path fill="#EB6479" d="M238.972,92.37c0,0,18.194,19.213,13.095,46.012l-2.658-1.303c2.698-20.079-9.218-38.752-9.218-38.752
			L238.972,92.37z"/>
		<path fill="#003E5A" d="M222.493,75.314c0,0-5.33-7.685,3.051-14.658c8.381-6.973,29.631-2.14,23.133,14.322
			c0,0,0.524-6.834-0.975-8.452h-24.793C222.909,66.526,221.255,70.531,222.493,75.314z"/>
	</g>
	<path fill="#003E5A" d="M235.624,58.223c5.569,0.691,10.128,4.003,11.593,7.378c0.37,1.165,2.728,2.585,4.152,2.159
		c-3.373,5.779-26.762,3.299-29.221,0.325c-1.414-1.036,1.325-4.387,2.663-5.799C226.629,60.369,231.563,57.805,235.624,58.223z"/>
</g>
<g>
	<defs>
		<rect id="SVGID_1_" x="-0.115" width="429.922" height="654"/>
	</defs>
	<clipPath id="SVGID_2_">
		<use xlink:href="#SVGID_1_"  overflow="visible"/>
	</clipPath>
	<g clip-path="url(#SVGID_2_)">
		<path id="XMLID_153_" fill="#FFFFFF" d="M332.049,226.168c0-9.77-7.921-17.69-17.691-17.69H115.334
			c-9.77,0-17.69,7.92-17.69,17.69V361.81h234.405V226.168z"/>
		<path id="XMLID_152_" fill="#F2696E" d="M137.225,191.294c-7.118,0-12.889,7.694-12.889,17.184h25.777
			C150.113,198.988,144.343,191.294,137.225,191.294z"/>
		<path id="XMLID_151_" fill="#F2696E" d="M163.002,191.294c-7.118,0-12.889,7.694-12.889,17.184h25.776
			C175.889,198.988,170.12,191.294,163.002,191.294z"/>
		<path id="XMLID_150_" fill="#F2696E" d="M188.778,191.294c-7.117,0-12.887,7.694-12.887,17.184h25.776
			C201.666,198.988,195.896,191.294,188.778,191.294z"/>
		<path id="XMLID_149_" fill="#F2696E" d="M214.553,191.294c-7.117,0-12.887,7.694-12.887,17.184h25.776
			C227.442,198.988,221.673,191.294,214.553,191.294z"/>
		<path id="XMLID_148_" fill="#F2696E" d="M240.332,191.294c-7.12,0-12.89,7.694-12.89,17.184h25.777
			C253.219,198.988,247.448,191.294,240.332,191.294z"/>
		<path id="XMLID_147_" fill="#F2696E" d="M266.107,191.294c-7.117,0-12.889,7.694-12.889,17.184h25.777
			C278.996,198.988,273.226,191.294,266.107,191.294z"/>
		<path id="XMLID_146_" fill="#F2696E" d="M291.883,191.294c-7.117,0-12.887,7.694-12.887,17.184h25.777
			C304.773,198.988,299.001,191.294,291.883,191.294z"/>
		<path id="XMLID_144_" fill="#F2696E" d="M214.847,306.768c-30.92,0-56.075-20.192-56.075-45.012h9.154
			c0,19.772,21.048,35.857,46.921,35.857c25.871,0,46.919-16.086,46.919-35.857h9.154
			C270.92,286.576,245.767,306.768,214.847,306.768z"/>
		<path id="XMLID_143_" fill="#FFFFFF" d="M420.171,379.5c0-9.77-7.922-17.69-17.691-17.69H27.212c-9.77,0-17.69,7.92-17.69,17.69
			v135.642h410.65V379.5z"/>
		<path id="XMLID_142_" fill="#F2696E" d="M137.225,344.626c-7.118,0-12.889,7.694-12.889,17.184h25.777
			C150.113,352.32,144.343,344.626,137.225,344.626z"/>
		<path id="XMLID_141_" fill="#F2696E" d="M163.002,344.626c-7.118,0-12.889,7.694-12.889,17.184h25.776
			C175.889,352.32,170.12,344.626,163.002,344.626z"/>
		<path id="XMLID_140_" fill="#F2696E" d="M188.778,344.626c-7.117,0-12.887,7.694-12.887,17.184h25.776
			C201.666,352.32,195.896,344.626,188.778,344.626z"/>
		<path id="XMLID_139_" fill="#F2696E" d="M214.553,344.626c-7.117,0-12.887,7.694-12.887,17.184h25.776
			C227.442,352.32,221.673,344.626,214.553,344.626z"/>
		<path id="XMLID_138_" fill="#F2696E" d="M240.332,344.626c-7.12,0-12.89,7.694-12.89,17.184h25.777
			C253.219,352.32,247.448,344.626,240.332,344.626z"/>
		<path id="XMLID_137_" fill="#F2696E" d="M266.107,344.626c-7.117,0-12.889,7.694-12.889,17.184h25.777
			C278.996,352.32,273.226,344.626,266.107,344.626z"/>
		<path id="XMLID_136_" fill="#F2696E" d="M291.883,344.626c-7.117,0-12.887,7.694-12.887,17.184h25.777
			C304.773,352.32,299.001,344.626,291.883,344.626z"/>
		<path id="XMLID_134_" fill="#F2696E" d="M214.847,460.101c-30.92,0-56.075-20.192-56.075-45.013h9.154
			c0,19.773,21.048,35.859,46.921,35.859c25.871,0,46.919-16.086,46.919-35.859h9.154
			C270.92,439.909,245.767,460.101,214.847,460.101z"/>
		<path id="XMLID_133_" fill="#F2696E" d="M318.43,460.101c-30.921,0-56.075-20.192-56.075-45.013h9.156
			c0,19.773,21.047,35.859,46.919,35.859s46.919-16.086,46.919-35.859h9.156C374.505,439.909,349.35,460.101,318.43,460.101z"/>
		<path id="XMLID_132_" fill="#F2696E" d="M110.54,460.101c-30.919,0-56.075-20.192-56.075-45.013h9.156
			c0,19.773,21.047,35.859,46.919,35.859s46.919-16.086,46.919-35.859h9.156C166.615,439.909,141.461,460.101,110.54,460.101z"/>
		<path id="XMLID_130_" fill="#F2696E" d="M118.745,489.779c-8.812,0-15.958,9.525-15.958,21.275h31.914
			C134.701,499.304,127.558,489.779,118.745,489.779z"/>
		<path id="XMLID_129_" fill="#F2696E" d="M150.657,489.779c-8.811,0-15.956,9.525-15.956,21.275h31.914
			C166.615,499.304,159.471,489.779,150.657,489.779z"/>
		<path id="XMLID_128_" fill="#F2696E" d="M182.571,489.779c-8.812,0-15.956,9.525-15.956,21.275h31.914
			C198.529,499.304,191.383,489.779,182.571,489.779z"/>
		<path id="XMLID_127_" fill="#F2696E" d="M214.485,489.779c-8.812,0-15.956,9.525-15.956,21.275h31.914
			C230.442,499.304,223.297,489.779,214.485,489.779z"/>
		<path id="XMLID_126_" fill="#F2696E" d="M-8.906,489.779c-8.812,0-15.958,9.525-15.958,21.275H7.05
			C7.05,499.304-0.094,489.779-8.906,489.779z"/>
		<path id="XMLID_125_" fill="#F2696E" d="M23.007,489.779c-8.812,0-15.958,9.525-15.958,21.275h31.912
			C38.962,499.304,31.82,489.779,23.007,489.779z"/>
		<path id="XMLID_124_" fill="#F2696E" d="M54.921,489.779c-8.814,0-15.958,9.525-15.958,21.275h31.912
			C70.876,499.304,63.732,489.779,54.921,489.779z"/>
		<path id="XMLID_123_" fill="#F2696E" d="M86.832,489.779c-8.812,0-15.956,9.525-15.956,21.275h31.912
			C102.788,499.304,95.644,489.779,86.832,489.779z"/>
		<path id="XMLID_122_" fill="#F2696E" d="M246.398,489.779c-8.812,0-15.956,9.525-15.956,21.275h31.912
			C262.354,499.304,255.211,489.779,246.398,489.779z"/>
		<path id="XMLID_121_" fill="#F2696E" d="M278.312,489.779c-8.812,0-15.958,9.525-15.958,21.275h31.914
			C294.268,499.304,287.124,489.779,278.312,489.779z"/>
		<path id="XMLID_120_" fill="#F2696E" d="M310.224,489.779c-8.812,0-15.956,9.525-15.956,21.275h31.912
			C326.18,499.304,319.038,489.779,310.224,489.779z"/>
		<path id="XMLID_119_" fill="#F2696E" d="M342.136,489.779c-8.812,0-15.956,9.525-15.956,21.275h31.914
			C358.094,499.304,350.95,489.779,342.136,489.779z"/>
		<path id="XMLID_118_" fill="#F2696E" d="M374.05,489.779c-8.812,0-15.956,9.525-15.956,21.275h31.912
			C390.006,499.304,382.862,489.779,374.05,489.779z"/>
		<path id="XMLID_117_" fill="#F2696E" d="M405.964,489.779c-8.812,0-15.956,9.525-15.956,21.275h31.912
			C421.92,499.304,414.774,489.779,405.964,489.779z"/>
		<path id="XMLID_107_" fill="#F2696E" d="M318.43,297.614c-25.873,0-46.919-16.086-46.919-35.857h-9.156
			c0,24.82,25.154,45.012,56.075,45.012c4.697,0,9.257-0.472,13.62-1.349v-9.351C327.736,297.07,323.165,297.614,318.43,297.614z"/>
		<path id="XMLID_106_" fill="#F2696E" d="M157.459,261.756c0,19.772-21.048,35.857-46.919,35.857c-4.472,0-8.795-0.49-12.896-1.389
			v9.329c4.143,0.787,8.458,1.214,12.896,1.214c30.92,0,56.075-20.192,56.075-45.012H157.459z"/>
		<path id="XMLID_105_" fill="#F2696E" d="M375.093,415.088h-9.154c0,24.325,24.163,44.191,54.233,44.976v-9.154
			C395.151,450.168,375.093,434.388,375.093,415.088z"/>
		<path id="XMLID_104_" fill="#F2696E" d="M62.308,415.088h-9.154c0,18.927-19.29,34.465-43.632,35.76v9.17
			C38.918,458.647,62.308,439.023,62.308,415.088z"/>
		<circle id="XMLID_103_" fill="#F48FA3" cx="266.107" cy="261.756" r="12.889"/>
		<circle id="XMLID_102_" fill="#F48FA3" cx="163.002" cy="261.756" r="12.889"/>
		<circle id="XMLID_101_" fill="#F48FA3" cx="266.107" cy="415.088" r="12.889"/>
		<circle id="XMLID_99_" fill="#F48FA3" cx="369.691" cy="415.088" r="12.888"/>
		<circle id="XMLID_53_" fill="#F48FA3" cx="163.002" cy="415.088" r="12.889"/>
		<circle id="XMLID_50_" fill="#F48FA3" cx="58.695" cy="415.088" r="12.889"/>
	</g>
</g>
<rect x="-0.646" y="511.054" fill="#B4A680" width="430" height="142.946"/>
<polygon fill="#FFFFFF" points="181.662,82.541 181.662,93.517 183.781,105.487 187.9,118.94 192.951,106.328 193.75,93.673 
	194.661,82.541 "/>
<g>
	<g>
		<polygon points="188.448,84.842 188.448,86.177 192.951,88.223 192.951,82.796 		"/>
		<polygon points="187.876,84.842 187.876,86.177 183.372,88.223 183.372,82.796 		"/>
		<path d="M187.291,86.24c0,0.25,0.205,0.454,0.455,0.454h0.833c0.25,0,0.454-0.205,0.454-0.454v-1.402
			c0-0.25-0.205-0.455-0.454-0.455h-0.833c-0.25,0-0.455,0.205-0.455,0.455V86.24z"/>
	</g>
	<g>
		<circle cx="188.162" cy="112.881" r="0.841"/>
		<circle cx="188.162" cy="105.563" r="0.841"/>
		<circle cx="188.162" cy="98.246" r="0.841"/>
		<circle cx="188.162" cy="90.929" r="0.841"/>
	</g>
	<g>
		<path d="M199.149,89.067l2.668-2.001c0.02-0.094,0.04-0.185,0.059-0.272c-1.666-0.758-5.353-3.136-7.215-4.254
			c-0.745,5.679-3.308,24.252-6.761,36.476c6.029-6.922,10.643-20.405,12.637-26.394L199.149,89.067z"/>
		<path d="M177.175,89.067l-2.668-2.001c-0.02-0.094-0.04-0.185-0.059-0.272c1.666-0.758,5.353-3.136,7.215-4.254
			c0.745,5.679,2.784,24.252,6.238,36.476c-6.029-6.922-10.119-20.405-12.113-26.394L177.175,89.067z"/>
	</g>
</g>
<path fill="#FFFFFF" d="M232.191,90.218h3.212h0.033h3.212c6.279,17.776,5.839,43.801,6.459,74.509h-9.671h-0.033h-9.671
	C226.353,134.019,225.912,107.994,232.191,90.218z"/>
</svg>
