<?xml version="1.0" encoding="utf-8"?>
<!-- Generator: Adobe Illustrator 21.1.0, SVG Export Plug-In . SVG Version: 6.00 Build 0)  -->
<!DOCTYPE svg PUBLIC "-//W3C//DTD SVG 1.1//EN" "http://www.w3.org/Graphics/SVG/1.1/DTD/svg11.dtd">
<svg version="1.1" id="Layer_1" xmlns="http://www.w3.org/2000/svg" xmlns:xlink="http://www.w3.org/1999/xlink" x="0px" y="0px"
	 viewBox="0 0 286 286" style="enable-background:new 0 0 286 286;" xml:space="preserve">
<style type="text/css">
	.st0{clip-path:url(#SVGID_2_);fill:#4298B5;}
	.st1{clip-path:url(#SVGID_2_);}
	.st2{fill:#DB5C1E;}
	.st3{fill:#002B44;}
	.st4{fill:#003F5C;}
	.st5{fill:#EB6479;}
	.st6{fill:#223129;}
	.st7{fill:#FFFFFF;}
	.st8{fill:#D55A6E;}
	.st9{fill:#D8E2E7;}
	.st10{fill:#939598;}
	.st11{fill:#727D84;}
	.st12{fill:#4298B5;}
	.st13{fill:#E4D5B4;}
	.st14{fill:#CEBFA3;}
	.st15{fill:#EDE0C6;}
	.st16{fill:#3D302D;}
	.st17{fill:#D6C6A6;}
	.st18{fill:#C6B597;}
	.st19{fill:#826754;}
	.st20{fill:#91CEC4;}
	.st21{fill:#D3A98C;}
	.st22{fill:#AD886F;}
	.st23{fill:#896D59;}
	.st24{fill:#EA7442;}
	.st25{fill:#D15F36;}
	.st26{fill:#003E5A;}
	.st27{fill:#243129;}
	.st28{fill:#4077A2;}
	.st29{fill:#0F3644;}
	.st30{fill:#6C707A;}
	.st31{fill:url(#SVGID_3_);}
	.st32{fill:#8AACBD;}
	.st33{fill:#E6EBEE;}
	.st34{fill:#C3D4DD;}
	.st35{fill:#F37029;}
	.st36{fill:#004B6B;}
	.st37{fill:#282829;}
	.st38{fill:#BACAD3;}
	.st39{fill:#9EB3BE;}
	.st40{fill:#27688F;}
	.st41{fill:#005376;}
	.st42{fill:#2B75A2;}
	.st43{fill:#AFC6D2;}
	.st44{fill:url(#SVGID_4_);}
	.st45{fill:#E9E8D8;}
	.st46{fill:#818277;}
	.st47{fill:#63665D;}
	.st48{fill:#B4B39A;}
	.st49{fill:url(#SVGID_5_);}
	.st50{fill:url(#SVGID_6_);}
	.st51{fill:url(#SVGID_7_);}
	.st52{fill:url(#SVGID_8_);}
	.st53{fill:url(#SVGID_9_);}
	.st54{fill:url(#SVGID_10_);}
	.st55{fill:#FFC20E;}
	.st56{fill:#916600;}
	.st57{fill:#A7BDC9;}
	.st58{fill:#8E2833;}
	.st59{fill:#721B25;}
	.st60{fill:#00547A;}
	.st61{fill:#F1F2F2;}
	.st62{fill:#6F6598;}
	.st63{fill:#4B436A;}
	.st64{fill:#F27129;}
	.st65{fill:#A57406;}
	.st66{fill:url(#SVGID_11_);}
	.st67{fill:url(#SVGID_12_);}
	.st68{fill:url(#SVGID_13_);}
	.st69{fill:url(#SVGID_14_);}
	.st70{fill:url(#SVGID_15_);}
	.st71{fill:url(#SVGID_16_);}
	.st72{fill:url(#SVGID_17_);}
	.st73{fill:url(#SVGID_18_);}
	.st74{fill:url(#SVGID_19_);}
	.st75{fill:url(#SVGID_20_);}
	.st76{fill:url(#SVGID_21_);}
	.st77{fill:url(#SVGID_22_);}
	.st78{fill:url(#SVGID_23_);}
	.st79{fill:url(#SVGID_24_);}
	.st80{fill:url(#SVGID_25_);}
	.st81{fill:url(#SVGID_26_);}
	.st82{fill:url(#SVGID_27_);}
	.st83{fill:url(#SVGID_28_);}
	.st84{fill:url(#SVGID_29_);}
	.st85{fill:url(#SVGID_30_);}
	.st86{fill:url(#SVGID_31_);}
	.st87{fill:url(#SVGID_32_);}
	.st88{fill:url(#SVGID_33_);}
	.st89{fill:url(#SVGID_34_);}
	.st90{fill:url(#SVGID_35_);}
	.st91{fill:url(#SVGID_36_);}
	.st92{fill:url(#SVGID_37_);}
	.st93{fill:url(#SVGID_38_);}
	.st94{fill:url(#SVGID_39_);}
	.st95{fill:url(#SVGID_40_);}
	.st96{fill:url(#SVGID_41_);}
	.st97{fill:url(#SVGID_42_);}
	.st98{fill:url(#SVGID_43_);}
	.st99{fill:url(#SVGID_44_);}
	.st100{fill:url(#SVGID_45_);}
	.st101{fill:url(#SVGID_46_);}
	.st102{fill:#F9F1D7;}
	.st103{fill:#6E7980;stroke:#58595B;stroke-width:0.4225;stroke-linecap:round;stroke-linejoin:round;}
	.st104{fill:#DF9CB0;}
	.st105{fill:#C37A8C;}
	.st106{fill:#C29F60;}
	.st107{fill:#FFFFFF;stroke:#D0ECF4;stroke-width:0.4225;}
	.st108{fill:url(#SVGID_47_);}
	.st109{fill:url(#SVGID_48_);}
	.st110{fill:url(#SVGID_49_);stroke:#FFFFFF;stroke-width:2.1123;}
	.st111{fill:#9F2214;}
	.st112{fill:url(#SVGID_50_);stroke:#FFFFFF;stroke-width:2.1123;}
	.st113{fill:#4A7195;}
	.st114{fill:#C13D2E;}
	.st115{fill:#7989A3;stroke:#FFFFFF;stroke-width:2.1123;}
	.st116{fill:#FFCF01;}
	.st117{fill:url(#SVGID_51_);stroke:#FFFFFF;stroke-width:2.1123;}
	.st118{fill:url(#SVGID_52_);stroke:#FFFFFF;stroke-width:2.1123;}
	.st119{fill:url(#SVGID_53_);stroke:#FFFFFF;stroke-width:2.1123;}
	.st120{fill:#876041;}
	.st121{fill:#DAC895;stroke:#F7E8BA;stroke-width:0.4225;}
	.st122{fill:#4B545B;}
	.st123{fill:#3E6D93;}
	.st124{fill:#476F93;}
	.st125{fill:#CAB47E;}
	.st126{fill:#F7E8BA;}
	.st127{fill:#C2A171;}
	.st128{fill:#D0ECF4;}
	.st129{fill:#EFE4AC;}
	.st130{fill:#5980A2;}
	.st131{fill:#17738F;}
	.st132{fill:#B1D45E;}
	.st133{fill:#8CC540;stroke:#221F1F;stroke-width:0.2168;stroke-linejoin:round;stroke-miterlimit:10;}
	.st134{fill:#58595B;}
	.st135{fill:#797A7D;}
	.st136{fill:#BF86A8;}
	.st137{fill:#302B2C;}
	.st138{fill:#48484A;}
	.st139{fill:#72A087;}
	.st140{fill:#94B0BE;}
	.st141{fill:#09723B;}
	.st142{fill:#00A14B;}
	.st143{fill:#004766;}
	.st144{fill:#00354F;}
	.st145{fill:#005B80;}
	.st146{fill:#002F3E;}
	.st147{fill:#3F4450;}
	.st148{fill:#2A6A7F;}
	.st149{fill:url(#SVGID_54_);}
	.st150{fill:#2C3038;}
	.st151{fill:#CACFD1;}
	.st152{fill:#343943;}
	.st153{fill:#27667A;}
	.st154{fill:none;stroke:#243129;stroke-width:0.3823;stroke-miterlimit:10;}
	.st155{fill:#333333;}
	.st156{fill:#E5E8DD;}
	.st157{fill:#767877;}
	.st158{fill:#545554;}
	.st159{fill:#F8E1C7;}
	.st160{fill:#5A5048;}
	.st161{fill:#604373;}
	.st162{fill:none;}
	.st163{fill:#9DB9C8;}
	.st164{fill:#235F83;}
	.st165{fill:#CF473A;}
	.st166{fill:#B4A680;}
	.st167{fill:url(#SVGID_55_);}
	.st168{fill:url(#SVGID_56_);}
	.st169{fill:url(#SVGID_57_);}
	.st170{fill:url(#SVGID_58_);}
	.st171{fill:url(#SVGID_59_);}
	.st172{fill:url(#SVGID_60_);}
	.st173{fill:url(#SVGID_61_);}
	.st174{fill:url(#SVGID_62_);}
	.st175{fill:url(#SVGID_63_);}
	.st176{fill:url(#SVGID_64_);}
	.st177{fill:url(#SVGID_65_);}
	.st178{fill:url(#SVGID_66_);}
	.st179{fill:url(#SVGID_67_);}
	.st180{fill:url(#SVGID_68_);}
	.st181{fill:url(#SVGID_69_);}
	.st182{fill:url(#SVGID_70_);}
	.st183{fill:url(#SVGID_71_);}
	.st184{fill:url(#SVGID_72_);}
	.st185{fill:url(#SVGID_73_);}
	.st186{fill:url(#SVGID_74_);}
	.st187{fill:url(#SVGID_75_);}
	.st188{fill:url(#SVGID_76_);}
	.st189{fill:url(#SVGID_77_);}
	.st190{fill:url(#SVGID_78_);}
	.st191{fill:url(#SVGID_79_);}
	.st192{fill:url(#SVGID_80_);}
	.st193{fill:url(#SVGID_81_);}
	.st194{fill:url(#SVGID_82_);}
	.st195{fill:url(#SVGID_83_);}
	.st196{fill:url(#SVGID_84_);}
	.st197{fill:url(#SVGID_85_);}
	.st198{fill:url(#SVGID_86_);}
	.st199{fill:url(#SVGID_87_);}
	.st200{fill:url(#SVGID_88_);}
	.st201{fill:url(#SVGID_89_);}
	.st202{fill:url(#SVGID_90_);}
	.st203{fill:url(#SVGID_91_);}
	.st204{fill:url(#SVGID_92_);}
	.st205{fill:url(#SVGID_93_);}
	.st206{fill:url(#SVGID_94_);}
	.st207{fill:url(#SVGID_95_);}
	.st208{fill:url(#SVGID_96_);}
	.st209{fill:url(#SVGID_97_);}
	.st210{fill:url(#SVGID_98_);}
	.st211{fill:url(#SVGID_99_);}
	.st212{fill:url(#SVGID_100_);}
	.st213{fill:url(#SVGID_101_);}
	.st214{fill:url(#SVGID_102_);}
	.st215{fill:url(#SVGID_103_);}
	.st216{fill:url(#SVGID_104_);}
	.st217{fill:url(#SVGID_105_);}
	.st218{fill:url(#SVGID_106_);}
	.st219{fill:url(#SVGID_107_);}
	.st220{fill:url(#SVGID_108_);}
	.st221{fill:url(#SVGID_109_);}
	.st222{fill:url(#SVGID_110_);}
	.st223{fill:url(#SVGID_111_);}
	.st224{fill:url(#SVGID_112_);}
	.st225{fill:url(#SVGID_113_);}
	.st226{fill:url(#SVGID_114_);}
	.st227{fill:url(#SVGID_115_);}
	.st228{fill:url(#SVGID_116_);}
	.st229{fill:url(#SVGID_117_);}
	.st230{fill:url(#SVGID_118_);}
	.st231{fill:url(#SVGID_119_);}
	.st232{fill:url(#SVGID_120_);}
	.st233{fill:url(#SVGID_121_);}
	.st234{fill:url(#SVGID_122_);}
	.st235{fill:#F7D9A8;}
	.st236{fill:#EE93B9;}
</style>
<circle class="st12" cx="143" cy="143" r="143"/>
<g>
	<path class="st7" d="M103.8,208.3l-2.9-10.3h-0.1c0.1,1.8,0.2,3.1,0.2,4.1v6.2h-3.4v-14.3h5.1l3,10.1h0.1l2.9-10.1h5.1v14.3h-3.5
		v-6.3c0-0.3,0-0.7,0-1.1s0.1-1.4,0.1-2.9h-0.1l-2.9,10.3H103.8z"/>
	<path class="st7" d="M123.9,208.3l-0.7-1.5h-0.1c-0.5,0.6-1,1.1-1.6,1.3c-0.5,0.2-1.2,0.4-2.1,0.4c-1,0-1.9-0.3-2.5-0.9
		c-0.6-0.6-0.9-1.5-0.9-2.6c0-1.2,0.4-2.1,1.2-2.6s2-0.9,3.6-1l1.8-0.1v-0.2c0-0.9-0.4-1.4-1.3-1.4c-0.8,0-1.8,0.3-3.1,0.8l-1.1-2.5
		c1.3-0.7,2.9-1,4.9-1c1.4,0,2.5,0.4,3.3,1.1c0.8,0.7,1.2,1.7,1.2,2.9v7.3H123.9z M121,205.8c0.5,0,0.9-0.1,1.2-0.4
		c0.3-0.3,0.5-0.7,0.5-1.1v-0.9l-0.9,0c-1.3,0-1.9,0.5-1.9,1.4C119.9,205.5,120.3,205.8,121,205.8z"/>
	<path class="st7" d="M135.8,197.1c0.3,0,0.6,0,0.9,0.1l0.2,0l-0.3,3.6c-0.3-0.1-0.7-0.1-1.3-0.1c-0.8,0-1.4,0.2-1.8,0.6
		c-0.4,0.4-0.6,0.9-0.6,1.6v5.4h-3.8v-11.1h2.8l0.6,1.8h0.2c0.3-0.6,0.8-1.1,1.3-1.4C134.6,197.3,135.2,197.1,135.8,197.1z"/>
	<path class="st7" d="M145.2,197.1c0.3,0,0.6,0,0.9,0.1l0.2,0l-0.3,3.6c-0.3-0.1-0.7-0.1-1.3-0.1c-0.8,0-1.4,0.2-1.8,0.6
		c-0.4,0.4-0.6,0.9-0.6,1.6v5.4h-3.8v-11.1h2.8l0.6,1.8h0.2c0.3-0.6,0.8-1.1,1.3-1.4C144,197.3,144.6,197.1,145.2,197.1z"/>
	<path class="st7" d="M147.8,194.5c0-0.6,0.2-1,0.5-1.3c0.3-0.3,0.8-0.4,1.5-0.4c0.7,0,1.2,0.1,1.6,0.4c0.3,0.3,0.5,0.7,0.5,1.3
		c0,1.1-0.7,1.7-2,1.7C148.5,196.2,147.8,195.6,147.8,194.5z M151.7,208.3h-3.8v-11.1h3.8V208.3z"/>
	<path class="st7" d="M161.6,208.3l-0.7-1.5h-0.1c-0.5,0.6-1,1.1-1.6,1.3c-0.5,0.2-1.2,0.4-2.1,0.4c-1,0-1.9-0.3-2.5-0.9
		c-0.6-0.6-0.9-1.5-0.9-2.6c0-1.2,0.4-2.1,1.2-2.6s2-0.9,3.6-1l1.8-0.1v-0.2c0-0.9-0.4-1.4-1.3-1.4c-0.8,0-1.8,0.3-3.1,0.8l-1.1-2.5
		c1.3-0.7,2.9-1,4.9-1c1.4,0,2.5,0.4,3.3,1.1c0.8,0.7,1.2,1.7,1.2,2.9v7.3H161.6z M158.8,205.8c0.5,0,0.9-0.1,1.2-0.4
		c0.3-0.3,0.5-0.7,0.5-1.1v-0.9l-0.9,0c-1.3,0-1.9,0.5-1.9,1.4C157.7,205.5,158,205.8,158.8,205.8z"/>
	<path class="st7" d="M177.3,197.3v1.8l-1.5,0.6c0.2,0.4,0.3,0.8,0.3,1.3c0,1.2-0.4,2.1-1.3,2.8c-0.8,0.7-2.1,1-3.7,1
		c-0.4,0-0.7,0-1-0.1c-0.1,0.2-0.1,0.3-0.1,0.5c0,0.2,0.2,0.3,0.5,0.4c0.3,0.1,0.7,0.2,1.2,0.2h1.8c2.5,0,3.7,1,3.7,3.1
		c0,1.3-0.6,2.4-1.7,3.1c-1.1,0.7-2.8,1.1-4.8,1.1c-1.6,0-2.8-0.3-3.6-0.8s-1.3-1.3-1.3-2.3c0-1.3,0.8-2.2,2.5-2.6
		c-0.3-0.1-0.6-0.4-0.9-0.7c-0.3-0.3-0.4-0.6-0.4-0.9c0-0.3,0.1-0.6,0.3-0.9c0.2-0.3,0.6-0.6,1.2-0.9c-0.6-0.3-1-0.7-1.4-1.2
		c-0.3-0.5-0.5-1.2-0.5-2c0-1.2,0.4-2.1,1.2-2.8s2-1,3.5-1c0.2,0,0.5,0,1,0.1c0.5,0,0.9,0.1,1.1,0.1H177.3z M168.9,209.7
		c0,0.3,0.2,0.6,0.5,0.8c0.3,0.2,0.8,0.3,1.4,0.3c0.9,0,1.7-0.1,2.2-0.3s0.8-0.5,0.8-0.9c0-0.3-0.2-0.5-0.5-0.6
		c-0.3-0.1-0.8-0.2-1.5-0.2h-1.5c-0.4,0-0.8,0.1-1,0.3S168.9,209.4,168.9,209.7z M170.1,200.9c0,1.1,0.4,1.7,1.2,1.7
		c0.4,0,0.6-0.1,0.8-0.4c0.2-0.3,0.3-0.7,0.3-1.3c0-1.1-0.4-1.7-1.1-1.7C170.5,199.2,170.1,199.8,170.1,200.9z"/>
	<path class="st7" d="M184.3,208.5c-1.8,0-3.3-0.5-4.3-1.5c-1-1-1.5-2.4-1.5-4.2c0-1.9,0.5-3.3,1.4-4.3c0.9-1,2.3-1.5,4-1.5
		c1.7,0,3,0.4,3.9,1.3s1.4,2.1,1.4,3.8v1.7h-6.8c0,0.6,0.3,1.1,0.7,1.5c0.4,0.4,1,0.5,1.7,0.5c0.7,0,1.3-0.1,1.9-0.2
		c0.6-0.1,1.2-0.3,1.8-0.6v2.7c-0.6,0.3-1.2,0.5-1.9,0.6C186,208.5,185.2,208.5,184.3,208.5z M184.1,199.7c-0.4,0-0.8,0.1-1.1,0.4
		s-0.5,0.7-0.5,1.3h3.3c0-0.5-0.2-1-0.5-1.3C185,199.8,184.6,199.7,184.1,199.7z"/>
</g>
<g>
	<g>
		<g>
			<g>
				<circle class="st5" cx="119.9" cy="59.2" r="2.3"/>
				<circle class="st5" cx="134.1" cy="59.2" r="2.3"/>
				<path class="st5" d="M136.1,71.1l-3.7-23.3h-10.9l-3.6,23.3h0.1c0.2,1,4.1,1.8,9,1.8c4.8,0,8.8-0.8,9-1.8H136.1z"/>
				<path class="st6" d="M123.5,57.1c-0.1,0-0.2,0-0.3,0c-1,0-2-0.9-2-2.3l0.4,0c0,1.1,0.8,1.8,1.6,1.9c0.7,0,1.5-0.5,1.6-2l0.4,0
					C125.1,56.4,124.3,57,123.5,57.1z"/>
				<path class="st6" d="M131.2,57.1c-0.1,0-0.2,0-0.3,0c-1,0-2-0.9-2-2.3l0.4,0c0,1.1,0.8,1.8,1.6,1.9c0.7,0,1.5-0.5,1.6-2l0.4,0
					C132.8,56.4,132,57,131.2,57.1z"/>
				<path class="st6" d="M125.9,67.3v-0.4c2.1,0,4.7-1.1,5.8-3.3l0.4,0.2C130.9,66.1,128.1,67.3,125.9,67.3z"/>
				<polygon class="st6" points="128.1,62.4 124.7,62.4 126.6,54.7 127.1,54.9 125.4,61.9 128.1,61.9 				"/>
			</g>
			<polygon class="st37" points="127,119.5 121.9,174.2 111.9,174.2 117.6,169.6 118.3,119.2 124.4,115.9 			"/>
			<path class="st5" d="M104.3,111.2c-0.6,1.1-1.5,4.1,0,4.3c1.3,0.1,2.6,0.4,3.2-0.4c0.1-0.3,0.1-0.3,0-0.6
				c-0.5-0.1-0.9-0.5-0.6-0.8c0.4,0,1,0,1.2,0.2c0.3-0.1,0.3-0.7-0.3-1c-0.7-0.4-0.4-0.8-0.2-1.4l-0.7-1.2L104.3,111.2z"/>
			<path class="st37" d="M118.1,70.5c-3.5,2.1-12.2,24.4-13.8,40.7l3.4,0.1c0.9-6.9,5-25,12.6-33.7L118.1,70.5z"/>
			<path class="st37" d="M135.8,119.6l0.7,50l5.7,4.6h-10l-5.1-54.5c0-2.4,0.5-4.3,4.1-4.3C133.7,115.3,135.8,116.4,135.8,119.6z"/>
			<g>
				<path class="st37" d="M135.8,119.6L135.8,119.6c0.5-4.3,0.9-8.9,1.3-12.8l-10.1,0.5v12.4h0.1l4.7,50.1h4.9l-0.1-0.1L135.8,119.6
					z"/>
			</g>
			<path class="st7" d="M129.1,110.5h-4.2v-2.7h4.2V110.5z M128.4,108.3h-2.8v1.7h2.8V108.3z"/>
			<path class="st7" d="M129,109.1c0,0.1-0.1,0.2-0.2,0.2h-1c-0.1,0-0.2-0.1-0.2-0.2l0,0c0-0.1,0.1-0.2,0.2-0.2h1
				C128.9,108.9,129,109,129,109.1L129,109.1z"/>
			<path class="st5" d="M149.8,111.2c0.6,1.1,1.5,4.1,0,4.3c-1.3,0.1-2.6,0.4-3.2-0.4c-0.1-0.3-0.1-0.3,0-0.6
				c0.5-0.1,0.9-0.5,0.6-0.8c-0.4,0-1,0-1.2,0.2c-0.3-0.1-0.3-0.7,0.3-1c0.7-0.4,0.4-0.8,0.2-1.4l0.7-1.2L149.8,111.2z"/>
			<path class="st37" d="M135.9,70.5c3.5,2.1,12.2,24.4,13.8,40.7l-3.4,0.1c-0.9-6.9-5-25-12.6-33.7L135.9,70.5z"/>
			<path class="st37" d="M135.9,70.5H127h0H118c-3.6,15.3-1.9,30,0.3,49.2h8.7h0h8.7C137.9,100.5,139.6,85.7,135.9,70.5z"/>
		</g>
		<polygon class="st29" points="117.6,44.5 119.7,47.9 120.3,58.3 121.8,48.2 132.6,49.4 134,58 135.7,43 		"/>
	</g>
	<g>
		<g>
			<path class="st26" d="M165.5,71.6c1.8,3,10.8,4.2,13.8,1.6c-3.7,0.4-3.9-2.6-1.8-10.5c2.1-10.3-7.5-14.4-12-14.4
				s-14.1,4.1-12,14.4c2.1,7.9,1.9,10.9-1.8,10.5C154.7,75.8,163.7,74.5,165.5,71.6z"/>
			<path class="st5" d="M178.6,115c0,1.1,0,4.1-1.2,3.6c-1.1-0.5-2.2-0.8-2.3-1.6c0-0.2,0.1-0.3,0.2-0.5c0.4,0.1,0.9-0.1,0.8-0.4
				c-0.3-0.2-0.8-0.4-1-0.4c-0.2-0.2,0-0.6,0.7-0.7c0.7,0,0.6-0.5,0.8-1l1-0.6L178.6,115z"/>
			<g>
				<g>
					<polygon class="st5" points="164.8,127.4 163.6,174.6 158.5,174.6 161.4,170.3 159.3,127.2 162.4,122.1 					"/>
				</g>
				<g>
					<polygon class="st5" points="165.6,127.4 166.8,174.6 171.8,174.6 168.9,170.3 171.1,127.2 168,122.1 					"/>
					<g>
						<polygon class="st27" points="171.8,174.6 166.8,174.6 166.6,170 169,170 168.9,170.3 						"/>
					</g>
					<g>
						<polygon class="st27" points="158.5,174.6 163.6,174.6 163.7,170 161.4,170 161.4,170.3 						"/>
					</g>
				</g>
				<g>
					<ellipse class="st5" cx="175.4" cy="63" rx="2.1" ry="2.1"/>
					<ellipse class="st5" cx="155.2" cy="63" rx="2.1" ry="2.1"/>
					<path class="st5" d="M163.6,51.2h3.2c6.4,0.7,9.4,3.8,9.4,10.1c0,4.6-2.3,8.2-5.3,9.9c-5,2.7-3.6,4.2-3.1,5.4
						c0,0.8-1,1.7-2.6,1.7s-2.6-0.9-2.6-1.7h0c0.5-1.3,1.8-2.7-3.2-5.4c-3.1-1.7-5.3-5.3-5.3-9.9C154.1,55,157.2,51.9,163.6,51.2z"
						/>
					<path class="st6" d="M171.9,64c0,0,0.1,0,0.1,0c0.9-0.1,1.8-0.8,1.8-1.9l-0.4,0c0,1-0.7,1.5-1.4,1.5c-0.7,0.1-1.5-0.4-1.6-1.4
						l-0.4,0.1C170.2,63.5,171.1,64,171.9,64z"/>
					<path class="st6" d="M158.5,64c0.9,0,1.7-0.5,1.9-1.8l-0.4-0.1c-0.1,1-0.9,1.5-1.6,1.4c-0.7-0.1-1.4-0.6-1.4-1.5l-0.4,0
						c0,1.2,0.9,1.9,1.8,1.9C158.4,64,158.5,64,158.5,64z"/>
					<path class="st6" d="M164.1,70.7c0.6,0,1.2-0.2,1.4-0.5l-0.4-0.2c-0.1,0.2-0.8,0.4-1.7,0.2c-0.5-0.1-1.4-0.4-1.4-1.4l-0.4,0
						c0,0.9,0.7,1.5,1.7,1.8C163.6,70.6,163.8,70.7,164.1,70.7z"/>
					<path class="st6" d="M165.2,67l3.1-0.5l-0.6-0.2c-1.5-0.6-2.3-3-2.3-4.1H165c0,1.1,0.7,3.2,2,4.2l-1.9,0.3L165.2,67z"/>
				</g>
				<circle class="st7" cx="165.1" cy="109.7" r="1.8"/>
				<circle class="st34" cx="165.1" cy="109.7" r="1.1"/>
				<rect x="160.2" y="109.1" class="st7" width="2.7" height="1.1"/>
				<g>
					<path class="st7" d="M159.6,109.1v1.1h-1.4c0-0.4,0.1-0.8,0.1-1.1H159.6z"/>
				</g>
				<polygon class="st7" points="161.9,76.8 162.8,75.2 165.2,76.6 167.5,75.2 168.4,76.8 166.8,78.9 165.2,103.2 165.2,103.3 
					165.2,103.5 165.2,103.4 165.2,103.5 165.1,103.3 165.1,103.2 163.5,78.9 				"/>
			</g>
			<path class="st5" d="M147.8,111.4c-0.5,0.9-1.9,3.6-0.6,3.7c1.2,0.1,2.3,0.4,2.8-0.4c0.1-0.2,0.1-0.3,0-0.6
				c-0.4-0.1-0.7-0.5-0.5-0.7c0.3,0,0.9,0,1.1,0.2c0.2-0.1,0.3-0.6-0.3-0.9c-0.6-0.3-0.3-0.7-0.2-1.3l-0.6-1L147.8,111.4z"/>
			<path class="st5" d="M162.1,79.5c-3.1,1.9-13.2,18.2-14.6,32.5l2.3,0.1c0.8-6.1,6.4-20.9,13.1-28.5L162.1,79.5z"/>
			<path class="st5" d="M168,78.4c0,0,14.7,15.5,10.6,37.1l-2.1-1.1c2.2-16.2-7.4-31.3-7.4-31.3L168,78.4z"/>
			<path class="st26" d="M154.7,64.6c0,0-4.3-6.2,2.5-11.8s23.9-1.7,18.7,11.6c0,0,0.4-5.5-0.8-6.8h-20
				C155.1,57.5,153.7,60.8,154.7,64.6z"/>
		</g>
		<path class="st26" d="M165.3,50.8c4.5,0.6,8.2,3.2,9.4,6c0.3,0.9,2.2,2.1,3.4,1.7c-2.7,4.7-21.6,2.7-23.6,0.3
			c-1.1-0.8,1.1-3.5,2.1-4.7C158.1,52.6,162,50.5,165.3,50.8z"/>
	</g>
	<polygon class="st7" points="121.8,70.5 121.8,79.3 123.5,89 126.8,99.8 130.9,89.7 131.5,79.4 132.3,70.5 	"/>
	<g>
		<g>
			<polygon points="127.3,72.3 127.3,73.4 130.9,75 130.9,70.7 			"/>
			<polygon points="126.8,72.3 126.8,73.4 123.2,75 123.2,70.7 			"/>
			<path d="M126.3,73.4c0,0.2,0.2,0.4,0.4,0.4h0.7c0.2,0,0.4-0.2,0.4-0.4v-1.1c0-0.2-0.2-0.4-0.4-0.4h-0.7c-0.2,0-0.4,0.2-0.4,0.4
				V73.4z"/>
		</g>
		<g>
			<circle cx="127" cy="94.9" r="0.7"/>
			<circle cx="127" cy="89" r="0.7"/>
			<circle cx="127" cy="83.1" r="0.7"/>
			<circle cx="127" cy="77.2" r="0.7"/>
		</g>
		<g>
			<path d="M135.9,75.7l2.2-1.6c0-0.1,0-0.1,0-0.2c-1.3-0.6-4.3-2.5-5.8-3.4c-0.6,4.6-2.7,19.6-5.5,29.4c4.9-5.6,8.6-16.5,10.2-21.3
				L135.9,75.7z"/>
			<path d="M118.2,75.7l-2.2-1.6c0-0.1,0-0.1,0-0.2c1.3-0.6,4.3-2.5,5.8-3.4c0.6,4.6,2.2,19.6,5,29.4c-4.9-5.6-8.2-16.5-9.8-21.3
				L118.2,75.7z"/>
		</g>
	</g>
	<path class="st7" d="M162.6,76.7h2.6h0h2.6c5.1,14.3,4.7,35.3,5.2,60.1h-7.8h0h-7.8C157.8,112,157.5,91,162.6,76.7z"/>
</g>
</svg>
