<?xml version="1.0" encoding="utf-8"?>
<!-- Generator: Adobe Illustrator 21.1.0, SVG Export Plug-In . SVG Version: 6.00 Build 0)  -->
<!DOCTYPE svg PUBLIC "-//W3C//DTD SVG 1.1//EN" "http://www.w3.org/Graphics/SVG/1.1/DTD/svg11.dtd">
<svg version="1.1" id="Layer_1" xmlns="http://www.w3.org/2000/svg" xmlns:xlink="http://www.w3.org/1999/xlink" x="0px" y="0px"
	 viewBox="0 0 286 286" style="enable-background:new 0 0 286 286;" xml:space="preserve">
<style type="text/css">
	.st0{clip-path:url(#SVGID_2_);fill:#4298B5;}
	.st1{clip-path:url(#SVGID_2_);}
	.st2{fill:#DB5C1E;}
	.st3{fill:#002B44;}
	.st4{fill:#003F5C;}
	.st5{fill:#EB6479;}
	.st6{fill:#223129;}
	.st7{fill:#FFFFFF;}
	.st8{fill:#D55A6E;}
	.st9{fill:#D8E2E7;}
	.st10{fill:#939598;}
	.st11{fill:#727D84;}
	.st12{fill:#4298B5;}
	.st13{fill:#E4D5B4;}
	.st14{fill:#CEBFA3;}
	.st15{fill:#EDE0C6;}
	.st16{fill:#3D302D;}
	.st17{fill:#D6C6A6;}
	.st18{fill:#C6B597;}
	.st19{fill:#826754;}
	.st20{fill:#91CEC4;}
	.st21{fill:#D3A98C;}
	.st22{fill:#AD886F;}
	.st23{fill:#896D59;}
	.st24{fill:#EA7442;}
	.st25{fill:#D15F36;}
	.st26{fill:#003E5A;}
	.st27{fill:#243129;}
	.st28{fill:#4077A2;}
	.st29{fill:#0F3644;}
	.st30{fill:#6C707A;}
	.st31{fill:url(#SVGID_3_);}
	.st32{fill:#8AACBD;}
	.st33{fill:#E6EBEE;}
	.st34{fill:#C3D4DD;}
	.st35{fill:#F37029;}
	.st36{fill:#004B6B;}
	.st37{fill:#282829;}
	.st38{fill:#BACAD3;}
	.st39{fill:#9EB3BE;}
	.st40{fill:#27688F;}
	.st41{fill:#005376;}
	.st42{fill:#2B75A2;}
	.st43{fill:#AFC6D2;}
	.st44{fill:url(#SVGID_4_);}
	.st45{fill:#E9E8D8;}
	.st46{fill:#818277;}
	.st47{fill:#63665D;}
	.st48{fill:#B4B39A;}
	.st49{fill:url(#SVGID_5_);}
	.st50{fill:url(#SVGID_6_);}
	.st51{fill:url(#SVGID_7_);}
	.st52{fill:url(#SVGID_8_);}
	.st53{fill:url(#SVGID_9_);}
	.st54{fill:url(#SVGID_10_);}
	.st55{fill:#FFC20E;}
	.st56{fill:#916600;}
	.st57{fill:#A7BDC9;}
	.st58{fill:#8E2833;}
	.st59{fill:#721B25;}
	.st60{fill:#00547A;}
	.st61{fill:#F1F2F2;}
	.st62{fill:#6F6598;}
	.st63{fill:#4B436A;}
	.st64{fill:#F27129;}
	.st65{fill:#A57406;}
	.st66{fill:url(#SVGID_11_);}
	.st67{fill:url(#SVGID_12_);}
	.st68{fill:url(#SVGID_13_);}
	.st69{fill:url(#SVGID_14_);}
	.st70{fill:url(#SVGID_15_);}
	.st71{fill:url(#SVGID_16_);}
	.st72{fill:url(#SVGID_17_);}
	.st73{fill:url(#SVGID_18_);}
	.st74{fill:url(#SVGID_19_);}
	.st75{fill:url(#SVGID_20_);}
	.st76{fill:url(#SVGID_21_);}
	.st77{fill:url(#SVGID_22_);}
	.st78{fill:url(#SVGID_23_);}
	.st79{fill:url(#SVGID_24_);}
	.st80{fill:url(#SVGID_25_);}
	.st81{fill:url(#SVGID_26_);}
	.st82{fill:url(#SVGID_27_);}
	.st83{fill:url(#SVGID_28_);}
	.st84{fill:url(#SVGID_29_);}
	.st85{fill:url(#SVGID_30_);}
	.st86{fill:url(#SVGID_31_);}
	.st87{fill:url(#SVGID_32_);}
	.st88{fill:url(#SVGID_33_);}
	.st89{fill:url(#SVGID_34_);}
	.st90{fill:url(#SVGID_35_);}
	.st91{fill:url(#SVGID_36_);}
	.st92{fill:url(#SVGID_37_);}
	.st93{fill:url(#SVGID_38_);}
	.st94{fill:url(#SVGID_39_);}
	.st95{fill:url(#SVGID_40_);}
	.st96{fill:url(#SVGID_41_);}
	.st97{fill:url(#SVGID_42_);}
	.st98{fill:url(#SVGID_43_);}
	.st99{fill:url(#SVGID_44_);}
	.st100{fill:url(#SVGID_45_);}
	.st101{fill:url(#SVGID_46_);}
	.st102{fill:#F9F1D7;}
	.st103{fill:#6E7980;stroke:#58595B;stroke-width:0.4225;stroke-linecap:round;stroke-linejoin:round;}
	.st104{fill:#DF9CB0;}
	.st105{fill:#C37A8C;}
	.st106{fill:#C29F60;}
	.st107{fill:#FFFFFF;stroke:#D0ECF4;stroke-width:0.4225;}
	.st108{fill:url(#SVGID_47_);}
	.st109{fill:url(#SVGID_48_);}
	.st110{fill:url(#SVGID_49_);stroke:#FFFFFF;stroke-width:2.1123;}
	.st111{fill:#9F2214;}
	.st112{fill:url(#SVGID_50_);stroke:#FFFFFF;stroke-width:2.1123;}
	.st113{fill:#4A7195;}
	.st114{fill:#C13D2E;}
	.st115{fill:#7989A3;stroke:#FFFFFF;stroke-width:2.1123;}
	.st116{fill:#FFCF01;}
	.st117{fill:url(#SVGID_51_);stroke:#FFFFFF;stroke-width:2.1123;}
	.st118{fill:url(#SVGID_52_);stroke:#FFFFFF;stroke-width:2.1123;}
	.st119{fill:url(#SVGID_53_);stroke:#FFFFFF;stroke-width:2.1123;}
	.st120{fill:#876041;}
	.st121{fill:#DAC895;stroke:#F7E8BA;stroke-width:0.4225;}
	.st122{fill:#4B545B;}
	.st123{fill:#3E6D93;}
	.st124{fill:#476F93;}
	.st125{fill:#CAB47E;}
	.st126{fill:#F7E8BA;}
	.st127{fill:#C2A171;}
	.st128{fill:#D0ECF4;}
	.st129{fill:#EFE4AC;}
	.st130{fill:#5980A2;}
	.st131{fill:#17738F;}
	.st132{fill:#B1D45E;}
	.st133{fill:#8CC540;stroke:#221F1F;stroke-width:0.2168;stroke-linejoin:round;stroke-miterlimit:10;}
	.st134{fill:#58595B;}
	.st135{fill:#797A7D;}
	.st136{fill:#BF86A8;}
	.st137{fill:#302B2C;}
	.st138{fill:#48484A;}
	.st139{fill:#72A087;}
	.st140{fill:#94B0BE;}
	.st141{fill:#09723B;}
	.st142{fill:#00A14B;}
	.st143{fill:#004766;}
	.st144{fill:#00354F;}
	.st145{fill:#005B80;}
	.st146{fill:#002F3E;}
	.st147{fill:#3F4450;}
	.st148{fill:#2A6A7F;}
	.st149{fill:url(#SVGID_54_);}
	.st150{fill:#2C3038;}
	.st151{fill:#CACFD1;}
	.st152{fill:#343943;}
	.st153{fill:#27667A;}
	.st154{fill:none;stroke:#243129;stroke-width:0.3823;stroke-miterlimit:10;}
	.st155{fill:#333333;}
	.st156{fill:#E5E8DD;}
	.st157{fill:#767877;}
	.st158{fill:#545554;}
	.st159{fill:#F8E1C7;}
	.st160{fill:#5A5048;}
	.st161{fill:#604373;}
	.st162{fill:none;}
	.st163{fill:#9DB9C8;}
	.st164{fill:#235F83;}
	.st165{fill:#CF473A;}
	.st166{fill:#B4A680;}
	.st167{fill:url(#SVGID_55_);}
	.st168{fill:url(#SVGID_56_);}
	.st169{fill:url(#SVGID_57_);}
	.st170{fill:url(#SVGID_58_);}
	.st171{fill:url(#SVGID_59_);}
	.st172{fill:url(#SVGID_60_);}
	.st173{fill:url(#SVGID_61_);}
	.st174{fill:url(#SVGID_62_);}
	.st175{fill:url(#SVGID_63_);}
	.st176{fill:url(#SVGID_64_);}
	.st177{fill:url(#SVGID_65_);}
	.st178{fill:url(#SVGID_66_);}
	.st179{fill:url(#SVGID_67_);}
	.st180{fill:url(#SVGID_68_);}
	.st181{fill:url(#SVGID_69_);}
	.st182{fill:url(#SVGID_70_);}
	.st183{fill:url(#SVGID_71_);}
	.st184{fill:url(#SVGID_72_);}
	.st185{fill:url(#SVGID_73_);}
	.st186{fill:url(#SVGID_74_);}
	.st187{fill:url(#SVGID_75_);}
	.st188{fill:url(#SVGID_76_);}
	.st189{fill:url(#SVGID_77_);}
	.st190{fill:url(#SVGID_78_);}
	.st191{fill:url(#SVGID_79_);}
	.st192{fill:url(#SVGID_80_);}
	.st193{fill:url(#SVGID_81_);}
	.st194{fill:url(#SVGID_82_);}
	.st195{fill:url(#SVGID_83_);}
	.st196{fill:url(#SVGID_84_);}
	.st197{fill:url(#SVGID_85_);}
	.st198{fill:url(#SVGID_86_);}
	.st199{fill:url(#SVGID_87_);}
	.st200{fill:url(#SVGID_88_);}
	.st201{fill:url(#SVGID_89_);}
	.st202{fill:url(#SVGID_90_);}
	.st203{fill:url(#SVGID_91_);}
	.st204{fill:url(#SVGID_92_);}
	.st205{fill:url(#SVGID_93_);}
	.st206{fill:url(#SVGID_94_);}
	.st207{fill:url(#SVGID_95_);}
	.st208{fill:url(#SVGID_96_);}
	.st209{fill:url(#SVGID_97_);}
	.st210{fill:url(#SVGID_98_);}
	.st211{fill:url(#SVGID_99_);}
	.st212{fill:url(#SVGID_100_);}
	.st213{fill:url(#SVGID_101_);}
	.st214{fill:url(#SVGID_102_);}
	.st215{fill:url(#SVGID_103_);}
	.st216{fill:url(#SVGID_104_);}
	.st217{fill:url(#SVGID_105_);}
	.st218{fill:url(#SVGID_106_);}
	.st219{fill:url(#SVGID_107_);}
	.st220{fill:url(#SVGID_108_);}
	.st221{fill:url(#SVGID_109_);}
	.st222{fill:url(#SVGID_110_);}
	.st223{fill:url(#SVGID_111_);}
	.st224{fill:url(#SVGID_112_);}
	.st225{fill:url(#SVGID_113_);}
	.st226{fill:url(#SVGID_114_);}
	.st227{fill:url(#SVGID_115_);}
	.st228{fill:url(#SVGID_116_);}
	.st229{fill:url(#SVGID_117_);}
	.st230{fill:url(#SVGID_118_);}
	.st231{fill:url(#SVGID_119_);}
	.st232{fill:url(#SVGID_120_);}
	.st233{fill:url(#SVGID_121_);}
	.st234{fill:url(#SVGID_122_);}
	.st235{fill:#F7D9A8;}
	.st236{fill:#EE93B9;}
</style>
<circle class="st12" cx="143" cy="143" r="143"/>
<g>
	<path class="st7" d="M47.9,208.3L45,198h-0.1c0.1,1.8,0.2,3.1,0.2,4.1v6.2h-3.4v-14.3h5.1l3,10.1h0.1l2.9-10.1H58v14.3h-3.5v-6.3
		c0-0.3,0-0.7,0-1.1s0.1-1.4,0.1-2.9h-0.1l-2.9,10.3H47.9z"/>
	<path class="st7" d="M66.2,208.5c-1.8,0-3.3-0.5-4.3-1.5c-1-1-1.5-2.4-1.5-4.2c0-1.9,0.5-3.3,1.4-4.3c0.9-1,2.3-1.5,4-1.5
		c1.7,0,3,0.4,3.9,1.3s1.4,2.1,1.4,3.8v1.7h-6.8c0,0.6,0.3,1.1,0.7,1.5c0.4,0.4,1,0.5,1.7,0.5c0.7,0,1.3-0.1,1.9-0.2
		c0.6-0.1,1.2-0.3,1.8-0.6v2.7c-0.6,0.3-1.2,0.5-1.9,0.6C67.8,208.5,67,208.5,66.2,208.5z M65.9,199.7c-0.4,0-0.8,0.1-1.1,0.4
		s-0.5,0.7-0.5,1.3h3.3c0-0.5-0.2-1-0.5-1.3C66.8,199.8,66.4,199.7,65.9,199.7z"/>
	<path class="st7" d="M76.6,208.5c-0.8,0-1.5-0.2-2.1-0.7c-0.6-0.4-1-1.1-1.4-2s-0.5-1.9-0.5-3.1c0-1.8,0.4-3.2,1.1-4.2
		s1.7-1.5,3-1.5c0.6,0,1.2,0.1,1.6,0.4c0.5,0.2,0.9,0.7,1.3,1.2h0.1c-0.1-0.9-0.2-1.7-0.2-2.6v-3h3.8v15.2h-2.9l-0.8-1.4h-0.1
		C78.9,208,77.9,208.5,76.6,208.5z M78.2,205.5c0.6,0,1-0.2,1.3-0.6c0.2-0.4,0.4-1,0.4-1.8v-0.3c0-1-0.1-1.7-0.4-2.1
		c-0.3-0.4-0.7-0.6-1.3-0.6c-0.5,0-0.9,0.2-1.2,0.7c-0.3,0.5-0.4,1.1-0.4,2c0,0.9,0.1,1.5,0.4,2C77.3,205.3,77.7,205.5,78.2,205.5z"
		/>
	<path class="st7" d="M86,194.5c0-0.6,0.2-1,0.5-1.3c0.3-0.3,0.8-0.4,1.5-0.4c0.7,0,1.2,0.1,1.6,0.4c0.3,0.3,0.5,0.7,0.5,1.3
		c0,1.1-0.7,1.7-2,1.7C86.6,196.2,86,195.6,86,194.5z M89.9,208.3h-3.8v-11.1h3.8V208.3z"/>
	<path class="st7" d="M97.6,208.5c-1.8,0-3.2-0.5-4.1-1.5c-0.9-1-1.4-2.4-1.4-4.2c0-1.8,0.5-3.3,1.5-4.3c1-1,2.4-1.5,4.3-1.5
		c1.3,0,2.5,0.3,3.6,0.8l-1.1,2.8c-0.5-0.2-0.9-0.4-1.3-0.5s-0.8-0.2-1.2-0.2c-0.6,0-1.1,0.2-1.4,0.7c-0.3,0.5-0.5,1.2-0.5,2
		c0,1.8,0.7,2.7,2,2.7c1.1,0,2.2-0.3,3.2-1v3C100.2,208.2,99,208.5,97.6,208.5z"/>
	<path class="st7" d="M110.5,208.3l-0.7-1.5h-0.1c-0.5,0.6-1,1.1-1.6,1.3c-0.5,0.2-1.2,0.4-2.1,0.4c-1,0-1.9-0.3-2.5-0.9
		c-0.6-0.6-0.9-1.5-0.9-2.6c0-1.2,0.4-2.1,1.2-2.6s2-0.9,3.6-1l1.8-0.1v-0.2c0-0.9-0.4-1.4-1.3-1.4c-0.8,0-1.8,0.3-3.1,0.8l-1.1-2.5
		c1.3-0.7,2.9-1,4.9-1c1.4,0,2.5,0.4,3.3,1.1c0.8,0.7,1.2,1.7,1.2,2.9v7.3H110.5z M107.7,205.8c0.5,0,0.9-0.1,1.2-0.4
		c0.3-0.3,0.5-0.7,0.5-1.1v-0.9l-0.9,0c-1.3,0-1.9,0.5-1.9,1.4C106.6,205.5,107,205.8,107.7,205.8z"/>
	<path class="st7" d="M122.5,197.1c0.3,0,0.6,0,0.9,0.1l0.2,0l-0.3,3.6c-0.3-0.1-0.7-0.1-1.3-0.1c-0.8,0-1.4,0.2-1.8,0.6
		c-0.4,0.4-0.6,0.9-0.6,1.6v5.4h-3.8v-11.1h2.8l0.6,1.8h0.2c0.3-0.6,0.8-1.1,1.3-1.4C121.3,197.3,121.9,197.1,122.5,197.1z"/>
	<path class="st7" d="M130.5,208.5c-1.8,0-3.3-0.5-4.3-1.5c-1-1-1.5-2.4-1.5-4.2c0-1.9,0.5-3.3,1.4-4.3c0.9-1,2.3-1.5,4-1.5
		c1.7,0,3,0.4,3.9,1.3s1.4,2.1,1.4,3.8v1.7h-6.8c0,0.6,0.3,1.1,0.7,1.5c0.4,0.4,1,0.5,1.7,0.5c0.7,0,1.3-0.1,1.9-0.2
		c0.6-0.1,1.2-0.3,1.8-0.6v2.7c-0.6,0.3-1.2,0.5-1.9,0.6C132.2,208.5,131.4,208.5,130.5,208.5z M130.3,199.7c-0.4,0-0.8,0.1-1.1,0.4
		s-0.5,0.7-0.5,1.3h3.3c0-0.5-0.2-1-0.5-1.3C131.2,199.8,130.8,199.7,130.3,199.7z"/>
	<path class="st7" d="M150,208.3l-0.7-1.5h-0.1c-0.5,0.6-1,1.1-1.6,1.3c-0.5,0.2-1.2,0.4-2.1,0.4c-1,0-1.9-0.3-2.5-0.9
		c-0.6-0.6-0.9-1.5-0.9-2.6c0-1.2,0.4-2.1,1.2-2.6s2-0.9,3.6-1l1.8-0.1v-0.2c0-0.9-0.4-1.4-1.3-1.4c-0.8,0-1.8,0.3-3.1,0.8l-1.1-2.5
		c1.3-0.7,2.9-1,4.9-1c1.4,0,2.5,0.4,3.3,1.1c0.8,0.7,1.2,1.7,1.2,2.9v7.3H150z M147.1,205.8c0.5,0,0.9-0.1,1.2-0.4
		c0.3-0.3,0.5-0.7,0.5-1.1v-0.9l-0.9,0c-1.3,0-1.9,0.5-1.9,1.4C146,205.5,146.4,205.8,147.1,205.8z"/>
	<path class="st7" d="M162.2,208.3v-6c0-0.7-0.1-1.3-0.3-1.7c-0.2-0.4-0.6-0.6-1-0.6c-0.6,0-1.1,0.3-1.4,0.8
		c-0.3,0.5-0.4,1.4-0.4,2.6v4.8h-3.8v-11.1h2.9l0.5,1.4h0.2c0.3-0.5,0.8-0.9,1.4-1.2s1.2-0.4,2-0.4c1.2,0,2.2,0.4,2.9,1.1
		c0.7,0.7,1,1.7,1,3v7.2H162.2z"/>
	<path class="st7" d="M172,208.5c-0.8,0-1.5-0.2-2.1-0.7c-0.6-0.4-1-1.1-1.4-2s-0.5-1.9-0.5-3.1c0-1.8,0.4-3.2,1.1-4.2
		s1.7-1.5,3-1.5c0.6,0,1.2,0.1,1.6,0.4c0.5,0.2,0.9,0.7,1.3,1.2h0.1c-0.1-0.9-0.2-1.7-0.2-2.6v-3h3.8v15.2h-2.9l-0.8-1.4H175
		C174.3,208,173.3,208.5,172,208.5z M173.6,205.5c0.6,0,1-0.2,1.3-0.6c0.2-0.4,0.4-1,0.4-1.8v-0.3c0-1-0.1-1.7-0.4-2.1
		c-0.3-0.4-0.7-0.6-1.3-0.6c-0.5,0-0.9,0.2-1.2,0.7c-0.3,0.5-0.4,1.1-0.4,2c0,0.9,0.1,1.5,0.4,2
		C172.7,205.3,173.1,205.5,173.6,205.5z"/>
	<path class="st7" d="M196.2,204c0,0.9-0.2,1.7-0.7,2.4s-1.1,1.2-1.9,1.6c-0.8,0.4-1.8,0.6-3,0.6c-1,0-1.7-0.1-2.4-0.2
		s-1.3-0.4-2-0.7v-3.4c0.7,0.4,1.5,0.7,2.3,0.9c0.8,0.2,1.5,0.3,2.2,0.3c0.6,0,1-0.1,1.3-0.3c0.3-0.2,0.4-0.5,0.4-0.8
		c0-0.2-0.1-0.4-0.2-0.5s-0.3-0.3-0.5-0.4c-0.2-0.1-0.9-0.5-1.9-0.9c-0.9-0.4-1.6-0.8-2.1-1.2c-0.5-0.4-0.8-0.9-1-1.4
		s-0.3-1.1-0.3-1.8c0-1.3,0.5-2.3,1.4-3.1s2.3-1.1,3.9-1.1c1.5,0,3,0.3,4.5,1l-1.2,3c-1.3-0.6-2.5-0.9-3.5-0.9
		c-0.5,0-0.9,0.1-1.1,0.3c-0.2,0.2-0.3,0.4-0.3,0.7c0,0.3,0.1,0.5,0.4,0.8c0.3,0.2,1.1,0.6,2.4,1.2c1.2,0.6,2.1,1.1,2.6,1.8
		S196.2,203,196.2,204z"/>
	<path class="st7" d="M208.8,202.8c0,1.8-0.5,3.2-1.5,4.2c-1,1-2.3,1.5-4.1,1.5c-1.7,0-3-0.5-4-1.6c-1-1-1.5-2.4-1.5-4.2
		c0-1.8,0.5-3.2,1.5-4.2c1-1,2.3-1.5,4.1-1.5c1.1,0,2,0.2,2.9,0.7c0.8,0.5,1.5,1.1,1.9,2C208.5,200.6,208.8,201.6,208.8,202.8z
		 M201.6,202.8c0,1,0.1,1.7,0.4,2.2s0.7,0.7,1.3,0.7c0.6,0,1-0.2,1.3-0.7s0.4-1.2,0.4-2.2c0-0.9-0.1-1.7-0.4-2.1
		c-0.2-0.5-0.7-0.7-1.3-0.7c-0.6,0-1,0.2-1.3,0.7S201.6,201.8,201.6,202.8z"/>
	<path class="st7" d="M216,208.5c-1.8,0-3.2-0.5-4.1-1.5c-0.9-1-1.4-2.4-1.4-4.2c0-1.8,0.5-3.3,1.5-4.3c1-1,2.4-1.5,4.3-1.5
		c1.3,0,2.5,0.3,3.6,0.8l-1.1,2.8c-0.5-0.2-0.9-0.4-1.3-0.5s-0.8-0.2-1.2-0.2c-0.6,0-1.1,0.2-1.4,0.7c-0.3,0.5-0.5,1.2-0.5,2
		c0,1.8,0.7,2.7,2,2.7c1.1,0,2.2-0.3,3.2-1v3C218.5,208.2,217.4,208.5,216,208.5z"/>
	<path class="st7" d="M221.6,194.5c0-0.6,0.2-1,0.5-1.3c0.3-0.3,0.8-0.4,1.5-0.4c0.7,0,1.2,0.1,1.6,0.4c0.3,0.3,0.5,0.7,0.5,1.3
		c0,1.1-0.7,1.7-2,1.7C222.3,196.2,221.6,195.6,221.6,194.5z M225.6,208.3h-3.8v-11.1h3.8V208.3z"/>
	<path class="st7" d="M235.4,208.3l-0.7-1.5h-0.1c-0.5,0.6-1,1.1-1.6,1.3c-0.5,0.2-1.2,0.4-2.1,0.4c-1,0-1.9-0.3-2.5-0.9
		c-0.6-0.6-0.9-1.5-0.9-2.6c0-1.2,0.4-2.1,1.2-2.6s2-0.9,3.6-1l1.8-0.1v-0.2c0-0.9-0.4-1.4-1.3-1.4c-0.8,0-1.8,0.3-3.1,0.8l-1.1-2.5
		c1.3-0.7,2.9-1,4.9-1c1.4,0,2.5,0.4,3.3,1.1c0.8,0.7,1.2,1.7,1.2,2.9v7.3H235.4z M232.6,205.8c0.5,0,0.9-0.1,1.2-0.4
		c0.3-0.3,0.5-0.7,0.5-1.1v-0.9l-0.9,0c-1.3,0-1.9,0.5-1.9,1.4C231.5,205.5,231.9,205.8,232.6,205.8z"/>
	<path class="st7" d="M244.5,208.3h-3.8v-15.2h3.8V208.3z"/>
	<path class="st7" d="M63.4,228c0,0.9-0.2,1.7-0.7,2.4s-1.1,1.2-1.9,1.6c-0.8,0.4-1.8,0.6-3,0.6c-1,0-1.7-0.1-2.4-0.2
		s-1.3-0.4-2-0.7v-3.4c0.7,0.4,1.5,0.7,2.3,0.9c0.8,0.2,1.5,0.3,2.2,0.3c0.6,0,1-0.1,1.3-0.3c0.3-0.2,0.4-0.5,0.4-0.8
		c0-0.2-0.1-0.4-0.2-0.5s-0.3-0.3-0.5-0.4c-0.2-0.1-0.9-0.5-1.9-0.9c-0.9-0.4-1.6-0.8-2.1-1.2c-0.5-0.4-0.8-0.9-1-1.4
		s-0.3-1.1-0.3-1.8c0-1.3,0.5-2.3,1.4-3.1s2.3-1.1,3.9-1.1c1.5,0,3,0.3,4.5,1l-1.2,3c-1.3-0.6-2.5-0.9-3.5-0.9
		c-0.5,0-0.9,0.1-1.1,0.3c-0.2,0.2-0.3,0.4-0.3,0.7c0,0.3,0.1,0.5,0.4,0.8c0.3,0.2,1.1,0.6,2.4,1.2c1.2,0.6,2.1,1.1,2.6,1.8
		S63.4,227,63.4,228z"/>
	<path class="st7" d="M70.7,232.5c-1.8,0-3.3-0.5-4.3-1.5c-1-1-1.5-2.4-1.5-4.2c0-1.9,0.5-3.3,1.4-4.3c0.9-1,2.3-1.5,4-1.5
		c1.7,0,3,0.4,3.9,1.3s1.4,2.1,1.4,3.8v1.7h-6.8c0,0.6,0.3,1.1,0.7,1.5c0.4,0.4,1,0.5,1.7,0.5c0.7,0,1.3-0.1,1.9-0.2
		c0.6-0.1,1.2-0.3,1.8-0.6v2.7c-0.6,0.3-1.2,0.5-1.9,0.6C72.4,232.5,71.6,232.5,70.7,232.5z M70.5,223.7c-0.4,0-0.8,0.1-1.1,0.4
		s-0.5,0.7-0.5,1.3h3.3c0-0.5-0.2-1-0.5-1.3C71.4,223.8,71,223.7,70.5,223.7z"/>
	<path class="st7" d="M82.8,232.5c-1.8,0-3.2-0.5-4.1-1.5c-0.9-1-1.4-2.4-1.4-4.2c0-1.8,0.5-3.3,1.5-4.3c1-1,2.4-1.5,4.3-1.5
		c1.3,0,2.5,0.3,3.6,0.8l-1.1,2.8c-0.5-0.2-0.9-0.4-1.3-0.5s-0.8-0.2-1.2-0.2c-0.6,0-1.1,0.2-1.4,0.7c-0.3,0.5-0.5,1.2-0.5,2
		c0,1.8,0.7,2.7,2,2.7c1.1,0,2.2-0.3,3.2-1v3C85.4,232.2,84.2,232.5,82.8,232.5z"/>
	<path class="st7" d="M96.4,232.3l-0.5-1.4h-0.2c-0.3,0.5-0.8,0.9-1.3,1.2c-0.6,0.3-1.2,0.4-2,0.4c-1.2,0-2.2-0.4-2.8-1.1
		c-0.7-0.7-1-1.7-1-3v-7.2h3.8v6c0,0.7,0.1,1.3,0.3,1.6s0.5,0.6,1,0.6c0.7,0,1.1-0.3,1.4-0.8c0.3-0.5,0.4-1.4,0.4-2.6v-4.8h3.8v11.1
		H96.4z"/>
	<path class="st7" d="M108.6,221.1c0.3,0,0.6,0,0.9,0.1l0.2,0l-0.3,3.6c-0.3-0.1-0.7-0.1-1.3-0.1c-0.8,0-1.4,0.2-1.8,0.6
		c-0.4,0.4-0.6,0.9-0.6,1.6v5.4h-3.8v-11.1h2.8l0.6,1.8h0.2c0.3-0.6,0.8-1.1,1.3-1.4C107.5,221.3,108,221.1,108.6,221.1z"/>
	<path class="st7" d="M111.2,218.5c0-0.6,0.2-1,0.5-1.3c0.3-0.3,0.8-0.4,1.5-0.4c0.7,0,1.2,0.1,1.6,0.4c0.3,0.3,0.5,0.7,0.5,1.3
		c0,1.1-0.7,1.7-2,1.7C111.9,220.2,111.2,219.6,111.2,218.5z M115.2,232.3h-3.8v-11.1h3.8V232.3z"/>
	<path class="st7" d="M123.2,229.5c0.5,0,1.1-0.1,1.8-0.4v2.8c-0.5,0.2-1,0.4-1.5,0.5c-0.5,0.1-1,0.1-1.6,0.1
		c-1.3,0-2.2-0.3-2.8-0.9s-0.8-1.6-0.8-2.9v-4.6H117v-1.6l1.7-1.2l1-2.3h2.5v2.2h2.7v2.9h-2.7v4.3
		C122.2,229.2,122.5,229.5,123.2,229.5z"/>
	<path class="st7" d="M125.7,221.3h4l1.9,6.3c0.1,0.3,0.2,0.7,0.2,1.2h0.1c0.1-0.4,0.1-0.8,0.2-1.2l1.9-6.4h3.9l-4.4,11.8
		c-0.6,1.5-1.2,2.6-2.1,3.2c-0.8,0.6-1.9,0.9-3.2,0.9c-0.5,0-1-0.1-1.6-0.2v-3c0.3,0.1,0.7,0.1,1.2,0.1c0.3,0,0.6-0.1,0.9-0.2
		s0.5-0.3,0.7-0.6c0.2-0.2,0.4-0.6,0.6-1.2L125.7,221.3z"/>
	<path class="st7" d="M155,222.6c0,1.6-0.5,2.8-1.4,3.7c-0.9,0.9-2.3,1.3-4,1.3h-1.1v4.7h-3.9v-14.3h4.9c1.8,0,3.2,0.4,4.1,1.2
		C154.5,220,155,221.1,155,222.6z M148.5,224.5h0.7c0.6,0,1-0.2,1.4-0.5s0.5-0.8,0.5-1.3c0-1-0.5-1.4-1.6-1.4h-1V224.5z"/>
	<path class="st7" d="M160.9,232.3H157v-15.2h3.8V232.3z"/>
	<path class="st7" d="M170.7,232.3l-0.7-1.5h-0.1c-0.5,0.6-1,1.1-1.6,1.3c-0.5,0.2-1.2,0.4-2.1,0.4c-1,0-1.9-0.3-2.5-0.9
		c-0.6-0.6-0.9-1.5-0.9-2.6c0-1.2,0.4-2.1,1.2-2.6s2-0.9,3.6-1l1.8-0.1v-0.2c0-0.9-0.4-1.4-1.3-1.4c-0.8,0-1.8,0.3-3.1,0.8l-1.1-2.5
		c1.3-0.7,2.9-1,4.9-1c1.4,0,2.5,0.4,3.3,1.1c0.8,0.7,1.2,1.7,1.2,2.9v7.3H170.7z M167.9,229.8c0.5,0,0.9-0.1,1.2-0.4
		c0.3-0.3,0.5-0.7,0.5-1.1v-0.9l-0.9,0c-1.3,0-1.9,0.5-1.9,1.4C166.8,229.5,167.2,229.8,167.9,229.8z"/>
	<path class="st7" d="M183,232.3v-6c0-0.7-0.1-1.3-0.3-1.7c-0.2-0.4-0.6-0.6-1-0.6c-0.6,0-1.1,0.3-1.4,0.8c-0.3,0.5-0.4,1.4-0.4,2.6
		v4.8H176v-11.1h2.9l0.5,1.4h0.2c0.3-0.5,0.8-0.9,1.4-1.2s1.2-0.4,2-0.4c1.2,0,2.2,0.4,2.9,1.1c0.7,0.7,1,1.7,1,3v7.2H183z"/>
	<path class="st7" d="M196.4,232.3v-6c0-0.7-0.1-1.3-0.3-1.7c-0.2-0.4-0.6-0.6-1-0.6c-0.6,0-1.1,0.3-1.4,0.8
		c-0.3,0.5-0.4,1.4-0.4,2.6v4.8h-3.8v-11.1h2.9l0.5,1.4h0.2c0.3-0.5,0.8-0.9,1.4-1.2s1.2-0.4,2-0.4c1.2,0,2.2,0.4,2.9,1.1
		c0.7,0.7,1,1.7,1,3v7.2H196.4z"/>
	<path class="st7" d="M202.7,218.5c0-0.6,0.2-1,0.5-1.3c0.3-0.3,0.8-0.4,1.5-0.4c0.7,0,1.2,0.1,1.6,0.4c0.3,0.3,0.5,0.7,0.5,1.3
		c0,1.1-0.7,1.7-2,1.7C203.4,220.2,202.7,219.6,202.7,218.5z M206.6,232.3h-3.8v-11.1h3.8V232.3z"/>
	<path class="st7" d="M216.3,232.3v-6c0-0.7-0.1-1.3-0.3-1.7c-0.2-0.4-0.6-0.6-1-0.6c-0.6,0-1.1,0.3-1.4,0.8
		c-0.3,0.5-0.4,1.4-0.4,2.6v4.8h-3.8v-11.1h2.9l0.5,1.4h0.2c0.3-0.5,0.8-0.9,1.4-1.2s1.2-0.4,2-0.4c1.2,0,2.2,0.4,2.9,1.1
		c0.7,0.7,1,1.7,1,3v7.2H216.3z"/>
	<path class="st7" d="M233.1,221.3v1.8l-1.5,0.6c0.2,0.4,0.3,0.8,0.3,1.3c0,1.2-0.4,2.1-1.3,2.8c-0.8,0.7-2.1,1-3.7,1
		c-0.4,0-0.7,0-1-0.1c-0.1,0.2-0.1,0.3-0.1,0.5c0,0.2,0.2,0.3,0.5,0.4c0.3,0.1,0.7,0.2,1.2,0.2h1.8c2.5,0,3.7,1,3.7,3.1
		c0,1.3-0.6,2.4-1.7,3.1c-1.1,0.7-2.8,1.1-4.8,1.1c-1.6,0-2.8-0.3-3.6-0.8s-1.3-1.3-1.3-2.3c0-1.3,0.8-2.2,2.5-2.6
		c-0.3-0.1-0.6-0.4-0.9-0.7c-0.3-0.3-0.4-0.6-0.4-0.9c0-0.3,0.1-0.6,0.3-0.9c0.2-0.3,0.6-0.6,1.2-0.9c-0.6-0.3-1-0.7-1.4-1.2
		c-0.3-0.5-0.5-1.2-0.5-2c0-1.2,0.4-2.1,1.2-2.8s2-1,3.5-1c0.2,0,0.5,0,1,0.1c0.5,0,0.9,0.1,1.1,0.1H233.1z M224.8,233.7
		c0,0.3,0.2,0.6,0.5,0.8c0.3,0.2,0.8,0.3,1.4,0.3c0.9,0,1.7-0.1,2.2-0.3s0.8-0.5,0.8-0.9c0-0.3-0.2-0.5-0.5-0.6
		c-0.3-0.1-0.8-0.2-1.5-0.2h-1.5c-0.4,0-0.8,0.1-1,0.3S224.8,233.4,224.8,233.7z M226,224.9c0,1.1,0.4,1.7,1.2,1.7
		c0.4,0,0.6-0.1,0.8-0.4c0.2-0.3,0.3-0.7,0.3-1.3c0-1.1-0.4-1.7-1.1-1.7C226.4,223.2,226,223.8,226,224.9z"/>
</g>
<g>
	<g>
		<g>
			<g>
				<polygon class="st5" points="96.6,77.5 101.4,82.2 98.8,82.6 101.2,92.7 86.6,94.1 87.7,75 95.5,74.2 				"/>
				<path d="M97.1,81.6c-0.5,0-1-0.3-1.2-0.8c0-0.1,0-0.1,0.1-0.2c0.1,0,0.1,0,0.2,0.1c0.2,0.5,0.7,0.7,1,0.7c0.2,0,0.4-0.1,0.5-0.5
					c0-0.1,0.1-0.1,0.1-0.1c0.1,0,0.1,0.1,0.1,0.1C97.9,81.3,97.6,81.6,97.1,81.6C97.2,81.6,97.2,81.6,97.1,81.6z"/>
				<path d="M97,86.2c0.8,0,2.1,0.8,2.4,1.7c0,0.1,0,0.1-0.1,0.2c-0.1,0-0.1,0-0.2-0.1c-0.3-0.8-1.6-1.6-2.3-1.5
					c-0.1,0-0.1,0-0.1-0.1C96.8,86.3,96.8,86.2,97,86.2C96.9,86.2,97,86.2,97,86.2z"/>
				<g>
					<path class="st30" d="M86.6,74.5l0.3,15.3H94l0.5-4.8c0,0-0.1,0-0.1,0c-0.8,0-1.5-0.7-1.5-1.5c0-0.8,0.7-1.5,1.5-1.5
						c0.1,0,0.3,0,0.4,0.1l0.4-4.5l1.4-0.2l2.2-4.2L86.6,74.5z"/>
				</g>
			</g>
			<g>
				<path class="st26" d="M101.3,92.6c5.8,3.2,11.5,15.1,9.6,31.5h-2.3c0.5-7.5-0.3-20.6-9.8-25L101.3,92.6z"/>
				<path class="st5" d="M108.7,124.1c-0.6,0.3-2.1,0.5-1.9,1.2c0.1,0.5,0.6,0.5,1.6,0.2c0.1,0.9-1,2.3,0.2,2.4c1.4,0.1,2,0.1,2,0.1
					c1,0,1.2-2.8,0.1-3.8H108.7z"/>
				<path class="st26" d="M86.7,92.6c-3.8,6.6-2.5,25,0.7,35.8h14c0.3-11,0.6-26.5,0-35.8H86.7z"/>
				<polygon class="st26" points="101.4,127.9 101,169.9 94.3,169.9 98.1,166.4 94.2,128.3 98.9,125.2 				"/>
				<polygon class="st26" points="94.5,128.3 94.4,169.9 87.7,169.9 91.5,166.4 87.2,127.8 92.3,125.2 				"/>
				<path class="st5" d="M110.8,126.7c-0.7,0-0.4-0.8-1-0.8c-0.6,0-1.9-0.1-2.1,0.2c-0.2,0.4-0.1,1.7,0.8,1.8c1.2,0.1,1.5,0.1,2,0.1
					C111,127.9,110.8,127.3,110.8,126.7z"/>
				<g>
					<path class="st3" d="M84.6,112.6c2.9-4.4,5.4-9.3,7.3-13.9c1.7-3.5-3.9-7.3-5.5-2c-0.6,2.2-1.3,4.3-2,6.3
						C84.3,106,84.3,109.2,84.6,112.6z"/>
				</g>
				<path class="st5" d="M71.2,121.8l-0.9-0.1c-0.7,0.4-2.8,0.2-2.9,0.8c-0.1,0.6,0.6,0.4,1.2,0.3c-1.1,0.9-2.1,0.6-2.2,1.6
					c0,0.4,1.3,1.9,2,1.6c1.4-0.5,2.1-1.2,3.1-2.2l0.5-1.1L71.2,121.8z"/>
				<path class="st26" d="M85.4,95.7c-3.7,13.2-8.5,22.3-15.1,25.9l1.1,2.2c8.5-4.5,15.3-16.1,19.5-26.1
					C92.6,94.2,87,90.3,85.4,95.7z"/>
			</g>
		</g>
		<g>
			<path class="st7" d="M91.3,63.1l-0.1-0.9c-0.2-1.8,0.4-3.8,2.1-5.8c1.5-1.8,2.4-3.1,2.4-4.6c0-1.7-1.1-2.9-3.2-2.9
				c-1.2,0-2.6,0.4-3.4,1l-0.8-2.1c1.1-0.8,3-1.3,4.8-1.3c3.9,0,5.6,2.4,5.6,5c0,2.3-1.3,3.9-2.9,5.9c-1.5,1.8-2,3.2-1.9,5l0,0.9
				H91.3z M90.6,67.8c0-1.2,0.8-2.1,2-2.1s2,0.9,2,2.1c0,1.2-0.8,2.1-2,2.1C91.4,69.9,90.6,69,90.6,67.8z"/>
		</g>
	</g>
	<g>
		<g>
			<path class="st5" d="M186.9,74.1l0.6-0.4c0.5-1.1,0.8-1.8,1-2.3c0.2-0.4-0.5-1-1,0.5c0.3-1.1,1.3-2.2,0.5-2.6
				c-0.7-0.4-2.1-0.8-2.5,1c-0.2,1.3-0.3,2.4-0.2,3l0.6,1L186.9,74.1z"/>
			<path class="st147" d="M194.6,104.9c-5.6-4.5-11.6-20.6-9.4-31.6l2.3,0.3c-0.5,6.6,0.6,18.1,10.4,25.9
				C200.7,102.3,196.8,106.8,194.6,104.9z"/>
		</g>
		<g>
			<g>
				<g>
					<polygon class="st5" points="203.7,94 205.1,85.2 208.3,84.6 202.6,74.2 191.6,75.2 193.7,94.9 					"/>
					<path class="st30" d="M204.4,73.7c0.2,4-5.1,5.2-7.8,4.8l-2.1,8.9l-1.6,0.1l-2.2-13.4L204.4,73.7z"/>
					
						<ellipse transform="matrix(0.9959 -9.059171e-02 9.059171e-02 0.9959 -6.6949 18.0526)" class="st5" cx="195.5" cy="82.8" rx="1.9" ry="1.9"/>
					<path class="st27" d="M199,89.2c-0.1,0-0.2,0.1-0.3,0.1l0.1,0.3c1.2-0.6,3-0.7,4.2,0.3l0.2-0.2C202,88.7,200.2,88.7,199,89.2z"
						/>
					
						<rect x="200.3" y="79.8" transform="matrix(0.3214 -0.9469 0.9469 0.3214 58.6332 245.3511)" class="st27" width="0.4" height="3.8"/>
				</g>
				<polygon class="st7" points="203.8,94.5 211.3,117.4 210,122.5 206.4,118.4 201.9,94.9 				"/>
				<polygon class="st147" points="192.6,129.2 190.9,169.8 197.6,169.8 193.8,166.3 200,129 195.8,124.8 				"/>
				<polygon class="st147" points="199.6,129.2 202.6,169.8 209.4,169.8 205.5,166.3 207,129 202.8,124.8 				"/>
				<path class="st147" d="M193.6,94.1h10c0,0,6.2,11.8,6.2,36.8h-18.3C191.7,114.1,192.3,103.1,193.6,94.1z"/>
			</g>
			<g>
				<path class="st7" d="M196.7,63.2l-0.1-0.9c-0.2-1.8,0.4-3.8,2.1-5.8c1.5-1.8,2.4-3.1,2.4-4.6c0-1.7-1.1-2.9-3.2-2.9
					c-1.2,0-2.6,0.4-3.4,1l-0.8-2.1c1.1-0.8,3-1.3,4.8-1.3c3.9,0,5.6,2.4,5.6,5c0,2.3-1.3,3.9-2.9,5.9c-1.5,1.8-2,3.2-1.9,5l0,0.9
					H196.7z M196,68c0-1.2,0.8-2.1,2-2.1c1.2,0,2,0.9,2,2.1c0,1.2-0.8,2.1-2,2.1C196.8,70,196,69.1,196,68z"/>
			</g>
		</g>
		<g>
			<path class="st150" d="M200.8,99.6c-2.7-0.2-1.6,6.3,3,4.4c6.6-3.5,5.4-3.2,5.4-3.2s-2.5-1.7-3.4-2.7
				C203.9,104,205.7,100,200.8,99.6z"/>
		</g>
		<g>
			<path class="st5" d="M215.3,77.2c0.1-0.8-0.4-3.5,0.2-3.5c0.4,0,0.4,0.2,0.6,1c0.5-1,1.3-1.8,2.1-0.8c0.8,1.1,1,1.6,1,1.6
				c0.3,1-1.2,0.3-2,2.1L215.3,77.2z"/>
			<path class="st147" d="M199.9,99.5c12.3-3.9,15.1-18.2,15.4-22.5l1.9,0.5c1.3,13.4-7.1,22.6-14.3,26.4
				C198.4,105.8,197.3,100.4,199.9,99.5z"/>
		</g>
	</g>
</g>
<g>
	<g>
		<g>
			<g>
				<g>
					<path class="st7" d="M146.2,66l-0.1-0.9c-0.2-1.8,0.4-3.8,2.1-5.8c1.5-1.8,2.4-3.1,2.4-4.6c0-1.7-1.1-2.9-3.2-2.9
						c-1.2,0-2.6,0.4-3.4,1l-0.8-2.1c1.1-0.8,3-1.3,4.8-1.3c3.9,0,5.6,2.4,5.6,5c0,2.3-1.3,3.9-2.9,5.9c-1.5,1.8-2,3.2-1.9,5l0,0.9
						H146.2z M145.5,70.7c0-1.2,0.8-2.1,2-2.1c1.2,0,2,0.9,2,2.1c0,1.2-0.8,2.1-2,2.1C146.3,72.8,145.5,71.9,145.5,70.7z"/>
				</g>
				<g>
					<path class="st5" d="M156.7,125.2c-0.1,0.6-0.5,1.4-0.8,2.1c-0.2,0.5,0.3,0.9,0.8-0.3c-0.3,1.3-1,2.6,0.4,2.6
						c1.2,0,1.4-1.2,1.1-4.4l-0.1-1.3h-1.2L156.7,125.2z"/>
					<g>
						<polygon class="st5" points="146.9,135.9 145.9,171.7 142.1,171.7 144.3,168.5 142.7,135.7 145,131.8 						"/>
						<g>
							<polygon class="st27" points="142.1,171.7 145.9,171.7 146,168.2 144.3,168.2 144.3,168.5 							"/>
						</g>
					</g>
					<g>
						<polygon class="st5" points="147.5,135.9 148.4,171.7 152.2,171.7 150,168.5 151.6,135.7 149.3,131.8 						"/>
						<g>
							<polygon class="st27" points="152.2,171.7 148.4,171.7 148.3,168.2 150,168.2 150,168.5 							"/>
						</g>
					</g>
					<g>
						<path class="st30" d="M147,94.3c1.4,2.4,8.6,3.4,11,1.3c-3,0.3-3.1-2.1-1.4-8.4c1.7-8.3-6-11.6-9.6-11.6
							c-3.6,0-11.3,3.3-9.6,11.6c1.7,6.4,1.5,8.7-1.4,8.4C138.4,97.7,145.6,96.7,147,94.3z"/>
						<ellipse class="st5" cx="139.4" cy="87" rx="1.6" ry="1.6"/>
						<ellipse class="st5" cx="154.7" cy="87" rx="1.6" ry="1.6"/>
						<path class="st5" d="M148.4,78h-2.5c-4.8,0.5-7.2,2.9-7.2,7.7c0,3.5,1.7,6.3,4.1,7.5c3.8,2.1,2.7,3.2,2.4,4.1
							c0,0.6,0.8,1.3,1.9,1.3c1.1,0,1.9-0.7,1.9-1.3h0c-0.4-0.9-1.4-2.1,2.4-4.1c2.3-1.3,4.1-4.1,4.1-7.5
							C155.5,80.9,153.2,78.5,148.4,78z"/>
						<path class="st30" d="M146.8,76.3c3.9,0,7.3,1.9,8.6,4.1c0.4,0.8,1.6,1.7,2.5,1.2c-1.8,4.3-17.7,4.5-19.7,2.6
							c-1.1-0.6,0.5-3.1,1.3-4.2C140.7,78.5,143.9,76.3,146.8,76.3z"/>
						<path class="st6" d="M142,87.8c0,0-0.1,0-0.1,0c-0.7-0.1-1.4-0.6-1.4-1.5l0.3,0c0,0.7,0.5,1.1,1.1,1.2c0.5,0,1.1-0.3,1.2-1.1
							l0.3,0C143.4,87.4,142.7,87.8,142,87.8z"/>
						<path class="st6" d="M152.2,87.8c-0.7,0-1.3-0.4-1.4-1.4l0.3,0c0.1,0.8,0.7,1.1,1.2,1.1c0.5,0,1.1-0.4,1.1-1.2l0.3,0
							c0,0.9-0.7,1.4-1.4,1.5C152.3,87.8,152.2,87.8,152.2,87.8z"/>
						<path class="st6" d="M148.8,91.4c0.5,0,0.9,0.1,1,0.4l-0.3,0.1c-0.1-0.1-0.6-0.3-1.3-0.2c-0.4,0.1-1.1,0.3-1.1,1l-0.3,0
							c0-0.7,0.5-1.2,1.3-1.3C148.4,91.4,148.6,91.4,148.8,91.4z"/>
						<path class="st6" d="M147.1,90l-2.3-0.4l0.5-0.2c1.1-0.5,1.7-2.3,1.7-3.1h0.3c0,0.8-0.5,2.5-1.5,3.2l1.4,0.2L147.1,90z"/>
					</g>
					<path class="st161" d="M149.1,97.3h-4c-3.8,10.9-3.6,26.8-4,45.7h11.9C152.7,124.2,153,108.2,149.1,97.3z"/>
					<polygon class="st7" points="147.2,97.3 148.9,96.2 149.6,97.4 148.4,99 147.2,117.6 145.9,99 144.7,97.4 145.4,96.2 					"/>
				</g>
			</g>
			<path class="st5" d="M156.7,125.2c-0.1,0.6-0.5,1.4-0.8,2.1c-0.2,0.5,0.3,0.9,0.8-0.3c-0.3,1.3-1,2.6,0.4,2.6
				c1.2,0,1.4-1.2,1.1-4.4l-0.1-1.3h-1.2L156.7,125.2z"/>
		</g>
		<path class="st161" d="M149.3,97.9c7.4,7.2,8.8,12.3,8.8,27.3h-1.5c-0.4-5.5-0.7-17.3-7.4-22.4L149.3,97.9z"/>
	</g>
	<path class="st5" d="M137.3,82.2c0.4-0.5,1.2-0.9,1.9-1.3c0.5-0.3,0.2-1-0.9-0.2c1-0.9,2.2-1.6,1.1-2.4c-1-0.7-1.8,0.2-3.3,3
		l-0.6,1.1l1,0.7L137.3,82.2z"/>
	<path class="st161" d="M144.1,104.1c-10-6.4-13.2-15.8-8.6-21.6l1,0.7c-3.2,4.8,0.8,15.9,8.2,17L144.1,104.1z"/>
</g>
</svg>
