<?xml version="1.0" encoding="utf-8"?>
<!-- Generator: Adobe Illustrator 17.0.0, SVG Export Plug-In . SVG Version: 6.00 Build 0)  -->
<!DOCTYPE svg PUBLIC "-//W3C//DTD SVG 1.1//EN" "http://www.w3.org/Graphics/SVG/1.1/DTD/svg11.dtd">
<svg version="1.1" id="Layer_1" xmlns="http://www.w3.org/2000/svg" xmlns:xlink="http://www.w3.org/1999/xlink" x="0px" y="0px"
	 width="430px" height="654px" viewBox="0 0 430 654" enable-background="new 0 0 430 654" xml:space="preserve">
<rect x="-0.323" y="0.05" fill="#34BFC2" width="430.623" height="654"/>
<g>
	<g>
		<g>
			<polygon fill="#B4A680" points="431.777,287.669 355.848,180 73.028,180 -5.725,291.674 			"/>
		</g>
		<g opacity="0.62">
			<rect x="73.028" y="170.126" fill="#27688F" width="282.82" height="11.475"/>
			<g>
				<path fill="#003E5A" d="M343.438,73.113c0-3.048,0.762-7.365,2.159-9.651H82.236c1.397,2.286,2.159,6.603,2.159,9.651H343.438z"
					/>
				<rect x="86.93" y="72.732" fill="#003E5A" width="255.031" height="90.515"/>
				<rect x="81.347" y="71.856" fill="#235F83" width="266.154" height="5.447"/>
				<rect x="81.347" y="62.26" fill="#235F83" width="266.154" height="1.715"/>
				<rect x="81.347" y="159.587" fill="#00304A" width="266.154" height="10.666"/>
				<rect x="137.528" y="75.998" fill="#00304A" width="152.948" height="87.615"/>
				<g>
					<rect x="202.424" y="127.883" fill="#003E5A" width="22.819" height="29.473"/>
					<rect x="206.364" y="128.308" fill="#00263E" width="15.016" height="27.49"/>
					<g>
						<rect x="207.058" y="128.873" fill="#235F83" width="6.25" height="5.949"/>
						<rect x="214.389" y="128.873" fill="#235F83" width="6.015" height="5.949"/>
					</g>
					<g>
						<rect x="207.058" y="135.526" fill="#235F83" width="6.25" height="5.949"/>
						<rect x="214.389" y="135.526" fill="#235F83" width="6.015" height="5.949"/>
					</g>
					<g>
						<rect x="207.058" y="142.178" fill="#235F83" width="6.25" height="5.949"/>
						<rect x="214.389" y="142.178" fill="#235F83" width="6.015" height="5.949"/>
					</g>
					<g>
						<rect x="207.058" y="148.83" fill="#235F83" width="6.25" height="5.949"/>
						<rect x="214.389" y="148.83" fill="#235F83" width="6.015" height="5.949"/>
					</g>
					<g>
						<path fill="#003E5A" d="M213.82,126.621h5.161l7.514-1.364c-3.257,0-4.46-4.393-12.675-4.393
							c-8.215,0-9.419,4.393-12.675,4.393l7.515,1.364H213.82z"/>
						<rect x="201.144" y="125.256" fill="#004B6B" width="25.351" height="3.02"/>
					</g>
					<rect x="202.062" y="125.802" fill="#235F83" width="23.379" height="1.942"/>
				</g>
				<rect x="137.528" y="156.667" fill="#003E5A" width="152.948" height="14.747"/>
				<g>
					<rect x="137.528" y="156.666" fill="#00304A" width="152.948" height="1.357"/>
					<rect x="137.528" y="159.34" fill="#00304A" width="152.948" height="1.357"/>
					<rect x="137.528" y="162.013" fill="#00304A" width="152.948" height="1.357"/>
					<rect x="137.528" y="164.685" fill="#00304A" width="152.948" height="1.357"/>
					<rect x="137.528" y="167.359" fill="#00304A" width="152.948" height="1.357"/>
					<rect x="137.528" y="170.031" fill="#00304A" width="152.948" height="1.357"/>
				</g>
				<g>
					<polygon fill="#235F83" points="150.349,171.431 133.444,171.431 133.444,154.255 141.884,153.53 150.349,154.255 					"/>
					<polygon fill="#235F83" points="141.866,154.255 150.347,154.255 149.513,153.076 141.866,152.472 134.218,153.076 
						133.384,154.255 					"/>
					<rect x="137.164" y="87.256" fill="#003E5A" width="9.438" height="1.294"/>
					<rect x="135.903" y="88.308" fill="#235F83" width="11.969" height="63.413"/>
					<rect x="137.587" y="82.433" fill="#003E5A" width="8.767" height="2.315"/>
					<rect x="136.907" y="80.332" fill="#235F83" width="10.105" height="3.255"/>
					<rect x="136.907" y="84.314" fill="#235F83" width="10.105" height="3.255"/>
					<rect x="135.267" y="77.438" fill="#003E5A" width="13.413" height="1.105"/>
					<path fill="#003E5A" d="M149.526,78.094h-15.132c-1.387,0-2.512,1.125-2.512,2.512c0,1.387,1.125,2.512,2.512,2.512
						c1.11,0,2.041-0.725,2.373-1.724l0.013,0.002h10.36l0.013-0.002c0.332,0.999,1.263,1.724,2.373,1.724
						c1.387,0,2.512-1.125,2.512-2.512C152.038,79.218,150.913,78.094,149.526,78.094z"/>
					<path fill="#235F83" d="M149.516,78.965l-0.004,0h-15.105l-0.004,0c-0.91,0-1.648,0.738-1.648,1.648
						c0,0.91,0.738,1.648,1.648,1.648s1.648-0.738,1.648-1.648h11.816c0,0.91,0.738,1.648,1.648,1.648
						c0.91,0,1.648-0.738,1.648-1.648C151.164,79.703,150.426,78.965,149.516,78.965z"/>
					<circle fill="#003E5A" cx="134.405" cy="80.616" r="0.894"/>
					<circle fill="#003E5A" cx="149.514" cy="80.616" r="0.894"/>
					<path fill="#003E5A" d="M138.681,89.735c-0.32,0-0.579,0.259-0.579,0.579l0,58.137c0.003,0.318,0.26,0.574,0.579,0.574
						c0.318,0,0.576-0.257,0.579-0.574l0-58.137C139.26,89.995,139.001,89.735,138.681,89.735z"/>
					<path fill="#003E5A" d="M140.822,89.735c-0.32,0-0.579,0.259-0.579,0.579l0,58.137c0.002,0.318,0.26,0.574,0.579,0.574
						c0.318,0,0.576-0.257,0.579-0.574l0-58.137C141.401,89.995,141.142,89.735,140.822,89.735z"/>
					<path fill="#003E5A" d="M142.963,89.735c-0.32,0-0.579,0.259-0.579,0.579l0,58.137c0.002,0.318,0.26,0.574,0.579,0.574
						c0.318,0,0.576-0.257,0.579-0.574l0-58.137C143.542,89.995,143.283,89.735,142.963,89.735z"/>
					<path fill="#003E5A" d="M145.104,89.735c-0.32,0-0.579,0.259-0.579,0.579l0,58.137c0.003,0.318,0.26,0.574,0.579,0.574
						s0.576-0.257,0.579-0.574l0-58.137C145.683,89.995,145.424,89.735,145.104,89.735z"/>
					<path fill="#003E5A" d="M141.866,153.081h7.648c0-0.748-0.46-1.581-1.61-1.581h-6.038h-6.038c-1.15,0-1.61,0.834-1.61,1.581
						H141.866z"/>
				</g>
				<g>
					<polygon fill="#235F83" points="347.481,159.598 332.677,159.598 332.677,144.557 340.068,143.922 347.481,144.557 					"/>
					<polygon fill="#235F83" points="340.052,144.557 347.479,144.557 346.749,143.525 340.052,142.996 333.355,143.525 
						332.625,144.557 					"/>
					<rect x="335.935" y="85.886" fill="#003E5A" width="8.265" height="1.133"/>
					<rect x="334.831" y="86.807" fill="#235F83" width="10.481" height="55.531"/>
					<rect x="336.305" y="81.663" fill="#003E5A" width="7.678" height="2.027"/>
					<rect x="335.709" y="79.822" fill="#235F83" width="8.849" height="2.851"/>
					<rect x="335.709" y="83.31" fill="#235F83" width="8.849" height="2.851"/>
					<rect x="334.274" y="77.289" fill="#003E5A" width="11.746" height="0.968"/>
					<path fill="#003E5A" d="M346.76,77.862h-13.251c-1.215,0-2.2,0.985-2.2,2.2s0.985,2.2,2.2,2.2c0.972,0,1.787-0.635,2.078-1.509
						l0.011,0.002h9.073l0.011-0.002c0.291,0.874,1.106,1.509,2.078,1.509c1.215,0,2.2-0.985,2.2-2.2S347.975,77.862,346.76,77.862z
						"/>
					<path fill="#235F83" d="M346.751,78.625l-0.003,0h-13.227l-0.003,0c-0.797,0-1.443,0.646-1.443,1.443
						c0,0.797,0.646,1.443,1.443,1.443s1.443-0.646,1.443-1.443h10.347c0,0.797,0.646,1.443,1.443,1.443
						c0.797,0,1.443-0.646,1.443-1.443C348.195,79.272,347.548,78.625,346.751,78.625z"/>
					<circle fill="#003E5A" cx="333.519" cy="80.072" r="0.783"/>
					<circle fill="#003E5A" cx="346.75" cy="80.072" r="0.783"/>
					<path fill="#003E5A" d="M337.263,88.057c-0.28,0-0.507,0.227-0.507,0.507l0,50.911c0.002,0.278,0.228,0.503,0.507,0.503
						c0.279,0,0.504-0.225,0.507-0.503l0-50.911C337.77,88.284,337.543,88.057,337.263,88.057z"/>
					<path fill="#003E5A" d="M339.138,88.057c-0.28,0-0.507,0.227-0.507,0.507l0,50.911c0.002,0.278,0.228,0.503,0.507,0.503
						c0.279,0,0.504-0.225,0.507-0.503l0-50.911C339.645,88.284,339.418,88.057,339.138,88.057z"/>
					<path fill="#003E5A" d="M341.013,88.057c-0.28,0-0.507,0.227-0.507,0.507l0,50.911c0.002,0.278,0.228,0.503,0.507,0.503
						s0.504-0.225,0.507-0.503l0-50.911C341.52,88.284,341.293,88.057,341.013,88.057z"/>
					<path fill="#003E5A" d="M342.888,88.057c-0.28,0-0.507,0.227-0.507,0.507l0,50.911c0.002,0.278,0.228,0.503,0.507,0.503
						c0.279,0,0.504-0.225,0.507-0.503l0-50.911C343.395,88.284,343.168,88.057,342.888,88.057z"/>
					<path fill="#003E5A" d="M340.052,143.529h6.697c0-0.655-0.403-1.385-1.41-1.385h-5.287h-5.287c-1.007,0-1.41,0.73-1.41,1.385
						H340.052z"/>
				</g>
				<g>
					<polygon fill="#235F83" points="96.158,159.598 81.354,159.598 81.354,144.557 88.745,143.922 96.158,144.557 					"/>
					<polygon fill="#235F83" points="88.729,144.557 96.156,144.557 95.426,143.525 88.729,142.996 82.032,143.525 81.302,144.557 
											"/>
					<rect x="84.612" y="85.886" fill="#003E5A" width="8.265" height="1.133"/>
					<rect x="83.507" y="86.807" fill="#235F83" width="10.481" height="55.531"/>
					<rect x="84.982" y="81.663" fill="#003E5A" width="7.678" height="2.027"/>
					<rect x="84.386" y="79.822" fill="#235F83" width="8.849" height="2.851"/>
					<rect x="84.386" y="83.31" fill="#235F83" width="8.849" height="2.851"/>
					<rect x="82.95" y="77.289" fill="#003E5A" width="11.746" height="0.968"/>
					<path fill="#003E5A" d="M95.437,77.862H82.186c-1.215,0-2.2,0.985-2.2,2.2s0.985,2.2,2.2,2.2c0.972,0,1.787-0.635,2.078-1.509
						l0.011,0.002h9.073l0.011-0.002c0.291,0.874,1.106,1.509,2.078,1.509c1.215,0,2.2-0.985,2.2-2.2S96.652,77.862,95.437,77.862z"
						/>
					<path fill="#235F83" d="M95.428,78.625l-0.003,0H82.197l-0.003,0c-0.797,0-1.443,0.646-1.443,1.443
						c0,0.797,0.646,1.443,1.443,1.443c0.797,0,1.443-0.646,1.443-1.443h10.347c0,0.797,0.646,1.443,1.443,1.443
						c0.797,0,1.443-0.646,1.443-1.443C96.871,79.272,96.225,78.625,95.428,78.625z"/>
					<circle fill="#003E5A" cx="82.195" cy="80.072" r="0.783"/>
					<circle fill="#003E5A" cx="95.427" cy="80.072" r="0.783"/>
					<path fill="#003E5A" d="M85.94,88.057c-0.28,0-0.507,0.227-0.507,0.507l0,50.911c0.002,0.278,0.228,0.503,0.507,0.503
						c0.279,0,0.504-0.225,0.507-0.503l0-50.911C86.447,88.284,86.22,88.057,85.94,88.057z"/>
					<path fill="#003E5A" d="M87.815,88.057c-0.28,0-0.507,0.227-0.507,0.507l0,50.911c0.002,0.278,0.228,0.503,0.507,0.503
						c0.279,0,0.504-0.225,0.507-0.503l0-50.911C88.322,88.284,88.095,88.057,87.815,88.057z"/>
					<path fill="#003E5A" d="M89.69,88.057c-0.28,0-0.507,0.227-0.507,0.507l0,50.911c0.002,0.278,0.228,0.503,0.507,0.503
						c0.279,0,0.504-0.225,0.507-0.503l0-50.911C90.197,88.284,89.97,88.057,89.69,88.057z"/>
					<path fill="#003E5A" d="M91.565,88.057c-0.28,0-0.507,0.227-0.507,0.507l0,50.911c0.002,0.278,0.228,0.503,0.507,0.503
						c0.279,0,0.504-0.225,0.507-0.503l0-50.911C92.072,88.284,91.845,88.057,91.565,88.057z"/>
					<path fill="#003E5A" d="M88.729,143.529h6.697c0-0.655-0.403-1.385-1.41-1.385h-5.287h-5.287c-1.007,0-1.41,0.73-1.41,1.385
						H88.729z"/>
				</g>
				<g>
					<polygon fill="#235F83" points="198.487,171.431 181.582,171.431 181.582,154.255 190.022,153.53 198.487,154.255 					"/>
					<polygon fill="#235F83" points="190.004,154.255 198.485,154.255 197.651,153.076 190.004,152.472 182.356,153.076 
						181.522,154.255 					"/>
					<rect x="185.302" y="87.256" fill="#003E5A" width="9.438" height="1.294"/>
					<rect x="184.041" y="88.308" fill="#235F83" width="11.969" height="63.413"/>
					<rect x="185.725" y="82.433" fill="#003E5A" width="8.767" height="2.315"/>
					<rect x="185.044" y="80.332" fill="#235F83" width="10.105" height="3.255"/>
					<rect x="185.044" y="84.314" fill="#235F83" width="10.105" height="3.255"/>
					<rect x="183.405" y="77.438" fill="#003E5A" width="13.413" height="1.105"/>
					<path fill="#003E5A" d="M197.664,78.094h-15.132c-1.387,0-2.512,1.125-2.512,2.512c0,1.387,1.125,2.512,2.512,2.512
						c1.11,0,2.041-0.725,2.373-1.724l0.012,0.002h10.361l0.012-0.002c0.332,0.999,1.263,1.724,2.373,1.724
						c1.387,0,2.512-1.125,2.512-2.512C200.176,79.218,199.051,78.094,197.664,78.094z"/>
					<path fill="#235F83" d="M197.654,78.965l-0.002,0h-15.106l-0.002,0c-0.912,0-1.65,0.738-1.65,1.648
						c0,0.91,0.738,1.648,1.648,1.648c0.91,0,1.648-0.738,1.648-1.648h11.816c0,0.91,0.738,1.648,1.648,1.648
						c0.91,0,1.648-0.738,1.648-1.648C199.302,79.703,198.564,78.965,197.654,78.965z"/>
					<circle fill="#003E5A" cx="182.543" cy="80.616" r="0.894"/>
					<circle fill="#003E5A" cx="197.652" cy="80.616" r="0.894"/>
					<path fill="#003E5A" d="M186.819,89.735c-0.32,0-0.579,0.259-0.579,0.579l0,58.137c0.002,0.318,0.26,0.574,0.579,0.574
						s0.576-0.257,0.579-0.574l0-58.137C187.398,89.995,187.139,89.735,186.819,89.735z"/>
					<path fill="#003E5A" d="M188.96,89.735c-0.32,0-0.579,0.259-0.579,0.579l0,58.137c0.003,0.318,0.26,0.574,0.579,0.574
						s0.576-0.257,0.579-0.574l0-58.137C189.539,89.995,189.28,89.735,188.96,89.735z"/>
					<path fill="#003E5A" d="M191.101,89.735c-0.32,0-0.579,0.259-0.579,0.579l0,58.137c0.003,0.318,0.26,0.574,0.579,0.574
						c0.318,0,0.576-0.257,0.579-0.574l0-58.137C191.68,89.995,191.421,89.735,191.101,89.735z"/>
					<path fill="#003E5A" d="M193.242,89.735c-0.32,0-0.579,0.259-0.579,0.579l0,58.137c0.003,0.318,0.26,0.574,0.579,0.574
						c0.318,0,0.576-0.257,0.579-0.574l0-58.137C193.821,89.995,193.562,89.735,193.242,89.735z"/>
					<path fill="#003E5A" d="M190.004,153.081h7.648c0-0.748-0.46-1.581-1.61-1.581h-6.038h-6.038c-1.15,0-1.61,0.834-1.61,1.581
						H190.004z"/>
				</g>
				<g>
					<polygon fill="#235F83" points="246.625,171.431 229.72,171.431 229.72,154.255 238.16,153.53 246.625,154.255 					"/>
					<polygon fill="#235F83" points="238.141,154.255 246.623,154.255 245.789,153.076 238.141,152.472 230.494,153.076 
						229.66,154.255 					"/>
					<rect x="233.44" y="87.256" fill="#003E5A" width="9.438" height="1.294"/>
					<rect x="232.179" y="88.308" fill="#235F83" width="11.969" height="63.413"/>
					<rect x="233.863" y="82.433" fill="#003E5A" width="8.767" height="2.315"/>
					<rect x="233.182" y="80.332" fill="#235F83" width="10.105" height="3.255"/>
					<rect x="233.182" y="84.314" fill="#235F83" width="10.105" height="3.255"/>
					<rect x="231.543" y="77.438" fill="#003E5A" width="13.413" height="1.105"/>
					<path fill="#003E5A" d="M245.801,78.094H230.67c-1.387,0-2.512,1.125-2.512,2.512c0,1.387,1.125,2.512,2.512,2.512
						c1.11,0,2.041-0.725,2.373-1.724l0.012,0.002h10.36l0.013-0.002c0.332,0.999,1.263,1.724,2.373,1.724
						c1.387,0,2.512-1.125,2.512-2.512C248.314,79.218,247.189,78.094,245.801,78.094z"/>
					<path fill="#235F83" d="M245.792,78.965l-0.004,0h-15.105l-0.004,0c-0.91,0-1.648,0.738-1.648,1.648
						c0,0.91,0.738,1.648,1.648,1.648c0.91,0,1.648-0.738,1.648-1.648h11.816c0,0.91,0.738,1.648,1.648,1.648
						c0.91,0,1.648-0.738,1.648-1.648C247.44,79.703,246.702,78.965,245.792,78.965z"/>
					<circle fill="#003E5A" cx="230.681" cy="80.616" r="0.894"/>
					<circle fill="#003E5A" cx="245.79" cy="80.616" r="0.894"/>
					<path fill="#003E5A" d="M234.957,89.735c-0.32,0-0.579,0.259-0.579,0.579l0,58.137c0.003,0.318,0.26,0.574,0.579,0.574
						c0.318,0,0.576-0.257,0.579-0.574l0-58.137C235.536,89.995,235.277,89.735,234.957,89.735z"/>
					<path fill="#003E5A" d="M237.098,89.735c-0.32,0-0.579,0.259-0.579,0.579l0,58.137c0.002,0.318,0.26,0.574,0.579,0.574
						s0.576-0.257,0.579-0.574l0-58.137C237.677,89.995,237.418,89.735,237.098,89.735z"/>
					<path fill="#003E5A" d="M239.239,89.735c-0.32,0-0.579,0.259-0.579,0.579l0,58.137c0.002,0.318,0.26,0.574,0.579,0.574
						c0.318,0,0.576-0.257,0.579-0.574l0-58.137C239.818,89.995,239.559,89.735,239.239,89.735z"/>
					<path fill="#003E5A" d="M241.38,89.735c-0.32,0-0.579,0.259-0.579,0.579l0,58.137c0.003,0.318,0.26,0.574,0.579,0.574
						s0.576-0.257,0.579-0.574l0-58.137C241.959,89.995,241.7,89.735,241.38,89.735z"/>
					<path fill="#003E5A" d="M238.141,153.081h7.648c0-0.748-0.46-1.581-1.61-1.581h-6.038h-6.038c-1.15,0-1.61,0.834-1.61,1.581
						H238.141z"/>
				</g>
				<g>
					<polygon fill="#235F83" points="294.763,171.431 277.858,171.431 277.858,154.255 286.298,153.53 294.763,154.255 					"/>
					<polygon fill="#235F83" points="286.279,154.255 294.761,154.255 293.927,153.076 286.279,152.472 278.632,153.076 
						277.798,154.255 					"/>
					<rect x="281.578" y="87.256" fill="#003E5A" width="9.438" height="1.294"/>
					<rect x="280.317" y="88.308" fill="#235F83" width="11.969" height="63.413"/>
					<rect x="282.001" y="82.433" fill="#003E5A" width="8.767" height="2.315"/>
					<rect x="281.32" y="80.332" fill="#235F83" width="10.105" height="3.255"/>
					<rect x="281.32" y="84.314" fill="#235F83" width="10.105" height="3.255"/>
					<rect x="279.681" y="77.438" fill="#003E5A" width="13.413" height="1.105"/>
					<path fill="#003E5A" d="M293.939,78.094h-15.132c-1.387,0-2.512,1.125-2.512,2.512c0,1.387,1.125,2.512,2.512,2.512
						c1.11,0,2.041-0.725,2.373-1.724l0.013,0.002h10.36l0.013-0.002c0.332,0.999,1.263,1.724,2.373,1.724
						c1.387,0,2.512-1.125,2.512-2.512C296.451,79.218,295.327,78.094,293.939,78.094z"/>
					<path fill="#235F83" d="M293.93,78.965l-0.004,0h-15.105l-0.004,0c-0.91,0-1.648,0.738-1.648,1.648
						c0,0.91,0.738,1.648,1.648,1.648c0.91,0,1.648-0.738,1.648-1.648h11.816c0,0.91,0.738,1.648,1.648,1.648
						c0.91,0,1.648-0.738,1.648-1.648C295.578,79.703,294.84,78.965,293.93,78.965z"/>
					<circle fill="#003E5A" cx="278.819" cy="80.616" r="0.894"/>
					<circle fill="#003E5A" cx="293.928" cy="80.616" r="0.894"/>
					<path fill="#003E5A" d="M283.095,89.735c-0.32,0-0.579,0.259-0.579,0.579l0,58.137c0.003,0.318,0.26,0.574,0.579,0.574
						c0.318,0,0.576-0.257,0.579-0.574l0-58.137C283.674,89.995,283.414,89.735,283.095,89.735z"/>
					<path fill="#003E5A" d="M285.236,89.735c-0.32,0-0.579,0.259-0.579,0.579l0,58.137c0.003,0.318,0.26,0.574,0.579,0.574
						c0.318,0,0.576-0.257,0.579-0.574l0-58.137C285.815,89.995,285.555,89.735,285.236,89.735z"/>
					<path fill="#003E5A" d="M287.377,89.735c-0.32,0-0.579,0.259-0.579,0.579l0,58.137c0.002,0.318,0.26,0.574,0.579,0.574
						c0.318,0,0.576-0.257,0.579-0.574l0-58.137C287.956,89.995,287.697,89.735,287.377,89.735z"/>
					<path fill="#003E5A" d="M289.518,89.735c-0.32,0-0.579,0.259-0.579,0.579l0,58.137c0.002,0.318,0.26,0.574,0.579,0.574
						s0.576-0.257,0.579-0.574l0-58.137C290.097,89.995,289.838,89.735,289.518,89.735z"/>
					<path fill="#003E5A" d="M286.279,153.081h7.648c0-0.748-0.46-1.581-1.61-1.581h-6.038h-6.038c-1.15,0-1.61,0.834-1.61,1.581
						H286.279z"/>
				</g>
				<rect x="132.496" y="73.461" fill="#235F83" width="162.028" height="4.231"/>
				<rect x="129.833" y="71.346" fill="#003E5A" width="167.32" height="4.231"/>
				<polygon fill="#235F83" points="301.431,72.445 301.431,62.539 213.945,27.653 126.459,62.539 126.459,72.445 				"/>
				<polygon fill="#003E5A" points="296.565,68.41 296.565,65.394 213.889,32.353 131.213,65.394 131.213,68.41 				"/>
				<polygon fill="#235F83" points="213.873,67.005 295.052,67.005 295.052,66.155 213.873,33.74 132.694,66.155 132.694,67.005 
									"/>
				<g>
					<rect x="156.434" y="125.777" fill="#004B6B" width="19.406" height="0.35"/>
					<polygon fill="#003E5A" points="176.263,147.085 176.263,147.541 166.159,147.541 156.075,147.541 156.075,147.085 					"/>
					<path fill="#00263E" d="M176.263,147.541c-0.208,0-0.742,0.326-0.742,0.806h-9.352h-9.352c0-0.48-0.534-0.806-0.742-0.806
						H176.263z"/>
					<path fill="#003E5A" d="M176.569,124.948c-0.215,0-0.766,0.337-0.766,0.832h-9.648h-9.648c0-0.495-0.551-0.832-0.766-0.832
						v-0.452h20.827V124.948z"/>
					<rect x="155.38" y="123.71" fill="#003E5A" width="21.584" height="0.784"/>
					<rect x="156.989" y="126.128" fill="#003E5A" width="2.534" height="20.957"/>
					<rect x="172.791" y="126.128" fill="#003E5A" width="2.534" height="20.957"/>
					<rect x="156.513" y="148.347" fill="#003E5A" width="19.302" height="0.371"/>
					<rect x="160.036" y="126.859" fill="#003E5A" width="12.219" height="19.274"/>
					<rect x="160.395" y="127.309" fill="#235F83" width="5.449" height="3.347"/>
					<rect x="166.445" y="127.309" fill="#235F83" width="5.449" height="3.347"/>
					<rect x="160.395" y="131.063" fill="#235F83" width="5.449" height="3.347"/>
					<rect x="166.445" y="131.063" fill="#235F83" width="5.449" height="3.347"/>
					<rect x="160.395" y="134.817" fill="#235F83" width="5.449" height="3.347"/>
					<rect x="166.445" y="134.817" fill="#235F83" width="5.449" height="3.347"/>
					<rect x="160.395" y="138.572" fill="#235F83" width="5.449" height="3.347"/>
					<rect x="166.445" y="138.572" fill="#235F83" width="5.449" height="3.347"/>
					<rect x="160.395" y="142.326" fill="#235F83" width="5.449" height="3.347"/>
					<rect x="166.445" y="142.326" fill="#235F83" width="5.449" height="3.347"/>
				</g>
				<g>
					<rect x="251.455" y="125.777" fill="#004B6B" width="19.406" height="0.35"/>
					<polygon fill="#003E5A" points="251.032,147.085 251.032,147.541 261.136,147.541 271.22,147.541 271.22,147.085 					"/>
					<path fill="#00263E" d="M251.032,147.541c0.208,0,0.742,0.326,0.742,0.806h9.352h9.352c0-0.48,0.534-0.806,0.742-0.806H251.032
						z"/>
					<path fill="#003E5A" d="M250.726,124.948c0.215,0,0.766,0.337,0.766,0.832h9.648h9.648c0-0.495,0.551-0.832,0.766-0.832v-0.452
						h-20.827V124.948z"/>
					<rect x="250.33" y="123.71" fill="#003E5A" width="21.584" height="0.784"/>
					<rect x="267.772" y="126.128" fill="#003E5A" width="2.534" height="20.957"/>
					<rect x="251.97" y="126.128" fill="#003E5A" width="2.534" height="20.957"/>
					<rect x="251.48" y="148.347" fill="#003E5A" width="19.302" height="0.371"/>
					<rect x="255.041" y="126.859" fill="#003E5A" width="12.219" height="19.274"/>
					<rect x="261.451" y="127.309" fill="#235F83" width="5.449" height="3.347"/>
					<rect x="255.401" y="127.309" fill="#235F83" width="5.449" height="3.347"/>
					<rect x="261.451" y="131.063" fill="#235F83" width="5.449" height="3.347"/>
					<rect x="255.401" y="131.063" fill="#235F83" width="5.449" height="3.347"/>
					<rect x="261.451" y="134.817" fill="#235F83" width="5.449" height="3.347"/>
					<rect x="255.401" y="134.817" fill="#235F83" width="5.449" height="3.347"/>
					<rect x="261.451" y="138.572" fill="#235F83" width="5.449" height="3.347"/>
					<rect x="255.401" y="138.572" fill="#235F83" width="5.449" height="3.347"/>
					<rect x="261.451" y="142.326" fill="#235F83" width="5.449" height="3.347"/>
					<rect x="255.401" y="142.326" fill="#235F83" width="5.449" height="3.347"/>
				</g>
				<g>
					<rect x="156.434" y="89.889" fill="#004B6B" width="19.406" height="0.35"/>
					<polygon fill="#003E5A" points="176.263,111.197 176.263,111.653 166.159,111.653 156.075,111.653 156.075,111.197 					"/>
					<path fill="#00263E" d="M176.263,111.653c-0.208,0-0.742,0.326-0.742,0.806h-9.352h-9.352c0-0.48-0.534-0.806-0.742-0.806
						H176.263z"/>
					<path fill="#003E5A" d="M176.569,89.06c-0.215,0-0.766,0.337-0.766,0.832h-9.648h-9.648c0-0.495-0.551-0.832-0.766-0.832
						v-0.452h20.827V89.06z"/>
					<rect x="155.38" y="87.822" fill="#003E5A" width="21.584" height="0.784"/>
					<rect x="156.989" y="90.24" fill="#003E5A" width="2.534" height="20.957"/>
					<rect x="172.791" y="90.24" fill="#003E5A" width="2.534" height="20.957"/>
					<rect x="156.513" y="112.459" fill="#003E5A" width="19.302" height="0.371"/>
					<rect x="160.036" y="90.971" fill="#003E5A" width="12.219" height="19.274"/>
					<rect x="160.395" y="91.421" fill="#235F83" width="5.449" height="3.347"/>
					<rect x="166.445" y="91.421" fill="#235F83" width="5.449" height="3.347"/>
					<rect x="160.395" y="95.175" fill="#235F83" width="5.449" height="3.347"/>
					<rect x="166.445" y="95.175" fill="#235F83" width="5.449" height="3.347"/>
					<rect x="160.395" y="98.929" fill="#235F83" width="5.449" height="3.347"/>
					<rect x="166.445" y="98.929" fill="#235F83" width="5.449" height="3.347"/>
					<rect x="160.395" y="102.684" fill="#235F83" width="5.449" height="3.347"/>
					<rect x="166.445" y="102.684" fill="#235F83" width="5.449" height="3.347"/>
					<rect x="160.395" y="106.438" fill="#235F83" width="5.449" height="3.347"/>
					<rect x="166.445" y="106.438" fill="#235F83" width="5.449" height="3.347"/>
				</g>
				<g>
					<rect x="251.455" y="89.889" fill="#004B6B" width="19.406" height="0.35"/>
					<polygon fill="#003E5A" points="251.032,111.197 251.032,111.653 261.136,111.653 271.22,111.653 271.22,111.197 					"/>
					<path fill="#00263E" d="M251.032,111.653c0.208,0,0.742,0.326,0.742,0.806h9.352h9.352c0-0.48,0.534-0.806,0.742-0.806H251.032
						z"/>
					<path fill="#003E5A" d="M250.726,89.06c0.215,0,0.766,0.337,0.766,0.832h9.648h9.648c0-0.495,0.551-0.832,0.766-0.832v-0.452
						h-20.827V89.06z"/>
					<rect x="250.33" y="87.822" fill="#003E5A" width="21.584" height="0.784"/>
					<rect x="267.772" y="90.24" fill="#003E5A" width="2.534" height="20.957"/>
					<rect x="251.97" y="90.24" fill="#003E5A" width="2.534" height="20.957"/>
					<rect x="251.48" y="112.459" fill="#003E5A" width="19.302" height="0.371"/>
					<rect x="255.041" y="90.971" fill="#003E5A" width="12.219" height="19.274"/>
					<rect x="261.451" y="91.421" fill="#235F83" width="5.449" height="3.347"/>
					<rect x="255.401" y="91.421" fill="#235F83" width="5.449" height="3.347"/>
					<rect x="261.451" y="95.175" fill="#235F83" width="5.449" height="3.347"/>
					<rect x="255.401" y="95.175" fill="#235F83" width="5.449" height="3.347"/>
					<rect x="261.451" y="98.929" fill="#235F83" width="5.449" height="3.347"/>
					<rect x="255.401" y="98.929" fill="#235F83" width="5.449" height="3.347"/>
					<rect x="261.451" y="102.684" fill="#235F83" width="5.449" height="3.347"/>
					<rect x="255.401" y="102.684" fill="#235F83" width="5.449" height="3.347"/>
					<rect x="261.451" y="106.438" fill="#235F83" width="5.449" height="3.347"/>
					<rect x="255.401" y="106.438" fill="#235F83" width="5.449" height="3.347"/>
				</g>
				<g>
					<rect x="306.107" y="125.777" fill="#235F83" width="19.406" height="0.35"/>
					<polygon fill="#004B6B" points="305.683,147.085 305.683,147.541 315.787,147.541 325.871,147.541 325.871,147.085 					"/>
					<path fill="#00354F" d="M305.683,147.541c0.208,0,0.742,0.326,0.742,0.806h9.352h9.352c0-0.48,0.534-0.806,0.742-0.806H305.683
						z"/>
					<path fill="#004B6B" d="M305.377,124.948c0.215,0,0.766,0.337,0.766,0.832h9.648h9.648c0-0.495,0.551-0.832,0.766-0.832v-0.452
						h-20.827V124.948z"/>
					<rect x="304.982" y="123.71" fill="#004B6B" width="21.584" height="0.784"/>
					<rect x="322.424" y="126.128" fill="#004B6B" width="2.534" height="20.957"/>
					<rect x="306.622" y="126.128" fill="#004B6B" width="2.534" height="20.957"/>
					<rect x="306.132" y="148.347" fill="#004B6B" width="19.302" height="0.371"/>
					<rect x="309.692" y="126.859" fill="#00354F" width="12.219" height="19.274"/>
					<rect x="316.103" y="127.309" fill="#235F83" width="5.449" height="3.347"/>
					<rect x="310.053" y="127.309" fill="#235F83" width="5.449" height="3.347"/>
					<rect x="316.103" y="131.063" fill="#235F83" width="5.449" height="3.347"/>
					<rect x="310.053" y="131.063" fill="#235F83" width="5.449" height="3.347"/>
					<rect x="316.103" y="134.817" fill="#235F83" width="5.449" height="3.347"/>
					<rect x="310.053" y="134.817" fill="#235F83" width="5.449" height="3.347"/>
					<rect x="316.103" y="138.572" fill="#235F83" width="5.449" height="3.347"/>
					<rect x="310.053" y="138.572" fill="#235F83" width="5.449" height="3.347"/>
					<rect x="316.103" y="142.326" fill="#235F83" width="5.449" height="3.347"/>
					<rect x="310.053" y="142.326" fill="#235F83" width="5.449" height="3.347"/>
				</g>
				<g>
					<rect x="306.107" y="89.889" fill="#235F83" width="19.406" height="0.35"/>
					<polygon fill="#004B6B" points="305.683,111.197 305.683,111.653 315.787,111.653 325.871,111.653 325.871,111.197 					"/>
					<path fill="#00354F" d="M305.683,111.653c0.208,0,0.742,0.326,0.742,0.806h9.352h9.352c0-0.48,0.534-0.806,0.742-0.806H305.683
						z"/>
					<path fill="#004B6B" d="M305.377,89.06c0.215,0,0.766,0.337,0.766,0.832h9.648h9.648c0-0.495,0.551-0.832,0.766-0.832v-0.452
						h-20.827V89.06z"/>
					<rect x="304.982" y="87.822" fill="#004B6B" width="21.584" height="0.784"/>
					<rect x="322.424" y="90.24" fill="#004B6B" width="2.534" height="20.957"/>
					<rect x="306.622" y="90.24" fill="#004B6B" width="2.534" height="20.957"/>
					<rect x="306.132" y="112.459" fill="#004B6B" width="19.302" height="0.371"/>
					<rect x="309.692" y="90.971" fill="#00354F" width="12.219" height="19.274"/>
					<rect x="316.103" y="91.421" fill="#235F83" width="5.449" height="3.347"/>
					<rect x="310.053" y="91.421" fill="#235F83" width="5.449" height="3.347"/>
					<rect x="316.103" y="95.175" fill="#235F83" width="5.449" height="3.347"/>
					<rect x="310.053" y="95.175" fill="#235F83" width="5.449" height="3.347"/>
					<rect x="316.103" y="98.929" fill="#235F83" width="5.449" height="3.347"/>
					<rect x="310.053" y="98.929" fill="#235F83" width="5.449" height="3.347"/>
					<rect x="316.103" y="102.684" fill="#235F83" width="5.449" height="3.347"/>
					<rect x="310.053" y="102.684" fill="#235F83" width="5.449" height="3.347"/>
					<rect x="316.103" y="106.438" fill="#235F83" width="5.449" height="3.347"/>
					<rect x="310.053" y="106.438" fill="#235F83" width="5.449" height="3.347"/>
				</g>
				<g>
					<rect x="100.289" y="125.777" fill="#235F83" width="19.406" height="0.35"/>
					<polygon fill="#004B6B" points="120.118,147.085 120.118,147.541 110.014,147.541 99.93,147.541 99.93,147.085 					"/>
					<path fill="#00354F" d="M120.118,147.541c-0.208,0-0.742,0.326-0.742,0.806h-9.352h-9.352c0-0.48-0.534-0.806-0.742-0.806
						H120.118z"/>
					<path fill="#004B6B" d="M120.424,124.948c-0.215,0-0.766,0.337-0.766,0.832h-9.648h-9.648c0-0.495-0.551-0.832-0.766-0.832
						v-0.452h20.827V124.948z"/>
					<rect x="99.235" y="123.71" fill="#004B6B" width="21.584" height="0.784"/>
					<rect x="100.844" y="126.128" fill="#004B6B" width="2.534" height="20.957"/>
					<rect x="116.646" y="126.128" fill="#004B6B" width="2.534" height="20.957"/>
					<rect x="100.368" y="148.347" fill="#004B6B" width="19.302" height="0.371"/>
					<rect x="103.89" y="126.859" fill="#00354F" width="12.219" height="19.274"/>
					<rect x="104.25" y="127.309" fill="#235F83" width="5.449" height="3.347"/>
					<rect x="110.299" y="127.309" fill="#235F83" width="5.449" height="3.347"/>
					<rect x="104.25" y="131.063" fill="#235F83" width="5.449" height="3.347"/>
					<rect x="110.299" y="131.063" fill="#235F83" width="5.449" height="3.347"/>
					<rect x="104.25" y="134.817" fill="#235F83" width="5.449" height="3.347"/>
					<rect x="110.299" y="134.817" fill="#235F83" width="5.449" height="3.347"/>
					<rect x="104.25" y="138.572" fill="#235F83" width="5.449" height="3.347"/>
					<rect x="110.299" y="138.572" fill="#235F83" width="5.449" height="3.347"/>
					<rect x="104.25" y="142.326" fill="#235F83" width="5.449" height="3.347"/>
					<rect x="110.299" y="142.326" fill="#235F83" width="5.449" height="3.347"/>
				</g>
				<g>
					<rect x="100.289" y="89.889" fill="#235F83" width="19.406" height="0.35"/>
					<polygon fill="#004B6B" points="120.118,111.197 120.118,111.653 110.014,111.653 99.93,111.653 99.93,111.197 					"/>
					<path fill="#00354F" d="M120.118,111.653c-0.208,0-0.742,0.326-0.742,0.806h-9.352h-9.352c0-0.48-0.534-0.806-0.742-0.806
						H120.118z"/>
					<path fill="#004B6B" d="M120.424,89.06c-0.215,0-0.766,0.337-0.766,0.832h-9.648h-9.648c0-0.495-0.551-0.832-0.766-0.832
						v-0.452h20.827V89.06z"/>
					<rect x="99.235" y="87.822" fill="#004B6B" width="21.584" height="0.784"/>
					<rect x="100.844" y="90.24" fill="#004B6B" width="2.534" height="20.957"/>
					<rect x="116.646" y="90.24" fill="#004B6B" width="2.534" height="20.957"/>
					<rect x="100.368" y="112.459" fill="#004B6B" width="19.302" height="0.371"/>
					<rect x="103.89" y="90.971" fill="#00354F" width="12.219" height="19.274"/>
					<rect x="104.25" y="91.421" fill="#235F83" width="5.449" height="3.347"/>
					<rect x="110.299" y="91.421" fill="#235F83" width="5.449" height="3.347"/>
					<rect x="104.25" y="95.175" fill="#235F83" width="5.449" height="3.347"/>
					<rect x="110.299" y="95.175" fill="#235F83" width="5.449" height="3.347"/>
					<rect x="104.25" y="98.929" fill="#235F83" width="5.449" height="3.347"/>
					<rect x="110.299" y="98.929" fill="#235F83" width="5.449" height="3.347"/>
					<rect x="104.25" y="102.684" fill="#235F83" width="5.449" height="3.347"/>
					<rect x="110.299" y="102.684" fill="#235F83" width="5.449" height="3.347"/>
					<rect x="104.25" y="106.438" fill="#235F83" width="5.449" height="3.347"/>
					<rect x="110.299" y="106.438" fill="#235F83" width="5.449" height="3.347"/>
				</g>
				<g>
					<rect x="204.171" y="89.889" fill="#004B6B" width="19.406" height="0.35"/>
					<polygon fill="#003E5A" points="203.747,111.197 203.747,111.653 213.851,111.653 223.935,111.653 223.935,111.197 					"/>
					<path fill="#00263E" d="M203.747,111.653c0.208,0,0.742,0.326,0.742,0.806h9.352h9.352c0-0.48,0.534-0.806,0.742-0.806H203.747
						z"/>
					<path fill="#003E5A" d="M203.441,89.06c0.215,0,0.766,0.337,0.766,0.832h9.648h9.648c0-0.495,0.551-0.832,0.766-0.832v-0.452
						h-20.827V89.06z"/>
					<rect x="203.046" y="87.822" fill="#003E5A" width="21.584" height="0.784"/>
					<rect x="220.488" y="90.24" fill="#003E5A" width="2.534" height="20.957"/>
					<rect x="204.686" y="90.24" fill="#003E5A" width="2.534" height="20.957"/>
					<rect x="204.195" y="112.459" fill="#003E5A" width="19.302" height="0.371"/>
					<rect x="207.756" y="90.971" fill="#003E5A" width="12.219" height="19.274"/>
					<rect x="214.166" y="91.421" fill="#235F83" width="5.449" height="3.347"/>
					<rect x="208.117" y="91.421" fill="#235F83" width="5.449" height="3.347"/>
					<rect x="214.166" y="95.175" fill="#235F83" width="5.449" height="3.347"/>
					<rect x="208.117" y="95.175" fill="#235F83" width="5.449" height="3.347"/>
					<rect x="214.166" y="98.929" fill="#235F83" width="5.449" height="3.347"/>
					<rect x="208.117" y="98.929" fill="#235F83" width="5.449" height="3.347"/>
					<rect x="214.166" y="102.684" fill="#235F83" width="5.449" height="3.347"/>
					<rect x="208.117" y="102.684" fill="#235F83" width="5.449" height="3.347"/>
					<rect x="214.166" y="106.438" fill="#235F83" width="5.449" height="3.347"/>
					<rect x="208.117" y="106.438" fill="#235F83" width="5.449" height="3.347"/>
				</g>
			</g>
		</g>
	</g>
	<text transform="matrix(1 0 0 1 197.6837 62.9645)" fill="#FFFFFF" font-family="'AvenirNext-Bold'" font-size="17.6821">SSA</text>
</g>
<rect x="-0.562" y="285.954" fill="#B4A680" width="430.862" height="368.857"/>
<g>
	<g>
		<ellipse fill="#908667" cx="104.349" cy="258.975" rx="18.414" ry="2.374"/>
		<g>
			<polygon fill="#EB6479" points="107.273,115.889 114.819,123.189 110.703,123.881 114.425,139.467 91.784,141.758 
				93.541,112.037 105.569,110.82 			"/>
			<path d="M108.163,122.334c-0.758,0-1.523-0.531-1.827-1.288c-0.039-0.1,0.009-0.212,0.108-0.252
				c0.099-0.038,0.212,0.009,0.252,0.108c0.288,0.719,1.034,1.084,1.583,1.039c0.24-0.023,0.659-0.151,0.769-0.739
				c0.02-0.105,0.119-0.175,0.227-0.155c0.106,0.02,0.175,0.121,0.155,0.227c-0.113,0.602-0.529,0.996-1.113,1.053
				C108.266,122.332,108.214,122.334,108.163,122.334z"/>
			<path d="M107.943,129.478c1.202-0.001,3.215,1.218,3.762,2.582c0.04,0.1-0.009,0.212-0.108,0.252
				c-0.099,0.039-0.212-0.009-0.252-0.108c-0.503-1.254-2.454-2.415-3.496-2.335c-0.124-0.004-0.201-0.072-0.209-0.178
				c-0.008-0.107,0.072-0.201,0.178-0.209C107.858,129.48,107.9,129.478,107.943,129.478z"/>
			<g>
				<path fill="#6C707A" d="M91.79,111.354l0.436,23.714h11.019l0.743-7.47c-0.064,0.005-0.128,0.01-0.194,0.01
					c-1.272,0-2.303-1.031-2.303-2.303c0-1.272,1.031-2.303,2.303-2.303c0.223,0,0.438,0.033,0.641,0.092l0.692-6.958l2.146-0.247
					l3.388-6.538L91.79,111.354z"/>
			</g>
		</g>
		<g>
			<path fill="#003E5A" d="M114.631,139.447c9.068,4.95,17.802,23.475,14.957,48.839h-3.545
				c0.711-11.615-0.474-32.001-15.171-38.875L114.631,139.447z"/>
			<path fill="#EB6479" d="M126.183,188.293c-0.97,0.45-3.243,0.709-2.923,1.923c0.206,0.781,0.871,0.814,2.508,0.247
				c0.165,1.398-1.521,3.578,0.329,3.66c2.137,0.095,3.087,0.094,3.087,0.094c1.54-0.009,1.875-4.272,0.223-5.924H126.183z"/>
			<path fill="#003E5A" d="M91.91,139.455c-5.926,10.312-3.84,38.772,1.056,55.554h21.746c0.474-17.113,0.903-41.074-0.046-55.554
				H91.91z"/>
			<polygon fill="#003E5A" points="114.712,194.216 114.192,259.399 103.762,259.399 109.688,253.945 103.589,194.781 
				110.873,190.049 			"/>
			<polygon fill="#003E5A" points="104.107,194.781 103.999,259.399 93.569,259.399 99.495,253.945 92.728,193.956 100.68,190.049 
							"/>
			<path fill="#EB6479" d="M129.428,192.313c-1.105,0.028-0.676-1.208-1.54-1.25c-0.864-0.041-2.942-0.19-3.189,0.304
				c-0.329,0.617-0.181,2.596,1.168,2.75c1.812,0.118,2.368,0.088,3.108,0.088C129.757,194.163,129.428,193.176,129.428,192.313z"/>
			<g>
				<path fill="#002B44" d="M88.719,170.364c4.545-6.839,8.392-14.438,11.36-21.531c2.6-5.449-6.068-11.393-8.606-3.096
					c-0.958,3.436-1.971,6.674-3.035,9.738C88.196,160.129,88.312,165.217,88.719,170.364z"/>
			</g>
			<path fill="#EB6479" d="M67.84,184.666l-1.424-0.229c-1.108,0.572-4.293,0.303-4.507,1.29c-0.215,0.987,0.884,0.666,1.871,0.452
				c-1.646,1.452-3.323,0.968-3.388,2.484c-0.029,0.687,1.952,2.956,3.033,2.549c2.226-0.839,3.259-1.904,4.766-3.422l0.765-1.665
				L67.84,184.666z"/>
			<path fill="#003E5A" d="M89.902,144.166c-5.72,20.514-13.229,34.551-23.486,40.272l1.775,3.353
				c13.134-6.977,23.816-24.989,30.317-40.529C101.108,141.813,92.44,135.869,89.902,144.166z"/>
		</g>
	</g>
	<g>
		<path fill="#FFFFFF" d="M99.101,93.62l-0.105-1.36c-0.314-2.823,0.628-5.909,3.242-9.047c2.353-2.771,3.661-4.81,3.661-7.164
			c0-2.667-1.673-4.445-4.968-4.497c-1.883,0-3.974,0.627-5.282,1.621l-1.255-3.294c1.726-1.255,4.706-2.092,7.478-2.092
			c6.014,0,8.733,3.713,8.733,7.687c0,3.556-1.987,6.119-4.497,9.099c-2.301,2.72-3.137,5.02-2.98,7.687l0.052,1.36H99.101z
			 M97.95,100.94c0-1.935,1.307-3.294,3.137-3.294s3.085,1.36,3.085,3.294c0,1.831-1.203,3.242-3.138,3.242
			C99.205,104.182,97.95,102.771,97.95,100.94z"/>
	</g>
</g>
<g>
	<g>
		<g>
			<g>
				<path fill="#FFFFFF" d="M207.787,130.313l-0.105-1.36c-0.314-2.823,0.628-5.909,3.242-9.047c2.353-2.771,3.661-4.81,3.661-7.164
					c0-2.667-1.673-4.445-4.968-4.497c-1.883,0-3.974,0.627-5.282,1.621l-1.255-3.294c1.726-1.255,4.706-2.092,7.478-2.092
					c6.014,0,8.733,3.713,8.733,7.687c0,3.556-1.987,6.119-4.497,9.099c-2.301,2.72-3.137,5.02-2.98,7.687l0.052,1.36H207.787z
					 M206.636,137.634c0-1.935,1.307-3.294,3.137-3.294c1.83,0,3.085,1.36,3.085,3.294c0,1.831-1.203,3.242-3.138,3.242
					C207.891,140.876,206.636,139.464,206.636,137.634z"/>
			</g>
			<ellipse fill="#908667" cx="209.015" cy="293.851" rx="21.996" ry="2.992"/>
			<g>
				<path fill="#EB6479" d="M224.072,222.162c-0.111,1.005-0.841,2.159-1.26,3.309c-0.301,0.812,0.511,1.454,1.244-0.524
					c-0.485,1.991-1.531,3.982,0.603,3.982c1.881,0,2.122-1.868,1.67-6.776l-0.193-1.942h-1.825L224.072,222.162z"/>
				<g>
					<polygon fill="#EB6479" points="208.785,238.762 207.378,294.415 201.458,294.415 204.822,289.342 202.326,238.521 
						205.959,232.482 					"/>
					<g>
						<polygon fill="#243129" points="201.458,294.415 207.378,294.415 207.515,288.932 204.799,288.932 204.821,289.342 						"/>
					</g>
				</g>
				<g>
					<polygon fill="#EB6479" points="209.748,238.762 211.155,294.415 217.075,294.415 213.711,289.342 216.207,238.521 
						212.574,232.482 					"/>
					<g>
						<polygon fill="#243129" points="217.075,294.415 211.154,294.415 211.017,288.932 213.734,288.932 213.711,289.342 						"/>
					</g>
				</g>
				<g>
					<path fill="#6C707A" d="M209.091,174.23c2.22,3.694,13.411,5.264,17.111,2.032c-4.625,0.462-4.81-3.232-2.22-13.114
						c2.59-12.837-9.342-18.008-14.891-18.008c-5.549,0-17.481,5.172-14.891,18.008c2.59,9.881,2.405,13.575-2.22,13.114
						C195.679,179.494,206.871,177.924,209.091,174.23z"/>
					<ellipse fill="#EB6479" cx="197.183" cy="162.871" rx="2.482" ry="2.493"/>
					<ellipse fill="#EB6479" cx="220.969" cy="162.871" rx="2.482" ry="2.493"/>
					<path fill="#EB6479" d="M211.157,148.938h-3.802c-7.525,0.843-11.112,4.473-11.112,11.927c0,5.388,2.663,9.705,6.298,11.688
						c5.912,3.224,4.238,4.937,3.653,6.411c0,0.933,1.234,2.047,3.018,2.047c1.784,0,3.018-1.115,3.018-2.047h0.001
						c-0.586-1.474-2.171-3.187,3.74-6.411c3.635-1.982,6.298-6.299,6.298-11.688C222.268,153.411,218.682,149.781,211.157,148.938z
						"/>
					<path fill="#6C707A" d="M208.652,146.248c6.067,0,11.399,2.947,13.42,6.372c0.551,1.201,2.483,2.585,3.954,1.939
						c-2.849,6.649-27.485,6.927-30.518,4.064c-1.655-0.924,0.838-4.884,2.085-6.576
						C199.288,149.749,204.24,146.341,208.652,146.248z"/>
					<path fill="#223129" d="M201.315,164.104c-0.059,0-0.118-0.002-0.176-0.006c-1.073-0.078-2.142-0.892-2.111-2.298l0.486,0.011
						c-0.026,1.152,0.842,1.741,1.66,1.801c0.831,0.061,1.741-0.431,1.891-1.667l0.482,0.059
						C203.369,163.472,202.326,164.104,201.315,164.104z"/>
					<path fill="#223129" d="M217.067,164.104c-1.011,0-2.053-0.632-2.232-2.1l0.482-0.059c0.15,1.235,1.053,1.727,1.892,1.667
						c0.817-0.06,1.686-0.648,1.66-1.801l0.486-0.011c0.031,1.405-1.038,2.22-2.11,2.298
						C217.185,164.102,217.126,164.104,217.067,164.104z"/>
					<path fill="#223129" d="M211.862,169.753c0.75,0.016,1.441,0.224,1.617,0.63l-0.445,0.194
						c-0.088-0.203-0.982-0.458-1.973-0.274c-0.607,0.112-1.632,0.464-1.684,1.564l-0.484-0.023c0.049-1.049,0.807-1.785,2.08-2.02
						C211.259,169.77,211.565,169.746,211.862,169.753z"/>
					<path fill="#223129" d="M209.232,167.629l-3.616-0.57l0.711-0.29c1.717-0.701,2.654-3.552,2.654-4.82h0.426
						c0,1.258-0.805,3.821-2.351,4.904l2.243,0.353L209.232,167.629z"/>
				</g>
				<path fill="#604373" d="M212.332,178.964h-6.132c-5.972,16.907-5.553,41.66-6.143,70.866h18.419
					C217.885,220.624,218.305,195.871,212.332,178.964z"/>
				<polygon fill="#FFFFFF" points="209.27,178.946 212.029,177.241 213.111,179.122 211.193,181.589 209.266,210.386 
					207.339,181.589 205.421,179.122 206.503,177.241 				"/>
			</g>
		</g>
		<path fill="#EB6479" d="M224.072,222.162c-0.111,1.005-0.841,2.159-1.26,3.309c-0.301,0.812,0.511,1.454,1.244-0.524
			c-0.485,1.991-1.531,3.982,0.603,3.982c1.881,0,2.122-1.868,1.67-6.776l-0.193-1.942h-1.825L224.072,222.162z"/>
	</g>
	<path fill="#604373" d="M212.602,179.778c11.509,11.136,13.707,19.109,13.732,42.384h-2.262
		c-0.555-8.612-1.015-26.892-11.506-34.823L212.602,179.778z"/>
</g>
<path fill="#EB6479" d="M193.899,155.478c0.648-0.776,1.894-1.334,2.88-2.061c0.7-0.51,0.378-1.494-1.327-0.251
	c1.505-1.391,3.478-2.471,1.7-3.651c-1.568-1.04-2.801,0.383-5.138,4.723l-0.913,1.725l1.521,1.009L193.899,155.478z"/>
<path fill="#604373" d="M204.497,189.452c-15.537-9.952-20.455-24.531-13.395-33.488l1.521,1.009
	c-4.981,7.487,1.199,24.629,12.799,26.402L204.497,189.452z"/>
<g>
	<path fill="#EB6479" d="M288.246,121.182l0.973-0.596c0.722-1.726,1.224-2.793,1.569-3.515c0.282-0.69-0.722-1.475-1.6,0.785
		c0.439-1.663,1.977-3.421,0.816-4.08c-1.161-0.659-3.264-1.287-3.954,1.569c-0.314,2.04-0.44,3.713-0.377,4.713l0.91,1.595
		L288.246,121.182z"/>
	<path fill="#3F4450" d="M300.3,169.035c-8.688-6.921-18.049-32.018-14.627-48.978l3.609,0.466
		c-0.827,10.22,0.858,28.044,16.172,40.266C309.725,164.911,303.687,171.98,300.3,169.035z"/>
</g>
<g>
	<g>
		<g>
			<polygon fill="#EB6479" points="314.465,152.03 316.502,138.463 321.465,137.507 312.677,121.39 295.567,122.946 
				298.929,153.443 			"/>
			<path fill="#6C707A" d="M315.429,120.514c0.357,6.218-7.928,8.067-12.052,7.4l-3.275,13.788l-2.439,0.222l-3.377-20.805
				L315.429,120.514z"/>
			<circle fill="#EB6479" cx="301.696" cy="134.631" r="3.009"/>
			<path fill="#243129" d="M307.094,144.601c-0.181,0.069-0.354,0.144-0.52,0.225l0.193,0.392c1.838-0.884,4.676-1.03,6.596,0.434
				l0.265-0.349C311.742,143.866,309.031,143.862,307.094,144.601z"/>
			
				<rect x="309.146" y="130.087" transform="matrix(-0.3214 0.9469 -0.9469 -0.3214 534.8865 -117.1853)" fill="#243129" width="0.573" height="5.952"/>
		</g>
		<polygon fill="#FFFFFF" points="314.536,152.842 326.235,188.434 324.102,196.299 318.569,189.9 311.626,153.387 		"/>
		<ellipse fill="#908667" cx="306.91" cy="269.073" rx="21.996" ry="2.992"/>
		<polygon fill="#3F4450" points="297.19,206.614 294.472,269.686 304.981,269.686 299.01,264.19 308.654,206.353 302.206,199.81 		
			"/>
		<polygon fill="#3F4450" points="307.994,206.614 312.68,269.686 323.189,269.686 317.218,264.19 319.458,206.353 313.009,199.81 
					"/>
		<path fill="#3F4450" d="M298.749,152.137h15.589c0,0,9.609,18.286,9.609,57.184H295.48
			C295.731,183.316,296.737,166.218,298.749,152.137z"/>
	</g>
	<g>
		<path fill="#FFFFFF" d="M303.528,104.312l-0.105-1.36c-0.314-2.823,0.628-5.909,3.242-9.047c2.353-2.771,3.661-4.81,3.661-7.164
			c0-2.667-1.673-4.445-4.968-4.497c-1.883,0-3.974,0.627-5.282,1.621l-1.255-3.294c1.726-1.255,4.706-2.092,7.478-2.092
			c6.014,0,8.733,3.713,8.733,7.687c0,3.556-1.987,6.119-4.497,9.099c-2.301,2.72-3.137,5.02-2.98,7.687l0.052,1.36H303.528z
			 M302.378,111.633c0-1.935,1.307-3.294,3.137-3.294c1.83,0,3.085,1.36,3.085,3.294c0,1.831-1.203,3.242-3.138,3.242
			C303.633,114.875,302.378,113.464,302.378,111.633z"/>
	</g>
</g>
<g>
	<path fill="#2C3038" d="M309.825,160.701c-4.265-0.362-2.43,9.78,4.653,6.901c10.273-5.375,8.324-4.94,8.324-4.94
		s-3.84-2.683-5.318-4.163C314.729,167.605,317.496,161.352,309.825,160.701z"/>
</g>
<g>
	<path fill="#EB6479" d="M332.445,125.944c0.13-1.194-0.641-5.378,0.306-5.497c0.601-0.075,0.605,0.27,0.929,1.57
		c0.77-1.483,2.068-2.718,3.185-1.24c1.29,1.706,1.561,2.545,1.561,2.545c0.512,1.629-1.85,0.492-3.037,3.251L332.445,125.944z"/>
	<path fill="#3F4450" d="M308.535,160.59c19.037-6,23.43-28.236,23.907-34.873l2.977,0.774c1.996,20.753-11.002,35.125-22.231,41
		C306.105,170.37,304.472,161.939,308.535,160.59z"/>
</g>
</svg>
