<?xml version="1.0" encoding="utf-8"?>
<!-- Generator: Adobe Illustrator 21.1.0, SVG Export Plug-In . SVG Version: 6.00 Build 0)  -->
<!DOCTYPE svg PUBLIC "-//W3C//DTD SVG 1.1//EN" "http://www.w3.org/Graphics/SVG/1.1/DTD/svg11.dtd">
<svg version="1.1" id="Layer_1" xmlns="http://www.w3.org/2000/svg" xmlns:xlink="http://www.w3.org/1999/xlink" x="0px" y="0px"
	 viewBox="0 0 12 16" style="enable-background:new 0 0 12 16;" xml:space="preserve">
<style type="text/css">
	.st0{fill:#CF473A;}
	.st1{fill:#FFFFFF;}
</style>
<title>arrow-long</title>
<path class="st0" d="M6,0C2.7,0,0,2.7,0,6c0,4,6,10,6,10s6-6,6-10C12,2.7,9.3,0,6,0z"/>
<g>
	<path class="st1" d="M3.8,4.3v4.3h4.4V4.3H3.8z M5,8C4.8,8,4.6,7.9,4.4,7.8V6.5C4.6,6.6,4.8,6.7,5,6.8C5.4,7,5.7,7.2,5.7,7.5
		C5.7,7.7,5.4,8,5,8z M5.7,6.4C5.5,6.3,5.4,6.2,5.1,6.1C4.7,5.9,4.4,5.7,4.4,5.5c0-0.3,0.2-0.4,0.6-0.4c0.2,0,0.4,0,0.6,0.1V6.4z
		 M7.6,8.1H6.4V6.9h1.2V8.1z M7.6,6.2H6.4V5h1.2V6.2z"/>
</g>
</svg>
