<?xml version="1.0" encoding="utf-8"?>
<!-- Generator: Adobe Illustrator 17.0.0, SVG Export Plug-In . SVG Version: 6.00 Build 0)  -->
<!DOCTYPE svg PUBLIC "-//W3C//DTD SVG 1.1//EN" "http://www.w3.org/Graphics/SVG/1.1/DTD/svg11.dtd">
<svg version="1.1" id="Layer_1" xmlns="http://www.w3.org/2000/svg" xmlns:xlink="http://www.w3.org/1999/xlink" x="0px" y="0px"
	 width="430px" height="654px" viewBox="0 0 430 654" enable-background="new 0 0 430 654" xml:space="preserve">
<rect x="0.418" y="0.248" fill="#34BFC2" width="429.582" height="653.815"/>
<g>
	<path fill="#FFFFFF" d="M335.363,235.061c0-5.584,4.543-10.127,10.127-10.127c0.549,0,1.102,0.046,1.649,0.136
		c1.948-6.657,8.103-11.281,15.068-11.281c5.839,0,11.131,3.187,13.867,8.334c0.659-0.114,1.326-0.172,1.986-0.172
		c3.692,0,7.179,1.771,9.366,4.748c0.284-0.026,0.564-0.039,0.837-0.039c5.108,0,9.263,4.156,9.263,9.264
		c0,5.01-3.921,9.075-8.937,9.255c0,0-43.036,0.008-43.1,0.008C339.906,245.187,335.363,240.645,335.363,235.061z"/>
	<polygon fill="#FFD999" points="360.735,271.287 370.623,271.274 364.148,247.422 352.063,247.422 360.924,264.305 
		348.611,264.305 370.925,297.825 	"/>
	<polygon fill="#FFD999" points="377.681,263.461 384.326,263.452 379.974,247.422 371.852,247.422 377.807,258.769 
		369.532,258.769 384.529,281.296 	"/>
</g>
<g>
	<path fill="#FFFFFF" d="M299.856,45.33c0-5.742,4.672-10.414,10.414-10.414c0.564,0,1.133,0.047,1.696,0.14
		c2.004-6.846,8.333-11.601,15.495-11.601c6.005,0,11.447,3.277,14.261,8.57c0.678-0.117,1.364-0.176,2.043-0.176
		c3.796,0,7.382,1.822,9.632,4.882c0.292-0.026,0.58-0.04,0.861-0.04c5.253,0,9.526,4.274,9.526,9.526
		c0,5.152-4.032,9.333-9.191,9.518c0,0-44.257,0.009-44.323,0.009C304.527,55.744,299.856,51.073,299.856,45.33z"/>
	<g>
		<polygon fill="#FFD999" points="337.503,91.822 336.794,91.822 323.559,58.042 324.268,58.042 		"/>
		<polygon fill="#FFD999" points="340.577,91.822 339.868,91.822 326.633,58.042 327.342,58.042 		"/>
		<polygon fill="#FFD999" points="343.651,91.822 342.941,91.822 329.707,58.042 330.416,58.042 		"/>
		<polygon fill="#FFD999" points="346.725,91.822 346.015,91.822 332.781,58.042 333.49,58.042 		"/>
		<polygon fill="#FFD999" points="349.798,91.822 349.089,91.822 335.854,58.042 336.564,58.042 		"/>
		<polygon fill="#FFD999" points="352.872,91.822 352.163,91.822 338.928,58.042 339.638,58.042 		"/>
		<polygon fill="#FFD999" points="355.946,91.822 355.237,91.822 342.002,58.042 342.711,58.042 		"/>
	</g>
</g>
<g>
	<path fill="#FFFFFF" d="M27.593,166.031c0-8.443,6.868-15.311,15.311-15.311c0.829,0,1.667,0.069,2.494,0.205
		c2.946-10.065,12.251-17.056,22.782-17.056c8.829,0,16.83,4.818,20.967,12.601c0.996-0.172,2.005-0.259,3.003-0.259
		c5.581,0,10.854,2.678,14.161,7.178c0.429-0.039,0.853-0.059,1.265-0.059c7.723,0,14.006,6.283,14.006,14.006
		c0,7.575-5.928,13.721-13.512,13.993c0,0-65.068,0.013-65.165,0.013C34.461,181.342,27.593,174.474,27.593,166.031z"/>
	<g>
		<polygon fill="#FFD999" points="82.943,234.385 81.9,234.385 62.442,184.721 63.485,184.721 		"/>
		<polygon fill="#FFD999" points="87.462,234.385 86.419,234.385 66.961,184.721 68.004,184.721 		"/>
		<polygon fill="#FFD999" points="91.981,234.385 90.938,234.385 71.48,184.721 72.523,184.721 		"/>
		<polygon fill="#FFD999" points="96.5,234.385 95.457,234.385 75.999,184.721 77.042,184.721 		"/>
		<polygon fill="#FFD999" points="101.02,234.385 99.977,234.385 80.519,184.721 81.562,184.721 		"/>
		<polygon fill="#FFD999" points="105.539,234.385 104.496,234.385 85.038,184.721 86.081,184.721 		"/>
		<polygon fill="#FFD999" points="110.058,234.385 109.015,234.385 89.557,184.721 90.6,184.721 		"/>
	</g>
</g>
<g>
	<path fill="#FFFFFF" d="M200.416,78.397c0-3.51,2.855-6.365,6.365-6.365c0.345,0,0.693,0.029,1.037,0.085
		c1.225-4.184,5.093-7.09,9.471-7.09c3.67,0,6.996,2.003,8.716,5.238c0.414-0.072,0.833-0.108,1.249-0.108
		c2.32,0,4.512,1.113,5.887,2.984c0.178-0.016,0.355-0.024,0.526-0.024c3.21,0,5.822,2.612,5.822,5.822
		c0,3.149-2.464,5.704-5.617,5.817c0,0-27.05,0.005-27.09,0.005C203.271,84.762,200.416,81.906,200.416,78.397z"/>
	<polygon fill="#FFD999" points="222.047,96.247 226.224,96.242 223.488,86.166 218.384,86.166 222.126,93.298 216.925,93.298 
		226.351,107.457 	"/>
</g>
<g>
	<g>
		<path fill="#E9E8D8" d="M178.701,110.376c-40.593-12.617-81.187,6.115-121.779,4.268c-8.419-8.573-16.838-18.031-25.257-28.837
			c40.593,12.616,81.187-6.115,121.78-4.268C161.864,90.111,170.282,99.569,178.701,110.376z"/>
		<g>
			<path fill="#818277" d="M37.287,88.914c7.341,8.92,14.683,16.893,22.024,24.226c37.913,0.99,75.825-15.082,113.738-5.913
				c-7.341-8.917-14.683-16.888-22.024-24.22C113.112,82.028,75.2,98.098,37.287,88.914z M163.108,104.682
				c-31.734-4.253-63.469,6.589-95.202,7.717c-2.007-1.634-6.659-2.921-10.898-3.267c-4.676-4.758-9.351-9.789-14.027-15.171
				c3.888,0.536,5.715-0.64,4.321-2.481c31.742,4.24,63.481-6.61,95.222-7.725c2.043,1.585,6.576,2.83,10.724,3.181
				c4.677,4.755,9.354,9.781,14.03,15.16C163.383,101.581,161.592,102.799,163.108,104.682z"/>
		</g>
		<path fill="#818277" d="M82.911,101.187c-5.244-4.588,0.437-9.123,12.688-10.921c12.254-1.883,26.437,0.038,31.687,4.653
			c5.246,4.583-0.429,9.124-12.688,10.927C102.344,107.732,88.157,105.805,82.911,101.187z"/>
		<path fill="#818277" d="M60.757,102.783c-1.624-1.621,0.133-2.819,3.926-2.859c3.791-0.039,8.184,0.965,9.806,2.415
			c1.623,1.445-0.131,2.9-3.927,3.108C66.773,105.663,62.378,104.401,60.757,102.783z"/>
		<path fill="#818277" d="M57.944,102.705c-2.273-2.335,0.2-3.927,5.512-3.931c5.319-0.003,11.495,1.336,13.771,3.337
			c2.274,1.989-0.196,4.091-5.513,4.423C66.4,106.884,60.218,105.036,57.944,102.705z M76.16,102.202
			c-2.025-1.79-7.52-3.009-12.247-2.987c-4.728,0.021-6.931,1.469-4.902,3.524c2.024,2.051,7.514,3.67,12.245,3.376
			C75.982,105.831,78.187,103.986,76.16,102.202z"/>
		<g>
			<path fill="#E9E8D8" d="M113.232,105.615c-0.578-0.475-1.154-0.95-1.733-1.424c-2.375,0.256-4.407,0.385-6.106,0.376
				c-1.694-0.009-3.376-0.186-5.027-0.538c-1.65-0.351-3.013-0.885-4.079-1.6c1.411-0.316,2.819-0.635,4.229-0.958
				c1.283,0.707,2.587,1.172,3.912,1.388c1.888,0.304,3.762,0.348,5.61,0.133c-1.836-1.505-3.673-3.007-5.511-4.509
				c-2.001,0.18-4.175,0.25-6.541,0.201c-1.75-0.035-3.286-0.222-4.614-0.564c-1.325-0.341-2.335-0.803-3.028-1.382
				c-1.228-1.032-1.084-2.019,0.432-2.969c1.016-0.64,2.967-1.216,5.854-1.759c-0.276-0.227-0.552-0.454-0.828-0.682
				c0.889-0.132,1.779-0.264,2.668-0.4c0.276,0.226,0.551,0.453,0.828,0.679c2.731-0.322,5.114-0.407,7.153-0.245
				c2.608,0.208,4.662,0.73,6.161,1.572c-1.47,0.309-2.942,0.621-4.413,0.936c-0.948-0.514-2.029-0.853-3.236-1.018
				c-1.21-0.165-2.611-0.179-4.202-0.046c1.665,1.362,3.328,2.722,4.991,4.082c2.501-0.177,4.18-0.268,5.041-0.282
				c1.649-0.02,3.088,0.044,4.313,0.195c1.23,0.149,2.317,0.388,3.264,0.71c0.948,0.322,1.688,0.714,2.237,1.17
				c1.197,1.006,1.2,1.979,0.006,2.919c-1.197,0.942-3.35,1.653-6.463,2.174c0.584,0.481,1.167,0.963,1.751,1.445
				C115.01,105.35,114.121,105.481,113.232,105.615z M98.072,93.198c-1.658,0.351-2.776,0.775-3.358,1.285
				c-0.577,0.511-0.57,1.007,0.026,1.503c0.589,0.489,1.516,0.832,2.777,1.029c1.264,0.199,3.041,0.233,5.344,0.108
				C101.265,95.818,99.669,94.51,98.072,93.198z M112.706,102.587c1.68-0.332,2.841-0.788,3.491-1.368
				c0.649-0.581,0.604-1.175-0.131-1.786c-0.629-0.522-1.539-0.879-2.735-1.07c-1.194-0.193-3.154-0.229-5.895-0.096
				C109.193,99.703,110.95,101.142,112.706,102.587z"/>
		</g>
		<path fill="#818277" d="M150.739,94.302c0.678-0.074,1.356-0.143,2.034-0.207c-0.867-0.125-1.733-0.241-2.599-0.349
			c0.572-0.133,1.146-0.264,1.718-0.39c-0.833-0.061-1.667-0.113-2.5-0.158c0.45-0.189,0.9-0.376,1.349-0.56
			c-0.775,0.007-1.55,0.021-2.326,0.041c0.314-0.238,0.627-0.473,0.941-0.708c-0.694,0.073-1.388,0.153-2.081,0.237
			c0.168-0.276,0.335-0.552,0.503-0.827c-0.591,0.137-1.182,0.277-1.773,0.422c0.016-0.304,0.032-0.608,0.05-0.913
			c-0.47,0.194-0.94,0.39-1.411,0.588c-0.135-0.321-0.271-0.641-0.405-0.961c-0.335,0.241-0.67,0.484-1.005,0.728
			c-0.283-0.324-0.564-0.648-0.848-0.97c-0.19,0.279-0.379,0.557-0.569,0.836c-0.421-0.315-0.843-0.629-1.264-0.941
			c-0.039,0.303-0.078,0.607-0.116,0.91c-0.548-0.295-1.094-0.586-1.643-0.876c0.114,0.316,0.226,0.631,0.34,0.947
			c-0.657-0.264-1.313-0.524-1.97-0.78c0.262,0.316,0.524,0.631,0.786,0.947c-0.746-0.223-1.493-0.443-2.239-0.658
			c0.402,0.304,0.806,0.608,1.208,0.914c-0.813-0.177-1.626-0.349-2.438-0.516c0.531,0.281,1.062,0.564,1.593,0.85
			c-0.855-0.126-1.711-0.245-2.566-0.359c0.644,0.249,1.288,0.502,1.932,0.757c-0.871-0.071-1.743-0.135-2.614-0.194
			c0.737,0.21,1.474,0.425,2.21,0.644c-0.862-0.015-1.722-0.024-2.583-0.028c0.807,0.166,1.614,0.337,2.421,0.512
			c-0.824,0.04-1.648,0.086-2.472,0.137c0.853,0.118,1.705,0.24,2.558,0.368c-0.763,0.094-1.526,0.192-2.288,0.294
			c0.873,0.067,1.745,0.138,2.618,0.217c-0.678,0.143-1.356,0.289-2.034,0.439c0.866,0.015,1.733,0.035,2.599,0.061
			c-0.571,0.187-1.144,0.378-1.718,0.57c0.833-0.036,1.667-0.067,2.5-0.092c-0.45,0.226-0.9,0.455-1.349,0.684
			c0.775-0.085,1.55-0.165,2.326-0.24c-0.314,0.258-0.628,0.519-0.94,0.78c0.693-0.131,1.388-0.258,2.081-0.381
			c-0.168,0.286-0.335,0.572-0.503,0.857c0.591-0.174,1.183-0.344,1.773-0.512c-0.016,0.305-0.032,0.61-0.05,0.915
			c0.47-0.213,0.94-0.422,1.411-0.631c0.135,0.318,0.27,0.636,0.405,0.954c0.335-0.247,0.669-0.492,1.004-0.738
			c0.283,0.323,0.567,0.647,0.848,0.972c0.19-0.277,0.38-0.553,0.569-0.829c0.421,0.322,0.844,0.645,1.264,0.971
			c0.039-0.302,0.078-0.604,0.116-0.906c0.547,0.313,1.096,0.63,1.642,0.949c-0.113-0.322-0.227-0.643-0.34-0.965
			c0.657,0.297,1.314,0.599,1.97,0.905c-0.263-0.335-0.523-0.67-0.785-1.003c0.746,0.273,1.492,0.553,2.238,0.839
			c-0.403-0.342-0.805-0.682-1.209-1.02c0.813,0.242,1.626,0.491,2.439,0.748c-0.531-0.34-1.062-0.677-1.594-1.011
			c0.856,0.203,1.71,0.414,2.566,0.634c-0.643-0.329-1.287-0.654-1.931-0.973c0.872,0.157,1.743,0.322,2.614,0.497
			c-0.737-0.309-1.473-0.61-2.21-0.905c0.862,0.104,1.722,0.218,2.583,0.34c-0.806-0.277-1.615-0.546-2.421-0.808
			c0.823,0.047,1.648,0.102,2.472,0.166c-0.853-0.235-1.704-0.462-2.558-0.68c0.762-0.013,1.525-0.019,2.288-0.019
			C152.485,94.643,151.612,94.468,150.739,94.302z"/>
		<path fill="#E9E8D8" d="M136.759,94.396c-1.473-1.316,0.123-2.621,3.553-2.799c3.431-0.184,7.408,0.954,8.874,2.412
			c1.47,1.46-0.126,2.554-3.554,2.593C142.2,96.64,138.228,95.714,136.759,94.396z"/>
		<g>
			<path fill="#818277" d="M145.281,96.585c-0.169-0.161-0.336-0.322-0.506-0.483c-0.692-0.017-1.292-0.056-1.787-0.119
				c-0.498-0.063-0.987-0.173-1.472-0.331c-0.483-0.156-0.88-0.354-1.194-0.595c0.413-0.051,0.826-0.1,1.238-0.149
				c0.377,0.249,0.755,0.429,1.145,0.54c0.557,0.155,1.103,0.238,1.641,0.246c-0.537-0.51-1.075-1.018-1.613-1.523
				c-0.581-0.019-1.218-0.071-1.913-0.159c-0.515-0.066-0.963-0.162-1.351-0.297c-0.39-0.134-0.685-0.293-0.886-0.478
				c-0.357-0.329-0.322-0.618,0.127-0.859c0.297-0.165,0.865-0.288,1.712-0.36c-0.08-0.074-0.161-0.149-0.241-0.223
				c0.259-0.013,0.521-0.025,0.78-0.037c0.081,0.075,0.161,0.15,0.241,0.224c0.799-0.007,1.498,0.051,2.094,0.175
				c0.76,0.158,1.365,0.389,1.804,0.693c-0.431,0.033-0.862,0.068-1.292,0.106c-0.277-0.187-0.598-0.325-0.948-0.417
				c-0.356-0.091-0.764-0.144-1.23-0.158c0.487,0.454,0.974,0.91,1.462,1.369c0.735,0.039,1.225,0.076,1.476,0.106
				c0.481,0.057,0.903,0.134,1.261,0.225c0.36,0.091,0.68,0.206,0.955,0.336c0.273,0.132,0.498,0.276,0.655,0.43
				c0.35,0.344,0.352,0.625,0.002,0.854c-0.345,0.227-0.979,0.354-1.891,0.383c0.172,0.163,0.341,0.327,0.512,0.491
				C145.803,96.577,145.542,96.58,145.281,96.585z M140.846,92.408c-0.49,0.052-0.814,0.146-0.983,0.278
				c-0.167,0.134-0.171,0.28,0.008,0.441c0.168,0.16,0.442,0.284,0.813,0.381c0.369,0.094,0.89,0.163,1.563,0.205
				C141.779,93.277,141.312,92.842,140.846,92.408z M145.128,95.678c0.489-0.033,0.832-0.12,1.021-0.264
				c0.189-0.142,0.177-0.32-0.038-0.528c-0.187-0.176-0.454-0.32-0.801-0.42c-0.347-0.102-0.926-0.19-1.725-0.253
				C144.1,94.699,144.614,95.187,145.128,95.678z"/>
		</g>
		<g>
			<path fill="#E9E8D8" d="M69.799,105.187c-0.167-0.156-0.338-0.312-0.506-0.469c-0.695,0.001-1.29-0.032-1.787-0.097
				c-0.5-0.061-0.989-0.178-1.472-0.344c-0.485-0.164-0.883-0.375-1.193-0.626c0.412-0.037,0.826-0.076,1.237-0.117
				c0.376,0.255,0.756,0.44,1.144,0.552c0.553,0.158,1.101,0.234,1.642,0.233c-0.538-0.501-1.076-1.004-1.614-1.51
				c-0.581-0.019-1.219-0.082-1.913-0.187c-0.517-0.08-0.961-0.192-1.351-0.346c-0.388-0.151-0.679-0.327-0.885-0.523
				c-0.362-0.35-0.321-0.634,0.127-0.852c0.293-0.148,0.868-0.237,1.711-0.285c-0.08-0.077-0.161-0.154-0.241-0.231
				c0.261-0.003,0.521-0.008,0.781-0.013c0.08,0.077,0.161,0.153,0.241,0.23c0.795,0.008,1.497,0.076,2.094,0.193
				c0.759,0.153,1.367,0.373,1.804,0.664c-0.43,0.046-0.861,0.09-1.292,0.131c-0.279-0.183-0.593-0.32-0.947-0.412
				c-0.351-0.093-0.766-0.148-1.23-0.169c0.486,0.462,0.974,0.922,1.46,1.379c0.733,0.037,1.219,0.062,1.476,0.088
				c0.481,0.046,0.901,0.107,1.262,0.187c0.361,0.079,0.676,0.176,0.954,0.294c0.281,0.118,0.491,0.249,0.656,0.394
				c0.354,0.32,0.348,0.604,0.002,0.854c-0.349,0.249-0.979,0.41-1.891,0.471c0.171,0.158,0.342,0.315,0.513,0.472
				C70.32,105.162,70.059,105.175,69.799,105.187z M65.362,101.019c-0.485,0.038-0.811,0.12-0.982,0.245
				c-0.169,0.124-0.168,0.273,0.008,0.441c0.167,0.165,0.443,0.302,0.813,0.409c0.371,0.104,0.892,0.189,1.563,0.235
				C66.297,101.909,65.83,101.465,65.362,101.019z M69.645,104.285c0.492-0.046,0.831-0.147,1.022-0.3
				c0.193-0.151,0.178-0.326-0.039-0.526c-0.185-0.168-0.446-0.299-0.8-0.391c-0.348-0.095-0.931-0.163-1.725-0.219
				C68.617,103.33,69.131,103.809,69.645,104.285z"/>
		</g>
	</g>
	<g>
		<path fill="#B4B39A" d="M129.417,92.746c-1.031,0.049-2.889,0.116-5.252,0.207c1.226,0.589,2.295,1.24,3.121,1.966
			c0.38,0.332,0.696,0.663,0.963,0.993c1.245-0.038,2.346-0.06,3.24-0.06C134.284,95.853,133.766,92.539,129.417,92.746z"/>
		<path fill="#63665D" d="M127.285,94.919c-0.826-0.726-1.895-1.378-3.121-1.966c-7.605,0.293-20.502,0.837-28.402,1.864
			c-4.349,0.207-14.497,2.589-10.873,3.935c3.625,1.346,8.906,0.311,15.533-0.725c5.734-0.896,19.835-1.869,27.826-2.115
			C127.981,95.582,127.665,95.251,127.285,94.919z"/>
		<g>
			<path fill="#B4B39A" d="M105.751,96.89c-1.12-0.916-2.241-1.833-3.362-2.75c-0.982,0.081-1.934,0.167-2.855,0.256
				c1.109,0.91,2.218,1.82,3.328,2.727c-2.303,0.126-4.08,0.091-5.344-0.108c-1.261-0.196-2.187-0.54-2.777-1.029
				c-0.419-0.349-0.531-0.698-0.369-1.052c-1.431,0.161-3.15,0.459-4.769,0.831c0.113,0.32,0.349,0.645,0.741,0.974
				c0.693,0.579,1.703,1.041,3.028,1.382c0.974,0.251,2.062,0.417,3.262,0.502c1.213-0.188,2.466-0.389,3.789-0.596
				c2.949-0.461,8.114-0.942,13.522-1.334c-0.949-0.069-1.996-0.099-3.152-0.085C109.931,96.622,108.252,96.713,105.751,96.89z"/>
			<path fill="#B4B39A" d="M109.182,93.663c-0.419,0.025-0.839,0.051-1.257,0.078c0.09,0.045,0.185,0.083,0.273,0.131
				C108.526,93.802,108.854,93.733,109.182,93.663z"/>
		</g>
	</g>
	<g>
		<path fill="#EB6479" d="M92.491,43.473c0.238-1.106,0.471-3.161,0.968-3.161c0.497,0,1.806-0.131,1.911,0.471
			c0.105,0.602-0.379,2.18-0.573,3.051l-1.285,1.241L92.491,43.473z"/>
		<path fill="#003E5A" d="M107.287,52.766c-2.954,0.066-5.572,0.018-7.863-0.269c-2.913-0.286-5.603-4.562-4.627-8.663l-2.305-0.361
			c-1.758,6.249,2.614,11.22,7.089,11.946c3.194,0.532,8.615,0.41,8.615,0.41L107.287,52.766z"/>
		<g>
			<linearGradient id="SVGID_1_" gradientUnits="userSpaceOnUse" x1="97.87" y1="42.339" x2="97.87" y2="40.316">
				<stop  offset="0.0174" style="stop-color:#D1A10D"/>
				<stop  offset="0.1276" style="stop-color:#CE9E0D"/>
				<stop  offset="0.2232" style="stop-color:#C5950C"/>
				<stop  offset="0.3133" style="stop-color:#B6870A"/>
				<stop  offset="0.3995" style="stop-color:#A17404"/>
				<stop  offset="0.4535" style="stop-color:#916600"/>
			</linearGradient>
			<path fill="url(#SVGID_1_)" d="M101.406,40.47l-7.236-0.154l-0.153,1.01l0.153,1.013l7.233-0.158l0.003,0.001
				c0.176,0,0.318-0.383,0.318-0.856C101.723,40.854,101.581,40.47,101.406,40.47z"/>
			<g>
				<linearGradient id="SVGID_2_" gradientUnits="userSpaceOnUse" x1="97.8743" y1="41.2524" x2="97.8743" y2="40.316">
					<stop  offset="0.1761" style="stop-color:#FFF200"/>
					<stop  offset="0.4558" style="stop-color:#FFC20E"/>
					<stop  offset="1" style="stop-color:#A57406"/>
				</linearGradient>
				<path fill="url(#SVGID_2_)" d="M101.406,40.47l-7.236-0.154l-0.142,0.936h7.693C101.706,40.815,101.572,40.47,101.406,40.47z"/>
			</g>
			<ellipse fill="#003E5A" cx="86.281" cy="41.313" rx="0.542" ry="1.46"/>
			<linearGradient id="SVGID_3_" gradientUnits="userSpaceOnUse" x1="90.3418" y1="42.7714" x2="90.3418" y2="39.8525">
				<stop  offset="0.0174" style="stop-color:#D1A10D"/>
				<stop  offset="0.1276" style="stop-color:#CE9E0D"/>
				<stop  offset="0.2232" style="stop-color:#C5950C"/>
				<stop  offset="0.3133" style="stop-color:#B6870A"/>
				<stop  offset="0.3995" style="stop-color:#A17404"/>
				<stop  offset="0.4535" style="stop-color:#916600"/>
			</linearGradient>
			<path fill="url(#SVGID_3_)" d="M94.164,40.075l-7.883-0.223l-0.221,1.457l0.221,1.462l7.879-0.228l0.003,0.001
				c0.255,0,0.46-0.553,0.46-1.235C94.623,40.628,94.418,40.075,94.164,40.075z"/>
			<g>
				<linearGradient id="SVGID_4_" gradientUnits="userSpaceOnUse" x1="90.345" y1="41.2524" x2="90.345" y2="39.8525">
					<stop  offset="0.1761" style="stop-color:#FFF200"/>
					<stop  offset="0.4558" style="stop-color:#FFC20E"/>
					<stop  offset="1" style="stop-color:#A57406"/>
				</linearGradient>
				<path fill="url(#SVGID_4_)" d="M94.164,40.075l-7.883-0.223l-0.212,1.4h8.552C94.61,40.598,94.411,40.075,94.164,40.075z"/>
			</g>
			<linearGradient id="SVGID_5_" gradientUnits="userSpaceOnUse" x1="80.704" y1="43.4856" x2="80.704" y2="39.1399">
				<stop  offset="0.0174" style="stop-color:#D1A10D"/>
				<stop  offset="0.1276" style="stop-color:#CE9E0D"/>
				<stop  offset="0.2232" style="stop-color:#C5950C"/>
				<stop  offset="0.3133" style="stop-color:#B6870A"/>
				<stop  offset="0.3995" style="stop-color:#A17404"/>
				<stop  offset="0.4535" style="stop-color:#916600"/>
			</linearGradient>
			<path fill="url(#SVGID_5_)" d="M86.295,39.471L74.759,39.14l-0.329,2.169l0.329,2.177l11.525-0.339l0.011,0.002
				c0.377,0,0.683-0.823,0.683-1.839C86.978,40.294,86.672,39.471,86.295,39.471z"/>
			<g>
				<linearGradient id="SVGID_6_" gradientUnits="userSpaceOnUse" x1="80.7077" y1="41.2524" x2="80.7077" y2="39.1399">
					<stop  offset="0.1761" style="stop-color:#FFF200"/>
					<stop  offset="0.4558" style="stop-color:#FFC20E"/>
					<stop  offset="1" style="stop-color:#A57406"/>
				</linearGradient>
				<path fill="url(#SVGID_6_)" d="M86.295,39.471L74.759,39.14l-0.32,2.113h12.538C86.965,40.264,86.665,39.471,86.295,39.471z"/>
			</g>
			<ellipse fill="#FFC20E" cx="74.759" cy="41.314" rx="0.807" ry="2.174"/>
			<ellipse fill="#916600" cx="74.762" cy="41.316" rx="0.588" ry="1.584"/>
			<g>
				<path fill="#FFFFFF" d="M75.35,41.316c0-0.768-0.203-1.409-0.473-1.553c-0.27,0.145-0.473,0.785-0.473,1.553
					c0,0.768,0.203,1.408,0.473,1.553C75.147,42.724,75.35,42.084,75.35,41.316z"/>
			</g>
		</g>
		<path fill="#EB6479" d="M94.282,42.638c0.483-0.268,0.789-0.757,0.918-1.168c0.048-0.316,0.838-0.505,0.805,0.126
			c-0.097,0.6-0.761,1.682-1.244,2.203C94.52,43.594,94.331,43.095,94.282,42.638z"/>
		<polygon fill="#EB6479" points="112.411,83.432 113.373,92.225 129.964,90.205 131.029,95.248 127.494,92.136 111.442,96.123 
			104.992,78.348 111.507,75.727 		"/>
		<polygon fill="#EB6479" points="104.273,80.523 88.641,82.126 92.584,98.209 86.583,98.209 90.167,95.359 84.313,79.859 
			96.267,76.424 103.136,75.642 		"/>
		<path fill="#EB6479" d="M112.49,34.382l-3.756-0.489c-6.288-0.247-10.397,1.605-10.484,6.546c-0.127,1.232-0.062,2.662-1.28,3.341
			l1.812-0.376c0.872,2.06,2.698,3.554,4.764,4.679c3.69,2.01,3.852,4.013,4.43,6.397l2.744-3.629c0,0-4.073-3.066,0.788-6.772
			C115.856,40.763,114.402,35.584,112.49,34.382z"/>
		<g>
			<path fill="#003E5A" d="M104.531,31.591c-6.657,1.962-5.999,6.046-7.725,5.453c1.62,2.757,7.017,3.602,9.578,0.65
				c0.625,0.437,1.095,1.091,1.468,1.876c0.12-0.035,0.245-0.061,0.375-0.066c0.88-0.038,1.624,0.649,1.662,1.534
				c0.031,0.729-0.429,1.358-1.083,1.58c-0.888,5.394,2.858,10.195,8.7,7.122c-1.71,0.175-5.878,0.09-2.703-3.738
				C120.209,39.481,114.839,28.554,104.531,31.591z"/>
		</g>
		
			<rect x="101.679" y="39.552" transform="matrix(0.5861 0.8103 -0.8103 0.5861 75.4441 -65.5009)" fill="#243129" width="0.304" height="3.075"/>
		<path fill="#243129" d="M102.69,46.489c-0.233,0-0.444-0.05-0.625-0.149l0.147-0.266c0.313,0.173,0.782,0.141,1.288-0.084
			c0.682-0.305,1.26-0.885,1.373-1.38l0.296,0.068c-0.136,0.59-0.771,1.243-1.545,1.59C103.292,46.415,102.975,46.489,102.69,46.489
			z"/>
		<path fill="#003E5A" d="M110.559,50.407c7.706,3.12,8.572,12.889,2.109,32.914c-6.463-1.02-11.066-3.673-18.096-6.395
			c7.764-5.522,15.284-11.469,12.419-24.17L110.559,50.407z"/>
		<g>
			<polygon fill="#243129" points="92.584,98.209 91.962,95.374 90.151,95.374 86.583,98.209 			"/>
		</g>
		<g>
			<polygon fill="#243129" points="129.964,90.205 127.229,90.457 127.493,92.136 131.029,95.248 			"/>
		</g>
		<path fill="#EB6479" d="M93.729,40.241c-0.052,0.414,0.086,0.725,0.483,0.725c0.397,0,1.865,0.19,2.02-0.069
			c0.155-0.259,0.432-1.001-0.155-1.053C95.421,39.809,93.764,39.326,93.729,40.241z"/>
		<g>
			<path fill="#FFFFFF" d="M122.139,73.705l-0.776-0.218l0.35-1.244c0.016-0.077-0.095-0.31-0.227-0.347l-3.253-0.914
				c-0.129-0.036-0.348,0.104-0.375,0.179l-0.349,1.243l-0.776-0.218l0.349-1.244c0.147-0.524,0.825-0.887,1.369-0.736l3.253,0.914
				c0.261,0.073,0.499,0.27,0.653,0.538c0.153,0.266,0.201,0.559,0.132,0.803L122.139,73.705z"/>
			<polygon fill="#FFFFFF" points="124.271,87.419 107.819,82.795 111.129,70.424 127.58,75.047 			"/>
		</g>
		<path fill="#EB6479" d="M120.047,69.317c-0.547-0.077-1.697-0.395-1.869,0.23c-0.172,0.625,0.278,0.529,1.147,0.742
			c-0.344,0.591-1.54,1.361-0.529,2.015c1.011,0.654,1.291,0.835,1.291,0.835c0.897,0.09,1.611-1.739,1.358-2.918L120.047,69.317z"
			/>
		<path fill="#003E5A" d="M110.657,50.496c7.111,0.479,16.889,9.573,11.009,19.966l-1.915-1.094
			c3.618-4.823,0.479-14.564-7.316-14.974L110.657,50.496z"/>
		<polygon fill="#FFFFFF" points="107.76,52.212 109.496,53.744 112.001,50.635 110.298,50.116 		"/>
		<path fill="#FFFFFF" d="M110.794,51.721c0.604,2.641-0.74,8.166-2.651,11.112c0.261-2.056,0.223-8.344-1.152-10.077l1.789-1.27
			L110.794,51.721z"/>
		<polygon fill="#FFFFFF" points="107.76,52.212 107.908,54.232 106.685,54.104 106.983,52.762 		"/>
	</g>
</g>
<g>
	<g>
		<path fill="#E9E8D8" d="M381.06,324.074c-85.693,13.746-171.386-6.663-257.08-4.65c-17.773-16.871-35.544-32.778-53.315-47.216
			c85.694-13.746,171.386,6.663,257.08,4.65C345.515,293.729,363.288,309.636,381.06,324.074z"/>
		<g>
			<path fill="#818277" d="M82.533,273.801c15.498,13.139,30.996,27.31,46.494,42.177c80.035-1.078,160.068,16.433,240.101,6.442
				c-15.497-13.142-30.995-27.315-46.493-42.184C242.602,281.305,162.568,263.796,82.533,273.801z M348.141,322.98
				c-66.991,4.634-133.981-7.18-200.972-8.408c-4.231-3.712-14.061-6.721-23.007-6.795c-9.87-9.374-19.741-18.451-29.611-27.145
				c8.202-1.026,12.072-4.024,9.122-7.39c67.005-4.62,134.01,7.202,201.015,8.417c4.309,3.607,13.882,6.513,22.639,6.621
				c9.873,9.381,19.746,18.465,29.619,27.167C348.719,316.507,344.947,319.575,348.141,322.98z"/>
		</g>
		<path fill="#818277" d="M178.844,294.615c-11.08-11.338,0.918-19.637,26.783-17.679c25.872,2.052,55.815,13.203,66.893,24.509
			c11.078,11.342-0.915,19.637-26.784,17.673C219.867,317.059,189.92,305.919,178.844,294.615z"/>
		<path fill="#818277" d="M132.078,294.017c-3.425-3.288,0.285-6.085,8.288-6.038c8.004,0.044,17.272,3.048,20.701,6.522
			c3.432,3.479-0.282,5.992-8.288,5.766C144.773,300.032,135.51,297.31,132.078,294.017z"/>
		<path fill="#818277" d="M126.139,294.086c-4.806-4.542,0.417-8.577,11.636-8.572c11.226,0.002,24.269,4.312,29.071,9.219
			c4.805,4.919-0.416,8.399-11.639,8.035C143.986,302.388,130.943,298.633,126.139,294.086z M164.594,294.634
			c-4.274-4.355-15.871-8.154-25.853-8.177c-9.982-0.025-14.627,3.527-10.351,7.591c4.277,4.07,15.868,7.431,25.851,7.753
			C164.224,302.107,168.866,298.998,164.594,294.634z"/>
		<g>
			<path fill="#E9E8D8" d="M242.851,317.979c-1.218-1.28-2.437-2.56-3.656-3.841c-5.01-0.617-9.306-1.361-12.891-2.22
				c-3.582-0.86-7.119-2.072-10.612-3.625c-3.49-1.551-6.36-3.338-8.61-5.352c2.976,0.004,5.951,0.014,8.926,0.025
				c2.709,2.124,5.46,3.749,8.258,4.866c3.989,1.585,7.938,2.605,11.844,3.061c-3.879-4.08-7.757-8.165-11.636-12.25
				c-4.214-0.612-8.821-1.55-13.807-2.793c-3.696-0.92-6.939-2.04-9.74-3.368c-2.798-1.325-4.929-2.751-6.391-4.275
				c-2.602-2.71-2.294-4.737,0.91-6.079c2.14-0.902,6.258-1.249,12.358-1.018c-0.582-0.611-1.164-1.222-1.746-1.833
				c1.877,0.143,3.755,0.288,5.632,0.436c0.583,0.612,1.165,1.224,1.747,1.836c5.766,0.652,10.795,1.664,15.1,3.022
				c5.504,1.733,9.84,3.846,13.006,6.344c-3.106-0.057-6.211-0.12-9.316-0.183c-2-1.556-4.283-2.808-6.831-3.756
				c-2.551-0.949-5.516-1.678-8.872-2.18c3.512,3.696,7.025,7.395,10.537,11.093c5.277,0.871,8.825,1.503,10.64,1.896
				c3.476,0.761,6.515,1.589,9.107,2.483c2.595,0.895,4.893,1.895,6.889,3.001c1.997,1.107,3.573,2.257,4.722,3.456
				c2.532,2.639,2.539,4.694,0.015,6.165c-2.527,1.47-7.08,2.03-13.645,1.646c1.232,1.293,2.463,2.585,3.695,3.875
				C246.607,318.267,244.728,318.124,242.851,317.979z M210.85,284.308c-3.503-0.061-5.867,0.312-7.088,1.115
				c-1.224,0.804-1.203,1.865,0.056,3.185c1.248,1.305,3.193,2.467,5.862,3.49c2.672,1.025,6.424,1.97,11.281,2.846
				C217.591,291.397,214.222,287.85,210.85,284.308z M241.742,311.335c3.546,0.103,6.003-0.312,7.369-1.237
				c1.373-0.923,1.277-2.202-0.276-3.831c-1.329-1.39-3.254-2.573-5.776-3.551c-2.526-0.978-6.671-2.005-12.445-3.087
				C234.324,303.535,238.033,307.438,241.742,311.335z"/>
		</g>
		<path fill="#818277" d="M322.032,304.101c1.431-0.208,2.862-0.423,4.294-0.643c-1.828-0.154-3.657-0.318-5.487-0.491
			c1.209-0.317,2.417-0.639,3.627-0.965c-1.76-0.041-3.519-0.091-5.279-0.15c0.949-0.418,1.899-0.838,2.85-1.261
			c-1.636,0.073-3.274,0.137-4.91,0.195c0.661-0.507,1.324-1.014,1.986-1.523c-1.464,0.184-2.93,0.362-4.394,0.533
			c0.354-0.581,0.709-1.163,1.063-1.746c-1.248,0.291-2.496,0.578-3.743,0.861c0.035-0.642,0.069-1.284,0.105-1.926
			c-0.993,0.392-1.984,0.781-2.977,1.168c-0.285-0.686-0.569-1.372-0.855-2.057c-0.707,0.484-1.414,0.967-2.122,1.449
			c-0.596-0.712-1.194-1.424-1.789-2.138c-0.401,0.566-0.802,1.132-1.203,1.697c-0.889-0.719-1.779-1.439-2.668-2.162
			c-0.082,0.634-0.165,1.268-0.246,1.903c-1.154-0.707-2.311-1.416-3.466-2.129c0.239,0.687,0.479,1.374,0.717,2.06
			c-1.386-0.674-2.773-1.353-4.159-2.036c0.553,0.722,1.106,1.444,1.66,2.164c-1.575-0.623-3.151-1.251-4.726-1.884
			c0.85,0.737,1.701,1.473,2.55,2.208c-1.717-0.553-3.432-1.11-5.149-1.674c1.121,0.732,2.242,1.461,3.365,2.188
			c-1.805-0.465-3.61-0.936-5.415-1.413c1.358,0.704,2.718,1.405,4.076,2.102c-1.839-0.362-3.678-0.73-5.517-1.105
			c1.555,0.655,3.109,1.307,4.664,1.953c-1.817-0.248-3.635-0.501-5.452-0.76c1.704,0.586,3.407,1.167,5.11,1.743
			c-1.74-0.124-3.48-0.253-5.221-0.388c1.8,0.497,3.601,0.989,5.401,1.475c-1.609,0.004-3.221,0.004-4.83,0
			c1.843,0.392,3.685,0.779,5.528,1.159c-1.432,0.134-2.862,0.264-4.294,0.39c1.828,0.274,3.659,0.543,5.487,0.804
			c-1.209,0.259-2.418,0.516-3.628,0.77c1.76,0.146,3.52,0.286,5.279,0.42c-0.949,0.377-1.899,0.751-2.849,1.125
			c1.636,0.013,3.273,0.02,4.91,0.023c-0.662,0.482-1.324,0.963-1.985,1.444c1.465-0.121,2.928-0.247,4.392-0.377
			c-0.353,0.571-0.707,1.142-1.061,1.713c1.247-0.251,2.495-0.505,3.742-0.763c-0.035,0.641-0.069,1.283-0.105,1.924
			c0.992-0.372,1.985-0.745,2.978-1.122c0.285,0.689,0.569,1.378,0.855,2.066c0.707-0.478,1.414-0.958,2.122-1.439
			c0.596,0.713,1.193,1.424,1.789,2.135c0.401-0.567,0.802-1.136,1.203-1.704c0.889,0.712,1.778,1.422,2.667,2.13
			c0.083-0.636,0.164-1.271,0.246-1.907c1.156,0.687,2.312,1.37,3.466,2.05c-0.238-0.68-0.478-1.361-0.716-2.041
			c1.386,0.638,2.773,1.272,4.159,1.9c-0.554-0.7-1.107-1.401-1.66-2.103c1.575,0.569,3.151,1.132,4.726,1.687
			c-0.851-0.695-1.7-1.393-2.551-2.092c1.717,0.482,3.433,0.955,5.15,1.421c-1.122-0.667-2.243-1.338-3.365-2.012
			c1.805,0.38,3.61,0.751,5.415,1.113c-1.36-0.617-2.719-1.24-4.078-1.868c1.839,0.268,3.68,0.527,5.519,0.775
			c-1.555-0.549-3.109-1.104-4.664-1.668c1.817,0.15,3.635,0.29,5.452,0.42c-1.703-0.465-3.407-0.939-5.11-1.421
			c1.741,0.028,3.481,0.048,5.22,0.058c-1.8-0.369-3.601-0.748-5.401-1.135c1.61-0.092,3.221-0.192,4.831-0.299
			C325.717,304.66,323.874,304.385,322.032,304.101z"/>
		<path fill="#E9E8D8" d="M292.519,303.148c-3.105-3.141,0.254-5.427,7.5-5.234c7.245,0.198,15.633,2.671,18.732,5.655
			c3.1,2.985-0.252,5.5-7.501,5.457C304.008,308.986,295.619,306.283,292.519,303.148z"/>
		<g>
			<path fill="#818277" d="M310.51,308.972c-0.356-0.35-0.713-0.699-1.069-1.05c-1.465-0.082-2.723-0.215-3.771-0.401
				c-1.046-0.186-2.086-0.475-3.107-0.873c-1.017-0.394-1.861-0.871-2.519-1.428c0.872-0.043,1.743-0.088,2.615-0.135
				c0.791,0.573,1.599,1.003,2.415,1.278c1.168,0.39,2.325,0.613,3.465,0.669c-1.135-1.118-2.271-2.239-3.406-3.363
				c-1.231-0.101-2.577-0.295-4.037-0.579c-1.084-0.212-2.035-0.493-2.853-0.843c-0.821-0.35-1.442-0.744-1.87-1.17
				c-0.758-0.764-0.665-1.36,0.267-1.789c0.624-0.289,1.831-0.443,3.614-0.468c-0.17-0.17-0.34-0.339-0.51-0.509
				c0.55,0.014,1.1,0.028,1.649,0.04c0.171,0.169,0.34,0.338,0.51,0.508c1.687,0.096,3.164,0.302,4.421,0.616
				c1.608,0.403,2.882,0.937,3.806,1.603c-0.909,0.046-1.817,0.089-2.726,0.131c-0.587-0.416-1.249-0.739-2-0.971
				c-0.747-0.231-1.613-0.388-2.597-0.479c1.029,1.022,2.058,2.041,3.085,3.059c1.546,0.155,2.585,0.27,3.115,0.349
				c1.019,0.154,1.908,0.334,2.664,0.543c0.756,0.207,1.428,0.456,2.014,0.738c0.587,0.283,1.048,0.589,1.384,0.916
				c0.739,0.723,0.743,1.322,0.003,1.803c-0.743,0.48-2.068,0.74-3.992,0.759c0.36,0.353,0.72,0.706,1.08,1.059
				C311.609,308.981,311.059,308.977,310.51,308.972z M301.145,299.709c-1.026,0.036-1.718,0.181-2.075,0.434
				c-0.355,0.251-0.355,0.562,0.017,0.932c0.364,0.363,0.936,0.675,1.716,0.934c0.78,0.255,1.879,0.474,3.301,0.643
				C303.118,301.672,302.132,300.692,301.145,299.709z M310.186,307.05c1.039-0.04,1.76-0.213,2.157-0.51
				c0.4-0.297,0.378-0.671-0.081-1.116c-0.388-0.38-0.954-0.686-1.689-0.922c-0.739-0.237-1.951-0.454-3.643-0.658
				C308.016,304.915,309.101,305.985,310.186,307.05z"/>
		</g>
		<g>
			<path fill="#E9E8D8" d="M151.165,299.599c-0.356-0.356-0.713-0.71-1.069-1.065c-1.465-0.1-2.722-0.24-3.773-0.425
				c-1.046-0.187-2.082-0.472-3.106-0.859c-1.017-0.382-1.861-0.851-2.519-1.394c0.871-0.058,1.742-0.115,2.613-0.17
				c0.788,0.568,1.598,0.991,2.416,1.265c1.163,0.387,2.323,0.62,3.465,0.683c-1.135-1.128-2.271-2.254-3.406-3.377
				c-1.227-0.099-2.575-0.283-4.038-0.548c-1.087-0.195-2.036-0.458-2.852-0.79c-0.822-0.331-1.441-0.706-1.87-1.122
				c-0.759-0.74-0.674-1.341,0.267-1.797c0.626-0.306,1.826-0.496,3.614-0.55c-0.171-0.167-0.34-0.333-0.51-0.5
				c0.549,0.004,1.098,0.008,1.649,0.014c0.171,0.167,0.34,0.334,0.51,0.501c1.686,0.076,3.16,0.277,4.419,0.596
				c1.608,0.409,2.881,0.954,3.808,1.635c-0.909,0.032-1.817,0.066-2.726,0.102c-0.587-0.42-1.253-0.746-2-0.976
				c-0.746-0.231-1.615-0.385-2.597-0.468c1.028,1.013,2.056,2.029,3.085,3.047c1.542,0.157,2.58,0.281,3.115,0.368
				c1.018,0.165,1.903,0.358,2.663,0.584c0.76,0.221,1.435,0.488,2.015,0.784c0.585,0.3,1.047,0.617,1.384,0.955
				c0.748,0.745,0.739,1.343,0.003,1.803c-0.735,0.46-2.067,0.678-3.993,0.663c0.361,0.36,0.721,0.72,1.081,1.08
				C152.265,299.627,151.714,299.612,151.165,299.599z M141.799,290.327c-1.02,0.051-1.714,0.211-2.073,0.469
				c-0.361,0.26-0.351,0.571,0.017,0.932c0.364,0.355,0.93,0.656,1.716,0.903c0.776,0.244,1.88,0.447,3.299,0.611
				C143.772,292.268,142.785,291.296,141.799,290.327z M150.841,297.672c1.036-0.026,1.754-0.181,2.157-0.471
				c0.402-0.289,0.373-0.662-0.081-1.118c-0.389-0.389-0.95-0.706-1.69-0.953c-0.741-0.248-1.955-0.482-3.643-0.695
				C148.67,295.511,149.755,296.59,150.841,297.672z"/>
		</g>
	</g>
	<g>
		<path fill="#63665D" d="M209.68,292.098c-0.107-0.041-0.206-0.084-0.311-0.125c1.091-0.051,2.22-0.039,3.352,0.056
			c1.652,0.059,3.618,0.178,5.795,0.344c0.814,0.858,1.629,1.714,2.444,2.572C216.104,294.068,212.352,293.123,209.68,292.098z
			 M271.425,301.773c-5.038-3.432-29.929-7.225-47.231-8.904c0.956,1.007,1.912,2.012,2.867,3.019
			c5.277,0.871,8.825,1.503,10.64,1.896c3.476,0.761,6.515,1.589,9.107,2.482c2.595,0.895,4.893,1.896,6.889,3.001
			c1.456,0.808,2.683,1.638,3.689,2.494C274.844,307.033,276.101,304.959,271.425,301.773z M210.667,295.85
			c-2.931-0.73-5.566-1.591-7.933-2.576c-2.393,0.996-3.08,2.355-0.273,3.379c2.991,1.091,13.427,3.246,25.068,5.205
			c-1.018-1.072-2.036-2.143-3.054-3.216C220.26,298.03,215.653,297.093,210.667,295.85z M230.614,299.629
			c1.023,1.077,2.045,2.151,3.068,3.227c4.52,0.705,9.055,1.351,13.266,1.866c-1.088-0.741-2.366-1.416-3.889-2.006
			C240.533,301.738,236.388,300.71,230.614,299.629z"/>
		<path fill="#B4B39A" d="M246.808,300.266c-2.591-0.893-5.631-1.721-9.107-2.482c-1.815-0.393-5.363-1.025-10.64-1.896
			c-0.956-1.007-1.912-2.012-2.867-3.019c-2.01-0.195-3.915-0.361-5.676-0.496c0.814,0.858,1.629,1.714,2.444,2.572
			c-4.857-0.877-8.609-1.822-11.281-2.847c-0.107-0.041-0.206-0.084-0.311-0.125c-2.629,0.124-5.021,0.628-6.636,1.301
			c2.367,0.986,5.002,1.846,7.933,2.576c4.986,1.243,9.593,2.181,13.807,2.793c1.018,1.072,2.036,2.143,3.054,3.216
			c2.026,0.341,4.087,0.676,6.154,0.998c-1.023-1.076-2.045-2.15-3.068-3.227c5.774,1.081,9.919,2.109,12.445,3.087
			c1.523,0.59,2.801,1.266,3.889,2.006c3.096,0.379,6.018,0.688,8.625,0.899c0.623,0.05,1.226,0.096,1.812,0.139
			c-1.007-0.856-2.233-1.686-3.689-2.494C251.7,302.161,249.402,301.16,246.808,300.266z"/>
	</g>
	<g>
		<path fill="#EB6479" d="M198.635,149.044c0.483-2.243,0.955-6.414,1.964-6.414c1.009,0,3.664-0.265,3.877,0.956
			c0.212,1.221-0.691,4.086-1.085,5.854l-2.685,2.855L198.635,149.044z"/>
		<path fill="#003E5A" d="M215.394,166.884c-5.992,0.135-11.97,0.104-14.347-0.094c-2.659-0.581,0.361-9.029,2.342-17.35
			l-4.755-0.396c-3.566,12.679-9.66,23.683-2.162,24.826c6.481,1.08,21.827,3.098,21.827,3.098L215.394,166.884z"/>
		<g>
			<linearGradient id="SVGID_7_" gradientUnits="userSpaceOnUse" x1="212.353" y1="146.5611" x2="212.353" y2="142.2071">
				<stop  offset="0.0174" style="stop-color:#D1A10D"/>
				<stop  offset="0.1276" style="stop-color:#CE9E0D"/>
				<stop  offset="0.2232" style="stop-color:#C5950C"/>
				<stop  offset="0.3133" style="stop-color:#B6870A"/>
				<stop  offset="0.3995" style="stop-color:#A17404"/>
				<stop  offset="0.4535" style="stop-color:#916600"/>
			</linearGradient>
			<path fill="url(#SVGID_7_)" d="M219.963,142.539l-15.574-0.332l-0.329,2.173l0.329,2.181l15.568-0.34l0.006,0.002
				c0.378,0,0.684-0.825,0.684-1.842C220.647,143.364,220.341,142.539,219.963,142.539z"/>
			<g>
				<linearGradient id="SVGID_8_" gradientUnits="userSpaceOnUse" x1="212.3621" y1="144.2226" x2="212.3621" y2="142.2071">
					<stop  offset="0.1761" style="stop-color:#FFF200"/>
					<stop  offset="0.4558" style="stop-color:#FFC20E"/>
					<stop  offset="1" style="stop-color:#A57406"/>
				</linearGradient>
				<path fill="url(#SVGID_8_)" d="M219.963,142.539l-15.574-0.332l-0.305,2.015h16.558
					C220.61,143.281,220.32,142.539,219.963,142.539z"/>
			</g>
			<ellipse fill="#003E5A" cx="187.41" cy="144.352" rx="1.167" ry="3.143"/>
			<linearGradient id="SVGID_9_" gradientUnits="userSpaceOnUse" x1="196.1496" y1="147.4919" x2="196.1496" y2="141.2094">
				<stop  offset="0.0174" style="stop-color:#D1A10D"/>
				<stop  offset="0.1276" style="stop-color:#CE9E0D"/>
				<stop  offset="0.2232" style="stop-color:#C5950C"/>
				<stop  offset="0.3133" style="stop-color:#B6870A"/>
				<stop  offset="0.3995" style="stop-color:#A17404"/>
				<stop  offset="0.4535" style="stop-color:#916600"/>
			</linearGradient>
			<path fill="url(#SVGID_9_)" d="M204.377,141.688l-16.967-0.479l-0.476,3.136l0.476,3.147l16.958-0.49
				c0.003,0,0.006,0.003,0.006,0.003c0.548,0,0.99-1.19,0.99-2.658C205.365,142.878,204.923,141.688,204.377,141.688z"/>
			<g>
				<linearGradient id="SVGID_10_" gradientUnits="userSpaceOnUse" x1="196.1566" y1="144.2226" x2="196.1566" y2="141.2094">
					<stop  offset="0.1761" style="stop-color:#FFF200"/>
					<stop  offset="0.4558" style="stop-color:#FFC20E"/>
					<stop  offset="1" style="stop-color:#A57406"/>
				</linearGradient>
				<path fill="url(#SVGID_10_)" d="M204.377,141.688l-16.967-0.479l-0.457,3.013h18.407
					C205.335,142.813,204.907,141.688,204.377,141.688z"/>
			</g>
			<linearGradient id="SVGID_11_" gradientUnits="userSpaceOnUse" x1="175.4057" y1="149.029" x2="175.4057" y2="139.6756">
				<stop  offset="0.0174" style="stop-color:#D1A10D"/>
				<stop  offset="0.1276" style="stop-color:#CE9E0D"/>
				<stop  offset="0.2232" style="stop-color:#C5950C"/>
				<stop  offset="0.3133" style="stop-color:#B6870A"/>
				<stop  offset="0.3995" style="stop-color:#A17404"/>
				<stop  offset="0.4535" style="stop-color:#916600"/>
			</linearGradient>
			<path fill="url(#SVGID_11_)" d="M187.44,140.389l-24.829-0.713l-0.708,4.669l0.708,4.685l24.805-0.729
				c0,0,0.016,0.003,0.025,0.003c0.812,0,1.469-1.772,1.469-3.957C188.909,142.161,188.251,140.389,187.44,140.389z"/>
			<g>
				<linearGradient id="SVGID_12_" gradientUnits="userSpaceOnUse" x1="175.4138" y1="144.2226" x2="175.4138" y2="139.6756">
					<stop  offset="0.1761" style="stop-color:#FFF200"/>
					<stop  offset="0.4558" style="stop-color:#FFC20E"/>
					<stop  offset="1" style="stop-color:#A57406"/>
				</linearGradient>
				<path fill="url(#SVGID_12_)" d="M187.44,140.389l-24.829-0.713l-0.69,4.547h26.986
					C188.882,142.095,188.236,140.389,187.44,140.389z"/>
			</g>
			<ellipse fill="#FFC20E" cx="162.61" cy="144.355" rx="1.738" ry="4.679"/>
			<ellipse fill="#916600" cx="162.616" cy="144.359" rx="1.267" ry="3.41"/>
			<g>
				<path fill="#FFFFFF" d="M163.883,144.36c0-1.654-0.437-3.032-1.018-3.343c-0.58,0.312-1.017,1.69-1.017,3.343
					c0,1.653,0.437,3.031,1.017,3.343C163.445,147.391,163.883,146.013,163.883,144.36z"/>
			</g>
		</g>
		<polygon fill="#EB6479" points="220.161,139.324 210,147.753 217.201,147.943 214.584,166.957 238.364,165.149 234.21,134.229 
			221.547,133.894 		"/>
		<path fill="#003E5A" d="M214.587,166.872c-5.411,11.226,1.698,54.275,7.135,60.565l24.773-1.618
			c-4.309-24.651-6.117-42.325-8.125-60.673L214.587,166.872z"/>
		<polygon fill="#003E5A" points="246.442,225.581 263.487,303.567 252.558,303.567 258.525,298.474 230.62,225.421 
			241.441,219.552 		"/>
		<polygon fill="#003E5A" points="234.757,226.57 213.611,252.772 214.301,295.063 203.372,295.063 210.394,289.776 
			204.689,252.054 220.507,223.582 228.334,219.552 		"/>
		<polygon fill="#FFFFFF" points="216.429,168.233 223.861,167.693 220.753,172.9 226.666,206.34 221.931,213.159 217.59,208.244 
			218.064,173.593 		"/>
		<g>
			<path fill="#003E5A" d="M238.357,165.146c9.64,3.058,19.2,24.623,16.219,51.2h-4.223c0.745-12.171-0.497-33.532-15.897-40.736
				L238.357,165.146z"/>
			<path fill="#FFFFFF" d="M259.595,223.522h-1.783v-2.858c-0.012-0.173-0.388-0.604-0.691-0.604h-7.474
				c-0.303,0-0.68,0.43-0.692,0.606v2.856h-1.783v-2.858c0-1.204,1.226-2.386,2.475-2.386h7.474c1.249,0,2.474,1.182,2.474,2.386
				V223.522z"/>
			<rect x="234.183" y="223.124" fill="#FFFFFF" width="37.804" height="30.478"/>
			<path fill="#EB6479" d="M251.213,215.955c-1.016,0.472-3.326,1.198-2.93,2.452c0.396,1.254,1.056,0.594,2.772,0
				c0.066,1.386-1.122,4.016,1.32,4.016s3.119,0,3.119,0c1.627-0.835,0.828-4.737-0.903-6.468H251.213z"/>
		</g>
		<path fill="#243129" d="M223.888,146.669c-0.16,0-0.316-0.017-0.465-0.048c-1.286-0.268-2.447-1.655-2.165-3.512l0.587,0.09
			c-0.229,1.509,0.684,2.629,1.698,2.841c0.892,0.186,2.025-0.303,2.538-2.23l0.574,0.153
			C226.12,145.979,224.918,146.669,223.888,146.669z"/>
		<path fill="#243129" d="M219.302,160.115c-0.072,0-0.142-0.001-0.213-0.003l0.016-0.594c2.737,0.082,6.363-1.367,7.907-4.262
			l0.524,0.28C225.919,158.569,222.216,160.115,219.302,160.115z"/>
		<g>
			<path fill="#003E5A" d="M232.686,143.312c1.262,0.033,2.258,1.083,2.224,2.345c-0.017,0.656-0.313,1.236-0.767,1.641l2.496,5.014
				l-1.41-19.05l-19.119-0.505l4.051,6.567l9.952-0.483l2.146,4.502C232.398,143.321,232.54,143.308,232.686,143.312z"/>
		</g>
		<path fill="#EB6479" d="M199.676,141.699c-0.105,0.841,0.175,1.471,0.981,1.471c0.806,0,3.783,0.385,4.098-0.14
			c0.315-0.525,0.876-2.032-0.315-2.137C203.109,140.823,199.746,139.842,199.676,141.699z"/>
		<path fill="#EB6479" d="M202.268,147.128c1.051-0.595,1.716-1.681,1.997-2.592c0.105-0.701,1.821-1.121,1.751,0.28
			c-0.21,1.331-1.576,3.398-2.627,4.554C202.864,148.914,202.374,148.144,202.268,147.128z"/>
	</g>
</g>
<g>
	<g>
		<path fill="#E9E8D8" d="M388.617,170.837c-34.236,4.872-68.899,5.709-103.283,2.511c-6.516-7.264-12.701-14.673-18.548-22.202
			c32.696,4.654,65.803,5.453,98.638,2.398C372.849,159.512,380.582,165.284,388.617,170.837z"/>
		<g>
			<path fill="#818277" d="M271.154,153.015c5.186,6.512,10.625,12.93,16.319,19.236c32.028,2.831,64.289,2.152,96.207-2.036
				c-6.933-4.921-13.635-10.006-20.102-15.238C332.809,157.695,301.817,157.041,271.154,153.015z M375.241,170.677
				c-26.728,2.988-53.662,3.521-80.465,1.598c-1.599-1.504-5.418-2.919-8.956-3.365c-3.58-4.031-7.058-8.105-10.432-12.219
				c3.19,0.267,4.795-0.654,3.809-2.128c25.751,2.877,51.698,3.388,77.518,1.531c1.755,1.232,5.549,2.015,8.954,1.824
				c4.161,3.313,8.419,6.565,12.771,9.753C375.199,168.181,373.814,169.444,375.241,170.677z"/>
		</g>
		<path fill="#818277" d="M307.806,164.871c-4.149-4.353,0.711-7.368,10.672-7.157c9.974,0.223,21.616,3.25,26.176,7.163
			c4.562,3.901-0.014,7.578-10.399,7.799C323.872,172.905,311.95,169.213,307.806,164.871z"/>
		<path fill="#818277" d="M289.411,163.979c-1.231-1.394,0.306-2.288,3.435-2.042c3.124,0.247,6.679,1.512,7.956,2.866
			c1.272,1.351-0.246,2.312-3.413,2.105C294.224,166.7,290.643,165.371,289.411,163.979z"/>
		<path fill="#818277" d="M287.08,163.769c-1.722-1.964,0.463-3.206,4.829-2.85c4.373,0.359,9.364,2.121,11.165,4.007
			c1.796,1.883-0.33,3.255-4.785,2.974C293.841,167.622,288.795,165.732,287.08,163.769z M302.189,164.878
			c-1.596-1.683-6.043-3.254-9.932-3.569c-3.89-0.311-5.825,0.795-4.294,2.539c1.531,1.742,6.011,3.417,9.967,3.668
			C301.884,167.771,303.786,166.559,302.189,164.878z"/>
		<g>
			<path fill="#E9E8D8" d="M333.096,172.343c-0.495-0.447-0.988-0.895-1.479-1.343c-1.996-0.061-3.716-0.207-5.14-0.426
				c-1.429-0.221-2.837-0.58-4.217-1.084c-1.384-0.503-2.512-1.117-3.391-1.84c1.178-0.066,2.357-0.136,3.535-0.212
				c1.063,0.74,2.152,1.287,3.263,1.63c1.581,0.488,3.156,0.751,4.708,0.793c-1.556-1.433-3.097-2.874-4.622-4.322
				c-1.658-0.108-3.467-0.338-5.427-0.692c-1.449-0.262-2.72-0.621-3.805-1.077c-1.088-0.456-1.902-0.965-2.464-1.526
				c-0.99-0.998-0.841-1.779,0.422-2.345c0.842-0.382,2.447-0.584,4.814-0.636c-0.222-0.221-0.444-0.442-0.666-0.663
				c0.727,0.013,1.455,0.024,2.182,0.034c0.223,0.221,0.446,0.44,0.669,0.66c2.239,0.1,4.185,0.34,5.861,0.723
				c2.141,0.488,3.837,1.15,5.084,1.995c-1.212,0.088-2.424,0.171-3.637,0.248c-0.783-0.531-1.673-0.937-2.669-1.224
				c-0.996-0.286-2.148-0.477-3.451-0.58c1.355,1.322,2.722,2.638,4.103,3.946c2.071,0.169,3.468,0.29,4.183,0.377
				c1.37,0.173,2.568,0.38,3.592,0.628c1.027,0.249,1.939,0.546,2.735,0.894c0.797,0.349,1.429,0.731,1.897,1.145
				c1.034,0.914,1.062,1.701,0.076,2.363c-0.983,0.66-2.787,1.05-5.409,1.142c0.499,0.451,1.001,0.901,1.502,1.35
				C334.597,172.318,333.846,172.332,333.096,172.343z M320.461,160.418c-1.368,0.06-2.286,0.254-2.77,0.59
				c-0.485,0.332-0.484,0.74-0.002,1.22c0.478,0.474,1.237,0.878,2.273,1.206c1.039,0.33,2.514,0.597,4.416,0.792
				C323.06,162.962,321.754,161.693,320.461,160.418z M332.616,169.836c1.412-0.086,2.375-0.336,2.916-0.742
				c0.535-0.405,0.486-0.89-0.14-1.459c-0.536-0.484-1.302-0.867-2.303-1.151c-1.004-0.286-2.643-0.532-4.914-0.758
				C329.64,167.103,331.121,168.473,332.616,169.836z"/>
		</g>
		<path fill="#818277" d="M364.146,164.11c0.555-0.122,1.111-0.246,1.666-0.37c-0.724-0.007-1.448-0.016-2.173-0.027
			c0.464-0.158,0.928-0.316,1.392-0.476c-0.693,0.035-1.384,0.069-2.077,0.1c0.358-0.189,0.717-0.378,1.076-0.568
			c-0.64,0.076-1.278,0.151-1.918,0.225c0.244-0.214,0.486-0.429,0.728-0.644c-0.567,0.115-1.134,0.229-1.702,0.342
			c0.119-0.234,0.241-0.468,0.361-0.701c-0.48,0.151-0.957,0.301-1.436,0.451c-0.005-0.246-0.011-0.493-0.017-0.739
			c-0.376,0.182-0.751,0.364-1.128,0.546c-0.131-0.253-0.263-0.505-0.393-0.758c-0.261,0.209-0.525,0.419-0.787,0.627
			c-0.253-0.251-0.505-0.503-0.757-0.755c-0.14,0.231-0.281,0.461-0.422,0.691c-0.366-0.243-0.732-0.487-1.098-0.732
			c-0.016,0.246-0.03,0.491-0.046,0.737c-0.469-0.228-0.937-0.458-1.405-0.689c0.11,0.254,0.22,0.508,0.33,0.762
			c-0.557-0.207-1.115-0.415-1.67-0.625c0.233,0.255,0.466,0.511,0.698,0.766c-0.63-0.18-1.259-0.361-1.886-0.544
			c0.347,0.25,0.696,0.5,1.045,0.749c-0.683-0.147-1.365-0.296-2.046-0.447c0.453,0.238,0.907,0.474,1.361,0.71
			c-0.716-0.11-1.43-0.222-2.145-0.335c0.545,0.217,1.09,0.434,1.637,0.65c-0.727-0.068-1.454-0.14-2.179-0.212
			c0.62,0.191,1.242,0.381,1.864,0.569c-0.716-0.026-1.432-0.053-2.148-0.082c0.678,0.159,1.358,0.316,2.035,0.471
			c-0.684,0.019-1.368,0.036-2.051,0.052c0.714,0.121,1.429,0.241,2.146,0.358c-0.631,0.064-1.262,0.125-1.893,0.185
			c0.73,0.079,1.461,0.156,2.192,0.232c-0.559,0.105-1.118,0.21-1.676,0.314c0.723,0.035,1.447,0.067,2.171,0.098
			c-0.469,0.145-0.938,0.29-1.407,0.433c0.694-0.012,1.389-0.025,2.084-0.04c-0.365,0.18-0.73,0.36-1.095,0.539
			c0.644-0.057,1.288-0.116,1.932-0.177c-0.249,0.209-0.498,0.419-0.748,0.627c0.574-0.102,1.147-0.204,1.721-0.308
			c-0.125,0.231-0.25,0.463-0.376,0.695c0.486-0.143,0.971-0.286,1.456-0.43c0.003,0.246,0.005,0.493,0.007,0.74
			c0.381-0.178,0.764-0.357,1.145-0.537c0.132,0.253,0.262,0.506,0.393,0.76c0.266-0.208,0.532-0.417,0.798-0.626
			c0.255,0.252,0.51,0.503,0.766,0.754c0.142-0.231,0.284-0.462,0.427-0.693c0.371,0.242,0.743,0.483,1.116,0.723
			c0.014-0.246,0.028-0.492,0.041-0.737c0.477,0.224,0.954,0.447,1.432,0.669c-0.115-0.253-0.23-0.505-0.346-0.757
			c0.568,0.198,1.135,0.396,1.703,0.592c-0.24-0.25-0.482-0.5-0.723-0.751c0.64,0.167,1.281,0.333,1.923,0.497
			c-0.36-0.24-0.719-0.48-1.077-0.721c0.694,0.131,1.388,0.259,2.082,0.387c-0.466-0.222-0.932-0.444-1.397-0.667
			c0.725,0.09,1.452,0.178,2.178,0.264c-0.559-0.197-1.117-0.395-1.674-0.594c0.735,0.047,1.47,0.092,2.205,0.136
			c-0.634-0.166-1.266-0.334-1.899-0.502c0.722,0.003,1.445,0.004,2.166,0.004c-0.689-0.131-1.377-0.263-2.065-0.397
			c0.687-0.041,1.374-0.083,2.06-0.127c-0.724-0.091-1.446-0.185-2.168-0.279c0.63-0.083,1.262-0.167,1.892-0.253
			C365.614,164.216,364.881,164.164,364.146,164.11z"/>
		<path fill="#E9E8D8" d="M352.532,164.757c-1.286-1.087-0.022-2.088,2.807-2.279c2.829-0.19,6.183,0.482,7.501,1.529
			c1.316,1.046,0.077,2.102-2.783,2.328C357.196,166.563,353.82,165.841,352.532,164.757z"/>
		<g>
			<path fill="#818277" d="M359.763,166.34c-0.151-0.122-0.301-0.244-0.452-0.365c-0.581,0.02-1.078,0.012-1.497-0.023
				c-0.42-0.033-0.833-0.108-1.247-0.224c-0.414-0.115-0.754-0.265-1.028-0.456c0.34-0.048,0.681-0.097,1.024-0.146
				c0.331,0.192,0.653,0.326,0.984,0.404c0.468,0.107,0.932,0.154,1.383,0.136c-0.479-0.389-0.957-0.778-1.434-1.168
				c-0.482,0.003-1.021-0.022-1.6-0.078c-0.43-0.041-0.81-0.116-1.141-0.219c-0.33-0.105-0.586-0.231-0.761-0.379
				c-0.318-0.263-0.297-0.494,0.06-0.695c0.239-0.133,0.708-0.236,1.401-0.311c-0.07-0.058-0.141-0.117-0.212-0.176
				c0.216-0.014,0.429-0.029,0.645-0.044c0.07,0.059,0.141,0.117,0.212,0.176c0.662-0.024,1.243,0.004,1.745,0.08
				c0.639,0.099,1.157,0.259,1.536,0.483c-0.354,0.048-0.709,0.096-1.064,0.143c-0.241-0.139-0.511-0.24-0.811-0.302
				c-0.3-0.061-0.643-0.094-1.029-0.092c0.429,0.355,0.861,0.708,1.292,1.062c0.607,0.006,1.018,0.014,1.232,0.026
				c0.402,0.024,0.756,0.063,1.061,0.118c0.303,0.055,0.575,0.127,0.814,0.215c0.237,0.089,0.428,0.191,0.572,0.305
				c0.317,0.253,0.334,0.483,0.058,0.689c-0.277,0.21-0.794,0.35-1.55,0.422c0.153,0.123,0.306,0.246,0.458,0.369
				C360.197,166.306,359.981,166.323,359.763,166.34z M355.826,163.124c-0.4,0.051-0.665,0.131-0.8,0.241
				c-0.135,0.109-0.124,0.228,0.03,0.356c0.15,0.124,0.389,0.226,0.696,0.295c0.312,0.071,0.75,0.112,1.311,0.128
				C356.651,163.804,356.238,163.464,355.826,163.124z M359.578,165.616c0.406-0.05,0.689-0.14,0.834-0.267
				c0.146-0.127,0.128-0.268-0.066-0.424c-0.165-0.132-0.396-0.232-0.691-0.296c-0.3-0.067-0.779-0.107-1.45-0.127
				C358.663,164.873,359.12,165.245,359.578,165.616z"/>
		</g>
		<g>
			<path fill="#E9E8D8" d="M296.768,166.625c-0.132-0.142-0.263-0.285-0.395-0.427c-0.575-0.064-1.066-0.146-1.478-0.239
				c-0.409-0.095-0.805-0.228-1.202-0.402c-0.393-0.171-0.708-0.373-0.952-0.6c0.344,0.002,0.69,0.003,1.034,0.004
				c0.289,0.235,0.602,0.418,0.916,0.541c0.444,0.176,0.903,0.286,1.348,0.334c-0.418-0.453-0.835-0.908-1.25-1.363
				c-0.481-0.067-1.006-0.168-1.572-0.308c-0.42-0.102-0.786-0.234-1.097-0.382c-0.311-0.152-0.544-0.313-0.699-0.485
				c-0.279-0.308-0.218-0.534,0.16-0.679c0.251-0.099,0.729-0.132,1.432-0.105c-0.062-0.069-0.123-0.137-0.185-0.205
				c0.214,0.017,0.431,0.033,0.645,0.05c0.061,0.068,0.123,0.136,0.185,0.204c0.657,0.074,1.227,0.181,1.715,0.331
				c0.618,0.189,1.105,0.424,1.45,0.7c-0.357-0.004-0.715-0.008-1.073-0.012c-0.22-0.172-0.472-0.312-0.758-0.416
				c-0.285-0.104-0.623-0.185-1.004-0.24c0.374,0.412,0.749,0.826,1.125,1.237c0.598,0.093,1.006,0.16,1.215,0.204
				c0.393,0.082,0.738,0.171,1.033,0.27c0.293,0.098,0.549,0.208,0.775,0.331c0.22,0.122,0.399,0.25,0.522,0.385
				c0.274,0.296,0.258,0.523-0.043,0.69c-0.306,0.164-0.829,0.233-1.595,0.193c0.134,0.143,0.267,0.288,0.4,0.431
				C297.202,166.655,296.985,166.64,296.768,166.625z M293.338,162.874c-0.402-0.007-0.679,0.034-0.827,0.123
				c-0.146,0.09-0.154,0.207-0.021,0.357c0.131,0.147,0.347,0.276,0.647,0.392c0.296,0.113,0.724,0.222,1.279,0.316
				C294.054,163.666,293.695,163.27,293.338,162.874z M296.69,165.882c0.409,0.007,0.701-0.039,0.863-0.144
				c0.165-0.104,0.166-0.247-0.003-0.429c-0.14-0.155-0.353-0.286-0.641-0.393c-0.282-0.109-0.758-0.218-1.416-0.335
				C295.891,165.015,296.289,165.449,296.69,165.882z"/>
		</g>
	</g>
	<g>
		<path fill="#63665D" d="M325.754,165.54c0.488,0.463,0.988,0.921,1.48,1.383c-0.155-0.007-0.309-0.014-0.459-0.023
			c-5.735-0.329-9.559-0.066-11.207-1.582c-0.679-0.625,0.064-1.057,1.455-1.357c0.972,0.364,2.069,0.662,3.305,0.886
			C322.287,165.202,324.096,165.432,325.754,165.54z M328.173,165.726c0.443,0.416,0.896,0.827,1.342,1.241
			c1.45-0.004,2.994-0.062,4.479-0.165c-0.28-0.115-0.576-0.224-0.907-0.318C332.083,166.198,330.445,165.952,328.173,165.726z
			 M341.609,164.989c-0.757-1.261-9.765-1.857-15.971-1.676c0.38,0.363,0.752,0.729,1.134,1.091c2.071,0.169,3.468,0.29,4.183,0.377
			c1.37,0.173,2.568,0.38,3.592,0.628c1.027,0.249,1.939,0.546,2.735,0.894c0.105,0.046,0.2,0.094,0.299,0.141
			C340.175,166.089,341.962,165.579,341.609,164.989z M323.498,163.371c-1.029,0.031-2.122,0.082-3.17,0.163
			c1.011,0.283,2.349,0.517,4.049,0.692C324.082,163.942,323.793,163.655,323.498,163.371z"/>
		<path fill="#B4B39A" d="M334.546,165.409c-1.025-0.248-2.222-0.455-3.592-0.628c-0.715-0.087-2.112-0.208-4.183-0.377
			c-0.382-0.362-0.755-0.728-1.134-1.091c-0.283,0.008-0.569,0.016-0.84,0.028c-0.411,0.007-0.85,0.017-1.299,0.031
			c0.294,0.284,0.584,0.571,0.879,0.855c-1.7-0.175-3.038-0.41-4.049-0.692c-1.245,0.096-2.408,0.234-3.306,0.428
			c0.972,0.364,2.069,0.662,3.305,0.886c1.96,0.354,3.769,0.584,5.427,0.692c0.488,0.463,0.988,0.921,1.48,1.383
			c0.714,0.032,1.483,0.046,2.281,0.044c-0.446-0.415-0.899-0.825-1.342-1.241c2.272,0.227,3.91,0.472,4.914,0.758
			c0.331,0.094,0.627,0.203,0.907,0.318c1.273-0.088,2.5-0.209,3.586-0.358c-0.1-0.047-0.194-0.095-0.299-0.141
			C336.485,165.955,335.574,165.658,334.546,165.409z"/>
	</g>
	<g>
		<path fill="#EB6479" d="M310.438,99.617c0.226-1.049,0.446-2.998,0.918-2.998c0.472,0,1.713-0.124,1.812,0.447
			c0.099,0.571-0.323,1.91-0.507,2.736l-1.255,1.334L310.438,99.617z"/>
		<path fill="#003E5A" d="M319.246,108.123c-3.444,0-6.569-0.119-7.68-0.211c-1.243-0.271,0.169-4.22,1.095-8.109l-2.222-0.185
			c-1.667,5.926-4.515,11.069-1.011,11.604c3.029,0.505,10.202,1.448,10.202,1.448L319.246,108.123z"/>
		<g>
			
				<linearGradient id="SVGID_13_" gradientUnits="userSpaceOnUse" x1="-2523.4272" y1="98.4568" x2="-2523.4272" y2="96.4217" gradientTransform="matrix(1 0 0 1 2840.2771 0)">
				<stop  offset="0.0174" style="stop-color:#D1A10D"/>
				<stop  offset="0.1276" style="stop-color:#CE9E0D"/>
				<stop  offset="0.2232" style="stop-color:#C5950C"/>
				<stop  offset="0.3133" style="stop-color:#B6870A"/>
				<stop  offset="0.3995" style="stop-color:#A17404"/>
				<stop  offset="0.4535" style="stop-color:#916600"/>
			</linearGradient>
			<path fill="url(#SVGID_13_)" d="M320.407,96.577l-7.279-0.155l-0.154,1.016l0.154,1.019l7.276-0.159l0.003,0.001
				c0.177,0,0.32-0.385,0.32-0.861C320.726,96.963,320.583,96.577,320.407,96.577z"/>
			<g>
				
					<linearGradient id="SVGID_14_" gradientUnits="userSpaceOnUse" x1="-2523.4231" y1="97.3638" x2="-2523.4231" y2="96.4217" gradientTransform="matrix(1 0 0 1 2840.2771 0)">
					<stop  offset="0.1761" style="stop-color:#FFF200"/>
					<stop  offset="0.4558" style="stop-color:#FFC20E"/>
					<stop  offset="1" style="stop-color:#A57406"/>
				</linearGradient>
				<path fill="url(#SVGID_14_)" d="M320.407,96.577l-7.279-0.155l-0.143,0.942h7.739C320.709,96.924,320.574,96.577,320.407,96.577
					z"/>
			</g>
			<ellipse fill="#003E5A" cx="305.192" cy="97.424" rx="0.546" ry="1.469"/>
			
				<linearGradient id="SVGID_15_" gradientUnits="userSpaceOnUse" x1="-2531.0007" y1="98.8918" x2="-2531.0007" y2="95.9554" gradientTransform="matrix(1 0 0 1 2840.2771 0)">
				<stop  offset="0.0174" style="stop-color:#D1A10D"/>
				<stop  offset="0.1276" style="stop-color:#CE9E0D"/>
				<stop  offset="0.2232" style="stop-color:#C5950C"/>
				<stop  offset="0.3133" style="stop-color:#B6870A"/>
				<stop  offset="0.3995" style="stop-color:#A17404"/>
				<stop  offset="0.4535" style="stop-color:#916600"/>
			</linearGradient>
			<path fill="url(#SVGID_15_)" d="M313.122,96.179l-7.93-0.224l-0.222,1.466l0.222,1.471l7.926-0.229l0.003,0.001
				c0.256,0,0.463-0.556,0.463-1.242C313.584,96.736,313.377,96.179,313.122,96.179z"/>
			<g>
				
					<linearGradient id="SVGID_16_" gradientUnits="userSpaceOnUse" x1="-2530.9973" y1="97.3638" x2="-2530.9973" y2="95.9554" gradientTransform="matrix(1 0 0 1 2840.2771 0)">
					<stop  offset="0.1761" style="stop-color:#FFF200"/>
					<stop  offset="0.4558" style="stop-color:#FFC20E"/>
					<stop  offset="1" style="stop-color:#A57406"/>
				</linearGradient>
				<path fill="url(#SVGID_16_)" d="M313.122,96.179l-7.93-0.224l-0.214,1.408h8.603C313.57,96.705,313.37,96.179,313.122,96.179z"
					/>
			</g>
			
				<linearGradient id="SVGID_17_" gradientUnits="userSpaceOnUse" x1="-2540.6963" y1="99.6103" x2="-2540.6963" y2="95.2385" gradientTransform="matrix(1 0 0 1 2840.2771 0)">
				<stop  offset="0.0174" style="stop-color:#D1A10D"/>
				<stop  offset="0.1276" style="stop-color:#CE9E0D"/>
				<stop  offset="0.2232" style="stop-color:#C5950C"/>
				<stop  offset="0.3133" style="stop-color:#B6870A"/>
				<stop  offset="0.3995" style="stop-color:#A17404"/>
				<stop  offset="0.4535" style="stop-color:#916600"/>
			</linearGradient>
			<path fill="url(#SVGID_17_)" d="M305.206,95.572L293.6,95.239l-0.331,2.182l0.331,2.19l11.594-0.341l0.011,0.002
				c0.379,0,0.687-0.828,0.687-1.85C305.892,96.4,305.585,95.572,305.206,95.572z"/>
			<g>
				
					<linearGradient id="SVGID_18_" gradientUnits="userSpaceOnUse" x1="-2540.6924" y1="97.3638" x2="-2540.6924" y2="95.2385" gradientTransform="matrix(1 0 0 1 2840.2771 0)">
					<stop  offset="0.1761" style="stop-color:#FFF200"/>
					<stop  offset="0.4558" style="stop-color:#FFC20E"/>
					<stop  offset="1" style="stop-color:#A57406"/>
				</linearGradient>
				<path fill="url(#SVGID_18_)" d="M305.206,95.572L293.6,95.239l-0.322,2.125h12.613C305.88,96.369,305.578,95.572,305.206,95.572
					z"/>
			</g>
			<ellipse fill="#FFC20E" cx="293.6" cy="97.425" rx="0.812" ry="2.187"/>
			<ellipse fill="#916600" cx="293.603" cy="97.428" rx="0.592" ry="1.594"/>
			<g>
				<path fill="#FFFFFF" d="M294.195,97.428c0-0.773-0.204-1.417-0.476-1.563c-0.271,0.146-0.476,0.79-0.476,1.563
					c0,0.773,0.204,1.417,0.476,1.563C293.991,98.845,294.195,98.201,294.195,97.428z"/>
			</g>
		</g>
		<path fill="#EB6479" d="M310.925,96.184c-0.049,0.393,0.082,0.688,0.458,0.688s1.768,0.18,1.915-0.065
			c0.147-0.246,0.409-0.95-0.147-0.999C312.529,95.775,310.958,95.316,310.925,96.184z"/>
		<path fill="#EB6479" d="M312.136,98.722c0.491-0.278,0.802-0.786,0.933-1.212c0.049-0.327,0.851-0.524,0.819,0.131
			c-0.098,0.622-0.737,1.588-1.228,2.128C312.415,99.557,312.186,99.197,312.136,98.722z"/>
		<polygon fill="#EB6479" points="318.047,107.911 316.39,101.132 313.831,100.876 317.541,92.306 326.281,92.306 325.983,107.911 
					"/>
		<path fill="#243129" d="M320.513,98.542c-0.068,0-0.134-0.006-0.198-0.018c-0.632-0.114-1.218-0.778-1.104-1.69l0.289,0.036
			c-0.093,0.741,0.368,1.277,0.867,1.367c0.437,0.078,0.986-0.174,1.212-1.123l0.283,0.068
			C321.62,98.196,321.023,98.542,320.513,98.542z"/>
		<path fill="#243129" d="M318.369,105.178v-0.291c1.351,0,3.094-0.751,3.812-2.186l0.26,0.13
			C321.671,104.372,319.809,105.178,318.369,105.178z"/>
		<polygon fill="#003E5A" points="334.551,131.143 321.853,144.981 324.573,165.481 318.833,165.481 322.192,162.912 
			317.072,144.067 327.889,130.486 331.811,127.427 		"/>
		<polygon fill="#003E5A" points="339.656,131.143 333.335,145.152 336.237,165.481 330.498,165.481 333.857,162.912 
			328.553,144.238 332.994,130.486 336.917,127.427 		"/>
		<path fill="#003E5A" d="M325.983,107.15l-7.936,0.749c0,0,2.545,17.033,8.202,28.709l14.867-3.844
			C334.432,121.347,330.431,112.857,325.983,107.15z"/>
		<polygon fill="#FFFFFF" points="318.422,108.572 322.221,108.204 321.266,111.023 327.027,126.124 325.421,129.275 
			322.909,126.82 320.249,111.201 		"/>
		<g>
			<path fill="#003E5A" d="M325.567,107.247c4.561,1.447,9.084,11.65,7.674,24.225h-1.998c0.353-5.759-0.235-15.866-7.521-19.274
				L325.567,107.247z"/>
			<path fill="#FFFFFF" d="M335.615,134.867h-0.844v-1.352c-0.006-0.082-0.183-0.286-0.327-0.286h-3.537
				c-0.144,0-0.321,0.204-0.327,0.287v1.351h-0.844v-1.352c0-0.57,0.58-1.129,1.171-1.129h3.537c0.591,0,1.171,0.56,1.171,1.129
				V134.867z"/>
			<rect x="323.592" y="134.679" fill="#FFFFFF" width="17.887" height="14.42"/>
			<path fill="#EB6479" d="M331.649,131.287c-0.481,0.223-1.574,0.567-1.386,1.16c0.187,0.593,0.5,0.281,1.312,0
				c0.031,0.656-0.531,1.9,0.625,1.9c1.155,0,1.476,0,1.476,0c0.77-0.395,0.392-2.241-0.427-3.06H331.649z"/>
		</g>
		<g>
			<path fill="#003E5A" d="M316.43,92.279c0.106,3.167,4.064,3.431,6.123,2.903l0.636,1.893c0.165-0.06,0.34-0.098,0.526-0.098
				c0.845,0,1.531,0.685,1.531,1.531c0,0.69-0.459,1.266-1.086,1.457l0.689,2.052h1.247l0.47-10.371L316.43,92.279z"/>
		</g>
	</g>
</g>
<path fill="#FFFFFF" d="M390.603,524.131c0.081-14.482-11.594-26.288-26.076-26.369c-1.954-0.011-3.856,0.199-5.69,0.594
	c-2.919-11.221-13.085-19.535-25.23-19.602c-11.963-0.067-22.092,7.891-25.302,18.824c-9.934,0.947-18.257,7.443-21.83,16.365
	c-0.668-0.079-1.345-0.13-2.034-0.134c-9.929-0.055-18.022,7.949-18.077,17.877c-0.055,9.929,7.948,18.022,17.877,18.078
	c0.152,0.001,80.46,0.445,80.46,0.445l0-0.009C378.968,550.029,390.523,538.457,390.603,524.131z"/>
<g>
	<defs>
		<rect id="SVGID_19_" x="0.418" y="0.248" width="429.582" height="653.815"/>
	</defs>
	<clipPath id="SVGID_20_">
		<use xlink:href="#SVGID_19_"  overflow="visible"/>
	</clipPath>
	<path clip-path="url(#SVGID_20_)" fill="#FFFFFF" d="M-68.729,424.527c-0.125-22.456,17.977-40.762,40.433-40.887
		c3.029-0.017,5.978,0.308,8.823,0.921c4.527-17.4,20.29-30.29,39.121-30.395c18.549-0.103,34.255,12.236,39.233,29.188
		c15.404,1.468,28.309,11.541,33.849,25.375c1.036-0.123,2.085-0.202,3.154-0.208c15.395-0.086,27.944,12.325,28.03,27.72
		c0.086,15.395-12.324,27.945-27.72,28.031c-0.236,0.001-124.76,0.69-124.76,0.69l0-0.014
		C-50.689,464.683-68.605,446.741-68.729,424.527z"/>
</g>
</svg>
