<?xml version="1.0" encoding="utf-8"?>
<!-- Generator: Adobe Illustrator 21.1.0, SVG Export Plug-In . SVG Version: 6.00 Build 0)  -->
<!DOCTYPE svg PUBLIC "-//W3C//DTD SVG 1.1//EN" "http://www.w3.org/Graphics/SVG/1.1/DTD/svg11.dtd">
<svg version="1.1" id="Layer_1" xmlns="http://www.w3.org/2000/svg" xmlns:xlink="http://www.w3.org/1999/xlink" x="0px" y="0px"
	 viewBox="0 0 286 286" style="enable-background:new 0 0 286 286;" xml:space="preserve">
<style type="text/css">
	.st0{clip-path:url(#SVGID_2_);fill:#4298B5;}
	.st1{clip-path:url(#SVGID_2_);}
	.st2{fill:#DB5C1E;}
	.st3{fill:#002B44;}
	.st4{fill:#003F5C;}
	.st5{fill:#EB6479;}
	.st6{fill:#223129;}
	.st7{fill:#FFFFFF;}
	.st8{fill:#D55A6E;}
	.st9{fill:#D8E2E7;}
	.st10{fill:#939598;}
	.st11{fill:#727D84;}
	.st12{fill:#4298B5;}
	.st13{fill:#E4D5B4;}
	.st14{fill:#CEBFA3;}
	.st15{fill:#EDE0C6;}
	.st16{fill:#3D302D;}
	.st17{fill:#D6C6A6;}
	.st18{fill:#C6B597;}
	.st19{fill:#826754;}
	.st20{fill:#91CEC4;}
	.st21{fill:#D3A98C;}
	.st22{fill:#AD886F;}
	.st23{fill:#896D59;}
	.st24{fill:#EA7442;}
	.st25{fill:#D15F36;}
	.st26{fill:#003E5A;}
	.st27{fill:#243129;}
	.st28{fill:#4077A2;}
	.st29{fill:#0F3644;}
	.st30{fill:#6C707A;}
	.st31{fill:url(#SVGID_3_);}
	.st32{fill:#8AACBD;}
	.st33{fill:#E6EBEE;}
	.st34{fill:#C3D4DD;}
	.st35{fill:#F37029;}
	.st36{fill:#004B6B;}
	.st37{fill:#282829;}
	.st38{fill:#BACAD3;}
	.st39{fill:#9EB3BE;}
	.st40{fill:#27688F;}
	.st41{fill:#005376;}
	.st42{fill:#2B75A2;}
	.st43{fill:#AFC6D2;}
	.st44{fill:url(#SVGID_4_);}
	.st45{fill:#E9E8D8;}
	.st46{fill:#818277;}
	.st47{fill:#63665D;}
	.st48{fill:#B4B39A;}
	.st49{fill:url(#SVGID_5_);}
	.st50{fill:url(#SVGID_6_);}
	.st51{fill:url(#SVGID_7_);}
	.st52{fill:url(#SVGID_8_);}
	.st53{fill:url(#SVGID_9_);}
	.st54{fill:url(#SVGID_10_);}
	.st55{fill:#FFC20E;}
	.st56{fill:#916600;}
	.st57{fill:#A7BDC9;}
	.st58{fill:#8E2833;}
	.st59{fill:#721B25;}
	.st60{fill:#00547A;}
	.st61{fill:#F1F2F2;}
	.st62{fill:#6F6598;}
	.st63{fill:#4B436A;}
	.st64{fill:#F27129;}
	.st65{fill:#A57406;}
	.st66{fill:url(#SVGID_11_);}
	.st67{fill:url(#SVGID_12_);}
	.st68{fill:url(#SVGID_13_);}
	.st69{fill:url(#SVGID_14_);}
	.st70{fill:url(#SVGID_15_);}
	.st71{fill:url(#SVGID_16_);}
	.st72{fill:url(#SVGID_17_);}
	.st73{fill:url(#SVGID_18_);}
	.st74{fill:url(#SVGID_19_);}
	.st75{fill:url(#SVGID_20_);}
	.st76{fill:url(#SVGID_21_);}
	.st77{fill:url(#SVGID_22_);}
	.st78{fill:url(#SVGID_23_);}
	.st79{fill:url(#SVGID_24_);}
	.st80{fill:url(#SVGID_25_);}
	.st81{fill:url(#SVGID_26_);}
	.st82{fill:url(#SVGID_27_);}
	.st83{fill:url(#SVGID_28_);}
	.st84{fill:url(#SVGID_29_);}
	.st85{fill:url(#SVGID_30_);}
	.st86{fill:url(#SVGID_31_);}
	.st87{fill:url(#SVGID_32_);}
	.st88{fill:url(#SVGID_33_);}
	.st89{fill:url(#SVGID_34_);}
	.st90{fill:url(#SVGID_35_);}
	.st91{fill:url(#SVGID_36_);}
	.st92{fill:url(#SVGID_37_);}
	.st93{fill:url(#SVGID_38_);}
	.st94{fill:url(#SVGID_39_);}
	.st95{fill:url(#SVGID_40_);}
	.st96{fill:url(#SVGID_41_);}
	.st97{fill:url(#SVGID_42_);}
	.st98{fill:url(#SVGID_43_);}
	.st99{fill:url(#SVGID_44_);}
	.st100{fill:url(#SVGID_45_);}
	.st101{fill:url(#SVGID_46_);}
	.st102{fill:#F9F1D7;}
	.st103{fill:#6E7980;stroke:#58595B;stroke-width:0.4225;stroke-linecap:round;stroke-linejoin:round;}
	.st104{fill:#DF9CB0;}
	.st105{fill:#C37A8C;}
	.st106{fill:#C29F60;}
	.st107{fill:#FFFFFF;stroke:#D0ECF4;stroke-width:0.4225;}
	.st108{fill:url(#SVGID_47_);}
	.st109{fill:url(#SVGID_48_);}
	.st110{fill:url(#SVGID_49_);stroke:#FFFFFF;stroke-width:2.1123;}
	.st111{fill:#9F2214;}
	.st112{fill:url(#SVGID_50_);stroke:#FFFFFF;stroke-width:2.1123;}
	.st113{fill:#4A7195;}
	.st114{fill:#C13D2E;}
	.st115{fill:#7989A3;stroke:#FFFFFF;stroke-width:2.1123;}
	.st116{fill:#FFCF01;}
	.st117{fill:url(#SVGID_51_);stroke:#FFFFFF;stroke-width:2.1123;}
	.st118{fill:url(#SVGID_52_);stroke:#FFFFFF;stroke-width:2.1123;}
	.st119{fill:url(#SVGID_53_);stroke:#FFFFFF;stroke-width:2.1123;}
	.st120{fill:#876041;}
	.st121{fill:#DAC895;stroke:#F7E8BA;stroke-width:0.4225;}
	.st122{fill:#4B545B;}
	.st123{fill:#3E6D93;}
	.st124{fill:#476F93;}
	.st125{fill:#CAB47E;}
	.st126{fill:#F7E8BA;}
	.st127{fill:#C2A171;}
	.st128{fill:#D0ECF4;}
	.st129{fill:#EFE4AC;}
	.st130{fill:#5980A2;}
	.st131{fill:#17738F;}
	.st132{fill:#B1D45E;}
	.st133{fill:#8CC540;stroke:#221F1F;stroke-width:0.2168;stroke-linejoin:round;stroke-miterlimit:10;}
	.st134{fill:#58595B;}
	.st135{fill:#797A7D;}
	.st136{fill:#BF86A8;}
	.st137{fill:#302B2C;}
	.st138{fill:#48484A;}
	.st139{fill:#72A087;}
	.st140{fill:#94B0BE;}
	.st141{fill:#09723B;}
	.st142{fill:#00A14B;}
	.st143{fill:#004766;}
	.st144{fill:#00354F;}
	.st145{fill:#005B80;}
	.st146{fill:#002F3E;}
	.st147{fill:#3F4450;}
	.st148{fill:#2A6A7F;}
	.st149{fill:url(#SVGID_54_);}
	.st150{fill:#2C3038;}
	.st151{fill:#CACFD1;}
	.st152{fill:#343943;}
	.st153{fill:#27667A;}
	.st154{fill:none;stroke:#243129;stroke-width:0.3823;stroke-miterlimit:10;}
	.st155{fill:#333333;}
	.st156{fill:#E5E8DD;}
	.st157{fill:#767877;}
	.st158{fill:#545554;}
	.st159{fill:#F8E1C7;}
	.st160{fill:#5A5048;}
	.st161{fill:#604373;}
	.st162{fill:none;}
	.st163{fill:#9DB9C8;}
	.st164{fill:#235F83;}
	.st165{fill:#CF473A;}
	.st166{fill:#B4A680;}
	.st167{fill:url(#SVGID_55_);}
	.st168{fill:url(#SVGID_56_);}
	.st169{fill:url(#SVGID_57_);}
	.st170{fill:url(#SVGID_58_);}
	.st171{fill:url(#SVGID_59_);}
	.st172{fill:url(#SVGID_60_);}
	.st173{fill:url(#SVGID_61_);}
	.st174{fill:url(#SVGID_62_);}
	.st175{fill:url(#SVGID_63_);}
	.st176{fill:url(#SVGID_64_);}
	.st177{fill:url(#SVGID_65_);}
	.st178{fill:url(#SVGID_66_);}
	.st179{fill:url(#SVGID_67_);}
	.st180{fill:url(#SVGID_68_);}
	.st181{fill:url(#SVGID_69_);}
	.st182{fill:url(#SVGID_70_);}
	.st183{fill:url(#SVGID_71_);}
	.st184{fill:url(#SVGID_72_);}
	.st185{fill:url(#SVGID_73_);}
	.st186{fill:url(#SVGID_74_);}
	.st187{fill:url(#SVGID_75_);}
	.st188{fill:url(#SVGID_76_);}
	.st189{fill:url(#SVGID_77_);}
	.st190{fill:url(#SVGID_78_);}
	.st191{fill:url(#SVGID_79_);}
	.st192{fill:url(#SVGID_80_);}
	.st193{fill:url(#SVGID_81_);}
	.st194{fill:url(#SVGID_82_);}
	.st195{fill:url(#SVGID_83_);}
	.st196{fill:url(#SVGID_84_);}
	.st197{fill:url(#SVGID_85_);}
	.st198{fill:url(#SVGID_86_);}
	.st199{fill:url(#SVGID_87_);}
	.st200{fill:url(#SVGID_88_);}
	.st201{fill:url(#SVGID_89_);}
	.st202{fill:url(#SVGID_90_);}
	.st203{fill:url(#SVGID_91_);}
	.st204{fill:url(#SVGID_92_);}
	.st205{fill:url(#SVGID_93_);}
	.st206{fill:url(#SVGID_94_);}
	.st207{fill:url(#SVGID_95_);}
	.st208{fill:url(#SVGID_96_);}
	.st209{fill:url(#SVGID_97_);}
	.st210{fill:url(#SVGID_98_);}
	.st211{fill:url(#SVGID_99_);}
	.st212{fill:url(#SVGID_100_);}
	.st213{fill:url(#SVGID_101_);}
	.st214{fill:url(#SVGID_102_);}
	.st215{fill:url(#SVGID_103_);}
	.st216{fill:url(#SVGID_104_);}
	.st217{fill:url(#SVGID_105_);}
	.st218{fill:url(#SVGID_106_);}
	.st219{fill:url(#SVGID_107_);}
	.st220{fill:url(#SVGID_108_);}
	.st221{fill:url(#SVGID_109_);}
	.st222{fill:url(#SVGID_110_);}
	.st223{fill:url(#SVGID_111_);}
	.st224{fill:url(#SVGID_112_);}
	.st225{fill:url(#SVGID_113_);}
	.st226{fill:url(#SVGID_114_);}
	.st227{fill:url(#SVGID_115_);}
	.st228{fill:url(#SVGID_116_);}
	.st229{fill:url(#SVGID_117_);}
	.st230{fill:url(#SVGID_118_);}
	.st231{fill:url(#SVGID_119_);}
	.st232{fill:url(#SVGID_120_);}
	.st233{fill:url(#SVGID_121_);}
	.st234{fill:url(#SVGID_122_);}
	.st235{fill:#F7D9A8;}
	.st236{fill:#EE93B9;}
</style>
<circle class="st12" cx="143" cy="143" r="143"/>
<g>
	<path class="st7" d="M101.3,208.3h-5.1L91,198.3h-0.1c0.1,1.6,0.2,2.8,0.2,3.6v6.4h-3.4v-14.3h5l5.2,9.9H98
		c-0.1-1.4-0.1-2.6-0.1-3.5v-6.5h3.4V208.3z"/>
	<path class="st7" d="M111.4,208.3l-0.7-1.5h-0.1c-0.5,0.6-1,1.1-1.6,1.3c-0.5,0.2-1.2,0.4-2.1,0.4c-1,0-1.9-0.3-2.5-0.9
		c-0.6-0.6-0.9-1.5-0.9-2.6c0-1.2,0.4-2.1,1.2-2.6s2-0.9,3.6-1l1.8-0.1v-0.2c0-0.9-0.4-1.4-1.3-1.4c-0.8,0-1.8,0.3-3.1,0.8l-1.1-2.5
		c1.3-0.7,2.9-1,4.9-1c1.4,0,2.5,0.4,3.3,1.1c0.8,0.7,1.2,1.7,1.2,2.9v7.3H111.4z M108.6,205.8c0.5,0,0.9-0.1,1.2-0.4
		c0.3-0.3,0.5-0.7,0.5-1.1v-0.9l-0.9,0c-1.3,0-1.9,0.5-1.9,1.4C107.5,205.5,107.8,205.8,108.6,205.8z"/>
	<path class="st7" d="M119.5,208.3l-4.2-11.1h4l1.9,6.5c0,0,0,0.1,0,0.2s0,0.2,0.1,0.3s0,0.2,0.1,0.3c0,0.1,0,0.2,0,0.3h0.1
		c0-0.3,0.1-0.7,0.2-1.1l2-6.6h4l-4.2,11.1H119.5z"/>
	<path class="st7" d="M128.8,194.5c0-0.6,0.2-1,0.5-1.3c0.3-0.3,0.8-0.4,1.5-0.4c0.7,0,1.2,0.1,1.6,0.4c0.3,0.3,0.5,0.7,0.5,1.3
		c0,1.1-0.7,1.7-2,1.7C129.4,196.2,128.8,195.6,128.8,194.5z M132.7,208.3h-3.8v-11.1h3.8V208.3z"/>
	<path class="st7" d="M145.8,197.3v1.8l-1.5,0.6c0.2,0.4,0.3,0.8,0.3,1.3c0,1.2-0.4,2.1-1.3,2.8c-0.8,0.7-2.1,1-3.7,1
		c-0.4,0-0.7,0-1-0.1c-0.1,0.2-0.1,0.3-0.1,0.5c0,0.2,0.2,0.3,0.5,0.4c0.3,0.1,0.7,0.2,1.2,0.2h1.8c2.5,0,3.7,1,3.7,3.1
		c0,1.3-0.6,2.4-1.7,3.1c-1.1,0.7-2.8,1.1-4.8,1.1c-1.6,0-2.8-0.3-3.6-0.8s-1.3-1.3-1.3-2.3c0-1.3,0.8-2.2,2.5-2.6
		c-0.3-0.1-0.6-0.4-0.9-0.7c-0.2-0.3-0.4-0.6-0.4-0.9c0-0.3,0.1-0.6,0.3-0.9c0.2-0.3,0.6-0.6,1.2-0.9c-0.6-0.3-1-0.7-1.4-1.2
		c-0.3-0.5-0.5-1.2-0.5-2c0-1.2,0.4-2.1,1.2-2.8s2-1,3.5-1c0.2,0,0.6,0,1,0.1c0.5,0,0.9,0.1,1.1,0.1H145.8z M137.4,209.7
		c0,0.3,0.2,0.6,0.5,0.8c0.3,0.2,0.8,0.3,1.4,0.3c0.9,0,1.7-0.1,2.2-0.3s0.8-0.5,0.8-0.9c0-0.3-0.2-0.5-0.5-0.6
		c-0.3-0.1-0.8-0.2-1.5-0.2h-1.5c-0.4,0-0.8,0.1-1,0.3S137.4,209.4,137.4,209.7z M138.6,200.9c0,1.1,0.4,1.7,1.2,1.7
		c0.4,0,0.6-0.1,0.8-0.4c0.2-0.3,0.3-0.7,0.3-1.3c0-1.1-0.4-1.7-1.1-1.7C139,199.2,138.6,199.8,138.6,200.9z"/>
	<path class="st7" d="M154.7,208.3l-0.7-1.5h-0.1c-0.5,0.6-1,1.1-1.6,1.3c-0.5,0.2-1.2,0.4-2.1,0.4c-1,0-1.9-0.3-2.5-0.9
		c-0.6-0.6-0.9-1.5-0.9-2.6c0-1.2,0.4-2.1,1.2-2.6s2-0.9,3.6-1l1.8-0.1v-0.2c0-0.9-0.4-1.4-1.3-1.4c-0.8,0-1.8,0.3-3.1,0.8l-1.1-2.5
		c1.3-0.7,2.9-1,4.9-1c1.4,0,2.5,0.4,3.3,1.1c0.8,0.7,1.2,1.7,1.2,2.9v7.3H154.7z M151.9,205.8c0.5,0,0.9-0.1,1.2-0.4
		c0.3-0.3,0.5-0.7,0.5-1.1v-0.9l-0.9,0c-1.3,0-1.9,0.5-1.9,1.4C150.8,205.5,151.1,205.8,151.9,205.8z"/>
	<path class="st7" d="M165.3,205.5c0.5,0,1.1-0.1,1.8-0.4v2.8c-0.5,0.2-1,0.4-1.5,0.5c-0.5,0.1-1,0.1-1.6,0.1
		c-1.3,0-2.2-0.3-2.8-0.9s-0.8-1.6-0.8-2.9v-4.6h-1.3v-1.6l1.7-1.2l1-2.3h2.5v2.2h2.7v2.9h-2.7v4.3
		C164.3,205.2,164.7,205.5,165.3,205.5z"/>
	<path class="st7" d="M169,194.5c0-0.6,0.2-1,0.5-1.3c0.3-0.3,0.8-0.4,1.5-0.4c0.7,0,1.2,0.1,1.6,0.4c0.3,0.3,0.5,0.7,0.5,1.3
		c0,1.1-0.7,1.7-2,1.7C169.7,196.2,169,195.6,169,194.5z M173,208.3h-3.8v-11.1h3.8V208.3z"/>
	<path class="st7" d="M182.6,208.3v-6c0-0.7-0.1-1.3-0.3-1.7c-0.2-0.4-0.6-0.6-1-0.6c-0.6,0-1.1,0.3-1.4,0.8
		c-0.3,0.5-0.4,1.4-0.4,2.6v4.8h-3.8v-11.1h2.9l0.5,1.4h0.2c0.3-0.5,0.8-0.9,1.4-1.2s1.2-0.4,2-0.4c1.2,0,2.2,0.4,2.9,1.1
		c0.7,0.7,1,1.7,1,3v7.2H182.6z"/>
	<path class="st7" d="M199.5,197.3v1.8l-1.5,0.6c0.2,0.4,0.3,0.8,0.3,1.3c0,1.2-0.4,2.1-1.3,2.8c-0.8,0.7-2.1,1-3.7,1
		c-0.4,0-0.7,0-1-0.1c-0.1,0.2-0.1,0.3-0.1,0.5c0,0.2,0.2,0.3,0.5,0.4c0.3,0.1,0.7,0.2,1.2,0.2h1.8c2.5,0,3.7,1,3.7,3.1
		c0,1.3-0.6,2.4-1.7,3.1c-1.1,0.7-2.8,1.1-4.8,1.1c-1.6,0-2.8-0.3-3.6-0.8s-1.3-1.3-1.3-2.3c0-1.3,0.8-2.2,2.5-2.6
		c-0.3-0.1-0.6-0.4-0.9-0.7c-0.2-0.3-0.4-0.6-0.4-0.9c0-0.3,0.1-0.6,0.3-0.9c0.2-0.3,0.6-0.6,1.2-0.9c-0.6-0.3-1-0.7-1.4-1.2
		c-0.3-0.5-0.5-1.2-0.5-2c0-1.2,0.4-2.1,1.2-2.8s2-1,3.5-1c0.2,0,0.6,0,1,0.1c0.5,0,0.9,0.1,1.1,0.1H199.5z M191.1,209.7
		c0,0.3,0.2,0.6,0.5,0.8c0.3,0.2,0.8,0.3,1.4,0.3c0.9,0,1.7-0.1,2.2-0.3s0.8-0.5,0.8-0.9c0-0.3-0.2-0.5-0.5-0.6
		c-0.3-0.1-0.8-0.2-1.5-0.2h-1.5c-0.4,0-0.8,0.1-1,0.3S191.1,209.4,191.1,209.7z M192.3,200.9c0,1.1,0.4,1.7,1.2,1.7
		c0.4,0,0.6-0.1,0.8-0.4c0.2-0.3,0.3-0.7,0.3-1.3c0-1.1-0.4-1.7-1.1-1.7C192.7,199.2,192.3,199.8,192.3,200.9z"/>
	<path class="st7" d="M76.2,221c-0.9,0-1.6,0.4-2.1,1.1c-0.5,0.8-0.8,1.8-0.8,3.1c0,2.7,1,4.1,3.1,4.1c0.6,0,1.2-0.1,1.8-0.3
		c0.6-0.2,1.2-0.4,1.8-0.6v3.3c-1.2,0.5-2.5,0.8-4,0.8c-2.2,0-3.8-0.6-5-1.9c-1.1-1.2-1.7-3.1-1.7-5.4c0-1.5,0.3-2.8,0.8-3.9
		s1.4-2,2.4-2.6s2.3-0.9,3.7-0.9c1.5,0,3,0.3,4.4,1l-1.2,3c-0.5-0.2-1.1-0.5-1.6-0.6S76.8,221,76.2,221z"/>
	<path class="st7" d="M93.2,226.8c0,1.8-0.5,3.2-1.5,4.2c-1,1-2.3,1.5-4.1,1.5c-1.7,0-3-0.5-4-1.6c-1-1-1.5-2.4-1.5-4.2
		c0-1.8,0.5-3.2,1.5-4.2c1-1,2.3-1.5,4.1-1.5c1.1,0,2,0.2,2.9,0.7c0.8,0.5,1.5,1.1,1.9,2C93,224.6,93.2,225.6,93.2,226.8z M86,226.8
		c0,1,0.1,1.7,0.4,2.2s0.7,0.7,1.3,0.7c0.6,0,1-0.2,1.3-0.7s0.4-1.2,0.4-2.2c0-0.9-0.1-1.7-0.4-2.1c-0.2-0.5-0.7-0.7-1.3-0.7
		c-0.6,0-1,0.2-1.3,0.7S86,225.8,86,226.8z"/>
	<path class="st7" d="M109,232.3v-6c0-0.7-0.1-1.3-0.3-1.7s-0.5-0.6-1-0.6c-0.6,0-1,0.3-1.3,0.8s-0.4,1.3-0.4,2.4v5.2h-3.8v-6
		c0-0.7-0.1-1.3-0.3-1.7s-0.5-0.6-0.9-0.6c-0.6,0-1,0.3-1.3,0.8s-0.4,1.4-0.4,2.6v4.8h-3.8v-11.1h2.9l0.5,1.4H99
		c0.3-0.5,0.7-0.9,1.3-1.2s1.2-0.4,1.9-0.4c1.6,0,2.7,0.5,3.4,1.5h0.3c0.3-0.5,0.7-0.8,1.3-1.1s1.2-0.4,1.8-0.4c1.3,0,2.3,0.3,2.9,1
		s0.9,1.7,0.9,3.1v7.2H109z"/>
	<path class="st7" d="M122,232.5c-0.6,0-1.1-0.1-1.5-0.3c-0.4-0.2-0.9-0.5-1.3-1H119c0.1,0.8,0.2,1.3,0.2,1.4v4.4h-3.8v-15.9h3.1
		l0.5,1.4h0.2c0.7-1.1,1.7-1.6,2.9-1.6c1.2,0,2.2,0.5,2.9,1.5c0.7,1,1,2.4,1,4.2c0,1.8-0.4,3.2-1.1,4.2
		C124.3,232,123.3,232.5,122,232.5z M120.7,224.1c-0.6,0-1,0.2-1.2,0.6s-0.3,1-0.4,1.8v0.3c0,1,0.1,1.6,0.4,2.1s0.7,0.6,1.2,0.6
		c0.5,0,0.8-0.2,1.1-0.6c0.2-0.4,0.3-1.1,0.3-2.1c0-1-0.1-1.6-0.3-2C121.6,224.3,121.3,224.1,120.7,224.1z"/>
	<path class="st7" d="M133.6,232.5c-1.8,0-3.3-0.5-4.3-1.5c-1-1-1.5-2.4-1.5-4.2c0-1.9,0.5-3.3,1.4-4.3c0.9-1,2.3-1.5,4-1.5
		c1.7,0,3,0.4,3.9,1.3s1.4,2.1,1.4,3.8v1.7h-6.8c0,0.6,0.3,1.1,0.7,1.5c0.4,0.4,1,0.5,1.7,0.5c0.7,0,1.3-0.1,1.9-0.2
		c0.6-0.1,1.2-0.3,1.8-0.6v2.7c-0.6,0.3-1.2,0.5-1.9,0.6C135.2,232.5,134.5,232.5,133.6,232.5z M133.4,223.7c-0.4,0-0.8,0.1-1.1,0.4
		s-0.5,0.7-0.5,1.3h3.3c0-0.5-0.2-1-0.5-1.3C134.2,223.8,133.8,223.7,133.4,223.7z"/>
	<path class="st7" d="M147.6,232.3v-6c0-0.7-0.1-1.3-0.3-1.7c-0.2-0.4-0.6-0.6-1-0.6c-0.6,0-1.1,0.3-1.4,0.8
		c-0.3,0.5-0.4,1.4-0.4,2.6v4.8h-3.8v-11.1h2.9l0.5,1.4h0.2c0.3-0.5,0.8-0.9,1.4-1.2s1.2-0.4,2-0.4c1.2,0,2.2,0.4,2.9,1.1
		c0.7,0.7,1,1.7,1,3v7.2H147.6z"/>
	<path class="st7" d="M162.6,228.9c0,1.2-0.4,2.1-1.2,2.7c-0.8,0.6-2,0.9-3.5,0.9c-0.8,0-1.5,0-2.1-0.1s-1.2-0.2-1.9-0.5v-3.1
		c0.6,0.3,1.2,0.5,1.9,0.6c0.7,0.2,1.3,0.3,1.9,0.3c0.8,0,1.2-0.2,1.2-0.6c0-0.2-0.1-0.4-0.3-0.5c-0.2-0.2-0.9-0.5-2-0.9
		c-1-0.4-1.7-0.9-2.1-1.4c-0.4-0.5-0.6-1.2-0.6-2c0-1,0.4-1.8,1.2-2.4c0.8-0.6,1.9-0.9,3.4-0.9c0.7,0,1.4,0.1,2.1,0.2
		c0.6,0.2,1.3,0.4,2,0.7l-1,2.5c-0.5-0.2-1-0.4-1.6-0.6s-1-0.2-1.4-0.2c-0.6,0-0.9,0.2-0.9,0.5c0,0.2,0.1,0.3,0.3,0.5
		c0.2,0.1,0.8,0.4,1.9,0.8c0.8,0.3,1.4,0.6,1.7,0.9s0.7,0.7,0.8,1.1C162.5,227.8,162.6,228.3,162.6,228.9z"/>
	<path class="st7" d="M171.9,232.3l-0.7-1.5h-0.1c-0.5,0.6-1,1.1-1.6,1.3c-0.5,0.2-1.2,0.4-2.1,0.4c-1,0-1.9-0.3-2.5-0.9
		c-0.6-0.6-0.9-1.5-0.9-2.6c0-1.2,0.4-2.1,1.2-2.6s2-0.9,3.6-1l1.8-0.1v-0.2c0-0.9-0.4-1.4-1.3-1.4c-0.8,0-1.8,0.3-3.1,0.8l-1.1-2.5
		c1.3-0.7,2.9-1,4.9-1c1.4,0,2.5,0.4,3.3,1.1c0.8,0.7,1.2,1.7,1.2,2.9v7.3H171.9z M169.1,229.8c0.5,0,0.9-0.1,1.2-0.4
		c0.3-0.3,0.5-0.7,0.5-1.1v-0.9l-0.9,0c-1.3,0-1.9,0.5-1.9,1.4C168,229.5,168.3,229.8,169.1,229.8z"/>
	<path class="st7" d="M182.6,229.5c0.5,0,1.1-0.1,1.8-0.4v2.8c-0.5,0.2-1,0.4-1.5,0.5c-0.5,0.1-1,0.1-1.6,0.1
		c-1.3,0-2.2-0.3-2.8-0.9s-0.8-1.6-0.8-2.9v-4.6h-1.3v-1.6l1.7-1.2l1-2.3h2.5v2.2h2.7v2.9h-2.7v4.3
		C181.5,229.2,181.9,229.5,182.6,229.5z"/>
	<path class="st7" d="M186.3,218.5c0-0.6,0.2-1,0.5-1.3c0.3-0.3,0.8-0.4,1.5-0.4c0.7,0,1.2,0.1,1.6,0.4c0.3,0.3,0.5,0.7,0.5,1.3
		c0,1.1-0.7,1.7-2,1.7C186.9,220.2,186.3,219.6,186.3,218.5z M190.2,232.3h-3.8v-11.1h3.8V232.3z"/>
	<path class="st7" d="M203.4,226.8c0,1.8-0.5,3.2-1.5,4.2c-1,1-2.3,1.5-4.1,1.5c-1.7,0-3-0.5-4-1.6c-1-1-1.5-2.4-1.5-4.2
		c0-1.8,0.5-3.2,1.5-4.2c1-1,2.3-1.5,4.1-1.5c1.1,0,2,0.2,2.9,0.7c0.8,0.5,1.5,1.1,1.9,2C203.2,224.6,203.4,225.6,203.4,226.8z
		 M196.2,226.8c0,1,0.1,1.7,0.4,2.2s0.7,0.7,1.3,0.7c0.6,0,1-0.2,1.3-0.7s0.4-1.2,0.4-2.2c0-0.9-0.1-1.7-0.4-2.1
		c-0.2-0.5-0.7-0.7-1.3-0.7c-0.6,0-1,0.2-1.3,0.7S196.2,225.8,196.2,226.8z"/>
	<path class="st7" d="M212.6,232.3v-6c0-0.7-0.1-1.3-0.3-1.7c-0.2-0.4-0.6-0.6-1-0.6c-0.6,0-1.1,0.3-1.4,0.8
		c-0.3,0.5-0.4,1.4-0.4,2.6v4.8h-3.8v-11.1h2.9l0.5,1.4h0.2c0.3-0.5,0.8-0.9,1.4-1.2s1.2-0.4,2-0.4c1.2,0,2.2,0.4,2.9,1.1
		c0.7,0.7,1,1.7,1,3v7.2H212.6z"/>
	<path class="st7" d="M99.2,252c0,0.9-0.2,1.7-0.7,2.4s-1.1,1.2-1.9,1.6c-0.8,0.4-1.8,0.6-3,0.6c-1,0-1.7-0.1-2.4-0.2
		s-1.3-0.4-2-0.7v-3.4c0.7,0.4,1.5,0.7,2.3,0.9c0.8,0.2,1.5,0.3,2.2,0.3c0.6,0,1-0.1,1.3-0.3c0.3-0.2,0.4-0.5,0.4-0.8
		c0-0.2-0.1-0.4-0.2-0.5s-0.3-0.3-0.5-0.4c-0.2-0.1-0.9-0.5-1.9-0.9c-0.9-0.4-1.6-0.8-2.1-1.2c-0.5-0.4-0.8-0.9-1-1.4
		s-0.3-1.1-0.3-1.8c0-1.3,0.5-2.3,1.4-3.1s2.3-1.1,3.9-1.1c1.5,0,3,0.3,4.5,1l-1.2,3c-1.3-0.6-2.5-0.9-3.5-0.9
		c-0.5,0-0.9,0.1-1.1,0.3c-0.2,0.2-0.3,0.4-0.3,0.7c0,0.3,0.1,0.5,0.4,0.8c0.3,0.2,1.1,0.6,2.4,1.2c1.2,0.6,2.1,1.1,2.6,1.8
		S99.2,251,99.2,252z"/>
	<path class="st7" d="M106.6,253.5c0.5,0,1.1-0.1,1.8-0.4v2.8c-0.5,0.2-1,0.4-1.5,0.5c-0.5,0.1-1,0.1-1.6,0.1
		c-1.3,0-2.2-0.3-2.8-0.9s-0.8-1.6-0.8-2.9v-4.6h-1.3v-1.6l1.7-1.2l1-2.3h2.5v2.2h2.7v2.9h-2.7v4.3
		C105.6,253.2,105.9,253.5,106.6,253.5z"/>
	<path class="st7" d="M117.1,245.1c0.3,0,0.6,0,0.9,0.1l0.2,0l-0.3,3.6c-0.3-0.1-0.7-0.1-1.3-0.1c-0.8,0-1.4,0.2-1.8,0.6
		c-0.4,0.4-0.6,0.9-0.6,1.6v5.4h-3.8v-11.1h2.8l0.6,1.8h0.2c0.3-0.6,0.8-1.1,1.3-1.4C115.9,245.3,116.5,245.1,117.1,245.1z"/>
	<path class="st7" d="M127.7,256.3l-0.5-1.4H127c-0.3,0.5-0.8,0.9-1.3,1.2c-0.6,0.3-1.2,0.4-2,0.4c-1.2,0-2.2-0.4-2.8-1.1
		c-0.7-0.7-1-1.7-1-3v-7.2h3.8v6c0,0.7,0.1,1.3,0.3,1.6s0.5,0.6,1,0.6c0.7,0,1.1-0.3,1.4-0.8c0.3-0.5,0.4-1.4,0.4-2.6v-4.8h3.8v11.1
		H127.7z"/>
	<path class="st7" d="M138.2,256.5c-1.8,0-3.2-0.5-4.1-1.5c-0.9-1-1.4-2.4-1.4-4.2c0-1.8,0.5-3.3,1.5-4.3c1-1,2.4-1.5,4.3-1.5
		c1.3,0,2.5,0.3,3.6,0.8l-1.1,2.8c-0.5-0.2-0.9-0.4-1.3-0.5s-0.8-0.2-1.2-0.2c-0.6,0-1.1,0.2-1.4,0.7c-0.3,0.5-0.5,1.2-0.5,2
		c0,1.8,0.7,2.7,2,2.7c1.1,0,2.2-0.3,3.2-1v3C140.8,256.2,139.6,256.5,138.2,256.5z"/>
	<path class="st7" d="M149.4,253.5c0.5,0,1.1-0.1,1.8-0.4v2.8c-0.5,0.2-1,0.4-1.5,0.5c-0.5,0.1-1,0.1-1.6,0.1
		c-1.3,0-2.2-0.3-2.8-0.9s-0.8-1.6-0.8-2.9v-4.6h-1.3v-1.6l1.7-1.2l1-2.3h2.5v2.2h2.7v2.9h-2.7v4.3
		C148.4,253.2,148.7,253.5,149.4,253.5z"/>
	<path class="st7" d="M161,256.3l-0.5-1.4h-0.2c-0.3,0.5-0.8,0.9-1.3,1.2c-0.6,0.3-1.2,0.4-2,0.4c-1.2,0-2.2-0.4-2.8-1.1
		c-0.7-0.7-1-1.7-1-3v-7.2h3.8v6c0,0.7,0.1,1.3,0.3,1.6s0.5,0.6,1,0.6c0.7,0,1.1-0.3,1.4-0.8c0.3-0.5,0.4-1.4,0.4-2.6v-4.8h3.8v11.1
		H161z"/>
	<path class="st7" d="M173.2,245.1c0.3,0,0.6,0,0.9,0.1l0.2,0l-0.3,3.6c-0.3-0.1-0.7-0.1-1.3-0.1c-0.8,0-1.4,0.2-1.8,0.6
		c-0.4,0.4-0.6,0.9-0.6,1.6v5.4h-3.8v-11.1h2.8l0.6,1.8h0.2c0.3-0.6,0.8-1.1,1.3-1.4C172.1,245.3,172.7,245.1,173.2,245.1z"/>
	<path class="st7" d="M181.3,256.5c-1.8,0-3.3-0.5-4.3-1.5c-1-1-1.5-2.4-1.5-4.2c0-1.9,0.5-3.3,1.4-4.3c0.9-1,2.3-1.5,4-1.5
		c1.7,0,3,0.4,3.9,1.3s1.4,2.1,1.4,3.8v1.7h-6.8c0,0.6,0.3,1.1,0.7,1.5c0.4,0.4,1,0.5,1.7,0.5c0.7,0,1.3-0.1,1.9-0.2
		c0.6-0.1,1.2-0.3,1.8-0.6v2.7c-0.6,0.3-1.2,0.5-1.9,0.6C182.9,256.5,182.2,256.5,181.3,256.5z M181.1,247.7c-0.4,0-0.8,0.1-1.1,0.4
		s-0.5,0.7-0.5,1.3h3.3c0-0.5-0.2-1-0.5-1.3C181.9,247.8,181.6,247.7,181.1,247.7z"/>
	<path class="st7" d="M196.9,252.9c0,1.2-0.4,2.1-1.2,2.7c-0.8,0.6-2,0.9-3.5,0.9c-0.8,0-1.5,0-2.1-0.1s-1.2-0.2-1.9-0.5v-3.1
		c0.6,0.3,1.2,0.5,1.9,0.6c0.7,0.2,1.3,0.3,1.9,0.3c0.8,0,1.2-0.2,1.2-0.6c0-0.2-0.1-0.4-0.3-0.5c-0.2-0.2-0.9-0.5-2-0.9
		c-1-0.4-1.7-0.9-2.1-1.4c-0.4-0.5-0.6-1.2-0.6-2c0-1,0.4-1.8,1.2-2.4c0.8-0.6,1.9-0.9,3.4-0.9c0.7,0,1.4,0.1,2.1,0.2
		c0.6,0.2,1.3,0.4,2,0.7l-1,2.5c-0.5-0.2-1-0.4-1.6-0.6s-1-0.2-1.4-0.2c-0.6,0-0.9,0.2-0.9,0.5c0,0.2,0.1,0.3,0.3,0.5
		c0.2,0.1,0.8,0.4,1.9,0.8c0.8,0.3,1.4,0.6,1.7,0.9s0.7,0.7,0.8,1.1C196.8,251.8,196.9,252.3,196.9,252.9z"/>
</g>
<g>
	<g>
		<path class="st45" d="M239.9,161.5c-53.6,8.6-107.2-4.2-160.8-2.9c-11.1-10.6-22.2-20.5-33.3-29.5c53.6-8.6,107.2,4.2,160.8,2.9
			C217.6,142.5,228.8,152.5,239.9,161.5z"/>
		<g>
			<path class="st46" d="M53.2,130.1c9.7,8.2,19.4,17.1,29.1,26.4c50.1-0.7,100.1,10.3,150.2,4c-9.7-8.2-19.4-17.1-29.1-26.4
				C153.3,134.8,103.2,123.8,53.2,130.1z M219.3,160.8c-41.9,2.9-83.8-4.5-125.7-5.3c-2.6-2.3-8.8-4.2-14.4-4.2
				c-6.2-5.9-12.3-11.5-18.5-17c5.1-0.6,7.6-2.5,5.7-4.6c41.9-2.9,83.8,4.5,125.7,5.3c2.7,2.3,8.7,4.1,14.2,4.1
				c6.2,5.9,12.3,11.5,18.5,17C219.6,156.8,217.3,158.7,219.3,160.8z"/>
		</g>
		<path class="st46" d="M113.4,143.1c-6.9-7.1,0.6-12.3,16.8-11.1c16.2,1.3,34.9,8.3,41.8,15.3c6.9,7.1-0.6,12.3-16.8,11.1
			C139.1,157.1,120.3,150.2,113.4,143.1z"/>
		<path class="st46" d="M84.1,142.7c-2.1-2.1,0.2-3.8,5.2-3.8c5,0,10.8,1.9,12.9,4.1c2.1,2.2-0.2,3.7-5.2,3.6
			C92.1,146.5,86.3,144.8,84.1,142.7z"/>
		<path class="st46" d="M80.4,142.8c-3-2.8,0.3-5.4,7.3-5.4c7,0,15.2,2.7,18.2,5.8c3,3.1-0.3,5.3-7.3,5
			C91.6,147.9,83.4,145.6,80.4,142.8z M104.5,143.1c-2.7-2.7-9.9-5.1-16.2-5.1c-6.2,0-9.1,2.2-6.5,4.7c2.7,2.5,9.9,4.6,16.2,4.8
			C104.3,147.8,107.2,145.8,104.5,143.1z"/>
		<g>
			<path class="st45" d="M153.4,157.7c-0.8-0.8-1.5-1.6-2.3-2.4c-3.1-0.4-5.8-0.9-8.1-1.4c-2.2-0.5-4.5-1.3-6.6-2.3
				c-2.2-1-4-2.1-5.4-3.3c1.9,0,3.7,0,5.6,0c1.7,1.3,3.4,2.3,5.2,3c2.5,1,5,1.6,7.4,1.9c-2.4-2.6-4.9-5.1-7.3-7.7
				c-2.6-0.4-5.5-1-8.6-1.7c-2.3-0.6-4.3-1.3-6.1-2.1c-1.8-0.8-3.1-1.7-4-2.7c-1.6-1.7-1.4-3,0.6-3.8c1.3-0.6,3.9-0.8,7.7-0.6
				c-0.4-0.4-0.7-0.8-1.1-1.1c1.2,0.1,2.3,0.2,3.5,0.3c0.4,0.4,0.7,0.8,1.1,1.1c3.6,0.4,6.8,1,9.4,1.9c3.4,1.1,6.2,2.4,8.1,4
				c-1.9,0-3.9-0.1-5.8-0.1c-1.3-1-2.7-1.8-4.3-2.3c-1.6-0.6-3.4-1-5.5-1.4c2.2,2.3,4.4,4.6,6.6,6.9c3.3,0.5,5.5,0.9,6.7,1.2
				c2.2,0.5,4.1,1,5.7,1.6c1.6,0.6,3.1,1.2,4.3,1.9c1.2,0.7,2.2,1.4,3,2.2c1.6,1.7,1.6,2.9,0,3.9c-1.6,0.9-4.4,1.3-8.5,1
				c0.8,0.8,1.5,1.6,2.3,2.4C155.8,157.9,154.6,157.8,153.4,157.7z M133.4,136.6c-2.2,0-3.7,0.2-4.4,0.7c-0.8,0.5-0.8,1.2,0,2
				c0.8,0.8,2,1.5,3.7,2.2c1.7,0.6,4,1.2,7.1,1.8C137.6,141.1,135.5,138.9,133.4,136.6z M152.7,153.5c2.2,0.1,3.8-0.2,4.6-0.8
				c0.9-0.6,0.8-1.4-0.2-2.4c-0.8-0.9-2-1.6-3.6-2.2c-1.6-0.6-4.2-1.3-7.8-1.9C148.1,148.7,150.4,151.1,152.7,153.5z"/>
		</g>
		<path class="st46" d="M202.9,149c0.9-0.1,1.8-0.3,2.7-0.4c-1.1-0.1-2.3-0.2-3.4-0.3c0.8-0.2,1.5-0.4,2.3-0.6
			c-1.1,0-2.2-0.1-3.3-0.1c0.6-0.3,1.2-0.5,1.8-0.8c-1,0-2,0.1-3.1,0.1c0.4-0.3,0.8-0.6,1.2-1c-0.9,0.1-1.8,0.2-2.7,0.3
			c0.2-0.4,0.4-0.7,0.7-1.1c-0.8,0.2-1.6,0.4-2.3,0.5c0-0.4,0-0.8,0.1-1.2c-0.6,0.2-1.2,0.5-1.9,0.7c-0.2-0.4-0.4-0.9-0.5-1.3
			c-0.4,0.3-0.9,0.6-1.3,0.9c-0.4-0.4-0.7-0.9-1.1-1.3c-0.3,0.4-0.5,0.7-0.8,1.1c-0.6-0.4-1.1-0.9-1.7-1.4c-0.1,0.4-0.1,0.8-0.2,1.2
			c-0.7-0.4-1.4-0.9-2.2-1.3c0.1,0.4,0.3,0.9,0.4,1.3c-0.9-0.4-1.7-0.8-2.6-1.3c0.3,0.5,0.7,0.9,1,1.4c-1-0.4-2-0.8-3-1.2
			c0.5,0.5,1.1,0.9,1.6,1.4c-1.1-0.3-2.1-0.7-3.2-1c0.7,0.5,1.4,0.9,2.1,1.4c-1.1-0.3-2.3-0.6-3.4-0.9c0.8,0.4,1.7,0.9,2.5,1.3
			c-1.1-0.2-2.3-0.5-3.5-0.7c1,0.4,1.9,0.8,2.9,1.2c-1.1-0.2-2.3-0.3-3.4-0.5c1.1,0.4,2.1,0.7,3.2,1.1c-1.1-0.1-2.2-0.2-3.3-0.2
			c1.1,0.3,2.3,0.6,3.4,0.9c-1,0-2,0-3,0c1.2,0.2,2.3,0.5,3.5,0.7c-0.9,0.1-1.8,0.2-2.7,0.2c1.1,0.2,2.3,0.3,3.4,0.5
			c-0.8,0.2-1.5,0.3-2.3,0.5c1.1,0.1,2.2,0.2,3.3,0.3c-0.6,0.2-1.2,0.5-1.8,0.7c1,0,2,0,3.1,0c-0.4,0.3-0.8,0.6-1.2,0.9
			c0.9-0.1,1.8-0.2,2.7-0.2c-0.2,0.4-0.4,0.7-0.7,1.1c0.8-0.2,1.6-0.3,2.3-0.5c0,0.4,0,0.8-0.1,1.2c0.6-0.2,1.2-0.5,1.9-0.7
			c0.2,0.4,0.4,0.9,0.5,1.3c0.4-0.3,0.9-0.6,1.3-0.9c0.4,0.4,0.7,0.9,1.1,1.3c0.3-0.4,0.5-0.7,0.8-1.1c0.6,0.4,1.1,0.9,1.7,1.3
			c0.1-0.4,0.1-0.8,0.2-1.2c0.7,0.4,1.4,0.9,2.2,1.3c-0.1-0.4-0.3-0.9-0.4-1.3c0.9,0.4,1.7,0.8,2.6,1.2c-0.3-0.4-0.7-0.9-1-1.3
			c1,0.4,2,0.7,3,1.1c-0.5-0.4-1.1-0.9-1.6-1.3c1.1,0.3,2.1,0.6,3.2,0.9c-0.7-0.4-1.4-0.8-2.1-1.3c1.1,0.2,2.3,0.5,3.4,0.7
			c-0.9-0.4-1.7-0.8-2.6-1.2c1.2,0.2,2.3,0.3,3.5,0.5c-1-0.3-1.9-0.7-2.9-1c1.1,0.1,2.3,0.2,3.4,0.3c-1.1-0.3-2.1-0.6-3.2-0.9
			c1.1,0,2.2,0,3.3,0c-1.1-0.2-2.3-0.5-3.4-0.7c1-0.1,2-0.1,3-0.2C205.3,149.4,204.1,149.2,202.9,149z"/>
		<path class="st45" d="M184.5,148.4c-1.9-2,0.2-3.4,4.7-3.3c4.5,0.1,9.8,1.7,11.7,3.5c1.9,1.9-0.2,3.4-4.7,3.4
			C191.7,152.1,186.4,150.4,184.5,148.4z"/>
		<g>
			<path class="st46" d="M195.7,152.1c-0.2-0.2-0.4-0.4-0.7-0.7c-0.9-0.1-1.7-0.1-2.4-0.3c-0.7-0.1-1.3-0.3-1.9-0.5
				c-0.6-0.2-1.2-0.5-1.6-0.9c0.5,0,1.1-0.1,1.6-0.1c0.5,0.4,1,0.6,1.5,0.8c0.7,0.2,1.5,0.4,2.2,0.4c-0.7-0.7-1.4-1.4-2.1-2.1
				c-0.8-0.1-1.6-0.2-2.5-0.4c-0.7-0.1-1.3-0.3-1.8-0.5c-0.5-0.2-0.9-0.5-1.2-0.7c-0.5-0.5-0.4-0.9,0.2-1.1c0.4-0.2,1.1-0.3,2.3-0.3
				c-0.1-0.1-0.2-0.2-0.3-0.3c0.3,0,0.7,0,1,0c0.1,0.1,0.2,0.2,0.3,0.3c1.1,0.1,2,0.2,2.8,0.4c1,0.3,1.8,0.6,2.4,1
				c-0.6,0-1.1,0.1-1.7,0.1c-0.4-0.3-0.8-0.5-1.3-0.6c-0.5-0.1-1-0.2-1.6-0.3c0.6,0.6,1.3,1.3,1.9,1.9c1,0.1,1.6,0.2,1.9,0.2
				c0.6,0.1,1.2,0.2,1.7,0.3c0.5,0.1,0.9,0.3,1.3,0.5c0.4,0.2,0.7,0.4,0.9,0.6c0.5,0.5,0.5,0.8,0,1.1c-0.5,0.3-1.3,0.5-2.5,0.5
				c0.2,0.2,0.5,0.4,0.7,0.7C196.4,152.1,196.1,152.1,195.7,152.1z M189.9,146.3c-0.6,0-1.1,0.1-1.3,0.3c-0.2,0.2-0.2,0.4,0,0.6
				c0.2,0.2,0.6,0.4,1.1,0.6c0.5,0.2,1.2,0.3,2.1,0.4C191.1,147.5,190.5,146.9,189.9,146.3z M195.5,150.9c0.6,0,1.1-0.1,1.3-0.3
				c0.3-0.2,0.2-0.4-0.1-0.7c-0.2-0.2-0.6-0.4-1.1-0.6c-0.5-0.1-1.2-0.3-2.3-0.4C194.2,149.5,194.9,150.2,195.5,150.9z"/>
		</g>
		<g>
			<path class="st45" d="M96.1,146.2c-0.2-0.2-0.4-0.4-0.7-0.7c-0.9-0.1-1.7-0.1-2.4-0.3c-0.7-0.1-1.3-0.3-1.9-0.5
				c-0.6-0.2-1.2-0.5-1.6-0.9c0.5,0,1.1-0.1,1.6-0.1c0.5,0.4,1,0.6,1.5,0.8c0.7,0.2,1.5,0.4,2.2,0.4c-0.7-0.7-1.4-1.4-2.1-2.1
				c-0.8-0.1-1.6-0.2-2.5-0.3c-0.7-0.1-1.3-0.3-1.8-0.5c-0.5-0.2-0.9-0.4-1.2-0.7c-0.5-0.5-0.4-0.8,0.2-1.1c0.4-0.2,1.1-0.3,2.3-0.3
				c-0.1-0.1-0.2-0.2-0.3-0.3c0.3,0,0.7,0,1,0c0.1,0.1,0.2,0.2,0.3,0.3c1.1,0,2,0.2,2.8,0.4c1,0.3,1.8,0.6,2.4,1
				c-0.6,0-1.1,0-1.7,0.1c-0.4-0.3-0.8-0.5-1.3-0.6c-0.5-0.1-1-0.2-1.6-0.3c0.6,0.6,1.3,1.3,1.9,1.9c1,0.1,1.6,0.2,1.9,0.2
				c0.6,0.1,1.2,0.2,1.7,0.4c0.5,0.1,0.9,0.3,1.3,0.5c0.4,0.2,0.7,0.4,0.9,0.6c0.5,0.5,0.5,0.8,0,1.1c-0.5,0.3-1.3,0.4-2.5,0.4
				c0.2,0.2,0.5,0.5,0.7,0.7C96.8,146.2,96.4,146.2,96.1,146.2z M90.2,140.4c-0.6,0-1.1,0.1-1.3,0.3c-0.2,0.2-0.2,0.4,0,0.6
				c0.2,0.2,0.6,0.4,1.1,0.6c0.5,0.2,1.2,0.3,2.1,0.4C91.5,141.6,90.8,141,90.2,140.4z M95.9,145c0.6,0,1.1-0.1,1.3-0.3
				c0.3-0.2,0.2-0.4-0.1-0.7c-0.2-0.2-0.6-0.4-1.1-0.6c-0.5-0.2-1.2-0.3-2.3-0.4C94.5,143.6,95.2,144.3,95.9,145z"/>
		</g>
	</g>
	<g>
		<path class="st47" d="M132.7,141.5c-0.1,0-0.1-0.1-0.2-0.1c0.7,0,1.4,0,2.1,0c1,0,2.3,0.1,3.6,0.2c0.5,0.5,1,1.1,1.5,1.6
			C136.7,142.7,134.4,142.2,132.7,141.5z M171.3,147.6c-3.2-2.1-18.7-4.5-29.5-5.6c0.6,0.6,1.2,1.3,1.8,1.9c3.3,0.5,5.5,0.9,6.7,1.2
			c2.2,0.5,4.1,1,5.7,1.6c1.6,0.6,3.1,1.2,4.3,1.9c0.9,0.5,1.7,1,2.3,1.6C173.4,150.9,174.2,149.6,171.3,147.6z M133.3,143.9
			c-1.8-0.5-3.5-1-5-1.6c-1.5,0.6-1.9,1.5-0.2,2.1c1.9,0.7,8.4,2,15.7,3.3c-0.6-0.7-1.3-1.3-1.9-2
			C139.3,145.2,136.4,144.6,133.3,143.9z M145.8,146.2c0.6,0.7,1.3,1.3,1.9,2c2.8,0.4,5.7,0.8,8.3,1.2c-0.7-0.5-1.5-0.9-2.4-1.3
			C152,147.5,149.4,146.9,145.8,146.2z"/>
		<path class="st48" d="M155.9,146.6c-1.6-0.6-3.5-1.1-5.7-1.6c-1.1-0.2-3.4-0.6-6.7-1.2c-0.6-0.6-1.2-1.3-1.8-1.9
			c-1.3-0.1-2.4-0.2-3.6-0.3c0.5,0.5,1,1.1,1.5,1.6c-3-0.5-5.4-1.1-7.1-1.8c-0.1,0-0.1-0.1-0.2-0.1c-1.6,0.1-3.1,0.4-4.2,0.8
			c1.5,0.6,3.1,1.2,5,1.6c3.1,0.8,6,1.4,8.6,1.7c0.6,0.7,1.3,1.3,1.9,2c1.3,0.2,2.6,0.4,3.8,0.6c-0.6-0.7-1.3-1.3-1.9-2
			c3.6,0.7,6.2,1.3,7.8,1.9c1,0.4,1.8,0.8,2.4,1.3c1.9,0.2,3.8,0.4,5.4,0.6c0.4,0,0.8,0.1,1.1,0.1c-0.6-0.5-1.4-1.1-2.3-1.6
			C159,147.8,157.5,147.2,155.9,146.6z"/>
	</g>
	<g>
		<path class="st5" d="M125.8,52c0.3-1.4,0.6-4,1.2-4c0.6,0,2.3-0.2,2.4,0.6c0.1,0.8-0.4,2.6-0.7,3.7l-1.7,1.8L125.8,52z"/>
		<path class="st26" d="M136.3,63.2c-3.7,0.1-7.5,0.1-9-0.1c-1.7-0.4,0.2-5.6,1.5-10.9l-3-0.2c-2.2,7.9-6,14.8-1.4,15.5
			c4.1,0.7,13.7,1.9,13.7,1.9L136.3,63.2z"/>
		<g>
			<linearGradient id="SVGID_2_" gradientUnits="userSpaceOnUse" x1="134.3534" y1="50.4914" x2="134.3534" y2="47.7683">
				<stop  offset="1.735890e-02" style="stop-color:#D1A10D"/>
				<stop  offset="0.1276" style="stop-color:#CE9E0D"/>
				<stop  offset="0.2232" style="stop-color:#C5950C"/>
				<stop  offset="0.3133" style="stop-color:#B6870A"/>
				<stop  offset="0.3995" style="stop-color:#A17404"/>
				<stop  offset="0.4535" style="stop-color:#916600"/>
			</linearGradient>
			<path style="fill:url(#SVGID_2_);" d="M139.1,48l-9.7-0.2l-0.2,1.4l0.2,1.4l9.7-0.2l0,0c0.2,0,0.4-0.5,0.4-1.2
				C139.5,48.5,139.3,48,139.1,48z"/>
			<g>
				<linearGradient id="SVGID_3_" gradientUnits="userSpaceOnUse" x1="134.3591" y1="49.0288" x2="134.3591" y2="47.7683">
					<stop  offset="0.1761" style="stop-color:#FFF200"/>
					<stop  offset="0.4558" style="stop-color:#FFC20E"/>
					<stop  offset="1" style="stop-color:#A57406"/>
				</linearGradient>
				<path class="st31" d="M139.1,48l-9.7-0.2l-0.2,1.3h10.4C139.5,48.4,139.3,48,139.1,48z"/>
			</g>
			<ellipse class="st26" cx="118.8" cy="49.1" rx="0.7" ry="2"/>
			<linearGradient id="SVGID_4_" gradientUnits="userSpaceOnUse" x1="124.2195" y1="51.0735" x2="124.2195" y2="47.1444">
				<stop  offset="1.735890e-02" style="stop-color:#D1A10D"/>
				<stop  offset="0.1276" style="stop-color:#CE9E0D"/>
				<stop  offset="0.2232" style="stop-color:#C5950C"/>
				<stop  offset="0.3133" style="stop-color:#B6870A"/>
				<stop  offset="0.3995" style="stop-color:#A17404"/>
				<stop  offset="0.4535" style="stop-color:#916600"/>
			</linearGradient>
			<path class="st44" d="M129.4,47.4l-10.6-0.3l-0.3,2l0.3,2l10.6-0.3c0,0,0,0,0,0c0.3,0,0.6-0.7,0.6-1.7
				C130,48.2,129.7,47.4,129.4,47.4z"/>
			<g>
				<linearGradient id="SVGID_5_" gradientUnits="userSpaceOnUse" x1="124.2239" y1="49.0288" x2="124.2239" y2="47.1444">
					<stop  offset="0.1761" style="stop-color:#FFF200"/>
					<stop  offset="0.4558" style="stop-color:#FFC20E"/>
					<stop  offset="1" style="stop-color:#A57406"/>
				</linearGradient>
				<path class="st49" d="M129.4,47.4l-10.6-0.3l-0.3,1.9H130C130,48.1,129.7,47.4,129.4,47.4z"/>
			</g>
			<linearGradient id="SVGID_6_" gradientUnits="userSpaceOnUse" x1="111.246" y1="52.0348" x2="111.246" y2="46.1851">
				<stop  offset="1.735890e-02" style="stop-color:#D1A10D"/>
				<stop  offset="0.1276" style="stop-color:#CE9E0D"/>
				<stop  offset="0.2232" style="stop-color:#C5950C"/>
				<stop  offset="0.3133" style="stop-color:#B6870A"/>
				<stop  offset="0.3995" style="stop-color:#A17404"/>
				<stop  offset="0.4535" style="stop-color:#916600"/>
			</linearGradient>
			<path class="st50" d="M118.8,46.6l-15.5-0.4l-0.4,2.9l0.4,2.9l15.5-0.5c0,0,0,0,0,0c0.5,0,0.9-1.1,0.9-2.5
				C119.7,47.7,119.3,46.6,118.8,46.6z"/>
			<g>
				<linearGradient id="SVGID_7_" gradientUnits="userSpaceOnUse" x1="111.2511" y1="49.0288" x2="111.2511" y2="46.1851">
					<stop  offset="0.1761" style="stop-color:#FFF200"/>
					<stop  offset="0.4558" style="stop-color:#FFC20E"/>
					<stop  offset="1" style="stop-color:#A57406"/>
				</linearGradient>
				<path class="st51" d="M118.8,46.6l-15.5-0.4l-0.4,2.8h16.9C119.7,47.7,119.3,46.6,118.8,46.6z"/>
			</g>
			<ellipse class="st55" cx="103.2" cy="49.1" rx="1.1" ry="2.9"/>
			<ellipse class="st56" cx="103.2" cy="49.1" rx="0.8" ry="2.1"/>
			<g>
				<path class="st7" d="M104,49.1c0-1-0.3-1.9-0.6-2.1c-0.4,0.2-0.6,1.1-0.6,2.1c0,1,0.3,1.9,0.6,2.1C103.8,51,104,50.1,104,49.1z"
					/>
			</g>
		</g>
		<polygon class="st5" points="139.2,46 132.9,51.2 137.4,51.4 135.7,63.2 150.6,62.1 148,42.8 140.1,42.6 		"/>
		<path class="st26" d="M135.8,63.2c-3.4,7,1.1,33.9,4.5,37.9l15.5-1c-2.7-15.4-3.8-26.5-5.1-37.9L135.8,63.2z"/>
		<polygon class="st26" points="155.7,99.9 166.3,148.7 159.5,148.7 163.2,145.5 145.8,99.8 152.5,96.1 		"/>
		<polygon class="st26" points="148.4,100.5 135.1,116.9 135.6,143.4 128.7,143.4 133.1,140.1 129.6,116.5 139.5,98.7 144.3,96.1 		
			"/>
		<polygon class="st7" points="136.9,64 141.6,63.7 139.6,67 143.3,87.9 140.3,92.1 137.6,89.1 137.9,67.4 		"/>
		<g>
			<path class="st26" d="M150.6,62.1c6,1.9,12,15.4,10.1,32h-2.6c0.5-7.6-0.3-21-9.9-25.5L150.6,62.1z"/>
			<path class="st7" d="M163.9,98.6h-1.1v-1.8c0-0.1-0.2-0.4-0.4-0.4h-4.7c-0.2,0-0.4,0.3-0.4,0.4v1.8h-1.1v-1.8
				c0-0.8,0.8-1.5,1.5-1.5h4.7c0.8,0,1.5,0.7,1.5,1.5V98.6z"/>
			<rect x="148" y="98.4" class="st7" width="23.6" height="19.1"/>
			<path class="st5" d="M158.7,93.9c-0.6,0.3-2.1,0.7-1.8,1.5s0.7,0.4,1.7,0c0,0.9-0.7,2.5,0.8,2.5c1.5,0,2,0,2,0c1-0.5,0.5-3-0.6-4
				H158.7z"/>
		</g>
		<path class="st27" d="M141.6,50.6c-0.1,0-0.2,0-0.3,0c-0.8-0.2-1.5-1-1.4-2.2l0.4,0.1c-0.1,0.9,0.4,1.6,1.1,1.8
			c0.6,0.1,1.3-0.2,1.6-1.4l0.4,0.1C143,50.1,142.2,50.6,141.6,50.6z"/>
		<path class="st27" d="M138.7,59c0,0-0.1,0-0.1,0l0-0.4c1.7,0.1,4-0.9,4.9-2.7l0.3,0.2C142.8,58,140.5,59,138.7,59z"/>
		<g>
			<path class="st26" d="M147.1,48.5c0.8,0,1.4,0.7,1.4,1.5c0,0.4-0.2,0.8-0.5,1l1.6,3.1l-0.9-11.9l-12-0.3l2.5,4.1l6.2-0.3l1.3,2.8
				C146.9,48.5,147,48.5,147.1,48.5z"/>
		</g>
		<path class="st5" d="M126.4,47.5c-0.1,0.5,0.1,0.9,0.6,0.9c0.5,0,2.4,0.2,2.6-0.1c0.2-0.3,0.5-1.3-0.2-1.3
			C128.6,46.9,126.5,46.3,126.4,47.5z"/>
		<path class="st5" d="M128,50.8c0.7-0.4,1.1-1.1,1.2-1.6c0.1-0.4,1.1-0.7,1.1,0.2c-0.1,0.8-1,2.1-1.6,2.8
			C128.4,52,128.1,51.5,128,50.8z"/>
	</g>
</g>
</svg>
