<?xml version="1.0" encoding="utf-8"?>
<!-- Generator: Adobe Illustrator 21.1.0, SVG Export Plug-In . SVG Version: 6.00 Build 0)  -->
<!DOCTYPE svg PUBLIC "-//W3C//DTD SVG 1.1//EN" "http://www.w3.org/Graphics/SVG/1.1/DTD/svg11.dtd">
<svg version="1.1" id="Layer_1" xmlns="http://www.w3.org/2000/svg" xmlns:xlink="http://www.w3.org/1999/xlink" x="0px" y="0px"
	 viewBox="0 0 286 286" style="enable-background:new 0 0 286 286;" xml:space="preserve">
<style type="text/css">
	.st0{clip-path:url(#SVGID_2_);fill:#4298B5;}
	.st1{clip-path:url(#SVGID_2_);}
	.st2{fill:#DB5C1E;}
	.st3{fill:#002B44;}
	.st4{fill:#003F5C;}
	.st5{fill:#EB6479;}
	.st6{fill:#223129;}
	.st7{fill:#FFFFFF;}
	.st8{fill:#D55A6E;}
	.st9{fill:#D8E2E7;}
	.st10{fill:#939598;}
	.st11{fill:#727D84;}
	.st12{fill:#4298B5;}
	.st13{fill:#E4D5B4;}
	.st14{fill:#CEBFA3;}
	.st15{fill:#EDE0C6;}
	.st16{fill:#3D302D;}
	.st17{fill:#D6C6A6;}
	.st18{fill:#C6B597;}
	.st19{fill:#826754;}
	.st20{fill:#91CEC4;}
	.st21{fill:#D3A98C;}
	.st22{fill:#AD886F;}
	.st23{fill:#896D59;}
	.st24{fill:#EA7442;}
	.st25{fill:#D15F36;}
	.st26{fill:#003E5A;}
	.st27{fill:#243129;}
	.st28{fill:#4077A2;}
	.st29{fill:#0F3644;}
	.st30{fill:#6C707A;}
	.st31{fill:url(#SVGID_3_);}
	.st32{fill:#8AACBD;}
	.st33{fill:#E6EBEE;}
	.st34{fill:#C3D4DD;}
	.st35{fill:#F37029;}
	.st36{fill:#004B6B;}
	.st37{fill:#282829;}
	.st38{fill:#BACAD3;}
	.st39{fill:#9EB3BE;}
	.st40{fill:#27688F;}
	.st41{fill:#005376;}
	.st42{fill:#2B75A2;}
	.st43{fill:#AFC6D2;}
	.st44{fill:url(#SVGID_4_);}
	.st45{fill:#E9E8D8;}
	.st46{fill:#818277;}
	.st47{fill:#63665D;}
	.st48{fill:#B4B39A;}
	.st49{fill:url(#SVGID_5_);}
	.st50{fill:url(#SVGID_6_);}
	.st51{fill:url(#SVGID_7_);}
	.st52{fill:url(#SVGID_8_);}
	.st53{fill:url(#SVGID_9_);}
	.st54{fill:url(#SVGID_10_);}
	.st55{fill:#FFC20E;}
	.st56{fill:#916600;}
	.st57{fill:#A7BDC9;}
	.st58{fill:#8E2833;}
	.st59{fill:#721B25;}
	.st60{fill:#00547A;}
	.st61{fill:#F1F2F2;}
	.st62{fill:#6F6598;}
	.st63{fill:#4B436A;}
	.st64{fill:#F27129;}
	.st65{fill:#A57406;}
	.st66{fill:url(#SVGID_11_);}
	.st67{fill:url(#SVGID_12_);}
	.st68{fill:url(#SVGID_13_);}
	.st69{fill:url(#SVGID_14_);}
	.st70{fill:url(#SVGID_15_);}
	.st71{fill:url(#SVGID_16_);}
	.st72{fill:url(#SVGID_17_);}
	.st73{fill:url(#SVGID_18_);}
	.st74{fill:url(#SVGID_19_);}
	.st75{fill:url(#SVGID_20_);}
	.st76{fill:url(#SVGID_21_);}
	.st77{fill:url(#SVGID_22_);}
	.st78{fill:url(#SVGID_23_);}
	.st79{fill:url(#SVGID_24_);}
	.st80{fill:url(#SVGID_25_);}
	.st81{fill:url(#SVGID_26_);}
	.st82{fill:url(#SVGID_27_);}
	.st83{fill:url(#SVGID_28_);}
	.st84{fill:url(#SVGID_29_);}
	.st85{fill:url(#SVGID_30_);}
	.st86{fill:url(#SVGID_31_);}
	.st87{fill:url(#SVGID_32_);}
	.st88{fill:url(#SVGID_33_);}
	.st89{fill:url(#SVGID_34_);}
	.st90{fill:url(#SVGID_35_);}
	.st91{fill:url(#SVGID_36_);}
	.st92{fill:url(#SVGID_37_);}
	.st93{fill:url(#SVGID_38_);}
	.st94{fill:url(#SVGID_39_);}
	.st95{fill:url(#SVGID_40_);}
	.st96{fill:url(#SVGID_41_);}
	.st97{fill:url(#SVGID_42_);}
	.st98{fill:url(#SVGID_43_);}
	.st99{fill:url(#SVGID_44_);}
	.st100{fill:url(#SVGID_45_);}
	.st101{fill:url(#SVGID_46_);}
	.st102{fill:#F9F1D7;}
	.st103{fill:#6E7980;stroke:#58595B;stroke-width:0.4225;stroke-linecap:round;stroke-linejoin:round;}
	.st104{fill:#DF9CB0;}
	.st105{fill:#C37A8C;}
	.st106{fill:#C29F60;}
	.st107{fill:#FFFFFF;stroke:#D0ECF4;stroke-width:0.4225;}
	.st108{fill:url(#SVGID_47_);}
	.st109{fill:url(#SVGID_48_);}
	.st110{fill:url(#SVGID_49_);stroke:#FFFFFF;stroke-width:2.1123;}
	.st111{fill:#9F2214;}
	.st112{fill:url(#SVGID_50_);stroke:#FFFFFF;stroke-width:2.1123;}
	.st113{fill:#4A7195;}
	.st114{fill:#C13D2E;}
	.st115{fill:#7989A3;stroke:#FFFFFF;stroke-width:2.1123;}
	.st116{fill:#FFCF01;}
	.st117{fill:url(#SVGID_51_);stroke:#FFFFFF;stroke-width:2.1123;}
	.st118{fill:url(#SVGID_52_);stroke:#FFFFFF;stroke-width:2.1123;}
	.st119{fill:url(#SVGID_53_);stroke:#FFFFFF;stroke-width:2.1123;}
	.st120{fill:#876041;}
	.st121{fill:#DAC895;stroke:#F7E8BA;stroke-width:0.4225;}
	.st122{fill:#4B545B;}
	.st123{fill:#3E6D93;}
	.st124{fill:#476F93;}
	.st125{fill:#CAB47E;}
	.st126{fill:#F7E8BA;}
	.st127{fill:#C2A171;}
	.st128{fill:#D0ECF4;}
	.st129{fill:#EFE4AC;}
	.st130{fill:#5980A2;}
	.st131{fill:#17738F;}
	.st132{fill:#B1D45E;}
	.st133{fill:#8CC540;stroke:#221F1F;stroke-width:0.2168;stroke-linejoin:round;stroke-miterlimit:10;}
	.st134{fill:#58595B;}
	.st135{fill:#797A7D;}
	.st136{fill:#BF86A8;}
	.st137{fill:#302B2C;}
	.st138{fill:#48484A;}
	.st139{fill:#72A087;}
	.st140{fill:#94B0BE;}
	.st141{fill:#09723B;}
	.st142{fill:#00A14B;}
	.st143{fill:#004766;}
	.st144{fill:#00354F;}
	.st145{fill:#005B80;}
	.st146{fill:#002F3E;}
	.st147{fill:#3F4450;}
	.st148{fill:#2A6A7F;}
	.st149{fill:url(#SVGID_54_);}
	.st150{fill:#2C3038;}
	.st151{fill:#CACFD1;}
	.st152{fill:#343943;}
	.st153{fill:#27667A;}
	.st154{fill:none;stroke:#243129;stroke-width:0.3823;stroke-miterlimit:10;}
	.st155{fill:#333333;}
	.st156{fill:#E5E8DD;}
	.st157{fill:#767877;}
	.st158{fill:#545554;}
	.st159{fill:#F8E1C7;}
	.st160{fill:#5A5048;}
	.st161{fill:#604373;}
	.st162{fill:none;}
	.st163{fill:#9DB9C8;}
	.st164{fill:#235F83;}
	.st165{fill:#CF473A;}
	.st166{fill:#B4A680;}
	.st167{fill:url(#SVGID_55_);}
	.st168{fill:url(#SVGID_56_);}
	.st169{fill:url(#SVGID_57_);}
	.st170{fill:url(#SVGID_58_);}
	.st171{fill:url(#SVGID_59_);}
	.st172{fill:url(#SVGID_60_);}
	.st173{fill:url(#SVGID_61_);}
	.st174{fill:url(#SVGID_62_);}
	.st175{fill:url(#SVGID_63_);}
	.st176{fill:url(#SVGID_64_);}
	.st177{fill:url(#SVGID_65_);}
	.st178{fill:url(#SVGID_66_);}
	.st179{fill:url(#SVGID_67_);}
	.st180{fill:url(#SVGID_68_);}
	.st181{fill:url(#SVGID_69_);}
	.st182{fill:url(#SVGID_70_);}
	.st183{fill:url(#SVGID_71_);}
	.st184{fill:url(#SVGID_72_);}
	.st185{fill:url(#SVGID_73_);}
	.st186{fill:url(#SVGID_74_);}
	.st187{fill:url(#SVGID_75_);}
	.st188{fill:url(#SVGID_76_);}
	.st189{fill:url(#SVGID_77_);}
	.st190{fill:url(#SVGID_78_);}
	.st191{fill:url(#SVGID_79_);}
	.st192{fill:url(#SVGID_80_);}
	.st193{fill:url(#SVGID_81_);}
	.st194{fill:url(#SVGID_82_);}
	.st195{fill:url(#SVGID_83_);}
	.st196{fill:url(#SVGID_84_);}
	.st197{fill:url(#SVGID_85_);}
	.st198{fill:url(#SVGID_86_);}
	.st199{fill:url(#SVGID_87_);}
	.st200{fill:url(#SVGID_88_);}
	.st201{fill:url(#SVGID_89_);}
	.st202{fill:url(#SVGID_90_);}
	.st203{fill:url(#SVGID_91_);}
	.st204{fill:url(#SVGID_92_);}
	.st205{fill:url(#SVGID_93_);}
	.st206{fill:url(#SVGID_94_);}
	.st207{fill:url(#SVGID_95_);}
	.st208{fill:url(#SVGID_96_);}
	.st209{fill:url(#SVGID_97_);}
	.st210{fill:url(#SVGID_98_);}
	.st211{fill:url(#SVGID_99_);}
	.st212{fill:url(#SVGID_100_);}
	.st213{fill:url(#SVGID_101_);}
	.st214{fill:url(#SVGID_102_);}
	.st215{fill:url(#SVGID_103_);}
	.st216{fill:url(#SVGID_104_);}
	.st217{fill:url(#SVGID_105_);}
	.st218{fill:url(#SVGID_106_);}
	.st219{fill:url(#SVGID_107_);}
	.st220{fill:url(#SVGID_108_);}
	.st221{fill:url(#SVGID_109_);}
	.st222{fill:url(#SVGID_110_);}
	.st223{fill:url(#SVGID_111_);}
	.st224{fill:url(#SVGID_112_);}
	.st225{fill:url(#SVGID_113_);}
	.st226{fill:url(#SVGID_114_);}
	.st227{fill:url(#SVGID_115_);}
	.st228{fill:url(#SVGID_116_);}
	.st229{fill:url(#SVGID_117_);}
	.st230{fill:url(#SVGID_118_);}
	.st231{fill:url(#SVGID_119_);}
	.st232{fill:url(#SVGID_120_);}
	.st233{fill:url(#SVGID_121_);}
	.st234{fill:url(#SVGID_122_);}
	.st235{fill:#F7D9A8;}
	.st236{fill:#EE93B9;}
</style>
<circle class="st12" cx="143" cy="143" r="143"/>
<g>
	<path class="st7" d="M82.4,198.6c0,1.6-0.5,2.8-1.4,3.7c-0.9,0.9-2.3,1.3-4,1.3h-1.1v4.7h-3.9v-14.3H77c1.8,0,3.2,0.4,4.1,1.2
		C82,196,82.4,197.1,82.4,198.6z M75.9,200.5h0.7c0.6,0,1-0.2,1.4-0.5s0.5-0.8,0.5-1.3c0-1-0.5-1.4-1.6-1.4h-1V200.5z"/>
	<path class="st7" d="M91.5,208.3v-6c0-1.5-0.4-2.2-1.3-2.2c-0.6,0-1.1,0.3-1.4,0.8c-0.3,0.5-0.4,1.4-0.4,2.6v4.9h-3.8v-15.2h3.8
		v2.2c0,1-0.1,2.1-0.2,3.3h0.2c0.4-0.6,0.8-1,1.3-1.2c0.5-0.2,1.1-0.4,1.7-0.4c1.2,0,2.2,0.4,2.9,1.1c0.7,0.7,1,1.7,1,3v7.2H91.5z"
		/>
	<path class="st7" d="M97.8,194.5c0-0.6,0.2-1,0.5-1.3c0.3-0.3,0.8-0.4,1.5-0.4c0.7,0,1.2,0.1,1.6,0.4c0.3,0.3,0.5,0.7,0.5,1.3
		c0,1.1-0.7,1.7-2,1.7C98.5,196.2,97.8,195.6,97.8,194.5z M101.7,208.3h-3.8v-11.1h3.8V208.3z"/>
	<path class="st7" d="M108.2,208.3h-3.8v-15.2h3.8V208.3z"/>
	<path class="st7" d="M118.1,208.3l-0.7-1.5h-0.1c-0.5,0.6-1,1.1-1.6,1.3c-0.5,0.2-1.2,0.4-2.1,0.4c-1,0-1.9-0.3-2.5-0.9
		c-0.6-0.6-0.9-1.5-0.9-2.6c0-1.2,0.4-2.1,1.2-2.6s2-0.9,3.6-1l1.8-0.1v-0.2c0-0.9-0.4-1.4-1.3-1.4c-0.8,0-1.8,0.3-3.1,0.8l-1.1-2.5
		c1.3-0.7,2.9-1,4.9-1c1.4,0,2.5,0.4,3.3,1.1c0.8,0.7,1.2,1.7,1.2,2.9v7.3H118.1z M115.2,205.8c0.5,0,0.9-0.1,1.2-0.4
		c0.3-0.3,0.5-0.7,0.5-1.1v-0.9l-0.9,0c-1.3,0-1.9,0.5-1.9,1.4C114.2,205.5,114.5,205.8,115.2,205.8z"/>
	<path class="st7" d="M130.3,208.3v-6c0-0.7-0.1-1.3-0.3-1.7c-0.2-0.4-0.6-0.6-1-0.6c-0.6,0-1.1,0.3-1.4,0.8
		c-0.3,0.5-0.4,1.4-0.4,2.6v4.8h-3.8v-11.1h2.9l0.5,1.4h0.2c0.3-0.5,0.8-0.9,1.4-1.2s1.2-0.4,2-0.4c1.2,0,2.2,0.4,2.9,1.1
		c0.7,0.7,1,1.7,1,3v7.2H130.3z"/>
	<path class="st7" d="M142.1,205.5c0.5,0,1.1-0.1,1.8-0.4v2.8c-0.5,0.2-1,0.4-1.5,0.5c-0.5,0.1-1,0.1-1.6,0.1
		c-1.3,0-2.2-0.3-2.8-0.9s-0.8-1.6-0.8-2.9v-4.6h-1.3v-1.6l1.7-1.2l1-2.3h2.5v2.2h2.7v2.9h-2.7v4.3
		C141.1,205.2,141.4,205.5,142.1,205.5z"/>
	<path class="st7" d="M152.9,208.3v-6c0-1.5-0.4-2.2-1.3-2.2c-0.6,0-1.1,0.3-1.4,0.8c-0.3,0.5-0.4,1.4-0.4,2.6v4.9h-3.8v-15.2h3.8
		v2.2c0,1-0.1,2.1-0.2,3.3h0.2c0.4-0.6,0.8-1,1.3-1.2c0.5-0.2,1.1-0.4,1.7-0.4c1.2,0,2.2,0.4,2.9,1.1c0.7,0.7,1,1.7,1,3v7.2H152.9z"
		/>
	<path class="st7" d="M166,197.1c0.3,0,0.6,0,0.9,0.1l0.2,0l-0.3,3.6c-0.3-0.1-0.7-0.1-1.3-0.1c-0.8,0-1.4,0.2-1.8,0.6
		c-0.4,0.4-0.6,0.9-0.6,1.6v5.4h-3.8v-11.1h2.8l0.6,1.8h0.2c0.3-0.6,0.8-1.1,1.3-1.4C164.8,197.3,165.4,197.1,166,197.1z"/>
	<path class="st7" d="M179.3,202.8c0,1.8-0.5,3.2-1.5,4.2c-1,1-2.3,1.5-4.1,1.5c-1.7,0-3-0.5-4-1.6c-1-1-1.5-2.4-1.5-4.2
		c0-1.8,0.5-3.2,1.5-4.2c1-1,2.3-1.5,4.1-1.5c1.1,0,2,0.2,2.9,0.7c0.8,0.5,1.5,1.1,1.9,2C179,200.6,179.3,201.6,179.3,202.8z
		 M172.1,202.8c0,1,0.1,1.7,0.4,2.2s0.7,0.7,1.3,0.7c0.6,0,1-0.2,1.3-0.7s0.4-1.2,0.4-2.2c0-0.9-0.1-1.7-0.4-2.1
		c-0.2-0.5-0.7-0.7-1.3-0.7c-0.6,0-1,0.2-1.3,0.7S172.1,201.8,172.1,202.8z"/>
	<path class="st7" d="M188.1,208.5c-0.6,0-1.1-0.1-1.5-0.3c-0.4-0.2-0.9-0.5-1.3-1h-0.2c0.1,0.8,0.2,1.3,0.2,1.4v4.4h-3.8v-15.9h3.1
		l0.5,1.4h0.2c0.7-1.1,1.7-1.6,2.9-1.6c1.2,0,2.2,0.5,2.9,1.5c0.7,1,1,2.4,1,4.2c0,1.8-0.4,3.2-1.1,4.2
		C190.3,208,189.3,208.5,188.1,208.5z M186.8,200.1c-0.6,0-1,0.2-1.2,0.6s-0.3,1-0.4,1.8v0.3c0,1,0.1,1.6,0.4,2.1s0.7,0.6,1.2,0.6
		c0.5,0,0.8-0.2,1.1-0.6c0.2-0.4,0.3-1.1,0.3-2.1c0-1-0.1-1.6-0.3-2C187.7,200.3,187.3,200.1,186.8,200.1z"/>
	<path class="st7" d="M194.2,194.5c0-0.6,0.2-1,0.5-1.3c0.3-0.3,0.8-0.4,1.5-0.4c0.7,0,1.2,0.1,1.6,0.4c0.3,0.3,0.5,0.7,0.5,1.3
		c0,1.1-0.7,1.7-2,1.7C194.9,196.2,194.2,195.6,194.2,194.5z M198.1,208.3h-3.8v-11.1h3.8V208.3z"/>
	<path class="st7" d="M205.8,208.5c-1.8,0-3.2-0.5-4.1-1.5c-0.9-1-1.4-2.4-1.4-4.2c0-1.8,0.5-3.3,1.5-4.3c1-1,2.4-1.5,4.3-1.5
		c1.3,0,2.5,0.3,3.6,0.8l-1.1,2.8c-0.5-0.2-0.9-0.4-1.3-0.5s-0.8-0.2-1.2-0.2c-0.6,0-1.1,0.2-1.4,0.7c-0.3,0.5-0.5,1.2-0.5,2
		c0,1.8,0.7,2.7,2,2.7c1.1,0,2.2-0.3,3.2-1v3C208.4,208.2,207.2,208.5,205.8,208.5z"/>
	<path class="st7" d="M87.3,224h6.2v7.7c-1.7,0.6-3.5,0.9-5.5,0.9c-2.2,0-3.9-0.6-5.1-1.9s-1.8-3.1-1.8-5.5c0-2.3,0.7-4.1,2-5.4
		c1.3-1.3,3.2-1.9,5.5-1.9c0.9,0,1.7,0.1,2.5,0.3c0.8,0.2,1.5,0.4,2.1,0.6l-1.2,3c-1-0.5-2.2-0.8-3.4-0.8c-1.1,0-2,0.4-2.6,1.1
		s-0.9,1.8-0.9,3.1c0,1.3,0.3,2.4,0.8,3.1s1.4,1,2.4,1c0.6,0,1.1-0.1,1.6-0.2V227h-2.5V224z"/>
	<path class="st7" d="M106.7,226.8c0,1.8-0.5,3.2-1.5,4.2c-1,1-2.3,1.5-4.1,1.5c-1.7,0-3-0.5-4-1.6c-1-1-1.5-2.4-1.5-4.2
		c0-1.8,0.5-3.2,1.5-4.2c1-1,2.3-1.5,4.1-1.5c1.1,0,2,0.2,2.9,0.7c0.8,0.5,1.5,1.1,1.9,2C106.5,224.6,106.7,225.6,106.7,226.8z
		 M99.5,226.8c0,1,0.1,1.7,0.4,2.2s0.7,0.7,1.3,0.7c0.6,0,1-0.2,1.3-0.7s0.4-1.2,0.4-2.2c0-0.9-0.1-1.7-0.4-2.1
		c-0.2-0.5-0.7-0.7-1.3-0.7c-0.6,0-1,0.2-1.3,0.7S99.5,225.8,99.5,226.8z"/>
	<path class="st7" d="M116.1,232.3l-0.7-1.5h-0.1c-0.5,0.6-1,1.1-1.6,1.3c-0.5,0.2-1.2,0.4-2.1,0.4c-1,0-1.9-0.3-2.5-0.9
		c-0.6-0.6-0.9-1.5-0.9-2.6c0-1.2,0.4-2.1,1.2-2.6s2-0.9,3.6-1l1.8-0.1v-0.2c0-0.9-0.4-1.4-1.3-1.4c-0.8,0-1.8,0.3-3.1,0.8l-1.1-2.5
		c1.3-0.7,2.9-1,4.9-1c1.4,0,2.5,0.4,3.3,1.1c0.8,0.7,1.2,1.7,1.2,2.9v7.3H116.1z M113.3,229.8c0.5,0,0.9-0.1,1.2-0.4
		c0.3-0.3,0.5-0.7,0.5-1.1v-0.9l-0.9,0c-1.3,0-1.9,0.5-1.9,1.4C112.2,229.5,112.5,229.8,113.3,229.8z"/>
	<path class="st7" d="M125.1,232.3h-3.8v-15.2h3.8V232.3z"/>
	<path class="st7" d="M142.6,228c0,0.9-0.2,1.7-0.7,2.4s-1.1,1.2-1.9,1.6c-0.8,0.4-1.8,0.6-3,0.6c-1,0-1.7-0.1-2.4-0.2
		s-1.3-0.4-2-0.7v-3.4c0.7,0.4,1.5,0.7,2.3,0.9c0.8,0.2,1.5,0.3,2.2,0.3c0.6,0,1-0.1,1.3-0.3c0.3-0.2,0.4-0.5,0.4-0.8
		c0-0.2-0.1-0.4-0.2-0.5s-0.3-0.3-0.5-0.4c-0.2-0.1-0.9-0.5-1.9-0.9c-0.9-0.4-1.6-0.8-2.1-1.2c-0.5-0.4-0.8-0.9-1-1.4
		s-0.3-1.1-0.3-1.8c0-1.3,0.5-2.3,1.4-3.1s2.3-1.1,3.9-1.1c1.5,0,3,0.3,4.5,1l-1.2,3c-1.3-0.6-2.5-0.9-3.5-0.9
		c-0.5,0-0.9,0.1-1.1,0.3c-0.2,0.2-0.3,0.4-0.3,0.7c0,0.3,0.1,0.5,0.4,0.8c0.3,0.2,1.1,0.6,2.4,1.2c1.2,0.6,2.1,1.1,2.6,1.8
		S142.6,227,142.6,228z"/>
	<path class="st7" d="M149.9,232.5c-1.8,0-3.3-0.5-4.3-1.5c-1-1-1.5-2.4-1.5-4.2c0-1.9,0.5-3.3,1.4-4.3c0.9-1,2.3-1.5,4-1.5
		c1.7,0,3,0.4,3.9,1.3s1.4,2.1,1.4,3.8v1.7h-6.8c0,0.6,0.3,1.1,0.7,1.5c0.4,0.4,1,0.5,1.7,0.5c0.7,0,1.3-0.1,1.9-0.2
		c0.6-0.1,1.2-0.3,1.8-0.6v2.7c-0.6,0.3-1.2,0.5-1.9,0.6C151.5,232.5,150.8,232.5,149.9,232.5z M149.7,223.7c-0.4,0-0.8,0.1-1.1,0.4
		s-0.5,0.7-0.5,1.3h3.3c0-0.5-0.2-1-0.5-1.3C150.5,223.8,150.1,223.7,149.7,223.7z"/>
	<path class="st7" d="M162.3,229.5c0.5,0,1.1-0.1,1.8-0.4v2.8c-0.5,0.2-1,0.4-1.5,0.5c-0.5,0.1-1,0.1-1.6,0.1
		c-1.3,0-2.2-0.3-2.8-0.9s-0.8-1.6-0.8-2.9v-4.6h-1.3v-1.6l1.7-1.2l1-2.3h2.5v2.2h2.7v2.9h-2.7v4.3
		C161.3,229.2,161.6,229.5,162.3,229.5z"/>
	<path class="st7" d="M171.5,229.5c0.5,0,1.1-0.1,1.8-0.4v2.8c-0.5,0.2-1,0.4-1.5,0.5c-0.5,0.1-1,0.1-1.6,0.1
		c-1.3,0-2.2-0.3-2.8-0.9s-0.8-1.6-0.8-2.9v-4.6h-1.3v-1.6l1.7-1.2l1-2.3h2.5v2.2h2.7v2.9h-2.7v4.3
		C170.5,229.2,170.8,229.5,171.5,229.5z"/>
	<path class="st7" d="M175.2,218.5c0-0.6,0.2-1,0.5-1.3c0.3-0.3,0.8-0.4,1.5-0.4c0.7,0,1.2,0.1,1.6,0.4c0.3,0.3,0.5,0.7,0.5,1.3
		c0,1.1-0.7,1.7-2,1.7C175.9,220.2,175.2,219.6,175.2,218.5z M179.1,232.3h-3.8v-11.1h3.8V232.3z"/>
	<path class="st7" d="M188.8,232.3v-6c0-0.7-0.1-1.3-0.3-1.7c-0.2-0.4-0.6-0.6-1-0.6c-0.6,0-1.1,0.3-1.4,0.8
		c-0.3,0.5-0.4,1.4-0.4,2.6v4.8h-3.8v-11.1h2.9l0.5,1.4h0.2c0.3-0.5,0.8-0.9,1.4-1.2s1.2-0.4,2-0.4c1.2,0,2.2,0.4,2.9,1.1
		c0.7,0.7,1,1.7,1,3v7.2H188.8z"/>
	<path class="st7" d="M205.6,221.3v1.8l-1.5,0.6c0.2,0.4,0.3,0.8,0.3,1.3c0,1.2-0.4,2.1-1.3,2.8c-0.8,0.7-2.1,1-3.7,1
		c-0.4,0-0.7,0-1-0.1c-0.1,0.2-0.1,0.3-0.1,0.5c0,0.2,0.2,0.3,0.5,0.4c0.3,0.1,0.7,0.2,1.2,0.2h1.8c2.5,0,3.7,1,3.7,3.1
		c0,1.3-0.6,2.4-1.7,3.1c-1.1,0.7-2.8,1.1-4.8,1.1c-1.6,0-2.8-0.3-3.6-0.8s-1.3-1.3-1.3-2.3c0-1.3,0.8-2.2,2.5-2.6
		c-0.3-0.1-0.6-0.4-0.9-0.7c-0.3-0.3-0.4-0.6-0.4-0.9c0-0.3,0.1-0.6,0.3-0.9c0.2-0.3,0.6-0.6,1.2-0.9c-0.6-0.3-1-0.7-1.4-1.2
		c-0.3-0.5-0.5-1.2-0.5-2c0-1.2,0.4-2.1,1.2-2.8s2-1,3.5-1c0.2,0,0.5,0,1,0.1c0.5,0,0.9,0.1,1.1,0.1H205.6z M197.3,233.7
		c0,0.3,0.2,0.6,0.5,0.8c0.3,0.2,0.8,0.3,1.4,0.3c0.9,0,1.7-0.1,2.2-0.3s0.8-0.5,0.8-0.9c0-0.3-0.2-0.5-0.5-0.6
		c-0.3-0.1-0.8-0.2-1.5-0.2h-1.5c-0.4,0-0.8,0.1-1,0.3S197.3,233.4,197.3,233.7z M198.5,224.9c0,1.1,0.4,1.7,1.2,1.7
		c0.4,0,0.6-0.1,0.8-0.4c0.2-0.3,0.3-0.7,0.3-1.3c0-1.1-0.4-1.7-1.1-1.7C198.9,223.2,198.5,223.8,198.5,224.9z"/>
</g>
<g>
	<path class="st5" d="M90.8,129.9c0.4-0.3,1.8-1.5,2.3-1.1c0.5,0.4-0.3,0.7-0.9,1.4c0.7,0.3,2.2,0.3,2,1.4c-0.2,1.1-0.7,1.3-0.7,1.3
		c-0.7,0.5-2.5-0.3-3-1.4L90.8,129.9z"/>
	<path class="st26" d="M77.1,117.5c0,8.5,7.9,11.8,13.7,12.4l-0.3,1.7c-9.8-0.3-17.4-8.1-17.5-13.5C72.8,114.2,77,113.7,77.1,117.5z
		"/>
	<polygon class="st5" points="73.2,104.5 78.6,107.4 75.4,108.1 78.1,115.4 67.3,117.8 66.4,103.4 72.1,102.1 	"/>
	<path class="st27" d="M72.3,108.1c0.1,0,0.1,0,0.2-0.1c0.6-0.2,1-1,0.7-1.8l-0.3,0.1c0.2,0.7-0.1,1.2-0.5,1.4
		c-0.4,0.2-0.9,0-1.3-0.8l-0.2,0.1C71.2,108,71.8,108.2,72.3,108.1z"/>
	<path class="st27" d="M75.6,113.8l-0.1-0.3c-1.2,0.3-3,0-4-1.2l-0.2,0.2C72.4,113.7,74.3,114.1,75.6,113.8z"/>
	<g>
		<path class="st26" d="M67.9,107.4c-0.6,0.1-0.9,0.7-0.8,1.3c0.1,0.3,0.3,0.5,0.5,0.7l-0.6,2.4l-1.1-8.7l8.6-1.9l-1.2,3.3l-4.5,0.7
			l-0.6,2.2C68.1,107.4,68,107.4,67.9,107.4z"/>
	</g>
	<path class="st26" d="M78.1,115.3c3.7,6.1,2.4,24.9,0.3,28.1L68.1,144c-0.9-11-0.9-23.9-0.8-28.1L78.1,115.3z"/>
	<polygon class="st26" points="68.1,143.1 65.7,173.4 70.7,173.4 67.9,170.7 73.6,143 70.5,139.9 	"/>
	<polygon class="st26" points="73,143.1 73.8,173.4 78.9,173.4 76,170.7 78.5,143 75.4,139.9 	"/>
	<g>
		<path class="st3" d="M73.5,122c1.7-3.3-2.3-5-3.9-1.5c-1.6,3.1,0.6,15,8.7,18.4c0.6-0.5-5.4-5.9-4.9-6.4
			C71.8,129.5,71.4,125.9,73.5,122z"/>
	</g>
	<polygon class="st7" points="77.6,115.9 74.2,116.3 76.2,118.6 75.8,134 77.9,136.5 79.6,134 77.4,118.5 	"/>
	<path class="st5" d="M80.7,138.5c0.5-0.1,2.3-0.5,2.5,0.2c0.3,0.6-0.6,0.5-1.4,0.8c0.4,0.6,1.8,1.3,1.1,2.2
		c-0.7,0.9-1.2,0.9-1.2,0.9c-0.9,0.1-2-1.5-2-2.7L80.7,138.5z"/>
	<path class="st26" d="M74.5,121.1c-4.1,7.5,1.4,14.1,6.2,17.4l-1.1,1.3c-8.5-4.9-11.4-15.4-9-20.2
		C72.3,116.1,76.2,117.8,74.5,121.1z"/>
	<g>
		<g>
			<path class="st5" d="M192.5,132.6c-0.5-0.3-2.4-1.1-2.5-0.5c-0.1,0.3,1.3,0.6,1.2,0.7c-0.7,0.3-2.5-0.6-2.6,0.5
				c-0.1,0.7,0.5,1.5,0.5,1.5c0.8,0.9,2.4,0,3.5-0.9L192.5,132.6z"/>
			<path class="st26" d="M208.3,121.6c-5.6,9.1-12.7,10-15.8,11.1l0.1,1.4c1.1,0,10.1,0.5,17.7-11.7
				C211.1,120.9,209.1,120.2,208.3,121.6z"/>
		</g>
		<g>
			<g>
				<path class="st5" d="M215.7,114.2c-2,1-3.5,1.9-4.6,4.9L211,120l-2.3-0.4c0.5-1.3,1.7-2.2-0.5-5c-1.2-1.5-2.1-3.2-2.1-4.9
					l-1.6-0.5c1.2-0.1,1.7-1.3,2.3-2.4c1-2.1,4.3-4.3,8.9-2.5C219.9,105.8,220.8,111.7,215.7,114.2z"/>
				<path class="st27" d="M210.3,110.2c-0.4,0-0.8-0.2-1-0.6c-0.3-0.4-0.4-0.9-0.2-1.4l0.2,0.1c-0.2,0.4-0.1,0.8,0.1,1.1
					c0.2,0.3,0.6,0.5,0.9,0.4c0.4,0,0.7-0.4,1-0.9l0.2,0.1c-0.3,0.6-0.7,1-1.2,1C210.4,110.2,210.3,110.2,210.3,110.2z"/>
				<path class="st27" d="M209.6,114.3c-0.4,0-0.8-0.2-1.1-0.7l0.2-0.1c0.2,0.3,0.6,0.6,0.9,0.5c0.3,0,0.5-0.2,0.6-0.4l0.2,0.1
					C210.3,114,210,114.2,209.6,114.3C209.6,114.3,209.6,114.3,209.6,114.3z"/>
				<g>
					<path class="st26" d="M216.7,117c5.7-3,9.3-14.1-1.9-16c-5.5-0.9-6.6,3.5-8,2.3c-0.1,3.3,5,5,7.2,4.2c0.3,0.5,0.5,1.2,0.5,1.9
						c0.2,0,0.3,0,0.5,0.1c0.7,0.3,1.1,1.1,0.8,1.8c-0.2,0.6-0.9,1-1.6,0.9c-0.9,4.3-3,9.2,2.1,9.4
						C214.8,121.1,212.9,118.9,216.7,117z"/>
				</g>
			</g>
			<polygon class="st5" points="211.8,145.3 213.6,173.4 211,173.4 212.1,170.9 208.9,145.2 210.7,142.3 			"/>
			<g>
				<polygon class="st27" points="210.7,173.4 213.6,173.4 213.4,170.7 212.1,170.7 212.1,170.9 				"/>
			</g>
			<polygon class="st5" points="208.7,145.3 208,173.4 205.1,173.4 206.7,170.9 205.5,145.2 207.3,142.3 			"/>
			<g>
				<polygon class="st27" points="205.1,173.4 208,173.4 208,170.7 206.7,170.7 206.7,170.9 				"/>
			</g>
			<path class="st26" d="M208.6,119.1c-4,7.1-4.1,21.8-4.4,33.9h9.2c-1.1-14.8-1.9-21.7-1.3-33.7L208.6,119.1z"/>
			<polygon class="st7" points="212.4,119.3 212,118.1 209.4,119 208.8,118.3 208.4,119 208.6,119.8 206.9,128.6 210,120.1 			"/>
			<g>
				<path class="st3" d="M211.9,122.5c0,0.9,0,1.7-0.1,2.5C212,124.3,212,123.4,211.9,122.5z"/>
				<path class="st3" d="M211.9,125c0-0.8,0-1.7,0.1-2.5c0-0.2,0-0.4,0-0.7c-0.2-1.7-2.2-1.1-2.1,0.4c0.3,5.7-2.2,17.7-5.2,17.4
					c-0.1,0.6-0.1,0.4-0.1,0.9C208.9,138.9,212,131.6,211.9,125z"/>
			</g>
		</g>
		<path class="st5" d="M203.1,139.5c-0.6,0-2.6,0.4-2.3,1c0.1,0.3,1.5-0.2,1.4-0.1c-0.4,0.6-2.4,1-1.9,1.9c0.3,0.6,1.3,1,1.3,1
			c1.2,0.3,2-1.4,2.4-2.7L203.1,139.5z"/>
		<path class="st26" d="M209.8,121.4c0.6,10.6-4.7,15.4-6.7,18.1l0.9,1.1c0.9-0.6,8.6-5.4,7.9-19.7
			C211.7,119.2,209.7,119.8,209.8,121.4z"/>
	</g>
	<g>
		<circle class="st131" cx="143.2" cy="102" r="59.2"/>
		<path class="st132" d="M142.1,68.7c-0.2-1.1-1.1,0.4-1.1,0c0-0.4-0.5,0.1-0.5-0.3c0-0.4-0.7-0.2,0.1-0.7c0.8-0.5,0.1-0.4,0.4-1.1
			c0.3-0.7-0.4-1.1-0.3-1.6c0.1-0.5-0.8-0.1-0.8-0.5c0-0.4-0.7,0.2-0.7-0.2c0-0.4-0.6-0.1-0.6-0.2c0-0.1-0.1-0.4-0.4-0.5
			c-0.3-0.2-1-0.5-0.3-0.7c0.7-0.2-0.3-0.4,0-0.8c0.4-0.4-0.8-0.3-0.6-0.9c0.2-0.6-0.4-0.6-0.5-1c-0.1-0.4-0.3,0.5-1,1
			c-0.6,0.5-1.2,0.2-1.4,0c-0.2-0.2-0.2-0.1-0.2-0.3c0-0.2,0-0.2-0.2-0.3c-0.2-0.2,0.2-0.7,0.4-1c0.2-0.3-0.5-0.1-0.7-0.1
			c-0.2,0-0.1-0.4-0.2-0.7c-0.1-0.2-0.6-0.5-0.7-0.4c-0.1,0.1-0.6,0.1-1-0.1c-0.4-0.3-0.5-0.2-1.1,0.1c-0.6,0.3,0.3,0.2,0,0.6
			c-0.4,0.4-0.2,0.2-0.1,0.5c0.1,0.3,0,0.2-0.3,0.7c-0.3,0.5-0.3,0.3-0.7,0.4c-0.4,0.2-0.3,0-0.1,0.5c0.2,0.5,0.4,0.2,0.3,1
			c-0.1,0.8-0.3,0.7-0.9,1.2c-0.6,0.5-1.1,0.5-1.6,0.5c-0.5,0,0,0.3-0.1,1.4c0,1.1-0.5,0.7-0.8,1.1c-0.4,0.5-0.7-0.1-0.8-0.6
			c-0.2-0.4-0.4-0.6-0.3-1c0.1-0.4-0.1-0.4,0.5-1.1c0.6-0.7,0.1-0.2-0.5-0.7c-0.5-0.5-0.7,0-1-0.4c-0.3-0.4-0.7-0.7-0.8-1.2
			c-0.2-0.6-0.5,0-0.7-0.4c-0.3-0.4-0.2,0.2-0.7,0c-0.5-0.2,0.8-1,0.3-1.2c-0.5-0.2-0.4-0.3,0.7-1.4c1.2-1.1,0.5-0.4,1.1-0.9
			c0.6-0.5,0.6-0.2,1.2-0.3c0.6-0.1,0.7-0.6,1.5-0.8c0.8-0.3,0.1,0.1,0.6,0c0.6-0.1,0.6-0.4,1.1-0.8c0.5-0.4,0.4,0.1,0.2,0.4
			c-0.2,0.4-0.4,0.5-0.6,0.8c-0.3,0.3,0.1,0.5,0.5,0.4c0.4-0.1,0.3-0.3,0.5-0.3c0.3,0.1,0.5,0.2,1-0.2c0.5-0.4-0.6-0.7-0.7-1
			c-0.1-0.4,0.1,0,0.6-0.1c0.3-0.1,0.5-0.4,0.6-0.6c0.3-0.1,0.6-0.2,0.8-0.3c0.7-0.4,0.8-1.1,1.2-1.3c0.4-0.2,0.9,0.2,1.4,0.5
			c0.5,0.3,0.5,0.8,0.6,1.3c0.1,0.5-0.2,0.5-1,1c-0.8,0.5-0.1,0.7,0.1,1.2c0.2,0.5,0.4,0.4,1,1.1c0.5,0.7,1,0.3,1.7,0.4
			c0.6,0.1,0.2-0.6,0.7-0.6c0.5,0,0.4-1-0.1-1.2c-0.5-0.2-0.3-0.7,0-1c0.3-0.3,0.4,0.7,1,0.7c0.6,0,0.4-1,0.5-1.5
			c0.1-0.5-1.1-0.4-1.6-0.8c-0.5-0.4,0-0.6,0.6-0.6c0.6,0,0.1-0.6-0.9-0.8c-1-0.2-0.4,0-0.5-0.5c-0.1-0.5-0.2,0.2-0.6-0.1
			c-0.4-0.3-0.1-0.6-0.4-1.2c-0.2-0.6-0.6,0.3-1.2-0.1c-0.3-0.2-0.5-0.1-0.7-0.1c0,0,0-0.1,0-0.1c-0.1,0-0.6,0.2-0.6,0.2
			s-1.4,0.4-1.7,0.7c-0.3,0.2,0.2,1.4,0.2,1.4s-0.5,0.3-0.9,0.6c-0.1-0.3-0.3-0.6-0.5-0.8c-0.6-0.4-0.1-0.4,0.2-0.8
			c0.9-1.2,1-0.8,1.7-1.3c1.2-0.8,0,0-1.1-0.2c-1.1-0.2-0.4,0.7-1.2,0.8c-0.8,0-1.1,0.7-2,0.9c0,0-0.1,0-0.1,0c0,0.1,0-0.9,0-1
			c0.1-0.1,0.3-0.2,0.7-0.3c1.5-0.9,0.4-0.8,0-1c-0.4-0.2-0.4,0.4-0.7,0.1c-0.3-0.3-0.3-0.5,0.2-1.3c0.5-0.8-0.9-0.1-1.6,0.2
			c-0.6,0.3-1.1,0-1.1,0c-1,0.5-0.5,0.7,0.1,0.7c0.5,0,0.3,0.3,0,0.6c-0.3,0.3-0.4,0.6-0.8,0.3c-0.5-0.3-0.2,0.3-0.7,0.7
			c-0.5,0.4-0.6-0.4-0.3-0.8c0.3-0.4-0.5-0.1-0.3-0.5c0.2-0.4,0.6-0.2,1-0.8c0.5-0.6-1-0.4-1.8,0c-0.9,0.4-0.5,0,0.9-1.3
			c0.9-0.8,0.4-1.2-0.1-1.7c-3.9,1.5-7.5,3.3-11,5.5c1.2-0.1,2.2-0.3,1.8,0.3c-0.5,0.9-1.4,2.3-3.9,4.9c-3.6,3.8-4.2,6.5-5.8,8.3
			c-1.7,1.8-4.9,2.4-5.2,6.8c-0.3,4.4-1.2,7.7-1.2,7.7s-0.4,2.6-0.6,4.2c-0.2,1.6,0.6,3.5,1,3.4c0.4-0.1,0.2-0.3-0.1-1.1
			c-0.4-0.8-0.5-2.3,0-4.8c0.2-0.9,0.3-1.5,0.5-2.4c0.3-0.9,0.4-0.9,0.8,0.4c0.4,1.3,0.1,1.2-0.4,3c-0.5,1.7,0.5,3.3,0.7,4.6
			c0.2,1.3,0.8,3.3,0,4.1c-0.8,0.8,0.6,2.7,0.9,3c0.3,0.3,0.9,0.9,0.9,1.4c0,0.6,2.7,1.7,3.9,1.5c1.1-0.2,0.7,0.3,0.9,0.6
			c0.2,0.4,0.9,1.2,1.7,2.6c0.9,1.4,0.6-0.1,1.2,0.6c0.6,0.7,0.8,0.3,1.8,0.5c1.1,0.3-0.1,0.8,0.3,0.9c0.4,0.1,1.1,1.1,1,2
			c-0.1,0.9-0.3,0.9,0.8,1c1,0.1,1.1,0.5,1.3,1.3c0.2,0.8,1.1,1.1,1.8,1.7c0.7,0.6,1.2,0.4,0.9-0.2c-0.3-0.6-0.2-0.8,0.6-1.2
			c0.8-0.4,0.4,1,1.5,1.3c1.1,0.4-0.3-0.8-0.4-1.7c-0.1-0.9-0.7,0-1.5-0.4c-0.8-0.3-0.2,0.9-0.8,0.6c-0.6-0.3-0.8,0.3-0.7-0.5
			c0-0.8-0.6-0.3-1.1-0.9c-0.5-0.6-0.4-0.4-0.6-1.1c-0.2-0.7-0.4-0.8,0.3-1.8c0.7-1.1,0.2-1.7,0.5-2.2c0.3-0.5-0.5-0.4-0.7-0.6
			c-0.2-0.2-0.8-0.6-1.3-0.7c-0.6-0.1-0.6,0.5-1.3,0c-0.7-0.5-1.6-0.1-1.3-0.6c0.4-0.4,0.7-0.9,0.9-1.3c0.2-0.4,0.1-1.3,0.9-1.5
			c0.8-0.2-0.3-0.3-0.2-0.7c0.1-0.4,0.8-1,0.9-1.7c0.1-0.7-1.9-0.1-2.6-0.2c-0.7,0-0.3,1.6-1.2,2.1c-0.9,0.4-0.5,1.5-1.1,0.8
			c-0.6-0.7-1.8-0.5-2.2-1.3c-0.3-0.8-0.9-1.3-1-2.2c-0.2-0.8-0.2-2.7,0.6-3.7c0.8-1,0.6-2.2,1.2-3.1c0.5-0.9,0.9-1,2.4-1.6
			c1.4-0.6,1.2-0.4,1.7-0.3c0.5,0.1,1.1,0.8,1.6,0.4c0.5-0.4,0,0,1.4-0.2c1.4-0.2,1.7,0.3,2.1,0.3c0.4,0,0.5,1,1.1,0.7
			c0.6-0.3,0.5,0,1.3,0.9c0.7,0.9,0.4,1.1-0.1,2c-0.5,0.9,0.3,1.2,0.9,2.2c0.6,1.1,0.4-0.6,0.7-1.4c0.3-0.8,0.1-1.6-0.2-2.8
			c-0.3-1.3-0.1-1.7,0.7-2.7c0.9-1.1,1.3-1.3,2.7-1.4c1.4-0.1,1.9-1.5,2.2-2.3c0.4-0.8-0.3-0.9,0.2-2.1c0.5-1.2,0.4,0.9,0.7,0
			c0.3-0.9,0,0,0.9-0.6c0.9-0.6,0-0.9,1.3-1.1c1.3-0.2,2.4-1.8,2.9-2.1c0.5-0.3,0.4-0.8,1-0.6c0.5,0.2,0.1-0.7,1.4-1
			c1.3-0.3,1.1,0,0.8,0.4c-0.3,0.4-0.4,0-0.9,0.8c-0.5,0.8,0.9,0.3,1.5-0.3c0.5-0.6,2-0.6,3.1-1.3c1.1-0.7,0-0.4-0.4-0.8
			c-0.5-0.4-0.4,0.6-1.3,0.9c-0.9,0.4-0.9-0.3-1.2-1.1c-0.4-0.8,0.4-0.9,0.6-1.6c0.3-0.7-1-0.1-1.8-0.1c-0.9,0-1.1,0-0.5-0.3
			c0.6-0.4,0.7-0.1,0.6-0.4c-0.1-0.3,0-0.3,1.3-0.4c1.3-0.1,2.8,0.5,4-0.4c1.2-1,0.2-0.6,1.3-0.3c1.1,0.3,0,0.5-0.7,0.9
			c-0.7,0.4,0.3,1-0.6,1.3c-0.9,0.3,0.4,1,2,0.9c1.6-0.2,0.7,0.3,1.2,0.7c0.5,0.4,0.3,0.3,0.8-0.3C143.1,70.1,142.3,69.8,142.1,68.7
			z M127.1,51.5C126.7,51.6,127,51.4,127.1,51.5L127.1,51.5z"/>
		<path class="st132" d="M202.5,102c0,11.4-3.2,22-8.8,31c-0.7-1.9,0.5-5.5,2.5-10.5c1.9-5,1.1-9.7,0-12.2c-1.1-2.6-0.3-3.5,0-5.4
			c0.3-1.9-2,0.9-2.2-0.3c-0.1-1.2-1.5-1.6-2.4-1.5c-0.9,0.1-0.9,2.8-2.3,2.4c-1.3-0.4-0.4-1.3-2,1.2c-1.6,2.6-5.2-0.5-7-1.9
			c-1.7-1.3-2.8-1.3-2.8-4.3c0-3,0-5.9-0.8-6.2c-0.8-0.3-1.5-2-2.2-4.7c-0.7-2.7,2.2-3.9,4.4-5.9c2.3-2-0.5-2.2-0.5-2.2
			s-1.1-1.1-0.8-3.2c0.3-2.2,1.5-1.2,2.7-1.2s1.7-0.7,2.6-2.8c0.8-2.2,0.5-1.9,2.7-1.8c2.2,0.1,1.6,3.5,2.3,3.4
			c0.7-0.1,0.4-1.3,1.2-0.8c0.8,0.5,2,1.5,2.7,0c0.7-1.5-1.2-1.2,0-1.7c1.2-0.5,2.2,0.3,1.6-1.2c-0.2-0.6-0.1-1.3,0-1.8
			C199.1,79.5,202.5,90.3,202.5,102z"/>
		<path class="st132" d="M189.4,68.3c-1.5-1.5-2.8-3.9-2.6-5c0-0.2,0.7,0.5,0.6-0.4c0-0.1,0-0.1,0.1-0.2c0.7,0.8,1.3,1.5,1.9,2.3
			c0,0.4,0,0.8,0.2,1.2C190.1,67.1,190.6,69.5,189.4,68.3z"/>
		<path class="st132" d="M188.2,69.5c-0.6,0-2.7-2.5-4-3.7c-1.3-1.2-0.6,0.1-0.9,0.6c-0.3,0.6-1.1-1.7-1.7-1
			c-0.1,0.1-0.2,0.2-0.3,0.2c0.2,0.2,0.5,0.5,0.7,0.7c0.8,0.7,1.2,0.8,1.4,0.7c0.1-0.1,0.5,0.2,0.5,0.2l1.1,0.3c0,0,0.8,0.4,0.7,0.7
			c0,0.1-0.7,0-0.7,0c0.1,0.1,1.2,1.1,0.8,1.6c-0.2,0.3-0.6-0.6-1.2-1.1c-0.3-0.3-1-0.6-1.2-0.4c-0.2,0.2-0.6,0.1-1.1-0.7
			c-0.4-0.6-1.7-0.7-2.3-0.8c0,0.1,0,0.3,0.1,0.5c0.4,1.9-1.2,0.9-1.2,0.9s0.3,2,0,2.4c-0.3,0.4-0.4,1.1,0.7,2.8
			c1.1,1.7-1.9,0.5-1.6,1.6c0.3,1.1-1.1,1.9-3.6-1.2c-2.5-3.1-2.3-4.6,0-4c1.6,0,2.3-0.6,1.2-1.9c-1.9-1.4-2.7-1.3-3.6-2.1
			c-0.9-0.8,0.5-1.2,1.4-1.5c0.7,0.1,0.6-0.5,0.2-0.9c-1.2-1,1.1-0.7,0.2-2.3c-0.4-1-0.2-1.3,0-1.8c0.4-1,1.6,0.6,1.2-1.2
			s2.1,0.8,1-0.7c-1.1-1.5-3.5-1.6-2.5-2c1-0.4-0.8-0.3-1.1-1.5c-0.3-1.2-0.6-1.6-1.4-1.8c-0.1,0.9,1.5,1.9,0.4,1.7
			c-1.1-0.2-2.2-0.6-3-1.6c-0.9-1-3.6-2.5-2-0.7c1.6,1.7,2.4,2.6,3.6,3c1.1,0.1,0.9,0.2,2,1.2c1,1,2,3.6,0.9,3.1
			c-1.7-0.9-1.6-2.2-2.7-2.9c0,0,0.2,1.2-0.3,1.3c-1.2,0.6-2.1-1.6-3.4-2.3c-1.3-0.7,1.3-0.5,0.3-1.4c-1.1-0.9-3.4-2.4-4-3.5
			c-0.6-1.1-0.6-2.4,0.7-1.5c0.5,0.9,0.6-0.8,1.9,0.2c1.3,1,0.4,0.4,1.6,1.1c1.4,0.8,2.6,0.6,2,0.2c-1.2-1-6.5-2.2-6.4-3.7
			c0-0.1,0-0.2,0-0.2c8.7,3,16.5,8,22.9,14.4c-0.4,0.2-1.5,0.7-0.8,1.6c0.8,1.1,1.7,1.1,1.2,2.3C185.3,65.5,189.7,69.5,188.2,69.5z"
			/>
		<path class="st132" d="M165.3,57.4c1.3-0.9,0.8,1.5,1.5,1.3c0.7-0.2,1.1,0.6,1.6,1c0.7,0.5,0.3,0.3,1.9,1.2c0.7,0.4,0.8,0.8,1,1.3
			c0.2,0.5,0.7-0.9,0.9-0.3c0.2,0.6,1.4,0.9-0.6,1.7c-0.7,0-0.4,0.9-0.8,0.8c-0.4-0.1-0.2-1.4-0.8-1.3c-0.6,0.1,0.2-0.7-0.7-0.8
			c-0.8-0.1,0.9-0.3,0-0.7c-0.9-0.3-1.5-1.3-1.4-0.5c0.1,0.8,1.2,2.3,0.6,2c-0.6-0.3,0.1,0.9-0.4,0.9c-0.5,0-0.8-0.2-1-0.9
			c-0.2-0.7-1.7-0.9-0.9-1.1c0.8-0.2-0.7-0.8,0.1-1.1c0.3-0.1-0.1-0.9-0.1-0.9c-0.9-0.5-2.4-1.2-1.1-1
			C166.2,59.2,165,57.6,165.3,57.4z"/>
		<path class="st133" d="M185.1,68.1C185.1,68.1,185,68.1,185.1,68.1L185.1,68.1z"/>
		<path class="st132" d="M156.5,54.4c0.3-0.1,1.1,0.1,1.1,0.4c0,0.3,1.1,0.5,0.7,0.8c-0.6,0.5-0.1,1-0.6,0.9
			c-0.4-0.1,0.1,0.5-0.7,0.3c-0.8-0.2-1,0-1.7-0.5c-0.7-0.6-1.8-0.5-1.4-1.1c0.5-0.6,1.2-0.2,1.5,0.1c0.3,0.3,0.2-0.5,0.5-0.4
			C156.3,55.1,156.3,54.5,156.5,54.4z"/>
		<path class="st132" d="M139.1,48.8c0.3-0.1,1.4-0.7,2.1-1c0.3-0.3,0.5-0.2,0.8,0c0.3,0.2,1.1-0.8,1.4-0.5c0.3,0.3,0.8-1.2,2.4-0.2
			c0.7,0,0.8-0.6,1.3,0c0.5,0.6,0.9-0.8,1.4,0.6c0.4,0.9,1,1.5,1.3,1.6c0.8,0.3,1.9,0.7,1.5,1.2c-0.4,0.5-0.9,0.5-0.3,1
			c0.6,0.5,1.5,0.2,1.5,0.6c0,0.3-1.2,0.1-2,0.1c-0.3,0-0.4,0.4,0,0.6c0.4,0.1,0.9-0.1,1.3,0c0.4,0.1,0.5,0.7-0.1,0.9
			c-0.7,0.2-1.3,0.6-1.9,0.4c-0.7,0,1.1,1.2-0.4,1.6c-1.5,0.4-1-0.3-1.4,0c-0.4,0.3,0.8,0.5-0.1,0.7c-0.9,0.3-0.7,0.6-0.6,0.9
			c0.1,0.3-0.2,0.5-0.5,0.7c-0.3,0.2,0.3,0.2,0.1,1.1c-0.2,0.9,0.7,1.3-0.1,1.2c-0.8-0.1-0.3-1-1.1-0.9c-0.8,0.1-2.3-0.7-2.8-1.6
			c-0.5-0.9-0.6-1.1-1.1-1.5c-0.6-0.4-1-1.1-0.5-1.2c0.5-0.2,0.4-0.4,0.9-0.4c0.5,0,0.9,0.2,0.7-0.4c-0.2-0.6,0-0.6-0.6-0.5
			c-0.7,0.1-1.2-0.4-0.5-0.4c0.7,0,1.2,0.1,0.8-0.4c-0.4-0.5-0.4-0.9-0.8-0.5c-0.4,0.4-0.6,0.8-0.6-0.2c0-1-0.1-0.9-0.4-1.6
			c-0.3-0.6,0.3-0.7-0.9-0.6c-1.2,0.1-2.1,0.2-2.1-0.1C138,49.7,138.5,49,139.1,48.8z"/>
		<path class="st132" d="M152.1,45.8c0.2-0.3,1.9,0,1.4,0.4c-0.5,0.3,0.2,0.2,0.9,0.3c0.7,0.1,1.4,0.4,1.2,0.5
			c-0.2,0.1-1.2-0.3-1.3,0c-0.1,0.2,1,0.4,0.7,0.4c-0.7,0.1-1.6-0.2-2.2-0.4c-0.2-0.1-0.9-0.2-0.9-0.4c0-0.2,0.6-0.2,0.6-0.2
			S151.9,46,152.1,45.8z"/>
		<path class="st132" d="M116.9,115.5c-0.4,0.1-0.8,0.4-0.9,2.1c-0.1,1.6-0.6,2.8,0,4.2c1.1,1.3,3.1,6,4,6.5c2,3.7,5.7,5.5,7,6.1
			c1.4,0.6,1.3,8.1,0.8,8.4c-0.5,0.3,0.5,1.3,0.3,1.4c-0.3,0.1,0.4,1.1,0.4,2.2c0,1.2,0.1,1-0.4,1.8c-0.5,0.9,0.9,4.3,1.3,5.7
			c0.4,1.5,1.6,2.2,2.2,2.5c0.6,0.3,1.2,0.4,2.3,0.7c1.1,0.4,3.1,0.8,2.7,0c-1.2,0.1-2.5-1.5-2.1-1.5s0-0.4,0.1-0.8
			c0.1-0.4,0.8-0.3,1-0.6c0.2-0.3-0.7-0.4-1.1-0.8c-0.4-0.4,0.2-0.5,0.9-0.6c0.7-0.1,0.1-0.7,0.7-1.1c0.5-0.4-1-0.9-0.4-0.7
			c0.6,0.1,1,0.1,1.1-0.4c0.1-0.4-0.8-0.9,0.3-0.9c1.4,0.4,3.2-0.6,3.7-0.8c0.4-0.2-0.3-1.2-0.9-1.5c-0.6-0.3-1.6-0.9-1.4-1.5
			c0.2-0.5,0.8,0.1,1.1,0.7c0.4,0.6,2.1,0.4,2.5,0.7c0.4,0.3,1.4-0.7,2-1.3c0.6-0.6,1.5-1.9,2.8-2.6c1.3-0.7,1.1-1.3,0.9-1.9
			c-0.2-0.7,0.8-1.5,1.8-2c1-0.5,1.8-1,3.4-1c1.6,0,0.9-1,1.9-1.6c1-0.6,2-3.5,2.3-4.3c0.3-0.8,0.3-2,0.3-2.8c0-0.8,0-0.8,0.6-0.5
			c0.5,0.2,0.3-0.6,0.8-0.9c0.5-0.4,0-0.8,0.6-1c0.6-0.2,0.9-1.6,1.6-2.1c0.8-0.5,0.5-1.6,0.4-2.5c-0.1-0.9-0.9-1.3-1.7-1.3
			c-0.8,0-1.7-0.7-2.3-1.5c-0.6-0.8-2.4,0.1-3.1,0c-0.7-0.1-0.9-0.6-1.4-0.2c-0.5,0.4-0.9-0.1-1.2-0.9c-0.2-0.7-1.1-0.4-1.8-0.9
			c-0.7-0.6-0.8-0.1-1.4,0c-0.6,0-0.8,0-1.3,0c-0.4,0-0.9-1.1-0.9-2c0.2-0.9-0.9-1.2-0.9-1.2s-0.4-0.9-0.8-2.1
			c-0.4-1.2-1.5-0.7-2.2-1.3c-0.7-0.7-2.6-0.3-3.3-0.3c-0.7,0-1.3-0.5-1.5-1.3c-0.2-0.7-1.1-1.3-1.6-1.3c-0.5-0.1-0.5-0.2-0.5-0.7
			c0-0.6-0.6-0.5-1-0.7c-0.4-0.2-0.5-0.1-0.7-0.6c-0.1-0.5-0.6-0.4-1.2-0.7c-0.6-0.3-0.7,0.1-0.8,0.5c-0.1,0.4-0.8,0.5-1.3,0.1
			c-0.5-0.4-0.8-0.4-1-0.3c-0.3,0-1.3,0.3-1.4-0.2c-0.1-0.5-0.8-0.8-1.7-0.9c-1-0.2-0.7-0.3-0.7-0.6c0-0.3-0.7-0.4-1.3,0
			c-0.6,0.4-1,0.6-1.3,0.6c-0.3,0-0.6,0.7-1.1,0.1c-0.5-0.5,0.2,0.6-0.9,0.8c-1.1,0.2-1.5,0.9-1.5,0.9v1.3c0,0,0.2-0.1,0,1.7
			c-0.2,1.8-0.7,3.8-1.7,4.6C116.9,115.5,116.9,115.5,116.9,115.5z"/>
		<path class="st132" d="M114.4,92.8c0,0,1.5-0.8,2.1-0.4c0.5,0.4,1.2-0.1,3.1,1.1c1.9,1.2,4.7,2.4,3.4,2.5c-1.3,0.1-1.5,0-2.2,0
			c-0.7,0-0.5-0.5-0.8-0.8c-0.8-0.8-1-0.8-1.7-1c-0.6-0.2-1.3-1-1.4-0.4C116.8,94.2,114.4,92.8,114.4,92.8z"/>
		<path class="st132" d="M124.1,96.5c0,0,0.7,1.2,0,1.2c-0.7,0-1.4,0.6-1.4,0.6s2.1,0.2,2.6,0c0.5-0.2,1,0.3,1.9,0.1
			c0.9-0.3,2.2-0.8,1.2-0.9c-1.1-0.1-2.6-0.6-2.6-0.6S124.6,96.4,124.1,96.5z"/>
	</g>
	<g>
		<polygon class="st134" points="122.1,145.2 122.1,175.7 127.1,175.7 124.2,173 127.9,145.4 124.8,142.2 		"/>
		<polygon class="st134" points="127.3,145.5 128.1,175.7 133.2,175.7 130.3,173.1 132.8,145.4 129.7,142.2 		"/>
		<path class="st5" d="M83.5,138.5c-0.5-0.3-2-1.1-2.5-0.6s0.5,0.7,1.1,1.2c-0.6,0.4-2.1,0.7-1.7,1.7c0.4,1,0.9,1.2,0.9,1.2
			c0.8,0.4,2.4-0.8,2.7-1.9L83.5,138.5z"/>
		<path class="st5" d="M140.5,138.9c0.6,0,2.6,0.4,2.4,1c-0.1,0.3-1.5-0.2-1.4-0.1c0.4,0.6,2.4,1,1.9,2c-0.3,0.6-1.3,1-1.3,1
			c-1.2,0.3-2.2-1.9-2.6-3.2L140.5,138.9z"/>
		<path class="st5" d="M112.4,141.5l-0.6,0.2c-1,0.3-3,0.5-2.8,1.1c0.1,0.4,1.2,0.1,1.6,0c-1,0.7-2.2,2-1.3,2.8c0.9,0.8,2.4,2,4-2.5
			L112.4,141.5z"/>
		<g>
			<g>
				<path class="st135" d="M132.8,118c3.1,3.4,8.2,21,8.2,21l-1.1,1.7c0,0-5.3-15.3-6.5-16.5C133.3,124.2,132.5,119,132.8,118z"/>
				<path class="st135" d="M121.6,118c-3.1,3.4-8.5,22.8-9.2,23.8l0.9,1.9c2.2-1.9,6.9-17.5,7.8-19.5
					C121.1,124.2,121.9,119,121.6,118z"/>
				<g>
					<path class="st5" d="M129.8,103.7l-3-0.5c0,0-4.2,11.5-5.3,15l5.3,3.2l6.1-2.4c0.1-3.7-0.1-14.9-0.1-14.9L129.8,103.7z"/>
					<polygon class="st5" points="125.7,106.6 123.4,110 124.9,110.4 					"/>
					<path class="st27" d="M125.9,109.1c-0.2,0-0.4-0.1-0.6-0.4l0.2-0.2c0.2,0.2,0.4,0.3,0.7,0.3c0.3,0,0.6-0.3,0.7-0.5l0.2,0.1
						c-0.1,0.3-0.5,0.5-1,0.6C126.1,109.1,126,109.1,125.9,109.1z"/>
					<path class="st27" d="M123.6,114.4c-0.1,0-0.2,0-0.3-0.1l0.1-0.2c0.5,0.2,1.1,0.1,1.6-0.2c0.4-0.2,0.7-0.5,0.7-0.8l0.3,0.1
						c-0.1,0.4-0.4,0.7-0.9,1C124.6,114.4,124.1,114.5,123.6,114.4z"/>
					<g>
						<path class="st26" d="M134.4,104.5l-1.5,12.2l-5.9-1l0.4-4.9c0,0,0,0,0.1,0c0.6,0.1,1.3-0.4,1.4-1.2c0.1-0.8-0.3-1.4-0.9-1.6
							c-0.1,0-0.2,0-0.3,0l0.1-1.3l-1.8-1.1l-0.7-2.9L134.4,104.5z"/>
					</g>
				</g>
				<path class="st135" d="M127.2,146.8l-5.1,0c-2-4.4-3-23.6-0.5-28.7h11.2c2.5,5.1,1.9,24-0.1,28.4L127.2,146.8z"/>
			</g>
		</g>
		<path class="st5" d="M109.6,141.3l0.5,0.4c1.1,0.1,2.9,0.2,2.8,0.8c0,0.4-1.2,0.3-1.6,0.2c1,0.5,2.4,1.7,1.7,2.6
			c-0.8,0.9-1.8,1.6-4-2.6L109.6,141.3z"/>
		<path class="st136" d="M99.3,120.2c4.5,6,11,21.6,11,21.6l-1.1,1.5c0,0-4.1-7.6-9.2-19.4L99.3,120.2z"/>
		<path class="st5" d="M93.2,114.5c1.8,1.4,3,2.8,3.1,5.9l0.1,0.5l2.9,0c-0.1-1.4-1.5-2.1,1.3-4.4c1.5-1.2,2.7-2.7,3.2-4.5l1.7-0.2
			c-1.2-0.4-1.4-1.7-1.8-2.9c-0.6-2.3-3.3-5.2-8.3-4.4C90.8,105.3,88.7,110.9,93.2,114.5z"/>
		<polygon class="st5" points="94.7,153.7 95.8,176.7 99.2,176.7 97.4,174.3 97.8,153.6 		"/>
		<polygon class="st5" points="99.1,153.7 99.4,176.7 102.8,176.7 101,174.3 102.2,153.6 		"/>
		<path class="st136" d="M92.9,143.2c0.6-5.8,1.6-11.5,2.8-22.8l3.6,0.1c3.2,6.3,3.2,11.1,3.2,22.1c0.1,5.6,0.2,8.2,0.2,8.2l0.6,6
			H91.7l0.4-1.5C92.3,154.4,92.8,146.1,92.9,143.2z"/>
		<g>
			<polygon class="st27" points="99.4,176.7 99.4,174.3 101,174.3 102.8,176.7 			"/>
			<polygon class="st27" points="95.8,176.7 95.7,174.3 97.4,174.3 99.2,176.7 			"/>
		</g>
		<circle class="st26" cx="89.8" cy="107" r="3.8"/>
		<path class="st136" d="M95.7,120.4c-1.8,3-12.2,18.1-12.2,18.1l0.4,1.9c0,0,9.8-13,11.9-15.8C96.3,123.2,96.3,121.6,95.7,120.4z"
			/>
		<path class="st7" d="M100.3,121.4l-1-1.9c0,0-1-0.7-3.4-0.2l-0.4,1.5c0.8-0.3,2.8-0.2,3.6-0.1L100.3,121.4z"/>
		<path d="M102.5,110.7c-0.4,0-0.8-0.3-0.9-1l0.3,0c0.1,0.5,0.4,0.7,0.6,0.7c0.2,0,0.5-0.2,0.5-0.8h0.3
			C103.3,110.4,102.9,110.7,102.5,110.7C102.5,110.7,102.5,110.7,102.5,110.7z"/>
		<path d="M101.3,115.2c-0.1,0-0.2,0-0.3,0c-0.4-0.1-0.8-0.4-1-0.9l0.3-0.1c0.2,0.4,0.5,0.6,0.8,0.7c0.2,0,0.5,0.1,0.7-0.1l0.2,0.2
			C101.8,115.1,101.5,115.2,101.3,115.2z"/>
		<g>
			<path class="st26" d="M97.7,103c3.5,0.7,4.5,3.4,5.9,3.6c-0.6,0.7-1.4,1.3-3,1.2c-0.6,0.2-1.2,1.2-1.6,2.4c-0.1,0-0.2,0-0.2,0
				c-0.8,0-1.5,0.7-1.5,1.5c0,0.7,0.4,1.2,1,1.4c-0.2,1.3-0.3,2.7-0.2,4c-0.8,0.6-1.7,0.6-2.3,0.2c-0.1-0.2-0.2-0.4-0.3-0.6
				c-1.8-2.8-4.5-2.2-5.2-6.5C89.3,103.9,94.1,102.3,97.7,103z"/>
		</g>
	</g>
	<g>
		<polygon class="st137" points="181.6,144.7 181.8,175.3 186.8,175.3 183.9,172.7 187.6,145.4 184.5,142.2 		"/>
		<polygon class="st137" points="187,145.5 187.8,175.7 192.9,175.7 190,173.1 192.5,145.4 189.4,142.2 		"/>
		<path class="st5" d="M143.2,138.5c-0.5-0.3-2-1.1-2.5-0.6c-0.5,0.5,0.5,0.7,1.1,1.2c-0.6,0.4-2.1,0.7-1.7,1.7
			c0.4,1,0.9,1.2,0.9,1.2c0.8,0.4,2.4-0.8,2.7-1.9L143.2,138.5z"/>
		<path class="st5" d="M200.2,138.9c0.6,0,2.6,0.4,2.4,1c-0.1,0.3-1.5-0.2-1.4-0.1c0.4,0.6,2.4,1,1.9,2c-0.3,0.6-1.3,1-1.3,1
			c-1.2,0.3-2.2-1.9-2.6-3.2L200.2,138.9z"/>
		<path class="st5" d="M172.1,141.5l-0.6,0.2c-1,0.3-3,0.5-2.8,1.1c0.1,0.4,1.2,0.1,1.6,0c-1,0.7-2.2,2-1.3,2.8c0.9,0.8,2.4,2,4-2.5
			L172.1,141.5z"/>
		<g>
			<g>
				<path class="st138" d="M192.5,118c3.1,3.4,8.2,21,8.2,21l-1.1,1.7c0,0-5.3-15.3-6.5-16.5C193,124.2,192.2,119,192.5,118z"/>
				<path class="st138" d="M181.3,118c-3.1,3.4-8.5,22.8-9.2,23.8l0.9,1.9c2.2-1.9,6.9-17.5,7.8-19.5
					C180.8,124.2,181.6,119,181.3,118z"/>
				<g>
					<path class="st5" d="M184.3,103.7l3-0.5c0,0,4.1,11.3,5.2,14.9l-5.2,3.4l-6.1-2.4c-0.1-3.7,0.1-14.9,0.1-14.9L184.3,103.7z"/>
					<polygon class="st5" points="188.5,106.6 190.8,110 189.2,110.4 					"/>
					<path class="st27" d="M188.3,109.1c0.2,0,0.4-0.1,0.6-0.4l-0.2-0.2c-0.2,0.2-0.4,0.3-0.7,0.3c-0.3,0-0.6-0.3-0.7-0.5l-0.2,0.1
						c0.1,0.3,0.5,0.5,1,0.6C188.1,109.1,188.2,109.1,188.3,109.1z"/>
					<path class="st27" d="M190.6,114.4c0.1,0,0.2,0,0.3-0.1l-0.1-0.2c-0.5,0.2-1.1,0.1-1.6-0.2c-0.4-0.2-0.7-0.5-0.7-0.8l-0.3,0.1
						c0.1,0.4,0.4,0.7,0.9,1C189.6,114.4,190.1,114.5,190.6,114.4z"/>
					<g>
						<path class="st26" d="M179.7,104.5l1.5,12.2l5.9-1l-0.4-4.9c0,0,0,0-0.1,0c-0.6,0.1-1.3-0.4-1.4-1.2c-0.1-0.8,0.3-1.4,0.9-1.6
							c0.1,0,0.2,0,0.3,0l-0.1-1.3l1.8-1.1l0.7-2.9L179.7,104.5z"/>
					</g>
				</g>
				<path class="st138" d="M186.9,146.8l-5.3,0c-2-4.4-2.9-23.5-0.4-28.6l11.3-0.2c2.5,5.1,1.9,24.3-0.1,28.7L186.9,146.8z"/>
			</g>
		</g>
		<path class="st5" d="M169.3,141.3l0.5,0.4c1.1,0.1,2.9,0.2,2.8,0.8c0,0.4-1.2,0.3-1.6,0.2c1,0.5,2.4,1.7,1.7,2.6
			c-0.8,0.9-1.8,1.6-4-2.6L169.3,141.3z"/>
		<path class="st139" d="M159,120.2c4.5,6,11,21.6,11,21.6l-1.1,1.5c0,0-4.1-7.6-9.2-19.4L159,120.2z"/>
		<path class="st5" d="M161.9,114.5c-1.8,1.4-3,2.8-3.1,5.9l-0.1,0.5l-2.9,0c0.1-1.4,1.5-2.1-1.3-4.4c-1.5-1.2-2.7-2.7-3.2-4.5
			l-1.7-0.2c1.2-0.4,1.4-1.7,1.8-2.9c0.6-2.3,3.3-5.2,8.3-4.4C164.3,105.3,166.4,110.9,161.9,114.5z"/>
		<polygon class="st5" points="154.4,153.7 155.5,176.7 158.9,176.7 157.1,174.3 157.5,153.6 		"/>
		<polygon class="st5" points="158.8,153.7 159.1,176.7 162.5,176.7 160.8,174.3 161.9,153.6 		"/>
		<path class="st139" d="M152.7,143.2c0.6-5.8,1.6-11.5,2.8-22.8l3.6,0.1c3.2,6.3,3.2,11.1,3.2,22.1c0.1,5.6,0.2,8.2,0.2,8.2l0.6,6
			h-11.6l0.4-1.5C152,154.4,152.5,146.1,152.7,143.2z"/>
		<g>
			<polygon class="st27" points="159.1,176.7 159.1,174.3 160.8,174.3 162.5,176.7 			"/>
			<polygon class="st27" points="155.5,176.7 155.4,174.3 157.2,174.3 158.9,176.7 			"/>
		</g>
		<path class="st139" d="M155.4,120.4c-1.8,3-12.2,18.1-12.2,18.1l0.4,1.9c0,0,9.8-13,11.9-15.8C156,123.2,156,121.6,155.4,120.4z"
			/>
		<path class="st7" d="M160,121.4l-1-1.9c0,0-1-0.7-3.4-0.2l-0.4,1.5c0.8-0.3,2.8-0.2,3.6-0.1L160,121.4z"/>
		<path d="M152.6,110.7c0.4,0,0.8-0.3,0.9-1l-0.3,0c-0.1,0.5-0.4,0.7-0.6,0.7c-0.2,0-0.5-0.2-0.5-0.8h-0.3
			C151.8,110.4,152.2,110.7,152.6,110.7C152.6,110.7,152.6,110.7,152.6,110.7z"/>
		<path d="M153.8,115.2c0.1,0,0.2,0,0.3,0c0.4-0.1,0.8-0.4,1-0.9l-0.3-0.1c-0.2,0.4-0.5,0.6-0.8,0.7c-0.2,0-0.5,0.1-0.7-0.1
			l-0.2,0.2C153.3,115.1,153.5,115.2,153.8,115.2z"/>
	</g>
	<g>
		<path class="st26" d="M163.1,114.1c5.7-5-0.6-11.2-4.4-11.4c-5.7-0.3-6.7,3.6-8.2,2.3c-0.1,3.4,5,5.1,7.3,4.3
			c0.3,0.6,0.5,1.2,0.5,2c0.2,0,0.3,0,0.5,0.1c0.7,0.3,1.1,1.1,0.8,1.9c-0.3,0.7-0.9,1-1.6,0.9c-0.9,4.4,1.2,4.7,6.4,4.8
			C162.9,118.5,159.8,117,163.1,114.1z"/>
	</g>
</g>
</svg>
