<?xml version="1.0" encoding="utf-8"?>
<!-- Generator: Adobe Illustrator 21.1.0, SVG Export Plug-In . SVG Version: 6.00 Build 0)  -->
<!DOCTYPE svg PUBLIC "-//W3C//DTD SVG 1.1//EN" "http://www.w3.org/Graphics/SVG/1.1/DTD/svg11.dtd">
<svg version="1.1" id="Layer_1" xmlns="http://www.w3.org/2000/svg" xmlns:xlink="http://www.w3.org/1999/xlink" x="0px" y="0px"
	 viewBox="0 0 286 286" style="enable-background:new 0 0 286 286;" xml:space="preserve">
<style type="text/css">
	.st0{fill:#4298B5;}
	.st1{enable-background:new    ;}
	.st2{fill:#FFFFFF;}
	.st3{fill:#EB6479;}
	.st4{fill:#003E5A;}
	.st5{fill:#223129;}
	.st6{fill:#243129;}
	.st7{fill:#6C707A;}
</style>
<circle class="st0" cx="143" cy="143" r="143"/>
<g class="st1">
	<path class="st2" d="M91.9,198.6c0,1.6-0.5,2.8-1.4,3.7s-2.3,1.3-4,1.3h-1.1v4.7h-3.9v-14.3h4.9c1.8,0,3.2,0.4,4.1,1.2
		S91.9,197.1,91.9,198.6z M85.4,200.5h0.7c0.6,0,1-0.2,1.4-0.5s0.5-0.8,0.5-1.3c0-1-0.5-1.4-1.6-1.4h-1V200.5z"/>
	<path class="st2" d="M97.8,208.3H94v-15.2h3.8V208.3z"/>
	<path class="st2" d="M107.7,208.3l-0.7-1.5h-0.1c-0.5,0.6-1,1.1-1.6,1.3s-1.2,0.4-2.1,0.4c-1,0-1.9-0.3-2.5-0.9s-0.9-1.5-0.9-2.6
		c0-1.2,0.4-2.1,1.2-2.6s2-0.9,3.6-1l1.8-0.1v-0.2c0-0.9-0.4-1.4-1.3-1.4c-0.8,0-1.8,0.3-3.1,0.8l-1.1-2.5c1.3-0.7,2.9-1,4.9-1
		c1.4,0,2.5,0.4,3.3,1.1s1.2,1.7,1.2,2.9v7.3H107.7z M104.8,205.8c0.5,0,0.9-0.1,1.2-0.4s0.5-0.7,0.5-1.1v-0.9l-0.9,0
		c-1.3,0-1.9,0.5-1.9,1.4C103.7,205.5,104.1,205.8,104.8,205.8z"/>
	<path class="st2" d="M119.9,208.3v-6c0-0.7-0.1-1.3-0.3-1.7s-0.6-0.6-1-0.6c-0.6,0-1.1,0.3-1.4,0.8s-0.4,1.4-0.4,2.6v4.8h-3.8
		v-11.1h2.9l0.5,1.4h0.2c0.3-0.5,0.8-0.9,1.4-1.2s1.2-0.4,2-0.4c1.2,0,2.2,0.4,2.9,1.1s1,1.7,1,3v7.2H119.9z"/>
	<path class="st2" d="M133.3,208.3v-6c0-0.7-0.1-1.3-0.3-1.7s-0.6-0.6-1-0.6c-0.6,0-1.1,0.3-1.4,0.8s-0.4,1.4-0.4,2.6v4.8h-3.8
		v-11.1h2.9l0.5,1.4h0.2c0.3-0.5,0.8-0.9,1.4-1.2s1.2-0.4,2-0.4c1.2,0,2.2,0.4,2.9,1.1s1,1.7,1,3v7.2H133.3z"/>
	<path class="st2" d="M139.6,194.5c0-0.6,0.2-1,0.5-1.3s0.8-0.4,1.5-0.4s1.2,0.1,1.6,0.4s0.5,0.7,0.5,1.3c0,1.1-0.7,1.7-2,1.7
		C140.3,196.2,139.6,195.6,139.6,194.5z M143.5,208.3h-3.8v-11.1h3.8V208.3z"/>
	<path class="st2" d="M153.2,208.3v-6c0-0.7-0.1-1.3-0.3-1.7c-0.2-0.4-0.6-0.6-1-0.6c-0.6,0-1.1,0.3-1.4,0.8
		c-0.3,0.5-0.4,1.4-0.4,2.6v4.8h-3.8v-11.1h2.9l0.5,1.4h0.2c0.3-0.5,0.8-0.9,1.4-1.2s1.2-0.4,2-0.4c1.2,0,2.2,0.4,2.9,1.1
		c0.7,0.7,1,1.7,1,3v7.2H153.2z"/>
	<path class="st2" d="M170,197.3v1.8l-1.5,0.6c0.2,0.4,0.3,0.8,0.3,1.3c0,1.2-0.4,2.1-1.3,2.8c-0.8,0.7-2.1,1-3.7,1
		c-0.4,0-0.7,0-1-0.1c-0.1,0.2-0.1,0.3-0.1,0.5c0,0.2,0.2,0.3,0.5,0.4c0.3,0.1,0.7,0.2,1.2,0.2h1.8c2.5,0,3.7,1,3.7,3.1
		c0,1.3-0.6,2.4-1.7,3.1c-1.1,0.7-2.8,1.1-4.8,1.1c-1.6,0-2.8-0.3-3.6-0.8s-1.3-1.3-1.3-2.3c0-1.3,0.8-2.2,2.5-2.6
		c-0.3-0.1-0.6-0.4-0.9-0.7c-0.2-0.3-0.4-0.6-0.4-0.9c0-0.3,0.1-0.6,0.3-0.9c0.2-0.3,0.6-0.6,1.2-0.9c-0.6-0.3-1-0.7-1.4-1.2
		c-0.3-0.5-0.5-1.2-0.5-2c0-1.2,0.4-2.1,1.2-2.8s2-1,3.5-1c0.2,0,0.6,0,1,0.1c0.5,0,0.9,0.1,1.1,0.1H170z M161.7,209.7
		c0,0.3,0.2,0.6,0.5,0.8c0.3,0.2,0.8,0.3,1.4,0.3c0.9,0,1.7-0.1,2.2-0.3s0.8-0.5,0.8-0.9c0-0.3-0.2-0.5-0.5-0.6
		c-0.3-0.1-0.8-0.2-1.5-0.2h-1.5c-0.4,0-0.8,0.1-1,0.3S161.7,209.4,161.7,209.7z M162.9,200.9c0,1.1,0.4,1.7,1.2,1.7
		c0.4,0,0.6-0.1,0.8-0.4c0.2-0.3,0.3-0.7,0.3-1.3c0-1.1-0.4-1.7-1.1-1.7C163.3,199.2,162.9,199.8,162.9,200.9z"/>
	<path class="st2" d="M183.7,200.1h-2.4v8.2h-3.8v-8.2H176v-1.9l1.5-0.9v-0.2c0-1.5,0.3-2.5,0.9-3.1s1.6-1,2.9-1c0.5,0,1,0,1.4,0.1
		c0.5,0.1,1,0.2,1.6,0.4l-0.8,2.5c-0.5-0.1-0.9-0.2-1.4-0.2c-0.3,0-0.5,0.1-0.6,0.3c-0.1,0.2-0.2,0.5-0.2,0.9v0.3h2.4V200.1z"/>
	<path class="st2" d="M195.7,202.8c0,1.8-0.5,3.2-1.5,4.2c-1,1-2.3,1.5-4.1,1.5c-1.7,0-3-0.5-4-1.6c-1-1-1.5-2.4-1.5-4.2
		c0-1.8,0.5-3.2,1.5-4.2c1-1,2.3-1.5,4.1-1.5c1.1,0,2,0.2,2.9,0.7c0.8,0.5,1.5,1.1,1.9,2C195.5,200.6,195.7,201.6,195.7,202.8z
		 M188.6,202.8c0,1,0.1,1.7,0.4,2.2s0.7,0.7,1.3,0.7c0.6,0,1-0.2,1.3-0.7s0.4-1.2,0.4-2.2c0-0.9-0.1-1.7-0.4-2.1
		c-0.2-0.5-0.7-0.7-1.3-0.7c-0.6,0-1,0.2-1.3,0.7S188.6,201.8,188.6,202.8z"/>
	<path class="st2" d="M204.6,197.1c0.3,0,0.6,0,0.9,0.1l0.2,0l-0.3,3.6c-0.3-0.1-0.7-0.1-1.3-0.1c-0.8,0-1.4,0.2-1.8,0.6
		c-0.4,0.4-0.6,0.9-0.6,1.6v5.4h-3.8v-11.1h2.8l0.6,1.8h0.2c0.3-0.6,0.8-1.1,1.3-1.4C203.4,197.3,204,197.1,204.6,197.1z"/>
</g>
<g class="st1">
	<path class="st2" d="M101.9,232.3h-8.5v-14.3h8.5v3.1h-4.6v2.2h4.3v3.1h-4.3v2.7h4.6V232.3z"/>
	<path class="st2" d="M107.6,232.5c-0.8,0-1.5-0.2-2.1-0.7s-1-1.1-1.4-2s-0.5-1.9-0.5-3.1c0-1.8,0.4-3.2,1.1-4.2s1.7-1.5,3-1.5
		c0.6,0,1.2,0.1,1.6,0.4s0.9,0.7,1.3,1.2h0.1c-0.1-0.9-0.2-1.7-0.2-2.6v-3h3.8v15.2h-2.9l-0.8-1.4h-0.1
		C109.9,232,108.9,232.5,107.6,232.5z M109.1,229.5c0.6,0,1-0.2,1.3-0.6s0.4-1,0.4-1.8v-0.3c0-1-0.1-1.7-0.4-2.1s-0.7-0.6-1.3-0.6
		c-0.5,0-0.9,0.2-1.2,0.7s-0.4,1.1-0.4,2c0,0.9,0.1,1.5,0.4,2S108.6,229.5,109.1,229.5z"/>
	<path class="st2" d="M124.9,232.3l-0.5-1.4h-0.2c-0.3,0.5-0.8,0.9-1.3,1.2s-1.2,0.4-2,0.4c-1.2,0-2.2-0.4-2.8-1.1s-1-1.7-1-3v-7.2
		h3.8v6c0,0.7,0.1,1.3,0.3,1.6s0.5,0.6,1,0.6c0.7,0,1.1-0.3,1.4-0.8s0.4-1.4,0.4-2.6v-4.8h3.8v11.1H124.9z"/>
	<path class="st2" d="M135.4,232.5c-1.8,0-3.2-0.5-4.1-1.5s-1.4-2.4-1.4-4.2c0-1.8,0.5-3.3,1.5-4.3s2.4-1.5,4.3-1.5
		c1.3,0,2.5,0.3,3.6,0.8l-1.1,2.8c-0.5-0.2-0.9-0.4-1.3-0.5s-0.8-0.2-1.2-0.2c-0.6,0-1.1,0.2-1.4,0.7s-0.5,1.2-0.5,2
		c0,1.8,0.7,2.7,2,2.7c1.1,0,2.2-0.3,3.2-1v3C138,232.2,136.8,232.5,135.4,232.5z"/>
	<path class="st2" d="M148.4,232.3l-0.7-1.5h-0.1c-0.5,0.6-1,1.1-1.6,1.3c-0.5,0.2-1.2,0.4-2.1,0.4c-1,0-1.9-0.3-2.5-0.9
		s-0.9-1.5-0.9-2.6c0-1.2,0.4-2.1,1.2-2.6s2-0.9,3.6-1l1.8-0.1v-0.2c0-0.9-0.4-1.4-1.3-1.4c-0.8,0-1.8,0.3-3.1,0.8l-1.1-2.5
		c1.3-0.7,2.9-1,4.9-1c1.4,0,2.5,0.4,3.3,1.1c0.8,0.7,1.2,1.7,1.2,2.9v7.3H148.4z M145.6,229.8c0.5,0,0.9-0.1,1.2-0.4
		c0.3-0.3,0.5-0.7,0.5-1.1v-0.9l-0.9,0c-1.3,0-1.9,0.5-1.9,1.4C144.5,229.5,144.8,229.8,145.6,229.8z"/>
	<path class="st2" d="M159.1,229.5c0.5,0,1.1-0.1,1.8-0.4v2.8c-0.5,0.2-1,0.4-1.5,0.5c-0.5,0.1-1,0.1-1.6,0.1
		c-1.3,0-2.2-0.3-2.8-0.9s-0.8-1.6-0.8-2.9v-4.6h-1.3v-1.6l1.7-1.2l1-2.3h2.5v2.2h2.7v2.9H158v4.3
		C158,229.2,158.4,229.5,159.1,229.5z"/>
	<path class="st2" d="M162.8,218.5c0-0.6,0.2-1,0.5-1.3c0.3-0.3,0.8-0.4,1.5-0.4c0.7,0,1.2,0.1,1.6,0.4c0.3,0.3,0.5,0.7,0.5,1.3
		c0,1.1-0.7,1.7-2,1.7C163.4,220.2,162.8,219.6,162.8,218.5z M166.7,232.3h-3.8v-11.1h3.8V232.3z"/>
	<path class="st2" d="M179.9,226.8c0,1.8-0.5,3.2-1.5,4.2c-1,1-2.3,1.5-4.1,1.5c-1.7,0-3-0.5-4-1.6c-1-1-1.5-2.4-1.5-4.2
		c0-1.8,0.5-3.2,1.5-4.2c1-1,2.3-1.5,4.1-1.5c1.1,0,2,0.2,2.9,0.7c0.8,0.5,1.5,1.1,1.9,2C179.7,224.6,179.9,225.6,179.9,226.8z
		 M172.7,226.8c0,1,0.1,1.7,0.4,2.2s0.7,0.7,1.3,0.7c0.6,0,1-0.2,1.3-0.7s0.4-1.2,0.4-2.2c0-0.9-0.1-1.7-0.4-2.1
		c-0.2-0.5-0.7-0.7-1.3-0.7c-0.6,0-1,0.2-1.3,0.7S172.7,225.8,172.7,226.8z"/>
	<path class="st2" d="M189.1,232.3v-6c0-0.7-0.1-1.3-0.3-1.7c-0.2-0.4-0.6-0.6-1-0.6c-0.6,0-1.1,0.3-1.4,0.8
		c-0.3,0.5-0.4,1.4-0.4,2.6v4.8h-3.8v-11.1h2.9l0.5,1.4h0.2c0.3-0.5,0.8-0.9,1.4-1.2s1.2-0.4,2-0.4c1.2,0,2.2,0.4,2.9,1.1
		c0.7,0.7,1,1.7,1,3v7.2H189.1z"/>
</g>
<g>
	<path class="st3" d="M175.6,116.1c0.5,0.5,1.5,2.2,0.7,2.4c-0.4,0.1-1-1-1.1-0.8c-0.2,0.8,1.1,2.3-0.2,2.6c-0.9,0.2-2-0.1-2-0.1
		c-1.2-0.3-0.2-2.9,0.6-4.2L175.6,116.1z"/>
	<path class="st4" d="M182.4,85.5c-9,10.9-9.3,15-8.9,30.7h2.2c0.1-7.2,1-20.9,8.1-27L182.4,85.5z"/>
	<path class="st4" d="M187.4,84.9c8.3,4.3,27.5,12.7,20.7,16.8v-2.3c-0.9-4-10-6.4-22.2-10.5L187.4,84.9z"/>
	<g>
		<path class="st3" d="M192.5,77.1c-2.8,2-5.1,3.9-5.5,8.6v0.9l-4.8-0.1c0.9-1.8,2.7-3.3-1.2-7.1c-2.1-2.1-3.9-4.4-4.4-7.1l-2.6-0.4
			c1.8-0.5,2.3-2.5,2.9-4.3c1.1-3.5,5.6-7.6,13.1-6C197,63.2,199.7,72,192.5,77.1z"/>
		<polygon class="st3" points="189.5,127.7 189,171.3 184.5,171.1 187.2,167.4 184.7,127.3 187.6,122.9 		"/>
		<g>
			<polygon class="st5" points="184.5,171.1 189,171.3 189,167.2 187.2,167.1 187.2,167.4 			"/>
		</g>
		<polygon class="st3" points="184.2,127.7 182.3,171.3 177.9,171.2 180.5,167.4 179.3,127.4 182.1,122.9 		"/>
		<g>
			<polygon class="st5" points="177.9,171.2 182.3,171.3 182.5,167.2 180.4,167.1 180.5,167.4 			"/>
		</g>
		<path class="st6" d="M182.1,72c-0.3-0.1-0.5-0.3-0.7-0.5c-0.6-0.6-0.8-1.3-0.6-2.1l0.4,0.1c-0.2,0.6,0,1.3,0.5,1.7
			c0.4,0.4,1,0.6,1.6,0.5c0.6-0.2,1-0.7,1.3-1.6l0.4,0.1c-0.3,1-0.8,1.7-1.5,1.9C183,72.2,182.5,72.2,182.1,72z"/>
		<path class="st6" d="M182.1,78.5c-0.3-0.1-0.6-0.3-0.8-0.6l0.3-0.3c0.4,0.5,1,0.7,1.5,0.6c0.4-0.1,0.7-0.4,0.8-0.8l0.4,0.1
			c-0.1,0.6-0.5,1-1.1,1.1C182.8,78.7,182.4,78.6,182.1,78.5z"/>
		<path class="st4" d="M182.1,86.7c-3.5,15.7-3.5,23.7-7,51.6l20.4,0.6c-4.8-21.3-6.5-27.8-8-52.9L182.1,86.7z"/>
		<g>
			<path class="st4" d="M194.7,81.2c8.1-5.9,9.4-23.7-6.4-23.4c-8.7,0.2-9.6,6.1-12.2,4.6c0.7,5.2,8.8,6.6,12,4.8
				c0.6,0.8,1,1.7,1.2,2.8c0.2,0,0.5,0,0.7,0c1.2,0.3,1.9,1.4,1.7,2.6c-0.2,1-1.2,1.7-2.2,1.7c-0.3,6.8-2.5,14.9,5.4,13.9
				C192.7,87.9,189.3,84.9,194.7,81.2z"/>
		</g>
		<polygon class="st2" points="188,86.3 187.2,84.6 183.4,86.4 182.3,85.4 181.9,86.5 182.3,87.7 182.3,106.1 184.9,87.8 		"/>
	</g>
	<g>
		<g>
			<polygon class="st4" points="208.1,120 206,171.3 197.2,171.3 202.7,167.3 199.1,117.4 205.8,113.9 			"/>
			<polygon class="st4" points="198.9,120.1 197.2,144.5 194.5,171.3 186.5,171.3 191.1,167.1 191.3,144 190.1,119.9 195,114.9 			
				"/>
			<path class="st4" d="M206.8,77l-11.9,0.2c0,0-7.1,14.1-6.7,43.8l21.7-0.3C207.7,101.6,207.5,88.7,206.8,77z"/>
			<polygon class="st3" points="194.9,77.2 192.2,67 188.4,66.7 193.7,53.8 206.9,53.6 206.8,77 			"/>
			<polygon class="st2" points="194.6,78.7 198.1,78.6 195.9,82.3 197,107 193.3,111.8 190.4,107 194.3,82.3 			"/>
			<path class="st6" d="M196.6,63.7c0.8-0.1,1.6-0.7,1.9-2.2l-0.4-0.1c-0.2,1.4-1,1.9-1.7,1.8c-0.8-0.1-1.5-0.8-1.5-1.9h-0.4
				c-0.1,1.4,0.9,2.3,1.9,2.4C196.4,63.7,196.5,63.7,196.6,63.7z"/>
			<path class="st6" d="M195.7,73.1c2.1-0.2,4.6-1.4,5.7-3.6l-0.4-0.2c-1,2.2-3.6,3.3-5.7,3.4v0.4C195.4,73.1,195.6,73.1,195.7,73.1
				z"/>
			<g>
				<path class="st4" d="M207.7,52.1l-0.9,16.1h-1.9l-1.1-3.1c0.9-0.3,1.6-1.2,1.6-2.2c0-1.3-1.1-2.3-2.3-2.3
					c-0.3,0-0.5,0.1-0.8,0.2l-1-2.8c-3.1,0.8-9.5,0.1-9.8-4.6L207.7,52.1z"/>
			</g>
		</g>
		<path class="st3" d="M180.9,56.7c0-0.9,0.6-1.3,1.4-2.1c1.2-1.1,0.9-2.9-1.8-1c-0.2-1.8,0.1-3-1.3-3.6c-1.7-0.4-2.5,0.4-2.2,1.8
			c0.3,1.4,1.1,4,1.3,5.3c0.6,0.6,1.8,1.4,1.8,1.4L180.9,56.7z"/>
		<path class="st4" d="M201.8,80.3c-13.9-5.1-18.6-17.1-20.9-23.5l-2.6,0.4c3.6,12.3,12,24.1,19.3,28.5
			C202.8,88.9,206.3,81.6,201.8,80.3z"/>
	</g>
	<path class="st3" d="M208.1,99.4c-0.6-0.6-2.3-1.9-2.6-1.1c-0.2,0.4,1,1.3,0.8,1.3c-0.9,0.2-2.4-1.5-2.9,0
		c-0.3,0.9-0.1,2.3-0.1,2.3c0.2,1.4,3.2,0.6,4.7-0.2L208.1,99.4z"/>
	<g>
		<g>
			<g>
				<path class="st3" d="M90,128.2l-0.7-0.1c-1.1,0.5-1.7,0.8-2.2,1c-0.4,0.2-0.3,1,1.1,0.3c-0.9,0.6-2.3,0.7-2.1,1.5s1,2,2.5,0.9
					c1-0.8,1.8-1.5,2.1-2l0.3-1.1L90,128.2z"/>
				<path class="st7" d="M104.6,101.3c1.1,6.8-5.2,22.2-13.8,28.6l-1.5-1.7c4.7-4.3,11.4-13.2,9.5-25.2
					C98.5,99.2,104.3,98.5,104.6,101.3z"/>
			</g>
			<g>
				<polygon class="st3" points="105.2,98.3 106.5,89.6 109.5,89.1 104.1,79 93.5,80 95.6,98.5 				"/>
				<polygon class="st4" points="107.4,77.2 105,80.8 98.3,83.1 96.3,91.7 94.8,91.8 92.3,78.1 				"/>
				
					<ellipse transform="matrix(0.9959 -9.059063e-02 9.059063e-02 0.9959 -7.5081 9.1772)" class="st3" cx="97.3" cy="87.3" rx="1.9" ry="1.9"/>
				<path class="st6" d="M104,94.8c0.2,0,0.3,0,0.5,0v-0.4c-1.6,0.1-3.8-0.6-4.9-2.2l-0.3,0.2C100.3,94,102.4,94.8,104,94.8z"/>
				
					<rect x="101.9" y="84.4" transform="matrix(0.3214 -0.9469 0.9469 0.3214 -12.4121 155.1872)" class="st6" width="0.4" height="3.7"/>
			</g>
			<polygon class="st4" points="106.2,132 107.9,171.1 101.3,171.1 105,167.7 99,131.8 103,127.7 			"/>
			<polygon class="st4" points="99.5,132 96.5,171.1 90,171.1 93.7,167.7 92.3,131.8 96.3,127.7 			"/>
			<path class="st7" d="M105.2,98.1h-9.7c0,0-6,11.4-6,35.5h17.7C107.1,117.5,106.4,106.9,105.2,98.1z"/>
		</g>
		<polygon class="st5" points="93.7,167.7 90,171.1 96.5,171.1 96.8,167.7 		"/>
		<polygon class="st5" points="105,167.7 101.3,171.1 107.9,171.1 107.7,167.7 		"/>
	</g>
	<path class="st4" d="M107.6,120.3h-0.8c-1.3,0-2.3-1-2.3-2.3v-17.3c0-1.3,1-2.3,2.3-2.3h0.8c1.3,0,2.3,1,2.3,2.3V118
		C109.9,119.3,108.9,120.3,107.6,120.3z"/>
	<path class="st4" d="M100,98c-4.6,0-8.3,3.2-8.3,7.3c0,4,3.7,7.3,8.3,7.3c4.6,0,8.3-3.2,8.3-7.3C108.4,101.2,104.6,98,100,98z
		 M100,111c-3.6,0-6.6-2.6-6.6-5.7c0-3.2,3-5.7,6.6-5.7s6.6,2.6,6.6,5.7C106.6,108.4,103.7,111,100,111z"/>
	<g>
		<path class="st3" d="M83.3,79.6c-0.1-0.7,0.2-3.4-0.4-3.4c-0.4,0-0.4,0.2-0.5,1c-0.5-0.9-1.8-2.9-2.5-1.9
			c-0.8,1.1-0.9,1.6-0.9,1.6c-0.3,1,1.3,1.7,2.5,3.2L83.3,79.6z"/>
		<path class="st7" d="M99.1,100.4c-12-3.2-15.4-16.8-15.8-20.9l-1.8,0.6c-0.6,12.9,7.8,21.5,15,24.8
			C100.9,106.4,101.7,101.1,99.1,100.4z"/>
	</g>
</g>
</svg>
