<?xml version="1.0" encoding="utf-8"?>
<!-- Generator: Adobe Illustrator 21.1.0, SVG Export Plug-In . SVG Version: 6.00 Build 0)  -->
<!DOCTYPE svg PUBLIC "-//W3C//DTD SVG 1.1//EN" "http://www.w3.org/Graphics/SVG/1.1/DTD/svg11.dtd">
<svg version="1.1" id="Layer_1" xmlns="http://www.w3.org/2000/svg" xmlns:xlink="http://www.w3.org/1999/xlink" x="0px" y="0px"
	 viewBox="0 0 286 286" style="enable-background:new 0 0 286 286;" xml:space="preserve">
<style type="text/css">
	.st0{clip-path:url(#SVGID_2_);fill:#4298B5;}
	.st1{clip-path:url(#SVGID_2_);}
	.st2{fill:#DB5C1E;}
	.st3{fill:#002B44;}
	.st4{fill:#003F5C;}
	.st5{fill:#EB6479;}
	.st6{fill:#223129;}
	.st7{fill:#FFFFFF;}
	.st8{fill:#D55A6E;}
	.st9{fill:#D8E2E7;}
	.st10{fill:#939598;}
	.st11{fill:#727D84;}
	.st12{fill:#4298B5;}
	.st13{fill:#E4D5B4;}
	.st14{fill:#CEBFA3;}
	.st15{fill:#EDE0C6;}
	.st16{fill:#3D302D;}
	.st17{fill:#D6C6A6;}
	.st18{fill:#C6B597;}
	.st19{fill:#826754;}
	.st20{fill:#91CEC4;}
	.st21{fill:#D3A98C;}
	.st22{fill:#AD886F;}
	.st23{fill:#896D59;}
	.st24{fill:#EA7442;}
	.st25{fill:#D15F36;}
	.st26{fill:#003E5A;}
	.st27{fill:#243129;}
	.st28{fill:#4077A2;}
	.st29{fill:#0F3644;}
	.st30{fill:#6C707A;}
	.st31{fill:url(#SVGID_3_);}
	.st32{fill:#8AACBD;}
	.st33{fill:#E6EBEE;}
	.st34{fill:#C3D4DD;}
	.st35{fill:#F37029;}
	.st36{fill:#004B6B;}
	.st37{fill:#282829;}
	.st38{fill:#BACAD3;}
	.st39{fill:#9EB3BE;}
	.st40{fill:#27688F;}
	.st41{fill:#005376;}
	.st42{fill:#2B75A2;}
	.st43{fill:#AFC6D2;}
	.st44{fill:url(#SVGID_4_);}
	.st45{fill:#E9E8D8;}
	.st46{fill:#818277;}
	.st47{fill:#63665D;}
	.st48{fill:#B4B39A;}
	.st49{fill:url(#SVGID_5_);}
	.st50{fill:url(#SVGID_6_);}
	.st51{fill:url(#SVGID_7_);}
	.st52{fill:url(#SVGID_8_);}
	.st53{fill:url(#SVGID_9_);}
	.st54{fill:url(#SVGID_10_);}
	.st55{fill:#FFC20E;}
	.st56{fill:#916600;}
	.st57{fill:#A7BDC9;}
	.st58{fill:#8E2833;}
	.st59{fill:#721B25;}
	.st60{fill:#00547A;}
	.st61{fill:#F1F2F2;}
	.st62{fill:#6F6598;}
	.st63{fill:#4B436A;}
	.st64{fill:#F27129;}
	.st65{fill:#A57406;}
	.st66{fill:url(#SVGID_11_);}
	.st67{fill:url(#SVGID_12_);}
	.st68{fill:url(#SVGID_13_);}
	.st69{fill:url(#SVGID_14_);}
	.st70{fill:url(#SVGID_15_);}
	.st71{fill:url(#SVGID_16_);}
	.st72{fill:url(#SVGID_17_);}
	.st73{fill:url(#SVGID_18_);}
	.st74{fill:url(#SVGID_19_);}
	.st75{fill:url(#SVGID_20_);}
	.st76{fill:url(#SVGID_21_);}
	.st77{fill:url(#SVGID_22_);}
	.st78{fill:url(#SVGID_23_);}
	.st79{fill:url(#SVGID_24_);}
	.st80{fill:url(#SVGID_25_);}
	.st81{fill:url(#SVGID_26_);}
	.st82{fill:url(#SVGID_27_);}
	.st83{fill:url(#SVGID_28_);}
	.st84{fill:url(#SVGID_29_);}
	.st85{fill:url(#SVGID_30_);}
	.st86{fill:url(#SVGID_31_);}
	.st87{fill:url(#SVGID_32_);}
	.st88{fill:url(#SVGID_33_);}
	.st89{fill:url(#SVGID_34_);}
	.st90{fill:url(#SVGID_35_);}
	.st91{fill:url(#SVGID_36_);}
	.st92{fill:url(#SVGID_37_);}
	.st93{fill:url(#SVGID_38_);}
	.st94{fill:url(#SVGID_39_);}
	.st95{fill:url(#SVGID_40_);}
	.st96{fill:url(#SVGID_41_);}
	.st97{fill:url(#SVGID_42_);}
	.st98{fill:url(#SVGID_43_);}
	.st99{fill:url(#SVGID_44_);}
	.st100{fill:url(#SVGID_45_);}
	.st101{fill:url(#SVGID_46_);}
	.st102{fill:#F9F1D7;}
	.st103{fill:#6E7980;stroke:#58595B;stroke-width:0.4225;stroke-linecap:round;stroke-linejoin:round;}
	.st104{fill:#DF9CB0;}
	.st105{fill:#C37A8C;}
	.st106{fill:#C29F60;}
	.st107{fill:#FFFFFF;stroke:#D0ECF4;stroke-width:0.4225;}
	.st108{fill:url(#SVGID_47_);}
	.st109{fill:url(#SVGID_48_);}
	.st110{fill:url(#SVGID_49_);stroke:#FFFFFF;stroke-width:2.1123;}
	.st111{fill:#9F2214;}
	.st112{fill:url(#SVGID_50_);stroke:#FFFFFF;stroke-width:2.1123;}
	.st113{fill:#4A7195;}
	.st114{fill:#C13D2E;}
	.st115{fill:#7989A3;stroke:#FFFFFF;stroke-width:2.1123;}
	.st116{fill:#FFCF01;}
	.st117{fill:url(#SVGID_51_);stroke:#FFFFFF;stroke-width:2.1123;}
	.st118{fill:url(#SVGID_52_);stroke:#FFFFFF;stroke-width:2.1123;}
	.st119{fill:url(#SVGID_53_);stroke:#FFFFFF;stroke-width:2.1123;}
	.st120{fill:#876041;}
	.st121{fill:#DAC895;stroke:#F7E8BA;stroke-width:0.4225;}
	.st122{fill:#4B545B;}
	.st123{fill:#3E6D93;}
	.st124{fill:#476F93;}
	.st125{fill:#CAB47E;}
	.st126{fill:#F7E8BA;}
	.st127{fill:#C2A171;}
	.st128{fill:#D0ECF4;}
	.st129{fill:#EFE4AC;}
	.st130{fill:#5980A2;}
	.st131{fill:#17738F;}
	.st132{fill:#B1D45E;}
	.st133{fill:#8CC540;stroke:#221F1F;stroke-width:0.2168;stroke-linejoin:round;stroke-miterlimit:10;}
	.st134{fill:#58595B;}
	.st135{fill:#797A7D;}
	.st136{fill:#BF86A8;}
	.st137{fill:#302B2C;}
	.st138{fill:#48484A;}
	.st139{fill:#72A087;}
	.st140{fill:#94B0BE;}
	.st141{fill:#09723B;}
	.st142{fill:#00A14B;}
	.st143{fill:#004766;}
	.st144{fill:#00354F;}
	.st145{fill:#005B80;}
	.st146{fill:#002F3E;}
	.st147{fill:#3F4450;}
	.st148{fill:#2A6A7F;}
	.st149{fill:url(#SVGID_54_);}
	.st150{fill:#2C3038;}
	.st151{fill:#CACFD1;}
	.st152{fill:#343943;}
	.st153{fill:#27667A;}
	.st154{fill:none;stroke:#243129;stroke-width:0.3823;stroke-miterlimit:10;}
	.st155{fill:#333333;}
	.st156{fill:#E5E8DD;}
	.st157{fill:#767877;}
	.st158{fill:#545554;}
	.st159{fill:#F8E1C7;}
	.st160{fill:#5A5048;}
	.st161{fill:#604373;}
	.st162{fill:none;}
	.st163{fill:#9DB9C8;}
	.st164{fill:#235F83;}
	.st165{fill:#CF473A;}
	.st166{fill:#B4A680;}
	.st167{fill:url(#SVGID_55_);}
	.st168{fill:url(#SVGID_56_);}
	.st169{fill:url(#SVGID_57_);}
	.st170{fill:url(#SVGID_58_);}
	.st171{fill:url(#SVGID_59_);}
	.st172{fill:url(#SVGID_60_);}
	.st173{fill:url(#SVGID_61_);}
	.st174{fill:url(#SVGID_62_);}
	.st175{fill:url(#SVGID_63_);}
	.st176{fill:url(#SVGID_64_);}
	.st177{fill:url(#SVGID_65_);}
	.st178{fill:url(#SVGID_66_);}
	.st179{fill:url(#SVGID_67_);}
	.st180{fill:url(#SVGID_68_);}
	.st181{fill:url(#SVGID_69_);}
	.st182{fill:url(#SVGID_70_);}
	.st183{fill:url(#SVGID_71_);}
	.st184{fill:url(#SVGID_72_);}
	.st185{fill:url(#SVGID_73_);}
	.st186{fill:url(#SVGID_74_);}
	.st187{fill:url(#SVGID_75_);}
	.st188{fill:url(#SVGID_76_);}
	.st189{fill:url(#SVGID_77_);}
	.st190{fill:url(#SVGID_78_);}
	.st191{fill:url(#SVGID_79_);}
	.st192{fill:url(#SVGID_80_);}
	.st193{fill:url(#SVGID_81_);}
	.st194{fill:url(#SVGID_82_);}
	.st195{fill:url(#SVGID_83_);}
	.st196{fill:url(#SVGID_84_);}
	.st197{fill:url(#SVGID_85_);}
	.st198{fill:url(#SVGID_86_);}
	.st199{fill:url(#SVGID_87_);}
	.st200{fill:url(#SVGID_88_);}
	.st201{fill:url(#SVGID_89_);}
	.st202{fill:url(#SVGID_90_);}
	.st203{fill:url(#SVGID_91_);}
	.st204{fill:url(#SVGID_92_);}
	.st205{fill:url(#SVGID_93_);}
	.st206{fill:url(#SVGID_94_);}
	.st207{fill:url(#SVGID_95_);}
	.st208{fill:url(#SVGID_96_);}
	.st209{fill:url(#SVGID_97_);}
	.st210{fill:url(#SVGID_98_);}
	.st211{fill:url(#SVGID_99_);}
	.st212{fill:url(#SVGID_100_);}
	.st213{fill:url(#SVGID_101_);}
	.st214{fill:url(#SVGID_102_);}
	.st215{fill:url(#SVGID_103_);}
	.st216{fill:url(#SVGID_104_);}
	.st217{fill:url(#SVGID_105_);}
	.st218{fill:url(#SVGID_106_);}
	.st219{fill:url(#SVGID_107_);}
	.st220{fill:url(#SVGID_108_);}
	.st221{fill:url(#SVGID_109_);}
	.st222{fill:url(#SVGID_110_);}
	.st223{fill:url(#SVGID_111_);}
	.st224{fill:url(#SVGID_112_);}
	.st225{fill:url(#SVGID_113_);}
	.st226{fill:url(#SVGID_114_);}
	.st227{fill:url(#SVGID_115_);}
	.st228{fill:url(#SVGID_116_);}
	.st229{fill:url(#SVGID_117_);}
	.st230{fill:url(#SVGID_118_);}
	.st231{fill:url(#SVGID_119_);}
	.st232{fill:url(#SVGID_120_);}
	.st233{fill:url(#SVGID_121_);}
	.st234{fill:url(#SVGID_122_);}
	.st235{fill:#F7D9A8;}
	.st236{fill:#EE93B9;}
</style>
<circle class="st12" cx="143" cy="143" r="143"/>
<g>
	<g>
		<g>
			<path class="st13" d="M75.7,113.3h-4.9v-10.2c0-2.3,1.8-4.1,4.1-4.1h0.8V113.3z"/>
			<rect x="70.8" y="110.1" class="st14" width="4.9" height="3.2"/>
			<rect x="64.7" y="116.4" class="st13" width="5.5" height="34.6"/>
			<polygon class="st15" points="70.2,116.3 64.7,116.3 70.8,113.3 75.7,113.3 			"/>
			<polygon class="st14" points="70.2,116.4 70.2,151 75.7,140.2 75.7,113.3 			"/>
			<polygon class="st16" points="67.9,160.9 67,160.9 65.7,151 69.1,151 			"/>
		</g>
		<g>
			<path class="st13" d="M210.3,113.3h4.9v-10.2c0-2.3-1.8-4.1-4.1-4.1h-0.8V113.3z"/>
			
				<rect x="215.8" y="116.4" transform="matrix(-1 -1.224647e-16 1.224647e-16 -1 437.0737 267.4215)" class="st13" width="5.5" height="34.6"/>
			<polygon class="st15" points="215.8,116.3 221.3,116.3 215.2,113.3 210.3,113.3 			"/>
			<polygon class="st14" points="215.8,116.4 215.8,151 210.3,140.2 210.3,113.3 			"/>
			<polygon class="st16" points="218.1,160.9 219,160.9 220.3,151 216.9,151 			"/>
			<rect x="210.3" y="110.1" class="st14" width="4.9" height="3.2"/>
		</g>
		<path class="st13" d="M209.4,122.5H76.6c-0.5,0-0.9-0.4-0.9-0.9v-20.9c0-3.3,2.7-5.9,5.9-5.9h122.7c3.3,0,5.9,2.7,5.9,5.9v20.9
			C210.3,122.1,209.9,122.5,209.4,122.5z"/>
		<path class="st13" d="M214.9,151H71.1c-0.5,0-0.9-0.4-0.9-0.9v-9.7c0-0.5,0.4-0.9,0.9-0.9h143.9c0.5,0,0.9,0.4,0.9,0.9v9.7
			C215.8,150.6,215.4,151,214.9,151z"/>
		<g>
			<path class="st15" d="M215.1,128c0,0-4.8-5.5-4.8-5.5c0,0,0,0,0,0H75.7c0,0,0,0,0,0c0,0-4.9,5.6-4.9,5.6c0,0-0.3,0.2-0.3,0.5V139
				c0,0.3,0.3,0.6,0.6,0.6l143.8,0c0.3,0,0.6-0.3,0.6-0.6v-10.3C215.5,128.3,215.1,128,215.1,128z"/>
			<path class="st13" d="M214.9,139.5l-143.8,0c-0.3,0-0.6-0.3-0.6-0.6v-10.3c0-0.3,0.3-0.6,0.6-0.6l143.8,0c0.3,0,0.6,0.3,0.6,0.6
				v10.3C215.5,139.2,215.2,139.5,214.9,139.5z"/>
			<path class="st14" d="M70.5,136.9v2.1c0,0.3,0.3,0.6,0.6,0.6l143.8,0c0.3,0,0.6-0.3,0.6-0.6v-2.1L70.5,136.9z"/>
		</g>
		<path class="st17" d="M143,117.6c-26.7,0-50.7-2.4-67.3-6.1v10.4c0,0.3,0.3,0.6,0.6,0.6h133.5c0.3,0,0.6-0.3,0.6-0.6v-10.4
			C193.7,115.2,169.7,117.6,143,117.6z"/>
		<g>
			<g>
				<g>
					<path class="st18" d="M84.6,98c0,2.8,1.2,4,4,4c-2.8,0-4,1.2-4,4c0-2.8-1.2-4-4-4C83.4,102.1,84.6,100.8,84.6,98z"/>
					<circle class="st15" cx="84.6" cy="102.1" r="0.8"/>
				</g>
				<g>
					<path class="st18" d="M96.4,98c0,2.8,1.2,4,4,4c-2.8,0-4,1.2-4,4c0-2.8-1.2-4-4-4C95.2,102.1,96.4,100.8,96.4,98z"/>
					<circle class="st15" cx="96.4" cy="102.1" r="0.8"/>
				</g>
				<g>
					<path class="st18" d="M108.3,98c0,2.8,1.2,4,4,4c-2.8,0-4,1.2-4,4c0-2.8-1.2-4-4-4C107,102.1,108.3,100.8,108.3,98z"/>
					<circle class="st15" cx="108.3" cy="102.1" r="0.8"/>
				</g>
				<g>
					<path class="st18" d="M120.1,98c0,2.8,1.2,4,4,4c-2.8,0-4,1.2-4,4c0-2.8-1.2-4-4-4C118.9,102.1,120.1,100.8,120.1,98z"/>
					<circle class="st15" cx="120.1" cy="102.1" r="0.8"/>
				</g>
				<g>
					<path class="st18" d="M132,98c0,2.8,1.2,4,4,4c-2.8,0-4,1.2-4,4c0-2.8-1.2-4-4-4C130.7,102.1,132,100.8,132,98z"/>
					<circle class="st15" cx="132" cy="102.1" r="0.8"/>
				</g>
				<g>
					<path class="st18" d="M143.8,98c0,2.8,1.2,4,4,4c-2.8,0-4,1.2-4,4c0-2.8-1.2-4-4-4C142.6,102.1,143.8,100.8,143.8,98z"/>
					<circle class="st15" cx="143.8" cy="102.1" r="0.8"/>
				</g>
				<g>
					<path class="st18" d="M155.6,98c0,2.8,1.2,4,4,4c-2.8,0-4,1.2-4,4c0-2.8-1.2-4-4-4C154.4,102.1,155.6,100.8,155.6,98z"/>
					<circle class="st15" cx="155.6" cy="102.1" r="0.8"/>
				</g>
				<g>
					<path class="st18" d="M167.5,98c0,2.8,1.2,4,4,4c-2.8,0-4,1.2-4,4c0-2.8-1.2-4-4-4C166.2,102.1,167.5,100.8,167.5,98z"/>
					<circle class="st15" cx="167.5" cy="102.1" r="0.8"/>
				</g>
				<g>
					<path class="st18" d="M179.3,98c0,2.8,1.2,4,4,4c-2.8,0-4,1.2-4,4c0-2.8-1.2-4-4-4C178.1,102.1,179.3,100.8,179.3,98z"/>
					<circle class="st15" cx="179.3" cy="102.1" r="0.8"/>
				</g>
				<g>
					<path class="st18" d="M191.2,98c0,2.8,1.2,4,4,4c-2.8,0-4,1.2-4,4c0-2.8-1.2-4-4-4C189.9,102.1,191.2,100.8,191.2,98z"/>
					<circle class="st15" cx="191.2" cy="102.1" r="0.8"/>
				</g>
				<g>
					<path class="st18" d="M203,98c0,2.8,1.2,4,4,4c-2.8,0-4,1.2-4,4c0-2.8-1.2-4-4-4C201.7,102.1,203,100.8,203,98z"/>
					<circle class="st15" cx="203" cy="102.1" r="0.8"/>
				</g>
			</g>
			<g>
				<g>
					<path class="st18" d="M90.5,104.6c0,2.8,1.2,4,4,4c-2.8,0-4,1.2-4,4c0-2.8-1.2-4-4-4C89.3,108.7,90.5,107.4,90.5,104.6z"/>
					<circle class="st15" cx="90.5" cy="108.7" r="0.8"/>
				</g>
				<g>
					<path class="st18" d="M102.4,104.6c0,2.8,1.2,4,4,4c-2.8,0-4,1.2-4,4c0-2.8-1.2-4-4-4C101.1,108.7,102.4,107.4,102.4,104.6z"/>
					<circle class="st15" cx="102.4" cy="108.7" r="0.8"/>
				</g>
				<g>
					<path class="st18" d="M114.2,104.6c0,2.8,1.2,4,4,4c-2.8,0-4,1.2-4,4c0-2.8-1.2-4-4-4C113,108.7,114.2,107.4,114.2,104.6z"/>
					<circle class="st15" cx="114.2" cy="108.7" r="0.8"/>
				</g>
				<g>
					<path class="st18" d="M126,104.6c0,2.8,1.2,4,4,4c-2.8,0-4,1.2-4,4c0-2.8-1.2-4-4-4C124.8,108.7,126,107.4,126,104.6z"/>
					<circle class="st15" cx="126" cy="108.7" r="0.8"/>
				</g>
				<g>
					<path class="st18" d="M137.9,104.6c0,2.8,1.2,4,4,4c-2.8,0-4,1.2-4,4c0-2.8-1.2-4-4-4C136.6,108.7,137.9,107.4,137.9,104.6z"/>
					<circle class="st15" cx="137.9" cy="108.7" r="0.8"/>
				</g>
				<g>
					<path class="st18" d="M149.7,104.6c0,2.8,1.2,4,4,4c-2.8,0-4,1.2-4,4c0-2.8-1.2-4-4-4C148.5,108.7,149.7,107.4,149.7,104.6z"/>
					<circle class="st15" cx="149.7" cy="108.7" r="0.8"/>
				</g>
				<g>
					<path class="st18" d="M161.6,104.6c0,2.8,1.2,4,4,4c-2.8,0-4,1.2-4,4c0-2.8-1.2-4-4-4C160.3,108.7,161.6,107.4,161.6,104.6z"/>
					<circle class="st15" cx="161.6" cy="108.7" r="0.8"/>
				</g>
				<g>
					<path class="st18" d="M173.4,104.6c0,2.8,1.2,4,4,4c-2.8,0-4,1.2-4,4c0-2.8-1.2-4-4-4C172.2,108.7,173.4,107.4,173.4,104.6z"/>
					<circle class="st15" cx="173.4" cy="108.7" r="0.8"/>
				</g>
				<g>
					<path class="st18" d="M185.2,104.6c0,2.8,1.2,4,4,4c-2.8,0-4,1.2-4,4c0-2.8-1.2-4-4-4C184,108.7,185.2,107.4,185.2,104.6z"/>
					<circle class="st15" cx="185.2" cy="108.7" r="0.8"/>
				</g>
				<g>
					<path class="st18" d="M197.1,104.6c0,2.8,1.2,4,4,4c-2.8,0-4,1.2-4,4c0-2.8-1.2-4-4-4C195.8,108.7,197.1,107.4,197.1,104.6z"/>
					<circle class="st15" cx="197.1" cy="108.7" r="0.8"/>
				</g>
			</g>
			<g>
				<g>
					<path class="st18" d="M84.6,112.5c0,2.8,1.2,4,4,4c-2.8,0-4,1.2-4,4c0-2.8-1.2-4-4-4C83.4,116.6,84.6,115.3,84.6,112.5z"/>
					<circle class="st15" cx="84.6" cy="116.6" r="0.8"/>
				</g>
				<g>
					<path class="st18" d="M96.4,112.5c0,2.8,1.2,4,4,4c-2.8,0-4,1.2-4,4c0-2.8-1.2-4-4-4C95.2,116.6,96.4,115.3,96.4,112.5z"/>
					<circle class="st15" cx="96.4" cy="116.6" r="0.8"/>
				</g>
				<g>
					<path class="st18" d="M108.3,112.5c0,2.8,1.2,4,4,4c-2.8,0-4,1.2-4,4c0-2.8-1.2-4-4-4C107,116.6,108.3,115.3,108.3,112.5z"/>
					<circle class="st15" cx="108.3" cy="116.6" r="0.8"/>
				</g>
				<g>
					<path class="st18" d="M120.1,112.5c0,2.8,1.2,4,4,4c-2.8,0-4,1.2-4,4c0-2.8-1.2-4-4-4C118.9,116.6,120.1,115.3,120.1,112.5z"/>
					<circle class="st15" cx="120.1" cy="116.6" r="0.8"/>
				</g>
				<g>
					<path class="st18" d="M132,112.5c0,2.8,1.2,4,4,4c-2.8,0-4,1.2-4,4c0-2.8-1.2-4-4-4C130.7,116.6,132,115.3,132,112.5z"/>
					<circle class="st15" cx="132" cy="116.6" r="0.8"/>
				</g>
				<g>
					<path class="st18" d="M143.8,112.5c0,2.8,1.2,4,4,4c-2.8,0-4,1.2-4,4c0-2.8-1.2-4-4-4C142.6,116.6,143.8,115.3,143.8,112.5z"/>
					<circle class="st15" cx="143.8" cy="116.6" r="0.8"/>
				</g>
				<g>
					<path class="st18" d="M155.6,112.5c0,2.8,1.2,4,4,4c-2.8,0-4,1.2-4,4c0-2.8-1.2-4-4-4C154.4,116.6,155.6,115.3,155.6,112.5z"/>
					<circle class="st15" cx="155.6" cy="116.6" r="0.8"/>
				</g>
				<g>
					<path class="st18" d="M167.5,112.5c0,2.8,1.2,4,4,4c-2.8,0-4,1.2-4,4c0-2.8-1.2-4-4-4C166.2,116.6,167.5,115.3,167.5,112.5z"/>
					<circle class="st15" cx="167.5" cy="116.6" r="0.8"/>
				</g>
				<g>
					<path class="st18" d="M179.3,112.5c0,2.8,1.2,4,4,4c-2.8,0-4,1.2-4,4c0-2.8-1.2-4-4-4C178.1,116.6,179.3,115.3,179.3,112.5z"/>
					<circle class="st15" cx="179.3" cy="116.6" r="0.8"/>
				</g>
				<g>
					<path class="st18" d="M191.2,112.5c0,2.8,1.2,4,4,4c-2.8,0-4,1.2-4,4c0-2.8-1.2-4-4-4C189.9,116.6,191.2,115.3,191.2,112.5z"/>
					<circle class="st15" cx="191.2" cy="116.6" r="0.8"/>
				</g>
				<g>
					<path class="st18" d="M203,112.5c0,2.8,1.2,4,4,4c-2.8,0-4,1.2-4,4c0-2.8-1.2-4-4-4C201.7,116.6,203,115.3,203,112.5z"/>
					<circle class="st15" cx="203" cy="116.6" r="0.8"/>
				</g>
			</g>
		</g>
	</g>
	<g>
		<g>
			<path class="st19" d="M211.2,125.7L211.2,125.7c0.2,0,0.3-0.1,0.5-0.1c0,0,0,0,0,0c1-0.6,1-1.8,0.9-3.4c-0.1-1.7-0.2-4.3,0.8-8
				c1.1-4.4,3-7.4,4.2-9.2c0.9-1.3,1.3-2,1-2.7c-0.4-1-1.8-0.9-3.4-0.9c-0.7,0-1.6,0.1-2.4,0c-2.2-0.2-6.1-1.1-10.9-2.7
				c-4.1-1.4-8.2-2.9-10-3.9c-0.9-0.5-1.8-1.2-2.5-1.8c-1.1-0.9-1.9-1.5-2.6-1.4c-0.2,0-0.3,0.1-0.5,0.2c-0.6,0.4-0.7,1.2-0.8,2.7
				c-0.1,2.1-0.3,5.7-2,9.9c-1.4,3.6-3,5.6-4.1,7c-1,1.3-1.7,2.2-1.2,3.3c0,0,0,0,0,0c0.5,1,2.2,1.2,4.8,1.5
				c0.6,0.1,1.1,0.1,1.7,0.2c3.5,0.5,17.4,5.1,20.6,6.7c0.7,0.4,1.4,0.7,2.1,1.1C209.1,125.2,210.3,125.8,211.2,125.7L211.2,125.7z"
				/>
			<path class="st20" d="M184.3,104.8c2.7-6.7,1.7-11.8,2.4-12.2c0.7-0.4,2.6,1.9,4.8,3.1c3.6,1.9,16.2,6.3,21.2,6.6
				c2.3,0.2,4.8-0.4,5.1,0.4c0.3,0.8-3.5,4.3-5.2,11.3c-1.8,7,0.1,10.1-1.3,10.9c-0.8,0.4-3.1-1.2-5.6-2.4
				c-3.1-1.5-17.2-6.2-20.8-6.7c-2.8-0.4-5.6-0.5-6-1.3C178.3,112.9,181.6,111.5,184.3,104.8z"/>
			<g>
				<g>
					<path class="st21" d="M184.3,104.8c2.7-6.7,1.7-11.8,2.4-12.2c0.7-0.4,2.6,1.9,4.8,3.1c3.6,1.9,16.2,6.3,21.2,6.6
						c2.3,0.2,4.8-0.4,5.1,0.4c0.3,0.8-3.5,4.3-5.2,11.3c-1.8,7,0.1,10.1-1.3,10.9c-0.8,0.4-3.1-1.2-5.6-2.4
						c-3.1-1.5-17.2-6.2-20.8-6.7c-2.8-0.4-5.6-0.5-6-1.3C178.3,112.9,181.6,111.5,184.3,104.8z"/>
					<path class="st22" d="M178.9,114.4c0.4,0.8,3.1,0.9,6,1.3c3.7,0.5,17.7,5.2,20.8,6.7c2.6,1.3,4.8,2.8,5.6,2.4
						c1.4-0.8-0.4-3.9,1.3-10.9c1.8-7,5.6-10.5,5.2-11.3c-0.3-0.8-2.8-0.2-5.1-0.4c-5-0.4-17.5-4.7-21.2-6.6
						c-2.2-1.2-4.1-3.5-4.8-3.1c-0.7,0.4,0.3,5.5-2.4,12.2C181.6,111.5,178.3,112.9,178.9,114.4z M182.5,111.4
						c0.8-1.6,2.1-3.4,2.9-5c0.9-1.6,1.6-3.7,1.7-5.5c0.1-2.6,0-6.2,2.1-5.4c1.5,0.6,3.7,1.9,5.1,2.7c1.6,0.9,4.6,2,6.6,2.6l0,0
						c0.1,0,0.3,0.1,0.4,0.1c0.1,0,0.3,0.1,0.4,0.1l0,0c2,0.7,5.1,1.6,6.9,1.8c1.6,0.2,4.1,0.4,5.7,0.8c2.2,0.6-0.1,3.2-1.5,5.6
						c-0.9,1.6-1.6,4.1-1.8,5.9c-0.2,1.8-0.3,3.5-0.6,5.3c-0.6,4-4.3,0.4-6.7-0.7c-1.9-0.9-12.6-4.5-14.7-4.8
						C186.5,114.4,180.7,114.7,182.5,111.4z"/>
				</g>
			</g>
		</g>
		<g>
			<path class="st20" d="M181,114.9c-0.4-6.2-3-9.8-2.6-10.4c0.4-0.6,2.7,0.5,4.9,0.6c3.5,0.2,14.9-1,18.9-2.6
				c1.9-0.7,3.6-2.1,4.1-1.6c0.6,0.5-1.1,4.6,0.1,10.7c1.2,6.1,3.8,7.8,3,9c-0.5,0.6-2.8,0.2-5.2,0.2c-3,0-15.6,1.4-18.7,2.4
				c-2.3,0.7-4.5,1.6-5.1,1.1C179.3,123.4,181.3,121.1,181,114.9z"/>
			<g>
				<path class="st23" d="M179.8,126c0.8-0.1,1.9-0.5,3.1-0.9c0.5-0.2,1-0.3,1.5-0.5c1.3-0.4,4.6-1,8.9-1.5c4.5-0.6,8.9-1,10.5-1
					c0.7,0,1.4,0.1,2.1,0.1c1.1,0.1,2,0.1,2.7,0c0.4-0.1,1-0.2,1.4-0.6c0,0,0,0,0,0c0.7-1,0.1-2-0.5-3.3c-0.7-1.4-1.8-3.5-2.5-6.8
					c-0.8-4-0.4-7.2-0.1-9.1c0.2-1.5,0.3-2.2-0.3-2.7c-0.2-0.2-0.6-0.4-1.1-0.3c-0.6,0.1-1.3,0.4-2.2,0.9c-0.6,0.3-1.3,0.7-1.9,0.9
					c-1.8,0.7-5.3,1.4-9.7,2c-3.9,0.5-8,0.8-9.9,0.7c-0.9,0-1.9-0.3-2.7-0.5c-0.9-0.2-1.6-0.4-2.2-0.3c-0.5,0.1-0.8,0.3-1,0.6
					c-0.4,0.6-0.1,1.3,0.4,2.7c0.7,1.8,1.9,4.7,2.2,8.8c0.2,3.4-0.3,5.7-0.7,7.2c-0.3,1.4-0.6,2.6,0.3,3.3c0,0,0,0,0,0
					C178.7,126.1,179.4,126.1,179.8,126L179.8,126z"/>
				<g>
					<path class="st21" d="M179.5,115.1c-0.4-6.5-3.2-10.3-2.8-10.9c0.4-0.6,2.9,0.5,5.1,0.6c3.7,0.2,15.7-1.1,19.9-2.7
						c2-0.8,3.8-2.2,4.4-1.7c0.6,0.5-1.2,4.9,0.1,11.3c1.3,6.4,4,8.3,3.1,9.5c-0.5,0.6-2.9,0.2-5.5,0.2c-3.2,0-16.5,1.5-19.7,2.5
						c-2.5,0.8-4.8,1.7-5.4,1.2C177.7,124.1,179.8,121.6,179.5,115.1z"/>
					<path class="st22" d="M178.8,125.1c0.6,0.5,2.9-0.4,5.4-1.2c3.2-1,16.5-2.6,19.7-2.5c2.6,0,5,0.5,5.5-0.2
						c0.8-1.2-1.9-3.1-3.1-9.5c-1.3-6.4,0.5-10.8-0.1-11.3c-0.6-0.5-2.4,0.9-4.4,1.7c-4.2,1.6-16.2,2.9-19.9,2.7
						c-2.3-0.1-4.7-1.3-5.1-0.6c-0.4,0.6,2.4,4.4,2.8,10.9C179.8,121.6,177.7,124.1,178.8,125.1z M180.5,121.2
						c0.1-1.6,0.4-3.6,0.5-5.2c0.1-1.6-0.1-3.7-0.7-5.2c-0.9-2.2-2.4-5.1-0.4-5.2c1.5-0.1,3.8,0.2,5.2,0.3c1.6,0.1,4.5-0.2,6.4-0.5
						l0,0c0.1,0,0.2,0,0.4,0c0.1,0,0.3,0,0.4-0.1l0,0c1.9-0.2,4.8-0.7,6.3-1.2c1.4-0.4,3.5-1.3,5-1.6c2-0.4,1.2,2.7,1,5.1
						c-0.2,1.6,0.3,4,0.8,5.5c0.5,1.5,1.1,3,1.5,4.6c1,3.5-3.4,2-5.7,2c-1.9,0-12,1.2-13.9,1.7C185,122.2,180.4,124.7,180.5,121.2z"
						/>
				</g>
				<g>
					<path class="st24" d="M189.8,104.3c0.3,2.9,0.8,7.9,1.4,12.7c0.2,1.9,0.5,3.8,0.8,5.4c0.2,0,0.4,0,0.6-0.1
						c-0.3-1.7-0.6-3.5-0.8-5.4c-0.6-4.8-1.1-9.8-1.4-12.7C190.1,104.3,189.9,104.3,189.8,104.3z M186.6,111.2
						c0.5,3.9,0.9,8.3,1.2,11.9c0.2,0,0.4-0.1,0.6-0.1c-0.2-3.6-0.7-8-1.2-11.9c-0.3-2.6-0.7-4.9-1-6.5c-0.2,0-0.4,0-0.6,0
						c0.1,0.3,0.1,0.7,0.2,1C186.1,107.2,186.4,109.1,186.6,111.2z M183.7,124c0.2-0.1,0.4-0.1,0.5-0.2c0,0,0,0,0,0
						c0.2-3-0.1-6.7-0.5-10.2c-0.5-3.5-1.1-6.8-1.7-8.8c-0.1,0-0.1,0-0.1,0c-0.1,0-0.3,0-0.4,0c0.2,0.6,0.4,1.4,0.6,2.3
						c0.4,1.9,0.8,4.2,1.1,6.7C183.6,117.2,183.8,121,183.7,124z M197.8,105.1c0,2.2,0.1,4.9,0.5,7.8c0.4,2.9,1,5.9,2,8.6
						c0.2,0,0.4,0,0.6,0c-1-2.6-1.7-5.7-2-8.6c-0.5-4-0.5-7.7-0.4-9.9c-0.2,0-0.4,0.1-0.6,0.1C197.9,103.7,197.8,104.4,197.8,105.1z
						 M193.8,103.8c0.1,2.4,0.3,6.3,0.8,10.4c0.3,2.7,0.8,5.4,1.5,7.8c0.2,0,0.4,0,0.6-0.1c-0.7-2.4-1.2-5.1-1.5-7.8
						c-0.5-4.1-0.7-8-0.8-10.4C194.2,103.7,194,103.8,193.8,103.8z M201.8,104.4c-0.1,2.1-0.1,4.8,0.2,7.7c0.4,3.1,1.2,6.4,2.7,9.3
						c0.2,0,0.4,0,0.6,0c-1.5-2.9-2.4-6.2-2.8-9.4c-0.3-2.5-0.4-4.8-0.3-6.8c0.1-1.5,0.2-2.7,0.4-3.6c-0.2,0.1-0.4,0.2-0.6,0.3
						C201.9,102.6,201.8,103.4,201.8,104.4z"/>
					<path class="st24" d="M189.8,104.3c0.3,2.9,0.8,7.9,1.4,12.7c0.2,1.9,0.5,3.8,0.8,5.4c0.2,0,0.4,0,0.6-0.1
						c-0.3-1.7-0.6-3.5-0.8-5.4c-0.6-4.8-1.1-9.8-1.4-12.7C190.1,104.3,189.9,104.3,189.8,104.3z M186.6,111.2
						c0.5,3.9,0.9,8.3,1.2,11.9c0.2,0,0.4-0.1,0.6-0.1c-0.2-3.6-0.7-8-1.2-11.9c-0.3-2.6-0.7-4.9-1-6.5c-0.2,0-0.4,0-0.6,0
						c0.1,0.3,0.1,0.7,0.2,1C186.1,107.2,186.4,109.1,186.6,111.2z M183.7,124c0.2-0.1,0.4-0.1,0.5-0.2c0,0,0,0,0,0
						c0.2-3-0.1-6.7-0.5-10.2c-0.5-3.5-1.1-6.8-1.7-8.8c-0.1,0-0.1,0-0.1,0c-0.1,0-0.3,0-0.4,0c0.2,0.6,0.4,1.4,0.6,2.3
						c0.4,1.9,0.8,4.2,1.1,6.7C183.6,117.2,183.8,121,183.7,124z M197.8,105.1c0,2.2,0.1,4.9,0.5,7.8c0.4,2.9,1,5.9,2,8.6
						c0.2,0,0.4,0,0.6,0c-1-2.6-1.7-5.7-2-8.6c-0.5-4-0.5-7.7-0.4-9.9c-0.2,0-0.4,0.1-0.6,0.1C197.9,103.7,197.8,104.4,197.8,105.1z
						 M193.8,103.8c0.1,2.4,0.3,6.3,0.8,10.4c0.3,2.7,0.8,5.4,1.5,7.8c0.2,0,0.4,0,0.6-0.1c-0.7-2.4-1.2-5.1-1.5-7.8
						c-0.5-4.1-0.7-8-0.8-10.4C194.2,103.7,194,103.8,193.8,103.8z M201.8,104.4c-0.1,2.1-0.1,4.8,0.2,7.7c0.4,3.1,1.2,6.4,2.7,9.3
						c0.2,0,0.4,0,0.6,0c-1.5-2.9-2.4-6.2-2.8-9.4c-0.3-2.5-0.4-4.8-0.3-6.8c0.1-1.5,0.2-2.7,0.4-3.6c-0.2,0.1-0.4,0.2-0.6,0.3
						C201.9,102.6,201.8,103.4,201.8,104.4z"/>
					<g>
						<path class="st25" d="M192.3,104c0.1,2.4,0.3,6.2,0.8,10.2c0.4,3.1,0.9,5.7,1.5,7.9c-0.3,0-0.6,0.1-0.9,0.1
							c-0.6-2.2-1.1-4.9-1.5-7.9c-0.5-4-0.7-7.8-0.8-10.2C191.7,104.1,192,104,192.3,104z"/>
						<path class="st25" d="M181.3,114.6c-0.4-2.8-0.9-5.1-1.4-6.6c-0.5-1.8-1-3.1-1.4-3.8c0.3,0.1,0.7,0.2,1.1,0.3
							c0.3,0.7,0.6,1.6,0.9,2.5c0.5,1.7,1.3,4.3,1.7,7.5c0.5,3.8,0.4,7.2-0.3,10.1c-0.3,0.1-0.7,0.2-1,0.3
							C181.7,121.9,181.8,118.5,181.3,114.6z"/>
						<path class="st25" d="M187.4,104.5c0.3,0,0.6-0.1,0.9-0.1c0.1,1,0.2,2.2,0.4,3.5c0.3,2.6,0.6,5.9,1,9.1c0.3,2.2,0.6,4,0.8,5.6
							c-0.3,0-0.6,0.1-0.9,0.1c-0.3-1.6-0.6-3.4-0.8-5.6c-0.4-3.2-0.7-6.5-1-9.1C187.6,106.7,187.5,105.5,187.4,104.5z"/>
						<path class="st25" d="M199.5,102.7c0.3-0.1,0.6-0.2,0.9-0.2c-0.1,0.8-0.2,1.7-0.2,2.9c-0.1,1.6-0.1,4,0.3,6.7
							c0.5,3.6,1.4,6.7,2.7,9.2c-0.3,0-0.6,0-1,0c-1.3-2.6-2.1-5.6-2.6-9.1c-0.4-3.2-0.4-6-0.3-7.7
							C199.4,103.9,199.4,103.3,199.5,102.7z"/>
						<path class="st25" d="M195.5,103.5c0.3-0.1,0.6-0.1,0.9-0.2c-0.1,2.4,0,6,0.4,9.7c0.4,3.4,1.1,6.3,2.1,8.6
							c-0.3,0-0.6,0.1-0.9,0.1c-0.9-2.4-1.6-5.3-2-8.6c-0.4-3.2-0.5-6-0.5-7.9C195.4,104.7,195.4,104.1,195.5,103.5z"/>
						<path class="st25" d="M203.6,101.3c0-0.1,0-0.1,0-0.2c0.4-0.2,0.7-0.4,1-0.5c0,0,0,0,0,0c-0.2,0.7-0.4,2.2-0.5,4.2
							c-0.1,1.6-0.1,4,0.3,6.7c0.5,3.9,1.5,7.2,3,9.9c-0.3,0-0.7,0-1.1,0c-1.4-2.7-2.4-5.9-2.9-9.7c-0.4-3.2-0.4-6-0.3-7.7
							C203.4,103,203.5,102.1,203.6,101.3z"/>
						<path class="st25" d="M183.1,104.8c0.3,0,0.5,0,0.8,0c0.2,0.6,0.3,1.2,0.5,1.9c0.4,1.8,1,4.6,1.4,7.7c0.4,3.4,0.5,6.4,0.3,9
							c-0.3,0.1-0.5,0.1-0.8,0.2c0.2-2.6,0.1-5.6-0.3-9C184.6,110.7,183.8,107.1,183.1,104.8z"/>
					</g>
				</g>
			</g>
		</g>
	</g>
	<g>
		<g>
			<polygon class="st5" points="129.9,83.9 127.9,64.4 142.2,62.4 140.8,83.9 			"/>
			<circle class="st5" cx="128.7" cy="74.1" r="1.9"/>
			<circle class="st5" cx="141.5" cy="74.1" r="1.9"/>
			<g>
				<path class="st6" d="M131.8,73c-0.1,0-0.2,0-0.3,0c-0.8,0-1.7-0.8-1.7-1.9l0.4,0c0,1,0.7,1.6,1.4,1.6c0.6,0,1.2-0.4,1.3-1.6
					l0.4,0C133.1,72.4,132.4,72.9,131.8,73z"/>
				<path class="st6" d="M138.3,73c-0.1,0-0.2,0-0.3,0c-0.8,0-1.7-0.8-1.7-1.9l0.4,0c0,1,0.7,1.6,1.4,1.6c0.6,0,1.2-0.4,1.3-1.6
					l0.4,0C139.6,72.4,138.9,72.9,138.3,73z"/>
				<path class="st6" d="M133.8,81.6v-0.4c1.7,0,4-1,4.9-2.8l0.3,0.2C138.1,80.5,135.7,81.6,133.8,81.6z"/>
				<polygon class="st6" points="135.6,77.4 132.8,77.4 134.4,71 134.8,71.1 133.4,77 135.6,77 				"/>
			</g>
			<g>
				<path class="st26" d="M144.2,121.9c0-21.3-0.8-26.4-3.4-38h-11c-2.6,11.8-3.3,16.9-3.3,38.9c0,0-1,5.7,7.9,5.7h0.7
					C143.8,128.5,144.3,124.6,144.2,121.9z"/>
				<polygon class="st26" points="131.5,121.2 120.4,124.5 127.9,157.5 122.6,160.8 131.2,160.8 127.9,128.8 135.8,128.5 				"/>
				<polygon class="st26" points="139.9,121.2 150.9,124.5 143.4,157.5 148.8,160.8 140.1,160.8 143.4,128.8 135.5,128.5 				"/>
				<polygon class="st7" points="135.4,114.8 138.6,111.2 136.3,87.9 137.9,84.6 132.8,84.6 134.4,87.9 132.2,111.2 				"/>
			</g>
			<path class="st26" d="M142.8,66.7c1-1.3,1.7-3.5,1.7-6l-18.1,3.1l3,14l-0.4-8.5c1.1-1,1.4-1.9,1.4-3.7c1.2,2.4,5.6,3.7,10.7,2.4
				l0.3,9L142.8,66.7z"/>
			<g>
				<path class="st5" d="M125.9,120.7c1.6-0.5,1.8-0.9,2.7-0.5c1.4,1.1,3.1,1,3.1,2.2c0,0.7-4,0.5-6,0.5l-0.6-1.1L125.9,120.7z"/>
			</g>
			<path class="st26" d="M130.1,85.5c0,0-13.9,13.8-12,21.5c1.8,7.7,7.2,14.9,7.2,14.9l2.2-1.9c0,0-7.1-11.7-6.1-14.6
				c2.7-8.2,7.5-13.1,7.5-13.1L130.1,85.5z"/>
			<g>
				<path class="st5" d="M144.8,120.7c-1.6-0.5-1.8-0.9-2.7-0.5c-1.4,1.1-3.1,1-3.1,2.2c0,0.7,4,0.5,6,0.5l0.6-1.1L144.8,120.7z"/>
			</g>
			<path class="st26" d="M140.7,85.5c0,0,13.9,13.8,12,21.5c-1.8,7.7-7.2,14.9-7.2,14.9l-2.2-1.9c0,0,7.1-11.7,6.1-14.6
				c-2.7-8.2-7.5-13.1-7.5-13.1L140.7,85.5z"/>
		</g>
		<g>
			<g>
				<path class="st26" d="M164.4,80.9c1.6,2.7,9.9,3.9,12.6,1.5c-3.4,0.3-3.5-2.4-1.6-9.6c1.9-9.4-6.9-13.2-11-13.2
					c-4.1,0-12.9,3.8-11,13.2c1.9,7.2,1.8,10-1.6,9.6C154.5,84.8,162.8,83.7,164.4,80.9z"/>
				<circle class="st5" cx="155.6" cy="72.6" r="1.8"/>
				<circle class="st5" cx="173.1" cy="72.6" r="1.8"/>
				<path class="st5" d="M165.9,62.4h-2.8c-5.5,0.6-8.2,3.3-8.2,8.7c0,4,2,7.1,4.6,8.6c4.4,2.4,3.4,3.6,3,4.7l2,1.9l1.9-1.9
					c-0.4-1.1-1.4-2.3,3-4.7c2.7-1.5,4.6-4.6,4.6-8.6C174.1,65.7,171.5,63,165.9,62.4z"/>
				<path class="st26" d="M164.1,60.4c4.5,0,8.4,2.2,9.9,4.7c0.4,0.9,1.8,1.9,2.9,1.4c-2.1,4.9-20.3,5.1-22.5,3
					c-1.2-0.7,0.6-3.6,1.5-4.8C157.2,63,160.8,60.5,164.1,60.4z"/>
				<path class="st27" d="M158.7,73.5c0,0-0.1,0-0.1,0c-0.8-0.1-1.6-0.7-1.6-1.7l0.4,0c0,0.8,0.6,1.3,1.2,1.3c0.6,0,1.3-0.3,1.4-1.2
					l0.4,0C160.2,73.1,159.4,73.5,158.7,73.5z"/>
				<path class="st27" d="M170.3,73.5c-0.7,0-1.5-0.5-1.6-1.5l0.4,0c0.1,0.9,0.8,1.3,1.4,1.2c0.6,0,1.2-0.5,1.2-1.3l0.4,0
					c0,1-0.8,1.6-1.6,1.7C170.4,73.5,170.3,73.5,170.3,73.5z"/>
				<path class="st27" d="M165.5,79.2c-0.6,0-1.1-0.1-1.2-0.4l0.3-0.1c0.1,0.1,0.7,0.3,1.5,0.2c0.4-0.1,1.2-0.4,1.2-1.2l0.4,0
					c0,0.8-0.6,1.3-1.5,1.5C165.9,79.2,165.7,79.2,165.5,79.2z"/>
				<path class="st27" d="M164.5,76.1l-2.7-0.4l0.5-0.2c1.3-0.5,2-2.6,2-3.5h0.3c0,0.9-0.6,2.8-1.7,3.6l1.7,0.3L164.5,76.1z"/>
			</g>
			<g>
				<polygon class="st5" points="163.4,128.9 170.7,160.8 166.1,160.8 168.4,157.5 159.1,128.9 				"/>
				<polygon class="st5" points="157.2,128.9 165.7,160.8 161.1,160.8 163.5,157.5 153,128.9 				"/>
				<path class="st26" d="M167.8,129c4.2-0.2,3.5-8.7,3.3-12.6c-0.2-10.6-1.7-22.2-4.2-31l-4.4-0.2c-3.3,10.3-3.8,16-4.2,30.8
					c-0.2,7.5-5.9,4.9-5.7,9.1c0.1,2,0.5,8.2,0.5,8.2h12.5l-0.1-2.1C165.3,129.9,165.9,129,167.8,129z"/>
				<g>
					<polygon class="st27" points="165.7,160.8 164.9,157.5 163.4,157.5 161.1,160.8 					"/>
					<polygon class="st27" points="170.7,160.8 170,157.5 168.4,157.5 166.1,160.8 					"/>
				</g>
			</g>
			<g>
				<polygon class="st7" points="164.6,98.9 166.1,86 164.6,84.9 163.1,86 				"/>
				<polygon class="st7" points="164.6,84.9 165.8,87.2 167.4,85 166.6,83.6 				"/>
				<polygon class="st7" points="164.6,84.9 163.4,87.2 161.7,85 162.5,83.6 				"/>
			</g>
			<g>
				<path class="st5" d="M158.6,120.7c1.6-0.5,1.8-0.9,2.7-0.5c1.4,1.1,3.1,1,3.1,2.2c0,0.7-4,0.5-6,0.5l-0.6-1.1L158.6,120.7z"/>
			</g>
			<path class="st26" d="M162.3,86.1c0,0-9.5,14.1-8.3,22.3c1.2,7.8,3.8,13.6,3.8,13.6l2.2-1.9c0,0-4.1-10.5-2.9-15.2
				c2.1-8.3,4.3-12.4,4.3-12.4L162.3,86.1z"/>
			<g>
				<path class="st5" d="M170.8,120.7c-1.6-0.5-1.8-0.9-2.7-0.5c-1.4,1.1-3.1,1-3.1,2.2c0,0.7,4,0.5,6,0.5l0.6-1.1L170.8,120.7z"/>
			</g>
			<path class="st26" d="M167,86c0,0,9.7,14.2,8.4,22.3c-1.2,7.8-3.8,13.6-3.8,13.6l-2.2-1.9c0,0,4.1-10.5,2.9-15.2
				c-2.1-8.3-4.3-12.4-4.3-12.4L167,86z"/>
		</g>
	</g>
	<g>
		<path class="st5" d="M196.1,125.3c1-0.3,1.2-0.6,1.8-0.3c0.9,0.7,2.1,0.6,2.1,1.4c0,0.5-2.7,0.3-4,0.3l-0.4-0.8L196.1,125.3z"/>
	</g>
	<path class="st12" d="M191.2,102.7c0,0,1.3,9.9,2.1,14.9c0.8,4.8,2.4,8.7,2.4,8.7l1.4-1.2c0,0-1.8-6.4-2.5-9.7
		c-1.5-7.2-2.8-10.5-2.8-10.5L191.2,102.7z"/>
	<g>
		<g>
			<ellipse class="st5" cx="195.5" cy="94.5" rx="1.2" ry="1.1"/>
			<ellipse class="st5" cx="184" cy="94.5" rx="1.2" ry="1.1"/>
			<path class="st5" d="M188.7,88.3h1.8c3.7,0.4,5.4,2,5.4,5.3c0,2.4-1.3,4.3-3.1,5.2c-2.9,1.4-2.2,2.2-2,2.9l-1.3,1.2l-1.3-1.2
				c0.2-0.7,0.9-1.4-2-2.9c-1.8-0.9-3.1-2.8-3.1-5.2C183.3,90.3,185.1,88.6,188.7,88.3z"/>
			<path class="st27" d="M193.5,95C193.5,95,193.6,95,193.5,95c0.6,0,1.1-0.4,1.1-1l-0.2,0c0,0.5-0.4,0.8-0.8,0.8
				c-0.4,0-0.8-0.2-0.9-0.7l-0.2,0C192.5,94.8,193,95,193.5,95z"/>
			<path class="st27" d="M185.9,95c0.5,0,1-0.3,1.1-0.9l-0.2,0c-0.1,0.6-0.5,0.8-0.9,0.7c-0.4,0-0.8-0.3-0.8-0.8l-0.2,0
				C184.7,94.6,185.2,95,185.9,95C185.8,95,185.8,95,185.9,95z"/>
			<path class="st27" d="M189,98.5c0.4,0,0.7-0.1,0.8-0.3l-0.2-0.1c0,0.1-0.5,0.2-1,0.1c-0.3-0.1-0.8-0.2-0.8-0.7l-0.2,0
				c0,0.5,0.4,0.8,1,0.9C188.7,98.5,188.9,98.5,189,98.5z"/>
			<path class="st27" d="M189.7,96.6l1.8-0.3l-0.3-0.1c-0.8-0.3-1.3-1.6-1.3-2.2h-0.2c0,0.6,0.4,1.7,1.1,2.2l-1.1,0.2L189.7,96.6z"
				/>
		</g>
		<g>
			<polygon class="st5" points="190.4,128.8 185.6,148.2 188.6,148.2 187.1,146.2 193.2,128.7 			"/>
			<polygon class="st5" points="194.4,128.8 188.9,148.2 191.9,148.2 190.4,146.2 197.3,128.7 			"/>
			<path class="st12" d="M187.5,128.8c-2.8-0.1-2.3-5.3-2.2-7.7c0.1-6.5,1.1-13.5,2.8-18.9l2.9-0.1c2.2,6.2,2.5,9.7,2.8,18.8
				c0.1,4.6,3.9,3,3.8,5.6c-0.1,1.2-0.3,5-0.3,5H189l0.1-1.3C189.2,129.4,188.8,128.8,187.5,128.8z"/>
			<g>
				<polygon class="st27" points="188.9,148.2 189.4,146.2 190.4,146.2 191.9,148.2 				"/>
				<polygon class="st27" points="185.6,148.2 186.1,146.2 187.1,146.2 188.6,148.2 				"/>
			</g>
		</g>
		<g>
			<polygon class="st7" points="189.6,110.5 188.6,102.6 189.6,102 190.6,102.6 			"/>
			<polygon class="st7" points="189.6,102 188.8,103.3 187.7,102 188.3,101.2 			"/>
			<polygon class="st7" points="189.6,102 190.4,103.3 191.5,102 191,101.2 			"/>
		</g>
		<g>
			<path class="st5" d="M183.1,125.3c-1-0.3-1.2-0.6-1.8-0.3c-0.9,0.7-2.1,0.6-2.1,1.4c0,0.5,2.7,0.3,4,0.3l0.4-0.8L183.1,125.3z"/>
		</g>
		<path class="st12" d="M188,102.7c0,0-1.3,9.9-2.1,14.9c-0.8,4.8-2.4,8.7-2.4,8.7l-1.4-1.2c0,0,1.8-6.4,2.5-9.7
			c1.5-7.2,2.8-10.5,2.8-10.5L188,102.7z"/>
	</g>
	<path class="st26" d="M183.6,94.6c0,0-2.4-2.9,1.4-5.6c3.8-2.7,13.4-0.8,10.5,5.5c0,0,0.2-2.6-0.4-3.2h-11.2
		C183.8,91.3,183.1,92.8,183.6,94.6z"/>
	<ellipse class="st26" cx="191.5" cy="87.5" rx="2.5" ry="2.1"/>
	<path class="st26" d="M189.6,88.1c2.5,0.3,4.6,1.5,5.2,2.8c0.2,0.4,1.2,1,1.9,0.8c-1.5,2.2-12.1,1.3-13.2,0.1
		c-0.6-0.4,0.6-1.7,1.2-2.2C185.5,88.9,187.7,88,189.6,88.1z"/>
	<g>
		<g>
			<g>
				<path class="st12" d="M107.7,98.8L107.7,98.8c-0.1,0.6-2.7,1.1-6,1.1c0,0,0,0,0,0v0c0,0,0,0,0,0s0,0,0,0v0c0,0,0,0,0,0
					c-3.3,0-5.7-0.7-5.7-0.7c-2.4,8.5-1.5,16.4-0.1,27.1h5.8h0h5.8C109,115.6,110.2,107.3,107.7,98.8z"/>
				<path class="st7" d="M100.5,120.4c0,0.1,0.1,0.1,0.1,0.1h0.7c0.1,0,0.1-0.1,0.1-0.1l0,0c0-0.1-0.1-0.1-0.1-0.1h-0.7
					C100.5,120.3,100.5,120.3,100.5,120.4L100.5,120.4z"/>
				<path class="st28" d="M96,126.3L96,126.3c-0.3-2.4-0.6-4.7-0.9-6.9h6.7h0h6.7c-0.3,2.2-0.6,4.5-0.9,6.9h0h-5.8l0,0h0h0H96z"/>
				<g>
					<rect x="97.1" y="120" class="st7" width="2.7" height="0.9"/>
					<g>
						<path class="st7" d="M96.5,120v0.9h-1.2c0-0.3-0.1-0.6-0.1-0.9H96.5z"/>
					</g>
				</g>
				<g>
					<path class="st7" d="M97.3,121.4L97.3,121.4l0.6-0.1v0.2h-0.4c0,0.8-0.5,1.9-1.9,2.6c0-0.1,0-0.1,0-0.2
						C96.9,123.2,97.3,122.1,97.3,121.4z"/>
				</g>
				<g>
					<rect x="103.8" y="120" class="st7" width="2.7" height="0.9"/>
					<g>
						<path class="st7" d="M107.1,120v0.9h1.2c0-0.3,0.1-0.6,0.1-0.9H107.1z"/>
					</g>
				</g>
				<g>
					<path class="st7" d="M106.2,121.4L106.2,121.4l-0.6-0.1v0.2h0.4c0,0.8,0.5,1.9,1.9,2.6c0-0.1,0-0.1,0-0.2
						C106.7,123.2,106.2,122.1,106.2,121.4z"/>
				</g>
				<path class="st7" d="M100.4,119.7h2.8v1.5h-2.8V119.7z M100.8,120.9h1.9v-0.9h-1.9V120.9z"/>
			</g>
			<path class="st26" d="M106.2,87.8c0,0-2,2.7-8.4,1.2v-1.8L106.2,87.8z"/>
		</g>
		<g>
			<ellipse class="st5" cx="106.5" cy="92.5" rx="1.5" ry="1.3"/>
			<ellipse class="st5" cx="97.1" cy="92.5" rx="1.5" ry="1.3"/>
			<path class="st5" d="M96.1,99.2l2.1-13l7.4,1l2.2,12h-0.1c-0.1,0.6-2.7,1-5.9,1C98.6,100.2,96.1,99.2,96.1,99.2z"/>
			<path class="st6" d="M103.8,92.2c0.1,0,0.1,0,0.2,0c0.6,0,1.2-0.4,1.2-1.1l-0.3,0c0,0.6-0.5,0.9-0.9,0.9c-0.4,0-0.8-0.2-0.9-1
				l-0.3,0C102.9,91.9,103.3,92.2,103.8,92.2z"/>
			<path class="st6" d="M99.3,92.2c0.1,0,0.1,0,0.2,0c0.6,0,1.2-0.4,1.2-1.1l-0.3,0c0,0.6-0.5,0.9-0.9,0.9c-0.4,0-0.8-0.2-0.9-1
				l-0.3,0C98.4,91.9,98.9,92.2,99.3,92.2z"/>
			<path class="st6" d="M101.8,97.6v-0.2c-1.1,0-2.6-0.5-3.2-1.5L98.4,96C99,97.1,100.6,97.6,101.8,97.6z"/>
			<path class="st6" d="M101.1,95.3c0,0,1.6,0.4,2,0.1c0.6-0.5-1-4.3-1-4.3l-0.3,0.1c0,0,1.5,3.8,1.1,4.1c-0.4,0.4-1.8-0.1-1.8-0.1
				V95.3z"/>
		</g>
		<path class="st29" d="M106.5,88.6c0.7-0.6,1.4-1.8,1.8-3.3l-11-0.6l-0.1,8.6l0.9-5c0.8-0.4,1-0.9,1.3-2c0.4,1.6,2.8,2.9,6,2.8
			l0.9,3.1L106.5,88.6z"/>
	</g>
	<polygon class="st28" points="98.6,120.9 90.4,123.3 96,147.6 92,150 98.4,150 96,126.5 101.8,126.3 	"/>
	<polygon class="st28" points="104.8,120.9 112.9,123.3 107.4,147.6 111.3,150 104.9,150 107.4,126.5 101.6,126.3 	"/>
	<g>
		<path class="st5" d="M87.8,124.8c-1-0.3-1.2-0.6-1.8-0.3c-0.9,0.7-2.1,0.6-2.1,1.4c0,0.5,2.7,0.3,4,0.3l0.4-0.8L87.8,124.8z"/>
	</g>
	<path class="st12" d="M96.1,99.2c0,0,0.9,2.7-0.2,6c-1.4,4.1-0.9,2.9-2.4,7.3c-1.7,5-5.2,13.2-5.2,13.2l-1.4-1.2
		c0,0,2.6-8.3,3.7-11.5C93.2,105,96.1,99.2,96.1,99.2z"/>
	<g>
		<path class="st5" d="M115.9,125.3c1-0.3,1.2-0.6,1.8-0.3c0.9,0.7,2.1,0.6,2.1,1.4c0,0.5-2.7,0.3-4,0.3l-0.4-0.8L115.9,125.3z"/>
	</g>
	<path class="st12" d="M107.6,99.7c0,0-0.9,2.7,0.2,6c1.4,4.1,0.9,2.9,2.4,7.3c1.7,5,5.2,13.2,5.2,13.2l1.4-1.2
		c0,0-2.6-8.3-3.7-11.5C110.4,105.5,107.6,99.7,107.6,99.7z"/>
</g>
<g>
	<path class="st7" d="M53.7,198.6c0,1.6-0.5,2.8-1.4,3.7s-2.3,1.3-4,1.3h-1.1v4.7h-3.9v-14.3h4.9c1.8,0,3.2,0.4,4.1,1.2
		S53.7,197.1,53.7,198.6z M47.2,200.5h0.7c0.6,0,1-0.2,1.4-0.5s0.5-0.8,0.5-1.3c0-1-0.5-1.4-1.6-1.4h-1V200.5z"/>
	<path class="st7" d="M62.4,197.1c0.3,0,0.6,0,0.9,0.1l0.2,0l-0.3,3.6c-0.3-0.1-0.7-0.1-1.3-0.1c-0.8,0-1.4,0.2-1.8,0.6
		s-0.6,0.9-0.6,1.6v5.4h-3.8v-11.1h2.8l0.6,1.8h0.2c0.3-0.6,0.8-1.1,1.3-1.4S61.8,197.1,62.4,197.1z"/>
	<path class="st7" d="M70.4,208.5c-1.8,0-3.3-0.5-4.3-1.5s-1.5-2.4-1.5-4.2c0-1.9,0.5-3.3,1.4-4.3s2.3-1.5,4-1.5
		c1.7,0,3,0.4,3.9,1.3s1.4,2.1,1.4,3.8v1.7h-6.8c0,0.6,0.3,1.1,0.7,1.5s1,0.5,1.7,0.5c0.7,0,1.3-0.1,1.9-0.2s1.2-0.3,1.8-0.6v2.7
		c-0.6,0.3-1.2,0.5-1.9,0.6S71.3,208.5,70.4,208.5z M70.2,199.7c-0.4,0-0.8,0.1-1.1,0.4s-0.5,0.7-0.5,1.3h3.3c0-0.5-0.2-1-0.5-1.3
		S70.7,199.7,70.2,199.7z"/>
	<path class="st7" d="M84.1,208.5c-0.6,0-1.1-0.1-1.5-0.3s-0.9-0.5-1.3-1h-0.2c0.1,0.8,0.2,1.3,0.2,1.4v4.4h-3.8v-15.9h3.1l0.5,1.4
		h0.2c0.7-1.1,1.7-1.6,2.9-1.6c1.2,0,2.2,0.5,2.9,1.5s1,2.4,1,4.2c0,1.8-0.4,3.2-1.1,4.2S85.3,208.5,84.1,208.5z M82.8,200.1
		c-0.6,0-1,0.2-1.2,0.6s-0.3,1-0.4,1.8v0.3c0,1,0.1,1.6,0.4,2.1s0.7,0.6,1.2,0.6c0.5,0,0.8-0.2,1.1-0.6s0.3-1.1,0.3-2.1
		c0-1-0.1-1.6-0.3-2S83.3,200.1,82.8,200.1z"/>
	<path class="st7" d="M97.5,208.3l-0.7-1.5h-0.1c-0.5,0.6-1,1.1-1.6,1.3s-1.2,0.4-2.1,0.4c-1,0-1.9-0.3-2.5-0.9s-0.9-1.5-0.9-2.6
		c0-1.2,0.4-2.1,1.2-2.6s2-0.9,3.6-1l1.8-0.1v-0.2c0-0.9-0.4-1.4-1.3-1.4c-0.8,0-1.8,0.3-3.1,0.8l-1.1-2.5c1.3-0.7,2.9-1,4.9-1
		c1.4,0,2.5,0.4,3.3,1.1s1.2,1.7,1.2,2.9v7.3H97.5z M94.7,205.8c0.5,0,0.9-0.1,1.2-0.4s0.5-0.7,0.5-1.1v-0.9l-0.9,0
		c-1.3,0-1.9,0.5-1.9,1.4C93.6,205.5,94,205.8,94.7,205.8z"/>
	<path class="st7" d="M109.5,197.1c0.3,0,0.6,0,0.9,0.1l0.2,0l-0.3,3.6c-0.3-0.1-0.7-0.1-1.3-0.1c-0.8,0-1.4,0.2-1.8,0.6
		s-0.6,0.9-0.6,1.6v5.4h-3.8v-11.1h2.8l0.6,1.8h0.2c0.3-0.6,0.8-1.1,1.3-1.4S108.9,197.1,109.5,197.1z"/>
	<path class="st7" d="M112.1,194.5c0-0.6,0.2-1,0.5-1.3s0.8-0.4,1.5-0.4s1.2,0.1,1.6,0.4s0.5,0.7,0.5,1.3c0,1.1-0.7,1.7-2,1.7
		C112.8,196.2,112.1,195.6,112.1,194.5z M116,208.3h-3.8v-11.1h3.8V208.3z"/>
	<path class="st7" d="M125.6,208.3v-6c0-0.7-0.1-1.3-0.3-1.7s-0.6-0.6-1-0.6c-0.6,0-1.1,0.3-1.4,0.8s-0.4,1.4-0.4,2.6v4.8h-3.8
		v-11.1h2.9l0.5,1.4h0.2c0.3-0.5,0.8-0.9,1.4-1.2s1.2-0.4,2-0.4c1.2,0,2.2,0.4,2.9,1.1s1,1.7,1,3v7.2H125.6z"/>
	<path class="st7" d="M142.5,197.3v1.8l-1.5,0.6c0.2,0.4,0.3,0.8,0.3,1.3c0,1.2-0.4,2.1-1.3,2.8s-2.1,1-3.7,1c-0.4,0-0.7,0-1-0.1
		c-0.1,0.2-0.1,0.3-0.1,0.5c0,0.2,0.2,0.3,0.5,0.4s0.7,0.2,1.2,0.2h1.8c2.5,0,3.7,1,3.7,3.1c0,1.3-0.6,2.4-1.7,3.1s-2.8,1.1-4.8,1.1
		c-1.6,0-2.8-0.3-3.6-0.8s-1.3-1.3-1.3-2.3c0-1.3,0.8-2.2,2.5-2.6c-0.3-0.1-0.6-0.4-0.9-0.7s-0.4-0.6-0.4-0.9c0-0.3,0.1-0.6,0.3-0.9
		s0.6-0.6,1.2-0.9c-0.6-0.3-1-0.7-1.4-1.2s-0.5-1.2-0.5-2c0-1.2,0.4-2.1,1.2-2.8s2-1,3.5-1c0.2,0,0.6,0,1,0.1s0.9,0.1,1.1,0.1H142.5
		z M134.2,209.7c0,0.3,0.2,0.6,0.5,0.8s0.8,0.3,1.4,0.3c0.9,0,1.7-0.1,2.2-0.3s0.8-0.5,0.8-0.9c0-0.3-0.2-0.5-0.5-0.6
		s-0.8-0.2-1.5-0.2h-1.5c-0.4,0-0.8,0.1-1,0.3S134.2,209.4,134.2,209.7z M135.4,200.9c0,1.1,0.4,1.7,1.2,1.7c0.4,0,0.6-0.1,0.8-0.4
		s0.3-0.7,0.3-1.3c0-1.1-0.4-1.7-1.1-1.7C135.8,199.2,135.4,199.8,135.4,200.9z"/>
	<path class="st7" d="M154.8,205.5c0.5,0,1.1-0.1,1.8-0.4v2.8c-0.5,0.2-1,0.4-1.5,0.5c-0.5,0.1-1,0.1-1.6,0.1
		c-1.3,0-2.2-0.3-2.8-0.9s-0.8-1.6-0.8-2.9v-4.6h-1.3v-1.6l1.7-1.2l1-2.3h2.5v2.2h2.7v2.9h-2.7v4.3
		C153.8,205.2,154.1,205.5,154.8,205.5z"/>
	<path class="st7" d="M165.5,208.3v-6c0-1.5-0.4-2.2-1.3-2.2c-0.6,0-1.1,0.3-1.4,0.8c-0.3,0.5-0.4,1.4-0.4,2.6v4.9h-3.8v-15.2h3.8
		v2.2c0,1-0.1,2.1-0.2,3.3h0.2c0.4-0.6,0.8-1,1.3-1.2c0.5-0.2,1.1-0.4,1.7-0.4c1.2,0,2.2,0.4,2.9,1.1c0.7,0.7,1,1.7,1,3v7.2H165.5z"
		/>
	<path class="st7" d="M177.3,208.5c-1.8,0-3.3-0.5-4.3-1.5c-1-1-1.5-2.4-1.5-4.2c0-1.9,0.5-3.3,1.4-4.3c0.9-1,2.3-1.5,4-1.5
		c1.7,0,3,0.4,3.9,1.3s1.4,2.1,1.4,3.8v1.7h-6.8c0,0.6,0.3,1.1,0.7,1.5c0.4,0.4,1,0.5,1.7,0.5c0.7,0,1.3-0.1,1.9-0.2
		c0.6-0.1,1.2-0.3,1.8-0.6v2.7c-0.6,0.3-1.2,0.5-1.9,0.6C179,208.5,178.2,208.5,177.3,208.5z M177.1,199.7c-0.4,0-0.8,0.1-1.1,0.4
		s-0.5,0.7-0.5,1.3h3.3c0-0.5-0.2-1-0.5-1.3C178,199.8,177.6,199.7,177.1,199.7z"/>
	<path class="st7" d="M203.4,208.3h-5.1l-5.2-10.1H193c0.1,1.6,0.2,2.8,0.2,3.6v6.4h-3.4v-14.3h5l5.2,9.9h0.1
		c-0.1-1.4-0.1-2.6-0.1-3.5v-6.5h3.4V208.3z"/>
	<path class="st7" d="M211.6,208.5c-1.8,0-3.3-0.5-4.3-1.5c-1-1-1.5-2.4-1.5-4.2c0-1.9,0.5-3.3,1.4-4.3c0.9-1,2.3-1.5,4-1.5
		c1.7,0,3,0.4,3.9,1.3s1.4,2.1,1.4,3.8v1.7h-6.8c0,0.6,0.3,1.1,0.7,1.5c0.4,0.4,1,0.5,1.7,0.5c0.7,0,1.3-0.1,1.9-0.2
		c0.6-0.1,1.2-0.3,1.8-0.6v2.7c-0.6,0.3-1.2,0.5-1.9,0.6C213.2,208.5,212.4,208.5,211.6,208.5z M211.3,199.7c-0.4,0-0.8,0.1-1.1,0.4
		s-0.5,0.7-0.5,1.3h3.3c0-0.5-0.2-1-0.5-1.3C212.2,199.8,211.8,199.7,211.3,199.7z"/>
	<path class="st7" d="M220.9,202.7l-3.4-5.4h4.3l1.7,3.1l1.7-3.1h4.3l-3.5,5.4l3.6,5.6h-4.3l-1.9-3.4l-1.9,3.4h-4.3L220.9,202.7z"/>
	<path class="st7" d="M236.6,205.5c0.5,0,1.1-0.1,1.8-0.4v2.8c-0.5,0.2-1,0.4-1.5,0.5c-0.5,0.1-1,0.1-1.6,0.1
		c-1.3,0-2.2-0.3-2.8-0.9s-0.8-1.6-0.8-2.9v-4.6h-1.3v-1.6l1.7-1.2l1-2.3h2.5v2.2h2.7v2.9h-2.7v4.3
		C235.6,205.2,235.9,205.5,236.6,205.5z"/>
	<path class="st7" d="M92,224h6.2v7.7c-1.7,0.6-3.5,0.9-5.5,0.9c-2.2,0-3.9-0.6-5.1-1.9s-1.8-3.1-1.8-5.5c0-2.3,0.7-4.1,2-5.4
		s3.2-1.9,5.5-1.9c0.9,0,1.7,0.1,2.5,0.3s1.5,0.4,2.1,0.6l-1.2,3c-1-0.5-2.2-0.8-3.4-0.8c-1.1,0-2,0.4-2.6,1.1s-0.9,1.8-0.9,3.1
		c0,1.3,0.3,2.4,0.8,3.1s1.4,1,2.4,1c0.6,0,1.1-0.1,1.6-0.2V227H92V224z"/>
	<path class="st7" d="M106.2,232.5c-1.8,0-3.3-0.5-4.3-1.5s-1.5-2.4-1.5-4.2c0-1.9,0.5-3.3,1.4-4.3s2.3-1.5,4-1.5
		c1.7,0,3,0.4,3.9,1.3s1.4,2.1,1.4,3.8v1.7h-6.8c0,0.6,0.3,1.1,0.7,1.5s1,0.5,1.7,0.5c0.7,0,1.3-0.1,1.9-0.2s1.2-0.3,1.8-0.6v2.7
		c-0.6,0.3-1.2,0.5-1.9,0.6S107,232.5,106.2,232.5z M105.9,223.7c-0.4,0-0.8,0.1-1.1,0.4s-0.5,0.7-0.5,1.3h3.3c0-0.5-0.2-1-0.5-1.3
		S106.4,223.7,105.9,223.7z"/>
	<path class="st7" d="M120.2,232.3v-6c0-0.7-0.1-1.3-0.3-1.7s-0.6-0.6-1-0.6c-0.6,0-1.1,0.3-1.4,0.8s-0.4,1.4-0.4,2.6v4.8h-3.8
		v-11.1h2.9l0.5,1.4h0.2c0.3-0.5,0.8-0.9,1.4-1.2s1.2-0.4,2-0.4c1.2,0,2.2,0.4,2.9,1.1s1,1.7,1,3v7.2H120.2z"/>
	<path class="st7" d="M131.9,232.5c-1.8,0-3.3-0.5-4.3-1.5s-1.5-2.4-1.5-4.2c0-1.9,0.5-3.3,1.4-4.3s2.3-1.5,4-1.5
		c1.7,0,3,0.4,3.9,1.3s1.4,2.1,1.4,3.8v1.7H130c0,0.6,0.3,1.1,0.7,1.5s1,0.5,1.7,0.5c0.7,0,1.3-0.1,1.9-0.2s1.2-0.3,1.8-0.6v2.7
		c-0.6,0.3-1.2,0.5-1.9,0.6S132.8,232.5,131.9,232.5z M131.7,223.7c-0.4,0-0.8,0.1-1.1,0.4s-0.5,0.7-0.5,1.3h3.3
		c0-0.5-0.2-1-0.5-1.3S132.2,223.7,131.7,223.7z"/>
	<path class="st7" d="M145.6,221.1c0.3,0,0.6,0,0.9,0.1l0.2,0l-0.3,3.6c-0.3-0.1-0.7-0.1-1.3-0.1c-0.8,0-1.4,0.2-1.8,0.6
		s-0.6,0.9-0.6,1.6v5.4h-3.8v-11.1h2.8l0.6,1.8h0.2c0.3-0.6,0.8-1.1,1.3-1.4C144.5,221.3,145,221.1,145.6,221.1z"/>
	<path class="st7" d="M155.5,232.3l-0.7-1.5h-0.1c-0.5,0.6-1,1.1-1.6,1.3c-0.5,0.2-1.2,0.4-2.1,0.4c-1,0-1.9-0.3-2.5-0.9
		c-0.6-0.6-0.9-1.5-0.9-2.6c0-1.2,0.4-2.1,1.2-2.6s2-0.9,3.6-1l1.8-0.1v-0.2c0-0.9-0.4-1.4-1.3-1.4c-0.8,0-1.8,0.3-3.1,0.8l-1.1-2.5
		c1.3-0.7,2.9-1,4.9-1c1.4,0,2.5,0.4,3.3,1.1c0.8,0.7,1.2,1.7,1.2,2.9v7.3H155.5z M152.7,229.8c0.5,0,0.9-0.1,1.2-0.4
		c0.3-0.3,0.5-0.7,0.5-1.1v-0.9l-0.9,0c-1.3,0-1.9,0.5-1.9,1.4C151.6,229.5,152,229.8,152.7,229.8z"/>
	<path class="st7" d="M166.2,229.5c0.5,0,1.1-0.1,1.8-0.4v2.8c-0.5,0.2-1,0.4-1.5,0.5c-0.5,0.1-1,0.1-1.6,0.1
		c-1.3,0-2.2-0.3-2.8-0.9s-0.8-1.6-0.8-2.9v-4.6H160v-1.6l1.7-1.2l1-2.3h2.5v2.2h2.7v2.9h-2.7v4.3
		C165.2,229.2,165.5,229.5,166.2,229.5z"/>
	<path class="st7" d="M169.9,218.5c0-0.6,0.2-1,0.5-1.3c0.3-0.3,0.8-0.4,1.5-0.4c0.7,0,1.2,0.1,1.6,0.4c0.3,0.3,0.5,0.7,0.5,1.3
		c0,1.1-0.7,1.7-2,1.7C170.6,220.2,169.9,219.6,169.9,218.5z M173.8,232.3H170v-11.1h3.8V232.3z"/>
	<path class="st7" d="M187.1,226.8c0,1.8-0.5,3.2-1.5,4.2c-1,1-2.3,1.5-4.1,1.5c-1.7,0-3-0.5-4-1.6c-1-1-1.5-2.4-1.5-4.2
		c0-1.8,0.5-3.2,1.5-4.2c1-1,2.3-1.5,4.1-1.5c1.1,0,2,0.2,2.9,0.7c0.8,0.5,1.5,1.1,1.9,2C186.8,224.6,187.1,225.6,187.1,226.8z
		 M179.9,226.8c0,1,0.1,1.7,0.4,2.2s0.7,0.7,1.3,0.7c0.6,0,1-0.2,1.3-0.7s0.4-1.2,0.4-2.2c0-0.9-0.1-1.7-0.4-2.1
		c-0.2-0.5-0.7-0.7-1.3-0.7c-0.6,0-1,0.2-1.3,0.7S179.9,225.8,179.9,226.8z"/>
	<path class="st7" d="M196.2,232.3v-6c0-0.7-0.1-1.3-0.3-1.7c-0.2-0.4-0.6-0.6-1-0.6c-0.6,0-1.1,0.3-1.4,0.8
		c-0.3,0.5-0.4,1.4-0.4,2.6v4.8h-3.8v-11.1h2.9l0.5,1.4h0.2c0.3-0.5,0.8-0.9,1.4-1.2s1.2-0.4,2-0.4c1.2,0,2.2,0.4,2.9,1.1
		c0.7,0.7,1,1.7,1,3v7.2H196.2z"/>
</g>
</svg>
