<?xml version="1.0" encoding="utf-8"?>
<!-- Generator: Adobe Illustrator 21.1.0, SVG Export Plug-In . SVG Version: 6.00 Build 0)  -->
<!DOCTYPE svg PUBLIC "-//W3C//DTD SVG 1.1//EN" "http://www.w3.org/Graphics/SVG/1.1/DTD/svg11.dtd">
<svg version="1.1" id="Layer_1" xmlns="http://www.w3.org/2000/svg" xmlns:xlink="http://www.w3.org/1999/xlink" x="0px" y="0px"
	 viewBox="0 0 286 286" style="enable-background:new 0 0 286 286;" xml:space="preserve">
<style type="text/css">
	.st0{clip-path:url(#SVGID_2_);fill:#4298B5;}
	.st1{clip-path:url(#SVGID_2_);}
	.st2{fill:#DB5C1E;}
	.st3{fill:#002B44;}
	.st4{fill:#003F5C;}
	.st5{fill:#EB6479;}
	.st6{fill:#223129;}
	.st7{fill:#FFFFFF;}
	.st8{fill:#D55A6E;}
	.st9{fill:#D8E2E7;}
	.st10{fill:#939598;}
	.st11{fill:#727D84;}
	.st12{fill:#4298B5;}
	.st13{fill:#E4D5B4;}
	.st14{fill:#CEBFA3;}
	.st15{fill:#EDE0C6;}
	.st16{fill:#3D302D;}
	.st17{fill:#D6C6A6;}
	.st18{fill:#C6B597;}
	.st19{fill:#826754;}
	.st20{fill:#91CEC4;}
	.st21{fill:#D3A98C;}
	.st22{fill:#AD886F;}
	.st23{fill:#896D59;}
	.st24{fill:#EA7442;}
	.st25{fill:#D15F36;}
	.st26{fill:#003E5A;}
	.st27{fill:#243129;}
	.st28{fill:#4077A2;}
	.st29{fill:#0F3644;}
	.st30{fill:#6C707A;}
	.st31{fill:url(#SVGID_3_);}
	.st32{fill:#8AACBD;}
	.st33{fill:#E6EBEE;}
	.st34{fill:#C3D4DD;}
	.st35{fill:#F37029;}
	.st36{fill:#004B6B;}
	.st37{fill:#282829;}
	.st38{fill:#BACAD3;}
	.st39{fill:#9EB3BE;}
	.st40{fill:#27688F;}
	.st41{fill:#005376;}
	.st42{fill:#2B75A2;}
	.st43{fill:#AFC6D2;}
	.st44{fill:url(#SVGID_4_);}
	.st45{fill:#E9E8D8;}
	.st46{fill:#818277;}
	.st47{fill:#63665D;}
	.st48{fill:#B4B39A;}
	.st49{fill:url(#SVGID_5_);}
	.st50{fill:url(#SVGID_6_);}
	.st51{fill:url(#SVGID_7_);}
	.st52{fill:url(#SVGID_8_);}
	.st53{fill:url(#SVGID_9_);}
	.st54{fill:url(#SVGID_10_);}
	.st55{fill:#FFC20E;}
	.st56{fill:#916600;}
	.st57{fill:#A7BDC9;}
	.st58{fill:#8E2833;}
	.st59{fill:#721B25;}
	.st60{fill:#00547A;}
	.st61{fill:#F1F2F2;}
	.st62{fill:#6F6598;}
	.st63{fill:#4B436A;}
	.st64{fill:#F27129;}
	.st65{fill:#A57406;}
	.st66{fill:url(#SVGID_11_);}
	.st67{fill:url(#SVGID_12_);}
	.st68{fill:url(#SVGID_13_);}
	.st69{fill:url(#SVGID_14_);}
	.st70{fill:url(#SVGID_15_);}
	.st71{fill:url(#SVGID_16_);}
	.st72{fill:url(#SVGID_17_);}
	.st73{fill:url(#SVGID_18_);}
	.st74{fill:url(#SVGID_19_);}
	.st75{fill:url(#SVGID_20_);}
	.st76{fill:url(#SVGID_21_);}
	.st77{fill:url(#SVGID_22_);}
	.st78{fill:url(#SVGID_23_);}
	.st79{fill:url(#SVGID_24_);}
	.st80{fill:url(#SVGID_25_);}
	.st81{fill:url(#SVGID_26_);}
	.st82{fill:url(#SVGID_27_);}
	.st83{fill:url(#SVGID_28_);}
	.st84{fill:url(#SVGID_29_);}
	.st85{fill:url(#SVGID_30_);}
	.st86{fill:url(#SVGID_31_);}
	.st87{fill:url(#SVGID_32_);}
	.st88{fill:url(#SVGID_33_);}
	.st89{fill:url(#SVGID_34_);}
	.st90{fill:url(#SVGID_35_);}
	.st91{fill:url(#SVGID_36_);}
	.st92{fill:url(#SVGID_37_);}
	.st93{fill:url(#SVGID_38_);}
	.st94{fill:url(#SVGID_39_);}
	.st95{fill:url(#SVGID_40_);}
	.st96{fill:url(#SVGID_41_);}
	.st97{fill:url(#SVGID_42_);}
	.st98{fill:url(#SVGID_43_);}
	.st99{fill:url(#SVGID_44_);}
	.st100{fill:url(#SVGID_45_);}
	.st101{fill:url(#SVGID_46_);}
	.st102{fill:#F9F1D7;}
	.st103{fill:#6E7980;stroke:#58595B;stroke-width:0.4225;stroke-linecap:round;stroke-linejoin:round;}
	.st104{fill:#DF9CB0;}
	.st105{fill:#C37A8C;}
	.st106{fill:#C29F60;}
	.st107{fill:#FFFFFF;stroke:#D0ECF4;stroke-width:0.4225;}
	.st108{fill:url(#SVGID_47_);}
	.st109{fill:url(#SVGID_48_);}
	.st110{fill:url(#SVGID_49_);stroke:#FFFFFF;stroke-width:2.1123;}
	.st111{fill:#9F2214;}
	.st112{fill:url(#SVGID_50_);stroke:#FFFFFF;stroke-width:2.1123;}
	.st113{fill:#4A7195;}
	.st114{fill:#C13D2E;}
	.st115{fill:#7989A3;stroke:#FFFFFF;stroke-width:2.1123;}
	.st116{fill:#FFCF01;}
	.st117{fill:url(#SVGID_51_);stroke:#FFFFFF;stroke-width:2.1123;}
	.st118{fill:url(#SVGID_52_);stroke:#FFFFFF;stroke-width:2.1123;}
	.st119{fill:url(#SVGID_53_);stroke:#FFFFFF;stroke-width:2.1123;}
	.st120{fill:#876041;}
	.st121{fill:#DAC895;stroke:#F7E8BA;stroke-width:0.4225;}
	.st122{fill:#4B545B;}
	.st123{fill:#3E6D93;}
	.st124{fill:#476F93;}
	.st125{fill:#CAB47E;}
	.st126{fill:#F7E8BA;}
	.st127{fill:#C2A171;}
	.st128{fill:#D0ECF4;}
	.st129{fill:#EFE4AC;}
	.st130{fill:#5980A2;}
	.st131{fill:#17738F;}
	.st132{fill:#B1D45E;}
	.st133{fill:#8CC540;stroke:#221F1F;stroke-width:0.2168;stroke-linejoin:round;stroke-miterlimit:10;}
	.st134{fill:#58595B;}
	.st135{fill:#797A7D;}
	.st136{fill:#BF86A8;}
	.st137{fill:#302B2C;}
	.st138{fill:#48484A;}
	.st139{fill:#72A087;}
	.st140{fill:#94B0BE;}
	.st141{fill:#09723B;}
	.st142{fill:#00A14B;}
	.st143{fill:#004766;}
	.st144{fill:#00354F;}
	.st145{fill:#005B80;}
	.st146{fill:#002F3E;}
	.st147{fill:#3F4450;}
	.st148{fill:#2A6A7F;}
	.st149{fill:url(#SVGID_54_);}
	.st150{fill:#2C3038;}
	.st151{fill:#CACFD1;}
	.st152{fill:#343943;}
	.st153{fill:#27667A;}
	.st154{fill:none;stroke:#243129;stroke-width:0.3823;stroke-miterlimit:10;}
	.st155{fill:#333333;}
	.st156{fill:#E5E8DD;}
	.st157{fill:#767877;}
	.st158{fill:#545554;}
	.st159{fill:#F8E1C7;}
	.st160{fill:#5A5048;}
	.st161{fill:#604373;}
	.st162{fill:none;}
	.st163{fill:#9DB9C8;}
	.st164{fill:#235F83;}
	.st165{fill:#CF473A;}
	.st166{fill:#B4A680;}
	.st167{fill:url(#SVGID_55_);}
	.st168{fill:url(#SVGID_56_);}
	.st169{fill:url(#SVGID_57_);}
	.st170{fill:url(#SVGID_58_);}
	.st171{fill:url(#SVGID_59_);}
	.st172{fill:url(#SVGID_60_);}
	.st173{fill:url(#SVGID_61_);}
	.st174{fill:url(#SVGID_62_);}
	.st175{fill:url(#SVGID_63_);}
	.st176{fill:url(#SVGID_64_);}
	.st177{fill:url(#SVGID_65_);}
	.st178{fill:url(#SVGID_66_);}
	.st179{fill:url(#SVGID_67_);}
	.st180{fill:url(#SVGID_68_);}
	.st181{fill:url(#SVGID_69_);}
	.st182{fill:url(#SVGID_70_);}
	.st183{fill:url(#SVGID_71_);}
	.st184{fill:url(#SVGID_72_);}
	.st185{fill:url(#SVGID_73_);}
	.st186{fill:url(#SVGID_74_);}
	.st187{fill:url(#SVGID_75_);}
	.st188{fill:url(#SVGID_76_);}
	.st189{fill:url(#SVGID_77_);}
	.st190{fill:url(#SVGID_78_);}
	.st191{fill:url(#SVGID_79_);}
	.st192{fill:url(#SVGID_80_);}
	.st193{fill:url(#SVGID_81_);}
	.st194{fill:url(#SVGID_82_);}
	.st195{fill:url(#SVGID_83_);}
	.st196{fill:url(#SVGID_84_);}
	.st197{fill:url(#SVGID_85_);}
	.st198{fill:url(#SVGID_86_);}
	.st199{fill:url(#SVGID_87_);}
	.st200{fill:url(#SVGID_88_);}
	.st201{fill:url(#SVGID_89_);}
	.st202{fill:url(#SVGID_90_);}
	.st203{fill:url(#SVGID_91_);}
	.st204{fill:url(#SVGID_92_);}
	.st205{fill:url(#SVGID_93_);}
	.st206{fill:url(#SVGID_94_);}
	.st207{fill:url(#SVGID_95_);}
	.st208{fill:url(#SVGID_96_);}
	.st209{fill:url(#SVGID_97_);}
	.st210{fill:url(#SVGID_98_);}
	.st211{fill:url(#SVGID_99_);}
	.st212{fill:url(#SVGID_100_);}
	.st213{fill:url(#SVGID_101_);}
	.st214{fill:url(#SVGID_102_);}
	.st215{fill:url(#SVGID_103_);}
	.st216{fill:url(#SVGID_104_);}
	.st217{fill:url(#SVGID_105_);}
	.st218{fill:url(#SVGID_106_);}
	.st219{fill:url(#SVGID_107_);}
	.st220{fill:url(#SVGID_108_);}
	.st221{fill:url(#SVGID_109_);}
	.st222{fill:url(#SVGID_110_);}
	.st223{fill:url(#SVGID_111_);}
	.st224{fill:url(#SVGID_112_);}
	.st225{fill:url(#SVGID_113_);}
	.st226{fill:url(#SVGID_114_);}
	.st227{fill:url(#SVGID_115_);}
	.st228{fill:url(#SVGID_116_);}
	.st229{fill:url(#SVGID_117_);}
	.st230{fill:url(#SVGID_118_);}
	.st231{fill:url(#SVGID_119_);}
	.st232{fill:url(#SVGID_120_);}
	.st233{fill:url(#SVGID_121_);}
	.st234{fill:url(#SVGID_122_);}
	.st235{fill:#F7D9A8;}
	.st236{fill:#EE93B9;}
</style>
<circle class="st12" cx="143" cy="143" r="143"/>
<g>
	<path class="st7" d="M84,198.6c0,1.6-0.5,2.8-1.4,3.7c-0.9,0.9-2.3,1.3-4,1.3h-1.1v4.7h-3.9v-14.3h4.9c1.8,0,3.2,0.4,4.1,1.2
		C83.5,196,84,197.1,84,198.6z M77.5,200.5h0.7c0.6,0,1-0.2,1.4-0.5s0.5-0.8,0.5-1.3c0-1-0.5-1.4-1.6-1.4h-1V200.5z"/>
	<path class="st7" d="M92.7,197.1c0.3,0,0.6,0,0.9,0.1l0.2,0l-0.3,3.6c-0.3-0.1-0.7-0.1-1.3-0.1c-0.8,0-1.4,0.2-1.8,0.6
		c-0.4,0.4-0.6,0.9-0.6,1.6v5.4H86v-11.1h2.8l0.6,1.8h0.2c0.3-0.6,0.8-1.1,1.3-1.4C91.5,197.3,92.1,197.1,92.7,197.1z"/>
	<path class="st7" d="M100.7,208.5c-1.8,0-3.3-0.5-4.3-1.5c-1-1-1.5-2.4-1.5-4.2c0-1.9,0.5-3.3,1.4-4.3c0.9-1,2.3-1.5,4-1.5
		c1.7,0,3,0.4,3.9,1.3s1.4,2.1,1.4,3.8v1.7h-6.8c0,0.6,0.3,1.1,0.7,1.5c0.4,0.4,1,0.5,1.7,0.5c0.7,0,1.3-0.1,1.9-0.2
		c0.6-0.1,1.2-0.3,1.8-0.6v2.7c-0.6,0.3-1.2,0.5-1.9,0.6C102.4,208.5,101.6,208.5,100.7,208.5z M100.5,199.7c-0.4,0-0.8,0.1-1.1,0.4
		s-0.5,0.7-0.5,1.3h3.3c0-0.5-0.2-1-0.5-1.3C101.4,199.8,101,199.7,100.5,199.7z"/>
	<path class="st7" d="M114.4,208.5c-0.6,0-1.1-0.1-1.5-0.3c-0.4-0.2-0.9-0.5-1.3-1h-0.2c0.1,0.8,0.2,1.3,0.2,1.4v4.4h-3.8v-15.9h3.1
		l0.5,1.4h0.2c0.7-1.1,1.7-1.6,2.9-1.6c1.2,0,2.2,0.5,2.9,1.5c0.7,1,1,2.4,1,4.2c0,1.8-0.4,3.2-1.1,4.2
		C116.6,208,115.6,208.5,114.4,208.5z M113.1,200.1c-0.6,0-1,0.2-1.2,0.6s-0.3,1-0.4,1.8v0.3c0,1,0.1,1.6,0.4,2.1s0.7,0.6,1.2,0.6
		c0.5,0,0.8-0.2,1.1-0.6c0.2-0.4,0.3-1.1,0.3-2.1c0-1-0.1-1.6-0.3-2C114,200.3,113.6,200.1,113.1,200.1z"/>
	<path class="st7" d="M127.8,208.3l-0.7-1.5H127c-0.5,0.6-1,1.1-1.6,1.3c-0.5,0.2-1.2,0.4-2.1,0.4c-1,0-1.9-0.3-2.5-0.9
		c-0.6-0.6-0.9-1.5-0.9-2.6c0-1.2,0.4-2.1,1.2-2.6s2-0.9,3.6-1l1.8-0.1v-0.2c0-0.9-0.4-1.4-1.3-1.4c-0.8,0-1.8,0.3-3.1,0.8l-1.1-2.5
		c1.3-0.7,2.9-1,4.9-1c1.4,0,2.5,0.4,3.3,1.1c0.8,0.7,1.2,1.7,1.2,2.9v7.3H127.8z M125,205.8c0.5,0,0.9-0.1,1.2-0.4
		c0.3-0.3,0.5-0.7,0.5-1.1v-0.9l-0.9,0c-1.3,0-1.9,0.5-1.9,1.4C123.9,205.5,124.3,205.8,125,205.8z"/>
	<path class="st7" d="M139.8,197.1c0.3,0,0.6,0,0.9,0.1l0.2,0l-0.3,3.6c-0.3-0.1-0.7-0.1-1.3-0.1c-0.8,0-1.4,0.2-1.8,0.6
		c-0.4,0.4-0.6,0.9-0.6,1.6v5.4h-3.8v-11.1h2.8l0.6,1.8h0.2c0.3-0.6,0.8-1.1,1.3-1.4C138.6,197.3,139.2,197.1,139.8,197.1z"/>
	<path class="st7" d="M142.4,194.5c0-0.6,0.2-1,0.5-1.3c0.3-0.3,0.8-0.4,1.5-0.4c0.7,0,1.2,0.1,1.6,0.4c0.3,0.3,0.5,0.7,0.5,1.3
		c0,1.1-0.7,1.7-2,1.7C143.1,196.2,142.4,195.6,142.4,194.5z M146.3,208.3h-3.8v-11.1h3.8V208.3z"/>
	<path class="st7" d="M155.9,208.3v-6c0-0.7-0.1-1.3-0.3-1.7c-0.2-0.4-0.6-0.6-1-0.6c-0.6,0-1.1,0.3-1.4,0.8
		c-0.3,0.5-0.4,1.4-0.4,2.6v4.8H149v-11.1h2.9l0.5,1.4h0.2c0.3-0.5,0.8-0.9,1.4-1.2s1.2-0.4,2-0.4c1.2,0,2.2,0.4,2.9,1.1
		c0.7,0.7,1,1.7,1,3v7.2H155.9z"/>
	<path class="st7" d="M172.8,197.3v1.8l-1.5,0.6c0.2,0.4,0.3,0.8,0.3,1.3c0,1.2-0.4,2.1-1.3,2.8c-0.8,0.7-2.1,1-3.7,1
		c-0.4,0-0.7,0-1-0.1c-0.1,0.2-0.1,0.3-0.1,0.5c0,0.2,0.2,0.3,0.5,0.4c0.3,0.1,0.7,0.2,1.2,0.2h1.8c2.5,0,3.7,1,3.7,3.1
		c0,1.3-0.6,2.4-1.7,3.1c-1.1,0.7-2.8,1.1-4.8,1.1c-1.6,0-2.8-0.3-3.6-0.8s-1.3-1.3-1.3-2.3c0-1.3,0.8-2.2,2.5-2.6
		c-0.3-0.1-0.6-0.4-0.9-0.7c-0.3-0.3-0.4-0.6-0.4-0.9c0-0.3,0.1-0.6,0.3-0.9c0.2-0.3,0.6-0.6,1.2-0.9c-0.6-0.3-1-0.7-1.4-1.2
		c-0.3-0.5-0.5-1.2-0.5-2c0-1.2,0.4-2.1,1.2-2.8s2-1,3.5-1c0.2,0,0.5,0,1,0.1c0.5,0,0.9,0.1,1.1,0.1H172.8z M164.5,209.7
		c0,0.3,0.2,0.6,0.5,0.8c0.3,0.2,0.8,0.3,1.4,0.3c0.9,0,1.7-0.1,2.2-0.3s0.8-0.5,0.8-0.9c0-0.3-0.2-0.5-0.5-0.6
		c-0.3-0.1-0.8-0.2-1.5-0.2h-1.5c-0.4,0-0.8,0.1-1,0.3S164.5,209.4,164.5,209.7z M165.7,200.9c0,1.1,0.4,1.7,1.2,1.7
		c0.4,0,0.6-0.1,0.8-0.4c0.2-0.3,0.3-0.7,0.3-1.3c0-1.1-0.4-1.7-1.1-1.7C166.1,199.2,165.7,199.8,165.7,200.9z"/>
	<path class="st7" d="M186.4,200.1h-2.4v8.2h-3.8v-8.2h-1.5v-1.9l1.5-0.9v-0.2c0-1.5,0.3-2.5,0.9-3.1s1.6-1,2.9-1c0.5,0,1,0,1.4,0.1
		c0.5,0.1,1,0.2,1.6,0.4l-0.8,2.5c-0.5-0.1-0.9-0.2-1.4-0.2c-0.3,0-0.5,0.1-0.6,0.3c-0.1,0.2-0.2,0.5-0.2,0.9v0.3h2.4V200.1z"/>
	<path class="st7" d="M198.5,202.8c0,1.8-0.5,3.2-1.5,4.2c-1,1-2.3,1.5-4.1,1.5c-1.7,0-3-0.5-4-1.6c-1-1-1.5-2.4-1.5-4.2
		c0-1.8,0.5-3.2,1.5-4.2c1-1,2.3-1.5,4.1-1.5c1.1,0,2,0.2,2.9,0.7c0.8,0.5,1.5,1.1,1.9,2C198.3,200.6,198.5,201.6,198.5,202.8z
		 M191.3,202.8c0,1,0.1,1.7,0.4,2.2s0.7,0.7,1.3,0.7c0.6,0,1-0.2,1.3-0.7s0.4-1.2,0.4-2.2c0-0.9-0.1-1.7-0.4-2.1
		c-0.2-0.5-0.7-0.7-1.3-0.7c-0.6,0-1,0.2-1.3,0.7S191.3,201.8,191.3,202.8z"/>
	<path class="st7" d="M207.4,197.1c0.3,0,0.6,0,0.9,0.1l0.2,0l-0.3,3.6c-0.3-0.1-0.7-0.1-1.3-0.1c-0.8,0-1.4,0.2-1.8,0.6
		c-0.4,0.4-0.6,0.9-0.6,1.6v5.4h-3.8v-11.1h2.8l0.6,1.8h0.2c0.3-0.6,0.8-1.1,1.3-1.4C206.2,197.3,206.8,197.1,207.4,197.1z"/>
	<path class="st7" d="M107.2,221c-0.9,0-1.6,0.4-2.1,1.1c-0.5,0.8-0.8,1.8-0.8,3.1c0,2.7,1,4.1,3.1,4.1c0.6,0,1.2-0.1,1.8-0.3
		c0.6-0.2,1.2-0.4,1.8-0.6v3.3c-1.2,0.5-2.5,0.8-4,0.8c-2.2,0-3.8-0.6-5-1.9c-1.1-1.2-1.7-3.1-1.7-5.4c0-1.5,0.3-2.8,0.8-3.9
		s1.4-2,2.4-2.6s2.3-0.9,3.7-0.9c1.5,0,3,0.3,4.4,1l-1.2,3c-0.5-0.2-1.1-0.5-1.6-0.6S107.8,221,107.2,221z"/>
	<path class="st7" d="M120.6,232.3v-6c0-1.5-0.4-2.2-1.3-2.2c-0.6,0-1.1,0.3-1.4,0.8c-0.3,0.5-0.4,1.4-0.4,2.6v4.9h-3.8v-15.2h3.8
		v2.2c0,1-0.1,2.1-0.2,3.3h0.2c0.4-0.6,0.8-1,1.3-1.2c0.5-0.2,1.1-0.4,1.7-0.4c1.2,0,2.2,0.4,2.9,1.1c0.7,0.7,1,1.7,1,3v7.2H120.6z"
		/>
	<path class="st7" d="M126.9,218.5c0-0.6,0.2-1,0.5-1.3c0.3-0.3,0.8-0.4,1.5-0.4c0.7,0,1.2,0.1,1.6,0.4c0.3,0.3,0.5,0.7,0.5,1.3
		c0,1.1-0.7,1.7-2,1.7C127.6,220.2,126.9,219.6,126.9,218.5z M130.9,232.3H127v-11.1h3.8V232.3z"/>
	<path class="st7" d="M137.3,232.3h-3.8v-15.2h3.8V232.3z"/>
	<path class="st7" d="M143.4,232.5c-0.8,0-1.5-0.2-2.1-0.7c-0.6-0.4-1-1.1-1.4-2s-0.5-1.9-0.5-3.1c0-1.8,0.4-3.2,1.1-4.2
		s1.7-1.5,3-1.5c0.6,0,1.2,0.1,1.6,0.4c0.5,0.2,0.9,0.7,1.3,1.2h0.1c-0.1-0.9-0.2-1.7-0.2-2.6v-3h3.8v15.2h-2.9l-0.8-1.4h-0.1
		C145.7,232,144.7,232.5,143.4,232.5z M145,229.5c0.6,0,1-0.2,1.3-0.6c0.2-0.4,0.4-1,0.4-1.8v-0.3c0-1-0.1-1.7-0.4-2.1
		c-0.3-0.4-0.7-0.6-1.3-0.6c-0.5,0-0.9,0.2-1.2,0.7c-0.3,0.5-0.4,1.1-0.4,2c0,0.9,0.1,1.5,0.4,2C144.1,229.3,144.5,229.5,145,229.5z
		"/>
	<path class="st7" d="M159.5,221.1c0.3,0,0.6,0,0.9,0.1l0.2,0l-0.3,3.6c-0.3-0.1-0.7-0.1-1.3-0.1c-0.8,0-1.4,0.2-1.8,0.6
		c-0.4,0.4-0.6,0.9-0.6,1.6v5.4h-3.8v-11.1h2.8l0.6,1.8h0.2c0.3-0.6,0.8-1.1,1.3-1.4C158.4,221.3,158.9,221.1,159.5,221.1z"/>
	<path class="st7" d="M167.6,232.5c-1.8,0-3.3-0.5-4.3-1.5c-1-1-1.5-2.4-1.5-4.2c0-1.9,0.5-3.3,1.4-4.3c0.9-1,2.3-1.5,4-1.5
		c1.7,0,3,0.4,3.9,1.3s1.4,2.1,1.4,3.8v1.7h-6.8c0,0.6,0.3,1.1,0.7,1.5c0.4,0.4,1,0.5,1.7,0.5c0.7,0,1.3-0.1,1.9-0.2
		c0.6-0.1,1.2-0.3,1.8-0.6v2.7c-0.6,0.3-1.2,0.5-1.9,0.6C169.2,232.5,168.5,232.5,167.6,232.5z M167.4,223.7c-0.4,0-0.8,0.1-1.1,0.4
		s-0.5,0.7-0.5,1.3h3.3c0-0.5-0.2-1-0.5-1.3C168.2,223.8,167.8,223.7,167.4,223.7z"/>
	<path class="st7" d="M181.6,232.3v-6c0-0.7-0.1-1.3-0.3-1.7c-0.2-0.4-0.6-0.6-1-0.6c-0.6,0-1.1,0.3-1.4,0.8
		c-0.3,0.5-0.4,1.4-0.4,2.6v4.8h-3.8v-11.1h2.9l0.5,1.4h0.2c0.3-0.5,0.8-0.9,1.4-1.2s1.2-0.4,2-0.4c1.2,0,2.2,0.4,2.9,1.1
		c0.7,0.7,1,1.7,1,3v7.2H181.6z"/>
</g>
<g>
	<g>
		<path class="st5" d="M129.6,109.8c-2.3,2.1-2.7,3.3-3.5,3.6c-0.4,0.1-0.4-1.1-0.7-1.1c-0.8,0-1.8,0.4-2.1,1.2
			c-0.4,1-1.8,0.5-2.6-0.6c-0.8-1.1,2.5-3,3.4-3.4c0.9-0.3,2.2-0.9,3.8-1.3C128.7,108,129.6,109.8,129.6,109.8z"/>
		<path class="st26" d="M146.3,73.3c-10.8,16.9-7.9,28.2-18.4,38.2l-1-3.2c10.6-13.2,1.8-21.8,13.1-34.8
			C140.2,68.8,146.4,68.6,146.3,73.3z"/>
		<g>
			<polygon class="st5" points="141.3,51.3 134.4,59.3 140.1,58.5 140,72 159.2,70.8 151.8,45.5 141.8,46.9 			"/>
			<path class="st26" d="M140.1,70.2c-5.1,13.5-2.3,31.9,0.7,47.2l17.4,0.5c-1.2-21.1-0.3-30.1,0.9-47L140.1,70.2z"/>
			<path class="st27" d="M145.2,56.7c-0.1,0-0.2,0-0.3,0c-1.1-0.1-2.1-1-2.2-2.5l0.5,0c0,1.2,0.9,2,1.7,2c0.7,0,1.6-0.5,1.7-2.1
				l0.5,0C146.9,55.9,146,56.6,145.2,56.7z"/>
			<path class="st27" d="M143.1,67.9l-0.1-0.5c2.2-0.3,4.9-1.9,5.7-4.4l0.5,0.2C148.3,65.9,145.5,67.6,143.1,67.9z"/>
			<g>
				<path class="st26" d="M151.8,52.9c1-0.1,1.9,0.6,2.1,1.6c0.1,0.5-0.1,1-0.4,1.4l2.5,3.6l-3.4-14.9l-15.2,2l4,4.7l7.8-1.6
					l2.3,3.3C151.5,53,151.6,52.9,151.8,52.9z"/>
			</g>
			<polygon class="st7" points="139.2,72 144.5,72.1 139.5,77.2 141.5,104.2 138,108.6 135.6,104.4 137.4,76.7 			"/>
			<polygon class="st26" points="156.3,112.5 176.3,167.5 167.9,170.8 171,164.6 146.8,115.9 149.9,108.6 			"/>
			<polygon class="st26" points="151.3,115.6 131.6,170.9 123,168.1 129.4,165.2 142,112.3 149,108.6 			"/>
			<g>
				<path class="st36" d="M158.2,117.9c-1-16.6-0.6-25.7,0.2-37c-2.5-1.9-3.6,3.5-3.3,6.4c0.2,2.9-0.4,22,0.9,30.1
					c1.1,7.3,16.5,44.2,19.2,50.7l1.2-0.5L158.2,117.9z"/>
			</g>
			<path class="st26" d="M159.2,70.8c8,2.5,15.4,20.4,13.6,42h-2.8c0-9.7-1.1-27.4-13.8-33.4L159.2,70.8z"/>
			<path class="st5" d="M169.9,112.9c-0.8,0.4-2.8,1.9-2.5,2.3c0.5,1,1,0.2,2.4-0.3c0.1,1.1-0.9,3.3,1.1,3.3c2,0,2.6,0,2.6,0
				c1.3-0.7,0.7-3.9-0.7-5.4H169.9z"/>
		</g>
	</g>
	<g>
		<path class="st5" d="M161.9,107.1c-1.8,0.4-1.6,0.8-2.2,1c-0.3,0.1-0.4-0.2-0.7-0.2c-0.5,0-0.7,0-1.1,0.4c-0.4,0.4,1.1,1.4,0.9,2
			c-0.2,0.4-1.4,0.1-2-1.1c-0.4-0.9-0.3-1.3-0.1-1.9c0.2-0.7,0.8-1.3,1.4-1.5c1.7-0.6,0.9-0.3,2.9-0.8
			C161.5,104.9,161.9,107.1,161.9,107.1z"/>
		<path class="st26" d="M178.4,81.9c-0.5,20-8.3,22.4-17.2,25.5l-0.7-2.3c12.6-4.6,12.3-7.9,13.9-23.2
			C174.6,78.3,178.3,78.7,178.4,81.9z"/>
		<g>
			<path class="st5" d="M186.3,68.4c-3.1,2.2-5.6,4.3-6,9.5l0,1l-5.3-0.1c0.9-1.9,2.9-3.6-1.4-7.7c-2.3-2.3-4.3-4.8-4.9-7.8
				l-2.9-0.4c2-0.5,2.6-2.7,3.2-4.7c1.2-3.8,6.1-8.4,14.4-6.5C191.2,53.3,194.1,62.9,186.3,68.4z"/>
			<polygon class="st5" points="184.4,124.8 198.3,170.5 193.6,171.8 195.2,167 179.2,126 180.8,120.4 			"/>
			<g>
				<polygon class="st6" points="193.6,171.8 198.3,170.5 197,166.2 195.1,166.7 195.2,167 				"/>
			</g>
			<polygon class="st5" points="176,125.9 160.2,171 155.6,169.5 159.5,166.4 171,124.1 175.4,120.3 			"/>
			<g>
				<polygon class="st6" points="155.6,169.5 160.2,171 161.7,166.7 159.6,166.1 159.5,166.4 				"/>
			</g>
			<path class="st27" d="M174.9,62.9c-0.3-0.1-0.5-0.3-0.8-0.5c-0.6-0.6-0.8-1.5-0.6-2.3l0.4,0.1c-0.2,0.7,0,1.4,0.5,1.9
				c0.5,0.5,1.1,0.7,1.7,0.5c0.6-0.2,1.1-0.8,1.4-1.7l0.4,0.1c-0.3,1.1-0.9,1.8-1.7,2.1C175.8,63.1,175.3,63,174.9,62.9z"/>
			<path class="st27" d="M174.8,70c-0.3-0.1-0.7-0.4-0.9-0.7l0.3-0.3c0.4,0.5,1.1,0.8,1.7,0.6c0.5-0.1,0.8-0.4,0.9-0.9l0.4,0.1
				c-0.1,0.6-0.6,1.1-1.2,1.2C175.7,70.2,175.2,70.1,174.8,70z"/>
			<path class="st26" d="M174.9,79c-3.8,17.2-3.8,25.9-7.7,56.5l22.4,0.7c-5.2-23.3-7.1-30.4-8.8-57.9L174.9,79z"/>
			<g>
				<path class="st26" d="M188.6,72.9c8.9-6.4,10.3-26-7-25.6c-9.5,0.2-10.6,6.7-13.3,5c0.7,5.7,9.6,7.2,13.1,5.2
					c0.7,0.8,1.1,1.9,1.4,3.1c0.3,0,0.5,0,0.8,0c1.3,0.3,2.1,1.6,1.8,2.9c-0.3,1.1-1.3,1.9-2.4,1.9c-0.4,7.4-2.7,16.3,6,15.2
					C186.5,80.3,182.7,77,188.6,72.9z"/>
			</g>
			<path class="st5" d="M193.1,113.3c-0.6,0.7-1.8,2.7-0.9,2.9c0.5,0.1,1.2-1.3,1.4-1c0.3,1-1.4,2.8,0.3,3.1
				c1.1,0.2,2.5-0.2,2.5-0.2c1.5-0.4,0.3-3.6-0.8-5.1L193.1,113.3z"/>
			<path class="st26" d="M180.7,78.2c9.1,4.7,15.4,15.8,15,35l-2.6,0c-0.1-8.9-1-24.2-14-30.6L180.7,78.2z"/>
			<polygon class="st7" points="181.3,78.5 180.4,76.6 176.3,78.6 175.1,77.5 174.6,78.7 175.1,80.1 175.1,100.2 177.9,80.1 			"/>
		</g>
		<g>
			<g>
				<path class="st7" d="M140.5,120.7c3.8,2.5,4.8,7.6,2.3,11.3c-2.5,3.8-7.6,4.8-11.4,2.3l-13.7-9c-3.8-2.5-4.8-7.6-2.3-11.3
					c2.5-3.8,7.6-4.8,11.4-2.3L140.5,120.7z"/>
				
					<ellipse transform="matrix(0.5523 -0.8337 0.8337 0.5523 -50.1631 154.1758)" class="st5" cx="118.5" cy="123.8" rx="0.9" ry="0.9"/>
				
					<ellipse transform="matrix(0.5523 -0.8337 0.8337 0.5523 -37.8515 155.3156)" class="st5" cx="125.7" cy="112.9" rx="0.9" ry="0.9"/>
				<path class="st5" d="M118.8,124.1c-3.1-2-3.9-6.1-1.9-9.2c2-3,6.1-3.9,9.2-1.9c3.1,2,3.9,6.1,1.9,9.2
					C126,125.3,121.8,126.1,118.8,124.1z"/>
				<g>
					
						<ellipse transform="matrix(0.5523 -0.8337 0.8337 0.5523 -44.3457 158.3236)" class="st7" cx="125.2" cy="120.4" rx="1.4" ry="1.5"/>
					
						<ellipse transform="matrix(0.5523 -0.8337 0.8337 0.5523 -44.3466 158.3825)" class="st9" cx="125.3" cy="120.5" rx="1.3" ry="1.3"/>
					
						<ellipse transform="matrix(0.5523 -0.8337 0.8337 0.5523 -44.3661 158.612)" class="st7" cx="125.5" cy="120.6" rx="0.6" ry="0.6"/>
					<path class="st7" d="M126,122.4c-0.5-0.3-0.5-1-0.4-1.2l0.2-0.4l0.2-0.4c0.1-0.2,0.8-0.4,1.2-0.1c0.4,0.3,0.4,0.6-0.1,1.3
						C126.7,122.5,126.5,122.7,126,122.4z M126.9,121.5c0.4-0.7,0.5-0.8,0.3-1c-0.4-0.3-0.8-0.1-0.9,0L126,121l-0.2,0.3
						c-0.1,0.1-0.1,0.6,0.3,0.9C126.3,122.3,126.5,122.2,126.9,121.5z"/>
					<path class="st7" d="M125.8,120.3L125.8,120.3c-0.2-0.1-0.5-0.1-0.6,0.1c-0.1,0.2-0.1,0.4,0.1,0.6l0,0c0.2,0.1,0.1,0.3,0.3,0.5
						c0.2,0.1,0.3,0,0.3,0l0.5-0.7c0-0.1,0.1-0.2-0.1-0.3C126.1,120.2,125.9,120.4,125.8,120.3z"/>
				</g>
				<path class="st6" d="M120.1,116.5c0,0.2-0.1,0.3-0.2,0.5c-0.3,0.5-0.8,0.8-1.3,0.7c-0.4,0-0.8-0.3-1-0.7
					c-0.2-0.4-0.2-0.9,0.1-1.4c0-0.1,0.1-0.1,0.2,0c0.1,0,0.1,0.1,0,0.2c-0.3,0.4-0.3,0.8-0.1,1.2c0.2,0.3,0.5,0.5,0.9,0.6
					c0.4,0,0.8-0.2,1.1-0.6c0.2-0.3,0.2-0.5,0.1-0.7c-0.1-0.1-0.2-0.2-0.3-0.2c-0.2,0-0.4,0.1-0.6,0.4c0,0.1-0.1,0.1-0.2,0
					c-0.1,0-0.1-0.1,0-0.2c0.3-0.5,0.7-0.6,0.8-0.5c0.2,0,0.4,0.1,0.5,0.3C120.1,116.2,120.1,116.3,120.1,116.5z"/>
				<g>
					<path class="st9" d="M130.4,127.4c0.3-0.3,0.6-0.7,0.9-1.1c1.1-1.6,1.7-3.8,1.8-6c0-1.9-0.3-3.6-1.1-5.1l-0.8-0.5
						c1,1.6,1.5,3.5,1.5,5.7c-0.1,3-1.3,5.8-3.1,7.3c-3.1,0.7-5.9,0.8-8,0.2l1,0.7c5.3,0.8,13.5-1.8,19.5-6.5
						c-0.1-0.1-0.2-0.2-0.3-0.3C138.3,124.3,134.2,126.3,130.4,127.4z"/>
				</g>
			</g>
			<path class="st6" d="M120,121.3c-0.1,0.2-0.4,0.4-0.6,0.4c-0.3,0.1-0.6,0-0.9-0.2c-0.1,0-0.1-0.1,0-0.2c0-0.1,0.1-0.1,0.2,0
				c0.5,0.3,0.9,0.1,1.1-0.2c0.1-0.2,0.2-0.4,0.1-0.6c0-0.2-0.2-0.4-0.4-0.6c-0.1,0-0.1-0.1,0-0.2c0-0.1,0.1-0.1,0.2,0
				C120.2,120.2,120.2,120.8,120,121.3z"/>
			<path class="st6" d="M123.9,115.3c-0.1,0.2-0.4,0.4-0.6,0.4c-0.3,0.1-0.6,0-0.9-0.2c-0.1,0-0.1-0.1,0-0.2c0-0.1,0.1-0.1,0.2,0
				c0.5,0.3,0.9,0.1,1.1-0.2c0.2-0.3,0.2-0.8-0.3-1.1c-0.1,0-0.1-0.1,0-0.2c0-0.1,0.1-0.1,0.2,0
				C124.2,114.3,124.2,114.9,123.9,115.3z"/>
		</g>
		<g>
			<rect x="121.8" y="139.4" transform="matrix(0.5 -0.866 0.866 0.5 -71.4914 182.5778)" class="st7" width="1.1" height="27.6"/>
			<g>
				<rect x="134.2" y="150.8" transform="matrix(0.5 -0.866 0.866 0.5 -71.4896 196.4635)" class="st7" width="0.5" height="18.6"/>
				<rect x="125.1" y="159.9" class="st7" width="18.6" height="0.5"/>
				
					<rect x="125.1" y="159.8" transform="matrix(0.8661 -0.4999 0.4999 0.8661 -62.0118 88.6088)" class="st7" width="18.6" height="0.5"/>
				
					<rect x="125.1" y="159.8" transform="matrix(0.5002 -0.8659 0.8659 0.5002 -71.4158 196.3252)" class="st7" width="18.6" height="0.5"/>
				<rect x="134.1" y="150.7" class="st7" width="0.5" height="18.6"/>
				<rect x="134" y="150.7" transform="matrix(0.866 -0.5 0.5 0.866 -62.0292 88.5694)" class="st7" width="0.5" height="18.6"/>
			</g>
			<path class="st7" d="M128.8,169.6c-5.3-3-7.1-9.8-4-15.1c3-5.3,9.8-7.1,15.1-4c5.3,3,7.1,9.8,4,15.1
				C140.8,170.9,134.1,172.7,128.8,169.6z M141.9,164.5c2.4-4.2,1-9.6-3.2-12c-4.2-2.4-9.6-1-12,3.2c-2.4,4.2-1,9.6,3.2,12
				C134.1,170.1,139.5,168.7,141.9,164.5z"/>
			<path class="st9" d="M129.5,168.4c-4.6-2.7-6.2-8.5-3.5-13.1c2.7-4.6,8.5-6.2,13.1-3.5c4.6,2.7,6.2,8.5,3.5,13.1
				C140,169.5,134.1,171.1,129.5,168.4z M141.9,164.5c2.4-4.2,1-9.6-3.2-12c-4.2-2.4-9.6-1-12,3.2c-2.4,4.2-1,9.6,3.2,12
				C134.1,170.1,139.5,168.7,141.9,164.5z"/>
			<ellipse transform="matrix(0.5 -0.866 0.866 0.5 -71.4879 196.3979)" class="st9" cx="134.3" cy="160.1" rx="2.8" ry="2.8"/>
			<ellipse transform="matrix(0.5 -0.866 0.866 0.5 -71.4859 196.395)" class="st7" cx="134.3" cy="160.1" rx="2.2" ry="2.2"/>
		</g>
		<g>
			<rect x="101.7" y="152.7" transform="matrix(0.866 -0.5 0.5 0.866 -61.1266 78.294)" class="st7" width="27.6" height="1.1"/>
			<g>
				
					<rect x="94.2" y="159.9" transform="matrix(0.8661 -0.4999 0.4999 0.8661 -66.1951 73.1837)" class="st7" width="18.6" height="0.5"/>
				<rect x="94.2" y="159.9" class="st7" width="18.6" height="0.5"/>
				<rect x="103.3" y="150.8" transform="matrix(0.5 -0.866 0.866 0.5 -86.8556 169.6685)" class="st7" width="0.5" height="18.6"/>
				<rect x="103.3" y="150.7" transform="matrix(0.866 -0.5 0.5 0.866 -66.1397 73.2126)" class="st7" width="0.5" height="18.6"/>
				<rect x="103.4" y="150.7" class="st7" width="0.5" height="18.6"/>
				
					<rect x="94.3" y="159.8" transform="matrix(0.5002 -0.8659 0.8659 0.5002 -86.7774 169.727)" class="st7" width="18.6" height="0.5"/>
			</g>
			<path class="st7" d="M94,165.6c-3-5.3-1.2-12,4-15.1c5.3-3,12-1.2,15.1,4c3,5.3,1.2,12-4,15.1C103.8,172.7,97.1,170.9,94,165.6z
				 M108,167.7c4.2-2.4,5.6-7.8,3.2-12c-2.4-4.2-7.8-5.6-12-3.2c-4.2,2.4-5.6,7.8-3.2,12C98.4,168.7,103.8,170.1,108,167.7z"/>
			<path class="st9" d="M95.3,164.9c-2.7-4.6-1.1-10.5,3.5-13.1c4.6-2.7,10.5-1.1,13.1,3.5c2.7,4.6,1.1,10.5-3.5,13.1
				C103.8,171.1,97.9,169.5,95.3,164.9z M108,167.7c4.2-2.4,5.6-7.8,3.2-12c-2.4-4.2-7.8-5.6-12-3.2c-4.2,2.4-5.6,7.8-3.2,12
				C98.4,168.7,103.8,170.1,108,167.7z"/>
			<ellipse transform="matrix(0.866 -0.5 0.5 0.866 -66.181 73.2278)" class="st9" cx="103.6" cy="160.1" rx="2.8" ry="2.8"/>
			<ellipse transform="matrix(0.866 -0.5 0.5 0.866 -66.1794 73.2288)" class="st7" cx="103.6" cy="160.1" rx="2.2" ry="2.2"/>
		</g>
		<path class="st9" d="M125.5,98.7c-2.4,0.3-5.7,0.5-9.5,0.5c-3.6,0-6.9-0.2-9.3-0.5l9.4,25.7L125.5,98.7z"/>
		<path class="st34" d="M106.8,98.7c-1.6,1.8-4.1,4.1-6.9,6.4c-2.8,2.3-5.4,4.3-7.4,5.6l23.7,13.6L106.8,98.7z"/>
		<path class="st43" d="M92.4,128.6l23.7-4.2l-23.7-13.7c-0.1,2.4-0.5,5.7-1.2,9.4c-0.2,1.3-0.6,2.8-0.8,3.9L92.4,128.6z"/>
		<g>
			<path class="st43" d="M114.8,128.6c-0.1,0-0.1,0-0.2,0c-0.3-0.1-0.5-0.5-0.4-0.8l10.6-29.2c0.1-0.3,0.5-0.5,0.8-0.4
				c0.3,0.1,0.5,0.5,0.4,0.8l-10.6,29.2C115.3,128.5,115.1,128.6,114.8,128.6z"/>
			<path class="st43" d="M117.5,128.6c-0.2,0-0.5-0.2-0.6-0.4L106.3,99c-0.1-0.3,0-0.7,0.4-0.8c0.3-0.1,0.7,0,0.8,0.4l10.6,29.2
				c0.1,0.3,0,0.7-0.4,0.8C117.6,128.6,117.5,128.6,117.5,128.6z"/>
			<path class="st43" d="M119.5,126.9c-0.1,0-0.2,0-0.3-0.1l-27-15.6c-0.3-0.2-0.4-0.5-0.2-0.8c0.2-0.3,0.5-0.4,0.8-0.2l27,15.6
				c0.3,0.2,0.4,0.5,0.2,0.8C119.9,126.8,119.7,126.9,119.5,126.9z"/>
		</g>
		<g>
			<path class="st9" d="M114.8,128.2C114.8,128.2,114.8,128.2,114.8,128.2c-0.1,0-0.2-0.1-0.1-0.2l10.6-29.2c0-0.1,0.1-0.1,0.2-0.1
				c0.1,0,0.1,0.1,0.1,0.2l-10.6,29.2C114.9,128.1,114.9,128.2,114.8,128.2z"/>
			<path class="st9" d="M117.5,128.2c-0.1,0-0.1,0-0.1-0.1l-10.6-29.2c0-0.1,0-0.1,0.1-0.2c0.1,0,0.1,0,0.2,0.1l10.6,29.2
				C117.6,128.1,117.6,128.1,117.5,128.2C117.5,128.2,117.5,128.2,117.5,128.2z"/>
			<path class="st9" d="M119.5,126.5C119.5,126.5,119.5,126.4,119.5,126.5l-27-15.6c-0.1,0-0.1-0.1,0-0.2c0-0.1,0.1-0.1,0.2,0
				l27,15.6c0.1,0,0.1,0.1,0,0.2C119.6,126.4,119.6,126.5,119.5,126.5z"/>
		</g>
		<path class="st9" d="M147.5,124.1v7c0,7.7-8.8,16.1-19.5,16.1h-18.1c-10.7,0-19.5-8.4-19.5-16.1v-7H147.5z"/>
		<g>
			<path class="st7" d="M147.5,124.1H90.4v0.6l0,0c0,0,0,0,0,0v0h0c0,1.1,1.2,2,2.6,2c1.4,0,2.6-0.9,2.6-1.9c0,1.1,1.2,1.9,2.6,1.9
				s2.6-0.9,2.6-1.9c0,1.1,1.2,1.9,2.6,1.9s2.6-0.9,2.6-1.9c0,1.1,1.2,1.9,2.6,1.9s2.6-0.9,2.6-1.9c0,1.1,1.2,1.9,2.6,1.9
				c1.4,0,2.6-0.9,2.6-1.9c0,1.1,1.2,1.9,2.6,1.9s2.6-0.9,2.6-1.9c0,1.1,1.2,1.9,2.6,1.9s2.6-0.9,2.6-1.9c0,1.1,1.2,1.9,2.6,1.9
				c1.4,0,2.6-0.9,2.6-1.9c0,1.1,1.2,1.9,2.6,1.9c1.4,0,2.6-0.9,2.6-1.9c0,1.1,1.2,1.9,2.6,1.9c1.4,0,2.6-0.9,2.6-1.9
				c0,1.1,1.2,1.9,2.6,1.9c1.4,0,2.6-0.9,2.6-2L147.5,124.1z M91.6,125.6c-0.2,0-0.3-0.1-0.3-0.3c0-0.2,0.1-0.3,0.3-0.3
				s0.3,0.1,0.3,0.3C92,125.4,91.8,125.6,91.6,125.6z M93,125.9c-0.2,0-0.3-0.1-0.3-0.3s0.1-0.3,0.3-0.3c0.2,0,0.3,0.1,0.3,0.3
				S93.1,125.9,93,125.9z M94.3,125.6c-0.2,0-0.3-0.1-0.3-0.3c0-0.2,0.1-0.3,0.3-0.3c0.2,0,0.3,0.1,0.3,0.3
				C94.6,125.4,94.4,125.6,94.3,125.6z M96.8,125.6c-0.2,0-0.3-0.1-0.3-0.3c0-0.2,0.1-0.3,0.3-0.3c0.2,0,0.3,0.1,0.3,0.3
				C97.1,125.4,97,125.6,96.8,125.6z M98.2,125.9c-0.2,0-0.3-0.1-0.3-0.3s0.1-0.3,0.3-0.3c0.2,0,0.3,0.1,0.3,0.3
				S98.3,125.9,98.2,125.9z M99.5,125.6c-0.2,0-0.3-0.1-0.3-0.3c0-0.2,0.1-0.3,0.3-0.3c0.2,0,0.3,0.1,0.3,0.3
				C99.8,125.4,99.6,125.6,99.5,125.6z M102,125.6c-0.2,0-0.3-0.1-0.3-0.3c0-0.2,0.1-0.3,0.3-0.3c0.2,0,0.3,0.1,0.3,0.3
				C102.3,125.4,102.2,125.6,102,125.6z M103.3,125.9c-0.2,0-0.3-0.1-0.3-0.3s0.1-0.3,0.3-0.3c0.2,0,0.3,0.1,0.3,0.3
				S103.5,125.9,103.3,125.9z M104.7,125.6c-0.2,0-0.3-0.1-0.3-0.3c0-0.2,0.1-0.3,0.3-0.3c0.2,0,0.3,0.1,0.3,0.3
				C105,125.4,104.8,125.6,104.7,125.6z M107.2,125.6c-0.2,0-0.3-0.1-0.3-0.3c0-0.2,0.1-0.3,0.3-0.3c0.2,0,0.3,0.1,0.3,0.3
				C107.5,125.4,107.4,125.6,107.2,125.6z M108.5,125.9c-0.2,0-0.3-0.1-0.3-0.3s0.1-0.3,0.3-0.3c0.2,0,0.3,0.1,0.3,0.3
				S108.7,125.9,108.5,125.9z M109.9,125.6c-0.2,0-0.3-0.1-0.3-0.3c0-0.2,0.1-0.3,0.3-0.3c0.2,0,0.3,0.1,0.3,0.3
				C110.2,125.4,110,125.6,109.9,125.6z M112.4,125.6c-0.2,0-0.3-0.1-0.3-0.3c0-0.2,0.1-0.3,0.3-0.3s0.3,0.1,0.3,0.3
				C112.7,125.4,112.6,125.6,112.4,125.6z M113.7,125.9c-0.2,0-0.3-0.1-0.3-0.3s0.1-0.3,0.3-0.3c0.2,0,0.3,0.1,0.3,0.3
				S113.9,125.9,113.7,125.9z M115,125.6c-0.2,0-0.3-0.1-0.3-0.3c0-0.2,0.1-0.3,0.3-0.3c0.2,0,0.3,0.1,0.3,0.3
				C115.4,125.4,115.2,125.6,115,125.6z M117.6,125.6c-0.2,0-0.3-0.1-0.3-0.3c0-0.2,0.1-0.3,0.3-0.3c0.2,0,0.3,0.1,0.3,0.3
				C117.9,125.4,117.8,125.6,117.6,125.6z M118.9,125.9c-0.2,0-0.3-0.1-0.3-0.3s0.1-0.3,0.3-0.3c0.2,0,0.3,0.1,0.3,0.3
				S119.1,125.9,118.9,125.9z M120.2,125.6c-0.2,0-0.3-0.1-0.3-0.3c0-0.2,0.1-0.3,0.3-0.3c0.2,0,0.3,0.1,0.3,0.3
				C120.5,125.4,120.4,125.6,120.2,125.6z M122.8,125.6c-0.2,0-0.3-0.1-0.3-0.3c0-0.2,0.1-0.3,0.3-0.3c0.2,0,0.3,0.1,0.3,0.3
				C123.1,125.4,123,125.6,122.8,125.6z M124.1,125.9c-0.2,0-0.3-0.1-0.3-0.3s0.1-0.3,0.3-0.3c0.2,0,0.3,0.1,0.3,0.3
				S124.3,125.9,124.1,125.9z M125.4,125.6c-0.2,0-0.3-0.1-0.3-0.3c0-0.2,0.1-0.3,0.3-0.3c0.2,0,0.3,0.1,0.3,0.3
				C125.7,125.4,125.6,125.6,125.4,125.6z M128,125.6c-0.2,0-0.3-0.1-0.3-0.3c0-0.2,0.1-0.3,0.3-0.3c0.2,0,0.3,0.1,0.3,0.3
				C128.3,125.4,128.2,125.6,128,125.6z M129.3,125.9c-0.2,0-0.3-0.1-0.3-0.3s0.1-0.3,0.3-0.3c0.2,0,0.3,0.1,0.3,0.3
				S129.5,125.9,129.3,125.9z M130.6,125.6c-0.2,0-0.3-0.1-0.3-0.3c0-0.2,0.1-0.3,0.3-0.3c0.2,0,0.3,0.1,0.3,0.3
				C130.9,125.4,130.8,125.6,130.6,125.6z M133.2,125.6c-0.2,0-0.3-0.1-0.3-0.3c0-0.2,0.1-0.3,0.3-0.3s0.3,0.1,0.3,0.3
				C133.5,125.4,133.4,125.6,133.2,125.6z M134.5,125.9c-0.2,0-0.3-0.1-0.3-0.3s0.1-0.3,0.3-0.3c0.2,0,0.3,0.1,0.3,0.3
				S134.7,125.9,134.5,125.9z M135.8,125.6c-0.2,0-0.3-0.1-0.3-0.3c0-0.2,0.1-0.3,0.3-0.3c0.2,0,0.3,0.1,0.3,0.3
				C136.1,125.4,136,125.6,135.8,125.6z M138.4,125.6c-0.2,0-0.3-0.1-0.3-0.3c0-0.2,0.1-0.3,0.3-0.3c0.2,0,0.3,0.1,0.3,0.3
				C138.7,125.4,138.6,125.6,138.4,125.6z M139.7,125.9c-0.2,0-0.3-0.1-0.3-0.3s0.1-0.3,0.3-0.3c0.2,0,0.3,0.1,0.3,0.3
				S139.9,125.9,139.7,125.9z M141,125.6c-0.2,0-0.3-0.1-0.3-0.3c0-0.2,0.1-0.3,0.3-0.3c0.2,0,0.3,0.1,0.3,0.3
				C141.3,125.4,141.2,125.6,141,125.6z M143.6,125.6c-0.2,0-0.3-0.1-0.3-0.3c0-0.2,0.1-0.3,0.3-0.3c0.2,0,0.3,0.1,0.3,0.3
				C143.9,125.4,143.8,125.6,143.6,125.6z M144.9,125.9c-0.2,0-0.3-0.1-0.3-0.3s0.1-0.3,0.3-0.3c0.2,0,0.3,0.1,0.3,0.3
				S145.1,125.9,144.9,125.9z M146.2,125.6c-0.2,0-0.3-0.1-0.3-0.3c0-0.2,0.1-0.3,0.3-0.3c0.2,0,0.3,0.1,0.3,0.3
				C146.5,125.4,146.4,125.6,146.2,125.6z"/>
		</g>
		<linearGradient id="SVGID_2_" gradientUnits="userSpaceOnUse" x1="101.7003" y1="145.1972" x2="101.7003" y2="131.0628">
			<stop  offset="0" style="stop-color:#FFFFFF"/>
			<stop  offset="1" style="stop-color:#D8E2E7"/>
		</linearGradient>
		<path style="fill:url(#SVGID_2_);" d="M92.9,131.1c0,5.8,6.3,14.1,17.5,14.1c-4.9-1.5-9.4-8.8-9.4-14.1H92.9z"/>
		<path class="st7" d="M129.2,148.9H126c-0.6,0-1-0.5-1-1s0.5-1,1-1h3.2c0.6,0,3.6-0.2,5.5-3.8l14.5-30c2.1-4.7,5.4-5.2,6.7-5.2h3.4
			c0.6,0,1,0.5,1,1c0,0.6-0.5,1-1,1h-3.4c-0.9,0-3.2,0.4-4.8,4l-14.5,30C134.7,147.6,131.5,148.9,129.2,148.9z"/>
		<rect x="110" y="146.2" class="st43" width="17.4" height="3.3"/>
		<rect x="110" y="147" class="st34" width="17.4" height="0.9"/>
	</g>
</g>
</svg>
