<?xml version="1.0" encoding="utf-8"?>
<!-- Generator: Adobe Illustrator 22.1.0, SVG Export Plug-In . SVG Version: 6.00 Build 0)  -->
<!DOCTYPE svg PUBLIC "-//W3C//DTD SVG 1.1//EN" "http://www.w3.org/Graphics/SVG/1.1/DTD/svg11.dtd">
<svg version="1.1" id="Layer_1" xmlns="http://www.w3.org/2000/svg" xmlns:xlink="http://www.w3.org/1999/xlink" x="0px" y="0px"
	 viewBox="0 0 1306.2 658.6" style="enable-background:new 0 0 1306.2 658.6;" xml:space="preserve">
<style type="text/css">
	.st0{fill:none;stroke:#FFFFFF;stroke-width:1.5;stroke-miterlimit:10;}
	.st1{enable-background:new    ;}
	.st2{fill:#FFFFFF;}
</style>
<polyline class="st0" points="117.3,175.4 117.3,146.4 1164.3,146.4 1164.3,175.4 "/>
<line class="st0" x1="418.3" y1="175.4" x2="418.3" y2="146.4"/>
<line class="st0" x1="692.3" y1="175.4" x2="692.3" y2="105.4"/>
<line class="st0" x1="946.3" y1="175.4" x2="946.3" y2="146.4"/>
<rect x="610.3" y="35.4" class="st0" width="164" height="70"/>
<rect x="35.3" y="175.4" class="st0" width="179.7" height="70"/>
<rect x="338.2" y="175.4" class="st0" width="164" height="70"/>
<rect x="865.3" y="175.4" class="st0" width="164" height="70"/>
<rect x="1101.2" y="175.4" class="st0" width="164" height="70"/>
<rect x="610.3" y="175.4" class="st0" width="164" height="70"/>
<rect x="37.3" y="260.7" class="st0" width="39.5" height="39.5"/>
<rect x="338.2" y="260.7" class="st0" width="39.5" height="39.5"/>
<rect x="1101.2" y="260.7" class="st0" width="39.5" height="39.5"/>
<g>
	<rect x="348.7" y="324.1" class="st0" width="29" height="25.5"/>
	<polyline class="st0" points="372.8,324.1 372.8,320.1 345,320.1 345,345.7 348.7,345.7 	"/>
	<polyline class="st0" points="366.7,320.1 366.7,313.9 339,313.9 339,340.7 345,340.7 	"/>
</g>
<g>
	<rect x="621.8" y="269.9" class="st0" width="29" height="25.5"/>
	<polyline class="st0" points="646,269.9 646,265.9 618.2,265.9 618.2,291.6 621.8,291.6 	"/>
	<polyline class="st0" points="639.8,265.9 639.8,259.7 612.2,259.7 612.2,286.6 618.2,286.6 	"/>
</g>
<g class="st1">
	<path class="st2" d="M661.7,75.6H660V65.1l-2.6,0v-1.3l4.3-0.4V75.6z"/>
	<path class="st2" d="M668.3,75.6h-1.6V74h1.6V75.6z"/>
	<path class="st2" d="M678.5,71.4c0,1.4-0.3,2.4-1,3.2s-1.6,1.2-2.8,1.2c-1.2,0-2.1-0.4-2.8-1.2c-0.7-0.8-1.1-1.9-1.1-3.2v-3.6
		c0-1.4,0.3-2.4,1-3.2s1.6-1.2,2.8-1.2c1.2,0,2.1,0.4,2.8,1.2c0.7,0.8,1,1.9,1,3.2V71.4z M676.9,67.5c0-0.9-0.2-1.6-0.6-2.1
		c-0.4-0.5-0.9-0.8-1.6-0.8c-0.7,0-1.2,0.3-1.6,0.8c-0.4,0.5-0.6,1.2-0.6,2.1v4.2c0,0.9,0.2,1.6,0.6,2.1c0.4,0.5,0.9,0.8,1.6,0.8
		c0.7,0,1.3-0.3,1.6-0.8c0.4-0.5,0.6-1.2,0.6-2.1V67.5z"/>
	<path class="st2" d="M694.2,75.6h-1.6v-5.3h-5.9v5.3h-1.6V63.5h1.6V69h5.9v-5.5h1.6V75.6z"/>
	<path class="st2" d="M696.5,71.1c0-1.3,0.4-2.4,1.1-3.3c0.7-0.9,1.7-1.3,2.9-1.3c1.2,0,2.2,0.4,3,1.3c0.7,0.9,1.1,2,1.1,3.3v0.2
		c0,1.3-0.4,2.4-1.1,3.3c-0.7,0.9-1.7,1.3-2.9,1.3c-1.2,0-2.2-0.4-2.9-1.3c-0.7-0.9-1.1-1.9-1.1-3.3V71.1z M698.1,71.2
		c0,1,0.2,1.7,0.6,2.4c0.4,0.6,1,0.9,1.8,0.9c0.8,0,1.4-0.3,1.8-0.9c0.4-0.6,0.6-1.4,0.6-2.4v-0.2c0-0.9-0.2-1.7-0.6-2.3
		c-0.4-0.6-1-0.9-1.8-0.9c-0.8,0-1.4,0.3-1.8,0.9c-0.4,0.6-0.6,1.4-0.6,2.3V71.2z"/>
	<path class="st2" d="M708,66.7l0.1,1.2c0.3-0.4,0.7-0.8,1.1-1s1-0.4,1.6-0.4s1.1,0.1,1.5,0.4c0.4,0.3,0.8,0.7,1,1.2
		c0.3-0.5,0.7-0.9,1.1-1.2c0.5-0.3,1-0.4,1.6-0.4c0.9,0,1.6,0.3,2.2,0.9s0.8,1.6,0.8,2.8v5.4h-1.6v-5.4c0-0.9-0.2-1.5-0.5-1.9
		c-0.3-0.4-0.8-0.6-1.4-0.6c-0.6,0-1,0.2-1.4,0.6s-0.5,0.9-0.6,1.5v0.1v5.7h-1.6v-5.4c0-0.8-0.2-1.5-0.5-1.8
		c-0.3-0.4-0.8-0.6-1.3-0.6c-0.5,0-0.9,0.1-1.2,0.3c-0.3,0.2-0.6,0.5-0.7,0.9v6.6h-1.6v-9H708z"/>
	<path class="st2" d="M725.1,75.8c-1.3,0-2.3-0.4-3-1.2c-0.7-0.8-1.1-1.9-1.1-3.3V71c0-1.3,0.4-2.4,1.1-3.2s1.7-1.3,2.7-1.3
		c1.2,0,2.1,0.4,2.7,1.1c0.6,0.7,0.9,1.7,0.9,3v0.9h-5.7l0,0c0,0.9,0.2,1.6,0.6,2.2s1,0.8,1.8,0.8c0.6,0,1-0.1,1.5-0.2
		c0.4-0.2,0.8-0.4,1.1-0.7l0.6,1.1c-0.3,0.3-0.7,0.6-1.3,0.8C726.5,75.7,725.8,75.8,725.1,75.8z M724.8,67.8c-0.6,0-1,0.2-1.4,0.7
		c-0.4,0.4-0.6,1-0.7,1.7l0,0h4.1V70c0-0.7-0.2-1.2-0.5-1.6C726,68,725.5,67.8,724.8,67.8z"/>
</g>
<g class="st1">
	<path class="st2" d="M57.5,217.6H50v-1.1l3.8-4.5c0.7-0.8,1.1-1.5,1.4-2c0.2-0.5,0.4-1,0.4-1.5c0-0.6-0.2-1-0.5-1.4
		c-0.3-0.4-0.8-0.5-1.4-0.5c-0.7,0-1.3,0.2-1.6,0.7c-0.4,0.4-0.6,1-0.6,1.6h-1.6l0,0c0-1,0.3-1.8,1-2.5s1.6-1,2.8-1
		c1.1,0,1.9,0.3,2.5,0.9s0.9,1.4,0.9,2.3c0,0.6-0.2,1.3-0.5,1.9c-0.4,0.6-0.9,1.4-1.6,2.3l-3,3.6l0,0h5.5V217.6z"/>
	<path class="st2" d="M61.3,217.6h-1.6V216h1.6V217.6z"/>
	<path class="st2" d="M71.5,213.4c0,1.4-0.3,2.4-1,3.2c-0.7,0.8-1.6,1.2-2.8,1.2c-1.2,0-2.1-0.4-2.8-1.2c-0.7-0.8-1.1-1.9-1.1-3.2
		v-3.6c0-1.4,0.3-2.4,1-3.2c0.7-0.8,1.6-1.2,2.8-1.2c1.2,0,2.1,0.4,2.8,1.2c0.7,0.8,1,1.9,1,3.2V213.4z M69.9,209.5
		c0-0.9-0.2-1.6-0.6-2.1c-0.4-0.5-0.9-0.8-1.6-0.8c-0.7,0-1.2,0.3-1.6,0.8c-0.4,0.5-0.6,1.2-0.6,2.1v4.2c0,0.9,0.2,1.6,0.6,2.1
		c0.4,0.5,0.9,0.8,1.6,0.8c0.7,0,1.3-0.3,1.6-0.8c0.4-0.5,0.6-1.2,0.6-2.1V209.5z"/>
	<path class="st2" d="M86.7,213.8L86.7,213.8c0,1.2-0.4,2.1-1.2,2.9s-1.9,1.1-3.2,1.1c-1.4,0-2.5-0.5-3.3-1.5
		c-0.9-1-1.3-2.2-1.3-3.7v-2.1c0-1.5,0.4-2.7,1.3-3.7c0.9-1,2-1.5,3.3-1.5s2.5,0.4,3.3,1.1s1.2,1.7,1.2,2.9l0,0h-1.6
		c0-0.8-0.2-1.5-0.7-2c-0.5-0.5-1.2-0.7-2.1-0.7c-0.9,0-1.6,0.4-2.2,1.1c-0.5,0.7-0.8,1.6-0.8,2.7v2.2c0,1.1,0.3,2,0.8,2.8
		s1.3,1.1,2.2,1.1c0.9,0,1.6-0.2,2.1-0.7c0.5-0.5,0.7-1.2,0.7-2H86.7z"/>
	<path class="st2" d="M90.4,217.6h-1.6v-12.9h1.6V217.6z"/>
	<path class="st2" d="M94.7,206.4h-1.6v-1.7h1.6V206.4z M94.7,217.6h-1.6v-9h1.6V217.6z"/>
	<path class="st2" d="M100.9,217.8c-1.3,0-2.3-0.4-3-1.2c-0.7-0.8-1.1-1.9-1.1-3.3V213c0-1.3,0.4-2.4,1.1-3.2
		c0.7-0.8,1.7-1.3,2.7-1.3c1.2,0,2.1,0.4,2.7,1.1c0.6,0.7,0.9,1.7,0.9,3v0.9h-5.7l0,0c0,0.9,0.2,1.6,0.6,2.2s1,0.8,1.8,0.8
		c0.6,0,1-0.1,1.5-0.2c0.4-0.2,0.8-0.4,1.1-0.7l0.6,1.1c-0.3,0.3-0.7,0.6-1.3,0.8S101.7,217.8,100.9,217.8z M100.7,209.8
		c-0.6,0-1,0.2-1.4,0.7c-0.4,0.4-0.6,1-0.7,1.7l0,0h4.1V212c0-0.7-0.2-1.2-0.5-1.6S101.3,209.8,100.7,209.8z"/>
	<path class="st2" d="M107.6,208.7l0.1,1.3c0.3-0.5,0.7-0.8,1.1-1.1c0.5-0.3,1-0.4,1.5-0.4c1,0,1.7,0.3,2.2,0.9s0.8,1.4,0.8,2.6v5.7
		h-1.6V212c0-0.8-0.2-1.4-0.5-1.7c-0.3-0.3-0.8-0.5-1.4-0.5c-0.5,0-0.9,0.1-1.3,0.3c-0.4,0.2-0.6,0.5-0.8,0.9v6.7h-1.6v-9H107.6z"/>
	<path class="st2" d="M118.1,206.5v2.2h1.7v1.2h-1.7v5.5c0,0.4,0.1,0.7,0.3,0.9c0.2,0.2,0.4,0.3,0.7,0.3c0.1,0,0.2,0,0.3,0
		c0.1,0,0.2-0.1,0.3-0.1l0.2,1.1c-0.1,0.1-0.3,0.2-0.5,0.2s-0.5,0.1-0.7,0.1c-0.7,0-1.2-0.2-1.6-0.6s-0.6-1-0.6-1.9v-5.5H115v-1.2
		h1.4v-2.2H118.1z"/>
	<path class="st2" d="M132.6,212h-5v4.3h5.8v1.3H126v-12.1h7.4v1.3h-5.7v3.9h5V212z"/>
	<path class="st2" d="M138.2,212l1.9-3.3h1.9l-2.9,4.4l3,4.5h-1.9l-2-3.4l-2,3.4h-1.9l3-4.5l-2.9-4.4h1.9L138.2,212z"/>
	<path class="st2" d="M151.3,213.5c0,1.3-0.3,2.3-0.9,3.1s-1.5,1.2-2.6,1.2c-0.6,0-1-0.1-1.5-0.3c-0.4-0.2-0.8-0.5-1.1-0.8v4.4h-1.6
		v-12.4h1.3l0.3,1.2c0.3-0.4,0.7-0.8,1.1-1c0.4-0.2,0.9-0.3,1.5-0.3c1.1,0,2,0.4,2.6,1.3c0.6,0.9,0.9,2,0.9,3.5V213.5z M149.7,213.3
		c0-1-0.2-1.9-0.6-2.5c-0.4-0.7-1-1-1.8-1c-0.5,0-0.9,0.1-1.2,0.3s-0.6,0.5-0.8,0.9v4.3c0.2,0.4,0.5,0.7,0.8,0.9
		c0.3,0.2,0.7,0.3,1.2,0.3c0.8,0,1.4-0.3,1.8-0.9s0.6-1.3,0.6-2.2V213.3z"/>
	<path class="st2" d="M157,217.8c-1.3,0-2.3-0.4-3-1.2c-0.7-0.8-1.1-1.9-1.1-3.3V213c0-1.3,0.4-2.4,1.1-3.2c0.7-0.8,1.7-1.3,2.7-1.3
		c1.2,0,2.1,0.4,2.7,1.1c0.6,0.7,0.9,1.7,0.9,3v0.9h-5.7l0,0c0,0.9,0.2,1.6,0.6,2.2s1,0.8,1.8,0.8c0.6,0,1-0.1,1.5-0.2
		c0.4-0.2,0.8-0.4,1.1-0.7l0.6,1.1c-0.3,0.3-0.7,0.6-1.3,0.8S157.8,217.8,157,217.8z M156.8,209.8c-0.6,0-1,0.2-1.4,0.7
		c-0.4,0.4-0.6,1-0.7,1.7l0,0h4.1V212c0-0.7-0.2-1.2-0.5-1.6S157.5,209.8,156.8,209.8z"/>
	<path class="st2" d="M166.5,210.1l-0.8,0c-0.4,0-0.8,0.1-1.1,0.3c-0.3,0.2-0.5,0.5-0.7,0.9v6.4h-1.6v-9h1.5l0.2,1.3
		c0.3-0.5,0.6-0.8,0.9-1.1c0.4-0.3,0.8-0.4,1.3-0.4c0.1,0,0.2,0,0.3,0s0.2,0,0.3,0.1L166.5,210.1z"/>
	<path class="st2" d="M169.9,206.4h-1.6v-1.7h1.6V206.4z M169.9,217.6h-1.6v-9h1.6V217.6z"/>
	<path class="st2" d="M176.2,217.8c-1.3,0-2.3-0.4-3-1.2c-0.7-0.8-1.1-1.9-1.1-3.3V213c0-1.3,0.4-2.4,1.1-3.2
		c0.7-0.8,1.7-1.3,2.7-1.3c1.2,0,2.1,0.4,2.7,1.1c0.6,0.7,0.9,1.7,0.9,3v0.9h-5.7l0,0c0,0.9,0.2,1.6,0.6,2.2s1,0.8,1.8,0.8
		c0.6,0,1-0.1,1.5-0.2c0.4-0.2,0.8-0.4,1.1-0.7l0.6,1.1c-0.3,0.3-0.7,0.6-1.3,0.8S176.9,217.8,176.2,217.8z M175.9,209.8
		c-0.6,0-1,0.2-1.4,0.7c-0.4,0.4-0.6,1-0.7,1.7l0,0h4.1V212c0-0.7-0.2-1.2-0.5-1.6C177.1,210,176.6,209.8,175.9,209.8z"/>
	<path class="st2" d="M182.8,208.7l0.1,1.3c0.3-0.5,0.7-0.8,1.1-1.1s1-0.4,1.5-0.4c1,0,1.7,0.3,2.2,0.9s0.8,1.4,0.8,2.6v5.7H187V212
		c0-0.8-0.2-1.4-0.5-1.7s-0.8-0.5-1.4-0.5c-0.5,0-0.9,0.1-1.3,0.3s-0.6,0.5-0.8,0.9v6.7h-1.6v-9H182.8z"/>
	<path class="st2" d="M194.6,216.5c0.5,0,0.9-0.2,1.3-0.5s0.6-0.7,0.6-1.2h1.5l0,0c0,0.8-0.3,1.5-1,2.1c-0.7,0.6-1.5,0.9-2.4,0.9
		c-1.3,0-2.2-0.4-2.9-1.3c-0.7-0.9-1-1.9-1-3.2V213c0-1.3,0.3-2.3,1-3.2c0.7-0.9,1.7-1.3,2.9-1.3c1,0,1.8,0.3,2.5,0.9
		c0.6,0.6,0.9,1.4,0.9,2.3l0,0.1h-1.5c0-0.5-0.2-1-0.5-1.4c-0.4-0.4-0.8-0.6-1.3-0.6c-0.8,0-1.4,0.3-1.8,0.9
		c-0.4,0.6-0.6,1.4-0.6,2.3v0.3c0,0.9,0.2,1.7,0.5,2.3C193.2,216.2,193.8,216.5,194.6,216.5z"/>
	<path class="st2" d="M203.6,217.8c-1.3,0-2.3-0.4-3-1.2c-0.7-0.8-1.1-1.9-1.1-3.3V213c0-1.3,0.4-2.4,1.1-3.2s1.7-1.3,2.7-1.3
		c1.2,0,2.1,0.4,2.7,1.1c0.6,0.7,0.9,1.7,0.9,3v0.9h-5.7l0,0c0,0.9,0.2,1.6,0.6,2.2s1,0.8,1.8,0.8c0.6,0,1-0.1,1.5-0.2
		c0.4-0.2,0.8-0.4,1.1-0.7l0.6,1.1c-0.3,0.3-0.7,0.6-1.3,0.8S204.4,217.8,203.6,217.8z M203.4,209.8c-0.6,0-1,0.2-1.4,0.7
		c-0.4,0.4-0.6,1-0.7,1.7l0,0h4.1V212c0-0.7-0.2-1.2-0.5-1.6C204.5,210,204,209.8,203.4,209.8z"/>
</g>
<rect x="35.3" y="552.7" class="st0" width="179.7" height="70"/>
<g class="st1">
	<path class="st2" d="M57.6,584.2c-1.5,1.8-2.6,3.4-3.1,4.8s-0.8,2.9-0.8,4.7v1.3h-1.6v-1.3c0-1.8,0.3-3.5,1-4.9
		c0.7-1.5,1.6-3,2.9-4.5h-6.4v-1.3h8V584.2z"/>
	<path class="st2" d="M61.3,595h-1.6v-1.7h1.6V595z"/>
	<path class="st2" d="M71.5,590.7c0,1.4-0.3,2.4-1,3.2c-0.7,0.8-1.6,1.2-2.8,1.2c-1.2,0-2.1-0.4-2.8-1.2c-0.7-0.8-1.1-1.9-1.1-3.2
		v-3.6c0-1.4,0.3-2.4,1-3.2c0.7-0.8,1.6-1.2,2.8-1.2c1.2,0,2.1,0.4,2.8,1.2c0.7,0.8,1,1.9,1,3.2V590.7z M69.9,586.8
		c0-0.9-0.2-1.6-0.6-2.1c-0.4-0.5-0.9-0.8-1.6-0.8c-0.7,0-1.2,0.3-1.6,0.8c-0.4,0.5-0.6,1.2-0.6,2.1v4.2c0,0.9,0.2,1.6,0.6,2.1
		c0.4,0.5,0.9,0.8,1.6,0.8c0.7,0,1.3-0.3,1.6-0.8c0.4-0.5,0.6-1.2,0.6-2.1V586.8z"/>
	<path class="st2" d="M79.7,590.1v4.8h-1.6v-12.1h4.6c1.3,0,2.3,0.3,3,1c0.7,0.7,1.1,1.5,1.1,2.6c0,1.1-0.4,2-1.1,2.6
		c-0.7,0.7-1.7,1-3,1H79.7z M79.7,588.8h3c0.8,0,1.4-0.2,1.8-0.7c0.4-0.4,0.6-1,0.6-1.7s-0.2-1.2-0.6-1.7c-0.4-0.4-1-0.7-1.8-0.7h-3
		V588.8z"/>
	<path class="st2" d="M92.9,587.4l-0.8,0c-0.4,0-0.8,0.1-1.1,0.3c-0.3,0.2-0.5,0.5-0.7,0.9v6.4h-1.6v-9h1.5l0.2,1.3
		c0.3-0.5,0.6-0.8,0.9-1.1c0.4-0.3,0.8-0.4,1.3-0.4c0.1,0,0.2,0,0.3,0s0.2,0,0.3,0.1L92.9,587.4z"/>
	<path class="st2" d="M96.4,583.7h-1.6V582h1.6V583.7z M96.4,595h-1.6v-9h1.6V595z"/>
	<path class="st2" d="M101.9,592.3l0.1,0.6h0l0.2-0.6l2.1-6.3h1.7l-3.3,9h-1.2l-3.3-9h1.7L101.9,592.3z"/>
	<path class="st2" d="M112.9,595c-0.1-0.3-0.1-0.5-0.1-0.7c0-0.2,0-0.4-0.1-0.6c-0.3,0.4-0.7,0.8-1.2,1.1c-0.5,0.3-1,0.4-1.6,0.4
		c-0.9,0-1.6-0.2-2.1-0.7c-0.5-0.5-0.7-1.1-0.7-2c0-0.9,0.3-1.5,1-2c0.7-0.5,1.6-0.7,2.8-0.7h1.8v-0.9c0-0.5-0.2-0.9-0.5-1.2
		c-0.3-0.3-0.8-0.5-1.4-0.5c-0.5,0-1,0.1-1.3,0.4s-0.5,0.6-0.5,1l-1.6,0l0,0c0-0.7,0.3-1.3,0.9-1.8c0.6-0.5,1.5-0.8,2.5-0.8
		c1,0,1.8,0.3,2.5,0.8s0.9,1.3,0.9,2.2v4.3c0,0.3,0,0.6,0,0.9s0.1,0.6,0.2,0.9H112.9z M110.2,593.8c0.6,0,1.1-0.2,1.6-0.5
		c0.5-0.3,0.8-0.7,0.9-1v-1.5h-1.8c-0.7,0-1.2,0.2-1.6,0.5c-0.4,0.3-0.6,0.7-0.6,1.2c0,0.4,0.1,0.7,0.4,0.9S109.7,593.8,110.2,593.8
		z"/>
	<path class="st2" d="M120.3,593.9c0.5,0,0.9-0.2,1.3-0.5s0.6-0.7,0.6-1.2h1.5l0,0c0,0.8-0.3,1.5-1,2.1s-1.5,0.9-2.4,0.9
		c-1.3,0-2.2-0.4-2.9-1.3s-1-1.9-1-3.2v-0.3c0-1.3,0.3-2.3,1-3.2c0.7-0.9,1.7-1.3,2.9-1.3c1,0,1.8,0.3,2.5,0.9
		c0.6,0.6,0.9,1.4,0.9,2.3l0,0.1h-1.5c0-0.5-0.2-1-0.5-1.4c-0.4-0.4-0.8-0.6-1.3-0.6c-0.8,0-1.4,0.3-1.8,0.9
		c-0.4,0.6-0.6,1.4-0.6,2.3v0.3c0,0.9,0.2,1.7,0.5,2.3C118.9,593.6,119.5,593.9,120.3,593.9z"/>
	<path class="st2" d="M128.3,591.6l0.3,1.1h0l2.2-6.8h1.8l-3.8,10.4c-0.2,0.6-0.6,1.1-1,1.6c-0.4,0.4-1,0.7-1.7,0.7
		c-0.1,0-0.3,0-0.5,0s-0.4-0.1-0.5-0.1l0.2-1.3c0,0,0.1,0,0.3,0c0.2,0,0.4,0,0.4,0c0.3,0,0.6-0.2,0.9-0.5c0.2-0.3,0.4-0.7,0.6-1
		l0.4-0.9l-3.3-8.8h1.8L128.3,591.6z"/>
	<path class="st2" d="M140.2,590.1v4.8h-1.6v-12.1h4.6c1.3,0,2.3,0.3,3,1c0.7,0.7,1.1,1.5,1.1,2.6c0,1.1-0.4,2-1.1,2.6
		c-0.7,0.7-1.7,1-3,1H140.2z M140.2,588.8h3c0.8,0,1.4-0.2,1.8-0.7c0.4-0.4,0.6-1,0.6-1.7s-0.2-1.2-0.6-1.7c-0.4-0.4-1-0.7-1.8-0.7
		h-3V588.8z"/>
	<path class="st2" d="M148.7,590.4c0-1.3,0.4-2.4,1.1-3.3s1.7-1.3,2.9-1.3c1.2,0,2.2,0.4,3,1.3c0.7,0.9,1.1,2,1.1,3.3v0.2
		c0,1.3-0.4,2.4-1.1,3.3c-0.7,0.9-1.7,1.3-2.9,1.3s-2.2-0.4-2.9-1.3c-0.7-0.9-1.1-1.9-1.1-3.3V590.4z M150.3,590.6
		c0,1,0.2,1.7,0.6,2.4c0.4,0.6,1,0.9,1.8,0.9c0.8,0,1.4-0.3,1.8-0.9c0.4-0.6,0.6-1.4,0.6-2.4v-0.2c0-0.9-0.2-1.7-0.6-2.3
		c-0.4-0.6-1-0.9-1.8-0.9c-0.8,0-1.4,0.3-1.8,0.9c-0.4,0.6-0.6,1.4-0.6,2.3V590.6z"/>
	<path class="st2" d="M160.5,595h-1.6V582h1.6V595z"/>
	<path class="st2" d="M164.8,583.7h-1.6V582h1.6V583.7z M164.8,595h-1.6v-9h1.6V595z"/>
	<path class="st2" d="M170.9,593.9c0.5,0,0.9-0.2,1.3-0.5s0.6-0.7,0.6-1.2h1.5l0,0c0,0.8-0.3,1.5-1,2.1s-1.5,0.9-2.4,0.9
		c-1.3,0-2.2-0.4-2.9-1.3s-1-1.9-1-3.2v-0.3c0-1.3,0.3-2.3,1-3.2c0.7-0.9,1.7-1.3,2.9-1.3c1,0,1.8,0.3,2.5,0.9
		c0.6,0.6,0.9,1.4,0.9,2.3l0,0.1h-1.5c0-0.5-0.2-1-0.5-1.4c-0.4-0.4-0.8-0.6-1.3-0.6c-0.8,0-1.4,0.3-1.8,0.9
		c-0.4,0.6-0.6,1.4-0.6,2.3v0.3c0,0.9,0.2,1.7,0.5,2.3C169.5,593.6,170.1,593.9,170.9,593.9z"/>
	<path class="st2" d="M178.9,591.6l0.3,1.1h0.1l2.2-6.8h1.8l-3.8,10.4c-0.2,0.6-0.6,1.1-1,1.6c-0.4,0.4-1,0.7-1.7,0.7
		c-0.1,0-0.3,0-0.5,0s-0.4-0.1-0.5-0.1l0.2-1.3c0,0,0.1,0,0.3,0s0.4,0,0.4,0c0.3,0,0.6-0.2,0.9-0.5c0.2-0.3,0.4-0.7,0.6-1l0.4-0.9
		l-3.3-8.8h1.8L178.9,591.6z"/>
</g>
<rect x="226.3" y="552.7" class="st0" width="179.7" height="70"/>
<g class="st1">
	<path class="st2" d="M248.2,586c0,0.6-0.2,1.2-0.5,1.7s-0.8,0.8-1.4,1.1c0.7,0.2,1.2,0.6,1.7,1.1c0.4,0.5,0.6,1.1,0.6,1.8
		c0,1.1-0.4,2-1.1,2.6c-0.7,0.6-1.6,0.9-2.8,0.9c-1.2,0-2.2-0.3-2.9-0.9c-0.8-0.6-1.1-1.5-1.1-2.6c0-0.7,0.2-1.3,0.6-1.8
		c0.4-0.5,1-0.9,1.7-1.1c-0.6-0.2-1.1-0.6-1.5-1.1s-0.5-1-0.5-1.7c0-1.1,0.3-1.9,1-2.4c0.7-0.6,1.6-0.8,2.7-0.8c1,0,1.9,0.3,2.5,0.8
		C247.8,584.1,248.2,584.9,248.2,586z M246.9,591.6c0-0.7-0.2-1.2-0.6-1.6c-0.4-0.4-1-0.6-1.6-0.6c-0.7,0-1.3,0.2-1.7,0.6
		s-0.7,1-0.7,1.6c0,0.7,0.2,1.2,0.7,1.6c0.4,0.4,1,0.6,1.7,0.6c0.6,0,1.2-0.2,1.6-0.6C246.7,592.8,246.9,592.3,246.9,591.6z
		 M246.5,586c0-0.6-0.2-1.1-0.5-1.4c-0.4-0.4-0.8-0.6-1.3-0.6c-0.6,0-1.1,0.2-1.5,0.5s-0.6,0.8-0.6,1.5c0,0.6,0.2,1.1,0.6,1.5
		c0.4,0.4,0.9,0.6,1.5,0.6c0.5,0,1-0.2,1.3-0.6C246.4,587.1,246.5,586.6,246.5,586z"/>
	<path class="st2" d="M252.3,595h-1.6v-1.7h1.6V595z"/>
	<path class="st2" d="M262.5,590.7c0,1.4-0.3,2.4-1,3.2c-0.7,0.8-1.6,1.2-2.8,1.2c-1.2,0-2.1-0.4-2.8-1.2c-0.7-0.8-1.1-1.9-1.1-3.2
		v-3.6c0-1.4,0.3-2.4,1-3.2c0.7-0.8,1.6-1.2,2.8-1.2c1.2,0,2.1,0.4,2.8,1.2c0.7,0.8,1,1.9,1,3.2V590.7z M260.9,586.8
		c0-0.9-0.2-1.6-0.6-2.1c-0.4-0.5-0.9-0.8-1.6-0.8c-0.7,0-1.2,0.3-1.6,0.8c-0.4,0.5-0.6,1.2-0.6,2.1v4.2c0,0.9,0.2,1.6,0.6,2.1
		c0.4,0.5,0.9,0.8,1.6,0.8c0.7,0,1.3-0.3,1.6-0.8c0.4-0.5,0.6-1.2,0.6-2.1V586.8z"/>
	<path class="st2" d="M277.6,584.2h-4V595h-1.6v-10.8H268v-1.3h9.6V584.2z"/>
	<path class="st2" d="M282,595.1c-1.3,0-2.3-0.4-3-1.2c-0.7-0.8-1.1-1.9-1.1-3.3v-0.4c0-1.3,0.4-2.4,1.1-3.2
		c0.7-0.8,1.7-1.3,2.7-1.3c1.2,0,2.1,0.4,2.7,1.1c0.6,0.7,0.9,1.7,0.9,3v0.9h-5.7l0,0c0,0.9,0.2,1.6,0.6,2.2s1,0.8,1.8,0.8
		c0.6,0,1-0.1,1.5-0.2c0.4-0.2,0.8-0.4,1.1-0.7l0.6,1.1c-0.3,0.3-0.7,0.6-1.3,0.8S282.7,595.1,282,595.1z M281.7,587.1
		c-0.6,0-1,0.2-1.4,0.7c-0.4,0.4-0.6,1-0.7,1.7l0,0h4.1v-0.1c0-0.7-0.2-1.2-0.5-1.6S282.4,587.1,281.7,587.1z"/>
	<path class="st2" d="M291.4,587.4l-0.8,0c-0.4,0-0.8,0.1-1.1,0.3c-0.3,0.2-0.5,0.5-0.7,0.9v6.4h-1.6v-9h1.5l0.2,1.3
		c0.3-0.5,0.6-0.8,0.9-1.1c0.4-0.3,0.8-0.4,1.3-0.4c0.1,0,0.2,0,0.3,0s0.2,0,0.3,0.1L291.4,587.4z"/>
	<path class="st2" d="M294.5,586l0.1,1.2c0.3-0.4,0.7-0.8,1.1-1c0.5-0.2,1-0.4,1.6-0.4s1.1,0.1,1.5,0.4c0.4,0.3,0.8,0.7,1,1.2
		c0.3-0.5,0.7-0.9,1.1-1.2c0.5-0.3,1-0.4,1.6-0.4c0.9,0,1.6,0.3,2.2,0.9s0.8,1.6,0.8,2.8v5.4h-1.6v-5.4c0-0.9-0.2-1.5-0.5-1.9
		s-0.8-0.6-1.4-0.6c-0.6,0-1,0.2-1.4,0.6c-0.3,0.4-0.5,0.9-0.6,1.5v0.1v5.7h-1.6v-5.4c0-0.8-0.2-1.5-0.5-1.8
		c-0.3-0.4-0.8-0.6-1.3-0.6c-0.5,0-0.9,0.1-1.2,0.3c-0.3,0.2-0.6,0.5-0.7,0.9v6.6h-1.6v-9H294.5z"/>
	<path class="st2" d="M313.2,592.6c0-0.4-0.1-0.7-0.4-0.9c-0.3-0.2-0.8-0.4-1.6-0.6c-1.1-0.2-1.9-0.5-2.4-1c-0.6-0.4-0.9-1-0.9-1.6
		c0-0.7,0.3-1.4,0.9-1.9c0.6-0.5,1.4-0.8,2.4-0.8c1,0,1.8,0.3,2.5,0.8s0.9,1.2,0.9,1.9l0,0h-1.6c0-0.4-0.2-0.7-0.5-1.1
		c-0.3-0.3-0.8-0.5-1.3-0.5c-0.6,0-1,0.1-1.3,0.4c-0.3,0.3-0.4,0.6-0.4,0.9c0,0.4,0.1,0.6,0.4,0.8c0.2,0.2,0.8,0.4,1.5,0.5
		c1.1,0.2,1.9,0.6,2.5,1s0.9,1,0.9,1.7c0,0.8-0.3,1.4-1,2c-0.6,0.5-1.5,0.8-2.5,0.8c-1.1,0-2-0.3-2.7-0.9s-1-1.3-0.9-2l0-0.1h1.6
		c0,0.6,0.2,1,0.6,1.3s0.9,0.4,1.4,0.4c0.6,0,1-0.1,1.4-0.4C313,593.3,313.2,592.9,313.2,592.6z"/>
	<path class="st2" d="M320.7,590.4c0-1.3,0.4-2.4,1.1-3.3s1.7-1.3,2.9-1.3c1.2,0,2.2,0.4,3,1.3c0.7,0.9,1.1,2,1.1,3.3v0.2
		c0,1.3-0.4,2.4-1.1,3.3c-0.7,0.9-1.7,1.3-2.9,1.3s-2.2-0.4-2.9-1.3c-0.7-0.9-1.1-1.9-1.1-3.3V590.4z M322.3,590.6
		c0,1,0.2,1.7,0.6,2.4c0.4,0.6,1,0.9,1.8,0.9c0.8,0,1.4-0.3,1.8-0.9c0.4-0.6,0.6-1.4,0.6-2.4v-0.2c0-0.9-0.2-1.7-0.6-2.3
		c-0.4-0.6-1-0.9-1.8-0.9c-0.8,0-1.4,0.3-1.8,0.9c-0.4,0.6-0.6,1.4-0.6,2.3V590.6z"/>
	<path class="st2" d="M331.4,595v-7.8H330V586h1.4v-1.1c0-1,0.3-1.7,0.8-2.2c0.5-0.5,1.2-0.8,2.1-0.8c0.2,0,0.4,0,0.6,0
		c0.2,0,0.4,0.1,0.6,0.1l-0.2,1.2c-0.1,0-0.2,0-0.4-0.1c-0.1,0-0.3,0-0.4,0c-0.5,0-0.8,0.1-1.1,0.4s-0.3,0.7-0.3,1.2v1.1h1.6v1.2
		H333v7.8H331.4z"/>
	<path class="st2" d="M349.7,582.9v8c0,1.3-0.4,2.4-1.3,3.1s-2,1.1-3.3,1.1c-1.3,0-2.4-0.4-3.2-1.1s-1.3-1.8-1.3-3.1v-8h1.6v8
		c0,0.9,0.3,1.6,0.8,2.2c0.5,0.5,1.2,0.8,2,0.8c0.9,0,1.6-0.3,2.2-0.8c0.6-0.5,0.8-1.2,0.8-2.2v-8H349.7z"/>
	<path class="st2" d="M357.3,592.6c0-0.4-0.1-0.7-0.4-0.9c-0.3-0.2-0.8-0.4-1.6-0.6c-1.1-0.2-1.9-0.5-2.4-1c-0.6-0.4-0.9-1-0.9-1.6
		c0-0.7,0.3-1.4,0.9-1.9c0.6-0.5,1.4-0.8,2.4-0.8c1,0,1.8,0.3,2.5,0.8s0.9,1.2,0.9,1.9l0,0h-1.6c0-0.4-0.2-0.7-0.5-1.1
		c-0.3-0.3-0.8-0.5-1.3-0.5c-0.6,0-1,0.1-1.3,0.4c-0.3,0.3-0.4,0.6-0.4,0.9c0,0.4,0.1,0.6,0.4,0.8c0.2,0.2,0.8,0.4,1.5,0.5
		c1.1,0.2,1.9,0.6,2.5,1s0.9,1,0.9,1.7c0,0.8-0.3,1.4-1,2c-0.6,0.5-1.5,0.8-2.5,0.8c-1.1,0-2-0.3-2.7-0.9s-1-1.3-0.9-2l0-0.1h1.6
		c0,0.6,0.2,1,0.6,1.3s0.9,0.4,1.4,0.4c0.6,0,1-0.1,1.4-0.4C357.1,593.3,357.3,592.9,357.3,592.6z"/>
	<path class="st2" d="M364.7,595.1c-1.3,0-2.3-0.4-3-1.2c-0.7-0.8-1.1-1.9-1.1-3.3v-0.4c0-1.3,0.4-2.4,1.1-3.2
		c0.7-0.8,1.7-1.3,2.7-1.3c1.2,0,2.1,0.4,2.7,1.1c0.6,0.7,0.9,1.7,0.9,3v0.9h-5.7l0,0c0,0.9,0.2,1.6,0.6,2.2s1,0.8,1.8,0.8
		c0.6,0,1-0.1,1.5-0.2c0.4-0.2,0.8-0.4,1.1-0.7l0.6,1.1c-0.3,0.3-0.7,0.6-1.3,0.8S365.4,595.1,364.7,595.1z M364.4,587.1
		c-0.6,0-1,0.2-1.4,0.7c-0.4,0.4-0.6,1-0.7,1.7l0,0h4.1v-0.1c0-0.7-0.2-1.2-0.5-1.6C365.6,587.3,365.1,587.1,364.4,587.1z"/>
</g>
<rect x="417.3" y="552.7" class="st0" width="179.7" height="70"/>
<g class="st1">
	<path class="st2" d="M434.9,593.9c0.8,0,1.4-0.3,1.9-0.8c0.5-0.5,0.7-1.3,0.7-2.3v-1c-0.3,0.4-0.6,0.7-1,0.9
		c-0.4,0.2-0.8,0.3-1.3,0.3c-1.2,0-2.1-0.4-2.7-1.1c-0.7-0.7-1-1.7-1-3c0-1.2,0.4-2.2,1.1-3c0.7-0.8,1.6-1.2,2.6-1.2
		c1.2,0,2.2,0.4,2.9,1.1s1.1,1.8,1.1,3.2v3.7c0,1.4-0.4,2.5-1.2,3.2s-1.8,1.2-3.1,1.2c-0.4,0-0.9,0-1.3-0.1
		c-0.4-0.1-0.9-0.2-1.2-0.4l0.2-1.2c0.4,0.2,0.7,0.3,1.1,0.4C434.1,593.8,434.5,593.9,434.9,593.9z M435.3,589.6
		c0.6,0,1-0.1,1.4-0.4c0.4-0.3,0.7-0.6,0.9-1v-1.4c0-0.9-0.2-1.6-0.6-2.1c-0.4-0.5-1-0.7-1.7-0.7c-0.6,0-1.1,0.3-1.5,0.8
		c-0.4,0.5-0.6,1.2-0.6,2.1c0,0.8,0.2,1.5,0.5,2S434.6,589.6,435.3,589.6z"/>
	<path class="st2" d="M443.3,595h-1.6v-1.7h1.6V595z"/>
	<path class="st2" d="M453.5,590.7c0,1.4-0.3,2.4-1,3.2c-0.7,0.8-1.6,1.2-2.8,1.2c-1.2,0-2.1-0.4-2.8-1.2c-0.7-0.8-1.1-1.9-1.1-3.2
		v-3.6c0-1.4,0.3-2.4,1-3.2c0.7-0.8,1.6-1.2,2.8-1.2c1.2,0,2.1,0.4,2.8,1.2c0.7,0.8,1,1.9,1,3.2V590.7z M451.9,586.8
		c0-0.9-0.2-1.6-0.6-2.1c-0.4-0.5-0.9-0.8-1.6-0.8c-0.7,0-1.2,0.3-1.6,0.8c-0.4,0.5-0.6,1.2-0.6,2.1v4.2c0,0.9,0.2,1.6,0.6,2.1
		c0.4,0.5,0.9,0.8,1.6,0.8c0.7,0,1.3-0.3,1.6-0.8c0.4-0.5,0.6-1.2,0.6-2.1V586.8z"/>
	<path class="st2" d="M466.8,589.6h-5.1v5.3h-1.6v-12.1h7.6v1.3h-5.9v4.2h5.1V589.6z"/>
	<path class="st2" d="M468.7,590.4c0-1.3,0.4-2.4,1.1-3.3s1.7-1.3,2.9-1.3c1.2,0,2.2,0.4,3,1.3c0.7,0.9,1.1,2,1.1,3.3v0.2
		c0,1.3-0.4,2.4-1.1,3.3c-0.7,0.9-1.7,1.3-2.9,1.3s-2.2-0.4-2.9-1.3c-0.7-0.9-1.1-1.9-1.1-3.3V590.4z M470.4,590.6
		c0,1,0.2,1.7,0.6,2.4c0.4,0.6,1,0.9,1.8,0.9c0.8,0,1.4-0.3,1.8-0.9c0.4-0.6,0.6-1.4,0.6-2.4v-0.2c0-0.9-0.2-1.7-0.6-2.3
		c-0.4-0.6-1-0.9-1.8-0.9c-0.8,0-1.4,0.3-1.8,0.9c-0.4,0.6-0.6,1.4-0.6,2.3V590.6z"/>
	<path class="st2" d="M483,587.4l-0.8,0c-0.4,0-0.8,0.1-1.1,0.3c-0.3,0.2-0.5,0.5-0.7,0.9v6.4h-1.6v-9h1.5l0.2,1.3
		c0.3-0.5,0.6-0.8,0.9-1.1c0.4-0.3,0.8-0.4,1.3-0.4c0.1,0,0.2,0,0.3,0s0.2,0,0.3,0.1L483,587.4z"/>
	<path class="st2" d="M486.2,586l0.1,1.2c0.3-0.4,0.7-0.8,1.1-1c0.5-0.2,1-0.4,1.6-0.4s1.1,0.1,1.5,0.4c0.4,0.3,0.8,0.7,1,1.2
		c0.3-0.5,0.7-0.9,1.1-1.2c0.5-0.3,1-0.4,1.6-0.4c0.9,0,1.6,0.3,2.2,0.9s0.8,1.6,0.8,2.8v5.4h-1.6v-5.4c0-0.9-0.2-1.5-0.5-1.9
		s-0.8-0.6-1.4-0.6c-0.6,0-1,0.2-1.4,0.6c-0.3,0.4-0.5,0.9-0.6,1.5v0.1v5.7h-1.6v-5.4c0-0.8-0.2-1.5-0.5-1.8
		c-0.3-0.4-0.8-0.6-1.3-0.6c-0.5,0-0.9,0.1-1.2,0.3c-0.3,0.2-0.6,0.5-0.7,0.9v6.6h-1.6v-9H486.2z"/>
	<path class="st2" d="M510.3,591.9h-4.5l-1.1,3.1H503l4.4-12.1h1.4L513,595h-1.7L510.3,591.9z M506.2,590.5h3.6l-1.8-5.2h0
		L506.2,590.5z"/>
	<path class="st2" d="M514.8,595v-12.1h3.8c1.6,0,2.8,0.5,3.8,1.5c1,1,1.4,2.2,1.4,3.8v1.7c0,1.5-0.5,2.8-1.4,3.8
		c-1,1-2.2,1.4-3.8,1.4H514.8z M516.4,584.2v9.5h2.2c1.1,0,2-0.4,2.6-1.1c0.6-0.7,1-1.7,1-2.8v-1.7c0-1.1-0.3-2.1-1-2.8
		c-0.6-0.7-1.5-1.1-2.6-1.1H516.4z"/>
	<path class="st2" d="M529.8,591.8l0.3,1h0l0.3-1l3.1-8.9h1.8l-4.5,12.1h-1.4l-4.5-12.1h1.8L529.8,591.8z"/>
</g>
<g class="st1">
	<path class="st2" d="M54.4,286.6h-7.5v-1.1l3.8-4.5c0.7-0.8,1.1-1.5,1.4-2c0.2-0.5,0.4-1,0.4-1.5c0-0.6-0.2-1-0.5-1.4
		c-0.3-0.4-0.8-0.5-1.4-0.5c-0.7,0-1.3,0.2-1.6,0.7c-0.4,0.4-0.6,1-0.6,1.6h-1.6l0,0c0-1,0.3-1.8,1-2.5s1.6-1,2.8-1
		c1.1,0,1.9,0.3,2.5,0.9s0.9,1.4,0.9,2.3c0,0.6-0.2,1.3-0.5,1.9c-0.4,0.6-0.9,1.4-1.6,2.3l-3,3.6l0,0h5.5V286.6z"/>
	<path class="st2" d="M58.2,286.6h-1.6V285h1.6V286.6z"/>
	<path class="st2" d="M65.7,286.6H64v-10.6l-2.6,0v-1.3l4.3-0.4V286.6z"/>
</g>
<g class="st1">
	<path class="st2" d="M357.6,210.8c0.7,0,1.2-0.2,1.5-0.5c0.3-0.4,0.5-0.9,0.5-1.5c0-0.6-0.2-1.1-0.5-1.5c-0.3-0.4-0.8-0.6-1.5-0.6
		c-0.6,0-1.2,0.2-1.6,0.6c-0.4,0.4-0.6,0.9-0.6,1.5h-1.6l0,0c0-0.9,0.3-1.7,1-2.3c0.7-0.6,1.6-1,2.7-1c1.1,0,2,0.3,2.6,0.9
		s1,1.4,1,2.5c0,0.6-0.1,1.1-0.4,1.5c-0.3,0.5-0.7,0.8-1.2,1.1c0.6,0.2,1.1,0.6,1.4,1.1c0.3,0.5,0.5,1.1,0.5,1.8
		c0,1.1-0.4,2-1.1,2.6c-0.7,0.6-1.6,0.9-2.7,0.9c-1,0-1.9-0.3-2.7-0.9c-0.8-0.6-1.2-1.4-1.1-2.4l0,0h1.6c0,0.6,0.2,1.1,0.6,1.5
		c0.4,0.4,1,0.6,1.6,0.6c0.7,0,1.2-0.2,1.6-0.6s0.6-1,0.6-1.6c0-0.8-0.2-1.3-0.5-1.7c-0.4-0.4-0.9-0.6-1.7-0.6h-1.3v-1.3H357.6z"/>
	<path class="st2" d="M365.4,217.6h-1.6V216h1.6V217.6z"/>
	<path class="st2" d="M375.6,213.4c0,1.4-0.3,2.4-1,3.2c-0.7,0.8-1.6,1.2-2.8,1.2c-1.2,0-2.1-0.4-2.8-1.2c-0.7-0.8-1.1-1.9-1.1-3.2
		v-3.6c0-1.4,0.3-2.4,1-3.2c0.7-0.8,1.6-1.2,2.8-1.2c1.2,0,2.1,0.4,2.8,1.2c0.7,0.8,1,1.9,1,3.2V213.4z M374,209.5
		c0-0.9-0.2-1.6-0.6-2.1c-0.4-0.5-0.9-0.8-1.6-0.8c-0.7,0-1.2,0.3-1.6,0.8c-0.4,0.5-0.6,1.2-0.6,2.1v4.2c0,0.9,0.2,1.6,0.6,2.1
		c0.4,0.5,0.9,0.8,1.6,0.8c0.7,0,1.3-0.3,1.6-0.8c0.4-0.5,0.6-1.2,0.6-2.1V209.5z"/>
	<path class="st2" d="M388.4,214.5h-4.5l-1.1,3.1h-1.7l4.4-12.1h1.4l4.3,12.1h-1.7L388.4,214.5z M384.3,213.2h3.6l-1.8-5.2h0
		L384.3,213.2z"/>
	<path class="st2" d="M400.4,213.5c0,1.3-0.3,2.3-0.9,3.1c-0.6,0.8-1.5,1.2-2.6,1.2c-0.6,0-1.1-0.1-1.6-0.4c-0.4-0.2-0.8-0.6-1.1-1
		l-0.3,1.2h-1.3v-12.9h1.6v5c0.3-0.4,0.6-0.7,1-0.9c0.4-0.2,0.9-0.3,1.5-0.3c1.1,0,2,0.4,2.6,1.3s0.9,2,0.9,3.5V213.5z M398.7,213.3
		c0-1-0.2-1.9-0.6-2.5c-0.4-0.7-1-1-1.7-1c-0.5,0-0.9,0.1-1.3,0.4c-0.3,0.2-0.6,0.6-0.8,1v3.9c0.2,0.4,0.5,0.8,0.8,1
		c0.3,0.2,0.8,0.4,1.3,0.4c0.8,0,1.3-0.3,1.7-0.8s0.6-1.3,0.6-2.2V213.3z"/>
	<path class="st2" d="M402,213.1c0-1.3,0.4-2.4,1.1-3.3s1.7-1.3,2.9-1.3c1.2,0,2.2,0.4,3,1.3c0.7,0.9,1.1,2,1.1,3.3v0.2
		c0,1.3-0.4,2.4-1.1,3.3c-0.7,0.9-1.7,1.3-2.9,1.3s-2.2-0.4-2.9-1.3c-0.7-0.9-1.1-1.9-1.1-3.3V213.1z M403.6,213.2
		c0,1,0.2,1.7,0.6,2.4c0.4,0.6,1,0.9,1.8,0.9c0.8,0,1.4-0.3,1.8-0.9c0.4-0.6,0.6-1.4,0.6-2.4v-0.2c0-0.9-0.2-1.7-0.6-2.3
		c-0.4-0.6-1-0.9-1.8-0.9c-0.8,0-1.4,0.3-1.8,0.9c-0.4,0.6-0.6,1.4-0.6,2.3V213.2z"/>
	<path class="st2" d="M417.7,216.3c-0.3,0.5-0.6,0.9-1.1,1.1s-1,0.4-1.5,0.4c-1,0-1.7-0.3-2.3-0.9s-0.8-1.6-0.8-2.9v-5.3h1.6v5.3
		c0,1,0.1,1.6,0.4,2s0.7,0.5,1.3,0.5c0.6,0,1.1-0.1,1.4-0.4c0.4-0.2,0.7-0.6,0.9-1v-6.5h1.6v9h-1.5L417.7,216.3z"/>
	<path class="st2" d="M423.9,206.5v2.2h1.7v1.2h-1.7v5.5c0,0.4,0.1,0.7,0.3,0.9c0.2,0.2,0.4,0.3,0.7,0.3c0.1,0,0.2,0,0.3,0
		c0.1,0,0.2-0.1,0.3-0.1l0.2,1.1c-0.1,0.1-0.3,0.2-0.5,0.2s-0.5,0.1-0.7,0.1c-0.7,0-1.2-0.2-1.6-0.6s-0.6-1-0.6-1.9v-5.5h-1.4v-1.2
		h1.4v-2.2H423.9z"/>
	<path class="st2" d="M437.3,216.3c-0.3,0.5-0.6,0.9-1.1,1.1s-1,0.4-1.5,0.4c-1,0-1.7-0.3-2.3-0.9s-0.8-1.6-0.8-2.9v-5.3h1.6v5.3
		c0,1,0.1,1.6,0.4,2s0.7,0.5,1.3,0.5c0.6,0,1.1-0.1,1.4-0.4c0.4-0.2,0.7-0.6,0.9-1v-6.5h1.6v9h-1.5L437.3,216.3z"/>
	<path class="st2" d="M446.5,215.2c0-0.4-0.1-0.7-0.4-0.9c-0.3-0.2-0.8-0.4-1.6-0.6c-1.1-0.2-1.9-0.5-2.4-1c-0.6-0.4-0.9-1-0.9-1.6
		c0-0.7,0.3-1.4,0.9-1.9c0.6-0.5,1.4-0.8,2.4-0.8c1,0,1.8,0.3,2.5,0.8s0.9,1.2,0.9,1.9l0,0h-1.6c0-0.4-0.2-0.7-0.5-1.1
		c-0.3-0.3-0.8-0.5-1.3-0.5c-0.6,0-1,0.1-1.3,0.4c-0.3,0.3-0.4,0.6-0.4,0.9c0,0.4,0.1,0.6,0.4,0.8c0.2,0.2,0.8,0.4,1.5,0.5
		c1.1,0.2,1.9,0.6,2.5,1s0.9,1,0.9,1.7c0,0.8-0.3,1.4-1,2c-0.6,0.5-1.5,0.8-2.5,0.8c-1.1,0-2-0.3-2.7-0.9s-1-1.3-0.9-2l0-0.1h1.6
		c0,0.6,0.2,1,0.6,1.3s0.9,0.4,1.4,0.4c0.6,0,1-0.1,1.4-0.4C446.3,215.9,446.5,215.6,446.5,215.2z"/>
</g>
<g class="st1">
	<path class="st2" d="M349.8,280.8c0.7,0,1.2-0.2,1.5-0.5c0.3-0.4,0.5-0.9,0.5-1.5c0-0.6-0.2-1.1-0.5-1.5c-0.3-0.4-0.8-0.6-1.5-0.6
		c-0.6,0-1.2,0.2-1.6,0.6c-0.4,0.4-0.6,0.9-0.6,1.5h-1.6l0,0c0-0.9,0.3-1.7,1-2.3c0.7-0.6,1.6-1,2.7-1c1.1,0,2,0.3,2.6,0.9
		s1,1.4,1,2.5c0,0.6-0.1,1.1-0.4,1.5c-0.3,0.5-0.7,0.8-1.2,1.1c0.6,0.2,1.1,0.6,1.4,1.1c0.3,0.5,0.5,1.1,0.5,1.8
		c0,1.1-0.4,2-1.1,2.6c-0.7,0.6-1.6,0.9-2.7,0.9c-1,0-1.9-0.3-2.7-0.9c-0.8-0.6-1.2-1.4-1.1-2.4l0,0h1.6c0,0.6,0.2,1.1,0.6,1.5
		c0.4,0.4,1,0.6,1.6,0.6c0.7,0,1.2-0.2,1.6-0.6s0.6-1,0.6-1.6c0-0.8-0.2-1.3-0.5-1.7c-0.4-0.4-0.9-0.6-1.7-0.6h-1.3v-1.3H349.8z"/>
	<path class="st2" d="M357.5,287.6h-1.6V286h1.6V287.6z"/>
	<path class="st2" d="M365,287.6h-1.6v-10.6l-2.6,0v-1.3l4.3-0.4V287.6z"/>
</g>
<g class="st1">
	<path class="st2" d="M392.2,278.9h-1.6v-12.1h1.6V278.9z"/>
	<path class="st2" d="M396.5,269.9l0.1,1.3c0.3-0.5,0.7-0.8,1.1-1.1c0.5-0.3,1-0.4,1.5-0.4c1,0,1.7,0.3,2.2,0.9s0.8,1.4,0.8,2.6v5.7
		h-1.6v-5.6c0-0.8-0.2-1.4-0.5-1.7c-0.3-0.3-0.8-0.5-1.4-0.5c-0.5,0-0.9,0.1-1.3,0.3c-0.4,0.2-0.6,0.5-0.8,0.9v6.7H395v-9H396.5z"/>
	<path class="st2" d="M407.7,276.2l0.1,0.6h0l0.2-0.6l2.1-6.3h1.7l-3.3,9h-1.2l-3.3-9h1.7L407.7,276.2z"/>
	<path class="st2" d="M416.8,279.1c-1.3,0-2.3-0.4-3-1.2c-0.7-0.8-1.1-1.9-1.1-3.3v-0.4c0-1.3,0.4-2.4,1.1-3.2
		c0.7-0.8,1.7-1.3,2.7-1.3c1.2,0,2.1,0.4,2.7,1.1c0.6,0.7,0.9,1.7,0.9,3v0.9h-5.7l0,0c0,0.9,0.2,1.6,0.6,2.2s1,0.8,1.8,0.8
		c0.6,0,1-0.1,1.5-0.2c0.4-0.2,0.8-0.4,1.1-0.7l0.6,1.1c-0.3,0.3-0.7,0.6-1.3,0.8S417.6,279.1,416.8,279.1z M416.6,271
		c-0.6,0-1,0.2-1.4,0.7c-0.4,0.4-0.6,1-0.7,1.7l0,0h4.1v-0.1c0-0.7-0.2-1.2-0.5-1.6S417.2,271,416.6,271z"/>
	<path class="st2" d="M427.2,276.5c0-0.4-0.1-0.7-0.4-0.9c-0.3-0.2-0.8-0.4-1.6-0.6c-1.1-0.2-1.9-0.5-2.4-1c-0.6-0.4-0.9-1-0.9-1.6
		c0-0.7,0.3-1.4,0.9-1.9c0.6-0.5,1.4-0.8,2.4-0.8c1,0,1.8,0.3,2.5,0.8s0.9,1.2,0.9,1.9l0,0h-1.6c0-0.4-0.2-0.7-0.5-1.1
		c-0.3-0.3-0.8-0.5-1.3-0.5c-0.6,0-1,0.1-1.3,0.4c-0.3,0.3-0.4,0.6-0.4,0.9c0,0.4,0.1,0.6,0.4,0.8c0.2,0.2,0.8,0.4,1.5,0.5
		c1.1,0.2,1.9,0.6,2.5,1s0.9,1,0.9,1.7c0,0.8-0.3,1.4-1,2c-0.6,0.5-1.5,0.8-2.5,0.8c-1.1,0-2-0.3-2.7-0.9s-1-1.3-0.9-2l0-0.1h1.6
		c0,0.6,0.2,1,0.6,1.3s0.9,0.4,1.4,0.4c0.6,0,1-0.1,1.4-0.4C427.1,277.2,427.2,276.9,427.2,276.5z"/>
	<path class="st2" d="M433.2,267.7v2.2h1.7v1.2h-1.7v5.5c0,0.4,0.1,0.7,0.3,0.9c0.2,0.2,0.4,0.3,0.7,0.3c0.1,0,0.2,0,0.3,0
		c0.1,0,0.2-0.1,0.3-0.1l0.2,1.1c-0.1,0.1-0.3,0.2-0.5,0.2s-0.5,0.1-0.7,0.1c-0.7,0-1.2-0.2-1.6-0.6s-0.6-1-0.6-1.9v-5.5h-1.4v-1.2
		h1.4v-2.2H433.2z"/>
	<path class="st2" d="M438.1,269.9l0.1,1.2c0.3-0.4,0.7-0.8,1.1-1c0.5-0.2,1-0.4,1.6-0.4s1.1,0.1,1.5,0.4c0.4,0.3,0.8,0.7,1,1.2
		c0.3-0.5,0.7-0.9,1.1-1.2c0.5-0.3,1-0.4,1.6-0.4c0.9,0,1.6,0.3,2.2,0.9s0.8,1.6,0.8,2.8v5.4h-1.6v-5.4c0-0.9-0.2-1.5-0.5-1.9
		s-0.8-0.6-1.4-0.6c-0.6,0-1,0.2-1.4,0.6c-0.3,0.4-0.5,0.9-0.6,1.5v0.1v5.7H442v-5.4c0-0.8-0.2-1.5-0.5-1.8
		c-0.3-0.4-0.8-0.6-1.3-0.6c-0.5,0-0.9,0.1-1.2,0.3c-0.3,0.2-0.6,0.5-0.7,0.9v6.6h-1.6v-9H438.1z"/>
	<path class="st2" d="M455.2,279.1c-1.3,0-2.3-0.4-3-1.2c-0.7-0.8-1.1-1.9-1.1-3.3v-0.4c0-1.3,0.4-2.4,1.1-3.2
		c0.7-0.8,1.7-1.3,2.7-1.3c1.2,0,2.1,0.4,2.7,1.1c0.6,0.7,0.9,1.7,0.9,3v0.9h-5.7l0,0c0,0.9,0.2,1.6,0.6,2.2s1,0.8,1.8,0.8
		c0.6,0,1-0.1,1.5-0.2c0.4-0.2,0.8-0.4,1.1-0.7l0.6,1.1c-0.3,0.3-0.7,0.6-1.3,0.8S455.9,279.1,455.2,279.1z M454.9,271
		c-0.6,0-1,0.2-1.4,0.7c-0.4,0.4-0.6,1-0.7,1.7l0,0h4.1v-0.1c0-0.7-0.2-1.2-0.5-1.6S455.6,271,454.9,271z"/>
	<path class="st2" d="M461.8,269.9l0.1,1.3c0.3-0.5,0.7-0.8,1.1-1.1c0.5-0.3,1-0.4,1.5-0.4c1,0,1.7,0.3,2.2,0.9s0.8,1.4,0.8,2.6v5.7
		H466v-5.6c0-0.8-0.2-1.4-0.5-1.7c-0.3-0.3-0.8-0.5-1.4-0.5c-0.5,0-0.9,0.1-1.3,0.3c-0.4,0.2-0.6,0.5-0.8,0.9v6.7h-1.6v-9H461.8z"/>
	<path class="st2" d="M472.3,267.7v2.2h1.7v1.2h-1.7v5.5c0,0.4,0.1,0.7,0.3,0.9c0.2,0.2,0.4,0.3,0.7,0.3c0.1,0,0.2,0,0.3,0
		c0.1,0,0.2-0.1,0.3-0.1l0.2,1.1c-0.1,0.1-0.3,0.2-0.5,0.2s-0.5,0.1-0.7,0.1c-0.7,0-1.2-0.2-1.6-0.6s-0.6-1-0.6-1.9v-5.5h-1.4v-1.2
		h1.4v-2.2H472.3z"/>
</g>
<g class="st1">
	<path class="st2" d="M396.4,294.6L396.4,294.6l3.9-9.8h2v12.1h-1.6v-9.1l0,0l-3.7,9.1h-1.1l-3.8-9.4l0,0v9.4h-1.6v-12.1h2.1
		L396.4,294.6z"/>
	<path class="st2" d="M410.5,296.9c-0.1-0.3-0.1-0.5-0.1-0.7c0-0.2,0-0.4-0.1-0.6c-0.3,0.4-0.7,0.8-1.2,1.1c-0.5,0.3-1,0.4-1.6,0.4
		c-0.9,0-1.6-0.2-2.1-0.7c-0.5-0.5-0.7-1.1-0.7-2c0-0.9,0.3-1.5,1-2c0.7-0.5,1.6-0.7,2.8-0.7h1.8v-0.9c0-0.5-0.2-0.9-0.5-1.2
		c-0.3-0.3-0.8-0.5-1.4-0.5c-0.5,0-1,0.1-1.3,0.4s-0.5,0.6-0.5,1l-1.6,0l0,0c0-0.7,0.3-1.3,0.9-1.8c0.6-0.5,1.5-0.8,2.5-0.8
		c1,0,1.8,0.3,2.5,0.8s0.9,1.3,0.9,2.2v4.3c0,0.3,0,0.6,0,0.9s0.1,0.6,0.2,0.9H410.5z M407.8,295.7c0.6,0,1.1-0.2,1.6-0.5
		c0.5-0.3,0.8-0.7,0.9-1v-1.5h-1.8c-0.7,0-1.2,0.2-1.6,0.5c-0.4,0.3-0.6,0.7-0.6,1.2c0,0.4,0.1,0.7,0.4,0.9S407.3,295.7,407.8,295.7
		z"/>
	<path class="st2" d="M415.8,287.9l0.1,1.3c0.3-0.5,0.7-0.8,1.1-1.1c0.5-0.3,1-0.4,1.5-0.4c1,0,1.7,0.3,2.2,0.9s0.8,1.4,0.8,2.6v5.7
		H420v-5.6c0-0.8-0.2-1.4-0.5-1.7c-0.3-0.3-0.8-0.5-1.4-0.5c-0.5,0-0.9,0.1-1.3,0.3c-0.4,0.2-0.6,0.5-0.8,0.9v6.7h-1.6v-9H415.8z"/>
	<path class="st2" d="M429.5,296.9c-0.1-0.3-0.1-0.5-0.1-0.7c0-0.2,0-0.4-0.1-0.6c-0.3,0.4-0.7,0.8-1.2,1.1c-0.5,0.3-1,0.4-1.6,0.4
		c-0.9,0-1.6-0.2-2.1-0.7c-0.5-0.5-0.7-1.1-0.7-2c0-0.9,0.3-1.5,1-2c0.7-0.5,1.6-0.7,2.8-0.7h1.8v-0.9c0-0.5-0.2-0.9-0.5-1.2
		c-0.3-0.3-0.8-0.5-1.4-0.5c-0.5,0-1,0.1-1.3,0.4s-0.5,0.6-0.5,1l-1.6,0l0,0c0-0.7,0.3-1.3,0.9-1.8c0.6-0.5,1.5-0.8,2.5-0.8
		c1,0,1.8,0.3,2.5,0.8s0.9,1.3,0.9,2.2v4.3c0,0.3,0,0.6,0,0.9s0.1,0.6,0.2,0.9H429.5z M426.8,295.7c0.6,0,1.1-0.2,1.6-0.5
		c0.5-0.3,0.8-0.7,0.9-1v-1.5h-1.8c-0.7,0-1.2,0.2-1.6,0.5c-0.4,0.3-0.6,0.7-0.6,1.2c0,0.4,0.1,0.7,0.4,0.9S426.3,295.7,426.8,295.7
		z"/>
	<path class="st2" d="M433,292.6c0-1.4,0.3-2.6,0.9-3.5c0.6-0.9,1.5-1.3,2.6-1.3c0.6,0,1.1,0.1,1.5,0.3s0.8,0.6,1.1,1l0.2-1.2h1.3v9
		c0,1.2-0.3,2-1,2.7s-1.6,0.9-2.9,0.9c-0.4,0-0.9-0.1-1.4-0.2c-0.5-0.1-0.9-0.3-1.3-0.5l0.2-1.3c0.3,0.2,0.7,0.3,1.1,0.4
		c0.4,0.1,0.9,0.2,1.3,0.2c0.8,0,1.4-0.2,1.7-0.5c0.4-0.4,0.5-0.9,0.5-1.7v-1c-0.3,0.4-0.6,0.7-1.1,0.9s-0.9,0.3-1.4,0.3
		c-1.1,0-2-0.4-2.6-1.2c-0.6-0.8-0.9-1.8-0.9-3.1V292.6z M434.7,292.7c0,0.9,0.2,1.6,0.6,2.2s0.9,0.8,1.7,0.8c0.5,0,0.9-0.1,1.2-0.3
		c0.3-0.2,0.6-0.5,0.8-1v-4.1c-0.2-0.4-0.5-0.7-0.8-0.9c-0.3-0.2-0.7-0.3-1.2-0.3c-0.8,0-1.4,0.3-1.7,1c-0.4,0.6-0.6,1.5-0.6,2.5
		V292.7z"/>
	<path class="st2" d="M446.7,297.1c-1.3,0-2.3-0.4-3-1.2c-0.7-0.8-1.1-1.9-1.1-3.3v-0.4c0-1.3,0.4-2.4,1.1-3.2
		c0.7-0.8,1.7-1.3,2.7-1.3c1.2,0,2.1,0.4,2.7,1.1c0.6,0.7,0.9,1.7,0.9,3v0.9h-5.7l0,0c0,0.9,0.2,1.6,0.6,2.2s1,0.8,1.8,0.8
		c0.6,0,1-0.1,1.5-0.2c0.4-0.2,0.8-0.4,1.1-0.7l0.6,1.1c-0.3,0.3-0.7,0.6-1.3,0.8S447.4,297.1,446.7,297.1z M446.4,289
		c-0.6,0-1,0.2-1.4,0.7c-0.4,0.4-0.6,1-0.7,1.7l0,0h4.1v-0.1c0-0.7-0.2-1.2-0.5-1.6S447.1,289,446.4,289z"/>
	<path class="st2" d="M453.3,287.9l0.1,1.2c0.3-0.4,0.7-0.8,1.1-1c0.5-0.2,1-0.4,1.6-0.4s1.1,0.1,1.5,0.4c0.4,0.3,0.8,0.7,1,1.2
		c0.3-0.5,0.7-0.9,1.1-1.2c0.5-0.3,1-0.4,1.6-0.4c0.9,0,1.6,0.3,2.2,0.9s0.8,1.6,0.8,2.8v5.4h-1.6v-5.4c0-0.9-0.2-1.5-0.5-1.9
		s-0.8-0.6-1.4-0.6c-0.6,0-1,0.2-1.4,0.6c-0.3,0.4-0.5,0.9-0.6,1.5v0.1v5.7h-1.6v-5.4c0-0.8-0.2-1.5-0.5-1.8
		c-0.3-0.4-0.8-0.6-1.3-0.6c-0.5,0-0.9,0.1-1.2,0.3c-0.3,0.2-0.6,0.5-0.7,0.9v6.6h-1.6v-9H453.3z"/>
	<path class="st2" d="M470.4,297.1c-1.3,0-2.3-0.4-3-1.2c-0.7-0.8-1.1-1.9-1.1-3.3v-0.4c0-1.3,0.4-2.4,1.1-3.2
		c0.7-0.8,1.7-1.3,2.7-1.3c1.2,0,2.1,0.4,2.7,1.1c0.6,0.7,0.9,1.7,0.9,3v0.9H468l0,0c0,0.9,0.2,1.6,0.6,2.2s1,0.8,1.8,0.8
		c0.6,0,1-0.1,1.5-0.2c0.4-0.2,0.8-0.4,1.1-0.7l0.6,1.1c-0.3,0.3-0.7,0.6-1.3,0.8S471.2,297.1,470.4,297.1z M470.2,289
		c-0.6,0-1,0.2-1.4,0.7c-0.4,0.4-0.6,1-0.7,1.7l0,0h4.1v-0.1c0-0.7-0.2-1.2-0.5-1.6S470.9,289,470.2,289z"/>
	<path class="st2" d="M477.1,287.9l0.1,1.3c0.3-0.5,0.7-0.8,1.1-1.1c0.5-0.3,1-0.4,1.5-0.4c1,0,1.7,0.3,2.2,0.9s0.8,1.4,0.8,2.6v5.7
		h-1.6v-5.6c0-0.8-0.2-1.4-0.5-1.7c-0.3-0.3-0.8-0.5-1.4-0.5c-0.5,0-0.9,0.1-1.3,0.3c-0.4,0.2-0.6,0.5-0.8,0.9v6.7h-1.6v-9H477.1z"
		/>
	<path class="st2" d="M487.6,285.7v2.2h1.7v1.2h-1.7v5.5c0,0.4,0.1,0.7,0.3,0.9c0.2,0.2,0.4,0.3,0.7,0.3c0.1,0,0.2,0,0.3,0
		c0.1,0,0.2-0.1,0.3-0.1l0.2,1.1c-0.1,0.1-0.3,0.2-0.5,0.2s-0.5,0.1-0.7,0.1c-0.7,0-1.2-0.2-1.6-0.6s-0.6-1-0.6-1.9v-5.5h-1.4v-1.2
		h1.4v-2.2H487.6z"/>
</g>
<g class="st1">
	<path class="st2" d="M96.9,271.3h-5v4.3h5.8v1.3h-7.4v-12.1h7.4v1.3H92v3.9h5V271.3z"/>
	<path class="st2" d="M100.9,267.9l0.1,1.3c0.3-0.5,0.7-0.8,1.1-1.1c0.5-0.3,1-0.4,1.5-0.4c1,0,1.7,0.3,2.2,0.9s0.8,1.4,0.8,2.6v5.7
		h-1.6v-5.6c0-0.8-0.2-1.4-0.5-1.7c-0.3-0.3-0.8-0.5-1.4-0.5c-0.5,0-0.9,0.1-1.3,0.3c-0.4,0.2-0.6,0.5-0.8,0.9v6.7h-1.6v-9H100.9z"
		/>
	<path class="st2" d="M108.8,272.6c0-1.4,0.3-2.6,0.9-3.5c0.6-0.9,1.5-1.3,2.6-1.3c0.5,0,1,0.1,1.4,0.3c0.4,0.2,0.8,0.5,1,0.8v-4.9
		h1.6v12.9h-1.3l-0.2-1.1c-0.3,0.4-0.7,0.8-1.1,1c-0.4,0.2-0.9,0.3-1.5,0.3c-1.1,0-2-0.4-2.6-1.2s-0.9-1.8-0.9-3.1V272.6z
		 M110.4,272.7c0,0.9,0.2,1.6,0.6,2.2s0.9,0.8,1.7,0.8c0.5,0,0.9-0.1,1.2-0.3c0.3-0.2,0.6-0.5,0.8-0.9v-4.2
		c-0.2-0.4-0.5-0.7-0.8-0.9c-0.3-0.2-0.7-0.3-1.2-0.3c-0.8,0-1.4,0.3-1.7,1c-0.4,0.6-0.6,1.5-0.6,2.5V272.7z"/>
	<path class="st2" d="M118.4,272.3c0-1.3,0.4-2.4,1.1-3.3s1.7-1.3,2.9-1.3c1.2,0,2.2,0.4,3,1.3c0.7,0.9,1.1,2,1.1,3.3v0.2
		c0,1.3-0.4,2.4-1.1,3.3c-0.7,0.9-1.7,1.3-2.9,1.3s-2.2-0.4-2.9-1.3c-0.7-0.9-1.1-1.9-1.1-3.3V272.3z M120.1,272.5
		c0,1,0.2,1.7,0.6,2.4c0.4,0.6,1,0.9,1.8,0.9c0.8,0,1.4-0.3,1.8-0.9c0.4-0.6,0.6-1.4,0.6-2.4v-0.2c0-0.9-0.2-1.7-0.6-2.3
		c-0.4-0.6-1-0.9-1.8-0.9c-0.8,0-1.4,0.3-1.8,0.9c-0.4,0.6-0.6,1.4-0.6,2.3V272.5z"/>
	<path class="st2" d="M130.8,273.6l0.2,1.2h0l0.2-1.2l1.8-5.7h1.3l1.8,5.7l0.2,1.3h0l0.3-1.3l1.3-5.7h1.7l-2.6,9h-1.3l-1.8-5.5
		l-0.3-1.4h0l-0.3,1.4l-1.7,5.5h-1.3l-2.6-9h1.7L130.8,273.6z"/>
	<path class="st2" d="M142.8,267.9l0.1,1.2c0.3-0.4,0.7-0.8,1.1-1c0.5-0.2,1-0.4,1.6-0.4s1.1,0.1,1.5,0.4c0.4,0.3,0.8,0.7,1,1.2
		c0.3-0.5,0.7-0.9,1.1-1.2c0.5-0.3,1-0.4,1.6-0.4c0.9,0,1.6,0.3,2.2,0.9s0.8,1.6,0.8,2.8v5.4h-1.6v-5.4c0-0.9-0.2-1.5-0.5-1.9
		s-0.8-0.6-1.4-0.6c-0.6,0-1,0.2-1.4,0.6c-0.3,0.4-0.5,0.9-0.6,1.5v0.1v5.7h-1.6v-5.4c0-0.8-0.2-1.5-0.5-1.8
		c-0.3-0.4-0.8-0.6-1.3-0.6c-0.5,0-0.9,0.1-1.2,0.3c-0.3,0.2-0.6,0.5-0.7,0.9v6.6h-1.6v-9H142.8z"/>
	<path class="st2" d="M159.9,277.1c-1.3,0-2.3-0.4-3-1.2c-0.7-0.8-1.1-1.9-1.1-3.3v-0.4c0-1.3,0.4-2.4,1.1-3.2
		c0.7-0.8,1.7-1.3,2.7-1.3c1.2,0,2.1,0.4,2.7,1.1c0.6,0.7,0.9,1.7,0.9,3v0.9h-5.7l0,0c0,0.9,0.2,1.6,0.6,2.2s1,0.8,1.8,0.8
		c0.6,0,1-0.1,1.5-0.2c0.4-0.2,0.8-0.4,1.1-0.7l0.6,1.1c-0.3,0.3-0.7,0.6-1.3,0.8S160.7,277.1,159.9,277.1z M159.7,269
		c-0.6,0-1,0.2-1.4,0.7c-0.4,0.4-0.6,1-0.7,1.7l0,0h4.1v-0.1c0-0.7-0.2-1.2-0.5-1.6S160.3,269,159.7,269z"/>
	<path class="st2" d="M166.5,267.9l0.1,1.3c0.3-0.5,0.7-0.8,1.1-1.1c0.5-0.3,1-0.4,1.5-0.4c1,0,1.7,0.3,2.2,0.9s0.8,1.4,0.8,2.6v5.7
		h-1.6v-5.6c0-0.8-0.2-1.4-0.5-1.7c-0.3-0.3-0.8-0.5-1.4-0.5c-0.5,0-0.9,0.1-1.3,0.3c-0.4,0.2-0.6,0.5-0.8,0.9v6.7h-1.6v-9H166.5z"
		/>
	<path class="st2" d="M177,265.7v2.2h1.7v1.2H177v5.5c0,0.4,0.1,0.7,0.3,0.9c0.2,0.2,0.4,0.3,0.7,0.3c0.1,0,0.2,0,0.3,0
		c0.1,0,0.2-0.1,0.3-0.1l0.2,1.1c-0.1,0.1-0.3,0.2-0.5,0.2s-0.5,0.1-0.7,0.1c-0.7,0-1.2-0.2-1.6-0.6s-0.6-1-0.6-1.9v-5.5H174v-1.2
		h1.4v-2.2H177z"/>
	<path class="st2" d="M185.7,274.5c0-0.4-0.1-0.7-0.4-0.9c-0.3-0.2-0.8-0.4-1.6-0.6c-1.1-0.2-1.9-0.5-2.4-1c-0.6-0.4-0.9-1-0.9-1.6
		c0-0.7,0.3-1.4,0.9-1.9c0.6-0.5,1.4-0.8,2.4-0.8c1,0,1.8,0.3,2.5,0.8s0.9,1.2,0.9,1.9l0,0h-1.6c0-0.4-0.2-0.7-0.5-1.1
		c-0.3-0.3-0.8-0.5-1.3-0.5c-0.6,0-1,0.1-1.3,0.4c-0.3,0.3-0.4,0.6-0.4,0.9c0,0.4,0.1,0.6,0.4,0.8c0.2,0.2,0.8,0.4,1.5,0.5
		c1.1,0.2,1.9,0.6,2.5,1s0.9,1,0.9,1.7c0,0.8-0.3,1.4-1,2c-0.6,0.5-1.5,0.8-2.5,0.8c-1.1,0-2-0.3-2.7-0.9s-1-1.3-0.9-2l0-0.1h1.6
		c0,0.6,0.2,1,0.6,1.3s0.9,0.4,1.4,0.4c0.6,0,1-0.1,1.4-0.4C185.5,275.2,185.7,274.9,185.7,274.5z"/>
</g>
<g class="st1">
	<path class="st2" d="M89.4,292.6c0-0.7,0.2-1.3,0.6-1.8c0.4-0.5,1-1,1.7-1.5c-0.4-0.5-0.8-1-1-1.5s-0.3-0.9-0.3-1.3
		c0-0.9,0.3-1.7,0.8-2.2c0.5-0.5,1.3-0.8,2.2-0.8c0.9,0,1.6,0.3,2.1,0.8s0.8,1.1,0.8,1.8c0,0.5-0.1,1-0.4,1.4
		c-0.3,0.4-0.7,0.8-1.3,1.2l-0.9,0.7l2.8,3.4c0.2-0.4,0.4-0.8,0.5-1.2s0.2-0.9,0.2-1.4h1.5c0,0.7-0.1,1.4-0.3,2
		c-0.2,0.6-0.5,1.2-0.9,1.7l1.5,1.9l0,0h-1.9l-0.7-0.8c-0.4,0.3-0.9,0.6-1.5,0.8c-0.5,0.2-1.1,0.3-1.7,0.3c-1.2,0-2.2-0.3-2.9-1
		C89.8,294.5,89.4,293.6,89.4,292.6z M93.4,294.8c0.4,0,0.8-0.1,1.2-0.2s0.8-0.3,1.1-0.6l-3-3.6l-0.3,0.2c-0.5,0.4-0.8,0.7-1,1.1
		c-0.2,0.3-0.2,0.7-0.2,0.9c0,0.6,0.2,1.1,0.6,1.5S92.6,294.8,93.4,294.8z M92.1,286.5c0,0.3,0.1,0.6,0.2,0.9s0.4,0.7,0.7,1l1.1-0.8
		c0.3-0.2,0.5-0.4,0.6-0.7c0.1-0.2,0.2-0.5,0.2-0.8c0-0.3-0.1-0.6-0.4-0.9c-0.3-0.3-0.6-0.4-1.1-0.4c-0.4,0-0.8,0.2-1,0.5
		S92.1,286.1,92.1,286.5z"/>
	<path class="st2" d="M111.9,290.5h-5.1v5.3h-1.6v-12.1h7.6v1.3h-5.9v4.2h5.1V290.5z"/>
	<path class="st2" d="M118.3,288.3l-0.8,0c-0.4,0-0.8,0.1-1.1,0.3c-0.3,0.2-0.5,0.5-0.7,0.9v6.4h-1.6v-9h1.5l0.2,1.3
		c0.3-0.5,0.6-0.8,0.9-1.1c0.4-0.3,0.8-0.4,1.3-0.4c0.1,0,0.2,0,0.3,0s0.2,0,0.3,0.1L118.3,288.3z"/>
	<path class="st2" d="M119.5,291.3c0-1.3,0.4-2.4,1.1-3.3s1.7-1.3,2.9-1.3c1.2,0,2.2,0.4,3,1.3c0.7,0.9,1.1,2,1.1,3.3v0.2
		c0,1.3-0.4,2.4-1.1,3.3c-0.7,0.9-1.7,1.3-2.9,1.3s-2.2-0.4-2.9-1.3c-0.7-0.9-1.1-1.9-1.1-3.3V291.3z M121.1,291.5
		c0,1,0.2,1.7,0.6,2.4c0.4,0.6,1,0.9,1.8,0.9c0.8,0,1.4-0.3,1.8-0.9c0.4-0.6,0.6-1.4,0.6-2.4v-0.2c0-0.9-0.2-1.7-0.6-2.3
		c-0.4-0.6-1-0.9-1.8-0.9c-0.8,0-1.4,0.3-1.8,0.9c-0.4,0.6-0.6,1.4-0.6,2.3V291.5z"/>
	<path class="st2" d="M135.2,294.6c-0.3,0.5-0.6,0.9-1.1,1.1s-1,0.4-1.5,0.4c-1,0-1.7-0.3-2.3-0.9s-0.8-1.6-0.8-2.9v-5.3h1.6v5.3
		c0,1,0.1,1.6,0.4,2s0.7,0.5,1.3,0.5c0.6,0,1.1-0.1,1.4-0.4c0.4-0.2,0.7-0.6,0.9-1v-6.5h1.6v9h-1.5L135.2,294.6z"/>
	<path class="st2" d="M140.7,286.9l0.1,1.3c0.3-0.5,0.7-0.8,1.1-1.1c0.5-0.3,1-0.4,1.5-0.4c1,0,1.7,0.3,2.2,0.9s0.8,1.4,0.8,2.6v5.7
		h-1.6v-5.6c0-0.8-0.2-1.4-0.5-1.7c-0.3-0.3-0.8-0.5-1.4-0.5c-0.5,0-0.9,0.1-1.3,0.3c-0.4,0.2-0.6,0.5-0.8,0.9v6.7h-1.6v-9H140.7z"
		/>
	<path class="st2" d="M148.5,291.6c0-1.4,0.3-2.6,0.9-3.5c0.6-0.9,1.5-1.3,2.6-1.3c0.5,0,1,0.1,1.4,0.3c0.4,0.2,0.8,0.5,1,0.8v-4.9
		h1.6v12.9h-1.3l-0.2-1.1c-0.3,0.4-0.7,0.8-1.1,1c-0.4,0.2-0.9,0.3-1.5,0.3c-1.1,0-2-0.4-2.6-1.2s-0.9-1.8-0.9-3.1V291.6z
		 M150.1,291.7c0,0.9,0.2,1.6,0.6,2.2s0.9,0.8,1.7,0.8c0.5,0,0.9-0.1,1.2-0.3c0.3-0.2,0.6-0.5,0.8-0.9v-4.2
		c-0.2-0.4-0.5-0.7-0.8-0.9c-0.3-0.2-0.7-0.3-1.2-0.3c-0.8,0-1.4,0.3-1.7,1c-0.4,0.6-0.6,1.5-0.6,2.5V291.7z"/>
	<path class="st2" d="M164,295.9c-0.1-0.3-0.1-0.5-0.1-0.7c0-0.2,0-0.4-0.1-0.6c-0.3,0.4-0.7,0.8-1.2,1.1c-0.5,0.3-1,0.4-1.6,0.4
		c-0.9,0-1.6-0.2-2.1-0.7c-0.5-0.5-0.7-1.1-0.7-2c0-0.9,0.3-1.5,1-2c0.7-0.5,1.6-0.7,2.8-0.7h1.8v-0.9c0-0.5-0.2-0.9-0.5-1.2
		c-0.3-0.3-0.8-0.5-1.4-0.5c-0.5,0-1,0.1-1.3,0.4s-0.5,0.6-0.5,1l-1.6,0l0,0c0-0.7,0.3-1.3,0.9-1.8c0.6-0.5,1.5-0.8,2.5-0.8
		c1,0,1.8,0.3,2.5,0.8s0.9,1.3,0.9,2.2v4.3c0,0.3,0,0.6,0,0.9s0.1,0.6,0.2,0.9H164z M161.3,294.7c0.6,0,1.1-0.2,1.6-0.5
		c0.5-0.3,0.8-0.7,0.9-1v-1.5H162c-0.7,0-1.2,0.2-1.6,0.5c-0.4,0.3-0.6,0.7-0.6,1.2c0,0.4,0.1,0.7,0.4,0.9S160.8,294.7,161.3,294.7z
		"/>
	<path class="st2" d="M170.1,284.7v2.2h1.7v1.2h-1.7v5.5c0,0.4,0.1,0.7,0.3,0.9c0.2,0.2,0.4,0.3,0.7,0.3c0.1,0,0.2,0,0.3,0
		c0.1,0,0.2-0.1,0.3-0.1l0.2,1.1c-0.1,0.1-0.3,0.2-0.5,0.2s-0.5,0.1-0.7,0.1c-0.7,0-1.2-0.2-1.6-0.6s-0.6-1-0.6-1.9v-5.5h-1.4v-1.2
		h1.4v-2.2H170.1z"/>
	<path class="st2" d="M175.4,284.6h-1.6v-1.7h1.6V284.6z M175.4,295.9h-1.6v-9h1.6V295.9z"/>
	<path class="st2" d="M177.5,291.3c0-1.3,0.4-2.4,1.1-3.3s1.7-1.3,2.9-1.3c1.2,0,2.2,0.4,3,1.3c0.7,0.9,1.1,2,1.1,3.3v0.2
		c0,1.3-0.4,2.4-1.1,3.3c-0.7,0.9-1.7,1.3-2.9,1.3s-2.2-0.4-2.9-1.3c-0.7-0.9-1.1-1.9-1.1-3.3V291.3z M179.1,291.5
		c0,1,0.2,1.7,0.6,2.4c0.4,0.6,1,0.9,1.8,0.9c0.8,0,1.4-0.3,1.8-0.9c0.4-0.6,0.6-1.4,0.6-2.4v-0.2c0-0.9-0.2-1.7-0.6-2.3
		c-0.4-0.6-1-0.9-1.8-0.9c-0.8,0-1.4,0.3-1.8,0.9c-0.4,0.6-0.6,1.4-0.6,2.3V291.5z"/>
	<path class="st2" d="M189,286.9l0.1,1.3c0.3-0.5,0.7-0.8,1.1-1.1c0.5-0.3,1-0.4,1.5-0.4c1,0,1.7,0.3,2.2,0.9s0.8,1.4,0.8,2.6v5.7
		h-1.6v-5.6c0-0.8-0.2-1.4-0.5-1.7c-0.3-0.3-0.8-0.5-1.4-0.5c-0.5,0-0.9,0.1-1.3,0.3c-0.4,0.2-0.6,0.5-0.8,0.9v6.7h-1.6v-9H189z"/>
	<path class="st2" d="M202.4,293.5c0-0.4-0.1-0.7-0.4-0.9c-0.3-0.2-0.8-0.4-1.6-0.6c-1.1-0.2-1.9-0.5-2.4-1c-0.6-0.4-0.9-1-0.9-1.6
		c0-0.7,0.3-1.4,0.9-1.9c0.6-0.5,1.4-0.8,2.4-0.8c1,0,1.8,0.3,2.5,0.8s0.9,1.2,0.9,1.9l0,0h-1.6c0-0.4-0.2-0.7-0.5-1.1
		c-0.3-0.3-0.8-0.5-1.3-0.5c-0.6,0-1,0.1-1.3,0.4c-0.3,0.3-0.4,0.6-0.4,0.9c0,0.4,0.1,0.6,0.4,0.8c0.2,0.2,0.8,0.4,1.5,0.5
		c1.1,0.2,1.9,0.6,2.5,1s0.9,1,0.9,1.7c0,0.8-0.3,1.4-1,2c-0.6,0.5-1.5,0.8-2.5,0.8c-1.1,0-2-0.3-2.7-0.9s-1-1.3-0.9-2l0-0.1h1.6
		c0,0.6,0.2,1,0.6,1.3s0.9,0.4,1.4,0.4c0.6,0,1-0.1,1.4-0.4C202.3,294.2,202.4,293.9,202.4,293.5z"/>
</g>
<g class="st1">
	<path class="st2" d="M397.1,326.3h-4v10.8h-1.6v-10.8h-3.9V325h9.6V326.3z"/>
	<path class="st2" d="M401.5,337.3c-1.3,0-2.3-0.4-3-1.2c-0.7-0.8-1.1-1.9-1.1-3.3v-0.4c0-1.3,0.4-2.4,1.1-3.2
		c0.7-0.8,1.7-1.3,2.7-1.3c1.2,0,2.1,0.4,2.7,1.1c0.6,0.7,0.9,1.7,0.9,3v0.9h-5.7l0,0c0,0.9,0.2,1.6,0.6,2.2s1,0.8,1.8,0.8
		c0.6,0,1-0.1,1.5-0.2c0.4-0.2,0.8-0.4,1.1-0.7l0.6,1.1c-0.3,0.3-0.7,0.6-1.3,0.8S402.2,337.3,401.5,337.3z M401.2,329.2
		c-0.6,0-1,0.2-1.4,0.7c-0.4,0.4-0.6,1-0.7,1.7l0,0h4.1v-0.1c0-0.7-0.2-1.2-0.5-1.6S401.9,329.2,401.2,329.2z"/>
	<path class="st2" d="M412.2,337.1c-0.1-0.3-0.1-0.5-0.1-0.7c0-0.2,0-0.4-0.1-0.6c-0.3,0.4-0.7,0.8-1.2,1.1c-0.5,0.3-1,0.4-1.6,0.4
		c-0.9,0-1.6-0.2-2.1-0.7c-0.5-0.5-0.7-1.1-0.7-2c0-0.9,0.3-1.5,1-2c0.7-0.5,1.6-0.7,2.8-0.7h1.8v-0.9c0-0.5-0.2-0.9-0.5-1.2
		c-0.3-0.3-0.8-0.5-1.4-0.5c-0.5,0-1,0.1-1.3,0.4s-0.5,0.6-0.5,1l-1.6,0l0,0c0-0.7,0.3-1.3,0.9-1.8c0.6-0.5,1.5-0.8,2.5-0.8
		c1,0,1.8,0.3,2.5,0.8s0.9,1.3,0.9,2.2v4.3c0,0.3,0,0.6,0,0.9s0.1,0.6,0.2,0.9H412.2z M409.5,335.9c0.6,0,1.1-0.2,1.6-0.5
		c0.5-0.3,0.8-0.7,0.9-1v-1.5h-1.8c-0.7,0-1.2,0.2-1.6,0.5c-0.4,0.3-0.6,0.7-0.6,1.2c0,0.4,0.1,0.7,0.4,0.9S409,335.9,409.5,335.9z"
		/>
	<path class="st2" d="M417.5,328.1l0.1,1.2c0.3-0.4,0.7-0.8,1.1-1c0.5-0.2,1-0.4,1.6-0.4s1.1,0.1,1.5,0.4c0.4,0.3,0.8,0.7,1,1.2
		c0.3-0.5,0.7-0.9,1.1-1.2c0.5-0.3,1-0.4,1.6-0.4c0.9,0,1.6,0.3,2.2,0.9s0.8,1.6,0.8,2.8v5.4h-1.6v-5.4c0-0.9-0.2-1.5-0.5-1.9
		s-0.8-0.6-1.4-0.6c-0.6,0-1,0.2-1.4,0.6c-0.3,0.4-0.5,0.9-0.6,1.5v0.1v5.7h-1.6v-5.4c0-0.8-0.2-1.5-0.5-1.8
		c-0.3-0.4-0.8-0.6-1.3-0.6c-0.5,0-0.9,0.1-1.2,0.3c-0.3,0.2-0.6,0.5-0.7,0.9v6.6H416v-9H417.5z"/>
	<path class="st2" d="M436.6,328.1l0.1,1.2c0.3-0.4,0.7-0.8,1.1-1c0.5-0.2,1-0.4,1.6-0.4s1.1,0.1,1.5,0.4c0.4,0.3,0.8,0.7,1,1.2
		c0.3-0.5,0.7-0.9,1.1-1.2c0.5-0.3,1-0.4,1.6-0.4c0.9,0,1.6,0.3,2.2,0.9s0.8,1.6,0.8,2.8v5.4H446v-5.4c0-0.9-0.2-1.5-0.5-1.9
		s-0.8-0.6-1.4-0.6c-0.6,0-1,0.2-1.4,0.6c-0.3,0.4-0.5,0.9-0.6,1.5v0.1v5.7h-1.6v-5.4c0-0.8-0.2-1.5-0.5-1.8
		c-0.3-0.4-0.8-0.6-1.3-0.6c-0.5,0-0.9,0.1-1.2,0.3c-0.3,0.2-0.6,0.5-0.7,0.9v6.6h-1.6v-9H436.6z"/>
	<path class="st2" d="M453.7,337.3c-1.3,0-2.3-0.4-3-1.2c-0.7-0.8-1.1-1.9-1.1-3.3v-0.4c0-1.3,0.4-2.4,1.1-3.2
		c0.7-0.8,1.7-1.3,2.7-1.3c1.2,0,2.1,0.4,2.7,1.1c0.6,0.7,0.9,1.7,0.9,3v0.9h-5.7l0,0c0,0.9,0.2,1.6,0.6,2.2s1,0.8,1.8,0.8
		c0.6,0,1-0.1,1.5-0.2c0.4-0.2,0.8-0.4,1.1-0.7l0.6,1.1c-0.3,0.3-0.7,0.6-1.3,0.8S454.4,337.3,453.7,337.3z M453.4,329.2
		c-0.6,0-1,0.2-1.4,0.7c-0.4,0.4-0.6,1-0.7,1.7l0,0h4.1v-0.1c0-0.7-0.2-1.2-0.5-1.6S454.1,329.2,453.4,329.2z"/>
	<path class="st2" d="M460.3,328.1l0.1,1.2c0.3-0.4,0.7-0.8,1.1-1c0.5-0.2,1-0.4,1.6-0.4s1.1,0.1,1.5,0.4c0.4,0.3,0.8,0.7,1,1.2
		c0.3-0.5,0.7-0.9,1.1-1.2c0.5-0.3,1-0.4,1.6-0.4c0.9,0,1.6,0.3,2.2,0.9s0.8,1.6,0.8,2.8v5.4h-1.6v-5.4c0-0.9-0.2-1.5-0.5-1.9
		s-0.8-0.6-1.4-0.6c-0.6,0-1,0.2-1.4,0.6c-0.3,0.4-0.5,0.9-0.6,1.5v0.1v5.7h-1.6v-5.4c0-0.8-0.2-1.5-0.5-1.8
		c-0.3-0.4-0.8-0.6-1.3-0.6c-0.5,0-0.9,0.1-1.2,0.3c-0.3,0.2-0.6,0.5-0.7,0.9v6.6h-1.6v-9H460.3z"/>
	<path class="st2" d="M481.4,332.9c0,1.3-0.3,2.3-0.9,3.1c-0.6,0.8-1.5,1.2-2.6,1.2c-0.6,0-1.1-0.1-1.6-0.4c-0.4-0.2-0.8-0.6-1.1-1
		l-0.3,1.2h-1.3v-12.9h1.6v5c0.3-0.4,0.6-0.7,1-0.9c0.4-0.2,0.9-0.3,1.5-0.3c1.1,0,2,0.4,2.6,1.3s0.9,2,0.9,3.5V332.9z M479.8,332.8
		c0-1-0.2-1.9-0.6-2.5c-0.4-0.7-1-1-1.7-1c-0.5,0-0.9,0.1-1.3,0.4c-0.3,0.2-0.6,0.6-0.8,1v3.9c0.2,0.4,0.5,0.8,0.8,1
		c0.3,0.2,0.8,0.4,1.3,0.4c0.8,0,1.3-0.3,1.7-0.8s0.6-1.3,0.6-2.2V332.8z"/>
	<path class="st2" d="M487.1,337.3c-1.3,0-2.3-0.4-3-1.2c-0.7-0.8-1.1-1.9-1.1-3.3v-0.4c0-1.3,0.4-2.4,1.1-3.2
		c0.7-0.8,1.7-1.3,2.7-1.3c1.2,0,2.1,0.4,2.7,1.1c0.6,0.7,0.9,1.7,0.9,3v0.9h-5.7l0,0c0,0.9,0.2,1.6,0.6,2.2s1,0.8,1.8,0.8
		c0.6,0,1-0.1,1.5-0.2c0.4-0.2,0.8-0.4,1.1-0.7l0.6,1.1c-0.3,0.3-0.7,0.6-1.3,0.8S487.9,337.3,487.1,337.3z M486.9,329.2
		c-0.6,0-1,0.2-1.4,0.7c-0.4,0.4-0.6,1-0.7,1.7l0,0h4.1v-0.1c0-0.7-0.2-1.2-0.5-1.6S487.5,329.2,486.9,329.2z"/>
	<path class="st2" d="M496.5,329.5l-0.8,0c-0.4,0-0.8,0.1-1.1,0.3c-0.3,0.2-0.5,0.5-0.7,0.9v6.4h-1.6v-9h1.5l0.2,1.3
		c0.3-0.5,0.6-0.8,0.9-1.1c0.4-0.3,0.8-0.4,1.3-0.4c0.1,0,0.2,0,0.3,0s0.2,0,0.3,0.1L496.5,329.5z"/>
	<path class="st2" d="M503.5,334.7c0-0.4-0.1-0.7-0.4-0.9c-0.3-0.2-0.8-0.4-1.6-0.6c-1.1-0.2-1.9-0.5-2.4-1c-0.6-0.4-0.9-1-0.9-1.6
		c0-0.7,0.3-1.4,0.9-1.9c0.6-0.5,1.4-0.8,2.4-0.8c1,0,1.8,0.3,2.5,0.8s0.9,1.2,0.9,1.9l0,0h-1.6c0-0.4-0.2-0.7-0.5-1.1
		c-0.3-0.3-0.8-0.5-1.3-0.5c-0.6,0-1,0.1-1.3,0.4c-0.3,0.3-0.4,0.6-0.4,0.9c0,0.4,0.1,0.6,0.4,0.8c0.2,0.2,0.8,0.4,1.5,0.5
		c1.1,0.2,1.9,0.6,2.5,1s0.9,1,0.9,1.7c0,0.8-0.3,1.4-1,2c-0.6,0.5-1.5,0.8-2.5,0.8c-1.1,0-2-0.3-2.7-0.9s-1-1.3-0.9-2l0-0.1h1.6
		c0,0.6,0.2,1,0.6,1.3s0.9,0.4,1.4,0.4c0.6,0,1-0.1,1.4-0.4C503.3,335.4,503.5,335,503.5,334.7z"/>
</g>
<g class="st1">
	<path class="st2" d="M631.4,213.6h1.7v1.3h-1.7v2.8h-1.6v-2.8h-5.2v-0.9l5.1-8.4h1.7V213.6z M626.3,213.6h3.4v-5.7l0,0l-0.2,0.4
		L626.3,213.6z"/>
	<path class="st2" d="M636.5,217.6h-1.6V216h1.6V217.6z"/>
	<path class="st2" d="M646.7,213.4c0,1.4-0.3,2.4-1,3.2c-0.7,0.8-1.6,1.2-2.8,1.2c-1.2,0-2.1-0.4-2.8-1.2c-0.7-0.8-1.1-1.9-1.1-3.2
		v-3.6c0-1.4,0.3-2.4,1-3.2c0.7-0.8,1.6-1.2,2.8-1.2c1.2,0,2.1,0.4,2.8,1.2c0.7,0.8,1,1.9,1,3.2V213.4z M645.1,209.5
		c0-0.9-0.2-1.6-0.6-2.1c-0.4-0.5-0.9-0.8-1.6-0.8c-0.7,0-1.2,0.3-1.6,0.8c-0.4,0.5-0.6,1.2-0.6,2.1v4.2c0,0.9,0.2,1.6,0.6,2.1
		c0.4,0.5,0.9,0.8,1.6,0.8c0.7,0,1.3-0.3,1.6-0.8c0.4-0.5,0.6-1.2,0.6-2.1V209.5z"/>
	<path class="st2" d="M653.3,217.6v-12.1h3.9c1.3,0,2.2,0.3,3,0.8c0.7,0.5,1.1,1.4,1.1,2.5c0,0.5-0.2,1-0.5,1.4s-0.7,0.7-1.3,0.9
		c0.8,0.1,1.4,0.5,1.9,1c0.5,0.6,0.7,1.3,0.7,2c0,1.1-0.4,2-1.1,2.5s-1.7,0.9-2.9,0.9H653.3z M655,210.7h2.6c0.6,0,1.1-0.2,1.5-0.5
		s0.6-0.8,0.6-1.4c0-0.7-0.2-1.1-0.6-1.5c-0.4-0.3-1-0.5-1.8-0.5H655V210.7z M655,212v4.4h3.2c0.7,0,1.3-0.2,1.7-0.6
		c0.4-0.4,0.6-0.9,0.6-1.6c0-0.7-0.2-1.2-0.6-1.6s-1-0.6-1.7-0.7H658H655z"/>
	<path class="st2" d="M665.7,217.6H664v-12.9h1.6V217.6z"/>
	<path class="st2" d="M667.8,213.1c0-1.3,0.4-2.4,1.1-3.3s1.7-1.3,2.9-1.3c1.2,0,2.2,0.4,3,1.3c0.7,0.9,1.1,2,1.1,3.3v0.2
		c0,1.3-0.4,2.4-1.1,3.3c-0.7,0.9-1.7,1.3-2.9,1.3c-1.2,0-2.2-0.4-2.9-1.3c-0.7-0.9-1.1-1.9-1.1-3.3V213.1z M669.4,213.2
		c0,1,0.2,1.7,0.6,2.4c0.4,0.6,1,0.9,1.8,0.9c0.8,0,1.4-0.3,1.8-0.9c0.4-0.6,0.6-1.4,0.6-2.4v-0.2c0-0.9-0.2-1.7-0.6-2.3
		c-0.4-0.6-1-0.9-1.8-0.9c-0.8,0-1.4,0.3-1.8,0.9c-0.4,0.6-0.6,1.4-0.6,2.3V213.2z"/>
	<path class="st2" d="M677.6,213.3c0-1.4,0.3-2.6,0.9-3.5c0.6-0.9,1.5-1.3,2.6-1.3c0.6,0,1.1,0.1,1.5,0.3s0.8,0.6,1.1,1l0.2-1.2h1.3
		v9c0,1.2-0.3,2-1,2.7s-1.6,0.9-2.9,0.9c-0.4,0-0.9-0.1-1.4-0.2c-0.5-0.1-0.9-0.3-1.3-0.5l0.2-1.3c0.3,0.2,0.7,0.3,1.1,0.4
		s0.9,0.2,1.3,0.2c0.8,0,1.4-0.2,1.7-0.5c0.4-0.4,0.5-0.9,0.5-1.7v-1c-0.3,0.4-0.6,0.7-1.1,0.9c-0.4,0.2-0.9,0.3-1.4,0.3
		c-1.1,0-2-0.4-2.6-1.2c-0.6-0.8-0.9-1.8-0.9-3.1V213.3z M679.2,213.5c0,0.9,0.2,1.6,0.6,2.2c0.4,0.5,0.9,0.8,1.7,0.8
		c0.5,0,0.9-0.1,1.2-0.3c0.3-0.2,0.6-0.5,0.8-1v-4.1c-0.2-0.4-0.5-0.7-0.8-0.9c-0.3-0.2-0.7-0.3-1.2-0.3c-0.8,0-1.4,0.3-1.7,1
		c-0.4,0.6-0.6,1.5-0.6,2.5V213.5z"/>
</g>
<g class="st1">
	<path class="st2" d="M879.9,212.3l0.7-6.7h6.1v1.5H882l-0.4,3.5c0.3-0.2,0.5-0.4,0.9-0.5c0.3-0.1,0.7-0.2,1.1-0.2
		c1.1,0,2,0.3,2.6,1.1s1,1.7,1,2.9c0,1.2-0.3,2.2-1,2.9s-1.6,1.1-2.8,1.1c-1,0-1.9-0.3-2.6-0.8c-0.7-0.6-1-1.4-1-2.5l0-0.1h1.5
		c0,0.7,0.2,1.2,0.6,1.5s0.9,0.5,1.5,0.5c0.7,0,1.2-0.2,1.6-0.7c0.4-0.5,0.6-1.2,0.6-2c0-0.8-0.2-1.4-0.6-1.9
		c-0.4-0.5-0.9-0.7-1.6-0.7c-0.6,0-1.1,0.1-1.4,0.3c-0.3,0.2-0.5,0.5-0.6,0.9L879.9,212.3z"/>
	<path class="st2" d="M891,217.6h-1.6V216h1.6V217.6z"/>
	<path class="st2" d="M901.2,213.4c0,1.4-0.3,2.4-1,3.2c-0.7,0.8-1.6,1.2-2.8,1.2c-1.2,0-2.1-0.4-2.8-1.2c-0.7-0.8-1.1-1.9-1.1-3.2
		v-3.6c0-1.4,0.3-2.4,1-3.2c0.7-0.8,1.6-1.2,2.8-1.2c1.2,0,2.1,0.4,2.8,1.2c0.7,0.8,1.1,1.9,1.1,3.2V213.4z M899.6,209.5
		c0-0.9-0.2-1.6-0.6-2.1c-0.4-0.5-0.9-0.8-1.6-0.8c-0.7,0-1.2,0.3-1.6,0.8c-0.4,0.5-0.6,1.2-0.6,2.1v4.2c0,0.9,0.2,1.6,0.6,2.1
		c0.4,0.5,0.9,0.8,1.6,0.8c0.7,0,1.3-0.3,1.6-0.8c0.4-0.5,0.6-1.2,0.6-2.1V209.5z"/>
	<path class="st2" d="M914.3,214.6c0-0.5-0.2-1-0.6-1.4c-0.4-0.4-1.1-0.7-2.1-0.9c-1.2-0.3-2.2-0.8-2.9-1.3c-0.7-0.6-1-1.3-1-2.2
		c0-0.9,0.4-1.7,1.1-2.4c0.7-0.6,1.7-0.9,2.9-0.9c1.3,0,2.3,0.4,3,1.1c0.8,0.7,1.1,1.6,1.1,2.5l0,0h-1.6c0-0.7-0.2-1.3-0.7-1.7
		c-0.5-0.4-1.1-0.7-1.8-0.7c-0.8,0-1.3,0.2-1.8,0.6c-0.4,0.4-0.6,0.9-0.6,1.4c0,0.5,0.2,1,0.7,1.3s1.2,0.7,2.2,0.9
		c1.2,0.3,2.1,0.8,2.8,1.4c0.6,0.6,1,1.4,1,2.3c0,1-0.4,1.8-1.2,2.3c-0.8,0.6-1.8,0.9-3,0.9c-1.2,0-2.2-0.3-3.1-1
		c-0.9-0.7-1.3-1.5-1.3-2.6l0-0.1h1.6c0,0.8,0.3,1.3,0.9,1.8c0.6,0.4,1.2,0.6,2,0.6c0.8,0,1.4-0.2,1.8-0.5
		C914,215.7,914.3,215.2,914.3,214.6z"/>
	<path class="st2" d="M921.7,217.8c-1.3,0-2.3-0.4-3-1.2s-1.1-1.9-1.1-3.3V213c0-1.3,0.4-2.4,1.1-3.2s1.7-1.3,2.7-1.3
		c1.2,0,2.1,0.4,2.7,1.1c0.6,0.7,0.9,1.7,0.9,3v0.9h-5.7l0,0c0,0.9,0.2,1.6,0.6,2.2s1,0.8,1.8,0.8c0.6,0,1-0.1,1.5-0.2
		c0.4-0.2,0.8-0.4,1.1-0.7l0.6,1.1c-0.3,0.3-0.7,0.6-1.3,0.8C923.1,217.7,922.5,217.8,921.7,217.8z M921.5,209.8
		c-0.6,0-1,0.2-1.4,0.7c-0.4,0.4-0.6,1-0.7,1.7l0,0h4.1V212c0-0.7-0.2-1.2-0.5-1.6S922.1,209.8,921.5,209.8z"/>
	<path class="st2" d="M932.4,217.6c-0.1-0.3-0.1-0.5-0.1-0.7c0-0.2,0-0.4-0.1-0.6c-0.3,0.4-0.7,0.8-1.2,1.1c-0.5,0.3-1,0.4-1.6,0.4
		c-0.9,0-1.6-0.2-2.1-0.7s-0.7-1.1-0.7-2c0-0.9,0.3-1.5,1-2c0.7-0.5,1.6-0.7,2.8-0.7h1.8v-0.9c0-0.5-0.2-0.9-0.5-1.2
		c-0.3-0.3-0.8-0.5-1.4-0.5c-0.5,0-1,0.1-1.3,0.4s-0.5,0.6-0.5,1l-1.6,0l0,0c0-0.7,0.3-1.3,0.9-1.8s1.5-0.8,2.5-0.8
		c1,0,1.8,0.3,2.5,0.8s0.9,1.3,0.9,2.2v4.3c0,0.3,0,0.6,0,0.9s0.1,0.6,0.2,0.9H932.4z M929.7,216.4c0.6,0,1.1-0.2,1.6-0.5
		c0.5-0.3,0.8-0.7,0.9-1v-1.5h-1.8c-0.7,0-1.2,0.2-1.6,0.5c-0.4,0.3-0.6,0.7-0.6,1.2c0,0.4,0.1,0.7,0.4,0.9
		C928.8,216.3,929.2,216.4,929.7,216.4z"/>
	<path class="st2" d="M940.5,210.1l-0.8,0c-0.4,0-0.8,0.1-1.1,0.3c-0.3,0.2-0.5,0.5-0.7,0.9v6.4h-1.6v-9h1.5l0.2,1.3
		c0.3-0.5,0.6-0.8,0.9-1.1c0.4-0.3,0.8-0.4,1.3-0.4c0.1,0,0.2,0,0.3,0s0.2,0,0.3,0.1L940.5,210.1z"/>
	<path class="st2" d="M945.6,216.5c0.5,0,0.9-0.2,1.3-0.5c0.4-0.3,0.6-0.7,0.6-1.2h1.5l0,0c0,0.8-0.3,1.5-1,2.1s-1.5,0.9-2.4,0.9
		c-1.3,0-2.2-0.4-2.9-1.3s-1-1.9-1-3.2V213c0-1.3,0.3-2.3,1-3.2c0.7-0.9,1.7-1.3,2.9-1.3c1,0,1.8,0.3,2.5,0.9
		c0.6,0.6,0.9,1.4,0.9,2.3l0,0.1h-1.5c0-0.5-0.2-1-0.5-1.4s-0.8-0.6-1.3-0.6c-0.8,0-1.4,0.3-1.8,0.9c-0.4,0.6-0.6,1.4-0.6,2.3v0.3
		c0,0.9,0.2,1.7,0.5,2.3C944.2,216.2,944.8,216.5,945.6,216.5z"/>
	<path class="st2" d="M952.6,209.9c0.3-0.4,0.7-0.8,1.1-1c0.5-0.2,0.9-0.4,1.5-0.4c1,0,1.7,0.3,2.2,0.9c0.5,0.6,0.8,1.5,0.8,2.7v5.6
		h-1.6V212c0-0.7-0.2-1.3-0.5-1.6c-0.3-0.4-0.8-0.5-1.4-0.5c-0.5,0-0.9,0.1-1.3,0.3c-0.4,0.2-0.7,0.5-0.9,0.8v6.7h-1.6v-12.9h1.6
		V209.9z"/>
</g>
<g class="st1">
	<path class="st2" d="M661.9,283.6v-12.1h3.9c1.3,0,2.2,0.3,3,0.8s1.1,1.4,1.1,2.5c0,0.5-0.2,1-0.5,1.4c-0.3,0.4-0.7,0.7-1.3,0.9
		c0.8,0.1,1.4,0.5,1.9,1c0.5,0.6,0.7,1.3,0.7,2c0,1.1-0.4,2-1.1,2.5c-0.7,0.6-1.7,0.9-2.9,0.9H661.9z M663.5,276.7h2.6
		c0.6,0,1.1-0.2,1.5-0.5c0.4-0.3,0.6-0.8,0.6-1.4c0-0.7-0.2-1.1-0.6-1.5c-0.4-0.3-1-0.5-1.8-0.5h-2.3V276.7z M663.5,278v4.4h3.2
		c0.7,0,1.3-0.2,1.7-0.6c0.4-0.4,0.6-0.9,0.6-1.6c0-0.7-0.2-1.2-0.6-1.6c-0.4-0.4-1-0.6-1.7-0.7h-0.1H663.5z"/>
	<path class="st2" d="M674.3,283.6h-1.6v-12.9h1.6V283.6z"/>
	<path class="st2" d="M676.4,279.1c0-1.3,0.4-2.4,1.1-3.3c0.7-0.9,1.7-1.3,2.9-1.3c1.2,0,2.2,0.4,3,1.3c0.7,0.9,1.1,2,1.1,3.3v0.2
		c0,1.3-0.4,2.4-1.1,3.3c-0.7,0.9-1.7,1.3-2.9,1.3s-2.2-0.4-2.9-1.3c-0.7-0.9-1.1-1.9-1.1-3.3V279.1z M678,279.3
		c0,1,0.2,1.7,0.6,2.4c0.4,0.6,1,0.9,1.8,0.9c0.8,0,1.4-0.3,1.8-0.9c0.4-0.6,0.6-1.4,0.6-2.4v-0.2c0-0.9-0.2-1.7-0.6-2.3
		c-0.4-0.6-1-0.9-1.8-0.9c-0.8,0-1.4,0.3-1.8,0.9s-0.6,1.4-0.6,2.3V279.3z"/>
	<path class="st2" d="M686.1,279.3c0-1.4,0.3-2.6,0.9-3.5s1.5-1.3,2.6-1.3c0.6,0,1.1,0.1,1.5,0.3s0.8,0.6,1.1,1l0.2-1.2h1.3v9
		c0,1.2-0.3,2-1,2.7c-0.7,0.6-1.6,0.9-2.9,0.9c-0.4,0-0.9-0.1-1.4-0.2s-0.9-0.3-1.3-0.5l0.2-1.3c0.3,0.2,0.7,0.3,1.1,0.4
		c0.4,0.1,0.9,0.2,1.3,0.2c0.8,0,1.4-0.2,1.7-0.5s0.5-0.9,0.5-1.7v-1c-0.3,0.4-0.6,0.7-1.1,0.9s-0.9,0.3-1.4,0.3
		c-1.1,0-2-0.4-2.6-1.2s-0.9-1.8-0.9-3.1V279.3z M687.8,279.5c0,0.9,0.2,1.6,0.6,2.2s0.9,0.8,1.7,0.8c0.5,0,0.9-0.1,1.2-0.3
		c0.3-0.2,0.6-0.5,0.8-1v-4.1c-0.2-0.4-0.5-0.7-0.8-0.9c-0.3-0.2-0.7-0.3-1.2-0.3c-0.8,0-1.4,0.3-1.7,1c-0.4,0.6-0.6,1.5-0.6,2.5
		V279.5z"/>
	<path class="st2" d="M700.5,283.6v-12.1h3.8c1.6,0,2.8,0.5,3.8,1.5c1,1,1.4,2.2,1.4,3.8v1.7c0,1.5-0.5,2.8-1.4,3.8
		c-1,1-2.2,1.4-3.8,1.4H700.5z M702.2,272.8v9.5h2.2c1.1,0,2-0.4,2.6-1.1c0.6-0.7,1-1.7,1-2.8v-1.7c0-1.1-0.3-2.1-1-2.8
		s-1.5-1.1-2.6-1.1H702.2z"/>
	<path class="st2" d="M715.6,283.8c-1.3,0-2.3-0.4-3-1.2c-0.7-0.8-1.1-1.9-1.1-3.3V279c0-1.3,0.4-2.4,1.1-3.2s1.7-1.3,2.7-1.3
		c1.2,0,2.1,0.4,2.7,1.1c0.6,0.7,0.9,1.7,0.9,3v0.9h-5.7l0,0c0,0.9,0.2,1.6,0.6,2.2s1,0.8,1.8,0.8c0.6,0,1-0.1,1.5-0.2
		c0.4-0.2,0.8-0.4,1.1-0.7l0.6,1.1c-0.3,0.3-0.7,0.6-1.3,0.8S716.3,283.8,715.6,283.8z M715.3,275.8c-0.6,0-1,0.2-1.4,0.7
		c-0.4,0.4-0.6,1-0.7,1.7l0,0h4.1V278c0-0.7-0.2-1.2-0.5-1.6C716.5,276,716,275.8,715.3,275.8z"/>
	<path class="st2" d="M723,272.5v2.2h1.7v1.2H723v5.5c0,0.4,0.1,0.7,0.3,0.9c0.2,0.2,0.4,0.3,0.7,0.3c0.1,0,0.2,0,0.3,0
		c0.1,0,0.2-0.1,0.3-0.1l0.2,1.1c-0.1,0.1-0.3,0.2-0.5,0.2c-0.2,0.1-0.5,0.1-0.7,0.1c-0.7,0-1.2-0.2-1.6-0.6c-0.4-0.4-0.6-1-0.6-1.9
		v-5.5h-1.4v-1.2h1.4v-2.2H723z"/>
	<path class="st2" d="M732,283.6c-0.1-0.3-0.1-0.5-0.1-0.7c0-0.2,0-0.4-0.1-0.6c-0.3,0.4-0.7,0.8-1.2,1.1c-0.5,0.3-1,0.4-1.6,0.4
		c-0.9,0-1.6-0.2-2.1-0.7c-0.5-0.5-0.7-1.1-0.7-2c0-0.9,0.3-1.5,1-2s1.6-0.7,2.8-0.7h1.8v-0.9c0-0.5-0.2-0.9-0.5-1.2
		c-0.3-0.3-0.8-0.5-1.4-0.5c-0.5,0-1,0.1-1.3,0.4c-0.3,0.3-0.5,0.6-0.5,1l-1.6,0l0,0c0-0.7,0.3-1.3,0.9-1.8c0.6-0.5,1.5-0.8,2.5-0.8
		c1,0,1.8,0.3,2.5,0.8c0.6,0.5,0.9,1.3,0.9,2.2v4.3c0,0.3,0,0.6,0.1,0.9s0.1,0.6,0.2,0.9H732z M729.3,282.5c0.6,0,1.1-0.2,1.6-0.5
		c0.5-0.3,0.8-0.7,0.9-1v-1.5H730c-0.7,0-1.2,0.2-1.6,0.5c-0.4,0.3-0.6,0.7-0.6,1.2c0,0.4,0.1,0.7,0.4,0.9S728.8,282.5,729.3,282.5z
		"/>
	<path class="st2" d="M737.6,272.4h-1.6v-1.7h1.6V272.4z M737.6,283.6h-1.6v-9h1.6V283.6z"/>
	<path class="st2" d="M741.9,283.6h-1.6v-12.9h1.6V283.6z"/>
	<path class="st2" d="M750.5,278.8v4.8h-1.6v-12.1h4.6c1.3,0,2.3,0.3,3,1c0.7,0.7,1.1,1.5,1.1,2.6c0,1.1-0.4,2-1.1,2.6
		c-0.7,0.7-1.7,1-3,1H750.5z M750.5,277.5h3c0.8,0,1.4-0.2,1.8-0.7c0.4-0.4,0.6-1,0.6-1.7s-0.2-1.2-0.6-1.7s-1-0.7-1.8-0.7h-3V277.5
		z"/>
	<path class="st2" d="M764.8,283.6c-0.1-0.3-0.1-0.5-0.1-0.7c0-0.2,0-0.4-0.1-0.6c-0.3,0.4-0.7,0.8-1.2,1.1c-0.5,0.3-1,0.4-1.6,0.4
		c-0.9,0-1.6-0.2-2.1-0.7c-0.5-0.5-0.7-1.1-0.7-2c0-0.9,0.3-1.5,1-2c0.7-0.5,1.6-0.7,2.8-0.7h1.8v-0.9c0-0.5-0.2-0.9-0.5-1.2
		c-0.3-0.3-0.8-0.5-1.4-0.5c-0.5,0-1,0.1-1.3,0.4c-0.3,0.3-0.5,0.6-0.5,1l-1.6,0l0,0c0-0.7,0.3-1.3,0.9-1.8s1.5-0.8,2.5-0.8
		c1,0,1.8,0.3,2.5,0.8c0.6,0.5,0.9,1.3,0.9,2.2v4.3c0,0.3,0,0.6,0,0.9s0.1,0.6,0.2,0.9H764.8z M762.1,282.5c0.6,0,1.1-0.2,1.6-0.5
		c0.5-0.3,0.8-0.7,0.9-1v-1.5h-1.8c-0.7,0-1.2,0.2-1.6,0.5s-0.6,0.7-0.6,1.2c0,0.4,0.1,0.7,0.4,0.9S761.6,282.5,762.1,282.5z"/>
	<path class="st2" d="M768.4,279.3c0-1.4,0.3-2.6,0.9-3.5c0.6-0.9,1.5-1.3,2.6-1.3c0.6,0,1.1,0.1,1.5,0.3s0.8,0.6,1.1,1l0.2-1.2h1.3
		v9c0,1.2-0.3,2-1,2.7c-0.7,0.6-1.6,0.9-2.9,0.9c-0.4,0-0.9-0.1-1.4-0.2c-0.5-0.1-0.9-0.3-1.3-0.5l0.2-1.3c0.3,0.2,0.7,0.3,1.1,0.4
		s0.9,0.2,1.3,0.2c0.8,0,1.4-0.2,1.7-0.5c0.4-0.4,0.5-0.9,0.5-1.7v-1c-0.3,0.4-0.6,0.7-1.1,0.9s-0.9,0.3-1.4,0.3
		c-1.1,0-2-0.4-2.6-1.2c-0.6-0.8-0.9-1.8-0.9-3.1V279.3z M770,279.5c0,0.9,0.2,1.6,0.6,2.2s0.9,0.8,1.7,0.8c0.5,0,0.9-0.1,1.2-0.3
		c0.3-0.2,0.6-0.5,0.8-1v-4.1c-0.2-0.4-0.5-0.7-0.8-0.9c-0.3-0.2-0.7-0.3-1.2-0.3c-0.8,0-1.4,0.3-1.7,1c-0.4,0.6-0.6,1.5-0.6,2.5
		V279.5z"/>
	<path class="st2" d="M782,283.8c-1.3,0-2.3-0.4-3-1.2c-0.7-0.8-1.1-1.9-1.1-3.3V279c0-1.3,0.4-2.4,1.1-3.2c0.7-0.8,1.7-1.3,2.7-1.3
		c1.2,0,2.1,0.4,2.7,1.1c0.6,0.7,0.9,1.7,0.9,3v0.9h-5.7l0,0c0,0.9,0.2,1.6,0.6,2.2s1,0.8,1.8,0.8c0.6,0,1-0.1,1.5-0.2
		c0.4-0.2,0.8-0.4,1.1-0.7l0.6,1.1c-0.3,0.3-0.7,0.6-1.3,0.8S782.8,283.8,782,283.8z M781.8,275.8c-0.6,0-1,0.2-1.4,0.7
		c-0.4,0.4-0.6,1-0.7,1.7l0,0h4.1V278c0-0.7-0.2-1.2-0.5-1.6C783,276,782.5,275.8,781.8,275.8z"/>
</g>
<g class="st1">
	<path class="st2" d="M1117.8,205.4c0.5,0,0.9,0,1.4,0.1s0.8,0.2,1.2,0.4l-0.3,1.3c-0.3-0.1-0.6-0.2-1-0.3s-0.8-0.1-1.2-0.1
		c-0.8,0-1.4,0.3-1.8,1c-0.5,0.6-0.7,1.5-0.7,2.5v0.9c0.3-0.3,0.7-0.6,1.2-0.8s1-0.3,1.5-0.3c1,0,1.9,0.3,2.5,1
		c0.6,0.7,0.9,1.6,0.9,2.7c0,1.2-0.3,2.2-1,3c-0.7,0.7-1.6,1.1-2.7,1.1c-1.1,0-2.1-0.4-2.8-1.3c-0.8-0.8-1.1-2-1.1-3.5v-2.8
		c0-1.4,0.4-2.6,1.2-3.5C1115.6,205.8,1116.6,205.4,1117.8,205.4z M1117.4,211.2c-0.5,0-1,0.1-1.3,0.3c-0.4,0.2-0.6,0.5-0.8,0.9v0.8
		c0,1,0.2,1.8,0.7,2.4s1,0.9,1.6,0.9c0.7,0,1.2-0.3,1.6-0.8c0.4-0.5,0.6-1.2,0.6-2c0-0.8-0.2-1.4-0.6-1.9S1118.1,211.2,1117.4,211.2
		z"/>
	<path class="st2" d="M1125,217.6h-1.6V216h1.6V217.6z"/>
	<path class="st2" d="M1135.2,213.4c0,1.4-0.3,2.4-1,3.2s-1.6,1.2-2.8,1.2c-1.2,0-2.1-0.4-2.8-1.2c-0.7-0.8-1.1-1.9-1.1-3.2v-3.6
		c0-1.4,0.3-2.4,1-3.2s1.6-1.2,2.8-1.2c1.2,0,2.1,0.4,2.8,1.2c0.7,0.8,1,1.9,1,3.2V213.4z M1133.6,209.5c0-0.9-0.2-1.6-0.6-2.1
		c-0.4-0.5-0.9-0.8-1.6-0.8c-0.7,0-1.2,0.3-1.6,0.8c-0.4,0.5-0.6,1.2-0.6,2.1v4.2c0,0.9,0.2,1.6,0.6,2.1c0.4,0.5,0.9,0.8,1.6,0.8
		c0.7,0,1.3-0.3,1.6-0.8c0.4-0.5,0.6-1.2,0.6-2.1V209.5z"/>
	<path class="st2" d="M1150.4,213.8L1150.4,213.8c0,1.2-0.4,2.1-1.2,2.9c-0.8,0.8-1.9,1.1-3.2,1.1c-1.4,0-2.5-0.5-3.3-1.5
		c-0.9-1-1.3-2.2-1.3-3.7v-2.1c0-1.5,0.4-2.7,1.3-3.7c0.9-1,2-1.5,3.3-1.5c1.4,0,2.5,0.4,3.3,1.1c0.8,0.7,1.2,1.7,1.2,2.9l0,0h-1.6
		c0-0.8-0.2-1.5-0.7-2c-0.5-0.5-1.2-0.7-2.1-0.7c-0.9,0-1.6,0.4-2.2,1.1c-0.5,0.7-0.8,1.6-0.8,2.7v2.2c0,1.1,0.3,2,0.8,2.8
		c0.5,0.7,1.3,1.1,2.2,1.1c0.9,0,1.6-0.2,2.1-0.7c0.5-0.5,0.7-1.2,0.7-2H1150.4z"/>
	<path class="st2" d="M1152,213.1c0-1.3,0.4-2.4,1.1-3.3c0.7-0.9,1.7-1.3,2.9-1.3c1.2,0,2.2,0.4,3,1.3c0.7,0.9,1.1,2,1.1,3.3v0.2
		c0,1.3-0.4,2.4-1.1,3.3c-0.7,0.9-1.7,1.3-2.9,1.3c-1.2,0-2.2-0.4-2.9-1.3c-0.7-0.9-1.1-1.9-1.1-3.3V213.1z M1153.6,213.2
		c0,1,0.2,1.7,0.6,2.4c0.4,0.6,1,0.9,1.8,0.9c0.8,0,1.4-0.3,1.8-0.9c0.4-0.6,0.6-1.4,0.6-2.4v-0.2c0-0.9-0.2-1.7-0.6-2.3
		c-0.4-0.6-1-0.9-1.8-0.9c-0.8,0-1.4,0.3-1.8,0.9c-0.4,0.6-0.6,1.4-0.6,2.3V213.2z"/>
	<path class="st2" d="M1163.5,208.7l0.1,1.3c0.3-0.5,0.7-0.8,1.1-1.1c0.5-0.3,1-0.4,1.5-0.4c1,0,1.7,0.3,2.2,0.9s0.8,1.4,0.8,2.6
		v5.7h-1.6V212c0-0.8-0.2-1.4-0.5-1.7s-0.8-0.5-1.4-0.5c-0.5,0-0.9,0.1-1.3,0.3c-0.4,0.2-0.6,0.5-0.8,0.9v6.7h-1.6v-9H1163.5z"/>
	<path class="st2" d="M1174,206.5v2.2h1.7v1.2h-1.7v5.5c0,0.4,0.1,0.7,0.3,0.9c0.2,0.2,0.4,0.3,0.7,0.3c0.1,0,0.2,0,0.3,0
		c0.1,0,0.2-0.1,0.3-0.1l0.2,1.1c-0.1,0.1-0.3,0.2-0.5,0.2c-0.2,0.1-0.5,0.1-0.7,0.1c-0.7,0-1.2-0.2-1.6-0.6c-0.4-0.4-0.6-1-0.6-1.9
		v-5.5h-1.4v-1.2h1.4v-2.2H1174z"/>
	<path class="st2" d="M1182.9,217.6c-0.1-0.3-0.1-0.5-0.1-0.7c0-0.2,0-0.4-0.1-0.6c-0.3,0.4-0.7,0.8-1.2,1.1c-0.5,0.3-1,0.4-1.6,0.4
		c-0.9,0-1.6-0.2-2.1-0.7c-0.5-0.5-0.7-1.1-0.7-2c0-0.9,0.3-1.5,1-2s1.6-0.7,2.8-0.7h1.8v-0.9c0-0.5-0.2-0.9-0.5-1.2
		c-0.3-0.3-0.8-0.5-1.4-0.5c-0.5,0-1,0.1-1.3,0.4c-0.3,0.3-0.5,0.6-0.5,1l-1.6,0l0,0c0-0.7,0.3-1.3,0.9-1.8s1.5-0.8,2.5-0.8
		c1,0,1.8,0.3,2.5,0.8c0.6,0.5,0.9,1.3,0.9,2.2v4.3c0,0.3,0,0.6,0,0.9s0.1,0.6,0.2,0.9H1182.9z M1180.2,216.4c0.6,0,1.1-0.2,1.6-0.5
		c0.5-0.3,0.8-0.7,0.9-1v-1.5h-1.8c-0.7,0-1.2,0.2-1.6,0.5c-0.4,0.3-0.6,0.7-0.6,1.2c0,0.4,0.1,0.7,0.4,0.9
		S1179.7,216.4,1180.2,216.4z"/>
	<path class="st2" d="M1190.3,216.5c0.5,0,0.9-0.2,1.3-0.5c0.4-0.3,0.6-0.7,0.6-1.2h1.5l0,0c0,0.8-0.3,1.5-1,2.1
		c-0.7,0.6-1.5,0.9-2.4,0.9c-1.3,0-2.2-0.4-2.9-1.3c-0.7-0.9-1-1.9-1-3.2V213c0-1.3,0.3-2.3,1-3.2c0.7-0.9,1.7-1.3,2.9-1.3
		c1,0,1.8,0.3,2.5,0.9c0.6,0.6,0.9,1.4,0.9,2.3l0,0.1h-1.5c0-0.5-0.2-1-0.5-1.4c-0.4-0.4-0.8-0.6-1.3-0.6c-0.8,0-1.4,0.3-1.8,0.9
		c-0.4,0.6-0.6,1.4-0.6,2.3v0.3c0,0.9,0.2,1.7,0.5,2.3C1188.9,216.2,1189.5,216.5,1190.3,216.5z"/>
	<path class="st2" d="M1197.9,206.5v2.2h1.7v1.2h-1.7v5.5c0,0.4,0.1,0.7,0.3,0.9c0.2,0.2,0.4,0.3,0.7,0.3c0.1,0,0.2,0,0.3,0
		c0.1,0,0.2-0.1,0.3-0.1l0.2,1.1c-0.1,0.1-0.3,0.2-0.5,0.2c-0.2,0.1-0.5,0.1-0.7,0.1c-0.7,0-1.2-0.2-1.6-0.6c-0.4-0.4-0.6-1-0.6-1.9
		v-5.5h-1.4v-1.2h1.4v-2.2H1197.9z"/>
	<path class="st2" d="M1214.8,205.5v8c0,1.3-0.4,2.4-1.3,3.1s-2,1.1-3.3,1.1c-1.3,0-2.4-0.4-3.2-1.1c-0.8-0.8-1.3-1.8-1.3-3.1v-8
		h1.6v8c0,0.9,0.3,1.6,0.8,2.2c0.5,0.5,1.2,0.8,2,0.8c0.9,0,1.6-0.3,2.2-0.8c0.6-0.5,0.8-1.2,0.8-2.2v-8H1214.8z"/>
	<path class="st2" d="M1222.3,215.2c0-0.4-0.1-0.7-0.4-0.9c-0.3-0.2-0.8-0.4-1.6-0.6c-1.1-0.2-1.9-0.5-2.4-1c-0.6-0.4-0.9-1-0.9-1.6
		c0-0.7,0.3-1.4,0.9-1.9c0.6-0.5,1.4-0.8,2.4-0.8c1,0,1.8,0.3,2.5,0.8s0.9,1.2,0.9,1.9l0,0h-1.6c0-0.4-0.2-0.7-0.5-1.1
		c-0.3-0.3-0.8-0.5-1.3-0.5c-0.6,0-1,0.1-1.3,0.4c-0.3,0.3-0.4,0.6-0.4,0.9c0,0.4,0.1,0.6,0.4,0.8c0.2,0.2,0.8,0.4,1.5,0.5
		c1.1,0.2,1.9,0.6,2.5,1c0.6,0.4,0.9,1,0.9,1.7c0,0.8-0.3,1.4-1,2s-1.5,0.8-2.5,0.8c-1.1,0-2-0.3-2.7-0.9c-0.7-0.6-1-1.3-0.9-2
		l0-0.1h1.6c0,0.6,0.2,1,0.6,1.3c0.4,0.3,0.9,0.4,1.4,0.4c0.6,0,1-0.1,1.4-0.4S1222.3,215.6,1222.3,215.2z"/>
</g>
<g class="st1">
	<path class="st2" d="M1112.8,274.4c0.5,0,0.9,0,1.4,0.1s0.8,0.2,1.2,0.4l-0.3,1.3c-0.3-0.1-0.6-0.2-1-0.3s-0.8-0.1-1.2-0.1
		c-0.8,0-1.4,0.3-1.8,1c-0.5,0.6-0.7,1.5-0.7,2.5v0.9c0.3-0.3,0.7-0.6,1.2-0.8c0.5-0.2,1-0.3,1.5-0.3c1,0,1.9,0.3,2.5,1
		c0.6,0.7,0.9,1.6,0.9,2.7c0,1.2-0.3,2.2-1,3c-0.7,0.7-1.6,1.1-2.7,1.1c-1.1,0-2.1-0.4-2.8-1.3c-0.8-0.8-1.1-2-1.1-3.5v-2.8
		c0-1.4,0.4-2.6,1.2-3.5C1110.6,274.8,1111.6,274.4,1112.8,274.4z M1112.4,280.2c-0.5,0-1,0.1-1.3,0.3c-0.4,0.2-0.6,0.5-0.8,0.9v0.8
		c0,1,0.2,1.8,0.7,2.4s1,0.9,1.6,0.9c0.7,0,1.2-0.3,1.6-0.8s0.6-1.2,0.6-2c0-0.8-0.2-1.4-0.6-1.9S1113.1,280.2,1112.4,280.2z"/>
	<path class="st2" d="M1120,286.6h-1.6V285h1.6V286.6z"/>
	<path class="st2" d="M1127.5,286.6h-1.6v-10.6l-2.6,0v-1.3l4.3-0.4V286.6z"/>
</g>
<g class="st1">
	<path class="st2" d="M1159.8,284.6c0-0.5-0.2-1-0.6-1.4c-0.4-0.4-1.1-0.7-2.1-0.9c-1.2-0.3-2.2-0.8-2.9-1.3c-0.7-0.6-1-1.3-1-2.2
		c0-0.9,0.4-1.7,1.1-2.4s1.7-0.9,2.9-0.9c1.3,0,2.3,0.4,3,1.1c0.8,0.7,1.1,1.6,1.1,2.5l0,0h-1.6c0-0.7-0.2-1.3-0.7-1.7
		c-0.5-0.4-1.1-0.7-1.8-0.7c-0.8,0-1.3,0.2-1.8,0.6c-0.4,0.4-0.6,0.9-0.6,1.4c0,0.5,0.2,1,0.7,1.3c0.4,0.4,1.2,0.7,2.2,0.9
		c1.2,0.3,2.1,0.8,2.8,1.4c0.6,0.6,1,1.4,1,2.3c0,1-0.4,1.8-1.1,2.3s-1.8,0.9-3,0.9c-1.2,0-2.2-0.3-3.1-1c-0.9-0.7-1.3-1.5-1.3-2.6
		l0-0.1h1.6c0,0.8,0.3,1.3,0.9,1.8s1.2,0.6,2,0.6c0.8,0,1.4-0.2,1.8-0.5C1159.6,285.7,1159.8,285.2,1159.8,284.6z"/>
	<path class="st2" d="M1167.3,287.8c-1.3,0-2.3-0.4-3-1.2c-0.7-0.8-1.1-1.9-1.1-3.3V283c0-1.3,0.4-2.4,1.1-3.2
		c0.7-0.8,1.7-1.3,2.7-1.3c1.2,0,2.1,0.4,2.7,1.1c0.6,0.7,0.9,1.7,0.9,3v0.9h-5.7l0,0c0,0.9,0.2,1.6,0.6,2.2s1,0.8,1.8,0.8
		c0.6,0,1-0.1,1.5-0.2c0.4-0.2,0.8-0.4,1.1-0.7l0.6,1.1c-0.3,0.3-0.7,0.6-1.3,0.8S1168,287.8,1167.3,287.8z M1167,279.8
		c-0.6,0-1,0.2-1.4,0.7c-0.4,0.4-0.6,1-0.7,1.7l0,0h4.1V282c0-0.7-0.2-1.2-0.5-1.6C1168.2,280,1167.7,279.8,1167,279.8z"/>
	<path class="st2" d="M1176,286.5c0.5,0,0.9-0.2,1.3-0.5s0.6-0.7,0.6-1.2h1.5l0,0c0,0.8-0.3,1.5-1,2.1c-0.7,0.6-1.5,0.9-2.4,0.9
		c-1.3,0-2.2-0.4-2.9-1.3c-0.7-0.9-1-1.9-1-3.2V283c0-1.3,0.3-2.3,1-3.2c0.7-0.9,1.7-1.3,2.9-1.3c1,0,1.8,0.3,2.5,0.9
		c0.6,0.6,0.9,1.4,0.9,2.3l0,0.1h-1.5c0-0.5-0.2-1-0.5-1.4c-0.4-0.4-0.8-0.6-1.3-0.6c-0.8,0-1.4,0.3-1.8,0.9
		c-0.4,0.6-0.6,1.4-0.6,2.3v0.3c0,0.9,0.2,1.7,0.5,2.3C1174.6,286.2,1175.2,286.5,1176,286.5z"/>
	<path class="st2" d="M1187.1,286.3c-0.3,0.5-0.6,0.9-1.1,1.1c-0.4,0.3-1,0.4-1.5,0.4c-1,0-1.7-0.3-2.3-0.9s-0.8-1.6-0.8-2.9v-5.3
		h1.6v5.3c0,1,0.1,1.6,0.4,2c0.3,0.4,0.7,0.5,1.3,0.5c0.6,0,1.1-0.1,1.4-0.4c0.4-0.2,0.7-0.6,0.9-1v-6.5h1.6v9h-1.5L1187.1,286.3z"
		/>
	<path class="st2" d="M1195.3,280.1l-0.8,0c-0.4,0-0.8,0.1-1.1,0.3c-0.3,0.2-0.5,0.5-0.7,0.9v6.4h-1.6v-9h1.5l0.2,1.3
		c0.3-0.5,0.6-0.8,0.9-1.1c0.4-0.3,0.8-0.4,1.3-0.4c0.1,0,0.2,0,0.3,0c0.1,0,0.2,0,0.3,0.1L1195.3,280.1z"/>
	<path class="st2" d="M1200.5,287.8c-1.3,0-2.3-0.4-3-1.2c-0.7-0.8-1.1-1.9-1.1-3.3V283c0-1.3,0.4-2.4,1.1-3.2s1.7-1.3,2.7-1.3
		c1.2,0,2.1,0.4,2.7,1.1c0.6,0.7,0.9,1.7,0.9,3v0.9h-5.7l0,0c0,0.9,0.2,1.6,0.6,2.2s1,0.8,1.8,0.8c0.6,0,1-0.1,1.5-0.2
		c0.4-0.2,0.8-0.4,1.1-0.7l0.6,1.1c-0.3,0.3-0.7,0.6-1.3,0.8S1201.3,287.8,1200.5,287.8z M1200.3,279.8c-0.6,0-1,0.2-1.4,0.7
		c-0.4,0.4-0.6,1-0.7,1.7l0,0h4.1V282c0-0.7-0.2-1.2-0.5-1.6C1201.4,280,1201,279.8,1200.3,279.8z"/>
	<path class="st2" d="M1216.8,282h-5v4.3h5.8v1.3h-7.4v-12.1h7.4v1.3h-5.7v3.9h5V282z"/>
	<path class="st2" d="M1220.8,278.7l0.1,1.2c0.3-0.4,0.7-0.8,1.1-1c0.5-0.2,1-0.4,1.6-0.4s1.1,0.1,1.5,0.4c0.4,0.3,0.8,0.7,1,1.2
		c0.3-0.5,0.7-0.9,1.1-1.2c0.5-0.3,1-0.4,1.6-0.4c0.9,0,1.6,0.3,2.2,0.9s0.8,1.6,0.8,2.8v5.4h-1.6v-5.4c0-0.9-0.2-1.5-0.5-1.9
		s-0.8-0.6-1.4-0.6c-0.6,0-1,0.2-1.4,0.6c-0.3,0.4-0.5,0.9-0.6,1.5v0.1v5.7h-1.6v-5.4c0-0.8-0.2-1.5-0.5-1.8
		c-0.3-0.4-0.8-0.6-1.3-0.6c-0.5,0-0.9,0.1-1.2,0.3c-0.3,0.2-0.6,0.5-0.7,0.9v6.6h-1.6v-9H1220.8z"/>
	<path class="st2" d="M1239.7,287.6c-0.1-0.3-0.1-0.5-0.1-0.7c0-0.2,0-0.4-0.1-0.6c-0.3,0.4-0.7,0.8-1.2,1.1c-0.5,0.3-1,0.4-1.6,0.4
		c-0.9,0-1.6-0.2-2.1-0.7s-0.7-1.1-0.7-2c0-0.9,0.3-1.5,1-2c0.7-0.5,1.6-0.7,2.8-0.7h1.8v-0.9c0-0.5-0.2-0.9-0.5-1.2
		c-0.3-0.3-0.8-0.5-1.4-0.5c-0.5,0-1,0.1-1.3,0.4s-0.5,0.6-0.5,1l-1.6,0l0,0c0-0.7,0.3-1.3,0.9-1.8s1.5-0.8,2.5-0.8
		c1,0,1.8,0.3,2.5,0.8s0.9,1.3,0.9,2.2v4.3c0,0.3,0,0.6,0,0.9s0.1,0.6,0.2,0.9H1239.7z M1237,286.4c0.6,0,1.1-0.2,1.6-0.5
		c0.5-0.3,0.8-0.7,0.9-1v-1.5h-1.8c-0.7,0-1.2,0.2-1.6,0.5c-0.4,0.3-0.6,0.7-0.6,1.2c0,0.4,0.1,0.7,0.4,0.9
		C1236.1,286.3,1236.5,286.4,1237,286.4z"/>
	<path class="st2" d="M1245.3,276.4h-1.6v-1.7h1.6V276.4z M1245.3,287.6h-1.6v-9h1.6V287.6z"/>
	<path class="st2" d="M1249.6,287.6h-1.6v-12.9h1.6V287.6z"/>
</g>
<g>
	<path class="st2" d="M630.8,283.2h-2.5v-2.5h2.5V283.2z"/>
	<path class="st2" d="M637.7,283.2h-2.5v-2.5h2.5V283.2z"/>
	<path class="st2" d="M644.6,283.2h-2.5v-2.5h2.5V283.2z"/>
</g>
<g>
	<path class="st2" d="M357.5,337.1H355v-2.5h2.5V337.1z"/>
	<path class="st2" d="M364.4,337.1h-2.5v-2.5h2.5V337.1z"/>
	<path class="st2" d="M371.3,337.1h-2.5v-2.5h2.5V337.1z"/>
</g>
</svg>
