<?xml version="1.0" encoding="utf-8"?>
<!-- Generator: Adobe Illustrator 21.1.0, SVG Export Plug-In . SVG Version: 6.00 Build 0)  -->
<!DOCTYPE svg PUBLIC "-//W3C//DTD SVG 1.1//EN" "http://www.w3.org/Graphics/SVG/1.1/DTD/svg11.dtd">
<svg version="1.1" id="Layer_1" xmlns="http://www.w3.org/2000/svg" xmlns:xlink="http://www.w3.org/1999/xlink" x="0px" y="0px"
	 viewBox="0 0 286 286" style="enable-background:new 0 0 286 286;" xml:space="preserve">
<style type="text/css">
	.st0{clip-path:url(#SVGID_2_);fill:#4298B5;}
	.st1{clip-path:url(#SVGID_2_);}
	.st2{fill:#DB5C1E;}
	.st3{fill:#002B44;}
	.st4{fill:#003F5C;}
	.st5{fill:#EB6479;}
	.st6{fill:#223129;}
	.st7{fill:#FFFFFF;}
	.st8{fill:#D55A6E;}
	.st9{fill:#D8E2E7;}
	.st10{fill:#939598;}
	.st11{fill:#727D84;}
	.st12{fill:#4298B5;}
	.st13{fill:#E4D5B4;}
	.st14{fill:#CEBFA3;}
	.st15{fill:#EDE0C6;}
	.st16{fill:#3D302D;}
	.st17{fill:#D6C6A6;}
	.st18{fill:#C6B597;}
	.st19{fill:#826754;}
	.st20{fill:#91CEC4;}
	.st21{fill:#D3A98C;}
	.st22{fill:#AD886F;}
	.st23{fill:#896D59;}
	.st24{fill:#EA7442;}
	.st25{fill:#D15F36;}
	.st26{fill:#003E5A;}
	.st27{fill:#243129;}
	.st28{fill:#4077A2;}
	.st29{fill:#0F3644;}
	.st30{fill:#6C707A;}
	.st31{fill:url(#SVGID_3_);}
	.st32{fill:#8AACBD;}
	.st33{fill:#E6EBEE;}
	.st34{fill:#C3D4DD;}
	.st35{fill:#F37029;}
	.st36{fill:#004B6B;}
	.st37{fill:#282829;}
	.st38{fill:#BACAD3;}
	.st39{fill:#9EB3BE;}
	.st40{fill:#27688F;}
	.st41{fill:#005376;}
	.st42{fill:#2B75A2;}
	.st43{fill:#AFC6D2;}
	.st44{fill:url(#SVGID_4_);}
	.st45{fill:#E9E8D8;}
	.st46{fill:#818277;}
	.st47{fill:#63665D;}
	.st48{fill:#B4B39A;}
	.st49{fill:url(#SVGID_5_);}
	.st50{fill:url(#SVGID_6_);}
	.st51{fill:url(#SVGID_7_);}
	.st52{fill:url(#SVGID_8_);}
	.st53{fill:url(#SVGID_9_);}
	.st54{fill:url(#SVGID_10_);}
	.st55{fill:#FFC20E;}
	.st56{fill:#916600;}
	.st57{fill:#A7BDC9;}
	.st58{fill:#8E2833;}
	.st59{fill:#721B25;}
	.st60{fill:#00547A;}
	.st61{fill:#F1F2F2;}
	.st62{fill:#6F6598;}
	.st63{fill:#4B436A;}
	.st64{fill:#F27129;}
	.st65{fill:#A57406;}
	.st66{fill:url(#SVGID_11_);}
	.st67{fill:url(#SVGID_12_);}
	.st68{fill:url(#SVGID_13_);}
	.st69{fill:url(#SVGID_14_);}
	.st70{fill:url(#SVGID_15_);}
	.st71{fill:url(#SVGID_16_);}
	.st72{fill:url(#SVGID_17_);}
	.st73{fill:url(#SVGID_18_);}
	.st74{fill:url(#SVGID_19_);}
	.st75{fill:url(#SVGID_20_);}
	.st76{fill:url(#SVGID_21_);}
	.st77{fill:url(#SVGID_22_);}
	.st78{fill:url(#SVGID_23_);}
	.st79{fill:url(#SVGID_24_);}
	.st80{fill:url(#SVGID_25_);}
	.st81{fill:url(#SVGID_26_);}
	.st82{fill:url(#SVGID_27_);}
	.st83{fill:url(#SVGID_28_);}
	.st84{fill:url(#SVGID_29_);}
	.st85{fill:url(#SVGID_30_);}
	.st86{fill:url(#SVGID_31_);}
	.st87{fill:url(#SVGID_32_);}
	.st88{fill:url(#SVGID_33_);}
	.st89{fill:url(#SVGID_34_);}
	.st90{fill:url(#SVGID_35_);}
	.st91{fill:url(#SVGID_36_);}
	.st92{fill:url(#SVGID_37_);}
	.st93{fill:url(#SVGID_38_);}
	.st94{fill:url(#SVGID_39_);}
	.st95{fill:url(#SVGID_40_);}
	.st96{fill:url(#SVGID_41_);}
	.st97{fill:url(#SVGID_42_);}
	.st98{fill:url(#SVGID_43_);}
	.st99{fill:url(#SVGID_44_);}
	.st100{fill:url(#SVGID_45_);}
	.st101{fill:url(#SVGID_46_);}
	.st102{fill:#F9F1D7;}
	.st103{fill:#6E7980;stroke:#58595B;stroke-width:0.4225;stroke-linecap:round;stroke-linejoin:round;}
	.st104{fill:#DF9CB0;}
	.st105{fill:#C37A8C;}
	.st106{fill:#C29F60;}
	.st107{fill:#FFFFFF;stroke:#D0ECF4;stroke-width:0.4225;}
	.st108{fill:url(#SVGID_47_);}
	.st109{fill:url(#SVGID_48_);}
	.st110{fill:url(#SVGID_49_);stroke:#FFFFFF;stroke-width:2.1123;}
	.st111{fill:#9F2214;}
	.st112{fill:url(#SVGID_50_);stroke:#FFFFFF;stroke-width:2.1123;}
	.st113{fill:#4A7195;}
	.st114{fill:#C13D2E;}
	.st115{fill:#7989A3;stroke:#FFFFFF;stroke-width:2.1123;}
	.st116{fill:#FFCF01;}
	.st117{fill:url(#SVGID_51_);stroke:#FFFFFF;stroke-width:2.1123;}
	.st118{fill:url(#SVGID_52_);stroke:#FFFFFF;stroke-width:2.1123;}
	.st119{fill:url(#SVGID_53_);stroke:#FFFFFF;stroke-width:2.1123;}
	.st120{fill:#876041;}
	.st121{fill:#DAC895;stroke:#F7E8BA;stroke-width:0.4225;}
	.st122{fill:#4B545B;}
	.st123{fill:#3E6D93;}
	.st124{fill:#476F93;}
	.st125{fill:#CAB47E;}
	.st126{fill:#F7E8BA;}
	.st127{fill:#C2A171;}
	.st128{fill:#D0ECF4;}
	.st129{fill:#EFE4AC;}
	.st130{fill:#5980A2;}
	.st131{fill:#17738F;}
	.st132{fill:#B1D45E;}
	.st133{fill:#8CC540;stroke:#221F1F;stroke-width:0.2168;stroke-linejoin:round;stroke-miterlimit:10;}
	.st134{fill:#58595B;}
	.st135{fill:#797A7D;}
	.st136{fill:#BF86A8;}
	.st137{fill:#302B2C;}
	.st138{fill:#48484A;}
	.st139{fill:#72A087;}
	.st140{fill:#94B0BE;}
	.st141{fill:#09723B;}
	.st142{fill:#00A14B;}
	.st143{fill:#004766;}
	.st144{fill:#00354F;}
	.st145{fill:#005B80;}
	.st146{fill:#002F3E;}
	.st147{fill:#3F4450;}
	.st148{fill:#2A6A7F;}
	.st149{fill:url(#SVGID_54_);}
	.st150{fill:#2C3038;}
	.st151{fill:#CACFD1;}
	.st152{fill:#343943;}
	.st153{fill:#27667A;}
	.st154{fill:none;stroke:#243129;stroke-width:0.3823;stroke-miterlimit:10;}
	.st155{fill:#333333;}
	.st156{fill:#E5E8DD;}
	.st157{fill:#767877;}
	.st158{fill:#545554;}
	.st159{fill:#F8E1C7;}
	.st160{fill:#5A5048;}
	.st161{fill:#604373;}
	.st162{fill:none;}
	.st163{fill:#9DB9C8;}
	.st164{fill:#235F83;}
	.st165{fill:#CF473A;}
	.st166{fill:#B4A680;}
	.st167{fill:url(#SVGID_55_);}
	.st168{fill:url(#SVGID_56_);}
	.st169{fill:url(#SVGID_57_);}
	.st170{fill:url(#SVGID_58_);}
	.st171{fill:url(#SVGID_59_);}
	.st172{fill:url(#SVGID_60_);}
	.st173{fill:url(#SVGID_61_);}
	.st174{fill:url(#SVGID_62_);}
	.st175{fill:url(#SVGID_63_);}
	.st176{fill:url(#SVGID_64_);}
	.st177{fill:url(#SVGID_65_);}
	.st178{fill:url(#SVGID_66_);}
	.st179{fill:url(#SVGID_67_);}
	.st180{fill:url(#SVGID_68_);}
	.st181{fill:url(#SVGID_69_);}
	.st182{fill:url(#SVGID_70_);}
	.st183{fill:url(#SVGID_71_);}
	.st184{fill:url(#SVGID_72_);}
	.st185{fill:url(#SVGID_73_);}
	.st186{fill:url(#SVGID_74_);}
	.st187{fill:url(#SVGID_75_);}
	.st188{fill:url(#SVGID_76_);}
	.st189{fill:url(#SVGID_77_);}
	.st190{fill:url(#SVGID_78_);}
	.st191{fill:url(#SVGID_79_);}
	.st192{fill:url(#SVGID_80_);}
	.st193{fill:url(#SVGID_81_);}
	.st194{fill:url(#SVGID_82_);}
	.st195{fill:url(#SVGID_83_);}
	.st196{fill:url(#SVGID_84_);}
	.st197{fill:url(#SVGID_85_);}
	.st198{fill:url(#SVGID_86_);}
	.st199{fill:url(#SVGID_87_);}
	.st200{fill:url(#SVGID_88_);}
	.st201{fill:url(#SVGID_89_);}
	.st202{fill:url(#SVGID_90_);}
	.st203{fill:url(#SVGID_91_);}
	.st204{fill:url(#SVGID_92_);}
	.st205{fill:url(#SVGID_93_);}
	.st206{fill:url(#SVGID_94_);}
	.st207{fill:url(#SVGID_95_);}
	.st208{fill:url(#SVGID_96_);}
	.st209{fill:url(#SVGID_97_);}
	.st210{fill:url(#SVGID_98_);}
	.st211{fill:url(#SVGID_99_);}
	.st212{fill:url(#SVGID_100_);}
	.st213{fill:url(#SVGID_101_);}
	.st214{fill:url(#SVGID_102_);}
	.st215{fill:url(#SVGID_103_);}
	.st216{fill:url(#SVGID_104_);}
	.st217{fill:url(#SVGID_105_);}
	.st218{fill:url(#SVGID_106_);}
	.st219{fill:url(#SVGID_107_);}
	.st220{fill:url(#SVGID_108_);}
	.st221{fill:url(#SVGID_109_);}
	.st222{fill:url(#SVGID_110_);}
	.st223{fill:url(#SVGID_111_);}
	.st224{fill:url(#SVGID_112_);}
	.st225{fill:url(#SVGID_113_);}
	.st226{fill:url(#SVGID_114_);}
	.st227{fill:url(#SVGID_115_);}
	.st228{fill:url(#SVGID_116_);}
	.st229{fill:url(#SVGID_117_);}
	.st230{fill:url(#SVGID_118_);}
	.st231{fill:url(#SVGID_119_);}
	.st232{fill:url(#SVGID_120_);}
	.st233{fill:url(#SVGID_121_);}
	.st234{fill:url(#SVGID_122_);}
	.st235{fill:#F7D9A8;}
	.st236{fill:#EE93B9;}
</style>
<circle class="st12" cx="143" cy="143" r="143"/>
<g>
	<path class="st7" d="M52.2,204c0,0.9-0.2,1.7-0.7,2.4s-1.1,1.2-1.9,1.6c-0.8,0.4-1.8,0.6-3,0.6c-1,0-1.7-0.1-2.4-0.2
		s-1.3-0.4-2-0.7v-3.4c0.7,0.4,1.5,0.7,2.3,0.9c0.8,0.2,1.5,0.3,2.2,0.3c0.6,0,1-0.1,1.3-0.3c0.3-0.2,0.4-0.5,0.4-0.8
		c0-0.2-0.1-0.4-0.2-0.5s-0.3-0.3-0.5-0.4c-0.2-0.1-0.9-0.5-1.9-0.9c-0.9-0.4-1.6-0.8-2.1-1.2c-0.5-0.4-0.8-0.9-1-1.4
		s-0.3-1.1-0.3-1.8c0-1.3,0.5-2.3,1.4-3.1s2.3-1.1,3.9-1.1c1.5,0,3,0.3,4.5,1l-1.2,3c-1.3-0.6-2.5-0.9-3.5-0.9
		c-0.5,0-0.9,0.1-1.1,0.3c-0.2,0.2-0.3,0.4-0.3,0.7c0,0.3,0.1,0.5,0.4,0.8c0.3,0.2,1.1,0.6,2.4,1.2c1.2,0.6,2.1,1.1,2.6,1.8
		S52.2,203,52.2,204z"/>
	<path class="st7" d="M59.6,205.5c0.5,0,1.1-0.1,1.8-0.4v2.8c-0.5,0.2-1,0.4-1.5,0.5c-0.5,0.1-1,0.1-1.6,0.1c-1.3,0-2.2-0.3-2.8-0.9
		s-0.8-1.6-0.8-2.9v-4.6h-1.3v-1.6l1.7-1.2l1-2.3h2.5v2.2h2.7v2.9h-2.7v4.3C58.6,205.2,58.9,205.5,59.6,205.5z"/>
	<path class="st7" d="M70.6,208.3l-0.7-1.5h-0.1c-0.5,0.6-1,1.1-1.6,1.3c-0.5,0.2-1.2,0.4-2.1,0.4c-1,0-1.9-0.3-2.5-0.9
		c-0.6-0.6-0.9-1.5-0.9-2.6c0-1.2,0.4-2.1,1.2-2.6s2-0.9,3.6-1l1.8-0.1v-0.2c0-0.9-0.4-1.4-1.3-1.4c-0.8,0-1.8,0.3-3.1,0.8l-1.1-2.5
		c1.3-0.7,2.9-1,4.9-1c1.4,0,2.5,0.4,3.3,1.1c0.8,0.7,1.2,1.7,1.2,2.9v7.3H70.6z M67.8,205.8c0.5,0,0.9-0.1,1.2-0.4
		c0.3-0.3,0.5-0.7,0.5-1.1v-0.9l-0.9,0c-1.3,0-1.9,0.5-1.9,1.4C66.7,205.5,67.1,205.8,67.8,205.8z"/>
	<path class="st7" d="M82.6,197.1c0.3,0,0.6,0,0.9,0.1l0.2,0l-0.3,3.6c-0.3-0.1-0.7-0.1-1.3-0.1c-0.8,0-1.4,0.2-1.8,0.6
		c-0.4,0.4-0.6,0.9-0.6,1.6v5.4h-3.8v-11.1h2.8l0.6,1.8h0.2c0.3-0.6,0.8-1.1,1.3-1.4C81.4,197.3,82,197.1,82.6,197.1z"/>
	<path class="st7" d="M90.7,205.5c0.5,0,1.1-0.1,1.8-0.4v2.8c-0.5,0.2-1,0.4-1.5,0.5c-0.5,0.1-1,0.1-1.6,0.1c-1.3,0-2.2-0.3-2.8-0.9
		s-0.8-1.6-0.8-2.9v-4.6h-1.3v-1.6l1.7-1.2l1-2.3h2.5v2.2h2.7v2.9h-2.7v4.3C89.6,205.2,90,205.5,90.7,205.5z"/>
	<path class="st7" d="M94.4,194.5c0-0.6,0.2-1,0.5-1.3c0.3-0.3,0.8-0.4,1.5-0.4c0.7,0,1.2,0.1,1.6,0.4c0.3,0.3,0.5,0.7,0.5,1.3
		c0,1.1-0.7,1.7-2,1.7C95.1,196.2,94.4,195.6,94.4,194.5z M98.3,208.3h-3.8v-11.1h3.8V208.3z"/>
	<path class="st7" d="M107.9,208.3v-6c0-0.7-0.1-1.3-0.3-1.7c-0.2-0.4-0.6-0.6-1-0.6c-0.6,0-1.1,0.3-1.4,0.8
		c-0.3,0.5-0.4,1.4-0.4,2.6v4.8H101v-11.1h2.9l0.5,1.4h0.2c0.3-0.5,0.8-0.9,1.4-1.2s1.2-0.4,2-0.4c1.2,0,2.2,0.4,2.9,1.1
		c0.7,0.7,1,1.7,1,3v7.2H107.9z"/>
	<path class="st7" d="M124.8,197.3v1.8l-1.5,0.6c0.2,0.4,0.3,0.8,0.3,1.3c0,1.2-0.4,2.1-1.3,2.8c-0.8,0.7-2.1,1-3.7,1
		c-0.4,0-0.7,0-1-0.1c-0.1,0.2-0.1,0.3-0.1,0.5c0,0.2,0.2,0.3,0.5,0.4c0.3,0.1,0.7,0.2,1.2,0.2h1.8c2.5,0,3.7,1,3.7,3.1
		c0,1.3-0.6,2.4-1.7,3.1c-1.1,0.7-2.8,1.1-4.8,1.1c-1.6,0-2.8-0.3-3.6-0.8s-1.3-1.3-1.3-2.3c0-1.3,0.8-2.2,2.5-2.6
		c-0.3-0.1-0.6-0.4-0.9-0.7c-0.3-0.3-0.4-0.6-0.4-0.9c0-0.3,0.1-0.6,0.3-0.9c0.2-0.3,0.6-0.6,1.2-0.9c-0.6-0.3-1-0.7-1.4-1.2
		c-0.3-0.5-0.5-1.2-0.5-2c0-1.2,0.4-2.1,1.2-2.8s2-1,3.5-1c0.2,0,0.5,0,1,0.1c0.5,0,0.9,0.1,1.1,0.1H124.8z M116.5,209.7
		c0,0.3,0.2,0.6,0.5,0.8c0.3,0.2,0.8,0.3,1.4,0.3c0.9,0,1.7-0.1,2.2-0.3s0.8-0.5,0.8-0.9c0-0.3-0.2-0.5-0.5-0.6
		c-0.3-0.1-0.8-0.2-1.5-0.2h-1.5c-0.4,0-0.8,0.1-1,0.3S116.5,209.4,116.5,209.7z M117.7,200.9c0,1.1,0.4,1.7,1.2,1.7
		c0.4,0,0.6-0.1,0.8-0.4c0.2-0.3,0.3-0.7,0.3-1.3c0-1.1-0.4-1.7-1.1-1.7C118.1,199.2,117.7,199.8,117.7,200.9z"/>
	<path class="st7" d="M138.9,208.3l-0.7-1.5h-0.1c-0.5,0.6-1,1.1-1.6,1.3c-0.5,0.2-1.2,0.4-2.1,0.4c-1,0-1.9-0.3-2.5-0.9
		c-0.6-0.6-0.9-1.5-0.9-2.6c0-1.2,0.4-2.1,1.2-2.6s2-0.9,3.6-1l1.8-0.1v-0.2c0-0.9-0.4-1.4-1.3-1.4c-0.8,0-1.8,0.3-3.1,0.8l-1.1-2.5
		c1.3-0.7,2.9-1,4.9-1c1.4,0,2.5,0.4,3.3,1.1c0.8,0.7,1.2,1.7,1.2,2.9v7.3H138.9z M136.1,205.8c0.5,0,0.9-0.1,1.2-0.4
		c0.3-0.3,0.5-0.7,0.5-1.1v-0.9l-0.9,0c-1.3,0-1.9,0.5-1.9,1.4C135,205.5,135.3,205.8,136.1,205.8z"/>
	<path class="st7" d="M155.9,197c-0.9,0-1.6,0.4-2.1,1.1c-0.5,0.8-0.8,1.8-0.8,3.1c0,2.7,1,4.1,3.1,4.1c0.6,0,1.2-0.1,1.8-0.3
		c0.6-0.2,1.2-0.4,1.8-0.6v3.3c-1.2,0.5-2.5,0.8-4,0.8c-2.2,0-3.8-0.6-5-1.9c-1.1-1.2-1.7-3.1-1.7-5.4c0-1.5,0.3-2.8,0.8-3.9
		s1.4-2,2.4-2.6s2.3-0.9,3.7-0.9c1.5,0,3,0.3,4.4,1l-1.2,3c-0.5-0.2-1.1-0.5-1.6-0.6S156.5,197,155.9,197z"/>
	<path class="st7" d="M172.9,202.8c0,1.8-0.5,3.2-1.5,4.2c-1,1-2.3,1.5-4.1,1.5c-1.7,0-3-0.5-4-1.6c-1-1-1.5-2.4-1.5-4.2
		c0-1.8,0.5-3.2,1.5-4.2c1-1,2.3-1.5,4.1-1.5c1.1,0,2,0.2,2.9,0.7c0.8,0.5,1.5,1.1,1.9,2C172.6,200.6,172.9,201.6,172.9,202.8z
		 M165.7,202.8c0,1,0.1,1.7,0.4,2.2s0.7,0.7,1.3,0.7c0.6,0,1-0.2,1.3-0.7s0.4-1.2,0.4-2.2c0-0.9-0.1-1.7-0.4-2.1
		c-0.2-0.5-0.7-0.7-1.3-0.7c-0.6,0-1,0.2-1.3,0.7S165.7,201.8,165.7,202.8z"/>
	<path class="st7" d="M188.6,208.3v-6c0-0.7-0.1-1.3-0.3-1.7s-0.5-0.6-1-0.6c-0.6,0-1,0.3-1.3,0.8s-0.4,1.3-0.4,2.4v5.2h-3.8v-6
		c0-0.7-0.1-1.3-0.3-1.7s-0.5-0.6-0.9-0.6c-0.6,0-1,0.3-1.3,0.8s-0.4,1.4-0.4,2.6v4.8h-3.8v-11.1h2.9l0.5,1.4h0.2
		c0.3-0.5,0.7-0.9,1.3-1.2s1.2-0.4,1.9-0.4c1.6,0,2.7,0.5,3.4,1.5h0.3c0.3-0.5,0.7-0.8,1.3-1.1s1.2-0.4,1.8-0.4c1.3,0,2.3,0.3,2.9,1
		s0.9,1.7,0.9,3.1v7.2H188.6z"/>
	<path class="st7" d="M201.7,208.5c-0.6,0-1.1-0.1-1.5-0.3c-0.4-0.2-0.9-0.5-1.3-1h-0.2c0.1,0.8,0.2,1.3,0.2,1.4v4.4h-3.8v-15.9h3.1
		l0.5,1.4h0.2c0.7-1.1,1.7-1.6,2.9-1.6c1.2,0,2.2,0.5,2.9,1.5c0.7,1,1,2.4,1,4.2c0,1.8-0.4,3.2-1.1,4.2
		C203.9,208,202.9,208.5,201.7,208.5z M200.4,200.1c-0.6,0-1,0.2-1.2,0.6s-0.3,1-0.4,1.8v0.3c0,1,0.1,1.6,0.4,2.1s0.7,0.6,1.2,0.6
		c0.5,0,0.8-0.2,1.1-0.6c0.2-0.4,0.3-1.1,0.3-2.1c0-1-0.1-1.6-0.3-2C201.3,200.3,200.9,200.1,200.4,200.1z"/>
	<path class="st7" d="M215.1,208.3l-0.7-1.5h-0.1c-0.5,0.6-1,1.1-1.6,1.3c-0.5,0.2-1.2,0.4-2.1,0.4c-1,0-1.9-0.3-2.5-0.9
		c-0.6-0.6-0.9-1.5-0.9-2.6c0-1.2,0.4-2.1,1.2-2.6s2-0.9,3.6-1l1.8-0.1v-0.2c0-0.9-0.4-1.4-1.3-1.4c-0.8,0-1.8,0.3-3.1,0.8l-1.1-2.5
		c1.3-0.7,2.9-1,4.9-1c1.4,0,2.5,0.4,3.3,1.1c0.8,0.7,1.2,1.7,1.2,2.9v7.3H215.1z M212.3,205.8c0.5,0,0.9-0.1,1.2-0.4
		c0.3-0.3,0.5-0.7,0.5-1.1v-0.9l-0.9,0c-1.3,0-1.9,0.5-1.9,1.4C211.2,205.5,211.6,205.8,212.3,205.8z"/>
	<path class="st7" d="M227.4,208.3v-6c0-0.7-0.1-1.3-0.3-1.7c-0.2-0.4-0.6-0.6-1-0.6c-0.6,0-1.1,0.3-1.4,0.8
		c-0.3,0.5-0.4,1.4-0.4,2.6v4.8h-3.8v-11.1h2.9l0.5,1.4h0.2c0.3-0.5,0.8-0.9,1.4-1.2s1.2-0.4,2-0.4c1.2,0,2.2,0.4,2.9,1.1
		c0.7,0.7,1,1.7,1,3v7.2H227.4z"/>
	<path class="st7" d="M232.4,197.3h4l1.9,6.3c0.1,0.3,0.2,0.7,0.2,1.2h0.1c0.1-0.4,0.1-0.8,0.2-1.2l1.9-6.4h3.9l-4.4,11.8
		c-0.6,1.5-1.2,2.6-2.1,3.2c-0.8,0.6-1.9,0.9-3.2,0.9c-0.5,0-1-0.1-1.6-0.2v-3c0.3,0.1,0.7,0.1,1.2,0.1c0.3,0,0.6-0.1,0.9-0.2
		s0.5-0.3,0.7-0.6c0.2-0.2,0.4-0.6,0.6-1.2L232.4,197.3z"/>
</g>
<g>
	<g>
		<circle class="st32" cx="199.3" cy="155.7" r="1.3"/>
		<circle class="st32" cx="209.9" cy="155.7" r="1.3"/>
		<circle class="st32" cx="220.6" cy="155.7" r="1.3"/>
		<rect x="208.6" y="134.6" class="st33" width="2.6" height="10.6"/>
		<rect x="208" y="141.7" class="st34" width="3.9" height="12.4"/>
		<path class="st7" d="M208,150.9l-9.2,1.9c-0.6,0.2-0.9,0.4-0.9,0.8v1.3h2.6l7.5-0.8V150.9z"/>
		<path class="st7" d="M211.9,150.9l9.2,1.9c0.6,0.2,0.9,0.4,0.9,0.8v1.3h-2.6l-7.5-0.8V150.9z"/>
		<rect x="209" y="150.9" class="st7" width="2" height="4"/>
		<rect x="203.7" y="134" class="st57" width="12.3" height="1.9"/>
		<path class="st7" d="M224.7,93.8c-1.7-0.1-3.2,1.2-3.4,2.9l-2.3,31.5c-6.4,0-21,0-21,0c-1.7,0-3.2,1.4-3.2,3.1
			c0,1.7,1.4,3.1,3.1,3.1h23.9v0c1.6,0,3-1.2,3.1-2.8l0,0c0,0,2.5-34.5,2.5-34.5C227.7,95.4,226.4,93.9,224.7,93.8z"/>
		<path class="st33" d="M224.6,94.6c-1.3-0.1-2.4,0.9-2.5,2.1l-2.4,32.2c-5.9,0-21.7,0-21.7,0c-1.3,0-2.3,1-2.3,2.3
			c0,1.3,1,2.3,2.3,2.3c0,0,23.9,0,23.9,0v0c1.2,0,2.1-0.9,2.3-2.1l0,0c0,0,2.5-34.4,2.5-34.4C226.8,95.8,225.9,94.7,224.6,94.6z"/>
	</g>
	<g>
		<circle class="st32" cx="88.2" cy="155.4" r="1.3"/>
		<circle class="st32" cx="77.6" cy="155.4" r="1.3"/>
		<circle class="st32" cx="66.9" cy="155.4" r="1.3"/>
		<rect x="76.3" y="134.2" class="st33" width="2.6" height="10.6"/>
		<rect x="75.6" y="141.3" class="st34" width="3.9" height="12.4"/>
		<path class="st7" d="M79.5,150.6l9.2,1.9c0.6,0.2,0.9,0.4,0.9,0.8v1.3H87l-7.5-0.8V150.6z"/>
		<path class="st7" d="M75.6,150.6l-9.2,1.9c-0.6,0.2-0.9,0.4-0.9,0.8v1.3h2.6l7.5-0.8V150.6z"/>
		<rect x="76.6" y="150.5" class="st7" width="2" height="4"/>
		<rect x="71.5" y="133.7" class="st57" width="12.3" height="1.9"/>
		<polygon class="st5" points="78.8,71.6 84.7,76.7 80.4,76.7 81.7,86.5 67.7,86.5 70.6,68.4 78.1,68.4 		"/>
		<path class="st27" d="M76.5,75.8c0.1,0,0.2,0,0.2,0c0.8-0.1,1.5-0.9,1.3-2l-0.3,0c0.1,0.9-0.4,1.5-1,1.6c-0.5,0.1-1.2-0.2-1.5-1.4
			l-0.3,0.1C75.2,75.4,75.9,75.8,76.5,75.8z"/>
		<path class="st27" d="M79.1,83.8v-0.3c-1.6,0-3.7-0.9-4.6-2.6L74.2,81C75.1,82.9,77.4,83.8,79.1,83.8z"/>
		<g>
			<path class="st26" d="M71.4,73.7c-0.7,0-1.3,0.6-1.3,1.3c0,0.4,0.2,0.7,0.4,1L69,78.9l1-11.1h11.3l-2.5,3.8L73,71.1l-1.3,2.6
				C71.6,73.7,71.5,73.7,71.4,73.7z"/>
		</g>
		<path class="st58" d="M107.3,153.2l-6.1-27.9c-0.4-2.5-1.6-2.8-3.3-3.2L81.3,119c1.9-6,4.1-26.9,0.3-32.9l-14,0.4
			c-0.8,11.7,0.9,33.5,0.9,33.5c0.3,4,0,7.8,4.5,7.8h19.7c1.7,0,2,0.5,2.4,1.5l9.8,27.3h7.4L107.3,153.2z"/>
		<g>
			<path class="st59" d="M81,110c-3.1,0.9-5.2,0.1-6.2-3.3l-4.6-13.4c-1.4-5.3,6.1-6.6,7.1-1.5l2.4,10.7c0.4,1.5,0.7,2.3,2.9,1.8
				l0.7-0.2c-0.1,1.8-0.2,3.6-0.4,5.3L81,110z"/>
		</g>
		<path class="st7" d="M62.9,93.4c1.7-0.1,3.2,1.2,3.4,2.9l2.3,31.5c6.4,0,21,0,21,0c1.7,0,3.1,1.4,3.1,3.1c0,1.7-1.4,3.1-3.1,3.1
			H65.6v0c-1.6,0-3-1.2-3.1-2.8l0,0c0,0-2.5-34.5-2.5-34.5C59.8,95.1,61.1,93.6,62.9,93.4z"/>
		<path class="st33" d="M62.9,94.2c1.3-0.1,2.4,0.9,2.5,2.1l2.4,32.2c5.9,0,21.7,0,21.7,0c1.3,0,2.3,1,2.3,2.3c0,1.3-1,2.3-2.3,2.3
			c0,0-23.9,0-23.9,0v0c-1.2,0-2.1-0.9-2.3-2.1l0,0c0,0-2.5-34.4-2.5-34.4C60.7,95.5,61.7,94.3,62.9,94.2z"/>
		<g>
			<g>
				<path class="st5" d="M99.4,102.4c1,0.3,2.1,1.2,1.3,1.4c-0.8,0.2-2.4-0.7-3.5-0.8C97.4,102.4,98.3,102,99.4,102.4z"/>
				<path class="st5" d="M100.1,100.5c0.9-0.6,3,0.2,4.5,1.6c0.7,0.7,0,1.1-0.6,0.8c-0.7-0.3-2.3-1.5-3.9-1.3L100.1,100.5z"/>
				<path class="st5" d="M95,100.3c2.4-0.4,5.8-0.7,6.9,0.4c1.1,1.1,1.4,3.7,0.4,3.9c-1,0.2,0.1-1.4-1.2-2.6
					c-0.2-0.2-0.3-0.2-0.9-0.1c-0.5,0.1-2.5,1.6-5.1,1.8L95,100.3z"/>
			</g>
			<path class="st58" d="M77.6,90.6c-1-4.8-8.3-3.6-6.9,1.5l4.4,13c1,3.3,3,4.1,6,3.2l14.8-4.6l-0.8-3.5l-12.4,2.6
				c-2.1,0.5-2.4-0.3-2.8-1.8L77.6,90.6z"/>
		</g>
		<path class="st60" d="M107.3,153.2l-6.1-27.9c-0.4-2.5-1.6-2.8-3.3-3.2L81.3,119l-12.8,1c0.3,4,0,7.8,4.5,7.8h19.7
			c1.7,0,2,0.5,2.4,1.5l9.8,27.3h7.4L107.3,153.2z"/>
	</g>
	<g>
		<g>
			<path class="st7" d="M138,106.7c1,0,1.5-0.7,1.5-1.4v-1.7h-21.7v1.7c0,0.7,0.5,1.4,1.5,1.4H138z"/>
			<rect x="118" y="102.6" class="st7" width="21.3" height="0.5"/>
			<rect x="117.7" y="101.8" class="st7" width="21.3" height="0.5"/>
			<rect x="118" y="101" class="st7" width="21.3" height="0.5"/>
			<rect x="117.3" y="100.2" class="st7" width="21.3" height="0.5"/>
			<rect x="118" y="99.3" class="st7" width="21.3" height="0.5"/>
		</g>
		<g>
			<path class="st34" d="M123.2,104.6c0,0.2-0.1,0.4-0.4,0.4H111v1.7h14.1c0.9,0,1-0.4,1-0.9l-1.7-22c0-0.5-0.3-0.9-1-0.9H121v1.7
				h1.7c0.4,0,0.4,0.2,0.4,0.4V104.6z"/>
			<polygon class="st34" points="120.2,95.4 121.5,93.8 121.5,72.1 120.2,70.6 			"/>
			<rect x="117.4" y="68.3" class="st33" width="2.9" height="28.7"/>
		</g>
		<polygon class="st7" points="111.4,106.7 111.4,103.9 96.2,105.4 96.2,106.7 		"/>
		<g>
			<rect x="135.9" y="108.3" class="st9" width="3.5" height="48.3"/>
			<rect x="137.5" y="108.3" class="st61" width="0.9" height="48.3"/>
		</g>
		<g>
			<rect x="92.5" y="108.3" class="st9" width="3.5" height="48.3"/>
			<rect x="94.3" y="108.3" class="st61" width="0.9" height="48.3"/>
		</g>
		<rect x="88.8" y="106.7" class="st33" width="54.8" height="2.6"/>
	</g>
	<g>
		<g>
			<path class="st7" d="M150,106.7c-1,0-1.5-0.7-1.5-1.4v-1.7h21.7v1.7c0,0.7-0.5,1.4-1.5,1.4H150z"/>
			<rect x="148.7" y="102.6" class="st7" width="21.3" height="0.5"/>
			<rect x="149" y="101.8" class="st7" width="21.3" height="0.5"/>
			<rect x="148.7" y="101" class="st7" width="21.3" height="0.5"/>
			<rect x="149.4" y="100.2" class="st7" width="21.3" height="0.5"/>
			<rect x="148.7" y="99.3" class="st7" width="21.3" height="0.5"/>
		</g>
		<g>
			<path class="st34" d="M164.8,104.6c0,0.2,0.1,0.4,0.4,0.4H177v1.7h-14.1c-0.9,0-1-0.4-1-0.9l1.7-22c0-0.5,0.3-0.9,1-0.9h2.3v1.7
				h-1.7c-0.4,0-0.4,0.2-0.4,0.4V104.6z"/>
			<polygon class="st34" points="167.8,95.4 166.5,93.8 166.5,72.1 167.8,70.6 			"/>
			<rect x="167.6" y="68.3" class="st33" width="2.9" height="28.7"/>
		</g>
		<polygon class="st7" points="176.6,106.7 176.6,103.9 191.8,105.4 191.8,106.7 		"/>
		<g>
			<rect x="148.6" y="108.3" class="st9" width="3.5" height="48.3"/>
			<rect x="149.5" y="108.3" class="st61" width="0.9" height="48.3"/>
		</g>
		<g>
			<rect x="192.3" y="108.3" class="st9" width="3.5" height="48.3"/>
			<rect x="193.1" y="108.3" class="st61" width="0.9" height="48.3"/>
		</g>
		<rect x="144.4" y="106.7" class="st33" width="55.1" height="2.6"/>
	</g>
	<g>
		<g>
			<path class="st5" d="M191.1,104.3c-0.6,0.1-1.3,0.6-0.8,0.7c0.5,0.1,1.4-0.3,2.1-0.3C192.3,104.4,191.7,104.1,191.1,104.3z"/>
			<path class="st5" d="M190.7,103.2c-0.5-0.4-1.7-0.1-2.7,0.7c-0.4,0.4-0.1,0.6,0.3,0.4c0.4-0.2,1.4-0.7,2.4-0.5L190.7,103.2z"/>
			<path class="st5" d="M193.9,103.5c-1.5-0.4-3.5-0.9-4.2-0.3c-0.7,0.6-1.5,1.8-1,2c0.3,0.1,0.5-0.6,1.3-1.2c0.1-0.1,0.4-0.1,0.7,0
				c0.3,0.1,1.3,1.1,2.8,1.4L193.9,103.5z"/>
		</g>
		<path class="st62" d="M210,94.9c-0.6,1.5-3.3,9.4-3.3,9.4c-0.4,1.2-0.9,1.3-1.9,1.1l-11.1-2.2l-0.4,2l11.7,3
			c2.5,0.6,3.6-0.1,4.6-2.4l3.8-10C214.2,93.8,211,92.2,210,94.9z"/>
		<g>
			<path class="st5" d="M199.1,122.4l-9.1,2.5c-2,0.7-3.2,2-2.7,4.2l6.7,26.3h1.8l-5.2-24.9c-0.2-1.1,0.3-1.6,1.3-1.7l8.9-0.2
				L199.1,122.4z"/>
			<g>
				<polygon class="st5" points="191.5,158.2 196.4,158.2 195.6,154.4 193.7,154.4 193.8,154.7 				"/>
			</g>
		</g>
		<path class="st5" d="M197.9,122.4l-9.1,2.5c-1.9,0.6-3.3,1.7-3.5,4.2l-2.3,26.3h1.8l3.7-24.9c0.3-1.4,1.1-1.6,2.1-1.7l8.9-0.2
			L197.9,122.4z"/>
		<g>
			<polygon class="st27" points="180,158.2 184.6,158.2 185,154.4 183.1,154.4 183.1,154.7 			"/>
		</g>
		<g>
			<polygon class="st27" points="191.5,158.2 196.4,158.2 195.8,154.9 193.8,154.7 			"/>
		</g>
		<path class="st5" d="M217,69.8c-6.2-0.7-10.6,1.1-11.9,6c0,0-0.6,3.7-2.4,4.3l2.2,0c0.6,2.5,2.3,4.7,4.5,6.4
			c3.8,3.1,1.7,4.1,1.6,5.8l4.2-1.6c0,0-0.4-3.3,4.2-7C223.9,79.9,223.2,70.9,217,69.8z"/>
		<path class="st27" d="M210.2,79.8c-0.3,0-0.7-0.2-1-0.4c-0.5-0.5-0.8-1.1-0.6-1.8l0.3,0.1c-0.1,0.6,0.1,1.1,0.5,1.5
			c0.4,0.4,1,0.5,1.4,0.3c0.5-0.2,0.9-0.7,1-1.5l0.3,0.1c-0.2,0.9-0.6,1.5-1.2,1.8C210.7,79.8,210.5,79.8,210.2,79.8z"/>
		<path class="st27" d="M210.6,85.5c-0.4-0.1-0.8-0.3-1.1-0.6l0.3-0.2c0.4,0.4,0.9,0.6,1.4,0.4c0.4-0.1,0.6-0.4,0.6-0.7l0.4,0.1
			c-0.1,0.5-0.4,0.9-0.9,1C211.1,85.5,210.8,85.6,210.6,85.5z"/>
		<path class="st62" d="M206.9,117.3c0.2-11,1-19.5,4.3-25.9h4.3c1.2,11.5,2.4,15.2,2.4,25.7c0,9.1-2.6,11.6-7.9,11.6
			c-5,0-16.9,0.1-16.9,0.1l-3.9-4l16.5-5.5C206.6,119,206.9,118.3,206.9,117.3z"/>
		<g>
			<path class="st7" d="M207.8,103.5c0.8-3.4,3.1-9.4,4-10.4l0.7-0.8l-1.4-1C209.6,94.5,208.3,98.4,207.8,103.5z"/>
		</g>
		<polygon class="st7" points="211.2,91.3 212.3,94.3 216,91.7 215.3,90.2 		"/>
		<g>
			<path class="st63" d="M208.3,110.1c2.9,0.6,4.4-0.6,5-3.1l2.1-10.4c0.5-2.2-2.9-3.3-3.4-0.4c-0.4,1.5-1.8,9.9-1.8,9.9
				c-0.2,1.2-0.7,1.5-1.7,1.4l-1.1-0.1c-0.1,0.9-0.1,1.7-0.2,2.6L208.3,110.1z"/>
		</g>
		<g>
			<path class="st26" d="M221.6,87c7.1-5.4,6.3-20.9-7.2-19.6c-8.1,0.9-8.1,5.4-9.9,4.4c1.3,3.5,7.8,5.1,10.5,3.3
				c0.6,0.7,1,1.5,1.2,2.5c0.2,0,0.4,0,0.6,0c1,0.1,1.7,1.1,1.6,2.1c-0.1,1-1.1,1.7-2.1,1.6c-1.3,5.4-1.6,14.2,6.1,10.6
				C220.3,92,217.5,90.1,221.6,87z"/>
		</g>
		<g>
			<path class="st5" d="M192.8,104.3c-0.6,0.1-1.3,0.6-0.8,0.7c0.5,0.1,1.4-0.3,2.1-0.3C194,104.3,193.5,104.1,192.8,104.3z"/>
			<path class="st5" d="M192.5,103.1c-0.5-0.4-1.7-0.1-2.7,0.7c-0.4,0.4-0.1,0.6,0.3,0.5c0.4-0.2,1.4-0.7,2.3-0.5L192.5,103.1z"/>
			<path class="st5" d="M195.7,103.5c-1.5-0.4-3.5-0.9-4.2-0.3c-0.7,0.6-1,2.1-0.4,2.2c0.6,0.2,0-0.8,0.8-1.5c0.1-0.1,0.2-0.1,0.5,0
				c0.3,0.1,1.4,1,2.9,1.3L195.7,103.5z"/>
		</g>
		<path class="st62" d="M212,95.8c-0.6,1.5-3.3,9.5-3.3,9.5c-0.4,1.2-0.9,1.4-1.9,1.1l-11.2-2.9l-0.6,1.9l11.2,3.6
			c2.8,1.1,4.4,0.1,5.4-2.3l3.8-10C216.2,94.7,213,93,212,95.8z"/>
	</g>
</g>
</svg>
