<?xml version="1.0" encoding="utf-8"?>
<!-- Generator: Adobe Illustrator 17.0.0, SVG Export Plug-In . SVG Version: 6.00 Build 0)  -->
<!DOCTYPE svg PUBLIC "-//W3C//DTD SVG 1.1//EN" "http://www.w3.org/Graphics/SVG/1.1/DTD/svg11.dtd">
<svg version="1.1" id="Layer_1" xmlns="http://www.w3.org/2000/svg" xmlns:xlink="http://www.w3.org/1999/xlink" x="0px" y="0px"
	 width="430px" height="654px" viewBox="0 0 430 654" enable-background="new 0 0 430 654" xml:space="preserve">
<rect x="0.24" y="0.063" fill="#34BFC2" width="429.521" height="654"/>
<rect y="285.835" fill="#B4A680" width="430" height="368.857"/>
<g>
	<defs>
		<rect id="SVGID_1_" x="0.24" y="0.063" width="429.521" height="654"/>
	</defs>
	<clipPath id="SVGID_2_">
		<use xlink:href="#SVGID_1_"  overflow="visible"/>
	</clipPath>
	<g clip-path="url(#SVGID_2_)">
		<path fill-rule="evenodd" clip-rule="evenodd" fill="#A6C752" d="M28.332,237.27c16.027,0,29.205,5.595,30.74,12.754
			c1.431-0.161,2.925-0.245,4.462-0.245c10.314,0,18.678,3.833,18.678,8.559c0,1.309-0.645,2.55-1.793,3.659
			c10.336,1.995,17.598,6.68,17.598,12.142c0,7.271-12.868,13.167-28.736,13.167c-10.072,0-18.937-2.377-24.068-5.973
			c-3.781,0.873-8.049,1.365-12.57,1.365c-7.292,0-13.932-1.279-18.918-3.372c-6.398,4.036-16.78,6.664-28.497,6.664
			c-19.439,0-35.202-7.224-35.202-16.131c0-8.907,15.763-16.13,35.202-16.13c4.65,0,9.089,0.414,13.152,1.164
			c-0.61-1.11-0.939-2.271-0.939-3.468C-2.56,243.609,11.274,237.27,28.332,237.27"/>
		<path fill-rule="evenodd" clip-rule="evenodd" fill="#829C3C" d="M58.899,249.382c0.068,0.212,0.127,0.427,0.173,0.642
			c1.431-0.161,2.925-0.245,4.462-0.245c10.314,0,18.678,3.833,18.678,8.559c0,1.309-0.645,2.55-1.793,3.659
			c10.336,1.995,17.598,6.68,17.598,12.142c0,7.271-12.868,13.167-28.736,13.167c-10.072,0-18.937-2.377-24.068-5.973
			c-3.781,0.873-8.049,1.365-12.57,1.365c-7.292,0-13.932-1.279-18.918-3.372c-5.897,3.72-15.178,6.244-25.77,6.615
			c2.475-0.816,5.152-1.508,7.997-2.057c-1.632-1.578-2.55-3.341-2.55-5.202c0-6.719,11.891-12.167,26.551-12.167
			c2.185,0,4.31,0.12,6.344,0.349C28.113,258.4,41.377,251.473,58.899,249.382"/>
		<path fill-rule="evenodd" clip-rule="evenodd" fill="#E7DC5C" d="M14.063,247.978c1.88,0,3.405,0.698,3.405,1.56
			c0,0.862-1.525,1.56-3.405,1.56c-1.881,0-3.404-0.698-3.404-1.56C10.659,248.676,12.183,247.978,14.063,247.978"/>
		<path fill-rule="evenodd" clip-rule="evenodd" fill="#E7DC5C" d="M0.776,259.01c0.203,0.524-0.562,1.024-1.704,1.117
			c-1.145,0.093-2.235-0.258-2.437-0.782c-0.202-0.524,0.562-1.024,1.706-1.117C-0.516,258.136,0.574,258.486,0.776,259.01"/>
		<path fill-rule="evenodd" clip-rule="evenodd" fill="#E7DC5C" d="M27.103,241.458c1.223,0,2.215,0.455,2.215,1.015
			c0,0.56-0.993,1.015-2.215,1.015c-1.223,0-2.215-0.455-2.215-1.015C24.888,241.913,25.88,241.458,27.103,241.458"/>
		<path fill-rule="evenodd" clip-rule="evenodd" fill="#E7DC5C" d="M-32.755,265.497c0.327,0.848-0.91,1.658-2.762,1.807
			c-1.852,0.15-3.617-0.416-3.945-1.265c-0.328-0.849,0.909-1.658,2.761-1.807C-34.848,264.083-33.082,264.649-32.755,265.497"/>
		<path fill-rule="evenodd" clip-rule="evenodd" fill="#E7DC5C" d="M-25.808,272.349c1.336,0,2.419,0.496,2.419,1.108
			c0,0.613-1.083,1.108-2.419,1.108c-1.335,0-2.418-0.496-2.418-1.108C-28.227,272.845-27.144,272.349-25.808,272.349"/>
		<path fill-rule="evenodd" clip-rule="evenodd" fill="#C5DDB5" d="M29.207,272.234c1.783,0,3.228,0.663,3.228,1.479
			c0,0.817-1.445,1.479-3.228,1.479c-1.782,0-3.227-0.663-3.227-1.479C25.98,272.897,27.425,272.234,29.207,272.234"/>
		<path fill-rule="evenodd" clip-rule="evenodd" fill="#A6C752" d="M414.411,237.478c-16.026,0-29.204,5.595-30.739,12.754
			c-1.43-0.161-2.925-0.245-4.462-0.245c-10.313,0-18.679,3.833-18.679,8.559c0,1.309,0.645,2.549,1.794,3.659
			c-10.338,1.994-17.598,6.68-17.598,12.142c0,7.271,12.868,13.167,28.737,13.167c10.071,0,18.935-2.378,24.068-5.973
			c3.781,0.873,8.048,1.365,12.57,1.365c7.292,0,13.932-1.279,18.917-3.372c6.398,4.036,16.781,6.664,28.499,6.664
			c19.438,0,35.202-7.223,35.202-16.131c0-8.907-15.763-16.13-35.202-16.13c-4.651,0-9.091,0.414-13.152,1.164
			c0.61-1.11,0.938-2.271,0.938-3.468C445.302,243.816,431.469,237.478,414.411,237.478"/>
		<path fill-rule="evenodd" clip-rule="evenodd" fill="#829C3C" d="M383.843,249.59c-0.068,0.212-0.126,0.427-0.172,0.642
			c-1.43-0.161-2.925-0.245-4.462-0.245c-10.313,0-18.679,3.833-18.679,8.559c0,1.309,0.645,2.549,1.794,3.659
			c-10.338,1.994-17.598,6.68-17.598,12.142c0,7.271,12.868,13.167,28.737,13.167c10.071,0,18.935-2.378,24.068-5.973
			c3.781,0.873,8.048,1.365,12.57,1.365c7.292,0,13.932-1.279,18.917-3.372c5.899,3.72,15.179,6.244,25.77,6.615
			c-2.474-0.816-5.151-1.508-7.997-2.057c1.631-1.578,2.55-3.341,2.55-5.202c0-6.719-11.89-12.167-26.551-12.167
			c-2.186,0-4.31,0.121-6.344,0.349C414.631,258.608,401.366,251.68,383.843,249.59"/>
		<path fill-rule="evenodd" clip-rule="evenodd" fill="#E7DC5C" d="M428.68,248.186c-1.881,0-3.405,0.698-3.405,1.56
			c0,0.862,1.524,1.56,3.405,1.56c1.88,0,3.405-0.698,3.405-1.56C432.085,248.884,430.559,248.186,428.68,248.186"/>
		<path fill-rule="evenodd" clip-rule="evenodd" fill="#E7DC5C" d="M441.966,259.217c-0.202,0.524,0.563,1.024,1.706,1.116
			c1.143,0.093,2.235-0.257,2.437-0.781c0.2-0.524-0.562-1.024-1.708-1.117C443.26,258.343,442.168,258.694,441.966,259.217"/>
		<path fill-rule="evenodd" clip-rule="evenodd" fill="#E7DC5C" d="M415.64,241.666c-1.223,0-2.215,0.455-2.215,1.015
			c0,0.56,0.993,1.015,2.215,1.015c1.223,0,2.216-0.455,2.216-1.015C417.856,242.12,416.863,241.666,415.64,241.666"/>
		<path fill-rule="evenodd" clip-rule="evenodd" fill="#E7DC5C" d="M475.498,265.705c-0.326,0.848,0.91,1.658,2.76,1.807
			c1.853,0.15,3.619-0.416,3.946-1.265c0.326-0.849-0.91-1.658-2.761-1.807C477.592,264.29,475.826,264.857,475.498,265.705"/>
		<path fill-rule="evenodd" clip-rule="evenodd" fill="#E7DC5C" d="M468.551,272.557c-1.335,0-2.417,0.496-2.417,1.108
			c0,0.613,1.082,1.109,2.417,1.109c1.337,0,2.419-0.496,2.419-1.109C470.97,273.053,469.888,272.557,468.551,272.557"/>
		<path fill-rule="evenodd" clip-rule="evenodd" fill="#C5DDB5" d="M413.535,272.442c-1.782,0-3.228,0.663-3.228,1.479
			c0,0.817,1.446,1.479,3.228,1.479c1.782,0,3.228-0.663,3.228-1.479C416.763,273.104,415.317,272.442,413.535,272.442"/>
		<polygon fill-rule="evenodd" clip-rule="evenodd" fill="#B4A680" points="47.207,139.283 216.414,83.544 385.621,139.283 
			385.621,280.165 47.207,280.165 		"/>
		<polygon fill-rule="evenodd" clip-rule="evenodd" fill="#908667" points="385.621,166.872 216.414,111.134 47.207,166.872 
			47.207,139.283 216.414,83.544 385.621,139.283 		"/>
		<rect x="96.818" y="161.125" fill-rule="evenodd" clip-rule="evenodd" fill="#FFFFFF" width="241.396" height="118.161"/>
		<rect x="104.803" y="165.197" fill-rule="evenodd" clip-rule="evenodd" fill="#6D7B36" width="225.428" height="114.969"/>
		<rect x="-78.66" y="279.422" fill-rule="evenodd" clip-rule="evenodd" fill="#344B2F" width="578.415" height="7.768"/>
		<polygon fill-rule="evenodd" clip-rule="evenodd" fill="#FFFFFF" points="21.262,145.281 216.414,80.995 411.566,145.281 
			411.566,157.828 216.414,93.543 21.262,157.828 		"/>
		<rect x="159.619" y="138.305" fill-rule="evenodd" clip-rule="evenodd" fill="#FFFFFF" width="20.031" height="16.468"/>
		<rect x="163.842" y="140.696" fill-rule="evenodd" clip-rule="evenodd" fill="#6D7B36" width="11.586" height="11.687"/>
		<path fill-rule="evenodd" clip-rule="evenodd" fill="#FFFFFF" d="M205.573,138.305c6.678,0,13.354,0,20.031,0
			c0,5.489,0,10.978,0,16.468c-6.676,0-13.353,0-20.031,0C205.573,149.283,205.573,143.794,205.573,138.305"/>
		<path fill-rule="evenodd" clip-rule="evenodd" fill="#6D7B36" d="M209.798,140.695c3.86,0,7.722,0,11.584,0
			c0,3.896,0,7.791,0,11.686c-3.862,0-7.724,0-11.584,0C209.798,148.486,209.798,144.591,209.798,140.695"/>
		<rect x="251.523" y="138.305" fill-rule="evenodd" clip-rule="evenodd" fill="#FFFFFF" width="20.032" height="16.468"/>
		<rect x="255.746" y="140.696" fill-rule="evenodd" clip-rule="evenodd" fill="#6D7B36" width="11.587" height="11.687"/>
		<g>
			<g>
				<rect x="104.803" y="165.197" fill="#756B64" width="224.852" height="114.089"/>
			</g>
			<g>
				<rect x="234.112" y="165.612" fill="#E3D8CD" width="96.119" height="113.81"/>
			</g>
			<g>
				<rect x="245.306" y="183.078" fill="#BA9A7E" width="75.978" height="41.567"/>
			</g>
			<g>
				<g>
					<rect x="104.803" y="190.945" fill="#CAB3A0" width="129.332" height="3.923"/>
				</g>
			</g>
			<g>
				<rect x="104.803" y="165.197" fill="#EDE6DE" width="225.428" height="11.763"/>
			</g>
			<g>
				<g>
					<g>
						<circle fill="#8C7460" cx="246.905" cy="185.784" r="0.792"/>
					</g>
					<g>
						<circle fill="#8C7460" cx="254.186" cy="185.784" r="0.792"/>
					</g>
					<g>
						<circle fill="#8C7460" cx="261.467" cy="185.784" r="0.792"/>
					</g>
					<g>
						<circle fill="#8C7460" cx="268.748" cy="185.784" r="0.792"/>
					</g>
					<g>
						<circle fill="#8C7460" cx="276.029" cy="185.784" r="0.792"/>
					</g>
					<g>
						<circle fill="#8C7460" cx="283.31" cy="185.784" r="0.792"/>
					</g>
					<g>
						<circle fill="#8C7460" cx="290.591" cy="185.784" r="0.792"/>
					</g>
					<g>
						<circle fill="#8C7460" cx="297.872" cy="185.784" r="0.792"/>
					</g>
					<g>
						<circle fill="#8C7460" cx="305.153" cy="185.784" r="0.792"/>
					</g>
					<g>
						<circle fill="#8C7460" cx="312.434" cy="185.784" r="0.792"/>
					</g>
					<g>
						<circle fill="#8C7460" cx="319.714" cy="185.784" r="0.792"/>
					</g>
				</g>
				<g>
					<g>
						<circle fill="#8C7460" cx="246.905" cy="191.858" r="0.792"/>
					</g>
					<g>
						<circle fill="#8C7460" cx="254.186" cy="191.858" r="0.792"/>
					</g>
					<g>
						<circle fill="#8C7460" cx="261.467" cy="191.858" r="0.792"/>
					</g>
					<g>
						<circle fill="#8C7460" cx="268.748" cy="191.858" r="0.792"/>
					</g>
					<g>
						<circle fill="#8C7460" cx="276.029" cy="191.858" r="0.792"/>
					</g>
					<g>
						<circle fill="#8C7460" cx="283.31" cy="191.858" r="0.792"/>
					</g>
					<g>
						<circle fill="#8C7460" cx="290.591" cy="191.858" r="0.792"/>
					</g>
					<g>
						<circle fill="#8C7460" cx="297.872" cy="191.858" r="0.792"/>
					</g>
					<g>
						<circle fill="#8C7460" cx="305.153" cy="191.858" r="0.792"/>
					</g>
					<g>
						<circle fill="#8C7460" cx="312.434" cy="191.858" r="0.792"/>
					</g>
					<g>
						<circle fill="#8C7460" cx="319.714" cy="191.858" r="0.792"/>
					</g>
				</g>
				<g>
					<g>
						<circle fill="#8C7460" cx="246.905" cy="197.932" r="0.792"/>
					</g>
					<g>
						<circle fill="#8C7460" cx="254.186" cy="197.932" r="0.792"/>
					</g>
					<g>
						<circle fill="#8C7460" cx="261.467" cy="197.932" r="0.792"/>
					</g>
					<g>
						<circle fill="#8C7460" cx="268.748" cy="197.932" r="0.792"/>
					</g>
					<g>
						<circle fill="#8C7460" cx="276.029" cy="197.932" r="0.792"/>
					</g>
					<g>
						<circle fill="#8C7460" cx="283.31" cy="197.932" r="0.792"/>
					</g>
					<g>
						<circle fill="#8C7460" cx="290.591" cy="197.932" r="0.792"/>
					</g>
					<g>
						<circle fill="#8C7460" cx="297.872" cy="197.932" r="0.792"/>
					</g>
					<g>
						<circle fill="#8C7460" cx="305.153" cy="197.932" r="0.792"/>
					</g>
					<g>
						<circle fill="#8C7460" cx="312.434" cy="197.932" r="0.792"/>
					</g>
					<g>
						<circle fill="#8C7460" cx="319.714" cy="197.932" r="0.792"/>
					</g>
				</g>
				<g>
					<g>
						<circle fill="#8C7460" cx="246.905" cy="204.005" r="0.792"/>
					</g>
					<g>
						<circle fill="#8C7460" cx="254.186" cy="204.005" r="0.792"/>
					</g>
					<g>
						<circle fill="#8C7460" cx="261.467" cy="204.005" r="0.792"/>
					</g>
					<g>
						<circle fill="#8C7460" cx="268.748" cy="204.005" r="0.792"/>
					</g>
					<g>
						<circle fill="#8C7460" cx="276.029" cy="204.005" r="0.792"/>
					</g>
					<g>
						<circle fill="#8C7460" cx="283.31" cy="204.005" r="0.792"/>
					</g>
					<g>
						<circle fill="#8C7460" cx="290.591" cy="204.005" r="0.792"/>
					</g>
					<g>
						<circle fill="#8C7460" cx="297.872" cy="204.005" r="0.792"/>
					</g>
					<g>
						<circle fill="#8C7460" cx="305.153" cy="204.005" r="0.792"/>
					</g>
					<g>
						<circle fill="#8C7460" cx="312.434" cy="204.005" r="0.792"/>
					</g>
					<g>
						<circle fill="#8C7460" cx="319.714" cy="204.005" r="0.792"/>
					</g>
				</g>
				<g>
					<g>
						<circle fill="#8C7460" cx="246.905" cy="210.079" r="0.792"/>
					</g>
					<g>
						<circle fill="#8C7460" cx="254.186" cy="210.079" r="0.792"/>
					</g>
					<g>
						<circle fill="#8C7460" cx="261.467" cy="210.079" r="0.792"/>
					</g>
					<g>
						<circle fill="#8C7460" cx="268.748" cy="210.079" r="0.792"/>
					</g>
					<g>
						<circle fill="#8C7460" cx="276.029" cy="210.079" r="0.792"/>
					</g>
					<g>
						<circle fill="#8C7460" cx="283.31" cy="210.079" r="0.792"/>
					</g>
					<g>
						<circle fill="#8C7460" cx="290.591" cy="210.079" r="0.792"/>
					</g>
					<g>
						<circle fill="#8C7460" cx="297.872" cy="210.079" r="0.792"/>
					</g>
					<g>
						<circle fill="#8C7460" cx="305.153" cy="210.079" r="0.792"/>
					</g>
					<g>
						<circle fill="#8C7460" cx="312.434" cy="210.079" r="0.792"/>
					</g>
					<g>
						<circle fill="#8C7460" cx="319.714" cy="210.079" r="0.792"/>
					</g>
				</g>
				<g>
					<g>
						<circle fill="#8C7460" cx="246.905" cy="216.153" r="0.792"/>
					</g>
					<g>
						<circle fill="#8C7460" cx="254.186" cy="216.153" r="0.792"/>
					</g>
					<g>
						<circle fill="#8C7460" cx="261.467" cy="216.153" r="0.792"/>
					</g>
					<g>
						<circle fill="#8C7460" cx="268.748" cy="216.153" r="0.792"/>
					</g>
					<g>
						<circle fill="#8C7460" cx="276.029" cy="216.153" r="0.792"/>
					</g>
					<g>
						<circle fill="#8C7460" cx="283.31" cy="216.153" r="0.792"/>
					</g>
					<g>
						<circle fill="#8C7460" cx="290.591" cy="216.153" r="0.792"/>
					</g>
					<g>
						<circle fill="#8C7460" cx="297.872" cy="216.153" r="0.792"/>
					</g>
					<g>
						<circle fill="#8C7460" cx="305.153" cy="216.153" r="0.792"/>
					</g>
					<g>
						<circle fill="#8C7460" cx="312.434" cy="216.153" r="0.792"/>
					</g>
					<g>
						<circle fill="#8C7460" cx="319.714" cy="216.153" r="0.792"/>
					</g>
				</g>
				<g>
					<g>
						<circle fill="#8C7460" cx="246.905" cy="222.227" r="0.792"/>
					</g>
					<g>
						<circle fill="#8C7460" cx="254.186" cy="222.227" r="0.792"/>
					</g>
					<g>
						<circle fill="#8C7460" cx="261.467" cy="222.227" r="0.792"/>
					</g>
					<g>
						<circle fill="#8C7460" cx="268.748" cy="222.227" r="0.792"/>
					</g>
					<g>
						<circle fill="#8C7460" cx="276.029" cy="222.227" r="0.792"/>
					</g>
					<g>
						<circle fill="#8C7460" cx="283.31" cy="222.227" r="0.792"/>
					</g>
					<g>
						<circle fill="#8C7460" cx="290.591" cy="222.227" r="0.792"/>
					</g>
					<g>
						<circle fill="#8C7460" cx="297.872" cy="222.227" r="0.792"/>
					</g>
					<g>
						<circle fill="#8C7460" cx="305.153" cy="222.227" r="0.792"/>
					</g>
					<g>
						<circle fill="#8C7460" cx="312.434" cy="222.227" r="0.792"/>
					</g>
					<g>
						<circle fill="#8C7460" cx="319.714" cy="222.227" r="0.792"/>
					</g>
				</g>
			</g>
			<g>
				<g>
					<g>
						<path fill="#B3B3B3" d="M115.928,182.769c0,1.51,1.223,2.734,2.732,2.734h0.067v-5.468h-0.067
							C117.151,180.034,115.928,181.259,115.928,182.769z"/>
					</g>
					<g>
						<path fill="#B3B3B3" d="M158.592,180.034h-0.067v5.468h0.067c1.509,0,2.732-1.224,2.732-2.734
							C161.324,181.259,160.1,180.034,158.592,180.034z"/>
					</g>
					<g>
						<rect x="118.555" y="180.034" fill="#B3B3B3" width="40.076" height="2.685"/>
					</g>
					<g>
						<path fill="#FFFFFF" d="M157.384,183.218h-37.515c-0.63,0-1.141,0.511-1.141,1.142v0c0,0.631,0.511,1.142,1.141,1.142h37.515
							c0.63,0,1.141-0.511,1.141-1.142C158.525,183.73,158.014,183.218,157.384,183.218z"/>
					</g>
				</g>
				<g>
					<g>
						<rect x="120.623" y="176.836" fill="#B3B3B3" width="0.34" height="3.198"/>
					</g>
					<g>
						<rect x="156.29" y="176.836" fill="#B3B3B3" width="0.34" height="3.198"/>
					</g>
				</g>
			</g>
			<g>
				<g>
					<g>
						<g>
							<g>
								<path fill="#FFFFFF" d="M312.544,220.753h-2.852c-1.414,0-2.564,1.164-2.564,2.594v2.126h1.419v-2.126
									c0-0.516,0.524-0.952,1.145-0.952h2.852c0.621,0,1.145,0.436,1.145,0.952v2.126h1.419v-2.126
									C315.108,221.917,313.958,220.753,312.544,220.753z"/>
							</g>
						</g>
						<g>
							<g>
								<rect x="300.773" y="225.2" fill="#EC6545" width="20.689" height="10.945"/>
							</g>
							<g opacity="0.15">
								<rect x="300.773" y="225.2" fill="#010101" width="20.689" height="4.439"/>
							</g>
							<g>
								<polygon fill="#ED7A60" points="300.773,225.2 299.991,228.978 322.244,228.978 321.462,225.2 								"/>
							</g>
						</g>
					</g>
					<g>
						<g>
							<rect x="287.811" y="236.709" fill="#C5AC94" width="40.29" height="42.593"/>
						</g>
						<g opacity="0.15">
							<rect x="287.811" y="236.709" fill="#010101" width="40.29" height="5.202"/>
						</g>
						<g>
							<rect x="287.811" y="236.145" fill="#9F8369" width="40.29" height="5.126"/>
						</g>
						<g>
							<rect x="289.615" y="244.243" fill="#D9C8B9" width="37.269" height="9.52"/>
						</g>
						<g>
							<rect x="289.615" y="255.667" fill="#D9C8B9" width="37.269" height="9.52"/>
						</g>
						<g>
							<rect x="289.615" y="267.091" fill="#D9C8B9" width="37.269" height="9.52"/>
						</g>
					</g>
				</g>
				<g>
					<path fill="#9F8369" d="M304.925,250.475h6.65c0.756,0,1.369-0.709,1.369-1.584h-9.388
						C303.556,249.765,304.169,250.475,304.925,250.475z"/>
				</g>
				<g>
					<path fill="#9F8369" d="M304.925,261.899h6.65c0.756,0,1.369-0.709,1.369-1.584h-9.388
						C303.556,261.189,304.169,261.899,304.925,261.899z"/>
				</g>
				<g>
					<path fill="#9F8369" d="M304.925,273.323h6.65c0.756,0,1.369-0.709,1.369-1.584h-9.388
						C303.556,272.613,304.169,273.323,304.925,273.323z"/>
				</g>
			</g>
		</g>
		<g>
			<g>
				<g opacity="0.2">
					<polygon fill="#231F20" points="266.122,190.078 266.134,189.978 266.122,190.078 					"/>
				</g>
				<g opacity="0.2">
					<path fill="#231F20" d="M266.15,189.838l0.003-0.024L266.15,189.838z"/>
				</g>
				<g opacity="0.2">
					<polygon fill="#231F20" points="266.53,190.057 266.534,190.025 266.53,190.056 					"/>
				</g>
				<g>
					<g>
						<path fill="#595A5C" d="M259.224,192.505l0.558,0.101c0,0,0.328,0.04,0.378-0.214c0,0-0.038-1.221,0.539-1.501l-2.078-0.268
							L259.224,192.505z"/>
					</g>
					<g>
						<path fill="#65884C" d="M254.972,190.564c0,0,1.297,0.214,0.689,1.561c0,0-1.205,1.967-1.665,3.948
							c0,0-0.067,0.817-0.79,0.788c0,0-0.654-0.078-0.746,0.432l-0.383,2.116c0,0-0.135,0.745,0.355,0.833l6.191,1.119
							c0,0,0.388,0.091,0.534-0.713l0.241-1.332c0,0,0.01-1.512-2.106-1.895c0,0-0.985-0.262-0.469-1.1
							c0.516-0.837,0.804-1.089,0.898-1.496c0.094-0.408,0.264-1.794,0.65-1.805c0.387-0.011,0.67,0.101,0.744-0.088l0.385-1.347
							c0,0,0.142-0.783,0.479-0.743l-5.108-0.619L254.972,190.564z"/>
					</g>
					<g>
						<path fill="#595A5C" d="M254.872,190.223l0.1,0.34c0,0,1.297,0.214,0.689,1.561c0,0-1.003,1.638-1.528,3.429
							c0.041-0.001,0.083-0.002,0.125-0.004c0.086-0.004,0.171-0.01,0.256-0.019c0.042-0.005,0.187-0.03,0.197-0.03
							c0.094-0.023,0.187-0.05,0.277-0.085c0.034-0.019,0.104-0.056,0.131-0.076c0.011-0.008,0.021-0.015,0.032-0.023
							c0.003-0.004,0.006-0.006,0.009-0.009c0.021-0.023,0.041-0.047,0.061-0.071c0.014-0.023,0.035-0.056,0.042-0.069
							c0.053-0.094,0.102-0.19,0.146-0.289c0.096-0.213,0.179-0.43,0.262-0.649c0.172-0.456,0.384-0.896,0.552-1.352
							c0.006-0.018,0.047-0.14,0.053-0.159c0.017-0.055,0.034-0.11,0.049-0.165c0.03-0.108,0.058-0.216,0.08-0.325
							c0.022-0.107,0.042-0.215,0.057-0.324c0.007-0.054,0.014-0.109,0.02-0.163c0-0.006,0.001-0.011,0.002-0.016
							c0-0.006,0.001-0.012,0.001-0.019c0.023-0.432-0.005-0.864-0.055-1.293L254.872,190.223z"/>
					</g>
					<g>
						<path fill="#87A174" d="M253.436,188.278c-0.116,0.993,0.595,1.892,1.589,2.008l6.213,0.724l0.419-3.596l-6.213-0.725
							C254.451,186.574,253.552,187.285,253.436,188.278z"/>
					</g>
					<g>
						
							<rect x="261.387" y="187.419" transform="matrix(-0.9929 -0.1186 0.1186 -0.9929 498.9991 408.1745)" fill="#363638" width="0.518" height="3.639"/>
					</g>
					<g>
						<polygon fill="#363638" points="261.687,191.073 263.414,190.858 263.74,188.135 262.119,187.459 						"/>
					</g>
					<g>
						
							<rect x="263.519" y="188.374" transform="matrix(-0.9929 -0.1189 0.1189 -0.9929 503.5428 409.0474)" fill="#363638" width="0.9" height="2.27"/>
					</g>
					<g>
						<path fill="#D2D3D4" d="M265.521,188.872c-0.098-0.101-0.318-0.138-0.318-0.138l-0.678-0.081l-0.217,1.819l0.678,0.081
							c0,0,0.223,0.016,0.342-0.059c0.24-0.152,0.648-0.384,0.648-0.384l0.042-0.356l0.043-0.356
							C266.06,189.398,265.718,189.076,265.521,188.872z"/>
					</g>
					<g>
						
							<rect x="266.016" y="189.628" transform="matrix(-0.9929 -0.1189 0.1189 -0.9929 507.9707 409.8733)" fill="#818285" width="0.403" height="0.299"/>
					</g>
					<g>
						<path fill="#818285" d="M266.316,189.723l-0.019,0.158c-0.025,0.213,0.35,0.217,0.35,0.217l0.421-0.124l0.008-0.065
							l0.003-0.028l0.008-0.065l-0.38-0.22C266.707,189.594,266.341,189.509,266.316,189.723z"/>
					</g>
					<g>
						<path fill="#9FB899" d="M260.128,187.921l-4.639-0.554c-0.352-0.042-0.672,0.209-0.714,0.561
							c-0.042,0.352,0.209,0.672,0.561,0.714l4.639,0.554c0.352,0.042,0.672-0.209,0.714-0.561
							C260.732,188.283,260.48,187.963,260.128,187.921z"/>
					</g>
					<g>
						<path fill="#363638" d="M252.005,199.815c-0.062,0.342,0.165,0.669,0.507,0.731l5.835,1.055
							c0.342,0.062,0.669-0.165,0.731-0.507l0.246-1.361l-7.073-1.279L252.005,199.815z"/>
					</g>
				</g>
			</g>
			<g>
				<circle fill="#EACBA7" cx="255.313" cy="191.075" r="0.36"/>
			</g>
			<g>
				<circle fill="#EACBA7" cx="260.694" cy="191.435" r="0.36"/>
			</g>
			<g>
				<circle fill="#EACBA7" cx="256.852" cy="201.708" r="0.36"/>
			</g>
		</g>
		<g>
			<g>
				<g>
					<g>
						<path fill="#424143" d="M306.841,194.764c-0.141-1.174-0.096-4.541-0.096-4.541l-1.227,0.003c0,0,0.062,3.367-0.073,4.541
							c-0.135,1.175-0.061,3.597-0.066,4.517c-0.005,0.92-0.158,3.217-0.158,3.217l0.364,0.233l1.156-0.003l0.362-0.235
							c0,0-0.165-2.296-0.175-3.216C306.92,198.36,306.982,195.938,306.841,194.764z"/>
					</g>
					<g>
						<g>
							<path fill="#FEE76B" d="M306.845,194.74l-1.404,0.004c-0.136,1.182-0.061,3.619-0.066,4.544
								c-0.005,0.925-0.159,3.236-0.159,3.236l0.365,0.234l1.163-0.003l0.364-0.236c0,0-0.166-2.31-0.176-3.235
								C306.925,198.358,306.987,195.921,306.845,194.74z"/>
						</g>
					</g>
					<g>
						<path fill="#E6E7E7" d="M307.174,187.581l-1.508,0.004c-0.314,0.062-0.439,0.209-0.439,0.209
							c-0.558,0.33-1.014,0.091-1.141,0.009l0-0.02c0-0.082-0.071-0.149-0.157-0.149l-0.974,0.003c-0.087,0-0.157,0.067-0.157,0.15
							l0.003,1.252c0,0.082,0.071,0.149,0.158,0.149l0.974-0.002c0.087,0,0.157-0.067,0.157-0.15v-0.022
							c0.599-0.304,1.141-0.024,1.141-0.024l0.002,0.924c0.001,0.358,0.425,0.477,0.425,0.477l0.896-0.002
							c0.425-0.001,0.471-0.33,0.471-0.33l-0.001-0.298c-0.066-1.328,0.5-1.18,0.5-1.18c1.415,0.19,1.669,1.174,1.669,1.174
							l0.189-0.001C309.248,187.693,307.174,187.581,307.174,187.581z"/>
					</g>
				</g>
			</g>
			<g>
				<g>
					<g>
						<rect x="299.953" y="195.518" fill="#595A5C" width="0.501" height="0.721"/>
					</g>
				</g>
				<g>
					<g>
						<rect x="300.802" y="195.518" fill="#595A5C" width="0.501" height="0.721"/>
					</g>
				</g>
				<g>
					<g>
						<path fill="#EC6545" d="M300.468,195.885l-0.326,0.001h-0.306c0,0-0.045-0.03-0.094,0.217c0,0-0.815,3.21-0.815,4.593
							c0,0.928,0.01,2.183,0.365,3.111c0,0,0.138,0.356,0.415,0.247c0.276-0.109,0.237-0.45,0.207-0.637
							c-0.03-0.188-0.188-1.675-0.069-2.87c0,0-0.03-1.027,0.662-4.405C300.508,196.143,300.577,195.864,300.468,195.885z"/>
					</g>
				</g>
				<g>
					<g>
						<path fill="#EC6545" d="M301.382,195.886h-0.306l-0.326-0.001c-0.109-0.021-0.039,0.258-0.039,0.258
							c0.691,3.378,0.662,4.405,0.662,4.405c0.119,1.195-0.039,2.682-0.069,2.87c-0.029,0.187-0.069,0.528,0.207,0.637
							c0.277,0.108,0.415-0.247,0.415-0.247c0.356-0.928,0.366-2.183,0.366-3.111c0-1.383-0.815-4.593-0.815-4.593
							C301.427,195.856,301.382,195.886,301.382,195.886z"/>
					</g>
				</g>
				<g>
					<g>
						<path fill="#D2D3D4" d="M299.868,193.43l-0.057,0.671l0.227,0.047l0.558-0.227v-1.296c0,0-0.012-0.014-0.029-0.039
							c0.019-0.013,0.024-0.038,0.012-0.058l-0.004-0.005c-0.012-0.02-0.037-0.026-0.056-0.016
							c-0.009-0.016-0.018-0.034-0.026-0.053c0.021-0.008,0.033-0.032,0.025-0.053c-0.001-0.004-0.003-0.009-0.004-0.013
							c-0.007-0.022-0.031-0.035-0.054-0.027c-0.001,0-0.001,0.001-0.002,0.001c-0.006-0.019-0.011-0.039-0.015-0.059
							c0.001,0,0.003,0,0.004,0c0.023-0.003,0.04-0.024,0.038-0.047c-0.001-0.005-0.001-0.009-0.001-0.014
							c-0.002-0.023-0.023-0.041-0.046-0.038c-0.002,0-0.004,0.001-0.007,0.001c-0.001-0.009-0.001-0.019-0.001-0.028
							c0-0.011,0-0.023,0.001-0.034c0.002,0.001,0.004,0.001,0.007,0.001c0.002,0,0.003,0,0.005,0c0.021,0,0.04-0.016,0.042-0.038
							c0-0.005,0.001-0.009,0.001-0.014c0.003-0.024-0.013-0.045-0.037-0.048c-0.001,0-0.003,0-0.005,0
							c0.005-0.02,0.01-0.04,0.016-0.059c0.001,0,0.002,0.001,0.003,0.001c0.005,0.002,0.01,0.002,0.014,0.002
							c0.018,0,0.034-0.011,0.04-0.029c0.001-0.004,0.003-0.009,0.005-0.013c0.008-0.022-0.003-0.046-0.025-0.055
							c0.009-0.019,0.018-0.037,0.027-0.053c0.007,0.004,0.014,0.006,0.022,0.006c0.014,0,0.028-0.007,0.036-0.02l0.004-0.005
							c0.013-0.019,0.008-0.045-0.011-0.058c0.013-0.017,0.021-0.027,0.021-0.027v-0.634h-0.161L299.868,193.43z"/>
					</g>
					<g>
						<g>
							<polygon fill="#D2D3D4" points="300.735,195.17 300.735,195.596 300.878,195.742 301.398,195.501 301.398,194.82 
								301.247,194.735 							"/>
						</g>
					</g>
					<g>
						<g>
							<path fill="#D2D3D4" d="M299.897,194.799l-0.038,0.021v0.681l0.52,0.241l0.143-0.147v-0.31
								c-0.151-0.02-0.289-0.073-0.412-0.181C300.015,195.021,299.942,194.915,299.897,194.799z"/>
						</g>
					</g>
					<g>
						<path fill="#D2D3D4" d="M300.822,191.103h-0.161v0.634c0,0,0.009,0.01,0.023,0.029c-0.017,0.014-0.021,0.038-0.009,0.056
							l0.004,0.005c0.008,0.013,0.022,0.02,0.036,0.02c0.006,0,0.012-0.001,0.018-0.004c0.01,0.017,0.018,0.035,0.026,0.053
							c-0.018,0.01-0.027,0.032-0.02,0.052c0.002,0.004,0.003,0.009,0.005,0.013c0.006,0.017,0.022,0.029,0.04,0.029
							c0.003,0,0.006-0.001,0.008-0.001c0.005,0.019,0.01,0.038,0.014,0.058c-0.02,0.005-0.034,0.025-0.031,0.046
							c0.001,0.004,0.001,0.009,0.001,0.014c0.002,0.021,0.02,0.037,0.041,0.038c0.001,0.02,0.001,0.04,0.001,0.059
							c-0.021,0.001-0.039,0.017-0.04,0.038c-0.001,0.005-0.001,0.009-0.002,0.014c-0.002,0.021,0.012,0.041,0.032,0.046
							c-0.003,0.019-0.008,0.039-0.012,0.058c-0.02-0.004-0.041,0.008-0.048,0.029c-0.002,0.004-0.003,0.009-0.004,0.013
							c-0.007,0.02,0.002,0.042,0.021,0.052c-0.001,0.001-0.001,0.003-0.002,0.004c-0.008,0.018-0.016,0.034-0.024,0.049
							c-0.019-0.008-0.042-0.001-0.053,0.017l-0.004,0.006c-0.011,0.019-0.007,0.042,0.009,0.055
							c-0.018,0.026-0.031,0.041-0.031,0.041v1.1c0.019-0.001,0.038-0.001,0.058-0.001c0.271,0,0.504,0.169,0.632,0.397l0.095-0.02
							l-0.057-0.671L300.822,191.103z"/>
					</g>
					<g>
						<g>
							<path fill="#D2D3D4" d="M300.661,193.77c-0.004,0-0.008,0-0.012,0c-0.407,0-0.738,0.33-0.738,0.738
								c0,0.09,0.016,0.177,0.046,0.257c0.09,0.243,0.304,0.425,0.565,0.47c0.041,0.007,0.083,0.011,0.126,0.011
								c0.408,0,0.738-0.33,0.738-0.738c0-0.136-0.037-0.264-0.101-0.373C301.159,193.92,300.927,193.775,300.661,193.77z"/>
						</g>
					</g>
				</g>
			</g>
			<g>
				<path fill="#D2D3D4" d="M313.904,190.241c-0.071-0.358-0.74-1.173-0.887-1.259c-0.147-0.086-0.114,0-0.114,0
					s0.208,0.859,0.239,1.052c0.038,0.234-0.039,0.278-0.039,0.278s-0.381,0.397-0.987,0.258c-0.296-0.068-0.358-0.258-0.358-0.258
					l-0.229-0.787c-0.072-0.229-0.143-0.172-0.143-0.172c-0.086,0.3-0.163,0.758-0.143,1.102c0.012,0.207,0.003,0.443,0.321,0.753
					l-0.001,0c0,0,0.567,0.721,0.567,1.193c0,0.472,0,9.701,0,9.701s-0.097,1.002-0.37,1.7c-0.068,0.134-0.108,0.284-0.108,0.444
					c0,0.546,0.449,0.99,1.002,0.99c0.552,0,1.002-0.444,1.002-0.99c0-0.157-0.038-0.305-0.104-0.437
					c-0.32-0.859-0.373-1.707-0.373-1.707l-0.014-9.672c0,0,0.025-0.529,0.154-0.715c0.129-0.186,0.427-0.766,0.427-0.766l-0.001,0
					C313.86,190.734,313.947,190.456,313.904,190.241z M313.263,203.829c-0.041,0.026-0.057,0.08-0.034,0.124
					c0.005,0.01,0.01,0.02,0.015,0.03c0.016,0.034,0.05,0.055,0.086,0.055c0.01,0,0.02-0.003,0.03-0.007
					c0.019,0.061,0.032,0.125,0.034,0.191c-0.048,0-0.091,0.035-0.095,0.084c-0.001,0.011-0.002,0.022-0.004,0.033
					c-0.007,0.048,0.024,0.093,0.071,0.105c-0.018,0.063-0.044,0.123-0.078,0.178c-0.04-0.027-0.095-0.02-0.126,0.019
					c-0.007,0.009-0.014,0.017-0.022,0.025c-0.033,0.037-0.031,0.092,0.002,0.127c-0.049,0.042-0.103,0.079-0.162,0.107
					c-0.02-0.044-0.069-0.067-0.116-0.051c-0.01,0.004-0.021,0.007-0.032,0.01c-0.048,0.014-0.075,0.061-0.066,0.109
					c-0.037,0.006-0.075,0.011-0.114,0.011c-0.027,0-0.053-0.005-0.08-0.008c0.006-0.048-0.023-0.093-0.071-0.104
					c-0.011-0.003-0.022-0.006-0.033-0.009c-0.048-0.014-0.097,0.013-0.114,0.059c-0.06-0.026-0.115-0.062-0.165-0.102
					c0.031-0.037,0.03-0.092-0.004-0.127c-0.008-0.008-0.015-0.016-0.023-0.024c-0.033-0.038-0.089-0.042-0.129-0.012
					c-0.036-0.053-0.063-0.113-0.084-0.175c0.046-0.014,0.075-0.06,0.065-0.108c-0.002-0.011-0.004-0.022-0.006-0.033
					c-0.007-0.049-0.051-0.083-0.1-0.08c0-0.004-0.001-0.007-0.001-0.011c0-0.063,0.011-0.123,0.026-0.182
					c0.009,0.003,0.018,0.005,0.027,0.005c0.038,0,0.073-0.022,0.088-0.059c0.004-0.01,0.008-0.02,0.013-0.03
					c0.021-0.045,0.003-0.097-0.039-0.121c0.035-0.055,0.077-0.105,0.126-0.149c0.019,0.022,0.044,0.035,0.071,0.035
					c0.019,0,0.038-0.006,0.055-0.017c0.009-0.007,0.019-0.013,0.028-0.019c0.042-0.026,0.055-0.08,0.033-0.123
					c0.058-0.027,0.12-0.048,0.185-0.059c0.006,0.047,0.045,0.083,0.093,0.083c0.002,0,0.003,0,0.005,0
					c0.011-0.001,0.022-0.001,0.036-0.001l0.001-0.095v0.095c0.049,0,0.087-0.038,0.091-0.086c0.066,0.008,0.13,0.022,0.19,0.047
					c-0.021,0.045-0.006,0.098,0.038,0.123c0.01,0.006,0.019,0.011,0.029,0.017c0.016,0.01,0.034,0.015,0.051,0.015
					c0.028,0,0.055-0.014,0.073-0.038C313.179,203.73,313.226,203.776,313.263,203.829z"/>
			</g>
			<g>
				<path fill="#D2D3D4" d="M318.176,191.571c-0.083-0.413-0.855-1.356-1.025-1.454c-0.169-0.099-0.132,0-0.132,0
					s0.24,0.993,0.276,1.216c0.044,0.27-0.045,0.321-0.045,0.321s-0.441,0.459-1.141,0.298c-0.342-0.079-0.413-0.298-0.413-0.298
					l-0.265-0.909c-0.083-0.264-0.165-0.198-0.165-0.198c-0.099,0.347-0.189,0.876-0.165,1.273c0.014,0.239,0.003,0.512,0.371,0.87
					l-0.001,0c0,0,0.654,0.833,0.654,1.378s0,11.209,0,11.209s-0.112,1.158-0.427,1.965c-0.079,0.155-0.124,0.328-0.124,0.513
					c0,0.631,0.519,1.144,1.157,1.144c0.638,0,1.157-0.513,1.157-1.144c0-0.181-0.044-0.352-0.121-0.505
					c-0.37-0.993-0.431-1.973-0.431-1.973l-0.016-11.176c0,0,0.029-0.612,0.178-0.827c0.149-0.215,0.493-0.885,0.493-0.885l-0.001,0
					C318.125,192.141,318.226,191.82,318.176,191.571z M317.436,207.272c-0.048,0.031-0.066,0.092-0.039,0.143
					c0.006,0.011,0.012,0.023,0.017,0.035c0.019,0.04,0.058,0.063,0.1,0.063c0.012,0,0.024-0.004,0.035-0.008
					c0.022,0.071,0.037,0.144,0.04,0.221c-0.056,0-0.105,0.041-0.11,0.098c-0.001,0.013-0.003,0.026-0.005,0.039
					c-0.008,0.056,0.028,0.107,0.082,0.121c-0.021,0.073-0.051,0.142-0.09,0.205c-0.047-0.031-0.109-0.023-0.145,0.021
					c-0.008,0.01-0.016,0.02-0.025,0.029c-0.038,0.043-0.035,0.106,0.002,0.147c-0.056,0.049-0.119,0.091-0.187,0.124
					c-0.023-0.051-0.08-0.078-0.134-0.06c-0.012,0.004-0.024,0.008-0.037,0.012c-0.055,0.016-0.087,0.07-0.076,0.126
					c-0.044,0.007-0.087,0.013-0.132,0.013c-0.032,0-0.062-0.006-0.092-0.009c0.007-0.055-0.027-0.107-0.082-0.12
					c-0.013-0.003-0.025-0.006-0.038-0.01c-0.056-0.016-0.112,0.014-0.132,0.068c-0.07-0.03-0.133-0.071-0.191-0.117
					c0.036-0.043,0.035-0.106-0.005-0.146c-0.009-0.009-0.018-0.019-0.026-0.028c-0.038-0.043-0.103-0.048-0.149-0.013
					c-0.042-0.062-0.073-0.131-0.097-0.202c0.053-0.017,0.087-0.069,0.076-0.125c-0.002-0.012-0.005-0.025-0.007-0.038
					c-0.008-0.057-0.059-0.096-0.116-0.092c0-0.004-0.001-0.008-0.001-0.012c0-0.073,0.012-0.142,0.03-0.21
					c0.01,0.003,0.021,0.006,0.031,0.006c0.043,0,0.084-0.026,0.102-0.068c0.005-0.012,0.01-0.024,0.015-0.035
					c0.024-0.052,0.004-0.112-0.045-0.14c0.041-0.064,0.089-0.121,0.145-0.172c0.022,0.025,0.051,0.04,0.083,0.04
					c0.022,0,0.044-0.007,0.063-0.02c0.011-0.007,0.021-0.015,0.032-0.021c0.048-0.031,0.063-0.092,0.038-0.142
					c0.067-0.031,0.138-0.055,0.214-0.068c0.007,0.054,0.052,0.096,0.108,0.096c0.002,0,0.004,0,0.006,0
					c0.013-0.001,0.026-0.001,0.042-0.001l0.001-0.109v0.109c0.056,0,0.1-0.044,0.106-0.099c0.076,0.01,0.151,0.026,0.22,0.054
					c-0.025,0.051-0.007,0.114,0.044,0.142c0.011,0.006,0.022,0.013,0.033,0.02c0.018,0.012,0.039,0.017,0.059,0.017
					c0.033,0,0.063-0.016,0.085-0.044C317.339,207.157,317.393,207.21,317.436,207.272z"/>
			</g>
		</g>
		<g>
			<g>
				<path fill="#E1D4C9" d="M293.085,206.446c-0.004-0.067-0.008-0.132-0.012-0.194c-0.009-0.125-0.016-0.24-0.023-0.342
					c-0.009-0.103-0.023-0.193-0.043-0.265c-0.019-0.073-0.042-0.128-0.062-0.163c-0.01-0.018-0.019-0.031-0.025-0.039
					c-0.006-0.008-0.009-0.013-0.009-0.013l-0.007,0.005h-0.009h-0.105h-0.017h-0.123h-0.017h-0.034l0-0.001
					c-0.002-0.003-0.002-0.004-0.002-0.004l-0.007,0.005h-0.07h-0.017h-0.106h-0.017h-0.113h-0.018h-0.236l0-0.001
					c-0.002-0.003-0.002-0.004-0.002-0.004l-0.007,0.005h-0.026h-0.017h-0.104h-0.018h-0.079h-0.018h-0.07h-0.017h-0.044h-0.017
					h-0.122h-0.017h-0.061h-0.017h-0.079h-0.018h-0.114h-0.018h-0.052h-0.017h-0.087h-0.018h-0.096h-0.018h-0.112h-0.017h-0.03
					h-0.018h-0.031h-0.017h-0.03h-0.018h-0.112h-0.017h-0.096h-0.017h-0.088h-0.018h-0.053h-0.017h-0.114h-0.017h-0.079h-0.018
					h-0.061h-0.017h-0.123h-0.017h-0.044h-0.018h-0.07h-0.018h-0.079h-0.018h-0.104h-0.017h-0.026l-0.007-0.005
					c0,0-0.001,0.001-0.002,0.004l0,0.001h-0.236h-0.018h-0.113h-0.017h-0.106h-0.017h-0.07l-0.007-0.005
					c0,0-0.001,0.001-0.002,0.004l0,0.001h-0.034v0l-0.018,0h-0.122h-0.018h-0.105h-0.009l-0.007-0.005c0,0-0.003,0.005-0.009,0.013
					c-0.007,0.008-0.016,0.021-0.026,0.039c-0.02,0.035-0.044,0.09-0.062,0.163c-0.019,0.073-0.034,0.162-0.042,0.265
					c-0.007,0.102-0.014,0.216-0.023,0.342c-0.004,0.062-0.008,0.127-0.012,0.194c-0.001,0.017-0.002,0.034-0.002,0.051l-0.009,0.05
					v0.147c-0.006,0.131-0.01,0.267-0.013,0.409c-0.002,0.156-0.001,0.316,0.001,0.48c0.001,0.163,0.003,0.33,0.004,0.495
					c0.001,0.166,0.001,0.333,0.002,0.496c0.001,0.163,0.001,0.325-0.001,0.48c-0.001,0.156-0.002,0.307-0.002,0.45
					c0,0.143,0,0.278,0,0.403c0,0.499,0.001,0.831,0.001,0.831l0.017,0c0,0,0-0.008,0.001-0.021l0.086-0.182l0.087,0.182
					c0,0.012,0.001,0.02,0.001,0.02h0.018c0,0,0-0.009,0.001-0.022l0.052-0.119l0.052,0.12c0,0.013,0.001,0.021,0.001,0.021h0.009
					l0.009,0c0,0,0-0.01,0.001-0.013l0.087-0.119l0.034,0.104c0,0.017,0.001,0.028,0.001,0.028h0.017c0,0,0-0.006,0.001-0.017
					l0.043-0.08l0.07,0.086c0,0.005,0,0.011,0,0.011h0.017c0,0,0-0.006,0.001-0.016l0.078-0.134l0.026,0.108
					c0.001,0.025,0.001,0.041,0.001,0.041h0.018c0,0,0-0.009,0.001-0.023l0.051-0.126l0.061,0.13c0,0.012,0.001,0.02,0.001,0.02
					h0.009h0.009h0.045l0.018,0c0,0,0.001-0.021,0.003-0.059l0.085-0.432l0.122,0.455c0.001,0.021,0.001,0.036,0.001,0.036h0.018
					c0,0,0-0.007,0-0.018l0.051-0.096l0.052,0.097c0,0.011,0.001,0.017,0.001,0.017h0.009h0.009h0.079v0l0.017,0
					c0,0,0-0.013,0.001-0.031l0.034-0.11l0.033,0.08c0.001,0.039,0.002,0.061,0.002,0.061h0.018c0,0,0-0.02,0.001-0.03l0.043,0.025
					l0,0.005h0.017c0,0,0-0.006,0-0.01l0.07-0.078l0.052,0.075c0,0.008,0,0.013,0,0.013h0.009l0.079,0l0,0h0.009
					c0,0,0-0.014,0.001-0.034l0.034-0.124l0.043,0.129c0,0.017,0.001,0.029,0.001,0.029h0.017c0,0,0-0.005,0-0.007l0.111-0.089
					c0.002,0.06,0.003,0.096,0.003,0.096h0.009h0.009h0.052h0.009h0.009c0,0,0-0.006,0-0.014l0.083-0.126
					c0.002,0.089,0.004,0.139,0.004,0.139h0.017c0,0,0.001-0.021,0.002-0.059c0.006,0.031,0.016,0.059,0.033,0.059
					c0.033,0,0.052,0,0.061,0c0.003,0,0.009,0,0.009,0h0.009c0,0,0-0.008,0-0.02l0.061-0.13l0.05,0.126
					c0,0.014,0.001,0.024,0.001,0.024h0.009l0.144,0l0,0h0.009c0,0,0-0.006,0-0.011l0.068-0.086l0.043,0.08
					c0,0.011,0.001,0.017,0.001,0.017h0.017c0,0,0-0.005,0-0.009l0.061-0.062l0.035,0.056c0,0.01,0,0.015,0,0.015l0.018,0
					c0,0,0.001-0.049,0.004-0.136c0.006-0.033,0.015-0.061,0.031-0.057c0.025,0.005,0.041,0.067,0.051,0.12
					c0.001,0.046,0.002,0.073,0.002,0.073h0.009h0.009h0.052h0.009h0.009c0,0,0-0.014,0.001-0.034l0.069-0.238l0.042,0.219
					c0.001,0.034,0.001,0.053,0.001,0.053h0.009h0.009h0.079h0.009h0.009c0,0,0-0.006,0-0.013l0.058-0.084
					c0.002,0.061,0.003,0.098,0.003,0.098h0.017c0,0,0-0.005,0-0.009l0.07-0.071l0.052,0.068c0,0.006,0,0.012,0,0.012h0.009h0.009
					h0.044h0.009h0.009c0,0,0-0.008,0.001-0.021l0.034-0.076l0.035,0.077c0,0.012,0.001,0.02,0.001,0.02h0.009h0.009h0.079h0.009
					h0.009c0,0,0-0.005,0-0.008l0.061-0.054l0.043,0.051c0,0.005,0,0.011,0,0.011h0.017c0,0,0-0.004,0-0.005l0.123-0.066
					l0.087,0.064c0,0.002,0,0.007,0,0.007l0.017,0h0.044h0.009h0.009c0,0,0-0.005,0-0.008l0.07-0.063l0.042,0.058
					c0,0.007,0,0.013,0,0.013h0.018l0-0.004l0.07-0.032l0.035,0.028c0,0.002,0,0.007,0,0.007h0.018c0,0,0-0.004,0-0.005l0.07-0.039
					l0.044,0.037c0,0.002,0,0.008,0,0.008h0.017c0,0,0-0.006,0.001-0.017l0.035-0.063l0.087,0.072c0,0.001,0,0.008,0,0.008l0.009,0
					h0.009c0,0,0-0.005,0-0.007l0.061-0.046l0.044,0.044c0,0.004,0,0.009,0,0.009h0.017c0,0,0-0.004,0-0.006l0.087-0.056
					l0.087,0.056c0,0.002,0,0.006,0,0.006l0.009,0l0.009,0c0,0,0-0.333,0.001-0.831c0-0.125,0-0.26,0-0.403
					c-0.001-0.143-0.002-0.293-0.002-0.449c-0.002-0.156-0.002-0.317-0.001-0.481c0-0.163,0.001-0.33,0.001-0.496
					c0.001-0.166,0.002-0.332,0.004-0.496c0.002-0.164,0.003-0.324,0.001-0.48c-0.003-0.156-0.007-0.306-0.014-0.449
					C293.091,206.583,293.088,206.513,293.085,206.446z M288.402,205.562l-0.021,0.124c0.001-0.009,0-0.022,0.001-0.03
					c0.005-0.066,0.016-0.117,0.026-0.153C288.406,205.517,288.403,205.544,288.402,205.562z M292.935,205.663
					c-0.006-0.068-0.011-0.122-0.015-0.161c0.011,0.036,0.021,0.087,0.027,0.153c0.005,0.058,0.006,0.126,0.004,0.203
					C292.945,205.785,292.94,205.72,292.935,205.663z"/>
			</g>
			<g>
				<path fill="#D2D3D4" d="M293.061,204.959c0-0.054-0.039-0.092-0.088-0.108v-1.339c0-0.038-0.032-0.07-0.071-0.07l-4.476,0
					c-0.039,0-0.071,0.031-0.071,0.07l0,1.339c-0.049,0.016-0.088,0.054-0.088,0.108c0,0.054,0.039,0.092,0.088,0.108v0.214
					c-0.049,0.016-0.088,0.054-0.088,0.108c0,0.068,0.055,0.123,0.122,0.123h4.55c0.068,0,0.123-0.055,0.123-0.123
					c0-0.054-0.039-0.092-0.088-0.108v-0.214C293.022,205.051,293.061,205.013,293.061,204.959z"/>
			</g>
			<g>
				<g>
					<circle fill="#989FAC" cx="291.731" cy="203.861" r="0.21"/>
				</g>
				<g>
					<circle fill="#989FAC" cx="289.596" cy="203.861" r="0.21"/>
				</g>
			</g>
			<g>
				<g>
					<path fill="#65884C" d="M291.179,200.215c0.13-1.042,0.315-3.413,0.315-3.973c0-0.759-0.227-1.96-0.227-1.96
						s-0.071-0.245-0.593-0.245h-0.019c-0.522,0-0.593,0.245-0.593,0.245s-0.192,1.201-0.193,1.96c0,0.56,0.142,2.845,0.28,3.973
						c0.128,1.042-0.07,1.855-0.542,2.398c-0.472,0.542-1.33,0.613-1.33,0.613v0.252h2.378h0.019l2.378,0v-0.251
						c0,0-0.858-0.07-1.33-0.613C291.249,202.07,291.028,201.429,291.179,200.215z M290.664,195.811
						c-0.188,0-0.341-0.153-0.341-0.341c0-0.188,0.153-0.341,0.341-0.341c0.188,0,0.341,0.153,0.341,0.341
						C291.005,195.659,290.852,195.811,290.664,195.811z"/>
				</g>
			</g>
		</g>
		<g>
			<rect x="286.077" y="197.143" fill="#EACBA7" width="34.916" height="1.281"/>
		</g>
		<g>
			<ellipse fill="#D99814" cx="217.695" cy="278.888" rx="147.348" ry="1.214"/>
			<g>
				<circle fill="#8AACBD" cx="245.523" cy="277.903" r="1.155"/>
				<circle fill="#8AACBD" cx="255.35" cy="277.903" r="1.155"/>
				<circle fill="#8AACBD" cx="265.177" cy="277.903" r="1.155"/>
				<rect x="254.158" y="258.348" fill="#E6EBEE" width="2.362" height="9.767"/>
				<rect x="253.554" y="264.888" fill="#C3D4DD" width="3.625" height="11.44"/>
				<path fill="#FFFFFF" d="M253.559,273.435l-8.468,1.765c-0.536,0.156-0.804,0.402-0.804,0.715v1.162h2.379l6.894-0.758V273.435z"
					/>
				<path fill="#FFFFFF" d="M257.169,273.435l8.468,1.765c0.536,0.156,0.804,0.402,0.804,0.715v1.162h-2.379l-6.894-0.758V273.435z"
					/>
				<rect x="254.44" y="273.386" fill="#FFFFFF" width="1.804" height="3.689"/>
				<rect x="249.616" y="257.808" fill="#A7BDC9" width="11.392" height="1.726"/>
				<path fill="#FFFFFF" d="M268.947,220.642c-1.601-0.118-2.993,1.084-3.111,2.685l-2.135,29.081
					c-5.886,0-19.364-0.001-19.364-0.001c-1.609,0-2.91,1.301-2.91,2.906s1.301,2.906,2.906,2.906h22.064v-0.004
					c1.48,0.001,2.734-1.118,2.887-2.604l0.003,0c0,0,2.345-31.846,2.346-31.859C271.75,222.153,270.548,220.76,268.947,220.642z"/>
				<path fill="#E6EBEE" d="M268.89,221.393c-1.179-0.087-2.206,0.799-2.292,1.978l-2.187,29.765
					c-5.454-0.002-20.026-0.008-20.073-0.008c-1.183,0-2.141,0.959-2.141,2.141c0,1.182,0.958,2.141,2.141,2.141
					c0.013,0,22.102,0.006,22.102,0.006v-0.007c1.072-0.02,1.973-0.839,2.085-1.919l0.002,0c0,0,2.34-31.795,2.341-31.805
					C270.955,222.507,270.069,221.48,268.89,221.393z"/>
			</g>
			<g>
				<circle fill="#8AACBD" cx="142.927" cy="277.579" r="1.154"/>
				<circle fill="#8AACBD" cx="133.105" cy="277.579" r="1.154"/>
				<circle fill="#8AACBD" cx="123.284" cy="277.579" r="1.155"/>
				<rect x="131.936" y="258.035" fill="#E6EBEE" width="2.36" height="9.761"/>
				<rect x="131.277" y="264.572" fill="#C3D4DD" width="3.623" height="11.434"/>
				<path fill="#FFFFFF" d="M134.895,273.114l8.464,1.764c0.536,0.156,0.804,0.402,0.804,0.715v1.161h-2.378l-6.89-0.758V273.114z"
					/>
				<path fill="#FFFFFF" d="M131.287,273.114l-8.464,1.764c-0.536,0.156-0.804,0.402-0.804,0.715v1.161h2.378l6.89-0.758V273.114z"
					/>
				<rect x="132.211" y="273.065" fill="#FFFFFF" width="1.803" height="3.687"/>
				<rect x="127.45" y="257.496" fill="#A7BDC9" width="11.386" height="1.725"/>
				<polygon fill="#EB6479" points="134.242,200.164 139.643,204.89 135.727,204.89 136.943,213.937 123.98,213.937 126.68,197.193 
					133.567,197.193 				"/>
				<path fill="#243129" d="M132.144,204.102c0.075,0,0.149-0.007,0.22-0.02c0.703-0.127,1.354-0.864,1.227-1.877l-0.321,0.04
					c0.103,0.823-0.409,1.419-0.964,1.519c-0.486,0.088-1.096-0.193-1.347-1.248l-0.314,0.075
					C130.914,203.716,131.578,204.102,132.144,204.102z"/>
				<path fill="#243129" d="M134.526,211.476v-0.323c-1.501,0-3.439-0.834-4.236-2.43l-0.289,0.144
					C130.857,210.58,132.926,211.476,134.526,211.476z"/>
				<g>
					<path fill="#003E5A" d="M127.378,202.151c-0.686,0-1.242,0.556-1.242,1.242c0,0.357,0.152,0.676,0.393,0.903l-1.334,2.619
						l0.945-10.262h10.397l-2.295,3.511l-5.401-0.405l-1.231,2.416C127.535,202.16,127.458,202.151,127.378,202.151z"/>
				</g>
				<path fill="#8E2833" d="M160.55,275.58l-5.594-25.801c-0.367-2.297-1.464-2.611-3.008-2.923l-15.366-2.891
					c1.786-5.587,3.748-24.869,0.314-30.431l-12.956,0.409c-0.732,10.79,0.793,30.922,0.793,30.922
					c0.32,3.652-0.023,7.207,4.136,7.207h18.173c1.585,0,1.831,0.452,2.179,1.387l9.073,25.255h6.83L160.55,275.58z"/>
				<g>
					<path fill="#721B25" d="M136.286,235.673c-2.902,0.8-4.784,0.048-5.743-3.077l-4.211-12.377
						c-1.302-4.891,5.607-6.115,6.571-1.425l2.247,9.886c0.384,1.42,0.621,2.132,2.649,1.689l0.666-0.195
						c-0.074,1.669-0.195,3.314-0.356,4.871L136.286,235.673z"/>
				</g>
				<path fill="#FFFFFF" d="M119.516,220.35c1.6-0.118,2.992,1.084,3.11,2.683l2.134,29.065c5.883,0,19.353-0.001,19.353-0.001
					c1.608,0,2.908,1.3,2.908,2.904c0,1.604-1.3,2.904-2.904,2.904h-22.052v-0.004c-1.479,0.001-2.732-1.117-2.886-2.602l-0.003,0
					c0,0-2.344-31.828-2.345-31.841C116.714,221.86,117.916,220.468,119.516,220.35z"/>
				<path fill="#E6EBEE" d="M119.573,221.101c1.179-0.087,2.205,0.799,2.291,1.977l2.186,29.749
					c5.451-0.002,20.015-0.008,20.062-0.008c1.182,0,2.14,0.958,2.14,2.14c0,1.182-0.958,2.14-2.14,2.14
					c-0.013,0-22.09,0.006-22.09,0.006v-0.007c-1.071-0.02-1.972-0.838-2.084-1.918l-0.002,0c0,0-2.339-31.778-2.34-31.787
					C117.509,222.214,118.394,221.188,119.573,221.101z"/>
				<g>
					<g>
						<path fill="#EB6479" d="M153.246,228.622c0.892,0.283,1.957,1.116,1.193,1.273c-0.764,0.157-2.207-0.652-3.223-0.729
							C151.368,228.587,152.255,228.224,153.246,228.622z"/>
						<path fill="#EB6479" d="M153.936,226.89c0.793-0.531,2.729,0.154,4.136,1.443c0.65,0.641,0.03,1.023-0.591,0.707
							c-0.621-0.316-2.101-1.342-3.618-1.189L153.936,226.89z"/>
						<path fill="#EB6479" d="M149.155,226.717c2.178-0.372,5.317-0.67,6.366,0.377s1.302,3.377,0.373,3.575
							c-0.929,0.198,0.13-1.324-1.105-2.41c-0.185-0.162-0.314-0.18-0.803-0.11c-0.489,0.07-2.309,1.446-4.746,1.691
							L149.155,226.717z"/>
					</g>
					<path fill="#8E2833" d="M133.095,217.758c-0.889-4.411-7.621-3.356-6.361,1.379l4.077,11.982
						c0.928,3.024,2.75,3.753,5.559,2.978l13.624-4.28l-0.713-3.27l-11.448,2.416c-1.963,0.429-2.192-0.26-2.564-1.635
						L133.095,217.758z"/>
				</g>
				<path fill="#00547A" d="M160.55,275.58l-5.594-25.801c-0.367-2.297-1.464-2.611-3.008-2.923l-15.366-2.891l-11.849,0.901
					c0.32,3.652-0.023,7.207,4.136,7.207h18.173c1.585,0,1.831,0.452,2.179,1.387l9.073,25.255h6.83L160.55,275.58z"/>
			</g>
			<g>
				<g>
					<path fill="#FFFFFF" d="M188.884,232.61c0.903,0,1.354-0.632,1.354-1.264v-1.58H170.18v1.58c0,0.632,0.451,1.264,1.354,1.264
						H188.884z"/>
					<rect x="170.401" y="228.829" fill="#FFFFFF" width="19.642" height="0.433"/>
					<rect x="170.149" y="228.107" fill="#FFFFFF" width="19.642" height="0.433"/>
					<rect x="170.438" y="227.349" fill="#FFFFFF" width="19.642" height="0.433"/>
					<rect x="169.824" y="226.555" fill="#FFFFFF" width="19.642" height="0.433"/>
					<rect x="170.474" y="225.724" fill="#FFFFFF" width="19.642" height="0.433"/>
				</g>
				<g>
					<path fill="#C3D4DD" d="M175.24,230.67c0,0.172-0.062,0.39-0.39,0.39h-10.901v1.551h13.061c0.792,0,0.962-0.339,0.962-0.849
						l-1.603-20.304c-0.028-0.467-0.32-0.849-0.962-0.849h-2.163v1.551h1.606c0.327,0,0.39,0.218,0.39,0.39V230.67z"/>
					<polygon fill="#C3D4DD" points="172.48,222.173 173.668,220.726 173.668,200.679 172.48,199.232 					"/>
					<rect x="169.918" y="197.176" fill="#E6EBEE" width="2.697" height="26.523"/>
				</g>
				<polygon fill="#FFFFFF" points="164.32,232.615 164.32,230.025 150.256,231.434 150.256,232.615 				"/>
				<g>
					<rect x="186.951" y="234.056" fill="#D8E2E7" width="3.261" height="44.628"/>
					<rect x="188.486" y="234.056" fill="#F1F2F2" width="0.841" height="44.628"/>
				</g>
				<g>
					<rect x="146.841" y="234.056" fill="#D8E2E7" width="3.261" height="44.628"/>
					<rect x="148.52" y="234.056" fill="#F1F2F2" width="0.841" height="44.628"/>
				</g>
				<rect x="143.443" y="232.613" fill="#E6EBEE" width="50.58" height="2.369"/>
			</g>
			<g>
				<g>
					<path fill="#FFFFFF" d="M199.987,232.61c-0.903,0-1.354-0.632-1.354-1.264v-1.58h20.058v1.58c0,0.632-0.451,1.264-1.354,1.264
						H199.987z"/>
					<rect x="198.827" y="228.829" fill="#FFFFFF" width="19.642" height="0.433"/>
					<rect x="199.079" y="228.107" fill="#FFFFFF" width="19.642" height="0.433"/>
					<rect x="198.791" y="227.349" fill="#FFFFFF" width="19.642" height="0.433"/>
					<rect x="199.404" y="226.555" fill="#FFFFFF" width="19.642" height="0.433"/>
					<rect x="198.754" y="225.724" fill="#FFFFFF" width="19.642" height="0.433"/>
				</g>
				<g>
					<path fill="#C3D4DD" d="M213.654,230.67c0,0.172,0.062,0.39,0.39,0.39h10.901v1.551h-13.061c-0.792,0-0.962-0.339-0.962-0.849
						l1.603-20.304c0.028-0.467,0.32-0.849,0.962-0.849h2.163v1.551h-1.606c-0.327,0-0.39,0.218-0.39,0.39V230.67z"/>
					<polygon fill="#C3D4DD" points="216.415,222.173 215.226,220.726 215.226,200.679 216.415,199.232 					"/>
					<rect x="216.279" y="197.176" fill="#E6EBEE" width="2.697" height="26.523"/>
				</g>
				<polygon fill="#FFFFFF" points="224.551,232.615 224.551,230.025 238.615,231.434 238.615,232.615 				"/>
				<g>
					<rect x="198.658" y="234.056" fill="#D8E2E7" width="3.261" height="44.628"/>
					<rect x="199.543" y="234.056" fill="#F1F2F2" width="0.841" height="44.628"/>
				</g>
				<g>
					<rect x="239.069" y="234.056" fill="#D8E2E7" width="3.261" height="44.628"/>
					<rect x="239.81" y="234.056" fill="#F1F2F2" width="0.841" height="44.628"/>
				</g>
				<rect x="194.847" y="232.613" fill="#E6EBEE" width="50.881" height="2.369"/>
			</g>
			<g>
				<g>
					<path fill="#EB6479" d="M237.92,230.368c-0.534,0.117-1.198,0.546-0.762,0.678c0.437,0.132,1.319-0.262,1.914-0.253
						C239.015,230.447,238.518,230.189,237.92,230.368z"/>
					<path fill="#EB6479" d="M237.61,229.323c-0.433-0.351-1.596-0.055-2.483,0.621c-0.412,0.338-0.103,0.53,0.276,0.379
						c0.378-0.151,1.325-0.606,2.2-0.436L237.61,229.323z"/>
					<path fill="#EB6479" d="M240.565,229.641c-1.368-0.407-3.222-0.837-3.888-0.283c-0.666,0.554-1.349,1.674-0.968,1.822
						c0.259,0.101,0.419-0.587,1.195-1.153c0.116-0.085,0.384-0.133,0.656,0.011c0.255,0.135,1.222,0.981,2.627,1.252
						L240.565,229.641z"/>
				</g>
				<path fill="#6F6598" d="M255.418,221.729c-0.556,1.352-3.02,8.685-3.02,8.685c-0.377,1.067-0.824,1.157-1.788,1.043
					l-10.24-2.065l-0.349,1.85l10.782,2.783c2.314,0.596,3.335-0.077,4.224-2.224l3.465-9.192
					C259.282,220.686,256.316,219.175,255.418,221.729z"/>
				<g>
					<path fill="#EB6479" d="M245.382,247.132l-8.448,2.276c-1.881,0.601-2.977,1.861-2.452,3.912l6.143,24.269h1.666l-4.793-23.042
						c-0.227-0.997,0.283-1.484,1.22-1.524l8.238-0.194L245.382,247.132z"/>
					<g>
						<polygon fill="#EB6479" points="238.363,280.161 242.828,280.161 242.115,276.633 240.384,276.633 240.455,276.954 						"/>
					</g>
				</g>
				<path fill="#EB6479" d="M244.224,247.132l-8.448,2.276c-1.79,0.524-3.018,1.57-3.194,3.912l-2.105,24.269h1.666l3.455-23.042
					c0.239-1.339,1.024-1.484,1.961-1.524l8.238-0.194L244.224,247.132z"/>
				<g>
					<polygon fill="#243129" points="227.7,280.161 231.908,280.161 232.281,276.633 230.546,276.66 230.525,276.897 					"/>
				</g>
				<g>
					<polygon fill="#243129" points="238.305,280.161 242.828,280.161 242.33,277.13 240.455,276.954 					"/>
				</g>
				<path fill="#EB6479" d="M261.841,198.499c-5.734-0.687-9.769,1.032-10.998,5.521c0,0-0.513,3.401-2.177,3.957l2.003-0.039
					c0.521,2.352,2.17,4.295,4.146,5.896c3.53,2.859,1.609,3.815,1.503,5.37l3.904-1.523c0,0-0.391-3.026,3.859-6.505
					C268.267,207.811,267.554,199.557,261.841,198.499z"/>
				<path fill="#243129" d="M255.602,207.763c-0.318-0.045-0.631-0.186-0.896-0.412c-0.492-0.419-0.713-1.05-0.593-1.687
					l0.322,0.061c-0.1,0.528,0.077,1.029,0.484,1.376c0.381,0.325,0.878,0.433,1.297,0.283c0.473-0.17,0.803-0.658,0.929-1.374
					l0.323,0.057c-0.147,0.837-0.552,1.414-1.141,1.626C256.095,207.776,255.847,207.798,255.602,207.763z"/>
				<path fill="#243129" d="M255.945,213.046c-0.362-0.052-0.714-0.232-0.987-0.522l0.239-0.225c0.349,0.371,0.855,0.522,1.29,0.384
					c0.332-0.105,0.549-0.357,0.597-0.69l0.324,0.046c-0.065,0.457-0.372,0.814-0.822,0.957
					C256.379,213.061,256.16,213.076,255.945,213.046z"/>
				<path fill="#6F6598" d="M252.554,242.368c0.21-10.196,0.967-18.036,3.98-23.911h3.946c1.128,10.578,2.197,14.069,2.197,23.713
					c0,8.438-2.417,10.694-7.285,10.694c-4.63,0-15.614,0.135-15.614,0.135l-3.61-3.695l15.226-5.094
					C252.237,243.939,252.554,243.304,252.554,242.368z"/>
				<g>
					<path fill="#FFFFFF" d="M253.417,229.628c0.72-3.128,2.843-8.726,3.667-9.594l0.668-0.712l-1.265-0.901
						C254.99,221.34,253.868,224.92,253.417,229.628z"/>
				</g>
				<polygon fill="#FFFFFF" points="256.497,218.417 257.53,221.192 260.93,218.749 260.299,217.338 				"/>
				<g>
					<path fill="#4B436A" d="M253.837,235.782c2.72,0.556,4.054-0.58,4.593-2.841l1.969-9.624c0.478-2.023-2.691-3.047-3.174-0.384
						c-0.336,1.423-1.62,9.101-1.62,9.101c-0.204,1.113-0.641,1.376-1.591,1.265l-1.024-0.1c-0.067,0.789-0.125,1.597-0.176,2.423
						L253.837,235.782z"/>
				</g>
				<g>
					<path fill="#003E5A" d="M266.09,214.404c6.515-4.987,5.793-19.349-6.673-18.087c-7.464,0.841-7.469,5.011-9.189,4.041
						c1.18,3.238,7.175,4.694,9.661,3.044c0.599,0.607,0.924,1.396,1.084,2.294c0.169-0.028,0.342-0.039,0.52-0.013
						c0.944,0.134,1.6,1.009,1.466,1.952c-0.134,0.941-1.004,1.596-1.945,1.466c-1.221,4.992-1.45,13.126,5.607,9.803
						C264.902,219.042,262.336,217.278,266.09,214.404z"/>
				</g>
				<g>
					<path fill="#EB6479" d="M239.549,230.347c-0.534,0.117-1.198,0.546-0.762,0.678c0.437,0.132,1.319-0.262,1.914-0.253
						C240.644,230.426,240.147,230.168,239.549,230.347z"/>
					<path fill="#EB6479" d="M239.239,229.302c-0.433-0.351-1.596-0.055-2.483,0.621c-0.412,0.338-0.071,0.594,0.307,0.443
						c0.378-0.151,1.294-0.67,2.168-0.5L239.239,229.302z"/>
					<path fill="#EB6479" d="M242.194,229.62c-1.368-0.407-3.222-0.837-3.888-0.283c-0.666,0.554-0.936,1.897-0.406,2.061
						c0.53,0.164-0.006-0.778,0.771-1.344c0.116-0.085,0.192-0.088,0.473-0.021c0.281,0.067,1.267,0.964,2.673,1.235L242.194,229.62
						z"/>
				</g>
				<path fill="#6F6598" d="M257.274,222.521c-0.556,1.352-3.037,8.731-3.037,8.731c-0.377,1.067-0.85,1.257-1.77,0.998
					l-10.305-2.697l-0.594,1.761l10.331,3.36c2.598,0.979,4.095,0.067,4.984-2.08l3.465-9.192
					C261.139,221.479,258.172,219.968,257.274,222.521z"/>
			</g>
		</g>
		<polygon points="160.55,275.58 157.554,276.656 158.293,278.713 165.123,278.713 		"/>
	</g>
</g>
<g>
	<path fill="#806550" d="M55.964,92.402C55.965,92.402,55.965,92.402,55.964,92.402C55.948,92.421,55.947,92.421,55.964,92.402z"/>
	<g>
		<g>
			<path fill="#D81F26" d="M57.606,87.817c0.188-0.537,0.64-3.063,1.283-2.537c-0.409-1.371,0.249-2.364,0.714-1.933
				c-0.288-0.564-0.308-2.492,0.295-2.448c-0.506-0.417-0.143-2.344,0.561-2.105c0.327,0.111,1,0.587,1.486,1.412
				c3.342,5.354,2.549,10.355,2.23,11.887c-2.553,0.311-6.742,0.004-9.306-0.65C54.649,91.61,56.829,90.032,57.606,87.817z"/>
			<path fill="#9A1C1F" d="M57.606,87.816c0.188-0.537,0.64-3.063,1.283-2.537c-0.409-1.371,0.249-2.364,0.714-1.933
				c-0.288-0.564-0.308-2.492,0.295-2.448c-0.506-0.417-0.143-2.344,0.561-2.105c0.327,0.111,1,0.587,1.486,1.412
				c-1.123-0.501-1.343,0.472-0.953,1.896c-0.661-0.509-0.903,1.158-0.453,2.072c-0.719-0.441-1.308,0.565-1.022,1.936
				c-1.198-1.083-0.726,4.055-3.359,5.61c-0.46-0.083-0.893-0.176-1.288-0.276C55.06,91.296,56.905,89.816,57.606,87.816z"/>
		</g>
	</g>
	<g>
		<path fill="#0D192E" d="M58.484,97.115c-0.219-0.431-0.876-0.621-1.358-0.853c-0.224-0.108-0.926-0.628-1.096-0.79
			c-0.215-0.205-0.174-0.422-0.101-0.669c0.054-0.184-0.49-0.272-0.588-0.11c-0.556,0.925,1.101,1.591,1.726,1.923
			c0.283,0.15,0.487,0.344,0.592,0.591c-2.056,0.951,0.347,1.049,0.856,0.688C58.73,97.744,58.574,97.291,58.484,97.115z"/>
		<g>
			<g>
				<path fill="#CC2027" d="M69.557,88.576c0,0-3.646-3.694-4.33-4.187c-0.94-0.678-0.526,0.231-0.607,1.143
					c-0.144,1.618-1.711,1.922,0.318,1.598C66.729,86.844,69.557,88.576,69.557,88.576z"/>
				<path fill="#E91D2C" d="M44.165,88.248c1.068,0.508,4.823,2.303,7.076,2.057c2.166-0.24,3.532-0.815,5.54-1.185
					c1.501-0.277,4.776-1.029,6.129-1.615c2.997-1.299,6.712-0.142,7.776,2.829c-0.393,3.008-5.309,7.219-10.829,7.219
					c-4.846,0-7.581-2.98-9.676-5.313c-2.601-1.837-5.964-1.428-8.22-1.89C40.309,90.013,43.088,87.735,44.165,88.248z"/>
				<path fill="#BC202D" d="M44.165,88.248c1.068,0.508,4.823,2.303,7.076,2.057c1.059-0.117,1.927-0.315,2.772-0.529
					c-1.514,0.882-2.13,0.985-0.245,3.793c0.724,1.079,2.462,2.58,3.511,3.678c-3.3-0.819-5.408-3.123-7.1-5.006
					c-2.601-1.837-5.964-1.428-8.22-1.89C40.309,90.013,43.088,87.735,44.165,88.248z"/>
				<path fill="#EE3044" d="M59.856,97.553c-4.846,0-7.581-2.98-9.676-5.313c-2.601-1.837-5.964-1.428-8.22-1.89
					c-0.469-0.096-0.58-0.348-0.475-0.649c0.456,1.059,5.233,0.316,7.924,1.726c1.918,1.005,3.209,1.966,6.428,1.966
					c8.515,0,8.323-2.562,11.147-3.148c0.899-0.187,3.694,0.141,3.694,0.141l0,0C70.233,93.391,65.344,97.553,59.856,97.553z"/>
				<path fill="#120B0A" d="M68.696,91.991c-0.718-0.496-3.077-1.235-1.898-2.376c0.221-0.214,1.043-0.786,2.765-1.043
					c0.487,0.485,0.875,1.074,1.121,1.761c-0.134,1.025-0.793,2.189-1.822,3.279C69.051,92.953,69.153,92.307,68.696,91.991z"/>
			</g>
			<g>
				<g>
					<polygon fill="#EE3728" points="70.175,89.335 72.625,90.303 70.276,91.616 70.126,90.448 					"/>
					<polygon fill="#E62925" points="72.625,90.303 70.276,91.616 70.126,90.448 					"/>
				</g>
				<g>
					<ellipse fill="#FBDCE9" cx="68.246" cy="90.083" rx="0.601" ry="0.585"/>
					<ellipse fill="#1A0C0D" cx="68.292" cy="90.092" rx="0.5" ry="0.472"/>
					<circle fill="#FFF8F8" cx="68.17" cy="89.985" r="0.122"/>
				</g>
				<path fill="#0D192E" d="M56.318,97.371c-0.229-0.449-0.894-0.888-1.33-1.113c-0.203-0.105-0.839-0.659-1.001-0.824
					c-0.204-0.208-0.19-0.441-0.152-0.708c0.029-0.198-0.457-0.273-0.514-0.091c-0.333,1.052,1.083,1.677,1.651,2.003
					c0.257,0.148,0.451,0.345,0.565,0.604c-2.054,0.81-0.271,1.339,0.582,0.886C56.336,98.012,56.412,97.554,56.318,97.371z"/>
			</g>
		</g>
	</g>
	<g>
		<path fill="#AB1F23" d="M52.174,90.906c-1.285-0.976-1.549-3.245-0.453-2.893c-0.71-1.101-0.942-4.453,0.188-3.688
			c-0.5-2.23,0.577-3.424,1.083-2.834c-0.023-1.002,0.58-1.932,0.899-2.167c0.706-0.522,1.862-0.722,2.008,0.495
			c1.092,6.89,8.194,10.691,9.293,11.185c-3.188,2.551-8.352,3.06-11.67,2.167C52.262,93.03,50.524,90.751,52.174,90.906z"/>
		<path fill="#EF5262" d="M65.192,91.004c-1.099-0.494-8.201-4.295-9.293-11.185c-0.165-1.042-0.992-0.786-1.675-0.247
			c-0.307,0.243-1.029,1.37-0.992,2.387c-0.503-0.592-1.506,0.502-0.986,2.757c-1.115-0.76-0.729,2.595-0.02,3.702
			c-1.076-0.342-0.884,1.71,0.385,2.681c-1.615-0.134-0.308,1.743,0.91,2.071C56.84,94.064,62.004,93.556,65.192,91.004z"/>
	</g>
</g>
</svg>
