<?xml version="1.0" encoding="utf-8"?>
<!-- Generator: Adobe Illustrator 17.0.0, SVG Export Plug-In . SVG Version: 6.00 Build 0)  -->
<!DOCTYPE svg PUBLIC "-//W3C//DTD SVG 1.1//EN" "http://www.w3.org/Graphics/SVG/1.1/DTD/svg11.dtd">
<svg version="1.1" id="Layer_1" xmlns="http://www.w3.org/2000/svg" xmlns:xlink="http://www.w3.org/1999/xlink" x="0px" y="0px"
	 width="430px" height="654px" viewBox="0 0 430 654" enable-background="new 0 0 430 654" xml:space="preserve">
<rect x="0.24" y="0.063" fill="#34BFC2" width="429.521" height="654"/>
<rect y="285.835" fill="#B4A680" width="430" height="368.857"/>
<ellipse fill="#908667" cx="292.599" cy="287.743" rx="38.985" ry="2.992"/>
<ellipse fill="#908667" cx="132.02" cy="287.743" rx="24.02" ry="2.992"/>
<g>
	<g>
		<g>
			<g>
				<path fill="#DB5C1E" d="M261.49,227.472l-1.189-1.148c-1.532-1.193-4.231-2.861-4.809-2.162
					c-0.577,0.699,1.051,1.313,2.049,1.877c-1.985-0.344-5.191-1.27-5.137-0.074c0.054,1.197,0.76,3.564,2.549,3.557
					c1.789-0.007,4.181-0.45,4.997-0.46l1.669-0.426L261.49,227.472z"/>
				<path fill="#002B44" d="M294.742,213.162c-4.187,9.551-10.58,16.379-34.441,13.161l-0.35,2.74
					c12.625,3.641,32.289,3.931,41.051-13.426C303.049,211.451,296.516,209.086,294.742,213.162z"/>
			</g>
			<polygon fill="#003F5C" points="301.033,251.75 296.197,278.994 316.958,277.94 318.108,286.623 313.394,281.299 
				290.648,286.959 290.46,252.856 297.127,246.588 			"/>
			<polygon fill="#003F5C" points="293.806,256.722 269.486,259.334 274.15,286.832 264.285,286.879 269.771,282.944 
				261.484,255.256 285.726,248.553 289.754,250.087 			"/>
			<g>
				<polygon fill="#EB6479" points="300.493,189.868 290.635,191.945 295.429,194.634 287.032,207.021 303.6,213.777 
					311.791,191.423 303.36,186.695 				"/>
				<g>
					<path fill="#003F5C" d="M307.532,197.014c0.84,0.471,1.139,1.534,0.668,2.374c-0.245,0.437-0.651,0.723-1.101,0.835
						l-0.165,4.123l5.89-13.213l-12.729-7.14l0.4,5.874l6.891,3.213l-0.152,3.803C307.334,196.918,307.435,196.96,307.532,197.014z"
						/>
				</g>
			</g>
			<path fill="#003F5C" d="M287.032,207.021c-4.699,8.268-7.467,33.67-1.91,47.209l15.911-2.507
				c0.881-18.581,0.664-24.088,3.302-39.995L287.032,207.021z"/>
			
				<rect x="299.29" y="192.71" transform="matrix(0.1079 0.9942 -0.9942 0.1079 461.2357 -123.7446)" fill="#002B44" width="0.552" height="4.818"/>
			<g>
				<path fill="#223129" d="M299.901,203.145l-0.219-0.384c-1.783,1.018-4.65,1.342-6.679-0.011l-0.245,0.368
					C294.936,204.57,298,204.231,299.901,203.145z"/>
			</g>
		</g>
		<g>
			<g>
				<path fill="#DB5C1E" d="M160.709,226.121l0.463-0.517c1.382-0.828,3.217-2.385,3.689-1.62c0.19,0.349-0.357,1.005-1.201,1.489
					c1.675,0.025,4.224-0.502,4.155,0.78c-0.069,1.283-1.198,2.542-2.639,2.497c-1.441-0.045-3.165-0.077-3.889-0.207l-1.383-0.806
					l0.125-1.616L160.709,226.121z"/>
				<path fill="#002B44" d="M131.673,196.03c5.135,14.398,6.75,31.456,29.5,29.574l0.127,2.95
					c-18.102,1.726-30.213-6.071-34.769-29.151C125.884,195.285,131.016,194.118,131.673,196.03z"/>
			</g>
			<polygon fill="#003F5C" points="120.828,239.647 139.042,256.706 137.016,286.785 146.558,286.785 140.932,282.527 
				147.378,255.041 130.326,237.153 126.419,236.914 			"/>
			<polygon fill="#003F5C" points="112.42,238.371 125.319,256.58 118.251,286.785 129.389,286.785 122.959,282.538 133.343,255.31 
				121.614,235.248 117.451,234.901 			"/>
			<g>
				<polygon fill="#EB6479" points="132.813,193.487 130.388,182.847 133.698,180.757 122.813,171.608 110.907,177.556 
					121.934,198.611 				"/>
				<g>
					<path fill="#003F5C" d="M110.072,176.851l7.66,13.811l1.737-0.852l-0.456-3.253c-0.985,0.166-2.003-0.317-2.473-1.257
						c-0.575-1.152-0.108-2.551,1.043-3.127c0.253-0.126,0.517-0.199,0.782-0.229l-0.422-3.006c3.163-0.682,8.376-3.736,6.364-8.121
						L110.072,176.851z"/>
				</g>
			</g>
			<path fill="#003F5C" d="M120.969,196.749l11.888-3.29c0,0,5.66,16.881,2.21,47.115l-24.743-0.595
				C113.93,220.092,116.825,207.826,120.969,196.749z"/>
			
				<rect x="123.171" y="178.341" transform="matrix(0.0824 0.9966 -0.9966 0.0824 293.2101 42.6461)" fill="#002B44" width="0.552" height="4.405"/>
			<g>
				<path fill="#223129" d="M129.594,189.839l-0.192-0.335c-1.558,0.89-4.062,1.172-5.834-0.01l-0.214,0.321
					C125.256,191.083,127.933,190.787,129.594,189.839z"/>
			</g>
		</g>
		<g>
			<path fill="#EB6479" d="M185.758,119.071c1.487,0.979,3.293,0.601,4.464-0.92l7.387-8.995l1.632,8.802
				c0,0.566,0.844,1.716,1.919,1.716h18.781c1.168,0,1.869-0.883,2.079-2.077l1.512-12.998l-2.71-7.045
				c-0.452-1.897-0.903-2.619-0.903-5.058V82.47h-21.226v11.829c0,0.813-0.184,2.126-1.286,3.7l-12.569,16.608
				C183.783,116.068,184.271,118.093,185.758,119.071z"/>
			<path fill="#FFFFFF" d="M193.424,134.677h-6.503v-19.841c0-3.802,3.093-6.895,6.895-6.895h31.974
				c3.802,0,6.895,3.093,6.895,6.895v19.694h-6.503v-19.694c0-0.216-0.176-0.392-0.392-0.392h-31.974
				c-0.216,0-0.392,0.176-0.392,0.392V134.677z"/>
			<g>
				<path fill="#DB5C1E" d="M199.242,117.958c0,0.566,0.844,1.716,1.919,1.716h1.938c0.152-0.39,0.243-0.811,0.243-1.254v-13.556
					c0-1.919-1.556-3.475-3.475-3.475c-1.919,0-3.475,1.556-3.475,3.475v6.144l1.219-1.851L199.242,117.958z"/>
				<path fill="#DB5C1E" d="M211.034,106.467c0-1.919-1.556-3.475-3.475-3.475c-1.919,0-3.475,1.556-3.475,3.475v13.208h6.95
					V106.467z"/>
				<path fill="#DB5C1E" d="M222.02,117.597l1.512-12.998l-1.129-2.936c-1.578,0.209-2.801,1.545-2.801,3.18v12.573
					c0,0.845,0.333,1.608,0.865,2.183C221.319,119.372,221.844,118.598,222.02,117.597z"/>
				<path fill="#DB5C1E" d="M218.794,106.467c0-1.919-1.556-3.475-3.475-3.475c-1.919,0-3.475,1.556-3.475,3.475v13.208h6.95
					V106.467z"/>
			</g>
			<path fill="#FFFFFF" d="M208.52,134.616h-37.459c-7.01,0-10.734,3.505-12.486,8.762l-23.877,84.337h73.822h73.822l-23.877-84.337
				c-1.752-5.257-5.476-8.762-12.486-8.762H208.52z"/>
			<rect x="197.34" y="78.511" fill="#FFFFFF" width="24.106" height="6.181"/>
			<rect x="193.636" y="1.064" fill="#003F5C" width="31.432" height="79.509"/>
			<rect x="216.745" y="1.064" fill="#002B44" width="8.323" height="79.509"/>
			<g>
				<path fill="#EB6479" d="M195.398,106.4c0-1.919,1.556-3.475,3.475-3.475c1.919,0,3.475,1.556,3.475,3.475v13.556
					c0,1.919-1.556,3.475-3.475,3.475c-1.919,0-3.475-1.556-3.475-3.475V106.4z"/>
				<path fill="#EB6479" d="M203.091,108.003c0-1.919,1.556-3.475,3.475-3.475c1.919,0,3.475,1.556,3.475,3.475v13.556
					c0,1.919-1.556,3.475-3.475,3.475c-1.919,0-3.475-1.556-3.475-3.475V108.003z"/>
				<path fill="#EB6479" d="M210.85,108.003c0-1.919,1.556-3.475,3.475-3.475c1.919,0,3.475,1.556,3.475,3.475v13.556
					c0,1.919-1.556,3.475-3.475,3.475c-1.919,0-3.475-1.556-3.475-3.475V108.003z"/>
				<path fill="#EB6479" d="M218.609,106.379c0-1.78,1.443-3.223,3.223-3.223c1.78,0,3.223,1.443,3.223,3.223v12.573
					c0,1.78-1.443,3.223-3.223,3.223c-1.78,0-3.223-1.443-3.223-3.223V106.379z"/>
			</g>
			<g>
				<path fill="#D8E2E7" d="M258.465,143.379c-1.752-5.257-5.476-8.762-12.486-8.762H208.52v93.099h73.822L258.465,143.379z"/>
			</g>
		</g>
		<g>
			<g>
				<g>
					<path fill="#002B44" d="M124.94,203.042c-0.635-4.595-5.908-4.706-6.1,1.353c1.863,17.156,8.581,24.755,17.009,27.375
						c0.123-1.933,0.208-3.796,0.261-5.591C128.091,221.564,125.616,211.712,124.94,203.042z"/>
				</g>
				<polygon fill="#FFFFFF" points="133.016,195.103 127.55,196.802 130.469,200.092 127.704,228.509 131.033,233.267 
					134.258,227.871 132.061,199.668 				"/>
				<g>
					<path fill="#939598" d="M134.016,224.76c-2.268-1.788-3.997-4.056-5.305-6.597l-0.867,8.905
						c1.493,1.438,3.118,2.568,4.843,3.432l1.571-2.628L134.016,224.76z"/>
				</g>
			</g>
			<g>
				<g>
					<path fill="#EB6479" d="M156.439,227.439l0.963-1c1.149-1.221,4.062-3.67,4.809-2.784c0.578,0.573-1.422,1.718-2.25,2.502
						c0.705,0.695,3.357,0.207,4.922-0.19c1.411,0.038,1.219,1.432-0.325,2.376c-1.544,0.943-3.206,1.31-6.419,1.423l-2.099-0.285
						L156.439,227.439z"/>
					<path fill="#003F5C" d="M125.808,201.848c1.071,13.725,6.633,30.429,31.594,24.59l0.738,3.327
						c-16.362,4.236-35.11,4.02-38.432-26.564C119.901,197.143,125.173,197.253,125.808,201.848z"/>
				</g>
			</g>
		</g>
		<g>
			<g>
				<path fill="#002B44" d="M296.635,215.593c-3.134,8.623-7.461,12.773-14.444,13.791c-0.09,1.591-0.141,3.196-0.147,4.802
					c8.915-0.035,16.273-3.631,21.242-15.921c0.029-0.077,0.05-0.152,0.075-0.228c0.092-0.648,0.188-1.31,0.291-1.993
					C303.397,212.282,298.184,211.347,296.635,215.593z"/>
			</g>
			<polygon fill="#FFFFFF" points="287.074,209.043 292.599,210.264 289.811,214.198 289.889,240.825 286.453,246.081 
				283.318,241.102 288.09,213.883 			"/>
			<g>
				<g>
					<path fill="#939598" d="M285.511,228.593l-0.961,5.48c1.851-0.164,3.625-0.518,5.316-1.108l-0.02-6.743
						C288.548,227.258,287.112,228.041,285.511,228.593z"/>
				</g>
				<g>
					<path fill="#EB6479" d="M264.646,226.89l-0.812-0.978c-1.896-1.372-5.259-3.879-6.007-2.862
						c-0.571,0.807,2.583,1.758,2.5,2.271c-0.294,0.868-2.278,1.094-5.543,0.968c-1.976-0.16-1.585,2.13,0.1,2.235
						c2.411,0.151,3.734,0.246,8.245,1.039l1.549-0.714L264.646,226.89z"/>
					<path fill="#003F5C" d="M303.044,216.576c-8.127,20.101-22.636,16.963-39.914,12.987l0.703-3.651
						c18.755,4.331,27.32,2.409,32.56-12.007C298.214,208.915,305.099,211.078,303.044,216.576z"/>
				</g>
			</g>
		</g>
	</g>
	<g>
		<path fill="#727D84" d="M159.418,195.559v-18.085h4.394v14.279h6.999v3.806H159.418z"/>
		<path fill="#727D84" d="M172.854,195.559v-18.085h12.159v3.679h-7.944v3.423h7.51v3.499h-7.51v3.755h8.404v3.729H172.854z"/>
		<path fill="#727D84" d="M201.324,195.584c-1.184,0.289-2.474,0.434-3.87,0.434c-1.448,0-2.78-0.23-3.998-0.69
			c-1.218-0.46-2.265-1.107-3.142-1.941c-0.877-0.834-1.563-1.835-2.056-3.001c-0.494-1.166-0.741-2.465-0.741-3.895
			c0-1.447,0.251-2.759,0.754-3.934c0.502-1.175,1.196-2.175,2.082-3.001c0.885-0.826,1.924-1.46,3.116-1.903
			c1.192-0.443,2.478-0.664,3.857-0.664c1.431,0,2.759,0.217,3.985,0.651c1.226,0.434,2.222,1.018,2.989,1.75l-2.759,3.142
			c-0.426-0.494-0.988-0.898-1.686-1.214c-0.699-0.315-1.491-0.473-2.376-0.473c-0.766,0-1.473,0.141-2.12,0.422
			c-0.647,0.281-1.209,0.673-1.686,1.175c-0.477,0.503-0.847,1.098-1.111,1.788c-0.264,0.69-0.396,1.443-0.396,2.261
			c0,0.834,0.119,1.601,0.358,2.299c0.238,0.698,0.592,1.299,1.06,1.801c0.468,0.503,1.047,0.894,1.737,1.175
			c0.69,0.281,1.477,0.422,2.363,0.422c0.511,0,0.996-0.038,1.456-0.115c0.46-0.076,0.885-0.2,1.277-0.37v-3.295h-3.449v-3.525
			h7.459v9.579C203.542,194.92,202.507,195.295,201.324,195.584z"/>
		<path fill="#727D84" d="M220.265,195.559l-1.405-3.551h-6.999l-1.328,3.551h-4.751l7.587-18.085h4.24l7.51,18.085H220.265z
			 M215.411,182.301l-2.299,6.207h4.547L215.411,182.301z"/>
		<path fill="#727D84" d="M239.116,195.24c-1.175,0.536-2.529,0.804-4.062,0.804c-1.396,0-2.686-0.23-3.87-0.69
			c-1.184-0.46-2.21-1.111-3.078-1.954c-0.868-0.843-1.55-1.852-2.043-3.027c-0.494-1.175-0.741-2.469-0.741-3.882
			c0-1.447,0.251-2.759,0.754-3.934c0.502-1.175,1.196-2.175,2.082-3.001c0.885-0.826,1.924-1.46,3.116-1.903
			c1.192-0.443,2.478-0.664,3.857-0.664c1.277,0,2.533,0.226,3.768,0.677c1.235,0.451,2.235,1.111,3.001,1.98l-2.963,2.963
			c-0.409-0.562-0.945-0.979-1.609-1.251c-0.664-0.273-1.345-0.409-2.043-0.409c-0.766,0-1.469,0.14-2.107,0.422
			c-0.638,0.281-1.188,0.668-1.647,1.162c-0.46,0.494-0.818,1.077-1.073,1.749c-0.256,0.673-0.383,1.41-0.383,2.21
			c0,0.817,0.128,1.567,0.383,2.248c0.255,0.681,0.609,1.264,1.06,1.75c0.451,0.485,0.992,0.864,1.622,1.137
			c0.63,0.273,1.319,0.409,2.069,0.409c0.868,0,1.626-0.17,2.273-0.511c0.647-0.34,1.166-0.783,1.558-1.328l3.04,2.861
			C241.278,193.975,240.291,194.703,239.116,195.24z"/>
		<path fill="#727D84" d="M252.425,187.895v7.663h-4.368v-7.663l-6.795-10.422h5.288l3.857,6.693l3.857-6.693h5.109L252.425,187.895
			z"/>
	</g>
</g>
</svg>
