<?xml version="1.0" encoding="utf-8"?>
<!-- Generator: Adobe Illustrator 21.1.0, SVG Export Plug-In . SVG Version: 6.00 Build 0)  -->
<!DOCTYPE svg PUBLIC "-//W3C//DTD SVG 1.1//EN" "http://www.w3.org/Graphics/SVG/1.1/DTD/svg11.dtd">
<svg version="1.1" id="Layer_1" xmlns="http://www.w3.org/2000/svg" xmlns:xlink="http://www.w3.org/1999/xlink" x="0px" y="0px"
	 viewBox="0 0 286 286" style="enable-background:new 0 0 286 286;" xml:space="preserve">
<style type="text/css">
	.st0{clip-path:url(#SVGID_2_);fill:#4298B5;}
	.st1{clip-path:url(#SVGID_2_);}
	.st2{fill:#DB5C1E;}
	.st3{fill:#002B44;}
	.st4{fill:#003F5C;}
	.st5{fill:#EB6479;}
	.st6{fill:#223129;}
	.st7{fill:#FFFFFF;}
	.st8{fill:#D55A6E;}
	.st9{fill:#D8E2E7;}
	.st10{fill:#939598;}
	.st11{fill:#727D84;}
	.st12{fill:#4298B5;}
	.st13{fill:#E4D5B4;}
	.st14{fill:#CEBFA3;}
	.st15{fill:#EDE0C6;}
	.st16{fill:#3D302D;}
	.st17{fill:#D6C6A6;}
	.st18{fill:#C6B597;}
	.st19{fill:#826754;}
	.st20{fill:#91CEC4;}
	.st21{fill:#D3A98C;}
	.st22{fill:#AD886F;}
	.st23{fill:#896D59;}
	.st24{fill:#EA7442;}
	.st25{fill:#D15F36;}
	.st26{fill:#003E5A;}
	.st27{fill:#243129;}
	.st28{fill:#4077A2;}
	.st29{fill:#0F3644;}
	.st30{fill:#6C707A;}
	.st31{fill:url(#SVGID_3_);}
	.st32{fill:#8AACBD;}
	.st33{fill:#E6EBEE;}
	.st34{fill:#C3D4DD;}
	.st35{fill:#F37029;}
	.st36{fill:#004B6B;}
	.st37{fill:#282829;}
	.st38{fill:#BACAD3;}
	.st39{fill:#9EB3BE;}
	.st40{fill:#27688F;}
	.st41{fill:#005376;}
	.st42{fill:#2B75A2;}
	.st43{fill:#AFC6D2;}
	.st44{fill:url(#SVGID_4_);}
	.st45{fill:#E9E8D8;}
	.st46{fill:#818277;}
	.st47{fill:#63665D;}
	.st48{fill:#B4B39A;}
	.st49{fill:url(#SVGID_5_);}
	.st50{fill:url(#SVGID_6_);}
	.st51{fill:url(#SVGID_7_);}
	.st52{fill:url(#SVGID_8_);}
	.st53{fill:url(#SVGID_9_);}
	.st54{fill:url(#SVGID_10_);}
	.st55{fill:#FFC20E;}
	.st56{fill:#916600;}
	.st57{fill:#A7BDC9;}
	.st58{fill:#8E2833;}
	.st59{fill:#721B25;}
	.st60{fill:#00547A;}
	.st61{fill:#F1F2F2;}
	.st62{fill:#6F6598;}
	.st63{fill:#4B436A;}
	.st64{fill:#F27129;}
	.st65{fill:#A57406;}
	.st66{fill:url(#SVGID_11_);}
	.st67{fill:url(#SVGID_12_);}
	.st68{fill:url(#SVGID_13_);}
	.st69{fill:url(#SVGID_14_);}
	.st70{fill:url(#SVGID_15_);}
	.st71{fill:url(#SVGID_16_);}
	.st72{fill:url(#SVGID_17_);}
	.st73{fill:url(#SVGID_18_);}
	.st74{fill:url(#SVGID_19_);}
	.st75{fill:url(#SVGID_20_);}
	.st76{fill:url(#SVGID_21_);}
	.st77{fill:url(#SVGID_22_);}
	.st78{fill:url(#SVGID_23_);}
	.st79{fill:url(#SVGID_24_);}
	.st80{fill:url(#SVGID_25_);}
	.st81{fill:url(#SVGID_26_);}
	.st82{fill:url(#SVGID_27_);}
	.st83{fill:url(#SVGID_28_);}
	.st84{fill:url(#SVGID_29_);}
	.st85{fill:url(#SVGID_30_);}
	.st86{fill:url(#SVGID_31_);}
	.st87{fill:url(#SVGID_32_);}
	.st88{fill:url(#SVGID_33_);}
	.st89{fill:url(#SVGID_34_);}
	.st90{fill:url(#SVGID_35_);}
	.st91{fill:url(#SVGID_36_);}
	.st92{fill:url(#SVGID_37_);}
	.st93{fill:url(#SVGID_38_);}
	.st94{fill:url(#SVGID_39_);}
	.st95{fill:url(#SVGID_40_);}
	.st96{fill:url(#SVGID_41_);}
	.st97{fill:url(#SVGID_42_);}
	.st98{fill:url(#SVGID_43_);}
	.st99{fill:url(#SVGID_44_);}
	.st100{fill:url(#SVGID_45_);}
	.st101{fill:url(#SVGID_46_);}
	.st102{fill:#F9F1D7;}
	.st103{fill:#6E7980;stroke:#58595B;stroke-width:0.4225;stroke-linecap:round;stroke-linejoin:round;}
	.st104{fill:#DF9CB0;}
	.st105{fill:#C37A8C;}
	.st106{fill:#C29F60;}
	.st107{fill:#FFFFFF;stroke:#D0ECF4;stroke-width:0.4225;}
	.st108{fill:url(#SVGID_47_);}
	.st109{fill:url(#SVGID_48_);}
	.st110{fill:url(#SVGID_49_);stroke:#FFFFFF;stroke-width:2.1123;}
	.st111{fill:#9F2214;}
	.st112{fill:url(#SVGID_50_);stroke:#FFFFFF;stroke-width:2.1123;}
	.st113{fill:#4A7195;}
	.st114{fill:#C13D2E;}
	.st115{fill:#7989A3;stroke:#FFFFFF;stroke-width:2.1123;}
	.st116{fill:#FFCF01;}
	.st117{fill:url(#SVGID_51_);stroke:#FFFFFF;stroke-width:2.1123;}
	.st118{fill:url(#SVGID_52_);stroke:#FFFFFF;stroke-width:2.1123;}
	.st119{fill:url(#SVGID_53_);stroke:#FFFFFF;stroke-width:2.1123;}
	.st120{fill:#876041;}
	.st121{fill:#DAC895;stroke:#F7E8BA;stroke-width:0.4225;}
	.st122{fill:#4B545B;}
	.st123{fill:#3E6D93;}
	.st124{fill:#476F93;}
	.st125{fill:#CAB47E;}
	.st126{fill:#F7E8BA;}
	.st127{fill:#C2A171;}
	.st128{fill:#D0ECF4;}
	.st129{fill:#EFE4AC;}
	.st130{fill:#5980A2;}
	.st131{fill:#17738F;}
	.st132{fill:#B1D45E;}
	.st133{fill:#8CC540;stroke:#221F1F;stroke-width:0.2168;stroke-linejoin:round;stroke-miterlimit:10;}
	.st134{fill:#58595B;}
	.st135{fill:#797A7D;}
	.st136{fill:#BF86A8;}
	.st137{fill:#302B2C;}
	.st138{fill:#48484A;}
	.st139{fill:#72A087;}
	.st140{fill:#94B0BE;}
	.st141{fill:#09723B;}
	.st142{fill:#00A14B;}
	.st143{fill:#004766;}
	.st144{fill:#00354F;}
	.st145{fill:#005B80;}
	.st146{fill:#002F3E;}
	.st147{fill:#3F4450;}
	.st148{fill:#2A6A7F;}
	.st149{fill:url(#SVGID_54_);}
	.st150{fill:#2C3038;}
	.st151{fill:#CACFD1;}
	.st152{fill:#343943;}
	.st153{fill:#27667A;}
	.st154{fill:none;stroke:#243129;stroke-width:0.3823;stroke-miterlimit:10;}
	.st155{fill:#333333;}
	.st156{fill:#E5E8DD;}
	.st157{fill:#767877;}
	.st158{fill:#545554;}
	.st159{fill:#F8E1C7;}
	.st160{fill:#5A5048;}
	.st161{fill:#604373;}
	.st162{fill:none;}
	.st163{fill:#9DB9C8;}
	.st164{fill:#235F83;}
	.st165{fill:#CF473A;}
	.st166{fill:#B4A680;}
	.st167{fill:url(#SVGID_55_);}
	.st168{fill:url(#SVGID_56_);}
	.st169{fill:url(#SVGID_57_);}
	.st170{fill:url(#SVGID_58_);}
	.st171{fill:url(#SVGID_59_);}
	.st172{fill:url(#SVGID_60_);}
	.st173{fill:url(#SVGID_61_);}
	.st174{fill:url(#SVGID_62_);}
	.st175{fill:url(#SVGID_63_);}
	.st176{fill:url(#SVGID_64_);}
	.st177{fill:url(#SVGID_65_);}
	.st178{fill:url(#SVGID_66_);}
	.st179{fill:url(#SVGID_67_);}
	.st180{fill:url(#SVGID_68_);}
	.st181{fill:url(#SVGID_69_);}
	.st182{fill:url(#SVGID_70_);}
	.st183{fill:url(#SVGID_71_);}
	.st184{fill:url(#SVGID_72_);}
	.st185{fill:url(#SVGID_73_);}
	.st186{fill:url(#SVGID_74_);}
	.st187{fill:url(#SVGID_75_);}
	.st188{fill:url(#SVGID_76_);}
	.st189{fill:url(#SVGID_77_);}
	.st190{fill:url(#SVGID_78_);}
	.st191{fill:url(#SVGID_79_);}
	.st192{fill:url(#SVGID_80_);}
	.st193{fill:url(#SVGID_81_);}
	.st194{fill:url(#SVGID_82_);}
	.st195{fill:url(#SVGID_83_);}
	.st196{fill:url(#SVGID_84_);}
	.st197{fill:url(#SVGID_85_);}
	.st198{fill:url(#SVGID_86_);}
	.st199{fill:url(#SVGID_87_);}
	.st200{fill:url(#SVGID_88_);}
	.st201{fill:url(#SVGID_89_);}
	.st202{fill:url(#SVGID_90_);}
	.st203{fill:url(#SVGID_91_);}
	.st204{fill:url(#SVGID_92_);}
	.st205{fill:url(#SVGID_93_);}
	.st206{fill:url(#SVGID_94_);}
	.st207{fill:url(#SVGID_95_);}
	.st208{fill:url(#SVGID_96_);}
	.st209{fill:url(#SVGID_97_);}
	.st210{fill:url(#SVGID_98_);}
	.st211{fill:url(#SVGID_99_);}
	.st212{fill:url(#SVGID_100_);}
	.st213{fill:url(#SVGID_101_);}
	.st214{fill:url(#SVGID_102_);}
	.st215{fill:url(#SVGID_103_);}
	.st216{fill:url(#SVGID_104_);}
	.st217{fill:url(#SVGID_105_);}
	.st218{fill:url(#SVGID_106_);}
	.st219{fill:url(#SVGID_107_);}
	.st220{fill:url(#SVGID_108_);}
	.st221{fill:url(#SVGID_109_);}
	.st222{fill:url(#SVGID_110_);}
	.st223{fill:url(#SVGID_111_);}
	.st224{fill:url(#SVGID_112_);}
	.st225{fill:url(#SVGID_113_);}
	.st226{fill:url(#SVGID_114_);}
	.st227{fill:url(#SVGID_115_);}
	.st228{fill:url(#SVGID_116_);}
	.st229{fill:url(#SVGID_117_);}
	.st230{fill:url(#SVGID_118_);}
	.st231{fill:url(#SVGID_119_);}
	.st232{fill:url(#SVGID_120_);}
	.st233{fill:url(#SVGID_121_);}
	.st234{fill:url(#SVGID_122_);}
	.st235{fill:#F7D9A8;}
	.st236{fill:#EE93B9;}
</style>
<g>
	<defs>
		<circle id="SVGID_1_" cx="143" cy="143" r="143"/>
	</defs>
	<clipPath id="SVGID_2_">
		<use xlink:href="#SVGID_1_"  style="overflow:visible;"/>
	</clipPath>
	<circle class="st0" cx="143" cy="143" r="143"/>
	<g class="st1">
		<g>
			<g>
				<g>
					<path class="st2" d="M173.5,138.4l-0.7-0.7c-0.9-0.7-2.6-1.7-2.9-1.3c-0.4,0.4,0.6,0.8,1.2,1.1c-1.2-0.2-3.2-0.8-3.1,0
						c0,0.7,0.5,2.2,1.6,2.2c1.1,0,2.5-0.3,3-0.3l1-0.3L173.5,138.4z"/>
					<path class="st3" d="M193.7,129.7c-2.6,5.8-6.4,10-21,8l-0.2,1.7c7.7,2.2,19.7,2.4,25-8.2C198.8,128.6,194.8,127.2,193.7,129.7
						z"/>
				</g>
				<polygon class="st4" points="197.6,153.2 194.6,169.8 207.3,169.1 208,174.4 205.1,171.2 191.2,174.6 191.1,153.8 195.2,150 
									"/>
				<polygon class="st4" points="193.2,156.2 178.3,157.8 181.2,174.5 175.2,174.6 178.5,172.2 173.5,155.3 188.2,151.2 
					190.7,152.1 				"/>
				<g>
					<polygon class="st5" points="197.2,115.5 191.2,116.7 194.1,118.4 189,125.9 199.1,130 204.1,116.4 199,113.5 					"/>
					<g>
						<path class="st4" d="M201.5,119.8c0.5,0.3,0.7,0.9,0.4,1.4c-0.1,0.3-0.4,0.4-0.7,0.5l-0.1,2.5l3.6-8l-7.8-4.3l0.2,3.6l4.2,2
							l-0.1,2.3C201.4,119.8,201.5,119.8,201.5,119.8z"/>
					</g>
				</g>
				<path class="st4" d="M189,125.9c-2.9,5-4.5,20.5-1.2,28.8l9.7-1.5c0.5-11.3,0.4-14.7,2-24.4L189,125.9z"/>
				
					<rect x="195.2" y="118.5" transform="matrix(0.9942 -0.1079 0.1079 0.9942 -11.6514 21.9041)" class="st3" width="2.9" height="0.3"/>
				<g>
					<path class="st6" d="M196.9,123.6l-0.1-0.2c-1.1,0.6-2.8,0.8-4.1,0l-0.1,0.2C193.8,124.4,195.7,124.2,196.9,123.6z"/>
				</g>
			</g>
			<g>
				<g>
					<path class="st2" d="M112.1,137.5l0.3-0.3c0.8-0.5,2-1.5,2.2-1c0.1,0.2-0.2,0.6-0.7,0.9c1,0,2.6-0.3,2.5,0.5
						c0,0.8-0.7,1.5-1.6,1.5c-0.9,0-1.9,0-2.4-0.1l-0.8-0.5l0.1-1L112.1,137.5z"/>
					<path class="st3" d="M94.4,119.2c3.1,8.8,4.1,19.2,18,18l0.1,1.8c-11,1.1-18.4-3.7-21.2-17.8C90.9,118.8,94,118.1,94.4,119.2z"
						/>
				</g>
				<polygon class="st4" points="87.8,145.8 98.9,156.2 97.7,174.5 103.5,174.5 100,171.9 104,155.2 93.6,144.3 91.2,144.1 				"/>
				<polygon class="st4" points="82.7,145 90.5,156.1 86.2,174.5 93,174.5 89.1,171.9 95.4,155.3 88.3,143.1 85.7,142.9 				"/>
				<g>
					<polygon class="st5" points="95.1,117.7 93.6,111.2 95.6,109.9 89,104.3 81.8,108 88.5,120.8 					"/>
					<g>
						<path class="st4" d="M81.2,107.5l4.7,8.4l1.1-0.5l-0.3-2c-0.6,0.1-1.2-0.2-1.5-0.8c-0.4-0.7-0.1-1.6,0.6-1.9
							c0.2-0.1,0.3-0.1,0.5-0.1l-0.3-1.8c1.9-0.4,5.1-2.3,3.9-4.9L81.2,107.5z"/>
					</g>
				</g>
				<path class="st4" d="M87.9,119.7l7.2-2c0,0,3.4,10.3,1.3,28.7L81.4,146C83.6,133.9,85.4,126.4,87.9,119.7z"/>
				
					<rect x="88.1" y="109.6" transform="matrix(0.9966 -8.236068e-02 8.236068e-02 0.9966 -8.7383 7.7355)" class="st3" width="2.7" height="0.3"/>
				<g>
					<path class="st6" d="M93.1,115.4l-0.1-0.2c-0.9,0.5-2.5,0.7-3.6,0l-0.1,0.2C90.5,116.2,92.1,116,93.1,115.4z"/>
				</g>
			</g>
			<g>
				<path class="st5" d="M127.3,72.3c0.9,0.6,2,0.4,2.7-0.6l4.5-5.5l1,5.4c0,0.3,0.5,1,1.2,1h11.4c0.7,0,1.1-0.5,1.3-1.3l0.9-7.9
					l-1.7-4.3c-0.3-1.2-0.6-1.6-0.6-3.1V50h-12.9v7.2c0,0.5-0.1,1.3-0.8,2.3l-7.7,10.1C126.1,70.5,126.4,71.7,127.3,72.3z"/>
				<path class="st7" d="M132,81.8h-4V69.8c0-2.3,1.9-4.2,4.2-4.2h19.5c2.3,0,4.2,1.9,4.2,4.2v12h-4v-12c0-0.1-0.1-0.2-0.2-0.2
					h-19.5c-0.1,0-0.2,0.1-0.2,0.2V81.8z"/>
				<g>
					<path class="st8" d="M135.6,71.7c0,0.3,0.5,1,1.2,1h1.2c0.1-0.2,0.1-0.5,0.1-0.8v-8.3c0-1.2-0.9-2.1-2.1-2.1
						c-1.2,0-2.1,0.9-2.1,2.1v3.7l0.7-1.1L135.6,71.7z"/>
					<path class="st8" d="M142.7,64.7c0-1.2-0.9-2.1-2.1-2.1c-1.2,0-2.1,0.9-2.1,2.1v8h4.2V64.7z"/>
					<path class="st8" d="M149.4,71.4l0.9-7.9l-0.7-1.8c-1,0.1-1.7,0.9-1.7,1.9v7.7c0,0.5,0.2,1,0.5,1.3
						C149,72.5,149.3,72.1,149.4,71.4z"/>
					<path class="st8" d="M147.5,64.7c0-1.2-0.9-2.1-2.1-2.1c-1.2,0-2.1,0.9-2.1,2.1v8h4.2V64.7z"/>
				</g>
				<path class="st7" d="M141.2,81.8h-22.8c-4.3,0-6.5,2.1-7.6,5.3l-14.5,51.4h45h45l-14.5-51.4c-1.1-3.2-3.3-5.3-7.6-5.3H141.2z"/>
				<rect x="134.4" y="47.6" class="st7" width="14.7" height="3.8"/>
				<rect x="132.1" y="-0.5" class="st4" width="19.1" height="49.4"/>
				<rect x="146.2" y="0.5" class="st3" width="5.1" height="48.4"/>
				<g>
					<path class="st5" d="M133.2,64.6c0-1.2,0.9-2.1,2.1-2.1s2.1,0.9,2.1,2.1v8.3c0,1.2-0.9,2.1-2.1,2.1s-2.1-0.9-2.1-2.1V64.6z"/>
					<path class="st5" d="M137.9,65.6c0-1.2,0.9-2.1,2.1-2.1c1.2,0,2.1,0.9,2.1,2.1v8.3c0,1.2-0.9,2.1-2.1,2.1
						c-1.2,0-2.1-0.9-2.1-2.1V65.6z"/>
					<path class="st5" d="M142.6,65.6c0-1.2,0.9-2.1,2.1-2.1c1.2,0,2.1,0.9,2.1,2.1v8.3c0,1.2-0.9,2.1-2.1,2.1
						c-1.2,0-2.1-0.9-2.1-2.1V65.6z"/>
					<path class="st5" d="M147.4,64.6c0-1.1,0.9-2,2-2c1.1,0,2,0.9,2,2v7.7c0,1.1-0.9,2-2,2c-1.1,0-2-0.9-2-2V64.6z"/>
				</g>
				<g>
					<path class="st9" d="M171.6,87.1c-1.1-3.2-3.3-5.3-7.6-5.3h-22.8v56.7h45L171.6,87.1z"/>
				</g>
			</g>
			<g>
				<g>
					<g>
						<path class="st3" d="M90.3,123.5c-0.4-2.8-3.6-2.9-3.7,0.8c1.1,10.4,5.2,15.1,10.4,16.7c0.1-1.2,0.1-2.3,0.2-3.4
							C92.2,134.8,90.7,128.8,90.3,123.5z"/>
					</g>
					<polygon class="st7" points="95.2,118.7 91.9,119.7 93.7,121.7 92,139 94,141.9 96,138.6 94.6,121.4 					"/>
					<g>
						<path class="st10" d="M95.8,136.7c-1.4-1.1-2.4-2.5-3.2-4l-0.5,5.4c0.9,0.9,1.9,1.6,3,2.1l1-1.6L95.8,136.7z"/>
					</g>
				</g>
				<g>
					<g>
						<path class="st5" d="M109.5,138.4l0.6-0.6c0.7-0.7,2.5-2.2,2.9-1.7c0.4,0.3-0.9,1-1.4,1.5c0.4,0.4,2,0.1,3-0.1
							c0.9,0,0.7,0.9-0.2,1.4c-0.9,0.6-2,0.8-3.9,0.9l-1.3-0.2L109.5,138.4z"/>
						<path class="st4" d="M90.8,122.8c0.7,8.4,4,18.5,19.2,15l0.4,2c-10,2.6-21.4,2.4-23.4-16.2C87.2,119.9,90.4,120,90.8,122.8z"
							/>
					</g>
				</g>
			</g>
			<g>
				<g>
					<path class="st3" d="M194.9,131.1c-1.9,5.3-4.5,7.8-8.8,8.4c-0.1,1-0.1,1.9-0.1,2.9c5.4,0,9.9-2.2,12.9-9.7c0,0,0-0.1,0-0.1
						c0.1-0.4,0.1-0.8,0.2-1.2C199,129.1,195.8,128.5,194.9,131.1z"/>
				</g>
				<polygon class="st7" points="189.1,127.1 192.4,127.9 190.7,130.3 190.8,146.5 188.7,149.7 186.8,146.7 189.7,130.1 				"/>
				<g>
					<g>
						<path class="st10" d="M188.1,139.1l-0.6,3.3c1.1-0.1,2.2-0.3,3.2-0.7l0-4.1C190,138.2,189.1,138.7,188.1,139.1z"/>
					</g>
					<g>
						<path class="st5" d="M175.4,138l-0.5-0.6c-1.2-0.8-3.2-2.4-3.7-1.7c-0.3,0.5,1.6,1.1,1.5,1.4c-0.2,0.5-1.4,0.7-3.4,0.6
							c-1.2-0.1-1,1.3,0.1,1.4c1.5,0.1,2.3,0.1,5,0.6l0.9-0.4L175.4,138z"/>
						<path class="st4" d="M198.8,131.7c-5,12.2-13.8,10.3-24.3,7.9l0.4-2.2c11.4,2.6,16.6,1.5,19.8-7.3
							C195.8,127.1,200,128.4,198.8,131.7z"/>
					</g>
				</g>
			</g>
		</g>
		<g>
			<path class="st11" d="M111.3,118.9v-11h2.7v8.7h4.3v2.3H111.3z"/>
			<path class="st11" d="M119.5,118.9v-11h7.4v2.2h-4.8v2.1h4.6v2.1h-4.6v2.3h5.1v2.3H119.5z"/>
			<path class="st11" d="M136.8,118.9c-0.7,0.2-1.5,0.3-2.4,0.3c-0.9,0-1.7-0.1-2.4-0.4c-0.7-0.3-1.4-0.7-1.9-1.2
				c-0.5-0.5-1-1.1-1.3-1.8c-0.3-0.7-0.5-1.5-0.5-2.4c0-0.9,0.2-1.7,0.5-2.4c0.3-0.7,0.7-1.3,1.3-1.8c0.5-0.5,1.2-0.9,1.9-1.2
				c0.7-0.3,1.5-0.4,2.3-0.4c0.9,0,1.7,0.1,2.4,0.4c0.7,0.3,1.4,0.6,1.8,1.1L137,111c-0.3-0.3-0.6-0.5-1-0.7
				c-0.4-0.2-0.9-0.3-1.4-0.3c-0.5,0-0.9,0.1-1.3,0.3c-0.4,0.2-0.7,0.4-1,0.7c-0.3,0.3-0.5,0.7-0.7,1.1c-0.2,0.4-0.2,0.9-0.2,1.4
				c0,0.5,0.1,1,0.2,1.4c0.1,0.4,0.4,0.8,0.6,1.1c0.3,0.3,0.6,0.5,1.1,0.7c0.4,0.2,0.9,0.3,1.4,0.3c0.3,0,0.6,0,0.9-0.1
				c0.3,0,0.5-0.1,0.8-0.2v-2h-2.1v-2.1h4.5v5.8C138.2,118.5,137.5,118.8,136.8,118.9z"/>
			<path class="st11" d="M148.4,118.9l-0.9-2.2h-4.3l-0.8,2.2h-2.9l4.6-11h2.6l4.6,11H148.4z M145.4,110.9l-1.4,3.8h2.8L145.4,110.9
				z"/>
			<path class="st11" d="M159.8,118.7c-0.7,0.3-1.5,0.5-2.5,0.5c-0.9,0-1.6-0.1-2.4-0.4c-0.7-0.3-1.3-0.7-1.9-1.2
				c-0.5-0.5-0.9-1.1-1.2-1.8c-0.3-0.7-0.5-1.5-0.5-2.4c0-0.9,0.2-1.7,0.5-2.4c0.3-0.7,0.7-1.3,1.3-1.8c0.5-0.5,1.2-0.9,1.9-1.2
				c0.7-0.3,1.5-0.4,2.3-0.4c0.8,0,1.5,0.1,2.3,0.4c0.8,0.3,1.4,0.7,1.8,1.2l-1.8,1.8c-0.2-0.3-0.6-0.6-1-0.8
				c-0.4-0.2-0.8-0.2-1.2-0.2c-0.5,0-0.9,0.1-1.3,0.3c-0.4,0.2-0.7,0.4-1,0.7c-0.3,0.3-0.5,0.7-0.7,1.1c-0.2,0.4-0.2,0.9-0.2,1.3
				c0,0.5,0.1,1,0.2,1.4c0.2,0.4,0.4,0.8,0.6,1.1c0.3,0.3,0.6,0.5,1,0.7c0.4,0.2,0.8,0.2,1.3,0.2c0.5,0,1-0.1,1.4-0.3
				c0.4-0.2,0.7-0.5,0.9-0.8l1.9,1.7C161.2,118,160.6,118.4,159.8,118.7z"/>
			<path class="st11" d="M168,114.3v4.7h-2.7v-4.7l-4.1-6.3h3.2l2.3,4.1l2.3-4.1h3.1L168,114.3z"/>
		</g>
	</g>
</g>
<g>
	<path class="st7" d="M73.6,208.3H69l-1.4-6.2c-0.1-0.3-0.2-0.8-0.3-1.6c-0.1-0.8-0.2-1.4-0.3-1.9c-0.1,0.4-0.1,0.9-0.3,1.6
		s-0.2,1.2-0.3,1.7c-0.1,0.5-0.6,2.7-1.4,6.4h-4.6l-3.5-14.3h3.7l1.6,7.2c0.4,1.6,0.6,2.8,0.7,3.8c0.1-0.7,0.2-1.6,0.5-2.7
		c0.2-1.1,0.4-2.1,0.6-2.8l1.3-5.4h3.6l1.2,5.4c0.2,0.9,0.4,1.9,0.6,3s0.4,2,0.4,2.5c0.1-0.7,0.3-2,0.7-3.8l1.6-7.2h3.7L73.6,208.3z
		"/>
	<path class="st7" d="M84,208.5c-1.8,0-3.3-0.5-4.3-1.5c-1-1-1.5-2.4-1.5-4.2c0-1.9,0.5-3.3,1.4-4.3c0.9-1,2.3-1.5,4-1.5
		c1.7,0,3,0.4,3.9,1.3s1.4,2.1,1.4,3.8v1.7h-6.8c0,0.6,0.3,1.1,0.7,1.5c0.4,0.4,1,0.5,1.7,0.5c0.7,0,1.3-0.1,1.9-0.2
		c0.6-0.1,1.2-0.3,1.8-0.6v2.7c-0.6,0.3-1.2,0.5-1.9,0.6C85.7,208.5,84.9,208.5,84,208.5z M83.8,199.7c-0.4,0-0.8,0.1-1.1,0.4
		s-0.5,0.7-0.5,1.3h3.3c0-0.5-0.2-1-0.5-1.3C84.7,199.8,84.3,199.7,83.8,199.7z"/>
	<path class="st7" d="M98.3,208.3l-0.7-1.5h-0.1c-0.5,0.6-1,1.1-1.6,1.3c-0.5,0.2-1.2,0.4-2.1,0.4c-1,0-1.9-0.3-2.5-0.9
		c-0.6-0.6-0.9-1.5-0.9-2.6c0-1.2,0.4-2.1,1.2-2.6s2-0.9,3.6-1l1.8-0.1v-0.2c0-0.9-0.4-1.4-1.3-1.4c-0.8,0-1.8,0.3-3.1,0.8l-1.1-2.5
		c1.3-0.7,2.9-1,4.9-1c1.4,0,2.5,0.4,3.3,1.1c0.8,0.7,1.2,1.7,1.2,2.9v7.3H98.3z M95.5,205.8c0.5,0,0.9-0.1,1.2-0.4
		c0.3-0.3,0.5-0.7,0.5-1.1v-0.9l-0.9,0c-1.3,0-1.9,0.5-1.9,1.4C94.4,205.5,94.7,205.8,95.5,205.8z"/>
	<path class="st7" d="M107.3,208.3h-3.8v-15.2h3.8V208.3z"/>
	<path class="st7" d="M115.4,205.5c0.5,0,1.1-0.1,1.8-0.4v2.8c-0.5,0.2-1,0.4-1.5,0.5c-0.5,0.1-1,0.1-1.6,0.1
		c-1.3,0-2.2-0.3-2.8-0.9s-0.8-1.6-0.8-2.9v-4.6h-1.3v-1.6l1.7-1.2l1-2.3h2.5v2.2h2.7v2.9h-2.7v4.3
		C114.4,205.2,114.7,205.5,115.4,205.5z"/>
	<path class="st7" d="M126.2,208.3v-6c0-1.5-0.4-2.2-1.3-2.2c-0.6,0-1.1,0.3-1.4,0.8c-0.3,0.5-0.4,1.4-0.4,2.6v4.9h-3.8v-15.2h3.8
		v2.2c0,1-0.1,2.1-0.2,3.3h0.2c0.4-0.6,0.8-1,1.3-1.2c0.5-0.2,1.1-0.4,1.7-0.4c1.2,0,2.2,0.4,2.9,1.1c0.7,0.7,1,1.7,1,3v7.2H126.2z"
		/>
	<path class="st7" d="M144.3,208.3h-3.9v-11.1H137v-3.2h10.8v3.2h-3.5V208.3z"/>
	<path class="st7" d="M156.3,197.1c0.3,0,0.6,0,0.9,0.1l0.2,0l-0.3,3.6c-0.3-0.1-0.7-0.1-1.3-0.1c-0.8,0-1.4,0.2-1.8,0.6
		c-0.4,0.4-0.6,0.9-0.6,1.6v5.4h-3.8v-11.1h2.8l0.6,1.8h0.2c0.3-0.6,0.8-1.1,1.3-1.4C155.1,197.3,155.7,197.1,156.3,197.1z"/>
	<path class="st7" d="M166.2,208.3l-0.7-1.5h-0.1c-0.5,0.6-1,1.1-1.6,1.3c-0.5,0.2-1.2,0.4-2.1,0.4c-1,0-1.9-0.3-2.5-0.9
		c-0.6-0.6-0.9-1.5-0.9-2.6c0-1.2,0.4-2.1,1.2-2.6s2-0.9,3.6-1l1.8-0.1v-0.2c0-0.9-0.4-1.4-1.3-1.4c-0.8,0-1.8,0.3-3.1,0.8l-1.1-2.5
		c1.3-0.7,2.9-1,4.9-1c1.4,0,2.5,0.4,3.3,1.1c0.8,0.7,1.2,1.7,1.2,2.9v7.3H166.2z M163.4,205.8c0.5,0,0.9-0.1,1.2-0.4
		c0.3-0.3,0.5-0.7,0.5-1.1v-0.9l-0.9,0c-1.3,0-1.9,0.5-1.9,1.4C162.3,205.5,162.6,205.8,163.4,205.8z"/>
	<path class="st7" d="M178.4,208.3v-6c0-0.7-0.1-1.3-0.3-1.7c-0.2-0.4-0.6-0.6-1-0.6c-0.6,0-1.1,0.3-1.4,0.8
		c-0.3,0.5-0.4,1.4-0.4,2.6v4.8h-3.8v-11.1h2.9l0.5,1.4h0.2c0.3-0.5,0.8-0.9,1.4-1.2s1.2-0.4,2-0.4c1.2,0,2.2,0.4,2.9,1.1
		c0.7,0.7,1,1.7,1,3v7.2H178.4z"/>
	<path class="st7" d="M193.4,204.9c0,1.2-0.4,2.1-1.2,2.7c-0.8,0.6-2,0.9-3.5,0.9c-0.8,0-1.5,0-2.1-0.1s-1.2-0.2-1.9-0.5v-3.1
		c0.6,0.3,1.2,0.5,1.9,0.6c0.7,0.2,1.3,0.3,1.9,0.3c0.8,0,1.2-0.2,1.2-0.6c0-0.2-0.1-0.4-0.3-0.5c-0.2-0.2-0.9-0.5-2-0.9
		c-1-0.4-1.7-0.9-2.1-1.4c-0.4-0.5-0.6-1.2-0.6-2c0-1,0.4-1.8,1.2-2.4c0.8-0.6,1.9-0.9,3.4-0.9c0.7,0,1.4,0.1,2.1,0.2
		c0.6,0.2,1.3,0.4,2,0.7l-1,2.5c-0.5-0.2-1-0.4-1.6-0.6s-1-0.2-1.4-0.2c-0.6,0-0.9,0.2-0.9,0.5c0,0.2,0.1,0.3,0.3,0.5
		c0.2,0.1,0.8,0.4,1.9,0.8c0.8,0.3,1.4,0.6,1.7,0.9s0.7,0.7,0.8,1.1C193.3,203.8,193.4,204.3,193.4,204.9z"/>
	<path class="st7" d="M202.3,200.1h-2.4v8.2h-3.8v-8.2h-1.5v-1.9l1.5-0.9v-0.2c0-1.5,0.3-2.5,0.9-3.1s1.6-1,2.9-1c0.5,0,1,0,1.4,0.1
		c0.5,0.1,1,0.2,1.6,0.4l-0.8,2.5c-0.5-0.1-0.9-0.2-1.4-0.2c-0.3,0-0.5,0.1-0.6,0.3c-0.1,0.2-0.2,0.5-0.2,0.9v0.3h2.4V200.1z"/>
	<path class="st7" d="M209.1,208.5c-1.8,0-3.3-0.5-4.3-1.5c-1-1-1.5-2.4-1.5-4.2c0-1.9,0.5-3.3,1.4-4.3c0.9-1,2.3-1.5,4-1.5
		c1.7,0,3,0.4,3.9,1.3s1.4,2.1,1.4,3.8v1.7h-6.8c0,0.6,0.3,1.1,0.7,1.5c0.4,0.4,1,0.5,1.7,0.5c0.7,0,1.3-0.1,1.9-0.2
		c0.6-0.1,1.2-0.3,1.8-0.6v2.7c-0.6,0.3-1.2,0.5-1.9,0.6C210.8,208.5,210,208.5,209.1,208.5z M208.9,199.7c-0.4,0-0.8,0.1-1.1,0.4
		s-0.5,0.7-0.5,1.3h3.3c0-0.5-0.2-1-0.5-1.3C209.8,199.8,209.4,199.7,208.9,199.7z"/>
	<path class="st7" d="M222.8,197.1c0.3,0,0.6,0,0.9,0.1l0.2,0l-0.3,3.6c-0.3-0.1-0.7-0.1-1.3-0.1c-0.8,0-1.4,0.2-1.8,0.6
		c-0.4,0.4-0.6,0.9-0.6,1.6v5.4h-3.8v-11.1h2.8l0.6,1.8h0.2c0.3-0.6,0.8-1.1,1.3-1.4C221.7,197.3,222.2,197.1,222.8,197.1z"/>
	<path class="st7" d="M88.1,229.5c0.5,0,1.1-0.1,1.8-0.4v2.8c-0.5,0.2-1,0.4-1.5,0.5c-0.5,0.1-1,0.1-1.6,0.1c-1.3,0-2.2-0.3-2.8-0.9
		s-0.8-1.6-0.8-2.9v-4.6h-1.3v-1.6l1.7-1.2l1-2.3H87v2.2h2.7v2.9H87v4.3C87,229.2,87.4,229.5,88.1,229.5z"/>
	<path class="st7" d="M102.4,226.8c0,1.8-0.5,3.2-1.5,4.2c-1,1-2.3,1.5-4.1,1.5c-1.7,0-3-0.5-4-1.6c-1-1-1.5-2.4-1.5-4.2
		c0-1.8,0.5-3.2,1.5-4.2c1-1,2.3-1.5,4.1-1.5c1.1,0,2,0.2,2.9,0.7c0.8,0.5,1.5,1.1,1.9,2C102.2,224.6,102.4,225.6,102.4,226.8z
		 M95.3,226.8c0,1,0.1,1.7,0.4,2.2s0.7,0.7,1.3,0.7c0.6,0,1-0.2,1.3-0.7s0.4-1.2,0.4-2.2c0-0.9-0.1-1.7-0.4-2.1
		c-0.2-0.5-0.7-0.7-1.3-0.7c-0.6,0-1,0.2-1.3,0.7S95.3,225.8,95.3,226.8z"/>
	<path class="st7" d="M115.2,229.5c0.5,0,1.1-0.1,1.8-0.4v2.8c-0.5,0.2-1,0.4-1.5,0.5c-0.5,0.1-1,0.1-1.6,0.1
		c-1.3,0-2.2-0.3-2.8-0.9s-0.8-1.6-0.8-2.9v-4.6H109v-1.6l1.7-1.2l1-2.3h2.5v2.2h2.7v2.9h-2.7v4.3
		C114.2,229.2,114.5,229.5,115.2,229.5z"/>
	<path class="st7" d="M126,232.3v-6c0-1.5-0.4-2.2-1.3-2.2c-0.6,0-1.1,0.3-1.4,0.8c-0.3,0.5-0.4,1.4-0.4,2.6v4.9H119v-15.2h3.8v2.2
		c0,1-0.1,2.1-0.2,3.3h0.2c0.4-0.6,0.8-1,1.3-1.2c0.5-0.2,1.1-0.4,1.7-0.4c1.2,0,2.2,0.4,2.9,1.1c0.7,0.7,1,1.7,1,3v7.2H126z"/>
	<path class="st7" d="M137.7,232.5c-1.8,0-3.3-0.5-4.3-1.5c-1-1-1.5-2.4-1.5-4.2c0-1.9,0.5-3.3,1.4-4.3c0.9-1,2.3-1.5,4-1.5
		c1.7,0,3,0.4,3.9,1.3s1.4,2.1,1.4,3.8v1.7h-6.8c0,0.6,0.3,1.1,0.7,1.5c0.4,0.4,1,0.5,1.7,0.5c0.7,0,1.3-0.1,1.9-0.2
		c0.6-0.1,1.2-0.3,1.8-0.6v2.7c-0.6,0.3-1.2,0.5-1.9,0.6C139.4,232.5,138.6,232.5,137.7,232.5z M137.5,223.7c-0.4,0-0.8,0.1-1.1,0.4
		s-0.5,0.7-0.5,1.3h3.3c0-0.5-0.2-1-0.5-1.3C138.4,223.8,138,223.7,137.5,223.7z"/>
	<path class="st7" d="M163.8,232.3h-5.1l-5.2-10.1h-0.1c0.1,1.6,0.2,2.8,0.2,3.6v6.4h-3.4v-14.3h5l5.2,9.9h0.1
		c-0.1-1.4-0.1-2.6-0.1-3.5v-6.5h3.4V232.3z"/>
	<path class="st7" d="M172,232.5c-1.8,0-3.3-0.5-4.3-1.5c-1-1-1.5-2.4-1.5-4.2c0-1.9,0.5-3.3,1.4-4.3c0.9-1,2.3-1.5,4-1.5
		c1.7,0,3,0.4,3.9,1.3s1.4,2.1,1.4,3.8v1.7H170c0,0.6,0.3,1.1,0.7,1.5c0.4,0.4,1,0.5,1.7,0.5c0.7,0,1.3-0.1,1.9-0.2
		c0.6-0.1,1.2-0.3,1.8-0.6v2.7c-0.6,0.3-1.2,0.5-1.9,0.6C173.6,232.5,172.9,232.5,172,232.5z M171.7,223.7c-0.4,0-0.8,0.1-1.1,0.4
		s-0.5,0.7-0.5,1.3h3.3c0-0.5-0.2-1-0.5-1.3C172.6,223.8,172.2,223.7,171.7,223.7z"/>
	<path class="st7" d="M181.3,226.7l-3.4-5.4h4.3l1.7,3.1l1.7-3.1h4.3l-3.5,5.4l3.6,5.6h-4.3L184,229l-1.9,3.4h-4.3L181.3,226.7z"/>
	<path class="st7" d="M197,229.5c0.5,0,1.1-0.1,1.8-0.4v2.8c-0.5,0.2-1,0.4-1.5,0.5c-0.5,0.1-1,0.1-1.6,0.1c-1.3,0-2.2-0.3-2.8-0.9
		s-0.8-1.6-0.8-2.9v-4.6h-1.3v-1.6l1.7-1.2l1-2.3h2.5v2.2h2.7v2.9H196v4.3C196,229.2,196.3,229.5,197,229.5z"/>
	<path class="st7" d="M87.4,248h6.2v7.7c-1.7,0.6-3.5,0.9-5.5,0.9c-2.2,0-3.9-0.6-5.1-1.9s-1.8-3.1-1.8-5.5c0-2.3,0.7-4.1,2-5.4
		c1.3-1.3,3.2-1.9,5.5-1.9c0.9,0,1.7,0.1,2.5,0.3c0.8,0.2,1.5,0.4,2.1,0.6l-1.2,3c-1-0.5-2.2-0.8-3.4-0.8c-1.1,0-2,0.4-2.6,1.1
		s-0.9,1.8-0.9,3.1c0,1.3,0.3,2.4,0.8,3.1s1.4,1,2.4,1c0.6,0,1.1-0.1,1.6-0.2V251h-2.5V248z"/>
	<path class="st7" d="M101.6,256.5c-1.8,0-3.3-0.5-4.3-1.5c-1-1-1.5-2.4-1.5-4.2c0-1.9,0.5-3.3,1.4-4.3c0.9-1,2.3-1.5,4-1.5
		c1.7,0,3,0.4,3.9,1.3s1.4,2.1,1.4,3.8v1.7h-6.8c0,0.6,0.3,1.1,0.7,1.5c0.4,0.4,1,0.5,1.7,0.5c0.7,0,1.3-0.1,1.9-0.2
		c0.6-0.1,1.2-0.3,1.8-0.6v2.7c-0.6,0.3-1.2,0.5-1.9,0.6C103.2,256.5,102.4,256.5,101.6,256.5z M101.3,247.7c-0.4,0-0.8,0.1-1.1,0.4
		s-0.5,0.7-0.5,1.3h3.3c0-0.5-0.2-1-0.5-1.3C102.2,247.8,101.8,247.7,101.3,247.7z"/>
	<path class="st7" d="M115.6,256.3v-6c0-0.7-0.1-1.3-0.3-1.7c-0.2-0.4-0.6-0.6-1-0.6c-0.6,0-1.1,0.3-1.4,0.8
		c-0.3,0.5-0.4,1.4-0.4,2.6v4.8h-3.8v-11.1h2.9l0.5,1.4h0.2c0.3-0.5,0.8-0.9,1.4-1.2s1.2-0.4,2-0.4c1.2,0,2.2,0.4,2.9,1.1
		c0.7,0.7,1,1.7,1,3v7.2H115.6z"/>
	<path class="st7" d="M127.3,256.5c-1.8,0-3.3-0.5-4.3-1.5c-1-1-1.5-2.4-1.5-4.2c0-1.9,0.5-3.3,1.4-4.3c0.9-1,2.3-1.5,4-1.5
		c1.7,0,3,0.4,3.9,1.3s1.4,2.1,1.4,3.8v1.7h-6.8c0,0.6,0.3,1.1,0.7,1.5c0.4,0.4,1,0.5,1.7,0.5c0.7,0,1.3-0.1,1.9-0.2
		c0.6-0.1,1.2-0.3,1.8-0.6v2.7c-0.6,0.3-1.2,0.5-1.9,0.6C129,256.5,128.2,256.5,127.3,256.5z M127.1,247.7c-0.4,0-0.8,0.1-1.1,0.4
		s-0.5,0.7-0.5,1.3h3.3c0-0.5-0.2-1-0.5-1.3C128,247.8,127.6,247.7,127.1,247.7z"/>
	<path class="st7" d="M141,245.1c0.3,0,0.6,0,0.9,0.1l0.2,0l-0.3,3.6c-0.3-0.1-0.7-0.1-1.3-0.1c-0.8,0-1.4,0.2-1.8,0.6
		c-0.4,0.4-0.6,0.9-0.6,1.6v5.4h-3.8v-11.1h2.8l0.6,1.8h0.2c0.3-0.6,0.8-1.1,1.3-1.4C139.9,245.3,140.4,245.1,141,245.1z"/>
	<path class="st7" d="M149.1,253.5c0.5,0,1.1-0.1,1.8-0.4v2.8c-0.5,0.2-1,0.4-1.5,0.5c-0.5,0.1-1,0.1-1.6,0.1
		c-1.3,0-2.2-0.3-2.8-0.9s-0.8-1.6-0.8-2.9v-4.6h-1.3v-1.6l1.7-1.2l1-2.3h2.5v2.2h2.7v2.9h-2.7v4.3
		C148.1,253.2,148.5,253.5,149.1,253.5z"/>
	<path class="st7" d="M160.1,256.3l-0.7-1.5h-0.1c-0.5,0.6-1,1.1-1.6,1.3c-0.5,0.2-1.2,0.4-2.1,0.4c-1,0-1.9-0.3-2.5-0.9
		c-0.6-0.6-0.9-1.5-0.9-2.6c0-1.2,0.4-2.1,1.2-2.6s2-0.9,3.6-1l1.8-0.1v-0.2c0-0.9-0.4-1.4-1.3-1.4c-0.8,0-1.8,0.3-3.1,0.8l-1.1-2.5
		c1.3-0.7,2.9-1,4.9-1c1.4,0,2.5,0.4,3.3,1.1c0.8,0.7,1.2,1.7,1.2,2.9v7.3H160.1z M157.3,253.8c0.5,0,0.9-0.1,1.2-0.4
		c0.3-0.3,0.5-0.7,0.5-1.1v-0.9l-0.9,0c-1.3,0-1.9,0.5-1.9,1.4C156.2,253.5,156.6,253.8,157.3,253.8z"/>
	<path class="st7" d="M170.8,253.5c0.5,0,1.1-0.1,1.8-0.4v2.8c-0.5,0.2-1,0.4-1.5,0.5c-0.5,0.1-1,0.1-1.6,0.1
		c-1.3,0-2.2-0.3-2.8-0.9s-0.8-1.6-0.8-2.9v-4.6h-1.3v-1.6l1.7-1.2l1-2.3h2.5v2.2h2.7v2.9h-2.7v4.3
		C169.8,253.2,170.1,253.5,170.8,253.5z"/>
	<path class="st7" d="M174.5,242.5c0-0.6,0.2-1,0.5-1.3c0.3-0.3,0.8-0.4,1.5-0.4c0.7,0,1.2,0.1,1.6,0.4c0.3,0.3,0.5,0.7,0.5,1.3
		c0,1.1-0.7,1.7-2,1.7C175.2,244.2,174.5,243.6,174.5,242.5z M178.4,256.3h-3.8v-11.1h3.8V256.3z"/>
	<path class="st7" d="M191.7,250.8c0,1.8-0.5,3.2-1.5,4.2c-1,1-2.3,1.5-4.1,1.5c-1.7,0-3-0.5-4-1.6c-1-1-1.5-2.4-1.5-4.2
		c0-1.8,0.5-3.2,1.5-4.2c1-1,2.3-1.5,4.1-1.5c1.1,0,2,0.2,2.9,0.7c0.8,0.5,1.5,1.1,1.9,2C191.4,248.6,191.7,249.6,191.7,250.8z
		 M184.5,250.8c0,1,0.1,1.7,0.4,2.2s0.7,0.7,1.3,0.7c0.6,0,1-0.2,1.3-0.7s0.4-1.2,0.4-2.2c0-0.9-0.1-1.7-0.4-2.1
		c-0.2-0.5-0.7-0.7-1.3-0.7c-0.6,0-1,0.2-1.3,0.7S184.5,249.8,184.5,250.8z"/>
	<path class="st7" d="M200.8,256.3v-6c0-0.7-0.1-1.3-0.3-1.7c-0.2-0.4-0.6-0.6-1-0.6c-0.6,0-1.1,0.3-1.4,0.8
		c-0.3,0.5-0.4,1.4-0.4,2.6v4.8h-3.8v-11.1h2.9l0.5,1.4h0.2c0.3-0.5,0.8-0.9,1.4-1.2s1.2-0.4,2-0.4c1.2,0,2.2,0.4,2.9,1.1
		c0.7,0.7,1,1.7,1,3v7.2H200.8z"/>
</g>
</svg>
