<svg width="516" height="133" viewBox="0 0 516 133" fill="none" xmlns="http://www.w3.org/2000/svg">
<path d="M0 106.706L5.00768 98.8848C9.63514 103.214 15.6871 105.7 22.0216 105.873C28.5936 105.873 32.037 103.151 32.037 99.1895C32.037 89.2757 1.56427 96.3758 1.56427 76.9647C1.56427 68.7168 8.67456 61.7284 21.3918 61.7284C28.5354 61.5463 35.4922 64.0221 40.9147 68.6761L36.3133 76.3959C33.266 73.0642 27.7606 70.3013 21.3918 70.3013C15.6528 70.3013 12.1078 73.0236 12.1078 76.5787C12.1078 85.4361 42.5805 78.7626 42.5805 98.8035C42.5805 107.773 35.1655 114.558 21.6052 114.558C12.9407 114.639 5.22099 111.826 0 106.706Z" fill="black"/>
<path d="M87.7918 113.369V106.696C85.5437 109.183 82.8019 111.174 79.7412 112.541C76.6805 113.909 73.3683 114.624 70.016 114.639C59.1576 114.639 53.7639 108.9 53.7639 98.6715V62.9778H64.7341V94.5983C64.7341 102.43 68.6955 104.929 74.9628 104.929C77.4567 104.863 79.904 104.238 82.1244 103.101C84.3448 101.964 86.2815 100.342 87.7918 98.3566V62.9778H98.7518V113.369H87.7918Z" fill="black"/>
<path d="M113.175 113.37V62.9779H124.135V70.2913C127.995 65.4868 134.049 61.7285 140.519 61.7285V72.587C139.421 72.3557 138.3 72.25 137.178 72.2721C132.485 72.2721 126.329 75.4006 124.135 79.0472V113.37H113.175Z" fill="black"/>
<path d="M203.72 106.706L208.717 98.8849C213.345 103.214 219.397 105.7 225.731 105.873C232.303 105.873 235.757 103.151 235.757 99.1897C235.757 89.2759 205.284 96.376 205.284 76.9649C205.284 68.717 212.394 61.7285 225.112 61.7285C232.252 61.5471 239.205 64.023 244.624 68.6763L240.033 76.3961C236.986 73.0644 231.47 70.3015 225.101 70.3015C219.362 70.3015 215.828 73.0238 215.828 76.5789C215.828 85.4363 246.3 78.7628 246.3 98.8037C246.3 107.773 238.895 114.558 225.325 114.558C216.66 114.639 208.931 111.826 203.72 106.706Z" fill="black"/>
<path d="M254.467 88.1284C254.467 72.8921 265.214 61.7188 280.45 61.7188C290.364 61.7188 296.204 65.8935 299.749 70.698L292.558 77.27C291.28 75.3929 289.546 73.8719 287.519 72.8501C285.491 71.8283 283.237 71.3394 280.968 71.4294C271.887 71.4294 265.732 78.3061 265.732 88.1183C265.732 97.9305 271.887 104.919 280.968 104.919C283.257 104.965 285.521 104.43 287.548 103.365C289.575 102.299 291.298 100.737 292.558 98.8244L299.749 105.599C296.204 110.302 290.364 114.579 280.45 114.579C265.214 114.64 254.467 103.365 254.467 88.1284Z" fill="black"/>
<path d="M309.735 113.37V62.9779H320.685V70.2913C324.545 65.4868 330.599 61.7285 337.069 61.7285V72.587C335.97 72.3557 334.849 72.25 333.727 72.2721C329.034 72.2721 322.879 75.4006 320.685 79.0472V113.37H309.735Z" fill="black"/>
<path d="M346.148 113.369V62.9778H357.108V113.369H346.148Z" fill="black"/>
<path d="M382.493 106.391V132.283H371.543V62.978H382.493V69.8648C384.367 67.3397 386.807 65.2891 389.617 63.8779C392.427 62.4666 395.529 61.734 398.674 61.7388C411.716 61.7388 421.02 71.5408 421.02 88.1485C421.02 104.756 411.726 114.66 398.674 114.66C392.305 114.639 386.668 111.714 382.493 106.391ZM409.735 88.1078C409.735 78.2956 404.098 71.419 395.444 71.419C392.917 71.4609 390.435 72.0848 388.188 73.2422C385.942 74.3997 383.993 76.0594 382.493 78.0925V98.0216C383.972 100.092 385.912 101.792 388.159 102.987C390.406 104.182 392.9 104.84 395.444 104.908C404.098 104.929 409.735 97.9404 409.735 88.1282V88.1078Z" fill="black"/>
<path d="M461.448 106.707L466.456 98.8853C471.073 103.205 477.109 105.69 483.429 105.874C490.001 105.874 493.445 103.151 493.445 99.19C493.445 89.2762 462.972 96.3763 462.972 76.9652C462.972 68.7173 470.082 61.7289 482.799 61.7289C489.957 61.5347 496.931 64.0114 502.363 68.6766L497.762 76.3964C494.714 73.0647 489.209 70.3019 482.85 70.3019C477.101 70.3019 473.556 73.0241 473.556 76.5792C473.556 85.4366 504.029 78.7631 504.029 98.804C504.029 107.773 496.624 114.558 483.064 114.558C474.389 114.64 466.679 111.826 461.448 106.707Z" fill="black"/>
<path d="M357.922 50.3929C357.922 51.6385 357.553 52.8561 356.861 53.8917C356.169 54.9274 355.185 55.7346 354.034 56.2112C352.884 56.6879 351.617 56.8126 350.396 56.5696C349.174 56.3266 348.052 55.7268 347.171 54.8461C346.29 53.9653 345.691 52.8432 345.448 51.6215C345.205 50.3999 345.329 49.1336 345.806 47.9829C346.283 46.8321 347.09 45.8486 348.126 45.1566C349.161 44.4646 350.379 44.0952 351.624 44.0952C353.295 44.0952 354.896 44.7587 356.078 45.9398C357.259 47.1208 357.922 48.7227 357.922 50.3929Z" fill="black"/>
<path d="M434.49 101.597V72.4855H426.151V62.9781H434.49V50.3928H445.45V62.9882H455.679V72.4957H445.45V98.9054C445.45 102.349 447.116 105 450.255 105C451.847 105.065 453.434 104.77 454.897 104.137V113.278C452.545 114.304 449.996 114.8 447.431 114.731C438.888 114.731 434.49 110.14 434.49 101.689" fill="black"/>
<path d="M89.1223 8.74681C55.4601 8.74681 26.2063 25.7506 11.3458 50.7281L9.57837 50.0678C16.7714 35.0734 28.0558 22.4173 42.1305 13.5588C56.2052 4.70025 72.497 0 89.1274 0C105.758 0 122.05 4.70025 136.124 13.5588C150.199 22.4173 161.483 35.0734 168.676 50.0678L166.909 50.7281C152.038 25.7303 122.835 8.74681 89.1223 8.74681Z" fill="black"/>
<path d="M188.301 100.165C184.405 103.697 179.338 105.659 174.08 105.671C164.583 105.671 158.945 99.3017 158.112 91.7953H196.935V89.073C196.935 73.2171 187.336 61.739 172.201 61.739C157.279 61.739 146.634 73.532 146.634 88.1487C146.634 104.116 157.808 114.65 173.044 114.65C180.662 114.65 187.783 112.222 192.861 107.783C191.206 105.244 189.723 102.725 188.301 100.165ZM172.049 70.7082C181.962 70.7082 186.025 78.0216 186.34 83.9638H157.98C158.387 77.8997 162.785 70.7082 172.069 70.7082H172.049Z" fill="black"/>
<path d="M510.987 62.2568C511.921 62.2568 512.834 62.5339 513.611 63.0529C514.388 63.5719 514.993 64.3095 515.351 65.1726C515.708 66.0357 515.802 66.9853 515.619 67.9016C515.437 68.8178 514.987 69.6594 514.327 70.32C513.666 70.9805 512.825 71.4304 511.908 71.6126C510.992 71.7949 510.043 71.7013 509.179 71.3438C508.316 70.9863 507.579 70.3809 507.06 69.6042C506.541 68.8275 506.264 67.9143 506.264 66.9801C506.266 65.7282 506.765 64.5284 507.65 63.6432C508.535 62.758 509.735 62.2595 510.987 62.2568ZM510.987 70.6368C511.716 70.6672 512.437 70.4789 513.058 70.096C513.679 69.7131 514.172 69.1532 514.472 68.4883C514.772 67.8233 514.867 67.0838 514.743 66.3647C514.62 65.6456 514.284 64.9799 513.779 64.4532C513.275 63.9264 512.624 63.5627 511.911 63.4088C511.197 63.2549 510.455 63.3179 509.777 63.5896C509.1 63.8613 508.52 64.3294 508.111 64.9336C507.702 65.5378 507.483 66.2505 507.483 66.9801C507.468 67.4516 507.547 67.9212 507.716 68.3616C507.885 68.802 508.14 69.2043 508.466 69.5448C508.793 69.8854 509.184 70.1574 509.617 70.3449C510.049 70.5324 510.515 70.6317 510.987 70.6368ZM509.169 64.4509H510.763C511.901 64.4509 512.998 64.7251 512.998 65.9136C513.02 66.2582 512.92 66.5996 512.716 66.8782C512.512 67.1567 512.216 67.3545 511.881 67.4372L513.151 69.4078H511.871L510.733 67.4981H510.438V69.4078H509.22L509.169 64.4509ZM510.378 66.4824H510.977C511.282 66.4824 511.779 66.4824 511.779 65.944C511.779 65.4057 511.282 65.4158 510.977 65.4158H510.378V66.4824Z" fill="black"/>
</svg>
